<svg width="45" height="30" viewBox="0 0 45 30" fill="none" xmlns="http://www.w3.org/2000/svg">
<path d="M26.8396 29.2712L8.48674 20.9146L2.71393 12.2578L23.8029 4.66992L35.2451 19.166L26.8396 29.2712Z" fill="#1B90FF"/>
<path d="M17.3997 8.72192L17.3849 8.71207L3.67943 13.5416L0 10.1306L12.6219 6.38965L17.3849 8.81797L17.3997 8.72192Z" fill="#1B90FF"/>
<path d="M28.1471 5.11599L28.1323 5.10614L14.6657 10.0835L11.5267 5.54822L25.9883 0.728516L28.1323 5.21204L28.1471 5.11599Z" fill="#FF7F4C"/>
<path d="M28.1476 5.11599L28.1329 5.21204L31.0592 0.728516L43.4536 8.24095L40.1957 13.029L28.1476 5.11599Z" fill="#C35500"/>
<path d="M14.6658 10.084L15.0993 18.5284L26.7434 29.1086L26.8395 29.0618L26.5833 18.7703L14.6658 10.084Z" fill="#450B00"/>
<path d="M40.1957 13.0293L26.5838 18.7701L26.8399 29.2718L40.1957 22.8316V13.0293Z" fill="#8D2A00"/>
<path d="M28.1324 5.21235L28.1472 5.1163L28.1324 5.10645L14.6658 10.0838L23.8028 16.7432L28.4058 14.8197L28.1324 5.21235Z" fill="#A93E00"/>
<path d="M28.1476 5.11621L28.1329 5.21226L28.4062 14.8197L28.4949 14.7827L31.0341 16.8933L40.1957 13.0292L28.1476 5.11621Z" fill="#8D2A00"/>
<path d="M28.4947 14.7822L28.406 14.8192L23.803 16.7426L26.5835 18.7695L28.4947 17.9642L31.3885 16.7426L28.4947 14.7822Z" fill="#340800"/>
<path d="M40.1957 20.2268V13.0293L26.5838 18.7701L30.9342 24.7542L40.1957 20.2268Z" fill="#450B00"/>
<path d="M40.196 13.0293L26.5841 18.7701L31.6468 22.1714L45.0001 15.7312L40.196 13.0293Z" fill="#FF7F4C"/>
<path d="M14.6661 10.084L11.6715 15.0719L23.1786 23.8655L26.5836 18.7703L14.6661 10.084Z" fill="#C35500"/>
<path d="M2.71393 10.1553L3.84928 17.4452L9.62209 25.9345V21.4669" fill="#1B90FF"/>
</svg>
