<svg width="45" height="29" viewBox="0 0 45 29" fill="none" xmlns="http://www.w3.org/2000/svg">
<path d="M26.8396 28.7712L8.4868 20.4146L2.71399 11.7578L23.803 4.16992L35.2452 18.666L26.8396 28.7712Z" fill="#101619"/>
<path d="M17.3997 8.22192L17.3849 8.21207L3.67943 13.0416L0 9.63065L12.6219 5.88965L17.3849 8.31797L17.3997 8.22192Z" fill="#101619"/>
<path d="M28.147 4.61599L28.1322 4.60614L14.6656 9.58347L11.5266 5.04822L25.9882 0.228516L28.1322 4.71204L28.147 4.61599Z" fill="#FF7F4C"/>
<path d="M28.1476 4.61599L28.1328 4.71204L31.0591 0.228516L43.4536 7.74095L40.1956 12.529L28.1476 4.61599Z" fill="#C35500"/>
<path d="M14.6659 9.58398L15.0993 18.0284L26.7435 28.6086L26.8395 28.5618L26.5834 18.2703L14.6659 9.58398Z" fill="#450B00"/>
<path d="M40.1958 12.5293L26.5839 18.2701L26.84 28.7718L40.1958 22.3316V12.5293Z" fill="#8D2A00"/>
<path d="M28.1325 4.71235L28.1473 4.6163L28.1325 4.60645L14.6659 9.58377L23.8029 16.2432L28.4059 14.3197L28.1325 4.71235Z" fill="#A93E00"/>
<path d="M28.1476 4.61621L28.1328 4.71226L28.4062 14.3197L28.4948 14.2827L31.034 16.3933L40.1956 12.5292L28.1476 4.61621Z" fill="#8D2A00"/>
<path d="M28.4947 14.2822L28.4061 14.3192L23.8031 16.2426L26.5836 18.2695L28.4947 17.4642L31.3885 16.2426L28.4947 14.2822Z" fill="#340800"/>
<path d="M40.1958 19.7268V12.5293L26.5839 18.2701L30.9342 24.2542L40.1958 19.7268Z" fill="#450B00"/>
<path d="M40.196 12.5293L26.5841 18.2701L31.6468 21.6714L45.0001 15.2312L40.196 12.5293Z" fill="#FF7F4C"/>
<path d="M14.6661 9.58398L11.6715 14.5719L23.1786 23.3655L26.5836 18.2703L14.6661 9.58398Z" fill="#C35500"/>
<path d="M2.71399 9.65527L3.84934 16.9452L9.62215 25.4345V20.9669" fill="#101619"/>
</svg>
