<svg width="128" height="128" viewBox="0 0 128 128" fill="none" xmlns="http://www.w3.org/2000/svg">
<g opacity="0.92">
<path d="M61.2044 16.3711L5.06481 43.3837C3.92923 43.8878 2.96326 44.7088 2.28287 45.7484C1.63995 46.7734 1.30222 47.9603 1.30919 49.1702V103.168C1.30917 104.875 1.98534 106.512 3.18971 107.722C4.39408 108.931 6.02857 109.614 7.73548 109.622H120.182C121.888 109.614 123.523 108.931 124.727 107.722C125.932 106.512 126.608 104.875 126.608 103.168V49.1702C126.615 47.9603 126.277 46.7734 125.634 45.7484C124.954 44.7088 123.988 43.8878 122.852 43.3837L66.8239 16.2876C65.9521 15.8839 65.0028 15.6748 64.042 15.6748C63.0812 15.6748 62.1319 15.8839 61.26 16.2876L61.2044 16.3711Z" fill="white"/>
<path d="M7.8465 111.041C5.76032 111.033 3.76124 110.203 2.28262 108.732C1.55515 108 0.979203 107.132 0.587759 106.177C0.196315 105.222 -0.00293189 104.2 0.00142623 103.168V49.1703C-0.0276746 47.6908 0.389145 46.2368 1.19766 44.9974C1.99166 43.7862 3.10978 42.8223 4.42471 42.2155L60.5643 15.2306C61.6304 14.7025 62.7971 14.4085 63.9861 14.3682C65.1559 14.3355 66.3174 14.5735 67.3801 15.0637L123.575 42.1876C124.89 42.7945 126.008 43.7584 126.802 44.9696C127.611 46.209 128.028 47.663 127.999 49.1425V103.14C128.003 104.172 127.804 105.194 127.412 106.149C127.021 107.104 126.445 107.972 125.717 108.704C124.239 110.176 122.24 111.005 120.154 111.013L7.8465 111.041ZM64.1252 17.1502C63.3615 17.1535 62.6091 17.3345 61.9275 17.6787L5.78787 44.6636C4.92942 45.074 4.20568 45.7205 3.70141 46.5275C3.16787 47.3553 2.89641 48.3248 2.92247 49.3094V103.335C2.90718 104.587 3.36408 105.798 4.20216 106.729C5.14722 107.675 6.42539 108.215 7.76305 108.231H120.181C120.858 108.234 121.528 108.103 122.154 107.845C122.779 107.587 123.348 107.207 123.826 106.729C124.296 106.263 124.668 105.708 124.921 105.097C125.174 104.485 125.303 103.83 125.3 103.168V49.1703C125.324 48.186 125.053 47.2169 124.521 46.3884C124.028 45.5896 123.312 44.9517 122.463 44.5523L66.2116 17.5396C65.5497 17.2701 64.8399 17.1376 64.1252 17.1502Z" fill="#00144A"/>
<path d="M66.0165 77.5468C65.1422 77.9416 64.1939 78.1458 63.2346 78.1458C62.2753 78.1458 61.327 77.9416 60.4526 77.5468L30.825 63.2476L14.1333 55.2078L59.8406 33.147C60.7056 32.7204 61.6581 32.5013 62.6226 32.5072C63.5875 32.4971 64.5409 32.7164 65.4045 33.147L111.724 55.4026L95.5886 63.192L66.0165 77.5468Z" fill="#F58B00"/>
<path d="M66.8233 77.2401C65.949 77.6348 65.0007 77.839 64.0414 77.839C63.0821 77.839 62.1338 77.6348 61.2594 77.2401L60.6196 76.9062L2.39355 107.174C2.97879 108.088 3.7817 108.843 4.73039 109.371C5.68373 109.9 6.75595 110.178 7.84616 110.178H120.153C121.118 110.187 122.071 109.968 122.935 109.538C123.83 109.102 124.61 108.464 125.216 107.674L67.2963 77.0732L66.8233 77.2401Z" fill="#D5DADD"/>
<path d="M7.8465 111.041C5.76032 111.033 3.76124 110.203 2.28262 108.732C1.55515 108 0.979203 107.132 0.587759 106.177C0.196315 105.222 -0.00293189 104.2 0.00142623 103.168V49.1703C-0.0276746 47.6908 0.389145 46.2368 1.19766 44.9974C1.99166 43.7862 3.10978 42.8223 4.42471 42.2155L60.5643 15.2306C61.6304 14.7025 62.7971 14.4085 63.9861 14.3682C65.1559 14.3355 66.3174 14.5735 67.3801 15.0637L123.575 42.1876C124.89 42.7945 126.008 43.7584 126.802 44.9696C127.611 46.209 128.028 47.663 127.999 49.1425V103.14C128.003 104.172 127.804 105.194 127.412 106.149C127.021 107.104 126.445 107.972 125.717 108.704C124.239 110.176 122.24 111.005 120.154 111.013L7.8465 111.041ZM64.1252 17.1502C63.3615 17.1535 62.6091 17.3345 61.9275 17.6787L5.78787 44.6636C4.92942 45.074 4.20568 45.7205 3.70141 46.5275C3.16787 47.3553 2.89641 48.3248 2.92247 49.3094V103.335C2.90718 104.587 3.36408 105.798 4.20216 106.729C5.14722 107.675 6.42539 108.215 7.76305 108.231H120.181C120.858 108.234 121.528 108.103 122.154 107.845C122.779 107.587 123.348 107.207 123.826 106.729C124.296 106.263 124.668 105.708 124.921 105.097C125.174 104.485 125.303 103.83 125.3 103.168V49.1703C125.324 48.186 125.053 47.2169 124.521 46.3884C124.028 45.5896 123.312 44.9517 122.463 44.5523L66.2116 17.5396C65.5497 17.2701 64.8399 17.1376 64.1252 17.1502Z" fill="#00144A"/>
<path opacity="0.51" d="M57.5596 76.1821L60.3415 77.5453C61.2149 77.9436 62.1636 78.1497 63.1235 78.1497C64.0833 78.1497 65.032 77.9436 65.9054 77.5453L95.5331 63.2461L111.668 55.4566L105.409 52.4521L57.5596 76.1821Z" fill="#CC7400"/>
<path d="M64.0143 79.2435C62.8448 79.2428 61.6885 78.9964 60.6203 78.5202L4.45292 51.3962C2.84008 50.6487 1.54058 49.359 0.780762 47.7519L3.31233 46.5557C3.79691 47.5819 4.62293 48.4079 5.64916 48.8925L61.8166 75.9886C62.5063 76.304 63.2559 76.4672 64.0143 76.4672C64.7727 76.4672 65.5223 76.304 66.212 75.9886L122.352 48.8925C123.38 48.4019 124.214 47.5786 124.716 46.5557L127.248 47.7519C126.493 49.3694 125.193 50.6695 123.576 51.4241L67.4361 78.5202C66.3613 79.006 65.1938 79.2528 64.0143 79.2435Z" fill="#00144A"/>
</g>
</svg>
