<?xml version="1.0" encoding="UTF-8"?>
<!--Generator: Apple Native CoreSVG 341-->
<!DOCTYPE svg
PUBLIC "-//W3C//DTD SVG 1.1//EN"
       "http://www.w3.org/Graphics/SVG/1.1/DTD/svg11.dtd">
<svg version="1.1" xmlns="http://www.w3.org/2000/svg" xmlns:xlink="http://www.w3.org/1999/xlink" viewBox="0 0 3300 2200">
 <!--glyph: "", point size: 100.0, font version: "21.0d4e1", template writer version: "138.0.0"-->
 <style>.defaults {-sfsymbols-draw-reverses-motion-groups:true}

.monochrome-0 {-sfsymbols-motion-group:2;-sfsymbols-layer-tags:20c8c66f263500f2}
.monochrome-1 {-sfsymbols-motion-group:1;-sfsymbols-layer-tags:20c8c66f263500f2}
.monochrome-2 {-sfsymbols-motion-group:0;-sfsymbols-layer-tags:20c8c66f263500f2}

.multicolor-0:tintColor {-sfsymbols-motion-group:2;-sfsymbols-layer-tags:20c8c66f263500f2}
.multicolor-1:tintColor {-sfsymbols-motion-group:1;-sfsymbols-layer-tags:20c8c66f263500f2}
.multicolor-2:tintColor {-sfsymbols-motion-group:0;-sfsymbols-layer-tags:20c8c66f263500f2}

.hierarchical-0:primary {-sfsymbols-motion-group:2;-sfsymbols-layer-tags:20c8c66f263500f2}
.hierarchical-1:primary {-sfsymbols-motion-group:1;-sfsymbols-layer-tags:20c8c66f263500f2}
.hierarchical-2:primary {-sfsymbols-motion-group:0;-sfsymbols-layer-tags:20c8c66f263500f2}

.SFSymbolsPreviewWireframe {fill:none;opacity:1.0;stroke:black;stroke-width:0.5}
</style>
 <g id="Notes">
  <rect height="2200" id="artboard" style="fill:white;opacity:1" width="3300" x="0" y="0"/>
  <line style="fill:none;stroke:black;opacity:1;stroke-width:0.5;" x1="263" x2="3036" y1="292" y2="292"/>
  <text style="stroke:none;fill:black;font-family:sans-serif;font-size:13;font-weight:bold;" transform="matrix(1 0 0 1 263 322)">Weight/Scale Variations</text>
  <text style="stroke:none;fill:black;font-family:sans-serif;font-size:13;text-anchor:middle;" transform="matrix(1 0 0 1 559.711 322)">Ultralight</text>
  <text style="stroke:none;fill:black;font-family:sans-serif;font-size:13;text-anchor:middle;" transform="matrix(1 0 0 1 856.422 322)">Thin</text>
  <text style="stroke:none;fill:black;font-family:sans-serif;font-size:13;text-anchor:middle;" transform="matrix(1 0 0 1 1153.13 322)">Light</text>
  <text style="stroke:none;fill:black;font-family:sans-serif;font-size:13;text-anchor:middle;" transform="matrix(1 0 0 1 1449.84 322)">Regular</text>
  <text style="stroke:none;fill:black;font-family:sans-serif;font-size:13;text-anchor:middle;" transform="matrix(1 0 0 1 1746.56 322)">Medium</text>
  <text style="stroke:none;fill:black;font-family:sans-serif;font-size:13;text-anchor:middle;" transform="matrix(1 0 0 1 2043.27 322)">Semibold</text>
  <text style="stroke:none;fill:black;font-family:sans-serif;font-size:13;text-anchor:middle;" transform="matrix(1 0 0 1 2339.98 322)">Bold</text>
  <text style="stroke:none;fill:black;font-family:sans-serif;font-size:13;text-anchor:middle;" transform="matrix(1 0 0 1 2636.69 322)">Heavy</text>
  <text style="stroke:none;fill:black;font-family:sans-serif;font-size:13;text-anchor:middle;" transform="matrix(1 0 0 1 2933.4 322)">Black</text>
  <line style="fill:none;stroke:black;opacity:1;stroke-width:0.5;" x1="263" x2="3036" y1="1903" y2="1903"/>
  <g transform="matrix(0.2 0 0 0.2 263 1933)">
   <path d="m46.2402 4.15039c21.7773 0 39.4531-17.627 39.4531-39.4043s-17.6758-39.4043-39.4531-39.4043c-21.7285 0-39.4043 17.627-39.4043 39.4043s17.6758 39.4043 39.4043 39.4043Zm0-7.42188c-17.6758 0-31.9336-14.3066-31.9336-31.9824s14.2578-31.9824 31.9336-31.9824 31.9824 14.3066 31.9824 31.9824-14.3066 31.9824-31.9824 31.9824Zm3.61328-17.7734v-28.4668c0-2.24609-1.46484-3.75977-3.71094-3.75977-2.14844 0-3.61328 1.51367-3.61328 3.75977v28.4668c0 2.19727 1.46484 3.71094 3.61328 3.71094 2.24609 0 3.71094-1.51367 3.71094-3.71094Zm-17.8223-10.5957h28.418c2.19727 0 3.71094-1.46484 3.71094-3.61328 0-2.19727-1.51367-3.71094-3.71094-3.71094h-28.418c-2.24609 0-3.75977 1.51367-3.75977 3.71094 0 2.14844 1.51367 3.61328 3.75977 3.61328Z"/>
  </g>
  <g transform="matrix(0.2 0 0 0.2 281.506 1933)">
   <path d="m58.5449 14.5508c27.4902 0 49.8047-22.3145 49.8047-49.8047s-22.3145-49.8047-49.8047-49.8047-49.8047 22.3145-49.8047 49.8047 22.3145 49.8047 49.8047 49.8047Zm0-8.30078c-22.9492 0-41.5039-18.5547-41.5039-41.5039s18.5547-41.5039 41.5039-41.5039 41.5039 18.5547 41.5039 41.5039-18.5547 41.5039-41.5039 41.5039Zm4.05273-23.0957v-36.9141c0-2.49023-1.70898-4.19922-4.15039-4.19922-2.39258 0-4.05273 1.70898-4.05273 4.19922v36.9141c0 2.44141 1.66016 4.15039 4.05273 4.15039 2.44141 0 4.15039-1.66016 4.15039-4.15039Zm-22.5586-14.4043h36.9629c2.44141 0 4.15039-1.61133 4.15039-4.00391 0-2.44141-1.70898-4.15039-4.15039-4.15039h-36.9629c-2.49023 0-4.15039 1.70898-4.15039 4.15039 0 2.39258 1.66016 4.00391 4.15039 4.00391Z"/>
  </g>
  <g transform="matrix(0.2 0 0 0.2 304.924 1933)">
   <path d="m74.8535 28.3203c35.1074 0 63.623-28.4668 63.623-63.5742s-28.5156-63.623-63.623-63.623-63.5742 28.5156-63.5742 63.623 28.4668 63.5742 63.5742 63.5742Zm0-9.08203c-30.127 0-54.4922-24.3652-54.4922-54.4922s24.3652-54.4922 54.4922-54.4922 54.4922 24.3652 54.4922 54.4922-24.3652 54.4922-54.4922 54.4922Zm4.44336-30.3223v-48.4863c0-2.73438-1.85547-4.63867-4.54102-4.63867-2.58789 0-4.44336 1.9043-4.44336 4.63867v48.4863c0 2.68555 1.85547 4.58984 4.44336 4.58984 2.68555 0 4.54102-1.85547 4.54102-4.58984Zm-28.7109-19.7754h48.4863c2.68555 0 4.58984-1.80664 4.58984-4.39453 0-2.73438-1.85547-4.58984-4.58984-4.58984h-48.4863c-2.73438 0-4.58984 1.85547-4.58984 4.58984 0 2.58789 1.85547 4.39453 4.58984 4.39453Z"/>
  </g>
  <text style="stroke:none;fill:black;font-family:sans-serif;font-size:13;font-weight:bold;" transform="matrix(1 0 0 1 263 1953)">Design Variations</text>
  <text style="stroke:none;fill:black;font-family:sans-serif;font-size:13;" transform="matrix(1 0 0 1 263 1971)">Symbols are supported in up to nine weights and three scales.</text>
  <text style="stroke:none;fill:black;font-family:sans-serif;font-size:13;" transform="matrix(1 0 0 1 263 1989)">For optimal layout with text and other symbols, vertically align</text>
  <text style="stroke:none;fill:black;font-family:sans-serif;font-size:13;" transform="matrix(1 0 0 1 263 2007)">symbols with the adjacent text.</text>
  <line style="fill:none;stroke:#00AEEF;stroke-width:0.5;opacity:1.0;" x1="776" x2="776" y1="1919" y2="1933"/>
  <g transform="matrix(0.2 0 0 0.2 776 1933)">
   <path d="m16.5527 0.78125c2.58789 0 3.85742-0.976562 4.78516-3.71094l20.5566-57.5195h0.244141l20.6055 57.5195c0.927734 2.73438 2.19727 3.71094 4.73633 3.71094 2.58789 0 4.24805-1.5625 4.24805-4.00391 0-0.830078-0.146484-1.61133-0.537109-2.63672l-22.9004-60.9863c-1.12305-2.97852-3.125-4.49219-6.25-4.49219-3.02734 0-5.07812 1.46484-6.15234 4.44336l-22.9004 61.084c-0.390625 1.02539-0.537109 1.80664-0.537109 2.63672 0 2.44141 1.5625 3.95508 4.10156 3.95508Zm10.2051-20.9473h30.6641c2.00195 0 3.66211-1.66016 3.66211-3.66211 0-2.05078-1.66016-3.66211-3.66211-3.66211h-30.6641c-2.00195 0-3.66211 1.61133-3.66211 3.66211 0 2.00195 1.66016 3.66211 3.66211 3.66211Z"/>
  </g>
  <line style="fill:none;stroke:#00AEEF;stroke-width:0.5;opacity:1.0;" x1="792.836" x2="792.836" y1="1919" y2="1933"/>
  <text style="stroke:none;fill:black;font-family:sans-serif;font-size:13;font-weight:bold;" transform="matrix(1 0 0 1 776 1953)">Margins</text>
  <text style="stroke:none;fill:black;font-family:sans-serif;font-size:13;" transform="matrix(1 0 0 1 776 1971)">Leading and trailing margins on the left and right side of each symbol</text>
  <text style="stroke:none;fill:black;font-family:sans-serif;font-size:13;" transform="matrix(1 0 0 1 776 1989)">can be adjusted by modifying the x-location of the margin guidelines.</text>
  <text style="stroke:none;fill:black;font-family:sans-serif;font-size:13;" transform="matrix(1 0 0 1 776 2007)">Modifications are automatically applied proportionally to all</text>
  <text style="stroke:none;fill:black;font-family:sans-serif;font-size:13;" transform="matrix(1 0 0 1 776 2025)">scales and weights.</text>
  <g transform="matrix(0.2 0 0 0.2 1289 1933)">
   <path d="m14.209 13.1348 7.86133 7.86133c4.29688 4.39453 9.32617 4.10156 13.8672-1.02539l60.6934-68.2129-4.88281-4.88281-60.2539 67.6758c-1.80664 1.95312-3.4668 2.44141-5.81055 0.0976562l-5.17578-5.12695c-2.29492-2.29492-1.80664-3.95508 0.195312-5.81055l67.4805-62.1582-4.88281-4.83398-68.0664 62.5977c-4.98047 4.58984-5.32227 9.47266-1.02539 13.8184Zm44.873-97.4609c-2.05078 2.00195-2.24609 4.88281-1.07422 6.78711 1.12305 1.80664 3.4668 3.02734 6.5918 2.24609 5.85938-1.66016 12.5977-2.39258 18.8965 0.927734l-2.68555 7.12891c-1.61133 4.00391-0.732422 6.88477 1.70898 9.42383l10.2539 10.3027c2.34375 2.39258 4.54102 2.44141 7.08008 1.95312l4.44336-0.732422 2.58789 2.53906-0.195312 2.24609c-0.0976562 2.29492 0.537109 4.29688 2.7832 6.49414l3.36914 3.32031c2.29492 2.29492 5.51758 2.49023 7.8125 0.195312l12.9883-13.0371c2.29492-2.34375 2.14844-5.37109-0.195312-7.66602l-3.41797-3.41797c-2.19727-2.19727-4.05273-3.02734-6.34766-2.88086l-2.34375 0.244141-2.44141-2.44141 1.02539-4.6875c0.634766-2.73438-0.244141-4.98047-2.88086-7.61719l-11.2793-11.1816c-12.9395-12.8418-35.5957-11.0352-46.6797-0.146484Zm7.08008 2.05078c8.78906-6.39648 25.9766-5.66406 33.6914 1.95312l12.3047 12.207c1.02539 1.02539 1.2207 1.80664 0.927734 3.32031l-1.46484 6.64062 6.73828 6.68945 4.39453-0.244141c1.12305-0.0488281 1.51367 0.0488281 2.34375 0.878906l2.53906 2.49023-10.8398 10.8398-2.49023-2.49023c-0.830078-0.878906-0.976562-1.2207-0.927734-2.39258l0.292969-4.3457-6.68945-6.73828-6.83594 1.17188c-1.41602 0.292969-2.05078 0.195312-3.17383-0.878906l-8.93555-8.88672c-1.07422-1.02539-1.17188-1.70898-0.488281-3.36914l4.58984-11.4746c-6.10352-6.34766-17.041-7.51953-25.5859-4.58984-0.683594 0.244141-0.927734-0.390625-0.390625-0.78125Z"/>
  </g>
  <text style="stroke:none;fill:black;font-family:sans-serif;font-size:13;font-weight:bold;" transform="matrix(1 0 0 1 1289 1953)">Exporting</text>
  <text style="stroke:none;fill:black;font-family:sans-serif;font-size:13;" transform="matrix(1 0 0 1 1289 1971)">Symbols should be outlined when exporting to ensure the</text>
  <text style="stroke:none;fill:black;font-family:sans-serif;font-size:13;" transform="matrix(1 0 0 1 1289 1989)">design is preserved when submitting to Xcode.</text>
  <text id="template-version" style="stroke:none;fill:black;font-family:sans-serif;font-size:13;text-anchor:end;" transform="matrix(1 0 0 1 3036 1933)">Template v.5.0</text>
  <text style="stroke:none;fill:black;font-family:sans-serif;font-size:13;text-anchor:end;" transform="matrix(1 0 0 1 3036 1951)">Requires Xcode 15 or greater</text>
  <text id="descriptive-name" style="stroke:none;fill:black;font-family:sans-serif;font-size:13;text-anchor:end;" transform="matrix(1 0 0 1 3036 1969)">Generated from fiori.keyboard.and.mouse</text>
  <text style="stroke:none;fill:black;font-family:sans-serif;font-size:13;text-anchor:end;" transform="matrix(1 0 0 1 3036 1987)">Typeset at 100.0 points</text>
  <text style="stroke:none;fill:black;font-family:sans-serif;font-size:13;" transform="matrix(1 0 0 1 263 726)">Small</text>
  <text style="stroke:none;fill:black;font-family:sans-serif;font-size:13;" transform="matrix(1 0 0 1 263 1156)">Medium</text>
  <text style="stroke:none;fill:black;font-family:sans-serif;font-size:13;" transform="matrix(1 0 0 1 263 1586)">Large</text>
 </g>
 <g id="Guides">
  <g id="H-reference" style="fill:#27AAE1;stroke:none;" transform="matrix(1 0 0 1 339 696)">
   <path d="M0.993654 0L3.63775 0L29.3281-67.1323L30.0303-67.1323L30.0303-70.459L28.1226-70.459ZM11.6885-24.4799L46.9815-24.4799L46.2315-26.7285L12.4385-26.7285ZM55.1196 0L57.7637 0L30.6382-70.459L29.4326-70.459L29.4326-67.1323Z"/>
  </g>
  <line id="Baseline-S" style="fill:none;stroke:#27AAE1;opacity:1;stroke-width:0.5;" x1="263" x2="3036" y1="696" y2="696"/>
  <line id="Capline-S" style="fill:none;stroke:#27AAE1;opacity:1;stroke-width:0.5;" x1="263" x2="3036" y1="625.541" y2="625.541"/>
  <g id="H-reference" style="fill:#27AAE1;stroke:none;" transform="matrix(1 0 0 1 339 1126)">
   <path d="M0.993654 0L3.63775 0L29.3281-67.1323L30.0303-67.1323L30.0303-70.459L28.1226-70.459ZM11.6885-24.4799L46.9815-24.4799L46.2315-26.7285L12.4385-26.7285ZM55.1196 0L57.7637 0L30.6382-70.459L29.4326-70.459L29.4326-67.1323Z"/>
  </g>
  <line id="Baseline-M" style="fill:none;stroke:#27AAE1;opacity:1;stroke-width:0.5;" x1="263" x2="3036" y1="1126" y2="1126"/>
  <line id="Capline-M" style="fill:none;stroke:#27AAE1;opacity:1;stroke-width:0.5;" x1="263" x2="3036" y1="1055.54" y2="1055.54"/>
  <g id="H-reference" style="fill:#27AAE1;stroke:none;" transform="matrix(1 0 0 1 339 1556)">
   <path d="M0.993654 0L3.63775 0L29.3281-67.1323L30.0303-67.1323L30.0303-70.459L28.1226-70.459ZM11.6885-24.4799L46.9815-24.4799L46.2315-26.7285L12.4385-26.7285ZM55.1196 0L57.7637 0L30.6382-70.459L29.4326-70.459L29.4326-67.1323Z"/>
  </g>
  <line id="Baseline-L" style="fill:none;stroke:#27AAE1;opacity:1;stroke-width:0.5;" x1="263" x2="3036" y1="1556" y2="1556"/>
  <line id="Capline-L" style="fill:none;stroke:#27AAE1;opacity:1;stroke-width:0.5;" x1="263" x2="3036" y1="1485.54" y2="1485.54"/>
  <line id="right-margin-Black-S" style="fill:none;stroke:#00AEEF;stroke-width:0.5;opacity:1.0;" x1="2981.9" x2="2981.9" y1="600.785" y2="720.121"/>
  <line id="left-margin-Black-S" style="fill:none;stroke:#00AEEF;stroke-width:0.5;opacity:1.0;" x1="2884.9" x2="2884.9" y1="600.785" y2="720.121"/>
  <line id="right-margin-Regular-S" style="fill:none;stroke:#00AEEF;stroke-width:0.5;opacity:1.0;" x1="1496.29" x2="1496.29" y1="600.785" y2="720.121"/>
  <line id="left-margin-Regular-S" style="fill:none;stroke:#00AEEF;stroke-width:0.5;opacity:1.0;" x1="1403.39" x2="1403.39" y1="600.785" y2="720.121"/>
  <line id="right-margin-Ultralight-S" style="fill:none;stroke:#00AEEF;stroke-width:0.5;opacity:1.0;" x1="604.411" x2="604.411" y1="600.785" y2="720.121"/>
  <line id="left-margin-Ultralight-S" style="fill:none;stroke:#00AEEF;stroke-width:0.5;opacity:1.0;" x1="515.011" x2="515.011" y1="600.785" y2="720.121"/>
 </g>
 <g id="Symbols">
  <g id="Black-S" transform="matrix(1 0 0 1 2884.9 696)">
   <path class="monochrome-0 multicolor-0:tintColor hierarchical-0:primary SFSymbolsPreviewWireframe" d="M49.51-7.1L21.81-7.1C12.91-7.1 5.71-14.3 5.71-23.2L5.71-56.1C5.71-65 12.91-72.2 21.81-72.2L75.31-72.2C84.21-72.2 91.41-65 91.41-56.1L91.41-43.8C91.41-40.6 89.01-38 85.61-38C82.31-38 79.81-40.7 79.81-43.8L79.81-56.1C79.81-58.6 77.81-60.6 75.31-60.6L21.81-60.6C19.31-60.6 17.31-58.6 17.31-56.1L17.31-23.2C17.31-20.7 19.31-18.7 21.81-18.7L49.61-18.7C52.81-18.7 55.41-16.2 55.41-12.9C55.41-10.4 53.21-7.1 49.51-7.1Z"/>
   <path class="monochrome-1 multicolor-1:tintColor hierarchical-1:primary SFSymbolsPreviewWireframe" d="M49.51-27.7L42.31-27.7C39.01-27.7 36.51-30.2 36.51-33.5C36.51-36.8 39.01-39.3 42.31-39.3L49.51-39.3C52.81-39.3 55.31-36.8 55.31-33.5C55.31-30.2 52.81-27.7 49.51-27.7ZM32.71-48.9C32.71-45.6967 30.1133-43.1 26.91-43.1C23.7067-43.1 21.11-45.6967 21.11-48.9C21.11-52.1033 23.7067-54.7 26.91-54.7C30.1133-54.7 32.71-52.1033 32.71-48.9ZM48.11-48.9C48.11-45.6967 45.5133-43.1 42.31-43.1C39.1067-43.1 36.51-45.6967 36.51-48.9C36.51-52.1033 39.1067-54.7 42.31-54.7C45.5133-54.7 48.11-52.1033 48.11-48.9ZM60.51-48.9C60.51-45.6967 57.9133-43.1 54.71-43.1C51.5067-43.1 48.91-45.6967 48.91-48.9C48.91-52.1033 51.5067-54.7 54.71-54.7C57.9133-54.7 60.51-52.1033 60.51-48.9ZM75.91-48.9C75.91-45.6967 73.3133-43.1 70.11-43.1C66.9067-43.1 64.31-45.6967 64.31-48.9C64.31-52.1033 66.9067-54.7 70.11-54.7C73.3133-54.7 75.91-52.1033 75.91-48.9ZM32.71-33.5C32.71-30.2967 30.1133-27.7 26.91-27.7C23.7067-27.7 21.11-30.2967 21.11-33.5C21.11-36.7033 23.7067-39.3 26.91-39.3C30.1133-39.3 32.71-36.7033 32.71-33.5Z"/>
   <path class="monochrome-2 multicolor-2:tintColor hierarchical-2:primary SFSymbolsPreviewWireframe" d="M85.51 3.2C83.91 3.2 82.91 2.7 82.21 2.2L76.41-1.7L75.41 0.2C74.71 1.7 72.71 3.2 70.31 3.2C67.01 3.2 65.31 0.8 64.81-0.8L57.31-23.5C56.41-26.2 57.61-28.3 58.71-29.4C59.81-30.5 61.91-31.7 64.61-30.8L87.21-23.3C90.21-22.3 91.11-19.8 91.21-18.2C91.21-15 89.51-13.4 88.01-12.6L86.41-11.8L90.41-6C92.41-2.8 91.11 0 89.71 1.4C88.81 2.3 87.41 3.2 85.51 3.2Z"/>
  </g>
  <g id="Regular-S" transform="matrix(1 0 0 1 1403.39 696)">
   <path class="monochrome-0 multicolor-0:tintColor hierarchical-0:primary SFSymbolsPreviewWireframe" d="M47.56-8.8L19.76-8.8C11.86-8.8 5.36-15.3 5.36-23.2L5.36-56.1C5.36-64 11.86-70.5 19.76-70.5L73.26-70.5C81.16-70.5 87.66-64 87.66-56.1L87.66-43.8C87.66-41.5 85.86-39.7 83.56-39.7C81.26-39.7 79.46-41.5 79.46-43.8L79.46-56.1C79.46-59.5 76.66-62.3 73.26-62.3L19.76-62.3C16.36-62.3 13.56-59.5 13.56-56.1L13.56-23.2C13.56-19.8 16.36-17 19.76-17L47.56-17C49.86-17 51.66-15.2 51.66-12.9C51.66-10.6 49.76-8.8 47.56-8.8Z"/>
   <path class="monochrome-1 multicolor-1:tintColor hierarchical-1:primary SFSymbolsPreviewWireframe" d="M47.56-29.4L40.36-29.4C38.06-29.4 36.26-31.2 36.26-33.5C36.26-35.8 38.06-37.6 40.36-37.6L47.56-37.6C49.86-37.6 51.66-35.8 51.66-33.5C51.66-31.2 49.76-29.4 47.56-29.4ZM24.96-44.8C27.46-44.8 29.06-46.4 29.06-48.9C29.06-51.4 27.36-53 24.96-53C22.56-53 20.86-51.4 20.86-48.9C20.86-46.4 22.46-44.8 24.96-44.8ZM40.36-44.8C42.86-44.8 44.46-46.4 44.46-48.9C44.46-51.4 42.76-53 40.36-53C37.96-53 36.26-51.4 36.26-48.9C36.26-46.4 37.86-44.8 40.36-44.8ZM52.66-44.8C55.16-44.8 56.76-46.4 56.76-48.9C56.76-51.4 55.16-53 52.66-53C50.16-53 48.56-51.4 48.56-48.9C48.56-46.4 50.16-44.8 52.66-44.8ZM68.06-44.8C70.56-44.8 72.16-46.4 72.16-48.9C72.16-51.4 70.56-53 68.06-53C65.56-53 63.96-51.4 63.96-48.9C63.96-46.4 65.66-44.8 68.06-44.8ZM24.96-29.4C27.46-29.4 29.06-31 29.06-33.5C29.06-36 27.46-37.6 24.96-37.6C22.46-37.6 20.86-36 20.86-33.5C20.86-31 22.46-29.4 24.96-29.4Z"/>
   <path class="monochrome-2 multicolor-2:tintColor hierarchical-2:primary SFSymbolsPreviewWireframe" d="M83.46 1.5C82.66 1.5 81.86 1.3 81.16 0.8L73.76-4.2L72.06-0.8C71.36 0.7 69.76 1.6 68.06 1.5C66.36 1.4 64.96 0.3 64.46-1.3L56.96-24C56.46-25.5 56.86-27.1 57.96-28.2C59.06-29.3 60.66-29.7 62.16-29.2L84.76-21.7C86.36-21.2 87.46-19.7 87.56-18.1C87.66-16.4 86.76-14.9 85.26-14.1L81.96-12.4L86.96-5C88.06-3.4 87.86-1.2 86.46 0.2C85.66 1.1 84.56 1.5 83.46 1.5Z"/>
  </g>
  <g id="Ultralight-S" transform="matrix(1 0 0 1 515.011 696)">
   <path class="monochrome-0 multicolor-0:tintColor hierarchical-0:primary SFSymbolsPreviewWireframe" d="M45.775-11.6L17.975-11.6C11.575-11.6 6.375-16.8 6.375-23.2L6.375-56.1C6.375-62.5 11.575-67.7 17.975-67.7L71.475-67.7C77.875-67.7 83.075-62.5 83.075-56.1L83.075-43.8C83.075-43.1 82.575-42.5 81.775-42.5C81.075-42.5 80.475-43 80.475-43.8L80.475-56.1C80.475-61.1 76.375-65.1 71.475-65.1L17.975-65.1C12.975-65.1 8.975-61 8.975-56.1L8.975-23.2C8.975-18.2 13.075-14.2 17.975-14.2L45.775-14.2C46.575-14.2 47.075-13.6 47.075-12.9C47.075-12.2 46.475-11.6 45.775-11.6Z"/>
   <path class="monochrome-1 multicolor-1:tintColor hierarchical-1:primary SFSymbolsPreviewWireframe" d="M45.775-32.2L38.575-32.2C37.875-32.2 37.275-32.8 37.275-33.5C37.275-34.2 37.875-34.8 38.575-34.8L45.775-34.8C46.475-34.8 47.075-34.2 47.075-33.5C47.075-32.8 46.475-32.2 45.775-32.2ZM24.775-48.9C24.775-48.0163 24.0587-47.3 23.175-47.3C22.2913-47.3 21.575-48.0163 21.575-48.9C21.575-49.7837 22.2913-50.5 23.175-50.5C24.0587-50.5 24.775-49.7837 24.775-48.9ZM40.175-48.9C40.175-48.0163 39.4587-47.3 38.575-47.3C37.6913-47.3 36.975-48.0163 36.975-48.9C36.975-49.7837 37.6913-50.5 38.575-50.5C39.4587-50.5 40.175-49.7837 40.175-48.9ZM52.475-48.9C52.475-48.0163 51.7587-47.3 50.875-47.3C49.9913-47.3 49.275-48.0163 49.275-48.9C49.275-49.7837 49.9913-50.5 50.875-50.5C51.7587-50.5 52.475-49.7837 52.475-48.9ZM67.975-48.9C67.975-48.0163 67.2587-47.3 66.375-47.3C65.4913-47.3 64.775-48.0163 64.775-48.9C64.775-49.7837 65.4913-50.5 66.375-50.5C67.2587-50.5 67.975-49.7837 67.975-48.9ZM24.775-33.5C24.775-32.6163 24.0587-31.9 23.175-31.9C22.2913-31.9 21.575-32.6163 21.575-33.5C21.575-34.3837 22.2913-35.1 23.175-35.1C24.0587-35.1 24.775-34.3837 24.775-33.5Z"/>
   <path class="monochrome-2 multicolor-2:tintColor hierarchical-2:primary SFSymbolsPreviewWireframe" d="M81.775-1.3C81.575-1.3 81.375-1.3 81.075-1.5L70.975-8.4L67.875-2.1C67.575-1.6 67.175-1.4 66.675-1.4C66.075-1.4 65.675-1.8 65.475-2.2L57.975-24.9C57.775-25.4 57.975-25.8 58.275-26.2C58.575-26.5 59.075-26.7 59.575-26.5L82.175-19C82.775-18.7 83.075-18.3 83.075-17.9C83.075-17.2 82.775-16.8 82.275-16.6L75.975-13.5L82.775-3.4C83.175-2.8 82.975-2.2 82.575-1.8C82.375-1.4 81.975-1.3 81.775-1.3Z"/>
  </g>
 </g>
</svg>
