<svg width="166" height="165" viewBox="0 0 166 165" fill="none" xmlns="http://www.w3.org/2000/svg">
<circle cx="85.7069" cy="84.9998" r="76.9412" fill="#EBF8FF"/>
<path d="M29.9462 34.6225C30.5372 33.981 31.3587 33.6003 32.2302 33.5639C33.1017 33.5276 33.952 33.8385 34.5945 34.4285L73.6749 70.4382C74.3153 71.0304 74.6947 71.8525 74.7296 72.724C74.7645 73.5956 74.4521 74.4454 73.861 75.0869L48.3258 102.8C47.735 103.441 46.9138 103.821 46.0428 103.856C45.1718 103.892 44.3223 103.58 43.6812 102.99L8.26754 70.3584L8.97466 57.3823L29.9462 34.6225Z" fill="#B8E6FF"/>
<path d="M29.8177 31.4838C30.4088 30.8424 31.2303 30.4617 32.1018 30.4253C32.9733 30.3889 33.8236 30.6998 34.4661 31.2898L73.5464 67.2996C74.1869 67.8917 74.5662 68.7138 74.6011 69.5854C74.6361 70.4569 74.3237 71.3067 73.7326 71.9482L48.1973 99.6609C47.9049 99.9784 47.5527 100.235 47.161 100.416C46.7693 100.598 46.3457 100.7 45.9144 100.718C45.4831 100.735 45.0526 100.668 44.6473 100.519C44.2421 100.37 43.8702 100.143 43.5528 99.8509L8.13912 67.2198L8.84624 54.2436L29.8177 31.4838Z" fill="#D1EFFF"/>
<path d="M14.9341 59.8457L9.62928 68.5854L8.14299 67.2159L14.9341 59.8457Z" fill="#9EDDFF"/>
<path d="M14.9341 59.8462L8.14298 67.2164L8.8501 54.2402L14.9341 59.8462Z" fill="#B8E6FF"/>
<path d="M51.9363 20.5258C55.2823 26.3495 58.5957 33.2852 53.8486 35.4084C47.8967 38.0679 45.2334 32.3053 41.879 26.4625C38.5246 20.6197 36.6103 15.34 40.8536 12.909C44.8317 10.6213 48.5747 14.677 51.9363 20.5258Z" fill="#9EDDFF"/>
<path d="M52.8664 13.2134C53.8435 9.93091 53.142 6.82552 51.2996 6.27735C49.4572 5.72918 47.1716 7.94581 46.1945 11.2283C45.2174 14.5109 45.9188 17.6163 47.7612 18.1644C49.6036 18.7126 51.8893 16.496 52.8664 13.2134Z" fill="#9EDDFF"/>
<path d="M64.0359 22.6283C65.5735 26.1415 65.154 29.7004 63.1169 30.6148C58.1399 32.8476 57.8978 29.5464 56.6264 25.8712C55.355 22.196 55.5201 18.8259 57.5455 17.8848C61.2576 16.1553 62.49 19.096 64.0359 22.6283Z" fill="#9EDDFF"/>
<path d="M71.2992 31.7713L43.8173 43.7989C43.4921 43.9413 43.3439 44.3202 43.4862 44.6454L51.6057 63.1975C51.748 63.5226 52.127 63.6708 52.4521 63.5285L79.934 51.5009C80.2592 51.3585 80.4074 50.9796 80.2651 50.6545L72.1456 32.1023C72.0033 31.7772 71.6244 31.6289 71.2992 31.7713Z" fill="#B8E6FF"/>
<path d="M69.8343 28.4772L42.3945 40.4864C42.0693 40.6288 41.921 41.0077 42.0633 41.3329L44.9778 47.9922C45.1201 48.3174 45.4991 48.4656 45.8243 48.3232L73.2641 36.314C73.5893 36.1717 73.7375 35.7927 73.5952 35.4676L70.6807 28.8082C70.5384 28.4831 70.1594 28.3349 69.8343 28.4772Z" fill="#9EDDFF"/>
<path d="M70.3782 25.1907L39.8339 38.5587C39.5087 38.701 39.3605 39.08 39.5028 39.4051L42.6967 46.7029C42.839 47.028 43.218 47.1762 43.5431 47.0339L74.0875 33.6659C74.4126 33.5236 74.5609 33.1447 74.4186 32.8195L71.2246 25.5218C71.0823 25.1966 70.7034 25.0484 70.3782 25.1907Z" fill="#B8E6FF"/>
<path d="M31.6627 69.91C30.5078 66.46 32.6839 62.7887 36.2649 62.1459L134.508 44.5119C137.421 43.989 140.277 45.682 141.217 48.4891L160.258 105.365C161.413 108.815 159.237 112.486 155.656 113.129L57.4134 130.763C54.4998 131.286 51.6435 129.593 50.7038 126.786L31.6627 69.91Z" fill="#004DA5"/>
<path d="M33.954 61.3447L32.0271 65.4048L36.5374 64.4136L33.954 61.3447Z" fill="#004DA5"/>
<path d="M159.964 106.688L159.926 109.918L161.439 106.688L159.964 106.688Z" fill="#004DA5"/>
<path d="M33.5446 66.1346C32.3896 62.6846 34.5658 59.0133 38.1467 58.3705L136.389 40.7365C139.303 40.2136 142.159 41.9066 143.099 44.7137L162.14 101.59C163.295 105.04 161.119 108.711 157.538 109.354L59.2952 126.988C56.3816 127.511 53.5253 125.817 52.5856 123.01L33.5446 66.1346Z" fill="#0070F2"/>
<path d="M33.5481 66.1452C32.3919 62.6916 34.5739 59.0171 38.1597 58.3794L136.454 40.8986C139.364 40.381 142.215 42.0739 143.154 44.8774L146.261 54.1591L36.0945 73.7513L33.5481 66.1452Z" fill="#005DC9"/>
<path d="M46.1197 80.6533C45.6576 79.2732 46.5282 77.8046 47.9607 77.5476L138.645 61.2772C139.81 61.0681 140.953 61.7454 141.329 62.8681L153.865 100.314C154.327 101.694 153.456 103.163 152.024 103.42L61.3395 119.69C60.1741 119.899 59.0317 119.222 58.6558 118.099L46.1197 80.6533Z" fill="#005DC9"/>
<path d="M47.8125 78.2001C47.3505 76.8201 48.2211 75.3515 49.6536 75.0945L140.338 58.8241C141.503 58.615 142.646 59.2922 143.022 60.415L155.558 97.8607C156.02 99.2408 155.149 100.709 153.717 100.966L63.0324 117.237C61.867 117.446 60.7246 116.769 60.3487 115.646L47.8125 78.2001Z" fill="white"/>
<path d="M57.2449 83.917C56.88 82.8272 57.5675 81.6675 58.6986 81.4646L78.493 77.9131C79.4133 77.748 80.3154 78.2828 80.6122 79.1694L82.8736 85.9242C83.2384 87.014 82.551 88.1737 81.4198 88.3766L61.6254 91.9281C60.7052 92.0932 59.8031 91.5584 59.5063 90.6718L57.2449 83.917Z" fill="#D5DADD"/>
<path d="M63.303 101.282C62.9381 100.192 63.6256 99.0328 64.7567 98.8298L84.5511 95.2784C85.4714 95.1133 86.3735 95.648 86.6703 96.5346L88.9317 103.289C89.2965 104.379 88.6091 105.539 87.4779 105.742L67.6835 109.293C66.7633 109.458 65.8612 108.924 65.5644 108.037L63.303 101.282Z" fill="#D5DADD"/>
<circle cx="42.9592" cy="64.8064" r="2.68399" transform="rotate(-18.5096 42.9592 64.8064)" fill="#9EDDFF"/>
<circle cx="53.1423" cy="63.1032" r="2.68399" transform="rotate(-18.5096 53.1423 63.1032)" fill="#9EDDFF"/>
<circle cx="63.3274" cy="61.2302" r="2.68399" transform="rotate(-18.5096 63.3274 61.2302)" fill="#9EDDFF"/>
<path d="M90.2641 80.1885L97.9385 72.5145C98.3922 72.0607 99.0692 71.9137 99.6703 72.1385L111.157 76.4327C111.547 76.5783 111.672 77.0674 111.4 77.3817L104.348 85.5297C103.891 86.0578 103.15 86.2381 102.501 85.9787L90.4644 81.1641C90.0668 81.005 89.9614 80.4913 90.2641 80.1885Z" fill="#D5DADD"/>
<path fill-rule="evenodd" clip-rule="evenodd" d="M75.1945 102.864L68.8762 83.9578L70.5732 83.3906L76.8915 102.297L75.1945 102.864Z" fill="#D5DADD"/>
<path fill-rule="evenodd" clip-rule="evenodd" d="M134.982 73.5818L65.86 86.2425L65.5376 84.4824L134.66 71.8217L134.982 73.5818Z" fill="#D5DADD"/>
<ellipse cx="8.39079" cy="7.94157" rx="8.39079" ry="7.94157" transform="matrix(0.998834 -0.0482839 0.252197 0.967676 117.159 66.7988)" fill="#D5DADD"/>
<path d="M144.048 11.0781C144.224 11.2831 144.342 11.5318 144.389 11.7981C144.436 12.0644 144.41 12.3384 144.314 12.5913L142.194 18.6655C141.844 19.6703 140.825 19.9212 140.038 19.6466C139.712 19.546 139.427 19.3421 139.226 19.0656C139.026 18.7892 138.92 18.4551 138.926 18.1136C138.933 17.9486 138.966 17.7858 139.022 17.6306L141.142 11.5564C141.23 11.288 141.388 11.0483 141.601 10.8625C141.813 10.6768 142.072 10.552 142.35 10.5014C142.659 10.445 142.977 10.4683 143.274 10.5692C143.571 10.6701 143.838 10.8453 144.048 11.0781Z" fill="#A9B4BE"/>
<path d="M165.082 38.9966C165.114 39.1876 165.105 39.383 165.057 39.5704C165.009 39.7578 164.922 39.9331 164.802 40.085C164.682 40.237 164.532 40.3624 164.361 40.453C164.19 40.5437 164.002 40.5978 163.809 40.6117L157.586 41.3492C157.362 41.375 157.135 41.3559 156.919 41.2931C156.703 41.2302 156.501 41.1249 156.326 40.9833C156.151 40.8416 156.005 40.6665 155.898 40.468C155.792 40.2696 155.725 40.0519 155.704 39.8276C155.692 39.7354 155.688 39.6424 155.692 39.5495C155.7 39.2061 155.837 38.8784 156.076 38.631C156.314 38.3836 156.636 38.2344 156.979 38.2129L163.2 37.4773C163.423 37.4511 163.65 37.4699 163.866 37.5324C164.083 37.595 164.285 37.7001 164.46 37.8415C164.635 37.983 164.781 38.1581 164.887 38.3564C164.994 38.5547 165.06 38.7724 165.082 38.9966Z" fill="#A9B4BE"/>
<path d="M159.593 22.2944C159.572 22.5048 159.509 22.7087 159.406 22.8936C159.304 23.0784 159.165 23.2405 158.997 23.3697L151.552 29.2445C151.217 29.5061 150.793 29.6279 150.37 29.5845C149.947 29.541 149.557 29.3357 149.282 29.0114C149.028 28.7096 148.897 28.3233 148.914 27.9292C148.924 27.702 148.984 27.4798 149.088 27.2776C149.192 27.0754 149.338 26.898 149.517 26.7575L156.962 20.8828C157.299 20.6195 157.725 20.4971 158.15 20.5413C158.576 20.5855 158.967 20.793 159.243 21.12C159.378 21.2821 159.478 21.4696 159.538 21.6715C159.598 21.8733 159.617 22.0852 159.593 22.2944Z" fill="#A9B4BE"/>
<path d="M119.635 137.479C119.635 136.706 117.39 136.087 114.39 135.946C114.219 132.95 113.558 130.723 112.785 130.725C112.011 130.726 111.368 132.971 111.204 135.982C108.195 136.188 105.959 136.86 105.969 137.635C105.98 138.411 108.214 139.03 111.214 139.168C111.394 142.164 112.046 144.392 112.817 144.39C113.589 144.388 114.236 142.144 114.4 139.132C117.409 138.927 119.643 138.254 119.635 137.479Z" fill="#D1EFFF"/>
<path d="M34.4614 111.615C34.4614 111.099 32.9648 110.686 30.965 110.592C30.8507 108.595 30.4105 107.11 29.8948 107.111C29.3792 107.112 28.9504 108.609 28.8407 110.616C26.8352 110.754 25.3442 111.202 25.3511 111.719C25.358 112.235 26.8478 112.648 28.8475 112.741C28.9676 114.738 29.402 116.223 29.9166 116.222C30.4311 116.221 30.8621 114.724 30.9719 112.717C32.9773 112.579 34.4672 112.131 34.4614 111.615Z" fill="#D1EFFF"/>
<path d="M92.1841 28.4872C92.1841 27.7138 89.9391 27.0947 86.9395 26.9541C86.768 23.9583 86.1077 21.7307 85.3342 21.7324C84.5607 21.7341 83.9176 23.9789 83.7529 26.9901C80.7447 27.1959 78.5083 27.8681 78.5186 28.6432C78.5289 29.4183 80.7636 30.0374 83.7632 30.1763C83.9433 33.1721 84.595 35.3997 85.3668 35.398C86.1385 35.3963 86.7851 33.1515 86.9498 30.1403C89.958 29.9345 92.1927 29.2623 92.1841 28.4872Z" fill="#D1EFFF"/>
<path d="M145.382 132.547C156.361 132.547 165.262 123.647 165.262 112.667C165.262 101.688 156.361 92.7871 145.382 92.7871C134.403 92.7871 125.502 101.688 125.502 112.667C125.502 123.647 134.403 132.547 145.382 132.547Z" fill="#F58B00"/>
<path d="M145.389 101.842H145.382C143.898 101.842 142.695 103.044 142.695 104.528V120.807C142.695 122.29 143.898 123.493 145.382 123.493H145.389C146.873 123.493 148.075 122.29 148.075 120.807V104.528C148.075 103.044 146.873 101.842 145.389 101.842Z" fill="white"/>
<path d="M135.016 112.36V112.967C135.016 114.285 136.084 115.354 137.402 115.354H153.381C154.699 115.354 155.767 114.285 155.767 112.967V112.36C155.767 111.042 154.699 109.974 153.381 109.974H137.402C136.084 109.974 135.016 111.042 135.016 112.36Z" fill="white"/>
</svg>
