<svg width="166" height="165" viewBox="0 0 166 165" fill="none" xmlns="http://www.w3.org/2000/svg">
<circle cx="85.7069" cy="84.9998" r="76.9412" fill="#223548"/>
<path d="M29.9466 34.6225C30.5377 33.981 31.3592 33.6003 32.2307 33.5639C33.1022 33.5276 33.9525 33.8385 34.595 34.4285L73.6753 70.4382C74.3158 71.0304 74.6951 71.8525 74.7301 72.724C74.765 73.5956 74.4526 74.4454 73.8615 75.0869L48.3263 102.8C47.7355 103.441 46.9143 103.821 46.0433 103.856C45.1723 103.892 44.3228 103.58 43.6817 102.99L8.26803 70.3584L8.97515 57.3823L29.9466 34.6225Z" fill="#324E6B"/>
<path d="M29.8177 31.4838C30.4088 30.8424 31.2303 30.4617 32.1018 30.4253C32.9733 30.3889 33.8236 30.6998 34.4661 31.2898L73.5464 67.2996C74.1869 67.8917 74.5662 68.7138 74.6011 69.5854C74.6361 70.4569 74.3237 71.3067 73.7326 71.9482L48.1973 99.6609C47.9049 99.9784 47.5527 100.235 47.161 100.416C46.7693 100.598 46.3457 100.7 45.9144 100.718C45.4831 100.735 45.0526 100.668 44.6473 100.519C44.2421 100.37 43.8702 100.143 43.5528 99.8509L8.13912 67.2198L8.84624 54.2436L29.8177 31.4838Z" fill="#2A4259"/>
<path d="M14.9336 59.8457L9.62879 68.5854L8.1425 67.2159L14.9336 59.8457Z" fill="#3B5B7C"/>
<path d="M14.9336 59.8462L8.14249 67.2164L8.84961 54.2402L14.9336 59.8462Z" fill="#324E6B"/>
<path d="M51.9363 20.5258C55.2823 26.3495 58.5957 33.2852 53.8486 35.4084C47.8967 38.0679 45.2334 32.3053 41.879 26.4625C38.5246 20.6197 36.6103 15.34 40.8536 12.909C44.8317 10.6213 48.5747 14.677 51.9363 20.5258Z" fill="#3B5B7C"/>
<path d="M52.8659 13.2134C53.843 9.93091 53.1415 6.82552 51.2991 6.27735C49.4567 5.72918 47.1711 7.94581 46.194 11.2283C45.2169 14.5109 45.9184 17.6163 47.7607 18.1644C49.6031 18.7126 51.8888 16.496 52.8659 13.2134Z" fill="#3B5B7C"/>
<path d="M64.0354 22.6283C65.573 26.1415 65.1535 29.7004 63.1164 30.6148C58.1394 32.8476 57.8973 29.5464 56.6259 25.8712C55.3545 22.196 55.5196 18.8259 57.545 17.8848C61.2571 16.1553 62.4895 19.096 64.0354 22.6283Z" fill="#3B5B7C"/>
<path d="M71.2992 31.7713L43.8173 43.7989C43.4921 43.9413 43.3439 44.3202 43.4862 44.6454L51.6057 63.1975C51.748 63.5226 52.127 63.6708 52.4521 63.5285L79.934 51.5009C80.2592 51.3585 80.4074 50.9796 80.2651 50.6545L72.1456 32.1023C72.0033 31.7772 71.6244 31.6289 71.2992 31.7713Z" fill="#324E6B"/>
<path d="M69.8343 28.4772L42.3945 40.4864C42.0693 40.6288 41.921 41.0077 42.0633 41.3329L44.9778 47.9922C45.1201 48.3174 45.4991 48.4656 45.8243 48.3232L73.2641 36.314C73.5893 36.1717 73.7375 35.7927 73.5952 35.4676L70.6807 28.8082C70.5384 28.4831 70.1594 28.3349 69.8343 28.4772Z" fill="#3B5B7C"/>
<path d="M70.3782 25.1907L39.8339 38.5587C39.5087 38.701 39.3605 39.08 39.5028 39.4051L42.6967 46.7029C42.839 47.028 43.218 47.1762 43.5431 47.0339L74.0875 33.6659C74.4126 33.5236 74.5609 33.1447 74.4186 32.8195L71.2246 25.5218C71.0823 25.1966 70.7034 25.0484 70.3782 25.1907Z" fill="#324E6B"/>
<path d="M31.6627 69.91C30.5078 66.46 32.6839 62.7887 36.2649 62.1459L134.508 44.5119C137.421 43.989 140.277 45.682 141.217 48.4891L160.258 105.365C161.413 108.815 159.237 112.486 155.656 113.129L57.4134 130.763C54.4998 131.286 51.6435 129.593 50.7038 126.786L31.6627 69.91Z" fill="#0070F3"/>
<path d="M33.953 61.3447L32.0261 65.4048L36.5364 64.4136L33.953 61.3447Z" fill="#0070F3"/>
<path d="M159.964 106.688L159.925 109.918L161.438 106.688L159.964 106.688Z" fill="#0070F3"/>
<path d="M33.5436 66.1346C32.3886 62.6846 34.5648 59.0133 38.1458 58.3705L136.388 40.7365C139.302 40.2136 142.158 41.9066 143.098 44.7137L162.139 101.59C163.294 105.04 161.118 108.711 157.537 109.354L59.2943 126.988C56.3807 127.511 53.5244 125.817 52.5846 123.01L33.5436 66.1346Z" fill="#4098FF"/>
<path d="M33.5472 66.1452C32.3909 62.6916 34.5729 59.0171 38.1587 58.3794L136.453 40.8986C139.363 40.381 142.214 42.0739 143.153 44.8774L146.26 54.1591L36.0936 73.7513L33.5472 66.1452Z" fill="#1782FF"/>
<path d="M46.1187 80.6533C45.6567 79.2732 46.5272 77.8046 47.9597 77.5476L138.644 61.2772C139.809 61.0681 140.952 61.7454 141.328 62.8681L153.864 100.314C154.326 101.694 153.455 103.163 152.023 103.42L61.3385 119.69C60.1731 119.899 59.0307 119.222 58.6548 118.099L46.1187 80.6533Z" fill="#1782FF"/>
<path d="M47.812 78.2001C47.35 76.8201 48.2206 75.3515 49.6531 75.0945L140.337 58.8241C141.503 58.615 142.645 59.2922 143.021 60.415L155.557 97.8607C156.019 99.2408 155.149 100.709 153.716 100.966L63.0319 117.237C61.8665 117.446 60.7241 116.769 60.3482 115.646L47.812 78.2001Z" fill="#CEDBE8"/>
<path d="M57.2439 83.917C56.879 82.8272 57.5665 81.6675 58.6976 81.4646L78.492 77.9131C79.4123 77.748 80.3144 78.2828 80.6112 79.1694L82.8726 85.9242C83.2374 87.014 82.55 88.1737 81.4188 88.3766L61.6244 91.9281C60.7042 92.0932 59.8021 91.5584 59.5053 90.6718L57.2439 83.917Z" fill="#B9C1C6"/>
<path d="M63.3025 101.282C62.9376 100.192 63.6251 99.0328 64.7562 98.8298L84.5506 95.2784C85.4709 95.1133 86.373 95.648 86.6698 96.5346L88.9312 103.289C89.296 104.379 88.6086 105.539 87.4774 105.742L67.683 109.293C66.7628 109.458 65.8607 108.924 65.5639 108.037L63.3025 101.282Z" fill="#B9C1C6"/>
<circle cx="42.9587" cy="64.8064" r="2.68399" transform="rotate(-18.5096 42.9587 64.8064)" fill="#3B5B7C"/>
<circle cx="53.1414" cy="63.1032" r="2.68399" transform="rotate(-18.5096 53.1414 63.1032)" fill="#3B5B7C"/>
<circle cx="63.3269" cy="61.2302" r="2.68399" transform="rotate(-18.5096 63.3269 61.2302)" fill="#3B5B7C"/>
<path d="M90.2637 80.1885L97.938 72.5145C98.3917 72.0607 99.0687 71.9137 99.6698 72.1385L111.157 76.4327C111.546 76.5783 111.671 77.0674 111.399 77.3817L104.348 85.5297C103.891 86.0578 103.149 86.2381 102.501 85.9787L90.4639 81.1641C90.0663 81.005 89.9609 80.4913 90.2637 80.1885Z" fill="#B9C1C6"/>
<path fill-rule="evenodd" clip-rule="evenodd" d="M75.1945 102.864L68.8762 83.9578L70.5732 83.3906L76.8915 102.297L75.1945 102.864Z" fill="#B9C1C6"/>
<path fill-rule="evenodd" clip-rule="evenodd" d="M134.981 73.5818L65.8595 86.2425L65.5371 84.4824L134.659 71.8217L134.981 73.5818Z" fill="#B9C1C6"/>
<ellipse cx="8.39079" cy="7.94157" rx="8.39079" ry="7.94157" transform="matrix(0.998834 -0.0482839 0.252197 0.967676 117.158 66.7988)" fill="#B9C1C6"/>
<path d="M144.048 11.0781C144.224 11.2831 144.342 11.5318 144.389 11.7981C144.436 12.0644 144.41 12.3384 144.314 12.5913L142.194 18.6655C141.844 19.6703 140.825 19.9212 140.038 19.6466C139.712 19.546 139.427 19.3421 139.226 19.0656C139.026 18.7892 138.92 18.4551 138.926 18.1136C138.933 17.9486 138.966 17.7858 139.022 17.6306L141.142 11.5564C141.23 11.288 141.388 11.0483 141.601 10.8625C141.813 10.6768 142.072 10.552 142.35 10.5014C142.659 10.445 142.977 10.4683 143.274 10.5692C143.571 10.6701 143.838 10.8453 144.048 11.0781Z" fill="white"/>
<path d="M165.082 38.9966C165.114 39.1876 165.105 39.383 165.057 39.5704C165.009 39.7578 164.922 39.9331 164.802 40.085C164.682 40.237 164.532 40.3624 164.361 40.453C164.19 40.5437 164.002 40.5978 163.809 40.6117L157.586 41.3492C157.362 41.375 157.135 41.3559 156.919 41.2931C156.703 41.2302 156.501 41.1249 156.326 40.9833C156.151 40.8416 156.005 40.6665 155.898 40.468C155.792 40.2696 155.725 40.0519 155.704 39.8276C155.692 39.7354 155.688 39.6424 155.692 39.5495C155.7 39.2061 155.837 38.8784 156.076 38.631C156.314 38.3836 156.636 38.2344 156.979 38.2129L163.2 37.4773C163.423 37.4511 163.65 37.4699 163.866 37.5324C164.083 37.595 164.285 37.7001 164.46 37.8415C164.635 37.983 164.781 38.1581 164.887 38.3564C164.994 38.5547 165.06 38.7724 165.082 38.9966Z" fill="white"/>
<path d="M159.593 22.2944C159.572 22.5048 159.509 22.7087 159.406 22.8936C159.304 23.0784 159.165 23.2405 158.997 23.3697L151.552 29.2445C151.217 29.5061 150.793 29.6279 150.37 29.5845C149.947 29.541 149.557 29.3357 149.282 29.0114C149.028 28.7096 148.897 28.3233 148.914 27.9292C148.924 27.702 148.984 27.4798 149.088 27.2776C149.192 27.0754 149.338 26.898 149.517 26.7575L156.962 20.8828C157.299 20.6195 157.725 20.4971 158.15 20.5413C158.576 20.5855 158.967 20.793 159.243 21.12C159.378 21.2821 159.478 21.4696 159.538 21.6715C159.598 21.8733 159.617 22.0852 159.593 22.2944Z" fill="white"/>
<path d="M119.634 137.479C119.634 136.706 117.389 136.087 114.39 135.946C114.218 132.95 113.558 130.723 112.784 130.725C112.011 130.726 111.368 132.971 111.203 135.982C108.195 136.188 105.958 136.86 105.969 137.635C105.979 138.411 108.214 139.03 111.213 139.168C111.393 142.164 112.045 144.392 112.817 144.39C113.589 144.388 114.235 142.144 114.4 139.132C117.408 138.927 119.643 138.254 119.634 137.479Z" fill="#2A4259"/>
<path d="M34.4609 111.615C34.4609 111.099 32.9643 110.686 30.9645 110.592C30.8502 108.595 30.41 107.11 29.8943 107.111C29.3787 107.112 28.9499 108.609 28.8402 110.616C26.8347 110.754 25.3437 111.202 25.3506 111.719C25.3575 112.235 26.8473 112.648 28.847 112.741C28.9671 114.738 29.4016 116.223 29.9161 116.222C30.4306 116.221 30.8616 114.724 30.9714 112.717C32.9769 112.579 34.4667 112.131 34.4609 111.615Z" fill="#2A4259"/>
<path d="M92.1841 28.4872C92.1841 27.7138 89.9391 27.0947 86.9395 26.9541C86.768 23.9583 86.1077 21.7307 85.3342 21.7324C84.5607 21.7341 83.9176 23.9789 83.7529 26.9901C80.7447 27.1959 78.5083 27.8681 78.5186 28.6432C78.5289 29.4183 80.7636 30.0374 83.7632 30.1763C83.9433 33.1721 84.595 35.3997 85.3668 35.398C86.1385 35.3963 86.7851 33.1515 86.9498 30.1403C89.958 29.9345 92.1927 29.2623 92.1841 28.4872Z" fill="#2A4259"/>
<path d="M145.382 132.547C156.361 132.547 165.262 123.647 165.262 112.667C165.262 101.688 156.361 92.7871 145.382 92.7871C134.403 92.7871 125.502 101.688 125.502 112.667C125.502 123.647 134.403 132.547 145.382 132.547Z" fill="#F58B00"/>
<path d="M145.389 101.842H145.382C143.898 101.842 142.695 103.044 142.695 104.528V120.807C142.695 122.29 143.898 123.493 145.382 123.493H145.389C146.873 123.493 148.075 122.29 148.075 120.807V104.528C148.075 103.044 146.873 101.842 145.389 101.842Z" fill="#CEDBE8"/>
<path d="M135.016 112.36V112.967C135.016 114.285 136.084 115.354 137.402 115.354H153.38C154.698 115.354 155.767 114.285 155.767 112.967V112.36C155.767 111.042 154.698 109.974 153.38 109.974H137.402C136.084 109.974 135.016 111.042 135.016 112.36Z" fill="#CEDBE8"/>
</svg>
