<svg width="128" height="128" viewBox="0 0 128 128" fill="none" xmlns="http://www.w3.org/2000/svg">
<circle cx="62.7907" cy="63.2683" r="44.8015" fill="#EBF8FF"/>
<path d="M63.6826 9.37695C33.697 9.37695 9.16211 33.9581 9.16211 64.0003C9.16211 94.0424 33.697 118.624 63.6826 118.624C93.6681 118.624 118.203 94.0424 118.203 64.0003C118.203 33.9581 93.6681 9.37695 63.6826 9.37695ZM89.309 51.438L56.5946 84.2106C56.1016 84.7266 55.5094 85.1372 54.8537 85.4177C54.198 85.6982 53.4925 85.8428 52.7795 85.8428C52.0666 85.8428 51.361 85.6982 50.7054 85.4177C50.0497 85.1372 49.4575 84.7266 48.9644 84.2106L38.0491 73.2747C37.5341 72.7807 37.1243 72.1874 36.8443 71.5305C36.5643 70.8735 36.4199 70.1667 36.4199 69.4524C36.4199 68.7381 36.5643 68.0312 36.8443 67.3743C37.1243 66.7174 37.5341 66.124 38.0491 65.6301C38.5422 65.1136 39.1346 64.7025 39.7906 64.4216C40.4466 64.1408 41.1526 63.996 41.8659 63.996C42.5793 63.996 43.2853 64.1408 43.9413 64.4216C44.5973 64.7025 45.1897 65.1136 45.6828 65.6301L52.7707 72.7314L81.6647 43.7793C82.1578 43.2628 82.7502 42.8517 83.4062 42.5709C84.0622 42.2901 84.7682 42.1453 85.4816 42.1453C86.195 42.1453 86.901 42.2901 87.557 42.5709C88.213 42.8517 88.8054 43.2628 89.2985 43.7793C89.8163 44.2728 90.2289 44.8664 90.5111 45.5242C90.7933 46.182 90.9393 46.8904 90.9402 47.6064C90.9412 48.3224 90.7972 49.0312 90.5168 49.6898C90.2364 50.3484 89.8255 50.9432 89.309 51.438Z" fill="#00A800"/>
<path d="M63.8795 128C28.6687 128 0 99.2878 0 64C0 28.7122 28.6546 0 63.8795 0C99.1045 0 127.756 28.7122 127.756 64C127.756 99.2878 99.1009 128 63.8795 128ZM63.8795 3.42542C30.5419 3.42542 3.41898 30.5889 3.41898 64C3.41898 97.4111 30.5313 124.575 63.8795 124.575C97.2277 124.575 124.337 97.4111 124.337 64C124.337 30.5889 97.2101 3.42542 63.8795 3.42542Z" fill="#00A800"/>
</svg>
