<svg width="40" height="45" viewBox="0 0 40 45" fill="none" xmlns="http://www.w3.org/2000/svg">
<path d="M38.9114 42.9937L35.4466 44.4655L19.1494 31.9551C20.0386 31.7405 20.8971 31.4799 21.6944 31.1426L38.9114 42.9937Z" fill="#101619"/>
<path d="M14.0901 12.4376C21.7865 12.9282 27.965 17.8036 27.8883 23.3075C27.8423 26.7264 25.374 29.5934 21.6792 31.1572L20.5753 30.3906L17.7237 30.8812L19.1495 31.9697C17.4938 32.353 15.7 32.5063 13.7989 32.3837C6.10258 31.8931 -0.0759511 27.0177 0.000705659 21.5138C0.0773624 16.0098 6.39379 11.947 14.0901 12.4376Z" fill="#101619"/>
<path d="M20.5758 30.3916L21.6796 31.1582C20.8824 31.4955 20.0392 31.7714 19.1347 31.9707L17.7089 30.8822L20.5605 30.3916H20.5758Z" fill="#101619"/>
<path fill-rule="evenodd" clip-rule="evenodd" d="M13.0031 7.86747C13.0031 7.86747 10.7954 13.9387 14.4596 19.3047C18.1391 24.6706 23.4897 26.863 29.3616 26.2498C35.2335 25.6365 39.9862 20.6231 39.235 13.6934C38.4837 6.76361 34.6663 4.5099 32.4739 2.91544C30.2815 1.32098 24.6549 0.048481 20.822 0.922368C16.9892 1.79625 13.0031 7.8828 13.0031 7.8828V7.86747Z" fill="#8D2A00"/>
<path fill-rule="evenodd" clip-rule="evenodd" d="M24.1943 2.53211C30.8174 2.6241 36.8426 7.39215 37.6705 13.1567C38.4984 18.9213 33.7764 23.5207 27.1532 23.4134C20.5301 23.3061 14.5049 18.5534 13.677 12.7888C12.8645 7.0242 17.5712 2.42479 24.1943 2.53211Z" fill="#4D82B8"/>
<mask id="mask0_4038_85831" style="mask-type:luminance" maskUnits="userSpaceOnUse" x="13" y="2" width="25" height="22">
<path d="M24.1935 2.53114C30.8166 2.62313 36.8418 7.39117 37.6697 13.1558C38.4976 18.9203 33.7755 23.5198 27.1524 23.4124C20.5293 23.3051 14.5041 18.5524 13.6762 12.7878C12.8636 7.02322 17.5703 2.42382 24.1935 2.53114Z" fill="white"/>
</mask>
<g mask="url(#mask0_4038_85831)">
<path fill-rule="evenodd" clip-rule="evenodd" d="M24.1933 2.53114C30.8165 2.62313 36.8417 7.39117 37.6696 13.1558C38.4974 18.9203 33.7754 23.5198 27.1523 23.4124C20.5291 23.3051 14.5039 18.5524 13.6761 12.7878C12.8635 7.02322 17.5702 2.42382 24.1933 2.53114Z" fill="#D0C1CB"/>
<path fill-rule="evenodd" clip-rule="evenodd" d="M35.7384 -6.48438C36.2443 -6.2544 36.3823 -5.59516 36.6889 -5.16588C37.5628 -3.93937 38.4213 -2.69753 39.2952 -1.47103C38.5899 -0.980424 37.8848 -0.48982 37.1795 0.000783443L36.6429 -1.31771C29.2225 3.78763 21.7869 8.89297 14.3665 13.9983C13.8146 14.9335 13.2779 15.8534 12.726 16.7886C11.4995 17.6318 10.2576 18.4751 9.03111 19.3183C8.96978 19.2723 8.90847 19.2263 8.84714 19.1956C8.83181 19.2876 8.86251 19.3489 8.78585 19.2876C8.1726 18.3831 7.55932 17.4785 6.94607 16.574C6.77742 16.3287 6.31751 15.8994 6.39416 15.6541L8.78585 14.029C8.93916 13.2624 9.07711 12.4958 9.23042 11.7293L13.1093 9.04628C20.6523 3.87961 28.1954 -1.30238 35.7384 -6.48438ZM51.0237 4.89148C51.9129 6.16398 52.8021 7.43649 53.676 8.70899C53.9059 9.00028 54.6112 9.5982 54.4425 10.0275C46.8382 15.2248 39.2338 20.4221 31.6295 25.6041C29.8051 26.8613 27.996 28.1338 26.1715 29.391C25.8036 29.6669 24.6232 30.7861 24.1479 30.6175L21.6795 26.892C21.3882 26.478 21.0356 26.1867 20.8209 25.6655C30.8783 18.7357 40.951 11.8059 51.0237 4.87615V4.89148Z" fill="#D5DADD"/>
</g>
<path d="M27.7842 24.2408C27.7842 24.2408 27.6462 24.2408 27.5696 24.2408C20.3332 24.1335 13.6794 18.6602 12.7442 12.0371C12.3149 8.95547 13.1581 6.02718 15.1359 3.7888C17.3129 1.32046 20.6857 -0.0593648 24.3653 0.0019606C31.6017 0.10928 38.2555 5.58257 39.1907 12.2057C39.62 15.2873 38.7768 18.2156 36.7991 20.454C34.668 22.861 31.3871 24.2408 27.7842 24.2408ZM24.1659 1.39711C20.9617 1.39711 18.0641 2.59296 16.1937 4.70868C14.4919 6.6251 13.7713 9.15477 14.1393 11.8224C14.9825 17.7863 21.0078 22.723 27.5849 22.815C27.6462 22.815 27.7076 22.815 27.7842 22.815C30.9885 22.815 33.886 21.6192 35.7564 19.5034C37.4582 17.587 38.1788 15.0573 37.8109 12.3897C36.9677 6.42579 30.9424 1.4891 24.3653 1.39711C24.3039 1.39711 24.2426 1.39711 24.1659 1.39711Z" fill="#C35500"/>
<path fill-rule="evenodd" clip-rule="evenodd" d="M35.0193 43.8192C35.0193 43.8192 28.7795 26.7554 28.5955 26.2648C28.4115 25.7742 28.5035 24.5171 29.7146 24.2258C30.9258 23.9345 31.6465 25.1916 31.9071 25.7896C32.1677 26.3875 38.9288 42.9453 38.9288 42.9453L37.3344 43.5126L35.0193 43.8192Z" fill="#C35500"/>
<path fill-rule="evenodd" clip-rule="evenodd" d="M36.4456 41.4428L29.6538 24.1797C29.6538 24.1797 28.0593 24.7929 28.6113 26.2648C29.1632 27.7366 35.0044 43.8038 34.9891 43.7578C34.9737 43.7118 35.5411 42.6233 36.6909 42.194L36.4456 41.4428Z" fill="#8D2A00"/>
<path fill-rule="evenodd" clip-rule="evenodd" d="M36.4456 41.4428L29.6538 24.1797C29.6538 24.1797 28.0593 24.7929 28.6113 26.2648C29.1632 27.7366 35.0044 43.8038 34.9891 43.7578C34.9737 43.7118 35.5411 42.6233 36.6909 42.194L36.4456 41.4428Z" fill="#8D2A00"/>
<path fill-rule="evenodd" clip-rule="evenodd" d="M38.9125 42.7775L37.9161 40.4011C37.9161 40.4011 37.1034 39.4659 35.7543 39.8645C34.4051 40.2631 34.1906 41.551 34.1906 41.551L35.0031 43.7587L38.9279 42.7775H38.9125Z" fill="#C35500"/>
<mask id="mask1_4038_85831" style="mask-type:luminance" maskUnits="userSpaceOnUse" x="34" y="39" width="5" height="5">
<path d="M38.9106 42.7775L37.9141 40.4011C37.9141 40.4011 37.1015 39.4659 35.7523 39.8645C34.4032 40.2631 34.1886 41.551 34.1886 41.551L35.0011 43.7587L38.9259 42.7775H38.9106Z" fill="white"/>
</mask>
<g mask="url(#mask1_4038_85831)">
<path fill-rule="evenodd" clip-rule="evenodd" d="M35.7052 39.5742L36.5331 41.7666L35.5059 44.3729L35.1533 45.0322L34.0494 43.6064L33.2062 40.5554L35.7052 39.5742Z" fill="#8D2A00"/>
</g>
<path fill-rule="evenodd" clip-rule="evenodd" d="M36.9495 41.4426C38.084 41.4579 38.9886 42.2705 38.9733 43.2517C38.9579 44.2329 38.038 45.0148 36.9035 44.9995C35.769 44.9841 34.8645 44.1716 34.8798 43.1904C34.8952 42.2092 35.815 41.4273 36.9495 41.4426Z" fill="#8D2A00"/>
<g clip-path="url(#clip0_4038_85831)">
<path d="M26.2204 14.557C26.1136 14.4857 25.9898 14.4638 25.8806 14.5022C25.7835 14.5351 25.7058 14.6091 25.6621 14.7133L25.4 15.3246L23.8053 10.3706C23.7204 10.1074 23.4898 9.94287 23.2762 9.99496C23.1767 10.0196 23.0966 10.0882 23.0481 10.1896C22.9898 10.3075 22.985 10.4583 23.0311 10.6009L24.6087 15.4946L24.0359 15.1053C23.9291 15.034 23.8053 15.0121 23.6961 15.0505C23.599 15.0834 23.5214 15.1574 23.4752 15.2616C23.3806 15.4809 23.468 15.7606 23.6694 15.8976L25.1816 16.923C25.2519 16.9723 25.332 16.997 25.4097 16.997C25.4485 16.997 25.485 16.9915 25.5214 16.9778C25.6185 16.9449 25.6961 16.8709 25.7398 16.7667L26.4146 15.1903C26.5092 14.971 26.4218 14.6913 26.2204 14.5543V14.557Z" fill="#688FB7"/>
<path d="M29.9706 15.4076L28.3905 10.5029L28.9633 10.8922C29.0701 10.9635 29.1939 10.9854 29.3031 10.947C29.4002 10.9141 29.4779 10.8401 29.5216 10.7359C29.6163 10.5166 29.5313 10.2369 29.3274 10.0971L27.8153 9.0745C27.7085 9.00322 27.5871 8.98128 27.4779 9.01966C27.3808 9.05256 27.3007 9.12659 27.257 9.23077L26.5823 10.8072C26.4876 11.0265 26.575 11.3062 26.7765 11.4432C26.8832 11.5145 27.007 11.5337 27.1163 11.4981C27.2133 11.4652 27.291 11.3912 27.3347 11.287L27.5968 10.6756L29.1939 15.6379C29.2667 15.8627 29.4512 16.0135 29.6381 16.0135C29.6648 16.0135 29.6939 16.0108 29.7206 16.0025C29.8201 15.9779 29.9027 15.9066 29.9512 15.8051C30.007 15.69 30.0143 15.5419 29.9682 15.4049L29.9706 15.4076Z" fill="#688FB7"/>
</g>
<defs>
<clipPath id="clip0_4038_85831">
<rect width="7" height="8" fill="white" transform="translate(23 9)"/>
</clipPath>
</defs>
</svg>
