<svg width="151" height="129" viewBox="0 0 151 129" fill="none" xmlns="http://www.w3.org/2000/svg">
<circle cx="75" cy="64.7695" r="64" fill="#223548"/>
<path d="M33.2293 26.1168C32.462 26.2819 31.7916 26.7448 31.3653 27.4038C30.9389 28.0628 30.7915 28.8641 30.9554 29.6317L41.0179 76.3783C41.1844 77.1454 41.6484 77.815 42.3081 78.2402C42.9679 78.6654 43.7694 78.8115 44.5367 78.6463L77.6857 71.5108C78.4526 71.3457 79.1224 70.8828 79.548 70.2238C79.9735 69.5648 80.1198 68.7638 79.9548 67.9969L70.8363 25.6363L60.4538 20.2565L33.2293 26.1168Z" fill="#324E6B"/>
<path d="M30.8553 24.5836C30.088 24.7487 29.4176 25.2116 28.9913 25.8706C28.5649 26.5296 28.4175 27.3309 28.5814 28.0985L38.6439 74.8451C38.8104 75.6122 39.2744 76.2818 39.9341 76.707C40.5938 77.1322 41.3953 77.2783 42.1627 77.1131L75.3117 69.9776C75.6914 69.8958 76.0513 69.7401 76.3708 69.5193C76.6903 69.2985 76.9632 69.0169 77.1739 68.6906C77.3846 68.3643 77.529 67.9997 77.5988 67.6176C77.6686 67.2355 77.6625 66.8434 77.5807 66.4637L68.4623 24.1031L58.0798 18.7233L30.8553 24.5836Z" fill="#2A4259"/>
<path d="M59.6416 26.002L68.8403 25.8821L68.4576 24.1043L59.6416 26.002Z" fill="#3B5B7C"/>
<path d="M59.6417 26.0021L68.4577 24.1044L58.0752 18.7246L59.6417 26.0021Z" fill="#324E6B"/>
<path fill-rule="evenodd" clip-rule="evenodd" d="M11.0018 64.3096C11.0278 60.6185 11.3662 57.0017 11.992 53.4843L38.5332 33.9958C39.8086 33.0592 41.6017 33.3338 42.5383 34.609L74.6307 78.3084C75.5672 79.5836 75.2924 81.3766 74.017 82.3131L43.977 104.371C42.7016 105.307 40.9085 105.033 39.972 103.757L11.0018 64.3096Z" fill="#3B5B7C"/>
<path d="M15.4764 47.7696L12.7695 49.6191L17.8533 57.0585L20.5602 55.2089L15.4764 47.7696Z" fill="#3B5B7C"/>
<path fill-rule="evenodd" clip-rule="evenodd" d="M11.0577 67.5191C11.0192 66.6073 10.9997 65.6905 10.9997 64.7692C10.9997 60.9728 11.3303 57.2537 11.9641 53.6389L36.8846 35.1427C38.1521 34.202 39.9422 34.4667 40.883 35.734L73.1206 79.1616C74.0613 80.4289 73.7964 82.2188 72.5289 83.1596L42.6757 105.317C41.4082 106.258 39.6181 105.993 38.6773 104.726L11.0577 67.5191Z" fill="#324E6B"/>
<path d="M38.3066 48.2724L20.7295 61.3184L25.3754 67.5769L42.9525 54.531L38.3066 48.2724Z" fill="#223548"/>
<path fill-rule="evenodd" clip-rule="evenodd" d="M135.535 43.9431C136.306 46.1859 136.956 48.4851 137.478 50.8328C136.855 50.9686 136.187 51.0525 135.491 51.0744C133.402 51.1399 131.531 50.632 130.347 49.7945C129.668 50.6942 128.905 51.6098 128.082 52.5321C123.502 57.6646 117.83 63.1245 114.234 59.1958C110.062 54.6349 113.816 50.4831 118.043 45.8081C118.382 45.4333 118.724 45.0551 119.065 44.6732C123.661 39.5263 128.175 35.961 131.908 39.3007C133.406 40.6369 133.766 42.305 133.328 44.1796C133.937 44.0499 134.588 43.9697 135.266 43.9484C135.356 43.9456 135.446 43.9439 135.535 43.9431ZM129.945 64.9714C127.027 67.6001 123.432 68.3414 121.886 66.6565C118.574 63.0474 120.572 61.6023 123.246 59.6685L123.246 59.6685C123.622 59.3965 124.011 59.1149 124.401 58.8163C127.563 56.3939 130.892 55.4663 132.46 57.1312C135.305 60.1445 132.937 62.2768 130.05 64.8767L129.945 64.9714Z" fill="#3B5B7C"/>
<path d="M123.404 74.9823L102.84 52.1532C102.597 51.8831 102.18 51.8613 101.91 52.1046L86.4992 65.9864C86.2291 66.2297 86.2074 66.6459 86.4507 66.916L107.014 89.7451C107.258 90.0152 107.674 90.037 107.944 89.7937L123.355 75.9119C123.625 75.6686 123.647 75.2524 123.404 74.9823Z" fill="#324E6B"/>
<path d="M126.133 72.4942L105.601 49.7001C105.357 49.4299 104.941 49.4082 104.671 49.6514L99.1392 54.6344C98.8691 54.8777 98.8474 55.2939 99.0907 55.564L119.623 78.3581C119.866 78.6282 120.282 78.65 120.552 78.4067L126.084 73.4238C126.354 73.1805 126.376 72.7643 126.133 72.4942Z" fill="#3B5B7C"/>
<path d="M129.502 71.9637L106.647 46.5907C106.403 46.3205 105.987 46.2988 105.717 46.5421L99.6548 52.0027C99.3847 52.246 99.363 52.6622 99.6063 52.9323L122.461 78.3053C122.705 78.5755 123.121 78.5972 123.391 78.3539L129.453 72.8933C129.723 72.65 129.745 72.2338 129.502 71.9637Z" fill="#324E6B"/>
<path fill-rule="evenodd" clip-rule="evenodd" d="M85.607 4.65236C85.0982 3.69249 83.669 3.88741 83.4358 4.94848L57.9643 120.852C57.7508 121.823 58.7722 122.599 59.6509 122.133L127.497 86.1682C128.067 85.8663 128.284 85.1599 127.982 84.5904L85.607 4.65236ZM89.5845 50.0297C89.8176 48.9686 91.2468 48.7737 91.7556 49.7336L106.782 78.0797C107.084 78.6492 106.867 79.3556 106.297 79.6575L82.2388 92.4108C81.3601 92.8766 80.3387 92.1004 80.5522 91.1291L89.5845 50.0297Z" fill="#00A58A"/>
<path d="M59.1526 122.266L56.4276 122.266L57.5446 118.518L59.1526 122.266Z" fill="#00A58A"/>
<path d="M84.6516 4.03516L81.9266 4.03516L83.0437 7.78234L84.6516 4.03516Z" fill="#00A58A"/>
<path fill-rule="evenodd" clip-rule="evenodd" d="M83.0006 4.65822C82.4917 3.69835 81.0626 3.89327 80.8294 4.95434L55.3578 120.857C55.1444 121.829 56.1658 122.605 57.0444 122.139L124.891 86.1741C125.46 85.8722 125.677 85.1658 125.375 84.5962L83.0006 4.65822ZM86.978 50.0356C87.2112 48.9745 88.6403 48.7796 89.1492 49.7394L104.175 78.0855C104.477 78.6551 104.26 79.3615 103.691 79.6634L79.6323 92.4167C78.7537 92.8824 77.7323 92.1062 77.9458 91.1349L86.978 50.0356Z" fill="#64EDD2"/>
<path fill-rule="evenodd" clip-rule="evenodd" d="M92.0645 22.675C92.0392 22.697 92.0109 22.7169 91.9792 22.7328L87.5991 25.0244C87.3826 25.137 87.1163 25.0542 87.0037 24.8376C86.8898 24.6222 86.9701 24.3558 87.1898 24.2428L91.5705 21.9519C91.7865 21.8387 92.0533 21.9221 92.1653 22.138C92.2626 22.3223 92.2155 22.5435 92.0645 22.675Z" fill="#CEDBE8"/>
<path fill-rule="evenodd" clip-rule="evenodd" d="M94.4234 27.1248C94.3981 27.1468 94.3699 27.1668 94.3382 27.1827L89.9581 29.4742C89.7415 29.5868 89.4753 29.504 89.3627 29.2875C89.2488 29.072 89.3267 28.8042 89.5488 28.6926L93.9294 26.4018C94.1454 26.2885 94.4123 26.372 94.5243 26.5879C94.6216 26.7722 94.5744 26.9933 94.4234 27.1248Z" fill="#CEDBE8"/>
<path fill-rule="evenodd" clip-rule="evenodd" d="M97.1754 32.3162C97.1501 32.3383 97.1218 32.3582 97.0901 32.3741L89.4165 36.3876C89.2005 36.5009 88.9337 36.4174 88.8217 36.2015C88.7077 35.9861 88.7874 35.719 89.0072 35.606L96.6814 31.5932C96.8974 31.4799 97.1642 31.5634 97.2762 31.7793C97.3735 31.9636 97.3264 32.1847 97.1754 32.3162Z" fill="#CEDBE8"/>
<path fill-rule="evenodd" clip-rule="evenodd" d="M99.9181 37.4915C99.8929 37.5136 99.8646 37.5335 99.8329 37.5494L95.4528 39.841C95.2362 39.9535 94.97 39.8708 94.8574 39.6542C94.7441 39.4394 94.8232 39.1717 95.0435 39.0593L99.4241 36.7685C99.6401 36.6552 99.907 36.7387 100.019 36.9546C100.116 37.1389 100.069 37.3601 99.9181 37.4915Z" fill="#CEDBE8"/>
<path fill-rule="evenodd" clip-rule="evenodd" d="M102.277 41.9388C102.251 41.9608 102.223 41.9808 102.191 41.9967L97.8112 44.2882C97.5946 44.4008 97.3284 44.318 97.2158 44.1014C97.1025 43.8867 97.1816 43.6189 97.4019 43.5066L101.783 41.2158C101.999 41.1025 102.265 41.1859 102.377 41.4019C102.475 41.5861 102.428 41.8073 102.277 41.9388Z" fill="#CEDBE8"/>
<path fill-rule="evenodd" clip-rule="evenodd" d="M104.635 46.3885C104.61 46.4105 104.582 46.4304 104.55 46.4464L100.169 48.7372C99.9528 48.8498 99.6866 48.767 99.574 48.5504C99.4607 48.3357 99.5397 48.0692 99.7601 47.9556L104.141 45.6654C104.357 45.5522 104.624 45.6356 104.736 45.8515C104.833 46.0358 104.786 46.257 104.635 46.3885Z" fill="#CEDBE8"/>
<path fill-rule="evenodd" clip-rule="evenodd" d="M106.993 50.8371C106.968 50.8591 106.94 50.879 106.908 50.895L102.528 53.1865C102.311 53.2991 102.045 53.2163 101.932 52.9997C101.819 52.7843 101.9 52.5167 102.119 52.4049L106.499 50.114C106.715 50.0008 106.982 50.0842 107.094 50.3001C107.191 50.4844 107.144 50.7056 106.993 50.8371Z" fill="#CEDBE8"/>
<path fill-rule="evenodd" clip-rule="evenodd" d="M109.746 56.0293C109.721 56.0514 109.692 56.0713 109.661 56.0872L101.987 60.1007C101.771 60.214 101.504 60.1305 101.392 59.9146C101.278 59.6992 101.357 59.432 101.578 59.3191L109.252 55.3063C109.468 55.193 109.735 55.2765 109.847 55.4924C109.944 55.6767 109.897 55.8979 109.746 56.0293Z" fill="#CEDBE8"/>
<path fill-rule="evenodd" clip-rule="evenodd" d="M112.489 61.2047C112.463 61.2267 112.435 61.2466 112.403 61.2625L108.023 63.5541C107.807 63.6666 107.54 63.5839 107.428 63.3673C107.315 63.1525 107.392 62.8847 107.614 62.7725L111.995 60.4816C112.211 60.3683 112.477 60.4518 112.589 60.6677C112.687 60.852 112.64 61.0732 112.489 61.2047Z" fill="#CEDBE8"/>
<path fill-rule="evenodd" clip-rule="evenodd" d="M114.847 65.6539C114.822 65.6759 114.794 65.6959 114.762 65.7118L110.382 68.0033C110.165 68.1159 109.899 68.0331 109.786 67.8165C109.672 67.6011 109.751 67.334 109.972 67.2217L114.353 64.9309C114.569 64.8176 114.836 64.901 114.948 65.117C115.045 65.3012 114.998 65.5224 114.847 65.6539Z" fill="#CEDBE8"/>
<path fill-rule="evenodd" clip-rule="evenodd" d="M117.205 70.1029C117.18 70.1249 117.152 70.1449 117.12 70.1608L112.74 72.4523C112.523 72.5649 112.257 72.4821 112.145 72.2655C112.031 72.0501 112.112 71.7819 112.331 71.6707L116.711 69.3799C116.927 69.2666 117.194 69.35 117.306 69.566C117.403 69.7502 117.356 69.9714 117.205 70.1029Z" fill="#CEDBE8"/>
<path fill-rule="evenodd" clip-rule="evenodd" d="M119.564 74.5502C119.538 74.5722 119.51 74.5921 119.478 74.6081L115.098 76.8996C114.882 77.0122 114.616 76.9294 114.503 76.7128C114.389 76.4974 114.469 76.2303 114.689 76.118L119.07 73.8271C119.286 73.7139 119.553 73.7973 119.665 74.0132C119.762 74.1975 119.715 74.4187 119.564 74.5502Z" fill="#CEDBE8"/>
<path fill-rule="evenodd" clip-rule="evenodd" d="M122.316 79.7437C122.291 79.7658 122.262 79.7857 122.231 79.8016L114.557 83.8158C114.341 83.929 114.075 83.8456 113.963 83.6297C113.849 83.4142 113.929 83.1447 114.148 83.0342L121.822 79.0207C122.038 78.9074 122.305 78.9909 122.417 79.2068C122.514 79.3911 122.467 79.6122 122.316 79.7437Z" fill="#CEDBE8"/>
<path d="M25.6937 103.245L37.9574 82.9389L47.8788 94.8451L25.6937 103.245Z" fill="#B9C1C6"/>
<path fill-rule="evenodd" clip-rule="evenodd" d="M104.251 47.8339L94.3643 35.9688L38.005 82.933L38.0054 82.9335C36.9874 83.7834 38.3746 87.1273 41.1044 90.4031C43.8347 93.6796 46.8741 95.6473 47.8932 94.7981C47.9008 94.7918 47.9083 94.7853 47.9156 94.7787L104.251 47.8339Z" fill="#F58B00"/>
<path fill-rule="evenodd" clip-rule="evenodd" d="M41.9815 91.3988L100.158 42.9201L104.252 47.8331L47.9164 94.7779C47.9091 94.7846 47.9016 94.791 47.894 94.7974C46.983 95.5565 44.4574 94.0645 41.9815 91.3988Z" fill="#CC7400"/>
<path fill-rule="evenodd" clip-rule="evenodd" d="M107.838 44.8457L97.9503 32.9806L94.3768 35.9584C94.3727 35.9617 94.3686 35.965 94.3645 35.9684C93.3455 36.8176 94.7327 40.1621 97.463 43.4385C100.193 46.715 103.233 48.6827 104.252 47.8335C104.252 47.8335 104.252 47.8334 104.252 47.8334L104.252 47.8335L107.838 44.8457Z" fill="white"/>
<path fill-rule="evenodd" clip-rule="evenodd" d="M115.22 38.6954L105.333 26.8303L97.9629 32.9719C97.9593 32.9748 97.9557 32.9778 97.9522 32.9807C96.9331 33.8299 98.3203 37.1744 101.051 40.4509C103.781 43.7274 106.82 45.6951 107.839 44.8459C107.839 44.8458 107.84 44.8457 107.84 44.8456L107.84 44.8457L115.22 38.6954Z" fill="#4098FF"/>
<ellipse cx="110.275" cy="32.7631" rx="7.72235" ry="2.40183" transform="rotate(50.1955 110.275 32.7631)" fill="#0070F3"/>
<path fill-rule="evenodd" clip-rule="evenodd" d="M31.2383 94.0664C31.7833 94.9809 32.4732 95.9557 33.2806 96.9246C34.0878 97.8933 34.9221 98.7476 35.7232 99.4486L25.6946 103.246L31.2383 94.0664Z" fill="#688FB7"/>
</svg>
