<svg width="320" height="240" viewBox="0 0 320 240" fill="none" xmlns="http://www.w3.org/2000/svg">
<rect y="51" width="320" height="138" rx="24" fill="#89D1FF"/>
<path d="M214.893 153.109L176.923 138.837C176.795 138.797 176.666 138.777 176.538 138.807L63.6554 146.443C59.4475 146.619 59.5276 147.935 60.6731 148.488L101.215 164.84C103.535 165.63 106.004 165.817 108.414 165.383L211.536 154.877C215.022 154.412 216.499 153.767 214.893 153.109Z" fill="#1B90FF"/>
<path d="M75.6003 65.2324L97.9928 146.584C98.472 148.332 100.176 149.459 101.969 149.229L226.579 132.232C230.954 130.83 232.676 126.321 231.921 124.138L173.442 53.2951C172.901 51.7508 171.401 50.7568 169.776 50.8633L80.0202 53.4992C77.7126 53.6412 73.0886 56.9606 75.6003 65.2324Z" fill="#00144A"/>
<path d="M76.7714 58.0782L100.264 143.423C100.744 145.172 102.448 146.299 104.241 146.068L229.001 128.912C231.291 128.619 232.738 126.285 231.974 124.102L204.044 48.4396C203.502 46.8953 202.002 45.9013 200.378 46.0078L80.0552 53.4719C77.7477 53.614 76.159 55.8417 76.7714 58.0694V58.0782Z" fill="white"/>
<path d="M204.044 48.4396C203.502 46.8953 202.002 45.9013 200.378 46.0078L80.0552 53.4719C77.7477 53.614 76.159 55.8417 76.7714 58.0694L80.0641 70.0244L207.966 59.0723L204.035 48.4308L204.044 48.4396Z" fill="#0070F2"/>
<path d="M99.5462 60.1286C100.167 62.7734 98.2682 65.0988 95.2861 65.365C92.2684 65.6402 89.2242 63.7142 88.5053 61.025C87.7775 58.2914 89.7212 55.8596 92.8453 55.6377C95.9251 55.4158 98.9161 57.4482 99.5462 60.1286Z" fill="#56BDFF"/>
<path d="M116.844 81.3296L93.8839 83.4508C93.591 83.4774 93.2981 83.2999 93.2271 83.0514L92.2597 79.6788C92.1887 79.4303 92.3662 79.2084 92.6591 79.1818L115.566 77.1316C115.85 77.1049 116.134 77.2824 116.205 77.5221L117.208 80.8326C117.279 81.0722 117.111 81.2941 116.835 81.3207L116.844 81.3296Z" fill="#56BDFF"/>
<path d="M116.631 91.6953L96.8122 93.6745C96.5193 93.7012 96.2264 93.5236 96.1554 93.2751L95.1791 89.8581C95.1081 89.6096 95.2856 89.3789 95.5785 89.3522L115.353 87.444C115.637 87.4174 115.921 87.5949 116.001 87.8434L117.012 91.2072C117.083 91.4557 116.915 91.6776 116.631 91.7042V91.6953Z" fill="#56BDFF"/>
<path d="M122.96 101.558L99.7772 104.043C99.4844 104.079 99.1915 103.892 99.1116 103.635L98.1176 100.165C98.0466 99.9074 98.2241 99.6767 98.5169 99.65L121.655 97.2448C121.939 97.2182 122.232 97.3957 122.303 97.6442L123.332 101.043C123.412 101.292 123.244 101.523 122.96 101.549V101.558Z" fill="#56BDFF"/>
<path d="M126.083 111.891L102.786 114.562C102.493 114.598 102.191 114.411 102.12 114.154L101.117 110.639C101.046 110.382 101.224 110.151 101.516 110.115L124.77 107.524C125.054 107.488 125.347 107.675 125.427 107.923L126.474 111.376C126.554 111.633 126.385 111.864 126.101 111.891H126.083Z" fill="#56BDFF"/>
<path d="M123.749 123.037L105.838 125.22C105.545 125.256 105.244 125.069 105.164 124.812L104.143 121.244C104.072 120.987 104.25 120.747 104.542 120.711L122.408 118.59C122.693 118.555 122.994 118.741 123.065 118.999L124.113 122.513C124.192 122.771 124.015 123.01 123.731 123.046L123.749 123.037Z" fill="#56BDFF"/>
<path d="M132.465 132.985L108.936 136.038C108.634 136.073 108.333 135.896 108.262 135.63L107.223 132.008C107.143 131.742 107.33 131.503 107.623 131.458L131.107 128.485C131.391 128.449 131.692 128.627 131.772 128.893L132.846 132.443C132.926 132.701 132.758 132.949 132.465 132.985Z" fill="#56BDFF"/>
<path d="M157.263 77.5842L138.722 79.2972C138.447 79.3238 138.163 79.1463 138.092 78.9067L137.054 75.6494C136.974 75.4098 137.133 75.1968 137.409 75.1701L155.914 73.5105C156.18 73.4838 156.455 73.6613 156.535 73.8921L157.6 77.105C157.68 77.3446 157.529 77.5487 157.263 77.5754V77.5842Z" fill="#56BDFF"/>
<path d="M163.546 87.0183L141.872 89.1839C141.597 89.2105 141.313 89.033 141.233 88.7934L140.186 85.4917C140.106 85.2521 140.266 85.0302 140.541 85.0036L162.179 82.909C162.445 82.8824 162.721 83.051 162.801 83.2907L163.883 86.539C163.963 86.7787 163.812 86.9917 163.546 87.0183Z" fill="#56BDFF"/>
<path d="M166.83 96.8645L145.059 99.1987C144.784 99.2253 144.5 99.0567 144.42 98.8082L143.355 95.4622C143.275 95.2137 143.435 94.9918 143.71 94.9652L165.446 92.702C165.712 92.6754 165.996 92.844 166.076 93.0836L167.176 96.3764C167.256 96.616 167.105 96.8379 166.839 96.8645H166.83Z" fill="#56BDFF"/>
<path d="M165.01 107.432L148.289 109.349C148.014 109.384 147.721 109.207 147.641 108.958L146.567 105.559C146.488 105.31 146.647 105.089 146.922 105.053L163.617 103.198C163.883 103.171 164.167 103.34 164.247 103.589L165.357 106.935C165.436 107.183 165.286 107.405 165.019 107.44L165.01 107.432Z" fill="#56BDFF"/>
<path d="M173.531 116.955L151.556 119.636C151.281 119.671 150.988 119.494 150.908 119.236L149.817 115.793C149.737 115.544 149.896 115.313 150.172 115.278L172.103 112.669C172.369 112.633 172.653 112.811 172.742 113.059L173.869 116.441C173.949 116.689 173.798 116.92 173.531 116.946V116.955Z" fill="#56BDFF"/>
<path d="M173.832 127.615L154.875 130.074C154.599 130.109 154.307 129.932 154.218 129.674L153.108 126.186C153.028 125.929 153.188 125.698 153.463 125.663L172.386 123.266C172.652 123.231 172.945 123.408 173.025 123.657L174.161 127.092C174.241 127.34 174.09 127.58 173.823 127.615H173.832Z" fill="#56BDFF"/>
<path d="M201.222 73.5194L180.898 75.401C180.64 75.4276 180.365 75.259 180.285 75.0282L179.185 71.8775C179.105 71.6467 179.247 71.4426 179.504 71.416L199.793 69.5965C200.042 69.5699 200.308 69.7385 200.388 69.9693L201.515 73.0668C201.595 73.2975 201.462 73.5017 201.213 73.5194H201.222Z" fill="#56BDFF"/>
<path d="M198.861 83.4977L184.226 84.9533C183.968 84.9799 183.693 84.8113 183.613 84.5716L182.504 81.3765C182.424 81.1458 182.566 80.9328 182.823 80.9061L197.432 79.495C197.681 79.4683 197.956 79.637 198.036 79.8677L199.172 83.0185C199.252 83.2492 199.119 83.4622 198.87 83.48L198.861 83.4977Z" fill="#56BDFF"/>
<path d="M202.296 93.0627L187.598 94.6336C187.341 94.6603 187.066 94.4916 186.977 94.252L185.85 91.0125C185.77 90.7729 185.912 90.5599 186.169 90.5332L200.84 89.0067C201.089 88.98 201.364 89.1487 201.453 89.3794L202.597 92.5746C202.686 92.8053 202.544 93.0183 202.296 93.0538V93.0627Z" fill="#56BDFF"/>
<path d="M211.588 102.098L191.015 104.45C190.758 104.477 190.474 104.308 190.394 104.069L189.249 100.785C189.169 100.545 189.311 100.323 189.569 100.297L210.106 98.0067C210.355 97.98 210.63 98.1487 210.718 98.3794L211.89 101.601C211.979 101.841 211.846 102.054 211.588 102.08V102.098Z" fill="#56BDFF"/>
<path d="M212.219 112.226L194.477 114.391C194.22 114.427 193.936 114.249 193.847 114.01L192.693 110.681C192.605 110.442 192.755 110.22 193.013 110.184L210.728 108.081C210.985 108.054 211.261 108.223 211.34 108.463L212.521 111.738C212.61 111.977 212.476 112.199 212.219 112.226Z" fill="#56BDFF"/>
<path d="M213.843 122.416L197.982 124.475C197.716 124.51 197.441 124.333 197.352 124.084L196.181 120.712C196.092 120.463 196.234 120.241 196.5 120.206L212.334 118.2C212.591 118.164 212.866 118.342 212.955 118.581L214.153 121.91C214.242 122.158 214.109 122.38 213.851 122.416H213.843Z" fill="#56BDFF"/>
<path d="M228.303 102.401L138.799 113.158C136.874 113.353 134.877 112.039 134.344 110.22L120.135 65.1619C119.621 63.4046 120.482 59.8813 124.307 59.2778L213.198 55.7278C214.769 55.6035 216.544 56.775 217.165 58.3548L234.179 97.2359C233.043 100.023 231.516 101.984 228.303 102.41V102.401Z" fill="#FFB2D2"/>
<path d="M232.324 98.6913L140.477 109.448C138.551 109.643 136.554 108.329 136.022 106.51L122.123 62.6945C121.609 60.9372 122.736 59.393 124.635 59.2332L214.884 52.009C216.455 51.8848 218.23 53.0563 218.852 54.636L234.054 95.4519C234.693 97.076 233.93 98.5315 232.341 98.6913H232.324Z" fill="#FFEAF4"/>
<path fill-rule="evenodd" clip-rule="evenodd" d="M232.251 97.1913C232.312 97.1822 232.363 97.1696 232.406 97.1556C232.697 97.0608 232.996 97.0599 233.271 97.1361C233.014 96.9291 232.823 96.6363 232.747 96.2889C232.728 96.2008 232.699 96.1046 232.659 96.0011L232.654 95.9883L232.269 94.9551C231.979 94.1788 232.374 93.315 233.151 93.0259L234.054 95.4519C234.123 95.6266 234.176 95.7994 234.213 95.9688C234.269 96.2274 234.289 96.4782 234.276 96.7162C234.261 96.9846 234.204 97.2368 234.107 97.4655C234.007 97.4584 233.908 97.4413 233.813 97.4149C233.891 97.4782 233.964 97.5498 234.029 97.6288C233.94 97.7954 233.829 97.9471 233.696 98.0807C233.645 98.1329 233.59 98.1823 233.532 98.2287C233.391 98.342 233.231 98.4376 233.055 98.5128C232.995 98.5382 232.934 98.5613 232.87 98.5819C232.706 98.6353 232.53 98.6724 232.341 98.6913H232.324L229.877 98.9778C229.781 98.155 230.37 97.4099 231.193 97.3135L232.236 97.1913H232.251ZM227.116 99.3011C227.02 98.4783 226.275 97.8895 225.452 97.9858L223.539 98.2099C222.716 98.3063 222.127 99.0514 222.223 99.8742L227.116 99.3011ZM219.462 100.198C219.366 99.3747 218.621 98.7858 217.798 98.8822L215.885 99.1063C215.062 99.2026 214.473 99.9478 214.569 100.771L219.462 100.198ZM211.809 101.094C211.712 100.271 210.967 99.6822 210.144 99.7785L208.231 100.003C207.408 100.099 206.819 100.844 206.915 101.667L211.809 101.094ZM204.155 101.99C204.058 101.167 203.313 100.579 202.49 100.675L200.577 100.899C199.754 100.995 199.165 101.74 199.262 102.563L204.155 101.99ZM196.501 102.887C196.404 102.064 195.659 101.475 194.836 101.571L192.923 101.795C192.1 101.892 191.511 102.637 191.608 103.46L196.501 102.887ZM188.847 103.783C188.75 102.96 188.005 102.371 187.183 102.468L185.269 102.692C184.446 102.788 183.857 103.533 183.954 104.356L188.847 103.783ZM181.193 104.679C181.097 103.857 180.351 103.268 179.529 103.364L177.615 103.588C176.792 103.684 176.203 104.43 176.3 105.252L181.193 104.679ZM173.539 105.576C173.443 104.753 172.698 104.164 171.875 104.26L169.961 104.484C169.138 104.581 168.55 105.326 168.646 106.149L173.539 105.576ZM165.885 106.472C165.789 105.649 165.044 105.06 164.221 105.157L162.307 105.381C161.485 105.477 160.896 106.222 160.992 107.045L165.885 106.472ZM158.231 107.368C158.135 106.546 157.39 105.957 156.567 106.053L154.653 106.277C153.831 106.374 153.242 107.119 153.338 107.942L158.231 107.368ZM150.577 108.265C150.481 107.442 149.736 106.853 148.913 106.95L147 107.174C146.177 107.27 145.588 108.015 145.684 108.838L150.577 108.265ZM142.923 109.161C142.827 108.338 142.082 107.75 141.259 107.846L140.315 107.956C140.176 107.97 140.032 107.97 139.886 107.958C139.152 107.895 138.496 108.373 138.31 109.06C138.539 109.167 138.777 109.255 139.02 109.321C139.262 109.386 139.509 109.431 139.758 109.453C139.997 109.473 140.237 109.472 140.477 109.448L142.923 109.161ZM137.225 108.351C137.779 107.912 137.96 107.128 137.62 106.479C137.553 106.35 137.5 106.22 137.461 106.089L137.456 106.073L137.162 105.144C136.911 104.354 136.068 103.917 135.279 104.168L136.022 106.51C136.089 106.741 136.18 106.963 136.292 107.176C136.408 107.397 136.546 107.607 136.703 107.803C136.859 108 137.034 108.183 137.225 108.351ZM134.448 101.55C135.238 101.3 135.675 100.456 135.425 99.6668L134.845 97.8412C134.595 97.0515 133.752 96.6144 132.962 96.8649L134.448 101.55ZM132.132 94.2475C132.922 93.997 133.359 93.1539 133.108 92.3642L132.529 90.5386C132.279 89.7489 131.435 89.3118 130.646 89.5623L132.132 94.2475ZM129.816 86.9449C130.605 86.6944 131.042 85.8512 130.792 85.0616L130.213 83.236C129.962 82.4463 129.119 82.0092 128.329 82.2597L129.816 86.9449ZM127.499 79.6423C128.289 79.3918 128.726 78.5486 128.475 77.759L127.896 75.9333C127.646 75.1437 126.803 74.7066 126.013 74.9571L127.499 79.6423ZM125.183 72.3397C125.973 72.0892 126.41 71.246 126.159 70.4564L125.58 68.6307C125.33 67.8411 124.486 67.404 123.697 67.6545L125.183 72.3397ZM122.867 65.0371C123.656 64.7866 124.093 63.9434 123.843 63.1538L123.559 62.2592C123.528 62.1516 123.511 62.0521 123.503 61.9614C123.447 61.2832 122.947 60.7481 122.313 60.617C122.19 60.8392 122.1 61.081 122.049 61.3372C122.002 61.5758 121.987 61.8268 122.009 62.0862C122.025 62.2847 122.063 62.4881 122.123 62.6945L122.867 65.0371ZM122.719 60.0767C123.047 60.6574 123.736 60.9671 124.41 60.7876C124.515 60.7598 124.63 60.7391 124.758 60.7282L124.761 60.7279L125.78 60.6463C126.606 60.5802 127.222 59.8572 127.156 59.0315L124.635 59.2332C124.421 59.2512 124.217 59.2867 124.025 59.3381C123.773 59.4051 123.54 59.4992 123.328 59.6166C123.098 59.7441 122.894 59.899 122.719 60.0767ZM130.319 58.7783C130.385 59.6041 131.108 60.2199 131.934 60.1538L133.985 59.9896C134.811 59.9235 135.426 59.2005 135.36 58.3747L130.319 58.7783ZM138.523 58.1215C138.589 58.9473 139.312 59.5631 140.138 59.497L142.189 59.3329C143.015 59.2668 143.631 58.5437 143.565 57.718L138.523 58.1215ZM146.728 57.4648C146.794 58.2906 147.517 58.9064 148.343 58.8403L150.394 58.6761C151.22 58.61 151.835 57.887 151.769 57.0612L146.728 57.4648ZM154.932 56.808C154.998 57.6338 155.721 58.2497 156.547 58.1836L158.598 58.0194C159.424 57.9533 160.04 57.2303 159.974 56.4045L154.932 56.808ZM163.137 56.1513C163.203 56.9771 163.926 57.5929 164.752 57.5268L166.803 57.3626C167.629 57.2965 168.244 56.5735 168.178 55.7477L163.137 56.1513ZM171.341 55.4945C171.407 56.3203 172.13 56.9362 172.956 56.8701L175.007 56.7059C175.833 56.6398 176.449 55.9168 176.383 55.091L171.341 55.4945ZM179.546 54.8378C179.612 55.6636 180.335 56.2794 181.161 56.2133L183.212 56.0491C184.038 55.983 184.653 55.26 184.587 54.4342L179.546 54.8378ZM187.75 54.1811C187.816 55.0068 188.539 55.6227 189.365 55.5566L191.416 55.3924C192.242 55.3263 192.858 54.6033 192.792 53.7775L187.75 54.1811ZM195.955 53.5243C196.021 54.3501 196.744 54.9659 197.57 54.8998L199.621 54.7356C200.447 54.6695 201.062 53.9465 200.996 53.1207L195.955 53.5243ZM204.159 52.8676C204.225 53.6933 204.948 54.3092 205.774 54.2431L207.825 54.0789C208.651 54.0128 209.267 53.2898 209.201 52.464L204.159 52.8676ZM212.364 52.2108C212.43 53.0366 213.153 53.6524 213.979 53.5863L215.003 53.5043C215.101 53.4966 215.21 53.4989 215.327 53.5138C216.047 53.6051 216.712 53.1699 216.936 52.5081C216.713 52.3833 216.481 52.279 216.246 52.1979C216.005 52.1152 215.76 52.0567 215.516 52.0257C215.304 51.9988 215.092 51.9926 214.884 52.009L212.364 52.2108ZM217.579 52.944C217.044 53.4143 216.905 54.2149 217.287 54.8463C217.353 54.9553 217.408 55.0649 217.451 55.1739L217.826 56.18C218.115 56.9563 218.979 57.3512 219.755 57.0621L218.852 54.636C218.775 54.4406 218.68 54.2514 218.571 54.0702C218.442 53.8571 218.292 53.6549 218.126 53.4664C217.959 53.2776 217.775 53.1025 217.579 52.944ZM220.988 60.3732C220.212 60.6623 219.817 61.5261 220.106 62.3024L220.867 64.3432C221.156 65.1195 222.019 65.5144 222.796 65.2252L220.988 60.3732ZM224.029 68.5363C223.253 68.8255 222.858 69.6892 223.147 70.4655L223.907 72.5063C224.196 73.2827 225.06 73.6776 225.836 73.3884L224.029 68.5363ZM227.07 76.6995C226.293 76.9887 225.898 77.8524 226.188 78.6287L226.948 80.6695C227.237 81.4458 228.101 81.8408 228.877 81.5516L227.07 76.6995ZM231.917 89.7148L230.11 84.8627C229.334 85.1519 228.939 86.0156 229.228 86.7919L229.988 88.8327C230.277 89.609 231.141 90.0039 231.917 89.7148Z" fill="#DF1278"/>
<path d="M162.096 68.8419L143.557 70.5547C143.282 70.5814 142.998 70.4039 142.927 70.1642L141.888 66.9071C141.808 66.6675 141.968 66.4545 142.243 66.4279L160.747 64.7683C161.014 64.7416 161.289 64.9191 161.369 65.1499L162.434 68.3626C162.514 68.6023 162.363 68.8064 162.096 68.833V68.8419Z" fill="#0040B0"/>
<path d="M168.38 78.2759L146.707 80.4414C146.432 80.468 146.148 80.2905 146.068 80.0509L145.021 76.7494C144.941 76.5098 145.101 76.2879 145.376 76.2613L167.013 74.1668C167.279 74.1402 167.555 74.3088 167.634 74.5484L168.717 77.7967C168.797 78.0363 168.646 78.2493 168.38 78.2759Z" fill="#0040B0"/>
<path d="M171.655 88.1182L149.884 90.4524C149.609 90.479 149.325 90.3104 149.245 90.0619L148.18 86.716C148.101 86.4675 148.26 86.2456 148.535 86.219L170.27 83.9559C170.537 83.9293 170.82 84.0979 170.9 84.3375L172.001 87.6301C172.081 87.8697 171.93 88.0916 171.664 88.1182H171.655Z" fill="#0040B0"/>
<path d="M169.835 98.6892L153.115 100.606C152.84 100.642 152.547 100.464 152.467 100.216L151.393 96.8166C151.313 96.5681 151.473 96.3463 151.748 96.3108L168.442 94.4559C168.708 94.4293 168.992 94.5979 169.072 94.8464L170.182 98.1922C170.261 98.4407 170.111 98.6626 169.844 98.6981L169.835 98.6892Z" fill="#0040B0"/>
<path d="M206.054 64.7771L185.73 66.6585C185.473 66.6852 185.198 66.5165 185.118 66.2858L184.017 63.1352C183.938 62.9044 184.08 62.7003 184.337 62.6737L204.625 60.8543C204.874 60.8277 205.14 60.9963 205.22 61.2271L206.347 64.3244C206.427 64.5552 206.294 64.7593 206.045 64.7771H206.054Z" fill="#0040B0"/>
<path d="M203.693 74.7554L189.059 76.2109C188.801 76.2375 188.526 76.0689 188.446 75.8292L187.337 72.6343C187.257 72.4035 187.399 72.1905 187.656 72.1639L202.265 70.7528C202.513 70.7261 202.788 70.8948 202.868 71.1255L204.004 74.2761C204.084 74.5069 203.951 74.7199 203.702 74.7376L203.693 74.7554Z" fill="#0040B0"/>
<path d="M207.119 84.3203L192.422 85.8912C192.165 85.9178 191.89 85.7492 191.801 85.5096L190.674 82.2702C190.594 82.0306 190.736 81.8176 190.993 81.791L205.663 80.2645C205.912 80.2379 206.187 80.4065 206.276 80.6372L207.421 83.8322C207.509 84.063 207.367 84.276 207.119 84.3115V84.3203Z" fill="#0040B0"/>
<path d="M216.411 93.3558L195.839 95.7077C195.582 95.7343 195.298 95.5657 195.218 95.3261L194.073 92.0423C193.993 91.8027 194.135 91.5808 194.393 91.5542L214.929 89.2645C215.178 89.2379 215.453 89.4065 215.542 89.6372L216.713 92.8588C216.802 93.0985 216.669 93.3115 216.411 93.3381V93.3558Z" fill="#0040B0"/>
<path d="M254.584 81.1007L225.815 80.6641C223.225 81.3266 221.32 83.5176 222.231 86.2281L231.01 110.035C232.237 113.039 234.609 114.297 237.206 113.988L266.005 109.997C269.401 109.546 271.072 106.06 270.093 103.236L259.801 83.8564C259.086 82.1398 256.752 80.9125 254.584 81.1007Z" fill="#00144A"/>
<path d="M255.675 78.0191L226.696 80.5639C224.317 80.7747 222.924 82.4085 223.601 84.2306L232.523 108.09C233.856 110.778 235.806 111.32 238.23 110.996L267.692 107.059C269.898 106.765 271.057 105.049 270.297 103.242L260.893 80.7747C260.178 79.0581 257.844 77.8308 255.675 78.0191Z" fill="#0070F2"/>
<path d="M254.493 104.438C254.32 104.46 254.139 104.468 253.966 104.438C253.537 104.378 253.115 104.197 252.814 103.911L247.612 99.1072L243.614 102.277C243.215 102.593 242.597 102.684 241.995 102.525C241.385 102.367 240.903 101.976 240.722 101.517L234.488 85.3214C234.308 84.8471 234.503 84.3878 234.963 84.1394C235.422 83.8909 236.107 83.8758 236.694 84.1243L256.895 92.6096C257.46 92.8505 257.859 93.2797 257.926 93.7465C258.002 94.2133 257.731 94.6123 257.219 94.793L252.204 96.6151L257.189 101.2C257.806 101.772 257.798 102.563 257.158 102.955L255.118 104.219C254.937 104.325 254.727 104.4 254.493 104.43V104.438ZM238.644 87.55L243.034 98.8286L247.205 95.5761C247.318 95.5008 247.446 95.4179 247.574 95.3728L252.837 93.5056L238.644 87.55Z" fill="white"/>
</svg>
