<svg width="45" height="45" viewBox="0 0 45 45" fill="none" xmlns="http://www.w3.org/2000/svg">
<path d="M43.6855 12.6348C43.6855 9.29841 40.9809 6.59375 37.6445 6.59375H6.74024C3.40388 6.59375 0.699222 9.29841 0.699222 12.6348V29.2967C0.699222 30.6861 1.82553 31.8124 3.2149 31.8124H4.01034C5.69997 31.8124 6.69622 33.708 5.73801 35.0996C4.26264 37.2423 7.23508 39.6231 9.00386 37.7153L13.7057 32.6442C14.1974 32.1139 14.8879 31.8124 15.6112 31.8124H37.6445C40.9809 31.8124 43.6855 29.1078 43.6855 25.7714V12.6348Z" fill="#D5DADD"/>
<path fill-rule="evenodd" clip-rule="evenodd" d="M6.28143 34.6538C6.34448 34.4905 6.38504 34.3241 6.40483 34.1578C6.40974 34.1166 6.41338 34.0754 6.41575 34.0342C6.42556 33.8646 6.41412 33.6959 6.38331 33.5318C6.35169 33.3634 6.29966 33.1997 6.22922 33.0445C5.78517 33.1279 5.43784 33.5047 5.41059 33.9761C5.40016 34.1566 5.34223 34.3448 5.21636 34.5276C4.72796 35.2369 4.56101 36.0141 4.67512 36.7509C4.76021 37.3004 5.27467 37.6769 5.82418 37.5918C5.91031 37.5785 5.99219 37.5546 6.0687 37.5217C5.9656 37.3854 5.87832 37.2373 5.81042 37.0804C5.74398 36.9268 5.6961 36.7647 5.67009 36.5968C5.64182 36.4143 5.63942 36.2248 5.66717 36.0319C5.69049 35.8697 5.7351 35.7051 5.80356 35.5401C5.86466 35.3928 5.94474 35.2451 6.04562 35.0986C6.14462 34.9549 6.22276 34.8057 6.28143 34.6538ZM11.1715 35.7083C11.5792 36.0863 11.6033 36.7234 11.2252 37.1311L10.0498 38.3989C9.46428 39.0304 8.74231 39.3631 7.99839 39.4127C7.44356 39.4496 6.96381 39.0298 6.92684 38.475C6.92105 38.388 6.92648 38.3029 6.94189 38.221C7.09744 38.2919 7.26098 38.3447 7.42896 38.3767C7.59332 38.408 7.76193 38.4193 7.93146 38.408C8.40897 38.3762 8.89379 38.1649 9.31148 37.7144L11.1715 35.7083ZM18.7618 31.8114C18.7618 32.3675 18.311 32.8183 17.7549 32.8183H15.9188C15.4758 32.8183 15.0528 33.0029 14.7516 33.3278L13.5761 34.5956C13.1981 35.0033 12.561 35.0274 12.1533 34.6493L14.0133 32.6432C14.505 32.1129 15.1956 31.8114 15.9188 31.8114H18.7618ZM26.1062 31.8114C26.1062 32.3675 25.6554 32.8183 25.0994 32.8183H21.4271C20.8711 32.8183 20.4203 32.3675 20.4203 31.8114H26.1062ZM33.4506 31.8114C33.4506 32.3675 32.9999 32.8183 32.4438 32.8183H28.7716C28.2155 32.8183 27.7648 32.3675 27.7648 31.8114H33.4506ZM41.1591 30.8909C41.1719 30.9157 41.1837 30.9412 41.1946 30.9674C41.4076 31.481 41.1639 32.0701 40.6502 32.2831C39.8178 32.6283 38.9059 32.8183 37.9521 32.8183H36.116C35.56 32.8183 35.1092 32.3675 35.1092 31.8114H37.9521C38.7713 31.8114 39.5523 31.6484 40.2646 31.3531C40.4201 31.2885 40.5724 31.2177 40.7211 31.1409C40.8709 31.0635 41.017 30.9801 41.1591 30.8909ZM43.9932 23.1215C44.5492 23.1215 45 23.5723 45 24.1284V25.7704C45 26.7242 44.81 27.6361 44.4648 28.4685C44.2518 28.9822 43.6627 29.2259 43.1491 29.0129C43.1229 29.002 43.0974 28.9902 43.0726 28.9774C43.1618 28.8353 43.2452 28.6892 43.3226 28.5394C43.3994 28.3907 43.4703 28.2384 43.5348 28.0829C43.8301 27.3706 43.9932 26.5895 43.9932 25.7704V23.1215ZM43.9932 16.5532C44.5492 16.5532 45 17.004 45 17.56V20.8442C45 21.4003 44.5492 21.851 43.9932 21.851V16.5532ZM43.0726 9.42682C43.0974 9.41405 43.1229 9.4022 43.1491 9.39133C43.6627 9.17833 44.2518 9.42205 44.4648 9.93569C44.81 10.7681 45 11.68 45 12.6338V14.2759C45 14.8319 44.5492 15.2827 43.9932 15.2827V12.6338C43.9932 11.8147 43.8301 11.0336 43.5348 10.3214C43.4703 10.1658 43.3994 10.0135 43.3226 9.86483C43.2452 9.71506 43.1618 9.56895 43.0726 9.42682ZM35.0138 6.59277C35.0138 6.03671 35.4646 5.58594 36.0206 5.58594H37.9521C38.9059 5.58594 39.8179 5.77595 40.6502 6.12113C41.1639 6.33413 41.4076 6.9232 41.1946 7.43684C41.1837 7.46306 41.1719 7.48857 41.1591 7.51336C41.017 7.42415 40.8709 7.3407 40.7211 7.26332C40.5724 7.1865 40.4201 7.11568 40.2646 7.05117C39.5523 6.7558 38.7713 6.59277 37.9521 6.59277H35.0138ZM27.2877 6.59277C27.2877 6.03671 27.7385 5.58594 28.2946 5.58594H32.1576C32.7137 5.58594 33.1644 6.03671 33.1644 6.59277H27.2877ZM19.5616 6.59277C19.5616 6.03671 20.0124 5.58594 20.5685 5.58594H24.4315C24.9876 5.58594 25.4384 6.03671 25.4384 6.59277H19.5616ZM11.8356 6.59277C11.8356 6.03671 12.2863 5.58594 12.8424 5.58594H16.7054C17.2615 5.58594 17.7123 6.03671 17.7123 6.59277H11.8356ZM9.98621 6.59277C9.98621 6.03671 9.53543 5.58594 8.97937 5.58594H7.04786C6.09408 5.58594 5.18215 5.77595 4.34975 6.12113C3.83611 6.33413 3.59239 6.92319 3.80539 7.43684C3.81626 7.46306 3.82811 7.48857 3.84088 7.51336C3.98301 7.42415 4.12912 7.3407 4.27889 7.26332C4.42757 7.18651 4.57987 7.11568 4.73543 7.05117C5.44771 6.7558 6.22875 6.59277 7.04786 6.59277H9.98621ZM1.00684 15.7234C0.450779 15.7234 2.81466e-06 15.2726 2.81466e-06 14.7165V12.6338C2.81466e-06 11.68 0.190014 10.7681 0.535192 9.93569C0.748194 9.42204 1.33726 9.17832 1.85091 9.39132C1.87712 9.40219 1.90263 9.41405 1.92742 9.42682C1.83821 9.56895 1.75476 9.71506 1.67739 9.86482C1.60057 10.0135 1.52975 10.1658 1.46524 10.3214C1.16986 11.0336 1.00684 11.8147 1.00684 12.6338V15.7234ZM1.00684 24.0544C0.450779 24.0544 2.81466e-06 23.6036 2.81466e-06 23.0475V18.882C2.81466e-06 18.326 0.450779 17.8752 1.00684 17.8752V24.0544ZM6.1139 32.8251C6.02605 32.6791 5.92076 32.5435 5.79999 32.4219C5.68227 32.3034 5.54985 32.1984 5.40458 32.1103C5.20217 31.9875 4.97481 31.8976 4.72748 31.85C4.59634 31.8248 4.45959 31.8114 4.31796 31.8114H3.52251C3.383 31.8114 3.24613 31.8001 3.1128 31.7782C2.92014 31.7467 2.73484 31.6933 2.55954 31.6206C2.40319 31.5557 2.25478 31.4756 2.11621 31.382C1.98945 31.2964 1.87092 31.1995 1.76204 31.0928C1.74973 31.0807 1.73754 31.0686 1.72547 31.0562C1.61879 30.9474 1.52193 30.8288 1.43632 30.7021C1.34272 30.5635 1.26257 30.4151 1.19773 30.2587C1.07473 29.9621 1.00684 29.6369 1.00684 29.2958V26.2062C0.450779 26.2062 2.81466e-06 26.657 2.81466e-06 27.213V29.2958C2.81466e-06 29.7715 0.0948776 30.2277 0.267689 30.6444C0.480691 31.1581 1.06975 31.4018 1.5834 31.1888C1.61339 31.1763 1.64245 31.1626 1.67056 31.1477C1.65565 31.1758 1.64193 31.2049 1.6295 31.2349C1.4165 31.7485 1.66022 32.3376 2.17387 32.5506C2.59059 32.7234 3.04674 32.8183 3.52251 32.8183H3.72137C3.78945 32.8183 3.85595 32.8115 3.92024 32.7986C3.98453 32.8115 4.05101 32.8183 4.1191 32.8183H4.31796C4.53991 32.8183 4.72782 32.8773 4.88239 32.9711C5.28608 33.216 5.79343 33.1436 6.1139 32.8251Z" fill="#F58B00"/>
<path d="M28.1441 20.2164C28.1441 21.6239 29.3111 22.7649 30.7505 22.7649C32.19 22.7649 33.3569 21.6239 33.3569 20.2164C33.3569 18.809 32.19 17.668 30.7505 17.668C29.3111 17.668 28.1441 18.809 28.1441 20.2164Z" fill="#223548"/>
<path d="M10.7676 20.2164C10.7676 21.6239 11.9345 22.7649 13.374 22.7649C14.8134 22.7649 15.9803 21.6239 15.9803 20.2164C15.9803 18.809 14.8134 17.668 13.374 17.668C11.9345 17.668 10.7676 18.809 10.7676 20.2164Z" fill="#223548"/>
<path d="M19.4557 20.2164C19.4557 21.6239 20.6226 22.7649 22.0621 22.7649C23.5016 22.7649 24.6685 21.6239 24.6685 20.2164C24.6685 18.809 23.5016 17.668 22.0621 17.668C20.6226 17.668 19.4557 18.809 19.4557 20.2164Z" fill="#223548"/>
</svg>
