<svg width="128" height="63" viewBox="0 0 128 63" fill="none" xmlns="http://www.w3.org/2000/svg">
<path d="M118.4 0.657227H9.6C4.29807 0.657227 0 4.95529 0 10.2572V46.2572C0 51.5592 4.29807 55.8572 9.6 55.8572H118.4C123.702 55.8572 128 51.5592 128 46.2572V10.2572C128 4.95529 123.702 0.657227 118.4 0.657227Z" fill="#222F3B"/>
<mask id="mask0_4038_85796" style="mask-type:alpha" maskUnits="userSpaceOnUse" x="0" y="0" width="128" height="56">
<path d="M118.4 0.657227H9.6C4.29807 0.657227 0 4.95529 0 10.2572V46.2572C0 51.5592 4.29807 55.8572 9.6 55.8572H118.4C123.702 55.8572 128 51.5592 128 46.2572V10.2572C128 4.95529 123.702 0.657227 118.4 0.657227Z" fill="#222F3B"/>
</mask>
<g mask="url(#mask0_4038_85796)">
<path d="M79.4857 59.6636L74.8737 61.6396L53.1257 44.9396C54.3177 44.6636 55.4537 44.2956 56.5097 43.8516L79.4817 59.6636H79.4857Z" fill="#101619"/>
<path d="M46.3974 18.8634C56.6694 19.5234 64.9134 26.0154 64.8014 33.3714C64.7334 37.9434 61.4534 41.7714 56.5174 43.8554L55.0414 42.8354L51.2414 43.4874L53.1334 44.9394C50.9334 45.4514 48.5254 45.6554 46.0054 45.4914C35.7334 44.8314 27.4934 38.3394 27.6014 30.9834C27.7134 23.6314 36.1294 18.2034 46.4014 18.8594L46.3974 18.8634Z" fill="#101619"/>
<path d="M55.0371 42.8311L56.5131 43.8511C55.4531 44.2951 54.3211 44.6631 53.1291 44.9391L51.2371 43.4871L55.0371 42.8351V42.8311Z" fill="#101619"/>
</g>
<path d="M98.7618 40.9155L48.5298 41.0555C48.0378 41.0555 47.5938 40.7515 47.4178 40.2915L36.8778 12.7595C36.5818 11.9795 37.1538 11.1475 37.9898 11.1475L88.2458 11.1995L100.218 38.6915C100.674 39.7435 99.9058 40.9195 98.7618 40.9195V40.9155Z" fill="#688FB7"/>
<path d="M99.2923 39.895L48.9363 40.035C48.3523 40.035 47.8243 39.675 47.6163 39.127L37.2483 12.039C36.8963 11.115 37.5763 10.123 38.5683 10.123L87.5763 10.171C88.1363 10.171 88.6443 10.503 88.8683 11.019L100.584 37.919C100.988 38.851 100.308 39.891 99.2963 39.891L99.2923 39.895Z" fill="#D5DADD"/>
<path d="M88.2366 17.6712L42.4286 17.7673C42.2326 17.7673 42.0566 17.6472 41.9886 17.4632L41.1166 15.1673C41.0006 14.8593 41.2286 14.5312 41.5566 14.5312L87.2846 14.6272C87.4686 14.6272 87.6366 14.7353 87.7126 14.9033L88.6646 17.0072C88.8046 17.3192 88.5766 17.6712 88.2366 17.6712Z" fill="#2A4259"/>
<path d="M86.4009 16.7313H79.3409C79.1129 16.7313 78.9089 16.5953 78.8249 16.3833L78.8049 16.3393C78.6529 15.9713 78.9289 15.5673 79.3249 15.5713L86.4049 15.6153C86.6209 15.6153 86.8168 15.7433 86.9088 15.9393C87.0808 16.3073 86.8089 16.7313 86.4009 16.7313Z" fill="#D5DADD"/>
<path d="M75.5649 16.7313H68.5049C68.2769 16.7313 68.0729 16.5953 67.9889 16.3833L67.9689 16.3393C67.8169 15.9713 68.0929 15.5673 68.4889 15.5713L75.5689 15.6153C75.7849 15.6153 75.9809 15.7433 76.0729 15.9393C76.2449 16.3073 75.9729 16.7313 75.5649 16.7313Z" fill="#D5DADD"/>
<path d="M55.5574 12.7873H40.9014C40.6774 12.7873 40.4774 12.6513 40.3934 12.4433C40.2494 12.0833 40.5134 11.6953 40.9014 11.6953H55.5574C55.7814 11.6953 55.9814 11.8313 56.0654 12.0393C56.2094 12.3993 55.9454 12.7873 55.5574 12.7873Z" fill="#2A4259"/>
<path d="M76.1728 20.8036H69.1128C68.8848 20.8036 68.6808 20.6676 68.5968 20.4556L68.5768 20.4116C68.4248 20.0436 68.7008 19.6396 69.0968 19.6436L76.1768 19.6876C76.3928 19.6876 76.5888 19.8156 76.6808 20.0116C76.8528 20.3796 76.5808 20.8036 76.1728 20.8036Z" fill="#2A4259"/>
<path d="M78.601 24.2147H70.453C70.193 24.2147 69.957 24.0787 69.857 23.8667L69.837 23.8227C69.665 23.4547 69.977 23.0507 70.437 23.0547L78.605 23.0987C78.853 23.0987 79.081 23.2267 79.185 23.4227C79.381 23.7907 79.069 24.2147 78.601 24.2147Z" fill="#2A4259"/>
<path d="M77.5776 27.5673H71.4976C71.3016 27.5673 71.1256 27.4313 71.0536 27.2193L71.0376 27.1753C70.9096 26.8073 71.1416 26.4033 71.4856 26.4073L77.5816 26.4513C77.7696 26.4513 77.9376 26.5793 78.0136 26.7753C78.1616 27.1433 77.9296 27.5673 77.5776 27.5673Z" fill="#2A4259"/>
<path d="M48.9376 40.0356L57.6896 40.0116C62.0896 37.8556 64.9576 34.2396 65.0176 29.9716C65.1296 22.6156 56.8856 16.1196 46.6136 15.4636C43.8496 15.2876 41.2176 15.5516 38.8496 16.1756L40.0856 19.4556L47.6176 39.1276C47.8256 39.6756 48.3536 40.0356 48.9376 40.0356Z" fill="#101619"/>
<path fill-rule="evenodd" clip-rule="evenodd" d="M59.89 5.64272C68.726 5.77472 76.77 12.1227 77.858 19.8227C78.946 27.5227 72.666 33.6547 63.83 33.5227C54.994 33.3907 46.95 27.0427 45.862 19.3427C44.774 11.6427 51.054 5.51072 59.886 5.64272H59.89Z" fill="#222F3B"/>
<path fill-rule="evenodd" clip-rule="evenodd" d="M76.2212 57.5912L67.1572 34.5352C67.1572 34.5352 65.0412 35.3512 65.7612 37.3232C66.4852 39.2992 74.2972 60.7472 74.2732 60.6832C74.2492 60.6232 75.0052 59.1712 76.5452 58.5872L76.2172 57.5912H76.2212Z" fill="#8D2A00"/>
<path fill-rule="evenodd" clip-rule="evenodd" d="M79.5045 59.3626L78.1685 56.1986C78.1685 56.1986 77.0845 54.9466 75.2765 55.4746C73.4685 56.0026 73.1965 57.7306 73.1965 57.7306L74.2725 60.6826L79.5045 59.3626Z" fill="#C35500"/>
<path fill-rule="evenodd" clip-rule="evenodd" d="M44.9573 12.771C44.9573 12.771 42.0093 20.875 46.9053 28.031C51.8053 35.187 58.9533 38.127 66.7693 37.303C74.5893 36.479 80.9373 29.795 79.9413 20.535C78.9453 11.275 73.8453 8.27496 70.9253 6.15096C68.0053 4.02696 60.5053 2.31896 55.3733 3.48296C50.2453 4.64696 44.9533 12.771 44.9533 12.771H44.9573Z" fill="#8D2A00"/>
<path fill-rule="evenodd" clip-rule="evenodd" d="M59.89 5.64272C68.726 5.77472 76.77 12.1227 77.858 19.8227C78.946 27.5227 72.666 33.6547 63.83 33.5227C54.994 33.3907 46.95 27.0427 45.862 19.3427C44.774 11.6427 51.054 5.51072 59.886 5.64272H59.89Z" fill="#D0C1CB"/>
<path fill-rule="evenodd" clip-rule="evenodd" d="M59.89 5.64272C68.726 5.77472 76.77 12.1227 77.858 19.8227C78.946 27.5227 72.666 33.6547 63.83 33.5227C54.994 33.3907 46.95 27.0427 45.862 19.3427C44.774 11.6427 51.054 5.51072 59.886 5.64272H59.89Z" fill="#D0C1CB"/>
<path fill-rule="evenodd" clip-rule="evenodd" d="M59.89 5.64272C68.726 5.77472 76.77 12.1227 77.858 19.8227C78.946 27.5227 72.666 33.6547 63.83 33.5227C54.994 33.3907 46.95 27.0427 45.862 19.3427C44.774 11.6427 51.054 5.51072 59.886 5.64272H59.89Z" fill="#D0C1CB"/>
<g clip-path="url(#clip0_4038_85796)">
<path d="M62.9459 22.131C62.7699 22.027 62.5659 21.995 62.3859 22.051C62.2259 22.099 62.0979 22.207 62.0259 22.359L61.5939 23.251L58.9659 16.023C58.8259 15.639 58.4459 15.399 58.0939 15.475C57.9299 15.511 57.7979 15.611 57.7179 15.759C57.6219 15.931 57.6139 16.151 57.6899 16.359L60.2899 23.499L59.3459 22.931C59.1699 22.827 58.9659 22.795 58.7859 22.851C58.6259 22.899 58.4979 23.007 58.4219 23.159C58.2659 23.479 58.4099 23.887 58.7419 24.087L61.2339 25.583C61.3499 25.655 61.4819 25.691 61.6099 25.691C61.6739 25.691 61.7339 25.683 61.7939 25.663C61.9539 25.615 62.0819 25.507 62.1539 25.355L63.2659 23.055C63.4219 22.735 63.2779 22.327 62.9459 22.127V22.131Z" fill="#688FB7"/>
<path d="M69.1256 23.3717L66.5216 16.2157L67.4656 16.7837C67.6416 16.8877 67.8456 16.9197 68.0256 16.8637C68.1856 16.8157 68.3136 16.7077 68.3856 16.5557C68.5416 16.2357 68.4016 15.8277 68.0656 15.6237L65.5736 14.1317C65.3976 14.0277 65.1976 13.9957 65.0176 14.0517C64.8576 14.0997 64.7256 14.2077 64.6536 14.3597L63.5416 16.6597C63.3856 16.9797 63.5296 17.3877 63.8616 17.5877C64.0376 17.6917 64.2416 17.7197 64.4216 17.6677C64.5816 17.6197 64.7096 17.5117 64.7816 17.3597L65.2136 16.4677L67.8456 23.7077C67.9656 24.0357 68.2696 24.2557 68.5776 24.2557C68.6216 24.2557 68.6696 24.2517 68.7136 24.2397C68.8776 24.2037 69.0136 24.0997 69.0936 23.9517C69.1856 23.7837 69.1976 23.5677 69.1216 23.3677L69.1256 23.3717Z" fill="#688FB7"/>
</g>
<path d="M77.8375 21.2109C78.1655 28.3109 72.5776 33.4469 64.2336 33.3229C63.0496 33.3069 61.8775 33.1749 60.7375 32.9469C66.5895 28.9189 71.9816 25.2389 77.8336 21.2109H77.8375Z" fill="#D5DADD"/>
<path d="M67.237 7.21144C66.865 7.38744 66.509 7.59144 66.169 7.82744C59.865 12.1594 53.561 16.4954 47.253 20.8274C47.129 21.0394 47.005 21.2514 46.881 21.4634C46.645 20.7354 46.469 19.9914 46.361 19.2354C46.057 17.0834 46.333 15.0554 47.081 13.2554C50.737 10.7474 54.393 8.23544 58.053 5.72744C58.785 5.64344 59.541 5.60744 60.317 5.61944C62.753 5.65544 65.057 6.33544 67.241 7.21544L67.237 7.21144Z" fill="#D5DADD"/>
<path d="M64.6771 34.6189H64.3891C54.7331 34.4749 45.8691 27.1629 44.6211 18.3189C44.0411 14.2109 45.1731 10.3029 47.8051 7.31487C50.7011 4.02687 55.2011 2.18687 60.1251 2.25887C69.7811 2.40287 78.6451 9.71487 79.8891 18.5589C80.4691 22.6669 79.3371 26.5749 76.7051 29.5629C73.8611 32.7869 69.4891 34.6229 64.6691 34.6229H64.6771V34.6189ZM59.8411 4.13087C55.5611 4.13087 51.6971 5.73487 49.2131 8.55487C46.9491 11.1229 45.9771 14.4949 46.4811 18.0549C47.6011 26.0189 55.6491 32.6069 64.4171 32.7389H64.6771C68.9571 32.7389 72.8211 31.1349 75.3051 28.3149C77.5691 25.7469 78.5411 22.3749 78.0371 18.8149C76.9171 10.8509 68.8691 4.26287 60.1011 4.13087H59.8411Z" fill="#C35500"/>
<path fill-rule="evenodd" clip-rule="evenodd" d="M74.3251 60.7545C74.3251 60.7545 66.0051 37.9785 65.7611 37.3265C65.5171 36.6705 65.6371 34.9985 67.2611 34.5985C68.8851 34.1945 69.8371 35.8865 70.1851 36.6825C70.5331 37.4785 79.5451 59.5825 79.5451 59.5825L77.4091 60.3425L74.3211 60.7585L74.3251 60.7545Z" fill="#C35500"/>
<path fill-rule="evenodd" clip-rule="evenodd" d="M76.2293 57.5872L67.1493 34.4912C67.1493 34.4912 65.0253 35.3072 65.7493 37.2872C66.4733 39.2672 74.3013 60.7512 74.2813 60.6872C74.2613 60.6232 75.0133 59.1752 76.5573 58.5872L76.2293 57.5872Z" fill="#8D2A00"/>
<path fill-rule="evenodd" clip-rule="evenodd" d="M76.91 57.5912C78.414 57.6152 79.622 58.6952 79.602 60.0072C79.582 61.3192 78.346 62.3672 76.838 62.3432C75.33 62.3232 74.126 61.2392 74.146 59.9272C74.166 58.6152 75.402 57.5672 76.906 57.5912H76.91Z" fill="#8D2A00"/>
<defs>
<clipPath id="clip0_4038_85796">
<rect width="11.536" height="11.672" fill="white" transform="translate(57.6379 14.0234)"/>
</clipPath>
</defs>
</svg>
