<svg width="160" height="160" viewBox="0 0 160 160" fill="none" xmlns="http://www.w3.org/2000/svg">
<mask id="mask0_2703_33256" style="mask-type:alpha" maskUnits="userSpaceOnUse" x="1" y="1" width="159" height="159">
<circle cx="80.0123" cy="80.9879" r="79.0123" fill="#EBF8FF"/>
</mask>
<g mask="url(#mask0_2703_33256)">
<circle cx="80.0123" cy="78.025" r="79.0123" fill="#EBF8FF"/>
<rect x="-74.0615" y="39.5068" width="79.0123" height="13.8272" rx="2.96296" fill="#D1EFFF"/>
</g>
<mask id="mask1_2703_33256" style="mask-type:alpha" maskUnits="userSpaceOnUse" x="1" y="0" width="159" height="159">
<path fill-rule="evenodd" clip-rule="evenodd" d="M80.0123 158.025C123.65 158.025 159.025 122.65 159.025 79.0123C159.025 35.375 123.65 0 80.0123 0C66.1231 0 53.071 3.58373 41.7301 9.87695H14.8271V34.3467C6.10442 47.0523 1 62.4362 1 79.0123C1 122.65 36.375 158.025 80.0123 158.025Z" fill="#D9D9D9"/>
</mask>
<g mask="url(#mask1_2703_33256)">
<path d="M117.647 17.3506H35.7286C33.2614 17.3506 31.2612 19.3507 31.2612 21.818V191.556C31.2612 194.023 33.2614 196.023 35.7286 196.023H117.647C120.114 196.023 122.114 194.023 122.114 191.556V21.818C122.114 19.3507 120.114 17.3506 117.647 17.3506Z" fill="#9EDDFF"/>
<path d="M78.37 207.346L22.0508 196.717C21.0284 196.523 20.1057 195.979 19.4413 195.178C18.777 194.377 18.4125 193.369 18.4106 192.329V20.9679C18.4095 19.945 18.7594 18.9528 19.4018 18.1569C20.0443 17.361 20.9404 16.8097 21.9405 16.595L78.37 4.53223V207.346Z" fill="#0070F2"/>
<path d="M81.1593 205.266L78.3701 207.346V4.53223L80.1981 5.32013C81.0139 5.65923 81.7112 6.23224 82.2019 6.96696C82.6927 7.70167 82.9549 8.5652 82.9557 9.44873V201.697C82.9539 202.39 82.7906 203.074 82.4788 203.694C82.167 204.313 81.7152 204.851 81.1593 205.266Z" fill="#004DA5"/>
<path d="M72.4924 117.762C74.4898 117.762 76.1089 115.359 76.1089 112.396C76.1089 109.433 74.4898 107.03 72.4924 107.03C70.4951 107.03 68.876 109.433 68.876 112.396C68.876 115.359 70.4951 117.762 72.4924 117.762Z" fill="#004DA5"/>
<path d="M69.4039 116.524C70.9399 116.524 72.1851 114.675 72.1851 112.395C72.1851 110.115 70.9399 108.267 69.4039 108.267C67.8678 108.267 66.6226 110.115 66.6226 112.395C66.6226 114.675 67.8678 116.524 69.4039 116.524Z" fill="#004DA5"/>
<path d="M70.1918 113.05C70.6313 113.05 70.9876 112.27 70.9876 111.309C70.9876 110.347 70.6313 109.567 70.1918 109.567C69.7523 109.567 69.396 110.347 69.396 111.309C69.396 112.27 69.7523 113.05 70.1918 113.05Z" fill="#0070F2"/>
<path fill-rule="evenodd" clip-rule="evenodd" d="M38.9487 33.622C38.7813 33.4552 38.6447 33.4426 38.544 33.4639L29.9503 35.2764C29.7485 35.3442 29.573 35.4743 29.4492 35.6484C29.3165 35.835 29.2511 36.0613 29.2639 36.29L29.2666 36.3381V129.972L29.2642 130.018C29.2519 130.248 29.3167 130.475 29.4483 130.664C29.5706 130.839 29.7441 130.972 29.9445 131.045L37.7448 132.839C37.8737 132.868 38.0041 132.848 38.1557 132.701C38.3238 132.538 38.4993 132.217 38.5035 131.755C38.5035 131.755 38.5035 131.755 38.5035 131.755L39.2914 34.5759C39.2954 34.1286 39.1261 33.7987 38.9487 33.622ZM42.7397 34.6052C42.7397 34.6056 42.7397 34.6049 42.7397 34.6052L41.9518 131.784C41.9297 134.273 39.9065 136.872 36.9745 136.2L36.9732 136.2L29.0319 134.373L28.9708 134.354C28.0174 134.059 27.1898 133.454 26.6191 132.636C26.0583 131.831 25.7773 130.865 25.8182 129.886V36.4286C25.7748 35.4375 26.0633 34.4595 26.6388 33.6501C27.2248 32.8259 28.0736 32.2255 29.0458 31.9473L29.1045 31.9305L37.83 30.0903C40.7338 29.4765 42.7614 32.1041 42.7397 34.6052Z" fill="#004DA5"/>
<path fill-rule="evenodd" clip-rule="evenodd" d="M60.0328 29.0687C60.0324 29.0688 60.0332 29.0686 60.0328 29.0687L51.4453 30.8799C51.2408 30.949 51.0629 31.0811 50.9375 31.2578C50.8029 31.4473 50.7368 31.6769 50.7498 31.909L50.7523 31.954L51.1466 132.894L51.1446 132.938C51.1339 133.167 51.1997 133.393 51.3317 133.581C51.4549 133.756 51.6292 133.888 51.8301 133.96L59.6318 135.762C59.6315 135.762 59.6322 135.762 59.6318 135.762C59.7303 135.784 59.8662 135.774 60.0344 135.611C60.2129 135.439 60.3889 135.111 60.3912 134.655C60.3912 134.655 60.3912 134.655 60.3912 134.655L60.7851 30.1779C60.7851 30.1769 60.7851 30.176 60.7851 30.1751C60.7844 29.7315 60.6141 29.4052 60.4353 29.2284C60.2655 29.0604 60.1274 29.0493 60.0328 29.0687ZM59.3288 25.6929C62.2052 25.093 64.2335 27.6865 64.2335 30.1779V30.1844L63.8396 134.668C63.8285 137.185 61.7598 139.786 58.863 139.124L58.8593 139.123L50.921 137.289L50.8629 137.271C49.9115 136.98 49.0843 136.379 48.5116 135.566C47.9483 134.765 47.6629 133.803 47.698 132.826L47.3043 32.0521C47.2596 31.057 47.5483 30.0748 48.1255 29.2617C48.7125 28.4349 49.5629 27.8319 50.5373 27.5517L50.5971 27.5345L59.325 25.6937L59.3288 25.6929Z" fill="#004DA5"/>
</g>
<path d="M143.345 9.88681C143.345 8.7689 140.1 7.87407 135.764 7.67082C135.517 3.34046 134.562 0.12057 133.444 0.123048C132.326 0.125527 131.397 3.3702 131.159 7.72287C126.811 8.02032 123.578 8.99198 123.593 10.1124C123.608 11.2328 126.838 12.1276 131.173 12.3284C131.434 16.6587 132.376 19.8786 133.491 19.8761C134.607 19.8737 135.541 16.629 135.779 12.2763C140.127 11.9789 143.358 11.0072 143.345 9.88681Z" fill="#F58B00"/>
<path d="M151.691 31.6052C151.691 30.8786 149.581 30.297 146.763 30.1648C146.602 27.3501 145.982 25.2572 145.255 25.2588C144.528 25.2604 143.924 27.3694 143.769 30.1987C140.943 30.392 138.842 31.0236 138.852 31.7518C138.861 32.4801 140.961 33.0617 143.779 33.1922C143.948 36.007 144.561 38.0999 145.286 38.0983C146.011 38.0967 146.618 35.9876 146.773 33.1584C149.599 32.9651 151.699 32.3335 151.691 31.6052Z" fill="#F58B00"/>
</svg>
