<svg width="128" height="65" viewBox="0 0 128 65" fill="none" xmlns="http://www.w3.org/2000/svg">
<path d="M0 17.5C0 13.0817 3.58172 9.5 8 9.5H120C124.418 9.5 128 13.0817 128 17.5V56.5C128 60.9183 124.418 64.5 120 64.5H8C3.58172 64.5 0 60.9183 0 56.5V17.5Z" fill="#222F3B"/>
<path d="M79.5642 53.2126L106.75 37.5871C107.579 37.1108 107.331 35.8548 106.383 35.7289L52.8538 28.6133L67.6209 50.4386C70.271 54.3549 75.4736 55.5624 79.5642 53.2107V53.2126Z" fill="#101619"/>
<path d="M78.9998 5.99805L84.1497 46.4511C84.3809 52.0951 76.3831 55.8213 70.7849 55.2933L59.4167 54.2221L78.9998 5.99805Z" fill="#046C7C"/>
<path d="M31.151 15.5479L29.0054 52.9345C28.9003 54.7563 30.3428 56.2921 32.1598 56.2921H70.6989C73.2668 56.2921 75.3952 54.2917 75.5672 51.7174L77.9918 15.5479H31.151Z" fill="#D5DADD"/>
<path d="M31.8751 6.35621L31.172 15.5478H78.0147L78.896 6.61708C79.0705 4.84842 77.6778 3.31662 75.9006 3.32248L34.9818 3.45742C33.352 3.46318 32.0012 4.72444 31.877 6.35621H31.8751Z" fill="#0899A7"/>
<path d="M44.6058 12.1111C45.967 12.1111 47.0705 11.0024 47.0705 9.63465C47.0705 8.26695 45.967 7.1582 44.6058 7.1582C43.2446 7.1582 42.1411 8.26695 42.1411 9.63465C42.1411 11.0024 43.2446 12.1111 44.6058 12.1111Z" fill="#340800"/>
<path d="M65.0567 11.6472C66.418 11.6472 67.5214 10.5385 67.5214 9.17078C67.5214 7.80308 66.418 6.69434 65.0567 6.69434C63.6955 6.69434 62.592 7.80308 62.592 9.17078C62.592 10.5385 63.6955 11.6472 65.0567 11.6472Z" fill="#340800"/>
<path d="M44.0841 8.81945H43.9026C43.295 8.81945 42.8021 8.42015 42.8021 7.92486V3.37703C42.8021 2.96429 43.0944 2.57459 43.5663 2.42293C44.4873 2.12537 45.3662 2.67057 45.3662 3.38087V3.51333H47.5366V2.82223C47.5366 2.25591 47.2175 1.72031 46.6711 1.369C43.8205 -0.464335 40.6335 1.15975 40.6335 3.38087V8.55261C40.6335 8.94615 40.8399 9.32242 41.201 9.58734C43.3237 11.1404 45.6718 10.7008 46.8373 9.476C47.0914 9.20916 46.8507 8.81945 46.4361 8.81945H44.086H44.0841Z" fill="#046C7C"/>
<path d="M64.478 8.74426H64.2965C63.689 8.74426 63.196 8.34495 63.196 7.84966V3.30184C63.196 2.8891 63.4883 2.49939 63.9603 2.34773C64.8812 2.05018 65.7601 2.59538 65.7601 3.30568V3.43814H67.9305V2.74704C67.9305 2.18072 67.6115 1.64512 67.065 1.29381C64.2144 -0.539531 61.0275 1.08456 61.0275 3.30568V8.47741C61.0275 8.87096 61.2338 9.24722 61.5949 9.51215C63.7176 11.0652 66.0658 10.6256 67.2312 9.4008C67.4854 9.13396 67.2446 8.74426 66.83 8.74426H64.48H64.478Z" fill="#046C7C"/>
</svg>
