<svg width="128" height="128" viewBox="0 0 128 128" fill="none" xmlns="http://www.w3.org/2000/svg">
<mask id="mask0_4511_145857" style="mask-type:alpha" maskUnits="userSpaceOnUse" x="0" y="0" width="128" height="128">
<circle cx="64" cy="64" r="64" fill="#DBF1FF"/>
</mask>
<g mask="url(#mask0_4511_145857)">
<path d="M161.455 -4.58987H-29.4139C-30.6581 -4.59102 -31.8902 -4.34696 -33.04 -3.87165C-34.1897 -3.39634 -35.2345 -2.69909 -36.1147 -1.81977C-36.9948 -0.940449 -37.693 0.103705 -38.1694 1.25302C-38.6457 2.40233 -38.8909 3.63426 -38.8909 4.87838V117.072C-38.8909 119.586 -37.8925 121.996 -36.1152 123.774C-34.3379 125.551 -31.9274 126.549 -29.4139 126.549H161.455C163.968 126.549 166.379 125.551 168.156 123.774C169.933 121.996 170.932 119.586 170.932 117.072V4.87838C170.932 3.63426 170.687 2.40233 170.21 1.25302C169.734 0.103705 169.036 -0.940449 168.155 -1.81977C167.275 -2.69909 166.23 -3.39634 165.081 -3.87165C163.931 -4.34696 162.699 -4.59102 161.455 -4.58987Z" fill="#DBF1FF"/>
<path d="M6.79899 48.0792C6.99293 47.8471 7.24584 47.6716 7.53113 47.5711C7.81642 47.4706 8.12352 47.4489 8.42013 47.5082L15.5117 48.7348C16.6846 48.9371 17.1482 50.0152 16.9894 50.9345C16.9381 51.3132 16.7653 51.6649 16.497 51.9369C16.2287 52.2089 15.8793 52.3864 15.5014 52.4429C15.318 52.4647 15.1324 52.4586 14.9508 52.4249L7.85927 51.1983C7.54704 51.1509 7.25344 51.0199 7.00954 50.8193C6.76564 50.6187 6.58051 50.3559 6.47374 50.0587C6.3549 49.7284 6.32239 49.3732 6.37931 49.0268C6.43623 48.6803 6.58069 48.3542 6.79899 48.0792Z" fill="#A9B4BE"/>
<path d="M33.7539 19.7539C33.9588 19.6842 34.176 19.6579 34.3917 19.6768C34.6073 19.6957 34.8167 19.7594 35.0063 19.8637C35.196 19.968 35.3618 20.1108 35.4932 20.2828C35.6246 20.4548 35.7187 20.6524 35.7694 20.8628L37.7235 27.5952C37.793 27.8375 37.8134 28.0912 37.7837 28.3415C37.754 28.5918 37.6747 28.8337 37.5505 29.053C37.4263 29.2723 37.2596 29.4647 37.0603 29.6189C36.8609 29.7731 36.6327 29.8861 36.3892 29.9511C36.2895 29.9808 36.1876 30.0022 36.0845 30.0152C35.704 30.0686 35.3172 29.9775 35.0006 29.7599C34.6839 29.5424 34.4602 29.2141 34.3737 28.8397L32.4222 22.1099C32.3523 21.8678 32.3315 21.6141 32.3609 21.3639C32.3902 21.1136 32.4692 20.8717 32.5932 20.6523C32.7173 20.4329 32.8838 20.2404 33.0831 20.0862C33.2824 19.9319 33.5104 19.819 33.7539 19.7539Z" fill="#A9B4BE"/>
<path d="M16.3286 28.8705C16.5646 28.8552 16.8013 28.8882 17.0241 28.9674C17.2469 29.0467 17.4512 29.1705 17.6245 29.3314L25.4715 36.471C25.8216 36.7932 26.0337 37.2382 26.0633 37.7131C26.0929 38.188 25.9377 38.6559 25.6303 39.019C25.3438 39.3547 24.9416 39.5704 24.5034 39.6234C24.2509 39.6535 23.9947 39.6289 23.7525 39.5511C23.5104 39.4733 23.2878 39.3443 23.1 39.1727L15.253 32.0331C14.9006 31.7094 14.6875 31.2618 14.6584 30.7842C14.6292 30.3067 14.7864 29.8364 15.0967 29.4723C15.251 29.2942 15.4396 29.1491 15.6513 29.0457C15.8629 28.9423 16.0933 28.8827 16.3286 28.8705Z" fill="#A9B4BE"/>
</g>
<path d="M104.309 104.724C104.313 104.834 104.294 104.943 104.255 105.045C104.216 105.147 104.157 105.24 104.081 105.318C104.005 105.397 103.914 105.46 103.814 105.503C103.713 105.545 103.605 105.567 103.496 105.567H35.3409C35.1301 105.569 34.9272 105.487 34.7755 105.341C34.6238 105.194 34.5355 104.994 34.5294 104.783L32.8956 60.6092L32.5997 52.9081C32.5569 51.7929 33.4495 50.8651 34.5655 50.8651H100.696C101.768 50.8651 102.643 51.7233 102.663 52.7948L102.814 60.6092L104.309 104.724Z" fill="#89D1FF"/>
<path d="M35.9156 56.8611H105.834L107.329 100.977C107.333 101.086 107.314 101.195 107.275 101.297C107.236 101.399 107.177 101.492 107.101 101.571C107.026 101.65 106.935 101.712 106.834 101.755C106.734 101.798 106.626 101.82 106.517 101.819H38.361C38.1503 101.821 37.9473 101.74 37.7956 101.593C37.6438 101.447 37.5555 101.246 37.5494 101.035L35.9156 56.8611Z" fill="#56BDFF"/>
<path d="M44.2157 68.2691C44.1751 67.1553 45.067 66.2302 46.1815 66.2302H96.0853C97.1438 66.2302 98.0125 67.0678 98.0511 68.1256L99.0292 94.9216C99.0698 96.0354 98.1779 96.9605 97.0634 96.9605H47.1596C46.1011 96.9605 45.2324 96.1229 45.1938 95.0651L44.2157 68.2691Z" fill="white"/>
<path d="M45.6427 63.1241H66.1619C66.306 63.1251 66.4487 63.0966 66.5815 63.0405C66.7143 62.9845 66.8343 62.9019 66.9342 62.7979C67.0342 62.6939 67.112 62.5706 67.1629 62.4355C67.2138 62.3004 67.2368 62.1563 67.2305 62.012C67.2155 61.7118 67.0859 61.4289 66.8685 61.2218C66.651 61.0148 66.3625 60.8995 66.0626 60.8999H45.5493C45.4052 60.899 45.2625 60.9274 45.1297 60.9835C44.9969 61.0396 44.8769 61.1222 44.7769 61.2262C44.677 61.3302 44.5992 61.4535 44.5483 61.5886C44.4973 61.7237 44.4744 61.8677 44.4807 62.012C44.4956 62.3112 44.6244 62.5933 44.8406 62.8002C45.0568 63.0071 45.3438 63.123 45.6427 63.1241Z" fill="white"/>
<path d="M49.2922 70.9673C49.2381 70.9665 49.1843 70.9767 49.1343 70.9975C49.0842 71.0182 49.039 71.049 49.0013 71.0879C48.9635 71.1268 48.9341 71.1731 48.9149 71.2238C48.8956 71.2745 48.887 71.3287 48.8894 71.3829L48.9652 73.6539C48.9697 73.7663 49.017 73.8726 49.0974 73.9511C49.1778 74.0295 49.2852 74.074 49.3974 74.0754H52.101C52.1556 74.0763 52.2098 74.0659 52.2603 74.0448C52.3107 74.0237 52.3563 73.9924 52.3941 73.9528C52.432 73.9132 52.4612 73.8663 52.4801 73.8149C52.499 73.7634 52.5071 73.7086 52.5038 73.6539L52.4279 71.3829C52.422 71.2716 52.374 71.1667 52.2938 71.0895C52.2135 71.0123 52.107 70.9687 51.9958 70.9673H49.2922Z" fill="#D5DADD"/>
<path d="M56.2001 70.979C56.1457 70.9782 56.0918 70.9885 56.0414 71.0091C55.9911 71.0298 55.9455 71.0605 55.9073 71.0993C55.8691 71.1382 55.8391 71.1843 55.8192 71.2351C55.7993 71.2858 55.7898 71.3401 55.7914 71.3946L55.8732 73.6657C55.8777 73.778 55.9249 73.8844 56.0053 73.9628C56.0857 74.0412 56.1931 74.0857 56.3053 74.0871H59.0088C59.0633 74.0871 59.1171 74.0761 59.1672 74.0548C59.2172 74.0334 59.2624 74.002 59.3001 73.9627C59.3377 73.9233 59.3671 73.8767 59.3863 73.8256C59.4055 73.7746 59.4141 73.7202 59.4117 73.6657L59.3358 71.3946C59.3285 71.2828 59.2793 71.1779 59.1981 71.1008C59.1169 71.0238 59.0097 70.9803 58.8979 70.979H56.2001Z" fill="#D5DADD"/>
<path d="M63.1897 71.0024C63.1353 71.0023 63.0814 71.0133 63.0313 71.0347C62.9813 71.0561 62.936 71.0874 62.8984 71.1268C62.8607 71.1662 62.8315 71.2128 62.8123 71.2639C62.7931 71.3149 62.7844 71.3693 62.7868 71.4238L62.8627 73.6949C62.8685 73.8067 62.9163 73.9123 62.9964 73.9904C63.0765 74.0685 63.183 74.1135 63.2948 74.1163H65.9983C66.053 74.1163 66.1071 74.1053 66.1575 74.084C66.2079 74.0627 66.2535 74.0315 66.2916 73.9922C66.3297 73.9529 66.3596 73.9063 66.3794 73.8553C66.3992 73.8042 66.4087 73.7496 66.4071 73.6949L66.3254 71.4238C66.3209 71.3115 66.2735 71.2051 66.1931 71.1267C66.1128 71.0483 66.0054 71.0038 65.8933 71.0024H63.1897Z" fill="#D5DADD"/>
<path d="M70.0975 71.0141C70.0429 71.014 69.9887 71.025 69.9384 71.0463C69.888 71.0677 69.8424 71.0989 69.8043 71.1382C69.7662 71.1775 69.7363 71.224 69.7165 71.2751C69.6966 71.3262 69.6873 71.3807 69.6888 71.4355L69.7705 73.7065C69.775 73.8189 69.8223 73.9252 69.9027 74.0036C69.9831 74.0821 70.0905 74.1266 70.2027 74.128H72.9062C72.9606 74.128 73.0145 74.117 73.0646 74.0956C73.1147 74.0742 73.1599 74.0429 73.1975 74.0035C73.2352 73.9642 73.2645 73.9175 73.2836 73.8665C73.3028 73.8154 73.3115 73.761 73.3092 73.7065L73.2332 71.4355C73.2274 71.3236 73.1796 71.2181 73.0995 71.1399C73.0194 71.0618 72.9129 71.0169 72.8011 71.0141H70.0975Z" fill="#D5DADD"/>
<path d="M77.1514 71.0902C77.0969 71.0901 77.0431 71.1011 76.9931 71.1225C76.943 71.1439 76.8978 71.1752 76.8601 71.2146C76.8225 71.254 76.7931 71.3006 76.7739 71.3517C76.7548 71.4027 76.7461 71.4571 76.7485 71.5116L76.8244 73.7827C76.8318 73.8945 76.8809 73.9994 76.9621 74.0765C77.0433 74.1535 77.1505 74.197 77.2624 74.1982H79.9659C80.0198 74.1982 80.0732 74.1874 80.1228 74.1664C80.1725 74.1454 80.2175 74.1146 80.2551 74.0758C80.2926 74.0371 80.322 73.9912 80.3416 73.9408C80.3611 73.8904 80.3704 73.8367 80.3688 73.7827L80.2871 71.5116C80.2826 71.3993 80.2353 71.2929 80.1549 71.2145C80.0745 71.1361 79.9671 71.0916 79.855 71.0902H77.1514Z" fill="#D5DADD"/>
<path d="M86.8679 74.2099C86.9221 74.2107 86.9758 74.2005 87.0259 74.1797C87.0759 74.159 87.1212 74.1282 87.1589 74.0893C87.1966 74.0504 87.226 74.0041 87.2453 73.9534C87.2645 73.9027 87.2733 73.8485 87.2709 73.7943L87.195 71.5233C87.1905 71.4109 87.1431 71.3046 87.0627 71.2262C86.9823 71.1477 86.875 71.1032 86.7629 71.1018H84.0593C84.0046 71.1009 83.9503 71.1114 83.8999 71.1324C83.8494 71.1535 83.8039 71.1848 83.766 71.2244C83.7282 71.264 83.6989 71.3109 83.6801 71.3624C83.6612 71.4138 83.6531 71.4686 83.6563 71.5233L83.7322 73.7943C83.7382 73.9056 83.7861 74.0105 83.8664 74.0877C83.9466 74.1649 84.0531 74.2085 84.1643 74.2099H86.8679Z" fill="#D5DADD"/>
<path d="M93.5772 71.5116C93.5727 71.3992 93.5254 71.2929 93.445 71.2145C93.3646 71.1361 93.2572 71.0916 93.1451 71.0901H90.4415C90.3869 71.0892 90.3326 71.0997 90.2821 71.1208C90.2317 71.1418 90.1862 71.1732 90.1484 71.2127C90.1105 71.2523 90.0813 71.2992 90.0624 71.3507C90.0435 71.4021 90.0354 71.4569 90.0387 71.5116L90.1146 73.7826C90.1204 73.8945 90.1681 74 90.2482 74.0782C90.3283 74.1563 90.4349 74.2012 90.5467 74.204H93.2502C93.3046 74.2041 93.3585 74.1931 93.4085 74.1717C93.4586 74.1503 93.5038 74.119 93.5415 74.0796C93.5791 74.0402 93.6085 73.9936 93.6276 73.9426C93.6468 73.8915 93.6555 73.8371 93.6531 73.7826L93.5772 71.5116Z" fill="#D5DADD"/>
<path d="M52.3813 80.2271C52.4354 80.2263 52.4889 80.2148 52.5386 80.1931C52.5883 80.1715 52.6332 80.1401 52.6707 80.1009C52.7082 80.0617 52.7375 80.0154 52.757 79.9647C52.7765 79.914 52.7857 79.8599 52.7841 79.8056L52.7024 77.5346C52.6979 77.4223 52.6506 77.3159 52.5702 77.2375C52.4898 77.1591 52.3824 77.1146 52.2703 77.1132H49.5667C49.5125 77.1139 49.4591 77.1255 49.4094 77.1471C49.3597 77.1688 49.3148 77.2002 49.2773 77.2394C49.2398 77.2786 49.2104 77.3249 49.191 77.3756C49.1715 77.4263 49.1622 77.4803 49.1638 77.5346L49.2397 79.8056C49.2456 79.9185 49.2942 80.0249 49.3755 80.1032C49.4568 80.1815 49.5649 80.2257 49.6777 80.2271H52.3813Z" fill="#D5DADD"/>
<path d="M59.2833 80.2388C59.3377 80.2388 59.3916 80.2278 59.4417 80.2064C59.4917 80.1851 59.5369 80.1537 59.5746 80.1143C59.6122 80.075 59.6415 80.0283 59.6607 79.9773C59.6799 79.9262 59.6886 79.8718 59.6862 79.8173L59.6103 77.5463C59.6059 77.434 59.5585 77.3276 59.4781 77.2492C59.3977 77.1708 59.2904 77.1263 59.1782 77.1249H56.4746C56.4202 77.1248 56.3663 77.1358 56.3162 77.1572C56.2662 77.1786 56.2209 77.2099 56.1833 77.2493C56.1456 77.2887 56.1164 77.3353 56.0972 77.3863C56.078 77.4374 56.0693 77.4918 56.0717 77.5463L56.1476 79.8173C56.1534 79.9292 56.2012 80.0348 56.2813 80.1129C56.3614 80.191 56.468 80.236 56.5797 80.2388H59.2833Z" fill="#D5DADD"/>
<path d="M66.2787 80.2681C66.3329 80.2673 66.3864 80.2558 66.4361 80.2341C66.4858 80.2124 66.5307 80.1811 66.5682 80.1419C66.6057 80.1026 66.635 80.0564 66.6545 80.0057C66.674 79.955 66.6832 79.9009 66.6816 79.8466L66.5999 77.5756C66.5954 77.4633 66.5481 77.3569 66.4677 77.2785C66.3873 77.2001 66.28 77.1556 66.1678 77.1542H63.4642C63.4098 77.1541 63.3559 77.1651 63.3058 77.1865C63.2557 77.2079 63.2105 77.2392 63.1729 77.2786C63.1352 77.318 63.1059 77.3646 63.0868 77.4157C63.0676 77.4667 63.0589 77.5211 63.0612 77.5756L63.143 79.8466C63.1475 79.959 63.1948 80.0653 63.2752 80.1437C63.3556 80.2221 63.4629 80.2666 63.5751 80.2681H66.2787Z" fill="#D5DADD"/>
<path d="M73.1806 80.2798C73.2353 80.2798 73.2894 80.2688 73.3398 80.2475C73.3901 80.2262 73.4357 80.195 73.4739 80.1557C73.512 80.1164 73.5418 80.0698 73.5617 80.0187C73.5815 79.9677 73.5909 79.9131 73.5893 79.8584L73.5076 77.5873C73.5031 77.475 73.4558 77.3686 73.3754 77.2902C73.295 77.2118 73.1876 77.1673 73.0755 77.1659H70.3719C70.3172 77.165 70.263 77.1754 70.2125 77.1965C70.1621 77.2176 70.1165 77.2489 70.0787 77.2885C70.0409 77.328 70.0116 77.375 69.9927 77.4264C69.9739 77.4778 69.9658 77.5326 69.969 77.5873L70.0449 79.8584C70.0508 79.9702 70.0985 80.0758 70.1786 80.1539C70.2587 80.232 70.3653 80.277 70.477 80.2798H73.1806Z" fill="#D5DADD"/>
<path d="M80.2404 80.35C80.2943 80.35 80.3477 80.3392 80.3973 80.3182C80.447 80.2972 80.4919 80.2664 80.5295 80.2276C80.567 80.1889 80.5965 80.1429 80.616 80.0926C80.6356 80.0422 80.6448 79.9884 80.6432 79.9344L80.5615 77.6634C80.5585 77.5506 80.5116 77.4434 80.4309 77.3647C80.3502 77.286 80.2421 77.2419 80.1294 77.242H77.4259C77.3714 77.2419 77.3175 77.2529 77.2675 77.2743C77.2174 77.2957 77.1722 77.327 77.1345 77.3664C77.0969 77.4058 77.0676 77.4524 77.0484 77.5034C77.0292 77.5545 77.0205 77.6089 77.0229 77.6634L77.1047 79.9344C77.1092 80.0462 77.1567 80.152 77.2372 80.2294C77.3178 80.3069 77.4251 80.3501 77.5368 80.35H80.2404Z" fill="#D5DADD"/>
<path d="M84.3279 77.2537C84.2735 77.2536 84.2196 77.2646 84.1696 77.286C84.1195 77.3074 84.0743 77.3387 84.0366 77.3781C83.999 77.4175 83.9696 77.4641 83.9505 77.5151C83.9313 77.5662 83.9226 77.6206 83.925 77.6751L84.0008 79.9461C84.0082 80.058 84.0574 80.1629 84.1386 80.2399C84.2198 80.317 84.327 80.3605 84.4388 80.3617H87.1366C87.191 80.3625 87.2449 80.3523 87.2953 80.3316C87.3456 80.3109 87.3913 80.2803 87.4295 80.2414C87.4677 80.2026 87.4976 80.1564 87.5175 80.1057C87.5374 80.0549 87.5469 80.0006 87.5453 79.9461L87.4636 77.6751C87.4591 77.5627 87.4118 77.4564 87.3314 77.378C87.251 77.2996 87.1436 77.2551 87.0315 77.2537H84.3279Z" fill="#D5DADD"/>
<path d="M93.8518 77.6634C93.8473 77.5511 93.7999 77.4447 93.7195 77.3663C93.6391 77.2879 93.5318 77.2434 93.4196 77.242H90.716C90.6616 77.2419 90.6077 77.2529 90.5577 77.2743C90.5076 77.2957 90.4624 77.327 90.4247 77.3664C90.3871 77.4058 90.3578 77.4524 90.3386 77.5034C90.3195 77.5545 90.3108 77.6089 90.3131 77.6634L90.389 79.9344C90.3964 80.0463 90.4456 80.1512 90.5268 80.2282C90.6079 80.3053 90.7152 80.3488 90.827 80.35H93.5306C93.5845 80.35 93.6379 80.3392 93.6875 80.3182C93.7372 80.2972 93.7821 80.2664 93.8197 80.2276C93.8573 80.1889 93.8867 80.1429 93.9062 80.0926C93.9258 80.0422 93.935 79.9884 93.9335 79.9344L93.8518 77.6634Z" fill="#D5DADD"/>
<path d="M52.9885 83.464C52.9841 83.3517 52.9368 83.2453 52.8564 83.1669C52.776 83.0885 52.6686 83.044 52.5564 83.0426H49.8762C49.8218 83.0426 49.768 83.0535 49.7179 83.0749C49.6678 83.0963 49.6226 83.1277 49.585 83.167C49.5473 83.2064 49.518 83.253 49.4988 83.3041C49.4796 83.3551 49.471 83.4095 49.4733 83.464L49.5492 85.7351C49.5551 85.8479 49.6037 85.9543 49.685 86.0326C49.7664 86.1109 49.8744 86.1552 49.9871 86.1565H52.6907C52.7449 86.1557 52.7984 86.1442 52.8481 86.1225C52.8978 86.1009 52.9427 86.0695 52.9802 86.0303C53.0177 85.9911 53.047 85.9448 53.0665 85.8941C53.086 85.8434 53.0952 85.7894 53.0937 85.7351L52.9885 83.464Z" fill="#D5DADD"/>
<path d="M59.8964 83.4757C59.8905 83.3638 59.8428 83.2583 59.7626 83.1802C59.6825 83.102 59.576 83.0571 59.4643 83.0543H56.7607C56.7063 83.0542 56.6524 83.0652 56.6023 83.0866C56.5522 83.108 56.507 83.1393 56.4694 83.1787C56.4317 83.2181 56.4024 83.2647 56.3833 83.3158C56.3641 83.3668 56.3554 83.4212 56.3577 83.4757L56.4337 85.7467C56.4395 85.8586 56.4873 85.9642 56.5674 86.0423C56.6475 86.1204 56.754 86.1654 56.8658 86.1682H59.5693C59.6238 86.1682 59.6777 86.1572 59.7277 86.1358C59.7778 86.1145 59.823 86.0831 59.8607 86.0437C59.8983 86.0044 59.9276 85.9577 59.9468 85.9067C59.9659 85.8556 59.9746 85.8012 59.9723 85.7467L59.8964 83.4757Z" fill="#D5DADD"/>
<path d="M66.886 83.505C66.8815 83.3926 66.8341 83.2863 66.7537 83.2078C66.6733 83.1294 66.566 83.0849 66.4539 83.0835H63.7503C63.6958 83.0835 63.6419 83.0945 63.5919 83.1159C63.5418 83.1372 63.4967 83.1686 63.459 83.208C63.4213 83.2473 63.392 83.294 63.3728 83.345C63.3536 83.3961 63.3449 83.4505 63.3473 83.505L63.4291 85.776C63.4336 85.8878 63.4811 85.9935 63.5616 86.071C63.6422 86.1484 63.7495 86.1917 63.8612 86.1916H66.5648C66.6187 86.1916 66.6721 86.1808 66.7217 86.1597C66.7714 86.1387 66.8163 86.1079 66.8539 86.0692C66.8915 86.0304 66.9209 85.9845 66.9405 85.9341C66.96 85.8838 66.9693 85.83 66.9677 85.776L66.886 83.505Z" fill="#D5DADD"/>
<path d="M73.8172 83.5168C73.8127 83.4044 73.7653 83.298 73.6849 83.2196C73.6045 83.1412 73.4972 83.0967 73.3851 83.0953H70.6815C70.6268 83.0944 70.5725 83.1048 70.5221 83.1259C70.4716 83.147 70.426 83.1783 70.3882 83.2179C70.3504 83.2575 70.3211 83.3044 70.3023 83.3559C70.2834 83.4073 70.2753 83.4621 70.2785 83.5168L70.3544 85.7878C70.3604 85.8991 70.4083 86.004 70.4886 86.0812C70.5688 86.1583 70.6754 86.202 70.7866 86.2034H73.4901C73.5443 86.2042 73.598 86.1939 73.6481 86.1732C73.6981 86.1525 73.7434 86.1217 73.7812 86.0828C73.8189 86.0438 73.8483 85.9976 73.8676 85.9469C73.8868 85.8961 73.8955 85.842 73.8931 85.7878L73.8172 83.5168Z" fill="#D5DADD"/>
<path d="M80.8243 83.5868C80.8197 83.475 80.7722 83.3692 80.6917 83.2918C80.6111 83.2143 80.5038 83.1711 80.3922 83.1712H77.6886C77.6347 83.1712 77.5813 83.182 77.5317 83.203C77.482 83.224 77.4371 83.2548 77.3995 83.2936C77.362 83.3323 77.3325 83.3782 77.313 83.4286C77.2934 83.479 77.2841 83.5327 77.2857 83.5868L77.3674 85.8636C77.372 85.9754 77.4195 86.0812 77.5001 86.1586C77.5806 86.2361 77.6879 86.2793 77.7995 86.2792H80.5031C80.557 86.2792 80.6104 86.2684 80.66 86.2474C80.7097 86.2264 80.7546 86.1956 80.7922 86.1568C80.8298 86.1181 80.8593 86.0722 80.8788 86.0218C80.8983 85.9714 80.9076 85.9177 80.906 85.8636L80.8243 83.5868Z" fill="#D5DADD"/>
<path d="M87.4286 86.291C87.483 86.2918 87.5369 86.2815 87.5873 86.2609C87.6376 86.2402 87.6833 86.2095 87.7215 86.1707C87.7597 86.1318 87.7896 86.0857 87.8095 86.0349C87.8294 85.9842 87.8389 85.9299 87.8373 85.8754L87.7556 83.5985C87.7496 83.4872 87.7017 83.3823 87.6214 83.3051C87.5412 83.2279 87.4347 83.1842 87.3235 83.1829H84.6199C84.5657 83.1821 84.512 83.1923 84.4619 83.213C84.4119 83.2338 84.3667 83.2646 84.3289 83.3035C84.2912 83.3424 84.2618 83.3886 84.2425 83.4394C84.2233 83.4901 84.2146 83.5443 84.217 83.5985L84.2928 85.8754C84.2988 85.9867 84.3467 86.0916 84.427 86.1688C84.5072 86.2459 84.6138 86.2896 84.725 86.291H87.4286Z" fill="#D5DADD"/>
<path d="M91.0021 83.1712C90.9477 83.1711 90.8938 83.1821 90.8438 83.2035C90.7937 83.2249 90.7485 83.2562 90.7108 83.2956C90.6732 83.335 90.6439 83.3816 90.6247 83.4327C90.6055 83.4837 90.5968 83.5381 90.5992 83.5926L90.6751 85.8636C90.6825 85.9755 90.7316 86.0804 90.8128 86.1575C90.894 86.2345 91.0013 86.278 91.1131 86.2792H93.8167C93.8706 86.2792 93.924 86.2684 93.9736 86.2474C94.0233 86.2264 94.0682 86.1956 94.1058 86.1568C94.1433 86.1181 94.1728 86.0722 94.1923 86.0218C94.2118 85.9714 94.2211 85.9177 94.2195 85.8636L94.1378 83.5926C94.1334 83.4803 94.086 83.3739 94.0056 83.2955C93.9252 83.2171 93.8179 83.1726 93.7057 83.1712H91.0021Z" fill="#D5DADD"/>
<path d="M53.2571 89.4108C53.2527 89.2984 53.2053 89.1921 53.1249 89.1137C53.0445 89.0353 52.9372 88.9908 52.825 88.9893H50.1215C50.067 88.9893 50.0131 89.0003 49.9631 89.0217C49.913 89.0431 49.8678 89.0744 49.8301 89.1138C49.7925 89.1532 49.7632 89.1998 49.744 89.2508C49.7249 89.3019 49.7162 89.3563 49.7185 89.4108L49.7944 91.6818C49.8018 91.7937 49.851 91.8986 49.9321 91.9756C50.0133 92.0527 50.1206 92.0962 50.2324 92.0974H52.9359C52.9899 92.0974 53.0432 92.0866 53.0929 92.0656C53.1426 92.0446 53.1875 92.0137 53.2251 91.975C53.2626 91.9362 53.292 91.8903 53.3116 91.84C53.3311 91.7896 53.3405 91.7358 53.3389 91.6818L53.2571 89.4108Z" fill="#D5DADD"/>
<path d="M60.1649 89.4226C60.1604 89.3102 60.1131 89.2039 60.0327 89.1255C59.9523 89.0471 59.845 89.0026 59.7328 89.0012H57.0292C56.9746 89.0003 56.9203 89.0107 56.8699 89.0318C56.8194 89.0529 56.7739 89.0842 56.7361 89.1237C56.6982 89.1633 56.6689 89.2103 56.65 89.2617C56.6312 89.3131 56.6231 89.3679 56.6264 89.4226L56.7022 91.6936C56.7081 91.8049 56.7561 91.9098 56.8364 91.987C56.9166 92.0642 57.0232 92.1079 57.1344 92.1092H59.838C59.8921 92.11 59.9458 92.0998 59.9958 92.079C60.0459 92.0583 60.0912 92.0275 60.1289 91.9886C60.1667 91.9497 60.1961 91.9034 60.2153 91.8527C60.2346 91.802 60.2432 91.7478 60.2408 91.6936L60.1649 89.4226Z" fill="#D5DADD"/>
<path d="M67.1545 89.4518C67.15 89.3394 67.1027 89.2331 67.0223 89.1547C66.9419 89.0762 66.8345 89.0317 66.7224 89.0303H64.0188C63.9644 89.0303 63.9105 89.0413 63.8605 89.0627C63.8104 89.0841 63.7652 89.1154 63.7275 89.1548C63.6899 89.1941 63.6606 89.2408 63.6414 89.2918C63.6222 89.3429 63.6136 89.3973 63.6159 89.4518L63.6918 91.7228C63.6992 91.8346 63.7484 91.9396 63.8295 92.0166C63.9107 92.0937 64.018 92.1371 64.1298 92.1384H66.81C66.8639 92.1384 66.9173 92.1276 66.9669 92.1066C67.0166 92.0855 67.0615 92.0547 67.0991 92.016C67.1367 91.9772 67.1661 91.9313 67.1856 91.881C67.2052 91.8306 67.2144 91.7768 67.2129 91.7228L67.1545 89.4518Z" fill="#D5DADD"/>
<path d="M74.0625 89.4635C74.058 89.3511 74.0106 89.2448 73.9302 89.1664C73.8498 89.088 73.7425 89.0435 73.6304 89.0421H70.9268C70.8721 89.0412 70.8178 89.0516 70.7674 89.0727C70.7169 89.0938 70.6713 89.1251 70.6335 89.1646C70.5957 89.2042 70.5664 89.2512 70.5476 89.3026C70.5287 89.354 70.5206 89.4088 70.5238 89.4635L70.5997 91.7345C70.6057 91.8458 70.6536 91.9507 70.7339 92.0279C70.8141 92.1051 70.9206 92.1488 71.0318 92.1501H73.7354C73.7896 92.151 73.8433 92.1407 73.8934 92.12C73.9434 92.0992 73.9887 92.0684 74.0264 92.0295C74.0641 91.9906 74.0935 91.9444 74.1128 91.8936C74.132 91.8429 74.1408 91.7887 74.1384 91.7345L74.0625 89.4635Z" fill="#D5DADD"/>
<path d="M81.1163 89.5454C81.1118 89.4336 81.0643 89.3279 80.9837 89.2504C80.9032 89.1729 80.7958 89.1297 80.6842 89.1298H77.9806C77.9267 89.1298 77.8733 89.1406 77.8236 89.1616C77.774 89.1827 77.729 89.2135 77.6915 89.2522C77.6539 89.291 77.6245 89.3369 77.6049 89.3872C77.5854 89.4376 77.5761 89.4914 77.5776 89.5454L77.6594 91.8165C77.6624 91.9293 77.7093 92.0365 77.79 92.1152C77.8707 92.1939 77.9789 92.2379 78.0915 92.2379H80.8243C80.8788 92.2379 80.9326 92.2269 80.9826 92.2056C81.0327 92.1842 81.0779 92.1528 81.1156 92.1135C81.1532 92.0741 81.1826 92.0274 81.2018 91.9764C81.221 91.9254 81.2296 91.871 81.2272 91.8165L81.1163 89.5454Z" fill="#D5DADD"/>
<path d="M35.6201 49.16C35.5773 48.0449 36.4698 47.1175 37.5858 47.1175H103.717C104.789 47.1175 105.663 47.9754 105.684 49.0468L105.834 56.8612H35.9156L35.6201 49.16Z" fill="#FF7F4C"/>
<path d="M50.8395 52.6177H50.7753C50.489 52.6164 50.2143 52.5042 50.0086 52.3046C49.8029 52.105 49.6822 51.8334 49.6717 51.5466L49.6308 50.4111C49.422 50.5848 49.2564 50.8048 49.147 51.0537C49.0375 51.3025 48.9873 51.5735 49.0001 51.8451C49.0149 52.3299 49.2144 52.7905 49.5576 53.1324C49.9008 53.4742 50.3617 53.6713 50.8454 53.683C51.08 53.6794 51.3115 53.6285 51.5261 53.5334C51.7407 53.4383 51.9341 53.301 52.0948 53.1296C52.2554 52.9582 52.3801 52.7561 52.4614 52.5355C52.5427 52.3148 52.5789 52.0801 52.5679 51.8451C52.5568 51.5668 52.4851 51.2943 52.3581 51.0466C52.231 50.799 52.0515 50.5821 51.8322 50.4111L51.8731 51.5466C51.8786 51.6858 51.8559 51.8246 51.8064 51.9548C51.7568 52.0849 51.6815 52.2037 51.5849 52.3038C51.4883 52.4039 51.3724 52.4834 51.2442 52.5373C51.1161 52.5913 50.9785 52.6186 50.8395 52.6177Z" fill="#00144A"/>
<path d="M89.5831 52.5649H89.5189C89.2344 52.5608 88.9621 52.4485 88.7572 52.2507C88.5523 52.0529 88.4301 51.7844 88.4153 51.4996L88.3802 50.4343C88.176 50.6074 88.0141 50.8251 87.9068 51.0706C87.7995 51.3161 87.7497 51.583 87.7613 51.8508C87.7747 52.336 87.9737 52.7975 88.3172 53.1397C88.6607 53.4818 89.1224 53.6784 89.6065 53.6887C89.8436 53.689 90.0782 53.641 90.2963 53.5477C90.5143 53.4543 90.7112 53.3176 90.875 53.1458C91.0388 52.9739 91.1661 52.7706 91.2492 52.548C91.3322 52.3254 91.3694 52.0882 91.3583 51.8508C91.3462 51.5698 91.2731 51.2949 91.144 51.0452C91.0149 50.7954 90.8329 50.577 90.6109 50.4051L90.6459 51.4996C90.6516 51.6411 90.6281 51.7822 90.5767 51.914C90.5253 52.0459 90.4473 52.1657 90.3474 52.2658C90.2475 52.3659 90.1281 52.4441 89.9966 52.4956C89.865 52.5471 89.7242 52.5707 89.5831 52.5649Z" fill="#00144A"/>
<path d="M49.6717 51.5465C49.6823 51.8333 49.803 52.1049 50.0087 52.3045C50.2144 52.5041 50.4891 52.6163 50.7754 52.6177H50.8396C50.9786 52.6186 51.1162 52.5912 51.2443 52.5372C51.3725 52.4833 51.4884 52.4038 51.585 52.3037C51.6816 52.2036 51.7569 52.0849 51.8065 51.9547C51.856 51.8246 51.8787 51.6857 51.8732 51.5465L51.8323 50.411L51.7155 47.0981L51.5987 43.7384C51.5881 43.4516 51.4674 43.18 51.2617 42.9804C51.0561 42.7807 50.7814 42.6685 50.4951 42.6672H50.46C50.3211 42.6663 50.1834 42.6937 50.0552 42.7476C49.9271 42.8016 49.8113 42.881 49.7147 42.9812C49.618 43.0813 49.5427 43.2 49.4932 43.3302C49.4437 43.4603 49.4209 43.5992 49.4265 43.7384L49.5433 47.0981L49.6601 50.411L49.6717 51.5465Z" fill="#D5DADD"/>
<path d="M88.4153 51.4997C88.4272 51.7875 88.549 52.0598 88.7555 52.2602C88.962 52.4606 89.2374 52.5739 89.5248 52.5767H89.589C89.7282 52.5776 89.8661 52.5501 89.9944 52.4957C90.1226 52.4413 90.2384 52.3613 90.3346 52.2604C90.4309 52.1596 90.5055 52.0401 90.554 51.9093C90.6025 51.7784 90.6239 51.6391 90.6167 51.4997L90.5816 50.4051L90.4649 47.1098L90.3481 43.6915C90.3361 43.4042 90.2141 43.1326 90.0075 42.9331C89.8008 42.7337 89.5255 42.6217 89.2386 42.6204H89.1744C89.0357 42.6195 88.8982 42.6468 88.7704 42.7009C88.6426 42.7549 88.5271 42.8344 88.431 42.9346C88.3348 43.0349 88.26 43.1537 88.2111 43.2838C88.1623 43.4139 88.1404 43.5526 88.1467 43.6915L88.2635 47.1098L88.3802 50.4344L88.4153 51.4997Z" fill="#D5DADD"/>
</svg>
