<svg width="128" height="128" viewBox="0 0 128 128" fill="none" xmlns="http://www.w3.org/2000/svg">
<mask id="mask0_2672_44784" style="mask-type:alpha" maskUnits="userSpaceOnUse" x="0" y="0" width="128" height="128">
<circle cx="64" cy="64" r="64" fill="#EBF8FF"/>
</mask>
<g mask="url(#mask0_2672_44784)">
<path d="M161.455 -4.58984H-29.4141C-30.6583 -4.59099 -31.8904 -4.34693 -33.0402 -3.87162C-34.1899 -3.39631 -35.2347 -2.69906 -36.1148 -1.81974C-36.995 -0.940419 -37.6932 0.103735 -38.1696 1.25305C-38.6459 2.40236 -38.8911 3.63429 -38.8911 4.87841V117.072C-38.8911 119.586 -37.8927 121.996 -36.1154 123.774C-34.3381 125.551 -31.9276 126.549 -29.4141 126.549H161.455C163.968 126.549 166.378 125.551 168.156 123.774C169.933 121.996 170.932 119.586 170.932 117.072V4.87841C170.932 3.63429 170.686 2.40236 170.21 1.25305C169.734 0.103735 169.035 -0.940419 168.155 -1.81974C167.275 -2.69906 166.23 -3.39631 165.081 -3.87162C163.931 -4.34693 162.699 -4.59099 161.455 -4.58984Z" fill="#EBF8FF"/>
<path d="M6.79893 48.0793C6.99286 47.8472 7.24578 47.6717 7.53107 47.5712C7.81636 47.4707 8.12346 47.4489 8.42006 47.5082L15.5116 48.7349C16.6846 48.9372 17.1481 50.0153 16.9893 50.9346C16.9381 51.3132 16.7653 51.665 16.497 51.937C16.2286 52.2089 15.8793 52.3865 15.5014 52.4429C15.318 52.4648 15.1323 52.4587 14.9507 52.425L7.8592 51.1984C7.54698 51.151 7.25338 51.02 7.00947 50.8194C6.76557 50.6188 6.58045 50.356 6.47368 50.0588C6.35484 49.7285 6.32233 49.3733 6.37925 49.0268C6.43617 48.6804 6.58063 48.3543 6.79893 48.0793Z" fill="#A9B4BE"/>
<path d="M33.7539 19.754C33.9588 19.6842 34.176 19.6579 34.3916 19.6768C34.6073 19.6957 34.8166 19.7594 35.0063 19.8637C35.1959 19.9681 35.3618 20.1108 35.4932 20.2828C35.6245 20.4549 35.7186 20.6524 35.7694 20.8628L37.7235 27.5952C37.7929 27.8375 37.8134 28.0912 37.7837 28.3415C37.754 28.5918 37.6747 28.8337 37.5505 29.053C37.4263 29.2723 37.2596 29.4647 37.0602 29.6189C36.8608 29.7731 36.6327 29.8861 36.3892 29.9512C36.2895 29.9808 36.1876 30.0022 36.0844 30.0152C35.7039 30.0686 35.3172 29.9775 35.0005 29.76C34.6838 29.5424 34.4602 29.2141 34.3736 28.8398L32.4221 22.1099C32.3523 21.8678 32.3314 21.6142 32.3608 21.3639C32.3902 21.1136 32.4692 20.8717 32.5932 20.6523C32.7172 20.4329 32.8837 20.2405 33.083 20.0862C33.2823 19.932 33.5104 19.819 33.7539 19.754Z" fill="#A9B4BE"/>
<path d="M16.3287 28.8704C16.5647 28.855 16.8013 28.888 17.0241 28.9673C17.2469 29.0465 17.4512 29.1704 17.6246 29.3313L25.4716 36.4709C25.8217 36.793 26.0337 37.2381 26.0633 37.713C26.0929 38.1878 25.9378 38.6557 25.6304 39.0189C25.3438 39.3545 24.9416 39.5702 24.5035 39.6232C24.2509 39.6534 23.9948 39.6287 23.7526 39.5509C23.5104 39.4732 23.2878 39.3441 23.1 39.1725L15.253 32.033C14.9007 31.7093 14.6876 31.2616 14.6584 30.7841C14.6293 30.3065 14.7864 29.8363 15.0968 29.4721C15.251 29.2941 15.4396 29.1489 15.6513 29.0455C15.863 28.9421 16.0934 28.8825 16.3287 28.8704Z" fill="#A9B4BE"/>
</g>
<path fill-rule="evenodd" clip-rule="evenodd" d="M33.8842 50.8647C33.1402 50.8647 32.5452 51.483 32.5737 52.2264L32.8954 60.6085H32.8954L32.8954 60.6085L34.5291 104.782C34.5352 104.994 34.6236 105.194 34.7753 105.341C34.9271 105.487 35.1301 105.568 35.3408 105.567H103.497C103.606 105.567 103.714 105.545 103.814 105.502C103.915 105.459 104.005 105.397 104.081 105.318C104.157 105.24 104.216 105.146 104.255 105.044C104.294 104.942 104.312 104.833 104.308 104.724L102.813 60.6085L102.651 52.151C102.637 51.4367 102.054 50.8647 101.34 50.8647H33.8842Z" fill="#9EDDFF"/>
<path d="M35.916 56.8608H105.834L107.329 100.976C107.333 101.086 107.315 101.195 107.276 101.297C107.237 101.399 107.178 101.492 107.102 101.571C107.026 101.649 106.935 101.712 106.835 101.755C106.734 101.797 106.626 101.819 106.517 101.819H38.3615C38.1507 101.821 37.9477 101.74 37.796 101.593C37.6443 101.446 37.5559 101.246 37.5498 101.035L35.916 56.8608Z" fill="#0070F2"/>
<path d="M44.1912 67.5892C44.1641 66.8467 44.7587 66.23 45.5017 66.23H96.7178C97.4234 66.23 98.0026 66.7884 98.0283 67.4935L99.0543 95.601C99.0814 96.3435 98.4868 96.9602 97.7437 96.9602H46.5277C45.822 96.9602 45.2429 96.4018 45.2172 95.6967L44.1912 67.5892Z" fill="white"/>
<path d="M45.643 63.1241H66.1622C66.3063 63.1251 66.449 63.0966 66.5818 63.0405C66.7146 62.9845 66.8346 62.9019 66.9346 62.7979C67.0345 62.6939 67.1123 62.5706 67.1632 62.4355C67.2142 62.3004 67.2371 62.1563 67.2308 62.012C67.2158 61.7118 67.0862 61.4289 66.8688 61.2218C66.6514 61.0148 66.3628 60.8995 66.0629 60.8999H45.5496C45.4055 60.899 45.2628 60.9274 45.13 60.9835C44.9972 61.0396 44.8772 61.1222 44.7772 61.2262C44.6773 61.3302 44.5995 61.4535 44.5486 61.5886C44.4977 61.7237 44.4747 61.8677 44.481 62.012C44.496 62.3112 44.6247 62.5933 44.8409 62.8002C45.0571 63.0071 45.3442 63.123 45.643 63.1241Z" fill="white"/>
<path d="M49.2924 70.9673C49.2383 70.9665 49.1845 70.9767 49.1345 70.9975C49.0844 71.0182 49.0392 71.049 49.0015 71.0879C48.9637 71.1268 48.9343 71.1731 48.9151 71.2238C48.8958 71.2745 48.8872 71.3287 48.8895 71.3829L48.9654 73.6539C48.9699 73.7663 49.0172 73.8726 49.0976 73.9511C49.178 74.0295 49.2854 74.074 49.3976 74.0754H52.1011C52.1558 74.0763 52.21 74.0659 52.2605 74.0448C52.3109 74.0237 52.3565 73.9924 52.3943 73.9528C52.4321 73.9132 52.4614 73.8663 52.4803 73.8149C52.4992 73.7634 52.5072 73.7086 52.504 73.6539L52.4281 71.3829C52.4222 71.2716 52.3742 71.1667 52.294 71.0895C52.2137 71.0123 52.1072 70.9687 51.996 70.9673H49.2924Z" fill="#D5DADD"/>
<path d="M56.2004 70.979C56.146 70.9782 56.092 70.9885 56.0417 71.0091C55.9913 71.0298 55.9457 71.0605 55.9075 71.0993C55.8693 71.1382 55.8394 71.1843 55.8195 71.2351C55.7996 71.2858 55.7901 71.3401 55.7917 71.3946L55.8734 73.6657C55.8779 73.778 55.9252 73.8844 56.0056 73.9628C56.086 74.0412 56.1934 74.0857 56.3055 74.0871H59.0091C59.0635 74.0871 59.1173 74.0761 59.1674 74.0548C59.2175 74.0334 59.2627 74.002 59.3003 73.9627C59.338 73.9233 59.3673 73.8767 59.3865 73.8256C59.4057 73.7746 59.4143 73.7202 59.412 73.6657L59.336 71.3946C59.3287 71.2828 59.2795 71.1779 59.1983 71.1008C59.1171 71.0238 59.0099 70.9803 58.8981 70.979H56.2004Z" fill="#D5DADD"/>
<path d="M63.1899 71.0024C63.1355 71.0024 63.0816 71.0134 63.0316 71.0348C62.9815 71.0562 62.9363 71.0875 62.8986 71.1269C62.861 71.1663 62.8317 71.2129 62.8125 71.2639C62.7933 71.315 62.7846 71.3694 62.787 71.4239L62.8629 73.6949C62.8688 73.8068 62.9165 73.9124 62.9966 73.9905C63.0767 74.0686 63.1833 74.1136 63.295 74.1164H65.9986C66.0533 74.1164 66.1074 74.1054 66.1578 74.0841C66.2081 74.0628 66.2537 74.0315 66.2918 73.9922C66.3299 73.9529 66.3598 73.9064 66.3796 73.8553C66.3995 73.8042 66.4089 73.7497 66.4074 73.6949L66.3256 71.4239C66.3211 71.3115 66.2738 71.2052 66.1934 71.1268C66.113 71.0484 66.0057 71.0039 65.8935 71.0024H63.1899Z" fill="#D5DADD"/>
<path d="M70.0979 71.0142C70.0432 71.0141 69.9891 71.0251 69.9387 71.0464C69.8883 71.0678 69.8427 71.099 69.8046 71.1383C69.7665 71.1776 69.7366 71.2241 69.7168 71.2752C69.6969 71.3263 69.6876 71.3808 69.6891 71.4356L69.7708 73.7066C69.7753 73.819 69.8226 73.9253 69.903 74.0037C69.9834 74.0821 70.0908 74.1266 70.203 74.1281H72.9065C72.9609 74.1281 73.0148 74.1171 73.0649 74.0957C73.115 74.0743 73.1602 74.043 73.1978 74.0036C73.2355 73.9642 73.2648 73.9176 73.2839 73.8666C73.3031 73.8155 73.3118 73.7611 73.3095 73.7066L73.2336 71.4356C73.2277 71.3237 73.1799 71.2182 73.0998 71.14C73.0197 71.0619 72.9132 71.017 72.8015 71.0142H70.0979Z" fill="#D5DADD"/>
<path d="M77.1513 71.0903C77.0969 71.0903 77.0431 71.1013 76.993 71.1227C76.9429 71.144 76.8977 71.1754 76.8601 71.2148C76.8224 71.2541 76.7931 71.3008 76.7739 71.3518C76.7547 71.4028 76.7461 71.4573 76.7484 71.5118L76.8243 73.7828C76.8317 73.8946 76.8809 73.9996 76.9621 74.0766C77.0433 74.1537 77.1505 74.1971 77.2623 74.1984H79.9659C80.0198 74.1984 80.0731 74.1876 80.1228 74.1665C80.1724 74.1455 80.2174 74.1147 80.255 74.076C80.2926 74.0372 80.322 73.9913 80.3415 73.941C80.3611 73.8906 80.3703 73.8368 80.3688 73.7828L80.287 71.5118C80.2825 71.3994 80.2352 71.2931 80.1548 71.2147C80.0744 71.1362 79.9671 71.0917 79.8549 71.0903H77.1513Z" fill="#D5DADD"/>
<path d="M86.8681 74.2097C86.9222 74.2105 86.976 74.2003 87.026 74.1795C87.0761 74.1588 87.1213 74.128 87.159 74.0891C87.1968 74.0502 87.2262 74.0039 87.2454 73.9532C87.2647 73.9025 87.2734 73.8483 87.271 73.7941L87.1951 71.523C87.1906 71.4107 87.1433 71.3044 87.0629 71.2259C86.9825 71.1475 86.8752 71.103 86.763 71.1016H84.0594C84.0047 71.1007 83.9505 71.1111 83.9 71.1322C83.8496 71.1533 83.804 71.1846 83.7662 71.2242C83.7283 71.2638 83.6991 71.3107 83.6802 71.3621C83.6613 71.4136 83.6532 71.4683 83.6565 71.523L83.7324 73.7941C83.7383 73.9054 83.7863 74.0103 83.8665 74.0875C83.9468 74.1647 84.0533 74.2083 84.1645 74.2097H86.8681Z" fill="#D5DADD"/>
<path d="M93.5773 71.5113C93.5728 71.399 93.5255 71.2926 93.4451 71.2142C93.3647 71.1358 93.2574 71.0913 93.1452 71.0899H90.4416C90.387 71.089 90.3327 71.0994 90.2823 71.1205C90.2318 71.1416 90.1863 71.1729 90.1485 71.2125C90.1107 71.252 90.0814 71.299 90.0625 71.3504C90.0436 71.4018 90.0356 71.4566 90.0388 71.5113L90.1147 73.7824C90.1205 73.8943 90.1682 73.9998 90.2483 74.0779C90.3284 74.1561 90.4351 74.201 90.5468 74.2038H93.2503C93.3048 74.2039 93.3586 74.1929 93.4087 74.1715C93.4587 74.1501 93.5039 74.1188 93.5416 74.0794C93.5792 74.04 93.6086 73.9934 93.6278 73.9423C93.6469 73.8913 93.6556 73.8369 93.6532 73.7824L93.5773 71.5113Z" fill="#D5DADD"/>
<path d="M52.3812 80.2267C52.4354 80.2259 52.4888 80.2144 52.5385 80.1927C52.5882 80.1711 52.6331 80.1397 52.6706 80.1005C52.7081 80.0613 52.7374 80.015 52.7569 79.9643C52.7764 79.9136 52.7856 79.8595 52.7841 79.8052L52.7023 77.5342C52.6978 77.4219 52.6506 77.3155 52.5702 77.2371C52.4898 77.1587 52.3824 77.1142 52.2702 77.1128H49.5666C49.5124 77.1135 49.459 77.1251 49.4093 77.1467C49.3596 77.1684 49.3147 77.1998 49.2772 77.239C49.2397 77.2782 49.2104 77.3245 49.1909 77.3752C49.1714 77.4259 49.1622 77.4799 49.1637 77.5342L49.2397 79.8052C49.2456 79.9181 49.2941 80.0245 49.3754 80.1028C49.4568 80.1811 49.5649 80.2253 49.6776 80.2267H52.3812Z" fill="#D5DADD"/>
<path d="M59.2833 80.2389C59.3377 80.2389 59.3916 80.2279 59.4417 80.2066C59.4917 80.1852 59.5369 80.1538 59.5746 80.1145C59.6122 80.0751 59.6415 80.0284 59.6607 79.9774C59.6799 79.9264 59.6886 79.872 59.6862 79.8175L59.6103 77.5464C59.6059 77.4341 59.5585 77.3277 59.4781 77.2493C59.3977 77.1709 59.2904 77.1264 59.1782 77.125H56.4746C56.4202 77.1249 56.3663 77.1359 56.3162 77.1573C56.2662 77.1787 56.2209 77.21 56.1833 77.2494C56.1456 77.2888 56.1164 77.3354 56.0972 77.3865C56.078 77.4375 56.0693 77.4919 56.0717 77.5464L56.1476 79.8175C56.1534 79.9293 56.2012 80.0349 56.2813 80.113C56.3614 80.1911 56.468 80.2361 56.5797 80.2389H59.2833Z" fill="#D5DADD"/>
<path d="M66.2789 80.2682C66.3331 80.2674 66.3866 80.2559 66.4363 80.2342C66.486 80.2126 66.5309 80.1812 66.5684 80.142C66.6058 80.1028 66.6352 80.0565 66.6547 80.0058C66.6742 79.9551 66.6834 79.901 66.6818 79.8468L66.6001 77.5757C66.5956 77.4634 66.5482 77.357 66.4678 77.2786C66.3874 77.2002 66.2801 77.1557 66.168 77.1543H63.4644C63.4099 77.1542 63.356 77.1653 63.306 77.1866C63.2559 77.208 63.2107 77.2393 63.173 77.2787C63.1354 77.3181 63.1061 77.3647 63.0869 77.4158C63.0677 77.4668 63.059 77.5212 63.0614 77.5757L63.1432 79.8468C63.1477 79.9591 63.195 80.0654 63.2754 80.1439C63.3558 80.2223 63.4631 80.2668 63.5753 80.2682H66.2789Z" fill="#D5DADD"/>
<path d="M73.181 80.2795C73.2357 80.2795 73.2898 80.2685 73.3402 80.2472C73.3906 80.2259 73.4362 80.1947 73.4743 80.1554C73.5124 80.1161 73.5423 80.0695 73.5621 80.0184C73.5819 79.9674 73.5913 79.9128 73.5898 79.8581L73.508 77.587C73.5035 77.4747 73.4562 77.3683 73.3758 77.2899C73.2954 77.2115 73.1881 77.167 73.0759 77.1656H70.3723C70.3177 77.1647 70.2634 77.1751 70.2129 77.1962C70.1625 77.2173 70.117 77.2486 70.0791 77.2882C70.0413 77.3277 70.0121 77.3747 69.9932 77.4261C69.9743 77.4775 69.9662 77.5323 69.9694 77.587L70.0454 79.8581C70.0512 79.9699 70.0989 80.0755 70.179 80.1536C70.2591 80.2317 70.3657 80.2767 70.4775 80.2795H73.181Z" fill="#D5DADD"/>
<path d="M80.2403 80.3497C80.2942 80.3498 80.3476 80.3389 80.3973 80.3179C80.4469 80.2969 80.4918 80.2661 80.5294 80.2273C80.567 80.1886 80.5964 80.1427 80.6159 80.0923C80.6355 80.0419 80.6447 79.9882 80.6432 79.9342L80.5615 77.6631C80.5584 77.5503 80.5115 77.4431 80.4308 77.3644C80.3501 77.2857 80.242 77.2417 80.1294 77.2417H77.4258C77.3714 77.2416 77.3175 77.2526 77.2674 77.274C77.2173 77.2954 77.1721 77.3267 77.1345 77.3661C77.0968 77.4055 77.0675 77.4521 77.0484 77.5032C77.0292 77.5542 77.0205 77.6086 77.0228 77.6631L77.1046 79.9342C77.1091 80.046 77.1566 80.1517 77.2372 80.2292C77.3177 80.3066 77.4251 80.3498 77.5367 80.3497H80.2403Z" fill="#D5DADD"/>
<path d="M84.3281 77.2534C84.2736 77.2534 84.2198 77.2644 84.1697 77.2857C84.1197 77.3071 84.0745 77.3385 84.0368 77.3778C83.9992 77.4172 83.9698 77.4638 83.9506 77.5149C83.9314 77.5659 83.9228 77.6204 83.9252 77.6748L84.001 79.9459C84.0084 80.0577 84.0576 80.1626 84.1388 80.2397C84.22 80.3167 84.3272 80.3602 84.439 80.3615H87.1368C87.1912 80.3623 87.2451 80.352 87.2955 80.3314C87.3458 80.3107 87.3915 80.28 87.4297 80.2412C87.4679 80.2024 87.4978 80.1562 87.5177 80.1054C87.5376 80.0547 87.5471 80.0004 87.5455 79.9459L87.4638 77.6748C87.4593 77.5625 87.4119 77.4562 87.3315 77.3777C87.2511 77.2993 87.1438 77.2548 87.0317 77.2534H84.3281Z" fill="#D5DADD"/>
<path d="M93.852 77.6631C93.8475 77.5508 93.8002 77.4444 93.7198 77.366C93.6394 77.2876 93.532 77.2431 93.4198 77.2417H90.7162C90.6618 77.2416 90.608 77.2526 90.5579 77.274C90.5079 77.2954 90.4626 77.3267 90.425 77.3661C90.3873 77.4055 90.3581 77.4521 90.3389 77.5032C90.3197 77.5542 90.311 77.6086 90.3134 77.6631L90.3893 79.9342C90.3966 80.046 90.4458 80.1509 90.527 80.228C90.6082 80.305 90.7154 80.3485 90.8272 80.3497H93.5308C93.5847 80.3498 93.6381 80.3389 93.6878 80.3179C93.7374 80.2969 93.7824 80.2661 93.8199 80.2273C93.8575 80.1886 93.8869 80.1427 93.9065 80.0923C93.926 80.0419 93.9353 79.9882 93.9337 79.9342L93.852 77.6631Z" fill="#D5DADD"/>
<path d="M52.9887 83.4639C52.9842 83.3515 52.937 83.2452 52.8566 83.1668C52.7762 83.0884 52.6688 83.0439 52.5566 83.0425H49.8764C49.822 83.0424 49.7682 83.0534 49.7181 83.0748C49.668 83.0962 49.6228 83.1275 49.5852 83.1669C49.5475 83.2063 49.5182 83.2529 49.499 83.304C49.4798 83.355 49.4712 83.4094 49.4735 83.4639L49.5494 85.7349C49.5553 85.8478 49.6039 85.9542 49.6852 86.0325C49.7666 86.1107 49.8746 86.155 49.9873 86.1564H52.6909C52.7451 86.1556 52.7986 86.1441 52.8483 86.1224C52.898 86.1007 52.9429 86.0694 52.9804 86.0302C53.0179 85.991 53.0472 85.9447 53.0667 85.894C53.0862 85.8433 53.0954 85.7892 53.0939 85.7349L52.9887 83.4639Z" fill="#D5DADD"/>
<path d="M59.8964 83.4756C59.8906 83.3637 59.8428 83.2582 59.7627 83.1801C59.6826 83.1019 59.5761 83.057 59.4643 83.0542H56.7607C56.7063 83.0541 56.6524 83.0651 56.6024 83.0865C56.5523 83.1079 56.5071 83.1392 56.4694 83.1786C56.4318 83.218 56.4025 83.2646 56.3833 83.3157C56.3641 83.3667 56.3554 83.4211 56.3578 83.4756L56.4337 85.7467C56.4396 85.8585 56.4873 85.9641 56.5674 86.0422C56.6475 86.1203 56.7541 86.1653 56.8658 86.1681H59.5694C59.6238 86.1681 59.6777 86.1571 59.7278 86.1358C59.7778 86.1144 59.8231 86.083 59.8607 86.0437C59.8984 86.0043 59.9276 85.9576 59.9468 85.9066C59.966 85.8555 59.9747 85.8011 59.9723 85.7467L59.8964 83.4756Z" fill="#D5DADD"/>
<path d="M66.8862 83.5049C66.8817 83.3926 66.8344 83.2862 66.754 83.2078C66.6736 83.1294 66.5663 83.0849 66.4541 83.0835H63.7505C63.6961 83.0834 63.6422 83.0944 63.5921 83.1158C63.5421 83.1372 63.4969 83.1685 63.4592 83.2079C63.4216 83.2473 63.3923 83.2939 63.3731 83.345C63.3539 83.396 63.3452 83.4504 63.3475 83.5049L63.4293 85.776C63.4338 85.8878 63.4813 85.9935 63.5619 86.0709C63.6424 86.1484 63.7498 86.1916 63.8614 86.1915H66.565C66.6189 86.1916 66.6723 86.1807 66.722 86.1597C66.7716 86.1387 66.8166 86.1079 66.8541 86.0691C66.8917 86.0304 66.9212 85.9845 66.9407 85.9341C66.9603 85.8838 66.9695 85.83 66.968 85.776L66.8862 83.5049Z" fill="#D5DADD"/>
<path d="M73.8172 83.5167C73.8127 83.4043 73.7653 83.298 73.6849 83.2196C73.6045 83.1412 73.4972 83.0967 73.3851 83.0953H70.6815C70.6268 83.0944 70.5725 83.1048 70.5221 83.1259C70.4716 83.147 70.426 83.1783 70.3882 83.2178C70.3504 83.2574 70.3211 83.3044 70.3023 83.3558C70.2834 83.4072 70.2753 83.462 70.2785 83.5167L70.3544 85.7877C70.3604 85.899 70.4083 86.0039 70.4886 86.0811C70.5688 86.1583 70.6754 86.202 70.7866 86.2033H73.4901C73.5443 86.2041 73.598 86.1939 73.6481 86.1731C73.6981 86.1524 73.7434 86.1216 73.7812 86.0827C73.8189 86.0438 73.8483 85.9975 73.8676 85.9468C73.8868 85.8961 73.8955 85.8419 73.8931 85.7877L73.8172 83.5167Z" fill="#D5DADD"/>
<path d="M80.8244 83.5865C80.8199 83.4747 80.7724 83.369 80.6918 83.2915C80.6113 83.214 80.5039 83.1708 80.3923 83.1709H77.6888C77.6348 83.1709 77.5815 83.1817 77.5318 83.2027C77.4821 83.2238 77.4372 83.2546 77.3996 83.2933C77.3621 83.3321 77.3327 83.378 77.3131 83.4283C77.2936 83.4787 77.2843 83.5325 77.2858 83.5865L77.3676 85.8634C77.3721 85.9752 77.4197 86.0809 77.5002 86.1583C77.5808 86.2358 77.688 86.279 77.7997 86.2789H80.5032C80.5571 86.279 80.6105 86.2681 80.6602 86.2471C80.7098 86.2261 80.7547 86.1953 80.7923 86.1565C80.8299 86.1178 80.8594 86.0719 80.8789 86.0215C80.8985 85.9712 80.9077 85.9174 80.9061 85.8634L80.8244 83.5865Z" fill="#D5DADD"/>
<path d="M87.4288 86.2907C87.4832 86.2915 87.5371 86.2813 87.5875 86.2606C87.6378 86.2399 87.6835 86.2093 87.7217 86.1704C87.7599 86.1316 87.7898 86.0854 87.8097 86.0347C87.8296 85.9839 87.8391 85.9296 87.8375 85.8751L87.7557 83.5982C87.7498 83.4869 87.7018 83.382 87.6216 83.3048C87.5414 83.2277 87.4348 83.184 87.3236 83.1827H84.6201C84.5659 83.1818 84.5121 83.1921 84.4621 83.2128C84.4121 83.2335 84.3668 83.2643 84.3291 83.3032C84.2914 83.3422 84.262 83.3884 84.2427 83.4391C84.2235 83.4899 84.2148 83.544 84.2172 83.5982L84.293 85.8751C84.299 85.9865 84.3469 86.0913 84.4272 86.1685C84.5074 86.2457 84.614 86.2894 84.7252 86.2907H87.4288Z" fill="#D5DADD"/>
<path d="M91.0024 83.1709C90.948 83.1708 90.8941 83.1819 90.8441 83.2032C90.794 83.2246 90.7488 83.2559 90.7111 83.2953C90.6735 83.3347 90.6442 83.3813 90.625 83.4324C90.6058 83.4834 90.5971 83.5378 90.5995 83.5923L90.6754 85.8634C90.6828 85.9752 90.7319 86.0801 90.8131 86.1572C90.8943 86.2342 91.0016 86.2777 91.1134 86.2789H93.817C93.8709 86.279 93.9243 86.2681 93.9739 86.2471C94.0236 86.2261 94.0685 86.1953 94.1061 86.1565C94.1436 86.1178 94.1731 86.0719 94.1926 86.0215C94.2121 85.9712 94.2214 85.9174 94.2198 85.8634L94.1381 83.5923C94.1337 83.48 94.0863 83.3736 94.0059 83.2952C93.9255 83.2168 93.8182 83.1723 93.706 83.1709H91.0024Z" fill="#D5DADD"/>
<path d="M53.2573 89.4107C53.2528 89.2983 53.2054 89.192 53.125 89.1136C53.0446 89.0352 52.9373 88.9907 52.8252 88.9893H50.1216C50.0672 88.9892 50.0133 89.0002 49.9632 89.0216C49.9131 89.043 49.8679 89.0743 49.8303 89.1137C49.7926 89.1531 49.7633 89.1997 49.7442 89.2507C49.725 89.3018 49.7163 89.3562 49.7186 89.4107L49.7946 91.6817C49.8019 91.7936 49.8511 91.8985 49.9323 91.9755C50.0135 92.0526 50.1207 92.0961 50.2325 92.0973H52.9361C52.99 92.0973 53.0434 92.0865 53.093 92.0655C53.1427 92.0445 53.1876 92.0137 53.2252 91.9749C53.2628 91.9362 53.2922 91.8902 53.3117 91.8399C53.3313 91.7895 53.3406 91.7357 53.339 91.6817L53.2573 89.4107Z" fill="#D5DADD"/>
<path d="M60.1652 89.4225C60.1607 89.3101 60.1134 89.2038 60.033 89.1254C59.9526 89.0469 59.8453 89.0024 59.7331 89.001H57.0295C56.9749 89.0001 56.9206 89.0106 56.8702 89.0316C56.8197 89.0527 56.7742 89.084 56.7364 89.1236C56.6985 89.1632 56.6692 89.2101 56.6503 89.2616C56.6315 89.313 56.6234 89.3678 56.6267 89.4225L56.7025 91.6935C56.7084 91.8048 56.7564 91.9097 56.8367 91.9869C56.9169 92.064 57.0235 92.1077 57.1347 92.1091H59.8383C59.8924 92.1099 59.9461 92.0996 59.9961 92.0789C60.0462 92.0582 60.0915 92.0274 60.1292 91.9885C60.167 91.9496 60.1964 91.9033 60.2156 91.8526C60.2349 91.8018 60.2435 91.7477 60.2411 91.6935L60.1652 89.4225Z" fill="#D5DADD"/>
<path d="M67.1547 89.4517C67.1502 89.3394 67.1029 89.233 67.0225 89.1546C66.9421 89.0762 66.8347 89.0317 66.7226 89.0303H64.019C63.9646 89.0302 63.9107 89.0412 63.8607 89.0626C63.8106 89.084 63.7654 89.1153 63.7277 89.1547C63.6901 89.1941 63.6607 89.2407 63.6416 89.2917C63.6224 89.3428 63.6137 89.3972 63.6161 89.4517L63.692 91.7227C63.6994 91.8346 63.7485 91.9395 63.8297 92.0166C63.9109 92.0936 64.0182 92.1371 64.13 92.1383H66.8102C66.8641 92.1383 66.9175 92.1275 66.9671 92.1065C67.0168 92.0855 67.0617 92.0547 67.0993 92.0159C67.1368 91.9772 67.1663 91.9313 67.1858 91.8809C67.2054 91.8305 67.2146 91.7768 67.213 91.7227L67.1547 89.4517Z" fill="#D5DADD"/>
<path d="M74.0628 89.4635C74.0583 89.3511 74.0109 89.2448 73.9305 89.1664C73.8501 89.0879 73.7428 89.0435 73.6307 89.042H70.9271C70.8724 89.0411 70.8181 89.0516 70.7677 89.0726C70.7172 89.0937 70.6717 89.1251 70.6338 89.1646C70.596 89.2042 70.5667 89.2511 70.5479 89.3026C70.529 89.354 70.5209 89.4088 70.5241 89.4635L70.6 91.7345C70.606 91.8458 70.6539 91.9507 70.7342 92.0279C70.8144 92.1051 70.9209 92.1488 71.0321 92.1501H73.7357C73.7899 92.1509 73.8436 92.1407 73.8937 92.1199C73.9437 92.0992 73.989 92.0684 74.0267 92.0295C74.0644 91.9906 74.0938 91.9443 74.1131 91.8936C74.1323 91.8429 74.1411 91.7887 74.1387 91.7345L74.0628 89.4635Z" fill="#D5DADD"/>
<path d="M81.1165 89.5455C81.112 89.4337 81.0645 89.3279 80.9839 89.2505C80.9034 89.173 80.796 89.1298 80.6844 89.1299H77.9808C77.9268 89.1299 77.8735 89.1407 77.8238 89.1617C77.7741 89.1827 77.7292 89.2135 77.6916 89.2523C77.6541 89.291 77.6247 89.3369 77.6051 89.3873C77.5856 89.4377 77.5762 89.4914 77.5778 89.5455L77.6596 91.8165C77.6626 91.9293 77.7095 92.0365 77.7902 92.1152C77.8709 92.194 77.9791 92.238 78.0917 92.2379H80.8245C80.8789 92.238 80.9328 92.227 80.9828 92.2056C81.0329 92.1842 81.0781 92.1529 81.1158 92.1135C81.1534 92.0741 81.1828 92.0275 81.202 91.9765C81.2211 91.9254 81.2298 91.871 81.2274 91.8165L81.1165 89.5455Z" fill="#D5DADD"/>
<path d="M35.5942 48.4789C35.5657 47.7354 36.1607 47.1172 36.9047 47.1172H104.36C105.075 47.1172 105.658 47.6891 105.672 48.4034L105.834 56.8609H35.9159L35.5942 48.4789Z" fill="#F58B00"/>
<path d="M50.8399 52.6173H50.7757C50.4894 52.616 50.2147 52.5038 50.009 52.3041C49.8033 52.1045 49.6826 51.8329 49.672 51.5461L49.6311 50.4106C49.4224 50.5844 49.2568 50.8044 49.1473 51.0532C49.0379 51.3021 48.9877 51.573 49.0005 51.8447C49.0153 52.3294 49.2148 52.7901 49.558 53.1319C49.9012 53.4738 50.362 53.6708 50.8457 53.6826C51.0804 53.6789 51.3118 53.628 51.5265 53.533C51.7411 53.4379 51.9345 53.3006 52.0951 53.1292C52.2558 52.9577 52.3805 52.7557 52.4618 52.535C52.5431 52.3144 52.5793 52.0796 52.5683 51.8447C52.5571 51.5664 52.4855 51.2939 52.3584 51.0462C52.2314 50.7985 52.0519 50.5816 51.8325 50.4106L51.8734 51.5461C51.879 51.6853 51.8563 51.8242 51.8067 51.9543C51.7572 52.0845 51.6819 52.2032 51.5853 52.3033C51.4886 52.4035 51.3727 52.4829 51.2446 52.5369C51.1165 52.5908 50.9788 52.6182 50.8399 52.6173Z" fill="#00144A"/>
<path d="M89.5833 52.5646H89.519C89.2346 52.5605 88.9623 52.4482 88.7573 52.2504C88.5524 52.0526 88.4302 51.7841 88.4154 51.4993L88.3803 50.434C88.1761 50.6071 88.0142 50.8248 87.9069 51.0703C87.7997 51.3158 87.7499 51.5827 87.7614 51.8505C87.7748 52.3357 87.9738 52.7972 88.3173 53.1394C88.6608 53.4815 89.1225 53.6781 89.6066 53.6884C89.8437 53.6887 90.0784 53.6407 90.2964 53.5474C90.5145 53.454 90.7114 53.3173 90.8751 53.1455C91.0389 52.9736 91.1662 52.7703 91.2493 52.5477C91.3324 52.3251 91.3695 52.0879 91.3584 51.8505C91.3464 51.5695 91.2732 51.2946 91.1441 51.0449C91.015 50.7951 90.8331 50.5767 90.611 50.4048L90.646 51.4993C90.6517 51.6408 90.6282 51.7819 90.5768 51.9137C90.5255 52.0456 90.4474 52.1654 90.3475 52.2654C90.2477 52.3655 90.1282 52.4438 89.9967 52.4953C89.8651 52.5468 89.7244 52.5704 89.5833 52.5646Z" fill="#00144A"/>
<path d="M49.6719 51.5463C49.6824 51.8331 49.8031 52.1047 50.0088 52.3043C50.2145 52.5039 50.4892 52.6161 50.7755 52.6174H50.8397C50.9787 52.6183 51.1163 52.591 51.2445 52.537C51.3726 52.4831 51.4885 52.4036 51.5851 52.3035C51.6817 52.2034 51.757 52.0846 51.8066 51.9545C51.8561 51.8243 51.8788 51.6855 51.8733 51.5463L51.8324 50.4108L51.7156 47.0979L51.5988 43.7381C51.5883 43.4514 51.4675 43.1798 51.2619 42.9802C51.0562 42.7805 50.7815 42.6683 50.4952 42.667H50.4602C50.3212 42.6661 50.1835 42.6935 50.0554 42.7474C49.9272 42.8014 49.8114 42.8808 49.7148 42.981C49.6182 43.0811 49.5428 43.1998 49.4933 43.33C49.4438 43.4601 49.4211 43.599 49.4266 43.7381L49.5434 47.0979L49.6602 50.4108L49.6719 51.5463Z" fill="#D5DADD"/>
<path d="M88.4157 51.4994C88.4276 51.7873 88.5494 52.0595 88.7559 52.26C88.9623 52.4604 89.2377 52.5737 89.5251 52.5764H89.5893C89.7286 52.5774 89.8665 52.5498 89.9947 52.4955C90.1229 52.4411 90.2388 52.361 90.335 52.2601C90.4312 52.1593 90.5059 52.0398 90.5544 51.909C90.6029 51.7782 90.6242 51.6388 90.6171 51.4994L90.582 50.4049L90.4652 47.1095L90.3485 43.6913C90.3365 43.404 90.2145 43.1324 90.0078 42.9329C89.8012 42.7334 89.5259 42.6214 89.239 42.6201H89.1748C89.0361 42.6192 88.8986 42.6466 88.7708 42.7006C88.643 42.7546 88.5275 42.8342 88.4313 42.9344C88.3352 43.0346 88.2604 43.1534 88.2115 43.2835C88.1626 43.4136 88.1407 43.5524 88.1471 43.6913L88.2638 47.1095L88.3806 50.4341L88.4157 51.4994Z" fill="#D5DADD"/>
</svg>
