<svg width="149" height="129" viewBox="0 0 149 129" fill="none" xmlns="http://www.w3.org/2000/svg">
<circle cx="64" cy="64.7695" r="64" fill="#EBF8FF"/>
<path fill-rule="evenodd" clip-rule="evenodd" d="M122.101 37.8942C124.489 43.0478 126.211 48.5727 127.158 54.3584L111.764 88.2112C111.444 88.9155 110.857 89.4637 110.132 89.7353C109.408 90.0069 108.605 89.9795 107.901 89.6592L77.4548 75.8149C76.7501 75.4945 76.2013 74.9074 75.929 74.1828C75.6566 73.4581 75.683 72.6549 76.0023 71.9496L95.5255 29.0148C95.8471 28.3106 96.4351 27.7628 97.1602 27.4917C97.8854 27.2206 98.6885 27.2483 99.3932 27.5687L122.101 37.8942Z" fill="#B8E6FF"/>
<path fill-rule="evenodd" clip-rule="evenodd" d="M120.723 35.1035C123.32 40.058 125.286 45.3946 126.516 51.0069L110.786 85.6018C110.627 85.9505 110.401 86.2646 110.121 86.5261C109.841 86.7877 109.513 86.9915 109.154 87.1259C108.795 87.2604 108.413 87.3229 108.031 87.3098C107.648 87.2968 107.271 87.2085 106.922 87.0499L76.4763 73.2055C75.7716 72.8851 75.2228 72.2981 74.9505 71.5734C74.6781 70.8487 74.7045 70.0455 75.0237 69.3403L94.547 26.4054C94.8686 25.7012 95.4566 25.1534 96.1817 24.8823C96.9069 24.6112 97.71 24.6389 98.4147 24.9594L120.723 35.1035Z" fill="#D1EFFF"/>
<path fill-rule="evenodd" clip-rule="evenodd" d="M124.912 45.0745C125.079 45.5932 125.241 46.1148 125.395 46.6392L120.375 43.0117L124.912 45.0745Z" fill="#9EDDFF"/>
<path fill-rule="evenodd" clip-rule="evenodd" d="M122.401 38.5547C123.352 40.6694 124.191 42.845 124.912 45.0741L120.375 43.0112L122.401 38.5547Z" fill="#B8E6FF"/>
<path fill-rule="evenodd" clip-rule="evenodd" d="M127.44 73.273C127.809 70.4908 128 67.6521 128 64.7688C128 63.0211 127.93 61.2898 127.793 59.5775C125.589 60.2754 123.23 62.4543 120.846 65.1245C120.55 65.4555 120.254 65.7832 119.96 66.1079C116.297 70.1591 113.044 73.7569 116.659 77.7093C119.463 80.7723 123.723 77.2496 127.44 73.273ZM126.949 76.3811C126.458 76.6688 125.962 77.0037 125.47 77.3803C125.132 77.6391 124.795 77.8832 124.469 78.1188C122.152 79.7946 120.421 81.0468 123.29 84.1744C123.662 84.5794 124.171 84.8226 124.765 84.9141C125.681 82.1486 126.414 79.2994 126.949 76.3811Z" fill="#9EDDFF"/>
<path fill-rule="evenodd" clip-rule="evenodd" d="M123.001 89.6089C121.946 92.1111 120.737 94.5323 119.385 96.8604L111.209 104.225C110.975 104.436 110.614 104.417 110.403 104.183L92.5837 84.4004C92.3729 84.1663 92.3917 83.8056 92.6257 83.5948L105.981 71.5653C106.215 71.3545 106.575 71.3734 106.786 71.6074L123.001 89.6089Z" fill="#B8E6FF"/>
<path fill-rule="evenodd" clip-rule="evenodd" d="M124.299 86.269C123.358 88.9079 122.249 91.4669 120.984 93.9331L103.537 74.5639C103.326 74.3298 103.345 73.9692 103.579 73.7583L108.373 69.4403C108.607 69.2295 108.968 69.2484 109.179 69.4824L124.299 86.269Z" fill="#9EDDFF"/>
<path fill-rule="evenodd" clip-rule="evenodd" d="M125.196 83.5629C124.29 86.5181 123.175 89.3823 121.87 92.1382L103.985 72.2826C103.774 72.0485 103.792 71.6878 104.027 71.477L109.28 66.745C109.514 66.5342 109.875 66.553 110.085 66.7871L125.196 83.5629Z" fill="#B8E6FF"/>
<path fill-rule="evenodd" clip-rule="evenodd" d="M16.0627 107.174C16.3204 107.277 16.5925 107.347 16.8725 107.38C16.5028 107.297 16.1549 107.137 15.852 106.909C15.8282 106.891 15.8047 106.873 15.7816 106.854C15.8749 106.961 15.9686 107.068 16.0627 107.174ZM15.1485 106.118C15.1372 106.099 15.1262 106.079 15.1154 106.06L13.9349 103.945L10.78 100.329C12.1279 102.343 13.587 104.275 15.1485 106.118ZM1.41887 78.2349C1.36328 77.9753 1.30927 77.7151 1.25684 77.4543L14.9093 65.9746L14.6454 67.9753L1.41887 78.2349Z" fill="#9EDDFF"/>
<path fill-rule="evenodd" clip-rule="evenodd" d="M4.19256 87.6014L6.17169 90.0442L3.12548 84.5815C3.45658 85.5996 3.81251 86.6064 4.19256 87.6014ZM2.36727 82.0757C2.01055 80.8027 1.69221 79.5136 1.41357 78.2098L14.6376 67.9609L14.2764 70.6783C14.2333 71.0146 14.064 71.3218 13.8027 71.5378L3.32023 80.3549C2.83036 80.7669 2.49957 81.3368 2.3849 81.9665C2.37828 82.0029 2.37241 82.0393 2.36727 82.0757Z" fill="#D1EFFF"/>
<path fill-rule="evenodd" clip-rule="evenodd" d="M16.3648 107.512C9.68855 100.077 4.72798 91.0696 2.10596 81.1135L13.4317 71.4079C13.6962 71.1896 13.868 70.8795 13.9121 70.5403L14.2818 67.7989L14.5519 65.7805L14.927 62.7681C14.9733 62.4291 15.1438 62.1187 15.4056 61.8968L31.1255 48.7C31.3403 48.5186 31.5921 48.3861 31.8632 48.3116C32.1343 48.237 32.4182 48.2223 32.6952 48.2685C32.9722 48.3147 33.2355 48.4206 33.4669 48.5789C33.6983 48.7372 33.8921 48.944 34.0348 49.1849L51.6286 78.3C51.7733 78.5362 51.8273 78.8168 51.7807 79.0902C51.734 79.3636 51.59 79.6113 51.375 79.7877L42.0444 87.5446L38.6772 90.3396L33.6132 94.5528L31.6223 96.2319L18.8284 106.969C18.5206 107.226 18.16 107.412 17.7723 107.514C17.3846 107.617 16.9794 107.633 16.5853 107.562C16.511 107.548 16.4374 107.532 16.3648 107.512Z" fill="#B8E6FF"/>
<path d="M50.9463 113.906L46.7741 117.73L45.5191 111.78L50.9463 113.906Z" fill="#005DC9"/>
<ellipse cx="29.3162" cy="6.23242" rx="29.3162" ry="6.23242" transform="matrix(0.978468 -0.2064 0.206399 0.978468 45.4673 111.682)" fill="#005DC9"/>
<path d="M97.6945 104.003L104.099 105.559L102.859 99.6833L97.6945 104.003Z" fill="#005DC9"/>
<ellipse cx="29.3162" cy="6.23242" rx="29.3162" ry="6.23242" transform="matrix(0.978468 -0.2064 0.206399 0.978468 44.2988 106.141)" fill="#0070F2"/>
<path fill-rule="evenodd" clip-rule="evenodd" d="M72.6377 74.082C77.8803 76.7351 81.7523 79.1056 84.6558 81.4205C87.3306 83.5581 89.1807 85.6279 90.5519 87.7982C92.8122 91.4614 93.7043 95.4127 94.7047 100.433L94.6581 100.443C94.7157 100.519 94.7539 100.6 94.772 100.686C95.1607 102.528 86.1904 105.981 74.7363 108.397C63.2822 110.813 53.6817 111.278 53.293 109.435C53.2748 109.349 53.2771 109.26 53.299 109.167L53.2391 109.18C52.1757 104.138 51.3677 100.169 51.9629 95.9382C52.3117 93.4051 53.1546 90.7672 54.7377 87.7315C56.4481 84.4599 59.0333 80.7279 62.7682 76.1638C62.7752 76.151 62.8003 76.1163 62.8408 76.0605C63.0388 75.7875 63.6044 75.0079 64.2081 73.7941C64.69 72.825 64.4142 71.5202 63.5802 70.8317C62.5565 69.9863 61.7417 69.5123 61.4537 69.3448C61.3939 69.3101 61.3568 69.2885 61.3453 69.2795C56.1026 66.6264 52.2302 64.256 49.3267 61.9411C46.6518 59.8031 44.8018 57.7337 43.4306 55.5634C41.1707 51.9001 40.2787 47.9488 39.2783 42.9288L80.7433 34.1821C81.8067 39.2231 82.6147 43.1926 82.0195 47.4234C81.6703 49.9566 80.8277 52.5939 79.2448 55.6301C77.5343 58.9012 74.9492 62.6338 71.2148 67.1977C71.2078 67.2103 71.1833 67.244 71.144 67.2982C70.9421 67.576 70.3494 68.3919 69.7252 69.6671C69.2767 70.5838 69.5347 71.8046 70.3173 72.4595C71.3819 73.3497 72.2346 73.8454 72.5299 74.0171C72.5893 74.0516 72.6262 74.0731 72.6377 74.082Z" fill="#9EDDFF"/>
<path fill-rule="evenodd" clip-rule="evenodd" d="M35.3169 39.1845C36.2397 38.9898 37.1456 39.5801 37.3403 40.503L51.941 109.72C52.1356 110.643 51.5453 111.549 50.6225 111.743C49.6997 111.938 48.7938 111.348 48.5991 110.425L33.9984 41.2079C33.8037 40.2851 34.394 39.3792 35.3169 39.1845Z" fill="#004DA5"/>
<path fill-rule="evenodd" clip-rule="evenodd" d="M83.6176 28.995C84.5405 28.8004 85.4464 29.3907 85.641 30.3135L100.242 99.5306C100.436 100.453 99.8461 101.359 98.9233 101.554C98.0005 101.749 97.0945 101.158 96.8999 100.236L82.2992 31.0185C82.1045 30.0956 82.6948 29.1897 83.6176 28.995Z" fill="#004DA5"/>
<path d="M34.648 36.6404L30.4758 40.4641L29.2208 34.5147L34.648 36.6404Z" fill="#005DC9"/>
<ellipse cx="29.3162" cy="6.23242" rx="29.3162" ry="6.23242" transform="matrix(0.978468 -0.2064 0.206399 0.978468 29.1689 34.416)" fill="#005DC9"/>
<path d="M81.3962 26.7374L87.8004 28.2938L86.5608 22.4177L81.3962 26.7374Z" fill="#005DC9"/>
<ellipse cx="29.3162" cy="6.23242" rx="29.3162" ry="6.23242" transform="matrix(0.978468 -0.2064 0.206399 0.978468 28 28.875)" fill="#0070F2"/>
<path fill-rule="evenodd" clip-rule="evenodd" d="M80.0465 53.991C79.8034 54.5256 79.5368 55.0718 79.2449 55.6315C77.5344 58.9026 74.9493 62.6351 71.2149 67.1991C71.2079 67.2117 71.1834 67.2454 71.1441 67.2996L71.1441 67.2996C70.9876 67.515 70.5962 68.0537 70.1374 68.8792L63.4167 70.6997C62.4704 69.9375 61.7263 69.5047 61.4538 69.3462C61.394 69.3114 61.3569 69.2899 61.3454 69.2809C56.2713 66.7131 52.4807 64.4102 49.6099 62.166C51.0456 60.7241 53.1801 59.1373 56.1968 57.4027C69.4905 49.7589 76.9322 51.3871 80.0465 53.991Z" fill="#CC7400"/>
<path fill-rule="evenodd" clip-rule="evenodd" d="M79.9325 54.2375C79.7206 54.693 79.4917 55.157 79.2447 55.6307C77.5341 58.9017 74.949 62.6343 71.2146 67.1982C71.2077 67.2108 71.1832 67.2445 71.1438 67.2987L71.1438 67.2987C70.942 67.5765 70.3492 68.3925 69.7251 69.6677C69.6368 69.8482 69.5758 70.0405 69.5409 70.238C69.5094 70.251 69.4779 70.2639 69.4463 70.2766C69.0749 71.9621 68.909 73.9988 68.8526 75.9612C68.8151 77.2653 66.7084 77.7232 66.2126 76.5165L64.1111 71.402L64.0562 71.3801C63.9273 71.1735 63.7679 70.9872 63.5801 70.8322C62.5564 69.9868 61.7416 69.5128 61.4536 69.3453C61.3938 69.3106 61.3567 69.289 61.3452 69.2801C56.1025 66.6269 52.23 64.2566 49.3266 61.9416C48.3735 61.1799 47.5252 60.4269 46.766 59.6749C49.4907 55.8922 55.7722 54.3949 64.4316 57.3992C73.0352 60.3841 77.2686 57.6873 79.9325 54.2375Z" fill="#F58B00"/>
<path fill-rule="evenodd" clip-rule="evenodd" d="M92.7091 92.4035C93.5462 94.8089 94.1059 97.4296 94.7044 100.433L94.6578 100.443C94.7154 100.519 94.7536 100.6 94.7717 100.686C95.1604 102.528 86.1901 105.981 74.736 108.397C63.2819 110.813 53.6814 111.278 53.2927 109.435C53.2745 109.349 53.2768 109.26 53.2987 109.167L53.2388 109.18C52.6495 106.386 52.1386 103.921 51.9015 101.559C56.1293 98.7369 64.7774 93.6362 70.543 92.5679C75.7968 91.5944 86.2021 91.8651 92.7091 92.4035Z" fill="#F58B00"/>
<path fill-rule="evenodd" clip-rule="evenodd" d="M94.1227 97.6206C94.3199 98.5217 94.5104 99.4576 94.7049 100.434L94.6587 100.444C94.7162 100.52 94.7544 100.6 94.7725 100.686C95.1612 102.529 86.1909 105.982 74.7368 108.398C63.2827 110.814 53.6822 111.279 53.2935 109.436C53.2754 109.35 53.2776 109.261 53.2995 109.168L53.2394 109.181C53.0711 108.383 52.9093 107.612 52.7583 106.863C56.1865 103.506 59.3761 98.6819 61.9518 94.1446C65.296 88.2534 73.5529 86.4244 79.1719 90.2082C83.6569 93.2284 88.9861 96.2148 94.1227 97.6206Z" fill="#CC7400"/>
<path fill-rule="evenodd" clip-rule="evenodd" d="M92.1926 91.0367C93.3323 93.8138 93.9909 96.8513 94.7046 100.433L94.6581 100.443C94.7156 100.519 94.7538 100.6 94.7719 100.686C95.1606 102.528 86.1903 105.981 74.7362 108.397C63.2821 110.813 53.6816 111.278 53.2929 109.435C53.2748 109.349 53.277 109.26 53.2989 109.167L53.2391 109.18C52.6561 106.416 52.1498 103.974 51.9095 101.635C62.9894 105.676 72.1977 100.487 80.0802 96.0454C84.5029 93.5532 88.5083 91.2963 92.1926 91.0367Z" fill="#F58B00"/>
<path fill-rule="evenodd" clip-rule="evenodd" d="M68.16 79.7272C68.7752 79.5974 69.3791 79.9909 69.5089 80.6061L69.9334 82.6185C70.0632 83.2338 69.6696 83.8377 69.0544 83.9675C68.4392 84.0972 67.8353 83.7037 67.7055 83.0885L67.281 81.0761C67.1512 80.4609 67.5447 79.8569 68.16 79.7272Z" fill="#F58B00"/>
<path d="M90.4884 98.3793C88.5043 90.5839 84.4708 86.2705 82.4179 84.4142C82.0677 84.0975 81.5858 83.9792 81.1238 84.0767C80.4161 84.226 80.0903 85.1538 80.4671 85.7712C82.2207 88.6449 84.7546 94.6887 85.7186 99.4082C85.9477 100.53 87.134 101.251 88.1972 100.826L89.4804 100.314C90.2514 100.006 90.6931 99.1839 90.4884 98.3793Z" fill="#D1EFFF"/>
<path fill-rule="evenodd" clip-rule="evenodd" d="M88.119 91.9959C89.0289 93.797 89.8612 95.914 90.4886 98.3791C90.6934 99.1837 90.2516 100.006 89.4806 100.314L88.1975 100.826C87.1342 101.251 85.948 100.53 85.7189 99.408C85.3605 97.6533 84.7851 95.7156 84.1135 93.8259C85.4897 93.1091 86.8237 92.478 88.119 91.9959Z" fill="#EBF8FF"/>
<path d="M47.0306 55.7429C45.1081 53.6727 43.8841 51.4124 43.043 48.5416C42.6895 47.3348 43.4901 46.1216 44.7206 45.8621L45.829 45.6283C47.1239 45.3551 48.3655 46.2438 48.6938 47.5258C49.0492 48.9139 49.6385 50.6097 50.6317 52.3164C51.3697 53.5845 51.1104 55.2834 49.864 56.0574C48.9518 56.6239 47.7613 56.5298 47.0306 55.7429Z" fill="#EBF8FF"/>
</svg>
