<svg width="128" height="128" viewBox="0 0 128 128" fill="none" xmlns="http://www.w3.org/2000/svg">
<g clip-path="url(#clip0_4413_116437)">
<path d="M122.09 74.4858C118.339 72.5429 113.557 71.202 108.969 70.5998C108.951 70.5998 108.932 70.5998 108.913 70.5935C108.619 70.5563 108.325 70.5193 108.032 70.4882C108.013 70.4882 107.994 70.4882 107.969 70.482C107.05 70.3825 106.131 70.3142 105.238 70.271C105.194 70.271 105.144 70.271 105.1 70.271C104.856 70.2585 104.619 70.2523 104.381 70.2461C104.312 70.2461 104.25 70.2461 104.181 70.2461C103.956 70.2461 103.731 70.2461 103.512 70.2461C103.45 70.2461 103.387 70.2461 103.319 70.2461C103.056 70.2461 102.794 70.2523 102.531 70.2585C102.518 70.2585 102.5 70.2585 102.487 70.2585C102.212 70.2647 101.944 70.2772 101.675 70.2955C99.2431 70.4136 98.0493 70.5192 96.0678 70.8108C95.5615 70.8729 95.0552 70.9475 94.5739 71.0407C89.3294 72.0523 87.1605 74.6036 88.7295 77.5524C85.7041 78.1108 81.6724 78.9116 77.4529 79.7808C75.2841 79.2594 73.0401 78.8806 70.7898 78.6571C70.746 78.6571 70.721 78.6447 70.6709 78.6385C66.9643 78.1605 62.6388 78.173 58.5633 78.4461C58.532 78.4461 58.5007 78.4461 58.4694 78.4461C55.7316 78.6074 54.4252 78.7131 51.0249 79.2034C50.0308 79.3464 49.0119 79.5636 48.0431 79.7746C43.9926 80.6559 40.6734 82.0528 38.2295 83.8033C37.7732 84.1259 37.3483 84.4674 36.9543 84.8151C36.5606 85.1626 36.1917 85.5289 35.8541 85.9075C35.6854 86.0939 35.5293 86.2863 35.3728 86.4786C35.0667 86.8699 34.7979 87.267 34.5604 87.6766C33.0165 90.3647 33.004 93.4807 34.9916 96.6342C34.7166 96.7147 34.429 96.8018 34.1102 96.8888C34.1102 96.8888 34.0976 96.8888 34.0914 96.8888C33.8789 96.9509 33.6476 97.019 33.4164 97.0873C33.3851 97.0998 33.3476 97.106 33.3163 97.1184C33.1038 97.1806 32.8851 97.2424 32.6538 97.3108C32.61 97.3232 32.5662 97.3356 32.5227 97.3481C32.2849 97.4164 32.0411 97.4907 31.7848 97.5653C31.7538 97.5715 31.7288 97.5839 31.7038 97.5901C31.4224 97.6709 31.1349 97.7577 30.841 97.8447C29.6034 98.2048 28.247 98.6082 26.8281 99.0302C26.8156 99.0302 26.8031 99.0364 26.7906 99.0426C26.4593 99.1421 26.1218 99.2412 25.7842 99.3407C25.7342 99.3531 25.6842 99.3717 25.628 99.3842C25.3279 99.4712 25.0279 99.5641 24.7278 99.6511C24.6466 99.676 24.5653 99.7008 24.4841 99.7254C24.2153 99.8062 23.9465 99.887 23.6777 99.9678C23.5589 100.005 23.4464 100.036 23.3277 100.073C23.0776 100.148 22.8214 100.222 22.5713 100.297C22.4651 100.328 22.3588 100.359 22.2588 100.39C21.99 100.471 21.715 100.551 21.4462 100.632C21.3462 100.663 21.2462 100.694 21.1462 100.719C20.8586 100.806 20.5711 100.893 20.2898 100.98C20.2148 101.004 20.1336 101.023 20.0585 101.048C19.321 101.271 18.5896 101.495 17.8708 101.712C17.8395 101.718 17.8082 101.731 17.7832 101.737C17.4645 101.836 17.1457 101.929 16.8331 102.028C16.7394 102.059 16.6456 102.084 16.5519 102.115C16.3081 102.19 16.0705 102.264 15.833 102.333C15.708 102.37 15.5892 102.407 15.4705 102.445C15.2579 102.506 15.0517 102.575 14.8454 102.637C14.7266 102.674 14.6016 102.711 14.4829 102.748C14.2828 102.811 14.0891 102.873 13.889 102.935C13.764 102.972 13.6453 103.009 13.5265 103.046C13.3452 103.102 13.164 103.158 12.9827 103.214C12.8639 103.251 12.7451 103.289 12.6326 103.326C12.4514 103.382 12.2763 103.438 12.1013 103.494C12.0013 103.524 11.895 103.562 11.795 103.593C11.6012 103.655 11.42 103.711 11.2387 103.773C11.1637 103.798 11.0824 103.822 11.0137 103.847C10.7636 103.928 10.5199 104.009 10.2948 104.083C9.33849 104.4 8.50088 104.692 7.76329 104.965C5.90055 105.654 4.68791 106.225 3.90031 106.672C3.74403 106.765 3.60028 106.852 3.47526 106.933C3.22524 107.094 3.0377 107.243 2.9002 107.373C2.61891 107.634 2.53765 107.82 2.52515 107.951C2.52515 108.013 2.5314 108.062 2.55015 108.099C2.55015 108.099 2.55015 108.099 2.55015 108.106C2.5564 108.124 2.5689 108.137 2.58766 108.155C2.8752 108.478 4.41913 109.167 9.48224 107.926C14.1203 106.783 31.7538 101.861 37.9231 100.16C39.6295 101.755 42.3488 103.568 47.3055 105.356C47.3994 105.393 47.4992 105.424 47.5994 105.461C47.8244 105.542 48.0431 105.623 48.2806 105.703C48.837 105.896 49.4059 106.082 49.981 106.256C49.9935 106.256 50.0123 106.268 50.0245 106.268C50.4686 106.399 50.9185 106.529 51.3685 106.653C51.4061 106.666 51.4499 106.672 51.4937 106.684C51.8999 106.796 52.3123 106.895 52.7313 106.995C52.8001 107.013 52.875 107.025 52.9438 107.044C53.3312 107.137 53.7252 107.224 54.1188 107.305C54.2127 107.323 54.3066 107.342 54.4001 107.361C54.7753 107.435 55.1502 107.51 55.5317 107.578C55.644 107.597 55.7567 107.615 55.869 107.634C56.2317 107.696 56.5944 107.758 56.9567 107.808C57.0881 107.826 57.2193 107.845 57.3444 107.864C57.6943 107.913 58.0444 107.963 58.3943 108.006C58.5382 108.025 58.6819 108.043 58.8258 108.056C59.1632 108.093 59.5071 108.13 59.8447 108.162C60.0009 108.174 60.157 108.193 60.3135 108.205C60.6448 108.236 60.9759 108.261 61.3073 108.279C61.476 108.292 61.6387 108.304 61.8074 108.31C62.1262 108.329 62.4511 108.342 62.7699 108.354C62.9449 108.36 63.1201 108.366 63.295 108.373C63.6076 108.379 63.9202 108.385 64.2325 108.391C64.414 108.391 64.5952 108.391 64.7827 108.391C65.089 108.391 65.3953 108.391 65.7017 108.379C65.8891 108.379 66.0766 108.379 66.264 108.366C66.5641 108.36 66.8642 108.341 67.1643 108.329C67.3518 108.323 67.5455 108.31 67.7332 108.304C68.033 108.286 68.3268 108.261 68.6207 108.242C68.8081 108.23 68.9958 108.217 69.1833 108.199C69.4834 108.174 69.7832 108.137 70.0833 108.106C70.2585 108.087 70.4397 108.068 70.6146 108.05C70.9397 108.013 71.2523 107.963 71.5709 107.919C71.7211 107.901 71.871 107.882 72.0212 107.857C72.4837 107.783 72.9462 107.708 73.4025 107.621V107.646H73.3962C75.659 107.311 78.6906 106.666 81.8035 105.598C82.0848 105.505 82.3662 105.405 82.6412 105.3C83.7537 104.89 84.8727 104.431 85.9479 103.916C86.2167 103.785 86.4792 103.655 86.7418 103.518C88.5605 102.575 90.2359 101.47 91.6046 100.179C93.1236 98.7446 94.2488 97.0935 94.7551 95.2125C94.8428 94.9334 94.905 94.6541 94.9488 94.3685C94.9614 94.2877 94.9739 94.2069 94.9801 94.1326C95.0114 93.9154 95.0239 93.6917 95.0302 93.4745C95.0302 93.4064 95.0302 93.3318 95.0302 93.2634C95.0302 92.6861 94.9426 92.1027 94.7802 91.5129C94.7676 91.457 94.7489 91.4014 94.7301 91.3454C94.6488 91.0847 94.5552 90.824 94.4488 90.557C94.4363 90.526 94.4238 90.4949 94.4112 90.47C94.205 89.9921 93.9425 89.5079 93.6361 89.0362C97.6243 87.5278 101.081 86.193 103.037 85.4419C107.969 86.6153 113.189 86.9939 117.395 86.3298C117.395 86.3298 117.452 86.3236 117.477 86.3173C117.514 86.3173 117.552 86.3049 117.583 86.2987C120.883 85.8021 124.334 84.8648 126.146 83.679C126.146 83.679 126.153 83.679 126.159 83.6728C126.278 83.5923 126.39 83.5115 126.497 83.4307C126.546 83.3934 126.596 83.3502 126.646 83.3067C126.672 83.2881 126.697 83.2694 126.715 83.2508C126.715 83.2508 126.722 83.2383 126.728 83.2321C126.897 83.0895 127.053 82.9403 127.19 82.7852C127.465 82.4748 127.672 82.1395 127.803 81.7983C128.028 81.2333 128.059 80.6311 127.903 80.0105C127.872 79.8862 127.834 79.7622 127.791 79.6379C127.184 77.9309 125.234 76.1182 122.071 74.4734L122.09 74.4858Z" fill="#1B90FF"/>
<path d="M71.0334 65.2113C66.3016 56.8313 59.1945 51.0335 52.0436 48.8358C51.9938 48.8175 51.9625 48.7864 51.9124 48.7677C45.0616 46.1481 36.4981 47.2407 30.6536 49.3883C29.6285 49.7299 28.6284 50.1332 27.6657 50.6671C16.1518 57.0796 14.0891 75.1435 23.0526 91.0223C31.2163 105.48 45.7115 113.096 56.9317 109.496V109.539C62.151 108.279 72.6775 103.17 75.4277 88.9676C76.9467 81.9159 75.5714 73.25 71.0334 65.2113Z" fill="#C35500"/>
<path d="M23.6589 87.9609C23.6589 87.9609 9.25087 97.5019 4.269 101.388C-0.712849 105.274 -0.0877732 107.124 0.174759 107.564C0.437291 108.005 2.03748 109.414 5.68166 107.564C9.31962 105.715 25.1215 96.1923 27.4343 94.87C29.7409 93.5478 23.6589 87.9609 23.6589 87.9609Z" fill="#00144A"/>
<path d="M56.9317 109.493V109.537C62.1509 108.277 72.6774 103.168 75.4277 88.9651C76.4528 84.2039 76.1527 78.7041 74.4589 73.1608L46.5588 61.9453C46.5588 61.9453 38.0847 72.6396 52.63 87.8855C60.7 96.34 53.1124 109.63 37.8981 106.495C44.2176 110.176 51.0246 111.393 56.9317 109.499V109.493Z" fill="#8D2A00"/>
<path d="M70.6219 100.375C73.3821 90.3229 59.7598 88.6783 53.8024 82.0398C53.8024 82.0398 65.6279 83.5709 67.5641 82.0398C69.5006 80.5085 75.2347 76.0977 75.2347 76.0977C77.5259 85.9903 74.6669 94.7948 70.6219 100.375Z" fill="#450B00"/>
<path d="M75.3335 45.2663C70.7016 46.874 59.9755 51.9953 51.2305 56.322C45.9487 58.9228 42.9296 67.8555 47.124 75.2053C52.2744 84.2248 63.0759 85.4414 66.7199 82.6729C76.0648 75.5838 87.06 66.7878 87.06 66.7878L89.0852 62.7653C89.0852 62.7653 79.9716 43.6523 75.3397 45.2601L75.3335 45.2663Z" fill="#A93E00"/>
<path d="M5.44415 103.144C11.1511 99.7983 25.6716 91.8963 25.6716 91.8963L23.2213 88.2461C20.796 89.8602 8.7383 97.8927 4.269 101.381C-0.712849 105.267 -0.0877732 107.117 0.174759 107.558C0.312275 107.781 0.793583 108.253 1.70619 108.427C1.70619 108.427 -0.262795 106.49 5.44415 103.144Z" fill="#046C7C"/>
<path d="M83.0739 63.6562L53.9226 81.9486C55.6372 83.102 59.3987 84.0361 62.1644 84.0361C64.3771 84.0361 65.9998 83.2672 66.5346 82.8825L86.0327 67.7479L83.0739 63.6562Z" fill="#8D2A00"/>
<path d="M107.4 63.2992C109.963 57.2966 109.575 48.9474 105.718 41.0205C105.412 40.3873 105.081 39.7728 104.743 39.1706C104.662 39.0278 104.581 38.8913 104.499 38.7485C104.193 38.2147 103.875 37.6994 103.543 37.1904C103.506 37.1346 103.474 37.0787 103.437 37.0228C102.624 35.8062 101.755 34.6702 100.837 33.6211L92.5667 49.8228L81.0405 58.0974L77.5088 60.7976C77.6024 60.9343 77.7025 61.0645 77.8026 61.2012C77.9087 61.3439 78.0088 61.4865 78.1149 61.6233C78.2213 61.7597 78.3274 61.8964 78.4338 62.0329C78.5339 62.1634 78.64 62.2936 78.7401 62.4241C78.8462 62.5605 78.9589 62.691 79.0715 62.8212C79.1776 62.9455 79.284 63.0695 79.3901 63.1938C79.5027 63.3241 79.6151 63.4483 79.7277 63.5786C79.8401 63.7029 79.9465 63.8206 80.0591 63.9449C80.1715 64.0689 80.2841 64.187 80.3965 64.3048C80.5216 64.4415 80.6528 64.5655 80.7842 64.696C80.9591 64.8698 81.1278 65.0435 81.303 65.2113C81.4466 65.3477 81.5906 65.4844 81.7342 65.6209C81.8469 65.7265 81.9592 65.8257 82.0781 65.9251C82.203 66.0367 82.3219 66.1485 82.4467 66.2542C82.5656 66.3533 82.6843 66.4528 82.8032 66.5519C82.928 66.6576 83.0532 66.757 83.178 66.8561C83.2969 66.9494 83.4156 67.0485 83.5345 67.1417C83.6656 67.2412 83.7907 67.3403 83.9219 67.4397C84.0408 67.5265 84.1531 67.6135 84.272 67.7005C84.4157 67.8058 84.5596 67.9053 84.7032 68.0047C84.8096 68.079 84.9157 68.1536 85.0158 68.2219C85.2534 68.3832 85.4971 68.5383 85.7346 68.6874C85.8348 68.7496 85.9283 68.8052 86.0285 68.8612C86.1846 68.9544 86.3411 69.0473 86.4972 69.1405C86.6099 69.2027 86.7222 69.2648 86.8349 69.3267C86.9785 69.4075 87.1224 69.4821 87.2723 69.5626C87.385 69.6247 87.5036 69.6806 87.6225 69.7366C87.7724 69.8109 87.9163 69.8792 88.0662 69.9476C88.1789 70.0035 88.2912 70.0529 88.4039 70.1027C88.56 70.171 88.7224 70.2394 88.8789 70.3075C88.9787 70.351 89.0851 70.3945 89.1852 70.438C89.404 70.525 89.6165 70.6055 89.8352 70.68C89.904 70.7049 89.9663 70.7298 90.0352 70.7484C90.2727 70.8289 90.5039 70.9035 90.7414 70.9781C90.8353 71.0091 90.9292 71.034 91.029 71.0586C91.198 71.1083 91.3666 71.1518 91.5353 71.1953C91.6417 71.2201 91.7478 71.245 91.8542 71.2699C92.0166 71.3069 92.173 71.3379 92.3355 71.3752C92.4418 71.3939 92.5479 71.4187 92.6543 71.4374C92.8167 71.4684 92.9857 71.4933 93.1481 71.5182C93.2482 71.5306 93.3418 71.5489 93.4419 71.5614C93.6356 71.5862 93.8231 71.6049 94.0108 71.6235C94.0794 71.6297 94.1545 71.6359 94.2233 71.6422C94.4796 71.6608 94.7421 71.6732 94.9984 71.6794C95.0607 71.6794 95.1295 71.6794 95.1921 71.6794C95.3858 71.6794 95.5795 71.6794 95.7735 71.6794C95.8671 71.6794 95.961 71.6732 96.0483 71.667C96.211 71.6608 96.3797 71.6484 96.5424 71.6297C96.6422 71.6235 96.7361 71.6111 96.8359 71.5987C96.9986 71.58 97.1548 71.5614 97.3172 71.5368C97.4111 71.5244 97.5049 71.5057 97.5985 71.4933C97.7675 71.4622 97.9362 71.4311 98.1048 71.3939C98.1862 71.3752 98.2675 71.3628 98.3486 71.3441C98.5924 71.2885 98.8424 71.2201 99.0865 71.1518C99.0865 71.1518 99.1425 71.1393 99.1738 71.1331C99.2113 71.1207 99.2489 71.1083 99.2864 71.0958C103.174 69.9786 107.587 67.5451 109.906 64.2181C110.744 63.0198 109.431 62.9331 107.419 63.3054L107.4 63.2992Z" fill="#450B00"/>
<path d="M38.5296 47.4961C35.5853 47.8063 34.1853 48.0173 30.6661 49.228C29.6473 49.5754 28.6284 50.1341 27.6657 50.668C16.1518 57.0803 14.0891 75.1444 23.0526 91.0232C25.4092 95.2008 28.7282 101.042 37.8919 106.498C37.8919 106.498 25.842 94.6149 24.9591 77.0002C24.0763 59.3855 29.4942 51.4994 38.5234 47.4961H38.5296Z" fill="#FF7F4C"/>
<path d="M94.2111 71.6551C94.1423 71.6551 94.0738 71.6429 93.9987 71.6367C94.0675 71.6429 94.1423 71.6489 94.2111 71.6551Z" fill="#450B00"/>
<path d="M85.0104 68.2328C84.904 68.1645 84.7976 68.084 84.6978 68.0156C84.8039 68.0902 84.9102 68.1645 85.0104 68.2328Z" fill="#450B00"/>
<path d="M83.5222 67.1567C83.4033 67.0635 83.2847 66.9705 83.1658 66.8711C83.2847 66.9643 83.4033 67.0635 83.5222 67.1567Z" fill="#450B00"/>
<path d="M86.0228 68.8732C85.923 68.8111 85.8229 68.7551 85.729 68.6992C85.8291 68.7614 85.923 68.8173 86.0228 68.8732Z" fill="#450B00"/>
<path d="M82.0658 65.9328C81.9534 65.8337 81.8345 65.7281 81.7222 65.6289C81.8345 65.7343 81.9472 65.8337 82.0658 65.9328Z" fill="#450B00"/>
<path d="M91.0233 71.0766C90.9294 71.0517 90.8358 71.0272 90.7357 70.9961C90.8296 71.0272 90.9232 71.0517 91.0233 71.0766Z" fill="#450B00"/>
<path d="M90.0294 70.7637C89.9606 70.7388 89.8983 70.714 89.8295 70.6953C89.8983 70.7202 89.9606 70.745 90.0294 70.7637Z" fill="#450B00"/>
<path d="M92.6422 71.4486C92.5358 71.4299 92.4297 71.4116 92.3234 71.3867C92.4297 71.4054 92.5358 71.4299 92.6422 71.4486Z" fill="#450B00"/>
<path d="M88.3981 70.1163C88.2854 70.0666 88.1731 70.0107 88.0604 69.9609C88.1731 70.0169 88.2854 70.0666 88.3981 70.1163Z" fill="#450B00"/>
<path d="M87.6168 69.7558C87.4982 69.6998 87.3856 69.638 87.267 69.582C87.3793 69.6442 87.4982 69.6998 87.6168 69.7558Z" fill="#450B00"/>
<path d="M97.5864 71.5C97.4925 71.5186 97.3986 71.5311 97.3051 71.5435C97.3986 71.5311 97.4925 71.5124 97.5864 71.5Z" fill="#450B00"/>
<path d="M103.543 37.1953C103.875 37.6981 104.193 38.2195 104.5 38.7534C104.193 38.2195 103.875 37.7043 103.543 37.1953Z" fill="#450B00"/>
<path d="M81.0405 58.0989L92.5668 49.8243L100.837 33.6227C101.755 34.6717 102.624 35.8139 103.437 37.0244C99.5052 31.1024 94.1232 27.0675 88.7913 25.7391C89.3853 24.8701 89.4228 24.2679 88.2725 24.361C85.2784 24.6093 83.8096 24.8887 81.3343 25.7826C80.7091 25.9688 80.0902 26.1923 79.4903 26.4778C70.9018 30.5934 68.7263 43.7782 74.6334 55.9264C75.5584 57.832 76.6336 59.5949 77.8149 61.2028C77.7151 61.0661 77.6149 60.9359 77.5214 60.7991L81.053 58.0989H81.0405Z" fill="#C35500"/>
<path d="M80.7786 64.707C80.9535 64.8808 81.1222 65.0548 81.2974 65.2223C81.1222 65.0548 80.9472 64.8808 80.7786 64.707Z" fill="#450B00"/>
<path d="M79.0716 62.831C78.9592 62.7005 78.8528 62.5641 78.7405 62.4336C78.8466 62.5703 78.9592 62.7005 79.0716 62.831Z" fill="#450B00"/>
<path d="M79.7219 63.5918C79.6095 63.4678 79.4969 63.3373 79.3845 63.207C79.4969 63.3373 79.6095 63.4615 79.7219 63.5918Z" fill="#450B00"/>
<path d="M96.8237 71.6016C96.7236 71.614 96.63 71.6202 96.5299 71.6326C96.63 71.6264 96.7236 71.614 96.8237 71.6016Z" fill="#450B00"/>
<path d="M96.0367 71.6758C95.9431 71.6758 95.8492 71.6882 95.7616 71.6882C95.8555 71.6882 95.9493 71.682 96.0367 71.6758Z" fill="#450B00"/>
<path d="M99.0678 71.1523C98.824 71.2266 98.5802 71.2888 98.3302 71.3447C98.574 71.2888 98.824 71.2204 99.0678 71.1523Z" fill="#450B00"/>
<path d="M96.5305 71.6367C96.3681 71.6489 96.1994 71.6613 96.0367 71.6737C96.1994 71.6675 96.3681 71.6551 96.5305 71.6367Z" fill="#450B00"/>
<path d="M94.9864 71.6896C94.7301 71.6896 94.4738 71.671 94.2113 71.6523C94.4676 71.671 94.7301 71.6834 94.9864 71.6896Z" fill="#450B00"/>
<path d="M93.9989 71.6322C93.8115 71.6138 93.6178 71.5952 93.4301 71.5703C93.624 71.5952 93.8115 71.6138 93.9989 71.6322Z" fill="#450B00"/>
<path d="M92.323 71.3866C92.1605 71.3555 92.0041 71.3183 91.8417 71.2812C92.0041 71.3183 92.1605 71.3493 92.323 71.3866Z" fill="#450B00"/>
<path d="M95.7554 71.6836C95.5614 71.6898 95.3677 71.6898 95.174 71.6836C95.3677 71.6836 95.5614 71.6836 95.7554 71.6836Z" fill="#450B00"/>
<path d="M80.7788 64.7076C80.6474 64.5771 80.5225 64.4469 80.3914 64.3164C80.5162 64.4531 80.6474 64.5771 80.7788 64.7076Z" fill="#450B00"/>
<path d="M80.0597 63.9484C79.947 63.8303 79.8347 63.7063 79.7283 63.582C79.8409 63.7063 79.947 63.8241 80.0597 63.9484Z" fill="#450B00"/>
<path d="M78.7404 62.43C78.634 62.2998 78.5339 62.1693 78.4341 62.0391C78.5339 62.1693 78.6403 62.2998 78.7404 62.43Z" fill="#450B00"/>
<path d="M78.1153 61.6293C78.0092 61.4926 77.9028 61.35 77.803 61.207C77.9091 61.35 78.0092 61.4926 78.1153 61.6293Z" fill="#450B00"/>
<path d="M82.4409 66.2624C82.3158 66.157 82.1909 66.0452 82.072 65.9336C82.1972 66.0452 82.3158 66.157 82.4409 66.2624Z" fill="#450B00"/>
<path d="M88.0608 69.9649C87.9107 69.8968 87.767 69.8223 87.6168 69.7539C87.767 69.8285 87.9107 69.8968 88.0608 69.9649Z" fill="#450B00"/>
<path d="M90.7355 70.9953C90.4979 70.9272 90.2667 70.8464 90.0292 70.7656C90.2667 70.8464 90.4979 70.921 90.7355 70.9953Z" fill="#450B00"/>
<path d="M87.273 69.5718C87.1294 69.4972 86.9792 69.4164 86.8356 69.3359C86.9792 69.4164 87.1231 69.491 87.273 69.5718Z" fill="#450B00"/>
<path d="M88.8731 70.3259C88.7169 70.2578 88.5542 70.1957 88.3981 70.1211C88.5542 70.1895 88.7169 70.2578 88.8731 70.3259Z" fill="#450B00"/>
<path d="M83.9102 67.4504C83.7787 67.3509 83.6476 67.2518 83.5225 67.1523C83.6539 67.2518 83.7787 67.3509 83.9102 67.4504Z" fill="#450B00"/>
<path d="M83.166 66.8745C83.0408 66.7751 82.9159 66.6695 82.7908 66.5703C82.9159 66.6757 83.0408 66.7751 83.166 66.8745Z" fill="#450B00"/>
<path d="M85.729 68.6999C85.4853 68.5507 85.2478 68.3957 85.0103 68.2344C85.2478 68.3957 85.4915 68.5507 85.729 68.6999Z" fill="#450B00"/>
<path d="M86.4973 69.1583C86.3412 69.0713 86.1847 68.9718 86.0286 68.8789C86.1847 68.9718 86.3412 69.0651 86.4973 69.1583Z" fill="#450B00"/>
<path d="M79.6765 55.8477C81.9327 59.9498 84.9854 63.0873 86.1991 64.1127L83.3327 66.9826C79.7001 64.2779 76.9242 60.2789 75.7275 58.0013L79.6765 55.8477Z" fill="#8D2A00"/>
<path d="M104.922 68.419C113.509 64.3021 115.804 51.3667 110.048 39.5267C104.292 27.6867 92.6655 21.4257 84.0787 25.5424C75.4921 29.6592 73.1972 42.5947 78.953 54.4347C84.709 66.2747 96.3359 72.5358 104.922 68.419Z" fill="#A93E00"/>
<path d="M84.0852 25.5492C75.4967 29.6648 73.2026 42.6013 78.9595 54.4392C79.1748 54.8818 79.4012 55.3363 79.6791 55.8527C79.6791 55.8527 70.4398 21.6385 101.087 28.4481C95.6302 24.376 89.2982 23.0476 84.0914 25.543L84.0852 25.5492Z" fill="#FF7F4C"/>
<path d="M104.925 68.4211C113.514 64.3054 115.807 51.3691 110.051 39.5312C109.888 64.2125 86.7666 64.5661 86.729 64.5786C92.4424 69.3832 99.3245 71.1089 104.919 68.4273L104.925 68.4211Z" fill="#8D2A00"/>
</g>
<defs>
<clipPath id="clip0_4413_116437">
<rect width="128" height="93.2174" fill="white" transform="translate(0 18.0859)"/>
</clipPath>
</defs>
</svg>
