<svg width="320" height="139" viewBox="0 0 320 139" fill="none" xmlns="http://www.w3.org/2000/svg">
<mask id="mask0_4038_89206" style="mask-type:luminance" maskUnits="userSpaceOnUse" x="0" y="0" width="320" height="139">
<path d="M320 0.5H0V138.5H320V0.5Z" fill="white"/>
</mask>
<g mask="url(#mask0_4038_89206)">
<path d="M296 0.5H24C10.7452 0.5 0 11.2452 0 24.5V114.5C0 127.755 10.7452 138.5 24 138.5H296C309.255 138.5 320 127.755 320 114.5V24.5C320 11.2452 309.255 0.5 296 0.5Z" fill="#222F3B"/>
<path d="M240.908 109.48L115.328 109.83C114.098 109.83 112.988 109.07 112.548 107.92L86.1975 39.0905C85.4575 37.1405 86.8875 35.0605 88.9775 35.0605L214.618 35.1905L244.548 103.92C245.688 106.55 243.768 109.49 240.908 109.49V109.48Z" fill="#00144A"/>
<path d="M242.238 106.93L116.348 107.28C114.888 107.28 113.568 106.38 113.048 105.01L87.1275 37.29C86.2475 34.98 87.9475 32.5 90.4275 32.5L212.948 32.62C214.348 32.62 215.618 33.45 216.178 34.74L245.468 101.99C246.478 104.32 244.778 106.92 242.248 106.92L242.238 106.93Z" fill="#D5DADD"/>
<path d="M214.597 51.3695L100.077 51.6095C99.5873 51.6095 99.1473 51.3095 98.9773 50.8495L96.7973 45.1095C96.5073 44.3395 97.0773 43.5195 97.8973 43.5195L212.217 43.7595C212.677 43.7595 213.097 44.0295 213.287 44.4495L215.667 49.7095C216.017 50.4895 215.447 51.3695 214.597 51.3695Z" fill="#2A4259"/>
<path d="M210.008 49.0202H192.358C191.788 49.0202 191.278 48.6802 191.068 48.1502L191.018 48.0402C190.638 47.1202 191.328 46.1102 192.318 46.1202L210.018 46.2302C210.558 46.2302 211.048 46.5502 211.278 47.0402C211.708 47.9602 211.028 49.0202 210.008 49.0202Z" fill="#D5DADD"/>
<path d="M182.917 49.0202H165.267C164.697 49.0202 164.187 48.6802 163.977 48.1502L163.927 48.0402C163.547 47.1202 164.237 46.1102 165.227 46.1202L182.927 46.2302C183.467 46.2302 183.957 46.5502 184.187 47.0402C184.617 47.9602 183.937 49.0202 182.917 49.0202Z" fill="#D5DADD"/>
<path d="M132.897 39.1597H96.2573C95.6973 39.1597 95.1973 38.8197 94.9873 38.2997C94.6273 37.3997 95.2873 36.4297 96.2573 36.4297H132.897C133.457 36.4297 133.957 36.7697 134.167 37.2897C134.527 38.1897 133.867 39.1597 132.897 39.1597Z" fill="#2A4259"/>
<path d="M213.457 59.4997H195.807C195.237 59.4997 194.727 59.1597 194.517 58.6297L194.467 58.5197C194.087 57.5997 194.777 56.5897 195.767 56.5997L213.467 56.7097C214.007 56.7097 214.497 57.0297 214.727 57.5197C215.157 58.4397 214.477 59.4997 213.457 59.4997Z" fill="#2A4259"/>
<path d="M219.538 68.03H199.168C198.518 68.03 197.928 67.69 197.678 67.16L197.628 67.05C197.198 66.13 197.978 65.12 199.128 65.13L219.548 65.24C220.168 65.24 220.738 65.56 220.998 66.05C221.488 66.97 220.708 68.03 219.538 68.03Z" fill="#2A4259"/>
<path d="M216.967 76.4098H201.767C201.277 76.4098 200.837 76.0698 200.657 75.5398L200.618 75.4298C200.298 74.5098 200.877 73.4998 201.737 73.5098L216.978 73.6198C217.448 73.6198 217.868 73.9398 218.058 74.4298C218.428 75.3498 217.847 76.4098 216.967 76.4098Z" fill="#2A4259"/>
<path d="M222.768 84.4801H205.118C204.548 84.4801 204.038 84.1402 203.828 83.6102L203.778 83.5001C203.398 82.5801 204.088 81.5702 205.078 81.5802L222.778 81.6902C223.318 81.6902 223.808 82.0101 224.038 82.5001C224.468 83.4202 223.788 84.4801 222.768 84.4801Z" fill="#2A4259"/>
<path d="M226.367 93.9196H208.717C208.147 93.9196 207.637 93.5796 207.427 93.0496L207.377 92.9396C206.997 92.0196 207.687 91.0096 208.677 91.0196L226.377 91.1296C226.917 91.1296 227.407 91.4496 227.637 91.9396C228.067 92.8596 227.387 93.9196 226.367 93.9196Z" fill="#2A4259"/>
<path d="M184.438 59.1999H166.788C166.218 59.1999 165.708 58.8599 165.498 58.3299L165.448 58.2199C165.068 57.2999 165.758 56.2899 166.748 56.2999L184.448 56.4099C184.988 56.4099 185.478 56.7299 185.708 57.2199C186.138 58.1399 185.458 59.1999 184.438 59.1999Z" fill="#2A4259"/>
<path d="M190.507 67.7301H170.137C169.487 67.7301 168.897 67.3902 168.647 66.8602L168.597 66.7501C168.167 65.8301 168.947 64.8202 170.097 64.8302L190.517 64.9402C191.137 64.9402 191.707 65.2601 191.967 65.7501C192.457 66.6702 191.677 67.7301 190.507 67.7301Z" fill="#2A4259"/>
<path d="M187.948 76.11H172.748C172.258 76.11 171.818 75.77 171.638 75.24L171.598 75.13C171.278 74.21 171.858 73.2 172.718 73.21L187.958 73.32C188.428 73.32 188.848 73.64 189.038 74.13C189.408 75.05 188.828 76.11 187.948 76.11Z" fill="#2A4259"/>
<path d="M193.747 84.1803H176.097C175.527 84.1803 175.017 83.8403 174.807 83.3103L174.757 83.2004C174.377 82.2804 175.067 81.2703 176.057 81.2803L193.757 81.3903C194.297 81.3903 194.787 81.7104 195.017 82.2004C195.447 83.1204 194.767 84.1803 193.747 84.1803Z" fill="#2A4259"/>
<path d="M197.337 93.6208H179.687C179.117 93.6208 178.607 93.2808 178.397 92.7508L178.347 92.6408C177.967 91.7208 178.657 90.7108 179.647 90.7208L197.347 90.8308C197.887 90.8308 198.377 91.1508 198.607 91.6408C199.037 92.5608 198.357 93.6208 197.337 93.6208Z" fill="#2A4259"/>
<path d="M169.174 107.159L164.648 87.0897L126.189 76.2624L126.013 75.1061C127.341 74.5523 128.676 73.9832 130.02 73.389C156.175 61.8264 174.999 47.0721 172.065 40.4343C169.225 34.011 147.051 37.5425 121.921 48.2547L120.021 35.7871L106.288 55.7252C99.9749 59.0957 100.709 57.5812 96.1641 60.8988L106.059 86.7616L143.905 94.083L158.702 107.143" fill="#101619"/>
<path d="M164.583 109.693L175.422 119.26L172.027 109.57C168.202 109.694 168.41 109.66 164.583 109.693Z" fill="#101619"/>
<path d="M96.5265 66.0762C81.148 75.154 77.946 80.4402 80.0835 85.2755C81.0988 87.5721 84.5886 88.5943 89.7986 88.4726L106.316 91.5659" fill="#101619"/>
<path d="M109.134 70.5471L157.18 86.5134C157.371 86.5785 157.53 86.7135 157.625 86.891L174.704 118.525C174.876 118.846 175.13 119.115 175.441 119.305C175.751 119.496 176.107 119.6 176.471 119.607C176.835 119.614 177.194 119.524 177.511 119.346C177.829 119.169 178.093 118.91 178.277 118.596L192.246 95.0061C192.427 94.7024 192.526 94.3572 192.534 94.0038C192.541 93.6504 192.458 93.301 192.291 92.9894L182.013 73.7236C181.92 73.5495 181.895 73.3469 181.943 73.1554L194.873 22.5547L109.134 70.5471Z" fill="#046C7C"/>
<path d="M154.318 52.6477C179.762 38.9106 197.314 22.081 193.522 15.0576C189.73 8.03421 166.03 13.4766 140.586 27.2136C115.143 40.9507 97.5908 57.7803 101.383 64.8037C105.175 71.8272 128.875 66.3847 154.318 52.6477Z" fill="#046C7C"/>
<path d="M157.23 86.557L109.346 70.3253L135.723 63.4268L163.316 82.9049L157.23 86.557Z" fill="#00144A"/>
<path d="M193.528 15.0689C191.813 11.8927 159.258 17.9777 153.577 23.253C153.577 23.253 165.102 22.8472 166.563 30.1515C168.024 37.4558 150.331 52.4701 150.331 52.4701C161.693 49.6296 195.915 19.4903 193.528 15.0689Z" fill="#00144A"/>
<path d="M155.666 55.1438C143.144 61.9043 130.608 66.9206 120.372 69.2737C108.686 71.9546 101.461 70.9067 98.8917 66.1483C96.3226 61.39 99.4089 54.7786 108.064 46.4775C115.647 39.2097 126.718 31.4803 139.24 24.7198C151.762 17.9592 164.313 12.9348 174.537 10.5883C186.223 7.90728 193.448 8.95518 196.016 13.7106C198.583 18.4659 195.5 25.0833 186.845 33.3845C179.257 40.6432 168.191 48.3816 155.666 55.1438ZM141.934 29.7097C129.848 36.235 119.21 43.6451 111.986 50.5715C104.133 58.1015 103.244 62.2837 103.877 63.4568C104.51 64.6298 108.497 66.1835 119.1 63.7487C128.854 61.5085 140.895 56.6743 152.972 50.1538C165.049 43.6334 175.696 36.2184 182.923 29.2904C190.773 21.762 191.666 17.5782 191.031 16.4022C190.396 15.2261 186.41 13.6801 175.809 16.1132C166.052 18.3551 154.026 23.1888 141.937 29.7158L141.934 29.7097Z" fill="#0899A7"/>
<path d="M163.316 82.9043L157.229 86.5565L174.679 118.614L163.316 82.9043Z" fill="#00144A"/>
<path d="M179.885 44.102L180.553 65.4817L188.553 35.4434L179.885 44.102Z" fill="#0899A7"/>
</g>
</svg>
