<svg width="45" height="47" viewBox="0 0 45 47" fill="none" xmlns="http://www.w3.org/2000/svg">
<path d="M9.6651 9.10451L4.60444 39.6309C4.37997 40.9849 5.2948 42.2646 6.64778 42.4893L27.8629 46.0117C29.2159 46.2364 30.4947 45.3208 30.7192 43.9668L35.7798 13.4405C36.0043 12.0864 35.0894 10.8067 33.7365 10.582L12.5213 7.05959C11.1683 6.83495 9.88957 7.75049 9.6651 9.10451Z" fill="#F58B00"/>
<path d="M27.3895 8.50806H6.79382C5.42235 8.50806 4.31055 9.62071 4.31055 10.9932V40.7005C4.31055 42.073 5.42235 43.1857 6.79382 43.1857H27.3895C28.7609 43.1857 29.8727 42.073 29.8727 40.7005V10.9932C29.8727 9.62071 28.7609 8.50806 27.3895 8.50806Z" fill="white"/>
<path d="M27.3895 43.4964H6.7938C6.05287 43.4964 5.34229 43.2018 4.81837 42.6775C4.29445 42.1532 4.00012 41.4421 4.00012 40.7006V10.9933C4.00012 10.2518 4.29445 9.54071 4.81837 9.01639C5.34229 8.49207 6.05287 8.19751 6.7938 8.19751H27.3895C28.1304 8.19751 28.841 8.49207 29.3649 9.01639C29.8888 9.54071 30.1831 10.2518 30.1831 10.9933V40.7006C30.1831 41.4421 29.8888 42.1532 29.3649 42.6775C28.841 43.2018 28.1304 43.4964 27.3895 43.4964ZM6.7938 8.81881C6.21752 8.81881 5.66485 9.04791 5.25736 9.45571C4.84986 9.86351 4.62094 10.4166 4.62094 10.9933V40.7006C4.62094 41.2773 4.84986 41.8304 5.25736 42.2382C5.66485 42.646 6.21752 42.8751 6.7938 42.8751H27.3895C27.9657 42.8751 28.5184 42.646 28.9259 42.2382C29.3334 41.8304 29.5623 41.2773 29.5623 40.7006V10.9933C29.5623 10.4166 29.3334 9.86351 28.9259 9.45571C28.5184 9.04791 27.9657 8.81881 27.3895 8.81881H6.7938Z" fill="#00144A"/>
<path d="M40.1562 8.844C40.1562 13.1537 36.6625 16.6475 32.3527 16.6475C28.043 16.6475 24.5493 13.1537 24.5493 8.844C24.5493 4.53426 28.043 1.04053 32.3527 1.04053C36.6625 1.04053 40.1562 4.53426 40.1562 8.844Z" fill="white"/>
<path fill-rule="evenodd" clip-rule="evenodd" d="M41.1967 8.84393C41.1967 13.7283 37.2371 17.6879 32.3527 17.6879C27.4684 17.6879 23.5088 13.7283 23.5088 8.84393C23.5088 3.95956 27.4684 0 32.3527 0C37.2371 0 41.1967 3.95956 41.1967 8.84393ZM32.3527 16.6474C36.6625 16.6474 40.1562 13.1537 40.1562 8.84393C40.1562 4.53419 36.6625 1.04046 32.3527 1.04046C28.043 1.04046 24.5493 4.53419 24.5493 8.84393C24.5493 13.1537 28.043 16.6474 32.3527 16.6474Z" fill="white"/>
<path d="M32.3527 1.04053C30.8093 1.04053 29.3006 1.49819 28.0174 2.35565C26.7341 3.2131 25.7339 4.43198 25.1433 5.85787C24.5526 7.28377 24.3981 8.85267 24.6992 10.3664C25.0003 11.8801 25.7435 13.2705 26.8348 14.3619C27.9262 15.4532 29.3166 16.1964 30.8303 16.4975C32.3441 16.7986 33.9131 16.6441 35.339 16.0534C36.7649 15.4628 37.9836 14.4626 38.8411 13.1793C39.6985 11.8961 40.1562 10.3874 40.1562 8.844C40.1562 6.77439 39.334 4.78956 37.8706 3.32613C36.4072 1.86269 34.4223 1.04053 32.3527 1.04053ZM32.3527 13.5261C32.1212 13.5261 31.8949 13.4575 31.7024 13.3289C31.5099 13.2003 31.3599 13.0173 31.2713 12.8035C31.1827 12.5896 31.1595 12.3544 31.2047 12.1273C31.2499 11.9003 31.3614 11.6917 31.5251 11.528C31.6888 11.3643 31.8973 11.2527 32.1244 11.2075C32.3514 11.1624 32.5868 11.1856 32.8007 11.2742C33.0146 11.3628 33.1974 11.5128 33.326 11.7053C33.4546 11.8978 33.5232 12.124 33.5232 12.3556C33.5232 12.666 33.3999 12.9638 33.1804 13.1833C32.9609 13.4029 32.6632 13.5261 32.3527 13.5261ZM33.5857 9.54642C33.4783 9.59731 33.374 9.65461 33.2735 9.71807C33.1974 9.93607 33.0463 10.12 32.8473 10.237C32.6482 10.3541 32.4141 10.3968 32.1866 10.3574C31.959 10.3181 31.7528 10.1992 31.6046 10.0221C31.4565 9.84504 31.3759 9.62111 31.3773 9.3902C31.3773 8.5006 32.1576 8.11043 32.6805 7.82951C33.414 7.44714 33.7183 7.22865 33.7183 6.67461C33.7183 6.12056 33.0941 5.69917 32.3527 5.69917C31.6114 5.69917 30.9871 6.15178 30.9871 6.67461C30.9871 6.93331 30.8843 7.18153 30.7014 7.36446C30.5185 7.54739 30.2704 7.65004 30.0117 7.65004C29.753 7.65004 29.5049 7.54739 29.3219 7.36446C29.139 7.18153 29.0362 6.93331 29.0362 6.67461C29.1329 5.8629 29.5238 5.11487 30.135 4.57209C30.7463 4.02931 31.5353 3.72964 32.3527 3.72964C33.1702 3.72964 33.9592 4.02931 34.5704 4.57209C35.1816 5.11487 35.5726 5.8629 35.6692 6.67461C35.644 7.30544 35.4327 7.91482 35.062 8.42582C34.6912 8.93682 34.1776 9.32673 33.5857 9.54642Z" fill="#004DA5"/>
</svg>
