<svg width="128" height="128" viewBox="0 0 128 128" fill="none" xmlns="http://www.w3.org/2000/svg">
<g clip-path="url(#clip0_4413_116635)">
<path d="M115.424 113.468L68.9297 98.0111C68.8293 97.9801 68.7286 97.9644 68.6279 97.9878L2.79019 108.039C-0.167939 108.38 -0.446714 109.209 0.451565 109.642L47.0303 125.455C48.8502 126.074 50.7861 126.221 52.6757 125.881L112.791 114.854C115.524 114.49 116.074 113.677 115.424 113.468Z" fill="#101619"/>
<path d="M127.279 99.1105C127.798 99.0178 128.115 98.4913 127.96 97.9878L116.786 60.4924C116.786 60.4924 116.771 60.4304 116.755 60.3997L112.899 47.6378C112.899 47.6378 112.883 47.5914 112.875 47.5681L111.28 42.2791L108.554 34.4811C108.5 34.334 108.431 34.1867 108.361 34.0473C108.361 34.0473 108.361 34.0319 108.361 34.0243C108.283 33.8616 108.198 33.7068 108.105 33.5595C108.082 33.5208 108.059 33.4898 108.036 33.4511C107.951 33.3194 107.865 33.1957 107.765 33.0717C107.711 32.9943 107.641 32.9246 107.579 32.8549C107.501 32.7696 107.432 32.6768 107.346 32.5915C107.192 32.4291 107.021 32.2741 106.843 32.1347L70.6486 3.22716C70.6486 3.22716 70.2304 2.9329 69.5955 2.63863C69.3865 2.53796 69.1464 2.44504 68.891 2.35986C68.1321 2.09657 67.2182 1.93395 66.3432 2.16626C66.0568 2.2437 65.7701 2.35986 65.499 2.53796L47.8122 18.2966L38.6747 26.4353L32.6963 31.7629C31.8833 32.4908 31.3489 33.4821 31.2018 34.5661L30.5746 44.1687C30.5359 44.7105 30.59 45.245 30.7373 45.7715L45.6052 100.675L49.2063 112.306C49.423 113.011 50.1353 113.445 50.8635 113.305L127.279 99.1262V99.1105Z" fill="#00144A"/>
<path d="M31.125 44.9364L50.647 112.71L127.984 98.1593L111.025 41.2812L31.125 44.9364Z" fill="#D5DADD"/>
<path d="M66.2274 1.86445L33.293 31.5929C32.5885 32.2278 32.1316 33.0718 31.9766 34.032C31.8372 34.915 31.6825 35.9836 31.6438 36.6031C31.5662 37.9195 31.125 44.9277 31.125 44.9277L111.025 41.2726L108.361 33.5365C108.059 32.6536 107.471 31.833 106.681 31.1978L71.261 2.55364C71.261 2.55364 68.3494 0.486055 66.2198 1.86445H66.2274Z" fill="#D5DADD"/>
<path d="M111.025 41.2812C111.025 41.2812 105.264 41.2812 104.474 41.5833C102.275 42.4042 94.2444 74.9669 64.1058 61.206C60.8145 59.7039 75.7834 78.8387 73.5917 80.9294C72.5 81.975 71.2843 82.912 69.9756 83.7329C69.3484 84.12 68.5198 84.3678 67.9313 84.7472C67.2728 85.173 67.3815 85.3901 67.1724 86.2573C66.878 87.4654 66.0184 88.379 65.0661 89.1302C63.2075 90.5937 60.9308 91.554 58.8786 92.7776C55.8509 94.5896 52.8153 96.3474 49.586 97.8885C48.6491 98.3297 47.7121 98.7712 46.7595 99.1816L50.6547 112.71L127.984 98.1673C127.984 98.1673 111.049 41.3589 111.025 41.2892V41.2812Z" fill="#00144A"/>
<path d="M108.354 33.553C108.299 33.406 108.23 33.2666 108.168 33.1195C107.982 33.7081 107.641 34.2112 107.006 34.552C106.48 34.8384 110.084 38.5558 109.48 38.7106C108.361 39.6706 107.006 40.0916 105.813 40.2543C101.764 40.8069 48.2972 41.7533 35.8638 41.9669C33.7058 42.0039 34.1381 41.4617 34.1381 41.4617C34.1381 41.4617 33.8281 41.1045 36.0971 39.0075C40.5976 34.8484 52.1474 24.3914 66.5295 9.044C65.9487 7.46428 45.0406 27.9388 43.3911 27.1644C42.2761 26.6379 41.1377 26.0106 39.9761 25.5537L33.293 31.5861C33.0763 31.7798 32.8982 31.9812 32.7278 32.2133C32.178 32.9802 31.9303 33.7391 31.8142 35.0942C31.7366 35.667 31.6669 36.2169 31.6438 36.6043C31.5662 37.9207 31.125 44.9288 31.125 44.9288L111.025 41.2737L108.361 33.5377L108.354 33.553Z" fill="#9B015D"/>
<path d="M50.6467 112.713L67.0714 109.623L83.8368 73.3824C83.8368 73.3824 49.4697 51.9089 43.0193 48.9893C39.4029 47.3555 34.7952 46.4805 31.4421 46.0234L50.631 112.713H50.6467Z" fill="#FA4F96"/>
<path d="M50.6467 112.709L67.0711 109.619L83.8366 73.3782C83.8366 73.3782 77.6934 68.5833 71.2428 65.6641C74.3404 74.1823 58.0784 82.7003 44.5266 91.6057L50.6339 112.709H50.6467Z" fill="#9B015D"/>
<path d="M111.374 42.4647C110.15 43.1309 106.627 45.2449 106.317 47.7537C105.938 50.8049 106.185 51.8192 104.18 54.9245C102.174 58.0221 90.1711 76.0727 90.1711 76.0727L118.513 99.9393L127.976 98.1581L111.374 42.457V42.4647Z" fill="#FA4F96"/>
<path d="M106.673 31.1754L71.261 2.55364C71.261 2.55364 68.3492 0.486055 66.2198 1.86445L33.2547 31.1515C32.2267 32.0779 31.7483 34.0113 31.647 35.6045L31.4348 39.0471L65.755 9.66244C65.755 9.66244 68.4268 6.4875 72.9569 10.4833C77.4869 14.4791 110.365 39.3577 110.365 39.3577L109.301 36.1486L108.222 33.1036C107.887 32.322 107.316 31.6942 106.673 31.1754Z" fill="#FA4F96"/>
<path d="M127.449 97.9349C127.162 96.0656 125.744 91.8774 125.229 90.7604C125.105 90.5746 124.934 90.4119 124.741 90.3036L92.0568 72.0602C82.7953 70.9141 76.6101 76.5441 76.6101 76.5441C76.6101 76.5441 54.8216 98.2094 51.7277 101.464C49.5053 103.508 50.4574 106.02 50.7438 106.763C50.8368 106.996 50.9338 107.182 51.0072 107.439C51.3727 108.718 50.995 110.96 50.4065 111.858L50.6545 112.71L127.442 98.206V97.9349H127.449Z" fill="#00144A"/>
<path d="M127.411 98.2614C127.364 96.8209 124.747 92.8253 124.019 91.741C123.895 91.5553 123.74 91.4082 123.554 91.2999C120.743 89.6347 97.6512 75.9362 91.673 72.5211C85.915 69.2318 83.0387 73.009 83.0387 73.009C83.0387 73.009 56.0128 100.817 53.2252 103.388C51.0336 105.409 51.2691 106.212 51.4287 106.811C51.4918 107.048 51.5447 107.143 51.5524 107.322C51.63 109.474 50.9949 110.961 50.3987 111.867L50.6388 112.711L127.403 98.277H127.411V98.2614Z" fill="#FA4F96"/>
</g>
<defs>
<clipPath id="clip0_4413_116635">
<rect width="128" height="125.156" fill="white" transform="translate(0 1.39062)"/>
</clipPath>
</defs>
</svg>
