<svg width="161" height="161" viewBox="0 0 161 161" fill="none" xmlns="http://www.w3.org/2000/svg">
<circle cx="78.7064" cy="79.9998" r="76.9412" fill="#EBF8FF"/>
<path d="M3.32567 64.9735C2.13395 61.4139 4.37933 57.6258 8.07414 56.9626L109.44 38.7679C112.446 38.2283 115.394 39.9752 116.363 42.8715L136.01 101.556C137.201 105.115 134.956 108.903 131.261 109.567L29.895 127.761C26.8888 128.301 23.9417 126.554 22.972 123.658L3.32567 64.9735Z" fill="#004DA5"/>
<path d="M5.68907 56.1355L3.70088 60.3247L8.35457 59.302L5.68907 56.1355Z" fill="#004DA5"/>
<path d="M135.705 102.922L135.666 106.254L137.227 102.922L135.705 102.922Z" fill="#004DA5"/>
<path d="M5.26658 61.079C4.07487 57.5193 6.32025 53.7313 10.0151 53.0681L111.381 34.8734C114.387 34.3338 117.335 36.0807 118.304 38.9769L137.951 97.6612C139.142 101.221 136.897 105.009 133.202 105.672L31.8359 123.867C28.8297 124.406 25.8826 122.66 24.913 119.763L5.26658 61.079Z" fill="#0070F2"/>
<path d="M5.27025 61.09C4.07727 57.5265 6.32864 53.7352 10.0284 53.0773L111.447 35.0406C114.451 34.5065 117.392 36.2532 118.361 39.1459L121.567 48.7227L7.8976 68.9379L5.27025 61.09Z" fill="#005DC9"/>
<path d="M18.2418 76.0588C17.7651 74.6348 18.6633 73.1195 20.1413 72.8543L113.709 56.0666C114.911 55.8509 116.09 56.5496 116.478 57.7081L129.413 96.3444C129.889 97.7683 128.991 99.2836 127.513 99.5488L33.9455 116.337C32.743 116.552 31.5643 115.854 31.1765 114.695L18.2418 76.0588Z" fill="#005DC9"/>
<path d="M19.9898 73.5275C19.5131 72.1036 20.4114 70.5883 21.8894 70.3231L115.457 53.5354C116.659 53.3196 117.838 54.0184 118.226 55.1768L131.161 93.8131C131.637 95.2371 130.739 96.7524 129.261 97.0176L35.6935 113.805C34.4911 114.021 33.3123 113.322 32.9245 112.164L19.9898 73.5275Z" fill="white"/>
<circle cx="2.76933" cy="2.76933" r="2.76933" transform="matrix(0.94827 -0.317465 0.317463 0.948271 11.4766 57.9609)" fill="#9EDDFF"/>
<circle cx="2.76933" cy="2.76933" r="2.76933" transform="matrix(0.94827 -0.317465 0.317463 0.948271 21.9824 56.2031)" fill="#9EDDFF"/>
<circle cx="2.76933" cy="2.76933" r="2.76933" transform="matrix(0.94827 -0.317465 0.317463 0.948271 32.4902 54.2715)" fill="#9EDDFF"/>
<path d="M29.6215 78.8016C29.2381 77.7316 29.9034 76.5726 31.0207 76.364L93.7614 64.6492C94.6525 64.4828 95.5325 64.988 95.8383 65.8413L96.2368 66.9535C96.6202 68.0235 95.9549 69.1824 94.8376 69.3911L32.0969 81.1058C31.2058 81.2722 30.3258 80.7671 30.02 79.9137L29.6215 78.8016Z" fill="#D5DADD"/>
<path d="M33.1181 87.9735C32.7347 86.9035 33.4 85.7445 34.5173 85.5359L97.258 73.8211C98.1491 73.6547 99.0291 74.1599 99.3349 75.0132L99.7334 76.1253C100.117 77.1953 99.4515 78.3543 98.3342 78.5629L35.5935 90.2777C34.7024 90.4441 33.8224 89.939 33.5166 89.0856L33.1181 87.9735Z" fill="#D5DADD"/>
<path d="M36.2525 97.955C35.8704 96.8886 36.5298 95.7328 37.6422 95.5191L65.1118 90.242C66.0056 90.0703 66.8911 90.5755 67.1981 91.4323L67.5977 92.5473C67.9797 93.6137 67.3203 94.7695 66.2079 94.9832L38.7383 100.26C37.8445 100.432 36.959 99.9268 36.652 99.07L36.2525 97.955Z" fill="#D5DADD"/>
<path d="M109.025 62.0544C107.616 54.7467 112.868 51.3843 120.949 46.3213C121.375 46.0568 121.934 46.2878 122.039 46.7676L125.146 51.5513C126.062 53.1701 128.16 52.3785 128.414 51.6999L135.072 33.1264C135.262 32.6227 134.868 32.1078 134.333 32.164L112.898 31.6226C112.174 31.6924 111.438 32.7954 112.078 33.1263L115.449 37.9085C115.889 38.1314 115.968 38.7215 115.61 39.0675C108.612 45.7254 98.9947 48.8596 102.614 59.7781C104.196 64.5635 108.229 67.2458 113.314 69.9915C114.066 70.4002 114.469 69.2932 114.075 68.5384C113.185 66.8436 109.355 63.7307 109.029 62.0605L109.025 62.0544Z" fill="#CC7400"/>
<path d="M111.821 61.5076C110.484 54.5726 115.468 51.3816 123.137 46.5768C123.541 46.3258 124.072 46.545 124.171 47.0003L127.12 51.5401C127.269 52.2051 128.483 51.9231 128.724 51.2791L135.08 33.2248C135.26 32.7469 134.887 32.2581 134.379 32.3115L115.496 32.6276C114.809 32.6939 114.111 33.7406 114.718 34.0547L117.917 38.5929C118.335 38.8045 118.41 39.3645 118.07 39.6929C111.429 46.0113 102.302 48.9857 105.737 59.3474C107.238 63.8888 108.708 67.2258 113.534 69.8314C114.247 70.2193 114.63 69.1687 114.256 68.4524C113.411 66.844 112.134 63.0985 111.825 61.5135L111.821 61.5076Z" fill="#F58B00"/>
<path d="M146.473 4.82724C146.583 5.09793 146.619 5.39335 146.575 5.68242C146.532 5.97149 146.411 6.24352 146.226 6.46987L141.967 11.9685C141.263 12.8782 140.133 12.7857 139.42 12.2337C139.12 12.0185 138.898 11.7117 138.787 11.3594C138.677 11.0071 138.683 10.6284 138.806 10.2803C138.871 10.1138 138.96 9.95805 139.071 9.8183L143.33 4.31971C143.512 4.07463 143.757 3.88329 144.038 3.76593C144.32 3.64856 144.628 3.60954 144.93 3.653C145.266 3.70116 145.584 3.8343 145.854 4.03979C146.124 4.24529 146.337 4.51634 146.473 4.82724Z" fill="#A9B4BE"/>
<path d="M158.445 40.669C158.412 40.8755 158.336 41.0729 158.222 41.2484C158.108 41.4239 157.959 41.5738 157.784 41.6885C157.609 41.8031 157.412 41.8801 157.206 41.9143C157 41.9486 156.788 41.9394 156.586 41.8875L149.953 40.5064C149.715 40.456 149.489 40.3585 149.289 40.2198C149.089 40.0811 148.918 39.9039 148.787 39.6985C148.656 39.4931 148.567 39.2637 148.526 39.0236C148.485 38.7835 148.491 38.5376 148.546 38.3003C148.566 38.2017 148.594 38.105 148.63 38.0111C148.756 37.662 149.009 37.3731 149.338 37.2013C149.668 37.0295 150.049 36.9873 150.408 37.0829L157.037 38.465C157.276 38.515 157.501 38.6121 157.702 38.7505C157.902 38.889 158.073 39.066 158.204 39.2712C158.335 39.4765 158.424 39.7058 158.465 39.9458C158.507 40.1858 158.5 40.4317 158.445 40.669Z" fill="#A9B4BE"/>
<path d="M158.555 21.6632C158.461 21.8716 158.325 22.0587 158.157 22.213C157.988 22.3673 157.79 22.4856 157.574 22.5607L147.925 26.0262C147.491 26.1792 147.015 26.1586 146.596 25.9688C146.178 25.779 145.848 25.4346 145.678 25.0077C145.521 24.6111 145.519 24.17 145.672 23.7719C145.761 23.5427 145.898 23.3352 146.074 23.1636C146.25 22.9921 146.461 22.8605 146.692 22.7779L156.342 19.3125C156.778 19.1583 157.256 19.1791 157.677 19.3705C158.098 19.5619 158.428 19.9091 158.599 20.339C158.681 20.5513 158.719 20.778 158.712 21.0056C158.704 21.2331 158.651 21.4568 158.555 21.6632Z" fill="#A9B4BE"/>
<path fill-rule="evenodd" clip-rule="evenodd" d="M117.327 120.158L100.891 103.849C99.9317 102.897 98.3819 102.903 97.4298 103.863C96.4776 104.822 96.4836 106.372 97.4432 107.324L113.879 123.633C114.838 124.585 116.388 124.579 117.34 123.62C118.292 122.66 118.286 121.11 117.327 120.158ZM91.1991 97.6802C86.8324 102.081 86.86 109.188 91.2607 113.555L107.696 129.864C112.097 134.23 119.204 134.203 123.571 129.802C127.938 125.401 127.91 118.294 123.509 113.927L107.074 97.6186C102.673 93.2519 95.5658 93.2795 91.1991 97.6802Z" fill="#D1EFFF"/>
<path fill-rule="evenodd" clip-rule="evenodd" d="M100.89 103.852L117.326 120.16C118.071 120.899 118.241 121.998 117.835 122.902C119.466 122.112 123.119 122.298 125.89 126.396C127.605 122.47 126.965 117.766 123.978 114.424L116.41 113.467L106.583 103.715C104.597 101.745 101.844 100.352 99.4565 101.811C98.5663 102.355 97.7774 103.081 97.3344 103.966C97.3647 103.932 97.3962 103.898 97.4289 103.865C98.381 102.906 99.9308 102.9 100.89 103.852Z" fill="#9EDDFF"/>
<path fill-rule="evenodd" clip-rule="evenodd" d="M117.441 122.402L115.817 124.039C113.598 126.275 113.612 129.888 115.848 132.107L127.659 143.827C129.896 146.046 133.508 146.032 135.728 143.795L137.351 142.159C139.571 139.922 139.557 136.31 137.32 134.091L125.509 122.371C123.273 120.152 119.66 120.166 117.441 122.402ZM109.586 117.856C103.952 123.534 103.988 132.704 109.666 138.338L121.477 150.057C127.154 155.691 136.324 155.656 141.958 149.978L143.582 148.342C149.216 142.664 149.18 133.494 143.502 127.86L131.692 116.14C126.014 110.506 116.844 110.542 111.21 116.22L109.586 117.856Z" fill="#B8E6FF"/>
<path fill-rule="evenodd" clip-rule="evenodd" d="M114.718 130.516C114.993 131.092 115.37 131.631 115.849 132.106L117.415 133.66C115.28 134.594 113.232 136.953 116.169 140.116C117.617 141.674 121.926 145.895 124.601 148.501C126.083 149.944 127.635 151.346 129.516 152.208C131.24 152.998 133.405 153.666 135.655 153.704C130.784 155.09 125.327 153.877 121.477 150.056L109.666 138.337C106.138 134.836 104.789 129.97 105.624 125.425L114.718 130.516Z" fill="#9EDDFF"/>
<path fill-rule="evenodd" clip-rule="evenodd" d="M91.1983 97.6805C86.8319 102.081 86.8596 109.188 91.2602 113.555L107.696 129.864C112.096 134.23 119.204 134.203 123.57 129.802L117.34 123.62C116.387 124.579 114.838 124.585 113.878 123.633L97.4427 107.324C96.4832 106.372 96.4771 104.823 97.429 103.863L91.1983 97.6805Z" fill="#D1EFFF"/>
<path fill-rule="evenodd" clip-rule="evenodd" d="M90.5607 98.3804C89.8914 100.545 89.3264 105.247 92.0442 108.222C94.3961 110.796 103.773 120.022 110.293 126.388C112.523 128.566 114.958 130.839 118.066 131.087C119.759 131.222 121.677 130.928 123.509 129.743L123.57 129.804C119.204 134.204 112.096 134.232 107.696 129.865L91.2602 113.557C87.0854 109.414 86.8462 102.805 90.5607 98.3804Z" fill="#B8E6FF"/>
<path d="M79.919 141.904C79.919 140.976 77.2244 140.233 73.624 140.064C73.4181 136.469 72.6256 133.795 71.6972 133.797C70.7688 133.799 69.9969 136.493 69.7993 140.108C66.1886 140.355 63.5043 141.161 63.5166 142.092C63.529 143.022 66.2113 143.765 69.8116 143.932C70.0278 147.528 70.81 150.201 71.7363 150.199C72.6627 150.197 73.4387 147.503 73.6364 143.889C77.247 143.642 79.9293 142.835 79.919 141.904Z" fill="#D1EFFF"/>
<path d="M94.3646 16.2488C94.3646 15.6299 92.5682 15.1346 90.168 15.0221C90.0307 12.6248 89.5024 10.8424 88.8834 10.8438C88.2645 10.8451 87.7499 12.6413 87.6181 15.0509C85.211 15.2155 83.4215 15.7534 83.4297 16.3736C83.4379 16.9939 85.2261 17.4892 87.6264 17.6004C87.7705 19.9976 88.292 21.7801 88.9095 21.7787C89.5271 21.7773 90.0444 19.9811 90.1762 17.5716C92.5833 17.4069 94.3715 16.869 94.3646 16.2488Z" fill="#D1EFFF"/>
<path d="M56.0039 29.8849C56.0039 28.9566 53.3093 28.2136 49.709 28.0448C49.5031 24.449 48.7106 21.7753 47.7822 21.7773C46.8538 21.7794 46.0819 24.4737 45.8842 28.088C42.2736 28.335 39.5893 29.1419 39.6016 30.0722C39.614 31.0025 42.2962 31.7456 45.8966 31.9123C46.1127 35.5081 46.895 38.1818 47.8213 38.1797C48.7476 38.1777 49.5237 35.4834 49.7213 31.8691C53.332 31.6221 56.0142 30.8152 56.0039 29.8849Z" fill="#D1EFFF"/>
</svg>
