<svg width="128" height="128" viewBox="0 0 128 128" fill="none" xmlns="http://www.w3.org/2000/svg">
<g clip-path="url(#clip0_4413_116467)">
<mask id="mask0_4413_116467" style="mask-type:luminance" maskUnits="userSpaceOnUse" x="0" y="1" width="128" height="126">
<path d="M128 1.86328H0V126.137H128V1.86328Z" fill="white"/>
</mask>
<g mask="url(#mask0_4413_116467)">
<path d="M122.254 112.796L73.0171 96.412C73.0171 96.412 72.7895 96.3551 72.7042 96.412L2.95836 107.05C-0.170527 107.42 -0.483416 108.273 0.483696 108.757L49.8348 125.511C51.7691 126.165 53.8171 126.336 55.8082 125.966L119.495 114.275C122.397 113.877 122.966 113.024 122.283 112.796H122.254Z" fill="#1B90FF"/>
<path d="M19.001 18.3583L44.5156 110.945C44.8854 112.282 46.1654 113.135 47.5592 112.964L122.112 99.3965C126.407 98.3156 128.398 93.8214 127.915 92.0578L88.7468 8.28894C88.3485 7.12272 87.1823 6.35472 85.9592 6.44005L22.8126 7.80539C21.0775 8.06139 17.0668 12.0436 19.001 18.3867V18.3583Z" fill="#00144A"/>
<path d="M20.7077 11.1661L47.0755 106.796C47.4453 108.133 48.7253 108.986 50.1191 108.816L125.582 95.1056C127.346 94.878 128.427 93.086 127.858 91.4363L97.4222 3.74206C97.024 2.57584 95.8578 1.80784 94.6347 1.89318L23.2108 7.66739C21.4472 7.78117 20.2241 9.48784 20.7077 11.1661Z" fill="white"/>
<path d="M53.163 104.067C51.3994 104.067 49.8634 102.872 49.3799 101.194L48.6119 98.3776C48.4128 97.6096 48.8394 96.8416 49.6074 96.6425C50.3754 96.4434 51.1434 96.8701 51.3425 97.6381L52.1105 100.454C52.2243 100.909 52.651 101.251 53.1345 101.251L55.211 100.881C55.979 100.739 56.7185 101.251 56.8608 102.019C57.003 102.787 56.491 103.526 55.723 103.668L53.7034 104.038C53.4474 104.067 53.2768 104.095 53.1061 104.095L53.163 104.067ZM63.8865 102.075C63.2039 102.075 62.6065 101.592 62.4928 100.909C62.3505 100.141 62.8625 99.4016 63.6305 99.2594L72.0217 97.695C72.8181 97.5528 73.5292 98.0648 73.6714 98.8328C73.8136 99.6008 73.3017 100.34 72.5337 100.483L64.1425 102.047C64.1425 102.047 63.9719 102.047 63.8865 102.047V102.075ZM80.6403 98.9465C79.9576 98.9465 79.3603 98.463 79.2465 97.7803C79.1043 97.0123 79.6163 96.2728 80.3843 96.1305L88.7754 94.5661C89.5434 94.4239 90.283 94.9359 90.4252 95.7039C90.5674 96.4719 90.0554 97.2114 89.2874 97.3536L80.8963 98.9181C80.8963 98.9181 80.7257 98.9181 80.6403 98.9181V98.9465ZM97.4225 95.7892C96.7399 95.7892 96.1425 95.3056 96.0288 94.623C95.8865 93.855 96.3985 93.1154 97.1665 92.9732L105.558 91.4088C106.326 91.2665 107.065 91.7785 107.207 92.5465C107.35 93.3145 106.838 94.0541 106.07 94.1963L97.6785 95.7608C97.6785 95.7608 97.5079 95.7608 97.4225 95.7608V95.7892ZM114.205 92.6603C113.522 92.6603 112.925 92.1768 112.811 91.4941C112.669 90.7261 113.181 89.9865 113.949 89.8443L118.87 88.9341C119.524 88.8488 119.865 88.3368 119.894 87.8817C119.894 87.0852 120.605 86.5732 121.373 86.5163C122.169 86.5163 122.767 87.199 122.738 87.9954C122.681 89.9296 121.231 91.5225 119.325 91.7501L114.489 92.6603C114.489 92.6603 114.319 92.6603 114.233 92.6603H114.205ZM47.7301 91.1812C47.1043 91.1812 46.5354 90.7545 46.3648 90.1288L44.1177 81.9083C43.9185 81.1403 44.3452 80.3723 45.1132 80.1732C45.8812 79.9741 46.6492 80.4008 46.8483 81.1688L49.0954 89.3892C49.2945 90.1572 48.8679 90.9252 48.0999 91.1243C47.9861 91.1528 47.8439 91.1812 47.7301 91.1812ZM118.671 81.2256C118.073 81.2256 117.533 80.8559 117.334 80.2585L114.546 72.2088C114.29 71.4692 114.688 70.6443 115.428 70.3883C116.167 70.1323 116.992 70.5305 117.248 71.2701L120.036 79.3199C120.292 80.0594 119.894 80.8843 119.154 81.1403C119.012 81.1972 118.841 81.2256 118.699 81.2256H118.671ZM43.2359 74.7119C42.6101 74.7119 42.0412 74.2852 41.8705 73.6594L39.6234 65.439C39.4243 64.671 39.851 63.903 40.619 63.7039C41.387 63.5048 42.155 63.9314 42.3541 64.6994L44.6012 72.9199C44.8003 73.6879 44.3737 74.4559 43.6057 74.655C43.4919 74.6834 43.3497 74.7119 43.2359 74.7119ZM113.095 65.0976C112.498 65.0976 111.958 64.7279 111.759 64.1305L108.971 56.0523C108.715 55.3128 109.113 54.4879 109.853 54.2319C110.592 53.9759 111.417 54.3741 111.673 55.1136L114.461 63.1919C114.717 63.9314 114.319 64.7563 113.579 65.0123C113.437 65.0692 113.266 65.0976 113.124 65.0976H113.095ZM38.7132 58.2425C38.0874 58.2425 37.5185 57.8159 37.3479 57.1901L35.1008 48.9696C34.9017 48.2016 35.3283 47.4336 36.0963 47.2345C36.8643 47.0354 37.6323 47.4621 37.8314 48.2301L40.0785 56.4505C40.2777 57.2185 39.851 57.9865 39.083 58.1856C38.9692 58.2141 38.827 58.2425 38.7132 58.2425ZM107.52 48.9696C106.923 48.9696 106.383 48.5999 106.183 48.0025L103.396 39.9243C103.14 39.1848 103.538 38.3599 104.278 38.1039C105.017 37.8479 105.842 38.2461 106.098 38.9856L108.886 47.0639C109.142 47.8034 108.743 48.6283 108.004 48.8843C107.862 48.9412 107.691 48.9696 107.549 48.9696H107.52ZM34.219 41.8016C33.5932 41.8016 33.0243 41.375 32.8537 40.7492L30.6065 32.5288C30.4074 31.7608 30.8341 30.9928 31.6021 30.7936C32.3701 30.5945 33.1381 31.0212 33.3372 31.7892L35.5843 40.0096C35.7834 40.7776 35.3568 41.5456 34.5888 41.7448C34.475 41.7732 34.3328 41.8016 34.219 41.8016ZM101.945 32.8416C101.348 32.8416 100.807 32.4719 100.608 31.8745L97.8208 23.7964C97.5648 23.0569 97.963 22.232 98.7025 21.976C99.4421 21.72 100.267 22.1182 100.523 22.8578L103.311 30.9359C103.567 31.6754 103.168 32.5003 102.429 32.7563C102.287 32.8132 102.116 32.8416 101.974 32.8416H101.945ZM29.6963 25.3324C29.0705 25.3324 28.5017 24.9058 28.331 24.28L26.0839 16.0595C25.9985 15.7182 25.9417 15.3769 25.9417 15.0071C25.9417 12.9306 27.563 11.224 29.611 11.0818L33.3941 10.7689C34.1905 10.6835 34.8732 11.2809 34.9301 12.0773C34.987 12.8738 34.4181 13.5564 33.6217 13.6133L29.8101 13.9262C29.1559 13.9546 28.7861 14.4951 28.7861 15.0071C28.7861 15.0924 28.7861 15.2062 28.8145 15.2915L31.0617 23.512C31.2608 24.28 30.8341 25.048 30.0661 25.2471C29.9523 25.2755 29.8101 25.304 29.6963 25.304V25.3324ZM96.3701 16.6853C95.7728 16.6853 95.2323 16.3155 95.0332 15.7182L92.8714 9.46042C92.7861 9.20442 92.587 8.97687 92.3594 8.86309C91.6483 8.49331 91.3923 7.63998 91.7621 6.95731C92.1319 6.2462 92.9852 5.9902 93.6679 6.35998C94.5497 6.81509 95.2323 7.61153 95.5737 8.5502L97.7354 14.8364C97.9914 15.576 97.5932 16.4009 96.8537 16.6569C96.7114 16.7138 96.5408 16.7422 96.3985 16.7422L96.3701 16.6853ZM42.0128 12.9022C41.2732 12.9022 40.6474 12.3333 40.5905 11.5938C40.5337 10.8258 41.1025 10.1146 41.899 10.0578L50.4039 9.34664C51.2003 9.26131 51.883 9.85864 51.9399 10.6551C51.9968 11.4231 51.4279 12.1342 50.6314 12.1911L42.1265 12.9022C42.1265 12.9022 42.0412 12.9022 42.0128 12.9022ZM59.0225 11.48C58.283 11.48 57.6572 10.9111 57.6003 10.1715C57.5434 9.37509 58.1123 8.69242 58.9088 8.63553L67.4137 7.92442C68.2385 7.83909 68.8928 8.43642 68.9496 9.23287C69.0065 10.0293 68.4377 10.712 67.6412 10.7689L59.1363 11.48C59.1363 11.48 59.051 11.48 59.0225 11.48ZM76.0323 10.0578C75.2928 10.0578 74.667 9.48887 74.6101 8.74931C74.5532 7.98131 75.1221 7.2702 75.9185 7.21331L84.4234 6.5022C85.2199 6.41687 85.9025 7.0142 85.9594 7.81064C86.0163 8.57864 85.4474 9.28975 84.651 9.34664L76.1461 10.0578C76.1461 10.0578 76.0608 10.0578 76.0323 10.0578Z" fill="#00144A"/>
<path d="M68.3708 34.0507C58.0355 35.182 51.8653 44.1804 54.8218 54.2585C57.8554 64.5164 69.0392 71.6896 79.6058 70.1211C89.9152 68.5786 95.4687 59.2719 92.2547 49.4508C89.0926 39.784 78.5001 32.9454 68.3708 34.0507ZM78.2689 62.6397C78.0118 63.0769 77.5748 63.334 76.9835 63.4111C76.3921 63.4882 75.8264 63.3852 75.3124 63.051C74.8237 62.7168 74.4639 62.2799 74.2838 61.6885C74.1041 61.0971 74.1553 60.6087 74.4383 60.1974C74.721 59.7602 75.1579 59.5031 75.7493 59.426C76.3662 59.3489 76.8805 59.4519 77.3948 59.7861C77.8832 60.1203 78.2174 60.5573 78.3975 61.123C78.5775 61.6885 78.5516 62.2284 78.2945 62.6656L78.2689 62.6397ZM80.2227 48.4994C80.0942 49.2964 79.837 49.9648 79.4772 50.5562C79.0915 51.1219 78.5775 51.7645 77.9347 52.4588C77.4204 53.0502 77.0606 53.5386 76.8034 53.8984C76.5463 54.2585 76.3921 54.7213 76.2892 55.2353C76.1865 55.7496 76.238 56.3409 76.4177 56.9838L73.5383 57.3692C73.2556 56.3924 73.1785 55.5439 73.307 54.7984C73.4356 54.0529 73.6669 53.4356 73.9755 52.9216C74.3097 52.4074 74.7725 51.816 75.3636 51.1475C75.5951 50.8648 75.6978 50.7618 75.6978 50.7877C76.135 50.299 76.4948 49.8365 76.7519 49.4508C77.0091 49.0395 77.1633 48.5767 77.2406 48.0625C77.3177 47.5482 77.2406 46.9568 77.0347 46.2884C76.7778 45.4914 76.3662 44.8229 75.7752 44.3089C75.1838 43.7691 74.5154 43.409 73.744 43.1777C72.9728 42.9462 72.1758 42.895 71.3529 42.9976C70.0675 43.1518 69.0648 43.5634 68.3964 44.2575C67.7279 44.9515 67.2137 45.8771 66.8795 47.0854L64.0259 46.0056C64.3086 44.5146 65.0027 43.3063 66.1083 42.3292C67.1881 41.3521 68.6791 40.7611 70.5559 40.5554C72.0214 40.3754 73.4097 40.478 74.6951 40.8381C75.9808 41.198 77.0862 41.8149 77.9862 42.689C78.9117 43.5634 79.5543 44.5917 79.94 45.8515C80.2486 46.8541 80.3513 47.7538 80.2227 48.5509V48.4994Z" fill="#00144A"/>
</g>
</g>
<defs>
<clipPath id="clip0_4413_116467">
<rect width="128" height="128" fill="white"/>
</clipPath>
</defs>
</svg>
