<svg width="320" height="240" viewBox="0 0 320 240" fill="none" xmlns="http://www.w3.org/2000/svg">
<rect y="51" width="320" height="138" rx="24" fill="#222F3B"/>
<path d="M103.596 61.5008L122.2 128.784C122.598 130.229 124.008 131.165 125.509 130.973L204.239 120.82C208.901 119.644 210.232 115.903 209.599 114.096L184.895 51.6238C184.447 50.3484 183.201 49.5265 181.849 49.6115L107.275 51.7938C105.361 51.9143 101.517 54.6563 103.603 61.5008H103.596Z" fill="#00144A"/>
<path d="M104.577 55.5865L124.1 126.178C124.498 127.624 125.907 128.559 127.409 128.368L207.135 118.087C209.043 117.839 210.239 115.912 209.605 114.105L186.795 49.0183C186.346 47.7429 185.101 46.921 183.748 47.006L107.317 51.7816C105.403 51.902 104.079 53.7442 104.591 55.5865H104.577Z" fill="#D5DADD"/>
<path d="M128.582 33.6358L142.784 70.4954C143.345 72.3505 139.597 76.025 137.661 76.1898L67.6986 82.1707C66.1877 82.2996 64.8063 81.304 64.4609 79.8285L55.1148 40.1181C54.3665 36.5081 57.4492 32.3085 59.363 32.2226L125.509 31.4799C126.905 31.4154 128.171 32.3036 128.574 33.643L128.582 33.6358Z" fill="#2A4259"/>
<path d="M130.913 31.1593L142.655 69.7952C143.216 71.6503 141.928 73.5485 139.986 73.7132L70.023 79.6941C68.5121 79.823 67.1306 78.8274 66.7853 77.3519L57.0219 35.8294C56.583 33.9742 57.95 32.1836 59.8638 32.0904L127.841 29.0033C129.237 28.9388 130.503 29.827 130.906 31.1664L130.913 31.1593Z" fill="#4D82B8"/>
<path d="M79.8433 35.9927C76.6631 36.1431 73.8787 37.0814 71.6771 38.5641L83.3472 50.1391L66.4824 49.3441C66.54 49.9243 66.6191 50.5044 66.763 51.0989C68.6625 59.1499 77.7568 65.2239 86.9302 64.5864C95.9742 63.9561 101.543 57.0369 99.5068 49.208C97.4923 41.465 88.7505 35.5844 79.8433 35.9927Z" fill="#3B5B7C"/>
<path d="M204.803 170.311L163.68 157.656C170.371 152.866 166.262 147.338 153.703 143.967C139.332 140.105 116.583 139.88 100.632 143.695C82.4766 148.042 78.5469 156.203 95.1155 161.624C112.321 167.251 141.15 166.661 157.102 160.901L195.363 174.146L200.017 173.353C200.874 172.318 201.344 173.442 202.685 172.633C205.168 170.934 206.469 169.819 206.057 169.614H204.803V170.311Z" fill="#101619"/>
<path d="M210.385 69.5894C213.117 81.0114 208.617 92.7742 202.998 101.172C197.943 108.718 189.414 114.035 178.248 115.37C153.618 118.309 127.256 100.767 120.611 77.0006C113.965 53.2337 128.561 30.6097 151.95 29.5307C174.419 28.4943 202.848 48.5414 210.385 69.5894Z" fill="#8D2A00"/>
<path d="M208.738 63.7273C216.575 85.6059 204.752 106.178 181.164 108.997C156.535 111.935 130.173 94.3942 123.527 70.6273C116.881 46.8605 131.856 29.1276 155.251 28.0486C177.72 27.0121 201.208 42.6863 208.745 63.7273H208.738Z" fill="#C35500"/>
<path d="M203.482 64.154C210.207 83.186 199.782 100.933 179.331 103.269C158.096 105.689 135.406 90.5901 129.58 70.1454C123.961 50.4249 136.547 34.0834 156.855 33.054C176.464 32.0673 196.986 45.7609 203.49 64.154H203.482Z" fill="#D0C1CB"/>
<path d="M208.454 170.444L195.02 174.007L173.678 106.107L186.263 104.645L208.454 170.444Z" fill="#C35500"/>
<path d="M128.875 54.8172L156.649 33.0664C142.06 33.8828 131.499 42.6143 128.875 54.8172Z" fill="#D0C1CB"/>
<path d="M179.331 103.268C197.372 101.21 207.604 87.1611 205.151 70.8125L160.713 101.167C166.738 103.169 173.099 103.978 179.331 103.268Z" fill="#D5DADD"/>
<path d="M181.592 39.2023L181.578 39.1953L181.592 39.2023Z" fill="#D0C1CB"/>
<path d="M156.848 33.0533C157.425 33.0251 157.996 33.011 158.573 33.0039C157.996 33.0039 157.425 33.0251 156.848 33.0533Z" fill="#D0C1CB"/>
<path d="M175.51 36.3125C175.688 36.3835 175.866 36.4545 176.037 36.5255C175.859 36.4545 175.688 36.3835 175.51 36.3125Z" fill="#D0C1CB"/>
<path d="M177.129 36.9805C177.25 37.0373 177.371 37.0941 177.493 37.1437C177.371 37.087 177.25 37.0302 177.129 36.9805Z" fill="#D0C1CB"/>
<path d="M173.869 35.6953C174.069 35.7663 174.276 35.8373 174.475 35.9154C174.276 35.8373 174.076 35.7663 173.869 35.6953Z" fill="#D0C1CB"/>
<path d="M162.773 33.1953C163.101 33.2235 163.429 33.2588 163.765 33.3012C163.437 33.2659 163.109 33.2306 162.773 33.1953Z" fill="#D0C1CB"/>
<path d="M160.998 33.0664C161.34 33.0876 161.69 33.1017 162.032 33.1299C161.69 33.1017 161.34 33.0805 160.998 33.0664Z" fill="#D0C1CB"/>
<path d="M164.521 33.3945C164.842 33.4369 165.17 33.4863 165.491 33.5357C165.17 33.4863 164.849 33.4369 164.521 33.3945Z" fill="#D0C1CB"/>
<path d="M159.152 33.0117C159.537 33.0117 159.915 33.0188 160.3 33.0329C159.915 33.0188 159.53 33.0117 159.152 33.0117Z" fill="#D0C1CB"/>
<path d="M205.466 73.7644C204.411 52.6241 184.01 35.7147 163.759 33.1946C156.714 32.5486 144.328 32.5486 135.336 42.2811C134.324 43.3743 133.375 44.6521 132.491 46.0009C132.341 46.228 132.256 46.3842 132.12 46.6043C132.099 46.6327 132.092 46.6682 132.07 46.7037C142.731 33.9187 159.773 33.1023 174.833 39.0653C190.42 45.2342 203.883 58.6723 205.466 73.7786V73.7644Z" fill="#8D2A00"/>
<path d="M153.311 35.6796L128.875 54.818C127.869 59.5032 128.026 64.6925 129.581 70.1444C129.709 70.5987 129.852 71.0459 130.001 71.4932L177.285 40.1092C169.541 36.6521 161.155 34.9342 153.311 35.6796Z" fill="#D5DADD"/>
<path d="M168.557 108.793L175.88 113.116C175.88 113.116 174.354 109.346 179.374 108.828V108.75C177.363 109.055 173.313 109.46 168.557 108.785V108.793Z" fill="#8D2A00"/>
<path d="M184.693 108.074C185.713 108.117 187.496 108.869 188.344 111.034L189.556 107.102C189.556 107.102 188.437 107.641 184.693 108.067V108.074Z" fill="#8D2A00"/>
<path d="M195.018 174.008L175.01 110.424L176.357 109.075C176.357 109.075 178.917 108.926 181.827 108.344C181.827 108.344 180.821 109.472 181.114 111.034C182.283 117.168 201.308 172.815 201.308 172.815L195.011 174.008H195.018Z" fill="#8D2A00"/>
<path d="M208.453 170.445C208.453 171.183 204.988 172.411 199.319 173.866C196.516 174.427 195.14 174.356 195.019 174.008C194.933 173.76 196.467 172.801 199.247 171.907C203.412 170.608 207.983 169.877 208.453 170.445Z" fill="#8D2A00"/>
<path d="M171.417 68.8537C173.299 66.9583 175.053 65.0345 173.962 61.691C172.75 57.9783 169.213 56.1468 165.085 56.4308C160.828 56.7218 158.753 58.8515 157.583 61.5561L153.633 58.9224C155.045 55.7848 157.883 53.1227 163.83 52.7323C170.932 52.2637 176.472 55.5008 178.341 61.1231C179.888 65.8012 177.82 68.3781 175.46 71.0047C173.292 73.3899 172.18 74.6464 172.928 76.9819L173.085 77.4646L168.75 77.855L168.593 77.3723C167.245 73.1272 169.342 70.9337 171.417 68.8608V68.8537ZM172.044 81.0282C173.834 80.8649 175.617 82.0504 176.173 83.7755C176.729 85.5005 175.795 86.9699 173.998 87.1474C172.172 87.3249 170.404 86.1536 169.848 84.3789C169.292 82.6041 170.226 81.1915 172.044 81.0211V81.0282Z" fill="#00144A"/>
<path d="M250.802 121.111L222.998 124.959C220.125 125.358 216.837 122.996 215.683 119.709C214.535 116.435 216.528 112.545 218.992 111.613L246.451 109.65C249.141 109.314 252.281 111.571 253.485 114.711L254.823 114.375C255.315 117.9 253.506 120.732 250.802 121.111Z" fill="#2A4259"/>
<path d="M251.759 119.42L223.955 123.268C221.082 123.668 217.794 121.306 216.639 118.018C215.492 114.745 216.893 111.808 219.751 111.45L247.401 107.967C250.09 107.63 253.23 109.887 254.434 113.028C255.645 116.182 254.448 119.056 251.752 119.427L251.759 119.42Z" fill="#3B5B7C"/>
<path d="M241.128 114.701C241.515 115.738 241.1 116.685 240.206 116.804C239.311 116.923 238.262 116.173 237.882 115.136C237.495 114.091 237.917 113.159 238.812 113.04C239.706 112.921 240.741 113.671 241.128 114.708V114.701Z" fill="#4D82B8"/>
<path d="M245.487 114.126C245.874 115.164 245.473 116.096 244.586 116.215C243.699 116.334 242.657 115.591 242.269 114.554C241.882 113.517 242.29 112.584 243.178 112.472C244.065 112.36 245.1 113.096 245.487 114.133V114.126Z" fill="#4D82B8"/>
<path d="M249.81 113.554C250.197 114.585 249.81 115.517 248.923 115.636C248.035 115.755 247.007 115.012 246.62 113.982C246.233 112.951 246.634 112.026 247.514 111.907C248.395 111.788 249.422 112.531 249.81 113.561V113.554Z" fill="#4D82B8"/>
<path d="M244.21 105.034L217.082 108.378C214.245 108.721 211.02 106.408 209.907 103.219C208.795 100.051 210.942 96.0482 213.315 95.3683L240.521 93.9313C243.175 93.6439 246.259 95.8589 247.428 98.901L248.597 98.4033C249.491 101.6 246.893 104.705 244.224 105.027L244.21 105.034Z" fill="#2A4259"/>
<path d="M245.682 103.339L218.04 106.682C215.203 107.026 211.978 104.713 210.866 101.523C209.753 98.3552 211.161 95.5444 213.978 95.236L241.472 92.236C244.126 91.9486 247.21 94.1636 248.379 97.2057C249.555 100.262 248.351 103.009 245.682 103.332V103.339Z" fill="#4D82B8"/>
<path d="M227.896 100.851L216.779 102.148C216.166 102.218 215.469 101.72 215.223 101.034C214.976 100.347 215.279 99.7368 215.891 99.6667L226.995 98.405C227.593 98.3349 228.276 98.8326 228.53 99.5055C228.776 100.185 228.494 100.788 227.896 100.858V100.851Z" fill="#3B5B7C"/>
<path d="M237.522 89.5093L211.408 92.3761C208.592 92.6705 205.416 90.3854 204.325 87.2873C203.241 84.2031 204.937 79.8083 208.409 79.5489L234.734 78.7008C237.367 78.4554 241.69 80.0256 242.824 82.9905C243.591 86.4672 240.261 89.1938 237.522 89.5093Z" fill="#2A4259"/>
<path d="M239.797 87.8202L212.366 90.687C209.55 90.9814 206.374 88.6964 205.283 85.5982C204.199 82.5141 205.614 79.8155 208.409 79.5561L235.692 77.0187C238.326 76.7734 241.374 78.9673 242.508 81.9253C243.648 84.9043 242.444 87.5468 239.79 87.8272L239.797 87.8202Z" fill="#3B5B7C"/>
<path d="M237.367 83.6409L226.672 84.7133C226.081 84.7694 225.405 84.2857 225.165 83.6269C224.926 82.968 225.208 82.3932 225.792 82.3301L236.48 81.2857C237.057 81.2297 237.719 81.7063 237.966 82.3582C238.212 83.01 237.944 83.5778 237.367 83.6409Z" fill="#4D82B8"/>
</svg>
