<svg width="128" height="128" viewBox="0 0 128 128" fill="none" xmlns="http://www.w3.org/2000/svg">
<path d="M57.0198 119.422C88.5114 119.422 114.04 93.3256 114.04 61.1351C114.04 28.9437 88.5114 2.84766 57.0198 2.84766C25.529 2.84766 0 28.9437 0 61.1351C0 93.3256 25.529 119.422 57.0198 119.422Z" fill="#4D82B8"/>
<path d="M53.4598 52.9845C52.1448 52.9845 50.7518 53.143 49.437 53.3014C48.8185 53.3802 48.199 53.459 47.5805 53.5386C46.8069 53.459 45.9554 53.2218 45.2589 52.9845C44.2533 52.5895 43.2474 52.3522 42.2418 52.2734C41.159 52.2734 39.7661 52.747 39.3017 55.0405C39.1475 55.5152 39.1475 55.99 39.3017 56.4644C39.3796 56.9392 39.5337 57.3348 39.8431 57.7299C40.4626 58.5207 41.5453 58.8367 43.0153 58.8367C43.8668 58.8367 44.7174 58.7579 45.5684 58.6003C45.9554 58.6003 46.3425 58.5207 46.729 58.4419C47.1934 58.4419 47.4255 58.6791 47.967 59.1539C48.7405 59.9446 49.6691 60.5769 50.6747 60.8938H50.9842C52.6863 61.6846 54.4655 62.0797 56.3229 62.2381C56.8641 62.2381 57.4056 62.2381 57.9471 62.0006C58.4891 61.8422 58.9536 61.5261 59.3401 61.131C59.7271 60.6566 59.9592 60.0234 60.1136 59.4699C60.2686 58.8367 60.1915 58.2044 60.1136 57.6511C59.6492 54.5669 57.4835 53.0642 53.5378 53.0642L53.4598 52.9845Z" fill="#046C7C"/>
<path d="M87.4833 78.7689C85.3863 78.7689 83.2882 79.164 81.3463 79.7969C80.6467 80.0344 79.948 80.192 79.2484 80.2716C78.7826 80.2716 78.3168 80.1132 77.9281 79.7969C77.1515 79.164 76.6077 78.2942 76.2969 77.345C75.5974 75.7635 74.6655 73.7075 71.6352 73.7075H71.0144C69.7712 73.7075 68.4508 73.47 67.2855 72.9955C66.1198 72.5208 65.0324 71.8088 64.1778 70.8596C63.7112 70.3857 63.2454 69.9901 62.6237 69.7526C62.0029 69.5153 61.3813 69.3578 60.7597 69.3578C59.7502 69.3578 58.8177 69.5941 57.8852 69.9113C57.1863 70.1485 56.4867 70.3061 55.7101 70.3061C54.6997 70.3061 53.6902 69.9113 52.7577 69.4366C51.9032 68.883 51.1266 68.1711 50.5828 67.2219C50.3499 66.7474 49.8062 65.6404 48.7188 65.6404C47.6305 65.6404 47.0868 66.3523 45.9211 68.0126C45.7661 68.3289 45.6112 68.5662 45.4553 68.8034C45.2224 69.1993 44.9895 69.5941 44.6787 69.9113C44.0571 69.3578 43.4354 68.7246 42.9696 68.0126C42.5809 67.5382 42.2701 66.9846 41.8822 66.5099C39.8623 63.742 38.3861 61.6857 36.8326 60.895C36.2889 60.6578 35.8222 60.4202 35.2785 60.2627C34.1911 59.9458 33.4144 59.6295 33.0257 58.7599C32.8707 58.3643 32.7928 57.9683 32.7928 57.4944C32.6378 55.6749 32.1712 54.0145 28.1319 54.0145C24.0921 54.0145 25.8784 53.6985 25.6454 53.2238C25.3346 52.5118 25.8012 51.1675 27.1216 49.1904C28.1319 47.5292 29.2967 46.8172 30.4621 46.8172C31.6274 46.8172 32.482 47.3714 33.5694 48.4784C35.2785 50.2184 36.9097 51.0091 38.5417 51.0091C39.2407 51.0091 39.9402 50.8507 40.561 50.5347C41.1826 50.2184 41.7264 49.8227 42.193 49.2692C43.9792 47.5292 44.8337 45.6314 45.7662 42.0727C46.6986 38.3553 48.2521 34.0844 52.6807 33.2936C53.6902 33.1352 54.6997 32.977 55.5543 32.898C59.4393 32.3444 62.5467 31.9491 64.022 29.5765C66.1977 26.2547 67.2855 20.8768 63.0904 16.6851C60.9147 14.3125 57.8073 12.8889 54.6226 12.7308C53.1465 12.7308 51.6703 13.1263 50.272 13.838C48.9517 14.5498 47.786 15.4988 46.8536 16.6851C44.6008 19.3741 42.8917 21.1932 41.5714 21.1932C40.7947 21.1141 40.0952 20.6395 39.5515 20.0068C39.1627 19.5323 38.9298 19.0578 38.7748 18.5041C38.619 17.9505 38.619 17.3178 38.7748 16.7642C38.8525 16.0524 39.1627 15.4197 39.5515 14.8661C39.9402 14.3125 40.4839 13.838 41.1056 13.6007C42.2701 13.1262 43.4354 12.968 44.6787 13.0471C47.0094 13.0471 49.7283 12.968 51.5153 9.88362C52.4469 8.30194 52.6807 6.95737 52.214 5.77107C51.9032 5.21745 51.5153 4.6639 51.0487 4.26843C50.5828 3.87297 49.9612 3.55667 49.3396 3.39844H49.0288C39.5515 4.74297 30.54 8.53917 22.8488 14.3916C15.1582 20.2441 8.9972 28.3982 5.1367 36.9317C5.05895 37.1689 2.34001 42.7838 3.19458 46.4222C3.73832 48.2412 4.7483 49.9023 6.30191 51.0879C7.77798 52.2746 9.64244 52.9069 11.5069 52.9866C14.692 52.9866 16.7895 53.7773 18.3432 57.5735C20.0522 61.8442 24.0921 64.5327 27.1216 65.5616C27.5104 65.7192 27.9761 65.7979 28.3648 65.9567C30.385 66.5099 32.0932 66.9846 33.3365 70.2273C33.7252 71.414 34.5019 72.5208 35.5114 73.2328C36.5218 73.9447 37.8421 74.2607 39.0857 74.1819H40.9497C41.6493 74.1819 42.6588 74.2607 42.9696 74.8143C43.1246 75.1306 43.3584 76.1585 41.7264 79.0061C38.2309 85.2537 39.0857 88.1012 40.8718 91.6602C41.8822 93.7952 43.3584 95.614 45.2224 96.9591C47.0868 98.3822 49.2625 99.3314 51.5153 99.727C51.9811 99.727 52.4469 99.9646 52.9136 100.202C53.3015 100.439 53.6902 100.834 53.9231 101.309C54.8555 103.207 53.9231 106.449 52.6807 108.901C52.1361 110.088 51.4374 111.116 50.6608 112.144C49.8833 113.251 49.2625 114.041 49.2625 115.228C49.3396 116.652 49.5516 117.208 50.0174 118.554L50.1593 119.066C52.2571 119.383 56.4892 119.638 59.9335 119.374L62.6029 119.186L60.2722 117.842C60.2722 117.842 59.0289 117.13 59.1285 115.228C59.1285 112.46 60.8376 113.409 65.7314 113.409H67.6734C68.5279 113.409 69.3054 112.934 69.9261 112.302L70.3149 111.828C72.1019 109.613 76.2969 104.314 78.161 103.128C78.9385 102.574 79.8701 102.178 80.8025 102.021C82.3558 101.625 83.832 100.834 84.9976 99.6474C85.5413 99.0942 86.0071 98.4618 86.3179 97.7499C86.6288 97.0379 86.7846 96.2472 86.7846 95.4564C86.7846 94.5072 87.0175 93.5577 87.5612 92.767C88.1828 91.8974 89.0374 91.1855 90.0469 90.6319C91.2902 89.8412 92.8434 88.892 93.543 86.7564C94.5528 83.9094 94.7086 82.0904 93.7759 80.7464C92.8434 79.4012 90.9794 78.7689 87.7162 78.7689H87.4833Z" fill="#046C7C"/>
<path d="M59.2633 10.229C60.346 10.5453 61.5069 10.7036 62.6675 10.7036C63.3632 10.7036 63.8276 10.7036 64.0597 10.8617C64.292 11.2571 64.5241 11.6525 64.6012 12.048C64.9882 13.1552 65.4527 14.4996 66.7677 15.1323C67.8513 15.6069 69.0113 15.7651 70.172 15.7651C71.1779 15.7651 73.8085 15.6069 75.2786 14.1833C78.2958 11.2571 73.8233 5.79108 73.6683 5.55385L73.4963 5.33381C68.1568 3.6172 62.0428 2.69295 55.2405 2.87397L55.3946 3.74391C55.4725 4.29743 56.4003 9.27993 59.2633 10.229Z" fill="#046C7C"/>
<path d="M107.927 48.0872C109.629 44.6858 109.475 41.0483 107.309 37.5681C103.363 30.9249 93.7691 26.4961 87.3477 26.4961C80.926 26.4961 80.6168 28.1569 79.7659 31.0831C78.9923 33.4556 78.7603 36.0657 79.2247 38.5173C79.6109 41.0483 80.6168 43.3418 82.1639 45.3977C85.8003 50.3806 92.1449 53.7021 98.0243 53.7021C103.904 53.7021 106.071 51.7246 107.927 48.0872Z" fill="#046C7C"/>
<path d="M59.5521 73.9958C66.3286 63.8113 77.434 62.0372 82.1402 62.4229L91.1748 69.3662C98.4032 86.9579 90.9466 104.821 86.2412 111.186C68.0277 122.057 50.547 120.385 39.5671 116.644C39.5671 110.278 51.0821 86.7261 59.5521 73.9958Z" fill="#2A4259"/>
<path d="M72.4934 72.9172C67.8512 73.5503 64.1075 71.2207 62.9474 69.9023C55.6706 77.2968 48.0465 93.2817 46.3708 97.7631C46.9891 98.0791 48.3799 98.3567 48.8958 98.621C52.9189 98.937 53.9254 100.862 53.9254 101.784C60.1147 103.682 72.1281 103.22 77.4142 102.692C77.8013 102.297 79.1464 101.309 81.0038 100.993C83.3244 100.597 86.4195 97.8302 86.4195 94.2704C86.4195 91.4234 89.7723 89.3942 91.4483 88.7351C92.6089 87.0211 94.6204 82.8818 93.3825 80.0351C92.1445 77.1881 86.161 77.7943 83.3244 78.4536C81.7773 80.6942 78.3728 83.9897 77.1351 79.2444C75.8971 74.499 73.5247 73.0489 72.4934 72.9172Z" fill="#046C7C"/>
<path d="M72.4934 72.9172C67.8512 73.5503 64.1075 71.2207 62.9474 69.9023C55.6706 77.2968 48.0465 93.2817 46.3708 97.7631C46.9891 98.0791 48.3799 98.3567 48.8958 98.621C52.9189 98.937 53.9254 100.862 53.9254 101.784C60.1147 103.682 72.1281 103.22 77.4142 102.692C77.8013 102.297 79.1464 101.309 81.0038 100.993C83.3244 100.597 86.4195 97.8302 86.4195 94.2704C86.4195 91.4234 89.7723 89.3942 91.4483 88.7351C92.6089 87.0211 94.6204 82.8818 93.3825 80.0351C92.1445 77.1881 86.161 77.7943 83.3244 78.4536C81.7773 80.6942 78.3728 83.9897 77.1351 79.2444C75.8971 74.499 73.5247 73.0489 72.4934 72.9172Z" fill="#00144A"/>
<path d="M100.486 34.1836C100.567 34.1836 100.726 34.2655 100.806 34.3471C100.726 34.3471 100.567 34.2655 100.486 34.1836Z" fill="#D0C1CB"/>
<path d="M101.446 34.5938C101.446 34.5938 101.607 34.5938 101.687 34.6757C101.687 34.6757 101.527 34.6757 101.446 34.5938Z" fill="#D0C1CB"/>
<path d="M99.447 33.7734C99.6065 33.7734 99.6861 33.8551 99.8463 33.9367C99.6861 33.9367 99.6065 33.8551 99.447 33.7734Z" fill="#D0C1CB"/>
<path d="M35.7739 93.9839C10.3539 82.5873 2.3236 57.9914 2.19465 45.0742C-4.69438 67.9609 4.08918 103.92 38.4488 116.244C68.2867 126.946 92.1381 110.007 102.087 96.8337C66.8845 106.325 57.8238 103.869 35.7739 93.9839Z" fill="#3B5B7C"/>
<path d="M95.3274 34.9844C95.4824 34.9844 95.7147 34.9844 95.8697 35.0634C95.7147 35.0634 95.4824 35.0635 95.3274 34.9844Z" fill="#D0C1CB"/>
<path fill-rule="evenodd" clip-rule="evenodd" d="M46.0662 98.3789C42.2908 106.386 39.5627 113.553 39.5591 116.656C42.4074 117.612 45.2217 118.307 47.9873 118.771C50.7685 119.232 53.7649 119.507 56.9287 119.51C68.1668 119.488 78.2766 115.926 86.2376 111.198C88.0455 108.751 90.2574 104.609 91.8877 99.4385C69.973 104.558 59.6913 103.63 46.0662 98.3789Z" fill="#2A4259"/>
<path d="M69.8573 111.075L77.8724 101.557C65.074 102.765 59.0027 101.659 53.8913 100.449C53.9583 100.503 54.3487 101.497 54.0471 103.428C53.6709 105.843 50.2834 111.88 49.5307 113.087C48.9282 114.054 49.8685 117.322 50.3704 118.932C53.4294 119.38 59.0018 119.559 62.2271 119.112C62.2271 119.112 60.0701 117.917 59.3174 116.71C56.4774 112.155 60.4463 112.283 64.5874 112.685C67.8998 113.007 69.4811 111.746 69.8573 111.075Z" fill="#3B5B7C"/>
<path d="M69.8544 111.075L77.8694 101.557C65.0711 102.765 58.9997 101.659 53.8884 100.449C53.9554 100.503 54.3458 101.497 54.0442 103.428C53.668 105.843 50.2804 111.88 49.5277 113.087C48.9253 114.054 49.8655 117.323 50.3675 118.933C53.4264 119.38 58.9989 119.559 62.2242 119.112C62.2242 119.112 60.0671 117.917 59.3144 116.71C56.4745 112.155 60.4433 112.283 64.5844 112.685C67.8968 113.007 69.4782 111.746 69.8544 111.075Z" fill="#00144A"/>
<path d="M108.233 70.9489C107.994 70.5395 107.114 68.9043 105.594 68.7404C104.394 68.6591 103.435 69.3949 102.074 71.1118C98.555 75.6089 98.3947 76.7544 99.355 79.6978C99.5144 80.1885 99.835 80.5969 100.235 80.9246C100.635 81.1701 101.115 81.3331 101.594 81.3331C103.354 81.3331 105.274 80.1071 105.754 79.7794C106.074 79.534 106.314 79.2888 106.554 79.0433C109.034 76.4267 108.394 72.1748 108.154 70.9489H108.233Z" fill="#046C7C"/>
<path d="M124.79 55.9622C126.582 63.6217 123.63 71.5094 119.944 77.1408C116.628 82.2011 111.033 85.7666 103.708 86.6614C87.5515 88.6321 70.2581 76.8694 65.8983 60.932C61.5388 44.9946 71.1141 29.8235 86.4568 29.1C101.196 28.4051 119.846 41.8481 124.79 55.9622Z" fill="#8D2A00"/>
<path d="M123.71 52.032C128.85 66.703 121.095 80.4986 105.621 82.3885C89.4642 84.3591 72.1709 72.5965 67.8114 56.659C63.4519 40.7216 73.275 28.8303 88.6225 28.1068C103.362 27.4118 118.77 37.9224 123.714 52.032H123.71Z" fill="#C35500"/>
<path d="M120.262 52.3179C124.673 65.0804 117.834 76.981 104.419 78.5471C90.4884 80.1705 75.6042 70.0454 71.7826 56.3357C68.0964 43.1116 76.3524 32.1534 89.6745 31.4633C102.538 30.8014 116 39.9841 120.266 52.3179H120.262Z" fill="#D0C1CB"/>
<path d="M123.522 123.596L114.71 125.985L100.709 80.4531L108.966 79.4727L123.522 123.596Z" fill="#C35500"/>
<path d="M71.3193 46.0581L89.5387 31.4727C79.9682 32.0199 73.0407 37.8752 71.3193 46.0581Z" fill="#D0C1CB"/>
<path d="M104.419 78.5452C116.253 77.1648 122.965 67.7443 121.356 56.7812L92.2051 77.1364C96.1578 78.4787 100.33 79.0214 104.419 78.5452Z" fill="#D5DADD"/>
<path d="M89.6699 31.463C90.0486 31.4439 90.4229 31.4345 90.8019 31.4297C90.4229 31.4297 90.0486 31.4439 89.6699 31.463Z" fill="#D0C1CB"/>
<path d="M101.912 33.6484C102.028 33.6962 102.145 33.7437 102.257 33.7912C102.141 33.7437 102.028 33.6962 101.912 33.6484Z" fill="#D0C1CB"/>
<path d="M102.974 34.0977C103.053 34.1358 103.133 34.1739 103.212 34.2072C103.133 34.1691 103.053 34.1312 102.974 34.0977Z" fill="#D0C1CB"/>
<path d="M100.836 33.2344C100.967 33.2822 101.102 33.3297 101.233 33.382C101.102 33.3297 100.971 33.2822 100.836 33.2344Z" fill="#D0C1CB"/>
<path d="M93.5571 31.5586C93.7725 31.5774 93.9876 31.601 94.2074 31.6294C93.9923 31.6058 93.777 31.5822 93.5571 31.5586Z" fill="#D0C1CB"/>
<path d="M92.3926 31.4727C92.6169 31.4869 92.8461 31.4963 93.0707 31.5153C92.8461 31.4963 92.6169 31.482 92.3926 31.4727Z" fill="#D0C1CB"/>
<path d="M94.7031 31.6914C94.9135 31.7199 95.1289 31.7531 95.3392 31.7861C95.1289 31.7531 94.9182 31.7199 94.7031 31.6914Z" fill="#D0C1CB"/>
<path d="M91.1814 31.4336C91.4341 31.4336 91.682 31.4384 91.9344 31.4478C91.682 31.4384 91.4293 31.4336 91.1814 31.4336Z" fill="#D0C1CB"/>
<path d="M121.562 58.7668C120.87 44.5906 107.487 33.2515 94.2025 31.5617C89.5812 31.1284 81.4559 31.1284 75.5574 37.6547C74.8932 38.388 74.271 39.2448 73.6911 40.1493C73.5928 40.3015 73.5366 40.4062 73.4479 40.5538C73.4337 40.5729 73.429 40.5968 73.415 40.6204C80.4083 32.0472 91.5877 31.4996 101.467 35.4984C111.692 39.635 120.524 48.6462 121.562 58.7762V58.7668Z" fill="#8D2A00"/>
<path d="M87.3502 33.2245L71.3199 46.0581C70.6601 49.2001 70.7631 52.6797 71.7829 56.3356C71.8669 56.6403 71.9607 56.9401 72.0589 57.2402L103.076 36.195C97.9965 33.8768 92.4955 32.7248 87.3502 33.2245Z" fill="#D5DADD"/>
<path d="M97.3506 82.2511L102.154 85.1502C102.154 85.1502 101.154 82.6226 104.447 82.275V82.2227C103.128 82.4272 100.471 82.6985 97.3506 82.2465V82.2511Z" fill="#8D2A00"/>
<path d="M107.937 81.7733C108.606 81.8018 109.775 82.3064 110.332 83.7582L111.127 81.1211C111.127 81.1211 110.392 81.4829 107.937 81.7685V81.7733Z" fill="#8D2A00"/>
<path d="M114.71 125.982L101.584 83.3438L102.468 82.4396C102.468 82.4396 104.148 82.3395 106.056 81.9492C106.056 81.9492 105.396 82.7061 105.588 83.7535C106.355 87.8662 118.835 125.182 118.835 125.182L114.705 125.982H114.71Z" fill="#8D2A00"/>
<path d="M123.523 123.591C123.523 124.086 121.25 124.91 117.531 125.886C115.693 126.262 114.79 126.214 114.71 125.981C114.654 125.814 115.66 125.172 117.484 124.572C120.216 123.701 123.214 123.211 123.523 123.591Z" fill="#8D2A00"/>
</svg>
