<svg width="160" height="160" viewBox="0 0 160 160" fill="none" xmlns="http://www.w3.org/2000/svg">
<mask id="mask0_2672_44775" style="mask-type:alpha" maskUnits="userSpaceOnUse" x="3" y="6" width="154" height="154">
<circle cx="79.9442" cy="83.0555" r="76.9442" fill="#EBF8FF"/>
</mask>
<g mask="url(#mask0_2672_44775)">
<mask id="mask1_2672_44775" style="mask-type:alpha" maskUnits="userSpaceOnUse" x="0" y="6" width="247" height="154">
<path d="M235.792 6.11133H11.8129C10.3529 6.10998 8.90705 6.39638 7.55785 6.95415C6.20865 7.51191 4.9826 8.33011 3.94978 9.36197C2.91697 10.3938 2.09764 11.6191 1.53863 12.9678C0.979621 14.3165 0.691894 15.7621 0.691895 17.2221V148.879C0.691895 151.828 1.86356 154.657 3.94916 156.742C6.03475 158.828 8.86342 160 11.8129 160H235.792C238.742 160 241.571 158.828 243.656 156.742C245.742 154.657 246.913 151.828 246.913 148.879V17.2221C246.913 15.7621 246.626 14.3165 246.067 12.9678C245.508 11.6191 244.688 10.3938 243.655 9.36197C242.623 8.33011 241.397 7.51191 240.047 6.95415C238.698 6.39638 237.252 6.10998 235.792 6.11133Z" fill="#EBF8FF"/>
</mask>
<g mask="url(#mask1_2672_44775)">
<path d="M235.792 6.11133H11.8129C10.3529 6.10998 8.90705 6.39638 7.55785 6.95415C6.20865 7.51191 4.9826 8.33011 3.94978 9.36197C2.91697 10.3938 2.09764 11.6191 1.53863 12.9678C0.979621 14.3165 0.691894 15.7621 0.691895 17.2221V148.879C0.691895 151.828 1.86356 154.657 3.94916 156.742C6.03475 158.828 8.86342 160 11.8129 160H235.792C238.742 160 241.571 158.828 243.656 156.742C245.742 154.657 246.913 151.828 246.913 148.879V17.2221C246.913 15.7621 246.626 14.3165 246.067 12.9678C245.508 11.6191 244.688 10.3938 243.655 9.36197C242.623 8.33011 241.397 7.51191 240.047 6.95415C238.698 6.39638 237.252 6.10998 235.792 6.11133Z" fill="#EBF8FF"/>
<path d="M242.471 95.1854C218.285 92.9987 194.181 96.3948 170.221 99.413C153.948 101.463 137.642 103.214 121.376 105.323C104.941 107.453 88.5062 109.633 72.0123 111.275C63.797 112.092 55.5711 112.799 47.3284 113.282C39.286 113.753 31.1002 112.961 23.081 112.362C15.6314 111.803 8.16269 111.214 0.698242 110.982V160.302H246.913V95.5737C245.437 95.445 243.958 95.3205 242.473 95.1854H242.471Z" fill="#D1EFFF"/>
<path d="M47.9991 114.418C48.5453 114.521 31.2942 119.086 28.0903 119.766C32.121 120.963 78.8271 125.001 97.9364 123.154C107.886 122.191 117.453 120.197 127.151 117.867C134.98 115.984 143.01 114.568 150.519 111.591C144.166 111.686 130.876 112.923 131.331 112.708C142.373 107.457 154.8 106.017 166.327 102.129C170.05 100.876 173.764 99.5797 177.535 98.4863C175.097 98.7945 172.659 99.1048 170.221 99.4129C153.948 101.462 137.642 103.214 121.376 105.323C104.941 107.452 88.5062 109.633 72.0123 111.275C63.7969 112.092 55.5711 112.799 47.3283 113.282C44.3754 113.455 41.4015 113.455 38.4254 113.36C41.6335 113.538 44.831 113.818 48.0012 114.418H47.9991Z" fill="#D1EFFF"/>
<g style="mix-blend-mode:multiply" opacity="0.4">
<path d="M242.471 95.1852C223.894 93.5073 205.366 95.1219 186.917 97.3276C187.525 97.3339 188.128 97.3234 188.737 97.336C195.295 97.4817 202.761 97.3867 208.99 99.7253C210.374 100.245 212.711 101.239 212.58 103.094C212.369 106.1 208.102 108.191 205.813 109.187C200.119 111.67 193.778 113.174 187.727 114.494C180.263 116.119 172.621 117.394 165.017 118.175C151.046 119.61 136.744 119.363 123.046 122.742C133.242 123.624 154.372 124.69 153.706 124.716C146.887 124.988 140.194 126.261 133.512 127.571C146.307 128.806 159.147 129.397 171.887 131.189C178.991 132.187 186.014 133.443 193.057 134.796C196.398 135.436 199.785 135.79 203.107 136.525C206.161 137.2 210.101 137.952 212.282 140.419C213.415 141.702 213.24 143.433 211.831 144.4C209.631 145.913 206.634 146.255 204.052 146.553C200.728 146.935 197.379 147.076 194.036 147.108C181.113 147.23 168.234 147.61 155.359 146.118C139.737 144.309 124.019 142.57 108.828 138.363C100.927 136.177 93.1001 133.669 85.1125 131.808C77.2241 129.971 69.2471 128.54 61.2259 127.438C52.9283 126.299 44.5252 125.203 36.1559 124.766C28.0798 124.344 11.24 123.652 11.7799 123.477C16.6121 121.9 21.5624 120.809 26.5717 120.024C23.2034 119.95 19.8118 120.399 16.4371 120.439C15.8823 120.446 24.7958 117.636 29.0859 116.965C21.4211 115.201 9.48936 120.271 5.19292 111.889C5.04739 111.604 5.16761 111.311 5.44181 111.18C3.85991 111.102 2.2759 111.03 0.691895 110.979V160.299H246.907V95.5736C245.431 95.4449 243.952 95.3203 242.467 95.1852H242.471Z" fill="#D1EFFF"/>
</g>
</g>
<circle cx="131.496" cy="26.6297" r="1.53888" fill="#EBF8FF"/>
<ellipse cx="80.7134" cy="58.9458" rx="1.02592" ry="1.02592" fill="#EBF8FF"/>
<ellipse cx="35.5728" cy="36.3755" rx="1.02592" ry="1.02592" fill="#EBF8FF"/>
<ellipse cx="81.2264" cy="12.2664" rx="1.53889" ry="1.53888" fill="#EBF8FF"/>
<circle cx="23.7747" cy="61.5106" r="1.53888" fill="#EBF8FF"/>
<path d="M63.3965 110.072V153.943H68.1961C68.3546 153.945 68.5059 154.01 68.6172 154.123C68.7286 154.236 68.7909 154.389 68.7909 154.548V128.125C68.8078 128.013 68.8476 127.906 68.9079 127.81C68.9682 127.715 69.0478 127.633 69.1414 127.569L77.1923 123.557V110.072C77.1923 109.911 77.1287 109.757 77.0156 109.644C76.9025 109.53 76.7491 109.467 76.5892 109.467H63.9995C63.9203 109.467 63.8419 109.482 63.7687 109.513C63.6955 109.543 63.6291 109.588 63.5731 109.644C63.5172 109.7 63.4726 109.767 63.4423 109.84C63.412 109.913 63.3965 109.992 63.3965 110.072Z" fill="#9EDDFF"/>
<path d="M55.0032 159.713V88.3735C55.0033 88.243 54.9613 88.116 54.8835 88.0114C54.8056 87.9069 54.6962 87.8303 54.5714 87.7933L45.2411 85.0718L25.782 79.408C25.6931 79.3812 25.5993 79.3757 25.5079 79.3918C25.4165 79.408 25.3301 79.4453 25.2556 79.5009C25.1812 79.5565 25.1208 79.6288 25.0792 79.712C25.0376 79.7952 25.016 79.8871 25.0161 79.9802C25.0161 81.533 25.0161 84.8102 25.0161 84.9328V88.6596H28.357C29.5097 88.6618 30.6144 89.1225 31.4287 89.9407C32.243 90.7589 32.7003 91.8678 32.7003 93.0238C32.6938 93.2318 32.6747 93.4393 32.6433 93.645H34.4116C35.5656 93.645 36.6724 94.1047 37.4884 94.9232C38.3045 95.7416 38.7629 96.8517 38.7629 98.0092C38.7629 99.1667 38.3045 100.277 37.4884 101.095C36.6724 101.914 35.5656 102.373 34.4116 102.373H25.0242V136.903C25.0308 136.947 25.0308 136.991 25.0242 137.034C24.997 137.177 24.9188 137.305 24.8042 137.394L12.5812 146.155C12.5523 146.177 12.5286 146.206 12.5117 146.238C12.4949 146.271 12.4852 146.306 12.4834 146.343V159.73C12.4859 159.77 12.4994 159.809 12.5224 159.842C12.5454 159.875 12.577 159.901 12.6138 159.918C12.6487 159.926 12.6849 159.926 12.7197 159.918H54.8077C54.8578 159.909 54.904 159.885 54.9393 159.848C54.9745 159.811 54.9969 159.764 55.0032 159.713Z" fill="#9EDDFF"/>
<path d="M68.1881 153.943H60.3979C60.238 153.943 60.0847 154.007 59.9716 154.12C59.8585 154.234 59.7949 154.388 59.7949 154.548V159.958H68.7585V154.548C68.7587 154.393 68.6997 154.244 68.5936 154.132C68.4874 154.019 68.3423 153.952 68.1881 153.943Z" fill="#9EDDFF"/>
<path d="M88.4783 117.926L77.1843 123.557L69.1334 127.57C69.0398 127.633 68.9602 127.715 68.8999 127.811C68.8396 127.907 68.7998 128.014 68.7829 128.126V160H59.8194V154.589C59.8194 154.429 59.8829 154.275 59.996 154.162C60.1091 154.048 60.2624 153.984 60.4224 153.984H63.3966V110.113C63.3966 109.953 63.4602 109.799 63.5733 109.686C63.6864 109.572 63.8397 109.508 63.9996 109.508H73.4196V76.7357V67.7784V56.1731C73.4049 55.947 73.3032 55.7353 73.136 55.5828C72.9688 55.4304 72.749 55.349 72.5231 55.3559H45.9829C45.4125 55.3559 45.2495 55.6828 45.2495 56.1731V85.031L54.5798 87.7525C54.7046 87.7896 54.814 87.8661 54.8919 87.9707C54.9697 88.0753 55.0117 88.2024 55.0116 88.3329V159.673C55.0095 159.734 54.9837 159.792 54.9396 159.835C54.8955 159.878 54.8367 159.902 54.7754 159.902H89.1709V118.449C89.1856 118.361 89.1758 118.27 89.1426 118.187C89.1094 118.104 89.0541 118.031 88.9827 117.977C88.9113 117.923 88.8266 117.89 88.7376 117.881C88.6487 117.872 88.559 117.888 88.4783 117.926ZM79.5718 140.426C79.5718 140.465 79.5639 140.504 79.5487 140.54C79.5334 140.577 79.5111 140.609 79.483 140.637C79.4549 140.664 79.4216 140.686 79.3851 140.7C79.3485 140.714 79.3095 140.721 79.2703 140.72H73.281C73.2024 140.72 73.1269 140.689 73.0706 140.634C73.0143 140.579 72.9816 140.505 72.9795 140.426V134.411C72.9795 133.534 73.3267 132.693 73.9449 132.073C74.563 131.453 75.4015 131.105 76.2757 131.105C77.1499 131.105 77.9883 131.453 78.6064 132.073C79.2245 132.693 79.5718 133.534 79.5718 134.411V140.426Z" fill="#B8E6FF"/>
<path d="M76.2795 131.1C75.4183 131.11 74.5954 131.458 73.9864 132.069C73.3774 132.68 73.0306 133.505 73.02 134.369V140.384C73.0221 140.463 73.0548 140.538 73.1111 140.593C73.1674 140.648 73.2429 140.678 73.3215 140.678H79.3108C79.35 140.679 79.389 140.673 79.4256 140.658C79.4621 140.644 79.4953 140.622 79.5234 140.595C79.5516 140.568 79.5739 140.535 79.5892 140.499C79.6044 140.462 79.6123 140.423 79.6123 140.384V134.369C79.6015 133.492 79.2445 132.656 78.6197 132.043C77.9949 131.43 77.1534 131.091 76.2795 131.1Z" fill="#D1EFFF"/>
<path d="M38.7712 98.0185C38.7712 96.8611 38.3127 95.751 37.4967 94.9325C36.6806 94.114 35.5738 93.6543 34.4197 93.6543H32.6515C32.683 93.4486 32.702 93.2412 32.7085 93.0332C32.7085 91.8771 32.2513 90.7682 31.437 89.95C30.6227 89.1318 29.5179 88.6711 28.3653 88.6689H14.2762C13.1221 88.6689 12.0154 89.1287 11.1993 89.9471C10.3833 90.7656 9.9248 91.8757 9.9248 93.0332C9.9248 94.1906 10.3833 95.3006 11.1993 96.1191C12.0154 96.9376 13.1221 97.3974 14.2762 97.3974H16.0445C16.0063 97.6024 15.9845 97.8101 15.9793 98.0185C15.9793 99.176 16.4377 100.286 17.2538 101.105C18.0698 101.923 19.1766 102.383 20.3307 102.383H34.4197C35.5738 102.383 36.6806 101.923 37.4967 101.105C38.3127 100.286 38.7712 99.176 38.7712 98.0185Z" fill="#B8E6FF"/>
<path d="M32.4166 55.2013C31.9059 57.7129 27.6902 60.2696 26.9719 60.638C26.9135 60.6526 26.8527 60.6549 26.7933 60.6448C26.734 60.6347 26.6773 60.6125 26.627 60.5794C25.1738 58.6304 23.2283 56.1875 23.6837 53.4449C24.1391 50.7023 26.555 49.0112 29.0413 49.5169C31.5276 50.0225 32.9708 52.4788 32.4166 55.2013Z" fill="#F58B00"/>
<path d="M24.4653 52.4869C24.436 52.4871 24.4071 52.4796 24.3816 52.4652C24.3433 52.4431 24.3153 52.4067 24.3037 52.3641C24.2921 52.3214 24.2979 52.2759 24.3197 52.2374C24.3935 52.1065 24.4769 51.9811 24.5691 51.8624C24.583 51.8452 24.6 51.8309 24.6194 51.8203C24.6388 51.8097 24.66 51.8031 24.682 51.8007C24.7039 51.7984 24.7261 51.8004 24.7472 51.8067C24.7684 51.813 24.7881 51.8234 24.8052 51.8373C24.8223 51.8512 24.8365 51.8684 24.8469 51.8878C24.8573 51.9072 24.8638 51.9285 24.866 51.9504C24.8681 51.9724 24.866 51.9945 24.8596 52.0156C24.8532 52.0367 24.8427 52.0563 24.8287 52.0734C24.7486 52.1799 24.6759 52.2918 24.611 52.4082C24.5956 52.4328 24.5741 52.453 24.5486 52.4668C24.523 52.4806 24.4944 52.4876 24.4653 52.4869Z" fill="#CC7400"/>
<path d="M23.9163 70.972C23.8976 70.9718 23.8793 70.9672 23.8627 70.9586C23.8497 70.9516 23.8383 70.9421 23.8289 70.9306C23.8196 70.9192 23.8127 70.906 23.8085 70.8918C23.8043 70.8777 23.8029 70.8628 23.8045 70.8482C23.806 70.8335 23.8105 70.8192 23.8175 70.8063C23.8895 70.6707 23.9113 70.5635 23.8795 70.5015C23.8477 70.4396 23.8209 70.4496 23.7539 70.4245C23.6526 70.3979 23.5659 70.3323 23.5128 70.242C23.4905 70.192 23.4796 70.1376 23.4811 70.0828C23.4825 70.0281 23.4962 69.9743 23.5212 69.9256C23.5531 69.8357 23.5745 69.7424 23.5848 69.6476C23.5933 69.5708 23.5877 69.493 23.5681 69.4182C23.5484 69.3446 23.541 69.2682 23.5463 69.1922C23.5597 69.003 23.5614 68.8255 23.563 68.638C23.5647 68.4504 23.563 68.2864 23.5748 68.0687C23.6231 67.5562 23.7036 67.0474 23.8158 66.545C23.8631 66.3696 23.8945 66.1903 23.9096 66.0092C23.8711 65.4935 24.4655 64.7736 24.8991 64.2461C25.019 64.1134 25.1308 63.9736 25.2339 63.8275C25.7068 63.0304 26.1382 62.2095 26.5264 61.3679C26.5391 61.3411 26.562 61.3204 26.5899 61.3103C26.6178 61.3003 26.6486 61.3017 26.6755 61.3143C26.6887 61.3204 26.7006 61.3291 26.7104 61.3398C26.7203 61.3506 26.7279 61.3632 26.7329 61.3768C26.7379 61.3905 26.7401 61.4051 26.7394 61.4196C26.7388 61.4342 26.7352 61.4485 26.729 61.4617C26.3381 62.3108 25.9033 63.139 25.4265 63.9431C25.3203 64.0987 25.2051 64.2479 25.0816 64.3901C24.6948 64.8589 24.1105 65.5622 24.1423 65.9942C24.1298 66.2003 24.0956 66.4046 24.0402 66.6036C23.9338 67.0903 23.856 67.5829 23.8075 68.0787C23.7974 68.2914 23.7958 68.4689 23.7958 68.6397C23.7958 68.8104 23.7958 69.0114 23.779 69.2089C23.7743 69.2653 23.7799 69.3221 23.7958 69.3764C23.82 69.4743 23.8268 69.5758 23.8158 69.6761C23.8053 69.7903 23.7806 69.9028 23.7422 70.011C23.712 70.1014 23.7053 70.1265 23.7204 70.1549C23.7355 70.1834 23.7757 70.2052 23.841 70.2286C23.9368 70.2542 24.0205 70.3129 24.077 70.3944C24.1103 70.4787 24.1221 70.57 24.1113 70.6601C24.1005 70.7501 24.0674 70.836 24.0151 70.9101C24.0059 70.9285 23.9918 70.944 23.9744 70.9549C23.957 70.9658 23.9369 70.9718 23.9163 70.972Z" fill="#D5DADD"/>
<path d="M26.6267 60.5742L26.1244 61.244C26.1148 61.2572 26.1086 61.2726 26.1067 61.2889C26.1047 61.3051 26.1069 61.3216 26.1131 61.3367C26.1193 61.3518 26.1294 61.3651 26.1422 61.3753C26.155 61.3854 26.1702 61.3921 26.1864 61.3947L27.0938 61.5621C27.1098 61.5645 27.1261 61.5628 27.1412 61.5572C27.1563 61.5516 27.1697 61.5423 27.1803 61.5301C27.1908 61.5179 27.1981 61.5032 27.2014 61.4874C27.2047 61.4716 27.204 61.4553 27.1993 61.4399L26.9666 60.6245" fill="#F58B00"/>
<path d="M81.6301 24.1634C79.7936 27.6296 72.498 29.559 71.2841 29.789C71.192 29.7851 71.1017 29.7623 71.0189 29.7218C70.9361 29.6813 70.8627 29.624 70.8031 29.5537C69.5129 26.0635 67.7139 21.6352 69.5692 17.8058C71.4246 13.9764 75.7033 12.5391 79.1346 14.3573C82.5659 16.1756 83.6218 20.4062 81.6301 24.1634Z" fill="#5D36FF"/>
<path d="M71.1317 16.7385C71.0885 16.7261 71.0494 16.7026 71.0182 16.6703C70.9715 16.6213 70.9461 16.5558 70.9476 16.4882C70.949 16.4205 70.9771 16.3562 71.0258 16.3092C71.1909 16.1489 71.3675 16.0009 71.5543 15.8665C71.582 15.8472 71.6133 15.8336 71.6463 15.8265C71.6793 15.8193 71.7134 15.8188 71.7466 15.8248C71.7798 15.8309 71.8115 15.8435 71.8399 15.8618C71.8682 15.8802 71.8926 15.904 71.9118 15.9318C71.9308 15.9596 71.9442 15.991 71.9511 16.024C71.958 16.057 71.9583 16.0911 71.952 16.1242C71.9457 16.1574 71.9329 16.1889 71.9144 16.2171C71.8959 16.2453 71.8719 16.2696 71.844 16.2885C71.6804 16.4103 71.5252 16.5431 71.3796 16.686C71.3463 16.7155 71.306 16.7358 71.2626 16.745C71.2191 16.7542 71.174 16.752 71.1317 16.7385Z" fill="#3B0AC6"/>
<path d="M62.3265 43.6385C62.2992 43.63 62.2743 43.6154 62.2536 43.5956C62.2376 43.5797 62.2249 43.5608 62.2161 43.5399C62.2074 43.5191 62.2029 43.4967 62.2029 43.4741C62.2029 43.4515 62.2073 43.4291 62.2159 43.4082C62.2245 43.3873 62.2372 43.3684 62.2532 43.3524C62.4176 43.1844 62.4959 43.0365 62.476 42.9318C62.4561 42.8271 62.4124 42.8302 62.325 42.7644C62.1878 42.6815 62.0889 42.5477 62.05 42.3921C62.0389 42.309 62.0465 42.2245 62.0723 42.1447C62.0981 42.0649 62.1415 41.992 62.1992 41.9312C62.285 41.8131 62.3567 41.6853 62.4129 41.5506C62.4587 41.4415 62.484 41.3249 62.4876 41.2066C62.4906 41.09 62.5128 40.9747 62.5535 40.8654C62.655 40.5934 62.7342 40.3335 62.8179 40.059C62.9015 39.7844 62.97 39.5427 63.0814 39.2282C63.3742 38.4968 63.7126 37.7846 64.0947 37.0956C64.24 36.8586 64.3637 36.6089 64.4642 36.3496C64.6308 35.5758 65.815 34.776 66.6798 34.1893C66.9132 34.0464 67.1379 33.8896 67.3525 33.7197C68.3916 32.7541 69.3803 31.7355 70.3145 30.668C70.3447 30.6341 70.3872 30.6135 70.4325 30.6109C70.4779 30.6082 70.5224 30.6237 70.5564 30.6538C70.5732 30.6685 70.5869 30.6864 70.5967 30.7064C70.6065 30.7264 70.6123 30.7482 70.6137 30.7704C70.6151 30.7927 70.612 30.815 70.6048 30.8361C70.5975 30.8572 70.5861 30.8766 70.5713 30.8933C69.6299 31.9707 68.6332 32.9985 67.5852 33.9726C67.362 34.1551 67.1284 34.3245 66.8854 34.4797C66.1147 35.0006 64.9526 35.7802 64.8124 36.4282C64.7048 36.7255 64.5661 37.0106 64.3987 37.2788C64.0318 37.9473 63.7046 38.6368 63.4187 39.3437C63.312 39.6515 63.2327 39.9114 63.1588 40.1621C63.0849 40.4128 62.9979 40.7078 62.8879 40.9906C62.8565 41.0713 62.8403 41.1571 62.84 41.2437C62.8332 41.398 62.7993 41.5499 62.7398 41.6924C62.6749 41.8556 62.5899 42.01 62.4867 42.1522C62.4034 42.2719 62.3827 42.3058 62.3925 42.3541C62.4023 42.4025 62.4519 42.4518 62.5376 42.5145C62.6672 42.5934 62.7646 42.7159 62.8124 42.86C62.8248 42.9982 62.8026 43.1374 62.7478 43.2649C62.6929 43.3924 62.6072 43.5042 62.4983 43.5903C62.4768 43.6133 62.4495 43.63 62.4192 43.6385C62.3888 43.647 62.3568 43.647 62.3265 43.6385Z" fill="#D5DADD"/>
<path d="M70.8055 29.5466L69.7783 30.3126C69.7584 30.3277 69.7427 30.3478 69.7328 30.3708C69.7229 30.3938 69.719 30.4189 69.7216 30.4438C69.7242 30.4687 69.7331 30.4925 69.7476 30.513C69.762 30.5334 69.7815 30.5498 69.8041 30.5606L71.0638 31.1991C71.0862 31.2095 71.1108 31.2141 71.1355 31.2124C71.1601 31.2107 71.1839 31.2029 71.2046 31.1895C71.2254 31.1761 71.2424 31.1577 71.2541 31.136C71.2658 31.1143 71.2718 31.09 71.2716 31.0653L71.2828 29.7675" fill="#5D36FF"/>
<path d="M93.2483 99.2732C92.3562 102.781 86.2347 106.099 85.1964 106.57C85.113 106.586 85.0271 106.585 84.944 106.567C84.861 106.549 84.7826 106.514 84.7139 106.463C82.7973 103.615 80.2201 100.036 81.05 96.1985C81.8799 92.361 85.4034 90.1408 88.8759 91.024C92.3484 91.9073 94.2161 95.4708 93.2483 99.2732Z" fill="#5D36FF"/>
<path d="M82.2186 94.9006C82.1772 94.8989 82.137 94.8863 82.102 94.8642C82.0495 94.8304 82.0124 94.7772 81.999 94.7163C81.9855 94.6553 81.9968 94.5915 82.0302 94.5387C82.1433 94.359 82.2695 94.1879 82.4077 94.0267C82.4284 94.0034 82.4534 93.9844 82.4815 93.9708C82.5095 93.9572 82.5399 93.9493 82.5711 93.9475C82.6022 93.9457 82.6333 93.9501 82.6627 93.9604C82.6921 93.9707 82.7192 93.9867 82.7424 94.0075C82.7655 94.0283 82.7843 94.0535 82.7977 94.0816C82.8111 94.1097 82.8188 94.1402 82.8204 94.1713C82.8219 94.2023 82.8174 94.2334 82.8069 94.2627C82.7964 94.2921 82.7803 94.319 82.7593 94.3421C82.6391 94.4869 82.5289 94.6398 82.4294 94.7996C82.406 94.8332 82.3743 94.8603 82.3374 94.878C82.3004 94.8957 82.2595 94.9035 82.2186 94.9006Z" fill="#3B0AC6"/>
<path d="M84.7141 106.457L83.9598 107.367C83.9452 107.385 83.9355 107.406 83.9316 107.429C83.9277 107.452 83.9297 107.475 83.9375 107.497C83.9452 107.519 83.9584 107.538 83.9758 107.553C83.9932 107.568 84.0142 107.579 84.0368 107.584L85.3054 107.882C85.3277 107.886 85.3508 107.885 85.3725 107.878C85.3942 107.871 85.4138 107.859 85.4295 107.843C85.4452 107.826 85.4565 107.806 85.4622 107.784C85.468 107.762 85.4681 107.739 85.4625 107.717L85.19 106.551" fill="#5D36FF"/>
</g>
<path d="M116.482 106.527C116.357 106.49 116.252 106.405 116.19 106.29C116.128 106.176 116.113 106.042 116.15 105.917C116.343 105.263 116.328 104.78 116.132 104.549C115.936 104.317 115.83 104.369 115.509 104.365C115.047 104.341 114.612 104.139 114.296 103.801C114.154 103.604 114.057 103.378 114.013 103.14C113.969 102.901 113.979 102.655 114.042 102.421C114.1 102.004 114.105 101.581 114.058 101.162C114.027 100.822 113.931 100.491 113.776 100.187C113.623 99.9005 113.519 99.5907 113.468 99.2702C113.362 98.4615 113.473 97.6392 113.79 96.8875C113.165 96.1615 112.74 95.2847 112.558 94.3439C112.309 92.8335 112.894 91.2713 113.499 89.6658C113.548 89.4986 113.595 89.339 113.64 89.1871C113.926 88.5534 114.098 87.8745 114.149 87.1813C114.182 86.5219 114.096 85.8619 113.897 85.2324C113.132 82.6448 114.544 77.9401 115.67 74.6217L115.706 74.5001C117.014 70.6182 118.117 66.6702 119.011 62.6724C119.019 62.6028 119.041 62.5356 119.077 62.4753C119.113 62.4149 119.161 62.3628 119.218 62.3222C119.275 62.2816 119.34 62.2535 119.409 62.2398C119.478 62.2261 119.548 62.227 119.617 62.2424C119.685 62.2579 119.75 62.2876 119.806 62.3297C119.862 62.3717 119.908 62.4251 119.943 62.4863C119.977 62.5475 119.997 62.6153 120.004 62.6851C120.01 62.755 120.001 62.8253 119.978 62.8916C119.075 66.9224 117.963 70.9033 116.645 74.8181L116.636 74.8485C114.961 79.7729 114.37 83.1252 114.863 84.815C115.108 85.5627 115.212 86.3496 115.17 87.1354C115.118 87.9331 114.924 88.715 114.597 89.4442C114.552 89.5962 114.507 89.7482 114.46 89.9078C113.861 91.4905 113.344 92.8824 113.56 94.1106C113.674 94.7444 113.933 95.3435 114.316 95.8614C114.737 95.219 115.374 94.7478 116.111 94.5323C117.071 94.3031 118.336 94.5769 118.712 95.431C118.803 95.6704 118.839 95.9274 118.817 96.1826C118.795 96.4378 118.715 96.6846 118.583 96.9045C118.437 97.245 118.213 97.5464 117.929 97.7847C117.645 98.0231 117.309 98.1918 116.949 98.2773C116.588 98.3628 116.213 98.3627 115.852 98.2772C115.491 98.1916 115.156 98.0229 114.872 97.7845L114.607 97.5908C114.463 98.054 114.42 98.5428 114.482 99.024C114.509 99.2604 114.582 99.4894 114.696 99.6983C114.896 100.099 115.02 100.533 115.062 100.979C115.116 101.472 115.111 101.969 115.046 102.461C114.998 102.876 114.997 102.992 115.089 103.101C115.18 103.211 115.37 103.267 115.678 103.316C116.142 103.337 116.58 103.537 116.901 103.875C117.125 104.207 117.263 104.59 117.299 104.99C117.336 105.389 117.271 105.791 117.111 106.159C117.074 106.284 116.989 106.39 116.875 106.454C116.76 106.517 116.625 106.533 116.499 106.498L116.482 106.527ZM115.003 96.6669C115.134 96.7862 115.272 96.8961 115.418 96.9957C115.778 97.2835 116.236 97.4186 116.695 97.372C116.91 97.3008 117.109 97.1869 117.28 97.037C117.45 96.8872 117.589 96.7045 117.687 96.4999C117.804 96.31 117.844 96.0828 117.8 95.8642C117.609 95.6846 117.373 95.5594 117.117 95.5014C116.861 95.4434 116.594 95.4548 116.344 95.5344C115.766 95.7217 115.285 96.1283 115.003 96.6669Z" fill="#D5DADD"/>
<path d="M150.686 35.5946C146.906 47.3813 125.258 57.4197 121.642 58.8152C121.354 58.853 121.061 58.8301 120.783 58.7479C120.504 58.6658 120.245 58.5262 120.024 58.3382C114.076 48.202 106.03 35.4322 109.674 22.5071C113.319 9.58209 125.825 2.73777 137.474 6.47693C149.123 10.2161 154.803 22.7758 150.686 35.5946Z" fill="#F58B00"/>
<path d="M120.026 58.3301L117.276 61.302C117.221 61.3603 117.183 61.4319 117.164 61.5095C117.146 61.5872 117.148 61.6684 117.17 61.745C117.193 61.8217 117.235 61.8911 117.292 61.9466C117.35 62.002 117.42 62.0416 117.498 62.0613L121.776 63.3222C121.851 63.3426 121.931 63.3434 122.007 63.3244C122.083 63.3055 122.152 63.2675 122.21 63.214C122.267 63.1605 122.309 63.0934 122.333 63.0189C122.357 62.9444 122.361 62.865 122.346 62.7882L121.67 58.7486" fill="#F58B00"/>
<path d="M117.192 14.2341C117.122 14.2119 117.057 14.1786 116.998 14.1356C116.949 14.0919 116.909 14.039 116.88 13.9799C116.852 13.9208 116.835 13.8567 116.832 13.7911C116.828 13.7256 116.837 13.66 116.859 13.598C116.88 13.5361 116.914 13.479 116.958 13.4301C118.825 11.4511 121.07 9.86607 123.56 8.76862C123.619 8.7309 123.685 8.70608 123.754 8.69573C123.824 8.68538 123.895 8.68976 123.962 8.70858C124.03 8.7274 124.092 8.76024 124.146 8.80496C124.2 8.84968 124.244 8.90527 124.275 8.96811C124.307 9.03096 124.324 9.09965 124.327 9.1697C124.33 9.23976 124.317 9.30962 124.291 9.37472C124.265 9.43982 124.226 9.49869 124.176 9.54752C124.125 9.59634 124.065 9.63403 123.999 9.6581C121.623 10.7052 119.479 12.2157 117.693 14.1011C117.631 14.1687 117.551 14.2171 117.462 14.2407C117.373 14.2642 117.279 14.2619 117.192 14.2341Z" fill="#CC7400"/>
<path d="M113.893 18.0023L113.733 17.9553C113.68 17.9174 113.635 17.8693 113.6 17.8138C113.566 17.7582 113.543 17.6964 113.533 17.6318C113.523 17.5673 113.525 17.5014 113.541 17.4379C113.557 17.3744 113.585 17.3147 113.624 17.2623C114.041 16.6886 114.496 16.1441 114.988 15.6326C115.081 15.5409 115.208 15.4902 115.339 15.4917C115.47 15.4932 115.596 15.5467 115.687 15.6406C115.779 15.7344 115.83 15.8609 115.828 15.9921C115.827 16.1233 115.773 16.2485 115.679 16.3402C115.22 16.8086 114.796 17.3103 114.411 17.8412C114.348 17.9137 114.266 17.9671 114.175 17.9956C114.083 18.0241 113.986 18.0264 113.893 18.0023Z" fill="#CC7400"/>
</svg>
