<svg width="160" height="75" viewBox="0 0 160 75" fill="none" xmlns="http://www.w3.org/2000/svg">
<g clip-path="url(#clip0_4038_85599)">
<rect y="6.09766" width="159.658" height="68.8525" rx="12" fill="#D5DADD"/>
<rect y="6.09766" width="159.658" height="68.8525" rx="11.9743" fill="#222F3B"/>
<path d="M99.5661 17.6504C98.9324 16.2085 97.5554 15.4651 95.7892 15.6048C94.4371 15.7146 93.4392 16.1536 92.8155 16.917C91.8426 18.1094 92.0422 19.7459 92.1869 20.9434C92.2418 21.3774 92.2917 21.8265 92.2617 22.061C92.2617 22.0809 92.2567 22.0909 92.2567 22.0909C92.2318 22.1159 92.1919 22.1358 92.137 22.1558C92.122 20.4794 92.0073 18.7531 91.7628 16.9868L91.2838 13.4694C91.8326 12.8757 92.0921 12.2869 92.0172 11.7231C92.0172 11.7082 92.0172 11.6932 92.0123 11.6782L91.6929 9.34322C91.2888 6.39454 81.844 5.24201 70.5881 6.77872C59.3372 8.31542 50.5411 11.9476 50.9402 14.9013L51.2595 17.2363C51.2595 17.2363 51.2595 17.2663 51.2645 17.2812C51.3593 17.9747 51.958 18.5685 52.9609 19.0474C53.1555 20.4594 53.3201 21.6868 53.38 22.1308C53.2203 21.8564 53.0258 21.592 52.7713 21.3675C52.0329 20.7139 50.9752 20.4395 49.623 20.5492C47.8568 20.6939 46.6195 21.6469 46.2203 23.1736C45.5717 25.6683 47.2431 28.9961 50.112 30.917C52.1925 32.309 53.9538 33.6262 55.3308 34.8137L54.0286 36.1757L53.9787 36.2207C53.9787 36.2207 52.4769 37.5229 51.8233 38.4958C51.1747 39.4737 52.1476 41.7488 53.2453 46.4188C54.3429 51.0938 54.2382 54.6013 54.2382 54.6013C54.0585 55.3148 53.8191 56.0133 53.5197 56.6918L52.5268 58.927L50.0871 64.4552H50.0821L39.4149 88.5635H48.0614H55.5254C57.561 83.1751 61.4577 72.2634 63.8526 65.7524L65.3494 74.4887C65.3494 74.4887 65.3593 74.5436 65.3893 74.6184C65.3993 74.6384 65.4092 74.6583 65.4192 74.6783C65.4342 74.7032 65.4442 74.7232 65.4641 74.7531C65.4791 74.7781 65.504 74.803 65.524 74.828C65.534 74.8429 65.544 74.8529 65.5539 74.8679C65.5539 74.8679 65.5639 74.8778 65.5689 74.8828C65.7086 75.0225 65.9132 75.1523 66.1776 75.262C66.2824 75.3219 66.467 75.3768 66.6715 75.4317C66.9559 75.5165 67.2852 75.5863 67.6494 75.6462C67.6794 75.6512 67.6993 75.6562 67.6993 75.6562C70.4434 76.1052 75.2931 75.9705 80.7214 75.4067C88.9139 74.5585 95.3252 72.4181 95.0358 70.7866L93.3244 61.0974H93.2945C93.2945 61.0974 93.2945 61.0974 93.2945 61.0924H93.3244L93.1049 59.4908C92.7257 57.2955 86.7036 57.3554 80.6915 55.4495L78.8205 46.0646C82.8569 44.7474 86.2346 41.7089 88.5746 37.4929C88.6894 37.6676 88.8191 37.8272 88.9788 37.9569C89.4178 38.3261 89.9666 38.4858 90.5703 38.4359C90.8647 38.411 91.174 38.3361 91.4934 38.2164C91.9125 38.0517 92.117 37.5827 91.9524 37.1636C91.7877 36.7445 91.3187 36.54 90.8996 36.7046C90.6701 36.7944 90.251 36.9142 90.0165 36.7146C89.787 36.52 89.6174 35.9562 89.802 34.9484C89.9916 34.4943 90.1662 34.0303 90.3308 33.5564C91.3337 31.6804 93.6487 28.9961 96.9517 25.9177C99.4763 23.5628 100.594 20.0104 99.5561 17.6504H99.5661ZM73.2924 46.7631L73.5468 49.617L74.0757 56.6369C74.0757 56.6369 71.102 58.4281 69.74 59.1266C69.725 59.1316 69.715 59.1416 69.7 59.1465C69.6801 59.1565 69.6601 59.1665 69.6402 59.1765C69.5753 59.2114 69.5055 59.2413 69.4406 59.2763C69.0415 59.4659 68.0685 59.9349 67.0807 60.4088C70.0293 55.5792 69.74 46.2142 69.74 46.2142C70.1491 46.339 70.9723 46.4687 71.7307 46.5685C72.2496 46.6583 72.7685 46.7281 73.2924 46.7631ZM54.0835 26.0075L54.1284 26.2271L54.1633 26.3568C54.1633 26.3568 54.1683 26.3867 54.1733 26.4067C54.1633 26.4067 54.1484 26.4017 54.1434 26.3967C54.1434 26.3967 54.1384 26.3867 54.1284 26.3668C54.0985 26.262 54.0735 26.1073 54.0585 25.9277C54.0635 25.9576 54.0735 25.9876 54.0785 26.0125L54.0835 26.0075ZM51.0101 29.5699C48.4955 27.8885 47.3779 25.1544 47.787 23.5827C48.0065 22.7295 48.6701 22.2556 49.7478 22.1707C50.6409 22.1009 51.2945 22.2406 51.6886 22.5849C52.3223 23.1487 52.3672 24.2962 52.4121 25.309C52.437 25.8978 52.457 26.4067 52.5867 26.8358C52.7364 27.3197 53.0607 27.6839 53.5197 27.8835C53.849 28.0282 54.2332 28.0681 54.6174 28.0482L54.6523 28.1479C54.8918 28.9712 55.1562 29.7745 55.4456 30.5528L55.4605 30.5977L55.5005 30.6925C55.7998 31.4908 56.1191 32.2641 56.4634 33.0075L56.4834 33.0574L56.638 33.4366L56.4534 33.6312C54.772 32.1693 52.7863 30.7424 51.0151 29.5599L51.0101 29.5699ZM95.854 24.7303C94.4321 26.0574 92.8654 27.6091 91.5183 29.1708C91.8426 27.4644 92.0422 25.6683 92.107 23.8072C92.4713 23.7623 92.8155 23.6576 93.1049 23.473C93.529 23.1985 93.7884 22.7894 93.8583 22.2855C93.9182 21.8415 93.8583 21.3375 93.7884 20.7488C93.6637 19.741 93.529 18.5984 94.0629 17.9448C94.3971 17.5357 95.0158 17.2962 95.9089 17.2213C96.9866 17.1365 97.715 17.5007 98.0693 18.304C98.7229 19.7859 98.0593 22.6647 95.844 24.7303H95.854Z" fill="#101619"/>
</g>
<path fill-rule="evenodd" clip-rule="evenodd" d="M103.629 57.1533L73.8876 60.2367L75.6239 69.921L75.6538 70.5496C75.9482 72.1811 82.8334 72.3109 91.0259 71.4577C99.2183 70.6095 105.63 68.4691 105.34 66.8376" fill="#D0CDB3"/>
<path d="M89.2973 63.1067C97.4934 61.9883 103.9 59.3399 103.607 57.1912C103.314 55.0425 96.4317 54.2073 88.2355 55.3256C80.0394 56.444 73.6328 59.0924 73.926 61.2411C74.2192 63.3898 81.1011 64.2251 89.2973 63.1067Z" fill="#D0B863"/>
<path fill-rule="evenodd" clip-rule="evenodd" d="M103.409 55.5422C102.955 52.9228 94.443 53.5165 87.5228 50.1338C81.7951 55.7967 73.403 56.9592 73.6675 59.5985L73.887 61.2001L103.628 57.1438L103.409 55.5422Z" fill="#D0B863"/>
<path fill-rule="evenodd" clip-rule="evenodd" d="M82.7928 33.8531L84.5889 53.8303C84.7586 54.9928 87.1085 55.8011 88.2661 55.6315C89.4286 55.4618 91.5041 54.3841 91.3395 53.2216L87.4179 33.5488C87.3331 32.975 85.5319 32.5758 84.9532 32.6557C84.3794 32.7405 82.708 33.2743 82.7928 33.8481V33.8531Z" fill="#D0B863"/>
<path fill-rule="evenodd" clip-rule="evenodd" d="M102.063 13.0376L101.299 7.43456C101.045 5.57854 99.3385 4.28132 97.4825 4.53577L65.8253 8.85153C64.9322 8.97127 64.1289 9.44526 63.5851 10.1587C63.0413 10.8722 62.8018 11.7753 62.9265 12.6684C63.2758 15.2428 63.7048 18.3612 63.7048 18.3612C65.8602 33.9228 75.9985 44.1459 86.5709 42.709C97.1582 41.2671 104.198 28.6441 102.068 13.0376H102.063Z" fill="#D0B863"/>
<path d="M76.497 63.0157C76.482 62.2922 76.6816 60.7904 77.0508 60.1717C77.5248 59.3784 78.8869 58.0762 79.6353 57.5324C81.2069 56.3948 86.321 53.5759 86.321 53.5759L85.4378 41.6015L77.1007 37.5901L71.1934 28.8339L67.7807 16.2658L63.1356 14.2451L63.889 19.6735L64.4279 22.2779L64.9118 24.104L65.755 26.6585L66.7778 29.1232L70.2155 37.5801C70.2155 37.5801 77.2454 41.1176 80.0394 42.2651C80.8826 42.6094 83.5868 42.8339 83.5868 42.8339L84.3751 52.6928C84.3751 52.6928 80.9724 54.7434 79.78 55.3121C78.9218 55.7213 75.089 57.6761 75.089 57.6761C75.089 57.6761 74.1215 58.2939 73.8417 58.9234C73.5252 59.6356 73.8417 60.9192 73.8417 60.9192C73.8417 60.9192 74.2143 62.0872 74.3406 62.1665C74.5951 62.3261 75.6289 62.7562 75.6289 62.7562" fill="#C35500"/>
<path fill-rule="evenodd" clip-rule="evenodd" d="M101.989 5.39941L61.2366 10.9575L61.5559 13.2925C61.5559 13.2925 61.5559 13.3224 61.5609 13.3374C61.965 16.2861 71.4198 17.4336 82.6657 15.9019C93.9116 14.3702 102.713 10.728 102.314 7.77932C102.314 7.76435 102.314 7.74938 102.309 7.73441L101.989 5.39941Z" fill="#D0CDB3"/>
<path d="M82.3435 13.5187C93.5975 11.9831 102.394 8.34573 101.991 5.39436C101.589 2.44299 92.1392 1.29528 80.8852 2.83088C69.6312 4.36648 60.8345 8.00389 61.2372 10.9553C61.6399 13.9066 71.0896 15.0543 82.3435 13.5187Z" fill="#D0B863"/>
<path fill-rule="evenodd" clip-rule="evenodd" d="M80.924 4.43221C70.6909 5.82922 61.795 8.73799 62.1642 11.4222C62.5284 14.1065 72.043 14.9796 82.2761 13.5826C92.5092 12.1856 101.919 8.72801 101.555 6.04376C101.191 3.35951 91.1621 3.03521 80.929 4.42722L80.924 4.43221Z" fill="#450B00"/>
<path d="M68.7231 38.3042C68.4287 38.3291 68.1094 38.3042 67.7751 38.2343C67.3361 38.1395 67.0567 37.7105 67.1515 37.2714C67.2463 36.8323 67.6753 36.5529 68.1144 36.6477C68.3539 36.6976 68.788 36.7475 68.9875 36.518C69.1871 36.2835 69.2719 35.6748 68.8927 34.662C68.2491 32.9457 65.1557 30.1417 60.4109 26.9685C57.542 25.0526 55.8656 21.7247 56.5192 19.2251C56.9134 17.6983 58.1557 16.7454 59.9219 16.6007C61.2741 16.4909 62.3318 16.7653 63.0702 17.4189C64.2227 18.4417 64.2876 20.0882 64.3375 21.2956C64.3574 21.7347 64.3724 22.1837 64.4423 22.4082C64.4473 22.4282 64.4522 22.4382 64.4572 22.4382C64.6468 22.5928 65.6846 22.4132 66.5777 21.9792C66.9818 21.7846 67.4658 21.9542 67.6604 22.3534C67.855 22.7575 67.6853 23.2415 67.2862 23.436C66.922 23.6107 65.051 24.4638 63.8286 23.93C63.3696 23.7304 63.0453 23.3662 62.8956 22.8822C62.7659 22.4531 62.7459 21.9442 62.721 21.3555C62.681 20.3427 62.6361 19.1951 61.9975 18.6313C61.6033 18.2821 60.9497 18.1424 60.0567 18.2172C58.979 18.302 58.3154 18.781 58.0959 19.6292C57.6867 21.1958 58.8043 23.93 61.319 25.6164C64.9262 28.0262 69.4316 31.4539 70.4195 34.0882C70.9683 35.5551 70.8984 36.7924 70.2249 37.5758C69.8507 38.0098 69.3368 38.2543 68.7281 38.3042H68.7231Z" fill="#C35500"/>
<path d="M100.875 34.4875C100.267 34.5373 99.7177 34.3727 99.2837 34.0085C98.4904 33.3449 98.2259 32.1325 98.5353 30.5958C99.0891 27.8367 102.986 23.7305 106.159 20.7768C108.374 18.7112 109.038 15.8374 108.384 14.3506C108.03 13.5473 107.302 13.1831 106.224 13.2679C105.331 13.3378 104.707 13.5822 104.378 13.9914C103.839 14.6499 103.979 15.7925 104.103 16.7954C104.173 17.3791 104.238 17.888 104.173 18.3321C104.103 18.836 103.844 19.2451 103.42 19.5195C102.302 20.238 100.316 19.6991 99.9273 19.5844C99.4982 19.4547 99.2537 19.0056 99.3835 18.5765C99.5132 18.1475 99.9622 17.903 100.391 18.0327C101.344 18.3171 102.397 18.3321 102.557 18.1425C102.557 18.1425 102.557 18.1325 102.562 18.1125C102.597 17.878 102.542 17.429 102.487 16.9949C102.342 15.7975 102.143 14.161 103.115 12.9686C103.739 12.2052 104.737 11.7661 106.089 11.6564C107.855 11.5117 109.232 12.2601 109.866 13.702C110.909 16.0619 109.786 19.6143 107.262 21.9693C103.086 25.8609 100.481 29.1239 100.122 30.9201C99.9073 31.9828 100.087 32.5716 100.321 32.7711C100.556 32.9707 100.975 32.851 101.205 32.7612C101.624 32.5965 102.093 32.8061 102.257 33.2202C102.422 33.6343 102.212 34.1083 101.798 34.2729C101.479 34.3976 101.17 34.4725 100.875 34.4924V34.4875Z" fill="#D0B863"/>
<path d="M97.2877 16.2158C97.2877 16.2158 103.015 25.935 92.1836 36.5074C92.1836 36.5074 99.4331 27.7661 97.2877 16.2158Z" fill="#D5DADD"/>
<path d="M98.6446 68.898C98.6446 68.898 92.882 70.1104 90.9012 70.3648C88.8007 70.6343 82.4194 70.9236 82.4194 70.9236L81.7009 65.1809C81.7009 65.1809 88.0723 64.8916 90.1728 64.6221C92.1535 64.3677 97.9212 63.1553 97.9212 63.1553L98.6397 68.898H98.6446Z" fill="#D0B863"/>
<path d="M86.3259 70.7186L84.3901 70.8284L83.9011 65.0707L85.822 64.9609L86.3259 70.7186Z" fill="#D5DADD"/>
<g opacity="0.35">
<path d="M84.8092 70.8288L86.8498 70.6891L88.6959 70.5644L97.2476 63.2949L93.5854 64.0383L84.8092 70.8288Z" fill="#D5DADD"/>
</g>
<g opacity="0.35">
<path d="M83.806 70.9331L92.7069 64.1377L91.5993 64.2674L82.5387 70.978L83.806 70.9331Z" fill="#D5DADD"/>
</g>
<path d="M92.6463 68.0993C92.6463 68.0993 90.9649 68.4535 90.3862 68.5283C89.7725 68.6082 87.9115 68.693 87.9115 68.693L87.7019 67.0166C87.7019 67.0166 89.5629 66.9318 90.1766 66.8519C90.7554 66.7771 92.4418 66.4229 92.4418 66.4229L92.6513 68.0993H92.6463Z" fill="#450B00"/>
<path d="M75.6545 70.5493C75.6545 70.5493 75.6645 70.684 75.7793 70.8287C75.8741 70.9535 76.0687 71.0882 76.1385 71.1381C76.363 71.3077 76.9218 71.4624 77.1962 71.5422C77.4208 71.6071 78.1143 71.7218 78.1143 71.7218L76.5027 63.0055L74.1677 61.7881L75.6545 70.5443V70.5493Z" fill="#D0B863"/>
<path opacity="0.8" fill-rule="evenodd" clip-rule="evenodd" d="M61.2402 10.957C61.2402 10.957 61.4248 12.9378 61.6144 13.5714C61.7042 13.8608 62.0136 14.3947 62.273 14.5843C62.6971 14.8836 63.7399 15.3526 64.633 15.627C65.8503 16.0062 67.0378 16.1559 67.0378 16.1559L66.3543 13.7261C66.3543 13.7261 64.1889 13.2272 63.5253 12.9877C63.0563 12.818 62.0435 12.1694 61.6992 11.8052C61.4647 11.5607 61.2352 10.957 61.2352 10.957H61.2402Z" fill="#C35500"/>
<path fill-rule="evenodd" clip-rule="evenodd" d="M66.3532 13.726C66.3532 13.726 65.2356 13.5514 64.2627 13.2071C63.5692 12.9627 62.9305 12.5735 62.6362 12.2991C62.3618 12.0446 62.2071 11.7453 62.1672 11.4259C62.0873 10.7873 62.5214 10.1038 63.1451 9.67469C63.1451 9.67469 63.9933 8.98118 65.2406 8.40242C66.8172 7.66899 68.9526 6.99044 69.9405 6.68111C71.3725 6.23706 74.2164 5.54853 76.8657 5.07954C78.2627 4.83007 80.4281 4.46585 82.5036 4.23135C85.4174 3.90206 88.1415 3.73242 88.1415 3.73242C88.1415 3.73242 80.458 5.62836 77.2948 7.29978C75.299 8.35253 72.989 9.82437 72.066 10.7324C71.6868 11.1016 70.639 11.9349 69.9156 12.8778C69.3967 13.5564 68.9876 14.1002 68.9876 14.1002" fill="#8D2A00"/>
<g clip-path="url(#clip1_4038_85599)">
<path d="M84.6892 33.4756C84.6593 33.4756 84.6343 33.4955 84.6393 33.5255C84.6692 33.6702 84.6493 34.0294 84.6693 34.0943C84.7541 34.3437 84.9437 34.5433 85.1632 34.683C85.4276 34.8526 85.7419 34.9375 86.0513 35.0073C86.5901 35.127 87.129 35.2618 87.6529 35.4414C87.6529 35.4414 87.7975 33.9346 84.6892 33.4756Z" fill="#450B00"/>
<path d="M71.2391 37.8662C71.2391 37.8662 74.7267 39.6624 75.8842 40.2162C76.3781 40.4557 77.8101 41.1192 77.8101 41.1192C77.8101 41.1192 78.0296 53.6374 73.2149 57.0601C68.7095 60.2632 71.2391 37.8712 71.2391 37.8712V37.8662Z" fill="#450B00"/>
<path d="M68.0352 25.927C68.0352 25.927 71.6574 23.8016 72.9147 23.8065C76.6617 23.8215 85.7971 23.0432 87.3837 24.1807C88.9703 25.3183 86.4507 27.1494 83.7665 27.2292C81.0822 27.309 78.1984 27.7182 77.2205 27.5535C76.2476 27.3889 87.0145 31.6148 87.5184 33.9797C88.0274 36.3447 87.0944 37.2727 85.3232 37.0232C83.547 36.7688 78.7323 35.9256 77.8891 36.18C77.0459 36.4345 75.609 37.9562 75.0152 37.9562C74.4215 37.9562 73.8328 39.8123 74.0872 41.8429C74.3417 43.8686 79.2013 53.1686 73.8128 56.8857C73.7529 57.0453 73.6881 57.205 73.6232 57.3746V57.3896C71.6774 62.4737 66.4785 77.1223 64.0138 83.6583H47.8983L58.5655 59.55H58.5705L61.0102 54.0168L62.0031 51.7816C62.3025 51.1031 62.5419 50.4046 62.7216 49.6911C62.7216 49.6911 62.8263 46.1786 61.7287 41.5086C60.631 36.8336 59.6581 34.5585 60.3067 33.5856C60.9553 32.6077 62.4621 31.3105 62.4621 31.3105" fill="#C35500"/>
<path d="M62.4669 31.2956C62.4669 31.2956 60.9651 32.5978 60.3115 33.5707C59.6629 34.5486 60.6358 36.8237 61.7334 41.4987C62.8311 46.1737 62.7263 49.6862 62.7263 49.6862C62.5467 50.3996 62.3072 51.0981 62.0079 51.7767L61.015 54.0119L58.5752 59.5401H58.5702L47.9031 83.6484H56.5545C56.6843 82.9599 56.7092 82.2614 56.784 81.5679C57.0335 79.2878 57.5175 77.0426 58.1461 74.8373C58.7698 72.652 59.6828 70.5565 60.4312 68.4111C60.8104 67.3334 61.1497 66.2407 61.4241 65.1331C61.6985 64.0254 61.9081 62.9128 62.2324 61.8152C62.871 59.6498 63.7342 57.5593 64.6422 55.4937C64.6522 55.4638 64.6722 55.4438 64.6921 55.4239C64.9116 54.1267 65.2958 52.8644 65.4954 51.5621C65.6002 50.8587 65.6501 50.1352 65.5702 49.4267C65.4954 48.7482 65.3208 48.0896 65.1411 47.431C64.7919 46.1537 64.5125 44.8665 64.3429 43.5543C64.1882 42.3718 64.0385 41.0397 64.4875 39.9071C64.8418 39.014 65.4954 38.1908 65.5902 37.2229C65.0414 37.4623 64.5973 38.1559 64.263 38.57C63.9587 38.9442 63.4548 39.6926 62.876 39.478C62.2324 39.2435 62.0627 38.0112 62.1076 37.4524C62.1875 36.4944 63.1005 36.0404 63.3799 35.1772C63.3949 35.1274 63.4049 35.0625 63.4148 34.9926C63.1754 35.0825 62.9359 35.1074 62.6615 35.1673C62.2523 35.2521 61.7784 36.0803 61.3443 35.5714C61.0948 35.277 61.0948 34.6434 61.1796 34.3041C61.3044 33.7952 61.6436 33.3561 61.9729 32.957C62.5267 32.2834 63.1155 31.6548 63.7591 31.0661C64.4925 30.3925 65.2409 29.7289 65.8796 28.9606C66.1789 28.6013 66.5431 28.1423 66.6978 27.6534C66.7727 27.4189 66.9223 27.0147 66.7228 27.1594C66.4284 27.379 65.9095 27.7681 65.4954 28.1323" fill="#8D2A00"/>
<path d="M76.2774 30.9959C73.3537 31.1057 70.7293 32.8619 67.8904 33.4906C67.6709 33.5405 67.7307 33.8648 67.9552 33.8398C68.9282 33.7351 69.916 33.296 70.8441 32.9268C73.9923 31.6795 77.5896 31.2105 80.7478 32.4279C82.2396 33.0066 84.1506 34.3687 85.7421 34.1592L86.261 34.0943C83.2575 33.0615 79.4506 30.8762 76.2824 30.9959H76.2774Z" fill="#8D2A00"/>
<path d="M75.1344 26.7852C75.0147 26.7951 74.895 26.8201 74.7752 26.85C73.1038 27.2442 71.5721 28.0724 70.0603 28.8906C68.5885 29.6839 67.1116 30.4872 65.7446 31.4402C65.52 31.5998 65.7246 31.9491 65.9691 31.8244C67.3811 31.1159 68.7581 30.2078 70.1551 29.4594C72.2855 28.3169 74.6405 26.9398 76.8707 27.8728C77.1851 28.0075 81.5607 30.2527 81.7054 29.7738C81.7054 29.7738 76.1273 26.7053 75.1344 26.7901V26.7852Z" fill="#8D2A00"/>
<path d="M77.5751 34.2895C77.5502 34.2596 77.5153 34.2247 77.4753 34.2147C77.3756 34.1897 77.2957 34.2945 77.2508 34.3843C76.8168 35.3173 76.9614 36.6145 75.754 36.9538C75.4347 37.0436 75.0905 37.0286 74.7711 36.9438C74.5416 36.879 74.3121 36.8091 74.0826 36.7293C73.7783 36.6245 73.4989 36.9488 73.6535 37.2332V37.2432C73.8731 37.6473 73.9629 38.2161 73.3193 38.4356C73.2095 38.4706 73.0997 38.4905 72.985 38.4955C72.7205 38.5105 72.4561 38.5254 72.1967 38.5354C71.8374 38.5554 71.7925 39.0643 72.1418 39.1491C72.1917 39.1591 72.2416 39.1691 72.2865 39.179C72.6706 39.2489 73.1646 39.5283 72.98 39.9025C72.9101 40.0522 72.7555 40.142 72.5958 40.1619C72.521 40.1719 72.4212 40.1869 72.3114 40.2068C71.9721 40.2667 71.9921 40.7607 72.3364 40.7906C72.9151 40.8405 73.4939 40.8754 74.0327 40.8255C74.0726 40.0721 74.5366 39.179 74.6015 38.4157C74.6115 38.286 74.6364 38.251 74.7063 38.1413C74.7761 38.0365 74.9458 37.9467 75.0705 37.9467C75.3748 37.9467 76.6222 37.2083 77.2409 36.6046C77.8545 36.0058 78.1339 34.9431 77.5751 34.2845V34.2895Z" fill="#8D2A00"/>
</g>
<defs>
<clipPath id="clip0_4038_85599">
<rect y="6.09766" width="159.658" height="68.8525" rx="12" fill="white"/>
</clipPath>
<clipPath id="clip1_4038_85599">
<rect y="6.09766" width="159.658" height="68.8525" rx="12" fill="white"/>
</clipPath>
</defs>
</svg>
