<svg width="160" height="76" viewBox="0 0 160 76" fill="none" xmlns="http://www.w3.org/2000/svg">
<g clip-path="url(#clip0_4011_77996)">
<rect y="6.59766" width="159.658" height="68.8525" rx="12" fill="white"/>
<rect y="6.59766" width="159.658" height="68.8525" rx="11.9743" fill="#89D1FF"/>
<path d="M99.5661 18.1504C98.9324 16.7085 97.5554 15.9651 95.7892 16.1048C94.4371 16.2146 93.4392 16.6536 92.8155 17.417C91.8426 18.6094 92.0422 20.2459 92.1869 21.4434C92.2418 21.8774 92.2917 22.3265 92.2617 22.561C92.2617 22.5809 92.2567 22.5909 92.2567 22.5909C92.2318 22.6159 92.1919 22.6358 92.137 22.6558C92.122 20.9794 92.0073 19.2531 91.7628 17.4868L91.2838 13.9694C91.8326 13.3757 92.0921 12.7869 92.0172 12.2231C92.0172 12.2082 92.0172 12.1932 92.0123 12.1782L91.6929 9.84322C91.2888 6.89454 81.844 5.74201 70.5881 7.27872C59.3372 8.81542 50.5411 12.4476 50.9402 15.4013L51.2595 17.7363C51.2595 17.7363 51.2595 17.7663 51.2645 17.7812C51.3593 18.4747 51.958 19.0685 52.9609 19.5474C53.1555 20.9594 53.3201 22.1868 53.38 22.6308C53.2203 22.3564 53.0258 22.092 52.7713 21.8675C52.0329 21.2139 50.9752 20.9395 49.623 21.0492C47.8568 21.1939 46.6195 22.1469 46.2203 23.6736C45.5717 26.1683 47.2431 29.4961 50.112 31.417C52.1925 32.809 53.9538 34.1262 55.3308 35.3137L54.0286 36.6757L53.9787 36.7207C53.9787 36.7207 52.4769 38.0229 51.8233 38.9958C51.1747 39.9737 52.1476 42.2488 53.2453 46.9188C54.3429 51.5938 54.2382 55.1013 54.2382 55.1013C54.0585 55.8148 53.8191 56.5133 53.5197 57.1918L52.5268 59.427L50.0871 64.9552H50.0821L39.4149 89.0635H48.0614H55.5254C57.561 83.6751 61.4577 72.7634 63.8526 66.2524L65.3494 74.9887C65.3494 74.9887 65.3593 75.0436 65.3893 75.1184C65.3993 75.1384 65.4092 75.1583 65.4192 75.1783C65.4342 75.2032 65.4442 75.2232 65.4641 75.2531C65.4791 75.2781 65.504 75.303 65.524 75.328C65.534 75.3429 65.544 75.3529 65.5539 75.3679C65.5539 75.3679 65.5639 75.3778 65.5689 75.3828C65.7086 75.5225 65.9132 75.6523 66.1776 75.762C66.2824 75.8219 66.467 75.8768 66.6715 75.9317C66.9559 76.0165 67.2852 76.0863 67.6494 76.1462C67.6794 76.1512 67.6993 76.1562 67.6993 76.1562C70.4434 76.6052 75.2931 76.4705 80.7214 75.9067C88.9139 75.0585 95.3252 72.9181 95.0358 71.2866L93.3244 61.5974H93.2945C93.2945 61.5974 93.2945 61.5974 93.2945 61.5924H93.3244L93.1049 59.9908C92.7257 57.7955 86.7036 57.8554 80.6915 55.9495L78.8205 46.5646C82.8569 45.2474 86.2346 42.2089 88.5746 37.9929C88.6894 38.1676 88.8191 38.3272 88.9788 38.4569C89.4178 38.8261 89.9666 38.9858 90.5703 38.9359C90.8647 38.911 91.174 38.8361 91.4934 38.7164C91.9125 38.5517 92.117 38.0827 91.9524 37.6636C91.7877 37.2445 91.3187 37.04 90.8996 37.2046C90.6701 37.2944 90.251 37.4142 90.0165 37.2146C89.787 37.02 89.6174 36.4562 89.802 35.4484C89.9916 34.9943 90.1662 34.5303 90.3308 34.0564C91.3337 32.1804 93.6487 29.4961 96.9517 26.4177C99.4763 24.0628 100.594 20.5104 99.5561 18.1504H99.5661ZM73.2924 47.2631L73.5468 50.117L74.0757 57.1369C74.0757 57.1369 71.102 58.9281 69.74 59.6266C69.725 59.6316 69.715 59.6416 69.7 59.6465C69.6801 59.6565 69.6601 59.6665 69.6402 59.6765C69.5753 59.7114 69.5055 59.7413 69.4406 59.7763C69.0415 59.9659 68.0685 60.4349 67.0807 60.9088C70.0293 56.0792 69.74 46.7142 69.74 46.7142C70.1491 46.839 70.9723 46.9687 71.7307 47.0685C72.2496 47.1583 72.7685 47.2281 73.2924 47.2631ZM54.0835 26.5075L54.1284 26.7271L54.1633 26.8568C54.1633 26.8568 54.1683 26.8867 54.1733 26.9067C54.1633 26.9067 54.1484 26.9017 54.1434 26.8967C54.1434 26.8967 54.1384 26.8867 54.1284 26.8668C54.0985 26.762 54.0735 26.6073 54.0585 26.4277C54.0635 26.4576 54.0735 26.4876 54.0785 26.5125L54.0835 26.5075ZM51.0101 30.0699C48.4955 28.3885 47.3779 25.6544 47.787 24.0827C48.0065 23.2295 48.6701 22.7556 49.7478 22.6707C50.6409 22.6009 51.2945 22.7406 51.6886 23.0849C52.3223 23.6487 52.3672 24.7962 52.4121 25.809C52.437 26.3978 52.457 26.9067 52.5867 27.3358C52.7364 27.8197 53.0607 28.1839 53.5197 28.3835C53.849 28.5282 54.2332 28.5681 54.6174 28.5482L54.6523 28.6479C54.8918 29.4712 55.1562 30.2745 55.4456 31.0528L55.4605 31.0977L55.5005 31.1925C55.7998 31.9908 56.1191 32.7641 56.4634 33.5075L56.4834 33.5574L56.638 33.9366L56.4534 34.1312C54.772 32.6693 52.7863 31.2424 51.0151 30.0599L51.0101 30.0699ZM95.854 25.2303C94.4321 26.5574 92.8654 28.1091 91.5183 29.6708C91.8426 27.9644 92.0422 26.1683 92.107 24.3072C92.4713 24.2623 92.8155 24.1576 93.1049 23.973C93.529 23.6985 93.7884 23.2894 93.8583 22.7855C93.9182 22.3415 93.8583 21.8375 93.7884 21.2488C93.6637 20.241 93.529 19.0984 94.0629 18.4448C94.3971 18.0357 95.0158 17.7962 95.9089 17.7213C96.9866 17.6365 97.715 18.0007 98.0693 18.804C98.7229 20.2859 98.0593 23.1647 95.844 25.2303H95.854Z" fill="#1B90FF"/>
</g>
<path fill-rule="evenodd" clip-rule="evenodd" d="M103.629 57.6533L73.8876 60.7367L75.6239 70.421L75.6538 71.0496C75.9482 72.6811 82.8335 72.8109 91.0259 71.9577C99.2184 71.1095 105.63 68.9691 105.34 67.3376" fill="#FFF8D6"/>
<path d="M89.2973 63.6067C97.4934 62.4883 103.9 59.8399 103.607 57.6912C103.314 55.5425 96.4317 54.7073 88.2355 55.8256C80.0394 56.944 73.6328 59.5924 73.926 61.7411C74.2192 63.8898 81.1011 64.7251 89.2973 63.6067Z" fill="#FFDF72"/>
<path fill-rule="evenodd" clip-rule="evenodd" d="M103.409 56.0422C102.955 53.4228 94.443 54.0165 87.5228 50.6338C81.7951 56.2967 73.403 57.4592 73.6675 60.0985L73.887 61.7001L103.628 57.6438L103.409 56.0422Z" fill="#FFDF72"/>
<path fill-rule="evenodd" clip-rule="evenodd" d="M82.7928 34.3531L84.5889 54.3303C84.7586 55.4928 87.1085 56.3011 88.2661 56.1315C89.4286 55.9618 91.5041 54.8841 91.3395 53.7216L87.4179 34.0488C87.3331 33.475 85.5319 33.0758 84.9532 33.1557C84.3794 33.2405 82.708 33.7743 82.7928 34.3481V34.3531Z" fill="#FFDF72"/>
<path fill-rule="evenodd" clip-rule="evenodd" d="M102.063 13.5376L101.299 7.93456C101.045 6.07854 99.3385 4.78132 97.4825 5.03577L65.8253 9.35153C64.9322 9.47127 64.1289 9.94526 63.5851 10.6587C63.0413 11.3722 62.8018 12.2753 62.9265 13.1684C63.2758 15.7428 63.7048 18.8612 63.7048 18.8612C65.8602 34.4228 75.9985 44.6459 86.5709 43.209C97.1582 41.7671 104.198 29.1441 102.068 13.5376H102.063Z" fill="#FFDF72"/>
<path d="M76.4971 63.5157C76.4821 62.7922 76.6817 61.2904 77.0509 60.6717C77.5249 59.8784 78.8869 58.5762 79.6353 58.0324C81.207 56.8948 86.321 54.0759 86.321 54.0759L85.4379 42.1015L77.1008 38.0901L71.1934 29.3339L67.7807 16.7658L63.1357 14.7451L63.8891 20.1735L64.4279 22.7779L64.9119 24.604L65.7551 27.1585L66.7779 29.6232L70.2155 38.0801C70.2155 38.0801 77.2455 41.6176 80.0395 42.7651C80.8827 43.1094 83.5869 43.3339 83.5869 43.3339L84.3752 53.1928C84.3752 53.1928 80.9725 55.2434 79.78 55.8121C78.9219 56.2213 75.0891 58.1761 75.0891 58.1761C75.0891 58.1761 74.1215 58.7939 73.8418 59.4234C73.5252 60.1356 73.8418 61.4192 73.8418 61.4192C73.8418 61.4192 74.2144 62.5872 74.3407 62.6665C74.5951 62.8261 75.6289 63.2562 75.6289 63.2562" fill="#C35500"/>
<path fill-rule="evenodd" clip-rule="evenodd" d="M101.989 5.89941L61.2365 11.4575L61.5558 13.7925C61.5558 13.7925 61.5558 13.8224 61.5608 13.8374C61.965 16.7861 71.4197 17.9336 82.6656 16.4019C93.9115 14.8702 102.713 11.228 102.314 8.27932C102.314 8.26435 102.314 8.24938 102.309 8.23441L101.989 5.89941Z" fill="#FFF8D6"/>
<path d="M82.3435 14.0178C93.5975 12.4822 102.394 8.84475 101.991 5.89338C101.589 2.94201 92.1391 1.7943 80.8851 3.3299C69.6312 4.8655 60.8345 8.50291 61.2372 11.4543C61.6399 14.4056 71.0895 15.5534 82.3435 14.0178Z" fill="#FFDF72"/>
<path fill-rule="evenodd" clip-rule="evenodd" d="M80.924 4.93124C70.6909 6.32824 61.7949 9.23701 62.1641 11.9213C62.5284 14.6055 72.043 15.4786 82.2761 14.0816C92.5091 12.6846 101.919 9.22703 101.555 6.54278C101.191 3.85853 91.162 3.53423 80.929 4.92625L80.924 4.93124Z" fill="#450B00"/>
<path d="M68.7232 38.8042C68.4288 38.8291 68.1095 38.8042 67.7752 38.7343C67.3361 38.6395 67.0567 38.2105 67.1515 37.7714C67.2463 37.3323 67.6754 37.0529 68.1145 37.1477C68.3539 37.1976 68.788 37.2475 68.9876 37.018C69.1872 36.7835 69.272 36.1748 68.8928 35.162C68.2492 33.4457 65.1558 30.6417 60.411 27.4685C57.5421 25.5526 55.8657 22.2247 56.5193 19.7251C56.9135 18.1983 58.1558 17.2454 59.922 17.1007C61.2741 16.9909 62.3318 17.2653 63.0703 17.9189C64.2228 18.9417 64.2877 20.5882 64.3376 21.7956C64.3575 22.2347 64.3725 22.6837 64.4423 22.9082C64.4473 22.9282 64.4523 22.9382 64.4573 22.9382C64.6469 23.0928 65.6847 22.9132 66.5778 22.4792C66.9819 22.2846 67.4658 22.4542 67.6604 22.8534C67.855 23.2575 67.6854 23.7415 67.2862 23.936C66.922 24.1107 65.051 24.9638 63.8286 24.43C63.3696 24.2304 63.0453 23.8662 62.8956 23.3822C62.7659 22.9531 62.746 22.4442 62.721 21.8555C62.6811 20.8427 62.6362 19.6951 61.9976 19.1313C61.6034 18.7821 60.9498 18.6424 60.0567 18.7172C58.979 18.802 58.3154 19.281 58.0959 20.1292C57.6868 21.6958 58.8044 24.43 61.319 26.1164C64.9263 28.5262 69.4316 31.9539 70.4195 34.5882C70.9683 36.0551 70.8985 37.2924 70.2249 38.0758C69.8507 38.5098 69.3368 38.7543 68.7281 38.8042H68.7232Z" fill="#C35500"/>
<path d="M100.875 34.9875C100.267 35.0373 99.7178 34.8727 99.2837 34.5085C98.4904 33.8449 98.226 32.6325 98.5353 31.0958C99.0892 28.3367 102.986 24.2305 106.159 21.2768C108.374 19.2112 109.038 16.3374 108.384 14.8506C108.03 14.0473 107.302 13.6831 106.224 13.7679C105.331 13.8378 104.707 14.0822 104.378 14.4914C103.839 15.1499 103.979 16.2925 104.103 17.2954C104.173 17.8791 104.238 18.388 104.173 18.8321C104.103 19.336 103.844 19.7451 103.42 20.0195C102.302 20.738 100.317 20.1991 99.9274 20.0844C99.4983 19.9547 99.2538 19.5056 99.3835 19.0765C99.5132 18.6475 99.9623 18.403 100.391 18.5327C101.344 18.8171 102.397 18.8321 102.557 18.6425C102.557 18.6425 102.557 18.6325 102.562 18.6125C102.597 18.378 102.542 17.929 102.487 17.4949C102.342 16.2975 102.143 14.661 103.116 13.4686C103.739 12.7052 104.737 12.2661 106.089 12.1564C107.855 12.0117 109.232 12.7601 109.866 14.202C110.909 16.5619 109.786 20.1143 107.262 22.4693C103.086 26.3609 100.481 29.6239 100.122 31.4201C99.9074 32.4828 100.087 33.0716 100.322 33.2711C100.556 33.4707 100.975 33.351 101.205 33.2612C101.624 33.0965 102.093 33.3061 102.257 33.7202C102.422 34.1343 102.212 34.6083 101.798 34.7729C101.479 34.8976 101.17 34.9725 100.875 34.9924V34.9875Z" fill="#FFDF72"/>
<path d="M97.2877 16.7158C97.2877 16.7158 103.015 26.435 92.1837 37.0074C92.1837 37.0074 99.4331 28.2661 97.2877 16.7158Z" fill="white"/>
<path d="M98.6446 69.398C98.6446 69.398 92.882 70.6104 90.9012 70.8648C88.8007 71.1343 82.4194 71.4236 82.4194 71.4236L81.7009 65.6809C81.7009 65.6809 88.0723 65.3916 90.1728 65.1221C92.1535 64.8677 97.9212 63.6553 97.9212 63.6553L98.6397 69.398H98.6446Z" fill="#FFDF72"/>
<path d="M86.326 71.2186L84.3901 71.3284L83.9012 65.5707L85.8221 65.4609L86.326 71.2186Z" fill="white"/>
<g opacity="0.35">
<path d="M84.8093 71.3288L86.8499 71.1891L88.6959 71.0644L97.2476 63.7949L93.5855 64.5383L84.8093 71.3288Z" fill="white"/>
</g>
<g opacity="0.35">
<path d="M83.8059 71.4331L92.7069 64.6377L91.5993 64.7674L82.5387 71.478L83.8059 71.4331Z" fill="white"/>
</g>
<path d="M92.6463 68.5993C92.6463 68.5993 90.9649 68.9535 90.3862 69.0283C89.7725 69.1082 87.9115 69.193 87.9115 69.193L87.7019 67.5166C87.7019 67.5166 89.563 67.4318 90.1766 67.3519C90.7554 67.2771 92.4418 66.9229 92.4418 66.9229L92.6513 68.5993H92.6463Z" fill="#450B00"/>
<path d="M75.6545 71.0493C75.6545 71.0493 75.6645 71.184 75.7793 71.3287C75.8741 71.4535 76.0687 71.5882 76.1385 71.6381C76.363 71.8077 76.9218 71.9624 77.1962 72.0422C77.4208 72.1071 78.1143 72.2218 78.1143 72.2218L76.5027 63.5055L74.1677 62.2881L75.6545 71.0443V71.0493Z" fill="#FFDF72"/>
<path opacity="0.8" fill-rule="evenodd" clip-rule="evenodd" d="M61.2403 11.457C61.2403 11.457 61.4249 13.4378 61.6145 14.0714C61.7043 14.3608 62.0137 14.8947 62.2731 15.0843C62.6972 15.3836 63.74 15.8526 64.633 16.127C65.8504 16.5062 67.0379 16.6559 67.0379 16.6559L66.3544 14.2261C66.3544 14.2261 64.189 13.7272 63.5254 13.4877C63.0564 13.318 62.0436 12.6694 61.6993 12.3052C61.4648 12.0607 61.2353 11.457 61.2353 11.457H61.2403Z" fill="#C35500"/>
<path fill-rule="evenodd" clip-rule="evenodd" d="M66.3533 14.226C66.3533 14.226 65.2357 14.0514 64.2627 13.7071C63.5692 13.4627 62.9306 13.0735 62.6362 12.7991C62.3618 12.5446 62.2071 12.2453 62.1672 11.9259C62.0874 11.2873 62.5215 10.6038 63.1451 10.1747C63.1451 10.1747 63.9933 9.48118 65.2406 8.90242C66.8173 8.16899 68.9527 7.49044 69.9406 7.18111C71.3725 6.73706 74.2164 6.04853 76.8658 5.57954C78.2628 5.33007 80.4281 4.96585 82.5037 4.73135C85.4174 4.40206 88.1416 4.23242 88.1416 4.23242C88.1416 4.23242 80.458 6.12836 77.2948 7.79978C75.2991 8.85253 72.9891 10.3244 72.066 11.2324C71.6868 11.6016 70.6391 12.4349 69.9156 13.3778C69.3967 14.0564 68.9876 14.6002 68.9876 14.6002" fill="#8D2A00"/>
<g clip-path="url(#clip1_4011_77996)">
<path d="M84.6892 33.9756C84.6592 33.9756 84.6343 33.9955 84.6393 34.0255C84.6692 34.1702 84.6493 34.5294 84.6692 34.5943C84.754 34.8437 84.9436 35.0433 85.1632 35.183C85.4276 35.3526 85.7419 35.4375 86.0513 35.5073C86.5901 35.627 87.129 35.7618 87.6528 35.9414C87.6528 35.9414 87.7975 34.4346 84.6892 33.9756Z" fill="#450B00"/>
<path d="M71.2391 38.3662C71.2391 38.3662 74.7267 40.1624 75.8842 40.7162C76.3781 40.9557 77.8101 41.6192 77.8101 41.6192C77.8101 41.6192 78.0296 54.1374 73.2149 57.5601C68.7095 60.7632 71.2391 38.3712 71.2391 38.3712V38.3662Z" fill="#450B00"/>
<path d="M68.0351 26.427C68.0351 26.427 71.6574 24.3016 72.9147 24.3065C76.6617 24.3215 85.7971 23.5432 87.3837 24.6807C88.9703 25.8183 86.4507 27.6494 83.7664 27.7292C81.0822 27.809 78.1984 28.2182 77.2205 28.0535C76.2476 27.8889 87.0145 32.1148 87.5184 34.4797C88.0273 36.8447 87.0943 37.7727 85.3231 37.5232C83.5469 37.2688 78.7322 36.4256 77.889 36.68C77.0458 36.9345 75.6089 38.4562 75.0152 38.4562C74.4215 38.4562 73.8327 40.3123 74.0872 42.3429C74.3416 44.3686 79.2012 53.6686 73.8128 57.3857C73.7529 57.5453 73.688 57.705 73.6232 57.8746V57.8896C71.6774 62.9737 66.4785 77.6223 64.0138 84.1583H47.8983L58.5654 60.05H58.5704L61.0102 54.5168L62.0031 52.2816C62.3024 51.6031 62.5419 50.9046 62.7215 50.1911C62.7215 50.1911 62.8263 46.6786 61.7287 42.0086C60.631 37.3336 59.6581 35.0585 60.3067 34.0856C60.9553 33.1077 62.4621 31.8105 62.4621 31.8105" fill="#C35500"/>
<path d="M62.4669 31.7956C62.4669 31.7956 60.9651 33.0978 60.3115 34.0707C59.6629 35.0486 60.6358 37.3237 61.7334 41.9987C62.8311 46.6737 62.7263 50.1862 62.7263 50.1862C62.5467 50.8996 62.3072 51.5981 62.0079 52.2767L61.015 54.5119L58.5752 60.0401H58.5702L47.9031 84.1484H56.5545C56.6843 83.4599 56.7092 82.7614 56.784 82.0679C57.0335 79.7878 57.5175 77.5426 58.1461 75.3373C58.7698 73.152 59.6828 71.0565 60.4312 68.9111C60.8104 67.8334 61.1497 66.7407 61.4241 65.6331C61.6985 64.5254 61.9081 63.4128 62.2324 62.3152C62.871 60.1498 63.7342 58.0593 64.6422 55.9937C64.6522 55.9638 64.6722 55.9438 64.6921 55.9239C64.9116 54.6267 65.2958 53.3644 65.4954 52.0621C65.6002 51.3587 65.6501 50.6352 65.5702 49.9267C65.4954 49.2482 65.3208 48.5896 65.1411 47.931C64.7919 46.6537 64.5125 45.3665 64.3429 44.0543C64.1882 42.8718 64.0385 41.5397 64.4875 40.4071C64.8418 39.514 65.4954 38.6908 65.5902 37.7229C65.0414 37.9623 64.5973 38.6559 64.263 39.07C63.9587 39.4442 63.4548 40.1926 62.876 39.978C62.2324 39.7435 62.0627 38.5112 62.1076 37.9524C62.1875 36.9944 63.1005 36.5404 63.3799 35.6772C63.3949 35.6274 63.4049 35.5625 63.4148 35.4926C63.1754 35.5825 62.9359 35.6074 62.6615 35.6673C62.2523 35.7521 61.7784 36.5803 61.3443 36.0714C61.0948 35.777 61.0948 35.1434 61.1796 34.8041C61.3044 34.2952 61.6436 33.8561 61.9729 33.457C62.5267 32.7834 63.1155 32.1548 63.7591 31.5661C64.4925 30.8925 65.2409 30.2289 65.8796 29.4606C66.1789 29.1013 66.5431 28.6423 66.6978 28.1534C66.7727 27.9189 66.9223 27.5147 66.7228 27.6594C66.4284 27.879 65.9095 28.2681 65.4954 28.6323" fill="#8D2A00"/>
<path d="M76.2774 31.4959C73.3537 31.6057 70.7293 33.3619 67.8904 33.9906C67.6709 34.0405 67.7307 34.3648 67.9552 34.3398C68.9282 34.2351 69.916 33.796 70.8441 33.4268C73.9923 32.1795 77.5896 31.7105 80.7478 32.9279C82.2396 33.5066 84.1506 34.8687 85.7421 34.6592L86.261 34.5943C83.2575 33.5615 79.4506 31.3762 76.2824 31.4959H76.2774Z" fill="#8D2A00"/>
<path d="M75.1344 27.2852C75.0147 27.2951 74.8949 27.3201 74.7752 27.35C73.1038 27.7442 71.5721 28.5724 70.0603 29.3906C68.5884 30.1839 67.1116 30.9872 65.7445 31.9402C65.52 32.0998 65.7246 32.4491 65.969 32.3244C67.381 31.6159 68.7581 30.7078 70.1551 29.9594C72.2855 28.8169 74.6405 27.4398 76.8707 28.3728C77.185 28.5075 81.5607 30.7527 81.7053 30.2738C81.7053 30.2738 76.1273 27.2053 75.1344 27.2901V27.2852Z" fill="#8D2A00"/>
<path d="M77.5751 34.7895C77.5502 34.7596 77.5152 34.7247 77.4753 34.7147C77.3755 34.6897 77.2957 34.7945 77.2508 34.8843C76.8167 35.8173 76.9614 37.1145 75.754 37.4538C75.4347 37.5436 75.0904 37.5286 74.7711 37.4438C74.5416 37.379 74.3121 37.3091 74.0826 37.2293C73.7782 37.1245 73.4988 37.4488 73.6535 37.7332V37.7432C73.873 38.1473 73.9628 38.7161 73.3192 38.9356C73.2095 38.9706 73.0997 38.9905 72.9849 38.9955C72.7205 39.0105 72.4561 39.0254 72.1966 39.0354C71.8374 39.0554 71.7925 39.5643 72.1417 39.6491C72.1916 39.6591 72.2415 39.6691 72.2864 39.679C72.6706 39.7489 73.1646 40.0283 72.9799 40.4025C72.9101 40.5522 72.7554 40.642 72.5958 40.6619C72.5209 40.6719 72.4211 40.6869 72.3114 40.7068C71.9721 40.7667 71.9921 41.2607 72.3363 41.2906C72.9151 41.3405 73.4938 41.3754 74.0327 41.3255C74.0726 40.5721 74.5366 39.679 74.6015 38.9157C74.6115 38.786 74.6364 38.751 74.7063 38.6413C74.7761 38.5365 74.9457 38.4467 75.0705 38.4467C75.3748 38.4467 76.6221 37.7083 77.2408 37.1046C77.8545 36.5058 78.1339 35.4431 77.5751 34.7845V34.7895Z" fill="#8D2A00"/>
</g>
<defs>
<clipPath id="clip0_4011_77996">
<rect y="6.59766" width="159.658" height="68.8525" rx="12" fill="white"/>
</clipPath>
<clipPath id="clip1_4011_77996">
<rect y="6.59766" width="159.658" height="68.8525" rx="12" fill="white"/>
</clipPath>
</defs>
</svg>
