<svg width="128" height="62" viewBox="0 0 128 62" fill="none" xmlns="http://www.w3.org/2000/svg">
<rect y="6.19922" width="128" height="55.2" rx="8" fill="#89D1FF"/>
<g clip-path="url(#clip0_4011_82000)">
<path d="M96.2669 32.1219C95.8114 31.8217 95.3559 31.5214 94.9005 31.2197C92.9085 29.901 90.9222 28.5676 89.0188 27.1105C87.1492 25.6784 85.347 24.1286 83.7613 22.3551C82.2361 20.6478 80.9077 18.7257 79.9939 16.5857C79.7114 15.9234 79.471 15.2449 79.2714 14.5561C79.2264 14.5973 79.1814 14.637 79.1378 14.6797C79.1322 14.6841 79.128 14.69 79.1224 14.6944C79.0661 14.7489 79.0113 14.8048 78.9565 14.8622C78.941 14.8784 78.927 14.8931 78.9115 14.9093C78.8539 14.9711 78.7962 15.0344 78.7414 15.0992C78.6346 14.3442 78.3998 14.0174 77.6337 13.7657L77.4383 13.2683C77.4059 12.8591 77.3399 12.4485 77.2457 12.0393C77.2133 11.898 77.1754 11.7567 77.136 11.6169C77.1023 11.4962 77.0657 11.3741 77.0264 11.2534C77.0236 11.2475 77.0222 11.2401 77.0194 11.2343C76.9547 11.04 76.8844 10.8472 76.8071 10.6544C76.779 10.5852 76.7509 10.516 76.7213 10.4469C76.6257 10.2217 76.5203 9.99649 76.4079 9.77572C76.405 9.7713 76.4022 9.76541 76.3994 9.761C76.2364 9.44456 76.0578 9.13549 75.8624 8.8323C75.861 8.82935 75.8582 8.82641 75.8568 8.82347C75.3128 7.9816 74.6464 7.20155 73.8845 6.526C73.8775 6.51864 73.8691 6.51275 73.8606 6.5054C73.6596 6.32731 73.4516 6.15805 73.2379 5.99616C70.8664 4.20351 67.8005 3.46026 65.2631 4.06369L65.1703 3.90915C64.5672 2.69934 63.4005 1.73826 62.1522 1.17457C60.9039 0.61087 59.574 0.409234 58.2892 0.354778C56.6318 0.284132 54.9842 0.453388 53.5912 1.09362C52.1995 1.73385 51.0805 2.88332 50.729 4.38896L50.2525 4.33745C47.8234 3.37489 45.6824 3.82085 44.07 5.35004C43.2744 6.10507 42.7599 7.12649 42.5574 8.25094C42.452 8.83671 42.4295 9.45339 42.497 10.076C42.5476 10.541 42.9749 11.4197 42.8414 11.8215C42.7809 12.0055 42.6404 12.1409 42.5026 12.2704C42.3761 12.3911 42.2454 12.5133 42.0739 12.5721C41.8939 12.6339 41.6845 12.6192 41.4806 12.5868C40.7848 12.475 40.0158 12.1571 39.4395 12.4279C39.1625 12.5574 38.9812 12.8061 38.7774 13.024C37.9831 13.8717 36.7728 13.9453 35.852 14.5988C35.0114 15.1949 34.3169 15.9808 33.9191 16.9463C33.2303 18.6212 33.4383 21.6796 35.7438 22.726C35.4401 23.2573 35.8211 24.3391 36.0544 24.9955C35.4443 24.4083 34.1187 24.2331 33.4397 24.4922C32.5668 24.8263 31.5546 25.4886 31.9412 26.4541C32.0452 26.716 32.2435 26.9456 32.3882 27.1944C32.5429 27.4593 32.6455 27.7272 32.6933 27.9818C32.8634 28.8752 31.7219 29.1725 31.109 28.4101C30.7702 27.9906 30.3471 27.6168 29.9071 27.2886C29.1367 26.7146 27.866 26.8603 27.8477 27.7139L26.5474 27.6653C25.6772 27.6536 24.9392 28.2217 24.7803 29.0253C24.6215 29.8289 25.0545 30.8135 25.815 31.3787C25.2175 31.2963 24.6651 31.6436 24.5385 32.1808C24.4106 32.718 24.7199 33.3994 25.2527 33.7556C25.6646 34.0323 26.1495 34.1074 26.6106 34.2354C27.9503 34.6048 29.1157 35.4364 30.3401 36.1149C30.3696 36.1311 30.4005 36.1473 30.4314 36.1649C30.5158 36.2106 30.6001 36.2562 30.6845 36.3003C30.7182 36.318 30.7505 36.3357 30.7843 36.3519C30.8982 36.4093 31.012 36.4667 31.1259 36.5196C31.3002 36.6006 31.4787 36.6742 31.6587 36.7434C31.878 36.8272 32.1029 36.9038 32.3292 36.973C33.2036 37.2379 34.1243 37.3998 35.0198 37.5146C35.0254 37.5146 35.0311 37.516 35.0367 37.5175C35.3825 37.5617 35.7241 37.5985 36.0587 37.6323C36.084 37.6353 36.1079 37.6367 36.1332 37.6397C36.2892 37.6544 36.4438 37.6706 36.5942 37.6853C36.5971 37.6853 36.5999 37.6853 36.6027 37.6853C36.8121 37.7059 37.0202 37.7221 37.2282 37.7383C37.2915 37.7427 37.3562 37.7471 37.4194 37.7515C37.5726 37.7618 37.7259 37.7721 37.8791 37.781C37.9438 37.7854 38.0084 37.7883 38.0731 37.7927C38.2544 37.803 38.4344 37.8119 38.6143 37.8192C38.6424 37.8192 38.6691 37.8222 38.6972 37.8237C38.9137 37.8325 39.1302 37.8398 39.3467 37.8457C39.379 37.8457 39.4128 37.8472 39.4451 37.8487C39.6335 37.8531 39.8204 37.8575 40.0074 37.8604C40.0454 37.8604 40.0833 37.8604 40.1213 37.8619C41.7815 37.8869 43.4332 37.8546 45.092 37.8693C45.9397 37.8766 46.7887 37.8958 47.642 37.9429C49.1377 38.0238 50.6433 38.1887 52.1446 38.327C53.0064 38.4065 53.8681 38.4771 54.7256 38.5198C57.0929 38.6361 59.4222 38.5301 61.7543 38.458C61.7571 38.458 61.76 38.458 61.7628 38.458C62.3813 38.4389 63.0012 38.4227 63.6226 38.4079C63.8292 38.4035 64.0359 38.3991 64.2425 38.3947C64.667 38.3859 65.0902 38.377 65.5147 38.3697C65.7467 38.3653 65.9786 38.3623 66.2106 38.3579C66.6618 38.3506 67.113 38.3461 67.5657 38.3417C67.7414 38.3403 67.9157 38.3373 68.0914 38.3358L73.5443 38.3285C73.5907 38.3285 73.6371 38.3285 73.6835 38.3285C74.3836 38.3314 75.085 38.3373 75.7865 38.3447C75.8948 38.3447 76.0044 38.3461 76.1126 38.3476C76.8942 38.355 77.6758 38.3653 78.4588 38.3756C79.9152 38.3962 81.3744 38.4212 82.8321 38.4492C84.1704 38.4742 85.5087 38.5021 86.8484 38.5301C87.1407 38.536 87.4303 38.5448 87.7185 38.5522C87.89 38.5566 88.0615 38.5625 88.2316 38.5669C88.5156 38.5757 88.7967 38.5831 89.0765 38.589C89.2339 38.5919 89.3899 38.5949 89.546 38.5963C90.4625 38.6081 91.365 38.589 92.2605 38.4977C92.8003 38.4418 93.3387 38.3594 93.8771 38.2387C95.5021 37.8722 101.387 36.7083 101.977 35.8105C102.567 34.9127 97.6248 35.1597 97.3872 33.9411C96.8755 33.5702 96.8713 32.7062 96.2626 32.1219H96.2669Z" fill="#1B90FF"/>
</g>
<path d="M100.259 32.7222C100.025 32.6204 99.7756 32.6839 99.4148 32.5675C98.5133 32.2781 98.2913 31.4401 97.2272 31.4771C96.1341 31.5141 96.2557 32.6587 95.8724 32.6085C94.9313 32.4829 95.3543 31.3277 94.6855 30.6536C96.2412 30.3972 97.0924 29.1865 97.8379 27.7973C98.397 26.7544 98.4538 25.2159 97.4348 24.6145C97.2365 24.4968 97.0052 24.4228 96.8466 24.255C96.6628 24.0633 96.606 23.7857 96.4844 23.5491C96.1526 22.9068 95.3464 22.6279 94.626 22.7032C93.907 22.7785 93.0095 23.3667 92.3764 23.7157C92.5733 23.0759 93.4086 20.324 91.7776 19.9064C90.7149 19.4081 90.2034 20.028 89.9443 19.9738C90.3012 18.6309 90.3607 17.1835 89.9218 15.8657C89.483 14.5479 88.5089 13.3782 87.2122 12.8785C85.1873 12.0987 82.8544 13.0821 81.292 14.5876C81.3264 13.8725 81.1625 13.5619 80.4871 13.324L80.3919 12.8534C80.6682 10.3103 79.6465 7.66021 77.7352 5.96174C75.8239 4.26195 73.072 3.55745 70.5791 4.12978L70.5197 3.98306C70.1668 2.83709 69.2415 1.92507 68.1669 1.39108C67.0923 0.857088 65.879 0.665432 64.6814 0.613883C63.1363 0.546473 61.5555 0.707729 60.1332 1.31442C58.7097 1.92111 57.454 3.01024 56.8566 4.43775L56.4178 4.38884C54.3043 3.47682 52.2132 3.89847 50.4249 5.34976C49.542 6.06616 48.8784 7.03369 48.4872 8.09903C48.2836 8.6555 48.1528 9.2384 48.1065 9.82922C48.0708 10.2707 48.318 11.1034 48.1211 11.4828C48.0312 11.6559 47.8752 11.7854 47.7232 11.9084C47.5831 12.022 47.439 12.1383 47.2672 12.1939C47.0874 12.252 46.8931 12.2388 46.7068 12.2071C46.0723 12.1013 45.4061 11.8 44.8166 12.0564C44.5338 12.1793 44.3183 12.4146 44.0884 12.6208C43.1909 13.4244 42.0409 13.4945 41.0575 14.1144C40.1601 14.6801 39.3683 15.4243 38.8224 16.3402C37.8774 17.9264 37.5311 20.8263 39.5124 21.8189C39.1331 22.3225 39.2983 23.3482 39.4014 23.9708C38.9321 23.4143 37.7174 23.2478 37.0315 23.4936C36.1512 23.8095 35.0818 24.4374 35.2735 25.3533C35.3251 25.6018 35.4704 25.8186 35.563 26.0552C35.6608 26.3063 35.7097 26.5601 35.7097 26.802C35.7097 27.6479 34.5849 27.9308 34.1434 27.2091C33.9002 26.8113 33.5671 26.4583 33.2116 26.1464C32.5903 25.6018 31.369 25.7406 31.1998 26.5495L29.9851 26.5046C29.1696 26.4927 28.3739 27.032 28.0818 27.7933C27.7897 28.5547 28.0223 29.4878 28.6369 30.0231C28.0897 29.9452 27.5095 30.2743 27.294 30.7832C27.0786 31.2934 27.2478 31.9371 27.6866 32.2754C28.025 32.5371 28.4677 32.6085 28.8775 32.7301C30.3235 33.1544 31.41 34.2224 32.7199 34.8952C34.1698 35.6406 36.052 35.8415 37.6553 35.9975C41.0932 36.3332 44.5536 36.0504 47.9981 36.242C50.1883 36.3636 52.3652 36.6795 54.5567 36.7893C56.7614 36.899 58.9701 36.7998 61.1774 36.7298C66.4156 36.5659 71.6564 36.5764 76.8959 36.6505C79.5156 36.6875 82.1367 36.7417 84.7564 36.7985C87.0404 36.8474 89.1724 37.0113 91.4168 36.5223C93.751 36.0134 96.1156 35.6393 98.4935 35.4027C99.2905 35.3234 100.199 35.1978 100.644 34.533C100.92 34.1219 100.907 33.5245 100.648 33.1081C100.512 32.8887 100.388 32.7817 100.257 32.7248L100.259 32.7222Z" fill="white"/>
<path d="M36.5972 27.7816C37.3255 27.7816 38.0538 27.7988 38.7689 27.9521C39.1337 28.0301 39.48 28.1438 39.8223 28.2892C39.9625 28.3487 40.1026 28.4055 40.2466 28.4478C40.0867 28.2033 39.8818 27.9825 39.706 27.7565C39.4285 27.401 39.1905 27.0203 39.1311 26.5656C39.0637 26.0475 39.2328 25.5505 39.5976 25.1777C40.207 24.5552 41.1401 24.4561 41.9768 24.4428C42.1513 23.6974 42.5095 23.0021 43.0382 22.4443C43.2603 22.2104 43.5008 22.0412 43.7929 21.9024C44.0692 21.7702 44.36 21.6685 44.6309 21.5257C44.6798 21.5006 44.7327 21.4543 44.7829 21.4332C44.7869 21.4173 44.808 21.379 44.8107 21.3671C44.8424 21.2534 44.8451 21.1371 44.8437 21.0195C44.8384 20.6996 44.7909 20.3824 44.8318 20.0625C44.9151 19.4122 45.4279 18.8346 46.0902 18.7394C46.3572 18.7011 46.6241 18.7302 46.8925 18.7223C47.2097 18.713 47.4727 18.6231 47.7146 18.413C47.9671 18.1935 48.1918 17.9477 48.4852 17.7785C48.739 17.6331 49.0007 17.5657 49.2915 17.5406C49.577 17.5168 49.8651 17.5327 50.1506 17.5432C50.3912 17.5525 50.6582 17.5736 50.8868 17.5234C50.9424 17.5115 50.9965 17.4943 51.0203 17.4851C51.0745 17.4626 51.0521 17.4745 51.0904 17.4388C51.13 17.4018 51.1314 17.3992 51.1419 17.382C51.1631 17.3503 51.1816 17.3159 51.2001 17.2828C51.2252 17.2353 51.2596 17.1282 51.2834 17.0383C51.3098 16.9352 51.3283 16.8308 51.3442 16.7251C51.4288 16.1699 51.3666 14.9605 52.0645 14.8098C52.161 14.4067 52.3091 14.0168 52.4227 13.6176C52.4531 13.5119 52.4809 13.4061 52.5034 13.2977C52.5258 13.1933 52.5324 13.1523 52.539 13.0757C52.5443 13.0056 52.5457 12.9356 52.539 12.8655C52.5364 12.8589 52.5258 12.806 52.5219 12.7928C52.5192 12.7796 52.5179 12.773 52.5179 12.769C52.5152 12.7664 52.51 12.7624 52.502 12.7518C52.4954 12.7426 52.4915 12.7373 52.4888 12.732C52.4848 12.728 52.4822 12.7254 52.4782 12.7214C52.4716 12.7188 52.4492 12.7043 52.432 12.695C52.432 12.699 52.3672 12.6765 52.3527 12.6739C52.35 12.6739 52.3461 12.6739 52.3408 12.6725C52.321 12.6712 52.2998 12.6699 52.28 12.6686C52.0249 12.6606 51.7539 12.732 51.5186 12.8245C50.9939 13.0294 50.6859 13.4722 50.4414 13.956C50.177 14.4807 49.9537 15.0134 49.5743 15.4694C49.4778 15.5844 49.3007 15.5566 49.2003 15.4694C48.8487 15.1588 48.5235 14.8191 48.168 14.5124C47.8745 14.26 47.5428 13.9877 47.1661 13.8767C47.0127 13.8317 46.8541 13.8264 46.6968 13.8634C46.6506 13.874 46.6493 13.8767 46.6228 13.8886C46.6123 13.8938 46.603 13.9005 46.5924 13.9071C46.5924 13.9084 46.5898 13.9097 46.5871 13.9137C46.5819 13.919 46.5792 13.9203 46.5792 13.9203C46.5766 13.9242 46.5752 13.9269 46.5739 13.9309C46.5713 13.9414 46.5647 13.9626 46.562 13.9758C46.562 13.993 46.5607 14.0088 46.562 14.026C46.562 14.0353 46.5673 14.0802 46.5673 14.0855C46.5792 14.1529 46.599 14.2203 46.6202 14.2851C46.6704 14.4344 46.7378 14.5772 46.8066 14.7186C46.9691 15.0517 47.1502 15.3795 47.2705 15.7311C47.3207 15.8791 47.2123 16.0047 47.0854 16.0563C46.6017 16.2545 46.0531 16.2955 45.5363 16.3299C44.4498 16.4039 43.3396 16.3629 42.2914 16.6339C41.8328 16.7528 41.4045 16.9299 41.0846 17.2551C40.811 17.5327 40.6683 17.9001 40.6194 18.3019C40.6498 18.2966 40.6815 18.29 40.7185 18.2795C40.8758 18.2358 40.9855 18.1803 41.1322 18.101C41.4521 17.9279 41.7521 17.7204 42.072 17.5459C42.3734 17.3807 42.7078 17.226 43.058 17.2234C43.4506 17.222 43.7546 17.4375 43.9767 17.7441C44.0679 17.8697 43.9872 18.027 43.8815 18.1063C43.4929 18.3945 43.0541 18.6112 42.6351 18.8505C42.2187 19.0884 41.7971 19.3355 41.4349 19.6528C41.1507 19.9026 40.8626 20.233 40.8256 20.5992C40.8018 20.8384 40.9445 21.0102 41.0807 21.1926C41.2565 21.4266 41.3966 21.6566 41.423 21.954C41.4785 22.599 41.2736 23.2506 41.4058 23.8917C41.4442 24.0754 41.3278 24.2036 41.1507 24.2261C40.6035 24.2948 40.0484 24.3834 39.5329 24.5882C39.0927 24.7614 38.7015 25.0429 38.4054 25.413C37.9917 25.9312 38.0049 26.937 37.1471 26.9568C37.0969 26.9568 37.0453 26.9542 36.9964 26.9674C36.7889 27.0216 36.5259 27.3877 36.4452 27.5715C36.4267 27.6138 36.4281 27.619 36.4267 27.6468C36.4267 27.6547 36.4267 27.66 36.4254 27.6627C36.4254 27.6613 36.4281 27.6613 36.4307 27.6653C36.4664 27.7142 36.5338 27.7512 36.5986 27.7777L36.5972 27.7816Z" fill="#0070F2"/>
<path d="M53.5374 11.2953C53.5374 11.2953 53.5401 11.3033 53.5427 11.3112C53.5507 11.3376 53.5573 11.3654 53.5639 11.3931C53.5639 11.3958 53.5639 11.3971 53.5652 11.3984C53.5652 11.3984 53.5665 11.3997 53.5678 11.4024C53.5758 11.4169 53.6035 11.4539 53.5996 11.45C53.6048 11.4566 53.6115 11.4619 53.6167 11.4685C53.626 11.4738 53.6352 11.479 53.6445 11.4843C53.6485 11.487 53.6498 11.4883 53.6511 11.4896C53.6551 11.4896 53.6577 11.4896 53.6617 11.4909C53.6749 11.4936 53.6868 11.4962 53.7 11.5002C53.6974 11.4976 53.7568 11.5055 53.7714 11.5055C53.7859 11.5055 53.8388 11.5002 53.8467 11.5002C54.1573 11.5068 54.5459 11.2226 54.7891 11.0574C55.1288 10.8274 55.4368 10.5512 55.7276 10.2617C55.9536 10.037 56.1717 9.80173 56.4255 9.60875C56.6793 9.41578 56.978 9.26774 57.2952 9.24395C57.6349 9.21883 57.972 9.33647 58.2614 9.51623C58.7016 9.78851 59.0135 10.1983 59.4153 10.5142C59.7101 10.7468 60.0722 10.9199 60.4397 11.0204C61.1482 11.2134 61.9676 11.1526 62.4633 10.5763C63.0013 9.94977 62.9656 8.95977 62.4395 8.33325C61.8447 7.62611 60.9208 7.22958 60.0432 7.01413C59.6202 6.90971 59.1906 6.84495 58.7544 6.86213C57.3388 6.91632 56.8789 8.37026 55.873 9.09591C55.7712 9.16861 55.6628 9.23469 55.5426 9.26906C55.4395 9.29814 55.3311 9.30343 55.224 9.31797C54.5552 9.40917 54.0516 9.88368 53.7476 10.4626C53.7317 10.493 53.7159 10.5247 53.7013 10.5565C53.6934 10.5723 53.6868 10.5882 53.6802 10.6027C53.6762 10.6107 53.6749 10.6159 53.6723 10.6212C53.6167 10.756 53.5758 10.8962 53.548 11.0402C53.548 11.0468 53.5427 11.0746 53.5414 11.0825C53.5414 11.0878 53.5414 11.0918 53.5401 11.0971C53.5388 11.1301 53.5348 11.1631 53.5348 11.1975C53.5348 11.2226 53.5361 11.2477 53.5374 11.2742C53.5374 11.2834 53.5374 11.29 53.5374 11.294V11.2953Z" fill="#0070F2"/>
<path d="M82.0462 22.3212C82.5948 22.5063 83.0362 22.8433 83.2675 23.3839C83.5583 24.0646 83.4023 24.7784 82.8591 25.2806C82.5128 25.6005 82.0819 25.8226 81.6299 25.9719C82.4903 26.2773 83.5094 26.2561 84.2932 25.8212C85.2198 25.3071 85.5185 24.1585 86.2851 23.4711C86.5904 23.1975 86.9698 23.027 87.3333 22.8446C87.6928 22.6649 88.0563 22.4825 88.3854 22.2485C88.9709 21.8308 89.3899 21.0827 88.9842 20.3941C88.7581 20.0108 88.4211 19.6922 88.0801 19.4133C87.9082 19.2732 87.7272 19.1437 87.5381 19.0274C87.4879 18.997 87.4364 18.9666 87.3848 18.9375C87.3518 19.264 87.3187 19.5918 87.2355 19.9064C87.0359 20.6637 86.3776 21.3074 85.6137 21.4951C85.5079 21.5215 85.3414 21.544 85.2726 21.5718C85.2462 21.5823 85.1881 21.6207 85.1563 21.6524C85.0942 21.7132 85.044 21.7806 84.9977 21.8533C84.8708 22.0529 84.8814 22.341 84.8642 22.5697C84.8457 22.8116 84.8299 23.0614 84.7453 23.2901C84.6673 23.5016 84.3897 23.5557 84.2615 23.3535C84.0606 23.0336 83.7685 22.7534 83.446 22.538C82.8591 22.1454 82.1414 21.8969 81.4395 21.9776C81.2241 22.0027 80.9862 22.0793 80.7879 22.1996C81.2069 22.1375 81.6537 22.189 82.0462 22.3212Z" fill="#0070F2"/>
<path d="M66.0334 6.79649C66.1458 6.77534 66.2607 6.76476 66.3771 6.76608C67.1331 6.77534 67.7081 7.3133 68.0544 7.94378C68.1125 8.04952 68.1654 8.1579 68.2143 8.26761C68.2976 8.45794 68.5567 8.49627 68.6902 8.33766C68.7562 8.261 68.8303 8.1883 68.9149 8.12089C69.2493 7.85786 69.6815 7.72833 70.1058 7.77723C70.5089 7.82482 70.8578 8.01383 71.1671 8.26893C71.4619 8.51081 71.7249 8.79367 71.8584 9.15583C71.8809 9.21796 71.8981 9.28272 71.9166 9.34617C71.939 9.42019 71.9192 9.39243 71.9536 9.44134C71.9615 9.45191 71.9642 9.4572 71.9655 9.46116C71.9681 9.46513 71.9721 9.46777 71.9774 9.47306C71.9932 9.48892 72.0091 9.50478 72.0263 9.518C72.0831 9.56294 72.1585 9.60788 72.2259 9.63431C72.3964 9.70172 72.6092 9.67 72.7876 9.67264C72.9766 9.67529 73.1709 9.68983 73.3507 9.75591C73.6269 9.85769 74.0525 10.1815 74.2653 10.3838C74.1874 10.2265 74.0089 9.84051 73.9283 9.68586C73.4855 8.82011 72.9859 8.01912 72.8669 7.04366C72.8405 6.83085 73.1062 6.73304 73.2648 6.81499C73.7618 7.07538 73.9666 7.62523 74.1094 8.13543C74.2376 8.59408 74.3195 9.09239 74.5839 9.49817C74.8324 9.87884 75.2302 10.627 75.6043 10.8728C75.9559 11.1041 76.3432 10.8649 76.6088 11.1966C76.9009 11.5614 77.049 11.9897 77.1309 12.4391C77.7337 12.2104 77.9835 11.3486 77.7746 10.7763C77.6411 10.4102 77.3305 10.1326 77.0543 9.87355C76.7344 9.57351 76.4489 9.26554 76.1859 8.91263C76.0299 8.70379 75.9136 8.49099 75.8409 8.24117C75.7893 8.06538 75.7563 7.88165 75.6981 7.7085C75.6347 7.51817 75.5422 7.3318 75.4536 7.15336C75.1047 6.44754 74.5019 5.76683 73.701 5.59897C73.3229 5.51966 72.9277 5.56196 72.5457 5.59236C72.132 5.62408 71.721 5.64126 71.3125 5.56196C70.9067 5.48265 70.5618 5.29893 70.2564 5.02136C69.9617 4.75436 69.7185 4.43846 69.4541 4.14238C69.3233 3.99567 69.1871 3.84895 69.0351 3.72471C68.9743 3.67448 68.9069 3.63218 68.8382 3.59385C68.6505 3.48943 68.4602 3.39426 68.2659 3.30438C68.1733 3.26209 68.0887 3.37047 68.1469 3.45374C68.3082 3.68373 68.4232 3.94676 68.4906 4.22962C68.5355 4.42127 68.365 4.61293 68.1654 4.55477C68.057 4.52305 67.946 4.49133 67.8323 4.48208C67.7411 4.47415 67.7041 4.47679 67.6486 4.49265C67.6446 4.49529 67.6301 4.5019 67.6156 4.50851C67.6182 4.51115 67.5984 4.5323 67.6023 4.52305C67.5957 4.53495 67.5865 4.55213 67.5812 4.56138C67.5772 4.57592 67.5653 4.61557 67.5627 4.62879C67.56 4.64201 67.5548 4.6777 67.5521 4.68563C67.5495 4.71206 67.5468 4.7385 67.5455 4.76361C67.5429 4.82177 67.5415 4.88125 67.5415 4.93941C67.5415 5.0729 67.5442 5.2064 67.5336 5.3399C67.5072 5.65712 67.4041 6.00739 67.0723 6.12371C66.7062 6.25324 66.2726 6.08934 65.97 6.35502C65.929 6.39203 65.8893 6.43036 65.8523 6.47133C65.7268 6.61012 65.8457 6.83349 66.0308 6.79913L66.0334 6.79649Z" fill="#0070F2"/>
<path d="M100.65 33.1046C100.514 32.8852 100.39 32.7781 100.259 32.7213C100.09 32.6473 99.9101 32.6605 99.688 32.6288C99.6365 32.9883 99.6589 33.3544 99.7818 33.6928C99.8849 33.9743 99.421 34.1673 99.2981 33.8963C99.2941 33.8871 99.2888 33.8778 99.2835 33.8699C99.2796 33.8673 99.2769 33.8659 99.273 33.8646C99.2558 33.8633 99.2346 33.8607 99.2227 33.858C99.306 33.8778 99.2095 33.8593 99.1699 33.8607C99.1487 33.8607 99.076 33.8686 99.0721 33.8686C99.0377 33.8739 99.0033 33.8805 98.969 33.8871C98.8645 33.9096 98.7601 33.9386 98.6583 33.9704C98.2235 34.1065 97.8045 34.2889 97.3802 34.4541C96.985 34.6088 96.5792 34.7687 96.1536 34.8176C95.8099 34.8573 95.4425 34.7476 95.35 34.3735C95.2997 34.1699 95.3434 33.9479 95.4028 33.7523C95.4227 33.6862 95.4451 33.6201 95.4702 33.554C95.5535 33.3306 95.4319 33.0848 95.2033 33.0187C95.2019 33.0187 95.2006 33.0187 95.1993 33.0187C94.9587 32.95 94.7525 32.8852 94.5728 32.7028C94.4287 32.5561 94.3097 32.3486 94.1366 32.2349C93.9952 32.141 93.7956 32.0525 93.6264 32.0221C93.5233 32.0036 93.4651 32.0181 93.3488 32.0459C93.2034 32.0816 93.0593 32.1159 92.91 32.1318C92.5214 32.1741 92.1857 32.0895 91.8658 31.8648C91.6728 31.73 91.4151 31.4537 91.156 31.4854C91.0344 31.5013 90.889 31.5978 90.8137 31.6678C90.7476 31.7286 90.7264 31.767 90.7066 31.8265C90.7026 31.841 90.6987 31.8555 90.696 31.8701C90.696 31.8701 90.696 31.8701 90.696 31.8714C90.6947 31.8952 90.696 31.919 90.696 31.9428C90.696 31.9467 90.7 31.9745 90.7013 31.9851C90.7053 32.0049 90.7093 32.0247 90.7145 32.0432C90.741 32.1424 90.7608 32.182 90.8203 32.2851C90.9445 32.5019 91.1058 32.6816 91.2855 32.8601C91.6054 33.1786 91.9253 33.4364 92.3007 33.673C92.4791 33.7853 92.4632 34.014 92.3007 34.129C92.1923 34.2056 92.0812 34.2796 91.9689 34.3523C91.6821 34.5387 91.3926 34.7211 91.1111 34.9154C90.9908 34.9974 90.8692 35.0806 90.7555 35.1718C90.7053 35.2115 90.6551 35.2538 90.6075 35.2987C90.589 35.3159 90.5718 35.3331 90.5546 35.3516C90.5493 35.3569 90.5268 35.3794 90.5216 35.386C90.5216 35.386 90.5216 35.386 90.5269 35.3807C90.5414 35.3661 90.515 35.4045 90.5216 35.386C90.5057 35.423 90.4925 35.4587 90.4608 35.4904C90.392 35.5591 90.285 35.5816 90.1911 35.5961C90.0457 35.6199 89.8964 35.6199 89.751 35.5895C89.2395 35.4838 88.8059 35.1851 88.3169 35.0212C88.1041 34.9498 87.8939 34.8718 87.6732 34.8269C87.5608 34.8044 87.3877 34.7951 87.3176 34.8084C87.1141 34.848 86.9343 34.9947 86.7334 35.1282C86.3897 35.3569 86.0276 35.5142 85.6152 35.5657C85.1512 35.6239 84.6794 35.5406 84.2339 35.4098C83.7832 35.2776 83.3484 35.0952 82.9003 34.9524C82.398 34.7925 81.8746 34.7304 81.3512 34.6815C80.8172 34.6299 80.2832 34.5942 79.7505 34.5242C79.5033 34.4911 79.2654 34.4145 79.0169 34.3841C78.8028 34.3563 78.5847 34.3497 78.3693 34.3563C77.9146 34.3709 77.4652 34.4502 77.0145 34.507C76.5452 34.5665 76.0786 34.4726 75.6187 34.388C75.234 34.318 74.8203 34.2625 74.4304 34.3153C74.1264 34.3563 73.833 34.4673 73.566 34.6167C73.1893 34.8295 72.8377 35.1362 72.6011 35.5102C71.2489 35.6424 68.608 35.8142 67.1329 35.3331C67.092 35.0066 67.0087 34.6894 66.8474 34.4145C66.7364 34.2255 66.591 34.0748 66.3795 33.9902C66.1205 33.8844 64.9798 34.4502 64.6494 34.5466C64.2489 34.663 63.8907 34.5665 63.5629 34.318C63.2562 34.0854 63.0011 33.8065 62.6733 33.6016C62.3587 33.406 62.0613 33.3306 61.6965 33.2949C61.0555 33.2328 60.3325 33.1033 59.9439 32.5402C59.7866 32.3129 59.6531 32.0776 59.4667 31.8701C59.1772 31.5476 58.8613 31.274 58.4754 31.0717C57.7947 30.7135 57.0056 30.543 56.2601 30.3725C55.2701 30.1452 53.6245 29.7275 53.9814 28.3634C54.0184 28.2246 54.1704 28.1427 54.3065 28.1784C54.4744 28.2233 54.6674 28.1691 54.8524 28.1308C54.9423 27.614 54.9873 26.9769 54.6132 26.5777C54.2603 26.1997 53.7051 26.0874 53.2108 26.0451C52.6715 25.9988 52.1309 26.0252 51.589 26.0477C51.207 26.0636 51.059 26.5526 51.3696 26.776C51.474 26.8513 51.5612 26.9227 51.6181 26.9848C51.8864 27.2783 52.1626 27.5981 52.2816 27.9854C52.4772 28.6185 52.0212 29.0759 51.4886 29.3296C51.1343 29.4988 50.7457 29.5847 50.3994 29.7658C50.0452 29.9509 49.7372 30.206 49.4213 30.4465C49.0843 30.7016 48.7221 30.9409 48.3057 31.044C47.8114 31.1669 47.3105 31.0995 46.8161 31.0215C46.5954 30.9871 46.2795 30.966 45.9556 30.9528C45.4732 30.9343 45.2274 31.5251 45.5789 31.8555C45.8605 32.1212 46.1209 32.371 46.2319 32.4939C46.2993 32.568 46.3667 32.646 46.4315 32.7279C46.5663 32.8984 46.4103 33.1443 46.1988 33.094C45.916 33.0279 45.6331 32.9592 45.3503 32.8839C45.0516 32.8046 44.7119 32.7755 44.4502 32.9407C44.2863 33.0438 44.1263 33.2249 43.9386 33.1733C43.8924 33.1601 43.8514 33.1337 43.8104 33.1072C43.5633 32.9447 43.3148 32.7821 43.0676 32.6208C42.531 32.2692 41.9943 31.9163 41.4934 31.5145C40.9951 31.114 40.6131 30.5404 39.9575 30.3923C39.8702 30.3725 39.779 30.3699 39.6892 30.3818C39.5173 30.4056 39.3481 30.4465 39.175 30.465C39.0283 30.4809 38.8842 30.4637 38.7415 30.4479C38.3833 30.4082 38.0396 30.2707 37.6761 30.2694C37.0562 30.2655 36.4865 30.5562 36.1534 31.0757C35.8521 31.5449 35.6816 32.0868 35.3498 32.5389C35.1767 32.7742 34.9691 33.016 34.7048 33.1535C34.4986 33.2606 34.2818 33.2896 34.0598 33.3359C33.8166 33.3108 33.5734 33.2936 33.3302 33.2923C32.9799 33.291 32.6283 33.3187 32.2912 33.4205C32.015 33.5038 31.633 33.6478 31.5022 33.9294C31.4718 33.9941 31.4638 34.0616 31.4691 34.129C31.8762 34.4013 32.286 34.6682 32.7195 34.8903C33.0499 35.0595 33.4042 35.2009 33.7703 35.3199C34.5449 35.571 35.3815 35.7243 36.2023 35.8327C36.209 35.8327 36.2142 35.834 36.2209 35.8354C36.5368 35.8763 36.85 35.912 37.1567 35.9438C37.1831 35.9464 37.2082 35.949 37.2333 35.9517C37.3748 35.9662 37.5162 35.9808 37.6536 35.994C37.8493 36.0138 38.0449 36.0297 38.2405 36.0455C38.2987 36.0495 38.3568 36.0535 38.415 36.0587C38.5577 36.0693 38.7018 36.0786 38.8459 36.0878C38.904 36.0918 38.9635 36.0944 39.0217 36.0984C39.1909 36.1077 39.3614 36.1169 39.5319 36.1235C39.557 36.1235 39.5808 36.1262 39.6059 36.1275C39.8081 36.1354 40.0117 36.142 40.2152 36.1486C40.2443 36.1486 40.2747 36.1499 40.3038 36.1513C40.4809 36.1566 40.658 36.1592 40.8351 36.1632C40.8695 36.1632 40.9039 36.1632 40.9382 36.1645C42.4966 36.1883 44.0563 36.1579 45.6146 36.1711C46.409 36.1777 47.2047 36.1962 47.9978 36.2398C50.1879 36.3614 52.3649 36.6773 54.5564 36.787C56.7611 36.8967 58.9697 36.7976 61.1771 36.7276C63.169 36.6654 65.1622 36.6284 67.1554 36.6099L72.3301 36.6033C73.8528 36.6112 75.3741 36.6271 76.8955 36.6483C79.5152 36.6853 82.1363 36.7395 84.756 36.7963C87.04 36.8452 89.172 37.0091 91.4177 36.52C93.752 36.0112 96.1166 35.6371 98.4944 35.4005C99.2915 35.3212 100.2 35.1956 100.645 34.5308C100.921 34.1197 100.908 33.5223 100.649 33.1059L100.65 33.1046Z" fill="#0070F2"/>
<g clip-path="url(#clip1_4011_82000)">
<path d="M69.4475 61.3892C69.4475 61.3892 65.3446 46.7576 64.6395 43.0694C63.9345 39.3812 63.4644 39.4305 63.5948 38.5092C63.7238 37.5879 64.0763 36.9384 64.0892 36.2509C64.1021 35.5634 64.1981 32.5627 64.4633 31.4061C64.4633 31.4061 64.5449 30.9962 64.1766 30.3763C63.8227 29.7832 63.5289 29.1408 63.2437 28.5097C63.1018 28.1955 62.9413 27.8729 62.8396 27.5404C62.6992 27.0812 62.7507 26.5754 62.563 26.1288C62.3308 25.5794 61.5226 25.0398 61.5154 24.396C61.5154 24.3721 61.514 24.3228 61.5111 24.2566C61.5068 24.172 61.5011 24.0593 61.4911 23.9325C61.4667 23.5846 61.4151 23.0831 61.3005 22.7872C61.2919 22.7661 61.2847 22.7464 61.2761 22.7266C61.2747 22.7238 61.2732 22.721 61.2718 22.7182C61.2288 22.6266 61.1787 22.5646 61.1199 22.5533C60.882 22.5069 60.4435 22.5181 60.164 23.0929L60.3862 17.5099C60.4277 16.4787 59.8058 15.594 58.9975 15.5348L58.6522 15.5094C58.6522 15.5094 58.6464 15.5094 58.645 15.5094L53.1033 15.0995C52.2392 15.0361 51.5083 15.7771 51.4696 16.7548L51.3249 20.405C51.1027 20.3232 50.862 20.281 50.6384 20.35C50.2687 20.4655 50.0437 20.8473 49.9806 21.2587C49.8832 21.7616 50.124 22.1673 50.1784 22.2251C50.1798 22.2279 50.1856 22.2336 50.1899 22.2378C50.2859 22.3758 50.4034 22.497 50.5195 22.6182C50.5266 22.6266 50.5324 22.6336 50.5395 22.6421C50.561 22.6675 50.5825 22.6928 50.6055 22.7196C50.6155 22.7309 50.6255 22.7421 50.6356 22.7534C50.6556 22.7759 50.6757 22.7999 50.6957 22.8238C50.723 22.8562 50.7502 22.8872 50.7789 22.9196C50.786 22.9267 50.7918 22.9351 50.7989 22.9422C50.8548 23.0084 50.9136 23.0746 50.9723 23.1436C51.0282 23.2084 51.0855 23.2746 51.1414 23.3394C51.1629 23.3648 51.1844 23.3888 51.2059 23.4141L51.1615 24.5355C51.1615 24.5355 51.1586 24.5341 51.1558 24.5327H51.1529C51.1472 24.5299 51.1414 24.5256 51.1357 24.5228C51.1257 24.5186 51.1171 24.5172 51.107 24.513C51.0913 24.5073 51.0755 24.5003 51.0597 24.4975C50.6513 24.4073 49.5421 24.6792 49.6252 26.1133C49.6252 26.1133 49.6252 26.1133 49.6252 26.1147C49.6252 26.1147 49.6252 26.1176 49.6252 26.119V26.1218C49.6252 26.1218 49.6252 26.1246 49.6252 26.126C49.6252 26.1274 49.6252 26.1302 49.6252 26.1317C49.6252 26.1331 49.6252 26.1345 49.6252 26.1359C49.6252 26.1387 49.6252 26.1415 49.6252 26.1443C49.6252 26.1457 49.6252 26.1471 49.6252 26.15C49.6252 26.1542 49.6252 26.157 49.6252 26.1612C49.6252 26.1626 49.6252 26.1641 49.6252 26.1669C49.6252 26.1711 49.6252 26.1767 49.6281 26.181C49.6281 26.1824 49.6281 26.1838 49.6281 26.1852C49.6281 26.1908 49.631 26.1965 49.6324 26.2021C49.6324 26.2021 49.6324 26.2049 49.6324 26.2063C49.6338 26.2134 49.6353 26.2204 49.6381 26.2274C49.6525 26.2782 49.6797 26.3458 49.7284 26.4289C49.7284 26.4289 49.7284 26.4289 49.7284 26.4303C49.7356 26.443 49.7442 26.4571 49.7528 26.4712C49.7528 26.4712 49.7542 26.474 49.7557 26.4754C49.7643 26.4895 49.7743 26.5036 49.7829 26.5177C49.7829 26.5191 49.7857 26.5205 49.7857 26.5219C49.7958 26.536 49.8058 26.5515 49.8173 26.567L49.8201 26.5698C49.8316 26.5853 49.8445 26.6022 49.8574 26.6177C49.8975 26.6684 49.9448 26.7233 49.9993 26.7811C49.9993 26.7811 50.0007 26.7825 50.0021 26.7839C50.0767 26.8628 50.1684 26.9487 50.2744 27.0403C50.2759 27.0417 50.2787 27.0431 50.2802 27.046C50.3045 27.0671 50.3303 27.0882 50.3561 27.1093C50.3604 27.1122 50.3647 27.1164 50.369 27.1192C50.3948 27.1403 50.4206 27.1601 50.4478 27.1812C50.4536 27.1854 50.4593 27.1896 50.465 27.1953C50.4923 27.2164 50.5195 27.2361 50.5467 27.2587C50.5539 27.2643 50.561 27.2685 50.5668 27.2742C50.5954 27.2953 50.6241 27.3164 50.6542 27.339C50.6614 27.3432 50.6685 27.3488 50.6757 27.3545C50.7072 27.377 50.7387 27.3996 50.7717 27.4221C50.7774 27.4263 50.7846 27.4305 50.7903 27.4348C50.8247 27.4587 50.8606 27.4827 50.8978 27.508C50.9408 27.5362 50.9852 27.5658 51.0325 27.5954L51.0153 28.0236C50.9652 28.0025 50.9121 27.9814 50.8563 27.9617H50.8534C50.6986 27.9053 50.5266 27.8574 50.3876 27.8518C50.3332 27.8504 50.2845 27.8546 50.2429 27.8659C50.2214 27.8715 50.2028 27.8799 50.1856 27.8912C50.1798 27.8954 50.1712 27.8997 50.1626 27.9053C50.1598 27.9067 50.1583 27.9081 50.1555 27.9095C50.1483 27.9152 50.1397 27.9194 50.1311 27.9264C50.1297 27.9264 50.1283 27.9293 50.1254 27.9307C50.1025 27.9462 50.0767 27.9645 50.0466 27.987C50.0466 27.987 50.0466 27.987 50.0451 27.987C50.0007 28.0208 49.9506 28.0617 49.8975 28.1096C49.8803 28.1251 49.8631 28.142 49.8445 28.1589C49.5565 28.4392 49.2455 28.9154 49.4963 29.5395C49.7614 30.2016 50.4808 31.0258 50.882 31.454L50.8591 32.0218C50.8204 32.9995 51.4897 33.8447 52.3538 33.9081L52.4197 33.9124C52.4412 33.949 52.4613 33.987 52.4828 34.0236C52.4928 34.042 52.5029 34.0589 52.5129 34.0772C52.5372 34.1209 52.5616 34.1631 52.586 34.2068C52.596 34.2251 52.6075 34.2448 52.6175 34.2631C52.6433 34.3096 52.6691 34.3561 52.6949 34.4012C52.702 34.4153 52.7106 34.4294 52.7178 34.4435C52.7852 34.5646 52.8511 34.6844 52.9156 34.8013C52.9227 34.8154 52.9299 34.8281 52.9385 34.8421C52.9629 34.8858 52.9872 34.9309 53.0102 34.9746C53.0188 34.9915 53.0274 35.007 53.0374 35.0239C53.0589 35.0647 53.0804 35.1042 53.1019 35.1436C53.1105 35.1605 53.1205 35.1774 53.1291 35.1943C53.1492 35.2324 53.1707 35.2704 53.1907 35.3085C53.1993 35.324 53.2079 35.3394 53.2151 35.3549C53.2394 35.4 53.2624 35.4437 53.2839 35.486C53.2867 35.493 53.291 35.5 53.2939 35.5057C53.3197 35.5564 53.3455 35.6043 53.3699 35.6522C53.3742 35.6607 53.3785 35.6677 53.3813 35.6761C53.4 35.7128 53.4186 35.7494 53.4358 35.7846C53.4429 35.7987 53.4501 35.8128 53.4573 35.8269C53.4716 35.8551 53.4845 35.8832 53.4974 35.9086C53.5046 35.9227 53.5117 35.9368 53.5175 35.9509C53.5289 35.9762 53.5404 36.0002 53.5519 36.0227C53.5576 36.0354 53.5633 36.0481 53.5691 36.0607C53.5805 36.0847 53.5906 36.1072 53.5991 36.1284C53.6034 36.1382 53.6077 36.1481 53.612 36.158C53.6249 36.1875 53.6364 36.2157 53.6464 36.2425C53.9646 37.0582 54.6166 38.612 56.011 40.204C56.1142 40.3209 56.2202 40.4392 56.3306 40.5562C56.3306 40.5562 56.5312 40.8999 56.772 41.3282C56.7806 41.3437 56.7906 41.3606 56.7992 41.3761C56.8236 41.4197 56.8494 41.4648 56.8737 41.5099C56.8866 41.5325 56.8995 41.5564 56.9124 41.5789C56.9339 41.6184 56.9554 41.6564 56.9783 41.6959C56.9941 41.7226 57.0084 41.7508 57.0242 41.7776C57.0443 41.8128 57.0643 41.8494 57.0829 41.8846C57.0987 41.9142 57.1145 41.9438 57.1317 41.972C57.1503 42.0044 57.1675 42.0382 57.1861 42.0706C57.2033 42.1016 57.2191 42.1312 57.2348 42.1622C57.2506 42.1918 57.2678 42.2227 57.2836 42.2523C57.2993 42.2833 57.3151 42.3129 57.3309 42.3425C57.3452 42.3693 57.3595 42.396 57.3724 42.4214C57.3724 42.4214 57.3724 42.4214 57.3724 42.4228C57.3896 42.4552 57.404 42.4848 57.4197 42.5144C57.4297 42.5355 57.4426 42.558 57.4527 42.5778C57.477 42.6257 57.5 42.6722 57.5186 42.713C57.5229 42.7229 57.5272 42.7341 57.5315 42.7482C57.5329 42.7539 57.5344 42.7595 57.5372 42.7665C57.5401 42.7764 57.543 42.7849 57.5458 42.7961C57.5487 42.8046 57.5501 42.8144 57.553 42.8243C57.5559 42.8342 57.5573 42.844 57.5602 42.8553C57.563 42.8666 57.5645 42.8807 57.5673 42.8933C57.5688 42.9032 57.5716 42.9145 57.5731 42.9257C57.5759 42.9412 57.5788 42.9581 57.5817 42.975C57.5831 42.9849 57.5845 42.9948 57.586 43.006C57.5888 43.0258 57.5917 43.0455 57.5946 43.0666C57.5946 43.0765 57.5974 43.0849 57.5988 43.0948C57.6017 43.1187 57.606 43.1427 57.6089 43.168C57.6089 43.1751 57.6103 43.1807 57.6117 43.1878C57.616 43.2174 57.6189 43.2469 57.6232 43.2793C57.6318 43.3498 57.6404 43.4259 57.649 43.5062C57.6547 43.5569 57.6605 43.6104 57.6648 43.6653C57.6691 43.7161 57.6748 43.7682 57.6791 43.8231C57.6891 43.9274 57.6992 44.0373 57.7078 44.1528C57.7078 44.1612 57.7078 44.1697 57.7092 44.1781C57.7293 44.412 57.7479 44.6656 57.768 44.9375C57.7737 45.0121 57.778 45.0868 57.7837 45.1629C57.788 45.2347 57.7937 45.308 57.798 45.3826C57.8625 46.3477 57.9256 47.4733 57.9829 48.5848C57.9872 48.6707 57.9915 48.7553 57.9958 48.8412C58.1291 51.4855 58.2251 53.9818 58.2251 53.9818L58.3971 58.8886L58.4845 61.3906H69.4417L69.4475 61.3892ZM60.4851 28.4533C60.5022 28.504 60.518 28.5519 60.5338 28.5998C60.551 28.6534 60.5682 28.7027 60.5839 28.752C60.5911 28.7745 60.5983 28.7971 60.6069 28.8196C60.6183 28.8548 60.6298 28.89 60.6413 28.9239C60.647 28.9422 60.6542 28.9605 60.6599 28.9788C60.6757 29.0253 60.69 29.0704 60.7043 29.114C60.7086 29.1295 60.7129 29.1436 60.7186 29.1577C60.7287 29.1887 60.7387 29.2183 60.7473 29.2479C60.7516 29.2634 60.7573 29.2775 60.7616 29.2915C60.7731 29.3296 60.7846 29.3662 60.7946 29.4014C60.7975 29.4099 60.8003 29.4183 60.8018 29.4282C60.8104 29.455 60.8175 29.4817 60.8247 29.5057C60.8276 29.517 60.8319 29.5296 60.8347 29.5409C60.8419 29.5677 60.8491 29.593 60.8548 29.617C60.8562 29.624 60.8577 29.6311 60.8605 29.6367C60.8677 29.6621 60.872 29.6874 60.8777 29.7114C60.8791 29.7198 60.882 29.7297 60.8834 29.7381C60.8877 29.7564 60.8906 29.7748 60.8935 29.7917C60.8935 29.7987 60.8963 29.8043 60.8963 29.8114C60.9164 29.9382 60.9135 30.0241 60.8892 30.0946C60.8276 30.2707 60.4922 28.5069 59.9964 27.2981L60.0193 26.7276C60.1024 27.1939 60.2199 27.656 60.3761 28.1251C60.4148 28.2406 60.4507 28.3491 60.4851 28.4505C60.4851 28.4519 60.4851 28.4533 60.4865 28.4547L60.4851 28.4533Z" fill="#1B90FF"/>
</g>
<path d="M65.8413 61.3892H78.1571C78.1571 61.3892 73.8149 46.1471 73.0898 42.3036C72.3646 38.4615 71.8358 38.5131 71.9992 37.553C72.1611 36.5942 72.5696 35.9164 72.5968 35.1999C72.624 34.4833 72.786 31.3564 73.1055 30.1526C73.1055 30.1526 73.2058 29.7255 72.8017 29.0806C72.4162 28.463 72.0967 27.7937 71.7871 27.136C71.6338 26.8092 71.4575 26.4725 71.35 26.1271C71.201 25.6484 71.2683 25.1211 71.0648 24.6568C70.8126 24.0835 69.9155 23.5218 69.9198 22.8511C69.9198 22.6533 69.8768 20.9981 69.51 20.9308C69.1431 20.8634 68.3406 20.9107 68.1485 22.4599C67.9565 24.009 68.0927 25.3375 68.5713 26.7318C69.0499 28.1262 69.2047 28.549 69.1116 28.784C69.0184 29.019 68.4739 25.9107 67.6556 24.9907C67.0766 24.34 66.3113 23.8098 65.6292 23.2767C64.477 22.3767 63.2976 21.5097 62.0852 20.6929C61.5005 20.2988 60.9072 19.9176 60.2982 19.5622C59.7464 19.2397 59.1904 18.9273 58.5885 18.7066C58.3263 18.6106 58.0368 18.5547 57.7674 18.6321C57.0637 18.8356 56.8015 19.8287 57.1182 20.4263C57.2515 20.6785 57.4664 20.8706 57.6671 21.0698C57.8835 21.2847 58.0726 21.5241 58.2776 21.7491C58.5756 22.0772 58.8737 22.404 59.1718 22.7321L59.0285 23.9216C59.0285 23.9216 58.6215 23.0503 58.1643 22.9557C57.7072 22.8611 56.4547 23.1449 56.5235 24.6396C56.5235 24.6396 56.4131 25.2644 58.4209 26.3736L58.3578 26.7548C58.3578 26.7548 57.4349 26.3105 57.1268 26.4882C56.9319 26.6014 55.9144 27.2291 56.3214 28.2079C56.7284 29.1867 58.1543 30.5065 58.1543 30.5065C58.1543 30.5065 60.5002 34.2827 60.8685 35.1941C61.2368 36.1056 62.0193 37.9055 63.8063 39.6882C63.8063 39.6882 64.7765 41.2789 65.1004 41.9338C65.4243 42.5888 65.6894 53.6693 65.6894 53.6693L65.8442 61.3878L65.8413 61.3892Z" fill="#C35500"/>
<path d="M70.7637 59.7602C69.11 56.8295 69.0398 53.3959 68.8234 50.1285C68.7073 48.3672 68.4092 46.6232 68.3118 44.8605C68.2186 43.1939 68.2157 41.3481 69.0039 39.829C69.0699 39.7 69.292 39.7258 69.3207 39.8706C69.4869 40.7132 69.5729 41.5702 69.8036 42.3999C69.9971 43.0964 70.3166 43.9233 71.0274 44.2199C71.3241 43.3142 71.2983 42.4028 71.112 41.4684C71.0188 41.0027 70.9042 40.5427 70.8082 40.0784C70.7595 39.8419 70.695 39.594 70.6778 39.3518C70.662 39.1268 70.7021 38.8889 70.7337 38.6668C70.7953 38.2297 70.9056 37.8012 70.9629 37.3641C71.0131 36.9815 70.9758 36.6189 70.8612 36.2506C70.6133 35.451 70.116 34.7545 69.8581 33.9563C69.613 33.1953 69.4941 32.4544 69.5987 31.6562C69.6918 30.9368 69.9125 30.2432 70.0343 29.5281C70.1834 28.6511 70.0415 27.8156 69.795 26.9701C69.5571 26.1518 69.2476 25.355 69.0656 24.5209C68.8649 23.6024 68.6887 22.6737 68.5095 21.7508C68.4895 21.6519 68.4723 21.5516 68.4536 21.4513C68.3189 21.682 68.2086 22.0073 68.1527 22.4616C67.9607 24.0108 68.0968 25.3392 68.5755 26.7336C68.9079 27.7009 69.0842 28.2011 69.13 28.4949C69.2461 28.5178 69.3393 28.674 69.2332 28.7915C69.1702 28.8603 69.1014 28.9219 69.0283 28.9807C68.6342 29.2931 68.1498 29.5295 67.6569 29.6298C67.1796 29.7273 66.5534 29.6872 66.3298 29.1741C66.1923 28.8574 66.3012 28.5249 66.3786 28.2082C66.443 27.9474 66.4989 27.6436 66.4373 27.3771C66.3771 27.1148 66.208 26.897 66.0604 26.6777C65.8541 26.3725 65.6448 26.0701 65.4198 25.7778C64.56 24.6643 63.5855 23.631 62.5781 22.6494C61.6666 21.7609 60.6979 20.9139 59.6044 20.2533C58.8406 19.7918 58.0066 19.425 57.1295 19.2773C56.7913 19.9351 57.1524 20.5184 57.2227 20.5886C57.3144 20.6803 59.1788 22.7353 59.1788 22.7353L59.0355 23.9248C59.0355 23.9248 58.6285 23.0535 58.1714 22.9589C57.7142 22.8643 56.4617 23.1481 56.5305 24.6428C56.5305 24.6428 56.4201 25.2676 58.4279 26.3768L58.3648 26.758C58.3648 26.758 57.4419 26.3137 57.1338 26.4914C57.0679 26.5287 56.9103 26.6247 56.7455 26.7723C56.8071 26.7924 57.0779 26.9228 57.4735 26.9256C58.5998 26.9328 57.0263 28.5092 57.5308 28.6797C57.7486 28.7528 57.9779 28.7944 58.18 28.9076C58.4035 29.0323 58.5239 29.2429 58.6385 29.4636C58.7618 29.7001 58.8678 29.9451 59.0025 30.1773C59.1416 30.4166 59.325 30.6301 59.4798 30.8609C59.8094 31.3495 60.1318 31.8898 60.6119 32.2509C60.7552 32.3584 60.9272 32.4229 61.0633 32.5404C61.2338 32.6866 61.2912 32.9116 61.3384 33.1208C61.4115 33.4404 61.4273 33.7686 61.4846 34.091C61.5477 34.4378 61.6867 34.7416 61.8472 35.0526C62.1668 35.6774 62.5322 36.2779 62.8919 36.8797C63.2401 37.463 63.6113 38.0405 63.8478 38.6811C64.0613 39.2586 64.1745 39.8605 64.2762 40.4667C64.5729 40.9669 64.9326 41.5888 65.106 41.9399C65.4284 42.5948 65.695 53.6753 65.695 53.6753L65.8498 61.3939H71.9274C71.4932 60.8923 71.1034 60.3506 70.7724 59.7645L70.7637 59.7602Z" fill="#8D2A00"/>
<path d="M58.8946 22.4272C59.1038 22.5261 59.3202 22.6049 59.5481 22.6608C59.9608 22.7626 60.3749 22.7826 60.7977 22.7783C61.2663 22.7726 61.7349 22.7396 62.1978 22.678C62.3139 22.6623 62.43 22.6436 62.546 22.625C61.6418 21.7451 60.6802 20.9082 59.5982 20.2533C58.8344 19.7918 58.0003 19.425 57.1233 19.2773C56.7851 19.9351 57.1462 20.5184 57.2165 20.5886C57.2852 20.6588 58.3715 21.8526 58.8946 22.4287V22.4272Z" fill="#450B00"/>
<path d="M62.8455 22.9194C62.6033 22.9624 62.3611 23.004 62.1175 23.0341C61.6159 23.0971 61.1115 23.1272 60.607 23.1243C60.1055 23.1215 59.6153 23.0513 59.1525 22.8965L59.0292 23.9211C59.0292 23.9211 58.6222 23.0498 58.1651 22.9552C57.7079 22.8607 56.4554 23.1444 56.5242 24.6391C56.5242 24.6391 56.4339 25.1579 57.9372 26.0908C58.3413 26.1739 58.7354 26.3101 59.1324 26.4261C59.6125 26.5666 60.0997 26.6626 60.6013 26.5881C61.0685 26.5179 61.5199 26.353 61.9469 26.1539C62.4457 25.9217 62.9243 25.6451 63.3843 25.3384C63.3055 24.6434 63.2381 23.9455 63.1794 23.2476C63.069 23.1358 62.9573 23.0269 62.8469 22.9165L62.8455 22.9194Z" fill="#8D2A00"/>
<path d="M58.1732 28.9064C58.3137 28.9852 58.414 29.097 58.4971 29.2246C58.7937 29.2504 59.0918 29.2633 59.3899 29.2618C60.3687 29.2561 61.3804 29.0984 62.2503 28.6298C62.6716 28.4034 63.0614 28.1225 63.4283 27.8173C63.5128 27.7471 63.596 27.6754 63.6791 27.6023C63.6647 27.5206 63.6518 27.4404 63.6404 27.3587C63.563 26.8141 63.4928 26.2681 63.4283 25.7207C63.3896 25.7465 63.3509 25.7723 63.3108 25.7981C62.4724 26.3283 61.5309 26.8299 60.5306 26.946C59.9846 27.009 59.4515 26.8872 58.9313 26.731C58.7507 26.6766 58.5716 26.6192 58.3896 26.5648L58.3581 26.7568C58.3581 26.7568 57.4352 26.3126 57.1271 26.4903C57.0612 26.5275 56.9035 26.6235 56.7387 26.7711C56.8003 26.7912 57.6659 26.9273 57.6659 27.0119C57.6659 27.1667 57.1428 27.0793 57.14 27.234C57.1342 27.5135 56.8448 27.9606 56.9823 28.2099C57.1099 28.4392 57.2761 28.594 57.5255 28.6786C57.7433 28.7516 57.9726 28.7932 58.1746 28.9064H58.1732Z" fill="#8D2A00"/>
<path d="M67.6879 35.136C67.5933 34.6746 64.4578 34.9583 64.6369 32.7643C64.7702 31.1507 64.0923 29.5858 63.7527 27.9922C63.6882 28.0481 63.6223 28.104 63.5564 28.157C63.1608 28.4751 62.7438 28.7703 62.2895 28.9982C61.8238 29.2318 61.3251 29.3823 60.812 29.4768C60.1113 29.6058 59.4005 29.6302 58.6925 29.5829C58.7914 29.7807 58.8831 29.9813 58.9949 30.1733C59.1339 30.4126 59.3173 30.6262 59.4721 30.8569C59.5509 30.973 59.6283 31.0919 59.7086 31.2109C59.2457 31.0389 58.7756 30.8913 58.3027 30.748C58.8244 31.5949 60.5555 34.4224 60.8665 35.1934C61.2348 36.1048 62.0173 37.9047 63.8043 39.6875C63.8043 39.6875 64.0279 40.0543 64.2958 40.5072C64.5868 40.9987 64.9293 41.592 65.0984 41.9331C65.1342 42.0062 65.17 42.2125 65.2044 42.5192C65.3334 41.1148 65.587 39.7176 65.5397 38.306C65.5096 37.3702 65.3649 36.4444 65.1901 35.5258C65.1027 35.0673 67.7811 35.5918 67.6879 35.1346V35.136Z" fill="#450B00"/>
<path d="M67.352 31.3537L68.3022 15.6458C68.3666 14.571 67.6845 13.6509 66.7774 13.5879L67.2517 13.6209C68.1589 13.6839 68.841 14.6039 68.7765 15.6787L67.8264 31.3866C67.7619 32.4614 66.9737 33.2811 66.0666 33.2181L65.5922 33.1851C66.4994 33.2482 67.2875 32.427 67.352 31.3537Z" fill="#9B015D"/>
<path d="M65.6715 33.1885L59.4505 32.7615C58.4803 32.6956 57.7451 31.8142 57.8068 30.7953L58.7684 14.8882C58.83 13.8693 59.6655 13.0969 60.6356 13.1642L66.8566 13.5913C67.8268 13.6572 68.562 14.5386 68.5003 15.5575L67.5388 31.4646C67.4771 32.4835 66.6417 33.2559 65.6715 33.1885Z" fill="#DF1278"/>
<path d="M65.3827 32.5734L60.1118 32.2108C59.2377 32.1506 58.5756 31.3467 58.6315 30.4152L59.5544 15.1673C59.6103 14.2358 60.3655 13.5293 61.2382 13.5895L66.5091 13.9521C67.3832 14.0123 68.0453 14.8162 67.9894 15.7477L67.0665 30.9956C67.0106 31.9271 66.2554 32.6336 65.3827 32.5734Z" fill="white"/>
<mask id="mask0_4011_82000" style="mask-type:alpha" maskUnits="userSpaceOnUse" x="58" y="13" width="10" height="20">
<path d="M65.3819 32.5734L60.111 32.2108C59.2369 32.1506 58.5748 31.3467 58.6307 30.4152L59.5536 15.1673C59.6095 14.2358 60.3647 13.5293 61.2374 13.5895L66.5083 13.9521C67.3824 14.0123 68.0445 14.8162 67.9886 15.7477L67.0657 30.9956C67.0098 31.9271 66.2546 32.6336 65.3819 32.5734Z" fill="white"/>
</mask>
<g mask="url(#mask0_4011_82000)">
<path d="M72.8351 7.3562L44.952 29.6176L47.1235 32.3374L75.0066 10.0761L72.8351 7.3562Z" fill="white"/>
<path d="M78.3443 14.2558L50.4612 36.5171L53.3779 40.1705L81.2611 17.9091L78.3443 14.2558Z" fill="white"/>
</g>
<path d="M65.6619 26.6773L60.49 26.3434C60.3065 26.3319 60.1661 26.1643 60.179 25.9722C60.1919 25.7802 60.3524 25.6312 60.5358 25.6441L65.7078 25.978C65.8912 25.9894 66.0316 26.1571 66.0187 26.3491C66.0058 26.5412 65.8453 26.6902 65.6619 26.6773ZM63.1899 24.7599C63.0064 24.7484 62.866 24.5807 62.8789 24.3887L63.1182 20.6799L62.1251 21.5971C61.9875 21.7246 61.774 21.7103 61.6536 21.567C61.5332 21.4222 61.5476 21.2001 61.6851 21.0726L63.283 19.5965C63.3504 19.5349 63.4435 19.5019 63.5281 19.5062C63.6241 19.512 63.7 19.5564 63.7588 19.6266L65.1589 21.3004C65.2793 21.4452 65.265 21.6673 65.1274 21.7948C64.9898 21.9224 64.7763 21.9081 64.6559 21.7648L63.7889 20.7286L63.5496 24.4374C63.5367 24.6295 63.3762 24.7785 63.1927 24.7656L63.1884 24.7613L63.1899 24.7599Z" fill="#0040B0"/>
<path d="M65.3151 14.5698L62.3486 14.3663C62.2669 14.3606 62.2053 14.2861 62.2096 14.1987L62.2168 14.0855C62.2225 13.998 62.2927 13.9321 62.3744 13.9378L65.3409 14.1413C65.4226 14.1471 65.4842 14.2216 65.4799 14.309L65.4727 14.4222C65.467 14.5096 65.3968 14.5756 65.3151 14.5698Z" fill="#9B015D"/>
<path d="M63.0142 31.9384L62.5342 31.9055C62.4281 31.8983 62.3493 31.8009 62.355 31.6891V31.6676C62.3636 31.5558 62.4539 31.4698 62.56 31.477L63.04 31.5099C63.1461 31.5171 63.2249 31.6146 63.2192 31.7263V31.7478C63.2106 31.8596 63.1203 31.9456 63.0142 31.9384Z" fill="#9B015D"/>
<path d="M57.8768 26.5645C58.6492 26.8009 58.9273 27.6479 58.6091 28.2569C58.291 28.866 57.6647 29.3976 56.5913 28.287C56.5913 28.287 56.4681 27.4472 57.0671 27.2294C57.6661 27.0116 58.3297 27.3412 58.3297 27.3412" fill="#C35500"/>
<path d="M57.7462 27.1658C57.9611 27.2446 58.1488 27.3937 58.2721 27.5857C58.4168 27.8107 58.5143 28.0572 58.5773 28.3123C58.5874 28.2937 58.5974 28.275 58.6074 28.255C58.9241 27.6459 58.6476 26.799 57.8751 26.5625L57.4653 27.1114C57.5599 27.1157 57.6544 27.1314 57.7447 27.1644L57.7462 27.1658Z" fill="#8D2A00"/>
<path d="M58.5693 23.1957C59.0407 23.4751 58.972 24.0039 58.7126 24.5356C58.3056 25.3711 57.6521 25.5732 57.1806 25.2937C56.7091 25.0143 56.5931 23.9452 57.0058 23.5224C57.3612 23.1584 58.0978 22.9162 58.5693 23.1957Z" fill="#C35500"/>
<path d="M58.2718 22.9937C58.0425 22.9177 57.6627 23.0567 57.2887 23.2631C57.6828 23.2832 57.9966 23.2617 58.1543 23.6988C58.2961 24.0928 58.4509 24.5586 58.4237 24.9828C58.5283 24.8538 58.6258 24.6976 58.7132 24.5099C58.9711 23.9481 59.1073 23.2746 58.2732 22.9951L58.2718 22.9937Z" fill="#8D2A00"/>
<path d="M57.124 28.0374C57.1498 28.0704 57.1784 28.1033 57.2085 28.1363C57.2085 28.1363 57.5482 27.4943 57.9824 27.3438C58.2891 27.2378 58.1286 26.8866 57.6843 26.8809C57.081 26.8737 56.7485 27.5645 57.124 28.0374Z" fill="#450B00"/>
<path d="M56.8674 24.2611C56.8674 24.2611 56.8875 23.1734 58.0339 23.2308C58.0339 23.2308 56.6539 22.8997 56.8674 24.2611Z" fill="#450B00"/>
<path d="M69.509 20.9316C69.509 20.9316 69.5563 22.958 69.8401 22.9938C69.8401 22.9938 69.9304 22.9996 69.9175 22.7072C69.9046 22.4149 69.8702 21.032 69.5105 20.9316" fill="#450B00"/>
<defs>
<clipPath id="clip0_4011_82000">
<rect width="77.6" height="32.4" fill="white" transform="translate(24.3992 6.19922)"/>
</clipPath>
<clipPath id="clip1_4011_82000">
<rect width="20" height="23.2" fill="white" transform="translate(53.5996 38.1992)"/>
</clipPath>
</defs>
</svg>
