<svg width="128" height="61" viewBox="0 0 128 61" fill="none" xmlns="http://www.w3.org/2000/svg">
<rect y="5.69922" width="128" height="55.2" rx="8" fill="#222F3B"/>
<g clip-path="url(#clip0_4038_89682)">
<path d="M96.2669 31.6219C95.8114 31.3217 95.3559 31.0214 94.9005 30.7197C92.9085 29.401 90.9222 28.0676 89.0188 26.6105C87.1492 25.1784 85.347 23.6286 83.7613 21.8551C82.2361 20.1478 80.9077 18.2257 79.9939 16.0857C79.7114 15.4234 79.471 14.7449 79.2714 14.0561C79.2264 14.0973 79.1814 14.137 79.1378 14.1797C79.1322 14.1841 79.128 14.19 79.1224 14.1944C79.0661 14.2489 79.0113 14.3048 78.9565 14.3622C78.941 14.3784 78.927 14.3931 78.9115 14.4093C78.8539 14.4711 78.7962 14.5344 78.7414 14.5992C78.6346 13.8442 78.3998 13.5174 77.6337 13.2657L77.4383 12.7683C77.4059 12.3591 77.3399 11.9485 77.2457 11.5393C77.2133 11.398 77.1754 11.2567 77.136 11.1169C77.1023 10.9962 77.0657 10.8741 77.0264 10.7534C77.0236 10.7475 77.0222 10.7401 77.0194 10.7343C76.9547 10.54 76.8844 10.3472 76.8071 10.1544C76.779 10.0852 76.7509 10.016 76.7213 9.94685C76.6257 9.72167 76.5203 9.49649 76.4079 9.27572C76.405 9.2713 76.4022 9.26541 76.3994 9.261C76.2364 8.94456 76.0578 8.63549 75.8624 8.3323C75.861 8.32935 75.8582 8.32641 75.8568 8.32347C75.3128 7.4816 74.6464 6.70155 73.8845 6.026C73.8775 6.01864 73.8691 6.01275 73.8606 6.0054C73.6596 5.82731 73.4516 5.65805 73.2379 5.49616C70.8664 3.70351 67.8005 2.96026 65.2631 3.56369L65.1703 3.40915C64.5672 2.19934 63.4005 1.23826 62.1522 0.674566C60.9039 0.11087 59.574 -0.0907659 58.2892 -0.145222C56.6318 -0.215868 54.9842 -0.046612 53.5912 0.593617C52.1995 1.23385 51.0805 2.38332 50.729 3.88896L50.2525 3.83745C47.8234 2.87489 45.6824 3.32085 44.07 4.85004C43.2744 5.60507 42.7599 6.62649 42.5574 7.75094C42.452 8.33671 42.4295 8.95339 42.497 9.57596C42.5476 10.041 42.9749 10.9197 42.8414 11.3215C42.7809 11.5055 42.6404 11.6409 42.5026 11.7704C42.3761 11.8911 42.2454 12.0133 42.0739 12.0721C41.8939 12.1339 41.6845 12.1192 41.4806 12.0868C40.7848 11.975 40.0158 11.6571 39.4395 11.9279C39.1625 12.0574 38.9812 12.3061 38.7774 12.524C37.9831 13.3717 36.7728 13.4453 35.852 14.0988C35.0114 14.6949 34.3169 15.4808 33.9191 16.4463C33.2303 18.1212 33.4383 21.1796 35.7438 22.226C35.4401 22.7573 35.8211 23.8391 36.0544 24.4955C35.4443 23.9083 34.1187 23.7331 33.4397 23.9922C32.5668 24.3263 31.5546 24.9886 31.9412 25.9541C32.0452 26.216 32.2435 26.4456 32.3882 26.6944C32.5429 26.9593 32.6455 27.2272 32.6933 27.4818C32.8634 28.3752 31.7219 28.6725 31.109 27.9101C30.7702 27.4906 30.3471 27.1168 29.9071 26.7886C29.1367 26.2146 27.866 26.3603 27.8477 27.2139L26.5474 27.1653C25.6772 27.1536 24.9392 27.7217 24.7803 28.5253C24.6215 29.3289 25.0545 30.3135 25.815 30.8787C25.2175 30.7963 24.6651 31.1436 24.5385 31.6808C24.4106 32.218 24.7199 32.8994 25.2527 33.2556C25.6646 33.5323 26.1495 33.6074 26.6106 33.7354C27.9503 34.1048 29.1157 34.9364 30.3401 35.6149C30.3696 35.6311 30.4005 35.6473 30.4314 35.6649C30.5158 35.7106 30.6001 35.7562 30.6845 35.8003C30.7182 35.818 30.7505 35.8357 30.7843 35.8519C30.8982 35.9093 31.012 35.9667 31.1259 36.0196C31.3002 36.1006 31.4787 36.1742 31.6587 36.2434C31.878 36.3272 32.1029 36.4038 32.3292 36.473C33.2036 36.7379 34.1243 36.8998 35.0198 37.0146C35.0254 37.0146 35.0311 37.016 35.0367 37.0175C35.3825 37.0617 35.7241 37.0985 36.0587 37.1323C36.084 37.1353 36.1079 37.1367 36.1332 37.1397C36.2892 37.1544 36.4438 37.1706 36.5942 37.1853C36.5971 37.1853 36.5999 37.1853 36.6027 37.1853C36.8121 37.2059 37.0202 37.2221 37.2282 37.2383C37.2915 37.2427 37.3562 37.2471 37.4194 37.2515C37.5726 37.2618 37.7259 37.2721 37.8791 37.281C37.9438 37.2854 38.0084 37.2883 38.0731 37.2927C38.2544 37.303 38.4344 37.3119 38.6143 37.3192C38.6424 37.3192 38.6691 37.3222 38.6972 37.3237C38.9137 37.3325 39.1302 37.3398 39.3467 37.3457C39.379 37.3457 39.4128 37.3472 39.4451 37.3487C39.6335 37.3531 39.8204 37.3575 40.0074 37.3604C40.0454 37.3604 40.0833 37.3604 40.1213 37.3619C41.7815 37.3869 43.4332 37.3546 45.092 37.3693C45.9397 37.3766 46.7887 37.3958 47.642 37.4429C49.1377 37.5238 50.6433 37.6887 52.1446 37.827C53.0064 37.9065 53.8681 37.9771 54.7256 38.0198C57.0929 38.1361 59.4222 38.0301 61.7543 37.958C61.7571 37.958 61.76 37.958 61.7628 37.958C62.3813 37.9389 63.0012 37.9227 63.6226 37.9079C63.8292 37.9035 64.0359 37.8991 64.2425 37.8947C64.667 37.8859 65.0902 37.877 65.5147 37.8697C65.7467 37.8653 65.9786 37.8623 66.2106 37.8579C66.6618 37.8506 67.113 37.8461 67.5657 37.8417C67.7414 37.8403 67.9157 37.8373 68.0914 37.8358L73.5443 37.8285C73.5907 37.8285 73.6371 37.8285 73.6835 37.8285C74.3836 37.8314 75.085 37.8373 75.7865 37.8447C75.8948 37.8447 76.0044 37.8461 76.1126 37.8476C76.8942 37.855 77.6758 37.8653 78.4588 37.8756C79.9152 37.8962 81.3744 37.9212 82.8321 37.9492C84.1704 37.9742 85.5087 38.0021 86.8484 38.0301C87.1407 38.036 87.4303 38.0448 87.7185 38.0522C87.89 38.0566 88.0615 38.0625 88.2316 38.0669C88.5156 38.0757 88.7967 38.0831 89.0765 38.089C89.2339 38.0919 89.3899 38.0949 89.546 38.0963C90.4625 38.1081 91.365 38.089 92.2605 37.9977C92.8003 37.9418 93.3387 37.8594 93.8771 37.7387C95.5021 37.3722 101.387 36.2083 101.977 35.3105C102.567 34.4127 97.6248 34.6597 97.3872 33.4411C96.8755 33.0702 96.8713 32.2062 96.2626 31.6219H96.2669Z" fill="#101619"/>
</g>
<path d="M100.259 32.2222C100.025 32.1204 99.7755 32.1839 99.4146 32.0675C98.5132 31.7781 98.2911 30.9401 97.2271 30.9771C96.134 31.0141 96.2556 32.1587 95.8723 32.1085C94.9312 31.9829 95.3542 30.8277 94.6854 30.1536C96.2411 29.8972 97.0923 28.6865 97.8378 27.2973C98.3969 26.2544 98.4537 24.7159 97.4346 24.1145C97.2364 23.9968 97.0051 23.9228 96.8464 23.755C96.6627 23.5633 96.6059 23.2857 96.4843 23.0491C96.1525 22.4068 95.3462 22.1279 94.6259 22.2032C93.9068 22.2785 93.0094 22.8667 92.3762 23.2157C92.5732 22.5759 93.4085 19.824 91.7775 19.4064C90.7148 18.9081 90.2033 19.528 89.9442 19.4738C90.3011 18.1309 90.3605 16.6835 89.9217 15.3657C89.4829 14.0479 88.5088 12.8782 87.2121 12.3785C85.1872 11.5987 82.8542 12.5821 81.2919 14.0876C81.3263 13.3725 81.1624 13.0619 80.487 12.824L80.3918 12.3534C80.668 9.81035 79.6463 7.16021 77.7351 5.46174C75.8238 3.76195 73.0719 3.05745 70.579 3.62978L70.5195 3.48306C70.1666 2.33709 69.2414 1.42507 68.1668 0.891081C67.0922 0.357088 65.8788 0.165432 64.6813 0.113883C63.1362 0.0464734 61.5553 0.207729 60.1331 0.814418C58.7096 1.42111 57.4539 2.51024 56.8565 3.93775L56.4176 3.88884C54.3041 2.97682 52.2131 3.39847 50.4248 4.84976C49.5418 5.56616 48.8783 6.53369 48.4871 7.59903C48.2835 8.1555 48.1527 8.7384 48.1064 9.32922C48.0707 9.77069 48.3179 10.6034 48.1209 10.9828C48.031 11.1559 47.8751 11.2854 47.7231 11.4084C47.583 11.522 47.4389 11.6383 47.2671 11.6939C47.0873 11.752 46.893 11.7388 46.7066 11.7071C46.0722 11.6013 45.406 11.3 44.8165 11.5564C44.5337 11.6793 44.3182 11.9146 44.0882 12.1208C43.1907 12.9244 42.0408 12.9945 41.0574 13.6144C40.1599 14.1801 39.3682 14.9243 38.8223 15.8402C37.8773 17.4264 37.531 20.3263 39.5123 21.3189C39.1329 21.8225 39.2982 22.8482 39.4013 23.4708C38.932 22.9143 37.7173 22.7478 37.0313 22.9936C36.151 23.3095 35.0817 23.9374 35.2734 24.8533C35.3249 25.1018 35.4703 25.3186 35.5628 25.5552C35.6607 25.8063 35.7096 26.0601 35.7096 26.302C35.7096 27.1479 34.5847 27.4308 34.1433 26.7091C33.9001 26.3113 33.567 25.9583 33.2114 25.6464C32.5902 25.1018 31.3689 25.2406 31.1997 26.0495L29.985 26.0046C29.1695 25.9927 28.3738 26.532 28.0817 27.2933C27.7896 28.0547 28.0222 28.9878 28.6368 29.5231C28.0896 29.4452 27.5093 29.7743 27.2939 30.2832C27.0784 30.7934 27.2476 31.4371 27.6865 31.7754C28.0248 32.0371 28.4676 32.1085 28.8774 32.2301C30.3234 32.6544 31.4099 33.7224 32.7197 34.3952C34.1697 35.1406 36.0519 35.3415 37.6552 35.4975C41.0931 35.8332 44.5535 35.5504 47.998 35.742C50.1882 35.8636 52.3651 36.1795 54.5566 36.2893C56.7613 36.399 58.97 36.2998 61.1773 36.2298C66.4155 36.0659 71.6563 36.0764 76.8957 36.1505C79.5155 36.1875 82.1365 36.2417 84.7563 36.2985C87.0403 36.3474 89.1723 36.5113 91.4166 36.0223C93.7509 35.5134 96.1155 35.1393 98.4934 34.9027C99.2904 34.8234 100.198 34.6978 100.644 34.033C100.92 33.6219 100.907 33.0245 100.648 32.6081C100.512 32.3887 100.387 32.2817 100.257 32.2248L100.259 32.2222Z" fill="#D5DADD"/>
<path d="M36.5971 27.2816C37.3254 27.2816 38.0537 27.2988 38.7688 27.4521C39.1336 27.5301 39.4799 27.6438 39.8222 27.7892C39.9623 27.8487 40.1024 27.9055 40.2465 27.9478C40.0866 27.7033 39.8817 27.4825 39.7059 27.2565C39.4283 26.901 39.1904 26.5203 39.1309 26.0656C39.0635 25.5475 39.2327 25.0505 39.5975 24.6777C40.2069 24.0552 41.14 23.9561 41.9767 23.9428C42.1512 23.1974 42.5094 22.5021 43.0381 21.9443C43.2601 21.7104 43.5007 21.5412 43.7928 21.4024C44.0691 21.2702 44.3598 21.1685 44.6308 21.0257C44.6797 21.0006 44.7326 20.9543 44.7828 20.9332C44.7868 20.9173 44.8079 20.879 44.8106 20.8671C44.8423 20.7534 44.8449 20.6371 44.8436 20.5195C44.8383 20.1996 44.7907 19.8824 44.8317 19.5625C44.915 18.9122 45.4278 18.3346 46.09 18.2394C46.357 18.2011 46.624 18.2302 46.8923 18.2223C47.2096 18.213 47.4726 18.1231 47.7145 17.913C47.9669 17.6935 48.1916 17.4477 48.4851 17.2785C48.7388 17.1331 49.0006 17.0657 49.2913 17.0406C49.5768 17.0168 49.865 17.0327 50.1505 17.0432C50.3911 17.0525 50.658 17.0736 50.8867 17.0234C50.9422 17.0115 50.9964 16.9943 51.0202 16.9851C51.0744 16.9626 51.0519 16.9745 51.0903 16.9388C51.1299 16.9018 51.1312 16.8992 51.1418 16.882C51.163 16.8503 51.1815 16.8159 51.2 16.7828C51.2251 16.7353 51.2595 16.6282 51.2832 16.5383C51.3097 16.4352 51.3282 16.3308 51.344 16.2251C51.4286 15.6699 51.3665 14.4605 52.0644 14.3098C52.1609 13.9067 52.3089 13.5168 52.4226 13.1176C52.453 13.0119 52.4808 12.9061 52.5032 12.7977C52.5257 12.6933 52.5323 12.6523 52.5389 12.5757C52.5442 12.5056 52.5455 12.4356 52.5389 12.3655C52.5363 12.3589 52.5257 12.306 52.5217 12.2928C52.5191 12.2796 52.5178 12.273 52.5178 12.269C52.5151 12.2664 52.5098 12.2624 52.5019 12.2518C52.4953 12.2426 52.4913 12.2373 52.4887 12.232C52.4847 12.228 52.4821 12.2254 52.4781 12.2214C52.4715 12.2188 52.449 12.2043 52.4319 12.195C52.4319 12.199 52.3671 12.1765 52.3526 12.1739C52.3499 12.1739 52.3459 12.1739 52.3407 12.1725C52.3208 12.1712 52.2997 12.1699 52.2799 12.1686C52.0248 12.1606 51.7538 12.232 51.5185 12.3245C50.9938 12.5294 50.6858 12.9722 50.4413 13.456C50.1769 13.9807 49.9535 14.5134 49.5742 14.9694C49.4777 15.0844 49.3006 15.0566 49.2001 14.9694C48.8486 14.6588 48.5234 14.3191 48.1678 14.0124C47.8744 13.76 47.5427 13.4877 47.1659 13.3767C47.0126 13.3317 46.854 13.3264 46.6967 13.3634C46.6505 13.374 46.6491 13.3767 46.6227 13.3886C46.6121 13.3938 46.6029 13.4005 46.5923 13.4071C46.5923 13.4084 46.5897 13.4097 46.587 13.4137C46.5817 13.419 46.5791 13.4203 46.5791 13.4203C46.5764 13.4242 46.5751 13.4269 46.5738 13.4309C46.5712 13.4414 46.5645 13.4626 46.5619 13.4758C46.5619 13.493 46.5606 13.5088 46.5619 13.526C46.5619 13.5353 46.5672 13.5802 46.5672 13.5855C46.5791 13.6529 46.5989 13.7203 46.6201 13.7851C46.6703 13.9344 46.7377 14.0772 46.8064 14.2186C46.969 14.5517 47.1501 14.8795 47.2704 15.2311C47.3206 15.3791 47.2122 15.5047 47.0853 15.5563C46.6016 15.7545 46.053 15.7955 45.5362 15.8299C44.4497 15.9039 43.3394 15.8629 42.2913 16.1339C41.8326 16.2528 41.4044 16.4299 41.0845 16.7551C40.8109 17.0327 40.6682 17.4001 40.6192 17.8019C40.6497 17.7966 40.6814 17.79 40.7184 17.7795C40.8757 17.7358 40.9854 17.6803 41.1321 17.601C41.452 17.4279 41.752 17.2204 42.0719 17.0459C42.3732 16.8807 42.7076 16.726 43.0579 16.7234C43.4505 16.722 43.7545 16.9375 43.9765 17.2441C44.0677 17.3697 43.9871 17.527 43.8814 17.6063C43.4928 17.8945 43.0539 18.1112 42.6349 18.3505C42.2186 18.5884 41.7969 18.8355 41.4348 19.1528C41.1506 19.4026 40.8625 19.733 40.8254 20.0992C40.8017 20.3384 40.9444 20.5102 41.0805 20.6926C41.2563 20.9266 41.3964 21.1566 41.4229 21.454C41.4784 22.099 41.2735 22.7506 41.4057 23.3917C41.444 23.5754 41.3277 23.7036 41.1506 23.7261C40.6034 23.7948 40.0482 23.8834 39.5328 24.0882C39.0926 24.2614 38.7014 24.5429 38.4053 24.913C37.9916 25.4312 38.0048 26.437 37.147 26.4568C37.0967 26.4568 37.0452 26.4542 36.9963 26.4674C36.7888 26.5216 36.5257 26.8877 36.4451 27.0715C36.4266 27.1138 36.4279 27.119 36.4266 27.1468C36.4266 27.1547 36.4266 27.16 36.4253 27.1627C36.4253 27.1613 36.4279 27.1613 36.4306 27.1653C36.4663 27.2142 36.5337 27.2512 36.5984 27.2777L36.5971 27.2816Z" fill="#3B5B7C"/>
<path d="M53.5373 10.7953C53.5373 10.7953 53.54 10.8033 53.5426 10.8112C53.5505 10.8376 53.5571 10.8654 53.5637 10.8931C53.5637 10.8958 53.5637 10.8971 53.5651 10.8984C53.5651 10.8984 53.5664 10.8997 53.5677 10.9024C53.5756 10.9169 53.6034 10.9539 53.5994 10.95C53.6047 10.9566 53.6113 10.9619 53.6166 10.9685C53.6259 10.9738 53.6351 10.979 53.6444 10.9843C53.6483 10.987 53.6497 10.9883 53.651 10.9896C53.6549 10.9896 53.6576 10.9896 53.6616 10.9909C53.6748 10.9936 53.6867 10.9962 53.6999 11.0002C53.6972 10.9976 53.7567 11.0055 53.7713 11.0055C53.7858 11.0055 53.8387 11.0002 53.8466 11.0002C54.1572 11.0068 54.5458 10.7226 54.789 10.5574C55.1287 10.3274 55.4367 10.0512 55.7275 9.7617C55.9535 9.53701 56.1716 9.30173 56.4254 9.10875C56.6791 8.91578 56.9779 8.76774 57.2951 8.74395C57.6348 8.71883 57.9718 8.83647 58.2613 9.01623C58.7014 9.28851 59.0134 9.69826 59.4152 10.0142C59.71 10.2468 60.0721 10.4199 60.4396 10.5204C61.148 10.7134 61.9675 10.6526 62.4632 10.0763C63.0011 9.44977 62.9655 8.45977 62.4394 7.83325C61.8446 7.12611 60.9207 6.72958 60.043 6.51413C59.6201 6.40971 59.1905 6.34495 58.7543 6.36213C57.3387 6.41632 56.8787 7.87026 55.8729 8.59591C55.7711 8.66861 55.6627 8.73469 55.5424 8.76906C55.4393 8.79814 55.3309 8.80343 55.2239 8.81797C54.5551 8.90917 54.0515 9.38368 53.7475 9.96261C53.7316 9.99301 53.7157 10.0247 53.7012 10.0565C53.6933 10.0723 53.6867 10.0882 53.6801 10.1027C53.6761 10.1107 53.6748 10.1159 53.6721 10.1212C53.6166 10.256 53.5756 10.3962 53.5479 10.5402C53.5479 10.5468 53.5426 10.5746 53.5413 10.5825C53.5413 10.5878 53.5413 10.5918 53.54 10.5971C53.5386 10.6301 53.5347 10.6631 53.5347 10.6975C53.5347 10.7226 53.536 10.7477 53.5373 10.7742C53.5373 10.7834 53.5373 10.79 53.5373 10.794V10.7953Z" fill="#3B5B7C"/>
<path d="M82.0462 21.8212C82.5947 22.0063 83.0362 22.3433 83.2675 22.8839C83.5583 23.5646 83.4023 24.2784 82.859 24.7806C82.5127 25.1005 82.0818 25.3226 81.6298 25.4719C82.4903 25.7773 83.5094 25.7561 84.2932 25.3212C85.2197 24.8071 85.5184 23.6585 86.2851 22.9711C86.5904 22.6975 86.9697 22.527 87.3332 22.3446C87.6927 22.1649 88.0562 21.9825 88.3853 21.7485C88.9709 21.3308 89.3899 20.5827 88.9841 19.8941C88.7581 19.5108 88.421 19.1922 88.08 18.9133C87.9082 18.7732 87.7271 18.6437 87.5381 18.5274C87.4879 18.497 87.4363 18.4666 87.3848 18.4375C87.3517 18.764 87.3187 19.0918 87.2354 19.4064C87.0358 20.1637 86.3776 20.8074 85.6136 20.9951C85.5079 21.0215 85.3413 21.044 85.2726 21.0718C85.2462 21.0823 85.188 21.1207 85.1563 21.1524C85.0941 21.2132 85.0439 21.2806 84.9977 21.3533C84.8708 21.5529 84.8813 21.841 84.8642 22.0697C84.8457 22.3116 84.8298 22.5614 84.7452 22.7901C84.6672 23.0016 84.3896 23.0557 84.2614 22.8535C84.0605 22.5336 83.7684 22.2534 83.4459 22.038C82.859 21.6454 82.1413 21.3969 81.4395 21.4776C81.224 21.5027 80.9861 21.5793 80.7878 21.6996C81.2068 21.6375 81.6536 21.689 82.0462 21.8212Z" fill="#3B5B7C"/>
<path d="M66.0333 6.29649C66.1456 6.27534 66.2606 6.26476 66.3769 6.26608C67.133 6.27534 67.708 6.8133 68.0543 7.44378C68.1124 7.54952 68.1653 7.6579 68.2142 7.76761C68.2975 7.95794 68.5565 7.99627 68.69 7.83766C68.7561 7.761 68.8301 7.6883 68.9147 7.62089C69.2491 7.35786 69.6813 7.22833 70.1056 7.27723C70.5088 7.32482 70.8577 7.51383 71.167 7.76893C71.4618 8.01081 71.7248 8.29367 71.8583 8.65583C71.8808 8.71796 71.8979 8.78272 71.9165 8.84617C71.9389 8.92019 71.9191 8.89243 71.9535 8.94134C71.9614 8.95191 71.964 8.9572 71.9654 8.96116C71.968 8.96513 71.972 8.96777 71.9773 8.97306C71.9931 8.98892 72.009 9.00478 72.0262 9.018C72.083 9.06294 72.1583 9.10788 72.2257 9.13431C72.3963 9.20172 72.6091 9.17 72.7875 9.17264C72.9765 9.17529 73.1708 9.18983 73.3506 9.25591C73.6268 9.35769 74.0524 9.68152 74.2652 9.88375C74.1872 9.72646 74.0088 9.34051 73.9282 9.18586C73.4854 8.32011 72.9858 7.51912 72.8668 6.54366C72.8404 6.33085 73.106 6.23304 73.2647 6.31499C73.7616 6.57538 73.9665 7.12523 74.1093 7.63543C74.2375 8.09408 74.3194 8.59239 74.5838 8.99817C74.8323 9.37884 75.2301 10.127 75.6042 10.3728C75.9558 10.6041 76.343 10.3649 76.6087 10.6966C76.9008 11.0614 77.0489 11.4897 77.1308 11.9391C77.7335 11.7104 77.9834 10.8486 77.7745 10.2763C77.641 9.91019 77.3304 9.63262 77.0542 9.37355C76.7343 9.07351 76.4488 8.76554 76.1858 8.41263C76.0298 8.20379 75.9135 7.99099 75.8408 7.74117C75.7892 7.56538 75.7562 7.38165 75.698 7.2085C75.6346 7.01817 75.5421 6.8318 75.4535 6.65336C75.1046 5.94754 74.5018 5.26683 73.7008 5.09897C73.3228 5.01966 72.9276 5.06196 72.5456 5.09236C72.1319 5.12408 71.7208 5.14126 71.3124 5.06196C70.9066 4.98265 70.5616 4.79893 70.2563 4.52136C69.9616 4.25436 69.7184 3.93846 69.454 3.64238C69.3232 3.49567 69.187 3.34895 69.035 3.22471C68.9742 3.17448 68.9068 3.13218 68.8381 3.09385C68.6504 2.98943 68.46 2.89426 68.2657 2.80438C68.1732 2.76209 68.0886 2.87047 68.1468 2.95374C68.308 3.18373 68.423 3.44676 68.4904 3.72962C68.5354 3.92127 68.3649 4.11293 68.1653 4.05477C68.0569 4.02305 67.9459 3.99133 67.8322 3.98208C67.741 3.97415 67.704 3.97679 67.6485 3.99265C67.6445 3.99529 67.63 4.0019 67.6154 4.00851C67.6181 4.01115 67.5982 4.0323 67.6022 4.02305C67.5956 4.03495 67.5864 4.05213 67.5811 4.06138C67.5771 4.07592 67.5652 4.11557 67.5626 4.12879C67.5599 4.14201 67.5546 4.1777 67.552 4.18563C67.5493 4.21206 67.5467 4.2385 67.5454 4.26361C67.5427 4.32177 67.5414 4.38125 67.5414 4.43941C67.5414 4.5729 67.5441 4.7064 67.5335 4.8399C67.507 5.15712 67.404 5.50739 67.0722 5.62371C66.7061 5.75324 66.2725 5.58934 65.9698 5.85502C65.9289 5.89203 65.8892 5.93036 65.8522 5.97133C65.7266 6.11012 65.8456 6.33349 66.0306 6.29913L66.0333 6.29649Z" fill="#3B5B7C"/>
<path d="M100.65 32.6046C100.514 32.3852 100.39 32.2781 100.259 32.2213C100.09 32.1473 99.91 32.1605 99.6879 32.1288C99.6364 32.4883 99.6589 32.8544 99.7818 33.1928C99.8849 33.4743 99.4209 33.6673 99.298 33.3963C99.2941 33.3871 99.2888 33.3778 99.2835 33.3699C99.2795 33.3673 99.2769 33.3659 99.2729 33.3646C99.2557 33.3633 99.2346 33.3607 99.2227 33.358C99.306 33.3778 99.2095 33.3593 99.1698 33.3607C99.1487 33.3607 99.076 33.3686 99.072 33.3686C99.0376 33.3739 99.0033 33.3805 98.9689 33.3871C98.8645 33.4096 98.7601 33.4386 98.6583 33.4704C98.2234 33.6065 97.8044 33.7889 97.3801 33.9541C96.9849 34.1088 96.5792 34.2687 96.1535 34.3176C95.8099 34.3573 95.4424 34.2476 95.3499 33.8735C95.2997 33.6699 95.3433 33.4479 95.4028 33.2523C95.4226 33.1862 95.4451 33.1201 95.4702 33.054C95.5535 32.8306 95.4319 32.5848 95.2032 32.5187C95.2019 32.5187 95.2005 32.5187 95.1992 32.5187C94.9587 32.45 94.7525 32.3852 94.5727 32.2028C94.4286 32.0561 94.3097 31.8486 94.1365 31.7349C93.9951 31.641 93.7955 31.5525 93.6263 31.5221C93.5232 31.5036 93.4651 31.5181 93.3488 31.5459C93.2034 31.5816 93.0593 31.6159 92.9099 31.6318C92.5213 31.6741 92.1856 31.5895 91.8657 31.3648C91.6728 31.23 91.415 30.9537 91.156 30.9854C91.0344 31.0013 90.889 31.0978 90.8136 31.1678C90.7475 31.2286 90.7264 31.267 90.7066 31.3265C90.7026 31.341 90.6986 31.3555 90.696 31.3701C90.696 31.3701 90.696 31.3701 90.696 31.3714C90.6947 31.3952 90.696 31.419 90.696 31.4428C90.696 31.4467 90.6999 31.4745 90.7013 31.4851C90.7052 31.5049 90.7092 31.5247 90.7145 31.5432C90.7409 31.6424 90.7607 31.682 90.8202 31.7851C90.9445 32.0019 91.1057 32.1816 91.2855 32.3601C91.6054 32.6786 91.9252 32.9364 92.3006 33.173C92.479 33.2853 92.4632 33.514 92.3006 33.629C92.1922 33.7056 92.0812 33.7796 91.9688 33.8523C91.682 34.0387 91.3925 34.2211 91.111 34.4154C90.9907 34.4974 90.8691 34.5806 90.7555 34.6718C90.7052 34.7115 90.655 34.7538 90.6074 34.7987C90.5889 34.8159 90.5717 34.8331 90.5545 34.8516C90.5493 34.8569 90.5268 34.8794 90.5215 34.886C90.5215 34.886 90.5215 34.886 90.5268 34.8807C90.5413 34.8661 90.5149 34.9045 90.5215 34.886C90.5056 34.923 90.4924 34.9587 90.4607 34.9904C90.392 35.0591 90.2849 35.0816 90.1911 35.0961C90.0457 35.1199 89.8963 35.1199 89.7509 35.0895C89.2394 34.9838 88.8059 34.6851 88.3168 34.5212C88.104 34.4498 87.8938 34.3718 87.6731 34.3269C87.5608 34.3044 87.3876 34.2951 87.3176 34.3084C87.114 34.348 86.9342 34.4947 86.7333 34.6282C86.3897 34.8569 86.0275 35.0142 85.6151 35.0657C85.1512 35.1239 84.6793 35.0406 84.2339 34.9098C83.7831 34.7776 83.3483 34.5952 82.9002 34.4524C82.3979 34.2925 81.8745 34.2304 81.3511 34.1815C80.8171 34.1299 80.2831 34.0942 79.7505 34.0242C79.5033 33.9911 79.2654 33.9145 79.0169 33.8841C78.8027 33.8563 78.5847 33.8497 78.3692 33.8563C77.9145 33.8709 77.4651 33.9502 77.0144 34.007C76.5452 34.0665 76.0786 33.9726 75.6186 33.888C75.234 33.818 74.8203 33.7625 74.4304 33.8153C74.1263 33.8563 73.8329 33.9673 73.5659 34.1167C73.1892 34.3295 72.8376 34.6362 72.601 35.0102C71.2489 35.1424 68.608 35.3142 67.1329 34.8331C67.0919 34.5066 67.0086 34.1894 66.8474 33.9145C66.7364 33.7255 66.591 33.5748 66.3795 33.4902C66.1204 33.3844 64.9797 33.9502 64.6493 34.0466C64.2488 34.163 63.8906 34.0665 63.5628 33.818C63.2562 33.5854 63.0011 33.3065 62.6733 33.1016C62.3587 32.906 62.0613 32.8306 61.6965 32.7949C61.0554 32.7328 60.3324 32.6033 59.9438 32.0402C59.7865 31.8129 59.653 31.5776 59.4667 31.3701C59.1772 31.0476 58.8613 30.774 58.4753 30.5717C57.7946 30.2135 57.0055 30.043 56.2601 29.8725C55.2701 29.6452 53.6245 29.2275 53.9813 27.8634C54.0183 27.7246 54.1703 27.6427 54.3065 27.6784C54.4744 27.7233 54.6673 27.6691 54.8524 27.6308C54.9423 27.114 54.9872 26.4769 54.6131 26.0777C54.2602 25.6997 53.7051 25.5874 53.2107 25.5451C52.6715 25.4988 52.1309 25.5252 51.5889 25.5477C51.207 25.5636 51.0589 26.0526 51.3695 26.276C51.4739 26.3513 51.5612 26.4227 51.618 26.4848C51.8863 26.7783 52.1626 27.0981 52.2815 27.4854C52.4772 28.1185 52.0212 28.5759 51.4885 28.8296C51.1343 28.9988 50.7457 29.0847 50.3994 29.2658C50.0451 29.4509 49.7372 29.706 49.4212 29.9465C49.0842 30.2016 48.722 30.4409 48.3057 30.544C47.8113 30.6669 47.3104 30.5995 46.8161 30.5215C46.5953 30.4871 46.2794 30.466 45.9556 30.4528C45.4731 30.4343 45.2273 31.0251 45.5789 31.3555C45.8604 31.6212 46.1208 31.871 46.2318 31.9939C46.2992 32.068 46.3667 32.146 46.4314 32.2279C46.5662 32.3984 46.4103 32.6443 46.1988 32.594C45.9159 32.5279 45.6331 32.4592 45.3502 32.3839C45.0515 32.3046 44.7118 32.2755 44.4501 32.4407C44.2862 32.5438 44.1263 32.7249 43.9386 32.6733C43.8923 32.6601 43.8513 32.6337 43.8104 32.6072C43.5632 32.4447 43.3147 32.2821 43.0675 32.1208C42.5309 31.7692 41.9943 31.4163 41.4933 31.0145C40.995 30.614 40.613 30.0404 39.9574 29.8923C39.8702 29.8725 39.779 29.8699 39.6891 29.8818C39.5173 29.9056 39.3481 29.9465 39.1749 29.965C39.0282 29.9809 38.8841 29.9637 38.7414 29.9479C38.3832 29.9082 38.0395 29.7707 37.6761 29.7694C37.0561 29.7655 36.4865 30.0562 36.1534 30.5757C35.852 31.0449 35.6815 31.5868 35.3497 32.0389C35.1766 32.2742 34.9691 32.516 34.7047 32.6535C34.4985 32.7606 34.2818 32.7896 34.0597 32.8359C33.8165 32.8108 33.5733 32.7936 33.3301 32.7923C32.9798 32.791 32.6282 32.8187 32.2912 32.9205C32.0149 33.0038 31.6329 33.1478 31.5021 33.4294C31.4717 33.4941 31.4638 33.5616 31.469 33.629C31.8762 33.9013 32.2859 34.1682 32.7194 34.3903C33.0499 34.5595 33.4041 34.7009 33.7702 34.8199C34.5448 35.071 35.3815 35.2243 36.2023 35.3327C36.2089 35.3327 36.2142 35.334 36.2208 35.3354C36.5367 35.3763 36.8499 35.412 37.1566 35.4438C37.183 35.4464 37.2081 35.449 37.2333 35.4517C37.3747 35.4662 37.5161 35.4808 37.6536 35.494C37.8492 35.5138 38.0448 35.5297 38.2404 35.5455C38.2986 35.5495 38.3568 35.5535 38.4149 35.5587C38.5577 35.5693 38.7017 35.5786 38.8458 35.5878C38.904 35.5918 38.9635 35.5944 39.0216 35.5984C39.1908 35.6077 39.3613 35.6169 39.5318 35.6235C39.5569 35.6235 39.5807 35.6262 39.6058 35.6275C39.8081 35.6354 40.0116 35.642 40.2152 35.6486C40.2442 35.6486 40.2746 35.6499 40.3037 35.6513C40.4808 35.6566 40.658 35.6592 40.8351 35.6632C40.8694 35.6632 40.9038 35.6632 40.9382 35.6645C42.4965 35.6883 44.0562 35.6579 45.6146 35.6711C46.4089 35.6777 47.2047 35.6962 47.9977 35.7398C50.1879 35.8614 52.3648 36.1773 54.5563 36.287C56.761 36.3967 58.9697 36.2976 61.177 36.2276C63.1689 36.1654 65.1621 36.1284 67.1554 36.1099L72.3301 36.1033C73.8527 36.1112 75.3741 36.1271 76.8954 36.1483C79.5152 36.1853 82.1362 36.2395 84.756 36.2963C87.04 36.3452 89.172 36.5091 91.4177 36.02C93.7519 35.5112 96.1165 35.1371 98.4944 34.9005C99.2914 34.8212 100.199 34.6956 100.645 34.0308C100.921 33.6197 100.908 33.0223 100.649 32.6059L100.65 32.6046Z" fill="#3B5B7C"/>
<g clip-path="url(#clip1_4038_89682)">
<path d="M69.4475 60.8892C69.4475 60.8892 65.3446 46.2576 64.6395 42.5694C63.9345 38.8812 63.4644 38.9305 63.5948 38.0092C63.7238 37.0879 64.0763 36.4384 64.0892 35.7509C64.1021 35.0634 64.1981 32.0627 64.4633 30.9061C64.4633 30.9061 64.5449 30.4962 64.1766 29.8763C63.8227 29.2832 63.5289 28.6408 63.2437 28.0097C63.1018 27.6955 62.9413 27.3729 62.8396 27.0404C62.6992 26.5812 62.7507 26.0754 62.563 25.6288C62.3308 25.0794 61.5226 24.5398 61.5154 23.896C61.5154 23.8721 61.514 23.8228 61.5111 23.7566C61.5068 23.672 61.5011 23.5593 61.4911 23.4325C61.4667 23.0846 61.4151 22.5831 61.3005 22.2872C61.2919 22.2661 61.2847 22.2464 61.2761 22.2266C61.2747 22.2238 61.2732 22.221 61.2718 22.2182C61.2288 22.1266 61.1787 22.0646 61.1199 22.0533C60.882 22.0069 60.4435 22.0181 60.164 22.5929L60.3862 17.0099C60.4277 15.9787 59.8058 15.094 58.9975 15.0348L58.6522 15.0094C58.6522 15.0094 58.6464 15.0094 58.645 15.0094L53.1033 14.5995C52.2392 14.5361 51.5083 15.2771 51.4696 16.2548L51.3249 19.905C51.1027 19.8232 50.862 19.781 50.6384 19.85C50.2687 19.9655 50.0437 20.3473 49.9806 20.7587C49.8832 21.2616 50.124 21.6673 50.1784 21.7251C50.1798 21.7279 50.1856 21.7336 50.1899 21.7378C50.2859 21.8758 50.4034 21.997 50.5195 22.1182C50.5266 22.1266 50.5324 22.1336 50.5395 22.1421C50.561 22.1675 50.5825 22.1928 50.6055 22.2196C50.6155 22.2309 50.6255 22.2421 50.6356 22.2534C50.6556 22.2759 50.6757 22.2999 50.6957 22.3238C50.723 22.3562 50.7502 22.3872 50.7789 22.4196C50.786 22.4267 50.7918 22.4351 50.7989 22.4422C50.8548 22.5084 50.9136 22.5746 50.9723 22.6436C51.0282 22.7084 51.0855 22.7746 51.1414 22.8394C51.1629 22.8648 51.1844 22.8888 51.2059 22.9141L51.1615 24.0355C51.1615 24.0355 51.1586 24.0341 51.1558 24.0327H51.1529C51.1472 24.0299 51.1414 24.0256 51.1357 24.0228C51.1257 24.0186 51.1171 24.0172 51.107 24.013C51.0913 24.0073 51.0755 24.0003 51.0597 23.9975C50.6513 23.9073 49.5421 24.1792 49.6252 25.6133C49.6252 25.6133 49.6252 25.6133 49.6252 25.6147C49.6252 25.6147 49.6252 25.6176 49.6252 25.619V25.6218C49.6252 25.6218 49.6252 25.6246 49.6252 25.626C49.6252 25.6274 49.6252 25.6302 49.6252 25.6317C49.6252 25.6331 49.6252 25.6345 49.6252 25.6359C49.6252 25.6387 49.6252 25.6415 49.6252 25.6443C49.6252 25.6457 49.6252 25.6471 49.6252 25.65C49.6252 25.6542 49.6252 25.657 49.6252 25.6612C49.6252 25.6626 49.6252 25.6641 49.6252 25.6669C49.6252 25.6711 49.6252 25.6767 49.6281 25.681C49.6281 25.6824 49.6281 25.6838 49.6281 25.6852C49.6281 25.6908 49.631 25.6965 49.6324 25.7021C49.6324 25.7021 49.6324 25.7049 49.6324 25.7063C49.6338 25.7134 49.6353 25.7204 49.6381 25.7274C49.6525 25.7782 49.6797 25.8458 49.7284 25.9289C49.7284 25.9289 49.7284 25.9289 49.7284 25.9303C49.7356 25.943 49.7442 25.9571 49.7528 25.9712C49.7528 25.9712 49.7542 25.974 49.7557 25.9754C49.7643 25.9895 49.7743 26.0036 49.7829 26.0177C49.7829 26.0191 49.7857 26.0205 49.7857 26.0219C49.7958 26.036 49.8058 26.0515 49.8173 26.067L49.8201 26.0698C49.8316 26.0853 49.8445 26.1022 49.8574 26.1177C49.8975 26.1684 49.9448 26.2233 49.9993 26.2811C49.9993 26.2811 50.0007 26.2825 50.0021 26.2839C50.0767 26.3628 50.1684 26.4487 50.2744 26.5403C50.2759 26.5417 50.2787 26.5431 50.2802 26.546C50.3045 26.5671 50.3303 26.5882 50.3561 26.6093C50.3604 26.6122 50.3647 26.6164 50.369 26.6192C50.3948 26.6403 50.4206 26.6601 50.4478 26.6812C50.4536 26.6854 50.4593 26.6896 50.465 26.6953C50.4923 26.7164 50.5195 26.7361 50.5467 26.7587C50.5539 26.7643 50.561 26.7685 50.5668 26.7742C50.5954 26.7953 50.6241 26.8164 50.6542 26.839C50.6614 26.8432 50.6685 26.8488 50.6757 26.8545C50.7072 26.877 50.7387 26.8996 50.7717 26.9221C50.7774 26.9263 50.7846 26.9305 50.7903 26.9348C50.8247 26.9587 50.8606 26.9827 50.8978 27.008C50.9408 27.0362 50.9852 27.0658 51.0325 27.0954L51.0153 27.5236C50.9652 27.5025 50.9121 27.4814 50.8563 27.4617H50.8534C50.6986 27.4053 50.5266 27.3574 50.3876 27.3518C50.3332 27.3504 50.2845 27.3546 50.2429 27.3659C50.2214 27.3715 50.2028 27.3799 50.1856 27.3912C50.1798 27.3954 50.1712 27.3997 50.1626 27.4053C50.1598 27.4067 50.1583 27.4081 50.1555 27.4095C50.1483 27.4152 50.1397 27.4194 50.1311 27.4264C50.1297 27.4264 50.1283 27.4293 50.1254 27.4307C50.1025 27.4462 50.0767 27.4645 50.0466 27.487C50.0466 27.487 50.0466 27.487 50.0451 27.487C50.0007 27.5208 49.9506 27.5617 49.8975 27.6096C49.8803 27.6251 49.8631 27.642 49.8445 27.6589C49.5565 27.9392 49.2455 28.4154 49.4963 29.0395C49.7614 29.7016 50.4808 30.5258 50.882 30.954L50.8591 31.5218C50.8204 32.4995 51.4897 33.3447 52.3538 33.4081L52.4197 33.4124C52.4412 33.449 52.4613 33.487 52.4828 33.5236C52.4928 33.542 52.5029 33.5589 52.5129 33.5772C52.5372 33.6209 52.5616 33.6631 52.586 33.7068C52.596 33.7251 52.6075 33.7448 52.6175 33.7631C52.6433 33.8096 52.6691 33.8561 52.6949 33.9012C52.702 33.9153 52.7106 33.9294 52.7178 33.9435C52.7852 34.0646 52.8511 34.1844 52.9156 34.3013C52.9227 34.3154 52.9299 34.3281 52.9385 34.3421C52.9629 34.3858 52.9872 34.4309 53.0102 34.4746C53.0188 34.4915 53.0274 34.507 53.0374 34.5239C53.0589 34.5647 53.0804 34.6042 53.1019 34.6436C53.1105 34.6605 53.1205 34.6774 53.1291 34.6943C53.1492 34.7324 53.1707 34.7704 53.1907 34.8085C53.1993 34.824 53.2079 34.8394 53.2151 34.8549C53.2394 34.9 53.2624 34.9437 53.2839 34.986C53.2867 34.993 53.291 35 53.2939 35.0057C53.3197 35.0564 53.3455 35.1043 53.3699 35.1522C53.3742 35.1607 53.3785 35.1677 53.3813 35.1761C53.4 35.2128 53.4186 35.2494 53.4358 35.2846C53.4429 35.2987 53.4501 35.3128 53.4573 35.3269C53.4716 35.3551 53.4845 35.3832 53.4974 35.4086C53.5046 35.4227 53.5117 35.4368 53.5175 35.4509C53.5289 35.4762 53.5404 35.5002 53.5519 35.5227C53.5576 35.5354 53.5633 35.5481 53.5691 35.5607C53.5805 35.5847 53.5906 35.6072 53.5991 35.6284C53.6034 35.6382 53.6077 35.6481 53.612 35.658C53.6249 35.6875 53.6364 35.7157 53.6464 35.7425C53.9646 36.5582 54.6166 38.112 56.011 39.704C56.1142 39.8209 56.2202 39.9392 56.3306 40.0562C56.3306 40.0562 56.5312 40.3999 56.772 40.8282C56.7806 40.8437 56.7906 40.8606 56.7992 40.8761C56.8236 40.9197 56.8494 40.9648 56.8737 41.0099C56.8866 41.0325 56.8995 41.0564 56.9124 41.0789C56.9339 41.1184 56.9554 41.1564 56.9783 41.1959C56.9941 41.2226 57.0084 41.2508 57.0242 41.2776C57.0443 41.3128 57.0643 41.3494 57.0829 41.3846C57.0987 41.4142 57.1145 41.4438 57.1317 41.472C57.1503 41.5044 57.1675 41.5382 57.1861 41.5706C57.2033 41.6016 57.2191 41.6312 57.2348 41.6622C57.2506 41.6918 57.2678 41.7227 57.2836 41.7523C57.2993 41.7833 57.3151 41.8129 57.3309 41.8425C57.3452 41.8693 57.3595 41.896 57.3724 41.9214C57.3724 41.9214 57.3724 41.9214 57.3724 41.9228C57.3896 41.9552 57.404 41.9848 57.4197 42.0144C57.4297 42.0355 57.4426 42.058 57.4527 42.0778C57.477 42.1257 57.5 42.1722 57.5186 42.213C57.5229 42.2229 57.5272 42.2341 57.5315 42.2482C57.5329 42.2539 57.5344 42.2595 57.5372 42.2665C57.5401 42.2764 57.543 42.2849 57.5458 42.2961C57.5487 42.3046 57.5501 42.3144 57.553 42.3243C57.5559 42.3342 57.5573 42.344 57.5602 42.3553C57.563 42.3666 57.5645 42.3807 57.5673 42.3933C57.5688 42.4032 57.5716 42.4145 57.5731 42.4257C57.5759 42.4412 57.5788 42.4581 57.5817 42.475C57.5831 42.4849 57.5845 42.4948 57.586 42.506C57.5888 42.5258 57.5917 42.5455 57.5946 42.5666C57.5946 42.5765 57.5974 42.5849 57.5988 42.5948C57.6017 42.6187 57.606 42.6427 57.6089 42.668C57.6089 42.6751 57.6103 42.6807 57.6117 42.6878C57.616 42.7174 57.6189 42.7469 57.6232 42.7793C57.6318 42.8498 57.6404 42.9259 57.649 43.0062C57.6547 43.0569 57.6605 43.1104 57.6648 43.1653C57.6691 43.2161 57.6748 43.2682 57.6791 43.3231C57.6891 43.4274 57.6992 43.5373 57.7078 43.6528C57.7078 43.6612 57.7078 43.6697 57.7092 43.6781C57.7293 43.912 57.7479 44.1656 57.768 44.4375C57.7737 44.5121 57.778 44.5868 57.7837 44.6629C57.788 44.7347 57.7937 44.808 57.798 44.8826C57.8625 45.8477 57.9256 46.9733 57.9829 48.0848C57.9872 48.1707 57.9915 48.2553 57.9958 48.3412C58.1291 50.9855 58.2251 53.4818 58.2251 53.4818L58.3971 58.3886L58.4845 60.8906H69.4417L69.4475 60.8892ZM60.4851 27.9533C60.5022 28.004 60.518 28.0519 60.5338 28.0998C60.551 28.1534 60.5682 28.2027 60.5839 28.252C60.5911 28.2745 60.5983 28.2971 60.6069 28.3196C60.6183 28.3548 60.6298 28.39 60.6413 28.4239C60.647 28.4422 60.6542 28.4605 60.6599 28.4788C60.6757 28.5253 60.69 28.5704 60.7043 28.614C60.7086 28.6295 60.7129 28.6436 60.7186 28.6577C60.7287 28.6887 60.7387 28.7183 60.7473 28.7479C60.7516 28.7634 60.7573 28.7775 60.7616 28.7915C60.7731 28.8296 60.7846 28.8662 60.7946 28.9014C60.7975 28.9099 60.8003 28.9183 60.8018 28.9282C60.8104 28.955 60.8175 28.9817 60.8247 29.0057C60.8276 29.017 60.8319 29.0296 60.8347 29.0409C60.8419 29.0677 60.8491 29.093 60.8548 29.117C60.8562 29.124 60.8577 29.1311 60.8605 29.1367C60.8677 29.1621 60.872 29.1874 60.8777 29.2114C60.8791 29.2198 60.882 29.2297 60.8834 29.2381C60.8877 29.2564 60.8906 29.2748 60.8935 29.2917C60.8935 29.2987 60.8963 29.3043 60.8963 29.3114C60.9164 29.4382 60.9135 29.5241 60.8892 29.5946C60.8276 29.7707 60.4922 28.0069 59.9964 26.7981L60.0193 26.2276C60.1024 26.6939 60.2199 27.156 60.3761 27.6251C60.4148 27.7406 60.4507 27.8491 60.4851 27.9505C60.4851 27.9519 60.4851 27.9533 60.4865 27.9547L60.4851 27.9533Z" fill="#101619"/>
</g>
<path d="M65.8412 60.8892H78.157C78.157 60.8892 73.8148 45.6471 73.0896 41.8036C72.3645 37.9615 71.8357 38.0131 71.9991 37.053C72.161 36.0942 72.5694 35.4164 72.5967 34.6999C72.6239 33.9833 72.7858 30.8564 73.1054 29.6526C73.1054 29.6526 73.2057 29.2255 72.8016 28.5806C72.4161 27.963 72.0965 27.2937 71.787 26.636C71.6336 26.3092 71.4574 25.9725 71.3499 25.6271C71.2009 25.1484 71.2682 24.6211 71.0647 24.1568C70.8125 23.5835 69.9154 23.0218 69.9197 22.3511C69.9197 22.1533 69.8767 20.4981 69.5098 20.4308C69.143 20.3634 68.3405 20.4107 68.1484 21.9599C67.9564 23.509 68.0925 24.8375 68.5712 26.2318C69.0498 27.6262 69.2046 28.049 69.1114 28.284C69.0183 28.519 68.4737 25.4107 67.6554 24.4907C67.0765 23.84 66.3112 23.3098 65.6291 22.7767C64.4769 21.8767 63.2975 21.0097 62.0851 20.1929C61.5004 19.7988 60.9071 19.4176 60.2981 19.0622C59.7463 18.7397 59.1903 18.4273 58.5884 18.2066C58.3262 18.1106 58.0367 18.0547 57.7673 18.1321C57.0636 18.3356 56.8014 19.3287 57.1181 19.9263C57.2514 20.1785 57.4663 20.3706 57.6669 20.5698C57.8833 20.7847 58.0725 21.0241 58.2774 21.2491C58.5755 21.5772 58.8736 21.904 59.1717 22.2321L59.0284 23.4216C59.0284 23.4216 58.6214 22.5503 58.1642 22.4557C57.7071 22.3611 56.4546 22.6449 56.5234 24.1396C56.5234 24.1396 56.413 24.7644 58.4207 25.8736L58.3577 26.2548C58.3577 26.2548 57.4348 25.8105 57.1267 25.9882C56.9318 26.1014 55.9143 26.7291 56.3213 27.7079C56.7283 28.6867 58.1542 30.0065 58.1542 30.0065C58.1542 30.0065 60.5001 33.7827 60.8684 34.6941C61.2367 35.6056 62.0192 37.4055 63.8062 39.1882C63.8062 39.1882 64.7764 40.7789 65.1003 41.4338C65.4242 42.0888 65.6893 53.1693 65.6893 53.1693L65.844 60.8878L65.8412 60.8892Z" fill="#C35500"/>
<path d="M70.7636 59.2602C69.1098 56.3295 69.0396 52.8959 68.8232 49.6285C68.7071 47.8672 68.409 46.1232 68.3116 44.3605C68.2184 42.6939 68.2156 40.8481 69.0038 39.329C69.0697 39.2 69.2918 39.2258 69.3205 39.3706C69.4867 40.2132 69.5727 41.0702 69.8034 41.8999C69.9969 42.5964 70.3165 43.4233 71.0273 43.7199C71.3239 42.8142 71.2981 41.9028 71.1118 40.9684C71.0187 40.5027 70.904 40.0427 70.808 39.5784C70.7593 39.3419 70.6948 39.094 70.6776 38.8518C70.6618 38.6268 70.7019 38.3889 70.7335 38.1668C70.7951 37.7297 70.9054 37.3012 70.9628 36.8641C71.0129 36.4815 70.9757 36.1189 70.861 35.7506C70.6131 34.951 70.1158 34.2545 69.8579 33.4563C69.6128 32.6953 69.4939 31.9544 69.5985 31.1562C69.6916 30.4368 69.9123 29.7432 70.0341 29.0281C70.1832 28.1511 70.0413 27.3156 69.7948 26.4701C69.5569 25.6518 69.2474 24.855 69.0654 24.0209C68.8648 23.1024 68.6885 22.1737 68.5093 21.2508C68.4893 21.1519 68.4721 21.0516 68.4535 20.9513C68.3187 21.182 68.2084 21.5073 68.1525 21.9616C67.9605 23.5108 68.0966 24.8392 68.5753 26.2336C68.9077 27.2009 69.084 27.7011 69.1299 27.9949C69.2459 28.0178 69.3391 28.174 69.233 28.2915C69.17 28.3603 69.1012 28.4219 69.0281 28.4807C68.634 28.7931 68.1496 29.0295 67.6567 29.1298C67.1795 29.2273 66.5532 29.1872 66.3296 28.6741C66.1921 28.3574 66.301 28.0249 66.3784 27.7082C66.4429 27.4474 66.4988 27.1436 66.4371 26.8771C66.3769 26.6148 66.2078 26.397 66.0602 26.1777C65.8539 25.8725 65.6446 25.5701 65.4196 25.2778C64.5598 24.1643 63.5853 23.131 62.5779 22.1494C61.6664 21.2609 60.6977 20.4139 59.6042 19.7533C58.8404 19.2918 58.0064 18.925 57.1293 18.7773C56.7911 19.4351 57.1523 20.0184 57.2225 20.0886C57.3142 20.1803 59.1786 22.2353 59.1786 22.2353L59.0353 23.4248C59.0353 23.4248 58.6283 22.5535 58.1712 22.4589C57.714 22.3643 56.4615 22.6481 56.5303 24.1428C56.5303 24.1428 56.42 24.7676 58.4277 25.8768L58.3646 26.258C58.3646 26.258 57.4417 25.8137 57.1336 25.9914C57.0677 26.0287 56.9101 26.1247 56.7453 26.2723C56.8069 26.2924 57.0777 26.4228 57.4733 26.4256C58.5997 26.4328 57.0262 28.0092 57.5306 28.1797C57.7484 28.2528 57.9777 28.2944 58.1798 28.4076C58.4033 28.5323 58.5237 28.7429 58.6384 28.9636C58.7616 29.2001 58.8677 29.4451 59.0024 29.6773C59.1414 29.9166 59.3248 30.1301 59.4796 30.3609C59.8092 30.8495 60.1316 31.3898 60.6117 31.7509C60.755 31.8584 60.927 31.9229 61.0631 32.0404C61.2337 32.1866 61.291 32.4116 61.3383 32.6208C61.4113 32.9404 61.4271 33.2686 61.4844 33.591C61.5475 33.9378 61.6865 34.2416 61.847 34.5526C62.1666 35.1774 62.532 35.7779 62.8917 36.3797C63.2399 36.963 63.6111 37.5405 63.8476 38.1811C64.0611 38.7586 64.1743 39.3605 64.2761 39.9667C64.5727 40.4669 64.9324 41.0888 65.1058 41.4399C65.4282 42.0948 65.6948 53.1753 65.6948 53.1753L65.8496 60.8939H71.9272C71.493 60.3923 71.1032 59.8506 70.7722 59.2645L70.7636 59.2602Z" fill="#8D2A00"/>
<path d="M58.8944 21.9272C59.1036 22.0261 59.32 22.1049 59.5479 22.1608C59.9606 22.2626 60.3748 22.2826 60.7975 22.2783C61.2661 22.2726 61.7347 22.2396 62.1976 22.178C62.3137 22.1623 62.4298 22.1436 62.5459 22.125C61.6416 21.2451 60.68 20.4082 59.598 19.7533C58.8342 19.2918 58.0002 18.925 57.1231 18.7773C56.7849 19.4351 57.1461 20.0184 57.2163 20.0886C57.2851 20.1588 58.3713 21.3526 58.8944 21.9287V21.9272Z" fill="#450B00"/>
<path d="M62.8454 22.4194C62.6032 22.4624 62.361 22.504 62.1174 22.5341C61.6158 22.5971 61.1113 22.6272 60.6069 22.6243C60.1053 22.6215 59.6152 22.5513 59.1523 22.3965L59.0291 23.4211C59.0291 23.4211 58.6221 22.5498 58.165 22.4552C57.7078 22.3607 56.4553 22.6444 56.5241 24.1391C56.5241 24.1391 56.4338 24.6579 57.9371 25.5908C58.3412 25.6739 58.7353 25.8101 59.1323 25.9261C59.6124 26.0666 60.0996 26.1626 60.6012 26.0881C61.0684 26.0179 61.5198 25.853 61.9468 25.6539C62.4455 25.4217 62.9242 25.1451 63.3842 24.8384C63.3054 24.1434 63.238 23.4455 63.1793 22.7476C63.0689 22.6358 62.9571 22.5269 62.8468 22.4165L62.8454 22.4194Z" fill="#8D2A00"/>
<path d="M58.173 28.4064C58.3135 28.4852 58.4138 28.597 58.4969 28.7246C58.7936 28.7504 59.0916 28.7633 59.3897 28.7618C60.3685 28.7561 61.3802 28.5984 62.2501 28.1298C62.6714 27.9034 63.0612 27.6225 63.4281 27.3173C63.5127 27.2471 63.5958 27.1754 63.6789 27.1023C63.6646 27.0206 63.6517 26.9404 63.6402 26.8587C63.5628 26.3141 63.4926 25.7681 63.4281 25.2207C63.3894 25.2465 63.3507 25.2723 63.3106 25.2981C62.4722 25.8283 61.5307 26.3299 60.5304 26.446C59.9844 26.509 59.4513 26.3872 58.9311 26.231C58.7506 26.1766 58.5714 26.1192 58.3894 26.0648L58.3579 26.2568C58.3579 26.2568 57.435 25.8126 57.1269 25.9903C57.061 26.0275 56.9033 26.1235 56.7385 26.2711C56.8001 26.2912 57.6657 26.4273 57.6657 26.5119C57.6657 26.6667 57.1427 26.5793 57.1398 26.734C57.1341 27.0135 56.8446 27.4606 56.9821 27.7099C57.1097 27.9392 57.2759 28.094 57.5253 28.1786C57.7431 28.2516 57.9724 28.2932 58.1745 28.4064H58.173Z" fill="#8D2A00"/>
<path d="M67.6878 34.636C67.5932 34.1746 64.4577 34.4583 64.6368 32.2643C64.7701 30.6507 64.0922 29.0858 63.7526 27.4922C63.6881 27.5481 63.6222 27.604 63.5562 27.657C63.1607 27.9751 62.7437 28.2703 62.2894 28.4982C61.8237 28.7318 61.325 28.8823 60.8119 28.9768C60.1111 29.1058 59.4003 29.1302 58.6924 29.0829C58.7913 29.2807 58.883 29.4813 58.9948 29.6733C59.1338 29.9126 59.3172 30.1262 59.472 30.3569C59.5508 30.473 59.6282 30.5919 59.7085 30.7109C59.2456 30.5389 58.7755 30.3913 58.3026 30.248C58.8243 31.0949 60.5554 33.9224 60.8664 34.6934C61.2347 35.6048 62.0171 37.4047 63.8042 39.1875C63.8042 39.1875 64.0277 39.5543 64.2957 40.0072C64.5866 40.4987 64.9291 41.092 65.0982 41.4331C65.1341 41.5062 65.1699 41.7125 65.2043 42.0192C65.3333 40.6148 65.5869 39.2176 65.5396 37.806C65.5095 36.8702 65.3648 35.9444 65.1899 35.0258C65.1025 34.5673 67.7809 35.0918 67.6878 34.6346V34.636Z" fill="#450B00"/>
<path d="M67.3519 30.8537L68.302 15.1458C68.3665 14.071 67.6843 13.1509 66.7772 13.0879L67.2515 13.1209C68.1587 13.1839 68.8408 14.1039 68.7763 15.1787L67.8262 30.8866C67.7617 31.9614 66.9735 32.7811 66.0664 32.7181L65.592 32.6851C66.4992 32.7482 67.2874 31.927 67.3519 30.8537Z" fill="#9B015D"/>
<path d="M65.6713 32.6885L59.4503 32.2615C58.4801 32.1956 57.745 31.3142 57.8066 30.2953L58.7682 14.3882C58.8298 13.3693 59.6653 12.5969 60.6355 12.6642L66.8564 13.0913C67.8266 13.1572 68.5618 14.0386 68.5002 15.0575L67.5386 30.9646C67.4769 31.9835 66.6415 32.7559 65.6713 32.6885Z" fill="#FA4F96"/>
<path d="M65.3824 32.0734L60.1116 31.7108C59.2374 31.6506 58.5753 30.8467 58.6312 29.9152L59.5541 14.6673C59.61 13.7358 60.3652 13.0293 61.238 13.0895L66.5088 13.4521C67.383 13.5123 68.0451 14.3162 67.9892 15.2477L67.0663 30.4956C67.0104 31.4271 66.2552 32.1336 65.3824 32.0734Z" fill="#D5DADD"/>
<mask id="mask0_4038_89682" style="mask-type:alpha" maskUnits="userSpaceOnUse" x="58" y="13" width="10" height="20">
<path d="M65.3817 32.0734L60.1109 31.7108C59.2367 31.6506 58.5746 30.8467 58.6305 29.9152L59.5534 14.6673C59.6093 13.7358 60.3645 13.0293 61.2372 13.0895L66.5081 13.4521C67.3823 13.5123 68.0443 14.3162 67.9884 15.2477L67.0655 30.4956C67.0097 31.4271 66.2544 32.1336 65.3817 32.0734Z" fill="#D5DADD"/>
</mask>
<g mask="url(#mask0_4038_89682)">
<path d="M72.8349 6.8562L44.9518 29.1176L47.1233 31.8374L75.0064 9.57609L72.8349 6.8562Z" fill="#D5DADD"/>
<path d="M78.3441 13.7558L50.461 36.0171L53.3777 39.6705L81.2609 17.4091L78.3441 13.7558Z" fill="#D5DADD"/>
</g>
<path d="M65.6617 26.1773L60.4898 25.8434C60.3063 25.8319 60.1659 25.6643 60.1788 25.4722C60.1917 25.2802 60.3522 25.1312 60.5356 25.1441L65.7076 25.478C65.891 25.4894 66.0315 25.6571 66.0186 25.8491C66.0057 26.0412 65.8452 26.1902 65.6617 26.1773ZM63.1897 24.2599C63.0063 24.2484 62.8658 24.0807 62.8787 23.8887L63.118 20.1799L62.1249 21.0971C61.9873 21.2246 61.7738 21.2103 61.6534 21.067C61.5331 20.9222 61.5474 20.7001 61.685 20.5726L63.2828 19.0965C63.3502 19.0349 63.4433 19.0019 63.5279 19.0062C63.6239 19.012 63.6999 19.0564 63.7586 19.1266L65.1587 20.8004C65.2791 20.9452 65.2648 21.1673 65.1272 21.2948C64.9896 21.4224 64.7761 21.4081 64.6557 21.2648L63.7887 20.2286L63.5494 23.9374C63.5365 24.1295 63.376 24.2785 63.1925 24.2656L63.1882 24.2613L63.1897 24.2599Z" fill="#2A4259"/>
<path d="M65.3149 14.0698L62.3484 13.8663C62.2668 13.8606 62.2051 13.7861 62.2094 13.6987L62.2166 13.5855C62.2223 13.498 62.2926 13.4321 62.3742 13.4378L65.3407 13.6413C65.4224 13.6471 65.484 13.7216 65.4797 13.809L65.4725 13.9222C65.4668 14.0096 65.3966 14.0756 65.3149 14.0698Z" fill="#9B015D"/>
<path d="M63.014 31.4384L62.5339 31.4055C62.4279 31.3983 62.3491 31.3009 62.3548 31.1891V31.1676C62.3634 31.0558 62.4537 30.9698 62.5597 30.977L63.0398 31.0099C63.1458 31.0171 63.2247 31.1146 63.2189 31.2263V31.2478C63.2103 31.3596 63.12 31.4456 63.014 31.4384Z" fill="#9B015D"/>
<path d="M57.8767 26.0645C58.6492 26.3009 58.9272 27.1479 58.6091 27.7569C58.2909 28.366 57.6647 28.8976 56.5913 27.787C56.5913 27.787 56.468 26.9472 57.0671 26.7294C57.6661 26.5116 58.3296 26.8412 58.3296 26.8412" fill="#C35500"/>
<path d="M57.746 26.6658C57.9609 26.7446 58.1487 26.8937 58.2719 27.0857C58.4166 27.3107 58.5141 27.5572 58.5772 27.8123C58.5872 27.7937 58.5972 27.775 58.6072 27.755C58.924 27.1459 58.6474 26.299 57.8749 26.0625L57.4651 26.6114C57.5597 26.6157 57.6543 26.6314 57.7445 26.6644L57.746 26.6658Z" fill="#8D2A00"/>
<path d="M58.5692 22.6957C59.0407 22.9751 58.9719 23.5039 58.7125 24.0356C58.3055 24.8711 57.652 25.0732 57.1806 24.7937C56.7091 24.5143 56.593 23.4452 57.0057 23.0224C57.3611 22.6584 58.0977 22.4162 58.5692 22.6957Z" fill="#C35500"/>
<path d="M58.2717 22.4937C58.0424 22.4177 57.6626 22.5567 57.2886 22.7631C57.6827 22.7832 57.9965 22.7617 58.1542 23.1988C58.296 23.5928 58.4508 24.0586 58.4236 24.4828C58.5282 24.3538 58.6256 24.1976 58.713 24.0099C58.971 23.4481 59.1071 22.7746 58.2731 22.4951L58.2717 22.4937Z" fill="#8D2A00"/>
<path d="M57.1238 27.5374C57.1496 27.5704 57.1782 27.6033 57.2083 27.6363C57.2083 27.6363 57.548 26.9943 57.9822 26.8438C58.2889 26.7378 58.1284 26.3866 57.6841 26.3809C57.0808 26.3737 56.7483 27.0645 57.1238 27.5374Z" fill="#450B00"/>
<path d="M56.8673 23.7611C56.8673 23.7611 56.8874 22.6734 58.0338 22.7308C58.0338 22.7308 56.6538 22.3997 56.8673 23.7611Z" fill="#450B00"/>
<path d="M69.5089 20.4316C69.5089 20.4316 69.5562 22.458 69.84 22.4938C69.84 22.4938 69.9302 22.4996 69.9173 22.2072C69.9044 21.9149 69.87 20.532 69.5103 20.4316" fill="#450B00"/>
<defs>
<clipPath id="clip0_4038_89682">
<rect width="77.6" height="32.4" fill="white" transform="translate(24.3992 5.69922)"/>
</clipPath>
<clipPath id="clip1_4038_89682">
<rect width="20" height="23.2" fill="white" transform="translate(53.5996 37.6992)"/>
</clipPath>
</defs>
</svg>
