<svg width="128" height="130" viewBox="0 0 128 130" fill="none" xmlns="http://www.w3.org/2000/svg">
<path d="M86.0091 127.881L10.7662 103.805C10.7662 103.805 9.99637 103.566 9.95709 103.167C9.91781 102.769 10.6507 102.56 10.6507 102.56L31.2843 96.8108C31.2843 96.8108 32.0834 96.5313 32.6199 96.5313C33.1563 96.5313 34.0233 96.8108 34.0233 96.8108L101.517 119.086L86.0091 127.881Z" fill="#1B90FF"/>
<path d="M67.4084 8.84211C66.5846 5.32998 62.675 2.67781 58.6426 2.96687C54.5668 3.26316 52.0158 6.44287 52.9697 10.0128C53.2371 11.0101 53.7501 11.9206 54.4367 12.7083C54.2343 12.3398 57.1539 12.5205 57.0238 12.123C55.9687 8.8132 57.0599 7.37511 58.8232 6.65245C61.591 5.51787 65.1465 7.10772 65.6162 10.4103C65.9125 12.4988 64.7418 14.6523 62.8123 15.5267C66.1366 14.7968 68.1456 11.9929 67.4084 8.83488V8.84211Z" fill="#9B015D"/>
<path d="M85.9881 127.877L87.6213 127.993C87.932 128.015 88.2428 127.993 88.5463 127.942L89.3412 127.791L45.1938 1.1875L43.5534 1.28145C43.1126 1.31035 42.6356 1.46211 41.9708 2.09083C41.7034 2.34376 41.1758 3.00138 41.1758 3.00138C40.9301 3.47111 41.0385 4.02033 41.212 4.51897L85.3377 127.393C85.4388 127.675 85.6918 127.863 85.9881 127.884V127.877Z" fill="#9B015D"/>
<path d="M67.3576 0L43.5459 1.27911C42.91 1.31524 42.4836 1.95118 42.7004 2.55099L87.7439 127.203C87.9173 127.673 88.4015 127.954 88.8929 127.868L112.278 123.712C112.647 123.647 112.871 123.264 112.741 122.903L68.3043 0.628715C68.1597 0.238478 67.7767 -0.0216798 67.3576 0.00722661V0ZM63.0794 12.4876C60.4128 12.7261 57.7173 11.0206 57.0741 8.64303C56.4237 6.22211 58.1509 4.06858 60.9187 3.87346C63.6503 3.67834 66.3025 5.47777 66.859 7.85533C67.4082 10.1967 65.7244 12.2563 63.0867 12.4948L63.0794 12.4876Z" fill="#FFB2D2"/>
<path d="M61.9526 22.8762L61.2806 20.9973C61.2444 20.8961 61.3167 20.7877 61.4179 20.7805L72.3517 19.8555C72.424 19.8555 72.489 19.8916 72.5179 19.9639L73.19 21.8211C73.2261 21.9223 73.1611 22.0307 73.0527 22.0379L62.1261 22.9846C62.0538 22.9846 61.9815 22.9485 61.9599 22.8762H61.9526Z" fill="#9B015D"/>
<path d="M72.9812 53.6186L72.3019 51.7252C72.2658 51.624 72.3308 51.5229 72.4392 51.5084L83.3008 50.3016C83.3731 50.2943 83.4453 50.3377 83.467 50.41L84.1391 52.2817C84.1752 52.3828 84.1102 52.484 84.0018 52.4985L73.1474 53.727C73.0752 53.7342 73.0029 53.6908 72.974 53.6186H72.9812Z" fill="#9B015D"/>
<path d="M68.565 28.1676C68.4927 28.1676 68.4205 28.1315 68.3988 28.0592L68.0447 27.0836L74.7221 26.4766C74.7943 26.4766 74.8666 26.5127 74.8883 26.585L75.2352 27.5533L68.5578 28.1604L68.565 28.1676Z" fill="#9B015D"/>
<path d="M70.7623 34.2863C70.69 34.2863 70.6177 34.2502 70.596 34.1779L70.2419 33.2023L76.9121 32.5664C76.9844 32.5664 77.0566 32.6025 77.0783 32.6748L77.4252 33.6432L70.755 34.2863H70.7623Z" fill="#9B015D"/>
<path d="M72.7935 40.3047L72.5116 39.5242C72.4755 39.4231 72.5405 39.3219 72.6489 39.3074L79.1023 38.657C79.1746 38.6498 79.2468 38.6932 79.2685 38.7654L79.6154 39.7338L72.9524 40.4131C72.8802 40.4203 72.8079 40.377 72.7862 40.3047H72.7935Z" fill="#9B015D"/>
<path d="M74.9977 46.434L74.7158 45.6463C74.6797 45.5451 74.7448 45.444 74.8532 45.4295L81.2993 44.743C81.3716 44.7357 81.4438 44.7791 81.4655 44.8514L81.7473 45.6318C81.7835 45.733 81.7184 45.8342 81.61 45.8486L75.1639 46.5424C75.0916 46.5496 75.0194 46.5063 74.9977 46.434Z" fill="#9B015D"/>
<path d="M84.1232 84.6994L83.4367 82.7916C83.4006 82.6977 83.4656 82.5893 83.5668 82.5748L94.3561 81.0789C94.4284 81.0717 94.5079 81.115 94.5296 81.1873L95.2089 83.0734C95.245 83.1674 95.18 83.2758 95.0788 83.2902L84.2895 84.8078C84.2172 84.8151 84.1377 84.7717 84.116 84.6994H84.1232Z" fill="#9B015D"/>
<path d="M79.4629 58.8662L79.1811 58.0785C79.145 57.9774 79.21 57.8762 79.3112 57.8617L85.7429 57.1102C85.8151 57.1029 85.8874 57.1463 85.9163 57.2186L86.1981 57.999C86.2343 58.1002 86.1692 58.2014 86.0681 58.2158L79.6364 58.9746C79.5641 58.9819 79.4918 58.9385 79.4629 58.8662Z" fill="#9B015D"/>
<path d="M81.6741 65.0274L81.3923 64.2397C81.3562 64.1457 81.4212 64.0373 81.5224 64.0229L87.9468 63.2352C88.0191 63.2279 88.0914 63.2713 88.1203 63.3436L88.4021 64.124C88.4382 64.218 88.3732 64.3264 88.272 64.3408L81.8476 65.1358C81.7753 65.143 81.703 65.0996 81.6741 65.0274Z" fill="#9B015D"/>
<path d="M83.8852 71.1801L83.6033 70.3852C83.5672 70.2912 83.6322 70.1828 83.7334 70.1684L90.1507 69.3445C90.2229 69.3373 90.2952 69.3807 90.3241 69.4529L90.6059 70.2406C90.6421 70.3346 90.577 70.443 90.4759 70.4574L84.0586 71.2885C83.9864 71.2957 83.9141 71.2524 83.8852 71.1801Z" fill="#9B015D"/>
<path d="M86.0977 77.349L85.8159 76.5541C85.7797 76.4602 85.8448 76.3518 85.946 76.3373L92.356 75.4773C92.4282 75.4701 92.5005 75.5135 92.5294 75.5857L92.8112 76.3734C92.8474 76.4674 92.7823 76.5758 92.6812 76.5902L86.2784 77.4502C86.2061 77.4574 86.1338 77.4141 86.1049 77.3418L86.0977 77.349Z" fill="#9B015D"/>
<path d="M95.333 115.957L94.6465 114.035C94.6104 113.941 94.6754 113.84 94.7693 113.818L105.494 112.026C105.573 112.012 105.645 112.055 105.674 112.127L106.361 114.028C106.397 114.122 106.332 114.223 106.238 114.245L95.5209 116.059C95.4414 116.073 95.3692 116.03 95.3402 115.957H95.333Z" fill="#9B015D"/>
<path d="M90.591 89.8611L90.302 89.0662C90.2658 88.9722 90.3309 88.8638 90.432 88.8494L96.8204 87.9243C96.8998 87.9099 96.9721 87.9605 96.9938 88.0327L97.2756 88.8205C97.3118 88.9144 97.2467 89.0228 97.1456 89.0372L90.7572 89.9695C90.6777 89.9839 90.6055 89.9333 90.5838 89.8611H90.591Z" fill="#9B015D"/>
<path d="M92.8105 96.0537L92.5214 95.2588C92.4853 95.1649 92.5503 95.0565 92.6515 95.042L99.0326 94.0809C99.1121 94.0664 99.1844 94.1098 99.2061 94.1893L99.4879 94.9842C99.524 95.0782 99.459 95.1866 99.3578 95.201L92.9767 96.1694C92.8972 96.1838 92.825 96.1405 92.8033 96.061L92.8105 96.0537Z" fill="#9B015D"/>
<path d="M95.0369 102.253L94.7479 101.451C94.7117 101.357 94.7768 101.256 94.878 101.234L101.252 100.237C101.331 100.223 101.404 100.266 101.425 100.346L101.714 101.14C101.75 101.234 101.685 101.336 101.584 101.357L95.2104 102.362C95.1309 102.376 95.0586 102.333 95.0369 102.253Z" fill="#9B015D"/>
<path d="M97.2689 108.454L96.9799 107.651C96.9437 107.557 97.0088 107.456 97.1027 107.435L103.469 106.401C103.549 106.387 103.621 106.43 103.65 106.502L103.939 107.297C103.975 107.391 103.91 107.492 103.816 107.514L97.4496 108.548C97.3701 108.562 97.2978 108.519 97.2689 108.439V108.454Z" fill="#9B015D"/>
</svg>
