<svg width="321" height="240" viewBox="0 0 321 240" fill="none" xmlns="http://www.w3.org/2000/svg">
<path d="M305.711 20.0059H14.6174C12.72 20.0041 10.8408 20.3763 9.08735 21.1012C7.33387 21.8261 5.74044 22.8895 4.39815 24.2305C3.05586 25.5716 1.99103 27.164 1.26452 28.9168C0.538005 30.6696 0.164062 32.5485 0.164063 34.4459V205.553C0.164063 209.386 1.68681 213.062 4.39734 215.773C7.10786 218.483 10.7841 220.006 14.6174 220.006H305.711C309.544 220.006 313.22 218.483 315.931 215.773C318.641 213.062 320.164 209.386 320.164 205.553V34.4459C320.164 32.5485 319.79 30.6696 319.064 28.9168C318.337 27.164 317.272 25.5716 315.93 24.2305C314.588 22.8895 312.994 21.8261 311.241 21.1012C309.487 20.3763 307.608 20.0041 305.711 20.0059Z" fill="#223548"/>
<path d="M50.4049 102.107C69.5583 102.107 85.0852 86.5798 85.0852 67.4264C85.0852 48.273 69.5583 32.7461 50.4049 32.7461C31.2515 32.7461 15.7246 48.273 15.7246 67.4264C15.7246 86.5798 31.2515 102.107 50.4049 102.107Z" fill="#324E6B"/>
<path d="M43.9943 75.9444C43.875 76.2912 41.2361 74.7686 38.7164 75.9444C35.7198 77.3371 35.4163 81.3632 34.7552 81.2224C33.9966 81.0652 32.9291 75.4242 35.9311 73.4518C39.1715 71.3168 44.1622 75.4513 43.9943 75.9444Z" fill="#3B5B7C"/>
<path d="M59.0909 50.0746C58.9717 50.4214 56.3327 48.9041 53.813 50.0746C50.8164 51.4726 50.513 55.4934 49.8519 55.3579C49.0933 55.1953 48.0258 49.5544 51.0278 47.582C54.2682 45.4524 59.2589 49.5869 59.0909 50.0746Z" fill="#3B5B7C"/>
<path d="M69.3653 70.0225C69.2461 70.3639 66.6072 68.8467 64.0874 70.0225C61.0909 71.4152 60.7874 75.4413 60.1263 75.3004C59.3677 75.1378 58.3002 69.4969 61.3022 67.5299C64.5426 65.3949 69.5171 69.5294 69.3653 70.0225Z" fill="#3B5B7C"/>
<path d="M79.4546 48.498C81.5222 56.4645 80.6892 64.9066 77.1044 72.3153C73.5196 79.724 67.4168 85.6163 59.8869 88.9389C52.357 92.2615 43.8908 92.7978 36.0018 90.452C28.1128 88.1061 21.3152 83.031 16.8242 76.1339C18.0869 80.9991 20.3921 85.5317 23.5801 89.4177C26.7681 93.3038 30.7627 96.4504 35.2872 98.6396C39.8118 100.829 44.7582 102.008 49.7838 102.097C54.8094 102.185 59.7941 101.18 64.3927 99.1505C68.9913 97.1213 73.0939 94.1168 76.4163 90.345C79.7387 86.5732 82.2015 82.1243 83.6341 77.3064C85.0668 72.4885 85.435 67.4168 84.7133 62.4425C83.9917 57.4682 82.1973 52.7102 79.4546 48.498Z" fill="#3B5B7C"/>
<path d="M261.714 102.594C261.472 98.5641 260.593 95.5671 259.555 95.5723C258.516 95.5774 257.648 98.5899 257.426 102.641C253.38 102.92 250.373 103.824 250.383 104.868C250.393 105.912 253.406 106.744 257.441 106.935C257.684 110.965 258.557 113.962 259.596 113.957C260.635 113.952 261.503 110.939 261.725 106.888C265.771 106.609 268.778 105.705 268.768 104.661C268.757 103.618 265.745 102.78 261.714 102.594Z" fill="#F58B00"/>
<path d="M288.978 144.561C288.818 141.853 288.229 139.838 287.532 139.838C286.834 139.838 286.25 141.869 286.1 144.592C283.377 144.778 281.357 145.387 281.367 146.085C281.378 146.783 283.398 147.346 286.106 147.47C286.271 150.183 286.86 152.198 287.558 152.193C288.255 152.187 288.839 150.162 288.989 147.439C291.707 147.253 293.727 146.648 293.722 145.945C293.717 145.243 291.691 144.685 288.978 144.561Z" fill="#F58B00"/>
<path d="M40.9824 150.291C40.8222 147.584 40.2331 145.568 39.5356 145.568C38.838 145.568 38.2541 147.599 38.1043 150.322C35.3812 150.508 33.3608 151.118 33.3711 151.815C33.3815 152.513 35.4018 153.076 38.1094 153.2C38.2748 155.913 38.8638 157.928 39.5614 157.923C40.259 157.918 40.8429 155.892 40.9927 153.169C43.7107 152.983 45.731 152.379 45.7259 151.676C45.7207 150.973 43.6952 150.415 40.9824 150.291Z" fill="#F58B00"/>
<path d="M289.178 100.471C290.08 99.5692 290.08 98.1066 289.178 97.2044C288.276 96.3022 286.813 96.3022 285.911 97.2044C285.009 98.1066 285.009 99.5692 285.911 100.471C286.813 101.374 288.276 101.374 289.178 100.471Z" fill="#2A4259"/>
<path d="M259.108 143.934C260.01 143.032 260.01 141.569 259.108 140.667C258.205 139.765 256.743 139.765 255.841 140.667C254.938 141.569 254.938 143.032 255.841 143.934C256.743 144.836 258.205 144.836 259.108 143.934Z" fill="#2A4259"/>
<path d="M105.372 65.2331C106.274 64.3309 106.274 62.8683 105.372 61.9661C104.47 61.064 103.007 61.064 102.105 61.9661C101.203 62.8683 101.203 64.3309 102.105 65.2331C103.007 66.1353 104.47 66.1353 105.372 65.2331Z" fill="#2A4259"/>
<path d="M70.8975 188.292C71.7997 187.39 71.7997 185.927 70.8975 185.025C69.9954 184.123 68.5327 184.123 67.6306 185.025C66.7284 185.927 66.7284 187.39 67.6306 188.292C68.5327 189.194 69.9954 189.194 70.8975 188.292Z" fill="#2A4259"/>
<path d="M275.868 59.3562C277.018 58.207 277.018 56.3438 275.868 55.1946C274.719 54.0454 272.856 54.0454 271.707 55.1946C270.558 56.3438 270.558 58.207 271.707 59.3562C272.856 60.5054 274.719 60.5054 275.868 59.3562Z" fill="#2A4259"/>
<path d="M283.793 196.169C284.942 195.02 284.942 193.156 283.793 192.007C282.644 190.858 280.781 190.858 279.632 192.007C278.482 193.156 278.482 195.02 279.632 196.169C280.781 197.318 282.644 197.318 283.793 196.169Z" fill="#324E6B"/>
<path d="M138.038 41.3933C138.94 40.4911 138.94 39.0284 138.038 38.1263C137.136 37.2241 135.673 37.2241 134.771 38.1263C133.869 39.0284 133.869 40.4911 134.771 41.3933C135.673 42.2954 137.136 42.2954 138.038 41.3933Z" fill="#3B5B7C"/>
<path d="M290.724 39.7493C289.493 36.8333 284.1 36.229 276.643 37.6635C277.075 38.1358 277.487 38.6247 277.879 39.1303C282.932 38.5098 286.472 39.1904 287.377 41.3304C288.281 43.4705 286.391 46.6916 282.569 50.2206C282.662 50.8445 282.73 51.4762 282.773 52.1157C288.769 47.268 291.955 42.6579 290.724 39.7493Z" fill="#2A4259"/>
<path d="M233.938 66.3211C233.033 64.1781 234.925 60.9585 238.747 57.4309C238.649 56.7708 238.579 56.1025 238.536 55.4258C232.434 60.3336 229.176 64.9995 230.418 67.9389C231.66 70.8784 237.124 71.4592 244.668 69.9924C244.239 69.5211 243.828 69.0322 243.437 68.5257C238.384 69.1446 234.845 68.464 233.938 66.3211Z" fill="#2A4259"/>
<path d="M260.659 77.1585C272.906 77.1585 282.834 66.7136 282.834 53.8292C282.834 40.9449 272.906 30.5 260.659 30.5C248.412 30.5 238.484 40.9449 238.484 53.8292C238.484 66.7136 248.412 77.1585 260.659 77.1585Z" fill="#2A4259"/>
<path fill-rule="evenodd" clip-rule="evenodd" d="M274.427 43.3248C274.427 43.4243 274.445 43.5228 274.482 43.6148C274.518 43.7067 274.571 43.7902 274.638 43.8605C274.705 43.9308 274.784 43.9865 274.872 44.0245C274.959 44.0624 275.053 44.0818 275.148 44.0816H280.809C280.584 43.5663 280.341 43.0613 280.08 42.5665H275.155C275.059 42.5653 274.965 42.5841 274.876 42.6217C274.788 42.6593 274.708 42.715 274.64 42.7855C274.572 42.8561 274.518 42.9401 274.482 43.0327C274.445 43.1252 274.427 43.2245 274.427 43.3248ZM257.093 53.7742H255.699C255.507 53.7742 255.324 53.8541 255.189 53.9963C255.054 54.1385 254.978 54.3314 254.978 54.5325C254.978 54.7336 255.054 54.9265 255.189 55.0687C255.324 55.2109 255.507 55.2908 255.699 55.2908H257.093C257.284 55.2908 257.467 55.2109 257.602 55.0687C257.738 54.9265 257.814 54.7336 257.814 54.5325C257.814 54.3314 257.738 54.1385 257.602 53.9963C257.467 53.8541 257.284 53.7742 257.093 53.7742ZM271.732 44.0845H270.337C270.146 44.0845 269.963 44.0046 269.828 43.8624C269.693 43.7202 269.617 43.5273 269.617 43.3262C269.617 43.1251 269.693 42.9322 269.828 42.79C269.963 42.6478 270.146 42.5679 270.337 42.5679H271.732C271.923 42.5679 272.106 42.6478 272.241 42.79C272.377 42.9322 272.453 43.1251 272.453 43.3262C272.453 43.5273 272.377 43.7202 272.241 43.8624C272.106 44.0046 271.923 44.0845 271.732 44.0845ZM274.989 62.3048C274.827 62.6254 274.591 62.8981 274.303 63.0982C274.016 63.2983 273.685 63.4194 273.341 63.4504L271.947 63.578C271.778 63.5748 271.613 63.6328 271.48 63.7423C271.346 63.8518 271.253 64.0061 271.215 64.1794C271.193 64.2899 271.194 64.4042 271.219 64.514C271.244 64.6238 271.293 64.7263 271.36 64.814C271.428 64.9017 271.513 64.9724 271.61 65.021C271.707 65.0695 271.813 65.0947 271.92 65.0947H280.089C280.698 63.9294 281.211 62.7115 281.623 61.4541H276.336C276.062 61.4701 275.797 61.5559 275.562 61.7042C275.328 61.8524 275.131 62.0586 274.989 62.3048ZM264.1 61.9794C257.771 64.9378 251.675 66.9855 246.625 68.003C245.718 68.1821 244.807 68.3368 243.892 68.467C243.739 68.4877 243.587 68.5073 243.436 68.5257L243.439 68.5294L243.434 68.5301C243.624 68.7785 243.821 69.0229 244.024 69.2635L244.049 69.2943C244.249 69.532 244.455 69.7661 244.665 69.9969C245.13 69.9038 245.594 69.8061 246.056 69.7036C246.267 69.6573 246.478 69.6094 246.691 69.5601C248.718 69.0919 250.725 68.534 252.708 67.8877L252.706 67.8861C256.448 66.6831 260.445 65.1161 264.525 63.2086C271.797 59.8101 278.13 55.8923 282.775 52.127C282.731 51.4875 282.663 50.8558 282.572 50.2319C282.569 50.2342 282.567 50.2365 282.564 50.2388C282.479 49.6547 282.372 49.074 282.244 48.4982H269.996C269.755 48.4982 269.524 48.5989 269.353 48.7783C269.183 48.9576 269.087 49.2009 269.087 49.4545C269.087 49.5803 269.063 49.7049 269.018 49.8211C268.972 49.9373 268.905 50.0429 268.82 50.1318C268.736 50.2207 268.635 50.2913 268.525 50.3394C268.415 50.3876 268.296 50.4123 268.177 50.4123H260.655C259.819 50.4119 259.018 50.0625 258.428 49.4409C257.837 48.8193 257.505 47.9763 257.505 47.0974V46.2056C257.505 46.0799 257.482 45.9554 257.436 45.8393C257.39 45.7232 257.323 45.6177 257.239 45.5288C257.154 45.44 257.054 45.3696 256.943 45.3216C256.833 45.2737 256.714 45.2491 256.595 45.2493H242.399L242.399 45.2463H240.029L239.983 45.3725C239.922 45.5382 239.862 45.704 239.805 45.8712L239.79 45.9119C239.773 45.9624 239.756 46.0124 239.739 46.0633C239.699 46.181 239.662 46.3013 239.624 46.4207L239.624 46.4207L239.624 46.4207C239.593 46.52 239.562 46.6187 239.53 46.7146C239.521 46.7418 239.513 46.7696 239.505 46.7972L239.505 46.7972C239.501 46.8128 239.497 46.8283 239.492 46.8437C239.435 47.0344 239.381 47.225 239.328 47.4186L239.282 47.5888C239.222 47.8205 239.163 48.0538 239.109 48.2885L239.1 48.3237C239.047 48.551 239 48.7798 238.954 49.0086L238.925 49.1553C238.831 49.6438 238.751 50.1381 238.686 50.6368L238.67 50.76C238.639 51.0093 238.611 51.2602 238.587 51.5124L238.593 51.5124L238.593 51.5139H256.402L276.309 51.5696H281.048C276.864 55.0718 270.95 58.7779 264.1 61.9794ZM252.793 53.9944C252.928 54.1363 253.004 54.3288 253.004 54.5296C253.004 54.7295 252.929 54.9215 252.795 55.0636C252.662 55.2057 252.48 55.2863 252.29 55.2879H243.322L243.322 55.2879L243.178 55.2879H238.525C238.497 54.8068 238.481 54.3213 238.481 53.8314V53.7727H252.284C252.475 53.7727 252.658 53.8524 252.793 53.9944Z" fill="#EBF8FF"/>
<path fill-rule="evenodd" clip-rule="evenodd" d="M246.554 71.831C250.387 75.1591 255.301 77.1584 260.659 77.1584C272.906 77.1584 282.834 66.7136 282.834 53.8292C282.834 44.1754 277.261 35.8912 269.314 32.3438C273.528 36.1381 276.199 41.7747 276.199 48.0675C276.199 59.493 267.395 68.7552 256.535 68.7552C248.593 68.7552 241.751 63.8026 238.647 56.6731C239.305 62.3683 241.914 67.4304 245.749 71.0977C246.012 71.3487 246.28 71.5932 246.554 71.831Z" fill="#324E6B"/>
<path fill-rule="evenodd" clip-rule="evenodd" d="M275.834 44.0816H280.81C280.584 43.5663 280.341 43.0612 280.08 42.5664H275.496C275.626 43.0642 275.739 43.5695 275.834 44.0816ZM281.53 61.7316C281.561 61.6393 281.592 61.5468 281.623 61.4541H276.336C276.063 61.47 275.797 61.5559 275.562 61.7041C275.328 61.8523 275.131 62.0585 274.989 62.3048C274.827 62.6253 274.591 62.8981 274.304 63.0982C274.016 63.2983 273.685 63.4193 273.341 63.4504L271.947 63.578C271.778 63.5748 271.613 63.6328 271.48 63.7423C271.346 63.8517 271.253 64.006 271.215 64.1794C271.193 64.2898 271.194 64.4041 271.219 64.5139C271.245 64.6237 271.293 64.7262 271.36 64.8139C271.428 64.9017 271.513 64.9724 271.61 65.0209C271.707 65.0695 271.813 65.0947 271.92 65.0946H280.083C280.646 64.0224 281.131 62.8985 281.53 61.7316ZM244.671 69.9956C245.134 69.9029 245.596 69.8056 246.057 69.7036C246.267 69.6572 246.478 69.6094 246.691 69.56C248.424 69.1599 250.142 68.6941 251.843 68.1636C251.014 67.9501 250.205 67.6813 249.421 67.3611C248.459 67.6073 247.525 67.8215 246.625 68.003C245.718 68.182 244.807 68.3368 243.893 68.4669C243.739 68.4876 243.587 68.5072 243.437 68.5257L243.439 68.5293L243.439 68.5294C243.83 69.0362 244.241 69.5254 244.671 69.9956ZM274.606 56.2394C274.292 57.0058 273.936 57.7482 273.54 58.4634C277.058 56.3818 280.18 54.2306 282.775 52.127C282.731 51.4875 282.663 50.8558 282.572 50.2319L282.564 50.2387C282.479 49.6546 282.372 49.074 282.244 48.4981H276.195C276.174 49.5424 276.081 50.5677 275.919 51.5685L276.309 51.5696H281.048C279.211 53.1069 277.042 54.6834 274.606 56.2394Z" fill="#2A4259"/>
<path d="M158.519 205.395C117.605 205.395 84.4385 172.519 84.4385 131.964C84.4385 91.4093 117.605 58.5332 158.519 58.5332C199.433 58.5332 232.6 91.4093 232.6 131.964C232.6 172.519 199.433 205.395 158.519 205.395Z" fill="#2A4259"/>
<path d="M158.519 195.41C123.168 195.41 94.5105 167.003 94.5105 131.963C94.5105 96.9218 123.168 68.5156 158.519 68.5156C193.87 68.5156 222.527 96.9218 222.527 131.963C222.527 167.003 193.87 195.41 158.519 195.41Z" fill="#4098FF"/>
<path fill-rule="evenodd" clip-rule="evenodd" d="M196.532 183.015L141.157 183.015C139.917 183.015 138.911 182.009 138.911 180.769C138.911 179.529 139.917 178.523 141.157 178.523L202.002 178.523C200.265 180.117 198.439 181.617 196.532 183.015ZM209.166 170.766H107.872C104.446 166.379 101.588 161.535 99.4057 156.342H147.273C149.836 156.342 152.346 155.611 154.508 154.235L158.829 151.485C160.991 150.109 163.501 149.378 166.064 149.378H216.852C217.93 149.378 218.971 149.538 219.953 149.835C217.682 157.516 213.985 164.594 209.166 170.766ZM222.143 124.968H173.154C171.603 124.968 170.346 123.711 170.346 122.161C170.346 120.61 171.603 119.354 173.154 119.354H221.263C221.638 121.197 221.933 123.07 222.143 124.968ZM220.06 114.458C219.209 115.41 217.97 116.029 216.541 116.029H125.209C123.63 116.029 122.349 114.748 122.349 113.169C122.349 111.589 121.069 110.309 119.489 110.309H98.3354C99.9596 105.874 102.068 101.67 104.598 97.7598C105.225 97.6706 105.86 97.6255 106.496 97.6255H172.585C172.585 102.57 176.593 106.578 181.537 106.578H216.541C216.771 106.578 216.997 106.595 217.22 106.627C218.332 109.156 219.283 111.77 220.06 114.458ZM120.57 80.8648H140.989C142.54 80.8648 143.797 79.6079 143.797 78.0574C143.797 76.5069 142.54 75.25 140.989 75.25H129.792C126.55 76.8662 123.467 78.7474 120.57 80.8648ZM94.7016 136.905L136.381 136.905C139.482 136.905 141.996 139.419 141.996 142.52C141.996 145.621 139.482 148.135 136.381 148.135H96.6081C95.6466 144.508 95.0008 140.755 94.7016 136.905ZM150.026 119.354C148.475 119.354 147.218 120.61 147.218 122.161C147.218 123.711 148.475 124.968 150.026 124.968L157.094 124.968C158.644 124.968 159.901 123.711 159.901 122.161C159.901 120.61 158.644 119.354 157.094 119.354H150.026Z" fill="#3B5B7C"/>
<path fill-rule="evenodd" clip-rule="evenodd" d="M102.617 162.889C113.565 182.292 134.497 195.409 158.519 195.409C185.032 195.409 207.78 179.43 217.497 156.658C218.72 153.794 219.736 150.821 220.527 147.76C221.833 142.71 222.527 137.416 222.527 131.962C222.527 109.179 210.413 89.2012 192.221 78.0117C197.384 87.1617 200.327 97.7095 200.327 108.939C200.327 143.979 171.669 172.386 136.318 172.386C123.952 172.386 112.405 168.91 102.617 162.889Z" fill="#0070F3"/>
<path fill-rule="evenodd" clip-rule="evenodd" d="M141.157 183.015H196.533C198.44 181.617 200.266 180.117 202.002 178.523H141.157C139.917 178.523 138.911 179.529 138.911 180.769C138.911 182.009 139.917 183.015 141.157 183.015ZM209.166 170.766H150.76C164.667 167.587 176.841 159.916 185.644 149.378H216.852C217.93 149.378 218.971 149.538 219.953 149.835C217.682 157.516 213.986 164.593 209.166 170.766ZM199.932 116.028C200.193 113.701 200.327 111.336 200.327 108.94C200.327 108.149 200.312 107.362 200.283 106.578H216.541C216.771 106.578 216.997 106.595 217.22 106.627C218.332 109.156 219.283 111.77 220.06 114.458C219.209 115.41 217.97 116.028 216.541 116.028H199.932ZM199.469 119.353C199.152 121.255 198.75 123.128 198.267 124.968H222.143C221.933 123.07 221.638 121.197 221.263 119.353H199.469ZM121.876 170.766H107.872C105.945 168.298 104.197 165.686 102.649 162.948C102.638 162.929 102.627 162.91 102.616 162.891C108.474 166.493 114.961 169.185 121.876 170.766Z" fill="#4098FF"/>
<path fill-rule="evenodd" clip-rule="evenodd" d="M158.04 8.4043C159.591 8.4043 160.848 9.66121 160.848 11.2117L160.848 80.9779C160.848 82.5284 159.591 83.7853 158.04 83.7853C156.49 83.7853 155.233 82.5284 155.233 80.9779L155.233 11.2117C155.233 9.66121 156.49 8.4043 158.04 8.4043Z" fill="#688FB7"/>
<path d="M183.87 12.9771C175.603 7.12139 164.925 9.10203 160.619 10.8243V51.9436C184.946 37.089 183.87 41.6099 206.044 42.0405C223.784 42.385 229.51 35.2949 230.156 31.7069C211.642 34.9361 194.204 20.2968 183.87 12.9771Z" fill="#F58B00"/>
<path fill-rule="evenodd" clip-rule="evenodd" d="M190.268 41.138V17.6112C196.165 21.8499 203.345 26.662 211.212 29.5533V41.9185C209.615 42.032 207.895 42.0769 206.045 42.041C201.257 41.948 197.553 41.6644 194.444 41.4263C192.93 41.3103 191.556 41.2051 190.268 41.138Z" fill="#CC7400"/>
<path fill-rule="evenodd" clip-rule="evenodd" d="M169.446 9.08214V46.7962C166.91 48.1777 164.011 49.8723 160.619 51.9436V10.8243C162.547 10.0532 165.752 9.23038 169.446 9.08214Z" fill="#CC7400"/>
<path d="M228.066 185.256L227.996 185.302C226.812 186.174 226.021 187.479 225.795 188.932C225.569 190.385 225.927 191.869 226.79 193.059C227.652 194.247 228.946 195.047 230.394 195.285C231.841 195.524 233.325 195.182 234.522 194.334C234.557 194.312 234.589 194.285 234.618 194.255L260.628 167.838C260.728 167.722 260.784 167.575 260.788 167.422C260.792 167.269 260.744 167.12 260.65 166.999C260.556 166.878 260.424 166.793 260.275 166.759C260.126 166.725 259.97 166.743 259.833 166.811L228.066 185.256Z" fill="#3B5B7C"/>
<path d="M231.689 193.198C233.727 193.198 235.379 191.546 235.379 189.508C235.379 187.47 233.727 185.818 231.689 185.818C229.651 185.818 227.999 187.47 227.999 189.508C227.999 191.546 229.651 193.198 231.689 193.198Z" fill="#223548"/>
<path d="M249.312 189.148L249.272 189.191C248.628 189.956 248.313 190.945 248.396 191.941C248.478 192.938 248.952 193.861 249.713 194.51C250.471 195.152 251.451 195.472 252.442 195.399C253.433 195.327 254.357 194.868 255.013 194.122L255.063 194.053L268.044 172.441C268.102 172.349 268.123 172.239 268.105 172.132C268.086 172.025 268.029 171.928 267.944 171.861C267.859 171.793 267.752 171.759 267.644 171.764C267.535 171.77 267.433 171.815 267.355 171.892L249.312 189.148Z" fill="#3B5B7C"/>
<path d="M252.383 193.894C253.77 193.894 254.894 192.77 254.894 191.384C254.894 189.997 253.77 188.873 252.383 188.873C250.996 188.873 249.872 189.997 249.872 191.384C249.872 192.77 250.996 193.894 252.383 193.894Z" fill="#223548"/>
</svg>
