<svg width="128" height="129" viewBox="0 0 128 129" fill="none" xmlns="http://www.w3.org/2000/svg">
<circle cx="64" cy="64.2695" r="64" fill="#223548"/>
<path fill-rule="evenodd" clip-rule="evenodd" d="M27.5092 116.855C26.9453 116.463 26.388 116.062 25.8375 115.653C44.0435 107.758 41.3745 94.3569 41.3745 94.3569L104.927 97.8776C104.927 97.8776 103.57 108.266 99.0742 117.813C90.1009 123.703 79.558 127.398 68.2086 128.135L27.5092 116.855Z" fill="#2A4259"/>
<path d="M118.62 85.1009L57.5703 84.5535C55.1425 90.1613 41.7002 94.3438 41.7002 94.3438L104.889 98.0886C104.889 98.0886 114.844 91.6133 118.62 85.1009Z" fill="#324E6B"/>
<path d="M122.412 59.7998L118.62 85.1021L57.4019 84.282L62.8522 64.9209L122.412 59.7998Z" fill="#2A4259"/>
<path fill-rule="evenodd" clip-rule="evenodd" d="M127.482 56.0889L122.616 59.8614L63.541 64.6836L75.4335 58.4765L127.016 53.0317C127.195 54.0428 127.351 55.062 127.482 56.0889Z" fill="#324E6B"/>
<path d="M97.326 80.0418C86.564 98.6121 64.603 107.143 50.557 101.321C44.0783 98.6356 37.8924 95.6105 34.4856 92.3329C25.6222 83.8055 28.0756 72.5914 37.276 53.9176C46.7619 34.6642 64.4502 20.928 78.1403 24.9531C101.061 31.692 108.547 60.6801 97.326 80.0418Z" fill="#1782FF"/>
<path fill-rule="evenodd" clip-rule="evenodd" d="M72.7562 26.5341C76.602 27.3249 81.8399 24.4594 83.8957 18.9959C85.9514 13.5324 83.4674 9.07898 79.6216 8.28816C75.7758 7.49734 70.538 10.3629 68.4822 15.8264C66.4264 21.2899 68.9104 25.7433 72.7562 26.5341ZM71.7377 29.2409C77.5586 30.4379 84.2702 26.1118 86.7285 19.5784C89.1868 13.045 86.461 6.77829 80.6401 5.58134C74.8193 4.38439 68.1077 8.71044 65.6494 15.2439C63.191 21.7773 65.9169 28.044 71.7377 29.2409Z" fill="white"/>
<path d="M77.6697 25.8273C76.001 26.5874 74.2683 26.8439 72.7521 26.5321L73.49 28.1086C75.0054 28.6046 76.6296 28.7127 78.2565 28.4855C81.9129 26.9582 85.1694 23.7089 86.7243 19.5765C86.8373 19.2763 86.9393 18.9767 87.0306 18.6781C86.9378 18.8865 86.8377 19.096 86.73 19.3063C84.6927 23.2836 80.9751 25.537 77.6697 25.8273Z" fill="#688FB7"/>
<path fill-rule="evenodd" clip-rule="evenodd" d="M79.4838 22.759C79.5 22.7116 79.5132 22.6632 79.5234 22.6139C79.7983 21.2768 77.721 19.72 74.8836 19.1365C72.0462 18.5531 69.5232 19.164 69.2483 20.501C69.2381 20.5503 69.2312 20.6 69.2274 20.6499L69.2186 20.6481L67.9497 26.8189L78.2247 28.9318L79.4937 22.761L79.4838 22.759Z" fill="white"/>
<path fill-rule="evenodd" clip-rule="evenodd" d="M74.0895 28.0811L75.877 19.3887C78.1883 20.0933 79.7636 21.4382 79.522 22.6133C79.5118 22.6626 79.4986 22.711 79.4825 22.7583L79.4924 22.7604L78.2235 28.9312L74.0895 28.0811Z" fill="#688FB7"/>
<path fill-rule="evenodd" clip-rule="evenodd" d="M83.7945 11.5171C82.9159 9.8227 81.4179 8.65624 79.6234 8.28723C75.7776 7.49641 70.5397 10.362 68.4839 15.8254C67.7807 17.6944 67.6087 19.4452 67.8407 20.9716C66.1551 17.1533 68.3372 10.7969 73.4606 7.95131C79.0333 4.8562 82.8398 7.86011 83.7945 11.5171Z" fill="#688FB7"/>
<path fill-rule="evenodd" clip-rule="evenodd" d="M33.2287 62.7254L43.0486 52.3379L86.1706 93.1034C74.9703 102.245 60.6993 105.526 50.556 101.321C44.0773 98.6356 37.8914 95.6105 34.4846 92.3329C27.1112 85.239 27.5695 76.2858 33.2287 62.7254Z" fill="#0070F3"/>
<ellipse cx="58.8556" cy="59.8634" rx="32.6054" ry="40.2126" transform="rotate(39.6076 58.8556 59.8634)" fill="#4098FF"/>
<ellipse cx="57.9357" cy="58.6136" rx="26.0288" ry="34.6499" transform="rotate(39.6076 57.9357 58.6136)" fill="#0070F3"/>
<path fill-rule="evenodd" clip-rule="evenodd" d="M39.2028 87.5529C50.4478 93.5229 66.9513 88.5515 77.9929 75.2081C90.0624 60.6226 91.0842 41.498 80.3815 32.2167C69.1366 26.2466 52.633 31.218 41.5914 44.5614C29.5219 59.1469 28.5002 78.2716 39.2028 87.5529Z" fill="#688FB7"/>
<path fill-rule="evenodd" clip-rule="evenodd" d="M39.1195 87.5064C50.3662 93.5461 66.9245 88.5831 77.9936 75.2065C88.5544 62.4441 90.6568 46.2064 83.8473 36.1287C72.6007 30.089 56.0424 35.052 44.9733 48.4286C34.4124 61.191 32.31 77.4287 39.1195 87.5064Z" fill="#CEDBE8"/>
<path fill-rule="evenodd" clip-rule="evenodd" d="M70.4114 29.7876C70.9285 29.9211 71.2395 30.4485 71.106 30.9656L69.7684 36.148C69.6349 36.6651 69.1075 36.9761 68.5905 36.8426C68.0734 36.7092 67.7624 36.1818 67.8958 35.6647L69.2335 30.4823C69.3669 29.9652 69.8943 29.6542 70.4114 29.7876Z" fill="#688FB7"/>
<path fill-rule="evenodd" clip-rule="evenodd" d="M52.1981 81.4532C52.7084 81.6106 52.9944 82.152 52.837 82.6623L50.7365 89.4699C50.5791 89.9802 50.0377 90.2662 49.5274 90.1088C49.0172 89.9513 48.7311 89.41 48.8886 88.8997L50.989 82.0921C51.1465 81.5818 51.6878 81.2957 52.1981 81.4532Z" fill="#688FB7"/>
<path fill-rule="evenodd" clip-rule="evenodd" d="M41.1208 57.7022C41.0406 58.2302 40.5476 58.5932 40.0196 58.513L34.8739 57.7313C34.346 57.6511 33.983 57.158 34.0632 56.6301C34.1434 56.1021 34.6364 55.7391 35.1644 55.8193L40.3101 56.601C40.838 56.6812 41.201 57.1742 41.1208 57.7022Z" fill="#688FB7"/>
<path fill-rule="evenodd" clip-rule="evenodd" d="M84.7614 63.3682C84.6812 63.8962 84.1882 64.2592 83.6602 64.179L78.5146 63.3973C77.9866 63.3171 77.6236 62.824 77.7038 62.2961C77.784 61.7681 78.2771 61.4051 78.805 61.4853L83.9507 62.267C84.4787 62.3472 84.8416 62.8403 84.7614 63.3682Z" fill="#688FB7"/>
<path d="M81.7145 43.835L56.6596 54.6136C56.59 54.6435 56.5284 54.6894 56.4798 54.7474L38.0823 76.7345C37.7601 77.1196 38.1658 77.6799 38.6322 77.4938L63.8232 67.4454C63.9006 67.4145 63.9687 67.3642 64.0209 67.2993L82.2824 44.5821C82.5982 44.1893 82.1775 43.6359 81.7145 43.835Z" fill="white"/>
<path d="M82.0123 41.0921L55.0655 52.6845L35.3649 76.2289L62.453 65.4237L82.0123 41.0921Z" fill="#F58B00"/>
<path fill-rule="evenodd" clip-rule="evenodd" d="M62.4692 65.4034L82.0124 41.0916L55.0656 52.6841L54.8853 52.8996L62.4692 65.4034Z" fill="#64EDD2"/>
<path fill-rule="evenodd" clip-rule="evenodd" d="M35.9092 75.5787L35.3649 76.2293L62.453 65.4241L81.7528 41.4153L35.9092 75.5787Z" fill="#CC7400"/>
<path fill-rule="evenodd" clip-rule="evenodd" d="M58.451 58.7812L62.4688 65.4055L81.7529 41.4162L58.451 58.7812Z" fill="#00A58A"/>
<ellipse cx="58.3952" cy="59.0488" rx="2.16082" ry="2.73701" transform="rotate(56.0862 58.3952 59.0488)" fill="#688FB7"/>
<path fill-rule="evenodd" clip-rule="evenodd" d="M23.8054 14.4631L43.5603 28.1362L40.899 41.6609L19.7035 18.0761C21.0183 16.8149 22.3869 15.6093 23.8054 14.4631Z" fill="#324E6B"/>
<path fill-rule="evenodd" clip-rule="evenodd" d="M18.8161 18.9456L38.3573 31.3568L40.899 41.6626L18.0219 19.7514C18.2843 19.4804 18.549 19.2118 18.8161 18.9456Z" fill="#3B5B7C"/>
<path fill-rule="evenodd" clip-rule="evenodd" d="M28.6188 10.9311L58.7343 23.2519L43.3175 28.469L23.6404 14.5975C25.2378 13.298 26.8991 12.0741 28.6188 10.9311Z" fill="#2A4259"/>
<path fill-rule="evenodd" clip-rule="evenodd" d="M21.5987 16.3308L38.356 31.356L15.1917 42.7153L11.3862 27.8216C14.3217 23.5922 17.754 19.7338 21.5987 16.3308Z" fill="#2A4259"/>
<path d="M112.492 34.5963C112.492 33.9412 110.59 33.4169 108.049 33.2977C107.904 30.7603 107.345 28.8735 106.69 28.875C106.035 28.8765 105.49 30.7777 105.35 33.3282C102.803 33.5025 100.908 34.0719 100.917 34.7284C100.926 35.3849 102.819 35.9093 105.359 36.0269C105.512 38.5644 106.064 40.4511 106.717 40.4497C107.371 40.4482 107.919 38.5469 108.058 35.9964C110.606 35.8221 112.499 35.2528 112.492 34.5963Z" fill="#2A4259"/>
<path d="M21.7173 83.1569C21.7173 82.6087 20.1261 82.1699 17.9999 82.0702C17.8784 79.9468 17.4104 78.3679 16.8621 78.3691C16.3139 78.3704 15.858 79.9614 15.7413 82.0958C13.6092 82.2416 12.024 82.7181 12.0313 83.2675C12.0386 83.8169 13.6225 84.2556 15.7486 84.3541C15.8763 86.4775 16.3382 88.0564 16.8852 88.0552C17.4323 88.054 17.8905 86.4629 18.0072 84.3286C20.1394 84.1827 21.7234 83.7063 21.7173 83.1569Z" fill="#2A4259"/>
</svg>
