<?xml version="1.0" encoding="UTF-8"?>
<!--Generator: Apple Native CoreSVG 341-->
<!DOCTYPE svg
PUBLIC "-//W3C//DTD SVG 1.1//EN"
       "http://www.w3.org/Graphics/SVG/1.1/DTD/svg11.dtd">
<svg version="1.1" xmlns="http://www.w3.org/2000/svg" xmlns:xlink="http://www.w3.org/1999/xlink" viewBox="0 0 3300 2200">
 <!--glyph: "", point size: 100.0, font version: "21.0d4e1", template writer version: "138.0.0"-->
 <style>.defaults {-sfsymbols-draw-reverses-motion-groups:true}

.monochrome-0 {-sfsymbols-motion-group:1;-sfsymbols-layer-tags:3c6d273844e3c32b}
.monochrome-1 {-sfsymbols-motion-group:0;-sfsymbols-layer-tags:3c6d273844e3c32b}

.multicolor-0:tintColor {-sfsymbols-motion-group:1;-sfsymbols-layer-tags:3c6d273844e3c32b}
.multicolor-1:tintColor {-sfsymbols-motion-group:0;-sfsymbols-layer-tags:3c6d273844e3c32b}

.hierarchical-0:primary {-sfsymbols-motion-group:1;-sfsymbols-layer-tags:3c6d273844e3c32b}
.hierarchical-1:primary {-sfsymbols-motion-group:0;-sfsymbols-layer-tags:3c6d273844e3c32b}

.SFSymbolsPreviewWireframe {fill:none;opacity:1.0;stroke:black;stroke-width:0.5}
</style>
 <g id="Notes">
  <rect height="2200" id="artboard" style="fill:white;opacity:1" width="3300" x="0" y="0"/>
  <line style="fill:none;stroke:black;opacity:1;stroke-width:0.5;" x1="263" x2="3036" y1="292" y2="292"/>
  <text style="stroke:none;fill:black;font-family:sans-serif;font-size:13;font-weight:bold;" transform="matrix(1 0 0 1 263 322)">Weight/Scale Variations</text>
  <text style="stroke:none;fill:black;font-family:sans-serif;font-size:13;text-anchor:middle;" transform="matrix(1 0 0 1 559.711 322)">Ultralight</text>
  <text style="stroke:none;fill:black;font-family:sans-serif;font-size:13;text-anchor:middle;" transform="matrix(1 0 0 1 856.422 322)">Thin</text>
  <text style="stroke:none;fill:black;font-family:sans-serif;font-size:13;text-anchor:middle;" transform="matrix(1 0 0 1 1153.13 322)">Light</text>
  <text style="stroke:none;fill:black;font-family:sans-serif;font-size:13;text-anchor:middle;" transform="matrix(1 0 0 1 1449.84 322)">Regular</text>
  <text style="stroke:none;fill:black;font-family:sans-serif;font-size:13;text-anchor:middle;" transform="matrix(1 0 0 1 1746.56 322)">Medium</text>
  <text style="stroke:none;fill:black;font-family:sans-serif;font-size:13;text-anchor:middle;" transform="matrix(1 0 0 1 2043.27 322)">Semibold</text>
  <text style="stroke:none;fill:black;font-family:sans-serif;font-size:13;text-anchor:middle;" transform="matrix(1 0 0 1 2339.98 322)">Bold</text>
  <text style="stroke:none;fill:black;font-family:sans-serif;font-size:13;text-anchor:middle;" transform="matrix(1 0 0 1 2636.69 322)">Heavy</text>
  <text style="stroke:none;fill:black;font-family:sans-serif;font-size:13;text-anchor:middle;" transform="matrix(1 0 0 1 2933.4 322)">Black</text>
  <line style="fill:none;stroke:black;opacity:1;stroke-width:0.5;" x1="263" x2="3036" y1="1903" y2="1903"/>
  <g transform="matrix(0.2 0 0 0.2 263 1933)">
   <path d="m46.2402 4.15039c21.7773 0 39.4531-17.627 39.4531-39.4043s-17.6758-39.4043-39.4531-39.4043c-21.7285 0-39.4043 17.627-39.4043 39.4043s17.6758 39.4043 39.4043 39.4043Zm0-7.42188c-17.6758 0-31.9336-14.3066-31.9336-31.9824s14.2578-31.9824 31.9336-31.9824 31.9824 14.3066 31.9824 31.9824-14.3066 31.9824-31.9824 31.9824Zm3.61328-17.7734v-28.4668c0-2.24609-1.46484-3.75977-3.71094-3.75977-2.14844 0-3.61328 1.51367-3.61328 3.75977v28.4668c0 2.19727 1.46484 3.71094 3.61328 3.71094 2.24609 0 3.71094-1.51367 3.71094-3.71094Zm-17.8223-10.5957h28.418c2.19727 0 3.71094-1.46484 3.71094-3.61328 0-2.19727-1.51367-3.71094-3.71094-3.71094h-28.418c-2.24609 0-3.75977 1.51367-3.75977 3.71094 0 2.14844 1.51367 3.61328 3.75977 3.61328Z"/>
  </g>
  <g transform="matrix(0.2 0 0 0.2 281.506 1933)">
   <path d="m58.5449 14.5508c27.4902 0 49.8047-22.3145 49.8047-49.8047s-22.3145-49.8047-49.8047-49.8047-49.8047 22.3145-49.8047 49.8047 22.3145 49.8047 49.8047 49.8047Zm0-8.30078c-22.9492 0-41.5039-18.5547-41.5039-41.5039s18.5547-41.5039 41.5039-41.5039 41.5039 18.5547 41.5039 41.5039-18.5547 41.5039-41.5039 41.5039Zm4.05273-23.0957v-36.9141c0-2.49023-1.70898-4.19922-4.15039-4.19922-2.39258 0-4.05273 1.70898-4.05273 4.19922v36.9141c0 2.44141 1.66016 4.15039 4.05273 4.15039 2.44141 0 4.15039-1.66016 4.15039-4.15039Zm-22.5586-14.4043h36.9629c2.44141 0 4.15039-1.61133 4.15039-4.00391 0-2.44141-1.70898-4.15039-4.15039-4.15039h-36.9629c-2.49023 0-4.15039 1.70898-4.15039 4.15039 0 2.39258 1.66016 4.00391 4.15039 4.00391Z"/>
  </g>
  <g transform="matrix(0.2 0 0 0.2 304.924 1933)">
   <path d="m74.8535 28.3203c35.1074 0 63.623-28.4668 63.623-63.5742s-28.5156-63.623-63.623-63.623-63.5742 28.5156-63.5742 63.623 28.4668 63.5742 63.5742 63.5742Zm0-9.08203c-30.127 0-54.4922-24.3652-54.4922-54.4922s24.3652-54.4922 54.4922-54.4922 54.4922 24.3652 54.4922 54.4922-24.3652 54.4922-54.4922 54.4922Zm4.44336-30.3223v-48.4863c0-2.73438-1.85547-4.63867-4.54102-4.63867-2.58789 0-4.44336 1.9043-4.44336 4.63867v48.4863c0 2.68555 1.85547 4.58984 4.44336 4.58984 2.68555 0 4.54102-1.85547 4.54102-4.58984Zm-28.7109-19.7754h48.4863c2.68555 0 4.58984-1.80664 4.58984-4.39453 0-2.73438-1.85547-4.58984-4.58984-4.58984h-48.4863c-2.73438 0-4.58984 1.85547-4.58984 4.58984 0 2.58789 1.85547 4.39453 4.58984 4.39453Z"/>
  </g>
  <text style="stroke:none;fill:black;font-family:sans-serif;font-size:13;font-weight:bold;" transform="matrix(1 0 0 1 263 1953)">Design Variations</text>
  <text style="stroke:none;fill:black;font-family:sans-serif;font-size:13;" transform="matrix(1 0 0 1 263 1971)">Symbols are supported in up to nine weights and three scales.</text>
  <text style="stroke:none;fill:black;font-family:sans-serif;font-size:13;" transform="matrix(1 0 0 1 263 1989)">For optimal layout with text and other symbols, vertically align</text>
  <text style="stroke:none;fill:black;font-family:sans-serif;font-size:13;" transform="matrix(1 0 0 1 263 2007)">symbols with the adjacent text.</text>
  <line style="fill:none;stroke:#00AEEF;stroke-width:0.5;opacity:1.0;" x1="776" x2="776" y1="1919" y2="1933"/>
  <g transform="matrix(0.2 0 0 0.2 776 1933)">
   <path d="m16.5527 0.78125c2.58789 0 3.85742-0.976562 4.78516-3.71094l20.5566-57.5195h0.244141l20.6055 57.5195c0.927734 2.73438 2.19727 3.71094 4.73633 3.71094 2.58789 0 4.24805-1.5625 4.24805-4.00391 0-0.830078-0.146484-1.61133-0.537109-2.63672l-22.9004-60.9863c-1.12305-2.97852-3.125-4.49219-6.25-4.49219-3.02734 0-5.07812 1.46484-6.15234 4.44336l-22.9004 61.084c-0.390625 1.02539-0.537109 1.80664-0.537109 2.63672 0 2.44141 1.5625 3.95508 4.10156 3.95508Zm10.2051-20.9473h30.6641c2.00195 0 3.66211-1.66016 3.66211-3.66211 0-2.05078-1.66016-3.66211-3.66211-3.66211h-30.6641c-2.00195 0-3.66211 1.61133-3.66211 3.66211 0 2.00195 1.66016 3.66211 3.66211 3.66211Z"/>
  </g>
  <line style="fill:none;stroke:#00AEEF;stroke-width:0.5;opacity:1.0;" x1="792.836" x2="792.836" y1="1919" y2="1933"/>
  <text style="stroke:none;fill:black;font-family:sans-serif;font-size:13;font-weight:bold;" transform="matrix(1 0 0 1 776 1953)">Margins</text>
  <text style="stroke:none;fill:black;font-family:sans-serif;font-size:13;" transform="matrix(1 0 0 1 776 1971)">Leading and trailing margins on the left and right side of each symbol</text>
  <text style="stroke:none;fill:black;font-family:sans-serif;font-size:13;" transform="matrix(1 0 0 1 776 1989)">can be adjusted by modifying the x-location of the margin guidelines.</text>
  <text style="stroke:none;fill:black;font-family:sans-serif;font-size:13;" transform="matrix(1 0 0 1 776 2007)">Modifications are automatically applied proportionally to all</text>
  <text style="stroke:none;fill:black;font-family:sans-serif;font-size:13;" transform="matrix(1 0 0 1 776 2025)">scales and weights.</text>
  <g transform="matrix(0.2 0 0 0.2 1289 1933)">
   <path d="m14.209 13.1348 7.86133 7.86133c4.29688 4.39453 9.32617 4.10156 13.8672-1.02539l60.6934-68.2129-4.88281-4.88281-60.2539 67.6758c-1.80664 1.95312-3.4668 2.44141-5.81055 0.0976562l-5.17578-5.12695c-2.29492-2.29492-1.80664-3.95508 0.195312-5.81055l67.4805-62.1582-4.88281-4.83398-68.0664 62.5977c-4.98047 4.58984-5.32227 9.47266-1.02539 13.8184Zm44.873-97.4609c-2.05078 2.00195-2.24609 4.88281-1.07422 6.78711 1.12305 1.80664 3.4668 3.02734 6.5918 2.24609 5.85938-1.66016 12.5977-2.39258 18.8965 0.927734l-2.68555 7.12891c-1.61133 4.00391-0.732422 6.88477 1.70898 9.42383l10.2539 10.3027c2.34375 2.39258 4.54102 2.44141 7.08008 1.95312l4.44336-0.732422 2.58789 2.53906-0.195312 2.24609c-0.0976562 2.29492 0.537109 4.29688 2.7832 6.49414l3.36914 3.32031c2.29492 2.29492 5.51758 2.49023 7.8125 0.195312l12.9883-13.0371c2.29492-2.34375 2.14844-5.37109-0.195312-7.66602l-3.41797-3.41797c-2.19727-2.19727-4.05273-3.02734-6.34766-2.88086l-2.34375 0.244141-2.44141-2.44141 1.02539-4.6875c0.634766-2.73438-0.244141-4.98047-2.88086-7.61719l-11.2793-11.1816c-12.9395-12.8418-35.5957-11.0352-46.6797-0.146484Zm7.08008 2.05078c8.78906-6.39648 25.9766-5.66406 33.6914 1.95312l12.3047 12.207c1.02539 1.02539 1.2207 1.80664 0.927734 3.32031l-1.46484 6.64062 6.73828 6.68945 4.39453-0.244141c1.12305-0.0488281 1.51367 0.0488281 2.34375 0.878906l2.53906 2.49023-10.8398 10.8398-2.49023-2.49023c-0.830078-0.878906-0.976562-1.2207-0.927734-2.39258l0.292969-4.3457-6.68945-6.73828-6.83594 1.17188c-1.41602 0.292969-2.05078 0.195312-3.17383-0.878906l-8.93555-8.88672c-1.07422-1.02539-1.17188-1.70898-0.488281-3.36914l4.58984-11.4746c-6.10352-6.34766-17.041-7.51953-25.5859-4.58984-0.683594 0.244141-0.927734-0.390625-0.390625-0.78125Z"/>
  </g>
  <text style="stroke:none;fill:black;font-family:sans-serif;font-size:13;font-weight:bold;" transform="matrix(1 0 0 1 1289 1953)">Exporting</text>
  <text style="stroke:none;fill:black;font-family:sans-serif;font-size:13;" transform="matrix(1 0 0 1 1289 1971)">Symbols should be outlined when exporting to ensure the</text>
  <text style="stroke:none;fill:black;font-family:sans-serif;font-size:13;" transform="matrix(1 0 0 1 1289 1989)">design is preserved when submitting to Xcode.</text>
  <text id="template-version" style="stroke:none;fill:black;font-family:sans-serif;font-size:13;text-anchor:end;" transform="matrix(1 0 0 1 3036 1933)">Template v.5.0</text>
  <text style="stroke:none;fill:black;font-family:sans-serif;font-size:13;text-anchor:end;" transform="matrix(1 0 0 1 3036 1951)">Requires Xcode 15 or greater</text>
  <text id="descriptive-name" style="stroke:none;fill:black;font-family:sans-serif;font-size:13;text-anchor:end;" transform="matrix(1 0 0 1 3036 1969)">Generated from fiori.workflow.tasks</text>
  <text style="stroke:none;fill:black;font-family:sans-serif;font-size:13;text-anchor:end;" transform="matrix(1 0 0 1 3036 1987)">Typeset at 100.0 points</text>
  <text style="stroke:none;fill:black;font-family:sans-serif;font-size:13;" transform="matrix(1 0 0 1 263 726)">Small</text>
  <text style="stroke:none;fill:black;font-family:sans-serif;font-size:13;" transform="matrix(1 0 0 1 263 1156)">Medium</text>
  <text style="stroke:none;fill:black;font-family:sans-serif;font-size:13;" transform="matrix(1 0 0 1 263 1586)">Large</text>
 </g>
 <g id="Guides">
  <g id="H-reference" style="fill:#27AAE1;stroke:none;" transform="matrix(1 0 0 1 339 696)">
   <path d="M0.993654 0L3.63775 0L29.3281-67.1323L30.0303-67.1323L30.0303-70.459L28.1226-70.459ZM11.6885-24.4799L46.9815-24.4799L46.2315-26.7285L12.4385-26.7285ZM55.1196 0L57.7637 0L30.6382-70.459L29.4326-70.459L29.4326-67.1323Z"/>
  </g>
  <line id="Baseline-S" style="fill:none;stroke:#27AAE1;opacity:1;stroke-width:0.5;" x1="263" x2="3036" y1="696" y2="696"/>
  <line id="Capline-S" style="fill:none;stroke:#27AAE1;opacity:1;stroke-width:0.5;" x1="263" x2="3036" y1="625.541" y2="625.541"/>
  <g id="H-reference" style="fill:#27AAE1;stroke:none;" transform="matrix(1 0 0 1 339 1126)">
   <path d="M0.993654 0L3.63775 0L29.3281-67.1323L30.0303-67.1323L30.0303-70.459L28.1226-70.459ZM11.6885-24.4799L46.9815-24.4799L46.2315-26.7285L12.4385-26.7285ZM55.1196 0L57.7637 0L30.6382-70.459L29.4326-70.459L29.4326-67.1323Z"/>
  </g>
  <line id="Baseline-M" style="fill:none;stroke:#27AAE1;opacity:1;stroke-width:0.5;" x1="263" x2="3036" y1="1126" y2="1126"/>
  <line id="Capline-M" style="fill:none;stroke:#27AAE1;opacity:1;stroke-width:0.5;" x1="263" x2="3036" y1="1055.54" y2="1055.54"/>
  <g id="H-reference" style="fill:#27AAE1;stroke:none;" transform="matrix(1 0 0 1 339 1556)">
   <path d="M0.993654 0L3.63775 0L29.3281-67.1323L30.0303-67.1323L30.0303-70.459L28.1226-70.459ZM11.6885-24.4799L46.9815-24.4799L46.2315-26.7285L12.4385-26.7285ZM55.1196 0L57.7637 0L30.6382-70.459L29.4326-70.459L29.4326-67.1323Z"/>
  </g>
  <line id="Baseline-L" style="fill:none;stroke:#27AAE1;opacity:1;stroke-width:0.5;" x1="263" x2="3036" y1="1556" y2="1556"/>
  <line id="Capline-L" style="fill:none;stroke:#27AAE1;opacity:1;stroke-width:0.5;" x1="263" x2="3036" y1="1485.54" y2="1485.54"/>
  <line id="right-margin-Black-S" style="fill:none;stroke:#00AEEF;stroke-width:0.5;opacity:1.0;" x1="2981.9" x2="2981.9" y1="600.785" y2="720.121"/>
  <line id="left-margin-Black-S" style="fill:none;stroke:#00AEEF;stroke-width:0.5;opacity:1.0;" x1="2884.9" x2="2884.9" y1="600.785" y2="720.121"/>
  <line id="right-margin-Regular-S" style="fill:none;stroke:#00AEEF;stroke-width:0.5;opacity:1.0;" x1="1496.29" x2="1496.29" y1="600.785" y2="720.121"/>
  <line id="left-margin-Regular-S" style="fill:none;stroke:#00AEEF;stroke-width:0.5;opacity:1.0;" x1="1403.39" x2="1403.39" y1="600.785" y2="720.121"/>
  <line id="right-margin-Ultralight-S" style="fill:none;stroke:#00AEEF;stroke-width:0.5;opacity:1.0;" x1="604.411" x2="604.411" y1="600.785" y2="720.121"/>
  <line id="left-margin-Ultralight-S" style="fill:none;stroke:#00AEEF;stroke-width:0.5;opacity:1.0;" x1="515.011" x2="515.011" y1="600.785" y2="720.121"/>
 </g>
 <g id="Symbols">
  <g id="Black-S" transform="matrix(1 0 0 1 2884.9 696)">
   <path class="monochrome-0 multicolor-0:tintColor hierarchical-0:primary SFSymbolsPreviewWireframe" d="M67.01 1.7L21.81 1.7C12.91 1.7 5.71-5.5 5.71-14.4L5.71-57.6C5.71-66.5 12.91-73.7 21.81-73.7L67.01-73.7C74.81-73.7 81.01-67.5 81.01-59.7C81.01-56 78.01-53.9 75.21-53.9C71.61-53.9 69.41-57 69.41-59.3C69.41-61.2 68.31-62.1 67.01-62.1L21.81-62.1C19.31-62.1 17.31-60.1 17.31-57.6L17.31-14.4C17.31-11.9 19.31-9.9 21.81-9.9L67.01-9.9C68.61-9.9 69.41-11.3 69.41-12.3C69.41-15.7 72.21-18.1 75.21-18.1C78.21-18.1 81.01-15.7 81.01-12.3C81.01-4.9 75.01 1.7 67.01 1.7ZM26.91-54.8C23.71-54.8 21.11-57.4 21.11-60.6L21.11-78.1C21.11-81.3 23.71-83.9 26.91-83.9C30.11-83.9 32.71-81.3 32.71-78.1L32.71-60.6C32.71-57.4 30.11-54.8 26.91-54.8ZM59.81-54.8C56.61-54.8 54.01-57.4 54.01-60.6L54.01-78.1C54.01-81.3 56.61-83.9 59.81-83.9C63.01-83.9 65.61-81.3 65.61-78.1L65.61-60.6C65.61-57.4 63.01-54.8 59.81-54.8Z"/>
   <path class="monochrome-1 multicolor-1:tintColor hierarchical-1:primary SFSymbolsPreviewWireframe" d="M82.51-30.2L54.71-30.2C51.51-30.2 48.91-32.8 48.91-36C48.91-39.2 51.51-41.8 54.71-41.8L82.51-41.8C85.71-41.8 88.31-39.2 88.31-36C88.31-32.8 85.71-30.2 82.51-30.2ZM70.11-17.8C69.01-17.8 67.41-18.1 66.01-19.5C63.91-21.6 63.61-25.3 66.01-27.7L74.21-35.9L66.01-44.2C63.71-46.5 63.61-50.1 66.01-52.4C68.11-54.4 71.71-54.9 74.21-52.4L86.51-40.1C88.71-37.9 88.91-34.3 86.51-31.9L74.21-19.5C73.41-18.7 72.11-17.8 70.11-17.8ZM24.91-42.8C20.81-42.8 18.11-40.1 18.11-36C18.11-31.9 20.81-29.2 24.91-29.2C29.01-29.2 31.71-31.9 31.71-36C31.71-40.1 29.01-42.8 24.91-42.8L24.91-42.8ZM40.31-42.8C36.21-42.8 33.51-40.1 33.51-36C33.51-31.9 36.21-29.2 40.31-29.2C44.41-29.2 47.11-31.9 47.11-36C47.11-40.1 44.41-42.8 40.31-42.8L40.31-42.8Z"/>
  </g>
  <g id="Regular-S" transform="matrix(1 0 0 1 1403.39 696)">
   <path class="monochrome-0 multicolor-0:tintColor hierarchical-0:primary SFSymbolsPreviewWireframe" d="M64.96 0L19.76 0C11.86 0 5.36-6.5 5.36-14.4L5.36-57.6C5.36-65.5 11.86-72 19.76-72L64.96-72C71.76-72 77.26-66.5 77.26-59.7C77.26-57.4 75.46-55.6 73.16-55.6C70.86-55.6 69.06-57.4 69.06-59.7C69.06-62 67.26-63.8 64.96-63.8L19.76-63.8C16.36-63.8 13.56-61 13.56-57.6L13.56-14.4C13.56-11 16.36-8.2 19.76-8.2L64.96-8.2C67.26-8.2 69.06-10 69.06-12.3C69.06-14.6 70.86-16.4 73.16-16.4C75.46-16.4 77.26-14.6 77.26-12.3C77.36-5.5 71.76 0 64.96 0ZM24.96-56.5C22.66-56.5 20.86-58.3 20.86-60.6L20.86-78.1C20.86-80.4 22.66-82.2 24.96-82.2C27.26-82.2 29.06-80.4 29.06-78.1L29.06-60.6C29.06-58.4 27.16-56.5 24.96-56.5ZM57.76-56.5C55.46-56.5 53.66-58.3 53.66-60.6L53.66-78.1C53.66-80.4 55.46-82.2 57.76-82.2C60.06-82.2 61.86-80.4 61.86-78.1L61.86-60.6C61.96-58.4 60.06-56.5 57.76-56.5Z"/>
   <path class="monochrome-1 multicolor-1:tintColor hierarchical-1:primary SFSymbolsPreviewWireframe" d="M79.86-31.9L55.76-31.9C53.46-31.9 51.66-33.7 51.66-36C51.66-38.3 53.46-40.1 55.76-40.1L79.86-40.1C82.16-40.1 83.96-38.3 83.96-36C83.96-33.7 82.16-31.9 79.86-31.9ZM71.16-19.5C70.06-19.5 69.06-19.9 68.26-20.7C66.66-22.3 66.66-24.9 68.26-26.5L77.66-35.9L68.26-45.3C66.66-46.9 66.66-49.5 68.26-51.1C69.86-52.7 72.46-52.7 74.06-51.1L86.36-38.8C87.96-37.2 87.96-34.6 86.36-33L74.06-20.7C73.26-19.9 72.26-19.5 71.16-19.5ZM25.96-41.1C22.86-41.1 20.86-39 20.86-36C20.86-33 22.96-30.9 25.96-30.9C28.96-30.9 31.06-33 31.06-36C31.06-39 29.06-41.1 25.96-41.1L25.96-41.1ZM41.36-41.1C38.26-41.1 36.26-39 36.26-36C36.26-32.9 38.36-30.9 41.36-30.9C44.46-30.9 46.46-33 46.46-36C46.46-39.1 44.46-41.1 41.36-41.1L41.36-41.1Z"/>
  </g>
  <g id="Ultralight-S" transform="matrix(1 0 0 1 515.011 696)">
   <path class="monochrome-0 multicolor-0:tintColor hierarchical-0:primary SFSymbolsPreviewWireframe" d="M63.275-2.8L17.975-2.8C11.675-2.8 6.475-8 6.475-14.4L6.475-57.6C6.475-64 11.675-69.2 18.075-69.2L63.275-69.2C68.575-69.2 72.775-64.8 72.775-59.7C72.775-59.2 72.375-58.4 71.475-58.4C70.675-58.4 70.175-59.1 70.175-59.7C70.175-63.3 67.275-66.6 63.275-66.6L17.975-66.6C12.975-66.6 8.975-62.6 8.975-57.6L8.975-14.4C8.975-9.4 12.975-5.4 17.975-5.4L63.175-5.4C66.375-5.4 70.075-8 70.075-12.3C70.075-12.9 70.475-13.6 71.375-13.6C71.975-13.6 72.675-13.1 72.675-12.3C72.775-6.4 67.675-2.8 63.275-2.8ZM23.175-59.4C22.475-59.4 21.875-60 21.875-60.7L21.875-78.2C21.875-78.9 22.475-79.5 23.175-79.5C23.875-79.5 24.475-78.9 24.475-78.2L24.475-60.7C24.475-59.9 23.875-59.4 23.175-59.4ZM56.075-59.4C55.375-59.4 54.775-60 54.775-60.7L54.775-78.2C54.775-78.9 55.375-79.5 56.075-79.5C56.775-79.5 57.375-78.9 57.375-78.2L57.375-60.7C57.375-59.9 56.775-59.4 56.075-59.4Z"/>
   <path class="monochrome-1 multicolor-1:tintColor hierarchical-1:primary SFSymbolsPreviewWireframe" d="M80.575-34.7L53.975-34.7C53.275-34.7 52.675-35.3 52.675-36C52.675-36.7 53.275-37.3 53.975-37.3L80.575-37.3C81.275-37.3 81.875-36.7 81.875-36C81.875-35.3 81.275-34.7 80.575-34.7ZM69.375-22.4C69.075-22.4 68.775-22.5 68.475-22.8C68.075-23.2 67.975-24.1 68.475-24.6L79.975-36L68.475-47.4C67.875-48 68.175-48.7 68.475-49.2C68.875-49.9 69.775-49.7 70.275-49.2L82.575-36.9C83.175-36.3 82.975-35.5 82.575-35.1L70.375-22.7C70.175-22.6 69.775-22.4 69.375-22.4ZM24.175-38.3C22.775-38.3 21.875-37.4 21.875-36C21.875-34.6 22.775-33.7 24.175-33.7C25.575-33.7 26.475-34.6 26.475-36C26.475-37.4 25.575-38.3 24.175-38.3L24.175-38.3ZM39.575-38.3C38.175-38.3 37.275-37.4 37.275-36C37.275-34.6 38.175-33.7 39.575-33.7C40.975-33.7 41.875-34.6 41.875-36C41.875-37.4 40.975-38.3 39.575-38.3L39.575-38.3Z"/>
  </g>
 </g>
</svg>
