<svg width="320" height="240" viewBox="0 0 320 240" fill="none" xmlns="http://www.w3.org/2000/svg">
<path d="M130.573 131.733H33.9598C18.1939 131.733 5.41309 144.514 5.41309 160.28C5.41309 176.046 18.1939 188.827 33.9598 188.827H130.573C146.339 188.827 159.12 176.046 159.12 160.28C159.12 144.514 146.339 131.733 130.573 131.733Z" fill="#EBF8FF"/>
<path d="M165.747 160.066H69.1336C53.3677 160.066 40.5869 172.847 40.5869 188.613C40.5869 204.379 53.3677 217.16 69.1336 217.16H165.747C181.513 217.16 194.294 204.379 194.294 188.613C194.294 172.847 181.513 160.066 165.747 160.066Z" fill="#EBF8FF"/>
<path d="M291.453 81.1201H194.84C179.074 81.1201 166.293 93.9009 166.293 109.667C166.293 125.433 179.074 138.213 194.84 138.213H291.453C307.219 138.213 320 125.433 320 109.667C320 93.9009 307.219 81.1201 291.453 81.1201Z" fill="#EBF8FF"/>
<path d="M219.453 29H37.8267C16.9356 29 0 45.9356 0 66.8267V66.84C0 87.7311 16.9356 104.667 37.8267 104.667H219.453C240.344 104.667 257.28 87.7311 257.28 66.84V66.8267C257.28 45.9356 240.344 29 219.453 29Z" fill="#EBF8FF"/>
<g clip-path="url(#clip0_2698_32639)">
<path d="M206.667 91.6663C206.667 121.122 182.789 145 153.334 145C123.879 145 100 121.122 100 91.6663C100 62.2112 123.879 38.333 153.334 38.333C182.789 38.333 206.667 62.2112 206.667 91.6663Z" fill="white"/>
<path d="M153.126 67.9131C148.321 67.9131 143.623 69.3381 139.627 72.008C135.632 74.6778 132.517 78.4726 130.678 82.9124C128.839 87.3522 128.358 92.2377 129.295 96.951C130.233 101.664 132.547 105.994 135.945 109.392C139.343 112.79 143.673 115.104 148.386 116.042C153.099 116.979 157.985 116.498 162.425 114.659C166.864 112.82 170.659 109.705 173.329 105.71C175.999 101.714 177.424 97.0164 177.424 92.2107C177.407 85.7719 174.841 79.6016 170.288 75.0486C165.735 70.4956 159.565 67.9302 153.126 67.9131ZM153.126 106.789C152.404 106.791 151.697 106.579 151.095 106.179C150.494 105.78 150.024 105.21 149.746 104.544C149.468 103.877 149.395 103.143 149.534 102.434C149.674 101.725 150.021 101.074 150.531 100.562C151.041 100.051 151.691 99.7019 152.399 99.5601C153.108 99.4184 153.842 99.4901 154.51 99.7661C155.177 100.042 155.748 100.51 156.15 101.11C156.551 101.711 156.765 102.417 156.765 103.139C156.741 104.098 156.35 105.01 155.673 105.689C154.996 106.368 154.085 106.762 153.126 106.789ZM157.986 93.6686C157.597 93.8738 157.068 94.2086 156.582 94.4569C156.304 94.5666 156.039 94.7078 155.794 94.8781L155.556 95.1265C155.453 95.6885 155.15 96.1945 154.704 96.5515C154.257 96.9085 153.697 97.0927 153.126 97.0703C152.802 97.0891 152.478 97.0391 152.175 96.9237C151.871 96.8082 151.596 96.6299 151.366 96.4004C151.137 96.1709 150.958 95.8955 150.843 95.5921C150.728 95.2888 150.678 94.9645 150.696 94.6405C150.696 92.9343 151.528 92.2107 153.461 90.5693C153.461 90.5693 154.001 90.1698 154.368 89.943L155.556 89.295C157.251 88.3231 157.986 87.5888 157.986 85.8934C157.986 83.9496 155.826 82.2433 153.126 82.2433C150.426 82.2433 148.267 83.9496 148.267 85.8934C148.267 86.5378 148.011 87.1558 147.555 87.6114C147.099 88.0671 146.481 88.3231 145.837 88.3231C145.193 88.3231 144.575 88.0671 144.119 87.6114C143.663 87.1558 143.407 86.5378 143.407 85.8934C143.407 81.0338 147.727 77.3838 153.126 77.3838C158.526 77.3838 162.845 81.0338 162.845 85.8934C162.845 89.5326 161.15 91.7248 157.986 93.6686Z" fill="#004DA5"/>
<path opacity="0.2" d="M173.817 43.7445L154.282 37.5459L121.507 134.736L141.053 140.924L173.817 43.7445Z" fill="#D5DADD"/>
<path opacity="0.2" d="M148.688 143.862L182.078 46.5415L176.009 44.6084L142.597 141.929L148.688 143.862Z" fill="#D5DADD"/>
<path d="M179.195 138.084L164.886 143.861L174.022 166.453L188.32 160.675L179.195 138.084Z" fill="#D5DADD"/>
<path d="M171.808 165.784L194.302 220.977C195.192 223.106 196.891 224.795 199.024 225.674C201.158 226.552 203.553 226.549 205.684 225.664L207.38 224.973C209.504 224.083 211.188 222.388 212.067 220.259C212.945 218.131 212.945 215.741 212.067 213.612L189.572 158.419L171.808 165.784Z" fill="#F58B00"/>
<path d="M164.39 142.663L165.891 146.227C165.891 146.227 173.45 149.542 181.204 142.598L178.817 136.918L172.251 140.158L164.39 142.663Z" fill="#D5DADD"/>
<path d="M153.515 145.709C140.816 145.716 128.508 141.32 118.688 133.269C108.868 125.218 102.143 114.011 99.6606 101.557C97.1781 89.1039 99.091 76.1748 105.073 64.9738C111.056 53.7727 120.738 44.9929 132.468 40.1306C144.199 35.2684 157.253 34.6247 169.405 38.3092C181.558 41.9937 192.056 49.7784 199.112 60.3365C206.167 70.8946 209.343 83.5728 208.098 96.2101C206.852 108.847 201.263 120.662 192.283 129.64C181.993 139.912 168.054 145.689 153.515 145.709ZM153.515 40.6458C141.863 40.6536 130.574 44.7009 121.572 52.0983C112.57 59.4957 106.411 69.7856 104.144 81.2148C101.878 92.644 103.644 104.505 109.142 114.778C114.64 125.051 123.53 133.1 134.297 137.554C145.064 142.008 157.042 142.59 168.19 139.203C179.339 135.816 188.968 128.668 195.438 118.977C201.907 109.286 204.817 97.6524 203.67 86.0572C202.524 74.4619 197.393 63.6228 189.151 55.3864C179.694 45.9466 166.877 40.6452 153.515 40.6458Z" fill="#00144A"/>
<path d="M218.233 36.0994C218.029 35.9079 217.776 35.7748 217.503 35.714C217.229 35.6533 216.945 35.667 216.678 35.7538L210.285 37.6652C209.857 37.8105 209.504 38.1188 209.301 38.5232C209.099 38.9275 209.065 39.3953 209.205 39.825C209.296 40.1662 209.494 40.4693 209.77 40.6891C210.046 40.9089 210.386 41.0338 210.739 41.0453C210.911 41.0458 211.082 41.0203 211.246 40.9697L217.628 39.0583C217.912 38.9788 218.169 38.8245 218.372 38.6117C218.575 38.399 218.717 38.1355 218.784 37.8488C218.845 37.5344 218.827 37.2097 218.731 36.9041C218.634 36.5986 218.463 36.322 218.233 36.0994Z" fill="#5B738B"/>
<path d="M190.307 13.0216C190.11 12.9813 189.908 12.9824 189.711 13.0248C189.515 13.0672 189.33 13.1499 189.167 13.2677C189.005 13.3855 188.869 13.5358 188.768 13.7091C188.666 13.8824 188.602 14.0749 188.579 14.2743L187.499 20.6781C187.461 20.9081 187.469 21.1435 187.523 21.3704C187.577 21.5973 187.676 21.8112 187.814 21.9993C187.952 22.1875 188.126 22.3462 188.326 22.466C188.526 22.5859 188.748 22.6646 188.979 22.6975C189.076 22.7082 189.174 22.7082 189.27 22.6975C189.626 22.7051 189.971 22.5798 190.239 22.3461C190.506 22.1124 190.677 21.7871 190.717 21.434L191.797 15.0302C191.865 14.5663 191.747 14.0944 191.467 13.7179C191.188 13.3413 190.771 13.0909 190.307 13.0216Z" fill="#5B738B"/>
<path d="M207.337 19.4468C207.117 19.4613 206.903 19.5194 206.707 19.6177C206.51 19.7159 206.335 19.8524 206.192 20.0192L199.713 27.4597C199.428 27.7947 199.284 28.2264 199.311 28.6649C199.337 29.1034 199.531 29.5149 199.853 29.8138C200.146 30.0874 200.532 30.2415 200.933 30.2458C201.169 30.246 201.402 30.1949 201.617 30.0961C201.831 29.9972 202.022 29.853 202.175 29.6734L208.654 22.2437C208.939 21.907 209.083 21.4735 209.057 21.0332C209.031 20.5929 208.836 20.1795 208.514 19.8788C208.356 19.7327 208.17 19.6193 207.968 19.5451C207.766 19.471 207.552 19.4376 207.337 19.4468Z" fill="#5B738B"/>
</g>
<defs>
<clipPath id="clip0_2698_32639">
<rect width="120.128" height="213.333" fill="white" transform="translate(98.667 13)"/>
</clipPath>
</defs>
</svg>
