<svg width="160" height="160" viewBox="0 0 160 160" fill="none" xmlns="http://www.w3.org/2000/svg">
<rect y="45" width="160" height="69" rx="12" fill="#89D1FF"/>
<path d="M124.465 93.1153L121.605 91.7948L72.6518 87.3036C72.6518 87.3036 53.0036 85.085 45.4005 84.6729C35.968 84.1599 26.6029 83.8949 26.0352 85.884C25.4675 87.8731 31.7291 90.8546 47.6587 96.9649C58.5344 101.137 63.5608 101.583 67.5635 100.289L91.7143 93.17L124.469 93.1153H124.465Z" fill="#1B90FF"/>
<path d="M100.846 84.8146L124.467 93.12C124.467 93.12 125.459 93.6582 125.808 91.4168C126.073 89.7305 126.267 87.5143 124.976 84.3267L103.491 76.875L100.846 78.5613V84.8146Z" fill="#FF7F4C"/>
<path d="M124.467 93.1157C124.467 93.1157 125.459 93.654 125.808 91.4125C125.884 90.9205 100.846 82.6992 100.846 82.6992V84.8103L124.467 93.1157Z" fill="#8D2A00"/>
<path d="M125.471 85.74C125.336 85.29 125.176 84.8191 124.974 84.3228L103.49 76.8711L103.25 77.0267L103.788 78.7719L125.471 85.74Z" fill="#FFAB92"/>
<path d="M84.4858 42.4336L85.0619 43.0181C85.5161 43.4807 85.903 44.0064 86.2099 44.5783L103.489 76.8748C103.489 76.8748 105.108 80.403 100.844 84.8143L67.6268 100.214C66.7269 100.63 65.7387 100.832 64.742 100.794H64.7168L84.4858 42.4336Z" fill="#FF7F4C"/>
<path d="M58.0645 99.0927C59.2336 99.4922 60.5666 99.2525 61.9922 98.4745C57.9215 94.8916 58.2747 81.8847 63.1108 67.6583C67.8249 53.7851 75.2094 43.4317 80.5921 42.5906C79.9571 41.3711 79.1245 40.5385 78.0858 40.1852C77.8166 40.0927 77.5349 40.0423 77.2447 40.017C77.1438 40.0128 77.0471 40.0002 76.9462 40.0002C71.4961 39.9455 63.4346 51.1358 58.279 66.3084C54.162 78.428 53.0602 89.6603 55.003 95.3626C55.3773 96.2625 55.8063 97.0784 56.2815 97.8017C56.7903 98.4198 57.3832 98.8572 58.0645 99.0885V99.0927Z" fill="#FF7F4C"/>
<path d="M63.1077 67.6572C58.2716 81.8836 57.9184 94.8905 61.9891 98.4734C67.1532 95.6559 73.5326 85.7146 77.8682 72.9684C82.3342 59.827 83.2551 47.7284 80.589 42.5938C75.2063 43.4348 67.8218 53.7882 63.1077 67.6614V67.6572Z" fill="#A93E00"/>
<path d="M77.0314 75.3234C77.3173 74.5496 77.5949 73.7632 77.8682 72.9684C82.3342 59.827 83.2552 47.7284 80.589 42.5938C78.15 42.9764 74.2054 45.8276 70.4375 51.9757C70.4375 51.9757 79.6723 53.5737 77.0314 75.3276V75.3234Z" fill="#450B00"/>
<path d="M84.507 66.3387L72.6521 89.2547L64.7168 100.786H64.742C65.7345 100.823 66.7227 100.626 67.6268 100.209L100.857 84.8118L82.493 85.1644C86.5221 74.8812 88.0248 60.4062 88.0248 60.4062L84.507 66.3387Z" fill="#8D2A00"/>
<path d="M103.49 76.8721L98.8644 68.226L87.4639 51.9727C87.4639 51.9727 87.6348 57.9032 86.8457 62.5153L103.785 78.7729C103.814 77.587 103.486 76.8721 103.486 76.8721H103.49Z" fill="#FFAB92"/>
<path d="M80.5878 42.5906C79.9528 41.3711 79.1202 40.5385 78.0814 40.1852C77.8123 40.0927 77.5306 40.0422 77.2404 40.017C77.1395 40.0128 77.0428 40.0002 76.9418 40.0002C73.4514 39.9665 68.8971 44.5419 64.7129 51.817C64.7171 51.817 68.1402 50.7531 70.4321 51.9726C73.8972 46.5478 77.5558 43.0658 80.5836 42.5906H80.5878Z" fill="#C35500"/>
<path d="M85.1297 43.157C84.07 41.4202 80.7352 40.9324 79.0657 40.3647C78.4686 40.1628 77.8588 40.0535 77.2406 40.0156C77.5266 40.0409 77.8083 40.0913 78.0817 40.1838C79.1204 40.5371 79.9572 41.3697 80.588 42.5893C83.25 47.7239 82.3332 59.8225 77.8672 72.9639C73.5358 85.7101 67.1522 95.6514 61.9881 98.4689C60.5625 99.2469 59.2294 99.4866 58.0604 99.0871C57.3791 98.8558 56.782 98.4184 56.2773 97.8003C56.2942 97.8255 56.311 97.8549 56.3278 97.8802C57.581 99.7641 62.5306 101.156 64.7173 100.79C71.7612 99.6127 79.1624 88.3552 83.7167 74.953C88.1911 61.7863 88.8472 49.2504 85.1297 43.157Z" fill="#FFAB92"/>
<path d="M83.1899 41.6558C82.3582 41.2367 80.6885 40.8015 79.0652 40.3647C78.468 40.1628 77.8582 40.0535 77.2401 40.0156C77.526 40.0409 77.8078 40.0913 78.0811 40.1838C79.1198 40.5371 79.9567 41.3697 80.5875 42.5893C83.2517 47.7401 82.1618 63.326 75.6738 78.7955C85.1658 64.2819 85.6099 47.293 83.1899 41.6558Z" fill="#FFAB92"/>
</svg>
