<svg width="320" height="154" viewBox="0 0 320 154" fill="none" xmlns="http://www.w3.org/2000/svg">
<path d="M296 0.105469H24C10.7452 0.105469 0 10.8506 0 24.1055V114.105C0 127.36 10.7452 138.105 24 138.105H296C309.255 138.105 320 127.36 320 114.105V24.1055C320 10.8506 309.255 0.105469 296 0.105469Z" fill="#89D1FF"/>
<mask id="mask0_4011_79297" style="mask-type:alpha" maskUnits="userSpaceOnUse" x="0" y="0" width="320" height="139">
<path d="M296 0.105469H24C10.7452 0.105469 0 10.8506 0 24.1055V114.105C0 127.36 10.7452 138.105 24 138.105H296C309.255 138.105 320 127.36 320 114.105V24.1055C320 10.8506 309.255 0.105469 296 0.105469Z" fill="#89D1FF"/>
</mask>
<g mask="url(#mask0_4011_79297)">
<path d="M182.22 -8.12201C186.766 -9.3094 191.433 -9.11588 195.759 -7.61322C197.538 -7.05249 199.244 -6.303 200.815 -5.37982L202.04 -6.51166C202.65 -7.08163 203.61 -7.04246 204.17 -6.43256L205.733 -4.75287C210.086 -6.73015 215.429 -5.79974 218.89 -2.08197L221.652 0.890685C222 0.641163 222.348 0.392828 222.699 0.147521L222.96 -0.0321665C223.58 -0.611944 224.56 -0.562155 225.14 0.0576773L227.052 2.12311C227.083 2.14095 227.112 2.16189 227.136 2.18756C227.674 2.76733 226.056 5.21976 223.163 8.46393L229.67 15.4776C230.459 16.3261 230.419 17.6424 229.573 18.4229C228.723 19.1971 227.408 19.1457 226.62 18.2979L220.311 11.4962C219.273 12.5474 218.15 13.6397 216.962 14.7442C215.683 15.9335 214.422 17.0469 213.22 18.0645L219.43 24.7579C219.615 24.9515 219.749 25.1729 219.842 25.4063C220.168 26.1885 219.997 27.1143 219.34 27.7178V27.7081C218.49 28.488 217.17 28.4378 216.38 27.588L209.972 20.6807C206.81 23.0838 204.441 24.4168 203.779 24.0372C203.767 24.0369 203.761 24.0382 203.76 24.0381L203.711 23.9864C203.707 23.9824 203.702 23.9789 203.698 23.9747C203.694 23.9701 203.69 23.9648 203.687 23.96L201.649 21.7774C201.06 21.1574 201.1 20.1776 201.72 19.5977C201.975 19.2867 202.231 18.977 202.489 18.669L199.689 15.6583C196.202 11.9036 195.701 6.44511 198.089 2.24908L196.569 0.618224C195.999 0.00822353 196.039 -0.952401 196.649 -1.5224L197.594 -2.3974C193.196 -4.85917 188.127 -5.51137 183.22 -4.23236C178.04 -2.88237 173.76 0.438243 171.16 5.11822L166.781 12.9874C169.361 12.911 172.255 12.9877 173.7 12.9278C173.85 12.9209 173.99 12.9162 174.121 12.9141H174.142C176.103 12.8833 176.02 13.3971 176.02 14.6182C176.019 15.7408 175.13 17.1468 173.233 18.0303C172.911 18.1817 172.561 18.3207 172.18 18.4376C169.58 19.2476 165.25 19.4477 163.26 20.3477C162.98 20.4743 162.713 20.6135 162.455 20.7637L159.983 25.2081C160.619 24.5965 161.299 24.213 162.013 24.2042H162.032C162.29 24.2009 162.553 24.2462 162.819 24.3477H162.81L162.808 24.3497C162.955 24.3903 163.112 24.4692 163.26 24.5577C165.745 26.0747 165.809 28.8968 165.213 31.6319C165.218 31.6338 165.224 31.6358 165.229 31.6378C166.269 31.9977 166.93 32.9177 167.89 34.1876C169.44 36.2475 170.54 37.8978 172.399 41.0176C174.109 43.8976 174.719 45.4278 174.02 46.6378C173.32 47.8478 169.69 53.968 169.1 55.668C168.5 57.3681 167.189 61.188 166.189 66.0079C165.498 69.3384 164.373 70.3183 162.978 70.8047C162.591 70.942 162.183 71.0411 161.758 71.1397L164.52 84.9981C164.71 85.9379 164.96 86.8676 165.26 87.7774H165.289C167.519 87.0975 169.949 87.9977 171.209 89.9473C172.239 91.5373 172.469 93.5577 171.829 95.3477L171.169 97.1778L174.709 101.067C176.179 102.677 176.629 104.958 175.899 107.008L175.47 108.197C175.09 109.257 174.45 110.138 173.64 110.798C174.13 111.968 174.559 113.168 174.909 114.388C177.219 122.268 177.56 129.838 175.88 137.878L175.899 137.888L171.979 137.918C173.519 130.518 173.209 122.778 171.079 115.518C170.739 114.358 170.329 113.228 169.859 112.118C169.289 112.118 168.71 112.018 168.14 111.838C166.6 111.348 165.359 110.278 164.649 108.828C163.939 107.378 163.85 105.748 164.39 104.228L164.55 103.788C164.42 103.648 164.299 103.508 164.169 103.368L162.489 101.558C160.749 99.6877 159.689 97.2473 159.499 94.6973L159.439 93.8282C159.299 91.9782 160.119 90.2776 161.529 89.2276C161.149 88.1077 160.84 86.9573 160.6 85.7774L157.826 71.8633C157.298 71.9367 156.733 72.0124 156.15 72.087V72.088C156.13 72.4479 156.11 72.6583 156.11 72.6583C156.11 72.6677 156.1 72.8382 156.081 73.1485C155.997 74.5222 155.684 78.6321 154.71 83.5977C153.5 89.7277 151.999 90.9281 148.489 95.5381C147.899 96.2985 146.379 98.3488 144.229 101.198L144.242 101.167C144.235 101.177 144.227 101.188 144.22 101.198V101.237C137.54 110.127 124.99 126.908 116.48 138.348H79L113.46 97.0274L113.491 96.9883L113.47 97.0079L116.973 92.8067L121.35 87.5479L122.956 85.6299L124.56 83.7081C127.73 79.9081 129.75 75.318 130.43 70.418C131.82 60.308 134.3 43.2674 135.35 41.2374C135.35 41.2342 135.353 41.2149 135.39 41.1876C135.393 41.1812 135.396 41.1746 135.399 41.168L136.259 39.462C138.839 34.2895 145.055 21.68 146.709 20.6378C148.462 19.5366 158.399 14.9683 161.817 13.6817L167.669 3.15826C170.809 -2.48174 175.97 -6.49201 182.22 -8.12201ZM169.079 102.987H169.09C170.05 104.227 170.919 105.528 171.699 106.888C171.699 106.887 171.699 106.867 171.709 106.857L172.13 105.668C172.36 105.008 172.219 104.278 171.749 103.758L169.64 101.438L169.079 102.987ZM163.43 93.5479L163.489 94.418C163.609 96.0678 164.299 97.6378 165.419 98.8477L166.079 99.5577L166.609 98.0977C165.389 96.6877 164.33 95.1474 163.43 93.5274V93.5479ZM166.919 91.5674C167.299 92.2674 167.72 92.9477 168.18 93.5977C168.25 93.0977 168.139 92.5677 167.859 92.1378C167.649 91.8078 167.289 91.6074 166.919 91.5674ZM229.569 18.4278C229.571 18.4264 229.572 18.4243 229.573 18.4229C229.575 18.4211 229.578 18.4199 229.58 18.418L229.569 18.4278Z" fill="#1B90FF"/>
</g>
<path d="M185.88 153.435L181.96 153.465C183.5 146.065 183.19 138.325 181.06 131.065C180.72 129.905 180.31 128.775 179.84 127.665C179.27 127.665 178.69 127.565 178.12 127.385C176.58 126.895 175.34 125.825 174.63 124.375C173.92 122.925 173.83 121.295 174.37 119.775L174.53 119.335C174.4 119.195 174.28 119.055 174.15 118.915L172.47 117.105C170.73 115.235 169.67 112.795 169.48 110.245L169.42 109.375C169.28 107.525 170.1 105.825 171.51 104.775C171.13 103.655 170.82 102.505 170.58 101.325L167.74 87.0754L164.62 75.0654C162.9 68.4554 161.61 61.6754 160.77 54.9054C160.3 51.1054 161.26 47.3054 163.49 44.1854L177.65 18.7054C180.79 13.0654 185.95 9.05537 192.2 7.42537C198.44 5.79537 204.91 6.76537 210.41 10.1554L208.31 13.5554C203.75 10.7454 198.39 9.94537 193.21 11.2954C188.03 12.6454 183.75 15.9654 181.15 20.6454L166.8 46.4254C165.12 48.7354 164.39 51.5754 164.74 54.4054C165.55 61.0054 166.82 67.6154 168.49 74.0554L171.65 86.2354L174.5 100.545C174.69 101.485 174.94 102.415 175.24 103.325H175.27C177.5 102.645 179.93 103.545 181.19 105.495C182.22 107.085 182.45 109.105 181.81 110.895L181.15 112.725L184.69 116.615C186.16 118.225 186.61 120.505 185.88 122.555L185.45 123.745C185.07 124.805 184.43 125.685 183.62 126.345C184.11 127.515 184.54 128.715 184.89 129.935C187.2 137.815 187.54 145.385 185.86 153.425L185.88 153.435ZM179.07 118.535C180.03 119.775 180.9 121.075 181.68 122.435C181.68 122.435 181.68 122.415 181.69 122.405L182.11 121.215C182.34 120.555 182.2 119.825 181.73 119.305L179.62 116.985L179.06 118.535H179.07ZM173.41 109.065C173.41 109.065 173.41 109.085 173.41 109.095L173.47 109.965C173.59 111.615 174.28 113.185 175.4 114.395L176.06 115.105L176.59 113.645C175.37 112.235 174.31 110.695 173.41 109.075V109.065ZM176.9 107.115C177.28 107.815 177.7 108.495 178.16 109.145C178.23 108.645 178.12 108.115 177.84 107.685C177.63 107.355 177.27 107.155 176.9 107.115Z" fill="#00144A"/>
<path d="M184 62.1852C183.3 63.3952 179.67 69.5152 179.08 71.2152C178.48 72.9152 177.17 76.7352 176.17 81.5552C175.17 86.3752 173.26 86.2752 170.94 86.8752C170.14 87.0852 168.27 87.3552 166.16 87.6252C162.19 88.1152 157.4 88.5852 157.4 88.5852L152.29 78.7552L156.5 53.1552C156.5 53.1552 158.36 52.4152 160.81 51.4652C162.2 50.9252 163.78 50.3152 165.35 49.7252C167.93 48.7352 170.4 47.8352 171.76 47.4352C173.35 46.9452 174.4 46.8952 175.21 47.1852C176.25 47.5452 176.91 48.4652 177.87 49.7352C179.42 51.7952 180.52 53.4452 182.38 56.5652C184.09 59.4452 184.7 60.9752 184 62.1852Z" fill="#FFAB92"/>
<path d="M186 30.1657C186 31.4757 184.79 33.1757 182.18 33.9757C179.58 34.7857 175.25 34.9857 173.26 35.8857C171.67 36.5957 169.77 37.6857 167.95 38.8357C167.47 39.1357 166.99 39.4357 166.53 39.7457C165.38 40.4957 164.79 41.0557 164.32 41.7757C163.88 42.4657 163.56 43.3157 163.01 44.6257C162.61 45.5857 161.74 48.3357 160.79 51.4757C160.11 53.7357 159.39 56.1757 158.77 58.3057C157.85 61.5757 157.16 64.0857 157.28 64.0157C157.32 63.9757 157.49 63.7357 157.77 63.2857C157.81 63.2357 157.83 63.1757 157.87 63.1257C157.94 63.0057 158.03 62.8557 158.12 62.7057C158.22 62.5657 158.3 62.4257 158.4 62.2657C158.67 61.8357 158.97 61.3257 159.29 60.7757C159.38 60.6357 159.45 60.5057 159.54 60.3557C159.89 59.7757 160.23 59.1757 160.6 58.5357C160.67 58.4157 160.75 58.2657 160.82 58.1257L161.03 57.7657L161.15 57.5657C161.27 57.3657 161.38 57.1457 161.51 56.9457C161.79 56.4257 162.1 55.9057 162.37 55.3957C162.6 54.9657 162.84 54.5457 163.06 54.1257C163.23 53.8257 163.39 53.5357 163.55 53.2357C163.75 52.8557 163.96 52.4857 164.14 52.1157C164.41 51.5957 164.65 51.1257 164.85 50.7157C164.89 50.6657 164.91 50.6057 164.94 50.5557C165.09 50.2557 165.21 49.9857 165.32 49.7457C165.38 49.6257 165.43 49.4857 165.48 49.3757C165.53 49.2557 165.58 49.1557 165.6 49.0557C166.56 46.4657 169.36 38.6157 172.77 39.9157C172.92 39.9557 173.08 40.0357 173.23 40.1257C175.72 41.6457 175.78 44.4757 175.18 47.2157C174.91 48.4557 174.5 49.6957 174.13 50.7657C173.9 51.4157 173.56 52.2357 173.18 53.1857C171.52 57.2257 168.73 63.4157 167.99 66.8257C167.58 68.7457 167.15 73.3557 166.81 77.8057C166.46 82.0557 166.22 86.1757 166.13 87.6357C166.11 87.9957 166.09 88.2057 166.09 88.2057C166.09 88.2057 165.89 93.0257 164.68 99.1457C163.47 105.276 161.97 106.476 158.46 111.086C157.87 111.846 156.35 113.896 154.2 116.746V116.786C147.52 125.676 134.97 142.456 126.46 153.896H88.9805L123.44 112.576L131.33 103.096L134.54 99.2657C137.71 95.4657 139.73 90.8757 140.41 85.9757C141.8 75.8657 144.28 58.8257 145.33 56.7957C145.33 56.7957 145.33 56.7757 145.37 56.7457C145.37 56.7457 145.39 56.7057 145.41 56.6957C146.68 54.2057 151.77 43.6957 154.8 38.7357C155.64 37.3957 156.29 36.4657 156.7 36.2057C157.61 35.6257 160.84 34.0757 164.17 32.5557C167.71 30.9257 171.37 29.3357 172.56 28.9857C173.02 28.8457 173.63 28.7557 174.36 28.6757C177.26 28.3957 181.77 28.5557 183.7 28.4757C186.1 28.3657 186 28.8657 186 30.1757V30.1657Z" fill="#FFAB92"/>
<path d="M163.41 45.2257C163.02 46.1857 161.73 48.3157 160.79 51.4657C162.18 50.9257 163.76 50.3157 165.33 49.7257C165.45 49.4557 165.54 49.2157 165.61 49.0357C166.57 46.4457 169.37 38.5957 172.78 39.8957C172.93 39.9357 173.09 40.0157 173.24 40.1057C175.73 41.6257 175.79 44.4557 175.19 47.1957C176.22 47.5557 176.89 48.4757 177.85 49.7457C179.4 51.8057 180.5 53.4557 182.36 56.5757C184.07 59.4557 184.68 60.9857 183.97 62.1957C183.27 63.4057 179.64 69.5257 179.05 71.2257C178.45 72.9257 177.14 76.7457 176.14 81.5657C175.14 86.3857 173.23 86.2857 170.91 86.8857C170.11 87.0957 168.24 87.3657 166.13 87.6357C166.11 87.9957 166.09 88.2057 166.09 88.2057C166.09 88.2057 165.89 93.0257 164.69 99.1457C163.48 105.276 161.98 106.476 158.47 111.086C157.88 111.846 156.36 113.896 154.21 116.746L156.24 112.076C159.61 104.336 158.75 95.4057 154 88.4357L147.05 78.2557L146.58 85.7657C146.27 90.5957 144 95.1057 140.32 98.2457L123.45 112.556L134.54 99.2557C137.71 95.4557 139.73 90.8657 140.41 85.9657C141.8 75.8557 144.28 58.8157 145.33 56.7857C145.33 56.7857 145.33 56.7657 145.37 56.7357C146.94 53.6957 154.79 37.3957 156.68 36.2057C158.59 35.0057 170.22 29.6857 172.54 28.9857C173 28.8457 173.61 28.7557 174.34 28.6757C177.24 28.3957 181.75 28.5557 183.68 28.4757C186.08 28.3657 185.98 28.8657 185.98 30.1757C185.98 31.4857 184.77 33.1857 182.16 33.9857C179.56 34.7957 175.23 34.9957 173.24 35.8957C171.23 36.8057 169.88 38.3857 167.68 39.8157C165.47 41.2657 165.26 41.9957 164.17 44.6957L163.42 45.2257H163.41Z" fill="#FF7F4C"/>
<path d="M165.93 78.2457L171.55 75.4357C171.55 75.4357 171.25 73.3257 171.55 71.3157C171.85 69.3057 175.76 64.2957 176.47 63.0857C177.17 61.8757 178.27 60.7857 176.91 58.5657C175.56 56.3457 172.61 52.3457 172.61 52.3457L168.05 63.9957L165.92 78.2457V78.2657H165.93V78.2457Z" fill="#A93E00"/>
<path d="M172.79 39.8961C171.85 41.9161 168.65 48.8561 165.62 55.5561C162.01 63.5261 155.07 72.6361 152.9 74.9761C150.72 77.3161 153.63 70.3661 157.78 63.2661C157.82 63.2161 157.84 63.1561 157.88 63.1061C159.65 60.2461 164.78 51.3161 165.63 49.0361C166.59 46.4461 169.39 38.5961 172.8 39.8961H172.79Z" fill="#A93E00"/>
<path d="M175.96 70.2557C175.96 70.2557 177.07 71.3157 176.66 73.7657C176.66 73.7657 179.63 69.5957 180.48 68.2457C181.33 66.8857 180.58 64.0757 179.08 65.8257C177.58 67.5757 175.96 70.2357 175.96 70.2357V70.2557Z" fill="#A93E00"/>
<path d="M168.06 47.2254C168.06 47.2254 171.24 48.0754 172.74 49.0254C172.74 49.0254 173.95 45.4154 174.14 44.2554C174.34 43.1054 174.78 41.6154 172.99 40.9354C171.74 40.4254 170.49 41.1954 169.48 43.3954C168.37 46.0054 168.05 47.2154 168.05 47.2154L168.06 47.2254Z" fill="#A93E00"/>
<path d="M174.35 28.6553C174.35 28.6553 159.79 37.0253 157.96 38.6953C156.57 39.9753 146.01 55.7253 145.38 56.7153C146.95 53.6753 154.8 37.3753 156.69 36.1853C158.6 34.9853 170.23 29.6653 172.55 28.9653C173.01 28.8253 173.62 28.7353 174.35 28.6553Z" fill="#A93E00"/>
<path d="M192.2 7.43562C185.95 9.06562 180.79 13.0756 177.65 18.7156L169.64 33.1356L163.49 44.1956C161.27 47.3156 160.3 51.1156 160.77 54.9156C160.88 55.7956 161.02 56.6756 161.14 57.5656C162.57 55.0456 164.06 52.3556 164.94 50.5656C165.35 49.7556 165.91 48.6356 166.37 47.1056C167.19 45.0356 168.43 42.3156 169.92 40.8356L181.14 20.6656C183.74 15.9856 188.02 12.6656 193.2 11.3156C198.38 9.96562 203.74 10.7656 208.3 13.5756L211.21 10.4156C205.71 7.02562 198.44 5.81562 192.19 7.44562L192.2 7.43562Z" fill="#00144A"/>
<path d="M167.28 69.1055L169.16 76.6255L165.93 78.2455L167.28 69.1055Z" fill="#00144A"/>
<path d="M212.57 34.3458L231.77 16.5858L228.87 13.4658C224.56 8.83583 217.33 8.52583 212.73 12.7758L210.21 15.1058C205.61 19.3558 205.37 26.5758 209.67 31.2058L212.57 34.3258V34.3458Z" fill="#046C7C"/>
<path d="M236.57 19.4159L215.33 39.0559C214.71 39.6359 213.74 39.5859 213.74 39.5859L211.63 37.3259C211.04 36.7059 211.08 35.7259 211.7 35.1459C217.77 27.7359 224.83 21.1859 232.68 15.6959L232.94 15.5159C233.56 14.9359 234.54 14.9859 235.12 15.6059L237.12 17.7659C237.12 18.2059 237.19 18.8459 236.57 19.4259V19.4159Z" fill="#0899A7"/>
<path d="M215.92 11.0155L208.31 18.0555L206.55 16.1655C205.98 15.5555 206.02 14.5955 206.63 14.0255L212.02 9.03548C212.63 8.46548 213.59 8.50548 214.15 9.11548L215.92 11.0155Z" fill="#046C7C"/>
<path d="M226.943 30.291C233.415 24.2746 237.97 18.653 237.116 17.7348C236.262 16.8166 230.324 20.9494 223.852 26.9658C217.38 32.9822 212.825 38.6037 213.678 39.522C214.532 40.4402 220.471 36.3074 226.943 30.291Z" fill="#046C7C"/>
<path d="M229.32 43.2653C230.17 42.4853 230.21 41.1653 229.41 40.3153L221.84 32.1553C220.58 32.7653 219.53 33.7253 218.82 34.9253L218.79 34.9753L226.36 43.1353C227.15 43.9853 228.47 44.0353 229.32 43.2553V43.2653Z" fill="#FFDF72"/>
<path d="M239.55 33.9752C240.4 33.1952 240.44 31.8752 239.65 31.0252L232.08 22.8652C230.74 23.3552 229.65 24.3552 229.05 25.6452L229.03 25.6852L236.6 33.8452C237.39 34.6952 238.71 34.7452 239.56 33.9652L239.55 33.9752Z" fill="#FFDF72"/>
<path d="M232.07 22.8655C231.73 22.9855 231.4 23.1555 231.09 23.3355L240.11 33.0455C240.31 32.3555 240.16 31.5855 239.64 31.0155L232.07 22.8555V22.8655Z" fill="#FFF8D6"/>
<path d="M221.84 32.1555C221.61 32.2655 221.4 32.3955 221.19 32.5255L229.96 41.9555C230.02 41.3755 229.85 40.7655 229.41 40.3055L221.84 32.1455V32.1555Z" fill="#FFF8D6"/>
</svg>
