<svg width="320" height="240" viewBox="0 0 320 240" fill="none" xmlns="http://www.w3.org/2000/svg">
<mask id="mask0_2672_44778" style="mask-type:alpha" maskUnits="userSpaceOnUse" x="0" y="20" width="320" height="200">
<path d="M305.547 20H14.4533C12.5559 19.9983 10.6768 20.3705 8.92329 21.0954C7.16981 21.8203 5.57638 22.8836 4.23409 24.2247C2.8918 25.5657 1.82697 27.1582 1.10045 28.911C0.373942 30.6638 -8.08861e-07 32.5426 0 34.44V205.547C0 209.38 1.52275 213.056 4.23328 215.767C6.9438 218.477 10.6201 220 14.4533 220H305.547C309.38 220 313.056 218.477 315.767 215.767C318.477 213.056 320 209.38 320 205.547V34.44C320 32.5426 319.626 30.6638 318.9 28.911C318.173 27.1582 317.108 25.5657 315.766 24.2247C314.424 22.8836 312.83 21.8203 311.077 21.0954C309.323 20.3705 307.444 19.9983 305.547 20V20Z" fill="#EBF8FF"/>
</mask>
<g mask="url(#mask0_2672_44778)">
<path d="M305.547 20H14.4533C12.5559 19.9983 10.6768 20.3705 8.92329 21.0954C7.16981 21.8203 5.57638 22.8836 4.23409 24.2247C2.8918 25.5657 1.82697 27.1582 1.10045 28.911C0.373942 30.6638 -8.08861e-07 32.5426 0 34.44V205.547C0 209.38 1.52275 213.056 4.23328 215.767C6.9438 218.477 10.6201 220 14.4533 220H305.547C309.38 220 313.056 218.477 315.767 215.767C318.477 213.056 320 209.38 320 205.547V34.44C320 32.5426 319.626 30.6638 318.9 28.911C318.173 27.1582 317.108 25.5657 315.766 24.2247C314.424 22.8836 312.83 21.8203 311.077 21.0954C309.323 20.3705 307.444 19.9983 305.547 20V20Z" fill="#EBF8FF"/>
<path d="M-4.9541 35.9215C-4.9541 35.9215 -4.65883 8.65009 4.64337 -6.2776C13.9456 -21.2053 41.5077 -44 72.7776 -44C104.047 -44 121.996 -28.3152 121.996 -28.3152C121.996 -28.3152 157.728 2.5276 152.527 39.3942L153.036 149.451H-0.8526L-4.9541 35.9215Z" fill="#B8E6FF"/>
<path d="M168.72 164V87.3539C168.72 87.3539 193.051 60.3294 166.85 43.0482C162.572 41.1113 157.982 39.9575 153.299 39.6413C148.607 39.2294 143.915 40.4309 139.993 43.0482C129.067 50.8329 126.869 60.2141 126.869 63.3577V164H168.72Z" fill="#D1EFFF"/>
<path d="M128.066 81.1162H17.5882C7.75723 81.1162 -0.212402 89.1112 -0.212402 98.9735V104.586C-0.212402 114.448 7.75723 122.443 17.5882 122.443H128.066C137.897 122.443 145.867 114.448 145.867 104.586V98.9735C145.867 89.1112 137.897 81.1162 128.066 81.1162Z" fill="#D1EFFF"/>
<path d="M-20.7202 163.753V87.1564C-20.7202 87.1564 -45.0503 60.1154 -18.8499 42.8507C-14.5673 40.9062 -9.97221 39.7468 -5.28217 39.4273C-0.587979 39.0163 4.10562 40.2239 8.02319 42.8507C18.9496 50.619 21.148 60.0166 21.148 63.1437V163.753H-20.7202Z" fill="#D1EFFF"/>
<path d="M133.775 59.9836L133.595 59.7696C125.786 46.603 109.905 37.5181 91.5628 37.5181C73.9591 37.5181 58.6195 45.8459 50.5477 58.2061V42.1099C50.5477 41.848 50.444 41.5968 50.2594 41.4116C50.0748 41.2265 49.8244 41.1224 49.5633 41.1224L38.8831 48.792H38.2759C36.4287 47.9706 34.4226 47.5715 32.4026 47.6234C30.5483 47.5903 28.7049 47.9144 26.9723 48.578H26.6277L14.7826 41.1388C14.6519 41.1366 14.5221 41.1606 14.4008 41.2092C14.2794 41.2579 14.169 41.3303 14.0758 41.4222C13.9827 41.5141 13.9087 41.6238 13.8582 41.7446C13.8077 41.8655 13.7817 41.9953 13.7817 42.1264V62.3865C13.7817 67.8166 15.932 73.0243 19.7595 76.8639C23.5869 80.7036 28.778 82.8607 34.1908 82.8607H50.5149H130.609C130.748 84.1673 130.819 85.4803 130.822 86.7942C130.872 92.6405 129.473 98.4077 126.753 103.578C124.033 108.749 120.076 113.161 115.237 116.419L114.859 116.699C113.695 117.55 112.916 118.83 112.693 120.258C112.47 121.685 112.821 123.143 113.67 124.311C114.518 125.479 115.794 126.26 117.217 126.484C118.64 126.708 120.094 126.355 121.258 125.504L121.553 125.29C127.777 121.016 132.865 115.28 136.373 108.582C139.882 101.884 141.705 94.4266 141.683 86.86C141.656 77.3281 138.912 68.0027 133.775 59.9836Z" fill="#9EDDFF"/>
<path d="M246.934 154.895H200.542C198.025 154.895 195.983 156.933 195.983 159.447C195.983 161.962 198.025 164 200.542 164H246.934C249.452 164 251.494 161.962 251.494 159.447C251.494 156.933 249.452 154.895 246.934 154.895Z" fill="#B8E6FF"/>
<path d="M226.82 -38.9282H220.543V155.993H226.82V-38.9282Z" fill="#B8E6FF"/>
<path d="M282.677 129.364L291.99 131.306C292.723 131.459 293.365 131.895 293.774 132.518C294.184 133.141 294.328 133.9 294.174 134.628L290.269 153.123C290.115 153.852 289.676 154.489 289.049 154.896C288.422 155.303 287.659 155.446 286.926 155.293L277.612 153.351C276.741 153.17 275.978 152.652 275.492 151.911C275.005 151.171 274.835 150.269 275.017 149.404L278.701 131.959C278.789 131.528 278.963 131.12 279.211 130.756C279.459 130.393 279.777 130.081 280.146 129.84C280.515 129.599 280.929 129.433 281.363 129.351C281.798 129.27 282.244 129.274 282.677 129.364Z" fill="#64EDD2"/>
<path d="M284.736 129.792L282.21 129.266L277.145 153.253L279.671 153.779L284.736 129.792Z" fill="#00A58A"/>
<path d="M271.855 121.176L281.823 123.255C282.147 123.322 282.456 123.453 282.73 123.639C283.004 123.825 283.238 124.063 283.42 124.34C283.601 124.616 283.726 124.925 283.788 125.249C283.849 125.573 283.846 125.906 283.777 126.229L277.502 155.95C277.348 156.679 276.91 157.316 276.283 157.723C275.656 158.13 274.892 158.273 274.159 158.12L264.481 156.102C263.825 155.965 263.25 155.575 262.884 155.017C262.517 154.459 262.388 153.78 262.526 153.128L268.862 123.119C268.93 122.796 269.062 122.49 269.249 122.218C269.437 121.945 269.676 121.712 269.954 121.532C270.232 121.351 270.543 121.227 270.869 121.166C271.195 121.105 271.53 121.109 271.855 121.176V121.176Z" fill="#64EDD2"/>
<path d="M271.12 121.021L265.168 119.78C263.641 119.462 262.145 120.434 261.825 121.95L255.61 151.381C255.29 152.897 256.268 154.384 257.794 154.703L263.746 155.944C265.272 156.262 266.769 155.291 267.089 153.774L273.303 124.344C273.624 122.827 272.646 121.34 271.12 121.021Z" fill="#00A58A"/>
<path d="M267.335 129.708L265.118 129.245C264.793 129.177 264.474 129.384 264.406 129.707L263.578 133.629C263.51 133.952 263.718 134.269 264.043 134.337L266.26 134.799C266.585 134.867 266.903 134.66 266.972 134.337L267.8 130.415C267.868 130.092 267.66 129.775 267.335 129.708Z" fill="#00144A"/>
<path d="M264.858 141.437L262.641 140.974C262.316 140.906 261.997 141.113 261.929 141.436L261.101 145.358C261.033 145.681 261.241 145.998 261.566 146.066L263.783 146.528C264.108 146.596 264.426 146.389 264.495 146.066L265.323 142.144C265.391 141.821 265.183 141.504 264.858 141.437Z" fill="#00144A"/>
<path d="M270.742 202.442C262.69 202.442 256.681 199.868 253.818 195.18C251.652 191.635 251.247 186.664 252.712 181.538C254.127 176.586 257.03 172.232 260.648 169.572C270.483 162.356 287.028 161.32 304.328 179.587C307.938 172.193 308.872 163.941 306.092 157.359C305.095 154.972 301.165 147.01 292.944 144.871C292.646 144.794 292.39 144.602 292.234 144.337C292.078 144.072 292.034 143.757 292.112 143.46C292.19 143.163 292.384 142.909 292.65 142.754C292.916 142.599 293.234 142.556 293.532 142.633C302.786 145.043 307.128 153.833 308.237 156.467C311.426 164.059 310.124 173.632 305.653 181.987C305.618 182.074 305.573 182.157 305.52 182.234C302.355 188.041 297.654 193.233 291.865 196.702C285.886 200.287 278 202.433 270.785 202.442H270.742ZM275.532 167.014C270.666 166.993 265.926 168.545 262.026 171.437C255.183 176.454 252.061 187.836 255.808 193.985C258.233 197.947 263.534 200.132 270.755 200.132H270.805C277.615 200.132 285.049 198.102 290.686 194.722C295.93 191.582 300.229 186.951 303.195 181.759C295.887 173.87 288.002 168.938 280.385 167.482C278.786 167.173 277.161 167.016 275.532 167.014Z" fill="#00144A"/>
<path d="M209.091 115.063L229.594 119.339C230.543 119.536 231.373 120.1 231.903 120.907C232.433 121.713 232.619 122.695 232.42 123.638C232.221 124.58 231.653 125.406 230.842 125.932C230.031 126.459 229.042 126.644 228.094 126.446L207.59 122.171L209.091 115.063Z" fill="#F58B00"/>
<path d="M205.897 130.913L226.407 135.189C227.356 135.387 228.186 135.951 228.716 136.757C229.246 137.563 229.432 138.546 229.233 139.488C229.034 140.431 228.466 141.256 227.655 141.783C226.844 142.309 225.855 142.494 224.907 142.296L204.397 138.02L205.897 130.913Z" fill="#F58B00"/>
<path d="M197.393 100.579L213.885 104.017C214.362 104.117 214.815 104.309 215.218 104.582C215.62 104.856 215.965 105.205 216.231 105.611C216.498 106.017 216.682 106.471 216.772 106.947C216.862 107.423 216.857 107.913 216.757 108.387L208.585 147.089C208.383 148.047 207.806 148.886 206.981 149.421C206.157 149.956 205.152 150.144 204.188 149.943L187.696 146.504L197.393 100.579Z" fill="#64EDD2"/>
<path d="M200.722 101.269L193.473 99.7578C191.466 99.3393 189.497 100.617 189.076 102.612L180.903 141.317C180.482 143.312 181.768 145.268 183.775 145.687L191.025 147.198C193.032 147.617 195.001 146.339 195.422 144.344L203.594 105.639C204.015 103.644 202.73 101.688 200.722 101.269Z" fill="#00A58A"/>
<path d="M193.875 108.08L182.344 105.675C180.337 105.257 178.368 106.535 177.947 108.529L172.9 132.432C172.479 134.427 173.765 136.383 175.772 136.802L187.303 139.206C189.31 139.625 191.279 138.347 191.7 136.352L196.747 112.449C197.168 110.454 195.882 108.498 193.875 108.08Z" fill="#64EDD2"/>
<path d="M179.592 105.102L176.461 104.449C174.454 104.031 172.485 105.308 172.064 107.303L167.017 131.206C166.596 133.201 167.882 135.157 169.889 135.576L173.02 136.228C175.027 136.647 176.996 135.369 177.417 133.375L182.464 109.472C182.885 107.477 181.599 105.521 179.592 105.102Z" fill="#00A58A"/>
<path d="M236.004 220C235.727 219.996 235.46 219.895 235.251 219.713C235.042 219.531 234.906 219.281 234.866 219.009C234.826 218.736 234.885 218.458 235.033 218.224C235.18 217.991 235.407 217.818 235.672 217.736C254.964 211.942 265.604 197.078 263.441 186.829C262.591 182.799 259.644 179.138 254.924 176.24C246.344 170.958 233.383 169.116 223.408 171.724C217.396 173.295 214.313 176.032 211.331 178.679C208.348 181.327 205.205 184.122 199.372 185.38C190.59 187.271 180.107 184.901 170.59 178.877C160.924 172.754 153.733 163.693 150.856 153.982C147.906 144.026 147.275 125.98 158.164 119.936C163.894 116.754 170.454 117.929 173.859 118.916C174.155 119.004 174.403 119.205 174.551 119.475C174.698 119.744 174.731 120.061 174.643 120.355C174.554 120.65 174.352 120.897 174.081 121.043C173.809 121.189 173.49 121.222 173.194 121.134C170.128 120.25 164.256 119.18 159.273 121.953C153.998 124.884 152.181 131.133 151.587 135.857C150.928 141.721 151.433 147.657 153.071 153.328C155.789 162.498 162.625 171.1 171.822 176.93C180.821 182.627 190.676 184.888 198.861 183.122C204.103 181.993 206.856 179.547 209.773 176.956C212.812 174.259 216.253 171.203 222.807 169.489C233.35 166.733 247.055 168.701 256.137 174.273C261.412 177.511 264.72 181.69 265.707 186.357C266.932 192.167 264.654 199.076 259.455 205.321C253.954 211.923 245.743 217.122 236.336 219.95C236.228 219.982 236.117 219.999 236.004 220V220Z" fill="#00144A"/>
<path d="M269.007 62.0874L244.117 83.3547C244.07 83.3966 244.036 83.4503 244.016 83.5103C243.997 83.5702 243.995 83.6342 244.009 83.6956C244.023 83.7569 244.053 83.8133 244.096 83.8589C244.139 83.9045 244.194 83.9376 244.254 83.9547L256.708 87.3172C256.758 87.3305 256.804 87.3547 256.843 87.3881C256.882 87.4216 256.914 87.4633 256.935 87.5105C256.956 87.5576 256.966 87.6088 256.965 87.6605C256.964 87.7122 256.952 87.7629 256.929 87.8092L248.199 105.492C248.162 105.564 248.151 105.646 248.168 105.726C248.185 105.805 248.229 105.875 248.292 105.925C248.355 105.975 248.434 106.002 248.514 106C248.595 105.998 248.672 105.968 248.733 105.915L273.879 84.7076C273.927 84.6664 273.963 84.613 273.982 84.553C274.002 84.493 274.005 84.4287 273.992 84.367C273.978 84.3053 273.948 84.2486 273.904 84.2029C273.861 84.1572 273.806 84.1243 273.745 84.1076L261.091 80.7751C261.041 80.7613 260.995 80.7367 260.956 80.7031C260.917 80.6694 260.885 80.6275 260.864 80.5803C260.843 80.533 260.832 80.4817 260.832 80.4298C260.833 80.378 260.845 80.3269 260.867 80.2801L269.544 62.5074C269.581 62.4352 269.592 62.3523 269.574 62.2731C269.557 62.1938 269.512 62.1231 269.449 62.0733C269.385 62.0235 269.306 61.9976 269.225 62.0002C269.145 62.0028 269.067 62.0336 269.007 62.0874Z" fill="#F58B00"/>
</g>
</svg>
