<svg width="321" height="240" viewBox="0 0 321 240" fill="none" xmlns="http://www.w3.org/2000/svg">
<path d="M305.711 19.3652H14.6174C12.72 19.3635 10.8408 19.7357 9.08735 20.4606C7.33387 21.1855 5.74044 22.2489 4.39815 23.5899C3.05586 24.931 1.99103 26.5234 1.26452 28.2762C0.538005 30.029 0.164062 31.9078 0.164063 33.8052V204.912C0.164063 208.745 1.68681 212.421 4.39734 215.132C7.10786 217.842 10.7841 219.365 14.6174 219.365H305.711C309.544 219.365 313.22 217.842 315.931 215.132C318.641 212.421 320.164 208.745 320.164 204.912V33.8052C320.164 31.9078 319.79 30.029 319.064 28.2762C318.337 26.5234 317.272 24.931 315.93 23.5899C314.588 22.2489 312.994 21.1855 311.241 20.4606C309.487 19.7357 307.608 19.3635 305.711 19.3652Z" fill="#223548"/>
<path d="M172.222 236.899L57.9081 167.585C102.585 162.688 104.967 132.256 104.967 132.256L234.507 176.635C234.507 176.635 209.126 235.905 172.222 236.899Z" fill="#2A4259"/>
<path d="M270.317 158.173L144.225 121.412C135.925 131.606 105.65 132.422 105.65 132.422L234.307 177.053C234.307 177.053 258.697 169.454 270.317 158.173Z" fill="#324E6B"/>
<path d="M292.935 107.994L270.317 158.172L144.036 120.748L166.62 83.839L292.935 107.994Z" fill="#2A4259"/>
<path d="M293.322 108.241L168.186 83.75L196.433 77.8378L317.301 98.5297L293.322 108.241Z" fill="#324E6B"/>
<path d="M224.168 154.59C201.909 193 156.486 210.645 127.434 198.603C114.033 193.048 101.239 186.792 94.1924 180.012C75.8598 162.375 80.9342 139.18 99.9638 100.556C119.584 60.7333 156.17 32.3221 184.485 40.6473C231.893 54.5858 247.376 114.543 224.168 154.59Z" fill="#1782FF"/>
<path fill-rule="evenodd" clip-rule="evenodd" d="M173.351 43.916C181.306 45.5517 192.139 39.6248 196.391 28.3243C200.643 17.0239 195.506 7.81274 187.551 6.17704C179.597 4.54135 168.763 10.4683 164.511 21.7687C160.259 33.0691 165.397 42.2803 173.351 43.916ZM171.245 49.5146C183.284 51.9904 197.166 43.0426 202.251 29.5292C207.335 16.0158 201.697 3.0541 189.658 0.578386C177.618 -1.89733 163.736 7.05046 158.652 20.5638C153.567 34.0772 159.205 47.0389 171.245 49.5146Z" fill="white"/>
<path d="M183.514 42.4546C180.063 44.0267 176.479 44.5574 173.343 43.9125L174.869 47.1732C178.004 48.199 181.363 48.4227 184.728 47.9527C192.291 44.7938 199.026 38.073 202.243 29.5257C202.476 28.9048 202.687 28.2851 202.876 27.6675C202.684 28.0987 202.477 28.532 202.254 28.967C198.04 37.1933 190.351 41.8543 183.514 42.4546Z" fill="#688FB7"/>
<path fill-rule="evenodd" clip-rule="evenodd" d="M187.265 36.108C187.298 36.0098 187.326 35.9095 187.347 35.8072C187.916 33.0417 183.619 29.8216 177.75 28.6148C171.882 27.408 166.663 28.6715 166.094 31.437C166.073 31.5393 166.059 31.6423 166.051 31.7458L166.032 31.7418L163.407 44.5052L184.66 48.8754L187.284 36.112L187.265 36.108Z" fill="white"/>
<path fill-rule="evenodd" clip-rule="evenodd" d="M176.108 47.1186L179.806 29.1387C184.586 30.5961 187.844 33.3778 187.345 35.8083C187.324 35.9106 187.296 36.011 187.263 36.1092L187.282 36.1132L184.657 48.8765L176.108 47.1186Z" fill="#688FB7"/>
<path fill-rule="evenodd" clip-rule="evenodd" d="M196.181 12.8549C194.364 9.35034 191.266 6.93781 187.554 6.17459C179.6 4.53889 168.766 10.4658 164.514 21.7662C163.059 25.6321 162.703 29.2535 163.184 32.4108C159.697 24.5132 164.21 11.3657 174.807 5.48007C186.333 -0.921557 194.206 5.29113 196.181 12.8549Z" fill="#688FB7"/>
<path fill-rule="evenodd" clip-rule="evenodd" d="M91.5947 118.774L111.905 97.2891L201.096 181.606C177.93 200.514 148.413 207.299 127.433 198.603C114.033 193.048 101.239 186.792 94.1922 180.012C78.9414 165.34 79.8894 146.821 91.5947 118.774Z" fill="#0070F3"/>
<ellipse cx="144.599" cy="112.853" rx="67.4393" ry="83.1736" transform="rotate(39.6076 144.599 112.853)" fill="#4098FF"/>
<ellipse cx="142.699" cy="110.272" rx="53.8366" ry="71.6682" transform="rotate(39.6076 142.699 110.272)" fill="#0070F3"/>
<path fill-rule="evenodd" clip-rule="evenodd" d="M103.952 170.124C127.211 182.471 161.344 172.188 184.181 144.59C209.146 114.421 211.259 74.8637 189.12 55.6673C165.862 43.3208 131.728 53.6037 108.891 81.2016C83.9266 111.37 81.8137 150.928 103.952 170.124Z" fill="#688FB7"/>
<path fill-rule="evenodd" clip-rule="evenodd" d="M103.776 170.031C127.038 182.523 161.286 172.258 184.181 144.59C206.025 118.193 210.373 84.6071 196.288 63.763C173.026 51.2711 138.778 61.5362 115.883 89.2036C94.0395 115.601 89.6912 149.187 103.776 170.031Z" fill="#CEDBE8"/>
<path fill-rule="evenodd" clip-rule="evenodd" d="M168.5 50.6486C169.57 50.9247 170.213 52.0155 169.937 53.085L167.17 63.8041C166.894 64.8736 165.803 65.5169 164.734 65.2408C163.664 64.9648 163.021 63.874 163.297 62.8045L166.064 52.0853C166.34 51.0158 167.43 50.3726 168.5 50.6486Z" fill="#688FB7"/>
<path fill-rule="evenodd" clip-rule="evenodd" d="M130.83 157.51C131.886 157.836 132.477 158.955 132.152 160.011L127.807 174.091C127.481 175.147 126.362 175.738 125.306 175.413C124.251 175.087 123.659 173.967 123.985 172.912L128.329 158.831C128.655 157.776 129.775 157.184 130.83 157.51Z" fill="#688FB7"/>
<path fill-rule="evenodd" clip-rule="evenodd" d="M107.917 108.384C107.751 109.476 106.731 110.227 105.639 110.061L94.9959 108.444C93.9039 108.278 93.1531 107.258 93.319 106.166C93.4849 105.074 94.5046 104.324 95.5967 104.489L106.24 106.106C107.332 106.272 108.082 107.292 107.917 108.384Z" fill="#688FB7"/>
<path fill-rule="evenodd" clip-rule="evenodd" d="M198.18 120.103C198.014 121.195 196.995 121.946 195.903 121.78L185.26 120.163C184.168 119.997 183.417 118.977 183.583 117.885C183.749 116.793 184.768 116.042 185.86 116.208L196.503 117.825C197.595 117.991 198.346 119.011 198.18 120.103Z" fill="#688FB7"/>
<path d="M191.88 79.7014L140.058 101.995C139.914 102.057 139.787 102.152 139.686 102.272L101.634 147.749C100.967 148.545 101.807 149.704 102.771 149.32L154.875 128.536C155.035 128.472 155.176 128.368 155.284 128.234L193.055 81.2465C193.708 80.4341 192.838 79.2895 191.88 79.7014Z" fill="white"/>
<path d="M192.495 74.0302L136.76 98.0074L96.0123 146.705L152.04 124.356L192.495 74.0302Z" fill="#F58B00"/>
<path fill-rule="evenodd" clip-rule="evenodd" d="M152.073 124.316L192.495 74.03L136.76 98.0072L136.387 98.4533L152.073 124.316Z" fill="#64EDD2"/>
<path fill-rule="evenodd" clip-rule="evenodd" d="M97.1361 145.363L96.0119 146.707L152.04 124.358L191.957 74.7011L97.1361 145.363Z" fill="#CC7400"/>
<path fill-rule="evenodd" clip-rule="evenodd" d="M143.762 110.615L152.072 124.315L191.956 74.6996L143.762 110.615Z" fill="#00A58A"/>
<ellipse cx="143.648" cy="111.17" rx="4.46933" ry="5.66109" transform="rotate(56.0862 143.648 111.17)" fill="#688FB7"/>
<path d="M89.2389 92.6313L94.7572 64.588L13.4819 8.33451L89.2389 92.6313Z" fill="#324E6B"/>
<path d="M89.2393 92.6315L83.9692 71.2625L33.3837 39.1342L89.2393 92.6315Z" fill="#3B5B7C"/>
<path d="M94.2548 65.276L126.222 54.4584L13.4822 8.33479L94.2548 65.276Z" fill="#2A4259"/>
<path d="M13.858 8.39922L83.9692 71.2634L35.9382 94.817L13.858 8.39922Z" fill="#2A4259"/>
<path d="M290.874 58.3044C290.874 56.9461 286.931 55.8589 281.663 55.6119C281.362 50.3506 280.202 46.4384 278.844 46.4414C277.485 46.4444 276.356 50.3867 276.067 55.6752C270.784 56.0366 266.856 57.2172 266.874 58.5784C266.892 59.9397 270.817 61.0269 276.085 61.2709C276.401 66.5323 277.546 70.4444 278.901 70.4414C280.257 70.4384 281.392 66.4961 281.681 61.2076C286.964 60.8462 290.889 59.6657 290.874 58.3044Z" fill="#2A4259"/>
<path d="M44.1972 152.464C44.1972 151.328 40.8978 150.418 36.4893 150.211C36.2373 145.808 35.2669 142.535 34.1301 142.537C32.9933 142.54 32.0481 145.839 31.8061 150.264C27.385 150.567 24.0982 151.555 24.1133 152.694C24.1285 153.833 27.4128 154.743 31.8212 154.947C32.0859 159.35 33.0437 162.624 34.178 162.621C35.3122 162.619 36.2625 159.32 36.5045 154.894C40.9255 154.592 44.2098 153.604 44.1972 152.464Z" fill="#2A4259"/>
</svg>
