<svg width="321" height="240" viewBox="0 0 321 240" fill="none" xmlns="http://www.w3.org/2000/svg">
<path d="M305.711 20.0059H14.6174C12.72 20.0041 10.8408 20.3763 9.08735 21.1012C7.33387 21.8261 5.74044 22.8895 4.39815 24.2305C3.05586 25.5716 1.99103 27.164 1.26452 28.9168C0.538005 30.6696 0.164062 32.5485 0.164063 34.4459V205.553C0.164063 209.386 1.68681 213.062 4.39734 215.773C7.10786 218.483 10.7841 220.006 14.6174 220.006H305.711C309.544 220.006 313.22 218.483 315.931 215.773C318.641 213.062 320.164 209.386 320.164 205.553V34.4459C320.164 32.5485 319.79 30.6696 319.064 28.9168C318.337 27.164 317.272 25.5716 315.93 24.2305C314.588 22.8895 312.994 21.8261 311.241 21.1012C309.487 20.3763 307.608 20.0041 305.711 20.0059Z" fill="#EBF8FF"/>
<path d="M30.261 95.7601C28.3245 89.9758 31.9731 83.8204 37.977 82.7428L202.691 53.1775C207.576 52.3007 212.365 55.1393 213.941 59.8456L245.865 155.204C247.801 160.988 244.153 167.144 238.149 168.221L73.4347 197.787C68.5497 198.663 63.7609 195.825 62.1853 191.119L30.261 95.7601Z" fill="#004DA5"/>
<path d="M34.1013 81.398L30.8706 88.2052L38.4326 86.5434L34.1013 81.398Z" fill="#004DA5"/>
<path d="M245.371 157.423L245.307 162.838L247.843 157.423L245.371 157.423Z" fill="#004DA5"/>
<path d="M33.4148 89.43C31.4783 83.6457 35.1269 77.4903 41.1308 76.4127L205.845 46.8475C210.73 45.9706 215.519 48.8092 217.094 53.5155L249.019 148.874C250.955 154.658 247.307 160.814 241.303 161.891L76.5885 191.457C71.7035 192.333 66.9147 189.495 65.3391 184.789L33.4148 89.43Z" fill="#0070F2"/>
<path d="M33.4207 89.4478C31.4822 83.6574 35.1405 77.4968 41.1525 76.4276L205.953 47.1192C210.833 46.2513 215.613 49.0896 217.186 53.7901L222.396 69.3518L37.69 102.2L33.4207 89.4478Z" fill="#005DC9"/>
<path d="M54.4988 113.772C53.7242 111.459 55.1838 108.996 57.5855 108.565L209.627 81.2864C211.581 80.9358 213.497 82.0712 214.127 83.9536L235.145 146.735C235.92 149.049 234.46 151.512 232.058 151.942L80.0165 179.221C78.0626 179.572 76.1472 178.437 75.517 176.554L54.4988 113.772Z" fill="#005DC9"/>
<path d="M57.3397 109.657C56.565 107.343 58.0246 104.881 60.4263 104.45L212.468 77.1711C214.422 76.8206 216.337 77.956 216.968 79.8384L237.986 142.62C238.761 144.934 237.301 147.396 234.899 147.827L82.8573 175.106C80.9034 175.457 78.9881 174.321 78.3579 172.439L57.3397 109.657Z" fill="white"/>
<circle cx="49.2017" cy="87.2039" r="4.5" transform="rotate(-18.5096 49.2017 87.2039)" fill="#9EDDFF"/>
<circle cx="66.2734" cy="84.3464" r="4.5" transform="rotate(-18.5096 66.2734 84.3464)" fill="#9EDDFF"/>
<circle cx="83.3477" cy="81.2097" r="4.5" transform="rotate(-18.5096 83.3477 81.2097)" fill="#9EDDFF"/>
<path d="M72.9904 118.229C72.3674 116.49 73.4484 114.607 75.264 114.268L177.214 95.232C178.662 94.9616 180.092 95.7824 180.589 97.1691L181.237 98.9762C181.86 100.715 180.779 102.598 178.963 102.937L77.0128 121.973C75.5648 122.243 74.1348 121.423 73.638 120.036L72.9904 118.229Z" fill="#D5DADD"/>
<path d="M78.6721 133.133C78.0491 131.394 79.1301 129.511 80.9456 129.172L182.896 110.136C184.344 109.866 185.774 110.687 186.271 112.073L186.918 113.881C187.541 115.619 186.46 117.502 184.645 117.841L82.6944 136.877C81.2465 137.148 79.8164 136.327 79.3196 134.94L78.6721 133.133Z" fill="#D5DADD"/>
<path d="M83.7654 149.352C83.1446 147.619 84.2161 145.741 86.0236 145.394L130.66 136.819C132.113 136.54 133.552 137.361 134.05 138.753L134.7 140.565C135.321 142.298 134.249 144.176 132.441 144.523L87.8048 153.098C86.3525 153.377 84.9135 152.556 84.4147 151.164L83.7654 149.352Z" fill="#D5DADD"/>
<path d="M201.656 90.8492C199.368 78.9778 207.9 73.5155 221.028 65.2905C221.718 64.8609 222.627 65.2361 222.797 66.0155L227.846 73.7868C229.333 76.4166 232.741 75.1306 233.154 74.0282L243.97 43.855C244.278 43.0369 243.639 42.2003 242.77 42.2917L207.947 41.4122C206.772 41.5255 205.577 43.3174 206.616 43.855L212.092 51.6237C212.808 51.9857 212.936 52.9444 212.354 53.5065C200.986 64.3224 185.362 69.414 191.241 87.1513C193.811 94.9253 200.364 99.2829 208.624 103.743C209.845 104.407 210.5 102.609 209.861 101.383C208.415 98.6294 202.193 93.5724 201.663 90.8592L201.656 90.8492Z" fill="#CC7400"/>
<path d="M206.196 89.9613C204.024 78.6952 212.121 73.5114 224.58 65.7058C225.236 65.2981 226.098 65.6542 226.259 66.3938L231.05 73.7689C231.293 74.8491 233.264 74.391 233.656 73.3448L243.982 44.0152C244.275 43.2388 243.668 42.4448 242.843 42.5316L212.167 43.0451C211.051 43.1526 209.917 44.8531 210.903 45.3633L216.1 52.7358C216.779 53.0795 216.901 53.9892 216.349 54.5227C205.56 64.7871 190.733 69.6191 196.312 86.4519C198.751 93.8296 201.14 99.2506 208.979 103.483C210.138 104.114 210.759 102.407 210.153 101.243C208.78 98.6304 206.706 92.5456 206.203 89.9708L206.196 89.9613Z" fill="#F58B00"/>
<path d="M268.952 8.5568C269.132 8.99654 269.189 9.47646 269.118 9.94607C269.048 10.4157 268.852 10.8576 268.552 11.2253L261.633 20.1579C260.489 21.6358 258.653 21.4854 257.494 20.5888C257.007 20.2391 256.646 19.7407 256.467 19.1684C256.287 18.5962 256.298 17.981 256.497 17.4154C256.602 17.145 256.747 16.8919 256.927 16.6649L263.846 7.73231C264.142 7.33418 264.54 7.02334 264.997 6.83268C265.455 6.64202 265.956 6.57863 266.446 6.64923C266.992 6.72747 267.508 6.94375 267.947 7.27758C268.386 7.61142 268.732 8.05174 268.952 8.5568Z" fill="#A9B4BE"/>
<path d="M288.404 66.7809C288.349 67.1164 288.226 67.437 288.041 67.7222C287.856 68.0073 287.614 68.2508 287.33 68.4371C287.046 68.6234 286.726 68.7483 286.39 68.804C286.055 68.8596 285.712 68.8448 285.383 68.7603L274.608 66.5168C274.221 66.4349 273.854 66.2766 273.529 66.0512C273.203 65.8258 272.926 65.5379 272.713 65.2043C272.501 64.8706 272.356 64.4979 272.289 64.1079C272.222 63.7179 272.233 63.3185 272.322 62.9328C272.354 62.7728 272.4 62.6157 272.458 62.4631C272.664 61.8961 273.074 61.4267 273.609 61.1476C274.144 60.8685 274.764 60.7999 275.347 60.9553L286.116 63.2005C286.503 63.2818 286.87 63.4394 287.196 63.6643C287.521 63.8892 287.799 64.1768 288.012 64.5102C288.225 64.8436 288.369 65.2161 288.436 65.606C288.504 65.9959 288.492 66.3954 288.404 66.7809Z" fill="#A9B4BE"/>
<path d="M288.581 35.9076C288.429 36.2461 288.209 36.5501 287.935 36.8008C287.661 37.0515 287.339 37.2437 286.988 37.3656L271.313 42.9954C270.608 43.2439 269.835 43.2105 269.155 42.9021C268.474 42.5938 267.94 42.0343 267.662 41.3408C267.408 40.6965 267.404 39.9799 267.653 39.3333C267.797 38.9608 268.02 38.6238 268.306 38.3451C268.592 38.0664 268.935 37.8527 269.311 37.7185L284.986 32.0888C285.694 31.8383 286.472 31.8721 287.156 32.1831C287.84 32.494 288.376 33.058 288.653 33.7563C288.786 34.1012 288.849 34.4696 288.836 34.8393C288.824 35.2089 288.737 35.5723 288.581 35.9076Z" fill="#A9B4BE"/>
<path d="M291.741 132.822C291.741 131.464 287.798 130.376 282.53 130.13C282.229 124.868 281.07 120.956 279.711 120.959C278.353 120.962 277.223 124.904 276.934 130.193C271.651 130.554 267.723 131.735 267.741 133.096C267.759 134.457 271.684 135.544 276.952 135.788C277.268 141.05 278.413 144.962 279.768 144.959C281.124 144.956 282.259 141.014 282.548 135.725C287.832 135.364 291.756 134.183 291.741 132.822Z" fill="#D1EFFF"/>
<path d="M41.6211 186.879C41.6211 185.974 38.9926 185.249 35.4805 185.084C35.2797 181.577 34.5066 178.969 33.601 178.971C32.6954 178.973 31.9424 181.601 31.7496 185.127C28.2276 185.367 25.6091 186.155 25.6211 187.062C25.6332 187.97 28.2497 188.694 31.7617 188.857C31.9725 192.365 32.7356 194.973 33.6392 194.971C34.5428 194.969 35.2998 192.341 35.4926 188.815C39.0146 188.574 41.6311 187.787 41.6211 186.879Z" fill="#D1EFFF"/>
<path d="M73.3915 48.1345C73.3915 46.7762 69.4488 45.689 64.1807 45.442C63.8795 40.1806 62.7199 36.2685 61.3615 36.2715C60.0031 36.2745 58.8736 40.2168 58.5844 45.5053C53.3013 45.8667 49.3736 47.0472 49.3917 48.4085C49.4097 49.7698 53.3344 50.857 58.6025 51.1009C58.9187 56.3623 60.0633 60.2745 61.4187 60.2715C62.7741 60.2685 63.9097 56.3262 64.1988 51.0377C69.4819 50.6763 73.4066 49.4957 73.3915 48.1345Z" fill="#D1EFFF"/>
<path fill-rule="evenodd" clip-rule="evenodd" d="M211.804 172.096L185.103 145.601C183.544 144.054 181.026 144.064 179.479 145.622C177.932 147.181 177.942 149.699 179.501 151.246L206.202 177.741C207.761 179.288 210.279 179.278 211.826 177.719C213.373 176.16 213.363 173.643 211.804 172.096ZM169.357 135.578C162.263 142.728 162.307 154.274 169.457 161.369L196.158 187.864C203.308 194.958 214.854 194.913 221.949 187.763C229.043 180.614 228.998 169.067 221.848 161.973L195.147 135.478C187.998 128.384 176.451 128.429 169.357 135.578Z" fill="#D1EFFF"/>
<path fill-rule="evenodd" clip-rule="evenodd" d="M185.101 145.604L211.803 172.099C213.013 173.299 213.289 175.085 212.63 176.553C215.279 175.269 221.215 175.571 225.716 182.229C228.503 175.851 227.463 168.208 222.609 162.779L210.315 161.224L194.349 145.382C191.123 142.181 186.65 139.919 182.772 142.288C181.326 143.172 180.044 144.351 179.324 145.789C179.374 145.734 179.425 145.679 179.478 145.626C181.025 144.067 183.542 144.057 185.101 145.604Z" fill="#9EDDFF"/>
<path fill-rule="evenodd" clip-rule="evenodd" d="M211.989 175.741L209.352 178.399C205.746 182.033 205.769 187.901 209.402 191.507L228.59 210.546C232.224 214.152 238.093 214.129 241.698 210.496L244.336 207.837C247.942 204.204 247.919 198.335 244.285 194.729L225.098 175.69C221.464 172.084 215.595 172.107 211.989 175.741ZM199.229 168.355C190.076 177.579 190.134 192.477 199.358 201.63L218.546 220.669C227.77 229.822 242.668 229.764 251.821 220.54L254.458 217.882C263.611 208.657 263.554 193.76 254.329 184.607L235.142 165.567C225.917 156.414 211.02 156.472 201.867 165.696L199.229 168.355Z" fill="#B8E6FF"/>
<path fill-rule="evenodd" clip-rule="evenodd" d="M207.565 188.923C208.012 189.859 208.625 190.735 209.403 191.507L211.947 194.032C208.479 195.549 205.152 199.382 209.924 204.519C212.275 207.05 219.276 213.909 223.622 218.142C226.03 220.487 228.552 222.764 231.608 224.164C234.408 225.447 237.925 226.533 241.58 226.596C233.667 228.847 224.802 226.876 218.546 220.669L199.359 201.629C193.627 195.942 191.435 188.037 192.792 180.654L207.565 188.923Z" fill="#9EDDFF"/>
<path fill-rule="evenodd" clip-rule="evenodd" d="M169.356 135.579C162.262 142.728 162.307 154.275 169.456 161.369L196.158 187.864C203.307 194.958 214.853 194.913 221.948 187.764L211.825 177.72C210.278 179.278 207.761 179.288 206.202 177.741L179.501 151.246C177.942 149.699 177.932 147.182 179.478 145.623L169.356 135.579Z" fill="#D1EFFF"/>
<path fill-rule="evenodd" clip-rule="evenodd" d="M168.32 136.713C167.233 140.23 166.315 147.868 170.73 152.701C174.551 156.884 189.786 171.872 200.377 182.215C204 185.753 207.957 189.445 213.005 189.848C215.757 190.068 218.872 189.59 221.847 187.665L221.948 187.764C214.854 194.913 203.307 194.958 196.158 187.864L169.457 161.369C162.674 154.639 162.286 143.902 168.32 136.713Z" fill="#B8E6FF"/>
</svg>
