<svg width="320" height="240" viewBox="0 0 320 240" fill="none" xmlns="http://www.w3.org/2000/svg">
<path d="M305.547 20H14.4533C12.5559 19.9983 10.6768 20.3705 8.92329 21.0954C7.16981 21.8203 5.57638 22.8836 4.23409 24.2247C2.8918 25.5657 1.82697 27.1582 1.10045 28.911C0.373942 30.6638 -8.08861e-07 32.5426 0 34.44V205.547C0 209.38 1.52275 213.056 4.23328 215.767C6.9438 218.477 10.6201 220 14.4533 220H305.547C309.38 220 313.056 218.477 315.767 215.767C318.477 213.056 320 209.38 320 205.547V34.44C320 32.5426 319.626 30.6638 318.9 28.911C318.173 27.1582 317.108 25.5657 315.766 24.2247C314.424 22.8836 312.83 21.8203 311.077 21.0954C309.323 20.3705 307.444 19.9983 305.547 20Z" fill="#EBF8FF"/>
<path d="M151.678 130H29.2984C27.4123 130 25.8833 131.532 25.8833 133.421V212.821C25.8833 214.71 27.4123 216.242 29.2984 216.242H151.678C153.564 216.242 155.093 214.71 155.093 212.821V133.421C155.093 131.532 153.564 130 151.678 130Z" fill="#D1EFFF"/>
<path d="M148.845 134.647H31.9615C30.211 134.647 28.792 136.069 28.792 137.823V209.339C28.792 211.093 30.211 212.514 31.9615 212.514H148.845C150.595 212.514 152.014 211.093 152.014 209.339V137.823C152.014 136.069 150.595 134.647 148.845 134.647Z" fill="#EBF8FF"/>
<path d="M172.875 217.82H12L16.0384 219.462C16.2933 219.564 16.5648 219.618 16.8393 219.621L168.742 220C169.143 220.002 169.536 219.89 169.875 219.678L172.871 217.809L172.875 217.82Z" fill="#B8E6FF"/>
<path d="M172.875 217.229C172.874 216.945 172.761 216.672 172.559 216.472C172.358 216.271 172.086 216.158 171.802 216.158H13.0729C12.789 216.158 12.5167 216.271 12.3156 216.472C12.1145 216.672 12.001 216.945 12 217.229V217.82H172.875V217.229Z" fill="#D1EFFF"/>
<path d="M83.0782 216.125H101.631V216.503C101.631 216.905 101.472 217.29 101.188 217.574C100.905 217.858 100.52 218.017 100.12 218.017H84.578C84.1772 218.017 83.7929 217.858 83.5095 217.574C83.2261 217.29 83.0669 216.905 83.0669 216.503V216.125H83.0782Z" fill="#9EDDFF"/>
<path d="M90.7243 133.039C91.1812 133.039 91.5516 132.668 91.5516 132.211C91.5516 131.753 91.1812 131.382 90.7243 131.382C90.2674 131.382 89.897 131.753 89.897 132.211C89.897 132.668 90.2674 133.039 90.7243 133.039Z" fill="#B8E6FF"/>
<g clip-path="url(#clip0_2672_44798)">
<path d="M218.835 63H126.816C121.24 63 116.72 67.5201 116.72 73.0959V186.904C116.72 192.48 121.24 197 126.816 197H218.835C224.411 197 228.931 192.48 228.931 186.904V73.0959C228.931 67.5201 224.411 63 218.835 63Z" fill="#D1EFFF"/>
<path fill-rule="evenodd" clip-rule="evenodd" d="M127.065 73.8492C127.065 73.3903 127.191 73.0225 127.345 73.0225H217.725C217.879 73.0225 218.005 73.3728 218.005 73.8492V186.155C218.005 186.613 217.879 186.981 217.725 186.981H127.345C127.191 186.981 127.065 186.631 127.065 186.155V73.8492Z" fill="#D1EFFF"/>
<path d="M218.012 83.7734H127.065V93.0811H218.012V83.7734Z" fill="#B8E6FF"/>
<path d="M132.33 87.291H147.968C148.479 87.291 148.896 87.848 148.896 88.5346C148.896 89.2352 148.479 89.7747 147.968 89.7747H132.33C131.815 89.7747 131.398 89.2177 131.398 88.5346C131.398 87.848 131.801 87.291 132.33 87.291Z" fill="#9EDDFF"/>
<path d="M132.33 96.3916H145.025C145.536 96.3916 145.953 96.9486 145.953 97.6317C145.953 98.3323 145.536 98.8753 145.025 98.8753H132.33C131.815 98.8753 131.398 98.3183 131.398 97.6317C131.398 96.9486 131.801 96.3916 132.33 96.3916Z" fill="#9EDDFF"/>
<path d="M132.33 105.909H147.043C147.558 105.909 147.975 106.466 147.975 107.149C147.975 107.85 147.558 108.393 147.043 108.393H132.33C131.815 108.393 131.398 107.836 131.398 107.149C131.398 106.463 131.801 105.909 132.33 105.909Z" fill="#9EDDFF"/>
<path d="M132.33 115.018H138.986C139.501 115.018 139.914 115.575 139.914 116.258C139.914 116.958 139.501 117.498 138.986 117.498H132.33C131.815 117.498 131.398 116.944 131.398 116.258C131.398 115.564 131.801 115.018 132.33 115.018Z" fill="#9EDDFF"/>
<path d="M132.33 124.314H138.986C139.501 124.314 139.914 124.868 139.914 125.555C139.914 126.255 139.501 126.795 138.986 126.795H132.33C131.815 126.795 131.398 126.241 131.398 125.555C131.398 124.868 131.801 124.314 132.33 124.314Z" fill="#9EDDFF"/>
<path d="M132.33 142.93H138.986C139.501 142.93 139.914 143.483 139.914 144.17C139.914 144.87 139.501 145.41 138.986 145.41H132.33C131.815 145.41 131.398 144.853 131.398 144.17C131.398 143.483 131.801 142.93 132.33 142.93Z" fill="#9EDDFF"/>
<path d="M132.33 133.623H138.986C139.501 133.623 139.914 134.177 139.914 134.863C139.914 135.564 139.501 136.103 138.986 136.103H132.33C131.815 136.103 131.398 135.55 131.398 134.863C131.398 134.177 131.801 133.623 132.33 133.623Z" fill="#9EDDFF"/>
<path d="M132.33 152.233H138.986C139.501 152.233 139.914 152.79 139.914 153.477C139.914 154.178 139.501 154.717 138.986 154.717H132.33C131.815 154.717 131.398 154.16 131.398 153.477C131.398 152.79 131.801 152.233 132.33 152.233Z" fill="#9EDDFF"/>
<path d="M132.298 161.58H138.954C139.466 161.58 139.883 162.137 139.883 162.82C139.883 163.521 139.466 164.064 138.954 164.064H132.298C131.787 164.064 131.37 163.507 131.37 162.82C131.37 162.137 131.801 161.58 132.298 161.58Z" fill="#9EDDFF"/>
<path d="M165.024 87.291H180.662C181.173 87.291 181.59 87.848 181.59 88.5346C181.59 89.2352 181.173 89.7747 180.662 89.7747H165.024C164.509 89.7747 164.092 89.2177 164.092 88.5346C164.092 87.848 164.509 87.291 165.024 87.291Z" fill="#9EDDFF"/>
<path d="M165.024 96.3916H177.719C178.231 96.3916 178.648 96.9486 178.648 97.6317C178.648 98.3323 178.231 98.8753 177.719 98.8753H165.024C164.509 98.8753 164.092 98.3183 164.092 97.6317C164.092 96.9486 164.509 96.3916 165.024 96.3916Z" fill="#9EDDFF"/>
<path d="M165.024 105.909H179.737C180.252 105.909 180.669 106.466 180.669 107.149C180.669 107.85 180.252 108.393 179.737 108.393H165.024C164.509 108.393 164.092 107.836 164.092 107.149C164.092 106.463 164.509 105.909 165.024 105.909Z" fill="#9EDDFF"/>
<path d="M165.024 115.018H171.68C172.195 115.018 172.608 115.575 172.608 116.258C172.608 116.958 172.195 117.498 171.68 117.498H165.024C164.509 117.498 164.092 116.944 164.092 116.258C164.092 115.564 164.509 115.018 165.024 115.018Z" fill="#9EDDFF"/>
<path d="M165.024 124.314H171.68C172.195 124.314 172.608 124.868 172.608 125.555C172.608 126.255 172.195 126.795 171.68 126.795H165.024C164.509 126.795 164.092 126.241 164.092 125.555C164.092 124.868 164.509 124.314 165.024 124.314Z" fill="#9EDDFF"/>
<path d="M165.024 142.93H171.68C172.195 142.93 172.608 143.483 172.608 144.17C172.608 144.87 172.195 145.41 171.68 145.41H165.024C164.509 145.41 164.092 144.853 164.092 144.17C164.092 143.483 164.509 142.93 165.024 142.93Z" fill="#9EDDFF"/>
<path d="M165.024 133.623H171.68C172.195 133.623 172.608 134.177 172.608 134.863C172.608 135.564 172.195 136.103 171.68 136.103H165.024C164.509 136.103 164.092 135.55 164.092 134.863C164.092 134.177 164.509 133.623 165.024 133.623Z" fill="#9EDDFF"/>
<path d="M165.024 152.233H171.68C172.195 152.233 172.608 152.79 172.608 153.477C172.608 154.178 172.195 154.717 171.68 154.717H165.024C164.509 154.717 164.092 154.16 164.092 153.477C164.092 152.79 164.509 152.233 165.024 152.233Z" fill="#9EDDFF"/>
<path d="M164.993 161.58H171.649C172.16 161.58 172.577 162.137 172.577 162.82C172.577 163.521 172.16 164.064 171.649 164.064H164.993C164.481 164.064 164.064 163.507 164.064 162.82C164.064 162.137 164.481 161.58 164.993 161.58Z" fill="#9EDDFF"/>
<path d="M197.347 87.291H212.985C213.497 87.291 213.913 87.848 213.913 88.5346C213.913 89.2352 213.497 89.7747 212.985 89.7747H197.347C196.832 89.7747 196.416 89.2177 196.416 88.5346C196.416 87.848 196.832 87.291 197.347 87.291Z" fill="#9EDDFF"/>
<path d="M197.347 96.3916H210.043C210.554 96.3916 210.971 96.9486 210.971 97.6317C210.971 98.3323 210.554 98.8753 210.043 98.8753H197.347C196.832 98.8753 196.416 98.3183 196.416 97.6317C196.416 96.9486 196.832 96.3916 197.347 96.3916Z" fill="#9EDDFF"/>
<path d="M197.347 105.909H212.06C212.575 105.909 212.992 106.466 212.992 107.149C212.992 107.85 212.575 108.393 212.06 108.393H197.347C196.832 108.393 196.416 107.836 196.416 107.149C196.416 106.463 196.832 105.909 197.347 105.909Z" fill="#9EDDFF"/>
<path d="M197.347 115.018H204.003C204.515 115.018 204.932 115.575 204.932 116.258C204.932 116.958 204.515 117.498 204.003 117.498H197.347C196.832 117.498 196.416 116.944 196.416 116.258C196.416 115.564 196.832 115.018 197.347 115.018Z" fill="#9EDDFF"/>
<path d="M197.347 124.314H204.003C204.515 124.314 204.932 124.868 204.932 125.555C204.932 126.255 204.515 126.795 204.003 126.795H197.347C196.832 126.795 196.416 126.241 196.416 125.555C196.416 124.868 196.832 124.314 197.347 124.314Z" fill="#9EDDFF"/>
<path d="M197.347 142.93H204.003C204.515 142.93 204.932 143.483 204.932 144.17C204.932 144.87 204.515 145.41 204.003 145.41H197.347C196.832 145.41 196.416 144.853 196.416 144.17C196.416 143.483 196.832 142.93 197.347 142.93Z" fill="#9EDDFF"/>
<path d="M197.347 133.623H204.003C204.515 133.623 204.932 134.177 204.932 134.863C204.932 135.564 204.515 136.103 204.003 136.103H197.347C196.832 136.103 196.416 135.55 196.416 134.863C196.416 134.177 196.832 133.623 197.347 133.623Z" fill="#9EDDFF"/>
<path d="M197.347 152.233H204.003C204.515 152.233 204.932 152.79 204.932 153.477C204.932 154.178 204.515 154.717 204.003 154.717H197.347C196.832 154.717 196.416 154.16 196.416 153.477C196.416 152.79 196.832 152.233 197.347 152.233Z" fill="#9EDDFF"/>
<path d="M197.309 161.58H203.965C204.48 161.58 204.896 162.137 204.896 162.82C204.896 163.521 204.48 164.064 203.965 164.064H197.309C196.794 164.064 196.38 163.507 196.38 162.82C196.387 162.137 196.801 161.58 197.309 161.58Z" fill="#9EDDFF"/>
<path d="M151.366 76.3301H133.57C132.37 76.3301 131.398 77.3025 131.398 78.502C131.398 79.7015 132.37 80.6739 133.57 80.6739H151.366C152.565 80.6739 153.537 79.7015 153.537 78.502C153.537 77.3025 152.565 76.3301 151.366 76.3301Z" fill="#9EDDFF"/>
</g>
<path d="M72.9991 97.863C72.9991 96.5047 69.0565 95.4175 63.7886 95.1705C63.4874 89.9092 62.3278 85.997 60.9695 86C59.6111 86.003 58.4816 89.9453 58.1925 95.2338C52.9096 95.5952 48.982 96.7758 49.0001 98.137C49.0181 99.4983 52.9427 100.586 58.2105 100.829C58.5268 106.091 59.6713 110.003 61.0267 110C62.3821 109.997 63.5175 106.055 63.8067 100.766C69.0896 100.405 73.0141 99.2242 72.9991 97.863Z" fill="#D1EFFF"/>
<path d="M289.999 176.829C289.999 175.131 285.071 173.772 278.486 173.463C278.109 166.886 276.66 161.996 274.962 162C273.264 162.004 271.852 166.932 271.491 173.542C264.887 173.994 259.977 175.47 260 177.171C260.023 178.873 264.928 180.232 271.513 180.537C271.909 187.114 273.339 192.004 275.033 192C276.728 191.996 278.147 187.068 278.508 180.458C285.112 180.006 290.018 178.53 289.999 176.829Z" fill="#D1EFFF"/>
<path d="M44.4994 59.9029C44.4994 58.9408 41.7067 58.1707 37.9753 57.9958C37.7619 54.269 36.9406 51.4979 35.9784 51.5C35.0162 51.5021 34.2161 54.2946 34.0113 58.0406C30.2693 58.2966 27.4872 59.1328 27.5 60.0971C27.5128 61.0613 30.2927 61.8314 34.0241 62.0042C34.2482 65.731 35.0589 68.5021 36.0189 68.5C36.979 68.4979 37.7833 65.7054 37.9881 61.9594C41.7301 61.7034 44.51 60.8672 44.4994 59.9029Z" fill="#D1EFFF"/>
<path d="M239.999 40.863C239.999 39.5047 236.056 38.4175 230.789 38.1705C230.487 32.9092 229.328 28.997 227.969 29C226.611 29.003 225.482 32.9453 225.192 38.2338C219.91 38.5952 215.982 39.7758 216 41.137C216.018 42.4983 219.943 43.5855 225.211 43.8295C225.527 49.0908 226.671 53.003 228.027 53C229.382 52.997 230.518 49.0547 230.807 43.7662C236.09 43.4048 240.014 42.2242 239.999 40.863Z" fill="#F58B00"/>
<path d="M257.499 64.9029C257.499 63.9408 254.707 63.1707 250.975 62.9958C250.762 59.269 249.941 56.4979 248.978 56.5C248.016 56.5021 247.216 59.2946 247.011 63.0406C243.269 63.2966 240.487 64.1328 240.5 65.0971C240.513 66.0613 243.293 66.8314 247.024 67.0042C247.248 70.731 248.059 73.5021 249.019 73.5C249.979 73.4979 250.783 70.7054 250.988 66.9594C254.73 66.7034 257.51 65.8672 257.499 64.9029Z" fill="#F58B00"/>
<g clip-path="url(#clip1_2672_44798)">
<path d="M179.835 46H87.8161C82.2403 46 77.7202 50.5201 77.7202 56.0959V169.904C77.7202 175.48 82.2403 180 87.8161 180H179.835C185.411 180 189.931 175.48 189.931 169.904V56.0959C189.931 50.5201 185.411 46 179.835 46Z" fill="white"/>
<path fill-rule="evenodd" clip-rule="evenodd" d="M88.0649 56.8492C88.0649 56.3903 88.1911 56.0225 88.3452 56.0225H178.725C178.879 56.0225 179.005 56.3728 179.005 56.8492V169.155C179.005 169.613 178.879 169.981 178.725 169.981H88.3452C88.1911 169.981 88.0649 169.631 88.0649 169.155V56.8492Z" fill="white"/>
<path d="M179.012 66.7734H88.0649V76.0811H179.012V66.7734Z" fill="#D1EFFF"/>
<path d="M93.3298 70.291H108.968C109.479 70.291 109.896 70.848 109.896 71.5346C109.896 72.2352 109.479 72.7747 108.968 72.7747H93.3298C92.8148 72.7747 92.3979 72.2177 92.3979 71.5346C92.3979 70.848 92.8008 70.291 93.3298 70.291Z" fill="#004DA5"/>
<path d="M93.3298 79.3916H106.025C106.536 79.3916 106.953 79.9486 106.953 80.6317C106.953 81.3323 106.536 81.8753 106.025 81.8753H93.3298C92.8148 81.8753 92.3979 81.3183 92.3979 80.6317C92.3979 79.9486 92.8008 79.3916 93.3298 79.3916Z" fill="#004DA5"/>
<path d="M93.3298 88.9092H108.043C108.558 88.9092 108.975 89.4662 108.975 90.1493C108.975 90.8499 108.558 91.3929 108.043 91.3929H93.3298C92.8148 91.3929 92.3979 90.8359 92.3979 90.1493C92.3979 89.4627 92.8008 88.9092 93.3298 88.9092Z" fill="#004DA5"/>
<path d="M93.3298 98.0176H99.9856C100.501 98.0176 100.914 98.5746 100.914 99.2577C100.914 99.9583 100.501 100.498 99.9856 100.498H93.3298C92.8148 100.498 92.3979 99.9443 92.3979 99.2577C92.3979 98.5641 92.8008 98.0176 93.3298 98.0176Z" fill="#004DA5"/>
<path d="M93.3298 107.314H99.9856C100.501 107.314 100.914 107.868 100.914 108.555C100.914 109.255 100.501 109.795 99.9856 109.795H93.3298C92.8148 109.795 92.3979 109.241 92.3979 108.555C92.3979 107.868 92.8008 107.314 93.3298 107.314Z" fill="#004DA5"/>
<path d="M93.3298 125.93H99.9856C100.501 125.93 100.914 126.483 100.914 127.17C100.914 127.87 100.501 128.41 99.9856 128.41H93.3298C92.8148 128.41 92.3979 127.853 92.3979 127.17C92.3979 126.483 92.8008 125.93 93.3298 125.93Z" fill="#004DA5"/>
<path d="M93.3298 116.623H99.9856C100.501 116.623 100.914 117.177 100.914 117.863C100.914 118.564 100.501 119.103 99.9856 119.103H93.3298C92.8148 119.103 92.3979 118.55 92.3979 117.863C92.3979 117.177 92.8008 116.623 93.3298 116.623Z" fill="#004DA5"/>
<path d="M93.3298 135.233H99.9856C100.501 135.233 100.914 135.79 100.914 136.477C100.914 137.178 100.501 137.717 99.9856 137.717H93.3298C92.8148 137.717 92.3979 137.16 92.3979 136.477C92.3979 135.79 92.8008 135.233 93.3298 135.233Z" fill="#004DA5"/>
<path d="M93.2984 144.58H99.9543C100.466 144.58 100.883 145.137 100.883 145.82C100.883 146.521 100.466 147.064 99.9543 147.064H93.2984C92.787 147.064 92.3701 146.507 92.3701 145.82C92.3701 145.137 92.801 144.58 93.2984 144.58Z" fill="#004DA5"/>
<path d="M126.024 70.291H141.662C142.173 70.291 142.59 70.848 142.59 71.5346C142.59 72.2352 142.173 72.7747 141.662 72.7747H126.024C125.509 72.7747 125.092 72.2177 125.092 71.5346C125.092 70.848 125.509 70.291 126.024 70.291Z" fill="#004DA5"/>
<path d="M126.024 79.3916H138.719C139.231 79.3916 139.648 79.9486 139.648 80.6317C139.648 81.3323 139.231 81.8753 138.719 81.8753H126.024C125.509 81.8753 125.092 81.3183 125.092 80.6317C125.092 79.9486 125.509 79.3916 126.024 79.3916Z" fill="#004DA5"/>
<path d="M126.024 88.9092H140.737C141.252 88.9092 141.669 89.4662 141.669 90.1493C141.669 90.8499 141.252 91.3929 140.737 91.3929H126.024C125.509 91.3929 125.092 90.8359 125.092 90.1493C125.092 89.4627 125.509 88.9092 126.024 88.9092Z" fill="#004DA5"/>
<path d="M126.024 98.0176H132.68C133.195 98.0176 133.608 98.5746 133.608 99.2577C133.608 99.9583 133.195 100.498 132.68 100.498H126.024C125.509 100.498 125.092 99.9443 125.092 99.2577C125.092 98.5641 125.509 98.0176 126.024 98.0176Z" fill="#004DA5"/>
<path d="M126.024 107.314H132.68C133.195 107.314 133.608 107.868 133.608 108.555C133.608 109.255 133.195 109.795 132.68 109.795H126.024C125.509 109.795 125.092 109.241 125.092 108.555C125.092 107.868 125.509 107.314 126.024 107.314Z" fill="#004DA5"/>
<path d="M126.024 125.93H132.68C133.195 125.93 133.608 126.483 133.608 127.17C133.608 127.87 133.195 128.41 132.68 128.41H126.024C125.509 128.41 125.092 127.853 125.092 127.17C125.092 126.483 125.509 125.93 126.024 125.93Z" fill="#004DA5"/>
<path d="M126.024 116.623H132.68C133.195 116.623 133.608 117.177 133.608 117.863C133.608 118.564 133.195 119.103 132.68 119.103H126.024C125.509 119.103 125.092 118.55 125.092 117.863C125.092 117.177 125.509 116.623 126.024 116.623Z" fill="#004DA5"/>
<path d="M126.024 135.233H132.68C133.195 135.233 133.608 135.79 133.608 136.477C133.608 137.178 133.195 137.717 132.68 137.717H126.024C125.509 137.717 125.092 137.16 125.092 136.477C125.092 135.79 125.509 135.233 126.024 135.233Z" fill="#004DA5"/>
<path d="M125.993 144.58H132.649C133.16 144.58 133.577 145.137 133.577 145.82C133.577 146.521 133.16 147.064 132.649 147.064H125.993C125.481 147.064 125.064 146.507 125.064 145.82C125.064 145.137 125.481 144.58 125.993 144.58Z" fill="#004DA5"/>
<path d="M158.347 70.291H173.985C174.497 70.291 174.913 70.848 174.913 71.5346C174.913 72.2352 174.497 72.7747 173.985 72.7747H158.347C157.832 72.7747 157.416 72.2177 157.416 71.5346C157.416 70.848 157.832 70.291 158.347 70.291Z" fill="#004DA5"/>
<path d="M158.347 79.3916H171.043C171.554 79.3916 171.971 79.9486 171.971 80.6317C171.971 81.3323 171.554 81.8753 171.043 81.8753H158.347C157.832 81.8753 157.416 81.3183 157.416 80.6317C157.416 79.9486 157.832 79.3916 158.347 79.3916Z" fill="#004DA5"/>
<path d="M158.347 88.9092H173.06C173.575 88.9092 173.992 89.4662 173.992 90.1493C173.992 90.8499 173.575 91.3929 173.06 91.3929H158.347C157.832 91.3929 157.416 90.8359 157.416 90.1493C157.416 89.4627 157.832 88.9092 158.347 88.9092Z" fill="#004DA5"/>
<path d="M158.347 98.0176H165.003C165.515 98.0176 165.932 98.5746 165.932 99.2577C165.932 99.9583 165.515 100.498 165.003 100.498H158.347C157.832 100.498 157.416 99.9443 157.416 99.2577C157.416 98.5641 157.832 98.0176 158.347 98.0176Z" fill="#004DA5"/>
<path d="M158.347 107.314H165.003C165.515 107.314 165.932 107.868 165.932 108.555C165.932 109.255 165.515 109.795 165.003 109.795H158.347C157.832 109.795 157.416 109.241 157.416 108.555C157.416 107.868 157.832 107.314 158.347 107.314Z" fill="#004DA5"/>
<path d="M158.347 125.93H165.003C165.515 125.93 165.932 126.483 165.932 127.17C165.932 127.87 165.515 128.41 165.003 128.41H158.347C157.832 128.41 157.416 127.853 157.416 127.17C157.416 126.483 157.832 125.93 158.347 125.93Z" fill="#004DA5"/>
<path d="M158.347 116.623H165.003C165.515 116.623 165.932 117.177 165.932 117.863C165.932 118.564 165.515 119.103 165.003 119.103H158.347C157.832 119.103 157.416 118.55 157.416 117.863C157.416 117.177 157.832 116.623 158.347 116.623Z" fill="#004DA5"/>
<path d="M158.347 135.233H165.003C165.515 135.233 165.932 135.79 165.932 136.477C165.932 137.178 165.515 137.717 165.003 137.717H158.347C157.832 137.717 157.416 137.16 157.416 136.477C157.416 135.79 157.832 135.233 158.347 135.233Z" fill="#004DA5"/>
<path d="M158.309 144.58H164.965C165.48 144.58 165.896 145.137 165.896 145.82C165.896 146.521 165.48 147.064 164.965 147.064H158.309C157.794 147.064 157.38 146.507 157.38 145.82C157.387 145.137 157.801 144.58 158.309 144.58Z" fill="#004DA5"/>
<path d="M112.366 59.3301H94.5699C93.3703 59.3301 92.3979 60.3025 92.3979 61.502C92.3979 62.7015 93.3703 63.6739 94.5699 63.6739H112.366C113.565 63.6739 114.537 62.7015 114.537 61.502C114.537 60.3025 113.565 59.3301 112.366 59.3301Z" fill="#004DA5"/>
</g>
<defs>
<clipPath id="clip0_2672_44798">
<rect width="112.211" height="134" fill="white" transform="translate(117 63)"/>
</clipPath>
<clipPath id="clip1_2672_44798">
<rect width="112.211" height="134" fill="white" transform="translate(78 46)"/>
</clipPath>
</defs>
</svg>
