<svg width="320" height="139" viewBox="0 0 320 139" fill="none" xmlns="http://www.w3.org/2000/svg">
<rect y="0.5" width="320" height="138" rx="24" fill="#222F3B"/>
<path d="M221.532 101.106C218.396 98.1378 206.509 86.8951 192.642 73.735C192.629 73.7221 192.616 73.7092 192.603 73.6964C190.553 71.35 188.473 68.9694 186.384 66.5801C186.366 66.5587 186.349 66.5372 186.331 66.5115C180.147 56.8645 174.076 47.3633 169.188 39.6508C168.991 39.3377 168.794 39.0288 168.601 38.7243C168.597 38.7157 168.593 38.7071 168.588 38.6985C168.409 38.4154 168.234 38.1366 168.054 37.8578C168.028 37.8149 168.001 37.772 167.975 37.7291C167.804 37.4589 167.638 37.1929 167.471 36.9313C167.458 36.9141 167.445 36.8927 167.436 36.8755C167.274 36.6138 167.108 36.3565 166.95 36.1034C166.92 36.0562 166.893 36.0133 166.863 35.9661C166.714 35.7345 166.569 35.5029 166.425 35.2712C166.394 35.2198 166.363 35.1726 166.328 35.1211C166.184 34.8895 166.039 34.6664 165.899 34.4391C165.868 34.3876 165.838 34.3404 165.803 34.2889C165.658 34.0573 165.514 33.83 165.374 33.6069C165.352 33.5683 165.325 33.534 165.303 33.4954C165.19 33.3109 165.076 33.1308 164.962 32.9506C164.865 32.7919 164.765 32.6375 164.668 32.4831C164.559 32.3072 164.449 32.1313 164.34 31.964C164.314 31.9254 164.292 31.8868 164.265 31.8482C164.134 31.638 164.007 31.4322 163.876 31.2305C163.832 31.1619 163.788 31.0933 163.749 31.0247C163.657 30.8788 163.565 30.733 163.477 30.5871C163.403 30.467 163.328 30.3469 163.254 30.2311C163.184 30.1196 163.114 30.0038 163.043 29.8922C162.986 29.8022 162.93 29.7078 162.873 29.6177C162.794 29.489 162.715 29.3603 162.636 29.2359C162.575 29.1373 162.513 29.0386 162.452 28.9443C162.391 28.8456 162.33 28.7427 162.268 28.6483C162.203 28.541 162.132 28.4295 162.067 28.3266C162.01 28.2365 161.953 28.1464 161.9 28.0563C161.83 27.9448 161.76 27.829 161.694 27.7218C161.651 27.6488 161.607 27.5802 161.563 27.5116C161.493 27.4 161.423 27.2885 161.357 27.177C161.305 27.0912 161.256 27.0097 161.204 26.9282C161.147 26.8381 161.09 26.748 161.037 26.658C160.985 26.5722 160.932 26.4864 160.88 26.4006C160.827 26.3148 160.775 26.229 160.722 26.1432C160.683 26.0746 160.643 26.0103 160.604 25.9459C160.547 25.8473 160.486 25.7529 160.429 25.6585C160.42 25.6414 160.411 25.6285 160.398 25.6113C160.162 25.2253 159.947 24.8693 159.754 24.5433C159.732 24.5089 159.71 24.4703 159.688 24.4317C159.645 24.3588 159.605 24.2902 159.561 24.2173C159.531 24.1658 159.5 24.11 159.469 24.0628C159.434 24.0028 159.399 23.9427 159.364 23.887C159.334 23.8355 159.303 23.784 159.277 23.7368C159.242 23.6768 159.211 23.6253 159.18 23.5695C159.154 23.5266 159.128 23.4837 159.106 23.4409C159.075 23.3894 159.049 23.3422 159.023 23.295C158.996 23.2521 158.975 23.2092 158.953 23.1706C158.926 23.1277 158.904 23.0848 158.878 23.0419C158.856 23.0033 158.839 22.969 158.821 22.9347C158.799 22.8961 158.777 22.8575 158.76 22.8232C158.742 22.7889 158.725 22.7588 158.712 22.7331C158.694 22.7031 158.677 22.6687 158.664 22.643C158.65 22.613 158.637 22.5872 158.624 22.5615C158.611 22.5358 158.598 22.51 158.589 22.4886C158.576 22.4629 158.567 22.4457 158.558 22.4242C158.55 22.4071 158.541 22.3856 158.532 22.3728C158.523 22.3513 158.519 22.3385 158.515 22.3213C158.515 22.3127 158.506 22.2999 158.502 22.2913C158.497 22.2741 158.493 22.2612 158.493 22.2484C158.493 22.2484 158.493 22.2484 158.493 22.2441L149.659 23.7626C149.448 23.7969 149.234 23.7197 149.102 23.561C147.513 21.6736 146.439 20.3653 146.001 19.7734C145.853 19.5717 145.599 19.486 145.358 19.5589L138.315 21.6264C138.271 21.5792 138.227 21.532 138.192 21.4934C138.026 21.309 137.763 21.2489 137.531 21.339L132.301 23.3894C132.301 23.3894 132.266 23.4022 132.253 23.4065L104.774 31.4665C104.752 31.475 104.73 31.4793 104.708 31.4836L62.9116 38.6385C62.5043 38.7071 62.2941 39.1575 62.5087 39.5049L64.3789 42.5462C64.5759 42.8679 64.4139 43.2883 64.0416 43.3955L57.4193 45.3386C57.0163 45.4587 56.8674 45.9392 57.1346 46.2566L60.8049 50.6018C61.0589 50.9021 60.9407 51.3611 60.5684 51.5026L58.4836 52.3219C58.0938 52.4763 57.9887 52.9696 58.2865 53.2656L86.0766 80.5252C86.0766 80.5252 86.1028 80.551 86.1116 80.5638L92.1777 87.7444C92.1952 87.7659 92.2127 87.7916 92.2302 87.813L119.692 132.454C119.819 132.66 120.06 132.767 120.301 132.724C121.321 132.535 124.256 131.995 128.5 131.214C128.71 131.175 128.929 131.253 129.065 131.411L132.367 135.323C132.52 135.503 132.766 135.576 132.993 135.508C133.865 135.238 136.208 134.517 139.598 133.475C139.808 133.41 140.041 133.466 140.194 133.616C140.365 133.783 140.614 133.831 140.833 133.74C141.67 133.397 143.917 132.479 147.153 131.158C147.171 131.15 147.188 131.145 147.206 131.141C154.63 128.868 164.134 125.972 173.901 123.03C173.923 123.021 173.945 123.017 173.971 123.012C178.093 122.283 182.166 121.571 186.081 120.893C186.476 120.825 186.87 120.756 187.26 120.692C187.408 120.666 187.557 120.64 187.711 120.615C188.1 120.546 188.486 120.482 188.867 120.417C189.007 120.392 189.147 120.37 189.287 120.344C189.668 120.28 190.05 120.216 190.426 120.147C190.562 120.126 190.693 120.1 190.829 120.078C191.258 120.006 191.688 119.933 192.117 119.86C192.182 119.847 192.244 119.838 192.309 119.825C192.699 119.757 193.089 119.692 193.479 119.628C193.602 119.607 193.72 119.585 193.838 119.568C194.28 119.491 194.723 119.418 195.161 119.345C195.165 119.345 195.17 119.345 195.174 119.345C195.594 119.272 196.01 119.203 196.427 119.135C196.549 119.113 196.672 119.092 196.794 119.075C197.184 119.01 197.565 118.946 197.946 118.882C198.03 118.869 198.108 118.856 198.192 118.839C198.546 118.779 198.892 118.723 199.238 118.663C199.361 118.642 199.484 118.624 199.602 118.603C199.952 118.543 200.298 118.487 200.64 118.431C200.749 118.414 200.859 118.397 200.968 118.376C201.288 118.324 201.608 118.268 201.923 118.217C202.037 118.2 202.151 118.178 202.265 118.161C202.62 118.105 202.966 118.045 203.312 117.99C203.373 117.981 203.439 117.968 203.5 117.959C203.824 117.908 204.148 117.857 204.464 117.805C204.569 117.788 204.678 117.771 204.783 117.754C205.116 117.702 205.445 117.646 205.764 117.595C205.821 117.586 205.874 117.578 205.926 117.569C206.229 117.522 206.522 117.475 206.816 117.428C206.921 117.41 207.021 117.393 207.126 117.38C207.451 117.329 207.77 117.277 208.081 117.23C208.099 117.23 208.116 117.226 208.134 117.222C208.436 117.175 208.734 117.127 209.027 117.084C209.111 117.072 209.194 117.059 209.277 117.046C209.57 116.999 209.864 116.956 210.144 116.913C210.17 116.913 210.197 116.904 210.219 116.9C210.486 116.861 210.744 116.823 211.003 116.784C211.081 116.771 211.165 116.758 211.244 116.75C211.515 116.711 211.782 116.673 212.036 116.634C212.049 116.634 212.058 116.634 212.067 116.63C212.317 116.595 212.562 116.561 212.798 116.527C212.86 116.518 212.925 116.51 212.987 116.501C213.228 116.467 213.468 116.432 213.696 116.402C213.705 116.402 213.709 116.402 213.718 116.402C213.937 116.372 214.152 116.342 214.358 116.317C214.415 116.308 214.467 116.304 214.52 116.295C214.721 116.269 214.918 116.244 215.102 116.222C215.12 116.222 215.133 116.222 215.15 116.218C215.33 116.197 215.501 116.175 215.667 116.158C215.715 116.154 215.764 116.145 215.807 116.141C215.974 116.124 216.136 116.102 216.285 116.089C216.293 116.089 216.302 116.089 216.311 116.089C216.46 116.072 216.6 116.059 216.731 116.046C216.767 116.046 216.802 116.042 216.837 116.038C216.968 116.025 217.095 116.016 217.213 116.008C217.327 115.999 217.428 115.995 217.524 115.991C217.55 115.991 217.572 115.991 217.594 115.991C217.686 115.991 217.774 115.986 217.848 115.986C217.923 115.986 217.98 115.986 218.037 115.995C218.05 115.995 218.063 115.995 218.076 115.995C218.124 115.999 218.168 116.008 218.199 116.016C218.199 116.016 217.178 114.438 215.404 111.688C215.194 111.362 215.365 110.925 215.746 110.822C218.869 109.981 221.221 109.393 222.517 109.153C222.964 109.072 223.152 108.553 222.859 108.214C222.084 107.334 220.717 105.777 218.886 103.688C218.615 103.38 218.746 102.899 219.14 102.766C220.029 102.466 220.752 102.234 221.295 102.084C221.729 101.964 221.865 101.424 221.541 101.115L221.532 101.106Z" fill="#101619"/>
<path d="M241.415 71.7403C241.518 71.7232 241.617 71.7017 241.72 71.6845C241.901 71.6501 242.077 71.6201 242.253 71.5857C242.36 71.5685 242.463 71.5471 242.571 71.5299C242.85 71.4783 243.129 71.4311 243.404 71.3838C243.528 71.3624 243.649 71.3409 243.769 71.3194C243.919 71.2936 244.074 71.2679 244.224 71.2421C244.366 71.2163 244.508 71.1949 244.645 71.1734C244.86 71.139 245.07 71.1047 245.281 71.0703C245.418 71.0488 245.551 71.0274 245.684 71.0059C245.818 70.9844 245.946 70.9672 246.08 70.9458C246.23 70.9243 246.376 70.9028 246.522 70.8813C246.685 70.8598 246.844 70.8341 246.999 70.8126C247.158 70.7911 247.317 70.7697 247.471 70.7482C247.579 70.7353 247.686 70.7224 247.789 70.7052C247.939 70.6881 248.09 70.6666 248.236 70.6494C248.343 70.6365 248.446 70.6236 248.554 70.6107C248.738 70.5893 248.923 70.5678 249.099 70.5506C249.185 70.542 249.271 70.5334 249.352 70.5248C249.503 70.512 249.653 70.4948 249.799 70.4819C249.864 70.4776 249.928 70.469 249.992 70.4647C250.186 70.4475 250.375 70.4346 250.555 70.4218C250.619 70.4175 250.684 70.4132 250.753 70.4089C250.89 70.4003 251.027 70.3917 251.161 70.3874C251.216 70.3874 251.272 70.3831 251.324 70.3788C251.496 70.3745 251.663 70.3702 251.822 70.3659C251.869 70.3659 251.917 70.3659 251.964 70.3659C252.093 70.3659 252.213 70.3659 252.333 70.3659C252.376 70.3659 252.419 70.3659 252.462 70.3659C252.608 70.3702 252.75 70.3788 252.887 70.3874C252.922 70.3874 252.952 70.3917 252.982 70.396C253.089 70.4046 253.192 70.4175 253.295 70.4261C253.33 70.4261 253.364 70.4346 253.394 70.4389C253.514 70.4561 253.626 70.4733 253.729 70.4948C253.746 70.4948 253.763 70.5034 253.781 70.5077C253.866 70.5291 253.948 70.5506 254.025 70.5721C254.051 70.5807 254.073 70.585 254.094 70.5936C254.18 70.6236 254.257 70.6537 254.33 70.6923C254.339 70.6923 254.343 70.7009 254.352 70.7052C254.412 70.7396 254.468 70.7739 254.515 70.8126C254.528 70.8255 254.541 70.8341 254.554 70.847C254.601 70.8899 254.644 70.9372 254.678 70.9887C254.678 70.9887 254.67 70.9758 254.657 70.9501C254.601 70.8556 254.403 70.5205 254.086 69.9837C254.068 69.9536 254.051 69.9278 254.034 69.8935C253.042 68.2141 250.963 64.7094 248.253 60.1566C248.24 60.1352 248.227 60.1094 248.21 60.0879C248.06 59.8345 247.905 59.5768 247.75 59.3148C247.725 59.2719 247.703 59.2332 247.677 59.1903C247.231 58.4386 246.767 57.6655 246.29 56.8667C246.191 56.6991 246.092 56.5316 245.989 56.3641C245.792 56.0334 245.59 55.6941 245.388 55.3548C245.268 55.1529 245.148 54.9511 245.027 54.7492C244.937 54.5989 244.847 54.4486 244.757 54.2982C244.589 54.0191 244.426 53.7399 244.254 53.4607C244.177 53.3318 244.104 53.2073 244.027 53.0784C244.009 53.0527 243.992 53.0226 243.979 52.9968C232.971 34.6227 217.084 8.34574 214.498 5.68282C214.357 5.53679 214.168 5.47236 213.983 5.51102L165.861 14.7324C165.466 14.8098 165.282 15.2951 165.505 15.6731L201.712 75.8936L204.53 80.5795C204.53 80.5795 204.572 80.5666 204.645 80.5494C204.667 80.5451 204.693 80.5366 204.718 80.528C204.796 80.5065 204.895 80.4807 205.019 80.4464C205.062 80.4335 205.105 80.4249 205.152 80.412C205.187 80.4034 205.221 80.3948 205.26 80.3819C205.315 80.3647 205.376 80.3519 205.44 80.3304C205.466 80.3218 205.5 80.3132 205.526 80.3046C206.14 80.1371 207.021 79.9009 208.116 79.6088C208.275 79.5659 208.438 79.5229 208.605 79.48C208.657 79.4671 208.704 79.4542 208.756 79.4413C208.91 79.3984 209.074 79.3554 209.237 79.3125C209.284 79.2996 209.331 79.2867 209.379 79.2738C209.563 79.2266 209.757 79.175 209.95 79.1235C209.963 79.1235 209.976 79.1149 209.993 79.1106C210.203 79.0548 210.414 78.9989 210.633 78.9431C217.921 77.0275 230.36 73.875 240.178 71.9766C240.595 71.895 241.011 71.8176 241.419 71.7403H241.415Z" fill="#101619"/>
<path d="M69.1516 44.6036L133.946 134.567C133.946 134.567 219.4 106.469 222.098 107.058C222.098 107.058 155.585 18.7132 155.611 17.5449L69.1516 44.6036Z" fill="#2A4259"/>
<path d="M69.6198 51.6947L141.519 132.755C141.519 132.755 218.876 99.5026 221.496 99.8634C221.496 99.8634 148.172 20.4784 148.056 19.3574L69.6198 51.6947Z" fill="#3B5B7C"/>
<path d="M74.8896 37.7101L122.139 131.823C122.139 131.823 213.851 113.264 216.449 114.114C216.449 114.114 167.147 21.3976 167.405 20.2637L74.8896 37.7101Z" fill="#D5DADD"/>
<path d="M162.203 24.2752C164.012 25.5809 165.717 27.024 167.362 28.5273C169.17 30.1809 170.896 31.9204 172.576 33.7028C173.8 35.0085 174.985 36.3443 176.154 37.6972C170.909 27.6039 167.34 20.5729 167.413 20.2637L158.522 21.9387C159.807 22.6216 161.031 23.4205 162.208 24.2709L162.203 24.2752Z" fill="#2A4259"/>
<path d="M202.121 87.0898C201.314 90.6848 200.403 94.2582 199.239 97.7544C197.684 102.419 195.666 106.976 192.827 111.009C190.692 114.037 188.24 116.846 185.5 119.341C201.988 116.206 215.479 113.801 216.454 114.118C216.454 114.118 210.179 102.32 202.121 87.0941V87.0898Z" fill="#2A4259"/>
<path d="M141.574 35.7559L118.506 40.0896C117.87 40.2098 117.153 39.9221 116.908 39.4496L116.891 39.4153C116.646 38.9428 116.96 38.4618 117.595 38.3415L140.664 34.0078C141.299 33.8876 142.017 34.1753 142.262 34.6478L142.279 34.6821C142.524 35.1546 142.21 35.6356 141.574 35.7559Z" fill="#101619"/>
<path d="M127.349 48.3272L100.862 53.3009C99.7107 53.5156 98.4179 52.9959 97.9712 52.1412L97.1165 50.5005C96.6698 49.6458 97.241 48.7739 98.3921 48.5592L124.88 43.5855C126.031 43.3708 127.323 43.8905 127.77 44.7452L128.625 46.3859C129.071 47.2406 128.5 48.1125 127.349 48.3272Z" fill="#101619"/>
<path d="M145.715 83.5597L119.227 88.5333C118.076 88.7481 116.783 88.2284 116.337 87.3736L115.482 85.7329C115.035 84.8782 115.607 84.0063 116.758 83.7916L143.245 78.818C144.396 78.6032 145.689 79.1229 146.136 79.9776L146.99 81.6183C147.437 82.473 146.866 83.3449 145.715 83.5597Z" fill="#101619"/>
<path d="M114.189 58.5337L103.812 60.4836C103.061 60.6254 102.215 60.2861 101.923 59.7277L100.51 57.0132C100.217 56.4549 100.591 55.8837 101.343 55.7419L111.72 53.792C112.471 53.6502 113.317 53.9895 113.609 54.5479L115.022 57.2624C115.314 57.8207 114.941 58.392 114.189 58.5337Z" fill="#101619"/>
<path d="M117.866 65.5806L107.489 67.5305C106.737 67.6722 105.891 67.3329 105.599 66.7746L104.186 64.0601C103.894 63.5018 104.268 62.9305 105.019 62.7888L115.396 60.8389C116.148 60.6971 116.994 61.0364 117.286 61.5948L118.699 64.3092C118.991 64.8676 118.617 65.4388 117.866 65.5806Z" fill="#101619"/>
<path d="M121.538 72.6294L111.161 74.5793C110.41 74.7211 109.563 74.3818 109.271 73.8234L107.858 71.109C107.566 70.5506 107.94 69.9794 108.692 69.8376L119.068 67.8877C119.82 67.7459 120.666 68.0853 120.958 68.6436L122.371 71.3581C122.663 71.9164 122.29 72.4877 121.538 72.6294Z" fill="#101619"/>
<path d="M125.21 79.6724L114.833 81.6223C114.082 81.764 113.236 81.4247 112.944 80.8664L111.531 78.1519C111.238 77.5936 111.612 77.0223 112.364 76.8806L122.741 74.9307C123.492 74.7889 124.338 75.1282 124.63 75.6866L126.043 78.401C126.335 78.9594 125.962 79.5306 125.21 79.6724Z" fill="#101619"/>
<path fill-rule="evenodd" clip-rule="evenodd" d="M95.1462 48.5185C95.4748 48.3484 95.8791 48.4768 96.0493 48.8054L127.665 109.855C127.835 110.183 127.707 110.588 127.378 110.758C127.05 110.928 126.645 110.8 126.475 110.471L94.8594 49.4216C94.6892 49.093 94.8176 48.6887 95.1462 48.5185Z" fill="#101619"/>
<path d="M166.275 41.0186L139.788 45.9923C138.636 46.207 137.344 45.6873 136.897 44.8326L136.042 43.1919C135.596 42.3372 136.167 41.4653 137.318 41.2506L163.805 36.2769C164.956 36.0622 166.249 36.5819 166.696 37.4366L167.551 39.0773C167.997 39.932 167.426 40.8039 166.275 41.0186Z" fill="#101619"/>
<path d="M184.636 76.255L158.149 81.2286C156.998 81.4434 155.705 80.9237 155.258 80.069L154.404 78.4283C153.957 77.5736 154.528 76.7017 155.679 76.4869L182.167 71.5133C183.318 71.2985 184.611 71.8182 185.057 72.6729L185.912 74.3136C186.359 75.1683 185.787 76.0402 184.636 76.255Z" fill="#101619"/>
<path d="M153.115 51.227L142.738 53.177C141.987 53.3187 141.141 52.9794 140.849 52.4211L139.435 49.7066C139.143 49.1483 139.517 48.577 140.269 48.4353L150.645 46.4853C151.397 46.3436 152.243 46.6829 152.535 47.2413L153.948 49.9557C154.24 50.5141 153.867 51.0853 153.115 51.227Z" fill="#101619"/>
<path d="M156.787 58.272L146.411 60.2219C145.659 60.3636 144.813 60.0243 144.521 59.466L143.108 56.7515C142.816 56.1932 143.189 55.6219 143.941 55.4802L154.318 53.5303C155.069 53.3885 155.915 53.7278 156.208 54.2862L157.621 57.0006C157.913 57.559 157.539 58.1302 156.787 58.272Z" fill="#101619"/>
<path d="M160.459 65.3188L150.083 67.2688C149.331 67.4105 148.485 67.0712 148.193 66.5129L146.78 63.7984C146.488 63.2401 146.861 62.6688 147.613 62.5271L157.99 60.5771C158.741 60.4354 159.588 60.7747 159.88 61.3331L161.293 64.0475C161.585 64.6059 161.211 65.1771 160.459 65.3188Z" fill="#101619"/>
<path d="M164.136 72.3677L153.759 74.3176C153.008 74.4594 152.162 74.12 151.869 73.5617L150.456 70.8472C150.164 70.2889 150.538 69.7176 151.29 69.5759L161.666 67.626C162.418 67.4842 163.264 67.8235 163.556 68.3819L164.969 71.0963C165.261 71.6547 164.888 72.2259 164.136 72.3677Z" fill="#101619"/>
<path fill-rule="evenodd" clip-rule="evenodd" d="M134.072 41.2099C134.401 41.0398 134.805 41.1682 134.975 41.4968L166.591 102.551C166.761 102.879 166.632 103.284 166.304 103.454C165.975 103.624 165.571 103.495 165.401 103.167L133.785 42.113C133.615 41.7844 133.743 41.3801 134.072 41.2099Z" fill="#101619"/>
<path d="M180.35 15.9517L205.991 78.8266C205.991 78.8266 254.563 70.0819 256.037 73.5695C256.037 73.5695 231.289 11.3216 229.446 10.7461L180.354 15.9517H180.35Z" fill="#2A4259"/>
<path d="M179.426 17.8207L210.063 78.4192C210.063 78.4192 257.768 65.7789 259.516 69.1334C259.516 69.1334 229.816 9.09318 227.934 8.66797L179.422 17.825L179.426 17.8207Z" fill="#D5DADD"/>
<path d="M251.243 52.5332C251.235 53.01 251.222 53.4824 251.201 53.9592C251.149 55.1746 251.063 56.3901 250.926 57.6013C250.792 58.7825 250.608 59.9593 250.346 61.119C250.097 62.2443 249.775 63.3567 249.358 64.4304C248.963 65.4526 248.473 66.4405 247.876 67.3639C247.292 68.2659 246.596 69.0991 245.802 69.825C245.681 69.9367 245.553 70.0354 245.424 70.1428C252.987 68.704 258.923 67.991 259.52 69.1335C259.52 69.1335 255.968 61.9522 251.239 52.5375L251.243 52.5332Z" fill="#2A4259"/>
<path d="M214.714 75.9274C213.228 74.9653 211.759 73.9731 210.342 72.908C208.938 71.8514 207.58 70.7218 206.322 69.4934C205.759 68.9479 205.222 68.381 204.703 67.7969L210.071 78.4142C210.071 78.4142 212.451 77.7828 216.162 76.8422C215.681 76.5373 215.2 76.2366 214.719 75.9274H214.714Z" fill="#2A4259"/>
<path d="M215.492 19.9261L198.604 23.0958C198.14 23.1817 197.616 22.9712 197.431 22.6276L197.418 22.6019C197.238 22.254 197.47 21.9018 197.934 21.8159L214.822 18.6462C215.286 18.5603 215.81 18.7707 215.994 19.1143L216.007 19.1401C216.188 19.488 215.956 19.8402 215.492 19.9261Z" fill="#101619"/>
<path d="M221.191 27.4243L201.799 31.0665C200.957 31.2254 200.008 30.8432 199.682 30.2161L199.055 29.0178C198.728 28.3907 199.145 27.7551 199.987 27.5962L219.379 23.954C220.221 23.7951 221.17 24.1773 221.496 24.8044L222.123 26.0027C222.45 26.6298 222.033 27.2654 221.191 27.4243Z" fill="#101619"/>
<path d="M234.635 53.2154L215.243 56.8576C214.401 57.0165 213.452 56.6342 213.125 56.0071L212.498 54.8088C212.172 54.1817 212.588 53.5461 213.43 53.3872L232.822 49.745C233.664 49.5861 234.613 49.9683 234.94 50.5954L235.567 51.7937C235.893 52.4208 235.477 53.0565 234.635 53.2154Z" fill="#101619"/>
<path d="M211.557 34.894L203.96 36.32C203.41 36.4231 202.787 36.174 202.577 35.7659L201.541 33.7773C201.327 33.3693 201.602 32.9527 202.151 32.8496L209.749 31.4237C210.299 31.3206 210.922 31.5697 211.132 31.9777L212.167 33.9663C212.382 34.3743 212.107 34.791 211.557 34.894Z" fill="#101619"/>
<path d="M214.246 40.0562L206.648 41.4821C206.099 41.5852 205.476 41.3361 205.265 40.928L204.23 38.9394C204.015 38.5314 204.29 38.1148 204.84 38.0117L212.438 36.5858C212.988 36.4827 213.611 36.7318 213.821 37.1398L214.856 39.1284C215.071 39.5365 214.796 39.9531 214.246 40.0562Z" fill="#101619"/>
<path d="M216.935 45.2144L209.337 46.6403C208.787 46.7434 208.164 46.4943 207.954 46.0862L206.919 44.0977C206.704 43.6896 206.979 43.273 207.529 43.1699L215.127 41.744C215.676 41.6409 216.299 41.89 216.51 42.298L217.545 44.2866C217.76 44.6947 217.485 45.1113 216.935 45.2144Z" fill="#101619"/>
<path d="M219.624 50.3726L212.026 51.7985C211.476 51.9016 210.853 51.6525 210.643 51.2445L209.608 49.2559C209.393 48.8478 209.668 48.4312 210.217 48.3281L217.815 46.9022C218.365 46.7991 218.988 47.0482 219.198 47.4562L220.233 49.4448C220.448 49.8529 220.173 50.2695 219.624 50.3726Z" fill="#101619"/>
<path fill-rule="evenodd" clip-rule="evenodd" d="M197.614 27.5608C197.854 27.4364 198.15 27.5303 198.274 27.7706L221.42 72.469C221.545 72.7093 221.451 73.005 221.21 73.1294C220.97 73.2539 220.674 73.1599 220.55 72.9196L197.404 28.2213C197.28 27.981 197.373 27.6853 197.614 27.5608Z" fill="#101619"/>
</svg>
