<?xml version="1.0" encoding="UTF-8"?>
<!--Generator: Apple Native CoreSVG 341-->
<!DOCTYPE svg
PUBLIC "-//W3C//DTD SVG 1.1//EN"
       "http://www.w3.org/Graphics/SVG/1.1/DTD/svg11.dtd">
<svg version="1.1" xmlns="http://www.w3.org/2000/svg" xmlns:xlink="http://www.w3.org/1999/xlink" viewBox="0 0 3300 2200">
 <!--glyph: "", point size: 100.0, font version: "21.0d4e1", template writer version: "138.0.0"-->
 <style>.defaults {-sfsymbols-draw-reverses-motion-groups:true}

.monochrome-0 {-sfsymbols-motion-group:1;-sfsymbols-layer-tags:-5f8bb28d36ce4f50}
.monochrome-1 {-sfsymbols-motion-group:0;-sfsymbols-layer-tags:-5f8bb28d36ce4f50}

.multicolor-0:tintColor {-sfsymbols-motion-group:1;-sfsymbols-layer-tags:-5f8bb28d36ce4f50}
.multicolor-1:tintColor {-sfsymbols-motion-group:0;-sfsymbols-layer-tags:-5f8bb28d36ce4f50}

.hierarchical-0:primary {-sfsymbols-motion-group:1;-sfsymbols-layer-tags:-5f8bb28d36ce4f50}
.hierarchical-1:primary {-sfsymbols-motion-group:0;-sfsymbols-layer-tags:-5f8bb28d36ce4f50}

.SFSymbolsPreviewWireframe {fill:none;opacity:1.0;stroke:black;stroke-width:0.5}
</style>
 <g id="Notes">
  <rect height="2200" id="artboard" style="fill:white;opacity:1" width="3300" x="0" y="0"/>
  <line style="fill:none;stroke:black;opacity:1;stroke-width:0.5;" x1="263" x2="3036" y1="292" y2="292"/>
  <text style="stroke:none;fill:black;font-family:sans-serif;font-size:13;font-weight:bold;" transform="matrix(1 0 0 1 263 322)">Weight/Scale Variations</text>
  <text style="stroke:none;fill:black;font-family:sans-serif;font-size:13;text-anchor:middle;" transform="matrix(1 0 0 1 559.711 322)">Ultralight</text>
  <text style="stroke:none;fill:black;font-family:sans-serif;font-size:13;text-anchor:middle;" transform="matrix(1 0 0 1 856.422 322)">Thin</text>
  <text style="stroke:none;fill:black;font-family:sans-serif;font-size:13;text-anchor:middle;" transform="matrix(1 0 0 1 1153.13 322)">Light</text>
  <text style="stroke:none;fill:black;font-family:sans-serif;font-size:13;text-anchor:middle;" transform="matrix(1 0 0 1 1449.84 322)">Regular</text>
  <text style="stroke:none;fill:black;font-family:sans-serif;font-size:13;text-anchor:middle;" transform="matrix(1 0 0 1 1746.56 322)">Medium</text>
  <text style="stroke:none;fill:black;font-family:sans-serif;font-size:13;text-anchor:middle;" transform="matrix(1 0 0 1 2043.27 322)">Semibold</text>
  <text style="stroke:none;fill:black;font-family:sans-serif;font-size:13;text-anchor:middle;" transform="matrix(1 0 0 1 2339.98 322)">Bold</text>
  <text style="stroke:none;fill:black;font-family:sans-serif;font-size:13;text-anchor:middle;" transform="matrix(1 0 0 1 2636.69 322)">Heavy</text>
  <text style="stroke:none;fill:black;font-family:sans-serif;font-size:13;text-anchor:middle;" transform="matrix(1 0 0 1 2933.4 322)">Black</text>
  <line style="fill:none;stroke:black;opacity:1;stroke-width:0.5;" x1="263" x2="3036" y1="1903" y2="1903"/>
  <g transform="matrix(0.2 0 0 0.2 263 1933)">
   <path d="m46.2402 4.15039c21.7773 0 39.4531-17.627 39.4531-39.4043s-17.6758-39.4043-39.4531-39.4043c-21.7285 0-39.4043 17.627-39.4043 39.4043s17.6758 39.4043 39.4043 39.4043Zm0-7.42188c-17.6758 0-31.9336-14.3066-31.9336-31.9824s14.2578-31.9824 31.9336-31.9824 31.9824 14.3066 31.9824 31.9824-14.3066 31.9824-31.9824 31.9824Zm3.61328-17.7734v-28.4668c0-2.24609-1.46484-3.75977-3.71094-3.75977-2.14844 0-3.61328 1.51367-3.61328 3.75977v28.4668c0 2.19727 1.46484 3.71094 3.61328 3.71094 2.24609 0 3.71094-1.51367 3.71094-3.71094Zm-17.8223-10.5957h28.418c2.19727 0 3.71094-1.46484 3.71094-3.61328 0-2.19727-1.51367-3.71094-3.71094-3.71094h-28.418c-2.24609 0-3.75977 1.51367-3.75977 3.71094 0 2.14844 1.51367 3.61328 3.75977 3.61328Z"/>
  </g>
  <g transform="matrix(0.2 0 0 0.2 281.506 1933)">
   <path d="m58.5449 14.5508c27.4902 0 49.8047-22.3145 49.8047-49.8047s-22.3145-49.8047-49.8047-49.8047-49.8047 22.3145-49.8047 49.8047 22.3145 49.8047 49.8047 49.8047Zm0-8.30078c-22.9492 0-41.5039-18.5547-41.5039-41.5039s18.5547-41.5039 41.5039-41.5039 41.5039 18.5547 41.5039 41.5039-18.5547 41.5039-41.5039 41.5039Zm4.05273-23.0957v-36.9141c0-2.49023-1.70898-4.19922-4.15039-4.19922-2.39258 0-4.05273 1.70898-4.05273 4.19922v36.9141c0 2.44141 1.66016 4.15039 4.05273 4.15039 2.44141 0 4.15039-1.66016 4.15039-4.15039Zm-22.5586-14.4043h36.9629c2.44141 0 4.15039-1.61133 4.15039-4.00391 0-2.44141-1.70898-4.15039-4.15039-4.15039h-36.9629c-2.49023 0-4.15039 1.70898-4.15039 4.15039 0 2.39258 1.66016 4.00391 4.15039 4.00391Z"/>
  </g>
  <g transform="matrix(0.2 0 0 0.2 304.924 1933)">
   <path d="m74.8535 28.3203c35.1074 0 63.623-28.4668 63.623-63.5742s-28.5156-63.623-63.623-63.623-63.5742 28.5156-63.5742 63.623 28.4668 63.5742 63.5742 63.5742Zm0-9.08203c-30.127 0-54.4922-24.3652-54.4922-54.4922s24.3652-54.4922 54.4922-54.4922 54.4922 24.3652 54.4922 54.4922-24.3652 54.4922-54.4922 54.4922Zm4.44336-30.3223v-48.4863c0-2.73438-1.85547-4.63867-4.54102-4.63867-2.58789 0-4.44336 1.9043-4.44336 4.63867v48.4863c0 2.68555 1.85547 4.58984 4.44336 4.58984 2.68555 0 4.54102-1.85547 4.54102-4.58984Zm-28.7109-19.7754h48.4863c2.68555 0 4.58984-1.80664 4.58984-4.39453 0-2.73438-1.85547-4.58984-4.58984-4.58984h-48.4863c-2.73438 0-4.58984 1.85547-4.58984 4.58984 0 2.58789 1.85547 4.39453 4.58984 4.39453Z"/>
  </g>
  <text style="stroke:none;fill:black;font-family:sans-serif;font-size:13;font-weight:bold;" transform="matrix(1 0 0 1 263 1953)">Design Variations</text>
  <text style="stroke:none;fill:black;font-family:sans-serif;font-size:13;" transform="matrix(1 0 0 1 263 1971)">Symbols are supported in up to nine weights and three scales.</text>
  <text style="stroke:none;fill:black;font-family:sans-serif;font-size:13;" transform="matrix(1 0 0 1 263 1989)">For optimal layout with text and other symbols, vertically align</text>
  <text style="stroke:none;fill:black;font-family:sans-serif;font-size:13;" transform="matrix(1 0 0 1 263 2007)">symbols with the adjacent text.</text>
  <line style="fill:none;stroke:#00AEEF;stroke-width:0.5;opacity:1.0;" x1="776" x2="776" y1="1919" y2="1933"/>
  <g transform="matrix(0.2 0 0 0.2 776 1933)">
   <path d="m16.5527 0.78125c2.58789 0 3.85742-0.976562 4.78516-3.71094l20.5566-57.5195h0.244141l20.6055 57.5195c0.927734 2.73438 2.19727 3.71094 4.73633 3.71094 2.58789 0 4.24805-1.5625 4.24805-4.00391 0-0.830078-0.146484-1.61133-0.537109-2.63672l-22.9004-60.9863c-1.12305-2.97852-3.125-4.49219-6.25-4.49219-3.02734 0-5.07812 1.46484-6.15234 4.44336l-22.9004 61.084c-0.390625 1.02539-0.537109 1.80664-0.537109 2.63672 0 2.44141 1.5625 3.95508 4.10156 3.95508Zm10.2051-20.9473h30.6641c2.00195 0 3.66211-1.66016 3.66211-3.66211 0-2.05078-1.66016-3.66211-3.66211-3.66211h-30.6641c-2.00195 0-3.66211 1.61133-3.66211 3.66211 0 2.00195 1.66016 3.66211 3.66211 3.66211Z"/>
  </g>
  <line style="fill:none;stroke:#00AEEF;stroke-width:0.5;opacity:1.0;" x1="792.836" x2="792.836" y1="1919" y2="1933"/>
  <text style="stroke:none;fill:black;font-family:sans-serif;font-size:13;font-weight:bold;" transform="matrix(1 0 0 1 776 1953)">Margins</text>
  <text style="stroke:none;fill:black;font-family:sans-serif;font-size:13;" transform="matrix(1 0 0 1 776 1971)">Leading and trailing margins on the left and right side of each symbol</text>
  <text style="stroke:none;fill:black;font-family:sans-serif;font-size:13;" transform="matrix(1 0 0 1 776 1989)">can be adjusted by modifying the x-location of the margin guidelines.</text>
  <text style="stroke:none;fill:black;font-family:sans-serif;font-size:13;" transform="matrix(1 0 0 1 776 2007)">Modifications are automatically applied proportionally to all</text>
  <text style="stroke:none;fill:black;font-family:sans-serif;font-size:13;" transform="matrix(1 0 0 1 776 2025)">scales and weights.</text>
  <g transform="matrix(0.2 0 0 0.2 1289 1933)">
   <path d="m14.209 13.1348 7.86133 7.86133c4.29688 4.39453 9.32617 4.10156 13.8672-1.02539l60.6934-68.2129-4.88281-4.88281-60.2539 67.6758c-1.80664 1.95312-3.4668 2.44141-5.81055 0.0976562l-5.17578-5.12695c-2.29492-2.29492-1.80664-3.95508 0.195312-5.81055l67.4805-62.1582-4.88281-4.83398-68.0664 62.5977c-4.98047 4.58984-5.32227 9.47266-1.02539 13.8184Zm44.873-97.4609c-2.05078 2.00195-2.24609 4.88281-1.07422 6.78711 1.12305 1.80664 3.4668 3.02734 6.5918 2.24609 5.85938-1.66016 12.5977-2.39258 18.8965 0.927734l-2.68555 7.12891c-1.61133 4.00391-0.732422 6.88477 1.70898 9.42383l10.2539 10.3027c2.34375 2.39258 4.54102 2.44141 7.08008 1.95312l4.44336-0.732422 2.58789 2.53906-0.195312 2.24609c-0.0976562 2.29492 0.537109 4.29688 2.7832 6.49414l3.36914 3.32031c2.29492 2.29492 5.51758 2.49023 7.8125 0.195312l12.9883-13.0371c2.29492-2.34375 2.14844-5.37109-0.195312-7.66602l-3.41797-3.41797c-2.19727-2.19727-4.05273-3.02734-6.34766-2.88086l-2.34375 0.244141-2.44141-2.44141 1.02539-4.6875c0.634766-2.73438-0.244141-4.98047-2.88086-7.61719l-11.2793-11.1816c-12.9395-12.8418-35.5957-11.0352-46.6797-0.146484Zm7.08008 2.05078c8.78906-6.39648 25.9766-5.66406 33.6914 1.95312l12.3047 12.207c1.02539 1.02539 1.2207 1.80664 0.927734 3.32031l-1.46484 6.64062 6.73828 6.68945 4.39453-0.244141c1.12305-0.0488281 1.51367 0.0488281 2.34375 0.878906l2.53906 2.49023-10.8398 10.8398-2.49023-2.49023c-0.830078-0.878906-0.976562-1.2207-0.927734-2.39258l0.292969-4.3457-6.68945-6.73828-6.83594 1.17188c-1.41602 0.292969-2.05078 0.195312-3.17383-0.878906l-8.93555-8.88672c-1.07422-1.02539-1.17188-1.70898-0.488281-3.36914l4.58984-11.4746c-6.10352-6.34766-17.041-7.51953-25.5859-4.58984-0.683594 0.244141-0.927734-0.390625-0.390625-0.78125Z"/>
  </g>
  <text style="stroke:none;fill:black;font-family:sans-serif;font-size:13;font-weight:bold;" transform="matrix(1 0 0 1 1289 1953)">Exporting</text>
  <text style="stroke:none;fill:black;font-family:sans-serif;font-size:13;" transform="matrix(1 0 0 1 1289 1971)">Symbols should be outlined when exporting to ensure the</text>
  <text style="stroke:none;fill:black;font-family:sans-serif;font-size:13;" transform="matrix(1 0 0 1 1289 1989)">design is preserved when submitting to Xcode.</text>
  <text id="template-version" style="stroke:none;fill:black;font-family:sans-serif;font-size:13;text-anchor:end;" transform="matrix(1 0 0 1 3036 1933)">Template v.5.0</text>
  <text style="stroke:none;fill:black;font-family:sans-serif;font-size:13;text-anchor:end;" transform="matrix(1 0 0 1 3036 1951)">Requires Xcode 15 or greater</text>
  <text id="descriptive-name" style="stroke:none;fill:black;font-family:sans-serif;font-size:13;text-anchor:end;" transform="matrix(1 0 0 1 3036 1969)">Generated from fiori.biometric.face</text>
  <text style="stroke:none;fill:black;font-family:sans-serif;font-size:13;text-anchor:end;" transform="matrix(1 0 0 1 3036 1987)">Typeset at 100.0 points</text>
  <text style="stroke:none;fill:black;font-family:sans-serif;font-size:13;" transform="matrix(1 0 0 1 263 726)">Small</text>
  <text style="stroke:none;fill:black;font-family:sans-serif;font-size:13;" transform="matrix(1 0 0 1 263 1156)">Medium</text>
  <text style="stroke:none;fill:black;font-family:sans-serif;font-size:13;" transform="matrix(1 0 0 1 263 1586)">Large</text>
 </g>
 <g id="Guides">
  <g id="H-reference" style="fill:#27AAE1;stroke:none;" transform="matrix(1 0 0 1 339 696)">
   <path d="M0.993654 0L3.63775 0L29.3281-67.1323L30.0303-67.1323L30.0303-70.459L28.1226-70.459ZM11.6885-24.4799L46.9815-24.4799L46.2315-26.7285L12.4385-26.7285ZM55.1196 0L57.7637 0L30.6382-70.459L29.4326-70.459L29.4326-67.1323Z"/>
  </g>
  <line id="Baseline-S" style="fill:none;stroke:#27AAE1;opacity:1;stroke-width:0.5;" x1="263" x2="3036" y1="696" y2="696"/>
  <line id="Capline-S" style="fill:none;stroke:#27AAE1;opacity:1;stroke-width:0.5;" x1="263" x2="3036" y1="625.541" y2="625.541"/>
  <g id="H-reference" style="fill:#27AAE1;stroke:none;" transform="matrix(1 0 0 1 339 1126)">
   <path d="M0.993654 0L3.63775 0L29.3281-67.1323L30.0303-67.1323L30.0303-70.459L28.1226-70.459ZM11.6885-24.4799L46.9815-24.4799L46.2315-26.7285L12.4385-26.7285ZM55.1196 0L57.7637 0L30.6382-70.459L29.4326-70.459L29.4326-67.1323Z"/>
  </g>
  <line id="Baseline-M" style="fill:none;stroke:#27AAE1;opacity:1;stroke-width:0.5;" x1="263" x2="3036" y1="1126" y2="1126"/>
  <line id="Capline-M" style="fill:none;stroke:#27AAE1;opacity:1;stroke-width:0.5;" x1="263" x2="3036" y1="1055.54" y2="1055.54"/>
  <g id="H-reference" style="fill:#27AAE1;stroke:none;" transform="matrix(1 0 0 1 339 1556)">
   <path d="M0.993654 0L3.63775 0L29.3281-67.1323L30.0303-67.1323L30.0303-70.459L28.1226-70.459ZM11.6885-24.4799L46.9815-24.4799L46.2315-26.7285L12.4385-26.7285ZM55.1196 0L57.7637 0L30.6382-70.459L29.4326-70.459L29.4326-67.1323Z"/>
  </g>
  <line id="Baseline-L" style="fill:none;stroke:#27AAE1;opacity:1;stroke-width:0.5;" x1="263" x2="3036" y1="1556" y2="1556"/>
  <line id="Capline-L" style="fill:none;stroke:#27AAE1;opacity:1;stroke-width:0.5;" x1="263" x2="3036" y1="1485.54" y2="1485.54"/>
  <line id="right-margin-Black-S" style="fill:none;stroke:#00AEEF;stroke-width:0.5;opacity:1.0;" x1="2981.9" x2="2981.9" y1="600.785" y2="720.121"/>
  <line id="left-margin-Black-S" style="fill:none;stroke:#00AEEF;stroke-width:0.5;opacity:1.0;" x1="2884.9" x2="2884.9" y1="600.785" y2="720.121"/>
  <line id="right-margin-Regular-S" style="fill:none;stroke:#00AEEF;stroke-width:0.5;opacity:1.0;" x1="1496.29" x2="1496.29" y1="600.785" y2="720.121"/>
  <line id="left-margin-Regular-S" style="fill:none;stroke:#00AEEF;stroke-width:0.5;opacity:1.0;" x1="1403.39" x2="1403.39" y1="600.785" y2="720.121"/>
  <line id="right-margin-Ultralight-S" style="fill:none;stroke:#00AEEF;stroke-width:0.5;opacity:1.0;" x1="604.411" x2="604.411" y1="600.785" y2="720.121"/>
  <line id="left-margin-Ultralight-S" style="fill:none;stroke:#00AEEF;stroke-width:0.5;opacity:1.0;" x1="515.011" x2="515.011" y1="600.785" y2="720.121"/>
 </g>
 <g id="Symbols">
  <g id="Black-S" transform="matrix(1 0 0 1 2884.9 696)">
   <path class="monochrome-0 multicolor-0:tintColor hierarchical-0:primary SFSymbolsPreviewWireframe" d="M85.51-53C82.01-53 78.61-55.8 78.61-59.9L78.61-63.9C78.61-64.5 78.61-65.3 78.61-65.3L73.21-65.3C69.11-65.3 66.31-68.6 66.31-72.2C66.31-76.1 69.31-79.1 73.21-79.1L80.41-79.1C87.11-79.1 92.51-73.7 92.51-67L92.51-59.8C92.41-55.3 88.61-53 85.51-53ZM80.41 8.7L73.21 8.7C69.11 8.7 66.31 5.5 66.31 1.8C66.31-1.9 69.31-5.1 73.21-5.1L77.51-5.1C78.11-5.1 78.61-5.1 78.61-5.1L78.61-10.5C78.61-14.6 82.01-17.4 85.51-17.4C89.01-17.4 92.41-14.6 92.41-10.5L92.41-3.3C92.41 3.3 87.01 8.7 80.41 8.7ZM23.81 8.7L16.61 8.7C9.91 8.7 4.51 3.3 4.51-3.4L4.51-10.6C4.51-14.2 7.41-17.5 11.41-17.5C15.31-17.5 18.31-14.4 18.31-10.6L18.31-5.2C18.31-5.2 19.41-5.2 20.01-5.2L23.71-5.2C27.51-5.2 30.61-2.2 30.61 1.7C30.81 5.6 27.71 8.7 23.81 8.7ZM11.21-53C7.81-53 4.61-56.1 4.61-59.9L4.61-67.1C4.61-73.8 10.01-79.2 16.71-79.2L23.91-79.2C28.21-79.2 30.81-75.6 30.81-72.3C30.81-68 27.21-65.4 23.91-65.4L18.51-65.4C18.51-65.4 18.51-64.9 18.51-64.4L18.51-60C18.41-55.8 15.51-53 11.21-53Z"/>
   <path class="monochrome-1 multicolor-1:tintColor hierarchical-1:primary SFSymbolsPreviewWireframe" d="M48.61-6.7C39.11-6.7 32.21-10.5 27.01-16.1C25.51-17.8 23.51-22.4 27.41-25.9C31.51-29.5 35.71-27.2 37.21-25.5C40.81-21.5 44.81-20.5 48.61-20.5C52.11-20.5 56.41-21.5 59.91-25.4C61.61-27.3 66.11-28.9 69.71-25.7C71.61-24 73.51-19.4 70.01-15.9C64.71-10.6 57.71-6.7 48.61-6.7ZM45.31-27.6C41.01-27.8 39.21-31.1 38.71-33C38.21-35.2 38.61-39.7 43.91-41.4C45.41-41.9 45.71-42.2 45.71-42.2L45.71-52C45.71-55.9 48.81-58.9 52.61-58.9C57.01-58.9 59.51-55.3 59.51-52L59.51-41.4C59.41-33.9 53.11-29.2 46.91-27.8C46.81-27.7 45.61-27.6 45.31-27.6ZM29.01-37.6C25.21-37.6 22.11-40.7 22.11-44.5L22.11-51.7C22.11-55.5 25.21-58.6 29.01-58.6C32.81-58.6 35.91-55.5 35.91-51.7L35.91-44.5C35.91-40.7 32.81-37.6 29.01-37.6ZM68.01-37.6C64.21-37.6 61.11-40.7 61.11-44.5L61.11-51.7C61.11-55.5 64.21-58.6 68.01-58.6C71.81-58.6 74.91-55.5 74.91-51.7L74.91-44.5C75.01-40.7 71.91-37.6 68.01-37.6Z"/>
  </g>
  <g id="Regular-S" transform="matrix(1 0 0 1 1403.39 696)">
   <path class="monochrome-0 multicolor-0:tintColor hierarchical-0:primary SFSymbolsPreviewWireframe" d="M83.46-55.8C81.16-55.8 79.36-57.6 79.36-59.9L79.36-67.1C79.36-67.7 78.86-68.1 78.36-68.1L71.16-68.1C68.86-68.1 67.06-69.9 67.06-72.2C67.06-74.5 68.86-76.3 71.16-76.3L78.36-76.3C83.46-76.3 87.66-72.1 87.66-67L87.66-59.8C87.66-57.7 85.76-55.8 83.46-55.8ZM78.36 5.9L71.16 5.9C68.86 5.9 67.06 4.1 67.06 1.8C67.06-0.5 68.86-2.3 71.16-2.3L78.36-2.3C78.96-2.3 79.36-2.8 79.36-3.3L79.36-10.5C79.36-12.8 81.16-14.6 83.46-14.6C85.76-14.6 87.56-12.8 87.56-10.5L87.56-3.3C87.66 1.7 83.46 5.9 78.36 5.9ZM21.86 5.9L14.66 5.9C9.56 5.9 5.36 1.7 5.36-3.4L5.36-10.6C5.36-12.9 7.16-14.7 9.46-14.7C11.76-14.7 13.56-12.9 13.56-10.6L13.56-3.4C13.56-2.8 14.06-2.4 14.56-2.4L21.76-2.4C24.06-2.4 25.86-0.6 25.86 1.7C25.96 4 24.06 5.9 21.86 5.9ZM9.46-55.8C7.16-55.8 5.36-57.6 5.36-59.9L5.36-67.1C5.36-72.2 9.56-76.4 14.66-76.4L21.86-76.4C24.16-76.4 25.96-74.6 25.96-72.3C25.96-70 24.16-68.2 21.86-68.2L14.66-68.2C14.06-68.2 13.66-67.7 13.66-67.2L13.66-60C13.56-57.7 11.76-55.8 9.46-55.8Z"/>
   <path class="monochrome-1 multicolor-1:tintColor hierarchical-1:primary SFSymbolsPreviewWireframe" d="M46.56-9.5C38.76-9.5 32.26-12.4 27.06-18C25.56-19.7 25.66-22.3 27.26-23.8C28.96-25.3 31.56-25.2 33.06-23.6C36.66-19.6 41.16-17.7 46.56-17.7C51.76-17.7 56.26-19.7 59.96-23.5C61.56-25.2 64.16-25.2 65.76-23.7C67.46-22.1 67.46-19.5 65.96-17.9C60.76-12.5 54.06-9.5 46.56-9.5ZM43.46-30.4C41.56-30.4 39.86-31.7 39.46-33.6C38.96-35.8 40.36-38 42.56-38.5C45.06-39.1 46.56-40.5 46.56-41.4L46.56-52C46.56-54.3 48.36-56.1 50.66-56.1C52.96-56.1 54.76-54.3 54.76-52L54.76-41.4C54.76-36.3 50.56-32 44.36-30.5C44.16-30.4 43.86-30.4 43.46-30.4ZM26.96-40.4C24.66-40.4 22.86-42.2 22.86-44.5L22.86-51.7C22.86-54 24.66-55.8 26.96-55.8C29.26-55.8 31.06-54 31.06-51.7L31.06-44.5C31.06-42.2 29.26-40.4 26.96-40.4ZM66.06-40.4C63.76-40.4 61.96-42.2 61.96-44.5L61.96-51.7C61.96-54 63.76-55.8 66.06-55.8C68.36-55.8 70.16-54 70.16-51.7L70.16-44.5C70.16-42.2 68.26-40.4 66.06-40.4Z"/>
  </g>
  <g id="Ultralight-S" transform="matrix(1 0 0 1 515.011 696)">
   <path class="monochrome-0 multicolor-0:tintColor hierarchical-0:primary SFSymbolsPreviewWireframe" d="M81.775-58.6C80.875-58.6 80.475-59.4 80.475-59.9L80.475-67.1C80.475-69.2 78.775-71 76.575-71L69.375-71C68.875-71 68.075-71.5 68.075-72.3C68.075-73.2 68.875-73.6 69.375-73.6L76.575-73.6C80.075-73.6 82.975-70.7 82.975-67.2L82.975-60C83.075-59.1 82.275-58.6 81.775-58.6ZM76.575 3L69.375 3C68.475 3 68.075 2.2 68.075 1.7C68.075 0.8 68.675 0.4 69.675 0.4L76.475 0.4C78.575 0.4 80.375-1.3 80.375-3.5L80.375-10.7C80.375-11.5 81.075-12 81.675-12C82.275-12 82.975-11.5 82.975-10.7L82.975-3.5C83.075 0.2 80.175 3 76.575 3ZM20.075 3L12.875 3C9.375 3 6.475 0.2 6.475-3.4L6.475-10.6C6.475-11.3 6.975-11.9 7.675-11.9C8.275-11.9 9.075-11.4 9.075-10.6L9.075-3.4C9.075-1.3 10.775 0.5 12.975 0.5L20.175 0.5C20.875 0.5 21.475 1 21.475 1.7C21.375 2.5 20.775 3 20.075 3ZM7.775-58.6C7.075-58.6 6.475-59.2 6.475-59.9L6.475-67.1C6.475-70.6 9.375-73.5 12.875-73.5L20.075-73.5C20.675-73.5 21.375-73.1 21.375-72.2C21.375-71.4 20.775-70.9 20.075-70.9L12.875-70.9C10.775-71 8.975-69.2 8.975-67.1L8.975-59.9C8.975-59.2 8.475-58.6 7.775-58.6Z"/>
   <path class="monochrome-1 multicolor-1:tintColor hierarchical-1:primary SFSymbolsPreviewWireframe" d="M44.775-12.4C37.075-12.4 31.675-15.4 27.375-20C26.875-20.5 26.875-21.3 27.375-21.8C27.775-22.1 28.575-22.4 29.175-21.7C32.675-17.7 38.175-14.9 44.775-14.9C49.975-15 55.375-16.6 60.175-21.6C60.675-22.1 61.475-22.1 61.975-21.7C62.375-21.4 62.575-20.5 62.075-19.9C57.575-15.2 51.775-12.4 44.775-12.4ZM41.775-33.2C41.475-33.2 40.675-33.5 40.575-34.2C40.475-34.9 40.875-35.6 41.575-35.7C44.775-36.4 47.775-38.7 47.775-41.3L47.775-52C47.775-52.7 48.275-53.2 48.975-53.2C49.775-53.2 50.375-52.6 50.375-51.9L50.375-41.3C50.375-37.2 46.675-34.3 42.175-33.2C41.775-33.2 42.075-33.2 41.775-33.2ZM25.175-43.2C24.475-43.2 23.875-43.8 23.875-44.5L23.875-51.7C23.875-52.4 24.475-53 25.175-53C25.875-53 26.475-52.4 26.475-51.7L26.475-44.5C26.475-43.8 25.875-43.2 25.175-43.2ZM64.275-43.2C63.575-43.2 62.975-43.8 62.975-44.5L62.975-51.7C62.975-52.4 63.575-53 64.275-53C64.975-53 65.575-52.4 65.575-51.7L65.575-44.5C65.575-43.8 64.975-43.2 64.275-43.2Z"/>
  </g>
 </g>
</svg>
