<svg width="128" height="68" viewBox="0 0 128 68" fill="none" xmlns="http://www.w3.org/2000/svg">
<rect y="12.0859" width="128" height="55.2" rx="8" fill="#89D1FF"/>
<g clip-path="url(#clip0_4011_81846)">
<path d="M69.8492 28.0542L94.7862 19.7067L83.9435 9.82731L77.9252 11.2524L77.5481 11.3421L68.1526 13.5671C68.1526 13.5671 68.1243 13.7901 68.0822 14.177L67.7968 14.2242L64.8609 15.0953C64.8609 15.0953 64.8564 15.3219 64.8514 15.7081C63.6413 15.772 62.5121 16.2809 62.5121 16.2809C56.8567 17.2264 48.5305 18.5491 48.5305 18.5491C47.4782 18.4372 45.8207 20.7537 45.8207 20.7537L41.3869 24.4143C41.3023 24.4838 41.2288 24.5651 41.1678 24.6541L39.1846 27.581C39.0885 27.7042 38.994 27.828 38.9049 27.957L38.2816 28.8581L40.0791 29.2083L40.2736 29.2461L37.7693 28.7579L35.9857 35.9668C35.7626 35.9947 35.6394 36.0103 35.6394 36.0103C35.6394 36.0103 35.649 35.399 35.5222 34.6641C35.3946 33.9291 34.8272 33.6123 33.386 33.8055C31.9447 33.9987 25.9539 34.9357 25.9539 34.9357C25.9539 34.9357 25.0703 35.3337 25.098 36.0422C25.125 36.7501 25.2046 38.2019 25.2046 38.2019C25.2046 38.2019 25.0507 38.2287 24.8412 38.329C24.133 38.6683 23.7509 39.4245 23.8722 40.1734L24.196 42.1807L24.6937 45.5412L26.6845 64.1522L27.2509 64.0649L27.3567 65.0507L27.5756 65.0168L27.7354 66.0977L27.7456 66.1056C27.7829 66.2584 27.8548 66.4037 27.9632 66.5292C28.0102 66.5843 28.0656 66.6376 28.1246 66.6884C28.1844 66.7399 28.248 66.7898 28.3211 66.8332C28.5633 66.9785 28.8816 67.0705 29.2976 67.0424C29.2983 67.0424 29.2999 67.0423 29.3006 67.0423C29.3173 67.0416 29.3393 67.0392 29.3635 67.0367C29.3688 67.0365 29.3733 67.0363 29.3794 67.0353C29.4043 67.0328 29.4331 67.0301 29.4641 67.0266C29.4732 67.0262 29.4823 67.0243 29.4921 67.0239C29.5247 67.0203 29.5595 67.0167 29.598 67.0121C29.6094 67.0109 29.6207 67.0096 29.6321 67.0084C29.6729 67.0037 29.716 66.999 29.7629 66.9933C29.7743 66.9921 29.7871 66.9908 29.7984 66.9888C29.8408 66.9841 29.8854 66.9785 29.9323 66.9728C29.9459 66.9715 29.9587 66.9694 29.9731 66.9681C30.0283 66.9613 30.0873 66.9544 30.1485 66.9466C30.1652 66.9444 30.1811 66.943 30.1977 66.9408C30.2567 66.9339 30.3187 66.9261 30.383 66.9182C30.4071 66.9149 30.4321 66.9124 30.4571 66.9091C30.5221 66.9012 30.5886 66.8932 30.6582 66.8843C30.6824 66.8811 30.7073 66.8778 30.7323 66.8753C30.7995 66.8665 30.8676 66.8584 30.9387 66.8495C30.9538 66.8474 30.9674 66.8461 30.9825 66.8439C31.0672 66.8329 31.1556 66.8218 31.2456 66.8105C31.2637 66.8083 31.2819 66.8061 31.3008 66.8038C31.3915 66.7925 31.4845 66.7804 31.5797 66.7682C31.6024 66.765 31.6251 66.7626 31.6485 66.7594C31.7438 66.7472 31.8413 66.7349 31.9411 66.7218C31.969 66.7184 31.9977 66.7142 32.0257 66.7108C32.1202 66.6986 32.2162 66.6864 32.3145 66.6733C32.3364 66.6702 32.3591 66.6677 32.3817 66.6646C32.6183 66.6338 32.8663 66.6018 33.1233 66.5679C33.1406 66.5656 33.158 66.5634 33.1754 66.5612C39.7952 65.6962 52.8756 63.9171 57.3379 63.3084C57.4052 63.2996 57.4702 63.2901 57.5336 63.2815C57.5994 63.2728 57.6621 63.2642 57.7233 63.2556C58.4548 63.1555 58.8712 63.0993 58.8712 63.0993C58.8712 63.0993 59.4684 62.7576 59.3781 61.4582C59.3615 61.2157 59.2765 60.3666 59.1491 59.1461C59.1479 59.134 59.1466 59.1219 59.1454 59.1098C59.1254 58.916 59.1036 58.7133 59.0814 58.5022C59.0801 58.4886 59.0788 58.4749 59.0775 58.4613C59.0318 58.0247 58.9817 57.5534 58.929 57.0555C58.8863 56.6538 58.8413 56.2346 58.795 55.8019C58.7524 55.4039 58.7086 54.9954 58.6638 54.5785C58.6615 54.5604 58.66 54.5422 58.6578 54.524C58.6275 54.2434 58.597 53.9589 58.5665 53.6714C58.5024 53.0782 58.4378 52.4745 58.3724 51.8685C58.3397 51.5659 58.307 51.2625 58.2743 50.9599C58.2572 50.7995 58.2394 50.6391 58.2223 50.4787C58.0275 48.6782 57.836 46.9208 57.6747 45.441C57.6613 45.317 57.6481 45.1952 57.6349 45.0756C57.6207 44.9485 57.6073 44.8237 57.594 44.7012C57.381 42.7486 57.2371 41.4368 57.2371 41.4368C57.2371 41.4368 57.1914 40.8506 56.6481 40.4522C56.5181 40.3564 56.359 40.2724 56.1657 40.2087C56.1119 39.7596 56.0604 39.33 56.0115 38.9263C55.7352 36.6282 55.5527 35.1136 55.5527 35.1136C55.5527 35.1136 55.4901 34.2933 54.6156 33.9348C54.6109 33.9328 54.6048 33.9315 54.6001 33.9294C54.2596 33.7934 53.7979 33.7261 53.1711 33.803C52.8617 33.4013 52.3417 33.1685 51.7883 33.2386L50.6014 33.3881L50.9909 31.8133L51.1039 31.3551L50.891 31.3135C50.9065 31.3008 50.9212 31.2888 50.9366 31.276C50.9374 31.276 50.9389 31.2744 50.9396 31.2736C51.0117 31.2145 51.0815 31.157 51.1507 31.0995C51.1507 31.0995 51.1514 31.0994 51.1521 31.0986C51.358 30.927 51.5489 30.7628 51.7222 30.6122C51.7251 30.6098 51.7281 30.6067 51.7318 30.6042C51.7861 30.5565 51.8389 30.5103 51.8896 30.4657C51.8947 30.4617 51.8991 30.4569 51.9042 30.4529C51.9541 30.4091 52.0018 30.3662 52.048 30.3248C52.051 30.3224 52.0539 30.32 52.0568 30.3169C52.103 30.2755 52.147 30.2357 52.1888 30.1976C52.1895 30.1975 52.1902 30.196 52.191 30.1952C52.232 30.1578 52.2701 30.1229 52.306 30.0895C52.3104 30.0855 52.3148 30.0816 52.3184 30.0776C52.3522 30.0466 52.3844 30.0172 52.4137 29.9895C52.4188 29.9847 52.4232 29.9807 52.4283 29.9759C52.4569 29.9497 52.4832 29.9244 52.5067 29.9021C52.5103 29.8989 52.5132 29.8958 52.5169 29.8926C52.5403 29.8696 52.5623 29.849 52.5813 29.8307C53.3133 29.119 56.2374 28.9763 59.1869 27.895C62.1356 26.8136 63.5957 25.5969 63.5957 25.5969L65.1639 25.3675C65.2336 25.7582 65.3181 26.0261 65.4199 26.1215C65.9181 26.5878 67.3962 26.1781 68.359 25.8392C68.4294 26.04 68.5068 26.2276 68.5919 26.3974C68.5919 26.3974 69.1631 27.8463 69.8153 28.0617C69.8292 28.0664 69.8419 28.0621 69.8553 28.054L69.8492 28.0542ZM49.4497 27.5746C49.0493 27.821 48.5365 28.1265 47.7107 28.6384C47.7099 28.6385 47.7092 28.6393 47.7085 28.64C47.6484 28.6774 47.5877 28.7156 47.5246 28.7546L47.5583 28.7046C47.5583 28.7046 48.2571 27.9607 48.8811 27.058L50.438 26.9263C50.1499 27.1316 49.8293 27.339 49.4497 27.5746ZM44.5804 29.607L44.4021 30.0488L44.2635 30.0217L44.5804 29.607ZM42.0349 29.5878L42.6058 28.8005L42.5312 28.9106C42.3827 29.1293 42.2677 29.368 42.1912 29.6188L41.5287 29.4896L42.035 29.5886L42.0349 29.5878Z" fill="#1B90FF"/>
<path d="M34.0979 33.9852C34.0979 33.9852 33.9304 34.0155 33.7032 34.1288C32.9345 34.5115 32.5205 35.3662 32.6527 36.215L37.0873 64.5759C37.0873 64.5759 37.5881 66.2783 37.775 66.2586C39.3238 66.0968 69.9065 61.8494 69.9065 61.8494C69.9065 61.8494 70.5543 61.4639 70.4541 59.9924C70.3538 58.5201 67.0708 30.5474 67.0708 30.5474C67.0708 30.5474 66.9362 28.7498 64.4799 29.059C62.0237 29.3683 45.4336 31.5241 45.4336 31.5241C45.4336 31.5241 45.443 30.8323 45.3039 29.9998C45.164 29.1673 44.547 28.8076 42.9806 29.0241C41.4149 29.2406 34.9059 30.2896 34.9059 30.2896C34.9059 30.2896 33.9468 30.7385 33.9775 31.5404C34.0082 32.3423 34.0979 33.986 34.0979 33.986L34.0979 33.9852Z" fill="#0899A7"/>
<path d="M64.9501 31.1294C64.9488 31.1165 64.949 31.1044 64.947 31.0923L64.8544 30.3749L64.8543 30.3734L64.7807 29.8088C64.6661 28.9259 63.8577 28.3027 62.9748 28.4172L56.6752 29.2344C55.7924 29.3489 55.1691 30.1574 55.2837 31.0403L55.3885 31.8506L35.1414 35.0106C34.7087 35.0781 34.4055 35.4725 34.4511 35.9076L37.1524 61.811L68.2238 56.87L64.95 31.1286L64.9501 31.1294Z" fill="#FFDF72"/>
<path d="M36.2726 62.3719L33.5403 36.1703C33.5121 35.9025 33.6991 35.6594 33.9656 35.6175L63.4595 31.0143C63.7412 30.9703 64.0036 31.1679 64.0393 31.4506L67.3441 57.4316" fill="white"/>
<path d="M63.5248 32.5046C63.5248 32.4278 63.5202 32.3513 63.5079 32.2735L63.3938 31.5699C63.2666 30.7878 62.5294 30.2567 61.7474 30.3839L57.7201 31.0398C56.938 31.167 56.4069 31.9041 56.5341 32.6862L56.5846 32.9987L33.7816 36.5578C33.3263 36.6286 33.0057 37.0449 33.0537 37.5035L35.7504 63.3653L66.8218 58.4243L63.5248 32.5046Z" fill="#FFF8D6"/>
<path d="M39.0014 65.061L36.3071 39.2188C36.2579 38.7497 36.5857 38.3239 37.0516 38.2512L65.8017 33.7638C66.2948 33.6869 66.7547 34.0324 66.8179 34.5276L70.0736 60.1207" fill="#FFF8D6"/>
<path d="M47.7342 23.3183L43.8687 39.6924L58.2614 43.0897L62.228 26.2845L47.7342 23.3183Z" fill="#FFF8D6"/>
<path d="M60.7017 30.6162C59.0812 31.3599 57.4161 32.0317 55.6704 32.4196C54.7727 32.619 53.8708 32.7131 52.9549 32.7811C51.9352 32.8563 50.9134 32.9171 49.8906 32.9172C48.4348 32.918 46.9863 32.778 45.5831 32.4256L43.8679 39.6925L58.2598 43.0898L61.2663 30.3527C61.0784 30.4408 60.8897 30.5289 60.7009 30.6155L60.7017 30.6162Z" fill="#FFDF72"/>
<path d="M36.483 64.3852L33.7887 38.543C33.7394 38.0739 34.0673 37.6481 34.5332 37.5755L63.2833 33.088C63.7764 33.0112 64.2363 33.3566 64.2995 33.8518L67.5552 59.4449" fill="white"/>
<path d="M35.9364 41.1463C35.9364 41.1463 35.7297 41.1835 35.4644 41.331C34.7448 41.7284 34.3652 42.5476 34.4823 43.362L37.6384 65.2702L37.0847 64.5767L37.0136 64.7163C36.791 65.1515 36.8321 65.6833 37.1436 66.0605C37.42 66.3952 37.8712 66.6946 38.5948 66.6435C40.1481 66.5347 70.7263 62.2343 70.7263 62.2343C70.7263 62.2343 71.3741 61.8488 71.2739 60.3773C71.1736 58.9049 68.9101 37.7093 68.9101 37.7093C68.9101 37.7093 68.7755 35.9116 66.3192 36.2209C63.863 36.5301 47.2729 38.6859 47.2729 38.6859C47.2729 38.6859 47.2823 37.9941 47.1432 37.1616C47.0034 36.3291 46.3863 35.9695 44.8199 36.186C43.2542 36.4024 36.7452 37.4514 36.7452 37.4514C36.7452 37.4514 35.7861 37.9003 35.8168 38.7022C35.8475 39.5041 35.9372 41.1478 35.9372 41.1478L35.9364 41.1463Z" fill="#0899A7"/>
<path fill-rule="evenodd" clip-rule="evenodd" d="M43.3146 61.9625C43.1477 61.9359 42.9903 61.8735 42.8522 61.7824C42.8162 61.7587 42.7816 61.7331 42.7485 61.7057C42.621 61.6002 42.5153 61.4679 42.4411 61.3161C42.4284 61.2902 42.4167 61.2638 42.406 61.2369C42.3745 61.158 42.3513 61.0746 42.3375 60.9875L41.9814 58.7392C42.6117 58.6506 43.2035 59.0884 43.3031 59.7172L43.4789 60.827L44.5635 60.6746C45.1939 60.586 45.7856 61.0239 45.8852 61.6526L43.6592 61.9655C43.5718 61.9777 43.4852 61.9799 43.4006 61.9729C43.3717 61.9705 43.343 61.967 43.3146 61.9625ZM53.4776 60.5856C53.378 59.9568 52.7862 59.519 52.1559 59.6076L49.9866 59.9124C49.3562 60.001 48.926 60.5825 49.0255 61.2113L53.4776 60.5856ZM61.0699 59.5185C60.9704 58.8898 60.3786 58.4519 59.7482 58.5405L57.579 58.8454C56.9486 58.934 56.5183 59.5155 56.6179 60.1442L61.0699 59.5185ZM65.8108 47.448C65.1804 47.5366 64.7501 48.1181 64.8497 48.7468L65.2013 50.9666C65.3008 51.5953 65.8926 52.0332 66.523 51.9446L65.8108 47.448ZM53.7962 42.3289C53.8958 42.9576 54.4876 43.3955 55.1179 43.3069L57.2872 43.002C57.9176 42.9134 58.3478 42.3319 58.2483 41.7032L53.7962 42.3289ZM46.2039 43.3959C46.3034 44.0247 46.8952 44.4625 47.5256 44.3739L49.6948 44.0691C50.3252 43.9805 50.7555 43.399 50.6559 42.7703L46.2039 43.3959ZM40.2325 47.6973C40.8629 47.6087 41.2932 47.0272 41.1936 46.3984L41.0178 45.2885L42.1024 45.1361C42.7328 45.0475 43.1631 44.466 43.0635 43.8373L40.8375 44.1501C40.7502 44.1624 40.6667 44.1841 40.5879 44.2142C40.561 44.2244 40.5347 44.2356 40.5089 44.2477C40.3575 44.319 40.2263 44.422 40.1224 44.5471C40.0953 44.5796 40.0702 44.6137 40.0469 44.649C39.9577 44.785 39.8976 44.9406 39.8737 45.1062C39.8696 45.1344 39.8666 45.1628 39.8647 45.1915C39.859 45.2756 39.8626 45.3618 39.8764 45.449L40.2325 47.6973ZM40.7508 50.9699C41.3812 50.8813 41.973 51.3192 42.0725 51.9479L42.4241 54.1677C42.5237 54.7964 42.0934 55.3779 41.463 55.4665L40.7508 50.9699ZM61.3886 41.2619C61.4882 41.8906 62.0799 42.3285 62.7103 42.2399L63.7949 42.0874L63.9707 43.1973C64.0703 43.8261 64.6621 44.2639 65.2924 44.1753L64.9363 41.927C64.9225 41.8399 64.8993 41.7565 64.8678 41.6776C64.8571 41.6506 64.8454 41.6243 64.8327 41.5984C64.7585 41.4466 64.6528 41.3143 64.5253 41.2088C64.4922 41.1814 64.4576 41.1557 64.4216 41.1321C64.2835 41.041 64.1261 40.9786 63.9592 40.952C63.9308 40.9475 63.9021 40.944 63.8732 40.9416C63.7886 40.9346 63.702 40.9367 63.6146 40.949L61.3886 41.2619ZM67.0413 55.2172C66.4109 55.3058 65.9806 55.8873 66.0802 56.516L66.256 57.6259L65.1714 57.7784C64.541 57.867 64.1107 58.4485 64.2103 59.0772L66.4363 58.7643C66.5236 58.7521 66.6071 58.7303 66.6859 58.7003C66.7128 58.6901 66.7391 58.6789 66.7649 58.6667C66.9163 58.5955 67.0475 58.4925 67.1514 58.3674C67.1785 58.3348 67.2036 58.3008 67.2269 58.2655C67.3161 58.1295 67.3762 57.9739 67.4001 57.8083C67.4042 57.7801 67.4072 57.7516 67.4091 57.7229C67.4148 57.6388 67.4112 57.5526 67.3974 57.4655L67.0413 55.2172Z" fill="white"/>
<path fill-rule="evenodd" clip-rule="evenodd" d="M55.0927 49.4972L55.0899 49.495L53.4442 48.2895L53.4439 48.2893C53.3084 48.1892 53.1562 48.1453 52.9943 48.1681C52.8329 48.1908 52.7038 48.2738 52.6136 48.4085L51.417 50.0087L51.4166 50.0093C51.3578 50.0888 51.3163 50.1851 51.333 50.2908C51.3499 50.3972 51.4196 50.476 51.5017 50.5321C51.5799 50.5892 51.6717 50.6196 51.7708 50.6056C51.8711 50.5915 51.9501 50.5362 52.0074 50.4587L52.7995 49.3882L53.4472 53.4777C53.4624 53.5738 53.5022 53.6685 53.5871 53.7314C53.672 53.7942 53.7743 53.8045 53.8706 53.791C53.9669 53.7774 54.0615 53.7395 54.1233 53.656C54.185 53.5726 54.1936 53.471 54.1784 53.375L53.5263 49.2577L54.6479 50.0876C54.7267 50.1459 54.8194 50.1772 54.9197 50.1631C55.023 50.1486 55.1088 50.0972 55.1702 50.0142C55.2275 49.9367 55.2642 49.8434 55.2479 49.7406C55.2318 49.6393 55.1691 49.559 55.0927 49.4972Z" fill="white"/>
<path fill-rule="evenodd" clip-rule="evenodd" d="M57.0874 53.9571C57.2476 53.9346 57.396 53.9778 57.5235 54.0804C57.6588 54.1723 57.7435 54.3016 57.7689 54.4614C57.7953 54.6283 57.7569 54.7817 57.6521 54.9101C57.5588 55.0346 57.4297 55.1091 57.2733 55.1311L51.0313 56.0084C50.8676 56.0314 50.7146 55.9978 50.5836 55.9008C50.4526 55.8039 50.3757 55.6674 50.3498 55.5041C50.3251 55.3481 50.3587 55.2029 50.4504 55.0773C50.5426 54.9395 50.678 54.8579 50.8454 54.8344L57.0874 53.9571Z" fill="white"/>
<path d="M55.6709 19.2629L52.91 23.5029C52.749 23.7502 52.6246 24.0204 52.5418 24.3041L54.7943 24.7652L55.5815 23.6902C55.5815 23.6902 57.488 21.5749 57.9527 19.9819C58.1925 19.1615 57.694 18.8199 57.155 18.6812C56.5876 18.5353 55.9908 18.7721 55.6709 19.2629Z" fill="#8D2A00"/>
<path d="M58.5303 18.7478L55.647 23.175C55.5225 23.3662 55.4183 23.5702 55.3356 23.7833L54.9454 24.7928L57.1059 25.2348L58.3736 23.2766C58.3736 23.2766 60.28 21.1613 60.7448 19.5682C61.0186 18.631 60.329 18.3183 59.7157 18.2199C59.2507 18.1451 58.7864 18.3522 58.5295 18.747L58.5303 18.7478Z" fill="#8D2A00"/>
<path d="M48.4147 23.3048L51.4206 18.6781C51.4865 18.5767 51.5664 18.4853 51.6582 18.4064L56.4703 14.2709C56.4703 14.2709 58.2675 11.6516 59.4109 11.7804C59.4109 11.7804 68.4571 10.2981 74.6011 9.23793C74.6011 9.23793 76.5386 8.33102 78.1535 8.65738C79.7683 8.98374 90.5367 4.94294 90.5367 4.94294L87.5095 17.7691L75.9867 19.5068C75.9867 19.5068 74.4023 20.882 71.1992 22.1004C67.9961 23.3189 64.8187 23.4748 64.0244 24.2795C63.2308 25.0841 57.7386 30.2584 56.3212 28.5868C54.9037 26.9152 55.9067 24.9137 58.0474 23.5207C60.188 22.1277 60.6632 21.8897 61.4999 21.268L54.2128 21.6188L52.3841 24.25L48.4154 23.3033L48.4147 23.3048Z" fill="#FFAB92"/>
<path d="M61.7894 20.5999C62.2151 20.2279 61.8458 20.2451 62.2501 19.8512C62.9126 19.2053 63.6053 18.5574 64.1103 17.7757C64.3256 17.4426 64.5327 17.0566 64.5453 16.6512C64.5576 16.2593 64.3501 15.9744 64.0521 15.7417C63.7281 15.4896 63.3203 15.3441 62.9284 15.2353C62.5488 15.1297 62.1629 15.0556 61.7719 15.0082C61.1191 14.9296 60.4578 14.9038 59.8005 14.9417C59.3707 14.9665 58.9357 15.0129 58.5202 15.1314C57.9967 15.2809 57.5036 15.5674 57.044 15.8519C56.4598 16.2127 55.9064 16.6225 55.3568 17.0336C54.8198 17.4352 54.2862 17.8449 53.7186 18.2036C53.1213 18.5809 52.5459 18.9916 51.9866 19.4229C51.5348 19.7716 51.0934 20.1328 50.6585 20.5028C50.0076 21.0571 49.4393 21.7007 48.9672 22.4134L48.291 23.433L52.3729 24.268L54 21.7627L61.4995 21.2703C61.7449 21.0796 61.556 20.8038 61.7902 20.5999L61.7894 20.5999Z" fill="#FF7F4C"/>
<path d="M80.6529 15.703C80.4368 15.3173 80.0168 15.1337 79.5989 15.0205C79.3577 14.9551 79.1082 14.9103 78.859 14.8926C78.654 14.8783 78.4124 14.8775 78.2283 14.9112C77.9387 14.9641 77.6778 15.0527 77.4257 15.2063C77.1654 15.3655 76.9301 15.5605 76.6947 15.7533C76.4424 15.9602 76.1841 16.1501 75.9093 16.3279C75.6005 16.5266 75.2875 16.7179 74.9746 16.9108C74.6595 17.1045 74.3452 17.2997 74.0365 17.5036C73.7234 17.7107 73.4232 17.9346 73.119 18.1534C72.5245 18.5807 71.93 19.0079 71.3089 19.3965C70.6877 19.7842 70.038 20.1041 69.3725 20.408C68.0511 21.0125 66.7081 21.5697 65.391 22.1845C64.7324 22.4919 64.0805 22.8141 63.4426 23.1612C63.1332 23.3299 62.8312 23.5088 62.5316 23.6921C62.502 23.7128 62.4717 23.7343 62.4421 23.7543C62.1279 23.9705 61.8025 24.1721 61.4652 24.3441C60.9338 24.66 60.3847 24.9479 59.8063 25.1703C59.18 25.411 58.5365 25.5451 57.8731 25.6393C57.5014 25.6918 57.1253 25.7483 56.7615 25.8485C56.7966 26.0777 56.8535 26.303 56.9391 26.5219C57.2678 27.3657 57.9345 27.9969 58.7097 28.4547C60.7907 27.3359 63.3067 24.9799 63.8246 24.4603C64.6193 23.6645 67.7967 23.5089 71.0003 22.3029C74.2031 21.097 75.7889 19.7368 75.7889 19.7368L79.2526 19.2189C79.3222 19.1358 79.3918 19.0526 79.4599 18.9687C79.7603 18.5991 80.0521 18.2216 80.301 17.8157C80.5149 17.4669 80.7051 17.0949 80.7846 16.6921C80.8516 16.3559 80.8216 16.0064 80.653 15.7045L80.6529 15.703Z" fill="#FF7F4C"/>
<path d="M80.986 16.9557C80.0825 16.6122 79.1171 16.3993 78.1456 16.415C77.6606 16.4225 77.1772 16.4872 76.7092 16.6137C76.4699 16.6784 76.2223 16.7449 76.0085 16.8733C75.6256 17.1027 75.2935 17.4205 74.9699 17.7222C74.5169 18.1451 74.0789 18.5832 73.6355 19.0155C72.7309 19.8974 71.806 20.8239 70.7163 21.4841C70.0362 21.8958 69.0989 22.2485 68.4931 21.5683C67.8746 22.0498 67.178 22.4102 66.4571 22.718C65.8053 22.9967 65.1374 23.2368 64.488 23.5199C63.8123 23.8139 63.145 24.1451 62.6125 24.6587C62.1343 25.1195 61.6729 25.7711 60.9974 25.9535C60.392 26.1173 59.8331 25.8617 59.2403 25.7875C59.384 25.9649 59.5579 26.1146 59.7215 26.2746C59.8741 26.4245 60.0393 26.6055 60.0506 26.8303C60.0603 27.0334 59.9252 27.2792 59.7678 27.4054C59.6044 27.5363 59.3552 27.4099 59.1819 27.3694C58.8876 27.3006 58.7514 27.557 58.5899 27.7527C58.4997 27.8618 58.3707 27.9356 58.2572 28.0185C58.1387 28.1054 58.0209 28.1938 57.9024 28.2822C57.5023 28.5802 57.0969 28.8768 56.6487 29.0983C58.6388 29.3092 63.0376 25.2105 63.7432 24.5039C64.5404 23.7054 67.732 23.5492 70.949 22.3391C74.1653 21.1291 75.7578 19.7644 75.7578 19.7644L83.8786 18.5508C82.9856 17.8994 82.0181 17.3475 80.9875 16.9564L80.986 16.9557Z" fill="#8D2A00"/>
<path d="M58.537 23.2054C58.6527 23.1528 58.9837 23.1084 59.1045 23.0686C59.7028 22.8697 60.1068 22.5807 60.5822 22.2896C61.0701 21.9911 61.5717 21.6541 61.9525 21.2216C62.3507 20.7687 62.6632 20.171 62.6414 19.5534C62.6308 19.2522 62.5332 18.9605 62.3562 18.7162C62.2267 18.5375 62.0677 18.3798 61.9074 18.2297C61.4945 17.8443 61.034 17.5035 60.5476 17.2168C60.3141 17.0788 60.0711 16.9518 59.8172 16.8541C59.6451 16.7881 59.4613 16.7339 59.2754 16.7217C59.291 17.1078 59.3573 17.4911 59.3546 17.878C59.3527 18.1896 59.3028 18.5358 59.0673 18.7626C58.9407 18.8847 58.7766 18.9589 58.6063 18.9954C58.4006 19.0394 58.1757 19.0575 57.9675 19.0203C57.5657 18.9468 57.2379 18.6758 56.9322 18.423C56.6461 18.186 56.3341 17.9098 55.9548 17.8506C55.943 18.2941 55.9162 18.7412 55.8127 19.1731C55.7209 19.5552 55.5663 19.9231 55.3165 20.2295C55.0637 20.539 54.6984 20.8067 54.3182 20.933C53.6749 21.1473 53.0392 20.8507 52.4185 20.6842C52.479 21.0358 52.4806 21.3959 52.3874 21.7431C52.217 22.3791 51.7684 22.8827 51.2728 23.2939C50.9324 23.5766 50.6088 23.5797 50.2467 23.8321L52.375 24.2678L54.0083 21.918L61.5016 21.2701C60.8007 21.7907 59.9223 22.3199 58.5386 23.2061L58.537 23.2054Z" fill="#8D2A00"/>
<path d="M57.086 25.5208C57.2584 25.444 57.4613 25.5019 57.5701 25.6556C57.8109 25.9947 58.3996 26.6328 58.7647 27.0208C58.9441 27.2104 58.9499 27.5057 58.7761 27.7012C58.2069 28.3395 56.948 29.5535 56.1258 28.8708C55.181 28.0874 55.1227 26.393 57.086 25.5208Z" fill="#FFB2D2"/>
<path d="M80.7256 6.17877C80.7256 6.17877 79.4185 16.9792 81.221 20.7051C81.221 20.7051 81.8447 22.3463 82.5536 22.5913C83.2625 22.8363 82.5866 6.61757 82.5866 6.61757L80.7264 6.17874L80.7256 6.17877Z" fill="#00144A"/>
<path d="M80.3403 6.92029L77.152 7.90106C77.152 7.90106 76.9447 19.5781 77.7742 20.3859C78.603 21.1937 81.9147 19.6905 81.9147 19.6905L87.1544 18.7253L90.3407 5.22483L80.3403 6.91953L80.3403 6.92029Z" fill="white"/>
<path d="M101.256 0.748839L80.7255 6.17842C80.7255 6.17842 81.8652 21.4789 82.5527 22.591L102.787 17.8192L101.256 0.748839Z" fill="#0070F2"/>
<path d="M102.564 16.3666C101.425 16.7885 100.268 17.1671 99.0992 17.5006C97.9611 17.8244 96.8106 18.1063 95.6478 18.327C94.5424 18.5379 93.4275 18.7013 92.3006 18.7382C91.1313 18.7769 89.9527 18.7005 88.8096 18.4456C87.6626 18.1908 86.56 17.7542 85.5461 17.1612C84.596 16.606 83.712 15.9357 82.9564 15.1341C82.2833 14.4196 81.7158 13.6096 81.2681 12.7363C81.6553 17.0374 82.1731 21.976 82.5526 22.5898L102.787 17.818L102.654 16.3318C102.624 16.3429 102.593 16.3548 102.563 16.3659L102.564 16.3666Z" fill="#00144A"/>
</g>
<defs>
<clipPath id="clip0_4011_81846">
<rect width="79.7642" height="63.3476" fill="white" transform="translate(22.3992 3.91992) rotate(-2.30327)"/>
</clipPath>
</defs>
</svg>
