<svg width="320" height="240" viewBox="0 0 320 240" fill="none" xmlns="http://www.w3.org/2000/svg">
<path d="M130.573 148.696H33.9598C18.1939 148.696 5.41309 161.477 5.41309 177.243C5.41309 193.009 18.1939 205.79 33.9598 205.79H130.573C146.339 205.79 159.12 193.009 159.12 177.243C159.12 161.477 146.339 148.696 130.573 148.696Z" fill="#EBF8FF"/>
<path d="M165.747 177.029H69.1336C53.3677 177.029 40.5869 189.81 40.5869 205.576C40.5869 221.342 53.3677 234.123 69.1336 234.123H165.747C181.513 234.123 194.294 221.342 194.294 205.576C194.294 189.81 181.513 177.029 165.747 177.029Z" fill="#EBF8FF"/>
<path d="M291.453 98.083H194.84C179.074 98.083 166.293 110.864 166.293 126.63C166.293 142.396 179.074 155.176 194.84 155.176H291.453C307.219 155.176 320 142.396 320 126.63C320 110.864 307.219 98.083 291.453 98.083Z" fill="#EBF8FF"/>
<path d="M219.453 45.9629H37.8267C16.9356 45.9629 0 62.8985 0 83.7896V83.8029C0 104.694 16.9356 121.63 37.8267 121.63H219.453C240.344 121.63 257.28 104.694 257.28 83.8029V83.7896C257.28 62.8985 240.344 45.9629 219.453 45.9629Z" fill="#EBF8FF"/>
<path d="M158.187 41.5605C154.923 41.5605 151.792 42.8573 149.484 45.1654C147.176 47.4736 145.879 50.6042 145.879 53.8684V70.8753H170.512V53.8684C170.507 50.6027 169.207 47.4721 166.896 45.1644C164.585 42.8567 161.453 41.5605 158.187 41.5605Z" fill="#CC7400"/>
<path d="M222.419 122.933V178.552H93.0864V122.933C93.0864 105.782 99.8995 89.3341 112.027 77.2069C124.154 65.0796 140.602 58.2666 157.753 58.2666C174.903 58.2666 191.351 65.0796 203.479 77.2069C215.606 89.3341 222.419 105.782 222.419 122.933Z" fill="#F58B00"/>
<path d="M158.187 216.63C166.933 216.63 174.024 209.539 174.024 200.793C174.024 192.047 166.933 184.957 158.187 184.957C149.441 184.957 142.351 192.047 142.351 200.793C142.351 209.539 149.441 216.63 158.187 216.63Z" fill="#F58B00"/>
<path d="M236.934 184.973C233.054 184.154 222.419 178.552 222.419 178.552H93.0865C93.0865 178.552 82.4509 184.154 78.5713 184.973C74.6916 185.793 71.0796 188.318 71.0796 192.448C71.084 194.432 71.8752 196.333 73.2797 197.735C74.6842 199.136 76.5872 199.923 78.5713 199.923H236.934C238.917 199.923 240.818 199.136 242.22 197.734C243.622 196.332 244.409 194.431 244.409 192.448C244.409 188.318 240.981 185.826 236.934 184.973Z" fill="#CC7400"/>
<path opacity="0.36" d="M151.365 58.584C135.4 60.1726 120.596 67.6372 109.826 79.5285C99.0567 91.4199 93.0905 106.889 93.0864 122.932V178.552H213.623V123.2C213.617 106.468 207.129 90.3901 195.52 78.3414C183.911 66.2927 168.084 59.2112 151.365 58.584Z" fill="#CC7400"/>
<rect x="53" y="62" width="69" height="41.4" rx="6" fill="white"/>
<path d="M95.8342 100.915C95.2729 100.267 95.7329 99.2598 96.5899 99.2598H111.34C111.892 99.2598 112.34 99.7075 112.34 100.26V117.279C112.34 118.205 111.19 118.634 110.584 117.934L95.8342 100.915Z" fill="white"/>
<circle cx="73.7001" cy="82.6996" r="4.14" fill="#00144A"/>
<circle cx="101.3" cy="82.6996" r="4.14" fill="#00144A"/>
<circle cx="87.4999" cy="82.6996" r="4.14" fill="#00144A"/>
</svg>
