<svg width="45" height="45" viewBox="0 0 45 45" fill="none" xmlns="http://www.w3.org/2000/svg">
<path d="M21.4306 7.52426C21.4863 6.96007 21.0741 6.45451 20.5076 6.43036C17.2316 6.29068 13.9708 7.03017 11.0675 8.58093C7.86179 10.2932 5.23581 12.9177 3.52164 16.1224C1.80747 19.3271 1.08211 22.9682 1.43728 26.5851C1.79245 30.2021 3.2122 33.6325 5.51699 36.4426C7.82178 39.2527 10.9081 41.3162 14.3857 42.3722C17.8632 43.4282 21.5758 43.4293 25.054 42.3753C28.5322 41.3214 31.6197 39.2597 33.9262 36.4509C36.015 33.9072 37.3782 30.8542 37.8823 27.6141C37.9694 27.0539 37.5543 26.5507 36.9901 26.4949L19.725 24.7894L21.4306 7.52426Z" fill="#CEDBE8"/>
<path fill-rule="evenodd" clip-rule="evenodd" d="M10.5961 7.69851C13.6574 6.06336 17.0956 5.28362 20.5499 5.43091C21.7271 5.4811 22.5339 6.52411 22.4254 7.6222L20.8182 23.8922L37.0881 25.4994C38.1862 25.6079 39.0512 26.6032 38.8701 27.7674C38.3386 31.1838 36.9012 34.403 34.6987 37.0852C32.2667 40.0468 29.0112 42.2207 25.3437 43.332C21.6763 44.4433 17.7616 44.4422 14.0948 43.3287C10.428 42.2152 7.17373 40.0394 4.74351 37.0764C2.31329 34.1134 0.816281 30.4963 0.441784 26.6825C0.0672863 22.8687 0.832123 19.0295 2.63957 15.6504C4.44703 12.2712 7.21591 9.50398 10.5961 7.69851ZM20.5073 6.43C21.0738 6.45415 21.486 6.95971 21.4303 7.52389L19.7247 24.789L36.9898 26.4946C37.554 26.5503 37.9691 27.0535 37.882 27.6137C37.3779 30.8538 36.0147 33.9068 33.9259 36.4506C31.6194 39.2593 28.5319 41.321 25.0537 42.375C21.5755 43.429 17.8629 43.4279 14.3854 42.3719C10.9078 41.3158 7.8215 39.2523 5.51671 36.4422C3.21192 33.6322 1.79217 30.2017 1.437 26.5848C1.08183 22.9678 1.80719 19.3267 3.52136 16.122C5.23552 12.9173 7.86151 10.2929 11.0672 8.58057C13.9705 7.02981 17.2313 6.29031 20.5073 6.43Z" fill="#688FB7"/>
<path d="M21.426 7.57109C21.4844 6.98049 21.0528 6.45111 20.4598 6.42738C17.3382 6.30244 14.2356 6.97567 11.4465 8.3832C10.9167 8.65058 10.7434 9.31122 11.0412 9.82452L19.7252 24.7884L21.426 7.57109Z" fill="#3B5B7C"/>
<path d="M36.942 26.4896C37.5326 26.5479 37.9673 27.0747 37.8745 27.6609C37.4892 30.0956 36.6173 32.4318 35.3069 34.5283C33.8063 36.9291 31.7713 38.9506 29.3607 40.4352C26.9501 41.9198 24.229 42.8273 21.4098 43.0869C18.9479 43.3137 16.4693 43.0409 14.1216 42.2893C13.5564 42.1083 13.2816 41.4831 13.4953 40.9294L19.7247 24.7887L36.942 26.4896Z" fill="#4098FF"/>
<path d="M33.9986 5.37215C34.3274 4.87807 34.9963 4.74189 35.4731 5.09525C38.2879 7.18133 40.5472 9.93568 42.0425 13.1164C43.5378 16.2971 44.2173 19.7942 44.0278 23.2926C43.9957 23.8852 43.4641 24.3134 42.8739 24.2513L24.6031 22.3307C23.7999 22.2463 23.3734 21.3391 23.8209 20.6667L33.9986 5.37215Z" fill="#F58B00"/>
</svg>
