<svg width="160" height="160" viewBox="0 0 160 160" fill="none" xmlns="http://www.w3.org/2000/svg">
<mask id="mask0_2672_44799" style="mask-type:alpha" maskUnits="userSpaceOnUse" x="0" y="0" width="160" height="160">
<circle cx="80" cy="80" r="80" fill="#EBF8FF"/>
</mask>
<g mask="url(#mask0_2672_44799)">
<path d="M192.728 -1.53808H-31.1897C-32.6492 -1.53953 -34.0947 -1.23174 -35.4435 -0.632305C-36.7924 -0.0328734 -38.0181 0.84645 -39.0506 1.9554C-40.0832 3.06434 -40.9023 4.38117 -41.4611 5.83061C-42.02 7.28005 -42.3076 8.83368 -42.3076 10.4027V151.895C-42.3076 155.065 -41.1363 158.105 -39.0513 160.346C-36.9662 162.587 -34.1383 163.847 -31.1897 163.847H192.728C195.677 163.847 198.505 162.587 200.59 160.346C202.675 158.105 203.846 155.065 203.846 151.895V10.4027C203.846 8.83368 203.559 7.28005 203 5.83061C202.441 4.38117 201.622 3.06434 200.589 1.9554C199.557 0.84645 198.331 -0.0328734 196.982 -0.632305C195.633 -1.23174 194.188 -1.53953 192.728 -1.53808Z" fill="#EBF8FF"/>
<path d="M74.0602 95.001H-20.0781C-21.5289 95.001 -22.7051 96.1792 -22.7051 97.6327V158.709C-22.7051 160.163 -21.5289 161.341 -20.0781 161.341H74.0602C75.5111 161.341 76.6872 160.163 76.6872 158.709V97.6327C76.6872 96.1792 75.5111 95.001 74.0602 95.001Z" fill="#D1EFFF"/>
<path d="M71.881 98.5762H-18.0292C-19.3757 98.5762 -20.4673 99.6697 -20.4673 101.019V156.031C-20.4673 157.38 -19.3757 158.474 -18.0292 158.474H71.881C73.2275 158.474 74.3191 157.38 74.3191 156.031V101.019C74.3191 99.6697 73.2275 98.5762 71.881 98.5762Z" fill="#EBF8FF"/>
<path d="M27.173 97.3386C27.5245 97.3386 27.8094 97.0531 27.8094 96.701C27.8094 96.3489 27.5245 96.0635 27.173 96.0635C26.8215 96.0635 26.5366 96.3489 26.5366 96.701C26.5366 97.0531 26.8215 97.3386 27.173 97.3386Z" fill="#B8E6FF"/>
<g clip-path="url(#clip0_2672_44799)">
<path d="M125.95 43.5391H55.166C50.8769 43.5391 47.3999 47.0161 47.3999 51.3051V138.85C47.3999 143.139 50.8769 146.616 55.166 146.616H125.95C130.239 146.616 133.716 143.139 133.716 138.85V51.3051C133.716 47.0161 130.239 43.5391 125.95 43.5391Z" fill="#D1EFFF"/>
<path fill-rule="evenodd" clip-rule="evenodd" d="M55.3574 51.884C55.3574 51.531 55.4544 51.248 55.573 51.248H125.096C125.214 51.248 125.311 51.5175 125.311 51.884V138.273C125.311 138.626 125.214 138.909 125.096 138.909H55.573C55.4544 138.909 55.3574 138.639 55.3574 138.273V51.884Z" fill="#D1EFFF"/>
<path d="M125.317 59.5176H55.3574V66.6773H125.317V59.5176Z" fill="#B8E6FF"/>
<path d="M59.4072 62.2236H71.4363C71.8297 62.2236 72.1504 62.6521 72.1504 63.1803C72.1504 63.7192 71.8297 64.1342 71.4363 64.1342H59.4072C59.0111 64.1342 58.6904 63.7057 58.6904 63.1803C58.6904 62.6521 59.0003 62.2236 59.4072 62.2236Z" fill="#9EDDFF"/>
<path d="M59.4072 69.2246H69.1727C69.5662 69.2246 69.8868 69.6531 69.8868 70.1785C69.8868 70.7175 69.5662 71.1351 69.1727 71.1351H59.4072C59.0111 71.1351 58.6904 70.7067 58.6904 70.1785C58.6904 69.6531 59.0003 69.2246 59.4072 69.2246Z" fill="#9EDDFF"/>
<path d="M59.4072 76.5469H70.7249C71.121 76.5469 71.4417 76.9753 71.4417 77.5008C71.4417 78.0397 71.121 78.4574 70.7249 78.4574H59.4072C59.0111 78.4574 58.6904 78.0289 58.6904 77.5008C58.6904 76.9726 59.0003 76.5469 59.4072 76.5469Z" fill="#9EDDFF"/>
<path d="M59.4072 83.5527H64.5271C64.9232 83.5527 65.2412 83.9812 65.2412 84.5066C65.2412 85.0456 64.9232 85.4606 64.5271 85.4606H59.4072C59.0111 85.4606 58.6904 85.0348 58.6904 84.5066C58.6904 83.9731 59.0003 83.5527 59.4072 83.5527Z" fill="#9EDDFF"/>
<path d="M59.4072 90.7031H64.5271C64.9232 90.7031 65.2412 91.1289 65.2412 91.6571C65.2412 92.196 64.9232 92.611 64.5271 92.611H59.4072C59.0111 92.611 58.6904 92.1852 58.6904 91.6571C58.6904 91.1289 59.0003 90.7031 59.4072 90.7031Z" fill="#9EDDFF"/>
<path d="M59.4072 105.022H64.5271C64.9232 105.022 65.2412 105.448 65.2412 105.976C65.2412 106.515 64.9232 106.93 64.5271 106.93H59.4072C59.0111 106.93 58.6904 106.502 58.6904 105.976C58.6904 105.448 59.0003 105.022 59.4072 105.022Z" fill="#9EDDFF"/>
<path d="M59.4072 97.8643H64.5271C64.9232 97.8643 65.2412 98.29 65.2412 98.8182C65.2412 99.3571 64.9232 99.7721 64.5271 99.7721H59.4072C59.0111 99.7721 58.6904 99.3463 58.6904 98.8182C58.6904 98.29 59.0003 97.8643 59.4072 97.8643Z" fill="#9EDDFF"/>
<path d="M59.4072 112.181H64.5271C64.9232 112.181 65.2412 112.609 65.2412 113.137C65.2412 113.676 64.9232 114.091 64.5271 114.091H59.4072C59.0111 114.091 58.6904 113.663 58.6904 113.137C58.6904 112.609 59.0003 112.181 59.4072 112.181Z" fill="#9EDDFF"/>
<path d="M59.383 119.37H64.5029C64.8964 119.37 65.217 119.799 65.217 120.324C65.217 120.863 64.8964 121.281 64.5029 121.281H59.383C58.9896 121.281 58.6689 120.852 58.6689 120.324C58.6689 119.799 59.0004 119.37 59.383 119.37Z" fill="#9EDDFF"/>
<path d="M84.5566 62.2236H96.5857C96.9791 62.2236 97.2998 62.6521 97.2998 63.1803C97.2998 63.7192 96.9791 64.1342 96.5857 64.1342H84.5566C84.1605 64.1342 83.8398 63.7057 83.8398 63.1803C83.8398 62.6521 84.1605 62.2236 84.5566 62.2236Z" fill="#9EDDFF"/>
<path d="M84.5566 69.2246H94.3221C94.7156 69.2246 95.0362 69.6531 95.0362 70.1785C95.0362 70.7175 94.7156 71.1351 94.3221 71.1351H84.5566C84.1605 71.1351 83.8398 70.7067 83.8398 70.1785C83.8398 69.6531 84.1605 69.2246 84.5566 69.2246Z" fill="#9EDDFF"/>
<path d="M84.5566 76.5469H95.8743C96.2704 76.5469 96.5911 76.9753 96.5911 77.5008C96.5911 78.0397 96.2704 78.4574 95.8743 78.4574H84.5566C84.1605 78.4574 83.8398 78.0289 83.8398 77.5008C83.8398 76.9726 84.1605 76.5469 84.5566 76.5469Z" fill="#9EDDFF"/>
<path d="M84.5566 83.5527H89.6765C90.0726 83.5527 90.3906 83.9812 90.3906 84.5066C90.3906 85.0456 90.0726 85.4606 89.6765 85.4606H84.5566C84.1605 85.4606 83.8398 85.0348 83.8398 84.5066C83.8398 83.9731 84.1605 83.5527 84.5566 83.5527Z" fill="#9EDDFF"/>
<path d="M84.5566 90.7031H89.6765C90.0726 90.7031 90.3906 91.1289 90.3906 91.6571C90.3906 92.196 90.0726 92.611 89.6765 92.611H84.5566C84.1605 92.611 83.8398 92.1852 83.8398 91.6571C83.8398 91.1289 84.1605 90.7031 84.5566 90.7031Z" fill="#9EDDFF"/>
<path d="M84.5566 105.022H89.6765C90.0726 105.022 90.3906 105.448 90.3906 105.976C90.3906 106.515 90.0726 106.93 89.6765 106.93H84.5566C84.1605 106.93 83.8398 106.502 83.8398 105.976C83.8398 105.448 84.1605 105.022 84.5566 105.022Z" fill="#9EDDFF"/>
<path d="M84.5566 97.8643H89.6765C90.0726 97.8643 90.3906 98.29 90.3906 98.8182C90.3906 99.3571 90.0726 99.7721 89.6765 99.7721H84.5566C84.1605 99.7721 83.8398 99.3463 83.8398 98.8182C83.8398 98.29 84.1605 97.8643 84.5566 97.8643Z" fill="#9EDDFF"/>
<path d="M84.5566 112.181H89.6765C90.0726 112.181 90.3906 112.609 90.3906 113.137C90.3906 113.676 90.0726 114.091 89.6765 114.091H84.5566C84.1605 114.091 83.8398 113.663 83.8398 113.137C83.8398 112.609 84.1605 112.181 84.5566 112.181Z" fill="#9EDDFF"/>
<path d="M84.5325 119.37H89.6523C90.0458 119.37 90.3664 119.799 90.3664 120.324C90.3664 120.863 90.0458 121.281 89.6523 121.281H84.5325C84.139 121.281 83.8184 120.852 83.8184 120.324C83.8184 119.799 84.139 119.37 84.5325 119.37Z" fill="#9EDDFF"/>
<path d="M109.421 62.2236H121.45C121.843 62.2236 122.164 62.6521 122.164 63.1803C122.164 63.7192 121.843 64.1342 121.45 64.1342H109.421C109.025 64.1342 108.704 63.7057 108.704 63.1803C108.704 62.6521 109.025 62.2236 109.421 62.2236Z" fill="#9EDDFF"/>
<path d="M109.421 69.2246H119.186C119.58 69.2246 119.901 69.6531 119.901 70.1785C119.901 70.7175 119.58 71.1351 119.186 71.1351H109.421C109.025 71.1351 108.704 70.7067 108.704 70.1785C108.704 69.6531 109.025 69.2246 109.421 69.2246Z" fill="#9EDDFF"/>
<path d="M109.421 76.5469H120.739C121.135 76.5469 121.455 76.9753 121.455 77.5008C121.455 78.0397 121.135 78.4574 120.739 78.4574H109.421C109.025 78.4574 108.704 78.0289 108.704 77.5008C108.704 76.9726 109.025 76.5469 109.421 76.5469Z" fill="#9EDDFF"/>
<path d="M109.421 83.5527H114.541C114.934 83.5527 115.255 83.9812 115.255 84.5066C115.255 85.0456 114.934 85.4606 114.541 85.4606H109.421C109.025 85.4606 108.704 85.0348 108.704 84.5066C108.704 83.9731 109.025 83.5527 109.421 83.5527Z" fill="#9EDDFF"/>
<path d="M109.421 90.7031H114.541C114.934 90.7031 115.255 91.1289 115.255 91.6571C115.255 92.196 114.934 92.611 114.541 92.611H109.421C109.025 92.611 108.704 92.1852 108.704 91.6571C108.704 91.1289 109.025 90.7031 109.421 90.7031Z" fill="#9EDDFF"/>
<path d="M109.421 105.022H114.541C114.934 105.022 115.255 105.448 115.255 105.976C115.255 106.515 114.934 106.93 114.541 106.93H109.421C109.025 106.93 108.704 106.502 108.704 105.976C108.704 105.448 109.025 105.022 109.421 105.022Z" fill="#9EDDFF"/>
<path d="M109.421 97.8643H114.541C114.934 97.8643 115.255 98.29 115.255 98.8182C115.255 99.3571 114.934 99.7721 114.541 99.7721H109.421C109.025 99.7721 108.704 99.3463 108.704 98.8182C108.704 98.29 109.025 97.8643 109.421 97.8643Z" fill="#9EDDFF"/>
<path d="M109.421 112.181H114.541C114.934 112.181 115.255 112.609 115.255 113.137C115.255 113.676 114.934 114.091 114.541 114.091H109.421C109.025 114.091 108.704 113.663 108.704 113.137C108.704 112.609 109.025 112.181 109.421 112.181Z" fill="#9EDDFF"/>
<path d="M109.391 119.37H114.511C114.907 119.37 115.228 119.799 115.228 120.324C115.228 120.863 114.907 121.281 114.511 121.281H109.391C108.995 121.281 108.677 120.852 108.677 120.324C108.682 119.799 109 119.37 109.391 119.37Z" fill="#9EDDFF"/>
<path d="M74.0501 53.792H60.3611C59.4384 53.792 58.6904 54.54 58.6904 55.4627C58.6904 56.3854 59.4384 57.1334 60.3611 57.1334H74.0501C74.9728 57.1334 75.7208 56.3854 75.7208 55.4627C75.7208 54.54 74.9728 53.792 74.0501 53.792Z" fill="#9EDDFF"/>
</g>
<path d="M13.6146 69.6644C13.6146 68.6196 10.5819 67.7833 6.52967 67.5933C6.29798 63.5461 5.40599 60.5367 4.36109 60.5391C3.31618 60.5414 2.44736 63.5739 2.22495 67.642C-1.83884 67.92 -4.86004 68.8281 -4.84614 69.8752C-4.83224 70.9224 -1.81335 71.7587 2.23885 71.9463C2.48212 75.9936 3.36252 79.0029 4.40511 79.0006C5.4477 78.9983 6.32115 75.9658 6.54357 71.8977C10.6074 71.6197 13.6262 70.7116 13.6146 69.6644Z" fill="#D1EFFF"/>
<path d="M181.23 131.1C181.23 129.794 177.439 128.749 172.374 128.511C172.084 123.452 170.969 119.69 169.663 119.693C168.357 119.696 167.271 123.487 166.993 128.572C161.913 128.919 158.136 130.055 158.154 131.364C158.171 132.672 161.945 133.718 167.01 133.952C167.314 139.011 168.415 142.773 169.718 142.77C171.021 142.767 172.113 138.977 172.391 133.892C177.471 133.544 181.244 132.409 181.23 131.1Z" fill="#D1EFFF"/>
<g clip-path="url(#clip1_2672_44799)">
<path d="M95.9499 30.4619H25.166C20.8769 30.4619 17.3999 33.9389 17.3999 38.228V125.773C17.3999 130.062 20.8769 133.539 25.166 133.539H95.9499C100.239 133.539 103.716 130.062 103.716 125.773V38.228C103.716 33.9389 100.239 30.4619 95.9499 30.4619Z" fill="white"/>
<path fill-rule="evenodd" clip-rule="evenodd" d="M25.3574 38.8068C25.3574 38.4538 25.4544 38.1709 25.573 38.1709H95.0958C95.2143 38.1709 95.3113 38.4404 95.3113 38.8068V125.196C95.3113 125.549 95.2143 125.832 95.0958 125.832H25.573C25.4544 125.832 25.3574 125.562 25.3574 125.196V38.8068Z" fill="white"/>
<path d="M95.3167 46.4404H25.3574V53.6002H95.3167V46.4404Z" fill="#D1EFFF"/>
<path d="M29.4072 49.1465H41.4363C41.8297 49.1465 42.1504 49.575 42.1504 50.1031C42.1504 50.642 41.8297 51.057 41.4363 51.057H29.4072C29.0111 51.057 28.6904 50.6286 28.6904 50.1031C28.6904 49.575 29.0003 49.1465 29.4072 49.1465Z" fill="#004DA5"/>
<path d="M29.4072 56.1475H39.1727C39.5662 56.1475 39.8868 56.5759 39.8868 57.1014C39.8868 57.6403 39.5662 58.058 39.1727 58.058H29.4072C29.0111 58.058 28.6904 57.6295 28.6904 57.1014C28.6904 56.5759 29.0003 56.1475 29.4072 56.1475Z" fill="#004DA5"/>
<path d="M29.4072 63.4697H40.7249C41.121 63.4697 41.4417 63.8982 41.4417 64.4236C41.4417 64.9626 41.121 65.3803 40.7249 65.3803H29.4072C29.0111 65.3803 28.6904 64.9518 28.6904 64.4236C28.6904 63.8955 29.0003 63.4697 29.4072 63.4697Z" fill="#004DA5"/>
<path d="M29.4072 70.4756H34.5271C34.9232 70.4756 35.2412 70.904 35.2412 71.4295C35.2412 71.9684 34.9232 72.3834 34.5271 72.3834H29.4072C29.0111 72.3834 28.6904 71.9577 28.6904 71.4295C28.6904 70.896 29.0003 70.4756 29.4072 70.4756Z" fill="#004DA5"/>
<path d="M29.4072 77.626H34.5271C34.9232 77.626 35.2412 78.0517 35.2412 78.5799C35.2412 79.1188 34.9232 79.5338 34.5271 79.5338H29.4072C29.0111 79.5338 28.6904 79.1081 28.6904 78.5799C28.6904 78.0517 29.0003 77.626 29.4072 77.626Z" fill="#004DA5"/>
<path d="M29.4072 91.9453H34.5271C34.9232 91.9453 35.2412 92.371 35.2412 92.8992C35.2412 93.4381 34.9232 93.8531 34.5271 93.8531H29.4072C29.0111 93.8531 28.6904 93.4247 28.6904 92.8992C28.6904 92.371 29.0003 91.9453 29.4072 91.9453Z" fill="#004DA5"/>
<path d="M29.4072 84.7871H34.5271C34.9232 84.7871 35.2412 85.2129 35.2412 85.741C35.2412 86.28 34.9232 86.6949 34.5271 86.6949H29.4072C29.0111 86.6949 28.6904 86.2692 28.6904 85.741C28.6904 85.2129 29.0003 84.7871 29.4072 84.7871Z" fill="#004DA5"/>
<path d="M29.4072 99.1035H34.5271C34.9232 99.1035 35.2412 99.532 35.2412 100.06C35.2412 100.599 34.9232 101.014 34.5271 101.014H29.4072C29.0111 101.014 28.6904 100.586 28.6904 100.06C28.6904 99.532 29.0003 99.1035 29.4072 99.1035Z" fill="#004DA5"/>
<path d="M29.383 106.293H34.5029C34.8964 106.293 35.217 106.721 35.217 107.247C35.217 107.786 34.8964 108.203 34.5029 108.203H29.383C28.9896 108.203 28.6689 107.775 28.6689 107.247C28.6689 106.721 29.0004 106.293 29.383 106.293Z" fill="#004DA5"/>
<path d="M54.5566 49.1465H66.5857C66.9791 49.1465 67.2998 49.575 67.2998 50.1031C67.2998 50.642 66.9791 51.057 66.5857 51.057H54.5566C54.1605 51.057 53.8398 50.6286 53.8398 50.1031C53.8398 49.575 54.1605 49.1465 54.5566 49.1465Z" fill="#004DA5"/>
<path d="M54.5566 56.1475H64.3221C64.7156 56.1475 65.0362 56.5759 65.0362 57.1014C65.0362 57.6403 64.7156 58.058 64.3221 58.058H54.5566C54.1605 58.058 53.8398 57.6295 53.8398 57.1014C53.8398 56.5759 54.1605 56.1475 54.5566 56.1475Z" fill="#004DA5"/>
<path d="M54.5566 63.4697H65.8743C66.2704 63.4697 66.5911 63.8982 66.5911 64.4236C66.5911 64.9626 66.2704 65.3803 65.8743 65.3803H54.5566C54.1605 65.3803 53.8398 64.9518 53.8398 64.4236C53.8398 63.8955 54.1605 63.4697 54.5566 63.4697Z" fill="#004DA5"/>
<path d="M54.5566 70.4756H59.6765C60.0726 70.4756 60.3906 70.904 60.3906 71.4295C60.3906 71.9684 60.0726 72.3834 59.6765 72.3834H54.5566C54.1605 72.3834 53.8398 71.9577 53.8398 71.4295C53.8398 70.896 54.1605 70.4756 54.5566 70.4756Z" fill="#004DA5"/>
<path d="M54.5566 77.626H59.6765C60.0726 77.626 60.3906 78.0517 60.3906 78.5799C60.3906 79.1188 60.0726 79.5338 59.6765 79.5338H54.5566C54.1605 79.5338 53.8398 79.1081 53.8398 78.5799C53.8398 78.0517 54.1605 77.626 54.5566 77.626Z" fill="#004DA5"/>
<path d="M54.5566 91.9453H59.6765C60.0726 91.9453 60.3906 92.371 60.3906 92.8992C60.3906 93.4381 60.0726 93.8531 59.6765 93.8531H54.5566C54.1605 93.8531 53.8398 93.4247 53.8398 92.8992C53.8398 92.371 54.1605 91.9453 54.5566 91.9453Z" fill="#004DA5"/>
<path d="M54.5566 84.7871H59.6765C60.0726 84.7871 60.3906 85.2129 60.3906 85.741C60.3906 86.28 60.0726 86.6949 59.6765 86.6949H54.5566C54.1605 86.6949 53.8398 86.2692 53.8398 85.741C53.8398 85.2129 54.1605 84.7871 54.5566 84.7871Z" fill="#004DA5"/>
<path d="M54.5566 99.1035H59.6765C60.0726 99.1035 60.3906 99.532 60.3906 100.06C60.3906 100.599 60.0726 101.014 59.6765 101.014H54.5566C54.1605 101.014 53.8398 100.586 53.8398 100.06C53.8398 99.532 54.1605 99.1035 54.5566 99.1035Z" fill="#004DA5"/>
<path d="M54.5325 106.293H59.6523C60.0458 106.293 60.3664 106.721 60.3664 107.247C60.3664 107.786 60.0458 108.203 59.6523 108.203H54.5325C54.139 108.203 53.8184 107.775 53.8184 107.247C53.8184 106.721 54.139 106.293 54.5325 106.293Z" fill="#004DA5"/>
<path d="M79.4209 49.1465H91.45C91.8434 49.1465 92.1641 49.575 92.1641 50.1031C92.1641 50.642 91.8434 51.057 91.45 51.057H79.4209C79.0248 51.057 78.7041 50.6286 78.7041 50.1031C78.7041 49.575 79.0248 49.1465 79.4209 49.1465Z" fill="#004DA5"/>
<path d="M79.4209 56.1475H89.1864C89.5798 56.1475 89.9005 56.5759 89.9005 57.1014C89.9005 57.6403 89.5798 58.058 89.1864 58.058H79.4209C79.0248 58.058 78.7041 57.6295 78.7041 57.1014C78.7041 56.5759 79.0248 56.1475 79.4209 56.1475Z" fill="#004DA5"/>
<path d="M79.4209 63.4697H90.7386C91.1347 63.4697 91.4553 63.8982 91.4553 64.4236C91.4553 64.9626 91.1347 65.3803 90.7386 65.3803H79.4209C79.0248 65.3803 78.7041 64.9518 78.7041 64.4236C78.7041 63.8955 79.0248 63.4697 79.4209 63.4697Z" fill="#004DA5"/>
<path d="M79.4209 70.4756H84.5408C84.9342 70.4756 85.2549 70.904 85.2549 71.4295C85.2549 71.9684 84.9342 72.3834 84.5408 72.3834H79.4209C79.0248 72.3834 78.7041 71.9577 78.7041 71.4295C78.7041 70.896 79.0248 70.4756 79.4209 70.4756Z" fill="#004DA5"/>
<path d="M79.4209 77.626H84.5408C84.9342 77.626 85.2549 78.0517 85.2549 78.5799C85.2549 79.1188 84.9342 79.5338 84.5408 79.5338H79.4209C79.0248 79.5338 78.7041 79.1081 78.7041 78.5799C78.7041 78.0517 79.0248 77.626 79.4209 77.626Z" fill="#004DA5"/>
<path d="M79.4209 91.9453H84.5408C84.9342 91.9453 85.2549 92.371 85.2549 92.8992C85.2549 93.4381 84.9342 93.8531 84.5408 93.8531H79.4209C79.0248 93.8531 78.7041 93.4247 78.7041 92.8992C78.7041 92.371 79.0248 91.9453 79.4209 91.9453Z" fill="#004DA5"/>
<path d="M79.4209 84.7871H84.5408C84.9342 84.7871 85.2549 85.2129 85.2549 85.741C85.2549 86.28 84.9342 86.6949 84.5408 86.6949H79.4209C79.0248 86.6949 78.7041 86.2692 78.7041 85.741C78.7041 85.2129 79.0248 84.7871 79.4209 84.7871Z" fill="#004DA5"/>
<path d="M79.4209 99.1035H84.5408C84.9342 99.1035 85.2549 99.532 85.2549 100.06C85.2549 100.599 84.9342 101.014 84.5408 101.014H79.4209C79.0248 101.014 78.7041 100.586 78.7041 100.06C78.7041 99.532 79.0248 99.1035 79.4209 99.1035Z" fill="#004DA5"/>
<path d="M79.3909 106.293H84.5107C84.9069 106.293 85.2275 106.721 85.2275 107.247C85.2275 107.786 84.9069 108.203 84.5107 108.203H79.3909C78.9947 108.203 78.6768 107.775 78.6768 107.247C78.6821 106.721 79.0001 106.293 79.3909 106.293Z" fill="#004DA5"/>
<path d="M44.0501 40.7148H30.3611C29.4384 40.7148 28.6904 41.4628 28.6904 42.3855C28.6904 43.3083 29.4384 44.0563 30.3611 44.0563H44.0501C44.9728 44.0563 45.7208 43.3083 45.7208 42.3855C45.7208 41.4628 44.9728 40.7148 44.0501 40.7148Z" fill="#004DA5"/>
</g>
</g>
<path d="M140.541 22.9602C140.541 21.7966 137.164 20.8653 132.651 20.6537C132.393 16.1466 131.4 12.7953 130.236 12.7979C129.072 12.8004 128.105 16.1776 127.857 20.7079C123.332 21.0175 119.967 22.0288 119.982 23.195C119.998 24.3611 123.36 25.2924 127.873 25.5014C128.143 30.0085 129.124 33.3599 130.285 33.3573C131.446 33.3547 132.419 29.9776 132.666 25.4472C137.192 25.1376 140.554 24.1263 140.541 22.9602Z" fill="#F58B00"/>
<path d="M155.103 43.1231C155.103 42.2989 152.711 41.6392 149.514 41.4894C149.331 38.2968 148.628 35.923 147.803 35.9248C146.979 35.9266 146.294 38.3188 146.118 41.5278C142.913 41.7471 140.53 42.4634 140.541 43.2894C140.552 44.1154 142.933 44.7751 146.129 44.9232C146.321 48.1157 147.016 50.4896 147.838 50.4877C148.661 50.4859 149.35 48.0938 149.525 44.8848C152.731 44.6655 155.112 43.9491 155.103 43.1231Z" fill="#F58B00"/>
<defs>
<clipPath id="clip0_2672_44799">
<rect width="86.316" height="103.077" fill="white" transform="translate(47.6924 43.0771)"/>
</clipPath>
<clipPath id="clip1_2672_44799">
<rect width="86.316" height="103.077" fill="white" transform="translate(17.6924 30)"/>
</clipPath>
</defs>
</svg>
