<svg width="160" height="161" viewBox="0 0 160 161" fill="none" xmlns="http://www.w3.org/2000/svg">
<rect y="46" width="160" height="69" rx="12" fill="#89D1FF"/>
<path d="M53.7961 52.0968L63.2887 86.4272C63.4921 87.1647 64.2111 87.6419 64.9773 87.5443L105.148 82.3636C107.527 81.7635 108.206 79.8547 107.883 78.9328L95.2781 47.0571C95.0494 46.4064 94.4139 45.987 93.7239 46.0304L55.6736 47.1439C54.6967 47.2054 52.7357 48.6045 53.7997 52.0968H53.7961Z" fill="#00144A"/>
<path d="M54.2974 49.0764L64.2584 85.0951C64.4618 85.8326 65.1808 86.3099 65.9471 86.2122L106.627 80.9665C107.6 80.84 108.21 79.8566 107.887 78.9348L96.2479 45.7251C96.0191 45.0744 95.3836 44.655 94.6936 44.6984L55.6955 47.1351C54.7186 47.1965 54.0432 48.1365 54.3046 49.0764H54.2974Z" fill="white"/>
<path d="M66.5441 37.8791L73.7908 56.6862C74.0772 57.6328 72.1645 59.5077 71.177 59.5917L35.4793 62.6434C34.7084 62.7092 34.0035 62.2012 33.8273 61.4483L29.0586 41.1866C28.6768 39.3446 30.2496 37.2018 31.2262 37.158L64.9765 36.779C65.6887 36.7461 66.3348 37.1993 66.5404 37.8827L66.5441 37.8791Z" fill="#0040B0"/>
<path d="M67.7344 36.6135L73.7256 56.327C74.012 57.2735 73.3548 58.242 72.3636 58.3261L36.6659 61.3778C35.895 61.4436 35.1902 60.9356 35.014 60.1827L30.0323 38.9963C29.8083 38.0498 30.5059 37.1361 31.4824 37.0886L66.1668 35.5134C66.879 35.4805 67.5251 35.9337 67.7307 36.6171L67.7344 36.6135Z" fill="#56BDFF"/>
<path d="M41.6766 39.0805C40.054 39.1573 38.6333 39.6361 37.5099 40.3926L43.4644 46.2986L34.8594 45.8929C34.8887 46.1889 34.9291 46.485 35.0025 46.7883C35.9717 50.8962 40.612 53.9954 45.2926 53.6701C49.9072 53.3485 52.7486 49.8181 51.7097 45.8235C50.6818 41.8727 46.2214 38.8722 41.6766 39.0805Z" fill="#0070F2"/>
<path d="M105.435 107.61L84.4522 101.154C87.8663 98.7091 85.7697 95.8888 79.3616 94.1688C72.0287 92.1983 60.4215 92.0832 52.2826 94.03C43.0192 96.2477 41.0141 100.412 49.468 103.178C58.2471 106.049 72.9568 105.748 81.0957 102.809L100.618 109.567L102.993 109.162C103.43 108.634 103.67 109.208 104.354 108.795C105.621 107.928 106.285 107.36 106.075 107.255H105.435V107.61Z" fill="#1B90FF"/>
<path d="M108.283 56.2208C109.676 62.0488 107.38 68.0506 104.513 72.3355C101.934 76.1858 97.5823 78.8988 91.8847 79.5797C79.3179 81.0793 65.867 72.1291 62.4761 60.0023C59.0852 47.8755 66.5328 36.3319 78.4666 35.7814C89.9309 35.2525 104.437 45.4813 108.283 56.2208Z" fill="#8D2A00"/>
<path d="M107.442 53.2294C111.441 64.3927 105.409 74.8895 93.3729 76.3275C80.8062 77.827 67.3553 68.8769 63.9643 56.7501C60.5734 44.6233 68.2139 35.5753 80.1513 35.0248C91.6156 34.4959 103.6 42.4935 107.446 53.2294H107.442Z" fill="#C35500"/>
<path d="M104.762 53.4487C108.192 63.1595 102.873 72.2147 92.4385 73.4064C81.6036 74.6415 70.0264 66.9373 67.0539 56.5057C64.1869 46.4435 70.6086 38.1055 80.9705 37.5803C90.9759 37.0768 101.447 44.0638 104.765 53.4487H104.762Z" fill="#FFEAF4"/>
<path d="M107.297 107.679L100.442 109.497L89.5527 74.8516L95.9744 74.1055L107.297 107.679Z" fill="#C35500"/>
<path d="M66.6934 48.684L80.8646 37.5859C73.4206 38.0025 68.0323 42.4577 66.6934 48.684Z" fill="#FFEAF4"/>
<path d="M92.4372 73.404C101.642 72.3535 106.863 65.1854 105.612 56.8438L82.9375 72.3318C86.0119 73.3532 89.2573 73.7662 92.4372 73.404Z" fill="white"/>
<path d="M93.5912 40.7145L93.584 40.7109L93.5912 40.7145Z" fill="#FFEAF4"/>
<path d="M80.9668 37.5799C81.2615 37.5655 81.5526 37.5583 81.8473 37.5547C81.5526 37.5547 81.2615 37.5655 80.9668 37.5799Z" fill="#FFEAF4"/>
<path d="M90.4883 39.2422C90.5792 39.2784 90.6702 39.3146 90.7575 39.3509C90.6666 39.3146 90.5792 39.2784 90.4883 39.2422Z" fill="#FFEAF4"/>
<path d="M91.3145 39.582C91.3763 39.611 91.4382 39.64 91.5 39.6653C91.4382 39.6364 91.3763 39.6074 91.3145 39.582Z" fill="#FFEAF4"/>
<path d="M89.6504 38.9258C89.7523 38.962 89.8578 38.9982 89.9596 39.0381C89.8578 38.9982 89.7559 38.962 89.6504 38.9258Z" fill="#FFEAF4"/>
<path d="M83.9902 37.6523C84.1576 37.6667 84.325 37.6847 84.496 37.7064C84.3286 37.6883 84.1612 37.6703 83.9902 37.6523Z" fill="#FFEAF4"/>
<path d="M83.084 37.5859C83.2586 37.5967 83.4369 37.6039 83.6115 37.6183C83.4369 37.6039 83.2586 37.5931 83.084 37.5859Z" fill="#FFEAF4"/>
<path d="M84.8809 37.7539C85.0446 37.7755 85.2119 37.8007 85.3757 37.8259C85.2119 37.8007 85.0482 37.7755 84.8809 37.7539Z" fill="#FFEAF4"/>
<path d="M82.1406 37.5547C82.3371 37.5547 82.5299 37.5583 82.7264 37.5655C82.5299 37.5583 82.3335 37.5547 82.1406 37.5547Z" fill="#FFEAF4"/>
<path d="M105.772 58.3527C105.233 47.5661 94.8238 38.9383 84.491 37.6525C80.8963 37.3229 74.5766 37.3229 69.9886 42.2887C69.472 42.8465 68.9881 43.4985 68.5369 44.1867C68.4605 44.3026 68.4169 44.3823 68.3477 44.4946C68.3368 44.5091 68.3332 44.5272 68.3223 44.5453C73.7616 38.0219 82.4572 37.6054 90.1413 40.6479C98.0947 43.7955 104.964 50.6522 105.772 58.36V58.3527Z" fill="#8D2A00"/>
<path d="M79.1614 38.9197L66.6928 48.6848C66.1798 51.0754 66.2599 53.7232 67.053 56.5049C67.1185 56.7367 67.1913 56.9649 67.2677 57.1931L91.3934 41.1799C87.4422 39.4159 83.1635 38.5393 79.1614 38.9197Z" fill="white"/>
<path d="M86.9395 76.221L90.676 78.4268C90.676 78.4268 89.8974 76.5035 92.4588 76.2391V76.1992C91.4328 76.355 89.3662 76.5614 86.9395 76.2173V76.221Z" fill="#8D2A00"/>
<path d="M95.1738 75.8556C95.6941 75.8773 96.6037 76.2613 97.0367 77.366L97.6552 75.3594C97.6552 75.3594 97.0839 75.6347 95.1738 75.852V75.8556Z" fill="#8D2A00"/>
<path d="M100.442 109.5L90.2324 77.0574L90.9201 76.3692C90.9201 76.3692 92.2262 76.2931 93.7107 75.9961C93.7107 75.9961 93.1977 76.572 93.3468 77.3689C93.9435 80.4984 103.651 108.892 103.651 108.892L100.438 109.5H100.442Z" fill="#8D2A00"/>
<path d="M107.296 107.681C107.296 108.058 105.528 108.685 102.635 109.427C101.205 109.713 100.503 109.677 100.441 109.5C100.398 109.373 101.18 108.884 102.599 108.427C104.723 107.765 107.056 107.392 107.296 107.681Z" fill="#8D2A00"/>
<path d="M88.3982 55.8463C89.3587 54.8792 90.2538 53.8976 89.6971 52.1916C89.0786 50.2972 87.274 49.3627 85.1674 49.5076C82.9953 49.6561 81.9365 50.7427 81.3399 52.1228L79.3242 50.779C80.0446 49.178 81.4927 47.8197 84.527 47.6205C88.1508 47.3814 90.9778 49.0331 91.931 51.9018C92.7205 54.2888 91.6654 55.6036 90.4611 56.9438C89.3551 58.1608 88.7875 58.8019 89.1695 59.9936L89.2496 60.2399L87.0375 60.4391L86.9574 60.1928C86.2698 58.0268 87.3395 56.9075 88.3982 55.8499V55.8463ZM88.7184 62.0582C89.6316 61.9749 90.5412 62.5797 90.825 63.4599C91.1088 64.3401 90.6321 65.0899 89.7153 65.1804C88.7839 65.271 87.8816 64.6733 87.5978 63.7678C87.314 62.8623 87.7906 62.1415 88.7184 62.0545V62.0582Z" fill="#00144A"/>
<path d="M128.906 82.5051L114.719 84.4686C113.253 84.6724 111.576 83.4671 110.986 81.7898C110.401 80.1196 111.417 78.1346 112.675 77.659L126.686 76.6576C128.058 76.4859 129.66 77.6375 130.274 79.2398L130.957 79.0681C131.208 80.8671 130.285 82.3119 128.906 82.5051Z" fill="#0040B0"/>
<path d="M129.393 81.6421L115.207 83.6056C113.741 83.8095 112.063 82.6042 111.474 80.9268C110.889 79.2566 111.603 77.7581 113.062 77.5757L127.17 75.7982C128.542 75.6265 130.144 76.7781 130.759 78.3804C131.377 79.9898 130.766 81.4562 129.39 81.6457L129.393 81.6421Z" fill="#0070F2"/>
<path d="M123.97 79.2368C124.167 79.7661 123.955 80.2489 123.499 80.3097C123.043 80.3705 122.508 79.9878 122.314 79.4585C122.116 78.9256 122.332 78.45 122.788 78.3892C123.244 78.3284 123.772 78.711 123.97 79.2404V79.2368Z" fill="#56BDFF"/>
<path d="M126.193 78.9436C126.391 79.4729 126.186 79.9485 125.733 80.0093C125.28 80.0701 124.749 79.691 124.551 79.1617C124.354 78.6324 124.562 78.1567 125.015 78.0995C125.467 78.0423 125.995 78.4178 126.193 78.9471V78.9436Z" fill="#56BDFF"/>
<path d="M128.4 78.6477C128.598 79.1734 128.4 79.6491 127.947 79.7099C127.495 79.7707 126.97 79.3916 126.773 78.8658C126.575 78.3401 126.78 77.868 127.229 77.8072C127.678 77.7464 128.202 78.1255 128.4 78.6512V78.6477Z" fill="#56BDFF"/>
<path d="M125.543 74.3068L111.702 76.0128C110.254 76.188 108.608 75.0078 108.041 73.3805C107.473 71.7639 108.569 69.7218 109.78 69.3749L123.661 68.6417C125.015 68.4951 126.589 69.6252 127.185 71.1774L127.781 70.9235C128.238 72.5543 126.912 74.1387 125.551 74.3032L125.543 74.3068Z" fill="#0040B0"/>
<path d="M126.293 73.4396L112.189 75.1456C110.741 75.3208 109.096 74.1406 108.528 72.5133C107.961 70.8968 108.679 69.4626 110.116 69.3052L124.145 67.7745C125.499 67.6279 127.073 68.758 127.669 70.3102C128.269 71.8696 127.655 73.2715 126.293 73.436V73.4396Z" fill="#56BDFF"/>
<path d="M117.219 72.1695L111.547 72.8312C111.234 72.8669 110.879 72.613 110.753 72.2625C110.627 71.912 110.782 71.6009 111.094 71.5651L116.759 70.9213C117.065 70.8856 117.413 71.1395 117.543 71.4828C117.668 71.8297 117.525 72.1373 117.219 72.1731V72.1695Z" fill="#0070F2"/>
<path d="M122.13 66.3831L108.805 67.8459C107.368 67.9961 105.748 66.8302 105.191 65.2494C104.638 63.6757 105.504 61.4333 107.275 61.301L120.707 60.8682C122.051 60.743 124.257 61.5442 124.835 63.057C125.226 64.8309 123.527 66.2222 122.13 66.3831Z" fill="#0040B0"/>
<path d="M123.291 65.5209L109.294 66.9836C107.857 67.1339 106.237 65.9679 105.68 64.3871C105.127 62.8135 105.849 61.4366 107.275 61.3042L121.196 60.0096C122.54 59.8844 124.096 61.0038 124.674 62.5131C125.256 64.0331 124.642 65.3814 123.287 65.5244L123.291 65.5209Z" fill="#0070F2"/>
<path d="M122.051 63.3876L116.594 63.9348C116.292 63.9634 115.947 63.7166 115.825 63.3804C115.703 63.0442 115.846 62.751 116.145 62.7188L121.598 62.1859C121.893 62.1573 122.23 62.4005 122.356 62.7331C122.482 63.0657 122.345 63.3554 122.051 63.3876Z" fill="#56BDFF"/>
</svg>
