<svg width="130" height="128" viewBox="0 0 130 128" fill="none" xmlns="http://www.w3.org/2000/svg">
<path d="M103.351 106.966L72.142 97.9885C72.0669 97.9602 71.9918 97.946 71.9167 97.9673L2.66027 105.9C0.452802 106.211 0.24477 106.969 0.915101 107.366L32.1877 116.669C33.5457 117.236 34.9903 117.37 36.4003 117.059L101.386 108.234C103.426 107.901 103.837 107.158 103.351 106.966Z" fill="#1B90FF"/>
<path d="M87.8992 35.8821L109.51 97.9549C109.971 100.325 107.464 102.135 105.988 102.262L38.3837 111.852C37.2316 111.951 36.1782 111.188 35.9148 110.058L19.8724 42.8388C19.3018 40.0737 21.6006 36.7599 23.0545 36.694L85.562 34.2252C86.6263 34.1758 87.592 34.8561 87.8992 35.8821Z" fill="#0040B0"/>
<path d="M89.6747 33.9852L109.41 97.4186C109.838 98.8396 108.855 100.293 107.374 100.42L40.1593 109.955C39.0071 110.054 37.9537 109.291 37.6904 108.161L21.3187 39.5539C20.984 38.1329 22.0265 36.7613 23.4859 36.69L87.3375 32.3228C88.4019 32.2735 89.3675 32.9538 89.6747 33.9797V33.9852Z" fill="#56BDFF"/>
<path d="M85.1634 47.9525L38.7471 51.6109C38.1469 51.6681 37.5753 51.3537 37.4896 50.9535L36.6893 47.5238C36.6035 47.1236 37.0037 46.7521 37.6039 46.6949L83.8201 43.3223C84.3631 43.2937 84.8776 43.5795 84.9919 43.9511L85.9351 47.1808C86.0494 47.5809 85.7065 47.9239 85.1634 47.9811V47.9525Z" fill="white"/>
<path d="M82.8122 70.6668L44.1797 74.6505C43.5795 74.7077 42.9793 74.4219 42.8935 73.9646L42.0361 70.3633C41.9218 69.9346 42.3505 69.5345 42.9507 69.4773L81.3832 65.808C81.9262 65.7508 82.4693 66.0366 82.5836 66.4654L83.5839 69.8665C83.6983 70.2667 83.3553 70.6097 82.8122 70.6668Z" fill="white"/>
<path d="M89.3507 93.7535L49.8924 98.9505C49.2636 99.0363 48.6634 98.7219 48.549 98.2646L47.663 94.4347C47.5487 93.9774 47.9774 93.5486 48.6062 93.4629L87.8359 88.6088C88.3789 88.5517 88.9506 88.8375 89.0649 89.2662L90.1224 92.8389C90.2367 93.2676 89.8938 93.6963 89.3507 93.7535Z" fill="white"/>
<path d="M67.3942 60.5172L41.4313 62.9626C40.8311 63.0198 40.2594 62.7054 40.1451 62.2767L39.3162 58.7612C39.2305 58.3324 39.6306 57.9609 40.2308 57.9037L66.0509 55.6869C66.5939 55.6298 67.137 55.9156 67.2513 56.3443L68.1945 59.6883C68.3088 60.0885 67.9659 60.46 67.3942 60.5172Z" fill="white"/>
<path d="M73.5829 83.3838L47.0071 86.6303C46.3783 86.716 45.8067 86.4016 45.6924 85.9443L44.8349 82.2287C44.7206 81.7714 45.1493 81.3713 45.7495 81.2856L72.1539 78.2963C72.7255 78.2392 73.2685 78.525 73.3829 78.9537L74.3832 82.4692C74.4975 82.8979 74.1546 83.3267 73.5829 83.3838Z" fill="white"/>
<path d="M126.422 53.1042C126.422 53.1042 119.562 62.4252 106.238 64.1562C92.9142 65.8872 74.6373 56.0247 69.8624 40.8521C64.673 24.3627 74.1668 13.0628 90.3894 9.54654C105.241 8.36237 126.422 53.1042 126.422 53.1042Z" fill="#8D2A00"/>
<path d="M128.223 32.2931C133.739 46.7323 126.008 60.3006 110.445 62.1876C94.5006 64.1205 77.2955 53.0275 72.5205 37.8473C67.906 23.1865 76.86 10.6649 92.0482 9.45021C106.9 8.26605 122.891 18.3124 128.231 32.2855L128.223 32.2931Z" fill="#C35500"/>
<path d="M116.008 31.2824C115.87 30.9159 115.503 30.6883 115.113 30.7282L103.817 31.8864C103.425 31.9267 103.055 31.6946 102.92 31.3233L99.2848 21.3021C99.1514 20.9343 98.7869 20.7026 98.3973 20.7379L92.4365 21.2784C91.8764 21.3292 91.5144 21.8944 91.7026 22.4245L95.0015 31.7158C95.1883 32.2419 94.833 32.804 94.2776 32.8609L83.3072 33.9864C82.7559 34.0429 82.4007 34.5978 82.5801 35.1221L84.4283 40.5242C84.5588 40.9056 84.9365 41.1455 85.3373 41.1016L97.1732 39.8031C97.5702 39.7596 97.9451 39.9946 98.0788 40.371L101.797 50.8364C101.932 51.2163 102.312 51.4517 102.713 51.4032L108.813 50.6626C109.363 50.5958 109.708 50.0345 109.519 49.5136L106.032 39.9055C105.842 39.3807 106.193 38.8161 106.748 38.7553L117.234 37.6074C117.793 37.5462 118.144 36.9748 117.947 36.4484L116.008 31.2824Z" fill="white"/>
</svg>
