<?xml version="1.0" encoding="UTF-8"?>
<!--Generator: Apple Native CoreSVG 232.5-->
<!DOCTYPE svg
PUBLIC "-//W3C//DTD SVG 1.1//EN"
       "http://www.w3.org/Graphics/SVG/1.1/DTD/svg11.dtd">
<svg version="1.1" xmlns="http://www.w3.org/2000/svg" xmlns:xlink="http://www.w3.org/1999/xlink" width="3300" height="2200">
 <!--glyph: "", point size: 100.0, font version: "19.0d6e1", template writer version: "123"-->
 <style>.SFSymbolsPreviewWireframe {fill:none;opacity:1.0;stroke:black;stroke-width:0.5}
</style>
 <g id="Notes">
  <rect height="2200" id="artboard" style="fill:white;opacity:1" width="3300" x="0" y="0"/>
  <line style="fill:none;stroke:black;opacity:1;stroke-width:0.5;" x1="263" x2="3036" y1="292" y2="292"/>
  <text style="stroke:none;fill:black;font-family:sans-serif;font-size:13;font-weight:bold;" transform="matrix(1 0 0 1 263 322)">Weight/Scale Variations</text>
  <text style="stroke:none;fill:black;font-family:sans-serif;font-size:13;text-anchor:middle;" transform="matrix(1 0 0 1 559.711 322)">Ultralight</text>
  <text style="stroke:none;fill:black;font-family:sans-serif;font-size:13;text-anchor:middle;" transform="matrix(1 0 0 1 856.422 322)">Thin</text>
  <text style="stroke:none;fill:black;font-family:sans-serif;font-size:13;text-anchor:middle;" transform="matrix(1 0 0 1 1153.13 322)">Light</text>
  <text style="stroke:none;fill:black;font-family:sans-serif;font-size:13;text-anchor:middle;" transform="matrix(1 0 0 1 1449.84 322)">Regular</text>
  <text style="stroke:none;fill:black;font-family:sans-serif;font-size:13;text-anchor:middle;" transform="matrix(1 0 0 1 1746.56 322)">Medium</text>
  <text style="stroke:none;fill:black;font-family:sans-serif;font-size:13;text-anchor:middle;" transform="matrix(1 0 0 1 2043.27 322)">Semibold</text>
  <text style="stroke:none;fill:black;font-family:sans-serif;font-size:13;text-anchor:middle;" transform="matrix(1 0 0 1 2339.98 322)">Bold</text>
  <text style="stroke:none;fill:black;font-family:sans-serif;font-size:13;text-anchor:middle;" transform="matrix(1 0 0 1 2636.69 322)">Heavy</text>
  <text style="stroke:none;fill:black;font-family:sans-serif;font-size:13;text-anchor:middle;" transform="matrix(1 0 0 1 2933.4 322)">Black</text>
  <line style="fill:none;stroke:black;opacity:1;stroke-width:0.5;" x1="263" x2="3036" y1="1903" y2="1903"/>
  <g transform="matrix(0.2 0 0 0.2 263 1933)">
   <path d="m46.2402 4.15039c21.5332 0 39.4531-17.8711 39.4531-39.4043s-17.9688-39.4043-39.502-39.4043c-21.4844 0-39.3555 17.8711-39.3555 39.4043s17.9199 39.4043 39.4043 39.4043Zm0-7.42188c-17.7246 0-31.8848-14.209-31.8848-31.9824s14.1113-31.9824 31.8359-31.9824c17.7734 0 32.0312 14.209 32.0312 31.9824s-14.209 31.9824-31.9824 31.9824Zm-17.9688-31.9824c0 2.14844 1.51367 3.61328 3.75977 3.61328h10.498v10.5957c0 2.19727 1.46484 3.71094 3.61328 3.71094 2.24609 0 3.71094-1.51367 3.71094-3.71094v-10.5957h10.5957c2.19727 0 3.71094-1.46484 3.71094-3.61328 0-2.19727-1.51367-3.71094-3.71094-3.71094h-10.5957v-10.5469c0-2.24609-1.46484-3.75977-3.71094-3.75977-2.14844 0-3.61328 1.51367-3.61328 3.75977v10.5469h-10.498c-2.24609 0-3.75977 1.51367-3.75977 3.71094Z"/>
  </g>
  <g transform="matrix(0.2 0 0 0.2 281.506 1933)">
   <path d="m58.5449 14.5508c27.2461 0 49.8047-22.6074 49.8047-49.8047 0-27.2461-22.6074-49.8047-49.8535-49.8047-27.1973 0-49.7559 22.5586-49.7559 49.8047 0 27.1973 22.6074 49.8047 49.8047 49.8047Zm0-8.30078c-23.0469 0-41.4551-18.457-41.4551-41.5039s18.3594-41.5039 41.4062-41.5039 41.5527 18.457 41.5527 41.5039-18.457 41.5039-41.5039 41.5039Zm-22.6562-41.5039c0 2.39258 1.66016 4.00391 4.15039 4.00391h14.3555v14.4043c0 2.44141 1.66016 4.15039 4.05273 4.15039 2.44141 0 4.15039-1.66016 4.15039-4.15039v-14.4043h14.4043c2.44141 0 4.15039-1.61133 4.15039-4.00391 0-2.44141-1.70898-4.15039-4.15039-4.15039h-14.4043v-14.3555c0-2.49023-1.70898-4.19922-4.15039-4.19922-2.39258 0-4.05273 1.70898-4.05273 4.19922v14.3555h-14.3555c-2.49023 0-4.15039 1.70898-4.15039 4.15039Z"/>
  </g>
  <g transform="matrix(0.2 0 0 0.2 304.924 1933)">
   <path d="m74.8535 28.3203c34.8145 0 63.623-28.8086 63.623-63.5742 0-34.8145-28.8574-63.623-63.6719-63.623-34.7656 0-63.5254 28.8086-63.5254 63.623 0 34.7656 28.8086 63.5742 63.5742 63.5742Zm0-9.08203c-30.1758 0-54.4434-24.3164-54.4434-54.4922 0-30.2246 24.2188-54.4922 54.3945-54.4922 30.2246 0 54.541 24.2676 54.541 54.4922 0 30.1758-24.2676 54.4922-54.4922 54.4922Zm-28.8574-54.4922c0 2.58789 1.85547 4.39453 4.58984 4.39453h19.7266v19.7754c0 2.68555 1.85547 4.58984 4.44336 4.58984 2.68555 0 4.54102-1.85547 4.54102-4.58984v-19.7754h19.7754c2.68555 0 4.58984-1.80664 4.58984-4.39453 0-2.73438-1.85547-4.58984-4.58984-4.58984h-19.7754v-19.7266c0-2.73438-1.85547-4.63867-4.54102-4.63867-2.58789 0-4.44336 1.9043-4.44336 4.63867v19.7266h-19.7266c-2.73438 0-4.58984 1.85547-4.58984 4.58984Z"/>
  </g>
  <text style="stroke:none;fill:black;font-family:sans-serif;font-size:13;font-weight:bold;" transform="matrix(1 0 0 1 263 1953)">Design Variations</text>
  <text style="stroke:none;fill:black;font-family:sans-serif;font-size:13;" transform="matrix(1 0 0 1 263 1971)">Symbols are supported in up to nine weights and three scales.</text>
  <text style="stroke:none;fill:black;font-family:sans-serif;font-size:13;" transform="matrix(1 0 0 1 263 1989)">For optimal layout with text and other symbols, vertically align</text>
  <text style="stroke:none;fill:black;font-family:sans-serif;font-size:13;" transform="matrix(1 0 0 1 263 2007)">symbols with the adjacent text.</text>
  <line style="fill:none;stroke:#00AEEF;stroke-width:0.5;opacity:1.0;" x1="776" x2="776" y1="1919" y2="1933"/>
  <g transform="matrix(0.2 0 0 0.2 776 1933)">
   <path d="m16.5527 0.78125c2.58789 0 3.85742-0.976562 4.78516-3.71094l6.29883-17.2363h28.8086l6.29883 17.2363c0.927734 2.73438 2.19727 3.71094 4.73633 3.71094 2.58789 0 4.24805-1.5625 4.24805-4.00391 0-0.830078-0.146484-1.61133-0.537109-2.63672l-22.9004-60.9863c-1.12305-2.97852-3.125-4.49219-6.25-4.49219-3.02734 0-5.07812 1.46484-6.15234 4.44336l-22.9004 61.084c-0.390625 1.02539-0.537109 1.80664-0.537109 2.63672 0 2.44141 1.5625 3.95508 4.10156 3.95508Zm13.4766-28.3691 11.8652-32.8613h0.244141l11.8652 32.8613Z"/>
  </g>
  <line style="fill:none;stroke:#00AEEF;stroke-width:0.5;opacity:1.0;" x1="792.836" x2="792.836" y1="1919" y2="1933"/>
  <text style="stroke:none;fill:black;font-family:sans-serif;font-size:13;font-weight:bold;" transform="matrix(1 0 0 1 776 1953)">Margins</text>
  <text style="stroke:none;fill:black;font-family:sans-serif;font-size:13;" transform="matrix(1 0 0 1 776 1971)">Leading and trailing margins on the left and right side of each symbol</text>
  <text style="stroke:none;fill:black;font-family:sans-serif;font-size:13;" transform="matrix(1 0 0 1 776 1989)">can be adjusted by modifying the x-location of the margin guidelines.</text>
  <text style="stroke:none;fill:black;font-family:sans-serif;font-size:13;" transform="matrix(1 0 0 1 776 2007)">Modifications are automatically applied proportionally to all</text>
  <text style="stroke:none;fill:black;font-family:sans-serif;font-size:13;" transform="matrix(1 0 0 1 776 2025)">scales and weights.</text>
  <g transform="matrix(0.2 0 0 0.2 1289 1933)">
   <path d="m14.209 9.32617 8.49609 8.54492c4.29688 4.3457 9.22852 4.05273 13.8672-1.07422l53.4668-58.9355-4.83398-4.88281-53.0762 58.3984c-1.75781 2.00195-3.41797 2.49023-5.76172 0.146484l-5.85938-5.81055c-2.34375-2.29492-1.80664-4.00391 0.195312-5.81055l57.373-54.0039-4.88281-4.83398-57.959 54.4434c-4.93164 4.58984-5.32227 9.47266-1.02539 13.8184Zm32.0801-90.9668c-2.09961 2.05078-2.24609 4.93164-1.07422 6.88477 1.17188 1.80664 3.4668 2.97852 6.68945 2.14844 7.32422-1.70898 14.9414-2.00195 22.0703 2.68555l-2.92969 7.27539c-1.70898 4.15039-0.830078 7.08008 1.85547 9.81445l11.4746 11.5723c2.44141 2.44141 4.49219 2.53906 7.32422 2.05078l5.32227-0.976562 3.32031 3.36914-0.195312 2.7832c-0.195312 2.49023 0.439453 4.39453 2.88086 6.78711l3.80859 3.71094c2.39258 2.39258 5.46875 2.53906 7.8125 0.195312l14.5508-14.5996c2.34375-2.34375 2.24609-5.32227-0.146484-7.71484l-3.85742-3.80859c-2.39258-2.39258-4.24805-3.17383-6.64062-2.97852l-2.88086 0.244141-3.22266-3.17383 1.2207-5.61523c0.634766-2.83203-0.146484-5.0293-3.07617-7.95898l-10.9863-10.9375c-16.6992-16.6016-38.8672-16.2109-53.3203-1.75781Zm7.4707 1.85547c12.1582-8.88672 28.6133-7.37305 39.7461 3.75977l12.1582 12.0605c1.17188 1.17188 1.36719 2.09961 1.02539 3.80859l-1.61133 7.42188 7.51953 7.42188 4.93164-0.292969c1.26953-0.0488281 1.66016 0.0488281 2.63672 1.02539l2.88086 2.88086-12.207 12.207-2.88086-2.88086c-0.976562-0.976562-1.12305-1.36719-1.07422-2.68555l0.341797-4.88281-7.4707-7.42188-7.61719 1.26953c-1.61133 0.341797-2.34375 0.195312-3.56445-0.976562l-10.0098-10.0098c-1.26953-1.17188-1.41602-2.00195-0.634766-3.85742l4.39453-10.4492c-7.8125-7.27539-17.9688-10.4004-28.125-7.42188-0.78125 0.195312-1.07422-0.439453-0.439453-0.976562Z"/>
  </g>
  <text style="stroke:none;fill:black;font-family:sans-serif;font-size:13;font-weight:bold;" transform="matrix(1 0 0 1 1289 1953)">Exporting</text>
  <text style="stroke:none;fill:black;font-family:sans-serif;font-size:13;" transform="matrix(1 0 0 1 1289 1971)">Symbols should be outlined when exporting to ensure the</text>
  <text style="stroke:none;fill:black;font-family:sans-serif;font-size:13;" transform="matrix(1 0 0 1 1289 1989)">design is preserved when submitting to Xcode.</text>
  <text id="template-version" style="stroke:none;fill:black;font-family:sans-serif;font-size:13;text-anchor:end;" transform="matrix(1 0 0 1 3036 1933)">Template v.5.0</text>
  <text style="stroke:none;fill:black;font-family:sans-serif;font-size:13;text-anchor:end;" transform="matrix(1 0 0 1 3036 1951)">Requires Xcode 15 or greater</text>
  <text id="descriptive-name" style="stroke:none;fill:black;font-family:sans-serif;font-size:13;text-anchor:end;" transform="matrix(1 0 0 1 3036 1969)">Generated from lead.outdated</text>
  <text style="stroke:none;fill:black;font-family:sans-serif;font-size:13;text-anchor:end;" transform="matrix(1 0 0 1 3036 1987)">Typeset at 100.0 points</text>
  <text style="stroke:none;fill:black;font-family:sans-serif;font-size:13;" transform="matrix(1 0 0 1 263 726)">Small</text>
  <text style="stroke:none;fill:black;font-family:sans-serif;font-size:13;" transform="matrix(1 0 0 1 263 1156)">Medium</text>
  <text style="stroke:none;fill:black;font-family:sans-serif;font-size:13;" transform="matrix(1 0 0 1 263 1586)">Large</text>
 </g>
 <g id="Guides">
  <g id="H-reference" style="fill:#27AAE1;stroke:none;" transform="matrix(1 0 0 1 339 696)">
   <path d="M0.993654 0L3.63775 0L29.3281-67.1323L30.0303-67.1323L30.0303-70.459L28.1226-70.459ZM11.6885-24.4799L46.9815-24.4799L46.2315-26.7285L12.4385-26.7285ZM55.1196 0L57.7637 0L30.6382-70.459L29.4326-70.459L29.4326-67.1323Z"/>
  </g>
  <line id="Baseline-S" style="fill:none;stroke:#27AAE1;opacity:1;stroke-width:0.5;" x1="263" x2="3036" y1="696" y2="696"/>
  <line id="Capline-S" style="fill:none;stroke:#27AAE1;opacity:1;stroke-width:0.5;" x1="263" x2="3036" y1="625.541" y2="625.541"/>
  <g id="H-reference" style="fill:#27AAE1;stroke:none;" transform="matrix(1 0 0 1 339 1126)">
   <path d="M0.993654 0L3.63775 0L29.3281-67.1323L30.0303-67.1323L30.0303-70.459L28.1226-70.459ZM11.6885-24.4799L46.9815-24.4799L46.2315-26.7285L12.4385-26.7285ZM55.1196 0L57.7637 0L30.6382-70.459L29.4326-70.459L29.4326-67.1323Z"/>
  </g>
  <line id="Baseline-M" style="fill:none;stroke:#27AAE1;opacity:1;stroke-width:0.5;" x1="263" x2="3036" y1="1126" y2="1126"/>
  <line id="Capline-M" style="fill:none;stroke:#27AAE1;opacity:1;stroke-width:0.5;" x1="263" x2="3036" y1="1055.54" y2="1055.54"/>
  <g id="H-reference" style="fill:#27AAE1;stroke:none;" transform="matrix(1 0 0 1 339 1556)">
   <path d="M0.993654 0L3.63775 0L29.3281-67.1323L30.0303-67.1323L30.0303-70.459L28.1226-70.459ZM11.6885-24.4799L46.9815-24.4799L46.2315-26.7285L12.4385-26.7285ZM55.1196 0L57.7637 0L30.6382-70.459L29.4326-70.459L29.4326-67.1323Z"/>
  </g>
  <line id="Baseline-L" style="fill:none;stroke:#27AAE1;opacity:1;stroke-width:0.5;" x1="263" x2="3036" y1="1556" y2="1556"/>
  <line id="Capline-L" style="fill:none;stroke:#27AAE1;opacity:1;stroke-width:0.5;" x1="263" x2="3036" y1="1485.54" y2="1485.54"/>
  <line id="left-margin-Ultralight-S" style="fill:none;stroke:#00AEEF;stroke-width:0.5;opacity:1.0;" x1="515.011" x2="515.011" y1="600.785" y2="720.121"/>
  <line id="right-margin-Ultralight-S" style="fill:none;stroke:#00AEEF;stroke-width:0.5;opacity:1.0;" x1="604.411" x2="604.411" y1="600.785" y2="720.121"/>
  <line id="left-margin-Regular-S" style="fill:none;stroke:#00AEEF;stroke-width:0.5;opacity:1.0;" x1="1403.39" x2="1403.39" y1="600.785" y2="720.121"/>
  <line id="right-margin-Regular-S" style="fill:none;stroke:#00AEEF;stroke-width:0.5;opacity:1.0;" x1="1496.29" x2="1496.29" y1="600.785" y2="720.121"/>
  <line id="left-margin-Black-S" style="fill:none;stroke:#00AEEF;stroke-width:0.5;opacity:1.0;" x1="2884.9" x2="2884.9" y1="600.785" y2="720.121"/>
  <line id="right-margin-Black-S" style="fill:none;stroke:#00AEEF;stroke-width:0.5;opacity:1.0;" x1="2981.9" x2="2981.9" y1="600.785" y2="720.121"/>
 </g>
 <g id="Symbols">
  <g id="Black-S" transform="matrix(1 0 0 1 2884.9 696)">
   <path class="SFSymbolsPreviewWireframe" d="M13.4-36.4C13.1-36.4 12.2-36.5 11.9-36.6C6.6-38 6.3-42.6 6.8-44.8C7.8-49.2 9.7-54.5 12.4-58.2C15.6-62.6 20-61.5 21.8-60.3C23.7-59.1 26.6-55.4 23.9-50.9C22.1-47.7 20.9-45.3 20.1-41.8C19.6-39.9 17.8-36.5 13.4-36.4ZM18.1-9.2C16.8-9.2 14-9.7 12.3-12.4C9.9-16.3 7.5-21.3 6.7-25.8C5.8-31.1 9.7-33.6 11.8-34C17-35 19.5-31 20-28.8C20.8-25.2 21.9-22.8 23.8-19.7C26.6-15.2 23.4-11.6 21.7-10.3C20.7-9.4 18.8-9.2 18.1-9.2ZM29.3-58.9C28-58.9 25.3-59.2 23.5-62.1C21.9-64.6 21.9-69.1 25.6-71.5C29.4-74 35.9-76.8 40.5-77.2C44-77.5 46.8-74.1 47.2-71.9C48-66.5 44.2-64.2 42-63.7C38.5-62.9 36-61.9 32.9-59.9C31.5-59 30-58.9 29.3-58.9ZM40.5 6.7C40.2 6.7 39.3 6.6 39 6.5C34.6 5.5 29.5 3.4 25.7 1C23.8-0.2 21-3.7 23.6-8.4C25.1-11.2 29.5-12.7 33-10.5C35.8-8.8 38.5-7.5 42.1-6.7C44.3-6.2 48.3-3.7 47.3 1.5C46.8 3.2 44.9 6.6 40.5 6.7ZM83.6-36.4C80.2-36.5 78.2-38.6 77.3-40.6L72.6-51.9C70.9-56.7 73.9-59.7 75.8-60.6C79.3-62.2 82.8-61.1 84.7-58.2C87.2-54.4 89.2-49.2 90.3-44.8C91.4-40.1 87.5-37.2 85.7-36.8C85.3-36.7 84-36.4 83.6-36.4ZM78.9-9.2C78.3-9.2 76.3-9.7 75.7-10C73.9-11 70.9-14.1 72.6-18.7L77.3-30C78.1-31.9 81-35.2 85.7-33.9C90-32.7 90.7-27.9 90.3-25.9C89.3-21.5 87.1-16.4 84.7-12.5C82.9-9.5 80.2-9.2 78.9-9.2ZM67.7-58.9C67.2-58.9 66-59 65.1-59.4L53.9-64C52-64.8 48.7-67.4 50-72.4C50.5-74.4 53.1-78 58-77C62.4-76.1 67.4-73.8 71.3-71.5C73.4-70.3 75.8-66.4 73.7-62.6C72-59.4 69.1-58.9 67.7-58.9ZM56.5 6.7C52 6.5 50.5 3.6 50 1.9C49.4-0.1 49.3-4.1 53.9-6.5L65.1-11.1C67-11.9 71.4-12.5 73.8-7.9C75.9-3.8 73.3-0.2 71.4 1C67.5 3.5 62.4 5.5 58 6.5C57.7 6.6 56.8 6.7 56.5 6.7ZM50.3-40.5L46.3-40.5C46.1-40.5 45.6-40.8 45.6-41.2C45.6-41.6 46.1-41.9 46.3-41.9L56.3-41.9C60-41.9 61.6-45.1 61.6-47.2C61.6-50.8 58.4-52.5 56.3-52.5L54.6-52.5L54.6-55.7C54.6-58.7 52.1-61 49.3-61C46.4-61 44-58.7 44-55.7L44-52.2C38.5-51 35-46.2 35-41.1C35-34.2 41-29.7 46.4-29.7L50.4-29.7C50.6-29.7 51.1-29.4 51.1-29C51.1-28.6 50.8-28.3 50.4-28.3L40.4-28.3C37.4-28.3 35.1-25.9 35.1-23C35.1-19.7 37.8-17.7 40.4-17.7L42-17.7L42-14.5C42-11.3 44.6-9.2 47.3-9.2C50.2-9.2 52.6-11.5 52.6-14.5L52.6-18C57.9-19.1 61.6-24 61.6-29C61.7-34.5 57.1-40.5 50.3-40.5Z"/>
  </g>
  <g id="Regular-S" transform="matrix(1 0 0 1 1403.39 696)">
   <path class="SFSymbolsPreviewWireframe" d="M11.39-39.3C11.09-39.3 10.79-39.3 10.49-39.4C8.29-39.9 6.99-42 7.49-44.2C8.49-48.6 10.29-52.9 12.69-56.7C13.89-58.6 16.39-59.1 18.19-57.9C20.09-56.7 20.59-54.2 19.39-52.4C17.39-49.3 15.99-46 15.19-42.4C14.89-40.5 13.29-39.3 11.39-39.3ZM16.09-12C14.79-12 13.49-12.7 12.69-13.9C10.29-17.8 8.49-22 7.49-26.4C6.99-28.6 8.39-30.7 10.49-31.2C12.59-31.7 14.79-30.3 15.29-28.2C16.09-24.6 17.49-21.3 19.49-18.2C20.69-16.3 20.09-13.9 18.29-12.7C17.59-12.2 16.79-12 16.09-12ZM27.29-61.7C25.99-61.7 24.69-62.4 23.89-63.6C22.69-65.5 23.29-67.9 25.09-69.1C28.89-71.5 33.09-73.3 37.49-74.3C39.69-74.8 41.79-73.4 42.29-71.3C42.79-69.1 41.39-67 39.29-66.5C35.79-65.7 32.39-64.3 29.39-62.4C28.79-61.9 28.09-61.7 27.29-61.7ZM38.49 3.9C38.19 3.9 37.89 3.9 37.59 3.8C33.19 2.8 28.99 1.1 25.19-1.4C23.29-2.6 22.79-5 23.99-6.9C25.19-8.8 27.59-9.3 29.49-8.1C32.59-6.2 35.89-4.8 39.39-4C41.59-3.5 42.89-1.4 42.39 0.8C41.99 2.6 40.39 3.9 38.49 3.9ZM81.69-39.3C80.09-39.3 78.59-40.2 77.99-41.8L73.29-53C72.49-54.9 73.29-57.1 75.09-58.1C76.99-59.1 79.19-58.4 80.29-56.7C82.69-52.8 84.49-48.6 85.49-44.2C85.99-42.2 84.79-40.1 82.79-39.5C82.49-39.3 82.09-39.3 81.69-39.3ZM76.99-12C76.39-12 75.69-12.1 75.19-12.5C73.39-13.5 72.59-15.7 73.39-17.6L77.99-28.8C78.79-30.7 80.89-31.7 82.89-31.1C84.89-30.5 85.99-28.4 85.59-26.4C84.59-22 82.79-17.7 80.39-13.9C79.59-12.7 78.29-12 76.99-12ZM65.69-61.7C65.19-61.7 64.69-61.8 64.19-62L52.99-66.7C51.09-67.5 50.09-69.6 50.69-71.6C51.29-73.6 53.39-74.8 55.39-74.3C59.79-73.3 63.99-71.6 67.79-69.1C69.59-68 70.19-65.7 69.19-63.9C68.59-62.5 67.19-61.7 65.69-61.7ZM54.49 3.9C52.79 3.9 51.19 2.8 50.69 1.1C50.09-0.9 51.09-3 52.99-3.8L64.19-8.4C66.09-9.2 68.29-8.4 69.29-6.5C70.29-4.7 69.59-2.4 67.89-1.3C63.99 1 59.79 2.8 55.39 3.8C55.09 3.8 54.79 3.9 54.49 3.9ZM48.29-39L44.29-39C43.29-39 42.19-40.1 42.19-41.1C42.19-42.1 43.29-43.2 44.29-43.2L54.29-43.2C56.49-43.2 58.19-45 58.19-47.1C58.19-49.2 56.39-51 54.29-51L51.19-51L51.19-55.6C51.19-57.8 49.39-59.5 47.29-59.5C45.09-59.5 43.39-57.7 43.39-55.6L43.39-50.9C38.39-50.4 34.39-46.1 34.39-41.1C34.39-35.7 38.99-31.2 44.29-31.2L48.29-31.2C49.29-31.2 50.39-30.1 50.39-29.1C50.39-28.1 49.29-27 48.29-27L38.29-27C36.09-27 34.39-25.2 34.39-23.1C34.39-21 36.19-19.2 38.29-19.2L41.39-19.2L41.39-14.6C41.39-12.4 43.19-10.7 45.29-10.7C47.39-10.7 49.19-12.5 49.19-14.6L49.19-19.3C54.19-19.8 58.19-24.1 58.19-29.1C58.19-34.5 53.69-39 48.29-39Z"/>
  </g>
  <g id="Ultralight-S" transform="matrix(1 0 0 1 515.011 696)">
   <path class="SFSymbolsPreviewWireframe" d="M9.711-42.1C9.611-42.1 9.611-42.1 9.411-42.1C8.911-42.2 8.411-42.8 8.511-43.5C9.511-47.9 11.111-51.5 13.311-55.1C13.611-55.6 14.411-55.9 14.911-55.5C15.511-55.1 15.711-54.6 15.311-53.9C12.511-49.4 11.711-46.5 10.811-43C10.611-42.4 10.211-42.1 9.711-42.1ZM14.311-14.8C13.911-14.8 13.611-14.9 13.311-15.3C10.911-19.1 9.611-22.5 8.511-26.9C8.411-27.3 8.511-28.1 9.411-28.3C10.011-28.5 10.711-28 10.811-27.4C11.911-22.3 13.611-19.5 15.311-16.5C15.711-15.8 15.411-15.2 14.911-14.9C14.911-14.9 14.511-14.8 14.311-14.8ZM25.611-64.6C25.211-64.6 24.811-64.8 24.611-65.1C24.311-65.6 24.411-66.3 25.011-66.7C28.811-69.2 33.011-70.6 36.611-71.5C37.011-71.6 37.811-71.5 38.011-70.6C38.211-69.9 37.711-69.3 37.111-69.2C32.811-68.3 29.411-66.6 26.311-64.7C25.911-64.6 25.811-64.6 25.611-64.6ZM36.811 1C36.711 1 36.611 1 36.511 1C32.211 0.1 27.311-2.2 25.011-3.8C24.311-4.3 24.411-5 24.611-5.4C25.011-6 25.811-6 26.211-5.8C29.411-3.8 33.511-2.1 37.011-1.3C37.511-1.2 38.011-0.7 37.911 0.1C37.811 0.8 37.211 1 36.811 1ZM79.911-42.1C79.411-42.1 79.011-42.4 78.811-42.8L74.111-54.1C73.911-54.8 74.111-55.3 74.611-55.6C75.111-55.8 75.711-55.8 76.111-55.2C78.611-51 79.911-47.9 80.911-43.6C81.011-43 80.711-42.5 80.111-42.2C80.211-42.1 80.011-42.1 79.911-42.1ZM75.211-14.8C75.111-14.8 74.911-14.8 74.711-14.9C74.111-15.3 74.011-16 74.211-16.4L78.911-27.7C79.211-28.4 79.811-28.5 80.311-28.4C81.011-28.2 81.211-27.5 81.111-27C80.111-22.5 78.611-19.3 76.311-15.4C76.011-15 75.711-14.9 75.211-14.8ZM64.011-64.6C63.811-64.6 63.611-64.6 63.611-64.7L52.411-69.3C51.811-69.5 51.611-70.1 51.711-70.7C51.911-71.3 52.511-71.6 53.111-71.5C57.611-70.4 60.811-69.1 64.711-66.7C65.211-66.4 65.411-65.7 65.111-65.2C64.711-64.7 64.311-64.6 64.011-64.6ZM52.811 1C52.311 1 51.811 0.6 51.711 0.2C51.611-0.4 51.811-0.9 52.411-1.2L63.611-5.8C64.011-6 64.811-5.8 65.111-5.2C65.411-4.6 65.211-4 64.711-3.7C61.011-1.6 57.511 0 53.011 1C52.911 1 52.811 1 52.811 1ZM47.111-36.2L43.111-36.2C40.411-36.2 38.211-38.6 38.211-41.1C38.211-43.6 40.411-46 43.111-46L53.111-46C53.611-46 54.211-46.4 54.211-47.1C54.211-47.7 53.811-48.2 53.111-48.2L47.111-48.2L47.111-55.7C47.111-56.4 46.611-56.8 46.011-56.8C45.511-56.8 44.911-56.4 44.911-55.7L44.911-48.4C40.711-48.4 35.911-46.2 35.911-41.1C35.911-37.9 38.411-34 43.011-34L47.011-34C49.511-34 51.911-31.8 51.911-29.1C51.911-27.2 50.211-24.2 47.011-24.2L37.011-24.2C36.411-24.2 35.911-23.8 35.911-23.1C35.911-22.3 36.611-22 37.011-22L43.011-22L43.011-14.5C43.011-13.8 43.511-13.4 44.111-13.4C44.611-13.4 45.211-13.8 45.211-14.5L45.211-21.8C51.211-21.8 54.211-24.7 54.211-29.1C54.211-33.2 50.811-36.2 47.111-36.2Z"/>
  </g>
 </g>
</svg>
