<svg width="45" height="45" viewBox="0 0 45 45" fill="none" xmlns="http://www.w3.org/2000/svg">
<path fill-rule="evenodd" clip-rule="evenodd" d="M42.582 6.63086C42.582 6.907 42.3582 7.13086 42.082 7.13086L2.8845 7.13086C2.60836 7.13086 2.3845 6.907 2.3845 6.63086C2.3845 6.35471 2.60836 6.13086 2.8845 6.13086L42.082 6.13086C42.3582 6.13086 42.582 6.35472 42.582 6.63086Z" fill="white"/>
<path fill-rule="evenodd" clip-rule="evenodd" d="M42.582 22.5293C42.582 22.8054 42.3582 23.0293 42.082 23.0293L2.8845 23.0293C2.60836 23.0293 2.3845 22.8054 2.3845 22.5293C2.3845 22.2532 2.60836 22.0293 2.8845 22.0293L42.082 22.0293C42.3582 22.0293 42.582 22.2532 42.582 22.5293Z" fill="white"/>
<path fill-rule="evenodd" clip-rule="evenodd" d="M42.582 38.4297C42.582 38.7058 42.3582 38.9297 42.082 38.9297L2.8845 38.9297C2.60836 38.9297 2.3845 38.7058 2.3845 38.4297C2.3845 38.1535 2.60836 37.9297 2.8845 37.9297L42.082 37.9297C42.3582 37.9297 42.582 38.1535 42.582 38.4297Z" fill="white"/>
<path fill-rule="evenodd" clip-rule="evenodd" d="M43.8674 3.47752C44.2326 3.89187 44.1927 4.52378 43.7784 4.88893L35.0544 12.577C34.6496 12.9337 34.1703 13.1955 33.6513 13.3433L16.7095 18.1665C16.5013 18.2258 16.307 18.3262 16.1381 18.4617L2.17198 29.6744C1.74132 30.0201 1.1119 29.9513 0.766148 29.5206C0.420392 29.09 0.489224 28.4606 0.919888 28.1148L14.886 16.9022C15.2631 16.5995 15.6969 16.3753 16.1619 16.2429L33.1037 11.4197C33.3361 11.3535 33.5508 11.2363 33.7321 11.0765L42.456 3.38844C42.8704 3.02329 43.5023 3.06317 43.8674 3.47752Z" fill="#F58B00"/>
<path fill-rule="evenodd" clip-rule="evenodd" d="M44.2669 10.7371C44.7314 11.0358 44.8658 11.6545 44.5671 12.1191L34.4128 27.9113C33.7462 28.9478 32.5984 29.5744 31.3661 29.5744H16.0771C15.7092 29.5744 15.3521 29.6995 15.0647 29.9292L2.93668 39.6176C2.50518 39.9623 1.87594 39.8919 1.53123 39.4604C1.18652 39.0289 1.25689 38.3996 1.68839 38.0549L13.8164 28.3665C14.4583 27.8537 15.2555 27.5744 16.0771 27.5744H31.3661C31.918 27.5744 32.432 27.2938 32.7305 26.8296L42.8849 11.0374C43.1836 10.5729 43.8023 10.4384 44.2669 10.7371Z" fill="#0070F3"/>
</svg>
