<svg width="45" height="25" viewBox="0 0 45 25" fill="none" xmlns="http://www.w3.org/2000/svg">
<path d="M37.1947 23.4755L30.8197 19.4795L25.2143 15.9661L21.9731 13.9347C21.8119 13.8333 21.6031 13.7406 21.3821 13.6644C21.0545 13.5517 20.6992 13.4789 20.4296 13.4789H15.7741V13.4754C15.3338 13.1591 14.5071 12.9147 14.0504 12.9069C13.5876 12.8991 13.604 13.1513 14.0712 13.4789H12.7348V13.4754C12.2946 13.1591 11.4678 12.9147 11.0111 12.9069C10.5483 12.8991 10.5648 13.1513 11.0319 13.4789H9.69552V13.4754C9.25527 13.1591 8.4285 12.9147 7.97179 12.9069C7.50901 12.8991 7.52547 13.1513 7.99259 13.4789H6.65623V13.4754C6.21598 13.1591 5.38921 12.9147 4.9325 12.9069C4.46972 12.8991 4.48618 13.1513 4.9533 13.4789H0.420808C0.0828205 13.4789 -0.0532422 13.5786 0.0186884 13.7276C0.0507538 13.7935 0.122687 13.8697 0.237949 13.9512C0.256149 13.9642 0.276075 13.9772 0.296874 13.9902C0.304674 13.9954 0.310741 13.9997 0.319408 14.0049L0.39307 14.0509C0.393936 14.0517 0.394806 14.0526 0.396539 14.0543C0.401739 14.0595 0.406076 14.0639 0.411276 14.0691L10.6306 23.2623L10.8412 23.4521C11.1645 23.7424 11.8422 23.9782 12.3552 23.9782H37.0993C37.5933 23.9782 37.6349 23.7528 37.1921 23.4755H37.1947Z" fill="#101619"/>
<path d="M36.344 2.32318C36.2201 2.09006 35.9939 1.9384 35.714 1.9384H30.8426L30.8487 1.93146C30.8522 1.90633 30.8539 1.88207 30.8565 1.85693H29.0825C29.0756 1.8838 29.0678 1.91067 29.0617 1.9384H27.6629L27.669 1.93146C27.6725 1.90633 27.6742 1.88207 27.6768 1.85693H25.9028C25.8959 1.8838 25.8881 1.91067 25.882 1.9384H24.4833L24.4893 1.93146C24.4928 1.90633 24.4945 1.88207 24.4971 1.85693H22.7231C22.7162 1.8838 22.7084 1.91067 22.7023 1.9384H21.3036L21.3097 1.93146C21.3131 1.90633 21.3149 1.88207 21.3175 1.85693H19.5435C19.5365 1.8838 19.5287 1.91067 19.5227 1.9384H14.7804C14.4745 1.9384 14.179 2.09525 13.9641 2.34051C13.8211 2.50431 13.7136 2.7071 13.6625 2.93069C13.6564 2.95756 13.6521 2.98529 13.6477 3.01302C13.646 3.02342 13.6434 3.03382 13.6417 3.04422L10.9629 22.4629L10.9074 22.8633C10.8225 23.4768 11.1952 23.9743 11.7403 23.9743H32.5915C33.1089 23.9743 33.5933 23.502 33.6739 22.9187L33.7294 22.5175L35.1784 12.0147L36.3951 3.19328L36.4359 2.89603C36.4653 2.6811 36.4289 2.48351 36.344 2.32405V2.32318Z" fill="#2A4259"/>
<path d="M43.9636 24.4118H18.0285C17.3508 24.4118 16.7381 23.9078 16.6583 23.2849L14.1266 3.47999C14.0468 2.85797 14.5319 2.35303 15.2085 2.35303H41.2468C41.833 2.35303 42.3648 2.78983 42.434 3.32886L44.9923 23.3417C45.0678 23.9331 44.6061 24.4118 43.9636 24.4118Z" fill="#2A4259"/>
<path d="M43.9768 23.5646H18.325C17.6548 23.5646 17.0487 23.0672 16.9698 22.4527L14.4784 2.90926C14.4005 2.29481 14.8793 1.79736 15.5495 1.79736H41.3034C41.8831 1.79736 42.4081 2.22808 42.4765 2.76019L44.9932 22.509C45.0679 23.0923 44.6123 23.5655 43.9758 23.5655" fill="#D5DADD"/>
<path d="M43.0236 7.05079H15.0066L14.4784 2.90828C14.4005 2.29384 14.8793 1.79639 15.5495 1.79639H41.3034C41.8831 1.79639 42.4081 2.2271 42.4765 2.75922L43.0236 7.05079Z" fill="#C35500"/>
<path d="M23.76 3.27165C23.7868 3.52817 23.6265 3.73616 23.4012 3.73616C23.1759 3.73616 22.9713 3.52817 22.9445 3.27165C22.9176 3.01513 23.0779 2.80713 23.3033 2.80713C23.5286 2.80713 23.7331 3.01513 23.76 3.27165Z" fill="#00144A"/>
<path d="M33.4659 3.27165C33.4928 3.52817 33.3324 3.73616 33.1071 3.73616C32.8818 3.73616 32.6773 3.52817 32.6504 3.27165C32.6235 3.01513 32.7839 2.80713 33.0092 2.80713C33.2345 2.80713 33.439 3.01513 33.4659 3.27165Z" fill="#00144A"/>
<path d="M32.5211 1.78851C32.5211 1.12034 33.0394 0.604695 33.5117 0.588229C34.0152 0.571763 34.3792 1.15847 34.3254 1.89858C34.2717 2.63868 33.8193 3.254 33.3158 3.27046" stroke="#00144A" stroke-width="0.655916" stroke-miterlimit="10"/>
<path d="M22.854 1.78851C22.854 1.12034 23.3722 0.604695 23.8445 0.588229C24.3481 0.571763 24.712 1.15847 24.6583 1.89858C24.6046 2.63868 24.1522 3.254 23.6487 3.27046" stroke="#00144A" stroke-width="0.655916" stroke-miterlimit="10"/>
<path d="M33.5125 0.589205C34.016 0.572739 34.38 1.15945 34.3263 1.89956C34.2726 2.63966 33.8202 3.25497 33.3167 3.27144" stroke="#00144A" stroke-width="0.655916" stroke-miterlimit="10" stroke-linecap="round"/>
<path d="M23.8454 0.589205C24.3489 0.572739 24.7129 1.15945 24.6592 1.89956C24.6054 2.63966 24.1531 3.25497 23.6495 3.27144" stroke="#00144A" stroke-width="0.655916" stroke-miterlimit="10" stroke-linecap="round"/>
</svg>
