<svg width="128" height="128" viewBox="0 0 128 128" fill="none" xmlns="http://www.w3.org/2000/svg">
<g clip-path="url(#clip0_4413_116707)">
<path d="M116.332 114.023L69.4717 97.8281C69.3721 97.7956 69.2663 97.7826 69.1668 97.8021L2.81229 108.336C-0.169022 108.691 -0.449103 109.559 0.45338 110.018L47.4013 126.588C49.2311 127.235 51.1855 127.391 53.09 127.034L113.681 115.478C116.439 115.097 116.986 114.243 116.339 114.023H116.332Z" fill="#101619"/>
<path d="M0.465501 12.4078L20.2953 93.6026C20.6064 94.7734 21.6957 95.5304 22.8534 95.3754L85.2928 85.042C88.9026 84.0911 89.9359 81.0631 89.6308 80.1057L59.015 4.12599C58.4798 2.59253 57.515 1.92617 56.4632 1.99732L3.30989 4.5595C1.82857 4.65654 -1.14652 6.87583 0.465501 12.4078Z" fill="#00144A"/>
<path d="M1.22502 7.61978L21.7644 91.4863C22.0756 92.6571 23.1647 93.4141 24.3224 93.2591L87.5338 82.8227C89.0089 82.6223 89.9362 81.0629 89.4445 79.6008L65.6376 1.63482C65.2891 0.606104 64.3243 -0.0603429 63.2787 0.00432204L3.33498 4.53996C1.85365 4.63699 0.826687 6.12518 1.22502 7.61978Z" fill="#4D82B8"/>
<path d="M24.1855 21.3098L48.4592 112.876C48.8077 114.196 50.0401 115.05 51.3534 114.875L122.289 101.443C126.365 100.369 127.529 96.9529 126.976 95.3026L90.552 11.3586C90.1602 10.194 89.0714 9.44348 87.8882 9.52113L27.3908 12.4521C25.7165 12.5621 22.3556 15.0661 24.1792 21.3163L24.1855 21.3098Z" fill="#00144A"/>
<path d="M25.0372 15.9014L50.1138 110.489C50.4624 111.809 51.6947 112.663 53.008 112.488L124.815 98.9395C126.483 98.7131 127.528 96.9533 126.975 95.3038L98.0327 8.53837C97.6409 7.37375 96.5513 6.62317 95.3689 6.70082L27.421 12.427C25.7467 12.537 24.5891 14.2192 25.0372 15.9014Z" fill="#D5DADD"/>
<path d="M56.9772 107.262C56.6864 107.262 56.4265 107.044 56.3708 106.735C56.309 106.388 56.5317 106.047 56.8658 105.982L60.5164 105.275C60.8568 105.211 61.1785 105.443 61.2404 105.79C61.3023 106.137 61.0795 106.478 60.7454 106.542L57.0947 107.25C57.0577 107.256 57.0205 107.262 56.9834 107.262H56.9772ZM53.6483 106.362C53.4503 106.362 53.2523 106.259 53.1348 106.072C52.9554 105.796 52.8254 105.494 52.7388 105.172L51.953 102.213C51.8602 101.873 52.0582 101.519 52.3861 101.422C52.714 101.326 53.0544 101.531 53.1472 101.873L53.933 104.831C53.9825 105.024 54.0629 105.204 54.1681 105.365C54.3599 105.661 54.2795 106.06 53.9949 106.259C53.8897 106.33 53.7721 106.368 53.6545 106.368L53.6483 106.362ZM64.2723 105.841C63.9815 105.841 63.7216 105.622 63.6658 105.314C63.604 104.966 63.8268 104.626 64.1609 104.561L67.8115 103.853C68.1518 103.789 68.4736 104.02 68.5354 104.368C68.5973 104.716 68.3745 105.056 68.0404 105.121L64.3898 105.828C64.3527 105.835 64.3156 105.841 64.2784 105.841H64.2723ZM71.5734 104.426C71.2826 104.426 71.0228 104.207 70.9671 103.899C70.9052 103.551 71.1279 103.211 71.462 103.146L75.1127 102.438C75.453 102.374 75.7747 102.605 75.8366 102.953C75.8985 103.301 75.6757 103.641 75.3416 103.706L71.691 104.413C71.6539 104.42 71.6167 104.426 71.5797 104.426H71.5734ZM78.8749 103.011C78.5838 103.011 78.3239 102.792 78.2684 102.484C78.2068 102.136 78.4292 101.796 78.7633 101.731L82.4136 101.023C82.7539 100.966 83.0763 101.19 83.1379 101.538C83.1996 101.885 82.9771 102.226 82.6431 102.291L78.992 102.998C78.9553 103.004 78.9178 103.011 78.8811 103.011H78.8749ZM86.1693 101.596C85.879 101.596 85.6191 101.377 85.5637 101.069C85.5012 100.721 85.7244 100.38 86.0585 100.316L89.7088 99.6082C90.0429 99.5506 90.3707 99.7753 90.4331 100.123C90.4948 100.47 90.2724 100.811 89.9375 100.876L86.2872 101.583C86.2505 101.59 86.213 101.596 86.1756 101.596H86.1693ZM93.4708 100.181C93.1805 100.181 92.9205 99.9619 92.8643 99.6536C92.8027 99.3055 93.0251 98.9648 93.3592 98.9007L97.0103 98.1932C97.3506 98.1356 97.6722 98.3603 97.7338 98.7076C97.7962 99.0548 97.573 99.3956 97.239 99.4605L93.5886 100.168C93.5512 100.174 93.5145 100.181 93.477 100.181H93.4708ZM51.5632 98.9648C51.291 98.9648 51.0435 98.7782 50.9692 98.4958L49.9854 94.7709C49.8926 94.4301 50.0906 94.0764 50.4185 93.9798C50.7464 93.8833 51.0867 94.0893 51.1796 94.4301L52.1634 98.1542C52.2562 98.4958 52.0582 98.8496 51.7302 98.9461C51.6746 98.9583 51.6188 98.9713 51.5632 98.9713V98.9648ZM100.766 98.7595C100.475 98.7595 100.215 98.5404 100.16 98.2321C100.098 97.884 100.32 97.5433 100.654 97.4792L104.306 96.7717C104.646 96.7141 104.967 96.9388 105.029 97.2861C105.091 97.6333 104.868 97.9741 104.534 98.039L100.884 98.7465C100.846 98.753 100.809 98.7595 100.772 98.7595H100.766ZM108.067 97.3445C107.776 97.3445 107.516 97.1254 107.461 96.8163C107.399 96.469 107.622 96.1283 107.956 96.0642L111.606 95.3567C111.946 95.2991 112.268 95.5238 112.33 95.8711C112.392 96.2183 112.17 96.5591 111.836 96.624L108.185 97.3315C108.148 97.338 108.11 97.3445 108.073 97.3445H108.067ZM115.368 95.9287C115.078 95.9287 114.818 95.7104 114.762 95.4013C114.7 95.054 114.922 94.7133 115.257 94.6492L118.908 93.9417C119.248 93.8833 119.57 94.1088 119.631 94.4561C119.694 94.8033 119.47 95.1441 119.136 95.209L115.486 95.9165C115.449 95.923 115.412 95.9287 115.374 95.9287H115.368ZM121.302 92.6484C120.968 92.6484 120.69 92.3717 120.683 92.018C120.683 91.8257 120.647 91.6326 120.584 91.4459L119.613 88.5389C119.502 88.2038 119.669 87.837 119.996 87.7218C120.318 87.5993 120.671 87.7794 120.782 88.1202L121.754 91.0281C121.859 91.3429 121.915 91.6642 121.921 91.9928C121.927 92.3465 121.661 92.6419 121.315 92.6484H121.302ZM49.5956 91.523C49.3234 91.523 49.0758 91.3364 49.0016 91.0532L48.0178 87.3291C47.925 86.9884 48.123 86.6346 48.4509 86.5381C48.7788 86.4415 49.1191 86.6476 49.212 86.9884L50.1958 90.7125C50.2886 91.0532 50.0906 91.407 49.7626 91.5036C49.707 91.5165 49.6512 91.5295 49.5956 91.5295V91.523ZM118.976 85.3291C118.722 85.3291 118.481 85.162 118.394 84.8975L117.175 81.2505C117.063 80.9162 117.23 80.5495 117.559 80.4342C117.881 80.3182 118.233 80.4919 118.344 80.8326L119.563 84.4797C119.675 84.8139 119.508 85.1807 119.18 85.2967C119.111 85.3227 119.043 85.3356 118.976 85.3356V85.3291ZM47.6217 84.0813C47.3495 84.0813 47.102 83.8947 47.0278 83.6115L46.044 79.8939C45.9512 79.5531 46.1491 79.1994 46.4771 79.1028C46.805 79.0063 47.1453 79.2115 47.2381 79.5531L48.2219 83.2707C48.3147 83.6115 48.1168 83.9653 47.7888 84.0618C47.7331 84.0748 47.6775 84.0878 47.6217 84.0878V84.0813ZM116.538 78.0416C116.284 78.0416 116.042 77.8736 115.956 77.6099L114.738 73.9629C114.626 73.6286 114.793 73.2619 115.121 73.1467C115.442 73.0241 115.795 73.2043 115.907 73.545L117.126 77.1921C117.237 77.5264 117.07 77.8931 116.742 78.0091C116.674 78.0351 116.606 78.0472 116.538 78.0472V78.0416ZM45.6541 76.6387C45.3819 76.6387 45.1344 76.4521 45.0602 76.1698L44.0764 72.4513C43.9836 72.1106 44.1815 71.7568 44.5095 71.6603C44.8374 71.5637 45.1777 71.7698 45.2705 72.1106L46.2543 75.8282C46.3471 76.1698 46.1491 76.5235 45.8212 76.6201C45.7655 76.6322 45.7099 76.6452 45.6541 76.6452V76.6387ZM114.1 70.7475C113.846 70.7475 113.605 70.5795 113.518 70.3158L112.299 66.6688C112.188 66.3345 112.355 65.9678 112.683 65.8526C113.005 65.7365 113.358 65.9102 113.468 66.251L114.688 69.898C114.799 70.2323 114.632 70.599 114.304 70.715C114.236 70.741 114.168 70.7532 114.1 70.7532V70.7475ZM43.6803 69.197C43.4081 69.197 43.1606 69.0104 43.0863 68.7272L42.1025 65.0032C42.0097 64.6622 42.2077 64.3085 42.5357 64.212C42.8636 64.1156 43.2039 64.3214 43.2967 64.6622L44.2805 68.3864C44.3733 68.7272 44.1753 69.081 43.8474 69.1775C43.7917 69.1905 43.7361 69.2035 43.6803 69.2035V69.197ZM111.668 63.4595C111.414 63.4595 111.173 63.2923 111.086 63.0285L109.868 59.3815C109.756 59.047 109.923 58.6804 110.251 58.5646C110.573 58.4488 110.926 58.6224 111.037 58.9634L112.256 62.6104C112.367 62.9449 112.2 63.3115 111.872 63.4273C111.804 63.453 111.737 63.4659 111.668 63.4659V63.4595ZM41.7127 61.7549C41.4405 61.7549 41.193 61.5684 41.1187 61.2854L40.1349 57.5612C40.0421 57.2203 40.2401 56.8665 40.5681 56.77C40.896 56.6736 41.2363 56.8793 41.3291 57.2203L42.3129 60.9445C42.4057 61.2854 42.2077 61.6391 41.8798 61.7357C41.8241 61.7485 41.7684 61.7614 41.7127 61.7614V61.7549ZM109.23 56.1654C108.977 56.1654 108.736 55.9982 108.649 55.7344L107.43 52.0874C107.318 51.7529 107.485 51.3863 107.814 51.2705C108.135 51.1547 108.488 51.3284 108.599 51.6693L109.818 55.3163C109.93 55.6508 109.763 56.0174 109.435 56.1332C109.366 56.1589 109.298 56.1718 109.23 56.1718V56.1654ZM39.739 54.3129C39.4667 54.3129 39.2192 54.1264 39.1449 53.8434L38.1611 50.1191C38.0683 49.7783 38.2663 49.4244 38.5942 49.328C38.9222 49.2315 39.2625 49.4373 39.3553 49.7783L40.3391 53.5025C40.432 53.8434 40.2339 54.1971 39.906 54.2936C39.8503 54.3065 39.7946 54.3193 39.739 54.3193V54.3129ZM106.792 48.8777C106.538 48.8777 106.297 48.7105 106.211 48.4468L104.992 44.7997C104.881 44.4653 105.048 44.0986 105.376 43.9828C105.697 43.8671 106.05 44.0408 106.162 44.3816L107.381 48.0287C107.491 48.3632 107.324 48.7298 106.997 48.8456C106.929 48.8713 106.861 48.8842 106.792 48.8842V48.8777ZM37.7714 46.8709C37.499 46.8709 37.2516 46.6844 37.1773 46.4013L36.1935 42.6835C36.1007 42.3427 36.2987 41.9889 36.6266 41.8924C36.9546 41.7959 37.2949 42.0018 37.3877 42.3427L38.3715 46.0605C38.4643 46.4013 38.2663 46.7552 37.9384 46.8516C37.8827 46.8644 37.827 46.8773 37.7714 46.8773V46.8709ZM104.355 41.5837C104.101 41.5837 103.86 41.4164 103.773 41.1527L102.554 37.5056C102.442 37.1712 102.61 36.8045 102.938 36.6888C103.26 36.573 103.612 36.7467 103.723 37.0875L104.942 40.7346C105.054 41.0691 104.887 41.4358 104.559 41.5515C104.49 41.5773 104.423 41.5901 104.355 41.5901V41.5837ZM35.7975 39.4289C35.5253 39.4289 35.2778 39.2423 35.2036 38.9593L34.2197 35.2351C34.1269 34.8942 34.3249 34.5405 34.6528 34.444C34.9808 34.3474 35.3211 34.5533 35.4139 34.8942L36.3977 38.6184C36.4905 38.9593 36.2925 39.3131 35.9646 39.4096C35.9089 39.4225 35.8532 39.4353 35.7975 39.4353V39.4289ZM101.916 34.2896C101.663 34.2896 101.422 34.1224 101.335 33.8586L100.116 30.2116C100.005 29.8771 100.172 29.5105 100.5 29.3947C100.821 29.2789 101.174 29.4526 101.286 29.7935L102.505 33.4405C102.616 33.775 102.449 34.1417 102.121 34.2575C102.053 34.2832 101.985 34.296 101.916 34.296V34.2896ZM33.8299 31.9869C33.5577 31.9869 33.3102 31.8004 33.2359 31.5174L32.2521 27.7931C32.1593 27.4522 32.3573 27.0984 32.6852 27.0019C33.0132 26.9055 33.3535 27.1113 33.4463 27.4522L34.4301 31.1764C34.5229 31.5174 34.3249 31.8711 33.997 31.9676C33.9413 31.9805 33.8856 31.9933 33.8299 31.9933V31.9869ZM99.479 27.0019C99.2253 27.0019 98.9842 26.8347 98.8975 26.571L97.6784 22.924C97.5668 22.5895 97.7338 22.2228 98.0616 22.107C98.384 21.9912 98.7367 22.165 98.8476 22.5059L100.067 26.1529C100.178 26.4874 100.011 26.854 99.6835 26.9698C99.6148 26.9955 99.5469 27.0083 99.479 27.0083V27.0019ZM31.8561 24.5448C31.5839 24.5448 31.3364 24.3583 31.2621 24.0753L30.2783 20.3511C30.1855 20.0102 30.3835 19.6564 30.7115 19.5599C31.0393 19.4635 31.3796 19.6693 31.4725 20.0102L32.4563 23.7344C32.5491 24.0753 32.3511 24.429 32.0231 24.5256C31.9675 24.5384 31.9118 24.5513 31.8561 24.5513V24.5448ZM97.047 19.7078C96.7933 19.7078 96.5522 19.5406 96.4655 19.2769L95.2464 15.6299C95.1356 15.2954 95.3026 14.9287 95.6304 14.8129C95.952 14.6972 96.3047 14.8709 96.4164 15.2118L97.6347 18.8588C97.7463 19.1933 97.5793 19.5599 97.2515 19.6757C97.1836 19.7014 97.1157 19.7143 97.047 19.7143V19.7078ZM31.4229 18.4665C31.2745 18.4665 31.1198 18.4085 31.0023 18.2993C30.7485 18.0612 30.7362 17.6496 30.9651 17.3922C31.4972 16.7941 32.215 16.4403 33.0008 16.3888L34.857 16.228C35.2097 16.1959 35.4944 16.4596 35.5253 16.8134C35.5562 17.1672 35.3025 17.4759 34.9622 17.508L33.0936 17.6688C32.6172 17.701 32.1902 17.9133 31.8809 18.267C31.7571 18.4021 31.59 18.4729 31.4229 18.4729V18.4665ZM38.6066 17.1865C38.2911 17.1865 38.0188 16.9356 37.9879 16.5947C37.957 16.2409 38.2106 15.9322 38.5509 15.9L42.251 15.5784C42.5913 15.5333 42.8884 15.8099 42.9193 16.1638C42.9502 16.5175 42.6965 16.8262 42.3563 16.8584L38.6561 17.18C38.6561 17.18 38.619 17.18 38.6066 17.18V17.1865ZM46.0068 16.5432C45.6913 16.5432 45.419 16.2924 45.3881 15.9514C45.3571 15.5977 45.6108 15.289 45.9512 15.2568L49.6512 14.9352C49.9978 14.8966 50.2886 15.1668 50.3195 15.5205C50.3505 15.8743 50.0967 16.183 49.7564 16.2152L46.0563 16.5368C46.0563 16.5368 46.0192 16.5368 46.0068 16.5368V16.5432ZM53.407 15.9065C53.0915 15.9065 52.8192 15.6556 52.7883 15.3147C52.7573 14.9609 53.0111 14.6522 53.3514 14.62L57.0514 14.2984C57.398 14.2663 57.6888 14.5299 57.7197 14.8837C57.7507 15.2375 57.4969 15.5462 57.1566 15.5784L53.4566 15.9C53.4566 15.9 53.4194 15.9 53.407 15.9V15.9065ZM60.8073 15.2632C60.4917 15.2632 60.2194 15.0124 60.1885 14.6714C60.1575 14.3177 60.4113 14.009 60.7516 13.9768L64.4517 13.6552C64.7982 13.6166 65.089 13.8868 65.12 14.2405C65.1509 14.5943 64.8972 14.903 64.5568 14.9352L60.8568 15.2568C60.8568 15.2568 60.8196 15.2568 60.8073 15.2568V15.2632ZM68.2075 14.6264C67.8919 14.6264 67.6196 14.3756 67.5887 14.0347C67.5578 13.6809 67.8115 13.3721 68.1518 13.34L71.8519 13.0184C72.2046 12.9863 72.4892 13.2499 72.5202 13.6037C72.5511 13.9575 72.2974 14.2663 71.9571 14.2984L68.257 14.62C68.257 14.62 68.2198 14.62 68.2075 14.62V14.6264ZM75.6077 13.9897C75.2921 13.9897 75.0199 13.7388 74.9889 13.3979C74.958 13.0441 75.2117 12.7354 75.552 12.7033L79.2519 12.3816C79.5922 12.3366 79.8895 12.6132 79.92 12.967C79.9512 13.3207 79.6975 13.6294 79.3572 13.6616L75.6572 13.9833C75.6572 13.9833 75.6201 13.9833 75.6077 13.9833V13.9897ZM83.0013 13.3464C82.686 13.3464 82.4136 13.0956 82.3832 12.7547C82.352 12.4009 82.6056 12.0921 82.9459 12.06L86.6462 11.7384C86.9927 11.6998 87.2831 11.97 87.3143 12.3237C87.3455 12.6775 87.0919 12.9863 86.7516 13.0184L83.0513 13.34C83.0513 13.34 83.0138 13.34 83.0013 13.34V13.3464ZM94.0585 12.7932C93.9594 12.7932 93.861 12.7675 93.7682 12.7161C93.5083 12.5746 93.2171 12.4974 92.9268 12.4974H92.8027L90.4573 12.7033C90.1108 12.7354 89.8204 12.4717 89.7892 12.1179C89.7588 11.7641 90.0124 11.4554 90.3527 11.4232L92.7223 11.2174C92.8027 11.2174 92.8644 11.2109 92.9268 11.2109C93.4216 11.2109 93.9164 11.3396 94.3559 11.584C94.6587 11.7513 94.7703 12.1437 94.6095 12.4524C94.4979 12.671 94.2817 12.7932 94.0647 12.7932H94.0585Z" fill="#101619"/>
<path d="M82.0148 31.9961L50.9843 35.4974C50.3222 35.571 49.9269 36.0547 50.1146 36.5909L52.4864 43.5514C52.6643 44.0876 53.3561 44.4452 54.0182 44.3715L85.1274 40.6179C85.7502 40.5443 86.1163 40.0606 85.9282 39.5454L83.4876 32.8057C83.2995 32.2905 82.647 31.9435 82.025 32.0066L82.0148 31.9961Z" fill="#EBF8FF"/>
<path d="M86.8581 45.3945L55.6992 49.2954C55.037 49.3795 54.6418 49.8842 54.8295 50.4205L57.2408 57.5072C57.4286 58.0434 58.1203 58.4114 58.7824 58.3273L90.0206 54.1636C90.6528 54.0794 91.0087 53.5852 90.8206 53.0596L88.3403 46.2042C88.1529 45.689 87.4903 45.3315 86.8683 45.4051L86.8581 45.3945Z" fill="#EBF8FF"/>
<path d="M91.7781 59.0083L60.4906 63.3298C59.8186 63.4244 59.4332 63.9396 59.621 64.4864L62.0816 71.6887C62.2694 72.2355 62.9611 72.6039 63.6331 72.509L94.9999 67.9143C95.6321 67.8193 95.988 67.3147 95.7906 66.7784L93.2602 59.8074C93.0729 59.2818 92.4009 58.9243 91.7781 59.0083Z" fill="#EBF8FF"/>
<path d="M96.7874 72.8512L65.3817 77.6033C64.7097 77.7088 64.3243 78.2345 64.5121 78.7919L67.0123 86.1201C67.2001 86.6775 67.9017 87.0458 68.5737 86.9404L100.069 81.9043C100.701 81.7988 101.057 81.2836 100.859 80.7368L98.2898 73.6504C98.0924 73.1141 97.4297 72.7563 96.7874 72.8512Z" fill="#EBF8FF"/>
<path d="M76.479 78.9133L76.4029 78.9315C75.5365 79.3677 74.5765 79.2022 73.7514 78.6507L56.667 66.6331C55.1162 65.5269 54.5825 63.2199 55.5145 61.4566C56.451 59.7134 58.4385 59.1754 59.97 60.286L73.5428 69.9603L85.816 28.2738C86.32 26.5716 87.9513 25.7857 89.4552 26.5911C90.9266 27.3419 91.7739 29.3449 91.2699 31.0471L78.2052 76.7521C77.9226 77.7354 77.2777 78.5348 76.4642 78.9378L76.5023 78.9287L76.479 78.9133Z" fill="#00A800"/>
</g>
<defs>
<clipPath id="clip0_4413_116707">
<rect width="128" height="128" fill="white"/>
</clipPath>
</defs>
</svg>
