<svg width="45" height="45" viewBox="0 0 45 45" fill="none" xmlns="http://www.w3.org/2000/svg">
<path d="M7.36146 16.7739L7.37708 16.7938C7.44389 16.9179 7.58705 17.1461 7.83433 17.383L8.24646 17.914C8.40958 18.2723 8.56489 18.6263 8.69243 18.9213C8.88592 19.3681 8.97702 20.3477 9.27723 21.1381C9.28156 21.1503 9.28764 21.1642 9.29371 21.1789C9.3154 21.2266 9.34577 21.2874 9.38308 21.3585C9.39436 21.3793 9.40564 21.401 9.41778 21.4236C9.75356 22.0492 10.4997 23.3515 10.3705 24.528L10.3028 24.7987L9.34837 28.6329C8.98309 28.4941 8.5779 28.6849 8.45036 29.0528L2.94861 44.9976H11.527C12.8285 40.4346 14.4588 34.5051 15.0696 32.2761C15.0844 32.2232 15.0983 32.1729 15.1113 32.1243C15.1121 32.1208 15.113 32.1173 15.1139 32.1139C15.2475 31.6271 15.0532 31.1091 14.6315 30.8332C14.5829 30.8011 14.5317 30.769 14.4788 30.7369C14.2384 30.5929 14.1022 30.3248 14.1256 30.0454C14.1256 30.0367 14.1274 30.0281 14.1282 30.0194C14.202 29.1665 15.4002 29.0311 15.6562 29.8476C15.6588 29.8554 15.6605 29.8623 15.6631 29.8701C15.6709 29.8944 15.6779 29.9179 15.6848 29.9413C15.6987 29.9881 15.7134 30.035 15.7264 30.081C15.8696 30.5729 15.965 31.0102 16.0249 31.333C15.8783 31.4067 15.8045 31.5751 15.8505 31.733L16.0006 32.2492C16.1724 32.8418 16.1629 33.4596 16.1204 34.0748C16.1204 34.0843 16.1204 34.093 16.1204 34.1017C16.1447 34.3021 16.3329 34.8765 16.6305 35.6973C16.6366 35.7129 16.6418 35.7285 16.6479 35.745C16.6861 35.8491 16.726 35.9576 16.7668 36.0695C16.7728 36.0851 16.7789 36.1016 16.7841 36.1172C16.8101 36.1875 16.837 36.2604 16.8648 36.3332C16.8709 36.3489 16.8769 36.3653 16.883 36.381C16.9958 36.682 17.1182 37.0057 17.2492 37.3467C17.2552 37.3623 17.2613 37.3788 17.2674 37.3952C17.3004 37.482 17.3342 37.5705 17.3689 37.6599C18.1949 39.8047 19.3029 42.5673 20.2894 44.9984H28.7793C26.6735 40.55 23.8719 34.7055 22.567 31.9239C22.554 31.8952 22.5409 31.8675 22.5279 31.8397C22.5201 31.8223 22.5114 31.8041 22.5036 31.7876C22.4629 31.7009 22.4238 31.6176 22.3865 31.5369C22.3796 31.5221 22.3726 31.5083 22.3665 31.4935C22.3553 31.4683 22.3431 31.4441 22.3318 31.4198C22.324 31.4024 22.3162 31.3859 22.3084 31.3694C22.298 31.3469 22.2876 31.3243 22.2772 31.3026C22.2711 31.2887 22.265 31.2757 22.259 31.2627C22.2477 31.2384 22.2373 31.215 22.226 31.1924C22.2199 31.1794 22.2138 31.1664 22.2086 31.1543C22.1991 31.1326 22.1895 31.1126 22.18 31.0918C22.1739 31.0788 22.1679 31.0658 22.1618 31.0527C22.1514 31.0311 22.1418 31.0094 22.1323 30.9885C22.1279 30.979 22.1227 30.9686 22.1184 30.959C22.1045 30.9287 22.0915 30.9 22.0785 30.8714C22.0785 30.8714 22.0785 30.8714 22.0785 30.8705C22.0655 30.8428 22.0533 30.815 22.0412 30.789C22.0377 30.7812 22.0342 30.7742 22.0308 30.7664C22.0221 30.7473 22.0143 30.7291 22.0056 30.7118C22.0021 30.7048 21.9995 30.6979 21.9961 30.6901C21.9883 30.6736 21.9813 30.6571 21.9744 30.6415C21.9709 30.6345 21.9683 30.6276 21.9648 30.6207C21.9579 30.605 21.9509 30.5903 21.9449 30.5755C21.9423 30.5703 21.9397 30.5643 21.9379 30.5591C21.931 30.5443 21.9249 30.5296 21.9188 30.5157C21.9171 30.5113 21.9154 30.5079 21.9136 30.5035C21.9067 30.4879 21.9006 30.474 21.8945 30.4601C21.8945 30.4584 21.8928 30.4567 21.8928 30.4558C21.8859 30.4402 21.8807 30.4263 21.8746 30.4133C21.754 30.4749 21.6065 30.4272 21.5449 30.3066L20.7675 28.7943C20.7102 28.6832 20.5697 28.645 20.4638 28.7136L20.4603 28.7162L18.9437 24.8881C18.607 23.519 19.4886 21.7741 19.5849 21.3611C19.7792 20.5317 19.7419 19.5477 19.8755 19.0757C19.964 18.7634 20.0716 18.3886 20.1861 18.0085L20.9141 16.7409C21.0104 16.5735 20.9783 16.3626 20.8568 16.2368C20.856 16.2359 20.8551 16.2351 20.8542 16.2333C20.8447 16.2238 20.8343 16.2142 20.8239 16.2056C20.8213 16.2038 20.8195 16.2021 20.8169 16.2004C20.8074 16.1926 20.7961 16.1856 20.7857 16.1795C20.7822 16.1778 20.7796 16.1761 20.777 16.1735C20.7631 16.1657 20.7493 16.1587 20.7345 16.1526C20.5523 16.0815 20.3085 16.0442 20.0091 16.1301C19.9797 16.1388 19.9484 16.1483 19.918 16.1596C19.8695 16.1769 19.8191 16.1986 19.7671 16.2229C19.6551 16.2758 19.5371 16.3453 19.4139 16.4364C19.4122 16.4372 19.4113 16.439 19.4096 16.4398C19.3784 16.4633 19.348 16.4867 19.3185 16.5118C19.3081 16.5214 19.2977 16.5309 19.2864 16.5405C19.2664 16.5587 19.2456 16.5761 19.2265 16.5943C19.2144 16.6056 19.2031 16.6177 19.1918 16.629C19.1745 16.6463 19.1563 16.6646 19.1389 16.6828C19.1268 16.6958 19.1155 16.7088 19.1042 16.7218C19.0877 16.74 19.0721 16.7583 19.0556 16.7765C19.0443 16.7904 19.033 16.8042 19.0226 16.8181C19.007 16.8372 18.9923 16.8563 18.9775 16.8754C18.9662 16.8901 18.9558 16.9049 18.9454 16.9196C18.9307 16.9396 18.9168 16.9596 18.9029 16.9795C18.8925 16.9943 18.8829 17.0099 18.8725 17.0246C18.8587 17.0455 18.8448 17.0663 18.8318 17.0871C18.8222 17.1027 18.8127 17.1183 18.8031 17.1331C18.7901 17.1548 18.7771 17.1756 18.7641 17.1982C18.7554 17.2138 18.7467 17.2294 18.738 17.245C18.7259 17.2676 18.7129 17.2893 18.7016 17.3118C18.6929 17.3274 18.6851 17.3431 18.6773 17.3587C18.6652 17.3812 18.6539 17.4047 18.6426 17.4272C18.6348 17.4428 18.6279 17.4585 18.62 17.4741C18.6088 17.4975 18.5975 17.5209 18.5871 17.5443C18.5801 17.56 18.5732 17.5756 18.5663 17.5912C18.5558 17.6146 18.5454 17.6389 18.535 17.6623C18.5281 17.678 18.522 17.6936 18.5159 17.7083C18.5055 17.7326 18.496 17.7561 18.4864 17.7803C18.4804 17.7951 19.0973 13.9046 18.9697 13.2981C18.8604 12.7766 18.476 12.6578 18.2452 12.7706C18.227 12.7792 18.2097 12.7896 18.1932 12.8018C18.1932 12.8018 18.1914 12.8027 18.1906 12.8035C18.1741 12.8157 18.1585 12.8287 18.1454 12.8443C18.1394 12.8512 18.1324 12.8608 18.1246 12.8729C18.1246 12.8747 18.1229 12.8755 18.122 12.8764C18.1151 12.8877 18.1073 12.9016 18.0995 12.9172C18.0977 12.9198 18.0969 12.9224 18.0951 12.925C18.0873 12.9406 18.0786 12.9588 18.07 12.9779C18.0682 12.9814 18.0665 12.9857 18.0648 12.9892C18.0561 13.0092 18.0465 13.0308 18.037 13.0543C18.0353 13.0586 18.0335 13.063 18.0318 13.0673C18.0222 13.0916 18.0118 13.1176 18.0005 13.1454C17.9988 13.1488 17.9979 13.1523 17.9962 13.1558C17.9858 13.1844 17.9745 13.2139 17.9624 13.246C17.9624 13.2478 17.9606 13.2495 17.9606 13.2512C17.9485 13.2833 17.9363 13.318 17.9242 13.3536C17.9225 13.3588 17.9207 13.364 17.919 13.3692C17.9068 13.4039 17.8947 13.4395 17.8817 13.4768C17.8791 13.4838 17.8765 13.4907 17.8747 13.4985C17.8626 13.5358 17.8496 13.574 17.8366 13.613C17.834 13.6208 17.8314 13.6287 17.8288 13.6373C17.8157 13.6772 17.8019 13.7189 17.7888 13.7605C17.7862 13.7683 17.7836 13.7753 17.7819 13.7831C17.768 13.8265 17.7533 13.8716 17.7394 13.9167C17.7376 13.9219 17.7359 13.928 17.7342 13.9332C17.7194 13.9792 17.7047 14.026 17.6899 14.0746C17.6891 14.0781 17.6873 14.0816 17.6865 14.085C17.6708 14.1345 17.6552 14.1848 17.6396 14.236C17.637 14.243 17.6353 14.2508 17.6327 14.2577C17.6179 14.3072 17.6023 14.3566 17.5875 14.4069C17.5841 14.4173 17.5815 14.4278 17.578 14.4382C17.5633 14.4885 17.5476 14.5388 17.532 14.59C17.5294 14.5996 17.5259 14.6091 17.5233 14.6186C17.5077 14.6716 17.4921 14.7245 17.4756 14.7792C17.4739 14.7861 17.4713 14.7939 17.4695 14.8008C17.4531 14.8572 17.4366 14.9136 17.4192 14.9709C17.4184 14.9744 17.4175 14.9778 17.4166 14.9813C17.3993 15.0395 17.3828 15.0985 17.3654 15.1575C17.3654 15.1601 17.3637 15.1627 17.3628 15.1661C17.3455 15.2251 17.329 15.2841 17.3116 15.3431C17.3099 15.3501 17.3082 15.3561 17.3056 15.3631C17.2891 15.4212 17.2717 15.4793 17.2552 15.5383C17.2535 15.5453 17.2518 15.5522 17.2492 15.5583C17.2327 15.6173 17.2153 15.6763 17.1988 15.7353C17.1971 15.7405 17.1954 15.7466 17.1945 15.7518C17.1771 15.8125 17.1598 15.8733 17.1433 15.934C17.1433 15.9357 17.1424 15.9375 17.1416 15.9392C17.047 16.2732 16.9559 16.6012 16.8726 16.9032C16.8353 17.0385 16.6488 17.0472 16.5976 16.917L16.5958 16.9127C16.6383 16.5977 16.6947 16.2325 16.7676 15.8186C16.9056 15.0412 17.1043 14.0902 17.3923 12.9649C17.5164 12.4799 17.6292 11.9897 17.7064 11.4925C17.7134 11.45 17.7194 11.4066 17.7264 11.3624C17.7307 11.3337 17.735 11.3042 17.7394 11.2747C17.742 11.26 17.7437 11.2444 17.7455 11.2296C17.7507 11.1932 17.755 11.1559 17.7602 11.1194C17.7602 11.1133 17.7619 11.1081 17.7619 11.1021C17.7993 10.7993 17.8157 10.4843 17.7585 10.2015C17.7168 9.99669 17.6127 9.798 17.4444 9.69995C17.3316 9.63401 17.2006 9.61839 17.073 9.60451H17.0713C17.0297 9.60017 16.9863 9.59497 16.9455 9.60711C16.9342 9.61058 16.9238 9.61406 16.9143 9.61926C16.9134 9.61926 16.9125 9.621 16.9108 9.621C16.8821 9.63575 16.8561 9.65831 16.8344 9.6852C16.8179 9.70429 16.8041 9.72598 16.7902 9.74767C16.7902 9.74767 16.5394 10.1398 16.4622 10.4852C16.3711 10.7368 16.4613 10.3958 16.549 9.8917C16.5542 9.86047 16.5594 9.8275 16.5646 9.79539C16.5663 9.78498 16.5681 9.77457 16.5689 9.76416C16.5724 9.7416 16.5759 9.71817 16.5785 9.69475C16.5802 9.68173 16.5819 9.66872 16.5837 9.6557C16.5871 9.62533 16.5906 9.59497 16.5941 9.56373C16.5958 9.54464 16.5976 9.52469 16.5993 9.50473C16.6002 9.49172 16.601 9.47783 16.6019 9.46482C16.6036 9.44226 16.6045 9.41883 16.6062 9.39628C16.6062 9.38933 16.6062 9.38239 16.6062 9.37545C16.6088 9.29736 16.6106 9.21928 16.6045 9.14206V9.12817C16.5906 8.92601 16.5481 8.73253 16.457 8.57288C16.3754 8.42972 16.2566 8.31345 16.0839 8.24404C16.0128 8.21541 15.9364 8.19892 15.8618 8.21107C15.6301 8.25011 15.4514 8.52342 15.316 8.81495C15.2761 8.88436 15.238 8.96592 15.2128 9.05789C15.1651 9.17936 15.1252 9.29303 15.0922 9.38326C15.0913 9.38586 15.0896 9.38933 15.0887 9.39281C15.054 9.48651 15.0202 9.58195 14.9881 9.67653C14.9603 9.75635 14.9343 9.83617 14.9083 9.916C14.9083 9.916 14.9083 9.91686 14.9083 9.91773C14.9135 9.88997 14.9187 9.86307 14.923 9.83531C14.9247 9.82316 14.9273 9.81101 14.9291 9.79973C14.9334 9.77544 14.9369 9.75114 14.9395 9.72772C14.9412 9.71384 14.943 9.70082 14.9447 9.68694C14.9473 9.66438 14.9499 9.64269 14.9516 9.621C14.9525 9.60711 14.9534 9.5941 14.9542 9.58108C14.956 9.56026 14.9568 9.54031 14.9577 9.52035C14.9577 9.50733 14.9577 9.49519 14.9577 9.48217C14.9577 9.45007 14.9577 9.41883 14.9542 9.38933C14.9534 9.37458 14.9525 9.35897 14.9508 9.34508C14.949 9.3312 14.9464 9.31732 14.9447 9.30431C14.9421 9.29042 14.9395 9.27654 14.9369 9.26266C14.9343 9.25051 14.9308 9.23836 14.9273 9.22622C14.923 9.21233 14.9187 9.19932 14.9143 9.18717C14.91 9.17676 14.9065 9.16635 14.9022 9.15594C14.8952 9.14119 14.8883 9.12731 14.8805 9.11429C14.8762 9.10735 14.8727 9.09954 14.8683 9.09347C14.8562 9.07438 14.8414 9.05703 14.8258 9.04054C14.8206 9.03533 14.8145 9.03013 14.8085 9.02492C14.7972 9.01364 14.785 9.00323 14.772 8.99369C14.7651 8.98848 14.7564 8.98328 14.7495 8.97894C14.7365 8.97026 14.7226 8.96245 14.7078 8.95551C14.6992 8.95117 14.6905 8.94683 14.6818 8.94336C14.6653 8.93642 14.648 8.93035 14.6297 8.92514C14.6211 8.92254 14.6133 8.91994 14.6046 8.91733C14.5768 8.91039 14.5482 8.90432 14.5169 8.90085C14.5039 8.89911 14.4909 8.89911 14.4779 8.89825C13.9053 8.85833 13.5764 9.52642 13.3517 10.1494C13.3109 10.126 13.2693 10.106 13.2268 10.0895C13.2259 10.0895 13.2242 10.0895 13.2233 10.0887C13.1981 10.0791 13.173 10.0722 13.1469 10.0661C13.1426 10.0652 13.1391 10.0644 13.1348 10.0635C13.1105 10.0583 13.0862 10.054 13.061 10.0513C13.0576 10.0513 13.0541 10.0505 13.0506 10.0505C12.9934 10.0453 12.9335 10.0479 12.8728 10.06C12.8511 10.0644 12.8294 10.0687 12.8068 10.0756C12.373 10.2015 12.3617 10.5815 12.5526 11.1446C12.4901 11.0144 12.425 10.886 12.3591 10.7585C12.3591 10.7585 12.3591 10.7585 12.3591 10.7576C12.3418 10.7238 12.3244 10.6908 12.307 10.657C12.307 10.6561 12.3062 10.6544 12.3053 10.6535C12.1283 10.3221 11.7891 9.60972 11.3865 9.60625C11.311 9.60625 11.2372 9.63401 11.1704 9.67392C10.5952 10.014 10.7522 10.8288 10.9258 11.3797C11.1696 12.1554 10.9579 11.6756 10.7106 11.3311C10.6542 11.2522 10.5856 11.1706 10.4954 11.1602C10.4538 11.155 10.4112 11.1663 10.3705 11.1776C10.2455 11.2114 10.1171 11.2478 10.0139 11.3311C9.86028 11.4552 9.78306 11.6686 9.76831 11.8777C9.73881 12.2951 9.87156 12.7532 9.98783 13.1471C10.1293 13.6269 10.3045 14.0937 10.4902 14.5544C10.8746 15.5062 11.1713 16.3314 11.3995 17.029C11.4168 17.0836 11.4342 17.1357 11.4507 17.1886L11.4489 17.1947C11.4004 17.4038 11.1132 17.4298 11.0273 17.2329C10.4754 15.967 9.89152 14.6837 9.73187 14.5527C9.5514 14.4043 9.1948 14.4694 9.04296 14.8321C9.03255 14.8572 9.023 14.8841 9.0152 14.911C9.01259 14.9197 9.01086 14.9284 9.00825 14.9371C9.00218 14.9588 8.99698 14.9805 8.99264 15.003C8.9909 15.0126 8.98917 15.0212 8.98743 15.0308C8.98222 15.0629 8.97789 15.0958 8.97528 15.1306C8.97528 15.1401 8.97442 15.1505 8.97528 15.1627C8.97528 15.1757 8.97615 15.1896 8.97789 15.2052C8.97962 15.2286 8.98309 15.2546 8.98743 15.2841C8.9909 15.3076 8.99524 15.3318 9.00045 15.3579C9.01693 15.4429 9.04123 15.5436 9.07246 15.6572C9.0768 15.6728 9.08114 15.6885 9.08548 15.7041C9.11758 15.8177 9.15489 15.9435 9.1974 16.0789C9.20434 16.1006 9.21128 16.1223 9.21823 16.1448C9.2512 16.249 9.28677 16.3583 9.32495 16.4711C9.33362 16.4962 9.3423 16.5223 9.35098 16.5483C9.37093 16.6073 9.39175 16.668 9.41258 16.7288C9.23384 16.5292 9.03342 16.3574 8.80783 16.2394C8.17965 15.9097 7.73715 16.0077 7.46384 16.1665C7.44389 16.1778 7.42567 16.1917 7.40918 16.2064C7.39356 16.2203 7.37881 16.2342 7.3658 16.2498C7.34758 16.2715 7.33196 16.2958 7.31981 16.321C7.31374 16.334 7.30767 16.347 7.30246 16.36C7.26689 16.4537 7.26428 16.5604 7.29812 16.6585C7.31287 16.7001 7.3337 16.74 7.36146 16.7765V16.7739ZM15.4748 16.891C15.4792 16.9023 15.4844 16.9127 15.4887 16.924C15.4896 16.9266 15.4913 16.9301 15.4922 16.9327C15.4861 16.9188 15.48 16.9049 15.474 16.891H15.4748Z" fill="#1B90FF"/>
<path d="M15.0489 24.2812C15.0489 24.2812 23.9929 27.1112 23.8372 27.8684C23.5175 29.4206 14.7173 28.1512 15.0489 24.2812Z" fill="#00144A"/>
<path d="M30.9175 25.2891C30.9175 25.2891 28.6403 20.0659 28.6385 20.0622C28.2046 19.0664 28.7453 17.6515 29.077 16.6787C29.4841 15.4811 29.5099 14.2366 29.8729 13.0703C29.9899 12.6954 30.1327 12.244 30.2837 11.7862L31.2473 10.2616C31.4104 10.0037 31.2961 9.65636 31.0087 9.55503C30.6237 9.41869 30.0267 9.38553 29.2603 9.89679C27.8536 10.8364 27.5054 13.3209 27.5054 13.3209C27.5054 13.3209 27.3 13.5484 26.7205 12.8686C26.1466 12.1943 25.874 11.2565 25.5248 10.4587C25.0651 9.40764 24.6828 8.33167 24.2471 7.27045C23.7395 6.03696 23.3766 5.47503 22.705 4.32445C22.2877 3.6096 21.6134 1.95513 20.5153 2.24346C19.1188 2.6101 21.0248 4.78874 22.0694 7.53852C22.6295 9.01244 23.6179 11.1091 23.6179 11.1091C23.3996 11.1892 22.8773 9.75861 22.822 9.62688C22.3485 8.50209 21.9036 7.36626 21.4273 6.24239C20.9529 5.12129 20.4684 3.99006 19.8502 2.93897C19.6153 2.54009 19.1667 1.68337 18.6333 1.67969C18.5329 1.67969 18.4362 1.71377 18.3478 1.76075C17.5859 2.16977 17.7941 3.149 18.0235 3.81227C18.3468 4.74544 18.9585 5.54689 19.2883 6.47453C19.502 7.07516 19.7378 7.67025 19.9737 8.2635C20.2454 8.94796 20.5006 9.64715 20.8193 10.3113C21.0948 10.8862 21.4881 12.1897 21.4255 12.1086C21.3628 12.0275 21.3794 11.9354 20.8018 10.3961C20.2565 8.94243 19.6706 7.49983 19.0239 6.08855C18.6573 5.28895 18.2888 4.44605 17.7398 3.75239C17.6651 3.6575 17.5739 3.55986 17.4542 3.54696C17.3989 3.54143 17.3436 3.55433 17.2893 3.56815C17.1244 3.6096 16.954 3.6529 16.8167 3.75331C16.6131 3.90254 16.5109 4.15864 16.4915 4.41012C16.4528 4.91218 16.6279 5.46306 16.7817 5.93747C16.9687 6.51415 17.2009 7.07608 17.4468 7.63064C18.7844 10.6384 19.3187 12.6042 19.5121 13.4618C19.5278 13.5309 19.4302 13.5641 19.4007 13.4996C18.7522 12.0911 16.7983 7.89318 16.4436 7.6288C16.1488 7.40863 15.504 7.57813 15.4414 8.32522C15.3787 9.0714 17.8291 14.5885 17.8291 14.5885C17.8291 14.5885 19.0644 19.5961 21.7286 21.9341C24.3927 24.2721 24.8929 28.5124 24.8929 28.5124L30.9166 25.2891H30.9175Z" fill="#A93E00"/>
<path d="M21.4255 12.1078C21.3628 12.0277 21.3794 11.9347 20.8018 10.3953C20.6655 10.0315 20.5264 9.66759 20.3845 9.30464C20.5209 9.64456 20.6627 9.9808 20.8193 10.3097C21.0948 10.8845 21.4881 12.188 21.4255 12.1069V12.1078ZM22.822 9.62613C22.3485 8.50135 21.9027 7.36551 21.4273 6.24164C21.2744 5.88146 21.1206 5.51942 20.9621 5.16016C21.3306 5.87132 21.7424 6.67645 22.0694 7.53777C22.6295 9.01169 23.6179 11.1083 23.6179 11.1083C23.3996 11.1885 22.8773 9.75694 22.822 9.62613Z" fill="#340800"/>
<path d="M21.0385 11.3807C21.0892 11.4138 21.1417 11.4433 21.1942 11.4719C21.1095 11.2287 20.986 10.886 20.8018 10.395C20.7133 10.1582 20.6212 9.92333 20.5309 9.6875C20.4766 9.9961 20.46 10.3176 20.5309 10.6216C20.6028 10.932 20.7705 11.2038 21.0395 11.3797L21.0385 11.3807Z" fill="#340800"/>
<path d="M31.0077 9.55238C30.6227 9.41605 30.0257 9.38288 29.2593 9.89415C27.8904 10.808 27.5238 13.1847 27.5053 13.3118C27.4915 13.3201 27.4786 13.3302 27.4666 13.3413C27.3847 13.3744 27.1608 13.3837 26.7196 12.865C26.1456 12.1907 25.873 11.2529 25.5238 10.4552C25.0642 9.40407 24.6819 8.32811 24.2461 7.26689C23.7385 6.0334 23.3756 5.47147 22.704 4.32089C22.6875 4.29233 22.67 4.26101 22.6525 4.22969C22.6478 4.2214 22.6432 4.21219 22.6377 4.2039C22.623 4.17718 22.6073 4.14862 22.5917 4.12007C22.588 4.11362 22.5852 4.10809 22.5815 4.10164C22.5659 4.07216 22.5493 4.04269 22.5336 4.01136C22.4443 3.84371 22.3448 3.6567 22.2342 3.46786C22.2315 3.46417 22.2296 3.45957 22.2269 3.45588C22.2038 3.41719 22.1808 3.3785 22.1568 3.33889C22.1541 3.33428 22.1522 3.3306 22.1495 3.32599C21.7663 2.69865 21.2624 2.10632 20.6 2.22147C20.7308 2.46743 19.5849 12.2893 19.8363 12.5684C18.7981 12.5085 17.8281 14.5849 17.8281 14.5849C17.8281 14.5849 19.0635 19.5925 21.7276 21.9305C24.3917 24.2686 24.8919 28.5088 24.8919 28.5088L27.2308 27.2569C26.9075 26.9732 26.6072 26.6637 26.3363 26.3348C25.7532 25.6264 25.2751 24.8084 25.0485 23.9139C24.9462 23.5095 24.8947 23.0876 24.9168 22.6694C24.9361 22.3018 25.0291 21.9416 25.1701 21.6008C25.4686 20.8813 25.8859 20.218 26.235 19.5235C26.2368 19.5198 26.2387 19.5152 26.2414 19.5115C26.3759 19.2434 26.0683 18.9661 25.8177 19.1319C25.7274 19.1918 25.6335 19.2452 25.5349 19.2904C24.9573 19.5585 24.2544 19.4774 23.7689 19.0527C23.6418 18.9422 23.5543 18.8114 23.4944 18.6686C23.6225 18.6363 23.745 18.6004 23.8362 18.5562C24.0029 18.477 24.1595 18.3664 24.3143 18.266C24.5041 18.1426 24.692 18.0154 24.8799 17.8892C25.0559 17.7723 25.2318 17.6562 25.4124 17.5456C25.3912 17.4498 25.3718 17.3531 25.3589 17.2545C25.3497 17.1882 25.3949 17.1293 25.4529 17.097C25.452 16.8971 25.4741 16.6972 25.5128 16.5084C25.6288 15.9455 25.9024 15.4361 26.2543 14.9865C26.4874 14.689 26.6974 14.0681 26.7711 13.5651C26.9729 13.6397 26.6422 14.1786 26.9655 14.2735C27.1212 14.3196 27.2833 14.2238 27.3377 14.0718C27.5514 13.4721 28.0249 12.2404 28.0894 12.0184C28.7895 9.59015 30.8659 9.7053 31.2086 9.69148C31.157 9.62884 31.0888 9.57818 31.005 9.5487L31.0077 9.55238Z" fill="#340800"/>
<path d="M15.7831 25.1288L17.2901 19.6292C17.4965 17.9351 16.0401 16.0255 15.842 15.552C15.4441 14.6013 15.3243 13.4231 15.0682 12.886C14.8987 12.5314 14.6924 12.1048 14.4777 11.6746L13.306 10.303C13.1079 10.0708 13.1715 9.71156 13.4414 9.56969C13.8034 9.37993 14.3893 9.26109 15.2202 9.65813C16.7466 10.3868 17.4467 12.7957 17.4467 12.7957C17.4467 12.7957 17.6826 12.992 18.1588 12.2356C18.6305 11.4867 18.7659 10.5185 18.9971 9.67932C19.302 8.57296 19.5259 7.4537 19.805 6.34181C20.1302 5.04844 20.4103 4.44045 20.9095 3.20512C21.22 2.43776 21.6511 0.704065 22.7787 0.832112C24.213 0.995164 22.6386 3.42345 21.9984 6.29483C21.6548 7.83415 20.9768 10.0506 20.9768 10.0506C21.2043 10.0985 21.5166 8.60796 21.5525 8.46978C21.8602 7.2888 22.1384 6.10045 22.4479 4.9204C22.7575 3.74034 23.0744 2.55383 23.5359 1.42536C23.7109 0.997006 24.0333 0.0850183 24.5603 0.00487391C24.6588 -0.00986529 24.7602 0.0104011 24.855 0.0444855C25.6675 0.340191 25.6012 1.33969 25.4695 2.02875C25.2834 2.99877 24.7924 3.87944 24.5989 4.84486C24.4737 5.46943 24.3254 6.09216 24.177 6.71397C24.0057 7.42975 23.8537 8.15934 23.6335 8.86221C23.4438 9.47021 23.2402 10.817 23.2908 10.7276C23.3415 10.6392 23.312 10.5499 23.663 8.9442C23.9946 7.4279 24.3677 5.91621 24.8062 4.42663C25.0549 3.58282 25.2991 2.6957 25.7422 1.9311C25.803 1.82701 25.8785 1.71646 25.9955 1.68699C26.0498 1.67317 26.106 1.67869 26.1622 1.68422C26.3317 1.70172 26.5058 1.72015 26.656 1.79937C26.8789 1.91729 27.0162 2.1568 27.0714 2.40276C27.182 2.89376 27.0871 3.46398 27.0024 3.9559C26.9001 4.55376 26.7509 5.14333 26.586 5.72645C25.6924 8.89445 25.4455 10.9165 25.3764 11.7935C25.3709 11.8644 25.4722 11.8828 25.4925 11.8147C25.9328 10.3278 27.2658 5.89411 27.579 5.5809C27.8388 5.32112 28.5021 5.39666 28.6707 6.12625C28.8392 6.85584 27.2041 12.6668 27.2041 12.6668C27.2041 12.6668 26.6984 17.7997 24.3963 20.4951C22.0942 23.1906 22.2066 27.4585 22.2066 27.4585L15.784 25.1306L15.7831 25.1288Z" fill="#FFAB92"/>
<path d="M15.7831 25.1274L17.4477 26.0311C17.4191 24.5388 18.4499 23.0003 19.0146 21.6204C19.0229 21.6001 19.0321 21.5799 19.0413 21.5578C19.3702 20.8438 19.4522 20.0295 19.2661 19.2658C18.987 18.1254 17.9654 17.2401 17.5195 16.1457C16.9014 14.6294 16.4832 13.2623 15.456 11.9552C15.3114 11.7709 13.5897 9.49095 13.4414 9.56833C13.1715 9.7102 13.1079 10.0704 13.306 10.3016C13.714 10.7788 14.1185 11.2311 14.463 11.7589C15.2165 12.9123 15.3206 14.3033 15.8429 15.5506C16.041 16.0241 17.4965 17.9338 17.2911 19.6278L15.784 25.1274H15.7831Z" fill="#FF7F4C"/>
<path d="M24.5981 4.84268C24.7916 3.87726 25.2826 2.99659 25.4687 2.02657C25.5635 1.53189 25.6225 0.876912 25.348 0.4375C25.2697 1.17446 25.0799 1.89852 24.8515 2.6014C24.529 3.59537 22.8847 10.883 23.0781 10.9115C23.2725 10.941 23.3803 10.696 23.419 10.5035C23.6732 9.24233 23.9643 7.98029 24.1762 6.71087C24.3245 6.08998 24.4728 5.46725 24.5981 4.84176V4.84268Z" fill="#FF7F4C"/>
<path d="M26.084 6.00563C25.8583 6.75733 25.7312 7.52929 25.5985 8.30126C25.4014 9.44907 25.2337 10.6043 25.1388 11.7659C25.1269 11.9078 25.3203 11.963 25.3857 11.8368C25.3866 11.835 25.3876 11.8331 25.3885 11.8313C25.3802 11.8212 25.3756 11.8073 25.3765 11.7908C25.4447 10.9138 25.6925 8.89175 26.586 5.72374C26.7509 5.14062 26.9002 4.55105 27.0024 3.95319C27.0697 3.55984 27.1424 3.11582 27.113 2.70312C27.0255 3.11122 26.9112 3.5147 26.7832 3.91266C26.5575 4.61369 26.2959 5.30183 26.084 6.00747V6.00563Z" fill="#FF7F4C"/>
<path d="M23.1841 1.79608C23.1601 1.87899 23.1297 1.96006 23.1048 2.04481C23.0569 2.20233 23.0146 2.36354 22.9657 2.52107C22.8607 2.86007 22.7539 3.19815 22.6488 3.53623C22.4305 4.24003 22.2113 4.9429 21.9939 5.6467C21.7765 6.3505 21.5462 7.09759 21.3269 7.8235C21.1611 8.37161 20.9953 8.91973 20.8442 9.47152C20.8018 9.62629 20.7558 9.78289 20.7272 9.94134C20.7014 10.086 20.893 10.1707 20.9759 10.05C20.9759 10.0491 20.9778 10.0473 20.9787 10.0464C21.0146 9.99292 21.7276 7.51121 22.0003 6.29062C22.2011 5.39153 22.4932 4.53573 22.7557 3.77851C22.6498 4.15712 23.3738 1.8403 23.2974 2.05218C23.4549 1.32627 23.3655 0.869358 22.729 0.824219C23.0127 1.01399 23.2522 1.18533 23.2292 1.5621C23.2246 1.64317 23.2071 1.71963 23.185 1.79424L23.1841 1.79608Z" fill="#FF7F4C"/>
<path d="M27.4972 8.21647C27.4915 8.21647 27.4915 8.20703 27.4972 8.20703C27.5028 8.20703 27.5028 8.21647 27.4972 8.21647Z" fill="#FF7F4C"/>
<path d="M25.9651 32.7454L32.8787 27.9902L30.9101 24.5117C30.9101 24.5117 27.2437 26.7005 24.4377 27.9717L25.9642 32.7454H25.9651Z" fill="white"/>
<path d="M42.0511 44.9975C38.4852 38.1428 33.0658 27.9 32.5195 26.707C32.5195 26.707 24.7869 30.2776 24.9012 31.1445C25.0218 32.0601 28.2801 39.4666 30.7554 44.9984H42.0511V44.9975Z" fill="#0040B0"/>
<path d="M31.8185 44.9984C30.6928 42.6935 29.7844 40.2496 29.4049 37.7043C29.2151 36.4303 29.1516 35.1323 29.3017 33.85C29.3653 33.3074 29.4399 32.7455 29.638 32.2324C29.802 31.8086 30.0378 31.4254 30.3307 31.079C31.2003 30.0491 32.4559 29.4356 33.4453 28.543C32.9626 27.6089 32.6328 26.9585 32.5177 26.707C32.5177 26.707 24.7851 30.2776 24.8993 31.1445C25.02 32.0601 28.2783 39.4666 30.7535 44.9984H31.8175H31.8185Z" fill="#00144A"/>
<path d="M18.5854 45.0009C20.7732 38.067 23.8371 27.8684 23.8371 27.8684L15.0489 24.2812L7.17908 45.0009H18.5854Z" fill="#0040B0"/>
<path d="M9.47194 45.0009C9.64052 44.2787 9.83766 43.5629 10.0532 42.8536C10.4097 41.6818 10.8187 40.5266 11.2582 39.3834C11.7012 38.2301 12.1775 37.0896 12.6713 35.9565C13.1273 34.911 13.5998 33.8728 14.0798 32.8374C14.1028 32.7876 14.1314 32.7222 14.1655 32.643C15.7656 28.8808 19.8658 26.845 23.8252 27.8656L23.8371 27.8684L15.0489 24.2812L7.17908 45.0009H9.47194Z" fill="#00144A"/>
</svg>
