<svg width="131" height="128" viewBox="0 0 131 128" fill="none" xmlns="http://www.w3.org/2000/svg">
<path d="M116.96 103.292L88.5638 92.562C88.4719 92.5273 88.38 92.51 88.2881 92.536L2.6174 99.9902C-0.39564 100.145 -0.338271 101.299 0.481964 101.785L20.3145 115.039C21.9762 115.733 23.744 115.897 25.4693 115.516L114.556 104.844C117.052 104.436 118.109 103.869 116.96 103.292Z" fill="#1B90FF"/>
<path d="M8.03412 26.9795L30.6556 100.886C31.0959 102.492 32.6613 103.527 34.3083 103.315L121.489 91.4907C125.509 90.2025 127.091 86.0606 126.397 84.0549L72.6747 18.9755C72.1773 17.5569 70.7994 16.6437 69.3073 16.7415L11.2755 17.5349C9.15565 17.6654 6.2666 20.8061 8.03412 26.9795Z" fill="#00144A"/>
<path d="M8.96693 21.7291L32.7791 97.7217C33.2193 99.3279 34.7848 100.363 36.4318 100.151L123.715 88.4442C125.819 88.1751 127.148 86.0308 126.446 84.0251L100.788 14.5185C100.29 13.0998 98.9124 12.1867 97.4203 12.2845L11.9837 17.4975C9.8638 17.628 8.40434 19.6826 8.96693 21.7291Z" fill="#56BDFF"/>
<path d="M100.788 14.5185C100.291 13.0998 98.913 12.1867 97.4209 12.2845L11.8406 17.3811C9.72073 17.5116 8.26127 19.558 8.82386 21.6045L13.0989 34.946L105.352 26.5869L100.78 14.5103L100.788 14.5185Z" fill="#0040B0"/>
<path d="M54.2683 47.4482L31.2284 49.5003C30.8707 49.5368 30.5038 49.3179 30.4121 49.026L29.1464 45.004C29.0547 44.7121 29.2656 44.4477 29.6325 44.4203L52.6357 42.4594C52.9842 42.4321 53.3419 42.6418 53.4336 42.9246L54.736 46.8645C54.8278 47.1564 54.626 47.4117 54.2774 47.4482H54.2683Z" fill="white"/>
<path d="M62.2123 59.0242L35.0726 61.6964C34.7149 61.7329 34.3388 61.514 34.2471 61.2131L32.963 57.1363C32.8713 56.8353 33.0823 56.5708 33.4491 56.5344L60.543 53.9807C60.8915 53.9442 61.2492 54.154 61.341 54.4458L62.6617 58.4314C62.7626 58.7232 62.5608 58.9877 62.2123 59.0242Z" fill="white"/>
<path d="M66.229 71.1154L38.9792 74.0521C38.6124 74.0886 38.2455 73.8788 38.1446 73.5687L36.8422 69.4281C36.7505 69.1272 36.9614 68.8536 37.3283 68.808L64.5322 65.9807C64.8807 65.9442 65.2385 66.154 65.3393 66.4549L66.6784 70.4952C66.7793 70.7962 66.5775 71.0607 66.229 71.0972V71.1154Z" fill="white"/>
<path d="M63.5604 84.1858L42.9327 86.6117C42.5658 86.6573 42.1898 86.4385 42.0981 86.1284L40.7773 81.9331C40.6764 81.623 40.8965 81.3402 41.2634 81.3038L61.8544 78.969C62.2029 78.9325 62.5698 79.1422 62.6707 79.4432L64.0281 83.5656C64.129 83.8665 63.9181 84.1493 63.5695 84.1858H63.5604Z" fill="white"/>
<path d="M100.12 43.3727L74.7962 45.6254C74.4568 45.6528 74.1083 45.4521 74.0074 45.1603L72.6775 41.275C72.5766 40.9923 72.7783 40.7369 73.1085 40.7096L98.3955 38.5572C98.7165 38.5298 99.0651 38.7305 99.1568 39.0132L100.514 42.8072C100.615 43.09 100.432 43.3362 100.111 43.3636L100.12 43.3727Z" fill="white"/>
<path d="M96.7068 55.6293L78.8124 57.3895C78.4731 57.426 78.1154 57.2162 78.0236 56.9243L76.6754 52.9844C76.5745 52.6925 76.7671 52.4372 77.1064 52.4007L94.9734 50.7134C95.3035 50.6861 95.6521 50.8867 95.753 51.1694L97.1196 55.0456C97.2205 55.3283 97.037 55.5837 96.7068 55.6201V55.6293Z" fill="white"/>
<path d="M100.853 67.3822L82.8941 69.3157C82.5548 69.3522 82.1971 69.1424 82.0962 68.8506L80.7296 64.8559C80.6287 64.5641 80.8213 64.2996 81.1606 64.2631L99.0917 62.4026C99.4219 62.3661 99.7705 62.5758 99.8714 62.8586L101.256 66.7894C101.357 67.0813 101.174 67.3458 100.844 67.3731L100.853 67.3822Z" fill="white"/>
<path d="M112.639 78.4097L87.0305 81.4194C86.6912 81.4559 86.3335 81.2462 86.2326 80.9543L84.8476 76.9049C84.7467 76.6131 84.9393 76.3394 85.2787 76.303L110.841 73.4027C111.171 73.3662 111.52 73.5669 111.62 73.8587L113.033 77.8169C113.134 78.1088 112.96 78.3733 112.629 78.4097H112.639Z" fill="white"/>
<path d="M122.508 67.2092L40.2608 77.0934C38.4911 77.2728 36.6562 76.0658 36.1668 74.394L23.1101 32.9898C22.6371 31.3751 23.4281 28.1375 26.9431 27.5829L108.627 24.3208C110.071 24.2066 111.702 25.2831 112.273 26.7348L127.907 62.4629C126.863 65.0236 125.46 66.8259 122.508 67.2174V67.2092Z" fill="#DF1278"/>
<path d="M126.203 63.8033L41.803 73.6875C40.0332 73.8669 38.1983 72.6599 37.709 70.9881L24.9376 30.7257C24.4646 29.1109 25.5004 27.6919 27.2456 27.5451L110.178 20.9067C111.621 20.7926 113.252 21.8691 113.823 23.3207L127.793 60.8267C128.381 62.3191 127.679 63.6565 126.219 63.8033H126.203Z" fill="#FFEAF4"/>
<path fill-rule="evenodd" clip-rule="evenodd" d="M127.708 62.9349C127.65 63.0282 127.583 63.1156 127.509 63.1964C127.347 63.3719 127.148 63.5162 126.916 63.6213C126.712 63.7139 126.482 63.776 126.229 63.8024C126.226 63.8027 126.223 63.803 126.22 63.8033H126.203L120.281 64.4969C120.096 62.921 121.224 61.4939 122.8 61.3094L124.82 61.0729L124.255 59.5563C123.701 58.0695 124.457 56.4152 125.944 55.8614L127.794 60.8267C127.802 60.8492 127.811 60.8716 127.819 60.8941C127.898 61.1085 127.951 61.3195 127.978 61.5237C127.979 61.5305 127.98 61.5372 127.981 61.544C128.027 61.9111 127.993 62.2563 127.886 62.5615C127.84 62.694 127.78 62.819 127.708 62.9349ZM121.287 43.3594C119.801 43.9132 119.044 45.5675 119.598 47.0543L121.291 51.6005C121.845 53.0874 123.499 53.8437 124.986 53.2899L121.287 43.3594ZM116.631 30.8574C115.144 31.4112 114.388 33.0655 114.941 34.5524L116.635 39.0985C117.188 40.5854 118.843 41.3417 120.33 40.7879L116.631 30.8574ZM87.7121 22.705C87.8387 24.2866 89.2235 25.4661 90.8051 25.3395L96.8365 24.8567C98.4181 24.7301 99.5976 23.3454 99.471 21.7638L87.7121 22.705ZM71.1257 24.0327C71.2523 25.6143 72.6371 26.7938 74.2186 26.6672L80.2501 26.1844C81.8316 26.0578 83.0111 24.673 82.8845 23.0915L71.1257 24.0327ZM54.5393 25.3604C54.6659 26.942 56.0506 28.1214 57.6322 27.9948L63.6636 27.5121C65.2452 27.3855 66.4247 26.0007 66.2981 24.4191L54.5393 25.3604ZM37.9529 26.6881C38.0795 28.2696 39.4642 29.4491 41.0458 29.3225L47.0772 28.8397C48.6588 28.7131 49.8383 27.3284 49.7117 25.7468L37.9529 26.6881ZM30.8376 49.325C32.35 48.8453 33.1871 47.2304 32.7074 45.718L31.1594 40.8377C30.6796 39.3253 29.0647 38.4882 27.5523 38.9679L30.8376 49.325ZM35.0947 62.7458C36.6071 62.2661 37.4442 60.6512 36.9645 59.1388L35.4165 54.2585C34.9367 52.7461 33.3218 51.909 31.8095 52.3887L35.0947 62.7458ZM64.6057 71.0171C64.4211 69.4412 62.994 68.3133 61.4182 68.4979L55.28 69.2167C53.7041 69.4013 52.5762 70.8284 52.7608 72.4042L64.6057 71.0171ZM81.4857 69.0402C81.3011 67.4644 79.874 66.3365 78.2982 66.521L72.16 67.2399C70.5841 67.4244 69.4562 68.8515 69.6408 70.4274L81.4857 69.0402ZM98.3657 67.0634C98.1812 65.4875 96.7541 64.3597 95.1782 64.5442L89.04 65.2631C87.4642 65.4476 86.3363 66.8747 86.5208 68.4506L98.3657 67.0634ZM115.246 65.0866C115.061 63.5107 113.634 62.3828 112.058 62.5674L105.92 63.2862C104.344 63.4708 103.216 64.8979 103.401 66.4737L115.246 65.0866ZM47.7257 72.9939C47.5411 71.418 46.114 70.2901 44.5382 70.4747L41.5 70.8305C41.0609 70.8661 40.5522 70.4742 40.4664 70.1811L40.4573 70.1502L39.6736 67.6793C39.1939 66.167 37.5789 65.3298 36.0666 65.8096L37.7092 70.9881C38.1985 72.6599 40.0335 73.8669 41.8032 73.6875L47.7257 72.9939ZM26.5805 35.9042C28.0929 35.4245 28.93 33.8095 28.4503 32.2972L27.842 30.3794L30.4908 30.1674C32.0724 30.0408 33.2519 28.6561 33.1253 27.0745L27.2458 27.5451C25.5006 27.6919 24.4649 29.1109 24.9379 30.7257L26.5805 35.9042ZM27.418 30.4194C27.4175 30.4195 27.418 30.4194 27.418 30.4194V30.4194ZM104.299 21.3774C104.425 22.9589 105.81 24.1384 107.391 24.0118L110.398 23.7712C110.396 23.7713 110.395 23.7715 110.395 23.7716C110.395 23.7738 110.53 23.7815 110.743 23.9226C110.97 24.073 111.099 24.2538 111.145 24.3598L111.978 26.5966C112.532 28.0834 114.186 28.8398 115.673 28.2859L113.823 23.3207C113.253 21.8691 111.621 20.7926 110.178 20.9067L104.299 21.3774Z" fill="#9B015D"/>
<path d="M60.7655 38.8585L39.4312 40.8295C39.1146 40.8602 38.7878 40.6559 38.7061 40.3802L37.5112 36.6322C37.4193 36.3565 37.6031 36.1114 37.9197 36.0807L59.2131 34.171C59.5195 34.1404 59.8361 34.3446 59.928 34.6102L61.1535 38.3071C61.2454 38.5828 61.0718 38.8177 60.7655 38.8483V38.8585Z" fill="#0040B0"/>
<path d="M67.9951 49.6964L43.0558 52.1882C42.7392 52.2189 42.4124 52.0146 42.3205 51.7389L41.1154 47.9399C41.0234 47.6641 41.2073 47.4088 41.5239 47.3782L66.4223 44.968C66.7287 44.9374 67.0453 45.1314 67.1372 45.4072L68.3831 49.1449C68.4751 49.4207 68.3014 49.6658 67.9951 49.6964Z" fill="#0040B0"/>
<path d="M71.7639 61.0272L46.7123 63.7131C46.3957 63.7437 46.0689 63.5497 45.977 63.2637L44.7515 59.4136C44.6596 59.1277 44.8434 58.8724 45.16 58.8417L70.1708 56.2376C70.4771 56.2069 70.804 56.401 70.8959 56.6767L72.1622 60.4655C72.2541 60.7413 72.0805 60.9966 71.7742 61.0272H71.7639Z" fill="#0040B0"/>
<path d="M107.548 34.2632L84.1606 36.4282C83.8644 36.4589 83.5478 36.2648 83.4559 35.9993L82.1895 32.3739C82.0976 32.1084 82.261 31.8735 82.5572 31.8428L105.903 29.7493C106.189 29.7186 106.496 29.9127 106.588 30.1782L107.885 33.7424C107.976 34.0079 107.823 34.2428 107.537 34.2632H107.548Z" fill="#0040B0"/>
<path d="M104.831 45.7418L87.9901 47.4167C87.6939 47.4473 87.3773 47.2533 87.2854 46.9775L86.0089 43.301C85.9169 43.0355 86.0803 42.7904 86.3765 42.7598L103.187 41.136C103.472 41.1054 103.789 41.2994 103.881 41.5649L105.188 45.1903C105.28 45.4559 105.127 45.701 104.841 45.7214L104.831 45.7418Z" fill="#0040B0"/>
<path d="M108.773 56.7484L91.8611 58.556C91.5649 58.5867 91.2483 58.3926 91.1462 58.1169L89.8492 54.3893C89.7573 54.1136 89.9207 53.8685 90.2168 53.8379L107.098 52.0813C107.384 52.0507 107.701 52.2447 107.803 52.5102L109.12 56.1867C109.223 56.4522 109.059 56.6973 108.773 56.7382V56.7484Z" fill="#0040B0"/>
</svg>
