<svg width="45" height="45" viewBox="0 0 45 45" fill="none" xmlns="http://www.w3.org/2000/svg">
<path fill-rule="evenodd" clip-rule="evenodd" d="M12.0668 45H38.4855C38.8492 45.0006 39.2085 44.9214 39.5383 44.7679C39.868 44.6144 40.1601 44.3905 40.3938 44.1119C40.6276 43.8332 40.7973 43.5067 40.8911 43.1553C40.9849 42.8039 41.0004 42.4362 40.9366 42.0781L34.3587 4.71953C34.2583 4.14274 33.9572 3.62001 33.5087 3.24371C33.0602 2.86741 32.4931 2.66176 31.9076 2.66309H5.48902C5.12551 2.66312 4.76641 2.74277 4.43697 2.89643C4.10754 3.05009 3.81576 3.27403 3.58214 3.55253C3.34852 3.83102 3.17873 4.15731 3.08471 4.50845C2.99069 4.85959 2.97471 5.22706 3.0379 5.58503L9.61573 42.9436C9.71616 43.5204 10.0172 44.0431 10.4658 44.4194C10.9143 44.7957 11.4814 45.0014 12.0668 45Z" fill="#D5DADD"/>
<path d="M13.4937 43.2652H39.9158C40.2317 43.265 40.5438 43.1956 40.8301 43.0619C41.1164 42.9281 41.3699 42.7333 41.5728 42.4911C41.7758 42.2489 41.9232 41.9652 42.0047 41.66C42.0863 41.3547 42.1 41.0352 42.0449 40.7241L35.4671 3.36554C35.3784 2.86423 35.1161 2.41014 34.7262 2.08287C34.3363 1.75559 33.8435 1.57604 33.3345 1.57568H6.90547C6.5895 1.5759 6.27739 1.64531 5.99112 1.77904C5.70484 1.91278 5.45131 2.10759 5.24838 2.34979C5.04545 2.59198 4.89803 2.87569 4.81647 3.18096C4.73492 3.48623 4.72122 3.80567 4.77633 4.1168L11.3542 41.4754C11.443 41.9779 11.7063 42.4329 12.0977 42.7603C12.489 43.0877 12.9834 43.2665 13.4937 43.2652Z" fill="white"/>
<path d="M39.9156 43.6115H13.4935C12.9026 43.6128 12.3303 43.4049 11.8779 43.0247C11.4255 42.6446 11.1221 42.1166 11.0216 41.5343L4.44378 4.17225C4.38071 3.81136 4.39729 3.44104 4.49236 3.08722C4.58744 2.73341 4.75873 2.40466 4.99421 2.12399C5.22969 1.84333 5.52368 1.61754 5.85559 1.46243C6.18751 1.30732 6.5493 1.22666 6.91567 1.22608H33.3377C33.9285 1.22551 34.5004 1.4336 34.9527 1.81365C35.405 2.1937 35.7085 2.72127 35.8096 3.30328L42.3875 40.6653C42.4505 41.0262 42.434 41.3965 42.3389 41.7503C42.2438 42.1042 42.0725 42.4329 41.837 42.7136C41.6016 42.9942 41.3076 43.22 40.9757 43.3751C40.6438 43.5302 40.2819 43.6109 39.9156 43.6115ZM6.90529 1.92194C6.64014 1.92257 6.37831 1.98109 6.13813 2.09342C5.89795 2.20575 5.6852 2.36918 5.51474 2.57228C5.34428 2.77538 5.22022 3.01325 5.15125 3.26927C5.08228 3.5253 5.07005 3.79329 5.11542 4.05453L11.6932 41.4166C11.7673 41.8375 11.9874 42.2188 12.3147 42.4936C12.642 42.7684 13.0557 42.919 13.4831 42.9191H39.9156C40.1807 42.9185 40.4426 42.8599 40.6827 42.7476C40.9229 42.6353 41.1357 42.4719 41.3061 42.2688C41.4766 42.0657 41.6006 41.8278 41.6696 41.5718C41.7386 41.3157 41.7508 41.0477 41.7054 40.7865L35.1276 3.42446C35.0535 3.00354 34.8335 2.6222 34.5062 2.34742C34.1788 2.07263 33.7651 1.92199 33.3377 1.92194H6.90529Z" fill="#00144A"/>
<path d="M17.8826 0.695745L19.8352 12.0511C19.8871 12.342 19.5617 12.4908 19.3159 12.2866L15.5076 9.13613C15.444 9.07872 15.3614 9.04693 15.2757 9.04693C15.19 9.04693 15.1073 9.07872 15.0437 9.13613L12.4645 12.2035C12.2914 12.4112 11.9072 12.2589 11.8587 11.9646L9.96842 0.688814C9.95687 0.647106 9.95538 0.603257 9.96407 0.560859C9.97276 0.518461 9.99138 0.478733 10.0184 0.444937C10.0455 0.411142 10.0801 0.384246 10.1196 0.366459C10.159 0.348672 10.2022 0.340494 10.2454 0.342613H17.4914C17.5872 0.347787 17.6783 0.385683 17.7495 0.449956C17.8207 0.514228 17.8677 0.600991 17.8826 0.695745Z" fill="#F58B00"/>
<path d="M19.8355 12.259C19.753 12.2602 19.6729 12.2319 19.6094 12.1792C19.5459 12.1265 19.5033 12.0529 19.4893 11.9716L19.2124 10.3687C19.2046 10.3233 19.2059 10.2767 19.2162 10.2318C19.2264 10.1868 19.2455 10.1443 19.2721 10.1067C19.2988 10.0691 19.3327 10.0371 19.3717 10.0125C19.4108 9.98801 19.4543 9.9714 19.4997 9.96367C19.5452 9.95594 19.5917 9.95725 19.6367 9.9675C19.6816 9.97776 19.7241 9.99678 19.7618 10.0235C19.7994 10.0501 19.8314 10.084 19.8559 10.123C19.8804 10.1621 19.897 10.2056 19.9048 10.251L20.1817 11.8539C20.1897 11.899 20.1886 11.9451 20.1786 11.9897C20.1686 12.0344 20.1499 12.0766 20.1235 12.1139C20.0971 12.1512 20.0636 12.183 20.0248 12.2073C19.9861 12.2316 19.9429 12.248 19.8978 12.2555L19.8355 12.259ZM18.7658 12.1517C18.6861 12.151 18.609 12.1229 18.5477 12.072L17.291 11.0334C17.2527 11.0057 17.2205 10.9704 17.1964 10.9297C17.1723 10.889 17.1567 10.8439 17.1507 10.797C17.1447 10.7501 17.1484 10.7024 17.1616 10.657C17.1747 10.6116 17.197 10.5694 17.2271 10.5329C17.2571 10.4964 17.2944 10.4665 17.3365 10.4449C17.3786 10.4234 17.4246 10.4107 17.4718 10.4077C17.519 10.4046 17.5663 10.4113 17.6108 10.4272C17.6553 10.4431 17.6961 10.468 17.7306 10.5003L18.9873 11.5389C19.0436 11.584 19.0844 11.6456 19.1039 11.715C19.1235 11.7844 19.1209 11.8582 19.0965 11.9261C19.0721 11.994 19.0271 12.0525 18.9678 12.0936C18.9085 12.1346 18.8379 12.1562 18.7658 12.1551V12.1517ZM12.8561 12.0859C12.7752 12.086 12.6968 12.0579 12.6345 12.0063C12.5997 11.9769 12.5711 11.9411 12.5501 11.9007C12.5292 11.8603 12.5164 11.8161 12.5126 11.7708C12.5087 11.7255 12.5138 11.6798 12.5276 11.6365C12.5414 11.5931 12.5636 11.5529 12.593 11.5181L13.6316 10.2718C13.6609 10.237 13.6968 10.2083 13.7372 10.1874C13.7776 10.1665 13.8217 10.1537 13.8671 10.1498C13.9124 10.146 13.9581 10.1511 14.0014 10.1649C14.0448 10.1787 14.085 10.2009 14.1197 10.2303C14.1895 10.2889 14.2334 10.3726 14.2418 10.4633C14.2502 10.5541 14.2225 10.6445 14.1647 10.7149L13.1261 11.9647C13.0928 12.008 13.0498 12.0428 13.0004 12.0663C12.9511 12.0898 12.8969 12.1012 12.8423 12.0997L12.8561 12.0859ZM11.8175 12.0686C11.735 12.0698 11.6548 12.0415 11.5914 11.9888C11.5279 11.9361 11.4853 11.8625 11.4713 11.7812L11.2013 10.1749C11.1938 10.1294 11.1953 10.0829 11.2058 10.038C11.2162 9.99314 11.2354 9.95078 11.2623 9.91333C11.2891 9.87587 11.3231 9.84407 11.3622 9.81974C11.4013 9.79541 11.4449 9.77903 11.4903 9.77153C11.5358 9.76403 11.5823 9.76555 11.6272 9.77602C11.672 9.78649 11.7144 9.80569 11.7519 9.83253C11.7893 9.85938 11.8211 9.89334 11.8454 9.93247C11.8698 9.9716 11.8862 10.0151 11.8937 10.0606L12.1602 11.667C12.1753 11.7574 12.1538 11.8501 12.1006 11.9247C12.0474 11.9994 11.9667 12.0499 11.8764 12.0651L11.8175 12.0686ZM16.242 10.0779C16.1611 10.0781 16.0827 10.0499 16.0204 9.99829L15.2864 9.38897L15.2103 9.47552C15.1825 9.51411 15.147 9.54655 15.1061 9.57081C15.0652 9.59508 15.0197 9.61065 14.9725 9.61657C14.9253 9.62249 14.8774 9.61862 14.8318 9.6052C14.7862 9.59179 14.7438 9.56911 14.7073 9.53859C14.6708 9.50807 14.641 9.47037 14.6198 9.42782C14.5985 9.38528 14.5862 9.33881 14.5837 9.29131C14.5812 9.24381 14.5885 9.19631 14.6052 9.15176C14.6219 9.10722 14.6475 9.06658 14.6806 9.03239L14.7844 8.90776C14.907 8.78076 15.0735 8.70537 15.2498 8.69701C15.4261 8.68864 15.599 8.74793 15.733 8.86275L16.4705 9.46861C16.5267 9.51373 16.5675 9.5753 16.5871 9.64472C16.6066 9.71414 16.604 9.78794 16.5796 9.85581C16.5552 9.92368 16.5102 9.98224 16.4509 10.0233C16.3916 10.0644 16.321 10.0859 16.2489 10.0848L16.242 10.0779ZM19.2677 9.03932C19.1853 9.04052 19.1051 9.01222 19.0416 8.95954C18.9781 8.90686 18.9356 8.83325 18.9215 8.75197L18.6411 7.14905C18.6255 7.05723 18.647 6.96298 18.7009 6.88701C18.7548 6.81105 18.8367 6.75961 18.9285 6.744C19.0203 6.72839 19.1146 6.74989 19.1905 6.80378C19.2665 6.85767 19.3179 6.93953 19.3335 7.03135L19.6105 8.63426C19.6184 8.67929 19.6174 8.72544 19.6074 8.77006C19.5974 8.81468 19.5786 8.85689 19.5523 8.89423C19.5259 8.93157 19.4923 8.9633 19.4536 8.98761C19.4149 9.01192 19.3717 9.02832 19.3266 9.03585L19.2677 9.03932ZM11.2774 8.84545C11.195 8.84665 11.1148 8.81835 11.0513 8.76567C10.9878 8.71299 10.9453 8.63938 10.9312 8.55809L10.6612 6.95173C10.6462 6.8613 10.6676 6.7686 10.7208 6.69397C10.774 6.61933 10.8547 6.56885 10.9451 6.55359C11.0355 6.53856 11.1282 6.56001 11.2028 6.61323C11.2775 6.66644 11.3279 6.74709 11.3432 6.83747L11.6132 8.44385C11.6283 8.53428 11.6068 8.62697 11.5536 8.7016C11.5004 8.77624 11.4197 8.82672 11.3294 8.84198L11.2774 8.84545ZM18.7138 5.83003C18.6314 5.83123 18.5512 5.80294 18.4877 5.75026C18.4242 5.69758 18.3816 5.62397 18.3676 5.54268L18.1045 3.95016C18.0966 3.90513 18.0976 3.85897 18.1076 3.81435C18.1176 3.76973 18.1364 3.72753 18.1628 3.69019C18.1891 3.65285 18.2227 3.62111 18.2614 3.5968C18.3001 3.57249 18.3433 3.5561 18.3884 3.54856C18.4788 3.53353 18.5715 3.55498 18.6462 3.6082C18.7208 3.66142 18.7713 3.74206 18.7865 3.83245L19.0635 5.43536C19.0715 5.48015 19.0705 5.52606 19.0608 5.57048C19.051 5.61491 19.0326 5.65698 19.0065 5.69427C18.9805 5.73157 18.9473 5.76337 18.909 5.78785C18.8707 5.81233 18.8279 5.82902 18.7831 5.83696L18.7138 5.83003ZM10.7512 5.63269C10.6687 5.63389 10.5885 5.6056 10.5251 5.55292C10.4616 5.50024 10.419 5.42663 10.405 5.34535L10.1384 3.73898C10.1234 3.64855 10.1448 3.55585 10.1981 3.48122C10.2513 3.40658 10.3319 3.3561 10.4223 3.34084C10.5127 3.32581 10.6054 3.34726 10.6801 3.40048C10.7547 3.4537 10.8052 3.53434 10.8205 3.62473L11.0905 5.23111C11.0979 5.27613 11.0963 5.32217 11.0859 5.36658C11.0754 5.411 11.0563 5.45292 11.0296 5.48992C11.0029 5.52692 10.9691 5.55827 10.9303 5.58218C10.8914 5.60609 10.8482 5.62208 10.8031 5.62923L10.7512 5.63269ZM18.1703 2.62075C18.0878 2.62194 18.0076 2.59366 17.9442 2.54098C17.8807 2.4883 17.8381 2.41468 17.8241 2.33339L17.5471 0.73049C17.5394 0.685026 17.5407 0.638483 17.551 0.593522C17.5612 0.548562 17.5802 0.506064 17.6069 0.468451C17.6336 0.430839 17.6674 0.398843 17.7065 0.374305C17.7455 0.349766 17.789 0.333159 17.8345 0.32543C17.8799 0.317701 17.9265 0.319007 17.9714 0.329265C18.0164 0.339523 18.0589 0.358536 18.0965 0.385219C18.1341 0.411901 18.1661 0.445729 18.1907 0.484775C18.2152 0.52382 18.2318 0.567308 18.2395 0.612772L18.5165 2.21569C18.5245 2.26047 18.5236 2.30639 18.5138 2.35081C18.504 2.39524 18.4856 2.4373 18.4595 2.4746C18.4335 2.51189 18.4003 2.54369 18.362 2.56817C18.3237 2.59266 18.2809 2.60934 18.2361 2.61728L18.1703 2.62075ZM10.2077 2.42341C10.1247 2.42448 10.0441 2.3957 9.98054 2.34232C9.91699 2.28894 9.87474 2.21452 9.86147 2.1326L9.62605 0.723559C9.59968 0.580122 9.62417 0.431981 9.6953 0.304659C9.74121 0.224777 9.81696 0.166399 9.9059 0.142377C9.99485 0.118355 10.0897 0.130657 10.1696 0.176566C10.2495 0.222475 10.3078 0.298236 10.3319 0.387184C10.3559 0.476131 10.3436 0.570978 10.2977 0.65086L10.5435 2.03566C10.5585 2.12609 10.5371 2.21878 10.4838 2.29341C10.4306 2.36805 10.35 2.41853 10.2596 2.43379L10.2077 2.42341ZM16.467 0.692402H14.8398C14.748 0.692402 14.66 0.655933 14.595 0.591008C14.5301 0.526083 14.4936 0.438019 14.4936 0.346201C14.4936 0.254383 14.5301 0.16633 14.595 0.101405C14.66 0.0364797 14.748 0 14.8398 0H16.467C16.5588 0 16.6469 0.0364797 16.7118 0.101405C16.7767 0.16633 16.8132 0.254383 16.8132 0.346201C16.8132 0.438019 16.7767 0.526083 16.7118 0.591008C16.6469 0.655933 16.5588 0.692402 16.467 0.692402ZM13.2092 0.692402H11.5821C11.4903 0.692402 11.4022 0.655933 11.3373 0.591008C11.2724 0.526083 11.2359 0.438019 11.2359 0.346201C11.2359 0.254383 11.2724 0.16633 11.3373 0.101405C11.4022 0.0364797 11.4903 0 11.5821 0H13.2092C13.301 0 13.3891 0.0364797 13.454 0.101405C13.5189 0.16633 13.5554 0.254383 13.5554 0.346201C13.5554 0.438019 13.5189 0.526083 13.454 0.591008C13.3891 0.655933 13.301 0.692402 13.2092 0.692402Z" fill="#00144A"/>
<path d="M15.089 21.212H32.4717C32.6541 21.2184 32.8355 21.1827 33.0018 21.1076C33.1682 21.0326 33.315 20.9202 33.4308 20.7792C33.5467 20.6383 33.6285 20.4725 33.6699 20.2948C33.7113 20.1171 33.7112 19.9322 33.6696 19.7545C33.5895 19.3511 33.3745 18.9869 33.0598 18.722C32.7452 18.4571 32.3498 18.3072 31.9386 18.297H14.5593C14.3766 18.2901 14.1949 18.3254 14.0281 18.4002C13.8613 18.475 13.7141 18.5873 13.5978 18.7283C13.4815 18.8694 13.3994 19.0354 13.3578 19.2134C13.3162 19.3914 13.3163 19.5765 13.358 19.7545C13.4392 20.1574 13.6546 20.5208 13.969 20.7855C14.2834 21.0502 14.6782 21.2005 15.089 21.212Z" fill="#D5DADD"/>
<path d="M26.6039 25.7609H33.1195C33.3019 25.7672 33.4833 25.7314 33.6498 25.6563C33.8162 25.5813 33.9631 25.469 34.0792 25.3281C34.1953 25.1873 34.2775 25.0216 34.3194 24.8439C34.3613 24.6662 34.3617 24.4813 34.3208 24.3034C34.2395 23.9005 34.0241 23.5371 33.7098 23.2724C33.3954 23.0077 33.0006 22.8574 32.5898 22.8459H26.0916C25.9091 22.8397 25.7277 22.8754 25.5613 22.9505C25.3948 23.0255 25.2479 23.1378 25.1318 23.2787C25.0157 23.4195 24.9335 23.5852 24.8916 23.7629C24.8498 23.9406 24.8493 24.1255 24.8902 24.3034C24.9702 24.7037 25.1829 25.0654 25.4939 25.3299C25.8049 25.5944 26.196 25.7462 26.6039 25.7609Z" fill="#D5DADD"/>
<path d="M16.1799 25.695H22.6954C22.8779 25.7013 23.0593 25.6655 23.2257 25.5904C23.3921 25.5154 23.5391 25.4031 23.6552 25.2622C23.7713 25.1214 23.8535 24.9557 23.8954 24.778C23.9373 24.6003 23.9377 24.4154 23.8968 24.2375C23.8161 23.8343 23.6009 23.4706 23.2864 23.2058C22.9719 22.9409 22.5767 22.7908 22.1657 22.78H15.6814C15.499 22.7737 15.3175 22.8095 15.1511 22.8845C14.9847 22.9596 14.8377 23.0719 14.7216 23.2128C14.6055 23.3536 14.5234 23.5193 14.4815 23.697C14.4396 23.8747 14.4391 24.0596 14.4801 24.2375C14.5601 24.6353 14.7709 24.995 15.0789 25.2591C15.387 25.5232 15.7746 25.6767 16.1799 25.695Z" fill="#D5DADD"/>
<path d="M16.6644 29.6281H23.1765C23.3589 29.6344 23.5403 29.5986 23.7067 29.5236C23.8732 29.4486 24.0201 29.3363 24.1362 29.1954C24.2523 29.0545 24.3345 28.8888 24.3764 28.7111C24.4183 28.5335 24.4187 28.3485 24.3778 28.1706C24.2971 27.7675 24.0819 27.4037 23.7674 27.1389C23.4529 26.8741 23.0578 26.724 22.6468 26.7131H16.1486C15.9662 26.7067 15.7848 26.7424 15.6185 26.8175C15.4522 26.8926 15.3054 27.0049 15.1895 27.1459C15.0736 27.2869 14.9918 27.4527 14.9504 27.6304C14.909 27.8081 14.9091 27.993 14.9507 28.1706C15.0307 28.571 15.2434 28.9326 15.5543 29.1971C15.8653 29.4616 16.2564 29.6135 16.6644 29.6281Z" fill="#D5DADD"/>
</svg>
