<svg width="128" height="128" viewBox="0 0 128 128" fill="none" xmlns="http://www.w3.org/2000/svg">
<path d="M30.1436 7.8914L13.8415 106.151C13.1184 110.51 16.0654 114.629 20.4238 115.352L88.7649 126.691C93.1233 127.414 97.2426 124.467 97.9657 120.108L114.268 21.8482C114.991 17.4898 112.044 13.3705 107.685 12.6474L39.3444 1.30909C34.986 0.586003 30.8667 3.533 30.1436 7.8914Z" fill="#F58B00"/>
<path d="M87.3351 5.97656H20.9897C16.5717 5.97656 12.9902 9.55804 12.9902 13.976V109.599C12.9902 114.017 16.5717 117.599 20.9897 117.599H87.3351C91.7531 117.599 95.3346 114.017 95.3346 109.599V13.976C95.3346 9.55804 91.7531 5.97656 87.3351 5.97656Z" fill="#CEDBE8"/>
<path d="M87.3448 118.599H20.9994C18.6126 118.599 16.3235 117.651 14.6358 115.963C12.9481 114.275 12 111.986 12 109.599V13.9759C12 11.5892 12.9481 9.30011 14.6358 7.6124C16.3235 5.92469 18.6126 4.97656 20.9994 4.97656H87.3448C89.7316 4.97656 92.0207 5.92469 93.7084 7.6124C95.3961 9.30011 96.3442 11.5892 96.3442 13.9759V109.599C96.3442 111.986 95.3961 114.275 93.7084 115.963C92.0207 117.651 89.7316 118.599 87.3448 118.599ZM20.9994 6.97643C19.143 6.97643 17.3626 7.71385 16.0499 9.02652C14.7372 10.3392 13.9999 12.1196 13.9999 13.9759V109.599C13.9999 111.456 14.7372 113.236 16.0499 114.549C17.3626 115.861 19.143 116.599 20.9994 116.599H87.3448C89.2012 116.599 90.9815 115.861 92.2942 114.549C93.6068 113.236 94.3443 111.456 94.3443 109.599V13.9759C94.3443 12.1196 93.6068 10.3392 92.2942 9.02652C90.9815 7.71385 89.2012 6.97643 87.3448 6.97643H20.9994Z" fill="#688FB7"/>
<path d="M54.4169 81.4208C65.2852 81.4208 74.0956 72.6103 74.0956 61.7421C74.0956 50.8739 65.2852 42.0635 54.4169 42.0635C43.5487 42.0635 34.7383 50.8739 34.7383 61.7421C34.7383 72.6103 43.5487 81.4208 54.4169 81.4208Z" fill="#0070F3"/>
<path d="M56.0966 59.0125C56.0881 59.1999 56.1188 59.387 56.1866 59.5619C56.2544 59.7369 56.358 59.8957 56.4906 60.0284C56.6233 60.1611 56.7821 60.2646 56.957 60.3325C57.132 60.4003 57.3191 60.4309 57.5066 60.4224H63.9062C64.0931 60.431 64.2798 60.4004 64.4542 60.3325C64.6286 60.2645 64.7869 60.1608 64.9188 60.028C65.0507 59.8951 65.1533 59.7361 65.22 59.5612C65.2867 59.3863 65.3159 59.1994 65.306 59.0125V52.5129C65.3159 52.326 65.2867 52.139 65.22 51.9641C65.1533 51.7892 65.0507 51.6302 64.9188 51.4974C64.7869 51.3645 64.6286 51.2608 64.4542 51.1929C64.2798 51.125 64.0931 51.0943 63.9062 51.103C63.7187 51.0945 63.5316 51.1251 63.3566 51.193C63.1817 51.2608 63.0229 51.3643 62.8902 51.497C62.7576 51.6297 62.654 51.7885 62.5862 51.9634C62.5183 52.1383 62.4877 52.3255 62.4962 52.5129V54.8627C61.4471 53.6842 60.1613 52.7402 58.7225 52.0923C57.2838 51.4445 55.7247 51.1073 54.1468 51.103C51.1854 51.1056 48.3459 52.2832 46.2518 54.3773C44.1578 56.4714 42.9802 59.3108 42.9775 62.2722C42.9802 65.2337 44.1578 68.0731 46.2518 70.1672C48.3459 72.2612 51.1854 73.4388 54.1468 73.4415C56.6849 73.4294 59.1449 72.5624 61.1297 70.9804C63.1145 69.3983 64.5083 67.1936 65.086 64.7221C65.1236 64.5311 65.1227 64.3345 65.0832 64.1439C65.0437 63.9533 64.9664 63.7725 64.856 63.6121C64.7545 63.4614 64.6231 63.333 64.4701 63.235C64.317 63.1369 64.1455 63.0713 63.9661 63.0422C63.7751 63.0046 63.5785 63.0055 63.3879 63.045C63.1973 63.0845 63.0165 63.1617 62.8562 63.2721C62.7065 63.3725 62.5788 63.5023 62.4808 63.6536C62.3829 63.8048 62.3166 63.9744 62.2861 64.1521C61.8744 65.9989 60.8417 67.6488 59.3604 68.8261C57.8792 70.0035 56.039 70.6373 54.1468 70.6217C51.9323 70.619 49.809 69.7388 48.2422 68.1738C46.6754 66.6089 45.7926 64.4867 45.7873 62.2722C45.7899 60.056 46.6715 57.9313 48.2387 56.3642C49.8058 54.797 51.9306 53.9154 54.1468 53.9128C55.5131 53.9107 56.8586 54.2476 58.0627 54.8933C59.2668 55.539 60.292 56.4733 61.0462 57.6126H57.3966C57.218 57.6149 57.0417 57.6535 56.8784 57.726C56.7152 57.7985 56.5684 57.9033 56.4468 58.0342C56.3253 58.1651 56.2317 58.3193 56.1715 58.4874C56.1113 58.6556 56.0858 58.8342 56.0966 59.0125Z" fill="#CEDBE8"/>
</svg>
