<svg width="45" height="45" viewBox="0 0 45 45" fill="none" xmlns="http://www.w3.org/2000/svg">
<g clip-path="url(#clip0_4413_116652)">
<g clip-path="url(#clip1_4413_116652)">
<path d="M14.769 8.54716C13.7837 9.03981 1.25212 19.2211 1.25212 19.2211C0.656846 19.7959 0.513159 20.6991 1.14949 21.2429L23.2877 39.6349C23.3492 39.6863 23.4211 39.7479 23.4826 39.7889C23.9547 40.1378 24.4166 40.3226 24.9503 40.374C25.2993 40.4047 25.6482 40.3226 25.9869 40.22L29.1838 38.9747L17.0167 8.41374C17.0167 8.41374 15.7646 8.05452 14.7792 8.5369L14.769 8.54716Z" fill="#101619"/>
<path d="M25.5582 35.0771L3.21484 16.6953V18.163C3.21484 18.7172 3.44064 19.2406 3.86144 19.5896L24.7474 37.5608C26.2151 38.7616 27.4775 39.0901 28.4012 39.0798V35.5184L25.5582 35.0873V35.0771Z" fill="#046C7C"/>
<path d="M44.4225 27.1174C45.1102 26.5631 45.2539 25.8857 45.2539 25.3315V24.3359L30.1461 35.7797L28.4014 35.5128V39.0742C29.2121 39.0742 29.7664 38.7971 29.9819 38.6124L44.4327 27.1071L44.4225 27.1174Z" fill="#4D82B8"/>
<path d="M30.8957 37.0271C29.5512 38.1767 27.3445 38.1767 25.9795 37.0271L3.95429 18.3888C2.82532 17.4343 3.01005 15.9051 4.33403 14.9711L17.8304 5.8264C19.0517 4.97453 20.9505 4.97453 22.0897 5.8264L44.1663 22.4736C45.521 23.4999 45.6442 25.1729 44.4229 26.2198L30.906 37.0271H30.8957Z" fill="#0899A7"/>
<path d="M18.5694 6.71162L5.46313 15.6305C4.47784 16.3182 4.34441 17.4574 5.18601 18.1553L26.421 36.0342C27.4268 36.8757 29.0586 36.8757 30.0439 36.0342L43.1811 25.5861C44.0843 24.806 44.0021 23.5744 42.9963 22.8149L21.7306 6.71162C20.889 6.07529 19.4829 6.07529 18.5694 6.71162Z" fill="#D5DADD"/>
<path fill-rule="evenodd" clip-rule="evenodd" d="M11.3156 25.6004C11.1203 25.7357 10.2635 25.871 10.0381 25.6756L8.08408 24.0824C7.94881 23.8569 7.85862 23.5413 8.55003 23.3609C8.98592 23.2407 9.22641 23.3609 9.45186 23.5413L11.2556 25.0143C11.481 25.1946 11.5111 25.4651 11.3156 25.6004Z" fill="#00144A"/>
<path fill-rule="evenodd" clip-rule="evenodd" d="M10.7145 25.7051C10.5191 25.8403 10.1734 25.8103 9.94796 25.6148L8.14428 24.1418C7.91882 23.9615 7.88876 23.691 8.08416 23.5557C8.27956 23.4204 8.62526 23.4504 8.85072 23.6458L10.6544 25.1188C10.8799 25.2992 10.9099 25.5698 10.7145 25.7051Z" fill="#0899A7"/>
<path fill-rule="evenodd" clip-rule="evenodd" d="M19.2981 16.8702C16.6603 18.7587 16.4551 21.9917 18.9593 24.0545C21.5047 26.1483 25.8154 26.1689 28.4119 24.1162C31.0086 22.0635 30.8649 18.9229 28.3607 16.9934C25.8974 15.1049 21.864 15.0433 19.2981 16.8805V16.8702ZM27.2317 19.8261C27.673 19.8261 28.0425 20.1134 28.0425 20.4624C28.0425 20.6369 27.9501 20.7908 27.8064 20.9037C27.6627 21.0166 27.4575 21.0885 27.2317 21.0885L24.5837 21.068L24.553 23.1514C24.553 23.5107 24.1731 23.798 23.7113 23.798C23.2495 23.798 22.8903 23.5004 22.8903 23.1412L22.9416 21.0474L20.2731 21.0269C19.8215 21.0269 19.4622 20.7395 19.4725 20.3803C19.4931 20.0313 19.8625 19.7542 20.3142 19.7542L22.9621 19.785L23.0135 17.7734C23.0135 17.4347 23.3829 17.1678 23.8242 17.1781C24.2656 17.1781 24.6145 17.4552 24.6145 17.7939L24.5837 19.7953L27.2112 19.8261H27.2317Z" fill="#D20A0A"/>
</g>
</g>
<defs>
<clipPath id="clip0_4413_116652">
<rect width="45" height="45" fill="white"/>
</clipPath>
<clipPath id="clip1_4413_116652">
<rect width="44.5312" height="35.625" fill="white" transform="translate(0.734375 5.1875)"/>
</clipPath>
</defs>
</svg>
