<svg width="320" height="240" viewBox="0 0 320 240" fill="none" xmlns="http://www.w3.org/2000/svg">
<path d="M130.82 140.703H34.0244C26.4391 140.703 19.1645 143.716 13.8008 149.08C8.43714 154.444 5.42383 161.718 5.42383 169.304C5.42383 176.889 8.43714 184.164 13.8008 189.527C19.1645 194.891 26.4391 197.904 34.0244 197.904H130.82C134.576 197.904 138.295 197.165 141.765 195.727C145.235 194.29 148.388 192.183 151.044 189.527C153.7 186.872 155.807 183.719 157.244 180.249C158.681 176.779 159.421 173.06 159.421 169.304C159.421 165.548 158.681 161.829 157.244 158.359C155.807 154.889 153.7 151.736 151.044 149.08C148.388 146.424 145.235 144.318 141.765 142.88C138.295 141.443 134.576 140.703 130.82 140.703Z" fill="#223548"/>
<path d="M166.06 169.091H69.2637C65.5078 169.091 61.7887 169.831 58.3187 171.268C54.8487 172.705 51.6958 174.812 49.04 177.468C46.3842 180.124 44.2775 183.276 42.8402 186.746C41.4029 190.216 40.6631 193.936 40.6631 197.691C40.6631 201.447 41.4029 205.166 42.8402 208.636C44.2775 212.106 46.3842 215.259 49.04 217.915C51.6958 220.571 54.8487 222.678 58.3187 224.115C61.7887 225.552 65.5078 226.292 69.2637 226.292H166.06C169.816 226.292 173.535 225.552 177.005 224.115C180.475 222.678 183.628 220.571 186.283 217.915C188.939 215.259 191.046 212.106 192.483 208.636C193.921 205.166 194.66 201.447 194.66 197.691C194.66 193.936 193.921 190.216 192.483 186.746C191.046 183.276 188.939 180.124 186.283 177.468C183.628 174.812 180.475 172.705 177.005 171.268C173.535 169.831 169.816 169.091 166.06 169.091Z" fill="#223548"/>
<path d="M292.005 89.9814H195.209C187.729 90.1431 180.609 93.2281 175.376 98.5754C170.143 103.923 167.213 111.107 167.213 118.589C167.213 126.071 170.143 133.255 175.376 138.602C180.609 143.949 187.729 147.034 195.209 147.196H292.005C299.485 147.034 306.604 143.949 311.837 138.602C317.07 133.255 320 126.071 320 118.589C320 111.107 317.07 103.923 311.837 98.5754C306.604 93.2281 299.485 90.1431 292.005 89.9814Z" fill="#223548"/>
<path d="M219.868 37.7764H37.8982C27.8469 37.7764 18.2074 41.7692 11.1001 48.8765C3.99284 55.9838 2.35452e-06 65.6234 2.35452e-06 75.6746C-0.00175231 80.6526 0.977232 85.5821 2.88101 90.1817C4.78478 94.7812 7.57605 98.9607 11.0954 102.481C14.6147 106.002 18.7932 108.795 23.3921 110.7C27.991 112.605 32.9202 113.586 37.8982 113.586H219.868C224.849 113.593 229.783 112.618 234.387 110.717C238.992 108.815 243.176 106.025 246.701 102.505C250.225 98.985 253.022 94.8048 254.93 90.2033C256.838 85.6018 257.82 80.6693 257.82 75.6879C257.821 70.7054 256.841 65.7715 254.934 61.1685C253.027 56.5654 250.23 52.3836 246.705 48.8623C243.18 45.341 238.996 42.5494 234.391 40.6472C229.786 38.7449 224.851 37.7694 219.868 37.7764Z" fill="#223548"/>
<path d="M178.483 220.454C178.129 220.454 177.789 220.313 177.538 220.063C177.288 219.812 177.147 219.472 177.147 219.118C177.147 217.902 176.853 217.047 176.439 216.78C176.239 216.66 175.985 216.687 175.384 216.78C174.894 216.91 174.383 216.942 173.881 216.873C173.379 216.804 172.895 216.636 172.458 216.379C172.033 216.068 171.681 215.668 171.427 215.207C171.173 214.745 171.024 214.233 170.989 213.708C170.843 212.898 170.601 212.109 170.267 211.357C170.014 210.761 169.651 210.217 169.199 209.754C168.7 209.256 168.29 208.678 167.983 208.044C167.315 206.589 167.012 204.993 167.101 203.395C165.483 202.361 164.151 200.937 163.227 199.254C161.758 196.408 161.892 192.895 162.119 189.489V188.594C162.283 187.21 162.202 185.808 161.878 184.453C161.541 183.216 160.994 182.045 160.262 180.993C157.136 176.384 156.949 166.445 157.083 159.352V159.151C157.195 150.943 156.883 142.735 156.147 134.558C156.131 134.383 156.149 134.206 156.202 134.037C156.254 133.869 156.339 133.713 156.452 133.577C156.565 133.442 156.704 133.33 156.86 133.249C157.016 133.167 157.187 133.117 157.363 133.102C157.715 133.073 158.065 133.184 158.336 133.412C158.606 133.64 158.775 133.966 158.806 134.318C159.552 142.592 159.869 150.898 159.754 159.205V159.405C159.581 169.798 160.476 176.531 162.426 179.443C163.353 180.771 164.044 182.249 164.47 183.811C164.877 185.444 164.985 187.136 164.79 188.807V189.662C164.63 192.855 164.47 195.874 165.605 198.078C166.128 199.029 166.832 199.868 167.676 200.55C168.138 199.172 169.051 197.991 170.267 197.197C172.057 196.074 174.836 195.861 176.212 197.357C176.562 197.8 176.809 198.314 176.936 198.864C177.063 199.414 177.067 199.985 176.947 200.536C176.832 201.326 176.554 202.083 176.131 202.759C175.708 203.435 175.149 204.016 174.489 204.464C173.806 204.818 173.058 205.029 172.291 205.084C171.524 205.139 170.753 205.037 170.027 204.784H169.8C169.863 205.544 170.063 206.286 170.388 206.975C170.573 207.376 170.831 207.738 171.149 208.044C171.804 208.717 172.33 209.505 172.699 210.368C173.12 211.302 173.425 212.285 173.607 213.294C173.754 214.028 173.807 214.202 173.928 214.282C174.048 214.362 174.355 214.376 174.943 214.282C175.925 214.023 176.97 214.157 177.855 214.656C179.097 215.431 179.765 216.954 179.819 219.185C179.819 219.539 179.678 219.879 179.427 220.129C179.177 220.38 178.837 220.521 178.483 220.521V220.454ZM170.027 201.939L170.748 202.179C171.507 202.483 172.354 202.483 173.113 202.179C173.437 201.935 173.709 201.628 173.913 201.277C174.117 200.926 174.249 200.538 174.302 200.135C174.402 199.802 174.369 199.443 174.208 199.134C173.788 198.984 173.338 198.937 172.897 198.997C172.455 199.058 172.034 199.224 171.67 199.481C170.826 200.081 170.239 200.978 170.027 201.992V201.939Z" fill="#688FB7"/>
<path d="M200.297 63.6387C200.297 88.4856 165.218 120.947 159.113 125.809C158.59 126.066 158.018 126.209 157.436 126.23C156.854 126.251 156.273 126.148 155.733 125.93C138.194 110.22 115.03 90.7432 114.068 63.8257C113.106 36.9083 132.77 16.1357 157.283 16.1357C181.796 16.1357 200.297 36.6144 200.297 63.6387Z" fill="#F58B00"/>
<path d="M155.747 125.889L152.287 133.25C152.215 133.394 152.181 133.554 152.19 133.715C152.199 133.876 152.249 134.032 152.337 134.167C152.425 134.302 152.547 134.412 152.691 134.486C152.834 134.559 152.995 134.593 153.156 134.585L162.106 134.452C162.258 134.442 162.405 134.394 162.534 134.313C162.663 134.233 162.77 134.121 162.846 133.989C162.921 133.856 162.962 133.707 162.966 133.555C162.97 133.403 162.936 133.252 162.867 133.116L159.087 125.822" fill="#F58B00"/>
<path d="M123.299 43.721C123.12 43.7207 122.943 43.6844 122.778 43.6142C122.615 43.5457 122.468 43.4456 122.344 43.3196C122.22 43.1937 122.122 43.0444 122.056 42.8804C121.99 42.7163 121.958 42.5409 121.96 42.3642C121.963 42.1875 122 42.013 122.07 41.8509C124.425 36.8607 127.765 32.3985 131.889 28.7328C132.146 28.4883 132.489 28.3559 132.844 28.3647C133.198 28.3734 133.535 28.5227 133.779 28.7795C134.024 29.0364 134.156 29.3798 134.147 29.7343C134.138 30.0888 133.989 30.4253 133.732 30.6698C129.872 34.0926 126.741 38.2589 124.528 42.9195C124.424 43.1585 124.252 43.3617 124.034 43.5041C123.815 43.6465 123.56 43.722 123.299 43.721Z" fill="#CC7400"/>
<path d="M119.319 52.9384C119.178 52.9424 119.038 52.9197 118.905 52.8716C118.569 52.7616 118.29 52.5225 118.129 52.2069C117.969 51.8913 117.94 51.525 118.05 51.1885C118.497 49.8155 119.042 48.4762 119.68 47.1809C119.759 47.0214 119.869 46.8793 120.004 46.7629C120.139 46.6466 120.295 46.5584 120.465 46.5035C120.634 46.4486 120.813 46.4282 120.99 46.4433C121.168 46.4585 121.34 46.5089 121.498 46.5918C121.656 46.6746 121.795 46.7881 121.908 46.9256C122.021 47.0631 122.106 47.2218 122.157 47.3925C122.208 47.5631 122.224 47.7422 122.204 47.9192C122.185 48.0962 122.131 48.2676 122.044 48.4232C121.482 49.5837 120.995 50.7796 120.588 52.0033C120.503 52.2736 120.334 52.5099 120.106 52.678C119.878 52.8461 119.602 52.9373 119.319 52.9384Z" fill="#CC7400"/>
<path d="M209.048 73.51C207.712 77.0367 206.456 80.5633 205.174 84.09C205.085 84.3185 205.091 84.5729 205.19 84.7971C205.289 85.0213 205.473 85.197 205.701 85.2856C205.93 85.3742 206.184 85.3683 206.408 85.2694C206.633 85.1704 206.808 84.9864 206.897 84.7579C208.233 81.2313 209.489 77.7046 210.771 74.178C210.86 73.9494 210.854 73.6951 210.755 73.4709C210.656 73.2467 210.472 73.071 210.243 72.9824C210.015 72.8938 209.761 72.8996 209.536 72.9986C209.312 73.0976 209.136 73.2815 209.048 73.51Z" fill="#5D36FF"/>
<path d="M206.082 86.361C205.847 86.3686 205.615 86.3229 205.4 86.2274C205.166 86.1453 204.949 86.0172 204.765 85.8506C204.58 85.6839 204.431 85.4821 204.325 85.257C204.219 85.0318 204.159 84.7878 204.149 84.5393C204.139 84.2907 204.178 84.0426 204.265 83.8095L208.139 73.2162C208.216 72.9847 208.34 72.7714 208.502 72.5894C208.665 72.4074 208.863 72.2606 209.085 72.158C209.306 72.0554 209.546 71.9992 209.79 71.9928C210.034 71.9864 210.277 72.03 210.503 72.1208C210.74 72.2028 210.957 72.3314 211.143 72.4989C211.329 72.6665 211.479 72.8697 211.585 73.0964C211.691 73.3231 211.75 73.5687 211.76 73.8188C211.769 74.0688 211.728 74.3182 211.639 74.5521L207.778 85.1454C207.66 85.5011 207.432 85.8102 207.127 86.0286C206.823 86.2469 206.457 86.3633 206.082 86.361ZM209.047 73.5101L209.942 73.8307L209.047 73.5101Z" fill="#5D36FF"/>
<path d="M110.689 18.2598L118.33 26.8493C119.158 27.771 120.547 26.4619 119.746 25.5135C117.181 22.6547 114.656 19.7826 112.105 16.9373C111.29 16.069 109.874 17.4048 110.689 18.2598Z" fill="#64EDD2"/>
<path d="M118.998 28.0914C118.743 28.0827 118.493 28.0212 118.263 27.9109C118.033 27.8005 117.828 27.6436 117.662 27.4501L110.021 18.874C109.694 18.4928 109.531 17.9975 109.569 17.4967C109.606 16.9958 109.841 16.5303 110.221 16.2023C110.401 16.0277 110.616 15.8921 110.85 15.8037C111.085 15.7154 111.336 15.6763 111.586 15.6888C111.837 15.7013 112.082 15.7652 112.307 15.8765C112.532 15.9879 112.731 16.1442 112.893 16.3358L120.534 24.9254C120.771 25.2073 120.924 25.5506 120.974 25.9156C121.024 26.2807 120.97 26.6524 120.818 26.9879C120.665 27.3234 120.421 27.6089 120.113 27.8112C119.805 28.0136 119.446 28.1246 119.078 28.1314L118.998 28.0914ZM111.397 17.6183L119.011 26.1544L111.383 17.6717L111.397 17.6183Z" fill="#64EDD2"/>
<path d="M116.219 98.5312C115.496 98.5441 114.775 98.4449 114.082 98.2373C113.448 98.057 112.889 97.678 112.488 97.1561C112.086 96.6342 111.863 95.997 111.851 95.3385C111.851 94.9511 111.931 94.5504 111.971 94.1763C112.091 93.2947 112.198 92.4798 111.877 92.0924C111.397 91.7386 110.799 91.5853 110.208 91.6649C109.887 91.6649 109.553 91.6649 109.192 91.6649C107.629 91.6649 105.866 91.8119 105.105 90.7298C104.87 90.3237 104.747 89.863 104.747 89.394C104.747 88.925 104.87 88.4643 105.105 88.0581C105.371 87.5873 105.524 87.061 105.552 86.5208C105.58 85.9805 105.481 85.4413 105.265 84.9456C105.045 84.7303 104.774 84.5745 104.477 84.4927C104.18 84.4109 103.868 84.4059 103.568 84.478C102.557 84.6531 101.593 85.0352 100.736 85.6002C100.594 85.6786 100.427 85.6988 100.27 85.6565C100.113 85.6141 99.9784 85.5125 99.8948 85.3731C99.854 85.3048 99.8271 85.2291 99.8157 85.1503C99.8044 85.0715 99.8087 84.9913 99.8286 84.9143C99.8485 84.8372 99.8835 84.7649 99.9315 84.7015C99.9796 84.6381 100.04 84.5848 100.109 84.5448C101.103 83.8639 102.233 83.408 103.421 83.209C103.934 83.0917 104.47 83.1196 104.967 83.2894C105.465 83.4593 105.906 83.7645 106.24 84.1708C106.604 84.8269 106.795 85.5647 106.795 86.3148C106.795 87.065 106.604 87.8028 106.24 88.4589C105.933 89.1936 105.879 89.7947 106.066 90.0085C106.44 90.5428 107.977 90.4894 109.099 90.4359H110.154C110.635 90.3734 111.124 90.4176 111.585 90.5654C112.047 90.7131 112.471 90.9608 112.826 91.2909C113.105 91.7413 113.284 92.2462 113.35 92.7717C113.417 93.2971 113.37 93.8308 113.213 94.3366C113.213 94.6973 113.12 95.058 113.093 95.4053C113.117 95.7886 113.259 96.1553 113.497 96.4561C113.736 96.7569 114.061 96.9776 114.429 97.0885C115.645 97.3771 116.913 97.3771 118.129 97.0885C118.276 97.0792 118.422 97.123 118.539 97.2121C118.657 97.3011 118.738 97.4294 118.769 97.5735C118.8 97.7176 118.778 97.8679 118.707 97.9972C118.636 98.1264 118.521 98.2258 118.383 98.2774C117.668 98.41 116.945 98.4948 116.219 98.5312Z" fill="#5D36FF"/>
<path d="M116.219 99.4929C115.4 99.5066 114.584 99.3894 113.801 99.1456C112.962 98.904 112.225 98.3948 111.701 97.6955C111.178 96.9962 110.898 96.145 110.903 95.2716C110.903 94.8442 110.983 94.4434 111.036 94.056C111.109 93.6147 111.141 93.1674 111.13 92.7202C110.832 92.6243 110.52 92.5835 110.208 92.5999C109.981 92.586 109.753 92.586 109.527 92.5999H109.246C107.523 92.6801 105.386 92.7602 104.317 91.2641C103.989 90.7196 103.81 90.0984 103.798 89.463C103.787 88.8275 103.942 88.2001 104.25 87.6439C104.622 86.9871 104.728 86.2122 104.544 85.4798C104.544 85.4798 104.29 85.3195 103.689 85.3863C102.813 85.5598 101.979 85.9 101.231 86.3882C100.963 86.5414 100.655 86.6112 100.348 86.5885C100.04 86.5658 99.7459 86.4517 99.5033 86.2608C99.2608 86.0699 99.0808 85.811 98.9864 85.5171C98.892 85.2233 98.8875 84.908 98.9734 84.6115C99.0247 84.4115 99.1178 84.2247 99.2468 84.0635C99.3758 83.9023 99.5376 83.7704 99.7215 83.6764C100.838 82.9773 102.09 82.5221 103.395 82.3406C104.071 82.2044 104.771 82.257 105.42 82.4926C106.068 82.7283 106.638 83.1378 107.069 83.6764C107.532 84.4679 107.785 85.3653 107.801 86.2825C107.817 87.1996 107.597 88.1055 107.162 88.913C107.055 89.1935 107.002 89.3939 106.962 89.5008C107.673 89.5676 108.388 89.5676 109.099 89.5008H110.208C110.813 89.4417 111.423 89.5164 111.995 89.7196C112.568 89.9227 113.089 90.2494 113.521 90.6763C113.901 91.2247 114.155 91.8508 114.263 92.5092C114.372 93.1677 114.333 93.842 114.149 94.4835C114.149 94.8174 114.055 95.1514 114.042 95.4854C114.028 95.8193 114.362 96.0331 114.79 96.18C115.835 96.4273 116.924 96.4273 117.969 96.18C118.373 96.0925 118.795 96.1685 119.143 96.3913C119.491 96.6141 119.737 96.9656 119.826 97.3689C119.869 97.5698 119.872 97.7772 119.835 97.9793C119.798 98.1814 119.722 98.3742 119.61 98.5466C119.498 98.7191 119.354 98.8678 119.184 98.9844C119.015 99.1009 118.825 99.1829 118.624 99.2258C117.833 99.396 117.028 99.4855 116.219 99.4929Z" fill="#5D36FF"/>
<path d="M197.453 58.2679C195.448 57.9087 193.51 57.2418 191.709 56.2908C191.607 56.2422 191.515 56.1739 191.439 56.0896C191.364 56.0054 191.306 55.907 191.268 55.8001C191.231 55.6933 191.215 55.58 191.222 55.4671C191.229 55.3541 191.258 55.2436 191.308 55.142C191.421 54.9364 191.61 54.7826 191.834 54.7128C192.058 54.6431 192.3 54.6629 192.51 54.7679C194.289 55.716 196.219 56.3487 198.214 56.6381C199.084 56.7501 199.967 56.6706 200.802 56.4052C201.638 56.1398 202.405 55.695 203.05 55.1019C204.386 53.6725 204.506 51.5752 204.64 49.3577C204.615 47.4676 204.97 45.5917 205.682 43.8406C207.378 40.4209 212.027 38.5907 216.262 39.6861C216.375 39.7113 216.481 39.7587 216.576 39.8256C216.67 39.8926 216.75 39.9777 216.811 40.076C216.872 40.1744 216.913 40.2839 216.931 40.3981C216.949 40.5124 216.944 40.6291 216.916 40.7415C216.851 40.9637 216.701 41.1513 216.499 41.2638C216.296 41.3763 216.058 41.4046 215.834 41.3426C212.374 40.4476 208.647 41.8769 207.312 44.5887C206.686 46.1362 206.386 47.796 206.43 49.4646C206.296 51.8825 206.176 54.3939 204.399 56.2774C203.563 57.0702 202.562 57.6681 201.467 58.0284C200.372 58.3887 199.211 58.5024 198.068 58.3614L197.453 58.2679Z" fill="#64EDD2"/>
<path d="M198.895 59.3367H198C197.773 59.3367 197.546 59.3367 197.319 59.2566C195.221 58.8832 193.194 58.1893 191.307 57.1994C191.084 57.0966 190.884 56.9485 190.721 56.7646C190.558 56.5806 190.434 56.3648 190.359 56.1307C190.252 55.7851 190.249 55.4156 190.35 55.0684C190.452 54.7211 190.653 54.4114 190.93 54.1779C191.206 53.9443 191.545 53.7972 191.904 53.7549C192.264 53.7126 192.627 53.7769 192.95 53.9399C194.61 54.8491 196.42 55.451 198.294 55.7166C199.011 55.8063 199.738 55.7432 200.429 55.5313C201.12 55.3195 201.758 54.9638 202.301 54.4876C203.423 53.2987 203.517 51.4686 203.637 49.3312C203.605 47.3089 203.997 45.3022 204.786 43.4401C206.656 39.6329 211.799 37.589 216.475 38.7913C216.713 38.8503 216.938 38.9578 217.133 39.1072C217.328 39.2566 217.491 39.4446 217.61 39.6596C217.731 39.8576 217.81 40.0784 217.842 40.3081C217.874 40.5379 217.859 40.7718 217.797 40.9955C217.671 41.4669 217.366 41.8704 216.947 42.12C216.528 42.3696 216.027 42.4454 215.553 42.3313C212.534 41.5432 209.261 42.7454 208.126 45.003C207.57 46.4374 207.302 47.9671 207.337 49.5048C207.217 51.9895 207.07 54.7681 205.026 56.9188C203.379 58.4981 201.177 59.3665 198.895 59.3367Z" fill="#64EDD2"/>
<path d="M193.178 28.2782C192.988 28.278 192.801 28.2374 192.628 28.1591C192.455 28.0808 192.301 27.9666 192.176 27.8241C187.995 23.0354 182.845 19.1881 177.068 16.5361C176.91 16.4592 176.768 16.3518 176.652 16.2201C176.535 16.0884 176.446 15.935 176.389 15.7687C176.332 15.6024 176.308 15.4264 176.319 15.2509C176.33 15.0755 176.376 14.9039 176.453 14.7461C176.609 14.4302 176.882 14.1884 177.215 14.0734C177.548 13.9583 177.913 13.9792 178.23 14.1316C184.337 16.9309 189.775 21.0026 194.18 26.0741C194.413 26.34 194.532 26.6876 194.509 27.0407C194.487 27.3939 194.325 27.7236 194.06 27.9576C193.814 28.1676 193.501 28.2815 193.178 28.2782Z" fill="#688FB7"/>
</svg>
