<svg width="45" height="45" viewBox="0 0 45 45" fill="none" xmlns="http://www.w3.org/2000/svg">
<rect y="1.33594" width="43.4409" height="43.4409" rx="3.11746" fill="#D5DADD"/>
<path d="M1.55957 4C1.55957 1.79086 3.35043 0 5.55957 0H41.0005C43.2096 0 45.0005 1.79086 45.0005 4V39.4409C45.0005 41.65 43.2096 43.4409 41.0005 43.4409H5.55957C3.35043 43.4409 1.55957 41.65 1.55957 39.4409V4Z" fill="white"/>
<path fill-rule="evenodd" clip-rule="evenodd" d="M41.0005 1H5.55957C3.90272 1 2.55957 2.34314 2.55957 4V39.4409C2.55957 41.0977 3.90271 42.4409 5.55957 42.4409H41.0005C42.6573 42.4409 44.0005 41.0977 44.0005 39.4409V4C44.0005 2.34315 42.6573 1 41.0005 1ZM5.55957 0C3.35043 0 1.55957 1.79086 1.55957 4V39.4409C1.55957 41.65 3.35043 43.4409 5.55957 43.4409H41.0005C43.2096 43.4409 45.0005 41.65 45.0005 39.4409V4C45.0005 1.79086 43.2096 0 41.0005 0H5.55957Z" fill="#00144A"/>
<path fill-rule="evenodd" clip-rule="evenodd" d="M6.75754 40.691C5.40476 40.691 4.30811 39.5943 4.30811 38.2415V33.488C5.41268 33.488 6.30811 34.3835 6.30811 35.488V38.2415C6.30811 38.4898 6.50932 38.691 6.75754 38.691H9.51105C10.6156 38.691 11.5111 39.5864 11.5111 40.691H6.75754ZM22.5251 40.691C22.5251 39.5864 21.6297 38.691 20.5251 38.691H15.0181C13.9135 38.691 13.0181 39.5864 13.0181 40.691H22.5251ZM33.5391 40.691C33.5391 39.5864 32.6437 38.691 31.5391 38.691H26.0321C24.9275 38.691 24.0321 39.5864 24.0321 40.691H33.5391ZM42.2491 33.488C41.1445 33.488 40.2491 34.3835 40.2491 35.488V38.2415C40.2491 38.4898 40.0479 38.691 39.7996 38.691H37.0461C35.9416 38.691 35.0461 39.5864 35.0461 40.691H39.7996C41.1524 40.691 42.2491 39.5943 42.2491 38.2415V33.488ZM42.2491 22.474C41.1445 22.474 40.2491 23.3694 40.2491 24.474V29.981C40.2491 31.0856 41.1445 31.981 42.2491 31.981V22.474ZM42.2491 11.46C41.1445 11.46 40.2491 12.3554 40.2491 13.46V18.967C40.2491 20.0715 41.1445 20.967 42.2491 20.967V11.46ZM35.0461 2.75C35.0461 3.85457 35.9416 4.75 37.0461 4.75H39.7996C40.0479 4.75 40.2491 4.95122 40.2491 5.19943V7.95294C40.2491 9.05751 41.1445 9.95294 42.2491 9.95294V5.19943C42.2491 3.84665 41.1524 2.75 39.7996 2.75H35.0461ZM24.0321 2.75C24.0321 3.85457 24.9275 4.75 26.0321 4.75H31.5391C32.6437 4.75 33.5391 3.85457 33.5391 2.75H24.0321ZM13.0181 2.75C13.0181 3.85457 13.9135 4.75 15.0181 4.75H20.5251C21.6297 4.75 22.5251 3.85457 22.5251 2.75H13.0181ZM4.30811 9.95295C5.41268 9.95295 6.30811 9.05752 6.30811 7.95295V5.19944C6.30811 4.95122 6.50933 4.75 6.75754 4.75H9.51105C10.6156 4.75 11.511 3.85457 11.511 2.75H6.75754C5.40475 2.75 4.30811 3.84665 4.30811 5.19944V9.95295ZM4.30811 20.967C5.41268 20.967 6.30811 20.0716 6.30811 18.967V13.46C6.30811 12.3554 5.41268 11.46 4.30811 11.46V20.967ZM4.30811 31.981C5.41268 31.981 6.30811 31.0856 6.30811 29.981V24.474C6.30811 23.3694 5.41268 22.474 4.30811 22.474V31.981Z" fill="#9EDDFF"/>
</svg>
