<svg width="160" height="160" viewBox="0 0 160 160" fill="none" xmlns="http://www.w3.org/2000/svg">
<circle cx="82.1222" cy="79.9991" r="77.8781" fill="#EBF8FF"/>
<path d="M71.6919 32.5955C72.6809 31.6065 72.6809 30.0029 71.6919 29.0138C70.7028 28.0248 69.0992 28.0248 68.1102 29.0138C67.1211 30.0029 67.1211 31.6065 68.1102 32.5955C69.0992 33.5846 70.7028 33.5846 71.6919 32.5955Z" fill="#D1EFFF"/>
<path d="M145.098 69.8018C145.632 69.2673 145.632 68.4007 145.098 67.8662C144.563 67.3317 143.697 67.3317 143.162 67.8662C142.628 68.4007 142.628 69.2673 143.162 69.8018C143.697 70.3363 144.563 70.3363 145.098 69.8018Z" fill="#B8E6FF"/>
<path d="M89.8673 22.3609C90.4334 21.7948 90.4334 20.8771 89.8673 20.311C89.3012 19.7449 88.3835 19.7449 87.8174 20.311C87.2514 20.8771 87.2514 21.7948 87.8174 22.3609C88.3835 22.9269 89.3012 22.9269 89.8673 22.3609Z" fill="#D1EFFF"/>
<path d="M132.016 51.5832C140.833 51.5832 147.981 44.4357 147.981 35.6187C147.981 26.8018 140.833 19.6543 132.016 19.6543C123.199 19.6543 116.052 26.8018 116.052 35.6187C116.052 44.4357 123.199 51.5832 132.016 51.5832Z" fill="#9EDDFF"/>
<path d="M129.066 39.5406C129.011 39.7003 127.796 38.9993 126.636 39.5406C125.257 40.1817 125.117 42.0351 124.813 41.9702C124.464 41.8979 123.972 39.3012 125.354 38.3932C126.846 37.4104 129.143 39.3136 129.066 39.5406Z" fill="#0070F2"/>
<path d="M136.015 27.6312C135.96 27.7908 134.745 27.0924 133.585 27.6312C132.206 28.2748 132.066 30.1256 131.762 30.0633C131.413 29.9884 130.921 27.3917 132.303 26.4838C133.795 25.5035 136.092 27.4067 136.015 27.6312Z" fill="#0070F2"/>
<path d="M140.744 36.8141C140.69 36.9712 139.475 36.2728 138.315 36.8141C136.935 37.4551 136.796 39.3085 136.491 39.2436C136.142 39.1688 135.651 36.5721 137.033 35.6666C138.524 34.6838 140.814 36.5871 140.744 36.8141Z" fill="#0070F2"/>
<path d="M145.388 26.9062C146.34 30.5735 145.957 34.4596 144.307 37.8701C142.656 41.2806 139.847 43.993 136.381 45.5225C132.914 47.052 129.017 47.2988 125.386 46.219C121.754 45.1391 118.625 42.8029 116.558 39.6279C117.139 41.8675 118.2 43.954 119.668 45.7429C121.135 47.5318 122.974 48.9802 125.057 49.988C127.14 50.9958 129.417 51.5388 131.73 51.5794C134.043 51.62 136.338 51.1572 138.455 50.2232C140.572 49.2891 142.46 47.906 143.99 46.1697C145.519 44.4335 146.653 42.3855 147.312 40.1677C147.972 37.9498 148.141 35.6152 147.809 33.3253C147.477 31.0355 146.651 28.8452 145.388 26.9062Z" fill="#0070F2"/>
<path fill-rule="evenodd" clip-rule="evenodd" d="M93.304 10.2136C92.2172 10.206 91.1228 10.2361 90.0227 10.303C89.5582 10.3313 89.1588 9.97772 89.1305 9.51326C89.1022 9.0488 89.4558 8.64936 89.9203 8.62108C91.0575 8.55184 92.19 8.52067 93.3157 8.52853C93.781 8.53178 94.1556 8.91162 94.1524 9.37693C94.1491 9.84224 93.7693 10.2168 93.304 10.2136ZM95.8064 9.44688C95.8431 8.98301 96.2489 8.63675 96.7128 8.67348C97.8495 8.76349 98.977 8.89545 100.093 9.0704C100.553 9.14245 100.867 9.57353 100.795 10.0332C100.723 10.4929 100.292 10.8072 99.8323 10.7351C98.7595 10.567 97.6747 10.44 96.5798 10.3533C96.1159 10.3166 95.7697 9.91075 95.8064 9.44688ZM87.4822 9.66758C87.5401 10.1293 87.2127 10.5505 86.7509 10.6083C85.6708 10.7436 84.5871 10.9132 83.5014 11.1162C83.044 11.2017 82.6039 10.9003 82.5183 10.4429C82.4328 9.98548 82.7343 9.54536 83.1917 9.45982C84.3099 9.25072 85.4271 9.07593 86.5415 8.93632C87.0032 8.87847 87.4244 9.20587 87.4822 9.66758ZM102.419 10.3542C102.528 9.90183 102.983 9.6234 103.435 9.73233C104.543 9.99902 105.636 10.3111 106.714 10.6695C107.155 10.8164 107.394 11.2934 107.247 11.7349C107.101 12.1765 106.624 12.4153 106.182 12.2684C105.151 11.9253 104.103 11.6263 103.041 11.3706C102.588 11.2616 102.31 10.8066 102.419 10.3542ZM80.9007 10.7942C81.0121 11.246 80.7363 11.7026 80.2845 11.8141C79.2255 12.0753 78.1665 12.3676 77.1089 12.6903C76.6639 12.8261 76.193 12.5753 76.0572 12.1303C75.9214 11.6852 76.1721 11.2143 76.6172 11.0786C77.7034 10.7472 78.7918 10.4467 79.8808 10.1781C80.3326 10.0666 80.7892 10.3425 80.9007 10.7942ZM108.793 12.3253C108.978 11.8984 109.475 11.7026 109.902 11.8878C110.943 12.34 111.967 12.8394 112.969 13.3872C113.377 13.6103 113.527 14.1222 113.304 14.5306C113.081 14.9389 112.569 15.089 112.161 14.8659C111.204 14.3428 110.226 13.8657 109.231 13.4336C108.804 13.2484 108.608 12.7522 108.793 12.3253ZM74.4869 12.6548C74.6456 13.0923 74.4196 13.5755 73.9822 13.7342C72.9547 14.1068 71.9304 14.5077 70.9105 14.9361C70.4815 15.1163 69.9877 14.9146 69.8075 14.4856C69.6272 14.0566 69.8289 13.5627 70.2579 13.3825C71.3032 12.9434 72.3536 12.5324 73.4076 12.1501C73.8451 11.9914 74.3283 12.2174 74.4869 12.6548ZM68.2967 15.1639C68.4973 15.5837 68.3196 16.0867 67.8997 16.2873C66.9118 16.7594 65.9297 17.2572 64.9549 17.7802C64.5448 18.0002 64.0341 17.8461 63.8141 17.436C63.5942 17.026 63.7482 16.5153 64.1583 16.2953C65.156 15.7601 66.1615 15.2504 67.1732 14.7669C67.5931 14.5663 68.0961 14.744 68.2967 15.1639ZM114.718 15.3896C114.978 15.0035 115.501 14.9009 115.887 15.1605C116.825 15.7909 117.74 16.4682 118.631 17.1934C118.992 17.4872 119.046 18.0179 118.752 18.3787C118.459 18.7396 117.928 18.794 117.567 18.5002C116.716 17.8074 115.842 17.1607 114.947 16.5589C114.561 16.2993 114.459 15.7758 114.718 15.3896ZM62.3727 18.2524C62.6111 18.652 62.4804 19.1692 62.0808 19.4076C61.139 19.9695 60.2056 20.5549 59.282 21.1634C58.8934 21.4194 58.3709 21.3119 58.1149 20.9233C57.8589 20.5348 57.9664 20.0122 58.355 19.7562C59.2994 19.134 60.254 18.5353 61.2174 17.9605C61.6171 17.7221 62.1343 17.8528 62.3727 18.2524ZM119.987 19.4799C120.312 19.1467 120.845 19.1399 121.178 19.4648C121.982 20.2482 122.761 21.0759 123.514 21.9487C123.818 22.3009 123.779 22.833 123.427 23.137C123.074 23.441 122.542 23.4018 122.238 23.0495C121.516 22.2131 120.77 21.4207 120.002 20.6713C119.669 20.3465 119.662 19.813 119.987 19.4799ZM56.7522 21.8649C57.025 22.2418 56.9406 22.7686 56.5636 23.0414C55.6751 23.6845 54.7973 24.3493 53.9316 25.0352C53.5669 25.3242 53.0369 25.2628 52.748 24.8981C52.459 24.5334 52.5204 24.0034 52.8851 23.7145C53.77 23.0134 54.6673 22.3338 55.5756 21.6764C55.9526 21.4035 56.4793 21.4879 56.7522 21.8649ZM124.454 24.4326C124.83 24.1583 125.357 24.2408 125.631 24.6167C125.966 25.076 126.294 25.5457 126.617 26.0259C126.876 26.4123 126.773 26.9357 126.386 27.1949C126 27.4541 125.476 27.351 125.217 26.9645C124.907 26.5026 124.591 26.051 124.269 25.6098C123.995 25.2338 124.078 24.7068 124.454 24.4326ZM51.4737 25.9534C51.7781 26.3053 51.7397 26.8374 51.3878 27.1419C50.5575 27.8604 49.7402 28.5989 48.9371 29.3568C48.5987 29.6762 48.0654 29.6608 47.746 29.3224C47.4267 28.984 47.4421 28.4508 47.7805 28.1314C48.6012 27.3567 49.4366 26.6019 50.2852 25.8676C50.6371 25.5631 51.1692 25.6016 51.4737 25.9534ZM46.5669 30.4845C46.9007 30.8088 46.9084 31.3422 46.5841 31.6759C45.8184 32.4639 45.068 33.2705 44.3338 34.095C44.0244 34.4425 43.4918 34.4734 43.1443 34.164C42.7968 33.8545 42.7659 33.322 43.0753 32.9744C43.8258 32.1316 44.5929 31.3071 45.3755 30.5017C45.6998 30.1679 46.2332 30.1602 46.5669 30.4845ZM42.0703 35.4247C42.431 35.7186 42.4853 36.2493 42.1914 36.6101C41.4972 37.4622 40.8203 38.3314 40.1618 39.2171C39.8842 39.5905 39.3564 39.6682 38.983 39.3906C38.6096 39.113 38.5319 38.5852 38.8095 38.2118C39.483 37.3059 40.1752 36.417 40.8849 35.5458C41.1788 35.185 41.7095 35.1308 42.0703 35.4247ZM38.0255 40.7404C38.411 41.001 38.5123 41.5248 38.2517 41.9103C37.6367 42.82 37.0409 43.7454 36.4655 44.686C36.2226 45.0829 35.704 45.2079 35.3071 44.965C34.9102 44.7222 34.7852 44.2036 35.0281 43.8066C35.617 42.844 36.2265 41.8972 36.8557 40.9665C37.1163 40.581 37.64 40.4798 38.0255 40.7404ZM34.4761 46.396C34.8838 46.6203 35.0325 47.1326 34.8082 47.5403C34.5428 48.0226 34.2828 48.5085 34.0282 48.998C33.8134 49.4108 33.3047 49.5714 32.8919 49.3567C32.4791 49.1419 32.3185 48.6332 32.5332 48.2204C32.7939 47.7192 33.0602 47.2218 33.3318 46.7281C33.5561 46.3204 34.0684 46.1717 34.4761 46.396Z" fill="#A9B4BE"/>
<path d="M30.0751 85.481C42.0764 85.481 51.8054 75.2455 51.8054 62.6194C51.8054 49.9933 42.0764 39.7578 30.0751 39.7578C18.0737 39.7578 8.34473 49.9933 8.34473 62.6194C8.34473 75.2455 18.0737 85.481 30.0751 85.481Z" fill="#F58B00"/>
<path d="M26.5794 62.5645H25.2132C25.0258 62.5645 24.8462 62.6428 24.7137 62.7821C24.5812 62.9215 24.5068 63.1105 24.5068 63.3076C24.5068 63.5047 24.5812 63.6937 24.7137 63.833C24.8462 63.9724 25.0258 64.0507 25.2132 64.0507H26.5794C26.7668 64.0507 26.9464 63.9724 27.0789 63.833C27.2114 63.6937 27.2858 63.5047 27.2858 63.3076C27.2858 63.1105 27.2114 62.9215 27.0789 62.7821C26.9464 62.6428 26.7668 62.5645 26.5794 62.5645Z" fill="#CC7400"/>
<path d="M43.5659 52.3252C43.5659 52.4227 43.5842 52.5193 43.6197 52.6094C43.6552 52.6995 43.7073 52.7813 43.7729 52.8502C43.8385 52.9191 43.9164 52.9737 44.002 53.0108C44.0877 53.048 44.1796 53.0671 44.2723 53.0669H49.8207C49.5993 52.5619 49.3611 52.067 49.1061 51.5821H44.2791C44.1857 51.5809 44.0931 51.5993 44.0065 51.6362C43.9199 51.673 43.8411 51.7276 43.7748 51.7967C43.7084 51.8659 43.6558 51.9482 43.62 52.0389C43.5841 52.1297 43.5657 52.227 43.5659 52.3252Z" fill="#CC7400"/>
<path d="M39.5589 53.0702H40.9251C41.1125 53.0702 41.2921 52.9919 41.4246 52.8526C41.5571 52.7132 41.6315 52.5242 41.6315 52.3271C41.6315 52.13 41.5571 51.941 41.4246 51.8016C41.2921 51.6623 41.1125 51.584 40.9251 51.584H39.5589C39.3715 51.584 39.1919 51.6623 39.0594 51.8016C38.9269 51.941 38.8525 52.13 38.8525 52.3271C38.8525 52.5242 38.9269 52.7132 39.0594 52.8526C39.1919 52.9919 39.3715 53.0702 39.5589 53.0702Z" fill="#CC7400"/>
<path d="M44.1176 70.9235C43.9589 71.2376 43.7279 71.5049 43.4458 71.701C43.1638 71.8971 42.8395 72.0157 42.5026 72.0461L41.1364 72.1712C40.9707 72.1681 40.8091 72.2249 40.6785 72.3322C40.5479 72.4395 40.4563 72.5907 40.4191 72.7605C40.3973 72.8688 40.3988 72.9808 40.4235 73.0884C40.4481 73.196 40.4953 73.2964 40.5615 73.3824C40.6278 73.4683 40.7114 73.5376 40.8064 73.5852C40.9014 73.6328 41.0052 73.6575 41.1104 73.6574H49.1153C49.7122 72.5156 50.215 71.322 50.6182 70.0898H45.4374C45.1695 70.1055 44.9094 70.1896 44.6794 70.3349C44.4494 70.4802 44.2566 70.6822 44.1176 70.9235Z" fill="#CC7400"/>
<path fill-rule="evenodd" clip-rule="evenodd" d="M16.3984 76.4931C21.3323 75.4908 27.2772 73.49 33.447 70.6057C41.0215 67.0655 47.4293 62.8956 51.5486 59.0938C51.6378 59.7051 51.7043 60.3242 51.748 60.9509C47.1957 64.6406 40.9901 68.4799 33.8637 71.8103C29.8653 73.6795 25.9482 75.2151 22.2812 76.394C22.2818 76.3945 22.2825 76.3949 22.2832 76.3953C20.4535 76.9918 18.6024 77.5114 16.7341 77.9531C16.3085 78.0542 15.8883 78.1494 15.4739 78.2386C15.1169 78.316 14.7594 78.3906 14.4012 78.4623C14.1954 78.2361 13.9941 78.0067 13.7973 77.7738L13.7727 77.7436C13.5742 77.5078 13.3815 77.2683 13.1948 77.0249C13.1966 77.0246 13.1985 77.0244 13.2003 77.0242C13.1994 77.023 13.1985 77.0219 13.1977 77.0208C13.3323 77.0044 13.468 76.9869 13.6047 76.9686C14.54 76.8363 15.4716 76.6777 16.3984 76.4931Z" fill="#CC7400"/>
<path fill-rule="evenodd" clip-rule="evenodd" d="M22.3668 62.7817C22.499 62.9208 22.5733 63.1094 22.5733 63.3061C22.5736 63.5021 22.5003 63.6903 22.3692 63.8295C22.2381 63.9687 22.06 64.0477 21.8737 64.0493H13.0852H8.38465C8.35732 63.5778 8.34229 63.102 8.34229 62.622V62.5645H8.34704H12.6753H21.8683C22.0552 62.5645 22.2345 62.6426 22.3668 62.7817Z" fill="#CC7400"/>
<rect x="29.0122" y="68.4316" width="21.3526" height="2.51203" rx="1.25601" fill="#CC7400"/>
<path fill-rule="evenodd" clip-rule="evenodd" d="M12.1794 54.2118C12.1795 54.2109 12.1796 54.2099 12.1797 54.209H9.85706L9.81196 54.3326C9.75185 54.495 9.69309 54.6574 9.63708 54.8213C9.63247 54.8346 9.62786 54.8479 9.62326 54.8612C9.60606 54.9107 9.58904 54.9597 9.57287 55.0096C9.53409 55.1249 9.49694 55.2428 9.46009 55.3598C9.42942 55.4571 9.39896 55.5538 9.36793 55.6478C9.35919 55.6745 9.35157 55.7017 9.344 55.7288C9.33973 55.7441 9.33547 55.7593 9.33104 55.7743C9.27502 55.9612 9.22175 56.148 9.16983 56.3377L9.12473 56.5045C9.06598 56.7316 9.0086 56.9601 8.95532 57.1901L8.94711 57.2246C8.89519 57.4474 8.84877 57.6716 8.80368 57.8959L8.77496 58.0396C8.68342 58.5183 8.60418 59.0027 8.54133 59.4914L8.52496 59.6121C8.4949 59.8565 8.46756 60.1023 8.44434 60.3495L8.45017 60.3495C8.45013 60.35 8.45008 60.3504 8.45004 60.3509H25.9026L45.4101 60.4055H51.6949C51.6028 59.3923 51.4462 58.3868 51.2262 57.3956H39.2237C38.9874 57.3956 38.7608 57.4944 38.5938 57.6701C38.4267 57.8459 38.3328 58.0842 38.3328 58.3328C38.3328 58.4561 38.3098 58.5781 38.2649 58.692C38.2201 58.8059 38.1544 58.9093 38.0715 58.9965C37.9887 59.0837 37.8904 59.1528 37.7821 59.2C37.6739 59.2471 37.5578 59.2714 37.4407 59.2714H30.0697C29.251 59.271 28.466 58.9286 27.8872 58.3195C27.3085 57.7103 26.9833 56.8842 26.9833 56.0229V55.149C26.9833 55.0258 26.9603 54.9038 26.9154 54.79C26.8706 54.6762 26.8048 54.5729 26.722 54.4858C26.6391 54.3988 26.5407 54.3298 26.4325 54.2828C26.3243 54.2357 26.2083 54.2116 26.0912 54.2118H12.1794Z" fill="#CC7400"/>
<path d="M45.3006 56.9735C45.3006 68.1699 36.6731 77.2465 26.0307 77.2465C18.2493 77.2465 11.5452 72.3942 8.50293 65.4087C9.81053 76.7193 18.9693 85.4813 30.0732 85.4813C42.0745 85.4813 51.8036 75.2458 51.8036 62.6197C51.8036 53.159 46.3412 45.0405 38.5535 41.5645C42.6832 45.2827 45.3006 50.8065 45.3006 56.9735Z" fill="#CC7400"/>
<path fill-rule="evenodd" clip-rule="evenodd" d="M59.5346 48.8214C58.3282 45.9639 53.0435 45.3717 45.7354 46.7774C46.1589 47.2403 46.5629 47.7194 46.9472 48.2148C51.8986 47.6068 55.3675 48.2738 56.2542 50.3709C57.1409 52.468 55.2882 55.6246 51.5433 59.0829C51.5439 59.0866 51.5444 59.0903 51.545 59.094C47.4257 62.8956 41.0184 67.0651 33.4445 70.605C27.2737 73.4897 21.3278 75.4907 16.3933 76.4929C15.4677 76.6772 14.5373 76.8355 13.6032 76.9677C13.4661 76.9861 13.3301 77.0036 13.1952 77.0201L13.1953 77.0202C8.24446 77.6266 4.77591 76.9596 3.88789 74.8597C3.00119 72.7597 4.8552 69.6046 8.60012 66.1477C8.50448 65.5009 8.43571 64.846 8.39381 64.1828C2.4137 68.9923 -0.779249 73.5647 0.438088 76.4452C1.65508 79.3249 7.00671 79.8946 14.3962 78.4587C14.3971 78.4597 14.3979 78.4606 14.3988 78.4615C14.7594 78.3893 15.1195 78.3142 15.479 78.2362C15.8876 78.1482 16.3017 78.0544 16.7211 77.9548C18.5929 77.5126 20.4476 76.9922 22.2807 76.3946L22.2787 76.3933C25.9457 75.2144 29.8628 73.6788 33.8612 71.8096C40.9876 68.4791 47.1931 64.6399 51.7455 60.9501C51.7453 60.9462 51.745 60.9423 51.7447 60.9384C57.6197 56.1885 60.7408 51.6714 59.5346 48.8214Z" fill="#D5DADD"/>
<circle cx="101.036" cy="110.6" r="39.6548" fill="#9EDDFF"/>
<path d="M138.837 118.334C138.704 118.086 138.081 116.989 137.079 116.901C136.289 116.831 135.631 117.341 134.755 118.447C132.418 121.394 132.327 122.133 132.972 124.06C133.07 124.375 133.272 124.649 133.545 124.835C133.822 125.012 134.146 125.101 134.475 125.091C135.669 125.123 136.923 124.27 137.219 124.062C137.42 123.924 137.607 123.767 137.778 123.593C139.439 121.895 138.984 119.1 138.837 118.334Z" fill="#004DA5"/>
<path d="M98.2154 105.351C97.2906 105.369 96.3679 105.444 95.4526 105.578C95.0235 105.648 94.5906 105.693 94.1561 105.711C93.5996 105.656 93.0535 105.524 92.5338 105.317C91.8683 105.054 91.166 104.895 90.4521 104.848C89.71 104.848 88.7619 105.151 88.4564 106.695C88.3679 106.998 88.3508 107.318 88.4067 107.629C88.4627 107.94 88.5897 108.234 88.7777 108.488C89.1986 108.998 89.943 109.245 90.9838 109.245C91.5722 109.232 92.1593 109.184 92.7419 109.1C93.015 109.059 93.2888 109.032 93.5633 109.019C93.9027 109.019 94.0679 109.161 94.4231 109.506C94.929 110.057 95.568 110.469 96.2785 110.701L96.5048 110.778C97.6823 111.227 98.92 111.498 100.177 111.582H100.193C100.568 111.611 100.945 111.558 101.297 111.426C101.65 111.296 101.969 111.09 102.232 110.821C102.482 110.484 102.656 110.098 102.743 109.687C102.827 109.275 102.819 108.849 102.72 108.441C102.422 106.378 100.91 105.351 98.2154 105.351Z" fill="#004DA5"/>
<path d="M121.347 122.216C119.912 122.222 118.488 122.462 117.13 122.925C116.663 123.1 116.174 123.208 115.677 123.247C115.352 123.245 115.035 123.141 114.772 122.95C114.249 122.515 113.858 121.943 113.641 121.297C113.152 120.209 112.545 118.852 110.473 118.852H110.02C109.151 118.854 108.29 118.684 107.486 118.351C106.685 118.017 105.958 117.527 105.348 116.909C105.05 116.592 104.689 116.341 104.289 116.172C103.888 116.004 103.456 115.921 103.022 115.93C102.345 115.958 101.675 116.074 101.028 116.276C100.549 116.426 100.054 116.518 99.5532 116.551C98.842 116.517 98.1502 116.308 97.5394 115.941C96.9299 115.576 96.4187 115.067 96.0506 114.458C95.9035 114.157 95.5053 113.37 94.7609 113.37C94.1703 113.37 93.6295 113.835 92.8557 114.975C92.738 115.172 92.6294 115.342 92.5299 115.494C92.3734 115.768 92.1891 116.025 91.98 116.261C91.5358 115.89 91.1491 115.455 90.8329 114.971C90.5772 114.628 90.3328 114.302 90.1065 113.985C88.7082 112.126 87.7217 110.752 86.6333 110.233C86.2856 110.065 85.9265 109.922 85.5586 109.805C84.8368 109.578 84.3073 109.385 83.9996 108.769C83.8979 108.504 83.8435 108.223 83.8389 107.939C83.7416 106.715 83.4249 105.618 80.6712 105.618C79.748 105.618 79.1394 105.425 78.9651 105.099C78.7389 104.645 79.0579 103.738 79.9562 102.399C80.6508 101.295 81.436 100.778 82.2189 100.778C82.8682 100.778 83.5765 101.154 84.3322 101.911C85.4794 103.056 86.6175 103.636 87.7126 103.636C88.1896 103.625 88.6594 103.517 89.0929 103.317C89.5228 103.118 89.9077 102.833 90.2242 102.48C91.4438 101.283 92.057 100.05 92.6543 97.6565C93.2765 95.1629 94.383 92.2568 97.4059 91.7377C98.0847 91.6244 98.7635 91.5359 99.3948 91.4475C102.062 91.0803 104.176 90.7834 105.214 89.2283C106.699 87.0045 107.425 83.3979 104.576 80.553C103.061 78.9492 100.98 78.0023 98.7771 77.9144C97.7492 77.9326 96.7385 78.182 95.8198 78.6443C94.9024 79.1059 94.1011 79.7692 93.4757 80.5848C91.9506 82.4141 90.7604 83.6314 89.8735 83.6314C89.3309 83.5587 88.8385 83.2754 88.5023 82.8426C88.2515 82.5416 88.0706 82.1885 87.9728 81.8089C87.876 81.4284 87.866 81.0309 87.9434 80.646C88.0098 80.1916 88.1861 79.7605 88.4571 79.3901C88.7285 79.0184 89.0866 78.7187 89.5001 78.5174C90.2731 78.216 91.1024 78.0868 91.9303 78.1388C93.5435 78.1026 95.3763 78.0663 96.6004 76.0284C97.2294 74.9834 97.3788 74.0449 97.0529 73.2356C96.8603 72.8431 96.5865 72.4962 96.2497 72.2178C95.9136 71.9374 95.4723 71.5604 95.0508 71.4434H94.8449C88.3348 72.3509 82.2101 75.0688 76.9491 79.0161C71.6938 82.9533 67.5255 88.166 64.837 94.1632C64.7601 94.3196 62.8956 98.0917 63.5088 100.538C63.8586 101.781 64.5978 102.879 65.6176 103.67C66.6385 104.463 67.8855 104.909 69.1768 104.942C71.3422 104.942 72.8107 105.461 73.8492 108.052C75.0032 110.933 77.7976 112.751 79.8747 113.441C80.1598 113.534 80.4449 113.613 80.7255 113.69C82.0989 114.073 83.2823 114.399 84.1467 116.567C84.413 117.385 84.9451 118.09 85.6581 118.57C86.3762 119.047 87.2317 119.271 88.0905 119.207H89.3666C89.8712 119.232 90.5613 119.275 90.7582 119.631C90.8713 119.844 91.0116 120.538 89.921 122.435C87.5135 126.643 88.1109 128.536 89.3259 130.938C90.0229 132.353 91.043 133.583 92.3036 134.529C93.5716 135.475 95.0446 136.107 96.6027 136.374C96.9354 136.402 97.2563 136.511 97.5371 136.692C97.8203 136.871 98.0538 137.119 98.216 137.413C98.854 138.671 98.216 140.874 97.381 142.52C96.9855 143.293 96.5157 144.026 95.9782 144.707C95.4442 145.428 95.0233 145.984 95.0233 146.781C95.077 147.746 95.2833 148.695 95.6342 149.595L95.7496 149.878L96.0551 149.917C97.5167 150.086 99.0663 150.257 100.538 150.254C101.216 150.254 101.87 150.238 102.524 150.234L104.357 150.139L102.658 149.166C102.621 149.148 101.818 148.688 101.818 146.806C101.818 146.222 103.002 145.596 106.319 145.596H107.647C108.236 145.551 108.784 145.278 109.174 144.834L109.443 144.501C110.647 142.994 113.546 139.46 114.801 138.625C115.357 138.27 115.969 138.011 116.611 137.859C117.697 137.619 118.689 137.068 119.467 136.272C119.852 135.903 120.159 135.461 120.372 134.971C120.585 134.48 120.697 133.951 120.702 133.416C120.704 132.778 120.884 132.154 121.223 131.614C121.673 131.018 122.246 130.526 122.904 130.172C123.766 129.655 124.805 128.996 125.323 127.581C126.04 125.67 126.124 124.467 125.483 123.555C124.843 122.644 123.558 122.216 121.347 122.216Z" fill="#004DA5"/>
<path d="M102.572 75.8793C103.327 76.1121 104.115 76.2178 104.905 76.1921C105.403 76.1921 105.71 76.1921 105.837 76.3236C106.016 76.5707 106.147 76.849 106.224 77.1442C106.487 77.8719 106.81 78.7696 107.711 79.2025C108.445 79.5029 109.235 79.6457 110.028 79.6219C110.743 79.6219 112.517 79.5199 113.521 78.5519C115.574 76.5752 112.638 72.8407 112.509 72.6911L112.413 72.58L112.266 72.5347C108.553 71.3714 104.513 70.9174 100.622 70.9466H99.7891L99.8886 71.5315C99.9565 71.91 100.595 75.2446 102.572 75.8793Z" fill="#004DA5"/>
<path d="M135.684 102.037C136.872 99.7699 136.722 97.308 135.267 94.9369C132.527 90.4894 125.972 87.5039 121.565 87.5039C118.815 87.5039 116.958 88.6079 116.329 90.5959C115.788 92.2096 115.654 93.9322 115.94 95.6102C116.225 97.2905 116.919 98.8743 117.962 100.221C120.451 103.567 124.827 105.816 128.862 105.816C132 105.816 134.417 104.474 135.684 102.037Z" fill="#004DA5"/>
<path fill-rule="evenodd" clip-rule="evenodd" d="M126.257 79.9976C119.403 74.3424 110.616 70.9453 101.036 70.9453C79.1354 70.9453 61.3813 88.6994 61.3813 110.6C61.3813 132.501 79.1354 150.255 101.036 150.255C117.462 150.255 131.555 140.268 137.575 126.036C131.555 140.268 117.462 150.255 101.036 150.255C85.3063 150.255 71.7154 141.096 65.3055 127.82C72.1596 133.475 80.946 136.872 90.5257 136.872C112.426 136.872 130.181 119.118 130.181 97.2174C130.181 91.0469 128.771 85.2055 126.257 79.9976Z" fill="#D1EFFF"/>
<path fill-rule="evenodd" clip-rule="evenodd" d="M129.486 89.7876C126.834 88.3405 123.899 87.5039 121.566 87.5039C118.817 87.5039 116.959 88.6079 116.33 90.5959C115.79 92.2096 115.656 93.9322 115.941 95.6102C116.226 97.2905 116.921 98.8743 117.964 100.221C120.453 103.567 124.829 105.816 128.863 105.816C128.993 105.816 129.121 105.813 129.248 105.809C129.859 103.042 130.181 100.167 130.181 97.2172C130.181 94.6779 129.943 92.1943 129.486 89.7876Z" fill="#00A58A"/>
<path fill-rule="evenodd" clip-rule="evenodd" d="M121.311 122.216C119.888 122.227 118.477 122.466 117.13 122.925C116.663 123.1 116.174 123.208 115.677 123.247C115.352 123.245 115.035 123.141 114.772 122.95C114.249 122.515 113.858 121.943 113.641 121.297L113.638 121.292C113.15 120.205 112.542 118.852 110.473 118.852H110.02C109.151 118.854 108.29 118.684 107.486 118.351C106.685 118.017 105.958 117.527 105.348 116.909C105.05 116.592 104.689 116.341 104.289 116.172C103.888 116.004 103.456 115.921 103.022 115.93C102.345 115.958 101.675 116.074 101.028 116.276C100.549 116.426 100.054 116.518 99.5532 116.551C98.842 116.517 98.1502 116.308 97.5394 115.941C96.9299 115.576 96.4187 115.067 96.0506 114.458C95.9035 114.157 95.5053 113.37 94.7609 113.37C94.1703 113.37 93.6295 113.835 92.8557 114.975C92.738 115.172 92.6294 115.342 92.5299 115.494C92.3734 115.768 92.1891 116.025 91.98 116.261C91.5358 115.89 91.1491 115.455 90.8329 114.971L90.7976 114.923C90.5547 114.598 90.3224 114.287 90.1065 113.985C90.0224 113.873 89.9397 113.763 89.8584 113.654C88.5891 111.964 87.6562 110.721 86.6333 110.233C86.2856 110.065 85.9265 109.922 85.5586 109.805C84.8368 109.578 84.3073 109.385 83.9996 108.769C83.8979 108.504 83.8435 108.223 83.8389 107.939C83.7416 106.715 83.4249 105.618 80.6712 105.618C79.748 105.618 79.1394 105.425 78.9651 105.099C78.7389 104.645 79.0579 103.738 79.9562 102.399C80.6508 101.295 81.436 100.778 82.2189 100.778C82.8682 100.778 83.5765 101.154 84.3322 101.911C85.4794 103.056 86.6175 103.636 87.7126 103.636C88.1896 103.625 88.6594 103.517 89.0929 103.317C89.5228 103.118 89.9077 102.833 90.2242 102.48C91.4438 101.283 92.057 100.05 92.6543 97.6565C93.2765 95.1629 94.383 92.2568 97.4059 91.7377C97.9435 91.6479 98.4811 91.5738 98.9951 91.5029C99.1301 91.4843 99.2635 91.4659 99.3948 91.4475C102.062 91.0803 104.176 90.7834 105.214 89.2283C106.699 87.0045 107.425 83.3979 104.576 80.553C103.061 78.9492 100.98 78.0023 98.7771 77.9144C97.7492 77.9326 96.7385 78.182 95.8198 78.6443C94.9024 79.1059 94.1011 79.7692 93.4757 80.5848C91.9506 82.4141 90.7604 83.6314 89.8735 83.6314C89.3309 83.5587 88.8385 83.2754 88.5023 82.8426C88.2515 82.5416 88.0706 82.1885 87.9728 81.8089C87.876 81.4284 87.866 81.0309 87.9434 80.646C88.0098 80.1916 88.1861 79.7605 88.4571 79.3901C88.7285 79.0184 89.0866 78.7187 89.5001 78.5174C90.2731 78.216 91.1024 78.0868 91.9303 78.1388L91.9421 78.1386C93.5525 78.1024 95.3793 78.0613 96.6004 76.0284C97.2294 74.9834 97.3788 74.0449 97.0529 73.2356C96.8603 72.8431 96.5865 72.4962 96.2497 72.2178C96.2381 72.2081 96.2264 72.1984 96.2146 72.1885C95.8832 71.9117 95.4578 71.5563 95.0508 71.4434H94.8449C88.3348 72.3509 82.2101 75.0688 76.9491 79.0161C71.6938 82.9533 67.5255 88.166 64.837 94.1632L64.8358 94.1656C64.7432 94.3539 62.8984 98.1028 63.5088 100.538C63.8586 101.781 64.5978 102.879 65.6176 103.67C66.6385 104.463 67.8855 104.909 69.1768 104.942C71.3422 104.942 72.8107 105.461 73.8492 108.052C75.0032 110.933 77.7976 112.751 79.8747 113.441C80.1598 113.534 80.4449 113.613 80.7255 113.69L80.7333 113.692C82.1034 114.074 83.2839 114.404 84.1467 116.567C84.413 117.385 84.9451 118.09 85.6581 118.57C86.3762 119.047 87.2317 119.271 88.0905 119.207H89.3666C89.8712 119.232 90.5613 119.275 90.7582 119.631C90.8713 119.844 91.0116 120.538 89.921 122.435C87.5135 126.643 88.1109 128.536 89.3259 130.938C90.0229 132.353 91.043 133.583 92.3036 134.529C93.5716 135.475 95.0446 136.107 96.6027 136.374C96.6458 136.378 96.6886 136.383 96.7313 136.389C106.608 134.837 115.275 129.639 121.311 122.216ZM98.999 150.203C99.5166 150.236 100.032 150.255 100.538 150.254C100.627 150.254 100.716 150.254 100.805 150.253C100.2 150.25 99.5975 150.233 98.999 150.203ZM102.23 150.237C102.328 150.235 102.426 150.234 102.524 150.234L104.357 150.139L104.324 150.12C103.631 150.177 102.933 150.216 102.23 150.237Z" fill="#00A58A"/>
<path d="M98.2158 105.351C97.2911 105.369 96.3684 105.444 95.4531 105.578C95.024 105.648 94.5911 105.693 94.1566 105.711C93.6001 105.656 93.054 105.524 92.5343 105.317C91.8688 105.054 91.1665 104.895 90.4526 104.848C89.7104 104.848 88.7624 105.151 88.4569 106.695C88.3684 106.998 88.3513 107.318 88.4071 107.629C88.4632 107.94 88.5902 108.234 88.7782 108.488C89.1991 108.998 89.9435 109.245 90.9843 109.245C91.5727 109.232 92.1598 109.184 92.7424 109.1C93.0155 109.059 93.2892 109.032 93.5638 109.019C93.9032 109.019 94.0684 109.161 94.4236 109.506C94.9295 110.057 95.5685 110.469 96.279 110.701L96.5053 110.778C97.6828 111.227 98.9205 111.498 100.178 111.582H100.193C100.568 111.611 100.945 111.558 101.298 111.426C101.65 111.296 101.969 111.09 102.232 110.821C102.482 110.484 102.657 110.098 102.743 109.687C102.828 109.275 102.82 108.849 102.721 108.441C102.422 106.378 100.911 105.351 98.2158 105.351Z" fill="#00A58A"/>
<path d="M102.573 75.8793C103.328 76.1121 104.116 76.2178 104.905 76.1921C105.403 76.1921 105.711 76.1921 105.838 76.3236C106.016 76.5707 106.148 76.849 106.225 77.1442C106.487 77.8719 106.811 78.7696 107.711 79.2025C108.446 79.5029 109.235 79.6457 110.028 79.6219C110.743 79.6219 112.517 79.5199 113.522 78.5519C115.574 76.5752 112.638 72.8407 112.509 72.6911L112.414 72.58L112.267 72.5347C108.553 71.3714 104.513 70.9174 100.622 70.9466H99.7896L99.8891 71.5315C99.957 71.91 100.595 75.2446 102.573 75.8793Z" fill="#00A58A"/>
<path d="M23.3715 107.714L23.3208 107.746C22.4576 108.344 21.8808 109.238 21.7162 110.235C21.5515 111.231 21.8124 112.249 22.4419 113.065C23.0697 113.879 24.0135 114.428 25.0686 114.592C26.1237 114.755 27.2049 114.521 28.0774 113.939C28.1028 113.924 28.1263 113.906 28.1474 113.885L47.1062 95.7687C47.1791 95.6894 47.2205 95.5888 47.2235 95.484C47.2264 95.3792 47.1908 95.2767 47.1226 95.1938C47.0543 95.1109 46.9578 95.0527 46.8492 95.0292C46.7406 95.0056 46.6267 95.0182 46.5268 95.0646L23.3715 107.714Z" fill="#B8E6FF"/>
<path d="M26.014 113.16C27.4995 113.16 28.7038 112.027 28.7038 110.63C28.7038 109.232 27.4995 108.1 26.014 108.1C24.5285 108.1 23.3242 109.232 23.3242 110.63C23.3242 112.027 24.5285 113.16 26.014 113.16Z" fill="#EBF8FF"/>
<path d="M38.8586 110.382L38.8296 110.412C38.3602 110.937 38.1304 111.615 38.1906 112.298C38.2507 112.982 38.5959 113.615 39.1508 114.06C39.7033 114.5 40.4177 114.719 41.1401 114.67C41.8626 114.62 42.5355 114.305 43.014 113.794L43.0502 113.746L52.5127 98.9257C52.5545 98.8624 52.5701 98.7869 52.5566 98.7135C52.5431 98.6401 52.5015 98.5739 52.4396 98.5274C52.3777 98.4809 52.2998 98.4574 52.2208 98.4614C52.1417 98.4653 52.0669 98.4963 52.0105 98.5486L38.8586 110.382Z" fill="#B8E6FF"/>
<path d="M41.0968 113.637C42.1076 113.637 42.927 112.866 42.927 111.915C42.927 110.964 42.1076 110.193 41.0968 110.193C40.086 110.193 39.2666 110.964 39.2666 111.915C39.2666 112.866 40.086 113.637 41.0968 113.637Z" fill="#EBF8FF"/>
<path fill-rule="evenodd" clip-rule="evenodd" d="M52.4801 43.8115C52.5033 44.5866 51.8937 45.2339 51.1185 45.2571C49.5752 45.3032 48.0582 45.5331 46.5953 45.9352C45.8475 46.1408 45.0747 45.7012 44.8692 44.9534C44.6636 44.2056 45.1032 43.4327 45.851 43.2272C47.5287 42.7661 49.2674 42.5027 51.0345 42.4499C51.8097 42.4267 52.4569 43.0363 52.4801 43.8115ZM54.5943 43.9985C54.7509 43.239 55.4936 42.7502 56.2531 42.9068C57.9198 43.2505 59.5813 43.7864 61.2116 44.5233C61.9183 44.8428 62.2322 45.6746 61.9128 46.3813C61.5933 47.088 60.7615 47.4019 60.0548 47.0825C58.6119 46.4303 57.1481 45.9589 55.686 45.6574C54.9264 45.5008 54.4376 44.7581 54.5943 43.9985ZM42.9062 45.7558C43.2834 46.4335 43.0398 47.2886 42.3622 47.6657C41.0369 48.4034 39.7929 49.302 38.6582 50.3508C38.0887 50.8772 37.2003 50.8423 36.6739 50.2728C36.1475 49.7032 36.1824 48.8148 36.7519 48.2884C38.051 47.0877 39.4765 46.0577 40.9963 45.2118C41.674 44.8346 42.5291 45.0782 42.9062 45.7558ZM63.7404 47.4522C64.1954 46.8242 65.0733 46.6839 65.7014 47.1389C67.0471 48.1139 68.3489 49.2453 69.5909 50.5378C70.1282 51.097 70.1105 51.986 69.5513 52.5233C68.992 53.0606 68.1031 53.0429 67.5658 52.4837C66.4361 51.308 65.26 50.2873 64.0536 49.4132C63.4256 48.9582 63.2853 48.0803 63.7404 47.4522ZM35.2973 51.8849C35.9408 52.3177 36.1117 53.1902 35.6789 53.8337C35.2556 54.4631 34.8626 55.1242 34.5029 55.8158C34.145 56.5039 33.2971 56.7715 32.6091 56.4137C31.9211 56.0558 31.6534 55.208 32.0113 54.5199C32.4194 53.7351 32.8662 52.9835 33.3484 52.2665C33.7812 51.6229 34.6538 51.4521 35.2973 51.8849ZM70.8858 54.1595C71.5203 53.7135 72.3962 53.8664 72.8421 54.5008C73.7795 55.8344 74.6642 57.2835 75.4874 58.8511C75.8479 59.5377 75.5836 60.3867 74.897 60.7472C74.2104 61.1078 73.3615 60.8435 73.0009 60.1569C72.2316 58.6918 71.4094 57.3464 70.5445 56.1158C70.0985 55.4813 70.2513 54.6054 70.8858 54.1595ZM75.7732 62.6811C76.495 62.3974 77.3101 62.7525 77.5938 63.4743C78.1845 64.9769 78.726 66.5653 79.2131 68.2412C79.4296 68.9859 79.0013 69.765 78.2566 69.9815C77.5119 70.198 76.7327 69.7697 76.5163 69.025C76.0521 67.4281 75.538 65.9212 74.9801 64.5017C74.6963 63.7799 75.0515 62.9648 75.7732 62.6811ZM78.7665 72.0538C79.5258 71.8964 80.2691 72.3844 80.4265 73.1438C80.7528 74.7182 81.0359 76.3582 81.2723 78.0651C81.3788 78.8333 80.8423 79.5423 80.0741 79.6487C79.3059 79.7551 78.5969 79.2186 78.4905 78.4504C78.2623 76.8031 77.9897 75.2247 77.6765 73.7138C77.5191 72.9544 78.0071 72.2112 78.7665 72.0538ZM80.299 81.7404C81.0721 81.6787 81.7488 82.2553 81.8106 83.0284C81.8766 83.855 81.9325 84.6955 81.978 85.5501C82.0193 86.3245 81.4249 86.9857 80.6505 87.027C79.876 87.0682 79.2148 86.4739 79.1736 85.6994C79.1293 84.8693 79.0751 84.0535 79.011 83.252C78.9493 82.4789 79.5259 81.8022 80.299 81.7404Z" fill="#A9B4BE"/>
<path d="M93.9969 39.3301C85.9371 39.3301 81.6943 46.1453 81.6943 53.6388C81.6943 61.6515 89.6529 72.3152 93.024 76.4727C93.8454 77.4857 95.2959 77.6279 96.2821 76.7745C100.365 73.2406 110.067 63.7779 110.067 53.6389C110.067 44.6587 102.057 39.3301 93.9969 39.3301ZM96.2728 58.4796C93.3987 58.4796 91.0662 56.3109 91.0662 53.6388C91.0662 50.9667 93.3987 48.7981 96.2728 48.7981C99.1468 48.7981 101.479 50.9667 101.479 53.6388C101.479 56.3109 99.1468 58.4796 96.2728 58.4796Z" fill="#3B0AC6"/>
<path d="M93.021 39.3418C85.5274 39.3418 79.4668 45.4024 79.4668 52.896C79.4668 60.7461 87.5495 71.4828 91.2316 75.9668C92.1714 77.1112 93.8705 77.1112 94.8103 75.9668C98.4925 71.4828 106.575 60.7461 106.575 52.896C106.575 45.4024 100.514 39.3418 93.021 39.3418ZM93.021 57.7367C90.3489 57.7367 88.1802 55.5681 88.1802 52.896C88.1802 50.2239 90.3489 48.0552 93.021 48.0552C95.6931 48.0552 97.8617 50.2239 97.8617 52.896C97.8617 55.5681 95.6931 57.7367 93.021 57.7367Z" fill="#5D36FF"/>
</svg>
