<svg width="128" height="128" viewBox="0 0 128 128" fill="none" xmlns="http://www.w3.org/2000/svg">
<path d="M122.291 55.9846C120.813 55.2778 112.791 51.4276 111.313 50.7207C110.093 50.1424 108.679 49.8856 107.077 49.9499H106.949C105.985 48.6005 103.484 46.4205 96.6781 43.722L79.7298 35.4429C79.7298 35.4429 76.7147 35.3146 73.0524 36.6638C72.217 36.7923 71.3819 36.9209 70.4825 37.1777C70.4182 37.1777 70.2896 37.1777 70.2253 37.242C67.6554 36.214 65.8608 35.5072 65.4754 35.3786C64.576 35.0575 63.6766 34.9289 62.7172 34.9932V34.9289C62.7172 34.9289 62.6532 34.8006 62.5889 34.7364C62.5889 34.7364 62.5246 34.6078 62.4603 34.6078L62.3317 34.4792L62.2032 34.3506L62.0749 34.2224C62.0749 34.2224 61.9463 34.1581 61.9463 34.0938C61.9463 34.0938 61.8177 34.0295 61.8177 33.9652C61.8177 33.9652 61.6892 33.9009 61.6252 33.8367C61.6252 33.8367 61.4966 33.8367 61.4323 33.7724C60.5969 33.387 57.4532 31.845 56.6181 31.4596C55.2047 30.817 53.2816 30.817 51.1613 31.7807C46.8614 33.7084 43.3917 38.394 43.3917 42.3728C43.3917 44.3645 44.2271 45.7734 45.6405 46.4159C46.3474 46.7374 48.5271 47.8296 49.7479 48.4079C49.6836 48.4079 49.6193 48.4719 49.5551 48.5362C48.8485 48.8576 48.1417 49.1787 47.4348 49.5642C43.6489 51.3633 39.4772 53.479 36.9712 56.4986C35.1081 55.8561 32.3499 55.5349 29.0136 56.6915C27.9213 56.7558 26.7648 56.9483 25.6129 57.2698C25.4843 57.2698 25.3559 57.334 25.1631 57.398C23.4284 56.7558 22.3407 56.3061 22.0194 56.1775C21.1199 55.8561 20.2847 55.7921 19.3852 55.8561C19.3852 55.8561 19.3852 55.7921 19.3209 55.7278C19.3209 55.7278 19.2567 55.5992 19.1924 55.5992C19.1924 55.5992 19.1282 55.4706 19.0639 55.4706C19.0639 55.4706 18.9997 55.4064 18.9354 55.3421C18.9354 55.3421 18.8712 55.2778 18.8069 55.2138C18.8069 55.2138 18.7427 55.1495 18.6784 55.0852C18.6784 55.0852 18.5499 55.0209 18.5499 54.9567C18.5499 54.9567 18.4214 54.8924 18.4214 54.8281C18.4214 54.8281 18.2929 54.7638 18.2287 54.6998C18.2287 54.6998 18.1002 54.6998 18.0359 54.6355C17.2007 54.2498 14.057 52.7078 13.2217 52.3224C11.8083 51.6799 9.88533 51.6799 7.76508 52.6436C3.4649 54.5712 0 59.2569 0 63.2357C0 65.2274 0.835251 66.6365 2.24876 67.2791C3.084 67.6645 6.16343 69.1422 6.99867 69.5919H8.79767C9.18317 70.363 9.76142 71.0056 10.5324 71.5196C10.7894 71.6479 11.8174 72.2904 13.3548 73.1898V73.3184C13.6761 74.7961 14.2543 76.1409 15.0896 77.2975C16.0534 79.6103 17.9763 81.6617 20.6105 83.0111C20.6748 83.0111 20.739 83.0754 20.8033 83.1394C28.0589 86.8614 40.7026 93.089 44.7457 93.4747C45.3882 94.6313 46.3519 95.4664 47.5036 96.0447C48.9173 96.7515 56.8752 100.537 58.4172 101.309C58.4172 101.309 58.5455 101.309 58.6098 101.373H60.1517C61.758 101.694 63.6811 101.565 65.6728 100.923C65.8014 100.923 65.9297 100.859 66.0582 100.795C66.2511 100.795 66.3797 100.666 66.5722 100.602C66.8937 100.473 67.2148 100.345 67.6002 100.216C74.8561 97.0084 80.7578 88.9173 80.7578 82.24C80.7578 78.9038 79.2801 76.5264 76.9075 75.3698C75.4295 74.663 67.4076 70.8127 65.9297 70.1059C64.7734 69.5919 63.4883 69.2708 62.0151 69.335C61.3726 68.3711 59.9592 67.2148 57.3938 65.9985C52.6438 63.6854 55.0164 63.814 56.6869 62.2123C57.1366 61.7626 57.4581 61.3771 57.9078 61.12C57.9078 61.12 58.0363 61.12 58.1003 61.1843C58.3575 61.3129 59.1283 61.6983 59.9637 62.084C60.028 62.084 60.0923 62.084 60.1566 62.148C60.2849 62.2123 60.4134 62.2766 60.542 62.3408H60.6063C60.6706 62.3408 60.7989 62.4051 60.8631 62.4694C61.1846 62.662 61.5057 62.7905 61.7628 62.9191C61.7628 62.9191 61.8911 62.9191 61.8911 62.9834H62.084C62.4694 63.1762 62.9191 63.3045 63.4331 63.3045C63.9471 63.3045 64.5254 63.1762 65.1036 62.9834C65.2965 62.9834 65.4251 62.8548 65.6176 62.7905H65.6819C66.1959 63.0477 66.7099 63.3045 67.2882 63.626C67.4167 63.6902 67.5453 63.7542 67.6736 63.8185C67.6736 63.8185 67.8022 63.8185 67.8022 63.8828C67.8665 63.8828 67.995 63.9471 68.0593 64.0114C68.0593 64.0114 68.1876 64.0114 68.1876 64.0757C68.2519 64.0757 68.3804 64.1399 68.4447 64.2042C68.4447 64.2042 68.5733 64.2042 68.5733 64.2682C68.6376 64.2682 68.7659 64.3325 68.8301 64.3968C68.8301 64.3968 68.8944 64.3968 68.9587 64.4611C69.023 64.4611 69.1516 64.5254 69.2159 64.5897H69.3441C69.4727 64.5897 69.6013 64.7182 69.6656 64.7822C70.1796 65.0394 70.6935 65.2965 71.1432 65.5534H71.2075C71.2718 65.5534 71.4001 65.6176 71.4644 65.6819C71.4644 65.6819 71.593 65.6819 71.593 65.7462C71.6572 65.7462 71.7215 65.8105 71.8501 65.8745C71.8501 65.8745 71.9784 65.8745 72.0427 65.9388C72.1069 65.9388 72.2355 66.0031 72.2998 66.0673C72.2998 66.0673 72.3641 66.0673 72.4284 66.1316C72.4924 66.1316 72.6209 66.1959 72.6852 66.2602C72.6852 66.2602 72.8138 66.2602 72.8138 66.3245C72.8781 66.3245 73.0064 66.3885 73.0706 66.4528H73.1992C73.5204 66.5813 73.8418 66.7742 74.0986 66.9028H74.2272C74.2915 66.9028 74.42 66.9668 74.4843 67.031C74.4843 67.031 74.6126 67.031 74.6126 67.0953C74.6769 67.0953 74.7412 67.1596 74.8698 67.2239C74.8698 67.2239 74.9983 67.2239 74.9983 67.2882C75.0626 67.2882 75.1266 67.3525 75.2552 67.4167C75.2552 67.4167 75.3837 67.4167 75.3837 67.4807C75.448 67.4807 75.5123 67.545 75.6406 67.6093C75.6406 67.6093 75.7692 67.6093 75.7692 67.6736C75.8335 67.6736 75.8977 67.7379 76.0263 67.8022C76.0263 67.8022 76.0906 67.8022 76.1549 67.8665C76.2189 67.8665 76.3474 67.9307 76.4117 67.9947H76.5403C76.8614 68.1233 77.1186 68.2519 77.4397 68.4447H77.5683C77.6326 68.4447 77.7608 68.5087 77.8251 68.573H77.9537C78.018 68.573 78.0823 68.6373 78.2108 68.7016C78.2108 68.7016 78.3391 68.7016 78.3391 68.7659C78.4034 68.7659 78.4677 68.8302 78.5963 68.8944C78.5963 68.8944 78.7248 68.8944 78.7248 68.9587C78.7891 68.9587 78.8531 69.023 78.9817 69.087H79.1103C79.1745 69.087 79.2388 69.1513 79.3671 69.2156H79.4957C79.56 69.2156 79.6885 69.2799 79.7528 69.3441H79.8171C80.1382 69.4727 80.3954 69.601 80.7165 69.7296H80.8451C80.9094 69.7296 80.9734 69.7938 81.1019 69.8581H81.2305C81.2948 69.8581 81.3591 69.8581 81.4234 69.9224H81.5516C81.6159 69.9224 81.6802 69.9224 81.7445 69.9867H81.8731C81.9373 69.9867 82.0016 69.9867 82.0656 70.051H82.1942C82.2585 70.051 82.3228 70.051 82.3871 70.115H82.5156C82.5796 70.115 82.6439 70.115 82.7725 70.1793C82.9653 70.2436 83.1579 70.3078 83.3507 70.3721C83.415 70.3721 83.4793 70.3721 83.6076 70.4364H83.7362C83.8005 70.4364 83.8647 70.4364 83.929 70.5007H84.0576C84.1219 70.5007 84.1859 70.5007 84.2502 70.565H84.3787C84.443 70.565 84.5073 70.565 84.5716 70.629H85.2781C85.5353 70.6933 85.7921 70.7575 85.985 70.8218H87.8484C88.041 70.8218 88.2338 70.8218 88.4264 70.8861H88.6835C88.8764 70.8861 89.0689 70.8861 89.2618 71.0147C89.2618 71.0147 89.3904 71.0147 89.4546 71.079C90.0969 72.2352 91.0609 73.1349 92.2769 73.7087C93.6903 74.4152 101.648 78.2015 103.19 78.9726C103.19 78.9726 103.319 78.9726 103.383 79.0366H104.54C106.274 79.4866 108.39 79.358 110.639 78.6512C110.896 78.5869 111.153 78.4583 111.41 78.3943C111.731 78.2657 112.052 78.1372 112.438 78.0086C119.693 74.8009 125.595 66.7099 125.595 60.0326C125.595 56.696 124.117 54.3186 121.745 53.1624L122.319 55.9892L122.291 55.9846Z" fill="#101619"/>
<mask id="mask0_4211_44387" style="mask-type:luminance" maskUnits="userSpaceOnUse" x="0" y="23" width="128" height="82">
<path d="M128 23.4258H0V104.574H128V23.4258Z" fill="white"/>
</mask>
<g mask="url(#mask0_4211_44387)">
<path d="M21.1705 68.0804C22.4058 68.8216 24.0692 68.6982 25.984 67.5863C29.7474 65.4245 32.7742 60.1785 32.7742 55.7975C32.7742 53.6354 32.0329 52.0957 30.7976 51.4162C30.0563 50.9838 27.3429 49.4396 26.6016 49.0072C25.3663 48.328 23.703 48.3897 21.7881 49.5016C18.0247 51.6634 14.998 56.9091 14.998 61.2904C14.998 63.4522 15.7393 64.9922 16.9747 65.6714C17.7159 66.1038 20.4292 67.648 21.1705 68.0804Z" fill="#046C7C"/>
<path d="M59.3736 44.5023C60.609 45.2436 62.2724 45.1201 64.187 44.0082C67.9505 41.8465 70.9772 36.6004 70.9772 32.2194C70.9772 30.0574 70.236 28.5177 69.0006 27.8382C68.2594 27.4058 65.5461 25.8616 64.8048 25.4293C63.5695 24.7498 61.906 24.8116 59.9914 25.9234C56.2279 28.0853 53.2012 33.331 53.2012 37.7123C53.2012 39.8741 53.9424 41.4141 55.1778 42.0934C55.919 42.5257 58.6324 44.07 59.3736 44.5023Z" fill="#046C7C"/>
<path d="M46.5346 60.6746C46.3492 60.5511 37.9578 56.7259 32.65 54.3787C32.4028 53.0199 31.7236 52.0314 30.7969 51.4799C29.5615 50.8006 27.8983 50.8624 25.9834 51.9743C22.22 54.136 19.1934 59.382 19.1934 63.7631C19.1934 65.9248 19.9346 67.4648 21.1699 68.1441C22.0347 68.6384 23.1465 68.7619 24.3157 68.3913C29.0674 71.7841 36.7224 77.277 36.903 77.4005C37.8298 77.8331 40.6048 75.3004 42.0873 74.3165L46.4066 66.847C46.5921 65.0559 47.333 61.3541 46.5301 60.7983V60.6746H46.5346Z" fill="#00144A"/>
<path d="M85.9673 37.7759C85.7819 37.6524 76.3403 33.3332 70.8474 30.8007C70.6002 29.3799 69.9207 28.3917 68.9943 27.9019C67.7589 27.2225 66.0955 27.2842 64.1809 28.3961C60.4174 30.5578 57.3906 35.8038 57.3906 40.1848C57.3906 42.3469 58.1319 43.8866 59.3672 44.5661C60.2319 45.0602 61.4056 45.1837 62.6366 44.7513C67.5737 48.2679 76.0889 54.3166 76.3358 54.4401C77.2625 54.8724 80.161 52.4017 81.6435 51.4178L85.9628 43.9483C86.0865 42.1572 86.8275 38.3937 85.9628 37.8379V37.7759H85.9673Z" fill="#00144A"/>
<path d="M68.8149 50.2447C68.8149 49.1945 68.9383 48.2063 69.1238 47.1604C69.3089 46.1148 69.5561 45.1221 69.9267 44.1382C70.2357 43.15 70.668 42.1616 71.1621 41.2397C71.6562 40.3175 72.1503 39.3866 72.7681 38.5261C73.3856 37.666 74.0034 36.8584 74.7447 36.1172C75.4859 35.3762 76.2272 34.6966 77.0919 34.0788C77.8332 33.5847 78.5741 33.0907 79.3771 32.72C75.7991 31.0523 73.205 29.8213 72.7723 29.6361C71.2284 29.0183 69.7501 29.142 67.959 30.0067C65.7972 31.0566 63.8866 32.9672 62.5278 35.3142C61.2307 37.6614 60.4895 40.2513 60.6746 42.6602C60.8601 44.6368 61.5393 46.0531 62.775 46.9795C63.1453 47.2267 65.55 48.9561 68.8854 51.2374V50.1872L68.8237 50.2489L68.8149 50.2447Z" fill="#046C7C"/>
<path d="M30.7967 73.8205C30.9204 72.8321 31.0439 71.8439 31.291 70.9217C31.4762 69.9953 31.7234 69.0686 32.032 68.1464C32.3409 67.2817 32.6498 66.417 33.0822 65.5568C33.4528 64.7538 33.9469 63.9509 34.441 63.1479C34.9354 62.4066 35.4912 61.6654 36.1087 60.9858C36.7265 60.3063 37.406 59.6887 38.0853 59.0709C38.8266 58.4534 39.6295 57.9593 40.4325 57.465C40.9266 57.1563 41.4827 56.9092 42.0385 56.662C38.0281 54.8091 35.0013 53.3929 34.569 53.2074C33.0865 52.5899 31.6702 52.775 29.8791 53.6398C27.779 54.6899 25.8685 56.662 24.5096 58.9475C23.2125 61.2947 22.4095 63.8846 22.5948 66.2318C22.7184 68.2084 23.336 69.5627 24.5714 70.4894C24.942 70.7363 27.4083 72.5277 30.7438 74.8704C30.7438 74.4998 30.8055 74.1291 30.8672 73.6968L30.8055 73.8205H30.7967Z" fill="#046C7C"/>
<path d="M26.9733 72.4555C27.4057 74.9262 28.394 77.022 29.8101 78.628L29.8721 78.6897L29.9955 78.8131C29.9955 78.8131 30.0573 78.8749 30.119 78.9369L32.4662 81.5267L32.4045 81.4647C32.4045 81.4647 32.3428 81.403 32.281 81.3413C32.1573 81.2178 32.0956 81.0941 31.9721 80.9706C31.7867 80.7237 31.6015 80.4148 31.416 80.1677C30.4896 78.6851 29.8101 76.9603 29.5015 75.0454C29.3777 74.0569 29.2543 73.0688 29.316 72.0849C29.5015 64.9243 34.2531 57.8297 41.0431 55.359C42.8345 54.6794 44.6214 54.4325 46.3508 54.556H47.0303L47.7099 54.6794H47.9568L44.4405 53.8147C44.1316 53.753 43.8227 53.6913 43.452 53.6296C41.5992 53.3207 39.5651 53.5058 37.5268 54.3088C31.0457 56.656 26.5409 63.6269 26.7262 70.5406V71.5291C26.7262 71.8377 26.7262 72.1466 26.8497 72.4555H26.9733Z" fill="#00144A"/>
<path d="M66.53 49.6235C66.9624 52.0942 67.9505 54.19 69.3668 55.7959L69.4285 55.8577L69.5522 55.9811L69.6757 56.1048L72.0229 58.6947L71.9612 58.6327L71.8375 58.5092C71.714 58.3858 71.6523 58.2621 71.5289 58.1386C71.3434 57.8917 71.1582 57.5828 70.9728 57.3356C70.0463 55.8531 69.3668 54.1282 69.0579 52.2133C68.9344 51.2249 68.811 50.2367 68.8727 49.2529C69.0579 42.0922 73.8098 34.9976 80.5998 32.5269C82.3912 31.8474 84.1781 31.6005 85.9075 31.724H86.5868L87.2663 31.8474H87.5135L83.9972 30.9827C83.6883 30.921 83.3794 30.8593 83.0087 30.7975C81.1556 30.4886 79.1218 30.6738 77.0835 31.4768C70.6021 33.824 66.0977 40.7952 66.2828 47.7086V48.697C66.2828 49.0057 66.2828 49.3146 66.4063 49.6235H66.53Z" fill="#00144A"/>
<path d="M100.104 38.1485L88.7474 31.482C85.6634 29.6906 81.8339 29.5671 78.75 31.2965C76.7734 32.4084 74.6776 34.1336 72.8862 36.9132C69.3699 42.3444 68.8758 43.456 68.9375 43.6414C68.0728 43.6414 61.468 43.8266 55.3001 49.6901L52.2779 52.6506L50.2396 55.0596C50.2396 55.0596 43.9434 48.0224 34.2546 58.5762C29.8736 63.3896 28.3294 68.2649 28.0205 72.1519C27.6499 76.5946 29.8736 80.8524 33.6988 83.1377C40.9212 87.5807 54.0028 95.2971 55.547 93.6911C57.7091 91.4676 57.8942 74.3754 69.2464 71.5341C69.2464 71.5341 73.3805 68.3884 65.8536 64.0645C61.7194 61.6556 63.7535 61.7173 65.2358 59.9304C66.78 58.0158 67.0889 56.8465 74.6776 61.4129C82.5132 66.1646 91.2183 71.9047 94.9198 70.6076C97.3288 69.7429 109.607 46.5402 109.607 46.5402C109.607 46.5402 110.658 43.0856 100.166 38.2102L100.104 38.1485Z" fill="#046C7C"/>
<path d="M114.609 47.9549C113.435 47.2756 107.324 43.759 106.155 43.0798C104.24 41.9679 101.527 42.1531 98.6239 43.821C93.5014 46.7813 89.2438 53.3243 88.1939 59.4968C88.0702 60.0526 87.5761 60.4232 87.0203 60.3615C87.6998 49.9932 85.6612 49.9315 85.6612 49.9315C81.1568 48.8199 75.9108 44.3151 74.4285 44.8709C72.946 45.427 73.0694 51.2906 72.6371 51.3523C71.4635 51.4757 67.2059 56.2894 66.0323 56.2274C65.2293 56.2274 75.2269 61.4117 74.424 61.2882C74.5474 61.2882 74.6091 61.4117 74.7329 61.4734C81.7083 65.6692 89.297 70.6681 93.4925 70.8532C93.678 70.8532 93.8632 70.8532 93.9869 70.977C96.1487 72.2123 98.7386 73.6903 99.5415 74.1843C101.271 75.1728 103.676 75.1728 106.27 73.8754C106.517 73.752 106.826 73.5668 107.073 73.4431C112.998 70.0502 117.75 61.7777 117.75 54.9303C117.75 51.5375 116.576 49.1285 114.604 48.0169V47.9549H114.609Z" fill="#00144A"/>
<path d="M122.507 51.1067C121.209 50.3657 114.177 46.2933 112.88 45.5521C110.779 44.3167 107.881 44.5019 104.735 46.3551C98.3774 50.0568 93.1934 59.0043 93.1934 66.3504C93.1934 70.0521 94.4904 72.6463 96.5862 73.8199C97.8216 74.5612 104.792 78.5715 106.151 79.3745C107.881 80.363 110.162 80.4247 112.694 79.3745C112.941 79.2511 113.188 79.1894 113.374 79.0656C113.683 78.9422 113.991 78.757 114.239 78.5715C120.596 74.8701 125.78 65.9223 125.78 58.5762C125.78 54.8748 124.483 52.2803 122.388 51.1067H122.511H122.507Z" fill="#046C7C"/>
<path d="M103.006 74.8052C100.411 71.2889 98.1922 67.3357 98.0685 62.8929C98.0685 60.5457 98.5625 58.3265 99.3655 56.1644C100.107 54.0644 101.095 52.0923 102.388 50.2392C103.006 49.3127 103.747 48.448 104.488 47.6493C105.167 46.908 105.909 46.2905 106.588 45.5492L106.712 45.4258C106.094 45.6727 105.415 45.9816 104.735 46.3522C98.3774 50.054 93.1934 59.0015 93.1934 66.3475C93.1934 70.049 94.4904 72.6434 96.5862 73.817C97.8216 74.5583 104.792 78.5687 106.151 79.3717C106.522 79.6188 106.954 79.7423 107.387 79.8657C105.719 78.3218 104.364 76.5966 103.006 74.7435V74.8052Z" fill="#00144A"/>
<path d="M123.988 59.4974C123.988 56.4134 122.999 54.2513 121.274 53.2632C119.549 52.2747 117.14 52.4602 114.484 54.0662C109.177 57.2118 104.795 64.8668 104.672 71.0393C104.672 74.1232 105.66 76.285 107.385 77.2734C109.11 78.2616 111.519 78.0764 114.175 76.4704C119.483 73.2628 123.864 65.6698 123.988 59.4974Z" fill="#00144A"/>
<path d="M121.083 57.8298C121.083 55.7914 120.342 53.9425 119.292 52.6455C117.871 52.522 116.208 52.9544 114.478 54.0046C109.171 57.1502 104.789 64.8049 104.666 70.9774C104.666 73.0157 105.098 74.6791 105.901 75.8527C107.507 76.0999 109.48 75.8527 111.271 74.8026C116.579 71.5952 120.96 64.0019 121.083 57.8298Z" fill="#222F3B"/>
<path d="M84.9858 49.441C82.6386 48.0202 76.2235 44.1333 73.8762 42.7125C69.9893 40.3653 64.5581 40.6742 58.6329 44.3185C55.1783 46.4185 51.2868 49.0704 48.2646 52.4633C48.2646 52.5867 48.2029 52.7102 48.1411 52.8336C47.7705 54.0692 47.585 55.3617 47.3999 56.5971C47.3381 57.0915 47.2761 57.5855 47.2144 58.0179C47.1527 58.512 47.0292 58.9443 46.9675 59.4384C46.7203 60.5503 46.5352 61.6622 46.5352 62.7695V63.0784L48.8821 65.364C52.3987 68.7568 58.1388 68.3245 60.9181 64.3138C60.9181 64.3138 60.9801 64.1903 61.0418 64.1286C61.6594 63.2019 62.1537 62.4606 62.4006 62.152C62.5241 62.0283 62.6478 61.8431 62.7712 61.7196C62.8947 61.5959 63.0184 61.4725 63.1419 61.287C63.2653 61.1636 63.3891 61.0401 63.5125 60.8547C63.636 60.7312 63.7597 60.546 63.8831 60.4223C64.8096 59.3724 65.798 58.4457 66.7819 57.5238C66.9054 57.4001 67.0288 57.2766 67.1523 57.2149L67.2143 57.1532C67.3377 57.0294 67.4612 56.9677 67.5849 56.8443C67.5849 56.8443 67.6466 56.8443 67.7084 56.7825C67.8318 56.6588 67.9553 56.5971 68.079 56.4736L68.2024 56.3502C68.3259 56.2885 68.4496 56.1647 68.5113 56.103L68.6348 55.9796C68.7582 55.9178 68.8202 55.7941 68.9437 55.7324C68.9437 55.7324 69.0671 55.6707 69.1289 55.6089C69.2526 55.5472 69.3143 55.4855 69.4378 55.3617C69.4995 55.3617 69.5612 55.2383 69.6232 55.2383C69.685 55.2383 69.8084 55.1148 69.8701 55.0528C70.0556 54.9294 70.179 54.8677 70.3642 54.7442C74.6221 51.9689 78.4473 51.2276 81.4738 52.1544L83.3886 53.328C83.9444 53.6986 84.6857 53.4514 85.0563 52.8956C85.3035 52.4012 85.6121 51.8454 85.8593 51.4131C86.1065 50.9807 85.9828 50.2395 85.4887 49.9306C84.9946 49.6217 85.1181 49.6837 84.8712 49.5599L84.9946 49.4365L84.9858 49.441Z" fill="#046C7C"/>
<path d="M60.2382 63.9436C58.8174 63.6967 57.4629 63.3261 56.1658 62.77C55.0539 62.2759 53.9423 61.5967 53.1436 60.6699C52.3451 59.7435 51.8465 58.5699 51.7228 57.4008C51.5376 55.8566 51.9082 54.2549 52.464 52.8343C53.267 50.7343 54.3789 48.762 55.6717 46.9091C56.0423 46.4147 56.3512 45.9206 56.7836 45.4883C52.9584 47.8355 48.7626 50.6723 46.7242 54.8681C46.1681 56.0417 45.7975 57.3963 45.4886 58.6933C45.18 59.9907 45.2417 60.8554 45.6123 61.8393C45.9212 62.5185 46.3536 63.0746 46.8477 63.6304C48.7626 65.7305 51.1052 67.5791 54.07 67.7028C56.6027 67.8263 59.1306 66.6527 60.6748 64.6189C60.7365 64.5569 60.7985 64.4334 60.8603 64.3717C60.8603 64.3717 60.922 64.2482 60.9837 64.1865V64.1245C60.7365 64.1245 60.4279 64.0628 60.1807 64.0011L60.2424 63.9393L60.2382 63.9436Z" fill="#00144A"/>
<path d="M75.048 70.7948C73.8744 70.1153 67.7636 66.599 66.5946 65.9194C64.6797 64.8078 61.9664 64.993 59.0633 66.6607C54.8058 69.1314 51.104 77.7702 49.4363 82.3984C47.7686 87.0266 46.7847 85.2972 44.8698 84.7457C42.8932 84.1896 40.9829 83.3866 39.1298 82.3984C37.9561 81.7806 36.8445 81.1014 35.7986 80.2984C33.209 78.3835 30.8618 76.1643 28.9469 73.5698C28.638 73.1992 28.391 72.7668 28.0821 72.3345V72.5817C27.8351 76.7775 29.9351 80.7262 33.5134 82.95C39.9327 86.8986 51.4084 93.6886 54.8058 93.8741C56.9058 95.0477 59.2485 96.4639 60.0515 96.8963C61.6575 97.8227 63.7533 97.8844 66.1622 96.8963C66.4711 96.7728 66.78 96.6491 67.0887 96.4639C67.2741 96.3405 67.4593 96.2785 67.6447 96.155C73.57 92.7622 78.3216 84.4897 78.3216 77.6422C78.3216 74.2494 77.148 71.8404 75.176 70.7285L75.0525 70.7905L75.048 70.7948Z" fill="#00144A"/>
<path d="M82.9462 73.9387C81.6492 73.1978 74.6163 69.1254 73.3192 68.3841C71.2192 67.1488 68.3204 67.3339 65.1747 69.1871C58.8168 72.8889 53.6328 81.8363 53.6328 89.1824C53.6328 92.8842 54.9299 95.4783 57.0257 96.6519C58.261 97.3932 65.2319 101.404 66.591 102.207C68.3204 103.195 70.5396 103.257 73.072 102.207C73.1958 102.207 73.3192 102.083 73.3809 102.083C73.5044 102.021 73.6898 101.96 73.8133 101.898C74.1222 101.774 74.4311 101.589 74.678 101.404C81.0359 97.7021 86.2199 88.7543 86.2199 81.4083C86.2199 77.7068 84.9228 75.1124 82.8271 73.9387H82.9505H82.9462Z" fill="#046C7C"/>
<path d="M67.1486 100.909C65.4192 99.2417 63.8795 97.4548 62.3969 95.54C59.7454 92.0236 57.4598 87.8895 56.8423 83.4422C56.6569 82.2069 54.9274 82.0217 54.5568 83.2571C53.939 85.2954 53.5684 87.3292 53.5684 89.2441C53.5684 92.9458 54.8657 95.54 56.9612 96.7136C58.1966 97.4548 65.1677 101.465 66.5265 102.268C67.3295 102.701 68.2559 103.009 69.2398 103.009C68.4988 102.33 67.8193 101.651 67.078 100.971L67.1398 100.909H67.1486Z" fill="#00144A"/>
<path d="M84.429 82.3293C84.429 79.2453 83.4409 77.0835 81.7157 76.0951C79.9906 75.1069 77.5816 75.2921 74.9258 76.8981C69.618 80.044 65.237 87.6987 65.1133 93.8712C65.1133 96.9551 66.1017 99.1172 67.8269 100.105C69.5518 101.094 71.9607 100.908 74.6169 99.3023C79.9246 96.095 84.3056 88.5017 84.429 82.3293Z" fill="#00144A"/>
<path d="M81.5264 80.6654C81.5264 78.6271 80.7854 76.7785 79.7352 75.4814C78.3144 75.358 76.6513 75.7903 74.9219 76.8402C69.6141 79.9862 65.2328 87.6408 65.1094 93.8133C65.1094 95.8516 65.5417 97.5151 66.3447 98.6887C67.9507 98.9356 69.923 98.6887 71.7142 97.6385C77.0219 94.4308 81.4029 86.8379 81.5264 80.6654Z" fill="#222F3B"/>
<path d="M65.7889 97.6383C67.0242 97.6383 68.383 97.2677 69.6141 96.5264C74.9215 93.3188 79.3028 85.7258 79.4263 79.5534C79.4263 78.0708 79.0556 76.7166 78.4381 75.543C77.882 75.6047 77.3262 75.7899 76.7704 75.9753C76.9556 76.7166 76.9556 77.5196 76.9556 78.2606C76.8939 80.2989 76.3378 82.2712 75.5968 84.1861C74.8555 86.039 73.8671 87.8259 72.6363 89.4935C72.1422 90.1731 71.5861 90.8526 70.9686 91.4702C70.5362 91.9025 70.1656 92.2731 69.7333 92.6438C69.2389 93.0761 68.7448 93.4468 68.2507 93.8174C67.3243 94.4969 66.3359 95.0527 65.2285 95.4234C65.352 96.2881 65.5374 97.0293 65.7843 97.6471L65.7889 97.6383Z" fill="#D5DADD"/>
<path d="M105.165 74.3119C106.4 74.2502 107.697 73.8796 108.928 73.2003C114.236 69.9926 118.617 62.3997 118.74 56.2272C118.74 54.9302 118.493 53.7566 117.999 52.7109C117.382 52.7727 116.764 52.9578 116.146 53.205C116.208 53.7608 116.27 54.3786 116.208 54.9344C116.146 56.9728 115.59 58.9451 114.849 60.8597C114.108 62.7129 113.119 64.4997 111.889 66.1674C111.394 66.847 110.838 67.5262 110.221 68.144C109.788 68.5764 109.418 68.947 108.985 69.3177C108.491 69.75 107.997 70.1206 107.503 70.4913C106.638 71.1088 105.712 71.6649 104.666 72.0355C104.666 72.9002 104.851 73.6415 105.098 74.3208H105.16L105.165 74.3119Z" fill="#D5DADD"/>
<path d="M76.2186 50.1828C75.7242 49.9356 73.0726 48.3297 72.5785 48.0828C71.7755 47.6504 70.6636 47.7121 69.4946 48.3914C67.0856 49.8122 65.1133 53.2051 65.1133 55.9801C65.1133 57.4009 65.6076 58.3891 66.4106 58.8171C66.9047 59.064 69.5563 60.6083 70.0504 60.9172C70.7299 61.2878 71.6564 61.2878 72.702 60.8555C72.8257 60.7937 73.0109 60.732 73.1343 60.6083C75.5433 59.1878 77.5156 55.7949 77.5156 53.0196C77.5156 51.5991 77.0215 50.6106 76.2186 50.1828Z" fill="#00144A"/>
<path d="M76.2168 50.1794C75.8462 49.994 74.3022 49.0675 73.3183 48.5117C72.7005 48.7586 72.083 49.0675 71.5269 49.4382C70.6004 50.1177 69.7975 50.9824 69.1179 51.9088C68.4384 52.8973 68.006 54.0089 67.6974 55.1782C67.3885 56.3473 67.3268 57.5255 67.4502 58.6945C67.4502 58.9417 67.5119 59.1886 67.5737 59.4975C68.5004 60.0533 69.674 60.7329 69.9826 60.9183C70.6622 61.2887 71.5886 61.2887 72.6342 60.8563C72.758 60.7946 72.9431 60.7329 73.0666 60.6094C75.4755 59.1886 77.4479 55.7958 77.4479 53.0207C77.4479 51.5999 76.9538 50.6118 76.1508 50.1837H76.2125L76.2168 50.1794ZM76.2168 55.1782C75.9082 55.7958 75.5993 56.4136 75.2286 57.0311C74.7346 57.7724 74.2402 58.5136 73.6227 59.1315C73.1286 59.6255 72.5108 60.1196 71.7695 60.1813C71.0283 60.1813 70.4107 59.5638 70.1635 58.8843C69.8546 58.0813 69.9784 57.2166 70.1635 56.4136C70.4107 55.4251 70.8431 54.4987 71.3989 53.7003C71.955 52.9016 72.5725 52.156 73.3755 51.5382C73.9933 51.1058 75.1669 50.4263 76.0888 51.1676C76.7683 51.6617 76.8301 52.5266 76.7683 53.2059C76.7066 53.8854 76.5214 54.6267 76.2125 55.2442V55.1825L76.2168 55.1782Z" fill="#046C7C"/>
</g>
</svg>
