<svg width="45" height="45" viewBox="0 0 45 45" fill="none" xmlns="http://www.w3.org/2000/svg">
<rect x="4.36523" y="42.9805" width="18.6907" height="8.09727" rx="1.33104" transform="rotate(-90 4.36523 42.9805)" fill="#0070F3"/>
<rect x="18.4521" y="42.9805" width="41.2192" height="8.09727" rx="1.33092" transform="rotate(-90 18.4521 42.9805)" fill="#F58B00"/>
<rect x="32.5381" y="42.9805" width="32.4419" height="8.09727" rx="1.33104" transform="rotate(-90 32.5381 42.9805)" fill="#4098FF"/>
<path fill-rule="evenodd" clip-rule="evenodd" d="M2.56641 14.0119C2.56641 13.4606 3.01331 13.0137 3.5646 13.0137H13.2635C13.8148 13.0137 14.2617 13.4606 14.2617 14.0119C14.2617 14.5631 13.8148 15.0101 13.2635 15.0101H3.5646C3.01331 15.0101 2.56641 14.5631 2.56641 14.0119Z" fill="#688FB7"/>
<path fill-rule="evenodd" clip-rule="evenodd" d="M16.6533 27.4318C16.6533 26.8805 17.1002 26.4336 17.6515 26.4336H27.3504C27.9017 26.4336 28.3486 26.8805 28.3486 27.4318C28.3486 27.9831 27.9017 28.43 27.3504 28.43H17.6515C17.1002 28.43 16.6533 27.9831 16.6533 27.4318Z" fill="#688FB7"/>
<path fill-rule="evenodd" clip-rule="evenodd" d="M30.7393 18.5099C30.7393 17.9586 31.1862 17.5117 31.7374 17.5117H41.4363C41.9876 17.5117 42.4345 17.9586 42.4345 18.5099C42.4345 19.0612 41.9876 19.5081 41.4363 19.5081H31.7374C31.1862 19.5081 30.7393 19.0612 30.7393 18.5099Z" fill="#688FB7"/>
</svg>
