<svg width="320" height="240" viewBox="0 0 320 240" fill="none" xmlns="http://www.w3.org/2000/svg">
<path d="M130.573 128.4H33.9598C18.1939 128.4 5.41309 141.181 5.41309 156.947C5.41309 172.713 18.1939 185.494 33.9598 185.494H130.573C146.339 185.494 159.12 172.713 159.12 156.947C159.12 141.181 146.339 128.4 130.573 128.4Z" fill="#EBF8FF"/>
<path d="M165.747 156.733H69.1336C53.3677 156.733 40.5869 169.514 40.5869 185.28C40.5869 201.046 53.3677 213.827 69.1336 213.827H165.747C181.513 213.827 194.294 201.046 194.294 185.28C194.294 169.514 181.513 156.733 165.747 156.733Z" fill="#EBF8FF"/>
<path d="M291.453 77.7871H194.84C179.074 77.7871 166.293 90.5679 166.293 106.334C166.293 122.1 179.074 134.88 194.84 134.88H291.453C307.219 134.88 320 122.1 320 106.334C320 90.5679 307.219 77.7871 291.453 77.7871Z" fill="#EBF8FF"/>
<path d="M219.453 25.667H37.8267C16.9356 25.667 0 42.6026 0 63.4937V63.507C0 84.3981 16.9356 101.334 37.8267 101.334H219.453C240.344 101.334 257.28 84.3981 257.28 63.507V63.4937C257.28 42.6026 240.344 25.667 219.453 25.667Z" fill="#EBF8FF"/>
<path d="M228.613 207.653C230.133 207.468 231.582 206.904 232.827 206.013C232.426 205.819 232.088 205.516 231.852 205.139C231.616 204.761 231.492 204.325 231.493 203.88L232.253 163.88C232.258 163.314 232.467 162.769 232.842 162.345C233.217 161.921 233.732 161.647 234.293 161.573L264.733 157.293C265.188 157.232 265.65 157.302 266.067 157.493C266.441 156.296 266.559 155.033 266.413 153.786L255.253 59.373C254.983 57.1681 253.917 55.1379 252.254 53.6645C250.592 52.1911 248.448 51.3761 246.227 51.373C245.861 51.3757 245.496 51.398 245.133 51.4397L112.573 67.1064C111.383 67.2453 110.232 67.6174 109.186 68.2013C108.14 68.7851 107.22 69.5693 106.477 70.5091C105.734 71.4489 105.183 72.5258 104.857 73.6784C104.53 74.831 104.434 76.0366 104.573 77.2264L120.427 211.333C120.566 212.523 120.937 213.674 121.521 214.72C122.105 215.766 122.889 216.687 123.829 217.43C124.769 218.173 125.846 218.723 126.999 219.05C128.151 219.376 129.357 219.473 130.547 219.333L228.613 207.653ZM179.173 66.693C181.08 66.8076 182.912 67.4778 184.443 68.6209C185.973 69.7641 187.136 71.3303 187.787 73.1263C188.438 74.9224 188.55 76.8698 188.107 78.7283C187.665 80.5868 186.688 82.2752 185.298 83.5853C183.907 84.8954 182.164 85.7699 180.282 86.1008C178.401 86.4318 176.463 86.2048 174.709 85.4479C172.955 84.691 171.461 83.4373 170.411 81.8413C169.361 80.2453 168.801 78.3768 168.8 76.4664C168.883 73.7962 170.022 71.268 171.967 69.436C173.911 67.604 176.503 66.6176 179.173 66.693Z" fill="#D5DADD"/>
<path d="M269.067 153.454L257.907 59.0402C257.539 55.9378 255.955 53.1082 253.502 51.1731C251.05 49.238 247.929 48.3557 244.826 48.7202L112.253 64.4002C110.717 64.5804 109.231 65.0619 107.881 65.8172C106.531 66.5725 105.343 67.5867 104.386 68.8017C103.428 70.0168 102.72 71.4087 102.302 72.8979C101.883 74.3871 101.762 75.9443 101.946 77.4802L117.8 211.574C118.139 214.437 119.517 217.078 121.672 218.994C123.826 220.911 126.609 221.971 129.493 221.974C129.939 221.971 130.384 221.944 130.826 221.894L228.867 210.307C230.541 210.108 232.153 209.553 233.595 208.679C235.037 207.805 236.275 206.632 237.227 205.24L267.053 161.48C268.67 159.135 269.385 156.284 269.067 153.454ZM120.44 211.267L104.587 77.2269C104.447 76.037 104.543 74.8314 104.87 73.6788C105.197 72.5263 105.747 71.4494 106.49 70.5096C107.233 69.5698 108.154 68.7856 109.2 68.2017C110.246 67.6179 111.397 67.2458 112.587 67.1068L245.146 51.4402C245.509 51.3984 245.875 51.3762 246.24 51.3735C248.461 51.3766 250.605 52.1915 252.267 53.6649C253.93 55.1383 254.997 57.1685 255.267 59.3735L266.427 153.787C266.573 155.033 266.454 156.296 266.08 157.494C265.663 157.302 265.201 157.233 264.747 157.294L234.306 161.574C233.745 161.647 233.23 161.922 232.855 162.345C232.48 162.769 232.271 163.314 232.267 163.88L231.507 203.88C231.505 204.325 231.629 204.762 231.865 205.139C232.101 205.517 232.439 205.82 232.84 206.014C231.595 206.905 230.146 207.469 228.626 207.654L130.573 219.24C128.172 219.526 125.756 218.847 123.856 217.351C121.956 215.856 120.727 213.668 120.44 211.267Z" fill="#D5DADD"/>
<path d="M237.213 205.574C238.737 205.389 240.19 204.825 241.44 203.934C241.04 203.739 240.703 203.435 240.467 203.058C240.232 202.681 240.107 202.245 240.107 201.8L240.867 161.8C240.875 161.233 241.087 160.688 241.464 160.264C241.841 159.841 242.358 159.567 242.92 159.494L273.36 155.213C273.813 155.146 274.276 155.211 274.693 155.4C275.067 154.203 275.19 152.941 275.053 151.693L263.867 57.2268C263.591 55.0219 262.521 52.9931 260.857 51.5204C259.193 50.0478 257.049 49.2324 254.827 49.2268C254.467 49.2069 254.106 49.2069 253.747 49.2268L121.173 64.8935C119.983 65.0325 118.833 65.4045 117.787 65.9884C116.741 66.5722 115.82 67.3564 115.077 68.2962C114.334 69.2359 113.783 70.3129 113.457 71.4654C113.13 72.618 113.034 73.8237 113.173 75.0135L129.053 209.227C129.191 210.417 129.562 211.569 130.145 212.616C130.728 213.663 131.512 214.584 132.453 215.328C133.393 216.071 134.47 216.621 135.624 216.947C136.777 217.273 137.983 217.368 139.173 217.227L237.213 205.574ZM187.787 64.6135C189.693 64.7306 191.524 65.4033 193.053 66.5485C194.582 67.6937 195.743 69.2614 196.392 71.0583C197.041 72.8552 197.149 74.8027 196.704 76.6606C196.259 78.5185 195.281 80.2056 193.888 81.5138C192.496 82.822 190.752 83.6941 188.87 84.0226C186.988 84.3512 185.051 84.1217 183.298 83.3625C181.544 82.6033 180.052 81.3477 179.004 79.7503C177.956 78.153 177.398 76.2839 177.4 74.3735C177.484 71.702 178.625 69.1731 180.572 67.3429C182.52 65.5126 185.115 64.5308 187.787 64.6135Z" fill="white"/>
<path d="M277.68 151.374L266.52 56.9602C266.149 53.8567 264.562 51.027 262.107 49.0922C259.653 47.1574 256.531 46.2756 253.426 46.6402L120.866 62.3202C117.764 62.6876 114.934 64.2716 112.999 66.7243C111.064 69.1769 110.182 72.2974 110.546 75.4002L126.4 209.494C126.742 212.356 128.12 214.995 130.274 216.911C132.429 218.827 135.21 219.888 138.093 219.894C138.539 219.891 138.984 219.865 139.426 219.814L237.48 208.214C239.153 208.018 240.765 207.464 242.205 206.59C243.645 205.715 244.88 204.541 245.826 203.147L275.653 159.387C277.275 157.048 277.995 154.202 277.68 151.374ZM129.053 209.227L113.2 75.1335C113.06 73.9437 113.157 72.7381 113.483 71.5855C113.81 70.4329 114.36 69.356 115.103 68.4162C115.846 67.4764 116.767 66.6922 117.813 66.1084C118.859 65.5245 120.01 65.1525 121.2 65.0136L253.773 49.3469C254.133 49.327 254.493 49.327 254.853 49.3469C257.075 49.3524 259.219 50.1679 260.883 51.6405C262.547 53.1131 263.617 55.1419 263.893 57.3469L275.053 151.76C275.189 153.007 275.067 154.269 274.693 155.467C274.276 155.277 273.813 155.212 273.36 155.28L242.92 159.56C242.357 159.634 241.84 159.907 241.463 160.331C241.086 160.755 240.874 161.3 240.866 161.867L240.106 201.867C240.106 202.312 240.231 202.748 240.467 203.125C240.703 203.502 241.04 203.805 241.44 204C240.19 204.891 238.737 205.455 237.213 205.64L139.173 217.227C137.983 217.368 136.777 217.273 135.623 216.947C134.47 216.621 133.392 216.071 132.452 215.328C131.512 214.584 130.728 213.663 130.145 212.616C129.561 211.569 129.19 210.417 129.053 209.227ZM273.053 157.987L242.853 200.907L243.586 162.094L273.053 157.987Z" fill="#00144A"/>
<path d="M242.8 200.907L273.08 157.934L243.533 162.094L242.8 200.907Z" fill="white"/>
<path d="M187.774 84.16C193.503 84.16 198.147 79.7843 198.147 74.3866C198.147 68.989 193.503 64.6133 187.774 64.6133C182.045 64.6133 177.4 68.989 177.4 74.3866C177.4 79.7843 182.045 84.16 187.774 84.16Z" fill="#F58B00"/>
<path d="M194.78 70.7145C195.133 70.1974 194.205 68.9509 192.709 67.9303C191.212 66.9098 189.713 66.5016 189.36 67.0187C189.008 67.5359 189.935 68.7824 191.432 69.803C192.928 70.8235 194.427 71.2317 194.78 70.7145Z" fill="white"/>
<path d="M234.029 105.821L154.051 114.184C150.807 114.524 148.452 117.429 148.791 120.673L149.121 123.83C149.46 127.074 152.366 129.429 155.61 129.09L235.587 120.726C238.832 120.387 241.187 117.482 240.848 114.237L240.517 111.081C240.178 107.837 237.273 105.482 234.029 105.821Z" fill="#D5DADD"/>
<path d="M207.254 135.289L156.412 140.606C153.775 140.882 151.861 143.243 152.137 145.879L152.697 151.237C152.973 153.874 155.334 155.787 157.97 155.512L208.813 150.195C211.45 149.919 213.363 147.558 213.088 144.922L212.528 139.564C212.252 136.928 209.891 135.014 207.254 135.289Z" fill="#D5DADD"/>
<path d="M226.734 113.04C226.237 112.528 225.642 112.121 224.984 111.843C224.327 111.565 223.621 111.422 222.907 111.422C222.193 111.422 221.487 111.565 220.83 111.843C220.172 112.121 219.578 112.528 219.08 113.04L181.747 150.374L169.08 137.707C168.321 136.938 167.35 136.412 166.291 136.196C165.231 135.98 164.132 136.083 163.132 136.493C162.131 136.903 161.276 137.601 160.673 138.499C160.07 139.396 159.748 140.453 159.747 141.534C159.748 142.248 159.893 142.955 160.172 143.612C160.451 144.269 160.86 144.864 161.374 145.36L177.854 161.854C178.351 162.368 178.947 162.776 179.605 163.056C180.264 163.335 180.972 163.479 181.687 163.479C182.402 163.479 183.11 163.335 183.769 163.056C184.427 162.776 185.023 162.368 185.52 161.854L226.734 120.64C227.246 120.143 227.653 119.548 227.931 118.891C228.209 118.234 228.352 117.527 228.352 116.814C228.352 116.1 228.209 115.393 227.931 114.736C227.653 114.079 227.246 113.484 226.734 112.987V113.04Z" fill="#F58B00"/>
<path d="M292.344 46.2126C292.157 45.9907 291.914 45.8235 291.64 45.7288C291.367 45.634 291.072 45.6152 290.788 45.6744L283.998 46.8485C283.765 46.8892 283.543 46.9767 283.344 47.1057C283.146 47.2347 282.976 47.4026 282.844 47.5992C282.712 47.7958 282.622 48.017 282.578 48.2496C282.534 48.4821 282.538 48.7211 282.589 48.9521C282.636 49.3149 282.8 49.6525 283.056 49.9137C283.312 50.175 283.646 50.3458 284.008 50.4002C284.183 50.4241 284.361 50.4241 284.536 50.4002L291.326 49.2261C291.626 49.1803 291.908 49.0544 292.143 48.8615C292.377 48.6685 292.555 48.4159 292.657 48.1302C292.776 47.811 292.81 47.4661 292.755 47.1298C292.7 46.7934 292.559 46.4773 292.344 46.2126Z" fill="#5B738B"/>
<path d="M266.572 19.0891C266.374 19.0173 266.163 18.9883 265.953 19.0042C265.743 19.0201 265.538 19.0805 265.353 19.1813C265.168 19.2822 265.007 19.4212 264.88 19.5891C264.752 19.7571 264.662 19.9502 264.615 20.1556L262.737 26.6033C262.67 26.8353 262.651 27.0782 262.679 27.3177C262.708 27.5573 262.784 27.7887 262.904 27.9984C263.023 28.2081 263.183 28.3917 263.375 28.5386C263.566 28.6855 263.785 28.7926 264.018 28.8537C264.114 28.8827 264.212 28.9023 264.312 28.9124C264.676 28.9634 265.045 28.876 265.348 28.6677C265.65 28.4594 265.864 28.1452 265.946 27.7872L267.815 21.3493C267.883 21.1193 267.906 20.8779 267.88 20.6393C267.855 20.4006 267.782 20.1694 267.667 19.9591C267.551 19.7488 267.395 19.5635 267.207 19.4142C267.019 19.2648 266.803 19.1543 266.572 19.0891Z" fill="#5B738B"/>
<path d="M283.206 27.8175C282.979 27.8064 282.752 27.8405 282.539 27.9178C282.326 27.995 282.13 28.114 281.963 28.2676L274.449 35.1165C274.114 35.4266 273.911 35.8542 273.884 36.31C273.857 36.7657 274.006 37.2145 274.302 37.5625C274.574 37.8852 274.959 38.0917 275.378 38.1398C275.62 38.169 275.864 38.1457 276.096 38.0714C276.327 37.9971 276.54 37.8735 276.719 37.7092L284.233 30.8603C284.572 30.5528 284.777 30.1256 284.807 29.669C284.836 29.2125 284.686 28.7625 284.389 28.4143C284.242 28.2403 284.062 28.0977 283.858 27.9951C283.655 27.8926 283.433 27.8322 283.206 27.8175Z" fill="#5B738B"/>
</svg>
