<svg width="160" height="160" viewBox="0 0 160 160" fill="none" xmlns="http://www.w3.org/2000/svg">
<circle cx="80" cy="80" r="80" fill="#EBF8FF"/>
<path d="M32.0936 36.9172C32.3491 36.6678 32.6671 36.4919 33.0142 36.4079C33.3613 36.324 33.7246 36.3352 34.0659 36.4403L42.2483 38.7285C43.6018 39.1063 44.0174 40.428 43.721 41.4888C43.6156 41.9273 43.3706 42.3198 43.0229 42.6072C42.6753 42.8945 42.2437 43.0613 41.7931 43.0825C41.5751 43.0862 41.3578 43.0569 41.1486 42.9956L32.9661 40.7074C32.6051 40.6143 32.2759 40.4254 32.0134 40.1607C31.7509 39.8959 31.5649 39.5651 31.475 39.2033C31.3749 38.8011 31.3792 38.38 31.4874 37.98C31.5957 37.5799 31.8043 37.2141 32.0936 36.9172Z" fill="#A9B4BE"/>
<path d="M67.1365 6.87023C67.3855 6.81279 67.6438 6.80789 67.8948 6.85586C68.1458 6.90383 68.3841 7.00361 68.5944 7.14883C68.8047 7.29405 68.9824 7.48151 69.1161 7.69926C69.2499 7.917 69.3368 8.16025 69.3713 8.41346L70.8617 16.5543C70.9143 16.8471 70.908 17.1476 70.8432 17.438C70.7784 17.7284 70.6564 18.003 70.4843 18.2458C70.3122 18.4885 70.0934 18.6946 69.8408 18.8519C69.5882 19.0092 69.3068 19.1146 69.013 19.1619C68.8924 19.1848 68.7701 19.1977 68.6474 19.2007C68.1941 19.2179 67.7508 19.0648 67.4049 18.7714C67.0589 18.478 66.8355 18.0656 66.7786 17.6157L65.2908 9.47816C65.2377 9.18542 65.2435 8.88504 65.3079 8.59459C65.3724 8.30414 65.4941 8.02946 65.6659 7.78661C65.8378 7.54377 66.0564 7.33764 66.3089 7.18029C66.5614 7.02294 66.8428 6.91753 67.1365 6.87023Z" fill="#A9B4BE"/>
<path d="M45.5815 15.4947C45.8605 15.5049 46.1345 15.5719 46.3867 15.6917C46.6389 15.8114 46.8641 15.9813 47.0484 16.191L55.4115 25.5143C55.7842 25.9346 55.9801 26.4826 55.9581 27.0439C55.9361 27.6052 55.6979 28.1362 55.2935 28.526C54.9168 28.8859 54.4186 29.0912 53.8977 29.1011C53.5975 29.1063 53.2996 29.0468 53.0244 28.9265C52.7493 28.8062 52.5033 28.628 52.3032 28.404L43.9401 19.0807C43.565 18.6584 43.3682 18.1071 43.391 17.5428C43.4139 16.9784 43.6547 16.4449 44.0627 16.0543C44.2651 15.8636 44.504 15.7157 44.765 15.6195C45.0259 15.5234 45.3037 15.4809 45.5815 15.4947Z" fill="#A9B4BE"/>
<path d="M114.285 91.3313C94.0518 91.8639 79.9498 74.6527 82.7868 52.889C85.6238 31.1253 104.326 13.0506 124.558 12.5179C144.791 11.9852 158.893 29.1964 156.056 50.9601C155.121 58.135 152.461 64.9089 148.591 70.7856L152.339 84.579C152.703 85.9207 151.281 87.4901 150.007 87.1519L136.391 83.5372C129.82 88.2524 122.169 91.1237 114.285 91.3313Z" fill="#D5DADD"/>
<path d="M82.5555 55.1567C80.9497 75.8352 94.7651 91.8443 114.289 91.3303C122.174 91.1227 129.825 88.2515 136.396 83.5362L150.012 87.1509C150.632 87.3157 151.288 87.0277 151.756 86.5339L82.5555 55.1567Z" fill="#A9B4BE"/>
<path d="M85.5195 42.2387L148.613 70.8467L148.596 70.7847C152.466 64.908 155.126 58.134 156.061 50.9592C156.168 50.1393 156.251 49.3259 156.31 48.5197L99.3905 22.7109C93.3558 27.8509 88.472 34.6116 85.5195 42.2387Z" fill="#A9B4BE"/>
<path d="M108.436 87.628C88.6496 88.1489 74.8589 71.3177 77.6333 50.0345C80.4077 28.7514 98.6965 11.0756 118.482 10.5547C138.268 10.0338 152.059 26.865 149.285 48.1482C148.37 55.1633 145.77 61.7865 141.987 67.5326L145.632 80.9486C145.997 82.2903 144.574 83.8597 143.3 83.5215L130.056 80.0052C123.629 84.6168 116.146 87.425 108.436 87.628Z" fill="white"/>
<circle cx="96.9561" cy="51.1534" r="4.73343" fill="#D5DADD"/>
<circle cx="96.3516" cy="46.419" r="4.73343" fill="#F58B00"/>
<path fill-rule="evenodd" clip-rule="evenodd" d="M100.318 43.834C100.19 46.3346 98.1226 48.3229 95.5904 48.3229C93.93 48.3229 92.4692 47.468 91.6244 46.1743C91.6202 46.2552 91.6182 46.3368 91.6182 46.4188C91.6182 49.033 93.7374 51.1522 96.3516 51.1522C98.9658 51.1522 101.085 49.033 101.085 46.4188C101.085 45.465 100.803 44.5771 100.318 43.834Z" fill="#CC7400"/>
<circle cx="113.716" cy="51.1534" r="4.73343" fill="#D5DADD"/>
<circle cx="113.11" cy="46.419" r="4.73343" fill="#F58B00"/>
<path fill-rule="evenodd" clip-rule="evenodd" d="M117.076 43.834C116.949 46.3346 114.881 48.3229 112.349 48.3229C110.689 48.3229 109.228 47.468 108.383 46.1743C108.379 46.2552 108.377 46.3368 108.377 46.4188C108.377 49.033 110.496 51.1522 113.11 51.1522C115.725 51.1522 117.844 49.033 117.844 46.4188C117.844 45.465 117.562 44.5771 117.076 43.834Z" fill="#CC7400"/>
<circle cx="130.718" cy="51.1534" r="4.73343" fill="#D5DADD"/>
<circle cx="130.112" cy="46.419" r="4.73343" fill="#F58B00"/>
<path fill-rule="evenodd" clip-rule="evenodd" d="M134.078 43.834C133.951 46.3346 131.883 48.3229 129.351 48.3229C127.69 48.3229 126.229 47.468 125.385 46.1743C125.381 46.2552 125.378 46.3368 125.378 46.4188C125.378 49.033 127.498 51.1522 130.112 51.1522C132.726 51.1522 134.845 49.033 134.845 46.4188C134.845 45.465 134.563 44.5771 134.078 43.834Z" fill="#CC7400"/>
<path d="M78.2871 64.1426C81.6764 78.2746 93.3026 88.0276 108.436 87.6292C108.771 87.6204 109.105 87.6067 109.439 87.5881C107.34 80.3037 102.073 73.4014 94.3503 68.8813C89.1786 65.8542 83.6147 64.3105 78.2871 64.1426Z" fill="#D5DADD"/>
<path d="M55.9873 148.507C80.7535 147.674 99.0941 126.168 96.9522 100.472C94.8103 74.7749 72.9969 54.6183 48.2307 55.4507C23.4645 56.283 5.12384 77.789 7.26576 103.486C7.9717 111.955 10.8145 119.822 15.1956 126.535L9.69028 143.423C9.18231 144.982 10.7202 146.664 12.223 146.194L29.3679 140.832C37.1329 145.968 46.3359 148.831 55.9873 148.507Z" fill="#00144A"/>
<path d="M95.6058 116.39L9.58868 144.12C9.58045 143.89 9.61072 143.655 9.68638 143.423L15.1917 126.535C10.8106 119.822 7.9678 111.955 7.26185 103.486C5.11993 77.789 23.4606 56.283 48.2268 55.4507C72.993 54.6183 94.8064 74.7749 96.9483 100.472C97.4115 106.029 96.9167 111.391 95.6058 116.39Z" fill="#005DC9"/>
<path d="M9.58771 144.12L59.5059 128.027L54.636 112.921L14.7147 125.791C14.8713 126.04 15.0299 126.288 15.1907 126.534L9.6854 143.422C9.60971 143.655 9.57944 143.889 9.58771 144.12Z" fill="#9EDDFF"/>
<path d="M10.0916 116.352L51.4516 103.013L40.7932 69.9648L11.6294 79.3704C8.17291 86.4917 6.53245 94.7459 7.26088 103.485C7.63475 107.97 8.60796 112.287 10.0916 116.352Z" fill="#9EDDFF"/>
<path d="M59.76 144.984C82.7493 144.212 99.7269 123.683 97.6805 99.1328C95.6341 74.5823 75.3387 55.3065 52.3494 56.0791C29.3601 56.8517 12.3825 77.3801 14.4289 101.931C15.1034 110.023 17.7608 117.543 21.8439 123.96L16.8479 139.845C16.3536 141.417 17.9079 143.127 19.3961 142.649L35.0319 137.628C42.2519 142.542 50.8014 145.285 59.76 144.984Z" fill="#0070F2"/>
<circle cx="36.6173" cy="101.768" r="5.42396" fill="#004DA5"/>
<circle cx="39.7164" cy="93.9005" r="5.42396" fill="white"/>
<path fill-rule="evenodd" clip-rule="evenodd" d="M45.1384 93.7731C44.1566 95.1654 42.5358 96.0748 40.7027 96.0748C37.75 96.0748 35.3484 93.7155 35.2802 90.7793C34.6576 91.6621 34.292 92.7391 34.292 93.9015C34.292 96.8971 36.7204 99.3255 39.716 99.3255C42.7115 99.3255 45.1399 96.8971 45.1399 93.9015C45.1399 93.8586 45.1394 93.8158 45.1384 93.7731Z" fill="#D5DADD"/>
<circle cx="56.4059" cy="104.07" r="5.42396" fill="#004DA5"/>
<circle cx="76.193" cy="107.192" r="5.42396" fill="#004DA5"/>
<circle cx="59.5031" cy="96.2033" r="5.42396" fill="white"/>
<circle cx="79.2941" cy="99.3243" r="5.42396" fill="white"/>
<path fill-rule="evenodd" clip-rule="evenodd" d="M64.9289 96.0756C63.9471 97.4679 62.3264 98.3773 60.4932 98.3773C57.5406 98.3773 55.1391 96.0182 55.0707 93.082C54.4482 93.9649 54.0825 95.0419 54.0825 96.2043C54.0825 99.1998 56.5109 101.628 59.5065 101.628C62.502 101.628 64.9304 99.1998 64.9304 96.2043C64.9304 96.1613 64.9299 96.1184 64.9289 96.0756Z" fill="#D5DADD"/>
<path fill-rule="evenodd" clip-rule="evenodd" d="M84.7156 99.197C83.7338 100.589 82.113 101.499 80.2798 101.499C77.3272 101.499 74.9256 99.1394 74.8574 96.2031C74.2348 97.086 73.8691 98.163 73.8691 99.3254C73.8691 102.321 76.2975 104.749 79.2931 104.749C82.2887 104.749 84.7171 102.321 84.7171 99.3254C84.7171 99.2824 84.7166 99.2396 84.7156 99.197Z" fill="#D5DADD"/>
</svg>
