<?xml version="1.0" encoding="UTF-8"?>
<!--Generator: Apple Native CoreSVG 341-->
<!DOCTYPE svg
PUBLIC "-//W3C//DTD SVG 1.1//EN"
       "http://www.w3.org/Graphics/SVG/1.1/DTD/svg11.dtd">
<svg version="1.1" xmlns="http://www.w3.org/2000/svg" xmlns:xlink="http://www.w3.org/1999/xlink" viewBox="0 0 3300 2200">
 <!--glyph: "", point size: 100.0, font version: "21.0d4e1", template writer version: "138.0.0"-->
 <style>.defaults {-sfsymbols-draw-reverses-motion-groups:false}

.monochrome-0 {-sfsymbols-motion-group:1;-sfsymbols-layer-tags:5f9ace4862e119d9}
.monochrome-1 {-sfsymbols-motion-group:0;-sfsymbols-layer-tags:5f9ace4862e119d9}

.multicolor-0:tintColor {-sfsymbols-motion-group:1;-sfsymbols-layer-tags:5f9ace4862e119d9}
.multicolor-1:tintColor {-sfsymbols-motion-group:0;-sfsymbols-layer-tags:5f9ace4862e119d9}

.hierarchical-0:primary {-sfsymbols-motion-group:1;-sfsymbols-layer-tags:5f9ace4862e119d9}
.hierarchical-1:primary {-sfsymbols-motion-group:0;-sfsymbols-layer-tags:5f9ace4862e119d9}

.SFSymbolsPreviewWireframe {fill:none;opacity:1.0;stroke:black;stroke-width:0.5}
</style>
 <g id="Notes">
  <rect height="2200" id="artboard" style="fill:white;opacity:1" width="3300" x="0" y="0"/>
  <line style="fill:none;stroke:black;opacity:1;stroke-width:0.5;" x1="263" x2="3036" y1="292" y2="292"/>
  <text style="stroke:none;fill:black;font-family:sans-serif;font-size:13;font-weight:bold;" transform="matrix(1 0 0 1 263 322)">Weight/Scale Variations</text>
  <text style="stroke:none;fill:black;font-family:sans-serif;font-size:13;text-anchor:middle;" transform="matrix(1 0 0 1 559.711 322)">Ultralight</text>
  <text style="stroke:none;fill:black;font-family:sans-serif;font-size:13;text-anchor:middle;" transform="matrix(1 0 0 1 856.422 322)">Thin</text>
  <text style="stroke:none;fill:black;font-family:sans-serif;font-size:13;text-anchor:middle;" transform="matrix(1 0 0 1 1153.13 322)">Light</text>
  <text style="stroke:none;fill:black;font-family:sans-serif;font-size:13;text-anchor:middle;" transform="matrix(1 0 0 1 1449.84 322)">Regular</text>
  <text style="stroke:none;fill:black;font-family:sans-serif;font-size:13;text-anchor:middle;" transform="matrix(1 0 0 1 1746.56 322)">Medium</text>
  <text style="stroke:none;fill:black;font-family:sans-serif;font-size:13;text-anchor:middle;" transform="matrix(1 0 0 1 2043.27 322)">Semibold</text>
  <text style="stroke:none;fill:black;font-family:sans-serif;font-size:13;text-anchor:middle;" transform="matrix(1 0 0 1 2339.98 322)">Bold</text>
  <text style="stroke:none;fill:black;font-family:sans-serif;font-size:13;text-anchor:middle;" transform="matrix(1 0 0 1 2636.69 322)">Heavy</text>
  <text style="stroke:none;fill:black;font-family:sans-serif;font-size:13;text-anchor:middle;" transform="matrix(1 0 0 1 2933.4 322)">Black</text>
  <line style="fill:none;stroke:black;opacity:1;stroke-width:0.5;" x1="263" x2="3036" y1="1903" y2="1903"/>
  <g transform="matrix(0.2 0 0 0.2 263 1933)">
   <path d="m46.2402 4.15039c21.7773 0 39.4531-17.627 39.4531-39.4043s-17.6758-39.4043-39.4531-39.4043c-21.7285 0-39.4043 17.627-39.4043 39.4043s17.6758 39.4043 39.4043 39.4043Zm0-7.42188c-17.6758 0-31.9336-14.3066-31.9336-31.9824s14.2578-31.9824 31.9336-31.9824 31.9824 14.3066 31.9824 31.9824-14.3066 31.9824-31.9824 31.9824Zm3.61328-17.7734v-28.4668c0-2.24609-1.46484-3.75977-3.71094-3.75977-2.14844 0-3.61328 1.51367-3.61328 3.75977v28.4668c0 2.19727 1.46484 3.71094 3.61328 3.71094 2.24609 0 3.71094-1.51367 3.71094-3.71094Zm-17.8223-10.5957h28.418c2.19727 0 3.71094-1.46484 3.71094-3.61328 0-2.19727-1.51367-3.71094-3.71094-3.71094h-28.418c-2.24609 0-3.75977 1.51367-3.75977 3.71094 0 2.14844 1.51367 3.61328 3.75977 3.61328Z"/>
  </g>
  <g transform="matrix(0.2 0 0 0.2 281.506 1933)">
   <path d="m58.5449 14.5508c27.4902 0 49.8047-22.3145 49.8047-49.8047s-22.3145-49.8047-49.8047-49.8047-49.8047 22.3145-49.8047 49.8047 22.3145 49.8047 49.8047 49.8047Zm0-8.30078c-22.9492 0-41.5039-18.5547-41.5039-41.5039s18.5547-41.5039 41.5039-41.5039 41.5039 18.5547 41.5039 41.5039-18.5547 41.5039-41.5039 41.5039Zm4.05273-23.0957v-36.9141c0-2.49023-1.70898-4.19922-4.15039-4.19922-2.39258 0-4.05273 1.70898-4.05273 4.19922v36.9141c0 2.44141 1.66016 4.15039 4.05273 4.15039 2.44141 0 4.15039-1.66016 4.15039-4.15039Zm-22.5586-14.4043h36.9629c2.44141 0 4.15039-1.61133 4.15039-4.00391 0-2.44141-1.70898-4.15039-4.15039-4.15039h-36.9629c-2.49023 0-4.15039 1.70898-4.15039 4.15039 0 2.39258 1.66016 4.00391 4.15039 4.00391Z"/>
  </g>
  <g transform="matrix(0.2 0 0 0.2 304.924 1933)">
   <path d="m74.8535 28.3203c35.1074 0 63.623-28.4668 63.623-63.5742s-28.5156-63.623-63.623-63.623-63.5742 28.5156-63.5742 63.623 28.4668 63.5742 63.5742 63.5742Zm0-9.08203c-30.127 0-54.4922-24.3652-54.4922-54.4922s24.3652-54.4922 54.4922-54.4922 54.4922 24.3652 54.4922 54.4922-24.3652 54.4922-54.4922 54.4922Zm4.44336-30.3223v-48.4863c0-2.73438-1.85547-4.63867-4.54102-4.63867-2.58789 0-4.44336 1.9043-4.44336 4.63867v48.4863c0 2.68555 1.85547 4.58984 4.44336 4.58984 2.68555 0 4.54102-1.85547 4.54102-4.58984Zm-28.7109-19.7754h48.4863c2.68555 0 4.58984-1.80664 4.58984-4.39453 0-2.73438-1.85547-4.58984-4.58984-4.58984h-48.4863c-2.73438 0-4.58984 1.85547-4.58984 4.58984 0 2.58789 1.85547 4.39453 4.58984 4.39453Z"/>
  </g>
  <text style="stroke:none;fill:black;font-family:sans-serif;font-size:13;font-weight:bold;" transform="matrix(1 0 0 1 263 1953)">Design Variations</text>
  <text style="stroke:none;fill:black;font-family:sans-serif;font-size:13;" transform="matrix(1 0 0 1 263 1971)">Symbols are supported in up to nine weights and three scales.</text>
  <text style="stroke:none;fill:black;font-family:sans-serif;font-size:13;" transform="matrix(1 0 0 1 263 1989)">For optimal layout with text and other symbols, vertically align</text>
  <text style="stroke:none;fill:black;font-family:sans-serif;font-size:13;" transform="matrix(1 0 0 1 263 2007)">symbols with the adjacent text.</text>
  <line style="fill:none;stroke:#00AEEF;stroke-width:0.5;opacity:1.0;" x1="776" x2="776" y1="1919" y2="1933"/>
  <g transform="matrix(0.2 0 0 0.2 776 1933)">
   <path d="m16.5527 0.78125c2.58789 0 3.85742-0.976562 4.78516-3.71094l20.5566-57.5195h0.244141l20.6055 57.5195c0.927734 2.73438 2.19727 3.71094 4.73633 3.71094 2.58789 0 4.24805-1.5625 4.24805-4.00391 0-0.830078-0.146484-1.61133-0.537109-2.63672l-22.9004-60.9863c-1.12305-2.97852-3.125-4.49219-6.25-4.49219-3.02734 0-5.07812 1.46484-6.15234 4.44336l-22.9004 61.084c-0.390625 1.02539-0.537109 1.80664-0.537109 2.63672 0 2.44141 1.5625 3.95508 4.10156 3.95508Zm10.2051-20.9473h30.6641c2.00195 0 3.66211-1.66016 3.66211-3.66211 0-2.05078-1.66016-3.66211-3.66211-3.66211h-30.6641c-2.00195 0-3.66211 1.61133-3.66211 3.66211 0 2.00195 1.66016 3.66211 3.66211 3.66211Z"/>
  </g>
  <line style="fill:none;stroke:#00AEEF;stroke-width:0.5;opacity:1.0;" x1="792.836" x2="792.836" y1="1919" y2="1933"/>
  <text style="stroke:none;fill:black;font-family:sans-serif;font-size:13;font-weight:bold;" transform="matrix(1 0 0 1 776 1953)">Margins</text>
  <text style="stroke:none;fill:black;font-family:sans-serif;font-size:13;" transform="matrix(1 0 0 1 776 1971)">Leading and trailing margins on the left and right side of each symbol</text>
  <text style="stroke:none;fill:black;font-family:sans-serif;font-size:13;" transform="matrix(1 0 0 1 776 1989)">can be adjusted by modifying the x-location of the margin guidelines.</text>
  <text style="stroke:none;fill:black;font-family:sans-serif;font-size:13;" transform="matrix(1 0 0 1 776 2007)">Modifications are automatically applied proportionally to all</text>
  <text style="stroke:none;fill:black;font-family:sans-serif;font-size:13;" transform="matrix(1 0 0 1 776 2025)">scales and weights.</text>
  <g transform="matrix(0.2 0 0 0.2 1289 1933)">
   <path d="m14.209 13.1348 7.86133 7.86133c4.29688 4.39453 9.32617 4.10156 13.8672-1.02539l60.6934-68.2129-4.88281-4.88281-60.2539 67.6758c-1.80664 1.95312-3.4668 2.44141-5.81055 0.0976562l-5.17578-5.12695c-2.29492-2.29492-1.80664-3.95508 0.195312-5.81055l67.4805-62.1582-4.88281-4.83398-68.0664 62.5977c-4.98047 4.58984-5.32227 9.47266-1.02539 13.8184Zm44.873-97.4609c-2.05078 2.00195-2.24609 4.88281-1.07422 6.78711 1.12305 1.80664 3.4668 3.02734 6.5918 2.24609 5.85938-1.66016 12.5977-2.39258 18.8965 0.927734l-2.68555 7.12891c-1.61133 4.00391-0.732422 6.88477 1.70898 9.42383l10.2539 10.3027c2.34375 2.39258 4.54102 2.44141 7.08008 1.95312l4.44336-0.732422 2.58789 2.53906-0.195312 2.24609c-0.0976562 2.29492 0.537109 4.29688 2.7832 6.49414l3.36914 3.32031c2.29492 2.29492 5.51758 2.49023 7.8125 0.195312l12.9883-13.0371c2.29492-2.34375 2.14844-5.37109-0.195312-7.66602l-3.41797-3.41797c-2.19727-2.19727-4.05273-3.02734-6.34766-2.88086l-2.34375 0.244141-2.44141-2.44141 1.02539-4.6875c0.634766-2.73438-0.244141-4.98047-2.88086-7.61719l-11.2793-11.1816c-12.9395-12.8418-35.5957-11.0352-46.6797-0.146484Zm7.08008 2.05078c8.78906-6.39648 25.9766-5.66406 33.6914 1.95312l12.3047 12.207c1.02539 1.02539 1.2207 1.80664 0.927734 3.32031l-1.46484 6.64062 6.73828 6.68945 4.39453-0.244141c1.12305-0.0488281 1.51367 0.0488281 2.34375 0.878906l2.53906 2.49023-10.8398 10.8398-2.49023-2.49023c-0.830078-0.878906-0.976562-1.2207-0.927734-2.39258l0.292969-4.3457-6.68945-6.73828-6.83594 1.17188c-1.41602 0.292969-2.05078 0.195312-3.17383-0.878906l-8.93555-8.88672c-1.07422-1.02539-1.17188-1.70898-0.488281-3.36914l4.58984-11.4746c-6.10352-6.34766-17.041-7.51953-25.5859-4.58984-0.683594 0.244141-0.927734-0.390625-0.390625-0.78125Z"/>
  </g>
  <text style="stroke:none;fill:black;font-family:sans-serif;font-size:13;font-weight:bold;" transform="matrix(1 0 0 1 1289 1953)">Exporting</text>
  <text style="stroke:none;fill:black;font-family:sans-serif;font-size:13;" transform="matrix(1 0 0 1 1289 1971)">Symbols should be outlined when exporting to ensure the</text>
  <text style="stroke:none;fill:black;font-family:sans-serif;font-size:13;" transform="matrix(1 0 0 1 1289 1989)">design is preserved when submitting to Xcode.</text>
  <text id="template-version" style="stroke:none;fill:black;font-family:sans-serif;font-size:13;text-anchor:end;" transform="matrix(1 0 0 1 3036 1933)">Template v.5.0</text>
  <text style="stroke:none;fill:black;font-family:sans-serif;font-size:13;text-anchor:end;" transform="matrix(1 0 0 1 3036 1951)">Requires Xcode 15 or greater</text>
  <text id="descriptive-name" style="stroke:none;fill:black;font-family:sans-serif;font-size:13;text-anchor:end;" transform="matrix(1 0 0 1 3036 1969)">Generated from fiori.pdf.attachment</text>
  <text style="stroke:none;fill:black;font-family:sans-serif;font-size:13;text-anchor:end;" transform="matrix(1 0 0 1 3036 1987)">Typeset at 100.0 points</text>
  <text style="stroke:none;fill:black;font-family:sans-serif;font-size:13;" transform="matrix(1 0 0 1 263 726)">Small</text>
  <text style="stroke:none;fill:black;font-family:sans-serif;font-size:13;" transform="matrix(1 0 0 1 263 1156)">Medium</text>
  <text style="stroke:none;fill:black;font-family:sans-serif;font-size:13;" transform="matrix(1 0 0 1 263 1586)">Large</text>
 </g>
 <g id="Guides">
  <g id="H-reference" style="fill:#27AAE1;stroke:none;" transform="matrix(1 0 0 1 339 696)">
   <path d="M0.993654 0L3.63775 0L29.3281-67.1323L30.0303-67.1323L30.0303-70.459L28.1226-70.459ZM11.6885-24.4799L46.9815-24.4799L46.2315-26.7285L12.4385-26.7285ZM55.1196 0L57.7637 0L30.6382-70.459L29.4326-70.459L29.4326-67.1323Z"/>
  </g>
  <line id="Baseline-S" style="fill:none;stroke:#27AAE1;opacity:1;stroke-width:0.5;" x1="263" x2="3036" y1="696" y2="696"/>
  <line id="Capline-S" style="fill:none;stroke:#27AAE1;opacity:1;stroke-width:0.5;" x1="263" x2="3036" y1="625.541" y2="625.541"/>
  <g id="H-reference" style="fill:#27AAE1;stroke:none;" transform="matrix(1 0 0 1 339 1126)">
   <path d="M0.993654 0L3.63775 0L29.3281-67.1323L30.0303-67.1323L30.0303-70.459L28.1226-70.459ZM11.6885-24.4799L46.9815-24.4799L46.2315-26.7285L12.4385-26.7285ZM55.1196 0L57.7637 0L30.6382-70.459L29.4326-70.459L29.4326-67.1323Z"/>
  </g>
  <line id="Baseline-M" style="fill:none;stroke:#27AAE1;opacity:1;stroke-width:0.5;" x1="263" x2="3036" y1="1126" y2="1126"/>
  <line id="Capline-M" style="fill:none;stroke:#27AAE1;opacity:1;stroke-width:0.5;" x1="263" x2="3036" y1="1055.54" y2="1055.54"/>
  <g id="H-reference" style="fill:#27AAE1;stroke:none;" transform="matrix(1 0 0 1 339 1556)">
   <path d="M0.993654 0L3.63775 0L29.3281-67.1323L30.0303-67.1323L30.0303-70.459L28.1226-70.459ZM11.6885-24.4799L46.9815-24.4799L46.2315-26.7285L12.4385-26.7285ZM55.1196 0L57.7637 0L30.6382-70.459L29.4326-70.459L29.4326-67.1323Z"/>
  </g>
  <line id="Baseline-L" style="fill:none;stroke:#27AAE1;opacity:1;stroke-width:0.5;" x1="263" x2="3036" y1="1556" y2="1556"/>
  <line id="Capline-L" style="fill:none;stroke:#27AAE1;opacity:1;stroke-width:0.5;" x1="263" x2="3036" y1="1485.54" y2="1485.54"/>
  <line id="right-margin-Black-S" style="fill:none;stroke:#00AEEF;stroke-width:0.5;opacity:1.0;" x1="2981.9" x2="2981.9" y1="600.785" y2="720.121"/>
  <line id="left-margin-Black-S" style="fill:none;stroke:#00AEEF;stroke-width:0.5;opacity:1.0;" x1="2884.9" x2="2884.9" y1="600.785" y2="720.121"/>
  <line id="right-margin-Regular-S" style="fill:none;stroke:#00AEEF;stroke-width:0.5;opacity:1.0;" x1="1496.29" x2="1496.29" y1="600.785" y2="720.121"/>
  <line id="left-margin-Regular-S" style="fill:none;stroke:#00AEEF;stroke-width:0.5;opacity:1.0;" x1="1403.39" x2="1403.39" y1="600.785" y2="720.121"/>
  <line id="right-margin-Ultralight-S" style="fill:none;stroke:#00AEEF;stroke-width:0.5;opacity:1.0;" x1="604.411" x2="604.411" y1="600.785" y2="720.121"/>
  <line id="left-margin-Ultralight-S" style="fill:none;stroke:#00AEEF;stroke-width:0.5;opacity:1.0;" x1="515.011" x2="515.011" y1="600.785" y2="720.121"/>
 </g>
 <g id="Symbols">
  <g id="Black-S" transform="matrix(1 0 0 1 2884.9 696)">
   <path class="monochrome-0 multicolor-0:tintColor hierarchical-0:primary SFSymbolsPreviewWireframe" d="M20.51-57.8C23.61-57.8 25.91-60.3 25.91-63.2L25.91-65.8L50.21-65.8L56.61-59.4C57.41-58.6 58.61-57.8 60.41-57.8C62.31-57.8 63.51-58.7 64.21-59.4C65.91-61 66.71-64.6 64.21-67.1L56.21-75.1C55.51-75.8 53.41-76.7 52.41-76.7L20.41-76.7C17.41-76.7 15.01-74.3 15.01-71.3L15.01-63.3C15.11-60.2 17.51-57.8 20.51-57.8ZM76.51-12.7C73.71-12.7 71.11-10.1 71.11-7.6L71.11-4.7L25.91-4.7L25.91-7.3C25.91-10.2 23.61-12.7 20.51-12.7C17.71-12.7 15.11-10.5 15.11-7.1L15.11 0.7C15.11 3.7 17.51 6.1 20.51 6.1L76.51 6.1C79.51 6.1 81.91 3.7 81.91 0.7L81.91-7.3C81.91-10.5 79.31-12.7 76.51-12.7Z"/>
   <path class="monochrome-1 multicolor-1:tintColor hierarchical-1:primary SFSymbolsPreviewWireframe" d="M84.51-52.7L68.51-52.7C65.51-52.7 63.11-50.3 63.11-47.3L63.11-23.3C63.11-19.8 66.01-17.9 68.51-17.9C71.41-17.9 73.91-20.3 73.91-23.3L73.91-29.9L80.51-29.9C83.81-29.9 85.91-32.6 85.91-35.3C85.91-38.1 83.71-40.7 80.51-40.7L73.91-40.7L73.91-41.9L84.51-41.9C87.61-41.9 89.91-44.5 89.91-47.3C89.91-50.3 87.51-52.7 84.51-52.7ZM48.51-52.7L40.51-52.7C37.51-52.7 35.11-50.3 35.11-47.3L35.11-23.3C35.11-20.3 37.51-17.9 40.51-17.9L48.51-17.9C55.91-17.9 61.91-23.9 61.91-31.3L61.91-39.3C61.91-46.7 55.91-52.7 48.51-52.7ZM51.11-31.2C51.11-29.8 49.91-28.6 48.51-28.6L45.91-28.6L45.91-41.8L48.51-41.8C49.91-41.8 51.11-40.6 51.11-39.2L51.11-31.2ZM17.91-25.8L20.51-25.8C28.01-25.8 33.91-32 33.91-39.2C33.91-46.4 28.11-52.6 20.51-52.6L12.51-52.6C9.51-52.6 7.11-50.2 7.11-47.2L7.11-23.2C7.11-20.3 9.31-17.8 12.51-17.8C15.61-17.8 17.91-20.3 17.91-23.2L17.91-25.8ZM17.91-41.8L20.51-41.8C21.81-41.8 23.11-40.6 23.11-39.5C23.11-37.5 21.71-36.7 20.51-36.7L17.91-36.7L17.91-41.8Z"/>
  </g>
  <g id="Regular-S" transform="matrix(1 0 0 1 1403.39 696)">
   <path class="monochrome-0 multicolor-0:tintColor hierarchical-0:primary SFSymbolsPreviewWireframe" d="M18.46-59.3C20.66-59.3 22.46-61.1 22.46-63.3L22.46-67.3L48.76-67.3L55.56-60.5C56.36-59.7 57.36-59.3 58.36-59.3C59.36-59.3 60.36-59.7 61.16-60.5C62.76-62.1 62.76-64.6 61.16-66.2L53.16-74.2C52.36-75 51.36-75.4 50.36-75.4L18.36-75.4C16.16-75.4 14.36-73.6 14.36-71.4L14.36-63.4C14.46-61 16.26-59.3 18.46-59.3ZM74.46-11.2C72.26-11.2 70.46-9.4 70.46-7.2L70.46-3.2L22.46-3.2L22.46-7.2C22.46-9.4 20.66-11.2 18.46-11.2C16.26-11.2 14.46-9.4 14.46-7.2L14.46 0.8C14.46 3 16.26 4.8 18.46 4.8L74.46 4.8C76.66 4.8 78.46 3 78.46 0.8L78.46-7.2C78.46-9.5 76.76-11.2 74.46-11.2Z"/>
   <path class="monochrome-1 multicolor-1:tintColor hierarchical-1:primary SFSymbolsPreviewWireframe" d="M82.46-51.3L66.46-51.3C64.26-51.3 62.46-49.5 62.46-47.3L62.46-23.3C62.46-21.1 64.26-19.3 66.46-19.3C68.66-19.3 70.46-21.1 70.46-23.3L70.46-31.3L78.46-31.3C80.66-31.3 82.46-33.1 82.46-35.3C82.46-37.5 80.66-39.3 78.46-39.3L70.46-39.3L70.46-43.3L82.46-43.3C84.66-43.3 86.46-45.1 86.46-47.3C86.46-49.5 84.76-51.3 82.46-51.3ZM46.46-51.3L38.46-51.3C36.26-51.3 34.46-49.5 34.46-47.3L34.46-23.3C34.46-21.1 36.26-19.3 38.46-19.3L46.46-19.3C53.06-19.3 58.46-24.7 58.46-31.3L58.46-39.3C58.46-45.9 53.16-51.3 46.46-51.3ZM50.46-31.2C50.46-29 48.66-27.2 46.46-27.2L42.46-27.2L42.46-43.2L46.46-43.2C48.66-43.2 50.46-41.4 50.46-39.2L50.46-31.2ZM14.46-27.2L18.46-27.2C25.06-27.2 30.46-32.6 30.46-39.2C30.46-45.8 25.06-51.2 18.46-51.2L10.46-51.2C8.26-51.2 6.46-49.4 6.46-47.2L6.46-23.2C6.46-21 8.26-19.2 10.46-19.2C12.66-19.2 14.46-21 14.46-23.2L14.46-27.2ZM14.46-43.3L18.46-43.3C20.66-43.3 22.46-41.5 22.46-39.3C22.46-37.1 20.66-35.3 18.46-35.3L14.46-35.3L14.46-43.3Z"/>
  </g>
  <g id="Ultralight-S" transform="matrix(1 0 0 1 515.011 696)">
   <path class="monochrome-0 multicolor-0:tintColor hierarchical-0:primary SFSymbolsPreviewWireframe" d="M16.875-62.1C17.475-62.1 17.975-62.7 17.975-63.3L17.975-70.1L48.375-70.1L56.075-62.4C56.375-62.1 56.575-62.1 56.875-62.1C57.275-62.1 57.375-62.2 57.675-62.4C58.075-62.7 58.175-63.6 57.675-64L49.675-72C49.475-72.2 49.175-72.3 48.875-72.3L16.875-72.3C16.275-72.3 15.675-71.8 15.675-71.1L15.675-63.1C15.575-62.6 16.075-62.1 16.875-62.1ZM72.675-8.4C72.075-8.4 71.575-7.8 71.575-7.2L71.575-0.4L17.875-0.4L17.875-7.2C17.875-7.8 17.375-8.4 16.775-8.4C16.175-8.4 15.475-8 15.475-7.2L15.475 0.8C15.475 1.4 15.975 2 16.675 2L72.675 2C73.275 2 73.875 1.5 73.875 0.8L73.875-7.2C73.875-8 73.275-8.4 72.675-8.4Z"/>
   <path class="monochrome-1 multicolor-1:tintColor hierarchical-1:primary SFSymbolsPreviewWireframe" d="M80.775-48.4L64.775-48.4C64.175-48.4 63.575-47.9 63.575-47.2L63.575-23.2C63.575-22.6 64.075-22 64.675-22C65.575-22 65.975-22.7 65.975-23.2L65.975-34L76.775-34C77.375-34 77.975-34.5 77.975-35.1C77.975-36 77.375-36.4 76.775-36.4L65.875-36.4L65.875-46.1L80.675-46.1C81.275-46.1 81.875-46.6 81.875-47.2C81.875-48.1 81.275-48.4 80.775-48.4ZM44.775-48.4L36.775-48.4C36.175-48.4 35.575-47.9 35.575-47.2L35.575-23.2C35.575-22.6 36.075-22 36.775-22L44.775-22C49.875-22 53.975-26.1 53.975-31.2L53.975-39.2C53.875-44.3 49.775-48.4 44.775-48.4ZM51.575-31.2C51.575-27.4 48.475-24.4 44.775-24.4L37.975-24.4L37.975-46.1L44.775-46.1C48.575-46.1 51.575-43 51.575-39.3L51.575-31.2ZM9.875-30.1L16.675-30.1C21.675-30.1 25.875-34.2 25.875-39.2C25.875-44.4 21.575-48.4 16.675-48.4L8.675-48.4C8.075-48.4 7.475-47.9 7.475-47.2L7.475-23.2C7.475-22.6 7.975-22.1 8.675-22.1C9.275-22.1 9.875-22.7 9.875-23.3L9.875-30.1ZM9.875-46.1L16.675-46.1C20.975-46.1 23.475-42.5 23.475-39.3C23.475-36.3 21.175-32.5 16.675-32.5L9.875-32.5L9.875-46.1Z"/>
  </g>
 </g>
</svg>
