<svg width="128" height="129" viewBox="0 0 128 129" fill="none" xmlns="http://www.w3.org/2000/svg">
<circle cx="64" cy="64.7695" r="64" fill="#223548"/>
<path d="M34.4315 21.4196C34.2955 21.5788 34.2049 21.7717 34.1693 21.9781C34.1336 22.1845 34.1543 22.3967 34.2291 22.5923L35.8865 27.2917C36.1602 28.0691 36.9499 28.2609 37.5591 28.0462C37.8116 27.9674 38.0318 27.8088 38.1864 27.5942C38.3411 27.3795 38.4219 27.1205 38.4168 26.856C38.4105 26.7283 38.3849 26.6022 38.3408 26.4821L36.6834 21.7827C36.615 21.5751 36.4916 21.3898 36.3265 21.2464C36.1613 21.1031 35.9605 21.0071 35.7453 20.9686C35.506 20.9257 35.2597 20.9446 35.0298 21.0235C34.7999 21.1024 34.594 21.2387 34.4315 21.4196Z" fill="white"/>
<path d="M18.2113 43.0955C18.1874 43.2435 18.1945 43.3948 18.2324 43.5398C18.2702 43.6849 18.3379 43.8204 18.431 43.9378C18.5242 44.0553 18.6408 44.152 18.7734 44.2218C18.9061 44.2916 19.0518 44.333 19.2013 44.3433L24.0234 44.8988C24.1968 44.9182 24.3724 44.9028 24.5398 44.8536C24.7073 44.8044 24.8632 44.7223 24.9986 44.6121C25.134 44.502 25.246 44.366 25.3282 44.212C25.4105 44.0581 25.4612 43.8893 25.4775 43.7155C25.4862 43.644 25.489 43.572 25.4859 43.5C25.4784 43.2341 25.3715 42.9806 25.1864 42.7896C25.0012 42.5986 24.7512 42.4838 24.4857 42.468L19.6657 41.9139C19.4923 41.8943 19.3167 41.9094 19.1493 41.9583C18.9818 42.0073 18.8258 42.0893 18.6904 42.1993C18.5549 42.3093 18.4428 42.4452 18.3605 42.5991C18.2783 42.753 18.2275 42.9218 18.2113 43.0955Z" fill="white"/>
<path d="M22.4194 30.1464C22.4362 30.3093 22.4861 30.467 22.566 30.6099C22.6459 30.7529 22.7541 30.878 22.8839 30.9778L28.6654 35.5092C28.9258 35.711 29.2541 35.8043 29.5817 35.7696C29.9094 35.7349 30.2109 35.5749 30.4232 35.323C30.6192 35.0886 30.72 34.7891 30.7055 34.4838C30.6969 34.3079 30.6504 34.1359 30.5693 33.9796C30.4882 33.8232 30.3744 33.6862 30.2355 33.5778L24.4541 29.0464C24.1924 28.8433 23.8621 28.7495 23.5327 28.7849C23.2034 28.8202 22.9005 28.9818 22.6878 29.2358C22.5841 29.3617 22.5068 29.5072 22.4607 29.6637C22.4146 29.8202 22.4005 29.9843 22.4194 30.1464Z" fill="white"/>
<path fill-rule="evenodd" clip-rule="evenodd" d="M9.53027 98.3887H111.092C112.067 98.3887 112.857 99.1785 112.857 100.153V104.31C112.857 105.284 112.067 106.074 111.092 106.074H15.1107C13.0683 103.659 11.2015 101.091 9.53027 98.3887Z" fill="#2A4259"/>
<path fill-rule="evenodd" clip-rule="evenodd" d="M118.469 98.3887C116.798 101.091 114.931 103.659 112.889 106.074H87.9926C87.0183 106.074 86.2285 105.284 86.2285 104.31V100.153C86.2285 99.1785 87.0183 98.3887 87.9926 98.3887H118.469Z" fill="#3B5B7C"/>
<rect x="41.1758" y="42.5703" width="78.5474" height="50.2538" rx="5.4615" fill="#1782FF"/>
<rect x="41.1758" y="42.5703" width="61.2257" height="50.2538" rx="5.4615" fill="#4098FF"/>
<rect x="49.3896" y="50.7051" width="44.7965" height="33.9851" rx="3.972" fill="#688FB7"/>
<path d="M48.1377 92.8438H59.2311L55.3926 97.8703C55.1423 98.198 54.7534 98.3903 54.341 98.3903H49.4608C48.7301 98.3903 48.1377 97.798 48.1377 97.0672V92.8438Z" fill="#1782FF"/>
<path fill-rule="evenodd" clip-rule="evenodd" d="M57.6993 94.8496H48.1377V92.8438H59.2311L57.6993 94.8496Z" fill="#0070F3"/>
<path d="M66.1123 92.8438H77.2057L73.3672 97.8703C73.1169 98.198 72.728 98.3903 72.3156 98.3903H67.4354C66.7047 98.3903 66.1123 97.798 66.1123 97.0672V92.8438Z" fill="#0070F3"/>
<path fill-rule="evenodd" clip-rule="evenodd" d="M75.0879 95.617H66.1123V92.8438H77.2057L75.0879 95.617Z" fill="#0070F3"/>
<path d="M95.1787 92.8438H84.0853L87.9239 97.8703C88.1742 98.198 88.563 98.3903 88.9754 98.3903H93.8556C94.5863 98.3903 95.1787 97.798 95.1787 97.0672V92.8438Z" fill="#1782FF"/>
<path fill-rule="evenodd" clip-rule="evenodd" d="M85.617 94.8495H95.1787V92.8438H84.0853L85.617 94.8495Z" fill="#0070F3"/>
<path d="M113.153 92.8438H102.06L105.898 97.8703C106.149 98.198 106.538 98.3903 106.95 98.3903H111.83C112.561 98.3903 113.153 97.798 113.153 97.0672V92.8438Z" fill="#0070F3"/>
<path fill-rule="evenodd" clip-rule="evenodd" d="M104.178 95.6171H113.153V92.8438H102.06L104.178 95.6171Z" fill="#0070F3"/>
<rect x="5.63965" y="50.7051" width="44.3253" height="33.9851" rx="3.972" fill="#1782FF"/>
<rect x="3.87598" y="50.7051" width="44.7965" height="33.9851" rx="3.972" fill="#3B5B7C"/>
<circle cx="12.5109" cy="61.173" r="1.64762" fill="#F58B00"/>
<circle cx="12.5119" cy="74.2199" r="1.64762" fill="#F58B00"/>
<circle cx="29.8087" cy="67.6973" r="7.16998" fill="#2A4259"/>
<rect x="47.6855" y="54.3984" width="3.86242" height="10.7927" rx="1.93121" fill="#0070F3"/>
<rect x="47.6855" y="69.0938" width="3.86242" height="10.7927" rx="1.93121" fill="#0070F3"/>
<path d="M96.659 29.6559C96.659 29.1156 95.0908 28.6832 92.9955 28.585C92.8757 26.4923 92.4145 24.9363 91.8742 24.9375C91.3339 24.9387 90.8846 26.5067 90.7696 28.6101C88.6683 28.7539 87.1061 29.2234 87.1133 29.7649C87.1205 30.3063 88.6815 30.7387 90.7768 30.8358C90.9026 32.9284 91.3578 34.4844 91.8969 34.4832C92.436 34.4821 92.8877 32.9141 93.0027 30.8106C95.104 30.6669 96.665 30.1973 96.659 29.6559Z" fill="#2A4259"/>
<path d="M76.6195 17.6158C76.6195 16.9373 74.6499 16.3942 72.0181 16.2708C71.8676 13.6424 71.2883 11.6879 70.6097 11.6895C69.9311 11.691 69.3668 13.6604 69.2223 16.3024C66.5831 16.4829 64.6209 17.0727 64.6299 17.7528C64.6389 18.4328 66.5996 18.9759 69.2314 19.0978C69.3894 21.7262 69.9612 23.6806 70.6383 23.6791C71.3154 23.6776 71.8827 21.7082 72.0271 19.0662C74.6664 18.8857 76.6271 18.2959 76.6195 17.6158Z" fill="#2A4259"/>
</svg>
