<svg width="128" height="63" viewBox="0 0 128 63" fill="none" xmlns="http://www.w3.org/2000/svg">
<path d="M118.4 0.449219H9.6C4.29807 0.449219 0 4.73171 0 10.0144V45.884C0 51.1667 4.29807 55.4492 9.6 55.4492H118.4C123.702 55.4492 128 51.1667 128 45.884V10.0144C128 4.73171 123.702 0.449219 118.4 0.449219Z" fill="#222F3B"/>
<mask id="mask0_4038_87528" style="mask-type:alpha" maskUnits="userSpaceOnUse" x="0" y="0" width="128" height="56">
<path d="M118.4 0.449219H9.6C4.29807 0.449219 0 4.73171 0 10.0144V45.884C0 51.1667 4.29807 55.4492 9.6 55.4492H118.4C123.702 55.4492 128 51.1667 128 45.884V10.0144C128 4.73171 123.702 0.449219 118.4 0.449219Z" fill="#222F3B"/>
</mask>
<g mask="url(#mask0_4038_87528)">
<path d="M79.485 58.5643L74.873 60.5331L53.125 43.8936C54.317 43.6186 55.453 43.252 56.509 42.8096L79.481 58.5643H79.485Z" fill="#101619"/>
<path d="M46.3967 17.912C56.6687 18.5696 64.9127 25.0381 64.8007 32.3674C64.7327 36.9229 61.4527 40.737 56.5167 42.8135L55.0407 41.7971L51.2407 42.4468L53.1327 43.8935C50.9327 44.4037 48.5247 44.6069 46.0047 44.4435C35.7327 43.7859 27.4927 37.3174 27.6007 29.9881C27.7127 22.6627 36.1287 17.2544 46.4007 17.908L46.3967 17.912Z" fill="#101619"/>
<path d="M55.0368 41.793L56.5128 42.8093C55.4528 43.2517 54.3208 43.6183 53.1288 43.8933L51.2368 42.4466L55.0368 41.797V41.793Z" fill="#101619"/>
</g>
<path d="M98.7609 40.5541L48.5289 40.6941C48.0369 40.6941 47.5929 40.3901 47.4169 39.9301L36.8769 12.3981C36.5809 11.6181 37.1529 10.7861 37.9889 10.7861L88.2449 10.8381L100.217 38.3301C100.673 39.3821 99.9049 40.5581 98.7609 40.5581V40.5541Z" fill="#688FB7"/>
<path d="M98.7628 39.8881L48.5308 40.0281C48.0388 40.0281 47.5948 39.7241 47.4188 39.2641L36.8788 11.7321C36.5828 10.9521 37.1548 10.1201 37.9908 10.1201L88.2468 10.1721L100.219 37.6641C100.675 38.7161 99.9068 39.8921 98.7628 39.8921V39.8881Z" fill="#688FB7"/>
<path d="M99.2948 38.8677L48.9388 39.0077C48.3548 39.0077 47.8268 38.6477 47.6188 38.0997L37.2508 11.0117C36.8988 10.0877 37.5788 9.0957 38.5708 9.0957L87.5788 9.1437C88.1388 9.1437 88.6468 9.4757 88.8708 9.9917L100.587 36.8917C100.991 37.8237 100.311 38.8637 99.2988 38.8637L99.2948 38.8677Z" fill="#D5DADD"/>
<path fill-rule="evenodd" clip-rule="evenodd" d="M49.928 35.9548C49.9141 35.9521 49.9002 35.949 49.8864 35.9454C49.8052 35.9245 49.7249 35.8884 49.6515 35.841C49.6444 35.8364 49.6374 35.8317 49.6305 35.827C49.5585 35.7774 49.494 35.7171 49.4432 35.65C49.4346 35.6386 49.4263 35.6269 49.4185 35.6151C49.3974 35.5833 49.3794 35.5503 49.3651 35.5163L48.9328 34.491C49.2005 34.491 49.5023 34.6922 49.6069 34.9403L49.8497 35.5163H50.7542C51.0219 35.5163 51.3237 35.7175 51.4283 35.9657H50.0392C50.0025 35.9657 49.9653 35.9619 49.928 35.9548ZM53.3429 31.4958C53.0752 31.4958 52.9431 31.697 53.0477 31.9451L53.5333 33.0971C53.6379 33.3453 53.9397 33.5464 54.2074 33.5464L53.3429 31.4958ZM52.0803 28.5006C51.8126 28.5006 51.6804 28.7017 51.785 28.9499L52.2707 30.1019C52.3753 30.3501 52.6771 30.5512 52.9448 30.5512L52.0803 28.5006ZM50.8177 25.5054C50.55 25.5054 50.4178 25.7065 50.5224 25.9547L51.0081 27.1067C51.1127 27.3548 51.4145 27.556 51.6821 27.556L50.8177 25.5054ZM49.5551 22.5101C49.2874 22.5101 49.1552 22.7113 49.2598 22.9595L49.7454 24.1115C49.85 24.3596 50.1518 24.5608 50.4195 24.5608L49.5551 22.5101ZM48.2925 19.5149C48.0248 19.5149 47.8926 19.7161 47.9972 19.9642L48.4828 21.1162C48.5874 21.3644 48.8892 21.5656 49.1569 21.5656L48.2925 19.5149ZM42.2216 18.5704C42.4893 18.5704 42.6215 18.3692 42.5169 18.121L42.2741 17.545L43.1786 17.545C43.4462 17.545 43.5784 17.3439 43.4738 17.0957H42.0847C42.0481 17.0957 42.014 17.0995 41.9827 17.1066C41.9711 17.1092 41.9598 17.1124 41.949 17.1159C41.8854 17.1368 41.8356 17.173 41.8021 17.2204C41.7989 17.2249 41.7958 17.2296 41.7929 17.2344C41.7627 17.2839 41.7491 17.3442 41.7548 17.4113C41.7558 17.4228 41.7574 17.4344 41.7595 17.4462C41.7652 17.478 41.7751 17.5111 41.7894 17.545L42.2216 18.5704ZM42.6198 19.5149C42.8875 19.5149 43.1893 19.7161 43.2939 19.9642L43.7795 21.1162C43.8841 21.3644 43.7519 21.5656 43.4842 21.5656L42.6198 19.5149ZM43.8824 22.5101C44.1501 22.5101 44.4519 22.7113 44.5565 22.9595L45.0421 24.1115C45.1467 24.3596 45.0145 24.5608 44.7468 24.5608L43.8824 22.5101ZM45.145 25.5054C45.4127 25.5054 45.7145 25.7065 45.8191 25.9547L46.3047 27.1067C46.4093 27.3548 46.2771 27.556 46.0094 27.556L45.145 25.5054ZM46.4076 28.5006C46.6753 28.5006 46.9771 28.7017 47.0817 28.9499L47.5673 30.1019C47.6719 30.3501 47.5397 30.5512 47.2721 30.5512L46.4076 28.5006ZM47.6702 31.4958C47.9379 31.4958 48.2397 31.697 48.3443 31.9451L48.8299 33.0971C48.9345 33.3453 48.8023 33.5464 48.5347 33.5464L47.6702 31.4958ZM45.3988 17.0957C45.5034 17.3439 45.8052 17.545 46.0729 17.545H46.9774L47.2202 18.121C47.3248 18.3692 47.6266 18.5704 47.8943 18.5704L47.4621 17.545C47.4478 17.5111 47.4298 17.478 47.4087 17.4462C47.4009 17.4344 47.3926 17.4228 47.3839 17.4113C47.3331 17.3442 47.2687 17.2839 47.1967 17.2344C47.1897 17.2296 47.1827 17.2249 47.1756 17.2204C47.1022 17.173 47.0219 17.1368 46.9408 17.1159C46.9269 17.1124 46.913 17.1092 46.8991 17.1066C46.8618 17.0995 46.8246 17.0957 46.788 17.0957H45.3988ZM54.6055 34.491C54.3379 34.491 54.2057 34.6922 54.3103 34.9403L54.5531 35.5163H53.6486C53.3809 35.5163 53.2487 35.7175 53.3533 35.9657H54.7425C54.7791 35.9657 54.8132 35.9619 54.8445 35.9548C54.8561 35.9521 54.8673 35.949 54.8782 35.9454C54.9417 35.9245 54.9916 35.8884 55.025 35.841C55.0282 35.8364 55.0313 35.8317 55.0342 35.827C55.0645 35.7774 55.0781 35.7171 55.0723 35.65C55.0713 35.6386 55.0698 35.6269 55.0677 35.6151C55.0619 35.5833 55.0521 35.5503 55.0378 35.5163L54.6055 34.491Z" fill="#688FB7"/>
<path fill-rule="evenodd" clip-rule="evenodd" d="M58.2704 35.9548C58.2565 35.9521 58.2427 35.949 58.2288 35.9454C58.1476 35.9245 58.0673 35.8884 57.9939 35.841C57.9869 35.8364 57.9798 35.8317 57.9729 35.827C57.9009 35.7774 57.8364 35.7171 57.7857 35.65C57.777 35.6386 57.7687 35.6269 57.7609 35.6151C57.7398 35.5833 57.7218 35.5503 57.7075 35.5163L57.2752 34.491C57.5429 34.491 57.8447 34.6922 57.9493 34.9403L58.1922 35.5163H59.0966C59.3643 35.5163 59.6661 35.7175 59.7707 35.9657H58.3816C58.345 35.9657 58.3077 35.9619 58.2704 35.9548ZM61.6853 31.4958C61.4177 31.4958 61.2855 31.697 61.3901 31.9451L61.8757 33.0971C61.9803 33.3453 62.2821 33.5464 62.5498 33.5464L61.6853 31.4958ZM60.4227 28.5006C60.155 28.5006 60.0228 28.7017 60.1275 28.9499L60.6131 30.1019C60.7177 30.3501 61.0195 30.5512 61.2872 30.5512L60.4227 28.5006ZM59.1601 25.5054C58.8924 25.5054 58.7602 25.7065 58.8648 25.9547L59.3505 27.1067C59.4551 27.3548 59.7569 27.556 60.0246 27.556L59.1601 25.5054ZM57.8975 22.5101C57.6298 22.5101 57.4976 22.7113 57.6022 22.9595L58.0878 24.1115C58.1925 24.3596 58.4943 24.5608 58.7619 24.5608L57.8975 22.5101ZM56.6349 19.5149C56.3672 19.5149 56.235 19.7161 56.3396 19.9642L56.8252 21.1162C56.9298 21.3644 57.2316 21.5656 57.4993 21.5656L56.6349 19.5149ZM50.564 18.5704C50.8317 18.5704 50.9639 18.3692 50.8593 18.121L50.6165 17.545L51.521 17.545C51.7886 17.545 51.9208 17.3439 51.8162 17.0957H50.4271C50.3905 17.0957 50.3564 17.0995 50.3251 17.1066C50.3135 17.1092 50.3022 17.1124 50.2914 17.1159C50.2278 17.1368 50.178 17.173 50.1445 17.2204C50.1413 17.2249 50.1382 17.2296 50.1353 17.2344C50.1051 17.2839 50.0915 17.3442 50.0972 17.4113C50.0982 17.4228 50.0998 17.4344 50.1019 17.4462C50.1076 17.478 50.1175 17.5111 50.1318 17.545L50.564 18.5704ZM50.9622 19.5149C51.2299 19.5149 51.5317 19.7161 51.6363 19.9642L52.1219 21.1162C52.2265 21.3644 52.0943 21.5656 51.8266 21.5656L50.9622 19.5149ZM52.2248 22.5101C52.4925 22.5101 52.7943 22.7113 52.8989 22.9595L53.3845 24.1115C53.4891 24.3596 53.3569 24.5608 53.0892 24.5608L52.2248 22.5101ZM53.4874 25.5054C53.7551 25.5054 54.0569 25.7065 54.1615 25.9547L54.6471 27.1067C54.7517 27.3548 54.6195 27.556 54.3518 27.556L53.4874 25.5054ZM54.75 28.5006C55.0177 28.5006 55.3195 28.7017 55.4241 28.9499L55.9097 30.1019C56.0143 30.3501 55.8821 30.5512 55.6145 30.5512L54.75 28.5006ZM56.0126 31.4958C56.2803 31.4958 56.5821 31.697 56.6867 31.9451L57.1723 33.0971C57.277 33.3453 57.1448 33.5464 56.8771 33.5464L56.0126 31.4958ZM53.7412 17.0957C53.8458 17.3439 54.1476 17.545 54.4153 17.545H55.3198L55.5626 18.121C55.6672 18.3692 55.969 18.5704 56.2367 18.5704L55.8045 17.545C55.7902 17.5111 55.7722 17.478 55.7511 17.4462C55.7433 17.4344 55.735 17.4228 55.7263 17.4113C55.6755 17.3442 55.6111 17.2839 55.5391 17.2344C55.5321 17.2296 55.5251 17.2249 55.518 17.2204C55.4446 17.173 55.3643 17.1368 55.2832 17.1159C55.2693 17.1124 55.2554 17.1092 55.2415 17.1066C55.2043 17.0995 55.167 17.0957 55.1304 17.0957H53.7412ZM62.948 34.491C62.6803 34.491 62.5481 34.6922 62.6527 34.9403L62.8955 35.5163H61.991C61.7233 35.5163 61.5911 35.7175 61.6957 35.9657H63.0849C63.1215 35.9657 63.1556 35.9619 63.1869 35.9548C63.1985 35.9521 63.2098 35.949 63.2206 35.9454C63.2842 35.9245 63.334 35.8884 63.3674 35.841C63.3706 35.8364 63.3737 35.8317 63.3766 35.827C63.4069 35.7774 63.4205 35.7171 63.4147 35.65C63.4137 35.6386 63.4122 35.6269 63.4101 35.6151C63.4044 35.5833 63.3945 35.5503 63.3802 35.5163L62.948 34.491Z" fill="#688FB7"/>
<path fill-rule="evenodd" clip-rule="evenodd" d="M66.6126 35.9548C66.5987 35.9521 66.5848 35.949 66.571 35.9454C66.4898 35.9245 66.4095 35.8884 66.3361 35.841C66.329 35.8364 66.322 35.8317 66.315 35.827C66.2431 35.7774 66.1786 35.7171 66.1278 35.65C66.1191 35.6386 66.1109 35.6269 66.103 35.6151C66.0819 35.5833 66.0639 35.5503 66.0496 35.5163L65.6174 34.491C65.8851 34.491 66.1869 34.6922 66.2915 34.9403L66.5343 35.5163H67.4388C67.7065 35.5163 68.0083 35.7175 68.1129 35.9657H66.7237C66.6871 35.9657 66.6499 35.9619 66.6126 35.9548ZM70.0275 31.4958C69.7598 31.4958 69.6276 31.697 69.7322 31.9451L70.2178 33.0971C70.3225 33.3453 70.6243 33.5464 70.8919 33.5464L70.0275 31.4958ZM68.7649 28.5006C68.4972 28.5006 68.365 28.7017 68.4696 28.9499L68.9552 30.1019C69.0598 30.3501 69.3616 30.5512 69.6293 30.5512L68.7649 28.5006ZM67.5023 25.5054C67.2346 25.5054 67.1024 25.7065 67.207 25.9547L67.6926 27.1067C67.7972 27.3548 68.099 27.556 68.3667 27.556L67.5023 25.5054ZM66.2397 22.5101C65.972 22.5101 65.8398 22.7113 65.9444 22.9595L66.43 24.1115C66.5346 24.3596 66.8364 24.5608 67.1041 24.5608L66.2397 22.5101ZM64.9771 19.5149C64.7094 19.5149 64.5772 19.7161 64.6818 19.9642L65.1674 21.1162C65.272 21.3644 65.5738 21.5656 65.8415 21.5656L64.9771 19.5149ZM58.9062 18.5704C59.1739 18.5704 59.3061 18.3692 59.2014 18.121L58.9586 17.545L59.8631 17.545C60.1308 17.545 60.263 17.3439 60.1584 17.0957H58.7692C58.7326 17.0957 58.6985 17.0995 58.6673 17.1066C58.6556 17.1092 58.6444 17.1124 58.6335 17.1159C58.57 17.1368 58.5201 17.173 58.4867 17.2204C58.4835 17.2249 58.4804 17.2296 58.4775 17.2344C58.4472 17.2839 58.4337 17.3442 58.4394 17.4113C58.4404 17.4228 58.4419 17.4344 58.4441 17.4462C58.4498 17.478 58.4596 17.5111 58.474 17.545L58.9062 18.5704ZM59.3043 19.5149C59.572 19.5149 59.8738 19.7161 59.9784 19.9642L60.4641 21.1162C60.5687 21.3644 60.4365 21.5656 60.1688 21.5656L59.3043 19.5149ZM60.567 22.5101C60.8346 22.5101 61.1364 22.7113 61.2411 22.9595L61.7267 24.1115C61.8313 24.3596 61.6991 24.5608 61.4314 24.5608L60.567 22.5101ZM61.8296 25.5054C62.0973 25.5054 62.3991 25.7065 62.5037 25.9547L62.9893 27.1067C63.0939 27.3548 62.9617 27.556 62.694 27.556L61.8296 25.5054ZM63.0922 28.5006C63.3599 28.5006 63.6617 28.7017 63.7663 28.9499L64.2519 30.1019C64.3565 30.3501 64.2243 30.5512 63.9566 30.5512L63.0922 28.5006ZM64.3548 31.4958C64.6225 31.4958 64.9243 31.697 65.0289 31.9451L65.5145 33.0971C65.6191 33.3453 65.4869 33.5464 65.2192 33.5464L64.3548 31.4958ZM62.0834 17.0957C62.188 17.3439 62.4898 17.545 62.7575 17.545H63.662L63.9048 18.121C64.0094 18.3692 64.3112 18.5704 64.5789 18.5704L64.1467 17.545C64.1324 17.5111 64.1144 17.478 64.0933 17.4462C64.0854 17.4344 64.0771 17.4228 64.0685 17.4113C64.0177 17.3442 63.9532 17.2839 63.8812 17.2344C63.8743 17.2296 63.8673 17.2249 63.8602 17.2204C63.7868 17.173 63.7065 17.1368 63.6253 17.1159C63.6115 17.1124 63.5976 17.1092 63.5837 17.1066C63.5464 17.0995 63.5092 17.0957 63.4726 17.0957H62.0834ZM71.2901 34.491C71.0224 34.491 70.8902 34.6922 70.9948 34.9403L71.2377 35.5163H70.3332C70.0655 35.5163 69.9333 35.7175 70.0379 35.9657H71.4271C71.4637 35.9657 71.4977 35.9619 71.529 35.9548C71.5407 35.9521 71.5519 35.949 71.5628 35.9454C71.6263 35.9245 71.6761 35.8884 71.7096 35.841C71.7128 35.8364 71.7159 35.8317 71.7188 35.827C71.749 35.7774 71.7626 35.7171 71.7569 35.65C71.7559 35.6386 71.7543 35.6269 71.7522 35.6151C71.7465 35.5833 71.7366 35.5503 71.7223 35.5163L71.2901 34.491Z" fill="#688FB7"/>
<path fill-rule="evenodd" clip-rule="evenodd" d="M75.1282 35.9548C75.1143 35.9521 75.1004 35.949 75.0866 35.9454C75.0054 35.9245 74.9251 35.8884 74.8517 35.841C74.8446 35.8364 74.8376 35.8317 74.8307 35.827C74.7587 35.7774 74.6942 35.7171 74.6434 35.65C74.6348 35.6386 74.6265 35.6269 74.6186 35.6151C74.5976 35.5833 74.5796 35.5503 74.5653 35.5163L74.133 34.491C74.4007 34.491 74.7025 34.6922 74.8071 34.9403L75.0499 35.5163H75.9544C76.2221 35.5163 76.5239 35.7175 76.6285 35.9657H75.2393C75.2027 35.9657 75.1655 35.9619 75.1282 35.9548ZM78.5431 31.4958C78.2754 31.4958 78.1432 31.697 78.2479 31.9451L78.7335 33.0971C78.8381 33.3453 79.1399 33.5464 79.4076 33.5464L78.5431 31.4958ZM77.2805 28.5006C77.0128 28.5006 76.8806 28.7017 76.9852 28.9499L77.4709 30.1019C77.5755 30.3501 77.8773 30.5512 78.145 30.5512L77.2805 28.5006ZM76.0179 25.5054C75.7502 25.5054 75.618 25.7065 75.7226 25.9547L76.2082 27.1067C76.3129 27.3548 76.6147 27.556 76.8823 27.556L76.0179 25.5054ZM74.7553 22.5101C74.4876 22.5101 74.3554 22.7113 74.46 22.9595L74.9456 24.1115C75.0502 24.3596 75.352 24.5608 75.6197 24.5608L74.7553 22.5101ZM73.4927 19.5149C73.225 19.5149 73.0928 19.7161 73.1974 19.9642L73.683 21.1162C73.7876 21.3644 74.0894 21.5656 74.3571 21.5656L73.4927 19.5149ZM67.4218 18.5704C67.6895 18.5704 67.8217 18.3692 67.7171 18.121L67.4743 17.545L68.3788 17.545C68.6464 17.545 68.7786 17.3439 68.674 17.0957H67.2849C67.2482 17.0957 67.2142 17.0995 67.1829 17.1066C67.1713 17.1092 67.16 17.1124 67.1491 17.1159C67.0856 17.1368 67.0358 17.173 67.0023 17.2204C66.9991 17.2249 66.996 17.2296 66.9931 17.2344C66.9629 17.2839 66.9493 17.3442 66.955 17.4113C66.956 17.4228 66.9576 17.4344 66.9597 17.4462C66.9654 17.478 66.9753 17.5111 66.9896 17.545L67.4218 18.5704ZM67.82 19.5149C68.0877 19.5149 68.3895 19.7161 68.4941 19.9642L68.9797 21.1162C69.0843 21.3644 68.9521 21.5656 68.6844 21.5656L67.82 19.5149ZM69.0826 22.5101C69.3503 22.5101 69.6521 22.7113 69.7567 22.9595L70.2423 24.1115C70.3469 24.3596 70.2147 24.5608 69.947 24.5608L69.0826 22.5101ZM70.3452 25.5054C70.6129 25.5054 70.9147 25.7065 71.0193 25.9547L71.5049 27.1067C71.6095 27.3548 71.4773 27.556 71.2096 27.556L70.3452 25.5054ZM71.6078 28.5006C71.8755 28.5006 72.1773 28.7017 72.2819 28.9499L72.7675 30.1019C72.8721 30.3501 72.7399 30.5512 72.4722 30.5512L71.6078 28.5006ZM72.8704 31.4958C73.1381 31.4958 73.4399 31.697 73.5445 31.9451L74.0301 33.0971C74.1347 33.3453 74.0025 33.5464 73.7349 33.5464L72.8704 31.4958ZM70.599 17.0957C70.7036 17.3439 71.0054 17.545 71.2731 17.545H72.1776L72.4204 18.121C72.525 18.3692 72.8268 18.5704 73.0945 18.5704L72.6623 17.545C72.648 17.5111 72.63 17.478 72.6089 17.4462C72.601 17.4344 72.5928 17.4228 72.5841 17.4113C72.5333 17.3442 72.4689 17.2839 72.3969 17.2344C72.3899 17.2296 72.3829 17.2249 72.3758 17.2204C72.3024 17.173 72.2221 17.1368 72.141 17.1159C72.1271 17.1124 72.1132 17.1092 72.0993 17.1066C72.062 17.0995 72.0248 17.0957 71.9882 17.0957H70.599ZM79.8057 34.491C79.5381 34.491 79.4059 34.6922 79.5105 34.9403L79.7533 35.5163H78.8488C78.5811 35.5163 78.4489 35.7175 78.5535 35.9657H79.9427C79.9793 35.9657 80.0134 35.9619 80.0446 35.9548C80.0563 35.9521 80.0675 35.949 80.0784 35.9454C80.1419 35.9245 80.1918 35.8884 80.2252 35.841C80.2284 35.8364 80.2315 35.8317 80.2344 35.827C80.2647 35.7774 80.2783 35.7171 80.2725 35.65C80.2715 35.6386 80.27 35.6269 80.2679 35.6151C80.2621 35.5833 80.2523 35.5503 80.238 35.5163L79.8057 34.491Z" fill="#688FB7"/>
<path fill-rule="evenodd" clip-rule="evenodd" d="M83.4704 35.9548C83.4565 35.9521 83.4426 35.949 83.4287 35.9454C83.3476 35.9245 83.2673 35.8884 83.1939 35.841C83.1868 35.8364 83.1798 35.8317 83.1728 35.827C83.1008 35.7774 83.0364 35.7171 82.9856 35.65C82.9769 35.6386 82.9687 35.6269 82.9608 35.6151C82.9397 35.5833 82.9217 35.5503 82.9074 35.5163L82.4752 34.491C82.7429 34.491 83.0447 34.6922 83.1493 34.9403L83.3921 35.5163H84.2966C84.5643 35.5163 84.8661 35.7175 84.9707 35.9657H83.5815C83.5449 35.9657 83.5077 35.9619 83.4704 35.9548ZM86.8853 31.4958C86.6176 31.4958 86.4854 31.697 86.59 31.9451L87.0756 33.0971C87.1802 33.3453 87.482 33.5464 87.7497 33.5464L86.8853 31.4958ZM85.6227 28.5006C85.355 28.5006 85.2228 28.7017 85.3274 28.9499L85.813 30.1019C85.9176 30.3501 86.2194 30.5512 86.4871 30.5512L85.6227 28.5006ZM84.3601 25.5054C84.0924 25.5054 83.9602 25.7065 84.0648 25.9547L84.5504 27.1067C84.655 27.3548 84.9568 27.556 85.2245 27.556L84.3601 25.5054ZM83.0975 22.5101C82.8298 22.5101 82.6976 22.7113 82.8022 22.9595L83.2878 24.1115C83.3924 24.3596 83.6942 24.5608 83.9619 24.5608L83.0975 22.5101ZM81.8348 19.5149C81.5672 19.5149 81.435 19.7161 81.5396 19.9642L82.0252 21.1162C82.1298 21.3644 82.4316 21.5656 82.6993 21.5656L81.8348 19.5149ZM75.764 18.5704C76.0316 18.5704 76.1638 18.3692 76.0592 18.121L75.8164 17.545L76.7209 17.545C76.9886 17.545 77.1208 17.3439 77.0162 17.0957H75.627C75.5904 17.0957 75.5563 17.0995 75.5251 17.1066C75.5134 17.1092 75.5022 17.1124 75.4913 17.1159C75.4278 17.1368 75.3779 17.173 75.3445 17.2204C75.3413 17.2249 75.3382 17.2296 75.3353 17.2344C75.305 17.2839 75.2914 17.3442 75.2972 17.4113C75.2982 17.4228 75.2997 17.4344 75.3019 17.4462C75.3076 17.478 75.3174 17.5111 75.3317 17.545L75.764 18.5704ZM76.1621 19.5149C76.4298 19.5149 76.7316 19.7161 76.8362 19.9642L77.3218 21.1162C77.4265 21.3644 77.2943 21.5656 77.0266 21.5656L76.1621 19.5149ZM77.4247 22.5101C77.6924 22.5101 77.9942 22.7113 78.0988 22.9595L78.5845 24.1115C78.6891 24.3596 78.5569 24.5608 78.2892 24.5608L77.4247 22.5101ZM78.6874 25.5054C78.955 25.5054 79.2568 25.7065 79.3615 25.9547L79.8471 27.1067C79.9517 27.3548 79.8195 27.556 79.5518 27.556L78.6874 25.5054ZM79.95 28.5006C80.2177 28.5006 80.5195 28.7017 80.6241 28.9499L81.1097 30.1019C81.2143 30.3501 81.0821 30.5512 80.8144 30.5512L79.95 28.5006ZM81.2126 31.4958C81.4803 31.4958 81.7821 31.697 81.8867 31.9451L82.3723 33.0971C82.4769 33.3453 82.3447 33.5464 82.077 33.5464L81.2126 31.4958ZM78.9412 17.0957C79.0458 17.3439 79.3476 17.545 79.6153 17.545H80.5198L80.7626 18.121C80.8672 18.3692 81.169 18.5704 81.4367 18.5704L81.0044 17.545C80.9901 17.5111 80.9721 17.478 80.9511 17.4462C80.9432 17.4344 80.9349 17.4228 80.9263 17.4113C80.8755 17.3442 80.811 17.2839 80.739 17.2344C80.7321 17.2296 80.7251 17.2249 80.718 17.2204C80.6446 17.173 80.5643 17.1368 80.4831 17.1159C80.4693 17.1124 80.4554 17.1092 80.4415 17.1066C80.4042 17.0995 80.367 17.0957 80.3304 17.0957H78.9412ZM88.1479 34.491C87.8802 34.491 87.748 34.6922 87.8526 34.9403L88.0954 35.5163H87.191C86.9233 35.5163 86.7911 35.7175 86.8957 35.9657H88.2848C88.3215 35.9657 88.3555 35.9619 88.3868 35.9548C88.3985 35.9521 88.4097 35.949 88.4206 35.9454C88.4841 35.9245 88.5339 35.8884 88.5674 35.841C88.5706 35.8364 88.5737 35.8317 88.5766 35.827C88.6068 35.7774 88.6204 35.7171 88.6147 35.65C88.6137 35.6386 88.6121 35.6269 88.61 35.6151C88.6043 35.5833 88.5944 35.5503 88.5801 35.5163L88.1479 34.491Z" fill="#688FB7"/>
<path fill-rule="evenodd" clip-rule="evenodd" d="M91.8125 35.9548C91.7987 35.9521 91.7848 35.949 91.7709 35.9454C91.6898 35.9245 91.6094 35.8884 91.5361 35.841C91.529 35.8364 91.5219 35.8317 91.515 35.827C91.443 35.7774 91.3786 35.7171 91.3278 35.65C91.3191 35.6386 91.3108 35.6269 91.303 35.6151C91.2819 35.5833 91.2639 35.5503 91.2496 35.5163L90.8174 34.491C91.085 34.491 91.3868 34.6922 91.4915 34.9403L91.7343 35.5163H92.6388C92.9064 35.5163 93.2082 35.7175 93.3128 35.9657H91.9237C91.8871 35.9657 91.8498 35.9619 91.8125 35.9548ZM95.2275 31.4958C94.9598 31.4958 94.8276 31.697 94.9322 31.9451L95.4178 33.0971C95.5224 33.3453 95.8242 33.5464 96.0919 33.5464L95.2275 31.4958ZM93.9648 28.5006C93.6972 28.5006 93.565 28.7017 93.6696 28.9499L94.1552 30.1019C94.2598 30.3501 94.5616 30.5512 94.8293 30.5512L93.9648 28.5006ZM92.7022 25.5054C92.4345 25.5054 92.3023 25.7065 92.407 25.9547L92.8926 27.1067C92.9972 27.3548 93.299 27.556 93.5667 27.556L92.7022 25.5054ZM91.4396 22.5101C91.1719 22.5101 91.0397 22.7113 91.1443 22.9595L91.63 24.1115C91.7346 24.3596 92.0364 24.5608 92.3041 24.5608L91.4396 22.5101ZM90.177 19.5149C89.9093 19.5149 89.7771 19.7161 89.8817 19.9642L90.3673 21.1162C90.472 21.3644 90.7738 21.5656 91.0414 21.5656L90.177 19.5149ZM84.1061 18.5704C84.3738 18.5704 84.506 18.3692 84.4014 18.121L84.1586 17.545L85.0631 17.545C85.3308 17.545 85.463 17.3439 85.3584 17.0957H83.9692C83.9326 17.0957 83.8985 17.0995 83.8672 17.1066C83.8556 17.1092 83.8443 17.1124 83.8335 17.1159C83.7699 17.1368 83.7201 17.173 83.6867 17.2204C83.6834 17.2249 83.6804 17.2296 83.6774 17.2344C83.6472 17.2839 83.6336 17.3442 83.6394 17.4113C83.6403 17.4228 83.6419 17.4344 83.644 17.4462C83.6497 17.478 83.6596 17.5111 83.6739 17.545L84.1061 18.5704ZM84.5043 19.5149C84.772 19.5149 85.0738 19.7161 85.1784 19.9642L85.664 21.1162C85.7686 21.3644 85.6364 21.5656 85.3687 21.5656L84.5043 19.5149ZM85.7669 22.5101C86.0346 22.5101 86.3364 22.7113 86.441 22.9595L86.9266 24.1115C87.0312 24.3596 86.899 24.5608 86.6314 24.5608L85.7669 22.5101ZM87.0295 25.5054C87.2972 25.5054 87.599 25.7065 87.7036 25.9547L88.1892 27.1067C88.2938 27.3548 88.1616 27.556 87.894 27.556L87.0295 25.5054ZM88.2921 28.5006C88.5598 28.5006 88.8616 28.7017 88.9662 28.9499L89.4519 30.1019C89.5565 30.3501 89.4243 30.5512 89.1566 30.5512L88.2921 28.5006ZM89.5547 31.4958C89.8224 31.4958 90.1242 31.697 90.2288 31.9451L90.7145 33.0971C90.8191 33.3453 90.6869 33.5464 90.4192 33.5464L89.5547 31.4958ZM87.2833 17.0957C87.388 17.3439 87.6898 17.545 87.9574 17.545H88.8619L89.1047 18.121C89.2093 18.3692 89.5111 18.5704 89.7788 18.5704L89.3466 17.545C89.3323 17.5111 89.3143 17.478 89.2932 17.4462C89.2854 17.4344 89.2771 17.4228 89.2684 17.4113C89.2176 17.3442 89.1532 17.2839 89.0812 17.2344C89.0742 17.2296 89.0672 17.2249 89.0601 17.2204C88.9868 17.173 88.9064 17.1368 88.8253 17.1159C88.8114 17.1124 88.7975 17.1092 88.7837 17.1066C88.7464 17.0995 88.7091 17.0957 88.6725 17.0957H87.2833ZM96.4901 34.491C96.2224 34.491 96.0902 34.6922 96.1948 34.9403L96.4376 35.5163H95.5331C95.2654 35.5163 95.1332 35.7175 95.2378 35.9657H96.627C96.6636 35.9657 96.6977 35.9619 96.729 35.9548C96.7406 35.9521 96.7519 35.949 96.7627 35.9454C96.8263 35.9245 96.8761 35.8884 96.9095 35.841C96.9128 35.8364 96.9158 35.8317 96.9188 35.827C96.949 35.7774 96.9626 35.7171 96.9568 35.65C96.9558 35.6386 96.9543 35.6269 96.9522 35.6151C96.9465 35.5833 96.9366 35.5503 96.9223 35.5163L96.4901 34.491Z" fill="#688FB7"/>
<path d="M56.376 13.2256H41.72C41.496 13.2256 41.2936 13.0896 41.206 12.8817C41.0557 12.5217 41.3129 12.1338 41.7009 12.1338H56.3569C56.5809 12.1338 56.7833 12.2698 56.8709 12.4777C57.0212 12.8377 56.764 13.2256 56.376 13.2256Z" fill="#2A4259"/>
<path d="M75.5648 16.37H68.5048C68.2768 16.37 68.0728 16.234 67.9888 16.022L67.9688 15.978C67.8168 15.61 68.0928 15.206 68.4888 15.21L75.5688 15.254C75.7848 15.254 75.9808 15.382 76.0728 15.578C76.2448 15.946 75.9728 16.37 75.5648 16.37Z" fill="#D5DADD"/>
<path d="M48.8878 39.0014L57.6398 38.9774C62.0398 36.8214 64.9078 33.2054 64.9678 28.9374C65.0798 21.5814 56.8358 15.0854 46.5638 14.4294C43.7998 14.2534 41.1678 14.5174 38.7998 15.1414L40.0358 18.4214L47.5678 38.0934C47.7758 38.6414 48.3038 39.0014 48.8878 39.0014Z" fill="#101619"/>
<path fill-rule="evenodd" clip-rule="evenodd" d="M45.1203 12.9737C45.1203 12.9737 42.1709 21.0769 47.0693 28.2342C51.9677 35.3914 59.1151 38.3296 66.9353 37.5044C74.7554 36.6792 81.1026 29.995 80.1056 20.7351C79.1087 11.4753 74.0103 8.47498 71.0885 6.35164C68.1667 4.22829 60.6674 2.51926 55.5379 3.68278C50.4085 4.8463 45.1168 12.9703 45.1168 12.9703L45.1203 12.9737Z" fill="#8D2A00"/>
<path fill-rule="evenodd" clip-rule="evenodd" d="M60.0498 5.84679C68.8841 5.97799 76.9285 12.3273 78.0186 20.0266C79.1052 27.7259 72.827 33.8577 63.9927 33.7265C55.1584 33.5953 47.114 27.246 46.024 19.5467C44.9374 11.8474 51.2155 5.71559 60.0498 5.84679Z" fill="#4D82B8"/>
<mask id="mask1_4038_87528" style="mask-type:luminance" maskUnits="userSpaceOnUse" x="45" y="5" width="34" height="29">
<path d="M60.0506 5.84679C68.8849 5.97799 76.9292 12.3273 78.0193 20.0266C79.1059 27.7259 72.8277 33.8577 63.9934 33.7265C55.1591 33.5953 47.1148 27.246 46.0247 19.5467C44.9381 11.8474 51.2163 5.71559 60.0506 5.84679Z" fill="white"/>
</mask>
<g mask="url(#mask1_4038_87528)">
<path fill-rule="evenodd" clip-rule="evenodd" d="M60.05 5.84679C68.8843 5.97799 76.9286 12.3273 78.0187 20.0266C79.1053 27.7259 72.8271 33.8577 63.9928 33.7265C55.1585 33.5953 47.1142 27.246 46.0241 19.5467C44.9375 11.8474 51.2157 5.71559 60.05 5.84679Z" fill="#D0C1CB"/>
<path fill-rule="evenodd" clip-rule="evenodd" d="M75.449 -6.18652C76.1217 -5.87924 76.3183 -5.00228 76.715 -4.41534C77.8706 -2.77191 79.0262 -1.12847 80.1818 0.51496C79.2435 1.1675 78.3018 1.82004 77.3601 2.47258L76.6356 0.711757C66.732 7.52372 56.8283 14.3391 46.9212 21.1511C46.1934 22.3906 45.469 23.6301 44.7411 24.8696C43.0991 25.9985 41.4571 27.1275 39.8186 28.2565C39.7358 28.2013 39.653 28.1426 39.5702 28.0874C39.5461 28.2082 39.6013 28.2911 39.484 28.2117C38.6699 27.0033 37.8523 25.7983 37.0383 24.5899C36.8209 24.2723 36.2069 23.6957 36.3069 23.3711L39.5047 21.2098C39.7013 20.1844 39.8945 19.159 40.0911 18.1335L45.2689 14.5428C55.3278 7.63421 65.3867 0.725568 75.4456 -6.18307L75.449 -6.18652ZM95.8393 9.00143C97.0225 10.7001 98.2057 12.3988 99.3854 14.0975C99.689 14.4945 100.624 15.2886 100.4 15.8617C90.2579 22.7945 80.1162 29.7308 69.9711 36.6671C67.5461 38.3519 65.1176 40.0402 62.6891 41.7251C62.2027 42.0876 60.6228 43.5861 59.9985 43.3513L56.6972 38.383C56.3109 37.8237 55.8314 37.4335 55.5554 36.7396C68.9811 27.4935 82.4067 18.244 95.8324 8.99453L95.8393 9.00143Z" fill="#D5DADD"/>
</g>
<path d="M64.8414 34.8217C64.7448 34.8217 64.6516 34.8217 64.5551 34.8217C54.8998 34.6767 46.0344 27.3675 44.7891 18.522C44.2096 14.4134 45.3411 10.5051 47.9731 7.51857C50.8707 4.23171 55.3689 2.39147 60.2914 2.46398C69.9467 2.60899 78.812 9.91813 80.0573 18.7637C80.6369 22.8723 79.5054 26.7806 76.8734 29.7671C74.031 32.9918 69.6569 34.8251 64.8379 34.8251L64.8414 34.8217ZM60.0051 4.33528C55.7242 4.33528 51.8607 5.94074 49.377 8.75806C47.1141 11.3268 46.1413 14.7 46.645 18.2596C47.7661 26.2247 55.8139 32.8123 64.5826 32.9435C64.6689 32.9435 64.7551 32.9435 64.8414 32.9435C69.1223 32.9435 72.9858 31.338 75.4694 28.5207C77.7323 25.952 78.7051 22.5788 78.2015 19.0192C77.0804 11.054 69.0326 4.46648 60.2638 4.33528C60.1776 4.33528 60.0913 4.33528 60.0051 4.33528Z" fill="#C35500"/>
<path fill-rule="evenodd" clip-rule="evenodd" d="M74.4871 60.9575C74.4871 60.9575 66.1668 38.1807 65.9219 37.5282C65.677 36.8722 65.7977 35.2012 67.4225 34.8007C69.0472 34.3967 69.9993 36.0885 70.3477 36.886C70.6961 37.6836 79.7098 59.7871 79.7098 59.7871L77.5745 60.5466L74.4871 60.961V60.9575Z" fill="#C35500"/>
<path fill-rule="evenodd" clip-rule="evenodd" d="M76.3834 57.7918L67.318 34.7354C67.318 34.7354 65.1999 35.5502 65.9209 37.525C66.6453 39.4999 74.4585 60.9474 74.4344 60.8853C74.4102 60.8231 75.1657 59.3731 76.7076 58.7896L76.3799 57.7918H76.3834Z" fill="#8D2A00"/>
<path fill-rule="evenodd" clip-rule="evenodd" d="M76.3937 57.7883L67.3145 34.6904C67.3145 34.6904 65.1896 35.5052 65.914 37.487C66.6384 39.4654 74.4654 60.9509 74.4447 60.8887C74.424 60.8266 75.176 59.3765 76.7214 58.7895L76.3937 57.7917V57.7883Z" fill="#8D2A00"/>
<path fill-rule="evenodd" clip-rule="evenodd" d="M79.6677 59.5664L78.3327 56.4038C78.3327 56.4038 77.2496 55.1505 75.442 55.6787C73.6345 56.207 73.3619 57.9367 73.3619 57.9367L74.4382 60.8887L79.6712 59.5698L79.6677 59.5664Z" fill="#C35500"/>
<mask id="mask2_4038_87528" style="mask-type:luminance" maskUnits="userSpaceOnUse" x="73" y="55" width="7" height="6">
<path d="M79.6677 59.5664L78.3327 56.4038C78.3327 56.4038 77.2496 55.1505 75.442 55.6787C73.6345 56.207 73.3619 57.9367 73.3619 57.9367L74.4382 60.8887L79.6712 59.5698L79.6677 59.5664Z" fill="white"/>
</mask>
<g mask="url(#mask2_4038_87528)">
<path fill-rule="evenodd" clip-rule="evenodd" d="M75.4008 55.2959L76.515 58.2168L75.1421 61.7074L74.6661 62.5843L73.1965 60.675L72.0616 56.5975L75.4008 55.2959Z" fill="#8D2A00"/>
</g>
<path fill-rule="evenodd" clip-rule="evenodd" d="M77.0706 57.7952C78.5746 57.8194 79.7819 58.9001 79.7613 60.212C79.7406 61.524 78.5056 62.5702 76.9982 62.5494C75.4907 62.5287 74.2868 61.4446 74.3075 60.1326C74.3282 58.8206 75.5632 57.7745 77.0672 57.7952H77.0706Z" fill="#8D2A00"/>
<path d="M57.0935 16.3919L58.8563 17.1825C58.8563 17.1825 59.1909 15.912 60.2844 15.1282C61.1399 14.5137 62.6577 14.2927 63.9512 15.3319C66.5246 17.4 64.8447 19.0055 64.1168 20.7905C63.7546 21.6743 63.7512 22.717 64.3652 23.6527L66.0589 23.3005C66.0589 23.3005 65.6519 23.007 65.7692 21.8366C65.8312 21.2082 66.5453 20.4452 66.9972 19.1436C67.9389 16.4506 65.3173 13.3156 62.1851 13.0256C60.2809 12.8495 58.2871 13.54 57.0901 16.4022L57.0935 16.3919Z" fill="#00144A"/>
<path d="M67.4542 26.9561C67.9082 26.5235 67.8375 25.7116 67.2963 25.1426C66.7551 24.5736 65.9483 24.463 65.4944 24.8955C65.0404 25.3281 65.1111 26.14 65.6523 26.709C66.1935 27.278 67.0002 27.3886 67.4542 26.9561Z" fill="#00144A"/>
</svg>
