<svg width="129" height="128" viewBox="0 0 129 128" fill="none" xmlns="http://www.w3.org/2000/svg">
<path d="M19.8178 30.5096L32.9085 77.654C33.1889 78.6668 34.1805 79.3221 35.2371 79.1881L124.723 68.4495C128.004 67.6254 128.94 65.004 128.494 63.7381L77.0131 23.5939C76.6976 22.7002 75.8212 22.1243 74.8697 22.1839L22.3969 23.713C21.0497 23.7974 18.3455 25.7187 19.8128 30.5146L19.8178 30.5096Z" fill="#00144A"/>
<path d="M20.5058 26.367L34.2425 75.8299C34.5229 76.8427 35.5145 77.498 36.5711 77.364L126.758 66.5361C128.101 66.3623 128.942 65.0119 128.496 63.7459L111.149 19.5704C110.833 18.6768 109.957 18.1009 109.005 18.1605L22.4238 23.701C21.0767 23.7854 20.1452 25.0762 20.5058 26.367Z" fill="#4D82B8"/>
<path d="M52.1666 70.2685L41.3082 71.6291C40.2273 71.763 39.1464 71.1427 38.8905 70.2333L27.8678 31.1778C27.6402 30.3601 28.2873 29.6269 29.3255 29.5353L39.7359 28.6188C40.7528 28.5272 41.7697 29.1123 42.0114 29.9159L53.5959 68.4145C53.8661 69.3028 53.219 70.1346 52.1666 70.2685Z" stroke="#D5DADD" stroke-width="2.14518"/>
<path d="M75.2469 67.3791L64.8934 68.6692C63.8623 68.796 62.8028 68.1898 62.5255 67.3086L50.7917 29.1274C50.5357 28.3308 51.133 27.6188 52.1214 27.5271L62.0696 26.653C63.0367 26.5684 64.0394 27.1324 64.3025 27.9219L76.5411 65.5815C76.8327 66.4486 76.2567 67.2522 75.2469 67.3791Z" stroke="#D5DADD" stroke-width="2.14518"/>
<path d="M97.9714 65.088L88.0872 66.3216C87.1059 66.4415 86.0677 65.8493 85.7619 64.9963L73.259 27.4647C72.9888 26.6892 73.5292 25.9913 74.475 25.9067L83.9894 25.0749C84.9138 24.9903 85.8951 25.5472 86.1796 26.3156L99.1447 63.3467C99.4576 64.1856 98.9314 64.9681 97.9714 65.088Z" stroke="#D5DADD" stroke-width="2.14518"/>
<path d="M120.482 62.0958L111.06 63.2731C110.121 63.3929 109.104 62.8078 108.784 61.9759L95.0111 25.7766C94.7196 25.0224 95.2173 24.3456 96.1204 24.261L105.23 23.4644C106.118 23.3869 107.078 23.9297 107.377 24.6769L121.548 60.4039C121.875 61.2216 121.399 61.983 120.482 62.0958Z" stroke="#D5DADD" stroke-width="2.14518"/>
<path d="M80.7515 106.969L53.3582 98.5393C57.8154 95.348 55.0783 91.666 46.7122 89.4206C37.139 86.848 21.9854 86.6978 11.3598 89.2394C-0.733823 92.1345 -3.35154 97.5713 7.68531 101.183C19.1466 104.931 38.3506 104.537 48.9762 100.701L74.4634 109.524L77.5631 108.995C78.1345 108.306 78.4476 109.055 79.3408 108.516C80.9945 107.384 81.8612 106.641 81.587 106.504H80.7515V106.969Z" fill="#101619"/>
<path d="M84.4684 39.8897C86.2877 47.4982 83.2905 55.3338 79.5475 60.9279C76.1798 65.9545 70.4989 69.4964 63.0604 70.3854C46.6541 72.3431 29.0936 60.6583 24.6667 44.8265C20.2397 28.9946 29.9628 13.9241 45.5427 13.2053C60.5097 12.5149 79.4478 25.8689 84.4684 39.8897Z" fill="#8D2A00"/>
<path d="M83.3715 35.9787C88.5917 50.5527 80.7163 64.2566 65.0035 66.134C48.5972 68.0917 31.0366 56.4069 26.6097 40.5751C22.1827 24.7432 32.1576 12.9308 47.7422 12.212C62.7093 11.5216 78.3556 21.9627 83.3763 35.9787H83.3715Z" fill="#C35500"/>
<path d="M79.8724 36.2618C84.3516 48.9395 77.4072 60.7614 63.7844 62.3172C49.639 63.9297 34.5247 53.8716 30.644 40.2528C26.9011 27.1164 35.2847 16.2308 48.8125 15.5451C61.8749 14.8878 75.5452 24.0096 79.8772 36.2618H79.8724Z" fill="#D0C1CB"/>
<path d="M83.1831 107.065L74.2342 109.439L60.0176 64.2085L68.4012 63.2344L83.1831 107.065Z" fill="#C35500"/>
<path d="M30.1719 30.0436L48.6729 15.5547C38.9545 16.0985 31.9199 21.9149 30.1719 30.0436Z" fill="#D0C1CB"/>
<path d="M63.7849 62.3191C75.8023 60.9477 82.6184 51.5895 80.9845 40.6992L51.3828 60.9194C55.3965 62.2529 59.6335 62.7919 63.7849 62.3191Z" fill="#D5DADD"/>
<path d="M65.2868 19.6375L65.2773 19.6328L65.2868 19.6375Z" fill="#D0C1CB"/>
<path d="M48.8047 15.5446C49.1894 15.5258 49.5694 15.5164 49.9542 15.5117C49.5694 15.5117 49.1894 15.5258 48.8047 15.5446Z" fill="#D0C1CB"/>
<path d="M61.2383 17.7109C61.357 17.7582 61.4758 17.8055 61.5898 17.8528C61.471 17.8055 61.357 17.7582 61.2383 17.7109Z" fill="#D0C1CB"/>
<path d="M62.3164 18.1562C62.3972 18.1941 62.4779 18.2319 62.5587 18.265C62.4779 18.2272 62.3972 18.1894 62.3164 18.1562Z" fill="#D0C1CB"/>
<path d="M60.1445 17.3008C60.2775 17.3481 60.4153 17.3954 60.5483 17.4474C60.4153 17.3954 60.2823 17.3481 60.1445 17.3008Z" fill="#D0C1CB"/>
<path d="M52.7559 15.6445C52.9744 15.6633 53.1929 15.6868 53.4161 15.715C53.1976 15.6915 52.9791 15.668 52.7559 15.6445Z" fill="#D0C1CB"/>
<path d="M51.5723 15.5547C51.8003 15.5688 52.033 15.5782 52.261 15.597C52.033 15.5782 51.8003 15.5641 51.5723 15.5547Z" fill="#D0C1CB"/>
<path d="M53.916 15.7656C54.1298 15.7938 54.3483 15.8267 54.562 15.8596C54.3483 15.8267 54.1345 15.7938 53.916 15.7656Z" fill="#D0C1CB"/>
<path d="M50.3398 15.5117C50.5963 15.5117 50.8481 15.5164 51.1046 15.5258C50.8481 15.5164 50.5916 15.5117 50.3398 15.5117Z" fill="#D0C1CB"/>
<path d="M81.192 42.6596C80.489 28.5774 66.8994 17.3135 53.4095 15.6348C48.7166 15.2045 40.4659 15.2045 34.4763 21.6876C33.8018 22.4158 33.17 23.267 32.581 24.1655C32.4813 24.3168 32.4243 24.4208 32.334 24.5674C32.3198 24.5863 32.315 24.61 32.3008 24.6336C39.4019 16.1171 50.7543 15.5733 60.7862 19.5455C71.1696 23.6548 80.1375 32.6063 81.192 42.6691V42.6596Z" fill="#8D2A00"/>
<path d="M46.4507 17.2941L30.1726 30.0428C29.5029 33.1638 29.6074 36.6205 30.6428 40.2522C30.7283 40.5548 30.8233 40.8527 30.9231 41.1506L62.42 20.2448C57.2615 17.9419 51.6756 16.7976 46.4507 17.2941Z" fill="#D5DADD"/>
<path d="M56.6055 65.9932L61.4837 68.873C61.4837 68.873 60.4672 66.3621 63.8111 66.0169V65.9648C62.4716 66.1682 59.7737 66.4377 56.6055 65.9885V65.9932Z" fill="#8D2A00"/>
<path d="M67.3555 65.515C68.0347 65.5434 69.2222 66.0446 69.7874 67.4869L70.5949 64.8672C70.5949 64.8672 69.8492 65.2266 67.3555 65.5103V65.515Z" fill="#8D2A00"/>
<path d="M74.2346 109.44L60.9062 67.0847L61.804 66.1863C61.804 66.1863 63.5092 66.087 65.4472 65.6992C65.4472 65.6992 64.7775 66.4511 64.9722 67.4914C65.7512 71.5771 78.424 108.646 78.424 108.646L74.2298 109.44H74.2346Z" fill="#8D2A00"/>
<path d="M83.1836 107.063C83.1836 107.555 80.8751 108.373 77.0989 109.343C75.2322 109.716 74.3154 109.669 74.2347 109.437C74.1777 109.272 75.1989 108.633 77.0514 108.037C79.8254 107.172 82.8701 106.685 83.1836 107.063Z" fill="#8D2A00"/>
<path d="M58.5124 39.3899C59.7664 38.1273 60.9348 36.8458 60.2081 34.6186C59.4006 32.1455 57.0446 30.9254 54.2944 31.1146C51.4587 31.3085 50.0765 32.7271 49.2975 34.5288L46.666 32.7744C47.6065 30.6843 49.497 28.911 53.4584 28.6509C58.1894 28.3388 61.8801 30.4951 63.1246 34.2403C64.1553 37.3565 62.7778 39.0731 61.2056 40.8227C59.7616 42.4116 59.0206 43.2486 59.5194 44.8043L59.6239 45.1259L56.7359 45.386L56.6314 45.0644C55.7337 42.2366 57.1301 40.7754 58.5124 39.3946V39.3899ZM58.9304 47.4997C60.1226 47.391 61.3101 48.1807 61.6806 49.3297C62.0511 50.4788 61.4288 51.4577 60.2319 51.5759C59.0159 51.6941 57.8379 50.9139 57.4674 49.7317C57.0969 48.5495 57.7191 47.6085 58.9304 47.495V47.4997Z" fill="#00144A"/>
</svg>
