<svg width="128" height="64" viewBox="0 0 128 64" fill="none" xmlns="http://www.w3.org/2000/svg">
<path d="M118.4 0.949219H9.6C4.29807 0.949219 0 5.23171 0 10.5144V46.384C0 51.6667 4.29807 55.9492 9.6 55.9492H118.4C123.702 55.9492 128 51.6667 128 46.384V10.5144C128 5.23171 123.702 0.949219 118.4 0.949219Z" fill="#89D1FF"/>
<mask id="mask0_4011_79945" style="mask-type:alpha" maskUnits="userSpaceOnUse" x="0" y="0" width="128" height="56">
<path d="M118.4 0.949219H9.6C4.29807 0.949219 0 5.23171 0 10.5144V46.384C0 51.6667 4.29807 55.9492 9.6 55.9492H118.4C123.702 55.9492 128 51.6667 128 46.384V10.5144C128 5.23171 123.702 0.949219 118.4 0.949219Z" fill="#89D1FF"/>
</mask>
<g mask="url(#mask0_4011_79945)">
<path d="M79.485 59.0643L74.873 61.0331L53.125 44.3936C54.317 44.1186 55.453 43.752 56.509 43.3096L79.481 59.0643H79.485Z" fill="#1B90FF"/>
<path d="M46.3967 18.412C56.6687 19.0696 64.9127 25.5381 64.8007 32.8674C64.7327 37.4229 61.4527 41.237 56.5167 43.3135L55.0407 42.2971L51.2407 42.9468L53.1327 44.3935C50.9327 44.9037 48.5247 45.1069 46.0047 44.9435C35.7327 44.2859 27.4927 37.8174 27.6007 30.4881C27.7127 23.1627 36.1287 17.7544 46.4007 18.408L46.3967 18.412Z" fill="#1B90FF"/>
<path d="M55.0368 42.293L56.5128 43.3093C55.4528 43.7517 54.3208 44.1183 53.1288 44.3933L51.2368 42.9466L55.0368 42.297V42.293Z" fill="#1B90FF"/>
</g>
<path d="M98.7609 41.0541L48.5289 41.1941C48.0369 41.1941 47.5929 40.8901 47.4169 40.4301L36.8769 12.8981C36.5809 12.1181 37.1529 11.2861 37.9889 11.2861L88.2449 11.3381L100.217 38.8301C100.673 39.8821 99.9049 41.0581 98.7609 41.0581V41.0541Z" fill="#00144A"/>
<path d="M98.7628 40.3881L48.5308 40.5281C48.0388 40.5281 47.5948 40.2241 47.4188 39.7641L36.8788 12.2321C36.5828 11.4521 37.1548 10.6201 37.9908 10.6201L88.2468 10.6721L100.219 38.1641C100.675 39.2161 99.9068 40.3921 98.7628 40.3921V40.3881Z" fill="#00144A"/>
<path d="M99.2948 39.3677L48.9388 39.5077C48.3548 39.5077 47.8268 39.1477 47.6188 38.5997L37.2508 11.5117C36.8988 10.5877 37.5788 9.5957 38.5708 9.5957L87.5788 9.6437C88.1388 9.6437 88.6468 9.9757 88.8708 10.4917L100.587 37.3917C100.991 38.3237 100.311 39.3637 99.2988 39.3637L99.2948 39.3677Z" fill="white"/>
<path fill-rule="evenodd" clip-rule="evenodd" d="M49.9279 36.4548C49.9141 36.4521 49.9002 36.449 49.8863 36.4454C49.8052 36.4245 49.7249 36.3884 49.6515 36.341C49.6444 36.3364 49.6374 36.3317 49.6304 36.327C49.5584 36.2774 49.494 36.2171 49.4432 36.15C49.4345 36.1386 49.4262 36.1269 49.4184 36.1151C49.3973 36.0833 49.3793 36.0503 49.365 36.0163L48.9328 34.991C49.2005 34.991 49.5023 35.1922 49.6069 35.4403L49.8497 36.0163H50.7542C51.0219 36.0163 51.3237 36.2175 51.4283 36.4657H50.0391C50.0025 36.4657 49.9652 36.4619 49.9279 36.4548ZM53.3429 31.9958C53.0752 31.9958 52.943 32.197 53.0476 32.4451L53.5332 33.5971C53.6378 33.8453 53.9396 34.0464 54.2073 34.0464L53.3429 31.9958ZM52.0803 29.0006C51.8126 29.0006 51.6804 29.2017 51.785 29.4499L52.2706 30.6019C52.3752 30.8501 52.677 31.0512 52.9447 31.0512L52.0803 29.0006ZM50.8176 26.0054C50.55 26.0054 50.4178 26.2065 50.5224 26.4547L51.008 27.6067C51.1126 27.8548 51.4144 28.056 51.6821 28.056L50.8176 26.0054ZM49.555 23.0101C49.2874 23.0101 49.1552 23.2113 49.2598 23.4595L49.7454 24.6115C49.85 24.8596 50.1518 25.0608 50.4195 25.0608L49.555 23.0101ZM48.2924 20.0149C48.0247 20.0149 47.8925 20.2161 47.9971 20.4642L48.4828 21.6162C48.5874 21.8644 48.8892 22.0656 49.1569 22.0656L48.2924 20.0149ZM42.2215 19.0704C42.4892 19.0704 42.6214 18.8692 42.5168 18.621L42.274 18.045L43.1785 18.045C43.4462 18.045 43.5784 17.8439 43.4738 17.5957H42.0846C42.048 17.5957 42.0139 17.5995 41.9826 17.6066C41.971 17.6092 41.9597 17.6124 41.9489 17.6159C41.8853 17.6368 41.8355 17.673 41.8021 17.7204C41.7989 17.7249 41.7958 17.7296 41.7929 17.7344C41.7626 17.7839 41.749 17.8442 41.7548 17.9113C41.7558 17.9228 41.7573 17.9344 41.7594 17.9462C41.7651 17.978 41.775 18.0111 41.7893 18.045L42.2215 19.0704ZM42.6197 20.0149C42.8874 20.0149 43.1892 20.2161 43.2938 20.4642L43.7794 21.6162C43.884 21.8644 43.7518 22.0656 43.4842 22.0656L42.6197 20.0149ZM43.8823 23.0101C44.15 23.0101 44.4518 23.2113 44.5564 23.4595L45.042 24.6115C45.1467 24.8596 45.0145 25.0608 44.7468 25.0608L43.8823 23.0101ZM45.1449 26.0054C45.4126 26.0054 45.7144 26.2065 45.819 26.4547L46.3047 27.6067C46.4093 27.8548 46.2771 28.056 46.0094 28.056L45.1449 26.0054ZM46.4076 29.0006C46.6752 29.0006 46.977 29.2017 47.0816 29.4499L47.5673 30.6019C47.6719 30.8501 47.5397 31.0512 47.272 31.0512L46.4076 29.0006ZM47.6702 31.9958C47.9379 31.9958 48.2397 32.197 48.3443 32.4451L48.8299 33.5971C48.9345 33.8453 48.8023 34.0464 48.5346 34.0464L47.6702 31.9958ZM45.3988 17.5957C45.5034 17.8439 45.8052 18.045 46.0729 18.045H46.9773L47.2202 18.621C47.3248 18.8692 47.6266 19.0704 47.8942 19.0704L47.462 18.045C47.4477 18.0111 47.4297 17.978 47.4086 17.9462C47.4008 17.9344 47.3925 17.9228 47.3838 17.9113C47.333 17.8442 47.2686 17.7839 47.1966 17.7344C47.1897 17.7296 47.1826 17.7249 47.1756 17.7204C47.1022 17.673 47.0218 17.6368 46.9407 17.6159C46.9268 17.6124 46.913 17.6092 46.8991 17.6066C46.8618 17.5995 46.8245 17.5957 46.7879 17.5957H45.3988ZM54.6055 34.991C54.3378 34.991 54.2056 35.1922 54.3102 35.4403L54.553 36.0163H53.6485C53.3808 36.0163 53.2486 36.2175 53.3533 36.4657H54.7424C54.779 36.4657 54.8131 36.4619 54.8444 36.4548C54.856 36.4521 54.8673 36.449 54.8781 36.4454C54.9417 36.4245 54.9915 36.3884 55.0249 36.341C55.0282 36.3364 55.0313 36.3317 55.0342 36.327C55.0644 36.2774 55.078 36.2171 55.0722 36.15C55.0713 36.1386 55.0697 36.1269 55.0676 36.1151C55.0619 36.0833 55.052 36.0503 55.0377 36.0163L54.6055 34.991Z" fill="#00144A"/>
<path fill-rule="evenodd" clip-rule="evenodd" d="M58.2704 36.4548C58.2565 36.4521 58.2426 36.449 58.2287 36.4454C58.1476 36.4245 58.0673 36.3884 57.9939 36.341C57.9868 36.3364 57.9798 36.3317 57.9728 36.327C57.9008 36.2774 57.8364 36.2171 57.7856 36.15C57.7769 36.1386 57.7686 36.1269 57.7608 36.1151C57.7397 36.0833 57.7217 36.0503 57.7074 36.0163L57.2752 34.991C57.5429 34.991 57.8447 35.1922 57.9493 35.4403L58.1921 36.0163H59.0966C59.3643 36.0163 59.6661 36.2175 59.7707 36.4657H58.3815C58.3449 36.4657 58.3076 36.4619 58.2704 36.4548ZM61.6853 31.9958C61.4176 31.9958 61.2854 32.197 61.39 32.4451L61.8756 33.5971C61.9802 33.8453 62.282 34.0464 62.5497 34.0464L61.6853 31.9958ZM60.4227 29.0006C60.155 29.0006 60.0228 29.2017 60.1274 29.4499L60.613 30.6019C60.7176 30.8501 61.0194 31.0512 61.2871 31.0512L60.4227 29.0006ZM59.1601 26.0054C58.8924 26.0054 58.7602 26.2065 58.8648 26.4547L59.3504 27.6067C59.455 27.8548 59.7568 28.056 60.0245 28.056L59.1601 26.0054ZM57.8974 23.0101C57.6298 23.0101 57.4976 23.2113 57.6022 23.4595L58.0878 24.6115C58.1924 24.8596 58.4942 25.0608 58.7619 25.0608L57.8974 23.0101ZM56.6348 20.0149C56.3671 20.0149 56.2349 20.2161 56.3396 20.4642L56.8252 21.6162C56.9298 21.8644 57.2316 22.0656 57.4993 22.0656L56.6348 20.0149ZM50.5639 19.0704C50.8316 19.0704 50.9638 18.8692 50.8592 18.621L50.6164 18.045L51.5209 18.045C51.7886 18.045 51.9208 17.8439 51.8162 17.5957H50.427C50.3904 17.5957 50.3563 17.5995 50.325 17.6066C50.3134 17.6092 50.3022 17.6124 50.2913 17.6159C50.2278 17.6368 50.1779 17.673 50.1445 17.7204C50.1413 17.7249 50.1382 17.7296 50.1353 17.7344C50.105 17.7839 50.0914 17.8442 50.0972 17.9113C50.0982 17.9228 50.0997 17.9344 50.1018 17.9462C50.1075 17.978 50.1174 18.0111 50.1317 18.045L50.5639 19.0704ZM50.9621 20.0149C51.2298 20.0149 51.5316 20.2161 51.6362 20.4642L52.1218 21.6162C52.2264 21.8644 52.0942 22.0656 51.8266 22.0656L50.9621 20.0149ZM52.2247 23.0101C52.4924 23.0101 52.7942 23.2113 52.8988 23.4595L53.3845 24.6115C53.4891 24.8596 53.3569 25.0608 53.0892 25.0608L52.2247 23.0101ZM53.4873 26.0054C53.755 26.0054 54.0568 26.2065 54.1614 26.4547L54.6471 27.6067C54.7517 27.8548 54.6195 28.056 54.3518 28.056L53.4873 26.0054ZM54.75 29.0006C55.0176 29.0006 55.3194 29.2017 55.4241 29.4499L55.9097 30.6019C56.0143 30.8501 55.8821 31.0512 55.6144 31.0512L54.75 29.0006ZM56.0126 31.9958C56.2803 31.9958 56.5821 32.197 56.6867 32.4451L57.1723 33.5971C57.2769 33.8453 57.1447 34.0464 56.877 34.0464L56.0126 31.9958ZM53.7412 17.5957C53.8458 17.8439 54.1476 18.045 54.4153 18.045H55.3198L55.5626 18.621C55.6672 18.8692 55.969 19.0704 56.2367 19.0704L55.8044 18.045C55.7901 18.0111 55.7721 17.978 55.751 17.9462C55.7432 17.9344 55.7349 17.9228 55.7262 17.9113C55.6755 17.8442 55.611 17.7839 55.539 17.7344C55.5321 17.7296 55.525 17.7249 55.518 17.7204C55.4446 17.673 55.3643 17.6368 55.2831 17.6159C55.2692 17.6124 55.2554 17.6092 55.2415 17.6066C55.2042 17.5995 55.167 17.5957 55.1303 17.5957H53.7412ZM62.9479 34.991C62.6802 34.991 62.548 35.1922 62.6526 35.4403L62.8954 36.0163H61.9909C61.7233 36.0163 61.5911 36.2175 61.6957 36.4657H63.0848C63.1214 36.4657 63.1555 36.4619 63.1868 36.4548C63.1984 36.4521 63.2097 36.449 63.2205 36.4454C63.2841 36.4245 63.3339 36.3884 63.3674 36.341C63.3706 36.3364 63.3737 36.3317 63.3766 36.327C63.4068 36.2774 63.4204 36.2171 63.4147 36.15C63.4137 36.1386 63.4121 36.1269 63.41 36.1151C63.4043 36.0833 63.3944 36.0503 63.3801 36.0163L62.9479 34.991Z" fill="#00144A"/>
<path fill-rule="evenodd" clip-rule="evenodd" d="M66.6125 36.4548C66.5986 36.4521 66.5848 36.449 66.5709 36.4454C66.4898 36.4245 66.4094 36.3884 66.336 36.341C66.329 36.3364 66.3219 36.3317 66.315 36.327C66.243 36.2774 66.1786 36.2171 66.1278 36.15C66.1191 36.1386 66.1108 36.1269 66.103 36.1151C66.0819 36.0833 66.0639 36.0503 66.0496 36.0163L65.6174 34.991C65.885 34.991 66.1868 35.1922 66.2914 35.4403L66.5343 36.0163H67.4387C67.7064 36.0163 68.0082 36.2175 68.1128 36.4657H66.7237C66.6871 36.4657 66.6498 36.4619 66.6125 36.4548ZM70.0274 31.9958C69.7598 31.9958 69.6276 32.197 69.7322 32.4451L70.2178 33.5971C70.3224 33.8453 70.6242 34.0464 70.8919 34.0464L70.0274 31.9958ZM68.7648 29.0006C68.4971 29.0006 68.3649 29.2017 68.4696 29.4499L68.9552 30.6019C69.0598 30.8501 69.3616 31.0512 69.6293 31.0512L68.7648 29.0006ZM67.5022 26.0054C67.2345 26.0054 67.1023 26.2065 67.2069 26.4547L67.6926 27.6067C67.7972 27.8548 68.099 28.056 68.3667 28.056L67.5022 26.0054ZM66.2396 23.0101C65.9719 23.0101 65.8397 23.2113 65.9443 23.4595L66.43 24.6115C66.5346 24.8596 66.8364 25.0608 67.104 25.0608L66.2396 23.0101ZM64.977 20.0149C64.7093 20.0149 64.5771 20.2161 64.6817 20.4642L65.1673 21.6162C65.2719 21.8644 65.5737 22.0656 65.8414 22.0656L64.977 20.0149ZM58.9061 19.0704C59.1738 19.0704 59.306 18.8692 59.2014 18.621L58.9586 18.045L59.8631 18.045C60.1307 18.045 60.2629 17.8439 60.1583 17.5957H58.7692C58.7326 17.5957 58.6985 17.5995 58.6672 17.6066C58.6556 17.6092 58.6443 17.6124 58.6335 17.6159C58.5699 17.6368 58.5201 17.673 58.4867 17.7204C58.4834 17.7249 58.4803 17.7296 58.4774 17.7344C58.4472 17.7839 58.4336 17.8442 58.4394 17.9113C58.4403 17.9228 58.4419 17.9344 58.444 17.9462C58.4497 17.978 58.4596 18.0111 58.4739 18.045L58.9061 19.0704ZM59.3043 20.0149C59.572 20.0149 59.8738 20.2161 59.9784 20.4642L60.464 21.6162C60.5686 21.8644 60.4364 22.0656 60.1687 22.0656L59.3043 20.0149ZM60.5669 23.0101C60.8346 23.0101 61.1364 23.2113 61.241 23.4595L61.7266 24.6115C61.8312 24.8596 61.699 25.0608 61.4313 25.0608L60.5669 23.0101ZM61.8295 26.0054C62.0972 26.0054 62.399 26.2065 62.5036 26.4547L62.9892 27.6067C63.0938 27.8548 62.9616 28.056 62.694 28.056L61.8295 26.0054ZM63.0921 29.0006C63.3598 29.0006 63.6616 29.2017 63.7662 29.4499L64.2518 30.6019C64.3564 30.8501 64.2242 31.0512 63.9566 31.0512L63.0921 29.0006ZM64.3547 31.9958C64.6224 31.9958 64.9242 32.197 65.0288 32.4451L65.5145 33.5971C65.6191 33.8453 65.4869 34.0464 65.2192 34.0464L64.3547 31.9958ZM62.0833 17.5957C62.1879 17.8439 62.4897 18.045 62.7574 18.045H63.6619L63.9047 18.621C64.0093 18.8692 64.3111 19.0704 64.5788 19.0704L64.1466 18.045C64.1323 18.0111 64.1143 17.978 64.0932 17.9462C64.0854 17.9344 64.0771 17.9228 64.0684 17.9113C64.0176 17.8442 63.9532 17.7839 63.8812 17.7344C63.8742 17.7296 63.8672 17.7249 63.8601 17.7204C63.7867 17.673 63.7064 17.6368 63.6253 17.6159C63.6114 17.6124 63.5975 17.6092 63.5837 17.6066C63.5464 17.5995 63.5091 17.5957 63.4725 17.5957H62.0833ZM71.2901 34.991C71.0224 34.991 70.8902 35.1922 70.9948 35.4403L71.2376 36.0163H70.3331C70.0654 36.0163 69.9332 36.2175 70.0378 36.4657H71.427C71.4636 36.4657 71.4977 36.4619 71.529 36.4548C71.5406 36.4521 71.5519 36.449 71.5627 36.4454C71.6263 36.4245 71.6761 36.3884 71.7095 36.341C71.7127 36.3364 71.7158 36.3317 71.7187 36.327C71.749 36.2774 71.7626 36.2171 71.7568 36.15C71.7558 36.1386 71.7543 36.1269 71.7522 36.1151C71.7465 36.0833 71.7366 36.0503 71.7223 36.0163L71.2901 34.991Z" fill="#00144A"/>
<path fill-rule="evenodd" clip-rule="evenodd" d="M75.1281 36.4548C75.1143 36.4521 75.1004 36.449 75.0865 36.4454C75.0054 36.4245 74.9251 36.3884 74.8517 36.341C74.8446 36.3364 74.8376 36.3317 74.8306 36.327C74.7586 36.2774 74.6942 36.2171 74.6434 36.15C74.6347 36.1386 74.6264 36.1269 74.6186 36.1151C74.5975 36.0833 74.5795 36.0503 74.5652 36.0163L74.133 34.991C74.4007 34.991 74.7025 35.1922 74.8071 35.4403L75.0499 36.0163H75.9544C76.2221 36.0163 76.5239 36.2175 76.6285 36.4657H75.2393C75.2027 36.4657 75.1654 36.4619 75.1281 36.4548ZM78.5431 31.9958C78.2754 31.9958 78.1432 32.197 78.2478 32.4451L78.7334 33.5971C78.838 33.8453 79.1398 34.0464 79.4075 34.0464L78.5431 31.9958ZM77.2805 29.0006C77.0128 29.0006 76.8806 29.2017 76.9852 29.4499L77.4708 30.6019C77.5754 30.8501 77.8772 31.0512 78.1449 31.0512L77.2805 29.0006ZM76.0178 26.0054C75.7502 26.0054 75.618 26.2065 75.7226 26.4547L76.2082 27.6067C76.3128 27.8548 76.6146 28.056 76.8823 28.056L76.0178 26.0054ZM74.7552 23.0101C74.4875 23.0101 74.3553 23.2113 74.46 23.4595L74.9456 24.6115C75.0502 24.8596 75.352 25.0608 75.6197 25.0608L74.7552 23.0101ZM73.4926 20.0149C73.2249 20.0149 73.0927 20.2161 73.1973 20.4642L73.683 21.6162C73.7876 21.8644 74.0894 22.0656 74.3571 22.0656L73.4926 20.0149ZM67.4217 19.0704C67.6894 19.0704 67.8216 18.8692 67.717 18.621L67.4742 18.045L68.3787 18.045C68.6464 18.045 68.7786 17.8439 68.674 17.5957H67.2848C67.2482 17.5957 67.2141 17.5995 67.1828 17.6066C67.1712 17.6092 67.1599 17.6124 67.1491 17.6159C67.0855 17.6368 67.0357 17.673 67.0023 17.7204C66.999 17.7249 66.996 17.7296 66.993 17.7344C66.9628 17.7839 66.9492 17.8442 66.955 17.9113C66.956 17.9228 66.9575 17.9344 66.9596 17.9462C66.9653 17.978 66.9752 18.0111 66.9895 18.045L67.4217 19.0704ZM67.8199 20.0149C68.0876 20.0149 68.3894 20.2161 68.494 20.4642L68.9796 21.6162C69.0842 21.8644 68.952 22.0656 68.6844 22.0656L67.8199 20.0149ZM69.0825 23.0101C69.3502 23.0101 69.652 23.2113 69.7566 23.4595L70.2422 24.6115C70.3468 24.8596 70.2146 25.0608 69.947 25.0608L69.0825 23.0101ZM70.3451 26.0054C70.6128 26.0054 70.9146 26.2065 71.0192 26.4547L71.5049 27.6067C71.6095 27.8548 71.4773 28.056 71.2096 28.056L70.3451 26.0054ZM71.6078 29.0006C71.8754 29.0006 72.1772 29.2017 72.2818 29.4499L72.7675 30.6019C72.8721 30.8501 72.7399 31.0512 72.4722 31.0512L71.6078 29.0006ZM72.8704 31.9958C73.138 31.9958 73.4398 32.197 73.5445 32.4451L74.0301 33.5971C74.1347 33.8453 74.0025 34.0464 73.7348 34.0464L72.8704 31.9958ZM70.599 17.5957C70.7036 17.8439 71.0054 18.045 71.2731 18.045H72.1775L72.4203 18.621C72.525 18.8692 72.8268 19.0704 73.0944 19.0704L72.6622 18.045C72.6479 18.0111 72.6299 17.978 72.6088 17.9462C72.601 17.9344 72.5927 17.9228 72.584 17.9113C72.5332 17.8442 72.4688 17.7839 72.3968 17.7344C72.3899 17.7296 72.3828 17.7249 72.3757 17.7204C72.3024 17.673 72.222 17.6368 72.1409 17.6159C72.127 17.6124 72.1132 17.6092 72.0993 17.6066C72.062 17.5995 72.0247 17.5957 71.9881 17.5957H70.599ZM79.8057 34.991C79.538 34.991 79.4058 35.1922 79.5104 35.4403L79.7532 36.0163H78.8487C78.581 36.0163 78.4488 36.2175 78.5535 36.4657H79.9426C79.9792 36.4657 80.0133 36.4619 80.0446 36.4548C80.0562 36.4521 80.0675 36.449 80.0783 36.4454C80.1419 36.4245 80.1917 36.3884 80.2251 36.341C80.2284 36.3364 80.2314 36.3317 80.2344 36.327C80.2646 36.2774 80.2782 36.2171 80.2724 36.15C80.2715 36.1386 80.2699 36.1269 80.2678 36.1151C80.2621 36.0833 80.2522 36.0503 80.2379 36.0163L79.8057 34.991Z" fill="#00144A"/>
<path fill-rule="evenodd" clip-rule="evenodd" d="M83.4703 36.4548C83.4564 36.4521 83.4425 36.449 83.4287 36.4454C83.3475 36.4245 83.2672 36.3884 83.1938 36.341C83.1867 36.3364 83.1797 36.3317 83.1728 36.327C83.1008 36.2774 83.0363 36.2171 82.9855 36.15C82.9769 36.1386 82.9686 36.1269 82.9607 36.1151C82.9397 36.0833 82.9217 36.0503 82.9074 36.0163L82.4751 34.991C82.7428 34.991 83.0446 35.1922 83.1492 35.4403L83.392 36.0163H84.2965C84.5642 36.0163 84.866 36.2175 84.9706 36.4657H83.5815C83.5448 36.4657 83.5076 36.4619 83.4703 36.4548ZM86.8852 31.9958C86.6175 31.9958 86.4853 32.197 86.59 32.4451L87.0756 33.5971C87.1802 33.8453 87.482 34.0464 87.7497 34.0464L86.8852 31.9958ZM85.6226 29.0006C85.3549 29.0006 85.2227 29.2017 85.3273 29.4499L85.813 30.6019C85.9176 30.8501 86.2194 31.0512 86.4871 31.0512L85.6226 29.0006ZM84.36 26.0054C84.0923 26.0054 83.9601 26.2065 84.0647 26.4547L84.5504 27.6067C84.655 27.8548 84.9568 28.056 85.2244 28.056L84.36 26.0054ZM83.0974 23.0101C82.8297 23.0101 82.6975 23.2113 82.8021 23.4595L83.2877 24.6115C83.3923 24.8596 83.6941 25.0608 83.9618 25.0608L83.0974 23.0101ZM81.8348 20.0149C81.5671 20.0149 81.4349 20.2161 81.5395 20.4642L82.0251 21.6162C82.1297 21.8644 82.4315 22.0656 82.6992 22.0656L81.8348 20.0149ZM75.7639 19.0704C76.0316 19.0704 76.1638 18.8692 76.0592 18.621L75.8164 18.045L76.7209 18.045C76.9885 18.045 77.1207 17.8439 77.0161 17.5957H75.627C75.5903 17.5957 75.5563 17.5995 75.525 17.6066C75.5134 17.6092 75.5021 17.6124 75.4913 17.6159C75.4277 17.6368 75.3779 17.673 75.3444 17.7204C75.3412 17.7249 75.3381 17.7296 75.3352 17.7344C75.305 17.7839 75.2914 17.8442 75.2971 17.9113C75.2981 17.9228 75.2997 17.9344 75.3018 17.9462C75.3075 17.978 75.3174 18.0111 75.3317 18.045L75.7639 19.0704ZM76.1621 20.0149C76.4298 20.0149 76.7316 20.2161 76.8362 20.4642L77.3218 21.6162C77.4264 21.8644 77.2942 22.0656 77.0265 22.0656L76.1621 20.0149ZM77.4247 23.0101C77.6924 23.0101 77.9942 23.2113 78.0988 23.4595L78.5844 24.6115C78.689 24.8596 78.5568 25.0608 78.2891 25.0608L77.4247 23.0101ZM78.6873 26.0054C78.955 26.0054 79.2568 26.2065 79.3614 26.4547L79.847 27.6067C79.9516 27.8548 79.8194 28.056 79.5517 28.056L78.6873 26.0054ZM79.9499 29.0006C80.2176 29.0006 80.5194 29.2017 80.624 29.4499L81.1096 30.6019C81.2142 30.8501 81.082 31.0512 80.8144 31.0512L79.9499 29.0006ZM81.2125 31.9958C81.4802 31.9958 81.782 32.197 81.8866 32.4451L82.3722 33.5971C82.4768 33.8453 82.3446 34.0464 82.077 34.0464L81.2125 31.9958ZM78.9411 17.5957C79.0457 17.8439 79.3475 18.045 79.6152 18.045H80.5197L80.7625 18.621C80.8671 18.8692 81.1689 19.0704 81.4366 19.0704L81.0044 18.045C80.9901 18.0111 80.9721 17.978 80.951 17.9462C80.9431 17.9344 80.9349 17.9228 80.9262 17.9113C80.8754 17.8442 80.811 17.7839 80.739 17.7344C80.732 17.7296 80.725 17.7249 80.7179 17.7204C80.6445 17.673 80.5642 17.6368 80.4831 17.6159C80.4692 17.6124 80.4553 17.6092 80.4414 17.6066C80.4041 17.5995 80.3669 17.5957 80.3303 17.5957H78.9411ZM88.1478 34.991C87.8802 34.991 87.748 35.1922 87.8526 35.4403L88.0954 36.0163H87.1909C86.9232 36.0163 86.791 36.2175 86.8956 36.4657H88.2848C88.3214 36.4657 88.3555 36.4619 88.3868 36.4548C88.3984 36.4521 88.4096 36.449 88.4205 36.4454C88.484 36.4245 88.5339 36.3884 88.5673 36.341C88.5705 36.3364 88.5736 36.3317 88.5765 36.327C88.6068 36.2774 88.6204 36.2171 88.6146 36.15C88.6136 36.1386 88.6121 36.1269 88.61 36.1151C88.6042 36.0833 88.5944 36.0503 88.5801 36.0163L88.1478 34.991Z" fill="#00144A"/>
<path fill-rule="evenodd" clip-rule="evenodd" d="M91.8125 36.4548C91.7987 36.4521 91.7848 36.449 91.7709 36.4454C91.6898 36.4245 91.6094 36.3884 91.5361 36.341C91.529 36.3364 91.5219 36.3317 91.515 36.327C91.443 36.2774 91.3786 36.2171 91.3278 36.15C91.3191 36.1386 91.3108 36.1269 91.303 36.1151C91.2819 36.0833 91.2639 36.0503 91.2496 36.0163L90.8174 34.991C91.085 34.991 91.3868 35.1922 91.4915 35.4403L91.7343 36.0163H92.6388C92.9064 36.0163 93.2082 36.2175 93.3128 36.4657H91.9237C91.8871 36.4657 91.8498 36.4619 91.8125 36.4548ZM95.2275 31.9958C94.9598 31.9958 94.8276 32.197 94.9322 32.4451L95.4178 33.5971C95.5224 33.8453 95.8242 34.0464 96.0919 34.0464L95.2275 31.9958ZM93.9648 29.0006C93.6972 29.0006 93.565 29.2017 93.6696 29.4499L94.1552 30.6019C94.2598 30.8501 94.5616 31.0512 94.8293 31.0512L93.9648 29.0006ZM92.7022 26.0054C92.4345 26.0054 92.3023 26.2065 92.407 26.4547L92.8926 27.6067C92.9972 27.8548 93.299 28.056 93.5667 28.056L92.7022 26.0054ZM91.4396 23.0101C91.1719 23.0101 91.0397 23.2113 91.1443 23.4595L91.63 24.6115C91.7346 24.8596 92.0364 25.0608 92.3041 25.0608L91.4396 23.0101ZM90.177 20.0149C89.9093 20.0149 89.7771 20.2161 89.8817 20.4642L90.3673 21.6162C90.472 21.8644 90.7738 22.0656 91.0414 22.0656L90.177 20.0149ZM84.1061 19.0704C84.3738 19.0704 84.506 18.8692 84.4014 18.621L84.1586 18.045L85.0631 18.045C85.3308 18.045 85.463 17.8439 85.3584 17.5957H83.9692C83.9326 17.5957 83.8985 17.5995 83.8672 17.6066C83.8556 17.6092 83.8443 17.6124 83.8335 17.6159C83.7699 17.6368 83.7201 17.673 83.6867 17.7204C83.6834 17.7249 83.6804 17.7296 83.6774 17.7344C83.6472 17.7839 83.6336 17.8442 83.6394 17.9113C83.6403 17.9228 83.6419 17.9344 83.644 17.9462C83.6497 17.978 83.6596 18.0111 83.6739 18.045L84.1061 19.0704ZM84.5043 20.0149C84.772 20.0149 85.0738 20.2161 85.1784 20.4642L85.664 21.6162C85.7686 21.8644 85.6364 22.0656 85.3687 22.0656L84.5043 20.0149ZM85.7669 23.0101C86.0346 23.0101 86.3364 23.2113 86.441 23.4595L86.9266 24.6115C87.0312 24.8596 86.899 25.0608 86.6314 25.0608L85.7669 23.0101ZM87.0295 26.0054C87.2972 26.0054 87.599 26.2065 87.7036 26.4547L88.1892 27.6067C88.2938 27.8548 88.1616 28.056 87.894 28.056L87.0295 26.0054ZM88.2921 29.0006C88.5598 29.0006 88.8616 29.2017 88.9662 29.4499L89.4519 30.6019C89.5565 30.8501 89.4243 31.0512 89.1566 31.0512L88.2921 29.0006ZM89.5547 31.9958C89.8224 31.9958 90.1242 32.197 90.2288 32.4451L90.7145 33.5971C90.8191 33.8453 90.6869 34.0464 90.4192 34.0464L89.5547 31.9958ZM87.2833 17.5957C87.388 17.8439 87.6898 18.045 87.9574 18.045H88.8619L89.1047 18.621C89.2093 18.8692 89.5111 19.0704 89.7788 19.0704L89.3466 18.045C89.3323 18.0111 89.3143 17.978 89.2932 17.9462C89.2854 17.9344 89.2771 17.9228 89.2684 17.9113C89.2176 17.8442 89.1532 17.7839 89.0812 17.7344C89.0742 17.7296 89.0672 17.7249 89.0601 17.7204C88.9868 17.673 88.9064 17.6368 88.8253 17.6159C88.8114 17.6124 88.7975 17.6092 88.7837 17.6066C88.7464 17.5995 88.7091 17.5957 88.6725 17.5957H87.2833ZM96.4901 34.991C96.2224 34.991 96.0902 35.1922 96.1948 35.4403L96.4376 36.0163H95.5331C95.2654 36.0163 95.1332 36.2175 95.2378 36.4657H96.627C96.6636 36.4657 96.6977 36.4619 96.729 36.4548C96.7406 36.4521 96.7519 36.449 96.7627 36.4454C96.8263 36.4245 96.8761 36.3884 96.9095 36.341C96.9128 36.3364 96.9158 36.3317 96.9188 36.327C96.949 36.2774 96.9626 36.2171 96.9568 36.15C96.9558 36.1386 96.9543 36.1269 96.9522 36.1151C96.9465 36.0833 96.9366 36.0503 96.9223 36.0163L96.4901 34.991Z" fill="#00144A"/>
<path d="M56.376 13.7256H41.72C41.496 13.7256 41.2936 13.5896 41.206 13.3817C41.0557 13.0217 41.3129 12.6338 41.7009 12.6338H56.3569C56.5809 12.6338 56.7833 12.7698 56.8709 12.9777C57.0212 13.3377 56.764 13.7256 56.376 13.7256Z" fill="#0040B0"/>
<path d="M75.5648 16.87H68.5048C68.2768 16.87 68.0728 16.734 67.9888 16.522L67.9688 16.478C67.8168 16.11 68.0928 15.706 68.4888 15.71L75.5688 15.754C75.7848 15.754 75.9808 15.882 76.0728 16.078C76.2448 16.446 75.9728 16.87 75.5648 16.87Z" fill="white"/>
<path d="M48.8878 39.5014L57.6398 39.4774C62.0398 37.3214 64.9078 33.7054 64.9678 29.4374C65.0798 22.0814 56.8358 15.5854 46.5638 14.9294C43.7998 14.7534 41.1678 15.0174 38.7998 15.6414L40.0358 18.9214L47.5678 38.5934C47.7758 39.1414 48.3038 39.5014 48.8878 39.5014Z" fill="#1B90FF"/>
<path fill-rule="evenodd" clip-rule="evenodd" d="M45.1204 13.4737C45.1204 13.4737 42.171 21.5769 47.0694 28.7342C51.9677 35.8914 59.1152 38.8296 66.9353 38.0044C74.7554 37.1792 81.1026 30.495 80.1057 21.2351C79.1088 11.9753 74.0103 8.97498 71.0886 6.85164C68.1668 4.72829 60.6675 3.01926 55.538 4.18278C50.4085 5.3463 45.1169 13.4703 45.1169 13.4703L45.1204 13.4737Z" fill="#8D2A00"/>
<path fill-rule="evenodd" clip-rule="evenodd" d="M60.0498 6.34679C68.8841 6.47799 76.9285 12.8273 78.0186 20.5266C79.1052 28.2259 72.827 34.3577 63.9927 34.2265C55.1584 34.0953 47.114 27.746 46.024 20.0467C44.9374 12.3474 51.2155 6.21559 60.0498 6.34679Z" fill="#56BDFF"/>
<mask id="mask1_4011_79945" style="mask-type:luminance" maskUnits="userSpaceOnUse" x="45" y="6" width="34" height="29">
<path d="M60.0505 6.34679C68.8848 6.47799 76.9292 12.8273 78.0192 20.5266C79.1058 28.2259 72.8277 34.3577 63.9934 34.2265C55.1591 34.0953 47.1147 27.746 46.0246 20.0467C44.938 12.3474 51.2162 6.21559 60.0505 6.34679Z" fill="white"/>
</mask>
<g mask="url(#mask1_4011_79945)">
<path fill-rule="evenodd" clip-rule="evenodd" d="M60.0499 6.34679C68.8842 6.47799 76.9286 12.8273 78.0186 20.5266C79.1052 28.2259 72.827 34.3577 63.9927 34.2265C55.1584 34.0953 47.1141 27.746 46.024 20.0467C44.9374 12.3474 51.2156 6.21559 60.0499 6.34679Z" fill="#FFEAF4"/>
<path fill-rule="evenodd" clip-rule="evenodd" d="M75.4489 -5.68652C76.1216 -5.37924 76.3182 -4.50228 76.7149 -3.91534C77.8705 -2.27191 79.0261 -0.628475 80.1817 1.01496C79.2434 1.6675 78.3017 2.32004 77.36 2.97258L76.6356 1.21176C66.7319 8.02372 56.8283 14.8391 46.9212 21.6511C46.1933 22.8906 45.4689 24.1301 44.741 25.3696C43.0991 26.4985 41.4571 27.6275 39.8185 28.7565C39.7357 28.7013 39.653 28.6426 39.5702 28.5874C39.546 28.7082 39.6012 28.7911 39.4839 28.7117C38.6698 27.5033 37.8523 26.2983 37.0382 25.0899C36.8209 24.7723 36.2069 24.1957 36.3069 23.8711L39.5046 21.7098C39.7012 20.6844 39.8944 19.659 40.091 18.6335L45.2688 15.0428C55.3277 8.13421 65.3866 1.22557 75.4455 -5.68307L75.4489 -5.68652ZM95.8392 9.50143C97.0224 11.2001 98.2056 12.8988 99.3854 14.5975C99.6889 14.9945 100.624 15.7886 100.4 16.3617C90.2579 23.2945 80.1162 30.2308 69.9711 37.1671C67.546 38.8519 65.1175 40.5402 62.6891 42.2251C62.2027 42.5876 60.6228 44.0861 59.9984 43.8513L56.6972 38.883C56.3108 38.3237 55.8313 37.9335 55.5554 37.2396C68.981 27.9935 82.4067 18.744 95.8323 9.49453L95.8392 9.50143Z" fill="white"/>
</g>
<path d="M64.8413 35.3217C64.7447 35.3217 64.6516 35.3217 64.555 35.3217C54.8997 35.1767 46.0344 27.8675 44.7891 19.022C44.2095 14.9134 45.341 11.0051 47.973 8.01857C50.8706 4.73171 55.3688 2.89147 60.2913 2.96398C69.9466 3.10899 78.812 10.4181 80.0573 19.2637C80.6368 23.3723 79.5053 27.2806 76.8733 30.2671C74.0309 33.4918 69.6569 35.3251 64.8379 35.3251L64.8413 35.3217ZM60.005 4.83528C55.7241 4.83528 51.8606 6.44074 49.377 9.25806C47.1141 11.8268 46.1413 15.2 46.6449 18.7596C47.766 26.7247 55.8138 33.3123 64.5826 33.4435C64.6688 33.4435 64.7551 33.4435 64.8413 33.4435C69.1222 33.4435 72.9857 31.838 75.4694 29.0207C77.7323 26.452 78.7051 23.0788 78.2014 19.5192C77.0803 11.554 69.0325 4.96648 60.2638 4.83528C60.1775 4.83528 60.0913 4.83528 60.005 4.83528Z" fill="#C35500"/>
<path fill-rule="evenodd" clip-rule="evenodd" d="M74.4871 61.4575C74.4871 61.4575 66.1668 38.6807 65.9218 38.0282C65.6769 37.3722 65.7977 35.7012 67.4224 35.3007C69.0471 34.8967 69.9992 36.5885 70.3476 37.386C70.696 38.1836 79.7097 60.2871 79.7097 60.2871L77.5744 61.0466L74.4871 61.461V61.4575Z" fill="#C35500"/>
<path fill-rule="evenodd" clip-rule="evenodd" d="M76.3835 58.2918L67.318 35.2354C67.318 35.2354 65.2 36.0502 65.921 38.025C66.6454 39.9999 74.4586 61.4474 74.4345 61.3853C74.4103 61.3231 75.1658 59.8731 76.7077 59.2896L76.38 58.2918H76.3835Z" fill="#8D2A00"/>
<path fill-rule="evenodd" clip-rule="evenodd" d="M76.3938 58.2883L67.3146 35.1904C67.3146 35.1904 65.1896 36.0052 65.9141 37.987C66.6385 39.9654 74.4655 61.4509 74.4448 61.3887C74.4241 61.3266 75.1761 59.8765 76.7215 59.2895L76.3938 58.2917V58.2883Z" fill="#8D2A00"/>
<path fill-rule="evenodd" clip-rule="evenodd" d="M79.6677 60.0664L78.3327 56.9038C78.3327 56.9038 77.2496 55.6505 75.442 56.1787C73.6345 56.707 73.3619 58.4367 73.3619 58.4367L74.4382 61.3887L79.6712 60.0698L79.6677 60.0664Z" fill="#C35500"/>
<mask id="mask2_4011_79945" style="mask-type:luminance" maskUnits="userSpaceOnUse" x="73" y="56" width="7" height="6">
<path d="M79.6677 60.0664L78.3327 56.9038C78.3327 56.9038 77.2496 55.6505 75.442 56.1787C73.6345 56.707 73.3619 58.4367 73.3619 58.4367L74.4382 61.3887L79.6712 60.0698L79.6677 60.0664Z" fill="white"/>
</mask>
<g mask="url(#mask2_4011_79945)">
<path fill-rule="evenodd" clip-rule="evenodd" d="M75.4008 55.7959L76.515 58.7168L75.1421 62.2074L74.6661 63.0843L73.1965 61.175L72.0616 57.0975L75.4008 55.7959Z" fill="#8D2A00"/>
</g>
<path fill-rule="evenodd" clip-rule="evenodd" d="M77.0706 58.2952C78.5746 58.3194 79.7819 59.4001 79.7613 60.712C79.7406 62.024 78.5056 63.0702 76.9982 63.0494C75.4907 63.0287 74.2868 61.9446 74.3075 60.6326C74.3282 59.3206 75.5632 58.2745 77.0672 58.2952H77.0706Z" fill="#8D2A00"/>
<path d="M57.0935 16.8919L58.8562 17.6825C58.8562 17.6825 59.1908 16.412 60.2843 15.6282C61.1398 15.0137 62.6576 14.7927 63.9512 15.8319C66.5245 17.9 64.8446 19.5055 64.1168 21.2905C63.7546 22.1743 63.7511 23.217 64.3651 24.1527L66.0589 23.8005C66.0589 23.8005 65.6518 23.507 65.7691 22.3366C65.8312 21.7082 66.5452 20.9452 66.9971 19.6436C67.9389 16.9506 65.3172 13.8156 62.185 13.5256C60.2809 13.3495 58.287 14.04 57.09 16.9022L57.0935 16.8919Z" fill="#00144A"/>
<path d="M67.4541 27.4561C67.9081 27.0235 67.8374 26.2116 67.2962 25.6426C66.755 25.0736 65.9482 24.963 65.4942 25.3955C65.0403 25.8281 65.111 26.64 65.6522 27.209C66.1934 27.778 67.0001 27.8886 67.4541 27.4561Z" fill="#00144A"/>
</svg>
