<svg width="45" height="45" viewBox="0 0 45 45" fill="none" xmlns="http://www.w3.org/2000/svg">
<path fill-rule="evenodd" clip-rule="evenodd" d="M26.668 32.4236C26.668 32.4236 26.3055 32.2743 25.751 32.221L26.4548 31.7625C26.8067 31.5279 26.4334 31.1973 25.5377 30.9414L22.0402 29.2886C21.7629 29.214 21.4537 29.1927 21.3471 29.2566C18.1588 30.0457 14.9278 30.8348 11.6542 31.6665C11.249 31.8052 11.4622 32.0291 11.7181 32.3916C10.3959 32.8075 9.19094 33.1701 7.92201 33.458C7.23956 33.6179 6.94099 33.426 6.36518 33.234C5.76803 33.0314 5.16023 33.0101 4.32849 33.2447C3.49676 33.4793 0.0951763 34.5243 0.0951763 34.5243C0.0951763 34.5243 -0.224722 34.7589 0.308442 34.9615C0.841605 35.1641 1.92926 35.58 1.92926 35.58C1.92926 35.58 1.84395 35.6119 1.77997 35.6653C1.54538 35.8572 1.82263 36.1238 2.44109 36.3264L20.3447 42.2978C20.8566 42.4684 22.5947 43.1402 22.7546 43.0976C23.5544 42.8843 39.5066 36.0918 39.5066 36.0918L26.668 32.413V32.4236Z" fill="#1B90FF"/>
<path d="M38.4606 11.5348C38.3007 11.5562 38.1301 11.5988 37.9275 11.6735C36.3386 12.2599 25.7713 16.2587 25.7713 16.2587C25.7713 16.2587 25.6647 15.6189 25.5367 15.2243C25.3555 14.6592 25.0462 14.4672 24.0332 14.8618C23.0202 15.2563 19.0748 16.8665 18.8189 16.9944C18.563 17.1224 18.1578 17.4636 18.2217 18.0501C18.2751 18.5299 18.5523 19.7456 18.5523 19.7456C18.5523 19.7456 18.2537 19.8095 18.0511 19.9801C17.55 20.3747 17.294 21.0571 17.3793 21.6543L20.2158 40.7842C20.3011 41.3493 20.6316 41.8612 21.1222 42.1811C21.7513 42.5969 22.5617 43.0981 22.6257 43.0768C23.628 42.7249 41.553 34.7808 41.553 34.7808C41.553 34.7808 41.9688 34.3969 41.9049 33.3412C41.8409 32.3815 40.0175 16.0241 39.6762 12.8891C39.6442 12.5585 39.6229 12.3772 39.6229 12.3772C39.6229 12.3772 39.5483 11.3856 38.4713 11.5348H38.4606Z" fill="#00144A"/>
<path d="M40.9671 32.0809L21.6559 41.5392C21.5279 41.6032 21.3786 41.5179 21.3573 41.3793L18.6808 21.7802C18.6595 21.5882 18.7768 21.3856 18.9581 21.311L38.3652 13.3989C38.5465 13.3242 38.7171 13.4308 38.7384 13.6334L40.9671 32.0809Z" fill="#56BDFF"/>
<path d="M35.7524 22.1858C34.7927 23.0175 33.3105 22.6976 32.7774 21.546L28.2668 11.6931C28.1602 11.4692 28.2135 11.1813 28.3841 11.032L38.8234 1.97891C39.0047 1.81896 39.2393 1.88294 39.3566 2.11753L44.8908 13.4206C45.0295 13.7085 45.0828 14.0497 44.7629 14.3483L35.7524 22.1858Z" fill="#FFDF72"/>
<path d="M21.592 24.7778C21.592 24.7778 21.2721 24.9058 21.1015 25.055C20.643 25.4496 20.3977 26.1107 20.4723 26.6865L22.5837 42.1909C22.5837 42.1909 22.7116 42.6388 22.2318 42.8734C22.4984 43.076 22.7436 43.1933 23.2128 43.044C24.2151 42.7347 43.6969 35.1745 43.9742 35.0252C44.2514 34.8759 44.4007 34.6413 44.3261 33.5857C44.2514 32.53 42.7159 17.4095 42.7159 17.4095C42.7159 17.4095 42.6199 16.1192 41.0311 16.7164C39.4423 17.3135 28.971 21.6108 28.971 21.6108C28.971 21.6108 28.7577 20.7364 28.6404 20.2672C28.4805 19.6488 28.1499 19.5101 27.1369 19.9047C26.1239 20.2992 22.2851 21.8454 21.9225 22.0373C21.56 22.2293 21.2934 22.6558 21.3254 23.093C21.3574 23.5302 21.6026 24.7885 21.6026 24.7885L21.592 24.7778Z" fill="#046C7C"/>
<path d="M37.5307 32.1768L30.1707 34.8468C29.9107 34.9368 29.6707 34.8268 29.6407 34.5968C29.6107 34.3668 29.7907 34.0968 30.0507 34.0068L37.4207 31.3268C37.6807 31.2268 37.9207 31.3468 37.9507 31.5868C37.9807 31.8268 37.7907 32.0968 37.5207 32.1868L37.5307 32.1768ZM33.5607 31.3768C33.3007 31.4768 33.0607 31.3568 33.0307 31.1168L32.4207 26.5068L31.2407 28.2268C31.0807 28.4668 30.7707 28.5768 30.5607 28.4768C30.3507 28.3768 30.3107 28.0968 30.4707 27.8568L32.3707 25.0868C32.4507 24.9668 32.5807 24.8668 32.7007 24.8268C32.8407 24.7768 32.9607 24.7868 33.0607 24.8268L35.4907 26.0168C35.7007 26.1168 35.7307 26.3968 35.5707 26.6368C35.4007 26.8768 35.1007 26.9868 34.8907 26.8868L33.3907 26.1568L33.9907 30.7768C34.0207 31.0168 33.8307 31.2868 33.5707 31.3768H33.5607Z" fill="#FFF8D6"/>
</svg>
