<svg width="128" height="129" viewBox="0 0 128 129" fill="none" xmlns="http://www.w3.org/2000/svg">
<circle cx="64" cy="64.7695" r="64" fill="#223548"/>
<path d="M6.18359 95.0161C6.18359 94.0677 6.95246 93.2988 7.9009 93.2988H120.102C121.051 93.2988 121.82 94.0677 121.82 95.0161V95.7229H6.18359V95.0161Z" fill="#4098FF"/>
<path d="M8.55711 97.7883C8.87183 98.0693 9.27897 98.2246 9.70088 98.2246H118.302C118.724 98.2246 119.131 98.0693 119.446 97.7883L121.82 95.6691H6.18359L8.55711 97.7883Z" fill="#1782FF"/>
<rect x="17.5645" y="31.4414" width="92.8754" height="61.9656" rx="3.43462" fill="#4098FF"/>
<path d="M64.0019 33.5155C64.3303 33.5155 64.5966 33.2488 64.5966 32.9199C64.5966 32.5909 64.3303 32.3242 64.0019 32.3242C63.6735 32.3242 63.4072 32.5909 63.4072 32.9199C63.4072 33.2488 63.6735 33.5155 64.0019 33.5155Z" fill="#0070F3"/>
<rect x="20.6338" y="34.3301" width="86.7345" height="56.19" rx="2.28974" fill="#223548"/>
<path d="M57.2744 92.9531H70.7286V93.3651C70.7286 93.9974 70.216 94.51 69.5837 94.51H58.4193C57.787 94.51 57.2744 93.9974 57.2744 93.3651V92.9531Z" fill="#0070F3"/>
<path fill-rule="evenodd" clip-rule="evenodd" d="M32.8496 43.9C32.8496 41.6738 34.6543 39.8691 36.8804 39.8691H40.4398C40.7577 39.8691 41.0154 40.1269 41.0154 40.4448C41.0154 40.7627 40.7577 41.0204 40.4398 41.0204H36.8804C35.2901 41.0204 34.0009 42.3096 34.0009 43.9V47.4593C34.0009 47.7772 33.7432 48.0349 33.4253 48.0349C33.1073 48.0349 32.8496 47.7772 32.8496 47.4593V43.9Z" fill="#1782FF"/>
<path fill-rule="evenodd" clip-rule="evenodd" d="M32.8496 80.6704C32.8496 82.8965 34.6543 84.7012 36.8804 84.7012H40.4398C40.7577 84.7012 41.0154 84.4434 41.0154 84.1255C41.0154 83.8076 40.7577 83.5499 40.4398 83.5499H36.8804C35.2901 83.5499 34.0009 82.2607 34.0009 80.6704V77.111C34.0009 76.7931 33.7432 76.5354 33.4253 76.5354C33.1073 76.5354 32.8496 76.7931 32.8496 77.111V80.6704Z" fill="#1782FF"/>
<path fill-rule="evenodd" clip-rule="evenodd" d="M95.1514 43.9C95.1514 41.6738 93.3467 39.8691 91.1206 39.8691H87.5612C87.2433 39.8691 86.9856 40.1269 86.9856 40.4448C86.9856 40.7627 87.2433 41.0204 87.5612 41.0204H91.1206C92.7109 41.0204 94.0001 42.3096 94.0001 43.9V47.4593C94.0001 47.7772 94.2578 48.0349 94.5757 48.0349C94.8936 48.0349 95.1514 47.7772 95.1514 47.4593V43.9Z" fill="#1782FF"/>
<path fill-rule="evenodd" clip-rule="evenodd" d="M95.1514 80.6704C95.1514 82.8965 93.3467 84.7012 91.1206 84.7012H87.5612C87.2433 84.7012 86.9856 84.4434 86.9856 84.1255C86.9856 83.8076 87.2433 83.5499 87.5612 83.5499H91.1206C92.7109 83.5499 94.0001 82.2607 94.0001 80.6704V77.111C94.0001 76.7931 94.2578 76.5354 94.5757 76.5354C94.8936 76.5354 95.1514 76.7931 95.1514 77.111V80.6704Z" fill="#1782FF"/>
<circle cx="64.0002" cy="62.2854" r="22.9084" fill="#CEDBE8"/>
<path fill-rule="evenodd" clip-rule="evenodd" d="M64.0609 48.4648C67.8194 48.4648 71.3372 49.9467 73.9623 52.6351H73.9617C74.2055 52.8857 74.2017 53.2846 73.9524 53.5278C73.8289 53.6481 73.6751 53.7076 73.5107 53.7076C73.3463 53.7076 73.1826 53.6431 73.0598 53.5178C70.6728 51.0732 67.477 49.7271 64.0603 49.7271C62.2223 49.7271 60.452 50.1148 58.7989 50.8778C58.4825 51.0223 58.1085 50.8871 57.9614 50.5689C57.8169 50.2531 57.954 49.8779 58.2697 49.7315C60.0903 48.8916 62.0393 48.4648 64.0609 48.4648ZM73.3362 58.5386C71.7966 54.7455 68.1554 52.2946 64.0614 52.2946C62.162 52.2946 60.5076 52.7437 59.1169 53.6444C57.7262 54.5445 56.6115 55.8874 55.7772 57.6535C55.627 57.9698 55.7641 58.3457 56.0774 58.494H56.078C56.3913 58.6416 56.769 58.5101 56.9185 58.1931C57.6499 56.643 58.6157 55.4867 59.8023 54.7169C60.9884 53.9477 62.4083 53.5563 64.0614 53.5563C67.6393 53.5563 70.8203 55.697 72.167 59.0126C72.2662 59.2601 72.5044 59.4065 72.7513 59.4065C72.8294 59.4065 72.9113 59.3916 72.9889 59.3599C73.3114 59.2284 73.4665 58.8606 73.3356 58.538L73.3362 58.5386ZM77.5658 59.2874C77.5676 59.3011 77.5689 59.3079 77.5701 59.3128V59.3153L77.5713 59.3141C77.7854 60.288 77.9001 61.2916 77.9001 62.3015C77.9001 63.3876 77.8443 64.4806 77.7382 65.5476C77.7376 65.5556 77.737 65.5643 77.7363 65.5755V65.5842L77.7351 65.5947L77.7165 65.7734V65.7746V65.7758C77.6799 66.0972 77.4082 66.3372 77.09 66.3372C77.0664 66.3372 77.0435 66.336 77.0199 66.3335H77.0193C76.6713 66.2957 76.4238 65.9824 76.461 65.6369L76.4753 65.5017L76.4808 65.4465C76.5844 64.4118 76.6378 63.3535 76.6378 62.3009C76.6378 61.3766 76.5367 60.4573 76.3388 59.5659H76.3351L76.2966 59.4034C75.9257 57.8266 75.2644 56.3546 74.3215 55.0265C74.1199 54.7424 74.1863 54.3491 74.4698 54.1475H74.4704C74.752 53.9472 75.1484 54.0104 75.35 54.297C75.3506 54.2976 75.3506 54.2983 75.3506 54.2983C76.4095 55.7889 77.1514 57.4445 77.5546 59.2192C77.5605 59.2451 77.5636 59.27 77.5655 59.2852L77.5658 59.2874ZM66.1747 65.6181C66.1027 66.1224 66.0134 66.6224 65.9098 67.1155L65.9104 67.1143C65.8484 67.412 65.5848 67.6149 65.2939 67.6149C65.2529 67.6149 65.2095 67.6111 65.1648 67.6025H65.1636H65.1624C64.8212 67.5305 64.6028 67.1949 64.6748 66.8544C64.7685 66.4077 64.8479 65.9555 64.9142 65.4978C64.9161 65.4822 64.9186 65.4686 64.9204 65.4599C64.9229 65.4487 64.9235 65.4432 64.9235 65.4432V65.4413V65.4394C65.0718 64.4072 65.1468 63.3527 65.1468 62.3019C65.1468 61.7039 64.645 61.217 64.0607 61.217C63.4764 61.217 62.9981 61.681 62.9764 62.2597L62.9765 62.2614V62.2614V62.2614V62.2615V62.2615V62.2615C62.9777 62.2751 62.9789 62.2882 62.9789 62.3019V62.3032V62.3044L62.9758 62.6518V62.653V62.6543C62.9689 62.9743 62.696 63.3056 62.3313 63.2715C61.9827 63.2653 61.7072 62.9762 61.7134 62.6301L61.7159 62.3509C61.7147 62.3354 61.7134 62.3199 61.7134 62.3032C61.7134 61.0086 62.7667 59.9547 64.0613 59.9547C65.3559 59.9547 66.4098 61.0086 66.4098 62.3032C66.4098 63.3918 66.331 64.4848 66.1809 65.5542V65.5561V65.5579C66.1803 65.561 66.1797 65.5654 66.1784 65.5803L66.1775 65.5879L66.1769 65.5942L66.1769 65.5942L66.1769 65.5943L66.1762 65.6017C66.1758 65.6058 66.1753 65.6101 66.1747 65.6144V65.6162V65.6181ZM62.3697 65.739C62.7059 65.8258 62.9113 66.1676 62.825 66.5063V66.5057C62.3276 68.459 61.8921 69.7499 61.2687 70.939C60.6465 72.1263 59.8407 73.2025 58.6162 74.7291C58.4909 74.8842 58.308 74.9648 58.1237 74.9648C57.986 74.9648 57.8458 74.9195 57.7298 74.8259H57.7292C57.4581 74.6075 57.4153 74.2105 57.6324 73.9401C58.8296 72.4476 59.5802 71.4446 60.1534 70.3516C60.7253 69.2598 61.1242 68.0688 61.6024 66.1955C61.6868 65.8599 62.0255 65.6496 62.3697 65.739ZM64.7592 69.0654H64.7586H64.7574C64.4261 68.9469 64.0682 69.1268 63.9535 69.4524C63.0615 71.9951 62.546 72.9894 61.0219 75.1022C60.8184 75.3851 60.8798 75.7783 61.1627 75.983H61.1633C61.2762 76.0649 61.4052 76.1028 61.533 76.1028C61.7266 76.1028 61.9213 76.0122 62.0448 75.841C63.6346 73.637 64.2177 72.5137 65.1451 69.8693C65.2598 69.5418 65.088 69.1814 64.7592 69.0654ZM57.1706 51.7822C57.4627 51.5911 57.5427 51.1985 57.3523 50.9082C57.16 50.6148 56.7686 50.5347 56.4777 50.7264C53.4636 52.7052 51.3651 55.7218 50.5692 59.2197C50.5624 59.2482 50.5587 59.2755 50.5568 59.2904C50.5555 59.2986 50.5548 59.3041 50.5543 59.3081L50.5537 59.3127V59.3152C50.3385 60.2897 50.225 61.2928 50.225 62.3014C50.225 62.7337 50.1902 63.1686 50.1226 63.5904C50.0662 63.9353 50.2994 64.2572 50.6412 64.3143H50.643H50.6449C50.6803 64.3205 50.7138 64.323 50.7466 64.323C51.0512 64.323 51.3186 64.1021 51.3694 63.7926C51.4476 63.3019 51.4885 62.8014 51.4885 62.3014C51.4885 61.3777 51.5896 60.4572 51.7869 59.5658H51.7894L51.8278 59.4039C52.5679 56.267 54.4592 53.5625 57.1712 51.7816L57.1706 51.7822ZM73.4542 61.6948C73.6012 61.6954 73.7569 61.7419 73.8778 61.8468L73.8766 61.8455C74.0007 61.9535 74.0739 62.1116 74.0683 62.3021C74.0677 63.3734 74.0075 64.4496 73.8927 65.5035L73.889 65.5432L73.8881 65.5527L73.8871 65.5649L73.8868 65.5701C73.8863 65.5777 73.8857 65.5864 73.8847 65.5959V65.5972V65.5984C73.559 68.5052 72.8035 71.3356 71.6379 74.0117C71.5343 74.2498 71.3017 74.3907 71.0598 74.3907C70.9748 74.3907 70.8898 74.3745 70.8067 74.3379C70.4872 74.1984 70.3427 73.8268 70.4823 73.5073C71.5889 70.9672 72.3078 68.2806 72.6223 65.5196L72.6236 65.5066L72.6254 65.4898L72.6453 65.3137H72.6459C72.752 64.3199 72.806 63.307 72.806 62.3021V62.2984V62.2946C72.8128 62.1005 72.8984 61.9442 73.0268 61.84C73.1515 61.7395 73.3072 61.6948 73.4542 61.6948ZM54.8798 65.6398L54.8798 65.6397L54.8829 65.6257C54.886 65.6121 54.8897 65.5972 54.894 65.5805C55.1744 64.5172 55.3196 63.4168 55.3196 62.3027C55.3196 62.2878 55.3184 62.274 55.3172 62.2597L55.3171 62.2581C55.3202 61.5466 55.4101 60.8388 55.582 60.1552C55.6682 59.8178 55.4635 59.4766 55.1279 59.391H55.126H55.1242C54.778 59.3004 54.4418 59.5169 54.3593 59.8482V59.8488C54.1571 60.6478 54.0554 61.4734 54.0554 62.3034C54.0554 62.3195 54.056 62.3369 54.0579 62.3542C54.0535 63.3597 53.9195 64.3547 53.6621 65.315H53.659L53.6156 65.4682C53.2763 66.6617 52.754 67.7888 52.053 68.8154C51.8576 69.1032 51.9315 69.4965 52.2187 69.6931C52.3278 69.7675 52.4519 69.8029 52.5741 69.8029C52.7751 69.8029 52.9736 69.7074 53.0964 69.5275C53.8966 68.3532 54.4921 67.0642 54.8668 65.6965V65.6946C54.872 65.675 54.8762 65.6562 54.8798 65.6398ZM69.4199 59.2095L69.4416 59.2436L69.4422 59.2442L69.6339 59.5674C70.0229 60.2745 70.24 61.0567 70.24 62.3036C70.24 63.386 70.1699 64.4802 70.0384 65.5552C70.0377 65.5602 70.0371 65.5664 70.0365 65.5782L70.0353 65.5929L70.0346 65.6011L70.034 65.6048V65.6086C69.758 67.8007 69.2047 69.9532 68.3902 72.0033C68.2916 72.2508 68.054 72.4009 67.804 72.4009C67.724 72.4009 67.6471 72.3854 67.5739 72.3581L67.572 72.3563H67.5702C67.2464 72.2266 67.0882 71.8607 67.2172 71.5362C67.9858 69.6009 68.5093 67.5687 68.7729 65.4988C68.7742 65.4876 68.776 65.4783 68.7773 65.4727L68.7786 65.4679L68.7793 65.4646L68.7795 65.4636L68.7798 65.4615C68.7803 65.4585 68.7809 65.4561 68.7813 65.4543L68.7813 65.4543C68.7819 65.452 68.7822 65.4505 68.7822 65.4491C68.9125 64.4083 68.9783 63.3506 68.9783 62.3029C68.9783 61.6522 68.9125 61.1808 68.7909 60.7888C68.67 60.398 68.4907 60.0754 68.2494 59.7243C68.214 59.6734 68.1905 59.6201 68.1743 59.568C68.1052 59.3446 68.1824 59.1518 68.1824 59.1518C68.2221 59.0351 68.2965 58.926 68.4125 58.8466C68.7004 58.6493 69.093 58.7231 69.289 59.0097C69.3219 59.0575 69.3529 59.1046 69.3827 59.1511L69.3883 59.1598C69.3988 59.1766 69.4094 59.1933 69.4199 59.2095ZM66.4841 73.552C66.5995 73.2245 66.9574 73.049 67.2874 73.165L67.288 73.1668C67.6168 73.2816 67.7911 73.6407 67.6751 73.9707C67.4412 74.6382 67.1795 75.23 66.8743 75.7796C66.7589 75.9867 66.543 76.104 66.3222 76.104C66.2167 76.104 66.1132 76.0773 66.0189 76.0271L66.017 76.0258L66.0151 76.0246C65.7118 75.8546 65.6014 75.47 65.7707 75.1655C66.0393 74.6822 66.2726 74.1543 66.4841 73.552ZM67.4332 57.1237C66.4301 56.4699 65.264 56.1238 64.0624 56.1238C61.9193 56.1238 59.9591 57.2112 58.8208 59.0305C58.7918 59.0781 58.7677 59.1257 58.7479 59.1646L58.7439 59.1726C58.7296 59.2017 58.7172 59.2259 58.7042 59.2495L58.7005 59.2557L58.7005 59.2557C58.698 59.2601 58.6955 59.2644 58.6936 59.2687L58.5274 59.5659H58.5361C58.1149 60.4126 57.8854 61.3449 57.8854 62.3014C57.8854 62.32 57.8866 62.3399 57.8885 62.361C57.8848 63.382 57.7775 64.4036 57.5709 65.3961L57.5647 65.4228L57.5585 65.4495C57.5566 65.4563 57.5554 65.4625 57.5548 65.4675C57.5535 65.4724 57.5529 65.4755 57.5523 65.4786L57.5523 65.4786V65.4817L57.551 65.4848C57.5275 65.5996 57.502 65.7125 57.4747 65.8254C57.3941 66.1641 57.6019 66.5053 57.9406 66.5871L57.9449 66.5884H57.9493C57.9921 66.5977 58.0392 66.6045 58.0901 66.6045C58.3761 66.6045 58.6329 66.4103 58.7036 66.1219C58.7402 65.9674 58.7743 65.8124 58.8072 65.6554V65.6542C58.8112 65.6349 58.8136 65.6164 58.8154 65.6028L58.8154 65.6028L58.8165 65.5946C58.8183 65.5798 58.8196 65.5723 58.8208 65.5661C59.0379 64.4979 59.1521 63.4 59.1521 62.302C59.1521 62.2853 59.1508 62.2661 59.149 62.2456C59.1595 61.3418 59.4157 60.4634 59.8927 59.6998C59.9169 59.6608 59.9454 59.6229 59.9802 59.577L59.9839 59.5721L59.9876 59.5671H59.9901L60.0527 59.4778C60.977 58.1664 62.4515 57.3867 64.0637 57.3867C65.0196 57.3867 65.9469 57.6621 66.744 58.1819V58.1826C67.0362 58.3705 67.4264 58.2905 67.6168 57.9977C67.8072 57.7056 67.7241 57.3141 67.4332 57.1243V57.1237ZM57.5575 68.0039C57.8546 68.1856 57.9495 68.5727 57.7702 68.8711L57.7696 68.8698C57.3584 69.548 57.1135 70.019 56.8954 70.4384L56.8944 70.4404C56.5414 71.1197 56.2579 71.6637 55.508 72.5892C55.3833 72.7443 55.2009 72.8237 55.0173 72.8237C54.8796 72.8237 54.7376 72.779 54.6209 72.6835H54.6203L54.6197 72.6829C54.3499 72.4633 54.3077 72.0663 54.5266 71.7964C55.1972 70.9693 55.424 70.5333 55.7733 69.8618L55.7753 69.858L55.789 69.8317C56.0109 69.4056 56.2654 68.9168 56.6903 68.216C56.872 67.9176 57.2591 67.8252 57.5562 68.0026L57.5569 68.0039H57.5575Z" fill="#688FB7"/>
<path fill-rule="evenodd" clip-rule="evenodd" d="M72.7932 63.1522H74.0554C74.0321 63.9414 73.9772 64.7294 73.8927 65.5052L73.889 65.5449L73.8881 65.5544L73.8871 65.5666L73.8868 65.5718V65.5718V65.5718C73.8863 65.5794 73.8857 65.5881 73.8847 65.5976V65.5989V65.6001C73.559 68.5069 72.8035 71.3373 71.6379 74.0134C71.5343 74.2516 71.3017 74.3924 71.0598 74.3924C70.9748 74.3924 70.8898 74.3762 70.8067 74.3396C70.4872 74.2001 70.3427 73.8285 70.4823 73.509C71.5889 70.9689 72.3078 68.2823 72.6223 65.5213L72.6236 65.5083L72.6254 65.4916L72.6453 65.3154H72.6459C72.7222 64.6009 72.7715 63.8765 72.7932 63.1522ZM54.0273 63.1522H55.2915C55.2369 63.9764 55.103 64.7896 54.894 65.5822C54.8897 65.5989 54.886 65.6138 54.8829 65.6274L54.8798 65.6414C54.8762 65.6579 54.872 65.6767 54.8668 65.6963V65.6982C54.4921 67.0659 53.8966 68.3549 53.0964 69.5292C52.9736 69.7091 52.7751 69.8046 52.5741 69.8046C52.4519 69.8046 52.3278 69.7692 52.2187 69.6948C51.9315 69.4982 51.8576 69.1049 52.053 68.8171C52.754 67.7905 53.2763 66.6634 53.6156 65.4699L53.659 65.3167H53.6621C53.8514 64.6108 53.9739 63.8861 54.0273 63.1522ZM77.8889 63.1522C77.8676 63.9566 77.8167 64.7601 77.7382 65.5493C77.7376 65.5573 77.737 65.566 77.7363 65.5772V65.5859L77.7351 65.5964L77.7165 65.7751V65.7763V65.7775C77.6799 66.0989 77.4082 66.3389 77.09 66.3389C77.0664 66.3389 77.0435 66.3377 77.0199 66.3352H77.0193C76.6713 66.2974 76.4238 65.9841 76.461 65.6386L76.4753 65.5034L76.4808 65.4482C76.5566 64.6917 76.6055 63.9226 76.6263 63.1522H77.8889ZM50.1807 63.1522H51.4497C51.4301 63.3676 51.4033 63.5819 51.3694 63.7943C51.3186 64.1039 51.0512 64.3247 50.7466 64.3247C50.7138 64.3247 50.6803 64.3222 50.6449 64.316H50.643H50.6412C50.2994 64.2589 50.0662 63.937 50.1226 63.5921C50.1459 63.4468 50.1653 63.3 50.1807 63.1522ZM57.865 63.1522H59.1295C59.0864 63.9657 58.982 64.775 58.8208 65.5678C58.8196 65.574 58.8183 65.5815 58.8165 65.5963L58.8154 65.6045L58.8154 65.6045L58.8154 65.6046C58.8136 65.6181 58.8112 65.6366 58.8072 65.6559V65.6571C58.7743 65.8141 58.7402 65.9692 58.7036 66.1236C58.6329 66.4121 58.3761 66.6062 58.0901 66.6062C58.0392 66.6062 57.9921 66.5994 57.9493 66.5901H57.9449L57.9406 66.5888C57.6019 66.507 57.3941 66.1658 57.4747 65.8271C57.502 65.7142 57.5275 65.6013 57.551 65.4866L57.5523 65.4835V65.4804L57.5523 65.4803C57.5529 65.4772 57.5535 65.4741 57.5548 65.4692C57.5554 65.4642 57.5566 65.458 57.5585 65.4512L57.5647 65.4245L57.5709 65.3979C57.7242 64.6613 57.8228 63.9087 57.865 63.1522ZM61.9719 63.1522H62.7274C62.6198 63.238 62.4835 63.2874 62.3313 63.2732C62.1965 63.2708 62.0727 63.2261 61.9719 63.1522ZM65.1306 63.1522H66.394C66.3641 63.9588 66.2921 64.7638 66.1809 65.5559V65.5578V65.5596C66.1803 65.5627 66.1797 65.5671 66.1784 65.582C66.1778 65.5857 66.1774 65.5905 66.1769 65.5959L66.1759 65.6065L66.1747 65.6161V65.6179V65.6198C66.1027 66.1241 66.0134 66.6241 65.9098 67.1172L65.9104 67.116C65.8484 67.4137 65.5848 67.6166 65.2939 67.6166C65.2529 67.6166 65.2095 67.6129 65.1648 67.6042H65.1636H65.1624C64.8212 67.5322 64.6028 67.1966 64.6748 66.8561C64.7685 66.4095 64.8479 65.9573 64.9142 65.4995C64.9161 65.484 64.9186 65.4703 64.9204 65.4616C64.9229 65.4505 64.9235 65.4449 64.9235 65.4449V65.443V65.4412C65.0319 64.6867 65.1011 63.9204 65.1306 63.1522ZM68.964 63.1522H70.2259C70.1993 63.956 70.1356 64.7617 70.0384 65.5569C70.0377 65.5619 70.0371 65.5681 70.0365 65.5799L70.035 65.5979L70.0346 65.6028L70.034 65.6065V65.6103C69.758 67.8024 69.2047 69.9549 68.3902 72.005C68.2916 72.2525 68.054 72.4027 67.804 72.4027C67.724 72.4027 67.6471 72.3871 67.5739 72.3598L67.572 72.358H67.5702C67.2464 72.2283 67.0882 71.8624 67.2172 71.5379C67.9858 69.6026 68.5093 67.5704 68.7729 65.5005C68.7742 65.4893 68.776 65.48 68.7773 65.4744C68.7778 65.4727 68.7781 65.4714 68.7784 65.4704C68.7789 65.4687 68.7791 65.4677 68.7792 65.4669L68.7795 65.4653L68.7798 65.4633C68.7803 65.4602 68.7809 65.4578 68.7813 65.456L68.7813 65.456C68.7816 65.4547 68.7819 65.4537 68.782 65.4528C68.7822 65.4521 68.7822 65.4515 68.7822 65.4508C68.8774 64.6901 68.9382 63.9204 68.964 63.1522ZM62.825 66.508C62.9113 66.1693 62.7059 65.8275 62.3697 65.7407C62.0255 65.6513 61.6868 65.8616 61.6024 66.1972C61.1242 68.0706 60.7253 69.2615 60.1534 70.3533C59.5802 71.4463 58.8296 72.4493 57.6324 73.9418C57.4153 74.2122 57.4581 74.6092 57.7292 74.8276H57.7298C57.8458 74.9212 57.986 74.9665 58.1237 74.9665C58.308 74.9665 58.4909 74.8859 58.6162 74.7308C59.8407 73.2042 60.6465 72.128 61.2687 70.9407C61.8921 69.7516 62.3276 68.4607 62.825 66.5074V66.508ZM64.7586 69.0671H64.7592C65.088 69.1831 65.2598 69.5435 65.1451 69.871C64.2177 72.5154 63.6346 73.6387 62.0448 75.8427C61.9213 76.0139 61.7266 76.1045 61.533 76.1045C61.4052 76.1045 61.2762 76.0666 61.1633 75.9848H61.1627C60.8798 75.7801 60.8184 75.3868 61.0219 75.1039C62.546 72.9911 63.0615 71.9968 63.9535 69.4541C64.0682 69.1285 64.4261 68.9486 64.7574 69.0671H64.7586ZM67.2874 73.1667C66.9574 73.0507 66.5995 73.2262 66.4841 73.5537C66.2726 74.1561 66.0393 74.6839 65.7707 75.1672C65.6014 75.4717 65.7118 75.8563 66.0151 76.0263L66.017 76.0275L66.0189 76.0288C66.1132 76.079 66.2167 76.1057 66.3222 76.1057C66.543 76.1057 66.7589 75.9884 66.8743 75.7813C67.1795 75.2317 67.4412 74.6399 67.6751 73.9724C67.7911 73.6424 67.6168 73.2833 67.288 73.1685L67.2874 73.1667ZM57.7702 68.8728C57.9495 68.5744 57.8546 68.1873 57.5575 68.0056H57.5569L57.5562 68.0043C57.2591 67.8269 56.872 67.9193 56.6903 68.2177C56.2654 68.9185 56.0109 69.4073 55.789 69.8334L55.789 69.8334L55.7753 69.8597L55.7733 69.8635L55.7733 69.8635C55.424 70.535 55.1972 70.971 54.5266 71.7981C54.3077 72.068 54.3499 72.465 54.6197 72.6846L54.6203 72.6852H54.6209C54.7376 72.7807 54.8796 72.8254 55.0173 72.8254C55.2009 72.8254 55.3833 72.746 55.508 72.5909C56.2579 71.6654 56.5414 71.1214 56.8944 70.4421L56.8954 70.4401L56.8954 70.4401C57.1135 70.0206 57.3584 69.5496 57.7696 68.8715L57.7702 68.8728Z" fill="#CC7400"/>
<rect x="43.4834" y="62.2227" width="41.199" height="2.03913" rx="1.01957" fill="#F58B00"/>
<path d="M91.0204 113.166C91.0204 112.481 89.0307 111.932 86.3723 111.807C86.2203 109.152 85.6351 107.178 84.9496 107.18C84.2641 107.181 83.6941 109.171 83.5482 111.839C80.8821 112.022 78.9001 112.617 78.9092 113.304C78.9183 113.991 80.8989 114.54 83.5573 114.663C83.7169 117.318 84.2945 119.292 84.9785 119.291C85.6625 119.289 86.2355 117.3 86.3814 114.631C89.0474 114.449 91.028 113.853 91.0204 113.166Z" fill="#2A4259"/>
<path d="M60.1208 16.2277C60.1208 15.1996 57.1364 14.3766 53.1487 14.1897C52.9207 10.2071 52.043 7.24577 51.0147 7.24805C49.9864 7.25033 49.1315 10.2344 48.9126 14.2376C44.9135 14.5111 41.9405 15.4047 41.9541 16.4352C41.9678 17.4656 44.9386 18.2885 48.9263 18.4732C49.1657 22.4558 50.032 25.4171 51.058 25.4148C52.084 25.4126 52.9435 22.4285 53.1624 18.4253C57.1615 18.1518 60.1322 17.2581 60.1208 16.2277Z" fill="#2A4259"/>
</svg>
