<svg width="160" height="161" viewBox="0 0 160 161" fill="none" xmlns="http://www.w3.org/2000/svg">
<rect y="46" width="160" height="69" rx="12" fill="#89D1FF"/>
<path d="M38.2777 45.8804L48.6148 83.2952C48.8362 84.099 49.6192 84.6191 50.4536 84.5127L121.117 75.9903C123.707 75.3363 124.447 73.2559 124.095 72.2512L83.4423 40.3919C83.1931 39.6826 82.5011 39.2256 81.7497 39.2729L40.3142 40.4864C39.2505 40.5534 37.115 42.0782 38.2737 45.8843L38.2777 45.8804Z" fill="#0040B0"/>
<path d="M38.8194 42.5905L49.6667 81.8454C49.8881 82.6491 50.6711 83.1692 51.5055 83.0628L122.723 74.4696C123.782 74.3317 124.447 73.26 124.095 72.2552L110.396 37.1965C110.147 36.4873 109.455 36.0303 108.704 36.0776L40.334 40.4747C39.2703 40.5417 38.5347 41.5661 38.8194 42.5905Z" fill="white"/>
<path d="M110.396 37.1965C110.147 36.4873 109.455 36.0303 108.704 36.0776L40.334 40.4747C39.2703 40.5417 38.5347 41.5661 38.8194 42.5905L40.338 48.0908L112.302 42.0822L110.392 37.1965H110.396Z" fill="#0040B0"/>
<path d="M42.0109 43.1102L42.612 45.1985C42.6792 45.427 42.9363 45.5964 43.1933 45.5767L64.5556 44.111C64.7929 44.0953 64.9313 43.9022 64.8601 43.6855L64.2116 41.6761C64.1404 41.4594 63.8913 41.2939 63.654 41.3096L42.3549 42.6729C42.1019 42.6887 41.9476 42.8857 42.0109 43.1102Z" fill="#56BDFF"/>
<path d="M59.9354 59.7177L49.0367 60.7815C48.7718 60.8091 48.6136 61.0258 48.6848 61.2701L48.9656 62.2394C49.0367 62.4837 49.3096 62.661 49.5745 62.6334L60.493 61.5341C60.75 61.5065 60.8964 61.2938 60.8212 61.0534L60.5286 60.1039C60.4534 59.8635 60.1885 59.6901 59.9354 59.7177Z" fill="#0070F2"/>
<path d="M61.371 64.3935L50.4209 65.5479C50.1559 65.5755 49.9978 65.8001 50.0689 66.0483L50.3537 67.0294C50.4248 67.2776 50.6977 67.4549 50.9666 67.4274L61.9404 66.2375C62.1975 66.2099 62.3438 65.9892 62.2686 65.7449L61.9721 64.7836C61.8969 64.5393 61.628 64.3659 61.3749 64.3935H61.371Z" fill="#0070F2"/>
<path d="M52.3706 72.2985L66.4092 70.6634C66.6662 70.6319 66.8086 70.4112 66.7335 70.163L66.429 69.1937C66.3538 68.9494 66.0849 68.7761 65.8279 68.8037L51.813 70.3915C51.5481 70.423 51.3899 70.6516 51.4611 70.8998L51.7498 71.8966C51.8209 72.1488 52.0978 72.33 52.3667 72.2985H52.3706Z" fill="#0070F2"/>
<path d="M47.3799 56.7514L47.6567 57.7048C47.7279 57.9452 47.9968 58.1225 48.2618 58.0989L62.1026 56.8105C62.3557 56.7868 62.4981 56.578 62.4269 56.3416L62.1382 55.4117C62.0631 55.1753 61.8021 55.0059 61.549 55.0295L47.7358 56.2746C47.4709 56.2982 47.3167 56.511 47.3839 56.7553L47.3799 56.7514Z" fill="#0070F2"/>
<path d="M53.7703 77.1294L64.8509 75.7504C65.1119 75.7188 65.2582 75.4903 65.1791 75.2382L64.8746 74.2492C64.7995 74.001 64.5266 73.8237 64.2696 73.8552L53.2127 75.1948C52.9438 75.2263 52.7857 75.4588 52.8608 75.7149L53.1534 76.7275C53.2286 76.9836 53.5054 77.1648 53.7743 77.1294H53.7703Z" fill="#0070F2"/>
<path d="M69.0384 60.6106L82.1318 59.2947C82.3612 59.271 82.4877 59.0701 82.4126 58.8455L82.0922 57.9078C82.0171 57.6832 81.768 57.5216 81.5386 57.5453L68.4689 58.8218C68.2277 58.8455 68.0932 59.0504 68.1644 59.2789L68.4729 60.2403C68.548 60.4688 68.8011 60.6382 69.0423 60.6106H69.0384Z" fill="#0070F2"/>
<path d="M66.7686 54.9061L67.0731 55.8557C67.1443 56.0842 67.3974 56.2497 67.6386 56.2261L80.6767 55.0125C80.906 54.9928 81.0326 54.7958 80.9574 54.5752L80.6411 53.6493C80.566 53.4286 80.3208 53.2671 80.0914 53.2868L67.0771 54.4609C66.8358 54.4806 66.7014 54.6816 66.7726 54.9101L66.7686 54.9061Z" fill="#0070F2"/>
<path d="M80.5303 62.3109L69.9401 63.4259C69.6989 63.4496 69.5605 63.6584 69.6356 63.8909L69.948 64.864C70.0231 65.0965 70.2802 65.2659 70.5214 65.2384L81.1274 64.0879C81.3608 64.0642 81.4873 63.8554 81.4122 63.6308L81.0918 62.6773C81.0167 62.4488 80.7636 62.2872 80.5303 62.3109Z" fill="#0070F2"/>
<path d="M82.0725 66.8929L71.4348 68.0985C71.1936 68.1261 71.0552 68.3389 71.1303 68.5753L71.4467 69.5642C71.5218 69.8006 71.7789 69.9701 72.0241 69.9425L82.6775 68.7014C82.9109 68.6738 83.0374 68.465 82.9623 68.2325L82.634 67.2632C82.555 67.0347 82.3019 66.8692 82.0686 66.8929H82.0725Z" fill="#0070F2"/>
<path d="M86.3085 57.547L86.6288 58.469C86.7079 58.6935 86.9571 58.859 87.1864 58.8354L99.5008 57.5982C99.7223 57.5746 99.833 57.3815 99.7539 57.1609L99.4217 56.2625C99.3426 56.0458 99.0975 55.8843 98.88 55.904L86.5853 57.1018C86.356 57.1254 86.2334 57.3224 86.3125 57.547H86.3085Z" fill="#0070F2"/>
<path d="M95.2694 51.9727L85.1142 52.8907C84.8848 52.9104 84.7622 53.1074 84.8413 53.328L85.1577 54.2382C85.2367 54.4588 85.4819 54.6243 85.7113 54.6007L95.8823 53.6511C96.1038 53.6314 96.2185 53.4384 96.1394 53.2217L95.8151 52.3312C95.736 52.1145 95.4948 51.9569 95.2733 51.9766L95.2694 51.9727Z" fill="#0070F2"/>
<path d="M98.3738 60.4828L88.1355 61.5623C87.9062 61.586 87.7836 61.7909 87.8627 62.0155L88.1869 62.9492C88.266 63.1778 88.5191 63.3433 88.7485 63.3157L99.0025 62.2046C99.224 62.1809 99.3387 61.98 99.2556 61.7554L98.9235 60.8413C98.8404 60.6207 98.5952 60.4591 98.3738 60.4828Z" fill="#0070F2"/>
<path d="M90.3302 67.8577L102.743 66.4117C102.965 66.3842 103.076 66.1832 102.993 65.9586L102.653 65.0367C102.569 64.8121 102.324 64.6505 102.103 64.6742L89.7094 66.0768C89.48 66.1044 89.3574 66.3093 89.4365 66.5418L89.7647 67.4874C89.8438 67.7198 90.0969 67.8853 90.3302 67.8577Z" fill="#0070F2"/>
<path d="M91.9002 72.3652L102.233 71.0807C102.459 71.0531 102.57 70.8443 102.486 70.6158L102.142 69.6781C102.059 69.4495 101.81 69.288 101.585 69.3156L91.2675 70.5685C91.0342 70.5961 90.9116 70.8088 90.9946 71.0413L91.3268 71.9987C91.4098 72.2312 91.6629 72.4006 91.8963 72.3691L91.9002 72.3652Z" fill="#0070F2"/>
<path d="M111.971 54.6289L102.662 55.5391C102.44 55.5588 102.33 55.7558 102.413 55.9803L102.741 56.855C102.824 57.0757 103.069 57.2372 103.29 57.2175L112.611 56.2798C112.825 56.2601 112.928 56.0631 112.845 55.8464L112.508 54.9875C112.425 54.7708 112.184 54.6131 111.971 54.6328V54.6289Z" fill="#0070F2"/>
<path d="M104.92 61.5509L116.558 60.2901C116.771 60.2664 116.87 60.0694 116.787 59.8488L116.447 58.982C116.36 58.7613 116.119 58.6037 115.905 58.6273L104.283 59.8527C104.062 59.8763 103.951 60.0773 104.034 60.3019L104.366 61.1884C104.449 61.413 104.698 61.5745 104.92 61.5509Z" fill="#0070F2"/>
<path d="M100.878 51.8854L101.203 52.7482C101.286 52.9689 101.531 53.1304 101.748 53.1068L113.307 52.0312C113.517 52.0115 113.62 51.8223 113.537 51.6096L113.204 50.7664C113.121 50.5536 112.88 50.396 112.671 50.4157L101.131 51.4559C100.91 51.4756 100.799 51.6687 100.882 51.8854H100.878Z" fill="#0070F2"/>
<path d="M106.573 65.9481L115.961 64.8528C116.174 64.8291 116.277 64.6282 116.19 64.4036L115.846 63.521C115.759 63.2965 115.514 63.1389 115.3 63.1625L105.924 64.2263C105.703 64.25 105.592 64.4548 105.675 64.6834L106.011 65.5817C106.098 65.8102 106.347 65.9718 106.569 65.9481H106.573Z" fill="#0070F2"/>
<path d="M108.21 70.3044L117.633 69.1303C117.851 69.1027 117.954 68.8978 117.863 68.6732L117.515 67.7788C117.428 67.5543 117.183 67.3927 116.965 67.4164L107.557 68.559C107.336 68.5866 107.225 68.7954 107.308 69.0239L107.648 69.9341C107.735 70.1665 107.984 70.3281 108.21 70.3005V70.3044Z" fill="#0070F2"/>
<path d="M94.835 107.373L72.3295 100.448C75.9914 97.8262 73.7427 94.8012 66.8694 92.9564C59.0043 90.8429 46.5546 90.7194 37.8249 92.8075C27.8891 95.1861 25.7385 99.6528 34.806 102.62C44.2223 105.699 59.9997 105.376 68.7294 102.224L89.669 109.473L92.2156 109.038C92.685 108.472 92.9422 109.087 93.6761 108.644C95.0347 107.715 95.7468 107.105 95.5215 106.992H94.835V107.373Z" fill="#1B90FF"/>
<path d="M97.8908 52.2488C99.3855 58.4998 96.923 64.9373 93.8479 69.5332C91.0811 73.663 86.4138 76.5729 80.3026 77.3032C66.8237 78.9116 52.3964 69.3118 48.7594 56.3048C45.1223 43.2978 53.1106 30.9163 65.9105 30.3258C78.207 29.7586 93.766 40.7298 97.8908 52.2488Z" fill="#8D2A00"/>
<path d="M96.9894 49.0409C101.278 61.0145 94.808 72.2732 81.8988 73.8156C68.4198 75.424 53.9926 65.8241 50.3555 52.8171C46.7185 39.8101 54.9135 30.1054 67.7174 29.5149C80.0139 28.9476 92.8685 37.5257 96.9933 49.0409H96.9894Z" fill="#C35500"/>
<path d="M94.1134 49.2742C97.7934 59.6899 92.0881 69.4024 80.8959 70.6806C69.2745 72.0054 56.857 63.742 53.6688 52.5532C50.5937 41.7606 57.4814 32.8173 68.5955 32.254C79.3272 31.714 90.5583 39.2082 94.1173 49.2742H94.1134Z" fill="#FFEAF4"/>
<path d="M96.8331 107.444L89.481 109.394L77.801 72.2339L84.6888 71.4336L96.8331 107.444Z" fill="#C35500"/>
<path d="M53.2824 44.1654L68.4823 32.2617C60.498 32.7085 54.7185 37.4871 53.2824 44.1654Z" fill="#FFEAF4"/>
<path d="M80.896 70.6802C90.7691 69.5536 96.3691 61.8651 95.0266 52.918L70.7068 69.5302C74.0043 70.6258 77.4853 71.0687 80.896 70.6802Z" fill="white"/>
<path d="M82.1327 35.6171L82.125 35.6133L82.1327 35.6171Z" fill="#FFEAF4"/>
<path d="M68.5916 32.2536C68.9076 32.2381 69.2198 32.2304 69.5359 32.2266C69.2198 32.2266 68.9076 32.2381 68.5916 32.2536Z" fill="#FFEAF4"/>
<path d="M78.8041 34.0352C78.9016 34.074 78.9992 34.1129 79.0929 34.1517C78.9953 34.1129 78.9016 34.074 78.8041 34.0352Z" fill="#FFEAF4"/>
<path d="M79.6899 34.4023C79.7563 34.4334 79.8226 34.4645 79.889 34.4917C79.8226 34.4606 79.7563 34.4295 79.6899 34.4023Z" fill="#FFEAF4"/>
<path d="M77.9066 33.6992C78.0159 33.7381 78.1291 33.7769 78.2383 33.8197C78.1291 33.7769 78.0198 33.7381 77.9066 33.6992Z" fill="#FFEAF4"/>
<path d="M71.8344 32.332C72.0139 32.3475 72.1934 32.3668 72.3768 32.39C72.1973 32.3706 72.0178 32.3513 71.8344 32.332Z" fill="#FFEAF4"/>
<path d="M70.8627 32.2617C71.05 32.2733 71.2412 32.281 71.4285 32.2965C71.2412 32.281 71.05 32.2694 70.8627 32.2617Z" fill="#FFEAF4"/>
<path d="M72.7906 32.4375C72.9663 32.4607 73.1458 32.4877 73.3214 32.5147C73.1458 32.4877 72.9702 32.4607 72.7906 32.4375Z" fill="#FFEAF4"/>
<path d="M69.8521 32.2305C70.0628 32.2305 70.2696 32.2343 70.4803 32.2421C70.2696 32.2343 70.0589 32.2305 69.8521 32.2305Z" fill="#FFEAF4"/>
<path d="M95.1982 54.532C94.6207 42.9625 83.4559 33.7084 72.373 32.3292C68.5174 31.9757 61.7389 31.9757 56.8179 37.302C56.2638 37.9003 55.7448 38.5996 55.2609 39.3378C55.1789 39.4621 55.1321 39.5476 55.058 39.668C55.0462 39.6835 55.0423 39.703 55.0306 39.7224C60.8648 32.7255 70.1915 32.2787 78.4334 35.5421C86.9641 38.9182 94.3319 46.2725 95.1982 54.5398V54.532Z" fill="#8D2A00"/>
<path d="M66.656 33.6917L53.2824 44.1656C52.7321 46.7297 52.818 49.5697 53.6687 52.5534C53.739 52.802 53.817 53.0467 53.899 53.2915L79.7759 36.1159C75.5379 34.2239 70.9486 33.2837 66.656 33.6917Z" fill="white"/>
<path d="M74.9993 73.703L79.007 76.069C79.007 76.069 78.1719 74.006 80.9192 73.7224V73.6797C79.8188 73.8467 77.6022 74.0682 74.9993 73.6991V73.703Z" fill="#8D2A00"/>
<path d="M83.8306 73.3096C84.3886 73.3329 85.3642 73.7447 85.8286 74.9296L86.492 72.7773C86.492 72.7773 85.8793 73.0726 83.8306 73.3057V73.3096Z" fill="#8D2A00"/>
<path d="M89.4811 109.393L78.5309 74.5953L79.2684 73.8572C79.2684 73.8572 80.6694 73.7756 82.2616 73.457C82.2616 73.457 81.7114 74.0747 81.8714 74.9294C82.5114 78.2861 92.923 108.741 92.923 108.741L89.4772 109.393H89.4811Z" fill="#8D2A00"/>
<path d="M96.8333 107.442C96.8333 107.846 94.9367 108.519 91.8343 109.315C90.3006 109.622 89.5474 109.583 89.4811 109.393C89.4343 109.257 90.2733 108.732 91.7952 108.243C94.0743 107.532 96.5757 107.132 96.8333 107.442Z" fill="#8D2A00"/>
<path d="M83.443 47.8843L79.184 44.6581C78.9385 44.4717 78.6229 44.3746 78.3306 44.3979C78.0384 44.4212 77.8007 44.561 77.6838 44.7745L75.6225 48.5404C75.4043 48.9403 75.642 49.48 76.1563 49.744C76.6707 50.008 77.263 49.8954 77.4812 49.4955L78.4203 47.7601L81.8649 58.456C82.0207 58.9452 82.5858 59.2985 83.1274 59.2442C83.669 59.1898 83.973 58.755 83.8171 58.2697L80.3569 47.6126L82.2935 49.0801C82.5546 49.2781 82.8702 49.3635 83.1508 49.3402C83.3612 49.3208 83.5521 49.2431 83.6885 49.0995C84.0041 48.7695 83.895 48.226 83.443 47.8843Z" fill="#00144A"/>
<path d="M73.717 55.2733C73.1949 55.0093 72.5948 55.1258 72.3688 55.5373L71.3868 57.3348L68.0552 46.5651C67.9072 46.0876 67.346 45.7382 66.8005 45.7809C66.255 45.8236 65.9316 46.2468 66.0757 46.7282L69.384 57.5095L67.4006 55.9993C66.9369 55.646 66.2901 55.6421 65.9472 55.9876C65.6042 56.3332 65.7056 56.9 66.1693 57.2533L70.5569 60.596C70.814 60.7901 71.1375 60.8872 71.4414 60.8561C71.7453 60.8251 71.9947 60.6737 72.1194 60.4446L74.2548 56.5001C74.4769 56.0886 74.2353 55.5373 73.7131 55.2733H73.717Z" fill="#00144A"/>
</svg>
