<svg width="45" height="45" viewBox="0 0 45 45" fill="none" xmlns="http://www.w3.org/2000/svg">
<path fill-rule="evenodd" clip-rule="evenodd" d="M38.8554 4.42962L41.6343 27.9389C41.713 28.6442 41.5337 29.3541 41.1296 29.9376L33.7027 40.834C33.4659 41.1806 33.1576 41.4726 32.7985 41.6902C32.4394 41.9078 32.038 42.046 31.621 42.0956L7.20872 44.9807C7.09849 44.9933 6.98766 45 6.87671 45.0006C6.15918 44.9991 5.46706 44.7348 4.93117 44.2576C4.39529 43.7805 4.05276 43.1235 3.96835 42.411L0.0208279 9.02125C-0.025029 8.6388 0.00500835 8.25107 0.10924 7.88025C0.213471 7.50943 0.389841 7.16283 0.62824 6.86028C0.866639 6.55773 1.16238 6.30519 1.49854 6.11712C1.83469 5.92905 2.20465 5.80915 2.58722 5.76429L35.5985 1.86323C35.9808 1.81782 36.3684 1.84818 36.7391 1.95259C37.1097 2.057 37.4561 2.23341 37.7586 2.47174C38.061 2.71006 38.3136 3.00563 38.5018 3.34157C38.69 3.67751 38.8101 4.04723 38.8554 4.42962ZM0.662128 8.69744C0.659973 8.48263 0.688394 8.26818 0.746886 8.0606C0.827857 7.77324 0.964856 7.50475 1.15 7.27055C1.33514 7.03634 1.56476 6.84106 1.82566 6.69594C2.08656 6.55083 2.37359 6.45873 2.67022 6.42497L35.6815 2.52059C35.7718 2.5101 35.8627 2.50456 35.9537 2.504C36.5068 2.50476 37.0406 2.70769 37.4546 3.07457C37.8686 3.44145 38.1342 3.94698 38.2014 4.49602L40.9803 28.0053C41.0099 28.2668 40.9929 28.531 40.9305 28.7859C40.9903 28.5352 41.0061 28.2756 40.977 28.0187L38.1981 4.50946C38.1309 3.96041 37.8653 3.45487 37.4514 3.08798C37.0374 2.7211 36.5036 2.51819 35.9505 2.51743C35.8595 2.518 35.7686 2.52354 35.6782 2.53403L2.67031 6.43841C2.37369 6.47217 2.08665 6.56426 1.82575 6.70938C1.56485 6.85449 1.33523 7.04976 1.15009 7.28396C0.964951 7.51816 0.827952 7.78668 0.746981 8.07403C0.689706 8.27729 0.661264 8.48713 0.662128 8.69744ZM32.4825 30.4011C32.4714 30.4447 32.4653 30.4897 32.4644 30.5353L32.2785 40.4954C32.2773 40.6064 32.3079 40.7155 32.3668 40.8096C32.4238 40.9009 32.505 40.9744 32.6012 41.0222C32.6054 41.0192 32.6096 41.0162 32.6137 41.0132C32.5134 40.9657 32.4288 40.8903 32.37 40.7962C32.3112 40.7021 32.2805 40.593 32.2817 40.482L32.4677 30.5219C32.4684 30.481 32.4734 30.4405 32.4825 30.4011ZM20.5627 6.81552C20.1816 6.53086 19.7255 6.364 19.2506 6.33549C18.5854 6.31582 17.9396 6.56113 17.4553 7.01749C16.9709 7.47385 16.6876 8.10387 16.6676 8.76907C16.6678 9.24477 16.8073 9.71003 17.0688 10.1074C17.3302 10.5048 17.7023 10.817 18.1391 11.0055C18.5758 11.194 19.0582 11.2505 19.5267 11.1681C19.9953 11.0857 20.4294 10.8679 20.7756 10.5417C21.1219 10.2155 21.3651 9.79506 21.4752 9.33228C21.5854 8.8695 21.5577 8.38461 21.3955 7.93739C21.2334 7.49017 20.9439 7.10017 20.5627 6.81552Z" fill="#D5DADD"/>
<path d="M33.517 39.5956C33.8952 39.5489 34.2558 39.4085 34.5661 39.1873C34.4661 39.1394 34.3817 39.064 34.3229 38.9699C34.2641 38.8758 34.2333 38.767 34.2341 38.6561L34.42 28.6959C34.4226 28.5545 34.4755 28.4187 34.5692 28.3128C34.6629 28.2069 34.7913 28.138 34.9313 28.1182L42.511 27.0558C42.6238 27.0377 42.7395 27.0539 42.843 27.1023C42.9363 26.8041 42.9657 26.4896 42.9293 26.1793L40.1504 2.67006C40.0832 2.12101 39.8176 1.61548 39.4036 1.2486C38.9897 0.881721 38.4559 0.67879 37.9028 0.67803C37.8121 0.673079 37.7212 0.673079 37.6305 0.67803L4.6226 4.57909C4.32601 4.61368 4.03913 4.70643 3.77842 4.85202C3.51772 4.99761 3.28828 5.19319 3.10325 5.42756C2.91822 5.66193 2.78123 5.93049 2.70012 6.21787C2.61901 6.50525 2.59538 6.80581 2.63057 7.10233L6.58142 40.4954C6.61602 40.7916 6.70867 41.0782 6.85405 41.3387C6.99943 41.5992 7.19471 41.8284 7.42871 42.0134C7.66272 42.1984 7.93088 42.3355 8.21787 42.4168C8.50487 42.4981 8.80507 42.5221 9.10134 42.4874L33.517 39.5956ZM21.2062 4.49608C21.6811 4.5246 22.1372 4.69148 22.5184 4.97614C22.8995 5.26079 23.189 5.65077 23.3511 6.09799C23.5133 6.54521 23.541 7.03012 23.4308 7.4929C23.3207 7.95568 23.0775 8.3761 22.7312 8.70232C22.385 9.02853 21.9509 9.24628 21.4823 9.3287C21.0138 9.41111 20.5314 9.35459 20.0947 9.16612C19.6579 8.97765 19.2858 8.66545 19.0243 8.26804C18.7629 7.87063 18.6234 7.40539 18.6232 6.92969C18.6441 6.26479 18.9276 5.63527 19.4118 5.1791C19.896 4.72293 20.5413 4.4773 21.2062 4.49608Z" fill="white"/>
<path d="M43.5899 26.0995L40.811 2.59026C40.7195 1.81774 40.3251 1.11316 39.7144 0.631317C39.1037 0.149471 38.3266 -0.0702162 37.554 0.0205411L4.5428 3.94152C4.16024 3.98638 3.79027 4.10629 3.45412 4.29435C3.11797 4.48242 2.82222 4.73497 2.58382 5.03751C2.34542 5.34006 2.16905 5.68666 2.06482 6.05748C1.96059 6.4283 1.93053 6.81604 1.97639 7.19848L5.92393 40.5882C6.00842 41.3013 6.35141 41.9587 6.88799 42.436C7.42458 42.9132 8.11752 43.1771 8.83562 43.1778C8.94657 43.1772 9.0574 43.1706 9.16763 43.1579L33.5799 40.2728C33.9969 40.2233 34.3983 40.085 34.7574 39.8674C35.1165 39.6498 35.4248 39.3579 35.6616 39.0112L43.0886 28.1148C43.4954 27.5264 43.6737 26.8099 43.5899 26.0995ZM6.5813 40.4952L2.63377 7.10553C2.59858 6.80901 2.62221 6.50845 2.70332 6.22107C2.78443 5.93369 2.92142 5.66513 3.10645 5.43076C3.29148 5.19639 3.52092 5.00081 3.78163 4.85522C4.04233 4.70963 4.32921 4.61687 4.6258 4.58228L37.6337 0.681228C37.7244 0.676276 37.8153 0.676276 37.906 0.681228C38.4591 0.681987 38.9929 0.884898 39.4069 1.25178C39.8208 1.61866 40.0864 2.12421 40.1536 2.67326L42.9292 26.1858C42.9656 26.4961 42.9362 26.8106 42.8429 27.1088C42.7394 27.0605 42.6237 27.0443 42.5109 27.0623L34.9312 28.1248C34.7912 28.1445 34.6628 28.2135 34.5691 28.3194C34.4754 28.4252 34.4225 28.5611 34.4199 28.7024L34.234 38.6626C34.2332 38.7735 34.264 38.8824 34.3228 38.9764C34.3816 39.0705 34.466 39.1459 34.566 39.1938C34.2557 39.4151 33.8951 39.5554 33.5169 39.6021L9.10122 42.4873C8.80495 42.522 8.50475 42.498 8.21775 42.4167C7.93076 42.3354 7.6626 42.1983 7.42859 42.0133C7.19458 41.8283 6.99931 41.599 6.85393 41.3386C6.70855 41.0781 6.6159 40.7915 6.5813 40.4952ZM42.4378 27.7363L34.898 38.4335L35.0806 28.7688L42.4378 27.7363Z" fill="#00144A"/>
<path d="M34.9077 38.4334L42.4442 27.7329L35.0903 28.7688L34.9077 38.4334Z" fill="white"/>
<path d="M21.206 9.35987C22.6326 9.35987 23.789 8.27031 23.789 6.92627C23.789 5.58223 22.6326 4.49268 21.206 4.49268C19.7795 4.49268 18.623 5.58223 18.623 6.92627C18.623 8.27031 19.7795 9.35987 21.206 9.35987Z" fill="#F58B00"/>
<path d="M32.7221 14.7513L12.8075 16.8338C11.9996 16.9183 11.4132 17.6417 11.4977 18.4496L11.5799 19.2355C11.6644 20.0434 12.3878 20.6298 13.1957 20.5453L33.1103 18.4628C33.9181 18.3783 34.5046 17.6549 34.4201 16.847L34.3379 16.0611C34.2534 15.2532 33.53 14.6668 32.7221 14.7513Z" fill="#D5DADD"/>
<path d="M26.0553 22.0889L13.3953 23.4128C12.7387 23.4815 12.2622 24.0693 12.3309 24.7259L12.4704 26.0599C12.539 26.7164 13.1269 27.1929 13.7834 27.1243L26.4434 25.8004C27.1 25.7317 27.5765 25.1438 27.5079 24.4873L27.3683 23.1533C27.2997 22.4968 26.7118 22.0202 26.0553 22.0889Z" fill="#D5DADD"/>
<path d="M30.904 16.5582C30.7802 16.4307 30.6321 16.3294 30.4685 16.2602C30.3048 16.1909 30.1289 16.1553 29.9512 16.1553C29.7735 16.1553 29.5976 16.1909 29.4339 16.2602C29.2702 16.3294 29.1221 16.4307 28.9983 16.5582L19.7022 25.8544L16.5481 22.7003C16.4228 22.5752 16.274 22.476 16.1103 22.4083C15.9466 22.3407 15.7712 22.306 15.5941 22.3061C15.417 22.3063 15.2416 22.3413 15.0781 22.4092C14.9145 22.4772 14.7659 22.5766 14.6408 22.702C14.5156 22.8273 14.4164 22.9761 14.3488 23.1398C14.2812 23.3035 14.2464 23.4789 14.2466 23.656C14.2467 23.8331 14.2818 24.0085 14.3497 24.1721C14.4176 24.3356 14.5171 24.4842 14.6424 24.6094L18.7493 28.7229C18.8731 28.8504 19.0212 28.9518 19.1849 29.021C19.3486 29.0902 19.5245 29.1259 19.7022 29.1259C19.8799 29.1259 20.0558 29.0902 20.2195 29.021C20.3831 28.9518 20.5313 28.8504 20.655 28.7229L30.9173 18.4606C31.0448 18.3368 31.1462 18.1887 31.2154 18.025C31.2846 17.8614 31.3203 17.6855 31.3203 17.5078C31.3203 17.3301 31.2846 17.1542 31.2154 16.9905C31.1462 16.8268 31.0448 16.6787 30.9173 16.5549L30.904 16.5582Z" fill="#F58B00"/>
<path d="M23.0823 6.02061C23.1701 5.89184 22.9392 5.58144 22.5665 5.32732C22.1938 5.07319 21.8205 4.97158 21.7327 5.10035C21.6449 5.22912 21.8758 5.53951 22.2485 5.79363C22.6212 6.04776 22.9945 6.14938 23.0823 6.02061Z" fill="white"/>
</svg>
