<?xml version="1.0" encoding="UTF-8"?>
<!--Generator: Apple Native CoreSVG 175.5-->
<!DOCTYPE svg
PUBLIC "-//W3C//DTD SVG 1.1//EN"
       "http://www.w3.org/Graphics/SVG/1.1/DTD/svg11.dtd">
<svg version="1.1" xmlns="http://www.w3.org/2000/svg" xmlns:xlink="http://www.w3.org/1999/xlink" width="3300" height="2200">
 <!--glyph: "", point size: 100.0, font version: "18.0d12e2", template writer version: "101"-->
 <g id="Notes">
  <rect height="2200" id="artboard" style="fill:white;opacity:1" width="3300" x="0" y="0"/>
  <line style="fill:none;stroke:black;opacity:1;stroke-width:0.5;" x1="263" x2="3036" y1="292" y2="292"/>
  <text style="stroke:none;fill:black;font-family:sans-serif;font-size:13;font-weight:bold;" transform="matrix(1 0 0 1 263 322)">Weight/Scale Variations</text>
  <text style="stroke:none;fill:black;font-family:sans-serif;font-size:13;text-anchor:middle;" transform="matrix(1 0 0 1 559.711 322)">Ultralight</text>
  <text style="stroke:none;fill:black;font-family:sans-serif;font-size:13;text-anchor:middle;" transform="matrix(1 0 0 1 856.422 322)">Thin</text>
  <text style="stroke:none;fill:black;font-family:sans-serif;font-size:13;text-anchor:middle;" transform="matrix(1 0 0 1 1153.13 322)">Light</text>
  <text style="stroke:none;fill:black;font-family:sans-serif;font-size:13;text-anchor:middle;" transform="matrix(1 0 0 1 1449.84 322)">Regular</text>
  <text style="stroke:none;fill:black;font-family:sans-serif;font-size:13;text-anchor:middle;" transform="matrix(1 0 0 1 1746.56 322)">Medium</text>
  <text style="stroke:none;fill:black;font-family:sans-serif;font-size:13;text-anchor:middle;" transform="matrix(1 0 0 1 2043.27 322)">Semibold</text>
  <text style="stroke:none;fill:black;font-family:sans-serif;font-size:13;text-anchor:middle;" transform="matrix(1 0 0 1 2339.98 322)">Bold</text>
  <text style="stroke:none;fill:black;font-family:sans-serif;font-size:13;text-anchor:middle;" transform="matrix(1 0 0 1 2636.69 322)">Heavy</text>
  <text style="stroke:none;fill:black;font-family:sans-serif;font-size:13;text-anchor:middle;" transform="matrix(1 0 0 1 2933.4 322)">Black</text>
  <line style="fill:none;stroke:black;opacity:1;stroke-width:0.5;" x1="263" x2="3036" y1="1903" y2="1903"/>
  <g transform="matrix(1 0 0 1 263 1933)">
   <path d="M9.24805 0.830078C13.5547 0.830078 17.1387-2.74414 17.1387-7.05078C17.1387-11.3574 13.5449-14.9316 9.23828-14.9316C4.94141-14.9316 1.36719-11.3574 1.36719-7.05078C1.36719-2.74414 4.95117 0.830078 9.24805 0.830078ZM9.24805-0.654297C5.70312-0.654297 2.87109-3.49609 2.87109-7.05078C2.87109-10.6055 5.69336-13.4473 9.23828-13.4473C12.793-13.4473 15.6445-10.6055 15.6445-7.05078C15.6445-3.49609 12.8027-0.654297 9.24805-0.654297ZM5.6543-7.05078C5.6543-6.62109 5.95703-6.32812 6.40625-6.32812L8.50586-6.32812L8.50586-4.20898C8.50586-3.76953 8.79883-3.4668 9.22852-3.4668C9.67773-3.4668 9.9707-3.76953 9.9707-4.20898L9.9707-6.32812L12.0898-6.32812C12.5293-6.32812 12.832-6.62109 12.832-7.05078C12.832-7.49023 12.5293-7.79297 12.0898-7.79297L9.9707-7.79297L9.9707-9.90234C9.9707-10.3516 9.67773-10.6543 9.22852-10.6543C8.79883-10.6543 8.50586-10.3516 8.50586-9.90234L8.50586-7.79297L6.40625-7.79297C5.95703-7.79297 5.6543-7.49023 5.6543-7.05078Z"/>
  </g>
  <g transform="matrix(1 0 0 1 281.867 1933)">
   <path d="M11.709 2.91016C17.1582 2.91016 21.6699-1.61133 21.6699-7.05078C21.6699-12.5 17.1484-17.0117 11.6992-17.0117C6.25977-17.0117 1.74805-12.5 1.74805-7.05078C1.74805-1.61133 6.26953 2.91016 11.709 2.91016ZM11.709 1.25C7.09961 1.25 3.41797-2.44141 3.41797-7.05078C3.41797-11.6602 7.08984-15.3516 11.6992-15.3516C16.3086-15.3516 20.0098-11.6602 20.0098-7.05078C20.0098-2.44141 16.3184 1.25 11.709 1.25ZM7.17773-7.05078C7.17773-6.57227 7.50977-6.25 8.00781-6.25L10.8789-6.25L10.8789-3.36914C10.8789-2.88086 11.2109-2.53906 11.6895-2.53906C12.1777-2.53906 12.5195-2.87109 12.5195-3.36914L12.5195-6.25L15.4004-6.25C15.8887-6.25 16.2305-6.57227 16.2305-7.05078C16.2305-7.53906 15.8887-7.88086 15.4004-7.88086L12.5195-7.88086L12.5195-10.752C12.5195-11.25 12.1777-11.5918 11.6895-11.5918C11.2109-11.5918 10.8789-11.25 10.8789-10.752L10.8789-7.88086L8.00781-7.88086C7.50977-7.88086 7.17773-7.53906 7.17773-7.05078Z"/>
  </g>
  <g transform="matrix(1 0 0 1 305.646 1933)">
   <path d="M14.9707 5.66406C21.9336 5.66406 27.6953-0.0976562 27.6953-7.05078C27.6953-14.0137 21.9238-19.7754 14.9609-19.7754C8.00781-19.7754 2.25586-14.0137 2.25586-7.05078C2.25586-0.0976562 8.01758 5.66406 14.9707 5.66406ZM14.9707 3.84766C8.93555 3.84766 4.08203-1.01562 4.08203-7.05078C4.08203-13.0957 8.92578-17.9492 14.9609-17.9492C21.0059-17.9492 25.8691-13.0957 25.8691-7.05078C25.8691-1.01562 21.0156 3.84766 14.9707 3.84766ZM9.19922-7.05078C9.19922-6.5332 9.57031-6.17188 10.1172-6.17188L14.0625-6.17188L14.0625-2.2168C14.0625-1.67969 14.4336-1.29883 14.9512-1.29883C15.4883-1.29883 15.8594-1.66992 15.8594-2.2168L15.8594-6.17188L19.8145-6.17188C20.3516-6.17188 20.7324-6.5332 20.7324-7.05078C20.7324-7.59766 20.3613-7.96875 19.8145-7.96875L15.8594-7.96875L15.8594-11.9141C15.8594-12.4609 15.4883-12.8418 14.9512-12.8418C14.4336-12.8418 14.0625-12.4609 14.0625-11.9141L14.0625-7.96875L10.1172-7.96875C9.57031-7.96875 9.19922-7.59766 9.19922-7.05078Z"/>
  </g>
  <text style="stroke:none;fill:black;font-family:sans-serif;font-size:13;font-weight:bold;" transform="matrix(1 0 0 1 263 1953)">Design Variations</text>
  <text style="stroke:none;fill:black;font-family:sans-serif;font-size:13;" transform="matrix(1 0 0 1 263 1971)">Symbols are supported in up to nine weights and three scales.</text>
  <text style="stroke:none;fill:black;font-family:sans-serif;font-size:13;" transform="matrix(1 0 0 1 263 1989)">For optimal layout with text and other symbols, vertically align</text>
  <text style="stroke:none;fill:black;font-family:sans-serif;font-size:13;" transform="matrix(1 0 0 1 263 2007)">symbols with the adjacent text.</text>
  <line style="fill:none;stroke:#00AEEF;stroke-width:0.5;opacity:1.0;" x1="776" x2="776" y1="1919" y2="1933"/>
  <g transform="matrix(1 0 0 1 776 1933)">
   <path d="M3.31055 0.15625C3.82812 0.15625 4.08203-0.0390625 4.26758-0.585938L5.52734-4.0332L11.2891-4.0332L12.5488-0.585938C12.7344-0.0390625 12.9883 0.15625 13.4961 0.15625C14.0137 0.15625 14.3457-0.15625 14.3457-0.644531C14.3457-0.810547 14.3164-0.966797 14.2383-1.17188L9.6582-13.3691C9.43359-13.9648 9.0332-14.2676 8.4082-14.2676C7.80273-14.2676 7.39258-13.9746 7.17773-13.3789L2.59766-1.16211C2.51953-0.957031 2.49023-0.800781 2.49023-0.634766C2.49023-0.146484 2.80273 0.15625 3.31055 0.15625ZM6.00586-5.51758L8.37891-12.0898L8.42773-12.0898L10.8008-5.51758Z"/>
  </g>
  <line style="fill:none;stroke:#00AEEF;stroke-width:0.5;opacity:1.0;" x1="793.197" x2="793.197" y1="1919" y2="1933"/>
  <text style="stroke:none;fill:black;font-family:sans-serif;font-size:13;font-weight:bold;" transform="matrix(1 0 0 1 776 1953)">Margins</text>
  <text style="stroke:none;fill:black;font-family:sans-serif;font-size:13;" transform="matrix(1 0 0 1 776 1971)">Leading and trailing margins on the left and right side of each symbol</text>
  <text style="stroke:none;fill:black;font-family:sans-serif;font-size:13;" transform="matrix(1 0 0 1 776 1989)">can be adjusted by modifying the x-location of the margin guidelines.</text>
  <text style="stroke:none;fill:black;font-family:sans-serif;font-size:13;" transform="matrix(1 0 0 1 776 2007)">Modifications are automatically applied proportionally to all</text>
  <text style="stroke:none;fill:black;font-family:sans-serif;font-size:13;" transform="matrix(1 0 0 1 776 2025)">scales and weights.</text>
  <g transform="matrix(1 0 0 1 1289 1933)">
   <path d="M2.8418 1.86523L4.54102 3.57422C5.40039 4.44336 6.38672 4.38477 7.31445 3.35938L18.0078-8.42773L17.041-9.4043L6.42578 2.27539C6.07422 2.67578 5.74219 2.77344 5.27344 2.30469L4.10156 1.14258C3.63281 0.683594 3.74023 0.341797 4.14062-0.0195312L15.6152-10.8203L14.6387-11.7871L3.04688-0.898438C2.06055 0.0195312 1.98242 0.996094 2.8418 1.86523ZM9.25781-16.3281C8.83789-15.918 8.80859-15.3418 9.04297-14.9512C9.27734-14.5898 9.73633-14.3555 10.3809-14.5215C11.8457-14.8633 13.3691-14.9219 14.7949-13.9844L14.209-12.5293C13.8672-11.6992 14.043-11.1133 14.5801-10.5664L16.875-8.25195C17.3633-7.76367 17.7734-7.74414 18.3398-7.8418L19.4043-8.03711L20.0684-7.36328L20.0293-6.80664C19.9902-6.30859 20.1172-5.92773 20.6055-5.44922L21.3672-4.70703C21.8457-4.22852 22.4609-4.19922 22.9297-4.66797L25.8398-7.58789C26.3086-8.05664 26.2891-8.65234 25.8105-9.13086L25.0391-9.89258C24.5605-10.3711 24.1895-10.5273 23.7109-10.4883L23.1348-10.4395L22.4902-11.0742L22.7344-12.1973C22.8613-12.7637 22.7051-13.2031 22.1191-13.7891L19.9219-15.9766C16.582-19.2969 12.1484-19.2188 9.25781-16.3281ZM10.752-15.957C13.1836-17.7344 16.4746-17.4316 18.7012-15.2051L21.1328-12.793C21.3672-12.5586 21.4062-12.373 21.3379-12.0312L21.0156-10.5469L22.5195-9.0625L23.5059-9.12109C23.7598-9.13086 23.8379-9.11133 24.0332-8.91602L24.6094-8.33984L22.168-5.89844L21.5918-6.47461C21.3965-6.66992 21.3672-6.74805 21.377-7.01172L21.4453-7.98828L19.9512-9.47266L18.4277-9.21875C18.1055-9.15039 17.959-9.17969 17.7148-9.41406L15.7129-11.416C15.459-11.6504 15.4297-11.8164 15.5859-12.1875L16.4648-14.2773C14.9023-15.7324 12.8711-16.3574 10.8398-15.7617C10.6836-15.7227 10.625-15.8496 10.752-15.957Z"/>
  </g>
  <text style="stroke:none;fill:black;font-family:sans-serif;font-size:13;font-weight:bold;" transform="matrix(1 0 0 1 1289 1953)">Exporting</text>
  <text style="stroke:none;fill:black;font-family:sans-serif;font-size:13;" transform="matrix(1 0 0 1 1289 1971)">Symbols should be outlined when exporting to ensure the</text>
  <text style="stroke:none;fill:black;font-family:sans-serif;font-size:13;" transform="matrix(1 0 0 1 1289 1989)">design is preserved when submitting to Xcode.</text>
  <text id="template-version" style="stroke:none;fill:black;font-family:sans-serif;font-size:13;text-anchor:end;" transform="matrix(1 0 0 1 3036 1933)">Template v.3.0</text>
  <text style="stroke:none;fill:black;font-family:sans-serif;font-size:13;text-anchor:end;" transform="matrix(1 0 0 1 3036 1951)">Requires Xcode 13 or greater</text>
  <text id="descriptive-name" style="stroke:none;fill:black;font-family:sans-serif;font-size:13;text-anchor:end;" transform="matrix(1 0 0 1 3036 1969)">Generated from fiori.flight</text>
  <text style="stroke:none;fill:black;font-family:sans-serif;font-size:13;text-anchor:end;" transform="matrix(1 0 0 1 3036 1987)">Typeset at 100 points</text>
  <text style="stroke:none;fill:black;font-family:sans-serif;font-size:13;" transform="matrix(1 0 0 1 263 726)">Small</text>
  <text style="stroke:none;fill:black;font-family:sans-serif;font-size:13;" transform="matrix(1 0 0 1 263 1156)">Medium</text>
  <text style="stroke:none;fill:black;font-family:sans-serif;font-size:13;" transform="matrix(1 0 0 1 263 1586)">Large</text>
 </g>
 <g id="Guides">
  <g id="H-reference" style="fill:#27AAE1;stroke:none;" transform="matrix(1 0 0 1 339 696)">
   <path d="M0.993654 0L3.63775 0L29.3281-67.1323L30.0303-67.1323L30.0303-70.459L28.1226-70.459ZM11.6885-24.4799L46.9815-24.4799L46.2315-26.7285L12.4385-26.7285ZM55.1196 0L57.7637 0L30.6382-70.459L29.4326-70.459L29.4326-67.1323Z"/>
  </g>
  <line id="Baseline-S" style="fill:none;stroke:#27AAE1;opacity:1;stroke-width:0.5;" x1="263" x2="3036" y1="696" y2="696"/>
  <line id="Capline-S" style="fill:none;stroke:#27AAE1;opacity:1;stroke-width:0.5;" x1="263" x2="3036" y1="625.541" y2="625.541"/>
  <g id="H-reference" style="fill:#27AAE1;stroke:none;" transform="matrix(1 0 0 1 339 1126)">
   <path d="M0.993654 0L3.63775 0L29.3281-67.1323L30.0303-67.1323L30.0303-70.459L28.1226-70.459ZM11.6885-24.4799L46.9815-24.4799L46.2315-26.7285L12.4385-26.7285ZM55.1196 0L57.7637 0L30.6382-70.459L29.4326-70.459L29.4326-67.1323Z"/>
  </g>
  <line id="Baseline-M" style="fill:none;stroke:#27AAE1;opacity:1;stroke-width:0.5;" x1="263" x2="3036" y1="1126" y2="1126"/>
  <line id="Capline-M" style="fill:none;stroke:#27AAE1;opacity:1;stroke-width:0.5;" x1="263" x2="3036" y1="1055.54" y2="1055.54"/>
  <g id="H-reference" style="fill:#27AAE1;stroke:none;" transform="matrix(1 0 0 1 339 1556)">
   <path d="M0.993654 0L3.63775 0L29.3281-67.1323L30.0303-67.1323L30.0303-70.459L28.1226-70.459ZM11.6885-24.4799L46.9815-24.4799L46.2315-26.7285L12.4385-26.7285ZM55.1196 0L57.7637 0L30.6382-70.459L29.4326-70.459L29.4326-67.1323Z"/>
  </g>
  <line id="Baseline-L" style="fill:none;stroke:#27AAE1;opacity:1;stroke-width:0.5;" x1="263" x2="3036" y1="1556" y2="1556"/>
  <line id="Capline-L" style="fill:none;stroke:#27AAE1;opacity:1;stroke-width:0.5;" x1="263" x2="3036" y1="1485.54" y2="1485.54"/>
  <line id="left-margin-Ultralight-S" style="fill:none;stroke:#00AEEF;stroke-width:0.5;opacity:1.0;" x1="515.067" x2="515.067" y1="600.785" y2="720.121"/>
  <line id="right-margin-Ultralight-S" style="fill:none;stroke:#00AEEF;stroke-width:0.5;opacity:1.0;" x1="604.356" x2="604.356" y1="600.785" y2="720.121"/>
  <line id="left-margin-Regular-S" style="fill:none;stroke:#00AEEF;stroke-width:0.5;opacity:1.0;" x1="1403.43" x2="1403.43" y1="600.785" y2="720.121"/>
  <line id="right-margin-Regular-S" style="fill:none;stroke:#00AEEF;stroke-width:0.5;opacity:1.0;" x1="1496.26" x2="1496.26" y1="600.785" y2="720.121"/>
  <line id="left-margin-Black-S" style="fill:none;stroke:#00AEEF;stroke-width:0.5;opacity:1.0;" x1="2885.28" x2="2885.28" y1="600.785" y2="720.121"/>
  <line id="right-margin-Black-S" style="fill:none;stroke:#00AEEF;stroke-width:0.5;opacity:1.0;" x1="2981.52" x2="2981.52" y1="600.785" y2="720.121"/>
 </g>
 <g id="Symbols">
  <g id="Black-S" transform="matrix(1 0 0 1 2885.28 696)">
   <path d="M86.0482-53.2C87.5482-54.7 89.1482-57 89.8482-60C90.6482-63.1 90.6482-68.9 86.0482-73.5C83.9482-75.6 80.5482-77.7 75.9482-77.7C71.2482-77.7 67.9482-75.7 65.8482-73.5L54.3482-62L53.6482-62.2L53.6482-62.6C53.8482-64.6 53.1482-66.2 52.0482-67.4C49.3482-70.1 45.6482-69.2 43.7482-67.4L42.3482-66L41.6482-66.2L41.7482-66.7C41.8482-68.2 41.3482-70.1 40.1482-71.3C36.5482-74.8 32.9482-72.4 31.4482-71L30.4482-70L21.8482-72.9C17.7482-74.1 15.4482-71.3 14.7482-70L11.1482-62.8C10.0482-60.8 8.84821-57 13.0482-54.3L34.3482-42L29.4482-37.1L15.8482-37.1C14.6482-37 12.2482-37 10.4482-33.4L6.64821-25.9C5.64821-23.7 6.04821-22.2 6.34821-21.4C6.64821-20.6 7.44821-18.9 9.24821-18L23.5482-11L30.6482 3.3C31.1482 4.4 32.7482 6.5 35.8482 6.5C37.0482 6.5 38.0482 6.1 38.4482 5.9L46.3482 2C47.3482 1.5 49.7482 0 49.7482-3.3L49.7482-16.9L54.6482-21.8L66.8482-0.4C68.3482 2.2 71.4482 3.3 74.5482 1.9L82.5482-2.1C85.7482-3.7 86.1482-7.2 85.4482-9.2L82.5482-17.8L84.1482-19.4C86.7482-22 85.9482-25.6 84.0482-27.5C82.8482-28.7 81.2482-29.4 79.3482-29.2L78.8482-29L78.6482-29.7L79.3482-30.4C82.2482-32.9 81.9482-35.7 81.5482-36.9C81.0482-38.4 79.6482-40.9 75.9482-41L74.8482-41L74.6482-41.7L86.0482-53.2ZM73.7482-7.9L60.9482-34.2C59.5482-36.5 57.5482-37 56.6482-37.1C55.7482-37.2 53.4482-37.2 51.8482-35.6L39.7482-23.4C39.1482-22.8 38.0482-21.6 38.0482-19.3L38.6482-8.4L36.7482-7.2L34.9482-14.2L34.9482-14.2C37.6482-16.9 36.8482-20.6 34.9482-22.5C33.1482-24.3 29.3482-25.1 26.6482-22.5L26.6482-22.5L18.9482-23.6L20.4482-25.5L31.7482-25.5C32.5482-25.5 34.3482-25.7 35.8482-27.2L47.8482-39.2C49.6482-41.1 49.6482-43.2 49.5482-44.1C49.4482-45 48.9482-47 46.6482-48.4L21.5482-60.4L22.6482-61.9L54.1482-49.7C57.1482-48.8 59.3482-50.3 60.1482-51.1L74.1482-65.1C74.9482-65.9 76.0482-65.9 76.0482-65.9C76.0482-65.9 77.1482-65.9 77.9482-65.1C78.8482-64.2 78.7482-63.2 78.7482-63.2C78.7482-63.2 78.7482-62.1 77.9482-61.3L63.9482-47.3C61.9482-45.3 62.0482-42.7 62.5482-41.3L75.0482-9.2L73.7482-7.9Z"/>
  </g>
  <g id="Regular-S" transform="matrix(1 0 0 1 1403.43 696)">
   <path d="M82.2914-55.2C84.4914-57.4 85.6914-60.3 85.6914-63.3C85.6914-66.3 84.4914-69.3 82.2914-71.4C80.0914-73.6 77.1914-74.8 74.1914-74.8C71.1914-74.8 68.1914-73.6 66.0914-71.4L53.3914-58.7L47.7914-60.6L48.3914-61.2C49.5914-62.4 49.5914-64.3 48.3914-65.4C47.1914-66.6 45.2914-66.6 44.1914-65.4L41.4914-62.7L35.8914-64.6L36.4914-65.2C37.6914-66.4 37.6914-68.3 36.4914-69.4C35.2914-70.6 33.3914-70.6 32.2914-69.4L29.5914-66.7L19.3914-70.1C17.9914-70.6 16.3914-69.9 15.7914-68.6L11.7914-60.6C11.0914-59.2 11.5914-57.4 12.9914-56.7L37.5914-42.6L29.2914-34.3L14.1914-34.3C13.0914-34.3 11.9914-33.7 11.4914-32.6L7.49137-24.6C7.09137-23.9 7.09137-23.1 7.29137-22.3C7.59137-21.6 8.09137-21 8.89137-20.6L23.9914-13L31.4914 2C31.9914 3.1 33.0914 3.7 34.1914 3.7C34.6914 3.7 35.0914 3.6 35.4914 3.4L43.4914-0.6C44.4914-1.1 45.1914-2.1 45.1914-3.3L45.1914-18.1L53.4914-26.4L67.5914-1.8C68.3914-0.4 70.0914 0.1 71.4914-0.6L79.4914-4.6C80.7914-5.3 81.4914-6.8 80.9914-8.2L77.5914-18.4L80.2914-21.1C81.4914-22.3 81.4914-24.2 80.2914-25.3C79.0914-26.5 77.1914-26.5 76.0914-25.3L75.4914-24.7L73.5914-30.3L76.2914-33C77.4914-34.2 77.4914-36.1 76.2914-37.2C75.0914-38.4 73.1914-38.4 72.0914-37.2L71.4914-36.6L69.5914-42.2L82.2914-55.2ZM71.3914-7.3L56.7914-32.8C56.2914-33.6 55.4914-34.2 54.5914-34.3C53.6914-34.4 52.6914-34.1 52.0914-33.4L40.0914-21.4C39.4914-20.8 39.1914-20.1 39.1914-19.3L39.1914-5.2L35.4914-3.4L29.7914-14.8L32.2914-17.3C33.4914-18.5 33.4914-20.4 32.2914-21.5C31.0914-22.7 29.1914-22.7 28.0914-21.5L25.5914-19L14.1914-24.7L15.9914-28.4L30.0914-28.4C30.8914-28.4 31.6914-28.7 32.1914-29.3L44.1914-41.3C44.8914-42 45.1914-42.9 45.0914-43.8C44.9914-44.7 44.3914-45.5 43.5914-46L18.0914-60.5L19.6914-63.6L53.1914-52.4C54.2914-52 55.4914-52.3 56.2914-53.1L70.2914-67.1C71.2914-68.1 72.6914-68.7 74.1914-68.7C75.6914-68.7 76.9914-68.1 78.0914-67.1C79.0914-66.1 79.6914-64.7 79.6914-63.2C79.6914-61.7 79.0914-60.4 78.0914-59.3L64.0914-45.3C63.2914-44.5 62.9914-43.3 63.3914-42.2L74.4914-8.8L71.3914-7.3Z"/>
  </g>
  <g id="Ultralight-S" transform="matrix(1 0 0 1 515.067 696)">
   <path d="M79.0639-56.7C80.9639-58.5 81.7639-60.8 81.7639-63.3C81.7639-65.7 80.8639-68.1 79.0639-69.9C77.2639-71.7 74.9639-72.6 72.4639-72.6C69.6639-72.6 67.4639-71.4 65.8639-69.9L52.1639-56.3L42.0639-59.7L45.0639-62.7C45.6639-63.4 45.0639-63.9 45.0639-63.9C45.0639-63.9 44.4639-64.5 43.8639-63.9L40.2639-60.3L30.1639-63.7L33.1639-66.7C33.7639-67.3 33.1639-67.9 33.1639-67.9C33.1639-67.9 32.5639-68.5 31.9639-67.9L28.3639-64.3L16.8639-68.1C16.0639-68.3 15.7639-67.7 15.7639-67.7L11.7639-59.7C11.7639-59.7 11.3639-59 12.0639-58.5L39.0639-43.1L28.0639-32.2L12.3639-32.2C11.7639-32.2 11.5639-31.7 11.5639-31.7L7.56389-23.7C7.56389-23.7 7.36389-23.4 7.56389-23C7.76389-22.6 7.96389-22.5 7.96389-22.5L23.6639-14.6L31.5639 1.1C31.8639 1.6 32.3639 1.6 32.3639 1.6C32.3639 1.6 32.5639 1.6 32.7639 1.5L40.7639-2.5C41.2639-2.8 41.2639-3.3 41.2639-3.3L41.2639-18.9L52.1639-29.8L67.5639-2.8C68.0639-2.1 68.6639-2.5 68.6639-2.5L76.6639-6.5C76.6639-6.5 77.2639-6.8 77.0639-7.6L73.2639-19.1L76.8639-22.7C77.4639-23.4 76.8639-23.9 76.8639-23.9C76.8639-23.9 76.2639-24.5 75.6639-23.9L72.6639-20.9L69.2639-31L72.8639-34.6C72.8639-34.6 73.4639-35.2 72.8639-35.8C72.2639-36.4 71.6639-35.8 71.6639-35.8L68.6639-32.8L65.2639-42.9L79.0639-56.7ZM68.7639-4.5L53.1639-31.7C52.7639-32.2 52.3639-32.1 52.3639-32.1C52.3639-32.1 52.0639-32.1 51.7639-31.8L39.7639-19.8C39.4639-19.5 39.4639-19.2 39.4639-19.2L39.4639-3.7L32.7639-0.3L25.4639-15L29.0639-18.6C29.7639-19.3 29.0639-19.8 29.0639-19.8C29.0639-19.8 28.3639-20.4 27.8639-19.8L24.2639-16.2L9.56389-23.7L12.9639-30.4L28.4639-30.4C28.4639-30.4 28.8639-30.4 29.0639-30.7L41.0639-42.7C41.0639-42.7 41.3639-43 41.2639-43.4C41.1639-43.8 40.8639-44 40.8639-44L13.5639-59.7L16.8639-66.3L52.1639-54.5C52.1639-54.5 52.6639-54.3 53.0639-54.7L67.0639-68.7C69.0639-70.5 70.5639-70.9 72.4639-70.9C73.9639-70.9 75.7639-70.6 77.8639-68.7C78.9639-67.7 80.0639-65.8 80.0639-63.3C80.0639-61.8 79.5639-59.7 77.8639-57.9L63.8639-43.9C63.4639-43.5 63.6639-43 63.6639-43L75.3639-7.7L68.7639-4.5Z"/>
  </g>
 </g>
</svg>
