<svg width="46" height="45" viewBox="0 0 46 45" fill="none" xmlns="http://www.w3.org/2000/svg">
<path d="M7.11571 11.2254L11.7179 27.7996C11.8165 28.1556 12.1651 28.386 12.5366 28.3389L43.9966 24.5636C45.1498 24.2739 45.479 23.3523 45.3223 22.9072L27.2234 8.79405C27.1125 8.47988 26.8044 8.27741 26.4699 8.29836L8.02242 8.83594C7.54882 8.86561 6.5981 9.54107 7.11395 11.2271L7.11571 11.2254Z" fill="#00144A"/>
<path d="M7.35751 9.76942L12.1868 27.1587C12.2854 27.5148 12.634 27.7451 13.0055 27.698L44.712 23.8913C45.1838 23.8302 45.4796 23.3555 45.3229 22.9104L39.2242 7.37999C39.1133 7.06582 38.8052 6.86335 38.4707 6.8843L8.03182 8.83215C7.55822 8.86182 7.23075 9.31562 7.35751 9.76942Z" fill="#4D82B8"/>
<path d="M18.4873 25.2044L14.6698 25.6827C14.2899 25.7298 13.9099 25.5117 13.8199 25.192L9.94472 11.4616C9.86472 11.1741 10.0922 10.9163 10.4572 10.8841L14.1171 10.5619C14.4746 10.5297 14.8321 10.7354 14.9171 11.0179L18.9897 24.5526C19.0847 24.8649 18.8572 25.1573 18.4873 25.2044Z" stroke="#D5DADD" stroke-width="0.754166"/>
<path d="M26.6018 24.1879L22.9619 24.6415C22.5994 24.6861 22.2269 24.4729 22.1294 24.1631L18.0042 10.7401C17.9142 10.46 18.1242 10.2097 18.4717 10.1775L21.9691 9.87016C22.3091 9.84042 22.6616 10.0387 22.7541 10.3163L27.0568 23.556C27.1593 23.8608 26.9568 24.1433 26.6018 24.1879Z" stroke="#D5DADD" stroke-width="0.754166"/>
<path d="M34.5903 23.3826L31.1154 23.8163C30.7704 23.8584 30.4054 23.6502 30.2979 23.3504L25.9024 10.1556C25.8074 9.88303 25.9974 9.63767 26.3299 9.60793L29.6748 9.31548C29.9998 9.28574 30.3448 9.48153 30.4448 9.75167L35.0028 22.7704C35.1128 23.0654 34.9278 23.3404 34.5903 23.3826Z" stroke="#D5DADD" stroke-width="0.754166"/>
<path d="M42.5048 22.33L39.1924 22.7439C38.8624 22.786 38.5049 22.5803 38.3924 22.2879L33.5503 9.56158C33.4478 9.2964 33.6228 9.05848 33.9403 9.02874L37.1427 8.74869C37.4552 8.72142 37.7927 8.91226 37.8977 9.17496L42.8798 21.7352C42.9948 22.0227 42.8273 22.2904 42.5048 22.33Z" stroke="#D5DADD" stroke-width="0.754166"/>
<path d="M28.5367 38.1065L18.9062 35.1431C20.4732 34.0211 19.511 32.7267 16.5698 31.9373C13.2042 31.0329 7.87677 30.98 4.1412 31.8735C-0.110478 32.8914 -1.03077 34.8028 2.84937 36.0723C6.87875 37.3901 13.6301 37.2518 17.3657 35.903L26.326 39.0048L27.4158 38.8189C27.6167 38.5765 27.7267 38.8399 28.0407 38.6504C28.6221 38.2525 28.9268 37.9915 28.8305 37.9433H28.5367V38.1065Z" fill="#101619"/>
<path d="M29.8444 14.523C30.4839 17.1979 29.4302 19.9526 28.1144 21.9193C26.9304 23.6865 24.9332 24.9317 22.3181 25.2442C16.5503 25.9324 10.3767 21.8245 8.82031 16.2586C7.26396 10.6928 10.6822 5.39452 16.1595 5.14183C21.4214 4.89911 28.0793 9.59388 29.8444 14.523Z" fill="#8D2A00"/>
<path d="M29.4586 13.1481C31.2938 18.2718 28.5251 23.0896 23.001 23.7495C17.2332 24.4378 11.0596 20.3299 9.50322 14.764C7.94687 9.19812 11.4537 5.04531 16.9326 4.79262C22.1945 4.5499 27.6951 8.22059 29.4602 13.1481H29.4586Z" fill="#C35500"/>
<path d="M28.2279 13.2481C29.8026 17.7051 27.3612 21.8612 22.5719 22.4082C17.5989 22.9751 12.2853 19.439 10.921 14.6512C9.60511 10.0329 12.5525 6.20592 17.3084 5.96486C21.9006 5.73378 26.7066 8.94065 28.2295 13.2481H28.2279Z" fill="#D0C1CB"/>
<path d="M29.3919 38.1397L26.2458 38.9743L21.2478 23.0729L24.1952 22.7305L29.3919 38.1397Z" fill="#C35500"/>
<path d="M10.7559 11.0625L17.2601 5.96875C13.8435 6.15993 11.3704 8.20475 10.7559 11.0625Z" fill="#D0C1CB"/>
<path d="M22.572 22.4093C26.7969 21.9272 29.1932 18.6372 28.6187 14.8086L18.2119 21.9172C19.623 22.386 21.1125 22.5756 22.572 22.4093Z" fill="#D5DADD"/>
<path d="M17.3069 5.96469C17.4421 5.95808 17.5757 5.95478 17.711 5.95312C17.5757 5.95312 17.4421 5.95808 17.3069 5.96469Z" fill="#D0C1CB"/>
<path d="M21.677 6.72656C21.7187 6.74319 21.7605 6.75981 21.8006 6.77644C21.7588 6.75981 21.7187 6.74319 21.677 6.72656Z" fill="#D0C1CB"/>
<path d="M22.0559 6.88281C22.0843 6.89611 22.1127 6.90941 22.1411 6.92105C22.1127 6.90775 22.0843 6.89445 22.0559 6.88281Z" fill="#D0C1CB"/>
<path d="M21.2927 6.58203C21.3395 6.59866 21.3879 6.61528 21.4347 6.63357C21.3879 6.61528 21.3412 6.59866 21.2927 6.58203Z" fill="#D0C1CB"/>
<path d="M18.6943 6C18.7712 6.00661 18.848 6.01487 18.9265 6.02479C18.8496 6.01653 18.7728 6.00826 18.6943 6Z" fill="#D0C1CB"/>
<path d="M18.2786 5.96875C18.3587 5.97371 18.4405 5.97701 18.5207 5.98362C18.4405 5.97701 18.3587 5.97206 18.2786 5.96875Z" fill="#D0C1CB"/>
<path d="M19.1035 6.04297C19.1787 6.05288 19.2555 6.06445 19.3306 6.07602C19.2555 6.06445 19.1803 6.05288 19.1035 6.04297Z" fill="#D0C1CB"/>
<path d="M17.8462 5.95312C17.9364 5.95312 18.0249 5.95478 18.115 5.95808C18.0249 5.95478 17.9347 5.95312 17.8462 5.95312Z" fill="#D0C1CB"/>
<path d="M28.6922 15.4979C28.4451 10.5472 23.6675 6.58721 18.925 5.99704C17.2751 5.84576 14.3745 5.84576 12.2687 8.12498C12.0316 8.381 11.8095 8.68024 11.6024 8.9961C11.5674 9.0493 11.5473 9.08587 11.5156 9.13741C11.5106 9.14406 11.5089 9.15237 11.5039 9.16068C14.0004 6.16661 17.9915 5.97543 21.5183 7.37189C25.1687 8.81656 28.3215 11.9636 28.6922 15.5013V15.4979Z" fill="#8D2A00"/>
<path d="M16.4785 6.57929L10.7557 11.0613C10.5203 12.1585 10.557 13.3737 10.9211 14.6505C10.9511 14.7569 10.9845 14.8616 11.0196 14.9664L22.0927 7.61665C20.2792 6.80704 18.3154 6.40473 16.4785 6.57929Z" fill="#D5DADD"/>
<path d="M20.0488 23.7014L21.7638 24.7138C21.7638 24.7138 21.4065 23.8311 22.5821 23.7097V23.6914C22.1112 23.7629 21.1627 23.8577 20.0488 23.6997V23.7014Z" fill="#8D2A00"/>
<path d="M23.8279 23.5324C24.0667 23.5424 24.4842 23.7186 24.6829 24.2257L24.9668 23.3047C24.9668 23.3047 24.7046 23.431 23.8279 23.5308V23.5324Z" fill="#8D2A00"/>
<path d="M26.2458 38.9753L21.5601 24.0848L21.8757 23.7689C21.8757 23.7689 22.4752 23.734 23.1565 23.5977C23.1565 23.5977 22.921 23.862 22.9895 24.2277C23.2634 25.6641 27.7187 38.696 27.7187 38.696L26.2441 38.9753H26.2458Z" fill="#8D2A00"/>
<path d="M29.3918 38.1393C29.3918 38.3122 28.5802 38.5998 27.2526 38.9406C26.5963 39.072 26.2741 39.0553 26.2457 38.9739C26.2256 38.9157 26.5847 38.6913 27.2359 38.4818C28.2111 38.1776 29.2816 38.0063 29.3918 38.1393Z" fill="#8D2A00"/>
<path d="M20.7184 14.3484C21.1593 13.9045 21.5701 13.454 21.3146 12.671C21.0307 11.8015 20.2024 11.3726 19.2356 11.4391C18.2386 11.5073 17.7527 12.006 17.4788 12.6394L16.5537 12.0226C16.8844 11.2878 17.549 10.6644 18.9417 10.573C20.6049 10.4633 21.9024 11.2213 22.3399 12.538C22.7023 13.6336 22.218 14.237 21.6653 14.8521C21.1576 15.4107 20.8971 15.705 21.0725 16.2519L21.1092 16.365L20.0939 16.4564L20.0572 16.3434C19.7416 15.3492 20.2325 14.8355 20.7184 14.3501V14.3484ZM20.8654 17.1995C21.2845 17.1613 21.702 17.4389 21.8323 17.8429C21.9625 18.2469 21.7438 18.591 21.323 18.6325C20.8955 18.6741 20.4813 18.3998 20.3511 17.9842C20.2208 17.5686 20.4396 17.2378 20.8654 17.1979V17.1995Z" fill="#00144A"/>
</svg>
