<svg width="320" height="145" viewBox="0 0 320 145" fill="none" xmlns="http://www.w3.org/2000/svg">
<rect y="7" width="320" height="138" rx="24" fill="#222F3B"/>
<path d="M156.997 128.6L60 89.5122L124.118 70.0186L156.997 85.7372V128.6Z" fill="#101619"/>
<path d="M133.167 32.7934L156.997 128.6L249.746 81.7066L231.575 0.255371L133.167 32.7934Z" fill="#3B5B7C"/>
<path d="M132.393 32.3804L133.167 32.7935L231.575 0.25549L231.326 0L132.393 32.3804Z" fill="#3B5B7C"/>
<path d="M114.967 111.635L132.393 32.3804L133.167 32.7935L149.452 98.273L114.967 111.635Z" fill="#2A4259"/>
<path d="M134.408 33.6482L155.891 121.062L247.84 76.4846L231.159 1.71191L134.408 33.6482Z" fill="#2A4259"/>
<path d="M135.099 33.4237L156.584 120.84L248.531 76.2625L231.849 1.48975L135.099 33.4237Z" fill="#4D82B8"/>
<path d="M231.849 1.48975L237.93 24.3597C240.769 35.0402 245.56 45.0998 252.062 54.0372L260 64.9493L168.113 108.984C154.697 93.0604 145.133 74.2567 140.162 54.0348L135.099 33.4284L231.849 1.48975Z" fill="#D5DADD"/>
<path d="M206.26 14.6439C206.933 13.7677 207.007 12.8366 207.045 12.3232L205.054 12.9846C204.997 13.1613 204.911 13.3379 204.782 13.5074C204.651 13.6769 204.307 13.93 203.999 14.1306L204.269 16.0764L204.286 16.1122C204.491 16.0167 205.723 15.3458 206.262 14.6439H206.26Z" fill="#00144A"/>
<path fill-rule="evenodd" clip-rule="evenodd" d="M135.099 33.4237L138.322 46.5372L234.731 12.323L231.849 1.48975L135.099 33.4237Z" fill="#C35500"/>
<path d="M162.96 30.1427L159.462 31.3173L159.045 28.2924L162.576 27.1201L162.96 30.1427Z" fill="#2A4259"/>
<path d="M162.96 30.1427L162.392 30.3337L161.974 27.3063L162.576 27.1201L162.96 30.1427Z" fill="#00144A"/>
<path d="M160.764 21.3228C160.401 20.8763 159.432 19.692 157.937 19.7899C156.567 19.8783 155.64 20.9814 155.263 21.8983C154.872 22.8486 155.141 24.3505 155.263 24.8973L157.044 24.3147C156.946 23.7894 156.858 22.9274 156.989 22.6098C157.118 22.2947 157.51 21.6906 158.059 21.6547C158.603 21.6142 159.066 22.1968 159.32 22.5048C159.993 23.331 160.322 26.287 160.294 26.8625C160.265 27.2636 160.229 27.7602 159.89 28.2044C159.673 28.4861 159.367 28.7058 159.107 28.8276L159.394 30.8118C159.599 30.7163 160.831 30.0453 161.37 29.3433C162.053 28.4551 162.12 27.5048 162.156 26.9962C162.177 26.6881 162.02 22.8653 160.766 21.3276L160.764 21.3228Z" fill="#00144A"/>
<path d="M207.807 15.2193L204.312 16.3964L203.891 13.3714L207.422 12.1968L207.807 15.2193Z" fill="#2A4259"/>
<path d="M207.807 15.2193L207.241 15.4103L206.821 12.3854L207.422 12.1968L207.807 15.2193Z" fill="#00144A"/>
<path d="M205.658 6.62851C205.295 6.182 204.326 4.99767 202.832 5.09557C201.461 5.18391 200.535 6.28706 200.158 7.20396C199.766 8.15429 200.036 9.65619 200.158 10.203L201.939 9.62037C201.841 9.09507 201.752 8.23308 201.884 7.91551C202.013 7.60033 202.404 6.99622 202.953 6.96041C203.498 6.91982 203.961 7.50243 204.214 7.81045C204.887 8.63662 205.217 11.5927 205.188 12.1681C205.159 12.5693 205.124 13.0659 204.785 13.51C204.567 13.7918 204.262 14.0115 204.001 14.1332L204.288 16.1175C204.493 16.022 205.725 15.351 206.265 14.649C206.948 13.7607 207.014 12.8104 207.05 12.3018C207.072 11.9938 206.914 8.171 205.661 6.63329L205.658 6.62851Z" fill="#00144A"/>
<path d="M219.272 62.1937L248.867 49.3309C248.652 48.9918 248.44 48.6504 248.227 48.3065L218.763 61.1121C215.979 55.1212 213.599 48.9035 211.503 42.5998L240.181 31.5707C240.048 31.1958 239.912 30.8209 239.783 30.4461L211.13 41.4632C208.566 33.6194 206.422 25.6634 204.465 17.8745L203.314 18.1945C205.276 26.0168 207.432 34.0086 210.013 41.8906L177.309 54.4669C174.609 46.3247 172.377 38.0511 170.343 29.959L169.192 30.2789C171.231 38.4045 173.477 46.7163 176.192 54.8967L144.126 67.2271C144.259 67.602 144.398 67.9745 144.534 68.3494L176.574 56.0285C178.873 62.8313 181.507 69.5313 184.627 75.9448L154.239 89.1539C154.44 89.5002 154.638 89.8488 154.841 90.195L185.155 77.0193C188.38 83.5045 192.117 89.684 196.524 95.3621L197.627 94.832C193.21 89.1706 189.471 83.0102 186.248 76.5418L218.174 62.6665C221.079 68.7887 224.412 74.6602 228.306 80.1306L229.402 79.6053C225.503 74.154 222.168 68.2968 219.269 62.189L219.272 62.1937ZM185.725 75.4721C182.61 69.0753 179.983 62.3895 177.691 55.6011L210.388 43.0296C212.491 49.3452 214.879 55.5796 217.667 61.5872L185.725 75.4721Z" fill="#C35500"/>
</svg>
