<svg width="130" height="128" viewBox="0 0 130 128" fill="none" xmlns="http://www.w3.org/2000/svg">
<path d="M100.327 104.162L69.8608 95.3979C69.7875 95.3703 69.7141 95.3564 69.6408 95.3772L2.03259 103.121C-0.122341 103.425 -0.325422 104.165 0.328956 104.552L30.8573 113.634C32.1829 114.187 33.5932 114.319 34.9697 114.014L98.4091 105.4C100.4 105.075 100.801 104.349 100.327 104.162Z" fill="#1B90FF"/>
<path d="M85.2422 34.7762L106.339 95.3717C106.789 97.6854 104.341 99.4528 102.901 99.576L36.9052 108.938C35.7804 109.034 34.7521 108.29 34.495 107.187L18.8343 41.5673C18.2773 38.868 20.5215 35.6331 21.9408 35.5688L82.9606 33.1587C83.9997 33.1105 84.9423 33.7746 85.2422 34.7762Z" fill="#0040B0"/>
<path d="M86.9782 32.9261L106.243 94.8498C106.661 96.237 105.702 97.6563 104.256 97.7795L38.6412 107.088C37.5164 107.184 36.4881 106.44 36.231 105.337L20.249 38.3622C19.9223 36.975 20.9399 35.6361 22.3646 35.5665L84.6966 31.3032C85.7356 31.255 86.6783 31.9192 86.9782 32.9207V32.9261Z" fill="#56BDFF"/>
<path d="M60.5138 44.1228C60.5707 44.3274 60.4229 44.532 60.2126 44.5433L38.8673 45.6746C38.7593 45.6803 38.7195 45.8167 38.8105 45.8792L90.5163 83.4526C90.6072 83.5151 90.7208 83.4298 90.6924 83.3275L85.2985 65.7216C85.236 65.5227 85.3724 65.3124 85.5827 65.2897L90.316 65.0567C90.4751 65.0396 90.6229 65.1362 90.674 65.2897L98.6321 91.5443C98.6947 91.7432 98.5639 91.9478 98.3537 91.9762L67.2512 95.3611C67.0864 95.3838 66.9329 95.2816 66.8875 95.1224L65.4353 90.1712C65.3784 89.9723 65.5092 89.7734 65.7137 89.745L86.2723 87.9764C86.3746 87.965 86.4087 87.8286 86.3234 87.7718L36.0673 51.2762C35.982 51.2137 35.8684 51.2933 35.8911 51.3956L40.7951 71.3537C40.8463 71.5526 40.7042 71.7515 40.4996 71.7685L35.6896 72.2515C35.5248 72.2629 35.3771 72.1549 35.3373 71.9958L27.7701 41.5343C27.7189 41.3297 27.8667 41.1308 28.0769 41.1195L58.8393 38.911C58.9985 38.8996 59.1405 39.0076 59.1803 39.161L60.5138 44.1228Z" fill="#00144A"/>
<path d="M124.546 52.2142C124.546 52.2142 117.919 61.2169 105.05 62.8888C92.1813 64.5607 74.5283 55.0349 69.9163 40.3803C64.9041 24.4538 74.0738 13.5396 89.7426 10.1434C104.088 8.99966 124.546 52.2142 124.546 52.2142Z" fill="#8D2A00"/>
<path d="M126.285 32.1117C131.613 46.0579 124.145 59.163 109.114 60.9856C93.714 62.8525 77.0962 52.1382 72.4842 37.4762C68.0273 23.3159 76.6756 11.2218 91.3453 10.0485C105.69 8.9048 121.135 18.6081 126.293 32.1043L126.285 32.1117Z" fill="#C35500"/>
<path d="M114.489 31.1333C114.356 30.7793 114.001 30.5594 113.625 30.598L102.715 31.7167C102.335 31.7556 101.978 31.5314 101.848 31.1727L98.337 21.4936C98.2081 21.1384 97.8561 20.9146 97.4797 20.9487L91.7225 21.4708C91.1814 21.5198 90.8318 22.0658 91.0136 22.5777L94.1999 31.5519C94.3803 32.06 94.0371 32.6029 93.5007 32.6579L82.9048 33.7449C82.3723 33.7996 82.0292 34.3355 82.2025 34.8419L83.9877 40.0595C84.1137 40.428 84.4785 40.6597 84.8656 40.6172L96.2974 39.3631C96.6809 39.321 97.043 39.5481 97.1722 39.9116L100.763 50.0197C100.894 50.3866 101.261 50.614 101.648 50.5671L107.54 49.8519C108.071 49.7874 108.404 49.2452 108.222 48.7421L104.854 39.462C104.67 38.9551 105.009 38.4098 105.545 38.3511L115.673 37.2424C116.213 37.1833 116.553 36.6313 116.362 36.1229L114.489 31.1333Z" fill="white"/>
</svg>
