<?xml version="1.0" encoding="UTF-8"?>
<!--Generator: Apple Native CoreSVG 232.5-->
<!DOCTYPE svg
PUBLIC "-//W3C//DTD SVG 1.1//EN"
       "http://www.w3.org/Graphics/SVG/1.1/DTD/svg11.dtd">
<svg version="1.1" xmlns="http://www.w3.org/2000/svg" xmlns:xlink="http://www.w3.org/1999/xlink" width="3300" height="2200">
 <!--glyph: "", point size: 100.0, font version: "19.0d6e1", template writer version: "123"-->
 <style>.SFSymbolsPreviewWireframe {fill:none;opacity:1.0;stroke:black;stroke-width:0.5}
</style>
 <g id="Notes">
  <rect height="2200" id="artboard" style="fill:white;opacity:1" width="3300" x="0" y="0"/>
  <line style="fill:none;stroke:black;opacity:1;stroke-width:0.5;" x1="263" x2="3036" y1="292" y2="292"/>
  <text style="stroke:none;fill:black;font-family:sans-serif;font-size:13;font-weight:bold;" transform="matrix(1 0 0 1 263 322)">Weight/Scale Variations</text>
  <text style="stroke:none;fill:black;font-family:sans-serif;font-size:13;text-anchor:middle;" transform="matrix(1 0 0 1 559.711 322)">Ultralight</text>
  <text style="stroke:none;fill:black;font-family:sans-serif;font-size:13;text-anchor:middle;" transform="matrix(1 0 0 1 856.422 322)">Thin</text>
  <text style="stroke:none;fill:black;font-family:sans-serif;font-size:13;text-anchor:middle;" transform="matrix(1 0 0 1 1153.13 322)">Light</text>
  <text style="stroke:none;fill:black;font-family:sans-serif;font-size:13;text-anchor:middle;" transform="matrix(1 0 0 1 1449.84 322)">Regular</text>
  <text style="stroke:none;fill:black;font-family:sans-serif;font-size:13;text-anchor:middle;" transform="matrix(1 0 0 1 1746.56 322)">Medium</text>
  <text style="stroke:none;fill:black;font-family:sans-serif;font-size:13;text-anchor:middle;" transform="matrix(1 0 0 1 2043.27 322)">Semibold</text>
  <text style="stroke:none;fill:black;font-family:sans-serif;font-size:13;text-anchor:middle;" transform="matrix(1 0 0 1 2339.98 322)">Bold</text>
  <text style="stroke:none;fill:black;font-family:sans-serif;font-size:13;text-anchor:middle;" transform="matrix(1 0 0 1 2636.69 322)">Heavy</text>
  <text style="stroke:none;fill:black;font-family:sans-serif;font-size:13;text-anchor:middle;" transform="matrix(1 0 0 1 2933.4 322)">Black</text>
  <line style="fill:none;stroke:black;opacity:1;stroke-width:0.5;" x1="263" x2="3036" y1="1903" y2="1903"/>
  <g transform="matrix(0.2 0 0 0.2 263 1933)">
   <path d="m46.2402 4.15039c21.5332 0 39.4531-17.8711 39.4531-39.4043s-17.9688-39.4043-39.502-39.4043c-21.4844 0-39.3555 17.8711-39.3555 39.4043s17.9199 39.4043 39.4043 39.4043Zm0-7.42188c-17.7246 0-31.8848-14.209-31.8848-31.9824s14.1113-31.9824 31.8359-31.9824c17.7734 0 32.0312 14.209 32.0312 31.9824s-14.209 31.9824-31.9824 31.9824Zm-17.9688-31.9824c0 2.14844 1.51367 3.61328 3.75977 3.61328h10.498v10.5957c0 2.19727 1.46484 3.71094 3.61328 3.71094 2.24609 0 3.71094-1.51367 3.71094-3.71094v-10.5957h10.5957c2.19727 0 3.71094-1.46484 3.71094-3.61328 0-2.19727-1.51367-3.71094-3.71094-3.71094h-10.5957v-10.5469c0-2.24609-1.46484-3.75977-3.71094-3.75977-2.14844 0-3.61328 1.51367-3.61328 3.75977v10.5469h-10.498c-2.24609 0-3.75977 1.51367-3.75977 3.71094Z"/>
  </g>
  <g transform="matrix(0.2 0 0 0.2 281.506 1933)">
   <path d="m58.5449 14.5508c27.2461 0 49.8047-22.6074 49.8047-49.8047 0-27.2461-22.6074-49.8047-49.8535-49.8047-27.1973 0-49.7559 22.5586-49.7559 49.8047 0 27.1973 22.6074 49.8047 49.8047 49.8047Zm0-8.30078c-23.0469 0-41.4551-18.457-41.4551-41.5039s18.3594-41.5039 41.4062-41.5039 41.5527 18.457 41.5527 41.5039-18.457 41.5039-41.5039 41.5039Zm-22.6562-41.5039c0 2.39258 1.66016 4.00391 4.15039 4.00391h14.3555v14.4043c0 2.44141 1.66016 4.15039 4.05273 4.15039 2.44141 0 4.15039-1.66016 4.15039-4.15039v-14.4043h14.4043c2.44141 0 4.15039-1.61133 4.15039-4.00391 0-2.44141-1.70898-4.15039-4.15039-4.15039h-14.4043v-14.3555c0-2.49023-1.70898-4.19922-4.15039-4.19922-2.39258 0-4.05273 1.70898-4.05273 4.19922v14.3555h-14.3555c-2.49023 0-4.15039 1.70898-4.15039 4.15039Z"/>
  </g>
  <g transform="matrix(0.2 0 0 0.2 304.924 1933)">
   <path d="m74.8535 28.3203c34.8145 0 63.623-28.8086 63.623-63.5742 0-34.8145-28.8574-63.623-63.6719-63.623-34.7656 0-63.5254 28.8086-63.5254 63.623 0 34.7656 28.8086 63.5742 63.5742 63.5742Zm0-9.08203c-30.1758 0-54.4434-24.3164-54.4434-54.4922 0-30.2246 24.2188-54.4922 54.3945-54.4922 30.2246 0 54.541 24.2676 54.541 54.4922 0 30.1758-24.2676 54.4922-54.4922 54.4922Zm-28.8574-54.4922c0 2.58789 1.85547 4.39453 4.58984 4.39453h19.7266v19.7754c0 2.68555 1.85547 4.58984 4.44336 4.58984 2.68555 0 4.54102-1.85547 4.54102-4.58984v-19.7754h19.7754c2.68555 0 4.58984-1.80664 4.58984-4.39453 0-2.73438-1.85547-4.58984-4.58984-4.58984h-19.7754v-19.7266c0-2.73438-1.85547-4.63867-4.54102-4.63867-2.58789 0-4.44336 1.9043-4.44336 4.63867v19.7266h-19.7266c-2.73438 0-4.58984 1.85547-4.58984 4.58984Z"/>
  </g>
  <text style="stroke:none;fill:black;font-family:sans-serif;font-size:13;font-weight:bold;" transform="matrix(1 0 0 1 263 1953)">Design Variations</text>
  <text style="stroke:none;fill:black;font-family:sans-serif;font-size:13;" transform="matrix(1 0 0 1 263 1971)">Symbols are supported in up to nine weights and three scales.</text>
  <text style="stroke:none;fill:black;font-family:sans-serif;font-size:13;" transform="matrix(1 0 0 1 263 1989)">For optimal layout with text and other symbols, vertically align</text>
  <text style="stroke:none;fill:black;font-family:sans-serif;font-size:13;" transform="matrix(1 0 0 1 263 2007)">symbols with the adjacent text.</text>
  <line style="fill:none;stroke:#00AEEF;stroke-width:0.5;opacity:1.0;" x1="776" x2="776" y1="1919" y2="1933"/>
  <g transform="matrix(0.2 0 0 0.2 776 1933)">
   <path d="m16.5527 0.78125c2.58789 0 3.85742-0.976562 4.78516-3.71094l6.29883-17.2363h28.8086l6.29883 17.2363c0.927734 2.73438 2.19727 3.71094 4.73633 3.71094 2.58789 0 4.24805-1.5625 4.24805-4.00391 0-0.830078-0.146484-1.61133-0.537109-2.63672l-22.9004-60.9863c-1.12305-2.97852-3.125-4.49219-6.25-4.49219-3.02734 0-5.07812 1.46484-6.15234 4.44336l-22.9004 61.084c-0.390625 1.02539-0.537109 1.80664-0.537109 2.63672 0 2.44141 1.5625 3.95508 4.10156 3.95508Zm13.4766-28.3691 11.8652-32.8613h0.244141l11.8652 32.8613Z"/>
  </g>
  <line style="fill:none;stroke:#00AEEF;stroke-width:0.5;opacity:1.0;" x1="792.836" x2="792.836" y1="1919" y2="1933"/>
  <text style="stroke:none;fill:black;font-family:sans-serif;font-size:13;font-weight:bold;" transform="matrix(1 0 0 1 776 1953)">Margins</text>
  <text style="stroke:none;fill:black;font-family:sans-serif;font-size:13;" transform="matrix(1 0 0 1 776 1971)">Leading and trailing margins on the left and right side of each symbol</text>
  <text style="stroke:none;fill:black;font-family:sans-serif;font-size:13;" transform="matrix(1 0 0 1 776 1989)">can be adjusted by modifying the x-location of the margin guidelines.</text>
  <text style="stroke:none;fill:black;font-family:sans-serif;font-size:13;" transform="matrix(1 0 0 1 776 2007)">Modifications are automatically applied proportionally to all</text>
  <text style="stroke:none;fill:black;font-family:sans-serif;font-size:13;" transform="matrix(1 0 0 1 776 2025)">scales and weights.</text>
  <g transform="matrix(0.2 0 0 0.2 1289 1933)">
   <path d="m14.209 9.32617 8.49609 8.54492c4.29688 4.3457 9.22852 4.05273 13.8672-1.07422l53.4668-58.9355-4.83398-4.88281-53.0762 58.3984c-1.75781 2.00195-3.41797 2.49023-5.76172 0.146484l-5.85938-5.81055c-2.34375-2.29492-1.80664-4.00391 0.195312-5.81055l57.373-54.0039-4.88281-4.83398-57.959 54.4434c-4.93164 4.58984-5.32227 9.47266-1.02539 13.8184Zm32.0801-90.9668c-2.09961 2.05078-2.24609 4.93164-1.07422 6.88477 1.17188 1.80664 3.4668 2.97852 6.68945 2.14844 7.32422-1.70898 14.9414-2.00195 22.0703 2.68555l-2.92969 7.27539c-1.70898 4.15039-0.830078 7.08008 1.85547 9.81445l11.4746 11.5723c2.44141 2.44141 4.49219 2.53906 7.32422 2.05078l5.32227-0.976562 3.32031 3.36914-0.195312 2.7832c-0.195312 2.49023 0.439453 4.39453 2.88086 6.78711l3.80859 3.71094c2.39258 2.39258 5.46875 2.53906 7.8125 0.195312l14.5508-14.5996c2.34375-2.34375 2.24609-5.32227-0.146484-7.71484l-3.85742-3.80859c-2.39258-2.39258-4.24805-3.17383-6.64062-2.97852l-2.88086 0.244141-3.22266-3.17383 1.2207-5.61523c0.634766-2.83203-0.146484-5.0293-3.07617-7.95898l-10.9863-10.9375c-16.6992-16.6016-38.8672-16.2109-53.3203-1.75781Zm7.4707 1.85547c12.1582-8.88672 28.6133-7.37305 39.7461 3.75977l12.1582 12.0605c1.17188 1.17188 1.36719 2.09961 1.02539 3.80859l-1.61133 7.42188 7.51953 7.42188 4.93164-0.292969c1.26953-0.0488281 1.66016 0.0488281 2.63672 1.02539l2.88086 2.88086-12.207 12.207-2.88086-2.88086c-0.976562-0.976562-1.12305-1.36719-1.07422-2.68555l0.341797-4.88281-7.4707-7.42188-7.61719 1.26953c-1.61133 0.341797-2.34375 0.195312-3.56445-0.976562l-10.0098-10.0098c-1.26953-1.17188-1.41602-2.00195-0.634766-3.85742l4.39453-10.4492c-7.8125-7.27539-17.9688-10.4004-28.125-7.42188-0.78125 0.195312-1.07422-0.439453-0.439453-0.976562Z"/>
  </g>
  <text style="stroke:none;fill:black;font-family:sans-serif;font-size:13;font-weight:bold;" transform="matrix(1 0 0 1 1289 1953)">Exporting</text>
  <text style="stroke:none;fill:black;font-family:sans-serif;font-size:13;" transform="matrix(1 0 0 1 1289 1971)">Symbols should be outlined when exporting to ensure the</text>
  <text style="stroke:none;fill:black;font-family:sans-serif;font-size:13;" transform="matrix(1 0 0 1 1289 1989)">design is preserved when submitting to Xcode.</text>
  <text id="template-version" style="stroke:none;fill:black;font-family:sans-serif;font-size:13;text-anchor:end;" transform="matrix(1 0 0 1 3036 1933)">Template v.5.0</text>
  <text style="stroke:none;fill:black;font-family:sans-serif;font-size:13;text-anchor:end;" transform="matrix(1 0 0 1 3036 1951)">Requires Xcode 15 or greater</text>
  <text id="descriptive-name" style="stroke:none;fill:black;font-family:sans-serif;font-size:13;text-anchor:end;" transform="matrix(1 0 0 1 3036 1969)">Generated from fiori.opportunities</text>
  <text style="stroke:none;fill:black;font-family:sans-serif;font-size:13;text-anchor:end;" transform="matrix(1 0 0 1 3036 1987)">Typeset at 100.0 points</text>
  <text style="stroke:none;fill:black;font-family:sans-serif;font-size:13;" transform="matrix(1 0 0 1 263 726)">Small</text>
  <text style="stroke:none;fill:black;font-family:sans-serif;font-size:13;" transform="matrix(1 0 0 1 263 1156)">Medium</text>
  <text style="stroke:none;fill:black;font-family:sans-serif;font-size:13;" transform="matrix(1 0 0 1 263 1586)">Large</text>
 </g>
 <g id="Guides">
  <g id="H-reference" style="fill:#27AAE1;stroke:none;" transform="matrix(1 0 0 1 339 696)">
   <path d="M0.993654 0L3.63775 0L29.3281-67.1323L30.0303-67.1323L30.0303-70.459L28.1226-70.459ZM11.6885-24.4799L46.9815-24.4799L46.2315-26.7285L12.4385-26.7285ZM55.1196 0L57.7637 0L30.6382-70.459L29.4326-70.459L29.4326-67.1323Z"/>
  </g>
  <line id="Baseline-S" style="fill:none;stroke:#27AAE1;opacity:1;stroke-width:0.5;" x1="263" x2="3036" y1="696" y2="696"/>
  <line id="Capline-S" style="fill:none;stroke:#27AAE1;opacity:1;stroke-width:0.5;" x1="263" x2="3036" y1="625.541" y2="625.541"/>
  <g id="H-reference" style="fill:#27AAE1;stroke:none;" transform="matrix(1 0 0 1 339 1126)">
   <path d="M0.993654 0L3.63775 0L29.3281-67.1323L30.0303-67.1323L30.0303-70.459L28.1226-70.459ZM11.6885-24.4799L46.9815-24.4799L46.2315-26.7285L12.4385-26.7285ZM55.1196 0L57.7637 0L30.6382-70.459L29.4326-70.459L29.4326-67.1323Z"/>
  </g>
  <line id="Baseline-M" style="fill:none;stroke:#27AAE1;opacity:1;stroke-width:0.5;" x1="263" x2="3036" y1="1126" y2="1126"/>
  <line id="Capline-M" style="fill:none;stroke:#27AAE1;opacity:1;stroke-width:0.5;" x1="263" x2="3036" y1="1055.54" y2="1055.54"/>
  <g id="H-reference" style="fill:#27AAE1;stroke:none;" transform="matrix(1 0 0 1 339 1556)">
   <path d="M0.993654 0L3.63775 0L29.3281-67.1323L30.0303-67.1323L30.0303-70.459L28.1226-70.459ZM11.6885-24.4799L46.9815-24.4799L46.2315-26.7285L12.4385-26.7285ZM55.1196 0L57.7637 0L30.6382-70.459L29.4326-70.459L29.4326-67.1323Z"/>
  </g>
  <line id="Baseline-L" style="fill:none;stroke:#27AAE1;opacity:1;stroke-width:0.5;" x1="263" x2="3036" y1="1556" y2="1556"/>
  <line id="Capline-L" style="fill:none;stroke:#27AAE1;opacity:1;stroke-width:0.5;" x1="263" x2="3036" y1="1485.54" y2="1485.54"/>
  <line id="left-margin-Ultralight-S" style="fill:none;stroke:#00AEEF;stroke-width:0.5;opacity:1.0;" x1="515.011" x2="515.011" y1="600.785" y2="720.121"/>
  <line id="right-margin-Ultralight-S" style="fill:none;stroke:#00AEEF;stroke-width:0.5;opacity:1.0;" x1="604.411" x2="604.411" y1="600.785" y2="720.121"/>
  <line id="left-margin-Regular-S" style="fill:none;stroke:#00AEEF;stroke-width:0.5;opacity:1.0;" x1="1403.39" x2="1403.39" y1="600.785" y2="720.121"/>
  <line id="right-margin-Regular-S" style="fill:none;stroke:#00AEEF;stroke-width:0.5;opacity:1.0;" x1="1496.29" x2="1496.29" y1="600.785" y2="720.121"/>
  <line id="left-margin-Black-S" style="fill:none;stroke:#00AEEF;stroke-width:0.5;opacity:1.0;" x1="2884.9" x2="2884.9" y1="600.785" y2="720.121"/>
  <line id="right-margin-Black-S" style="fill:none;stroke:#00AEEF;stroke-width:0.5;opacity:1.0;" x1="2981.9" x2="2981.9" y1="600.785" y2="720.121"/>
 </g>
 <g id="Symbols">
  <g id="Black-S" transform="matrix(1 0 0 1 2884.9 696)">
   <path class="SFSymbolsPreviewWireframe" d="M38.21 1.1L11.51 1.1C8.41 1.1 6.01-1.4 6.01-4.4L6.01-9.5C6.01-26 19.11-40.8 37.21-40.8L39.31-40.8C45.11-40.8 52.21-39 56.71-35.8C59.21-34 60.01-30.9 58.41-28.2C56.51-25 52.81-25.3 50.81-26.6C47.41-28.8 43.71-29.8 39.41-29.8L37.31-29.8C27.31-30.2 17.01-21 17.01-10.7L17.01-9.9L38.21-9.9C41.11-9.9 43.71-7.6 43.71-4.4C43.71-1.2 41.21 1.1 38.21 1.1ZM38.21-29.7C26.11-29.7 16.21-39.6 16.21-51.7C16.21-58.2 19.01-64.3 24.01-68.5C29.01-72.7 35.61-74.5 42.11-73.3C51.01-71.7 58.31-64.4 59.81-55.6C60.91-49.1 59.21-42.5 55.01-37.5C50.81-32.6 44.71-29.7 38.21-29.7ZM38.21-62.6C35.61-62.6 33.21-61.7 31.21-60C28.71-57.9 27.31-54.9 27.31-51.6C27.31-45.6 32.21-40.7 38.21-40.7C41.41-40.7 44.51-42.1 46.61-44.6C48.71-47.1 49.61-50.3 49.01-53.7C49.01-53.7 49.01-53.7 49.01-53.7C48.31-58 44.71-61.6 40.31-62.4C39.51-62.6 38.91-62.6 38.21-62.6ZM85.51-62.6L68.01-62.6C64.91-62.6 62.51-65.1 62.51-68.1C62.51-71.2 65.01-73.6 68.01-73.6L85.51-73.6C88.61-73.6 91.01-71.1 91.01-68.1C91.01-65.1 88.51-62.6 85.51-62.6ZM85.51-45.1L68.01-45.1C64.91-45.1 62.51-47.6 62.51-50.6C62.51-53.6 65.01-56.1 68.01-56.1L85.51-56.1C88.61-56.1 91.01-53.6 91.01-50.6C91.01-47.6 88.51-45.1 85.51-45.1ZM78.91 2.8L68.01 2.8C64.21 2.8 62.51-0.5 62.51-2.7C62.51-4.9 64.21-8.2 68.01-8.2L78.91-8.2C79.41-8.2 79.91-8.7 79.91-9.1C79.91-9.6 79.31-10 78.91-10L74.51-10C67.11-10 62.41-16.3 62.41-22C62.41-27.7 67.01-34 74.51-34L85.41-34C89.21-34 90.91-30.7 90.91-28.5C90.91-26.3 89.11-23 85.41-23L74.61-23C74.11-23 73.61-22.6 73.61-22.1C73.61-21.7 74.11-21.2 74.61-21.2L79.01-21.2C86.21-21.2 91.11-14.9 91.11-9.2C91.11-3.5 86.21 2.8 78.91 2.8ZM76.81-25.5C73.71-25.5 71.31-28 71.31-31L71.31-37.3C71.31-40.4 73.81-42.8 76.81-42.8C79.81-42.8 82.31-40.3 82.31-37.3L82.31-31C82.31-28 79.81-25.5 76.81-25.5ZM76.81 11.4C73.71 11.4 71.31 8.9 71.31 5.9L71.31 0C71.31-3.1 73.81-5.5 76.81-5.5C79.81-5.5 82.31-3 82.31 0L82.31 5.9C82.31 8.9 79.81 11.4 76.81 11.4Z"/>
  </g>
  <g id="Regular-S" transform="matrix(1 0 0 1 1403.39 696)">
   <path class="SFSymbolsPreviewWireframe" d="M36.26-0.3L9.46-0.3C7.16-0.3 5.36-2.1 5.36-4.4L5.36-9.5C5.36-25.9 18.76-39.3 35.16-39.3L37.26-39.3C43.16-39.3 49.16-37.6 53.86-34.5C55.76-33.3 56.36-30.7 55.06-28.8C53.86-26.9 51.26-26.3 49.36-27.6C45.96-29.8 41.46-31.1 37.16-31.1L35.06-31.1C23.16-31.1 13.46-21.4 13.46-9.5L13.46-8.5L36.06-8.5C38.36-8.5 40.16-6.7 40.16-4.4C40.16-2.1 38.46-0.3 36.26-0.3ZM36.26-31.1C24.96-31.1 15.66-40.3 15.66-51.7C15.66-57.8 18.36-63.5 22.96-67.4C27.66-71.3 33.76-73 39.86-71.9C48.26-70.4 55.06-63.6 56.46-55.3C57.56-49.2 55.86-43 51.96-38.4C48.06-33.8 42.26-31.1 36.26-31.1ZM36.26-64C33.36-64 30.56-63 28.26-61.1C25.46-58.8 23.86-55.3 23.86-51.7C23.86-44.9 29.36-39.4 36.16-39.4C39.86-39.4 43.26-41 45.56-43.8C47.96-46.6 48.86-50.3 48.26-54C48.26-54 48.26-54 48.26-54C47.46-58.9 43.36-63 38.36-63.9C37.76-64 36.96-64 36.26-64ZM83.46-64L66.06-64C63.76-64 61.96-65.8 61.96-68.1C61.96-70.4 63.76-72.2 66.06-72.2L83.56-72.2C85.86-72.2 87.66-70.4 87.66-68.1C87.66-65.9 85.76-64 83.46-64ZM83.46-46.6L66.06-46.6C63.76-46.6 61.96-48.4 61.96-50.7C61.96-53 63.76-54.8 66.06-54.8L83.56-54.8C85.86-54.8 87.66-53 87.66-50.7C87.66-48.4 85.76-46.6 83.46-46.6ZM76.96 1.3L66.06 1.3C63.76 1.3 61.96-0.5 61.96-2.8C61.96-5.1 63.76-6.9 66.06-6.9L76.96-6.9C78.16-6.9 79.36-8.1 79.36-9.3C79.36-10.5 78.16-11.7 76.96-11.7L72.56-11.7C66.76-11.7 61.86-16.5 61.86-22.3C61.86-28.1 66.76-32.9 72.56-32.9L83.46-32.9C85.76-32.9 87.56-31.1 87.56-28.8C87.56-26.5 85.76-24.7 83.46-24.7L72.56-24.7C71.36-24.7 70.16-23.5 70.16-22.3C70.16-21.1 71.36-19.9 72.56-19.9L76.96-19.9C82.76-19.9 87.66-15.1 87.66-9.3C87.66-3.5 82.76 1.3 76.96 1.3ZM74.76-28.9C72.46-28.9 70.66-30.7 70.66-33L70.66-37.3C70.66-39.6 72.46-41.4 74.76-41.4C77.06-41.4 78.86-39.6 78.86-37.3L78.86-33C78.86-30.7 77.06-28.9 74.76-28.9ZM74.76 10C72.46 10 70.66 8.2 70.66 5.9L70.66 1.6C70.66-0.7 72.46-2.5 74.76-2.5C77.06-2.5 78.86-0.7 78.86 1.6L78.86 5.9C78.86 8.1 77.06 10 74.76 10Z"/>
  </g>
  <g id="Ultralight-S" transform="matrix(1 0 0 1 515.011 696)">
   <path class="SFSymbolsPreviewWireframe" d="M34.475-3.1L7.775-3.1C7.075-3.1 6.475-3.7 6.475-4.4L6.475-9.5C6.475-24 18.275-36.5 33.475-36.5L35.575-36.5C40.675-36.5 45.875-35.1 50.675-32.2C51.375-31.8 51.475-31 51.075-30.4C50.575-29.7 49.975-29.6 49.275-30C45.875-32.1 40.975-33.9 35.575-33.9L33.475-33.9C20.375-34 8.975-23.4 8.975-9.6L8.975-5.7L34.475-5.7C34.975-5.7 35.775-5.3 35.775-4.4C35.775-3.6 35.175-3.1 34.475-3.1ZM34.475-34C24.675-34 16.775-42 16.775-51.7C16.775-56.9 19.075-61.9 23.075-65.3C27.075-68.7 32.375-70.1 37.675-69.2C44.875-67.9 50.775-62 51.975-54.9C52.875-49.6 51.475-44.3 48.075-40.3C44.675-36.3 39.675-34 34.475-34ZM34.475-66.9C30.875-66.9 27.475-65.7 24.675-63.3C21.275-60.4 19.275-56.2 19.275-51.7C19.275-43.3 26.075-36.5 34.475-36.5C38.975-36.5 43.175-38.5 46.075-41.9C48.975-45.4 50.175-49.9 49.375-54.5C49.375-54.5 49.375-54.5 49.375-54.5C48.375-60.5 43.375-65.5 37.275-66.6C36.275-66.8 35.375-66.9 34.475-66.9ZM81.775-66.9L64.275-66.9C63.575-66.9 62.975-67.5 62.975-68.2C62.975-68.9 63.575-69.5 64.275-69.5L81.775-69.5C82.475-69.5 83.075-68.9 83.075-68.2C83.075-67.5 82.475-66.9 81.775-66.9ZM81.775-49.4L64.275-49.4C63.575-49.4 62.975-50 62.975-50.7C62.975-51.4 63.575-52 64.275-52L81.775-52C82.475-52 83.075-51.4 83.075-50.7C83.075-50 82.475-49.4 81.775-49.4ZM75.175-1.5L64.175-1.5C63.575-1.5 62.975-2 62.975-2.7C62.975-3.5 63.575-4 64.275-4L75.175-4C78.375-4 80.475-6.8 80.475-9.2C80.475-12.1 77.875-14.4 75.175-14.4L70.775-14.4C66.375-14.4 62.975-18.1 62.975-22.2C62.975-26.9 67.275-30 70.775-30L81.675-30C82.375-30 82.975-29.4 82.975-28.7C82.975-27.9 82.475-27.4 81.675-27.4L70.875-27.4C68.575-27.4 65.575-25.4 65.575-22.2C65.575-19.2 68.275-17 70.875-17L75.275-17C78.975-17 83.075-13.9 83.075-9.2C83.075-5.4 79.775-1.5 75.175-1.5ZM72.975-28.2C72.275-28.2 71.675-28.8 71.675-29.5L71.675-37.4C71.675-38.1 72.275-38.7 72.975-38.7C73.675-38.7 74.275-38.1 74.275-37.4L74.275-29.5C74.275-28.7 73.675-28.2 72.975-28.2ZM72.975 7.1C72.275 7.1 71.675 6.5 71.675 5.8L71.675-1.9C71.675-2.6 72.275-3.2 72.975-3.2C73.675-3.2 74.275-2.6 74.275-1.9L74.275 5.8C74.275 6.6 73.675 7.1 72.975 7.1Z"/>
  </g>
 </g>
</svg>
