<svg width="320" height="240" viewBox="0 0 320 240" fill="none" xmlns="http://www.w3.org/2000/svg">
<rect y="51" width="320" height="138" rx="24" fill="#222F3B"/>
<path d="M146.774 168.482L241.172 120.513L175.026 88.8945L54.6054 135.392L52 137.998L146.774 168.482Z" fill="#101619"/>
<path d="M106.404 148.111L121.624 70.221L124.463 71.2555L223.24 38.6211L226.171 104.683L106.393 148.111H106.404Z" fill="#2A4259"/>
<path d="M122.395 70.5977L146.764 168.478L241.426 120.636L223.172 38.2852L122.395 70.5977Z" fill="#3B5B7C"/>
<path d="M121.623 70.2091L122.393 70.6L223.17 38.2874L220.205 38L121.623 70.0827V70.2091Z" fill="#3B5B7C"/>
<path d="M123.682 71.5094L146.488 160.32L239.483 115.225L222.47 38.875L123.682 71.4979V71.5094Z" fill="#2A4259"/>
<path d="M124.463 71.244L148.154 159.629L241.873 114.19L223.24 38.6211L124.451 71.244H124.463Z" fill="#4D82B8"/>
<path d="M223.24 38.7461L229.436 62.0925C232.275 73.0588 237.172 83.2434 243.873 92.3935L252 103.486L158.12 148.489C144.453 132.235 134.647 113.027 129.624 92.3935L124.463 71.2426L223.24 38.7461Z" fill="#D5DADD"/>
<path d="M197.064 52.1618C197.708 51.2537 197.835 50.3571 197.835 49.8398L195.777 50.4836C195.777 50.61 195.651 50.8744 195.524 51.0008C195.398 51.1273 195.007 51.3917 194.754 51.6446L195.007 53.5757C195.26 53.5757 196.421 52.8056 197.064 52.1618Z" fill="#00144A"/>
<path fill-rule="evenodd" clip-rule="evenodd" d="M124.463 71.2438L127.739 84.6815L226.205 49.7021L223.24 38.6094L124.451 71.2323L124.463 71.2438Z" fill="#C35500"/>
<path d="M152.832 67.8851L149.223 69.0461L148.832 65.954L152.441 64.793L152.832 67.8851Z" fill="#2A4259"/>
<path d="M198.617 52.6781L195.008 53.8391L194.617 50.7469L198.227 49.5859L198.617 52.6781Z" fill="#2A4259"/>
<path d="M197.836 52.919L197.537 49.7923L198.227 49.5739C198.227 49.4475 198.618 52.6661 198.618 52.6661L197.847 52.919H197.836Z" fill="#8D2A00"/>
<path d="M210.342 100.648L240.517 87.4975C240.264 87.1067 240.126 86.8538 239.873 86.463L209.825 99.4868C206.986 93.429 204.537 86.9802 202.48 80.5315L231.758 69.3123C231.631 68.9215 231.505 68.5422 231.367 68.1513L202.089 79.3705C199.514 71.37 197.319 63.2545 195.249 55.2539L194.089 55.6447C196.146 63.6453 198.342 71.7608 200.928 79.8878L167.523 92.7852C164.811 84.5318 162.489 76.0255 160.431 67.772L159.27 68.1628C161.328 76.4163 163.65 84.9226 166.362 93.314L133.602 105.947C133.728 106.338 133.854 106.717 133.992 107.108L166.753 94.475C169.075 101.441 171.788 108.269 175.007 114.856L143.924 128.397C144.177 128.788 144.315 129.167 144.568 129.431L175.524 116.017C178.881 122.592 182.616 128.914 187.134 134.719L188.295 134.202C183.777 128.397 179.915 122.075 176.685 115.499L209.308 101.315C212.274 107.499 215.63 113.568 219.63 119.109L220.791 118.592C216.791 113.051 213.446 106.982 210.469 100.797L210.342 100.671V100.648ZM176.168 114.189C172.949 107.614 170.363 100.774 167.914 93.9462L201.319 81.0488C203.514 87.4975 205.963 93.8198 208.802 100.004L176.179 114.189H176.168Z" fill="#C35500"/>
<path d="M152.441 64.793L151.625 65.0918L151.97 68.161L152.832 67.8851L152.441 64.793Z" fill="#8D2A00"/>
<path d="M149.224 69.0468L148.925 66.7248C148.925 66.7248 150.281 66.127 150.511 64.8741C150.845 63.0004 150.155 60.345 149.028 59.1955C148.741 58.8967 148.258 58.7472 147.902 58.8392C147.465 58.9541 147.086 59.3794 146.994 59.8507C146.787 60.9428 147.028 61.7704 147.04 61.8049L144.913 62.4946C144.81 61.8739 144.557 60.5175 144.902 59.23C145.247 57.9426 146.247 56.9655 147.488 56.6436C148.638 56.3562 149.799 56.6896 150.672 57.5747C152.328 59.2645 153.167 62.6325 152.787 65.2764C152.351 68.2421 149.362 68.9893 149.247 69.0353L149.224 69.0468Z" fill="#00144A"/>
<path d="M194.997 53.7019L194.71 51.5178C194.71 51.5178 195.986 50.9545 196.204 49.782C196.526 48.0233 195.871 45.5174 194.813 44.4368C194.537 44.161 194.089 44.0115 193.756 44.1035C193.342 44.2069 192.985 44.6093 192.893 45.0576C192.698 46.0806 192.916 46.8623 192.928 46.8853L190.928 47.5405C190.824 46.9543 190.594 45.6898 190.928 44.4713C191.261 43.2529 192.204 42.3447 193.365 42.0459C194.445 41.77 195.537 42.0919 196.353 42.9195C197.905 44.5058 198.698 47.6784 198.331 50.1614C197.917 52.9432 195.112 53.6559 194.997 53.6904V53.7019Z" fill="#00144A"/>
</svg>
