<svg width="160" height="89" viewBox="0 0 160 89" fill="none" xmlns="http://www.w3.org/2000/svg">
<rect y="12.041" width="160" height="69" rx="12" fill="#222F3B"/>
<path d="M110.784 80.8654L107.155 59.5079C106.862 58.4395 103.09 43.7184 102.735 42.9393C102.569 42.574 100.213 41.3105 97.757 40.0699L97.7562 40.0726C97.7562 40.0712 97.7562 40.0706 97.7562 40.0692C96.0407 39.2034 94.2764 38.3496 93.1746 37.8208V14.1335C93.1746 13.75 93.0258 13.3975 92.7763 13.1176C92.4346 12.7341 91.9046 12.4879 91.3087 12.4879H80.6592L80.6693 12.4751C80.6693 11.332 79.8193 10.4514 78.8035 10.4244C77.7721 10.3969 76.8896 11.3065 76.7641 12.4879H73.7081L73.7181 12.4751C73.7181 11.332 72.8681 10.4514 71.8523 10.4244C70.821 10.3969 69.9384 11.3065 69.8129 12.4879H66.7569L66.767 12.4751C66.767 11.332 65.917 10.4514 64.9011 10.4244C63.8698 10.3969 62.9873 11.3065 62.8617 12.4879H59.8057L59.8158 12.4751C59.8158 11.332 58.9658 10.4514 57.95 10.4244C56.9187 10.3969 56.0361 11.3065 55.9106 12.4879H45.5447C44.838 12.4879 44.2104 12.7879 43.8175 13.2508C43.7765 13.2992 43.7377 13.3504 43.7013 13.4022C43.5029 13.6894 43.389 14.0265 43.389 14.3871V21.4655V30.431C42.9172 29.1069 41.7254 28.3265 41.2567 28.5162C41.2567 28.5162 40.3323 28.6178 40.6995 31.9864C40.6988 31.9911 40.6964 31.9972 40.6957 32.0026C40.6926 32.016 40.6895 32.0295 40.6848 32.045C40.6825 32.053 40.6786 32.0631 40.6755 32.0719C40.5415 32.4735 39.9727 33.4645 39.39 34.4286C39.2227 34.7058 39.0538 34.981 38.8949 35.2386C38.8314 35.3416 38.7694 35.4412 38.709 35.538C38.53 35.8253 38.3696 36.0803 38.244 36.2781C38.2154 36.3238 38.189 36.3703 38.1635 36.4174C38.1294 36.4813 38.0976 36.5459 38.0705 36.6118C38.0496 36.6629 38.031 36.7147 38.0139 36.7672C37.9674 36.9092 37.9364 37.0545 37.9225 37.2018L37.3251 43.5724C37.3251 43.5724 36.2597 44.3192 35.6282 44.9745C35.5561 45.0492 35.4895 45.1225 35.4313 45.1938C35.3066 45.3459 35.2493 45.5423 35.2477 45.7912C35.2477 45.7933 35.2477 45.7953 35.2477 45.7973C35.2477 45.8915 35.2547 45.9944 35.2694 46.1048C35.2733 46.1317 35.2772 46.1586 35.281 46.1862C35.2903 46.2433 35.3004 46.3032 35.3128 46.3651C35.3283 46.4445 35.3469 46.5273 35.3686 46.6134C35.398 46.7324 35.4313 46.8583 35.4701 46.9915C35.5383 47.229 35.6196 47.4887 35.7118 47.7739C35.7552 47.9091 35.8017 48.0491 35.8498 48.1951C36.09 48.9257 36.3813 49.7997 36.6827 50.8398C37.3313 53.0768 37.501 54.9397 37.5436 55.9213C37.5467 55.9899 37.549 56.0538 37.5506 56.1137C37.5521 56.1736 37.5537 56.2288 37.5544 56.2792C37.5568 56.4145 37.5568 56.5167 37.556 56.582C37.556 56.5988 37.556 56.6129 37.556 56.6244C37.556 56.654 37.5552 56.6694 37.5552 56.6694C37.3987 57.1774 37.1879 57.6759 36.9237 58.1597L36.052 59.7515L33.9057 63.6913L33.901 63.6926L24.5192 80.8654H38.6888C40.8599 76.2117 45.4308 65.7762 47.1439 62.154L47.1401 62.1439C47.1966 62.0248 47.2517 61.9097 47.3051 61.7981C48.0273 61.3944 48.5394 60.8985 48.8889 60.3428C51.2537 57.1411 51.2072 51.232 51.1879 50.3836H61.281C60.4357 51.8665 59.9483 54.931 60.9207 55.9247C60.93 55.9341 60.9386 55.9442 60.9479 55.9536C61.0029 56.0108 61.0563 56.0707 61.109 56.1332C61.1811 56.218 61.2508 56.3075 61.3182 56.4003C61.3368 56.4252 61.3547 56.4508 61.3733 56.4763C61.4159 56.5369 61.4569 56.5981 61.498 56.6607C61.5313 56.7112 61.5631 56.7623 61.5949 56.8141C61.7095 57.0005 61.8165 57.1935 61.9149 57.386C61.9575 57.4701 61.9993 57.5535 62.0388 57.6369C62.1435 57.8556 62.238 58.0702 62.3201 58.27C62.5929 58.9327 62.7331 59.627 62.7331 60.326L62.7455 73.1634L62.7533 80.8654H79.2397C79.2397 80.8654 79.1405 80.4664 78.9685 79.7654C78.9615 79.7627 78.9553 79.76 78.9491 79.7573C77.8093 75.3909 73.7088 59.4393 73.7313 55.9792C73.7344 55.7376 73.7561 55.556 73.7987 55.445L73.7995 55.4423C73.8065 55.4255 73.8134 55.4107 73.8212 55.3972C73.8227 55.3945 73.8243 55.3918 73.8251 55.3891C73.8336 55.375 73.8429 55.3622 73.8522 55.3521L73.8545 55.3494C73.8863 55.3165 73.9196 55.2842 73.9545 55.2512C73.9669 55.2398 73.98 55.229 73.9924 55.2176C74.0172 55.1954 74.0428 55.1725 74.0691 55.1503C74.0846 55.1375 74.1001 55.1247 74.1164 55.112C74.142 55.0911 74.1683 55.0696 74.1954 55.0487C74.2125 55.0359 74.2295 55.0225 74.2466 55.0097C74.2745 54.9882 74.3039 54.9666 74.3334 54.9451C74.3504 54.933 74.3675 54.9202 74.3845 54.9081C74.4163 54.8852 74.4496 54.8624 74.4829 54.8388C74.4984 54.828 74.5139 54.8173 74.5302 54.8065C74.5689 54.7796 74.6092 54.7534 74.6495 54.7264C74.6603 54.7197 74.6704 54.7123 74.6813 54.7056C75.9342 53.8861 77.8574 52.9712 78.6655 51.6115C78.7856 51.409 78.8833 51.197 78.9476 50.9737C78.9979 50.8008 79.0398 50.6016 79.0754 50.3823H86.8162C86.9611 52.1961 87.3307 53.761 88.1644 53.9063C89.174 54.0826 89.9202 53.3419 90.42 52.5392C91.0662 54.0173 91.9123 55.4073 94.1888 57.8239C95.269 58.971 96.0105 59.7851 96.5188 60.3617C96.5328 60.3778 96.5467 60.3933 96.5606 60.4088C96.6257 60.4828 96.6869 60.5527 96.7443 60.6187C96.7652 60.6429 96.7861 60.6671 96.8063 60.69C96.8466 60.7364 96.8845 60.7808 96.921 60.8239C96.9574 60.8663 96.9922 60.9073 97.0248 60.9456C97.3688 61.3527 97.5168 61.5552 97.5811 61.6521C97.6237 61.7167 97.6284 61.7341 97.6284 61.7341L96.8078 80.864H110.785L110.784 80.8654ZM93.359 44.9718C93.4047 45.0108 93.445 45.0444 93.4799 45.0727L93.4822 45.0747C93.5542 45.1339 93.5984 45.1682 93.5984 45.1682C93.5984 45.1682 93.5829 45.2113 93.5511 45.2712C93.4907 45.3842 93.3698 45.5571 93.1738 45.6156V44.8103C93.204 44.8372 93.2327 44.8628 93.2613 44.8877L93.2629 44.887C93.2962 44.9173 93.3288 44.9455 93.359 44.9725V44.9718ZM43.389 39.0607L42.2213 39.751L42.1144 36.7107C42.1144 36.7107 42.9466 34.9137 43.389 32.9223V39.0601V39.0607Z" fill="#101619"/>
<path d="M53.2172 46.2441L59.3704 49.2885C59.3704 49.2885 59.7456 61.2238 55.239 64.4277C51.0209 67.4257 53.2172 46.2441 53.2172 46.2441Z" fill="#340800"/>
<path d="M103.687 41.1416C103.687 41.1416 102.86 53.0455 105.057 53.5191C107.253 53.9927 108.283 49.4324 108.283 49.4324C108.283 49.4324 107.982 43.2651 103.687 41.1416Z" fill="#FF7F4C"/>
<path d="M109.283 39.5893C109.204 40.1795 110 41.14 110.485 41.6633C111.073 41.2773 111.61 40.8135 112.102 40.3134C113.361 39.038 114.488 37.5311 115.167 35.8713C115.234 35.7052 115.285 35.525 115.271 35.3299C112.305 33.4816 109.201 31.6738 109.201 31.6738L105.547 32.4426C105.547 32.4426 105.16 33.1923 105.395 34.4264C105.629 35.6605 109.396 38.7446 109.283 39.5885V39.5893Z" fill="#FFAB92"/>
<path d="M110.589 41.7738C111.336 41.4936 111.752 40.9001 112.103 40.3132C112.107 40.3066 112.115 40.3017 112.12 40.2959C111.887 40.2223 111.712 40.019 111.603 39.7991C111.487 39.5635 111.428 39.3048 111.327 39.0618C111.226 38.8188 111.071 38.5823 110.832 38.4732C110.753 38.4377 110.66 38.4112 110.618 38.3352C110.521 38.1633 110.768 37.8582 110.855 37.721C110.991 37.5078 111.139 37.3003 111.251 37.073C111.324 36.9267 111.129 36.7944 111.016 36.9118C110.869 37.0639 110.72 37.2226 110.676 37.2862C110.442 37.6161 110.088 37.8632 109.729 37.5342C109.597 37.4135 109.504 37.2565 109.391 37.1176C109.322 37.0325 109.243 36.9539 109.185 36.8605C109.139 36.7853 109.107 36.7018 109.069 36.6217C108.881 36.2232 108.55 35.8984 108.401 35.4834C108.211 34.9577 108.433 34.5593 108.556 34.0617C108.63 33.7649 108.673 33.4591 108.67 33.1532C108.668 33.0218 108.648 32.873 108.541 32.7978C108.443 32.73 108.301 32.7548 108.214 32.8358C108.027 33.0094 108.094 33.3442 107.951 33.555C107.841 33.7178 107.627 33.7881 107.436 33.7691C107.258 33.7509 107.111 33.6434 106.996 33.5128C106.727 33.2095 106.597 32.7821 106.448 32.4134C106.429 32.3638 106.409 32.3142 106.388 32.2646L105.545 32.4424C105.545 32.4424 105.158 33.1921 105.393 34.4262C105.628 35.6603 109.394 38.7444 109.281 39.5883C109.202 40.1785 110.102 41.2498 110.587 41.773L110.589 41.7738Z" fill="#FF7F4C"/>
<path d="M113.415 39.8249C113.368 39.8257 113.324 39.8497 113.283 39.8745C113.108 39.9811 112.945 40.1101 112.763 40.2035C112.71 40.2299 112.656 40.2539 112.6 40.2729C112.439 40.4465 112.272 40.6151 112.101 40.7796C111.673 41.1904 111.214 41.5756 110.718 41.9063C110.797 41.9856 110.845 42.0319 110.845 42.0319C110.845 42.0319 110.828 42.089 110.794 42.1675C111.212 42.5684 111.6 42.9999 111.985 43.3801C112.216 43.6091 112.453 43.8347 112.714 44.0323C112.749 44.0588 112.784 44.0835 112.82 44.1075C112.858 44.1331 112.86 44.1364 112.882 44.148C112.876 44.1117 112.868 44.0753 112.858 44.0389C112.814 43.891 112.762 43.7397 112.676 43.6157C112.508 43.3735 112.272 43.195 112.062 42.99C111.842 42.7734 111.643 42.5246 111.6 42.208C111.547 41.8278 111.696 41.4599 112.006 41.2351C112.268 41.045 112.582 40.9532 112.83 40.7449C113.087 40.53 113.311 40.2746 113.489 39.9902C113.507 39.9629 113.523 39.9332 113.52 39.901C113.515 39.8538 113.463 39.8224 113.416 39.8233L113.415 39.8249Z" fill="#FF7F4C"/>
<path d="M107.915 48.8874H53.6652C52.2481 48.8874 51.0999 47.8757 51.0999 46.6274V6.91427C51.0999 5.666 52.2481 4.6543 53.6652 4.6543H108.13C109.357 4.6543 110.351 5.53061 110.351 6.61076V46.7405C110.351 47.9263 109.26 48.8874 107.914 48.8874" fill="#2A4259"/>
<path d="M107.915 48.0606H53.6654C52.2483 48.0606 51.1 47.0541 51.1 45.8125V6.30764C51.1 5.06607 52.2483 4.05957 53.6654 4.05957H108.13C109.357 4.05957 110.351 4.93068 110.351 6.00636V45.9256C110.351 47.1046 109.26 48.0613 107.914 48.0613" fill="#D5DADD"/>
<path d="M110.351 14.68H51.0999V6.30666C51.0999 5.06509 52.2481 4.05859 53.6652 4.05859H108.13C109.357 4.05859 110.351 4.9297 110.351 6.00464V14.6793V14.68Z" fill="#FA4F96"/>
<path d="M87.8982 13.7109C85.8954 13.2229 83.8575 12.8272 81.7974 12.5326C79.6025 12.2194 77.3817 12.0647 75.1609 11.9241C70.9623 11.6578 66.5502 11.4844 62.5862 10.2302C60.153 9.46029 58.1742 8.16367 57.3446 6.11646C57.0749 5.45066 56.9123 4.76032 56.8153 4.05957H53.6642C52.2472 4.05957 51.0989 5.06607 51.0989 6.30764V14.681H91.4363C90.2705 14.3254 89.0899 14.0018 87.8973 13.7117L87.8982 13.7109Z" fill="#9B015D"/>
<path d="M71.1008 47.9635V14.8594" stroke="#FA4F96" stroke-width="0.4133" stroke-miterlimit="10"/>
<path d="M89.8938 47.9635V14.8594" stroke="#FA4F96" stroke-width="0.4133" stroke-miterlimit="10"/>
<path d="M110.449 24.79H51.1338" stroke="#FA4F96" stroke-width="0.4133" stroke-miterlimit="10"/>
<path d="M110.449 36.6133H51.1338" stroke="#FA4F96" stroke-width="0.4133" stroke-miterlimit="10"/>
<path d="M68.3679 7.98066C68.9465 7.98066 69.4155 7.56001 69.4155 7.04111C69.4155 6.52221 68.9465 6.10156 68.3679 6.10156C67.7893 6.10156 67.3203 6.52221 67.3203 7.04111C67.3203 7.56001 67.7893 7.98066 68.3679 7.98066Z" fill="#9B015D"/>
<path d="M68.1369 6.12598C67.6695 6.22045 67.3203 6.59389 67.3203 7.04172C67.3203 7.48955 67.6695 7.86299 68.1369 7.95746C68.6044 7.86299 68.9536 7.48955 68.9536 7.04172C68.9536 6.59389 68.6044 6.22045 68.1369 6.12598Z" fill="#2A4259"/>
<path d="M93.247 7.98066C93.8256 7.98066 94.2946 7.56001 94.2946 7.04111C94.2946 6.52221 93.8256 6.10156 93.247 6.10156C92.6685 6.10156 92.1995 6.52221 92.1995 7.04111C92.1995 7.56001 92.6685 7.98066 93.247 7.98066Z" fill="#9B015D"/>
<path d="M93.0161 6.12598C92.5487 6.22045 92.1995 6.59389 92.1995 7.04172C92.1995 7.48955 92.5487 7.86299 93.0161 7.95746C93.4835 7.86299 93.8327 7.48955 93.8327 7.04172C93.8327 6.59389 93.4835 6.22045 93.0161 6.12598Z" fill="#2A4259"/>
<path d="M55.2394 63.8915C55.1824 64.0387 55.1245 64.1899 55.0633 64.3462L55.0675 64.3594C53.2432 69.1214 48.3753 82.838 46.0633 88.9557H30.9738L40.9624 66.3829L40.9673 66.3813L43.2529 61.2026L44.1812 59.1097C44.463 58.474 44.687 57.8185 44.854 57.1506C44.854 57.1506 44.954 53.8632 43.9266 49.4872C42.8991 45.1104 41.9857 42.9794 42.5949 42.066C43.2041 41.1526 44.6118 39.935 44.6118 39.935L45.2475 31.5608C45.2797 31.1376 45.3954 30.7251 45.5897 30.3465C46.3039 28.9545 48.0835 25.4348 48.205 24.7058C48.3571 23.7924 48.1133 20.4868 48.7985 20.1438C49.4838 19.8007 51.6156 21.8565 51.2354 24.8628C50.8551 27.8692 49.7119 30.9144 49.7119 30.9144L49.826 34.9102L53.6317 32.132C53.6317 32.132 66.4572 32.208 67.9417 33.2735C69.4263 34.339 67.0664 36.0517 64.5543 36.1277C62.0423 36.2038 59.3402 36.584 58.4268 36.4319C57.5134 36.2798 67.5971 40.2351 68.0715 42.4496C68.546 44.664 67.6764 45.5344 66.0149 45.2972C64.3535 45.06 59.8452 44.2689 59.0542 44.5061C58.2631 44.7434 56.9182 46.1676 56.3644 46.1676C55.8106 46.1676 55.2568 47.9076 55.494 49.8063C55.7312 51.705 60.2825 60.4132 55.2386 63.8899L55.2394 63.8915Z" fill="#A93E00"/>
<path d="M39.0738 88.9561C39.1936 88.3139 39.2176 87.6609 39.2887 87.012C39.5226 84.8769 39.9747 82.7748 40.5649 80.7108C41.1502 78.6633 42.0032 76.7018 42.705 74.6932C43.058 73.6831 43.3787 72.6614 43.6358 71.6223C43.892 70.5858 44.0904 69.5418 44.3937 68.516C44.993 66.4875 45.8014 64.5293 46.652 62.5951C46.6636 62.5678 46.6793 62.5463 46.6975 62.5273C46.9033 61.3138 47.2637 60.131 47.448 58.9126C47.548 58.2538 47.5919 57.5751 47.5166 56.9114C47.4447 56.2774 47.2819 55.6574 47.1149 55.0432C46.7901 53.8472 46.528 52.6428 46.3652 51.4128C46.2189 50.3052 46.0817 49.0603 46.5024 47.9965C46.8339 47.1591 47.4472 46.3888 47.5332 45.4811C47.0182 45.7052 46.6032 46.354 46.2908 46.7425C46.0081 47.0938 45.5361 47.7931 44.9922 47.5939C44.3896 47.3732 44.2309 46.2193 44.2739 45.6952C44.3475 44.7959 45.203 44.3719 45.4675 43.5659C45.4824 43.5213 45.4923 43.4593 45.5022 43.3915C45.2774 43.4742 45.0534 43.4998 44.7979 43.5543C44.4152 43.6354 43.9705 44.4082 43.563 43.9329C43.3283 43.6593 43.3316 43.0658 43.4109 42.7451C43.5283 42.269 43.8457 41.8565 44.1516 41.4854C44.6698 40.8563 45.2228 40.267 45.8221 39.7156C46.5074 39.0849 47.2075 38.4617 47.8059 37.7458C48.087 37.4102 48.4251 36.9796 48.5722 36.5225C48.6433 36.3034 48.3837 36.1174 48.1986 36.2547C47.9208 36.4605 47.6786 36.7217 47.4439 36.9746C47.0289 37.4218 46.6206 37.8855 46.0883 38.1955C45.9544 38.2732 45.7262 38.2096 45.6989 38.0368C45.5039 36.8085 45.5477 35.5752 45.7676 34.3526C45.9668 33.2442 46.3015 32.1638 46.6909 31.1082C47.0868 30.0361 47.5844 29.0045 47.9365 27.9167C48.6053 25.8511 48.8408 23.6961 48.9301 21.5354C48.9359 21.3907 49.0533 21.2758 49.1979 21.2701C50.3577 21.2279 50.5941 22.7183 50.7726 23.5738C50.8652 24.0202 50.9545 24.6971 51.1843 25.2427C51.2024 25.1171 51.2206 24.9914 51.2363 24.8658C51.6166 21.8594 49.4848 19.8037 48.7995 20.1467C48.1143 20.4889 48.3581 23.7953 48.206 24.7087C48.0845 25.4378 46.3048 28.9574 45.5907 30.3494C45.3964 30.7272 45.2807 31.1397 45.2484 31.5637L44.6128 39.938C44.6128 39.938 43.2043 41.1556 42.5959 42.0689C41.9867 42.9823 42.9001 45.1133 43.9275 49.4902C44.955 53.867 44.855 57.1544 44.855 57.1544C44.688 57.8223 44.464 58.4778 44.1821 59.1134L43.2539 61.2064L40.9683 66.385L40.9634 66.3867L30.9747 88.9594H39.0729C39.0729 88.9594 39.0729 88.9594 39.0738 88.9586V88.9561Z" fill="#8D2A00"/>
<path d="M57.5419 39.6557C54.8043 39.7574 52.3451 41.4039 49.6884 41.9917C49.4818 42.0371 49.5372 42.343 49.7479 42.3198C50.6597 42.2206 51.583 41.809 52.4551 41.4635C55.4002 40.2955 58.7719 39.8574 61.7278 40.9973C63.1265 41.537 64.916 42.8166 66.4023 42.6174L66.8883 42.5587C64.077 41.5916 60.5136 39.5449 57.5428 39.6557H57.5419Z" fill="#8D2A00"/>
<path d="M56.475 35.7134C56.3617 35.7233 56.2501 35.7473 56.1402 35.7737C54.5754 36.1441 53.1405 36.9178 51.7253 37.6824C50.349 38.4271 48.9653 39.1768 47.6824 40.0679C47.47 40.2159 47.6626 40.5432 47.894 40.4267C49.2149 39.7654 50.5044 38.9148 51.8154 38.2106C53.8092 37.1393 56.0137 35.8506 58.1017 36.7252C58.3976 36.8491 62.491 38.9537 62.629 38.5032C62.629 38.5032 57.4082 35.6283 56.475 35.7117V35.7134Z" fill="#8D2A00"/>
<path d="M58.7583 42.7406C58.7335 42.7108 58.7046 42.681 58.6666 42.6711C58.574 42.6455 58.4971 42.7439 58.4566 42.8307C58.0491 43.7044 58.1863 44.9178 57.053 45.2361C56.7522 45.3204 56.4331 45.3072 56.1314 45.2253C55.914 45.1658 55.6991 45.0997 55.4858 45.0261C55.1998 44.9269 54.9411 45.2328 55.0849 45.4998L55.089 45.508C55.2924 45.8874 55.3759 46.4198 54.7741 46.6264C54.6733 46.6611 54.5666 46.676 54.46 46.6818C54.2137 46.695 53.9665 46.7082 53.7202 46.7215C53.3838 46.7396 53.3408 47.2183 53.6681 47.2968C53.7144 47.3084 53.7607 47.3174 53.8053 47.3249C54.1666 47.3885 54.627 47.6497 54.4559 48.0027C54.3889 48.1407 54.2476 48.2275 54.0946 48.2457C54.0236 48.254 53.9318 48.268 53.8285 48.2862C53.5119 48.3416 53.5309 48.8037 53.8516 48.8318C54.3922 48.8789 54.9353 48.9111 55.4387 48.8665C55.4775 48.1606 55.909 47.3265 55.971 46.6082C55.9818 46.4859 56.0041 46.4528 56.0702 46.3495C56.1339 46.2503 56.2959 46.1652 56.4133 46.1668C56.6993 46.1701 57.8672 45.475 58.4434 44.912C59.0195 44.3491 59.2791 43.3547 58.7575 42.7414L58.7583 42.7406Z" fill="#8D2A00"/>
<path d="M63.8517 32.529C63.8905 32.5257 64.5378 33.2581 64.6527 33.3275C65.0445 33.5639 65.4743 33.6615 65.9298 33.6739C66.6753 33.6937 67.5962 33.6739 68.4277 33.6788C68.7385 33.6805 68.8476 33.273 68.5815 33.1126C67.9252 32.7183 66.5753 32.305 63.8525 32.529H63.8517Z" fill="#340800"/>
<path d="M65.4207 41.978C65.3942 41.9739 65.3711 41.997 65.376 42.0235C65.4033 42.159 65.3835 42.4955 65.4041 42.5583C65.4835 42.7906 65.6596 42.9807 65.8646 43.1105C66.1142 43.2683 66.406 43.3477 66.6945 43.413C67.1979 43.5271 67.7046 43.6527 68.1939 43.8172C68.1939 43.8172 68.3311 42.4079 65.4198 41.978H65.4207Z" fill="#340800"/>
<path d="M48.205 24.7075C48.5447 24.7075 48.9092 23.261 48.9216 22.8369C48.9481 21.9243 48.7637 21.0606 48.7985 20.1455C48.7985 20.1455 47.814 20.2761 48.205 24.7075Z" fill="#340800"/>
<path d="M129.145 88.957L125.281 60.8823C124.968 59.4779 120.952 40.1273 120.574 39.1031C120.397 38.6228 117.888 36.9614 115.272 35.3313C115.161 35.7777 114.978 36.2075 114.769 36.615C114.477 37.1829 114.125 37.7194 113.747 38.2343C113.408 38.6972 113.038 39.1312 112.677 39.5759C112.036 40.3637 111.466 41.2539 110.59 41.7747C110.742 41.935 110.845 42.0334 110.845 42.0334C110.845 42.0334 110.627 42.8063 110.08 42.6178C109.532 42.4293 107.387 38.3608 107.387 38.3608C107.387 38.3608 100.789 30.7726 99.0866 34.4956C97.3838 38.2186 102.275 41.4531 103.223 42.4971C104.171 43.5411 105.365 45.3051 106.502 48.7801C107.639 52.2551 107.918 54.0108 111.473 58.6695C115.028 63.3282 115.135 63.8101 115.135 63.8101L114.261 88.9561H129.146L129.145 88.957Z" fill="#FFAB92"/>
<path d="M113.415 39.8257C113.368 39.8266 113.324 39.8505 113.284 39.8753C113.108 39.982 112.946 40.1109 112.763 40.2043C112.58 40.2986 112.369 40.3572 112.169 40.3109C112.15 40.3068 112.132 40.3002 112.115 40.2936C111.671 40.8606 111.206 41.4078 110.591 41.7732C110.743 41.9336 110.846 42.0319 110.846 42.0319C110.846 42.0319 110.829 42.089 110.796 42.1675C111.213 42.5684 111.601 42.9999 111.986 43.3801C112.217 43.6091 112.455 43.8347 112.715 44.0323C112.75 44.0588 112.785 44.0835 112.821 44.1075C112.859 44.1331 112.861 44.1365 112.884 44.148C112.877 44.1117 112.869 44.0753 112.859 44.0389C112.815 43.891 112.763 43.7397 112.677 43.6157C112.509 43.3735 112.273 43.195 112.064 42.99C111.843 42.7734 111.644 42.5246 111.601 42.208C111.548 41.8278 111.697 41.4599 112.007 41.2351C112.269 41.045 112.583 40.9532 112.831 40.7449C113.089 40.53 113.312 40.2746 113.49 39.9902C113.508 39.9629 113.524 39.9332 113.521 39.901C113.516 39.8538 113.464 39.8224 113.417 39.8233L113.415 39.8257Z" fill="#FF7F4C"/>
<path d="M122.461 88.9578C122.535 87.5204 123.109 84.9645 122.909 83.537C122.521 80.7505 121.726 78.0434 121.186 75.2859C120.914 73.898 120.764 72.4903 120.491 71.1016C120.214 69.6881 119.894 68.2697 119.464 66.8942C118.787 64.7285 117.754 62.7067 116.348 60.9245C115.631 60.0161 114.838 59.1697 114.013 58.3588C113.201 57.5603 112.497 56.7494 111.949 55.7418C110.843 53.7042 110.365 51.4038 109.571 49.2422C108.764 47.0418 107.602 45.0398 106.05 43.2808C105.288 42.417 104.466 41.6086 103.645 40.8018C102.865 40.0364 102.041 39.2982 101.449 38.3691C100.983 37.6367 100.689 36.8176 100.693 35.943C100.697 35.1164 100.953 34.3237 101.309 33.5848C100.361 33.3128 99.5455 33.493 99.0851 34.4982C97.3823 38.2212 102.273 41.4556 103.221 42.4996C104.17 43.5436 105.364 45.3076 106.501 48.7826C107.637 52.2576 107.916 54.0133 111.472 58.672C115.026 63.3308 115.134 63.8127 115.134 63.8127L114.26 88.9586H122.461L122.461 88.9578Z" fill="#FF7F4C"/>
<path d="M101.426 38.1444L101.99 37.851C102.506 37.5823 102.933 37.1666 103.215 36.6565L103.52 36.1052C103.52 36.1052 101.634 32.1425 99.5067 33.88C97.1551 35.801 101.426 38.1444 101.426 38.1444Z" fill="#8D2A00"/>
<path d="M74.8215 61.9568L74.843 88.9552H92.3999C92.3999 88.9552 85.5111 56.8996 86.6625 55.42C87.814 53.9404 91.432 52.46 92.0891 49.6644C92.7463 46.8689 92.1412 39.0079 91.6717 36.6083C91.2022 34.2087 90.3153 29.0961 88.6464 29.3574C86.9775 29.6186 86.9775 30.818 86.9775 30.818C86.9775 30.818 87.1494 27.6405 85.1548 27.2065C84.7498 27.1189 84.329 27.2008 83.9736 27.414C83.6182 27.6273 83.1982 27.972 83.1685 28.4183C83.1685 28.4183 82.751 27.4272 81.5517 27.8968C80.3523 28.3663 80.1431 32.2786 80.1431 32.2786C80.1431 32.2786 78.6305 31.6528 78.1089 33.2696C77.5873 34.8865 76.5441 42.5548 75.7613 44.3808C74.9785 46.2068 74.8744 46.7804 73.7271 48.1369C72.5797 49.4933 71.6928 54.6579 72.8922 56.1706C73.5394 56.9864 74.0494 58.2569 74.3826 59.2546C74.6735 60.1259 74.8223 61.0384 74.8223 61.9568H74.8215Z" fill="#8D2A00"/>
<path d="M91.7881 50.5028C91.5558 50.6739 91.3119 50.8293 91.0631 50.969C90.1795 51.4666 89.0917 51.9733 88.0477 51.9221C87.4335 51.8923 86.8144 52.0039 86.2829 52.3147C86.154 52.3899 86.0159 52.4511 85.8696 52.4924C85.4241 52.618 84.9554 52.5379 84.5173 52.4221C84.2974 52.3643 84.0635 52.3114 83.8527 52.2254C83.6527 52.1436 83.4824 52.0138 83.2906 51.9171C83.1079 51.8253 82.8938 51.784 82.6955 51.8427C82.4681 51.9105 82.2607 52.0336 82.0441 52.1279C81.8143 52.2279 81.582 52.3039 81.3283 52.2932C81.1026 52.2833 80.8786 52.2378 80.6645 52.1651C80.2132 52.0113 79.8065 51.7576 79.4056 51.5063C79.0378 51.2757 78.6617 51.026 78.2393 50.9086C77.8681 50.8053 77.4556 50.8301 77.0829 50.9103C76.758 50.9797 76.434 51.0905 76.0984 51.0409C75.9471 51.0186 75.8074 50.964 75.6776 50.8896C75.5603 50.8218 75.4197 50.9285 75.4602 51.0583C75.6768 51.7551 76.1306 53.1206 76.4844 53.81C76.7026 54.2357 76.92 54.6664 77.1622 55.0797C77.4176 55.5145 77.7755 55.874 78.1723 56.1815C79.0262 56.8428 80.0131 57.3131 80.7877 58.0802C80.9158 58.2075 81.1043 58.4332 81.2084 58.5803C81.2539 58.6448 81.3002 58.7084 81.3489 58.7729C81.9714 59.5912 82.6078 60.9659 81.244 61.3949C80.848 61.5197 80.3578 61.7412 80.381 62.1554C80.3893 62.3041 80.4694 62.438 80.5488 62.5653C80.9753 63.2498 81.4456 63.9292 82.0987 64.4029C83.1013 65.1311 84.0527 64.9443 85.1488 64.6269C85.906 64.407 86.6838 64.2095 87.4137 63.9028C86.702 59.3176 86.3127 55.8691 86.6623 55.4194C87.6923 54.0952 90.6969 52.7693 91.7889 50.502L91.7881 50.5028Z" fill="#340800"/>
<path d="M79.1422 44.9205C79.2125 44.4683 79.2563 44.0129 79.2835 43.5558C79.3216 42.9267 79.3819 42.301 79.4373 41.6736C79.5398 40.5164 79.5935 39.3525 79.7977 38.2068C79.8969 37.6481 80.0415 37.1017 80.2044 36.5586C80.3474 36.0825 80.4962 35.6064 80.5953 35.1187C80.6854 34.6748 80.7342 34.2086 80.6573 33.7589C80.6003 33.4274 80.316 32.5603 80.1432 32.2793C80.1176 33.2439 79.7349 36.6024 79.6646 37.0562C79.596 37.4993 79.5588 37.944 79.5208 38.3903C79.4472 39.2674 79.4125 40.1477 79.3687 41.0272C79.324 41.915 79.2703 42.8036 79.1595 43.6864C79.105 44.1236 79.0372 44.5593 78.9488 44.9907C78.924 45.1106 78.8983 45.2296 78.8702 45.3478C78.8454 45.452 78.8347 45.5875 78.7719 45.6752C78.7429 45.7157 78.7074 45.7504 78.6776 45.7901C78.6231 45.8653 78.5942 45.9579 78.5933 46.0504C78.5925 46.1124 78.5991 46.2265 78.6388 46.2769C78.7124 46.3695 78.8471 46.1893 78.881 46.129C79.081 45.7661 79.0818 45.3222 79.143 44.9221L79.1422 44.9205Z" fill="#340800"/>
<path d="M83.1684 28.4189C83.1494 29.9829 83.3469 32.809 83.4883 34.5978C83.5726 35.6633 83.5164 36.7337 83.3213 37.7851C83.108 38.9333 82.8518 40.4311 82.7981 41.2544C82.7443 42.0835 82.6906 42.9134 82.7195 43.7433C82.7377 44.2566 82.7898 44.779 82.9989 45.2485C83.0287 45.3155 83.0882 45.3932 83.1576 45.3684C83.2006 45.3527 83.2205 45.3031 83.2337 45.2592C83.5792 44.1624 83.7437 43.0258 83.8098 41.8801C83.8437 41.2899 83.8512 40.6981 83.8528 40.1071C83.8545 39.4326 83.8743 38.7589 83.8999 38.086C83.9512 36.7279 84.0272 35.3698 84.0289 34.0101C84.0305 32.747 83.9231 31.479 83.7197 30.2317C83.6519 29.8176 83.3279 28.3975 83.1675 28.4206L83.1684 28.4189Z" fill="#340800"/>
<path d="M87.836 34.2527C87.5393 33.2326 87.3682 32.1986 87.2392 31.1372C87.2095 30.8909 87.2062 30.5768 87.0962 30.3486C86.7193 31.0471 87.0582 33.9369 87.3475 34.8817C87.6468 35.8604 88.0716 36.811 88.1725 37.8393C88.2229 38.3551 88.146 38.8709 88.1022 39.3842C88.0551 39.9372 88.0138 40.491 87.9799 41.0448C87.9468 41.592 87.9204 42.1401 87.9038 42.6873C87.8881 43.2006 87.8989 43.7147 87.879 44.2272C87.8641 44.5967 87.8203 44.9654 87.8236 45.3357C87.8245 45.4382 87.827 45.549 87.8385 45.6606C87.8501 45.7721 88.0113 45.7928 88.0485 45.6845C88.3361 44.8389 88.4494 43.9454 88.494 43.051C88.5196 42.5443 88.5271 42.0367 88.5411 41.53C88.5544 41.039 88.6188 40.5604 88.7122 40.0785C88.8784 39.2255 89.147 38.3286 88.9296 37.464C88.7122 36.5994 88.3254 35.7224 88.0253 34.8511C87.9567 34.6519 87.8939 34.4527 87.836 34.2527Z" fill="#340800"/>
<path d="M89.6821 86.0401C88.3942 85.1441 87.1171 86.1575 85.9706 85.0854C83.6322 82.8999 81.869 80.2415 80.7581 77.241C79.4207 73.6271 78.9553 69.7561 78.1898 65.9992C77.8311 64.2369 77.4724 62.4407 76.6846 60.8123C75.9696 59.3335 75.038 57.9713 74.3354 56.4859C73.9957 55.7667 73.708 55.0187 73.5386 54.24C73.3493 53.3696 73.3179 52.4736 73.4014 51.5883C73.5245 50.2847 73.8643 49.0068 74.0692 47.7148C73.9659 47.8479 73.8527 47.9876 73.7262 48.1364C72.5789 49.4929 71.6919 54.6574 72.8913 56.1701C73.5386 56.986 74.0486 58.2565 74.3817 59.2542C74.6727 60.1254 74.8215 61.038 74.8215 61.9563L74.8429 88.9547H92.3999C92.3999 88.9547 92.2941 88.4298 92.1106 87.509C91.2551 87.0957 90.445 86.57 89.6829 86.0393L89.6821 86.0401Z" fill="#340800"/>
<path d="M79.4305 32.1513C79.4305 32.1513 78.9693 32.3265 78.9114 33.2465C78.8535 34.1665 78.7924 34.8072 78.7924 34.8072H80.1033C80.1033 34.8072 80.4414 32.4613 80.1033 32.2364C79.7653 32.0116 79.4305 32.1513 79.4305 32.1513Z" fill="#340800"/>
<path d="M81.2666 30.7746H82.6164C82.6164 30.7746 83.114 28.013 82.1023 27.9427C80.9938 27.8658 81.2186 29.7464 81.2666 30.7746Z" fill="#340800"/>
<path d="M84.2461 30.6843H86.0877C86.0877 30.6843 86.7672 27.6978 85.3859 27.6226C83.8733 27.5399 84.1799 29.5725 84.2461 30.6843Z" fill="#340800"/>
<path d="M88.1486 32.4553L89.7158 32.0387C89.7158 32.0387 89.6142 29.3266 88.4214 29.5746C87.1154 29.8457 87.8395 31.518 88.1486 32.4553Z" fill="#340800"/>
<rect x="67.3892" y="0.0410156" width="1.57647" height="7.88235" rx="0.788235" fill="#00144A"/>
<rect x="92.2001" y="0.0410156" width="1.57647" height="7.88235" rx="0.788235" fill="#00144A"/>
</svg>
