<svg width="160" height="160" viewBox="0 0 160 160" fill="none" xmlns="http://www.w3.org/2000/svg">
<mask id="mask0_2672_44771" style="mask-type:alpha" maskUnits="userSpaceOnUse" x="8" y="7" width="146" height="146">
<circle cx="81.2362" cy="80.2733" r="72.7259" fill="#EBF8FF"/>
</mask>
<g mask="url(#mask0_2672_44771)">
<path d="M184.559 -1.73681H-40.6547C-42.1226 -1.73817 -43.5765 -1.45019 -44.9331 -0.889355C-46.2898 -0.32852 -47.5226 0.494187 -48.5611 1.53173C-49.5996 2.56928 -50.4234 3.80131 -50.9855 5.15743C-51.5476 6.51355 -51.8369 7.96714 -51.8369 9.43513V141.817C-51.8369 144.783 -50.6588 147.627 -48.5617 149.724C-46.4646 151.821 -43.6204 152.999 -40.6547 152.999H184.559C187.524 152.999 190.368 151.821 192.466 149.724C194.563 147.627 195.741 144.783 195.741 141.817V9.43513C195.741 7.96714 195.451 6.51355 194.889 5.15743C194.327 3.80131 193.503 2.56928 192.465 1.53173C191.426 0.494187 190.194 -0.32852 188.837 -0.889355C187.48 -1.45019 186.026 -1.73817 184.559 -1.73681Z" fill="#EBF8FF"/>
</g>
<path fill-rule="evenodd" clip-rule="evenodd" d="M148.186 15.2492C149.805 17.5122 147.848 21.6843 143.816 24.568C141.109 26.5032 138.156 27.3664 136.017 27.0407C135.913 28.6537 135.722 30.3559 135.466 32.1152C134.06 41.7768 131.658 52.6946 124.67 50.987C116.562 49.0022 117.754 41.1476 119.097 32.3032C119.205 31.5941 119.313 30.8787 119.418 30.1595C120.831 20.4685 123.32 12.6904 130.027 13.6008C132.887 13.984 134.562 15.8369 135.406 18.6547C136.119 17.8488 136.975 17.073 137.954 16.3731C141.986 13.4894 146.567 12.9863 148.186 15.2492Z" fill="#9EDDFF"/>
<path d="M147.643 45.5459C146.328 50.7373 142.729 54.28 139.592 53.5154C131.929 51.6461 134.544 47.8119 136.306 42.6736C138.069 37.5353 141.211 33.979 144.358 34.7041C150.129 36.0281 148.966 40.3262 147.643 45.5459Z" fill="#9EDDFF"/>
<path d="M113.212 51.601L145.253 59.7185C147.019 60.1661 148.092 61.9661 147.644 63.7328L143.535 79.9526C142.381 84.5062 137.745 87.2679 133.192 86.1142L111.261 80.5582C106.708 79.4046 103.946 74.7688 105.1 70.2151L109.209 53.9954C109.657 52.2287 111.457 51.1563 113.223 51.6039L113.212 51.601Z" fill="#D1EFFF"/>
<path d="M148.438 60.5743L109.998 50.8354L108.73 55.8393L147.171 65.5782L148.438 60.5743Z" fill="#B8E6FF"/>
<path d="M149.903 53.7402L111.975 44.1313C110.716 43.8123 109.437 44.5743 109.118 45.8334L107.927 50.5352C107.608 51.7942 108.37 53.0734 109.629 53.3924L147.556 63.0013C148.815 63.3203 150.095 62.5582 150.414 61.2992L151.605 56.5974C151.924 55.3384 151.162 54.0592 149.903 53.7402Z" fill="#D1EFFF"/>
<path fill-rule="evenodd" clip-rule="evenodd" d="M3.32855 49.7244C2.46565 49.886 1.90992 50.7324 2.1046 51.5884L4.3364 61.4022L86.7917 45.9572L84.7318 36.0204C84.5607 35.1949 83.7604 34.6583 82.9318 34.8136L3.32855 49.7244ZM86.7916 45.9573L4.33637 61.4024L15.9987 113.016C16.0524 113.263 16.2008 113.479 16.4121 113.618C16.6233 113.757 16.8806 113.808 17.1288 113.76L97.506 98.7038C97.6347 98.6798 97.7571 98.6301 97.8662 98.5577C97.9752 98.4853 98.0685 98.3916 98.1405 98.2823C98.2125 98.173 98.2618 98.0503 98.2853 97.9215C98.3089 97.7927 98.3062 97.6606 98.2775 97.5329L86.7916 45.9573Z" fill="#9EDDFF"/>
<path d="M7.07227 56.3257L89.5275 40.8806L101.013 92.4561C101.042 92.5839 101.045 92.716 101.021 92.8448C100.998 92.9736 100.948 93.0963 100.876 93.2056C100.804 93.3149 100.711 93.4086 100.602 93.481C100.493 93.5534 100.371 93.6031 100.242 93.6271L19.8647 108.683C19.6165 108.731 19.3592 108.681 19.148 108.542C18.9367 108.403 18.7883 108.187 18.7346 107.939L7.07227 56.3257Z" fill="#B8E6FF"/>
<path d="M19.1909 67.0979C18.998 66.2426 19.5537 65.3981 20.4155 65.2367L80.8666 53.9134C81.6849 53.7601 82.4778 54.2818 82.6609 55.094L90.0754 87.9821C90.2682 88.8374 89.7126 89.6819 88.8508 89.8433L28.3997 101.167C27.5813 101.32 26.7884 100.798 26.6053 99.986L19.1909 67.0979Z" fill="#EBF8FF"/>
<path d="M19.9238 61.5461L44.1224 57.0134C44.2925 56.9826 44.4545 56.9177 44.5988 56.8224C44.743 56.727 44.8664 56.6034 44.9613 56.4589C45.0562 56.3144 45.1208 56.1522 45.1511 55.982C45.1814 55.8118 45.1767 55.6372 45.1375 55.4688C45.0536 55.1189 44.8384 54.8147 44.5364 54.6191C44.2343 54.4235 43.8687 54.3516 43.5151 54.4183L19.3234 58.9498C19.1533 58.9805 18.9912 59.0455 18.847 59.1408C18.7028 59.2361 18.5794 59.3598 18.4845 59.5043C18.3896 59.6487 18.325 59.811 18.2947 59.9812C18.2644 60.1514 18.2691 60.326 18.3083 60.4943C18.3919 60.8431 18.6059 61.1465 18.9065 61.3422C19.207 61.5378 19.5711 61.6108 19.9238 61.5461Z" fill="#EBF8FF"/>
<path d="M4.84047 46.5118C4.64579 45.6558 5.20152 44.8094 6.06442 44.6478L85.6677 29.737C86.4962 29.5818 87.2966 30.1183 87.4677 30.9438L89.5275 40.8806L7.07226 56.3256L4.84047 46.5118Z" fill="#D1EFFF"/>
<path d="M23.7374 48.0362L23.6617 48.0504C23.3238 48.1121 22.9751 48.0408 22.6885 47.8513C22.402 47.6619 22.1997 47.369 22.1241 47.0339L21.8256 45.7069C21.6177 45.9575 21.4709 46.2529 21.3967 46.5698C21.3225 46.8868 21.3229 47.2167 21.398 47.5335C21.5222 48.1006 21.859 48.5985 22.3391 48.9249C22.8192 49.2513 23.4061 49.3814 23.9791 49.2883C24.255 49.2322 24.5168 49.1212 24.7489 48.9619C24.9811 48.8027 25.1789 48.5984 25.3306 48.3612C25.4823 48.124 25.5848 47.8587 25.6321 47.5812C25.6793 47.3036 25.6702 47.0194 25.6055 46.7454C25.531 46.4204 25.3865 46.1156 25.182 45.8522C24.9776 45.5889 24.7181 45.3734 24.4218 45.2206L24.7203 46.5476C24.7575 46.7102 24.7613 46.8786 24.7315 47.0426C24.7018 47.2067 24.6392 47.363 24.5473 47.5022C24.4554 47.6413 24.3362 47.7604 24.197 47.8522C24.0578 47.944 23.9015 48.0066 23.7374 48.0362Z" fill="#9EDDFF"/>
<path d="M69.4165 39.4153L69.3408 39.4295C69.0044 39.4875 68.6585 39.4155 68.3732 39.228C68.088 39.0406 67.8847 38.7517 67.8045 38.4199L67.5283 37.1742C67.3257 37.423 67.1827 37.7148 67.1103 38.0274C67.0379 38.34 67.038 38.665 67.1106 38.9775C67.2333 39.5455 67.5697 40.0445 68.0502 40.3712C68.5307 40.6978 69.1185 40.8271 69.6918 40.7324C69.9714 40.6803 70.2376 40.572 70.4741 40.414C70.7107 40.2561 70.9128 40.0517 71.0681 39.8133C71.2233 39.575 71.3287 39.3076 71.3776 39.0273C71.4265 38.7471 71.418 38.4598 71.3526 38.1829C71.2765 37.855 71.1296 37.5476 70.9223 37.2823C70.715 37.0171 70.4523 36.8002 70.1525 36.647L70.435 37.9271C70.473 38.0923 70.4763 38.2635 70.4448 38.43C70.4133 38.5965 70.3476 38.7546 70.2519 38.8944C70.1562 39.0343 70.0326 39.1528 69.8888 39.2424C69.745 39.332 69.5842 39.3909 69.4165 39.4153Z" fill="#9EDDFF"/>
<path d="M22.1241 47.0336C22.1997 47.3686 22.402 47.6615 22.6885 47.851C22.9751 48.0404 23.3238 48.1117 23.6617 48.0501L23.7374 48.0359C23.9015 48.0062 24.0578 47.9436 24.197 47.8518C24.3362 47.7601 24.4554 47.641 24.5473 47.5018C24.6392 47.3627 24.7018 47.2063 24.7316 47.0423C24.7613 46.8782 24.7575 46.7098 24.7203 46.5473L24.4218 45.2203L23.5539 41.3481L22.6757 37.4209C22.6001 37.0858 22.3978 36.7929 22.1113 36.6035C21.8247 36.4141 21.4761 36.3427 21.1382 36.4044L21.0968 36.4122C20.9327 36.4418 20.7763 36.5044 20.6372 36.5962C20.498 36.688 20.3788 36.807 20.287 36.9462C20.1951 37.0853 20.1324 37.2417 20.1027 37.4057C20.073 37.5698 20.0768 37.7382 20.114 37.9008L20.9922 41.828L21.8601 45.7001L22.1241 47.0336Z" fill="#B8E6FF"/>
<path d="M67.8042 38.4204C67.8818 38.7565 68.0854 39.0499 68.3731 39.2401C68.6607 39.4303 69.0105 39.5028 69.35 39.4425L69.4257 39.4283C69.5902 39.3987 69.7467 39.3358 69.886 39.2435C70.0252 39.1512 70.1441 39.0314 70.2354 38.8915C70.3267 38.7516 70.3884 38.5945 70.4168 38.4299C70.4451 38.2652 70.4396 38.0965 70.4004 37.9341L70.1178 36.6541L69.2538 32.8026L68.3628 28.8065C68.2853 28.4711 68.0815 28.1785 67.7939 27.9894C67.5063 27.8004 67.1569 27.7294 66.8183 27.7913L66.7426 27.8055C66.5788 27.835 66.4227 27.8976 66.2838 27.9894C66.145 28.0812 66.0264 28.2003 65.9351 28.3394C65.8438 28.4786 65.7817 28.6349 65.7528 28.7988C65.7238 28.9627 65.7285 29.1308 65.7666 29.2928L66.6577 33.2889L67.5281 37.1748L67.8042 38.4204Z" fill="#B8E6FF"/>
<path d="M132.282 91.8701C132.282 113.657 114.62 131.319 92.833 131.319C71.0458 131.319 53.3838 113.657 53.3838 91.8701C53.3838 70.0829 71.0458 52.4209 92.833 52.4209C114.62 52.4209 132.282 70.0829 132.282 91.8701Z" fill="#64EDD2"/>
<path d="M92.8331 88.1535C98.4431 88.1535 102.991 83.6057 102.991 77.9957C102.991 72.3857 98.4431 67.8379 92.8331 67.8379C87.2231 67.8379 82.6753 72.3857 82.6753 77.9957C82.6753 83.6057 87.2231 88.1535 92.8331 88.1535Z" fill="#00A58A"/>
<path d="M92.833 91.8784C97.5232 91.8784 102.021 93.7416 105.338 97.058C108.654 100.374 110.517 104.872 110.517 109.563V115.839H75.1489V109.563C75.1489 104.872 77.0121 100.374 80.3285 97.058C83.6449 93.7416 88.1429 91.8784 92.833 91.8784Z" fill="#00A58A"/>
<path d="M57.2524 139.847C70.0712 139.847 80.4628 129.455 80.4628 116.636C80.4628 103.817 70.0712 93.4258 57.2524 93.4258C44.4336 93.4258 34.042 103.817 34.042 116.636C34.042 129.455 44.4336 139.847 57.2524 139.847Z" fill="#F58B00"/>
<path d="M57.2611 103.998H57.2525C55.5204 103.998 54.1162 105.402 54.1162 107.134V126.14C54.1162 127.872 55.5204 129.276 57.2525 129.276H57.2611C58.9932 129.276 60.3974 127.872 60.3974 126.14V107.134C60.3974 105.402 58.9932 103.998 57.2611 103.998Z" fill="white"/>
<path d="M45.1519 116.277V116.987C45.1519 118.525 46.3992 119.772 47.9378 119.772H66.5933C68.1319 119.772 69.3792 118.525 69.3792 116.987V116.277C69.3792 114.739 68.1319 113.491 66.5933 113.491H47.9378C46.3992 113.491 45.1519 114.739 45.1519 116.277Z" fill="white"/>
</svg>
