<svg width="160" height="90" viewBox="0 0 160 90" fill="none" xmlns="http://www.w3.org/2000/svg">
<rect y="12.541" width="160" height="69" rx="12" fill="#89D1FF"/>
<path d="M110.784 81.3654L107.155 60.0079C106.862 58.9395 103.09 44.2184 102.735 43.4393C102.569 43.074 100.213 41.8105 97.757 40.5699L97.7562 40.5726C97.7562 40.5712 97.7562 40.5706 97.7562 40.5692C96.0407 39.7034 94.2764 38.8496 93.1745 38.3208V14.6335C93.1745 14.25 93.0258 13.8975 92.7763 13.6176C92.4345 13.2341 91.9046 12.9879 91.3087 12.9879H80.6592L80.6693 12.9751C80.6693 11.832 79.8193 10.9514 78.8034 10.9244C77.7721 10.8969 76.8896 11.8065 76.764 12.9879H73.708L73.7181 12.9751C73.7181 11.832 72.8681 10.9514 71.8523 10.9244C70.8209 10.8969 69.9384 11.8065 69.8129 12.9879H66.7569L66.7669 12.9751C66.7669 11.832 65.9169 10.9514 64.9011 10.9244C63.8698 10.8969 62.9872 11.8065 62.8617 12.9879H59.8057L59.8158 12.9751C59.8158 11.832 58.9658 10.9514 57.9499 10.9244C56.9186 10.8969 56.0361 11.8065 55.9105 12.9879H45.5446C44.838 12.9879 44.2103 13.2879 43.8175 13.7508C43.7764 13.7992 43.7377 13.8504 43.7013 13.9022C43.5029 14.1894 43.389 14.5265 43.389 14.8871V21.9655V30.931C42.9171 29.6069 41.7254 28.8265 41.2566 29.0162C41.2566 29.0162 40.3322 29.1178 40.6995 32.4864C40.6987 32.4911 40.6964 32.4972 40.6956 32.5026C40.6925 32.516 40.6894 32.5295 40.6848 32.545C40.6825 32.553 40.6786 32.5631 40.6755 32.5719C40.5414 32.9735 39.9727 33.9645 39.39 34.9286C39.2226 35.2058 39.0537 35.481 38.8949 35.7386C38.8313 35.8416 38.7694 35.9412 38.7089 36.038C38.5299 36.3253 38.3695 36.5803 38.244 36.7781C38.2153 36.8238 38.189 36.8703 38.1634 36.9174C38.1293 36.9813 38.0976 37.0459 38.0704 37.1118C38.0495 37.1629 38.0309 37.2147 38.0139 37.2672C37.9674 37.4092 37.9364 37.5545 37.9225 37.7018L37.325 44.0724C37.325 44.0724 36.2596 44.8192 35.6281 45.4745C35.5561 45.5492 35.4894 45.6225 35.4313 45.6938C35.3066 45.8459 35.2492 46.0423 35.2477 46.2912C35.2477 46.2933 35.2477 46.2953 35.2477 46.2973C35.2477 46.3915 35.2547 46.4944 35.2694 46.6048C35.2732 46.6317 35.2771 46.6586 35.281 46.6862C35.2903 46.7433 35.3004 46.8032 35.3128 46.8651C35.3283 46.9445 35.3469 47.0273 35.3686 47.1134C35.398 47.2324 35.4313 47.3583 35.4701 47.4915C35.5382 47.729 35.6196 47.9887 35.7118 48.2739C35.7552 48.4091 35.8017 48.5491 35.8497 48.6951C36.0899 49.4257 36.3813 50.2997 36.6827 51.3398C37.3312 53.5768 37.5009 55.4397 37.5436 56.4213C37.5467 56.4899 37.549 56.5538 37.5505 56.6137C37.5521 56.6736 37.5536 56.7288 37.5544 56.7792C37.5567 56.9145 37.5567 57.0167 37.5559 57.082C37.5559 57.0988 37.5559 57.1129 37.5559 57.1244C37.5559 57.154 37.5552 57.1694 37.5552 57.1694C37.3987 57.6774 37.1879 58.1759 36.9237 58.6597L36.052 60.2515L33.9056 64.1913L33.901 64.1926L24.5191 81.3654H38.6888C40.8599 76.7117 45.4307 66.2762 47.1439 62.654L47.14 62.6439C47.1966 62.5248 47.2516 62.4097 47.3051 62.2981C48.0272 61.8944 48.5394 61.3985 48.8889 60.8428C51.2537 57.6411 51.2072 51.732 51.1878 50.8836H61.281C60.4357 52.3665 59.9483 55.431 60.9207 56.4247C60.93 56.4341 60.9385 56.4442 60.9478 56.4536C61.0028 56.5108 61.0563 56.5707 61.109 56.6332C61.1811 56.718 61.2508 56.8075 61.3182 56.9003C61.3368 56.9252 61.3546 56.9508 61.3732 56.9763C61.4158 57.0369 61.4569 57.0981 61.498 57.1607C61.5313 57.2112 61.5631 57.2623 61.5948 57.3141C61.7095 57.5005 61.8164 57.6935 61.9148 57.886C61.9575 57.9701 61.9993 58.0535 62.0388 58.1369C62.1434 58.3556 62.238 58.5702 62.3201 58.77C62.5928 59.4327 62.7331 60.127 62.7331 60.826L62.7455 73.6634L62.7532 81.3654H79.2397C79.2397 81.3654 79.1405 80.9664 78.9685 80.2654C78.9615 80.2627 78.9553 80.26 78.9491 80.2573C77.8093 75.8909 73.7088 59.9393 73.7313 56.4792C73.7344 56.2376 73.7561 56.056 73.7987 55.945L73.7995 55.9423C73.8064 55.9255 73.8134 55.9107 73.8212 55.8972C73.8227 55.8945 73.8243 55.8918 73.825 55.8891C73.8336 55.875 73.8428 55.8622 73.8521 55.8521L73.8545 55.8494C73.8862 55.8165 73.9196 55.7842 73.9544 55.7512C73.9668 55.7398 73.98 55.729 73.9924 55.7176C74.0172 55.6954 74.0428 55.6725 74.0691 55.6503C74.0846 55.6375 74.1001 55.6247 74.1164 55.612C74.1419 55.5911 74.1683 55.5696 74.1954 55.5487C74.2125 55.5359 74.2295 55.5225 74.2465 55.5097C74.2744 55.4882 74.3039 55.4666 74.3333 55.4451C74.3504 55.433 74.3674 55.4202 74.3845 55.4081C74.4162 55.3852 74.4496 55.3624 74.4829 55.3388C74.4984 55.328 74.5139 55.3173 74.5301 55.3065C74.5689 55.2796 74.6092 55.2534 74.6495 55.2264C74.6603 55.2197 74.6704 55.2123 74.6812 55.2056C75.9342 54.3861 77.8573 53.4712 78.6655 52.1115C78.7856 51.909 78.8832 51.697 78.9475 51.4737C78.9979 51.3008 79.0398 51.1016 79.0754 50.8823H86.8161C86.961 52.6961 87.3306 54.261 88.1644 54.4063C89.174 54.5826 89.9202 53.8419 90.4199 53.0392C91.0662 54.5173 91.9123 55.9073 94.1888 58.3239C95.2689 59.471 96.0105 60.2851 96.5188 60.8617C96.5327 60.8778 96.5467 60.8933 96.5606 60.9088C96.6257 60.9828 96.6869 61.0527 96.7442 61.1187C96.7652 61.1429 96.7861 61.1671 96.8062 61.19C96.8465 61.2364 96.8845 61.2808 96.9209 61.3239C96.9573 61.3663 96.9922 61.4073 97.0247 61.4456C97.3688 61.8527 97.5168 62.0552 97.5811 62.1521C97.6237 62.2167 97.6284 62.2341 97.6284 62.2341L96.8078 81.364H110.785L110.784 81.3654ZM93.3589 45.4718C93.4047 45.5108 93.445 45.5444 93.4798 45.5727L93.4821 45.5747C93.5542 45.6339 93.5984 45.6682 93.5984 45.6682C93.5984 45.6682 93.5829 45.7113 93.5511 45.7712C93.4907 45.8842 93.3698 46.0571 93.1738 46.1156V45.3103C93.204 45.3372 93.2326 45.3628 93.2613 45.3877L93.2629 45.387C93.2962 45.4173 93.3287 45.4455 93.3589 45.4725V45.4718ZM43.389 39.5607L42.2213 40.251L42.1144 37.2107C42.1144 37.2107 42.9466 35.4137 43.389 33.4223V39.5601V39.5607Z" fill="#1B90FF"/>
<path d="M53.2172 46.7441L59.3704 49.7885C59.3704 49.7885 59.7456 61.7238 55.239 64.9277C51.0209 67.9257 53.2172 46.7441 53.2172 46.7441Z" fill="#340800"/>
<path d="M103.687 41.6416C103.687 41.6416 102.86 53.5455 105.057 54.0191C107.253 54.4927 108.283 49.9324 108.283 49.9324C108.283 49.9324 107.982 43.7651 103.687 41.6416Z" fill="#FF7F4C"/>
<path d="M109.283 40.0893C109.204 40.6795 110 41.64 110.485 42.1633C111.073 41.7773 111.61 41.3135 112.102 40.8134C113.361 39.538 114.488 38.0311 115.167 36.3713C115.234 36.2052 115.285 36.025 115.271 35.8299C112.305 33.9816 109.201 32.1738 109.201 32.1738L105.547 32.9426C105.547 32.9426 105.16 33.6923 105.395 34.9264C105.629 36.1605 109.396 39.2446 109.283 40.0885V40.0893Z" fill="#FFAB92"/>
<path d="M110.589 42.2738C111.336 41.9936 111.752 41.4001 112.103 40.8132C112.107 40.8066 112.115 40.8017 112.12 40.7959C111.887 40.7223 111.712 40.519 111.603 40.2991C111.487 40.0635 111.428 39.8048 111.327 39.5618C111.226 39.3188 111.071 39.0823 110.832 38.9732C110.753 38.9377 110.66 38.9112 110.618 38.8352C110.521 38.6633 110.768 38.3582 110.855 38.221C110.991 38.0078 111.139 37.8003 111.251 37.573C111.324 37.4267 111.129 37.2944 111.016 37.4118C110.869 37.5639 110.72 37.7226 110.676 37.7862C110.442 38.1161 110.088 38.3632 109.729 38.0342C109.597 37.9135 109.504 37.7565 109.391 37.6176C109.322 37.5325 109.243 37.4539 109.185 37.3605C109.139 37.2853 109.107 37.2018 109.069 37.1217C108.881 36.7232 108.55 36.3984 108.401 35.9834C108.211 35.4577 108.433 35.0593 108.556 34.5617C108.63 34.2649 108.673 33.9591 108.67 33.6532C108.668 33.5218 108.648 33.373 108.541 33.2978C108.443 33.23 108.301 33.2548 108.214 33.3358C108.027 33.5094 108.094 33.8442 107.951 34.055C107.841 34.2178 107.627 34.2881 107.436 34.2691C107.258 34.2509 107.111 34.1434 106.996 34.0128C106.727 33.7095 106.597 33.2821 106.448 32.9134C106.429 32.8638 106.409 32.8142 106.388 32.7646L105.545 32.9424C105.545 32.9424 105.158 33.6921 105.393 34.9262C105.628 36.1603 109.394 39.2444 109.281 40.0883C109.202 40.6785 110.102 41.7498 110.587 42.273L110.589 42.2738Z" fill="#FF7F4C"/>
<path d="M113.415 40.3249C113.368 40.3257 113.324 40.3497 113.283 40.3745C113.108 40.4811 112.945 40.6101 112.763 40.7035C112.71 40.7299 112.656 40.7539 112.6 40.7729C112.439 40.9465 112.272 41.1151 112.101 41.2796C111.673 41.6904 111.214 42.0756 110.718 42.4063C110.797 42.4856 110.845 42.5319 110.845 42.5319C110.845 42.5319 110.828 42.589 110.794 42.6675C111.212 43.0684 111.6 43.4999 111.985 43.8801C112.216 44.1091 112.453 44.3347 112.714 44.5323C112.749 44.5588 112.784 44.5835 112.82 44.6075C112.858 44.6331 112.86 44.6364 112.882 44.648C112.876 44.6117 112.868 44.5753 112.858 44.5389C112.814 44.391 112.762 44.2397 112.676 44.1157C112.508 43.8735 112.272 43.695 112.062 43.49C111.842 43.2734 111.643 43.0246 111.6 42.708C111.547 42.3278 111.696 41.9599 112.006 41.7351C112.268 41.545 112.582 41.4532 112.83 41.2449C113.087 41.03 113.311 40.7746 113.489 40.4902C113.507 40.4629 113.523 40.4332 113.52 40.401C113.515 40.3538 113.463 40.3224 113.416 40.3233L113.415 40.3249Z" fill="#FF7F4C"/>
<path d="M107.915 49.3874H53.6653C52.2482 49.3874 51.0999 48.3757 51.0999 47.1274V7.41427C51.0999 6.166 52.2482 5.1543 53.6653 5.1543H108.13C109.357 5.1543 110.351 6.03061 110.351 7.11076V47.2405C110.351 48.4263 109.26 49.3874 107.914 49.3874" fill="#0040B0"/>
<path d="M107.915 48.5606H53.6653C52.2482 48.5606 51.0999 47.5541 51.0999 46.3125V6.80764C51.0999 5.56607 52.2482 4.55957 53.6653 4.55957H108.13C109.357 4.55957 110.351 5.43068 110.351 6.50636V46.4256C110.351 47.6046 109.26 48.5613 107.914 48.5613" fill="white"/>
<path d="M110.351 15.18H51.0999V6.80666C51.0999 5.56509 52.2481 4.55859 53.6652 4.55859H108.13C109.357 4.55859 110.351 5.4297 110.351 6.50464V15.1793V15.18Z" fill="#DF1278"/>
<path d="M87.8982 14.2109C85.8954 13.7229 83.8575 13.3272 81.7975 13.0326C79.6025 12.7194 77.3817 12.5647 75.1609 12.4241C70.9623 12.1578 66.5503 11.9844 62.5863 10.7302C60.153 9.96029 58.1742 8.66367 57.3447 6.61646C57.0749 5.95066 56.9123 5.26032 56.8153 4.55957H53.6643C52.2472 4.55957 51.0989 5.56607 51.0989 6.80764V15.181H91.4363C90.2705 14.8254 89.0899 14.5018 87.8973 14.2117L87.8982 14.2109Z" fill="#9B015D"/>
<path d="M71.1009 48.4635V15.3594" stroke="#DF1278" stroke-width="0.4133" stroke-miterlimit="10"/>
<path d="M89.8938 48.4635V15.3594" stroke="#DF1278" stroke-width="0.4133" stroke-miterlimit="10"/>
<path d="M110.449 25.29H51.1338" stroke="#DF1278" stroke-width="0.4133" stroke-miterlimit="10"/>
<path d="M110.449 37.1133H51.1338" stroke="#DF1278" stroke-width="0.4133" stroke-miterlimit="10"/>
<path d="M68.3679 8.48066C68.9465 8.48066 69.4155 8.06001 69.4155 7.54111C69.4155 7.02221 68.9465 6.60156 68.3679 6.60156C67.7893 6.60156 67.3203 7.02221 67.3203 7.54111C67.3203 8.06001 67.7893 8.48066 68.3679 8.48066Z" fill="#9B015D"/>
<path d="M68.1369 6.62598C67.6695 6.72045 67.3203 7.09389 67.3203 7.54172C67.3203 7.98955 67.6695 8.36299 68.1369 8.45746C68.6044 8.36299 68.9536 7.98955 68.9536 7.54172C68.9536 7.09389 68.6044 6.72045 68.1369 6.62598Z" fill="#0040B0"/>
<path d="M93.2471 8.48066C93.8257 8.48066 94.2947 8.06001 94.2947 7.54111C94.2947 7.02221 93.8257 6.60156 93.2471 6.60156C92.6685 6.60156 92.1995 7.02221 92.1995 7.54111C92.1995 8.06001 92.6685 8.48066 93.2471 8.48066Z" fill="#9B015D"/>
<path d="M93.0162 6.62598C92.5487 6.72045 92.1995 7.09389 92.1995 7.54172C92.1995 7.98955 92.5487 8.36299 93.0162 8.45746C93.4836 8.36299 93.8328 7.98955 93.8328 7.54172C93.8328 7.09389 93.4836 6.72045 93.0162 6.62598Z" fill="#0040B0"/>
<path d="M55.2394 64.3915C55.1824 64.5387 55.1245 64.6899 55.0634 64.8462L55.0675 64.8594C53.2432 69.6214 48.3753 83.338 46.0634 89.4557H30.9738L40.9624 66.8829L40.9674 66.8813L43.2529 61.7026L44.1812 59.6097C44.4631 58.974 44.6871 58.3185 44.854 57.6506C44.854 57.6506 44.9541 54.3632 43.9266 49.9872C42.8991 45.6104 41.9857 43.4794 42.5949 42.566C43.2041 41.6526 44.6118 40.435 44.6118 40.435L45.2475 32.0608C45.2797 31.6376 45.3955 31.2251 45.5897 30.8465C46.3039 29.4545 48.0836 25.9348 48.2051 25.2058C48.3572 24.2924 48.1133 20.9868 48.7986 20.6438C49.4838 20.3007 51.6156 22.3565 51.2354 25.3628C50.8551 28.3692 49.712 31.4144 49.712 31.4144L49.826 35.4102L53.6317 32.632C53.6317 32.632 66.4572 32.708 67.9418 33.7735C69.4263 34.839 67.0664 36.5517 64.5544 36.6277C62.0423 36.7038 59.3402 37.084 58.4268 36.9319C57.5134 36.7798 67.5971 40.7351 68.0716 42.9496C68.546 45.164 67.6764 46.0344 66.015 45.7972C64.3535 45.56 59.8452 44.7689 59.0542 45.0061C58.2631 45.2434 56.9183 46.6676 56.3644 46.6676C55.8106 46.6676 55.2568 48.4076 55.494 50.3063C55.7313 52.205 60.2825 60.9132 55.2386 64.3899L55.2394 64.3915Z" fill="#A93E00"/>
<path d="M39.0738 89.4561C39.1936 88.8139 39.2176 88.1609 39.2887 87.512C39.5226 85.3769 39.9748 83.2748 40.565 81.2108C41.1502 79.1633 42.0033 77.2018 42.705 75.1932C43.058 74.1831 43.3787 73.1614 43.6358 72.1223C43.892 71.0858 44.0904 70.0418 44.3938 69.016C44.9931 66.9875 45.8015 65.0293 46.652 63.0951C46.6636 63.0678 46.6793 63.0463 46.6975 63.0273C46.9033 61.8138 47.2637 60.631 47.4481 59.4126C47.5481 58.7538 47.5919 58.0751 47.5167 57.4114C47.4448 56.7774 47.2819 56.1574 47.1149 55.5432C46.7901 54.3472 46.5281 53.1428 46.3652 51.9128C46.2189 50.8052 46.0817 49.5603 46.5024 48.4965C46.8339 47.6591 47.4472 46.8888 47.5332 45.9811C47.0182 46.2052 46.6033 46.854 46.2908 47.2425C46.0081 47.5938 45.5361 48.2931 44.9922 48.0939C44.3896 47.8732 44.2309 46.7193 44.2739 46.1952C44.3475 45.2959 45.203 44.8719 45.4675 44.0659C45.4824 44.0213 45.4923 43.9593 45.5022 43.8915C45.2774 43.9742 45.0534 43.9998 44.798 44.0543C44.4153 44.1354 43.9706 44.9082 43.563 44.4329C43.3283 44.1593 43.3316 43.5658 43.4109 43.2451C43.5283 42.769 43.8457 42.3565 44.1516 41.9854C44.6699 41.3563 45.2229 40.767 45.8221 40.2156C46.5074 39.5849 47.2075 38.9617 47.806 38.2458C48.087 37.9102 48.4251 37.4796 48.5722 37.0225C48.6433 36.8034 48.3838 36.6174 48.1986 36.7547C47.9209 36.9605 47.6787 37.2217 47.4439 37.4746C47.029 37.9218 46.6206 38.3855 46.0883 38.6955C45.9544 38.7732 45.7263 38.7096 45.699 38.5368C45.5039 37.3085 45.5477 36.0752 45.7676 34.8526C45.9668 33.7442 46.3016 32.6638 46.6909 31.6082C47.0868 30.5361 47.5844 29.5045 47.9366 28.4167C48.6053 26.3511 48.8409 24.1961 48.9302 22.0354C48.9359 21.8907 49.0533 21.7758 49.198 21.7701C50.3577 21.7279 50.5941 23.2183 50.7726 24.0738C50.8652 24.5202 50.9545 25.1971 51.1843 25.7427C51.2025 25.6171 51.2207 25.4914 51.2364 25.3658C51.6166 22.3594 49.4848 20.3037 48.7995 20.6467C48.1143 20.9889 48.3581 24.2953 48.2061 25.2087C48.0845 25.9378 46.3049 29.4574 45.5907 30.8494C45.3964 31.2272 45.2807 31.6397 45.2485 32.0637L44.6128 40.438C44.6128 40.438 43.2043 41.6556 42.5959 42.5689C41.9867 43.4823 42.9001 45.6133 43.9276 49.9902C44.955 54.367 44.855 57.6544 44.855 57.6544C44.688 58.3223 44.464 58.9778 44.1822 59.6134L43.2539 61.7064L40.9683 66.885L40.9634 66.8867L30.9748 89.4594H39.073C39.073 89.4594 39.073 89.4594 39.0738 89.4586V89.4561Z" fill="#8D2A00"/>
<path d="M57.542 40.1557C54.8043 40.2574 52.3451 41.9039 49.6885 42.4917C49.4818 42.5371 49.5372 42.843 49.748 42.8198C50.6597 42.7206 51.583 42.309 52.4551 41.9635C55.4003 40.7955 58.772 40.3574 61.7279 41.4973C63.1265 42.037 64.9161 43.3166 66.4023 43.1174L66.8883 43.0587C64.0771 42.0916 60.5136 40.0449 57.5428 40.1557H57.542Z" fill="#8D2A00"/>
<path d="M56.475 36.2134C56.3618 36.2233 56.2502 36.2473 56.1402 36.2737C54.5755 36.6441 53.1405 37.4178 51.7254 38.1824C50.3491 38.9271 48.9653 39.6768 47.6825 40.5679C47.47 40.7159 47.6626 41.0432 47.8941 40.9267C49.215 40.2654 50.5045 39.4148 51.8155 38.7106C53.8092 37.6393 56.0138 36.3506 58.1017 37.2252C58.3977 37.3491 62.491 39.4537 62.629 39.0032C62.629 39.0032 57.4082 36.1283 56.475 36.2117V36.2134Z" fill="#8D2A00"/>
<path d="M58.7584 43.2406C58.7336 43.2108 58.7046 43.181 58.6666 43.1711C58.574 43.1455 58.4972 43.2439 58.4567 43.3307C58.0492 44.2044 58.1864 45.4178 57.0531 45.7361C56.7522 45.8204 56.4332 45.8072 56.1314 45.7253C55.914 45.6658 55.6991 45.5997 55.4859 45.5261C55.1999 45.4269 54.9411 45.7328 55.085 45.9998L55.0891 46.008C55.2924 46.3874 55.3759 46.9198 54.7742 47.1264C54.6733 47.1611 54.5667 47.176 54.4601 47.1818C54.2137 47.195 53.9666 47.2082 53.7203 47.2215C53.3838 47.2396 53.3408 47.7183 53.6682 47.7968C53.7145 47.8084 53.7608 47.8174 53.8054 47.8249C54.1666 47.8885 54.627 48.1497 54.4559 48.5027C54.389 48.6407 54.2476 48.7275 54.0947 48.7457C54.0236 48.754 53.9319 48.768 53.8285 48.7862C53.5119 48.8416 53.531 49.3037 53.8517 49.3318C54.3923 49.3789 54.9354 49.4111 55.4388 49.3665C55.4776 48.6606 55.9091 47.8265 55.9711 47.1082C55.9818 46.9859 56.0041 46.9528 56.0703 46.8495C56.1339 46.7503 56.2959 46.6652 56.4133 46.6668C56.6993 46.6701 57.8673 45.975 58.4434 45.412C59.0196 44.8491 59.2791 43.8547 58.7575 43.2414L58.7584 43.2406Z" fill="#8D2A00"/>
<path d="M63.8517 33.029C63.8905 33.0257 64.5377 33.7581 64.6526 33.8275C65.0444 34.0639 65.4743 34.1615 65.9297 34.1739C66.6753 34.1937 67.5961 34.1739 68.4277 34.1788C68.7385 34.1805 68.8476 33.773 68.5815 33.6126C67.9251 33.2183 66.5753 32.805 63.8525 33.029H63.8517Z" fill="#340800"/>
<path d="M65.4206 42.478C65.3941 42.4739 65.371 42.497 65.3759 42.5235C65.4032 42.659 65.3834 42.9955 65.4041 43.0583C65.4834 43.2906 65.6595 43.4807 65.8645 43.6105C66.1141 43.7683 66.4059 43.8477 66.6944 43.913C67.1978 44.0271 67.7045 44.1527 68.1938 44.3172C68.1938 44.3172 68.331 42.9079 65.4198 42.478H65.4206Z" fill="#340800"/>
<path d="M48.2049 25.2075C48.5447 25.2075 48.9092 23.761 48.9216 23.3369C48.948 22.4243 48.7637 21.5606 48.7984 20.6455C48.7984 20.6455 47.8139 20.7761 48.2049 25.2075Z" fill="#340800"/>
<path d="M129.145 89.457L125.281 61.3823C124.968 59.9779 120.952 40.6273 120.574 39.6031C120.397 39.1228 117.888 37.4614 115.272 35.8313C115.161 36.2777 114.978 36.7075 114.769 37.115C114.477 37.6829 114.125 38.2194 113.747 38.7343C113.408 39.1972 113.038 39.6312 112.677 40.0759C112.036 40.8637 111.466 41.7539 110.59 42.2747C110.742 42.435 110.845 42.5334 110.845 42.5334C110.845 42.5334 110.627 43.3063 110.08 43.1178C109.532 42.9293 107.387 38.8608 107.387 38.8608C107.387 38.8608 100.789 31.2726 99.0866 34.9956C97.3838 38.7186 102.275 41.9531 103.223 42.9971C104.171 44.0411 105.365 45.8051 106.502 49.2801C107.639 52.7551 107.918 54.5108 111.473 59.1695C115.028 63.8282 115.135 64.3101 115.135 64.3101L114.261 89.4561H129.146L129.145 89.457Z" fill="#FFAB92"/>
<path d="M113.415 40.3257C113.368 40.3266 113.324 40.3505 113.284 40.3753C113.108 40.482 112.946 40.6109 112.763 40.7043C112.58 40.7986 112.369 40.8572 112.169 40.8109C112.15 40.8068 112.132 40.8002 112.115 40.7936C111.671 41.3606 111.206 41.9078 110.591 42.2732C110.744 42.4336 110.846 42.5319 110.846 42.5319C110.846 42.5319 110.829 42.589 110.796 42.6675C111.213 43.0684 111.601 43.4999 111.986 43.8801C112.217 44.1091 112.455 44.3347 112.715 44.5323C112.75 44.5588 112.785 44.5835 112.821 44.6075C112.859 44.6331 112.861 44.6365 112.884 44.648C112.877 44.6117 112.869 44.5753 112.859 44.5389C112.815 44.391 112.763 44.2397 112.677 44.1157C112.509 43.8735 112.273 43.695 112.064 43.49C111.843 43.2734 111.645 43.0246 111.601 42.708C111.548 42.3278 111.697 41.9599 112.007 41.7351C112.269 41.545 112.583 41.4532 112.832 41.2449C113.089 41.03 113.312 40.7746 113.49 40.4902C113.508 40.4629 113.524 40.4332 113.521 40.401C113.516 40.3538 113.464 40.3224 113.417 40.3233L113.415 40.3257Z" fill="#FF7F4C"/>
<path d="M122.461 89.4578C122.535 88.0204 123.109 85.4645 122.909 84.037C122.521 81.2505 121.726 78.5434 121.186 75.7859C120.914 74.398 120.763 72.9903 120.491 71.6016C120.214 70.1881 119.894 68.7697 119.464 67.3942C118.787 65.2285 117.754 63.2067 116.348 61.4245C115.631 60.5161 114.838 59.6697 114.013 58.8588C113.201 58.0603 112.497 57.2494 111.949 56.2418C110.843 54.2042 110.365 51.9038 109.571 49.7422C108.764 47.5418 107.601 45.5398 106.05 43.7808C105.288 42.917 104.466 42.1086 103.645 41.3018C102.865 40.5364 102.041 39.7982 101.449 38.8691C100.983 38.1367 100.689 37.3176 100.693 36.443C100.697 35.6164 100.953 34.8237 101.309 34.0848C100.361 33.8128 99.5455 33.993 99.085 34.9982C97.3823 38.7212 102.273 41.9556 103.221 42.9996C104.169 44.0436 105.364 45.8076 106.5 49.2826C107.637 52.7576 107.916 54.5133 111.472 59.172C115.026 63.8308 115.133 64.3127 115.133 64.3127L114.26 89.4586H122.46L122.461 89.4578Z" fill="#FF7F4C"/>
<path d="M101.426 38.6444L101.99 38.351C102.506 38.0823 102.933 37.6666 103.215 37.1565L103.52 36.6052C103.52 36.6052 101.634 32.6425 99.5067 34.38C97.155 36.301 101.426 38.6444 101.426 38.6444Z" fill="#8D2A00"/>
<path d="M74.8215 62.4568L74.843 89.4552H92.4C92.4 89.4552 85.5111 57.3996 86.6625 55.92C87.814 54.4404 91.432 52.96 92.0892 50.1644C92.7463 47.3689 92.1412 39.5079 91.6717 37.1083C91.2022 34.7087 90.3153 29.5961 88.6464 29.8574C86.9775 30.1186 86.9775 31.318 86.9775 31.318C86.9775 31.318 87.1494 28.1405 85.1548 27.7065C84.7498 27.6189 84.3291 27.7008 83.9736 27.914C83.6182 28.1273 83.1983 28.472 83.1685 28.9183C83.1685 28.9183 82.7511 27.9272 81.5517 28.3968C80.3523 28.8663 80.1432 32.7786 80.1432 32.7786C80.1432 32.7786 78.6305 32.1528 78.1089 33.7696C77.5873 35.3865 76.5441 43.0548 75.7614 44.8808C74.9786 46.7068 74.8744 47.2804 73.7271 48.6369C72.5798 49.9933 71.6928 55.1579 72.8922 56.6706C73.5395 57.4864 74.0495 58.7569 74.3826 59.7546C74.6736 60.6259 74.8223 61.5384 74.8223 62.4568H74.8215Z" fill="#8D2A00"/>
<path d="M91.7881 51.0028C91.5558 51.1739 91.3119 51.3293 91.0631 51.469C90.1795 51.9666 89.0917 52.4733 88.0477 52.4221C87.4335 52.3923 86.8144 52.5039 86.2829 52.8147C86.154 52.8899 86.0159 52.9511 85.8696 52.9924C85.4241 53.118 84.9554 53.0379 84.5173 52.9221C84.2974 52.8643 84.0635 52.8114 83.8527 52.7254C83.6527 52.6436 83.4824 52.5138 83.2906 52.4171C83.1079 52.3253 82.8938 52.284 82.6955 52.3427C82.4681 52.4105 82.2607 52.5336 82.0441 52.6279C81.8143 52.7279 81.582 52.8039 81.3283 52.7932C81.1026 52.7833 80.8786 52.7378 80.6645 52.6651C80.2132 52.5113 79.8065 52.2576 79.4056 52.0063C79.0378 51.7757 78.6617 51.526 78.2393 51.4086C77.8681 51.3053 77.4556 51.3301 77.0829 51.4103C76.758 51.4797 76.434 51.5905 76.0984 51.5409C75.9471 51.5186 75.8074 51.464 75.6776 51.3896C75.5603 51.3218 75.4197 51.4285 75.4602 51.5583C75.6768 52.2551 76.1306 53.6206 76.4844 54.31C76.7026 54.7357 76.92 55.1664 77.1622 55.5797C77.4176 56.0145 77.7755 56.374 78.1723 56.6815C79.0262 57.3428 80.0131 57.8131 80.7877 58.5802C80.9158 58.7075 81.1043 58.9332 81.2084 59.0803C81.2539 59.1448 81.3002 59.2084 81.3489 59.2729C81.9714 60.0912 82.6078 61.4659 81.244 61.8949C80.848 62.0197 80.3578 62.2412 80.381 62.6554C80.3893 62.8041 80.4694 62.938 80.5488 63.0653C80.9753 63.7498 81.4456 64.4292 82.0987 64.9029C83.1013 65.6311 84.0527 65.4443 85.1488 65.1269C85.906 64.907 86.6838 64.7095 87.4137 64.4028C86.702 59.8176 86.3127 56.3691 86.6623 55.9194C87.6923 54.5952 90.6969 53.2693 91.7889 51.002L91.7881 51.0028Z" fill="#340800"/>
<path d="M79.1421 45.4205C79.2124 44.9683 79.2562 44.5129 79.2835 44.0558C79.3215 43.4267 79.3818 42.801 79.4372 42.1736C79.5397 41.0164 79.5935 39.8525 79.7976 38.7068C79.8968 38.1481 80.0415 37.6017 80.2043 37.0586C80.3473 36.5825 80.4961 36.1064 80.5953 35.6187C80.6854 35.1748 80.7342 34.7086 80.6573 34.2589C80.6002 33.9274 80.3159 33.0603 80.1431 32.7793C80.1175 33.7439 79.7348 37.1024 79.6645 37.5562C79.5959 37.9993 79.5587 38.444 79.5207 38.8903C79.4471 39.7674 79.4124 40.6477 79.3686 41.5272C79.324 42.415 79.2702 43.3036 79.1595 44.1864C79.1049 44.6236 79.0371 45.0593 78.9487 45.4907C78.9239 45.6106 78.8983 45.7296 78.8702 45.8478C78.8454 45.952 78.8346 46.0875 78.7718 46.1752C78.7429 46.2157 78.7073 46.2504 78.6776 46.2901C78.623 46.3653 78.5941 46.4579 78.5933 46.5504C78.5924 46.6124 78.5991 46.7265 78.6387 46.7769C78.7123 46.8695 78.847 46.6893 78.8809 46.629C79.081 46.2661 79.0818 45.8222 79.143 45.4221L79.1421 45.4205Z" fill="#340800"/>
<path d="M83.1684 28.9189C83.1494 30.4829 83.3469 33.309 83.4883 35.0978C83.5726 36.1633 83.5164 37.2337 83.3213 38.2851C83.108 39.4333 82.8518 40.9311 82.7981 41.7544C82.7443 42.5835 82.6906 43.4134 82.7195 44.2433C82.7377 44.7566 82.7898 45.279 82.9989 45.7485C83.0287 45.8155 83.0882 45.8932 83.1576 45.8684C83.2006 45.8527 83.2205 45.8031 83.2337 45.7592C83.5792 44.6624 83.7437 43.5258 83.8098 42.3801C83.8437 41.7899 83.8512 41.1981 83.8528 40.6071C83.8545 39.9326 83.8743 39.2589 83.8999 38.586C83.9512 37.2279 84.0272 35.8698 84.0289 34.5101C84.0305 33.247 83.9231 31.979 83.7197 30.7317C83.6519 30.3176 83.3279 28.8975 83.1675 28.9206L83.1684 28.9189Z" fill="#340800"/>
<path d="M87.836 34.7527C87.5393 33.7326 87.3682 32.6986 87.2392 31.6372C87.2095 31.3909 87.2062 31.0768 87.0962 30.8486C86.7193 31.5471 87.0582 34.4369 87.3475 35.3817C87.6468 36.3604 88.0716 37.311 88.1725 38.3393C88.2229 38.8551 88.146 39.3709 88.1022 39.8842C88.0551 40.4372 88.0138 40.991 87.9799 41.5448C87.9468 42.092 87.9204 42.6401 87.9038 43.1873C87.8881 43.7006 87.8989 44.2147 87.879 44.7272C87.8641 45.0967 87.8203 45.4654 87.8236 45.8357C87.8245 45.9382 87.827 46.049 87.8385 46.1606C87.8501 46.2721 88.0113 46.2928 88.0485 46.1845C88.3361 45.3389 88.4494 44.4454 88.494 43.551C88.5196 43.0443 88.5271 42.5367 88.5411 42.03C88.5544 41.539 88.6188 41.0604 88.7122 40.5785C88.8784 39.7255 89.147 38.8286 88.9296 37.964C88.7122 37.0994 88.3254 36.2224 88.0253 35.3511C87.9567 35.1519 87.8939 34.9527 87.836 34.7527Z" fill="#340800"/>
<path d="M89.682 86.5401C88.3942 85.6441 87.1171 86.6575 85.9706 85.5854C83.6321 83.3999 81.869 80.7415 80.7581 77.741C79.4206 74.1271 78.9552 70.2561 78.1898 66.4992C77.8311 64.7369 77.4723 62.9407 76.6846 61.3123C75.9696 59.8335 75.038 58.4713 74.3354 56.9859C73.9957 56.2667 73.708 55.5187 73.5385 54.74C73.3493 53.8696 73.3178 52.9736 73.4013 52.0883C73.5245 50.7847 73.8642 49.5068 74.0692 48.2148C73.9659 48.3479 73.8527 48.4876 73.7262 48.6364C72.5789 49.9929 71.6919 55.1574 72.8913 56.6701C73.5385 57.486 74.0486 58.7565 74.3817 59.7542C74.6726 60.6254 74.8214 61.538 74.8214 62.4563L74.8429 89.4547H92.3999C92.3999 89.4547 92.2941 88.9298 92.1106 88.009C91.255 87.5957 90.445 87.07 89.6829 86.5393L89.682 86.5401Z" fill="#340800"/>
<path d="M79.4305 32.6513C79.4305 32.6513 78.9692 32.8265 78.9114 33.7465C78.8535 34.6665 78.7923 35.3072 78.7923 35.3072H80.1033C80.1033 35.3072 80.4414 32.9613 80.1033 32.7364C79.7652 32.5116 79.4305 32.6513 79.4305 32.6513Z" fill="#340800"/>
<path d="M81.2665 31.2746H82.6164C82.6164 31.2746 83.114 28.513 82.1022 28.4427C80.9938 28.3658 81.2186 30.2464 81.2665 31.2746Z" fill="#340800"/>
<path d="M84.2461 31.1843H86.0877C86.0877 31.1843 86.7672 28.1978 85.3859 28.1226C83.8733 28.0399 84.1799 30.0725 84.2461 31.1843Z" fill="#340800"/>
<path d="M88.1486 32.9553L89.7158 32.5387C89.7158 32.5387 89.6142 29.8266 88.4214 30.0746C87.1154 30.3457 87.8395 32.018 88.1486 32.9553Z" fill="#340800"/>
<rect x="67.3892" y="0.541016" width="1.57647" height="7.88235" rx="0.788235" fill="#00144A"/>
<rect x="92.2" y="0.541016" width="1.57647" height="7.88235" rx="0.788235" fill="#00144A"/>
</svg>
