<svg width="128" height="128" viewBox="0 0 128 128" fill="none" xmlns="http://www.w3.org/2000/svg">
<path d="M49.0352 115.521L1.08182 99.0349C-0.595853 98.4544 -0.230205 95.9917 1.54426 95.9271L76.62 93.1094L122.864 109.488L49.0246 115.532" fill="#1B90FF"/>
<path d="M36.7862 106.693L118.229 99.2837C121.735 99.2837 124.574 96.4446 124.574 92.9386L118.347 27.4232C118.347 23.9172 115.508 21.0781 112.002 21.0781L43.3034 22.089C39.7976 22.089 37.6037 24.2506 36.9583 26.6919L30.2801 100.155C29.6239 104.553 33.2804 106.683 36.7862 106.683V106.693Z" fill="#00144A"/>
<path d="M121.765 39.4219L127.971 103.066C128.283 106.26 125.96 109.196 122.873 109.476L52.9379 115.993C47.9587 116.455 43.7754 113.024 43.4312 108.164L38.6133 41.7663L121.765 39.4219Z" fill="#56BDFF"/>
<path d="M119.97 24.3023L121.734 39.4336L38.7323 43.1547L37.0009 28.0556C36.6029 24.3454 39.7432 21.1083 43.7223 21.0868L114.668 19.6134C117.357 19.5919 119.658 21.6353 119.96 24.3023H119.97Z" fill="#0899A7"/>
<path d="M98.9567 34.255C96.6231 34.3088 94.6658 32.4804 94.6012 30.1684C94.5367 27.8561 96.3864 25.9741 98.7095 25.9418C101.032 25.9096 102.957 27.7271 103.033 30.0069C103.108 32.287 101.28 34.2013 98.9567 34.255Z" fill="#00144A"/>
<path d="M62.7469 35.1565C60.2518 35.2102 58.2086 33.3176 58.1762 30.941C58.144 28.5642 60.155 26.6069 62.6394 26.5746C65.1234 26.5424 67.1345 28.4136 67.1669 30.7795C67.199 33.1455 65.2204 35.1135 62.7469 35.1673V35.1565Z" fill="#00144A"/>
<path d="M95.7946 32.9621C95.7946 32.9621 95.1925 32.4674 94.8696 31.5749C94.4825 30.5102 94.6224 29.7359 94.6224 29.7359C97.526 29.7359 99.1929 27.9829 98.8166 22.2616C98.5799 18.5299 97.569 16.2392 96.6872 15.6262C96.4722 15.4864 96.2139 15.3681 95.6979 15.5294C94.5362 15.8843 93.9449 18.8202 94.1062 20.0355L90.7725 20.1107C90.6755 15.11 92.9985 12.7118 94.6654 12.1956C96.1064 11.7546 97.4831 11.9482 98.6661 12.7548C101.43 14.6583 102.129 19.3902 102.301 22.0358C102.505 25.2728 102.215 32.0911 95.8054 32.9621H95.7946Z" fill="#046C7C"/>
<path d="M59.4354 33.8528C59.4354 33.8528 58.8116 33.3582 58.489 32.4656C58.1019 31.4009 58.1986 30.6266 58.1986 30.6266C61.1022 30.6266 62.8123 28.8736 62.4357 23.1522C62.1993 19.4205 61.1884 17.1298 60.3063 16.5168C60.0913 16.377 59.8333 16.2587 59.317 16.42C58.1556 16.7749 57.5532 19.5711 57.7148 20.7863L54.3916 20.8508C54.2949 15.85 56.6177 13.6024 58.2845 13.0862C59.7258 12.6453 61.1022 12.8388 62.2852 13.6454C65.0492 15.5489 65.748 20.2808 65.9201 22.9264C66.1244 26.1635 65.8556 32.9818 59.4462 33.8528H59.4354Z" fill="#046C7C"/>
<path d="M40.4426 68.0733L40.2168 64.858L67.3178 62.9542L65.6723 42.0049L68.8879 41.7469L70.544 62.7286L97.7955 60.8143L96.1286 40.5422L99.344 40.2734L101.011 60.5885L123.509 59.0075L123.735 62.2232L101.269 63.7933L102.915 83.8714L125.144 82.3121L125.37 85.5277L103.183 87.087L105.151 111.134L101.936 111.403L99.957 87.3129L72.6196 89.2272L74.566 113.984L71.3507 114.242L69.4042 89.453L42.0665 91.3673L41.8407 88.1517L69.1459 86.2374L67.565 66.159L40.4318 68.0625L40.4426 68.0733ZM72.3724 86.0223L99.699 84.108L98.0535 64.0297L70.7914 65.944L72.3724 86.0223Z" fill="white"/>
</svg>
