<svg width="320" height="188" viewBox="0 0 320 188" fill="none" xmlns="http://www.w3.org/2000/svg">
<rect y="32.9497" width="320" height="138" rx="24" fill="#89D1FF"/>
<path d="M110.343 32.9497C110.405 32.9808 110.467 32.981 110.529 32.981C110.56 33.0121 110.607 33.0122 110.654 33.0122C110.716 33.0278 110.779 33.0591 110.841 33.0591C110.887 33.0899 110.918 33.0894 110.965 33.0894C111.074 33.1205 111.167 33.1364 111.261 33.1675C111.307 33.183 111.354 33.2142 111.4 33.2144C111.462 33.2299 111.51 33.2457 111.556 33.2612C111.603 33.2768 111.665 33.3071 111.712 33.3071C111.758 33.3227 111.805 33.3539 111.851 33.354C111.914 33.3696 111.961 33.4165 112.023 33.4165C112.07 33.4321 112.101 33.4634 112.147 33.4634C112.209 33.4789 112.256 33.5248 112.318 33.5249C112.365 33.5405 112.412 33.5718 112.443 33.5718C112.505 33.6028 112.552 33.6188 112.614 33.6499C112.661 33.6654 112.661 33.6658 112.722 33.6968C112.785 33.7279 112.848 33.7584 112.91 33.7896C112.926 33.8051 112.956 33.8363 112.987 33.8364C113.065 33.8831 113.127 33.9147 113.189 33.9458H113.221C113.563 34.1325 113.874 34.3344 114.185 34.5522C114.263 34.5989 114.325 34.6609 114.403 34.7075L114.434 34.7388C114.497 34.7854 114.574 34.8319 114.637 34.894L114.668 34.9253C114.73 34.9875 114.808 35.0341 114.87 35.1118C114.932 35.174 115.01 35.2371 115.072 35.2993C115.585 35.7815 116.037 36.2951 116.441 36.8706C116.659 37.1816 116.861 37.5081 117.032 37.8501C118.059 37.4767 119.164 37.2905 120.253 37.2905H121.046C121.139 37.3216 121.217 37.3218 121.31 37.3218H121.435C121.513 37.3219 121.591 37.3521 121.669 37.3521C121.715 37.3831 121.762 37.3833 121.808 37.3833C121.886 37.3989 121.948 37.4302 122.026 37.4302C122.088 37.4457 122.135 37.477 122.197 37.4771C122.259 37.4926 122.322 37.5238 122.384 37.5239C122.461 37.5395 122.524 37.5853 122.601 37.5854C122.648 37.601 122.695 37.6323 122.742 37.6323C122.866 37.679 122.975 37.7107 123.099 37.7573C125.962 38.7841 128.187 41.413 128.747 44.4155C129.214 46.9514 128.669 49.9388 130.24 51.9146C132.123 52.0857 134.83 52.5835 138.019 53.9214C138.05 53.9369 138.097 53.967 138.128 53.9673H138.175C141.893 54.1695 144.957 57.0947 145.347 60.7817C146.171 62.2286 146.716 63.5047 147.198 64.2515C148.489 66.2427 148.489 66.5073 148.489 66.5073C148.691 69.5408 149.236 73.3676 149.734 76.6655C150.232 79.9637 151.944 81.0689 153.141 82.8735C154.355 84.6793 161.962 99.0069 166.567 104.918C171.187 110.83 176.896 125.935 177.892 129.047C178.748 131.692 179.682 135.582 176.197 138.538C176.104 138.631 176.01 138.709 175.901 138.787C175.792 138.864 175.699 138.942 175.591 139.02H175.559C175.45 139.098 175.341 139.16 175.232 139.238C175.203 139.267 175.174 139.269 175.171 139.269C175.062 139.347 174.952 139.409 174.844 139.471H174.812C174.688 139.533 174.579 139.611 174.455 139.673L174.688 139.969L174.657 140.187C174.641 140.203 174.61 140.234 174.579 140.234C174.532 140.265 174.486 140.296 174.424 140.327C174.439 140.576 174.439 140.809 174.392 141.027V141.229C174.361 141.245 174.361 141.292 174.361 141.292C174.33 141.323 174.33 141.354 174.33 141.354C174.301 141.383 174.299 141.412 174.299 141.416C174.299 141.445 174.271 141.475 174.268 141.478L174.128 141.619C173.957 141.79 173.692 141.93 173.319 142.054C173.273 142.085 173.241 142.084 173.194 142.084C173.148 142.116 173.117 142.116 173.07 142.116H173.039C172.992 142.147 172.961 142.147 172.915 142.147H172.884C172.837 142.178 172.805 142.178 172.759 142.178H172.727C172.696 142.209 172.65 142.209 172.603 142.209H170.316C170.036 142.241 169.741 142.241 169.414 142.241C163.331 142.334 153.81 136.453 149.672 134.306C149.61 134.275 149.532 134.229 149.47 134.198C149.423 134.167 149.361 134.151 149.314 134.12C149.299 134.09 149.27 134.088 149.267 134.088C149.221 134.057 149.159 134.041 149.112 134.01H149.065C149.019 133.979 148.987 133.949 148.94 133.949C148.926 133.919 148.883 133.918 148.879 133.917C148.848 133.886 148.832 133.886 148.801 133.886C148.769 133.871 148.722 133.839 148.691 133.839H148.661C148.63 133.808 148.583 133.777 148.536 133.777H148.505C148.458 133.761 148.412 133.731 148.381 133.731C148.334 133.715 148.302 133.684 148.256 133.684H148.224C148.147 133.653 148.084 133.622 148.022 133.622C147.587 133.528 147.135 133.373 146.684 133.186C146.451 133.093 146.218 132.983 146 132.875C145.875 132.812 145.735 132.735 145.611 132.672C145.238 132.455 144.864 132.237 144.522 132.003C144.413 131.926 144.304 131.848 144.195 131.77C143.542 131.303 143.013 130.837 142.671 130.479C142.624 130.417 142.562 130.37 142.515 130.324C141.613 129.515 140.384 129.561 141.178 132.408C141.909 135.068 141.722 143.547 141.333 153.55V153.613C141.317 154.033 141.286 154.453 141.286 154.874V154.935C141.27 155.34 141.24 155.744 141.24 156.149V156.32C141.225 156.724 141.193 157.129 141.193 157.534V157.58C141.115 159.602 141.068 161.267 141.037 162.652V164.97C141.053 169.357 141.38 169.466 141.38 169.466C141.411 169.559 141.427 169.638 141.458 169.715V169.761C141.473 169.823 141.519 169.901 141.519 169.963V170.042C141.535 170.088 141.566 170.15 141.566 170.212C141.597 170.244 141.597 170.275 141.597 170.306C141.613 170.368 141.644 170.415 141.644 170.477C141.675 170.508 141.676 170.555 141.676 170.586C141.691 170.648 141.722 170.695 141.722 170.757C141.753 170.804 141.753 170.835 141.753 170.881C141.753 170.902 141.76 170.926 141.766 170.95H75.4168C75.4871 170.524 75.5704 170.091 75.6649 169.653C75.696 169.513 75.7275 169.357 75.7586 169.202C75.8675 168.673 76.0072 168.128 76.1317 167.568C76.1628 167.412 76.2099 167.257 76.241 167.101C76.272 167.055 76.2723 167.008 76.2723 166.961C76.3034 166.806 76.3496 166.635 76.3807 166.479C76.4118 166.323 76.4589 166.168 76.4901 166.012C76.5523 165.748 76.6144 165.468 76.6766 165.188C76.7388 164.924 76.8008 164.659 76.8475 164.394C76.9564 163.865 77.0656 163.32 77.1434 162.76C77.1745 162.527 77.2051 162.294 77.2362 162.061C77.2517 161.937 77.283 161.827 77.283 161.703C77.3764 160.863 77.4539 159.992 77.4539 159.105C77.4695 158.203 77.4389 157.284 77.3455 156.32C77.2522 155.511 77.1279 154.655 76.9412 153.784C76.599 152.181 76.0696 150.486 75.2762 148.697C75.214 148.572 75.1675 148.448 75.1053 148.308V148.246C75.0431 148.106 74.9811 147.966 74.9344 147.826V147.794C73.6587 144.45 72.6004 139.238 71.6981 133.466C69.1312 132.144 66.6733 130.106 64.5887 127.788C64.5109 127.694 64.4331 127.601 64.3553 127.507C64.3242 127.476 64.3082 127.446 64.2772 127.415C64.2151 127.352 64.1685 127.275 64.1219 127.212C64.0908 127.166 64.0749 127.134 64.0438 127.087C64.0127 127.01 63.9663 126.947 63.9197 126.885C63.8887 126.854 63.8726 126.808 63.8416 126.761C63.795 126.699 63.7477 126.621 63.7166 126.559C63.6855 126.512 63.6706 126.465 63.6395 126.418C63.6084 126.341 63.5612 126.278 63.5301 126.201C63.5145 126.154 63.4687 126.108 63.4686 126.061C63.4375 125.983 63.3903 125.905 63.3592 125.828C63.3281 125.797 63.2967 125.749 63.2967 125.703C63.2656 125.609 63.2194 125.531 63.1883 125.438C63.1727 125.407 63.1414 125.361 63.1414 125.33C63.0948 125.205 63.0484 125.096 63.0018 124.972V124.941C62.9084 124.676 62.8149 124.396 62.7371 124.116V124.039C62.706 123.93 62.6745 123.82 62.6434 123.696C62.6126 123.665 62.6121 123.618 62.6121 123.587C62.581 123.479 62.5661 123.369 62.535 123.26C62.504 123.229 62.5037 123.183 62.5037 123.152C62.4726 123.043 62.4256 122.918 62.4256 122.809V122.701C62.41 122.576 62.3631 122.467 62.3631 122.342V122.25C62.3475 122.125 62.3016 122 62.3016 121.86V121.798C61.3059 114.938 63.0946 106.443 63.0946 103.954C63.0946 101.464 63.9973 95.6458 70.1424 93.8101C71.7447 93.3434 73.1604 93.1255 74.3738 93.1255H76.0848C76.147 93.1566 76.2101 93.1567 76.2723 93.1567H76.3494C76.4895 93.1723 76.599 93.2192 76.7235 93.2192H76.8319C76.894 93.2503 76.9407 93.2505 77.0028 93.2505H77.0965C77.1586 93.2505 77.2053 93.2817 77.2674 93.2817H77.3143C77.4232 93.2973 77.5326 93.3278 77.6414 93.3589H77.7186C77.7652 93.3744 77.8125 93.4058 77.8592 93.4058C77.8901 93.4366 77.9054 93.437 77.9363 93.437C77.983 93.4526 78.0303 93.4839 78.077 93.4839H78.1229C78.2006 93.515 78.2942 93.5456 78.3719 93.5767H78.4344C78.4655 93.5922 78.5127 93.6235 78.5438 93.6235C78.5588 93.6533 78.6019 93.6547 78.6053 93.6548C78.652 93.6703 78.6836 93.7017 78.7147 93.7017H78.7615C78.8236 93.7326 78.8859 93.7478 78.9324 93.7788C78.9634 93.8098 78.9633 93.8101 78.994 93.8101C79.025 93.8101 79.0411 93.8412 79.0721 93.8413C79.1032 93.8724 79.1346 93.8726 79.1346 93.8726C79.1502 93.9036 79.1971 93.9038 79.1971 93.9038C79.2278 93.9345 79.2279 93.9351 79.2586 93.9351C79.2897 93.9351 79.3367 93.9663 79.3367 93.9663C80.1301 93.6707 80.9389 93.3899 81.7322 93.1099C81.9811 92.7988 82.2305 92.4882 82.4793 92.1616C82.6815 91.8972 82.8835 91.6477 83.0858 91.3833C83.1169 91.3211 83.1641 91.2746 83.2108 91.2124V91.1812C83.3508 90.9945 83.5063 90.7916 83.6463 90.605C83.6928 90.5584 83.7237 90.5119 83.7547 90.4653C83.7703 90.4342 83.8016 90.4028 83.8016 90.4028C83.9415 90.2162 84.0816 90.0142 84.2215 89.8276C84.2526 89.781 84.2998 89.719 84.3309 89.6724C84.4865 89.4701 84.6264 89.2672 84.7664 89.0649C84.7821 89.034 84.8287 89.0031 84.8289 88.9722V88.9409C84.9689 88.7232 85.1245 88.521 85.2645 88.3032C85.28 88.2721 85.3104 88.2562 85.3104 88.2251C85.4659 88.0073 85.6215 87.7739 85.7615 87.5562C85.7927 87.5562 85.7928 87.5249 85.7928 87.5249C85.9484 87.2915 86.0884 87.0581 86.244 86.8247C86.3995 86.5758 86.5551 86.3422 86.6951 86.1089C86.8973 85.7823 87.1004 85.4404 87.3026 85.1138C87.3803 84.9583 87.4729 84.8025 87.5662 84.647C87.5818 84.6314 87.6131 84.5845 87.6131 84.5845C87.9865 83.9467 88.3293 83.3397 88.6404 82.7485C89.3559 81.442 89.9159 80.2755 90.3514 79.3267C89.5424 78.9222 88.8266 78.3303 88.2977 77.5991C86.8355 75.5767 86.8667 72.605 88.3602 70.6138C86.7112 68.8091 85.6689 66.4292 85.4666 63.9712C85.4199 63.5823 85.4197 63.5042 85.4197 62.7886C85.4197 62.073 85.0773 61.404 84.4862 60.9995C82.0749 59.3349 80.5038 56.5658 80.5037 53.4233C80.5037 52.0387 80.8147 50.7317 81.3592 49.5649C81.4525 49.3784 81.4367 49.1764 81.3279 49.0054C79.6478 46.2984 80.7523 42.5331 83.1014 40.3706C85.4505 38.2082 88.7021 37.3521 91.8602 36.9009C92.3113 36.8231 92.7473 36.621 93.0584 36.2632C94.3341 34.8164 96.2014 33.8989 98.286 33.8989C99.7016 33.899 101.009 34.3192 102.113 35.0503C103.155 34.6614 104.166 34.2097 105.193 33.8208C105.317 33.7897 105.426 33.7434 105.551 33.6968C105.582 33.6657 105.598 33.6655 105.629 33.6655C105.738 33.6344 105.831 33.5873 105.94 33.5562C105.971 33.5254 106.018 33.5249 106.049 33.5249C106.142 33.4938 106.236 33.4632 106.329 33.4321C106.375 33.4166 106.422 33.3854 106.469 33.3853C106.546 33.3542 106.64 33.3072 106.718 33.3071C106.78 33.2916 106.826 33.2614 106.888 33.2612C106.966 33.2302 107.029 33.1988 107.106 33.1987C107.168 33.1832 107.247 33.1519 107.309 33.1519C107.371 33.1363 107.434 33.105 107.496 33.105C107.589 33.0894 107.667 33.0591 107.761 33.0591C107.807 33.028 107.854 33.0278 107.9 33.0278C108.04 33.0123 108.165 32.981 108.305 32.981C108.398 32.9498 108.507 32.9497 108.616 32.9497H110.343ZM130.396 73.2593C130.381 73.4459 130.349 73.6479 130.318 73.8345V73.9595C130.225 74.5971 130.116 75.2193 129.992 75.8569V75.9507C129.868 76.604 129.727 77.2416 129.587 77.8794V77.9263C129.431 78.5795 129.276 79.233 129.105 79.8862C128.701 81.4575 128.249 83.0131 127.766 84.5532C127.066 86.809 126.694 89.4078 124.982 91.0103C122.789 93.0793 117.561 93.4522 117.234 93.7944C118.479 96.1125 119.817 98.6333 119.817 98.6333C119.844 98.643 122.808 99.6992 125.677 100.274L125.651 100.236C128.545 100.811 131.548 100.422 131.548 100.422C131.582 100.421 134.468 100.33 136.386 100.422C138.315 100.516 141.224 102.849 142.764 103.518C144.316 104.186 147.2 107.748 147.214 107.765C147.214 107.765 150.217 109.695 150.886 110.566C151.566 111.416 152.998 111.237 153.016 111.235C153.592 111.639 154.183 112.028 154.774 112.402C154.261 110.317 153.872 108.575 153.546 107.439C153.032 105.634 151.943 103.192 150.558 100.438C149.252 97.8555 147.68 94.9929 146.062 92.146C144.818 89.9368 143.386 88.2093 142.017 86.8247C141.691 86.4982 141.349 86.1719 141.022 85.8765L140.975 85.8296C140.789 85.6585 140.586 85.487 140.399 85.3159C139.964 84.9271 139.528 84.5849 139.124 84.2583C138.922 84.1028 138.735 83.9471 138.549 83.8071C137.724 83.1693 137.039 82.6401 136.588 82.189C135.981 81.5978 135.094 80.3686 134.161 79.0151C134.005 78.7973 133.85 78.5639 133.694 78.3306L133.227 77.6304C133.15 77.5215 133.072 77.3974 132.994 77.2886C132.449 76.4796 131.952 75.686 131.516 75.0015C131.454 74.9081 131.392 74.8145 131.33 74.7212C131.159 74.4413 130.987 74.1772 130.847 73.9595C130.661 73.6641 130.505 73.4304 130.396 73.2593ZM124.873 68.187C124.671 69.9294 124.266 72.3101 123.815 74.7993C123.784 74.8615 123.784 74.9237 123.784 74.9858C123.722 75.297 123.675 75.5927 123.613 75.9038C123.582 75.966 123.582 76.0281 123.582 76.0903C123.52 76.3859 123.473 76.6815 123.411 76.9771C123.411 77.0392 123.38 77.1014 123.38 77.1636C123.317 77.4591 123.271 77.7704 123.209 78.0659C123.131 78.4392 123.069 78.8284 122.991 79.2017C122.96 79.3728 122.928 79.5442 122.897 79.7153C122.757 80.3997 122.633 81.0531 122.509 81.6753C122.493 81.7686 122.446 81.8622 122.446 81.9399V82.0181C122.431 82.0801 122.399 82.1268 122.399 82.189C122.368 82.2046 122.369 82.2361 122.369 82.2671V82.3442C122.338 82.3754 122.338 82.4069 122.338 82.438C122.307 82.4689 122.306 82.4843 122.306 82.5151V82.562C122.291 82.6241 122.244 82.671 122.244 82.7485C122.213 82.8263 122.181 82.9042 122.15 82.9819V83.0132L122.057 83.1997V83.2466C122.042 83.2777 122.011 83.3092 122.011 83.3403L121.964 83.4331V83.4644C121.761 83.8377 121.513 84.1806 121.249 84.4917C121.156 84.5849 121.077 84.6778 120.984 84.771C120.891 84.8643 120.797 84.9579 120.704 85.0356C120.673 85.0668 120.626 85.0983 120.595 85.1294C119.055 86.9025 117.033 87.1978 116.021 87.229H115.85C115.702 87.2588 115.623 87.2602 115.617 87.2603H115.368V88.3804C115.368 88.4737 115.337 88.5829 115.337 88.6763V89.4077C115.306 89.6099 115.274 89.8277 115.243 90.0454V90.2476C115.321 90.3565 115.414 90.5121 115.523 90.7144L115.353 90.7446C116.045 90.8468 117.12 90.9449 119.319 90.6206C125.075 89.7961 125.449 84.9273 126.709 82.0024C127.269 80.7112 127.627 79.4659 127.86 78.2524C128.358 75.6545 128.218 73.1963 128 70.645C127.518 70.1007 127.176 69.7114 127.176 69.7114C127.155 69.7046 125.722 69.2371 124.873 68.187ZM132.59 69.4009C132.73 69.5875 132.869 69.7434 132.978 69.8989C133.289 70.3034 133.476 70.5679 133.476 70.5679C133.507 70.6145 133.555 70.6609 133.586 70.7075C133.616 70.7078 133.616 70.7388 133.616 70.7388C133.632 70.7698 133.663 70.8005 133.694 70.8315L133.725 70.8628C133.803 70.9405 133.881 71.0185 133.943 71.0962C133.974 71.1273 134.006 71.1432 134.037 71.1743C134.099 71.2209 134.177 71.2674 134.239 71.314C134.535 71.5006 134.814 71.5167 135.063 71.439H135.095L135.25 71.4702C135.468 71.408 135.67 71.2517 135.872 71.0806C135.903 71.0494 135.95 71.003 135.95 70.9097V69.1987C134.675 69.1521 133.197 68.9031 132.03 68.7319C132.232 68.9652 132.419 69.1987 132.59 69.4009ZM90.2889 70.4897C90.2734 70.4742 90.2583 70.4582 90.2274 70.4272C90.1963 70.3962 90.1647 70.3655 90.1336 70.3345L90.2889 70.4897Z" fill="#1B90FF"/>
<path d="M188.103 38.771C187.999 37.7229 187.824 36.605 187.143 35.8015C186.461 34.998 185.099 34.6662 184.348 35.3823L184.854 35.9762C184.121 45.4085 187.44 52.2033 183.702 60.902C182.182 64.4653 181.71 70.3867 174.723 71.3998C168.854 72.2557 169.553 70.7361 167.317 71.854C166.881 72.0636 166.461 72.3955 166.322 72.8496C166.13 73.426 166.427 74.0549 166.793 74.5614C168.47 76.8671 169.763 77.3736 171.719 75.3125C172.121 74.8933 178.479 74.4391 181.151 71.9239C183.23 69.9675 183.684 66.8059 184.54 64.0636C187.108 55.8889 188.977 47.3125 188.121 38.771H188.103Z" fill="#046C7C"/>
<path d="M185.082 56.3432C185.256 56.71 185.431 57.0593 185.623 57.4261C185.798 57.758 185.972 58.0724 186.147 58.4043C187.806 51.9763 188.767 45.3737 188.103 38.7886C187.999 37.7405 187.824 36.6226 187.143 35.8191C186.461 35.0156 185.099 34.6837 184.348 35.3999L184.854 35.9938C184.261 43.7143 186.357 49.6707 185.099 56.3432H185.082Z" fill="#00144A"/>
<path d="M179.754 16.8671C177.518 10.1422 168.208 3.9064 161.012 8.15095C153.99 12.2907 143.37 13.5134 141.78 34.5789C141.675 34.8759 141.571 35.1903 141.501 35.4872C140.977 33.9676 139.282 30.1772 135.667 32.0811C131.195 34.4392 135.44 44.2209 138.025 46.1073C138.654 46.5615 139.894 48.0287 141.623 49.9851C141.85 56.1335 142.06 61.4261 142.06 61.4261L143.457 80.0113C143.457 80.0113 161.99 88.7449 164.592 88.7449C167.195 88.7449 169.588 68.7274 169.763 67.2951H170.077C170.077 67.2951 170.252 67.2951 170.549 67.2253C171.789 67.1903 174.252 66.841 176.121 64.675C177.256 63.6794 178.199 62.317 178.566 60.4654C179.737 54.4567 181.518 45.3737 181.623 42.0724C181.745 38.7711 181.972 23.5746 179.737 16.8497H179.754V16.8671Z" fill="#FFAB92"/>
<path d="M151.37 83.4696C150.287 81.8626 149.326 80.1857 148.575 78.3866C147.981 76.9543 147.492 75.3647 147.597 73.7927C147.702 72.2905 148.505 70.701 150.095 70.3516C151.143 70.1071 152.208 70.3167 153.256 70.2468C153.64 70.2468 154.077 70.1595 154.374 69.915C154.741 69.618 155.09 69.1115 155.02 68.6049C154.95 68.1333 154.601 67.6966 154.287 67.3647C153.885 66.9106 153.413 66.5263 152.977 66.1071C151.929 65.0765 154.252 58.9106 153.239 57.8451C151.212 55.6791 148.802 57.7752 147.143 55.3123C146.357 54.1595 142.828 53.6704 142.06 52.5176C141.937 52.3429 141.815 52.1507 141.693 51.9761C141.885 57.2337 142.06 61.4433 142.06 61.4433L143.457 80.0285C143.457 80.0285 147.178 81.7927 151.527 83.7141C151.475 83.6268 151.422 83.5569 151.352 83.4696H151.37Z" fill="#FF7F4C"/>
<path d="M179.754 16.8671C177.518 10.1422 168.208 3.9064 161.012 8.15095C153.99 12.2907 143.37 13.5134 141.78 34.5789C141.675 34.8759 141.571 35.1903 141.501 35.4872C140.977 33.9676 139.282 30.1772 135.667 32.0811C133.012 33.4785 133.833 38.2995 135.143 41.723C138.811 43.592 141.658 45.461 144.627 48.3082C147.667 51.2078 150.426 54.3868 153.134 57.6008C153.204 57.6881 153.239 57.758 153.256 57.8453C154.916 60.4305 156.68 62.9632 158.584 65.3912C161.553 69.1467 164.837 72.6925 168.558 75.7143C169.239 71.5571 169.71 67.889 169.78 67.3126H170.095C170.095 67.3126 170.269 67.3126 170.566 67.2427C171.806 67.2078 174.269 66.8584 176.138 64.6925C177.274 63.6969 178.217 62.3344 178.584 60.4829C179.754 54.4741 181.536 45.3912 181.641 42.0899C181.763 38.7885 181.99 23.592 179.754 16.8671Z" fill="#FF7F4C"/>
<path d="M177.256 61.391C175.405 60.9194 173.431 60.867 171.527 60.9368C167.649 61.0591 163.667 61.8801 160.261 63.8015C160.33 64.9543 161.064 66.0373 161.798 66.8932C162.531 67.7665 163.387 68.5526 164.365 69.1639C165.466 69.8451 166.619 70.4565 167.806 70.963C168.261 71.1552 168.732 71.3473 169.221 71.5045C169.536 69.3037 169.745 67.6967 169.78 67.3299H170.095C170.095 67.3299 170.269 67.3299 170.566 67.26C171.806 67.2251 174.269 66.8757 176.138 64.7098C177.012 63.9412 177.763 62.963 178.234 61.7054C177.92 61.6006 177.606 61.4958 177.274 61.4084V61.3735L177.256 61.391Z" fill="#A93E00"/>
<path d="M142.863 69.5483C142.863 69.5483 111.317 78.8235 111.859 82.5265C112.383 86.2296 115.038 128.902 120.61 141.618C126.182 154.334 121.413 162.824 120.61 169.968C119.806 177.129 119.073 185.933 120.924 187.051L202.13 187.016C202.13 187.016 202.601 173.147 200.558 167.051C200.558 167.051 199.772 166.806 200.365 152.588C200.959 138.369 201.396 125.601 200.365 121.933C199.335 118.265 201.082 118.404 202.182 119.592C203.282 120.762 206.077 122.824 208.715 123.4C211.352 123.994 224.483 133.486 233.287 133.346C242.09 133.207 240.103 131.906 241.274 128.326C242.444 124.727 224.261 101.845 224.261 101.845C224.261 101.845 220.47 99.9763 216.837 97.6008C213.204 95.2252 215.09 96.6925 214.13 96.5178C213.169 96.3431 213.082 96.2034 212.715 95.7492C212.348 95.2951 211.282 94.4567 210.322 93.758C209.361 93.0593 207.754 91.7143 206.654 90.5091C205.553 89.3038 203.894 87.6444 202.828 87.1903C200.942 86.3693 197.413 83.5396 195.073 83.4173C192.732 83.2951 189.186 83.4173 189.186 83.4173C189.186 83.4173 185.536 83.889 182.007 83.1903C178.479 82.4916 174.828 81.199 174.828 81.199C174.828 81.199 169.885 71.7492 169.309 70.9108C167.841 75.9588 169.78 78.247 164.592 80.8322C159.422 83.4173 142.863 69.5483 142.863 69.5483Z" fill="#0070F2"/>
<path d="M113.833 103.819C115.143 99.7492 117.064 95.8715 119.684 92.4829C121.134 90.5964 122.776 88.8671 124.592 87.3475C126.601 85.6532 128.785 84.2732 131.09 83.0505C133.536 81.758 136.051 80.6401 138.549 79.4697C140.907 78.3693 143.335 77.3038 145.448 75.7842C146.392 75.1029 147.23 74.3518 148.016 73.5483C145.012 71.3649 142.863 69.5483 142.863 69.5483C142.863 69.5483 111.317 78.8235 111.859 82.5265C112.086 84.1335 112.715 93.1291 113.815 103.802H113.833V103.819Z" fill="#00144A"/>
<path d="M130.374 163.68C131.719 162.789 133.186 162.108 134.688 161.566C135.859 161.147 137.081 160.78 138.304 160.553C139.282 160.378 140.278 160.343 141.274 160.291C142.234 160.239 143.23 160.169 144.156 159.924C144.732 159.767 145.239 159.557 145.588 159.156C143.964 158.37 142.199 157.933 140.453 157.514C138.514 157.042 136.592 156.535 134.811 155.627C132.068 154.23 129.815 152.134 127.929 149.723C126.042 147.313 126.112 147.243 125.221 145.985C124.313 144.675 123.387 143.383 122.461 142.09C121.221 140.326 119.998 138.527 118.916 136.658C119.44 138.597 119.999 140.291 120.592 141.636C126.164 154.352 121.396 162.841 120.592 169.985C119.789 177.147 119.003 185.496 120.854 186.614C120.942 186.667 121.186 186.719 121.571 186.754C121.571 186.404 121.571 186.055 121.64 185.723C121.763 184.798 122.199 183.977 122.811 183.278C123.37 182.632 124.033 182.108 124.523 181.409C124.942 180.798 125.309 180.151 125.658 179.505C127.055 176.832 128.33 173.688 131.212 172.291C132.767 171.54 134.601 171.365 136.313 171.33C138.112 171.295 139.911 171.47 141.71 171.645C144.942 171.942 148.505 172.343 151.527 170.946C150.898 169.915 149.571 169.391 148.418 169.094C146.985 168.71 145.483 168.57 144.016 168.466C143.37 168.413 142.723 168.378 142.095 168.308C141.378 168.239 140.645 168.099 139.946 167.959C138.182 167.627 136.435 167.243 134.723 166.701C133.151 166.195 131.544 165.566 130.269 164.483C129.99 164.256 130.112 163.819 130.374 163.645V163.68Z" fill="#00144A"/>
<path d="M164.121 80.9893C164.365 81.9151 164.802 82.7884 165.309 83.6094C166.007 84.7448 166.828 85.7753 167.702 86.7535C169.466 88.6924 171.544 90.5264 173.937 91.6443C174.916 92.0985 175.824 92.3081 176.889 92.2208C177.169 92.2208 177.466 92.1684 177.728 92.0461C177.728 92.0461 177.728 92.0112 177.693 91.9937C177.693 91.9937 177.641 91.9238 177.623 91.9238C177.448 91.7317 177.274 91.5745 177.064 91.4173C176.138 90.6836 175.073 90.0723 174.112 89.3387C172.575 88.1684 171.3 86.7186 169.868 85.4435C169.501 85.1116 169.099 84.8321 168.75 84.5177C168.523 84.3256 168.348 84.081 168.156 83.8539C167.684 83.295 167.23 82.7011 166.758 82.1421C166.287 81.5832 165.798 81.0242 165.221 80.5876C165.186 80.5876 165.169 80.5526 165.151 80.5352C164.959 80.64 164.785 80.7273 164.592 80.8321C164.4 80.9369 164.121 81.0068 164.121 81.0068V80.9893Z" fill="#00144A"/>
<path d="M195.702 181.95C195.911 182.072 196.156 182.16 196.383 182.16C197.274 182.16 198.025 181.077 198.601 180.448C198.951 180.081 199.317 179.697 199.789 179.487C200.208 179.295 200.68 179.208 201.134 179.208C201.588 179.208 201.815 179.26 202.13 179.365C201.99 175.19 201.606 170.195 200.575 167.085C200.575 167.085 199.789 166.841 200.383 152.623C200.47 150.422 200.558 148.273 200.645 146.16C200.592 146.282 200.54 146.404 200.488 146.526C199.282 149.269 197.833 151.906 196.592 154.631C195.195 157.688 193.903 160.815 192.662 163.941C191.457 166.998 190.339 170.09 189.099 173.129C188.54 174.509 187.929 175.872 187.457 177.286C187.143 178.23 186.881 179.225 186.811 180.221C188.068 178.771 188.977 176.797 189.85 175.051C190.881 173.042 191.876 170.963 193.274 169.164C194.287 167.871 195.772 166.527 197.553 166.928C199.213 167.295 199.51 169.216 199.457 170.631C199.387 172.518 198.898 174.404 198.304 176.186C198.06 176.937 197.78 177.688 197.448 178.404C197.116 179.138 196.645 179.732 196.173 180.378C195.911 180.745 195.544 181.251 195.51 181.618V181.758C195.51 181.688 195.51 181.758 195.51 181.793C195.544 181.863 195.614 181.915 195.702 181.968V181.95Z" fill="#00144A"/>
<path d="M148.697 86.5267C147.614 86.3695 146.549 85.9503 145.571 85.4961C143.876 84.7276 142.322 83.7319 140.907 82.5442C140.4 82.1249 139.911 81.7057 139.387 81.3389C140.54 82.7363 141.518 84.2909 142.584 85.7407C143.702 87.2429 144.924 88.8149 146.496 89.8629C147.876 90.7712 149.326 90.9808 150.776 90.0725C151.789 89.4263 152.627 88.5005 153.431 87.6271C154.287 86.7014 155.178 85.828 156.243 85.1468C157.309 84.483 158.339 83.7843 159.23 82.8935C160.121 82.0027 160.138 81.8629 160.453 81.269C159.247 82.2123 158.042 83.138 156.75 83.9765C155.125 85.0245 153.361 85.9852 151.457 86.4044C150.549 86.5966 149.64 86.6664 148.715 86.5442H148.697V86.5267Z" fill="#00144A"/>
<path d="M125.815 75.5048C125.815 75.5048 121.745 72.6227 114.269 74.841C106.793 77.0768 105.693 84.1685 105.693 87.1729C105.693 90.1773 101.675 109.618 107.579 116.186C113.483 122.754 121.885 127.47 128.575 123.662C128.575 123.662 129.623 122.998 131.597 116.308C133.571 109.618 138.549 99.5048 138.549 99.5048C138.549 99.5048 134.357 102.789 122.269 91.8891L118.601 88.7275C118.601 88.7275 127.789 90.1598 127.387 85.4436C126.985 80.7275 125.815 75.4698 125.815 75.4698V75.5048Z" fill="#0070F2"/>
<path d="M118.881 88.5176C118.881 88.6398 118.584 88.6399 118.479 88.7621C117.431 89.9848 116.732 91.8538 115.771 93.1464C114.252 95.225 112.819 97.3735 111.44 99.5394C110.846 100.483 110.269 101.443 109.833 102.456C109.588 103.015 109.378 103.627 109.291 104.238C109.518 103.994 109.693 103.714 109.833 103.435C110.182 102.841 110.461 102.212 110.863 101.653C111.387 100.937 111.946 100.238 112.54 99.5744C113.151 98.8931 113.833 98.2643 114.426 97.5831C114.898 97.0591 115.335 96.5001 115.894 96.0634C116.173 95.8538 116.47 95.6966 116.802 95.5918C117.099 95.5045 117.518 95.4171 117.798 95.5918C118.042 95.7141 118.077 95.9586 118.252 96.1333C118.304 96.1857 118.252 96.2032 118.374 96.1333C118.566 95.9936 118.706 95.749 118.846 95.5569C119.02 95.3298 119.195 95.1027 119.44 94.9455C119.876 94.6835 120.505 94.4739 120.994 94.7534C121.483 95.0329 121.763 95.6268 122.164 96.011C122.741 96.5525 123.405 97.0241 124.051 97.4608C124.697 97.8975 125.326 98.3691 125.972 98.8233C127.108 99.6093 128.295 100.325 129.588 100.797C130.985 101.286 132.453 101.408 133.92 101.478C135.178 101.531 136.453 101.513 137.675 101.251C138.182 100.168 138.514 99.522 138.514 99.522C138.514 99.522 134.322 102.806 122.234 91.9062L118.881 88.5176Z" fill="#00144A"/>
<path d="M127.405 85.4784C127.003 80.7623 125.833 75.5046 125.833 75.5046C125.833 75.5046 123.527 73.8627 119.195 74.0199H119.143C119.073 74.0199 119.02 74.0199 118.95 74.0548C118.811 74.0548 118.688 74.0898 118.549 74.1247C118.234 74.1771 117.92 74.247 117.605 74.2994C116.819 74.4566 116.051 74.6487 115.282 74.8758C114.549 75.1029 113.815 75.3474 113.134 75.6793C112.837 75.8365 112.54 75.9937 112.26 76.1858C112.138 76.2732 112.226 76.1858 112.121 76.2906C112.068 76.3256 112.033 76.378 111.981 76.4129C111.946 76.4478 111.894 76.5002 111.859 76.5526C111.859 76.5526 111.859 76.5876 111.824 76.605C111.824 76.64 111.771 76.6924 111.754 76.7273C111.754 76.7273 111.719 76.8147 111.719 76.8321V76.867V76.9195C111.754 76.9195 111.824 76.9719 111.824 76.9719C111.964 77.0417 112.138 77.0767 112.295 77.0941C113.029 77.2339 113.92 77.164 114.566 77.6007C114.898 77.8278 114.915 78.2994 114.566 78.509C114.077 78.8059 113.553 79.033 113.029 79.2426C111.929 79.7142 110.758 80.1509 109.798 80.8845C109.134 81.3911 108.767 81.985 108.784 82.7011C110.234 81.7579 111.457 80.4653 113.029 79.7317C114.688 78.9631 116.592 78.9631 118.287 79.6444C119.841 80.2732 121.134 81.3561 122.234 82.5963C123.387 83.8889 124.365 85.3387 125.326 86.771C125.605 87.1727 125.885 87.592 126.164 87.9937C127.02 87.4697 127.544 86.6662 127.44 85.4435L127.405 85.4784Z" fill="#00144A"/>
<path d="M125.291 122.16C123.789 121.88 122.374 121.339 120.977 120.745C119.544 120.134 118.129 119.452 116.785 118.684C114.217 117.199 111.859 115.365 109.675 113.374C108.575 112.378 107.527 111.33 106.479 110.265C105.937 109.706 105.413 109.147 104.872 108.588C104.802 108.5 104.715 108.431 104.645 108.343C105.047 111.54 105.92 114.387 107.579 116.221C113.483 122.789 121.885 127.505 128.575 123.697C128.575 123.697 128.872 123.505 129.448 122.335H129.361C127.998 122.492 126.636 122.422 125.291 122.16Z" fill="#00144A"/>
<path d="M141.798 34.2296C141.763 34.6313 141.221 34.7361 141.047 34.3693C140.226 32.675 138.566 30.544 135.667 32.0811C131.195 34.4392 135.44 44.2209 138.025 46.1073C140.61 47.9938 153.116 66.6139 170.077 67.3126C170.077 67.3126 177.378 66.4916 178.566 60.4829C179.737 54.4741 181.518 45.3912 181.623 42.0899C181.745 38.7885 181.972 23.592 179.737 16.8671C177.501 10.1422 168.191 3.9064 160.994 8.15095C154.007 12.2732 143.457 13.4959 141.798 34.2296Z" fill="#FFAB92"/>
<path d="M179.841 47.6793C179.579 49.7229 178.846 51.5919 178.007 53.4609C177.571 54.4042 177.116 55.3299 176.715 56.2906C176.313 57.1989 175.999 58.1247 175.684 59.0505C174.706 61.8976 172.82 64.343 170.007 65.5308C168.383 66.2295 166.636 66.4915 164.872 66.5264C166.566 66.9631 168.313 67.2775 170.095 67.3474C170.095 67.3474 174.619 67.6094 177.396 63.3299C177.833 62.6487 178.095 62.1596 178.287 61.5832C178.479 61.0068 178.479 60.902 178.584 60.4653C179.754 54.4566 181.536 45.3736 181.64 42.0723C181.71 40.081 181.833 33.7753 181.413 27.6094C180.732 29.6705 180.488 31.8714 180.54 34.0897C180.575 35.1727 180.68 36.2557 180.697 37.3386C180.697 38.4915 180.697 39.6443 180.61 40.7972C180.453 43.1028 180.138 45.3736 179.841 47.6618V47.6793Z" fill="#FF7F4C"/>
<path d="M168.977 42.0899C168.924 42.3169 168.889 42.5615 168.854 42.7886H168.959C169.134 42.7362 169.291 42.6488 169.448 42.4916C169.675 42.2645 169.78 42.1248 169.937 41.8628C170.007 41.7405 170.077 41.6008 170.147 41.4785C169.763 41.7231 169.378 41.9501 168.959 42.1248L168.977 42.0899Z" fill="#FF7F4C"/>
<path d="M181.466 24.3429C180.365 24.0634 179.16 24.1682 178.025 24.0809C176.75 23.9936 175.457 23.8538 174.182 23.9237C172.61 23.9936 170.985 24.3953 169.728 25.391C169.518 25.5482 169.274 25.7578 168.994 25.9674C169.815 26.2643 170.619 26.5787 171.387 26.9805C172.924 27.784 174.199 28.9543 174.828 30.5962C175.405 32.0809 175.335 33.6355 174.863 35.1202C175.929 35.8189 174.828 38.1071 175.509 40.2905C176.086 42.1595 182.531 39.0504 182.811 35.2949C183.003 32.6748 186.426 25.618 181.483 24.3429H181.466Z" fill="#FF7F4C"/>
<path d="M190.619 28.9371C190.566 28.1161 190.409 27.2602 189.955 26.579C189.413 25.7755 188.523 25.2864 187.841 24.5877C185.536 22.2122 186.304 18.3519 185.693 15.0855C185.012 11.4349 182.304 8.23837 178.811 6.98072C176.453 6.12483 173.798 6.1947 171.44 7.05059C169.431 3.24273 165.134 0.535302 160.802 1.02439C158.164 1.32133 155.754 2.57897 153.239 3.5222C151.894 2.63137 150.304 2.12482 148.575 2.12482C146.042 2.12482 143.771 3.24273 142.217 5.00692C140.662 6.77112 141.309 5.68815 140.75 5.77548C136.907 6.31697 132.942 7.365 130.095 9.98509C127.247 12.6227 125.885 17.1991 127.946 20.5004C128.068 20.71 128.086 20.9545 127.981 21.1816C127.317 22.6139 126.95 24.2035 126.95 25.8803C126.95 29.7056 128.872 33.0768 131.806 35.103C132.523 35.5921 132.942 36.4131 132.942 37.269C132.942 38.1249 132.942 38.2297 132.994 38.7013C133.239 41.6882 134.496 44.5878 136.523 46.7886C134.706 49.2166 134.671 52.8323 136.453 55.2952C138.234 57.7581 141.693 58.841 144.557 57.8629C144.645 58.1249 144.924 58.2646 145.169 58.1773C146.287 57.8279 146.968 56.6052 147.143 55.3301C146.584 54.8585 146.042 54.3345 145.518 53.8105C143.736 52.0288 142.182 50.0725 140.365 48.3258C138.758 46.7886 136.959 45.2515 135.841 43.2777C134.723 41.3039 134.025 38.6663 134.06 36.2908C135.317 36.7799 136.697 37.0594 138.147 37.0594C139.597 37.0594 141.885 36.5703 143.474 35.7144C144.068 36.0812 144.627 36.5004 145.186 36.9371C146.147 37.6882 147.108 38.4567 148.033 39.2602C148.557 39.7144 149.064 40.186 149.536 40.6926C149.833 41.007 150.339 40.972 150.584 40.6052C151.457 39.2952 152.191 37.9502 152.453 36.4305C152.924 33.7406 151.824 31.0506 151.457 28.3607C151.09 25.6532 151.894 22.317 154.496 21.4786C156.278 20.9021 158.147 21.7406 159.981 22.0899C164.715 23.0157 169.71 20.0462 171.737 15.7493C172.086 15.8366 172.435 15.924 172.75 16.0986C175.003 17.2165 175.055 20.5179 176.889 22.2471C179.073 24.2908 183.457 23.8017 184.033 27.0681C184.068 27.3126 184.086 27.5746 184.086 27.8192C183.946 31.5921 182.13 37.3738 181.693 41.5135C186.409 40.0987 190.968 33.8629 190.671 28.9545H190.601L190.619 28.9371Z" fill="#340800"/>
<path d="M140.872 17.496C141.029 17.4436 141.134 17.3912 141.344 17.2864C141.85 17.0244 142.217 16.7449 142.636 16.3606C143.457 15.592 144.103 14.5964 144.488 13.5833C144.889 12.5353 145.047 11.4174 144.802 10.3868C144.75 10.1772 144.68 9.98505 144.61 9.79291C142.828 9.23396 141.029 8.79727 139.16 8.79727H138.147C134.095 7.19028 130.584 11.2427 129.291 14.6837C128.959 15.5571 128.662 16.5527 128.75 17.496C128.819 18.2121 129.326 18.7187 130.06 18.5615C130.758 18.4217 131.387 17.9152 131.929 17.4785C132.523 17.0069 133.099 16.4829 133.693 15.9938C133.798 15.9065 133.902 15.8191 134.025 15.7318C134.077 15.6968 134.13 15.6619 134.182 15.627C134.182 15.627 134.217 15.627 134.234 15.592C134.077 15.6968 134.304 15.5571 134.357 15.5222C134.828 15.2427 135.37 14.9807 135.929 14.9632C136.819 14.9283 137.553 15.627 138.234 16.1685C139.038 16.7973 139.894 17.3912 140.907 17.496H140.872Z" fill="#450B00"/>
<path d="M170.793 8.55263C170.741 7.6618 170.723 6.7535 170.723 5.8452C168.505 2.68363 164.68 0.570086 160.802 1.00677C158.182 1.30371 155.771 2.54389 153.291 3.48712C152.977 4.53516 152.977 5.65306 153.448 6.68363C153.833 7.52206 154.374 8.27315 154.846 9.07665C155.352 9.95001 155.719 10.9107 155.771 11.9238C155.824 13.1116 155.422 14.1422 154.758 14.9981C154.426 15.4347 153.536 16.081 152.645 16.6574C152.103 17.0068 152.348 17.8452 152.994 17.8452C153.64 17.8452 154.723 17.8802 155.213 17.985C155.859 18.1072 156.488 18.2819 157.134 18.5264C158.496 19.0505 159.789 19.7491 161.047 20.4653C161.99 21.0068 162.933 21.5657 163.929 21.985C167.003 21.2863 169.78 19.2077 171.352 16.4653C171.562 13.8627 170.968 10.9806 170.828 8.55263H170.793Z" fill="#450B00"/>
<path d="M179.632 23.6792C180.208 23.8888 180.383 24.081 180.54 24.3255C181.029 25.129 181.099 26.1072 180.785 26.9805C180.348 28.1683 179.911 28.9543 181.099 32.9718C181.553 34.5089 181.431 39.9238 181.675 41.4958C182.881 40.867 189.344 42.4216 190.654 28.9369C190.741 28.1159 190.444 27.26 189.99 26.5788C189.448 25.7753 188.558 25.2862 187.876 24.5875C185.571 22.212 186.339 18.3517 185.728 15.0853C185.047 11.4346 182.339 8.23814 178.846 6.9805C177.745 6.57875 176.575 6.38661 175.387 6.36914C175.178 8.18574 175.073 10.0023 175.09 11.8364C175.125 14.4041 175.422 17.0067 176.33 19.4172C176.977 21.1465 178.427 22.3342 179.649 23.6792H179.632Z" fill="#450B00"/>
<path d="M171.387 52.9544C170.741 52.9195 172.226 53.6007 171.614 53.4959C171.02 53.3911 170.514 53.3562 169.239 53.4959C168.575 53.5658 163.527 54.2994 162.881 53.8453C164.365 54.7885 164.994 56.116 169.99 56.5177C172.697 56.7274 174.077 56.902 174.776 55.0156C174.741 55.1378 172.715 53.0243 171.37 52.9719L171.387 52.9544Z" fill="#D20A0A"/>
<path d="M162.636 53.3387C162.636 53.3387 168.103 51.6095 169.553 51.889C170.514 52.0636 171.929 52.2732 172.854 52.2732C173.78 52.2732 176.82 53.1466 174.741 55.0331C174.741 55.0331 173.151 54.1772 170.304 53.9676C167.457 53.758 162.793 54.8759 162.636 53.3387Z" fill="#D20A0A"/>
<path d="M168.872 43.749C168.662 44.6573 169.116 45.4958 170.234 45.4958C171.352 45.4958 171.125 45.5831 171.509 45.8102C172.645 46.4914 174.269 46.2818 175.143 45.7578C175.213 45.7054 175.317 45.7578 175.317 45.8451C175.317 46.0372 175.317 46.3342 174.636 46.9281C173.902 47.5569 173.606 47.6792 172.994 47.6792C171.789 47.6792 169.309 47.1027 168.575 46.9455C168.191 46.9455 167.876 47.0154 167.859 47.0154C166.846 45.4434 167.614 44.2032 168.872 43.749Z" fill="#A93E00"/>
<path d="M171.108 47.4694C170.112 46.8929 169.902 46.7183 168.959 46.6484C168.208 46.5785 167.684 47.0327 167.946 47.0851C168.453 47.1899 171.125 47.4694 171.125 47.4694H171.108Z" fill="#00144A"/>
<path d="M158.304 42.6485C158.304 42.6485 156.662 41.1289 156.173 41.1638C155.684 41.1638 155.771 37.4782 155.771 37.4782C155.771 37.4782 156.226 30.5612 159.317 27.9411C160.47 26.9629 164.191 24.0634 166.252 24.5175C167.422 24.7795 167.597 23.8887 168.732 23.3996C169.116 23.2424 169.483 22.8581 169.815 22.4214C170.409 21.6354 169.763 20.535 168.802 20.6747C166.654 20.9891 161.955 21.583 159.247 22.6834C154.863 24.4651 144.959 29.8625 143.073 31.9236C141.745 33.3559 142.252 35.0503 142.357 39.3821C142.514 45.9324 142.968 48.9018 142.13 50.6136C140.907 53.1114 140.348 53.9673 140.348 53.9673C140.348 53.9673 137.186 63.1202 129.221 73.1114C121.693 82.5787 118.881 88.5176 118.881 88.5176C118.881 88.5176 131.108 102.282 138.357 99.8364C138.357 99.8364 138.461 99.7141 138.514 99.5219C139.492 96.2556 147.911 67.9062 149.815 63.9411C153.099 57.1114 153.256 57.8101 154.758 56.7097C156.348 55.5568 160.016 50.6485 161.553 48.535C162.654 47.0153 170.234 45.5132 171.108 43.1725C171.632 41.7926 169.78 37.7053 164.173 42.4739" fill="#FFAB92"/>
<path d="M164.662 42.072C164.365 42.3165 163.981 42.4563 163.597 42.4563L159.003 42.6135C158.566 42.6135 158.13 42.4737 157.78 42.1943C157.256 41.7576 156.47 41.1288 156.173 41.1462C155.684 41.1462 155.771 37.4606 155.771 37.4606C155.771 37.4606 156.226 30.5436 159.317 27.9235C160.47 26.9453 164.191 24.0458 166.252 24.4999C167.422 24.7619 167.597 23.8711 168.732 23.382C169.116 23.2248 169.483 22.8405 169.815 22.4038C170.409 21.6178 169.763 20.5174 168.802 20.6571C166.654 20.9715 161.955 21.5654 159.247 22.6659C157.99 23.1724 156.295 23.9759 154.461 24.9191C154.322 24.989 154.182 25.0589 154.025 25.1462C153.937 25.1811 153.868 25.2335 153.78 25.2685C153.675 25.3209 153.588 25.3733 153.483 25.4257C153.396 25.4606 153.326 25.513 153.239 25.548C153.099 25.6178 152.942 25.7052 152.802 25.775C152.715 25.8274 152.627 25.8624 152.54 25.9148C152.435 25.9672 152.313 26.037 152.208 26.0894C152.121 26.1418 152.051 26.1768 151.964 26.2292C151.859 26.2816 151.737 26.3515 151.632 26.4039C151.527 26.4563 151.492 26.4737 151.422 26.5261C151.247 26.6135 151.09 26.7008 150.916 26.8056C150.846 26.8405 150.776 26.8929 150.706 26.9279C150.601 26.9977 150.479 27.0501 150.374 27.12C150.304 27.1549 150.234 27.2073 150.164 27.2423C149.99 27.3296 149.833 27.4344 149.658 27.5218C149.606 27.5567 149.571 27.5742 149.518 27.6091C149.396 27.679 149.256 27.7488 149.134 27.8362C149.064 27.8711 148.994 27.906 148.942 27.9584C148.819 28.0283 148.697 28.0982 148.575 28.168C148.523 28.203 148.47 28.2204 148.418 28.2554C148.261 28.3427 148.086 28.4475 147.929 28.5349C147.876 28.5698 147.824 28.6047 147.771 28.6222C147.649 28.6921 147.544 28.7619 147.422 28.8318C147.37 28.8667 147.317 28.9017 147.265 28.9366C147.108 29.0239 146.95 29.1287 146.811 29.2161C146.811 29.2161 146.758 29.251 146.741 29.251C146.601 29.3384 146.479 29.4082 146.357 29.4956C146.304 29.5305 146.269 29.548 146.217 29.5829C146.095 29.6528 145.99 29.7226 145.885 29.81C145.85 29.81 145.815 29.8449 145.78 29.8798C145.64 29.9672 145.501 30.0545 145.378 30.1419C145.344 30.1419 145.309 30.1943 145.274 30.2117C145.169 30.2816 145.082 30.3515 144.977 30.4213C144.942 30.4213 144.907 30.4737 144.872 30.4912C144.75 30.5785 144.627 30.6659 144.523 30.7357C144.418 30.8056 144.313 30.8929 144.208 30.9628C144.173 30.9628 144.156 31.0152 144.121 31.0327C144.033 31.1026 143.964 31.155 143.894 31.2074C143.894 31.2074 143.859 31.2423 143.824 31.2598C143.737 31.3296 143.649 31.3995 143.562 31.4694C143.562 31.4694 143.527 31.5043 143.509 31.5218C143.44 31.5742 143.387 31.6266 143.335 31.679C143.282 31.7314 143.3 31.7139 143.282 31.7314C143.213 31.8012 143.16 31.8536 143.108 31.906C141.78 33.3384 142.287 35.0327 142.392 39.3646C142.549 45.9148 143.003 48.8842 142.164 50.596C140.942 53.0938 140.383 53.9497 140.383 53.9497V54.0895C140.383 54.1244 140.348 54.1768 140.33 54.2292V54.2816C140.33 54.3166 140.295 54.3515 140.278 54.4039V54.4563C140.191 54.6659 140.086 54.9454 139.946 55.2773C139.405 56.6048 138.426 58.7882 136.959 61.5131C136.575 62.2292 136.156 62.9803 135.702 63.7489C135.702 63.7838 135.667 63.8013 135.649 63.8362C135.544 64.0284 135.422 64.203 135.317 64.3952C135.073 64.8144 134.828 65.2161 134.566 65.6353C134.392 65.9148 134.199 66.2118 134.025 66.5087C133.85 66.7882 133.658 67.0851 133.466 67.3646C133.466 67.3646 133.466 67.3995 133.431 67.417C133.256 67.6965 133.064 67.9585 132.889 68.238C132.889 68.2729 132.854 68.2904 132.819 68.3428C132.645 68.6048 132.47 68.8668 132.278 69.1288L132.243 69.1637C132.208 69.1987 132.191 69.2336 132.173 69.2685C131.999 69.5131 131.824 69.7576 131.649 70.0022C131.597 70.072 131.562 70.1244 131.509 70.1943C131.335 70.4214 131.16 70.6659 130.985 70.893C130.985 70.893 130.95 70.9454 130.933 70.9629C130.898 71.0153 130.846 71.0677 130.811 71.1375C130.636 71.3646 130.461 71.6092 130.269 71.8362V71.8712C130.217 71.941 130.164 72.0109 130.112 72.0808C129.868 72.3952 129.623 72.7096 129.361 73.024C121.833 82.4913 119.02 88.4301 119.02 88.4301L119.055 88.4651L119.09 88.5C119.09 88.5 119.125 88.5349 119.143 88.5524L119.178 88.5873C119.178 88.5873 119.23 88.6397 119.247 88.6572C119.247 88.6572 119.3 88.7096 119.317 88.7271C119.352 88.762 119.37 88.7969 119.405 88.8319C119.405 88.8319 119.405 88.8668 119.457 88.8843C119.457 88.8843 119.457 88.9192 119.492 88.9192C119.544 88.9716 119.597 89.024 119.649 89.0764C119.684 89.1114 119.719 89.1463 119.754 89.1812C119.806 89.2511 119.876 89.3035 119.946 89.3734C119.981 89.4083 120.016 89.4432 120.051 89.4782C120.121 89.5655 120.208 89.6354 120.295 89.7227C120.33 89.7577 120.348 89.7751 120.383 89.8101L120.907 90.3341C120.977 90.4039 121.029 90.4563 121.116 90.5262C121.169 90.5961 121.221 90.6485 121.291 90.7009C121.343 90.7533 121.396 90.8057 121.466 90.8581H121.501L121.536 90.893C121.588 90.9454 121.658 91.0153 121.728 91.0677C121.78 91.1201 121.833 91.1725 121.885 91.2074C121.885 91.2074 121.937 91.2598 121.955 91.2773C122.025 91.3472 122.095 91.3996 122.147 91.4694C122.182 91.5044 122.217 91.5393 122.269 91.5742C122.269 91.5742 122.304 91.6092 122.339 91.6266C122.339 91.6266 122.392 91.6791 122.409 91.6965C122.479 91.7664 122.549 91.8188 122.619 91.8887C122.654 91.9236 122.688 91.9411 122.723 91.976L122.758 92.0109C122.811 92.0459 122.846 92.0983 122.898 92.1332C122.968 92.2031 123.038 92.2555 123.108 92.3253C123.108 92.3253 123.143 92.3603 123.16 92.3777C123.16 92.3777 123.195 92.4127 123.212 92.4127C123.265 92.4651 123.317 92.5 123.37 92.5524C123.474 92.6398 123.562 92.7271 123.667 92.8144C123.789 92.9192 123.894 93.024 124.016 93.1288C124.051 93.1288 124.068 93.1812 124.103 93.1987C127.02 95.714 130.758 98.4564 134.199 99.5044C135.667 99.9411 136.959 98.4389 136.33 97.0415C136.295 96.9542 136.261 96.8668 136.208 96.7795C133.85 91.3646 132.767 84.5524 134.217 78.7882C134.898 76.0458 136.121 73.4956 137.221 70.9105C138.304 68.3428 138.95 65.6528 140.016 63.0851C140.348 62.2642 140.697 61.4257 141.116 60.6397C141.536 59.8362 141.972 59.0502 142.409 58.2467C143.265 56.6222 144.103 54.9978 144.889 53.3209C145.623 51.7314 146.357 50.0895 146.863 48.4126C147.265 47.0502 147.475 45.6353 147.789 44.2554C148.086 42.9104 148.453 41.513 149.221 40.3602C149.658 39.7139 150.776 38.0021 151.597 39.2248C151.719 39.417 151.824 39.644 151.894 39.8711C152.138 40.6746 152.295 41.513 152.348 42.3689C152.47 44.1855 152.156 46.0196 151.911 47.8187C151.911 47.941 151.876 48.0633 151.911 48.1855C151.999 48.3777 152.243 48.4301 152.453 48.4476C153.553 48.5349 154.636 48.1157 155.597 47.5917C156.575 47.0676 157.501 46.4388 158.531 46.072C158.985 45.9148 159.544 45.81 159.946 46.072C160.295 46.3165 160.418 46.7882 160.348 47.2074C160.278 47.6266 160.051 47.9934 159.824 48.3427C158.025 50.9454 155.16 52.6572 153.186 55.1375C152.435 56.0982 152.173 56.989 152.488 58.1594C152.54 58.334 152.592 58.5262 152.645 58.7008C153.588 57.2161 154.007 57.2161 154.916 56.5524C156.505 55.3995 160.173 50.4912 161.71 48.3777C162.811 46.858 170.252 45.6353 171.265 43.0152C171.771 41.6702 170.025 37.7576 164.785 41.9323L164.715 42.0545L164.662 42.072Z" fill="#A93E00"/>
<path d="M149.955 39.3824C150.112 39.0156 150.269 38.6488 150.444 38.282C151.614 35.8366 153.256 33.5658 155.247 31.7143C156.086 30.9283 156.994 30.2296 157.955 29.6007C158.339 28.9545 158.793 28.3606 159.335 27.9064C160.488 26.9282 164.208 24.0287 166.269 24.4828C167.44 24.7448 167.614 23.854 168.75 23.3649C169.134 23.2077 169.501 22.8234 169.833 22.3868C170.427 21.6007 169.78 20.5003 168.82 20.64C166.671 20.9544 161.972 21.5483 159.265 22.6488C158.007 23.1553 156.313 23.9588 154.479 24.902C154.339 24.9719 154.199 25.0418 154.042 25.1291C153.955 25.1641 153.885 25.2165 153.798 25.2514C153.693 25.3038 153.606 25.3562 153.501 25.4086C153.413 25.4435 153.344 25.4959 153.256 25.5309C153.116 25.6007 152.959 25.6881 152.82 25.7579C152.732 25.8103 152.645 25.8453 152.557 25.8977C152.453 25.9501 152.33 26.02 152.226 26.0724C152.138 26.1248 152.068 26.1597 151.981 26.2121C151.876 26.2645 151.754 26.3344 151.649 26.3868C151.544 26.4392 151.509 26.4566 151.44 26.509C151.265 26.5964 151.108 26.6837 150.933 26.7885C150.863 26.8234 150.793 26.8758 150.723 26.9108C150.619 26.9807 150.496 27.0331 150.392 27.1029C150.322 27.1379 150.252 27.1903 150.182 27.2252C150.007 27.3125 149.85 27.4173 149.675 27.5047C149.623 27.5396 149.588 27.5571 149.536 27.592C149.413 27.6619 149.274 27.7317 149.151 27.8191C149.082 27.854 149.012 27.8889 148.959 27.9414C148.837 28.0112 148.715 28.0811 148.592 28.151C148.54 28.1859 148.488 28.2034 148.435 28.2383C148.278 28.3256 148.103 28.4304 147.946 28.5178C147.894 28.5527 147.841 28.5876 147.789 28.6051C147.667 28.675 147.562 28.7448 147.44 28.8147C147.387 28.8496 147.335 28.8846 147.282 28.9195C147.125 29.0069 146.968 29.1117 146.828 29.199C146.828 29.199 146.776 29.2339 146.758 29.2339C146.619 29.3213 146.496 29.3911 146.374 29.4785C146.322 29.5134 146.287 29.5309 146.234 29.5658C146.112 29.6357 146.007 29.7055 145.902 29.7929C145.868 29.7929 145.833 29.8278 145.798 29.8628C145.658 29.9501 145.518 30.0374 145.396 30.1248C145.361 30.1248 145.326 30.1772 145.291 30.1946C145.186 30.2645 145.099 30.3344 144.994 30.4042C144.959 30.4042 144.924 30.4566 144.889 30.4741C144.767 30.5614 144.645 30.6488 144.54 30.7186C144.435 30.7885 144.33 30.8759 144.226 30.9457C144.191 30.9457 144.173 30.9981 144.138 31.0156C144.051 31.0855 143.981 31.1379 143.911 31.1903C143.911 31.1903 143.876 31.2252 143.841 31.2427C143.754 31.3125 143.667 31.3824 143.579 31.4523C143.579 31.4523 143.544 31.4872 143.527 31.5047C143.457 31.5571 143.405 31.6095 143.352 31.6619C143.3 31.7143 143.317 31.6968 143.3 31.7143C143.23 31.7842 143.178 31.8366 143.125 31.889C141.798 33.3213 142.304 35.0156 142.409 39.3475C142.566 45.8977 143.02 48.8671 142.182 50.5789C140.959 53.0768 140.4 53.9326 140.4 53.9326V54.0724C140.4 54.1073 140.365 54.1597 140.348 54.2121V54.2645C140.348 54.2995 140.313 54.3344 140.295 54.3868V54.4392C140.208 54.6488 140.103 54.9283 139.964 55.2602C139.422 56.5877 138.444 58.7711 136.977 61.496C136.592 62.2121 136.173 62.9632 135.719 63.7318C135.719 63.7667 135.684 63.7842 135.667 63.8191C135.562 64.0113 135.44 64.1859 135.335 64.3781C135.09 64.7973 134.846 65.199 134.584 65.6183C134.409 65.8977 134.217 66.1947 134.042 66.4916C133.868 66.7711 133.675 67.068 133.483 67.3475C133.483 67.3475 133.483 67.3824 133.448 67.3999C133.274 67.6794 133.081 67.9414 132.907 68.2209C132.907 68.2558 132.872 68.2733 132.837 68.3257C132.662 68.5877 132.488 68.8497 132.295 69.1117L132.261 69.1466C132.226 69.1816 132.208 69.2165 132.191 69.2514C132.016 69.496 131.841 69.7405 131.667 69.9851C131.614 70.0549 131.579 70.1073 131.527 70.1772C131.352 70.4043 131.178 70.6488 131.003 70.8759C131.003 70.8759 130.968 70.9283 130.95 70.9458C130.916 70.9982 130.863 71.0506 130.828 71.1204C130.654 71.3475 130.479 71.5921 130.287 71.8191V71.8541C130.234 71.9239 130.182 71.9938 130.13 72.0637C129.885 72.3781 129.64 72.6925 129.378 73.0069C121.85 82.4742 118.968 88.5178 118.968 88.5178C118.968 88.5178 118.985 88.5528 119.038 88.6052C119.143 88.7274 119.37 88.972 119.649 89.2515C120.313 89.9501 121.239 90.8934 121.413 91.0156C121.448 91.0506 125.274 94.9283 129.745 97.6532C131.405 98.6663 133.029 99.365 134.042 99.6794C135.509 100.116 136.994 98.4567 136.365 97.0593C136.33 96.972 136.295 96.8847 136.243 96.7973C133.885 91.3825 132.802 84.5702 134.252 78.806C134.933 76.0637 136.156 73.5135 137.256 70.9283C138.339 68.3606 138.985 65.6706 140.051 63.103C140.383 62.282 140.732 61.4436 141.151 60.6575C141.571 59.854 142.007 59.068 142.444 58.2645C143.3 56.6401 144.138 55.0156 144.924 53.3388C145.658 51.7492 146.392 50.1073 146.898 48.4305C147.3 47.068 147.509 45.6532 147.824 44.2732C148.121 42.9283 148.488 41.5309 149.256 40.378C149.448 40.0986 149.763 39.627 150.112 39.2601L150.042 39.3999L149.955 39.3824Z" fill="#FF7F4C"/>
<path d="M182.989 37.6493C182.989 37.6493 180.945 38.2432 181.801 40.0423C182.657 41.8415 185.05 42.61 185.05 42.61C185.05 42.61 187.443 45.265 188.543 46.9594C189.661 48.6712 194.098 55.9201 196.054 57.8939C198.011 59.8502 203.548 62.8546 207.618 70.0162C211.688 77.1952 215.53 84.3568 216.718 88.6363C217.906 92.8983 220.037 103.955 224.386 113.824C228.736 123.693 234.238 131.746 241.539 128.095C248.858 124.444 247.513 118.593 246.29 114.802C245.067 111.029 238.115 92.6188 232.509 85.4223C226.902 78.2258 217.626 60.7934 216.177 58.5926C214.709 56.3917 212.648 55.0642 212.037 51.0292C211.426 47.0118 210.762 42.348 210.517 38.6624C210.517 38.6624 210.517 38.348 208.945 35.9026C207.373 33.4572 205.19 26.4528 197.749 23.3262C191.757 20.8109 187.127 20.7043 185.556 20.7934C185.261 20.8109 184.928 21.0729 184.893 21.4222C184.823 22.3305 184.858 23.9899 186.098 24.6187C187.827 25.4746 190.657 24.8283 190.657 24.8283C190.657 24.8283 191.391 25.6493 193.207 25.3174C193.482 25.2673 197.697 27.9078 197.916 28.5957C199.151 32.4626 195.478 40.9708 194.855 41.5195C194.139 42.1658 193.382 45.2301 192.177 43.6581C192.177 43.6581 190.325 40.9157 188.072 39.1166C185.818 37.3 182.989 37.6493 182.989 37.6493Z" fill="#FFAB92"/>
<path d="M184.875 22.3481C184.928 23.204 185.19 24.1822 186.081 24.6189C187.81 25.4748 190.64 24.8809 190.64 24.8809C190.64 24.8809 191.373 25.6495 193.19 25.3176H193.277C190.744 23.7455 187.81 22.7324 184.875 22.3481Z" fill="#A93E00"/>
<path d="M191.114 25.8753L195.196 25.5352L189.754 24.1748L179.551 24.855L180.571 25.1951L182.612 28.5961L191.114 25.8753Z" fill="#046C7C"/>
<path d="M240.334 121.248C238.832 120.549 237.382 119.624 236.281 118.383C234.727 116.637 233.522 114.541 232.404 112.497C231.251 110.383 230.22 108.218 229.068 106.104C227.915 103.973 226.552 101.947 225.434 99.7983C223.181 95.4839 221.504 90.9074 219.862 86.331C218.203 81.7197 216.561 77.0734 214.378 72.6891C212.299 68.5493 209.836 64.6716 206.936 61.0559C206.203 60.1476 205.434 59.2742 204.701 58.3659C204.159 57.6847 203.635 56.986 203.286 56.1825C202.605 54.6279 202.814 52.9685 202.971 51.3266C203.111 49.7196 203.251 48.1126 203.076 46.5056C203.006 45.807 202.884 45.0559 202.552 44.427C202.255 43.8681 201.574 43.1869 200.893 43.3266C200.159 43.4663 199.565 44.2174 198.971 44.6366C198.308 45.1083 197.522 44.7425 196.718 44.8298C195.757 44.9521 192.998 44.7415 192.194 43.6934C192.194 43.6934 190.343 40.9511 188.089 39.1519C185.836 37.3353 183.006 37.6847 183.006 37.6847C183.006 37.6847 181.312 38.558 181.819 40.0777C182.674 41.8768 185.067 42.6454 185.067 42.6454C185.067 42.6454 187.46 45.3004 188.561 46.9947C189.679 48.7065 194.115 55.9554 196.072 57.9292C198.028 59.8856 203.565 62.8899 207.635 70.0515C211.705 77.2306 215.548 84.3922 216.736 88.6716C217.923 92.9337 220.054 103.99 224.404 113.859C228.753 123.728 234.255 131.781 241.557 128.13C244.404 126.698 245.941 124.951 246.675 123.117C244.474 122.855 242.308 122.209 240.351 121.283V121.248H240.334Z" fill="#FF7F4C"/>
<path d="M199.277 33.0172L198.256 31.9969C197.208 29.761 199.614 28.902 197.379 27.7841C196.523 27.3474 189.466 26.771 187.667 34.8408C185.868 42.9107 186.984 41.7282 187.492 42.0374C186.72 42.081 185.92 41.3387 185.186 40.902C184.924 40.7622 184.68 40.605 184.435 40.4478C183.055 39.5745 181.99 38.2644 181.413 36.7273C180.418 34.1072 179.894 30.5264 181.728 26.6836C181.728 26.6836 179.876 28.4478 178.986 30.8234C179.02 30.5614 179.055 30.3168 179.073 30.0548C179.16 29.1989 179.282 28.1159 178.793 27.3474C178.112 26.2819 180.939 25.0295 179.891 24.8548C179.21 24.7325 180.363 25.3264 179.891 24.8548C179.559 24.5229 172.907 25.3386 172.488 25.5482C172.068 25.7579 172.208 25.7055 172.208 25.7055C172.924 26.9631 175.737 35.8015 175.737 35.8015C175.737 35.8015 176.103 35.8365 176.645 35.8714C176.61 35.9063 176.592 35.9413 176.558 35.9762C176.558 35.9762 176.558 41.7055 180.697 41.9151C184.855 42.1247 186.218 40.2199 188.734 40.4993C190.62 40.7089 188.8 40.4038 190.774 40.1592C190.966 40.1592 192.623 40.902 192.815 40.902C193.653 37.688 193.99 41.5133 194.881 41.2339C195.702 40.9718 194.68 40.6915 195.536 40.4993C196.234 40.3421 195.587 40.151 196.216 39.8191C197.019 39.3999 196.18 39.3753 196.896 38.7988C197.228 38.5368 196.634 38.8234 196.896 38.474C197.001 38.3343 196.826 37.9357 196.896 37.7785C196.931 37.7087 197.524 37.1857 197.576 37.0983C197.576 37.0634 196.556 36.3308 196.556 36.4181C196.556 36.2435 197.794 35.1626 197.916 35.0577C198.143 33.9224 198.388 34.0303 197.916 33.0172H199.277Z" fill="#00144A"/>
<path d="M176.523 33.391C176.523 28.4128 172.488 24.3779 167.509 24.3779C162.531 24.3779 166.898 24.3779 166.601 24.4303C166.601 24.4303 163.038 23.3648 158.007 28.7971C155.405 31.6093 154.671 34.8583 154.566 37.3211C154.461 39.784 156.802 43.1377 159.929 43.3473C163.055 43.557 162.182 43.3823 163.632 43.1727C170.654 42.177 168.767 42.7709 170.619 41.8452C174.077 40.5875 176.54 37.2687 176.54 33.3735H176.523V33.391Z" fill="#046C7C"/>
<path d="M167.51 41.95C172.237 41.95 176.068 38.118 176.068 33.391C176.068 28.664 172.237 24.832 167.51 24.832C162.783 24.832 158.951 28.664 158.951 33.391C158.951 38.118 162.783 41.95 167.51 41.95Z" fill="#00144A"/>
<path d="M167.51 41.2339C171.841 41.2339 175.352 37.7226 175.352 33.3911C175.352 29.0597 171.841 25.5483 167.51 25.5483C163.178 25.5483 159.667 29.0597 159.667 33.3911C159.667 37.7226 163.178 41.2339 167.51 41.2339Z" fill="white"/>
<path d="M175.143 31.5221C174.706 29.723 173.641 28.1684 172.191 27.0854L161.221 38.0549C162.287 39.5047 163.859 40.5527 165.658 41.0069L175.143 31.5221Z" fill="#56BDFF"/>
<path d="M168.191 25.5657C167.964 25.5657 167.754 25.5308 167.527 25.5308C163.195 25.5308 159.806 29.0417 159.684 33.3736C159.562 37.7055 159.719 33.9849 159.719 34.0373L168.208 25.5482L168.191 25.5657Z" fill="#56BDFF"/>
<path d="M200.15 33.391C200.15 28.4128 196.115 24.3779 191.137 24.3779C186.159 24.3779 190.526 24.3779 190.229 24.4303C190.229 24.4303 186.666 23.3648 181.635 28.7971C179.032 31.6093 179.996 34.6354 179.891 37.0983C179.786 39.5612 181.186 41.6356 184.312 41.8452C187.439 42.0548 185.81 43.3823 187.259 43.1727C194.281 42.177 192.395 42.7709 194.246 41.8452C197.705 40.5875 200.168 37.2687 200.168 33.3735H200.15V33.391Z" fill="#046C7C"/>
<path d="M191.137 41.95C195.864 41.95 199.696 38.118 199.696 33.391C199.696 28.664 195.864 24.832 191.137 24.832C186.41 24.832 182.578 28.664 182.578 33.391C182.578 38.118 186.41 41.95 191.137 41.95Z" fill="#00144A"/>
<path d="M191.137 41.2339C195.469 41.2339 198.98 37.7226 198.98 33.3911C198.98 29.0597 195.469 25.5483 191.137 25.5483C186.806 25.5483 183.294 29.0597 183.294 33.3911C183.294 37.7226 186.806 41.2339 191.137 41.2339Z" fill="white"/>
<path d="M198.77 31.5221C198.334 29.723 197.268 28.1684 195.818 27.0854L184.849 38.0549C185.914 39.5047 187.487 40.5527 189.286 41.0069L198.77 31.5221Z" fill="#56BDFF"/>
<path d="M191.818 25.5657C191.591 25.5657 191.382 25.5308 191.155 25.5308C186.823 25.5308 183.434 29.0417 183.312 33.3736C183.19 37.7055 183.347 33.9849 183.347 34.0373L191.836 25.5482L191.818 25.5657Z" fill="#56BDFF"/>
<path d="M179.632 30.9807C181.32 30.9807 182.689 29.6122 182.689 27.924C182.689 26.2358 181.32 24.8672 179.632 24.8672C177.944 24.8672 176.575 26.2358 176.575 27.924C176.575 29.6122 177.944 30.9807 179.632 30.9807Z" fill="#046C7C"/>
<path d="M177.763 27.924C177.763 26.4392 178.828 25.1991 180.243 24.9196C180.051 24.8847 179.859 24.8672 179.649 24.8672C177.955 24.8672 176.592 26.2471 176.592 27.924C176.592 29.6008 177.972 30.9807 179.649 30.9807C181.326 30.9807 180.051 30.9633 180.243 30.9283C178.828 30.6489 177.763 29.4087 177.763 27.924Z" fill="#00144A"/>
<path d="M237.396 119.854V119.871C237.59 121.674 237.104 123.363 236.566 125.068C236.645 122.644 236.467 120.217 236.086 117.81C235.754 117.304 235.405 116.815 235.055 116.308C234.933 116.745 234.828 117.182 234.706 117.618L234.689 117.636C234.514 118.282 234.339 118.911 234.095 119.522C233.885 120.046 233.623 120.605 233.204 121.007C232.173 121.968 230.898 121.269 230.007 120.483C227.964 118.666 227.213 115.278 224.313 114.649C224.488 117.234 224.994 119.819 224.767 122.404C224.68 123.487 224.488 124.762 223.684 125.583C222.811 126.474 221.588 126.195 220.558 125.793C219.125 125.251 217.798 124.483 216.488 123.714C215.981 123.417 215.475 123.12 214.968 122.823C214.13 122.334 213.413 121.601 212.732 120.902C212.034 120.203 211.335 119.47 210.461 118.981C209.675 118.544 208.802 118.282 207.999 117.863C207.23 117.461 206.654 116.885 206.287 116.099C205.955 115.382 205.798 114.596 205.815 113.793C205.815 112.168 206.409 110.596 206.863 109.059C207.23 107.802 207.649 106.439 207.457 105.112C206.461 105.269 205.431 105.269 204.488 104.85C202.881 104.151 202.199 102.422 201.728 100.85C201.274 99.3649 200.959 97.7928 200.156 96.4653C199.37 97.2863 199.282 98.509 199.387 99.6269C199.527 101.007 199.946 102.334 200.348 103.644C200.785 105.094 201.116 106.544 201.361 108.029C201.955 111.784 202.007 115.592 202.025 119.382C202.095 119.435 202.147 119.505 202.217 119.575C203.317 120.745 206.112 122.806 208.75 123.382C211.387 123.976 226.025 134.055 234.828 133.95C234.828 133.931 234.839 133.913 234.848 133.894C234.841 133.913 234.835 133.933 234.828 133.95C243.593 133.95 245.433 126.823 246.55 123.382C246.935 122.177 239.911 123.784 237.396 119.854ZM234.863 133.845C234.868 133.835 234.872 133.823 234.875 133.81C234.87 133.824 234.867 133.838 234.861 133.852C234.861 133.851 234.861 133.847 234.861 133.845H234.863Z" fill="#00144A"/>
<path d="M208.459 93.555C208.459 93.555 208.427 88.9406 204.776 95.8311C201.137 102.734 205.429 108.485 207.574 110.589C209.718 112.693 220.784 129.175 229.607 129.559C238.43 129.943 243.904 133.307 245.87 125.864C245.87 125.864 249.906 118.592 246.513 112.498C243.119 106.405 239.385 95.7687 239.385 95.7687C239.385 95.7687 238.793 101.061 222.548 102.058L217.722 102.463C217.722 102.463 219.59 100.312 215.942 97.2961C212.293 94.2804 208.799 92.8748 208.799 92.8748L208.459 93.555Z" fill="#0070F2"/>
<path d="M217.769 102.116C217.856 102.202 217.648 102.414 217.662 102.574C217.801 104.178 218.646 105.986 218.896 107.577C219.316 110.117 219.847 112.644 220.426 115.146C220.684 116.231 220.966 117.315 221.384 118.336C221.611 118.902 221.901 119.48 222.276 119.97C222.261 119.637 222.184 119.316 222.082 119.021C221.903 118.356 221.649 117.716 221.532 117.038C221.387 116.162 221.28 115.274 221.222 114.385C221.164 113.472 221.192 112.545 221.121 111.644C221.078 110.94 220.984 110.237 221.064 109.532C221.11 109.186 221.206 108.864 221.363 108.554C221.509 108.28 221.74 107.92 222.061 107.843C222.319 107.754 222.518 107.9 222.765 107.898C222.839 107.897 222.815 107.947 222.851 107.81C222.886 107.575 222.809 107.304 222.769 107.07C222.73 106.786 222.69 106.503 222.749 106.218C222.868 105.723 223.158 105.127 223.7 104.974C224.242 104.82 224.862 105.037 225.418 105.019C226.208 104.987 227.009 104.843 227.774 104.687C228.538 104.532 229.315 104.413 230.092 104.27C231.448 104.01 232.791 103.663 234.033 103.071C235.36 102.415 236.475 101.454 237.552 100.455C238.471 99.5939 239.351 98.6714 240.02 97.615C239.602 96.4951 239.373 95.8056 239.373 95.8056C239.373 95.8056 238.782 101.098 222.536 102.095L217.769 102.116Z" fill="#00144A"/>
<path d="M191.454 42.5401L184.652 41.8599L186.353 43.5604L190.094 46.2811L191.454 42.5401Z" fill="#FF7F4C"/>
</svg>
