<svg width="320" height="187" viewBox="0 0 320 187" fill="none" xmlns="http://www.w3.org/2000/svg">
<rect y="32.4497" width="320" height="138" rx="24" fill="#222F3B"/>
<path d="M110.343 32.4497C110.405 32.4808 110.467 32.481 110.529 32.481C110.56 32.5121 110.607 32.5122 110.654 32.5122C110.716 32.5278 110.779 32.5591 110.841 32.5591C110.887 32.5899 110.918 32.5894 110.965 32.5894C111.074 32.6205 111.167 32.6364 111.261 32.6675C111.307 32.683 111.354 32.7142 111.4 32.7144C111.462 32.7299 111.51 32.7457 111.556 32.7612C111.603 32.7768 111.665 32.8071 111.712 32.8071C111.758 32.8227 111.805 32.8539 111.851 32.854C111.914 32.8696 111.961 32.9165 112.023 32.9165C112.07 32.9321 112.101 32.9634 112.147 32.9634C112.209 32.9789 112.256 33.0248 112.318 33.0249C112.365 33.0405 112.412 33.0718 112.443 33.0718C112.505 33.1028 112.552 33.1188 112.614 33.1499C112.661 33.1654 112.661 33.1658 112.722 33.1968C112.785 33.2279 112.848 33.2584 112.91 33.2896C112.926 33.3051 112.956 33.3363 112.987 33.3364C113.065 33.3831 113.127 33.4147 113.189 33.4458H113.221C113.563 33.6325 113.874 33.8344 114.185 34.0522C114.263 34.0989 114.325 34.1609 114.403 34.2075L114.434 34.2388C114.497 34.2854 114.574 34.3319 114.637 34.394L114.668 34.4253C114.73 34.4875 114.808 34.5341 114.87 34.6118C114.932 34.674 115.01 34.7371 115.072 34.7993C115.585 35.2815 116.037 35.7951 116.441 36.3706C116.659 36.6816 116.861 37.0081 117.032 37.3501C118.059 36.9767 119.164 36.7905 120.253 36.7905H121.046C121.139 36.8216 121.217 36.8218 121.31 36.8218H121.435C121.513 36.8219 121.591 36.8521 121.669 36.8521C121.715 36.8831 121.762 36.8833 121.808 36.8833C121.886 36.8989 121.948 36.9302 122.026 36.9302C122.088 36.9457 122.135 36.977 122.197 36.9771C122.259 36.9926 122.322 37.0238 122.384 37.0239C122.461 37.0395 122.524 37.0853 122.601 37.0854C122.648 37.101 122.695 37.1323 122.742 37.1323C122.866 37.179 122.975 37.2107 123.099 37.2573C125.962 38.2841 128.187 40.913 128.747 43.9155C129.214 46.4514 128.669 49.4388 130.24 51.4146C132.123 51.5857 134.83 52.0835 138.019 53.4214C138.05 53.4369 138.097 53.467 138.128 53.4673H138.175C141.893 53.6695 144.957 56.5947 145.347 60.2817C146.171 61.7286 146.716 63.0047 147.198 63.7515C148.489 65.7427 148.489 66.0073 148.489 66.0073C148.691 69.0408 149.236 72.8676 149.734 76.1655C150.232 79.4637 151.944 80.5689 153.141 82.3735C154.355 84.1793 161.962 98.5069 166.567 104.418C171.187 110.33 176.896 125.435 177.892 128.547C178.748 131.192 179.682 135.082 176.197 138.038C176.104 138.131 176.01 138.209 175.901 138.287C175.792 138.364 175.699 138.442 175.591 138.52H175.559C175.45 138.598 175.341 138.66 175.232 138.738C175.203 138.767 175.174 138.769 175.171 138.769C175.062 138.847 174.952 138.909 174.844 138.971H174.812C174.688 139.033 174.579 139.111 174.455 139.173L174.688 139.469L174.657 139.687C174.641 139.703 174.61 139.734 174.579 139.734C174.532 139.765 174.486 139.796 174.424 139.827C174.439 140.076 174.439 140.309 174.392 140.527V140.729C174.361 140.745 174.361 140.792 174.361 140.792C174.33 140.823 174.33 140.854 174.33 140.854C174.301 140.883 174.299 140.912 174.299 140.916C174.299 140.945 174.271 140.975 174.268 140.978L174.128 141.119C173.957 141.29 173.692 141.43 173.319 141.554C173.273 141.585 173.241 141.584 173.194 141.584C173.148 141.616 173.117 141.616 173.07 141.616H173.039C172.992 141.647 172.961 141.647 172.915 141.647H172.884C172.837 141.678 172.805 141.678 172.759 141.678H172.727C172.696 141.709 172.65 141.709 172.603 141.709H170.316C170.036 141.741 169.741 141.741 169.414 141.741C163.331 141.834 153.81 135.953 149.672 133.806C149.61 133.775 149.532 133.729 149.47 133.698C149.423 133.667 149.361 133.651 149.314 133.62C149.299 133.59 149.27 133.588 149.267 133.588C149.221 133.557 149.159 133.541 149.112 133.51H149.065C149.019 133.479 148.987 133.449 148.94 133.449C148.926 133.419 148.883 133.418 148.879 133.417C148.848 133.386 148.832 133.386 148.801 133.386C148.769 133.371 148.722 133.339 148.691 133.339H148.661C148.63 133.308 148.583 133.277 148.536 133.277H148.505C148.458 133.261 148.412 133.231 148.381 133.231C148.334 133.215 148.302 133.184 148.256 133.184H148.224C148.147 133.153 148.084 133.122 148.022 133.122C147.587 133.028 147.135 132.873 146.684 132.686C146.451 132.593 146.218 132.483 146 132.375C145.875 132.312 145.735 132.235 145.611 132.172C145.238 131.955 144.864 131.737 144.522 131.503C144.413 131.426 144.304 131.348 144.195 131.27C143.542 130.803 143.013 130.337 142.671 129.979C142.624 129.917 142.562 129.87 142.515 129.824C141.613 129.015 140.384 129.061 141.178 131.908C141.909 134.568 141.722 143.047 141.333 153.05V153.113C141.317 153.533 141.286 153.953 141.286 154.374V154.435C141.27 154.84 141.24 155.244 141.24 155.649V155.82C141.225 156.224 141.193 156.629 141.193 157.034V157.08C141.115 159.102 141.068 160.767 141.037 162.152V164.47C141.053 168.857 141.38 168.966 141.38 168.966C141.411 169.059 141.427 169.138 141.458 169.215V169.261C141.473 169.323 141.519 169.401 141.519 169.463V169.542C141.535 169.588 141.566 169.65 141.566 169.712C141.597 169.744 141.597 169.775 141.597 169.806C141.613 169.868 141.644 169.915 141.644 169.977C141.675 170.008 141.676 170.055 141.676 170.086C141.691 170.148 141.722 170.195 141.722 170.257C141.753 170.304 141.753 170.335 141.753 170.381C141.753 170.402 141.76 170.426 141.766 170.45H75.4168C75.4871 170.024 75.5704 169.591 75.6649 169.153C75.696 169.013 75.7275 168.857 75.7586 168.702C75.8675 168.173 76.0072 167.628 76.1317 167.068C76.1628 166.912 76.2099 166.757 76.241 166.601C76.272 166.555 76.2723 166.508 76.2723 166.461C76.3034 166.306 76.3496 166.135 76.3807 165.979C76.4118 165.823 76.4589 165.668 76.4901 165.512C76.5523 165.248 76.6144 164.968 76.6766 164.688C76.7388 164.424 76.8008 164.159 76.8475 163.894C76.9564 163.365 77.0656 162.82 77.1434 162.26C77.1745 162.027 77.2051 161.794 77.2362 161.561C77.2517 161.437 77.283 161.327 77.283 161.203C77.3764 160.363 77.4539 159.492 77.4539 158.605C77.4695 157.703 77.4389 156.784 77.3455 155.82C77.2522 155.011 77.1279 154.155 76.9412 153.284C76.599 151.681 76.0696 149.986 75.2762 148.197C75.214 148.072 75.1675 147.948 75.1053 147.808V147.746C75.0431 147.606 74.9811 147.466 74.9344 147.326V147.294C73.6587 143.95 72.6004 138.738 71.6981 132.966C69.1312 131.644 66.6733 129.606 64.5887 127.288C64.5109 127.194 64.4331 127.101 64.3553 127.007C64.3242 126.976 64.3082 126.946 64.2772 126.915C64.2151 126.852 64.1685 126.775 64.1219 126.712C64.0908 126.666 64.0749 126.634 64.0438 126.587C64.0127 126.51 63.9663 126.447 63.9197 126.385C63.8887 126.354 63.8726 126.308 63.8416 126.261C63.795 126.199 63.7477 126.121 63.7166 126.059C63.6855 126.012 63.6706 125.965 63.6395 125.918C63.6084 125.841 63.5612 125.778 63.5301 125.701C63.5145 125.654 63.4687 125.608 63.4686 125.561C63.4375 125.483 63.3903 125.405 63.3592 125.328C63.3281 125.297 63.2967 125.249 63.2967 125.203C63.2656 125.109 63.2194 125.031 63.1883 124.938C63.1727 124.907 63.1414 124.861 63.1414 124.83C63.0948 124.705 63.0484 124.596 63.0018 124.472V124.441C62.9084 124.176 62.8149 123.896 62.7371 123.616V123.539C62.706 123.43 62.6745 123.32 62.6434 123.196C62.6126 123.165 62.6121 123.118 62.6121 123.087C62.581 122.979 62.5661 122.869 62.535 122.76C62.504 122.729 62.5037 122.683 62.5037 122.652C62.4726 122.543 62.4256 122.418 62.4256 122.309V122.201C62.41 122.076 62.3631 121.967 62.3631 121.842V121.75C62.3475 121.625 62.3016 121.5 62.3016 121.36V121.298C61.3059 114.438 63.0946 105.943 63.0946 103.454C63.0946 100.964 63.9973 95.1458 70.1424 93.3101C71.7447 92.8434 73.1604 92.6255 74.3738 92.6255H76.0848C76.147 92.6566 76.2101 92.6567 76.2723 92.6567H76.3494C76.4895 92.6723 76.599 92.7192 76.7235 92.7192H76.8319C76.894 92.7503 76.9407 92.7505 77.0028 92.7505H77.0965C77.1586 92.7505 77.2053 92.7817 77.2674 92.7817H77.3143C77.4232 92.7973 77.5326 92.8278 77.6414 92.8589H77.7186C77.7652 92.8744 77.8125 92.9058 77.8592 92.9058C77.8901 92.9366 77.9054 92.937 77.9363 92.937C77.983 92.9526 78.0303 92.9839 78.077 92.9839H78.1229C78.2006 93.015 78.2942 93.0456 78.3719 93.0767H78.4344C78.4655 93.0922 78.5127 93.1235 78.5438 93.1235C78.5588 93.1533 78.6019 93.1547 78.6053 93.1548C78.652 93.1703 78.6836 93.2017 78.7147 93.2017H78.7615C78.8236 93.2326 78.8859 93.2478 78.9324 93.2788C78.9634 93.3098 78.9633 93.3101 78.994 93.3101C79.025 93.3101 79.0411 93.3412 79.0721 93.3413C79.1032 93.3724 79.1346 93.3726 79.1346 93.3726C79.1502 93.4036 79.1971 93.4038 79.1971 93.4038C79.2278 93.4345 79.2279 93.4351 79.2586 93.4351C79.2897 93.4351 79.3367 93.4663 79.3367 93.4663C80.1301 93.1707 80.9389 92.8899 81.7322 92.6099C81.9811 92.2988 82.2305 91.9882 82.4793 91.6616C82.6815 91.3972 82.8835 91.1477 83.0858 90.8833C83.1169 90.8211 83.1641 90.7746 83.2108 90.7124V90.6812C83.3508 90.4945 83.5063 90.2916 83.6463 90.105C83.6928 90.0584 83.7237 90.0119 83.7547 89.9653C83.7703 89.9342 83.8016 89.9028 83.8016 89.9028C83.9415 89.7162 84.0816 89.5142 84.2215 89.3276C84.2526 89.281 84.2998 89.219 84.3309 89.1724C84.4865 88.9701 84.6264 88.7672 84.7664 88.5649C84.7821 88.534 84.8287 88.5031 84.8289 88.4722V88.4409C84.9689 88.2232 85.1245 88.021 85.2645 87.8032C85.28 87.7721 85.3104 87.7562 85.3104 87.7251C85.4659 87.5073 85.6215 87.2739 85.7615 87.0562C85.7927 87.0562 85.7928 87.0249 85.7928 87.0249C85.9484 86.7915 86.0884 86.5581 86.244 86.3247C86.3995 86.0758 86.5551 85.8422 86.6951 85.6089C86.8973 85.2823 87.1004 84.9404 87.3026 84.6138C87.3803 84.4583 87.4729 84.3025 87.5662 84.147C87.5818 84.1314 87.6131 84.0845 87.6131 84.0845C87.9865 83.4467 88.3293 82.8397 88.6404 82.2485C89.3559 80.942 89.9159 79.7755 90.3514 78.8267C89.5424 78.4222 88.8266 77.8303 88.2977 77.0991C86.8355 75.0767 86.8667 72.105 88.3602 70.1138C86.7112 68.3091 85.6689 65.9292 85.4666 63.4712C85.4199 63.0823 85.4197 63.0042 85.4197 62.2886C85.4197 61.573 85.0773 60.904 84.4862 60.4995C82.0749 58.8349 80.5038 56.0658 80.5037 52.9233C80.5037 51.5387 80.8147 50.2317 81.3592 49.0649C81.4525 48.8784 81.4367 48.6764 81.3279 48.5054C79.6478 45.7984 80.7523 42.0331 83.1014 39.8706C85.4505 37.7082 88.7021 36.8521 91.8602 36.4009C92.3113 36.3231 92.7473 36.121 93.0584 35.7632C94.3341 34.3164 96.2014 33.3989 98.286 33.3989C99.7016 33.399 101.009 33.8192 102.113 34.5503C103.155 34.1614 104.166 33.7097 105.193 33.3208C105.317 33.2897 105.426 33.2434 105.551 33.1968C105.582 33.1657 105.598 33.1655 105.629 33.1655C105.738 33.1344 105.831 33.0873 105.94 33.0562C105.971 33.0254 106.018 33.0249 106.049 33.0249C106.142 32.9938 106.236 32.9632 106.329 32.9321C106.375 32.9166 106.422 32.8854 106.469 32.8853C106.546 32.8542 106.64 32.8072 106.718 32.8071C106.78 32.7916 106.826 32.7614 106.888 32.7612C106.966 32.7302 107.029 32.6988 107.106 32.6987C107.168 32.6832 107.247 32.6519 107.309 32.6519C107.371 32.6363 107.434 32.605 107.496 32.605C107.589 32.5894 107.667 32.5591 107.761 32.5591C107.807 32.528 107.854 32.5278 107.9 32.5278C108.04 32.5123 108.165 32.481 108.305 32.481C108.398 32.4498 108.507 32.4497 108.616 32.4497H110.343ZM130.396 72.7593C130.381 72.9459 130.349 73.1479 130.318 73.3345V73.4595C130.225 74.0971 130.116 74.7193 129.992 75.3569V75.4507C129.868 76.104 129.727 76.7416 129.587 77.3794V77.4263C129.431 78.0795 129.276 78.733 129.105 79.3862C128.701 80.9575 128.249 82.5131 127.766 84.0532C127.066 86.309 126.694 88.9078 124.982 90.5103C122.789 92.5793 117.561 92.9522 117.234 93.2944C118.479 95.6125 119.817 98.1333 119.817 98.1333C119.844 98.143 122.808 99.1992 125.677 99.7739L125.651 99.7358C128.545 100.311 131.548 99.9224 131.548 99.9224C131.582 99.9213 134.468 99.8296 136.386 99.9224C138.315 100.016 141.224 102.349 142.764 103.018C144.316 103.686 147.2 107.248 147.214 107.265C147.214 107.265 150.217 109.195 150.886 110.066C151.566 110.916 152.998 110.737 153.016 110.735C153.592 111.139 154.183 111.528 154.774 111.902C154.261 109.817 153.872 108.075 153.546 106.939C153.032 105.134 151.943 102.692 150.558 99.938C149.252 97.3555 147.68 94.4929 146.062 91.646C144.818 89.4368 143.386 87.7093 142.017 86.3247C141.691 85.9982 141.349 85.6719 141.022 85.3765L140.975 85.3296C140.789 85.1585 140.586 84.987 140.399 84.8159C139.964 84.4271 139.528 84.0849 139.124 83.7583C138.922 83.6028 138.735 83.4471 138.549 83.3071C137.724 82.6693 137.039 82.1401 136.588 81.689C135.981 81.0978 135.094 79.8686 134.161 78.5151C134.005 78.2973 133.85 78.0639 133.694 77.8306L133.227 77.1304C133.15 77.0215 133.072 76.8974 132.994 76.7886C132.449 75.9796 131.952 75.186 131.516 74.5015C131.454 74.4081 131.392 74.3145 131.33 74.2212C131.159 73.9413 130.987 73.6772 130.847 73.4595C130.661 73.1641 130.505 72.9304 130.396 72.7593ZM124.873 67.687C124.671 69.4294 124.266 71.8101 123.815 74.2993C123.784 74.3615 123.784 74.4237 123.784 74.4858C123.722 74.797 123.675 75.0927 123.613 75.4038C123.582 75.466 123.582 75.5281 123.582 75.5903C123.52 75.8859 123.473 76.1815 123.411 76.4771C123.411 76.5392 123.38 76.6014 123.38 76.6636C123.317 76.9591 123.271 77.2704 123.209 77.5659C123.131 77.9392 123.069 78.3284 122.991 78.7017C122.96 78.8728 122.928 79.0442 122.897 79.2153C122.757 79.8997 122.633 80.5531 122.509 81.1753C122.493 81.2686 122.446 81.3622 122.446 81.4399V81.5181C122.431 81.5801 122.399 81.6268 122.399 81.689C122.368 81.7046 122.369 81.7361 122.369 81.7671V81.8442C122.338 81.8754 122.338 81.9069 122.338 81.938C122.307 81.9689 122.306 81.9843 122.306 82.0151V82.062C122.291 82.1241 122.244 82.171 122.244 82.2485C122.213 82.3263 122.181 82.4042 122.15 82.4819V82.5132L122.057 82.6997V82.7466C122.042 82.7777 122.011 82.8092 122.011 82.8403L121.964 82.9331V82.9644C121.761 83.3377 121.513 83.6806 121.249 83.9917C121.156 84.0849 121.077 84.1778 120.984 84.271C120.891 84.3643 120.797 84.4579 120.704 84.5356C120.673 84.5668 120.626 84.5983 120.595 84.6294C119.055 86.4025 117.033 86.6978 116.021 86.729H115.85C115.702 86.7588 115.623 86.7602 115.617 86.7603H115.368V87.8804C115.368 87.9737 115.337 88.0829 115.337 88.1763V88.9077C115.306 89.1099 115.274 89.3277 115.243 89.5454V89.7476C115.321 89.8565 115.414 90.0121 115.523 90.2144L115.353 90.2446C116.045 90.3468 117.12 90.4449 119.319 90.1206C125.075 89.2961 125.449 84.4273 126.709 81.5024C127.269 80.2112 127.627 78.9659 127.86 77.7524C128.358 75.1545 128.218 72.6963 128 70.145C127.518 69.6007 127.176 69.2114 127.176 69.2114C127.155 69.2046 125.722 68.7371 124.873 67.687ZM132.59 68.9009C132.73 69.0875 132.869 69.2434 132.978 69.3989C133.289 69.8034 133.476 70.0679 133.476 70.0679C133.507 70.1145 133.555 70.1609 133.586 70.2075C133.616 70.2078 133.616 70.2388 133.616 70.2388C133.632 70.2698 133.663 70.3005 133.694 70.3315L133.725 70.3628C133.803 70.4405 133.881 70.5185 133.943 70.5962C133.974 70.6273 134.006 70.6432 134.037 70.6743C134.099 70.7209 134.177 70.7674 134.239 70.814C134.535 71.0006 134.814 71.0167 135.063 70.939H135.095L135.25 70.9702C135.468 70.908 135.67 70.7517 135.872 70.5806C135.903 70.5494 135.95 70.503 135.95 70.4097V68.6987C134.675 68.6521 133.197 68.4031 132.03 68.2319C132.232 68.4652 132.419 68.6987 132.59 68.9009ZM90.2889 69.9897C90.2734 69.9742 90.2583 69.9582 90.2274 69.9272C90.1963 69.8962 90.1647 69.8655 90.1336 69.8345L90.2889 69.9897Z" fill="#101619"/>
<path d="M188.103 38.271C187.999 37.2229 187.824 36.105 187.143 35.3015C186.462 34.498 185.099 34.1662 184.348 34.8823L184.855 35.4762C184.121 44.9085 187.44 51.7033 183.702 60.402C182.182 63.9653 181.71 69.8867 174.724 70.8998C168.855 71.7557 169.553 70.2361 167.317 71.354C166.881 71.5636 166.461 71.8955 166.322 72.3496C166.13 72.926 166.427 73.5549 166.793 74.0614C168.47 76.3671 169.763 76.8736 171.719 74.8125C172.121 74.3933 178.479 73.9391 181.151 71.4239C183.23 69.4675 183.684 66.3059 184.54 63.5636C187.108 55.3889 188.977 46.8125 188.121 38.271H188.103Z" fill="#046C7C"/>
<path d="M185.082 55.8432C185.256 56.21 185.431 56.5593 185.623 56.9261C185.798 57.258 185.972 57.5724 186.147 57.9043C187.806 51.4763 188.767 44.8737 188.103 38.2886C187.999 37.2405 187.824 36.1226 187.143 35.3191C186.461 34.5156 185.099 34.1837 184.348 34.8999L184.854 35.4938C184.261 43.2143 186.357 49.1707 185.099 55.8432H185.082Z" fill="#00144A"/>
<path d="M179.754 16.3671C177.518 9.64222 168.208 3.4064 161.012 7.65095C153.99 11.7907 143.37 13.0134 141.78 34.0789C141.675 34.3759 141.571 34.6903 141.501 34.9872C140.977 33.4676 139.282 29.6772 135.667 31.5811C131.195 33.9392 135.44 43.7209 138.025 45.6073C138.653 46.0615 139.894 47.5287 141.623 49.4851C141.85 55.6335 142.06 60.9261 142.06 60.9261L143.457 79.5113C143.457 79.5113 161.99 88.2449 164.592 88.2449C167.195 88.2449 169.588 68.2274 169.763 66.7951H170.077C170.077 66.7951 170.252 66.7951 170.549 66.7253C171.789 66.6903 174.252 66.341 176.121 64.175C177.256 63.1794 178.199 61.817 178.566 59.9654C179.737 53.9567 181.518 44.8737 181.623 41.5724C181.745 38.2711 181.972 23.0746 179.737 16.3497H179.754V16.3671Z" fill="#FFAB92"/>
<path d="M151.37 82.9696C150.287 81.3626 149.326 79.6857 148.575 77.8866C147.981 76.4543 147.492 74.8647 147.597 73.2927C147.702 71.7905 148.505 70.201 150.095 69.8516C151.143 69.6071 152.208 69.8167 153.256 69.7468C153.64 69.7468 154.077 69.6595 154.374 69.415C154.741 69.118 155.09 68.6115 155.02 68.1049C154.951 67.6333 154.601 67.1966 154.287 66.8647C153.885 66.4106 153.413 66.0263 152.977 65.6071C151.929 64.5765 154.252 58.4106 153.239 57.3451C151.213 55.1791 148.802 57.2752 147.143 54.8123C146.357 53.6595 142.828 53.1704 142.06 52.0176C141.937 51.8429 141.815 51.6507 141.693 51.4761C141.885 56.7337 142.06 60.9433 142.06 60.9433L143.457 79.5285C143.457 79.5285 147.178 81.2927 151.527 83.2141C151.475 83.1268 151.422 83.0569 151.352 82.9696H151.37Z" fill="#FF7F4C"/>
<path d="M179.754 16.3671C177.518 9.64222 168.208 3.4064 161.012 7.65095C153.99 11.7907 143.37 13.0134 141.78 34.0789C141.675 34.3759 141.571 34.6903 141.501 34.9872C140.977 33.4676 139.282 29.6772 135.667 31.5811C133.012 32.9785 133.833 37.7995 135.143 41.223C138.811 43.092 141.658 44.961 144.627 47.8082C147.667 50.7078 150.426 53.8868 153.134 57.1008C153.204 57.1881 153.239 57.258 153.256 57.3453C154.916 59.9305 156.68 62.4632 158.584 64.8912C161.553 68.6467 164.837 72.1925 168.557 75.2143C169.239 71.0571 169.71 67.389 169.78 66.8126H170.095C170.095 66.8126 170.269 66.8126 170.566 66.7427C171.806 66.7078 174.269 66.3584 176.138 64.1925C177.274 63.1969 178.217 61.8344 178.584 59.9829C179.754 53.9741 181.536 44.8912 181.64 41.5899C181.763 38.2885 181.99 23.092 179.754 16.3671Z" fill="#FF7F4C"/>
<path d="M177.256 60.891C175.405 60.4194 173.431 60.367 171.527 60.4368C167.649 60.5591 163.667 61.3801 160.261 63.3015C160.33 64.4543 161.064 65.5373 161.798 66.3932C162.531 67.2665 163.387 68.0526 164.365 68.6639C165.466 69.3451 166.619 69.9565 167.806 70.463C168.261 70.6552 168.732 70.8473 169.221 71.0045C169.536 68.8037 169.745 67.1967 169.78 66.8299H170.095C170.095 66.8299 170.269 66.8299 170.566 66.76C171.806 66.7251 174.269 66.3757 176.138 64.2098C177.012 63.4412 177.763 62.463 178.234 61.2054C177.92 61.1006 177.606 60.9958 177.274 60.9084V60.8735L177.256 60.891Z" fill="#A93E00"/>
<path d="M142.863 69.0483C142.863 69.0483 111.317 78.3235 111.859 82.0265C112.383 85.7296 115.038 128.402 120.61 141.118C126.182 153.834 121.413 162.324 120.61 169.468C119.806 176.629 119.073 185.433 120.924 186.551L202.13 186.516C202.13 186.516 202.601 172.647 200.558 166.551C200.558 166.551 199.772 166.306 200.365 152.088C200.959 137.869 201.396 125.101 200.365 121.433C199.335 117.765 201.082 117.904 202.182 119.092C203.283 120.262 206.077 122.324 208.715 122.9C211.352 123.494 224.483 132.986 233.287 132.846C242.09 132.707 240.104 131.406 241.274 127.826C242.444 124.227 224.261 101.345 224.261 101.345C224.261 101.345 220.47 99.4763 216.837 97.1008C213.204 94.7252 215.09 96.1925 214.13 96.0178C213.169 95.8431 213.082 95.7034 212.715 95.2492C212.348 94.7951 211.283 93.9567 210.322 93.258C209.361 92.5593 207.754 91.2143 206.654 90.0091C205.553 88.8038 203.894 87.1444 202.828 86.6903C200.942 85.8693 197.414 83.0396 195.073 82.9173C192.732 82.7951 189.186 82.9173 189.186 82.9173C189.186 82.9173 185.536 83.389 182.007 82.6903C178.479 81.9916 174.828 80.699 174.828 80.699C174.828 80.699 169.885 71.2492 169.309 70.4108C167.841 75.4588 169.78 77.747 164.593 80.3322C159.422 82.9173 142.863 69.0483 142.863 69.0483Z" fill="#3B5B7C"/>
<path d="M113.833 103.319C115.143 99.2492 117.064 95.3715 119.684 91.9829C121.134 90.0964 122.776 88.3671 124.592 86.8475C126.601 85.1532 128.785 83.7732 131.09 82.5505C133.536 81.258 136.051 80.1401 138.549 78.9697C140.907 77.8693 143.335 76.8038 145.448 75.2842C146.392 74.6029 147.23 73.8518 148.016 73.0483C145.012 70.8649 142.863 69.0483 142.863 69.0483C142.863 69.0483 111.317 78.3235 111.859 82.0265C112.086 83.6335 112.715 92.6291 113.815 103.302H113.833V103.319Z" fill="#00144A"/>
<path d="M130.374 163.18C131.719 162.289 133.186 161.608 134.688 161.066C135.859 160.647 137.081 160.28 138.304 160.053C139.282 159.878 140.278 159.843 141.274 159.791C142.234 159.739 143.23 159.669 144.156 159.424C144.732 159.267 145.239 159.057 145.588 158.656C143.964 157.87 142.199 157.433 140.453 157.014C138.514 156.542 136.592 156.035 134.811 155.127C132.068 153.73 129.815 151.634 127.929 149.223C126.042 146.813 126.112 146.743 125.221 145.485C124.313 144.175 123.387 142.883 122.461 141.59C121.221 139.826 119.998 138.027 118.916 136.158C119.44 138.097 119.999 139.791 120.592 141.136C126.164 153.852 121.396 162.341 120.592 169.485C119.789 176.647 119.003 184.996 120.854 186.114C120.942 186.167 121.186 186.219 121.571 186.254C121.571 185.904 121.571 185.555 121.64 185.223C121.763 184.298 122.199 183.477 122.811 182.778C123.37 182.132 124.033 181.608 124.523 180.909C124.942 180.298 125.309 179.651 125.658 179.005C127.055 176.332 128.33 173.188 131.212 171.791C132.767 171.04 134.601 170.865 136.313 170.83C138.112 170.795 139.911 170.97 141.71 171.145C144.942 171.442 148.505 171.843 151.527 170.446C150.898 169.415 149.571 168.891 148.418 168.594C146.985 168.21 145.483 168.07 144.016 167.966C143.37 167.913 142.723 167.878 142.095 167.808C141.378 167.739 140.645 167.599 139.946 167.459C138.182 167.127 136.435 166.743 134.723 166.201C133.151 165.695 131.544 165.066 130.269 163.983C129.99 163.756 130.112 163.319 130.374 163.145V163.18Z" fill="#00144A"/>
<path d="M164.121 80.4893C164.365 81.4151 164.802 82.2884 165.309 83.1094C166.007 84.2448 166.828 85.2753 167.702 86.2535C169.466 88.1924 171.544 90.0264 173.937 91.1443C174.916 91.5985 175.824 91.8081 176.889 91.7208C177.169 91.7208 177.466 91.6684 177.728 91.5461C177.728 91.5461 177.728 91.5112 177.693 91.4937C177.693 91.4937 177.641 91.4238 177.623 91.4238C177.448 91.2317 177.274 91.0745 177.064 90.9173C176.138 90.1836 175.073 89.5723 174.112 88.8387C172.575 87.6684 171.3 86.2186 169.868 84.9435C169.501 84.6116 169.099 84.3321 168.75 84.0177C168.523 83.8256 168.348 83.581 168.156 83.3539C167.684 82.795 167.23 82.2011 166.758 81.6421C166.287 81.0832 165.798 80.5242 165.221 80.0876C165.186 80.0876 165.169 80.0526 165.151 80.0352C164.959 80.14 164.785 80.2273 164.592 80.3321C164.4 80.4369 164.121 80.5068 164.121 80.5068V80.4893Z" fill="#00144A"/>
<path d="M195.702 181.45C195.911 181.572 196.156 181.66 196.383 181.66C197.274 181.66 198.025 180.577 198.601 179.948C198.951 179.581 199.317 179.197 199.789 178.987C200.208 178.795 200.68 178.708 201.134 178.708C201.588 178.708 201.815 178.76 202.13 178.865C201.99 174.69 201.606 169.695 200.575 166.585C200.575 166.585 199.789 166.341 200.383 152.123C200.47 149.922 200.558 147.773 200.645 145.66C200.592 145.782 200.54 145.904 200.488 146.026C199.282 148.769 197.833 151.406 196.592 154.131C195.195 157.188 193.903 160.315 192.662 163.441C191.457 166.498 190.339 169.59 189.099 172.629C188.54 174.009 187.929 175.372 187.457 176.786C187.143 177.73 186.881 178.725 186.811 179.721C188.068 178.271 188.977 176.297 189.85 174.551C190.881 172.542 191.876 170.463 193.274 168.664C194.287 167.371 195.772 166.027 197.553 166.428C199.213 166.795 199.51 168.716 199.457 170.131C199.387 172.018 198.898 173.904 198.304 175.686C198.06 176.437 197.78 177.188 197.448 177.904C197.116 178.638 196.645 179.232 196.173 179.878C195.911 180.245 195.544 180.751 195.509 181.118V181.258C195.509 181.188 195.509 181.258 195.509 181.293C195.544 181.363 195.614 181.415 195.702 181.468V181.45Z" fill="#00144A"/>
<path d="M148.697 86.0267C147.614 85.8695 146.549 85.4503 145.571 84.9961C143.876 84.2276 142.322 83.2319 140.907 82.0442C140.4 81.6249 139.911 81.2057 139.387 80.8389C140.54 82.2363 141.518 83.7909 142.584 85.2407C143.702 86.7429 144.924 88.3149 146.496 89.3629C147.876 90.2712 149.326 90.4808 150.776 89.5725C151.789 88.9263 152.627 88.0005 153.431 87.1271C154.287 86.2014 155.178 85.328 156.243 84.6468C157.309 83.983 158.339 83.2843 159.23 82.3935C160.121 81.5027 160.138 81.3629 160.453 80.769C159.247 81.7123 158.042 82.638 156.75 83.4765C155.125 84.5245 153.361 85.4852 151.457 85.9044C150.549 86.0966 149.64 86.1664 148.715 86.0442H148.697V86.0267Z" fill="#00144A"/>
<path d="M125.815 75.0048C125.815 75.0048 121.745 72.1227 114.269 74.341C106.793 76.5768 105.693 83.6685 105.693 86.6729C105.693 89.6773 101.675 109.118 107.579 115.686C113.483 122.254 121.885 126.97 128.575 123.162C128.575 123.162 129.623 122.498 131.597 115.808C133.571 109.118 138.549 99.0048 138.549 99.0048C138.549 99.0048 134.357 102.289 122.269 91.3891L118.601 88.2275C118.601 88.2275 127.789 89.6598 127.387 84.9436C126.985 80.2275 125.815 74.9698 125.815 74.9698V75.0048Z" fill="#3B5B7C"/>
<path d="M118.881 88.0176C118.881 88.1398 118.584 88.1399 118.479 88.2621C117.431 89.4848 116.732 91.3538 115.771 92.6464C114.252 94.725 112.82 96.8735 111.44 99.0394C110.846 99.9827 110.269 100.943 109.833 101.956C109.588 102.515 109.378 103.127 109.291 103.738C109.518 103.494 109.693 103.214 109.833 102.935C110.182 102.341 110.461 101.712 110.863 101.153C111.387 100.437 111.946 99.7381 112.54 99.0744C113.151 98.3931 113.833 97.7643 114.427 97.0831C114.898 96.5591 115.335 96.0001 115.894 95.5634C116.173 95.3538 116.47 95.1966 116.802 95.0918C117.099 95.0045 117.518 94.9171 117.798 95.0918C118.042 95.2141 118.077 95.4586 118.252 95.6333C118.304 95.6857 118.252 95.7032 118.374 95.6333C118.566 95.4936 118.706 95.249 118.846 95.0569C119.02 94.8298 119.195 94.6027 119.44 94.4455C119.876 94.1835 120.505 93.9739 120.994 94.2534C121.483 94.5329 121.763 95.1268 122.165 95.511C122.741 96.0525 123.405 96.5241 124.051 96.9608C124.697 97.3975 125.326 97.8691 125.972 98.3233C127.108 99.1093 128.296 99.8254 129.588 100.297C130.985 100.786 132.453 100.908 133.92 100.978C135.178 101.031 136.453 101.013 137.675 100.751C138.182 99.6683 138.514 99.022 138.514 99.022C138.514 99.022 134.322 102.306 122.234 91.4062L118.881 88.0176Z" fill="#00144A"/>
<path d="M127.405 84.9784C127.003 80.2623 125.833 75.0046 125.833 75.0046C125.833 75.0046 123.527 73.3627 119.195 73.5199H119.143C119.073 73.5199 119.02 73.5199 118.95 73.5548C118.811 73.5548 118.688 73.5898 118.549 73.6247C118.234 73.6771 117.92 73.747 117.606 73.7994C116.819 73.9566 116.051 74.1487 115.282 74.3758C114.549 74.6029 113.815 74.8474 113.134 75.1793C112.837 75.3365 112.54 75.4937 112.261 75.6858C112.138 75.7732 112.226 75.6858 112.121 75.7906C112.068 75.8256 112.033 75.878 111.981 75.9129C111.946 75.9478 111.894 76.0002 111.859 76.0526C111.859 76.0526 111.859 76.0876 111.824 76.105C111.824 76.14 111.771 76.1924 111.754 76.2273C111.754 76.2273 111.719 76.3147 111.719 76.3321V76.367V76.4195C111.754 76.4195 111.824 76.4719 111.824 76.4719C111.964 76.5417 112.138 76.5767 112.295 76.5941C113.029 76.7339 113.92 76.664 114.566 77.1007C114.898 77.3278 114.916 77.7994 114.566 78.009C114.077 78.3059 113.553 78.533 113.029 78.7426C111.929 79.2142 110.758 79.6509 109.798 80.3845C109.134 80.8911 108.767 81.485 108.785 82.2011C110.234 81.2579 111.457 79.9653 113.029 79.2317C114.688 78.4631 116.592 78.4631 118.287 79.1444C119.841 79.7732 121.134 80.8561 122.234 82.0963C123.387 83.3889 124.365 84.8387 125.326 86.271C125.606 86.6727 125.885 87.092 126.164 87.4937C127.02 86.9697 127.544 86.1662 127.44 84.9435L127.405 84.9784Z" fill="#00144A"/>
<path d="M125.291 121.66C123.789 121.38 122.374 120.839 120.977 120.245C119.544 119.634 118.13 118.952 116.785 118.184C114.217 116.699 111.859 114.865 109.675 112.874C108.575 111.878 107.527 110.83 106.479 109.765C105.937 109.206 105.413 108.647 104.872 108.088C104.802 108 104.715 107.931 104.645 107.843C105.047 111.04 105.92 113.887 107.579 115.721C113.483 122.289 121.885 127.005 128.575 123.197C128.575 123.197 128.872 123.005 129.448 121.835H129.361C127.999 121.992 126.636 121.922 125.291 121.66Z" fill="#00144A"/>
<path d="M141.798 33.7296C141.763 34.1313 141.221 34.2361 141.047 33.8693C140.226 32.175 138.566 30.044 135.667 31.5811C131.195 33.9392 135.44 43.7209 138.025 45.6073C140.61 47.4938 153.116 66.1139 170.077 66.8126C170.077 66.8126 177.378 65.9916 178.566 59.9829C179.737 53.9741 181.518 44.8912 181.623 41.5899C181.745 38.2885 181.972 23.092 179.737 16.3671C177.501 9.64222 168.191 3.4064 160.994 7.65095C154.007 11.7732 143.457 12.9959 141.798 33.7296Z" fill="#FFAB92"/>
<path d="M179.841 47.1793C179.579 49.2229 178.846 51.0919 178.007 52.9609C177.571 53.9042 177.117 54.8299 176.715 55.7906C176.313 56.6989 175.999 57.6247 175.684 58.5505C174.706 61.3976 172.82 63.843 170.007 65.0308C168.383 65.7295 166.636 65.9915 164.872 66.0264C166.566 66.4631 168.313 66.7775 170.095 66.8474C170.095 66.8474 174.619 67.1094 177.396 62.8299C177.833 62.1487 178.095 61.6596 178.287 61.0832C178.479 60.5068 178.479 60.402 178.584 59.9653C179.754 53.9566 181.536 44.8736 181.641 41.5723C181.71 39.581 181.833 33.2753 181.413 27.1094C180.732 29.1705 180.488 31.3714 180.54 33.5897C180.575 34.6727 180.68 35.7557 180.697 36.8386C180.697 37.9915 180.697 39.1443 180.61 40.2972C180.453 42.6028 180.138 44.8736 179.841 47.1618V47.1793Z" fill="#FF7F4C"/>
<path d="M168.977 41.5899C168.924 41.8169 168.889 42.0615 168.854 42.2886H168.959C169.134 42.2362 169.291 42.1488 169.448 41.9916C169.675 41.7645 169.78 41.6248 169.937 41.3628C170.007 41.2405 170.077 41.1008 170.147 40.9785C169.763 41.2231 169.379 41.4501 168.959 41.6248L168.977 41.5899Z" fill="#FF7F4C"/>
<path d="M181.466 23.8429C180.365 23.5634 179.16 23.6682 178.025 23.5809C176.75 23.4936 175.457 23.3538 174.182 23.4237C172.61 23.4936 170.985 23.8953 169.728 24.891C169.518 25.0482 169.274 25.2578 168.994 25.4674C169.815 25.7643 170.619 26.0787 171.387 26.4805C172.924 27.284 174.199 28.4543 174.828 30.0962C175.405 31.5809 175.335 33.1355 174.863 34.6202C175.929 35.3189 174.828 37.6071 175.509 39.7905C176.086 41.6595 182.531 38.5504 182.811 34.7949C183.003 32.1748 186.426 25.118 181.483 23.8429H181.466Z" fill="#FF7F4C"/>
<path d="M190.619 28.4371C190.566 27.6161 190.409 26.7602 189.955 26.079C189.413 25.2755 188.523 24.7864 187.841 24.0877C185.536 21.7122 186.304 17.8519 185.693 14.5855C185.012 10.9349 182.304 7.73837 178.811 6.48072C176.453 5.62483 173.798 5.6947 171.44 6.55059C169.431 2.74273 165.134 0.0353017 160.802 0.524385C158.164 0.821329 155.754 2.07897 153.239 3.0222C151.894 2.13137 150.304 1.62482 148.575 1.62482C146.042 1.62482 143.771 2.74273 142.217 4.50692C140.662 6.27112 141.309 5.18815 140.75 5.27548C136.907 5.81697 132.942 6.865 130.095 9.48509C127.247 12.1227 125.885 16.6991 127.946 20.0004C128.068 20.21 128.086 20.4545 127.981 20.6816C127.317 22.1139 126.95 23.7035 126.95 25.3803C126.95 29.2056 128.872 32.5768 131.806 34.603C132.522 35.0921 132.942 35.9131 132.942 36.769C132.942 37.6249 132.942 37.7297 132.994 38.2013C133.239 41.1882 134.496 44.0878 136.523 46.2886C134.706 48.7166 134.671 52.3323 136.453 54.7952C138.234 57.2581 141.693 58.341 144.557 57.3629C144.645 57.6249 144.924 57.7646 145.169 57.6773C146.287 57.3279 146.968 56.1052 147.143 54.8301C146.584 54.3585 146.042 53.8345 145.518 53.3105C143.736 51.5288 142.182 49.5725 140.365 47.8258C138.758 46.2886 136.959 44.7515 135.841 42.7777C134.723 40.8039 134.025 38.1663 134.06 35.7908C135.317 36.2799 136.697 36.5594 138.147 36.5594C139.597 36.5594 141.885 36.0703 143.474 35.2144C144.068 35.5812 144.627 36.0004 145.186 36.4371C146.147 37.1882 147.108 37.9567 148.033 38.7602C148.557 39.2144 149.064 39.686 149.536 40.1926C149.833 40.507 150.339 40.472 150.584 40.1052C151.457 38.7952 152.191 37.4502 152.453 35.9305C152.924 33.2406 151.824 30.5506 151.457 27.8607C151.09 25.1532 151.894 21.817 154.496 20.9786C156.278 20.4021 158.147 21.2406 159.981 21.5899C164.715 22.5157 169.71 19.5462 171.737 15.2493C172.086 15.3366 172.435 15.424 172.75 15.5986C175.003 16.7165 175.055 20.0179 176.889 21.7471C179.073 23.7908 183.457 23.3017 184.033 26.5681C184.068 26.8126 184.086 27.0746 184.086 27.3192C183.946 31.0921 182.13 36.8738 181.693 41.0135C186.409 39.5987 190.968 33.3629 190.671 28.4545H190.601L190.619 28.4371Z" fill="#340800"/>
<path d="M140.872 16.996C141.029 16.9436 141.134 16.8912 141.343 16.7864C141.85 16.5244 142.217 16.2449 142.636 15.8606C143.457 15.092 144.103 14.0964 144.488 13.0833C144.889 12.0353 145.047 10.9174 144.802 9.88679C144.75 9.67719 144.68 9.48505 144.61 9.29291C142.828 8.73396 141.029 8.29727 139.16 8.29727H138.147C134.095 6.69028 130.584 10.7427 129.291 14.1837C128.959 15.0571 128.662 16.0527 128.75 16.996C128.819 17.7121 129.326 18.2187 130.06 18.0615C130.758 17.9217 131.387 17.4152 131.929 16.9785C132.523 16.5069 133.099 15.9829 133.693 15.4938C133.798 15.4065 133.902 15.3191 134.025 15.2318C134.077 15.1968 134.13 15.1619 134.182 15.127C134.182 15.127 134.217 15.127 134.234 15.092C134.077 15.1968 134.304 15.0571 134.357 15.0222C134.828 14.7427 135.37 14.4807 135.929 14.4632C136.819 14.4283 137.553 15.127 138.234 15.6685C139.038 16.2973 139.894 16.8912 140.907 16.996H140.872Z" fill="#450B00"/>
<path d="M170.793 8.05263C170.741 7.1618 170.723 6.2535 170.723 5.3452C168.505 2.18363 164.68 0.0700863 160.802 0.506768C158.182 0.803712 155.771 2.04389 153.291 2.98712C152.977 4.03516 152.977 5.15306 153.448 6.18363C153.833 7.02206 154.374 7.77315 154.846 8.57665C155.352 9.45001 155.719 10.4107 155.771 11.4238C155.824 12.6116 155.422 13.6422 154.758 14.4981C154.426 14.9347 153.536 15.581 152.645 16.1574C152.103 16.5068 152.348 17.3452 152.994 17.3452C153.64 17.3452 154.723 17.3802 155.212 17.485C155.859 17.6072 156.488 17.7819 157.134 18.0264C158.496 18.5505 159.789 19.2491 161.047 19.9653C161.99 20.5068 162.933 21.0657 163.929 21.485C167.003 20.7863 169.78 18.7077 171.352 15.9653C171.562 13.3627 170.968 10.4806 170.828 8.05263H170.793Z" fill="#450B00"/>
<path d="M179.632 23.1792C180.208 23.3888 180.383 23.581 180.54 23.8255C181.029 24.629 181.099 25.6072 180.785 26.4805C180.348 27.6683 179.911 28.4543 181.099 32.4718C181.553 34.0089 181.431 39.4238 181.675 40.9958C182.881 40.367 189.344 41.9216 190.654 28.4369C190.741 27.6159 190.444 26.76 189.99 26.0788C189.448 25.2753 188.558 24.7862 187.876 24.0875C185.571 21.712 186.339 17.8517 185.728 14.5853C185.047 10.9346 182.339 7.73814 178.846 6.4805C177.745 6.07875 176.575 5.88661 175.387 5.86914C175.178 7.68574 175.073 9.50233 175.09 11.3364C175.125 13.9041 175.422 16.5067 176.33 18.9172C176.977 20.6465 178.427 21.8342 179.649 23.1792H179.632Z" fill="#450B00"/>
<path d="M171.387 52.4544C170.741 52.4195 172.226 53.1007 171.614 52.9959C171.02 52.8911 170.514 52.8562 169.239 52.9959C168.575 53.0658 163.527 53.7994 162.881 53.3453C164.365 54.2885 164.994 55.616 169.99 56.0177C172.697 56.2274 174.077 56.402 174.776 54.5156C174.741 54.6378 172.715 52.5243 171.37 52.4719L171.387 52.4544Z" fill="#D20A0A"/>
<path d="M162.636 52.8387C162.636 52.8387 168.103 51.1095 169.553 51.389C170.514 51.5636 171.929 51.7732 172.854 51.7732C173.78 51.7732 176.82 52.6466 174.741 54.5331C174.741 54.5331 173.151 53.6772 170.304 53.4676C167.457 53.258 162.793 54.3759 162.636 52.8387Z" fill="#D20A0A"/>
<path d="M168.872 43.249C168.662 44.1573 169.116 44.9958 170.234 44.9958C171.352 44.9958 171.125 45.0831 171.51 45.3102C172.645 45.9914 174.269 45.7818 175.143 45.2578C175.213 45.2054 175.317 45.2578 175.317 45.3451C175.317 45.5372 175.317 45.8342 174.636 46.4281C173.903 47.0569 173.606 47.1792 172.994 47.1792C171.789 47.1792 169.309 46.6027 168.575 46.4455C168.191 46.4455 167.876 46.5154 167.859 46.5154C166.846 44.9434 167.614 43.7032 168.872 43.249Z" fill="#A93E00"/>
<path d="M171.108 46.9694C170.112 46.3929 169.902 46.2183 168.959 46.1484C168.208 46.0785 167.684 46.5327 167.946 46.5851C168.453 46.6899 171.125 46.9694 171.125 46.9694H171.108Z" fill="#00144A"/>
<path d="M158.304 42.1485C158.304 42.1485 156.662 40.6289 156.173 40.6638C155.684 40.6638 155.771 36.9782 155.771 36.9782C155.771 36.9782 156.226 30.0612 159.317 27.4411C160.47 26.4629 164.191 23.5634 166.252 24.0175C167.422 24.2795 167.597 23.3887 168.732 22.8996C169.116 22.7424 169.483 22.3581 169.815 21.9214C170.409 21.1354 169.763 20.035 168.802 20.1747C166.654 20.4891 161.955 21.083 159.247 22.1834C154.863 23.9651 144.959 29.3625 143.073 31.4236C141.745 32.8559 142.252 34.5503 142.357 38.8821C142.514 45.4324 142.968 48.4018 142.13 50.1136C140.907 52.6114 140.348 53.4673 140.348 53.4673C140.348 53.4673 137.186 62.6202 129.221 72.6114C121.693 82.0787 118.881 88.0176 118.881 88.0176C118.881 88.0176 131.108 101.782 138.357 99.3364C138.357 99.3364 138.461 99.2141 138.514 99.0219C139.492 95.7556 147.911 67.4062 149.815 63.4411C153.099 56.6114 153.256 57.3101 154.758 56.2097C156.348 55.0568 160.016 50.1485 161.553 48.035C162.654 46.5153 170.234 45.0132 171.108 42.6725C171.632 41.2926 169.78 37.2053 164.173 41.9739" fill="#FFAB92"/>
<path d="M164.662 41.572C164.365 41.8165 163.981 41.9563 163.597 41.9563L159.003 42.1135C158.566 42.1135 158.13 41.9737 157.78 41.6943C157.256 41.2576 156.47 40.6288 156.173 40.6462C155.684 40.6462 155.772 36.9606 155.772 36.9606C155.772 36.9606 156.226 30.0436 159.317 27.4235C160.47 26.4453 164.191 23.5458 166.252 23.9999C167.422 24.2619 167.597 23.3711 168.732 22.882C169.117 22.7248 169.483 22.3405 169.815 21.9038C170.409 21.1178 169.763 20.0174 168.802 20.1571C166.654 20.4715 161.955 21.0654 159.248 22.1659C157.99 22.6724 156.296 23.4759 154.461 24.4191C154.322 24.489 154.182 24.5589 154.025 24.6462C153.937 24.6811 153.868 24.7335 153.78 24.7685C153.675 24.8209 153.588 24.8733 153.483 24.9257C153.396 24.9606 153.326 25.013 153.239 25.048C153.099 25.1178 152.942 25.2052 152.802 25.275C152.715 25.3274 152.627 25.3624 152.54 25.4148C152.435 25.4672 152.313 25.537 152.208 25.5894C152.121 25.6418 152.051 25.6768 151.964 25.7292C151.859 25.7816 151.737 25.8515 151.632 25.9039C151.527 25.9563 151.492 25.9737 151.422 26.0261C151.247 26.1135 151.09 26.2008 150.916 26.3056C150.846 26.3405 150.776 26.3929 150.706 26.4279C150.601 26.4977 150.479 26.5501 150.374 26.62C150.304 26.6549 150.234 26.7073 150.165 26.7423C149.99 26.8296 149.833 26.9344 149.658 27.0218C149.606 27.0567 149.571 27.0742 149.518 27.1091C149.396 27.179 149.256 27.2488 149.134 27.3362C149.064 27.3711 148.994 27.406 148.942 27.4584C148.82 27.5283 148.697 27.5982 148.575 27.668C148.523 27.703 148.47 27.7204 148.418 27.7554C148.261 27.8427 148.086 27.9475 147.929 28.0349C147.876 28.0698 147.824 28.1047 147.772 28.1222C147.649 28.1921 147.544 28.2619 147.422 28.3318C147.37 28.3667 147.317 28.4017 147.265 28.4366C147.108 28.5239 146.951 28.6287 146.811 28.7161C146.811 28.7161 146.758 28.751 146.741 28.751C146.601 28.8384 146.479 28.9082 146.357 28.9956C146.304 29.0305 146.269 29.048 146.217 29.0829C146.095 29.1528 145.99 29.2226 145.885 29.31C145.85 29.31 145.815 29.3449 145.78 29.3798C145.64 29.4672 145.501 29.5545 145.378 29.6419C145.344 29.6419 145.309 29.6943 145.274 29.7117C145.169 29.7816 145.082 29.8515 144.977 29.9213C144.942 29.9213 144.907 29.9737 144.872 29.9912C144.75 30.0785 144.627 30.1659 144.523 30.2357C144.418 30.3056 144.313 30.3929 144.208 30.4628C144.173 30.4628 144.156 30.5152 144.121 30.5327C144.034 30.6026 143.964 30.655 143.894 30.7074C143.894 30.7074 143.859 30.7423 143.824 30.7598C143.737 30.8296 143.649 30.8995 143.562 30.9694C143.562 30.9694 143.527 31.0043 143.509 31.0218C143.44 31.0742 143.387 31.1266 143.335 31.179C143.282 31.2314 143.3 31.2139 143.282 31.2314C143.213 31.3012 143.16 31.3536 143.108 31.406C141.78 32.8384 142.287 34.5327 142.392 38.8646C142.549 45.4148 143.003 48.3842 142.165 50.096C140.942 52.5938 140.383 53.4497 140.383 53.4497V53.5895C140.383 53.6244 140.348 53.6768 140.33 53.7292V53.7816C140.33 53.8166 140.296 53.8515 140.278 53.9039V53.9563C140.191 54.1659 140.086 54.4454 139.946 54.7773C139.405 56.1048 138.427 58.2882 136.959 61.0131C136.575 61.7292 136.156 62.4803 135.702 63.2489C135.702 63.2838 135.667 63.3013 135.649 63.3362C135.544 63.5284 135.422 63.703 135.317 63.8952C135.073 64.3144 134.828 64.7161 134.566 65.1353C134.392 65.4148 134.199 65.7118 134.025 66.0087C133.85 66.2882 133.658 66.5851 133.466 66.8646C133.466 66.8646 133.466 66.8995 133.431 66.917C133.256 67.1965 133.064 67.4585 132.889 67.738C132.889 67.7729 132.854 67.7904 132.82 67.8428C132.645 68.1048 132.47 68.3668 132.278 68.6288L132.243 68.6637C132.208 68.6987 132.191 68.7336 132.173 68.7685C131.999 69.0131 131.824 69.2576 131.649 69.5022C131.597 69.572 131.562 69.6244 131.509 69.6943C131.335 69.9214 131.16 70.1659 130.985 70.393C130.985 70.393 130.951 70.4454 130.933 70.4629C130.898 70.5153 130.846 70.5677 130.811 70.6375C130.636 70.8646 130.461 71.1092 130.269 71.3362V71.3712C130.217 71.441 130.165 71.5109 130.112 71.5808C129.868 71.8952 129.623 72.2096 129.361 72.524C121.833 81.9913 119.02 87.9301 119.02 87.9301L119.055 87.9651L119.09 88C119.09 88 119.125 88.0349 119.143 88.0524L119.178 88.0873C119.178 88.0873 119.23 88.1397 119.247 88.1572C119.247 88.1572 119.3 88.2096 119.317 88.2271C119.352 88.262 119.37 88.2969 119.405 88.3319C119.405 88.3319 119.405 88.3668 119.457 88.3843C119.457 88.3843 119.457 88.4192 119.492 88.4192C119.544 88.4716 119.597 88.524 119.649 88.5764C119.684 88.6114 119.719 88.6463 119.754 88.6812C119.806 88.7511 119.876 88.8035 119.946 88.8734C119.981 88.9083 120.016 88.9432 120.051 88.9782C120.121 89.0655 120.208 89.1354 120.295 89.2227C120.33 89.2577 120.348 89.2751 120.383 89.3101L120.907 89.8341C120.977 89.9039 121.029 89.9563 121.116 90.0262C121.169 90.0961 121.221 90.1485 121.291 90.2009C121.344 90.2533 121.396 90.3057 121.466 90.3581H121.501L121.536 90.393C121.588 90.4454 121.658 90.5153 121.728 90.5677C121.78 90.6201 121.833 90.6725 121.885 90.7074C121.885 90.7074 121.937 90.7598 121.955 90.7773C122.025 90.8472 122.095 90.8996 122.147 90.9694C122.182 91.0044 122.217 91.0393 122.269 91.0742C122.269 91.0742 122.304 91.1092 122.339 91.1266C122.339 91.1266 122.392 91.1791 122.409 91.1965C122.479 91.2664 122.549 91.3188 122.619 91.3887C122.654 91.4236 122.689 91.4411 122.723 91.476L122.758 91.5109C122.811 91.5459 122.846 91.5983 122.898 91.6332C122.968 91.7031 123.038 91.7555 123.108 91.8253C123.108 91.8253 123.143 91.8603 123.16 91.8777C123.16 91.8777 123.195 91.9127 123.213 91.9127C123.265 91.9651 123.317 92 123.37 92.0524C123.475 92.1398 123.562 92.2271 123.667 92.3144C123.789 92.4192 123.894 92.524 124.016 92.6288C124.051 92.6288 124.068 92.6812 124.103 92.6987C127.02 95.214 130.758 97.9564 134.199 99.0044C135.667 99.4411 136.959 97.9389 136.33 96.5415C136.296 96.4542 136.261 96.3668 136.208 96.2795C133.85 90.8646 132.767 84.0524 134.217 78.2882C134.898 75.5458 136.121 72.9956 137.221 70.4105C138.304 67.8428 138.951 65.1528 140.016 62.5851C140.348 61.7642 140.697 60.9257 141.116 60.1397C141.536 59.3362 141.972 58.5502 142.409 57.7467C143.265 56.1222 144.103 54.4978 144.889 52.8209C145.623 51.2314 146.357 49.5895 146.863 47.9126C147.265 46.5502 147.475 45.1353 147.789 43.7554C148.086 42.4104 148.453 41.013 149.221 39.8602C149.658 39.2139 150.776 37.5021 151.597 38.7248C151.719 38.917 151.824 39.144 151.894 39.3711C152.138 40.1746 152.296 41.013 152.348 41.8689C152.47 43.6855 152.156 45.5196 151.911 47.3187C151.911 47.441 151.876 47.5633 151.911 47.6855C151.999 47.8777 152.243 47.9301 152.453 47.9476C153.553 48.0349 154.636 47.6157 155.597 47.0917C156.575 46.5676 157.501 45.9388 158.531 45.572C158.985 45.4148 159.544 45.31 159.946 45.572C160.296 45.8165 160.418 46.2882 160.348 46.7074C160.278 47.1266 160.051 47.4934 159.824 47.8427C158.025 50.4454 155.16 52.1572 153.186 54.6375C152.435 55.5982 152.173 56.489 152.488 57.6594C152.54 57.834 152.592 58.0262 152.645 58.2008C153.588 56.7161 154.007 56.7161 154.916 56.0524C156.505 54.8995 160.173 49.9912 161.71 47.8777C162.811 46.358 170.252 45.1353 171.265 42.5152C171.772 41.1702 170.025 37.2576 164.785 41.4323L164.715 41.5545L164.662 41.572Z" fill="#A93E00"/>
<path d="M149.955 38.8824C150.112 38.5156 150.269 38.1488 150.444 37.782C151.614 35.3366 153.256 33.0658 155.248 31.2143C156.086 30.4283 156.994 29.7296 157.955 29.1007C158.339 28.4545 158.793 27.8606 159.335 27.4064C160.488 26.4282 164.208 23.5287 166.269 23.9828C167.44 24.2448 167.614 23.354 168.75 22.8649C169.134 22.7077 169.501 22.3234 169.833 21.8868C170.427 21.1007 169.78 20.0003 168.82 20.14C166.671 20.4544 161.972 21.0483 159.265 22.1488C158.007 22.6553 156.313 23.4588 154.479 24.402C154.339 24.4719 154.2 24.5418 154.042 24.6291C153.955 24.6641 153.885 24.7165 153.798 24.7514C153.693 24.8038 153.606 24.8562 153.501 24.9086C153.413 24.9435 153.344 24.9959 153.256 25.0309C153.117 25.1007 152.959 25.1881 152.82 25.2579C152.732 25.3103 152.645 25.3453 152.558 25.3977C152.453 25.4501 152.331 25.52 152.226 25.5724C152.138 25.6248 152.068 25.6597 151.981 25.7121C151.876 25.7645 151.754 25.8344 151.649 25.8868C151.544 25.9392 151.51 25.9566 151.44 26.009C151.265 26.0964 151.108 26.1837 150.933 26.2885C150.863 26.3234 150.793 26.3758 150.724 26.4108C150.619 26.4807 150.496 26.5331 150.392 26.6029C150.322 26.6379 150.252 26.6903 150.182 26.7252C150.007 26.8125 149.85 26.9173 149.675 27.0047C149.623 27.0396 149.588 27.0571 149.536 27.092C149.413 27.1619 149.274 27.2317 149.151 27.3191C149.082 27.354 149.012 27.3889 148.959 27.4414C148.837 27.5112 148.715 27.5811 148.593 27.651C148.54 27.6859 148.488 27.7034 148.435 27.7383C148.278 27.8256 148.103 27.9304 147.946 28.0178C147.894 28.0527 147.841 28.0876 147.789 28.1051C147.667 28.175 147.562 28.2448 147.44 28.3147C147.387 28.3496 147.335 28.3846 147.282 28.4195C147.125 28.5069 146.968 28.6117 146.828 28.699C146.828 28.699 146.776 28.7339 146.758 28.7339C146.619 28.8213 146.496 28.8911 146.374 28.9785C146.322 29.0134 146.287 29.0309 146.234 29.0658C146.112 29.1357 146.007 29.2055 145.903 29.2929C145.868 29.2929 145.833 29.3278 145.798 29.3628C145.658 29.4501 145.518 29.5374 145.396 29.6248C145.361 29.6248 145.326 29.6772 145.291 29.6946C145.186 29.7645 145.099 29.8344 144.994 29.9042C144.959 29.9042 144.924 29.9566 144.889 29.9741C144.767 30.0614 144.645 30.1488 144.54 30.2186C144.435 30.2885 144.33 30.3759 144.226 30.4457C144.191 30.4457 144.173 30.4981 144.138 30.5156C144.051 30.5855 143.981 30.6379 143.911 30.6903C143.911 30.6903 143.876 30.7252 143.841 30.7427C143.754 30.8125 143.667 30.8824 143.579 30.9523C143.579 30.9523 143.544 30.9872 143.527 31.0047C143.457 31.0571 143.405 31.1095 143.352 31.1619C143.3 31.2143 143.317 31.1968 143.3 31.2143C143.23 31.2842 143.178 31.3366 143.125 31.389C141.798 32.8213 142.304 34.5156 142.409 38.8475C142.566 45.3977 143.02 48.3671 142.182 50.0789C140.959 52.5768 140.4 53.4326 140.4 53.4326V53.5724C140.4 53.6073 140.365 53.6597 140.348 53.7121V53.7645C140.348 53.7995 140.313 53.8344 140.296 53.8868V53.9392C140.208 54.1488 140.103 54.4283 139.964 54.7602C139.422 56.0877 138.444 58.2711 136.977 60.996C136.592 61.7121 136.173 62.4632 135.719 63.2318C135.719 63.2667 135.684 63.2842 135.667 63.3191C135.562 63.5113 135.44 63.6859 135.335 63.8781C135.09 64.2973 134.846 64.699 134.584 65.1183C134.409 65.3977 134.217 65.6947 134.042 65.9916C133.868 66.2711 133.675 66.568 133.483 66.8475C133.483 66.8475 133.483 66.8824 133.448 66.8999C133.274 67.1794 133.082 67.4414 132.907 67.7209C132.907 67.7558 132.872 67.7733 132.837 67.8257C132.662 68.0877 132.488 68.3497 132.296 68.6117L132.261 68.6466C132.226 68.6816 132.208 68.7165 132.191 68.7514C132.016 68.996 131.841 69.2405 131.667 69.4851C131.614 69.5549 131.579 69.6073 131.527 69.6772C131.352 69.9043 131.178 70.1488 131.003 70.3759C131.003 70.3759 130.968 70.4283 130.951 70.4458C130.916 70.4982 130.863 70.5506 130.828 70.6204C130.654 70.8475 130.479 71.0921 130.287 71.3191V71.3541C130.234 71.4239 130.182 71.4938 130.13 71.5637C129.885 71.8781 129.641 72.1925 129.379 72.5069C121.85 81.9742 118.968 88.0178 118.968 88.0178C118.968 88.0178 118.985 88.0528 119.038 88.1052C119.143 88.2274 119.37 88.472 119.649 88.7515C120.313 89.4501 121.239 90.3934 121.413 90.5156C121.448 90.5506 125.274 94.4283 129.745 97.1532C131.405 98.1663 133.029 98.865 134.042 99.1794C135.51 99.6161 136.994 97.9567 136.365 96.5593C136.33 96.472 136.296 96.3847 136.243 96.2973C133.885 90.8825 132.802 84.0702 134.252 78.306C134.933 75.5637 136.156 73.0135 137.256 70.4283C138.339 67.8606 138.986 65.1706 140.051 62.603C140.383 61.782 140.732 60.9436 141.151 60.1575C141.571 59.354 142.007 58.568 142.444 57.7645C143.3 56.1401 144.138 54.5156 144.924 52.8388C145.658 51.2492 146.392 49.6073 146.898 47.9305C147.3 46.568 147.51 45.1532 147.824 43.7732C148.121 42.4283 148.488 41.0309 149.256 39.878C149.448 39.5986 149.763 39.127 150.112 38.7601L150.042 38.8999L149.955 38.8824Z" fill="#FF7F4C"/>
<path d="M182.989 37.1493C182.989 37.1493 180.945 37.7432 181.801 39.5423C182.657 41.3415 185.05 42.11 185.05 42.11C185.05 42.11 187.443 44.765 188.543 46.4594C189.661 48.1712 194.098 55.4201 196.054 57.3939C198.011 59.3502 203.548 62.3546 207.618 69.5162C211.688 76.6952 215.53 83.8568 216.718 88.1363C217.906 92.3983 220.037 103.455 224.386 113.324C228.736 123.193 234.238 131.246 241.539 127.595C248.858 123.944 247.513 118.093 246.29 114.302C245.067 110.529 238.115 92.1188 232.508 84.9223C226.901 77.7258 217.626 60.2934 216.177 58.0926C214.709 55.8917 212.648 54.5642 212.037 50.5292C211.426 46.5118 210.762 41.848 210.517 38.1624C210.517 38.1624 210.517 37.848 208.945 35.4026C207.373 32.9572 205.19 25.9528 197.749 22.8262C191.757 20.3109 187.127 20.2043 185.556 20.2934C185.261 20.3109 184.928 20.5729 184.893 20.9222C184.823 21.8305 184.858 23.4899 186.098 24.1187C187.827 24.9746 190.657 24.3283 190.657 24.3283C190.657 24.3283 191.391 25.1493 193.207 24.8174C193.481 24.7673 197.697 27.4078 197.916 28.0957C199.151 31.9626 195.478 40.4708 194.855 41.0195C194.139 41.6658 193.382 44.7301 192.177 43.1581C192.177 43.1581 190.325 40.4157 188.072 38.6166C185.818 36.8 182.989 37.1493 182.989 37.1493Z" fill="#FFAB92"/>
<path d="M184.875 21.8481C184.928 22.704 185.19 23.6822 186.081 24.1189C187.81 24.9748 190.64 24.3809 190.64 24.3809C190.64 24.3809 191.373 25.1495 193.19 24.8176H193.277C190.744 23.2455 187.81 22.2324 184.875 21.8481Z" fill="#A93E00"/>
<path d="M191.114 25.3753L195.196 25.0352L189.754 23.6748L179.551 24.355L180.571 24.6951L182.612 28.0961L191.114 25.3753Z" fill="#046C7C"/>
<path d="M240.334 120.748C238.832 120.049 237.382 119.124 236.281 117.883C234.727 116.137 233.522 114.041 232.404 111.997C231.251 109.883 230.22 107.718 229.067 105.604C227.915 103.473 226.552 101.447 225.434 99.2983C223.181 94.9839 221.504 90.4074 219.862 85.831C218.203 81.2197 216.561 76.5734 214.378 72.1891C212.299 68.0493 209.836 64.1716 206.936 60.5559C206.203 59.6476 205.434 58.7742 204.701 57.8659C204.159 57.1847 203.635 56.486 203.286 55.6825C202.605 54.1279 202.814 52.4685 202.971 50.8266C203.111 49.2196 203.251 47.6126 203.076 46.0056C203.006 45.307 202.884 44.5559 202.552 43.927C202.255 43.3681 201.574 42.6869 200.893 42.8266C200.159 42.9663 199.565 43.7174 198.971 44.1366C198.308 44.6083 197.522 44.2425 196.718 44.3298C195.757 44.4521 192.998 44.2415 192.194 43.1934C192.194 43.1934 190.343 40.4511 188.089 38.6519C185.836 36.8353 183.006 37.1847 183.006 37.1847C183.006 37.1847 181.312 38.058 181.819 39.5777C182.674 41.3768 185.067 42.1454 185.067 42.1454C185.067 42.1454 187.46 44.8004 188.561 46.4947C189.679 48.2065 194.115 55.4554 196.072 57.4292C198.028 59.3856 203.565 62.3899 207.635 69.5515C211.705 76.7306 215.548 83.8922 216.736 88.1716C217.923 92.4337 220.054 103.49 224.404 113.359C228.753 123.228 234.255 131.281 241.557 127.63C244.404 126.198 245.941 124.451 246.675 122.617C244.474 122.355 242.308 121.709 240.351 120.783V120.748H240.334Z" fill="#FF7F4C"/>
<path d="M199.277 32.5172L198.257 31.4969C197.209 29.261 199.614 28.402 197.379 27.2841C196.523 26.8474 189.466 26.271 187.667 34.3408C185.868 42.4107 186.984 41.2282 187.492 41.5374C186.72 41.581 185.92 40.8387 185.186 40.402C184.924 40.2622 184.68 40.105 184.435 39.9478C183.055 39.0745 181.99 37.7644 181.414 36.2273C180.418 33.6072 179.894 30.0264 181.728 26.1836C181.728 26.1836 179.876 27.9478 178.986 30.3234C179.021 30.0614 179.055 29.8168 179.073 29.5548C179.16 28.6989 179.283 27.6159 178.793 26.8474C178.112 25.7819 180.939 24.5295 179.891 24.3548C179.21 24.2325 180.363 24.8264 179.891 24.3548C179.559 24.0229 172.907 24.8386 172.488 25.0482C172.069 25.2579 172.208 25.2055 172.208 25.2055C172.924 26.4631 175.737 35.3015 175.737 35.3015C175.737 35.3015 176.103 35.3365 176.645 35.3714C176.61 35.4063 176.593 35.4413 176.558 35.4762C176.558 35.4762 176.558 41.2055 180.697 41.4151C184.855 41.6247 186.218 39.7199 188.734 39.9993C190.62 40.2089 188.801 39.9038 190.774 39.6592C190.967 39.6592 192.623 40.402 192.815 40.402C193.653 37.188 193.99 41.0133 194.881 40.7339C195.702 40.4718 194.68 40.1915 195.536 39.9993C196.234 39.8421 195.587 39.651 196.216 39.3191C197.019 38.8999 196.18 38.8753 196.896 38.2988C197.228 38.0368 196.634 38.3234 196.896 37.974C197.001 37.8343 196.826 37.4357 196.896 37.2785C196.931 37.2087 197.524 36.6857 197.576 36.5983C197.576 36.5634 196.556 35.8308 196.556 35.9181C196.556 35.7435 197.794 34.6626 197.916 34.5577C198.144 33.4224 198.388 33.5303 197.916 32.5172H199.277Z" fill="#00144A"/>
<path d="M176.523 32.891C176.523 27.9128 172.488 23.8779 167.509 23.8779C162.531 23.8779 166.898 23.8779 166.601 23.9303C166.601 23.9303 163.038 22.8648 158.007 28.2971C155.405 31.1093 154.671 34.3583 154.566 36.8211C154.461 39.284 156.802 42.6377 159.929 42.8473C163.055 43.057 162.182 42.8823 163.632 42.6727C170.654 41.677 168.767 42.2709 170.619 41.3452C174.077 40.0875 176.54 36.7687 176.54 32.8735H176.523V32.891Z" fill="#046C7C"/>
<path d="M167.51 41.45C172.237 41.45 176.068 37.618 176.068 32.891C176.068 28.164 172.237 24.332 167.51 24.332C162.783 24.332 158.951 28.164 158.951 32.891C158.951 37.618 162.783 41.45 167.51 41.45Z" fill="#00144A"/>
<path d="M167.51 40.7339C171.841 40.7339 175.352 37.2226 175.352 32.8911C175.352 28.5597 171.841 25.0483 167.51 25.0483C163.178 25.0483 159.667 28.5597 159.667 32.8911C159.667 37.2226 163.178 40.7339 167.51 40.7339Z" fill="#D5DADD"/>
<path d="M175.143 31.0221C174.706 29.223 173.641 27.6684 172.191 26.5854L161.221 37.5549C162.287 39.0047 163.859 40.0527 165.658 40.5069L175.143 31.0221Z" fill="#4D82B8"/>
<path d="M168.191 25.0657C167.964 25.0657 167.754 25.0308 167.527 25.0308C163.195 25.0308 159.807 28.5417 159.684 32.8736C159.562 37.2055 159.719 33.4849 159.719 33.5373L168.208 25.0482L168.191 25.0657Z" fill="#4D82B8"/>
<path d="M200.15 32.891C200.15 27.9128 196.115 23.8779 191.137 23.8779C186.159 23.8779 190.526 23.8779 190.229 23.9303C190.229 23.9303 186.666 22.8648 181.635 28.2971C179.032 31.1093 179.996 34.1354 179.891 36.5983C179.786 39.0612 181.186 41.1356 184.312 41.3452C187.439 41.5548 185.81 42.8823 187.26 42.6727C194.281 41.677 192.395 42.2709 194.246 41.3452C197.705 40.0875 200.168 36.7687 200.168 32.8735H200.15V32.891Z" fill="#046C7C"/>
<path d="M191.137 41.45C195.864 41.45 199.696 37.618 199.696 32.891C199.696 28.164 195.864 24.332 191.137 24.332C186.41 24.332 182.578 28.164 182.578 32.891C182.578 37.618 186.41 41.45 191.137 41.45Z" fill="#00144A"/>
<path d="M191.137 40.7339C195.469 40.7339 198.98 37.2226 198.98 32.8911C198.98 28.5597 195.469 25.0483 191.137 25.0483C186.806 25.0483 183.294 28.5597 183.294 32.8911C183.294 37.2226 186.806 40.7339 191.137 40.7339Z" fill="#D5DADD"/>
<path d="M198.77 31.0221C198.334 29.223 197.268 27.6684 195.818 26.5854L184.849 37.5549C185.915 39.0047 187.487 40.0527 189.286 40.5069L198.77 31.0221Z" fill="#4D82B8"/>
<path d="M191.819 25.0657C191.591 25.0657 191.382 25.0308 191.155 25.0308C186.823 25.0308 183.434 28.5417 183.312 32.8736C183.19 37.2055 183.347 33.4849 183.347 33.5373L191.836 25.0482L191.819 25.0657Z" fill="#4D82B8"/>
<path d="M179.632 30.4807C181.32 30.4807 182.688 29.1122 182.688 27.424C182.688 25.7358 181.32 24.3672 179.632 24.3672C177.944 24.3672 176.575 25.7358 176.575 27.424C176.575 29.1122 177.944 30.4807 179.632 30.4807Z" fill="#046C7C"/>
<path d="M177.763 27.424C177.763 25.9392 178.828 24.6991 180.243 24.4196C180.051 24.3847 179.859 24.3672 179.649 24.3672C177.955 24.3672 176.593 25.7471 176.593 27.424C176.593 29.1008 177.972 30.4807 179.649 30.4807C181.326 30.4807 180.051 30.4633 180.243 30.4283C178.828 30.1489 177.763 28.9087 177.763 27.424Z" fill="#00144A"/>
<path d="M237.396 119.354V119.371C237.59 121.174 237.104 122.863 236.566 124.568C236.645 122.144 236.467 119.717 236.086 117.31C235.754 116.804 235.405 116.315 235.055 115.808C234.933 116.245 234.828 116.682 234.706 117.118L234.689 117.136C234.514 117.782 234.339 118.411 234.095 119.022C233.885 119.546 233.623 120.105 233.204 120.507C232.173 121.468 230.898 120.769 230.007 119.983C227.964 118.166 227.213 114.778 224.313 114.149C224.488 116.734 224.994 119.319 224.767 121.904C224.68 122.987 224.488 124.262 223.684 125.083C222.811 125.974 221.588 125.695 220.558 125.293C219.125 124.751 217.798 123.983 216.488 123.214C215.981 122.917 215.475 122.62 214.968 122.323C214.13 121.834 213.413 121.101 212.732 120.402C212.034 119.703 211.335 118.97 210.461 118.481C209.675 118.044 208.802 117.782 207.999 117.363C207.23 116.961 206.654 116.385 206.287 115.599C205.955 114.882 205.798 114.096 205.815 113.293C205.815 111.668 206.409 110.096 206.863 108.559C207.23 107.302 207.649 105.939 207.457 104.612C206.461 104.769 205.431 104.769 204.488 104.35C202.881 103.651 202.199 101.922 201.728 100.35C201.274 98.8649 200.959 97.2928 200.156 95.9653C199.37 96.7863 199.282 98.009 199.387 99.1269C199.527 100.507 199.946 101.834 200.348 103.144C200.785 104.594 201.117 106.044 201.361 107.529C201.955 111.284 202.007 115.092 202.025 118.882C202.095 118.935 202.147 119.005 202.217 119.075C203.317 120.245 206.112 122.306 208.75 122.882C211.387 123.476 226.025 133.555 234.828 133.45C234.828 133.431 234.839 133.413 234.848 133.394C234.841 133.413 234.835 133.433 234.828 133.45C243.593 133.45 245.433 126.323 246.551 122.882C246.935 121.677 239.911 123.284 237.396 119.354ZM234.863 133.345C234.868 133.335 234.872 133.323 234.875 133.31C234.87 133.324 234.867 133.338 234.862 133.352C234.862 133.351 234.862 133.347 234.862 133.345H234.863Z" fill="#00144A"/>
<path d="M208.459 93.055C208.459 93.055 208.427 88.4406 204.776 95.3311C201.137 102.234 205.429 107.985 207.574 110.089C209.718 112.193 220.784 128.675 229.607 129.059C238.43 129.443 243.904 132.807 245.87 125.364C245.87 125.364 249.906 118.092 246.513 111.998C243.119 105.905 239.385 95.2687 239.385 95.2687C239.385 95.2687 238.793 100.561 222.548 101.558L217.723 101.963C217.723 101.963 219.59 99.8117 215.942 96.7961C212.293 93.7804 208.8 92.3748 208.8 92.3748L208.459 93.055Z" fill="#3B5B7C"/>
<path d="M217.769 101.616C217.856 101.702 217.648 101.914 217.662 102.074C217.801 103.678 218.646 105.486 218.896 107.077C219.316 109.617 219.847 112.144 220.427 114.646C220.684 115.731 220.966 116.815 221.384 117.836C221.612 118.402 221.901 118.98 222.276 119.47C222.261 119.137 222.184 118.816 222.082 118.521C221.903 117.856 221.649 117.216 221.532 116.538C221.387 115.662 221.28 114.774 221.222 113.885C221.164 112.972 221.192 112.045 221.121 111.144C221.078 110.44 220.984 109.737 221.064 109.032C221.11 108.686 221.206 108.364 221.363 108.054C221.509 107.78 221.74 107.42 222.061 107.343C222.319 107.254 222.518 107.4 222.765 107.398C222.839 107.397 222.815 107.447 222.851 107.31C222.886 107.075 222.809 106.804 222.77 106.57C222.73 106.286 222.69 106.003 222.749 105.718C222.868 105.223 223.158 104.627 223.7 104.474C224.242 104.32 224.862 104.537 225.418 104.519C226.208 104.487 227.009 104.343 227.774 104.187C228.538 104.032 229.315 103.913 230.092 103.77C231.448 103.51 232.791 103.163 234.033 102.571C235.36 101.915 236.475 100.954 237.553 99.9551C238.471 99.0939 239.351 98.1714 240.02 97.115C239.602 95.9951 239.373 95.3056 239.373 95.3056C239.373 95.3056 238.782 100.598 222.536 101.595L217.769 101.616Z" fill="#00144A"/>
<path d="M191.454 42.0401L184.652 41.3599L186.353 43.0604L190.094 45.7811L191.454 42.0401Z" fill="#FF7F4C"/>
</svg>
