<?xml version="1.0" encoding="UTF-8"?>
<!--Generator: Apple Native CoreSVG 341-->
<!DOCTYPE svg
PUBLIC "-//W3C//DTD SVG 1.1//EN"
       "http://www.w3.org/Graphics/SVG/1.1/DTD/svg11.dtd">
<svg version="1.1" xmlns="http://www.w3.org/2000/svg" xmlns:xlink="http://www.w3.org/1999/xlink" viewBox="0 0 3300 2200">
 <!--glyph: "", point size: 100.0, font version: "21.0d4e1", template writer version: "138.0.0"-->
 <style>.defaults {-sfsymbols-draw-reverses-motion-groups:true}

.monochrome-0 {-sfsymbols-motion-group:1;-sfsymbols-layer-tags:2ba187341f6f3b74}
.monochrome-1 {-sfsymbols-motion-group:0;-sfsymbols-layer-tags:2ba187341f6f3b74}

.multicolor-0:tintColor {-sfsymbols-motion-group:1;-sfsymbols-layer-tags:2ba187341f6f3b74}
.multicolor-1:tintColor {-sfsymbols-motion-group:0;-sfsymbols-layer-tags:2ba187341f6f3b74}

.hierarchical-0:primary {-sfsymbols-motion-group:1;-sfsymbols-layer-tags:2ba187341f6f3b74}
.hierarchical-1:primary {-sfsymbols-motion-group:0;-sfsymbols-layer-tags:2ba187341f6f3b74}

.SFSymbolsPreviewWireframe {fill:none;opacity:1.0;stroke:black;stroke-width:0.5}
</style>
 <g id="Notes">
  <rect height="2200" id="artboard" style="fill:white;opacity:1" width="3300" x="0" y="0"/>
  <line style="fill:none;stroke:black;opacity:1;stroke-width:0.5;" x1="263" x2="3036" y1="292" y2="292"/>
  <text style="stroke:none;fill:black;font-family:sans-serif;font-size:13;font-weight:bold;" transform="matrix(1 0 0 1 263 322)">Weight/Scale Variations</text>
  <text style="stroke:none;fill:black;font-family:sans-serif;font-size:13;text-anchor:middle;" transform="matrix(1 0 0 1 559.711 322)">Ultralight</text>
  <text style="stroke:none;fill:black;font-family:sans-serif;font-size:13;text-anchor:middle;" transform="matrix(1 0 0 1 856.422 322)">Thin</text>
  <text style="stroke:none;fill:black;font-family:sans-serif;font-size:13;text-anchor:middle;" transform="matrix(1 0 0 1 1153.13 322)">Light</text>
  <text style="stroke:none;fill:black;font-family:sans-serif;font-size:13;text-anchor:middle;" transform="matrix(1 0 0 1 1449.84 322)">Regular</text>
  <text style="stroke:none;fill:black;font-family:sans-serif;font-size:13;text-anchor:middle;" transform="matrix(1 0 0 1 1746.56 322)">Medium</text>
  <text style="stroke:none;fill:black;font-family:sans-serif;font-size:13;text-anchor:middle;" transform="matrix(1 0 0 1 2043.27 322)">Semibold</text>
  <text style="stroke:none;fill:black;font-family:sans-serif;font-size:13;text-anchor:middle;" transform="matrix(1 0 0 1 2339.98 322)">Bold</text>
  <text style="stroke:none;fill:black;font-family:sans-serif;font-size:13;text-anchor:middle;" transform="matrix(1 0 0 1 2636.69 322)">Heavy</text>
  <text style="stroke:none;fill:black;font-family:sans-serif;font-size:13;text-anchor:middle;" transform="matrix(1 0 0 1 2933.4 322)">Black</text>
  <line style="fill:none;stroke:black;opacity:1;stroke-width:0.5;" x1="263" x2="3036" y1="1903" y2="1903"/>
  <g transform="matrix(0.2 0 0 0.2 263 1933)">
   <path d="m46.2402 4.15039c21.7773 0 39.4531-17.627 39.4531-39.4043s-17.6758-39.4043-39.4531-39.4043c-21.7285 0-39.4043 17.627-39.4043 39.4043s17.6758 39.4043 39.4043 39.4043Zm0-7.42188c-17.6758 0-31.9336-14.3066-31.9336-31.9824s14.2578-31.9824 31.9336-31.9824 31.9824 14.3066 31.9824 31.9824-14.3066 31.9824-31.9824 31.9824Zm3.61328-17.7734v-28.4668c0-2.24609-1.46484-3.75977-3.71094-3.75977-2.14844 0-3.61328 1.51367-3.61328 3.75977v28.4668c0 2.19727 1.46484 3.71094 3.61328 3.71094 2.24609 0 3.71094-1.51367 3.71094-3.71094Zm-17.8223-10.5957h28.418c2.19727 0 3.71094-1.46484 3.71094-3.61328 0-2.19727-1.51367-3.71094-3.71094-3.71094h-28.418c-2.24609 0-3.75977 1.51367-3.75977 3.71094 0 2.14844 1.51367 3.61328 3.75977 3.61328Z"/>
  </g>
  <g transform="matrix(0.2 0 0 0.2 281.506 1933)">
   <path d="m58.5449 14.5508c27.4902 0 49.8047-22.3145 49.8047-49.8047s-22.3145-49.8047-49.8047-49.8047-49.8047 22.3145-49.8047 49.8047 22.3145 49.8047 49.8047 49.8047Zm0-8.30078c-22.9492 0-41.5039-18.5547-41.5039-41.5039s18.5547-41.5039 41.5039-41.5039 41.5039 18.5547 41.5039 41.5039-18.5547 41.5039-41.5039 41.5039Zm4.05273-23.0957v-36.9141c0-2.49023-1.70898-4.19922-4.15039-4.19922-2.39258 0-4.05273 1.70898-4.05273 4.19922v36.9141c0 2.44141 1.66016 4.15039 4.05273 4.15039 2.44141 0 4.15039-1.66016 4.15039-4.15039Zm-22.5586-14.4043h36.9629c2.44141 0 4.15039-1.61133 4.15039-4.00391 0-2.44141-1.70898-4.15039-4.15039-4.15039h-36.9629c-2.49023 0-4.15039 1.70898-4.15039 4.15039 0 2.39258 1.66016 4.00391 4.15039 4.00391Z"/>
  </g>
  <g transform="matrix(0.2 0 0 0.2 304.924 1933)">
   <path d="m74.8535 28.3203c35.1074 0 63.623-28.4668 63.623-63.5742s-28.5156-63.623-63.623-63.623-63.5742 28.5156-63.5742 63.623 28.4668 63.5742 63.5742 63.5742Zm0-9.08203c-30.127 0-54.4922-24.3652-54.4922-54.4922s24.3652-54.4922 54.4922-54.4922 54.4922 24.3652 54.4922 54.4922-24.3652 54.4922-54.4922 54.4922Zm4.44336-30.3223v-48.4863c0-2.73438-1.85547-4.63867-4.54102-4.63867-2.58789 0-4.44336 1.9043-4.44336 4.63867v48.4863c0 2.68555 1.85547 4.58984 4.44336 4.58984 2.68555 0 4.54102-1.85547 4.54102-4.58984Zm-28.7109-19.7754h48.4863c2.68555 0 4.58984-1.80664 4.58984-4.39453 0-2.73438-1.85547-4.58984-4.58984-4.58984h-48.4863c-2.73438 0-4.58984 1.85547-4.58984 4.58984 0 2.58789 1.85547 4.39453 4.58984 4.39453Z"/>
  </g>
  <text style="stroke:none;fill:black;font-family:sans-serif;font-size:13;font-weight:bold;" transform="matrix(1 0 0 1 263 1953)">Design Variations</text>
  <text style="stroke:none;fill:black;font-family:sans-serif;font-size:13;" transform="matrix(1 0 0 1 263 1971)">Symbols are supported in up to nine weights and three scales.</text>
  <text style="stroke:none;fill:black;font-family:sans-serif;font-size:13;" transform="matrix(1 0 0 1 263 1989)">For optimal layout with text and other symbols, vertically align</text>
  <text style="stroke:none;fill:black;font-family:sans-serif;font-size:13;" transform="matrix(1 0 0 1 263 2007)">symbols with the adjacent text.</text>
  <line style="fill:none;stroke:#00AEEF;stroke-width:0.5;opacity:1.0;" x1="776" x2="776" y1="1919" y2="1933"/>
  <g transform="matrix(0.2 0 0 0.2 776 1933)">
   <path d="m16.5527 0.78125c2.58789 0 3.85742-0.976562 4.78516-3.71094l20.5566-57.5195h0.244141l20.6055 57.5195c0.927734 2.73438 2.19727 3.71094 4.73633 3.71094 2.58789 0 4.24805-1.5625 4.24805-4.00391 0-0.830078-0.146484-1.61133-0.537109-2.63672l-22.9004-60.9863c-1.12305-2.97852-3.125-4.49219-6.25-4.49219-3.02734 0-5.07812 1.46484-6.15234 4.44336l-22.9004 61.084c-0.390625 1.02539-0.537109 1.80664-0.537109 2.63672 0 2.44141 1.5625 3.95508 4.10156 3.95508Zm10.2051-20.9473h30.6641c2.00195 0 3.66211-1.66016 3.66211-3.66211 0-2.05078-1.66016-3.66211-3.66211-3.66211h-30.6641c-2.00195 0-3.66211 1.61133-3.66211 3.66211 0 2.00195 1.66016 3.66211 3.66211 3.66211Z"/>
  </g>
  <line style="fill:none;stroke:#00AEEF;stroke-width:0.5;opacity:1.0;" x1="792.836" x2="792.836" y1="1919" y2="1933"/>
  <text style="stroke:none;fill:black;font-family:sans-serif;font-size:13;font-weight:bold;" transform="matrix(1 0 0 1 776 1953)">Margins</text>
  <text style="stroke:none;fill:black;font-family:sans-serif;font-size:13;" transform="matrix(1 0 0 1 776 1971)">Leading and trailing margins on the left and right side of each symbol</text>
  <text style="stroke:none;fill:black;font-family:sans-serif;font-size:13;" transform="matrix(1 0 0 1 776 1989)">can be adjusted by modifying the x-location of the margin guidelines.</text>
  <text style="stroke:none;fill:black;font-family:sans-serif;font-size:13;" transform="matrix(1 0 0 1 776 2007)">Modifications are automatically applied proportionally to all</text>
  <text style="stroke:none;fill:black;font-family:sans-serif;font-size:13;" transform="matrix(1 0 0 1 776 2025)">scales and weights.</text>
  <g transform="matrix(0.2 0 0 0.2 1289 1933)">
   <path d="m14.209 13.1348 7.86133 7.86133c4.29688 4.39453 9.32617 4.10156 13.8672-1.02539l60.6934-68.2129-4.88281-4.88281-60.2539 67.6758c-1.80664 1.95312-3.4668 2.44141-5.81055 0.0976562l-5.17578-5.12695c-2.29492-2.29492-1.80664-3.95508 0.195312-5.81055l67.4805-62.1582-4.88281-4.83398-68.0664 62.5977c-4.98047 4.58984-5.32227 9.47266-1.02539 13.8184Zm44.873-97.4609c-2.05078 2.00195-2.24609 4.88281-1.07422 6.78711 1.12305 1.80664 3.4668 3.02734 6.5918 2.24609 5.85938-1.66016 12.5977-2.39258 18.8965 0.927734l-2.68555 7.12891c-1.61133 4.00391-0.732422 6.88477 1.70898 9.42383l10.2539 10.3027c2.34375 2.39258 4.54102 2.44141 7.08008 1.95312l4.44336-0.732422 2.58789 2.53906-0.195312 2.24609c-0.0976562 2.29492 0.537109 4.29688 2.7832 6.49414l3.36914 3.32031c2.29492 2.29492 5.51758 2.49023 7.8125 0.195312l12.9883-13.0371c2.29492-2.34375 2.14844-5.37109-0.195312-7.66602l-3.41797-3.41797c-2.19727-2.19727-4.05273-3.02734-6.34766-2.88086l-2.34375 0.244141-2.44141-2.44141 1.02539-4.6875c0.634766-2.73438-0.244141-4.98047-2.88086-7.61719l-11.2793-11.1816c-12.9395-12.8418-35.5957-11.0352-46.6797-0.146484Zm7.08008 2.05078c8.78906-6.39648 25.9766-5.66406 33.6914 1.95312l12.3047 12.207c1.02539 1.02539 1.2207 1.80664 0.927734 3.32031l-1.46484 6.64062 6.73828 6.68945 4.39453-0.244141c1.12305-0.0488281 1.51367 0.0488281 2.34375 0.878906l2.53906 2.49023-10.8398 10.8398-2.49023-2.49023c-0.830078-0.878906-0.976562-1.2207-0.927734-2.39258l0.292969-4.3457-6.68945-6.73828-6.83594 1.17188c-1.41602 0.292969-2.05078 0.195312-3.17383-0.878906l-8.93555-8.88672c-1.07422-1.02539-1.17188-1.70898-0.488281-3.36914l4.58984-11.4746c-6.10352-6.34766-17.041-7.51953-25.5859-4.58984-0.683594 0.244141-0.927734-0.390625-0.390625-0.78125Z"/>
  </g>
  <text style="stroke:none;fill:black;font-family:sans-serif;font-size:13;font-weight:bold;" transform="matrix(1 0 0 1 1289 1953)">Exporting</text>
  <text style="stroke:none;fill:black;font-family:sans-serif;font-size:13;" transform="matrix(1 0 0 1 1289 1971)">Symbols should be outlined when exporting to ensure the</text>
  <text style="stroke:none;fill:black;font-family:sans-serif;font-size:13;" transform="matrix(1 0 0 1 1289 1989)">design is preserved when submitting to Xcode.</text>
  <text id="template-version" style="stroke:none;fill:black;font-family:sans-serif;font-size:13;text-anchor:end;" transform="matrix(1 0 0 1 3036 1933)">Template v.5.0</text>
  <text style="stroke:none;fill:black;font-family:sans-serif;font-size:13;text-anchor:end;" transform="matrix(1 0 0 1 3036 1951)">Requires Xcode 15 or greater</text>
  <text id="descriptive-name" style="stroke:none;fill:black;font-family:sans-serif;font-size:13;text-anchor:end;" transform="matrix(1 0 0 1 3036 1969)">Generated from fiori.sonography</text>
  <text style="stroke:none;fill:black;font-family:sans-serif;font-size:13;text-anchor:end;" transform="matrix(1 0 0 1 3036 1987)">Typeset at 100.0 points</text>
  <text style="stroke:none;fill:black;font-family:sans-serif;font-size:13;" transform="matrix(1 0 0 1 263 726)">Small</text>
  <text style="stroke:none;fill:black;font-family:sans-serif;font-size:13;" transform="matrix(1 0 0 1 263 1156)">Medium</text>
  <text style="stroke:none;fill:black;font-family:sans-serif;font-size:13;" transform="matrix(1 0 0 1 263 1586)">Large</text>
 </g>
 <g id="Guides">
  <g id="H-reference" style="fill:#27AAE1;stroke:none;" transform="matrix(1 0 0 1 339 696)">
   <path d="M0.993654 0L3.63775 0L29.3281-67.1323L30.0303-67.1323L30.0303-70.459L28.1226-70.459ZM11.6885-24.4799L46.9815-24.4799L46.2315-26.7285L12.4385-26.7285ZM55.1196 0L57.7637 0L30.6382-70.459L29.4326-70.459L29.4326-67.1323Z"/>
  </g>
  <line id="Baseline-S" style="fill:none;stroke:#27AAE1;opacity:1;stroke-width:0.5;" x1="263" x2="3036" y1="696" y2="696"/>
  <line id="Capline-S" style="fill:none;stroke:#27AAE1;opacity:1;stroke-width:0.5;" x1="263" x2="3036" y1="625.541" y2="625.541"/>
  <g id="H-reference" style="fill:#27AAE1;stroke:none;" transform="matrix(1 0 0 1 339 1126)">
   <path d="M0.993654 0L3.63775 0L29.3281-67.1323L30.0303-67.1323L30.0303-70.459L28.1226-70.459ZM11.6885-24.4799L46.9815-24.4799L46.2315-26.7285L12.4385-26.7285ZM55.1196 0L57.7637 0L30.6382-70.459L29.4326-70.459L29.4326-67.1323Z"/>
  </g>
  <line id="Baseline-M" style="fill:none;stroke:#27AAE1;opacity:1;stroke-width:0.5;" x1="263" x2="3036" y1="1126" y2="1126"/>
  <line id="Capline-M" style="fill:none;stroke:#27AAE1;opacity:1;stroke-width:0.5;" x1="263" x2="3036" y1="1055.54" y2="1055.54"/>
  <g id="H-reference" style="fill:#27AAE1;stroke:none;" transform="matrix(1 0 0 1 339 1556)">
   <path d="M0.993654 0L3.63775 0L29.3281-67.1323L30.0303-67.1323L30.0303-70.459L28.1226-70.459ZM11.6885-24.4799L46.9815-24.4799L46.2315-26.7285L12.4385-26.7285ZM55.1196 0L57.7637 0L30.6382-70.459L29.4326-70.459L29.4326-67.1323Z"/>
  </g>
  <line id="Baseline-L" style="fill:none;stroke:#27AAE1;opacity:1;stroke-width:0.5;" x1="263" x2="3036" y1="1556" y2="1556"/>
  <line id="Capline-L" style="fill:none;stroke:#27AAE1;opacity:1;stroke-width:0.5;" x1="263" x2="3036" y1="1485.54" y2="1485.54"/>
  <line id="right-margin-Black-S" style="fill:none;stroke:#00AEEF;stroke-width:0.5;opacity:1.0;" x1="2981.9" x2="2981.9" y1="600.785" y2="720.121"/>
  <line id="left-margin-Black-S" style="fill:none;stroke:#00AEEF;stroke-width:0.5;opacity:1.0;" x1="2884.9" x2="2884.9" y1="600.785" y2="720.121"/>
  <line id="right-margin-Regular-S" style="fill:none;stroke:#00AEEF;stroke-width:0.5;opacity:1.0;" x1="1496.29" x2="1496.29" y1="600.785" y2="720.121"/>
  <line id="left-margin-Regular-S" style="fill:none;stroke:#00AEEF;stroke-width:0.5;opacity:1.0;" x1="1403.39" x2="1403.39" y1="600.785" y2="720.121"/>
  <line id="right-margin-Ultralight-S" style="fill:none;stroke:#00AEEF;stroke-width:0.5;opacity:1.0;" x1="604.411" x2="604.411" y1="600.785" y2="720.121"/>
  <line id="left-margin-Ultralight-S" style="fill:none;stroke:#00AEEF;stroke-width:0.5;opacity:1.0;" x1="515.011" x2="515.011" y1="600.785" y2="720.121"/>
 </g>
 <g id="Symbols">
  <g id="Black-S" transform="matrix(1 0 0 1 2884.9 696)">
   <path class="monochrome-0 multicolor-0:tintColor hierarchical-0:primary SFSymbolsPreviewWireframe" d="M11.51 7.6C8.31 7.6 5.71 5.1 5.71 1.8L5.71-72.2C5.71-74.2 6.61-75.5 7.41-76.3C8.21-77.1 9.61-78 11.51-78L11.51-78L85.51-78C87.81-78 91.31-76.3 91.31-72.2C91.31-68 87.81-66.4 85.51-66.4L85.51-66.4L17.31-66.4L17.31 1.8C17.31 4.9 14.81 7.6 11.51 7.6ZM29.01-59.3C25.81-59.3 23.21-61.9 23.21-65.1L23.21-72.3C23.21-75.5 25.81-78.1 29.01-78.1C32.21-78.1 34.81-75.5 34.81-72.3L34.81-65.1C34.81-61.9 32.21-59.3 29.01-59.3ZM18.71-45.9L11.51-45.9C8.31-45.9 5.71-48.5 5.71-51.7C5.71-54.9 8.31-57.5 11.51-57.5L18.71-57.5C21.91-57.5 24.51-54.9 24.51-51.7C24.51-48.5 21.91-45.9 18.71-45.9ZM18.71-30.5L11.51-30.5C8.31-30.5 5.71-33.1 5.71-36.3C5.71-39.5 8.31-42.1 11.51-42.1L18.71-42.1C21.91-42.1 24.51-39.5 24.51-36.3C24.51-33.1 21.91-30.5 18.71-30.5ZM18.71-15L11.51-15C8.31-15 5.71-17.6 5.71-20.8C5.71-24 8.31-26.6 11.51-26.6L18.71-26.6C21.91-26.6 24.51-24 24.51-20.8C24.51-17.6 21.91-15 18.71-15ZM18.71 0.4L11.51 0.4C8.31 0.4 5.71-2.2 5.71-5.4C5.71-8.6 8.31-11.2 11.51-11.2L18.71-11.2C21.91-11.2 24.51-8.6 24.51-5.4C24.51-2.2 21.91 0.4 18.71 0.4ZM44.41-59.2C41.21-59.2 38.61-61.8 38.61-65L38.61-72.2C38.61-75.4 41.21-78 44.41-78C47.61-78 50.21-75.4 50.21-72.2L50.21-65C50.21-61.9 47.61-59.2 44.41-59.2ZM59.81-59.2C56.61-59.2 54.01-61.8 54.01-65L54.01-72.2C54.01-75.4 56.61-78 59.81-78C63.01-78 65.61-75.4 65.61-72.2L65.61-65C65.61-61.9 63.01-59.2 59.81-59.2ZM75.21-59.2C72.01-59.2 69.41-61.8 69.41-65L69.41-72.2C69.41-75.4 72.01-78 75.21-78C78.41-78 81.01-75.4 81.01-72.2L81.01-65C81.01-61.9 78.41-59.2 75.21-59.2Z"/>
   <path class="monochrome-1 multicolor-1:tintColor hierarchical-1:primary SFSymbolsPreviewWireframe" d="M82.41-38.9C82.41-33.7085 78.2015-29.5 73.01-29.5C67.8185-29.5 63.61-33.7085 63.61-38.9C63.61-44.0915 67.8185-48.3 73.01-48.3C78.2015-48.3 82.41-44.0915 82.41-38.9ZM42.31 2.4C38.11 2.4 36.51-1.1 36.51-3.4L36.51-13.7C36.51-16.6 38.91-19.5 42.31-19.5L52.71-19.5L55.21-22.6C52.61-24.1 48.71-26.9 46.21-32C45.21-34 45.21-38.2 48.91-39.8C52.91-41.5 55.51-39.1 56.71-37.1C59.81-31.8 65.51-31.1 65.61-31.1C67.11-30.9 69.41-29.9 70.31-27.5C71.31-24.9 70.41-22.8 69.41-21.6L60.01-10C59.21-9 58.01-7.9 55.51-7.9L48.11-7.9L48.11-3.4C48.11-1.1 46.41 2.4 42.31 2.4Z"/>
  </g>
  <g id="Regular-S" transform="matrix(1 0 0 1 1403.39 696)">
   <path class="monochrome-0 multicolor-0:tintColor hierarchical-0:primary SFSymbolsPreviewWireframe" d="M9.46 5.9C7.26 5.9 5.36 4 5.36 1.8L5.36-72.2C5.36-73.3 5.76-74.3 6.56-75.1C7.36-75.9 8.36-76.3 9.46-76.3L9.46-76.3L83.46-76.3C85.76-76.3 87.56-74.5 87.56-72.2C87.56-69.9 85.76-68.1 83.46-68.1L83.46-68.1L13.56-68.1L13.56 1.8C13.56 4 11.76 5.9 9.46 5.9ZM26.96-61C24.66-61 22.86-62.8 22.86-65.1L22.86-72.3C22.86-74.6 24.66-76.4 26.96-76.4C29.26-76.4 31.06-74.6 31.06-72.3L31.06-65.1C31.06-62.8 29.26-61 26.96-61ZM16.66-47.6L9.46-47.6C7.16-47.6 5.36-49.4 5.36-51.7C5.36-54 7.16-55.8 9.46-55.8L16.66-55.8C18.96-55.8 20.76-54 20.76-51.7C20.76-49.4 18.96-47.6 16.66-47.6ZM16.66-32.2L9.46-32.2C7.16-32.2 5.36-34 5.36-36.3C5.36-38.6 7.16-40.4 9.46-40.4L16.66-40.4C18.96-40.4 20.76-38.6 20.76-36.3C20.76-34 18.96-32.2 16.66-32.2ZM16.66-16.7L9.46-16.7C7.16-16.7 5.36-18.5 5.36-20.8C5.36-23.1 7.26-25 9.46-25L16.66-25C18.96-25 20.76-23.2 20.76-20.9C20.76-18.6 18.96-16.7 16.66-16.7ZM16.66-1.3L9.46-1.3C7.16-1.3 5.36-3.1 5.36-5.4C5.36-7.7 7.16-9.5 9.46-9.5L16.66-9.5C18.96-9.5 20.76-7.7 20.76-5.4C20.76-3.1 18.96-1.3 16.66-1.3ZM42.36-61C40.06-61 38.26-62.8 38.26-65.1L38.26-72.3C38.26-74.6 40.06-76.4 42.36-76.4C44.66-76.4 46.46-74.6 46.46-72.3L46.46-65.1C46.46-62.8 44.66-61 42.36-61ZM57.76-61C55.46-61 53.66-62.8 53.66-65.1L53.66-72.3C53.66-74.6 55.46-76.4 57.76-76.4C60.06-76.4 61.86-74.6 61.86-72.3L61.86-65.1C61.96-62.8 60.06-61 57.76-61ZM73.26-61C70.96-61 69.16-62.8 69.16-65.1L69.16-72.3C69.16-74.6 70.96-76.4 73.26-76.4C75.56-76.4 77.36-74.6 77.36-72.3L77.36-65.1C77.36-62.8 75.46-61 73.26-61Z"/>
   <path class="monochrome-1 multicolor-1:tintColor hierarchical-1:primary SFSymbolsPreviewWireframe" d="M77.36-37.8C77.36-33.5474 73.9126-30.1 69.66-30.1C65.4074-30.1 61.96-33.5474 61.96-37.8C61.96-42.0526 65.4074-45.5 69.66-45.5C73.9126-45.5 77.36-42.0526 77.36-37.8ZM40.26 0.7C37.96 0.7 36.16-1.1 36.16-3.4L36.16-13.7C36.16-16 37.96-17.8 40.26-17.8L51.46-17.8L55.86-23.1C52.36-24.7 48.26-27.6 45.76-32.7C44.76-34.7 45.66-37.2 47.66-38.2C49.66-39.2 52.16-38.3 53.16-36.3C56.06-30.3 63.26-29.3 63.36-29.3C64.86-29.1 66.16-28.2 66.76-26.8C67.36-25.4 67.06-23.8 66.16-22.6L56.66-11C55.86-10 54.66-9.5 53.46-9.5L44.36-9.5L44.36-3.3C44.36-1.1 42.56 0.7 40.26 0.7Z"/>
  </g>
  <g id="Ultralight-S" transform="matrix(1 0 0 1 515.011 696)">
   <path class="monochrome-0 multicolor-0:tintColor hierarchical-0:primary SFSymbolsPreviewWireframe" d="M7.775 3C7.175 3 6.475 2.6 6.475 1.8L6.475-72.2C6.475-72.6 6.575-72.9 6.875-73.1C7.075-73.3 7.475-73.5 7.775-73.5L7.775-73.5L81.775-73.5C82.475-73.5 83.075-73 83.075-72.2C83.075-71.4 82.475-70.9 81.775-70.9L81.775-70.9L8.975-71L8.975 1.8C8.975 2.5 8.475 3.1 7.775 3ZM25.175-63.8C24.475-63.8 23.875-64.4 23.875-65.1L23.875-72.3C23.875-73 24.475-73.6 25.175-73.6C25.875-73.6 26.475-73 26.475-72.3L26.475-65.1C26.475-64.4 25.875-63.8 25.175-63.8ZM14.975-50.4L7.775-50.4C7.075-50.4 6.475-51 6.475-51.7C6.475-52.4 7.075-53 7.775-53L14.975-53C15.675-53 16.275-52.4 16.275-51.7C16.275-51 15.675-50.4 14.975-50.4ZM14.975-35L7.775-35C7.075-35 6.475-35.6 6.475-36.3C6.475-37 7.075-37.6 7.775-37.6L14.975-37.6C15.675-37.6 16.275-37 16.275-36.3C16.275-35.6 15.675-35 14.975-35ZM14.975-19.6L7.775-19.6C7.075-19.6 6.475-20.2 6.475-20.9C6.475-21.6 7.075-22.2 7.775-22.2L14.975-22.2C15.675-22.2 16.275-21.6 16.275-20.9C16.275-20.2 15.675-19.6 14.975-19.6ZM14.975-4.2L7.775-4.2C7.075-4.2 6.475-4.8 6.475-5.5C6.475-6.2 7.075-6.8 7.775-6.8L14.975-6.8C15.675-6.8 16.275-6.2 16.275-5.5C16.275-4.8 15.675-4.2 14.975-4.2ZM40.675-63.8C39.975-63.8 39.375-64.4 39.375-65.1L39.375-72.3C39.375-73 39.975-73.6 40.675-73.6C41.375-73.6 41.975-73 41.975-72.3L41.975-65.1C41.875-64.4 41.375-63.8 40.675-63.8ZM56.075-63.8C55.375-63.8 54.775-64.4 54.775-65.1L54.775-72.3C54.775-73 55.375-73.6 56.075-73.6C56.775-73.6 57.375-73 57.375-72.3L57.375-65.1C57.375-64.4 56.775-63.8 56.075-63.8ZM71.475-63.8C70.775-63.8 70.175-64.4 70.175-65.1L70.175-72.3C70.175-73 70.775-73.6 71.475-73.6C72.175-73.6 72.775-73 72.775-72.3L72.775-65.1C72.775-64.4 72.175-63.8 71.475-63.8Z"/>
   <path class="monochrome-1 multicolor-1:tintColor hierarchical-1:primary SFSymbolsPreviewWireframe" d="M72.775-37.8C72.775-35.0938 70.5812-32.9 67.875-32.9C65.1688-32.9 62.975-35.0938 62.975-37.8C62.975-40.5062 65.1688-42.7 67.875-42.7C70.5812-42.7 72.775-40.5062 72.775-37.8ZM38.575-2.1C38.075-2.1 37.275-2.5 37.275-3.4L37.275-13.7C37.275-14.4 37.875-15 38.575-15L51.175-15L58.675-24.2C55.175-25.8 50.075-27.2 46.575-34C46.275-34.6 46.475-35.3 47.175-35.7C47.675-36 48.475-35.8 48.875-35.1C52.775-27.4 61.275-26.6 61.275-26.6C61.575-26.6 62.175-26.4 62.375-25.8C62.475-25.4 62.475-24.9 62.175-24.5L52.675-12.9C52.475-12.6 52.075-12.4 51.675-12.4L39.775-12.4L39.775-3.4C39.775-2.7 39.275-2.1 38.575-2.1Z"/>
  </g>
 </g>
</svg>
