<svg width="160" height="160" viewBox="0 0 160 160" fill="none" xmlns="http://www.w3.org/2000/svg">
<path d="M110.16 120.004V28.5039C110.176 26.8163 109.53 25.1897 108.359 23.9741C107.188 22.7585 105.587 22.051 103.9 22.0039H45.9C42.2288 21.9981 38.7023 23.4346 36.08 26.0039C34.7841 27.2998 33.7567 28.8387 33.0565 30.5324C32.3564 32.2261 31.9974 34.0412 32 35.8739V121.524C32 125.217 33.4663 128.758 36.0765 131.37C38.6867 133.982 42.2273 135.451 45.92 135.454H123.84V135.344C120.08 134.899 116.612 133.094 114.092 130.267C111.571 127.441 110.173 123.791 110.16 120.004Z" fill="#B9C1C6"/>
<path d="M109.16 24.0547V115.515C109.165 118.481 109.969 121.391 111.485 123.94C113.002 126.49 115.176 128.584 117.78 130.005H45.93C42.5033 130.002 39.2175 128.64 36.7936 126.218C34.3696 123.796 33.0053 120.511 33 117.085V31.4347C32.9987 29.7376 33.332 28.0569 33.9808 26.4888C34.6296 24.9207 35.5813 23.4959 36.7813 22.2959C37.9812 21.0959 39.4061 20.1443 40.9742 19.4955C42.5423 18.8466 44.223 18.5133 45.92 18.5147H103.92C105.348 18.5668 106.699 19.1756 107.684 20.2109C108.669 21.2462 109.209 22.6259 109.19 24.0547H109.16Z" fill="#CEDBE8"/>
<path d="M117.78 131.004H45.93C42.2373 131.004 38.6956 129.537 36.0835 126.927C33.4714 124.317 32.0027 120.776 32 117.084V31.4337C31.9967 28.679 32.8125 25.9855 34.3439 23.6956C35.8752 21.4057 38.0529 19.6229 40.6 18.5737C42.2849 17.8691 44.0937 17.5087 45.92 17.5137H103.92C105.621 17.568 107.232 18.2859 108.41 19.5137C109.579 20.7371 110.218 22.3719 110.19 24.0637V115.534C110.189 119.327 111.58 122.989 114.1 125.824C115.296 127.162 116.714 128.285 118.29 129.144L117.78 131.004ZM103.85 19.5137H45.92C44.3557 19.5116 42.8062 19.8174 41.36 20.4137C39.9154 21.0201 38.6014 21.8995 37.49 23.0037C36.3813 24.1094 35.5043 25.4251 34.91 26.8737C34.3095 28.319 34.0003 29.8686 34 31.4337V117.084C34.0079 120.244 35.2677 123.273 37.5036 125.507C39.7395 127.741 42.7693 128.998 45.93 129.004H114.52C113.828 128.43 113.179 127.805 112.58 127.134C109.732 123.933 108.16 119.798 108.16 115.514V24.0037C108.176 22.8361 107.734 21.7085 106.928 20.8634C106.122 20.0182 105.017 19.5229 103.85 19.4837V19.5137Z" fill="#688FB7"/>
<path d="M71.0807 42.1846H46.5307C45.7191 42.1846 44.9408 42.507 44.3669 43.0808C43.7931 43.6547 43.4707 44.433 43.4707 45.2446C43.4707 46.0571 43.7928 46.8364 44.3663 47.4119C44.9399 47.9873 45.7182 48.3119 46.5307 48.3146H71.0807C71.8932 48.3119 72.6715 47.9873 73.2451 47.4119C73.8186 46.8364 74.1407 46.0571 74.1407 45.2446C74.1407 44.433 73.8183 43.6547 73.2444 43.0808C72.6706 42.507 71.8923 42.1846 71.0807 42.1846Z" fill="#F58B00"/>
<path d="M77.6998 160.005C101.41 160.005 120.64 158.845 120.64 157.405C120.64 155.965 101.41 154.805 77.6998 154.805C53.9898 154.805 34.7598 155.965 34.7598 157.405C34.7598 158.845 53.9998 160.005 77.6998 160.005Z" fill="#B9C1C6"/>
<path d="M128.069 18.814C127.94 18.6585 127.77 18.541 127.579 18.474C127.386 18.424 127.183 18.424 126.989 18.474L122.299 19.284C122.138 19.3122 121.985 19.3735 121.849 19.464C121.711 19.5512 121.592 19.6666 121.5 19.8027C121.409 19.9388 121.347 20.0925 121.319 20.254C121.289 20.416 121.289 20.582 121.319 20.744C121.357 20.9934 121.472 21.2245 121.649 21.404C121.777 21.5358 121.935 21.6353 122.108 21.6944C122.282 21.7535 122.468 21.7705 122.649 21.744L127.339 20.934C127.548 20.9013 127.744 20.8152 127.909 20.684C128.069 20.5475 128.189 20.3717 128.259 20.174C128.342 19.954 128.366 19.7162 128.329 19.484C128.301 19.2423 128.211 19.0118 128.069 18.814Z" fill="white"/>
<path d="M110.26 0.0642584C110.123 0.0150833 109.976 -0.00533645 109.83 0.00425891C109.682 0.0158985 109.539 0.0603041 109.41 0.134258C109.285 0.206094 109.175 0.302416 109.087 0.417509C109 0.532601 108.936 0.664119 108.9 0.804258L107.61 5.25426C107.575 5.41908 107.575 5.58944 107.61 5.75426C107.627 5.91974 107.678 6.07991 107.76 6.22426C107.842 6.36993 107.955 6.49615 108.09 6.59426C108.221 6.69671 108.37 6.77156 108.53 6.81426H108.73C108.983 6.85172 109.241 6.79088 109.45 6.64426C109.659 6.50034 109.806 6.28227 109.86 6.03426L111.15 1.58426C111.202 1.42639 111.219 1.25929 111.2 1.09426C111.179 0.929758 111.129 0.770471 111.05 0.62426C110.969 0.481206 110.86 0.355503 110.73 0.254259C110.589 0.157903 110.429 0.0930984 110.26 0.0642584Z" fill="white"/>
<path d="M121.75 6.09386C121.593 6.09192 121.438 6.11557 121.29 6.16386C121.144 6.22206 121.009 6.30308 120.89 6.40386L115.7 11.1439C115.47 11.3574 115.33 11.6508 115.31 11.9639C115.287 12.2808 115.392 12.5937 115.6 12.8339C115.789 13.0536 116.052 13.196 116.34 13.2339C116.504 13.269 116.675 13.269 116.84 13.2339C116.998 13.1804 117.145 13.0954 117.27 12.9839L122.46 8.25386C122.693 8.03761 122.836 7.7411 122.86 7.42386C122.876 7.11071 122.772 6.80308 122.57 6.56386C122.361 6.32291 122.067 6.17234 121.75 6.14386V6.09386Z" fill="white"/>
</svg>
