<svg width="171" height="160" viewBox="0 0 171 160" fill="none" xmlns="http://www.w3.org/2000/svg">
<circle cx="80.8436" cy="79.9999" r="70.8436" fill="#EBF8FF"/>
<path fill-rule="evenodd" clip-rule="evenodd" d="M23.6067 121.754C22.9481 120.852 22.3102 119.935 21.6938 119.002H139.994C139.377 119.935 138.739 120.852 138.081 121.754H23.6067Z" fill="#0070F2"/>
<path fill-rule="evenodd" clip-rule="evenodd" d="M25.7942 124.594C25.0261 123.647 24.2818 122.68 23.5625 121.693H138.125C137.406 122.68 136.661 123.647 135.893 124.594H25.7942Z" fill="#005DC9"/>
<rect x="28.1323" y="48.7852" width="105.428" height="70.3405" rx="3.89881" fill="#0070F2"/>
<path d="M80.8459 51.1394C81.2188 51.1394 81.521 50.8367 81.521 50.4633C81.521 50.0898 81.2188 49.7871 80.8459 49.7871C80.4731 49.7871 80.1709 50.0898 80.1709 50.4633C80.1709 50.8367 80.4731 51.1394 80.8459 51.1394Z" fill="#004DA5"/>
<rect x="31.6177" y="52.0645" width="98.4569" height="63.7842" rx="2.59921" fill="#EBF8FF"/>
<path d="M73.21 118.611H88.4825V119.079C88.4825 119.797 87.9007 120.379 87.1829 120.379H74.5096C73.7918 120.379 73.21 119.797 73.21 119.079V118.611Z" fill="#004DA5"/>
<path fill-rule="evenodd" clip-rule="evenodd" d="M46.1855 63.8284C46.1855 61.3516 48.1934 59.3438 50.6702 59.3438H54.6302C54.9839 59.3438 55.2707 59.6305 55.2707 59.9842C55.2707 60.3379 54.9839 60.6247 54.6302 60.6247H50.6702C48.9008 60.6247 47.4665 62.059 47.4665 63.8284V67.7884C47.4665 68.1421 47.1797 68.4289 46.826 68.4289C46.4723 68.4289 46.1855 68.1421 46.1855 67.7884V63.8284Z" fill="#005DC9"/>
<path fill-rule="evenodd" clip-rule="evenodd" d="M46.1855 104.738C46.1855 107.215 48.1934 109.223 50.6702 109.223H54.6302C54.9839 109.223 55.2707 108.936 55.2707 108.582C55.2707 108.228 54.9839 107.942 54.6302 107.942H50.6702C48.9008 107.942 47.4665 106.507 47.4665 104.738V100.778C47.4665 100.424 47.1797 100.138 46.826 100.138C46.4723 100.138 46.1855 100.424 46.1855 100.778V104.738Z" fill="#005DC9"/>
<path fill-rule="evenodd" clip-rule="evenodd" d="M115.501 63.8284C115.501 61.3516 113.494 59.3438 111.017 59.3438H107.057C106.703 59.3438 106.416 59.6305 106.416 59.9842C106.416 60.3379 106.703 60.6247 107.057 60.6247H111.017C112.786 60.6247 114.221 62.059 114.221 63.8284V67.7884C114.221 68.1421 114.507 68.4289 114.861 68.4289C115.215 68.4289 115.501 68.1421 115.501 67.7884V63.8284Z" fill="#005DC9"/>
<path fill-rule="evenodd" clip-rule="evenodd" d="M115.501 104.738C115.501 107.215 113.494 109.223 111.017 109.223H107.057C106.703 109.223 106.416 108.936 106.416 108.582C106.416 108.228 106.703 107.942 107.057 107.942H111.017C112.786 107.942 114.221 106.507 114.221 104.738V100.778C114.221 100.424 114.507 100.138 114.861 100.138C115.215 100.138 115.501 100.424 115.501 100.778V104.738Z" fill="#005DC9"/>
<circle cx="80.8435" cy="84.2844" r="25.4875" fill="white"/>
<path fill-rule="evenodd" clip-rule="evenodd" d="M80.9104 68.9082C85.092 68.9082 89.0058 70.557 91.9265 73.5481H91.9258C92.197 73.8269 92.1929 74.2706 91.9155 74.5412C91.7781 74.6751 91.607 74.7413 91.4241 74.7413C91.2412 74.7413 91.059 74.6695 90.9223 74.5301C88.2667 71.8103 84.711 70.3126 80.9097 70.3126C78.8648 70.3126 76.8951 70.744 75.0559 71.5929C74.7039 71.7537 74.2878 71.6032 74.1242 71.2492C73.9634 70.8979 74.1159 70.4804 74.4672 70.3175C76.4928 69.383 78.6612 68.9082 80.9104 68.9082ZM91.23 80.1161C89.5171 75.8959 85.466 73.1691 80.911 73.1691C78.7978 73.1691 76.9571 73.6688 75.4098 74.6709C73.8625 75.6723 72.6223 77.1664 71.6941 79.1313C71.5271 79.4833 71.6796 79.9015 72.0281 80.0664H72.0288C72.3773 80.2307 72.7976 80.0844 72.964 79.7317C73.7776 78.007 74.8522 76.7206 76.1725 75.8641C77.492 75.0084 79.0718 74.5729 80.911 74.5729C84.8918 74.5729 88.4308 76.9546 89.9291 80.6434C90.0395 80.9188 90.3046 81.0816 90.5792 81.0816C90.6662 81.0816 90.7573 81.0651 90.8436 81.0299C91.2024 80.8836 91.375 80.4743 91.2294 80.1154L91.23 80.1161ZM95.9356 80.9492C95.9376 80.9643 95.939 80.9719 95.9404 80.9774V80.9802L95.9418 80.9788C96.1799 82.0624 96.3076 83.179 96.3076 84.3026C96.3076 85.511 96.2455 86.7271 96.1274 87.9141C96.1267 87.9231 96.1261 87.9327 96.1254 87.9452V87.9548L96.124 87.9666L96.1033 88.1653V88.1667V88.1681C96.0626 88.5256 95.7603 88.7927 95.4062 88.7927C95.38 88.7927 95.3545 88.7913 95.3282 88.7885H95.3276C94.9404 88.7464 94.665 88.3979 94.7064 88.0135L94.7223 87.863L94.7285 87.8016C94.8438 86.6504 94.9031 85.4731 94.9031 84.3019C94.9031 83.2736 94.7906 82.2508 94.5705 81.259H94.5663L94.5235 81.0782C94.1108 79.3239 93.3751 77.6861 92.3261 76.2085C92.1018 75.8925 92.1757 75.4549 92.4911 75.2306H92.4917C92.8051 75.0077 93.2461 75.0781 93.4704 75.3969C93.4711 75.3976 93.4711 75.3983 93.4711 75.3983C94.6491 77.0567 95.4746 78.8987 95.9232 80.8732C95.9297 80.9021 95.9332 80.9298 95.9353 80.9466L95.9356 80.9492ZM83.2621 87.9927C83.182 88.5538 83.0826 89.11 82.9674 89.6587L82.9681 89.6573C82.8991 89.9886 82.6058 90.2143 82.2821 90.2143C82.2365 90.2143 82.1882 90.2101 82.1385 90.2005H82.1371H82.1358C81.7562 90.1204 81.5132 89.7471 81.5933 89.3682C81.6975 88.8713 81.7859 88.3681 81.8597 87.8588C81.8618 87.8416 81.8645 87.8264 81.8666 87.8167C81.8694 87.8043 81.8701 87.7981 81.8701 87.7981V87.796V87.7939C82.035 86.6455 82.1185 85.4723 82.1185 84.3032C82.1185 83.6379 81.5602 83.0961 80.9101 83.0961C80.2599 83.0961 79.7278 83.6123 79.7037 84.2563L79.7039 84.2582C79.7052 84.2733 79.7064 84.2879 79.7064 84.3032V84.3046V84.3059L79.703 84.6924V84.6938V84.6952C79.6954 85.0513 79.3917 85.4198 78.9859 85.3819C78.5981 85.375 78.2917 85.0534 78.2986 84.6683L78.3013 84.3577C78.2999 84.3405 78.2986 84.3232 78.2986 84.3046C78.2986 82.8642 79.4704 81.6917 80.9108 81.6917C82.3511 81.6917 83.5236 82.8642 83.5236 84.3046C83.5236 85.5158 83.436 86.7318 83.269 87.9216V87.9237V87.9258C83.2683 87.9292 83.2676 87.934 83.2662 87.9506C83.2648 87.9596 83.2641 87.9741 83.2621 87.9886V87.9906V87.9927ZM79.0288 88.127C79.4029 88.2236 79.6313 88.6039 79.5354 88.9807V88.98C78.9819 91.1533 78.4974 92.5895 77.8038 93.9125C77.1116 95.2334 76.2151 96.4308 74.8528 98.1293C74.7134 98.3018 74.5098 98.3915 74.3048 98.3915C74.1516 98.3915 73.9956 98.3411 73.8666 98.2369H73.8659C73.5643 97.994 73.5167 97.5523 73.7582 97.2514C75.0902 95.5909 75.9253 94.475 76.563 93.2589C77.1993 92.0443 77.643 90.7192 78.1751 88.6349C78.269 88.2616 78.6458 88.0276 79.0288 88.127ZM81.6874 91.828H81.6867H81.6853C81.3168 91.6962 80.9186 91.8964 80.7909 92.2587C79.7985 95.0876 79.2249 96.1939 77.5293 98.5445C77.3029 98.8592 77.3712 99.2968 77.6859 99.5245H77.6866C77.8122 99.6156 77.9558 99.6577 78.0979 99.6577C78.3133 99.6577 78.53 99.557 78.6673 99.3665C80.4361 96.9144 81.0849 95.6646 82.1167 92.7225C82.2443 92.3581 82.0532 91.9571 81.6874 91.828ZM73.2444 72.599C73.5694 72.3864 73.6585 71.9496 73.4466 71.6266C73.2326 71.3001 72.7971 71.2111 72.4735 71.4244C69.1201 73.6259 66.7853 76.9821 65.8998 80.8738C65.8922 80.9056 65.8881 80.9359 65.886 80.9525C65.8846 80.9616 65.8838 80.9677 65.8833 80.9722L65.8826 80.9773V80.9801C65.6431 82.0643 65.5168 83.1803 65.5168 84.3025C65.5168 84.7835 65.4782 85.2673 65.4029 85.7366C65.3401 86.1203 65.5996 86.4785 65.9799 86.542H65.982H65.984C66.0234 86.5489 66.0606 86.5517 66.0972 86.5517C66.4361 86.5517 66.7335 86.306 66.7901 85.9616C66.8771 85.4157 66.9226 84.8587 66.9226 84.3025C66.9226 83.2748 67.0351 82.2507 67.2546 81.2589H67.2573L67.3001 81.0788C68.1235 77.5887 70.2277 74.5797 73.2451 72.5983L73.2444 72.599ZM91.3611 83.6276C91.5247 83.6283 91.6979 83.68 91.8325 83.7967L91.8311 83.7953C91.9691 83.9154 92.0505 84.0914 92.0443 84.3032C92.0436 85.4951 91.9767 86.6925 91.849 87.8651L91.8449 87.9092C91.8442 87.9161 91.8435 87.9231 91.8428 87.9334L91.8424 87.9392C91.8418 87.9476 91.8412 87.9573 91.84 87.9679V87.9693V87.9707C91.4777 91.2047 90.6371 94.3538 89.3403 97.3311C89.2251 97.5961 88.9663 97.7528 88.6971 97.7528C88.6026 97.7528 88.508 97.7348 88.4155 97.6941C88.0601 97.5388 87.8993 97.1255 88.0546 96.77C89.2858 93.9439 90.0857 90.9549 90.4356 87.883L90.437 87.8685L90.4391 87.8499L90.4611 87.6539H90.4618C90.5798 86.5483 90.6399 85.4213 90.6399 84.3032V84.2991V84.295C90.6475 84.0789 90.7427 83.905 90.8856 83.7891C91.0243 83.6773 91.1975 83.6276 91.3611 83.6276ZM70.6811 88.0776C70.687 88.0558 70.6916 88.0348 70.6956 88.0166L70.6991 88.001C70.7025 87.9858 70.7067 87.9693 70.7115 87.9507C71.0234 86.7677 71.1849 85.5434 71.1849 84.3039C71.1849 84.2873 71.1836 84.272 71.1823 84.2561V84.2561V84.2561V84.2561L71.1822 84.2542C71.1856 83.4626 71.2857 82.6752 71.4769 81.9146C71.5728 81.5392 71.345 81.1596 70.9717 81.0644H70.9696H70.9675C70.5824 80.9636 70.2084 81.2045 70.1166 81.573V81.5737C69.8916 82.4626 69.7784 83.3812 69.7784 84.3046C69.7784 84.3226 69.7791 84.3419 69.7812 84.3612C69.7763 85.4799 69.6273 86.5869 69.3409 87.6553H69.3374L69.2891 87.8257C68.9116 89.1536 68.3305 90.4076 67.5506 91.5498C67.3332 91.87 67.4154 92.3075 67.7349 92.5263C67.8564 92.6091 67.9944 92.6485 68.1303 92.6485C68.354 92.6485 68.5748 92.5422 68.7114 92.342C69.6017 91.0356 70.2643 89.6015 70.6811 88.0797V88.0776ZM86.8727 80.8624L86.8968 80.9004L86.8975 80.9011L87.1108 81.2606C87.5435 82.0474 87.785 82.9177 87.785 84.3049C87.785 85.5092 87.7071 86.7266 87.5607 87.9226C87.5601 87.9281 87.5594 87.935 87.5587 87.9481L87.5576 87.9604L87.5566 87.9737L87.5559 87.9778V87.982C87.2488 90.4209 86.6332 92.8157 85.727 95.0967C85.6173 95.372 85.353 95.5391 85.0748 95.5391C84.9858 95.5391 84.9002 95.5218 84.8188 95.4914L84.8167 95.4894H84.8147C84.4544 95.3451 84.2784 94.9379 84.422 94.577C85.2771 92.4237 85.8595 90.1628 86.1528 87.8598C86.1542 87.8474 86.1563 87.837 86.1577 87.8308C86.1604 87.8212 86.1597 87.8225 86.1604 87.8184C86.1614 87.813 86.1624 87.8097 86.1629 87.8072L86.1632 87.8046C86.3081 86.6465 86.3813 85.4698 86.3813 84.3042C86.3813 83.5802 86.3081 83.0557 86.1729 82.6195C86.0383 82.1847 85.8388 81.8259 85.5704 81.4352C85.531 81.3786 85.5048 81.3193 85.4869 81.2613C85.4099 81.0127 85.4958 80.7982 85.4958 80.7982C85.54 80.6685 85.6228 80.547 85.7519 80.4587C86.0721 80.2392 86.509 80.3213 86.727 80.6402C86.7636 80.6933 86.7981 80.7458 86.8313 80.7975L86.8375 80.8072C86.8492 80.8258 86.8609 80.8445 86.8727 80.8624ZM83.6064 96.8196C83.7347 96.4552 84.1329 96.2599 84.5001 96.389L84.5008 96.3911C84.8666 96.5187 85.0605 96.9183 84.9314 97.2855C84.6713 98.0281 84.38 98.6865 84.0405 99.2979C83.9121 99.5285 83.6719 99.6589 83.4262 99.6589C83.3089 99.6589 83.1936 99.6292 83.0887 99.5733L83.0867 99.5719L83.0846 99.5706C82.7471 99.3815 82.6243 98.9536 82.8127 98.6147C83.1115 98.0771 83.371 97.4898 83.6064 96.8196ZM84.6623 78.5418C83.5463 77.8144 82.2488 77.4293 80.912 77.4293C78.5276 77.4293 76.3467 78.6391 75.0803 80.6633C75.048 80.7163 75.0211 80.7692 74.9992 80.8126L74.9947 80.8214C74.9788 80.8538 74.965 80.8807 74.9505 80.907L74.9464 80.9139L74.9464 80.9139L74.9464 80.9139C74.9436 80.9187 74.9409 80.9235 74.9388 80.9284L74.7538 81.2589H74.7635C74.2949 82.201 74.0395 83.2383 74.0395 84.3025C74.0395 84.3232 74.0409 84.3453 74.043 84.3687C74.0388 85.5047 73.9195 86.6414 73.6896 87.7456L73.6827 87.7753L73.6758 87.805C73.6738 87.8126 73.6724 87.8195 73.6717 87.825L73.6705 87.8298L73.6689 87.8374V87.8409L73.6675 87.8443C73.6413 87.972 73.613 88.0976 73.5827 88.2232C73.4929 88.6 73.7241 88.9796 74.101 89.0707L74.1058 89.0721H74.1106C74.1582 89.0824 74.2107 89.09 74.2673 89.09C74.5854 89.09 74.8712 88.874 74.9498 88.5531C74.9906 88.3812 75.0285 88.2087 75.0651 88.0341V88.0327C75.0696 88.0112 75.0723 87.9906 75.0742 87.9756L75.0743 87.9755L75.0754 87.9665C75.0775 87.9499 75.0789 87.9416 75.0803 87.9347C75.3218 86.7463 75.4488 85.5247 75.4488 84.3032C75.4488 84.2845 75.4474 84.2631 75.4454 84.2404C75.4571 83.2348 75.7421 82.2576 76.2728 81.408C76.2998 81.3645 76.3315 81.3224 76.3702 81.2714C76.3729 81.2679 76.3757 81.2638 76.3784 81.2603H76.3812L76.4509 81.1609C77.4792 79.702 79.1197 78.8345 80.9134 78.8345C81.9769 78.8345 83.0087 79.1409 83.8955 79.7192V79.7199C84.2206 79.929 84.6547 79.84 84.8665 79.5143C85.0784 79.1892 84.9859 78.7537 84.6623 78.5425V78.5418ZM73.6747 90.6469C74.0053 90.8491 74.1109 91.2797 73.9114 91.6117L73.9107 91.6103C73.4532 92.3648 73.1807 92.8889 72.9381 93.3555L72.9369 93.3578C72.5442 94.1135 72.2288 94.7187 71.3945 95.7484C71.2557 95.921 71.0528 96.0093 70.8485 96.0093C70.6953 96.0093 70.5373 95.9596 70.4075 95.8533H70.4069L70.4062 95.8526C70.106 95.6083 70.059 95.1666 70.3026 94.8664C71.0486 93.9461 71.301 93.4611 71.6897 92.714L71.6919 92.7097L71.7071 92.6805C71.954 92.2064 72.2372 91.6626 72.7099 90.8829C72.9121 90.5509 73.3427 90.4481 73.6733 90.6455L73.674 90.6469H73.6747Z" fill="#00144A"/>
<path fill-rule="evenodd" clip-rule="evenodd" d="M90.6257 85.248H92.03C92.0041 86.126 91.943 87.0027 91.849 87.8658L91.8449 87.91C91.8442 87.9169 91.8435 87.9238 91.8428 87.9342L91.8424 87.94C91.8418 87.9484 91.8412 87.9581 91.84 87.9687V87.97V87.9714C91.4777 91.2054 90.6371 94.3546 89.3403 97.3319C89.2251 97.5969 88.9663 97.7535 88.6971 97.7535C88.6026 97.7535 88.508 97.7356 88.4155 97.6949C88.0601 97.5396 87.8993 97.1262 88.0546 96.7708C89.2858 93.9446 90.0857 90.9556 90.4356 87.8838L90.437 87.8693L90.4391 87.8506L90.4611 87.6546H90.4618C90.5467 86.8597 90.6016 86.0538 90.6257 85.248ZM69.7471 85.248H71.1537C71.0929 86.1649 70.944 87.0697 70.7115 87.9514C70.7067 87.97 70.7025 87.9866 70.6991 88.0018L70.6956 88.0173C70.6916 88.0356 70.687 88.0566 70.6811 88.0784V88.0805C70.2643 89.6022 69.6017 91.0364 68.7114 92.3428C68.5748 92.5429 68.354 92.6492 68.1303 92.6492C67.9944 92.6492 67.8564 92.6099 67.7349 92.5271C67.4154 92.3083 67.3332 91.8707 67.5506 91.5505C68.3305 90.4083 68.9116 89.1543 69.2891 87.8265L69.3374 87.656H69.3409C69.5514 86.8707 69.6877 86.0645 69.7471 85.248ZM96.295 85.248C96.2714 86.143 96.2147 87.0368 96.1274 87.9149C96.1267 87.9238 96.1261 87.9335 96.1254 87.9459V87.9556L96.124 87.9673L96.1033 88.1661V88.1674V88.1688C96.0626 88.5263 95.7603 88.7934 95.4062 88.7934C95.38 88.7934 95.3545 88.792 95.3282 88.7893H95.3276C94.9404 88.7472 94.665 88.3986 94.7064 88.0142L94.7223 87.8638L94.7285 87.8024C94.8128 86.9607 94.8672 86.1051 94.8903 85.248H96.295ZM65.4675 85.248H66.8794C66.8577 85.4876 66.8278 85.726 66.7901 85.9623C66.7335 86.3067 66.4361 86.5524 66.0972 86.5524C66.0606 86.5524 66.0234 86.5496 65.984 86.5427H65.982H65.9799C65.5996 86.4792 65.3401 86.1211 65.4029 85.7373C65.4288 85.5757 65.4504 85.4124 65.4675 85.248ZM74.0169 85.248H75.4237C75.3757 86.1531 75.2596 87.0534 75.0803 87.9355C75.0789 87.9424 75.0775 87.9507 75.0754 87.9672L75.0743 87.9763L75.0742 87.9763L75.0742 87.9763C75.0723 87.9914 75.0696 88.012 75.0651 88.0335V88.0348C75.0285 88.2095 74.9906 88.382 74.9498 88.5538C74.8712 88.8748 74.5854 89.0908 74.2673 89.0908C74.2107 89.0908 74.1582 89.0832 74.1106 89.0728H74.1058L74.101 89.0714C73.7241 88.9803 73.4929 88.6008 73.5827 88.2239C73.613 88.0983 73.6413 87.9727 73.6675 87.8451L73.6689 87.8416V87.8382L73.6705 87.8305L73.6717 87.8257C73.6724 87.8202 73.6738 87.8133 73.6758 87.8057L73.6827 87.776L73.6896 87.7464C73.8602 86.9269 73.9699 86.0897 74.0169 85.248ZM78.586 85.248H79.4267C79.307 85.3435 79.1554 85.3985 78.9859 85.3826C78.836 85.38 78.6982 85.3303 78.586 85.248ZM82.1004 85.248H83.5061C83.4728 86.1455 83.3927 87.0411 83.269 87.9224V87.9244V87.9265C83.2683 87.93 83.2676 87.9348 83.2662 87.9514C83.2656 87.9555 83.2651 87.9609 83.2645 87.9669C83.2639 87.9738 83.2632 87.9816 83.2621 87.9893V87.9914V87.9935C83.182 88.5545 83.0826 89.1108 82.9674 89.6595L82.9681 89.6581C82.8991 89.9894 82.6058 90.215 82.2821 90.215C82.2365 90.215 82.1882 90.2109 82.1385 90.2012H82.1371H82.1358C81.7562 90.1212 81.5132 89.7478 81.5933 89.3689C81.6975 88.872 81.7859 88.3689 81.8597 87.8596C81.8618 87.8423 81.8645 87.8271 81.8666 87.8175C81.8694 87.805 81.8701 87.7988 81.8701 87.7988V87.7968V87.7947C81.9906 86.9553 82.0677 86.1027 82.1004 85.248ZM86.3654 85.248H87.7694C87.7398 86.1422 87.669 87.0386 87.5607 87.9234C87.5601 87.9289 87.5594 87.9358 87.5587 87.9489L87.5576 87.9611L87.5566 87.9744L87.5559 87.9786V87.9827C87.2488 90.4217 86.6332 92.8165 85.727 95.0974C85.6173 95.3728 85.353 95.5398 85.0748 95.5398C84.9858 95.5398 84.9002 95.5225 84.8188 95.4922L84.8167 95.4901H84.8147C84.4544 95.3459 84.2784 94.9387 84.422 94.5777C85.2771 92.4245 85.8595 90.1636 86.1528 87.8606C86.1542 87.8481 86.1563 87.8378 86.1577 87.8316C86.1597 87.8243 86.1599 87.8233 86.1601 87.8215C86.1602 87.8209 86.1603 87.8202 86.1604 87.8191C86.1611 87.8157 86.1617 87.8131 86.1622 87.8111C86.1625 87.8099 86.1627 87.8089 86.1629 87.808L86.1632 87.8053C86.2691 86.959 86.3367 86.1027 86.3654 85.248ZM79.5354 88.9815C79.6313 88.6046 79.4029 88.2244 79.0288 88.1277C78.6458 88.0284 78.269 88.2623 78.1751 88.6357C77.643 90.7199 77.1993 92.045 76.563 93.2597C75.9253 94.4757 75.0902 95.5917 73.7582 97.2522C73.5167 97.5531 73.5643 97.9948 73.8659 98.2377H73.8666C73.9956 98.3419 74.1516 98.3923 74.3048 98.3923C74.5098 98.3923 74.7134 98.3026 74.8528 98.13C76.2151 96.4316 77.1116 95.2342 77.8038 93.9132C78.4974 92.5902 78.9819 91.154 79.5354 88.9808V88.9815ZM81.6867 91.8288H81.6874C82.0532 91.9578 82.2443 92.3588 82.1167 92.7232C81.0849 95.6653 80.4361 96.9152 78.6673 99.3672C78.53 99.5577 78.3133 99.6585 78.0979 99.6585C77.9558 99.6585 77.8122 99.6164 77.6866 99.5253H77.6859C77.3712 99.2975 77.3029 98.86 77.5293 98.5453C79.2249 96.1946 79.7985 95.0883 80.7909 92.2594C80.9186 91.8971 81.3168 91.697 81.6853 91.8288H81.6867ZM84.5001 96.3897C84.1329 96.2607 83.7347 96.456 83.6064 96.8204C83.371 97.4905 83.1115 98.0778 82.8127 98.6155C82.6243 98.9543 82.7471 99.3822 83.0846 99.5713L83.0867 99.5727L83.0887 99.5741C83.1936 99.63 83.3089 99.6596 83.4262 99.6596C83.6719 99.6596 83.9121 99.5292 84.0405 99.2987C84.38 98.6872 84.6713 98.0288 84.9314 97.2862C85.0605 96.9191 84.8666 96.5195 84.5008 96.3918L84.5001 96.3897ZM73.9114 91.6125C74.1109 91.2805 74.0053 90.8498 73.6747 90.6476H73.674L73.6733 90.6462C73.3427 90.4489 72.9121 90.5517 72.7099 90.8837C72.2372 91.6633 71.954 92.2071 71.7071 92.6812L71.7071 92.6813L71.6919 92.7105L71.6897 92.7148L71.6897 92.7148C71.301 93.4618 71.0486 93.9469 70.3026 94.8672C70.059 95.1674 70.106 95.6091 70.4062 95.8534L70.4069 95.8541H70.4075C70.5373 95.9604 70.6953 96.0101 70.8485 96.0101C71.0528 96.0101 71.2557 95.9217 71.3945 95.7492C72.2288 94.7195 72.5442 94.1142 72.9369 93.3585L72.9381 93.3563C73.1807 92.8896 73.4532 92.3656 73.9107 91.6111L73.9114 91.6125Z" fill="#CC7400"/>
<rect x="58.0161" y="84.2148" width="45.8373" height="2.26871" rx="1.13435" fill="#F58B00"/>
<path fill-rule="evenodd" clip-rule="evenodd" d="M22.9009 39.2289C24.0536 37.5938 25.2737 36.0096 26.5573 34.4805C28.8506 38.5179 29.5472 43.8497 29.7173 47.6529L24.4033 47.8906C24.3469 45.5552 23.942 42.1394 22.9009 39.2289Z" fill="#B8E6FF"/>
<path fill-rule="evenodd" clip-rule="evenodd" d="M10.0039 79.2408C10.1221 67.9877 12.8639 57.3637 17.6467 47.9512L25.9477 48.6311C28.0448 48.8029 29.7302 50.429 29.977 52.5185L32.5234 74.0778C32.8289 76.6636 30.8444 78.952 28.2414 79.0157L11.9244 79.4149C11.2668 79.431 10.6236 79.3704 10.0039 79.2408Z" fill="#B8E6FF"/>
<path d="M36.8129 72.3204L30.6353 78.2124L31.7201 74.2718L36.8129 72.3204Z" fill="#B8E6FF"/>
<path fill-rule="evenodd" clip-rule="evenodd" d="M22.9009 39.229C23.3245 38.6282 23.7571 38.0342 24.1987 37.4473C25.6959 39.4617 26.9176 42.146 27.6973 45.2551C27.9598 46.3018 28.1126 47.113 28.171 47.7219L25.6761 47.8335C25.2564 47.4132 24.8018 46.9204 24.3263 46.3857C24.1612 44.22 23.7355 41.5621 22.9009 39.229Z" fill="#9EDDFF"/>
<path fill-rule="evenodd" clip-rule="evenodd" d="M10.4839 71.6755C11.6201 61.969 14.7185 52.8621 19.3718 44.7622L29.5678 44.6643C32.4158 44.637 34.8701 46.6638 35.3818 49.4657L38.609 67.1382C39.2449 70.6205 36.6681 73.8659 33.1323 74.0359L17.4063 74.7923C14.6384 74.9254 12.1068 73.6938 10.4839 71.6755Z" fill="#D1EFFF"/>
<path d="M21.2737 67.1078L20.5023 60.1013C19.5167 59.8442 17.5262 58.6743 17.4491 56.0517C17.3526 52.7734 19.8036 51.9221 21.2531 51.9219C22.8508 51.9217 25.6447 52.7734 26.1911 56.3088C26.6282 59.1371 25.1947 60.0156 24.4234 60.1013L25.2912 67.1078H21.2737Z" fill="#9EDDFF"/>
<path fill-rule="evenodd" clip-rule="evenodd" d="M19.5142 52.3026C21.1256 52.3371 23.8178 53.2251 24.353 56.6884C24.7901 59.5167 23.3567 60.3952 22.5853 60.4809L23.4061 67.1078H25.2904L24.4226 60.1013C25.194 60.0156 26.6274 59.1371 26.1903 56.3088C25.6439 52.7734 22.85 51.9217 21.2523 51.9219C20.7449 51.9219 20.1148 52.0263 19.5142 52.3026Z" fill="#B8E6FF"/>
<path d="M101.484 137.115C101.484 136.43 99.4941 135.881 96.8357 135.757C96.6837 133.102 96.0985 131.127 95.413 131.129C94.7275 131.13 94.1575 133.12 94.0116 135.789C91.3455 135.971 89.3635 136.567 89.3726 137.254C89.3817 137.941 91.3622 138.489 94.0207 138.612C94.1803 141.267 94.7579 143.242 95.4418 143.24C96.1258 143.239 96.6989 141.249 96.8448 138.58C99.5108 138.398 101.491 137.802 101.484 137.115Z" fill="#D1EFFF"/>
<path d="M80.8435 27.6672C80.8435 26.639 77.859 25.8161 73.8714 25.6291C73.6434 21.6465 72.7656 18.6852 71.7374 18.6875C70.7091 18.6898 69.8541 21.6739 69.6352 25.677C65.6362 25.9506 62.6631 26.8442 62.6768 27.8746C62.6905 28.905 65.6613 29.728 69.6489 29.9127C69.8883 33.8953 70.7547 36.8566 71.7807 36.8543C72.8067 36.852 73.6662 33.8679 73.8851 29.8648C77.8841 29.5912 80.8549 28.6976 80.8435 27.6672Z" fill="#D1EFFF"/>
<path d="M119.358 84.6451C133.55 86.7115 142.169 81.8762 145.028 77.1683C146.426 82.4961 154.129 89.7079 168.321 91.7744C163.935 132.076 139.859 137.304 129.944 138.174C120.689 134.513 112.069 124.524 119.358 84.6451Z" fill="#B8E6FF"/>
<path d="M138.457 75.707L144.935 77.5618L141.603 83.2104L138.457 75.707Z" fill="#B8E6FF"/>
<path d="M112.223 83.9297C126.415 85.9962 135.56 80.4205 138.42 75.7126C139.818 81.0404 146.993 88.9925 161.186 91.059C156.8 131.361 139.235 137.334 129.321 138.204C120.066 134.543 104.934 123.809 112.223 83.9297Z" fill="#D1EFFF"/>
<path d="M118.335 89.0793C129.177 90.6579 133.959 91.3925 136.16 87.6868C137.202 91.8271 144.755 92.9265 155.437 94.4815L155.739 94.5256C152.261 126.186 138.817 130.931 131.236 131.645C124.173 128.799 112.64 120.417 118.335 89.0793Z" fill="#9EDDFF"/>
<path d="M116.859 88.8646C127.701 90.4433 134.709 86.0366 136.909 82.3309C137.962 86.5102 143.422 92.7323 154.264 94.3109C150.786 125.971 137.342 130.717 129.76 131.431C122.697 128.584 111.164 120.202 116.859 88.8646Z" fill="#B8E6FF"/>
<path fill-rule="evenodd" clip-rule="evenodd" d="M142.108 102.058C142.538 102.679 142.4 103.554 141.8 104.012L129.512 113.402C128.912 113.861 128.078 113.729 127.648 113.108L124.349 108.339C123.919 107.718 124.057 106.843 124.657 106.385C125.257 105.926 126.092 106.058 126.521 106.679L129.043 110.324L140.244 101.764C140.844 101.305 141.679 101.437 142.108 102.058Z" fill="#EBF8FF"/>
</svg>
