<svg width="45" height="45" viewBox="0 0 45 45" fill="none" xmlns="http://www.w3.org/2000/svg">
<path d="M42 22.5C42 33.2696 33.2696 42 22.5 42C11.7304 42 3 33.2696 3 22.5C3 11.7304 11.7304 3 22.5 3C33.2696 3 42 11.7304 42 22.5Z" fill="#00A800"/>
<path fill-rule="evenodd" clip-rule="evenodd" d="M32.3234 15.2649C33.0879 16.0234 33.0928 17.258 32.3343 18.0226L20.7272 29.7226C20.3611 30.0916 19.8627 30.2992 19.3429 30.2992C18.823 30.2992 18.3246 30.0916 17.9585 29.7226L13.3157 25.0426C12.5572 24.278 12.5621 23.0434 13.3266 22.2849C14.0912 21.5264 15.3259 21.5313 16.0843 22.2959L19.3429 25.5805L29.5657 15.2759C30.3241 14.5113 31.5588 14.5064 32.3234 15.2649Z" fill="#CEDBE8"/>
<path d="M22.4576 45C16.5038 44.9925 10.7959 42.6196 6.58592 38.4016C2.37591 34.1837 0.00745397 28.4651 0 22.5C0.00652406 16.5346 2.37468 10.8155 6.58489 6.59731C10.7951 2.37916 16.5035 0.00653637 22.4576 0C28.4118 0.00653637 34.1202 2.37916 38.3304 6.59731C42.5406 10.8155 44.9087 16.5346 44.9153 22.5C44.9078 28.4651 42.5393 34.1837 38.3293 38.4016C34.1193 42.6196 28.4115 44.9925 22.4576 45ZM22.4576 1.20296C16.822 1.2095 11.419 3.45539 7.43392 7.44794C3.44888 11.4405 1.20723 16.8537 1.20071 22.5C1.20724 28.146 3.449 33.5588 7.43413 37.5508C11.4193 41.5428 16.8223 43.7879 22.4576 43.7935C28.093 43.7879 33.496 41.5428 37.4811 37.5508C41.4663 33.5588 43.7081 28.146 43.7146 22.5C43.7081 16.8537 41.4664 11.4405 37.4813 7.44794C33.4963 3.45539 28.0933 1.2095 22.4576 1.20296Z" fill="#00A800"/>
</svg>
