<?xml version="1.0" encoding="UTF-8"?>
<!--Generator: Apple Native CoreSVG 341-->
<!DOCTYPE svg
PUBLIC "-//W3C//DTD SVG 1.1//EN"
       "http://www.w3.org/Graphics/SVG/1.1/DTD/svg11.dtd">
<svg version="1.1" xmlns="http://www.w3.org/2000/svg" xmlns:xlink="http://www.w3.org/1999/xlink" viewBox="0 0 3300 2200">
 <!--glyph: "", point size: 100.0, font version: "21.0d4e1", template writer version: "138.0.0"-->
 <style>.defaults {-sfsymbols-draw-reverses-motion-groups:true}

.monochrome-0 {-sfsymbols-motion-group:1;-sfsymbols-layer-tags:-45998e2b2c30ef2d}
.monochrome-1 {-sfsymbols-motion-group:0;-sfsymbols-layer-tags:-45998e2b2c30ef2d}

.multicolor-0:tintColor {-sfsymbols-motion-group:1;-sfsymbols-layer-tags:-45998e2b2c30ef2d}
.multicolor-1:tintColor {-sfsymbols-motion-group:0;-sfsymbols-layer-tags:-45998e2b2c30ef2d}

.hierarchical-0:primary {-sfsymbols-motion-group:1;-sfsymbols-layer-tags:-45998e2b2c30ef2d}
.hierarchical-1:primary {-sfsymbols-motion-group:0;-sfsymbols-layer-tags:-45998e2b2c30ef2d}

.SFSymbolsPreviewWireframe {fill:none;opacity:1.0;stroke:black;stroke-width:0.5}
</style>
 <g id="Notes">
  <rect height="2200" id="artboard" style="fill:white;opacity:1" width="3300" x="0" y="0"/>
  <line style="fill:none;stroke:black;opacity:1;stroke-width:0.5;" x1="263" x2="3036" y1="292" y2="292"/>
  <text style="stroke:none;fill:black;font-family:sans-serif;font-size:13;font-weight:bold;" transform="matrix(1 0 0 1 263 322)">Weight/Scale Variations</text>
  <text style="stroke:none;fill:black;font-family:sans-serif;font-size:13;text-anchor:middle;" transform="matrix(1 0 0 1 559.711 322)">Ultralight</text>
  <text style="stroke:none;fill:black;font-family:sans-serif;font-size:13;text-anchor:middle;" transform="matrix(1 0 0 1 856.422 322)">Thin</text>
  <text style="stroke:none;fill:black;font-family:sans-serif;font-size:13;text-anchor:middle;" transform="matrix(1 0 0 1 1153.13 322)">Light</text>
  <text style="stroke:none;fill:black;font-family:sans-serif;font-size:13;text-anchor:middle;" transform="matrix(1 0 0 1 1449.84 322)">Regular</text>
  <text style="stroke:none;fill:black;font-family:sans-serif;font-size:13;text-anchor:middle;" transform="matrix(1 0 0 1 1746.56 322)">Medium</text>
  <text style="stroke:none;fill:black;font-family:sans-serif;font-size:13;text-anchor:middle;" transform="matrix(1 0 0 1 2043.27 322)">Semibold</text>
  <text style="stroke:none;fill:black;font-family:sans-serif;font-size:13;text-anchor:middle;" transform="matrix(1 0 0 1 2339.98 322)">Bold</text>
  <text style="stroke:none;fill:black;font-family:sans-serif;font-size:13;text-anchor:middle;" transform="matrix(1 0 0 1 2636.69 322)">Heavy</text>
  <text style="stroke:none;fill:black;font-family:sans-serif;font-size:13;text-anchor:middle;" transform="matrix(1 0 0 1 2933.4 322)">Black</text>
  <line style="fill:none;stroke:black;opacity:1;stroke-width:0.5;" x1="263" x2="3036" y1="1903" y2="1903"/>
  <g transform="matrix(0.2 0 0 0.2 263 1933)">
   <path d="m46.2402 4.15039c21.7773 0 39.4531-17.627 39.4531-39.4043s-17.6758-39.4043-39.4531-39.4043c-21.7285 0-39.4043 17.627-39.4043 39.4043s17.6758 39.4043 39.4043 39.4043Zm0-7.42188c-17.6758 0-31.9336-14.3066-31.9336-31.9824s14.2578-31.9824 31.9336-31.9824 31.9824 14.3066 31.9824 31.9824-14.3066 31.9824-31.9824 31.9824Zm3.61328-17.7734v-28.4668c0-2.24609-1.46484-3.75977-3.71094-3.75977-2.14844 0-3.61328 1.51367-3.61328 3.75977v28.4668c0 2.19727 1.46484 3.71094 3.61328 3.71094 2.24609 0 3.71094-1.51367 3.71094-3.71094Zm-17.8223-10.5957h28.418c2.19727 0 3.71094-1.46484 3.71094-3.61328 0-2.19727-1.51367-3.71094-3.71094-3.71094h-28.418c-2.24609 0-3.75977 1.51367-3.75977 3.71094 0 2.14844 1.51367 3.61328 3.75977 3.61328Z"/>
  </g>
  <g transform="matrix(0.2 0 0 0.2 281.506 1933)">
   <path d="m58.5449 14.5508c27.4902 0 49.8047-22.3145 49.8047-49.8047s-22.3145-49.8047-49.8047-49.8047-49.8047 22.3145-49.8047 49.8047 22.3145 49.8047 49.8047 49.8047Zm0-8.30078c-22.9492 0-41.5039-18.5547-41.5039-41.5039s18.5547-41.5039 41.5039-41.5039 41.5039 18.5547 41.5039 41.5039-18.5547 41.5039-41.5039 41.5039Zm4.05273-23.0957v-36.9141c0-2.49023-1.70898-4.19922-4.15039-4.19922-2.39258 0-4.05273 1.70898-4.05273 4.19922v36.9141c0 2.44141 1.66016 4.15039 4.05273 4.15039 2.44141 0 4.15039-1.66016 4.15039-4.15039Zm-22.5586-14.4043h36.9629c2.44141 0 4.15039-1.61133 4.15039-4.00391 0-2.44141-1.70898-4.15039-4.15039-4.15039h-36.9629c-2.49023 0-4.15039 1.70898-4.15039 4.15039 0 2.39258 1.66016 4.00391 4.15039 4.00391Z"/>
  </g>
  <g transform="matrix(0.2 0 0 0.2 304.924 1933)">
   <path d="m74.8535 28.3203c35.1074 0 63.623-28.4668 63.623-63.5742s-28.5156-63.623-63.623-63.623-63.5742 28.5156-63.5742 63.623 28.4668 63.5742 63.5742 63.5742Zm0-9.08203c-30.127 0-54.4922-24.3652-54.4922-54.4922s24.3652-54.4922 54.4922-54.4922 54.4922 24.3652 54.4922 54.4922-24.3652 54.4922-54.4922 54.4922Zm4.44336-30.3223v-48.4863c0-2.73438-1.85547-4.63867-4.54102-4.63867-2.58789 0-4.44336 1.9043-4.44336 4.63867v48.4863c0 2.68555 1.85547 4.58984 4.44336 4.58984 2.68555 0 4.54102-1.85547 4.54102-4.58984Zm-28.7109-19.7754h48.4863c2.68555 0 4.58984-1.80664 4.58984-4.39453 0-2.73438-1.85547-4.58984-4.58984-4.58984h-48.4863c-2.73438 0-4.58984 1.85547-4.58984 4.58984 0 2.58789 1.85547 4.39453 4.58984 4.39453Z"/>
  </g>
  <text style="stroke:none;fill:black;font-family:sans-serif;font-size:13;font-weight:bold;" transform="matrix(1 0 0 1 263 1953)">Design Variations</text>
  <text style="stroke:none;fill:black;font-family:sans-serif;font-size:13;" transform="matrix(1 0 0 1 263 1971)">Symbols are supported in up to nine weights and three scales.</text>
  <text style="stroke:none;fill:black;font-family:sans-serif;font-size:13;" transform="matrix(1 0 0 1 263 1989)">For optimal layout with text and other symbols, vertically align</text>
  <text style="stroke:none;fill:black;font-family:sans-serif;font-size:13;" transform="matrix(1 0 0 1 263 2007)">symbols with the adjacent text.</text>
  <line style="fill:none;stroke:#00AEEF;stroke-width:0.5;opacity:1.0;" x1="776" x2="776" y1="1919" y2="1933"/>
  <g transform="matrix(0.2 0 0 0.2 776 1933)">
   <path d="m16.5527 0.78125c2.58789 0 3.85742-0.976562 4.78516-3.71094l20.5566-57.5195h0.244141l20.6055 57.5195c0.927734 2.73438 2.19727 3.71094 4.73633 3.71094 2.58789 0 4.24805-1.5625 4.24805-4.00391 0-0.830078-0.146484-1.61133-0.537109-2.63672l-22.9004-60.9863c-1.12305-2.97852-3.125-4.49219-6.25-4.49219-3.02734 0-5.07812 1.46484-6.15234 4.44336l-22.9004 61.084c-0.390625 1.02539-0.537109 1.80664-0.537109 2.63672 0 2.44141 1.5625 3.95508 4.10156 3.95508Zm10.2051-20.9473h30.6641c2.00195 0 3.66211-1.66016 3.66211-3.66211 0-2.05078-1.66016-3.66211-3.66211-3.66211h-30.6641c-2.00195 0-3.66211 1.61133-3.66211 3.66211 0 2.00195 1.66016 3.66211 3.66211 3.66211Z"/>
  </g>
  <line style="fill:none;stroke:#00AEEF;stroke-width:0.5;opacity:1.0;" x1="792.836" x2="792.836" y1="1919" y2="1933"/>
  <text style="stroke:none;fill:black;font-family:sans-serif;font-size:13;font-weight:bold;" transform="matrix(1 0 0 1 776 1953)">Margins</text>
  <text style="stroke:none;fill:black;font-family:sans-serif;font-size:13;" transform="matrix(1 0 0 1 776 1971)">Leading and trailing margins on the left and right side of each symbol</text>
  <text style="stroke:none;fill:black;font-family:sans-serif;font-size:13;" transform="matrix(1 0 0 1 776 1989)">can be adjusted by modifying the x-location of the margin guidelines.</text>
  <text style="stroke:none;fill:black;font-family:sans-serif;font-size:13;" transform="matrix(1 0 0 1 776 2007)">Modifications are automatically applied proportionally to all</text>
  <text style="stroke:none;fill:black;font-family:sans-serif;font-size:13;" transform="matrix(1 0 0 1 776 2025)">scales and weights.</text>
  <g transform="matrix(0.2 0 0 0.2 1289 1933)">
   <path d="m14.209 13.1348 7.86133 7.86133c4.29688 4.39453 9.32617 4.10156 13.8672-1.02539l60.6934-68.2129-4.88281-4.88281-60.2539 67.6758c-1.80664 1.95312-3.4668 2.44141-5.81055 0.0976562l-5.17578-5.12695c-2.29492-2.29492-1.80664-3.95508 0.195312-5.81055l67.4805-62.1582-4.88281-4.83398-68.0664 62.5977c-4.98047 4.58984-5.32227 9.47266-1.02539 13.8184Zm44.873-97.4609c-2.05078 2.00195-2.24609 4.88281-1.07422 6.78711 1.12305 1.80664 3.4668 3.02734 6.5918 2.24609 5.85938-1.66016 12.5977-2.39258 18.8965 0.927734l-2.68555 7.12891c-1.61133 4.00391-0.732422 6.88477 1.70898 9.42383l10.2539 10.3027c2.34375 2.39258 4.54102 2.44141 7.08008 1.95312l4.44336-0.732422 2.58789 2.53906-0.195312 2.24609c-0.0976562 2.29492 0.537109 4.29688 2.7832 6.49414l3.36914 3.32031c2.29492 2.29492 5.51758 2.49023 7.8125 0.195312l12.9883-13.0371c2.29492-2.34375 2.14844-5.37109-0.195312-7.66602l-3.41797-3.41797c-2.19727-2.19727-4.05273-3.02734-6.34766-2.88086l-2.34375 0.244141-2.44141-2.44141 1.02539-4.6875c0.634766-2.73438-0.244141-4.98047-2.88086-7.61719l-11.2793-11.1816c-12.9395-12.8418-35.5957-11.0352-46.6797-0.146484Zm7.08008 2.05078c8.78906-6.39648 25.9766-5.66406 33.6914 1.95312l12.3047 12.207c1.02539 1.02539 1.2207 1.80664 0.927734 3.32031l-1.46484 6.64062 6.73828 6.68945 4.39453-0.244141c1.12305-0.0488281 1.51367 0.0488281 2.34375 0.878906l2.53906 2.49023-10.8398 10.8398-2.49023-2.49023c-0.830078-0.878906-0.976562-1.2207-0.927734-2.39258l0.292969-4.3457-6.68945-6.73828-6.83594 1.17188c-1.41602 0.292969-2.05078 0.195312-3.17383-0.878906l-8.93555-8.88672c-1.07422-1.02539-1.17188-1.70898-0.488281-3.36914l4.58984-11.4746c-6.10352-6.34766-17.041-7.51953-25.5859-4.58984-0.683594 0.244141-0.927734-0.390625-0.390625-0.78125Z"/>
  </g>
  <text style="stroke:none;fill:black;font-family:sans-serif;font-size:13;font-weight:bold;" transform="matrix(1 0 0 1 1289 1953)">Exporting</text>
  <text style="stroke:none;fill:black;font-family:sans-serif;font-size:13;" transform="matrix(1 0 0 1 1289 1971)">Symbols should be outlined when exporting to ensure the</text>
  <text style="stroke:none;fill:black;font-family:sans-serif;font-size:13;" transform="matrix(1 0 0 1 1289 1989)">design is preserved when submitting to Xcode.</text>
  <text id="template-version" style="stroke:none;fill:black;font-family:sans-serif;font-size:13;text-anchor:end;" transform="matrix(1 0 0 1 3036 1933)">Template v.5.0</text>
  <text style="stroke:none;fill:black;font-family:sans-serif;font-size:13;text-anchor:end;" transform="matrix(1 0 0 1 3036 1951)">Requires Xcode 15 or greater</text>
  <text id="descriptive-name" style="stroke:none;fill:black;font-family:sans-serif;font-size:13;text-anchor:end;" transform="matrix(1 0 0 1 3036 1969)">Generated from fiori.family.protection</text>
  <text style="stroke:none;fill:black;font-family:sans-serif;font-size:13;text-anchor:end;" transform="matrix(1 0 0 1 3036 1987)">Typeset at 100.0 points</text>
  <text style="stroke:none;fill:black;font-family:sans-serif;font-size:13;" transform="matrix(1 0 0 1 263 726)">Small</text>
  <text style="stroke:none;fill:black;font-family:sans-serif;font-size:13;" transform="matrix(1 0 0 1 263 1156)">Medium</text>
  <text style="stroke:none;fill:black;font-family:sans-serif;font-size:13;" transform="matrix(1 0 0 1 263 1586)">Large</text>
 </g>
 <g id="Guides">
  <g id="H-reference" style="fill:#27AAE1;stroke:none;" transform="matrix(1 0 0 1 339 696)">
   <path d="M0.993654 0L3.63775 0L29.3281-67.1323L30.0303-67.1323L30.0303-70.459L28.1226-70.459ZM11.6885-24.4799L46.9815-24.4799L46.2315-26.7285L12.4385-26.7285ZM55.1196 0L57.7637 0L30.6382-70.459L29.4326-70.459L29.4326-67.1323Z"/>
  </g>
  <line id="Baseline-S" style="fill:none;stroke:#27AAE1;opacity:1;stroke-width:0.5;" x1="263" x2="3036" y1="696" y2="696"/>
  <line id="Capline-S" style="fill:none;stroke:#27AAE1;opacity:1;stroke-width:0.5;" x1="263" x2="3036" y1="625.541" y2="625.541"/>
  <g id="H-reference" style="fill:#27AAE1;stroke:none;" transform="matrix(1 0 0 1 339 1126)">
   <path d="M0.993654 0L3.63775 0L29.3281-67.1323L30.0303-67.1323L30.0303-70.459L28.1226-70.459ZM11.6885-24.4799L46.9815-24.4799L46.2315-26.7285L12.4385-26.7285ZM55.1196 0L57.7637 0L30.6382-70.459L29.4326-70.459L29.4326-67.1323Z"/>
  </g>
  <line id="Baseline-M" style="fill:none;stroke:#27AAE1;opacity:1;stroke-width:0.5;" x1="263" x2="3036" y1="1126" y2="1126"/>
  <line id="Capline-M" style="fill:none;stroke:#27AAE1;opacity:1;stroke-width:0.5;" x1="263" x2="3036" y1="1055.54" y2="1055.54"/>
  <g id="H-reference" style="fill:#27AAE1;stroke:none;" transform="matrix(1 0 0 1 339 1556)">
   <path d="M0.993654 0L3.63775 0L29.3281-67.1323L30.0303-67.1323L30.0303-70.459L28.1226-70.459ZM11.6885-24.4799L46.9815-24.4799L46.2315-26.7285L12.4385-26.7285ZM55.1196 0L57.7637 0L30.6382-70.459L29.4326-70.459L29.4326-67.1323Z"/>
  </g>
  <line id="Baseline-L" style="fill:none;stroke:#27AAE1;opacity:1;stroke-width:0.5;" x1="263" x2="3036" y1="1556" y2="1556"/>
  <line id="Capline-L" style="fill:none;stroke:#27AAE1;opacity:1;stroke-width:0.5;" x1="263" x2="3036" y1="1485.54" y2="1485.54"/>
  <line id="right-margin-Black-S" style="fill:none;stroke:#00AEEF;stroke-width:0.5;opacity:1.0;" x1="2981.9" x2="2981.9" y1="600.785" y2="720.121"/>
  <line id="left-margin-Black-S" style="fill:none;stroke:#00AEEF;stroke-width:0.5;opacity:1.0;" x1="2884.9" x2="2884.9" y1="600.785" y2="720.121"/>
  <line id="right-margin-Regular-S" style="fill:none;stroke:#00AEEF;stroke-width:0.5;opacity:1.0;" x1="1496.29" x2="1496.29" y1="600.785" y2="720.121"/>
  <line id="left-margin-Regular-S" style="fill:none;stroke:#00AEEF;stroke-width:0.5;opacity:1.0;" x1="1403.39" x2="1403.39" y1="600.785" y2="720.121"/>
  <line id="right-margin-Ultralight-S" style="fill:none;stroke:#00AEEF;stroke-width:0.5;opacity:1.0;" x1="604.411" x2="604.411" y1="600.785" y2="720.121"/>
  <line id="left-margin-Ultralight-S" style="fill:none;stroke:#00AEEF;stroke-width:0.5;opacity:1.0;" x1="515.011" x2="515.011" y1="600.785" y2="720.121"/>
 </g>
 <g id="Symbols">
  <g id="Black-S" transform="matrix(1 0 0 1 2884.9 696)">
   <path class="monochrome-0 multicolor-0:tintColor hierarchical-0:primary SFSymbolsPreviewWireframe" d="M13.51-52.3L48.51-66.3L83.51-52.3C84.01-52.1 85.01-51.9 85.61-51.9C88.31-51.9 90.11-53.6 90.71-55.4C92.11-59 89.61-61.8 87.61-62.6L50.61-77.4C49.31-77.9 47.81-77.9 46.51-77.4L9.51-62.6C5.51-60.4 5.81-57.5 6.41-55.4C7.01-53 10.31-51 13.51-52.3Z"/>
   <path class="monochrome-1 multicolor-1:tintColor hierarchical-1:primary SFSymbolsPreviewWireframe" d="M77.11-31.1C79.11-33.9 79.91-37.3 79.91-40.4C79.91-50.5 71.91-57 63.31-57C57.61-57 51.91-54.1 49.31-49.6C48.81-49.7 49.01-49.6 48.51-49.6C47.91-49.6 48.11-49.6 47.51-49.6C44.81-54.3 39.21-57 33.61-57C25.31-57 17.01-50.7 17.01-40.4C17.01-36.4 18.11-34.4 19.81-31.1C11.41-26.2 6.01-17.4 6.01-7.1L6.01-3.4C6.01-0.3 8.51 2.1 11.51 2.1L23.71 2.1L24.51 2.1C24.51 4.4 26.71 7.2 30.01 7.2L67.01 7.2C70.41 7.2 72.51 4.3 72.51 2.1L73.51 2.1L85.51 2.1C88.61 2.1 91.01-0.4 91.01-3.4L91.01-7.1C91.01-17.4 85.21-26.5 77.11-31.1ZM42.91-33C42.91-36.2 45.21-38.6 48.51-38.6C51.81-38.6 54.11-36.2 54.11-33C54.11-29.8 51.81-27.4 48.51-27.4C45.21-27.4 42.91-29.8 42.91-33ZM63.31-46C67.41-46 68.91-42.7 68.91-40.4C68.91-37.7 67.31-35.7 65.01-35C64.21-39.6 62.91-42.1 60.11-45C60.71-45.6 61.91-46 63.31-46ZM33.71-46C35.31-46 36.01-45.6 36.91-45C34.01-41.9 32.51-39 32.01-35.1C28.91-36 28.11-38.7 28.11-40.5C28.11-44.5 31.31-46 33.71-46ZM34.61-23.8L34.71-23.6C34.91-23.3 34.81-23.5 35.01-23.2C29.81-19.3 26.91-14.9 25.31-8.9L17.11-8.9C18.31-19 27.31-24.2 34.61-23.8ZM35.61-3.8C36.31-12.1 42.91-16.4 48.51-16.4C54.81-16.4 60.11-12.3 61.41-3.8L35.61-3.8ZM71.71-8.9C70.11-14.8 67.31-19.4 62.01-23.2C62.21-23.4 62.11-23.4 62.21-23.5L62.41-23.8C72.21-23.8 78.71-17.5 79.91-8.9L71.71-8.9Z"/>
  </g>
  <g id="Regular-S" transform="matrix(1 0 0 1 1403.39 696)">
   <path class="monochrome-0 multicolor-0:tintColor hierarchical-0:primary SFSymbolsPreviewWireframe" d="M11.06-53.6L46.56-67.8L81.96-53.6C82.46-53.4 82.96-53.3 83.46-53.3C85.06-53.3 86.66-54.3 87.26-55.9C88.06-58 87.06-60.4 84.96-61.2L47.96-76C46.96-76.4 45.86-76.4 44.86-76L7.96-61.3C5.86-60.5 4.86-58.1 5.66-56C6.56-53.8 8.96-52.8 11.06-53.6Z"/>
   <path class="monochrome-1 multicolor-1:tintColor hierarchical-1:primary SFSymbolsPreviewWireframe" d="M73.06-30.7C75.26-33.3 76.56-36.7 76.56-40.5C76.56-49 69.86-55.7 61.36-55.7C55.66-55.7 50.76-52.8 48.16-48.2C47.66-48.3 47.16-48.3 46.56-48.3C45.96-48.3 45.46-48.3 44.86-48.2C42.16-52.9 37.26-55.7 31.76-55.7C23.26-55.7 16.56-49 16.56-40.5C16.56-36.7 17.86-33.3 20.06-30.7C11.36-26.3 5.36-17.4 5.36-7.1L5.36-3.4C5.36-1.1 7.16 0.7 9.46 0.7L23.86 0.7L23.86 1.7C23.86 4 25.66 5.8 27.96 5.8L64.96 5.8C67.26 5.8 69.06 4 69.06 1.7L69.06 0.7L83.46 0.7C85.76 0.7 87.56-1.1 87.56-3.4L87.56-7.1C87.66-17.4 81.66-26.3 73.06-30.7ZM39.46-33C39.46-37.1 42.36-40 46.46-40C50.56-40 53.46-37.1 53.46-33C53.46-28.9 50.56-26 46.46-26C42.36-26 39.46-29 39.46-33ZM61.26-47.4C65.36-47.4 68.26-44.5 68.26-40.4C68.26-36.5 65.46-33.6 61.66-33.4C61.56-38.2 59.36-42.3 55.86-45C57.16-46.5 59.16-47.4 61.26-47.4ZM31.66-47.4C33.76-47.4 35.66-46.5 36.96-44.9C33.56-42.2 31.36-38.1 31.26-33.4C27.46-33.6 24.66-36.5 24.66-40.4C24.66-44.5 27.66-47.4 31.66-47.4ZM31.66-25.2L33.36-25.2C33.86-24.4 34.46-23.6 35.06-22.9C29.66-19.7 25.76-14.2 24.36-7.5L13.56-7.5C13.86-17.3 21.86-25.2 31.66-25.2ZM32.06-2.4C32.16-11.1 38.46-17.8 46.46-17.8C54.46-17.8 60.86-11 60.86-2.4L32.06-2.4ZM68.56-7.5C67.16-14.1 63.26-19.6 57.86-22.9C58.46-23.6 59.06-24.4 59.56-25.2L61.26-25.2C71.06-25.2 79.16-17.3 79.36-7.5L68.56-7.5Z"/>
  </g>
  <g id="Ultralight-S" transform="matrix(1 0 0 1 515.011 696)">
   <path class="monochrome-0 multicolor-0:tintColor hierarchical-0:primary SFSymbolsPreviewWireframe" d="M8.175-56.2L44.675-70.8L81.175-56.2C81.275-56.2 81.475-56.1 81.675-56.1C82.175-56.1 82.675-56.4 82.875-56.9C83.175-57.6 82.875-58.3 82.175-58.6L45.175-73.4C44.875-73.5 44.575-73.5 44.275-73.4L7.275-58.6C6.675-58.3 6.275-57.6 6.575-56.9C6.875-56.2 7.675-56 8.175-56.2Z"/>
   <path class="monochrome-1 multicolor-1:tintColor hierarchical-1:primary SFSymbolsPreviewWireframe" d="M66.875-29.7C68.975-32.3 71.975-35 71.975-40.4C71.975-47.9 65.975-52.8 59.575-52.8C53.875-52.8 50.275-49.9 47.875-45.1C47.375-45.2 45.275-45.3 44.775-45.3C44.175-45.3 42.075-45.1 41.575-45C39.175-49.9 35.575-52.7 29.975-52.7C23.175-52.7 17.575-47.4 17.575-40.3C17.575-34.6 20.475-32.2 22.675-29.6C12.475-25.5 6.475-17.4 6.475-7.1L6.475-3.4C6.475-2.7 7.075-2.1 7.775-2.1L24.975-2.1L24.975 1.8C24.975 2.5 25.575 3 26.275 3L63.275 3C63.975 3 64.575 2.4 64.575 1.7L64.575-2.2L81.775-2.2C82.475-2.2 83.075-2.8 83.075-3.5L83.075-7.2C83.075-17.4 77.575-24.9 66.875-29.7ZM34.975-33C34.975-38.7 39.075-42.8 44.775-42.8C50.475-42.8 54.575-38.7 54.575-33C54.575-27.3 50.475-23.2 44.775-23.2C39.075-23.2 34.975-27.3 34.975-33ZM59.575-50.3C66.475-50.3 69.375-44.5 69.375-40.5C69.375-33.1 63.375-30.5 57.175-30.5C57.075-36.8 56.675-39.9 50.075-44.7C53.075-48.5 55.575-50.3 59.575-50.3ZM29.975-50.3C35.475-50.3 37.975-46.1 39.275-44.6C34.575-41.7 31.875-37.6 32.275-30.5C26.275-30.1 20.275-32.8 20.075-40.5C19.975-45.7 23.975-50.3 29.975-50.3ZM29.075-28L33.275-28C33.675-26.3 37.075-22.9 37.775-22.2C30.075-18.8 25.975-11.9 24.975-4.7L8.975-4.7C8.175-17.3 17.475-27.7 29.075-28ZM27.475 0.5C26.775-9.2 32.175-20.6 44.775-20.6C56.275-20.6 62.975-10.1 61.975 0.5L27.475 0.5ZM64.475-4.7C62.775-15.5 57.275-19.1 51.775-22.2C52.375-22.9 55.675-26.4 56.275-28L60.375-28C71.675-28 81.375-17.7 80.575-4.6L64.475-4.6Z"/>
  </g>
 </g>
</svg>
