<svg width="128" height="128" viewBox="0 0 128 128" fill="none" xmlns="http://www.w3.org/2000/svg">
<mask id="mask0_2810_46759" style="mask-type:alpha" maskUnits="userSpaceOnUse" x="0" y="0" width="128" height="128">
<circle cx="64" cy="64" r="64" fill="#EBF8FF"/>
</mask>
<g mask="url(#mask0_2810_46759)">
<path d="M131.911 -3.65698H-39.7511C-40.87 -3.65816 -41.9782 -3.40633 -43.0122 -2.91589C-44.0463 -2.42545 -44.9859 -1.706 -45.7775 -0.798687C-46.5691 0.108631 -47.197 1.18603 -47.6255 2.37193C-48.0539 3.55783 -48.2744 4.82898 -48.2744 6.11272V121.879C-48.2744 124.472 -47.3764 126.959 -45.778 128.793C-44.1796 130.627 -42.0116 131.657 -39.7511 131.657H131.911C134.171 131.657 136.339 130.627 137.938 128.793C139.536 126.959 140.434 124.472 140.434 121.879V6.11272C140.434 4.82898 140.214 3.55783 139.785 2.37193C139.357 1.18603 138.729 0.108631 137.937 -0.798687C137.146 -1.706 136.206 -2.42545 135.172 -2.91589C134.138 -3.40633 133.03 -3.65816 131.911 -3.65698Z" fill="#223548"/>
<path d="M40.4849 78.1223H-31.4848C-32.594 78.1223 -33.4932 79.0231 -33.4932 80.1343V126.828C-33.4932 127.939 -32.594 128.84 -31.4848 128.84H40.4849C41.5941 128.84 42.4933 127.939 42.4933 126.828V80.1343C42.4933 79.0231 41.5941 78.1223 40.4849 78.1223Z" fill="#2A4259"/>
<path d="M38.819 80.8552H-29.9183C-30.9477 80.8552 -31.7822 81.6912 -31.7822 82.7225V124.78C-31.7822 125.811 -30.9477 126.647 -29.9183 126.647H38.819C39.8484 126.647 40.6829 125.811 40.6829 124.78V82.7225C40.6829 81.6912 39.8484 80.8552 38.819 80.8552Z" fill="#223548"/>
<path d="M4.63888 79.9099C4.90759 79.9099 5.12541 79.6917 5.12541 79.4225C5.12541 79.1533 4.90759 78.9351 4.63888 78.9351C4.37017 78.9351 4.15234 79.1533 4.15234 79.4225C4.15234 79.6917 4.37017 79.9099 4.63888 79.9099Z" fill="#324E6B"/>
<path d="M125.34 79.4488L93.0471 68.3869C91.6757 67.9211 90.1879 68.6457 89.7221 70.0171L73.6274 116.994C73.1616 118.366 73.8861 119.854 75.2576 120.32L107.55 131.381C108.922 131.847 110.41 131.123 110.876 129.751L126.97 82.7738C127.436 81.4024 126.711 79.9146 125.34 79.4488Z" fill="#2A4259"/>
<path d="M105.972 80.2512C104.911 79.8243 103.733 79.7208 102.621 79.9666C101.495 80.1995 100.473 80.7687 99.6709 81.5968C98.8688 82.4248 98.3254 83.4598 98.1184 84.5854C97.9114 85.711 98.0408 86.8754 98.4936 87.9363C98.9464 88.9972 99.6968 89.8899 100.667 90.5109C101.625 91.132 102.75 91.4683 103.902 91.4425C105.053 91.4295 106.166 91.0673 107.11 90.4204C108.055 89.7735 108.792 88.8549 109.219 87.794L103.824 85.6463L105.985 80.2512H105.972Z" fill="#223548"/>
<path d="M107.693 79.4617L105.545 84.8438L110.927 86.9915C111.212 86.2799 111.354 85.5295 111.341 84.7662C111.341 84.0029 111.173 83.2525 110.875 82.5538C110.578 81.8552 110.138 81.2212 109.594 80.6908C109.051 80.1603 108.404 79.7463 107.693 79.4617Z" fill="#324E6B"/>
<path d="M112.169 98.7259L89.6702 91.0149C88.9198 90.7561 88.1177 91.1572 87.8589 91.9076C87.6001 92.658 88.0012 93.4602 88.7516 93.7189L111.251 101.43C112.001 101.689 112.803 101.288 113.062 100.537C113.321 99.7868 112.92 98.9846 112.169 98.7259Z" fill="#223548"/>
<path d="M110.229 103.306L87.7298 95.595C86.9794 95.3362 86.1772 95.7373 85.9185 96.4877C85.6597 97.2381 86.0608 98.0402 86.8112 98.299L109.31 106.01C110.061 106.269 110.876 105.868 111.121 105.117C111.38 104.367 110.979 103.565 110.229 103.306Z" fill="#223548"/>
<path d="M97.8597 104.187L85.8792 100.085C85.1288 99.8267 84.3137 100.228 84.0679 100.978C83.8091 101.729 84.2102 102.531 84.9606 102.789L96.954 106.891C97.7044 107.15 98.5065 106.748 98.7653 105.998C99.0241 105.248 98.623 104.446 97.8726 104.187H97.8597Z" fill="#223548"/>
<path d="M-33.5383 53.5728L-1.32304 42.5109C0.0483742 42.0452 1.52329 42.7697 2.00199 44.1411L18.0579 91.1185C18.5237 92.4899 17.7991 93.9778 16.4277 94.4435L-15.7876 105.505C-17.159 105.971 -18.6339 105.247 -19.1126 103.875L-35.1685 56.8978C-35.6343 55.5264 -34.9098 54.0386 -33.5383 53.5728Z" fill="#2A4259"/>
<path d="M-26.4614 62.1375C-26.759 62.241 -26.9142 62.5515 -26.8107 62.849L-18.1035 88.2849C-18.0777 88.3496 -18.0518 88.4143 -18 88.466L-17.7801 89.087C-17.6766 89.3846 -17.3531 89.5399 -17.0685 89.4364L8.32853 80.6127C8.6261 80.5092 8.78136 80.1858 8.67786 79.9011L8.12152 78.2969C8.01802 77.9993 7.69458 77.844 7.40994 77.9475L-15.8782 86.0337L-24.1455 61.9434C-24.249 61.6458 -24.5595 61.4906 -24.8571 61.5941L-26.4614 62.1504V62.1375Z" fill="#223548"/>
<path d="M76.1377 28.4929H15.5612C11.8906 28.4929 8.91504 31.4685 8.91504 35.1391V110.06C8.91504 113.73 11.8906 116.706 15.5612 116.706H76.1377C79.8083 116.706 82.7839 113.73 82.7839 110.06V35.1391C82.7839 31.4685 79.8083 28.4929 76.1377 28.4929Z" fill="#CEDBE8"/>
<path fill-rule="evenodd" clip-rule="evenodd" d="M15.7246 35.6348C15.7246 35.3327 15.8076 35.0906 15.9091 35.0906H75.4064C75.5078 35.0906 75.5908 35.3212 75.5908 35.6348V109.566C75.5908 109.868 75.5078 110.11 75.4064 110.11H15.9091C15.8076 110.11 15.7246 109.88 15.7246 109.566V35.6348Z" fill="#CEDBE8"/>
<path d="M31.7219 37.2676H20.0069C19.2173 37.2676 18.5771 37.9077 18.5771 38.6974C18.5771 39.487 19.2173 40.1271 20.0069 40.1271H31.7219C32.5115 40.1271 33.1517 39.487 33.1517 38.6974C33.1517 37.9077 32.5115 37.2676 31.7219 37.2676Z" fill="#0070F3"/>
<path d="M29.9971 75.4466C29.9971 74.7677 30.5475 74.2173 31.2264 74.2173H38.0135C38.6924 74.2173 39.2428 74.7677 39.2428 75.4466V98.0596C39.2428 98.7385 38.6924 99.2889 38.0135 99.2889H31.2264C30.5475 99.2889 29.9971 98.7385 29.9971 98.0596V75.4466Z" fill="#2A4259"/>
<path d="M44.1748 61.8863C44.1748 61.2074 44.7252 60.657 45.4042 60.657H52.1912C52.8702 60.657 53.4206 61.2074 53.4206 61.8863V98.428C53.4206 99.1069 52.8702 99.6573 52.1912 99.6573H45.4042C44.7252 99.6573 44.1748 99.1069 44.1748 98.428V61.8863Z" fill="#2A4259"/>
<path d="M58.3516 85.3087C58.3516 84.6297 58.902 84.0793 59.5809 84.0793H66.368C67.0469 84.0793 67.5973 84.6297 67.5973 85.3087V98.1716C67.5973 98.8505 67.0469 99.4009 66.368 99.4009H59.5809C58.902 99.4009 58.3516 98.8505 58.3516 98.1716V85.3087Z" fill="#2A4259"/>
<path fill-rule="evenodd" clip-rule="evenodd" d="M20.586 55.3108C21.6468 55.3108 22.5068 56.1899 22.5068 57.2743V61.365C22.5068 62.4495 21.6468 63.3286 20.586 63.3286C19.5251 63.3286 18.6651 62.4495 18.6651 61.365V57.2743C18.6651 56.1899 19.5251 55.3108 20.586 55.3108ZM20.586 67.5829C21.6468 67.5829 22.5068 68.462 22.5068 69.5464V77.7279C22.5068 78.8123 21.6468 79.6914 20.586 79.6914C19.5251 79.6914 18.6651 78.8123 18.6651 77.7279V69.5464C18.6651 68.462 19.5251 67.5829 20.586 67.5829ZM20.586 83.9457C21.6468 83.9457 22.5068 84.8248 22.5068 85.9093V94.0907C22.5068 95.1751 21.6468 96.0542 20.586 96.0542C19.5251 96.0542 18.6651 95.1751 18.6651 94.0907L18.6651 85.9093C18.6651 84.8248 19.5251 83.9457 20.586 83.9457ZM20.586 100.309C21.6468 100.309 22.5068 101.188 22.5068 102.272V106.363C22.5068 107.447 21.6468 108.326 20.586 108.326C19.5251 108.326 18.6651 107.447 18.6651 106.363V102.272C18.6651 101.188 19.5251 100.309 20.586 100.309Z" fill="#B9C1C6"/>
<path fill-rule="evenodd" clip-rule="evenodd" d="M18.665 107.174C18.665 106.113 19.5441 105.253 20.6286 105.253H24.7193C25.8037 105.253 26.6828 106.113 26.6828 107.174C26.6828 108.235 25.8037 109.095 24.7193 109.095H20.6286C19.5441 109.095 18.665 108.235 18.665 107.174ZM30.9372 107.174C30.9372 106.113 31.8163 105.253 32.9007 105.253H41.0821C42.1665 105.253 43.0456 106.113 43.0456 107.174C43.0456 108.235 42.1665 109.095 41.0821 109.095H32.9007C31.8163 109.095 30.9372 108.235 30.9372 107.174ZM47.3 107.174C47.3 106.113 48.1791 105.253 49.2635 105.253H57.4449C58.5294 105.253 59.4085 106.113 59.4085 107.174C59.4085 108.235 58.5294 109.095 57.4449 109.095H49.2635C48.1791 109.095 47.3 108.235 47.3 107.174ZM63.6628 107.174C63.6628 106.113 64.5419 105.253 65.6263 105.253H69.717C70.8015 105.253 71.6806 106.113 71.6806 107.174C71.6806 108.235 70.8015 109.095 69.717 109.095H65.6263C64.5419 109.095 63.6628 108.235 63.6628 107.174Z" fill="#B9C1C6"/>
<g clip-path="url(#clip0_2810_46759)">
<path opacity="0.5" d="M77.1181 86.0641C90.1195 86.0641 100.66 75.3351 100.66 62.078C100.66 48.821 90.1195 38.0852 77.1181 38.0852C64.1167 38.0852 53.5762 48.8142 53.5762 62.078C53.5762 75.3418 64.1167 86.0641 77.1181 86.0641Z" fill="#223548"/>
<path d="M86.4178 40.8815L77.6206 38.0852L62.8691 81.9201L71.6731 84.7163L86.4178 40.8815Z" fill="#CEDBE8"/>
<path d="M75.1057 86.0634L90.1388 42.1481L87.403 41.2764L72.3633 85.1917L75.1057 86.0634Z" fill="#CEDBE8"/>
<path d="M88.8382 83.4622L82.3945 86.064L86.5115 96.2565L92.9485 93.6548L88.8382 83.4622Z" fill="#B9C1C6"/>
<path d="M86.7461 95.4454C86.4188 95.5806 86.1582 95.8398 86.0213 96.1665C85.8843 96.4931 85.8822 96.8606 86.0153 97.1889L95.6305 120.867C96.0308 121.825 96.7945 122.586 97.7545 122.984C98.7145 123.381 99.7927 123.381 100.753 122.986L101.518 122.67C102.001 122.478 102.441 122.19 102.812 121.825C103.182 121.46 103.476 121.025 103.677 120.545C104.072 119.582 104.072 118.503 103.677 117.541L94.0615 93.8897C93.9952 93.7254 93.8971 93.5758 93.7727 93.4496C93.6483 93.3235 93.5002 93.2232 93.3369 93.1546C93.1735 93.086 92.9982 93.0505 92.8211 93.0501C92.6439 93.0496 92.4684 93.0843 92.3047 93.1521L86.7461 95.4454Z" fill="#F58B00"/>
<path d="M82.167 85.5272L82.8375 87.1299C82.8375 87.1299 86.1901 88.6252 89.7305 85.5004L88.6576 82.9321L85.7006 84.3671L82.167 85.5272Z" fill="#688FB7"/>
<path d="M77.2786 86.8954C71.5535 86.9094 66.0009 84.937 61.5675 81.3144C57.134 77.6918 54.0944 72.6434 52.9669 67.0301C51.8394 61.4168 52.6938 55.5861 55.3845 50.5324C58.0751 45.4786 62.4354 41.5148 67.7218 39.3167C73.0081 37.1187 78.8932 36.8225 84.3735 38.4788C89.8538 40.1351 94.5899 43.6412 97.7742 48.3993C100.959 53.1575 102.394 58.8729 101.835 64.5711C101.277 70.2692 98.7595 75.5972 94.7121 79.6466C90.0908 84.2773 83.8206 86.8845 77.2786 86.8954ZM77.2786 39.4797C72.0231 39.4705 66.9271 41.2844 62.8592 44.6122C58.7914 47.9401 56.0035 52.5758 54.9709 57.7292C53.9383 62.8826 54.7248 68.2347 57.1965 72.873C59.6681 77.5114 63.6718 81.1489 68.5251 83.1655C73.3784 85.1821 78.7808 85.4529 83.8114 83.9318C88.842 82.4107 93.1894 79.1918 96.1124 74.8239C99.0355 70.456 100.353 65.2094 99.8412 59.9786C99.329 54.7477 97.0187 49.8564 93.304 46.1384C91.2021 44.0289 88.7046 42.3549 85.9547 41.2123C83.2048 40.0697 80.2564 39.4809 77.2786 39.4797Z" fill="#688FB7"/>
</g>
<path d="M116.158 38.8993C115.944 38.732 115.69 38.6253 115.421 38.5906C115.152 38.5558 114.878 38.5942 114.629 38.7018L108.638 41.1048C107.647 41.5018 107.443 42.5342 107.754 43.3109C107.87 43.6334 108.087 43.9096 108.373 44.0979C108.66 44.2863 108.999 44.3767 109.341 44.3554C109.506 44.3403 109.668 44.3002 109.821 44.2367L115.812 41.8336C116.077 41.7336 116.31 41.5638 116.486 41.3421C116.663 41.1205 116.776 40.8554 116.814 40.5747C116.856 40.2627 116.818 39.9451 116.703 39.6519C116.589 39.3586 116.401 39.0996 116.158 38.8993Z" fill="white"/>
<path d="M87.2132 19.0985C87.0204 19.0756 86.825 19.0932 86.6394 19.1502C86.4538 19.2071 86.282 19.3021 86.1352 19.4291C85.9884 19.5561 85.8696 19.7124 85.7866 19.8879C85.7035 20.0633 85.658 20.2542 85.6528 20.4483L85.1988 26.7193C85.1832 26.9448 85.2127 27.1711 85.2856 27.3851C85.3585 27.5991 85.4733 27.7964 85.6233 27.9656C85.7733 28.1347 85.9555 28.2723 86.1593 28.3702C86.363 28.4682 86.5843 28.5245 86.8101 28.5361C86.903 28.5434 86.9964 28.5431 87.0894 28.5352C87.4331 28.5108 87.7553 28.3586 87.9923 28.1085C88.2294 27.8584 88.3641 27.5285 88.37 27.184L88.8223 20.9157C88.8382 20.6903 88.809 20.4639 88.7364 20.2499C88.6638 20.0358 88.5493 19.8384 88.3994 19.6692C88.2496 19.5 88.0675 19.3624 87.8638 19.2643C87.6602 19.1663 87.439 19.11 87.2132 19.0985Z" fill="white"/>
<path d="M104.204 23.8341C103.994 23.8648 103.792 23.938 103.612 24.0492C103.431 24.1604 103.275 24.3073 103.153 24.4809L97.6064 32.2119C97.3596 32.56 97.2569 32.99 97.3198 33.4121C97.3827 33.8342 97.6064 34.2156 97.944 34.4766C98.2581 34.7173 98.6513 34.8313 99.0455 34.7958C99.2727 34.7749 99.4927 34.7054 99.6906 34.5918C99.8885 34.4783 100.06 34.3234 100.192 34.1378L105.739 26.4068C105.987 26.057 106.091 25.6244 106.027 25.2001C105.963 24.7757 105.737 24.3927 105.397 24.1314C105.228 24.004 105.036 23.912 104.831 23.8609C104.626 23.8099 104.412 23.8007 104.204 23.8341Z" fill="white"/>
</g>
<defs>
<clipPath id="clip0_2810_46759">
<rect width="51.4913" height="85.8604" fill="white" transform="translate(52.4824 37.4211)"/>
</clipPath>
</defs>
</svg>
