<svg width="45" height="45" viewBox="0 0 45 45" fill="none" xmlns="http://www.w3.org/2000/svg">
<path d="M45 22.5C45 34.9264 34.9264 45 22.5 45C10.0736 45 0 34.9264 0 22.5C0 10.0736 10.0736 0 22.5 0C34.9264 0 45 10.0736 45 22.5Z" fill="#CEDBE8"/>
<path fill-rule="evenodd" clip-rule="evenodd" d="M22.5 44C34.3741 44 44 34.3741 44 22.5C44 10.6259 34.3741 1 22.5 1C10.6259 1 1 10.6259 1 22.5C1 34.3741 10.6259 44 22.5 44ZM22.5 45C34.9264 45 45 34.9264 45 22.5C45 10.0736 34.9264 0 22.5 0C10.0736 0 0 10.0736 0 22.5C0 34.9264 10.0736 45 22.5 45Z" fill="#688FB7"/>
<path fill-rule="evenodd" clip-rule="evenodd" d="M22.4788 9.01948C26.145 9.01948 29.5764 10.465 32.1372 13.0875H32.1365C32.3743 13.3319 32.3707 13.721 32.1275 13.9582C32.0071 14.0756 31.857 14.1337 31.6966 14.1337C31.5363 14.1337 31.3766 14.0707 31.2568 13.9485C28.9284 11.5639 25.811 10.2508 22.4782 10.2508C20.6853 10.2508 18.9584 10.629 17.3458 11.3733C17.0372 11.5143 16.6724 11.3823 16.529 11.0719C16.388 10.7639 16.5217 10.3979 16.8297 10.2551C18.6056 9.43578 20.5068 9.01948 22.4788 9.01948ZM31.5266 18.8463C30.0248 15.1462 26.4729 12.7555 22.4794 12.7555C20.6266 12.7555 19.0128 13.1936 17.6562 14.0722C16.2996 14.9501 15.2123 16.2602 14.3984 17.9828C14.252 18.2914 14.3857 18.6581 14.6913 18.8027H14.6919C14.9975 18.9467 15.366 18.8185 15.5118 18.5093C16.2252 16.9971 17.1673 15.8693 18.3248 15.1184C19.4818 14.368 20.8668 13.9862 22.4794 13.9862C25.9695 13.9862 29.0724 16.0744 30.386 19.3086C30.4828 19.55 30.7152 19.6928 30.956 19.6928C31.0323 19.6928 31.1121 19.6783 31.1878 19.6474C31.5024 19.5191 31.6537 19.1603 31.526 18.8457L31.5266 18.8463ZM35.6561 19.601V19.6034L35.6573 19.6022C35.8661 20.5522 35.978 21.5312 35.978 22.5163C35.978 23.5758 35.9235 24.642 35.8201 25.6827C35.8195 25.6906 35.8189 25.699 35.8183 25.7099V25.7184L35.817 25.7287L35.7989 25.903V25.9042V25.9054C35.7632 26.2188 35.4982 26.453 35.1878 26.453C35.1648 26.453 35.1424 26.4518 35.1194 26.4494H35.1188C34.7793 26.4124 34.5379 26.1069 34.5742 25.7698L34.5881 25.6379L34.5936 25.5841C34.6946 24.5748 34.7467 23.5425 34.7467 22.5157C34.7467 21.6141 34.648 20.7174 34.455 19.8479H34.4514L34.4139 19.6893C34.052 18.1512 33.407 16.7153 32.4873 15.4198C32.2906 15.1427 32.3554 14.7591 32.6319 14.5624H32.6325C32.9072 14.367 33.2938 14.4287 33.4905 14.7083C33.4911 14.7089 33.4911 14.7095 33.4911 14.7095C34.524 16.1635 35.2477 17.7785 35.641 19.5096C35.6467 19.535 35.6497 19.5592 35.6516 19.574L35.6519 19.5762C35.6537 19.5895 35.6549 19.5961 35.6561 19.601ZM24.5406 25.7519C24.4704 26.2439 24.3833 26.7316 24.2822 27.2126L24.2828 27.2114C24.2223 27.5019 23.9652 27.6997 23.6814 27.6997C23.6414 27.6997 23.5991 27.6961 23.5555 27.6876H23.5543H23.5531C23.2203 27.6174 23.0073 27.2901 23.0775 26.9579C23.1689 26.5222 23.2463 26.0811 23.3111 25.6346C23.3129 25.6194 23.3153 25.6061 23.3171 25.5977L23.3187 25.5901L23.3195 25.5855L23.3201 25.5813V25.5795V25.5777C23.4647 24.5708 23.538 23.5422 23.538 22.5172C23.538 21.9339 23.0484 21.4589 22.4785 21.4589C21.9085 21.4589 21.4419 21.9115 21.4208 22.476L21.4209 22.4777C21.4221 22.491 21.4232 22.5038 21.4232 22.5172V22.5184V22.5196L21.4202 22.8584V22.8596V22.8608C21.4135 23.1731 21.1473 23.4962 20.7915 23.4629C20.4514 23.4569 20.1828 23.1749 20.1888 22.8372L20.1912 22.565C20.19 22.5498 20.1888 22.5347 20.1888 22.5184C20.1888 21.2556 21.2162 20.2275 22.4791 20.2275C23.7419 20.2275 24.7699 21.2556 24.7699 22.5184C24.7699 23.5803 24.6931 24.6465 24.5466 25.6896V25.6914V25.6933L24.5459 25.6979C24.5455 25.7012 24.545 25.7062 24.5442 25.715C24.543 25.7229 24.5424 25.7356 24.5406 25.7483V25.7501V25.7519ZM20.8291 25.8694C21.157 25.9541 21.3573 26.2875 21.2732 26.6179V26.6173C20.7879 28.5227 20.3632 29.7819 19.7551 30.9418C19.1482 32.0999 18.3622 33.1498 17.1677 34.6389C17.0455 34.7902 16.867 34.8688 16.6873 34.8688C16.5529 34.8688 16.4162 34.8246 16.303 34.7333H16.3024C16.038 34.5203 15.9963 34.133 16.208 33.8692C17.3759 32.4134 18.108 31.435 18.6671 30.3688C19.225 29.3038 19.6141 28.1421 20.0806 26.3147C20.1629 25.9874 20.4933 25.7822 20.8291 25.8694ZM23.1601 29.1143H23.1595H23.1583C22.8352 28.9988 22.4861 29.1742 22.3741 29.4919C21.504 31.9722 21.0012 32.9421 19.5145 35.003C19.316 35.2789 19.3759 35.6626 19.6518 35.8623H19.6524C19.7626 35.9421 19.8884 35.979 20.0131 35.979C20.2019 35.979 20.3919 35.8907 20.5123 35.7237C22.0631 33.5738 22.6319 32.478 23.5365 29.8985C23.6484 29.579 23.4808 29.2275 23.1601 29.1143ZM15.7573 12.2554C16.0423 12.069 16.1204 11.686 15.9346 11.4028C15.747 11.1166 15.3652 11.0385 15.0814 11.2255C12.1413 13.1557 10.0943 16.0983 9.31799 19.5104C9.31134 19.5382 9.30771 19.5648 9.30589 19.5793C9.30463 19.5873 9.30395 19.5927 9.30346 19.5966L9.30287 19.6011V19.6035C9.0929 20.5541 8.98217 21.5326 8.98217 22.5164C8.98217 22.9382 8.94829 23.3623 8.88233 23.7738C8.82727 24.1102 9.05478 24.4243 9.38818 24.4799H9.39H9.39181C9.4263 24.486 9.45898 24.4884 9.49105 24.4884C9.78815 24.4884 10.0489 24.273 10.0986 23.9711C10.1748 23.4924 10.2147 23.0041 10.2147 22.5164C10.2147 21.6154 10.3134 20.7175 10.5058 19.848H10.5082L10.5457 19.6901C11.2676 16.6301 13.1125 13.992 15.7579 12.2548L15.7573 12.2554ZM31.6415 21.9243C31.7849 21.9249 31.9368 21.9703 32.0548 22.0726L32.0536 22.0714C32.1746 22.1766 32.246 22.3309 32.2405 22.5167C32.2399 23.5617 32.1812 24.6115 32.0693 25.6396L32.0657 25.6783C32.0651 25.6843 32.0644 25.6904 32.0638 25.6995L32.0634 25.7056L32.0628 25.7146L32.0614 25.7297V25.7309V25.7321C31.7438 28.5676 31.0068 31.3286 29.8698 33.9389C29.7687 34.1713 29.5418 34.3086 29.3059 34.3086C29.223 34.3086 29.1401 34.2929 29.059 34.2572C28.7474 34.121 28.6064 33.7586 28.7425 33.447C29.822 30.9692 30.5233 28.3485 30.8301 25.6553L30.8313 25.6426L30.8331 25.6262L30.8525 25.4544H30.8531C30.9565 24.485 31.0092 23.4969 31.0092 22.5167V22.5131V22.5094C31.0158 22.32 31.0993 22.1676 31.2246 22.0659C31.3462 21.9679 31.4981 21.9243 31.6415 21.9243ZM13.5103 25.8265C13.5154 25.8073 13.5195 25.7889 13.523 25.7729L13.526 25.7593C13.5291 25.746 13.5327 25.7315 13.5369 25.7151C13.8104 24.678 13.952 23.6046 13.952 22.5178C13.952 22.5033 13.9509 22.4898 13.9497 22.4759L13.9496 22.4743C13.9526 21.7802 14.0403 21.0898 14.208 20.423C14.2921 20.0939 14.0924 19.7611 13.765 19.6776H13.7632H13.7614C13.4238 19.5892 13.0958 19.8004 13.0153 20.1235V20.1241C12.8181 20.9035 12.7188 21.7088 12.7188 22.5184C12.7188 22.5342 12.7194 22.5511 12.7213 22.5681C12.717 23.5489 12.5863 24.5195 12.3352 25.4561H12.3322L12.2898 25.6056C11.9589 26.7698 11.4494 27.8692 10.7656 28.8706C10.575 29.1514 10.647 29.535 10.9272 29.7268C11.0337 29.7994 11.1547 29.8339 11.2739 29.8339C11.4699 29.8339 11.6636 29.7408 11.7834 29.5653C12.5639 28.4198 13.1448 27.1625 13.5103 25.8283V25.8265ZM27.706 19.5003L27.7271 19.5335L27.7278 19.5341L27.9147 19.8494C28.2941 20.5392 28.5059 21.3022 28.5059 22.5184C28.5059 23.5743 28.4375 24.6417 28.3092 25.6903L28.3082 25.701L28.3075 25.7121L28.3074 25.7127L28.306 25.7304L28.3056 25.7351L28.305 25.7387V25.7423C28.0357 27.8807 27.496 29.9804 26.7015 31.9802C26.6053 32.2216 26.3736 32.368 26.1297 32.368C26.0517 32.368 25.9766 32.3529 25.9052 32.3263L25.9034 32.3245H25.9016C25.5857 32.198 25.4314 31.841 25.5573 31.5245C26.307 29.6367 26.8177 27.6544 27.0749 25.6352C27.0761 25.6243 27.0779 25.6153 27.0791 25.6098C27.0809 25.6035 27.081 25.6026 27.0812 25.601L27.0815 25.5989C27.0827 25.5923 27.0839 25.5892 27.0839 25.5868C27.211 24.5715 27.2751 23.5398 27.2751 22.5178C27.2751 21.8831 27.211 21.4232 27.0924 21.0408C26.9744 20.6596 26.7995 20.345 26.5642 20.0025C26.5297 19.9529 26.5067 19.9008 26.491 19.85C26.4235 19.6321 26.4988 19.444 26.4988 19.444C26.5375 19.3302 26.6102 19.2237 26.7233 19.1463C27.0041 18.9539 27.3871 19.0259 27.5783 19.3054C27.6104 19.352 27.6406 19.398 27.6697 19.4434L27.6751 19.4519C27.6854 19.4682 27.6957 19.4845 27.706 19.5003ZM24.8422 33.4907C24.9548 33.1712 25.3039 33 25.6258 33.1131L25.6264 33.1149C25.9471 33.2269 26.1171 33.5772 26.004 33.8991C25.7759 34.5502 25.5205 35.1274 25.2228 35.6635C25.1103 35.8656 24.8997 35.98 24.6843 35.98C24.5814 35.98 24.4804 35.954 24.3884 35.905L24.3866 35.9038L24.3848 35.9026C24.0889 35.7368 23.9812 35.3616 24.1464 35.0645C24.4084 34.5931 24.6359 34.0782 24.8422 33.4907ZM25.7682 17.4656C24.7898 16.8279 23.6523 16.4902 22.4802 16.4902C20.3896 16.4902 18.4776 17.551 17.3672 19.3257C17.3389 19.3721 17.3154 19.4185 17.2961 19.4565L17.2922 19.4642C17.2783 19.4927 17.2662 19.5163 17.2535 19.5393L17.2498 19.5453C17.2474 19.5496 17.245 19.5538 17.2432 19.558L17.081 19.8479H17.0895C16.6786 20.6738 16.4548 21.5833 16.4548 22.5163C16.4548 22.5344 16.456 22.5538 16.4578 22.5744C16.4542 23.5704 16.3495 24.5669 16.148 25.5351L16.1419 25.5611L16.1359 25.5871C16.1341 25.5938 16.1329 25.5998 16.1322 25.6047C16.131 25.6095 16.1304 25.6125 16.1298 25.6155V25.6186L16.1286 25.6216C16.1056 25.7335 16.0808 25.8437 16.0542 25.9538C15.9755 26.2842 16.1782 26.617 16.5086 26.6968L16.5128 26.698H16.5171C16.5588 26.7071 16.6048 26.7138 16.6544 26.7138C16.9334 26.7138 17.1839 26.5244 17.2529 26.243C17.2886 26.0924 17.3218 25.9411 17.3539 25.788V25.7868C17.3579 25.7679 17.3602 25.7498 17.362 25.7366L17.363 25.7287C17.3648 25.7142 17.366 25.7069 17.3672 25.7009C17.579 24.6589 17.6903 23.5879 17.6903 22.5169C17.6903 22.5006 17.6891 22.4818 17.6873 22.4618C17.6976 21.5802 17.9475 20.7234 18.4128 19.9786C18.4364 19.9404 18.4643 19.9035 18.4981 19.8588L18.5012 19.8546L18.5054 19.8491H18.5078L18.5689 19.7619C19.4705 18.4828 20.9088 17.7222 22.4814 17.7222C23.4139 17.7222 24.3185 17.9909 25.096 18.4979V18.4985C25.381 18.6819 25.7616 18.6038 25.9474 18.3182C26.1331 18.0332 26.052 17.6514 25.7682 17.4662V17.4656ZM16.1347 28.0789C16.4246 28.2562 16.5171 28.6338 16.3423 28.9248L16.3417 28.9236C15.9405 29.5851 15.7016 30.0446 15.4889 30.4537L15.4879 30.4557C15.1436 31.1183 14.8671 31.6489 14.1355 32.5517C14.0139 32.703 13.836 32.7804 13.6569 32.7804C13.5226 32.7804 13.384 32.7369 13.2702 32.6437H13.2696L13.269 32.6431C13.0058 32.4289 12.9647 32.0416 13.1783 31.7784C13.8323 30.9716 14.0536 30.5463 14.3944 29.8913L14.3963 29.8875L14.4097 29.8619C14.6261 29.4462 14.8744 28.9694 15.2888 28.2859C15.4661 27.9948 15.8437 27.9046 16.1335 28.0777L16.1341 28.0789H16.1347Z" fill="#688FB7"/>
<path fill-rule="evenodd" clip-rule="evenodd" d="M30.9967 23.3457H32.228C32.2052 24.1154 32.1517 24.8839 32.0693 25.6405L32.0657 25.6793C32.0651 25.6853 32.0644 25.6914 32.0638 25.7004L32.0634 25.7066L32.0628 25.7156L32.0614 25.7307V25.7319V25.7331C31.7438 28.5685 31.0068 31.3295 29.8698 33.9399C29.7687 34.1722 29.5418 34.3096 29.3059 34.3096C29.223 34.3096 29.1401 34.2939 29.059 34.2582C28.7474 34.122 28.6064 33.7596 28.7425 33.448C29.822 30.9701 30.5233 28.3495 30.8301 25.6563L30.8313 25.6436L30.8331 25.6272L30.8525 25.4554H30.8531C30.9274 24.7586 30.9756 24.052 30.9967 23.3457ZM12.6914 23.3457H13.9246C13.8714 24.1497 13.7408 24.943 13.5369 25.7161C13.5327 25.7324 13.5291 25.7469 13.526 25.7603L13.523 25.7739L13.523 25.7739L13.523 25.7739C13.5195 25.7899 13.5154 25.8083 13.5103 25.8274V25.8292C13.1448 27.1635 12.5639 28.4208 11.7834 29.5663C11.6636 29.7417 11.4699 29.8349 11.2739 29.8349C11.1547 29.8349 11.0337 29.8004 10.9272 29.7278C10.647 29.536 10.575 29.1524 10.7656 28.8716C11.4494 27.8702 11.9589 26.7708 12.2898 25.6066L12.3322 25.4571H12.3352C12.5198 24.7685 12.6394 24.0616 12.6914 23.3457ZM35.967 23.3457C35.9463 24.1303 35.8966 24.9139 35.8201 25.6837C35.8198 25.6875 35.8195 25.6915 35.8192 25.6958C35.8189 25.7003 35.8186 25.7053 35.8183 25.7109V25.7194L35.817 25.7297L35.7989 25.9039V25.9051V25.9064C35.7632 26.2198 35.4982 26.454 35.1878 26.454C35.1648 26.454 35.1424 26.4528 35.1194 26.4503H35.1188C34.7793 26.4134 34.5379 26.1079 34.5742 25.7708L34.5881 25.6389L34.5936 25.5851C34.6674 24.8472 34.7151 24.0971 34.7354 23.3457H35.967ZM8.93899 23.3457H10.1769C10.1578 23.5558 10.1316 23.7648 10.0986 23.972C10.0489 24.274 9.78815 24.4894 9.49105 24.4894C9.45898 24.4894 9.4263 24.487 9.39181 24.4809H9.39H9.38818C9.05478 24.4252 8.82727 24.1112 8.88233 23.7748C8.90505 23.6331 8.92396 23.4898 8.93899 23.3457ZM16.4349 23.3457H17.6683C17.6263 24.1392 17.5244 24.9285 17.3672 25.7018C17.366 25.7079 17.3648 25.7152 17.363 25.7297L17.362 25.7376L17.3619 25.7376C17.3602 25.7508 17.3579 25.7689 17.3539 25.7878V25.789C17.3218 25.9421 17.2886 26.0933 17.2529 26.244C17.1839 26.5254 16.9334 26.7148 16.6544 26.7148C16.6048 26.7148 16.5588 26.7081 16.5171 26.699H16.5128L16.5086 26.6978C16.1782 26.6179 15.9755 26.2851 16.0542 25.9548C16.0808 25.8446 16.1056 25.7345 16.1286 25.6226L16.1298 25.6196V25.6165L16.1298 25.6165C16.1304 25.6135 16.131 25.6105 16.1322 25.6056C16.1329 25.6008 16.1341 25.5947 16.1359 25.5881L16.1419 25.5621L16.148 25.5361C16.2975 24.8176 16.3937 24.0836 16.4349 23.3457ZM20.4406 23.3457H21.1781C21.0732 23.4295 20.9401 23.4778 20.7915 23.4639C20.6599 23.4615 20.5391 23.4179 20.4406 23.3457ZM23.5221 23.3457H24.7545C24.7254 24.1326 24.6551 24.9179 24.5466 25.6906V25.6924V25.6942C24.5464 25.6955 24.5462 25.6969 24.5459 25.6991C24.5457 25.7004 24.5455 25.7021 24.5453 25.7043L24.5442 25.716L24.5434 25.7228L24.5427 25.7296L24.5427 25.7297L24.5417 25.74L24.5406 25.7493V25.7511V25.7529C24.4704 26.2449 24.3833 26.7326 24.2822 27.2136L24.2828 27.2124C24.2223 27.5028 23.9652 27.7007 23.6814 27.7007C23.6414 27.7007 23.5991 27.6971 23.5555 27.6886H23.5543H23.5531C23.2203 27.6184 23.0073 27.2911 23.0775 26.9589C23.1689 26.5232 23.2463 26.0821 23.3111 25.6355C23.3129 25.6204 23.3153 25.6071 23.3171 25.5986L23.3187 25.591L23.3195 25.5864L23.3201 25.5823V25.5805V25.5787C23.4258 24.8427 23.4934 24.0951 23.5221 23.3457ZM27.2612 23.3457H28.4921C28.4662 24.1297 28.4041 24.9156 28.3092 25.6913L28.3089 25.6944L28.3081 25.7025L28.3075 25.7131L28.3074 25.7137L28.306 25.7314L28.3056 25.736L28.305 25.7397V25.7433C28.0357 27.8817 27.496 29.9813 26.7015 31.9811C26.6053 32.2226 26.3736 32.369 26.1297 32.369C26.0517 32.369 25.9766 32.3539 25.9052 32.3273L25.9034 32.3254H25.9016C25.5857 32.199 25.4314 31.842 25.5573 31.5255C26.307 29.6376 26.8177 27.6554 27.0749 25.6362C27.0761 25.6253 27.0779 25.6162 27.0791 25.6108C27.0809 25.6044 27.081 25.6035 27.0812 25.6019L27.0815 25.5999C27.0821 25.5969 27.0826 25.5946 27.083 25.5928C27.0836 25.5906 27.0839 25.5891 27.0839 25.5878C27.1768 24.8458 27.2361 24.095 27.2612 23.3457ZM21.2732 26.6188C21.3573 26.2885 21.157 25.9551 20.8291 25.8703C20.4933 25.7832 20.1629 25.9883 20.0806 26.3157C19.6141 28.1431 19.225 29.3048 18.6671 30.3698C18.108 31.4359 17.3759 32.4144 16.208 33.8702C15.9963 34.134 16.038 34.5213 16.3024 34.7343H16.303C16.4162 34.8256 16.5529 34.8698 16.6873 34.8698C16.867 34.8698 17.0455 34.7911 17.1677 34.6399C18.3622 33.1507 19.1482 32.1009 19.7551 30.9428C20.3632 29.7828 20.7879 28.5237 21.2732 26.6182V26.6188ZM23.1595 29.1153H23.1601C23.4808 29.2285 23.6484 29.58 23.5365 29.8995C22.6319 32.479 22.0631 33.5748 20.5123 35.7247C20.3919 35.8917 20.2019 35.98 20.0131 35.98C19.8884 35.98 19.7626 35.9431 19.6524 35.8632H19.6518C19.3759 35.6635 19.316 35.2799 19.5145 35.004C21.0012 32.9431 21.504 31.9731 22.3741 29.4929C22.4861 29.1752 22.8352 28.9997 23.1583 29.1153H23.1595ZM25.6258 33.1141C25.3039 33.0009 24.9548 33.1722 24.8422 33.4917C24.6359 34.0792 24.4084 34.5941 24.1464 35.0655C23.9812 35.3626 24.0889 35.7377 24.3848 35.9035L24.3866 35.9047L24.3884 35.9059C24.4804 35.955 24.5814 35.981 24.6843 35.981C24.8997 35.981 25.1103 35.8666 25.2228 35.6645C25.5205 35.1284 25.7759 34.5512 26.004 33.9001C26.1171 33.5782 25.9471 33.2278 25.6264 33.1159L25.6258 33.1141ZM16.3423 28.9258C16.5171 28.6348 16.4246 28.2572 16.1347 28.0799H16.1341L16.1335 28.0787C15.8437 27.9056 15.4661 27.9958 15.2888 28.2868C14.8744 28.9704 14.6261 29.4472 14.4097 29.8628L14.4097 29.8629L14.3963 29.8885L14.3944 29.8922C14.0536 30.5472 13.8323 30.9725 13.1783 31.7794C12.9647 32.0426 13.0058 32.4299 13.269 32.6441L13.2696 32.6447H13.2702C13.384 32.7378 13.5226 32.7814 13.6569 32.7814C13.836 32.7814 14.0139 32.704 14.1355 32.5527C14.8671 31.6499 15.1436 31.1192 15.4879 30.4567L15.4889 30.4547L15.4889 30.4546C15.7017 30.0455 15.9405 29.5861 16.3417 28.9246L16.3423 28.9258Z" fill="#CC7400"/>
<rect x="5.36914" y="22.4395" width="34.261" height="2.06389" rx="1.03194" fill="#F58B00"/>
</svg>
