<svg width="160" height="160" viewBox="0 0 160 160" fill="none" xmlns="http://www.w3.org/2000/svg">
<g clip-path="url(#clip0_4413_116650)">
<rect y="46" width="160" height="69" rx="12" fill="#222F3B"/>
<path fill-rule="evenodd" clip-rule="evenodd" d="M97.9003 94.8445C98.4518 94.8445 98.9581 94.632 99.3612 94.2757C100.372 93.9679 101.116 92.9226 101.116 91.6805V58.0546C101.116 56.5703 100.053 55.3672 98.7424 55.3672H70.2105C69.6605 55.3672 69.1527 55.5797 68.7512 55.9359C67.7403 56.2437 66.9965 57.289 66.9965 58.5312V65.1141C66.7075 65.186 66.4778 65.2328 66.3262 65.2485C66.0997 65.2703 65.8731 65.2469 65.6481 65.2235C64.7325 65.1266 63.8357 65.0313 63.0357 68.0452C62.3029 70.803 61.4373 71.9483 60.8701 72.6967C60.6936 72.931 60.5452 73.1248 60.4405 73.3185C60.4233 73.3482 60.4077 73.381 60.392 73.4107C60.153 73.9169 60.3967 76.8903 60.6202 79.6215C60.7702 81.4542 60.9108 83.1792 60.892 83.9729C60.8592 85.2557 59.9655 87.3244 59.3421 88.6181C58.7124 88.204 58.2968 87.9509 58.2968 87.9509L57.3249 90.8618L56.6328 90.3774H56.6297L45.644 115.13H65.2185L65.9075 101.997H65.9106L66.1575 97.0288L65.7263 96.7272C65.7856 95.9569 65.7403 95.0273 65.4106 94.1054L66.9997 90.768V94.8429H97.905L97.9003 94.8445Z" fill="#101619"/>
<rect x="66.6724" y="45.957" width="14.9393" height="21.9695" fill="#101619"/>
<path d="M118.006 36.2656H84.2225C82.601 36.2656 81.2866 37.58 81.2866 39.2015V88.5281C81.2866 90.1495 82.601 91.464 84.2225 91.464H118.006C119.627 91.464 120.942 90.1495 120.942 88.5281V39.2015C120.942 37.58 119.627 36.2656 118.006 36.2656Z" fill="#046C7C"/>
<path d="M118.062 36.2656H85.2396C83.6483 36.2656 82.3584 37.5556 82.3584 39.1468V88.0469C82.3584 89.6381 83.6483 90.9281 85.2396 90.9281H118.062C119.653 90.9281 120.943 89.6381 120.943 88.0469V39.1468C120.943 37.5556 119.653 36.2656 118.062 36.2656Z" fill="#0899A7"/>
<path d="M116.617 39.1406H86.627C85.4223 39.1406 84.4458 40.1172 84.4458 41.3218V86.2658C84.4458 87.4704 85.4223 88.447 86.627 88.447H116.617C117.821 88.447 118.798 87.4704 118.798 86.2658V41.3218C118.798 40.1172 117.821 39.1406 116.617 39.1406Z" fill="#D5DADD"/>
<path d="M82.2505 54.2687C82.2505 53.9434 81.9871 53.6797 81.6622 53.6797C81.3374 53.6797 81.074 53.9434 81.074 54.2687V56.0327C81.074 56.3581 81.3374 56.6218 81.6622 56.6218C81.9871 56.6218 82.2505 56.3581 82.2505 56.0327V54.2687Z" fill="#0899A7"/>
<path d="M81.9974 54.1422C81.9974 53.8867 81.7907 53.6797 81.5357 53.6797C81.2807 53.6797 81.074 53.8867 81.074 54.1422V56.1593C81.074 56.4147 81.2807 56.6218 81.5357 56.6218C81.7907 56.6218 81.9974 56.4147 81.9974 56.1593V54.1422Z" fill="#046C7C"/>
<path d="M101.65 38.2047C101.946 38.2047 102.186 37.9647 102.186 37.6687C102.186 37.3728 101.946 37.1328 101.65 37.1328C101.354 37.1328 101.114 37.3728 101.114 37.6687C101.114 37.9647 101.354 38.2047 101.65 38.2047Z" fill="#046C7C"/>
<path d="M110.203 63.7365C110.203 68.4598 106.373 72.2893 101.65 72.2893C96.9267 72.2893 93.0972 68.4598 93.0972 63.7365C93.0972 59.0132 96.9267 55.1836 101.65 55.1836C106.373 55.1836 110.203 59.0132 110.203 63.7365Z" fill="#D20A0A"/>
<path fill-rule="evenodd" clip-rule="evenodd" d="M104.908 61.7726C105.24 61.4382 105.24 60.8976 104.908 60.5633C104.573 60.2289 104.033 60.2289 103.698 60.5633L101.694 62.5679L99.689 60.5633C99.3562 60.2289 98.814 60.2289 98.4812 60.5633C98.1469 60.8976 98.1469 61.4382 98.4812 61.7726L100.486 63.7772L98.4812 65.7819C98.1469 66.1162 98.1469 66.6568 98.4812 66.9912C98.814 67.3256 99.3562 67.3256 99.689 66.9912L101.694 64.9866L103.698 66.9912C104.033 67.3256 104.573 67.3256 104.908 66.9912C105.24 66.6568 105.24 66.1162 104.908 65.7819L102.903 63.7772L104.908 61.7726Z" fill="#D5DADD"/>
<path d="M89.252 61.1512C87.1568 60.1356 85.0022 63.4339 84.3037 65.148C83.6053 66.8604 82.2741 71.5556 82.2741 70.7947C82.2741 70.0337 81.1335 67.1151 80.9429 66.2276C80.8445 65.7729 81.0148 65.0667 81.2882 64.4792V60.8403C81.2882 60.4309 81.4991 59.2934 81.2882 58.9388C81.107 58.6341 78.582 58.745 78.0742 58.9903C77.6852 59.1778 77.3915 59.5184 77.1571 59.8794C76.3102 61.1856 76.0274 62.8277 75.5071 64.2761C74.9056 65.9464 74.3306 67.6541 73.9884 69.3994C73.6884 70.9275 73.6556 72.4946 73.6244 74.0524C73.5697 76.7554 73.9181 79.71 72.9182 82.2584C72.3494 83.7083 71.6057 85.1036 70.7932 86.4348L78.7867 92.1753L82.2757 85.7052C82.2757 85.7052 84.3678 84.4349 85.3834 83.0396C86.3974 81.6443 87.1615 76.1867 87.224 74.6024C87.288 73.0149 87.288 70.8572 87.7943 69.9712C88.3021 69.0838 91.3473 62.1684 89.2536 61.1543L89.252 61.1512Z" fill="#8D2A00"/>
<path d="M89.2521 61.1521C88.9599 61.0099 88.6662 60.9553 88.3756 60.9662C88.7099 61.5037 88.7459 62.2162 88.674 62.8302C88.5677 63.7396 88.2787 64.613 87.9162 65.4504C87.7849 65.752 87.6475 66.0567 87.4771 66.3379C86.9397 67.2269 86.1163 67.8988 85.746 68.8769C85.3756 69.855 85.3131 70.8862 85.2507 71.9034C85.2507 73.2705 85.0803 74.6611 84.9975 76.0267C84.9194 77.2923 84.9319 78.5829 84.6069 79.8141C84.0647 81.8781 82.8007 83.7093 80.8805 84.7045C80.7523 84.7702 80.618 84.8374 80.532 84.953C80.3852 85.1498 80.4227 85.4202 80.4461 85.6639C80.6164 87.3982 79.6883 88.9372 78.6212 90.2216C78.3134 90.5919 77.9681 90.9716 77.5884 91.3169L78.7852 92.1762L82.2742 85.7061C82.2742 85.7061 84.3663 84.4358 85.3819 83.0405C86.3959 81.6453 87.16 76.1876 87.2225 74.6033C87.2865 73.0158 87.2865 70.8581 87.7928 69.9722C88.3006 69.0847 91.3458 62.1693 89.2521 61.1553V61.1521Z" fill="#450B00"/>
<path d="M81.2867 58.9388C81.1055 58.6341 78.5806 58.745 78.0728 58.9903C77.6837 59.1778 77.39 59.5184 77.1556 59.8794C76.3088 61.1856 76.026 62.8277 75.5057 64.2761C74.9041 65.9464 74.3291 67.6541 73.987 69.3994C73.687 70.9275 73.6542 72.4946 73.6229 74.0524C73.5682 76.7554 73.9167 79.71 72.9167 82.2584C72.348 83.7083 71.6042 85.1036 70.7917 86.4348L71.6855 87.077C72.0823 86.2129 72.5823 85.3958 73.1511 84.6349C73.4385 84.2505 73.7354 83.8193 74.137 83.5458C74.3323 83.413 74.5698 83.3255 74.8057 83.3099C74.9744 83.299 75.2166 83.3787 75.3635 83.2771C75.3635 83.2771 75.415 83.2084 75.4182 83.2037C75.44 83.1537 75.4572 83.0662 75.4619 83.0334C75.4807 82.8771 75.4666 82.7131 75.4463 82.5568C75.3994 82.2146 75.2979 81.8834 75.2369 81.5443C74.6619 78.3632 74.1229 74.8899 74.6104 71.6696C74.8838 69.8619 75.5791 68.0807 76.0338 66.3104C76.2791 65.3526 76.64 64.448 77.0369 63.5464C77.3869 62.7512 77.7681 61.9574 78.2681 61.2418C78.7149 60.5997 79.2899 59.9465 80.068 59.72C80.4399 59.6122 80.8149 59.5887 81.1914 59.6091C81.2555 59.5856 81.318 59.5591 81.3821 59.5387C81.3852 59.2856 81.3633 59.0622 81.2883 58.9372L81.2867 58.9388Z" fill="#450B00"/>
<path d="M80.0757 65.4999C80.2039 65.8889 80.4382 66.2186 80.707 66.5249C80.8492 66.6858 80.9991 66.842 81.1585 66.9873C81.0585 66.6733 80.9804 66.4092 80.9413 66.228C80.8429 65.7733 81.0132 65.0671 81.2866 64.4796V61.5C81.0538 61.7391 80.8398 61.9937 80.6445 62.264C80.007 63.1484 79.7367 64.264 80.0195 65.3171C80.0367 65.378 80.0539 65.4389 80.0742 65.4999H80.0757Z" fill="#450B00"/>
<path d="M86.1755 63.4934C86.1474 63.6778 86.2661 63.8543 86.4474 63.895C87.7098 64.1731 88.6161 64.998 88.9348 64.8309C89.1801 64.7043 90.5019 61.4669 88.6145 61.0888C86.727 60.7107 86.3161 62.5841 86.1771 63.4934H86.1755Z" fill="#450B00"/>
<path d="M77.4213 91.9617C77.9123 91.9617 78.3103 91.5636 78.3103 91.0726C78.3103 90.5816 77.9123 90.1836 77.4213 90.1836C76.9303 90.1836 76.5322 90.5816 76.5322 91.0726C76.5322 91.5636 76.9303 91.9617 77.4213 91.9617Z" fill="#450B00"/>
<path d="M80.2148 94.5638C79.2711 96.4091 76.8978 93.7451 74.2635 92.3982C71.6292 91.053 67.3027 89.0062 68.0965 87.0906C68.3511 86.4781 72.5604 88.0327 75.1947 89.378C77.829 90.7233 80.2148 94.5622 80.2148 94.5622V94.5638Z" fill="#2A4259"/>
<path d="M68.5011 88.9108L70.2166 84.3672C70.2166 84.3672 78.093 88.6077 79.2023 91.1326C80.3132 93.656 79.2023 96.2825 79.2023 96.2825L68.4995 88.9108H68.5011Z" fill="#D5DADD"/>
<path d="M54.1187 115.127L68.0979 87.0898L80.2163 94.5615L79.0538 115.125H54.1187V115.127Z" fill="#101619"/>
<path d="M70.5041 112.004C69.3198 110.37 68.312 108.593 67.637 106.687C66.9933 104.868 66.6761 102.914 66.8589 100.987C66.8651 100.929 66.8714 100.871 66.8808 100.815C67.1792 98.8778 69.3213 97.82 71.0916 98.6637L73.1118 99.6277C73.6931 99.9043 74.2587 99.2231 73.879 98.7043C72.6119 96.9731 70.976 94.717 70.9525 94.5857C70.9103 94.3592 71.0916 94.1326 71.3369 94.2013C72.2525 94.4592 73.1462 94.7841 74.0259 95.1435C76.043 95.9669 78.0054 96.9388 80.0382 97.7137L80.2163 94.5654L68.0979 87.0938L54.1187 115.13H73.1071C72.1759 114.145 71.301 113.104 70.5041 112.006V112.004Z" fill="#2A4259"/>
<path d="M86.1755 63.4934C86.1474 63.6778 86.2661 63.8543 86.4474 63.895C87.7098 64.1731 88.6161 64.998 88.9348 64.8309C89.1801 64.7043 90.5019 61.4669 88.6145 61.0888C86.727 60.7107 86.3161 62.5841 86.1771 63.4934H86.1755Z" fill="#C35500"/>
<path d="M77.4213 91.9617C77.9123 91.9617 78.3103 91.5636 78.3103 91.0726C78.3103 90.5816 77.9123 90.1836 77.4213 90.1836C76.9303 90.1836 76.5322 90.5816 76.5322 91.0726C76.5322 91.5636 76.9303 91.9617 77.4213 91.9617Z" fill="#2A4259"/>
</g>
<defs>
<clipPath id="clip0_4413_116650">
<rect width="160" height="160" fill="white"/>
</clipPath>
</defs>
</svg>
