<svg width="160" height="85" viewBox="0 0 160 85" fill="none" xmlns="http://www.w3.org/2000/svg">
<g clip-path="url(#clip0_4038_83593)">
<path d="M148 15.833H12C5.37258 15.833 0 21.2056 0 27.833V72.833C0 79.4604 5.37258 84.833 12 84.833H148C154.627 84.833 160 79.4604 160 72.833V27.833C160 21.2056 154.627 15.833 148 15.833Z" fill="#222F3B"/>
<path d="M67.5039 45.6735C67.9589 45.6635 68.8189 46.0435 69.9039 46.1735C69.9039 46.1535 69.9139 46.1285 69.9189 46.1085C69.0039 44.2985 68.1339 42.1685 68.0389 40.4385C67.8389 42.8835 67.7089 44.4535 67.5039 45.6785V45.6735Z" fill="#222F3B"/>
<path d="M115.699 65.978L70.9492 56.2812L44.5195 62.9955L40.8945 65.978L84.0995 77.0431L101.699 70.867L101.199 69.6097L102.699 69.8611H104.949L115.699 65.978Z" fill="#101619"/>
<g clip-path="url(#clip1_4038_83593)">
<path d="M43.1646 35.8814L42.2246 37.7322L44.0696 37.0633L45.4596 35.7204L46.5296 34.7598L44.3746 35.479L43.1646 35.8814Z" fill="#C35500"/>
<path d="M82.07 36.4247C80.21 36.7969 80.9 36.7969 80.31 36.9428L77.355 66.8084L48.125 60.1141L49.25 35.2076C47.75 34.9561 47.75 34.9561 46.5 34.7047L45.5 35.7106L44.63 62.991L80.52 71.5815L84.375 34.6543C83.65 35.3786 82.935 36.133 82.07 36.4247Z" fill="#FF7F4C"/>
<path d="M41.71 38.7225L42.225 37.7317L44.07 37.0627L45.46 35.7198L45.32 40.9607L44.625 63.0003L80.515 71.5858L84.255 35.6293L87.235 34.0098L88.885 35.5488L89.63 35.9663L85.1 75.7553L84.205 77.0429L41 65.9778L41.71 38.7225Z" fill="#A93E00"/>
<path d="M84.205 77.0435L83.42 75.268L87.93 34.6592L88.885 35.5494L89.63 35.9669L85.1 75.7559L84.205 77.0435Z" fill="#450B00"/>
<path opacity="0.5" d="M42.945 37.4707L42.415 64.887L41 65.9784L41.71 38.7231L42.225 37.7322L42.945 37.4707Z" fill="#C35500"/>
<path opacity="0.3" d="M80.2596 37.078L79.9746 40.5836L81.9196 38.4762L83.9946 38.2499L87.7546 36.2229L89.3646 38.3102L89.6296 35.9664L88.1246 35.1466L86.0196 34.0049L80.2596 37.078Z" fill="#450B00"/>
<path d="M42.945 37.47L44.07 37.0626L45.46 35.7197L44.625 63.0002L42.415 64.8863L42.945 37.47Z" fill="#A93E00"/>
<path d="M42.415 64.8871L44.625 63.001L80.515 71.5865L83.42 75.2681L42.415 64.8871Z" fill="#C35500"/>
<path d="M80.1952 36.5704L80.0752 36.9124L79.7252 36.5704H78.2252L77.3952 35.9216L75.7002 36.2887L70.3652 36.6609L71.1502 40.3174L71.1102 43.7174L71.6352 45.5784L71.9252 46.5994L72.8152 51.8151L77.9552 53.7615L73.0802 52.479L72.6552 54.7775L72.4152 52.9367L70.9802 47.379L70.1452 46.0964L69.0552 40.252L67.8052 44.4769L64.4302 38.5017L63.4552 36.2837L59.8052 37.7674L59.1902 37.9988L61.8752 34.5938L61.4952 34.7346L57.0802 35.489C57.0802 35.489 49.1902 36.9275 48.9852 37.1136L48.6252 46.6094L48.1152 60.1239L77.3452 66.8183L77.3602 66.6825L78.6352 53.7867L80.3352 36.5804H80.1952V36.5704Z" fill="#046C7C"/>
<path d="M90.8396 18.0566L52.5496 5.50781L46.0146 29.162C46.4646 29.0966 46.9196 29.0412 47.3696 28.9909C47.5346 28.9708 47.6996 28.9557 47.8696 28.9407C48.2046 28.9105 48.5346 28.8803 48.8696 28.8552C49.1796 28.835 49.4946 28.8149 49.8046 28.7998C49.9196 28.7948 50.0346 28.7847 50.1496 28.7797C50.0346 28.7797 49.9246 28.7797 49.8096 28.7898L54.9896 10.4921L85.7047 20.8581L79.8846 37.4759C80.1746 37.4407 80.4697 37.4155 80.7646 37.4004C80.7796 37.4004 80.7947 37.4004 80.8097 37.4004C81.1046 37.3853 81.4046 37.3803 81.7146 37.3954C81.8246 37.3853 81.9346 37.3702 82.0446 37.3451C82.0846 37.335 82.1196 37.325 82.1596 37.3149C82.2296 37.2998 82.2996 37.2797 82.3696 37.2596C82.4146 37.2445 82.4646 37.2244 82.5096 37.2093C82.5696 37.1892 82.6297 37.164 82.6946 37.1439C82.7446 37.1238 82.7996 37.0986 82.8496 37.0785C82.9046 37.0534 82.9646 37.0282 83.0196 37.0031C83.0746 36.9779 83.1297 36.9478 83.1847 36.9226C83.2346 36.8975 83.2896 36.8673 83.3396 36.8421C83.3997 36.812 83.4596 36.7767 83.5146 36.7415C83.5596 36.7164 83.6096 36.6912 83.6546 36.6611C83.7246 36.6208 83.7896 36.5806 83.8596 36.5404C83.8946 36.5202 83.9296 36.5001 83.9646 36.475C84.0947 36.3945 84.2296 36.314 84.3596 36.2336H84.3647L90.8346 18.0667L90.8396 18.0566Z" fill="#FF7F4C"/>
<path d="M46.0148 29.1615L52.5498 5.5074L90.8398 18.0562L84.3648 36.2231L86.4948 35.1115L88.4648 35.7L90.5298 35.0361L97.9798 14.7266L50.0748 0L41.9648 29.9914L44.1098 29.1364L44.8848 29.6846L46.0148 29.1615Z" fill="#C35500"/>
<path d="M96.2998 15.1289L88.4648 35.6999L90.5298 35.036L97.9798 14.7266L96.2998 15.1289Z" fill="#450B00"/>
<path d="M50.0752 0L51.0152 1.57929L96.3002 15.129L97.9802 14.7266L50.0752 0Z" fill="#C35500"/>
<path d="M50.0748 0L51.1448 1.11154L43.2298 29.4885L41.9648 29.9914L50.0748 0Z" fill="#A93E00"/>
<path d="M43.2305 29.4882L44.1105 29.1362L44.8855 29.6844L46.0155 29.1613L46.8905 25.9826L52.5505 5.50719L51.1455 1.11133" fill="#C35500"/>
<path d="M54.9846 10.4863L49.8096 28.784L54.9296 29.6792L58.8346 29.8653L60.4796 31.6156L64.0696 31.9124L64.7046 29.4479L64.6246 26.5911L66.2146 31.9224L68.4746 30.2878L69.3296 29.8754L70.1896 29.9408L76.4646 28.7638L78.2196 28.4369L76.4846 28.9499C76.4896 29.0053 76.4946 29.0606 76.4996 29.1159L77.1546 29.9458L76.5046 29.5032L76.0496 29.1914L70.9346 31.2837V32.3349L72.2396 33.376H76.4496L79.7346 36.5748L80.0846 36.9168L80.2046 36.5748L81.6546 32.4405L85.7096 20.8624L54.9846 10.4863Z" fill="#046C7C"/>
<path d="M75.5254 8.2033L74.6254 7.98901C74.6254 7.98901 75.5004 6.67442 75.0804 5.78419C74.9254 5.45727 74.7498 5.47224 74.2998 5.37667C72.3398 4.95419 72.3248 7.43892 72.2998 7.54454L71.4004 6.98614C71.6654 5.93496 72.6854 4.05892 74.6254 4.47135C75.2304 4.60212 75.6504 4.90389 75.8704 5.37667C76.3954 6.49324 75.5654 8.13289 75.5304 8.19827L75.5254 8.2033Z" fill="#C35500"/>
<path d="M49.0452 35.6852L49.3552 35.2275L49.3202 37.0231L48.9902 37.1086L49.0452 35.6852Z" fill="#C35500"/>
<path opacity="0.5" d="M45.46 35.7204L47.2525 35.7028L49.045 35.6852L49.355 35.2275L46.53 34.7598L45.46 35.7204Z" fill="#D0C1CB"/>
<path d="M52.5495 5.50719L51.1445 1.11133L96.2995 15.1288L90.8395 18.056L52.5495 5.50719Z" fill="#8D2A00"/>
<path d="M76.0897 31.2991C76.3547 30.7106 76.4847 30.097 76.4997 29.4935L76.0447 29.1816L70.9297 31.2739V32.3251L72.2347 33.3663H74.1697C74.9797 32.9387 75.6697 32.2296 76.0947 31.2941L76.0897 31.2991Z" fill="#0899A7"/>
<path d="M70.19 29.9362L76.465 28.7593C76.275 27.3963 75.48 26.1691 74.22 25.5655C72.2 24.5898 69.78 25.5906 68.82 27.7785C68.46 28.5983 68.36 29.4685 68.475 30.2883L69.33 29.8759L70.19 29.9412V29.9362Z" fill="#0899A7"/>
<path d="M60.0498 40.4883L51.7998 51.3019L75.1198 56.4221L73.4248 52.5644L73.0798 52.4739L72.6548 54.7724L72.4198 52.9316L70.9798 47.3739L70.1498 46.0913L69.9048 44.7987L64.9998 47.6857L60.0498 40.4883Z" fill="#0899A7"/>
</g>
</g>
<defs>
<clipPath id="clip0_4038_83593">
<rect width="160" height="85" fill="white"/>
</clipPath>
<clipPath id="clip1_4038_83593">
<rect width="56.98" height="77.0432" fill="white" transform="translate(41)"/>
</clipPath>
</defs>
</svg>
