<?xml version="1.0" encoding="UTF-8"?>
<!--Generator: Apple Native CoreSVG 341-->
<!DOCTYPE svg
PUBLIC "-//W3C//DTD SVG 1.1//EN"
       "http://www.w3.org/Graphics/SVG/1.1/DTD/svg11.dtd">
<svg version="1.1" xmlns="http://www.w3.org/2000/svg" xmlns:xlink="http://www.w3.org/1999/xlink" viewBox="0 0 3300 2200">
 <!--glyph: "", point size: 100.0, font version: "21.0d4e1", template writer version: "138.0.0"-->
 <style>.defaults {-sfsymbols-draw-reverses-motion-groups:true}

.monochrome-0 {-sfsymbols-motion-group:1;-sfsymbols-layer-tags:-6f6e0c9bd36b391f}
.monochrome-1 {-sfsymbols-motion-group:0;-sfsymbols-layer-tags:-6f6e0c9bd36b391f}

.multicolor-0:tintColor {-sfsymbols-motion-group:1;-sfsymbols-layer-tags:-6f6e0c9bd36b391f}
.multicolor-1:tintColor {-sfsymbols-motion-group:0;-sfsymbols-layer-tags:-6f6e0c9bd36b391f}

.hierarchical-0:primary {-sfsymbols-motion-group:1;-sfsymbols-layer-tags:-6f6e0c9bd36b391f}
.hierarchical-1:primary {-sfsymbols-motion-group:0;-sfsymbols-layer-tags:-6f6e0c9bd36b391f}

.SFSymbolsPreviewWireframe {fill:none;opacity:1.0;stroke:black;stroke-width:0.5}
</style>
 <g id="Notes">
  <rect height="2200" id="artboard" style="fill:white;opacity:1" width="3300" x="0" y="0"/>
  <line style="fill:none;stroke:black;opacity:1;stroke-width:0.5;" x1="263" x2="3036" y1="292" y2="292"/>
  <text style="stroke:none;fill:black;font-family:sans-serif;font-size:13;font-weight:bold;" transform="matrix(1 0 0 1 263 322)">Weight/Scale Variations</text>
  <text style="stroke:none;fill:black;font-family:sans-serif;font-size:13;text-anchor:middle;" transform="matrix(1 0 0 1 559.711 322)">Ultralight</text>
  <text style="stroke:none;fill:black;font-family:sans-serif;font-size:13;text-anchor:middle;" transform="matrix(1 0 0 1 856.422 322)">Thin</text>
  <text style="stroke:none;fill:black;font-family:sans-serif;font-size:13;text-anchor:middle;" transform="matrix(1 0 0 1 1153.13 322)">Light</text>
  <text style="stroke:none;fill:black;font-family:sans-serif;font-size:13;text-anchor:middle;" transform="matrix(1 0 0 1 1449.84 322)">Regular</text>
  <text style="stroke:none;fill:black;font-family:sans-serif;font-size:13;text-anchor:middle;" transform="matrix(1 0 0 1 1746.56 322)">Medium</text>
  <text style="stroke:none;fill:black;font-family:sans-serif;font-size:13;text-anchor:middle;" transform="matrix(1 0 0 1 2043.27 322)">Semibold</text>
  <text style="stroke:none;fill:black;font-family:sans-serif;font-size:13;text-anchor:middle;" transform="matrix(1 0 0 1 2339.98 322)">Bold</text>
  <text style="stroke:none;fill:black;font-family:sans-serif;font-size:13;text-anchor:middle;" transform="matrix(1 0 0 1 2636.69 322)">Heavy</text>
  <text style="stroke:none;fill:black;font-family:sans-serif;font-size:13;text-anchor:middle;" transform="matrix(1 0 0 1 2933.4 322)">Black</text>
  <line style="fill:none;stroke:black;opacity:1;stroke-width:0.5;" x1="263" x2="3036" y1="1903" y2="1903"/>
  <g transform="matrix(0.2 0 0 0.2 263 1933)">
   <path d="m46.2402 4.15039c21.7773 0 39.4531-17.627 39.4531-39.4043s-17.6758-39.4043-39.4531-39.4043c-21.7285 0-39.4043 17.627-39.4043 39.4043s17.6758 39.4043 39.4043 39.4043Zm0-7.42188c-17.6758 0-31.9336-14.3066-31.9336-31.9824s14.2578-31.9824 31.9336-31.9824 31.9824 14.3066 31.9824 31.9824-14.3066 31.9824-31.9824 31.9824Zm3.61328-17.7734v-28.4668c0-2.24609-1.46484-3.75977-3.71094-3.75977-2.14844 0-3.61328 1.51367-3.61328 3.75977v28.4668c0 2.19727 1.46484 3.71094 3.61328 3.71094 2.24609 0 3.71094-1.51367 3.71094-3.71094Zm-17.8223-10.5957h28.418c2.19727 0 3.71094-1.46484 3.71094-3.61328 0-2.19727-1.51367-3.71094-3.71094-3.71094h-28.418c-2.24609 0-3.75977 1.51367-3.75977 3.71094 0 2.14844 1.51367 3.61328 3.75977 3.61328Z"/>
  </g>
  <g transform="matrix(0.2 0 0 0.2 281.506 1933)">
   <path d="m58.5449 14.5508c27.4902 0 49.8047-22.3145 49.8047-49.8047s-22.3145-49.8047-49.8047-49.8047-49.8047 22.3145-49.8047 49.8047 22.3145 49.8047 49.8047 49.8047Zm0-8.30078c-22.9492 0-41.5039-18.5547-41.5039-41.5039s18.5547-41.5039 41.5039-41.5039 41.5039 18.5547 41.5039 41.5039-18.5547 41.5039-41.5039 41.5039Zm4.05273-23.0957v-36.9141c0-2.49023-1.70898-4.19922-4.15039-4.19922-2.39258 0-4.05273 1.70898-4.05273 4.19922v36.9141c0 2.44141 1.66016 4.15039 4.05273 4.15039 2.44141 0 4.15039-1.66016 4.15039-4.15039Zm-22.5586-14.4043h36.9629c2.44141 0 4.15039-1.61133 4.15039-4.00391 0-2.44141-1.70898-4.15039-4.15039-4.15039h-36.9629c-2.49023 0-4.15039 1.70898-4.15039 4.15039 0 2.39258 1.66016 4.00391 4.15039 4.00391Z"/>
  </g>
  <g transform="matrix(0.2 0 0 0.2 304.924 1933)">
   <path d="m74.8535 28.3203c35.1074 0 63.623-28.4668 63.623-63.5742s-28.5156-63.623-63.623-63.623-63.5742 28.5156-63.5742 63.623 28.4668 63.5742 63.5742 63.5742Zm0-9.08203c-30.127 0-54.4922-24.3652-54.4922-54.4922s24.3652-54.4922 54.4922-54.4922 54.4922 24.3652 54.4922 54.4922-24.3652 54.4922-54.4922 54.4922Zm4.44336-30.3223v-48.4863c0-2.73438-1.85547-4.63867-4.54102-4.63867-2.58789 0-4.44336 1.9043-4.44336 4.63867v48.4863c0 2.68555 1.85547 4.58984 4.44336 4.58984 2.68555 0 4.54102-1.85547 4.54102-4.58984Zm-28.7109-19.7754h48.4863c2.68555 0 4.58984-1.80664 4.58984-4.39453 0-2.73438-1.85547-4.58984-4.58984-4.58984h-48.4863c-2.73438 0-4.58984 1.85547-4.58984 4.58984 0 2.58789 1.85547 4.39453 4.58984 4.39453Z"/>
  </g>
  <text style="stroke:none;fill:black;font-family:sans-serif;font-size:13;font-weight:bold;" transform="matrix(1 0 0 1 263 1953)">Design Variations</text>
  <text style="stroke:none;fill:black;font-family:sans-serif;font-size:13;" transform="matrix(1 0 0 1 263 1971)">Symbols are supported in up to nine weights and three scales.</text>
  <text style="stroke:none;fill:black;font-family:sans-serif;font-size:13;" transform="matrix(1 0 0 1 263 1989)">For optimal layout with text and other symbols, vertically align</text>
  <text style="stroke:none;fill:black;font-family:sans-serif;font-size:13;" transform="matrix(1 0 0 1 263 2007)">symbols with the adjacent text.</text>
  <line style="fill:none;stroke:#00AEEF;stroke-width:0.5;opacity:1.0;" x1="776" x2="776" y1="1919" y2="1933"/>
  <g transform="matrix(0.2 0 0 0.2 776 1933)">
   <path d="m16.5527 0.78125c2.58789 0 3.85742-0.976562 4.78516-3.71094l20.5566-57.5195h0.244141l20.6055 57.5195c0.927734 2.73438 2.19727 3.71094 4.73633 3.71094 2.58789 0 4.24805-1.5625 4.24805-4.00391 0-0.830078-0.146484-1.61133-0.537109-2.63672l-22.9004-60.9863c-1.12305-2.97852-3.125-4.49219-6.25-4.49219-3.02734 0-5.07812 1.46484-6.15234 4.44336l-22.9004 61.084c-0.390625 1.02539-0.537109 1.80664-0.537109 2.63672 0 2.44141 1.5625 3.95508 4.10156 3.95508Zm10.2051-20.9473h30.6641c2.00195 0 3.66211-1.66016 3.66211-3.66211 0-2.05078-1.66016-3.66211-3.66211-3.66211h-30.6641c-2.00195 0-3.66211 1.61133-3.66211 3.66211 0 2.00195 1.66016 3.66211 3.66211 3.66211Z"/>
  </g>
  <line style="fill:none;stroke:#00AEEF;stroke-width:0.5;opacity:1.0;" x1="792.836" x2="792.836" y1="1919" y2="1933"/>
  <text style="stroke:none;fill:black;font-family:sans-serif;font-size:13;font-weight:bold;" transform="matrix(1 0 0 1 776 1953)">Margins</text>
  <text style="stroke:none;fill:black;font-family:sans-serif;font-size:13;" transform="matrix(1 0 0 1 776 1971)">Leading and trailing margins on the left and right side of each symbol</text>
  <text style="stroke:none;fill:black;font-family:sans-serif;font-size:13;" transform="matrix(1 0 0 1 776 1989)">can be adjusted by modifying the x-location of the margin guidelines.</text>
  <text style="stroke:none;fill:black;font-family:sans-serif;font-size:13;" transform="matrix(1 0 0 1 776 2007)">Modifications are automatically applied proportionally to all</text>
  <text style="stroke:none;fill:black;font-family:sans-serif;font-size:13;" transform="matrix(1 0 0 1 776 2025)">scales and weights.</text>
  <g transform="matrix(0.2 0 0 0.2 1289 1933)">
   <path d="m14.209 13.1348 7.86133 7.86133c4.29688 4.39453 9.32617 4.10156 13.8672-1.02539l60.6934-68.2129-4.88281-4.88281-60.2539 67.6758c-1.80664 1.95312-3.4668 2.44141-5.81055 0.0976562l-5.17578-5.12695c-2.29492-2.29492-1.80664-3.95508 0.195312-5.81055l67.4805-62.1582-4.88281-4.83398-68.0664 62.5977c-4.98047 4.58984-5.32227 9.47266-1.02539 13.8184Zm44.873-97.4609c-2.05078 2.00195-2.24609 4.88281-1.07422 6.78711 1.12305 1.80664 3.4668 3.02734 6.5918 2.24609 5.85938-1.66016 12.5977-2.39258 18.8965 0.927734l-2.68555 7.12891c-1.61133 4.00391-0.732422 6.88477 1.70898 9.42383l10.2539 10.3027c2.34375 2.39258 4.54102 2.44141 7.08008 1.95312l4.44336-0.732422 2.58789 2.53906-0.195312 2.24609c-0.0976562 2.29492 0.537109 4.29688 2.7832 6.49414l3.36914 3.32031c2.29492 2.29492 5.51758 2.49023 7.8125 0.195312l12.9883-13.0371c2.29492-2.34375 2.14844-5.37109-0.195312-7.66602l-3.41797-3.41797c-2.19727-2.19727-4.05273-3.02734-6.34766-2.88086l-2.34375 0.244141-2.44141-2.44141 1.02539-4.6875c0.634766-2.73438-0.244141-4.98047-2.88086-7.61719l-11.2793-11.1816c-12.9395-12.8418-35.5957-11.0352-46.6797-0.146484Zm7.08008 2.05078c8.78906-6.39648 25.9766-5.66406 33.6914 1.95312l12.3047 12.207c1.02539 1.02539 1.2207 1.80664 0.927734 3.32031l-1.46484 6.64062 6.73828 6.68945 4.39453-0.244141c1.12305-0.0488281 1.51367 0.0488281 2.34375 0.878906l2.53906 2.49023-10.8398 10.8398-2.49023-2.49023c-0.830078-0.878906-0.976562-1.2207-0.927734-2.39258l0.292969-4.3457-6.68945-6.73828-6.83594 1.17188c-1.41602 0.292969-2.05078 0.195312-3.17383-0.878906l-8.93555-8.88672c-1.07422-1.02539-1.17188-1.70898-0.488281-3.36914l4.58984-11.4746c-6.10352-6.34766-17.041-7.51953-25.5859-4.58984-0.683594 0.244141-0.927734-0.390625-0.390625-0.78125Z"/>
  </g>
  <text style="stroke:none;fill:black;font-family:sans-serif;font-size:13;font-weight:bold;" transform="matrix(1 0 0 1 1289 1953)">Exporting</text>
  <text style="stroke:none;fill:black;font-family:sans-serif;font-size:13;" transform="matrix(1 0 0 1 1289 1971)">Symbols should be outlined when exporting to ensure the</text>
  <text style="stroke:none;fill:black;font-family:sans-serif;font-size:13;" transform="matrix(1 0 0 1 1289 1989)">design is preserved when submitting to Xcode.</text>
  <text id="template-version" style="stroke:none;fill:black;font-family:sans-serif;font-size:13;text-anchor:end;" transform="matrix(1 0 0 1 3036 1933)">Template v.5.0</text>
  <text style="stroke:none;fill:black;font-family:sans-serif;font-size:13;text-anchor:end;" transform="matrix(1 0 0 1 3036 1951)">Requires Xcode 15 or greater</text>
  <text id="descriptive-name" style="stroke:none;fill:black;font-family:sans-serif;font-size:13;text-anchor:end;" transform="matrix(1 0 0 1 3036 1969)">Generated from fiori.light.mode</text>
  <text style="stroke:none;fill:black;font-family:sans-serif;font-size:13;text-anchor:end;" transform="matrix(1 0 0 1 3036 1987)">Typeset at 100.0 points</text>
  <text style="stroke:none;fill:black;font-family:sans-serif;font-size:13;" transform="matrix(1 0 0 1 263 726)">Small</text>
  <text style="stroke:none;fill:black;font-family:sans-serif;font-size:13;" transform="matrix(1 0 0 1 263 1156)">Medium</text>
  <text style="stroke:none;fill:black;font-family:sans-serif;font-size:13;" transform="matrix(1 0 0 1 263 1586)">Large</text>
 </g>
 <g id="Guides">
  <g id="H-reference" style="fill:#27AAE1;stroke:none;" transform="matrix(1 0 0 1 339 696)">
   <path d="M0.993654 0L3.63775 0L29.3281-67.1323L30.0303-67.1323L30.0303-70.459L28.1226-70.459ZM11.6885-24.4799L46.9815-24.4799L46.2315-26.7285L12.4385-26.7285ZM55.1196 0L57.7637 0L30.6382-70.459L29.4326-70.459L29.4326-67.1323Z"/>
  </g>
  <line id="Baseline-S" style="fill:none;stroke:#27AAE1;opacity:1;stroke-width:0.5;" x1="263" x2="3036" y1="696" y2="696"/>
  <line id="Capline-S" style="fill:none;stroke:#27AAE1;opacity:1;stroke-width:0.5;" x1="263" x2="3036" y1="625.541" y2="625.541"/>
  <g id="H-reference" style="fill:#27AAE1;stroke:none;" transform="matrix(1 0 0 1 339 1126)">
   <path d="M0.993654 0L3.63775 0L29.3281-67.1323L30.0303-67.1323L30.0303-70.459L28.1226-70.459ZM11.6885-24.4799L46.9815-24.4799L46.2315-26.7285L12.4385-26.7285ZM55.1196 0L57.7637 0L30.6382-70.459L29.4326-70.459L29.4326-67.1323Z"/>
  </g>
  <line id="Baseline-M" style="fill:none;stroke:#27AAE1;opacity:1;stroke-width:0.5;" x1="263" x2="3036" y1="1126" y2="1126"/>
  <line id="Capline-M" style="fill:none;stroke:#27AAE1;opacity:1;stroke-width:0.5;" x1="263" x2="3036" y1="1055.54" y2="1055.54"/>
  <g id="H-reference" style="fill:#27AAE1;stroke:none;" transform="matrix(1 0 0 1 339 1556)">
   <path d="M0.993654 0L3.63775 0L29.3281-67.1323L30.0303-67.1323L30.0303-70.459L28.1226-70.459ZM11.6885-24.4799L46.9815-24.4799L46.2315-26.7285L12.4385-26.7285ZM55.1196 0L57.7637 0L30.6382-70.459L29.4326-70.459L29.4326-67.1323Z"/>
  </g>
  <line id="Baseline-L" style="fill:none;stroke:#27AAE1;opacity:1;stroke-width:0.5;" x1="263" x2="3036" y1="1556" y2="1556"/>
  <line id="Capline-L" style="fill:none;stroke:#27AAE1;opacity:1;stroke-width:0.5;" x1="263" x2="3036" y1="1485.54" y2="1485.54"/>
  <line id="right-margin-Black-S" style="fill:none;stroke:#00AEEF;stroke-width:0.5;opacity:1.0;" x1="2981.9" x2="2981.9" y1="600.785" y2="720.121"/>
  <line id="left-margin-Black-S" style="fill:none;stroke:#00AEEF;stroke-width:0.5;opacity:1.0;" x1="2884.9" x2="2884.9" y1="600.785" y2="720.121"/>
  <line id="right-margin-Regular-S" style="fill:none;stroke:#00AEEF;stroke-width:0.5;opacity:1.0;" x1="1496.29" x2="1496.29" y1="600.785" y2="720.121"/>
  <line id="left-margin-Regular-S" style="fill:none;stroke:#00AEEF;stroke-width:0.5;opacity:1.0;" x1="1403.39" x2="1403.39" y1="600.785" y2="720.121"/>
  <line id="right-margin-Ultralight-S" style="fill:none;stroke:#00AEEF;stroke-width:0.5;opacity:1.0;" x1="604.411" x2="604.411" y1="600.785" y2="720.121"/>
  <line id="left-margin-Ultralight-S" style="fill:none;stroke:#00AEEF;stroke-width:0.5;opacity:1.0;" x1="515.011" x2="515.011" y1="600.785" y2="720.121"/>
 </g>
 <g id="Symbols">
  <g id="Black-S" transform="matrix(1 0 0 1 2884.9 696)">
   <path class="monochrome-0 multicolor-0:tintColor hierarchical-0:primary SFSymbolsPreviewWireframe" d="M15.81-29.3L8.61-29.3C4.81-29.3 1.71-32.4 1.71-36.2C1.71-40 4.81-43.1 8.61-43.1L15.81-43.1C19.61-43.1 22.71-40 22.71-36.2C22.71-32.4 19.71-29.3 15.81-29.3ZM88.31-29.3L81.11-29.3C77.31-29.3 74.21-32.4 74.21-36.2C74.21-40 77.31-43.1 81.11-43.1L88.31-43.1C92.11-43.1 95.21-40 95.21-36.2C95.21-32.4 92.21-29.3 88.31-29.3ZM48.51-61C44.71-61 41.61-64.1 41.61-67.9L41.61-75.1C41.61-78.9 44.71-82 48.51-82C52.31-82 55.41-78.9 55.41-75.1L55.41-67.9C55.41-64.1 52.31-61 48.51-61ZM48.51 11.5C44.71 11.5 41.61 8.4 41.61 4.6L41.61-2.6C41.71-6.6 44.71-9.6 48.51-9.5C52.31-9.4 55.41-6.4 55.41-2.6L55.41 4.6C55.41 8.4 52.31 11.5 48.51 11.5ZM23.81-53C22.01-53 20.21-53.7 18.91-55L13.81-60.1C11.11-62.8 11.11-67.2 13.81-69.9C16.51-72.6 20.91-72.6 23.61-69.9L28.71-64.8C31.41-62.1 31.41-57.7 28.71-55C27.41-53.7 25.61-53 23.81-53ZM78.31 1.5C76.51 1.5 74.71 0.8 73.41-0.5L68.31-5.7C65.61-8.4 65.61-12.8 68.31-15.5C71.01-18.2 75.41-18.2 78.11-15.5L83.21-10.3C85.91-7.6 85.91-3.2 83.21-0.5C81.91 0.8 80.11 1.5 78.31 1.5ZM73.11-53C71.31-53 69.51-53.7 68.21-55C65.51-57.7 65.51-62.1 68.21-64.9L73.31-70C76.01-72.7 80.41-72.7 83.21-70C85.91-67.3 85.91-62.9 83.21-60.1L78.11-55C76.71-53.7 74.91-53 73.11-53ZM18.71 1.5C16.91 1.5 15.11 0.8 13.81-0.5C11.11-3.2 11.11-7.6 13.81-10.3L18.91-15.4C21.61-18.1 26.01-18.1 28.71-15.4C31.41-12.7 31.41-8.3 28.71-5.6L23.61-0.5C22.21 0.8 20.51 1.5 18.71 1.5Z"/>
   <path class="monochrome-1 multicolor-1:tintColor hierarchical-1:primary SFSymbolsPreviewWireframe" d="M48.51-11.9C35.61-11.9 25.11-22.4 25.11-35.3C25.11-48.2 35.61-58.7 48.51-58.7C61.41-58.7 71.91-48.2 71.91-35.3C71.91-22.4 61.41-11.9 48.51-11.9ZM48.51-44.8C43.31-44.8 39.01-40.5 39.01-35.3C39.01-30.1 43.31-25.8 48.51-25.8C53.71-25.8 58.01-30 58.01-35.3C58.01-40.5 53.71-44.8 48.51-44.8Z"/>
  </g>
  <g id="Regular-S" transform="matrix(1 0 0 1 1403.39 696)">
   <path class="monochrome-0 multicolor-0:tintColor hierarchical-0:primary SFSymbolsPreviewWireframe" d="M16.66-32.2L9.46-32.2C7.16-32.2 5.36-34 5.36-36.3C5.36-38.6 7.16-40.4 9.46-40.4L16.66-40.4C18.96-40.4 20.76-38.6 20.76-36.3C20.76-34 18.96-32.2 16.66-32.2ZM83.46-32.2L76.26-32.2C73.96-32.2 72.16-34 72.16-36.3C72.16-38.6 73.96-40.4 76.26-40.4L83.46-40.4C85.76-40.4 87.56-38.6 87.56-36.3C87.56-34 85.76-32.2 83.46-32.2ZM46.46-61C44.16-61 42.36-62.8 42.36-65.1L42.36-72.3C42.36-74.6 44.16-76.4 46.46-76.4C48.76-76.4 50.56-74.6 50.56-72.3L50.56-65.1C50.66-62.8 48.76-61 46.46-61ZM46.46 5.9C44.16 5.9 42.36 4.1 42.36 1.8L42.36-5.4C42.36-7.7 44.16-9.5 46.46-9.5C48.76-9.5 50.56-7.7 50.56-5.4L50.56 1.8C50.66 4 48.76 5.9 46.46 5.9ZM21.86-55.8C20.76-55.8 19.76-56.2 18.96-57L13.86-62.1C12.26-63.7 12.26-66.3 13.86-67.9C15.46-69.5 18.06-69.5 19.66-67.9L24.76-62.8C26.36-61.2 26.36-58.6 24.76-57C23.96-56.2 22.86-55.8 21.86-55.8ZM76.36-1.3C75.26-1.3 74.26-1.7 73.46-2.5L68.36-7.6C66.76-9.2 66.76-11.8 68.36-13.4C69.96-15 72.56-15 74.16-13.4L79.26-8.3C80.86-6.7 80.86-4.1 79.26-2.5C78.46-1.7 77.36-1.3 76.36-1.3ZM71.16-55.8C70.06-55.8 69.06-56.2 68.26-57C66.66-58.6 66.66-61.2 68.26-62.8L73.36-67.9C74.96-69.5 77.56-69.5 79.16-67.9C80.76-66.3 80.76-63.7 79.16-62.1L74.06-57C73.26-56.2 72.26-55.8 71.16-55.8ZM16.66-1.3C15.56-1.3 14.56-1.7 13.76-2.5C12.16-4.1 12.16-6.7 13.76-8.3L18.86-13.4C20.46-15 23.06-15 24.66-13.4C26.26-11.8 26.26-9.2 24.66-7.6L19.56-2.5C18.76-1.7 17.76-1.3 16.66-1.3Z"/>
   <path class="monochrome-1 multicolor-1:tintColor hierarchical-1:primary SFSymbolsPreviewWireframe" d="M46.46-14.7C35.16-14.7 25.96-23.9 25.96-35.3C25.96-46.7 35.16-55.9 46.56-55.9C57.86-55.9 67.16-46.7 67.16-35.3C67.16-23.9 57.86-14.7 46.46-14.7ZM46.46-47.6C39.66-47.6 34.16-42.1 34.16-35.3C34.16-28.5 39.66-23 46.46-23C53.26-23 58.76-28.5 58.76-35.3C58.86-42.1 53.26-47.6 46.46-47.6Z"/>
  </g>
  <g id="Ultralight-S" transform="matrix(1 0 0 1 515.011 696)">
   <path class="monochrome-0 multicolor-0:tintColor hierarchical-0:primary SFSymbolsPreviewWireframe" d="M14.975-35L7.775-35C7.075-35 6.475-35.6 6.475-36.3C6.475-37 7.075-37.6 7.775-37.6L14.975-37.6C15.675-37.6 16.275-37 16.275-36.3C16.275-35.6 15.675-35 14.975-35ZM81.775-35L74.575-35C73.875-35 73.275-35.6 73.275-36.3C73.275-37 73.875-37.6 74.575-37.6L81.775-37.6C82.475-37.6 83.075-37 83.075-36.3C83.075-35.6 82.475-35 81.775-35ZM44.775-63.8C44.075-63.8 43.475-64.4 43.475-65.1L43.475-72.3C43.475-73 44.075-73.6 44.775-73.6C45.475-73.6 46.075-73 46.075-72.3L46.075-65.1C46.075-64.4 45.475-63.8 44.775-63.8ZM44.775 3C44.075 3 43.475 2.4 43.475 1.7L43.475-5.5C43.475-6.2 44.075-6.8 44.775-6.8C45.475-6.8 46.075-6.2 46.075-5.5L46.075 1.7C46.075 2.5 45.475 3 44.775 3ZM20.075-58.6C19.775-58.6 19.375-58.7 19.175-59L14.075-64.1C13.575-64.6 13.575-65.4 14.075-65.9C14.575-66.4 15.375-66.4 15.875-65.9L20.975-60.8C21.475-60.3 21.475-59.5 20.975-59C20.775-58.8 20.375-58.6 20.075-58.6ZM74.575-4.2C74.275-4.2 73.875-4.3 73.675-4.6L68.575-9.7C68.075-10.2 68.075-11 68.575-11.5C69.075-12 69.875-12 70.375-11.5L75.475-6.4C75.975-5.8 75.975-5 75.475-4.5C75.175-4.3 74.875-4.2 74.575-4.2ZM69.475-58.6C69.175-58.6 68.775-58.7 68.575-59C68.075-59.5 68.075-60.3 68.575-60.8L73.675-65.9C74.175-66.4 74.975-66.4 75.475-65.9C75.975-65.4 75.975-64.6 75.475-64.1L70.375-59C70.075-58.8 69.775-58.6 69.475-58.6ZM14.975-4.2C14.675-4.2 14.275-4.3 14.075-4.6C13.575-5.1 13.575-5.9 14.075-6.4L19.175-11.5C19.675-12 20.475-12 20.975-11.5C21.475-11 21.475-10.2 20.975-9.7L15.875-4.6C15.575-4.3 15.275-4.2 14.975-4.2Z"/>
   <path class="monochrome-1 multicolor-1:tintColor hierarchical-1:primary SFSymbolsPreviewWireframe" d="M44.775-17.5C34.975-17.5 27.075-25.5 27.075-35.2C27.075-44.9 34.975-53 44.775-53C54.575-53 62.475-45 62.475-35.3C62.475-25.6 54.475-17.5 44.775-17.5ZM44.775-50.4C36.375-50.4 29.575-43.6 29.575-35.2C29.575-26.8 36.375-20 44.775-20C53.175-20 59.975-26.8 59.975-35.2C59.875-43.6 53.075-50.4 44.775-50.4Z"/>
  </g>
 </g>
</svg>
