<svg width="130" height="128" viewBox="0 0 130 128" fill="none" xmlns="http://www.w3.org/2000/svg">
<g clip-path="url(#clip0_4211_44552)">
<path d="M-0.511719 87.8789L72.5828 88.6929L99.4477 109.702L50.8952 108.538L-0.511719 87.8789Z" fill="#101619"/>
<path d="M94.517 109.698L96.0967 16.2461H54.416V107.317L89.3639 120.886H128.251L94.517 109.698Z" fill="#D0B863"/>
<path d="M50.7891 11.6211H98.4414V109.695H94.5207V14.7924H53.5408V108.531H50.8948L50.7891 11.6211Z" fill="#C35500"/>
<path d="M53.5391 14.7891L53.5632 14.8222L53.5391 108.528L55.14 106.975V17.1917H94.519V14.7891H53.5391Z" fill="#A93E00"/>
<path d="M99.4512 11.6211H98.4453V109.695H99.4512V11.6211Z" fill="#A93E00"/>
<path d="M53.5391 14.7891V108.528L55.14 106.975L54.418 16.2391L53.5391 14.7891Z" fill="#340800"/>
<path d="M54.4219 14.1921V107.804L78.9156 116.881V4.35547L54.4219 14.1921Z" fill="#C35500"/>
<path d="M80.5322 4.35547H78.9102V116.881L80.5322 116.516V4.35547Z" fill="#340800"/>
<circle cx="4.07188" cy="4.07188" r="4.07188" transform="matrix(0.866025 0.5 -0.309017 0.951057 72.3438 55.7539)" fill="#D0B863"/>
</g>
<defs>
<clipPath id="clip0_4211_44552">
<rect width="128" height="122.41" fill="white" transform="translate(0.578125 1.36719)"/>
</clipPath>
</defs>
</svg>
