<svg width="45" height="45" viewBox="0 0 45 45" fill="none" xmlns="http://www.w3.org/2000/svg">
<g clip-path="url(#clip0_4413_116609)">
<path d="M-0.382812 31.3984L25.3145 31.6846L34.7592 39.0705L17.6899 38.6614L-0.382812 31.3984Z" fill="#1B90FF"/>
<path d="M33.0268 39.0692L33.5822 6.21484H18.9288V38.2319L31.2152 43.0022H44.8866L33.0268 39.0692Z" fill="#FFDF72"/>
<path d="M17.6526 4.58984H34.4054V39.0689H33.027V5.70477H18.62V38.6598H17.6898L17.6526 4.58984Z" fill="#C35500"/>
<path d="M18.6199 5.70312L18.6284 5.71478L18.6199 38.6582L19.1827 38.1124V6.5478H33.0269V5.70312H18.6199Z" fill="#A93E00"/>
<path d="M34.7591 4.58984H34.4055V39.0689H34.7591V4.58984Z" fill="#A93E00"/>
<path d="M18.6199 5.70312V38.6582L19.1827 38.1124L18.9289 6.2129L18.6199 5.70312Z" fill="#340800"/>
<path d="M18.929 5.49334V38.4039L27.54 41.595V2.03516L18.929 5.49334Z" fill="#C35500"/>
<path d="M28.1103 2.03516H27.54V41.595L28.1103 41.4667V2.03516Z" fill="#340800"/>
<ellipse cx="1.43152" cy="1.43152" rx="1.43152" ry="1.43152" transform="matrix(0.866025 0.5 -0.309017 0.951057 25.2314 20.1055)" fill="#FFDF72"/>
</g>
<defs>
<clipPath id="clip0_4413_116609">
<rect width="45" height="43.0347" fill="white" transform="translate(0 0.984375)"/>
</clipPath>
</defs>
</svg>
