<svg width="128" height="129" viewBox="0 0 128 129" fill="none" xmlns="http://www.w3.org/2000/svg">
<circle cx="64" cy="64.7695" r="64" fill="#EBF8FF"/>
<path fill-rule="evenodd" clip-rule="evenodd" d="M99.368 57.7417L83.2291 62.6484L86.5933 73.7136C86.5945 73.7177 86.5957 73.7218 86.5969 73.7259C87.0631 75.2593 91.0538 75.4039 95.5105 74.0489C99.9666 72.6941 103.201 70.3531 102.736 68.8197L102.736 68.8197L99.368 57.7417Z" fill="#9EDDFF"/>
<ellipse cx="91.2934" cy="60.1784" rx="8.43415" ry="2.90182" transform="rotate(-16.911 91.2934 60.1784)" fill="#B8E6FF"/>
<path fill-rule="evenodd" clip-rule="evenodd" d="M95.2084 53.7126L84.441 56.9863L85.5999 60.7981C85.6011 60.802 85.6022 60.8059 85.6034 60.8099C85.8937 61.7646 88.5393 61.8056 91.5127 60.9017C94.4858 59.9977 96.6607 58.4911 96.3709 57.5364L96.371 57.5364L95.2084 53.7126Z" fill="#9EDDFF"/>
<ellipse cx="89.8253" cy="55.3496" rx="5.62702" ry="1.80674" transform="rotate(-16.911 89.8253 55.3496)" fill="#B8E6FF"/>
<path fill-rule="evenodd" clip-rule="evenodd" d="M78.437 9.64C79.1507 8.66123 79.4121 7.37085 79.0326 6.12265C78.391 4.01227 76.1601 2.82161 74.0497 3.46324C71.9393 4.10486 70.7487 6.3358 71.3903 8.44618C71.7698 9.69456 72.7055 10.6211 73.8434 11.0369L86.9876 54.2695C87.3732 55.538 88.7142 56.2537 89.9827 55.868C91.2512 55.4824 91.9669 54.1414 91.5812 52.8729L78.437 9.64Z" fill="#B8E6FF"/>
<path fill-rule="evenodd" clip-rule="evenodd" d="M106.011 16.4884L84.3716 29.988C83.9564 30.2471 83.4084 30.0415 83.266 29.5732L77.7092 11.2963C77.5623 10.8131 77.9294 10.327 78.4344 10.336L98.241 10.6915C100.979 12.4286 103.576 14.3679 106.011 16.4884Z" fill="#9EDDFF"/>
<path fill-rule="evenodd" clip-rule="evenodd" d="M106.556 16.9688L84.8927 31.6132C84.4778 31.8937 83.9099 31.6924 83.7642 31.2133L78.2141 12.9584C78.0684 12.4792 78.4282 11.9959 78.929 11.998L100.347 12.0863C102.518 13.5869 104.591 15.2182 106.556 16.9688Z" fill="#D1EFFF"/>
<path fill-rule="evenodd" clip-rule="evenodd" d="M120.995 93.9138C120.338 95.1956 119.639 96.4523 118.901 97.6822L57.7929 90.9418L40.4672 75.9723L109.594 83.9312L120.995 93.9138Z" fill="#64EDD2"/>
<path d="M40.4786 75.9902L57.7581 90.8957L50.4897 109.022L33.5811 93.2615L40.4786 75.9902Z" fill="#64EDD2"/>
<path fill-rule="evenodd" clip-rule="evenodd" d="M118.9 97.6824C115.017 104.145 110.026 109.865 104.189 114.58L50.4896 109.079L57.7488 90.9189L118.9 97.6824Z" fill="#00A58A"/>
<path d="M79.7977 74.7209L62.472 59.7514L108.384 65.5416L125.138 80.0925L79.7977 74.7209Z" fill="#F58B00"/>
<path d="M62.4834 59.7715L79.763 74.6769L72.6868 92.5394L55.5859 77.0428L62.4834 59.7715Z" fill="#F58B00"/>
<path d="M79.753 74.701L125.167 80.0789L118.129 97.7034L72.6435 92.5832L79.753 74.701Z" fill="#CC7400"/>
<path fill-rule="evenodd" clip-rule="evenodd" d="M80.9217 61.989L70.1704 57.6953L68.8146 61.0902L68.815 61.0903C68.5067 61.8627 70.6633 63.45 73.6321 64.6356C76.601 65.8213 79.2578 66.1563 79.5663 65.3839C79.5684 65.3786 79.5704 65.3734 79.5722 65.3681L80.9217 61.989Z" fill="#CC7400"/>
<ellipse cx="75.5461" cy="59.8423" rx="5.78848" ry="1.50596" transform="rotate(21.7698 75.5461 59.8423)" fill="#F58B00"/>
<path fill-rule="evenodd" clip-rule="evenodd" d="M95.7894 63.989L85.0381 59.6953L83.6823 63.0902L83.6828 63.0904C83.6828 63.0905 83.6827 63.0906 83.6827 63.0907C83.3742 63.8631 85.5309 65.4504 88.4998 66.6361C91.4687 67.8218 94.1255 68.1568 94.434 67.3844C94.4365 67.378 94.4389 67.3716 94.441 67.3652L95.7894 63.989Z" fill="#CC7400"/>
<ellipse cx="90.4133" cy="61.8423" rx="5.78848" ry="1.50596" transform="rotate(21.7698 90.4133 61.8423)" fill="#F58B00"/>
<path fill-rule="evenodd" clip-rule="evenodd" d="M110.126 65.4518L99.375 61.1582L98.0192 64.553L98.0195 64.5531C97.7111 65.3256 99.8678 66.9128 102.837 68.0985C105.805 69.2841 108.462 69.6191 108.771 68.8467C108.772 68.8425 108.774 68.8382 108.776 68.8339L110.126 65.4518Z" fill="#CC7400"/>
<ellipse cx="104.751" cy="63.3051" rx="5.78848" ry="1.50596" transform="rotate(21.7698 104.751 63.3051)" fill="#F58B00"/>
<path fill-rule="evenodd" clip-rule="evenodd" d="M118.607 74.2606L107.856 69.967L106.507 73.3452C106.504 73.3508 106.502 73.3564 106.5 73.3621C106.191 74.1345 108.348 75.7218 111.317 76.9075C114.286 78.0931 116.942 78.4281 117.251 77.6557C117.251 77.6556 117.251 77.6554 117.251 77.6553L117.251 77.6554L118.607 74.2606Z" fill="#CC7400"/>
<ellipse cx="113.231" cy="72.1137" rx="5.78848" ry="1.50596" transform="rotate(21.7698 113.231 72.1137)" fill="#F58B00"/>
<path fill-rule="evenodd" clip-rule="evenodd" d="M104.713 72.8601L93.9621 68.5665L92.6109 71.9498C92.6093 71.9537 92.6076 71.9575 92.6061 71.9614C92.2976 72.7338 94.4543 74.3212 97.4232 75.5068C100.392 76.6925 103.049 77.0275 103.357 76.2551C103.357 76.255 103.357 76.255 103.357 76.2549L103.358 76.255L104.713 72.8601Z" fill="#CC7400"/>
<ellipse cx="99.3371" cy="70.7133" rx="5.78848" ry="1.50596" transform="rotate(21.7698 99.3371 70.7133)" fill="#F58B00"/>
<path fill-rule="evenodd" clip-rule="evenodd" d="M89.846 70.8583L79.0947 66.5646L77.7463 69.9412C77.7435 69.9473 77.7408 69.9534 77.7383 69.9596C77.4299 70.732 79.5866 72.3194 82.5555 73.505C85.5243 74.6907 88.1812 75.0257 88.4896 74.2533C88.4897 74.2532 88.4897 74.2531 88.4898 74.2529L88.4902 74.2531L89.846 70.8583Z" fill="#CC7400"/>
<ellipse cx="84.4695" cy="68.7114" rx="5.78848" ry="1.50596" transform="rotate(21.7698 84.4695 68.7114)" fill="#F58B00"/>
<path fill-rule="evenodd" clip-rule="evenodd" d="M58.9178 78.2058L48.1665 73.9121L46.8107 77.307L46.8109 77.307C46.8108 77.3072 46.8107 77.3073 46.8107 77.3075C46.5022 78.0799 48.6589 79.6672 51.6278 80.8529C54.5967 82.0385 57.2535 82.3736 57.562 81.6011C57.5634 81.5977 57.5647 81.5943 57.5659 81.5908L58.9178 78.2058Z" fill="#00A58A"/>
<ellipse cx="53.5417" cy="76.0591" rx="5.78848" ry="1.50596" transform="rotate(21.7698 53.5417 76.0591)" fill="#64EDD2"/>
<path fill-rule="evenodd" clip-rule="evenodd" d="M67.8411 87.0749L57.0898 82.7812L55.7341 86.1761L55.7346 86.1763C55.4265 86.9488 57.5831 88.536 60.5518 89.7215C63.5207 90.9072 66.1775 91.2422 66.486 90.4698C66.4887 90.4631 66.4911 90.4564 66.4934 90.4496L67.8411 87.0749Z" fill="#00A58A"/>
<ellipse cx="62.4651" cy="84.9282" rx="5.78848" ry="1.50596" transform="rotate(21.7698 62.4651 84.9282)" fill="#64EDD2"/>
<path fill-rule="evenodd" clip-rule="evenodd" d="M2.2253 47.9825C2.37357 47.4356 2.52891 46.8917 2.69121 46.3507L38.28 21.6015L60.4664 21.2036L23.1797 47.5523L2.2253 47.9825Z" fill="#0070F2"/>
<path fill-rule="evenodd" clip-rule="evenodd" d="M1.45558 51.1381C1.68563 50.0777 1.94196 49.0271 2.22385 47.9871L23.124 47.5411L29.528 64.9149L6.74113 65.4779L1.45558 51.1381Z" fill="#004DA5"/>
<path d="M23.1316 47.5648L60.4777 21.171L67.0413 38.978L29.5269 64.9153L23.1316 47.5648Z" fill="#005DC9"/>
<path fill-rule="evenodd" clip-rule="evenodd" d="M15.494 37.3339L4.63151 41.3378L5.89192 44.7573C5.89317 44.761 5.89447 44.7647 5.89582 44.7684C6.18347 45.5488 8.84832 45.2851 11.8479 44.1795C14.8475 43.0738 17.046 41.5449 16.7584 40.7645C16.7583 40.7643 16.7582 40.7641 16.7582 40.764L16.7583 40.7639L15.494 37.3339Z" fill="#004DA5"/>
<ellipse cx="10.062" cy="39.3369" rx="5.78848" ry="1.50596" transform="rotate(-20.2337 10.062 39.3369)" fill="#005DC9"/>
<path fill-rule="evenodd" clip-rule="evenodd" d="M27.8812 28.875L17.0187 32.8789L18.2796 36.2999C18.2806 36.3028 18.2817 36.3057 18.2828 36.3087C18.5704 37.0891 21.2353 36.8254 24.2349 35.7197C27.2342 34.6142 29.4326 33.0854 29.1454 32.305L29.1455 32.3049L27.8812 28.875Z" fill="#004DA5"/>
<ellipse cx="22.4492" cy="30.8759" rx="5.78848" ry="1.50596" transform="rotate(-20.2337 22.4492 30.8759)" fill="#005DC9"/>
<path fill-rule="evenodd" clip-rule="evenodd" d="M39.5139 20.3652L28.6514 24.3691L29.9156 27.7991L29.9161 27.7989C29.9161 27.799 29.9161 27.799 29.9161 27.7991C30.2038 28.5795 32.8686 28.3158 35.8682 27.2101C38.8678 26.1045 41.0663 24.5756 40.7787 23.7952C40.7764 23.7891 40.7741 23.7832 40.7716 23.7772L39.5139 20.3652Z" fill="#004DA5"/>
<ellipse cx="34.083" cy="22.3681" rx="5.78848" ry="1.50596" transform="rotate(-20.2337 34.083 22.3681)" fill="#005DC9"/>
<path fill-rule="evenodd" clip-rule="evenodd" d="M51.7087 21.2344L40.8462 25.2383L42.1105 28.6682L42.1111 28.668C42.1112 28.6682 42.1113 28.6684 42.1113 28.6686C42.399 29.449 45.0638 29.1853 48.0635 28.0797C51.0631 26.974 53.2615 25.4451 52.9739 24.6647C52.9711 24.6572 52.9682 24.6498 52.965 24.6425L51.7087 21.2344Z" fill="#004DA5"/>
<ellipse cx="46.2773" cy="23.2373" rx="5.78848" ry="1.50596" transform="rotate(-20.2337 46.2773 23.2373)" fill="#005DC9"/>
<path fill-rule="evenodd" clip-rule="evenodd" d="M40.4482 29.4919L29.5856 33.4958L30.8415 36.9029C30.8438 36.9106 30.8464 36.9183 30.8491 36.9258C31.1368 37.7062 33.8016 37.4425 36.8013 36.3369C39.8005 35.2314 41.9989 33.7026 41.7118 32.9222L41.7125 32.9219L40.4482 29.4919Z" fill="#004DA5"/>
<ellipse cx="35.0161" cy="31.4951" rx="5.78848" ry="1.50596" transform="rotate(-20.2337 35.0161 31.4951)" fill="#005DC9"/>
<path fill-rule="evenodd" clip-rule="evenodd" d="M28.0608 37.9531L17.1982 41.957L18.4625 45.387L18.4626 45.387C18.4626 45.387 18.4626 45.387 18.4626 45.387C18.7503 46.1674 21.4151 45.9037 24.4147 44.7981C27.4143 43.6925 29.6128 42.1635 29.3252 41.3831C29.3242 41.3805 29.3232 41.3779 29.3222 41.3754L28.0608 37.9531Z" fill="#004DA5"/>
<ellipse cx="22.6294" cy="39.956" rx="5.78848" ry="1.50596" transform="rotate(-20.2337 22.6294 39.956)" fill="#005DC9"/>
<path fill-rule="evenodd" clip-rule="evenodd" d="M10.8722 100.468C10.1332 99.37 9.42723 98.2481 8.75586 97.1035L27.7153 77.6992L43.3353 92.9611L23.7277 113.029L10.8722 100.468Z" fill="#B8E6FF"/>
<rect x="33.6543" y="83.502" width="13.5351" height="28.0564" transform="rotate(44.3357 33.6543 83.502)" fill="#9EDDFF"/>
<rect x="21.9849" y="83.5625" width="10.4512" height="12.4416" transform="rotate(44.3357 21.9849 83.5625)" fill="#9EDDFF"/>
<path d="M28.7418 98.6583C26.4195 101.192 22.9274 101.771 20.942 99.9507C18.9565 98.1308 19.2296 94.6017 21.5519 92.068C23.8742 89.5344 27.3664 88.9557 29.3518 90.7756C31.3372 92.5954 31.0642 96.1246 28.7418 98.6583Z" fill="#9EDDFF"/>
<path fill-rule="evenodd" clip-rule="evenodd" d="M22.1934 98.5854C23.1335 99.4471 25.444 99.5152 27.3766 97.4069C29.3091 95.2985 29.0405 93.0026 28.1004 92.1409C27.1603 91.2792 24.8497 91.2111 22.9172 93.3194C20.9847 95.4278 21.2532 97.7237 22.1934 98.5854ZM20.942 99.9507C22.9274 101.771 26.4195 101.192 28.7418 98.6583C31.0642 96.1246 31.3372 92.5954 29.3518 90.7756C27.3664 88.9557 23.8742 89.5344 21.5519 92.068C19.2296 94.6017 18.9565 98.1308 20.942 99.9507Z" fill="#B8E6FF"/>
<path fill-rule="evenodd" clip-rule="evenodd" d="M8.75581 97.1028C6.72193 93.6351 5.00522 89.9589 3.64551 86.114L19.6077 69.7773L27.715 77.6988L8.75581 97.1028ZM10.8732 100.469C10.1338 99.3705 9.42756 98.2481 8.75592 97.103L27.7151 77.699L43.3351 92.9608L23.7276 113.028L10.8732 100.469ZM39.8431 93.0013L27.7556 81.191L11.5996 97.726L23.6871 109.536L39.8431 93.0013Z" fill="#D1EFFF"/>
</svg>
