<svg width="160" height="160" viewBox="0 0 160 160" fill="none" xmlns="http://www.w3.org/2000/svg">
<circle cx="79.7067" cy="80.0002" r="78.1115" fill="#EBF8FF"/>
<path d="M131.983 8.32043C132.193 8.49046 132.353 8.71402 132.447 8.96759C132.541 9.22115 132.565 9.49534 132.516 9.7613L131.521 16.1174C131.357 17.1687 130.4 17.5984 129.576 17.4696C129.237 17.4292 128.92 17.2798 128.673 17.0438C128.426 16.8079 128.262 16.4981 128.206 16.1611C128.184 15.9975 128.187 15.8315 128.215 15.6687L129.21 9.31262C129.248 9.03286 129.361 8.76857 129.536 8.5477C129.712 8.32684 129.944 8.15761 130.209 8.05794C130.502 7.94701 130.819 7.91288 131.13 7.95882C131.44 8.00476 131.734 8.12923 131.983 8.32043Z" fill="#A9B4BE"/>
<path d="M157.686 32.0105C157.752 32.1926 157.778 32.3864 157.764 32.5794C157.751 32.7724 157.697 32.9605 157.606 33.1315C157.516 33.3025 157.39 33.4527 157.239 33.5726C157.087 33.6925 156.911 33.7795 156.724 33.8278L150.734 35.6705C150.519 35.736 150.292 35.7579 150.068 35.7349C149.844 35.7119 149.627 35.6445 149.429 35.5366C149.231 35.4287 149.057 35.2825 148.916 35.1065C148.775 34.9305 148.671 34.7282 148.609 34.5114C148.582 34.4228 148.561 34.332 148.548 34.2399C148.495 33.9006 148.571 33.5536 148.761 33.2675C148.951 32.9813 149.241 32.7767 149.574 32.694L155.562 30.8537C155.777 30.7878 156.003 30.7656 156.228 30.7883C156.452 30.811 156.669 30.8781 156.867 30.9858C157.065 31.0936 157.239 31.2397 157.38 31.4156C157.521 31.5915 157.625 31.7938 157.686 32.0105Z" fill="#A9B4BE"/>
<path d="M149.289 16.5653C149.306 16.776 149.28 16.988 149.212 17.1883C149.145 17.3886 149.037 17.573 148.895 17.7302L142.626 24.8459C142.343 25.1634 141.948 25.3593 141.524 25.3925C141.1 25.4257 140.68 25.2938 140.351 25.0241C140.047 24.7728 139.848 24.4164 139.794 24.0256C139.764 23.8002 139.782 23.5709 139.848 23.3534C139.914 23.1358 140.027 22.935 140.177 22.7647L146.447 15.649C146.731 15.3294 147.128 15.1325 147.555 15.0997C147.981 15.0668 148.404 15.2006 148.734 15.4728C148.895 15.6081 149.027 15.7746 149.123 15.9624C149.218 16.1501 149.275 16.3552 149.289 16.5653Z" fill="#A9B4BE"/>
<path d="M14.7861 79.9485C14.7861 79.4329 13.2895 79.0202 11.2897 78.9264C11.1754 76.9292 10.7352 75.4442 10.2195 75.4453C9.70389 75.4465 9.27513 76.9429 9.16536 78.9504C7.1599 79.0876 5.66894 79.5358 5.6758 80.0525C5.68267 80.5693 7.17248 80.982 9.17222 81.0746C9.29228 83.0718 9.72675 84.5568 10.2413 84.5557C10.7558 84.5545 11.1868 83.0581 11.2966 81.0506C13.3021 80.9134 14.7919 80.4652 14.7861 79.9485Z" fill="#D1EFFF"/>
<path d="M84.7407 21.8231C84.7407 21.0497 82.4957 20.4307 79.4961 20.2901C79.3246 17.2942 78.6643 15.0666 77.8908 15.0684C77.1173 15.0701 76.4742 17.3148 76.3096 20.3261C73.3014 20.5318 71.0649 21.2041 71.0752 21.9792C71.0855 22.7543 73.3202 23.3733 76.3199 23.5122C76.4999 26.5081 77.1516 28.7356 77.9234 28.7339C78.6952 28.7322 79.3418 26.4875 79.5064 23.4762C82.5146 23.2704 84.7493 22.5982 84.7407 21.8231Z" fill="#D1EFFF"/>
<rect x="19.5967" y="37.998" width="116.622" height="116.622" rx="8.36918" fill="#D5DADD"/>
<rect x="23.7812" y="34.4121" width="116.622" height="116.622" rx="7.77138" fill="white"/>
<path fill-rule="evenodd" clip-rule="evenodd" d="M37.7398 143.652C34.1081 143.652 31.1641 140.708 31.1641 137.076V124.684C33.9255 124.684 36.1641 126.923 36.1641 129.684V137.076C36.1641 137.946 36.8696 138.652 37.7398 138.652H45.132C47.8934 138.652 50.132 140.89 50.132 143.652H37.7398ZM79.7004 143.652C79.7004 140.89 77.4618 138.652 74.7004 138.652H59.9162C57.1548 138.652 54.9162 140.89 54.9162 143.652H79.7004ZM109.269 143.652C109.269 140.89 107.03 138.652 104.269 138.652H89.4846C86.7232 138.652 84.4846 140.89 84.4846 143.652H109.269ZM133.021 124.684C130.26 124.684 128.021 126.923 128.021 129.684V137.076C128.021 137.946 127.315 138.652 126.445 138.652H119.053C116.292 138.652 114.053 140.89 114.053 143.652H126.445C130.077 143.652 133.021 140.708 133.021 137.076V124.684ZM133.021 95.1155C130.26 95.1155 128.021 97.3541 128.021 100.115V114.9C128.021 117.661 130.26 119.9 133.021 119.9V95.1155ZM133.021 65.547C130.26 65.547 128.021 67.7856 128.021 70.547V85.3313C128.021 88.0927 130.26 90.3313 133.021 90.3313V65.547ZM114.053 41.7949C114.053 44.5563 116.292 46.7949 119.053 46.7949H126.445C127.315 46.7949 128.021 47.5004 128.021 48.3707V55.7628C128.021 58.5242 130.26 60.7628 133.021 60.7628V48.3707C133.021 44.739 130.077 41.7949 126.445 41.7949H114.053ZM84.4846 41.7949C84.4846 44.5563 86.7232 46.7949 89.4846 46.7949H104.269C107.03 46.7949 109.269 44.5563 109.269 41.7949H84.4846ZM54.9162 41.7949C54.9162 44.5563 57.1548 46.7949 59.9162 46.7949H74.7004C77.4618 46.7949 79.7004 44.5563 79.7004 41.7949H54.9162ZM31.1641 60.7628C33.9255 60.7628 36.1641 58.5242 36.1641 55.7628V48.3707C36.1641 47.5004 36.8696 46.7949 37.7398 46.7949H45.132C47.8934 46.7949 50.132 44.5563 50.132 41.7949H37.7398C34.1081 41.7949 31.1641 44.739 31.1641 48.3707V60.7628ZM31.1641 90.3313C33.9255 90.3313 36.1641 88.0927 36.1641 85.3313V70.547C36.1641 67.7856 33.9255 65.547 31.1641 65.547V90.3313ZM31.1641 119.9C33.9255 119.9 36.1641 117.661 36.1641 114.9V100.115C36.1641 97.3541 33.9255 95.1155 31.1641 95.1155V119.9Z" fill="#B8E6FF"/>
</svg>
