<svg width="45" height="45" viewBox="0 0 45 45" fill="none" xmlns="http://www.w3.org/2000/svg">
<g clip-path="url(#clip0_4211_40787)">
<g clip-path="url(#clip1_4211_40787)">
<mask id="mask0_4211_40787" style="mask-type:luminance" maskUnits="userSpaceOnUse" x="0" y="1" width="46" height="44">
<path d="M45.5 1.15625H0.5V44.8463H45.5V1.15625Z" fill="white"/>
</mask>
<g mask="url(#mask0_4211_40787)">
<path d="M43.4805 40.1556L26.1705 34.3956C26.1705 34.3956 26.0905 34.3756 26.0605 34.3956L1.54048 38.1356C0.440478 38.2656 0.330478 38.5656 0.670478 38.7356L18.0205 44.6256C18.7005 44.8556 19.4205 44.9156 20.1205 44.7856L42.5105 40.6756C43.5305 40.5356 43.7305 40.2356 43.4905 40.1556H43.4805Z" fill="#1B90FF"/>
<path d="M7.18112 6.9579L16.1511 39.5079C16.2811 39.9779 16.7311 40.2779 17.2211 40.2179L43.4311 35.4479C44.9411 35.0679 45.6411 33.4879 45.4711 32.8679L31.7011 3.4179C31.5611 3.0079 31.1511 2.7379 30.7211 2.7679L8.52112 3.2479C7.91112 3.3379 6.50112 4.7379 7.18112 6.9679V6.9579Z" fill="#00144A"/>
<path d="M7.78153 4.42633L17.0515 38.0463C17.1815 38.5163 17.6315 38.8163 18.1215 38.7563L44.6515 33.9363C45.2715 33.8563 45.6515 33.2263 45.4515 32.6463L34.7515 1.81633C34.6115 1.40633 34.2015 1.13633 33.7715 1.16633L8.66152 3.19633C8.04152 3.23633 7.61153 3.83633 7.78153 4.42633Z" fill="white"/>
<path d="M19.1911 37.085C18.5711 37.085 18.0311 36.665 17.8611 36.075L17.5911 35.085C17.5211 34.815 17.6711 34.545 17.9411 34.475C18.2111 34.405 18.4811 34.555 18.5511 34.825L18.8211 35.815C18.8611 35.975 19.0111 36.095 19.1811 36.095L19.9111 35.965C20.1811 35.915 20.4411 36.095 20.4911 36.365C20.5411 36.635 20.3611 36.895 20.0911 36.945L19.3811 37.075C19.2911 37.085 19.2311 37.095 19.1711 37.095L19.1911 37.085ZM22.9611 36.385C22.7211 36.385 22.5111 36.215 22.4711 35.975C22.4211 35.705 22.6011 35.445 22.8711 35.395L25.8211 34.845C26.1011 34.795 26.3511 34.975 26.4011 35.245C26.4511 35.515 26.2711 35.775 26.0011 35.825L23.0511 36.375C23.0511 36.375 22.9911 36.375 22.9611 36.375V36.385ZM28.8511 35.285C28.6111 35.285 28.4011 35.115 28.3611 34.875C28.3111 34.605 28.4911 34.345 28.7611 34.295L31.7111 33.745C31.9811 33.695 32.2411 33.875 32.2911 34.145C32.3411 34.415 32.1611 34.675 31.8911 34.725L28.9411 35.275C28.9411 35.275 28.8811 35.275 28.8511 35.275V35.285ZM34.7511 34.175C34.5111 34.175 34.3011 34.005 34.2611 33.765C34.2111 33.495 34.3911 33.235 34.6611 33.185L37.6111 32.635C37.8811 32.585 38.1411 32.765 38.1911 33.035C38.2411 33.305 38.0611 33.565 37.7911 33.615L34.8411 34.165C34.8411 34.165 34.7811 34.165 34.7511 34.165V34.175ZM40.6511 33.075C40.4111 33.075 40.2011 32.905 40.1611 32.665C40.1111 32.395 40.2911 32.135 40.5611 32.085L42.2911 31.765C42.5211 31.735 42.6411 31.555 42.6511 31.395C42.6511 31.115 42.9011 30.935 43.1711 30.915C43.4511 30.915 43.6611 31.155 43.6511 31.435C43.6311 32.115 43.1211 32.675 42.4511 32.755L40.7511 33.075C40.7511 33.075 40.6911 33.075 40.6611 33.075H40.6511ZM17.2811 32.555C17.0611 32.555 16.8611 32.405 16.8011 32.185L16.0111 29.295C15.9411 29.025 16.0911 28.755 16.3611 28.685C16.6311 28.615 16.9011 28.765 16.9711 29.035L17.7611 31.925C17.8311 32.195 17.6811 32.465 17.4111 32.535C17.3711 32.545 17.3211 32.555 17.2811 32.555ZM42.2211 29.055C42.0111 29.055 41.8211 28.925 41.7511 28.715L40.7711 25.885C40.6811 25.625 40.8211 25.335 41.0811 25.245C41.3411 25.155 41.6311 25.295 41.7211 25.555L42.7011 28.385C42.7911 28.645 42.6511 28.935 42.3911 29.025C42.3411 29.045 42.2811 29.055 42.2311 29.055H42.2211ZM15.7011 26.765C15.4811 26.765 15.2811 26.615 15.2211 26.395L14.4311 23.505C14.3611 23.235 14.5111 22.965 14.7811 22.895C15.0511 22.825 15.3211 22.975 15.3911 23.245L16.1811 26.135C16.2511 26.405 16.1011 26.675 15.8311 26.745C15.7911 26.755 15.7411 26.765 15.7011 26.765ZM40.2611 23.385C40.0511 23.385 39.8611 23.255 39.7911 23.045L38.8111 20.205C38.7211 19.945 38.8611 19.655 39.1211 19.565C39.3811 19.475 39.6711 19.615 39.7611 19.875L40.7411 22.715C40.8311 22.975 40.6911 23.265 40.4311 23.355C40.3811 23.375 40.3211 23.385 40.2711 23.385H40.2611ZM14.1111 20.975C13.8911 20.975 13.6911 20.825 13.6311 20.605L12.8411 17.715C12.7711 17.445 12.9211 17.175 13.1911 17.105C13.4611 17.035 13.7311 17.185 13.8011 17.455L14.5911 20.345C14.6611 20.615 14.5111 20.885 14.2411 20.955C14.2011 20.965 14.1511 20.975 14.1111 20.975ZM38.3011 17.715C38.0911 17.715 37.9011 17.585 37.8311 17.375L36.8511 14.535C36.7611 14.275 36.9011 13.985 37.1611 13.895C37.4211 13.805 37.7111 13.945 37.8011 14.205L38.7811 17.045C38.8711 17.305 38.7311 17.595 38.4711 17.685C38.4211 17.705 38.3611 17.715 38.3111 17.715H38.3011ZM12.5311 15.195C12.3111 15.195 12.1111 15.045 12.0511 14.825L11.2611 11.935C11.1911 11.665 11.3411 11.395 11.6111 11.325C11.8811 11.255 12.1511 11.405 12.2211 11.675L13.0111 14.565C13.0811 14.835 12.9311 15.105 12.6611 15.175C12.6211 15.185 12.5711 15.195 12.5311 15.195ZM36.3411 12.045C36.1311 12.045 35.9411 11.915 35.8711 11.705L34.8911 8.86504C34.8011 8.60504 34.9411 8.31504 35.2011 8.22504C35.4611 8.13504 35.7511 8.27504 35.8411 8.53504L36.8211 11.375C36.9111 11.635 36.7711 11.925 36.5111 12.015C36.4611 12.035 36.4011 12.045 36.3511 12.045H36.3411ZM10.9411 9.40504C10.7211 9.40504 10.5211 9.25504 10.4611 9.03504L9.67109 6.14504C9.64109 6.02504 9.62109 5.90504 9.62109 5.77504C9.62109 5.04504 10.1911 4.44504 10.9111 4.39504L12.2411 4.28504C12.5211 4.25504 12.7611 4.46504 12.7811 4.74504C12.8011 5.02504 12.6011 5.26504 12.3211 5.28504L10.9811 5.39504C10.7511 5.40504 10.6211 5.59504 10.6211 5.77504C10.6211 5.80504 10.6211 5.84504 10.6311 5.87504L11.4211 8.76504C11.4911 9.03504 11.3411 9.30504 11.0711 9.37504C11.0311 9.38504 10.9811 9.39504 10.9411 9.39504V9.40504ZM34.3811 6.36504C34.1711 6.36504 33.9811 6.23504 33.9111 6.02504L33.1511 3.82504C33.1211 3.73504 33.0511 3.65504 32.9711 3.61504C32.7211 3.48504 32.6311 3.18504 32.7611 2.94504C32.8911 2.69504 33.1911 2.60504 33.4311 2.73504C33.7411 2.89504 33.9811 3.17504 34.1011 3.50504L34.8611 5.71504C34.9511 5.97504 34.8111 6.26504 34.5511 6.35504C34.5011 6.37504 34.4411 6.38504 34.3911 6.38504L34.3811 6.36504ZM15.2711 5.03504C15.0111 5.03504 14.7911 4.83504 14.7711 4.57504C14.7511 4.30504 14.9511 4.05504 15.2311 4.03504L18.2211 3.78504C18.5011 3.75504 18.7411 3.96504 18.7611 4.24504C18.7811 4.51504 18.5811 4.76504 18.3011 4.78504L15.3111 5.03504C15.3111 5.03504 15.2811 5.03504 15.2711 5.03504ZM21.2511 4.53504C20.9911 4.53504 20.7711 4.33504 20.7511 4.07504C20.7311 3.79504 20.9311 3.55504 21.2111 3.53504L24.2011 3.28504C24.4911 3.25504 24.7211 3.46504 24.7411 3.74504C24.7611 4.02504 24.5611 4.26504 24.2811 4.28504L21.2911 4.53504C21.2911 4.53504 21.2611 4.53504 21.2511 4.53504ZM27.2311 4.03504C26.9711 4.03504 26.7511 3.83504 26.7311 3.57504C26.7111 3.30504 26.9111 3.05504 27.1911 3.03504L30.1811 2.78504C30.4611 2.75504 30.7011 2.96504 30.7211 3.24504C30.7411 3.51504 30.5411 3.76504 30.2611 3.78504L27.2711 4.03504C27.2711 4.03504 27.2411 4.03504 27.2311 4.03504Z" fill="#00144A"/>
<path d="M24.5375 12.4748C20.904 12.8725 18.7348 16.036 19.7742 19.5791C20.8407 23.1854 24.7725 25.7072 28.4873 25.1558C32.1117 24.6135 34.0641 21.3416 32.9342 17.8889C31.8225 14.4904 28.0986 12.0862 24.5375 12.4748ZM28.0173 22.5256C27.9269 22.6793 27.7733 22.7697 27.5654 22.7968C27.3575 22.8239 27.1586 22.7877 26.9779 22.6702C26.8061 22.5527 26.6796 22.3991 26.6163 22.1912C26.5531 21.9833 26.5711 21.8116 26.6706 21.667C26.77 21.5133 26.9236 21.4229 27.1315 21.3958C27.3484 21.3687 27.5292 21.4049 27.71 21.5224C27.8817 21.6399 27.9992 21.7935 28.0625 21.9924C28.1258 22.1912 28.1166 22.381 28.0262 22.5347L28.0173 22.5256ZM28.7042 17.5544C28.6589 17.8346 28.5686 18.0696 28.442 18.2775C28.3064 18.4764 28.1258 18.7023 27.8998 18.9464C27.719 19.1543 27.5925 19.326 27.5021 19.4525C27.4117 19.5791 27.3575 19.7418 27.3213 19.9225C27.2852 20.1033 27.3033 20.3112 27.3665 20.5372L26.3542 20.6727C26.2548 20.3293 26.2277 20.031 26.2729 19.7689C26.3181 19.5068 26.3994 19.2898 26.5079 19.1091C26.6254 18.9283 26.7881 18.7204 26.9959 18.4854C27.0773 18.386 27.1134 18.3498 27.1134 18.3589C27.2671 18.1871 27.3936 18.0245 27.484 17.8889C27.5744 17.7443 27.6286 17.5816 27.6558 17.4008C27.6829 17.22 27.6558 17.0121 27.5834 16.7771C27.4931 16.4969 27.3484 16.2619 27.1406 16.0812C26.9327 15.8914 26.6977 15.7648 26.4265 15.6835C26.1554 15.6021 25.8752 15.5841 25.5859 15.6202C25.134 15.6744 24.7815 15.8191 24.5465 16.0631C24.3115 16.3071 24.1307 16.6325 24.0132 17.0573L23.01 16.6777C23.1094 16.1535 23.3534 15.7287 23.7421 15.3852C24.1217 15.0417 24.6459 14.8339 25.3057 14.7616C25.8209 14.6983 26.309 14.7344 26.7609 14.861C27.2129 14.9875 27.6015 15.2044 27.9179 15.5117C28.2433 15.8191 28.4692 16.1806 28.6048 16.6235C28.7133 16.976 28.7494 17.2923 28.7042 17.5725V17.5544Z" fill="#00144A"/>
</g>
</g>
</g>
<defs>
<clipPath id="clip0_4211_40787">
<rect width="45" height="45" fill="white"/>
</clipPath>
<clipPath id="clip1_4211_40787">
<rect width="45" height="45" fill="white" transform="translate(0.5 0.5)"/>
</clipPath>
</defs>
</svg>
