<svg width="352" height="243" viewBox="0 0 352 243" fill="none" xmlns="http://www.w3.org/2000/svg">
<path d="M333.547 20H42.4533C40.5559 19.9983 38.6768 20.3705 36.9233 21.0954C35.1698 21.8203 33.5764 22.8836 32.2341 24.2247C30.8918 25.5657 29.827 27.1582 29.1005 28.911C28.3739 30.6638 28 32.5426 28 34.44V205.547C28 209.38 29.5228 213.056 32.2333 215.767C34.9438 218.477 38.6201 220 42.4533 220H333.547C337.38 220 341.056 218.477 343.767 215.767C346.477 213.056 348 209.38 348 205.547V34.44C348 32.5426 347.626 30.6638 346.9 28.911C346.173 27.1582 345.108 25.5657 343.766 24.2247C342.424 22.8836 340.83 21.8203 339.077 21.0954C337.323 20.3705 335.444 19.9983 333.547 20Z" fill="#223548"/>
<path d="M94.1172 175.662L91.8166 179.811L103.842 158.309L99.9526 165.236L94.1172 175.662Z" fill="#3B5B7C"/>
<path fill-rule="evenodd" clip-rule="evenodd" d="M28.0285 187.494L69.4846 208.389C70.7353 209.018 72.1705 209.175 73.5272 208.832C72.839 208.932 72.1373 208.885 71.4686 208.693C70.7999 208.501 70.1796 208.17 69.6486 207.72L66.2364 204.869L32.8895 187.168C32.7582 187.099 32.6419 187.005 32.5476 186.891C32.4533 186.776 32.3828 186.644 32.3403 186.502C32.2979 186.36 32.2843 186.211 32.3004 186.064C32.3164 185.916 32.3618 185.774 32.4338 185.644L33.2989 184.081L29.1031 181.862C28.9718 181.792 28.8557 181.696 28.7615 181.581C28.6674 181.465 28.5971 181.332 28.5546 181.19C28.5122 181.047 28.4985 180.897 28.5144 180.749C28.5302 180.601 28.5752 180.458 28.6468 180.327L29.8923 178.085L28.0248 177.005L28.0285 187.494ZM28.0209 166.119L28.0219 168.795L43.8325 142.738L42.9711 139.135L28.0209 166.119Z" fill="#3B5B7C"/>
<path d="M32.428 185.639C32.356 185.768 32.3106 185.911 32.2945 186.058C32.2785 186.205 32.292 186.354 32.3345 186.496C32.377 186.638 32.4474 186.771 32.5418 186.885C32.6361 186.999 32.7524 187.094 32.8837 187.162L66.2357 204.857L55.3793 195.789L33.2982 184.07L32.428 185.639Z" fill="#2A4259"/>
<path d="M29.869 178.064L28.6235 180.306C28.5519 180.436 28.5068 180.58 28.491 180.728C28.4751 180.876 28.4888 181.025 28.5313 181.168C28.5737 181.311 28.644 181.444 28.7382 181.559C28.8323 181.675 28.9484 181.77 29.0797 181.841L33.2755 184.06L55.3566 195.779L43.7838 186.109L29.869 178.064Z" fill="#324E6B"/>
<path fill-rule="evenodd" clip-rule="evenodd" d="M28.0244 176.997L29.8693 178.065L43.8011 186.125L33.7393 177.708C32.8359 176.956 32.2229 175.913 32.0059 174.759C31.7889 173.604 31.9816 172.41 32.5507 171.383L44.7273 149.397C45.0333 148.855 45.1218 148.217 44.9749 147.613L43.8095 142.717L28.0215 168.712L28.0244 176.997Z" fill="#2A4259"/>
<path d="M59.4197 98.8916L41.1423 131.819C40.8394 132.371 40.751 133.015 40.8943 133.626L42.2297 139.037L43.0921 142.674L44.2588 147.616C44.4059 148.226 44.3152 148.871 44.0051 149.418L31.6666 171.649C31.09 172.688 30.893 173.894 31.1097 175.06C31.3265 176.226 31.9433 177.278 32.8538 178.035L42.9954 186.516L54.66 196.259L65.6025 205.396L69.0417 208.269C69.606 208.738 70.2668 209.076 70.9773 209.259C71.6879 209.443 72.4306 209.467 73.1529 209.331C73.8751 209.195 74.5591 208.902 75.1563 208.472C75.7534 208.042 76.2491 207.487 76.6081 206.844L91.4858 180.052L93.7955 175.869L99.7084 165.327L103.644 158.328L114.543 138.914C114.795 138.471 114.88 137.952 114.78 137.453C114.68 136.954 114.404 136.508 114.001 136.198L64.7248 97.8161C64.3219 97.4966 63.8539 97.269 63.3534 97.1493C62.8529 97.0296 62.332 97.0206 61.8269 97.123C61.3219 97.2254 60.8448 97.4367 60.4291 97.7422C60.0133 98.0476 59.6689 98.4398 59.4197 98.8916Z" fill="#324E6B"/>
<path d="M308.995 31.9917C306.211 41.1984 302.244 51.4681 295.447 48.6487C286.927 45.1113 290.309 36.6714 293.105 27.4372C295.901 18.203 299.509 11.0146 306.137 13.009C312.359 14.8702 311.79 22.7441 308.995 31.9917Z" fill="#3B5B7C"/>
<path d="M317.464 25.7409C321.807 23.5149 324.341 19.7262 323.123 17.2787C321.905 14.8312 317.396 14.6516 313.052 16.8776C308.709 19.1037 306.175 22.8923 307.393 25.3399C308.611 27.7874 313.12 27.967 317.464 25.7409Z" fill="#3B5B7C"/>
<path d="M318.545 46.5878C316.399 51.6441 312.31 54.7198 309.39 53.5131C302.256 50.5639 305.438 47.0575 308.009 42.117C310.58 37.1765 314.227 34.0236 317.164 35.1918C322.551 37.3283 320.702 41.5041 318.545 46.5878Z" fill="#3B5B7C"/>
<path d="M316.122 63.121L277.044 46.5389C276.582 46.3427 276.046 46.5629 275.847 47.0309L264.517 73.7316C264.319 74.1995 264.533 74.7379 264.995 74.9341L304.073 91.5163C304.535 91.7125 305.071 91.4922 305.27 91.0243L316.6 64.3236C316.798 63.8556 316.585 63.3172 316.122 63.121Z" fill="#324E6B"/>
<path d="M318.112 58.3554L279.094 41.7986C278.632 41.6024 278.096 41.8227 277.897 42.2907L273.83 51.8749C273.632 52.3429 273.846 52.8813 274.308 53.0775L313.326 69.6343C313.789 69.8305 314.324 69.6102 314.523 69.1423L318.59 59.558C318.788 59.09 318.575 58.5516 318.112 58.3554Z" fill="#3B5B7C"/>
<path d="M322.038 55.6798L278.606 37.2498C278.143 37.0536 277.608 37.2739 277.409 37.7418L272.952 48.2449C272.754 48.7129 272.967 49.2513 273.43 49.4475L316.862 67.8775C317.325 68.0737 317.861 67.8534 318.059 67.3855L322.516 56.8823C322.715 56.4144 322.501 55.876 322.038 55.6798Z" fill="#324E6B"/>
<path d="M125.051 11.173C124.686 11.5984 124.443 12.1145 124.348 12.667C124.253 13.2194 124.311 13.7878 124.514 14.3123L129.023 26.911C129.768 28.995 131.9 29.5148 133.543 28.9444C134.223 28.7354 134.816 28.3123 135.232 27.7386C135.648 27.165 135.864 26.4719 135.848 25.7634C135.83 25.4213 135.76 25.0835 135.64 24.7616L131.131 12.1629C130.945 11.6062 130.611 11.109 130.164 10.724C129.717 10.3389 129.174 10.0802 128.593 9.97541C127.947 9.85859 127.283 9.90726 126.663 10.1168C126.043 10.3264 125.488 10.69 125.051 11.173Z" fill="white"/>
<path d="M81.4453 69.1044C81.3819 69.5005 81.4025 69.9058 81.5057 70.2946C81.6089 70.6833 81.7925 71.0468 82.0448 71.362C82.2972 71.6772 82.6126 71.937 82.9711 72.125C83.3295 72.313 83.7231 72.425 84.1267 72.4538L97.1438 73.9787C97.612 74.0319 98.0856 73.9921 98.5371 73.8616C98.9886 73.7311 99.4088 73.5124 99.7733 73.2184C100.138 72.9244 100.439 72.561 100.66 72.1493C100.88 71.7376 101.016 71.286 101.059 70.8207C101.082 70.6294 101.089 70.4364 101.08 70.2437C101.057 69.5314 100.767 68.8518 100.266 68.3387C99.7649 67.8257 99.0893 67.5165 98.3726 67.4721L85.3611 65.9511C84.893 65.8971 84.4194 65.9362 83.9678 66.0661C83.5163 66.196 83.0959 66.4142 82.7313 66.7078C82.3666 67.0014 82.0651 67.3646 81.8443 67.7761C81.6235 68.1877 81.4879 68.6393 81.4453 69.1044Z" fill="white"/>
<path d="M92.703 34.4529C92.7496 34.8893 92.8855 35.3121 93.1021 35.6956C93.3187 36.079 93.6117 36.415 93.9629 36.6831L109.6 48.8636C110.304 49.406 111.191 49.6584 112.075 49.568C112.958 49.4775 113.771 49.0513 114.342 48.3784C114.869 47.7521 115.139 46.9507 115.097 46.1331C115.073 45.6619 114.946 45.2009 114.726 44.7816C114.506 44.3622 114.197 43.9944 113.822 43.7031L98.1853 31.5225C97.4775 30.9766 96.5855 30.723 95.6969 30.8151C94.8083 30.9071 93.9923 31.3377 93.4203 32.0163C93.1413 32.3527 92.9339 32.7418 92.8106 33.1605C92.6874 33.5792 92.6508 34.0188 92.703 34.4529Z" fill="white"/>
<path d="M314.442 132.192L311.005 128.711L301.443 138.16L304.88 141.641L314.442 132.192Z" fill="#324E6B"/>
<path d="M235.362 187.944L268.697 232.462C270.112 234.353 272.791 234.737 274.68 233.322L339.413 184.821C341.302 183.406 341.686 180.726 340.271 178.836L306.936 134.318C305.52 132.428 302.842 132.043 300.953 133.458L236.22 181.959C234.33 183.374 233.946 186.054 235.362 187.944Z" fill="#324E6B"/>
<path d="M319.394 144.623L316.597 140.609L305.571 148.3L308.369 152.313L319.394 144.623Z" fill="#324E6B"/>
<path d="M233.931 186.017L267.412 230.255C268.834 232.134 271.508 232.504 273.385 231.082L337.711 182.369C339.588 180.947 339.957 178.272 338.536 176.394L305.054 132.156C303.633 130.277 300.959 129.907 299.081 131.329L234.756 180.042C232.879 181.464 232.509 184.139 233.931 186.017Z" fill="#2A4259"/>
<path d="M318.969 178.699L299.256 152.652L289.986 159.673L309.699 185.719L318.969 178.699Z" fill="#223548"/>
<path fill-rule="evenodd" clip-rule="evenodd" d="M124.854 65.6337C126.452 58.6138 151.741 48.9064 183.639 43.3302C215.538 37.754 242.621 38.3063 246.505 44.368L246.747 44.3256C267.185 57.6055 282.258 79.0096 286.784 104.902C291.986 134.663 282.07 163.573 262.563 183.769C257.417 189.096 250.407 192.054 243.111 193.33L178.585 204.61C171.289 205.885 163.691 205.48 157.043 202.215C131.841 189.834 112.705 166.003 107.502 136.242C102.976 110.35 109.894 85.1015 124.614 65.6757L124.854 65.6337Z" fill="#2A4259"/>
<path fill-rule="evenodd" clip-rule="evenodd" d="M161.398 204.289C167.601 206.812 174.502 207.045 181.152 205.883L245.679 194.603C252.975 193.327 259.985 190.369 265.131 185.042C284.638 164.846 294.554 135.936 289.352 106.175C284.825 80.2826 269.753 58.8784 249.315 45.5985L249.073 45.6409C247.706 43.5085 243.469 42.0579 237.162 41.316C238.542 41.9427 239.525 42.6768 240.063 43.5166L240.305 43.4743C260.743 56.7542 275.816 78.1583 280.342 104.05C285.545 133.812 275.628 162.722 256.121 182.918C250.975 188.245 243.965 191.203 236.669 192.479L172.143 203.758C168.585 204.38 164.955 204.603 161.398 204.289Z" fill="#3B5B7C"/>
<path fill-rule="evenodd" clip-rule="evenodd" d="M267.996 83.0896C259.485 80.7835 243.917 79.9211 228.455 85.7231C201.014 96.0198 146.339 115.87 127.923 115.858C124.134 115.856 120.13 115.747 116.15 115.572C115.493 122.613 115.751 129.857 117.027 137.158C121.439 162.394 137.057 182.861 157.878 194.347C165.904 198.774 175.368 199.191 184.397 197.612L234.444 188.864C243.473 187.285 252.235 183.683 258.282 176.795C273.973 158.926 281.721 134.375 277.309 109.139C275.662 99.7181 272.454 90.962 267.996 83.0896Z" fill="#324E6B"/>
<path fill-rule="evenodd" clip-rule="evenodd" d="M268.187 83.4325C267.983 83.5544 267.779 83.6762 267.574 83.7979C259.96 91.5908 240.566 101.232 216.168 100.828C179.805 100.226 141.29 100.618 116.993 109.235C115.427 118.231 115.362 127.645 117.025 137.157C121.437 162.393 137.054 182.86 157.876 194.346C165.902 198.773 175.366 199.19 184.395 197.611L234.442 188.863C243.471 187.284 252.233 183.682 258.28 176.794C273.971 158.926 281.718 134.374 277.307 109.138C275.684 99.8542 272.545 91.2158 268.187 83.4325Z" fill="#3B5B7C"/>
<path fill-rule="evenodd" clip-rule="evenodd" d="M267.44 164.093L266.272 163.998C261.066 165.476 252.152 165.531 241.049 165.599C226.75 165.687 208.821 165.797 190.506 168.999C170.497 172.497 149.899 180.879 147.357 187.438C150.679 190.006 154.197 192.317 157.877 194.347C165.902 198.774 175.367 199.191 184.396 197.612L234.443 188.864C243.471 187.285 252.233 183.683 258.281 176.795C261.734 172.863 264.802 168.608 267.44 164.093Z" fill="#F58B00"/>
<path fill-rule="evenodd" clip-rule="evenodd" d="M208.365 183.721L250.748 176.312L238.341 134.968L204.441 140.894L208.365 183.721Z" fill="#0070F3"/>
<path fill-rule="evenodd" clip-rule="evenodd" d="M195.723 185.932L230.456 179.86L218.049 138.516L191.798 143.105L195.723 185.932Z" fill="#4098FF"/>
<path fill-rule="evenodd" clip-rule="evenodd" d="M207.097 157.021C202.869 157.76 199.744 162.062 200.12 166.63L201.206 182.579L218.903 179.486L215.433 163.953C214.636 159.393 211.325 156.282 207.097 157.021Z" fill="#688FB7"/>
<path fill-rule="evenodd" clip-rule="evenodd" d="M208.777 156.927C205.422 158.35 203.133 162.098 203.458 166.045L204.544 181.994L218.901 179.485L218.901 179.485L201.205 182.578L200.118 166.629C199.742 162.061 202.867 157.759 207.095 157.02C207.674 156.919 208.236 156.89 208.777 156.927Z" fill="#0070F3"/>
<path fill-rule="evenodd" clip-rule="evenodd" d="M181.311 157.157C177.294 164.056 188.203 177.852 184.172 187.554C174.65 173.008 181.365 152.264 175.353 139.854C172.93 135.457 166.274 138.672 169.065 143.278C174.662 152.51 171.559 169.577 177.09 181.452C173.65 176.403 171.327 171.786 170.796 166.065C170.772 162.626 165.414 162.873 165.268 167.949C165.49 177.207 172.791 184.266 179.76 188.717L182.071 188.313L184.022 187.972L184.382 187.909L186.785 187.489C191.595 179.203 186.251 166.095 186.947 160.353C188.176 154.767 183.634 154.172 181.311 157.157Z" fill="#00A58A"/>
<path fill-rule="evenodd" clip-rule="evenodd" d="M229.162 119.382L227.971 119.59L226.982 113.936L219.05 115.323L220.038 120.977L212.347 122.321L211.358 116.667L203.428 118.054L204.417 123.707L196.74 125.049L195.752 119.395L187.232 120.885L191.202 143.594L232.143 136.437L229.162 119.382Z" fill="#0070F3"/>
<path fill-rule="evenodd" clip-rule="evenodd" d="M238.387 111.943L242.356 134.652L186.412 144.432L182.442 121.723L190.962 120.233L191.95 125.887L199.627 124.545L198.638 118.891L206.568 117.505L207.557 123.159L215.248 121.815L214.26 116.161L222.192 114.774L223.181 120.428L230.856 119.086L229.867 113.432L238.387 111.943Z" fill="#4098FF"/>
<path fill-rule="evenodd" clip-rule="evenodd" d="M222.241 138.168L218.272 115.459L222.192 114.774L223.18 120.428L230.855 119.086L229.867 113.432L238.386 111.943L242.356 134.652L222.241 138.168Z" fill="#0070F3"/>
<path fill-rule="evenodd" clip-rule="evenodd" d="M268.948 161.401C255.644 161.443 240.302 166.895 223.544 172.851C200.793 180.937 175.432 189.95 149.013 187.613C148.465 187.565 147.935 187.523 147.422 187.485C150.726 190.034 154.222 192.329 157.88 194.346C165.905 198.773 175.37 199.19 184.399 197.612L234.446 188.863C243.474 187.285 252.236 183.682 258.284 176.795C262.415 172.09 265.995 166.922 268.948 161.401Z" fill="#CC7400"/>
<ellipse cx="185.026" cy="52.2514" rx="47.7783" ry="4.52683" transform="rotate(-9.91566 185.026 52.2514)" fill="#3B5B7C"/>
<path fill-rule="evenodd" clip-rule="evenodd" d="M165.971 120.041C166.458 122.824 164.594 125.477 161.807 125.964C159.021 126.451 156.368 124.588 155.881 121.805C155.395 119.021 157.258 116.369 160.045 115.882C162.832 115.395 165.485 117.257 165.971 120.041Z" fill="#2A4259"/>
<path fill-rule="evenodd" clip-rule="evenodd" d="M157.858 145.692C158.118 147.178 157.123 148.595 155.635 148.855C154.148 149.115 152.73 148.12 152.471 146.633C152.211 145.147 153.207 143.73 154.694 143.47C156.182 143.21 157.598 144.205 157.858 145.692Z" fill="#2A4259"/>
<path fill-rule="evenodd" clip-rule="evenodd" d="M262.635 110.588C262.885 112.019 261.927 113.381 260.496 113.631C259.065 113.881 257.702 112.925 257.452 111.494C257.202 110.064 258.16 108.704 259.591 108.453C261.022 108.203 262.385 109.158 262.635 110.588Z" fill="#2A4259"/>
<path d="M133.027 157.617C140.159 174.878 156.037 186.588 163.875 190.073C165.154 190.641 166.608 190.385 167.748 189.574C169.496 188.33 169.295 185.388 167.637 184.028C160.618 178.271 150.502 165.056 144.898 150.673C143.861 148.011 140.369 147.14 138.36 149.17L133.834 153.743C132.822 154.767 132.477 156.286 133.027 157.617Z" fill="#CEDBE8"/>
<path d="M137.744 140.794L132.831 145.187C131.311 146.546 128.947 146.402 127.799 144.716C123.905 139.002 123.064 133.748 122.958 130.738C122.9 129.09 123.978 127.708 125.492 127.055L131.154 124.614C134.219 123.292 137.695 125.383 138.146 128.691C138.438 130.833 138.821 133.171 139.305 135.204C139.783 137.213 139.283 139.418 137.744 140.794Z" fill="#CEDBE8"/>
<path d="M255.816 69.3577C251.989 62.3352 245.099 56.1097 237.777 52.0135C236.329 51.2037 234.566 51.2755 233.126 52.1015L228.455 54.7827C225.818 56.2962 226.09 60.1548 228.861 61.4037C235.125 64.2269 243.829 68.7953 248.705 74.4056C250.197 76.1221 252.928 76.6376 254.626 75.1232C256.274 73.6538 256.871 71.2952 255.816 69.3577Z" fill="#CEDBE8"/>
<path fill-rule="evenodd" clip-rule="evenodd" d="M161.185 177.584C157.578 179.163 154.471 180.816 152.099 182.458C156.581 186.131 160.833 188.722 163.875 190.074C165.154 190.643 166.608 190.387 167.748 189.575C169.495 188.331 169.295 185.389 167.636 184.029C165.673 182.418 163.467 180.224 161.185 177.584Z" fill="#2A4259"/>
</svg>
