<svg width="321" height="240" viewBox="0 0 321 240" fill="none" xmlns="http://www.w3.org/2000/svg">
<path d="M305.711 20.0059H14.6174C12.72 20.0041 10.8408 20.3763 9.08735 21.1012C7.33387 21.8261 5.74044 22.8895 4.39815 24.2305C3.05586 25.5716 1.99103 27.164 1.26452 28.9168C0.538005 30.6696 0.164062 32.5485 0.164063 34.4459V205.553C0.164063 209.386 1.68681 213.062 4.39734 215.773C7.10786 218.483 10.7841 220.006 14.6174 220.006H305.711C309.544 220.006 313.22 218.483 315.931 215.773C318.641 213.062 320.164 209.386 320.164 205.553V34.4459C320.164 32.5485 319.79 30.6696 319.064 28.9168C318.337 27.164 317.272 25.5716 315.93 24.2305C314.588 22.8895 312.994 21.8261 311.241 21.1012C309.487 20.3763 307.608 20.0041 305.711 20.0059Z" fill="#223548"/>
<path d="M209.645 49.017C208.314 48.4117 206.797 48.3594 205.428 48.8714C204.058 49.3835 202.948 50.4181 202.34 51.748L165.468 132.837C164.865 134.169 164.815 135.686 165.329 137.054C165.844 138.423 166.88 139.532 168.211 140.137L225.713 166.284C227.043 166.889 228.559 166.941 229.928 166.428C231.296 165.915 232.405 164.879 233.009 163.549L266.422 90.0685L256.87 70.4909L209.645 49.017Z" fill="#324E6B"/>
<path d="M207.798 44.0873C206.467 43.482 204.95 43.4297 203.58 43.9418C202.211 44.4538 201.1 45.4884 200.493 46.8184L163.62 127.907C163.017 129.239 162.967 130.756 163.482 132.125C163.996 133.493 165.033 134.602 166.364 135.207L223.865 161.354C224.524 161.654 225.235 161.821 225.958 161.845C226.682 161.87 227.402 161.752 228.08 161.498C228.758 161.244 229.378 160.859 229.907 160.365C230.436 159.871 230.862 159.278 231.162 158.619L264.575 85.1388L255.022 65.5612L207.798 44.0873Z" fill="#2A4259"/>
<path d="M249.273 78.1816L263.164 88.2194L264.566 85.1354L249.273 78.1816Z" fill="#3B5B7C"/>
<path d="M249.273 78.1804L264.566 85.1342L255.014 65.5566L249.273 78.1804Z" fill="#324E6B"/>
<path d="M264.92 132.81C257.424 141.21 248.141 150.146 242.255 143.716C234.88 135.653 242.639 128.371 250.162 119.948C257.684 111.524 265.071 105.689 271.181 111.155C276.922 116.274 272.448 124.372 264.92 132.81Z" fill="#3B5B7C"/>
<path d="M277.045 130.424C282.784 130.244 287.353 127.487 287.251 124.267C287.15 121.046 282.416 118.582 276.678 118.762C270.94 118.942 266.37 121.699 266.472 124.919C266.573 128.14 271.307 130.604 277.045 130.424Z" fill="#3B5B7C"/>
<path d="M267.97 153.17C263.193 157.472 257.31 158.685 254.779 155.928C248.597 149.19 253.721 147.061 258.896 143.096C264.07 139.132 269.519 137.613 272.086 140.338C276.799 145.33 272.772 148.844 267.97 153.17Z" fill="#3B5B7C"/>
<path d="M257.264 169.554L223.609 132.191C223.211 131.749 222.529 131.713 222.087 132.112L196.865 154.831C196.423 155.229 196.387 155.91 196.785 156.353L230.441 193.715C230.839 194.157 231.52 194.193 231.962 193.795L257.184 171.075C257.626 170.677 257.662 169.996 257.264 169.554Z" fill="#324E6B"/>
<path d="M261.731 165.483L228.127 128.177C227.729 127.735 227.048 127.7 226.606 128.098L217.552 136.253C217.11 136.651 217.075 137.332 217.473 137.775L251.076 175.08C251.475 175.522 252.156 175.558 252.598 175.16L261.651 167.005C262.094 166.606 262.129 165.925 261.731 165.483Z" fill="#3B5B7C"/>
<path d="M267.245 164.612L229.839 123.086C229.441 122.644 228.76 122.608 228.318 123.006L218.396 131.943C217.954 132.341 217.919 133.022 218.317 133.465L255.722 174.991C256.12 175.433 256.802 175.469 257.244 175.07L267.165 166.133C267.607 165.735 267.643 165.054 267.245 164.612Z" fill="#324E6B"/>
<path d="M97.3023 168.46L93.6126 171.44L112.83 156.038L106.624 160.994L97.3023 168.46Z" fill="#3B5B7C"/>
<path d="M62.5942 188.969L60.5052 185.049L36.2688 156.152C36.173 156.039 36.1008 155.908 36.0564 155.767C36.012 155.625 35.9963 155.477 36.0104 155.329C36.0244 155.182 36.0678 155.039 36.1381 154.908C36.2083 154.778 36.3039 154.663 36.4193 154.57L37.8077 153.447L34.7554 149.818C34.6601 149.704 34.5885 149.572 34.5446 149.43C34.5008 149.287 34.4856 149.138 34.4999 148.99C34.5143 148.842 34.5579 148.698 34.6281 148.567C34.6984 148.436 34.794 148.32 34.9093 148.226L36.9051 146.617L33.6635 142.451C33.5758 142.318 33.5154 142.168 33.4859 142.011C33.4563 141.854 33.4582 141.692 33.4915 141.536C33.5247 141.38 33.5887 141.232 33.6796 141.1C33.7705 140.969 33.8865 140.856 34.021 140.77L63.0973 119.113L63.6532 115.453L26.5787 145.41C26.3509 145.595 26.1628 145.824 26.0256 146.083C25.8883 146.343 25.8048 146.627 25.7799 146.919C25.7551 147.211 25.7894 147.506 25.881 147.784C25.9725 148.063 26.1193 148.32 26.3126 148.541L62.191 189.527C63.1131 190.579 64.3834 191.263 65.7689 191.454C65.0939 191.288 64.4618 190.981 63.9145 190.553C63.3672 190.124 62.9171 189.585 62.5942 188.969Z" fill="#3B5B7C"/>
<path d="M36.4167 154.564C36.3013 154.657 36.2057 154.772 36.1355 154.902C36.0653 155.033 36.0218 155.176 36.0078 155.323C35.9938 155.471 36.0094 155.619 36.0538 155.761C36.0982 155.902 36.1704 156.033 36.2662 156.146L60.5095 185.04L53.8612 172.571L37.812 153.438L36.4167 154.564Z" fill="#2A4259"/>
<path d="M36.892 146.59L34.8962 148.199C34.7808 148.293 34.6852 148.409 34.6149 148.54C34.5447 148.671 34.5011 148.815 34.4867 148.963C34.4724 149.111 34.4876 149.26 34.5314 149.402C34.5753 149.545 34.6469 149.677 34.7422 149.791L37.7945 153.42L53.8437 172.552L46.7578 159.258L36.892 146.59Z" fill="#324E6B"/>
<path d="M33.6504 142.423L36.8921 146.589L46.7677 159.278L40.6105 147.71C40.0561 146.676 39.8802 145.48 40.1131 144.329C40.3459 143.179 40.973 142.145 41.8861 141.407L61.4248 125.614C61.9117 125.228 62.2333 124.67 62.3244 124.055L63.0842 119.085L34.0013 140.728C33.8654 140.815 33.7482 140.928 33.6567 141.061C33.5652 141.194 33.5013 141.344 33.4686 141.502C33.4359 141.66 33.4351 141.823 33.4663 141.981C33.4976 142.139 33.5602 142.29 33.6504 142.423Z" fill="#2A4259"/>
<path d="M94.0095 84.3577L64.7092 107.995C64.2213 108.392 63.8975 108.955 63.8005 109.575L63.0046 115.086L62.4368 118.778L61.6607 123.791C61.5676 124.412 61.2415 124.974 60.7486 125.365L40.9679 141.324C40.0435 142.07 39.4079 143.113 39.1706 144.274C38.9334 145.435 39.1093 146.64 39.6682 147.683L45.8753 159.339L53.0188 172.736L59.721 185.301L61.827 189.252C62.1736 189.897 62.6587 190.458 63.2479 190.894C63.837 191.331 64.5157 191.632 65.2358 191.777C65.9558 191.922 66.6996 191.907 67.4141 191.733C68.1287 191.559 68.7967 191.23 69.3704 190.77L93.2167 171.54L96.9278 168.532L106.365 160.987L112.64 155.982L130.029 142.092C130.429 141.777 130.702 141.327 130.798 140.828C130.893 140.328 130.804 139.811 130.547 139.373L99.3272 85.3513C99.0741 84.9043 98.7261 84.5181 98.3075 84.2195C97.889 83.921 97.4098 83.7173 96.9036 83.6227C96.3973 83.5281 95.876 83.5449 95.3762 83.6718C94.8764 83.7988 94.41 84.0328 94.0095 84.3577Z" fill="#324E6B"/>
<path d="M68.3085 10.8022C68.0001 11.1633 67.7947 11.6008 67.714 12.0687C67.6332 12.5367 67.6801 13.0178 67.8496 13.4613L71.6076 24.1169C72.2283 25.8795 74.0187 26.3144 75.4001 25.8276C75.9727 25.649 76.4719 25.2893 76.8226 24.8026C77.1733 24.316 77.3565 23.7286 77.3448 23.1289C77.3305 22.8393 77.2724 22.5535 77.1727 22.2812L73.4146 11.6257C73.2594 11.1548 72.9797 10.7347 72.6052 10.4097C72.2308 10.0848 71.7754 9.86711 71.2874 9.77976C70.7449 9.68241 70.1865 9.72523 69.6652 9.90416C69.1439 10.0831 68.6769 10.3922 68.3085 10.8022Z" fill="white"/>
<path d="M31.5295 59.9523C31.4753 60.2878 31.4915 60.6309 31.5773 60.9598C31.6631 61.2886 31.8165 61.596 32.0278 61.8622C32.239 62.1285 32.5034 62.3477 32.8042 62.506C33.1049 62.6643 33.4353 62.7581 33.7744 62.7815L44.7079 64.0411C45.1012 64.0851 45.4993 64.0503 45.879 63.9387C46.2586 63.8271 46.6122 63.6409 46.9192 63.3912C47.2261 63.1414 47.4802 62.8329 47.6666 62.4839C47.8531 62.1348 47.9681 61.7521 48.005 61.358C48.0247 61.196 48.0311 61.0326 48.0242 60.8695C48.0071 60.2665 47.7647 59.6918 47.3449 59.2587C46.9251 58.8255 46.3583 58.5654 45.7562 58.5295L34.8272 57.2732C34.4341 57.2286 34.036 57.2628 33.6563 57.3739C33.2766 57.485 32.9228 57.6707 32.6158 57.9202C32.3087 58.1697 32.0545 58.4779 31.8679 58.8268C31.6814 59.1757 31.5664 59.5584 31.5295 59.9523Z" fill="white"/>
<path d="M41.0726 30.589C41.1107 30.9584 41.2238 31.316 41.4049 31.6402C41.586 31.9643 41.8313 32.2481 42.1258 32.4741L55.2347 42.7488C55.8252 43.2064 56.5697 43.4179 57.3125 43.3392C58.0554 43.2605 58.739 42.8977 59.2205 42.3266C59.6649 41.7951 59.8934 41.1159 59.8606 40.4238C59.841 40.025 59.7357 39.635 59.5518 39.2805C59.3679 38.926 59.1097 38.6153 58.7949 38.3696L45.686 28.0949C45.0926 27.6343 44.3438 27.4218 43.5969 27.5019C42.8501 27.582 42.1634 27.9485 41.6811 28.5244C41.4459 28.8099 41.2707 29.1398 41.1661 29.4946C41.0616 29.8494 41.0297 30.2217 41.0726 30.589Z" fill="white"/>
<path d="M124.384 196.845L116.859 203.741L114.595 193.011L124.384 196.845Z" fill="#1782FF"/>
<ellipse cx="168.557" cy="192.919" rx="52.8727" ry="11.2404" transform="rotate(-11.9114 168.557 192.919)" fill="#1782FF"/>
<path d="M208.696 178.985L220.246 181.792L218.011 171.194L208.696 178.985Z" fill="#1782FF"/>
<ellipse cx="166.449" cy="182.925" rx="52.8727" ry="11.2404" transform="rotate(-11.9114 166.449 182.925)" fill="#4098FF"/>
<path fill-rule="evenodd" clip-rule="evenodd" d="M163.505 125.02C172.96 129.805 179.943 134.081 185.18 138.256C190.004 142.111 193.34 145.844 195.813 149.758C199.89 156.365 201.499 163.491 203.303 172.545L203.219 172.563C203.323 172.7 203.392 172.846 203.425 173.001C204.126 176.324 187.948 182.551 167.29 186.908C146.632 191.266 129.317 192.104 128.616 188.781C128.583 188.626 128.587 188.465 128.627 188.297L128.519 188.32C126.601 179.228 125.144 172.069 126.217 164.439C126.846 159.87 128.366 155.113 131.221 149.638C134.306 143.737 138.969 137.007 145.705 128.775C145.717 128.752 145.763 128.69 145.836 128.589C146.193 128.096 147.213 126.69 148.302 124.501C149.171 122.754 148.673 120.4 147.169 119.158C145.323 117.634 143.853 116.779 143.334 116.477C143.226 116.414 143.159 116.375 143.138 116.359C133.683 111.574 126.699 107.299 121.462 103.124C116.638 99.268 113.302 95.5359 110.829 91.6216C106.753 85.0148 105.144 77.8884 103.34 68.8347L178.123 53.0598C180.041 62.1514 181.499 69.3106 180.425 76.9409C179.795 81.5097 178.276 86.2661 175.421 91.7421C172.336 97.6415 167.673 104.373 160.938 112.604C160.926 112.627 160.882 112.688 160.811 112.786C160.447 113.287 159.378 114.758 158.252 117.058C157.443 118.711 157.908 120.913 159.32 122.094C161.24 123.7 162.778 124.594 163.31 124.904C163.417 124.966 163.484 125.004 163.505 125.02Z" fill="#3B5B7C"/>
<path fill-rule="evenodd" clip-rule="evenodd" d="M96.1954 62.081C97.8598 61.7299 99.4936 62.7945 99.8447 64.4589L126.178 189.294C126.529 190.958 125.464 192.592 123.8 192.943C122.135 193.294 120.501 192.23 120.15 190.566L93.8175 65.7303C93.4664 64.0659 94.531 62.4321 96.1954 62.081Z" fill="#0070F3"/>
<path fill-rule="evenodd" clip-rule="evenodd" d="M183.308 43.706C184.972 43.3549 186.606 44.4195 186.957 46.0839L213.29 170.919C213.641 172.583 212.576 174.217 210.912 174.568C209.248 174.919 207.614 173.855 207.263 172.191L180.93 47.3553C180.579 45.6909 181.643 44.0571 183.308 43.706Z" fill="#0070F3"/>
<path d="M94.989 57.4931L87.4643 64.3892L85.2009 53.6592L94.989 57.4931Z" fill="#1782FF"/>
<ellipse cx="139.163" cy="53.5679" rx="52.8727" ry="11.2404" transform="rotate(-11.9114 139.163 53.5679)" fill="#1782FF"/>
<path d="M179.301 39.6331L190.851 42.4402L188.615 31.8424L179.301 39.6331Z" fill="#1782FF"/>
<ellipse cx="137.054" cy="43.5737" rx="52.8727" ry="11.2404" transform="rotate(-11.9114 137.054 43.5737)" fill="#4098FF"/>
<path fill-rule="evenodd" clip-rule="evenodd" d="M199.706 158.065C201.215 162.403 202.225 167.129 203.304 172.546L203.22 172.563C203.324 172.7 203.393 172.846 203.426 173.002C204.127 176.325 187.949 182.552 167.291 186.909C146.633 191.267 129.318 192.105 128.617 188.782C128.584 188.627 128.588 188.465 128.628 188.298L128.52 188.321C127.457 183.282 126.535 178.836 126.108 174.576C133.733 169.487 149.33 160.288 159.728 158.361C169.204 156.605 187.97 157.093 199.706 158.065Z" fill="#B9C1C6"/>
<path d="M199.706 158.065L200.19 157.896L200.081 157.58L199.748 157.553L199.706 158.065ZM203.304 172.546L203.41 173.048L203.907 172.943L203.808 172.445L203.304 172.546ZM203.22 172.563L203.114 172.061L202.323 172.228L202.811 172.873L203.22 172.563ZM128.628 188.298L129.128 188.416L129.314 187.629L128.522 187.796L128.628 188.298ZM128.52 188.321L128.018 188.427L128.123 188.929L128.626 188.823L128.52 188.321ZM126.108 174.576L125.823 174.149L125.566 174.32L125.597 174.627L126.108 174.576ZM159.728 158.361L159.635 157.856L159.728 158.361ZM199.221 158.233C200.717 162.534 201.721 167.228 202.801 172.646L203.808 172.445C202.729 167.031 201.713 162.272 200.19 157.896L199.221 158.233ZM203.198 172.043L203.114 172.061L203.326 173.066L203.41 173.048L203.198 172.043ZM202.811 172.873C202.874 172.956 202.908 173.034 202.924 173.108L203.928 172.896C203.878 172.659 203.774 172.445 203.63 172.253L202.811 172.873ZM202.924 173.108C202.963 173.296 202.903 173.597 202.528 174.045C202.16 174.485 201.554 174.985 200.703 175.532C199.005 176.624 196.441 177.835 193.184 179.088C186.677 181.593 177.496 184.232 167.185 186.407L167.397 187.411C177.744 185.229 186.981 182.576 193.552 180.047C196.834 178.783 199.474 177.543 201.258 176.396C202.148 175.824 202.852 175.258 203.316 174.704C203.772 174.158 204.064 173.538 203.928 172.896L202.924 173.108ZM167.185 186.407C156.874 188.582 147.409 189.876 140.445 190.213C136.959 190.382 134.124 190.31 132.13 189.997C131.13 189.84 130.374 189.628 129.86 189.374C129.336 189.116 129.159 188.864 129.119 188.676L128.115 188.888C128.25 189.53 128.768 189.98 129.406 190.295C130.054 190.614 130.926 190.847 131.971 191.011C134.067 191.34 136.982 191.409 140.495 191.239C147.528 190.898 157.05 189.594 167.397 187.411L167.185 186.407ZM129.119 188.676C129.104 188.602 129.104 188.518 129.128 188.416L128.129 188.18C128.073 188.413 128.065 188.651 128.115 188.888L129.119 188.676ZM128.522 187.796L128.414 187.819L128.626 188.823L128.734 188.8L128.522 187.796ZM129.022 188.215C127.958 183.171 127.043 178.753 126.619 174.525L125.597 174.627C126.028 178.92 126.956 183.392 128.018 188.427L129.022 188.215ZM159.635 157.856C154.358 158.834 147.804 161.645 141.643 164.826C135.47 168.014 129.648 171.596 125.823 174.149L126.393 175.003C130.192 172.467 135.981 168.905 142.114 165.739C148.256 162.567 154.7 159.815 159.822 158.866L159.635 157.856ZM199.748 157.553C188.011 156.582 169.184 156.087 159.635 157.856L159.822 158.866C169.223 157.124 187.929 157.605 199.663 158.576L199.748 157.553Z" fill="#B9C1C6"/>
<path fill-rule="evenodd" clip-rule="evenodd" d="M202.254 167.474C202.61 169.099 202.953 170.787 203.304 172.548L203.221 172.565C203.324 172.702 203.393 172.848 203.426 173.003C204.127 176.327 187.949 182.553 167.291 186.911C146.633 191.268 129.318 192.107 128.617 188.784C128.584 188.629 128.588 188.467 128.628 188.3L128.52 188.323C128.216 186.884 127.924 185.494 127.652 184.143C133.835 178.089 139.587 169.388 144.233 161.205C150.264 150.58 165.156 147.281 175.29 154.106C183.379 159.553 192.99 164.939 202.254 167.474Z" fill="white"/>
<path fill-rule="evenodd" clip-rule="evenodd" d="M198.772 155.598C200.828 160.607 202.016 166.085 203.303 172.544L203.219 172.562C203.323 172.699 203.392 172.845 203.425 173C204.126 176.323 187.947 182.55 167.289 186.907C146.632 191.265 129.317 192.104 128.616 188.78C128.583 188.625 128.587 188.464 128.627 188.297L128.518 188.319C127.467 183.335 126.554 178.931 126.121 174.712C146.104 182.001 162.711 172.642 176.928 164.631C184.904 160.137 192.128 156.066 198.772 155.598Z" fill="#B9C1C6"/>
<path d="M198.772 155.598L199.247 155.403L199.106 155.06L198.736 155.086L198.772 155.598ZM203.303 172.544L203.409 173.046L203.905 172.942L203.806 172.444L203.303 172.544ZM203.219 172.562L203.113 172.06L202.322 172.227L202.81 172.872L203.219 172.562ZM128.627 188.297L129.126 188.415L129.312 187.627L128.521 187.794L128.627 188.297ZM128.518 188.319L128.016 188.425L128.122 188.928L128.624 188.822L128.518 188.319ZM126.121 174.712L126.296 174.23L125.526 173.949L125.61 174.765L126.121 174.712ZM176.928 164.631L176.676 164.184L176.676 164.184L176.928 164.631ZM198.298 155.793C200.332 160.75 201.512 166.182 202.799 172.645L203.806 172.444C202.52 165.988 201.324 160.464 199.247 155.403L198.298 155.793ZM203.197 172.042L203.113 172.06L203.325 173.064L203.409 173.046L203.197 172.042ZM202.81 172.872C202.873 172.955 202.907 173.032 202.922 173.106L203.927 172.894C203.877 172.658 203.773 172.443 203.629 172.252L202.81 172.872ZM202.922 173.106C202.962 173.294 202.901 173.596 202.527 174.044C202.159 174.483 201.553 174.983 200.702 175.53C199.004 176.622 196.439 177.833 193.182 179.087C186.676 181.591 177.494 184.23 167.184 186.405L167.395 187.41C177.743 185.227 186.979 182.574 193.551 180.045C196.833 178.782 199.473 177.541 201.257 176.394C202.146 175.822 202.851 175.256 203.314 174.702C203.771 174.157 204.062 173.536 203.927 172.894L202.922 173.106ZM167.184 186.405C156.873 188.58 147.408 189.874 140.444 190.211C136.958 190.38 134.123 190.308 132.129 189.995C131.129 189.839 130.373 189.626 129.859 189.372C129.335 189.114 129.158 188.863 129.118 188.674L128.113 188.886C128.249 189.529 128.766 189.978 129.404 190.293C130.052 190.613 130.925 190.846 131.97 191.01C134.065 191.338 136.981 191.407 140.494 191.237C147.527 190.896 157.048 189.592 167.395 187.41L167.184 186.405ZM129.118 188.674C129.102 188.601 129.102 188.516 129.126 188.415L128.127 188.178C128.072 188.412 128.064 188.65 128.113 188.886L129.118 188.674ZM128.521 187.794L128.413 187.817L128.624 188.822L128.733 188.799L128.521 187.794ZM129.021 188.213C127.968 183.224 127.061 178.847 126.631 174.66L125.61 174.765C126.047 179.015 126.966 183.445 128.016 188.425L129.021 188.213ZM176.676 164.184C162.432 172.21 146.029 181.427 126.296 174.23L125.945 175.195C146.178 182.574 162.991 173.074 177.18 165.079L176.676 164.184ZM198.736 155.086C195.327 155.326 191.797 156.488 188.139 158.137C184.48 159.786 180.659 161.94 176.676 164.184L177.18 165.079C181.173 162.829 184.952 160.7 188.56 159.073C192.169 157.446 195.573 156.338 198.809 156.11L198.736 155.086Z" fill="#B9C1C6"/>
<path d="M195.699 168.843C192.121 154.783 184.846 147.004 181.144 143.656C180.512 143.085 179.643 142.872 178.81 143.047C177.533 143.317 176.946 144.99 177.625 146.103C180.788 151.286 185.358 162.186 187.097 170.698C187.51 172.721 189.649 174.022 191.567 173.256L193.881 172.332C195.272 171.776 196.069 170.294 195.699 168.843Z" fill="#2A4259"/>
<path fill-rule="evenodd" clip-rule="evenodd" d="M191.427 157.332C193.068 160.581 194.569 164.398 195.7 168.844C196.07 170.295 195.273 171.778 193.882 172.333L191.568 173.258C189.651 174.024 187.511 172.723 187.098 170.7C186.452 167.535 185.414 164.041 184.203 160.633C186.685 159.34 189.091 158.202 191.427 157.332Z" fill="#223548"/>
<path d="M117.322 91.9475C113.855 88.2137 111.647 84.1372 110.13 78.9596C109.493 76.7831 110.937 74.5951 113.156 74.127L115.155 73.7053C117.49 73.2127 119.73 74.8154 120.322 77.1277C120.963 79.631 122.025 82.6896 123.817 85.7676C125.148 88.0546 124.68 91.1188 122.432 92.5146C120.787 93.5362 118.64 93.3666 117.322 91.9475Z" fill="#223548"/>
</svg>
