<svg width="128" height="128" viewBox="0 0 128 128" fill="none" xmlns="http://www.w3.org/2000/svg">
<path d="M113.903 123.889L77.894 113.05C83.753 108.946 80.155 104.211 69.1579 101.324C56.5735 98.0154 36.6541 97.8223 22.6865 101.09C6.78923 104.814 3.34822 111.805 17.8563 116.449C32.9225 121.269 58.1664 120.763 72.1337 115.829L105.637 127.175L109.712 126.495C110.463 125.609 110.874 126.572 112.048 125.878C114.222 124.423 115.362 123.468 115.001 123.292H113.903V123.889Z" fill="#1B90FF"/>
<path d="M118.792 37.609C121.184 47.3932 117.244 57.4693 112.323 64.6629C107.897 71.1269 100.429 75.6815 90.651 76.8246C69.0847 79.3423 46.0012 64.3162 40.1818 43.9575C34.3626 23.5988 47.1438 4.21901 67.6236 3.29471C87.298 2.4069 112.192 19.5793 118.792 37.609Z" fill="#8D2A00"/>
<path d="M117.349 32.5884C124.211 51.3298 113.858 68.952 93.2035 71.3662C71.6372 73.8837 48.5537 58.8579 42.7345 38.4992C36.9151 18.1403 50.0274 2.95027 70.5134 2.02597C90.1878 1.13816 110.755 14.5647 117.355 32.5884H117.349Z" fill="#C35500"/>
<path d="M112.748 32.9527C118.636 49.2557 109.507 64.458 91.6001 66.4584C73.0057 68.532 53.1378 55.5979 48.0366 38.085C43.1163 21.1924 54.1368 7.1942 71.9194 6.31247C89.0899 5.46723 107.06 17.1973 112.754 32.9527H112.748Z" fill="#FFEAF4"/>
<path d="M117.102 124L105.338 127.053L86.6504 68.8894L97.6709 67.6367L117.102 124Z" fill="#C35500"/>
<path d="M47.418 24.956L71.738 6.32422C58.963 7.02352 49.7157 14.503 47.418 24.956Z" fill="#FFEAF4"/>
<path d="M91.5995 66.4579C107.396 64.6945 116.356 52.6606 114.209 38.6562L75.2969 64.6581C80.5728 66.373 86.1425 67.0661 91.5995 66.4579Z" fill="white"/>
<path d="M71.9121 6.31667C72.4179 6.29195 72.9173 6.27961 73.4231 6.27344C72.9173 6.27344 72.4179 6.29195 71.9121 6.31667Z" fill="#FFEAF4"/>
<path d="M88.252 9.10156C88.4081 9.16239 88.5643 9.22319 88.7139 9.28399C88.558 9.22319 88.4081 9.16239 88.252 9.10156Z" fill="#FFEAF4"/>
<path d="M89.6719 9.67578C89.778 9.72442 89.8841 9.77309 89.9905 9.81563C89.8841 9.76699 89.778 9.71836 89.6719 9.67578Z" fill="#FFEAF4"/>
<path d="M86.8184 8.57422C86.9933 8.63505 87.1742 8.69585 87.3491 8.76274C87.1742 8.69585 86.9996 8.63505 86.8184 8.57422Z" fill="#FFEAF4"/>
<path d="M77.0996 6.43359C77.3869 6.45831 77.6739 6.4892 77.9674 6.52627C77.6802 6.49537 77.3929 6.46448 77.0996 6.43359Z" fill="#FFEAF4"/>
<path d="M75.5469 6.32422C75.8467 6.34276 76.1527 6.35511 76.4523 6.37983C76.1527 6.35511 75.8467 6.33656 75.5469 6.32422Z" fill="#FFEAF4"/>
<path d="M78.6309 6.60547C78.9119 6.64253 79.1992 6.6858 79.4802 6.72903C79.1992 6.6858 78.9181 6.64253 78.6309 6.60547Z" fill="#FFEAF4"/>
<path d="M73.9297 6.27344C74.2668 6.27344 74.5976 6.27961 74.9349 6.29198C74.5976 6.27961 74.2605 6.27344 73.9297 6.27344Z" fill="#FFEAF4"/>
<path d="M114.483 41.1863C113.559 23.0773 95.6952 8.59268 77.9627 6.43396C71.7937 5.88061 60.9481 5.88061 53.0746 14.2175C52.188 15.1539 51.3575 16.2485 50.5832 17.4039C50.4521 17.5985 50.3773 17.7322 50.2586 17.9207C50.2399 17.9451 50.2336 17.9755 50.2148 18.0059C59.5495 7.0542 74.4723 6.3549 87.6594 11.4628C101.308 16.7471 113.097 28.2583 114.483 41.1982V41.1863Z" fill="#8D2A00"/>
<path d="M68.8167 8.56119L47.4188 24.9552C46.5384 28.9686 46.6758 33.4138 48.0369 38.0839C48.1492 38.4732 48.2741 38.856 48.4052 39.2392L89.8084 12.3556C83.0275 9.39427 75.6849 7.92269 68.8167 8.56119Z" fill="white"/>
<path d="M82.166 71.1888L88.5782 74.8922C88.5782 74.8922 87.2422 71.6632 91.6377 71.2191V71.1523C89.877 71.4139 86.3306 71.7603 82.166 71.1827V71.1888Z" fill="#8D2A00"/>
<path d="M96.2969 70.5753C97.1897 70.6118 98.7508 71.2562 99.4937 73.1108L100.555 69.7422C100.555 69.7422 99.5748 70.2044 96.2969 70.5692V70.5753Z" fill="#8D2A00"/>
<path d="M105.335 127.057L87.8145 72.5903L88.9946 71.435C88.9946 71.435 91.236 71.3072 93.7838 70.8086C93.7838 70.8086 92.9032 71.7755 93.1592 73.1131C94.1832 78.367 110.842 126.035 110.842 126.035L105.329 127.057H105.335Z" fill="#8D2A00"/>
<path d="M117.1 124.003C117.1 124.635 114.066 125.687 109.102 126.934C106.648 127.414 105.443 127.353 105.337 127.055C105.262 126.843 106.604 126.022 109.04 125.255C112.686 124.143 116.688 123.516 117.1 124.003Z" fill="#8D2A00"/>
<path d="M84.6699 36.9768C86.3182 35.3535 87.8542 33.7053 86.8988 30.8412C85.8375 27.661 82.7405 26.0922 79.1252 26.3354C75.3978 26.5847 73.5808 28.4089 72.5568 30.7257L69.0977 28.4699C70.3339 25.782 72.819 23.5017 78.0264 23.1673C84.2452 22.7659 89.0967 25.5388 90.7325 30.3548C92.0876 34.362 90.2768 36.5695 88.21 38.8195C86.312 40.8628 85.338 41.9391 85.9937 43.9395L86.131 44.353L82.3346 44.6875L82.1972 44.274C81.0173 40.6376 82.8528 38.7585 84.6699 36.983V36.9768ZM85.2194 47.4055C86.7864 47.2658 88.3474 48.2812 88.8344 49.759C89.3217 51.2366 88.5036 52.4955 86.93 52.6474C85.3318 52.7993 83.7832 51.7959 83.2963 50.2758C82.8093 48.7556 83.6271 47.5455 85.2194 47.3997V47.4055Z" fill="#00144A"/>
</svg>
