<svg width="128" height="128" viewBox="0 0 128 128" fill="none" xmlns="http://www.w3.org/2000/svg">
<circle cx="62.5068" cy="36.5059" r="35.5" fill="white"/>
<path d="M62.7969 19.3652C59.3357 19.3652 55.9523 20.3916 53.0744 22.3145C50.1966 24.2374 47.9535 26.9706 46.629 30.1683C45.3045 33.366 44.9579 36.8846 45.6331 40.2793C46.3084 43.674 47.9751 46.7921 50.4225 49.2396C52.8699 51.687 55.9881 53.3537 59.3828 54.0289C62.7774 54.7042 66.2962 54.3576 69.4939 53.0331C72.6916 51.7085 75.4247 49.4656 77.3476 46.5877C79.2705 43.7098 80.2969 40.3264 80.2969 36.8652C80.2811 32.2288 78.4322 27.7868 75.1538 24.5083C71.8753 21.2298 67.4333 19.381 62.7969 19.3652ZM62.7969 47.3652C62.2763 47.3652 61.7674 47.2107 61.3347 46.9213C60.902 46.6318 60.5649 46.2205 60.3661 45.7394C60.1674 45.2582 60.1159 44.7289 60.2182 44.2184C60.3205 43.708 60.5719 43.2394 60.9408 42.872C61.3096 42.5046 61.7791 42.2549 62.2899 42.1545C62.8008 42.0542 63.3299 42.1077 63.8103 42.3083C64.2907 42.5089 64.7007 42.8476 64.9885 43.2814C65.2763 43.7152 65.4289 44.2247 65.4269 44.7452C65.4115 45.437 65.1292 46.096 64.639 46.5844C64.1488 47.0727 63.4887 47.3525 62.7969 47.3652ZM66.2969 37.9152C66.0269 38.0652 65.6369 38.3152 65.2969 38.4852C65.0997 38.5683 64.912 38.6722 64.7369 38.7952L64.5569 38.9652C64.4866 39.3721 64.2697 39.7391 63.9473 39.997C63.6249 40.2549 63.2193 40.3859 62.8069 40.3652C62.5733 40.3799 62.3392 40.3446 62.1203 40.2618C61.9013 40.1791 61.7025 40.0507 61.5369 39.8852C61.3714 39.7197 61.243 39.5208 61.1602 39.3019C61.0775 39.0829 61.0423 38.8489 61.0569 38.6152C61.0569 37.3952 61.6669 36.8652 63.0569 35.6852C63.0569 35.6852 63.4469 35.3952 63.7069 35.2352L64.5569 34.7652C65.7869 34.0652 66.3069 33.5452 66.3069 32.3152C66.3069 30.9152 64.7369 29.6952 62.8069 29.6952C60.8769 29.6952 59.3069 30.9152 59.3069 32.3152C59.3069 32.7794 59.1225 33.2245 58.7943 33.5527C58.4661 33.8809 58.021 34.0652 57.5569 34.0652C57.0928 34.0652 56.6476 33.8809 56.3194 33.5527C55.9912 33.2245 55.8069 32.7794 55.8069 32.3152C55.8069 28.8152 58.9569 26.1952 62.8069 26.1952C66.6569 26.1952 69.8069 28.8152 69.8069 32.3152C69.7969 34.9452 68.5769 36.5352 66.2969 37.9152Z" fill="#004DA5"/>
<path opacity="0.2" d="M76.7871 5.11554L63.3271 0.935547L40.7471 66.3156L54.2171 70.4755L76.7871 5.11554Z" fill="#D5DADD"/>
<path opacity="0.2" d="M59.4769 72.5344L82.4769 7.03436L78.2969 5.73438L55.2969 71.2344L59.4769 72.5344Z" fill="#D5DADD"/>
<path d="M80.4872 68.6045L70.6372 72.5345L76.9272 87.7345L86.7872 83.8545L80.4872 68.6045Z" fill="#D5DADD"/>
<path d="M75.4072 87.2539L90.8972 124.394C91.5226 125.837 92.695 126.974 94.1572 127.554C95.6293 128.149 97.2751 128.149 98.7472 127.554L99.9072 127.094C101.362 126.499 102.525 125.357 103.147 123.914C103.444 123.206 103.597 122.446 103.597 121.679C103.597 120.911 103.444 120.152 103.147 119.444L87.6472 82.2939L75.4072 87.2539Z" fill="#F58B00"/>
<path d="M70.2769 71.6864L71.2769 74.0864C71.2769 74.0864 76.4368 76.3164 81.8268 71.6464L80.1769 67.8164L75.6569 69.9664L70.2769 71.6864Z" fill="#D5DADD"/>
<path d="M62.797 73.7352C55.343 73.7445 48.0471 71.5869 41.797 67.5251C35.6124 63.5178 30.7653 57.755 27.8769 50.9751C25.0169 44.2574 24.2671 36.8289 25.727 29.6752C27.2073 22.4891 30.8091 15.9124 36.067 10.7952C41.3993 5.62277 48.1235 2.11646 55.417 0.705129C62.7472 -0.715265 70.3317 0.014055 77.257 2.80517C84.1354 5.56217 90.0485 10.2857 94.257 16.3851C99.1148 23.4431 101.307 31.9974 100.442 40.5218C99.578 49.0463 95.7129 56.9862 89.537 62.9252C82.3722 69.8743 72.7782 73.7528 62.797 73.7352ZM62.797 3.02514C55.9571 3.01808 49.2624 4.99835 43.527 8.72515C37.8565 12.4109 33.4083 17.6977 30.7469 23.9152C28.1163 30.0825 27.4189 36.903 28.7469 43.4751C30.1032 50.069 33.4095 56.1032 38.237 60.7952C43.1355 65.5548 49.3195 68.7772 56.027 70.0652C62.7405 71.3584 69.6846 70.6883 76.027 68.1351C82.3297 65.604 87.7458 61.2698 91.597 55.6752C96.0571 49.196 98.0711 41.3432 97.2799 33.5172C96.4887 25.6912 92.9437 18.4005 87.277 12.9451C80.7122 6.58886 71.9347 3.03195 62.797 3.02514Z" fill="#00144A"/>
</svg>
