<svg width="321" height="240" viewBox="0 0 321 240" fill="none" xmlns="http://www.w3.org/2000/svg">
<path d="M305.711 20.0059H14.6174C12.72 20.0041 10.8408 20.3763 9.08735 21.1012C7.33387 21.8261 5.74044 22.8895 4.39815 24.2305C3.05586 25.5716 1.99103 27.164 1.26452 28.9168C0.538005 30.6696 0.164062 32.5485 0.164063 34.4459V205.553C0.164063 209.386 1.68681 213.062 4.39734 215.773C7.10786 218.483 10.7841 220.006 14.6174 220.006H305.711C309.544 220.006 313.22 218.483 315.931 215.773C318.641 213.062 320.164 209.386 320.164 205.553V34.4459C320.164 32.5485 319.79 30.6696 319.064 28.9168C318.337 27.164 317.272 25.5716 315.93 24.2305C314.588 22.8895 312.994 21.8261 311.241 21.1012C309.487 20.3763 307.608 20.0041 305.711 20.0059Z" fill="#EBF8FF"/>
<rect x="27.8623" y="202.574" width="231.534" height="17.4263" rx="4" fill="#D1EFFF"/>
<path d="M199.019 206.574C199.019 204.365 200.809 202.574 203.019 202.574H297.906C300.115 202.574 301.906 204.365 301.906 206.574V216C301.906 218.21 300.115 220 297.906 220H203.019C200.809 220 199.019 218.21 199.019 216V206.574Z" fill="#9EDDFF"/>
<rect x="51.3525" y="39.7461" width="28.3814" height="35.9498" rx="3.15349" fill="#D1EFFF"/>
<rect x="53.2446" y="41.6387" width="24.5973" height="32.1656" rx="1.8921" fill="#EBF8FF"/>
<path fill-rule="evenodd" clip-rule="evenodd" d="M76.5811 73.6964V41.7461C77.3155 42.0057 77.8418 42.7058 77.8425 43.529V71.9135C77.8418 72.7367 77.3155 73.4368 76.5811 73.6964Z" fill="#B8E6FF"/>
<path d="M53.2446 58.668C53.2446 58.668 59.5516 58.668 63.6512 64.3443C67.7507 70.0205 70.2735 73.8047 70.2735 73.8047H55.1367C54.0917 73.8047 53.2446 72.9576 53.2446 71.9126V58.668Z" fill="#B8E6FF"/>
<path d="M68.864 67.5942C67.8119 67.3152 66.7801 67.6555 65.6669 68.3056C64.8195 68.8307 63.9996 69.4039 63.211 70.0226C61.8131 71.0754 60.5787 72.3508 59.5518 73.8031H74.0578C71.1514 70.9485 71.0933 68.186 68.864 67.5942Z" fill="#9EDDFF"/>
<path d="M70.4526 58.1585C72.293 58.1585 73.785 56.7191 73.785 54.9435C73.785 53.1679 72.293 51.7285 70.4526 51.7285C68.6121 51.7285 67.1201 53.1679 67.1201 54.9435C67.1201 56.7191 68.6121 58.1585 70.4526 58.1585Z" fill="#D1EFFF"/>
<rect x="22.2764" y="88.6719" width="39.4831" height="50.0119" rx="4.38701" fill="#D1EFFF"/>
<rect x="24.9087" y="91.3047" width="34.2187" height="44.7475" rx="2.63221" fill="#EBF8FF"/>
<path fill-rule="evenodd" clip-rule="evenodd" d="M57.373 135.901V91.4531C58.3954 91.8145 59.1279 92.7895 59.1279 93.9356V133.419C59.1279 134.565 58.3954 135.54 57.373 135.901Z" fill="#B8E6FF"/>
<path d="M42.8106 108.244C43.1622 111.537 43.2847 115.325 40.7812 115.346C37.6428 115.37 37.5805 112.24 37.2289 108.938C36.8773 105.635 37.0521 102.871 39.3929 102.612C41.589 102.365 42.4569 104.937 42.8106 108.244Z" fill="#D1EFFF"/>
<path d="M44.632 105.123C45.6966 103.833 45.9866 102.292 45.2798 101.68C44.5731 101.068 43.1371 101.617 42.0726 102.907C41.008 104.197 40.718 105.738 41.4247 106.35C42.1315 106.962 43.5674 106.413 44.632 105.123Z" fill="#D1EFFF"/>
<path d="M47.7415 111.585C47.7415 113.477 46.8695 115.001 45.7946 115.012C43.1685 115.036 43.6989 113.497 43.8476 111.585C43.9963 109.674 44.7196 108.184 45.7946 108.159C47.7656 108.112 47.7415 109.684 47.7415 111.585Z" fill="#D1EFFF"/>
<path d="M49.1801 117.152H34.7377C34.5668 117.152 34.4282 117.294 34.4282 117.469V127.456C34.4282 127.631 34.5668 127.773 34.7377 127.773H49.1801C49.351 127.773 49.4895 127.631 49.4895 127.456V117.469C49.4895 117.294 49.351 117.152 49.1801 117.152Z" fill="#D1EFFF"/>
<path d="M49.1697 115.373H34.7494C34.5785 115.373 34.4399 115.515 34.4399 115.69V119.275C34.4399 119.45 34.5785 119.591 34.7494 119.591H49.1697C49.3406 119.591 49.4791 119.45 49.4791 119.275V115.69C49.4791 115.515 49.3406 115.373 49.1697 115.373Z" fill="#B8E6FF"/>
<path d="M50.0438 113.996H33.992C33.8211 113.996 33.6826 114.138 33.6826 114.313V118.241C33.6826 118.416 33.8211 118.558 33.992 118.558H50.0438C50.2147 118.558 50.3533 118.416 50.3533 118.241V114.313C50.3533 114.138 50.2147 113.996 50.0438 113.996Z" fill="#D1EFFF"/>
<rect x="90.7153" y="76.0078" width="178.1" height="113.946" rx="12.3835" fill="#005DC9"/>
<rect x="90.7153" y="76.0078" width="138.824" height="113.946" rx="12.3835" fill="#0070F2"/>
<rect x="111.592" y="96.7031" width="101.572" height="77.0582" rx="9.00618" fill="#004DA5"/>
<rect x="109.341" y="94.4512" width="101.572" height="77.0582" rx="9.00618" fill="#B8E6FF"/>
<rect x="105.477" y="104.479" width="8.75772" height="24.4715" rx="4.37886" fill="#005DC9"/>
<rect x="105.477" y="120.736" width="5.83994" height="2.26391" fill="#0070F2"/>
<rect x="105.477" y="137.799" width="8.75772" height="24.4715" rx="4.37886" fill="#005DC9"/>
<rect x="105.477" y="154.057" width="5.83994" height="2.26391" fill="#0070F2"/>
<rect x="193.891" y="107.574" width="9.82573" height="50.812" rx="4.91287" fill="#004DA5"/>
<rect x="193.891" y="107.574" width="7.41016" height="50.812" rx="3.70508" fill="#0070F2"/>
<circle cx="157.218" cy="134.733" r="28.6552" fill="#9EDDFF"/>
<circle cx="154.068" cy="133.583" r="28.6552" fill="#EBF8FF"/>
<circle cx="155.677" cy="134.145" r="18.3779" fill="#CC7400"/>
<circle cx="153.505" cy="133.02" r="18.3779" fill="#F58B00"/>
<circle cx="155.631" cy="134.146" r="7.30378" fill="#CC7400"/>
<circle cx="153.505" cy="133.021" r="7.30378" fill="#D1EFFF"/>
<path fill-rule="evenodd" clip-rule="evenodd" d="M153.84 117.043C154.151 117.043 154.403 117.295 154.403 117.606L154.403 122.75C154.403 123.061 154.151 123.313 153.84 123.313C153.529 123.313 153.277 123.061 153.277 122.75L153.277 117.606C153.277 117.295 153.529 117.043 153.84 117.043Z" fill="#00144A"/>
<path fill-rule="evenodd" clip-rule="evenodd" d="M153.84 142.73C154.151 142.73 154.403 142.982 154.403 143.293L154.403 148.437C154.403 148.748 154.151 149 153.84 149C153.529 149 153.277 148.748 153.277 148.437L153.277 143.293C153.277 142.982 153.529 142.73 153.84 142.73Z" fill="#00144A"/>
<path fill-rule="evenodd" clip-rule="evenodd" d="M169.255 133.584C169.255 133.894 169.003 134.146 168.692 134.146L163.548 134.146C163.237 134.146 162.985 133.894 162.985 133.584C162.985 133.273 163.237 133.021 163.548 133.021L168.692 133.021C169.003 133.021 169.255 133.273 169.255 133.584Z" fill="#00144A"/>
<path fill-rule="evenodd" clip-rule="evenodd" d="M143.569 133.584C143.569 133.894 143.317 134.146 143.006 134.146L137.862 134.146C137.551 134.146 137.299 133.894 137.299 133.584C137.299 133.273 137.551 133.021 137.862 133.021L143.006 133.021C143.317 133.021 143.569 133.273 143.569 133.584Z" fill="#00144A"/>
<path fill-rule="evenodd" clip-rule="evenodd" d="M164.177 144.717C163.957 144.937 163.601 144.937 163.381 144.717L159.743 141.08C159.524 140.86 159.524 140.504 159.743 140.284C159.963 140.064 160.32 140.064 160.539 140.284L164.177 143.921C164.397 144.141 164.397 144.497 164.177 144.717Z" fill="#00144A"/>
<path fill-rule="evenodd" clip-rule="evenodd" d="M146.014 126.553C145.794 126.773 145.438 126.773 145.218 126.553L141.58 122.916C141.361 122.696 141.361 122.34 141.58 122.12C141.8 121.9 142.157 121.9 142.376 122.12L146.014 125.757C146.234 125.977 146.234 126.333 146.014 126.553Z" fill="#00144A"/>
<path fill-rule="evenodd" clip-rule="evenodd" d="M164.973 122.122C165.192 122.341 165.192 122.698 164.973 122.918L161.335 126.555C161.115 126.775 160.759 126.775 160.539 126.555C160.319 126.335 160.319 125.979 160.539 125.759L164.177 122.122C164.396 121.902 164.753 121.902 164.973 122.122Z" fill="#00144A"/>
<path fill-rule="evenodd" clip-rule="evenodd" d="M146.81 140.284C147.03 140.503 147.03 140.86 146.81 141.08L143.173 144.717C142.953 144.937 142.596 144.937 142.377 144.717C142.157 144.497 142.157 144.141 142.377 143.921L146.014 140.284C146.234 140.064 146.59 140.064 146.81 140.284Z" fill="#00144A"/>
<path d="M154.236 112.368C153.893 112.961 153.037 112.961 152.694 112.368L150.639 108.809C150.296 108.215 150.725 107.474 151.41 107.474L155.52 107.474C156.205 107.474 156.633 108.215 156.29 108.809L154.236 112.368Z" fill="#F58B00"/>
<path d="M106.501 189.996H131.655L122.951 201.393C122.384 202.136 121.502 202.573 120.567 202.573H109.501C107.845 202.573 106.501 201.229 106.501 199.573V189.996Z" fill="#005DC9"/>
<path fill-rule="evenodd" clip-rule="evenodd" d="M128.182 194.544H106.501V189.996H131.655L128.182 194.544Z" fill="#004DA5"/>
<path d="M147.256 189.996H172.41L163.706 201.393C163.139 202.136 162.257 202.573 161.322 202.573H150.256C148.599 202.573 147.256 201.229 147.256 199.573V189.996Z" fill="#004DA5"/>
<path fill-rule="evenodd" clip-rule="evenodd" d="M167.608 196.284H147.256V189.996H172.41L167.608 196.284Z" fill="#004DA5"/>
<path d="M213.165 189.996H188.011L196.715 201.393C197.282 202.136 198.164 202.573 199.099 202.573H210.165C211.821 202.573 213.165 201.229 213.165 199.573V189.996Z" fill="#005DC9"/>
<path fill-rule="evenodd" clip-rule="evenodd" d="M191.484 194.544H213.165V189.996H188.011L191.484 194.544Z" fill="#004DA5"/>
<path d="M253.919 189.996H228.766L237.47 201.393C238.037 202.136 238.919 202.573 239.854 202.573H250.919C252.576 202.573 253.919 201.229 253.919 199.573V189.996Z" fill="#004DA5"/>
<path fill-rule="evenodd" clip-rule="evenodd" d="M233.568 196.284H253.919V189.996H228.766L233.568 196.284Z" fill="#004DA5"/>
</svg>
