<svg width="45" height="45" viewBox="0 0 45 45" fill="none" xmlns="http://www.w3.org/2000/svg">
<path fill-rule="evenodd" clip-rule="evenodd" d="M6.60352 2.55469C7.1558 2.55469 7.60352 3.0024 7.60352 3.55469L7.60351 41.7522C7.60351 42.3045 7.1558 42.7522 6.60351 42.7522C6.05123 42.7522 5.60351 42.3045 5.60351 41.7522L5.60352 3.55469C5.60352 3.0024 6.05123 2.55469 6.60352 2.55469Z" fill="white"/>
<path fill-rule="evenodd" clip-rule="evenodd" d="M22.5029 2.55469C23.0552 2.55469 23.5029 3.0024 23.5029 3.55469L23.5029 41.7522C23.5029 42.3045 23.0552 42.7522 22.5029 42.7522C21.9506 42.7522 21.5029 42.3045 21.5029 41.7522L21.5029 3.55469C21.5029 3.0024 21.9506 2.55469 22.5029 2.55469Z" fill="white"/>
<path fill-rule="evenodd" clip-rule="evenodd" d="M38.4023 2.55469C38.9546 2.55469 39.4023 3.0024 39.4023 3.55469L39.4023 41.7522C39.4023 42.3045 38.9546 42.7522 38.4023 42.7522C37.8501 42.7522 37.4023 42.3045 37.4023 41.7522L37.4023 3.55469C37.4023 3.0024 37.8501 2.55469 38.4023 2.55469Z" fill="white"/>
<rect x="0.00585938" y="5.34375" width="16.9694" height="8.17715" rx="0.962135" fill="#F58B00"/>
<rect x="27.1182" y="31.7852" width="17.8825" height="8.17715" rx="0.962135" fill="#0070F3"/>
<rect x="27.1182" y="18.4648" width="10.2845" height="8.17715" rx="0.962135" fill="#4098FF"/>
<rect x="8.49023" y="18.4648" width="15.8992" height="8.17715" rx="0.962135" fill="#4098FF"/>
</svg>
