<svg width="160" height="160" viewBox="0 0 160 160" fill="none" xmlns="http://www.w3.org/2000/svg">
<mask id="mask0_2672_44839" style="mask-type:alpha" maskUnits="userSpaceOnUse" x="0" y="0" width="160" height="160">
<circle cx="80" cy="80" r="80" fill="#EBF8FF"/>
</mask>
<g mask="url(#mask0_2672_44839)">
<path d="M194.938 -2.35253H-33.3701C-34.8583 -2.35396 -36.3321 -2.0518 -37.7074 -1.46336C-39.0827 -0.874919 -40.3324 -0.0117145 -41.3852 1.0769C-42.438 2.16552 -43.2731 3.45821 -43.843 4.88108C-44.4128 6.30395 -44.7061 7.8291 -44.7061 9.36935V148.268C-44.7061 151.379 -43.5117 154.364 -41.3858 156.564C-39.2599 158.764 -36.3766 160 -33.3701 160H194.938C197.945 160 200.828 158.764 202.954 156.564C205.08 154.364 206.274 151.379 206.274 148.268V9.36935C206.274 7.8291 205.981 6.30395 205.411 4.88108C204.841 3.45821 204.006 2.16552 202.953 1.0769C201.901 -0.0117145 200.651 -0.874919 199.276 -1.46336C197.9 -2.0518 196.427 -2.35396 194.938 -2.35253Z" fill="#EBF8FF"/>
<path d="M-30.9812 81.3535H76.0163C76.6005 81.3445 77.1689 81.5437 77.6196 81.9155C78.0702 82.2873 78.3739 82.8074 78.476 83.3826L91.4879 150.623C91.5703 150.988 91.5684 151.367 91.4823 151.731C91.3962 152.095 91.2281 152.434 90.9909 152.724C90.7538 153.013 90.4537 153.244 90.1135 153.4C89.7734 153.556 89.4022 153.632 89.0282 153.623H-16.7394C-17.3153 153.622 -17.8734 153.424 -18.3209 153.061C-18.7684 152.699 -19.0784 152.194 -19.1992 151.631L-33.4409 84.391C-33.5299 84.0236 -33.5329 83.6404 -33.4499 83.2716C-33.3668 82.9028 -33.1998 82.5582 -32.9619 82.2644C-32.7239 81.9706 -32.4215 81.7354 -32.078 81.5775C-31.7345 81.4195 -31.3591 81.3429 -30.9812 81.3535ZM-20.4044 99.3073L-12.2382 144.019C-12.1412 144.599 -11.8399 145.125 -11.3887 145.502C-10.9374 145.878 -10.3662 146.081 -9.77844 146.073H63.8899C64.2614 146.081 64.6299 146.005 64.9678 145.851C65.3057 145.696 65.6042 145.467 65.8409 145.181C66.0776 144.895 66.2464 144.558 66.3345 144.197C66.4226 143.836 66.4278 143.46 66.3496 143.097L63.398 127.591H74.934C75.305 127.586 75.6706 127.501 76.0049 127.34C76.3392 127.179 76.6341 126.947 76.8687 126.659C77.1033 126.372 77.272 126.037 77.3627 125.677C77.4534 125.317 77.464 124.942 77.3938 124.578L71.0723 91.019C70.9621 90.4444 70.6574 89.9255 70.2095 89.5492C69.7615 89.173 69.1975 88.9625 68.6126 88.9531H37.1283C36.7585 88.9576 36.3942 89.0428 36.061 89.2029C35.7277 89.3631 35.4336 89.5943 35.1992 89.8802C34.9648 90.1662 34.7958 90.5 34.7041 90.8582C34.6124 91.2164 34.6003 91.5902 34.6686 91.9536L35.5294 96.5282L-17.8832 96.3437C-18.2585 96.3262 -18.6328 96.3949 -18.9773 96.5445C-19.3219 96.6942 -19.6276 96.9208 -19.871 97.207C-20.1145 97.4931 -20.2891 97.8311 -20.3816 98.1951C-20.474 98.5592 -20.4818 98.9397 -20.4044 99.3073Z" fill="#D1EFFF"/>
<path d="M123.919 153.624H12.1742L15.2981 158.063C15.6729 158.595 16.1702 159.029 16.7482 159.329C17.3261 159.629 17.9677 159.785 18.6187 159.784H-16.5306C-17.183 159.784 -17.8086 159.525 -18.2699 159.064C-18.7312 158.603 -18.9903 157.977 -18.9903 157.325V156.206C-18.9903 155.554 -18.7312 154.928 -18.2699 154.467C-17.8086 154.006 -17.183 153.746 -16.5306 153.746H123.919V153.624Z" fill="#B8E6FF"/>
<path d="M15.2981 158.063L12.1742 153.624H123.919V157.608C123.919 158.185 123.69 158.739 123.281 159.147C122.873 159.555 122.319 159.784 121.742 159.784H18.6187C17.9677 159.785 17.3261 159.629 16.7482 159.329C16.1702 159.029 15.6729 158.595 15.2981 158.063Z" fill="#B8E6FF"/>
<path d="M55.4038 96.6018L35.4678 96.5281L34.6069 91.9535C34.5387 91.5902 34.5508 91.2164 34.6425 90.8582C34.7341 90.5 34.9031 90.1661 35.1375 89.8802C35.3719 89.5943 35.6661 89.3631 35.9994 89.2029C36.3326 89.0427 36.6969 88.9575 37.0666 88.9531H68.5509C69.1359 88.9624 69.6998 89.173 70.1478 89.5492C70.5958 89.9255 70.9005 90.4444 71.0106 91.0189L77.3321 124.578C77.4023 124.942 77.3918 125.317 77.301 125.677C77.2103 126.037 77.0417 126.372 76.807 126.659C76.5724 126.947 76.2775 127.179 75.9432 127.34C75.6089 127.501 75.2433 127.586 74.8724 127.59H63.3363L57.8143 98.6432C57.7161 98.0741 57.4208 97.5576 56.98 97.1844C56.5393 96.8112 55.9813 96.605 55.4038 96.6018Z" fill="#B8E6FF"/>
<path d="M37.3619 114.322C37.2606 114.228 37.1798 114.113 37.1246 113.986C37.0693 113.859 37.0409 113.723 37.0409 113.584C37.0409 113.446 37.0693 113.309 37.1246 113.182C37.1798 113.055 37.2606 112.941 37.3619 112.846C37.4572 112.746 37.5717 112.667 37.6986 112.613C37.8254 112.559 37.9619 112.531 38.0998 112.531C38.2378 112.531 38.3743 112.559 38.5011 112.613C38.6279 112.667 38.7424 112.746 38.8378 112.846L41.2975 115.306L43.7572 112.846C43.9565 112.669 44.2159 112.575 44.4824 112.583C44.7489 112.591 45.0023 112.7 45.1908 112.888C45.3794 113.077 45.4887 113.33 45.4966 113.597C45.5044 113.863 45.4102 114.123 45.2331 114.322L42.7733 116.781L45.2331 119.241C45.3395 119.335 45.4256 119.451 45.4858 119.58C45.5461 119.709 45.5793 119.849 45.5835 119.991C45.5877 120.134 45.5628 120.275 45.5102 120.408C45.4576 120.54 45.3785 120.66 45.2778 120.761C45.1771 120.862 45.0568 120.941 44.9244 120.994C44.792 121.046 44.6503 121.071 44.5079 121.067C44.3655 121.063 44.2254 121.03 44.0963 120.969C43.9672 120.909 43.8518 120.823 43.7572 120.716L41.2975 118.257L38.8378 120.716C38.7424 120.816 38.6279 120.896 38.5011 120.95C38.3743 121.004 38.2378 121.032 38.0998 121.032C37.9619 121.032 37.8254 121.004 37.6986 120.95C37.5717 120.896 37.4572 120.816 37.3619 120.716C37.2606 120.622 37.1798 120.508 37.1246 120.381C37.0693 120.254 37.0409 120.117 37.0409 119.979C37.0409 119.84 37.0693 119.703 37.1246 119.576C37.1798 119.449 37.2606 119.335 37.3619 119.241L39.8216 116.781L37.3619 114.322Z" fill="white"/>
<path d="M-17.9205 96.3438L35.4921 96.5283L55.4281 96.602C56.0141 96.5935 56.5839 96.7944 57.0348 97.1687C57.4858 97.5429 57.7882 98.0659 57.8878 98.6434L63.4099 127.591L66.3615 143.097C66.4397 143.46 66.4344 143.837 66.3463 144.197C66.2582 144.558 66.0895 144.895 65.8528 145.181C65.6161 145.467 65.3176 145.696 64.9797 145.851C64.6418 146.005 64.2733 146.081 63.9018 146.073H-9.69276C-10.2805 146.081 -10.8518 145.878 -11.303 145.502C-11.7542 145.125 -12.0555 144.599 -12.1525 144.019L-20.3802 99.3074C-20.4562 98.9451 -20.4494 98.5702 -20.3603 98.2109C-20.2712 97.8515 -20.1021 97.5169 -19.8657 97.232C-19.6292 96.9471 -19.3315 96.7193 -18.9947 96.5655C-18.6579 96.4117 -18.2907 96.3359 -17.9205 96.3438Z" fill="#EBF8FF"/>
<path d="M194.434 129.866H161.127C160.021 129.866 159.125 130.762 159.125 131.868V135.997C159.125 137.102 160.021 137.999 161.127 137.999H194.434C195.54 137.999 196.436 137.102 196.436 135.997V131.868C196.436 130.762 195.54 129.866 194.434 129.866Z" fill="#D1EFFF"/>
<path d="M168.753 37.4703L118.134 20.1308C115.984 19.4007 113.652 20.5364 112.922 22.6861L87.6933 96.3232C86.9632 98.4729 88.0989 100.805 90.2486 101.535L140.868 118.875C143.017 119.605 145.35 118.469 146.08 116.319L171.308 42.6823C172.038 40.5326 170.903 38.2004 168.753 37.4703Z" fill="#D1EFFF"/>
<path d="M138.393 38.727C136.731 38.0578 134.885 37.8955 133.141 38.2809C131.377 38.6459 129.774 39.5382 128.517 40.8361C127.26 42.1341 126.408 43.7565 126.083 45.5209C125.759 47.2852 125.962 49.1104 126.672 50.7734C127.381 52.4364 128.558 53.8357 130.079 54.8092C131.579 55.7826 133.344 56.3099 135.149 56.2693C136.954 56.249 138.698 55.6812 140.178 54.6672C141.659 53.6532 142.815 52.2133 143.484 50.5503L135.027 47.1838L138.414 38.727H138.393Z" fill="#EBF8FF"/>
<path d="M141.091 37.4902L137.725 45.9268L146.161 49.2933C146.607 48.1779 146.83 47.0016 146.81 45.8051C146.81 44.6086 146.546 43.4323 146.08 42.3372C145.614 41.2421 144.924 40.2483 144.072 39.4168C143.221 38.5854 142.207 37.9364 141.091 37.4902Z" fill="#B8E6FF"/>
<path d="M148.108 67.6872L112.84 55.6003C111.664 55.1947 110.407 55.8234 110.001 56.9996C109.596 58.1759 110.224 59.4332 111.401 59.8388L146.668 71.9258C147.844 72.3314 149.101 71.7027 149.507 70.5265C149.912 69.3502 149.284 68.0929 148.108 67.6872Z" fill="#EBF8FF"/>
<path d="M145.066 74.8665L109.798 62.7795C108.622 62.3739 107.365 63.0026 106.959 64.1788C106.554 65.3551 107.182 66.6124 108.359 67.018L143.626 79.105C144.802 79.5106 146.08 78.8819 146.465 77.7057C146.87 76.5294 146.242 75.2721 145.066 74.8665Z" fill="#EBF8FF"/>
<path d="M125.678 76.2459L106.898 69.8171C105.722 69.4115 104.445 70.0402 104.059 71.2164C103.654 72.3927 104.282 73.65 105.459 74.0556L124.258 80.4844C125.435 80.89 126.692 80.2614 127.098 79.0851C127.503 77.9089 126.874 76.6515 125.698 76.2459H125.678Z" fill="#EBF8FF"/>
<path d="M103.393 29.0673L42.9216 38.6028C40.0085 39.0622 38.0194 41.7961 38.4787 44.7092L51.9256 129.986C52.385 132.899 55.1189 134.888 58.0321 134.429L118.504 124.894C121.417 124.434 123.406 121.7 122.947 118.787L109.5 33.5103C109.04 30.5971 106.306 28.608 103.393 29.0673Z" fill="white"/>
<path fill-rule="evenodd" clip-rule="evenodd" d="M42.9216 38.6028C42.3526 38.6926 41.8188 38.8691 41.3316 39.1168C41.0176 39.2765 40.7229 39.4657 40.4506 39.6804C40.1725 39.8996 39.9178 40.1453 39.6898 40.4131C40.2944 41.1805 41.3754 41.4408 42.2795 40.9812C42.5736 40.8316 42.8977 40.724 43.2474 40.6688L47.2789 40.0331C48.4199 39.8532 49.199 38.7824 49.0191 37.6414L42.9216 38.6028ZM56.9815 36.3858C57.1614 37.5268 58.2322 38.3059 59.3732 38.126L67.4361 36.8546C68.5771 36.6747 69.3562 35.6039 69.1763 34.4629L56.9815 36.3858ZM77.1387 33.2073C77.3186 34.3483 78.3894 35.1274 79.5304 34.9475L87.5933 33.6761C88.7343 33.4962 89.5134 32.4254 89.3335 31.2844L77.1387 33.2073ZM97.2959 30.0288C97.4758 31.1698 98.5466 31.9489 99.6876 31.769L103.719 31.1333C104.069 31.0781 104.41 31.0809 104.736 31.1326C105.738 31.2918 106.686 30.7115 107.025 29.7953C106.726 29.6107 106.408 29.4552 106.076 29.3322C105.751 29.2117 105.412 29.1223 105.064 29.0671C104.525 28.9813 103.962 28.9776 103.393 29.0673L97.2959 30.0288ZM107.689 30.2784C106.922 30.883 106.662 31.964 107.121 32.8681C107.271 33.1622 107.379 33.4863 107.434 33.836L108.106 38.0999C108.286 39.2409 109.357 40.02 110.498 39.8401L109.5 33.5103C109.41 32.9412 109.233 32.4074 108.986 31.9202C108.826 31.6062 108.637 31.3115 108.422 31.0392C108.203 30.7612 107.957 30.5065 107.689 30.2784ZM111.863 48.4997C110.722 48.6796 109.943 49.7504 110.123 50.8914L111.468 59.4191C111.648 60.5601 112.719 61.3392 113.86 61.1593L111.863 48.4997ZM115.225 69.8189C114.084 69.9988 113.305 71.0696 113.485 72.2106L114.83 80.7383C115.009 81.8793 116.08 82.6584 117.221 82.4785L115.225 69.8189ZM118.587 91.1381C117.446 91.318 116.667 92.3889 116.847 93.5299L118.191 102.058C118.371 103.199 119.442 103.978 120.583 103.798L118.587 91.1381ZM121.949 112.457C120.808 112.637 120.028 113.708 120.208 114.849L120.881 119.113C120.936 119.463 120.933 119.804 120.881 120.13C120.722 121.132 121.303 122.08 122.219 122.419C122.403 122.12 122.559 121.802 122.682 121.47C122.802 121.145 122.892 120.806 122.947 120.458C123.033 119.918 123.036 119.356 122.947 118.787L121.949 112.457ZM121.736 123.083C121.131 122.316 120.05 122.056 119.146 122.515C118.852 122.665 118.528 122.772 118.178 122.828L114.147 123.463C113.005 123.643 112.226 124.714 112.406 125.855L118.504 124.894C119.073 124.804 119.607 124.627 120.094 124.38C120.408 124.22 120.702 124.031 120.975 123.816C121.253 123.597 121.508 123.351 121.736 123.083ZM104.444 127.111C104.264 125.97 103.193 125.19 102.052 125.37L93.9893 126.642C92.8483 126.822 92.0692 127.893 92.2491 129.034L104.444 127.111ZM84.2867 130.289C84.1068 129.148 83.036 128.369 81.895 128.549L73.8321 129.82C72.6911 130 71.9119 131.071 72.0919 132.212L84.2867 130.289ZM64.1295 133.468C63.9496 132.327 62.8787 131.547 61.7377 131.727L57.7063 132.363C57.3565 132.418 57.015 132.416 56.6893 132.364C55.6875 132.205 54.7391 132.785 54.4 133.701C54.6994 133.886 55.0173 134.041 55.3494 134.164C55.6745 134.285 56.0131 134.374 56.361 134.429C56.9008 134.515 57.463 134.519 58.0321 134.429L64.1295 133.468ZM53.7359 133.218C54.5033 132.613 54.7637 131.532 54.304 130.628C54.1545 130.334 54.0468 130.01 53.9916 129.66L53.3193 125.397C53.1394 124.256 52.0685 123.476 50.9275 123.656L51.9256 129.986C52.0154 130.555 52.1919 131.089 52.4396 131.576C52.5993 131.89 52.7885 132.185 53.0032 132.457C53.2224 132.735 53.4682 132.99 53.7359 133.218ZM49.562 114.997C50.703 114.817 51.4822 113.746 51.3022 112.605L49.9575 104.077C49.7776 102.936 48.7068 102.157 47.5658 102.337L49.562 114.997ZM46.2003 93.6775C47.3413 93.4976 48.1204 92.4268 47.9405 91.2858L46.5958 82.7581C46.4159 81.6171 45.3451 80.838 44.2041 81.0179L46.2003 93.6775ZM42.8386 72.3583C43.9796 72.1784 44.7587 71.1075 44.5788 69.9665L43.2341 61.4389C43.0542 60.2978 41.9833 59.5187 40.8423 59.6986L42.8386 72.3583ZM39.4768 51.0391C40.6178 50.8591 41.397 49.7883 41.217 48.6473L40.5447 44.3835C40.4895 44.0337 40.4923 43.6922 40.544 43.3664C40.7032 42.3647 40.1229 41.4162 39.2066 41.0771C39.022 41.3765 38.8666 41.6945 38.7436 42.0265C38.6231 42.3516 38.5337 42.6903 38.4785 43.0382C38.3927 43.578 38.389 44.1402 38.4787 44.7092L39.4768 51.0391Z" fill="#F58B00"/>
<path d="M97.7467 81.3773C99.096 89.9349 93.2525 97.966 84.6949 99.3152C76.1374 100.664 68.1063 94.821 66.757 86.2634C65.4078 77.7058 71.2513 69.6748 79.8088 68.3255C88.3664 66.9762 96.3975 72.8197 97.7467 81.3773Z" fill="white"/>
<path d="M79.8088 68.3255C76.7442 68.8087 73.8917 70.1898 71.6121 72.2941C69.3324 74.3985 67.728 77.1319 67.0016 80.1481C66.2753 83.1643 66.4596 86.328 67.5314 89.2394C68.6032 92.1508 70.5142 94.679 73.0229 96.5043C75.5315 98.3297 78.5251 99.3701 81.6251 99.4941C84.7251 99.6181 87.7922 98.82 90.4386 97.2008C93.085 95.5816 95.1918 93.214 96.4927 90.3975C97.7935 87.5809 98.2299 84.4419 97.7467 81.3773C97.0988 77.2678 94.8449 73.5841 91.4809 71.1364C88.1169 68.6887 83.9183 67.6776 79.8088 68.3255ZM83.7177 93.1173C83.258 93.1897 82.7872 93.1245 82.3647 92.9293C81.9422 92.7342 81.5871 92.4179 81.3442 92.021C81.1013 91.624 80.9817 91.1643 81.0003 90.6993C81.0188 90.2343 81.1749 89.7852 81.4487 89.4089C81.7225 89.0326 82.1017 88.7457 82.5384 88.5849C82.9751 88.4242 83.4497 88.3967 83.9022 88.5056C84.3546 88.6146 84.7646 88.8553 85.0802 89.1972C85.3959 89.5392 85.603 89.9669 85.6755 90.4266C85.7727 91.043 85.6211 91.673 85.2539 92.1776C84.8867 92.6822 84.3341 93.0201 83.7177 93.1173ZM84.92 84.8291C84.7227 84.9638 84.5336 85.1102 84.354 85.2677C84.2709 85.7244 84.0286 86.1368 83.67 86.4316C83.3114 86.7264 82.86 86.8844 82.3958 86.8775C81.9317 86.8707 81.485 86.6992 81.1353 86.3939C80.7856 86.0887 80.5555 85.6693 80.486 85.2103C80.2075 83.4439 81.6349 82.4248 82.5851 81.7033C83.9219 80.7144 84.4578 80.1853 84.2843 79.0852C84.1108 77.9851 82.7393 77.3438 81.2673 77.5759C79.7953 77.808 78.6974 78.9021 78.8611 79.9403C78.9421 80.454 78.8157 80.979 78.5098 81.3995C78.2038 81.82 77.7433 82.1015 77.2296 82.1825C76.7159 82.2635 76.1912 82.1374 75.7707 81.8314C75.3502 81.5254 75.0684 81.0647 74.9874 80.551C74.9251 78.909 75.4672 77.3013 76.5109 76.0322C77.5547 74.7631 79.0276 73.921 80.6507 73.6651C82.2738 73.4092 83.9344 73.7572 85.318 74.6436C86.7016 75.53 87.712 76.8929 88.158 78.4744C88.3054 79.7349 88.0767 81.0111 87.5005 82.1418C86.9243 83.2725 86.0265 84.2076 84.92 84.8291Z" fill="#004DA5"/>
</g>
<path d="M0.534341 42.6089C0.766319 42.3312 1.06885 42.1213 1.4101 42.0011C1.75134 41.8809 2.11869 41.8548 2.47347 41.9258L10.956 43.393C12.3591 43.635 12.9136 44.9246 12.7236 46.0243C12.6623 46.4771 12.4556 46.8979 12.1347 47.2232C11.8137 47.5486 11.3958 47.7609 10.9438 47.8284C10.7244 47.8546 10.5024 47.8473 10.2852 47.807L1.8026 46.3398C1.42912 46.283 1.07793 46.1264 0.786187 45.8865C0.494445 45.6465 0.273002 45.3322 0.145291 44.9767C0.00313854 44.5815 -0.0357456 44.1566 0.03234 43.7422C0.100426 43.3279 0.273222 42.9377 0.534341 42.6089Z" fill="#A9B4BE"/>
<path d="M32.7767 8.7273C33.0218 8.64386 33.2816 8.61244 33.5396 8.63504C33.7975 8.65765 34.0479 8.73379 34.2748 8.85859C34.5017 8.9834 34.7 9.15414 34.8572 9.35991C35.0143 9.56567 35.1269 9.80195 35.1876 10.0536L37.525 18.1066C37.608 18.3965 37.6325 18.6999 37.597 18.9993C37.5615 19.2987 37.4666 19.588 37.318 19.8504C37.1695 20.1127 36.9701 20.3429 36.7316 20.5273C36.4931 20.7118 36.2202 20.8469 35.9289 20.9247C35.8097 20.9602 35.6878 20.9858 35.5644 21.0013C35.1093 21.0652 34.6467 20.9563 34.2679 20.696C33.8891 20.4358 33.6216 20.0431 33.518 19.5953L31.1837 11.5454C31.1002 11.2558 31.0753 10.9524 31.1104 10.653C31.1455 10.3536 31.24 10.0643 31.3884 9.80185C31.5367 9.53943 31.7359 9.30924 31.9743 9.12473C32.2127 8.94022 32.4855 8.80511 32.7767 8.7273Z" fill="#A9B4BE"/>
<path d="M11.9336 19.6323C12.2159 19.614 12.499 19.6534 12.7655 19.7482C13.032 19.843 13.2764 19.9912 13.4837 20.1837L22.8699 28.7237C23.2887 29.1091 23.5424 29.6414 23.5778 30.2094C23.6132 30.7774 23.4276 31.3371 23.0599 31.7715C22.7171 32.173 22.236 32.431 21.712 32.4944C21.4098 32.5305 21.1035 32.501 20.8138 32.4079C20.5241 32.3149 20.2578 32.1605 20.0332 31.9553L10.647 23.4153C10.2255 23.0281 9.9706 22.4926 9.93575 21.9214C9.9009 21.3502 10.0889 20.7877 10.4601 20.3521C10.6446 20.1391 10.8702 19.9655 11.1234 19.8418C11.3766 19.7181 11.6522 19.6469 11.9336 19.6323Z" fill="#A9B4BE"/>
</svg>
