<svg width="160" height="160" viewBox="0 0 160 160" fill="none" xmlns="http://www.w3.org/2000/svg">
<g clip-path="url(#clip0_4516_149767)">
<rect y="46" width="160" height="69" rx="12" fill="#89D1FF"/>
<path d="M113.41 102.446L83.8389 92.6155C83.776 92.5958 83.7093 92.588 83.6464 92.5998L41.7746 98.9939C39.8933 99.2099 39.7166 99.7362 40.2861 100.015L69.9117 110.074C71.0664 110.466 72.2997 110.561 73.5015 110.345L111.736 103.33C113.476 103.098 113.822 102.58 113.413 102.446H113.41Z" fill="#1B90FF"/>
<path d="M40.2939 40.7645L52.8072 90.0515C53.0035 90.7624 53.6909 91.2219 54.4214 91.1277L93.8227 84.8553C96.1007 84.278 96.7527 82.4399 96.5603 81.8586L77.2406 35.7372C76.9028 34.8063 76.294 34.4018 75.6303 34.445L42.0888 36.0003C41.1541 36.0592 39.2767 37.4064 40.2939 40.7645Z" fill="#00144A"/>
<path d="M40.7731 37.8578L53.7341 88.7669C53.9305 89.4778 54.6178 89.9373 55.3483 89.8431L95.2367 83.5079C96.1675 83.3862 96.7527 82.4396 96.4425 81.552L81.4195 34.2248C81.1996 33.6003 80.5908 33.1958 79.931 33.235L42.1046 35.9883C41.1698 36.0472 40.5218 36.9505 40.7731 37.8578Z" fill="#56BDFF"/>
<path d="M55.2619 46.1686L70.5794 101.752C70.7994 102.553 71.577 103.071 72.4057 102.965L117.168 94.8116C119.741 94.1596 120.475 92.0858 120.126 91.0843L97.1416 40.128C96.8941 39.4211 96.2068 38.9655 95.4606 39.0126L57.2846 40.7918C56.2281 40.8586 54.1072 42.3785 55.258 46.1726L55.2619 46.1686Z" fill="#00144A"/>
<path d="M55.8 42.885L71.6242 100.302C71.8441 101.103 72.6218 101.622 73.4505 101.516L118.763 93.2914C119.815 93.1539 120.475 92.0856 120.126 91.0841L101.863 38.4154C101.615 37.7084 100.928 37.2528 100.182 37.3L57.3043 40.7759C56.2478 40.8426 55.5172 41.8638 55.8 42.885Z" fill="white"/>
<path d="M75.9542 98.3446C75.7707 98.3446 75.6067 98.2118 75.5716 98.0244C75.5325 97.8136 75.6731 97.6066 75.8839 97.5676L78.1876 97.1381C78.4023 97.099 78.6053 97.2396 78.6444 97.4504C78.6834 97.6613 78.5429 97.8682 78.332 97.9073L76.0284 98.3368C76.005 98.3407 75.9815 98.3446 75.9581 98.3446H75.9542ZM73.8536 97.7979C73.7286 97.7979 73.6037 97.7355 73.5295 97.6222C73.4163 97.4543 73.3343 97.2708 73.2796 97.0756L72.7837 95.2795C72.7252 95.0726 72.8501 94.8579 73.0571 94.7993C73.264 94.7407 73.4787 94.8657 73.5373 95.0726L74.0332 96.8687C74.0644 96.9858 74.1152 97.0951 74.1816 97.1928C74.3026 97.3724 74.2518 97.6144 74.0722 97.7355C74.0059 97.7784 73.9317 97.8019 73.8575 97.8019L73.8536 97.7979ZM80.5576 97.4817C80.3741 97.4817 80.2101 97.3489 80.1749 97.1615C80.1359 96.9507 80.2765 96.7437 80.4873 96.7047L82.791 96.2752C83.0057 96.2361 83.2087 96.3767 83.2478 96.5876C83.2868 96.7984 83.1463 97.0053 82.9354 97.0444L80.6318 97.4739C80.6083 97.4778 80.5849 97.4817 80.5615 97.4817H80.5576ZM85.1649 96.6227C84.9814 96.6227 84.8174 96.4899 84.7823 96.3025C84.7432 96.0917 84.8838 95.8847 85.0946 95.8457L87.3983 95.4162C87.613 95.3772 87.816 95.5177 87.8551 95.7286C87.8941 95.9394 87.7536 96.1463 87.5427 96.1854L85.2391 96.6149C85.2156 96.6188 85.1922 96.6227 85.1688 96.6227H85.1649ZM89.7722 95.7637C89.5887 95.7637 89.4247 95.631 89.3895 95.4435C89.3505 95.2327 89.4911 95.0258 89.7019 94.9867L92.0056 94.5572C92.2203 94.5221 92.4233 94.6587 92.4624 94.8696C92.5014 95.0804 92.3609 95.2874 92.15 95.3264L89.8464 95.7559C89.8229 95.7598 89.7995 95.7637 89.7761 95.7637H89.7722ZM94.3756 94.9047C94.1921 94.9047 94.0281 94.772 93.9929 94.5845C93.9539 94.3737 94.0945 94.1668 94.3053 94.1277L96.6089 93.6982C96.8198 93.6631 97.0267 93.7997 97.0658 94.0106C97.1048 94.2214 96.9643 94.4284 96.7534 94.4674L94.4498 94.8969C94.4263 94.9008 94.4029 94.9047 94.3795 94.9047H94.3756ZM98.9829 94.0457C98.7994 94.0457 98.6354 93.913 98.6002 93.7256C98.5612 93.5147 98.7018 93.3078 98.9126 93.2687L101.216 92.8392C101.431 92.8041 101.634 92.9408 101.673 93.1516C101.712 93.3624 101.572 93.5694 101.361 93.6084L99.0571 94.0379C99.0336 94.0418 99.0102 94.0457 98.9868 94.0457H98.9829ZM72.5378 93.3078C72.366 93.3078 72.2098 93.1945 72.1629 93.0228L71.5421 90.7621C71.4836 90.5551 71.6085 90.3404 71.8154 90.2818C72.0224 90.2232 72.2371 90.3482 72.2957 90.5551L72.9165 92.8158C72.9751 93.0228 72.8501 93.2375 72.6432 93.2961C72.608 93.3039 72.5729 93.3117 72.5378 93.3117V93.3078ZM103.586 93.1828C103.403 93.1828 103.239 93.0501 103.204 92.8627C103.165 92.6518 103.305 92.4449 103.516 92.4058L105.82 91.9764C106.034 91.9412 106.237 92.0779 106.276 92.2887C106.316 92.4996 106.175 92.7065 105.964 92.7455L103.66 93.175C103.637 93.1789 103.614 93.1828 103.59 93.1828H103.586ZM108.194 92.3239C108.01 92.3239 107.846 92.1911 107.811 92.0037C107.772 91.7928 107.912 91.5859 108.123 91.5469L110.427 91.1174C110.642 91.0822 110.845 91.2189 110.884 91.4297C110.923 91.6406 110.782 91.8475 110.571 91.8865L108.268 92.316C108.244 92.3199 108.221 92.3239 108.197 92.3239H108.194ZM112.801 91.4649C112.617 91.4649 112.453 91.3321 112.418 91.1447C112.379 90.9339 112.52 90.7269 112.731 90.6879L115.034 90.2584C115.249 90.2232 115.452 90.3599 115.491 90.5707C115.53 90.7816 115.39 90.9885 115.179 91.0276L112.875 91.4571C112.852 91.461 112.828 91.4649 112.805 91.4649H112.801ZM116.545 89.4736C116.334 89.4736 116.159 89.3057 116.155 89.0909C116.155 88.9738 116.131 88.8567 116.092 88.7434L115.479 86.9786C115.409 86.7756 115.514 86.553 115.721 86.4827C115.924 86.4085 116.147 86.5179 116.217 86.7248L116.83 88.4896C116.897 88.681 116.932 88.8762 116.936 89.0753C116.94 89.2901 116.772 89.4697 116.553 89.4736H116.545ZM71.2961 88.7903C71.1243 88.7903 70.9682 88.6771 70.9213 88.5053L70.3005 86.2446C70.2419 86.0376 70.3669 85.8229 70.5738 85.7643C70.7807 85.7057 70.9955 85.8307 71.0541 86.0376L71.6749 88.2983C71.7334 88.5053 71.6085 88.72 71.4016 88.7786C71.3664 88.7864 71.3313 88.7942 71.2961 88.7942V88.7903ZM115.077 85.0303C114.917 85.0303 114.765 84.9287 114.71 84.7687L113.941 82.5548C113.871 82.3518 113.976 82.1292 114.183 82.0589C114.386 81.9887 114.609 82.0941 114.679 82.301L115.448 84.5149C115.518 84.7179 115.413 84.9405 115.206 85.0107C115.163 85.0264 115.12 85.0342 115.077 85.0342V85.0303ZM70.0506 84.2728C69.8788 84.2728 69.7226 84.1596 69.6758 83.9878L69.055 81.731C68.9964 81.524 69.1213 81.3093 69.3283 81.2507C69.5352 81.1922 69.75 81.3171 69.8085 81.524L70.4293 83.7808C70.4879 83.9878 70.363 84.2025 70.156 84.2611C70.1209 84.2689 70.0857 84.2767 70.0506 84.2767V84.2728ZM113.539 80.6065C113.379 80.6065 113.226 80.505 113.172 80.3449L112.403 78.131C112.332 77.928 112.438 77.7054 112.645 77.6352C112.848 77.561 113.07 77.6703 113.141 77.8772L113.91 80.0911C113.98 80.2941 113.875 80.5167 113.668 80.587C113.625 80.6026 113.582 80.6104 113.539 80.6104V80.6065ZM68.809 79.7553C68.6372 79.7553 68.481 79.6421 68.4341 79.4703L67.8133 77.2135C67.7548 77.0065 67.8797 76.7918 68.0866 76.7332C68.2936 76.6747 68.5083 76.7996 68.5669 77.0065L69.1877 79.2633C69.2463 79.4703 69.1213 79.685 68.9144 79.7436C68.8793 79.7514 68.8441 79.7592 68.809 79.7592V79.7553ZM112 76.1788C111.84 76.1788 111.688 76.0773 111.633 75.9172L110.864 73.7033C110.794 73.5003 110.899 73.2777 111.106 73.2075C111.309 73.1372 111.532 73.2426 111.602 73.4495L112.371 75.6634C112.442 75.8664 112.336 76.089 112.129 76.1593C112.086 76.1749 112.043 76.1827 112 76.1827V76.1788ZM67.5634 75.2378C67.3916 75.2378 67.2355 75.1246 67.1886 74.9528L66.5678 72.6921C66.5092 72.4851 66.6342 72.2704 66.8411 72.2118C67.0481 72.1533 67.2628 72.2782 67.3214 72.4851L67.9422 74.7458C68.0007 74.9528 67.8758 75.1675 67.6689 75.2261C67.6337 75.2339 67.5986 75.2417 67.5634 75.2417V75.2378ZM110.466 71.755C110.306 71.755 110.154 71.6535 110.099 71.4934L109.33 69.2795C109.259 69.0765 109.365 68.854 109.572 68.7837C109.775 68.7134 109.997 68.8188 110.068 69.0258L110.837 71.2396C110.907 71.4426 110.802 71.6652 110.595 71.7355C110.552 71.7511 110.509 71.7589 110.466 71.7589V71.755ZM66.3218 70.7203C66.15 70.7203 65.9938 70.6071 65.947 70.4353L65.3262 68.1746C65.2676 67.9676 65.3925 67.7529 65.5995 67.6943C65.8064 67.6358 66.0212 67.7607 66.0797 67.9676L66.7006 70.2283C66.7591 70.4353 66.6342 70.65 66.4272 70.7086C66.3921 70.7164 66.357 70.7242 66.3218 70.7242V70.7203ZM108.928 67.3273C108.768 67.3273 108.615 67.2258 108.561 67.0657L107.791 64.8519C107.721 64.6488 107.827 64.4263 108.033 64.356C108.237 64.2857 108.459 64.3911 108.529 64.5981L109.299 66.8119C109.369 67.0149 109.263 67.2375 109.056 67.3078C109.014 67.3234 108.971 67.3312 108.928 67.3312V67.3273ZM65.0763 66.2028C64.9045 66.2028 64.7483 66.0896 64.7015 65.9178L64.0806 63.6571C64.0221 63.4501 64.147 63.2354 64.354 63.1768C64.5609 63.1183 64.7756 63.2432 64.8342 63.4501L65.455 65.7108C65.5136 65.9178 65.3886 66.1325 65.1817 66.1911C65.1466 66.1989 65.1114 66.2067 65.0763 66.2067V66.2028ZM107.389 62.9035C107.229 62.9035 107.077 62.802 107.022 62.6419L106.253 60.4281C106.183 60.225 106.288 60.0025 106.495 59.9322C106.698 59.8619 106.921 59.9673 106.991 60.1743L107.76 62.3881C107.83 62.5912 107.725 62.8137 107.518 62.884C107.475 62.8996 107.432 62.9074 107.389 62.9074V62.9035ZM63.8347 61.6853C63.6629 61.6853 63.5067 61.5721 63.4598 61.4003L62.839 59.1435C62.7804 58.9366 62.9054 58.7218 63.1123 58.6632C63.3193 58.6047 63.534 58.7296 63.5926 58.9366L64.2134 61.1933C64.272 61.4003 64.147 61.615 63.9401 61.6736C63.9049 61.6814 63.8698 61.6892 63.8347 61.6892V61.6853ZM105.851 58.4758C105.691 58.4758 105.539 58.3743 105.484 58.2142L104.715 56.0004C104.644 55.7973 104.75 55.5748 104.957 55.5045C105.16 55.4342 105.382 55.5396 105.453 55.7466L106.222 57.9604C106.292 58.1635 106.187 58.386 105.98 58.4563C105.937 58.4719 105.894 58.4797 105.851 58.4797V58.4758ZM62.5891 57.1678C62.4173 57.1678 62.2611 57.0546 62.2143 56.8828L61.5935 54.6221C61.5349 54.4152 61.6599 54.2004 61.8668 54.1418C62.0737 54.0833 62.2885 54.2082 62.347 54.4152L62.9679 56.6759C63.0264 56.8828 62.9015 57.0975 62.6945 57.1561C62.6594 57.1639 62.6243 57.1717 62.5891 57.1717V57.1678ZM104.313 54.0481C104.152 54.0481 104 53.9466 103.945 53.7865L103.176 51.5727C103.106 51.3696 103.211 51.1471 103.418 51.0768C103.621 51.0065 103.844 51.112 103.914 51.3189L104.683 53.5327C104.754 53.7358 104.648 53.9583 104.441 54.0286C104.398 54.0442 104.355 54.052 104.313 54.052V54.0481ZM61.3475 52.6503C61.1757 52.6503 61.0195 52.5371 60.9727 52.3653L60.3519 50.1046C60.2933 49.8977 60.4182 49.6829 60.6252 49.6243C60.8321 49.5658 61.0469 49.6907 61.1054 49.8977L61.7262 52.1584C61.7848 52.3653 61.6599 52.58 61.4529 52.6386C61.4178 52.6464 61.3826 52.6542 61.3475 52.6542V52.6503ZM102.774 49.6243C102.614 49.6243 102.462 49.5228 102.407 49.3627L101.638 47.1489C101.568 46.9459 101.673 46.7233 101.88 46.653C102.083 46.5827 102.306 46.6882 102.376 46.8951L103.145 49.1089C103.215 49.312 103.11 49.5345 102.903 49.6048C102.86 49.6204 102.817 49.6282 102.774 49.6282V49.6243ZM60.102 48.1328C59.9302 48.1328 59.774 48.0196 59.7271 47.8478L59.1063 45.5871C59.0478 45.3802 59.1727 45.1654 59.3796 45.1068C59.5866 45.0483 59.8013 45.1732 59.8599 45.3802L60.4807 47.6409C60.5393 47.8478 60.4143 48.0625 60.2074 48.1211C60.1722 48.1289 60.1371 48.1367 60.102 48.1367V48.1328ZM101.24 45.1967C101.08 45.1967 100.927 45.0951 100.873 44.935L100.103 42.7212C100.033 42.5182 100.139 42.2956 100.346 42.2253C100.549 42.1551 100.771 42.2605 100.841 42.4674L101.611 44.6813C101.681 44.8843 101.575 45.1068 101.369 45.1771C101.326 45.1927 101.283 45.2006 101.24 45.2006V45.1967ZM59.8286 44.4431C59.7349 44.4431 59.6373 44.4079 59.5631 44.3416C59.4031 44.1971 59.3953 43.9472 59.5397 43.791C59.8755 43.4279 60.3284 43.2132 60.8243 43.1819L61.9956 43.0843C62.2182 43.0648 62.3978 43.2249 62.4173 43.4396C62.4368 43.6544 62.2768 43.8418 62.062 43.8613L60.8829 43.9589C60.5822 43.9784 60.3128 44.1073 60.1176 44.322C60.0395 44.404 59.9341 44.447 59.8286 44.447V44.4431ZM64.3618 43.6661C64.1626 43.6661 63.9908 43.5138 63.9713 43.3069C63.9518 43.0921 64.1119 42.9047 64.3266 42.8852L66.6615 42.69C66.8763 42.6626 67.0637 42.8305 67.0832 43.0453C67.1027 43.26 66.9426 43.4474 66.7279 43.467L64.393 43.6622C64.393 43.6622 64.3696 43.6622 64.3618 43.6622V43.6661ZM69.0315 43.2756C68.8324 43.2756 68.6606 43.1234 68.6411 42.9164C68.6216 42.7017 68.7816 42.5143 68.9964 42.4947L71.3313 42.2995C71.5499 42.2761 71.7334 42.4401 71.753 42.6548C71.7725 42.8696 71.6124 43.057 71.3977 43.0765L69.0628 43.2717C69.0628 43.2717 69.0393 43.2717 69.0315 43.2717V43.2756ZM73.7013 42.8891C73.5022 42.8891 73.3304 42.7368 73.3109 42.5299C73.2913 42.3151 73.4514 42.1277 73.6662 42.1082L76.001 41.913C76.2197 41.8935 76.4032 42.0535 76.4227 42.2683C76.4423 42.483 76.2822 42.6704 76.0674 42.69L73.7325 42.8852C73.7325 42.8852 73.7091 42.8852 73.7013 42.8852V42.8891ZM78.3711 42.4986C78.1719 42.4986 78.0001 42.3464 77.9806 42.1394C77.9611 41.9247 78.1212 41.7373 78.3359 41.7177L80.6708 41.5225C80.8895 41.4991 81.073 41.6631 81.0925 41.8778C81.112 42.0926 80.9519 42.28 80.7372 42.2995L78.4023 42.4947C78.4023 42.4947 78.3789 42.4947 78.3711 42.4947V42.4986ZM83.0408 42.1121C82.8417 42.1121 82.6699 41.9598 82.6504 41.7529C82.6309 41.5381 82.791 41.3507 83.0057 41.3312L85.3406 41.136C85.5631 41.1165 85.7428 41.2765 85.7623 41.4913C85.7818 41.706 85.6217 41.8935 85.407 41.913L83.0721 42.1082C83.0721 42.1082 83.0487 42.1082 83.0408 42.1082V42.1121ZM87.7106 41.7256C87.5115 41.7256 87.3397 41.5733 87.3202 41.3663C87.3006 41.1516 87.4607 40.9642 87.6755 40.9447L90.0104 40.7494C90.2251 40.7221 90.4125 40.89 90.432 41.1047C90.4516 41.3195 90.2915 41.5069 90.0767 41.5264L87.7419 41.7217C87.7419 41.7217 87.7184 41.7217 87.7106 41.7217V41.7256ZM92.3765 41.3351C92.1774 41.3351 92.0056 41.1828 91.986 40.9759C91.9665 40.7611 92.1266 40.5737 92.3413 40.5542L94.6762 40.359C94.8949 40.3356 95.0784 40.4995 95.0979 40.7143C95.1174 40.929 94.9574 41.1165 94.7426 41.136L92.4077 41.3312C92.4077 41.3312 92.3843 41.3312 92.3765 41.3312V41.3351ZM99.3538 40.9993C99.2913 40.9993 99.2289 40.9837 99.1703 40.9525C99.0063 40.8666 98.8228 40.8197 98.6393 40.8197H98.5612L97.0814 40.9447C96.8627 40.9642 96.6792 40.8041 96.6597 40.5894C96.6402 40.3746 96.8003 40.1872 97.015 40.1677L98.5104 40.0427C98.5612 40.0427 98.6002 40.0388 98.6393 40.0388C98.9516 40.0388 99.264 40.1169 99.5412 40.2653C99.7325 40.3668 99.8028 40.605 99.7013 40.7924C99.631 40.9251 99.4944 40.9993 99.3577 40.9993H99.3538Z" fill="#1B90FF"/>
<path d="M85.5081 56.1482C80.1469 56.7334 76.9421 61.3954 78.4817 66.6309C80.0488 71.9566 85.8616 75.676 91.3327 74.863C96.6859 74.0697 99.5609 69.2388 97.8917 64.1369C96.246 59.1214 90.7592 55.5748 85.5081 56.1482ZM90.6453 70.9748C90.5079 71.1986 90.2879 71.3322 89.9776 71.3754C89.6674 71.4186 89.3728 71.3597 89.1136 71.1908C88.8544 71.0219 88.6737 70.7862 88.5794 70.4799C88.4852 70.1735 88.5127 69.9261 88.6541 69.7022C88.7954 69.4823 89.0233 69.3487 89.3375 69.3055C89.6517 69.2623 89.9266 69.3252 90.1858 69.4941C90.4411 69.6629 90.6178 69.8907 90.7082 70.1853C90.7985 70.4799 90.7828 70.7548 90.6493 70.9787L90.6453 70.9748ZM91.6626 63.6341C91.5958 64.0465 91.4662 64.4 91.2698 64.6946C91.0734 64.9891 90.8064 65.3191 90.4725 65.6843C90.2094 65.9907 90.0169 66.242 89.8873 66.4345C89.7577 66.6269 89.6674 66.8587 89.6163 67.1257C89.5653 67.3928 89.5888 67.6952 89.687 68.033L88.1985 68.2333C88.0531 67.7267 88.0139 67.2828 88.0767 66.8979C88.1395 66.513 88.2574 66.191 88.4263 65.9239C88.5951 65.6568 88.8387 65.3544 89.1489 65.0088C89.2707 64.8674 89.3257 64.8045 89.3178 64.8163C89.5495 64.561 89.7302 64.3293 89.8598 64.1211C89.9894 63.913 90.0758 63.6734 90.1112 63.4024C90.1505 63.1314 90.1112 62.825 90.0051 62.4794C89.8755 62.071 89.6595 61.7253 89.3571 61.4504C89.0547 61.1755 88.7012 60.9791 88.3006 60.8652C87.9 60.7513 87.4836 60.7199 87.0595 60.7709C86.3879 60.8495 85.8773 61.0655 85.5277 61.419C85.1782 61.7725 84.915 62.2595 84.7383 62.88L83.2537 62.3145C83.4068 61.5447 83.7642 60.9084 84.3298 60.4057C84.8914 59.9029 85.6613 59.5966 86.6392 59.4827C87.4051 59.3924 88.1199 59.4434 88.7837 59.6359C89.4474 59.8283 90.0169 60.1464 90.4882 60.5903C90.9635 61.038 91.3012 61.58 91.5055 62.2281C91.6704 62.7504 91.7215 63.2178 91.6547 63.6302L91.6626 63.6341Z" fill="#00144A"/>
<path fill-rule="evenodd" clip-rule="evenodd" d="M100.467 30L100.467 35.51L99.4819 35.51L99.4819 30L100.467 30Z" fill="#00144A"/>
<path fill-rule="evenodd" clip-rule="evenodd" d="M106.119 32.0198L102.84 36.4538L102.047 35.8704L105.326 31.4363L106.119 32.0198Z" fill="#00144A"/>
<path fill-rule="evenodd" clip-rule="evenodd" d="M109.171 37.6079L103.796 38.8815L103.566 37.9236L108.941 36.65L109.171 37.6079Z" fill="#00144A"/>
</g>
<defs>
<clipPath id="clip0_4516_149767">
<rect width="160" height="160" fill="white"/>
</clipPath>
</defs>
</svg>
