<svg width="128" height="128" viewBox="0 0 128 128" fill="none" xmlns="http://www.w3.org/2000/svg">
<g clip-path="url(#clip0_4211_40782)">
<path d="M47.7816 21.5367C45.0109 22.898 10.1151 51.1965 10.1151 51.1965C8.45708 52.7978 8.06424 55.3005 9.82777 56.8274L71.5208 107.93C71.6961 108.081 71.8797 108.232 72.0633 108.367C73.4012 109.359 74.7467 109.889 76.2848 109.991C77.1834 110.05 78.0734 109.847 78.9371 109.591L84.5571 107.93L54.0279 21.1832C54.0279 21.1832 50.5523 20.1755 47.7816 21.5367Z" fill="#1B90FF"/>
<path d="M83.5616 99.4238L76.6432 96.2347L14.3853 45.1445L14.3613 49.2167C14.3613 50.7436 15.0236 52.1991 16.1887 53.1932L76.6352 104.649L78.2951 106.064C80.0746 107.584 82.3568 108.196 84.5512 107.918V102.064L83.5536 99.4238H83.5616Z" fill="#046C7C"/>
<path d="M89.4202 98.1675L84.5684 102.072V107.926C86.0924 107.735 87.5767 107.115 88.8136 106.049L89.4279 105.524L120.844 78.5237C122.009 77.5216 122.68 76.0662 122.672 74.5393V71.4297L89.4202 98.1755V98.1675Z" fill="#56BDFF"/>
<path d="M91.5259 100.973C87.7915 104.163 81.623 104.163 77.8407 100.973L16.4445 49.1835C13.3085 46.5352 13.8112 42.2803 17.5138 39.6957L46.2328 19.678C49.6404 17.3 54.9389 17.3 58.1068 19.678L119.615 65.9325C123.389 68.7718 123.74 73.4401 120.333 76.3509L91.534 100.973H91.5259Z" fill="#0899A7"/>
<path d="M48.3075 22.14L41.9651 26.5839L45.2477 29.1431C46.0319 29.756 45.9704 30.7444 45.1018 31.3651L33.6699 39.4715C32.7705 40.1074 31.4097 40.1074 30.6256 39.4715L27.3505 36.8127L20.6391 41.5096C17.8945 43.4329 17.5332 46.5742 19.8626 48.5281L79.0203 98.2163C81.8187 100.569 86.3622 100.569 89.1297 98.2163L116.883 74.5944C119.412 72.4412 119.166 68.9933 116.375 66.8864L57.11 22.14C54.7651 20.37 50.8368 20.37 48.3075 22.14Z" fill="white"/>
</g>
<path d="M54.9555 46.6089C48.5522 53.0122 48.0331 62.8749 53.7961 68.6379C59.5591 74.4009 69.4218 73.8818 75.8251 67.4785C81.345 61.9586 82.4908 53.8714 79.0137 48.0525C78.5933 47.3489 77.6429 47.1814 76.891 47.6784C76.1391 48.1755 75.8704 49.1488 76.2908 49.8525C79.0723 54.5072 78.1515 60.9782 73.7381 65.3915C68.6155 70.5142 60.7253 70.9294 56.115 66.3191C51.5046 61.7087 51.9198 53.8185 57.0425 48.6959C60.4744 45.264 65.1509 43.9433 69.2512 44.835L64.6947 49.3915C64.0543 50.0319 64.0024 51.0181 64.5787 51.5944C65.155 52.1707 66.1413 52.1188 66.7816 51.4785L73.0561 45.204C73.1193 45.1491 73.1791 45.0894 73.2349 45.0252L73.7381 44.522C74.3785 43.8816 74.4304 42.8954 73.8541 42.3191L67.5932 36.0582C67.0169 35.4819 66.0306 35.5338 65.3903 36.1741C64.75 36.8145 64.6981 37.8007 65.2744 38.377L68.4042 41.5068C63.7559 41.088 58.7494 42.815 54.9555 46.6089Z" fill="#D20A0A"/>
<defs>
<clipPath id="clip0_4211_40782">
<rect width="128" height="128" fill="white"/>
</clipPath>
</defs>
</svg>
