<svg width="128" height="189" viewBox="0 0 128 189" fill="none" xmlns="http://www.w3.org/2000/svg">
<circle cx="64" cy="64.7695" r="64" fill="#223548"/>
<path fill-rule="evenodd" clip-rule="evenodd" d="M115.44 102.854C103.779 118.579 85.08 128.77 64.0001 128.77C43.5408 128.77 25.3236 119.17 13.6078 104.228C13.4531 101.285 13.374 98.3021 13.374 95.2853V95.2852H115.608V95.2853C115.608 97.8336 115.551 100.358 115.44 102.854Z" fill="#2A4259"/>
<path fill-rule="evenodd" clip-rule="evenodd" d="M115.441 102.854C112.31 107.076 108.673 110.898 104.618 114.231C105.335 108.117 105.721 101.78 105.741 95.2852H115.608V95.2853C115.608 97.8336 115.551 100.358 115.441 102.854Z" fill="#324E6B"/>
<ellipse cx="64.4908" cy="95.2858" rx="51.1168" ry="10.0104" fill="#3B5B7C"/>
<ellipse cx="7.24272" cy="8.95233" rx="7.24272" ry="8.95233" transform="matrix(-0.877901 -0.478843 -0.478843 0.877901 33.29 48.543)" fill="#324E6B"/>
<path fill-rule="evenodd" clip-rule="evenodd" d="M115.607 79.2987L115.608 79.2987C115.607 51.6694 92.7217 29.2715 64.4908 29.2715C36.2683 29.2715 13.3878 51.656 13.374 79.2739C13.3739 79.2822 13.3739 79.2904 13.3739 79.2987C13.3739 84.8273 36.2596 89.3091 64.4906 89.3091C92.7216 89.3091 115.607 84.8273 115.607 79.2987Z" fill="#2A4259"/>
<path fill-rule="evenodd" clip-rule="evenodd" d="M97.1134 72.7823C97.1134 72.8298 97.1133 72.8773 97.1131 72.9247H97.1052C96.7184 76.3872 82.2646 79.1707 64.491 79.1707C46.7174 79.1707 32.2637 76.3872 31.8769 72.9247H31.8695C31.8693 72.8859 31.8692 72.8471 31.8692 72.8083C31.869 72.7996 31.8689 72.7909 31.8689 72.7822C31.8689 72.7736 31.869 72.7649 31.8692 72.7562C31.8836 55.1355 46.4835 40.8555 64.4913 40.8555C82.508 40.8555 97.1134 55.1496 97.1134 72.7823Z" fill="#3B5B7C"/>
<rect x="40.8828" y="10.7422" width="4.48261" height="30.1132" rx="2.2413" fill="#3B5B7C"/>
<rect x="83.6172" y="8.28125" width="4.48261" height="32.5733" rx="2.2413" fill="#3B5B7C"/>
<circle cx="43.1233" cy="14.8314" r="6.5501" fill="#2A4259"/>
<path fill-rule="evenodd" clip-rule="evenodd" d="M40.5596 19.5904C44.1771 19.5904 47.1097 16.6578 47.1097 13.0403C47.1097 11.3844 46.4953 9.87204 45.4819 8.71875C47.9341 9.6655 49.6736 12.0453 49.6736 14.8314C49.6736 18.4489 46.741 21.3815 43.1235 21.3815C41.1618 21.3815 39.4016 20.5192 38.2012 19.153C38.933 19.4355 39.7282 19.5904 40.5596 19.5904Z" fill="#324E6B"/>
<circle cx="85.8577" cy="14.8314" r="6.5501" fill="#5D36FF"/>
<circle cx="52.9093" cy="60.0128" r="4.56358" fill="#CEDBE8"/>
<circle cx="76.0714" cy="60.0128" r="4.56358" fill="#64EDD2"/>
<line x1="59.8137" y1="72.2029" x2="69.1679" y2="72.2029" stroke="white" stroke-width="1.87156" stroke-linecap="round"/>
<ellipse cx="105.836" cy="52.9341" rx="7.24272" ry="8.95233" transform="rotate(-28.6099 105.836 52.9341)" fill="#4098FF"/>
<path fill-rule="evenodd" clip-rule="evenodd" d="M50.1425 88.9093V31.269C54.6945 29.9687 59.5092 29.2714 64.4904 29.2714C92.715 29.2714 115.597 51.6593 115.607 79.28L115.607 79.2987C115.607 84.8273 92.7215 89.3091 64.4905 89.3091C59.5093 89.3091 54.6945 89.1695 50.1425 88.9093Z" fill="#4098FF"/>
<path fill-rule="evenodd" clip-rule="evenodd" d="M105.355 85.3142C105.714 82.9295 105.9 80.49 105.9 78.0081C105.9 54.1351 88.7055 34.18 65.7395 29.2871C93.3868 29.9362 115.596 52.069 115.607 79.2809L115.607 79.2997C115.607 81.5569 111.792 83.6397 105.355 85.3142Z" fill="#1782FF"/>
<path fill-rule="evenodd" clip-rule="evenodd" d="M50.1425 78.5212V44.1016C54.4726 42.0227 59.3426 40.8555 64.491 40.8555C82.5077 40.8555 97.1131 55.1496 97.1131 72.7823C97.1131 72.8298 97.113 72.8773 97.1128 72.9247H97.1049C96.7181 76.3872 82.2644 79.1707 64.4908 79.1707C59.3424 79.1707 54.4726 78.9372 50.1425 78.5212Z" fill="#688FB7"/>
<rect x="83.6162" y="10.7422" width="4.48261" height="30.1132" rx="2.2413" fill="white"/>
<circle cx="85.8577" cy="14.8314" r="6.5501" fill="#4098FF"/>
<path fill-rule="evenodd" clip-rule="evenodd" d="M82.8696 19.8193C86.4871 19.8193 89.4197 16.8868 89.4197 13.2692C89.4197 11.3575 88.6007 9.63705 87.2944 8.43961C90.2208 9.09456 92.4077 11.7077 92.4077 14.8316C92.4077 18.4492 89.4751 21.3817 85.8576 21.3817C84.1518 21.3817 82.5983 20.7297 81.4328 19.6612C81.8952 19.7647 82.376 19.8193 82.8696 19.8193Z" fill="#1782FF"/>
<path fill-rule="evenodd" clip-rule="evenodd" d="M50.1425 63.6423V56.3834C50.9101 55.7974 51.8691 55.4493 52.9094 55.4493C55.4298 55.4493 57.4729 57.4925 57.4729 60.0129C57.4729 62.5333 55.4298 64.5764 52.9094 64.5764C51.8691 64.5764 50.9101 64.2284 50.1425 63.6423Z" fill="#64EDD2"/>
<circle cx="76.0714" cy="60.0128" r="4.56358" fill="#64EDD2"/>
<path fill-rule="evenodd" clip-rule="evenodd" d="M59.0116 70.5436C59.2942 70.0426 59.9295 69.8656 60.4305 70.1483C62.9501 71.5699 66.0299 71.5699 68.5495 70.1483C69.0505 69.8656 69.6858 70.0426 69.9684 70.5436C70.2511 71.0445 70.0741 71.6798 69.5731 71.9625C66.4182 73.7426 62.5618 73.7426 59.4068 71.9625C58.9059 71.6798 58.7289 71.0445 59.0116 70.5436Z" fill="white"/>
<rect x="46.71" y="94.7559" width="71.5706" height="3.77276" rx="1.88638" transform="rotate(-90 46.71 94.7559)" fill="#F58B00"/>
</svg>
