<svg width="136" height="129" viewBox="0 0 136 129" fill="none" xmlns="http://www.w3.org/2000/svg">
<circle cx="67" cy="64.7695" r="64" fill="#EBF8FF"/>
<path fill-rule="evenodd" clip-rule="evenodd" d="M112.297 19.5585C117.528 24.7993 121.855 30.9424 125.025 37.7342C117.735 64.4717 99.1302 68.3788 90.8662 69.1041C82.0607 65.6206 73.8598 56.1172 80.7943 18.175C92.7524 19.9162 100.551 16.5074 104.069 12.5936C105.181 13.3846 106.266 14.2103 107.323 15.069C108.518 16.6026 110.174 18.1462 112.297 19.5585Z" fill="#B8E6FF"/>
<path fill-rule="evenodd" clip-rule="evenodd" d="M100.131 10.0018C101.57 10.8741 102.971 11.8015 104.333 12.781L101.959 16.8069L98.9648 9.66797L100.131 10.0018Z" fill="#B8E6FF"/>
<path fill-rule="evenodd" clip-rule="evenodd" d="M115.711 23.2581C117.243 25.0535 118.677 26.9347 120.005 28.8933C115.039 63.0852 99.3132 68.3387 90.2722 69.1322C81.4667 65.6487 67.0702 55.4358 74.0047 17.4936C87.5077 19.4597 96.2088 14.1548 98.9294 9.67554C100.089 14.0931 105.423 20.4068 115.711 23.2581Z" fill="#D1EFFF"/>
<path d="M79.8207 22.393C90.136 23.895 94.6863 24.5939 96.7798 21.0681C97.7715 25.0074 104.957 26.0534 115.12 27.5329L115.408 27.5748C112.099 57.6974 99.3081 62.2122 92.095 62.8916C85.375 60.1835 74.4023 52.2085 79.8207 22.393Z" fill="#9EDDFF"/>
<path d="M78.4172 22.188C88.7325 23.69 95.3999 19.4973 97.4934 15.9716C98.4945 19.9479 103.689 25.8678 114.005 27.3697C110.696 57.4924 97.9046 62.0071 90.6914 62.6865C83.9715 59.9784 72.9988 52.0035 78.4172 22.188Z" fill="#B8E6FF"/>
<path fill-rule="evenodd" clip-rule="evenodd" d="M102.439 34.7399C102.848 35.3306 102.716 36.163 102.146 36.5991L90.4545 45.5335C89.8838 45.9696 89.0899 45.8443 88.6813 45.2536L85.5423 40.7157C85.1337 40.125 85.265 39.2925 85.8358 38.8564C86.4065 38.4203 87.2004 38.5456 87.609 39.1363L90.0081 42.6046L100.666 34.46C101.237 34.0238 102.03 34.1492 102.439 34.7399Z" fill="#EBF8FF"/>
<path fill-rule="evenodd" clip-rule="evenodd" d="M10.2414 35.1707C13.6117 28.7213 18.0489 22.9178 23.3189 17.9944C24.8919 17.4901 26.6404 17.0896 28.582 16.8044C51.9194 13.3774 56.3685 38.6329 57.0027 52.8119L46.8097 53.2678C46.576 43.6039 43.2326 24.296 31.2347 25.881C19.9612 27.3703 21.2907 35.2231 23.2164 46.5976C23.5542 48.5926 23.9103 50.6959 24.2199 52.8923C25.7033 63.4135 16.2964 59.9096 11.905 56.8719C11.7552 55.6974 11.5932 54.5049 11.4296 53.3017C10.6032 47.2204 9.73935 40.8646 10.2414 35.1707Z" fill="#005DC9"/>
<path fill-rule="evenodd" clip-rule="evenodd" d="M25.7055 113.668C11.9902 102.073 3.21909 84.8129 3.00391 65.4982C4.74081 57.5484 12.1557 51.6083 20.8386 52.3195L49.7714 54.6894C53.7939 55.0189 57.0268 58.1379 57.5002 62.146L62.3846 103.5C62.9705 108.46 59.164 112.849 54.171 112.971L25.7055 113.668Z" fill="#005DC9"/>
<path d="M16.8352 48.957L7.49414 57.4159L19.443 57.7749L16.8352 48.957Z" fill="#005DC9"/>
<path d="M70.6128 100.129L58.7632 111.431L60.844 103.872L70.6128 100.129Z" fill="#005DC9"/>
<path fill-rule="evenodd" clip-rule="evenodd" d="M54.0358 52.9446C53.9238 51.7764 53.6307 50.2206 53.1272 48.2127C49.5934 34.1209 41.3246 24.5782 32.5412 25.7892C42.4328 25.7296 45.9193 40.6476 46.6615 50.3818C47.5735 51.4073 48.4453 52.3524 49.2502 53.1586L54.0358 52.9446Z" fill="#004DA5"/>
<path d="M13.1768 56.7678C12.663 51.7988 16.5347 47.4646 21.53 47.4167L56.7154 47.079C62.1784 47.0266 66.8861 50.9143 67.8675 56.2886L74.0577 90.1871C75.2775 96.8667 70.3349 103.092 63.5527 103.418L33.388 104.869C24.8823 105.278 17.5398 98.9684 16.664 90.4981L13.1768 56.7678Z" fill="#0070F2"/>
<path d="M40.8054 90.1288L39.3257 76.6893C37.4352 76.1961 33.6171 73.9521 33.4692 68.9216C33.2842 62.6334 37.9856 61.0004 40.7659 61C43.8305 60.9996 49.1896 62.6334 50.2376 69.4147C51.076 74.8398 48.3265 76.5249 46.8469 76.6893L48.5115 90.1288H40.8054Z" fill="#00144A"/>
<path fill-rule="evenodd" clip-rule="evenodd" d="M37.4316 61.7303C40.5227 61.7966 45.6864 63.4998 46.7131 70.1429C47.5515 75.568 44.802 77.2531 43.3224 77.4175L44.8967 90.1288H48.5113L46.8468 76.6893C48.3263 76.5249 51.0759 74.8398 50.2374 69.4147C49.1894 62.6334 43.8303 60.9996 40.7657 61C39.7924 61.0001 38.5837 61.2003 37.4316 61.7303Z" fill="#004DA5"/>
<path fill-rule="evenodd" clip-rule="evenodd" d="M127.273 86.3452C124.48 94.1467 120.215 101.248 114.814 107.315L51.5611 108.143C44.18 108.239 37.3585 102.393 36.3248 95.0836C35.2911 87.7747 40.4366 81.7713 47.8177 81.6747L115.478 80.7889C120.032 80.7293 124.373 82.9322 127.273 86.3452Z" fill="#CC7400"/>
<path fill-rule="evenodd" clip-rule="evenodd" d="M128.699 81.8397C126.518 89.7396 122.861 97.0268 118.043 103.386L53.5171 104.231C46.1361 104.327 39.3146 98.4804 38.2809 91.1715C37.2472 83.8626 42.3927 77.8592 49.7737 77.7625L117.434 76.8768C121.718 76.8207 125.814 78.7672 128.699 81.8397Z" fill="#F58B00"/>
<path d="M63.9723 90.5221C63.9723 90.5221 63.972 90.5223 63.9718 90.5223L59.8019 91.6802C59.6947 91.7099 59.6667 91.841 59.7473 91.9309L63.1594 95.7373L63.1594 95.7378C63.5056 96.1232 63.4737 96.6781 63.0898 96.9339C63.0898 96.9341 63.0898 96.9341 63.0898 96.9341L61.772 97.8131L61.7718 97.8131C61.4079 98.0558 60.873 97.9312 60.5836 97.5373L60.5833 97.5373L57.7676 93.6977C57.6915 93.5939 57.5385 93.5948 57.4901 93.6988L55.678 97.5773L55.6778 97.5773C55.4951 97.9695 55.0016 98.0996 54.5763 97.8699L54.5761 97.8699L54.5758 97.8697L53.0135 97.0239L53.013 97.0239C52.5558 96.7765 52.3684 96.2184 52.6119 95.8254L54.9865 91.9883L54.9865 91.9879C55.0431 91.8969 54.9791 91.7659 54.8634 91.7382L54.8632 91.7382L50.4444 90.6916C49.9612 90.577 49.6273 90.0944 49.7166 89.6407L50.0365 88.0199L50.0365 88.0194C50.1258 87.5694 50.5957 87.3331 51.0648 87.5049L55.319 89.0588L55.3192 89.0588C55.4327 89.1005 55.5389 89.0178 55.5187 88.9025L54.7303 84.3934L54.7303 84.3927L54.73 84.3927C54.6479 83.9269 54.9716 83.5379 55.4408 83.5322L55.441 83.5322L57.0609 83.5118C57.5322 83.5058 57.9648 83.8893 58.0116 84.3572L58.4582 88.8336C58.4697 88.9487 58.5971 89.029 58.6996 88.9859L58.6998 88.9859L62.4762 87.3922L62.4769 87.3922C62.8933 87.2174 63.4201 87.4377 63.6358 87.8797L64.4021 89.4527C64.622 89.9047 64.424 90.397 63.9723 90.5221Z" fill="white"/>
<path d="M82.9996 90.3268C82.9996 90.3268 82.9994 90.327 82.9992 90.327L78.8293 91.4849C78.7221 91.5146 78.694 91.6456 78.7746 91.7356L82.1867 95.542L82.1867 95.5425C82.533 95.9278 82.5011 96.4827 82.1172 96.7386C82.1172 96.7388 82.1172 96.7388 82.1172 96.7388L80.7994 97.6178L80.7992 97.6178C80.4353 97.8605 79.9004 97.7359 79.6109 97.342L79.6107 97.342L76.7949 93.5024C76.7188 93.3986 76.5659 93.3994 76.5174 93.5034L74.7053 97.382L74.7051 97.382C74.5224 97.7742 74.029 97.9043 73.6036 97.6746L73.6034 97.6746L73.6032 97.6744L72.0408 96.8286L72.0404 96.8286C71.5831 96.5812 71.3957 96.0231 71.6393 95.6301L74.0139 91.793L74.0139 91.7926C74.0705 91.7016 74.0064 91.5706 73.8907 91.5429L73.8905 91.5429L69.4718 90.4963C68.9886 90.3817 68.6546 89.8991 68.744 89.4454L69.0638 87.8245L69.0638 87.8241C69.1532 87.3741 69.623 87.1378 70.0922 87.3096L74.3463 88.8635L74.3465 88.8635C74.4601 88.9052 74.5662 88.8225 74.546 88.7072L73.7576 84.1981L73.7576 84.1974L73.7574 84.1974C73.6753 83.7316 73.999 83.3426 74.4682 83.3369L74.4684 83.3369L76.0882 83.3165C76.5595 83.3105 76.9921 83.694 77.0389 84.1619L77.4855 88.6383C77.497 88.7533 77.6244 88.8337 77.7269 88.7906L77.7271 88.7906L81.5036 87.1969L81.5042 87.1969C81.9207 87.0221 82.4475 87.2424 82.6631 87.6844L83.4294 89.2574C83.6494 89.7094 83.4513 90.2017 82.9996 90.3268Z" fill="white"/>
<path d="M101.983 90.024C101.983 90.024 101.983 90.0243 101.983 90.0243L97.8132 91.1821C97.706 91.2119 97.6779 91.3429 97.7585 91.4329L101.171 95.2393L101.171 95.2397C101.517 95.6251 101.485 96.18 101.101 96.4359C101.101 96.4361 101.101 96.4361 101.101 96.4361L99.7833 97.3151L99.7831 97.3151C99.4192 97.5578 98.8842 97.4331 98.5948 97.0393L98.5946 97.0393L95.7788 93.1996C95.7027 93.0959 95.5498 93.0967 95.5013 93.2007L93.6892 97.0792L93.689 97.0792C93.5063 97.4714 93.0129 97.6016 92.5875 97.3719L92.5873 97.3719L92.5871 97.3717L91.0247 96.5258L91.0243 96.5258C90.567 96.2785 90.3796 95.7204 90.6231 95.3273L92.9978 91.4903L92.9978 91.4899C93.0543 91.3988 92.9903 91.2678 92.8746 91.2402L92.8744 91.2402L88.4557 90.1936C87.9724 90.0789 87.6385 89.5963 87.7279 89.1427L88.0477 87.5218L88.0477 87.5214C88.1371 87.0713 88.6069 86.8351 89.0761 87.0069L93.3302 88.5608L93.3304 88.5608C93.444 88.6025 93.5501 88.5197 93.5299 88.4045L92.7415 83.8953L92.7415 83.8947L92.7413 83.8947C92.6592 83.4289 92.9829 83.0399 93.4521 83.0342L93.4523 83.0342L95.0721 83.0137C95.5434 83.0078 95.976 83.3913 96.0228 83.8592L96.4694 88.3355C96.4809 88.4506 96.6083 88.531 96.7108 88.4878L96.711 88.4878L100.487 86.8942L100.488 86.8942C100.905 86.7194 101.431 86.9397 101.647 87.3817L102.413 88.9547C102.633 89.4066 102.435 89.899 101.983 90.024Z" fill="white"/>
<path d="M121.001 89.8483C121.001 89.8483 121.001 89.8485 121.001 89.8485L116.831 91.0063C116.724 91.0361 116.695 91.1671 116.776 91.2571L120.188 95.0635L120.188 95.0639C120.534 95.4493 120.503 96.0042 120.119 96.2601C120.119 96.2603 120.119 96.2603 120.119 96.2603L118.801 97.1393L118.801 97.1393C118.437 97.382 117.902 97.2574 117.612 96.8635L117.612 96.8635L114.796 93.0239C114.72 92.9201 114.567 92.9209 114.519 93.0249L112.707 96.9035L112.707 96.9035C112.524 97.2956 112.03 97.4258 111.605 97.1961L111.605 97.1961L111.605 97.1959L110.042 96.35L110.042 96.35C109.585 96.1027 109.397 95.5446 109.641 95.1516L112.015 91.3145L112.015 91.3141C112.072 91.2231 112.008 91.092 111.892 91.0644L111.892 91.0644L107.473 90.0178C106.99 89.9031 106.656 89.4206 106.745 88.9669L107.065 87.346L107.065 87.3456C107.155 86.8956 107.624 86.6593 108.094 86.8311L112.348 88.385L112.348 88.385C112.462 88.4267 112.568 88.3439 112.547 88.2287L111.759 83.7195L111.759 83.7189L111.759 83.7189C111.677 83.2531 112 82.8641 112.47 82.8584L112.47 82.8584L114.09 82.838C114.561 82.832 114.994 83.2155 115.04 83.6834L115.487 88.1598C115.498 88.2748 115.626 88.3552 115.728 88.312L115.729 88.312L119.505 86.7184L119.506 86.7184C119.922 86.5436 120.449 86.7639 120.665 87.2059L121.431 88.7789C121.651 89.2308 121.453 89.7232 121.001 89.8483Z" fill="white"/>
</svg>
