<svg width="320" height="240" viewBox="0 0 320 240" fill="none" xmlns="http://www.w3.org/2000/svg">
<mask id="mask0_2672_44862" style="mask-type:alpha" maskUnits="userSpaceOnUse" x="0" y="40" width="320" height="200">
<path d="M14.4533 40H305.547C307.444 39.9983 309.323 40.3705 311.077 41.0954C312.83 41.8203 314.424 42.8836 315.766 44.2247C317.108 45.5657 318.173 47.1582 318.9 48.911C319.626 50.6638 320 52.5426 320 54.44V225.547C320 229.38 318.477 233.056 315.767 235.767C313.056 238.477 309.38 240 305.547 240H14.4533C10.6201 240 6.94379 238.477 4.23328 235.767C1.52274 233.056 0 229.38 0 225.547V54.44C0 52.5426 0.373932 50.6638 1.10046 48.911C1.82697 47.1582 2.89178 45.5657 4.23407 44.2247C5.57639 42.8836 7.1698 41.8203 8.92328 41.0954C10.6768 40.3705 12.5559 39.9983 14.4533 40Z" fill="#EBF8FF"/>
</mask>
<g mask="url(#mask0_2672_44862)">
<path d="M14.4533 40H305.547C307.444 39.9983 309.323 40.3705 311.077 41.0954C312.83 41.8203 314.424 42.8836 315.766 44.2247C317.108 45.5657 318.173 47.1582 318.9 48.911C319.626 50.6638 320 52.5426 320 54.44V225.547C320 229.38 318.477 233.056 315.767 235.767C313.056 238.477 309.38 240 305.547 240H14.4533C10.6201 240 6.94379 238.477 4.23328 235.767C1.52274 233.056 0 229.38 0 225.547V54.44C0 52.5426 0.373932 50.6638 1.10046 48.911C1.82697 47.1582 2.89178 45.5657 4.23407 44.2247C5.57639 42.8836 7.1698 41.8203 8.92328 41.0954C10.6768 40.3705 12.5559 39.9983 14.4533 40Z" fill="#EBF8FF"/>
<path d="M5.77301 155.764C37.2064 152.922 68.5329 157.336 99.6729 161.259C120.821 163.922 142.014 166.199 163.154 168.939C184.513 171.707 205.873 174.541 227.309 176.675C237.986 177.736 248.677 178.655 259.389 179.284C269.841 179.895 280.48 178.867 290.902 178.088C300.584 177.361 310.291 176.595 319.992 176.294V240.392H6.10352e-05V156.269C1.91888 156.101 3.84045 155.94 5.77026 155.764H5.77301Z" fill="#B8E6FF"/>
<g style="mix-blend-mode:screen" opacity="0.6">
<path d="M258.517 180.76C257.807 180.894 280.228 186.828 284.392 187.711C279.153 189.266 218.452 194.514 193.617 192.114C180.686 190.863 168.252 188.27 155.648 185.242C145.473 182.795 135.037 180.955 125.278 177.087C133.535 177.21 150.807 178.818 150.215 178.538C135.865 171.713 119.714 169.842 104.733 164.789C99.8949 163.16 95.0676 161.476 90.1663 160.055C93.3352 160.455 96.504 160.858 99.6728 161.259C120.821 163.922 142.013 166.199 163.154 168.94C184.513 171.707 205.873 174.541 227.309 176.675C237.986 177.737 248.676 178.656 259.389 179.284C263.227 179.509 267.092 179.509 270.96 179.385C266.79 179.616 262.635 179.981 258.515 180.76H258.517Z" fill="#9EDDFF"/>
</g>
<g style="mix-blend-mode:multiply" opacity="0.4">
<path d="M5.77307 155.765C29.9176 153.584 53.9963 155.682 77.9736 158.549C77.1842 158.557 76.4002 158.543 75.608 158.56C67.0856 158.749 57.3817 158.626 49.287 161.665C47.4887 162.34 44.4515 163.632 44.6214 166.043C44.8955 169.949 50.441 172.668 53.4152 173.962C60.8165 177.188 69.0565 179.144 76.921 180.859C86.6221 182.971 96.5535 184.628 106.436 185.643C124.593 187.508 143.181 187.187 160.983 191.579C147.732 192.725 120.27 194.111 121.137 194.144C129.999 194.497 138.697 196.152 147.381 197.855C130.753 199.46 114.064 200.228 97.5075 202.557C88.2751 203.854 79.1469 205.486 69.994 207.245C65.6519 208.076 61.2496 208.537 56.9322 209.491C52.9629 210.369 47.8423 211.346 45.0079 214.552C43.5359 216.22 43.7634 218.47 45.5945 219.726C48.4536 221.693 52.3489 222.137 55.7041 222.524C60.0242 223.02 64.3773 223.204 68.7221 223.245C85.5174 223.404 102.255 223.898 118.988 221.959C139.292 219.608 159.719 217.348 179.461 211.881C189.73 209.039 199.902 205.78 210.283 203.36C220.535 200.974 230.903 199.114 241.327 197.682C252.111 196.201 263.032 194.777 273.909 194.209C284.405 193.661 306.291 192.761 305.589 192.533C299.309 190.484 292.876 189.066 286.365 188.046C290.743 187.95 295.151 188.534 299.537 188.586C300.258 188.594 288.674 184.943 283.098 184.071C293.059 181.778 308.566 188.367 314.15 177.474C314.339 177.103 314.183 176.722 313.827 176.552C315.883 176.45 317.941 176.357 320 176.291V240.39H0.00836182V156.269C1.92719 156.102 3.84875 155.94 5.77856 155.765H5.77307Z" fill="#B8E6FF"/>
</g>
</g>
<ellipse cx="279.667" cy="74.6667" rx="2.66666" ry="2.66667" fill="#EBF8FF"/>
<circle cx="155" cy="80.666" r="2" fill="#EBF8FF"/>
<ellipse cx="88.9998" cy="122.667" rx="1.33334" ry="1.33333" fill="#EBF8FF"/>
<ellipse cx="242.333" cy="78.6673" rx="1.33334" ry="1.33333" fill="#EBF8FF"/>
<ellipse cx="290.333" cy="111.999" rx="1.33333" ry="1.33334" fill="#EBF8FF"/>
<ellipse cx="30.3333" cy="93.3333" rx="1.33333" ry="1.33333" fill="#EBF8FF"/>
<ellipse cx="89.6665" cy="62" rx="2" ry="2" fill="#EBF8FF"/>
<circle cx="15" cy="126" r="2" fill="#EBF8FF"/>
<path d="M45.9273 128.174H58.1445V160.426H45.9273V128.174Z" fill="#9EDDFF"/>
<path d="M43.5269 127.088C42.8083 127.908 43.0886 128.576 44.1953 128.576H59.5747C60.6527 128.576 60.9617 127.929 60.1999 127.138L53.0133 119.611C52.8388 119.418 52.6258 119.264 52.3881 119.158C52.1617 119.057 51.9172 119.003 51.6694 119C51.4218 119.005 51.1776 119.059 50.9507 119.158C50.7163 119.266 50.506 119.42 50.3327 119.611L43.5269 127.088Z" fill="#B8E6FF"/>
<path d="M51.7264 136.744C51.1579 136.744 50.6021 136.575 50.1294 136.259C49.6566 135.943 49.2882 135.494 49.0706 134.968C48.853 134.443 48.7961 133.865 48.907 133.307C49.0179 132.749 49.2917 132.237 49.6937 131.834C50.0958 131.432 50.608 131.158 51.1656 131.047C51.7232 130.936 52.3012 130.993 52.8265 131.211C53.3518 131.429 53.8008 131.797 54.1166 132.27C54.4325 132.743 54.6011 133.299 54.6011 133.868C54.6011 134.631 54.2982 135.362 53.7591 135.901C53.22 136.441 52.4888 136.744 51.7264 136.744Z" fill="#B8E6FF"/>
<path d="M21.7514 148.018H47.4795V160.448H21.7514V148.018Z" fill="#9EDDFF"/>
<path d="M34.8023 152.201C34.2342 152.202 33.6893 152.426 33.2859 152.827C33.0844 153.026 32.9241 153.263 32.8144 153.525C32.7046 153.787 32.6475 154.067 32.6463 154.351V160.498H36.8721V154.351C36.8717 153.793 36.6553 153.257 36.2684 152.855C35.8852 152.452 35.3582 152.217 34.8023 152.201Z" fill="#B8E6FF"/>
<path d="M41.1625 152.689H44.0372C44.2278 152.689 44.4106 152.765 44.5454 152.9C44.6801 153.035 44.7559 153.218 44.7559 153.408V156.284C44.7559 156.475 44.6801 156.658 44.5454 156.793C44.4106 156.927 44.2278 157.003 44.0372 157.003H41.1625C40.9719 157.003 40.7891 156.927 40.6544 156.793C40.5196 156.658 40.4439 156.475 40.4439 156.284V153.408C40.4439 153.218 40.5196 153.035 40.6544 152.9C40.7891 152.765 40.9719 152.689 41.1625 152.689Z" fill="#B8E6FF"/>
<path d="M25.0788 152.574H29.3908C29.4996 152.573 29.6075 152.594 29.7082 152.635C29.8089 152.676 29.9004 152.737 29.9773 152.814C30.0543 152.891 30.1151 152.983 30.1563 153.083C30.1975 153.184 30.2182 153.292 30.2173 153.401V156.04C30.2182 156.148 30.1975 156.256 30.1563 156.357C30.1151 156.458 30.0543 156.549 29.9773 156.626C29.9004 156.703 29.8089 156.764 29.7082 156.805C29.6075 156.847 29.4996 156.867 29.3908 156.866H25.0788C24.8596 156.866 24.6494 156.779 24.4944 156.624C24.3394 156.469 24.2524 156.259 24.2524 156.04V153.401C24.2524 153.182 24.3394 152.971 24.4944 152.816C24.6494 152.661 24.8596 152.574 25.0788 152.574Z" fill="#B8E6FF"/>
<path d="M22.7287 141.367H46.7752C47.26 141.369 47.7243 141.563 48.0664 141.907C48.4085 142.25 48.6006 142.716 48.6006 143.2V149.024C48.6006 149.509 48.4085 149.974 48.0664 150.318C47.7243 150.661 47.26 150.855 46.7752 150.857H22.7287C22.4884 150.857 22.2505 150.81 22.0285 150.718C21.8066 150.625 21.605 150.49 21.4354 150.32C21.2658 150.15 21.1315 149.947 21.0402 149.725C20.9489 149.503 20.9024 149.264 20.9033 149.024V143.2C20.9024 142.96 20.9489 142.722 21.0402 142.499C21.1315 142.277 21.2658 142.075 21.4354 141.905C21.605 141.734 21.8066 141.599 22.0285 141.507C22.2505 141.415 22.4884 141.367 22.7287 141.367Z" fill="#B8E6FF"/>
<path d="M73.6242 160.49H91.9717V172.921H73.6242V160.49Z" fill="#B8E6FF"/>
<path d="M71.5402 161.296C70.7856 161.907 70.9724 162.375 71.9355 162.375H94.1422C95.1124 162.375 95.2848 161.879 94.5302 161.296L84.1384 153.05C83.7457 152.751 83.2661 152.59 82.7729 152.59C82.2797 152.59 81.8001 152.751 81.4075 153.05L71.5402 161.296Z" fill="#9EDDFF"/>
<path d="M87.0489 164.695C86.4771 164.695 85.9287 164.923 85.5244 165.327C85.1201 165.732 84.8929 166.28 84.8929 166.852V172.999H89.1187V166.852C89.1187 166.28 88.8915 165.732 88.4872 165.327C88.0829 164.923 87.5345 164.695 86.9627 164.695H87.0489Z" fill="#9EDDFF"/>
<path d="M5.55248 145.205H23.8999V157.636H5.55248V145.205Z" fill="#B8E6FF"/>
<path d="M3.44664 146.018C2.72798 146.629 2.88608 147.089 3.84909 147.089H26.0845C27.0404 147.089 27.1553 146.608 26.4582 146.018L16.0664 137.743C15.6729 137.45 15.1953 137.291 14.7045 137.291C14.2137 137.291 13.7361 137.45 13.3426 137.743L3.44664 146.018Z" fill="#9EDDFF"/>
<path d="M11.2157 149.412C10.6439 149.412 10.0956 149.639 9.69122 150.044C9.2869 150.448 9.05974 150.997 9.05974 151.569V157.723H13.3286V151.569C13.3262 151.003 13.1017 150.461 12.7034 150.059C12.3106 149.658 11.7769 149.426 11.2157 149.412Z" fill="#9EDDFF"/>
<path d="M17.576 149.908H20.4937C20.6843 149.908 20.8671 149.984 21.0019 150.119C21.1367 150.254 21.2124 150.436 21.2124 150.627V153.503C21.2124 153.694 21.1367 153.876 21.0019 154.011C20.8671 154.146 20.6843 154.222 20.4937 154.222H17.576C17.3854 154.222 17.2025 154.146 17.0678 154.011C16.933 153.876 16.8573 153.694 16.8573 153.503V150.627C16.8573 150.436 16.933 150.254 17.0678 150.119C17.2025 149.984 17.3854 149.908 17.576 149.908Z" fill="#9EDDFF"/>
<path d="M47.0625 164.199L82.0614 171.885L82.1836 150.41H47.0625V164.199Z" fill="#B8E6FF"/>
<path d="M47.3787 143.352H82.277C82.5226 143.351 82.766 143.398 82.9932 143.492C83.2203 143.586 83.4266 143.723 83.6003 143.897C83.774 144.071 83.9116 144.277 84.0052 144.504C84.0988 144.732 84.1464 144.975 84.1455 145.221V153.266C84.1455 153.762 83.9486 154.237 83.5982 154.588C83.2478 154.938 82.7725 155.135 82.277 155.135H47.3787C46.8825 155.135 46.4065 154.938 46.0549 154.588C45.7033 154.238 45.5049 153.762 45.503 153.266V145.221C45.503 144.975 45.5516 144.731 45.6459 144.504C45.7403 144.277 45.8785 144.07 46.0528 143.897C46.2271 143.723 46.4339 143.585 46.6614 143.492C46.889 143.398 47.1327 143.351 47.3787 143.352Z" fill="#9EDDFF"/>
<path d="M74.4725 158.621C74.2628 158.62 74.055 158.661 73.8612 158.741C73.6675 158.821 73.4917 158.939 73.3442 159.088C73.1948 159.236 73.0759 159.412 72.9946 159.606C72.9132 159.799 72.8708 160.007 72.8699 160.217V164.006H76.0967V160.239C76.096 160.026 76.0519 159.816 75.9673 159.62C75.8915 159.425 75.7737 159.248 75.6224 159.103C75.4713 158.953 75.2916 158.835 75.0941 158.756C74.8966 158.677 74.6852 158.638 74.4725 158.643V158.621Z" fill="#9EDDFF"/>
<path d="M67.5086 158.563C67.299 158.563 67.0914 158.605 66.8978 158.685C66.7033 158.763 66.5271 158.881 66.3803 159.03C66.2293 159.18 66.1096 159.358 66.0282 159.555C65.9484 159.749 65.907 159.956 65.906 160.166V163.948H69.1328V160.166C69.1335 159.953 69.0895 159.743 69.0035 159.548C68.9245 159.352 68.8072 159.173 68.6585 159.023C68.5074 158.873 68.3278 158.755 68.1302 158.676C67.9327 158.597 67.7213 158.559 67.5086 158.563Z" fill="#9EDDFF"/>
<path d="M60.5662 158.607C60.1418 158.609 59.7353 158.779 59.4351 159.079C59.135 159.379 58.9655 159.786 58.9636 160.211V163.992H62.1904V160.239C62.1911 160.027 62.1471 159.816 62.0611 159.621C61.9821 159.425 61.8649 159.247 61.7161 159.096C61.5615 158.95 61.3812 158.833 61.1843 158.751C60.9895 158.664 60.7796 158.615 60.5662 158.607Z" fill="#9EDDFF"/>
<path d="M53.5378 158.607C53.3271 158.606 53.1182 158.647 52.9234 158.728C52.7285 158.808 52.5514 158.926 52.4024 159.075C52.2534 159.224 52.1354 159.401 52.0552 159.596C51.975 159.791 51.9342 160 51.9352 160.211V163.992H55.1548V160.239C55.1555 160.027 55.1114 159.816 55.0254 159.621C54.9491 159.425 54.8343 159.247 54.6876 159.096C54.533 158.95 54.3527 158.833 54.1558 158.751C53.9608 158.665 53.7511 158.616 53.5378 158.607Z" fill="#9EDDFF"/>
<path d="M109.613 68.334H82.4736C81.3721 68.334 80.2814 68.5495 79.2638 68.9683C78.2461 69.3871 77.3215 70.0009 76.5426 70.7748C75.7638 71.5486 75.1459 72.4672 74.7244 73.4783C74.3029 74.4893 74.0859 75.573 74.0859 76.6673C74.0859 77.7617 74.3029 78.8453 74.7244 79.8563C75.1459 80.8674 75.7638 81.786 76.5426 82.5599C77.3215 83.3337 78.2461 83.9475 79.2638 84.3663C80.2814 84.7851 81.3721 85.0007 82.4736 85.0007H109.613C111.837 85.0007 113.971 84.1227 115.544 82.5599C117.117 80.9971 118 78.8775 118 76.6673C118 74.4572 117.117 72.3376 115.544 70.7748C113.971 69.212 111.837 68.334 109.613 68.334Z" fill="#D1EFFF"/>
<path d="M275.914 109H252.986C252.055 109 251.134 109.181 250.274 109.533C249.415 109.885 248.633 110.4 247.975 111.05C247.317 111.7 246.795 112.472 246.439 113.321C246.083 114.17 245.9 115.081 245.9 116C245.9 116.919 246.083 117.83 246.439 118.679C246.795 119.528 247.317 120.3 247.975 120.95C248.633 121.6 249.415 122.115 250.274 122.467C251.134 122.819 252.055 123 252.986 123H275.914C277.793 123 279.596 122.262 280.924 120.95C282.253 119.637 283 117.857 283 116C283 114.143 282.253 112.363 280.924 111.05C279.596 109.737 277.793 109 275.914 109Z" fill="#D1EFFF"/>
<path d="M264.014 102H241.086C240.156 102 239.234 102.181 238.374 102.533C237.515 102.885 236.733 103.4 236.075 104.05C235.417 104.7 234.895 105.472 234.539 106.321C234.183 107.17 234 108.081 234 109C234 109.919 234.183 110.83 234.539 111.679C234.895 112.528 235.417 113.3 236.075 113.95C236.733 114.6 237.515 115.115 238.374 115.467C239.234 115.819 240.156 116 241.086 116H264.014C265.893 116 267.696 115.262 269.025 113.95C270.353 112.637 271.1 110.857 271.1 109C271.1 107.143 270.353 105.363 269.025 104.05C267.696 102.737 265.893 102 264.014 102Z" fill="#D1EFFF"/>
<rect x="285" y="28" width="20" height="212" rx="3" fill="#D5DADD"/>
<path fill-rule="evenodd" clip-rule="evenodd" d="M127.3 39C126.45 39 125.639 39.361 125.07 39.9931L118.77 46.9931C117.743 48.134 117.743 49.866 118.77 51.0069L125.07 58.0069C125.639 58.639 126.45 59 127.3 59H312.964C314.621 59 315.964 57.6569 315.964 56V42C315.964 40.3431 314.621 39 312.964 39H127.3Z" fill="#D5DADD"/>
<rect x="285" y="59" width="20" height="3" fill="#A9B4BE"/>
<circle cx="295" cy="48" r="4" fill="#00144A"/>
<path d="M172 40.5C172 38.567 173.567 37 175.5 37C177.433 37 179 38.567 179 40.5V59H172V40.5Z" fill="#00144A"/>
<path d="M175.208 57C173.064 57 171.008 57.8519 169.491 59.3683C167.975 60.8847 167.123 62.9414 167.123 65.0859V76.2985H183.294V65.0949C183.295 64.0323 183.087 62.9799 182.681 61.9978C182.275 61.0157 181.68 60.1233 180.929 59.3715C180.178 58.6197 179.286 58.0233 178.305 57.6164C177.323 57.2094 176.271 57 175.208 57Z" fill="#CC7400"/>
<path d="M217.396 110.457V146.987H132.446V110.457C132.446 99.1908 136.921 88.3863 144.886 80.4201C152.852 72.4539 163.656 67.9785 174.921 67.9785C186.186 67.9785 196.99 72.4539 204.956 80.4201C212.921 88.3863 217.396 99.1908 217.396 110.457Z" fill="#F58B00"/>
<path d="M175.209 171.999C180.954 171.999 185.612 167.341 185.612 161.595C185.612 155.849 180.954 151.191 175.209 151.191C169.463 151.191 164.806 155.849 164.806 161.595C164.806 167.341 169.463 171.999 175.209 171.999Z" fill="#F58B00"/>
<path d="M226.928 151.193C224.377 150.663 217.396 146.988 217.396 146.988H132.446C132.446 146.988 125.465 150.663 122.914 151.193C120.363 151.723 118 153.394 118 156.107C118 157.411 118.518 158.661 119.439 159.582C120.361 160.504 121.611 161.022 122.914 161.022H226.928C228.232 161.022 229.481 160.504 230.403 159.582C231.325 158.661 231.842 157.411 231.842 156.107C231.869 153.394 229.578 151.759 226.928 151.193Z" fill="#CC7400"/>
<path opacity="0.5" d="M170.753 67.9258C160.248 68.9737 150.505 73.9068 143.413 81.7681C136.322 89.6293 132.388 99.8582 132.375 110.47V147.276H211.725V110.678C211.723 99.6086 207.454 88.9702 199.814 80.998C192.174 73.0258 181.758 68.3403 170.753 67.9258Z" fill="#CC7400"/>
<path d="M210.779 4.91211L197.298 8.63749L212.075 9.15133L210.779 4.91211Z" fill="#F58B00"/>
<path d="M205.724 11.0794L197.298 8.63867L206.89 8.89559L205.724 11.0794Z" fill="#CC7400"/>
<path d="M218.38 40.8646H238.23C242.867 40.8646 245.194 35.312 241.93 32.0556L227.796 17.9962L216.073 6.33597C211.922 2.20651 204.806 5.11372 204.806 10.9491V27.4041C204.806 30.9727 206.236 34.3953 208.781 36.9195C211.326 39.4437 214.779 40.8627 218.38 40.8646Z" fill="#9EDDFF"/>
<path opacity="0.5" d="M213.577 10.2781C212.674 9.38279 212.673 7.93148 213.576 7.03651C214.479 6.14153 215.944 6.14181 216.847 7.03712L252.177 42.0509C253.08 42.9462 253.08 44.3975 252.177 45.2925C251.274 46.1874 249.81 46.1872 248.907 45.2918L213.577 10.2781Z" fill="white"/>
<path d="M218.388 12.5723L213.269 17.6455C211.881 19.0208 211.101 20.8861 211.101 22.8311C211.101 24.776 211.881 26.6413 213.269 28.0166L217.938 32.6441C220.684 35.3658 224.407 36.8953 228.291 36.8962C232.174 36.8971 235.899 35.3694 238.646 32.6491L218.388 12.5723Z" fill="#00144A"/>
<path d="M241.921 32.0554L227.788 17.996L216.065 6.33571C213.839 4.12169 215.931 9.05609 213.554 10.2556C213.13 9.82419 212.895 9.24461 212.899 8.64234C212.902 8.04007 213.146 7.46357 213.575 7.03763C214.009 6.60814 214.597 6.3669 215.21 6.3669C215.823 6.3669 216.411 6.60814 216.845 7.03763L252.177 42.0534C252.61 42.4833 252.854 43.0661 252.854 43.6737C252.854 44.2814 252.61 44.8642 252.177 45.2941C251.962 45.507 251.707 45.6759 251.426 45.7911C251.145 45.9064 250.845 45.9657 250.541 45.9657C250.237 45.9657 249.936 45.9064 249.656 45.7911C249.375 45.6759 249.12 45.507 248.905 45.2941L242.386 38.8336C243.827 36.9129 243.93 34.0529 241.921 32.0554Z" fill="#00144A"/>
<path d="M216.065 6.33589L227.788 17.9962L241.921 32.0555C243.93 34.053 243.827 36.9131 242.381 38.8268L208.404 5.15554C208.398 5.14754 208.391 5.13996 208.383 5.13284C210.756 3.93329 213.839 4.12187 216.065 6.33589Z" fill="#00144A"/>
<path d="M209.868 9.98027C209.713 10.241 209.063 10.1402 208.417 9.755C207.771 9.36983 207.373 8.84619 207.529 8.58543C207.684 8.32467 208.334 8.42553 208.98 8.8107C209.626 9.19587 210.024 9.71951 209.868 9.98027Z" fill="#00144A"/>
<path d="M193.987 9.89163C194.262 10.2551 194.017 10.7779 193.562 10.799L186.921 11.107C183.862 11.2488 181.749 8.08863 183.049 5.31655C184.349 2.54447 188.13 2.14771 189.977 4.58957L193.987 9.89163Z" fill="#D1EFFF"/>
</svg>
