<svg width="320" height="240" viewBox="0 0 320 240" fill="none" xmlns="http://www.w3.org/2000/svg">
<mask id="mask0_4525_145273" style="mask-type:alpha" maskUnits="userSpaceOnUse" x="0" y="40" width="320" height="200">
<path d="M14.4533 40H305.547C307.444 39.9983 309.323 40.3705 311.077 41.0954C312.83 41.8203 314.424 42.8836 315.766 44.2247C317.108 45.5657 318.173 47.1582 318.9 48.911C319.626 50.6638 320 52.5426 320 54.44V225.547C320 229.38 318.477 233.056 315.767 235.767C313.056 238.477 309.38 240 305.547 240H14.4533C10.6201 240 6.94379 238.477 4.23327 235.767C1.52274 233.056 -9.53674e-06 229.38 -9.53674e-06 225.547V54.44C-1.03456e-05 52.5426 0.373943 50.6638 1.10045 48.911C1.82697 47.1582 2.89179 45.5657 4.23408 44.2247C5.57637 42.8836 7.16981 41.8203 8.92329 41.0954C10.6768 40.3705 12.5559 39.9983 14.4533 40V40Z" fill="#EBF8FF"/>
</mask>
<g mask="url(#mask0_4525_145273)">
<path d="M14.4533 40H305.547C307.444 39.9983 309.323 40.3705 311.077 41.0954C312.83 41.8203 314.424 42.8836 315.766 44.2247C317.108 45.5657 318.173 47.1582 318.9 48.911C319.626 50.6638 320 52.5426 320 54.44V225.547C320 229.38 318.477 233.056 315.767 235.767C313.056 238.477 309.38 240 305.547 240H14.4533C10.6201 240 6.94379 238.477 4.23327 235.767C1.52274 233.056 -9.53674e-06 229.38 -9.53674e-06 225.547V54.44C-1.03456e-05 52.5426 0.373943 50.6638 1.10045 48.911C1.82697 47.1582 2.89179 45.5657 4.23408 44.2247C5.57637 42.8836 7.16981 41.8203 8.92329 41.0954C10.6768 40.3705 12.5559 39.9983 14.4533 40V40Z" fill="#111619"/>
<path d="M5.77276 155.764C37.2061 152.922 68.5326 157.336 99.6727 161.259C120.821 163.922 142.013 166.199 163.154 168.939C184.513 171.707 205.872 174.541 227.309 176.675C237.986 177.736 248.676 178.655 259.389 179.284C269.841 179.895 280.48 178.867 290.902 178.088C300.584 177.361 310.29 176.595 319.991 176.294V240.392H-0.00019731V156.269C1.91865 156.101 3.84021 155.94 5.77002 155.764H5.77276Z" fill="#384D69"/>
<g style="mix-blend-mode:screen" opacity="0.6">
<path d="M258.517 180.759C257.807 180.893 280.228 186.827 284.392 187.71C279.153 189.265 218.452 194.513 193.617 192.113C180.686 190.862 168.252 188.27 155.648 185.241C145.473 182.794 135.037 180.954 125.278 177.086C133.535 177.209 150.807 178.817 150.215 178.537C135.865 171.712 119.714 169.841 104.733 164.789C99.8949 163.159 95.0677 161.475 90.1664 160.054C93.3352 160.454 96.504 160.858 99.6729 161.258C120.821 163.922 142.014 166.199 163.154 168.939C184.513 171.707 205.873 174.54 227.309 176.675C237.986 177.736 248.677 178.655 259.389 179.283C263.227 179.508 267.092 179.508 270.96 179.385C266.79 179.615 262.635 179.98 258.515 180.759H258.517Z" fill="#252F3A"/>
</g>
<g style="mix-blend-mode:multiply" opacity="0.4">
<path d="M5.77301 155.764C29.9175 153.583 53.9963 155.681 77.9736 158.548C77.1841 158.556 76.4001 158.542 75.6079 158.559C67.0855 158.748 57.3817 158.625 49.2869 161.664C47.4887 162.339 44.4514 163.631 44.6214 166.042C44.8955 169.948 50.4409 172.667 53.4151 173.961C60.8164 177.187 69.0565 179.143 76.921 180.858C86.6221 182.97 96.5535 184.627 106.435 185.642C124.593 187.507 143.181 187.186 160.983 191.578C147.732 192.724 120.27 194.11 121.137 194.143C129.999 194.496 138.697 196.151 147.381 197.854C130.753 199.459 114.064 200.227 97.5074 202.556C88.275 203.853 79.1468 205.485 69.9939 207.244C65.6519 208.075 61.2495 208.536 56.9321 209.49C52.9629 210.368 47.8423 211.345 45.0079 214.551C43.5359 216.219 43.7634 218.469 45.5945 219.725C48.4536 221.692 52.3488 222.136 55.704 222.523C60.0242 223.019 64.3772 223.203 68.722 223.244C85.5174 223.403 102.255 223.897 118.987 221.958C139.292 219.607 159.719 217.347 179.461 211.88C189.73 209.038 199.902 205.779 210.283 203.359C220.535 200.973 230.903 199.113 241.327 197.681C252.111 196.2 263.032 194.776 273.909 194.208C284.405 193.66 306.291 192.76 305.589 192.532C299.309 190.483 292.876 189.065 286.365 188.045C290.743 187.949 295.151 188.533 299.537 188.585C300.258 188.593 288.673 184.942 283.098 184.07C293.059 181.777 308.566 188.366 314.15 177.473C314.339 177.102 314.183 176.721 313.827 176.551C315.883 176.449 317.941 176.356 320 176.29V240.389H0.00828658V156.268C1.92713 156.101 3.84869 155.939 5.7785 155.764H5.77301Z" fill="#384D69"/>
</g>
</g>
<ellipse cx="279.667" cy="74.6667" rx="2.66666" ry="2.66667" fill="#EEF8FE"/>
<circle cx="155" cy="80.6667" r="2" fill="#EEF8FE"/>
<ellipse cx="89" cy="122.667" rx="1.33334" ry="1.33333" fill="#EEF8FE"/>
<ellipse cx="242.333" cy="78.6666" rx="1.33334" ry="1.33333" fill="#EEF8FE"/>
<ellipse cx="290.333" cy="112" rx="1.33333" ry="1.33334" fill="#EEF8FE"/>
<ellipse cx="30.3333" cy="93.3333" rx="1.33333" ry="1.33333" fill="#EEF8FE"/>
<ellipse cx="89.6667" cy="62" rx="2" ry="2" fill="#EEF8FE"/>
<circle cx="15" cy="126" r="2" fill="#EEF8FE"/>
<path d="M45.9271 128.174H58.1443V160.426H45.9271V128.174Z" fill="#252F3A"/>
<path d="M43.5267 127.088C42.808 127.908 43.0883 128.576 44.1951 128.576H59.5744C60.6524 128.576 60.9615 127.929 60.1997 127.138L53.013 119.611C52.8386 119.418 52.6256 119.264 52.3878 119.158C52.1615 119.057 51.917 119.003 51.6692 119C51.4215 119.005 51.1773 119.059 50.9505 119.158C50.716 119.266 50.5058 119.42 50.3324 119.611L43.5267 127.088Z" fill="#384D69"/>
<path d="M51.7267 136.743C51.1581 136.743 50.6023 136.575 50.1296 136.259C49.6569 135.943 49.2884 135.494 49.0709 134.968C48.8533 134.443 48.7963 133.865 48.9073 133.307C49.0182 132.749 49.292 132.236 49.694 131.834C50.096 131.432 50.6082 131.158 51.1658 131.047C51.7235 130.936 52.3015 130.993 52.8267 131.211C53.352 131.429 53.801 131.797 54.1169 132.27C54.4327 132.743 54.6013 133.299 54.6013 133.868C54.6013 134.63 54.2985 135.362 53.7594 135.901C53.2203 136.441 52.4891 136.743 51.7267 136.743Z" fill="#384D69"/>
<path d="M21.7513 148.017H47.4794V160.447H21.7513V148.017Z" fill="#252F3A"/>
<path d="M34.8021 152.201C34.2341 152.201 33.6891 152.426 33.2858 152.826C33.0842 153.026 32.924 153.263 32.8142 153.525C32.7045 153.786 32.6474 154.067 32.6462 154.351V160.498H36.8719V154.351C36.8715 153.793 36.6552 153.257 36.2682 152.855C35.8851 152.452 35.358 152.217 34.8021 152.201V152.201Z" fill="#384D69"/>
<path d="M41.1623 152.69H44.037C44.2276 152.69 44.4103 152.765 44.5451 152.9C44.6799 153.035 44.7556 153.218 44.7556 153.409V156.284C44.7556 156.475 44.6799 156.658 44.5451 156.793C44.4103 156.928 44.2276 157.003 44.037 157.003H41.1623C40.9717 157.003 40.7889 156.928 40.6541 156.793C40.5193 156.658 40.4436 156.475 40.4436 156.284V153.409C40.4436 153.218 40.5193 153.035 40.6541 152.9C40.7889 152.765 40.9717 152.69 41.1623 152.69Z" fill="#384D69"/>
<path d="M25.0786 152.575H29.3906C29.4994 152.574 29.6073 152.594 29.708 152.636C29.8087 152.677 29.9002 152.738 29.9771 152.815C30.0541 152.892 30.1149 152.983 30.1561 153.084C30.1973 153.185 30.218 153.293 30.2171 153.401V156.04C30.218 156.149 30.1973 156.257 30.1561 156.358C30.1149 156.458 30.0541 156.55 29.9771 156.627C29.9002 156.704 29.8087 156.765 29.708 156.806C29.6073 156.847 29.4994 156.868 29.3906 156.867H25.0786C24.8594 156.867 24.6492 156.78 24.4942 156.625C24.3393 156.47 24.2522 156.259 24.2522 156.04V153.401C24.2522 153.182 24.3393 152.972 24.4942 152.817C24.6492 152.662 24.8594 152.575 25.0786 152.575V152.575Z" fill="#384D69"/>
<path d="M22.7286 141.366H46.7751C47.2599 141.368 47.7241 141.562 48.0663 141.906C48.4084 142.25 48.6005 142.715 48.6005 143.2V149.023C48.6005 149.508 48.4084 149.973 48.0663 150.317C47.7241 150.661 47.2599 150.855 46.7751 150.857H22.7286C22.4883 150.857 22.2503 150.809 22.0284 150.717C21.8065 150.625 21.6049 150.489 21.4353 150.319C21.2657 150.149 21.1314 149.947 21.0401 149.724C20.9488 149.502 20.9023 149.264 20.9032 149.023V143.2C20.9023 142.959 20.9488 142.721 21.0401 142.499C21.1314 142.276 21.2657 142.074 21.4353 141.904C21.6049 141.734 21.8065 141.598 22.0284 141.506C22.2503 141.414 22.4883 141.366 22.7286 141.366V141.366Z" fill="#384D69"/>
<path d="M73.6243 160.49H91.9718V172.921H73.6243V160.49Z" fill="#384D69"/>
<path d="M71.5402 161.296C70.7856 161.907 70.9724 162.374 71.9355 162.374H94.1422C95.1124 162.374 95.2848 161.878 94.5302 161.296L84.1384 153.049C83.7457 152.751 83.2661 152.589 82.7729 152.589C82.2797 152.589 81.8001 152.751 81.4075 153.049L71.5402 161.296Z" fill="#252F3A"/>
<path d="M87.049 164.696C86.4772 164.696 85.9288 164.923 85.5245 165.328C85.1201 165.732 84.893 166.281 84.893 166.853V173H89.1187V166.853C89.1187 166.281 88.8916 165.732 88.4873 165.328C88.0829 164.923 87.5345 164.696 86.9627 164.696H87.049Z" fill="#252F3A"/>
<path d="M5.55261 145.206H23.9V157.636H5.55261V145.206Z" fill="#384D69"/>
<path d="M3.44689 146.018C2.72822 146.629 2.88633 147.089 3.84934 147.089H26.0848C27.0406 147.089 27.1556 146.608 26.4585 146.018L16.0666 137.743C15.6732 137.45 15.1955 137.291 14.7048 137.291C14.214 137.291 13.7363 137.45 13.3429 137.743L3.44689 146.018Z" fill="#252F3A"/>
<path d="M11.2156 149.411C10.6438 149.411 10.0954 149.639 9.6911 150.043C9.28677 150.448 9.05962 150.996 9.05962 151.568V157.722H13.3285V151.568C13.3261 151.002 13.1016 150.46 12.7033 150.058C12.3105 149.657 11.7768 149.425 11.2156 149.411V149.411Z" fill="#252F3A"/>
<path d="M17.5758 149.907H20.4936C20.6842 149.907 20.8669 149.983 21.0017 150.118C21.1365 150.253 21.2122 150.436 21.2122 150.626V153.502C21.2122 153.693 21.1365 153.876 21.0017 154.011C20.8669 154.145 20.6842 154.221 20.4936 154.221H17.5758C17.3852 154.221 17.2024 154.145 17.0676 154.011C16.9328 153.876 16.8571 153.693 16.8571 153.502V150.626C16.8571 150.436 16.9328 150.253 17.0676 150.118C17.2024 149.983 17.3852 149.907 17.5758 149.907Z" fill="#252F3A"/>
<path d="M47.0625 164.2L82.0614 171.885L82.1836 150.411H47.0625V164.2Z" fill="#384D69"/>
<path d="M47.3788 143.351H82.277C82.5227 143.35 82.7661 143.397 82.9932 143.491C83.2203 143.585 83.4267 143.722 83.6004 143.896C83.7741 144.07 83.9117 144.276 84.0053 144.503C84.0988 144.731 84.1465 144.974 84.1456 145.22V153.265C84.1456 153.761 83.9487 154.236 83.5983 154.587C83.2479 154.937 82.7726 155.134 82.277 155.134H47.3788C46.8825 155.134 46.4065 154.937 46.055 154.587C45.7034 154.237 45.5049 153.761 45.503 153.265V145.22C45.503 144.974 45.5516 144.73 45.646 144.503C45.7403 144.276 45.8786 144.069 46.0529 143.896C46.2271 143.722 46.434 143.584 46.6615 143.491C46.889 143.397 47.1328 143.35 47.3788 143.351V143.351Z" fill="#252F3A"/>
<path d="M74.4723 158.621C74.2626 158.62 74.0548 158.66 73.861 158.741C73.6673 158.821 73.4915 158.939 73.344 159.088C73.1946 159.236 73.0758 159.412 72.9944 159.605C72.913 159.799 72.8706 160.007 72.8697 160.217V164.006H76.0965V160.239C76.0958 160.026 76.0518 159.815 75.9671 159.62C75.8913 159.425 75.7735 159.248 75.6222 159.103C75.4711 158.953 75.2915 158.835 75.0939 158.756C74.8964 158.677 74.685 158.638 74.4723 158.642V158.621Z" fill="#252F3A"/>
<path d="M67.5085 158.564C67.2989 158.564 67.0913 158.605 66.8977 158.686C66.7032 158.764 66.527 158.881 66.3802 159.031C66.2292 159.181 66.1095 159.359 66.0281 159.556C65.9483 159.75 65.9068 159.957 65.9059 160.167V163.948H69.1327V160.167C69.1334 159.954 69.0893 159.743 69.0033 159.549C68.9244 159.352 68.8071 159.174 68.6584 159.024C68.5073 158.874 68.3276 158.756 68.1301 158.677C67.9326 158.598 67.7212 158.559 67.5085 158.564Z" fill="#252F3A"/>
<path d="M60.5662 158.607C60.1418 158.609 59.7353 158.778 59.4351 159.078C59.135 159.379 58.9655 159.785 58.9636 160.21V163.992H62.1904V160.239C62.1911 160.026 62.1471 159.815 62.0611 159.62C61.9821 159.424 61.8649 159.246 61.7161 159.096C61.5615 158.949 61.3812 158.832 61.1843 158.75C60.9895 158.663 60.7796 158.614 60.5662 158.607V158.607Z" fill="#252F3A"/>
<path d="M53.5377 158.607C53.327 158.606 53.1182 158.647 52.9233 158.727C52.7284 158.807 52.5514 158.925 52.4024 159.074C52.2534 159.223 52.1354 159.4 52.0551 159.595C51.9749 159.79 51.9341 159.999 51.9351 160.21V163.992H55.1547V160.239C55.1554 160.026 55.1114 159.815 55.0253 159.62C54.9491 159.425 54.8342 159.246 54.6876 159.096C54.5329 158.949 54.3527 158.832 54.1558 158.751C53.9607 158.664 53.751 158.615 53.5377 158.607V158.607Z" fill="#252F3A"/>
<path d="M109.612 68.3333H82.4733C81.3719 68.3333 80.2812 68.5488 79.2635 68.9676C78.2459 69.3864 77.3213 70.0002 76.5424 70.774C75.7635 71.5478 75.1457 72.4665 74.7241 73.4776C74.3026 74.4886 74.0857 75.5722 74.0857 76.6666C74.0857 77.7609 74.3026 78.8446 74.7241 79.8556C75.1457 80.8667 75.7635 81.7853 76.5424 82.5591C77.3213 83.333 78.2459 83.9468 79.2635 84.3656C80.2812 84.7844 81.3719 84.9999 82.4733 84.9999H109.612C111.837 84.9999 113.97 84.1219 115.543 82.5591C117.116 80.9963 118 78.8767 118 76.6666C118 74.4564 117.116 72.3368 115.543 70.774C113.97 69.2112 111.837 68.3333 109.612 68.3333V68.3333Z" fill="#2A4259"/>
<path d="M275.914 109H252.986C252.056 109 251.134 109.181 250.274 109.533C249.415 109.885 248.634 110.4 247.976 111.05C247.317 111.7 246.796 112.472 246.439 113.321C246.083 114.17 245.9 115.081 245.9 116C245.9 116.919 246.083 117.83 246.439 118.679C246.796 119.528 247.317 120.3 247.976 120.95C248.634 121.6 249.415 122.115 250.274 122.467C251.134 122.819 252.056 123 252.986 123H275.914C277.793 123 279.596 122.262 280.925 120.95C282.253 119.637 283 117.857 283 116C283 114.143 282.253 112.363 280.925 111.05C279.596 109.737 277.793 109 275.914 109V109Z" fill="#2A4259"/>
<path d="M264.014 102H241.086C240.156 102 239.234 102.181 238.374 102.533C237.515 102.885 236.733 103.4 236.075 104.05C235.417 104.7 234.895 105.472 234.539 106.321C234.183 107.17 234 108.081 234 109C234 109.919 234.183 110.83 234.539 111.679C234.895 112.528 235.417 113.3 236.075 113.95C236.733 114.6 237.515 115.115 238.374 115.467C239.234 115.819 240.156 116 241.086 116H264.014C265.893 116 267.696 115.262 269.025 113.95C270.353 112.637 271.1 110.857 271.1 109C271.1 107.143 270.353 105.363 269.025 104.05C267.696 102.737 265.893 102 264.014 102V102Z" fill="#2A4259"/>
<rect x="285" y="28" width="20" height="212" rx="3" fill="#848F97"/>
<path fill-rule="evenodd" clip-rule="evenodd" d="M127.3 39C126.45 39 125.639 39.361 125.07 39.9931L118.77 46.9931C117.743 48.134 117.743 49.866 118.77 51.0069L125.07 58.0069C125.639 58.639 126.45 59 127.3 59H312.964C314.621 59 315.964 57.6569 315.964 56V42C315.964 40.3431 314.621 39 312.964 39H127.3Z" fill="#848F97"/>
<rect x="285" y="59" width="20" height="3" fill="white"/>
<circle cx="295" cy="48" r="4" fill="#708EB4"/>
<path d="M172 40.5C172 38.567 173.567 37 175.5 37V37C177.433 37 179 38.567 179 40.5V59H172V40.5Z" fill="#708EB4"/>
<path d="M175.209 57C173.064 57 171.008 57.8519 169.491 59.3683C167.975 60.8847 167.123 62.9414 167.123 65.0859V76.2985H183.294V65.0949C183.295 64.0323 183.087 62.9799 182.681 61.9978C182.275 61.0157 181.68 60.1233 180.929 59.3715C180.178 58.6197 179.286 58.0233 178.305 57.6164C177.323 57.2094 176.271 57 175.209 57Z" fill="#B65C22"/>
<path d="M217.396 110.457V146.987H132.446V110.457C132.446 99.191 136.921 88.3865 144.887 80.4203C152.852 72.4541 163.656 67.9788 174.921 67.9788C186.186 67.9788 196.99 72.4541 204.956 80.4203C212.921 88.3865 217.396 99.191 217.396 110.457V110.457Z" fill="#DE7948"/>
<path d="M175.209 172C180.954 172 185.612 167.342 185.612 161.596C185.612 155.85 180.954 151.192 175.209 151.192C169.463 151.192 164.805 155.85 164.805 161.596C164.805 167.342 169.463 172 175.209 172Z" fill="#DE7948"/>
<path d="M226.928 151.192C224.377 150.662 217.396 146.987 217.396 146.987H132.446C132.446 146.987 125.465 150.662 122.914 151.192C120.363 151.722 118 153.393 118 156.106C118 157.41 118.518 158.66 119.439 159.581C120.361 160.503 121.611 161.021 122.914 161.021H226.928C228.232 161.021 229.481 160.503 230.403 159.581C231.325 158.66 231.842 157.41 231.842 156.106C231.869 153.393 229.578 151.758 226.928 151.192Z" fill="#B65C22"/>
<path opacity="0.5" d="M170.753 67.925C160.248 68.973 150.505 73.9061 143.413 81.7673C136.322 89.6286 132.388 99.8574 132.375 110.47V147.275H211.725V110.678C211.723 99.6079 207.454 88.9694 199.814 80.9972C192.174 73.025 181.758 68.3396 170.753 67.925V67.925Z" fill="#B65C22"/>
<path d="M210.778 4.91211L197.298 8.63749L212.075 9.15133L210.778 4.91211Z" fill="#DE7948"/>
<path d="M205.723 11.0782L197.298 8.63745L206.89 8.89437L205.723 11.0782Z" fill="#B65C22"/>
<path d="M218.379 40.8643H238.23C242.867 40.8643 245.194 35.3118 241.93 32.0554L227.796 17.996L216.073 6.33572C211.922 2.20626 204.806 5.11347 204.806 10.9488V27.4038C204.806 30.9724 206.235 34.3951 208.781 36.9193C211.326 39.4434 214.779 40.8625 218.379 40.8643V40.8643Z" fill="#252F3A"/>
<path opacity="0.5" d="M213.577 10.2788C212.673 9.38353 212.673 7.93221 213.576 7.03724C214.479 6.14227 215.944 6.14254 216.847 7.03786L252.176 42.0516C253.08 42.9469 253.08 44.3982 252.177 45.2932C251.274 46.1882 249.81 46.1879 248.906 45.2926L213.577 10.2788Z" fill="#CEDBE8"/>
<path d="M218.387 12.571L213.268 17.6442C211.881 19.0195 211.101 20.8849 211.101 22.8298C211.101 24.7748 211.881 26.6401 213.268 28.0154L217.938 32.6429C220.683 35.3646 224.407 36.8941 228.29 36.895C232.174 36.8959 235.898 35.3682 238.645 32.6478V32.6478L218.387 12.571Z" fill="#708EB4"/>
<path d="M241.921 32.0554L227.787 17.996L216.064 6.33571C213.839 4.12169 215.93 9.05609 213.554 10.2556C213.13 9.82419 212.894 9.24461 212.898 8.64234C212.902 8.04007 213.145 7.46357 213.575 7.03763C214.009 6.60814 214.597 6.3669 215.21 6.3669C215.823 6.3669 216.411 6.60814 216.845 7.03763L252.176 42.0534C252.61 42.4833 252.853 43.0661 252.853 43.6737C252.853 44.2814 252.61 44.8642 252.176 45.2941V45.2941C251.962 45.507 251.706 45.6759 251.426 45.7911C251.145 45.9064 250.844 45.9657 250.54 45.9657C250.237 45.9657 249.936 45.9064 249.655 45.7911C249.374 45.6759 249.119 45.507 248.905 45.2941L242.386 38.8336C243.827 36.9129 243.929 34.0529 241.921 32.0554Z" fill="#708EB4"/>
<path d="M216.064 6.33564L227.787 17.9959L241.921 32.0553C243.929 34.0528 243.827 36.9129 242.381 38.8266L208.404 5.15529C208.397 5.1473 208.39 5.13972 208.383 5.13259C210.756 3.93304 213.839 4.12162 216.064 6.33564Z" fill="#708EB4"/>
<path d="M209.868 9.98051C209.712 10.2413 209.063 10.1404 208.417 9.75525C207.77 9.37007 207.373 8.84644 207.528 8.58568C207.684 8.32491 208.333 8.42577 208.98 8.81094C209.626 9.19612 210.023 9.71975 209.868 9.98051Z" fill="#708EB4"/>
<path d="M193.987 9.89139C194.262 10.2549 194.017 10.7777 193.561 10.7988L186.921 11.1068C183.862 11.2486 181.749 8.08839 183.049 5.31631C184.349 2.54423 188.13 2.14747 189.977 4.58932L193.987 9.89139Z" fill="#2A4259"/>
</svg>
