<svg width="45" height="45" viewBox="0 0 45 45" fill="none" xmlns="http://www.w3.org/2000/svg">
<rect width="31.6789" height="21.1575" rx="2.75869" transform="matrix(1 0 0.156434 0.987688 0.200195 17.3223)" fill="white"/>
<path d="M2.3401 18.7394C2.14148 17.4853 3.00973 16.4688 4.27938 16.4688H29.9121C31.1817 16.4688 32.372 17.4853 32.5706 18.7394L35.0188 34.1967C35.2175 35.4508 34.3492 36.4674 33.0796 36.4674H7.44685C6.17719 36.4674 4.98693 35.4508 4.78831 34.1967L2.3401 18.7394Z" fill="#CEDBE8"/>
<path fill-rule="evenodd" clip-rule="evenodd" d="M4.12313 15.4805H29.7558C31.5778 15.4805 33.2858 16.9393 33.5708 18.7388L36.019 34.1962C36.304 35.9957 35.0581 37.4544 33.2362 37.4544H7.60347C5.78153 37.4544 4.07351 35.9957 3.78849 34.1962L1.34028 18.7388C1.05527 16.9393 2.30119 15.4805 4.12313 15.4805ZM4.27956 16.4682C3.00991 16.4682 2.14166 17.4847 2.34028 18.7388L4.78849 34.1962C4.98711 35.4502 6.17738 36.4668 7.44703 36.4668H33.0797C34.3494 36.4668 35.2176 35.4502 35.019 34.1962L32.5708 18.7388C32.3722 17.4847 31.1819 16.4682 29.9123 16.4682H4.27956Z" fill="#688FB7"/>
<path d="M2.3401 18.7394C2.14148 17.4853 3.00973 16.4688 4.27938 16.4688H29.9121C31.1817 16.4688 32.372 17.4853 32.5706 18.7394L32.8259 20.3511H2.59537L2.3401 18.7394Z" fill="#4098FF"/>
<path d="M22.9492 25.9755C23.1822 22.6038 25.8792 21.7398 30.0162 20.459C30.2336 20.3924 30.4523 20.559 30.4423 20.7817L31.249 23.2436C31.2364 23.5695 31.8323 23.588 32.023 23.3198L37.1793 15.7496C37.3213 15.5507 37.2087 15.2788 36.9672 15.2412L28.1944 13.0691C27.8687 13.0155 27.4172 13.4139 27.6596 13.6337L28.5818 16.1254C28.7493 16.2746 28.7152 16.5428 28.5178 16.653C24.6705 18.7601 20.0837 19.0153 20.4003 24.2294C20.5371 26.5142 20.8076 28.2382 22.7196 30.0357C23.0019 30.3027 23.3078 29.8637 23.223 29.4866C23.0297 28.639 22.8989 26.7498 22.9504 25.9787L22.9492 25.9755Z" fill="#F58B00"/>
<path d="M40.3914 7.99316C40.4324 8.09436 40.4452 8.20473 40.4287 8.31264C40.4122 8.42055 40.3669 8.52202 40.2976 8.60636L38.7012 10.6554C38.4374 10.9944 38.0153 10.9587 37.7496 10.7518C37.6378 10.6711 37.5552 10.5563 37.5143 10.4246C37.4733 10.2929 37.4762 10.1515 37.5225 10.0216C37.5467 9.95953 37.5802 9.90146 37.6218 9.84938L39.2182 7.80032C39.2864 7.70899 39.378 7.63779 39.4833 7.59425C39.5886 7.55071 39.7038 7.53646 39.8166 7.55301C39.9419 7.57135 40.0605 7.6214 40.1612 7.69843C40.2618 7.77546 40.341 7.8769 40.3914 7.99316Z" fill="white"/>
<path d="M44.8231 21.3921C44.8105 21.4692 44.7819 21.5428 44.7393 21.6083C44.6966 21.6737 44.6407 21.7295 44.5752 21.7722C44.5098 21.8148 44.4361 21.8433 44.359 21.8559C44.2819 21.8685 44.203 21.8648 44.1274 21.8452L41.6518 21.3225C41.5629 21.3034 41.4786 21.2668 41.404 21.2148C41.3294 21.1628 41.2659 21.0964 41.2172 21.0196C41.1684 20.9427 41.1355 20.8569 41.1204 20.7672C41.1052 20.6775 41.108 20.5857 41.1287 20.4971C41.1362 20.4604 41.1467 20.4243 41.1601 20.3892C41.2078 20.259 41.3026 20.1514 41.4257 20.0875C41.5488 20.0237 41.6914 20.0084 41.8252 20.0444L44.2996 20.5675C44.3885 20.5865 44.4728 20.623 44.5475 20.6749C44.6222 20.7268 44.6858 20.7931 44.7345 20.8698C44.7833 20.9466 44.8162 21.0324 44.8314 21.122C44.8467 21.2117 44.8438 21.3035 44.8231 21.3921Z" fill="white"/>
<path d="M44.8833 14.2937C44.848 14.3714 44.7973 14.4411 44.7342 14.4986C44.671 14.5561 44.5969 14.6 44.5162 14.6279L40.9089 15.912C40.7468 15.9687 40.5691 15.9605 40.4129 15.8892C40.2567 15.8178 40.1341 15.6889 40.0707 15.5293C40.0126 15.381 40.0123 15.2162 40.0699 15.0677C40.1033 14.9822 40.1547 14.9049 40.2206 14.841C40.2866 14.7771 40.3655 14.7282 40.4521 14.6976L44.0593 13.4135C44.2223 13.3563 44.401 13.3646 44.558 13.4365C44.715 13.5085 44.838 13.6385 44.9011 13.7992C44.9316 13.8786 44.9457 13.9633 44.9427 14.0483C44.9396 14.1332 44.9194 14.2167 44.8833 14.2937Z" fill="white"/>
</svg>
