<svg width="45" height="45" viewBox="0 0 45 45" fill="none" xmlns="http://www.w3.org/2000/svg">
<g clip-path="url(#clip0_4525_145113)">
<path d="M23.6016 7.1171L19.5571 5.83154L12.7753 25.9843L16.8228 27.2699L23.6016 7.1171Z" fill="#D6DADD"/>
<path d="M18.4011 27.8896L25.3124 7.69985L24.0547 7.29907L17.1403 27.4888L18.4011 27.8896Z" fill="#D6DADD"/>
<path d="M24.7144 26.6934L21.752 27.8895L23.6447 32.5755L26.6041 31.3793L24.7144 26.6934Z" fill="#848F97"/>
<path d="M23.7526 32.2026C23.6022 32.2647 23.4824 32.3839 23.4194 32.5341C23.3565 32.6842 23.3555 32.8532 23.4166 33.0041L27.8372 43.8897C28.0212 44.3305 28.3723 44.6804 28.8137 44.863C29.255 45.0456 29.7507 45.0459 30.1923 44.8639L30.5438 44.719C30.7659 44.6304 30.9681 44.4983 31.1386 44.3305C31.309 44.1627 31.4443 43.9625 31.5364 43.7418C31.7183 43.2994 31.7183 42.803 31.5364 42.3606L27.1158 31.4873C27.0854 31.4118 27.0403 31.343 26.9831 31.285C26.9259 31.227 26.8578 31.1809 26.7827 31.1494C26.7076 31.1179 26.627 31.1015 26.5456 31.1013C26.4641 31.1011 26.3834 31.1171 26.3082 31.1482L23.7526 32.2026Z" fill="#EF8659"/>
<path d="M21.6471 27.6428L21.9554 28.3796C21.9554 28.3796 23.4967 29.0671 25.1243 27.6304L24.6311 26.4497L23.2717 27.1094L21.6471 27.6428Z" fill="#708EB4"/>
<path d="M19.3999 28.2718C16.7678 28.2782 14.215 27.3714 12.1768 25.706C10.1385 24.0405 8.7411 21.7196 8.22274 19.1389C7.70437 16.5582 8.09719 13.8776 9.3342 11.5542C10.5712 9.23074 12.5758 7.40839 15.0062 6.39785C17.4365 5.38731 20.1422 5.25117 22.6617 6.01263C25.1812 6.77409 27.3586 8.38601 28.8226 10.5735C30.2865 12.761 30.9464 15.3887 30.6897 18.0083C30.433 20.628 29.2756 23.0775 27.4148 24.9392C25.2902 27.0682 22.4075 28.2668 19.3999 28.2718V28.2718ZM19.3999 6.47278C16.9837 6.46854 14.6408 7.30247 12.7706 8.83241C10.9005 10.3624 9.61879 12.4936 9.14406 14.8629C8.66932 17.2321 9.03093 19.6927 10.1673 21.8251C11.3036 23.9576 13.1442 25.6299 15.3755 26.557C17.6068 27.4841 20.0905 27.6086 22.4033 26.9093C24.716 26.21 26.7147 24.7301 28.0586 22.722C29.4024 20.7139 30.0083 18.3018 29.7728 15.897C29.5374 13.4921 28.4752 11.2434 26.7674 9.53407C25.8011 8.56425 24.6529 7.79464 23.3886 7.26933C22.1244 6.74402 20.7689 6.47334 19.3999 6.47278V6.47278Z" fill="#708EB4"/>
</g>
<path d="M36.4211 7.5C36.4211 11.6421 33.0633 15 28.9211 15C24.779 15 21.4211 11.6421 21.4211 7.5C21.4211 3.35787 24.779 0 28.9211 0C33.0633 0 36.4211 3.35787 36.4211 7.5Z" fill="#D6DADD"/>
<path d="M28.9211 0C27.4378 0 25.9877 0.439867 24.7544 1.26398C23.521 2.08809 22.5597 3.25956 21.9921 4.63001C21.4244 6.00045 21.2759 7.50834 21.5653 8.9632C21.8546 10.4181 22.569 11.7544 23.6178 12.8033C24.6667 13.8522 26.0031 14.5665 27.458 14.8559C28.9128 15.1453 30.4208 14.9967 31.7913 14.4291C33.1617 13.8614 34.3331 12.9001 35.1572 11.6668C35.9813 10.4334 36.4211 8.98336 36.4211 7.5C36.4211 5.51088 35.631 3.60324 34.2245 2.19672C32.8179 0.790194 30.9103 0 28.9211 0V0ZM28.9211 12C28.6986 12 28.4811 11.9341 28.2961 11.8105C28.1111 11.6869 27.9669 11.5111 27.8818 11.3055C27.7966 11.0999 27.7744 10.8739 27.8178 10.6556C27.8612 10.4374 27.9683 10.2369 28.1257 10.0796C28.283 9.92226 28.4834 9.81502 28.7017 9.77161C28.9199 9.7282 29.1461 9.75055 29.3517 9.8357C29.5572 9.92085 29.7329 10.0651 29.8566 10.2501C29.9802 10.4351 30.0461 10.6525 30.0461 10.875C30.0461 11.1734 29.9276 11.4596 29.7166 11.6706C29.5057 11.8816 29.2195 12 28.9211 12ZM30.1062 8.17511C30.0029 8.22402 29.9027 8.2791 29.8062 8.34009C29.7329 8.5496 29.5878 8.72634 29.3965 8.83887C29.2052 8.9514 28.9802 8.99239 28.7615 8.95459C28.5428 8.91679 28.3446 8.80254 28.2022 8.63233C28.0597 8.46212 27.9823 8.2469 27.9836 8.02497C27.9836 7.16997 28.7337 6.79497 29.2362 6.52497C29.9412 6.15747 30.2336 5.94748 30.2336 5.41498C30.2336 4.88248 29.6336 4.47748 28.9211 4.47748C28.2086 4.47748 27.6086 4.91248 27.6086 5.41498C27.6086 5.66362 27.5099 5.90219 27.3341 6.078C27.1582 6.25382 26.9198 6.35248 26.6711 6.35248C26.4225 6.35248 26.184 6.25382 26.0082 6.078C25.8324 5.90219 25.7336 5.66362 25.7336 5.41498C25.8265 4.63484 26.2023 3.9159 26.7897 3.39423C27.3772 2.87255 28.1355 2.58453 28.9211 2.58453C29.7068 2.58453 30.4652 2.87255 31.0526 3.39423C31.6401 3.9159 32.0158 4.63484 32.1086 5.41498C32.0844 6.02127 31.8814 6.60696 31.525 7.09809C31.1687 7.58921 30.675 7.96396 30.1062 8.17511V8.17511Z" fill="#2F4257"/>
<defs>
<clipPath id="clip0_4525_145113">
<rect width="23.6727" height="39.4737" fill="white" transform="translate(8 5.52637)"/>
</clipPath>
</defs>
</svg>
