<svg width="160" height="160" viewBox="0 0 160 160" fill="none" xmlns="http://www.w3.org/2000/svg">
<mask id="mask0_2672_44767" style="mask-type:alpha" maskUnits="userSpaceOnUse" x="0" y="0" width="160" height="160">
<circle cx="80" cy="80" r="80" fill="#EBF8FF"/>
</mask>
<g mask="url(#mask0_2672_44767)">
<path d="M194.09 -1.64062H-44.7561C-46.3129 -1.64206 -47.8548 -1.33665 -49.2936 -0.741865C-50.7323 -0.147081 -52.0397 0.725426 -53.1411 1.82578C-54.2425 2.92613 -55.1162 4.23274 -55.7123 5.67095C-56.3084 7.10915 -56.6152 8.65074 -56.6152 10.2076V150.603C-56.6152 153.748 -55.3658 156.764 -53.1418 158.988C-50.9178 161.212 -47.9013 162.462 -44.7561 162.462H194.09C197.235 162.462 200.251 161.212 202.475 158.988C204.699 156.764 205.949 153.748 205.949 150.603V10.2076C205.949 8.65074 205.642 7.10915 205.046 5.67095C204.45 4.23274 203.576 2.92613 202.475 1.82578C201.373 0.725426 200.066 -0.147081 198.627 -0.741865C197.188 -1.33665 195.647 -1.64206 194.09 -1.64062Z" fill="#EBF8FF"/>
<path d="M67.377 88.6919H-33.0372C-34.5848 88.6919 -35.8394 89.9487 -35.8394 91.499V156.647C-35.8394 158.198 -34.5848 159.455 -33.0372 159.455H67.377C68.9246 159.455 70.1791 158.198 70.1791 156.647V91.499C70.1791 89.9487 68.9246 88.6919 67.377 88.6919Z" fill="#D1EFFF"/>
<path d="M65.0527 92.5049H-30.8515C-32.2878 92.5049 -33.4521 93.6713 -33.4521 95.1102V153.79C-33.4521 155.229 -32.2878 156.396 -30.8515 156.396H65.0527C66.489 156.396 67.6533 155.229 67.6533 153.79V95.1102C67.6533 93.6713 66.489 92.5049 65.0527 92.5049Z" fill="#EBF8FF"/>
<path d="M84.7695 160.266C84.7687 160.032 84.6756 159.809 84.5106 159.644C84.3456 159.479 84.1222 159.387 83.8892 159.387H-46.3502C-46.5831 159.387 -46.8065 159.479 -46.9715 159.644C-47.1365 159.809 -47.2296 160.032 -47.2305 160.266V160.75H84.7695V160.266Z" fill="#D1EFFF"/>
<path d="M11.0899 159.359H26.3124V159.669C26.3124 159.999 26.1818 160.315 25.9493 160.548C25.7167 160.781 25.4014 160.912 25.0725 160.912H12.3204C11.9916 160.912 11.6762 160.781 11.4437 160.548C11.2112 160.315 11.0806 159.999 11.0806 159.669V159.359H11.0899Z" fill="#9EDDFF"/>
<path d="M17.3639 91.1858C17.7388 91.1858 18.0427 90.8813 18.0427 90.5057C18.0427 90.1302 17.7388 89.8257 17.3639 89.8257C16.989 89.8257 16.6851 90.1302 16.6851 90.5057C16.6851 90.8813 16.989 91.1858 17.3639 91.1858Z" fill="#B8E6FF"/>
<path d="M185.673 90.1707L140.617 74.7369C138.704 74.087 136.628 75.0979 135.978 77.0113L113.522 142.556C112.872 144.469 113.883 146.545 115.796 147.195L160.852 162.629C162.766 163.278 164.842 162.268 165.492 160.354L187.947 94.8099C188.597 92.8964 187.586 90.8205 185.673 90.1707Z" fill="#D1EFFF"/>
<path d="M158.65 91.2902C157.17 90.6945 155.527 90.5501 153.975 90.8931C152.404 91.218 150.978 92.0122 149.859 93.1675C148.74 94.3228 147.982 95.7669 147.693 97.3374C147.404 98.9078 147.585 100.532 148.216 102.013C148.848 103.493 149.895 104.738 151.249 105.605C152.585 106.471 154.155 106.941 155.762 106.905C157.368 106.887 158.921 106.381 160.239 105.479C161.556 104.576 162.585 103.294 163.181 101.814L155.654 98.8176L158.668 91.2902H158.65Z" fill="#EBF8FF"/>
<path d="M161.051 90.1885L158.055 97.6978L165.564 100.694C165.961 99.7015 166.16 98.6545 166.142 97.5895C166.142 96.5245 165.907 95.4775 165.492 94.5027C165.077 93.528 164.463 92.6435 163.705 91.9033C162.947 91.1632 162.044 90.5856 161.051 90.1885Z" fill="#B8E6FF"/>
<path d="M167.297 117.068L135.905 106.31C134.858 105.949 133.739 106.508 133.378 107.555C133.017 108.602 133.577 109.722 134.624 110.083L166.015 120.841C167.062 121.202 168.181 120.643 168.542 119.596C168.903 118.549 168.344 117.429 167.297 117.068Z" fill="#EBF8FF"/>
<path d="M164.589 123.459L133.198 112.7C132.151 112.339 131.032 112.899 130.671 113.946C130.31 114.993 130.869 116.112 131.916 116.473L163.307 127.231C164.354 127.592 165.492 127.033 165.835 125.986C166.196 124.939 165.636 123.82 164.589 123.459Z" fill="#EBF8FF"/>
<path d="M147.332 124.686L130.617 118.964C129.57 118.603 128.433 119.162 128.09 120.209C127.729 121.256 128.288 122.375 129.335 122.736L146.069 128.459C147.116 128.82 148.235 128.26 148.596 127.213C148.957 126.166 148.397 125.047 147.35 124.686H147.332Z" fill="#EBF8FF"/>
<path d="M-35.9985 54.0682L8.94925 38.6343C10.8627 37.9845 12.9205 38.9953 13.5884 40.9088L35.9901 106.453C36.6399 108.366 35.6291 110.442 33.7156 111.092L-11.2321 126.526C-13.1455 127.176 -15.2034 126.165 -15.8713 124.252L-38.2729 58.7073C-38.9228 56.7939 -37.9119 54.718 -35.9985 54.0682Z" fill="#D1EFFF"/>
<path fill-rule="evenodd" clip-rule="evenodd" d="M7.32467 57.3174C8.19113 57.4257 8.78682 58.2019 8.69656 59.0684L5.93472 81.5061C5.86251 82.0296 5.53759 82.4989 5.05021 82.7336C4.56282 82.9683 4.00323 82.9322 3.55195 82.6614L-4.67944 77.607L-7.47739 95.7305C-7.60375 96.5789 -8.41605 97.1746 -9.26446 97.0483C-10.1129 96.9219 -10.7086 96.1096 -10.5822 95.2612L-7.44128 74.791C-7.36908 74.2675 -7.0261 73.8343 -6.55677 73.5996C-6.08744 73.383 -5.52785 73.4191 -5.07657 73.6899L3.08262 78.7082L5.53759 58.6893C5.6459 57.8228 6.4221 57.2271 7.28856 57.3354L7.32467 57.3174Z" fill="#B8E6FF"/>
<path d="M-26.1246 66.0192C-26.5398 66.1636 -26.7564 66.5968 -26.612 67.012L-14.4635 102.501C-14.4274 102.591 -14.3913 102.681 -14.3191 102.754L-14.0122 103.62C-13.8678 104.035 -13.4165 104.252 -13.0194 104.107L22.4153 91.7964C22.8304 91.652 23.0471 91.2007 22.9027 90.8036L22.1264 88.5652C21.982 88.1501 21.5308 87.9334 21.1336 88.0779L-11.3587 99.3599L-22.8935 65.7484C-23.0379 65.3332 -23.4711 65.1166 -23.8863 65.261L-26.1246 66.0372V66.0192Z" fill="#EBF8FF"/>
<path d="M-10.5821 111.4C-10.8709 110.587 -10.4558 109.685 -9.64345 109.396L7.43307 103.313C8.24537 103.024 9.14794 103.457 9.43676 104.269C9.72558 105.082 9.3104 105.984 8.49809 106.273L-8.56037 112.356C-9.37268 112.645 -10.2752 112.212 -10.5641 111.4H-10.5821Z" fill="#EBF8FF"/>
<path d="M117.073 19.3335H32.5551C27.4339 19.3335 23.2822 23.4851 23.2822 28.6064V133.138C23.2822 138.259 27.4339 142.41 32.5551 142.41H117.073C122.194 142.41 126.346 138.259 126.346 133.138V28.6064C126.346 23.4851 122.194 19.3335 117.073 19.3335Z" fill="white"/>
<path fill-rule="evenodd" clip-rule="evenodd" d="M32.7837 29.2979C32.7837 28.8764 32.8995 28.5386 33.0411 28.5386H116.053C116.195 28.5386 116.311 28.8603 116.311 29.2979V132.449C116.311 132.87 116.195 133.208 116.053 133.208H33.0411C32.8995 133.208 32.7837 132.886 32.7837 132.449V29.2979Z" fill="white"/>
<path d="M55.1036 31.5762H38.7585C37.6568 31.5762 36.7637 32.4693 36.7637 33.571C36.7637 34.6728 37.6568 35.5659 38.7585 35.5659H55.1036C56.2053 35.5659 57.0985 34.6728 57.0985 33.571C57.0985 32.4693 56.2053 31.5762 55.1036 31.5762Z" fill="#004DA5"/>
<path d="M52.1899 85.2989C52.1899 84.3644 52.9474 83.6069 53.8819 83.6069H63.2513C64.1857 83.6069 64.9432 84.3644 64.9432 85.2989V116.498C64.9432 117.432 64.1857 118.19 63.2513 118.19H53.8819C52.9474 118.19 52.1899 117.432 52.1899 116.498V85.2989Z" fill="#D1EFFF"/>
<path d="M71.7446 66.5938C71.7446 65.6594 72.5021 64.9019 73.4366 64.9019H82.8059C83.7404 64.9019 84.4979 65.6594 84.4979 66.5938V117.005C84.4979 117.94 83.7404 118.697 82.8059 118.697H73.4366C72.5021 118.697 71.7446 117.94 71.7446 117.005V66.5938Z" fill="#D1EFFF"/>
<path d="M91.1602 102.513C91.1602 102.214 91.9453 101.972 92.9138 101.972H102.625C103.593 101.972 104.378 102.214 104.378 102.513V118.615C104.378 118.914 103.593 119.156 102.625 119.156H92.9138C91.9453 119.156 91.1602 118.914 91.1602 118.615V102.513Z" fill="#D1EFFF"/>
<path fill-rule="evenodd" clip-rule="evenodd" d="M38.6658 58.353C39.6049 58.353 40.3662 59.1143 40.3662 60.0535L40.3662 128.031C40.3662 128.97 39.6049 129.731 38.6658 129.731C37.7267 129.731 36.9653 128.97 36.9653 128.031L36.9653 60.0535C36.9653 59.1143 37.7267 58.353 38.6658 58.353Z" fill="#9EDDFF"/>
<path fill-rule="evenodd" clip-rule="evenodd" d="M36.9653 129.352C36.9653 128.413 37.7266 127.652 38.6658 127.652H106.643C107.582 127.652 108.344 128.413 108.344 129.352C108.344 130.291 107.582 131.053 106.643 131.053H38.6658C37.7266 131.053 36.9653 130.291 36.9653 129.352Z" fill="#9EDDFF"/>
<path d="M127.692 20.8849C127.692 19.4918 123.648 18.3767 118.245 18.1235C117.936 12.7272 116.747 8.71469 115.354 8.71778C113.96 8.72086 112.802 12.7642 112.505 18.1883C107.087 18.559 103.059 19.7698 103.077 21.166C103.096 22.5622 107.121 23.6773 112.524 23.9275C112.848 29.3238 114.022 33.3362 115.412 33.3332C116.802 33.3301 117.967 29.2867 118.263 23.8626C123.682 23.4919 127.707 22.2811 127.692 20.8849Z" fill="#F58B00"/>
<path d="M140.59 39.4646C140.59 38.4778 137.725 37.688 133.898 37.5085C133.679 33.6862 132.837 30.844 131.85 30.8462C130.863 30.8484 130.043 33.7124 129.833 37.5545C125.995 37.817 123.141 38.6747 123.154 39.6637C123.167 40.6526 126.019 41.4425 129.846 41.6197C130.075 45.4421 130.907 48.2843 131.892 48.2821C132.876 48.2799 133.701 45.4159 133.911 41.5738C137.749 41.3112 140.6 40.4536 140.59 39.4646Z" fill="#F58B00"/>
</g>
<path d="M37.7438 153.436C51.3385 153.436 62.3592 142.415 62.3592 128.82C62.3592 115.226 51.3385 104.205 37.7438 104.205C24.1491 104.205 13.1284 115.226 13.1284 128.82C13.1284 142.415 24.1491 153.436 37.7438 153.436Z" fill="#F58B00"/>
<path d="M37.7527 115.417H37.7436C35.9067 115.417 34.4175 116.906 34.4175 118.743V138.899C34.4175 140.736 35.9067 142.225 37.7436 142.225H37.7527C39.5897 142.225 41.0789 140.736 41.0789 138.899V118.743C41.0789 116.906 39.5897 115.417 37.7527 115.417Z" fill="white"/>
<path d="M24.9106 128.44V129.192C24.9106 130.824 26.2335 132.146 27.8652 132.146H47.65C49.2817 132.146 50.6045 130.824 50.6045 129.192V128.44C50.6045 126.808 49.2817 125.485 47.65 125.485H27.8652C26.2335 125.485 24.9106 126.808 24.9106 128.44Z" fill="white"/>
</svg>
