<svg width="160" height="160" viewBox="0 0 160 160" fill="none" xmlns="http://www.w3.org/2000/svg">
<mask id="mask0_2810_46826" style="mask-type:alpha" maskUnits="userSpaceOnUse" x="0" y="0" width="160" height="160">
<circle cx="80" cy="80" r="80" fill="#EBF8FF"/>
</mask>
<g mask="url(#mask0_2810_46826)">
<path d="M194.09 -1.64062H-44.7561C-46.3129 -1.64206 -47.8548 -1.33665 -49.2936 -0.741865C-50.7323 -0.147081 -52.0397 0.725426 -53.1411 1.82578C-54.2425 2.92613 -55.1162 4.23274 -55.7123 5.67095C-56.3084 7.10915 -56.6152 8.65074 -56.6152 10.2076V150.603C-56.6152 153.748 -55.3658 156.764 -53.1418 158.988C-50.9178 161.212 -47.9013 162.462 -44.7561 162.462H194.09C197.235 162.462 200.251 161.212 202.475 158.988C204.699 156.764 205.949 153.748 205.949 150.603V10.2076C205.949 8.65074 205.642 7.10915 205.046 5.67095C204.45 4.23274 203.576 2.92613 202.475 1.82578C201.373 0.725426 200.066 -0.147081 198.627 -0.741865C197.188 -1.33665 195.647 -1.64206 194.09 -1.64062Z" fill="#223548"/>
<path d="M67.3765 88.6919H-33.0377C-34.5853 88.6919 -35.8398 89.9487 -35.8398 91.499V156.647C-35.8398 158.198 -34.5853 159.455 -33.0377 159.455H67.3765C68.9241 159.455 70.1786 158.198 70.1786 156.647V91.499C70.1786 89.9487 68.9241 88.6919 67.3765 88.6919Z" fill="#2A4259"/>
<path d="M65.0517 92.5049H-30.8525C-32.2888 92.5049 -33.4531 93.6713 -33.4531 95.1102V153.79C-33.4531 155.229 -32.2888 156.396 -30.8525 156.396H65.0517C66.488 156.396 67.6523 155.229 67.6523 153.79V95.1102C67.6523 93.6713 66.488 92.5049 65.0517 92.5049Z" fill="#223548"/>
<path d="M84.7686 160.266C84.7677 160.032 84.6746 159.809 84.5096 159.644C84.3446 159.479 84.1212 159.387 83.8882 159.387H-46.3511C-46.5841 159.387 -46.8075 159.479 -46.9725 159.644C-47.1375 159.809 -47.2306 160.032 -47.2314 160.266V160.75H84.7686V160.266Z" fill="#2A4259"/>
<path d="M11.0894 159.359H26.3119V159.669C26.3119 159.999 26.1813 160.315 25.9488 160.548C25.7163 160.781 25.4009 160.912 25.072 160.912H12.32C11.9911 160.912 11.6758 160.781 11.4432 160.548C11.2107 160.315 11.0801 159.999 11.0801 159.669V159.359H11.0894Z" fill="#3B5B7C"/>
<path d="M17.3624 91.1858C17.7373 91.1858 18.0413 90.8813 18.0413 90.5057C18.0413 90.1302 17.7373 89.8257 17.3624 89.8257C16.9875 89.8257 16.6836 90.1302 16.6836 90.5057C16.6836 90.8813 16.9875 91.1858 17.3624 91.1858Z" fill="#324E6B"/>
<path d="M185.672 90.1707L140.616 74.7369C138.703 74.087 136.627 75.0979 135.977 77.0113L113.521 142.556C112.871 144.469 113.882 146.545 115.795 147.195L160.851 162.629C162.765 163.278 164.841 162.268 165.491 160.354L187.946 94.8099C188.596 92.8964 187.585 90.8205 185.672 90.1707Z" fill="#2A4259"/>
<path d="M158.65 91.2902C157.169 90.6945 155.527 90.5501 153.974 90.8931C152.404 91.218 150.978 92.0122 149.859 93.1675C148.739 94.3228 147.981 95.7669 147.692 97.3374C147.404 98.9078 147.584 100.532 148.216 102.013C148.848 103.493 149.895 104.738 151.249 105.605C152.584 106.471 154.155 106.941 155.761 106.905C157.368 106.887 158.92 106.381 160.238 105.479C161.556 104.576 162.585 103.294 163.18 101.814L155.653 98.8176L158.668 91.2902H158.65Z" fill="#223548"/>
<path d="M161.05 90.1885L158.054 97.6978L165.563 100.694C165.96 99.7015 166.159 98.6545 166.141 97.5895C166.141 96.5245 165.906 95.4775 165.491 94.5027C165.076 93.528 164.462 92.6435 163.704 91.9033C162.946 91.1632 162.043 90.5856 161.05 90.1885Z" fill="#324E6B"/>
<path d="M167.296 117.068L135.904 106.31C134.857 105.949 133.738 106.508 133.377 107.555C133.016 108.602 133.576 109.722 134.623 110.083L166.014 120.841C167.061 121.202 168.18 120.643 168.541 119.596C168.902 118.549 168.343 117.429 167.296 117.068Z" fill="#223548"/>
<path d="M164.588 123.459L133.196 112.7C132.149 112.339 131.03 112.899 130.669 113.946C130.308 114.993 130.868 116.112 131.915 116.473L163.306 127.231C164.353 127.592 165.49 127.033 165.833 125.986C166.194 124.939 165.635 123.82 164.588 123.459Z" fill="#223548"/>
<path d="M147.331 124.686L130.615 118.964C129.568 118.603 128.431 119.162 128.088 120.209C127.727 121.256 128.287 122.375 129.334 122.736L146.067 128.459C147.114 128.82 148.233 128.26 148.594 127.213C148.955 126.166 148.396 125.047 147.349 124.686H147.331Z" fill="#223548"/>
<path d="M-35.9994 54.0682L8.94827 38.6343C10.8617 37.9845 12.9196 38.9953 13.5874 40.9088L35.9891 106.453C36.6389 108.366 35.6281 110.442 33.7146 111.092L-11.2331 126.526C-13.1465 127.176 -15.2043 126.165 -15.8722 124.252L-38.2739 58.7073C-38.9237 56.7939 -37.9129 54.718 -35.9994 54.0682Z" fill="#2A4259"/>
<path fill-rule="evenodd" clip-rule="evenodd" d="M7.32418 57.3174C8.19064 57.4257 8.78633 58.2019 8.69608 59.0684L5.93423 81.5061C5.86203 82.0296 5.5371 82.4989 5.04972 82.7336C4.56233 82.9683 4.00274 82.9322 3.55146 82.6614L-4.67993 77.607L-7.47787 95.7305C-7.60423 96.5789 -8.41654 97.1746 -9.26495 97.0483C-10.1134 96.9219 -10.7091 96.1096 -10.5827 95.2612L-7.44177 74.791C-7.36957 74.2675 -7.02659 73.8343 -6.55726 73.5996C-6.08793 73.383 -5.52834 73.4191 -5.07705 73.6899L3.08213 78.7082L5.5371 58.6893C5.64541 57.8228 6.42162 57.2271 7.28808 57.3354L7.32418 57.3174Z" fill="#324E6B"/>
<path d="M-26.1251 66.0192C-26.5403 66.1636 -26.7569 66.5968 -26.6125 67.012L-14.464 102.501C-14.4279 102.591 -14.3918 102.681 -14.3196 102.754L-14.0127 103.62C-13.8683 104.035 -13.417 104.252 -13.0199 104.107L22.4148 91.7964C22.83 91.652 23.0466 91.2007 22.9022 90.8036L22.126 88.5652C21.9815 88.1501 21.5303 87.9334 21.1331 88.0779L-11.3592 99.3599L-22.8939 65.7484C-23.0384 65.3332 -23.4716 65.1166 -23.8868 65.261L-26.1251 66.0372V66.0192Z" fill="#223548"/>
<path d="M-10.5831 111.4C-10.8719 110.587 -10.4567 109.685 -9.64443 109.396L7.43209 103.313C8.2444 103.024 9.14696 103.457 9.43578 104.269C9.7246 105.082 9.30942 105.984 8.49712 106.273L-8.56135 112.356C-9.37366 112.645 -10.2762 112.212 -10.565 111.4H-10.5831Z" fill="#223548"/>
<path d="M117.073 19.3335H32.5551C27.4339 19.3335 23.2822 23.4851 23.2822 28.6064V133.138C23.2822 138.259 27.4339 142.41 32.5551 142.41H117.073C122.194 142.41 126.346 138.259 126.346 133.138V28.6064C126.346 23.4851 122.194 19.3335 117.073 19.3335Z" fill="#CEDBE8"/>
<path fill-rule="evenodd" clip-rule="evenodd" d="M32.7832 29.2979C32.7832 28.8764 32.899 28.5386 33.0406 28.5386H116.053C116.194 28.5386 116.31 28.8603 116.31 29.2979V132.449C116.31 132.87 116.194 133.208 116.053 133.208H33.0406C32.899 133.208 32.7832 132.886 32.7832 132.449V29.2979Z" fill="#CEDBE8"/>
<path d="M55.1036 31.5762H38.7585C37.6568 31.5762 36.7637 32.4693 36.7637 33.571C36.7637 34.6728 37.6568 35.5659 38.7585 35.5659H55.1036C56.2053 35.5659 57.0985 34.6728 57.0985 33.571C57.0985 32.4693 56.2053 31.5762 55.1036 31.5762Z" fill="#0070F3"/>
<path d="M52.1895 85.2989C52.1895 84.3644 52.947 83.6069 53.8814 83.6069H63.2508C64.1852 83.6069 64.9427 84.3644 64.9427 85.2989V116.498C64.9427 117.432 64.1852 118.19 63.2508 118.19H53.8814C52.947 118.19 52.1895 117.432 52.1895 116.498V85.2989Z" fill="#2A4259"/>
<path d="M71.7441 66.5938C71.7441 65.6594 72.5016 64.9019 73.4361 64.9019H82.8054C83.7399 64.9019 84.4974 65.6594 84.4974 66.5938V117.005C84.4974 117.94 83.7399 118.697 82.8054 118.697H73.4361C72.5016 118.697 71.7441 117.94 71.7441 117.005V66.5938Z" fill="#2A4259"/>
<path d="M91.1602 102.513C91.1602 102.214 91.9453 101.972 92.9138 101.972H102.625C103.593 101.972 104.378 102.214 104.378 102.513V118.615C104.378 118.914 103.593 119.156 102.625 119.156H92.9138C91.9453 119.156 91.1602 118.914 91.1602 118.615V102.513Z" fill="#2A4259"/>
<path fill-rule="evenodd" clip-rule="evenodd" d="M38.6658 58.353C39.6049 58.353 40.3662 59.1143 40.3662 60.0535L40.3662 128.031C40.3662 128.97 39.6049 129.731 38.6658 129.731C37.7267 129.731 36.9653 128.97 36.9653 128.031L36.9653 60.0535C36.9653 59.1143 37.7267 58.353 38.6658 58.353Z" fill="#3B5B7C"/>
<path fill-rule="evenodd" clip-rule="evenodd" d="M36.9658 129.352C36.9658 128.413 37.7271 127.652 38.6663 127.652H106.644C107.583 127.652 108.344 128.413 108.344 129.352C108.344 130.291 107.583 131.053 106.644 131.053H38.6663C37.7271 131.053 36.9658 130.291 36.9658 129.352Z" fill="#3B5B7C"/>
<path d="M127.692 20.8849C127.692 19.4918 123.648 18.3767 118.245 18.1235C117.936 12.7272 116.747 8.71469 115.354 8.71778C113.96 8.72086 112.802 12.7642 112.505 18.1883C107.087 18.559 103.059 19.7698 103.077 21.166C103.096 22.5622 107.121 23.6773 112.524 23.9275C112.848 29.3238 114.022 33.3362 115.412 33.3332C116.802 33.3301 117.967 29.2867 118.263 23.8626C123.682 23.4919 127.707 22.2811 127.692 20.8849Z" fill="#F58B00"/>
<path d="M140.59 39.4646C140.59 38.4778 137.725 37.688 133.898 37.5085C133.679 33.6862 132.837 30.844 131.85 30.8462C130.863 30.8484 130.043 33.7124 129.833 37.5545C125.995 37.817 123.141 38.6747 123.154 39.6637C123.167 40.6526 126.019 41.4425 129.846 41.6197C130.075 45.4421 130.907 48.2843 131.892 48.2821C132.876 48.2799 133.701 45.4159 133.911 41.5738C137.749 41.3112 140.6 40.4536 140.59 39.4646Z" fill="#F58B00"/>
</g>
<path d="M37.7433 153.436C51.338 153.436 62.3587 142.415 62.3587 128.82C62.3587 115.226 51.338 104.205 37.7433 104.205C24.1486 104.205 13.1279 115.226 13.1279 128.82C13.1279 142.415 24.1486 153.436 37.7433 153.436Z" fill="#F58B00"/>
<path d="M37.7522 115.417H37.7432C35.9062 115.417 34.417 116.906 34.417 118.743V138.899C34.417 140.736 35.9062 142.225 37.7432 142.225H37.7522C39.5892 142.225 41.0784 140.736 41.0784 138.899V118.743C41.0784 116.906 39.5892 115.417 37.7522 115.417Z" fill="#CEDBE8"/>
<path d="M24.9102 128.44V129.192C24.9102 130.824 26.233 132.146 27.8647 132.146H47.6495C49.2812 132.146 50.604 130.824 50.604 129.192V128.44C50.604 126.808 49.2812 125.485 47.6495 125.485H27.8647C26.233 125.485 24.9102 126.808 24.9102 128.44Z" fill="#CEDBE8"/>
</svg>
