<svg width="40" height="46" viewBox="0 0 40 46" fill="none" xmlns="http://www.w3.org/2000/svg">
<path d="M38.911 43.4937L35.4462 44.9655L19.149 32.4551C20.0382 32.2405 20.8967 31.9799 21.6939 31.6426L38.911 43.4937Z" fill="#1B90FF"/>
<path d="M14.0901 12.9376C21.7865 13.4282 27.965 18.3036 27.8883 23.8075C27.8423 27.2264 25.374 30.0934 21.6792 31.6572L20.5753 30.8906L17.7237 31.3812L19.1495 32.4697C17.4938 32.853 15.7 33.0063 13.7989 32.8837C6.10258 32.3931 -0.0759511 27.5177 0.000705659 22.0138C0.0773624 16.5098 6.39379 12.447 14.0901 12.9376Z" fill="#1B90FF"/>
<path d="M20.5758 30.8916L21.6796 31.6582C20.8823 31.9955 20.0392 32.2714 19.1346 32.4707L17.7088 31.3822L20.5604 30.8916H20.5758Z" fill="#1B90FF"/>
<path fill-rule="evenodd" clip-rule="evenodd" d="M13.0026 8.36747C13.0026 8.36747 10.795 14.4387 14.4591 19.8047C18.1387 25.1706 23.4893 27.363 29.3612 26.7498C35.2331 26.1365 39.9858 21.1231 39.2346 14.1934C38.4833 7.26361 34.6659 5.0099 32.4735 3.41544C30.2811 1.82098 24.6544 0.548481 20.8216 1.42237C16.9888 2.29625 13.0026 8.3828 13.0026 8.3828V8.36747Z" fill="#8D2A00"/>
<path fill-rule="evenodd" clip-rule="evenodd" d="M24.1938 3.0326C30.817 3.12459 36.8421 7.89264 37.67 13.6572C38.4979 19.4218 33.7759 24.0212 27.1528 23.9139C20.5296 23.8066 14.5044 19.0539 13.6765 13.2893C12.864 7.52469 17.5707 2.92528 24.1938 3.0326Z" fill="#56BDFF"/>
<mask id="mask0_4003_75582" style="mask-type:luminance" maskUnits="userSpaceOnUse" x="13" y="3" width="25" height="21">
<path d="M24.193 3.03114C30.8162 3.12313 36.8414 7.89117 37.6692 13.6558C38.4971 19.4203 33.7751 24.0198 27.152 23.9124C20.5288 23.8051 14.5036 19.0524 13.6757 13.2878C12.8632 7.52322 17.5699 2.92382 24.193 3.03114Z" fill="white"/>
</mask>
<g mask="url(#mask0_4003_75582)">
<path fill-rule="evenodd" clip-rule="evenodd" d="M24.193 3.03163C30.8162 3.12361 36.8414 7.89166 37.6692 13.6562C38.4971 19.4208 33.7751 24.0202 27.152 23.9129C20.5288 23.8056 14.5036 19.0529 13.6757 13.2883C12.8632 7.52371 17.5699 2.92431 24.193 3.03163Z" fill="#FFEAF4"/>
<path fill-rule="evenodd" clip-rule="evenodd" d="M35.738 -5.98389C36.2439 -5.75392 36.3819 -5.09467 36.6886 -4.66539C37.5624 -3.43889 38.4209 -2.19705 39.2948 -0.970539C38.5896 -0.479936 37.8844 0.0106688 37.1792 0.501272L36.6425 -0.817225C29.2221 4.28811 21.7865 9.39345 14.3661 14.4988C13.8142 15.434 13.2776 16.3539 12.7256 17.2891C11.4991 18.1323 10.2573 18.9755 9.03074 19.8188C8.96942 19.7728 8.9081 19.7268 8.84678 19.6961C8.83144 19.7881 8.86214 19.8494 8.78548 19.7881C8.17223 18.8836 7.55896 17.979 6.9457 17.0745C6.77706 16.8292 6.31714 16.3999 6.3938 16.1546L8.78548 14.5294C8.9388 13.7629 9.07675 12.9963 9.23006 12.2298L13.1089 9.54677C20.652 4.3801 28.195 -0.801892 35.738 -5.98389ZM51.0233 5.39197C51.9125 6.66447 52.8017 7.93698 53.6756 9.20948C53.9056 9.50077 54.6108 10.0987 54.4422 10.528C46.8378 15.7253 39.2335 20.9226 31.6291 26.1046C29.8047 27.3618 27.9956 28.6343 26.1712 29.8915C25.8032 30.1674 24.6228 31.2866 24.1475 31.118L21.6791 27.3925C21.3878 26.9785 21.0352 26.6872 20.8206 26.1659C30.8779 19.2362 40.9506 12.3064 51.0233 5.37664V5.39197Z" fill="white"/>
</g>
<path d="M27.7838 24.7408C27.7838 24.7408 27.6458 24.7408 27.5691 24.7408C20.3327 24.6335 13.679 19.1602 12.7437 12.5371C12.3145 9.45547 13.1577 6.52718 15.1354 4.2888C17.3125 1.82046 20.6853 0.440635 24.3648 0.501961C31.6012 0.60928 38.2551 6.08257 39.1903 12.7057C39.6196 15.7873 38.7764 18.7156 36.7986 20.954C34.6676 23.361 31.3867 24.7408 27.7838 24.7408ZM24.1655 1.89711C20.9613 1.89711 18.0637 3.09296 16.1933 5.20868C14.4915 7.1251 13.7709 9.65477 14.1389 12.3224C14.9821 18.2863 21.0073 23.223 27.5845 23.315C27.6458 23.315 27.7071 23.315 27.7838 23.315C30.988 23.315 33.8856 22.1192 35.756 20.0034C37.4578 18.087 38.1784 15.5573 37.8105 12.8897C36.9672 6.92579 30.942 1.9891 24.3648 1.89711C24.3035 1.89711 24.2422 1.89711 24.1655 1.89711Z" fill="#C35500"/>
<path fill-rule="evenodd" clip-rule="evenodd" d="M35.0188 44.3192C35.0188 44.3192 28.779 27.2554 28.595 26.7648C28.411 26.2742 28.503 25.0171 29.7141 24.7258C30.9253 24.4345 31.646 25.6916 31.9066 26.2896C32.1672 26.8875 38.9283 43.4453 38.9283 43.4453L37.3339 44.0126L35.0188 44.3192Z" fill="#C35500"/>
<path fill-rule="evenodd" clip-rule="evenodd" d="M36.4449 41.9428L29.6531 24.6797C29.6531 24.6797 28.0587 25.2929 28.6106 26.7648C29.1625 28.2366 35.0037 44.3038 34.9884 44.2578C34.9731 44.2118 35.5404 43.1233 36.6902 42.694L36.4449 41.9428Z" fill="#8D2A00"/>
<path fill-rule="evenodd" clip-rule="evenodd" d="M36.4449 41.9428L29.6531 24.6797C29.6531 24.6797 28.0587 25.2929 28.6106 26.7648C29.1625 28.2366 35.0037 44.3038 34.9884 44.2578C34.9731 44.2118 35.5404 43.1233 36.6902 42.694L36.4449 41.9428Z" fill="#8D2A00"/>
<path fill-rule="evenodd" clip-rule="evenodd" d="M38.9119 43.2775L37.9154 40.9011C37.9154 40.9011 37.1028 39.9659 35.7537 40.3645C34.4045 40.7631 34.1899 42.051 34.1899 42.051L35.0025 44.2587L38.9273 43.2775H38.9119Z" fill="#C35500"/>
<mask id="mask1_4003_75582" style="mask-type:luminance" maskUnits="userSpaceOnUse" x="34" y="40" width="5" height="5">
<path d="M38.9102 43.2775L37.9137 40.9011C37.9137 40.9011 37.1011 39.9659 35.752 40.3645C34.4028 40.7631 34.1882 42.051 34.1882 42.051L35.0007 44.2587L38.9256 43.2775H38.9102Z" fill="white"/>
</mask>
<g mask="url(#mask1_4003_75582)">
<path fill-rule="evenodd" clip-rule="evenodd" d="M35.7053 40.0737L36.5331 42.2661L35.5059 44.8724L35.1533 45.5317L34.0494 44.1059L33.2062 41.0549L35.7053 40.0737Z" fill="#8D2A00"/>
</g>
<path fill-rule="evenodd" clip-rule="evenodd" d="M36.9491 41.9431C38.0836 41.9584 38.9882 42.771 38.9728 43.7522C38.9575 44.7334 38.0376 45.5153 36.9031 45.5C35.7685 45.4846 34.8641 44.6721 34.8794 43.6909C34.8947 42.7097 35.8146 41.9278 36.9491 41.9431Z" fill="#8D2A00"/>
<path d="M21.8181 10.7887L23.0906 11.356C23.0906 11.356 23.3359 10.4361 24.1331 9.86883C24.7464 9.42422 25.8502 9.25558 26.7854 10.0221C28.6558 11.5246 27.4293 12.6745 26.9081 13.9776C26.6474 14.6215 26.6474 15.3728 27.092 16.0474L28.3185 15.7867C28.3185 15.7867 28.0272 15.5721 28.1039 14.7289C28.1499 14.2689 28.6712 13.717 28.9931 12.7818C29.6677 10.8347 27.7819 8.56567 25.5129 8.35103C24.133 8.22838 22.6919 8.71898 21.8181 10.7887Z" fill="#00144A"/>
<path d="M29.3795 18.5002C29.7107 18.1849 29.662 17.5963 29.2709 17.1854C28.8797 16.7745 28.2942 16.6969 27.963 17.0122C27.6318 17.3275 27.6805 17.9161 28.0716 18.327C28.4628 18.7379 29.0483 18.8154 29.3795 18.5002Z" fill="#00144A"/>
</svg>
