<svg width="40" height="45" viewBox="0 0 40 45" fill="none" xmlns="http://www.w3.org/2000/svg">
<path d="M38.9111 42.9937L35.4463 44.4655L19.149 31.9551C20.0383 31.7405 20.8968 31.4799 21.694 31.1426L38.9111 42.9937Z" fill="#101619"/>
<path d="M14.0901 12.4376C21.7865 12.9282 27.965 17.8036 27.8883 23.3075C27.8423 26.7264 25.374 29.5934 21.6792 31.1572L20.5753 30.3906L17.7237 30.8812L19.1495 31.9697C17.4938 32.353 15.7 32.5063 13.7989 32.3837C6.10258 31.8931 -0.0759511 27.0177 0.000705659 21.5138C0.0773624 16.0098 6.39379 11.947 14.0901 12.4376Z" fill="#101619"/>
<path d="M20.5758 30.3916L21.6796 31.1582C20.8824 31.4955 20.0392 31.7714 19.1347 31.9707L17.7089 30.8822L20.5605 30.3916H20.5758Z" fill="#101619"/>
<path fill-rule="evenodd" clip-rule="evenodd" d="M13.0027 7.86747C13.0027 7.86747 10.795 13.9387 14.4592 19.3047C18.1387 24.6706 23.4893 26.863 29.3612 26.2498C35.2331 25.6365 39.9859 20.6231 39.2346 13.6934C38.4834 6.76361 34.6659 4.5099 32.4735 2.91544C30.2812 1.32098 24.6545 0.048481 20.8217 0.922368C16.9888 1.79625 13.0027 7.8828 13.0027 7.8828V7.86747Z" fill="#8D2A00"/>
<path fill-rule="evenodd" clip-rule="evenodd" d="M24.1939 2.5326C30.8171 2.62459 36.8423 7.39264 37.6702 13.1572C38.4981 18.9218 33.776 23.5212 27.1529 23.4139C20.5297 23.3066 14.5046 18.5539 13.6767 12.7893C12.8641 7.02469 17.5708 2.42528 24.1939 2.5326Z" fill="#4D82B8"/>
<mask id="mask0_4038_83211" style="mask-type:luminance" maskUnits="userSpaceOnUse" x="13" y="2" width="25" height="22">
<path d="M24.1931 2.53114C30.8162 2.62313 36.8414 7.39117 37.6693 13.1558C38.4972 18.9203 33.7752 23.5198 27.152 23.4124C20.5289 23.3051 14.5037 18.5524 13.6758 12.7878C12.8632 7.02322 17.5699 2.42382 24.1931 2.53114Z" fill="white"/>
</mask>
<g mask="url(#mask0_4038_83211)">
<path fill-rule="evenodd" clip-rule="evenodd" d="M24.193 2.53163C30.8161 2.62361 36.8413 7.39166 37.6692 13.1562C38.4971 18.9208 33.775 23.5202 27.1519 23.4129C20.5288 23.3056 14.5036 18.5529 13.6757 12.7883C12.8631 7.02371 17.5698 2.42431 24.193 2.53163Z" fill="#D0C1CB"/>
<path fill-rule="evenodd" clip-rule="evenodd" d="M35.738 -6.48389C36.2439 -6.25392 36.3819 -5.59467 36.6886 -5.16539C37.5624 -3.93889 38.4209 -2.69705 39.2948 -1.47054C38.5896 -0.979936 37.8844 -0.489331 37.1792 0.00127172L36.6425 -1.31722C29.2221 3.78811 21.7865 8.89345 14.3661 13.9988C13.8142 14.934 13.2776 15.8539 12.7256 16.7891C11.4991 17.6323 10.2573 18.4755 9.03074 19.3188C8.96942 19.2728 8.9081 19.2268 8.84678 19.1961C8.83144 19.2881 8.86214 19.3494 8.78548 19.2881C8.17223 18.3836 7.55896 17.479 6.9457 16.5745C6.77706 16.3292 6.31714 15.8999 6.3938 15.6546L8.78548 14.0294C8.9388 13.2629 9.07675 12.4963 9.23006 11.7298L13.1089 9.04677C20.652 3.8801 28.195 -1.30189 35.738 -6.48389ZM51.0233 4.89197C51.9125 6.16447 52.8017 7.43698 53.6756 8.70948C53.9056 9.00077 54.6108 9.59869 54.4422 10.028C46.8378 15.2253 39.2335 20.4226 31.6291 25.6046C29.8047 26.8618 27.9956 28.1343 26.1712 29.3915C25.8032 29.6674 24.6228 30.7866 24.1475 30.618L21.6791 26.8925C21.3878 26.4785 21.0352 26.1872 20.8206 25.6659C30.8779 18.7362 40.9506 11.8064 51.0233 4.87664V4.89197Z" fill="#D5DADD"/>
</g>
<path d="M27.7839 24.2408C27.7839 24.2408 27.6458 24.2408 27.5692 24.2408C20.3328 24.1335 13.679 18.6602 12.7438 12.0371C12.3145 8.95547 13.1577 6.02718 15.1355 3.7888C17.3125 1.32046 20.6854 -0.0593648 24.3649 0.0019606C31.6013 0.10928 38.2552 5.58257 39.1904 12.2057C39.6197 15.2873 38.7764 18.2156 36.7987 20.454C34.6676 22.861 31.3867 24.2408 27.7839 24.2408ZM24.1656 1.39711C20.9613 1.39711 18.0638 2.59296 16.1934 4.70868C14.4916 6.6251 13.771 9.15477 14.1389 11.8224C14.9821 17.7863 21.0074 22.723 27.5845 22.815C27.6459 22.815 27.7072 22.815 27.7839 22.815C30.9881 22.815 33.8857 21.6192 35.7561 19.5034C37.4579 17.587 38.1785 15.0573 37.8105 12.3897C36.9673 6.42579 30.942 1.4891 24.3649 1.39711C24.3036 1.39711 24.2422 1.39711 24.1656 1.39711Z" fill="#C35500"/>
<path fill-rule="evenodd" clip-rule="evenodd" d="M35.0189 43.8192C35.0189 43.8192 28.7791 26.7554 28.5951 26.2648C28.4111 25.7742 28.5031 24.5171 29.7143 24.2258C30.9254 23.9345 31.6461 25.1916 31.9067 25.7896C32.1674 26.3875 38.9284 42.9453 38.9284 42.9453L37.334 43.5126L35.0189 43.8192Z" fill="#C35500"/>
<path fill-rule="evenodd" clip-rule="evenodd" d="M36.4449 41.4428L29.6532 24.1797C29.6532 24.1797 28.0587 24.7929 28.6106 26.2648C29.1626 27.7366 35.0038 43.8038 34.9884 43.7578C34.9731 43.7118 35.5404 42.6233 36.6903 42.194L36.4449 41.4428Z" fill="#8D2A00"/>
<path fill-rule="evenodd" clip-rule="evenodd" d="M36.4449 41.4428L29.6532 24.1797C29.6532 24.1797 28.0587 24.7929 28.6106 26.2648C29.1626 27.7366 35.0038 43.8038 34.9884 43.7578C34.9731 43.7118 35.5404 42.6233 36.6903 42.194L36.4449 41.4428Z" fill="#8D2A00"/>
<path fill-rule="evenodd" clip-rule="evenodd" d="M38.9119 42.7775L37.9154 40.4011C37.9154 40.4011 37.1028 39.4659 35.7537 39.8645C34.4045 40.2631 34.1899 41.551 34.1899 41.551L35.0025 43.7587L38.9273 42.7775H38.9119Z" fill="#C35500"/>
<mask id="mask1_4038_83211" style="mask-type:luminance" maskUnits="userSpaceOnUse" x="34" y="39" width="5" height="5">
<path d="M38.9102 42.7775L37.9137 40.4011C37.9137 40.4011 37.1011 39.4659 35.752 39.8645C34.4028 40.2631 34.1882 41.551 34.1882 41.551L35.0007 43.7587L38.9256 42.7775H38.9102Z" fill="white"/>
</mask>
<g mask="url(#mask1_4038_83211)">
<path fill-rule="evenodd" clip-rule="evenodd" d="M35.7052 39.5737L36.5331 41.7661L35.5059 44.3724L35.1533 45.0317L34.0494 43.6059L33.2062 40.5549L35.7052 39.5737Z" fill="#8D2A00"/>
</g>
<path fill-rule="evenodd" clip-rule="evenodd" d="M36.9492 41.4431C38.0837 41.4584 38.9882 42.271 38.9729 43.2522C38.9576 44.2334 38.0376 45.0153 36.9031 45C35.7686 44.9846 34.8641 44.1721 34.8795 43.1909C34.8948 42.2097 35.8146 41.4278 36.9492 41.4431Z" fill="#8D2A00"/>
<path d="M21.8181 10.2887L23.0906 10.856C23.0906 10.856 23.3359 9.93609 24.1332 9.36883C24.7464 8.92422 25.8502 8.75558 26.7855 9.52214C28.6559 11.0246 27.4294 12.1745 26.9081 13.4776C26.6475 14.1215 26.6475 14.8728 27.0921 15.5474L28.3186 15.2867C28.3186 15.2867 28.0273 15.0721 28.1039 14.2289C28.1499 13.7689 28.6712 13.217 28.9932 12.2818C29.6678 10.3347 27.782 8.06567 25.5129 7.85103C24.1331 7.72838 22.692 8.21898 21.8181 10.2887Z" fill="#00144A"/>
<path d="M29.3796 18.0002C29.7108 17.6849 29.6621 17.0963 29.271 16.6854C28.8798 16.2745 28.2943 16.1969 27.9631 16.5122C27.632 16.8275 27.6806 17.4161 28.0718 17.827C28.4629 18.2379 29.0485 18.3154 29.3796 18.0002Z" fill="#00144A"/>
</svg>
