<svg width="128" height="67" viewBox="0 0 128 67" fill="none" xmlns="http://www.w3.org/2000/svg">
<path d="M0 20C0 15.5817 3.58172 12 8 12H120C124.418 12 128 15.5817 128 20V59C128 63.4183 124.418 67 120 67H8C3.58172 67 0 63.4183 0 59V20Z" fill="#222F3B"/>
<mask id="mask0_4038_84543" style="mask-type:alpha" maskUnits="userSpaceOnUse" x="5" y="12" width="123" height="53">
<rect x="5" y="12" width="123" height="53" rx="12" fill="#89D1FF"/>
</mask>
<g mask="url(#mask0_4038_84543)">
<path d="M86.4915 15.2499L83.3138 14.4906C83.4711 14.3685 84.0806 14.4324 84.6929 14.1258C85.7814 13.5823 86.0819 12.2695 86.1103 12.1389C86.1599 11.9061 86.303 11.1908 85.9685 10.4358C85.8523 10.1733 85.6213 9.65097 85.1181 9.44234C85.0274 9.40544 84.9622 9.39125 84.9069 9.38132C85.0387 9.1443 85.1946 8.78524 85.4016 8.30695C85.7262 7.55617 85.7262 7.34613 85.685 7.17156C85.5702 6.67908 85.1181 6.40517 84.9764 6.32002C84.6801 6.14119 84.3966 6.10429 83.8424 6.03617C82.8914 5.91979 82.7638 6.0603 82.2833 5.89424C82.0721 5.82186 81.9049 5.72819 81.7716 5.63878C81.7433 5.45996 81.7617 5.24281 81.7164 4.75885C81.7164 4.75885 81.637 3.92008 81.4329 3.19769C81.0771 1.94166 80.1346 1.14263 79.8738 0.926907C78.9227 0.140649 77.9532 -0.053787 77.1807 -0.208484C76.5684 -0.330539 75.5153 -0.530651 74.2042 -0.208484C72.5799 0.190322 71.592 1.13554 71.2277 1.4946C70.4581 2.25106 69.5212 3.17214 69.6686 4.19116C69.6927 4.36147 69.7451 4.51191 69.8061 4.65241C69.4971 4.77447 69.3199 5.1605 69.2434 5.32655C69.2037 5.41312 69.035 5.79916 69.1016 6.32002C69.1612 6.78553 69.3383 6.80398 69.3851 7.17156C69.4602 7.75771 69.0393 7.92943 68.9599 8.5908C68.916 8.96264 69.001 9.30326 69.1073 9.5573C69.1045 9.56582 69.1031 9.57433 69.1016 9.58427C69.0081 10.0626 69.5028 10.555 69.6686 10.7197C69.7962 10.846 69.9209 10.9439 70.0229 11.0149V11.2902C70.0229 11.6067 70.1491 11.9104 70.3716 12.1332L70.4056 12.1673C70.7047 12.4667 71.1101 12.6342 71.5324 12.6342H71.7748C71.772 12.6512 71.7706 12.6697 71.7663 12.6867C71.7635 12.7009 71.7606 12.7137 71.7578 12.7279C71.7507 12.7619 71.7422 12.7946 71.7323 12.8286C71.7281 12.8428 71.7252 12.857 71.721 12.8698C71.7082 12.9124 71.694 12.9535 71.677 12.9947C71.677 12.9975 71.6756 13.0004 71.6742 13.0032C71.6572 13.0458 71.6373 13.0869 71.6161 13.1281C71.609 13.1409 71.6019 13.1551 71.5948 13.1678C71.5792 13.1962 71.5622 13.2246 71.5452 13.253C71.5367 13.2658 71.5282 13.28 71.5197 13.2927C71.497 13.3268 71.4729 13.3609 71.4474 13.3921C71.4446 13.3963 71.4403 13.402 71.4375 13.4063C71.3737 13.4872 71.3014 13.5624 71.222 13.6305C70.9031 13.9044 70.5006 14.0605 70.081 14.0762L69.6048 14.0932C69.6374 14.0648 69.6544 14.0421 69.6459 14.0222C69.6332 13.9924 69.5708 13.9825 69.4772 13.9853C69.3979 13.9797 69.1952 13.9953 68.6807 14.0889C67.6247 14.2819 66.8338 14.4267 65.853 14.8724C65.14 15.1959 64.3208 15.7792 63.7595 16.5102C62.5958 17.637 61.5342 18.8689 60.3549 19.9802C60.2231 20.1051 59.8574 20.4429 59.9283 20.7764C59.9425 20.8459 59.9737 20.897 60.1749 21.117C60.2359 21.1851 60.2912 21.2447 60.3436 21.3015C60.1721 21.5754 59.9311 21.9444 59.5484 22.4284C59.2565 22.7988 58.9418 23.1508 58.3678 23.7852L55.4394 24.6381V29.9844C53.8095 30.2938 53.0894 30.1093 49.3008 30.8927C48.8812 30.9793 48.2065 31.1964 47.1506 31.5683C47.1506 31.5683 47.1477 31.5683 47.1463 31.5697C46.7098 31.723 46.208 31.9046 45.6326 32.1133C45.6255 32.1161 45.617 32.1189 45.6099 32.1218C45.4696 32.1729 45.325 32.2254 45.1762 32.2793C45.1705 32.2822 45.1648 32.2836 45.1592 32.285C45.0103 32.3389 44.8587 32.3943 44.7013 32.4525C44.6886 32.4567 44.6744 32.4624 44.6616 32.4667C44.5114 32.522 44.3583 32.5774 44.1996 32.6356C44.167 32.6483 44.1315 32.6611 44.0975 32.6725C43.9473 32.7278 43.7942 32.7832 43.6355 32.8413C43.2613 32.9776 42.4222 33.2969 41.9077 34.1045C41.661 34.4905 41.5803 34.8467 41.5505 34.9759C41.4654 35.3477 41.3691 35.7167 41.267 36.0857C40.9169 37.3645 40.5059 38.6304 40.2706 39.9347C39.6951 43.1124 39.8255 41.6179 38.8518 46.3695C38.7866 46.6889 38.7228 47.0039 38.6463 47.3147C38.5074 47.1742 38.2466 47.2367 38.2069 47.4524C38.085 48.1209 37.8681 49.0689 37.5393 49.6664C37.4273 49.8708 37.3111 50.0737 37.2076 50.2838L36.7937 51.1297L36.5485 51.5796C36.2877 52.0564 35.8512 52.4183 35.3282 52.5673C35.3253 52.5673 35.3225 52.5688 35.3197 52.5702L32.8988 53.2528L31.7549 53.9838C31.6132 54.0746 31.5282 54.2307 31.5282 54.3996C31.5282 54.5486 31.5962 54.6905 31.7124 54.7842L32.1546 55.1376C32.2269 55.1958 32.3162 55.2327 32.4083 55.2426L34.2269 55.4413L32.3077 55.9835L31.0236 56.8038C30.8648 56.906 30.7684 57.0805 30.7684 57.2693C30.7684 57.4368 30.845 57.5957 30.9754 57.7007L31.4715 58.0981C31.5537 58.1634 31.6529 58.2046 31.7564 58.2159L33.8697 58.4473L34.8944 58.1733C35.562 57.9945 36.2381 57.8498 36.9213 57.7391L41.4711 56.9968C41.9218 56.9968 42.2875 56.6306 42.2875 56.1793V55.1759C42.2875 55.061 42.3272 54.9517 42.3967 54.8651C42.4208 54.8367 42.4463 54.8097 42.4775 54.7856L44.7013 53.3862C44.8388 53.2997 44.8672 53.1152 44.7694 52.9903L45.2796 52.5915L47.1364 52.9321C48.6417 53.2074 50.1696 53.3465 51.7004 53.3465C52.813 53.3465 53.9257 53.2727 55.0284 53.1265L57.1403 52.8469L59.2366 52.4637L58.7901 56.2701C57.248 56.1836 55.7102 56.0062 54.1879 55.7323L52.6047 55.4484H51.5034L50.9194 57.2154C52.9718 57.8299 55.0879 58.206 57.2254 58.3394C57.8632 58.4047 58.5038 58.4402 59.1459 58.4529L59.2239 58.4572L59.2125 58.4544C59.3486 58.4572 59.4832 58.4614 59.6193 58.4614H62.5165C63.1302 58.4614 63.7439 58.4402 64.3562 58.399L65.8346 58.2982C67.0691 58.2145 68.2951 58.0456 69.507 57.7944C70.5403 57.5801 71.5594 57.3062 72.5601 56.9727L74.2666 56.405C75.2021 56.0942 76.1205 55.7308 77.0177 55.3178L77.2445 55.2128C78.4408 54.6621 79.5945 54.0249 80.6987 53.3054C81.3649 52.8711 82.0112 52.407 82.6362 51.9159L83.9785 50.86C84.1486 50.7266 84.2478 50.5208 84.2478 50.3037C84.2478 50.0312 84.0905 49.7828 83.8453 49.665L83.6865 49.5898C83.6398 49.5671 83.5916 49.5515 83.5405 49.5401C83.5363 49.5401 83.532 49.5373 83.5264 49.5359L82.384 49.2974C82.2975 49.279 82.2082 49.2776 82.1217 49.2903C82.0282 49.3045 81.9389 49.3357 81.8567 49.384L77.0588 52.2182C77.0588 52.2182 77.0546 52.2211 77.0532 52.2211C76.8434 52.3459 76.6294 52.4652 76.4168 52.583C76.2212 52.6908 76.0241 52.7973 75.8257 52.9009C75.538 53.0527 75.2474 53.1989 74.9554 53.3408L73.7422 47.1161H73.8088C74.679 47.1161 75.5408 46.9486 76.3473 46.6222L76.4692 46.5725C77.2133 46.2716 77.7959 45.6698 78.0751 44.9162L81.9304 34.4848L85.8764 23.0812C86.5525 21.1284 87.1421 19.1457 87.6425 17.1403V17.1375C87.8536 16.2958 87.3363 15.4429 86.493 15.2414L86.4915 15.2499ZM61.5484 25.5365C61.547 25.5592 61.5441 25.5819 61.5413 25.6061L61.4761 25.6018C61.5002 25.5791 61.5257 25.5578 61.5484 25.5365ZM47.3731 50.992C47.3873 50.9821 47.4015 50.9735 47.4156 50.9636C47.4511 50.9409 47.4865 50.9168 47.5233 50.8941C47.5375 50.8841 47.5531 50.8756 47.5673 50.8657C47.5829 50.8557 47.5985 50.8444 47.6141 50.8345C47.7133 50.7692 47.8167 50.701 47.9344 50.6187C47.95 50.6088 47.9656 50.596 47.9812 50.5861C48.0634 50.5279 48.1498 50.4655 48.2476 50.3931C48.2731 50.3746 48.3015 50.3533 48.3284 50.332C48.361 50.3065 48.3936 50.2824 48.4291 50.2554C48.4744 50.2199 48.5226 50.183 48.5722 50.1433C48.6587 50.0752 48.7494 50.0042 48.8486 49.9233C50.4021 48.6644 51.1788 48.0357 51.767 47.0948C51.9187 46.8521 52.0873 46.5413 52.2603 45.6571L55.6436 46.8138L49.8153 51.4064C48.962 51.3369 48.1144 51.2205 47.2739 51.0587C47.3065 51.0374 47.3377 51.0147 47.3703 50.9948L47.3731 50.992ZM56.7094 47.1231H59.8617L59.4294 50.8118L54.0589 51.361C52.9619 51.4731 51.8577 51.5058 50.755 51.4603L56.708 47.1217L56.7094 47.1231ZM62.0785 50.5407L60.3507 50.7181L60.8567 47.1231H61.6816L62.3223 50.5137C62.2415 50.5222 62.1607 50.5322 62.0799 50.5407H62.0785ZM84.5497 6.74579C84.5795 6.75714 85.2244 7.00551 85.2584 7.45541C85.2868 7.84002 84.853 8.15084 84.8332 8.16503C84.7623 8.2147 84.6957 8.24734 84.6348 8.27005C84.6447 8.09549 84.6305 7.91524 84.5497 7.73926C84.4703 7.56611 84.0735 7.33903 83.2854 6.89339C83.6667 6.73585 84.0607 6.56271 84.5497 6.74579ZM69.8089 7.45541C69.8004 8.07703 69.7933 8.57093 69.5254 9.01657C69.3964 9.23088 69.2873 9.30042 69.2094 9.37706C69.1824 9.18546 69.181 8.96548 69.242 8.73272C69.3525 8.30837 69.5509 8.29418 69.6672 7.88118C69.8401 7.26665 69.4588 7.07789 69.5254 6.46194C69.5779 5.97372 69.8656 5.61749 70.0981 5.34074C70.142 5.50821 70.1519 5.68704 70.0924 5.89424C70.0201 6.14687 69.8585 6.3924 69.8089 6.88771C69.7862 7.11479 69.8132 7.12189 69.8089 7.45541ZM74.0951 53.7453C72.879 54.2846 71.626 54.743 70.3433 55.1106C68.9812 55.4995 67.5935 55.789 66.1889 55.9735L65.938 56.0062C64.2811 56.2247 62.6114 56.334 60.9403 56.334C60.4811 56.334 60.0219 56.3241 59.5626 56.307L60.1267 52.3034L62.0331 51.9557C63.0026 51.7783 63.9664 51.5753 64.9246 51.344L66.1549 51.0488L68.838 50.3179C68.8904 50.3037 68.923 50.2526 68.9145 50.1986L68.8323 49.6721C68.8323 49.6721 68.8323 49.665 68.8309 49.6622C68.8267 49.6366 68.8082 49.6139 68.7771 49.6111L67.5822 49.4692C67.5737 49.4692 67.5652 49.4692 67.5581 49.4706L66.916 49.6451C65.6191 49.9971 64.3009 50.2611 62.97 50.4371L62.2911 47.126H72.5246L74.0937 53.7482L74.0951 53.7453Z" fill="#101619"/>
</g>
<path d="M53.1814 57.6001C55.2818 58.2274 57.4462 58.6078 59.6346 58.7341L61.4952 58.8419L55.2208 56.9629L53.1814 57.6001Z" fill="#00144A"/>
<path d="M51.6573 52.1183L60.3558 45.2734L61.0242 46.0157L52.6409 52.1183H51.6573Z" fill="#2A4259"/>
<path d="M65.3525 51.3377L64.2171 45.8027H63.6338L64.6798 51.3377H65.3525Z" fill="#2A4259"/>
<path d="M71.116 50.043L71.1997 50.5794C71.2082 50.6334 71.1741 50.6845 71.1231 50.6987L68.4365 51.4296L67.2046 51.7262C66.2452 51.9561 65.2801 52.1604 64.3094 52.3379L59.4088 53.232L57.2942 53.5115C56.19 53.6577 55.0759 53.7315 53.9618 53.7315C52.4291 53.7315 50.8991 53.5924 49.3919 53.3171L46.8047 52.8431L47.5767 51.4934L50.0164 52.0725L55.6209 52.2342L60.7727 51.6623L67.9624 50.6121L71.1174 50.043H71.116Z" fill="#00144A"/>
<path d="M47.6982 52.1175L48.5284 52.3006C49.9391 52.6114 51.3754 52.7888 52.8201 52.8314C54.079 52.8683 55.3378 52.8044 56.5853 52.637L64.9502 51.5186C66.3382 51.3327 67.712 51.0517 69.0603 50.6756L71.0699 50.1164C71.138 50.098 71.1295 50 71.06 49.9915L69.8636 49.8496C69.855 49.8496 69.8465 49.8496 69.8394 49.851L69.1965 50.0256C67.6084 50.4556 65.9891 50.7565 64.3527 50.924L56.3228 51.7443C55.2073 51.8578 54.0861 51.8919 52.9663 51.8436H52.9479C51.5698 51.784 50.2002 51.6009 48.8548 51.2986L48.2006 51.151L47.6953 52.1175H47.6982Z" fill="#2A4259"/>
<path d="M77.4157 54.6015L75.8262 46.458L74.5773 46.5119L76.5642 54.8853L77.4157 54.6015Z" fill="#00144A"/>
<path d="M61.0234 56.9617L62.4526 44.7891H63.5128L61.7955 56.9617H61.0234Z" fill="#00144A"/>
<path d="M54.2841 57.6004H53.1814L53.7661 55.832H54.8689L54.2841 57.6004Z" fill="#2A4259"/>
<path d="M54.8694 55.8326L56.4547 56.1164C58.6857 56.5152 60.9494 56.7167 63.2159 56.7167C64.8891 56.7167 66.561 56.6075 68.2201 56.3889L68.4713 56.3563C69.8763 56.1718 71.2671 55.8837 72.631 55.4934C74.9855 54.8207 77.2449 53.8499 79.3553 52.6053L84.1593 49.7711C84.3183 49.6774 84.507 49.6462 84.6873 49.6831L85.8312 49.9215C85.8865 49.9329 85.9405 49.9513 85.9916 49.9754L86.1505 50.0507C86.3974 50.1684 86.5536 50.4168 86.5536 50.6893C86.5536 50.9064 86.4542 51.1108 86.2839 51.2456L84.9399 52.3015C84.314 52.7926 83.6669 53.2567 82.9998 53.691C81.8957 54.4105 80.739 55.0477 79.5412 55.5984L79.3141 55.7034C78.4172 56.1164 77.4975 56.4783 76.5594 56.7905L74.8507 57.3582C73.8487 57.6917 72.8283 57.9657 71.7937 58.18C70.5802 58.4312 69.3526 58.6 68.1165 58.6838L66.6362 58.7845C66.0231 58.8257 65.4086 58.847 64.7941 58.847H61.8932C60.8259 58.847 59.7601 58.7746 58.7028 58.6313C57.3729 58.451 56.0602 58.1587 54.78 57.7556L54.2861 57.6009L54.8709 55.834L54.8694 55.8326Z" fill="#00144A"/>
<path d="M85.8519 49.928C85.8449 49.9266 85.8378 49.9238 85.8292 49.9224L84.6853 49.6839C84.5051 49.6456 84.3163 49.6768 84.1574 49.7719L79.3533 52.6061C78.9474 52.846 78.5344 53.0716 78.1172 53.2902L80.7839 53.4576C81.0096 53.4718 81.2338 53.4094 81.4197 53.2788L82.4643 52.5465C83.2051 52.0285 83.9261 51.4835 84.63 50.9158L85.8519 49.928Z" fill="#2A4259"/>
<path d="M79.9323 13.5146L88.7996 15.6321C89.644 15.8337 90.1606 16.6852 89.9506 17.5282V17.531C89.4482 19.5364 88.8592 21.5191 88.1822 23.4719L84.2311 34.8754L80.3708 45.3066C80.0927 46.0602 79.508 46.662 78.7629 46.9629L78.6408 47.0125C77.8333 47.339 76.9704 47.5064 76.099 47.5064H58.8256L53.0068 45.5195L54.1422 39.7007L79.9323 13.5161V13.5146Z" fill="#8D2A00"/>
<path d="M76.0285 30.9079C76.0115 30.8099 76.5934 30.7532 76.9212 30.238C77.144 29.8889 77.1313 29.517 77.127 29.3453C77.1 28.0637 77.3768 26.7935 77.4534 25.5148C77.5414 24.0573 77.6138 23.457 77.8707 22.7147C78.0381 22.2307 78.2865 21.6787 78.3376 21.6957C78.3858 21.7113 78.2212 22.2208 78.1275 22.8084C78.058 23.2427 78.0012 23.8856 78.1346 24.9869C78.4965 27.9502 79.6731 29.5326 78.9677 30.4892C78.2439 31.4699 76.0597 31.0952 76.0271 30.9093L76.0285 30.9079Z" fill="#D094B0"/>
<path d="M62.8572 29.2728C64.9918 29.7496 67.0553 32.2858 66.5642 33.8313C65.7539 36.3774 58.9005 33.4126 53.4393 37.4006C50.5852 39.4855 51.5815 40.9345 46.2453 48.5486C43.7474 52.1123 40.8323 56.272 39.2712 55.6873C38.2706 55.3126 39.4131 53.3044 40.1426 51.8866C40.4704 51.2494 39.1789 50.8648 39.7906 50.0956C40.645 49.0198 40.8607 47.9199 41.0992 46.7533C42.0742 42.0018 41.9436 43.4962 42.5198 40.3186C42.8235 38.6396 43.4196 37.0246 43.8014 35.3612C43.8312 35.2321 43.9121 34.8759 44.159 34.4898C44.6742 33.6823 45.5144 33.363 45.889 33.2267C49.1575 32.0332 50.791 31.4371 51.5617 31.2781C56.3373 30.2918 56.2422 30.841 59.2297 30.0037C61.2805 29.4289 61.8013 29.0372 62.8572 29.2728Z" fill="#2A4259"/>
<path d="M45.6235 49.4324C45.649 48.9939 45.5965 48.6916 45.4801 48.6164C45.3226 48.5156 45.1083 48.8633 44.4725 48.8832C43.8622 48.9016 43.391 48.5993 42.724 48.1721C42.1151 47.7818 41.7092 47.393 41.5687 47.2539C41.3715 47.0595 41.2225 46.8877 41.1018 46.7373C41.1018 46.743 41.1004 46.7472 41.099 46.7529C40.8591 47.9195 40.6448 49.0194 39.7905 50.0952C39.1788 50.8644 40.4348 51.0248 40.1069 51.6606C39.3789 53.077 38.2705 55.3108 39.271 55.6855C40.7044 56.222 43.2789 52.7605 45.6235 49.4324Z" fill="#FF7F4C"/>
<path d="M41.0056 52.8416L41.8486 53.5994L45.1767 48.987L44.9894 48.7812C44.856 48.8337 44.6899 48.8777 44.4742 48.8848C44.1747 48.8933 43.9093 48.8252 43.6369 48.7031L41.0056 52.8416Z" fill="#A93E00"/>
<path d="M35.1378 53.6367L36.5314 55.8337L34.6467 55.6279C34.553 55.618 34.4651 55.5811 34.3927 55.5229L33.9499 55.1695C33.8335 55.0758 33.7654 54.9339 33.7654 54.7849C33.7654 54.616 33.8505 54.4599 33.9925 54.369L35.1378 53.6381V53.6367Z" fill="#D094B0"/>
<path d="M40.9662 47.8121L40.9406 47.7639C40.8257 47.5425 40.4964 47.5907 40.4524 47.8363C40.3304 48.5047 40.1132 49.4528 39.784 50.0502C39.6719 50.2546 39.5555 50.4576 39.4519 50.6676L39.0375 51.5135L38.7919 51.9634C38.5308 52.4402 38.0937 52.8021 37.57 52.9511C37.5672 52.9511 37.5643 52.9526 37.5615 52.954L35.1375 53.6366L36.5311 55.8336L37.4451 55.5895C38.0412 55.4305 38.6443 55.3014 39.2532 55.202L43.3136 54.5407C43.7152 54.5407 44.0416 54.2142 44.0416 53.8126V52.9185C44.0416 52.7822 44.1041 52.6545 44.2105 52.5708L46.2159 51.0011L44.1467 50.4136C42.7729 50.0233 41.6219 49.0823 40.9662 47.815V47.8121Z" fill="#D094B0"/>
<path d="M85.5768 14.934L88.6693 16.2426C89.0042 16.3845 89.1674 16.7634 89.0411 17.104L87.6276 20.9146C87.5098 21.2311 87.1777 21.4142 86.847 21.3418L85.4363 21.0353L85.5782 14.9326L85.5768 14.934Z" fill="#C35500"/>
<path d="M63.2298 21.013C62.8608 21.0414 62.8509 21.5112 61.822 22.8112C61.4998 23.2199 61.1507 23.6045 60.4538 24.3752C59.4334 25.5035 59.2134 25.6695 59.1638 26.0953C59.0928 26.6999 59.4192 27.3115 59.8677 27.6791C59.9046 27.7089 60.6469 28.2993 61.4714 28.0708C61.9369 27.9417 62.2123 27.611 62.3712 27.4251C64.1708 25.3133 64.6689 25.5318 64.913 24.6491C65.3658 23.0141 64.0232 20.952 63.2313 21.013H63.2298Z" fill="#FF7F4C"/>
<path d="M79.475 0.174326C80.2485 0.329021 81.2193 0.523455 82.1715 1.3097C82.4327 1.52543 83.3765 2.32445 83.7327 3.58046C83.9371 4.30284 84.0165 5.1416 84.0165 5.1416C84.0847 5.85689 84.0109 5.99172 84.1585 6.27698C84.3004 6.55231 84.4849 6.65449 85.5777 7.27043C86.3753 7.72033 86.7755 7.9474 86.855 8.12197C87.1303 8.71946 86.6421 9.37514 86.9969 9.68311C87.1175 9.78813 87.1913 9.72995 87.4227 9.82503C87.9265 10.0337 88.1578 10.5559 88.2742 10.8185C88.6091 11.5735 88.4658 12.2888 88.4161 12.5216C88.3877 12.6521 88.0869 13.9649 86.9969 14.5085C86.3001 14.8562 85.6075 14.7256 85.5777 14.9342C85.5536 15.096 85.9779 15.1471 86.2873 15.5019C86.8465 16.1448 86.5811 17.2717 86.4292 17.9146C86.161 19.0557 85.7792 19.1905 85.8615 19.9015C85.9467 20.6367 86.398 20.8609 86.2873 21.3207C86.1298 21.9736 85.0497 22.2361 84.7261 22.3142C82.0892 22.9528 75.6474 21.4513 74.7916 17.7727C74.2963 15.6424 75.8347 13.4753 74.7916 12.6635C74.4694 12.4137 73.845 12.2476 72.5208 11.5281C72.4556 11.4926 72.2086 11.3564 71.9532 11.1023C71.7871 10.9377 71.2918 10.4452 71.3855 9.96696C71.4351 9.71008 71.5955 9.75691 71.8112 9.39927C72.0795 8.95363 72.0866 8.45974 72.0951 7.83812C72.0993 7.50461 72.0724 7.49751 72.0951 7.27043C72.1447 6.77513 72.3065 6.5296 72.3789 6.27698C72.5705 5.61278 72.0511 5.24521 71.9532 4.57391C71.8056 3.55491 72.7437 2.63384 73.5143 1.87739C73.879 1.51833 74.8682 0.573128 76.4947 0.174326C77.8074 -0.147837 78.8619 0.0522732 79.475 0.174326Z" fill="#340800"/>
<path d="M78.8362 11.7407L78.4714 13.3231C78.4317 13.4963 78.4289 13.6751 78.4643 13.8482C78.5225 14.1363 78.6786 14.3946 78.9086 14.5777L78.9838 14.6373C79.1669 14.7835 79.3854 14.8757 79.6182 14.9027C80.9395 15.0588 82.1501 15.7145 83.0016 16.7363C83.0626 16.8101 83.1052 16.8967 83.1236 16.9904L83.8034 20.2546L78.5523 20.6804L67.7662 17.5581L66.7146 16.2098C68.1395 15.1468 69.8539 14.5451 71.6294 14.484L72.3688 14.4585C72.7889 14.4443 73.1919 14.2868 73.5113 14.0129C73.832 13.7375 74.0349 13.3487 74.0775 12.9286L74.1542 12.165L78.8376 11.7393L78.8362 11.7407Z" fill="#FF7F4C"/>
<path d="M62.2033 21.1591C62.2175 21.2286 62.2487 21.2797 62.4503 21.4997C62.8193 21.9056 63.0052 22.1071 63.2181 22.2291C63.2181 22.2291 63.5417 22.4136 63.9192 22.4562C64.9864 22.5754 66.5788 20.4551 67.1891 18.1432C67.2302 17.9871 67.7042 16.152 67.2742 15.9533C67.084 15.8654 66.8186 16.1464 66.2027 16.7311C64.9708 17.9005 63.8652 19.1977 62.6291 20.3615C62.4971 20.4863 62.1309 20.8241 62.2019 21.1576L62.2033 21.1591Z" fill="#D0C1CB"/>
<path d="M63.6212 20.8053C63.5801 21.2921 63.3814 21.7533 63.0564 22.118C63.1103 22.162 63.1628 22.1975 63.2168 22.2287C63.2168 22.2287 63.5403 22.4132 63.9179 22.4558C64.0314 22.4686 64.152 22.4558 64.2755 22.4189L65.5727 20.1879L66.4341 17.5879L64.1577 19.6557C63.8512 19.9339 63.661 20.3185 63.6269 20.7315L63.6212 20.8038V20.8053Z" fill="#D094B0"/>
<path d="M56.2355 33.847C55.3953 32.8805 53.3318 32.7286 52.3043 33.4865C51.5989 34.0059 51.8061 34.6389 50.6622 36.3221C49.9938 37.3042 49.8703 37.1665 49.2075 38.2068C48.8272 38.8015 48.3191 39.7069 48.0154 40.8381C47.9941 40.9189 47.9983 40.9076 47.9657 41.0296C47.8891 41.3206 47.662 42.1452 47.2376 43.194C46.6628 44.616 45.9987 45.7769 45.6098 46.4497C44.9853 47.5311 44.6149 48.0264 43.9947 48.3926C43.806 48.5033 43.6328 48.5799 43.5037 48.6367C43.823 48.7985 44.1267 48.895 44.4744 48.8836C45.1102 48.8652 45.3245 48.516 45.4821 48.6168C45.57 48.6736 45.6211 48.8595 45.6311 49.1348C45.6992 49.1348 45.7673 49.1348 45.8369 49.1334C45.9745 48.9361 46.1122 48.7417 46.2484 48.5473C51.5833 40.9331 50.5884 39.4841 53.4425 37.3993C54.5154 36.6159 55.6437 36.1007 56.7677 35.7601C56.7762 34.9398 56.6088 34.2727 56.2383 33.847H56.2355Z" fill="#2A4259"/>
<path d="M41.6954 53.2304L45.4109 48.1709L48.6893 52.0709L44.7297 55.1691C44.6091 55.2628 44.5395 55.4075 44.5395 55.5594V55.9795C44.5395 56.5599 44.2273 57.095 43.7221 57.3802L38.1403 58.2899L41.6954 53.2304Z" fill="#FF7F4C"/>
<path d="M46.7524 50.4395L42.2961 55.5799L41.6404 57.7201L43.721 57.3809C44.2262 57.0956 44.5384 56.5591 44.5384 55.9801V55.56C44.5384 55.4082 44.608 55.2634 44.7286 55.1697L48.6882 52.0716L46.7524 50.4395Z" fill="#A93E00"/>
<path d="M77.1892 44.6843C77.4447 44.8873 77.8222 44.7851 77.94 44.4814L81.2056 36.0668C81.2681 35.905 81.0935 35.756 80.943 35.8412L80.4534 36.1208C80.4179 36.1406 80.391 36.1718 80.3754 36.2087L77.0444 44.1181C76.9607 44.3182 77.0189 44.5495 77.1892 44.6843Z" fill="#C35500"/>
<path d="M81.9307 32.8339L86.9037 22.4523C86.9761 22.3004 86.908 22.1173 86.7533 22.0506L86.4992 21.9414C86.3445 21.8747 86.1643 21.9499 86.1033 22.106L81.9293 32.8339H81.9307Z" fill="#C35500"/>
<path d="M84.3187 24.4393L83.8347 24.4535L83.8972 23.8574L84.2718 24.1838L84.3187 24.4393Z" fill="#D094B0"/>
<path d="M73.9166 15.2893H74.2515C74.7454 15.2893 75.2279 15.1488 75.6452 14.8862L76.0057 14.6577C76.9424 14.0659 77.8194 13.3889 78.6312 12.6367L78.8384 11.7412L74.155 12.167L74.0784 12.9305C74.0472 13.247 73.9237 13.545 73.7292 13.7906V15.1019C73.7292 15.2055 73.813 15.2893 73.9166 15.2893Z" fill="#450B00"/>
<path d="M75.1468 2.55598L75.0744 2.61558C74.4684 3.11089 73.983 3.73819 73.6552 4.4478L73.6226 4.51734C73.4082 4.98143 73.2124 5.45261 73.0322 5.92947C72.5553 6.95273 72.3083 8.06823 72.3083 9.19652V11.6716C72.3083 11.9881 72.4347 12.2918 72.6575 12.5147L72.6915 12.5487C72.991 12.8482 73.3969 13.0156 73.8198 13.0156H74.4343C75.5868 13.0156 76.7292 12.8099 77.8078 12.4054L78.4309 12.1726C78.6977 12.0733 78.9461 11.9271 79.1618 11.7412L79.6883 11.1777C79.7749 11.0855 79.904 11.0472 80.0261 11.0784C80.256 11.1352 80.4987 11.0685 80.6647 10.901L81.187 10.3787C81.4155 10.1502 81.6113 9.89335 81.7717 9.61377L81.837 9.50023C81.9917 9.23058 81.9463 8.88996 81.7263 8.66998C81.6043 8.54793 81.4297 8.49116 81.2594 8.52097L80.5384 8.33363L77.1323 2.51482L76.417 2.30052C75.977 2.16853 75.5002 2.26362 75.1454 2.55456L75.1468 2.55598Z" fill="#FF7F4C"/>
<path d="M80.6673 10.904L81.1896 10.3817C81.4181 10.1532 81.614 9.89637 81.7743 9.61678L81.8396 9.50324C81.9943 9.23359 81.9489 8.89298 81.7289 8.673C81.6069 8.55095 81.4323 8.49418 81.262 8.52398L80.541 8.33664L79.7434 6.97277C79.4383 6.99264 79.0636 6.9898 78.5541 6.91742C78.0829 6.85072 77.5124 6.72583 77.4188 6.91742C77.3591 7.04089 77.5195 7.2481 77.7026 7.48511C77.8885 7.72496 78.0673 7.88249 78.2703 8.0528C78.9614 8.63326 79.0069 8.58785 79.1218 8.76241C79.4042 9.19385 79.2978 9.72748 79.2637 9.89779C79.136 10.5393 78.6961 10.9707 78.2703 11.317C77.0129 12.3388 75.6774 12.766 75.1267 12.9931C76.0435 12.9278 76.9476 12.7334 77.8119 12.4098L78.4349 12.1771C78.7017 12.0777 78.9501 11.9315 79.1658 11.7456L79.6923 11.1822C79.7789 11.0899 79.9081 11.0516 80.0301 11.0828C80.26 11.1396 80.5027 11.0729 80.6688 10.9054L80.6673 10.904Z" fill="#A93E00"/>
<path d="M83.5904 5.70944C83.694 5.6328 83.9296 6.05147 84.5839 6.27713C85.065 6.44317 85.1927 6.30267 86.145 6.41905C86.6999 6.48717 86.9838 6.52407 87.2804 6.70289C87.4223 6.78805 87.875 7.06195 87.99 7.55442C88.0312 7.72899 88.0312 7.93903 87.7062 8.6898C87.2932 9.64494 87.0874 10.1218 86.8546 10.109C86.514 10.0892 86.1578 9.15956 86.4289 8.83172C86.5764 8.65148 86.8092 8.77779 87.1385 8.54788C87.1583 8.53369 87.5926 8.22288 87.5642 7.83827C87.5302 7.38838 86.8844 7.14001 86.8546 7.12866C85.9449 6.79088 85.3644 7.67648 84.5839 7.4125C83.7664 7.13575 83.4215 5.83433 83.5904 5.70944Z" fill="#340800"/>
<path d="M72.2376 5.00022C71.836 5.03854 71.6146 5.51966 71.528 5.70983C71.4883 5.7964 71.3194 6.18243 71.3861 6.70329C71.4457 7.16879 71.6231 7.18724 71.6699 7.55482C71.7451 8.14096 71.3236 8.31268 71.2442 8.97404C71.1505 9.75887 71.6359 10.4046 71.6699 10.3933C71.7011 10.3833 71.3506 9.79577 71.528 9.11596C71.6387 8.69162 71.8374 8.67742 71.9538 8.26443C72.1269 7.64991 71.7451 7.46115 71.8118 6.84521C71.9112 5.92555 72.8521 5.46856 72.6634 5.14214C72.5655 4.97326 72.2561 4.9988 72.2376 5.00022Z" fill="#340800"/>
<path d="M73.2996 8.78416C73.3025 8.75225 73.3054 8.7334 73.3039 8.7334C73.3039 8.7334 73.2996 8.7537 73.2996 8.78416Z" fill="#A93E00"/>
<path d="M81.8387 9.50132C81.9934 9.23167 81.948 8.89105 81.728 8.67107C81.606 8.54902 81.4314 8.49225 81.2611 8.52205L80.5401 8.33472L79.2487 6.12783C78.8768 6.09377 78.5845 6.1406 78.4596 6.2811C78.2297 6.54082 78.3418 7.36965 78.2978 7.36823C78.2935 7.36823 78.2907 7.36255 78.2907 7.36113C78.2453 7.26604 77.3597 6.42019 76.4187 6.64584C76.0682 6.72958 75.8326 6.93395 75.7602 7.00207C75.6225 7.1298 75.5402 7.27314 75.3756 7.5584C75.1031 8.03242 74.8746 8.53767 74.8746 8.53767C74.8093 8.68243 74.7724 8.77042 74.6816 8.8797C74.4801 9.11813 74.2289 9.19619 74.182 9.21038C74.182 9.21038 73.9308 9.28418 73.6385 9.21747C73.5789 9.20328 73.532 9.18767 73.4838 9.15503C73.3646 9.07271 73.3234 8.94498 73.3106 8.89105C73.3007 8.84848 73.2979 8.81016 73.2993 8.78319C73.2922 8.87402 73.2837 9.07555 73.3546 9.26998C73.4 9.39346 73.4781 9.51835 73.691 9.70852C74.0926 10.0662 74.2558 10.0137 75.1301 10.465C75.3089 10.5572 75.5147 10.6693 75.614 10.5899C75.6751 10.5416 75.6694 10.4423 75.6651 10.35C75.6538 10.0974 75.6864 9.84477 75.6694 9.59357C75.6282 8.98472 75.8113 8.5178 75.895 8.30633C75.9944 8.05371 76.0753 7.84934 76.2101 7.83799C76.4301 7.81812 76.4641 8.34039 76.8956 8.48516C77.0659 8.54192 77.4306 8.5845 77.6605 8.44826C77.6833 8.43406 77.7187 8.41136 77.7712 8.40568C77.9543 8.38581 78.1147 8.60863 78.1729 8.6881C78.4255 9.03723 78.7562 10.7644 77.74 11.7323C77.5158 11.9452 76.836 12.2475 75.4749 12.845C75.3373 12.906 75.2294 12.9514 75.1428 12.9883C76.0526 12.9216 76.9495 12.7272 77.8067 12.4065L78.4298 12.1737C78.6966 12.0744 78.9449 11.9282 79.1607 11.7423L79.6872 11.1788C79.7738 11.0866 79.9029 11.0483 80.025 11.0795C80.2549 11.1363 80.4976 11.0696 80.6636 10.9021L81.1859 10.3798C81.4144 10.1513 81.6102 9.89444 81.7706 9.61486L81.8359 9.50132H81.8387Z" fill="#A93E00"/>
<path d="M76.2109 6.84482C76.2733 6.96545 76.4564 6.96829 76.7785 6.98674C76.8452 6.991 77.6514 7.03925 78.1978 7.12866C78.686 7.20814 78.8903 7.3089 78.9074 7.27058C78.9386 7.19536 78.1864 6.81785 77.4882 6.56097C76.6877 6.26719 76.472 6.32254 76.3528 6.41905C76.225 6.52265 76.147 6.72418 76.2109 6.84482Z" fill="#340800"/>
<path d="M77.7715 8.40614C77.7658 8.37634 77.4593 8.51684 77.0619 8.40614C76.524 8.25713 76.2998 7.78311 76.2103 7.83846C76.1309 7.88813 76.1976 8.33802 76.4942 8.54807C76.9639 8.88158 77.7814 8.45582 77.7715 8.40614Z" fill="#340800"/>
<path d="M74.9348 9.03902C74.966 9.03051 75.0057 9.0816 75.0398 9.12702C75.1023 9.21075 75.1761 9.30726 75.186 9.45202C75.2002 9.64787 75.0994 9.88204 74.9632 9.90617C74.9234 9.91326 74.9064 9.89765 74.8354 9.87495C74.5544 9.7827 74.2294 9.82953 74.0903 9.88914C74.079 9.89481 74.052 9.90617 74.0137 9.91043C73.9328 9.91894 73.8647 9.88204 73.8122 9.8494C73.6177 9.72593 73.4886 9.54994 73.4886 9.54994C73.3651 9.38248 73.314 9.20791 73.3311 9.19656C73.341 9.19088 73.341 9.23488 73.4191 9.29165C73.5141 9.36119 73.6064 9.3839 73.6703 9.39951C73.7213 9.41228 73.8434 9.44066 73.9924 9.41512C74.0662 9.40234 74.0534 9.39241 74.1358 9.37822C74.1826 9.3697 74.2919 9.35409 74.4324 9.37254C74.5516 9.38815 74.5544 9.41086 74.624 9.40376C74.6467 9.40234 74.7631 9.39241 74.8354 9.30868C74.9291 9.20223 74.8837 9.0518 74.9348 9.03902Z" fill="#450B00"/>
<path d="M74.1113 9.89927C74.1141 9.9092 74.1539 9.89501 74.283 9.8865C74.337 9.88366 74.4973 9.87372 74.6889 9.89785C74.8436 9.91772 74.9259 9.9461 74.9415 9.9163C74.9557 9.88791 74.8976 9.83115 74.8905 9.82405C74.8663 9.80134 74.7925 9.73748 74.618 9.7318C74.3426 9.72328 74.1028 9.87088 74.1113 9.89785V9.89927Z" fill="#340800"/>
<path d="M79.9319 8.02161L79.9049 9.44935C79.9049 9.52031 79.9957 9.55153 80.0369 9.49334L80.2271 9.22653C80.474 8.88024 80.8359 8.63188 81.2475 8.52544L81.2603 8.5226L81.3199 7.55469L79.9319 8.02161Z" fill="#340800"/>
<path d="M75.0432 10.8554C75.2064 10.9264 75.4377 11.0158 75.5683 11.135H75.5697C75.6137 11.1762 75.5967 11.2485 75.5399 11.2656L74.8459 11.4685C74.467 11.5253 74.1775 11.4997 74.0668 11.4884C73.9206 11.4728 73.7588 11.4543 73.5587 11.3805C73.465 11.3465 73.3274 11.294 73.1798 11.1804C73.0989 11.118 72.9513 11.0016 72.8846 10.8185C72.8462 10.7121 72.8448 10.6113 72.8633 10.5645C72.8633 10.5616 72.8917 10.4964 72.8917 10.4964C72.9271 10.458 72.9271 10.4509 72.9271 10.4509C72.9243 10.4311 72.8704 10.441 72.8477 10.4112C72.8235 10.38 72.8491 10.319 72.8704 10.2863C72.9357 10.1827 73.0747 10.1671 73.1216 10.1614C73.1641 10.1572 73.2592 10.1458 73.3486 10.1955C73.4111 10.2295 73.4054 10.2579 73.4821 10.3005C73.5048 10.3133 73.57 10.3488 73.6595 10.3559C73.7333 10.3615 73.7474 10.3417 73.8269 10.3431C73.8596 10.3431 73.9078 10.3488 73.9944 10.3771C74.0654 10.4013 74.1292 10.4282 74.1775 10.4538C74.2868 10.5091 74.396 10.5631 74.5067 10.6127L75.0432 10.8526V10.8554Z" fill="#8D2A00"/>
<path d="M74.5894 11.027C74.5653 11.0143 74.4872 10.9944 74.4872 10.9944C74.4872 10.9944 74.2048 10.905 73.8145 10.7701C73.5846 10.6907 73.349 10.6282 73.1247 10.536C73.0339 10.4991 72.9729 10.4707 72.9261 10.4551C72.9246 10.4593 72.9175 10.4707 72.892 10.4977C72.892 10.4977 72.865 10.5629 72.8636 10.5658C72.8452 10.6126 72.8452 10.712 72.8849 10.8198C72.9516 11.0029 73.0992 11.1193 73.1801 11.1817C73.3291 11.2967 73.4654 11.3478 73.559 11.3818C73.7591 11.4556 73.9209 11.4741 74.0671 11.4897C74.2147 11.5053 74.4148 11.5238 74.6603 11.4968C74.6958 11.4386 74.7256 11.3705 74.7285 11.2967C74.7299 11.2527 74.7341 11.1718 74.6845 11.1122C74.6547 11.0767 74.6163 11.0426 74.588 11.0284L74.5894 11.027Z" fill="#A93E00"/>
<path d="M74.7219 5.78764C74.6183 5.6741 74.3231 5.61308 73.7483 5.48393C73.5311 5.43567 73.3694 5.40019 73.2516 5.37891C73.1778 5.56199 73.1025 5.74365 73.033 5.92956C72.7108 6.61931 72.4965 7.35162 72.3887 8.10097C72.444 7.93918 72.5207 7.72772 72.6299 7.49497C72.8712 6.98405 72.9124 6.8109 73.0316 6.80097C73.1508 6.79103 73.1849 6.93437 73.4715 7.11745C73.551 7.16713 73.7242 7.27783 73.9385 7.3204C74.0009 7.33317 74.4224 7.40981 74.7048 7.17706C75.0866 6.86199 75.0341 6.13251 74.7205 5.78764H74.7219Z" fill="#A93E00"/>
<path d="M73.1215 6.51808C73.1457 6.50389 73.2393 6.79483 73.5587 6.99494C73.9901 7.26459 74.4471 7.12267 74.4641 7.21634C74.4797 7.30149 74.1377 7.53282 73.8127 7.46328C73.2989 7.354 73.0818 6.54079 73.1215 6.51808Z" fill="#340800"/>
<path d="M74.9288 3.18563C75.7704 2.5044 76.6702 2.61368 76.6645 2.47744C76.6617 2.42918 76.5482 2.35538 76.3651 2.28726C75.9407 2.1794 75.4894 2.27591 75.1488 2.55408L75.0764 2.61368C74.4704 3.10899 73.985 3.73629 73.6572 4.4459L73.6246 4.51544C73.511 4.76097 73.4032 5.00933 73.2996 5.25911C73.3166 5.29034 73.3336 5.30879 73.3507 5.31304C73.4301 5.33291 73.4968 5.03629 73.924 4.39481C74.1724 4.02155 74.496 3.5376 74.9288 3.18563Z" fill="#A93E00"/>
<path d="M76.3535 2.87075C76.5068 2.86791 76.704 2.88778 76.7793 3.01267C76.8431 3.11769 76.7935 3.25252 76.7793 3.29652C76.6728 3.61726 76.7551 4.03167 76.9212 4.85766C77.0007 5.25788 77.1128 5.81138 77.4889 6.4188C77.5669 6.54369 77.9686 7.17667 78.7662 7.6961C79.033 7.86925 79.4687 8.15451 80.0435 8.26379C81.0142 8.44829 82.2787 8.11335 82.74 7.41226C83.7306 5.9093 81.6316 1.80633 78.9081 1.3096C76.7409 0.913642 74.3666 3.15459 74.5085 3.15459C74.5128 3.15459 74.9201 2.73308 75.502 2.5869C75.6879 2.54007 75.8795 2.49607 76.0697 2.5869C76.2215 2.65928 76.3081 2.78701 76.3535 2.87075Z" fill="#340800"/>
<path d="M74.8488 6.22283C74.9666 6.15471 75.0092 5.94324 74.9553 5.78713C74.9056 5.64237 74.7537 5.48058 73.9192 5.30175C73.7248 5.2606 73.5219 5.2237 73.3303 5.19531C73.326 5.19531 73.3217 5.19673 73.3203 5.20099C73.282 5.29324 73.2423 5.38407 73.2054 5.47774C73.2039 5.482 73.2054 5.48767 73.2096 5.48909C73.6879 5.70907 74.24 6.01278 74.2911 6.04117C74.5749 6.19728 74.7296 6.29237 74.8474 6.22425L74.8488 6.22283Z" fill="#340800"/>
<path d="M67.5454 34.6623C65.8537 34.3203 64.575 34.3345 62.9258 34.3629C62.9258 34.3629 59.927 34.4225 53.6029 35.6019C53.5717 35.6075 52.7585 35.7835 52.7585 35.7835L52.6052 35.8247C52.1738 35.9411 51.4883 36.2888 50.5985 37.3972C49.7299 38.4786 49.351 39.4324 48.9692 40.3265C48.8258 40.6628 47.7955 42.732 45.7348 46.8705C45.143 48.0612 44.7754 48.795 44.5398 49.2307C44.5511 49.3158 44.5682 49.4081 44.5966 49.5031C44.7953 50.1759 45.3644 50.5747 45.7674 50.8259C45.9391 50.9323 47.3839 51.8165 48.6896 52.0705C49.7441 51.2076 49.8094 51.3567 51.1122 50.3036C52.6677 49.0447 53.4454 48.416 54.0344 47.4751C54.3069 47.0394 54.6347 46.3865 54.9455 42.5731C54.9654 42.3261 54.9838 42.092 54.9995 41.8635C55.5998 42.1984 56.298 42.4056 57.52 42.7689C59.5168 43.3622 61.1376 43.6176 61.9437 43.7312C64.5267 44.0945 66.4909 44.3712 69.0455 44.0122C70.97 43.7411 72.7113 43.4715 74.061 42.0451C74.5578 41.52 75.388 40.6429 75.344 39.5459C75.239 36.9345 70.2774 35.2173 67.5454 34.6623Z" fill="#3B5B7C"/>
<path d="M74.1951 41.9023C74.2107 41.8852 74.2263 41.8682 74.2433 41.8512C74.2632 41.8299 74.2831 41.8072 74.3029 41.7859C74.3157 41.7717 74.3285 41.7575 74.3413 41.7433C74.3626 41.7192 74.3853 41.6936 74.408 41.6681C74.4193 41.6553 74.4307 41.6425 74.4406 41.6298C74.4647 41.6014 74.4889 41.573 74.513 41.5446C74.5215 41.5347 74.53 41.5233 74.54 41.512C74.5655 41.4808 74.5925 41.4481 74.618 41.4155C74.6237 41.4084 74.6294 41.4013 74.635 41.3942C74.8252 41.1501 75.0055 40.8747 75.1375 40.571C75.1375 40.5682 75.1403 40.5668 75.1403 40.5639C75.1616 40.5157 75.18 40.4674 75.1985 40.4178C75.2013 40.4121 75.2027 40.405 75.2056 40.3993C75.2226 40.3511 75.2382 40.3028 75.2524 40.2546C75.2552 40.2475 75.2567 40.2404 75.2581 40.2318C75.2723 40.1822 75.2851 40.1325 75.295 40.0828C75.295 40.0771 75.2978 40.0701 75.2992 40.063C75.3106 40.0104 75.3191 39.9579 75.3262 39.904C74.0518 38.0391 71.2999 36.4922 68.9724 36.4241C67.8001 36.39 67.6085 36.7562 63.2132 37.2728C61.4065 37.4856 60.4854 37.5907 59.5941 37.5651C55.8204 37.4558 55.6331 37.436 55.6331 37.436C55.4458 37.4161 54.9845 37.3622 54.4154 37.5013C54.2082 37.5523 53.6192 37.7028 53.1012 38.1669C52.8642 38.3798 52.5222 38.7644 52.1517 39.9608C51.8267 41.0096 51.7402 41.8427 51.7075 42.1109C51.4918 43.9332 50.7978 45.3254 50.1719 46.58C49.3374 48.2533 48.8421 49.2482 47.7153 50.1281C47.0865 50.6191 46.5316 50.8646 46.2166 51.0903C46.7814 51.4025 47.7678 51.8936 48.6874 52.0724C48.7513 52.0213 48.8095 51.9731 48.8662 51.9277C48.8705 51.9248 48.8733 51.922 48.8776 51.9191C48.9315 51.8766 48.9826 51.8368 49.0323 51.7985C49.038 51.7942 49.0422 51.7914 49.0479 51.7871C49.0962 51.7502 49.1402 51.7162 49.1841 51.685C49.1884 51.6807 49.1941 51.6779 49.1983 51.6736C49.2409 51.6424 49.2821 51.6126 49.3218 51.5842C49.3261 51.5814 49.3303 51.5785 49.3346 51.5757C49.3743 51.5473 49.4141 51.5203 49.451 51.4948C49.4538 51.4934 49.4566 51.4905 49.4595 51.4891C49.5858 51.4025 49.7022 51.3273 49.8242 51.2493C49.8512 51.2322 49.8781 51.2138 49.9051 51.1967C49.9136 51.1911 49.9221 51.1854 49.9307 51.1797C49.9647 51.157 50.0002 51.1343 50.0371 51.1088C50.0442 51.1045 50.0499 51.1002 50.057 51.096C50.0939 51.0704 50.1322 51.0449 50.1719 51.0179C50.179 51.0123 50.1861 51.008 50.1946 51.0023C50.2344 50.9739 50.2769 50.9455 50.3195 50.9143C50.328 50.9086 50.3351 50.903 50.3436 50.8973C50.3891 50.8647 50.4345 50.8306 50.4842 50.7951C50.4927 50.7894 50.4998 50.7838 50.5083 50.7767C50.5594 50.7383 50.6119 50.6986 50.6687 50.656C50.6757 50.6503 50.6828 50.6447 50.6914 50.639C50.7495 50.5936 50.812 50.5467 50.8773 50.4942C50.883 50.49 50.8886 50.4857 50.8943 50.4815C50.9639 50.4275 51.0362 50.3693 51.1129 50.3069C52.6683 49.048 53.4461 48.4193 54.035 47.4784C54.3075 47.0427 54.6354 46.3898 54.9462 42.5764C54.9661 42.3295 54.9845 42.0953 55.0001 41.8668C55.6004 42.2017 56.2987 42.4089 57.5207 42.7722C59.5175 43.3655 61.1383 43.6209 61.9444 43.7345C64.5274 44.0978 66.4916 44.3746 69.0462 44.0155C70.9706 43.7444 72.712 43.4748 74.0617 42.0484C74.0901 42.0186 74.1199 41.9874 74.1497 41.9548C74.1653 41.9392 74.1809 41.9221 74.1951 41.9051V41.9023Z" fill="#2A4259"/>
<path d="M63.722 24.1365C63.7802 24.6034 63.8171 24.8205 63.8284 25.2193C63.8398 25.5997 63.8497 25.9502 63.7645 26.3022C63.6056 26.9579 63.1784 27.3666 63.0223 27.5327C62.6703 27.9073 61.4895 29.5551 61.8131 31.014C61.9252 31.5207 62.1963 31.8868 62.2431 31.9493C62.5781 32.3935 62.9684 32.5794 63.3132 32.7781C63.4821 32.876 63.9916 33.2961 65.0106 34.1377C65.9374 34.9041 66.5945 35.4448 67.3623 36.2197C68.5942 37.4615 69.3293 38.2024 69.853 39.2838C69.9069 39.3945 70.1681 39.9438 70.608 40.6193C70.9855 41.1984 71.18 41.4936 71.5305 41.7448C71.7122 41.8753 71.637 41.7845 72.893 42.3139C73.2691 42.4728 73.4635 42.5594 73.7062 42.4969C73.9191 42.4416 74.0667 42.2968 74.2753 42.0286C74.728 41.4467 74.9778 40.9159 75.0275 40.8081C75.4249 39.9509 75.6221 39.5223 75.7399 39.1802C76.038 38.3088 76.1387 37.5935 76.248 36.637C76.6355 33.2564 76.3985 33.1911 76.7362 31.9578C76.8554 31.5207 76.9775 31.1943 77.091 30.9331C77.338 30.3669 77.5253 30.2462 77.6005 29.7949C77.6332 29.6033 77.6289 29.4571 77.6275 29.3819C77.6275 29.3819 77.6247 29.2755 77.7084 25.8055C77.7354 24.6417 77.9866 24.3082 78.489 22.2844C79.305 19.0003 79.8287 15.1258 79.2397 14.9371C79.1674 14.9144 79.1546 14.9697 78.655 15.2507C78.0377 15.5984 77.5409 15.8042 77.2131 15.9405C76.8583 16.0881 76.4339 16.264 75.896 16.4003C75.29 16.5536 75.2432 16.4783 73.6381 16.6203C72.8731 16.6884 72.4161 16.7466 71.7562 16.6203C71.109 16.4968 70.9458 16.3251 70.8777 16.1817C70.7173 15.8369 70.9941 15.3955 71.0977 15.2309C71.4567 14.6575 71.9733 14.5014 71.9336 14.4049C71.8612 14.2275 70.1198 14.7341 70.1198 14.7341C70.1198 14.7341 68.333 16.0554 66.4369 17.5896C66.4369 17.5896 65.3924 18.434 64.345 19.6688C64.1435 19.9058 63.8554 20.262 63.6822 20.7985C63.5545 21.1944 63.5531 21.4967 63.5517 22.0843C63.5517 22.7541 63.6212 23.3133 63.722 24.1365Z" fill="#D0C1CB"/>
<path d="M78.7913 18.6042C78.8438 18.6311 79.0241 18.0493 79.6769 17.4177C80.3965 16.7237 81.1132 16.525 81.0777 16.4313C81.0465 16.349 80.4433 16.3944 79.9196 16.7166C78.9559 17.3113 78.7147 18.5659 78.7899 18.6028L78.7913 18.6042Z" fill="#D094B0"/>
<path d="M76.6535 32.2868C73.5127 29.6697 66.5188 29.8911 66.1242 31.0946C66.0178 31.4211 66.8197 32.2399 68.4248 33.8777C69.5403 35.0159 70.0966 35.585 70.6686 36.0931C71.6606 36.9773 72.0381 37.1944 72.2879 37.826C72.674 38.8024 72.3674 39.7831 72.2595 40.1266C72.0467 40.8049 71.7131 41.2832 71.4037 41.6465C71.4435 41.6792 71.4846 41.7118 71.5286 41.7431C71.7103 41.8736 71.6351 41.7828 72.8911 42.3122C73.2672 42.4711 73.4616 42.5577 73.7043 42.4952C73.9172 42.4399 74.0648 42.2951 74.2734 42.0269C74.7261 41.445 74.9759 40.9142 75.0256 40.8064C75.423 39.9492 75.6203 39.5205 75.7381 39.1785C76.0361 38.3071 76.1369 37.5918 76.2461 36.6353C76.5967 33.5797 76.4363 33.2334 76.652 32.2825L76.6535 32.2868Z" fill="#D094B0"/>
<path d="M75.1365 31.6231C72.1235 31.4797 71.3146 31.4684 70.0145 31.2825C68.6024 31.0809 67.7097 30.9135 67.2173 30.7687C66.959 30.6041 66.729 30.5842 65.8278 30.113C65.1324 29.7497 64.8443 29.6532 64.1659 29.4361C63.699 29.287 63.3002 29.2359 63.1044 29.2161C62.8035 29.1863 62.5594 29.1962 62.0683 29.2161C62.0527 29.2161 62.0314 29.2175 62.0144 29.2189C61.8001 29.7809 61.6795 30.4139 61.8114 31.0128C61.9236 31.5195 62.1946 31.8856 62.2415 31.9481C62.5764 32.3923 62.9667 32.5782 63.3116 32.7769C63.4024 32.8294 63.594 32.977 63.9105 33.2339C64.2043 33.2282 64.5378 33.2225 64.9167 33.2169C65.4645 33.2098 65.9031 33.2566 66.0365 33.2694C66.9604 33.3616 67.213 33.39 67.4656 33.4652C67.4841 33.4709 67.5025 33.4766 67.521 33.4823C67.5295 33.4851 67.538 33.4879 67.5465 33.4908C67.5494 33.4908 67.5522 33.4922 67.555 33.4936C68.5797 33.8115 69.2354 33.9321 70.0855 34.1919C70.2856 34.2529 70.2274 34.2401 71.6836 34.778C74.3063 35.7473 74.7349 35.8793 75.1365 35.9914C75.5552 36.1078 75.9341 36.1986 76.2889 36.271C76.6182 33.2523 76.411 33.1459 76.736 31.9594C76.7601 31.87 76.7857 31.7849 76.8098 31.704C76.3244 31.6798 75.761 31.6515 75.1365 31.6217V31.6231Z" fill="#D094B0"/>
<path d="M65.8235 17.1995C66.3742 16.3266 67.3236 15.6227 68.1354 15.2551C69.1175 14.8095 69.9094 14.6661 70.9668 14.4717C71.753 14.3284 71.8126 14.3681 71.8169 14.3866C71.8367 14.4575 71.164 14.5895 70.4417 15.0124C69.4894 15.5702 69.5532 15.986 68.6165 16.5665C68.0488 16.9199 67.0227 17.3882 66.6665 17.0391C66.4976 16.873 65.7923 17.2477 65.8221 17.1995H65.8235Z" fill="#D0C1CB"/>
<path d="M61.9688 32.6633L57.7069 33.9037V25.0236L61.9688 23.7832V32.6633Z" fill="#D0C1CB"/>
<path d="M62.9353 33.2394L57.7069 33.9036V25.0236L58.6564 25.6835L62.9353 24.3594V33.2394Z" fill="#D0CDB3"/>
<path d="M65.8217 35.2946L58.656 34.5651V25.6836L65.8217 26.4145V35.2946Z" fill="#0899A7"/>
<path d="M64.916 31.9773C65.4638 31.9702 65.9024 32.017 66.0358 32.0298C66.9597 32.1221 67.2123 32.1504 67.4649 32.2257C67.4834 32.2313 67.5018 32.237 67.5203 32.2427C67.5288 32.2455 67.5373 32.2484 67.5458 32.2512C67.5487 32.2512 67.5515 32.2526 67.5543 32.254C68.579 32.572 69.2347 32.6926 70.0848 32.9523C70.2849 33.0133 70.2267 33.0006 71.6829 33.5384C74.3056 34.5078 74.7342 34.6398 75.1358 34.7519C76.0399 35.0031 76.7637 35.1379 77.4506 35.2188C78.5931 35.3522 79.1437 35.2727 79.5595 35.1634C79.8093 35.0967 80.2535 34.9761 80.7176 34.6596C81.4216 34.1785 81.7679 33.5228 81.968 33.0914C82.5584 31.8183 82.6833 30.7582 83.2183 28.0319C83.7619 25.2715 84.0329 23.8906 84.0585 23.831C84.182 23.5457 84.3012 23.3115 84.2075 23.066C83.7321 21.8185 78.498 22.1776 78.0339 23.6905C77.838 24.3305 78.0083 24.6399 78.0793 26.844C78.0793 26.8397 78.0793 26.8482 78.0793 26.844C78.0793 26.8582 78.0467 29.0026 78.102 30.2927L78.1119 30.5311C77.5159 30.4999 76.4614 30.4445 75.1358 30.3821L72.6948 30.3551L64.916 31.9759V31.9773Z" fill="#FF7F4C"/>
<path d="M78.9148 15.211C79.132 15.0237 79.1519 14.9555 79.1519 14.9555C79.6599 14.7625 80.4334 14.8846 80.7854 14.9853C81.2594 15.1216 81.5177 15.3089 81.8541 15.5275C82.1734 15.7347 82.5211 15.9603 82.8418 16.3435C83.0973 16.6487 83.2633 16.9652 83.4691 17.5201C83.885 18.6413 83.8906 19.1891 84.3164 21.017C84.4158 21.4414 84.4739 21.6642 84.552 22.0829C84.552 22.0829 84.7975 23.4042 84.4583 24.2628C84.4399 24.3096 84.3888 24.4374 84.3192 24.4388C84.2483 24.4388 84.1958 24.3068 84.1759 24.2656C84.0453 23.9818 83.6125 23.8271 83.2804 23.7093C82.409 23.3999 81.2594 23.4198 80.9188 23.4311C80.2149 23.4538 79.782 23.4666 79.2115 23.6568C78.6367 23.847 78.147 23.979 77.8206 24.4161C77.7596 24.497 77.7014 24.5949 77.6631 24.5821C77.5311 24.5381 77.866 23.2523 77.9867 22.7244C78.736 19.446 77.9427 16.0498 78.9148 15.211Z" fill="#D0C1CB"/>
<path d="M58.6564 25.6834L57.7069 25.0234V33.9035L58.6564 34.5649V25.6834Z" fill="#046C7C"/>
<path d="M61.9688 23.7832L62.9353 24.3594L58.6564 25.6835L57.7069 25.0236L61.9688 23.7832Z" fill="#D5DADD"/>
<path d="M58.656 25.6836L65.4654 26.0852L65.8217 26.4145L58.656 25.6836Z" fill="#D5DADD"/>
<path d="M67.486 32.5896L72.7613 33.803L73.5532 30.3728C73.5532 30.3728 66.9793 30.2734 66.7423 29.9825C66.5053 29.6901 66.379 28.9167 65.8624 28.6626C65.3458 28.4086 63.7833 28.1716 63.2922 28.156C62.8026 28.1389 61.7637 28.0822 61.7396 28.4199C61.7154 28.7577 61.9496 28.8116 61.9496 28.8116C61.9496 28.8116 61.3365 28.6342 61.162 29.0047C61.1265 29.0799 61.1236 29.165 61.1492 29.2445C61.1747 29.324 61.223 29.4205 61.3096 29.4475C61.3096 29.4475 61.0967 29.4844 61.135 29.7398C61.1733 29.9953 61.9269 30.2124 61.9269 30.2124C61.9269 30.2124 61.7367 30.4792 62.0291 30.6552C62.3215 30.8298 63.7733 31.379 64.0941 31.6146C64.4162 31.8502 64.5227 31.8956 64.7356 32.1809C64.9484 32.4661 65.9178 32.872 66.2669 32.706C66.4556 32.6166 66.7267 32.574 66.9368 32.5541C67.1198 32.5371 67.3058 32.5485 67.4846 32.5896H67.486Z" fill="#FF7F4C"/>
<path d="M64.3521 30.9769C64.267 30.9428 64.1804 30.913 64.0924 30.8875C63.9718 30.852 63.8511 30.8122 63.7319 30.7725C63.5105 30.7001 63.2849 30.6377 63.0706 30.5454C62.9656 30.5014 62.8662 30.4475 62.7669 30.3922C62.6803 30.3425 62.5937 30.2928 62.5029 30.2502C62.4206 30.2133 62.3312 30.1821 62.2403 30.1764C62.1736 30.1722 61.9905 30.1892 61.9281 30.2105C62.1154 30.2588 62.7541 30.4858 62.8392 30.5199C62.923 30.554 63.0081 30.5809 63.0933 30.6079C63.2608 30.6618 63.4311 30.7086 63.6014 30.7569C63.7731 30.8052 63.9434 30.8562 64.1109 30.9173C64.1932 30.9471 64.2755 30.9811 64.3564 31.0166C64.3791 31.0266 64.4004 31.0379 64.4231 31.0478C64.443 31.0578 64.4685 31.0663 64.4827 31.0819C64.4898 31.089 64.4941 31.0975 64.5012 31.106C64.5139 31.1202 64.5295 31.1302 64.548 31.1344C64.5608 31.1373 64.582 31.1415 64.5948 31.1344C64.6161 31.1245 64.5877 31.0904 64.5764 31.0805C64.5139 31.0251 64.4274 31.0053 64.3521 30.9755V30.9769Z" fill="#A93E00"/>
<path d="M61.3095 29.4478C61.6147 29.5216 62.1752 29.611 62.5315 29.6635C62.7429 29.6948 62.9501 29.7544 63.146 29.8395C63.3603 29.9332 63.6413 30.051 63.8003 30.0978C63.9592 30.1461 64.1196 30.1929 64.2828 30.2256C64.3836 30.2454 64.4886 30.2582 64.5893 30.2383C64.6035 30.2355 64.622 30.227 64.6206 30.2128C64.6206 30.2043 64.6106 30.1972 64.6021 30.1929C64.4034 30.0765 64.1891 29.9928 63.9677 29.9275C63.8542 29.8949 63.7392 29.8665 63.6229 29.8395C63.4909 29.8083 63.3603 29.7742 63.2297 29.7388C62.9672 29.6678 62.7046 29.5912 62.4392 29.5301C62.1923 29.4734 61.9397 29.4365 61.687 29.4209C61.6033 29.4152 61.3109 29.4152 61.3081 29.4464L61.3095 29.4478Z" fill="#A93E00"/>
<path d="M62.6609 28.7991C62.448 28.8105 62.238 28.7991 62.0251 28.775C61.9754 28.7693 61.9144 28.7565 61.8647 28.7679C61.984 28.8729 62.5644 28.9368 62.7617 28.9226C62.9661 28.9084 63.1719 28.8686 63.3762 28.8942C63.4798 28.907 63.5763 28.9453 63.6743 28.9779C63.7807 29.012 63.8871 29.0446 63.9936 29.0773C64.0986 29.1085 64.205 29.1383 64.3115 29.1667C64.4108 29.1922 64.5116 29.2135 64.6109 29.2405C64.6819 29.2603 64.7529 29.2859 64.8252 29.3015C64.8451 29.3058 64.8664 29.31 64.8891 29.3129C64.9118 29.3157 64.9232 29.2845 64.9033 29.2731C64.7514 29.1794 64.5811 29.117 64.4094 29.0673C64.3115 29.0389 64.2121 29.0148 64.1142 28.9893C64.0191 28.9651 63.9283 28.9311 63.8389 28.8899C63.6799 28.819 63.5167 28.7267 63.3379 28.7296C63.1591 28.7324 62.9703 28.7693 62.7872 28.7877C62.7447 28.792 62.7035 28.7948 62.6624 28.7977L62.6609 28.7991Z" fill="#A93E00"/>
<path d="M61.8699 30.3458C61.8699 30.3458 61.8827 30.4437 62.0601 30.4962C62.2375 30.5487 62.3596 30.5899 62.3596 30.5899L62.4192 30.3344C62.4192 30.3344 61.9764 30.1627 61.9168 30.218C61.8572 30.2734 61.8699 30.3458 61.8699 30.3458Z" fill="#A93E00"/>
<path d="M61.6843 29.9256L61.7453 29.6616C61.7453 29.6616 61.2287 29.4402 61.1691 29.6346C61.1038 29.8475 61.4813 29.8887 61.6843 29.9256Z" fill="#A93E00"/>
<path d="M61.8005 29.3394L61.8828 28.9789C61.8828 28.9789 61.3293 28.7121 61.2527 28.9789C61.1689 29.2713 61.5791 29.3025 61.7991 29.3394H61.8005Z" fill="#A93E00"/>
<path d="M62.3237 28.6568L62.3123 28.3318C62.3123 28.3318 61.7773 28.2296 61.773 28.4737C61.7673 28.7405 62.1264 28.6752 62.3237 28.6568Z" fill="#A93E00"/>
<path d="M34.5454 56.3672L36.1094 58.8324L33.9933 58.601C33.8883 58.5897 33.7904 58.5485 33.7081 58.4832L33.2114 58.0859C33.0808 57.9808 33.0042 57.8219 33.0042 57.6544C33.0042 57.4657 33.1007 57.2897 33.2596 57.1889L34.5454 56.3686V56.3672Z" fill="#D094B0"/>
<path d="M44.0363 50.043C44.0363 50.043 41.7343 52.8914 41.0062 53.9004L38.2203 55.2714C37.9095 55.3991 37.5916 55.5084 37.268 55.6006L34.5474 56.367L36.1113 58.8322L37.1374 58.5583C37.8059 58.3795 38.4829 58.2347 39.1669 58.124L43.7226 57.3818C44.1739 57.3818 44.5401 57.0156 44.5401 56.5643V55.5609C44.5401 55.409 44.6096 55.2643 44.7303 55.1706L46.957 53.7713C47.099 53.6819 47.1259 53.486 47.0138 53.3611L44.0363 50.043Z" fill="#D0C1CB"/>
<path d="M59.5587 44.5282C59.6311 44.3522 59.7986 44.2358 59.9887 44.2273L71.395 43.7703C73.1321 43.705 74.8693 43.8768 76.5596 44.2827L76.6163 44.2969C77.0535 44.4019 77.2323 44.9284 76.9484 45.2775L76.3893 45.9659C75.9635 46.4896 75.3234 46.7904 74.6479 46.7848L59.1542 46.6556C58.9286 46.6542 58.7767 46.4257 58.8633 46.2171L59.5587 44.5268V44.5282Z" fill="#C35500"/>
</svg>
