<svg width="128" height="68" viewBox="0 0 128 68" fill="none" xmlns="http://www.w3.org/2000/svg">
<path d="M0 20.5C0 16.0817 3.58172 12.5 8 12.5H120C124.418 12.5 128 16.0817 128 20.5V59.5C128 63.9183 124.418 67.5 120 67.5H8C3.58172 67.5 0 63.9183 0 59.5V20.5Z" fill="#89D1FF"/>
<mask id="mask0_4011_76928" style="mask-type:alpha" maskUnits="userSpaceOnUse" x="5" y="12" width="123" height="54">
<rect x="5" y="12.5" width="123" height="53" rx="12" fill="#89D1FF"/>
</mask>
<g mask="url(#mask0_4011_76928)">
<path d="M86.4915 15.7499L83.3138 14.9906C83.4711 14.8685 84.0806 14.9324 84.6929 14.6258C85.7814 14.0823 86.0819 12.7695 86.1103 12.6389C86.1599 12.4061 86.303 11.6908 85.9685 10.9358C85.8523 10.6733 85.6213 10.151 85.1181 9.94234C85.0274 9.90544 84.9622 9.89125 84.9069 9.88132C85.0387 9.6443 85.1946 9.28524 85.4016 8.80695C85.7262 8.05617 85.7262 7.84613 85.685 7.67156C85.5702 7.17908 85.1181 6.90517 84.9764 6.82002C84.6801 6.64119 84.3966 6.60429 83.8424 6.53617C82.8914 6.41979 82.7638 6.5603 82.2833 6.39424C82.0721 6.32186 81.9049 6.22819 81.7716 6.13878C81.7433 5.95996 81.7617 5.74281 81.7164 5.25885C81.7164 5.25885 81.637 4.42008 81.4329 3.69769C81.0771 2.44166 80.1346 1.64263 79.8738 1.42691C78.9227 0.640649 77.9532 0.446213 77.1807 0.291516C76.5684 0.169461 75.5153 -0.0306514 74.2042 0.291516C72.5799 0.690322 71.592 1.63554 71.2277 1.9946C70.4581 2.75106 69.5212 3.67214 69.6686 4.69116C69.6927 4.86147 69.7451 5.01191 69.8061 5.15241C69.4971 5.27447 69.3199 5.6605 69.2434 5.82655C69.2037 5.91312 69.035 6.29916 69.1016 6.82002C69.1612 7.28553 69.3383 7.30398 69.3851 7.67156C69.4602 8.25771 69.0393 8.42943 68.9599 9.0908C68.916 9.46264 69.001 9.80326 69.1073 10.0573C69.1045 10.0658 69.1031 10.0743 69.1016 10.0843C69.0081 10.5626 69.5028 11.055 69.6686 11.2197C69.7962 11.346 69.9209 11.4439 70.0229 11.5149V11.7902C70.0229 12.1067 70.1491 12.4104 70.3716 12.6332L70.4056 12.6673C70.7047 12.9667 71.1101 13.1342 71.5324 13.1342H71.7748C71.772 13.1512 71.7706 13.1697 71.7663 13.1867C71.7635 13.2009 71.7606 13.2137 71.7578 13.2279C71.7507 13.2619 71.7422 13.2946 71.7323 13.3286C71.7281 13.3428 71.7252 13.357 71.721 13.3698C71.7082 13.4124 71.694 13.4535 71.677 13.4947C71.677 13.4975 71.6756 13.5004 71.6742 13.5032C71.6572 13.5458 71.6373 13.5869 71.6161 13.6281C71.609 13.6409 71.6019 13.6551 71.5948 13.6678C71.5792 13.6962 71.5622 13.7246 71.5452 13.753C71.5367 13.7658 71.5282 13.78 71.5197 13.7927C71.497 13.8268 71.4729 13.8609 71.4474 13.8921C71.4446 13.8963 71.4403 13.902 71.4375 13.9063C71.3737 13.9872 71.3014 14.0624 71.222 14.1305C70.9031 14.4044 70.5006 14.5605 70.081 14.5762L69.6048 14.5932C69.6374 14.5648 69.6544 14.5421 69.6459 14.5222C69.6332 14.4924 69.5708 14.4825 69.4772 14.4853C69.3979 14.4797 69.1952 14.4953 68.6807 14.5889C67.6247 14.7819 66.8338 14.9267 65.853 15.3724C65.14 15.6959 64.3208 16.2792 63.7595 17.0102C62.5958 18.137 61.5342 19.3689 60.3549 20.4802C60.2231 20.6051 59.8574 20.9429 59.9283 21.2764C59.9425 21.3459 59.9737 21.397 60.1749 21.617C60.2359 21.6851 60.2912 21.7447 60.3436 21.8015C60.1721 22.0754 59.9311 22.4444 59.5484 22.9284C59.2565 23.2988 58.9418 23.6508 58.3678 24.2852L55.4394 25.1381V30.4844C53.8095 30.7938 53.0894 30.6093 49.3008 31.3927C48.8812 31.4793 48.2065 31.6964 47.1506 32.0683C47.1506 32.0683 47.1477 32.0683 47.1463 32.0697C46.7098 32.223 46.208 32.4046 45.6326 32.6133C45.6255 32.6161 45.617 32.6189 45.6099 32.6218C45.4696 32.6729 45.325 32.7254 45.1762 32.7793C45.1705 32.7822 45.1648 32.7836 45.1592 32.785C45.0103 32.8389 44.8587 32.8943 44.7013 32.9525C44.6886 32.9567 44.6744 32.9624 44.6616 32.9667C44.5114 33.022 44.3583 33.0774 44.1996 33.1356C44.167 33.1483 44.1315 33.1611 44.0975 33.1725C43.9473 33.2278 43.7942 33.2832 43.6355 33.3413C43.2613 33.4776 42.4222 33.7969 41.9077 34.6045C41.661 34.9905 41.5803 35.3467 41.5505 35.4759C41.4654 35.8477 41.3691 36.2167 41.267 36.5857C40.9169 37.8645 40.5059 39.1304 40.2706 40.4347C39.6951 43.6124 39.8255 42.1179 38.8518 46.8695C38.7866 47.1889 38.7228 47.5039 38.6463 47.8147C38.5074 47.6742 38.2466 47.7367 38.2069 47.9524C38.085 48.6209 37.8681 49.5689 37.5393 50.1664C37.4273 50.3708 37.3111 50.5737 37.2076 50.7838L36.7937 51.6297L36.5485 52.0796C36.2877 52.5564 35.8512 52.9183 35.3282 53.0673C35.3253 53.0673 35.3225 53.0688 35.3197 53.0702L32.8988 53.7528L31.7549 54.4838C31.6132 54.5746 31.5282 54.7307 31.5282 54.8996C31.5282 55.0486 31.5962 55.1905 31.7124 55.2842L32.1546 55.6376C32.2269 55.6958 32.3162 55.7327 32.4083 55.7426L34.2269 55.9413L32.3077 56.4835L31.0236 57.3038C30.8648 57.406 30.7684 57.5805 30.7684 57.7693C30.7684 57.9368 30.845 58.0957 30.9754 58.2007L31.4715 58.5981C31.5537 58.6634 31.6529 58.7046 31.7564 58.7159L33.8697 58.9473L34.8944 58.6733C35.562 58.4945 36.2381 58.3498 36.9213 58.2391L41.4711 57.4968C41.9218 57.4968 42.2875 57.1306 42.2875 56.6793V55.6759C42.2875 55.561 42.3272 55.4517 42.3967 55.3651C42.4208 55.3367 42.4463 55.3097 42.4775 55.2856L44.7013 53.8862C44.8388 53.7997 44.8672 53.6152 44.7694 53.4903L45.2796 53.0915L47.1364 53.4321C48.6417 53.7074 50.1696 53.8465 51.7004 53.8465C52.813 53.8465 53.9257 53.7727 55.0284 53.6265L57.1403 53.3469L59.2366 52.9637L58.7901 56.7701C57.248 56.6836 55.7102 56.5062 54.1879 56.2323L52.6047 55.9484H51.5034L50.9194 57.7154C52.9718 58.3299 55.0879 58.706 57.2254 58.8394C57.8632 58.9047 58.5038 58.9402 59.1459 58.9529L59.2239 58.9572L59.2125 58.9544C59.3486 58.9572 59.4832 58.9614 59.6193 58.9614H62.5165C63.1302 58.9614 63.7439 58.9402 64.3562 58.899L65.8346 58.7982C67.0691 58.7145 68.2951 58.5456 69.507 58.2944C70.5403 58.0801 71.5594 57.8062 72.5601 57.4727L74.2666 56.905C75.2021 56.5942 76.1205 56.2308 77.0177 55.8178L77.2445 55.7128C78.4408 55.1621 79.5945 54.5249 80.6987 53.8054C81.3649 53.3711 82.0112 52.907 82.6362 52.4159L83.9785 51.36C84.1486 51.2266 84.2478 51.0208 84.2478 50.8037C84.2478 50.5312 84.0905 50.2828 83.8453 50.165L83.6865 50.0898C83.6398 50.0671 83.5916 50.0515 83.5405 50.0401C83.5363 50.0401 83.532 50.0373 83.5264 50.0359L82.384 49.7974C82.2975 49.779 82.2082 49.7776 82.1217 49.7903C82.0282 49.8045 81.9389 49.8357 81.8567 49.884L77.0588 52.7182C77.0588 52.7182 77.0546 52.7211 77.0532 52.7211C76.8434 52.8459 76.6294 52.9652 76.4168 53.083C76.2212 53.1908 76.0241 53.2973 75.8257 53.4009C75.538 53.5527 75.2474 53.6989 74.9554 53.8408L73.7422 47.6161H73.8088C74.679 47.6161 75.5408 47.4486 76.3473 47.1222L76.4692 47.0725C77.2133 46.7716 77.7959 46.1698 78.0751 45.4162L81.9304 34.9848L85.8764 23.5812C86.5525 21.6284 87.1421 19.6457 87.6425 17.6403V17.6375C87.8536 16.7958 87.3363 15.9429 86.493 15.7414L86.4915 15.7499ZM61.5484 26.0365C61.547 26.0592 61.5441 26.0819 61.5413 26.1061L61.4761 26.1018C61.5002 26.0791 61.5257 26.0578 61.5484 26.0365ZM47.3731 51.492C47.3873 51.4821 47.4015 51.4735 47.4156 51.4636C47.4511 51.4409 47.4865 51.4168 47.5233 51.3941C47.5375 51.3841 47.5531 51.3756 47.5673 51.3657C47.5829 51.3557 47.5985 51.3444 47.6141 51.3345C47.7133 51.2692 47.8167 51.201 47.9344 51.1187C47.95 51.1088 47.9656 51.096 47.9812 51.0861C48.0634 51.0279 48.1498 50.9655 48.2476 50.8931C48.2731 50.8746 48.3015 50.8533 48.3284 50.832C48.361 50.8065 48.3936 50.7824 48.4291 50.7554C48.4744 50.7199 48.5226 50.683 48.5722 50.6433C48.6587 50.5752 48.7494 50.5042 48.8486 50.4233C50.4021 49.1644 51.1788 48.5357 51.767 47.5948C51.9187 47.3521 52.0873 47.0413 52.2603 46.1571L55.6436 47.3138L49.8153 51.9064C48.962 51.8369 48.1144 51.7205 47.2739 51.5587C47.3065 51.5374 47.3377 51.5147 47.3703 51.4948L47.3731 51.492ZM56.7094 47.6231H59.8617L59.4294 51.3118L54.0589 51.861C52.9619 51.9731 51.8577 52.0058 50.755 51.9603L56.708 47.6217L56.7094 47.6231ZM62.0785 51.0407L60.3507 51.2181L60.8567 47.6231H61.6816L62.3223 51.0137C62.2415 51.0222 62.1607 51.0322 62.0799 51.0407H62.0785ZM84.5497 7.24579C84.5795 7.25714 85.2244 7.50551 85.2584 7.95541C85.2868 8.34002 84.853 8.65084 84.8332 8.66503C84.7623 8.7147 84.6957 8.74734 84.6348 8.77005C84.6447 8.59549 84.6305 8.41524 84.5497 8.23926C84.4703 8.06611 84.0735 7.83903 83.2854 7.39339C83.6667 7.23585 84.0607 7.06271 84.5497 7.24579ZM69.8089 7.95541C69.8004 8.57703 69.7933 9.07093 69.5254 9.51657C69.3964 9.73088 69.2873 9.80042 69.2094 9.87706C69.1824 9.68546 69.181 9.46548 69.242 9.23272C69.3525 8.80837 69.5509 8.79418 69.6672 8.38118C69.8401 7.76665 69.4588 7.57789 69.5254 6.96194C69.5779 6.47372 69.8656 6.11749 70.0981 5.84074C70.142 6.00821 70.1519 6.18704 70.0924 6.39424C70.0201 6.64687 69.8585 6.8924 69.8089 7.38771C69.7862 7.61479 69.8132 7.62189 69.8089 7.95541ZM74.0951 54.2453C72.879 54.7846 71.626 55.243 70.3433 55.6106C68.9812 55.9995 67.5935 56.289 66.1889 56.4735L65.938 56.5062C64.2811 56.7247 62.6114 56.834 60.9403 56.834C60.4811 56.834 60.0219 56.8241 59.5626 56.807L60.1267 52.8034L62.0331 52.4557C63.0026 52.2783 63.9664 52.0753 64.9246 51.844L66.1549 51.5488L68.838 50.8179C68.8904 50.8037 68.923 50.7526 68.9145 50.6986L68.8323 50.1721C68.8323 50.1721 68.8323 50.165 68.8309 50.1622C68.8267 50.1366 68.8082 50.1139 68.7771 50.1111L67.5822 49.9692C67.5737 49.9692 67.5652 49.9692 67.5581 49.9706L66.916 50.1451C65.6191 50.4971 64.3009 50.7611 62.97 50.9371L62.2911 47.626H72.5246L74.0937 54.2482L74.0951 54.2453Z" fill="#1B90FF"/>
</g>
<path d="M53.1815 58.1001C55.2819 58.7274 57.4462 59.1078 59.6347 59.2341L61.4953 59.3419L55.2209 57.4629L53.1815 58.1001Z" fill="#00144A"/>
<path d="M51.6573 52.6183L60.3557 45.7734L61.0242 46.5157L52.6408 52.6183H51.6573Z" fill="#0040B0"/>
<path d="M65.3525 51.8377L64.2171 46.3027H63.6338L64.6798 51.8377H65.3525Z" fill="#0040B0"/>
<path d="M71.116 50.543L71.1997 51.0794C71.2082 51.1334 71.1741 51.1845 71.1231 51.1987L68.4365 51.9296L67.2046 52.2262C66.2452 52.4561 65.2801 52.6604 64.3094 52.8379L59.4088 53.732L57.2942 54.0115C56.19 54.1577 55.0759 54.2315 53.9618 54.2315C52.4291 54.2315 50.8991 54.0924 49.3919 53.8171L46.8047 53.3431L47.5767 51.9934L50.0164 52.5725L55.6209 52.7342L60.7727 52.1623L67.9624 51.1121L71.1174 50.543H71.116Z" fill="#00144A"/>
<path d="M47.6982 52.6175L48.5284 52.8006C49.9391 53.1114 51.3754 53.2888 52.8201 53.3314C54.079 53.3683 55.3378 53.3044 56.5853 53.137L64.9502 52.0186C66.3382 51.8327 67.712 51.5517 69.0603 51.1756L71.0699 50.6164C71.138 50.598 71.1295 50.5 71.06 50.4915L69.8636 50.3496C69.855 50.3496 69.8465 50.3496 69.8394 50.351L69.1965 50.5256C67.6084 50.9556 65.9891 51.2565 64.3527 51.424L56.3228 52.2443C55.2073 52.3578 54.0861 52.3919 52.9663 52.3436H52.9479C51.5698 52.284 50.2002 52.1009 48.8548 51.7986L48.2006 51.651L47.6953 52.6175H47.6982Z" fill="#0040B0"/>
<path d="M77.4157 55.1015L75.8261 46.958L74.5772 47.0119L76.5641 55.3853L77.4157 55.1015Z" fill="#00144A"/>
<path d="M61.0234 57.4617L62.4526 45.2891H63.5128L61.7955 57.4617H61.0234Z" fill="#00144A"/>
<path d="M54.2842 58.1004H53.1815L53.7662 56.332H54.8689L54.2842 58.1004Z" fill="#0040B0"/>
<path d="M54.8694 56.3326L56.4547 56.6164C58.6857 57.0152 60.9494 57.2167 63.2159 57.2167C64.8891 57.2167 66.561 57.1075 68.2201 56.8889L68.4713 56.8563C69.8763 56.6718 71.2671 56.3837 72.631 55.9934C74.9855 55.3207 77.2449 54.3499 79.3553 53.1053L84.1593 50.2711C84.3183 50.1774 84.507 50.1462 84.6873 50.1831L85.8312 50.4215C85.8865 50.4329 85.9405 50.4513 85.9916 50.4754L86.1505 50.5507C86.3974 50.6684 86.5536 50.9168 86.5536 51.1893C86.5536 51.4064 86.4542 51.6108 86.2839 51.7456L84.9399 52.8015C84.314 53.2926 83.6669 53.7567 82.9998 54.191C81.8957 54.9105 80.739 55.5477 79.5412 56.0984L79.3141 56.2034C78.4172 56.6164 77.4975 56.9783 76.5594 57.2905L74.8507 57.8582C73.8487 58.1917 72.8283 58.4657 71.7937 58.68C70.5802 58.9312 69.3526 59.1 68.1165 59.1838L66.6362 59.2845C66.0231 59.3257 65.4086 59.347 64.7941 59.347H61.8932C60.8259 59.347 59.7601 59.2746 58.7028 59.1313C57.3729 58.951 56.0602 58.6587 54.78 58.2556L54.2861 58.1009L54.8709 56.334L54.8694 56.3326Z" fill="#00144A"/>
<path d="M85.8519 50.428C85.8449 50.4266 85.8378 50.4238 85.8292 50.4224L84.6853 50.1839C84.5051 50.1456 84.3163 50.1768 84.1574 50.2719L79.3533 53.1061C78.9474 53.346 78.5344 53.5716 78.1172 53.7902L80.7839 53.9576C81.0096 53.9718 81.2338 53.9094 81.4197 53.7788L82.4643 53.0465C83.2051 52.5285 83.9261 51.9835 84.63 51.4158L85.8519 50.428Z" fill="#0040B0"/>
<path d="M79.9322 14.0146L88.7995 16.1321C89.644 16.3337 90.1606 17.1852 89.9505 18.0282V18.031C89.4481 20.0364 88.8592 22.0191 88.1822 23.9719L84.2311 35.3754L80.3708 45.8066C80.0926 46.5602 79.5079 47.162 78.7628 47.4629L78.6408 47.5125C77.8332 47.839 76.9703 48.0064 76.0989 48.0064H58.8256L53.0068 46.0195L54.1422 40.2007L79.9322 14.0161V14.0146Z" fill="#8D2A00"/>
<path d="M76.0285 31.4079C76.0115 31.3099 76.5934 31.2532 76.9212 30.738C77.144 30.3889 77.1313 30.017 77.127 29.8453C77.1 28.5637 77.3768 27.2935 77.4534 26.0148C77.5414 24.5573 77.6138 23.957 77.8707 23.2147C78.0381 22.7307 78.2865 22.1787 78.3376 22.1957C78.3858 22.2113 78.2212 22.7208 78.1275 23.3084C78.058 23.7427 78.0012 24.3856 78.1346 25.4869C78.4965 28.4502 79.6731 30.0326 78.9677 30.9892C78.2439 31.9699 76.0597 31.5952 76.0271 31.4093L76.0285 31.4079Z" fill="#FFB2D2"/>
<path d="M62.8572 29.7728C64.9917 30.2496 67.0552 32.7858 66.5642 34.3313C65.7538 36.8774 58.9004 33.9126 53.4392 37.9006C50.5852 39.9855 51.5815 41.4345 46.2452 49.0486C43.7474 52.6123 40.8323 56.772 39.2711 56.1873C38.2706 55.8126 39.4131 53.8044 40.1425 52.3866C40.4704 51.7494 39.1789 51.3648 39.7906 50.5956C40.6449 49.5198 40.8607 48.4199 41.0991 47.2533C42.0741 42.5018 41.9435 43.9962 42.5197 40.8186C42.8234 39.1396 43.4195 37.5246 43.8013 35.8612C43.8311 35.7321 43.912 35.3759 44.1589 34.9898C44.6741 34.1823 45.5143 33.863 45.889 33.7267C49.1574 32.5332 50.791 31.9371 51.5616 31.7781C56.3373 30.7918 56.2422 31.341 59.2296 30.5037C61.2804 29.9289 61.8013 29.5372 62.8572 29.7728Z" fill="#0040B0"/>
<path d="M45.6235 49.9324C45.6491 49.4939 45.5966 49.1916 45.4802 49.1164C45.3226 49.0156 45.1083 49.3633 44.4725 49.3832C43.8623 49.4016 43.3911 49.0993 42.724 48.6721C42.1152 48.2818 41.7093 47.893 41.5688 47.7539C41.3715 47.5595 41.2225 47.3877 41.1019 47.2373C41.1019 47.243 41.1005 47.2472 41.099 47.2529C40.8592 48.4195 40.6449 49.5194 39.7905 50.5952C39.1788 51.3644 40.4348 51.5248 40.107 52.1606C39.3789 53.577 38.2705 55.8108 39.2711 56.1855C40.7045 56.722 43.279 53.2605 45.6235 49.9324Z" fill="#FF7F4C"/>
<path d="M41.0056 53.3416L41.8486 54.0994L45.1767 49.487L44.9894 49.2812C44.856 49.3337 44.6899 49.3777 44.4742 49.3848C44.1747 49.3933 43.9093 49.3252 43.6369 49.2031L41.0056 53.3416Z" fill="#A93E00"/>
<path d="M35.1378 54.1367L36.5314 56.3337L34.6467 56.1279C34.553 56.118 34.4651 56.0811 34.3927 56.0229L33.9499 55.6695C33.8335 55.5758 33.7654 55.4339 33.7654 55.2849C33.7654 55.116 33.8505 54.9599 33.9925 54.869L35.1378 54.1381V54.1367Z" fill="#FFB2D2"/>
<path d="M40.9662 48.3121L40.9406 48.2639C40.8257 48.0425 40.4964 48.0907 40.4524 48.3363C40.3304 49.0047 40.1132 49.9528 39.784 50.5502C39.6719 50.7546 39.5555 50.9576 39.4519 51.1676L39.0375 52.0135L38.7919 52.4634C38.5308 52.9402 38.0937 53.3021 37.57 53.4511C37.5672 53.4511 37.5643 53.4526 37.5615 53.454L35.1375 54.1366L36.5311 56.3336L37.4451 56.0895C38.0412 55.9305 38.6443 55.8014 39.2532 55.702L43.3136 55.0407C43.7152 55.0407 44.0416 54.7142 44.0416 54.3126V53.4185C44.0416 53.2822 44.1041 53.1545 44.2105 53.0708L46.2159 51.5011L44.1467 50.9136C42.7729 50.5233 41.6219 49.5823 40.9662 48.315V48.3121Z" fill="#FFB2D2"/>
<path d="M85.5768 15.434L88.6693 16.7426C89.0042 16.8845 89.1674 17.2634 89.0411 17.604L87.6276 21.4146C87.5098 21.7311 87.1777 21.9142 86.847 21.8418L85.4363 21.5353L85.5782 15.4326L85.5768 15.434Z" fill="#C35500"/>
<path d="M63.2298 21.513C62.8608 21.5414 62.8509 22.0112 61.822 23.3112C61.4998 23.7199 61.1507 24.1045 60.4538 24.8752C59.4334 26.0035 59.2134 26.1695 59.1638 26.5953C59.0928 27.1999 59.4192 27.8115 59.8677 28.1791C59.9046 28.2089 60.6469 28.7993 61.4714 28.5708C61.9369 28.4417 62.2123 28.111 62.3712 27.9251C64.1708 25.8133 64.6689 26.0318 64.913 25.1491C65.3658 23.5141 64.0232 21.452 63.2313 21.513H63.2298Z" fill="#FF7F4C"/>
<path d="M79.4751 0.674326C80.2486 0.829021 81.2193 1.02345 82.1716 1.8097C82.4327 2.02543 83.3765 2.82445 83.7328 4.08046C83.9371 4.80284 84.0166 5.6416 84.0166 5.6416C84.0847 6.35689 84.0109 6.49172 84.1585 6.77698C84.3004 7.05231 84.4849 7.15449 85.5777 7.77043C86.3753 8.22033 86.7756 8.4474 86.855 8.62197C87.1304 9.21946 86.6422 9.87514 86.997 10.1831C87.1176 10.2881 87.1914 10.2299 87.4227 10.325C87.9266 10.5337 88.1579 11.0559 88.2743 11.3185C88.6092 12.0735 88.4659 12.7888 88.4162 13.0216C88.3878 13.1521 88.0869 14.4649 86.997 15.0085C86.3001 15.3562 85.6075 15.2256 85.5777 15.4342C85.5536 15.596 85.978 15.6471 86.2874 16.0019C86.8465 16.6448 86.5811 17.7717 86.4293 18.4146C86.161 19.5557 85.7793 19.6905 85.8616 20.4015C85.9467 21.1367 86.3981 21.3609 86.2874 21.8207C86.1298 22.4736 85.0498 22.7361 84.7262 22.8142C82.0893 23.4528 75.6474 21.9513 74.7917 18.2727C74.2963 16.1424 75.8348 13.9753 74.7917 13.1635C74.4695 12.9137 73.845 12.7476 72.5209 12.0281C72.4556 11.9926 72.2087 11.8564 71.9532 11.6023C71.7872 11.4377 71.2919 10.9452 71.3855 10.467C71.4352 10.2101 71.5956 10.2569 71.8113 9.89927C72.0795 9.45363 72.0866 8.95974 72.0951 8.33812C72.0994 8.00461 72.0724 7.99751 72.0951 7.77043C72.1448 7.27513 72.3066 7.0296 72.379 6.77698C72.5706 6.11278 72.0511 5.74521 71.9532 5.07391C71.8056 4.05491 72.7437 3.13384 73.5144 2.37739C73.8791 2.01833 74.8683 1.07313 76.4947 0.674326C77.8075 0.352163 78.862 0.552273 79.4751 0.674326Z" fill="#340800"/>
<path d="M78.8362 12.2407L78.4714 13.8231C78.4317 13.9963 78.4289 14.1751 78.4643 14.3482C78.5225 14.6363 78.6786 14.8946 78.9086 15.0777L78.9838 15.1373C79.1669 15.2835 79.3854 15.3757 79.6182 15.4027C80.9395 15.5588 82.1501 16.2145 83.0016 17.2363C83.0626 17.3101 83.1052 17.3967 83.1236 17.4904L83.8034 20.7546L78.5523 21.1804L67.7662 18.0581L66.7146 16.7098C68.1395 15.6468 69.8539 15.0451 71.6294 14.984L72.3688 14.9585C72.7889 14.9443 73.1919 14.7868 73.5113 14.5129C73.832 14.2375 74.0349 13.8487 74.0775 13.4286L74.1542 12.665L78.8376 12.2393L78.8362 12.2407Z" fill="#FF7F4C"/>
<path d="M62.2034 21.6591C62.2176 21.7286 62.2488 21.7797 62.4503 21.9997C62.8193 22.4056 63.0052 22.6071 63.2181 22.7291C63.2181 22.7291 63.5417 22.9136 63.9192 22.9562C64.9865 23.0754 66.5788 20.9551 67.1891 18.6432C67.2303 18.4871 67.7043 16.652 67.2743 16.4533C67.0841 16.3654 66.8187 16.6464 66.2028 17.2311C64.9709 18.4005 63.8653 19.6977 62.6292 20.8615C62.4972 20.9863 62.131 21.3241 62.202 21.6576L62.2034 21.6591Z" fill="#FFEAF4"/>
<path d="M63.6212 21.3053C63.5801 21.7921 63.3814 22.2533 63.0564 22.618C63.1103 22.662 63.1628 22.6975 63.2168 22.7287C63.2168 22.7287 63.5403 22.9132 63.9179 22.9558C64.0314 22.9686 64.152 22.9558 64.2755 22.9189L65.5727 20.6879L66.4341 18.0879L64.1577 20.1557C63.8512 20.4339 63.661 20.8185 63.6269 21.2315L63.6212 21.3038V21.3053Z" fill="#FFB2D2"/>
<path d="M56.2354 34.347C55.3953 33.3805 53.3317 33.2286 52.3042 33.9865C51.5988 34.5059 51.806 35.1389 50.6622 36.8221C49.9937 37.8042 49.8702 37.6665 49.2075 38.7068C48.8271 39.3015 48.319 40.2069 48.0153 41.3381C47.994 41.4189 47.9983 41.4076 47.9656 41.5296C47.889 41.8206 47.6619 42.6452 47.2376 43.694C46.6628 45.116 45.9986 46.2769 45.6097 46.9497C44.9853 48.0311 44.6149 48.5264 43.9947 48.8926C43.8059 49.0033 43.6328 49.0799 43.5036 49.1367C43.8229 49.2985 44.1266 49.395 44.4743 49.3836C45.1102 49.3652 45.3245 49.016 45.482 49.1168C45.57 49.1736 45.6211 49.3595 45.631 49.6348C45.6991 49.6348 45.7673 49.6348 45.8368 49.6334C45.9745 49.4361 46.1121 49.2417 46.2484 49.0473C51.5832 41.4331 50.5884 39.9841 53.4424 37.8993C54.5153 37.1159 55.6436 36.6007 56.7676 36.2601C56.7762 35.4398 56.6087 34.7727 56.2383 34.347H56.2354Z" fill="#0040B0"/>
<path d="M41.6953 53.7304L45.4109 48.6709L48.6893 52.5709L44.7296 55.6691C44.609 55.7628 44.5395 55.9075 44.5395 56.0594V56.4795C44.5395 57.0599 44.2272 57.595 43.722 57.8802L38.1402 58.7899L41.6953 53.7304Z" fill="#FF7F4C"/>
<path d="M46.7524 50.9395L42.2961 56.0799L41.6404 58.2201L43.721 57.8809C44.2262 57.5956 44.5384 57.0591 44.5384 56.4801V56.06C44.5384 55.9082 44.608 55.7634 44.7286 55.6697L48.6882 52.5716L46.7524 50.9395Z" fill="#A93E00"/>
<path d="M77.1892 45.1843C77.4447 45.3873 77.8222 45.2851 77.94 44.9814L81.2056 36.5668C81.2681 36.405 81.0935 36.256 80.943 36.3412L80.4534 36.6208C80.4179 36.6406 80.391 36.6718 80.3754 36.7087L77.0444 44.6181C76.9607 44.8182 77.0189 45.0495 77.1892 45.1843Z" fill="#C35500"/>
<path d="M81.9308 33.3339L86.9038 22.9523C86.9761 22.8004 86.908 22.6173 86.7533 22.5506L86.4993 22.4414C86.3446 22.3747 86.1643 22.4499 86.1033 22.606L81.9294 33.3339H81.9308Z" fill="#C35500"/>
<path d="M84.3187 24.9393L83.8347 24.9535L83.8972 24.3574L84.2718 24.6838L84.3187 24.9393Z" fill="#FFB2D2"/>
<path d="M73.9166 15.7893H74.2515C74.7454 15.7893 75.2279 15.6488 75.6452 15.3862L76.0057 15.1577C76.9424 14.5659 77.8194 13.8889 78.6312 13.1367L78.8384 12.2412L74.155 12.667L74.0784 13.4305C74.0472 13.747 73.9237 14.045 73.7292 14.2906V15.6019C73.7292 15.7055 73.813 15.7893 73.9166 15.7893Z" fill="#450B00"/>
<path d="M75.1467 3.05598L75.0744 3.11558C74.4683 3.61089 73.983 4.23819 73.6551 4.9478L73.6225 5.01734C73.4082 5.48143 73.2123 5.95261 73.0321 6.42947C72.5552 7.45273 72.3083 8.56823 72.3083 9.69652V12.1716C72.3083 12.4881 72.4346 12.7918 72.6574 13.0147L72.6915 13.0487C72.9909 13.3482 73.3968 13.5156 73.8198 13.5156H74.4343C75.5867 13.5156 76.7292 13.3099 77.8078 12.9054L78.4308 12.6726C78.6976 12.5733 78.946 12.4271 79.1617 12.2412L79.6882 11.6777C79.7748 11.5855 79.904 11.5472 80.026 11.5784C80.2559 11.6352 80.4986 11.5685 80.6647 11.401L81.1869 10.8787C81.4154 10.6502 81.6113 10.3934 81.7717 10.1138L81.8369 10.0002C81.9916 9.73058 81.9462 9.38996 81.7262 9.16998C81.6042 9.04793 81.4296 8.99116 81.2593 9.02097L80.5384 8.83363L77.1322 3.01482L76.4169 2.80052C75.977 2.66853 75.5001 2.76362 75.1453 3.05456L75.1467 3.05598Z" fill="#FF7F4C"/>
<path d="M80.6673 11.404L81.1896 10.8817C81.4181 10.6532 81.614 10.3964 81.7743 10.1168L81.8396 10.0032C81.9943 9.73359 81.9489 9.39298 81.7289 9.173C81.6069 9.05095 81.4323 8.99418 81.262 9.02398L80.541 8.83664L79.7434 7.47277C79.4383 7.49264 79.0636 7.4898 78.5541 7.41742C78.0829 7.35072 77.5124 7.22583 77.4188 7.41742C77.3591 7.54089 77.5195 7.7481 77.7026 7.98511C77.8885 8.22496 78.0673 8.38249 78.2703 8.5528C78.9614 9.13326 79.0069 9.08785 79.1218 9.26241C79.4042 9.69385 79.2978 10.2275 79.2637 10.3978C79.136 11.0393 78.6961 11.4707 78.2703 11.817C77.0129 12.8388 75.6774 13.266 75.1267 13.4931C76.0435 13.4278 76.9476 13.2334 77.8119 12.9098L78.4349 12.6771C78.7017 12.5777 78.9501 12.4315 79.1658 12.2456L79.6923 11.6822C79.7789 11.5899 79.9081 11.5516 80.0301 11.5828C80.26 11.6396 80.5027 11.5729 80.6688 11.4054L80.6673 11.404Z" fill="#A93E00"/>
<path d="M83.5904 6.20944C83.694 6.1328 83.9296 6.55147 84.5839 6.77713C85.065 6.94317 85.1927 6.80267 86.145 6.91905C86.6999 6.98717 86.9838 7.02407 87.2804 7.20289C87.4223 7.28805 87.875 7.56195 87.99 8.05442C88.0312 8.22899 88.0312 8.43903 87.7062 9.1898C87.2932 10.1449 87.0874 10.6218 86.8546 10.609C86.514 10.5892 86.1578 9.65956 86.4289 9.33172C86.5764 9.15148 86.8092 9.27779 87.1385 9.04788C87.1583 9.03369 87.5926 8.72288 87.5642 8.33827C87.5302 7.88838 86.8844 7.64001 86.8546 7.62866C85.9449 7.29088 85.3644 8.17648 84.5839 7.9125C83.7664 7.63575 83.4215 6.33433 83.5904 6.20944Z" fill="#340800"/>
<path d="M72.2376 5.50022C71.836 5.53854 71.6146 6.01966 71.528 6.20983C71.4883 6.2964 71.3194 6.68243 71.3861 7.20329C71.4457 7.66879 71.6231 7.68724 71.6699 8.05482C71.7451 8.64096 71.3236 8.81268 71.2442 9.47404C71.1505 10.2589 71.6359 10.9046 71.6699 10.8933C71.7011 10.8833 71.3506 10.2958 71.528 9.61596C71.6387 9.19162 71.8374 9.17742 71.9538 8.76443C72.1269 8.14991 71.7451 7.96115 71.8118 7.34521C71.9112 6.42555 72.8521 5.96856 72.6634 5.64214C72.5655 5.47326 72.2561 5.4988 72.2376 5.50022Z" fill="#340800"/>
<path d="M73.2996 9.28416C73.3025 9.25225 73.3054 9.2334 73.3039 9.2334C73.3039 9.2334 73.2996 9.2537 73.2996 9.28416Z" fill="#A93E00"/>
<path d="M81.8387 10.0013C81.9934 9.73167 81.948 9.39105 81.728 9.17107C81.606 9.04902 81.4314 8.99225 81.2611 9.02205L80.5401 8.83472L79.2487 6.62783C78.8768 6.59377 78.5845 6.6406 78.4596 6.7811C78.2297 7.04082 78.3418 7.86965 78.2978 7.86823C78.2935 7.86823 78.2907 7.86255 78.2907 7.86113C78.2453 7.76604 77.3597 6.92019 76.4187 7.14584C76.0682 7.22958 75.8326 7.43395 75.7602 7.50207C75.6225 7.6298 75.5402 7.77314 75.3756 8.0584C75.1031 8.53242 74.8746 9.03767 74.8746 9.03767C74.8093 9.18243 74.7724 9.27042 74.6816 9.3797C74.4801 9.61813 74.2289 9.69619 74.182 9.71038C74.182 9.71038 73.9308 9.78418 73.6385 9.71747C73.5789 9.70328 73.532 9.68767 73.4838 9.65503C73.3646 9.57271 73.3234 9.44498 73.3106 9.39105C73.3007 9.34848 73.2979 9.31016 73.2993 9.28319C73.2922 9.37402 73.2837 9.57555 73.3546 9.76998C73.4 9.89346 73.4781 10.0183 73.691 10.2085C74.0926 10.5662 74.2558 10.5137 75.1301 10.965C75.3089 11.0572 75.5147 11.1693 75.614 11.0899C75.6751 11.0416 75.6694 10.9423 75.6651 10.85C75.6538 10.5974 75.6864 10.3448 75.6694 10.0936C75.6282 9.48472 75.8113 9.0178 75.895 8.80633C75.9944 8.55371 76.0753 8.34934 76.2101 8.33799C76.4301 8.31812 76.4641 8.84039 76.8956 8.98516C77.0659 9.04192 77.4306 9.0845 77.6605 8.94826C77.6833 8.93406 77.7187 8.91136 77.7712 8.90568C77.9543 8.88581 78.1147 9.10863 78.1729 9.1881C78.4255 9.53723 78.7562 11.2644 77.74 12.2323C77.5158 12.4452 76.836 12.7475 75.4749 13.345C75.3373 13.406 75.2294 13.4514 75.1428 13.4883C76.0526 13.4216 76.9495 13.2272 77.8067 12.9065L78.4298 12.6737C78.6966 12.5744 78.9449 12.4282 79.1607 12.2423L79.6872 11.6788C79.7738 11.5866 79.9029 11.5483 80.025 11.5795C80.2549 11.6363 80.4976 11.5696 80.6636 11.4021L81.1859 10.8798C81.4144 10.6513 81.6102 10.3944 81.7706 10.1149L81.8359 10.0013H81.8387Z" fill="#A93E00"/>
<path d="M76.2109 7.34482C76.2733 7.46545 76.4564 7.46829 76.7785 7.48674C76.8452 7.491 77.6514 7.53925 78.1978 7.62866C78.686 7.70814 78.8903 7.8089 78.9074 7.77058C78.9386 7.69536 78.1864 7.31785 77.4882 7.06097C76.6877 6.76719 76.472 6.82254 76.3528 6.91905C76.225 7.02265 76.147 7.22418 76.2109 7.34482Z" fill="#340800"/>
<path d="M77.7715 8.90614C77.7658 8.87634 77.4593 9.01684 77.0619 8.90614C76.524 8.75713 76.2998 8.28311 76.2103 8.33846C76.1309 8.38813 76.1976 8.83802 76.4942 9.04807C76.9639 9.38158 77.7814 8.95582 77.7715 8.90614Z" fill="#340800"/>
<path d="M74.9348 9.53902C74.966 9.53051 75.0057 9.5816 75.0398 9.62702C75.1023 9.71075 75.1761 9.80726 75.186 9.95202C75.2002 10.1479 75.0994 10.382 74.9632 10.4062C74.9234 10.4133 74.9064 10.3977 74.8354 10.3749C74.5544 10.2827 74.2294 10.3295 74.0903 10.3891C74.079 10.3948 74.052 10.4062 74.0137 10.4104C73.9328 10.4189 73.8647 10.382 73.8122 10.3494C73.6177 10.2259 73.4886 10.0499 73.4886 10.0499C73.3651 9.88248 73.314 9.70791 73.3311 9.69656C73.341 9.69088 73.341 9.73488 73.4191 9.79165C73.5141 9.86119 73.6064 9.8839 73.6703 9.89951C73.7213 9.91228 73.8434 9.94066 73.9924 9.91512C74.0662 9.90234 74.0534 9.89241 74.1358 9.87822C74.1826 9.8697 74.2919 9.85409 74.4324 9.87254C74.5516 9.88815 74.5544 9.91086 74.624 9.90376C74.6467 9.90234 74.7631 9.89241 74.8354 9.80868C74.9291 9.70223 74.8837 9.5518 74.9348 9.53902Z" fill="#450B00"/>
<path d="M74.1113 10.3993C74.1141 10.4092 74.1539 10.395 74.283 10.3865C74.337 10.3837 74.4973 10.3737 74.6889 10.3978C74.8436 10.4177 74.9259 10.4461 74.9415 10.4163C74.9557 10.3879 74.8976 10.3311 74.8905 10.324C74.8663 10.3013 74.7925 10.2375 74.618 10.2318C74.3426 10.2233 74.1028 10.3709 74.1113 10.3978V10.3993Z" fill="#340800"/>
<path d="M79.9319 8.52161L79.905 9.94935C79.905 10.0203 79.9958 10.0515 80.037 9.99334L80.2271 9.72653C80.4741 9.38024 80.836 9.13188 81.2476 9.02544L81.2603 9.0226L81.3199 8.05469L79.9319 8.52161Z" fill="#340800"/>
<path d="M75.0432 11.3554C75.2064 11.4264 75.4377 11.5158 75.5683 11.635H75.5697C75.6137 11.6762 75.5967 11.7485 75.5399 11.7656L74.8459 11.9685C74.467 12.0253 74.1775 11.9997 74.0668 11.9884C73.9206 11.9728 73.7588 11.9543 73.5587 11.8805C73.465 11.8465 73.3274 11.794 73.1798 11.6804C73.0989 11.618 72.9513 11.5016 72.8846 11.3185C72.8462 11.2121 72.8448 11.1113 72.8633 11.0645C72.8633 11.0616 72.8917 10.9964 72.8917 10.9964C72.9271 10.958 72.9271 10.9509 72.9271 10.9509C72.9243 10.9311 72.8704 10.941 72.8477 10.9112C72.8235 10.88 72.8491 10.819 72.8704 10.7863C72.9357 10.6827 73.0747 10.6671 73.1216 10.6614C73.1641 10.6572 73.2592 10.6458 73.3486 10.6955C73.4111 10.7295 73.4054 10.7579 73.4821 10.8005C73.5048 10.8133 73.57 10.8488 73.6595 10.8559C73.7333 10.8615 73.7474 10.8417 73.8269 10.8431C73.8596 10.8431 73.9078 10.8488 73.9944 10.8771C74.0654 10.9013 74.1292 10.9282 74.1775 10.9538C74.2868 11.0091 74.396 11.0631 74.5067 11.1127L75.0432 11.3526V11.3554Z" fill="#8D2A00"/>
<path d="M74.5893 11.527C74.5652 11.5143 74.4871 11.4944 74.4871 11.4944C74.4871 11.4944 74.2047 11.405 73.8144 11.2701C73.5845 11.1907 73.3489 11.1282 73.1247 11.036C73.0339 10.9991 72.9728 10.9707 72.926 10.9551C72.9246 10.9593 72.9175 10.9707 72.8919 10.9977C72.8919 10.9977 72.865 11.0629 72.8635 11.0658C72.8451 11.1126 72.8451 11.212 72.8848 11.3198C72.9515 11.5029 73.0991 11.6193 73.18 11.6817C73.3291 11.7967 73.4653 11.8478 73.559 11.8818C73.7591 11.9556 73.9209 11.9741 74.067 11.9897C74.2146 12.0053 74.4148 12.0238 74.6603 11.9968C74.6958 11.9386 74.7256 11.8705 74.7284 11.7967C74.7298 11.7527 74.7341 11.6718 74.6844 11.6122C74.6546 11.5767 74.6163 11.5426 74.5879 11.5284L74.5893 11.527Z" fill="#A93E00"/>
<path d="M74.7219 6.28764C74.6183 6.1741 74.3231 6.11308 73.7483 5.98393C73.5311 5.93567 73.3694 5.90019 73.2516 5.87891C73.1778 6.06199 73.1025 6.24365 73.033 6.42956C72.7108 7.11931 72.4965 7.85162 72.3887 8.60097C72.444 8.43918 72.5207 8.22772 72.6299 7.99497C72.8712 7.48405 72.9124 7.3109 73.0316 7.30097C73.1508 7.29103 73.1849 7.43437 73.4715 7.61745C73.551 7.66713 73.7242 7.77783 73.9385 7.8204C74.0009 7.83317 74.4224 7.90981 74.7048 7.67706C75.0866 7.36199 75.0341 6.63251 74.7205 6.28764H74.7219Z" fill="#A93E00"/>
<path d="M73.1215 7.01808C73.1457 7.00389 73.2393 7.29483 73.5587 7.49494C73.9901 7.76459 74.4471 7.62267 74.4641 7.71634C74.4797 7.80149 74.1377 8.03282 73.8127 7.96328C73.2989 7.854 73.0818 7.04079 73.1215 7.01808Z" fill="#340800"/>
<path d="M74.9288 3.68563C75.7704 3.0044 76.6702 3.11368 76.6645 2.97744C76.6617 2.92918 76.5482 2.85538 76.3651 2.78726C75.9407 2.6794 75.4894 2.77591 75.1488 3.05408L75.0764 3.11368C74.4704 3.60899 73.985 4.23629 73.6572 4.9459L73.6246 5.01544C73.511 5.26097 73.4032 5.50933 73.2996 5.75911C73.3166 5.79034 73.3336 5.80879 73.3507 5.81304C73.4301 5.83291 73.4968 5.53629 73.924 4.89481C74.1724 4.52155 74.496 4.0376 74.9288 3.68563Z" fill="#A93E00"/>
<path d="M76.3536 3.37075C76.5068 3.36791 76.7041 3.38778 76.7793 3.51267C76.8432 3.61769 76.7935 3.75252 76.7793 3.79652C76.6729 4.11726 76.7552 4.53167 76.9212 5.35766C77.0007 5.75788 77.1128 6.31138 77.4889 6.9188C77.567 7.04369 77.9686 7.67667 78.7662 8.1961C79.033 8.36925 79.4687 8.65451 80.0435 8.76379C81.0143 8.94829 82.2788 8.61335 82.7401 7.91226C83.7307 6.4093 81.6316 2.30633 78.9082 1.8096C76.741 1.41364 74.3666 3.65459 74.5086 3.65459C74.5128 3.65459 74.9201 3.23308 75.502 3.0869C75.6879 3.04007 75.8795 2.99607 76.0697 3.0869C76.2216 3.15928 76.3081 3.28701 76.3536 3.37075Z" fill="#340800"/>
<path d="M74.8488 6.72283C74.9666 6.65471 75.0092 6.44324 74.9553 6.28713C74.9056 6.14237 74.7537 5.98058 73.9192 5.80175C73.7248 5.7606 73.5219 5.7237 73.3303 5.69531C73.326 5.69531 73.3217 5.69673 73.3203 5.70099C73.282 5.79324 73.2423 5.88407 73.2054 5.97774C73.2039 5.982 73.2054 5.98767 73.2096 5.98909C73.6879 6.20907 74.24 6.51278 74.2911 6.54117C74.5749 6.69728 74.7296 6.79237 74.8474 6.72425L74.8488 6.72283Z" fill="#340800"/>
<path d="M67.5454 35.1623C65.8537 34.8203 64.575 34.8345 62.9258 34.8629C62.9258 34.8629 59.927 34.9225 53.6029 36.1019C53.5717 36.1075 52.7585 36.2835 52.7585 36.2835L52.6052 36.3247C52.1738 36.4411 51.4883 36.7888 50.5985 37.8972C49.7299 38.9786 49.351 39.9324 48.9692 40.8265C48.8258 41.1628 47.7955 43.232 45.7348 47.3705C45.143 48.5612 44.7754 49.295 44.5398 49.7307C44.5511 49.8158 44.5682 49.9081 44.5966 50.0031C44.7953 50.6759 45.3644 51.0747 45.7674 51.3259C45.9391 51.4323 47.3839 52.3165 48.6896 52.5705C49.7441 51.7076 49.8094 51.8567 51.1122 50.8036C52.6677 49.5447 53.4454 48.916 54.0344 47.9751C54.3069 47.5394 54.6347 46.8865 54.9455 43.0731C54.9654 42.8261 54.9838 42.592 54.9995 42.3635C55.5998 42.6984 56.298 42.9056 57.52 43.2689C59.5168 43.8622 61.1376 44.1176 61.9437 44.2312C64.5267 44.5945 66.4909 44.8712 69.0455 44.5122C70.97 44.2411 72.7113 43.9715 74.061 42.5451C74.5578 42.02 75.388 41.1429 75.344 40.0459C75.239 37.4345 70.2774 35.7173 67.5454 35.1623Z" fill="#0070F2"/>
<path d="M74.1951 42.4023C74.2107 42.3852 74.2263 42.3682 74.2433 42.3512C74.2632 42.3299 74.2831 42.3072 74.3029 42.2859C74.3157 42.2717 74.3285 42.2575 74.3413 42.2433C74.3626 42.2192 74.3853 42.1936 74.408 42.1681C74.4193 42.1553 74.4307 42.1425 74.4406 42.1298C74.4647 42.1014 74.4889 42.073 74.513 42.0446C74.5215 42.0347 74.53 42.0233 74.54 42.012C74.5655 41.9808 74.5925 41.9481 74.618 41.9155C74.6237 41.9084 74.6294 41.9013 74.635 41.8942C74.8252 41.6501 75.0055 41.3747 75.1375 41.071C75.1375 41.0682 75.1403 41.0668 75.1403 41.0639C75.1616 41.0157 75.18 40.9674 75.1985 40.9178C75.2013 40.9121 75.2027 40.905 75.2056 40.8993C75.2226 40.8511 75.2382 40.8028 75.2524 40.7546C75.2552 40.7475 75.2567 40.7404 75.2581 40.7318C75.2723 40.6822 75.2851 40.6325 75.295 40.5828C75.295 40.5771 75.2978 40.5701 75.2992 40.563C75.3106 40.5104 75.3191 40.4579 75.3262 40.404C74.0518 38.5391 71.2999 36.9922 68.9724 36.9241C67.8001 36.89 67.6085 37.2562 63.2132 37.7728C61.4065 37.9856 60.4854 38.0907 59.5941 38.0651C55.8204 37.9558 55.6331 37.936 55.6331 37.936C55.4458 37.9161 54.9845 37.8622 54.4154 38.0013C54.2082 38.0523 53.6192 38.2028 53.1012 38.6669C52.8642 38.8798 52.5222 39.2644 52.1517 40.4608C51.8267 41.5096 51.7402 42.3427 51.7075 42.6109C51.4918 44.4332 50.7978 45.8254 50.1719 47.08C49.3374 48.7533 48.8421 49.7482 47.7153 50.6281C47.0865 51.1191 46.5316 51.3646 46.2166 51.5903C46.7814 51.9025 47.7678 52.3936 48.6874 52.5724C48.7513 52.5213 48.8095 52.4731 48.8662 52.4277C48.8705 52.4248 48.8733 52.422 48.8776 52.4191C48.9315 52.3766 48.9826 52.3368 49.0323 52.2985C49.038 52.2942 49.0422 52.2914 49.0479 52.2871C49.0962 52.2502 49.1402 52.2162 49.1841 52.185C49.1884 52.1807 49.1941 52.1779 49.1983 52.1736C49.2409 52.1424 49.2821 52.1126 49.3218 52.0842C49.3261 52.0814 49.3303 52.0785 49.3346 52.0757C49.3743 52.0473 49.4141 52.0203 49.451 51.9948C49.4538 51.9934 49.4566 51.9905 49.4595 51.9891C49.5858 51.9025 49.7022 51.8273 49.8242 51.7493C49.8512 51.7322 49.8781 51.7138 49.9051 51.6967C49.9136 51.6911 49.9221 51.6854 49.9307 51.6797C49.9647 51.657 50.0002 51.6343 50.0371 51.6088C50.0442 51.6045 50.0499 51.6002 50.057 51.596C50.0939 51.5704 50.1322 51.5449 50.1719 51.5179C50.179 51.5123 50.1861 51.508 50.1946 51.5023C50.2344 51.4739 50.2769 51.4455 50.3195 51.4143C50.328 51.4086 50.3351 51.403 50.3436 51.3973C50.3891 51.3647 50.4345 51.3306 50.4842 51.2951C50.4927 51.2894 50.4998 51.2838 50.5083 51.2767C50.5594 51.2383 50.6119 51.1986 50.6687 51.156C50.6757 51.1503 50.6828 51.1447 50.6914 51.139C50.7495 51.0936 50.812 51.0467 50.8773 50.9942C50.883 50.99 50.8886 50.9857 50.8943 50.9815C50.9639 50.9275 51.0362 50.8693 51.1129 50.8069C52.6683 49.548 53.4461 48.9193 54.035 47.9784C54.3075 47.5427 54.6354 46.8898 54.9462 43.0764C54.9661 42.8295 54.9845 42.5953 55.0001 42.3668C55.6004 42.7017 56.2987 42.9089 57.5207 43.2722C59.5175 43.8655 61.1383 44.1209 61.9444 44.2345C64.5274 44.5978 66.4916 44.8746 69.0462 44.5155C70.9706 44.2444 72.712 43.9748 74.0617 42.5484C74.0901 42.5186 74.1199 42.4874 74.1497 42.4548C74.1653 42.4392 74.1809 42.4221 74.1951 42.4051V42.4023Z" fill="#0040B0"/>
<path d="M63.722 24.6365C63.7802 25.1034 63.8171 25.3205 63.8284 25.7193C63.8398 26.0997 63.8497 26.4502 63.7645 26.8022C63.6056 27.4579 63.1784 27.8666 63.0223 28.0327C62.6703 28.4073 61.4895 30.0551 61.8131 31.514C61.9252 32.0207 62.1963 32.3868 62.2431 32.4493C62.5781 32.8935 62.9684 33.0794 63.3132 33.2781C63.4821 33.376 63.9916 33.7961 65.0106 34.6377C65.9374 35.4041 66.5945 35.9448 67.3623 36.7197C68.5942 37.9615 69.3293 38.7024 69.853 39.7838C69.9069 39.8945 70.1681 40.4438 70.608 41.1193C70.9855 41.6984 71.18 41.9936 71.5305 42.2448C71.7122 42.3753 71.637 42.2845 72.893 42.8139C73.2691 42.9728 73.4635 43.0594 73.7062 42.9969C73.9191 42.9416 74.0667 42.7968 74.2753 42.5286C74.728 41.9467 74.9778 41.4159 75.0275 41.3081C75.4249 40.4509 75.6221 40.0223 75.7399 39.6802C76.038 38.8088 76.1387 38.0935 76.248 37.137C76.6355 33.7564 76.3985 33.6911 76.7362 32.4578C76.8554 32.0207 76.9775 31.6943 77.091 31.4331C77.338 30.8669 77.5253 30.7462 77.6005 30.2949C77.6332 30.1033 77.6289 29.9571 77.6275 29.8819C77.6275 29.8819 77.6247 29.7755 77.7084 26.3055C77.7354 25.1417 77.9866 24.8082 78.489 22.7844C79.305 19.5003 79.8287 15.6258 79.2397 15.4371C79.1674 15.4144 79.1546 15.4697 78.655 15.7507C78.0377 16.0984 77.5409 16.3042 77.2131 16.4405C76.8583 16.5881 76.4339 16.764 75.896 16.9003C75.29 17.0536 75.2432 16.9783 73.6381 17.1203C72.8731 17.1884 72.4161 17.2466 71.7562 17.1203C71.109 16.9968 70.9458 16.8251 70.8777 16.6817C70.7173 16.3369 70.9941 15.8955 71.0977 15.7309C71.4567 15.1575 71.9733 15.0014 71.9336 14.9049C71.8612 14.7275 70.1198 15.2341 70.1198 15.2341C70.1198 15.2341 68.333 16.5554 66.4369 18.0896C66.4369 18.0896 65.3924 18.934 64.345 20.1688C64.1435 20.4058 63.8554 20.762 63.6822 21.2985C63.5545 21.6944 63.5531 21.9967 63.5517 22.5843C63.5517 23.2541 63.6212 23.8133 63.722 24.6365Z" fill="#FFEAF4"/>
<path d="M78.7913 19.1042C78.8438 19.1311 79.0241 18.5493 79.6769 17.9177C80.3965 17.2237 81.1132 17.025 81.0777 16.9313C81.0465 16.849 80.4433 16.8944 79.9196 17.2166C78.9559 17.8113 78.7147 19.0659 78.7899 19.1028L78.7913 19.1042Z" fill="#FFB2D2"/>
<path d="M76.6534 32.7868C73.5127 30.1697 66.5187 30.3911 66.1242 31.5946C66.0177 31.9211 66.8196 32.7399 68.4247 34.3777C69.5403 35.5159 70.0966 36.085 70.6685 36.5931C71.6606 37.4773 72.0381 37.6944 72.2879 38.326C72.6739 39.3024 72.3673 40.2831 72.2595 40.6266C72.0466 41.3049 71.7131 41.7832 71.4037 42.1465C71.4434 42.1792 71.4846 42.2118 71.5286 42.2431C71.7102 42.3736 71.635 42.2828 72.891 42.8122C73.2671 42.9711 73.4616 43.0577 73.7042 42.9952C73.9171 42.9399 74.0647 42.7951 74.2734 42.5269C74.7261 41.945 74.9759 41.4142 75.0255 41.3064C75.4229 40.4492 75.6202 40.0205 75.738 39.6785C76.036 38.8071 76.1368 38.0918 76.2461 37.1353C76.5966 34.0797 76.4363 33.7334 76.652 32.7825L76.6534 32.7868Z" fill="#FFB2D2"/>
<path d="M75.1365 32.1231C72.1235 31.9797 71.3146 31.9684 70.0145 31.7825C68.6024 31.5809 67.7097 31.4135 67.2173 31.2687C66.959 31.1041 66.729 31.0842 65.8278 30.613C65.1324 30.2497 64.8443 30.1532 64.1659 29.9361C63.699 29.787 63.3002 29.7359 63.1044 29.7161C62.8035 29.6863 62.5594 29.6962 62.0683 29.7161C62.0527 29.7161 62.0314 29.7175 62.0144 29.7189C61.8001 30.2809 61.6795 30.9139 61.8114 31.5128C61.9236 32.0195 62.1946 32.3856 62.2415 32.4481C62.5764 32.8923 62.9667 33.0782 63.3116 33.2769C63.4024 33.3294 63.594 33.477 63.9105 33.7339C64.2043 33.7282 64.5378 33.7225 64.9167 33.7169C65.4645 33.7098 65.9031 33.7566 66.0365 33.7694C66.9604 33.8616 67.213 33.89 67.4656 33.9652C67.4841 33.9709 67.5025 33.9766 67.521 33.9823C67.5295 33.9851 67.538 33.9879 67.5465 33.9908C67.5494 33.9908 67.5522 33.9922 67.555 33.9936C68.5797 34.3115 69.2354 34.4321 70.0855 34.6919C70.2856 34.7529 70.2274 34.7401 71.6836 35.278C74.3063 36.2473 74.7349 36.3793 75.1365 36.4914C75.5552 36.6078 75.9341 36.6986 76.2889 36.771C76.6182 33.7523 76.411 33.6459 76.736 32.4594C76.7601 32.37 76.7857 32.2849 76.8098 32.204C76.3244 32.1798 75.761 32.1515 75.1365 32.1217V32.1231Z" fill="#FFB2D2"/>
<path d="M65.8234 17.6995C66.3741 16.8266 67.3236 16.1227 68.1354 15.7551C69.1175 15.3095 69.9094 15.1661 70.9667 14.9717C71.753 14.8284 71.8126 14.8681 71.8168 14.8866C71.8367 14.9575 71.164 15.0895 70.4416 15.5124C69.4893 16.0702 69.5532 16.486 68.6165 17.0665C68.0488 17.4199 67.0227 17.8882 66.6665 17.5391C66.4976 17.373 65.7922 17.7477 65.822 17.6995H65.8234Z" fill="#FFEAF4"/>
<path d="M61.9688 33.1633L57.7069 34.4037V25.5236L61.9688 24.2832V33.1633Z" fill="#FFEAF4"/>
<path d="M62.9353 33.7394L57.7069 34.4036V25.5236L58.6564 26.1835L62.9353 24.8594V33.7394Z" fill="#FFF8D6"/>
<path d="M65.8217 35.7946L58.656 35.0651V26.1836L65.8217 26.9145V35.7946Z" fill="#0899A7"/>
<path d="M64.9161 32.4773C65.464 32.4702 65.9025 32.517 66.0359 32.5298C66.9598 32.6221 67.2124 32.6504 67.4651 32.7257C67.4835 32.7313 67.502 32.737 67.5204 32.7427C67.5289 32.7455 67.5374 32.7484 67.546 32.7512C67.5488 32.7512 67.5516 32.7526 67.5545 32.754C68.5791 33.072 69.2348 33.1926 70.0849 33.4523C70.2851 33.5133 70.2269 33.5006 71.683 34.0384C74.3057 35.0078 74.7343 35.1398 75.136 35.2519C76.04 35.5031 76.7638 35.6379 77.4507 35.7188C78.5932 35.8522 79.1438 35.7727 79.5597 35.6634C79.8095 35.5967 80.2537 35.4761 80.7178 35.1596C81.4217 34.6785 81.768 34.0228 81.9681 33.5914C82.5585 32.3183 82.6834 31.2582 83.2184 28.5319C83.762 25.7715 84.0331 24.3906 84.0586 24.331C84.1821 24.0457 84.3013 23.8115 84.2076 23.566C83.7322 22.3185 78.4981 22.6776 78.034 24.1905C77.8382 24.8305 78.0085 25.1399 78.0794 27.344C78.0794 27.3397 78.0794 27.3482 78.0794 27.344C78.0794 27.3582 78.0468 29.5026 78.1021 30.7927L78.1121 31.0311C77.516 30.9999 76.4615 30.9445 75.136 30.8821L72.6949 30.8551L64.9161 32.4759V32.4773Z" fill="#FF7F4C"/>
<path d="M78.9148 15.711C79.132 15.5237 79.1519 15.4555 79.1519 15.4555C79.6599 15.2625 80.4334 15.3846 80.7854 15.4853C81.2594 15.6216 81.5177 15.8089 81.8541 16.0275C82.1734 16.2347 82.5211 16.4603 82.8418 16.8435C83.0973 17.1487 83.2633 17.4652 83.4691 18.0201C83.885 19.1413 83.8906 19.6891 84.3164 21.517C84.4158 21.9414 84.4739 22.1642 84.552 22.5829C84.552 22.5829 84.7975 23.9042 84.4583 24.7628C84.4399 24.8096 84.3888 24.9374 84.3192 24.9388C84.2483 24.9388 84.1958 24.8068 84.1759 24.7656C84.0453 24.4818 83.6125 24.3271 83.2804 24.2093C82.409 23.8999 81.2594 23.9198 80.9188 23.9311C80.2149 23.9538 79.782 23.9666 79.2115 24.1568C78.6367 24.347 78.147 24.479 77.8206 24.9161C77.7596 24.997 77.7014 25.0949 77.6631 25.0821C77.5311 25.0381 77.866 23.7523 77.9867 23.2244C78.736 19.946 77.9427 16.5498 78.9148 15.711Z" fill="#FFEAF4"/>
<path d="M58.6564 26.1834L57.7069 25.5234V34.4035L58.6564 35.0649V26.1834Z" fill="#046C7C"/>
<path d="M61.9688 24.2832L62.9353 24.8594L58.6564 26.1835L57.7069 25.5236L61.9688 24.2832Z" fill="white"/>
<path d="M58.656 26.1836L65.4654 26.5852L65.8217 26.9145L58.656 26.1836Z" fill="white"/>
<path d="M67.486 33.0896L72.7613 34.303L73.5532 30.8728C73.5532 30.8728 66.9793 30.7734 66.7423 30.4825C66.5053 30.1901 66.379 29.4167 65.8624 29.1626C65.3458 28.9086 63.7833 28.6716 63.2922 28.656C62.8026 28.6389 61.7637 28.5822 61.7396 28.9199C61.7154 29.2577 61.9496 29.3116 61.9496 29.3116C61.9496 29.3116 61.3365 29.1342 61.162 29.5047C61.1265 29.5799 61.1236 29.665 61.1492 29.7445C61.1747 29.824 61.223 29.9205 61.3096 29.9475C61.3096 29.9475 61.0967 29.9844 61.135 30.2398C61.1733 30.4953 61.9269 30.7124 61.9269 30.7124C61.9269 30.7124 61.7367 30.9792 62.0291 31.1552C62.3215 31.3298 63.7733 31.879 64.0941 32.1146C64.4162 32.3502 64.5227 32.3956 64.7356 32.6809C64.9484 32.9661 65.9178 33.372 66.2669 33.206C66.4556 33.1166 66.7267 33.074 66.9368 33.0541C67.1198 33.0371 67.3058 33.0485 67.4846 33.0896H67.486Z" fill="#FF7F4C"/>
<path d="M64.3521 31.4769C64.267 31.4428 64.1804 31.413 64.0924 31.3875C63.9718 31.352 63.8511 31.3122 63.7319 31.2725C63.5105 31.2001 63.2849 31.1377 63.0706 31.0454C62.9656 31.0014 62.8662 30.9475 62.7669 30.8922C62.6803 30.8425 62.5937 30.7928 62.5029 30.7502C62.4206 30.7133 62.3312 30.6821 62.2403 30.6764C62.1736 30.6722 61.9905 30.6892 61.9281 30.7105C62.1154 30.7588 62.7541 30.9858 62.8392 31.0199C62.923 31.054 63.0081 31.0809 63.0933 31.1079C63.2608 31.1618 63.4311 31.2086 63.6014 31.2569C63.7731 31.3052 63.9434 31.3562 64.1109 31.4173C64.1932 31.4471 64.2755 31.4811 64.3564 31.5166C64.3791 31.5266 64.4004 31.5379 64.4231 31.5478C64.443 31.5578 64.4685 31.5663 64.4827 31.5819C64.4898 31.589 64.4941 31.5975 64.5012 31.606C64.5139 31.6202 64.5295 31.6302 64.548 31.6344C64.5608 31.6373 64.582 31.6415 64.5948 31.6344C64.6161 31.6245 64.5877 31.5904 64.5764 31.5805C64.5139 31.5251 64.4274 31.5053 64.3521 31.4755V31.4769Z" fill="#A93E00"/>
<path d="M61.3095 29.9478C61.6147 30.0216 62.1752 30.111 62.5315 30.1635C62.7429 30.1948 62.9501 30.2544 63.146 30.3395C63.3603 30.4332 63.6413 30.551 63.8003 30.5978C63.9592 30.6461 64.1196 30.6929 64.2828 30.7256C64.3836 30.7454 64.4886 30.7582 64.5893 30.7383C64.6035 30.7355 64.622 30.727 64.6206 30.7128C64.6206 30.7043 64.6106 30.6972 64.6021 30.6929C64.4034 30.5765 64.1891 30.4928 63.9677 30.4275C63.8542 30.3949 63.7392 30.3665 63.6229 30.3395C63.4909 30.3083 63.3603 30.2742 63.2297 30.2388C62.9672 30.1678 62.7046 30.0912 62.4392 30.0301C62.1923 29.9734 61.9397 29.9365 61.687 29.9209C61.6033 29.9152 61.3109 29.9152 61.3081 29.9464L61.3095 29.9478Z" fill="#A93E00"/>
<path d="M62.6609 29.2991C62.448 29.3105 62.238 29.2991 62.0251 29.275C61.9754 29.2693 61.9144 29.2565 61.8647 29.2679C61.984 29.3729 62.5644 29.4368 62.7617 29.4226C62.9661 29.4084 63.1719 29.3686 63.3762 29.3942C63.4798 29.407 63.5763 29.4453 63.6743 29.4779C63.7807 29.512 63.8871 29.5446 63.9936 29.5773C64.0986 29.6085 64.205 29.6383 64.3115 29.6667C64.4108 29.6922 64.5116 29.7135 64.6109 29.7405C64.6819 29.7603 64.7529 29.7859 64.8252 29.8015C64.8451 29.8058 64.8664 29.81 64.8891 29.8129C64.9118 29.8157 64.9232 29.7845 64.9033 29.7731C64.7514 29.6794 64.5811 29.617 64.4094 29.5673C64.3115 29.5389 64.2121 29.5148 64.1142 29.4893C64.0191 29.4651 63.9283 29.4311 63.8389 29.3899C63.6799 29.319 63.5167 29.2267 63.3379 29.2296C63.1591 29.2324 62.9703 29.2693 62.7872 29.2877C62.7447 29.292 62.7035 29.2948 62.6624 29.2977L62.6609 29.2991Z" fill="#A93E00"/>
<path d="M61.8699 30.8458C61.8699 30.8458 61.8827 30.9437 62.0601 30.9962C62.2375 31.0487 62.3596 31.0899 62.3596 31.0899L62.4192 30.8344C62.4192 30.8344 61.9764 30.6627 61.9168 30.718C61.8572 30.7734 61.8699 30.8458 61.8699 30.8458Z" fill="#A93E00"/>
<path d="M61.6843 30.4256L61.7453 30.1616C61.7453 30.1616 61.2287 29.9402 61.1691 30.1346C61.1038 30.3475 61.4813 30.3887 61.6843 30.4256Z" fill="#A93E00"/>
<path d="M61.8004 29.8394L61.8828 29.4789C61.8828 29.4789 61.3293 29.2121 61.2526 29.4789C61.1689 29.7713 61.579 29.8025 61.799 29.8394H61.8004Z" fill="#A93E00"/>
<path d="M62.3237 29.1568L62.3123 28.8318C62.3123 28.8318 61.7773 28.7296 61.773 28.9737C61.7673 29.2405 62.1264 29.1752 62.3237 29.1568Z" fill="#A93E00"/>
<path d="M34.5454 56.8672L36.1094 59.3324L33.9933 59.101C33.8883 59.0897 33.7904 59.0485 33.7081 58.9832L33.2114 58.5859C33.0808 58.4808 33.0042 58.3219 33.0042 58.1544C33.0042 57.9657 33.1007 57.7897 33.2596 57.6889L34.5454 56.8686V56.8672Z" fill="#FFB2D2"/>
<path d="M44.0363 50.543C44.0363 50.543 41.7343 53.3914 41.0062 54.4004L38.2203 55.7714C37.9095 55.8991 37.5916 56.0084 37.268 56.1006L34.5474 56.867L36.1113 59.3322L37.1374 59.0583C37.8059 58.8795 38.4829 58.7347 39.1669 58.624L43.7226 57.8818C44.1739 57.8818 44.5401 57.5156 44.5401 57.0643V56.0609C44.5401 55.909 44.6096 55.7643 44.7303 55.6706L46.957 54.2713C47.099 54.1819 47.1259 53.986 47.0138 53.8611L44.0363 50.543Z" fill="#FFEAF4"/>
<path d="M59.5587 45.0282C59.6311 44.8522 59.7986 44.7358 59.9887 44.7273L71.395 44.2703C73.1321 44.205 74.8693 44.3768 76.5596 44.7827L76.6163 44.7969C77.0535 44.9019 77.2323 45.4284 76.9484 45.7775L76.3893 46.4659C75.9635 46.9896 75.3234 47.2904 74.6479 47.2848L59.1542 47.1556C58.9286 47.1542 58.7767 46.9257 58.8633 46.7171L59.5587 45.0268V45.0282Z" fill="#C35500"/>
</svg>
