<svg width="128" height="129" viewBox="0 0 128 129" fill="none" xmlns="http://www.w3.org/2000/svg">
<path fill-rule="evenodd" clip-rule="evenodd" d="M20.4296 117.983C32.067 123.418 47.3117 126.713 63.9998 126.713C82.1934 126.713 98.6714 122.797 110.63 116.46V56.3792C110.63 51.4527 106.636 47.459 101.71 47.459H29.3498C24.4233 47.459 20.4296 51.4527 20.4296 56.3792V117.983Z" fill="#3793D1"/>
<path fill-rule="evenodd" clip-rule="evenodd" d="M12.6711 113.694C24.7994 121.639 43.2878 126.714 63.9998 126.714C84.7121 126.714 103.201 121.638 115.329 113.694V75.7531C115.329 63.7888 105.63 54.0898 93.6658 54.0898H34.3344C22.3701 54.0898 12.6711 63.7888 12.6711 75.7531V113.694Z" fill="#C2C8CC"/>
<path fill-rule="evenodd" clip-rule="evenodd" d="M10.6711 114.775L11.5752 115.367C24.1086 123.577 43.0059 128.714 63.9998 128.714C84.9941 128.714 103.892 123.577 116.425 115.367L117.329 114.775V75.7531C117.329 62.6843 106.735 52.0898 93.6658 52.0898H34.3344C21.2656 52.0898 10.6711 62.6843 10.6711 75.7531V114.775ZM63.9998 126.714C43.2878 126.714 24.7994 121.639 12.6711 113.694V75.7531C12.6711 63.7888 22.3701 54.0898 34.3344 54.0898H93.6658C105.63 54.0898 115.329 63.7888 115.329 75.7531V113.694C103.201 121.639 84.7121 126.714 63.9998 126.714Z" fill="#030303"/>
<path fill-rule="evenodd" clip-rule="evenodd" d="M94.4854 85.3516C95.0376 85.3516 95.4854 85.7993 95.4854 86.3516V123.415C95.4854 123.968 95.0376 124.415 94.4854 124.415C93.9331 124.415 93.4854 123.968 93.4854 123.415V86.3516C93.4854 85.7993 93.9331 85.3516 94.4854 85.3516Z" fill="#030303"/>
<path fill-rule="evenodd" clip-rule="evenodd" d="M33.5146 85.3516C34.0669 85.3516 34.5146 85.7993 34.5146 86.3516V123.415C34.5146 123.968 34.0669 124.415 33.5146 124.415C32.9624 124.415 32.5146 123.968 32.5146 123.415V86.3516C32.5146 85.7993 32.9624 85.3516 33.5146 85.3516Z" fill="#030303"/>
<path d="M78.6816 90.8807C78.6816 89.4731 77.5406 88.332 76.133 88.332H51.8669C50.4594 88.332 49.3183 89.4731 49.3183 90.8807V109.287C49.3183 110.694 50.4594 111.835 51.8669 111.835H76.133C77.5406 111.835 78.6816 110.694 78.6816 109.287V90.8807Z" fill="#D69522"/>
<path fill-rule="evenodd" clip-rule="evenodd" d="M36.127 24.375V33.7974V43.2197C36.127 43.2197 29.5062 42.2478 29.7634 35.167V33.7974V32.4286C29.5062 25.3469 36.127 24.375 36.127 24.375Z" fill="#030303"/>
<path fill-rule="evenodd" clip-rule="evenodd" d="M91.1663 24.375V33.7974V43.2197C91.1663 43.2197 97.787 42.2478 97.5298 35.167V33.7974V32.4286C97.787 25.3469 91.1663 24.375 91.1663 24.375Z" fill="#030303"/>
<path d="M36.1149 33.5382C36.2044 41.5356 38.4614 45.5487 44.4301 50.7324C55.1754 58.4369 74.0872 56.9989 82.9905 50.7078C88.3804 47.037 91.5112 41.2064 91.4199 32.9122C91.2382 17.2923 80.0055 3.11744 63.7516 3.28864C47.5048 3.45809 35.9349 17.9147 36.1149 33.5382Z" fill="#C2C8CC"/>
<path d="M35.9089 33.0677C35.9987 41.09 38.2628 45.1155 44.25 50.3153C55.0286 58.0438 73.9991 56.6013 82.9302 50.2906C88.3368 46.6084 91.4773 40.7597 91.3857 32.4398C91.2034 16.7713 79.9358 2.55246 63.6315 2.7242C47.3342 2.89417 35.7284 17.3957 35.9089 33.0677Z" fill="#C2C8CC"/>
<path fill-rule="evenodd" clip-rule="evenodd" d="M43.0047 51.8916L43.0806 51.9461C48.9403 56.1476 56.8578 57.7638 64.3336 57.5736C71.7923 57.3838 79.1867 55.3862 84.0735 51.9394C90.0896 47.8355 93.4895 41.322 93.3915 32.4181L93.3915 32.4168C93.1995 15.9159 81.2774 0.532377 63.6102 0.718468C46.0037 0.902098 33.7116 16.5221 33.9025 33.0912C33.9496 37.2897 34.5679 40.628 36.0721 43.6454C37.5673 46.6447 39.8536 49.155 42.9342 51.8304L43.0047 51.8916ZM35.9086 33.0681C35.9984 41.0904 38.2624 45.1159 44.2496 50.3157C55.0283 58.0442 73.9988 56.6016 82.9298 50.291C88.3364 46.6088 91.477 40.7601 91.3854 32.4402C91.2031 16.7717 79.9355 2.55284 63.6311 2.72457C47.3338 2.89455 35.728 17.3961 35.9086 33.0681Z" fill="#030303"/>
<path fill-rule="evenodd" clip-rule="evenodd" d="M41.4643 33.219C41.5984 45.1055 50.6407 50.2575 64.0287 50.116C77.4158 49.9697 86.1489 44.5788 86.0181 32.6997C85.8799 20.8189 76.9178 13.1104 63.5298 13.2519C50.1468 13.3926 41.3269 21.3357 41.4643 33.219Z" fill="#030303"/>
<path d="M66.7894 24.8979C66.0939 28.6455 68.5682 32.2474 72.3158 32.9429C76.0634 33.6384 79.6653 31.1642 80.3608 27.4165C81.0563 23.6689 78.5821 20.067 74.8344 19.3715C71.0868 18.676 67.4849 21.1503 66.7894 24.8979Z" fill="#727F87"/>
<path fill-rule="evenodd" clip-rule="evenodd" d="M63.4388 55.6238H64.0455C64.0455 55.6238 77.0807 56.0672 84.9613 49.1593C84.9842 49.1391 85.0193 49.1479 85.0175 49.1786C84.9552 50.2085 83.8086 61.9206 64.0455 61.9206H63.4388C43.6748 61.9206 42.5291 50.2085 42.4667 49.1786C42.465 49.1479 42.5001 49.1391 42.5229 49.1593C50.4036 56.0672 63.4388 55.6238 63.4388 55.6238Z" fill="#030303"/>
</svg>
