<svg width="320" height="240" viewBox="0 0 320 240" fill="none" xmlns="http://www.w3.org/2000/svg">
<rect y="51" width="320" height="138" rx="24" fill="#89D1FF"/>
<path d="M192.623 129.19C192.544 129.102 192.466 129.014 192.377 128.926C192.24 128.79 192.093 128.653 191.945 128.517C191.867 128.439 191.788 128.371 191.7 128.293C191.493 128.117 191.277 127.942 191.051 127.776C191.012 127.747 190.982 127.717 190.943 127.698C190.678 127.513 190.403 127.327 190.118 127.152C190.02 127.093 189.911 127.035 189.813 126.976C189.617 126.859 189.41 126.742 189.194 126.635C189.076 126.567 188.949 126.508 188.821 126.45C188.615 126.352 188.408 126.255 188.202 126.157C188.064 126.099 187.927 126.04 187.789 125.982C187.563 125.884 187.337 125.797 187.102 125.709C186.964 125.66 186.836 125.602 186.689 125.553C186.414 125.455 186.129 125.358 185.844 125.27C185.736 125.241 185.638 125.202 185.53 125.173C185.137 125.056 184.724 124.939 184.312 124.831C184.213 124.802 184.105 124.783 183.997 124.763C183.673 124.685 183.349 124.607 183.005 124.539C182.848 124.51 182.681 124.48 182.514 124.441C182.219 124.383 181.924 124.334 181.62 124.286C181.443 124.256 181.256 124.227 181.079 124.198C180.775 124.149 180.47 124.11 180.156 124.071C179.969 124.052 179.792 124.022 179.606 124.003C179.272 123.964 178.918 123.935 178.574 123.905C178.407 123.896 178.25 123.876 178.083 123.857C177.562 123.818 177.041 123.779 176.501 123.759C174.664 123.681 172.778 123.691 170.842 123.788C170.724 123.788 170.597 123.808 170.479 123.808C170.007 123.837 169.526 123.866 169.044 123.896C168.563 123.935 168.082 123.974 167.59 124.022C167.541 124.022 167.492 124.022 167.443 124.032C164.289 124.324 160.939 124.831 157.501 125.553C143.353 125.436 129.805 128.995 125.021 130.272C122.928 130.827 117.996 130.935 112.446 130.896C110.491 130.886 108.467 130.857 106.453 130.827C105.254 130.808 104.065 130.788 102.896 130.769C100.578 130.74 98.3671 130.71 96.4022 130.72C95.0956 130.72 93.9068 130.74 92.8556 130.788C92.61 130.788 92.3644 130.808 92.109 130.818C92.0304 130.818 91.9419 130.818 91.8633 130.827C91.6963 130.827 91.5195 130.847 91.3426 130.857C91.2444 130.857 91.1363 130.866 91.0381 130.876C90.8809 130.876 90.7237 130.896 90.5567 130.905C90.4486 130.905 90.3405 130.925 90.2325 130.925C90.0753 130.935 89.9181 130.944 89.7609 130.964C89.643 130.964 89.5349 130.983 89.417 130.993C89.2599 131.003 89.1027 131.022 88.9455 131.032C88.8276 131.042 88.7097 131.052 88.6016 131.061C88.4346 131.081 88.2676 131.091 88.1104 131.11C88.0023 131.12 87.8943 131.13 87.7764 131.139C87.5799 131.159 87.3736 131.178 87.1672 131.208C87.069 131.217 86.9806 131.227 86.8823 131.237C86.6269 131.266 86.3813 131.295 86.1259 131.325C86.008 131.334 85.8901 131.354 85.7722 131.373C85.615 131.393 85.448 131.412 85.2908 131.432C85.1532 131.451 85.0255 131.471 84.888 131.49C84.7406 131.51 84.5932 131.529 84.4459 131.549C84.3083 131.568 84.1708 131.588 84.0234 131.607C83.876 131.627 83.7385 131.646 83.5911 131.676C83.4438 131.695 83.3062 131.724 83.1589 131.744C83.0213 131.763 82.8838 131.793 82.7364 131.812C82.589 131.841 82.4417 131.861 82.2943 131.89C82.1568 131.91 82.0192 131.939 81.8817 131.968C81.7343 131.997 81.5869 132.017 81.4396 132.046C81.302 132.075 81.1743 132.095 81.0368 132.124C80.742 132.183 80.4473 132.241 80.1526 132.3C80.0347 132.329 79.9168 132.348 79.7891 132.378C79.6319 132.407 79.4747 132.446 79.3175 132.485C79.1898 132.514 79.0719 132.543 78.9442 132.573C78.787 132.612 78.6298 132.651 78.4726 132.68C78.3547 132.709 78.227 132.738 78.1091 132.768C77.9519 132.807 77.7947 132.846 77.6473 132.885C77.5294 132.914 77.4017 132.943 77.2838 132.982C77.1266 133.021 76.9793 133.06 76.8221 133.109C76.7042 133.138 76.5863 133.177 76.4684 133.206C76.3112 133.255 76.154 133.294 76.0066 133.343C75.8888 133.372 75.7807 133.411 75.6726 133.44C75.5154 133.489 75.3582 133.538 75.201 133.587C75.1814 133.587 75.1617 133.596 75.1421 133.606C74.8474 133.577 74.5232 133.557 74.1498 133.548C73.246 133.548 72.3323 133.665 71.566 133.811C70.1218 134.084 68.3534 134.708 66.8306 134.776H63.1857C59.9535 134.756 56.6721 135.536 55.2869 136.638L54.6679 137.135C53.2925 138.227 54.0883 139.368 56.623 139.894L59.6587 140.528C60.8475 140.782 60.9261 141.357 61.5156 141.776C61.8791 142.03 62.2033 142.361 63.6769 142.507C63.8538 142.527 64.0405 142.537 64.2173 142.537C64.2369 142.576 64.2566 142.615 64.2762 142.654C64.2959 142.702 64.3155 142.751 64.3352 142.79C64.3843 142.878 64.4334 142.966 64.4826 143.053C64.5022 143.083 64.5219 143.122 64.5415 143.151C64.6201 143.268 64.7085 143.385 64.8068 143.502C64.8264 143.521 64.8461 143.551 64.8657 143.57C64.9443 143.668 65.0229 143.755 65.1113 143.853C65.1506 143.892 65.1899 143.931 65.239 143.97C65.3176 144.038 65.3864 144.116 65.465 144.184C65.5141 144.233 65.5731 144.272 65.6222 144.311C65.7008 144.379 65.7794 144.438 65.858 144.506C65.9169 144.555 65.9759 144.594 66.0348 144.642C66.1232 144.701 66.2018 144.769 66.2903 144.828C66.359 144.876 66.418 144.915 66.4867 144.964C66.5752 145.023 66.6734 145.081 66.7618 145.14C66.8306 145.179 66.8994 145.227 66.9681 145.266C67.0664 145.325 67.1646 145.383 67.2629 145.442C67.3316 145.481 67.4102 145.52 67.479 145.559C67.5871 145.617 67.6952 145.676 67.813 145.725C67.8818 145.764 67.9604 145.803 68.0292 145.832C68.1471 145.89 68.2748 145.949 68.4025 146.007C68.4713 146.037 68.5401 146.076 68.6088 146.105C68.766 146.173 68.9232 146.241 69.0902 146.31C69.1295 146.329 69.1688 146.349 69.2081 146.358C69.4144 146.446 69.6207 146.524 69.8271 146.602C69.886 146.622 69.945 146.641 70.0039 146.67C70.1611 146.729 70.3085 146.787 70.4657 146.836C70.5442 146.865 70.6327 146.895 70.7113 146.924C70.8488 146.973 70.9863 147.012 71.1239 147.06C71.2123 147.09 71.3106 147.119 71.399 147.148C71.5267 147.187 71.6642 147.226 71.8018 147.265C71.9 147.294 71.9983 147.324 72.0867 147.353C72.2144 147.392 72.3519 147.431 72.4797 147.46C72.5779 147.489 72.6762 147.509 72.7744 147.538C72.9021 147.577 73.0397 147.606 73.1772 147.645C73.2754 147.675 73.3737 147.694 73.4719 147.714C73.6095 147.743 73.747 147.782 73.8747 147.811C73.973 147.831 74.0712 147.86 74.1597 147.879C74.2972 147.909 74.4446 147.938 74.5821 147.967C74.6705 147.987 74.7589 148.006 74.8572 148.026C75.0144 148.055 75.1716 148.084 75.3189 148.113C75.3975 148.123 75.4663 148.143 75.5449 148.152C75.7709 148.191 76.0067 148.23 76.2326 148.269C76.4586 148.308 76.6944 148.347 76.9498 148.386C77.4508 148.464 77.9814 148.562 78.5512 148.659C78.8361 148.708 79.1308 148.757 79.4256 148.815C80.9287 149.079 82.5989 149.381 84.2887 149.693C86.6858 150.131 89.1518 150.599 91.264 150.999C92.109 151.155 92.8949 151.35 93.6317 151.555C95.8422 152.189 97.4928 153.047 98.377 154.031C98.5538 154.226 98.7405 154.421 98.9271 154.616C98.9861 154.675 99.0548 154.733 99.1138 154.801C99.2415 154.928 99.3791 155.055 99.5166 155.182C99.5952 155.25 99.6738 155.318 99.7622 155.386C99.8899 155.494 100.018 155.611 100.155 155.718C100.244 155.786 100.332 155.854 100.42 155.923C100.548 156.03 100.686 156.127 100.823 156.235C100.912 156.303 101.01 156.371 101.108 156.439C101.246 156.537 101.383 156.634 101.521 156.732C101.619 156.8 101.707 156.859 101.806 156.927C101.953 157.024 102.091 157.112 102.238 157.21C102.336 157.268 102.434 157.327 102.533 157.395C102.69 157.492 102.837 157.58 102.994 157.668C103.093 157.726 103.181 157.775 103.279 157.834C103.446 157.931 103.613 158.019 103.771 158.107C103.859 158.155 103.947 158.204 104.036 158.253C104.213 158.35 104.399 158.438 104.576 158.536C104.655 158.575 104.733 158.614 104.812 158.653C105.018 158.75 105.225 158.857 105.431 158.955C105.49 158.984 105.549 159.013 105.598 159.033C106.413 159.413 107.248 159.754 108.064 160.066C108.064 160.066 108.074 160.066 108.084 160.066C108.349 160.164 108.614 160.261 108.879 160.359C108.919 160.368 108.958 160.388 108.997 160.398C109.223 160.476 109.459 160.563 109.685 160.641C109.734 160.661 109.793 160.68 109.842 160.69C110.058 160.758 110.265 160.836 110.481 160.895C110.54 160.914 110.599 160.934 110.658 160.953C110.864 161.022 111.06 161.08 111.267 161.139C111.326 161.158 111.385 161.178 111.443 161.187C111.64 161.246 111.836 161.304 112.033 161.363C112.092 161.382 112.151 161.392 112.2 161.412C112.396 161.47 112.593 161.519 112.789 161.577C112.839 161.587 112.888 161.607 112.937 161.616C113.133 161.675 113.33 161.724 113.526 161.772C113.526 161.772 113.536 161.772 113.546 161.772C115.648 164.424 119.588 166.208 124.569 167.115C124.628 167.125 124.687 167.135 124.746 167.144C125.237 167.232 125.728 167.31 126.239 167.378C126.779 167.456 127.33 167.515 127.89 167.573C128.322 167.612 128.764 167.651 129.206 167.681C129.334 167.681 129.452 167.7 129.579 167.71C135.327 168.071 141.85 167.456 148.55 166.052C148.639 166.033 148.737 166.013 148.826 165.994C149.307 165.896 149.779 165.789 150.26 165.672C150.525 165.614 150.8 165.555 151.066 165.487C151.36 165.419 151.655 165.341 151.95 165.272C152.431 165.155 152.903 165.038 153.384 164.912C153.463 164.892 153.541 164.873 153.62 164.853C162.541 162.484 171.383 158.848 178.712 154.373C183.015 154.109 187.19 153.505 190.815 152.559C193.527 151.857 195.649 150.989 197.142 150.044C197.28 149.966 197.408 149.878 197.535 149.79C199.009 148.815 199.726 147.772 199.697 146.739C199.697 146.67 199.697 146.592 199.697 146.524C199.687 146.436 199.667 146.349 199.648 146.251C199.598 146.056 199.539 145.871 199.441 145.676C198.685 144.262 196.474 142.917 192.829 141.844C192.721 141.815 192.613 141.786 192.505 141.757C195.59 136.892 195.561 132.573 192.78 129.375C192.8 129.375 192.81 129.385 192.81 129.385C192.751 129.316 192.672 129.248 192.613 129.17L192.623 129.19Z" fill="#1B90FF"/>
<path d="M117.75 48.1523L116.404 43.6968C115.265 39.914 116.886 35.8484 120.334 33.879L121.896 32.982C125.394 30.9736 129.835 31.6659 132.546 34.6492L135.562 37.9543C136.957 39.1242 139.698 38.8805 141.457 39.368C142.361 39.6312 143.373 40.0797 144.08 40.8889C145.878 42.9558 145.014 45.3444 145.014 45.3444C145.014 45.3444 140.828 48.4838 133.028 52.9588C125.227 57.4338 120.649 59.3057 120.649 59.3057C120.649 59.3057 118.31 58.9548 117.249 57.1316C116.287 55.4839 116.66 54.2847 116.866 53.2708C117.19 51.5939 118.271 49.9072 117.77 48.162L117.75 48.1523Z" fill="#8D2A00"/>
<path d="M117.75 48.1507L116.404 43.6952C115.265 39.9124 116.886 35.8468 120.334 33.8774L121.896 32.9805C121.896 46.8104 124.061 50.9606 133.028 52.9572C125.227 57.4322 120.649 59.3042 120.649 59.3042C120.649 59.3042 118.31 58.9532 117.249 57.13C116.287 55.4823 116.66 54.2832 116.866 53.2692C117.19 51.5923 118.271 49.9056 117.77 48.1605L117.75 48.1507Z" fill="#450B00"/>
<path d="M122.506 143.819C122.506 143.819 115.727 131.359 123.174 112.133C124.667 108.282 124.697 104.021 123.292 100.141C121.258 94.5543 118.35 86.7449 116.493 82.5234C112.613 73.7196 112.622 55.6342 128.518 46.6744C144.414 37.7146 157.422 43.0866 164.279 49.1801C171.137 55.2735 181.983 72.8421 187.76 73.2029C193.536 73.5636 209.609 74.636 217.655 85.2143C225.692 95.7925 122.516 143.828 122.516 143.828L122.506 143.819Z" fill="#FFDF72"/>
<path d="M132.132 129.522C131.542 120.718 132.819 110.033 140.6 100.283C148.381 90.5336 151.191 88.6812 142.772 88.4375C132.23 88.1352 127.485 81.0083 124.439 74.8856C118.417 62.7865 124.439 49.4102 124.439 49.4102C112.64 58.9354 112.954 74.5347 116.481 82.5098C118.348 86.7313 121.256 94.5407 123.28 100.127C124.694 104.007 124.655 108.268 123.162 112.119C116.304 129.844 121.521 141.816 122.386 143.571C124.645 140.49 132.348 132.71 132.132 129.512V129.522Z" fill="#C35500"/>
<path d="M161.37 63.5457C165.663 79.5251 163.246 79.2619 168.345 81.1241C173.444 82.9862 187.336 77.468 196.522 81.1241C205.708 84.7801 209.215 90.7078 209.215 90.7078L217.183 89.0407C218.175 87.4905 218.391 86.1841 217.645 85.2091C209.608 74.6309 193.535 73.5584 187.749 73.1977C181.972 72.837 171.135 55.2684 164.268 49.1749C158.246 43.8322 147.498 39.0354 134.225 43.9882C140.316 45.3531 157.843 50.3839 161.37 63.5457Z" fill="#FFF8D6"/>
<path d="M190.898 151.105C221.657 133.482 239.927 107.737 231.704 93.6032C223.481 79.4693 191.88 82.2982 161.12 99.9217C130.361 117.545 112.092 143.29 120.315 157.424C128.538 171.558 160.139 168.729 190.898 151.105Z" fill="#FF7F4C"/>
<path d="M221.583 100.29C216.347 91.2819 190.135 96.8586 167.048 110.089C143.961 123.319 126.247 143.627 131.542 152.597C136.838 161.566 162.932 155.921 186.019 142.691C209.106 129.461 226.83 109.289 221.583 100.29Z" fill="#450B00"/>
<path d="M221.584 100.29C216.348 91.2819 190.136 96.8586 167.048 110.089C166.086 110.644 165.133 111.2 164.189 111.775C167.952 110.449 214.658 94.4797 214.481 119.838C221.103 112.039 224.198 104.775 221.594 100.281L221.584 100.29Z" fill="#340800"/>
<path d="M231.713 93.5935C227.527 86.3886 215.61 81.7674 197.533 85.8817C197.533 85.8817 215.097 83.3769 223.059 95.8385C228.148 103.804 233.347 104.949 233.347 104.949C233.771 102.786 234.23 97.9603 231.723 93.5935H231.713Z" fill="#A93E00"/>
<path d="M126.888 152.877C120.444 139.481 137.096 117.516 137.096 117.516C118.999 134.314 115.276 148.743 120.316 157.401C128.333 171.177 158.916 168.857 188.92 152.419L205.504 141.782C184.489 157.06 135.878 171.557 126.888 152.867V152.877Z" fill="#8D2A00"/>
<path d="M170.812 107.921L163.938 111.859L173.909 128.999L180.784 125.061L170.812 107.921Z" fill="#8D2A00"/>
<path d="M203.297 136.596L204.569 142.256C219.882 131.585 231.26 117.277 233.353 104.99C233.377 104.853 232.051 104.562 230.795 103.809C224.854 122.222 210.103 131.863 203.297 136.596Z" fill="#FFDF72"/>
<path d="M185.932 161.213C196.74 161.213 205.502 152.518 205.502 141.792C205.502 131.066 196.74 122.371 185.932 122.371C175.123 122.371 166.361 131.066 166.361 141.792C166.361 152.518 175.123 161.213 185.932 161.213Z" fill="#FF7F4C"/>
<path d="M185.451 161.412C192.191 161.412 198.626 157.834 202.143 152.686C176.56 157.083 169.486 139.973 171.982 128.195C168.514 131.695 165.92 136.502 165.92 141.806C165.92 153.486 174.644 161.422 185.451 161.422V161.412Z" fill="#8D2A00"/>
<path d="M199.947 133.684C200.859 130.292 197.697 126.509 192.884 125.235C188.071 123.96 183.431 125.677 182.519 129.069C181.607 132.461 184.769 136.244 189.581 137.518C194.394 138.793 199.035 137.076 199.947 133.684Z" fill="#FFDF72"/>
<path d="M197.912 85.7773C185.535 87.3006 158.838 98.493 144.441 111.176C175.41 92.8622 202.42 86.9915 219.329 91.426C218.165 90.3272 215.97 88.7766 211.091 86.9915C207.188 85.5634 200.649 85.5393 197.912 85.7773Z" fill="#FFF8D6"/>
<path d="M219.17 83.8751C219.17 83.8751 213.854 84.9725 211.659 84.9085C209.475 84.834 201.176 84.9085 201.176 84.9085C201.176 84.9085 201.602 82.6712 205.267 82.9269C208.942 83.1826 210.668 81.2969 210.668 81.2969L219.17 83.8751Z" fill="#FFDF72"/>
<path d="M254.135 92.267C254.135 92.267 266.706 112.946 265.918 114.64C265.13 116.334 263.297 111.902 263.297 111.902C263.297 111.902 261.39 115.546 260.037 113.33C258.684 111.124 256.255 110.943 254.124 106.714C252.004 102.484 248.552 94.6322 245.921 92.6399C243.3 90.637 239.262 86.8335 236.854 86.8548C234.457 86.8761 210.049 89.497 203.731 76.0092C203.731 76.0092 203.135 74.752 202.975 75.3273C202.73 76.2436 201.76 72.0033 201.76 72.0033L201.835 73.9317C201.835 74.1128 201.611 74.1661 201.537 74.0169C201.11 73.1966 200.429 71.7902 200.418 71.1404C200.418 70.4372 200.077 71.0445 199.715 70.7568C199.566 70.629 199.502 70.4265 199.48 70.2348C199.374 69.5529 199.555 68.8285 199.406 68.1573C199.278 67.5926 198.926 67.0919 198.458 66.7616C198.362 66.6977 198.276 66.6338 198.213 66.5485C198.17 66.4846 198.159 66.3994 198.138 66.3248C198.01 65.6323 197.989 64.9185 198.095 64.2153C198.138 63.8851 198.223 63.5441 198.181 63.2139C198.138 62.8516 197.967 62.5107 197.861 62.1698C197.648 61.4773 197.68 60.7209 197.861 60.0177C198.106 59.0056 198.596 58.1107 198.809 57.0879C198.937 56.438 198.98 55.7668 199.044 55.1063C199.171 53.913 199.672 53.2738 200.855 53.0075C201.036 52.9648 201.206 52.9435 201.398 52.9116C204.85 52.4108 200.098 47.3716 200.098 47.3716C200.098 47.3716 196.284 41.9274 202.517 34.8106C208.248 28.2691 223.761 27.0759 230.323 40.7129C231.442 43.0461 233.296 44.9531 235.608 46.0611C238.41 47.4035 242.011 49.758 243.694 53.4549C245.271 56.9387 246.262 58.7499 246.837 59.6661C247.018 59.9538 246.73 60.3054 246.421 60.1775L245.633 59.8792L248.041 65.366C248.169 65.6536 247.881 65.9519 247.583 65.8241L246.293 65.2594C246.293 65.2594 252.26 73.8678 251.823 76.0838C251.535 77.5327 250.566 75.9879 250.566 75.9879C250.566 75.9879 253.538 81.7729 255.221 83.3391C256.905 84.9052 261.539 89.1987 261.028 90.573C260.516 91.9474 252.324 86.8442 252.324 86.8442L256.138 93.3537L254.124 92.2777L254.135 92.267Z" fill="#0040B0"/>
<path d="M201.575 50.2425C203.621 52.0732 211.671 53.3386 215.44 53.7424L235.361 45.7999C234.24 45.5307 231.813 43.7644 229.708 39.4736C226.42 32.7736 219.478 29.1092 211.805 30.186C204.133 31.2628 200.765 35.535 199.419 39.0774C198.08 42.6028 199.018 47.9541 201.575 50.2425Z" fill="#0070F2"/>
<path d="M252.325 86.8212C247.574 86.8319 243.184 85.5002 239.274 83.1137C234.073 80.6112 230.56 78.0175 226.256 75.2368C223.646 73.5535 220.744 71.2514 218.656 68.9396C215.95 65.9458 214.329 61.1028 213.444 57.2035C212.794 54.3269 213.396 50.2465 216.443 48.7549C216.571 48.691 217.157 48.3501 217.274 48.4247C220.918 50.5874 218.733 55.9996 220.118 57.2035C220.736 57.7255 223.315 64.9914 230.101 66.5682C234.022 67.4845 255.884 86.7999 252.336 86.8106L252.325 86.8212Z" fill="#00144A"/>
<path d="M244.927 76.9297C243.588 78.2693 239.124 73.4474 237.517 71.6621L222.668 62.479L217.902 51.7556L229.7 45.8984C231.65 46.1001 235.85 46.6003 237.044 46.9877C238.537 47.4719 241.16 49.49 242.572 51.2251C243.985 52.9602 247.324 59.9849 247.202 60.4752C247.103 60.8675 246.201 60.3118 245.762 59.9849C246.609 61.7819 248.298 65.5109 248.274 66.05C248.249 66.5892 247.059 65.8254 246.466 65.3761C247.069 66.1112 248.635 68.2921 250.081 71.1348C251.888 74.6881 252.041 75.5458 251.704 76.4648C251.435 77.1999 250.645 76.4856 250.284 76.0365C248.945 75.8877 245.998 75.858 244.927 76.9297Z" fill="#0070F2"/>
<path fill-rule="evenodd" clip-rule="evenodd" d="M226.934 45.6057C225.933 46.6391 224.559 47.2251 223.12 47.2677C218.944 47.3955 211.731 48.6633 215.354 56.4407C220.318 67.1159 231.878 77.6632 252.333 86.8255C252.333 86.8255 260.345 92.2164 261.037 90.5544C261.037 89.0202 259.983 87.859 257.852 85.4938C256.595 84.0981 254.954 82.2763 252.941 79.7194C251.779 77.8976 249.893 75.0104 249.116 74.0515C248.008 72.6772 239.474 63.1846 242.713 69.2253C242.745 69.2786 242.777 69.3212 242.809 69.3745C243.768 70.9513 245.398 73.6467 243.736 74.4777C242.478 75.1169 241.083 74.1581 240.06 73.3697C237.62 71.1004 234.999 68.8631 232.496 66.7323C223.781 59.3066 216.494 53.106 223.12 50.5491C227.723 50.1762 229.129 48.8764 230.216 47.875C231.281 46.8841 232.048 46.181 235.255 46.9161C237.716 47.4808 238.75 47.8217 240.262 48.983C238.622 47.4062 237.418 46.8096 236.193 46.2023C235.17 45.6909 234.136 45.1795 232.805 44.0822C230.983 43.4536 228.543 43.933 226.934 45.595V45.6057Z" fill="#0070F2"/>
<path d="M197.873 62.1495C197.66 61.457 197.692 60.7005 197.873 59.9974C198.118 58.9853 198.608 58.0903 198.821 57.0676C198.949 56.4177 198.991 55.7465 199.055 55.086C199.183 53.8927 199.684 53.2535 200.866 52.9871C200.962 52.9658 201.058 52.9445 201.154 52.9339C201.175 52.9658 201.282 52.9765 201.42 52.9658L202.049 49.9295L207.941 45.881C208.207 45.9449 208.473 45.9875 208.75 45.9875C210.423 45.9875 211.808 44.7197 212.01 43.0897L218.541 38.5938C218.541 38.5938 209.698 53.115 205.032 53.5092C204.063 53.5944 203.338 53.637 202.795 53.637C202.177 53.637 201.751 54.2443 201.921 54.8409C205.032 56.4177 204.34 59.9122 204.862 63.4492C205.021 64.5466 205.49 65.6333 205.895 66.6561C206.46 68.0837 207.131 69.4687 207.941 70.7791C212.287 77.8107 215.004 74.0712 219.489 77.3952C221.322 78.7482 222.025 81.8485 224.156 82.6582C226.063 83.3933 228.471 84.171 230.505 84.235C234.256 84.3521 238.262 81.6887 241.372 84.235C246.987 87.527 249.629 92.7368 252.57 98.362C254.221 101.516 256 106.065 258.536 108.675C259.196 109.346 260.145 107.631 259.548 105.628C260.656 106.725 262.531 109.804 264.065 109.73C265.344 112.265 266.153 114.183 265.93 114.652C265.141 116.346 263.309 111.914 263.309 111.914C263.309 111.914 262.371 117.976 260.006 118.69C257.63 119.393 254.69 112.127 252.57 107.897C250.45 103.668 247.893 98.948 244.867 93.6104C242.779 90.7019 239.295 86.8558 236.887 86.8771C234.49 86.8984 210.082 89.5193 203.764 76.0315C203.764 76.0315 203.168 74.7743 203.008 75.3496C202.763 76.2659 201.793 72.0363 201.793 72.0363L201.868 73.9646C201.868 74.1457 201.644 74.199 201.57 74.0499C201.143 73.2295 200.462 71.8232 200.451 71.1733C200.451 70.4702 200.099 71.0774 199.737 70.7898C199.588 70.6619 199.524 70.4595 199.492 70.2677C199.386 69.5859 199.567 68.8614 199.417 68.1902C199.3 67.6256 198.938 67.1248 198.469 66.7946C198.373 66.7306 198.288 66.6667 198.224 66.5815C198.182 66.5176 198.16 66.4323 198.15 66.3578C198.022 65.6652 198.001 64.9514 198.107 64.2483C198.15 63.918 198.235 63.5771 198.192 63.2468C198.15 62.8846 197.979 62.5437 197.873 62.2027H197.905L197.873 62.1495Z" fill="#00144A"/>
<path d="M203.359 47.8807L207.131 45.5369C207.61 45.8032 208.153 45.963 208.739 45.963C210.561 45.963 212.021 44.4821 212.021 42.6497V42.5325L218.53 38.5586C218.53 38.5586 212.468 42.9906 212.245 43.7577C212.021 44.5248 211.051 46.6236 208.675 46.3253C206.31 46.0376 206.662 48.4241 206.662 48.4241L203.338 47.8701L203.359 47.8807Z" fill="#00144A"/>
<path d="M202.88 47.9473C202.88 47.9473 206.8 47.3294 206.672 48.4374C206.545 49.5454 205.096 54.7551 196.924 53.9135L199.598 51.772L195.997 53.1038C195.997 53.1038 195.294 51.7188 198.299 49.0553C201.335 45.987 201.42 45.923 201.804 46.8819C202.187 47.8407 202.869 47.9473 202.869 47.9473H202.88Z" fill="#FFDF72"/>
</svg>
