<?xml version="1.0" encoding="UTF-8"?>
<!--Generator: Apple Native CoreSVG 341-->
<!DOCTYPE svg
PUBLIC "-//W3C//DTD SVG 1.1//EN"
       "http://www.w3.org/Graphics/SVG/1.1/DTD/svg11.dtd">
<svg version="1.1" xmlns="http://www.w3.org/2000/svg" xmlns:xlink="http://www.w3.org/1999/xlink" viewBox="0 0 3300 2200">
 <!--glyph: "", point size: 100.0, font version: "21.0d4e1", template writer version: "138.0.0"-->
 <style>.defaults {-sfsymbols-draw-reverses-motion-groups:true}

.monochrome-0 {-sfsymbols-motion-group:2;-sfsymbols-layer-tags:1f77689be9f7bcf8}
.monochrome-1 {-sfsymbols-motion-group:1;-sfsymbols-layer-tags:1f77689be9f7bcf8}
.monochrome-2 {-sfsymbols-motion-group:0;-sfsymbols-layer-tags:1f77689be9f7bcf8}

.multicolor-0:tintColor {-sfsymbols-motion-group:2;-sfsymbols-layer-tags:1f77689be9f7bcf8}
.multicolor-1:tintColor {-sfsymbols-motion-group:1;-sfsymbols-layer-tags:1f77689be9f7bcf8}
.multicolor-2:tintColor {-sfsymbols-motion-group:0;-sfsymbols-layer-tags:1f77689be9f7bcf8}

.hierarchical-0:primary {-sfsymbols-motion-group:2;-sfsymbols-layer-tags:1f77689be9f7bcf8}
.hierarchical-1:primary {-sfsymbols-motion-group:1;-sfsymbols-layer-tags:1f77689be9f7bcf8}
.hierarchical-2:primary {-sfsymbols-motion-group:0;-sfsymbols-layer-tags:1f77689be9f7bcf8}

.SFSymbolsPreviewWireframe {fill:none;opacity:1.0;stroke:black;stroke-width:0.5}
</style>
 <g id="Notes">
  <rect height="2200" id="artboard" style="fill:white;opacity:1" width="3300" x="0" y="0"/>
  <line style="fill:none;stroke:black;opacity:1;stroke-width:0.5;" x1="263" x2="3036" y1="292" y2="292"/>
  <text style="stroke:none;fill:black;font-family:sans-serif;font-size:13;font-weight:bold;" transform="matrix(1 0 0 1 263 322)">Weight/Scale Variations</text>
  <text style="stroke:none;fill:black;font-family:sans-serif;font-size:13;text-anchor:middle;" transform="matrix(1 0 0 1 559.711 322)">Ultralight</text>
  <text style="stroke:none;fill:black;font-family:sans-serif;font-size:13;text-anchor:middle;" transform="matrix(1 0 0 1 856.422 322)">Thin</text>
  <text style="stroke:none;fill:black;font-family:sans-serif;font-size:13;text-anchor:middle;" transform="matrix(1 0 0 1 1153.13 322)">Light</text>
  <text style="stroke:none;fill:black;font-family:sans-serif;font-size:13;text-anchor:middle;" transform="matrix(1 0 0 1 1449.84 322)">Regular</text>
  <text style="stroke:none;fill:black;font-family:sans-serif;font-size:13;text-anchor:middle;" transform="matrix(1 0 0 1 1746.56 322)">Medium</text>
  <text style="stroke:none;fill:black;font-family:sans-serif;font-size:13;text-anchor:middle;" transform="matrix(1 0 0 1 2043.27 322)">Semibold</text>
  <text style="stroke:none;fill:black;font-family:sans-serif;font-size:13;text-anchor:middle;" transform="matrix(1 0 0 1 2339.98 322)">Bold</text>
  <text style="stroke:none;fill:black;font-family:sans-serif;font-size:13;text-anchor:middle;" transform="matrix(1 0 0 1 2636.69 322)">Heavy</text>
  <text style="stroke:none;fill:black;font-family:sans-serif;font-size:13;text-anchor:middle;" transform="matrix(1 0 0 1 2933.4 322)">Black</text>
  <line style="fill:none;stroke:black;opacity:1;stroke-width:0.5;" x1="263" x2="3036" y1="1903" y2="1903"/>
  <g transform="matrix(0.2 0 0 0.2 263 1933)">
   <path d="m46.2402 4.15039c21.7773 0 39.4531-17.627 39.4531-39.4043s-17.6758-39.4043-39.4531-39.4043c-21.7285 0-39.4043 17.627-39.4043 39.4043s17.6758 39.4043 39.4043 39.4043Zm0-7.42188c-17.6758 0-31.9336-14.3066-31.9336-31.9824s14.2578-31.9824 31.9336-31.9824 31.9824 14.3066 31.9824 31.9824-14.3066 31.9824-31.9824 31.9824Zm3.61328-17.7734v-28.4668c0-2.24609-1.46484-3.75977-3.71094-3.75977-2.14844 0-3.61328 1.51367-3.61328 3.75977v28.4668c0 2.19727 1.46484 3.71094 3.61328 3.71094 2.24609 0 3.71094-1.51367 3.71094-3.71094Zm-17.8223-10.5957h28.418c2.19727 0 3.71094-1.46484 3.71094-3.61328 0-2.19727-1.51367-3.71094-3.71094-3.71094h-28.418c-2.24609 0-3.75977 1.51367-3.75977 3.71094 0 2.14844 1.51367 3.61328 3.75977 3.61328Z"/>
  </g>
  <g transform="matrix(0.2 0 0 0.2 281.506 1933)">
   <path d="m58.5449 14.5508c27.4902 0 49.8047-22.3145 49.8047-49.8047s-22.3145-49.8047-49.8047-49.8047-49.8047 22.3145-49.8047 49.8047 22.3145 49.8047 49.8047 49.8047Zm0-8.30078c-22.9492 0-41.5039-18.5547-41.5039-41.5039s18.5547-41.5039 41.5039-41.5039 41.5039 18.5547 41.5039 41.5039-18.5547 41.5039-41.5039 41.5039Zm4.05273-23.0957v-36.9141c0-2.49023-1.70898-4.19922-4.15039-4.19922-2.39258 0-4.05273 1.70898-4.05273 4.19922v36.9141c0 2.44141 1.66016 4.15039 4.05273 4.15039 2.44141 0 4.15039-1.66016 4.15039-4.15039Zm-22.5586-14.4043h36.9629c2.44141 0 4.15039-1.61133 4.15039-4.00391 0-2.44141-1.70898-4.15039-4.15039-4.15039h-36.9629c-2.49023 0-4.15039 1.70898-4.15039 4.15039 0 2.39258 1.66016 4.00391 4.15039 4.00391Z"/>
  </g>
  <g transform="matrix(0.2 0 0 0.2 304.924 1933)">
   <path d="m74.8535 28.3203c35.1074 0 63.623-28.4668 63.623-63.5742s-28.5156-63.623-63.623-63.623-63.5742 28.5156-63.5742 63.623 28.4668 63.5742 63.5742 63.5742Zm0-9.08203c-30.127 0-54.4922-24.3652-54.4922-54.4922s24.3652-54.4922 54.4922-54.4922 54.4922 24.3652 54.4922 54.4922-24.3652 54.4922-54.4922 54.4922Zm4.44336-30.3223v-48.4863c0-2.73438-1.85547-4.63867-4.54102-4.63867-2.58789 0-4.44336 1.9043-4.44336 4.63867v48.4863c0 2.68555 1.85547 4.58984 4.44336 4.58984 2.68555 0 4.54102-1.85547 4.54102-4.58984Zm-28.7109-19.7754h48.4863c2.68555 0 4.58984-1.80664 4.58984-4.39453 0-2.73438-1.85547-4.58984-4.58984-4.58984h-48.4863c-2.73438 0-4.58984 1.85547-4.58984 4.58984 0 2.58789 1.85547 4.39453 4.58984 4.39453Z"/>
  </g>
  <text style="stroke:none;fill:black;font-family:sans-serif;font-size:13;font-weight:bold;" transform="matrix(1 0 0 1 263 1953)">Design Variations</text>
  <text style="stroke:none;fill:black;font-family:sans-serif;font-size:13;" transform="matrix(1 0 0 1 263 1971)">Symbols are supported in up to nine weights and three scales.</text>
  <text style="stroke:none;fill:black;font-family:sans-serif;font-size:13;" transform="matrix(1 0 0 1 263 1989)">For optimal layout with text and other symbols, vertically align</text>
  <text style="stroke:none;fill:black;font-family:sans-serif;font-size:13;" transform="matrix(1 0 0 1 263 2007)">symbols with the adjacent text.</text>
  <line style="fill:none;stroke:#00AEEF;stroke-width:0.5;opacity:1.0;" x1="776" x2="776" y1="1919" y2="1933"/>
  <g transform="matrix(0.2 0 0 0.2 776 1933)">
   <path d="m16.5527 0.78125c2.58789 0 3.85742-0.976562 4.78516-3.71094l20.5566-57.5195h0.244141l20.6055 57.5195c0.927734 2.73438 2.19727 3.71094 4.73633 3.71094 2.58789 0 4.24805-1.5625 4.24805-4.00391 0-0.830078-0.146484-1.61133-0.537109-2.63672l-22.9004-60.9863c-1.12305-2.97852-3.125-4.49219-6.25-4.49219-3.02734 0-5.07812 1.46484-6.15234 4.44336l-22.9004 61.084c-0.390625 1.02539-0.537109 1.80664-0.537109 2.63672 0 2.44141 1.5625 3.95508 4.10156 3.95508Zm10.2051-20.9473h30.6641c2.00195 0 3.66211-1.66016 3.66211-3.66211 0-2.05078-1.66016-3.66211-3.66211-3.66211h-30.6641c-2.00195 0-3.66211 1.61133-3.66211 3.66211 0 2.00195 1.66016 3.66211 3.66211 3.66211Z"/>
  </g>
  <line style="fill:none;stroke:#00AEEF;stroke-width:0.5;opacity:1.0;" x1="792.836" x2="792.836" y1="1919" y2="1933"/>
  <text style="stroke:none;fill:black;font-family:sans-serif;font-size:13;font-weight:bold;" transform="matrix(1 0 0 1 776 1953)">Margins</text>
  <text style="stroke:none;fill:black;font-family:sans-serif;font-size:13;" transform="matrix(1 0 0 1 776 1971)">Leading and trailing margins on the left and right side of each symbol</text>
  <text style="stroke:none;fill:black;font-family:sans-serif;font-size:13;" transform="matrix(1 0 0 1 776 1989)">can be adjusted by modifying the x-location of the margin guidelines.</text>
  <text style="stroke:none;fill:black;font-family:sans-serif;font-size:13;" transform="matrix(1 0 0 1 776 2007)">Modifications are automatically applied proportionally to all</text>
  <text style="stroke:none;fill:black;font-family:sans-serif;font-size:13;" transform="matrix(1 0 0 1 776 2025)">scales and weights.</text>
  <g transform="matrix(0.2 0 0 0.2 1289 1933)">
   <path d="m14.209 13.1348 7.86133 7.86133c4.29688 4.39453 9.32617 4.10156 13.8672-1.02539l60.6934-68.2129-4.88281-4.88281-60.2539 67.6758c-1.80664 1.95312-3.4668 2.44141-5.81055 0.0976562l-5.17578-5.12695c-2.29492-2.29492-1.80664-3.95508 0.195312-5.81055l67.4805-62.1582-4.88281-4.83398-68.0664 62.5977c-4.98047 4.58984-5.32227 9.47266-1.02539 13.8184Zm44.873-97.4609c-2.05078 2.00195-2.24609 4.88281-1.07422 6.78711 1.12305 1.80664 3.4668 3.02734 6.5918 2.24609 5.85938-1.66016 12.5977-2.39258 18.8965 0.927734l-2.68555 7.12891c-1.61133 4.00391-0.732422 6.88477 1.70898 9.42383l10.2539 10.3027c2.34375 2.39258 4.54102 2.44141 7.08008 1.95312l4.44336-0.732422 2.58789 2.53906-0.195312 2.24609c-0.0976562 2.29492 0.537109 4.29688 2.7832 6.49414l3.36914 3.32031c2.29492 2.29492 5.51758 2.49023 7.8125 0.195312l12.9883-13.0371c2.29492-2.34375 2.14844-5.37109-0.195312-7.66602l-3.41797-3.41797c-2.19727-2.19727-4.05273-3.02734-6.34766-2.88086l-2.34375 0.244141-2.44141-2.44141 1.02539-4.6875c0.634766-2.73438-0.244141-4.98047-2.88086-7.61719l-11.2793-11.1816c-12.9395-12.8418-35.5957-11.0352-46.6797-0.146484Zm7.08008 2.05078c8.78906-6.39648 25.9766-5.66406 33.6914 1.95312l12.3047 12.207c1.02539 1.02539 1.2207 1.80664 0.927734 3.32031l-1.46484 6.64062 6.73828 6.68945 4.39453-0.244141c1.12305-0.0488281 1.51367 0.0488281 2.34375 0.878906l2.53906 2.49023-10.8398 10.8398-2.49023-2.49023c-0.830078-0.878906-0.976562-1.2207-0.927734-2.39258l0.292969-4.3457-6.68945-6.73828-6.83594 1.17188c-1.41602 0.292969-2.05078 0.195312-3.17383-0.878906l-8.93555-8.88672c-1.07422-1.02539-1.17188-1.70898-0.488281-3.36914l4.58984-11.4746c-6.10352-6.34766-17.041-7.51953-25.5859-4.58984-0.683594 0.244141-0.927734-0.390625-0.390625-0.78125Z"/>
  </g>
  <text style="stroke:none;fill:black;font-family:sans-serif;font-size:13;font-weight:bold;" transform="matrix(1 0 0 1 1289 1953)">Exporting</text>
  <text style="stroke:none;fill:black;font-family:sans-serif;font-size:13;" transform="matrix(1 0 0 1 1289 1971)">Symbols should be outlined when exporting to ensure the</text>
  <text style="stroke:none;fill:black;font-family:sans-serif;font-size:13;" transform="matrix(1 0 0 1 1289 1989)">design is preserved when submitting to Xcode.</text>
  <text id="template-version" style="stroke:none;fill:black;font-family:sans-serif;font-size:13;text-anchor:end;" transform="matrix(1 0 0 1 3036 1933)">Template v.5.0</text>
  <text style="stroke:none;fill:black;font-family:sans-serif;font-size:13;text-anchor:end;" transform="matrix(1 0 0 1 3036 1951)">Requires Xcode 15 or greater</text>
  <text id="descriptive-name" style="stroke:none;fill:black;font-family:sans-serif;font-size:13;text-anchor:end;" transform="matrix(1 0 0 1 3036 1969)">Generated from fiori.map.2</text>
  <text style="stroke:none;fill:black;font-family:sans-serif;font-size:13;text-anchor:end;" transform="matrix(1 0 0 1 3036 1987)">Typeset at 100.0 points</text>
  <text style="stroke:none;fill:black;font-family:sans-serif;font-size:13;" transform="matrix(1 0 0 1 263 726)">Small</text>
  <text style="stroke:none;fill:black;font-family:sans-serif;font-size:13;" transform="matrix(1 0 0 1 263 1156)">Medium</text>
  <text style="stroke:none;fill:black;font-family:sans-serif;font-size:13;" transform="matrix(1 0 0 1 263 1586)">Large</text>
 </g>
 <g id="Guides">
  <g id="H-reference" style="fill:#27AAE1;stroke:none;" transform="matrix(1 0 0 1 339 696)">
   <path d="M0.993654 0L3.63775 0L29.3281-67.1323L30.0303-67.1323L30.0303-70.459L28.1226-70.459ZM11.6885-24.4799L46.9815-24.4799L46.2315-26.7285L12.4385-26.7285ZM55.1196 0L57.7637 0L30.6382-70.459L29.4326-70.459L29.4326-67.1323Z"/>
  </g>
  <line id="Baseline-S" style="fill:none;stroke:#27AAE1;opacity:1;stroke-width:0.5;" x1="263" x2="3036" y1="696" y2="696"/>
  <line id="Capline-S" style="fill:none;stroke:#27AAE1;opacity:1;stroke-width:0.5;" x1="263" x2="3036" y1="625.541" y2="625.541"/>
  <g id="H-reference" style="fill:#27AAE1;stroke:none;" transform="matrix(1 0 0 1 339 1126)">
   <path d="M0.993654 0L3.63775 0L29.3281-67.1323L30.0303-67.1323L30.0303-70.459L28.1226-70.459ZM11.6885-24.4799L46.9815-24.4799L46.2315-26.7285L12.4385-26.7285ZM55.1196 0L57.7637 0L30.6382-70.459L29.4326-70.459L29.4326-67.1323Z"/>
  </g>
  <line id="Baseline-M" style="fill:none;stroke:#27AAE1;opacity:1;stroke-width:0.5;" x1="263" x2="3036" y1="1126" y2="1126"/>
  <line id="Capline-M" style="fill:none;stroke:#27AAE1;opacity:1;stroke-width:0.5;" x1="263" x2="3036" y1="1055.54" y2="1055.54"/>
  <g id="H-reference" style="fill:#27AAE1;stroke:none;" transform="matrix(1 0 0 1 339 1556)">
   <path d="M0.993654 0L3.63775 0L29.3281-67.1323L30.0303-67.1323L30.0303-70.459L28.1226-70.459ZM11.6885-24.4799L46.9815-24.4799L46.2315-26.7285L12.4385-26.7285ZM55.1196 0L57.7637 0L30.6382-70.459L29.4326-70.459L29.4326-67.1323Z"/>
  </g>
  <line id="Baseline-L" style="fill:none;stroke:#27AAE1;opacity:1;stroke-width:0.5;" x1="263" x2="3036" y1="1556" y2="1556"/>
  <line id="Capline-L" style="fill:none;stroke:#27AAE1;opacity:1;stroke-width:0.5;" x1="263" x2="3036" y1="1485.54" y2="1485.54"/>
  <line id="right-margin-Black-S" style="fill:none;stroke:#00AEEF;stroke-width:0.5;opacity:1.0;" x1="2981.9" x2="2981.9" y1="600.785" y2="720.121"/>
  <line id="left-margin-Black-S" style="fill:none;stroke:#00AEEF;stroke-width:0.5;opacity:1.0;" x1="2884.9" x2="2884.9" y1="600.785" y2="720.121"/>
  <line id="right-margin-Regular-S" style="fill:none;stroke:#00AEEF;stroke-width:0.5;opacity:1.0;" x1="1496.29" x2="1496.29" y1="600.785" y2="720.121"/>
  <line id="left-margin-Regular-S" style="fill:none;stroke:#00AEEF;stroke-width:0.5;opacity:1.0;" x1="1403.39" x2="1403.39" y1="600.785" y2="720.121"/>
  <line id="right-margin-Ultralight-S" style="fill:none;stroke:#00AEEF;stroke-width:0.5;opacity:1.0;" x1="604.411" x2="604.411" y1="600.785" y2="720.121"/>
  <line id="left-margin-Ultralight-S" style="fill:none;stroke:#00AEEF;stroke-width:0.5;opacity:1.0;" x1="515.011" x2="515.011" y1="600.785" y2="720.121"/>
 </g>
 <g id="Symbols">
  <g id="Black-S" transform="matrix(1 0 0 1 2884.9 696)">
   <path class="monochrome-0 multicolor-0:tintColor hierarchical-0:primary SFSymbolsPreviewWireframe" d="M70.11 2.1L26.91 2.1C18.21 2.1 11.11-5 11.11-13.7L11.11-56.9C11.11-65.6 18.21-72.7 26.91-72.7L70.11-72.7C78.81-72.7 85.91-65.6 85.91-56.9L85.91-13.7C85.91-4.9 78.81 2.1 70.11 2.1ZM26.91-61.6C24.31-61.6 22.11-59.5 22.11-56.8L22.11-13.6C22.11-11 24.21-8.8 26.91-8.8L70.11-8.8C72.71-8.8 74.91-10.9 74.91-13.6L74.91-56.8C74.91-59.4 72.81-61.6 70.11-61.6L26.91-61.6Z"/>
   <path class="monochrome-1 multicolor-1:tintColor hierarchical-1:primary SFSymbolsPreviewWireframe" d="M32.01-60.3C28.91-60.3 26.51-57.8 26.51-54.8C26.51-51.8 29.01-49.3 32.01-49.3C35.01-49.3 37.51-51.8 37.51-54.8C37.51-57.8 35.11-60.3 32.01-60.3L32.01-60.3ZM48.81-47.9C47.91-47.9 47.11-48.1 46.21-48.5C43.51-49.9 42.51-53.3 43.91-56L44.61-57.4C46.01-60.1 49.41-61.1 52.11-59.7C54.81-58.3 55.81-54.9 54.41-52.2L53.71-50.8C52.71-49 50.81-47.9 48.81-47.9ZM35.01-21.6C34.11-21.6 33.31-21.8 32.41-22.2C29.71-23.6 28.71-27 30.11-29.7L31.71-32.7C33.11-35.4 36.51-36.4 39.21-35C41.91-33.6 42.91-30.2 41.51-27.5L39.91-24.5C38.91-22.7 37.01-21.6 35.01-21.6ZM41.91-34.8C41.01-34.8 40.21-35 39.31-35.4C36.61-36.8 35.61-40.2 37.01-42.9L38.61-45.9C40.01-48.6 43.41-49.6 46.11-48.2C48.81-46.8 49.81-43.4 48.41-40.7L46.81-37.7C45.81-35.8 43.91-34.8 41.91-34.8ZM29.01-10.2C28.11-10.2 27.31-10.4 26.41-10.8C23.71-12.2 22.71-15.6 24.11-18.3L24.81-19.7C26.21-22.4 29.61-23.4 32.31-22C35.01-20.6 36.01-17.2 34.61-14.5L33.91-13.1C32.91-11.3 30.91-10.2 29.01-10.2ZM50.51-16.3C49.61-16.3 48.81-16.5 47.91-16.9L44.81-18.5C42.11-19.9 41.11-23.3 42.51-26C43.91-28.7 47.31-29.7 50.01-28.3L53.11-26.7C55.81-25.3 56.81-21.9 55.41-19.2C54.41-17.4 52.51-16.3 50.51-16.3ZM64.91-9.1C64.01-9.1 63.21-9.3 62.31-9.7L59.21-11.3C56.51-12.7 55.51-16.1 56.91-18.8C58.31-21.5 61.71-22.5 64.41-21.1L67.51-19.5C70.21-18.1 71.21-14.7 69.81-12C68.81-10.2 66.91-9.1 64.91-9.1Z"/>
   <path class="monochrome-2 multicolor-2:tintColor hierarchical-2:primary SFSymbolsPreviewWireframe" d="M61.91-23L57.61-27.9C50.21-36 50.11-39.5 50.11-40.6C50.11-46.3 54.51-52.2 61.81-52.2C69.31-52.2 73.51-46.3 73.51-40.6C73.51-39.4 73.51-36.7 66.11-28.1L61.91-23Z"/>
  </g>
  <g id="Regular-S" transform="matrix(1 0 0 1 1403.39 696)">
   <path class="monochrome-0 multicolor-0:tintColor hierarchical-0:primary SFSymbolsPreviewWireframe" d="M68.06 0.7L24.96 0.7C17.06 0.7 10.56-5.8 10.56-13.7L10.56-56.9C10.56-64.8 17.06-71.3 24.96-71.3L68.16-71.3C76.06-71.3 82.56-64.8 82.56-56.9L82.56-13.7C82.46-5.7 76.06 0.7 68.06 0.7ZM24.96-63C21.56-63 18.76-60.2 18.76-56.8L18.76-13.6C18.76-10.2 21.56-7.4 24.96-7.4L68.16-7.4C71.56-7.4 74.36-10.2 74.36-13.6L74.36-56.8C74.36-60.2 71.56-63 68.16-63L24.96-63Z"/>
   <path class="monochrome-1 multicolor-1:tintColor hierarchical-1:primary SFSymbolsPreviewWireframe" d="M30.06-58.9C27.76-58.9 25.96-57.1 25.96-54.8C25.96-52.5 27.76-50.7 30.06-50.7C32.36-50.7 34.16-52.5 34.16-54.8C34.16-57.1 32.36-58.9 30.06-58.9L30.06-58.9ZM46.76-49.3C46.16-49.3 45.46-49.5 44.86-49.8C42.86-50.9 42.06-53.3 43.16-55.4L43.86-56.8C44.96-58.8 47.36-59.6 49.46-58.5C51.46-57.4 52.26-55 51.16-52.9L50.46-51.5C49.76-50.1 48.26-49.3 46.76-49.3ZM32.96-23.1C32.36-23.1 31.66-23.3 31.06-23.6C29.06-24.7 28.26-27.1 29.36-29.2L30.96-32.2C32.06-34.2 34.46-35 36.56-33.9C38.56-32.8 39.36-30.4 38.26-28.3L36.66-25.3C35.86-23.9 34.46-23.1 32.96-23.1ZM39.86-36.2C39.26-36.2 38.56-36.4 37.96-36.7C35.96-37.8 35.16-40.2 36.26-42.3L37.86-45.3C38.96-47.3 41.36-48.1 43.46-47C45.46-45.9 46.26-43.5 45.16-41.4L43.56-38.4C42.76-37 41.36-36.2 39.86-36.2ZM26.96-11.6C26.36-11.6 25.66-11.8 25.06-12.1C23.06-13.2 22.26-15.6 23.36-17.7L24.06-19.1C25.16-21.1 27.56-21.9 29.66-20.8C31.66-19.7 32.46-17.3 31.36-15.2L30.66-13.8C29.86-12.4 28.46-11.6 26.96-11.6ZM48.56-17.7C47.96-17.7 47.26-17.9 46.66-18.2L43.56-19.8C41.56-20.9 40.76-23.3 41.86-25.4C42.96-27.4 45.36-28.2 47.46-27.1L50.56-25.5C52.56-24.4 53.36-22 52.26-19.9C51.46-18.5 50.06-17.7 48.56-17.7ZM62.96-10.5C62.36-10.5 61.66-10.7 61.06-11L57.96-12.6C55.96-13.7 55.16-16.1 56.26-18.2C57.36-20.2 59.76-21 61.86-19.9L64.96-18.3C66.96-17.2 67.76-14.8 66.66-12.7C65.86-11.3 64.46-10.5 62.96-10.5Z"/>
   <path class="monochrome-2 multicolor-2:tintColor hierarchical-2:primary SFSymbolsPreviewWireframe" d="M62.06-25.1L58.86-28.7C51.66-36.9 51.66-39.4 51.66-40.5C51.66-46.2 56.16-50.6 61.96-50.6C67.76-50.6 72.26-46.1 72.26-40.5C72.26-39.3 72.26-37.5 65.16-28.9L62.06-25.1Z"/>
  </g>
  <g id="Ultralight-S" transform="matrix(1 0 0 1 515.011 696)">
   <path class="monochrome-0 multicolor-0:tintColor hierarchical-0:primary SFSymbolsPreviewWireframe" d="M66.375-2.1L23.175-2.1C16.775-2.1 11.575-7.3 11.575-13.7L11.575-56.9C11.575-63.3 16.775-68.5 23.175-68.5L66.375-68.5C72.775-68.5 77.975-63.3 77.975-56.9L77.975-13.7C77.875-7.3 72.675-2.1 66.375-2.1ZM23.175-65.8C18.175-65.8 14.175-61.8 14.175-56.8L14.175-13.6C14.175-8.6 18.175-4.6 23.175-4.6L66.375-4.6C71.375-4.6 75.375-8.6 75.375-13.6L75.375-56.8C75.375-61.8 71.375-65.8 66.375-65.8L23.175-65.8Z"/>
   <path class="monochrome-1 multicolor-1:tintColor hierarchical-1:primary SFSymbolsPreviewWireframe" d="M28.275-56.3C27.375-56.3 26.675-55.6 26.675-54.7C26.675-53.8 27.375-53.1 28.275-53.1C29.175-53.1 29.875-53.8 29.875-54.7C29.875-55.6 29.175-56.3 28.275-56.3L28.275-56.3ZM45.075-52.1C44.875-52.1 44.675-52.1 44.475-52.2C43.875-52.5 43.575-53.3 43.975-53.9L44.675-55.3C44.975-55.9 45.775-56.2 46.375-55.8C46.975-55.5 47.275-54.7 46.875-54.1L46.175-52.7C45.975-52.4 45.475-52.1 45.075-52.1ZM31.275-25.9C31.075-25.9 30.875-25.9 30.675-26C30.075-26.3 29.775-27.1 30.175-27.7L31.775-30.7C32.075-31.3 32.875-31.6 33.475-31.2C34.075-30.9 34.375-30.1 33.975-29.5L32.375-26.5C32.175-26.1 31.675-25.9 31.275-25.9ZM38.175-39C37.975-39 37.775-39 37.575-39.1C36.975-39.4 36.675-40.2 37.075-40.8L38.675-43.8C38.975-44.4 39.775-44.7 40.375-44.3C40.975-44 41.275-43.2 40.875-42.6L39.275-39.6C39.075-39.3 38.575-39 38.175-39ZM25.175-14.4C24.975-14.4 24.775-14.4 24.575-14.5C23.975-14.8 23.675-15.6 24.075-16.2L24.775-17.6C25.075-18.2 25.875-18.5 26.475-18.1C27.075-17.8 27.375-17 26.975-16.4L26.275-15C26.075-14.7 25.675-14.4 25.175-14.4ZM46.775-20.6C46.575-20.6 46.375-20.6 46.175-20.7L43.075-22.3C42.475-22.6 42.175-23.4 42.575-24C42.875-24.6 43.675-24.9 44.275-24.5L47.375-22.9C47.975-22.6 48.275-21.8 47.875-21.2C47.675-20.8 47.275-20.6 46.775-20.6ZM61.175-13.4C60.975-13.4 60.775-13.4 60.575-13.5L57.475-15.1C56.875-15.4 56.575-16.2 56.975-16.8C57.275-17.4 58.075-17.7 58.675-17.3L61.775-15.7C62.375-15.4 62.675-14.6 62.275-14C62.075-13.6 61.675-13.4 61.175-13.4Z"/>
   <path class="monochrome-2 multicolor-2:tintColor hierarchical-2:primary SFSymbolsPreviewWireframe" d="M60.175-29.5L59.175-30.6C52.975-37.7 52.675-39.4 52.675-40.5C52.675-44.8 56.275-47.8 60.075-47.8C63.775-47.8 67.475-45 67.475-40.5C67.475-39.3 65.975-37 60.975-30.7L60.175-29.5Z"/>
  </g>
 </g>
</svg>
