<svg width="46" height="46" viewBox="0 0 46 46" fill="none" xmlns="http://www.w3.org/2000/svg">
<g clip-path="url(#clip0_4211_40867)">
<path d="M17.7389 41.1136L0.880327 35.3176C0.29052 35.1135 0.419069 34.2477 1.0429 34.225L27.4367 33.2344L43.6942 38.9926L17.7352 41.1174" fill="#1B90FF"/>
<path d="M13.4335 38.0093L42.0656 35.4043C43.2982 35.4043 44.2963 34.4062 44.2963 33.1736L42.1072 10.1408C42.1072 8.90829 41.1091 7.91016 39.8765 7.91016L15.7247 8.26555C14.4922 8.26555 13.7209 9.0255 13.494 9.88375L11.1462 35.7105C10.9155 37.2569 12.201 38.0055 13.4335 38.0055V38.0093Z" fill="#00144A"/>
<path d="M43.3094 14.3594L45.4909 36.7343C45.6006 37.8572 44.7839 38.8894 43.6988 38.9877L19.1122 41.2788C17.3617 41.4414 15.891 40.2353 15.77 38.5264L14.0762 15.1836L43.3094 14.3594Z" fill="#56BDFF"/>
<path d="M42.6771 9.04303L43.2971 14.3626L14.1168 15.6708L13.5081 10.3625C13.3682 9.05815 14.4722 7.92012 15.8711 7.91256L40.8131 7.39459C41.7584 7.38703 42.5674 8.10538 42.6733 9.04303H42.6771Z" fill="#0899A7"/>
<path d="M35.2896 12.5399C34.4692 12.5588 33.7811 11.916 33.7584 11.1032C33.7357 10.2903 34.386 9.62868 35.2027 9.61734C36.0193 9.606 36.6961 10.245 36.7226 11.0464C36.749 11.848 36.1063 12.521 35.2896 12.5399Z" fill="#00144A"/>
<path d="M22.5602 12.861C21.683 12.8799 20.9647 12.2145 20.9533 11.379C20.942 10.5434 21.649 9.85523 22.5224 9.84389C23.3957 9.83255 24.1027 10.4904 24.1141 11.3222C24.1254 12.154 23.4298 12.8459 22.5602 12.8648V12.861Z" fill="#00144A"/>
<path d="M34.1787 12.0889C34.1787 12.0889 33.967 11.915 33.8535 11.6012C33.7174 11.2269 33.7666 10.9547 33.7666 10.9547C34.7874 10.9547 35.3734 10.3384 35.2411 8.327C35.1579 7.01505 34.8025 6.20974 34.4925 5.99423C34.4169 5.94508 34.3261 5.90349 34.1447 5.9602C33.7363 6.08497 33.5284 7.11713 33.5851 7.54437L32.4131 7.57083C32.379 5.81275 33.1957 4.96963 33.7817 4.78815C34.2883 4.63313 34.7723 4.70119 35.1882 4.98475C36.1598 5.65395 36.4056 7.31752 36.4661 8.2476C36.5379 9.38563 36.4358 11.7827 34.1825 12.0889H34.1787Z" fill="#046C7C"/>
<path d="M21.3934 12.4014C21.3934 12.4014 21.1741 12.2275 21.0607 11.9137C20.9246 11.5394 20.9586 11.2672 20.9586 11.2672C21.9794 11.2672 22.5806 10.6509 22.4482 8.63949C22.3651 7.32755 22.0097 6.52223 21.6996 6.30672C21.624 6.25757 21.5333 6.21598 21.3518 6.2727C20.9435 6.39746 20.7317 7.38048 20.7885 7.80771L19.6202 7.83039C19.5862 6.07231 20.4028 5.28212 20.9888 5.10064C21.4955 4.94563 21.9794 5.01368 22.3953 5.29724C23.367 5.96645 23.6127 7.63001 23.6732 8.56009C23.745 9.69812 23.6505 12.0952 21.3972 12.4014H21.3934Z" fill="#046C7C"/>
<path d="M14.7181 24.4336L14.6387 23.3032L24.1664 22.6339L23.5879 15.2689L24.7184 15.1782L25.3006 22.5546L34.8812 21.8816L34.2952 14.7547L35.4256 14.6602L36.0117 21.8022L43.9211 21.2464L44.0005 22.3769L36.1024 22.9289L36.6809 29.9876L44.4958 29.4394L44.5752 30.5699L36.7754 31.1181L37.4673 39.572L36.3368 39.6666L35.6411 31.1975L26.0303 31.8705L26.7146 40.574L25.5842 40.6647L24.8999 31.9499L15.289 32.6229L15.2096 31.4924L24.8091 30.8194L24.2533 23.7606L14.7143 24.4298L14.7181 24.4336ZM25.9434 30.7438L35.5504 30.0708L34.9719 23.012L25.3876 23.685L25.9434 30.7438Z" fill="white"/>
</g>
<defs>
<clipPath id="clip0_4211_40867">
<rect width="45" height="45" fill="white" transform="translate(0.5 0.5)"/>
</clipPath>
</defs>
</svg>
