<svg width="189" height="181" viewBox="0 0 189 181" fill="none" xmlns="http://www.w3.org/2000/svg">
<path d="M79.3943 161.789C123.243 161.789 158.789 126.243 158.789 82.3943C158.789 38.546 123.243 3 79.3943 3C35.546 3 0 38.546 0 82.3943C0 126.243 35.546 161.789 79.3943 161.789Z" fill="#223548"/>
<path d="M105.777 19.0182L56.1169 9.07575C54.0115 8.65422 51.9647 10.0228 51.5453 12.1325L37.1527 84.5321C36.7333 86.6419 38.1001 88.6939 40.2055 89.1154L89.8657 99.0578C91.9711 99.4793 94.0179 98.1108 94.4373 96.001L108.83 23.6014C109.249 21.4917 107.883 19.4397 105.777 19.0182Z" fill="#2A4259"/>
<path d="M77.4605 24.0194C75.8091 23.6023 74.0716 23.6852 72.4678 24.2577C70.864 24.8301 69.4658 25.8664 68.4501 27.2354C67.4343 28.6045 66.8467 30.2448 66.7613 31.9491C66.676 33.6534 67.0968 35.3451 67.9707 36.8103C68.8445 38.2754 70.132 39.4483 71.6705 40.1806C73.209 40.9129 74.9294 41.1717 76.6141 40.9243C78.2988 40.677 79.8722 39.9345 81.1353 38.7908C82.3985 37.6471 83.2947 36.1536 83.7106 34.4991L75.3556 32.392L77.4605 24.0194Z" fill="#223548"/>
<path d="M79.8408 22.5062L77.7421 30.8706L86.0899 32.9785C86.3661 31.8801 86.4235 30.7378 86.2588 29.6169C86.0942 28.4959 85.7108 27.4184 85.1304 26.4458C84.55 25.4732 83.7841 24.6246 82.8765 23.9487C81.9689 23.2727 80.9373 22.7825 79.8408 22.5062Z" fill="#324E6B"/>
<path d="M90.2202 50.03L55.6149 43.1017C54.4668 42.8719 53.3507 43.6181 53.122 44.7685C52.8934 45.9189 53.6386 47.0378 54.7867 47.2677L89.392 54.196C90.5401 54.4258 91.6562 53.6796 91.8849 52.5292C92.1136 51.3788 91.3683 50.2599 90.2202 50.03Z" fill="#223548"/>
<path d="M88.2612 57.1492L53.6559 50.2209C52.5079 49.991 51.3918 50.7373 51.1631 51.8877C50.9344 53.0381 51.6797 54.157 52.8278 54.3869L87.433 61.3152C88.5811 61.545 89.6972 60.7987 89.9259 59.6484C90.1546 58.498 89.4093 57.379 88.2612 57.1492Z" fill="#223548"/>
<path d="M70.2653 60.8923L51.8297 57.2013C50.6817 56.9715 49.5656 57.7177 49.3369 58.8681C49.1082 60.0185 49.8535 61.1374 51.0016 61.3672L69.4371 65.0582C70.5852 65.288 71.7013 64.5419 71.93 63.3915C72.1587 62.2411 71.4133 61.1221 70.2653 60.8923Z" fill="#223548"/>
<path fill-rule="evenodd" clip-rule="evenodd" d="M108.269 156.376C135.133 145.884 154.881 121.182 158.272 91.51L126.58 71.1218C124.774 69.9601 122.364 70.4836 121.198 72.291L81.1771 134.316C80.0109 136.124 80.5294 138.531 82.3352 139.693L108.269 156.376Z" fill="#2A4259"/>
<path fill-rule="evenodd" clip-rule="evenodd" d="M146.353 110.937C146.832 111.725 146.582 112.752 145.794 113.23L125.212 125.743C124.726 126.038 124.123 126.066 123.612 125.817C123.102 125.568 122.753 125.076 122.686 124.511L121.488 114.292L104.479 123.935C103.677 124.389 102.659 124.108 102.204 123.306C101.749 122.504 102.031 121.485 102.833 121.03L122.029 110.147C122.516 109.871 123.109 109.857 123.607 110.11C124.106 110.363 124.446 110.849 124.511 111.404L125.699 121.539L144.06 110.378C144.848 109.899 145.875 110.149 146.353 110.937Z" fill="#324E6B"/>
<path d="M121.957 87.5316C122.207 87.1442 122.723 87.0326 123.111 87.2824L125.233 88.6506C125.62 88.9004 125.732 89.417 125.482 89.8045L103.82 123.402C103.57 123.789 103.054 123.901 102.666 123.651L100.544 122.283C100.157 122.033 100.045 121.516 100.295 121.129L121.957 87.5316Z" fill="#223548"/>
<path fill-rule="evenodd" clip-rule="evenodd" d="M133.904 140.119L102.16 119.858C101.771 119.61 101.255 119.724 101.007 120.113L99.6486 122.241C99.4006 122.63 99.5146 123.146 99.9032 123.394L130.658 143.022C131.766 142.084 132.849 141.116 133.904 140.119Z" fill="#223548"/>
<path d="M95.4106 130.246C95.9003 129.465 96.935 129.221 97.7162 129.711L114.078 139.968C114.859 140.457 115.091 141.495 114.601 142.276C114.111 143.057 113.077 143.3 112.296 142.811L95.9339 132.554C95.1528 132.064 94.921 131.027 95.4106 130.246Z" fill="#223548"/>
<path d="M126.007 35.1744C126.007 33.9855 122.556 33.0339 117.945 32.8177C117.681 28.2126 116.666 24.7884 115.477 24.791C114.288 24.7937 113.299 28.2442 113.046 32.8731C108.422 33.1894 104.984 34.2227 105 35.4142C105.016 36.6057 108.451 37.5573 113.062 37.7709C113.339 42.376 114.341 45.8002 115.527 45.7976C116.713 45.7949 117.707 42.3444 117.96 37.7155C122.585 37.3992 126.02 36.3659 126.007 35.1744Z" fill="#F58B00"/>
<path d="M143.01 56.6876C143.01 55.9214 140.786 55.3082 137.815 55.1689C137.645 52.2011 136.991 49.9944 136.224 49.9961C135.458 49.9978 134.821 52.2215 134.658 55.2045C131.678 55.4084 129.462 56.0743 129.473 56.8422C129.483 57.61 131.697 58.2233 134.668 58.3609C134.847 61.3286 135.492 63.5354 136.257 63.5337C137.021 63.532 137.662 61.3083 137.825 58.3252C140.805 58.1213 143.019 57.4554 143.01 56.6876Z" fill="#F58B00"/>
<path d="M7.45898 56.7098C7.45898 52.8132 10.6179 49.6543 14.5145 49.6543H88.3217L107.743 65.7563V140.452C107.743 144.349 104.585 147.508 100.688 147.508H14.5145C10.6179 147.508 7.45898 144.349 7.45898 140.452V56.7098Z" fill="#B9C1C6"/>
<path d="M3.93164 51.7714C3.93164 48.6541 6.45874 46.127 9.57607 46.127H84.0181L104.216 63.0434V138.336C104.216 141.453 101.689 143.981 98.5716 143.981H9.57607C6.45874 143.981 3.93164 141.453 3.93164 138.336V51.7714Z" fill="#CEDBE8"/>
<path d="M83.9092 62.8906L104.216 66.9858V62.8906H83.9092Z" fill="white"/>
<path d="M83.9092 62.89H104.216L83.9092 46.127V62.89Z" fill="#B9C1C6"/>
<rect x="15.9902" y="74.2676" width="76.1684" height="58.7705" rx="4.09664" fill="#223548"/>
<path fill-rule="evenodd" clip-rule="evenodd" d="M54.4541 119.745V105.387H56.5024V119.745C56.5024 119.933 56.6553 120.086 56.8438 120.086H70.5297V122.134H56.8438C55.524 122.134 54.4541 121.064 54.4541 119.745Z" fill="#3B5B7C"/>
<path fill-rule="evenodd" clip-rule="evenodd" d="M30.6079 101.328L30.6079 88.6152L32.6562 88.6152L32.6562 101.328L30.6079 101.328Z" fill="#3B5B7C"/>
<path fill-rule="evenodd" clip-rule="evenodd" d="M32.6562 103.01H78.7373V105.059H32.6562V103.01Z" fill="#3B5B7C"/>
<rect x="22.5381" y="82.3184" width="22.115" height="8.69347" rx="1.36567" fill="#1782FF"/>
<rect x="23.4355" y="99.2734" width="16.2258" height="8.43594" rx="1.36567" fill="#4098FF"/>
<rect x="70.3291" y="99.2734" width="15.2807" height="8.43594" rx="1.36567" fill="#4098FF"/>
<rect x="63.5107" y="116.551" width="21.9985" height="8.43594" rx="1.36567" fill="#F58B00"/>
<rect x="55.1748" y="96.0977" width="10.8233" height="10.8233" rx="1.36567" transform="rotate(45 55.1748 96.0977)" fill="#0070F3"/>
<path d="M30.9106 57.0664H17.7846C16.8999 57.0664 16.1826 57.7836 16.1826 58.6684C16.1826 59.5532 16.8999 60.2704 17.7846 60.2704H30.9106C31.7954 60.2704 32.5126 59.5532 32.5126 58.6684C32.5126 57.7836 31.7954 57.0664 30.9106 57.0664Z" fill="#0070F3"/>
<path d="M43.9429 63.291H17.5403C16.7905 63.291 16.1826 63.8989 16.1826 64.6487C16.1826 65.3985 16.7905 66.0064 17.5403 66.0064H43.9429C44.6927 66.0064 45.3006 65.3985 45.3006 64.6487C45.3006 63.8989 44.6927 63.291 43.9429 63.291Z" fill="#1782FF"/>
</svg>
