<?xml version="1.0" encoding="UTF-8"?>
<!--Generator: Apple Native CoreSVG 341-->
<!DOCTYPE svg
PUBLIC "-//W3C//DTD SVG 1.1//EN"
       "http://www.w3.org/Graphics/SVG/1.1/DTD/svg11.dtd">
<svg version="1.1" xmlns="http://www.w3.org/2000/svg" xmlns:xlink="http://www.w3.org/1999/xlink" viewBox="0 0 3300 2200">
 <!--glyph: "", point size: 100.0, font version: "21.0d4e1", template writer version: "138.0.0"-->
 <style>.defaults {-sfsymbols-draw-reverses-motion-groups:true}

.monochrome-0 {-sfsymbols-motion-group:3;-sfsymbols-layer-tags:37eaebb1a68e43f6}
.monochrome-1 {-sfsymbols-motion-group:2;-sfsymbols-layer-tags:37eaebb1a68e43f6}
.monochrome-2 {-sfsymbols-motion-group:1;-sfsymbols-layer-tags:37eaebb1a68e43f6}
.monochrome-3 {-sfsymbols-motion-group:0;-sfsymbols-layer-tags:37eaebb1a68e43f6}

.multicolor-0:tintColor {-sfsymbols-motion-group:3;-sfsymbols-layer-tags:37eaebb1a68e43f6}
.multicolor-1:tintColor {-sfsymbols-motion-group:2;-sfsymbols-layer-tags:37eaebb1a68e43f6}
.multicolor-2:tintColor {-sfsymbols-motion-group:1;-sfsymbols-layer-tags:37eaebb1a68e43f6}
.multicolor-3:tintColor {-sfsymbols-motion-group:0;-sfsymbols-layer-tags:37eaebb1a68e43f6}

.hierarchical-0:primary {-sfsymbols-motion-group:3;-sfsymbols-layer-tags:37eaebb1a68e43f6}
.hierarchical-1:primary {-sfsymbols-motion-group:2;-sfsymbols-layer-tags:37eaebb1a68e43f6}
.hierarchical-2:primary {-sfsymbols-motion-group:1;-sfsymbols-layer-tags:37eaebb1a68e43f6}
.hierarchical-3:primary {-sfsymbols-motion-group:0;-sfsymbols-layer-tags:37eaebb1a68e43f6}

.SFSymbolsPreviewWireframe {fill:none;opacity:1.0;stroke:black;stroke-width:0.5}
</style>
 <g id="Notes">
  <rect height="2200" id="artboard" style="fill:white;opacity:1" width="3300" x="0" y="0"/>
  <line style="fill:none;stroke:black;opacity:1;stroke-width:0.5;" x1="263" x2="3036" y1="292" y2="292"/>
  <text style="stroke:none;fill:black;font-family:sans-serif;font-size:13;font-weight:bold;" transform="matrix(1 0 0 1 263 322)">Weight/Scale Variations</text>
  <text style="stroke:none;fill:black;font-family:sans-serif;font-size:13;text-anchor:middle;" transform="matrix(1 0 0 1 559.711 322)">Ultralight</text>
  <text style="stroke:none;fill:black;font-family:sans-serif;font-size:13;text-anchor:middle;" transform="matrix(1 0 0 1 856.422 322)">Thin</text>
  <text style="stroke:none;fill:black;font-family:sans-serif;font-size:13;text-anchor:middle;" transform="matrix(1 0 0 1 1153.13 322)">Light</text>
  <text style="stroke:none;fill:black;font-family:sans-serif;font-size:13;text-anchor:middle;" transform="matrix(1 0 0 1 1449.84 322)">Regular</text>
  <text style="stroke:none;fill:black;font-family:sans-serif;font-size:13;text-anchor:middle;" transform="matrix(1 0 0 1 1746.56 322)">Medium</text>
  <text style="stroke:none;fill:black;font-family:sans-serif;font-size:13;text-anchor:middle;" transform="matrix(1 0 0 1 2043.27 322)">Semibold</text>
  <text style="stroke:none;fill:black;font-family:sans-serif;font-size:13;text-anchor:middle;" transform="matrix(1 0 0 1 2339.98 322)">Bold</text>
  <text style="stroke:none;fill:black;font-family:sans-serif;font-size:13;text-anchor:middle;" transform="matrix(1 0 0 1 2636.69 322)">Heavy</text>
  <text style="stroke:none;fill:black;font-family:sans-serif;font-size:13;text-anchor:middle;" transform="matrix(1 0 0 1 2933.4 322)">Black</text>
  <line style="fill:none;stroke:black;opacity:1;stroke-width:0.5;" x1="263" x2="3036" y1="1903" y2="1903"/>
  <g transform="matrix(0.2 0 0 0.2 263 1933)">
   <path d="m46.2402 4.15039c21.7773 0 39.4531-17.627 39.4531-39.4043s-17.6758-39.4043-39.4531-39.4043c-21.7285 0-39.4043 17.627-39.4043 39.4043s17.6758 39.4043 39.4043 39.4043Zm0-7.42188c-17.6758 0-31.9336-14.3066-31.9336-31.9824s14.2578-31.9824 31.9336-31.9824 31.9824 14.3066 31.9824 31.9824-14.3066 31.9824-31.9824 31.9824Zm3.61328-17.7734v-28.4668c0-2.24609-1.46484-3.75977-3.71094-3.75977-2.14844 0-3.61328 1.51367-3.61328 3.75977v28.4668c0 2.19727 1.46484 3.71094 3.61328 3.71094 2.24609 0 3.71094-1.51367 3.71094-3.71094Zm-17.8223-10.5957h28.418c2.19727 0 3.71094-1.46484 3.71094-3.61328 0-2.19727-1.51367-3.71094-3.71094-3.71094h-28.418c-2.24609 0-3.75977 1.51367-3.75977 3.71094 0 2.14844 1.51367 3.61328 3.75977 3.61328Z"/>
  </g>
  <g transform="matrix(0.2 0 0 0.2 281.506 1933)">
   <path d="m58.5449 14.5508c27.4902 0 49.8047-22.3145 49.8047-49.8047s-22.3145-49.8047-49.8047-49.8047-49.8047 22.3145-49.8047 49.8047 22.3145 49.8047 49.8047 49.8047Zm0-8.30078c-22.9492 0-41.5039-18.5547-41.5039-41.5039s18.5547-41.5039 41.5039-41.5039 41.5039 18.5547 41.5039 41.5039-18.5547 41.5039-41.5039 41.5039Zm4.05273-23.0957v-36.9141c0-2.49023-1.70898-4.19922-4.15039-4.19922-2.39258 0-4.05273 1.70898-4.05273 4.19922v36.9141c0 2.44141 1.66016 4.15039 4.05273 4.15039 2.44141 0 4.15039-1.66016 4.15039-4.15039Zm-22.5586-14.4043h36.9629c2.44141 0 4.15039-1.61133 4.15039-4.00391 0-2.44141-1.70898-4.15039-4.15039-4.15039h-36.9629c-2.49023 0-4.15039 1.70898-4.15039 4.15039 0 2.39258 1.66016 4.00391 4.15039 4.00391Z"/>
  </g>
  <g transform="matrix(0.2 0 0 0.2 304.924 1933)">
   <path d="m74.8535 28.3203c35.1074 0 63.623-28.4668 63.623-63.5742s-28.5156-63.623-63.623-63.623-63.5742 28.5156-63.5742 63.623 28.4668 63.5742 63.5742 63.5742Zm0-9.08203c-30.127 0-54.4922-24.3652-54.4922-54.4922s24.3652-54.4922 54.4922-54.4922 54.4922 24.3652 54.4922 54.4922-24.3652 54.4922-54.4922 54.4922Zm4.44336-30.3223v-48.4863c0-2.73438-1.85547-4.63867-4.54102-4.63867-2.58789 0-4.44336 1.9043-4.44336 4.63867v48.4863c0 2.68555 1.85547 4.58984 4.44336 4.58984 2.68555 0 4.54102-1.85547 4.54102-4.58984Zm-28.7109-19.7754h48.4863c2.68555 0 4.58984-1.80664 4.58984-4.39453 0-2.73438-1.85547-4.58984-4.58984-4.58984h-48.4863c-2.73438 0-4.58984 1.85547-4.58984 4.58984 0 2.58789 1.85547 4.39453 4.58984 4.39453Z"/>
  </g>
  <text style="stroke:none;fill:black;font-family:sans-serif;font-size:13;font-weight:bold;" transform="matrix(1 0 0 1 263 1953)">Design Variations</text>
  <text style="stroke:none;fill:black;font-family:sans-serif;font-size:13;" transform="matrix(1 0 0 1 263 1971)">Symbols are supported in up to nine weights and three scales.</text>
  <text style="stroke:none;fill:black;font-family:sans-serif;font-size:13;" transform="matrix(1 0 0 1 263 1989)">For optimal layout with text and other symbols, vertically align</text>
  <text style="stroke:none;fill:black;font-family:sans-serif;font-size:13;" transform="matrix(1 0 0 1 263 2007)">symbols with the adjacent text.</text>
  <line style="fill:none;stroke:#00AEEF;stroke-width:0.5;opacity:1.0;" x1="776" x2="776" y1="1919" y2="1933"/>
  <g transform="matrix(0.2 0 0 0.2 776 1933)">
   <path d="m16.5527 0.78125c2.58789 0 3.85742-0.976562 4.78516-3.71094l20.5566-57.5195h0.244141l20.6055 57.5195c0.927734 2.73438 2.19727 3.71094 4.73633 3.71094 2.58789 0 4.24805-1.5625 4.24805-4.00391 0-0.830078-0.146484-1.61133-0.537109-2.63672l-22.9004-60.9863c-1.12305-2.97852-3.125-4.49219-6.25-4.49219-3.02734 0-5.07812 1.46484-6.15234 4.44336l-22.9004 61.084c-0.390625 1.02539-0.537109 1.80664-0.537109 2.63672 0 2.44141 1.5625 3.95508 4.10156 3.95508Zm10.2051-20.9473h30.6641c2.00195 0 3.66211-1.66016 3.66211-3.66211 0-2.05078-1.66016-3.66211-3.66211-3.66211h-30.6641c-2.00195 0-3.66211 1.61133-3.66211 3.66211 0 2.00195 1.66016 3.66211 3.66211 3.66211Z"/>
  </g>
  <line style="fill:none;stroke:#00AEEF;stroke-width:0.5;opacity:1.0;" x1="792.836" x2="792.836" y1="1919" y2="1933"/>
  <text style="stroke:none;fill:black;font-family:sans-serif;font-size:13;font-weight:bold;" transform="matrix(1 0 0 1 776 1953)">Margins</text>
  <text style="stroke:none;fill:black;font-family:sans-serif;font-size:13;" transform="matrix(1 0 0 1 776 1971)">Leading and trailing margins on the left and right side of each symbol</text>
  <text style="stroke:none;fill:black;font-family:sans-serif;font-size:13;" transform="matrix(1 0 0 1 776 1989)">can be adjusted by modifying the x-location of the margin guidelines.</text>
  <text style="stroke:none;fill:black;font-family:sans-serif;font-size:13;" transform="matrix(1 0 0 1 776 2007)">Modifications are automatically applied proportionally to all</text>
  <text style="stroke:none;fill:black;font-family:sans-serif;font-size:13;" transform="matrix(1 0 0 1 776 2025)">scales and weights.</text>
  <g transform="matrix(0.2 0 0 0.2 1289 1933)">
   <path d="m14.209 13.1348 7.86133 7.86133c4.29688 4.39453 9.32617 4.10156 13.8672-1.02539l60.6934-68.2129-4.88281-4.88281-60.2539 67.6758c-1.80664 1.95312-3.4668 2.44141-5.81055 0.0976562l-5.17578-5.12695c-2.29492-2.29492-1.80664-3.95508 0.195312-5.81055l67.4805-62.1582-4.88281-4.83398-68.0664 62.5977c-4.98047 4.58984-5.32227 9.47266-1.02539 13.8184Zm44.873-97.4609c-2.05078 2.00195-2.24609 4.88281-1.07422 6.78711 1.12305 1.80664 3.4668 3.02734 6.5918 2.24609 5.85938-1.66016 12.5977-2.39258 18.8965 0.927734l-2.68555 7.12891c-1.61133 4.00391-0.732422 6.88477 1.70898 9.42383l10.2539 10.3027c2.34375 2.39258 4.54102 2.44141 7.08008 1.95312l4.44336-0.732422 2.58789 2.53906-0.195312 2.24609c-0.0976562 2.29492 0.537109 4.29688 2.7832 6.49414l3.36914 3.32031c2.29492 2.29492 5.51758 2.49023 7.8125 0.195312l12.9883-13.0371c2.29492-2.34375 2.14844-5.37109-0.195312-7.66602l-3.41797-3.41797c-2.19727-2.19727-4.05273-3.02734-6.34766-2.88086l-2.34375 0.244141-2.44141-2.44141 1.02539-4.6875c0.634766-2.73438-0.244141-4.98047-2.88086-7.61719l-11.2793-11.1816c-12.9395-12.8418-35.5957-11.0352-46.6797-0.146484Zm7.08008 2.05078c8.78906-6.39648 25.9766-5.66406 33.6914 1.95312l12.3047 12.207c1.02539 1.02539 1.2207 1.80664 0.927734 3.32031l-1.46484 6.64062 6.73828 6.68945 4.39453-0.244141c1.12305-0.0488281 1.51367 0.0488281 2.34375 0.878906l2.53906 2.49023-10.8398 10.8398-2.49023-2.49023c-0.830078-0.878906-0.976562-1.2207-0.927734-2.39258l0.292969-4.3457-6.68945-6.73828-6.83594 1.17188c-1.41602 0.292969-2.05078 0.195312-3.17383-0.878906l-8.93555-8.88672c-1.07422-1.02539-1.17188-1.70898-0.488281-3.36914l4.58984-11.4746c-6.10352-6.34766-17.041-7.51953-25.5859-4.58984-0.683594 0.244141-0.927734-0.390625-0.390625-0.78125Z"/>
  </g>
  <text style="stroke:none;fill:black;font-family:sans-serif;font-size:13;font-weight:bold;" transform="matrix(1 0 0 1 1289 1953)">Exporting</text>
  <text style="stroke:none;fill:black;font-family:sans-serif;font-size:13;" transform="matrix(1 0 0 1 1289 1971)">Symbols should be outlined when exporting to ensure the</text>
  <text style="stroke:none;fill:black;font-family:sans-serif;font-size:13;" transform="matrix(1 0 0 1 1289 1989)">design is preserved when submitting to Xcode.</text>
  <text id="template-version" style="stroke:none;fill:black;font-family:sans-serif;font-size:13;text-anchor:end;" transform="matrix(1 0 0 1 3036 1933)">Template v.5.0</text>
  <text style="stroke:none;fill:black;font-family:sans-serif;font-size:13;text-anchor:end;" transform="matrix(1 0 0 1 3036 1951)">Requires Xcode 15 or greater</text>
  <text id="descriptive-name" style="stroke:none;fill:black;font-family:sans-serif;font-size:13;text-anchor:end;" transform="matrix(1 0 0 1 3036 1969)">Generated from fiori.business.one</text>
  <text style="stroke:none;fill:black;font-family:sans-serif;font-size:13;text-anchor:end;" transform="matrix(1 0 0 1 3036 1987)">Typeset at 100.0 points</text>
  <text style="stroke:none;fill:black;font-family:sans-serif;font-size:13;" transform="matrix(1 0 0 1 263 726)">Small</text>
  <text style="stroke:none;fill:black;font-family:sans-serif;font-size:13;" transform="matrix(1 0 0 1 263 1156)">Medium</text>
  <text style="stroke:none;fill:black;font-family:sans-serif;font-size:13;" transform="matrix(1 0 0 1 263 1586)">Large</text>
 </g>
 <g id="Guides">
  <g id="H-reference" style="fill:#27AAE1;stroke:none;" transform="matrix(1 0 0 1 339 696)">
   <path d="M0.993654 0L3.63775 0L29.3281-67.1323L30.0303-67.1323L30.0303-70.459L28.1226-70.459ZM11.6885-24.4799L46.9815-24.4799L46.2315-26.7285L12.4385-26.7285ZM55.1196 0L57.7637 0L30.6382-70.459L29.4326-70.459L29.4326-67.1323Z"/>
  </g>
  <line id="Baseline-S" style="fill:none;stroke:#27AAE1;opacity:1;stroke-width:0.5;" x1="263" x2="3036" y1="696" y2="696"/>
  <line id="Capline-S" style="fill:none;stroke:#27AAE1;opacity:1;stroke-width:0.5;" x1="263" x2="3036" y1="625.541" y2="625.541"/>
  <g id="H-reference" style="fill:#27AAE1;stroke:none;" transform="matrix(1 0 0 1 339 1126)">
   <path d="M0.993654 0L3.63775 0L29.3281-67.1323L30.0303-67.1323L30.0303-70.459L28.1226-70.459ZM11.6885-24.4799L46.9815-24.4799L46.2315-26.7285L12.4385-26.7285ZM55.1196 0L57.7637 0L30.6382-70.459L29.4326-70.459L29.4326-67.1323Z"/>
  </g>
  <line id="Baseline-M" style="fill:none;stroke:#27AAE1;opacity:1;stroke-width:0.5;" x1="263" x2="3036" y1="1126" y2="1126"/>
  <line id="Capline-M" style="fill:none;stroke:#27AAE1;opacity:1;stroke-width:0.5;" x1="263" x2="3036" y1="1055.54" y2="1055.54"/>
  <g id="H-reference" style="fill:#27AAE1;stroke:none;" transform="matrix(1 0 0 1 339 1556)">
   <path d="M0.993654 0L3.63775 0L29.3281-67.1323L30.0303-67.1323L30.0303-70.459L28.1226-70.459ZM11.6885-24.4799L46.9815-24.4799L46.2315-26.7285L12.4385-26.7285ZM55.1196 0L57.7637 0L30.6382-70.459L29.4326-70.459L29.4326-67.1323Z"/>
  </g>
  <line id="Baseline-L" style="fill:none;stroke:#27AAE1;opacity:1;stroke-width:0.5;" x1="263" x2="3036" y1="1556" y2="1556"/>
  <line id="Capline-L" style="fill:none;stroke:#27AAE1;opacity:1;stroke-width:0.5;" x1="263" x2="3036" y1="1485.54" y2="1485.54"/>
  <line id="right-margin-Black-S" style="fill:none;stroke:#00AEEF;stroke-width:0.5;opacity:1.0;" x1="2981.9" x2="2981.9" y1="600.785" y2="720.121"/>
  <line id="left-margin-Black-S" style="fill:none;stroke:#00AEEF;stroke-width:0.5;opacity:1.0;" x1="2884.9" x2="2884.9" y1="600.785" y2="720.121"/>
  <line id="right-margin-Regular-S" style="fill:none;stroke:#00AEEF;stroke-width:0.5;opacity:1.0;" x1="1496.29" x2="1496.29" y1="600.785" y2="720.121"/>
  <line id="left-margin-Regular-S" style="fill:none;stroke:#00AEEF;stroke-width:0.5;opacity:1.0;" x1="1403.39" x2="1403.39" y1="600.785" y2="720.121"/>
  <line id="right-margin-Ultralight-S" style="fill:none;stroke:#00AEEF;stroke-width:0.5;opacity:1.0;" x1="604.411" x2="604.411" y1="600.785" y2="720.121"/>
  <line id="left-margin-Ultralight-S" style="fill:none;stroke:#00AEEF;stroke-width:0.5;opacity:1.0;" x1="515.011" x2="515.011" y1="600.785" y2="720.121"/>
 </g>
 <g id="Symbols">
  <g id="Black-S" transform="matrix(1 0 0 1 2884.9 696)">
   <path class="monochrome-0 multicolor-0:tintColor hierarchical-0:primary SFSymbolsPreviewWireframe" d="M74.81-21.9L71.11-21.9C70.91-21.9 70.51-22.2 70.51-22.5C70.51-22.9 71.01-23.1 71.11-23.1L80.41-23.1C82.71-23.1 85.41-24.8 85.41-28.1C85.41-30.4 83.61-33.1 80.41-33.1L77.91-33.1L77.91-36.2C77.91-38.5 76.11-41.2 72.91-41.2C69.71-41.2 67.91-38.5 67.91-36.2L67.91-32.6C63.71-31.5 60.51-27 60.51-22.5C60.51-16.4 65.81-11.9 71.01-11.9L74.71-11.9C75.01-11.9 75.31-11.6 75.31-11.3C75.31-10.9 74.81-10.7 74.71-10.7L65.41-10.7C62.51-10.7 60.41-8.3 60.41-5.7C60.41-2.9 62.71-0.7 65.41-0.7L68.01-0.7L68.01 1.8C68.01 4.1 69.81 6.8 73.01 6.8C75.71 6.8 78.01 4.6 78.01 1.8L78.01-1.2C82.21-2.3 85.41-6.8 85.41-11.3C85.31-16.6 80.91-21.9 74.81-21.9Z"/>
   <path class="monochrome-1 multicolor-1:tintColor hierarchical-1:primary SFSymbolsPreviewWireframe" d="M11.51 1.6C8.81 1.6 6.51-0.6 6.51-3.4L6.51-15.7C6.51-18.4 8.71-20.7 11.51-20.7C14.31-20.7 16.51-18.5 16.51-15.7L16.51-3.4C16.41-0.6 14.21 1.6 11.51 1.6ZM26.91 1.6C24.21 1.6 21.91-0.6 21.91-3.4L21.91-31.2C21.91-33.9 24.11-36.2 26.91-36.2C29.71-36.2 31.91-34 31.91-31.2L31.91-3.4C31.91-0.6 29.61 1.6 26.91 1.6ZM44.41 1.6C41.71 1.6 39.41-0.6 39.41-3.4L39.41-20.9C39.41-23.6 41.61-25.9 44.41-25.9C47.21-25.9 49.41-23.7 49.41-20.9L49.41-3.4C49.31-0.6 47.11 1.6 44.41 1.6Z"/>
   <path class="monochrome-2 multicolor-2:tintColor hierarchical-2:primary SFSymbolsPreviewWireframe" d="M85.51-62.2L73.21-62.2C70.51-62.2 68.21-64.4 68.21-67.2C68.21-70 70.41-72.2 73.21-72.2L85.51-72.2C88.21-72.2 90.51-70 90.51-67.2C90.51-64.4 88.21-62.2 85.51-62.2ZM58.81-60.1C55.41-60.1 52.81-62.7 52.81-66.1C52.81-69.5 55.41-72.1 58.81-72.1C62.21-72.1 64.81-69.5 64.81-66.1C64.81-62.7 62.11-60.1 58.81-60.1ZM85.51-46.7L73.21-46.7C70.51-46.7 68.21-48.9 68.21-51.7C68.21-54.5 70.41-56.7 73.21-56.7L85.51-56.7C88.21-56.7 90.51-54.5 90.51-51.7C90.51-48.9 88.21-46.7 85.51-46.7ZM58.81-44.7C55.41-44.7 52.81-47.3 52.81-50.7C52.81-54.1 55.41-56.7 58.81-56.7C62.21-56.7 64.81-54.1 64.81-50.7C64.81-47.3 62.11-44.7 58.81-44.7Z"/>
   <path class="monochrome-3 multicolor-3:tintColor hierarchical-3:primary SFSymbolsPreviewWireframe" d="M21.81-49.8C20.51-49.8 19.31-50.3 18.31-51.3C16.41-53.2 16.41-56.4 18.31-58.3L35.81-75.8C37.71-77.7 40.91-77.7 42.81-75.8C44.71-73.9 44.71-70.7 42.81-68.8L25.31-51.3C24.31-50.3 23.01-49.8 21.81-49.8ZM12.51-39.5L6.51-39.5L6.51-45.5C6.51-48.9 9.11-51.5 12.51-51.5C15.91-51.5 18.51-48.9 18.51-45.5C18.51-42.2 15.91-39.5 12.51-39.5Z"/>
  </g>
  <g id="Regular-S" transform="matrix(1 0 0 1 1403.39 696)">
   <path class="monochrome-0 multicolor-0:tintColor hierarchical-0:primary SFSymbolsPreviewWireframe" d="M72.76-21.1L69.06-21.1C68.36-21.1 67.56-21.9 67.56-22.6C67.56-23.3 68.36-24.1 69.06-24.1L78.36-24.1C80.66-24.1 82.46-25.9 82.46-28.2C82.46-30.5 80.66-32.3 78.36-32.3L75.06-32.3L75.06-36.3C75.06-38.6 73.26-40.4 70.96-40.4C68.66-40.4 66.86-38.6 66.86-36.3L66.86-32C62.66-30.9 59.46-27.1 59.46-22.6C59.46-17.3 63.86-12.9 69.16-12.9L72.86-12.9C73.56-12.9 74.36-12.1 74.36-11.4C74.36-10.7 73.56-9.9 72.86-9.9L63.56-9.9C61.26-9.9 59.46-8.1 59.46-5.8C59.46-3.5 61.26-1.7 63.56-1.7L66.86-1.7L66.86 1.7C66.86 4 68.66 5.8 70.96 5.8C73.26 5.8 75.06 4 75.06 1.7L75.06-2C79.26-3.1 82.46-6.9 82.46-11.4C82.46-16.6 78.06-21.1 72.76-21.1Z"/>
   <path class="monochrome-1 multicolor-1:tintColor hierarchical-1:primary SFSymbolsPreviewWireframe" d="M9.46 0.7C7.16 0.7 5.36-1.1 5.36-3.4L5.36-15.7C5.36-18 7.16-19.8 9.46-19.8C11.76-19.8 13.56-18 13.56-15.7L13.56-3.4C13.56-1.1 11.76 0.7 9.46 0.7ZM24.96 0.7C22.66 0.7 20.86-1.1 20.86-3.4L20.86-31.2C20.86-33.5 22.66-35.3 24.96-35.3C27.26-35.3 29.06-33.5 29.06-31.2L29.06-3.4C29.06-1.1 27.16 0.7 24.96 0.7ZM42.36 0.7C40.06 0.7 38.26-1.1 38.26-3.4L38.26-20.9C38.26-23.2 40.06-25 42.36-25C44.66-25 46.46-23.2 46.46-20.9L46.46-3.4C46.46-1.1 44.66 0.7 42.36 0.7Z"/>
   <path class="monochrome-2 multicolor-2:tintColor hierarchical-2:primary SFSymbolsPreviewWireframe" d="M83.46-63L71.16-63C68.86-63 67.06-64.8 67.06-67.1C67.06-69.4 68.86-71.2 71.16-71.2L83.46-71.2C85.76-71.2 87.56-69.4 87.56-67.1C87.56-64.8 85.76-63 83.46-63ZM56.76-60.9C53.86-60.9 51.66-63.2 51.66-66C51.66-68.8 53.96-71.1 56.76-71.1C59.66-71.1 61.86-68.8 61.86-66C61.86-63.2 59.66-60.9 56.76-60.9ZM83.46-47.6L71.16-47.6C68.86-47.6 67.06-49.4 67.06-51.7C67.06-54 68.86-55.8 71.16-55.8L83.46-55.8C85.76-55.8 87.56-54 87.56-51.7C87.56-49.4 85.76-47.6 83.46-47.6ZM56.76-45.5C53.86-45.5 51.66-47.8 51.66-50.6C51.66-53.5 53.96-55.7 56.76-55.7C59.66-55.7 61.86-53.4 61.86-50.6C61.96-47.8 59.66-45.5 56.76-45.5Z"/>
   <path class="monochrome-3 multicolor-3:tintColor hierarchical-3:primary SFSymbolsPreviewWireframe" d="M19.76-50.7C18.66-50.7 17.66-51.1 16.86-51.9C15.26-53.5 15.26-56.1 16.86-57.7L34.36-75.2C35.96-76.8 38.56-76.8 40.16-75.2C41.76-73.6 41.76-71 40.16-69.4L22.66-51.9C21.86-51.1 20.86-50.7 19.76-50.7ZM10.56-40.4L5.36-40.4L5.36-45.5C5.36-48.4 7.66-50.6 10.46-50.6C13.26-50.6 15.56-48.3 15.56-45.5C15.66-42.6 13.36-40.4 10.56-40.4Z"/>
  </g>
  <g id="Ultralight-S" transform="matrix(1 0 0 1 515.011 696)">
   <path class="monochrome-0 multicolor-0:tintColor hierarchical-0:primary SFSymbolsPreviewWireframe" d="M71.075-18.2L67.375-18.2C65.275-18.2 63.075-20.1 63.075-22.5C63.075-25.1 65.375-26.8 67.375-26.8L76.675-26.8C77.475-26.7 77.975-27.5 77.975-28.1C77.975-28.7 77.475-29.4 76.675-29.4L70.475-29.4L70.475-36.2C70.475-36.9 69.975-37.5 69.175-37.5C68.475-37.5 67.875-37 67.875-36.2L67.875-29.7C64.475-29.7 60.475-27 60.475-22.5C60.475-19.2 63.175-15.6 67.375-15.6L71.075-15.6C73.375-15.6 75.375-13.5 75.375-11.3C75.375-9.2 73.475-7 71.075-7L61.775-7C61.075-7 60.475-6.5 60.475-5.7C60.475-5 61.075-4.4 61.775-4.4L67.975-4.4L67.975 1.8C67.975 2.3 68.375 3.1 69.275 3.1C70.175 3.1 70.575 2.4 70.575 1.8L70.575-4.1C74.475-4.1 77.975-7.4 77.975-11.3C77.875-14.8 75.075-18.2 71.075-18.2Z"/>
   <path class="monochrome-1 multicolor-1:tintColor hierarchical-1:primary SFSymbolsPreviewWireframe" d="M7.775-2.1C7.075-2.1 6.475-2.7 6.475-3.4L6.475-15.7C6.475-16.4 7.075-17 7.775-17C8.475-17 8.975-16.4 8.975-15.7L8.975-3.4C8.975-2.7 8.475-2.1 7.775-2.1ZM23.175-2.1C22.475-2.1 21.875-2.7 21.875-3.4L21.875-31.2C21.875-31.9 22.475-32.5 23.175-32.5C23.875-32.5 24.475-31.9 24.475-31.2L24.475-3.4C24.475-2.7 23.875-2.1 23.175-2.1ZM40.675-2.1C39.975-2.1 39.375-2.7 39.375-3.4L39.375-20.9C39.375-21.6 39.975-22.2 40.675-22.2C41.375-22.2 41.975-21.6 41.975-20.9L41.975-3.4C41.875-2.7 41.375-2.1 40.675-2.1Z"/>
   <path class="monochrome-2 multicolor-2:tintColor hierarchical-2:primary SFSymbolsPreviewWireframe" d="M81.775-65.8L69.375-65.8C68.675-65.8 68.075-66.4 68.075-67.1C68.075-67.8 68.675-68.4 69.375-68.4L81.675-68.4C82.375-68.4 82.975-67.8 82.975-67.1C82.975-66.4 82.475-65.8 81.775-65.8ZM55.075-63.8C53.775-63.8 52.775-64.8 52.775-66.1C52.775-67.4 53.775-68.4 55.075-68.4C56.375-68.4 57.375-67.4 57.375-66.1C57.375-64.8 56.275-63.8 55.075-63.8ZM81.775-50.4L69.375-50.4C68.675-50.4 68.075-51 68.075-51.7C68.075-52.4 68.675-53 69.375-53L81.675-53C82.375-53 82.975-52.4 82.975-51.7C82.975-51 82.475-50.4 81.775-50.4ZM55.075-48.4C53.775-48.4 52.775-49.4 52.775-50.7C52.775-52 53.775-53 55.075-53C56.375-53 57.375-52 57.375-50.7C57.375-49.4 56.275-48.4 55.075-48.4Z"/>
   <path class="monochrome-3 multicolor-3:tintColor hierarchical-3:primary SFSymbolsPreviewWireframe" d="M18.075-53.5C17.775-53.5 17.375-53.6 17.175-53.9C16.675-54.4 16.675-55.2 17.175-55.7L34.675-73.2C35.175-73.7 35.975-73.7 36.475-73.2C36.975-72.7 36.975-71.9 36.475-71.4L18.975-53.9C18.675-53.6 18.375-53.5 18.075-53.5ZM8.775-43.2L6.475-43.2L6.475-45.5C6.475-46.8 7.475-47.8 8.775-47.8C10.075-47.8 11.075-46.8 11.075-45.5C11.075-44.2 10.075-43.2 8.775-43.2Z"/>
  </g>
 </g>
</svg>
