<svg width="128" height="128" viewBox="0 0 128 128" fill="none" xmlns="http://www.w3.org/2000/svg">
<g clip-path="url(#clip0_4525_85790)">
<path d="M128 64C128 99.3462 99.3462 128 64 128C28.6537 128 -3.62396e-05 99.3462 -3.62396e-05 64C-3.62396e-05 28.6538 28.6537 1.14441e-05 64 1.14441e-05C99.3462 1.14441e-05 128 28.6538 128 64Z" fill="#101619"/>
<path d="M218.499 -9.96627H-7.24395C-8.71539 -9.96763 -10.1727 -9.67898 -11.5325 -9.11682C-12.8923 -8.55467 -14.128 -7.73003 -15.169 -6.69004C-16.2099 -5.65005 -17.0357 -4.41512 -17.5991 -3.05581C-18.1625 -1.6965 -18.4525 -0.239485 -18.4525 1.23196V133.925C-18.4525 136.898 -17.2716 139.749 -15.1696 141.851C-13.0676 143.953 -10.2166 145.134 -7.24395 145.134H218.499C221.472 145.134 224.323 143.953 226.425 141.851C228.527 139.749 229.708 136.898 229.708 133.925V1.23196C229.708 -0.239485 229.418 -1.6965 228.854 -3.05581C228.291 -4.41512 227.465 -5.65005 226.424 -6.69004C225.383 -7.73003 224.147 -8.55467 222.788 -9.11682C221.428 -9.67898 219.971 -9.96763 218.499 -9.96627Z" fill="#101619"/>
<path d="M218.499 -9.96627H-7.24395C-8.71539 -9.96763 -10.1727 -9.67898 -11.5325 -9.11682C-12.8923 -8.55467 -14.128 -7.73003 -15.169 -6.69004C-16.2099 -5.65005 -17.0357 -4.41512 -17.5991 -3.05581C-18.1625 -1.6965 -18.4525 -0.239485 -18.4525 1.23196V133.925C-18.4525 136.898 -17.2716 139.749 -15.1696 141.851C-13.0676 143.953 -10.2166 145.134 -7.24395 145.134H218.499C221.472 145.134 224.323 143.953 226.425 141.851C228.527 139.749 229.708 136.898 229.708 133.925V1.23196C229.708 -0.239485 229.418 -1.6965 228.854 -3.05581C228.291 -4.41512 227.465 -5.65005 226.424 -6.69004C225.383 -7.73003 224.147 -8.55467 222.788 -9.11682C221.428 -9.67898 219.971 -9.96763 218.499 -9.96627Z" fill="#101619"/>
<path d="M225.231 79.8089C200.854 77.605 176.561 81.0279 152.411 84.0699C136.011 86.1355 119.576 87.9011 103.182 90.0263C86.6178 92.1727 70.0535 94.3702 53.4297 96.0253C45.1497 96.8485 36.859 97.5612 28.5514 98.0483C20.4457 98.5227 12.1954 97.725 4.11313 97.1208C-3.39521 96.5571 -10.9227 95.9636 -18.4459 95.7296V145.438H229.708V80.2003C228.22 80.0706 226.73 79.9451 225.233 79.8089H225.231Z" fill="#2A4259"/>
<path d="M29.2272 99.1925C29.7778 99.2968 12.3909 103.898 9.16176 104.583C13.2242 105.789 60.298 109.859 79.5578 107.997C89.5852 107.027 99.2279 105.017 109.002 102.669C116.893 100.771 124.986 99.3436 132.554 96.3441C126.151 96.4398 112.757 97.6864 113.216 97.4694C124.344 92.1767 136.87 90.7259 148.487 86.8074C152.239 85.5438 155.983 84.2377 159.784 83.1357C157.326 83.4463 154.869 83.7593 152.411 84.0699C136.011 86.1355 119.576 87.9011 103.182 90.0263C86.6178 92.1727 70.0535 94.3702 53.4297 96.0253C45.1497 96.8485 36.859 97.5612 28.5514 98.0483C25.5753 98.2228 22.5777 98.2225 19.5782 98.1267C22.8116 98.3054 26.0343 98.5884 29.2294 99.1925H29.2272Z" fill="#2A4259"/>
<path d="M225.231 79.8089C206.507 78.1177 187.834 79.745 169.239 81.968C169.851 81.9744 170.459 81.9637 171.074 81.9765C177.683 82.1233 185.208 82.0276 191.486 84.3846C192.88 84.9079 195.236 85.9099 195.104 87.7798C194.891 90.809 190.591 92.9172 188.284 93.9212C182.545 96.4229 176.154 97.9397 170.055 99.2693C162.532 100.907 154.83 102.192 147.167 102.979C133.086 104.426 118.671 104.177 104.866 107.583C115.142 108.472 136.438 109.546 135.766 109.572C128.894 109.846 122.148 111.129 115.414 112.45C128.309 113.694 141.251 114.29 154.091 116.096C161.25 117.102 168.329 118.368 175.427 119.732C178.795 120.376 182.209 120.734 185.557 121.474C188.635 122.155 192.606 122.912 194.804 125.399C195.946 126.692 195.769 128.437 194.349 129.411C192.132 130.936 189.111 131.281 186.509 131.581C183.159 131.966 179.783 132.108 176.414 132.14C163.389 132.264 150.409 132.646 137.433 131.142C121.687 129.319 105.846 127.566 90.5355 123.327C82.5722 121.123 74.6833 118.596 66.6329 116.719C58.6824 114.869 50.6426 113.426 42.5582 112.316C34.1953 111.167 25.7261 110.063 17.2909 109.623C9.15115 109.197 -7.82128 108.5 -7.27708 108.323C-2.40686 106.734 2.58241 105.634 7.6312 104.843C4.23628 104.768 0.817989 105.221 -2.5833 105.262C-3.14239 105.268 5.84127 102.437 10.1652 101.76C2.43998 99.9819 -9.5857 105.092 -13.916 96.6442C-14.0626 96.357 -13.9415 96.0613 -13.6651 95.9294C-15.2595 95.8507 -16.856 95.7784 -18.4524 95.7273V145.436H229.701V80.2002C228.213 80.0705 226.723 79.9449 225.227 79.8088L225.231 79.8089Z" fill="#2A4259"/>
<path d="M212.13 6.06074C212.13 7.20286 211.204 8.12874 210.062 8.12874C208.92 8.12874 207.994 7.20286 207.994 6.06074C207.994 4.91861 208.92 3.99273 210.062 3.99273C211.204 3.99273 212.13 4.91861 212.13 6.06074Z" fill="#EBF8FF"/>
<path d="M114.934 10.7138C114.934 11.5704 114.239 12.2648 113.383 12.2648C112.526 12.2648 111.832 11.5704 111.832 10.7138C111.832 9.85721 112.526 9.1628 113.383 9.1628C114.239 9.1628 114.934 9.85721 114.934 10.7138Z" fill="#EBF8FF"/>
<path d="M63.2336 43.2847C63.2336 43.8558 62.7706 44.3187 62.1996 44.3187C61.6285 44.3187 61.1656 43.8558 61.1656 43.2847C61.1656 42.7136 61.6285 42.2507 62.1996 42.2507C62.7706 42.2507 63.2336 42.7136 63.2336 43.2847Z" fill="#EBF8FF"/>
<path d="M182.144 9.16268C182.144 9.73374 181.681 10.1967 181.11 10.1967C180.539 10.1967 180.076 9.73374 180.076 9.16268C180.076 8.59161 180.539 8.12868 181.11 8.12868C181.681 8.12868 182.144 8.59161 182.144 9.16268Z" fill="#EBF8FF"/>
<path d="M219.368 35.0128C219.368 35.5839 218.905 36.0468 218.334 36.0468C217.763 36.0468 217.3 35.5839 217.3 35.0128C217.3 34.4418 217.763 33.9788 218.334 33.9788C218.905 33.9788 219.368 34.4418 219.368 35.0128Z" fill="#EBF8FF"/>
<path d="M17.7375 20.5367C17.7375 21.1078 17.2746 21.5708 16.7035 21.5708C16.1325 21.5708 15.6695 21.1078 15.6695 20.5367C15.6695 19.9657 16.1325 19.5027 16.7035 19.5027C17.2746 19.5027 17.7375 19.9657 17.7375 20.5367Z" fill="#EBF8FF"/>
<path d="M64.2676 -3.76227C64.2676 -2.90568 63.5731 -2.21127 62.7166 -2.21127C61.86 -2.21127 61.1656 -2.90568 61.1656 -3.76227C61.1656 -4.61887 61.86 -5.31327 62.7166 -5.31327C63.5731 -5.31327 64.2676 -4.61887 64.2676 -3.76227Z" fill="#EBF8FF"/>
<path d="M6.36351 45.8698C6.36351 46.7264 5.6691 47.4208 4.81251 47.4208C3.95591 47.4208 3.26151 46.7264 3.26151 45.8698C3.26151 45.0132 3.95591 44.3188 4.81251 44.3188C5.6691 44.3188 6.36351 45.0132 6.36351 45.8698Z" fill="#EBF8FF"/>
<path d="M44.7463 94.8128V139.03H49.5836C49.7434 139.032 49.8959 139.097 50.0081 139.211C50.1203 139.325 50.1832 139.479 50.1832 139.639V113.008C50.2001 112.896 50.2403 112.788 50.3011 112.691C50.3618 112.595 50.442 112.512 50.5364 112.448L58.6507 108.404V94.8128C58.6507 94.6511 58.5866 94.496 58.4726 94.3817C58.3586 94.2674 58.204 94.2032 58.0428 94.2032H45.354C45.2742 94.2032 45.1951 94.219 45.1214 94.2496C45.0477 94.2802 44.9807 94.3251 44.9243 94.3817C44.8679 94.4383 44.823 94.5056 44.7925 94.5795C44.7619 94.6535 44.7463 94.7327 44.7463 94.8128Z" fill="#222F3B"/>
<path d="M36.2869 144.846V72.944C36.287 72.8124 36.2447 72.6845 36.1662 72.5791C36.0878 72.4737 35.9775 72.3965 35.8517 72.3592L6.83565 63.9079C6.74606 63.8809 6.65147 63.8753 6.55935 63.8916C6.46722 63.9079 6.38012 63.9455 6.3051 64.0015C6.23008 64.0575 6.16917 64.1304 6.12725 64.2143C6.08532 64.2981 6.06358 64.3907 6.06369 64.4845C6.06369 66.0496 6.06369 69.3526 6.06369 69.4762V73.2323H9.43094C10.5927 73.2345 11.7061 73.6989 12.5268 74.5235C13.3475 75.3482 13.8084 76.4658 13.8084 77.6309C13.8018 77.8406 13.7826 78.0496 13.7509 78.257H15.5331C16.6963 78.257 17.8117 78.7203 18.6342 79.5452C19.4567 80.3701 19.9188 81.489 19.9188 82.6555C19.9188 83.8221 19.4567 84.941 18.6342 85.7659C17.8117 86.5908 16.6963 87.0541 15.5331 87.0541H6.07191V121.856C6.07856 121.9 6.07856 121.944 6.07191 121.988C6.04447 122.132 5.96561 122.26 5.85015 122.35L-6.46914 131.18C-6.49824 131.203 -6.5221 131.231 -6.53912 131.264C-6.55613 131.297 -6.56588 131.333 -6.56769 131.37V144.862C-6.56516 144.903 -6.55156 144.942 -6.52839 144.975C-6.50522 145.009 -6.47334 145.035 -6.43626 145.052C-6.40112 145.06 -6.36462 145.06 -6.32948 145.052H36.0898C36.1404 145.043 36.187 145.019 36.2225 144.981C36.258 144.944 36.2806 144.897 36.2869 144.846Z" fill="#222F3B"/>
<path d="M49.5755 139.03H41.724C41.5628 139.03 41.4083 139.094 41.2943 139.208C41.1803 139.323 41.1162 139.478 41.1162 139.639V145.092H50.1504V139.639C50.1506 139.483 50.0911 139.333 49.9842 139.22C49.8772 139.106 49.7309 139.038 49.5755 139.03Z" fill="#222F3B"/>
<path d="M70.0254 102.729L50.5281 112.449C50.4337 112.513 50.3536 112.596 50.2928 112.692C50.232 112.788 50.1919 112.896 50.1749 113.009V145.134H41.1407V139.681C41.1407 139.519 41.2048 139.364 41.3188 139.25C41.4328 139.136 41.5873 139.071 41.7485 139.071H44.7462V94.8547C44.7462 94.693 44.8103 94.538 44.9242 94.4236C45.0382 94.3093 45.1928 94.2452 45.3539 94.2452H54.848V40.4899C54.8332 40.2619 54.7307 40.0486 54.5622 39.8949C54.3937 39.7413 54.1722 39.6593 53.9445 39.6662H27.1953C26.6204 39.6662 26.4562 39.9957 26.4562 40.4899V69.575L35.8599 72.3179C35.9857 72.3553 36.096 72.4324 36.1744 72.5378C36.2529 72.6432 36.2952 72.7713 36.2951 72.9028V144.804C36.293 144.866 36.267 144.925 36.2226 144.968C36.1781 145.011 36.1188 145.035 36.057 145.035H70.7234V103.257C70.7382 103.167 70.7283 103.076 70.6949 102.992C70.6614 102.908 70.6057 102.835 70.5338 102.781C70.4618 102.726 70.3764 102.693 70.2867 102.684C70.1971 102.675 70.1067 102.69 70.0254 102.729ZM61.0487 125.406C61.0487 125.446 61.0408 125.485 61.0254 125.521C61.0101 125.558 60.9876 125.591 60.9593 125.619C60.9309 125.646 60.8973 125.668 60.8605 125.682C60.8237 125.697 60.7843 125.704 60.7448 125.703H54.7084C54.6292 125.703 54.5531 125.672 54.4963 125.616C54.4396 125.561 54.4067 125.485 54.4045 125.406V119.344C54.4045 118.46 54.7545 117.612 55.3775 116.988C56.0005 116.363 56.8456 116.012 57.7266 116.012C58.6077 116.012 59.4527 116.363 60.0757 116.988C60.6987 117.612 61.0487 118.46 61.0487 119.344V125.406Z" fill="#324E6B"/>
<path d="M57.7309 116.007C56.8629 116.017 56.0335 116.368 55.4197 116.983C54.8059 117.599 54.4564 118.431 54.4457 119.301V125.364C54.4479 125.443 54.4808 125.519 54.5376 125.574C54.5943 125.63 54.6704 125.661 54.7496 125.66H60.786C60.8255 125.662 60.8649 125.655 60.9017 125.64C60.9385 125.626 60.972 125.604 61.0004 125.577C61.0287 125.549 61.0513 125.516 61.0666 125.479C61.082 125.443 61.0899 125.404 61.0899 125.364V119.301C61.0791 118.418 60.7193 117.575 60.0896 116.957C59.4598 116.34 58.6116 115.998 57.7309 116.007Z" fill="#2A4259"/>
<path d="M19.9271 82.6644C19.9271 81.4978 19.465 80.379 18.6425 79.5541C17.82 78.7292 16.7045 78.2658 15.5413 78.2658H13.7592C13.7909 78.0585 13.8101 77.8494 13.8166 77.6398C13.8166 76.4746 13.3558 75.357 12.5351 74.5324C11.7144 73.7077 10.601 73.2434 9.43923 73.2412H-4.76083C-5.92398 73.2412 -7.03943 73.7046 -7.8619 74.5295C-8.68438 75.3544 -9.14647 76.4732 -9.14647 77.6398C-9.14647 78.8064 -8.68438 79.9251 -7.8619 80.75C-7.03943 81.5749 -5.92398 82.0384 -4.76083 82.0384H-2.9786C-3.01713 82.245 -3.03906 82.4543 -3.04427 82.6644C-3.04427 83.831 -2.58228 84.9498 -1.75981 85.7747C-0.937338 86.5996 0.178215 87.063 1.34137 87.063H15.5413C16.7045 87.063 17.82 86.5996 18.6425 85.7747C19.465 84.9498 19.9271 83.831 19.9271 82.6644Z" fill="#324E6B"/>
<path d="M18.5167 41.2376C18.0021 43.769 13.7531 46.3458 13.0292 46.7171C12.9703 46.7318 12.909 46.7342 12.8492 46.724C12.7894 46.7139 12.7323 46.6914 12.6816 46.658C11.2169 44.6937 9.25612 42.2316 9.7151 39.4674C10.1741 36.7032 12.609 34.9988 15.1149 35.5084C17.6207 36.0181 19.0753 38.4937 18.5167 41.2376Z" fill="#FF7F4C"/>
<path d="M10.5031 38.5022C10.4736 38.5024 10.4445 38.4948 10.4188 38.4802C10.3802 38.458 10.3519 38.4213 10.3402 38.3783C10.3285 38.3353 10.3343 38.2895 10.3563 38.2507C10.4308 38.1187 10.5148 37.9924 10.6078 37.8727C10.6217 37.8554 10.6389 37.841 10.6584 37.8303C10.6779 37.8196 10.6993 37.8129 10.7215 37.8106C10.7436 37.8082 10.7659 37.8103 10.7872 37.8166C10.8086 37.8229 10.8284 37.8334 10.8457 37.8474C10.8629 37.8614 10.8772 37.8787 10.8877 37.8983C10.8982 37.9179 10.9047 37.9393 10.9069 37.9615C10.9091 37.9836 10.9069 38.0059 10.9005 38.0271C10.894 38.0484 10.8834 38.0682 10.8693 38.0853C10.7886 38.1927 10.7153 38.3055 10.6499 38.4228C10.6344 38.4477 10.6128 38.468 10.587 38.4819C10.5613 38.4958 10.5324 38.5028 10.5031 38.5022Z" fill="#C35500"/>
<path d="M9.94966 57.1326C9.93085 57.1324 9.91237 57.1277 9.89566 57.1191C9.88256 57.112 9.871 57.1025 9.86162 57.0909C9.85224 57.0794 9.84523 57.0661 9.84099 57.0518C9.83676 57.0375 9.83539 57.0226 9.83695 57.0078C9.83851 56.993 9.84298 56.9786 9.8501 56.9656C9.92266 56.8289 9.94459 56.7209 9.91253 56.6584C9.88047 56.596 9.85347 56.6061 9.78597 56.5808C9.68388 56.5539 9.59653 56.4878 9.54298 56.3969C9.52048 56.3464 9.50955 56.2916 9.51101 56.2364C9.51247 56.1812 9.52628 56.1271 9.55142 56.0779C9.58361 55.9873 9.60512 55.8933 9.61554 55.7978C9.62416 55.7203 9.61845 55.6419 9.59867 55.5666C9.57886 55.4924 9.57144 55.4154 9.57673 55.3388C9.59023 55.1481 9.59192 54.9692 9.59361 54.7802C9.5953 54.5912 9.59361 54.4258 9.60542 54.2064C9.65416 53.6899 9.73532 53.177 9.84841 52.6707C9.89605 52.4939 9.92767 52.3132 9.9429 52.1307C9.90409 51.611 10.5031 50.8853 10.9402 50.3538C11.061 50.22 11.1737 50.0791 11.2777 49.9319C11.7542 49.1285 12.189 48.301 12.5804 47.4529C12.5932 47.4258 12.6161 47.405 12.6443 47.3948C12.6724 47.3847 12.7035 47.3862 12.7305 47.3989C12.7439 47.405 12.7558 47.4138 12.7658 47.4246C12.7757 47.4354 12.7834 47.4481 12.7884 47.4619C12.7935 47.4757 12.7957 47.4903 12.795 47.505C12.7944 47.5197 12.7908 47.5341 12.7845 47.5474C12.3905 48.4032 11.9523 49.2379 11.4717 50.0483C11.3647 50.2051 11.2487 50.3556 11.1241 50.4989C10.7343 50.9714 10.1454 51.6802 10.1775 52.1155C10.1648 52.3233 10.1303 52.5292 10.0745 52.7298C9.96725 53.2204 9.88893 53.7168 9.83997 54.2165C9.82985 54.4309 9.82816 54.6097 9.82816 54.7819C9.82816 54.954 9.82816 55.1565 9.81129 55.3556C9.8065 55.4124 9.81222 55.4696 9.82816 55.5244C9.8526 55.6231 9.85945 55.7254 9.84841 55.8265C9.83779 55.9416 9.81285 56.055 9.77416 56.164C9.74379 56.2551 9.73704 56.2804 9.75223 56.3091C9.76742 56.3378 9.80791 56.3597 9.87372 56.3833C9.97032 56.4091 10.0546 56.4683 10.1116 56.5504C10.1452 56.6354 10.1571 56.7275 10.1462 56.8182C10.1353 56.9089 10.102 56.9955 10.0492 57.0702C10.0399 57.0887 10.0257 57.1043 10.0082 57.1153C9.99063 57.1264 9.97038 57.1323 9.94966 57.1326Z" fill="#818F98"/>
<path d="M12.6816 46.653L12.1754 47.328C12.1656 47.3413 12.1595 47.3569 12.1575 47.3733C12.1555 47.3896 12.1577 47.4062 12.164 47.4215C12.1702 47.4367 12.1803 47.4501 12.1933 47.4603C12.2062 47.4706 12.2215 47.4773 12.2378 47.4799L13.1524 47.6486C13.1685 47.6511 13.1849 47.6494 13.2001 47.6437C13.2154 47.6381 13.2289 47.6287 13.2395 47.6164C13.2501 47.6041 13.2575 47.5893 13.2608 47.5734C13.2642 47.5575 13.2634 47.541 13.2587 47.5255L13.0242 46.7036" fill="#FF7F4C"/>
<path d="M205.815 22.3463H186.22C185.425 22.3463 184.638 22.5001 183.903 22.7989C183.168 23.0977 182.5 23.5356 181.938 24.0877C181.376 24.6398 180.93 25.2952 180.625 26.0166C180.321 26.7379 180.164 27.511 180.164 28.2918C180.164 29.0726 180.321 29.8457 180.625 30.5671C180.93 31.2884 181.376 31.9438 181.938 32.4959C182.5 33.048 183.168 33.486 183.903 33.7847C184.638 34.0835 185.425 34.2373 186.22 34.2373H205.815C207.421 34.2373 208.962 33.6109 210.097 32.4959C211.233 31.3809 211.871 29.8687 211.871 28.2918C211.871 26.715 211.233 25.2027 210.097 24.0877C208.962 22.9727 207.421 22.3463 205.815 22.3463Z" fill="#2A4259"/>
<path d="M195.645 16.4007H176.05C175.255 16.4007 174.467 16.5545 173.733 16.8533C172.998 17.1521 172.33 17.59 171.768 18.1421C171.206 18.6942 170.759 19.3497 170.455 20.071C170.151 20.7923 169.994 21.5655 169.994 22.3462C169.994 23.127 170.151 23.9002 170.455 24.6215C170.759 25.3428 171.206 25.9983 171.768 26.5504C172.33 27.1024 172.998 27.5404 173.733 27.8392C174.467 28.138 175.255 28.2918 176.05 28.2918H195.645C197.251 28.2918 198.792 27.6653 199.927 26.5504C201.063 25.4354 201.701 23.9231 201.701 22.3462C201.701 20.7694 201.063 19.2571 199.927 18.1421C198.792 17.0271 197.251 16.4007 195.645 16.4007Z" fill="#2A4259"/>
<path d="M63.3501 15.8367C61.4991 19.3302 54.1461 21.2747 52.9226 21.5065C52.8298 21.5027 52.7388 21.4796 52.6554 21.4388C52.5719 21.398 52.4979 21.3403 52.4379 21.2694C51.1375 17.7518 49.3243 13.2886 51.1943 9.42902C53.0643 5.56946 57.3766 4.12085 60.8349 5.9534C64.2933 7.78596 65.3575 12.0499 63.3501 15.8367Z" fill="#9B015D"/>
<path d="M52.7689 8.35293C52.7254 8.34044 52.686 8.31675 52.6545 8.28422C52.6075 8.23483 52.5819 8.16884 52.5833 8.10066C52.5847 8.03247 52.6131 7.96762 52.6622 7.92025C52.8285 7.75867 53.0066 7.60954 53.1949 7.47409C53.2228 7.45466 53.2543 7.44095 53.2876 7.43374C53.3208 7.42653 53.3552 7.42597 53.3887 7.43208C53.4222 7.4382 53.4541 7.45087 53.4827 7.46937C53.5112 7.48787 53.5358 7.51184 53.5551 7.53988C53.5743 7.56795 53.5878 7.59954 53.5947 7.63282C53.6017 7.6661 53.602 7.70043 53.5956 7.73384C53.5893 7.76724 53.5764 7.79906 53.5578 7.82748C53.5391 7.8559 53.515 7.88035 53.4868 7.89943C53.3219 8.02219 53.1655 8.15602 53.0187 8.30001C52.9852 8.32973 52.9446 8.35024 52.9008 8.35952C52.857 8.36879 52.8115 8.36652 52.7689 8.35293Z" fill="#8D2A00"/>
<path d="M43.8944 35.4652C43.8669 35.4566 43.8418 35.4419 43.821 35.422C43.8048 35.4059 43.792 35.3868 43.7832 35.3658C43.7744 35.3448 43.7699 35.3223 43.7698 35.2995C43.7698 35.2767 43.7743 35.2541 43.783 35.2331C43.7917 35.212 43.8044 35.1929 43.8205 35.1768C43.9862 35.0075 44.0651 34.8585 44.0451 34.7529C44.025 34.6474 43.981 34.6506 43.8929 34.5842C43.7546 34.5006 43.655 34.3657 43.6157 34.209C43.6045 34.1252 43.6122 34.04 43.6382 33.9596C43.6643 33.8792 43.708 33.8057 43.7662 33.7444C43.8526 33.6254 43.9249 33.4966 43.9815 33.3609C44.0277 33.2509 44.0532 33.1334 44.0568 33.0141C44.0598 32.8966 44.0822 32.7804 44.1232 32.6702C44.2255 32.3961 44.3054 32.1342 44.3896 31.8574C44.4739 31.5807 44.543 31.3371 44.6553 31.0202C44.9503 30.283 45.2914 29.5652 45.6765 28.8708C45.823 28.6318 45.9476 28.3802 46.0489 28.1189C46.2169 27.339 47.4103 26.5329 48.282 25.9416C48.5173 25.7975 48.7437 25.6395 48.96 25.4683C50.0073 24.495 51.0037 23.4684 51.9453 22.3925C51.9758 22.3584 52.0186 22.3377 52.0643 22.335C52.11 22.3323 52.1549 22.3479 52.1891 22.3782C52.206 22.393 52.2198 22.411 52.2297 22.4312C52.2397 22.4514 52.2455 22.4733 52.2469 22.4958C52.2483 22.5182 52.2452 22.5407 52.2379 22.562C52.2305 22.5832 52.2191 22.6028 52.2042 22.6196C51.2553 23.7055 50.2508 24.7414 49.1945 25.7232C48.9696 25.9071 48.7341 26.0778 48.4892 26.2343C47.7125 26.7593 46.5412 27.545 46.3999 28.1981C46.2914 28.4977 46.1517 28.785 45.9829 29.0554C45.6132 29.7291 45.2834 30.424 44.9952 31.1365C44.8876 31.4468 44.8077 31.7087 44.7333 31.9614C44.6588 32.2141 44.5711 32.5114 44.4602 32.7965C44.4286 32.8778 44.4122 32.9643 44.412 33.0515C44.4051 33.207 44.3709 33.3601 44.311 33.5038C44.2455 33.6682 44.1599 33.8239 44.0559 33.9671C43.9719 34.0878 43.951 34.122 43.9609 34.1707C43.9708 34.2194 44.0208 34.2691 44.1072 34.3323C44.2378 34.4119 44.336 34.5353 44.3842 34.6805C44.3967 34.8198 44.3743 34.9601 44.319 35.0886C44.2638 35.2171 44.1773 35.3298 44.0676 35.4166C44.0459 35.4398 44.0183 35.4566 43.9878 35.4651C43.9573 35.4737 43.9249 35.4737 43.8944 35.4652Z" fill="#818F98"/>
<path d="M52.44 21.262L51.4047 22.0339C51.3847 22.0492 51.3689 22.0695 51.3589 22.0926C51.3489 22.1158 51.345 22.1411 51.3476 22.1662C51.3502 22.1913 51.3592 22.2153 51.3737 22.236C51.3883 22.2566 51.4079 22.2731 51.4307 22.2839L52.7004 22.9275C52.7229 22.938 52.7478 22.9426 52.7726 22.9409C52.7974 22.9392 52.8214 22.9313 52.8423 22.9178C52.8632 22.9043 52.8803 22.8858 52.8921 22.8639C52.9039 22.842 52.91 22.8175 52.9098 22.7926L52.921 21.4846" fill="#9B015D"/>
<path d="M72.9428 91.9688C72.154 95.0705 66.7412 98.0045 65.8231 98.4206C65.7493 98.4353 65.6733 98.4345 65.5999 98.4183C65.5264 98.4022 65.4572 98.3709 65.3964 98.3266C63.7017 95.8079 61.4228 92.6432 62.1567 89.25C62.8905 85.8567 66.0061 83.8935 69.0766 84.6746C72.1471 85.4556 73.7986 88.6065 72.9428 91.9688Z" fill="#9B015D"/>
<path d="M63.1898 88.1028C63.1532 88.1012 63.1176 88.0901 63.0867 88.0706C63.0403 88.0407 63.0075 87.9937 62.9956 87.9398C62.9837 87.8858 62.9936 87.8294 63.0232 87.7828C63.1232 87.6239 63.2348 87.4726 63.357 87.3301C63.3753 87.3094 63.3975 87.2926 63.4222 87.2806C63.447 87.2686 63.4739 87.2616 63.5014 87.26C63.529 87.2584 63.5565 87.2623 63.5825 87.2714C63.6085 87.2805 63.6325 87.2946 63.653 87.313C63.6734 87.3314 63.6901 87.3537 63.7019 87.3786C63.7137 87.4034 63.7205 87.4304 63.7219 87.4578C63.7233 87.4853 63.7192 87.5128 63.71 87.5387C63.7007 87.5647 63.6864 87.5885 63.6679 87.6089C63.5616 87.737 63.4642 87.8721 63.3762 88.0134C63.3555 88.0432 63.3275 88.0671 63.2948 88.0827C63.2621 88.0984 63.2259 88.1053 63.1898 88.1028Z" fill="#8D2A00"/>
<path d="M65.3967 98.3204L64.7298 99.1254C64.7169 99.1412 64.7083 99.1602 64.7049 99.1803C64.7014 99.2004 64.7032 99.2211 64.71 99.2403C64.7169 99.2596 64.7286 99.2768 64.7439 99.2902C64.7593 99.3036 64.7779 99.3129 64.7979 99.3171L65.9196 99.5808C65.9394 99.5847 65.9598 99.5836 65.979 99.5776C65.9982 99.5715 66.0155 99.5607 66.0294 99.5461C66.0432 99.5315 66.0532 99.5136 66.0583 99.4942C66.0634 99.4747 66.0635 99.4542 66.0586 99.4347L65.8176 98.4036" fill="#9B015D"/>
<path d="M173.72 44.7238C171.869 48.2173 164.516 50.1619 163.293 50.3937C163.2 50.3898 163.109 50.3668 163.025 50.3259C162.942 50.2851 162.868 50.2274 162.808 50.1565C161.508 46.6389 159.694 42.1757 161.564 38.3161C163.434 34.4566 167.747 33.008 171.205 34.8405C174.663 36.6731 175.728 40.937 173.72 44.7238Z" fill="#9B015D"/>
<path d="M163.139 37.2401C163.096 37.2276 163.056 37.2039 163.025 37.1713C162.978 37.122 162.952 37.056 162.953 36.9878C162.955 36.9196 162.983 36.8547 163.032 36.8074C163.199 36.6458 163.377 36.4967 163.565 36.3612C163.593 36.3418 163.624 36.3281 163.658 36.3209C163.691 36.3137 163.725 36.3131 163.759 36.3192C163.792 36.3253 163.824 36.338 163.853 36.3565C163.881 36.375 163.906 36.399 163.925 36.427C163.944 36.4551 163.958 36.4867 163.965 36.5199C163.972 36.5532 163.972 36.5876 163.966 36.621C163.959 36.6544 163.947 36.6862 163.928 36.7146C163.909 36.743 163.885 36.7675 163.857 36.7866C163.692 36.9093 163.536 37.0431 163.389 37.1871C163.355 37.2169 163.315 37.2374 163.271 37.2466C163.227 37.2559 163.182 37.2536 163.139 37.2401Z" fill="#8D2A00"/>
<path d="M162.81 50.1491L161.775 50.9211C161.755 50.9364 161.739 50.9566 161.729 50.9797C161.719 51.0029 161.715 51.0283 161.718 51.0534C161.72 51.0785 161.729 51.1025 161.744 51.1231C161.758 51.1437 161.778 51.1602 161.801 51.1711L163.07 51.8146C163.093 51.8251 163.118 51.8297 163.143 51.828C163.167 51.8263 163.191 51.8184 163.212 51.8049C163.233 51.7915 163.25 51.7729 163.262 51.751C163.274 51.7291 163.28 51.7046 163.28 51.6797L163.291 50.3717" fill="#9B015D"/>
<path d="M85.0359 90.4707C84.9469 90.4445 84.872 90.384 84.8277 90.3026C84.7833 90.2211 84.7731 90.1254 84.7994 90.0364C84.9365 89.5712 84.9262 89.2272 84.7866 89.0626C84.647 88.898 84.5715 88.9346 84.343 88.9319C84.014 88.9152 83.7044 88.7713 83.4796 88.5304C83.3783 88.3904 83.3095 88.2296 83.2783 88.0597C83.247 87.8898 83.254 87.715 83.2988 87.5482C83.3401 87.2511 83.3439 86.95 83.3102 86.652C83.2879 86.4099 83.2197 86.1743 83.1091 85.9578C83.0005 85.7539 82.9265 85.5334 82.8899 85.3053C82.8148 84.7295 82.894 84.1442 83.1194 83.6091C82.6742 83.0923 82.3718 82.4681 82.2422 81.7984C82.0653 80.7233 82.4813 79.6112 82.9122 78.4683C82.9473 78.3493 82.9807 78.2357 83.0126 78.1275C83.2159 77.6764 83.3384 77.1932 83.3747 76.6998C83.3981 76.2303 83.3375 75.7605 83.1957 75.3124C82.651 73.4704 83.6558 70.1214 84.4579 67.7592L84.4834 67.6726C85.4146 64.9093 86.1998 62.0989 86.8357 59.2531C86.8414 59.2035 86.8575 59.1557 86.8829 59.1127C86.9082 59.0697 86.9424 59.0326 86.9831 59.0037C87.0238 58.9748 87.0701 58.9549 87.1191 58.9451C87.168 58.9353 87.2185 58.9359 87.2672 58.947C87.3158 58.958 87.3616 58.9791 87.4016 59.009C87.4415 59.0389 87.4747 59.0769 87.499 59.1205C87.5233 59.1641 87.5381 59.2124 87.5425 59.2621C87.547 59.3118 87.5408 59.3619 87.5246 59.4091C86.8818 62.2784 86.0897 65.1122 85.1515 67.899L85.1452 67.9206C83.9532 71.4261 83.532 73.8124 83.8829 75.0152C84.0577 75.5475 84.1319 76.1077 84.1015 76.6671C84.0647 77.2349 83.9266 77.7915 83.6935 78.3106C83.6616 78.4188 83.6298 78.527 83.5963 78.6406C83.1701 79.7673 82.8017 80.7581 82.9555 81.6324C83.0369 82.0836 83.2209 82.51 83.4935 82.8786C83.7936 82.4214 84.2468 82.086 84.7718 81.9326C85.4548 81.7694 86.3556 81.9643 86.6232 82.5723C86.6881 82.7427 86.7136 82.9256 86.6977 83.1073C86.6819 83.289 86.625 83.4647 86.5315 83.6212C86.4272 83.8636 86.2676 84.0781 86.0656 84.2478C85.8635 84.4175 85.6246 84.5376 85.3679 84.5984C85.1112 84.6593 84.8438 84.6593 84.5871 84.5984C84.3304 84.5374 84.0915 84.4174 83.8895 84.2477L83.7009 84.1097C83.5982 84.4395 83.5678 84.7874 83.6118 85.13C83.6313 85.2983 83.6831 85.4613 83.7643 85.61C83.9069 85.8951 83.9952 86.2042 84.0247 86.5216C84.0631 86.8724 84.0594 87.2266 84.0135 87.5766C83.9793 87.8722 83.9786 87.9543 84.0438 88.0323C84.109 88.1104 84.2442 88.1502 84.4631 88.1853C84.7938 88.2004 85.1058 88.3429 85.3336 88.583C85.4937 88.8193 85.5914 89.0923 85.6176 89.3766C85.6438 89.6608 85.5976 89.9471 85.4835 90.2087C85.4571 90.2982 85.3966 90.3737 85.3151 90.4189C85.2336 90.4642 85.1375 90.4756 85.0477 90.4506L85.0359 90.4707ZM83.9829 83.4521C84.0758 83.537 84.1745 83.6152 84.2784 83.6861C84.5345 83.891 84.8608 83.9872 85.1871 83.954C85.3405 83.9033 85.4821 83.8222 85.6035 83.7155C85.7248 83.6089 85.8234 83.4788 85.8933 83.3332C85.9765 83.198 86.0053 83.0363 85.9738 82.8807C85.8376 82.7528 85.6698 82.6637 85.4877 82.6224C85.3056 82.5811 85.1157 82.5892 84.9378 82.6459C84.5262 82.7792 84.1834 83.0687 83.9829 83.4521Z" fill="#818F98"/>
<path d="M109.384 39.9774C106.693 48.3678 91.283 55.5137 88.7092 56.5071C88.5041 56.534 88.2956 56.5176 88.0972 56.4592C87.8988 56.4007 87.7148 56.3013 87.5571 56.1675C83.3229 48.952 77.5954 39.8618 80.1897 30.6611C82.7841 21.4604 91.6863 16.5882 99.9788 19.25C108.271 21.9117 112.314 30.8523 109.384 39.9774Z" fill="#FF7F4C"/>
<path d="M87.5587 56.1621L85.6006 58.2776C85.5618 58.3191 85.5344 58.3701 85.5212 58.4254C85.5081 58.4807 85.5096 58.5384 85.5255 58.593C85.5415 58.6476 85.5714 58.697 85.6123 58.7365C85.6532 58.776 85.7037 58.8041 85.7588 58.8181L88.804 59.7157C88.8578 59.7302 88.9144 59.7308 88.9684 59.7173C89.0225 59.7038 89.0722 59.6768 89.1128 59.6387C89.1535 59.6006 89.1838 59.5528 89.2008 59.4998C89.2178 59.4468 89.221 59.3902 89.21 59.3356L88.729 56.46" fill="#FF7F4C"/>
<path d="M85.5412 24.7717C85.4917 24.7559 85.4451 24.7322 85.4031 24.7016C85.3682 24.6705 85.3398 24.6328 85.3195 24.5908C85.2992 24.5487 85.2874 24.503 85.2848 24.4564C85.2821 24.4097 85.2887 24.363 85.3042 24.3189C85.3196 24.2748 85.3436 24.2342 85.3748 24.1994C86.704 22.7906 88.3019 21.6623 90.0742 20.8811C90.1162 20.8542 90.1635 20.8365 90.2128 20.8292C90.2622 20.8218 90.3126 20.8249 90.3606 20.8383C90.4087 20.8517 90.4534 20.8751 90.4919 20.9069C90.5303 20.9388 90.5616 20.9783 90.5837 21.0231C90.6058 21.0678 90.6183 21.1167 90.6202 21.1666C90.6222 21.2165 90.6136 21.2662 90.5951 21.3125C90.5766 21.3589 90.5485 21.4008 90.5127 21.4355C90.4768 21.4703 90.4341 21.4971 90.3872 21.5142C88.6956 22.2597 87.1695 23.3349 85.8983 24.677C85.8539 24.7251 85.7968 24.7596 85.7335 24.7764C85.6703 24.7931 85.6035 24.7915 85.5412 24.7717Z" fill="#C35500"/>
<path d="M83.1926 27.4541L83.079 27.4206C83.0411 27.3937 83.009 27.3594 82.9845 27.3199C82.96 27.2803 82.9436 27.2363 82.9364 27.1903C82.9291 27.1444 82.9311 27.0975 82.9422 27.0523C82.9533 27.0071 82.9733 26.9646 83.001 26.9273C83.2979 26.5189 83.6223 26.1314 83.972 25.7672C84.0388 25.7019 84.1288 25.6658 84.2222 25.6669C84.3156 25.668 84.4047 25.7061 84.47 25.7729C84.5353 25.8397 84.5714 25.9297 84.5703 26.0231C84.5692 26.1165 84.5311 26.2056 84.4643 26.2709C84.1375 26.6043 83.8357 26.9615 83.5615 27.3394C83.5168 27.391 83.4586 27.4291 83.3934 27.4493C83.3282 27.4696 83.2587 27.4712 83.1926 27.4541Z" fill="#C35500"/>
</g>
<defs>
<clipPath id="clip0_4525_85790">
<rect width="128" height="128" rx="64" fill="white"/>
</clipPath>
</defs>
</svg>
