<svg width="128" height="128" viewBox="0 0 128 128" fill="none" xmlns="http://www.w3.org/2000/svg">
<mask id="mask0_4516_148039" style="mask-type:alpha" maskUnits="userSpaceOnUse" x="0" y="0" width="128" height="128">
<circle cx="64" cy="64" r="64" fill="#DBF1FF"/>
</mask>
<g mask="url(#mask0_4516_148039)">
<mask id="mask1_4516_148039" style="mask-type:alpha" maskUnits="userSpaceOnUse" x="-19" y="-10" width="249" height="156">
<path d="M218.499 -9.96627H-7.24389C-8.71533 -9.96763 -10.1726 -9.67898 -11.5324 -9.11682C-12.8923 -8.55467 -14.128 -7.73003 -15.1689 -6.69004C-16.2099 -5.65005 -17.0356 -4.41512 -17.5991 -3.05581C-18.1625 -1.6965 -18.4525 -0.239485 -18.4525 1.23196V133.925C-18.4525 136.898 -17.2716 139.749 -15.1695 141.851C-13.0675 143.953 -10.2166 145.134 -7.24389 145.134H218.499C221.472 145.134 224.323 143.953 226.425 141.851C228.527 139.749 229.708 136.898 229.708 133.925V1.23196C229.708 -0.239485 229.418 -1.6965 228.854 -3.05581C228.291 -4.41512 227.465 -5.65005 226.424 -6.69004C225.383 -7.73003 224.148 -8.55467 222.788 -9.11682C221.428 -9.67898 219.971 -9.96763 218.499 -9.96627Z" fill="#DBF1FF"/>
</mask>
<g mask="url(#mask1_4516_148039)">
<path d="M218.499 -9.96627H-7.24389C-8.71533 -9.96763 -10.1726 -9.67898 -11.5324 -9.11682C-12.8923 -8.55467 -14.128 -7.73003 -15.1689 -6.69004C-16.2099 -5.65005 -17.0356 -4.41512 -17.5991 -3.05581C-18.1625 -1.6965 -18.4525 -0.239485 -18.4525 1.23196V133.925C-18.4525 136.898 -17.2716 139.749 -15.1695 141.851C-13.0675 143.953 -10.2166 145.134 -7.24389 145.134H218.499C221.472 145.134 224.323 143.953 226.425 141.851C228.527 139.749 229.708 136.898 229.708 133.925V1.23196C229.708 -0.239485 229.418 -1.6965 228.854 -3.05581C228.291 -4.41512 227.465 -5.65005 226.424 -6.69004C225.383 -7.73003 224.148 -8.55467 222.788 -9.11682C221.428 -9.67898 219.971 -9.96763 218.499 -9.96627Z" fill="#DBF1FF"/>
<path d="M225.231 79.8089C200.854 77.605 176.561 81.0279 152.411 84.0699C136.011 86.1355 119.576 87.9011 103.182 90.0263C86.6178 92.1727 70.0535 94.3702 53.4297 96.0253C45.1497 96.8485 36.8591 97.5612 28.5514 98.0483C20.4457 98.5227 12.1955 97.725 4.11318 97.1208C-3.39516 96.5571 -10.9226 95.9636 -18.4459 95.7296V145.438H229.708V80.2003C228.22 80.0706 226.73 79.9451 225.233 79.8089H225.231Z" fill="#BCE5FF"/>
<path d="M29.2273 99.1925C29.7779 99.2968 12.3909 103.898 9.1618 104.583C13.2242 105.789 60.2981 109.859 79.5579 107.997C89.5853 107.027 99.2279 105.017 109.002 102.669C116.893 100.771 124.986 99.3436 132.554 96.3441C126.151 96.4398 112.757 97.6864 113.216 97.4694C124.344 92.1767 136.87 90.7259 148.487 86.8074C152.239 85.5438 155.983 84.2377 159.784 83.1357C157.326 83.4463 154.869 83.759 152.411 84.0696C136.011 86.1352 119.576 87.9009 103.182 90.026C86.6177 92.1725 70.0534 94.37 53.4296 96.025C45.1496 96.8483 36.8589 97.5609 28.5513 98.0481C25.5751 98.2225 22.5778 98.2225 19.5783 98.1268C22.8116 98.3055 26.0343 98.5884 29.2294 99.1925H29.2273Z" fill="#BCE5FF"/>
<g style="mix-blend-mode:multiply" opacity="0.4">
<path d="M225.231 79.8088C206.507 78.1176 187.834 79.745 169.239 81.968C169.851 81.9744 170.459 81.9637 171.074 81.9765C177.683 82.1233 185.208 82.0276 191.486 84.3846C192.88 84.9079 195.236 85.9099 195.104 87.7797C194.891 90.809 190.591 92.9172 188.284 93.9212C182.545 96.4229 176.154 97.9397 170.056 99.2692C162.532 100.907 154.831 102.192 147.167 102.979C133.086 104.426 118.671 104.177 104.866 107.583C115.142 108.472 136.438 109.546 135.766 109.572C128.894 109.846 122.148 111.129 115.414 112.45C128.309 113.694 141.251 114.29 154.091 116.096C161.25 117.102 168.329 118.368 175.427 119.732C178.795 120.376 182.209 120.734 185.557 121.474C188.635 122.155 192.606 122.912 194.804 125.399C195.946 126.692 195.769 128.437 194.349 129.411C192.132 130.936 189.111 131.281 186.509 131.581C183.159 131.966 179.783 132.108 176.414 132.14C163.389 132.264 150.409 132.646 137.433 131.142C121.687 129.319 105.846 127.566 90.5355 123.327C82.5723 121.123 74.6834 118.596 66.633 116.719C58.6824 114.869 50.6427 113.426 42.5582 112.316C34.1953 111.167 25.7261 110.063 17.2909 109.623C9.15119 109.197 -7.82124 108.5 -7.27703 108.323C-2.40681 106.734 2.58245 105.634 7.63124 104.843C4.23633 104.768 0.818031 105.221 -2.58326 105.262C-3.14234 105.268 5.84131 102.437 10.1652 101.76C2.44002 99.9819 -9.58566 105.092 -13.9159 96.6442C-14.0626 96.357 -13.9414 96.0613 -13.6651 95.9294C-15.2594 95.8507 -16.8559 95.7784 -18.4524 95.7273V145.436H229.701V80.2002C228.213 80.0704 226.723 79.9449 225.227 79.8088H225.231Z" fill="#BCE5FF"/>
</g>
</g>
<circle cx="113.383" cy="10.7138" r="1.551" fill="#DBF1FF"/>
<ellipse cx="62.1996" cy="43.2847" rx="1.034" ry="1.034" fill="#DBF1FF"/>
<ellipse cx="16.7036" cy="20.5367" rx="1.034" ry="1.034" fill="#DBF1FF"/>
<circle cx="4.81254" cy="45.8698" r="1.551" fill="#DBF1FF"/>
<path d="M44.7463 94.8128V139.03H49.5837C49.7434 139.032 49.8959 139.097 50.0081 139.211C50.1203 139.325 50.1832 139.479 50.1832 139.639V113.008C50.2002 112.896 50.2403 112.788 50.3011 112.691C50.3619 112.595 50.4421 112.512 50.5364 112.448L58.6507 108.404V94.8128C58.6507 94.6511 58.5866 94.496 58.4726 94.3817C58.3587 94.2674 58.204 94.2032 58.0428 94.2032H45.354C45.2742 94.2032 45.1952 94.2189 45.1214 94.2496C45.0477 94.2802 44.9808 94.3251 44.9243 94.3817C44.8679 94.4383 44.823 94.5055 44.7925 94.5795C44.762 94.6534 44.7463 94.7327 44.7463 94.8128Z" fill="#89D1FF"/>
<path d="M36.2869 144.846V72.9439C36.287 72.8124 36.2447 72.6845 36.1662 72.5791C36.0878 72.4736 35.9775 72.3965 35.8517 72.3591L26.448 69.6162L6.83565 63.9079C6.74606 63.8809 6.65147 63.8753 6.55935 63.8916C6.46722 63.9078 6.38013 63.9455 6.3051 64.0015C6.23008 64.0575 6.16918 64.1304 6.12725 64.2142C6.08532 64.2981 6.06358 64.3907 6.06369 64.4845C6.06369 66.0496 6.06369 69.3526 6.06369 69.4762V73.2323H9.43094C10.5927 73.2345 11.7061 73.6988 12.5268 74.5235C13.3475 75.3482 13.8084 76.4658 13.8084 77.6309C13.8018 77.8406 13.7826 78.0496 13.7509 78.2569H15.5331C16.6963 78.2569 17.8117 78.7203 18.6342 79.5452C19.4567 80.3701 19.9188 81.4889 19.9188 82.6555C19.9188 83.8221 19.4567 84.941 18.6342 85.7659C17.8117 86.5908 16.6963 87.0541 15.5331 87.0541H6.07191V121.856C6.07856 121.9 6.07856 121.944 6.07191 121.988C6.04447 122.132 5.96561 122.26 5.85015 122.35L-6.46914 131.18C-6.49823 131.203 -6.5221 131.231 -6.53912 131.264C-6.55613 131.297 -6.56588 131.333 -6.56769 131.37V144.862C-6.56516 144.903 -6.55156 144.942 -6.52839 144.975C-6.50522 145.009 -6.47334 145.035 -6.43625 145.052C-6.40112 145.06 -6.36461 145.06 -6.32948 145.052H36.0898C36.1404 145.043 36.187 145.018 36.2225 144.981C36.258 144.944 36.2806 144.897 36.2869 144.846Z" fill="#89D1FF"/>
<path d="M70.0254 102.729L58.6424 108.405L50.5281 112.449C50.4338 112.513 50.3536 112.596 50.2928 112.692C50.232 112.788 50.1919 112.896 50.1749 113.009V145.134H41.1408V139.681C41.1408 139.519 41.2048 139.364 41.3188 139.25C41.4328 139.136 41.5873 139.071 41.7485 139.071H44.7462V94.8547C44.7462 94.693 44.8103 94.5379 44.9243 94.4236C45.0382 94.3093 45.1928 94.2451 45.3539 94.2451H54.848V61.2143V52.1865V40.4899C54.8332 40.2619 54.7308 40.0486 54.5622 39.8949C54.3937 39.7412 54.1722 39.6593 53.9446 39.6661H27.1954C26.6205 39.6661 26.4562 39.9956 26.4562 40.4899V69.575L35.8599 72.3179C35.9857 72.3552 36.096 72.4324 36.1744 72.5378C36.2529 72.6432 36.2952 72.7713 36.2952 72.9028V144.804C36.293 144.866 36.267 144.925 36.2226 144.968C36.1781 145.011 36.1188 145.035 36.057 145.035H70.7234V103.256C70.7382 103.167 70.7283 103.076 70.6949 102.992C70.6614 102.908 70.6057 102.835 70.5338 102.781C70.4618 102.726 70.3764 102.693 70.2867 102.684C70.1971 102.675 70.1067 102.69 70.0254 102.729ZM61.0487 125.406C61.0487 125.446 61.0408 125.485 61.0254 125.521C61.0101 125.558 60.9876 125.591 60.9593 125.619C60.9309 125.646 60.8973 125.668 60.8605 125.682C60.8237 125.697 60.7843 125.704 60.7448 125.703H54.7084C54.6292 125.703 54.5531 125.672 54.4964 125.616C54.4396 125.561 54.4067 125.485 54.4045 125.406V119.344C54.4045 118.46 54.7545 117.612 55.3775 116.988C56.0005 116.363 56.8456 116.012 57.7267 116.012C58.6077 116.012 59.4527 116.363 60.0757 116.988C60.6987 117.612 61.0487 118.46 61.0487 119.344V125.406Z" fill="#A3DBFF"/>
<path d="M57.7309 116.007C56.8629 116.017 56.0335 116.368 55.4197 116.983C54.8059 117.599 54.4564 118.431 54.4457 119.301V125.364C54.4479 125.443 54.4808 125.519 54.5376 125.574C54.5943 125.63 54.6704 125.661 54.7496 125.66H60.786C60.8255 125.662 60.8649 125.655 60.9017 125.64C60.9385 125.626 60.972 125.604 61.0004 125.577C61.0287 125.549 61.0513 125.516 61.0666 125.479C61.082 125.443 61.0899 125.404 61.0899 125.364V119.301C61.0791 118.418 60.7193 117.575 60.0896 116.957C59.4598 116.34 58.6116 115.998 57.7309 116.007Z" fill="#BCE5FF"/>
<path d="M19.9271 82.6644C19.9271 81.4978 19.465 80.379 18.6425 79.5541C17.8201 78.7292 16.7045 78.2658 15.5414 78.2658H13.7592C13.791 78.0585 13.8101 77.8494 13.8167 77.6398C13.8167 76.4746 13.3558 75.357 12.5351 74.5324C11.7144 73.7077 10.601 73.2434 9.43927 73.2412H-4.76079C-5.92394 73.2412 -7.03939 73.7045 -7.86186 74.5294C-8.68433 75.3543 -9.14642 76.4732 -9.14642 77.6398C-9.14642 78.8064 -8.68433 79.9251 -7.86186 80.75C-7.03939 81.5749 -5.92394 82.0384 -4.76079 82.0384H-2.97856C-3.01709 82.2449 -3.03902 82.4543 -3.04423 82.6644C-3.04423 83.831 -2.58224 84.9498 -1.75977 85.7747C-0.937295 86.5996 0.178257 87.063 1.34141 87.063H15.5414C16.7045 87.063 17.8201 86.5996 18.6425 85.7747C19.465 84.9498 19.9271 83.831 19.9271 82.6644Z" fill="#A3DBFF"/>
<path d="M18.5168 41.2376C18.0021 43.7689 13.7531 46.3458 13.0292 46.7171C12.9704 46.7318 12.9091 46.7342 12.8492 46.724C12.7894 46.7138 12.7323 46.6914 12.6816 46.658C11.2169 44.6937 9.25614 42.2316 9.71512 39.4674C10.1741 36.7032 12.6091 34.9988 15.1149 35.5084C17.6207 36.018 19.0753 38.4937 18.5168 41.2376Z" fill="#FF7F4C"/>
<path d="M10.5032 38.5021C10.4736 38.5023 10.4445 38.4948 10.4188 38.4802C10.3802 38.4579 10.352 38.4213 10.3403 38.3783C10.3286 38.3353 10.3344 38.2894 10.3564 38.2507C10.4308 38.1187 10.5148 37.9923 10.6078 37.8727C10.6217 37.8553 10.6389 37.8409 10.6584 37.8303C10.6779 37.8196 10.6994 37.8129 10.7215 37.8105C10.7436 37.8082 10.766 37.8102 10.7873 37.8166C10.8086 37.8229 10.8285 37.8333 10.8457 37.8474C10.8629 37.8614 10.8772 37.8787 10.8877 37.8983C10.8982 37.9179 10.9047 37.9393 10.9069 37.9614C10.9091 37.9835 10.9069 38.0059 10.9005 38.0271C10.894 38.0484 10.8835 38.0681 10.8693 38.0853C10.7886 38.1927 10.7154 38.3055 10.65 38.4228C10.6345 38.4476 10.6128 38.468 10.5871 38.4819C10.5613 38.4958 10.5324 38.5028 10.5032 38.5021Z" fill="#C35500"/>
<path d="M9.94969 57.1326C9.93089 57.1323 9.91241 57.1277 9.8957 57.1191C9.8826 57.112 9.87104 57.1024 9.86166 57.0909C9.85228 57.0793 9.84527 57.066 9.84103 57.0518C9.8368 57.0375 9.83543 57.0225 9.83699 57.0077C9.83855 56.9929 9.84302 56.9786 9.85014 56.9655C9.9227 56.8288 9.94463 56.7208 9.91257 56.6584C9.88051 56.596 9.85351 56.6061 9.78601 56.5808C9.68392 56.5539 9.59657 56.4878 9.54302 56.3968C9.52052 56.3464 9.50959 56.2916 9.51105 56.2364C9.51251 56.1812 9.52632 56.127 9.55146 56.0779C9.58365 55.9873 9.60516 55.8933 9.61558 55.7978C9.6242 55.7203 9.61848 55.6419 9.59871 55.5666C9.5789 55.4923 9.57148 55.4154 9.57677 55.3387C9.59027 55.1481 9.59196 54.9692 9.59365 54.7802C9.59534 54.5912 9.59365 54.4258 9.60546 54.2064C9.6542 53.6899 9.73536 53.177 9.84845 52.6707C9.89609 52.4939 9.92771 52.3132 9.94294 52.1307C9.90413 51.611 10.5032 50.8853 10.9402 50.3537C11.0611 50.22 11.1738 50.0791 11.2777 49.9319C11.7543 49.1285 12.1891 48.301 12.5804 47.4529C12.5932 47.4258 12.6162 47.4049 12.6443 47.3948C12.6725 47.3847 12.7035 47.3861 12.7306 47.3988C12.7439 47.405 12.7559 47.4138 12.7658 47.4246C12.7758 47.4354 12.7835 47.4481 12.7885 47.4619C12.7935 47.4757 12.7957 47.4903 12.7951 47.505C12.7944 47.5197 12.7908 47.5341 12.7846 47.5474C12.3905 48.4032 11.9523 49.2379 11.4718 50.0483C11.3648 50.2051 11.2487 50.3556 11.1241 50.4989C10.7343 50.9714 10.1454 51.6801 10.1775 52.1155C10.1649 52.3233 10.1304 52.5292 10.0746 52.7298C9.96729 53.2203 9.88897 53.7168 9.84001 54.2165C9.82989 54.4308 9.8282 54.6097 9.8282 54.7819C9.8282 54.954 9.8282 55.1565 9.81132 55.3556C9.80654 55.4124 9.81226 55.4696 9.8282 55.5244C9.85264 55.6231 9.85949 55.7253 9.84845 55.8264C9.83783 55.9416 9.81289 56.055 9.7742 56.164C9.74383 56.2551 9.73708 56.2804 9.75227 56.3091C9.76746 56.3378 9.80795 56.3597 9.87376 56.3833C9.97036 56.4091 10.0547 56.4683 10.1117 56.5504C10.1453 56.6354 10.1572 56.7274 10.1463 56.8182C10.1354 56.9089 10.102 56.9955 10.0493 57.0702C10.04 57.0887 10.0258 57.1043 10.0082 57.1153C9.99067 57.1263 9.97042 57.1323 9.94969 57.1326Z" fill="#D5DADD"/>
<path d="M12.6817 46.653L12.1754 47.328C12.1657 47.3413 12.1595 47.3569 12.1575 47.3732C12.1555 47.3896 12.1578 47.4062 12.164 47.4214C12.1703 47.4367 12.1804 47.4501 12.1933 47.4603C12.2062 47.4705 12.2216 47.4773 12.2379 47.4799L13.1524 47.6486C13.1685 47.651 13.1849 47.6493 13.2002 47.6437C13.2154 47.6381 13.229 47.6286 13.2396 47.6163C13.2502 47.604 13.2575 47.5892 13.2609 47.5733C13.2642 47.5575 13.2635 47.541 13.2588 47.5254L13.0242 46.7036" fill="#FF7F4C"/>
<path d="M63.3502 15.8366C61.4992 19.3302 54.1461 21.2747 52.9227 21.5065C52.8299 21.5027 52.7389 21.4796 52.6554 21.4388C52.572 21.398 52.4979 21.3403 52.4379 21.2694C51.1376 17.7518 49.3244 13.2886 51.1943 9.42901C53.0643 5.56945 57.3767 4.12084 60.835 5.95339C64.2933 7.78594 65.3575 12.0499 63.3502 15.8366Z" fill="#9B015D"/>
<path d="M52.769 8.35291C52.7255 8.34042 52.686 8.31673 52.6546 8.2842C52.6076 8.23482 52.582 8.16883 52.5834 8.10064C52.5848 8.03245 52.6132 7.96761 52.6622 7.92024C52.8286 7.75865 53.0067 7.60953 53.1949 7.47407C53.2229 7.45465 53.2544 7.44093 53.2877 7.43373C53.3209 7.42652 53.3553 7.42595 53.3888 7.43207C53.4222 7.43818 53.4542 7.45085 53.4827 7.46935C53.5113 7.48785 53.5359 7.51182 53.5552 7.53987C53.5744 7.56794 53.5878 7.59952 53.5948 7.63281C53.6018 7.66609 53.6021 7.70041 53.5957 7.73382C53.5894 7.76722 53.5765 7.79905 53.5578 7.82747C53.5392 7.85589 53.5151 7.88034 53.4869 7.89942C53.322 8.02217 53.1656 8.15601 53.0188 8.3C52.9853 8.32972 52.9447 8.35023 52.9009 8.3595C52.8571 8.36878 52.8116 8.36651 52.769 8.35291Z" fill="#8D2A00"/>
<path d="M43.8945 35.4652C43.867 35.4566 43.8418 35.4418 43.821 35.422C43.8049 35.4059 43.792 35.3868 43.7833 35.3658C43.7745 35.3448 43.7699 35.3223 43.7699 35.2995C43.7699 35.2767 43.7743 35.2541 43.783 35.2331C43.7917 35.212 43.8045 35.1929 43.8206 35.1768C43.9863 35.0075 44.0652 34.8585 44.0452 34.7529C44.0251 34.6474 43.9811 34.6505 43.8929 34.5842C43.7547 34.5006 43.655 34.3657 43.6158 34.209C43.6046 34.1252 43.6123 34.04 43.6383 33.9596C43.6643 33.8792 43.708 33.8057 43.7662 33.7444C43.8526 33.6253 43.9249 33.4966 43.9816 33.3608C44.0277 33.2509 44.0533 33.1333 44.0568 33.0141C44.0599 32.8966 44.0823 32.7804 44.1232 32.6702C44.2256 32.3961 44.3054 32.1342 44.3897 31.8574C44.474 31.5807 44.543 31.3371 44.6553 31.0202C44.9504 30.283 45.2915 29.5651 45.6766 28.8708C45.823 28.6318 45.9477 28.3802 46.049 28.1189C46.2169 27.339 47.4104 26.5329 48.2821 25.9416C48.5173 25.7975 48.7438 25.6395 48.9601 25.4683C50.0074 24.495 51.0038 23.4684 51.9453 22.3925C51.9758 22.3583 52.0186 22.3376 52.0643 22.335C52.11 22.3323 52.1549 22.3478 52.1892 22.3782C52.2061 22.393 52.2199 22.411 52.2298 22.4312C52.2397 22.4514 52.2455 22.4733 52.2469 22.4958C52.2483 22.5182 52.2453 22.5407 52.2379 22.5619C52.2306 22.5832 52.2191 22.6028 52.2042 22.6196C51.2554 23.7055 50.2508 24.7414 49.1946 25.7232C48.9697 25.9071 48.7341 26.0778 48.4893 26.2343C47.7126 26.7593 46.5413 27.545 46.3999 28.1981C46.2915 28.4977 46.1517 28.785 45.983 29.0553C45.6132 29.7291 45.2834 30.424 44.9953 31.1365C44.8877 31.4468 44.8078 31.7087 44.7333 31.9614C44.6588 32.2141 44.5712 32.5114 44.4603 32.7964C44.4286 32.8778 44.4123 32.9642 44.412 33.0515C44.4052 33.207 44.371 33.3601 44.311 33.5037C44.2456 33.6682 44.1599 33.8239 44.056 33.9671C43.9719 34.0878 43.9511 34.122 43.961 34.1707C43.9709 34.2194 44.0208 34.2691 44.1072 34.3323C44.2379 34.4119 44.3361 34.5353 44.3842 34.6805C44.3967 34.8198 44.3744 34.9601 44.3191 35.0886C44.2638 35.2171 44.1774 35.3298 44.0676 35.4166C44.046 35.4398 44.0184 35.4566 43.9879 35.4651C43.9573 35.4737 43.925 35.4737 43.8945 35.4652Z" fill="#D5DADD"/>
<path d="M52.4401 21.262L51.4048 22.0339C51.3847 22.0492 51.3689 22.0695 51.3589 22.0926C51.3489 22.1158 51.345 22.1411 51.3476 22.1662C51.3502 22.1913 51.3592 22.2153 51.3738 22.236C51.3883 22.2566 51.408 22.2731 51.4307 22.2839L52.7004 22.9275C52.723 22.938 52.7478 22.9426 52.7726 22.9409C52.7974 22.9392 52.8214 22.9313 52.8423 22.9178C52.8632 22.9043 52.8804 22.8858 52.8922 22.8639C52.904 22.842 52.9101 22.8175 52.9098 22.7926L52.9211 21.4846" fill="#9B015D"/>
<path d="M72.9428 91.9687C72.1541 95.0704 66.7412 98.0045 65.8231 98.4205C65.7494 98.4352 65.6734 98.4345 65.5999 98.4183C65.5265 98.4021 65.4572 98.3709 65.3965 98.3266C63.7017 95.8078 61.4229 92.6432 62.1567 89.25C62.8905 85.8567 66.0062 83.8935 69.0766 84.6745C72.1471 85.4556 73.7987 88.6065 72.9428 91.9687Z" fill="#9B015D"/>
<path d="M63.1898 88.1027C63.1532 88.1012 63.1177 88.0901 63.0867 88.0705C63.0403 88.0407 63.0076 87.9937 62.9957 87.9397C62.9838 87.8858 62.9937 87.8294 63.0232 87.7828C63.1233 87.6239 63.2348 87.4726 63.3571 87.3301C63.3753 87.3094 63.3975 87.2926 63.4223 87.2806C63.4471 87.2686 63.474 87.2616 63.5015 87.26C63.529 87.2584 63.5565 87.2623 63.5826 87.2714C63.6086 87.2805 63.6325 87.2946 63.653 87.313C63.6735 87.3314 63.6901 87.3537 63.7019 87.3785C63.7138 87.4034 63.7206 87.4303 63.7219 87.4578C63.7233 87.4853 63.7193 87.5128 63.71 87.5387C63.7008 87.5647 63.6865 87.5885 63.668 87.6089C63.5617 87.7369 63.4642 87.8721 63.3763 88.0134C63.3556 88.0432 63.3275 88.0671 63.2949 88.0827C63.2622 88.0984 63.226 88.1053 63.1898 88.1027Z" fill="#8D2A00"/>
<path d="M65.3968 98.3204L64.7298 99.1254C64.7169 99.1412 64.7084 99.1601 64.7049 99.1803C64.7015 99.2004 64.7033 99.2211 64.7101 99.2403C64.7169 99.2596 64.7286 99.2767 64.744 99.2902C64.7594 99.3036 64.778 99.3129 64.798 99.3171L65.9197 99.5808C65.9394 99.5847 65.9598 99.5836 65.979 99.5776C65.9982 99.5715 66.0156 99.5606 66.0294 99.5461C66.0433 99.5315 66.0533 99.5136 66.0584 99.4941C66.0635 99.4747 66.0636 99.4542 66.0586 99.4347L65.8177 98.4036" fill="#9B015D"/>
<path d="M85.0359 90.4706C84.9469 90.4444 84.872 90.384 84.8277 90.3025C84.7833 90.2211 84.7732 90.1254 84.7994 90.0364C84.9365 89.5712 84.9262 89.2272 84.7866 89.0626C84.647 88.898 84.5715 88.9345 84.343 88.9319C84.014 88.9152 83.7044 88.7712 83.4796 88.5304C83.3783 88.3904 83.3095 88.2296 83.2783 88.0597C83.247 87.8898 83.254 87.715 83.2988 87.5481C83.3401 87.2511 83.3439 86.95 83.3102 86.652C83.2879 86.4099 83.2197 86.1743 83.1091 85.9578C83.0006 85.7538 82.9265 85.5334 82.89 85.3052C82.8148 84.7295 82.894 84.1442 83.1195 83.6091C82.6742 83.0923 82.3719 82.4681 82.2422 81.7984C82.0653 80.7232 82.4813 79.6112 82.9122 78.4683C82.9473 78.3493 82.9808 78.2357 83.0126 78.1275C83.2159 77.6764 83.3384 77.1932 83.3747 76.6997C83.3981 76.2303 83.3375 75.7605 83.1957 75.3124C82.6511 73.4704 83.6558 70.1214 84.4579 67.7591L84.4834 67.6726C85.4146 64.9093 86.1998 62.0989 86.8357 59.253C86.8414 59.2034 86.8575 59.1556 86.8829 59.1127C86.9083 59.0697 86.9424 59.0326 86.9831 59.0037C87.0238 58.9748 87.0702 58.9548 87.1191 58.9451C87.168 58.9353 87.2185 58.9359 87.2672 58.9469C87.3158 58.9579 87.3616 58.9791 87.4016 59.009C87.4415 59.0389 87.4747 59.0769 87.499 59.1205C87.5233 59.1641 87.5382 59.2123 87.5426 59.2621C87.547 59.3118 87.5408 59.3619 87.5246 59.4091C86.8818 62.2784 86.0897 65.1122 85.1515 67.8989L85.1452 67.9206C83.9532 71.426 83.532 73.8123 83.883 75.0152C84.0577 75.5475 84.1319 76.1076 84.1015 76.667C84.0647 77.2349 83.9266 77.7915 83.6935 78.3106C83.6617 78.4188 83.6298 78.5269 83.5963 78.6405C83.1701 79.7672 82.8017 80.758 82.9555 81.6323C83.0369 82.0835 83.221 82.51 83.4935 82.8786C83.7936 82.4213 84.2468 82.0859 84.7718 81.9325C85.4548 81.7693 86.3556 81.9643 86.6232 82.5723C86.6881 82.7427 86.7136 82.9256 86.6978 83.1073C86.6819 83.2889 86.625 83.4646 86.5315 83.6212C86.4272 83.8635 86.2676 84.0781 86.0656 84.2478C85.8636 84.4174 85.6246 84.5375 85.3679 84.5984C85.1112 84.6593 84.8438 84.6592 84.5871 84.5983C84.3304 84.5374 84.0915 84.4173 83.8895 84.2476L83.7009 84.1097C83.5982 84.4394 83.5678 84.7874 83.6118 85.1299C83.6313 85.2982 83.6831 85.4612 83.7643 85.61C83.9069 85.895 83.9952 86.2042 84.0247 86.5216C84.0631 86.8724 84.0594 87.2266 84.0135 87.5766C83.9793 87.8722 83.9786 87.9543 84.0438 88.0323C84.109 88.1103 84.2442 88.1502 84.4632 88.1853C84.7938 88.2003 85.1058 88.3428 85.3336 88.583C85.4937 88.8193 85.5914 89.0923 85.6176 89.3765C85.6438 89.6608 85.5977 89.947 85.4835 90.2087C85.4571 90.2981 85.3966 90.3737 85.3151 90.4189C85.2336 90.4642 85.1375 90.4756 85.0477 90.4506L85.0359 90.4706ZM83.9829 83.452C84.0758 83.5369 84.1745 83.6152 84.2784 83.6861C84.5345 83.891 84.8608 83.9872 85.1871 83.954C85.3405 83.9033 85.4821 83.8222 85.6035 83.7155C85.7248 83.6088 85.8234 83.4788 85.8933 83.3331C85.9765 83.198 86.0053 83.0362 85.9738 82.8806C85.8376 82.7528 85.6698 82.6636 85.4877 82.6224C85.3056 82.5811 85.1157 82.5892 84.9378 82.6458C84.5262 82.7792 84.1834 83.0686 83.9829 83.452Z" fill="#D5DADD"/>
<path d="M109.384 39.9774C106.693 48.3678 91.283 55.5137 88.7092 56.5071C88.5041 56.534 88.2956 56.5176 88.0972 56.4591C87.8988 56.4007 87.7148 56.3013 87.5571 56.1675C83.3229 48.952 77.5954 39.8618 80.1897 30.6611C82.7841 21.4604 91.6863 16.5882 99.9788 19.25C108.271 21.9117 112.314 30.8523 109.384 39.9774Z" fill="#FF7F4C"/>
<path d="M87.5587 56.162L85.6006 58.2776C85.5618 58.3191 85.5344 58.3701 85.5212 58.4254C85.5081 58.4807 85.5095 58.5384 85.5255 58.593C85.5415 58.6475 85.5714 58.697 85.6123 58.7365C85.6532 58.776 85.7037 58.8041 85.7587 58.8181L88.804 59.7157C88.8578 59.7302 88.9144 59.7308 88.9684 59.7173C89.0224 59.7038 89.0722 59.6767 89.1128 59.6387C89.1535 59.6006 89.1837 59.5528 89.2007 59.4998C89.2177 59.4467 89.2209 59.3902 89.21 59.3356L88.7289 56.46" fill="#FF7F4C"/>
<path d="M85.5411 24.7716C85.4917 24.7558 85.4451 24.7321 85.4031 24.7015C85.3682 24.6705 85.3398 24.6328 85.3195 24.5907C85.2992 24.5486 85.2874 24.503 85.2847 24.4563C85.2821 24.4097 85.2887 24.363 85.3041 24.3189C85.3196 24.2748 85.3436 24.2341 85.3747 24.1993C86.704 22.7905 88.3019 21.6623 90.0741 20.881C90.1162 20.8542 90.1635 20.8365 90.2128 20.8292C90.2622 20.8218 90.3125 20.8249 90.3606 20.8383C90.4087 20.8517 90.4534 20.8751 90.4918 20.9069C90.5303 20.9387 90.5616 20.9783 90.5837 21.023C90.6058 21.0678 90.6183 21.1167 90.6202 21.1665C90.6222 21.2164 90.6136 21.2662 90.5951 21.3125C90.5765 21.3588 90.5485 21.4007 90.5126 21.4355C90.4768 21.4703 90.4341 21.4971 90.3872 21.5142C88.6956 22.2596 87.1695 23.3349 85.8983 24.677C85.8539 24.7251 85.7967 24.7596 85.7335 24.7763C85.6702 24.7931 85.6035 24.7915 85.5411 24.7716Z" fill="#C35500"/>
<path d="M83.1926 27.4541L83.079 27.4206C83.0411 27.3936 83.009 27.3594 82.9845 27.3198C82.96 27.2803 82.9436 27.2363 82.9364 27.1903C82.9291 27.1444 82.9311 27.0975 82.9422 27.0523C82.9533 27.0071 82.9733 26.9646 83.001 26.9273C83.2979 26.5189 83.6223 26.1313 83.972 25.7672C84.0388 25.7019 84.1288 25.6658 84.2222 25.6669C84.3156 25.6679 84.4047 25.7061 84.47 25.7729C84.5353 25.8397 84.5714 25.9297 84.5703 26.0231C84.5692 26.1165 84.5311 26.2056 84.4643 26.2709C84.1374 26.6043 83.8357 26.9615 83.5615 27.3394C83.5168 27.391 83.4585 27.429 83.3933 27.4493C83.3282 27.4696 83.2586 27.4712 83.1926 27.4541Z" fill="#C35500"/>
</g>
</svg>
