<svg width="128" height="61" viewBox="0 0 128 61" fill="none" xmlns="http://www.w3.org/2000/svg">
<g clip-path="url(#clip0_4038_85642)">
<rect x="0.657959" y="5.52051" width="127" height="54.7687" rx="9.5454" fill="#D5DADD"/>
<rect x="0.657959" y="5.52051" width="127" height="54.7687" rx="8" fill="#222F3B"/>
<path d="M79.8579 14.7102C79.3538 13.5632 78.2585 12.9719 76.8535 13.083C75.778 13.1703 74.9842 13.5195 74.4882 14.1268C73.7142 15.0753 73.873 16.377 73.9881 17.3295C74.0317 17.6748 74.0714 18.032 74.0476 18.2185C74.0476 18.2344 74.0436 18.2424 74.0436 18.2424C74.0238 18.2622 73.9921 18.2781 73.9484 18.2939C73.9365 16.9604 73.8452 15.5873 73.6507 14.1823L73.2697 11.3844C73.7063 10.9121 73.9127 10.4438 73.8531 9.99529C73.8531 9.98338 73.8532 9.97148 73.8492 9.95957L73.5952 8.10219C73.2737 5.75666 65.7609 4.83988 56.8074 6.06226C47.8578 7.28463 40.8609 10.1739 41.1784 12.5234L41.4324 14.3808C41.4324 14.3808 41.4324 14.4046 41.4364 14.4165C41.5118 14.9681 41.9881 15.4404 42.7858 15.8214C42.9406 16.9446 43.0715 17.9209 43.1192 18.2741C42.9922 18.0558 42.8374 17.8455 42.635 17.6669C42.0476 17.147 41.2062 16.9287 40.1307 17.016C38.7257 17.1311 37.7415 17.8891 37.424 19.1036C36.9081 21.0879 38.2376 23.7351 40.5196 25.2631C42.1746 26.3704 43.5756 27.4181 44.6709 28.3627L43.6351 29.4461L43.5954 29.4819C43.5954 29.4819 42.4008 30.5177 41.8809 31.2916C41.365 32.0695 42.1389 33.8792 43.012 37.594C43.8851 41.3127 43.8018 44.1027 43.8018 44.1027C43.6589 44.6703 43.4684 45.2259 43.2303 45.7656L42.4405 47.5436L40.4998 51.941H40.4958L32.0106 71.118H38.8885H44.8257C46.445 66.8318 49.5446 58.1521 51.4496 52.9729L52.6402 59.9222C52.6402 59.9222 52.6481 59.9658 52.6719 60.0254C52.6799 60.0412 52.6878 60.0571 52.6957 60.073C52.7077 60.0928 52.7156 60.1087 52.7315 60.1325C52.7434 60.1524 52.7632 60.1722 52.7791 60.192C52.787 60.2039 52.795 60.2119 52.8029 60.2238C52.8029 60.2238 52.8108 60.2317 52.8148 60.2357C52.9259 60.3468 53.0887 60.45 53.299 60.5373C53.3823 60.5849 53.5292 60.6286 53.6919 60.6723C53.9181 60.7397 54.1801 60.7953 54.4698 60.8429C54.4936 60.8469 54.5095 60.8509 54.5095 60.8509C56.6923 61.208 60.5499 61.1009 64.8679 60.6524C71.3846 59.9777 76.4844 58.2751 76.2542 56.9774L74.893 49.27H74.8691C74.8691 49.27 74.8691 49.27 74.8691 49.2661H74.893L74.7183 47.9921C74.4167 46.2459 69.6264 46.2935 64.8441 44.7774L63.3558 37.3122C66.5665 36.2644 69.2534 33.8475 71.1147 30.4939C71.206 30.6328 71.3092 30.7598 71.4362 30.863C71.7854 31.1567 72.222 31.2837 72.7022 31.244C72.9364 31.2241 73.1824 31.1646 73.4364 31.0694C73.7698 30.9384 73.9325 30.5653 73.8016 30.2319C73.6706 29.8986 73.2975 29.7359 72.9641 29.8668C72.7816 29.9383 72.4482 30.0335 72.2617 29.8748C72.0791 29.72 71.9442 29.2715 72.091 28.4698C72.2418 28.1087 72.3807 27.7396 72.5117 27.3625C73.3094 25.8703 75.1509 23.7351 77.7782 21.2864C79.7864 19.4131 80.6754 16.5874 79.8499 14.7102H79.8579ZM58.9584 37.8678L59.1608 40.1379L59.5815 45.722C59.5815 45.722 57.2162 47.1468 56.1327 47.7024C56.1208 47.7064 56.1128 47.7143 56.1009 47.7183C56.0851 47.7262 56.0692 47.7341 56.0533 47.7421C56.0017 47.7699 55.9462 47.7937 55.8946 47.8214C55.5771 47.9723 54.8032 48.3453 54.0173 48.7224C56.3629 44.8806 56.1327 37.4313 56.1327 37.4313C56.4581 37.5305 57.113 37.6337 57.7162 37.713C58.129 37.7845 58.5417 37.84 58.9584 37.8678ZM43.6787 21.3578L43.7145 21.5324L43.7422 21.6356C43.7422 21.6356 43.7462 21.6594 43.7502 21.6753C43.7422 21.6753 43.7303 21.6714 43.7264 21.6674C43.7264 21.6674 43.7224 21.6594 43.7145 21.6436C43.6906 21.5602 43.6708 21.4372 43.6589 21.2943C43.6629 21.3181 43.6708 21.3419 43.6748 21.3618L43.6787 21.3578ZM41.234 24.1915C39.2337 22.854 38.3447 20.6792 38.6702 19.429C38.8448 18.7504 39.3727 18.3733 40.2299 18.3059C40.9403 18.2503 41.4602 18.3614 41.7737 18.6353C42.2778 19.0837 42.3135 19.9965 42.3492 20.8022C42.3691 21.2705 42.3849 21.6753 42.4881 22.0166C42.6072 22.4016 42.8651 22.6913 43.2303 22.8501C43.4922 22.9652 43.7978 22.9969 44.1034 22.981L44.1312 23.0604C44.3217 23.7153 44.532 24.3542 44.7622 24.9734L44.7741 25.0091L44.8059 25.0845C45.044 25.7195 45.298 26.3346 45.5718 26.926L45.5877 26.9657L45.7107 27.2673L45.5639 27.4221C44.2264 26.2592 42.6469 25.1242 41.238 24.1836L41.234 24.1915ZM76.9051 20.3418C75.774 21.3975 74.5278 22.6318 73.4563 23.874C73.7142 22.5167 73.873 21.0879 73.9246 19.6076C74.2143 19.5719 74.4881 19.4885 74.7183 19.3417C75.0557 19.1234 75.2621 18.798 75.3176 18.3971C75.3652 18.0439 75.3176 17.6431 75.2621 17.1748C75.1628 16.3731 75.0557 15.4642 75.4803 14.9443C75.7462 14.6189 76.2384 14.4284 76.9488 14.3689C77.806 14.3014 78.3855 14.5911 78.6672 15.2301C79.1872 16.4088 78.6593 18.6988 76.8972 20.3418H76.9051Z" fill="#101619"/>
</g>
<path fill-rule="evenodd" clip-rule="evenodd" d="M83.0895 46.1328L59.4318 48.5855L60.8129 56.2888L60.8367 56.7889C61.0709 58.0867 66.5477 58.1899 73.0644 57.5112C79.5811 56.8365 84.6809 55.1339 84.4508 53.8362" fill="#D0CDB3"/>
<path d="M71.6893 50.8678C78.2089 49.9782 83.305 47.8714 83.0718 46.1623C82.8386 44.4531 77.3643 43.7887 70.8447 44.6783C64.3251 45.5679 59.229 47.6746 59.4622 49.3838C59.6954 51.093 65.1697 51.7574 71.6893 50.8678Z" fill="#D0B863"/>
<path fill-rule="evenodd" clip-rule="evenodd" d="M82.9145 44.851C82.5534 42.7674 75.7827 43.2396 70.278 40.5488C65.7219 45.0534 59.0465 45.9781 59.2568 48.0775L59.4314 49.3515L83.0891 46.1249L82.9145 44.851Z" fill="#D0B863"/>
<path fill-rule="evenodd" clip-rule="evenodd" d="M66.5157 27.5993L67.9444 43.4901C68.0794 44.4148 69.9486 45.0578 70.8694 44.9228C71.7941 44.7879 73.4451 43.9307 73.3141 43.0059L70.1947 27.3572C70.1272 26.9008 68.6945 26.5833 68.2341 26.6468C67.7777 26.7142 66.4482 27.1389 66.5157 27.5953V27.5993Z" fill="#D0B863"/>
<path fill-rule="evenodd" clip-rule="evenodd" d="M81.8439 11.041L81.2366 6.58412C81.0342 5.10775 79.6769 4.07587 78.2005 4.27828L53.0188 7.71125C52.3084 7.8065 51.6695 8.18353 51.2369 8.75106C50.8043 9.31859 50.6138 10.0369 50.713 10.7473C50.9908 12.7952 51.3321 15.2757 51.3321 15.2757C53.0466 27.6542 61.1111 35.7862 69.5209 34.6432C77.9426 33.4962 83.5425 23.4553 81.8478 11.041H81.8439Z" fill="#D0B863"/>
<path d="M61.5075 50.7965C61.4956 50.221 61.6543 49.0264 61.948 48.5343C62.325 47.9033 63.4085 46.8674 64.0038 46.4348C65.254 45.53 69.3219 43.2876 69.3219 43.2876L68.6195 33.7626L61.9877 30.5717L57.2887 23.6066L54.5741 13.6093L50.8792 12.002L51.4784 16.32L51.9071 18.3916L52.292 19.8442L52.9627 21.8762L53.7763 23.8368L56.5108 30.5638C56.5108 30.5638 62.1028 33.3776 64.3253 34.2905C64.996 34.5643 67.1471 34.7429 67.1471 34.7429L67.7741 42.5851C67.7741 42.5851 65.0674 44.2163 64.1189 44.6687C63.4363 44.9942 60.3875 46.5491 60.3875 46.5491C60.3875 46.5491 59.6178 47.0406 59.3953 47.5413C59.1435 48.1079 59.3953 49.1288 59.3953 49.1288C59.3953 49.1288 59.6917 50.058 59.7922 50.121C59.9946 50.248 60.8169 50.5901 60.8169 50.5901" fill="#C35500"/>
<path fill-rule="evenodd" clip-rule="evenodd" d="M81.7852 4.96484L49.3684 9.38603L49.6224 11.2434C49.6224 11.2434 49.6224 11.2672 49.6264 11.2791C49.9478 13.6247 57.4686 14.5375 66.4142 13.3191C75.3598 12.1007 82.3606 9.20347 82.0431 6.85794C82.0431 6.84603 82.0431 6.83412 82.0392 6.82222L81.7852 4.96484Z" fill="#D0CDB3"/>
<path d="M66.158 11.4228C75.11 10.2013 82.1073 7.30789 81.7869 4.96022C81.4666 2.61255 73.9499 1.69961 64.9979 2.9211C56.046 4.1426 49.0486 7.03597 49.369 9.38364C49.6893 11.7313 57.206 12.6443 66.158 11.4228Z" fill="#D0B863"/>
<path fill-rule="evenodd" clip-rule="evenodd" d="M65.0291 4.19461C56.8892 5.30586 49.8129 7.61964 50.1066 9.75483C50.3963 11.89 57.9647 12.5845 66.1046 11.4733C74.2445 10.362 81.7296 7.6117 81.4399 5.47652C81.1502 3.34133 73.173 3.08336 65.0331 4.19064L65.0291 4.19461Z" fill="#450B00"/>
<path d="M55.324 31.1392C55.0898 31.1591 54.8358 31.1392 54.5699 31.0837C54.2207 31.0083 53.9984 30.6669 54.0738 30.3177C54.1492 29.9684 54.4905 29.7462 54.8398 29.8216C55.0303 29.8613 55.3756 29.901 55.5343 29.7184C55.6931 29.5319 55.7605 29.0477 55.4589 28.242C54.9469 26.8768 52.4863 24.6464 48.712 22.1222C46.43 20.5982 45.0965 17.9511 45.6164 15.9627C45.9299 14.7483 46.9182 13.9903 48.3231 13.8752C49.3986 13.7879 50.24 14.0061 50.8274 14.526C51.7442 15.3396 51.7958 16.6493 51.8354 17.6098C51.8513 17.959 51.8632 18.3162 51.9188 18.4948C51.9228 18.5107 51.9267 18.5186 51.9307 18.5186C52.0815 18.6416 52.907 18.4988 53.6174 18.1535C53.9389 17.9987 54.3238 18.1336 54.4786 18.4511C54.6334 18.7726 54.4985 19.1576 54.181 19.3124C53.8913 19.4513 52.403 20.1299 51.4306 19.7053C51.0655 19.5465 50.8075 19.2568 50.6885 18.8718C50.5853 18.5305 50.5694 18.1257 50.5496 17.6574C50.5178 16.8517 50.4821 15.9389 49.9741 15.4904C49.6606 15.2126 49.1407 15.1015 48.4303 15.161C47.573 15.2285 47.0452 15.6095 46.8705 16.2842C46.5451 17.5304 47.4341 19.7053 49.4343 21.0467C52.3038 22.9636 55.8875 25.6901 56.6733 27.7856C57.1099 28.9524 57.0543 29.9367 56.5186 30.5598C56.2209 30.9051 55.8121 31.0995 55.3279 31.1392H55.324Z" fill="#C35500"/>
<path d="M80.8991 28.1028C80.4149 28.1425 79.9783 28.0115 79.633 27.7218C79.002 27.194 78.7916 26.2296 79.0377 25.0072C79.4782 22.8125 82.5778 19.5462 85.102 17.1967C86.8641 15.5536 87.3919 13.2676 86.872 12.0849C86.5902 11.446 86.0108 11.1562 85.1536 11.2237C84.4431 11.2793 83.9471 11.4737 83.6851 11.7992C83.2565 12.3231 83.3676 13.2319 83.4668 14.0296C83.5224 14.494 83.574 14.8988 83.5224 15.252C83.4668 15.6528 83.2605 15.9783 82.9231 16.1966C82.0341 16.7681 80.4545 16.3394 80.145 16.2481C79.8037 16.145 79.6092 15.7878 79.7124 15.4465C79.8156 15.1051 80.1728 14.9107 80.5141 15.0139C81.2721 15.2401 82.1095 15.252 82.2365 15.1012C82.2365 15.1012 82.2365 15.0932 82.2405 15.0774C82.2683 14.8908 82.2246 14.5336 82.181 14.1884C82.0659 13.2359 81.9071 11.9341 82.681 10.9856C83.1771 10.3784 83.9709 10.0291 85.0464 9.9418C86.4513 9.82671 87.5467 10.422 88.0507 11.569C88.8802 13.4462 87.9872 16.272 85.9791 18.1452C82.6572 21.2408 80.5855 23.8364 80.2998 25.2651C80.1291 26.1105 80.272 26.5788 80.4585 26.7376C80.6451 26.8963 80.9784 26.8011 81.161 26.7296C81.4944 26.5986 81.8674 26.7653 81.9984 27.0947C82.1294 27.4241 81.9627 27.8012 81.6333 27.9321C81.3793 28.0314 81.1332 28.0909 80.8991 28.1068V28.1028Z" fill="#D0B863"/>
<path d="M78.0454 13.5693C78.0454 13.5693 82.6015 21.3005 73.9854 29.7102C73.9854 29.7102 79.7519 22.757 78.0454 13.5693Z" fill="#D5DADD"/>
<path d="M79.125 55.4753C79.125 55.4753 74.5411 56.4397 72.9655 56.6421C71.2946 56.8564 66.2186 57.0866 66.2186 57.0866L65.6471 52.5185C65.6471 52.5185 70.7152 52.2884 72.386 52.074C73.9616 51.8716 78.5495 50.9072 78.5495 50.9072L79.121 55.4753H79.125Z" fill="#D0B863"/>
<path d="M69.326 56.9237L67.7862 57.011L67.3972 52.4311L68.9252 52.3438L69.326 56.9237Z" fill="#D5DADD"/>
<g opacity="0.35">
<path d="M68.1196 57.0114L69.7428 56.9002L71.2113 56.801L78.0137 51.0186L75.1007 51.6099L68.1196 57.0114Z" fill="#D5DADD"/>
</g>
<g opacity="0.35">
<path d="M67.322 57.0949L74.4023 51.6895L73.5212 51.7926L66.314 57.1306L67.322 57.0949Z" fill="#D5DADD"/>
</g>
<path d="M74.3536 54.8403C74.3536 54.8403 73.0161 55.1221 72.5557 55.1816C72.0676 55.2451 70.5872 55.3126 70.5872 55.3126L70.4205 53.9791C70.4205 53.9791 71.9009 53.9116 72.389 53.8481C72.8494 53.7886 74.1908 53.5068 74.1908 53.5068L74.3575 54.8403H74.3536Z" fill="#450B00"/>
<path d="M60.8375 56.7894C60.8375 56.7894 60.8454 56.8966 60.9367 57.0117C61.0121 57.1109 61.1669 57.2181 61.2224 57.2577C61.401 57.3927 61.8455 57.5157 62.0638 57.5792C62.2424 57.6308 62.7941 57.7221 62.7941 57.7221L61.5122 50.7887L59.6548 49.8203L60.8375 56.7855V56.7894Z" fill="#D0B863"/>
<path opacity="0.8" fill-rule="evenodd" clip-rule="evenodd" d="M49.3715 9.38672C49.3715 9.38672 49.5184 10.9623 49.6692 11.4663C49.7406 11.6965 49.9867 12.1212 50.1931 12.272C50.5304 12.5101 51.3599 12.8832 52.0703 13.1015C53.0386 13.4031 53.9832 13.5222 53.9832 13.5222L53.4395 11.5894C53.4395 11.5894 51.7171 11.1925 51.1892 11.002C50.8161 10.8671 50.0105 10.3511 49.7366 10.0614C49.5501 9.86694 49.3676 9.38672 49.3676 9.38672H49.3715Z" fill="#C35500"/>
<path fill-rule="evenodd" clip-rule="evenodd" d="M53.4389 11.5891C53.4389 11.5891 52.5499 11.4501 51.776 11.1763C51.2243 10.9818 50.7163 10.6723 50.4821 10.454C50.2639 10.2516 50.1408 10.0135 50.1091 9.75946C50.0456 9.25146 50.3909 8.70774 50.887 8.36643C50.887 8.36643 51.5616 7.81477 52.5538 7.3544C53.808 6.77099 55.5066 6.23124 56.2924 5.98518C57.4314 5.63196 59.6936 5.08427 61.801 4.71121C62.9123 4.51277 64.6347 4.22305 66.2857 4.03652C68.6035 3.77459 70.7704 3.63965 70.7704 3.63965C70.7704 3.63965 64.6585 5.14777 62.1423 6.4773C60.5548 7.31471 58.7173 8.48549 57.9831 9.2078C57.6815 9.50149 56.848 10.1643 56.2726 10.9144C55.8598 11.4541 55.5344 11.8867 55.5344 11.8867" fill="#8D2A00"/>
<g clip-path="url(#clip1_4038_85642)">
<path d="M68.0242 27.2979C68.0004 27.2979 67.9805 27.3137 67.9845 27.3375C68.0083 27.4526 67.9925 27.7384 68.0083 27.79C68.0758 27.9884 68.2266 28.1472 68.4012 28.2583C68.6116 28.3932 68.8616 28.4607 69.1077 28.5163C69.5363 28.6115 69.9649 28.7187 70.3816 28.8615C70.3816 28.8615 70.4967 27.663 68.0242 27.2979Z" fill="#450B00"/>
<path d="M57.3253 30.791C57.3253 30.791 60.0995 32.2198 61.0202 32.6603C61.4131 32.8508 62.5522 33.3786 62.5522 33.3786C62.5522 33.3786 62.7268 43.3362 58.8969 46.0588C55.3132 48.6067 57.3253 30.795 57.3253 30.795V30.791Z" fill="#450B00"/>
<path d="M54.7767 21.2935C54.7767 21.2935 57.658 19.6028 58.6581 19.6068C61.6386 19.6187 68.9054 18.9996 70.1675 19.9045C71.4295 20.8093 69.4253 22.2659 67.2901 22.3294C65.1549 22.3929 62.861 22.7183 62.0831 22.5873C61.3092 22.4564 69.8738 25.8179 70.2746 27.6991C70.6794 29.5803 69.9373 30.3185 68.5284 30.12C67.1155 29.9176 63.2857 29.2469 62.6149 29.4493C61.9442 29.6517 60.8012 30.8622 60.3289 30.8622C59.8567 30.8622 59.3883 32.3386 59.5908 33.9538C59.7932 35.5652 63.6587 42.9629 59.3725 45.9196C59.3249 46.0466 59.2733 46.1736 59.2217 46.3086V46.3205C57.6739 50.3646 53.5384 62.0169 51.5778 67.2159H38.7588L47.244 48.0389H47.2479L49.1887 43.6376L49.9784 41.8596C50.2166 41.3198 50.4071 40.7642 50.5499 40.1967C50.5499 40.1967 50.6333 37.4027 49.7602 33.6879C48.887 29.9692 48.1131 28.1595 48.6291 27.3856C49.145 26.6077 50.3436 25.5758 50.3436 25.5758" fill="#C35500"/>
<path d="M50.3477 25.5644C50.3477 25.5644 49.1531 26.6002 48.6332 27.3741C48.1173 28.152 48.8912 29.9617 49.7643 33.6805C50.6374 37.3992 50.5541 40.1932 50.5541 40.1932C50.4112 40.7607 50.2207 41.3163 49.9826 41.8561L49.1928 43.6341L47.2521 48.0315H47.2481L38.7629 67.2085H45.6447C45.7479 66.6608 45.7678 66.1051 45.8273 65.5535C46.0257 63.7398 46.4107 61.9538 46.9108 60.1996C47.4069 58.4613 48.1332 56.7945 48.7285 55.0879C49.0301 54.2306 49.3 53.3615 49.5183 52.4804C49.7365 51.5994 49.9032 50.7143 50.1612 49.8412C50.6692 48.1188 51.3558 46.4559 52.0781 44.8128C52.086 44.789 52.1019 44.7731 52.1178 44.7572C52.2924 43.7254 52.598 42.7213 52.7567 41.6854C52.8401 41.1258 52.8798 40.5504 52.8163 39.9868C52.7568 39.4471 52.6178 38.9232 52.475 38.3993C52.1972 37.3833 51.9749 36.3594 51.84 35.3156C51.7169 34.375 51.5979 33.3153 51.9551 32.4144C52.2368 31.704 52.7567 31.0492 52.8322 30.2792C52.3956 30.4697 52.0424 31.0214 51.7765 31.3508C51.5344 31.6485 51.1335 32.2438 50.6732 32.0731C50.1612 31.8866 50.0262 30.9063 50.062 30.4618C50.1255 29.6998 50.8517 29.3386 51.074 28.6521C51.0859 28.6124 51.0938 28.5608 51.1018 28.5052C50.9113 28.5766 50.7208 28.5965 50.5025 28.6441C50.1771 28.7116 49.8 29.3704 49.4547 28.9656C49.2563 28.7314 49.2563 28.2274 49.3238 27.9575C49.423 27.5527 49.6929 27.2035 49.9548 26.886C50.3953 26.3502 50.8637 25.8501 51.3756 25.3818C51.959 24.846 52.5543 24.3182 53.0623 23.707C53.3005 23.4212 53.5902 23.0561 53.7132 22.6672C53.7727 22.4806 53.8918 22.1592 53.7331 22.2743C53.4989 22.4489 53.0862 22.7585 52.7567 23.0482" fill="#8D2A00"/>
<path d="M61.333 25.326C59.0073 25.4133 56.9197 26.8103 54.6615 27.3104C54.4869 27.3501 54.5345 27.6081 54.7131 27.5882C55.487 27.5049 56.2728 27.1556 57.011 26.8619C59.5153 25.8697 62.3767 25.4967 64.889 26.4651C66.0756 26.9254 67.5956 28.0089 68.8617 27.8422L69.2744 27.7906C66.8852 26.9691 63.8571 25.2308 61.3369 25.326H61.333Z" fill="#8D2A00"/>
<path d="M60.4244 21.9766C60.3292 21.9845 60.2339 22.0043 60.1387 22.0282C58.8092 22.3417 57.5907 23.0005 56.3882 23.6514C55.2174 24.2824 54.0427 24.9214 52.9552 25.6794C52.7766 25.8064 52.9394 26.0842 53.1338 25.985C54.257 25.4214 55.3524 24.6991 56.4636 24.1038C58.1583 23.195 60.0315 22.0996 61.8056 22.8418C62.0556 22.9489 65.5362 24.7348 65.6513 24.3538C65.6513 24.3538 61.2142 21.9131 60.4244 21.9805V21.9766Z" fill="#8D2A00"/>
<path d="M62.3654 27.9453C62.3456 27.9215 62.3178 27.8937 62.286 27.8858C62.2067 27.8659 62.1432 27.9493 62.1075 28.0207C61.7622 28.7629 61.8773 29.7948 60.9168 30.0646C60.6628 30.1361 60.389 30.1242 60.135 30.0567C59.9524 30.0051 59.7699 29.9495 59.5873 29.886C59.3452 29.8027 59.123 30.0607 59.246 30.2869V30.2948C59.4206 30.6163 59.4921 31.0687 58.9801 31.2433C58.8928 31.2711 58.8055 31.287 58.7142 31.291C58.5038 31.3029 58.2935 31.3148 58.0871 31.3227C57.8014 31.3386 57.7656 31.7434 58.0435 31.8109C58.0831 31.8188 58.1228 31.8268 58.1585 31.8347C58.4641 31.8903 58.857 32.1125 58.7102 32.4102C58.6546 32.5292 58.5316 32.6007 58.4046 32.6165C58.3451 32.6245 58.2657 32.6364 58.1784 32.6523C57.9085 32.6999 57.9244 33.0928 58.1982 33.1166C58.6586 33.1563 59.119 33.1841 59.5476 33.1444C59.5794 32.5451 59.9485 31.8347 60 31.2275C60.008 31.1243 60.0278 31.0965 60.0834 31.0092C60.139 30.9258 60.2739 30.8544 60.3731 30.8544C60.6152 30.8544 61.6074 30.267 62.0995 29.7868C62.5877 29.3106 62.8099 28.4652 62.3654 27.9413V27.9453Z" fill="#8D2A00"/>
</g>
<defs>
<clipPath id="clip0_4038_85642">
<rect x="0.657959" y="5.52051" width="127" height="54.7687" rx="9.5454" fill="white"/>
</clipPath>
<clipPath id="clip1_4038_85642">
<rect x="0.657959" y="5.52051" width="127" height="54.7687" rx="8" fill="white"/>
</clipPath>
</defs>
</svg>
