<svg width="320" height="240" viewBox="0 0 320 240" fill="none" xmlns="http://www.w3.org/2000/svg">
<rect y="51" width="320" height="138" rx="24" fill="#89D1FF"/>
<path d="M248.367 156.229L155.423 136.207L100.529 150.071L93 156.229L182.735 179.075L217.046 165.835L216.548 161.38L222.509 164.246H226.039L248.367 156.229Z" fill="#1B90FF"/>
<path d="M161.436 41.5913C158.061 41.5913 155.309 38.8393 155.309 35.4643C155.309 32.0892 158.061 29.3477 161.436 29.3477C164.811 29.3477 167.563 32.0996 167.563 35.4747C167.563 38.8497 164.811 41.6017 161.436 41.6017V41.5913ZM161.436 31.4246C159.203 31.4246 157.386 33.2419 157.386 35.4747C157.386 37.7074 159.203 39.5247 161.436 39.5247C163.668 39.5247 165.486 37.7074 165.486 35.4747C165.486 33.2419 163.668 31.4246 161.436 31.4246Z" fill="#C35500"/>
<path d="M174.624 95.5278V95.507L174.375 96.2132L173.648 95.507L154.208 95.6939L159.421 123.951L169.972 131.002L162.391 129.019V128.998L161.591 128.79L159.847 128.344L158.964 133.09L158.476 129.289L155.485 117.814L153.761 115.165L153.657 114.605L153.252 112.497L151.487 103.109L148.891 111.832L139.856 94.9151L132.275 97.9786L130.998 98.4563L136.575 91.4258C136.575 91.4258 110.228 96.2443 109.803 96.6286L109.055 116.235L107.996 144.139L168.705 157.961L168.736 157.681L171.384 131.054L174.915 95.5278H174.624Z" fill="white"/>
<path d="M151.954 114.519L147.749 117.624C147.146 118.154 146.674 118.588 145.796 117.167L137.115 101.528C136.523 100.426 135.878 99.9848 134.996 101.185L116.314 125.174C115.066 126.662 115.659 127.113 117.28 127.417L133.085 130.481L155.62 134.853L163.409 136.359C164.883 136.695 165.621 136.011 164.686 134.375L161.592 128.778L159.847 128.331L158.964 133.077L158.476 129.276L155.485 117.801L153.761 115.153L153.658 114.592C153.18 114.135 152.75 113.929 151.954 114.509V114.519Z" fill="#046C7C"/>
<path d="M182.195 101.792L175.289 167.808L100.747 150.081L102.19 104.575L102.481 93.7539L99.5943 96.5266L95.7623 97.9078L94.6927 99.9536L93.218 156.229L182.953 179.075L184.812 176.417L193.67 99.1021L188.831 96.7343L182.195 101.792Z" fill="#8D2A00"/>
<path d="M97.7145 94.0853L95.7622 97.9069L99.5942 96.5258L102.481 93.753L104.704 91.7695L100.228 93.2546L97.7145 94.0853Z" fill="#FF7F4C"/>
<path opacity="0.5" d="M97.2577 97.3633L96.1569 153.971L93.218 156.224L94.6927 99.9491L95.7623 97.9033L97.2577 97.3633Z" fill="#FF7F4C"/>
<path d="M181.894 104.72L182.195 101.792L177.979 101.158L174.115 103.827L168.726 157.942L108.016 144.12L110.353 92.6947C108.276 92.3486 106.372 92.0024 104.641 91.6562L102.481 93.754L100.757 150.06L175.299 167.797L181.894 104.72Z" fill="#C35500"/>
<path d="M182.195 101.792L183.285 94.8131L183.098 93.5462L183.254 92.0508L182.278 92.57C181.104 93.702 179.91 94.7404 178.519 95.2078C177.491 95.4155 176.847 95.5608 176.421 95.6751L174.842 96.5162L174.115 103.827L177.688 104.502L182.195 101.781V101.792Z" fill="#8D2A00"/>
<path d="M194.168 94.2281L191.095 92.5665L188 90.8945L183.285 94.8096L182.195 101.788L188.208 98.6416L193.483 100.667L194.21 94.3631L194.22 94.2592L194.168 94.2281Z" fill="#450B00"/>
<path d="M97.2576 97.3678L99.5942 96.5266L102.481 93.7539L100.747 150.081L96.1569 153.975L97.2576 97.3678Z" fill="#8D2A00"/>
<path d="M96.1569 153.972L100.747 150.078L175.289 167.805L181.322 175.407L96.1569 153.972Z" fill="#FF7F4C"/>
<path d="M103.634 80.211L117.207 31.3713L196.734 57.2814L183.285 94.7912L187.709 92.4962L191.801 93.7112L196.09 92.3404L211.563 50.4066L112.066 20L95.2223 81.9244L99.6774 80.159L101.287 81.291L103.634 80.211Z" fill="#FF7F4C"/>
<path d="M208.074 51.237L191.801 93.7108L196.09 92.34L211.563 50.4062L208.074 51.237Z" fill="#450B00"/>
<path d="M112.066 20L114.019 23.2608L208.074 51.2374L211.563 50.4066L112.066 20Z" fill="#C35500"/>
<path d="M112.066 20L114.289 22.295L97.8496 80.886L95.2223 81.9245L112.066 20Z" fill="#A93E00"/>
<path d="M97.8495 80.8878L99.6772 80.1609L101.287 81.2928L103.634 80.2128L105.451 73.6496L117.207 31.3732L114.289 22.2969" fill="#FF7F4C"/>
<path d="M110.029 93.502L110.571 92.7344L110.699 96.3734L110.194 96.5039L110.029 93.502Z" fill="#FF7F4C"/>
<path d="M102.481 93.754L106.199 93.7124L110.055 93.5445L110.561 92.7363L104.631 91.6562L102.471 93.754H102.481Z" fill="#FF7F4C"/>
<path d="M117.207 31.3732L114.289 22.2969L208.074 51.2393L196.733 57.2832L117.207 31.3732Z" fill="#8D2A00"/>
<path d="M182.953 179.074L181.322 175.408L190.793 93.4102L191.801 93.7113L194.22 94.2617L184.812 176.416L182.953 179.074Z" fill="#450B00"/>
<path d="M122.264 41.6523L111.516 79.4322L122.15 81.2807L130.261 81.6649L133.677 85.2788L141.133 85.8915L142.286 74.9044L145.588 85.9123L147.987 84.1884L150.282 82.5372L152.058 81.6857L153.896 81.8311L162.173 80.263L165.662 79.6191L166.877 79.3906L170.522 78.7156L166.95 80.1072L165.932 80.4914L155.381 84.5727V86.7431L155.392 86.7535V86.7638L158.102 88.9135H164.125H166.846L174.396 96.2244L177.657 86.9819L186.079 63.0762L122.264 41.6523Z" fill="white"/>
<path d="M150.282 82.5395L152.058 81.6879L153.896 81.8333L162.183 80.2652L165.662 79.6213C164.748 77.1186 162.838 74.9793 160.2 73.9097C155.402 71.947 150.147 74.2939 148.382 79.0398C147.759 80.7221 147.655 82.5083 147.998 84.1906L150.293 82.5395H150.282Z" fill="#046C7C"/>
<path d="M165.932 80.4922L155.381 84.5734V86.7438H155.392V86.7646L158.102 88.9142H164.125C164.717 88.2081 165.216 87.3877 165.59 86.4634C166.379 84.5007 166.441 82.4238 165.932 80.4922Z" fill="#046C7C"/>
<path d="M196.733 57.2811L117.207 31.3711L103.634 80.2107C104.568 80.0757 105.513 79.9615 106.448 79.8576C106.791 79.8161 107.133 79.785 107.487 79.7538C108.182 79.6915 108.868 79.6292 109.563 79.5773C110.207 79.5357 110.862 79.4942 111.505 79.463C111.744 79.4526 111.983 79.4319 112.222 79.4215C111.983 79.4215 111.755 79.4215 111.516 79.4423L122.274 41.6624L186.068 63.0655L173.98 97.3768C174.583 97.3041 175.195 97.2522 175.808 97.221H175.901C176.514 97.1898 177.137 97.1795 177.781 97.2106C178.01 97.1898 178.238 97.1587 178.467 97.1068C178.55 97.086 178.622 97.0652 178.705 97.0445C178.851 97.0133 178.996 96.9718 179.142 96.9302C179.235 96.8991 179.339 96.8575 179.432 96.8264C179.557 96.7848 179.682 96.7329 179.817 96.6914C179.92 96.6498 180.035 96.5979 180.138 96.5564C180.253 96.5044 180.377 96.4525 180.492 96.4006C180.606 96.3487 180.72 96.2864 180.834 96.2345C180.938 96.1825 181.052 96.1202 181.156 96.0683C181.281 96.006 181.405 95.9333 181.52 95.8606C181.613 95.8087 181.717 95.7567 181.81 95.6944C181.956 95.6114 182.091 95.5283 182.236 95.4452C182.309 95.4037 182.382 95.3621 182.454 95.3102C182.724 95.144 183.005 94.9779 183.275 94.8117L196.713 57.3019V57.2811H196.733Z" fill="#C35500"/>
</svg>
