<svg width="160" height="77" viewBox="0 0 160 77" fill="none" xmlns="http://www.w3.org/2000/svg">
<rect y="8" width="160" height="69" rx="12" fill="#222F3B"/>
<path d="M102.346 64.9953L133.905 46.8561C135.563 45.9035 135.067 43.3915 133.172 43.1396L69.412 34.6641L87.62 61.5749C90.8876 66.4037 97.3024 67.8925 102.346 64.9929V64.9953Z" fill="#101619"/>
<path d="M116.913 45.2035L116.763 45.054C116.263 44.5535 116.325 43.8877 116.907 43.5655L122.244 40.607C122.728 40.3385 123.427 40.3258 123.993 40.6158C125.101 41.1808 125.185 42.2594 124.352 42.7215L124.196 42.8077L125.984 44.5955L126.795 44.1459C127.46 43.7775 127.825 43.1662 127.788 42.4876C127.591 38.9469 123.06 37.3783 120.453 38.8232L114.384 42.1877C113.922 42.4437 113.65 42.8584 113.637 43.3282C113.563 46.087 116.013 47.7352 118.41 47.8984C118.933 47.9341 119.192 47.4823 118.85 47.1408L116.914 45.2051L116.913 45.2035Z" fill="#101619"/>
<path d="M101.5 7.99902L108 56.6591C108.285 63.6182 98.4236 68.2126 91.5211 67.5617L77.504 66.2408L101.5 7.99902Z" fill="#046C7C"/>
<path d="M42.6522 18.5537L40.0067 64.6517C39.8771 66.8981 41.6557 68.7917 43.8961 68.7917H91.4151C94.5814 68.7917 97.2057 66.3252 97.4177 63.151L100.407 18.5537H42.6522Z" fill="#D5DADD"/>
<path d="M43.5449 7.22092L42.678 18.5543H100.435L101.489 7.8742C101.722 5.51599 99.8651 3.47359 97.4955 3.4814L47.3755 3.64669C45.366 3.65379 43.7004 5.20894 43.5473 7.22092H43.5449Z" fill="#0899A7"/>
<path d="M59.2419 14.3169C60.9203 14.3169 62.2809 12.9498 62.2809 11.2634C62.2809 9.57705 60.9203 8.20996 59.2419 8.20996C57.5635 8.20996 56.2029 9.57705 56.2029 11.2634C56.2029 12.9498 57.5635 14.3169 59.2419 14.3169Z" fill="#340800"/>
<path d="M84.4583 13.7446C86.1367 13.7446 87.4973 12.3776 87.4973 10.6912C87.4973 9.00478 86.1367 7.6377 84.4583 7.6377C82.7799 7.6377 81.4193 9.00478 81.4193 10.6912C81.4193 12.3776 82.7799 13.7446 84.4583 13.7446Z" fill="#340800"/>
<path d="M58.5987 10.257H58.3749C57.6258 10.257 57.018 9.76469 57.018 9.154V3.54649C57.018 3.03757 57.3784 2.55707 57.9603 2.37007C59.0958 2.00318 60.1795 2.67542 60.1795 3.55122V3.71455H62.8557V2.86241C62.8557 2.16414 62.4622 1.50373 61.7885 1.07057C58.2736 -1.18995 54.3441 0.81256 54.3441 3.55122V9.92802C54.3441 10.4133 54.5985 10.8772 55.0438 11.2039C57.6611 13.1188 60.5564 12.5767 61.9934 11.0666C62.3068 10.7375 62.0099 10.257 61.4987 10.257H58.6011H58.5987Z" fill="#046C7C"/>
<path d="M83.7447 10.1652H83.5209C82.7718 10.1652 82.164 9.67289 82.164 9.0622V3.45469C82.164 2.94578 82.5244 2.46527 83.1063 2.27827C84.2418 1.91138 85.3255 2.58362 85.3255 3.45942V3.62275H88.0017V2.77062C88.0017 2.07234 87.6082 1.41194 86.9345 0.97877C83.4196 -1.28175 79.4901 0.720763 79.4901 3.45942V9.83622C79.4901 10.3215 79.7445 10.7854 80.1898 11.1121C82.8071 13.027 85.7024 12.4849 87.1394 10.9748C87.4528 10.6457 87.1559 10.1652 86.6447 10.1652H83.7471H83.7447Z" fill="#046C7C"/>
<path d="M60.3938 18.5537L56.7423 68.7917" stroke="#046C7C" stroke-miterlimit="10"/>
<path d="M80.9083 18.5537L77.3228 68.7917" stroke="#046C7C" stroke-miterlimit="10"/>
<path d="M99.3661 34.0938H41.4556" stroke="#046C7C" stroke-miterlimit="10"/>
<path d="M98.2116 51.3133L40.7628 50.9961" stroke="#046C7C" stroke-miterlimit="10"/>
</svg>
