<svg width="160" height="160" viewBox="0 0 160 160" fill="none" xmlns="http://www.w3.org/2000/svg">
<mask id="mask0_4511_145856" style="mask-type:alpha" maskUnits="userSpaceOnUse" x="0" y="3" width="154" height="154">
<circle cx="76.701" cy="79.701" r="76.701" fill="#DBF1FF"/>
</mask>
<g mask="url(#mask0_4511_145856)">
<path d="M228.08 -2.77319H-11.9973C-13.5621 -2.77463 -15.112 -2.46765 -16.5581 -1.8698C-18.0043 -1.27195 -19.3185 -0.394947 -20.4255 0.711076C-21.5326 1.8171 -22.4108 3.13045 -23.01 4.57607C-23.6091 6.02168 -23.9175 7.57122 -23.9175 9.13609V150.255C-23.9175 153.416 -22.6617 156.448 -20.4262 158.684C-18.1907 160.919 -15.1587 162.175 -11.9973 162.175H228.08C231.241 162.175 234.273 160.919 236.509 158.684C238.744 156.448 240 153.416 240 150.255V9.13609C240 7.57122 239.692 6.02168 239.092 4.57607C238.493 3.13045 237.615 1.8171 236.508 0.711076C235.401 -0.394947 234.087 -1.27195 232.641 -1.8698C231.194 -2.46765 229.645 -2.77463 228.08 -2.77319Z" fill="#DBF1FF"/>
<rect x="-36.6918" y="-13.9164" width="46.1856" height="58.5017" rx="5.13173" fill="#A3DBFF"/>
<rect x="-35.2451" y="-15.2861" width="46.1856" height="58.5017" rx="5.13173" fill="#BCE5FF"/>
<rect x="-32.1661" y="-12.2071" width="40.0275" height="52.3436" rx="3.07904" fill="#DBF1FF"/>
<path d="M5.80872 -12.0289C7.00412 -11.606 7.86145 -10.4679 7.86145 -9.12756V37.058C7.86126 38.398 7.00382 39.5344 5.80872 39.9574V-12.0289Z" fill="#A3DBFF"/>
<rect x="12.3555" y="101.644" width="37" height="46.8667" rx="4.11111" fill="#A3DBFF"/>
<rect x="13.0889" y="100.514" width="37" height="46.8667" rx="4.11111" fill="#BCE5FF"/>
<rect x="15.5555" y="102.98" width="32.0667" height="41.9333" rx="2.46667" fill="#DBF1FF"/>
<path d="M45.9778 103.124C46.9353 103.462 47.6223 104.373 47.6223 105.447V142.447C47.6223 143.52 46.9353 144.431 45.9778 144.77V103.124Z" fill="#A3DBFF"/>
<mask id="mask1_4511_145856" style="mask-type:alpha" maskUnits="userSpaceOnUse" x="15" y="102" width="33" height="43">
<rect x="15.5555" y="102.98" width="32.0667" height="41.9333" rx="2.46667" fill="#DBF1FF"/>
</mask>
<g mask="url(#mask1_4511_145856)">
<path d="M35.3493 134.079L23.7274 136.353L22.2526 133.952C21.3429 132.468 20.7681 130.804 20.5681 129.075C20.3682 127.347 20.5478 125.596 21.0947 123.944C21.6415 122.293 22.5424 120.779 23.7346 119.51C24.9269 118.241 26.3819 117.246 27.9986 116.594L31.5454 115.167C36.0477 113.353 40.6331 117.597 39.1531 122.211L35.3493 134.079Z" fill="#A3DBFF"/>
<path d="M33.2773 151.742L29.3358 150.253C28.9218 150.096 28.5503 149.844 28.2509 149.519C27.9516 149.193 27.7327 148.802 27.6118 148.377L24.2935 136.768C24.2218 136.518 24.2227 136.253 24.2961 136.004C24.3694 135.755 24.5123 135.532 24.7079 135.36C24.9035 135.189 25.1439 135.077 25.4011 135.037C25.6582 134.996 25.9215 135.03 26.1603 135.133L35.3675 139.11L36.2451 149.509C36.2762 149.878 36.2131 150.249 36.0616 150.587C35.9102 150.925 35.6753 151.22 35.3789 151.443C35.0825 151.666 34.7342 151.81 34.3667 151.863C33.9992 151.915 33.6244 151.874 33.2773 151.742Z" fill="#BCE5FF"/>
<path d="M35.7621 143.796L35.5648 141.436C34.7799 140.902 33.9389 140.454 33.0566 140.102C30.5977 139.102 28.3492 138.923 28.0324 139.7C27.7156 140.478 29.4501 141.916 31.9064 142.916C33.3993 143.522 34.8092 143.825 35.7621 143.796Z" fill="#A3DBFF"/>
<path d="M30.8973 123.583L35.0196 123.806C35.7124 123.843 36.3912 124.015 37.0173 124.313C37.6433 124.611 38.2042 125.03 38.6679 125.545C39.1316 126.059 39.4891 126.661 39.7197 127.313C39.9503 127.966 40.0497 128.658 40.012 129.349L39.6061 136.805C39.5301 138.199 38.9023 139.506 37.8606 140.438C36.8189 141.37 35.4488 141.851 34.0515 141.776L32.2911 141.68C30.2674 141.57 28.3703 140.663 27.0171 139.158C25.6639 137.652 24.9655 135.672 25.0754 133.653L25.3531 128.554C25.4289 127.162 26.0553 125.857 27.0947 124.925C28.1341 123.993 29.5017 123.51 30.8973 123.583Z" fill="#BCE5FF"/>
<path d="M36.9695 130.729L35.744 133.934C35.7367 133.952 35.7342 133.973 35.7366 133.993C35.739 134.012 35.7464 134.031 35.7579 134.048C35.7695 134.064 35.7849 134.078 35.8029 134.087C35.8208 134.096 35.8407 134.1 35.8608 134.1H37.8939C37.9127 134.1 37.9313 134.096 37.9482 134.087C37.9652 134.079 37.98 134.067 37.9916 134.053C38.0031 134.038 38.0111 134.021 38.0149 134.002C38.0187 133.984 38.0181 133.965 38.0133 133.947L37.2058 130.745C37.1993 130.719 37.1849 130.697 37.1647 130.68C37.1445 130.663 37.1195 130.653 37.0933 130.651C37.0671 130.65 37.0411 130.656 37.0188 130.67C36.9966 130.684 36.9794 130.705 36.9695 130.729Z" fill="#A3DBFF"/>
<path d="M21.3058 127.21L23.3024 126.638C23.3389 126.625 23.3778 126.619 23.4166 126.622C23.4553 126.625 23.4931 126.635 23.5275 126.653C23.5619 126.671 23.5921 126.696 23.6164 126.727C23.6406 126.757 23.6582 126.792 23.6682 126.829L25.7046 133.906C25.8782 134.509 25.8045 135.156 25.4999 135.705C25.1953 136.254 24.6846 136.659 24.0803 136.833C24.0088 136.853 23.9321 136.844 23.8671 136.808C23.802 136.772 23.7539 136.712 23.7334 136.641L21.1201 127.559C21.1093 127.524 21.1055 127.487 21.109 127.451C21.1124 127.414 21.1231 127.379 21.1404 127.346C21.1576 127.314 21.1811 127.285 21.2095 127.262C21.2379 127.238 21.2706 127.221 21.3058 127.21Z" fill="#A3DBFF"/>
<path d="M24.7477 133.066L22.9717 132.346L27.8012 126.149L27.2144 129.32C26.9868 130.558 26.4944 131.734 25.7708 132.765C25.6597 132.924 25.4979 133.04 25.312 133.094C25.1261 133.149 24.9271 133.139 24.7477 133.066Z" fill="#A3DBFF"/>
<path d="M25.8181 134.795C26.4652 134.635 26.7505 133.543 26.4553 132.357C26.1601 131.172 25.3961 130.34 24.749 130.501C24.1018 130.661 23.8165 131.752 24.1118 132.938C24.407 134.124 25.171 134.956 25.8181 134.795Z" fill="#BCE5FF"/>
<path d="M34.6155 127.402C39.9684 126.667 44.0399 124.127 43.7093 121.729C43.3788 119.331 38.7714 117.982 33.4184 118.716C28.0655 119.451 23.994 121.991 24.3246 124.389C24.6551 126.787 29.2625 128.136 34.6155 127.402Z" fill="#A3DBFF"/>
<path d="M27.716 126.12L24.4194 124.78L22.887 128.532L26.1836 129.872L27.716 126.12Z" fill="#A3DBFF"/>
<path d="M27.5274 119.759C29.8126 117.426 31.1545 115.037 30.5248 114.423C29.8951 113.809 27.5321 115.202 25.247 117.536C22.9619 119.869 21.6199 122.258 22.2496 122.872C22.8794 123.486 25.2423 122.092 27.5274 119.759Z" fill="#A3DBFF"/>
</g>
<rect x="101.622" y="-2.70432" width="31" height="39.2667" rx="3.44444" fill="#A3DBFF"/>
<rect x="103" y="-3.78204" width="31" height="39.2667" rx="3.44444" fill="#BCE5FF"/>
<rect x="105.067" y="-1.71538" width="26.8667" height="35.1333" rx="2.06667" fill="#DBF1FF"/>
<path d="M130.556 -1.59586C131.358 -1.31198 131.933 -0.548206 131.933 0.35141V31.3514C131.933 32.2509 131.358 33.0138 130.556 33.2977V-1.59586Z" fill="#A3DBFF"/>
<path d="M105.067 16.8846C105.067 16.8846 111.956 16.8846 116.433 23.0846C120.911 29.2846 123.667 33.418 123.667 33.418H107.133C105.99 33.418 105.067 32.4948 105.067 31.3513V16.8846Z" fill="#A3DBFF"/>
<path d="M122.124 26.6394C120.973 26.3363 119.85 26.7083 118.631 27.4178C117.708 27.9896 116.812 28.6165 115.951 29.2916C114.422 30.442 113.078 31.8336 111.956 33.418H127.8C124.624 30.2974 124.562 27.28 122.124 26.6394Z" fill="#89D1FF"/>
<path d="M123.86 16.3266C125.871 16.3266 127.497 14.756 127.497 12.8133C127.497 10.8706 125.864 9.29996 123.86 9.29996C121.855 9.29996 120.222 10.8706 120.222 12.8133C120.222 14.756 121.855 16.3266 123.86 16.3266Z" fill="#BCE5FF"/>
<path d="M33.5519 63.4747C33.7958 63.1827 34.1139 62.9619 34.4728 62.8355C34.8316 62.7091 35.2179 62.6818 35.591 62.7564L44.5108 64.2993C45.9861 64.5537 46.5692 65.9098 46.3695 67.0661C46.305 67.5423 46.0877 67.9847 45.7502 68.3269C45.4127 68.669 44.9732 68.8923 44.4979 68.9633C44.2672 68.9908 44.0337 68.9832 43.8053 68.9408L34.8855 67.3979C34.4928 67.3382 34.1235 67.1735 33.8167 66.9212C33.5099 66.6689 33.2771 66.3383 33.1428 65.9645C32.9933 65.549 32.9524 65.1022 33.024 64.6665C33.0956 64.2307 33.2773 63.8205 33.5519 63.4747Z" fill="#A9B4BE"/>
<path d="M67.4561 27.8468C67.7139 27.759 67.9871 27.726 68.2583 27.7498C68.5296 27.7735 68.7929 27.8536 69.0315 27.9848C69.27 28.1161 69.4786 28.2956 69.6439 28.512C69.8091 28.7284 69.9275 28.9768 69.9913 29.2415L72.4492 37.7096C72.5365 38.0143 72.5622 38.3335 72.5249 38.6483C72.4875 38.9631 72.3878 39.2673 72.2316 39.5432C72.0753 39.8191 71.8657 40.0611 71.6149 40.255C71.3641 40.449 71.0772 40.5911 70.7709 40.6729C70.6455 40.7102 70.5173 40.7371 70.3875 40.7535C69.9089 40.8206 69.4225 40.7061 69.0242 40.4324C68.6259 40.1588 68.3446 39.7458 68.2357 39.275L65.7811 30.8101C65.6932 30.5056 65.667 30.1865 65.7039 29.8717C65.7409 29.5569 65.8403 29.2527 65.9962 28.9767C66.1522 28.7008 66.3617 28.4587 66.6123 28.2647C66.863 28.0707 67.1499 27.9286 67.4561 27.8468Z" fill="#A9B4BE"/>
<path d="M45.5384 39.3137C45.8352 39.2944 46.1329 39.3359 46.4131 39.4356C46.6934 39.5353 46.9504 39.6911 47.1683 39.8935L57.0384 48.8737C57.4788 49.279 57.7455 49.8387 57.7827 50.436C57.82 51.0333 57.6248 51.6219 57.2381 52.0787C56.8777 52.5008 56.3719 52.7721 55.8208 52.8388C55.5031 52.8767 55.1809 52.8457 54.8763 52.7479C54.5717 52.6501 54.2917 52.4877 54.0555 52.2719L44.1854 43.2917C43.7423 42.8845 43.4742 42.3215 43.4375 41.7208C43.4009 41.1201 43.5985 40.5286 43.9889 40.0707C44.1829 39.8466 44.4201 39.6641 44.6864 39.5341C44.9526 39.404 45.2424 39.329 45.5384 39.3137Z" fill="#A9B4BE"/>
</g>
<path d="M156.2 134.724C156.205 134.861 156.182 134.998 156.133 135.126C156.084 135.254 156.01 135.372 155.915 135.471C155.819 135.57 155.705 135.649 155.579 135.702C155.452 135.756 155.316 135.783 155.179 135.783H69.4517C69.1867 135.785 68.9315 135.683 68.7407 135.499C68.5499 135.315 68.4388 135.063 68.4312 134.797L66.3755 79.2345H66.3765L66.0044 69.548C65.9506 68.1453 67.0734 66.9787 68.4771 66.9787H151.658C153.006 66.9788 154.105 68.0578 154.131 69.4054L154.32 79.2345L156.2 134.724Z" fill="#89D1FF"/>
<path d="M70.175 74.5205H158.119L159.999 130.01C160.004 130.147 159.981 130.284 159.932 130.412C159.883 130.541 159.809 130.658 159.714 130.757C159.618 130.856 159.504 130.935 159.378 130.988C159.251 131.042 159.116 131.07 158.978 131.07H73.251C72.9859 131.072 72.7306 130.97 72.5397 130.785C72.3489 130.601 72.2377 130.349 72.23 130.083L70.175 74.5205Z" fill="#56BDFF"/>
<path d="M80.6151 88.8696C80.564 87.4687 81.6858 86.3051 83.0877 86.3051H145.857C147.189 86.3051 148.281 87.3586 148.33 88.6891L149.56 122.394C149.611 123.794 148.489 124.958 147.088 124.958H84.3179C82.9866 124.958 81.8939 123.904 81.8453 122.574L80.6151 88.8696Z" fill="white"/>
<path d="M82.4099 82.3982H108.219C108.4 82.3994 108.58 82.3636 108.747 82.2931C108.914 82.2225 109.065 82.1187 109.191 81.9879C109.316 81.857 109.414 81.7019 109.478 81.532C109.542 81.3621 109.571 81.1809 109.563 80.9994C109.544 80.6218 109.381 80.2659 109.108 80.0055C108.834 79.7451 108.472 79.6001 108.094 79.6006H82.2924C82.1111 79.5994 81.9316 79.6352 81.7646 79.7057C81.5976 79.7763 81.4466 79.8801 81.3209 80.011C81.1952 80.1418 81.0974 80.2969 81.0333 80.4668C80.9692 80.6367 80.9403 80.8179 80.9483 80.9994C80.9671 81.3757 81.1291 81.7305 81.401 81.9908C81.6729 82.251 82.034 82.3968 82.4099 82.3982Z" fill="white"/>
<path d="M87.0003 92.2635C86.9322 92.2624 86.8646 92.2753 86.8017 92.3014C86.7387 92.3275 86.6818 92.3662 86.6344 92.4152C86.5869 92.4641 86.5499 92.5223 86.5257 92.5861C86.5015 92.6499 86.4906 92.718 86.4936 92.7862L86.589 95.6428C86.5946 95.7841 86.6542 95.9179 86.7553 96.0165C86.8564 96.1151 86.9915 96.1711 87.1326 96.1729H90.5332C90.6019 96.174 90.6701 96.1609 90.7336 96.1343C90.797 96.1078 90.8544 96.0684 90.9019 96.0187C90.9495 95.9689 90.9863 95.9098 91.0101 95.8452C91.0338 95.7805 91.044 95.7116 91.0399 95.6428L90.9444 92.7862C90.937 92.6462 90.8766 92.5143 90.7757 92.4172C90.6748 92.3201 90.5408 92.2652 90.4009 92.2635H87.0003Z" fill="#D5DADD"/>
<path d="M95.6892 92.2781C95.6207 92.2771 95.5528 92.29 95.4895 92.316C95.4262 92.342 95.3688 92.3806 95.3208 92.4294C95.2727 92.4783 95.2351 92.5363 95.21 92.6002C95.185 92.664 95.1731 92.7323 95.1751 92.8008L95.2779 95.6574C95.2835 95.7987 95.343 95.9325 95.4441 96.0311C95.5453 96.1297 95.6803 96.1857 95.8214 96.1875H99.222C99.2904 96.1875 99.3581 96.1737 99.4211 96.1468C99.4841 96.1199 99.541 96.0805 99.5883 96.031C99.6357 95.9814 99.6726 95.9228 99.6967 95.8586C99.7208 95.7944 99.7317 95.7259 99.7287 95.6574L99.6332 92.8008C99.624 92.6602 99.5622 92.5282 99.46 92.4313C99.3579 92.3344 99.223 92.2797 99.0824 92.2781H95.6892Z" fill="#D5DADD"/>
<path d="M104.481 92.3076C104.412 92.3075 104.345 92.3214 104.282 92.3483C104.219 92.3752 104.162 92.4146 104.114 92.4641C104.067 92.5136 104.03 92.5723 104.006 92.6365C103.982 92.7007 103.971 92.7691 103.974 92.8377L104.069 95.6942C104.077 95.835 104.137 95.9677 104.238 96.066C104.338 96.1642 104.472 96.2208 104.613 96.2243H108.013C108.082 96.2243 108.15 96.2105 108.214 96.1837C108.277 96.1569 108.334 96.1176 108.382 96.0682C108.43 96.0188 108.468 95.9602 108.493 95.896C108.518 95.8317 108.53 95.7631 108.528 95.6942L108.425 92.8377C108.419 92.6964 108.36 92.5626 108.259 92.464C108.157 92.3653 108.022 92.3094 107.881 92.3076H104.481Z" fill="#D5DADD"/>
<path d="M113.17 92.3223C113.101 92.3223 113.033 92.3361 112.969 92.3629C112.906 92.3897 112.849 92.429 112.801 92.4784C112.753 92.5278 112.715 92.5864 112.69 92.6506C112.665 92.7149 112.653 92.7835 112.655 92.8524L112.758 95.7089C112.764 95.8502 112.823 95.984 112.924 96.0826C113.026 96.1812 113.161 96.2372 113.302 96.239H116.702C116.771 96.2391 116.839 96.2252 116.902 96.1983C116.964 96.1714 117.021 96.132 117.069 96.0825C117.116 96.0329 117.153 95.9743 117.177 95.9101C117.201 95.8459 117.212 95.7775 117.209 95.7089L117.114 92.8524C117.106 92.7117 117.046 92.5789 116.945 92.4806C116.845 92.3824 116.711 92.3258 116.57 92.3223H113.17Z" fill="#D5DADD"/>
<path d="M122.042 92.418C121.973 92.418 121.906 92.4318 121.843 92.4587C121.78 92.4856 121.723 92.525 121.676 92.5745C121.628 92.6241 121.591 92.6827 121.567 92.7469C121.543 92.8111 121.532 92.8796 121.535 92.9481L121.631 95.8047C121.64 95.9453 121.702 96.0773 121.804 96.1742C121.906 96.2711 122.041 96.3258 122.181 96.3274H125.582C125.65 96.3274 125.717 96.3138 125.779 96.2873C125.842 96.2609 125.898 96.2222 125.946 96.1734C125.993 96.1247 126.03 96.0669 126.055 96.0036C126.079 95.9402 126.091 95.8726 126.089 95.8047L125.986 92.9481C125.98 92.8068 125.921 92.673 125.82 92.5744C125.719 92.4758 125.584 92.4198 125.443 92.418H122.042Z" fill="#D5DADD"/>
<path d="M134.263 96.342C134.332 96.3431 134.399 96.3302 134.462 96.3041C134.525 96.278 134.582 96.2393 134.629 96.1904C134.677 96.1414 134.714 96.0832 134.738 96.0194C134.762 95.9556 134.773 95.8875 134.77 95.8193L134.675 92.9628C134.669 92.8214 134.61 92.6877 134.509 92.5891C134.407 92.4904 134.272 92.4345 134.131 92.4327H130.731C130.662 92.4316 130.594 92.4447 130.53 92.4712C130.467 92.4977 130.409 92.5371 130.362 92.5869C130.314 92.6366 130.277 92.6957 130.254 92.7604C130.23 92.8251 130.22 92.894 130.224 92.9628L130.319 95.8193C130.327 95.9593 130.387 96.0913 130.488 96.1883C130.589 96.2854 130.723 96.3404 130.863 96.342H134.263Z" fill="#D5DADD"/>
<path d="M142.702 92.9481C142.697 92.8068 142.637 92.673 142.536 92.5744C142.435 92.4758 142.3 92.4198 142.159 92.418H138.758C138.69 92.4169 138.621 92.43 138.558 92.4565C138.494 92.483 138.437 92.5224 138.39 92.5722C138.342 92.6219 138.305 92.681 138.282 92.7457C138.258 92.8104 138.248 92.8793 138.252 92.9481L138.347 95.8046C138.355 95.9454 138.414 96.0781 138.515 96.1764C138.616 96.2746 138.75 96.3312 138.891 96.3347H142.291C142.36 96.3348 142.427 96.3209 142.49 96.294C142.553 96.2671 142.61 96.2277 142.658 96.1782C142.705 96.1287 142.742 96.07 142.766 96.0058C142.79 95.9416 142.801 95.8732 142.798 95.8046L142.702 92.9481Z" fill="#D5DADD"/>
<path d="M90.8857 103.911C90.9539 103.91 91.0211 103.895 91.0836 103.868C91.1461 103.841 91.2026 103.801 91.2497 103.752C91.2969 103.702 91.3338 103.644 91.3583 103.58C91.3828 103.517 91.3944 103.449 91.3925 103.38L91.2896 100.524C91.284 100.383 91.2245 100.249 91.1234 100.15C91.0223 100.052 90.8872 99.9956 90.7461 99.9938H87.3455C87.2774 99.9948 87.2101 100.009 87.1476 100.037C87.0851 100.064 87.0287 100.103 86.9815 100.153C86.9344 100.202 86.8974 100.26 86.8729 100.324C86.8484 100.388 86.8368 100.456 86.8388 100.524L86.9343 103.38C86.9417 103.522 87.0027 103.656 87.1051 103.755C87.2074 103.853 87.3433 103.909 87.4851 103.911H90.8857Z" fill="#D5DADD"/>
<path d="M99.5672 103.925C99.6357 103.925 99.7035 103.911 99.7664 103.885C99.8294 103.858 99.8862 103.818 99.9335 103.769C99.9809 103.719 100.018 103.661 100.042 103.596C100.066 103.532 100.077 103.464 100.074 103.395L99.9786 100.539C99.9729 100.397 99.9134 100.264 99.8122 100.165C99.7111 100.066 99.5761 100.01 99.435 100.009H96.0344C95.966 100.008 95.8982 100.022 95.8352 100.049C95.7722 100.076 95.7153 100.116 95.668 100.165C95.6206 100.215 95.5838 100.273 95.5597 100.337C95.5355 100.402 95.5246 100.47 95.5276 100.539L95.6231 103.395C95.6304 103.536 95.6905 103.669 95.7913 103.767C95.892 103.865 96.026 103.922 96.1666 103.925H99.5672Z" fill="#D5DADD"/>
<path d="M108.366 103.962C108.434 103.961 108.502 103.947 108.564 103.919C108.627 103.892 108.683 103.853 108.73 103.803C108.777 103.754 108.814 103.696 108.839 103.632C108.863 103.568 108.875 103.5 108.873 103.432L108.77 100.575C108.765 100.434 108.705 100.3 108.604 100.202C108.503 100.103 108.368 100.047 108.227 100.045H104.826C104.758 100.045 104.69 100.059 104.627 100.086C104.564 100.113 104.507 100.152 104.46 100.202C104.412 100.251 104.375 100.31 104.351 100.374C104.327 100.438 104.316 100.507 104.319 100.575L104.422 103.432C104.428 103.573 104.487 103.707 104.588 103.806C104.689 103.904 104.824 103.96 104.966 103.962H108.366Z" fill="#D5DADD"/>
<path d="M117.047 103.977C117.116 103.977 117.184 103.963 117.248 103.936C117.311 103.909 117.368 103.87 117.416 103.821C117.464 103.771 117.502 103.713 117.527 103.649C117.552 103.584 117.563 103.516 117.561 103.447L117.459 100.59C117.453 100.449 117.394 100.315 117.292 100.217C117.191 100.118 117.056 100.062 116.915 100.06H113.515C113.446 100.059 113.378 100.072 113.314 100.099C113.251 100.125 113.193 100.165 113.146 100.214C113.098 100.264 113.061 100.323 113.038 100.388C113.014 100.453 113.004 100.521 113.008 100.59L113.103 103.447C113.111 103.588 113.171 103.72 113.271 103.819C113.372 103.917 113.506 103.973 113.647 103.977H117.047Z" fill="#D5DADD"/>
<path d="M125.927 104.065C125.995 104.065 126.062 104.052 126.125 104.025C126.187 103.999 126.244 103.96 126.291 103.911C126.338 103.862 126.375 103.805 126.4 103.741C126.424 103.678 126.436 103.61 126.434 103.542L126.331 100.686C126.327 100.544 126.268 100.409 126.167 100.31C126.065 100.211 125.929 100.156 125.788 100.156H122.387C122.319 100.156 122.251 100.17 122.188 100.196C122.125 100.223 122.068 100.263 122.021 100.312C121.973 100.362 121.937 100.421 121.912 100.485C121.888 100.549 121.877 100.617 121.88 100.686L121.983 103.542C121.989 103.683 122.049 103.816 122.15 103.913C122.251 104.011 122.386 104.065 122.527 104.065H125.927Z" fill="#D5DADD"/>
<path d="M131.069 100.171C131 100.17 130.932 100.184 130.869 100.211C130.807 100.238 130.75 100.278 130.702 100.327C130.655 100.377 130.618 100.435 130.594 100.499C130.57 100.564 130.559 100.632 130.562 100.701L130.657 103.557C130.667 103.698 130.728 103.83 130.831 103.927C130.933 104.024 131.068 104.078 131.208 104.08H134.601C134.67 104.081 134.738 104.068 134.801 104.042C134.864 104.016 134.922 103.977 134.97 103.929C135.018 103.88 135.056 103.822 135.081 103.758C135.106 103.694 135.118 103.626 135.116 103.557L135.013 100.701C135.007 100.559 134.948 100.426 134.846 100.327C134.745 100.228 134.61 100.172 134.469 100.171H131.069Z" fill="#D5DADD"/>
<path d="M143.048 100.686C143.042 100.545 142.983 100.411 142.882 100.312C142.78 100.214 142.645 100.158 142.504 100.156H139.104C139.035 100.156 138.967 100.17 138.905 100.196C138.842 100.223 138.785 100.263 138.737 100.312C138.69 100.362 138.653 100.421 138.629 100.485C138.605 100.549 138.594 100.617 138.597 100.686L138.692 103.542C138.702 103.683 138.763 103.815 138.866 103.912C138.968 104.009 139.103 104.064 139.243 104.065H142.644C142.712 104.065 142.779 104.052 142.841 104.025C142.904 103.999 142.96 103.96 143.008 103.911C143.055 103.862 143.092 103.805 143.116 103.741C143.141 103.678 143.153 103.61 143.151 103.542L143.048 100.686Z" fill="#D5DADD"/>
<path d="M91.6496 107.982C91.644 107.841 91.5845 107.707 91.4834 107.608C91.3822 107.51 91.2472 107.454 91.1061 107.452H87.7349C87.6664 107.452 87.5987 107.466 87.5358 107.493C87.4728 107.52 87.4159 107.559 87.3685 107.608C87.3212 107.658 87.2843 107.717 87.2601 107.781C87.236 107.845 87.2252 107.913 87.2281 107.982L87.3235 110.839C87.331 110.981 87.3921 111.114 87.4944 111.213C87.5967 111.311 87.7326 111.367 87.8744 111.369H91.275C91.3432 111.368 91.4105 111.353 91.473 111.326C91.5355 111.299 91.5919 111.259 91.6391 111.21C91.6863 111.161 91.7232 111.102 91.7477 111.039C91.7722 110.975 91.7838 110.907 91.7818 110.839L91.6496 107.982Z" fill="#D5DADD"/>
<path d="M100.338 107.997C100.331 107.856 100.271 107.723 100.17 107.625C100.069 107.527 99.9353 107.47 99.7948 107.467H96.3942C96.3258 107.467 96.258 107.48 96.195 107.507C96.132 107.534 96.0751 107.574 96.0278 107.623C95.9804 107.673 95.9436 107.731 95.9195 107.796C95.8953 107.86 95.8844 107.928 95.8874 107.997L95.9829 110.853C95.9902 110.994 96.0503 111.127 96.1511 111.225C96.2518 111.323 96.3858 111.38 96.5264 111.383H99.927C99.9954 111.383 100.063 111.37 100.126 111.343C100.189 111.316 100.246 111.276 100.293 111.227C100.341 111.177 100.378 111.119 100.402 111.054C100.426 110.99 100.437 110.922 100.434 110.853L100.338 107.997Z" fill="#D5DADD"/>
<path d="M109.13 108.033C109.124 107.892 109.065 107.758 108.964 107.66C108.863 107.561 108.728 107.505 108.586 107.503H105.186C105.117 107.503 105.05 107.517 104.987 107.544C104.924 107.571 104.867 107.61 104.819 107.66C104.772 107.709 104.735 107.768 104.711 107.832C104.687 107.896 104.676 107.965 104.679 108.033L104.782 110.89C104.788 111.031 104.847 111.164 104.949 111.261C105.05 111.358 105.185 111.413 105.325 111.413H108.726C108.794 111.413 108.861 111.399 108.923 111.373C108.986 111.346 109.042 111.308 109.09 111.259C109.137 111.21 109.174 111.152 109.199 111.089C109.223 111.026 109.235 110.958 109.233 110.89L109.13 108.033Z" fill="#D5DADD"/>
<path d="M117.848 108.048C117.842 107.907 117.783 107.773 117.682 107.675C117.581 107.576 117.446 107.52 117.305 107.518H113.904C113.835 107.517 113.767 107.53 113.704 107.557C113.64 107.583 113.583 107.623 113.535 107.672C113.488 107.722 113.451 107.781 113.427 107.846C113.403 107.911 113.393 107.98 113.397 108.048L113.493 110.905C113.5 111.045 113.56 111.177 113.661 111.274C113.762 111.371 113.896 111.426 114.036 111.428H117.437C117.505 111.429 117.572 111.416 117.635 111.39C117.698 111.364 117.755 111.325 117.803 111.276C117.85 111.227 117.887 111.169 117.911 111.105C117.936 111.041 117.947 110.973 117.944 110.905L117.848 108.048Z" fill="#D5DADD"/>
<path d="M126.662 108.136C126.656 107.996 126.596 107.863 126.495 107.765C126.394 107.668 126.259 107.614 126.118 107.614H122.718C122.65 107.614 122.583 107.627 122.52 107.654C122.458 107.68 122.401 107.719 122.354 107.768C122.307 107.816 122.27 107.874 122.245 107.937C122.221 108.001 122.209 108.068 122.211 108.136L122.314 111C122.319 111.141 122.379 111.274 122.481 111.371C122.582 111.469 122.717 111.523 122.857 111.523H126.258C126.326 111.523 126.393 111.509 126.455 111.483C126.518 111.457 126.574 111.418 126.621 111.369C126.669 111.32 126.706 111.263 126.73 111.199C126.755 111.136 126.767 111.068 126.765 111L126.662 108.136Z" fill="#D5DADD"/>
<path d="M134.969 111.538C135.037 111.539 135.105 111.526 135.168 111.5C135.232 111.474 135.289 111.435 135.337 111.386C135.385 111.338 135.423 111.28 135.448 111.216C135.473 111.152 135.485 111.084 135.483 111.015L135.38 108.151C135.373 108.011 135.312 107.879 135.211 107.782C135.11 107.685 134.976 107.63 134.836 107.628H131.436C131.368 107.627 131.3 107.64 131.237 107.666C131.174 107.692 131.117 107.731 131.07 107.78C131.022 107.829 130.985 107.887 130.961 107.951C130.937 108.015 130.926 108.083 130.929 108.151L131.025 111.015C131.032 111.155 131.092 111.287 131.193 111.384C131.294 111.481 131.428 111.536 131.568 111.538H134.969Z" fill="#D5DADD"/>
<path d="M139.464 107.614C139.395 107.614 139.327 107.627 139.264 107.654C139.201 107.681 139.144 107.721 139.097 107.77C139.05 107.82 139.013 107.878 138.989 107.943C138.965 108.007 138.954 108.075 138.957 108.144L139.052 111C139.061 111.141 139.123 111.273 139.225 111.37C139.328 111.467 139.462 111.521 139.603 111.523H143.004C143.071 111.523 143.139 111.509 143.201 111.483C143.264 111.457 143.32 111.418 143.367 111.369C143.415 111.32 143.452 111.263 143.476 111.199C143.501 111.136 143.512 111.068 143.51 111L143.408 108.144C143.402 108.002 143.342 107.869 143.241 107.77C143.14 107.671 143.005 107.615 142.864 107.614H139.464Z" fill="#D5DADD"/>
<path d="M91.9874 115.462C91.9818 115.321 91.9222 115.187 91.8211 115.088C91.72 114.99 91.585 114.934 91.4439 114.932H88.0433C87.9749 114.932 87.9071 114.946 87.8441 114.972C87.7811 114.999 87.7243 115.039 87.6769 115.088C87.6295 115.138 87.5927 115.197 87.5686 115.261C87.5445 115.325 87.5335 115.393 87.5365 115.462L87.632 118.318C87.6412 118.459 87.7031 118.591 87.8052 118.688C87.9073 118.785 88.0422 118.84 88.1828 118.841H91.5834C91.6512 118.841 91.7184 118.828 91.7808 118.801C91.8433 118.775 91.8998 118.736 91.9471 118.687C91.9943 118.638 92.0313 118.581 92.0559 118.517C92.0805 118.454 92.0922 118.386 92.0902 118.318L91.9874 115.462Z" fill="#D5DADD"/>
<path d="M100.676 115.477C100.67 115.335 100.611 115.202 100.51 115.103C100.409 115.004 100.274 114.948 100.133 114.947H96.732C96.6633 114.946 96.595 114.959 96.5316 114.985C96.4681 115.012 96.4109 115.051 96.3633 115.101C96.3157 115.151 96.2788 115.21 96.2551 115.274C96.2313 115.339 96.2212 115.408 96.2253 115.477L96.3207 118.333C96.3281 118.473 96.3885 118.605 96.4894 118.702C96.5904 118.799 96.7244 118.854 96.8643 118.856H100.265C100.333 118.857 100.401 118.844 100.463 118.818C100.526 118.792 100.583 118.753 100.631 118.704C100.678 118.655 100.715 118.597 100.74 118.533C100.764 118.47 100.775 118.402 100.772 118.333L100.676 115.477Z" fill="#D5DADD"/>
<path d="M109.468 115.513C109.462 115.372 109.403 115.238 109.301 115.14C109.2 115.041 109.065 114.985 108.924 114.983H105.524C105.455 114.983 105.387 114.997 105.324 115.024C105.261 115.051 105.205 115.09 105.157 115.14C105.11 115.189 105.073 115.248 105.049 115.312C105.025 115.376 105.014 115.445 105.017 115.513L105.112 118.37C105.122 118.511 105.183 118.643 105.286 118.74C105.388 118.836 105.523 118.891 105.663 118.893H109.034C109.102 118.893 109.169 118.879 109.232 118.853C109.294 118.826 109.351 118.787 109.398 118.739C109.445 118.69 109.482 118.632 109.507 118.569C109.531 118.506 109.543 118.438 109.541 118.37L109.468 115.513Z" fill="#D5DADD"/>
<path d="M118.157 115.528C118.151 115.387 118.091 115.253 117.99 115.154C117.889 115.056 117.754 115 117.613 114.998H114.212C114.144 114.997 114.075 115.01 114.012 115.037C113.949 115.063 113.891 115.103 113.844 115.152C113.796 115.202 113.759 115.261 113.735 115.326C113.712 115.391 113.702 115.459 113.706 115.528L113.801 118.385C113.809 118.525 113.869 118.657 113.97 118.754C114.071 118.851 114.205 118.906 114.345 118.907H117.745C117.813 118.909 117.881 118.896 117.944 118.87C118.007 118.843 118.064 118.805 118.111 118.756C118.159 118.707 118.196 118.649 118.22 118.585C118.244 118.521 118.255 118.453 118.252 118.385L118.157 115.528Z" fill="#D5DADD"/>
<path d="M127.029 115.631C127.023 115.491 126.964 115.358 126.862 115.26C126.761 115.163 126.626 115.108 126.486 115.109H123.085C123.017 115.108 122.95 115.122 122.887 115.149C122.825 115.175 122.768 115.214 122.721 115.262C122.674 115.311 122.637 115.369 122.612 115.432C122.588 115.496 122.576 115.563 122.578 115.631L122.681 118.488C122.685 118.63 122.744 118.765 122.845 118.864C122.947 118.963 123.083 119.018 123.224 119.018H126.662C126.73 119.018 126.798 119.004 126.861 118.977C126.924 118.95 126.981 118.911 127.028 118.861C127.075 118.812 127.112 118.753 127.137 118.689C127.161 118.625 127.172 118.556 127.169 118.488L127.029 115.631Z" fill="#D5DADD"/>
<path d="M69.8034 64.834C69.7496 63.4313 70.8721 62.2649 72.2758 62.2649H155.457C156.804 62.2649 157.904 63.3439 157.93 64.6916L158.119 74.5207H70.1751L69.8034 64.834Z" fill="#FF7F4C"/>
<path d="M88.9466 69.1832H88.8658C88.5057 69.1815 88.1601 69.0404 87.9014 68.7893C87.6427 68.5382 87.4909 68.1966 87.4776 67.8359L87.4262 66.4076C87.1636 66.6262 86.9553 66.9028 86.8177 67.2158C86.68 67.5289 86.6168 67.8696 86.633 68.2113C86.6516 68.8211 86.9025 69.4005 87.3342 69.8305C87.7659 70.2604 88.3455 70.5083 88.9539 70.5231C89.249 70.5185 89.5402 70.4545 89.8101 70.3349C90.0801 70.2153 90.3233 70.0426 90.5254 69.827C90.7275 69.6114 90.8844 69.3572 90.9866 69.0797C91.0889 68.8022 91.1344 68.5069 91.1206 68.2113C91.1065 67.8613 91.0165 67.5185 90.8566 67.207C90.6968 66.8955 90.471 66.6227 90.1951 66.4076L90.2466 67.8359C90.2535 68.0109 90.225 68.1856 90.1627 68.3493C90.1004 68.513 90.0056 68.6623 89.8841 68.7883C89.7626 68.9142 89.6168 69.0141 89.4556 69.082C89.2945 69.1499 89.1214 69.1843 88.9466 69.1832Z" fill="#00144A"/>
<path d="M137.679 69.1167H137.598C137.24 69.1116 136.898 68.9703 136.64 68.7215C136.382 68.4727 136.228 68.135 136.21 67.7768L136.166 66.4369C135.909 66.6546 135.705 66.9283 135.57 67.2372C135.435 67.546 135.373 67.8817 135.387 68.2185C135.404 68.8288 135.654 69.4093 136.086 69.8396C136.519 70.27 137.099 70.5172 137.708 70.5302C138.006 70.5306 138.302 70.4702 138.576 70.3528C138.85 70.2354 139.098 70.0635 139.304 69.8473C139.51 69.6312 139.67 69.3754 139.774 69.0954C139.879 68.8154 139.926 68.5171 139.912 68.2185C139.896 67.8651 139.804 67.5192 139.642 67.2051C139.48 66.891 139.251 66.6163 138.971 66.4001L139.015 67.7768C139.023 67.9547 138.993 68.1322 138.929 68.298C138.864 68.4639 138.766 68.6145 138.64 68.7404C138.514 68.8663 138.364 68.9648 138.199 69.0295C138.033 69.0943 137.856 69.124 137.679 69.1167Z" fill="#00144A"/>
<path d="M87.4777 67.8358C87.491 68.1965 87.6429 68.5381 87.9016 68.7892C88.1603 69.0403 88.5058 69.1814 88.8659 69.1831H88.9467C89.1215 69.1842 89.2946 69.1498 89.4558 69.0819C89.6169 69.014 89.7627 68.9141 89.8842 68.7882C90.0058 68.6622 90.1005 68.5129 90.1628 68.3492C90.2251 68.1855 90.2537 68.0108 90.2467 67.8358L90.1953 66.4075L90.0484 62.2405L89.9015 58.0146C89.8882 57.6539 89.7364 57.3122 89.4776 57.0611C89.2189 56.8101 88.8735 56.6689 88.5134 56.6673H88.4693C88.2945 56.6661 88.1212 56.7006 87.9601 56.7684C87.799 56.8363 87.6532 56.9362 87.5317 57.0622C87.4102 57.1881 87.3155 57.3374 87.2532 57.5011C87.1909 57.6648 87.1623 57.8395 87.1692 58.0146L87.3162 62.2405L87.463 66.4075L87.4777 67.8358Z" fill="#D5DADD"/>
<path d="M136.21 67.7769C136.225 68.1389 136.378 68.4814 136.638 68.7335C136.897 68.9856 137.244 69.128 137.605 69.1315H137.686C137.861 69.1327 138.035 69.0981 138.196 69.0297C138.357 68.9613 138.503 68.8606 138.624 68.7337C138.745 68.6069 138.839 68.4566 138.9 68.292C138.961 68.1275 138.988 67.9522 138.979 67.7769L138.935 66.4001L138.788 62.2552L138.641 57.9557C138.626 57.5943 138.472 57.2527 138.213 57.0017C137.953 56.7508 137.606 56.61 137.245 56.6084H137.165C136.99 56.6072 136.817 56.6416 136.657 56.7096C136.496 56.7775 136.351 56.8776 136.23 57.0036C136.109 57.1297 136.015 57.2791 135.953 57.4428C135.892 57.6065 135.864 57.781 135.872 57.9557L136.019 62.2552L136.166 66.4369L136.21 67.7769Z" fill="#D5DADD"/>
</svg>
