<svg width="160" height="160" viewBox="0 0 160 160" fill="none" xmlns="http://www.w3.org/2000/svg">
<mask id="mask0_2810_46818" style="mask-type:alpha" maskUnits="userSpaceOnUse" x="0" y="3" width="154" height="154">
<circle cx="76.701" cy="79.701" r="76.701" fill="#EBF8FF"/>
</mask>
<g mask="url(#mask0_2810_46818)">
<path d="M228.079 -2.77294H-11.9977C-13.5626 -2.77439 -15.1124 -2.46741 -16.5586 -1.86956C-18.0047 -1.27171 -19.3189 -0.394703 -20.4259 0.71132C-21.533 1.81734 -22.4112 3.13069 -23.0104 4.57631C-23.6096 6.02193 -23.918 7.57146 -23.918 9.13634V150.255C-23.918 153.417 -22.6621 156.449 -20.4266 158.684C-18.1911 160.92 -15.1592 162.175 -11.9977 162.175H228.079C231.241 162.175 234.273 160.92 236.508 158.684C238.744 156.449 240 153.417 240 150.255V9.13634C240 7.57146 239.691 6.02193 239.092 4.57631C238.493 3.13069 237.615 1.81734 236.508 0.71132C235.4 -0.394703 234.086 -1.27171 232.64 -1.86956C231.194 -2.46741 229.644 -2.77439 228.079 -2.77294Z" fill="#223548"/>
<rect x="-36.6924" y="-13.9165" width="46.1856" height="58.5017" rx="5.13173" fill="#324E6B"/>
<rect x="-35.2461" y="-15.2861" width="46.1856" height="58.5017" rx="5.13173" fill="#2A4259"/>
<rect x="-32.167" y="-12.207" width="40.0275" height="52.3436" rx="3.07904" fill="#223548"/>
<path fill-rule="evenodd" clip-rule="evenodd" d="M5.80859 39.9615V-12.0317C7.00385 -11.6093 7.86038 -10.4697 7.86129 -9.13003V37.0598C7.86038 38.3995 7.00385 39.539 5.80859 39.9615Z" fill="#324E6B"/>
<rect x="12.3555" y="101.645" width="37" height="46.8667" rx="4.11111" fill="#324E6B"/>
<rect x="13.0889" y="100.514" width="37" height="46.8667" rx="4.11111" fill="#2A4259"/>
<rect x="15.5557" y="102.98" width="32.0667" height="41.9333" rx="2.46667" fill="#223548"/>
<path fill-rule="evenodd" clip-rule="evenodd" d="M45.9775 144.773V103.121C46.9354 103.459 47.6217 104.372 47.622 105.446C47.622 105.446 47.622 105.447 47.622 105.447V142.447C47.622 142.447 47.622 142.447 47.622 142.448C47.6217 143.521 46.9354 144.435 45.9775 144.773Z" fill="#324E6B"/>
<mask id="mask1_2810_46818" style="mask-type:alpha" maskUnits="userSpaceOnUse" x="15" y="102" width="33" height="43">
<rect x="15.5557" y="102.98" width="32.0667" height="41.9333" rx="2.46667" fill="#EBF8FF"/>
</mask>
<g mask="url(#mask1_2810_46818)">
<path d="M35.3496 134.079L23.7277 136.353L22.2529 133.952C21.3432 132.468 20.7684 130.804 20.5685 129.075C20.3685 127.347 20.5482 125.596 21.095 123.944C21.6419 122.292 22.5427 120.779 23.735 119.51C24.9273 118.24 26.3823 117.245 27.999 116.594L31.5458 115.166C36.0481 113.353 40.6335 117.597 39.1535 122.211L35.3496 134.079Z" fill="#324E6B"/>
<path d="M33.2772 151.742L29.3357 150.253C28.9217 150.096 28.5502 149.844 28.2508 149.519C27.9515 149.193 27.7326 148.802 27.6116 148.377L24.2933 136.768C24.2217 136.518 24.2226 136.253 24.2959 136.004C24.3693 135.755 24.5121 135.532 24.7078 135.36C24.9034 135.189 25.1438 135.077 25.4009 135.037C25.6581 134.996 25.9214 135.03 26.1602 135.133L35.3674 139.11L36.245 149.509C36.2761 149.878 36.213 150.249 36.0615 150.587C35.91 150.925 35.6751 151.22 35.3787 151.443C35.0823 151.666 34.7341 151.81 34.3666 151.863C33.9991 151.915 33.6243 151.874 33.2772 151.742Z" fill="#2A4259"/>
<path d="M35.7622 143.797L35.5649 141.436C34.78 140.902 33.9389 140.454 33.0567 140.102C30.5978 139.102 28.3492 138.923 28.0324 139.701C27.7157 140.478 29.4501 141.916 31.9064 142.916C33.3994 143.522 34.8093 143.825 35.7622 143.797Z" fill="#324E6B"/>
<path d="M30.8976 123.583L35.0199 123.806C35.7127 123.843 36.3915 124.015 37.0176 124.313C37.6436 124.611 38.2045 125.03 38.6682 125.545C39.132 126.059 39.4894 126.661 39.72 127.313C39.9506 127.966 40.05 128.658 40.0123 129.349L39.6064 136.805C39.5304 138.199 38.9026 139.506 37.8609 140.438C36.8192 141.37 35.4491 141.851 34.0518 141.776L32.2914 141.68C30.2677 141.57 28.3706 140.663 27.0174 139.158C25.6642 137.652 24.9658 135.672 25.0758 133.653L25.3534 128.554C25.4292 127.162 26.0556 125.857 27.095 124.925C28.1344 123.993 29.502 123.51 30.8976 123.583Z" fill="#2A4259"/>
<path d="M36.9702 130.729L35.7446 133.934C35.7373 133.953 35.7348 133.973 35.7372 133.993C35.7397 134.013 35.747 134.032 35.7585 134.048C35.7701 134.064 35.7855 134.078 35.8035 134.087C35.8215 134.096 35.8414 134.1 35.8615 134.1H37.8945C37.9133 134.1 37.9319 134.096 37.9489 134.088C37.9658 134.08 37.9806 134.068 37.9922 134.053C38.0038 134.038 38.0117 134.021 38.0155 134.002C38.0193 133.984 38.0187 133.965 38.0139 133.947L37.2064 130.745C37.1999 130.719 37.1855 130.697 37.1653 130.68C37.1451 130.663 37.1201 130.653 37.0939 130.652C37.0677 130.65 37.0417 130.656 37.0195 130.67C36.9972 130.684 36.98 130.705 36.9702 130.729Z" fill="#324E6B"/>
<path d="M21.3058 127.21L23.3023 126.638C23.3389 126.625 23.3777 126.619 23.4165 126.622C23.4553 126.625 23.493 126.636 23.5274 126.654C23.5618 126.672 23.5921 126.697 23.6163 126.727C23.6405 126.757 23.6582 126.792 23.6681 126.83L25.7046 133.907C25.8781 134.509 25.8044 135.157 25.4998 135.705C25.1952 136.254 24.6846 136.66 24.0803 136.833C24.0088 136.853 23.9321 136.845 23.867 136.809C23.802 136.773 23.7539 136.712 23.7333 136.641L21.12 127.56C21.1092 127.524 21.1054 127.488 21.1089 127.451C21.1124 127.414 21.1231 127.379 21.1403 127.346C21.1575 127.314 21.181 127.285 21.2094 127.262C21.2378 127.238 21.2706 127.221 21.3058 127.21Z" fill="#324E6B"/>
<path d="M24.7477 133.066L22.9717 132.345L27.8012 126.148L27.2143 129.319C26.9867 130.558 26.4944 131.733 25.7707 132.765C25.6596 132.924 25.4979 133.04 25.312 133.094C25.1261 133.149 24.9271 133.139 24.7477 133.066Z" fill="#324E6B"/>
<path d="M25.818 134.795C26.4652 134.635 26.7505 133.543 26.4552 132.357C26.16 131.172 25.3961 130.34 24.7489 130.501C24.1018 130.661 23.8165 131.752 24.1117 132.938C24.4069 134.124 25.1709 134.955 25.818 134.795Z" fill="#2A4259"/>
<path d="M34.616 127.402C39.9689 126.667 44.0404 124.128 43.7098 121.729C43.3793 119.331 38.7719 117.982 33.4189 118.716C28.066 119.451 23.9945 121.991 24.3251 124.389C24.6556 126.787 29.263 128.136 34.616 127.402Z" fill="#324E6B"/>
<path d="M27.7165 126.12L24.4199 124.779L22.8875 128.532L26.1841 129.872L27.7165 126.12Z" fill="#324E6B"/>
<path d="M27.5274 119.759C29.8125 117.426 31.1545 115.037 30.5247 114.423C29.895 113.809 27.5321 115.202 25.247 117.536C22.9618 119.869 21.6199 122.258 22.2496 122.872C22.8793 123.486 25.2423 122.092 27.5274 119.759Z" fill="#324E6B"/>
</g>
<rect x="101.622" y="-2.70459" width="31" height="39.2667" rx="3.44444" fill="#324E6B"/>
<rect x="103" y="-3.78223" width="31" height="39.2667" rx="3.44444" fill="#2A4259"/>
<rect x="105.066" y="-1.71533" width="26.8667" height="35.1333" rx="2.06667" fill="#223548"/>
<path fill-rule="evenodd" clip-rule="evenodd" d="M130.556 33.3V-1.59814C131.358 -1.31443 131.933 -0.548915 131.933 0.350924V31.3509C131.933 32.2508 131.358 33.0163 130.556 33.3Z" fill="#324E6B"/>
<path d="M105.066 16.8843C105.066 16.8843 111.955 16.8843 116.433 23.0843C120.911 29.2843 123.666 33.4176 123.666 33.4176H107.133C105.99 33.4176 105.066 32.4945 105.066 31.3509V16.8843Z" fill="#324E6B"/>
<path d="M122.123 26.639C120.973 26.3359 119.85 26.7079 118.63 27.4174C117.707 27.9892 116.812 28.6161 115.951 29.2912C114.421 30.4416 113.078 31.8332 111.955 33.4176H127.8C124.624 30.297 124.562 27.2796 122.123 26.639Z" fill="#3B5B7C"/>
<path d="M123.859 16.3265C125.871 16.3265 127.496 14.7558 127.496 12.8131C127.496 10.8705 125.864 9.2998 123.859 9.2998C121.854 9.2998 120.222 10.8705 120.222 12.8131C120.222 14.7558 121.854 16.3265 123.859 16.3265Z" fill="#2A4259"/>
<path d="M33.5516 63.4747C33.7956 63.1828 34.1137 62.962 34.4725 62.8356C34.8314 62.7092 35.2176 62.6818 35.5907 62.7564L44.5105 64.2993C45.9859 64.5537 46.569 65.9098 46.3692 67.0662C46.3048 67.5424 46.0874 67.9848 45.7499 68.3269C45.4124 68.669 44.973 68.8924 44.4977 68.9633C44.267 68.9908 44.0335 68.9832 43.8051 68.9408L34.8853 67.3979C34.4925 67.3383 34.1232 67.1736 33.8165 66.9212C33.5097 66.6689 33.2768 66.3384 33.1425 65.9646C32.993 65.549 32.9522 65.1022 33.0237 64.6665C33.0953 64.2308 33.277 63.8205 33.5516 63.4747Z" fill="white"/>
<path d="M67.4557 27.8467C67.7134 27.7589 67.9866 27.7259 68.2579 27.7497C68.5291 27.7734 68.7924 27.8535 69.031 27.9847C69.2695 28.116 69.4781 28.2955 69.6434 28.5119C69.8086 28.7283 69.927 28.9767 69.9908 29.2414L72.4487 37.7095C72.536 38.0143 72.5617 38.3334 72.5244 38.6482C72.487 38.963 72.3873 39.2673 72.2311 39.5431C72.0748 39.819 71.8652 40.061 71.6144 40.255C71.3636 40.4489 71.0767 40.591 70.7704 40.6728C70.645 40.7101 70.5168 40.737 70.387 40.7534C69.9084 40.8206 69.422 40.706 69.0237 40.4324C68.6254 40.1587 68.3441 39.7457 68.2352 39.2749L65.7806 30.81C65.6927 30.5055 65.6665 30.1865 65.7034 29.8716C65.7404 29.5568 65.8398 29.2526 65.9957 28.9766C66.1517 28.7007 66.3612 28.4586 66.6119 28.2646C66.8625 28.0706 67.1494 27.9285 67.4557 27.8467Z" fill="white"/>
<path d="M45.5382 39.3137C45.8351 39.2944 46.1327 39.3359 46.413 39.4356C46.6933 39.5353 46.9502 39.6911 47.1682 39.8935L57.0383 48.8737C57.4787 49.2789 57.7454 49.8387 57.7826 50.436C57.8198 51.0333 57.6247 51.6219 57.238 52.0786C56.8776 52.5008 56.3717 52.7721 55.8206 52.8388C55.5029 52.8767 55.1808 52.8457 54.8762 52.7479C54.5715 52.65 54.2916 52.4877 54.0554 52.2719L44.1853 43.2917C43.7421 42.8845 43.4741 42.3214 43.4374 41.7208C43.4008 41.1201 43.5984 40.5286 43.9888 40.0706C44.1828 39.8466 44.42 39.6641 44.6863 39.534C44.9525 39.4039 45.2423 39.329 45.5382 39.3137Z" fill="white"/>
</g>
<path fill-rule="evenodd" clip-rule="evenodd" d="M67.6202 66.9785C66.6844 66.9785 65.9361 67.7561 65.9719 68.6913L66.3765 79.2343H66.3765L66.3765 79.2343L68.4315 134.797C68.4391 135.062 68.5503 135.315 68.7411 135.499C68.932 135.683 69.1873 135.785 69.4524 135.783H155.18C155.317 135.784 155.453 135.756 155.579 135.702C155.705 135.648 155.82 135.57 155.915 135.471C156.01 135.372 156.085 135.255 156.134 135.126C156.183 134.998 156.206 134.861 156.201 134.723L154.32 79.2343L154.116 68.5964C154.099 67.6979 153.366 66.9785 152.467 66.9785H67.6202Z" fill="#3B5B7C"/>
<path d="M70.1748 74.5205H158.119L159.999 130.01C160.004 130.147 159.981 130.284 159.932 130.412C159.883 130.541 159.809 130.658 159.713 130.757C159.618 130.856 159.504 130.935 159.377 130.988C159.251 131.042 159.115 131.07 158.978 131.07H73.2507C72.9857 131.072 72.7303 130.97 72.5395 130.785C72.3486 130.601 72.2375 130.349 72.2298 130.083L70.1748 74.5205Z" fill="#4098FF"/>
<path d="M80.5839 88.0148C80.5498 87.0809 81.2977 86.3052 82.2323 86.3052H146.652C147.54 86.3052 148.269 87.0075 148.301 87.8945L149.591 123.248C149.625 124.182 148.878 124.958 147.943 124.958H83.5227C82.6352 124.958 81.9067 124.256 81.8743 123.369L80.5839 88.0148Z" fill="#CEDBE8"/>
<path d="M82.4101 82.3982H108.219C108.401 82.3994 108.58 82.3637 108.747 82.2931C108.914 82.2226 109.065 82.1187 109.191 81.9879C109.317 81.8571 109.414 81.702 109.479 81.532C109.543 81.3621 109.571 81.1809 109.564 80.9994C109.545 80.6218 109.382 80.2659 109.108 80.0055C108.835 79.7451 108.472 79.6001 108.095 79.6006H82.2926C82.1114 79.5994 81.9319 79.6352 81.7649 79.7058C81.5979 79.7763 81.4469 79.8802 81.3212 80.011C81.1955 80.1418 81.0976 80.2969 81.0336 80.4668C80.9695 80.6368 80.9406 80.818 80.9486 80.9994C80.9674 81.3758 81.1293 81.7306 81.4012 81.9908C81.6731 82.251 82.0342 82.3968 82.4101 82.3982Z" fill="#CEDBE8"/>
<path d="M87.0004 92.2637C86.9323 92.2627 86.8647 92.2756 86.8017 92.3016C86.7388 92.3277 86.6819 92.3664 86.6344 92.4154C86.5869 92.4643 86.55 92.5225 86.5258 92.5863C86.5015 92.6501 86.4906 92.7182 86.4937 92.7864L86.589 95.643C86.5947 95.7843 86.6542 95.9181 86.7554 96.0167C86.8565 96.1153 86.9916 96.1713 87.1326 96.1731H90.5332C90.602 96.1742 90.6702 96.1611 90.7336 96.1346C90.7971 96.108 90.8544 96.0687 90.902 96.0189C90.9496 95.9691 90.9864 95.9101 91.0101 95.8454C91.0339 95.7807 91.044 95.7118 91.04 95.643L90.9445 92.7864C90.937 92.6464 90.8767 92.5145 90.7758 92.4174C90.6748 92.3203 90.5409 92.2654 90.401 92.2637H87.0004Z" fill="#B9C1C6"/>
<path d="M95.6891 92.2784C95.6207 92.2774 95.5528 92.2902 95.4894 92.3162C95.4261 92.3422 95.3688 92.3808 95.3207 92.4297C95.2727 92.4785 95.235 92.5366 95.21 92.6004C95.1849 92.6643 95.173 92.7325 95.175 92.8011L95.2779 95.6576C95.2835 95.7989 95.343 95.9327 95.4441 96.0313C95.5452 96.13 95.6803 96.1859 95.8214 96.1877H99.2219C99.2904 96.1878 99.3581 96.1739 99.421 96.147C99.484 96.1201 99.5409 96.0807 99.5883 96.0312C99.6356 95.9817 99.6725 95.923 99.6967 95.8588C99.7208 95.7946 99.7316 95.7262 99.7287 95.6576L99.6332 92.8011C99.6239 92.6604 99.5621 92.5285 99.46 92.4315C99.3578 92.3346 99.223 92.2799 99.0823 92.2784H95.6891Z" fill="#B9C1C6"/>
<path d="M104.481 92.3081C104.412 92.308 104.345 92.3219 104.282 92.3488C104.219 92.3757 104.162 92.4151 104.115 92.4646C104.067 92.5142 104.03 92.5728 104.006 92.637C103.982 92.7012 103.971 92.7696 103.974 92.8382L104.07 95.6947C104.077 95.8355 104.137 95.9682 104.238 96.0665C104.339 96.1648 104.473 96.2213 104.613 96.2248H108.014C108.082 96.2249 108.151 96.211 108.214 96.1842C108.277 96.1574 108.335 96.1181 108.383 96.0687C108.43 96.0193 108.468 95.9607 108.493 95.8965C108.518 95.8322 108.53 95.7636 108.528 95.6947L108.425 92.8382C108.419 92.6969 108.36 92.5631 108.259 92.4645C108.158 92.3659 108.023 92.3099 107.882 92.3081H104.481Z" fill="#B9C1C6"/>
<path d="M113.17 92.3228C113.101 92.3227 113.033 92.3365 112.969 92.3634C112.906 92.3902 112.849 92.4294 112.801 92.4789C112.753 92.5283 112.715 92.5869 112.69 92.6511C112.665 92.7153 112.654 92.7839 112.655 92.8528L112.758 95.7094C112.764 95.8507 112.823 95.9844 112.925 96.0831C113.026 96.1817 113.161 96.2377 113.302 96.2394H116.702C116.771 96.2395 116.839 96.2257 116.902 96.1988C116.965 96.1719 117.021 96.1325 117.069 96.0829C117.116 96.0334 117.153 95.9748 117.177 95.9106C117.201 95.8464 117.212 95.7779 117.209 95.7094L117.114 92.8528C117.106 92.7121 117.046 92.5794 116.946 92.4811C116.845 92.3828 116.711 92.3263 116.57 92.3228H113.17Z" fill="#B9C1C6"/>
<path d="M122.042 92.4185C121.974 92.4184 121.906 92.4322 121.843 92.4591C121.78 92.486 121.723 92.5254 121.676 92.575C121.629 92.6245 121.592 92.6831 121.568 92.7473C121.544 92.8115 121.533 92.88 121.536 92.9485L121.631 95.8051C121.64 95.9457 121.702 96.0777 121.804 96.1746C121.906 96.2715 122.041 96.3262 122.182 96.3278H125.583C125.65 96.3278 125.717 96.3142 125.78 96.2878C125.842 96.2613 125.899 96.2226 125.946 96.1738C125.993 96.1251 126.03 96.0674 126.055 96.004C126.08 95.9407 126.091 95.873 126.089 95.8051L125.986 92.9485C125.981 92.8072 125.921 92.6735 125.82 92.5748C125.719 92.4762 125.584 92.4202 125.443 92.4185H122.042Z" fill="#B9C1C6"/>
<path d="M134.263 96.342C134.331 96.3431 134.399 96.3302 134.462 96.3041C134.525 96.278 134.582 96.2393 134.629 96.1904C134.677 96.1414 134.714 96.0832 134.738 96.0194C134.762 95.9556 134.773 95.8875 134.77 95.8193L134.674 92.9628C134.669 92.8214 134.609 92.6877 134.508 92.5891C134.407 92.4904 134.272 92.4345 134.131 92.4327H130.73C130.662 92.4316 130.593 92.4447 130.53 92.4712C130.466 92.4977 130.409 92.5371 130.362 92.5869C130.314 92.6366 130.277 92.6957 130.253 92.7604C130.23 92.8251 130.219 92.894 130.224 92.9628L130.319 95.8193C130.326 95.9593 130.387 96.0913 130.488 96.1883C130.589 96.2854 130.723 96.3404 130.863 96.342H134.263Z" fill="#B9C1C6"/>
<path d="M142.703 92.9481C142.697 92.8068 142.638 92.673 142.536 92.5744C142.435 92.4758 142.3 92.4198 142.159 92.418H138.759C138.69 92.4169 138.622 92.43 138.558 92.4565C138.495 92.4831 138.437 92.5224 138.39 92.5722C138.342 92.622 138.305 92.681 138.282 92.7457C138.258 92.8104 138.248 92.8793 138.252 92.9481L138.347 95.8047C138.355 95.9454 138.415 96.0781 138.515 96.1764C138.616 96.2747 138.75 96.3312 138.891 96.3347H142.291C142.36 96.3348 142.428 96.321 142.491 96.2941C142.553 96.2672 142.61 96.2278 142.658 96.1782C142.705 96.1287 142.742 96.07 142.766 96.0058C142.79 95.9416 142.801 95.8732 142.798 95.8047L142.703 92.9481Z" fill="#B9C1C6"/>
<path d="M90.886 103.911C90.9542 103.91 91.0214 103.895 91.0839 103.868C91.1464 103.841 91.2029 103.801 91.2501 103.752C91.2972 103.703 91.3341 103.645 91.3586 103.581C91.3831 103.517 91.3947 103.449 91.3928 103.381L91.29 100.524C91.2843 100.383 91.2249 100.249 91.1237 100.15C91.0226 100.052 90.8875 99.9959 90.7464 99.9941H87.3458C87.2777 99.9951 87.2104 100.01 87.1479 100.037C87.0854 100.064 87.029 100.104 86.9818 100.153C86.9347 100.202 86.8977 100.26 86.8732 100.324C86.8487 100.388 86.8371 100.456 86.8391 100.524L86.9346 103.381C86.942 103.523 87.003 103.657 87.1054 103.755C87.2077 103.853 87.3436 103.909 87.4854 103.911H90.886Z" fill="#B9C1C6"/>
<path d="M99.5675 103.925C99.6359 103.926 99.7037 103.912 99.7667 103.885C99.8296 103.858 99.8864 103.819 99.9338 103.769C99.9812 103.719 100.018 103.661 100.042 103.597C100.066 103.532 100.077 103.464 100.074 103.395L99.9788 100.539C99.9732 100.398 99.9136 100.264 99.8125 100.165C99.7114 100.067 99.5764 100.011 99.4353 100.009H96.0347C95.9662 100.009 95.8984 100.023 95.8354 100.049C95.7725 100.076 95.7156 100.116 95.6682 100.165C95.6209 100.215 95.5841 100.273 95.5599 100.338C95.5358 100.402 95.5248 100.47 95.5278 100.539L95.6233 103.395C95.6307 103.536 95.6907 103.669 95.7915 103.767C95.8923 103.865 96.0263 103.922 96.1668 103.925H99.5675Z" fill="#B9C1C6"/>
<path d="M108.366 103.962C108.434 103.961 108.501 103.947 108.564 103.919C108.626 103.892 108.683 103.853 108.73 103.803C108.777 103.754 108.814 103.696 108.838 103.632C108.863 103.568 108.875 103.5 108.873 103.432L108.77 100.575C108.764 100.434 108.705 100.3 108.603 100.202C108.502 100.103 108.367 100.047 108.226 100.045H104.826C104.757 100.045 104.689 100.059 104.626 100.086C104.563 100.113 104.507 100.152 104.459 100.202C104.412 100.251 104.375 100.31 104.351 100.374C104.327 100.439 104.316 100.507 104.319 100.575L104.422 103.432C104.427 103.573 104.487 103.707 104.588 103.806C104.689 103.904 104.824 103.96 104.965 103.962H108.366Z" fill="#B9C1C6"/>
<path d="M117.047 103.977C117.116 103.977 117.184 103.964 117.247 103.937C117.311 103.91 117.368 103.871 117.416 103.821C117.464 103.772 117.502 103.713 117.527 103.649C117.552 103.585 117.563 103.516 117.561 103.447L117.459 100.591C117.453 100.449 117.393 100.316 117.292 100.217C117.191 100.118 117.056 100.062 116.915 100.061H113.514C113.446 100.059 113.377 100.073 113.314 100.099C113.251 100.126 113.193 100.165 113.146 100.215C113.098 100.265 113.061 100.324 113.038 100.388C113.014 100.453 113.004 100.522 113.008 100.591L113.103 103.447C113.111 103.588 113.171 103.721 113.271 103.819C113.372 103.917 113.506 103.974 113.647 103.977H117.047Z" fill="#B9C1C6"/>
<path d="M125.927 104.066C125.995 104.066 126.062 104.052 126.125 104.026C126.187 103.999 126.244 103.96 126.291 103.912C126.338 103.863 126.375 103.805 126.4 103.742C126.424 103.678 126.436 103.611 126.434 103.543L126.331 100.686C126.327 100.544 126.268 100.41 126.167 100.311C126.065 100.212 125.929 100.156 125.788 100.156H122.387C122.319 100.156 122.251 100.17 122.188 100.197C122.125 100.224 122.068 100.263 122.021 100.313C121.973 100.362 121.937 100.421 121.912 100.485C121.888 100.549 121.877 100.618 121.88 100.686L121.983 103.543C121.989 103.683 122.049 103.816 122.15 103.914C122.251 104.011 122.386 104.066 122.527 104.066H125.927Z" fill="#B9C1C6"/>
<path d="M131.069 100.171C131 100.171 130.933 100.185 130.87 100.212C130.807 100.238 130.75 100.278 130.702 100.327C130.655 100.377 130.618 100.436 130.594 100.5C130.57 100.564 130.559 100.632 130.562 100.701L130.657 103.558C130.667 103.698 130.729 103.83 130.831 103.927C130.933 104.024 131.068 104.079 131.208 104.08H134.602C134.67 104.081 134.738 104.068 134.801 104.042C134.865 104.016 134.922 103.978 134.97 103.929C135.018 103.88 135.056 103.822 135.081 103.758C135.106 103.694 135.118 103.626 135.116 103.558L135.013 100.701C135.007 100.56 134.948 100.426 134.847 100.327C134.745 100.229 134.61 100.173 134.469 100.171H131.069Z" fill="#B9C1C6"/>
<path d="M143.048 100.686C143.042 100.545 142.983 100.411 142.882 100.313C142.781 100.214 142.646 100.158 142.505 100.156H139.104C139.035 100.156 138.968 100.17 138.905 100.197C138.842 100.224 138.785 100.263 138.738 100.313C138.69 100.362 138.653 100.421 138.629 100.485C138.605 100.549 138.594 100.618 138.597 100.686L138.693 103.543C138.702 103.684 138.764 103.816 138.866 103.912C138.968 104.009 139.103 104.064 139.243 104.066H142.644C142.712 104.066 142.779 104.052 142.842 104.026C142.904 103.999 142.961 103.96 143.008 103.912C143.055 103.863 143.092 103.805 143.117 103.742C143.141 103.678 143.153 103.611 143.151 103.543L143.048 100.686Z" fill="#B9C1C6"/>
<path d="M91.6495 107.982C91.6438 107.841 91.5844 107.707 91.4832 107.609C91.3821 107.51 91.2471 107.454 91.106 107.452H87.7348C87.6663 107.452 87.5986 107.466 87.5356 107.493C87.4727 107.52 87.4158 107.559 87.3684 107.609C87.3211 107.658 87.2842 107.717 87.26 107.781C87.2359 107.845 87.225 107.914 87.228 107.982L87.3234 110.839C87.3309 110.981 87.392 111.115 87.4943 111.213C87.5966 111.311 87.7325 111.367 87.8743 111.369H91.2749C91.343 111.368 91.4103 111.353 91.4728 111.326C91.5353 111.299 91.5918 111.259 91.639 111.21C91.6861 111.161 91.7231 111.103 91.7476 111.039C91.7721 110.975 91.7837 110.907 91.7817 110.839L91.6495 107.982Z" fill="#B9C1C6"/>
<path d="M100.338 107.997C100.331 107.856 100.271 107.723 100.17 107.625C100.069 107.527 99.9352 107.47 99.7946 107.467H96.394C96.3256 107.467 96.2578 107.481 96.1948 107.507C96.1318 107.534 96.075 107.574 96.0276 107.623C95.9802 107.673 95.9434 107.731 95.9193 107.796C95.8952 107.86 95.8842 107.928 95.8872 107.997L95.9827 110.853C95.99 110.994 96.0501 111.127 96.1509 111.225C96.2516 111.323 96.3856 111.38 96.5262 111.383H99.9268C99.9952 111.384 100.063 111.37 100.126 111.343C100.189 111.316 100.246 111.277 100.293 111.227C100.341 111.177 100.377 111.119 100.402 111.055C100.426 110.99 100.437 110.922 100.434 110.853L100.338 107.997Z" fill="#B9C1C6"/>
<path d="M109.13 108.033C109.125 107.892 109.065 107.758 108.964 107.66C108.863 107.561 108.728 107.505 108.587 107.503H105.186C105.118 107.503 105.05 107.517 104.987 107.544C104.924 107.571 104.867 107.61 104.82 107.66C104.772 107.709 104.735 107.768 104.711 107.832C104.687 107.897 104.676 107.965 104.679 108.033L104.782 110.89C104.788 111.031 104.847 111.164 104.949 111.261C105.05 111.359 105.185 111.413 105.326 111.413H108.726C108.794 111.413 108.861 111.399 108.924 111.373C108.986 111.346 109.043 111.308 109.09 111.259C109.137 111.21 109.174 111.152 109.199 111.089C109.223 111.026 109.235 110.958 109.233 110.89L109.13 108.033Z" fill="#B9C1C6"/>
<path d="M117.848 108.049C117.843 107.907 117.783 107.774 117.682 107.675C117.581 107.576 117.446 107.52 117.305 107.519H113.904C113.835 107.517 113.767 107.531 113.704 107.557C113.64 107.584 113.583 107.623 113.535 107.673C113.488 107.723 113.451 107.782 113.427 107.846C113.403 107.911 113.393 107.98 113.397 108.049L113.493 110.905C113.5 111.045 113.561 111.177 113.662 111.274C113.763 111.371 113.897 111.426 114.036 111.428H117.437C117.505 111.429 117.573 111.416 117.636 111.39C117.699 111.364 117.756 111.325 117.803 111.276C117.85 111.227 117.887 111.169 117.912 111.105C117.936 111.042 117.947 110.973 117.944 110.905L117.848 108.049Z" fill="#B9C1C6"/>
<path d="M126.662 108.137C126.656 107.996 126.597 107.863 126.495 107.765C126.394 107.668 126.259 107.614 126.119 107.614H122.718C122.65 107.614 122.583 107.627 122.521 107.654C122.458 107.68 122.402 107.719 122.354 107.768C122.307 107.816 122.27 107.874 122.245 107.938C122.221 108.001 122.209 108.069 122.211 108.137L122.314 111C122.32 111.141 122.38 111.274 122.481 111.371C122.582 111.469 122.717 111.523 122.857 111.523H126.258C126.326 111.523 126.393 111.51 126.455 111.483C126.518 111.457 126.574 111.418 126.622 111.369C126.669 111.32 126.706 111.263 126.731 111.199C126.755 111.136 126.767 111.068 126.765 111L126.662 108.137Z" fill="#B9C1C6"/>
<path d="M134.969 111.538C135.037 111.539 135.105 111.526 135.168 111.5C135.232 111.474 135.289 111.435 135.337 111.387C135.385 111.338 135.423 111.28 135.448 111.216C135.473 111.152 135.485 111.084 135.483 111.015L135.38 108.151C135.373 108.011 135.312 107.879 135.211 107.782C135.11 107.685 134.976 107.63 134.837 107.628H131.436C131.368 107.627 131.3 107.64 131.237 107.666C131.174 107.692 131.117 107.731 131.07 107.78C131.022 107.829 130.986 107.887 130.961 107.951C130.937 108.015 130.926 108.083 130.929 108.151L131.025 111.015C131.032 111.155 131.092 111.287 131.193 111.384C131.294 111.481 131.428 111.536 131.568 111.538H134.969Z" fill="#B9C1C6"/>
<path d="M139.463 107.614C139.395 107.614 139.327 107.628 139.264 107.654C139.201 107.681 139.144 107.721 139.097 107.77C139.05 107.82 139.013 107.878 138.989 107.943C138.964 108.007 138.954 108.075 138.957 108.144L139.052 111C139.061 111.141 139.123 111.273 139.225 111.37C139.327 111.467 139.462 111.522 139.603 111.523H143.003C143.071 111.523 143.138 111.51 143.201 111.483C143.263 111.457 143.32 111.418 143.367 111.369C143.414 111.32 143.451 111.263 143.476 111.199C143.501 111.136 143.512 111.068 143.51 111L143.407 108.144C143.402 108.003 143.342 107.869 143.241 107.77C143.14 107.672 143.005 107.616 142.864 107.614H139.463Z" fill="#B9C1C6"/>
<path d="M91.9875 115.462C91.9819 115.321 91.9223 115.187 91.8212 115.089C91.7201 114.99 91.5851 114.934 91.444 114.932H88.0434C87.975 114.932 87.9072 114.946 87.8442 114.973C87.7813 115 87.7244 115.039 87.677 115.089C87.6297 115.138 87.5928 115.197 87.5687 115.261C87.5446 115.325 87.5336 115.394 87.5366 115.462L87.6321 118.319C87.6413 118.459 87.7032 118.591 87.8053 118.688C87.9074 118.785 88.0423 118.84 88.1829 118.841H91.5835C91.6513 118.841 91.7185 118.828 91.781 118.801C91.8434 118.775 91.8999 118.736 91.9472 118.688C91.9944 118.639 92.0314 118.581 92.056 118.518C92.0806 118.454 92.0923 118.387 92.0904 118.319L91.9875 115.462Z" fill="#B9C1C6"/>
<path d="M100.676 115.477C100.671 115.336 100.611 115.202 100.51 115.103C100.409 115.005 100.274 114.949 100.133 114.947H96.7322C96.6635 114.946 96.5952 114.959 96.5318 114.985C96.4683 115.012 96.411 115.051 96.3635 115.101C96.3159 115.151 96.279 115.21 96.2552 115.275C96.2315 115.339 96.2214 115.408 96.2255 115.477L96.3209 118.333C96.3283 118.473 96.3887 118.605 96.4896 118.702C96.5905 118.8 96.7246 118.854 96.8645 118.856H100.265C100.333 118.857 100.401 118.844 100.464 118.818C100.527 118.792 100.584 118.753 100.631 118.705C100.679 118.656 100.715 118.597 100.74 118.534C100.764 118.47 100.775 118.402 100.772 118.333L100.676 115.477Z" fill="#B9C1C6"/>
<path d="M109.468 115.513C109.462 115.372 109.403 115.238 109.302 115.14C109.201 115.041 109.066 114.985 108.924 114.983H105.524C105.455 114.983 105.388 114.997 105.325 115.024C105.262 115.051 105.205 115.09 105.157 115.14C105.11 115.189 105.073 115.248 105.049 115.312C105.025 115.376 105.014 115.445 105.017 115.513L105.113 118.37C105.122 118.511 105.184 118.643 105.286 118.74C105.388 118.836 105.523 118.891 105.663 118.893H109.035C109.102 118.893 109.17 118.879 109.232 118.853C109.294 118.826 109.351 118.788 109.398 118.739C109.446 118.69 109.483 118.632 109.507 118.569C109.532 118.506 109.543 118.438 109.541 118.37L109.468 115.513Z" fill="#B9C1C6"/>
<path d="M118.157 115.528C118.151 115.387 118.092 115.253 117.991 115.154C117.889 115.056 117.754 115 117.613 114.998H114.213C114.144 114.997 114.076 115.01 114.012 115.037C113.949 115.063 113.892 115.103 113.844 115.152C113.796 115.202 113.76 115.261 113.736 115.326C113.712 115.39 113.702 115.459 113.706 115.528L113.801 118.385C113.809 118.525 113.869 118.657 113.97 118.754C114.071 118.851 114.205 118.906 114.345 118.907H117.746C117.814 118.909 117.881 118.896 117.944 118.87C118.007 118.843 118.064 118.805 118.112 118.756C118.159 118.707 118.196 118.649 118.22 118.585C118.244 118.521 118.255 118.453 118.252 118.385L118.157 115.528Z" fill="#B9C1C6"/>
<path d="M127.029 115.631C127.024 115.49 126.964 115.358 126.863 115.26C126.761 115.163 126.626 115.108 126.486 115.108H123.085C123.017 115.108 122.95 115.122 122.888 115.148C122.825 115.175 122.769 115.214 122.722 115.262C122.674 115.311 122.637 115.369 122.613 115.432C122.588 115.496 122.576 115.563 122.578 115.631L122.681 118.488C122.685 118.63 122.744 118.764 122.846 118.863C122.947 118.962 123.083 119.018 123.225 119.018H126.662C126.731 119.018 126.798 119.004 126.861 118.977C126.924 118.95 126.981 118.911 127.028 118.861C127.076 118.812 127.113 118.753 127.137 118.689C127.161 118.625 127.172 118.556 127.169 118.488L127.029 115.631Z" fill="#B9C1C6"/>
<path d="M69.7708 63.9779C69.7349 63.0428 70.4833 62.2651 71.4191 62.2651H156.266C157.164 62.2651 157.898 62.9845 157.915 63.883L158.119 74.5209H70.1754L69.7708 63.9779Z" fill="#F58B00"/>
<path d="M88.9469 69.1833H88.8662C88.5061 69.1816 88.1605 69.0405 87.9018 68.7894C87.6431 68.5383 87.4913 68.1967 87.478 67.836L87.4265 66.4077C87.164 66.6263 86.9557 66.9029 86.818 67.2159C86.6804 67.529 86.6172 67.8697 86.6333 68.2114C86.6519 68.8212 86.9029 69.4006 87.3345 69.8306C87.7662 70.2606 88.3459 70.5084 88.9543 70.5232C89.2494 70.5186 89.5405 70.4546 89.8105 70.335C90.0805 70.2154 90.3237 70.0427 90.5258 69.8271C90.7279 69.6115 90.8848 69.3573 90.987 69.0798C91.0892 68.8023 91.1347 68.507 91.1209 68.2114C91.1069 67.8614 91.0168 67.5187 90.857 67.2071C90.6971 66.8956 90.4714 66.6228 90.1955 66.4077L90.247 67.836C90.2539 68.011 90.2253 68.1857 90.163 68.3494C90.1007 68.5131 90.006 68.6624 89.8845 68.7884C89.763 68.9143 89.6171 69.0142 89.456 69.0821C89.2949 69.15 89.1217 69.1844 88.9469 69.1833Z" fill="#688FB7"/>
<path d="M137.679 69.1166H137.599C137.241 69.1114 136.898 68.9702 136.64 68.7213C136.383 68.4725 136.229 68.1348 136.21 67.7766L136.166 66.4367C135.909 66.6544 135.706 66.9282 135.571 67.237C135.436 67.5458 135.373 67.8815 135.388 68.2184C135.405 68.8287 135.655 69.4091 136.087 69.8395C136.519 70.2698 137.1 70.5171 137.709 70.5301C138.007 70.5304 138.302 70.4701 138.576 70.3527C138.851 70.2353 139.098 70.0633 139.304 69.8472C139.51 69.631 139.67 69.3752 139.775 69.0953C139.879 68.8153 139.926 68.517 139.912 68.2184C139.897 67.8649 139.805 67.5191 139.643 67.205C139.48 66.8909 139.251 66.6161 138.972 66.3999L139.016 67.7766C139.023 67.9545 138.994 68.132 138.929 68.2979C138.864 68.4637 138.766 68.6144 138.641 68.7403C138.515 68.8662 138.365 68.9646 138.199 69.0294C138.034 69.0941 137.857 69.1238 137.679 69.1166Z" fill="#688FB7"/>
<path d="M87.4775 67.836C87.4908 68.1967 87.6426 68.5383 87.9013 68.7894C88.16 69.0405 88.5056 69.1816 88.8657 69.1833H88.9465C89.1212 69.1844 89.2944 69.15 89.4555 69.0821C89.6167 69.0143 89.7625 68.9143 89.884 68.7884C90.0055 68.6625 90.1003 68.5131 90.1626 68.3494C90.2249 68.1857 90.2534 68.0111 90.2465 67.836L90.195 66.4077L90.0482 62.2407L89.9012 58.0148C89.888 57.6541 89.7361 57.3125 89.4774 57.0614C89.2187 56.8103 88.8732 56.6692 88.5131 56.6675H88.469C88.2942 56.6664 88.121 56.7008 87.9599 56.7687C87.7987 56.8365 87.653 56.9365 87.5315 57.0624C87.41 57.1883 87.3152 57.3377 87.2529 57.5014C87.1906 57.6651 87.162 57.8397 87.169 58.0148L87.3159 62.2407L87.4628 66.4077L87.4775 67.836Z" fill="#B9C1C6"/>
<path d="M136.21 67.7769C136.225 68.139 136.379 68.4814 136.638 68.7335C136.898 68.9856 137.244 69.1281 137.606 69.1315H137.687C137.862 69.1328 138.035 69.0981 138.196 69.0297C138.358 68.9613 138.503 68.8606 138.624 68.7338C138.746 68.6069 138.839 68.4566 138.9 68.2921C138.961 68.1275 138.988 67.9522 138.979 67.7769L138.935 66.4002L138.788 62.2552L138.641 57.9557C138.626 57.5943 138.473 57.2527 138.213 57.0018C137.953 56.7509 137.607 56.61 137.246 56.6084H137.165C136.991 56.6072 136.818 56.6417 136.657 56.7096C136.496 56.7776 136.351 56.8776 136.23 57.0037C136.109 57.1297 136.015 57.2792 135.953 57.4428C135.892 57.6065 135.864 57.781 135.872 57.9557L136.019 62.2552L136.166 66.437L136.21 67.7769Z" fill="#B9C1C6"/>
</svg>
