<svg width="160" height="95" viewBox="0 0 160 95" fill="none" xmlns="http://www.w3.org/2000/svg">
<rect y="16.9746" width="160" height="69" rx="12" fill="#222F3B"/>
<path d="M55.1721 16.9746C55.2031 16.99 55.2339 16.9902 55.2649 16.9902C55.2804 17.0058 55.304 17.0059 55.3274 17.0059C55.3583 17.0136 55.3892 17.0292 55.4202 17.0293C55.4434 17.0448 55.4594 17.0449 55.4827 17.0449C55.537 17.0604 55.5835 17.0685 55.6301 17.084C55.6534 17.0917 55.6771 17.1064 55.7004 17.1064C55.7315 17.1142 55.7552 17.1221 55.7786 17.1299C55.8017 17.1376 55.8324 17.1531 55.8557 17.1533C55.879 17.1611 55.9027 17.1767 55.926 17.1768C55.9571 17.1845 55.9808 17.208 56.012 17.208C56.035 17.2158 56.0505 17.2312 56.0735 17.2314C56.1046 17.2392 56.1284 17.2626 56.1594 17.2627C56.1827 17.2705 56.2064 17.2861 56.2219 17.2861C56.2527 17.3015 56.2761 17.3089 56.3069 17.3242C56.3301 17.332 56.3307 17.3322 56.3616 17.3477L56.4553 17.3945C56.4631 17.4023 56.4788 17.418 56.4944 17.418C56.5331 17.4412 56.5639 17.4571 56.595 17.4727H56.6106C56.7816 17.566 56.9375 17.6665 57.093 17.7754C57.1318 17.7987 57.1627 17.8302 57.2014 17.8535L57.217 17.8691C57.2481 17.8925 57.2875 17.9162 57.3186 17.9473L57.3342 17.9629C57.3652 17.9938 57.4038 18.0171 57.4348 18.0557C57.4659 18.0868 57.5053 18.1183 57.5364 18.1494C57.793 18.3905 58.0187 18.6469 58.2209 18.9346C58.3298 19.0901 58.4313 19.2537 58.5168 19.4248C59.03 19.2383 59.582 19.1446 60.1262 19.1445H60.5237C60.5702 19.16 60.6089 19.1602 60.6555 19.1602H60.718C60.7567 19.1602 60.7955 19.1757 60.8342 19.1758C60.8576 19.1913 60.8812 19.1914 60.9045 19.1914C60.9434 19.1992 60.975 19.2148 61.0139 19.2148C61.0448 19.2226 61.068 19.2382 61.0989 19.2383C61.13 19.2461 61.1615 19.2617 61.1926 19.2617C61.2313 19.2695 61.2623 19.2929 61.301 19.293C61.3244 19.3007 61.348 19.3164 61.3713 19.3164C61.4334 19.3397 61.488 19.3547 61.55 19.3779C62.9812 19.8913 64.0941 21.2059 64.3743 22.707C64.6076 23.975 64.3347 25.4691 65.1203 26.457C66.0616 26.5426 67.4154 26.791 69.01 27.46C69.0256 27.4677 69.0491 27.4834 69.0647 27.4834H69.0881C70.947 27.5847 72.4796 29.0472 72.6741 30.8906C73.0863 31.614 73.3587 32.2516 73.5998 32.625C74.2276 33.5931 74.2449 33.7453 74.2453 33.7529C74.3465 35.2698 74.6185 37.1839 74.8674 38.833C75.1164 40.4818 75.9716 41.0343 76.5705 41.9365C77.1773 42.8388 80.9809 50.003 83.2834 52.959C85.5936 55.9147 88.4484 63.4671 88.9465 65.0234C89.3743 66.3458 89.8412 68.2906 88.0989 69.7686C88.0522 69.8152 88.0059 69.8547 87.9514 69.8936C87.897 69.9324 87.8496 69.9709 87.7952 70.0098H87.7795C87.7252 70.0486 87.6708 70.0803 87.6164 70.1191C87.601 70.1344 87.5852 70.1338 87.5852 70.1338C87.5307 70.1727 87.4766 70.2042 87.4221 70.2354H87.4065C87.3443 70.2665 87.29 70.3058 87.2278 70.3369L87.344 70.4844L87.3284 70.5928C87.3206 70.6005 87.3057 70.616 87.2903 70.6162C87.267 70.6318 87.2432 70.6475 87.2121 70.6631C87.2199 70.7875 87.2199 70.9048 87.1965 71.0137V71.1143C87.181 71.122 87.1809 71.1455 87.1809 71.1455L87.134 71.2393L87.1106 71.2617L87.0881 71.2852L87.0647 71.3086C86.9791 71.3942 86.8461 71.4641 86.6594 71.5264C86.6363 71.5418 86.621 71.542 86.5979 71.542C86.5746 71.5575 86.5587 71.5576 86.5354 71.5576H86.5198C86.4964 71.5732 86.4806 71.5732 86.4573 71.5732H86.4416C86.4185 71.5886 86.4032 71.5889 86.3801 71.5889H86.3645C86.3489 71.6044 86.3253 71.6045 86.302 71.6045H85.1584C85.0184 71.62 84.8706 71.6201 84.7073 71.6201C81.6659 71.6667 76.9054 68.7268 74.8362 67.6533C74.8051 67.6378 74.7657 67.6142 74.7346 67.5986C74.7113 67.5832 74.6807 67.575 74.6575 67.5596C74.65 67.5446 74.6352 67.544 74.634 67.5439C74.6107 67.5284 74.5792 67.5204 74.5559 67.5049H74.5325C74.5094 67.4895 74.494 67.4738 74.4709 67.4736C74.4635 67.459 74.442 67.458 74.4397 67.458C74.4242 67.4426 74.4161 67.4424 74.4006 67.4424C74.3851 67.4346 74.3614 67.4199 74.3459 67.4199H74.3303C74.3148 67.4045 74.292 67.3889 74.2688 67.3887H74.2532L74.1282 67.3418H74.1125C74.0738 67.3263 74.0429 67.3106 74.012 67.3105C73.7942 67.2639 73.5685 67.1861 73.343 67.0928C73.2263 67.0461 73.1091 66.992 73.0002 66.9375C72.938 66.9064 72.8681 66.867 72.8059 66.8359C72.6192 66.7271 72.4321 66.6186 72.261 66.502C72.2066 66.4631 72.1523 66.4236 72.0979 66.3848C71.7714 66.1515 71.5073 65.9181 71.3362 65.7393C71.3128 65.7081 71.2814 65.6845 71.258 65.6611C70.8069 65.2568 70.1924 65.2808 70.5891 66.7041C70.9546 68.0345 70.8617 72.274 70.6672 77.2754V77.3066C70.6594 77.5165 70.6438 77.7266 70.6438 77.9365V77.9678C70.636 78.1699 70.6203 78.3721 70.6203 78.5742V78.6602C70.6126 78.8623 70.5969 79.0645 70.5969 79.2666V79.29C70.558 80.3009 70.5343 81.133 70.5188 81.8252V82.9844C70.5263 85.1078 70.6799 85.227 70.6897 85.2324C70.7052 85.2791 70.7132 85.3185 70.7287 85.3574V85.3809C70.7366 85.4119 70.7599 85.4504 70.76 85.4814V85.5205C70.7678 85.5438 70.7834 85.5753 70.7834 85.6064C70.7987 85.6218 70.7991 85.637 70.7991 85.6523C70.8068 85.6834 70.8225 85.7072 70.8225 85.7383C70.838 85.7538 70.8381 85.7774 70.8381 85.793C70.8459 85.8238 70.8614 85.8471 70.8616 85.8779C70.8771 85.9012 70.8772 85.9172 70.8772 85.9404C70.8772 85.9508 70.8806 85.9626 70.884 85.9746H37.7082C37.7434 85.7617 37.786 85.5451 37.8332 85.3262C37.8488 85.2562 37.8636 85.1783 37.8791 85.1006C37.9336 84.8362 38.0044 84.5641 38.0666 84.2842C38.0822 84.2066 38.1048 84.1284 38.1203 84.0508C38.1359 84.0275 38.136 84.0038 38.136 83.9805C38.1515 83.9027 38.1751 83.817 38.1907 83.7393C38.2062 83.6615 38.2298 83.5836 38.2453 83.5059C38.2764 83.3737 38.307 83.2337 38.3381 83.0938C38.3692 82.9616 38.4007 82.8294 38.4241 82.6973C38.4785 82.4328 38.5326 82.1599 38.5715 81.8799C38.5871 81.7633 38.6029 81.6468 38.6184 81.5303C38.6262 81.4682 38.6418 81.4136 38.6418 81.3516C38.6885 80.9315 38.7278 80.4951 38.7278 80.0518C38.7355 79.6008 38.7197 79.1422 38.6731 78.6602C38.6264 78.2557 38.5643 77.8272 38.4709 77.3916C38.2998 76.5906 38.0355 75.7429 37.6389 74.8486C37.6078 74.7864 37.5841 74.7233 37.553 74.6533V74.623C37.5219 74.553 37.4904 74.4821 37.467 74.4121V74.3975C36.8292 72.725 36.3 70.1183 35.8489 67.2324C34.5656 66.5712 33.3364 65.5524 32.2942 64.3936C32.2554 64.347 32.2167 64.3004 32.178 64.2539C32.1624 64.2384 32.1544 64.2226 32.1389 64.207C32.1078 64.1759 32.0841 64.1366 32.0608 64.1055C32.0455 64.0825 32.0379 64.0669 32.0227 64.0439C32.0071 64.0051 31.9835 63.9735 31.9602 63.9424C31.9446 63.9268 31.9367 63.9032 31.9211 63.8799C31.8979 63.8488 31.8742 63.8103 31.8586 63.7793C31.8431 63.756 31.8351 63.7323 31.8196 63.709C31.8041 63.6703 31.7814 63.6392 31.7659 63.6006C31.7581 63.5773 31.7347 63.5536 31.7346 63.5303C31.7191 63.4914 31.6955 63.452 31.6799 63.4131C31.6645 63.3976 31.6488 63.3747 31.6487 63.3516C31.6331 63.3049 31.6095 63.2654 31.594 63.2188C31.5861 63.2032 31.5715 63.1795 31.5715 63.1641C31.5482 63.1019 31.5245 63.0475 31.5012 62.9854V62.9697C31.4546 62.8376 31.4073 62.6975 31.3684 62.5576V62.5186C31.3529 62.4642 31.338 62.4097 31.3225 62.3477C31.3069 62.3321 31.3069 62.3085 31.3069 62.293C31.2914 62.2386 31.2833 62.1842 31.2678 62.1299C31.2523 62.1143 31.2522 62.0908 31.2522 62.0752C31.2366 62.0208 31.2131 61.9587 31.2131 61.9043V61.8496C31.2053 61.7875 31.1819 61.733 31.1819 61.6709V61.624C31.174 61.5619 31.1506 61.4996 31.1506 61.4297V61.3984C30.6529 57.9681 31.5481 53.7211 31.5481 52.4766C31.5481 51.232 31.999 48.3232 35.0715 47.4053C35.8727 47.1719 36.581 47.0625 37.1877 47.0625H38.0432C38.0742 47.0779 38.105 47.0781 38.136 47.0781H38.175C38.2449 47.0859 38.2995 47.1093 38.3616 47.1094H38.4162C38.4474 47.1249 38.4711 47.125 38.5022 47.125H38.5481C38.5792 47.125 38.603 47.1406 38.634 47.1406H38.6575C38.7119 47.1484 38.7662 47.1641 38.8205 47.1797H38.8596C38.8829 47.1875 38.9066 47.2031 38.9299 47.2031C38.9452 47.2183 38.9535 47.2178 38.969 47.2178C38.9922 47.2255 39.0152 47.2411 39.0383 47.2412H39.0618C39.1006 47.2568 39.1479 47.2725 39.1868 47.2881H39.217C39.2325 47.2958 39.2562 47.3114 39.2717 47.3115C39.2792 47.3265 39.3012 47.3271 39.303 47.3271C39.3263 47.3349 39.3421 47.3506 39.3577 47.3506H39.3811C39.4121 47.366 39.4428 47.3742 39.4661 47.3896C39.4815 47.4051 39.482 47.4053 39.4973 47.4053C39.5128 47.4053 39.5209 47.4209 39.5364 47.4209C39.5519 47.4363 39.5676 47.4355 39.5676 47.4355C39.5754 47.4511 39.5989 47.4512 39.5989 47.4512C39.6144 47.4667 39.6146 47.4668 39.6301 47.4668C39.6444 47.467 39.6649 47.4803 39.6682 47.4824C40.0649 47.3346 40.4698 47.1947 40.8664 47.0547C40.9909 46.8991 41.1151 46.7434 41.2395 46.5801C41.3406 46.4479 41.4421 46.3236 41.5432 46.1914C41.5588 46.1603 41.5824 46.1366 41.6057 46.1055V46.0898C41.6756 45.9966 41.7536 45.8959 41.8235 45.8027C41.8468 45.7794 41.8626 45.7558 41.8782 45.7324C41.886 45.7169 41.9016 45.7012 41.9016 45.7012C41.9715 45.6079 42.0416 45.5063 42.1116 45.4131C42.1271 45.3899 42.1498 45.3591 42.1653 45.3359C42.243 45.2348 42.3131 45.1333 42.383 45.0322C42.3908 45.0167 42.4143 45.0009 42.4143 44.9854V44.9697C42.4842 44.861 42.5621 44.7601 42.6321 44.6514C42.6398 44.6358 42.6555 44.6279 42.6555 44.6123C42.7332 44.5035 42.8112 44.3871 42.8811 44.2783C42.8952 44.2783 42.8966 44.2651 42.8967 44.2627C42.9745 44.146 43.0445 44.0288 43.1223 43.9121C43.2 43.7878 43.2779 43.6713 43.3479 43.5547C43.449 43.3913 43.5505 43.22 43.6516 43.0566C43.6905 42.9789 43.7368 42.901 43.7834 42.8232C43.7912 42.8155 43.8069 42.792 43.8069 42.792C43.9935 42.4731 44.165 42.1696 44.3205 41.874C44.6783 41.2208 44.9582 40.6375 45.176 40.1631C44.7717 39.9609 44.4141 39.6652 44.1496 39.2998C43.4185 38.2886 43.4332 36.8023 44.1799 35.8066C43.3555 34.9044 42.8347 33.7142 42.7336 32.4854C42.7103 32.291 42.7102 32.252 42.7102 31.8945C42.7102 31.5368 42.5389 31.2023 42.2434 31C41.0377 30.1677 40.2522 28.7822 40.2522 27.2109C40.2523 26.5188 40.4077 25.8655 40.6799 25.2822C40.7266 25.1889 40.7187 25.0875 40.6643 25.002C39.8244 23.6485 40.3765 21.7658 41.551 20.6846C42.7256 19.6035 44.3519 19.1758 45.9309 18.9502C46.1563 18.9113 46.3741 18.8105 46.5295 18.6318C47.1673 17.9085 48.1006 17.4493 49.1428 17.4492C49.8507 17.4492 50.5046 17.6588 51.0569 18.0244C51.578 17.83 52.0836 17.6046 52.5969 17.4102C52.6591 17.3946 52.7134 17.371 52.7756 17.3477C52.7911 17.3322 52.7992 17.332 52.8147 17.332C52.869 17.3165 52.9157 17.2939 52.97 17.2783C52.9855 17.2628 53.0091 17.2627 53.0246 17.2627C53.0712 17.2472 53.1178 17.2313 53.1643 17.2158C53.1876 17.2081 53.2113 17.1924 53.2346 17.1924C53.2735 17.1768 53.3207 17.1533 53.3596 17.1533C53.3904 17.1455 53.4137 17.1299 53.4446 17.1299C53.4835 17.1143 53.5151 17.0986 53.5539 17.0986C53.5849 17.0908 53.6236 17.0763 53.6545 17.0762C53.6856 17.0684 53.7172 17.0527 53.7483 17.0527C53.7948 17.045 53.8336 17.0294 53.8801 17.0293C53.9035 17.0137 53.9271 17.0137 53.9504 17.0137C54.0204 17.0059 54.0826 16.9902 54.1526 16.9902C54.1992 16.9747 54.2535 16.9746 54.3078 16.9746H55.1721ZM65.1594 37.417V37.4795C65.1127 37.7983 65.0585 38.1099 64.9963 38.4287V38.4746C64.9341 38.8013 64.8642 39.1206 64.7942 39.4395V39.4629C64.7164 39.7896 64.6385 40.1167 64.553 40.4434C64.3508 41.2288 64.1251 42.0065 63.884 42.7764C63.534 43.9043 63.3471 45.2037 62.4914 46.0049C61.3946 47.0394 58.7808 47.2263 58.6174 47.3975C59.2367 48.5508 59.902 49.8043 59.9084 49.8164C59.9084 49.8164 61.3972 50.347 62.8381 50.6357L62.8254 50.6172C64.2597 50.9025 65.748 50.7142 65.7737 50.7109C65.7737 50.7109 67.229 50.6643 68.1936 50.7109C69.158 50.7579 70.612 51.9242 71.3821 52.2588C72.1599 52.5933 73.6067 54.3828 73.6067 54.3828C73.6067 54.3828 75.1076 55.3464 75.4426 55.7822C75.7849 56.2101 76.509 56.1172 76.509 56.1172C76.7967 56.3193 77.0925 56.5136 77.3879 56.7002C77.1313 55.6579 76.936 54.7866 76.7727 54.2188C76.516 53.3165 75.9717 52.0954 75.2795 50.7188C74.6261 49.4275 73.8405 47.9958 73.0315 46.5723C72.4092 45.4678 71.6935 44.6044 71.009 43.9121C70.8457 43.7488 70.6743 43.5853 70.511 43.4375L70.4875 43.4141C70.3944 43.3287 70.2935 43.2435 70.2004 43.1582C69.9826 42.9637 69.764 42.7923 69.5618 42.6289C69.4608 42.5512 69.3679 42.4732 69.2746 42.4033C68.8624 42.0844 68.5198 41.8193 68.2942 41.5938C67.9909 41.2981 67.5477 40.6841 67.0813 40.0078C67.0035 39.899 66.9256 39.7817 66.8479 39.665L66.6145 39.3154C66.5756 39.261 66.5362 39.198 66.4973 39.1436C66.2251 38.7392 65.9758 38.3422 65.758 38C65.727 37.9535 65.6963 37.9069 65.6653 37.8604C65.5798 37.7204 65.494 37.5884 65.4241 37.4795C65.3307 37.3317 65.2529 37.2145 65.1985 37.1289C65.1907 37.2222 65.175 37.3237 65.1594 37.417ZM62.4368 34.5938C62.3356 35.4649 62.134 36.655 61.9084 37.8994C61.893 37.9304 61.8928 37.9612 61.8928 37.9922C61.8617 38.1476 61.8379 38.2958 61.8069 38.4512C61.7913 38.4823 61.7912 38.5138 61.7912 38.5449C61.7601 38.6927 61.7364 38.8405 61.7053 38.9883C61.7053 39.0194 61.6907 39.0509 61.6907 39.082C61.6596 39.2298 61.6358 39.3855 61.6047 39.5332C61.5659 39.7198 61.5342 39.914 61.4953 40.1006C61.4798 40.1861 61.465 40.2719 61.4495 40.3574C61.3794 40.6997 61.3164 41.0267 61.2541 41.3379C61.2463 41.3844 61.2239 41.431 61.2239 41.4697V41.5088C61.2161 41.5397 61.2006 41.5629 61.2004 41.5938C61.185 41.6015 61.1848 41.6173 61.1848 41.6328V41.6719C61.1692 41.6874 61.1692 41.7032 61.1692 41.7188C61.1536 41.7343 61.1536 41.7423 61.1536 41.7578V41.7812C61.1457 41.8122 61.1224 41.8354 61.1223 41.874L61.0754 41.9912V42.0068L61.0286 42.0996V42.123C61.0208 42.1386 61.0061 42.1544 61.0061 42.1699L60.9827 42.2168V42.2324C60.8816 42.419 60.7564 42.5896 60.6243 42.7451C60.5776 42.7918 60.5391 42.8391 60.4924 42.8857C60.4458 42.9324 60.3984 42.9787 60.3518 43.0176C60.3363 43.033 60.3136 43.049 60.2981 43.0645C59.5281 43.9512 58.5166 44.0987 58.011 44.1143H57.925C57.8507 44.1291 57.812 44.1299 57.8088 44.1299H57.6838V44.6904C57.6838 44.737 57.6682 44.7913 57.6682 44.8379V45.2031C57.6526 45.3042 57.6379 45.4136 57.6223 45.5225V45.624C57.6611 45.6784 57.7077 45.7558 57.762 45.8564L57.6809 45.8701C58.0269 45.921 58.5645 45.9721 59.6604 45.8105C62.538 45.3981 62.7247 42.9633 63.3547 41.501C63.6348 40.8553 63.8142 40.2327 63.9309 39.626C64.1797 38.327 64.1091 37.0979 64.0002 35.8223C63.7592 35.5501 63.5881 35.3555 63.5881 35.3555C63.5775 35.352 62.8614 35.1187 62.4368 34.5938ZM66.2952 35.2002C66.3652 35.2935 66.435 35.3714 66.4895 35.4492C66.6413 35.6466 66.7341 35.777 66.7385 35.7832C66.7541 35.8065 66.7776 35.8302 66.7932 35.8535C66.8086 35.8536 66.8088 35.8691 66.8088 35.8691C66.8166 35.8846 66.8324 35.9005 66.8479 35.916L66.8625 35.9316C66.9014 35.9705 66.9408 36.009 66.9719 36.0479C66.9875 36.0634 67.0032 36.0714 67.0188 36.0869C67.0499 36.1102 67.0883 36.1339 67.1194 36.1572C67.2672 36.2506 67.408 36.2576 67.5325 36.2188H67.5471L67.6252 36.2344C67.7341 36.2033 67.8356 36.1256 67.9368 36.04C67.9523 36.0245 67.9757 36.0012 67.9758 35.9551V35.0986C67.338 35.0753 66.5983 34.9508 66.0149 34.8652C66.116 34.9819 66.2096 35.0991 66.2952 35.2002Z" fill="#101619"/>
<path d="M94.0517 19.885C93.9993 19.361 93.912 18.802 93.5714 18.4003C93.2308 17.9985 92.5495 17.8326 92.174 18.1907L92.4273 18.4876C92.0604 23.2038 93.7198 26.6012 91.8508 30.9505C91.091 32.7322 90.8552 35.6929 87.3618 36.1994C84.4273 36.6274 84.7766 35.8676 83.6587 36.4265C83.4404 36.5313 83.2307 36.6972 83.1609 36.9243C83.0648 37.2125 83.2133 37.5269 83.3967 37.7802C84.2351 38.9331 84.8814 39.1863 85.8596 38.1558C86.0604 37.9462 89.2395 37.7191 90.5757 36.4614C91.615 35.4833 91.8421 33.9025 92.2701 32.5313C93.5539 28.444 94.4884 24.1557 94.0605 19.885H94.0517Z" fill="#046C7C"/>
<path d="M92.5408 28.6711C92.6281 28.8545 92.7154 29.0292 92.8115 29.2126C92.8988 29.3785 92.9862 29.5357 93.0735 29.7017C93.9032 26.4877 94.3836 23.1864 94.0517 19.8938C93.9993 19.3698 93.9119 18.8108 93.5713 18.4091C93.2307 18.0073 92.5495 17.8414 92.174 18.1995L92.4272 18.4964C92.1303 22.3567 93.1783 25.3348 92.5495 28.6711H92.5408Z" fill="#00144A"/>
<path d="M89.877 8.93307C88.7591 5.57062 84.1041 2.45271 80.5058 4.57499C76.9949 6.64486 71.6848 7.25621 70.8901 17.789C70.8377 17.9374 70.7853 18.0947 70.7503 18.2431C70.4883 17.4833 69.6412 15.5881 67.8333 16.5401C65.5975 17.7191 67.7198 22.6099 69.0123 23.5532C69.3267 23.7802 69.9468 24.5139 70.8115 25.492C70.925 28.5663 71.0298 31.2126 71.0298 31.2126L71.7285 40.5052C71.7285 40.5052 80.9949 44.872 82.2962 44.872C83.5975 44.872 84.794 34.8632 84.8814 34.1471H85.0386C85.0386 34.1471 85.1259 34.1471 85.2744 34.1121C85.8945 34.0947 87.1259 33.92 88.0604 32.837C88.6281 32.3392 89.0997 31.658 89.2831 30.7322C89.8683 27.7279 90.7591 23.1864 90.8115 21.5357C90.8726 19.885 90.9862 12.2868 89.8683 8.92434H89.877V8.93307Z" fill="#FFAB92"/>
<path d="M75.6849 42.2341C75.1434 41.4306 74.663 40.5921 74.2875 39.6926C73.9905 38.9764 73.746 38.1816 73.7984 37.3956C73.8508 36.6445 74.2526 35.8498 75.0473 35.6751C75.5713 35.5528 76.1041 35.6576 76.6281 35.6227C76.8202 35.6227 77.0386 35.579 77.1871 35.4567C77.3705 35.3083 77.5451 35.055 77.5102 34.8017C77.4753 34.5659 77.3006 34.3476 77.1434 34.1816C76.9425 33.9546 76.7067 33.7624 76.4884 33.5528C75.9643 33.0375 77.1259 29.9546 76.6194 29.4218C75.6063 28.3388 74.401 29.3869 73.5713 28.1554C73.1783 27.579 71.4141 27.3345 71.0298 26.758C70.9687 26.6707 70.9076 26.5746 70.8464 26.4873C70.9425 29.1161 71.0298 31.2209 71.0298 31.2209L71.7285 40.5135C71.7285 40.5135 73.5888 41.3956 75.7635 42.3563C75.7373 42.3127 75.7111 42.2777 75.6761 42.2341H75.6849Z" fill="#FF7F4C"/>
<path d="M89.8771 8.93307C88.7592 5.57062 84.1041 2.45271 80.5059 4.57499C76.995 6.64486 71.6849 7.25621 70.8901 17.789C70.8377 17.9374 70.7853 18.0947 70.7504 18.2431C70.4884 17.4833 69.6412 15.5881 67.8334 16.5401C66.5059 17.2388 66.9163 19.6492 67.5714 21.361C69.4054 22.2955 70.829 23.23 72.3137 24.6536C73.8334 26.1034 75.2133 27.6929 76.567 29.2999C76.6019 29.3436 76.6194 29.3785 76.6281 29.4222C77.4578 30.7148 78.3399 31.9811 79.2919 33.1951C80.7766 35.0728 82.4185 36.8458 84.2788 38.3567C84.6194 36.2781 84.8552 34.444 84.8902 34.1558H85.0474C85.0474 34.1558 85.1347 34.1558 85.2832 34.1209C85.9033 34.1034 87.1347 33.9287 88.0692 32.8458C88.6369 32.3479 89.1085 31.6667 89.2919 30.741C89.8771 27.7366 90.7679 23.1951 90.8203 21.5444C90.8814 19.8938 90.995 12.2955 89.8771 8.93307Z" fill="#FF7F4C"/>
<path d="M88.6281 31.1948C87.7023 30.9589 86.7154 30.9327 85.7634 30.9677C83.8246 31.0288 81.8333 31.4393 80.1302 32.4C80.1652 32.9764 80.532 33.5179 80.8988 33.9459C81.2656 34.3825 81.6936 34.7755 82.1827 35.0812C82.7329 35.4218 83.3093 35.7275 83.9032 35.9808C84.1303 36.0769 84.3661 36.1729 84.6106 36.2515C84.7678 35.1511 84.8726 34.3476 84.8901 34.1642H85.0473C85.0473 34.1642 85.1346 34.1642 85.2831 34.1293C85.9032 34.1118 87.1346 33.9371 88.0691 32.8541C88.5058 32.4699 88.8814 31.9808 89.1172 31.352C88.96 31.2996 88.8028 31.2472 88.6368 31.2035V31.186L88.6281 31.1948Z" fill="#A93E00"/>
<path d="M71.4316 35.2739C71.4316 35.2739 55.6586 39.9115 55.9293 41.763C56.1914 43.6145 57.5189 64.9508 60.3049 71.3089C63.0909 77.667 60.7066 81.9115 60.3049 85.4836C59.9032 89.0644 59.5363 93.4661 60.4621 94.0251L101.065 94.0076C101.065 94.0076 101.301 87.0731 100.279 84.0251C100.279 84.0251 99.8857 83.9028 100.183 76.7936C100.48 69.6844 100.698 63.3002 100.183 61.4661C99.6674 59.632 100.541 59.7019 101.091 60.2958C101.641 60.8809 103.039 61.9115 104.357 62.1997C105.676 62.4967 112.242 67.2428 116.643 67.1729C121.045 67.1031 120.052 66.453 120.637 64.6626C121.222 62.8635 112.13 51.4224 112.13 51.4224C112.13 51.4224 110.235 50.4879 108.418 49.3001C106.602 48.1124 107.545 48.846 107.065 48.7587C106.584 48.6713 106.541 48.6015 106.357 48.3744C106.174 48.1473 105.641 47.7281 105.161 47.3787C104.68 47.0294 103.877 46.3569 103.327 45.7543C102.777 45.1517 101.947 44.322 101.414 44.0949C100.471 43.6844 98.7067 42.2696 97.5364 42.2084C96.3661 42.1473 94.5931 42.2084 94.5931 42.2084C94.5931 42.2084 92.7678 42.4442 91.0036 42.0949C89.2394 41.7455 87.4141 41.0993 87.4141 41.0993C87.4141 41.0993 84.9425 36.3744 84.6543 35.9551C83.9206 38.4792 84.8901 39.6233 82.2962 40.9159C79.711 42.2084 71.4316 35.2739 71.4316 35.2739Z" fill="#3B5B7C"/>
<path d="M56.9162 52.4093C57.5713 50.3744 58.532 48.4355 59.842 46.7412C60.5669 45.798 61.3879 44.9333 62.2962 44.1735C63.3005 43.3263 64.3922 42.6364 65.5451 42.025C66.7678 41.3787 68.0254 40.8198 69.2743 40.2346C70.4534 39.6844 71.6674 39.1517 72.7241 38.3918C73.1957 38.0512 73.615 37.6757 74.008 37.2739C72.5058 36.1822 71.4315 35.2739 71.4315 35.2739C71.4315 35.2739 55.6586 39.9115 55.9293 41.763C56.0429 42.5665 56.3573 47.0643 56.9075 52.4006H56.9162V52.4093Z" fill="#00144A"/>
<path d="M65.1872 82.3391C65.8596 81.8936 66.5933 81.553 67.3444 81.2823C67.9295 81.0727 68.5409 80.8893 69.1522 80.7757C69.6413 80.6884 70.1391 80.6709 70.6369 80.6447C71.1173 80.6185 71.6151 80.5836 72.078 80.4613C72.3662 80.3827 72.6195 80.2779 72.7941 80.077C71.9819 79.684 71.0998 79.4657 70.2265 79.2561C69.257 79.0203 68.2963 78.767 67.4055 78.3129C66.0343 77.6142 64.9077 76.5661 63.9644 75.3609C63.0212 74.1556 63.0561 74.1207 62.6107 73.4919C62.1566 72.8369 61.6937 72.1906 61.2308 71.5443C60.6107 70.6622 59.9994 69.7626 59.4579 68.8281C59.7199 69.7976 59.9994 70.6447 60.2963 71.3172C63.0823 77.6753 60.6981 81.9198 60.2963 85.4919C59.8946 89.0727 59.5016 93.2474 60.4273 93.8063C60.471 93.8325 60.5933 93.8587 60.7854 93.8762C60.7854 93.7015 60.7854 93.5268 60.8203 93.3609C60.8815 92.898 61.0998 92.4875 61.4055 92.1382C61.685 91.8151 62.0168 91.553 62.2614 91.2037C62.471 90.898 62.6544 90.5749 62.8291 90.2517C63.5278 88.9155 64.1653 87.3434 65.6064 86.6447C66.3837 86.2692 67.3007 86.1819 68.1566 86.1644C69.0562 86.1469 69.9557 86.2343 70.8553 86.3216C72.471 86.4701 74.2527 86.6709 75.7636 85.9722C75.4492 85.457 74.7854 85.195 74.209 85.0465C73.4928 84.8543 72.7417 84.7845 72.0081 84.7321C71.685 84.7059 71.3618 84.6884 71.0474 84.6535C70.6893 84.6185 70.3225 84.5487 69.9732 84.4788C69.0911 84.3129 68.2177 84.1207 67.3618 83.85C66.5758 83.5967 65.7723 83.2823 65.1347 82.7408C64.995 82.6273 65.0561 82.4089 65.1872 82.3216V82.3391Z" fill="#00144A"/>
<path d="M82.0604 40.9942C82.1827 41.4571 82.401 41.8937 82.6543 42.3042C83.0037 42.8719 83.4141 43.3872 83.8508 43.8763C84.7329 44.8457 85.7722 45.7627 86.9687 46.3217C87.4578 46.5488 87.912 46.6536 88.4447 46.6099C88.5845 46.6099 88.7329 46.5837 88.8639 46.5226C88.8639 46.5226 88.8639 46.5051 88.8465 46.4964C88.8465 46.4964 88.8203 46.4614 88.8115 46.4614C88.7242 46.3654 88.6369 46.2868 88.5321 46.2081C88.0692 45.8413 87.5364 45.5357 87.0561 45.1688C86.2875 44.5837 85.65 43.8588 84.9338 43.2212C84.7504 43.0553 84.5495 42.9156 84.3748 42.7584C84.2613 42.6623 84.174 42.54 84.0779 42.4265C83.8421 42.147 83.615 41.8501 83.3792 41.5706C83.1434 41.2911 82.8989 41.0116 82.6106 40.7933C82.5932 40.7933 82.5844 40.7758 82.5757 40.7671C82.4796 40.8195 82.3923 40.8632 82.2962 40.9156C82.2002 40.968 82.0604 41.0029 82.0604 41.0029V40.9942Z" fill="#00144A"/>
<path d="M97.8508 91.4743C97.9556 91.5355 98.0779 91.5791 98.1914 91.5791C98.6368 91.5791 99.0124 91.0376 99.3006 90.7232C99.4753 90.5398 99.6587 90.3477 99.8945 90.2429C100.104 90.1468 100.34 90.1031 100.567 90.1031C100.794 90.1031 100.908 90.1293 101.065 90.1817C100.995 88.0944 100.803 85.5966 100.287 84.042C100.287 84.042 99.8945 83.9197 100.191 76.8105C100.235 75.7101 100.279 74.6359 100.322 73.5791C100.296 73.6402 100.27 73.7014 100.244 73.7625C99.6412 75.1337 98.9163 76.4525 98.2962 77.8149C97.5975 79.3433 96.9513 80.9066 96.3312 82.4699C95.7285 83.9983 95.1696 85.5442 94.5495 87.0638C94.27 87.7538 93.9643 88.435 93.7285 89.1424C93.5713 89.6141 93.4403 90.1119 93.4054 90.6097C94.0342 89.8848 94.4884 88.8979 94.9251 88.0245C95.4403 87.0202 95.9381 85.9809 96.6368 85.0813C97.1434 84.435 97.8858 83.7625 98.7766 83.9634C99.6063 84.1468 99.7548 85.1075 99.7285 85.8149C99.6936 86.7582 99.4491 87.7014 99.1521 88.5922C99.0299 88.9678 98.8901 89.3433 98.7242 89.7014C98.5582 90.0682 98.3224 90.3651 98.0866 90.6883C97.9556 90.8717 97.7722 91.125 97.7547 91.3084V91.3782C97.7547 91.3433 97.7547 91.3783 97.7547 91.3957C97.7722 91.4307 97.8071 91.4569 97.8508 91.4831V91.4743Z" fill="#00144A"/>
<path d="M74.3486 43.7631C73.8071 43.6845 73.2744 43.4749 72.7853 43.2478C71.9382 42.8635 71.1609 42.3657 70.4534 41.7718C70.2002 41.5622 69.9556 41.3526 69.6936 41.1692C70.27 41.8679 70.7591 42.6452 71.2919 43.3701C71.8508 44.1212 72.4622 44.9072 73.2482 45.4312C73.9382 45.8854 74.663 45.9902 75.3879 45.536C75.8945 45.2129 76.3137 44.75 76.7154 44.3133C77.1434 43.8504 77.5888 43.4138 78.1216 43.0731C78.6543 42.7413 79.1696 42.3919 79.615 41.9465C80.0604 41.5011 80.0692 41.4312 80.2264 41.1343C79.6237 41.6059 79.0211 42.0688 78.3748 42.488C77.5626 43.012 76.6805 43.4924 75.7285 43.702C75.2744 43.798 74.8203 43.833 74.3574 43.7718H74.3486V43.7631Z" fill="#00144A"/>
<path d="M62.9076 38.2519C62.9076 38.2519 60.8726 36.8108 57.1346 37.92C53.3966 39.0379 52.8464 42.5838 52.8464 44.086C52.8464 45.5881 50.8377 55.3087 53.7897 58.5925C56.7416 61.8764 60.9425 64.2345 64.2875 62.3305C64.2875 62.3305 64.8115 61.9986 65.7984 58.6537C66.7853 55.3087 69.2744 50.2519 69.2744 50.2519C69.2744 50.2519 67.1783 51.8938 61.1346 46.444L59.3006 44.8633C59.3006 44.8633 63.8945 45.5794 63.6936 43.2213C63.4927 40.8633 62.9076 38.2344 62.9076 38.2344V38.2519Z" fill="#3B5B7C"/>
<path d="M59.4404 44.7588C59.4404 44.8199 59.2919 44.8199 59.2395 44.8811C58.7155 45.4924 58.3662 46.4269 57.8858 47.0732C57.126 48.1125 56.4098 49.1867 55.7199 50.2697C55.4229 50.7413 55.1347 51.2217 54.9164 51.7282C54.7941 52.0077 54.6893 52.3134 54.6456 52.6191C54.7592 52.4968 54.8465 52.3571 54.9164 52.2173C55.091 51.9204 55.2308 51.606 55.4317 51.3265C55.6937 50.9684 55.9731 50.6191 56.2701 50.2872C56.5758 49.9466 56.9164 49.6322 57.2133 49.2915C57.4491 49.0295 57.6675 48.7501 57.9469 48.5317C58.0867 48.4269 58.2352 48.3483 58.4011 48.2959C58.5496 48.2522 58.7592 48.2086 58.8989 48.2959C59.0212 48.357 59.0386 48.4793 59.126 48.5667C59.1522 48.5929 59.126 48.6016 59.1871 48.5667C59.2832 48.4968 59.3531 48.3745 59.4229 48.2784C59.5103 48.1649 59.5976 48.0514 59.7199 47.9728C59.9382 47.8418 60.2526 47.737 60.4972 47.8767C60.7417 48.0164 60.8814 48.3134 61.0823 48.5055C61.3705 48.7763 61.7024 49.0121 62.0256 49.2304C62.3487 49.4488 62.6631 49.6846 62.9863 49.9116C63.5539 50.3046 64.1478 50.6627 64.7941 50.8985C65.4928 51.1431 66.2264 51.2042 66.9601 51.2391C67.5889 51.2653 68.2264 51.2566 68.8378 51.1256C69.0911 50.5841 69.257 50.261 69.257 50.261C69.257 50.261 67.1609 51.9029 61.1173 46.4531L59.4404 44.7588Z" fill="#00144A"/>
<path d="M63.7023 43.2385C63.5015 40.8804 62.9163 38.2516 62.9163 38.2516C62.9163 38.2516 61.7635 37.4306 59.5975 37.5092H59.5713C59.5364 37.5092 59.5102 37.5092 59.4752 37.5267C59.4054 37.5267 59.3442 37.5441 59.2744 37.5616C59.1172 37.5878 58.96 37.6228 58.8028 37.649C58.4097 37.7276 58.0255 37.8236 57.6412 37.9372C57.2744 38.0507 56.9076 38.173 56.5669 38.3389C56.4185 38.4175 56.27 38.4961 56.1303 38.5922C56.0691 38.6359 56.1128 38.5922 56.0604 38.6446C56.0342 38.6621 56.0167 38.6883 55.9905 38.7057C55.9731 38.7232 55.9469 38.7494 55.9294 38.7756C55.9294 38.7756 55.9294 38.7931 55.9119 38.8018C55.9119 38.8193 55.8857 38.8455 55.877 38.8629C55.877 38.8629 55.8595 38.9066 55.8595 38.9153V38.9328V38.959C55.877 38.959 55.9119 38.9852 55.9119 38.9852C55.9818 39.0201 56.0691 39.0376 56.1477 39.0463C56.5145 39.1162 56.96 39.0813 57.2831 39.2996C57.449 39.4131 57.4578 39.649 57.2831 39.7538C57.0386 39.9022 56.7765 40.0158 56.5145 40.1206C55.9643 40.3564 55.3792 40.5747 54.8988 40.9415C54.5669 41.1948 54.3835 41.4918 54.3923 41.8498C55.1172 41.3782 55.7285 40.7319 56.5145 40.3651C57.3442 39.9808 58.2962 39.9808 59.1434 40.3214C59.9207 40.6359 60.5669 41.1773 61.1172 41.7974C61.6936 42.4437 62.1827 43.1686 62.663 43.8848C62.8028 44.0856 62.9425 44.2952 63.0822 44.4961C63.5102 44.2341 63.7722 43.8324 63.7198 43.221L63.7023 43.2385Z" fill="#00144A"/>
<path d="M62.6455 61.5792C61.8945 61.4395 61.187 61.1687 60.4883 60.8718C59.7722 60.5661 59.0648 60.2255 58.3923 59.8412C57.1084 59.0989 55.9294 58.1818 54.8377 57.1862C54.2875 56.6884 53.7634 56.1644 53.2394 55.6316C52.9687 55.3521 52.7067 55.0726 52.4359 54.7932C52.401 54.7495 52.3573 54.7146 52.3224 54.6709C52.5233 56.2692 52.9599 57.6927 53.7896 58.6098C56.7416 61.8936 60.9425 64.2517 64.2875 62.3478C64.2875 62.3478 64.4359 62.2517 64.7241 61.6665H64.6805C63.9993 61.7451 63.318 61.7102 62.6455 61.5792Z" fill="#00144A"/>
<path d="M70.8988 17.6143C70.8813 17.8152 70.6106 17.8676 70.5233 17.6842C70.1128 16.837 69.2831 15.7715 67.8333 16.5401C65.5975 17.7191 67.7198 22.6099 69.0123 23.5532C70.3049 24.4964 76.5582 33.8065 85.0386 34.1558C85.0386 34.1558 88.6892 33.7453 89.2831 30.741C89.8683 27.7366 90.7591 23.1951 90.8115 21.5444C90.8726 19.8938 90.9862 12.2955 89.8683 8.93307C88.7504 5.57062 84.0953 2.45271 80.4971 4.57499C77.0036 6.63612 71.7285 7.24748 70.8988 17.6143Z" fill="#FFAB92"/>
<path d="M89.9208 24.3396C89.7898 25.3615 89.4229 26.296 89.0037 27.2305C88.7854 27.7021 88.5583 28.165 88.3574 28.6453C88.1566 29.0995 87.9994 29.5623 87.8422 30.0252C87.3531 31.4488 86.4098 32.6715 85.0037 33.2654C84.1915 33.6148 83.3181 33.7458 82.436 33.7632C83.2832 33.9816 84.1566 34.1388 85.0474 34.1737C85.0474 34.1737 87.3094 34.3047 88.698 32.165C88.9164 31.8244 89.0474 31.5798 89.1435 31.2916C89.2395 31.0034 89.2395 30.951 89.2919 30.7327C89.8771 27.7283 90.7679 23.1868 90.8203 21.5361C90.8553 20.5405 90.9164 17.3877 90.7068 14.3047C90.3662 15.3353 90.2439 16.4357 90.2701 17.5449C90.2876 18.0864 90.34 18.6278 90.3487 19.1693C90.3487 19.7457 90.3487 20.3222 90.305 20.8986C90.2264 22.0514 90.0692 23.1868 89.9208 24.3309V24.3396Z" fill="#FF7F4C"/>
<path d="M84.4884 21.5444C84.4622 21.658 84.4447 21.7803 84.4272 21.8938H84.4796C84.567 21.8676 84.6456 21.8239 84.7242 21.7453C84.8377 21.6318 84.8901 21.5619 84.9687 21.4309C85.0037 21.3698 85.0386 21.2999 85.0735 21.2388C84.8814 21.361 84.6893 21.4746 84.4796 21.5619L84.4884 21.5444Z" fill="#FF7F4C"/>
<path d="M90.7329 12.6712C90.1827 12.5315 89.58 12.5839 89.0124 12.5402C88.3748 12.4965 87.7285 12.4267 87.091 12.4616C86.3049 12.4965 85.4927 12.6974 84.8639 13.1952C84.7591 13.2738 84.6368 13.3786 84.4971 13.4834C84.9076 13.6319 85.3093 13.7891 85.6936 13.99C86.4621 14.3917 87.0997 14.9769 87.4141 15.7979C87.7023 16.5402 87.6674 17.3175 87.4316 18.0599C87.9643 18.4092 87.4141 19.5533 87.7547 20.645C88.0429 21.5795 91.2656 20.0249 91.4054 18.1472C91.5014 16.8372 93.2132 13.3088 90.7416 12.6712H90.7329Z" fill="#FF7F4C"/>
<path d="M95.3093 14.9683C95.2831 14.5578 95.2045 14.1299 94.9774 13.7893C94.7067 13.3875 94.2613 13.143 93.9207 12.7936C92.7678 11.6058 93.1521 9.67571 92.8464 8.04252C92.5058 6.21719 91.1521 4.61894 89.4054 3.99012C88.2263 3.56217 86.8988 3.5971 85.7198 4.02505C84.7154 2.12112 82.5669 0.767407 80.401 1.01195C79.0822 1.16042 77.877 1.78924 76.6193 2.26086C75.9468 1.81544 75.1521 1.56217 74.2875 1.56217C73.0211 1.56217 71.8857 2.12112 71.1084 3.00322C70.3311 3.88531 70.6543 3.34383 70.3748 3.3875C68.4534 3.65824 66.4709 4.18226 65.0473 5.4923C63.6237 6.81108 62.9425 9.09929 63.973 10.75C64.0342 10.8548 64.0429 10.977 63.9905 11.0906C63.6586 11.8067 63.4752 12.6015 63.4752 13.4399C63.4752 15.3526 64.4359 17.0382 65.9032 18.0513C66.2612 18.2958 66.4709 18.7063 66.4709 19.1342C66.4709 19.5622 66.4709 19.6146 66.4971 19.8504C66.6193 21.3439 67.2481 22.7936 68.2613 23.8941C67.353 25.108 67.3355 26.9159 68.2263 28.1474C69.1171 29.3788 70.8464 29.9203 72.2787 29.4312C72.3224 29.5622 72.4621 29.6321 72.5844 29.5884C73.1434 29.4137 73.484 28.8024 73.5713 28.1648C73.2918 27.929 73.0211 27.667 72.7591 27.405C71.8682 26.5142 71.0909 25.536 70.1827 24.6626C69.3792 23.8941 68.4796 23.1255 67.9206 22.1386C67.3617 21.1517 67.0123 19.8329 67.0298 18.6452C67.6586 18.8897 68.3486 19.0294 69.0735 19.0294C69.7984 19.0294 70.9425 18.7849 71.7372 18.3569C72.0342 18.5404 72.3137 18.75 72.5931 18.9683C73.0735 19.3438 73.5538 19.7281 74.0167 20.1299C74.2787 20.3569 74.532 20.5928 74.7678 20.846C74.9163 21.0032 75.1696 20.9858 75.2918 20.8024C75.7285 20.1473 76.0953 19.4749 76.2263 18.715C76.4621 17.37 75.9119 16.0251 75.7285 14.6801C75.5451 13.3264 75.9469 11.6582 77.2482 11.239C78.139 10.9508 79.0735 11.37 79.9905 11.5447C82.3573 12.0076 84.8552 10.5229 85.8683 8.3744C86.0429 8.41807 86.2176 8.46174 86.3748 8.54907C87.5014 9.10803 87.5277 10.7587 88.4447 11.6233C89.5364 12.6451 91.7285 12.4006 92.0167 14.0338C92.0342 14.1561 92.0429 14.2871 92.0429 14.4093C91.9731 16.2958 91.0648 19.1866 90.8464 21.2565C93.2045 20.5491 95.484 17.4312 95.3355 14.977H95.3006L95.3093 14.9683Z" fill="#340800"/>
<path d="M70.4359 9.2475C70.5145 9.2213 70.5669 9.1951 70.6717 9.14269C70.925 9.01169 71.1084 8.87195 71.318 8.67981C71.7285 8.29553 72.0517 7.79772 72.2438 7.29116C72.4447 6.76715 72.5233 6.20819 72.401 5.69291C72.3748 5.58811 72.3399 5.49204 72.3049 5.39597C71.4141 5.11649 70.5145 4.89815 69.58 4.89815H69.0735C67.0473 4.09465 65.2918 6.12086 64.6455 7.84138C64.4796 8.27807 64.3311 8.77588 64.3748 9.2475C64.4097 9.60558 64.663 9.85885 65.0298 9.78025C65.3792 9.71038 65.6936 9.45711 65.9643 9.23877C66.2613 9.00296 66.5495 8.74095 66.8464 8.49641C66.8988 8.45274 66.9512 8.40907 67.0123 8.3654C67.0385 8.34793 67.0648 8.33047 67.091 8.313C67.091 8.313 67.1084 8.313 67.1172 8.29553C67.0385 8.34793 67.1521 8.27806 67.1783 8.2606C67.4141 8.12086 67.6848 7.98986 67.9643 7.98112C68.4097 7.96365 68.7765 8.313 69.1172 8.58374C69.5189 8.89815 69.9468 9.1951 70.4534 9.2475H70.4359Z" fill="#450B00"/>
<path d="M85.3968 4.77607C85.3706 4.33065 85.3618 3.87651 85.3618 3.42236C84.2527 1.84157 82.34 0.784799 80.4011 1.00314C79.0911 1.15161 77.8858 1.7717 76.6457 2.24332C76.4885 2.76733 76.4885 3.32629 76.7243 3.84157C76.9164 4.26079 77.1871 4.63633 77.423 5.03808C77.6762 5.47476 77.8596 5.95511 77.8858 6.46166C77.912 7.05555 77.7112 7.57083 77.3793 7.99878C77.2133 8.21712 76.7679 8.54027 76.3225 8.82848C76.0518 9.00315 76.174 9.42236 76.4972 9.42236C76.8203 9.42236 77.3618 9.43983 77.6064 9.49223C77.9295 9.55337 78.2439 9.64071 78.5671 9.76298C79.2483 10.025 79.8946 10.3743 80.5234 10.7324C80.995 11.0032 81.4666 11.2826 81.9644 11.4922C83.5016 11.1429 84.8902 10.1036 85.6762 8.73241C85.781 7.4311 85.4841 5.99005 85.4142 4.77607H85.3968Z" fill="#450B00"/>
<path d="M89.8159 12.3396C90.1041 12.4444 90.1914 12.5405 90.27 12.6627C90.5146 13.0645 90.5495 13.5536 90.3923 13.9903C90.174 14.5841 89.9556 14.9772 90.5495 16.9859C90.7766 17.7545 90.7154 20.4619 90.8377 21.2479C91.4403 20.9335 94.6718 21.7108 95.3268 14.9684C95.3705 14.5579 95.222 14.13 94.9949 13.7894C94.7242 13.3876 94.2788 13.1431 93.9381 12.7937C92.7853 11.606 93.1696 9.67584 92.8639 8.04265C92.5233 6.21732 91.1696 4.61907 89.4229 3.99025C88.8726 3.78937 88.2875 3.6933 87.6936 3.68457C87.5888 4.59287 87.5364 5.50117 87.5451 6.4182C87.5626 7.70204 87.7111 9.00335 88.1652 10.2086C88.4884 11.0732 89.2133 11.6671 89.8246 12.3396H89.8159Z" fill="#450B00"/>
<path d="M85.6936 26.9772C85.3704 26.9597 86.1128 27.3004 85.8071 27.248C85.5102 27.1956 85.2569 27.1781 84.6194 27.248C84.2875 27.2829 81.7635 27.6497 81.4403 27.4226C82.1827 27.8942 82.4971 28.558 84.9949 28.7589C86.3486 28.8637 87.0386 28.951 87.3879 28.0078C87.3704 28.0689 86.3573 27.0121 85.6849 26.9859L85.6936 26.9772Z" fill="#D20A0A"/>
<path d="M81.3181 27.1689C81.3181 27.1689 84.0517 26.3043 84.7766 26.444C85.257 26.5313 85.9644 26.6361 86.4273 26.6361C86.8902 26.6361 88.4098 27.0728 87.3705 28.016C87.3705 28.016 86.5758 27.5881 85.1522 27.4833C83.7286 27.3785 81.3967 27.9374 81.3181 27.1689Z" fill="#D20A0A"/>
<path d="M84.436 22.3745C84.3312 22.8287 84.5583 23.2479 85.1173 23.2479C85.6762 23.2479 85.5627 23.2915 85.7548 23.4051C86.3225 23.7457 87.1347 23.6409 87.5714 23.3789C87.6064 23.3527 87.6588 23.3789 87.6588 23.4225C87.6588 23.5186 87.6588 23.6671 87.3181 23.964C86.9513 24.2784 86.8029 24.3396 86.4972 24.3396C85.8946 24.3396 84.6544 24.0514 84.2876 23.9728C84.0954 23.9728 83.9382 24.0077 83.9295 24.0077C83.4229 23.2217 83.8072 22.6016 84.436 22.3745Z" fill="#A93E00"/>
<path d="M85.5538 24.2344C85.056 23.9462 84.9512 23.8589 84.4796 23.824C84.104 23.789 83.842 24.0161 83.973 24.0423C84.2263 24.0947 85.5625 24.2344 85.5625 24.2344H85.5538Z" fill="#00144A"/>
<path d="M79.1521 21.8245C79.1521 21.8245 78.3312 21.0647 78.0866 21.0821C77.8421 21.0821 77.8857 19.2394 77.8857 19.2394C77.8857 19.2394 78.1128 15.7808 79.6587 14.4708C80.2351 13.9817 82.0954 12.5319 83.1259 12.759C83.7111 12.89 83.7984 12.4446 84.3661 12.2C84.5582 12.1214 84.7416 11.9293 84.9076 11.711C85.2045 11.3179 84.8814 10.7677 84.401 10.8376C83.3268 10.9948 80.9774 11.2917 79.6237 11.842C77.4316 12.7328 72.4796 15.4315 71.5364 16.4621C70.8726 17.1782 71.1259 18.0254 71.1783 20.1913C71.2569 23.4664 71.484 24.9511 71.0648 25.807C70.4534 27.056 70.1739 27.4839 70.1739 27.4839C70.1739 27.4839 68.5932 32.0603 64.6106 37.056C60.8464 41.7896 59.4403 44.759 59.4403 44.759C59.4403 44.759 65.5539 51.6411 69.1783 50.4184C69.1783 50.4184 69.2307 50.3573 69.2569 50.2612C69.746 48.628 73.9556 34.4533 74.9076 32.4708C76.5495 29.056 76.6281 29.4053 77.3792 28.8551C78.174 28.2787 80.008 25.8245 80.7766 24.7677C81.3268 24.0079 85.1172 23.2568 85.5539 22.0865C85.8159 21.3966 84.8901 19.3529 82.0866 21.7372" fill="#FFAB92"/>
<path d="M82.3312 21.5358C82.1828 21.658 81.9906 21.7279 81.7985 21.7279L79.5015 21.8065C79.2832 21.8065 79.0649 21.7366 78.8902 21.5969C78.6282 21.3785 78.2352 21.0641 78.0867 21.0729C77.8421 21.0729 77.8858 19.2301 77.8858 19.2301C77.8858 19.2301 78.1129 15.7716 79.6587 14.4615C80.2352 13.9724 82.0954 12.5226 83.126 12.7497C83.7112 12.8807 83.7985 12.4353 84.3662 12.1908C84.5583 12.1122 84.7417 11.92 84.9077 11.7017C85.2046 11.3087 84.8815 10.7584 84.4011 10.8283C83.3269 10.9855 80.9775 11.2825 79.6238 11.8327C78.995 12.086 78.1478 12.4877 77.2308 12.9593C77.1609 12.9943 77.0911 13.0292 77.0125 13.0729C76.9688 13.0903 76.9339 13.1165 76.8902 13.134C76.8378 13.1602 76.7941 13.1864 76.7417 13.2126C76.698 13.2301 76.6631 13.2563 76.6194 13.2737C76.5496 13.3087 76.471 13.3523 76.4011 13.3873C76.3574 13.4135 76.3138 13.4309 76.2701 13.4571C76.2177 13.4833 76.1566 13.5183 76.1042 13.5445C76.0605 13.5707 76.0256 13.5881 75.9819 13.6143C75.9295 13.6405 75.8683 13.6755 75.8159 13.7017C75.7635 13.7279 75.7461 13.7366 75.7111 13.7628C75.6238 13.8065 75.5452 13.8502 75.4579 13.9026C75.4229 13.92 75.388 13.9462 75.3531 13.9637C75.3007 13.9986 75.2395 14.0248 75.1871 14.0598C75.1522 14.0772 75.1173 14.1034 75.0823 14.1209C74.995 14.1646 74.9164 14.217 74.829 14.2606C74.8028 14.2781 74.7854 14.2868 74.7592 14.3043C74.698 14.3392 74.6282 14.3742 74.567 14.4178C74.5321 14.4353 74.4972 14.4528 74.471 14.479C74.4098 14.5139 74.3487 14.5488 74.2876 14.5838C74.2614 14.6012 74.2352 14.61 74.209 14.6274C74.1304 14.6711 74.043 14.7235 73.9644 14.7672C73.9382 14.7847 73.912 14.8021 73.8858 14.8109C73.8247 14.8458 73.7723 14.8807 73.7111 14.9157C73.6849 14.9331 73.6587 14.9506 73.6325 14.9681C73.5539 15.0117 73.4753 15.0641 73.4055 15.1078C73.4055 15.1078 73.3793 15.1253 73.3705 15.1253C73.3007 15.1689 73.2395 15.2039 73.1784 15.2475C73.1522 15.265 73.1347 15.2737 73.1085 15.2912C73.0474 15.3261 72.995 15.3611 72.9426 15.4047C72.9251 15.4047 72.9076 15.4222 72.8902 15.4397C72.8203 15.4833 72.7504 15.527 72.6893 15.5707C72.6718 15.5707 72.6544 15.5969 72.6369 15.6056C72.5845 15.6406 72.5408 15.6755 72.4884 15.7104C72.471 15.7104 72.4535 15.7366 72.436 15.7454C72.3749 15.789 72.3138 15.8327 72.2614 15.8676C72.209 15.9026 72.1566 15.9462 72.1042 15.9812C72.0867 15.9812 72.0779 16.0074 72.0605 16.0161C72.0168 16.051 71.9819 16.0772 71.9469 16.1034C71.9469 16.1034 71.9295 16.1209 71.912 16.1296C71.8683 16.1646 71.8247 16.1995 71.781 16.2344C71.781 16.2344 71.7635 16.2519 71.7548 16.2606C71.7199 16.2868 71.6937 16.313 71.6675 16.3392C71.6413 16.3654 71.65 16.3567 71.6413 16.3654C71.6063 16.4004 71.5801 16.4266 71.5539 16.4528C70.8902 17.1689 71.1435 18.0161 71.1959 20.182C71.2745 23.4572 71.5015 24.9419 71.0823 25.7978C70.471 27.0467 70.1915 27.4746 70.1915 27.4746V27.5445C70.1915 27.562 70.174 27.5882 70.1653 27.6144V27.6406C70.1653 27.658 70.1478 27.6755 70.1391 27.7017V27.7279C70.0954 27.8327 70.043 27.9724 69.9731 28.1384C69.7024 28.8021 69.2133 29.8938 68.4797 31.2563C68.2876 31.6144 68.0779 31.9899 67.8509 32.3742C67.8509 32.3917 67.8334 32.4004 67.8247 32.4179C67.7723 32.5139 67.7111 32.6013 67.6587 32.6973C67.5365 32.9069 67.4142 33.1078 67.2832 33.3174C67.1959 33.4572 67.0998 33.6056 67.0124 33.7541C66.9251 33.8938 66.829 34.0423 66.733 34.1821C66.733 34.1821 66.733 34.1995 66.7155 34.2083C66.6282 34.348 66.5321 34.479 66.4448 34.6187C66.4448 34.6362 66.4273 34.6449 66.4098 34.6711C66.3225 34.8021 66.2351 34.9332 66.1391 35.0642L66.1216 35.0816C66.1041 35.0991 66.0954 35.1166 66.0867 35.134C65.9993 35.2563 65.912 35.3786 65.8247 35.5008C65.7985 35.5358 65.781 35.562 65.7548 35.5969C65.6675 35.7104 65.5801 35.8327 65.4928 35.9463C65.4928 35.9463 65.4753 35.9725 65.4666 35.9812C65.4491 36.0074 65.4229 36.0336 65.4055 36.0685C65.3181 36.1821 65.2308 36.3043 65.1347 36.4179V36.4353C65.1085 36.4703 65.0823 36.5052 65.0561 36.5401C64.9338 36.6973 64.8116 36.8546 64.6806 37.0118C60.9164 41.7454 59.5103 44.7148 59.5103 44.7148L59.5277 44.7323L59.5452 44.7498C59.5452 44.7498 59.5627 44.7672 59.5714 44.776L59.5889 44.7934C59.5889 44.7934 59.6151 44.8196 59.6238 44.8284C59.6238 44.8284 59.65 44.8546 59.6587 44.8633C59.6762 44.8808 59.6849 44.8982 59.7024 44.9157C59.7024 44.9157 59.7024 44.9332 59.7286 44.9419C59.7286 44.9419 59.7286 44.9594 59.7461 44.9594C59.7723 44.9856 59.7985 45.0118 59.8247 45.038C59.8421 45.0554 59.8596 45.0729 59.8771 45.0904C59.9033 45.1253 59.9382 45.1515 59.9731 45.1864C59.9906 45.2039 60.0081 45.2214 60.0255 45.2388C60.0605 45.2825 60.1041 45.3174 60.1478 45.3611C60.1653 45.3786 60.174 45.3873 60.1915 45.4048L60.4535 45.6668C60.4884 45.7017 60.5146 45.7279 60.5583 45.7629C60.5845 45.7978 60.6107 45.824 60.6456 45.8502C60.6718 45.8764 60.698 45.9026 60.733 45.9288H60.7504L60.7679 45.9463C60.7941 45.9725 60.829 46.0074 60.864 46.0336C60.8902 46.0598 60.9164 46.086 60.9426 46.1035C60.9426 46.1035 60.9688 46.1297 60.9775 46.1384C61.0124 46.1733 61.0474 46.1995 61.0736 46.2345C61.091 46.2519 61.1085 46.2694 61.1347 46.2869C61.1347 46.2869 61.1522 46.3043 61.1696 46.3131C61.1696 46.3131 61.1958 46.3393 61.2046 46.348C61.2395 46.3829 61.2744 46.4091 61.3094 46.4441C61.3268 46.4616 61.3443 46.4703 61.3618 46.4878L61.3792 46.5052C61.4054 46.5227 61.4229 46.5489 61.4491 46.5664C61.4841 46.6013 61.519 46.6275 61.5539 46.6624C61.5539 46.6624 61.5714 46.6799 61.5801 46.6886C61.5801 46.6886 61.5976 46.7061 61.6063 46.7061C61.6325 46.7323 61.6587 46.7498 61.6849 46.776C61.7373 46.8196 61.781 46.8633 61.8334 46.907C61.8945 46.9594 61.9469 47.0118 62.0081 47.0642C62.0255 47.0642 62.0343 47.0904 62.0517 47.0991C63.5103 48.3568 65.3793 49.7279 67.0998 50.252C67.8334 50.4703 68.4797 49.7192 68.1653 49.0205C68.1478 48.9768 68.1303 48.9332 68.1041 48.8895C66.9251 46.1821 66.3836 42.776 67.1085 39.8939C67.4491 38.5227 68.0605 37.2476 68.6107 35.955C69.1522 34.6711 69.4753 33.3262 70.0081 32.0423C70.174 31.6318 70.3487 31.2126 70.5583 30.8196C70.7679 30.4179 70.9862 30.0248 71.2046 29.6231C71.6325 28.8109 72.0518 27.9986 72.4448 27.1602C72.8116 26.3655 73.1784 25.5445 73.4317 24.7061C73.6325 24.0248 73.7373 23.3174 73.8945 22.6275C74.043 21.955 74.2264 21.2563 74.6107 20.6799C74.829 20.3567 75.388 19.5008 75.7985 20.1122C75.8596 20.2082 75.912 20.3218 75.947 20.4353C76.0692 20.8371 76.1478 21.2563 76.174 21.6842C76.2352 22.5925 76.078 23.5096 75.9557 24.4091C75.9557 24.4703 75.9382 24.5314 75.9557 24.5925C75.9994 24.6886 76.1216 24.7148 76.2264 24.7235C76.7766 24.7672 77.3181 24.5576 77.7985 24.2956C78.2876 24.0336 78.7504 23.7192 79.2657 23.5358C79.4928 23.4572 79.7723 23.4048 79.9732 23.5358C80.1478 23.658 80.209 23.8938 80.174 24.1034C80.1391 24.3131 80.0256 24.4965 79.912 24.6711C79.0125 25.9724 77.5801 26.8283 76.5932 28.0685C76.2177 28.5489 76.0867 28.9943 76.2439 29.5794C76.2701 29.6668 76.2963 29.7628 76.3225 29.8502C76.7941 29.1078 77.0037 29.1078 77.4579 28.7759C78.2526 28.1995 80.0867 25.7454 80.8553 24.6886C81.4055 23.9288 85.126 23.3174 85.6326 22.0074C85.8858 21.3349 85.0125 19.3785 82.3924 21.4659L82.3574 21.527L82.3312 21.5358Z" fill="#A93E00"/>
<path d="M74.9775 20.1907C75.0561 20.0073 75.1347 19.8239 75.222 19.6405C75.8072 18.4178 76.6281 17.2824 77.6238 16.3567C78.043 15.9636 78.4971 15.6143 78.9775 15.2999C79.1696 14.9767 79.3967 14.6798 79.6674 14.4527C80.2439 13.9636 82.1041 12.5139 83.1347 12.7409C83.7199 12.8719 83.8072 12.4265 84.3749 12.182C84.567 12.1034 84.7504 11.9112 84.9164 11.6929C85.2133 11.2999 84.8902 10.7497 84.4098 10.8195C83.3356 10.9767 80.9862 11.2737 79.6325 11.8239C79.0037 12.0772 78.1565 12.4789 77.2395 12.9505C77.1696 12.9855 77.0998 13.0204 77.0212 13.0641C76.9775 13.0815 76.9425 13.1077 76.8989 13.1252C76.8465 13.1514 76.8028 13.1776 76.7504 13.2038C76.7067 13.2213 76.6718 13.2475 76.6281 13.2649C76.5583 13.2999 76.4797 13.3435 76.4098 13.3785C76.3661 13.4047 76.3225 13.4222 76.2788 13.4484C76.2264 13.4746 76.1653 13.5095 76.1129 13.5357C76.0692 13.5619 76.0342 13.5794 75.9906 13.6056C75.9382 13.6318 75.877 13.6667 75.8246 13.6929C75.7722 13.7191 75.7548 13.7278 75.7198 13.754C75.6325 13.7977 75.5539 13.8414 75.4666 13.8938C75.4316 13.9112 75.3967 13.9374 75.3618 13.9549C75.3094 13.9898 75.2482 14.016 75.1958 14.051C75.1609 14.0684 75.126 14.0946 75.091 14.1121C75.0037 14.1558 74.9251 14.2082 74.8377 14.2518C74.8115 14.2693 74.7941 14.278 74.7679 14.2955C74.7067 14.3304 74.6369 14.3654 74.5757 14.4091C74.5408 14.4265 74.5059 14.444 74.4797 14.4702C74.4185 14.5051 74.3574 14.5401 74.2963 14.575C74.2701 14.5925 74.2439 14.6012 74.2177 14.6187C74.1391 14.6623 74.0517 14.7147 73.9731 14.7584C73.9469 14.7759 73.9207 14.7933 73.8945 14.8021C73.8334 14.837 73.781 14.8719 73.7198 14.9069C73.6936 14.9243 73.6674 14.9418 73.6412 14.9593C73.5626 15.0029 73.484 15.0553 73.4142 15.099C73.4142 15.099 73.388 15.1165 73.3792 15.1165C73.3094 15.1601 73.2482 15.1951 73.1871 15.2387C73.1609 15.2562 73.1434 15.2649 73.1172 15.2824C73.0561 15.3173 73.0037 15.3523 72.9513 15.396C72.9338 15.396 72.9163 15.4134 72.8989 15.4309C72.829 15.4746 72.7591 15.5182 72.698 15.5619C72.6805 15.5619 72.6631 15.5881 72.6456 15.5968C72.5932 15.6318 72.5495 15.6667 72.4971 15.7016C72.4797 15.7016 72.4622 15.7278 72.4447 15.7366C72.3836 15.7802 72.3225 15.8239 72.2701 15.8588C72.2177 15.8938 72.1653 15.9374 72.1128 15.9724C72.0954 15.9724 72.0866 15.9986 72.0692 16.0073C72.0255 16.0422 71.9906 16.0684 71.9556 16.0946C71.9556 16.0946 71.9382 16.1121 71.9207 16.1208C71.877 16.1558 71.8334 16.1907 71.7897 16.2256C71.7897 16.2256 71.7722 16.2431 71.7635 16.2518C71.7286 16.278 71.7024 16.3042 71.6762 16.3305C71.65 16.3567 71.6587 16.3479 71.65 16.3567C71.615 16.3916 71.5888 16.4178 71.5626 16.444C70.8989 17.1601 71.1521 18.0073 71.2045 20.1732C71.2832 23.4484 71.5102 24.9331 71.091 25.789C70.4797 27.0379 70.2002 27.4658 70.2002 27.4658V27.5357C70.2002 27.5532 70.1827 27.5794 70.174 27.6056V27.6318C70.174 27.6492 70.1565 27.6667 70.1478 27.6929V27.7191C70.1041 27.8239 70.0517 27.9637 69.9818 28.1296C69.7111 28.7933 69.222 29.8851 68.4884 31.2475C68.2963 31.6056 68.0866 31.9811 67.8596 32.3654C67.8596 32.3829 67.8421 32.3916 67.8334 32.4091C67.781 32.5051 67.7198 32.5925 67.6674 32.6885C67.5452 32.8982 67.4229 33.099 67.2919 33.3086C67.2045 33.4484 67.1085 33.5968 67.0211 33.7453C66.9338 33.8851 66.8377 34.0335 66.7417 34.1733C66.7417 34.1733 66.7417 34.1907 66.7242 34.1995C66.6369 34.3392 66.5408 34.4702 66.4535 34.6099C66.4535 34.6274 66.436 34.6361 66.4185 34.6623C66.3312 34.7934 66.2438 34.9244 66.1478 35.0554L66.1303 35.0728C66.1128 35.0903 66.1041 35.1078 66.0954 35.1252C66.008 35.2475 65.9207 35.3698 65.8334 35.492C65.8072 35.527 65.7897 35.5532 65.7635 35.5881C65.6762 35.7017 65.5888 35.8239 65.5015 35.9375C65.5015 35.9375 65.484 35.9637 65.4753 35.9724C65.4578 35.9986 65.4316 36.0248 65.4141 36.0597C65.3268 36.1733 65.2395 36.2955 65.1434 36.4091V36.4265C65.1172 36.4615 65.091 36.4964 65.0648 36.5313C64.9425 36.6885 64.8203 36.8458 64.6893 37.003C60.9251 41.7366 59.484 44.7584 59.484 44.7584C59.484 44.7584 59.4927 44.7759 59.5189 44.8021C59.5713 44.8632 59.6849 44.9855 59.8246 45.1252C60.1565 45.4746 60.6194 45.9462 60.7067 46.0073C60.7242 46.0248 62.6369 47.9637 64.8727 49.3261C65.7024 49.8327 66.5146 50.182 67.0211 50.3392C67.7548 50.5576 68.4971 49.7279 68.1827 49.0292C68.1652 48.9855 68.1478 48.9418 68.1216 48.8982C66.9425 46.1907 66.401 42.7846 67.1259 39.9025C67.4666 38.5313 68.0779 37.2562 68.6281 35.9637C69.1696 34.6798 69.4928 33.3348 70.0255 32.051C70.1914 31.6405 70.3661 31.2213 70.5757 30.8283C70.7853 30.4265 71.0037 30.0335 71.222 29.6318C71.65 28.8195 72.0692 28.0073 72.4622 27.1689C72.829 26.3741 73.1958 25.5532 73.4491 24.7147C73.65 24.0335 73.7548 23.3261 73.912 22.6361C74.0604 21.9636 74.2439 21.265 74.6281 20.6885C74.7242 20.5488 74.8814 20.313 75.0561 20.1296L75.0211 20.1995L74.9775 20.1907Z" fill="#FF7F4C"/>
<path d="M91.4944 19.3242C91.4944 19.3242 90.4726 19.6211 90.9005 20.5207C91.3285 21.4202 92.525 21.8045 92.525 21.8045C92.525 21.8045 93.7215 23.132 94.2717 23.9792C94.8306 24.8351 97.049 28.4596 98.0272 29.4465C99.0053 30.4246 101.774 31.9268 103.809 35.5076C105.844 39.0971 107.765 42.6779 108.359 44.8176C108.953 46.9487 110.018 52.477 112.193 57.4116C114.368 62.3461 117.119 66.3723 120.77 64.5469C124.429 62.7216 123.756 59.7958 123.145 57.9006C122.534 56.0142 119.058 46.8089 116.254 43.2107C113.451 39.6124 108.813 30.8962 108.088 29.7958C107.355 28.6954 106.324 28.0316 106.018 26.0141C105.713 24.0054 105.381 21.6735 105.259 19.8307C105.259 19.8307 105.259 19.6735 104.473 18.4508C103.687 17.2281 102.595 13.7259 98.8743 12.1626C95.8787 10.9049 93.5634 10.8517 92.7782 10.8962C92.6306 10.9049 92.4638 11.0359 92.4464 11.2106C92.4114 11.6648 92.4289 12.4945 93.049 12.8089C93.9136 13.2368 95.3285 12.9137 95.3285 12.9137C95.3285 12.9137 95.6953 13.3242 96.6036 13.1582C96.7407 13.1332 98.8484 14.4534 98.9582 14.7974C99.5753 16.7308 97.7391 20.9849 97.4277 21.2592C97.0696 21.5824 96.6909 23.1146 96.0883 22.3285C96.0883 22.3285 95.1625 20.9574 94.0359 20.0578C92.9092 19.1495 91.4944 19.3242 91.4944 19.3242Z" fill="#FFAB92"/>
<path d="M92.4377 11.6738C92.4639 12.1018 92.595 12.5909 93.0404 12.8092C93.905 13.2371 95.3198 12.9402 95.3198 12.9402C95.3198 12.9402 95.6867 13.3245 96.595 13.1585H96.6386C95.3722 12.3725 93.905 11.866 92.4377 11.6738Z" fill="#A93E00"/>
<path d="M95.5572 13.4372L97.5978 13.2671L94.877 12.5869L89.7755 12.927L90.2857 13.0971L91.306 14.7976L95.5572 13.4372Z" fill="#046C7C"/>
<path d="M120.167 61.1238C119.416 60.7745 118.691 60.3116 118.141 59.6915C117.364 58.8181 116.761 57.7701 116.202 56.7483C115.626 55.6915 115.11 54.6085 114.534 53.5517C113.957 52.4862 113.276 51.4731 112.717 50.3989C111.591 48.2417 110.752 45.9535 109.931 43.6653C109.101 41.3596 108.281 39.0364 107.189 36.8443C106.15 34.7744 104.918 32.8356 103.468 31.0277C103.101 30.5735 102.717 30.1369 102.35 29.6827C102.08 29.3421 101.818 28.9928 101.643 28.591C101.302 27.8137 101.407 26.984 101.486 26.1631C101.556 25.3596 101.625 24.5561 101.538 23.7526C101.503 23.4032 101.442 23.0277 101.276 22.7133C101.128 22.4338 100.787 22.0932 100.446 22.1631C100.08 22.2329 99.7827 22.6085 99.4858 22.8181C99.1539 23.0539 98.7609 22.871 98.3591 22.9147C97.8788 22.9758 96.4989 22.8705 96.0971 22.3465C96.0971 22.3465 95.1713 20.9753 94.0447 20.0757C92.9181 19.1674 91.5032 19.3421 91.5032 19.3421C91.5032 19.3421 90.656 19.7788 90.9093 20.5386C91.3373 21.4382 92.5338 21.8224 92.5338 21.8224C92.5338 21.8224 93.7303 23.15 94.2805 23.9971C94.8395 24.853 97.0578 28.4775 98.036 29.4644C99.0141 30.4425 101.783 31.9447 103.818 35.5255C105.853 39.115 107.774 42.6958 108.368 44.8356C108.962 46.9666 110.027 52.495 112.202 57.4295C114.377 62.364 117.128 66.3902 120.778 64.5648C122.202 63.8487 122.97 62.9753 123.337 62.0583C122.237 61.9273 121.154 61.6042 120.176 61.1413V61.1238H120.167Z" fill="#FF7F4C"/>
<path d="M99.6384 17.0081L99.1282 16.4979C98.6042 15.38 99.8071 14.9505 98.6892 14.3915C98.2613 14.1732 94.7329 13.885 93.8333 17.9199C92.9338 21.9549 93.4919 21.3636 93.746 21.5182C93.36 21.54 92.96 21.1688 92.5932 20.9505C92.4622 20.8806 92.3399 20.802 92.2176 20.7234C91.5277 20.2867 90.9949 19.6317 90.7067 18.8632C90.2089 17.5531 89.9469 15.7627 90.8639 13.8413C90.8639 13.8413 89.9381 14.7234 89.4927 15.9112C89.5102 15.7802 89.5277 15.6579 89.5364 15.5269C89.5801 15.099 89.6412 14.5575 89.3967 14.1732C89.056 13.6404 90.4696 13.0142 89.9455 12.9269C89.6049 12.8658 90.1813 13.1627 89.9455 12.9269C89.7796 12.761 86.4534 13.1688 86.2438 13.2736C86.0342 13.3784 86.1041 13.3522 86.1041 13.3522C86.4622 13.9811 87.8683 18.4003 87.8683 18.4003C87.8683 18.4003 88.0517 18.4177 88.3224 18.4352C88.3049 18.4527 88.2962 18.4701 88.2787 18.4876C88.2787 18.4876 88.2787 21.3522 90.3486 21.4571C92.4272 21.5619 93.1092 20.6094 94.3668 20.7492C95.3101 20.854 94.4002 20.7014 95.3871 20.5791C95.4832 20.5791 96.3113 20.9505 96.4074 20.9505C96.8266 19.3435 96.9949 21.2562 97.4403 21.1164C97.8508 20.9854 97.3399 20.8452 97.7678 20.7492C98.1172 20.6706 97.7935 20.575 98.1079 20.4091C98.5097 20.1995 98.0899 20.1871 98.448 19.8989C98.6139 19.7679 98.317 19.9112 98.448 19.7365C98.5004 19.6667 98.4131 19.4674 98.448 19.3888C98.4655 19.3538 98.7619 19.0924 98.7881 19.0487C98.7881 19.0312 98.278 18.6649 98.278 18.7086C98.278 18.6212 98.897 18.0808 98.9582 18.0284C99.0717 17.4607 99.194 17.5146 98.9582 17.0081H99.6384Z" fill="#00144A"/>
<path d="M88.2614 17.195C88.2614 14.7059 86.2439 12.6885 83.7548 12.6885C81.2657 12.6885 83.4491 12.6885 83.3007 12.7147C83.3007 12.7147 81.519 12.1819 79.0037 14.8981C77.7024 16.3042 77.3356 17.9286 77.2832 19.1601C77.2308 20.3915 78.4011 22.0684 79.9644 22.1732C81.5277 22.278 81.091 22.1907 81.8159 22.0858C85.3269 21.588 84.3836 21.885 85.3094 21.4221C87.0387 20.7933 88.2701 19.1339 88.2701 17.1863H88.2614V17.195Z" fill="#046C7C"/>
<path d="M83.7548 21.4745C86.1183 21.4745 88.0343 19.5585 88.0343 17.195C88.0343 14.8315 86.1183 12.9155 83.7548 12.9155C81.3913 12.9155 79.4753 14.8315 79.4753 17.195C79.4753 19.5585 81.3913 21.4745 83.7548 21.4745Z" fill="#00144A"/>
<path d="M83.7549 21.1162C85.9206 21.1162 87.6763 19.3606 87.6763 17.1948C87.6763 15.0291 85.9206 13.2734 83.7549 13.2734C81.5892 13.2734 79.8335 15.0291 79.8335 17.1948C79.8335 19.3606 81.5892 21.1162 83.7549 21.1162Z" fill="#D5DADD"/>
<path d="M87.5714 16.2603C87.3531 15.3608 86.8203 14.5835 86.0954 14.042L80.6107 19.5267C81.1435 20.2516 81.9295 20.7756 82.8291 21.0027L87.5714 16.2603Z" fill="#4D82B8"/>
<path d="M84.0954 13.2821C83.9819 13.2821 83.8771 13.2646 83.7635 13.2646C81.5976 13.2646 79.9033 15.0201 79.8421 17.1861C79.781 19.352 79.8596 17.4917 79.8596 17.5179L84.1041 13.2734L84.0954 13.2821Z" fill="#4D82B8"/>
<path d="M100.075 17.195C100.075 14.7059 98.0578 12.6885 95.5687 12.6885C93.0796 12.6885 95.263 12.6885 95.1145 12.7147C95.1145 12.7147 93.3329 12.1819 90.8176 14.8981C89.5163 16.3042 89.998 17.8172 89.9456 19.0487C89.8932 20.2801 90.593 21.3173 92.1563 21.4221C93.7196 21.5269 92.9049 22.1907 93.6298 22.0858C97.1407 21.588 96.1975 21.885 97.1233 21.4221C98.8525 20.7933 100.084 19.1339 100.084 17.1863H100.075V17.195Z" fill="#046C7C"/>
<path d="M95.5687 21.4745C97.9322 21.4745 99.8481 19.5585 99.8481 17.195C99.8481 14.8315 97.9322 12.9155 95.5687 12.9155C93.2052 12.9155 91.2892 14.8315 91.2892 17.195C91.2892 19.5585 93.2052 21.4745 95.5687 21.4745Z" fill="#00144A"/>
<path d="M95.5687 21.1162C97.7345 21.1162 99.4901 19.3606 99.4901 17.1948C99.4901 15.0291 97.7345 13.2734 95.5687 13.2734C93.403 13.2734 91.6473 15.0291 91.6473 17.1948C91.6473 19.3606 93.403 21.1162 95.5687 21.1162Z" fill="#D5DADD"/>
<path d="M99.3853 16.2603C99.1669 15.3608 98.6342 14.5835 97.9093 14.042L92.4246 19.5267C92.9573 20.2516 93.7433 20.7756 94.6429 21.0027L99.3853 16.2603Z" fill="#4D82B8"/>
<path d="M95.9093 13.2821C95.7957 13.2821 95.6909 13.2646 95.5774 13.2646C93.4114 13.2646 91.7171 15.0201 91.656 17.1861C91.5948 19.352 91.6734 17.4917 91.6734 17.5179L95.918 13.2734L95.9093 13.2821Z" fill="#4D82B8"/>
<path d="M89.8159 15.9899C90.66 15.9899 91.3442 15.3056 91.3442 14.4615C91.3442 13.6174 90.66 12.9331 89.8159 12.9331C88.9718 12.9331 88.2875 13.6174 88.2875 14.4615C88.2875 15.3056 88.9718 15.9899 89.8159 15.9899Z" fill="#046C7C"/>
<path d="M88.8814 14.4615C88.8814 13.7191 89.4142 13.099 90.1216 12.9593C90.0255 12.9418 89.9295 12.9331 89.8247 12.9331C88.9775 12.9331 88.2963 13.6231 88.2963 14.4615C88.2963 15.2999 88.9862 15.9899 89.8247 15.9899C90.6631 15.9899 90.0255 15.9811 90.1216 15.9637C89.4142 15.8239 88.8814 15.2039 88.8814 14.4615Z" fill="#00144A"/>
<path d="M118.698 60.4268V60.4355C118.795 61.3368 118.552 62.1814 118.283 63.0338C118.322 61.8215 118.233 60.6084 118.043 59.4049C117.877 59.1517 117.702 58.9071 117.528 58.6538C117.467 58.8722 117.414 59.0905 117.353 59.3089L117.344 59.3176C117.257 59.6407 117.17 59.9551 117.047 60.2608C116.943 60.5228 116.812 60.8023 116.602 61.0032C116.087 61.4835 115.449 61.1342 115.004 60.7412C113.982 59.8329 113.606 58.1386 112.157 57.8241C112.244 59.1167 112.497 60.4093 112.384 61.7019C112.34 62.2434 112.244 62.8809 111.842 63.2914C111.405 63.7368 110.794 63.5971 110.279 63.3962C109.563 63.1255 108.899 62.7412 108.244 62.3569C107.991 62.2084 107.737 62.06 107.484 61.9115C107.065 61.6669 106.707 61.3001 106.366 60.9508C106.017 60.6014 105.667 60.2346 105.231 59.9901C104.838 59.7717 104.401 59.6407 103.999 59.4311C103.615 59.2303 103.327 58.942 103.143 58.549C102.977 58.191 102.899 57.7979 102.908 57.3962C102.908 56.584 103.205 55.7979 103.432 55.0294C103.615 54.4006 103.825 53.7193 103.729 53.0556C103.231 53.1342 102.715 53.1342 102.244 52.9246C101.44 52.5752 101.1 51.7106 100.864 50.9246C100.637 50.1822 100.48 49.3962 100.078 48.7324C99.6849 49.1429 99.6412 49.7543 99.6936 50.3132C99.7635 51.0032 99.9731 51.6669 100.174 52.322C100.392 53.0468 100.558 53.7717 100.681 54.5141C100.977 56.3918 101.004 58.2958 101.012 60.191C101.047 60.2172 101.074 60.2521 101.108 60.287C101.659 60.8722 103.056 61.9028 104.375 62.191C105.694 62.4879 113.012 67.5272 117.414 67.4748C117.414 67.4652 117.419 67.4565 117.424 67.4469C117.42 67.4565 117.418 67.4661 117.414 67.4748C121.797 67.4748 122.716 63.9115 123.275 62.191C123.467 61.5883 119.956 62.3918 118.698 60.4268ZM117.432 67.4224C117.434 67.4172 117.436 67.4111 117.438 67.4049C117.435 67.4119 117.433 67.4189 117.431 67.4259C117.431 67.425 117.431 67.4233 117.431 67.4224H117.432Z" fill="#00144A"/>
<path d="M104.23 47.2768C104.23 47.2768 104.213 44.9696 102.388 48.4148C100.568 51.8662 102.714 54.742 103.787 55.7939C104.859 56.8458 110.392 65.0866 114.804 65.2787C119.215 65.4708 121.952 67.1527 122.935 63.4315C122.935 63.4315 124.953 59.7953 123.256 56.7484C121.559 53.7016 119.692 48.3836 119.692 48.3836C119.692 48.3836 119.397 51.0298 111.274 51.5281L108.861 51.7305C108.861 51.7305 109.795 50.6551 107.971 49.1473C106.147 47.6395 104.4 46.9367 104.4 46.9367L104.23 47.2768Z" fill="#3B5B7C"/>
<path d="M108.884 51.5575C108.928 51.6003 108.824 51.7063 108.831 51.7865C108.901 52.5887 109.323 53.4925 109.448 54.288C109.658 55.5582 109.923 56.8217 110.213 58.0726C110.342 58.6148 110.483 59.1569 110.692 59.6675C110.806 59.9505 110.951 60.2394 111.138 60.4846C111.131 60.3179 111.092 60.1577 111.041 60.01C110.951 59.6774 110.825 59.3574 110.766 59.0183C110.694 58.5805 110.64 58.1364 110.611 57.692C110.582 57.2353 110.596 56.7719 110.561 56.3214C110.539 55.9696 110.492 55.6181 110.532 55.2656C110.555 55.0925 110.603 54.9315 110.682 54.7763C110.755 54.6397 110.87 54.4595 111.03 54.4209C111.16 54.3764 111.259 54.4496 111.383 54.4484C111.42 54.448 111.408 54.4729 111.425 54.4047C111.443 54.2872 111.404 54.1517 111.385 54.0346C111.365 53.8927 111.345 53.7509 111.375 53.6085C111.434 53.3609 111.579 53.0631 111.85 52.9864C112.121 52.9096 112.431 53.0178 112.709 53.009C113.104 52.9928 113.505 52.921 113.887 52.8432C114.269 52.7654 114.658 52.706 115.046 52.6344C115.724 52.5043 116.396 52.3311 117.016 52.0348C117.68 51.7072 118.238 51.2263 118.776 50.727C119.235 50.2965 119.676 49.8352 120.01 49.307C119.801 48.747 119.686 48.4023 119.686 48.4023C119.686 48.4023 119.391 51.0484 111.268 51.5468L108.884 51.5575Z" fill="#00144A"/>
<path d="M95.7273 21.7693L92.3263 21.4292L93.1765 22.2794L95.0471 23.6398L95.7273 21.7693Z" fill="#FF7F4C"/>
</svg>
