<svg width="160" height="160" viewBox="0 0 160 160" fill="none" xmlns="http://www.w3.org/2000/svg">
<mask id="mask0_2810_46794" style="mask-type:alpha" maskUnits="userSpaceOnUse" x="4" y="0" width="148" height="148">
<circle cx="77.675" cy="73.675" r="73.675" fill="#EBF8FF"/>
</mask>
<g mask="url(#mask0_2810_46794)">
<path d="M157.996 -10.936H-9.55293C-10.6451 -10.9375 -11.7267 -10.6311 -12.7359 -10.0345C-13.7452 -9.4378 -14.6624 -8.56256 -15.435 -7.45875C-16.2076 -6.35495 -16.8205 -5.04423 -17.2387 -3.60151C-17.6568 -2.15879 -17.8721 -0.612367 -17.8721 0.94937V141.785C-17.8721 144.94 -16.9956 147.966 -15.4355 150.197C-13.8753 152.428 -11.7593 153.682 -9.55293 153.682H157.996C160.203 153.682 162.319 152.428 163.879 150.197C165.439 147.966 166.316 144.94 166.316 141.785V0.94937C166.316 -0.612367 166.1 -2.15879 165.682 -3.60151C165.264 -5.04423 164.651 -6.35495 163.878 -7.45875C163.106 -8.56256 162.189 -9.4378 161.179 -10.0345C160.17 -10.6311 159.089 -10.9375 157.996 -10.936Z" fill="#223548"/>
<path d="M-18.5533 123.034L26.9313 107.714C28.8714 107.055 29.8964 104.969 29.2558 103.047L6.96198 36.8608C6.30305 34.9206 4.21643 33.8956 2.29455 34.5362L-43.19 49.8747C-45.1302 50.5336 -46.1552 52.6202 -45.5146 54.5421L-23.2207 120.728C-22.5618 122.668 -20.4752 123.693 -18.5533 123.053V123.034Z" fill="#324E6B"/>
<path d="M-20.512 121.863L24.7895 106.341C26.7114 105.682 27.7364 103.596 27.0775 101.674L4.49081 35.7626C3.83187 33.8407 1.74526 32.8157 -0.176624 33.4746L-45.4781 48.9961C-47.4 49.655 -48.425 51.7417 -47.7661 53.6635L-25.1977 119.575C-24.5388 121.497 -22.4522 122.522 -20.5303 121.863H-20.512Z" fill="#2A4259"/>
<path d="M191.517 43.236L147.268 28.0785C145.389 27.4403 143.35 28.4331 142.712 30.3123L120.658 94.6829C120.02 96.562 121.013 98.6008 122.892 99.239L167.141 114.396C169.02 115.035 171.059 114.042 171.697 112.163L193.751 47.7921C194.389 45.913 193.396 43.8742 191.517 43.236Z" fill="#2A4259"/>
<path d="M173.47 69.6512L142.64 59.0853C141.612 58.7307 140.513 59.2803 140.159 60.3085C139.804 61.3367 140.354 62.4359 141.382 62.7904L172.211 73.3564C173.239 73.7109 174.338 73.1613 174.693 72.1331C175.047 71.1049 174.498 70.0058 173.47 69.6512Z" fill="#223548"/>
<path d="M170.81 75.9266L139.981 65.3607C138.953 65.0061 137.854 65.5557 137.499 66.5839C137.145 67.6121 137.694 68.7113 138.723 69.0658L169.552 79.6318C170.58 79.9863 171.697 79.4367 172.034 78.4085C172.388 77.3803 171.839 76.2811 170.81 75.9266Z" fill="#223548"/>
<path d="M153.863 77.1323L137.447 71.5125C136.419 71.158 135.302 71.7075 134.965 72.7358C134.611 73.764 135.16 74.8631 136.188 75.2177L152.622 80.8375C153.651 81.192 154.75 80.6425 155.104 79.6142C155.459 78.586 154.909 77.4869 153.881 77.1323H153.863Z" fill="#223548"/>
<path d="M91.3687 115.036L86.1631 116.267L113.218 109.973L104.49 111.987L91.3687 115.036Z" fill="#3B5B7C"/>
<path d="M46.0635 118.988L45.8477 113.994L35.2639 72.8877C35.2214 72.7265 35.2118 72.5584 35.2354 72.3935C35.2591 72.2285 35.3156 72.0699 35.4017 71.9271C35.4878 71.7843 35.6017 71.6601 35.7367 71.5618C35.8717 71.4636 36.025 71.3933 36.1876 71.3551L38.1473 70.8901L36.8092 65.7239C36.768 65.5616 36.7594 65.3927 36.7841 65.2271C36.8087 65.0615 36.8661 64.9025 36.9528 64.7591C37.0395 64.6158 37.1539 64.491 37.2893 64.3921C37.4247 64.2931 37.5784 64.2219 37.7415 64.1826L40.5558 63.5196L39.2868 57.7162C39.2626 57.538 39.2741 57.3568 39.3205 57.183C39.367 57.0092 39.4476 56.8463 39.5576 56.7038C39.6675 56.5613 39.8048 56.4419 39.9613 56.3526C40.1179 56.2634 40.2906 56.2059 40.4695 56.1836L80.6033 48.3309L82.9514 44.8867L30.6368 57.2771C30.315 57.354 30.0121 57.495 29.7461 57.6914C29.4802 57.8878 29.2567 58.1357 29.0891 58.4203C28.9215 58.7049 28.8131 59.0203 28.7705 59.3476C28.7279 59.6749 28.7519 60.0073 28.8411 60.3252L45.3816 119.358C45.8076 120.873 46.7669 122.185 48.0836 123.052C47.4775 122.556 46.9839 121.937 46.6356 121.236C46.2874 120.536 46.0924 119.769 46.0635 118.988Z" fill="#3B5B7C"/>
<path d="M36.1875 71.3463C36.0248 71.3845 35.8715 71.4548 35.7366 71.5531C35.6016 71.6513 35.4877 71.7755 35.4016 71.9183C35.3155 72.0612 35.2589 72.2197 35.2353 72.3847C35.2116 72.5497 35.2213 72.7177 35.2638 72.8789L45.8562 113.985L45.1656 98.0987L38.1558 70.8813L36.1875 71.3463Z" fill="#223548"/>
<path d="M40.556 63.4854L37.7417 64.1484C37.5785 64.1877 37.4248 64.2588 37.2895 64.3577C37.1541 64.4567 37.0397 64.5814 36.953 64.7248C36.8663 64.8681 36.8089 65.0272 36.7843 65.1928C36.7596 65.3584 36.7682 65.5273 36.8094 65.6895L38.1475 70.8558L45.1573 98.0731L44.4235 81.1366L40.556 63.4854Z" fill="#2A4259"/>
<path d="M39.2872 57.6817L40.5562 63.4851L44.4237 81.1621L43.7935 66.4298C43.7335 65.1102 44.137 63.8111 44.9344 62.7564C45.7318 61.7017 46.8732 60.9576 48.1617 60.6522L75.7348 54.117C76.4185 53.9612 77.0173 53.5517 77.4095 52.9718L80.6037 48.2964L40.4699 56.1318C40.2893 56.154 40.1149 56.2119 39.9571 56.3023C39.7993 56.3927 39.6613 56.5136 39.551 56.6581C39.4408 56.8025 39.3607 56.9675 39.3154 57.1432C39.2701 57.319 39.2605 57.5022 39.2872 57.6817Z" fill="#223548"/>
<path d="M128.985 28.0745L87.659 37.8278C86.9689 37.9941 86.3652 38.4082 85.9644 38.9905L82.4703 44.1969L80.0944 47.6678L76.8624 52.3796C76.4655 52.9641 75.8596 53.3766 75.1677 53.5337L47.2677 60.1198C45.9639 60.4275 44.809 61.1774 44.0021 62.2403C43.1953 63.3032 42.787 64.6124 42.8477 65.9423L43.4854 80.7891L44.2279 97.8575L44.9267 113.867L45.1451 118.9C45.1834 119.723 45.4039 120.528 45.7907 121.257C46.1775 121.987 46.7213 122.622 47.3833 123.119C48.0454 123.616 48.8094 123.962 49.6213 124.133C50.4331 124.304 51.2729 124.294 52.0808 124.106L85.7111 116.175L90.9522 114.926L104.23 111.854L113.052 109.823L137.51 104.175C138.072 104.049 138.568 103.726 138.909 103.265C139.249 102.804 139.41 102.236 139.362 101.667L133.912 31.6669C133.872 31.0903 133.706 30.5291 133.425 30.0227C133.145 29.5163 132.757 29.0768 132.288 28.7348C131.819 28.3928 131.28 28.1565 130.71 28.0425C130.139 27.9284 129.551 27.9394 128.985 28.0745Z" fill="#3B5B7C"/>
<path d="M34.7871 32.0943C34.5792 32.2595 34.4197 32.4776 34.3252 32.7257C34.2308 32.9739 34.205 33.2429 34.2506 33.5045L35.1722 39.7545C35.3241 40.7882 36.2601 41.2186 37.0703 41.0993C37.4037 41.0626 37.7161 40.9186 37.9607 40.6891C38.2052 40.4596 38.3687 40.1569 38.4264 39.8265C38.4496 39.666 38.4484 39.503 38.4227 39.3429L37.5011 33.0929C37.4663 32.8179 37.3578 32.5574 37.1871 32.3389C37.0164 32.1205 36.7898 31.9523 36.5314 31.8521C36.2441 31.7406 35.933 31.7044 35.6278 31.7467C35.3225 31.7891 35.0332 31.9088 34.7871 32.0943Z" fill="white"/>
<path d="M9.34184 55.1301C9.27615 55.3084 9.24835 55.4985 9.26023 55.6881C9.27211 55.8778 9.32339 56.0629 9.41082 56.2316C9.49824 56.4003 9.61988 56.5489 9.76797 56.668C9.91606 56.787 10.0874 56.8739 10.2709 56.9231L16.1363 58.7849C16.3474 58.8511 16.5696 58.8746 16.7899 58.854C17.0102 58.8334 17.2242 58.7691 17.4194 58.6649C17.6145 58.5607 17.787 58.4186 17.9267 58.247C18.0664 58.0754 18.1705 57.8777 18.2329 57.6654C18.2611 57.5786 18.2821 57.4896 18.2957 57.3993C18.3509 57.0666 18.2794 56.7252 18.0954 56.4426C17.9114 56.1599 17.6282 55.9565 17.3016 55.8724L11.4384 54.0129C11.2274 53.9463 11.0053 53.9225 10.785 53.9428C10.5648 53.9631 10.3507 54.0271 10.1555 54.1312C9.96029 54.2352 9.78777 54.3771 9.64806 54.5487C9.50835 54.7202 9.40424 54.9179 9.34184 55.1301Z" fill="white"/>
<path d="M17.7227 40.0378C17.7041 40.2445 17.7278 40.4529 17.7925 40.6502C17.8572 40.8474 17.9615 41.0294 18.0989 41.185L24.1929 48.2271C24.468 48.5414 24.8539 48.7372 25.27 48.7735C25.686 48.8098 26.1001 48.6839 26.4255 48.4221C26.7263 48.178 26.9243 47.8297 26.9804 47.4464C27.0124 47.2254 26.9963 47.0001 26.9334 46.7859C26.8704 46.5716 26.762 46.3735 26.6155 46.2049L20.5215 39.1629C20.2451 38.8466 19.8569 38.6498 19.4385 38.6138C19.0201 38.5778 18.604 38.7055 18.2777 38.9699C18.118 39.1013 17.9866 39.2637 17.8912 39.4472C17.7958 39.6307 17.7385 39.8316 17.7227 40.0378Z" fill="white"/>
</g>
<g clip-path="url(#clip0_2810_46794)">
<path opacity="0.5" d="M116.677 111.841C131.604 108.977 141.342 94.336 138.421 79.1151C135.5 63.8943 121.033 53.8907 106.105 56.7553C91.1781 59.62 81.4401 74.2607 84.3626 89.4892C87.285 104.718 101.749 114.706 116.677 111.841Z" fill="#223548"/>
<path d="M117.399 57.917L106.683 56.6448L99.4043 110.223L110.128 111.494L117.399 57.917Z" fill="#CEDBE8"/>
<path d="M114.367 112.285L121.951 58.5521L118.618 58.154L111.027 111.888L114.367 112.285Z" fill="#CEDBE8"/>
<path d="M129.56 106.272L122.735 110.679L129.708 121.474L136.525 117.068L129.56 106.272Z" fill="#B9C1C6"/>
<path d="M129.799 120.491C129.453 120.718 129.211 121.073 129.126 121.478C129.04 121.884 129.119 122.306 129.344 122.654L145.601 147.72C146.271 148.733 147.316 149.438 148.506 149.683C149.695 149.927 150.933 149.69 151.949 149.024L152.757 148.494C153.27 148.166 153.711 147.739 154.056 147.239C154.402 146.738 154.644 146.173 154.768 145.578C155.01 144.386 154.772 143.146 154.106 142.129L137.855 117.093C137.743 116.919 137.597 116.769 137.427 116.651C137.256 116.534 137.064 116.451 136.861 116.409C136.659 116.366 136.45 116.364 136.246 116.402C136.043 116.441 135.849 116.519 135.676 116.633L129.799 120.491Z" fill="#F58B00"/>
<path d="M122.356 110.113L123.479 111.806C123.479 111.806 127.658 112.784 131.034 108.416L129.236 105.704L126.157 108.003L122.356 110.113Z" fill="#688FB7"/>
<path d="M117.045 112.761C110.475 114.038 103.665 112.997 97.7767 109.815C91.8884 106.632 87.2862 101.506 84.7549 95.3096C82.2235 89.1132 81.9198 82.2305 83.8956 75.8354C85.8713 69.4402 90.0041 63.9285 95.5892 60.2401C101.174 56.5516 107.866 54.915 114.523 55.6091C121.18 56.3033 127.39 59.2852 132.094 64.0465C136.799 68.8079 139.706 75.0537 140.32 81.7189C140.935 88.3842 139.218 95.0561 135.464 100.597C131.178 106.932 124.553 111.307 117.045 112.761ZM106.598 58.3215C100.562 59.4689 95.1103 62.6743 91.1731 67.3913C87.2359 72.1084 85.0565 78.0451 85.0064 84.1894C84.9563 90.3337 87.0386 96.3052 90.8983 101.086C94.7581 105.867 100.156 109.161 106.173 110.407C112.189 111.653 118.452 110.774 123.892 107.919C129.333 105.064 133.615 100.41 136.009 94.7515C138.402 89.0925 138.759 82.7784 137.019 76.8856C135.278 70.9927 131.548 65.8859 126.464 62.4356C123.586 60.4768 120.35 59.1051 116.941 58.3991C113.532 57.6932 110.017 57.6668 106.598 58.3215Z" fill="#688FB7"/>
</g>
<defs>
<clipPath id="clip0_2810_46794">
<rect width="60.1974" height="100.378" fill="white" transform="translate(77.6748 61.4214) rotate(-10.8633)"/>
</clipPath>
</defs>
</svg>
