<svg width="320" height="240" viewBox="0 0 320 240" fill="none" xmlns="http://www.w3.org/2000/svg">
<path d="M305.546 19.5H14.4524C12.5549 19.4983 10.6758 19.8705 8.92231 20.5954C7.16883 21.3203 5.5754 22.3836 4.23311 23.7247C2.89082 25.0657 1.82599 26.6582 1.09948 28.411C0.372966 30.1638 -0.000977371 32.0426 -0.000976562 33.94V205.047C-0.000976562 208.88 1.52177 212.556 4.2323 215.267C6.94283 217.977 10.6191 219.5 14.4524 219.5H305.546C309.379 219.5 313.055 217.977 315.766 215.267C318.476 212.556 319.999 208.88 319.999 205.047V33.94C319.999 32.0426 319.625 30.1638 318.899 28.411C318.172 26.6582 317.107 25.0657 315.765 23.7247C314.423 22.3836 312.829 21.3203 311.076 20.5954C309.322 19.8705 307.443 19.4983 305.546 19.5Z" fill="#223548"/>
<path d="M38.5019 181.191C38.5019 179.833 34.5592 178.746 29.2911 178.499C28.9899 173.237 27.8303 169.325 26.4718 169.328C25.1134 169.331 23.9839 173.273 23.6948 178.562C18.4117 178.923 14.4839 180.104 14.502 181.465C14.5201 182.826 18.4448 183.914 23.7128 184.158C24.0291 189.419 25.1737 193.331 26.5291 193.328C27.8845 193.325 29.02 189.383 29.3092 184.094C34.5923 183.733 38.517 182.552 38.5019 181.191Z" fill="#2A4259"/>
<path d="M293.433 192.116C293.433 191.21 290.804 190.485 287.292 190.321C287.091 186.813 286.318 184.205 285.413 184.207C284.507 184.209 283.754 186.837 283.561 190.363C280.039 190.604 277.421 191.391 277.433 192.298C277.445 193.206 280.061 193.931 283.573 194.093C283.784 197.601 284.547 200.209 285.451 200.207C286.354 200.205 287.111 197.577 287.304 194.051C290.826 193.81 293.443 193.023 293.433 192.116Z" fill="#2A4259"/>
<path d="M214.569 42.9841C214.569 41.6258 210.627 40.5386 205.358 40.2916C205.057 35.0302 203.898 31.1181 202.539 31.1211C201.181 31.1241 200.051 35.0664 199.762 40.3549C194.479 40.7163 190.551 41.8968 190.569 43.2581C190.587 44.6194 194.512 45.7066 199.78 45.9506C200.096 51.2119 201.241 55.1241 202.596 55.1211C203.952 55.1181 205.087 51.1758 205.377 45.8873C210.66 45.5259 214.584 44.3453 214.569 42.9841Z" fill="#2A4259"/>
<rect x="60.8906" y="54.582" width="5.7116" height="7.67057" fill="#2A4259"/>
<path fill-rule="evenodd" clip-rule="evenodd" d="M52.8344 18.084L52.0741 18.5563L52.0849 18.5607L49.8582 19.9769C48.9094 20.5804 48.3777 21.7088 48.3659 23.1681C48.3567 24.3134 48.6669 25.5496 49.264 26.7503L51.566 31.4189L42.4786 37.0636C41.2125 37.487 40.402 38.7459 40.3873 40.5557L40.3244 48.3328C40.3028 51.0114 42.0309 54.084 44.4288 55.6281L50.13 59.3165C50.701 61.6548 51.4572 64.0224 52.3821 66.3747L49.0159 69.9307C48.4039 70.5772 48.0758 71.5394 48.0666 72.6847C48.0548 74.144 48.5642 75.7681 49.4964 77.2152L54.4562 85.0323C56.1539 87.7016 58.8556 89.1994 60.8498 88.556L65.5987 87.0243C67.3538 88.8484 69.1777 90.5002 71.0703 91.9981L71.9612 98.5621C72.3429 101.388 74.3929 104.256 76.828 105.372L83.8981 108.613C85.4461 109.322 86.8511 109.187 87.7783 108.363L98.9887 101.424L88.5872 96.4197L88.3989 98.069C86.0176 96.9145 84.0293 94.0952 83.654 91.3162L82.7632 84.7522C81.0504 83.3966 79.3938 81.915 77.7936 80.2935C77.5597 80.1472 77.3273 79.9963 77.0967 79.8412L72.5427 81.3101C70.5485 81.9535 67.8468 80.4557 66.1491 77.7863L61.1893 69.9692C60.257 68.5222 59.7476 66.8981 59.7594 65.4388C59.7687 64.2934 60.0967 63.3313 60.7088 62.6848L63.7265 59.4969C63.5872 58.7747 63.4791 58.0534 63.4037 57.3357C62.7782 55.5768 62.249 53.8155 61.8228 52.0706L56.1217 48.3821C53.7948 46.8838 52.0986 43.9461 52.0199 41.3258L55.7101 42.8329L54.078 29.8586L53.1348 30.4444C53.8861 29.7219 54.9877 29.4659 56.2718 29.8169L61.8557 31.3378C62.461 29.4459 63.2671 27.7202 64.2405 26.1639L62.6114 22.8599L65.6605 24.1052L64.0284 11.1309L55.2873 16.5604C55.1561 16.6185 55.0292 16.6868 54.9072 16.7657L52.8344 18.084Z" fill="#2A4259"/>
<path fill-rule="evenodd" clip-rule="evenodd" d="M61.4723 61.8731L49.6076 69.3005L49.012 69.9297C48.4 70.5763 48.0719 71.5384 48.0627 72.6837C48.0509 74.1431 48.5603 75.7671 49.4925 77.2142L54.4523 85.0313C56.15 87.7006 58.8517 89.1985 60.8459 88.555L65.5948 87.0233C67.3499 88.8475 69.1738 90.4993 71.0664 91.9971L71.9573 98.5611C72.324 101.277 74.231 104.031 76.5398 105.232L88.1686 97.9526C85.8886 96.7338 84.0135 94.0057 83.6501 91.3152L82.7593 84.7512C81.0465 83.3956 79.3899 81.914 77.7897 80.2926C77.5558 80.1462 77.3234 79.9954 77.0928 79.8402L72.5388 81.3091C70.5446 81.9525 67.8429 80.4547 66.1452 77.7854L61.1854 69.9683C60.2531 68.5212 59.7437 66.8972 59.7555 65.4378C59.7648 64.2925 60.0928 63.3303 60.7049 62.6838L61.4723 61.8731ZM88.4268 97.791L89.7334 96.9731L88.5833 96.4198L88.4268 97.791Z" fill="#324E6B"/>
<path fill-rule="evenodd" clip-rule="evenodd" d="M55.6663 48.0625L44.0273 55.3486C44.1599 55.4465 44.2948 55.5398 44.4319 55.6281L50.1331 59.3165C50.1663 59.4526 50.2002 59.5888 50.2346 59.7251L61.9114 52.4153C61.8825 52.3003 61.854 52.1854 61.8259 52.0706L56.1248 48.3822C55.969 48.2819 55.8161 48.1752 55.6663 48.0625ZM67.0925 79.0367L55.4419 86.3301C57.088 88.1634 59.2104 89.086 60.8529 88.556L65.6018 87.0243C67.3569 88.8485 69.1808 90.5003 71.0734 91.9981L71.1257 92.3837L82.8094 85.0696L82.7663 84.7522C81.0535 83.3966 79.3969 81.915 77.7967 80.2936C77.5628 80.1472 77.3304 79.9964 77.0997 79.8412L72.5457 81.3101C70.8892 81.8446 68.7444 80.9015 67.0925 79.0367ZM84.9212 94.759L73.2612 102.058C74.1625 103.514 75.4334 104.732 76.8311 105.372L83.9012 108.613C85.4481 109.322 86.8521 109.187 87.7794 108.365L98.9918 101.424L88.5903 96.4203L88.4021 98.0691C87.0355 97.4065 85.7984 96.1958 84.9212 94.759Z" fill="#3B5B7C"/>
<path d="M119.459 87.8755L131.266 80.5665L120.865 75.5625L119.459 87.8755Z" fill="#3B5B7C"/>
<path d="M85.3693 9.82227L73.415 17.2477L87.0014 22.7966L85.3693 9.82227Z" fill="#2A4259"/>
<path fill-rule="evenodd" clip-rule="evenodd" d="M108.966 95.6115L107.038 93.1875C105.283 93.4215 103.446 93.4323 101.56 93.2168L100.535 99.0511C100.152 101.266 98.4231 102.276 96.3018 101.636L99.9175 106.182C101.887 108.642 104.592 109.641 106.321 108.523L110.583 105.812L119.397 100.356L108.996 95.3518L108.966 95.6115Z" fill="#3B5B7C"/>
<path fill-rule="evenodd" clip-rule="evenodd" d="M83.1184 17.6655L84.1258 11.8973C84.5502 9.44041 86.6314 8.46597 89.0661 9.61897L96.1363 12.8594C98.5713 13.9755 100.621 16.8434 101.003 19.6698L101.893 26.3077C103.769 27.7978 105.593 29.4866 107.348 31.3108L112.046 29.7929C114.04 29.1494 116.742 30.6473 118.44 33.3166L123.4 41.1152C124.332 42.5807 124.841 44.1863 124.829 45.6457C124.82 46.791 124.492 47.7531 123.88 48.3997L120.514 51.9927C121.422 54.3372 122.161 56.6971 122.732 59.0539L128.366 62.6931C130.764 64.2371 132.492 67.3098 132.471 69.9883L132.408 77.7839C132.386 80.4625 130.621 81.9341 128.216 81.2768L122.565 79.7251C121.978 81.4769 121.24 83.1041 120.334 84.5619L123.651 91.2922C124.248 92.4929 124.559 93.7291 124.549 94.8744C124.537 96.3338 124.006 97.4621 123.057 98.0656L118.008 101.277C116.28 102.394 113.574 101.395 111.605 98.9354L107.033 93.1872C105.278 93.4212 103.441 93.432 101.554 93.2165L100.53 99.0508C100.105 101.508 98.024 102.482 95.589 101.366L88.5188 98.1257C86.0838 97.0096 84.0337 94.1417 83.652 91.3153L82.7612 84.7513C80.8686 83.2535 79.0446 81.6017 77.2895 79.7775L72.5406 81.3092C70.5464 81.9527 67.8448 80.4548 66.147 77.7855L61.1872 69.9684C60.255 68.5213 59.7456 66.8973 59.7574 65.4379C59.7667 64.2926 60.0947 63.3305 60.7068 62.6839L64.073 59.1279C63.1481 56.7757 62.3919 54.4081 61.8208 52.0697L56.1196 48.3813C53.7217 46.8373 51.9936 43.7646 52.0153 41.086L52.0782 33.309C52.0998 30.6304 53.8647 29.1587 56.2698 29.816L61.8537 31.337C62.4589 29.445 63.2651 27.7194 64.2385 26.163L60.9549 19.5035C60.3578 18.3028 60.0475 17.0667 60.0568 15.9213C60.0686 14.462 60.6002 13.3336 61.549 12.7301L66.5981 9.51894C68.3264 8.40132 71.0321 9.40041 73.0012 11.8604L77.6235 17.6501C79.3782 17.4346 81.2155 17.4423 83.1184 17.6655ZM109.519 63.3718C109.604 52.8767 101.938 40.8238 92.3968 36.4508C82.8557 32.0779 75.0523 37.0409 74.9674 47.536C74.8825 58.0311 82.5483 70.084 92.0893 74.457C101.63 78.8299 109.434 73.867 109.519 63.3718Z" fill="#324E6B"/>
<path d="M97.0022 75.9293C97.5246 74.3719 97.8137 72.5934 97.8297 70.6191C97.9146 60.124 90.2488 48.071 80.7078 43.6981C79.0048 42.9175 77.3571 42.4344 75.7988 42.2271C78.0536 35.5054 84.6544 32.9019 92.4007 36.4522C93.2618 36.8469 94.1077 37.3042 94.934 37.8173C95.3457 38.0729 95.3856 38.0943 95.9314 38.4699C102.513 43 107.684 51.0335 109.123 58.9212C109.232 59.5232 109.323 60.1394 109.39 60.7663C109.484 61.6423 109.53 62.513 109.523 63.3733C109.453 71.9951 104.174 76.8834 97.0022 75.9293Z" fill="#3B5B7C"/>
<path fill-rule="evenodd" clip-rule="evenodd" d="M97.8255 70.9338C97.7828 72.7822 97.4973 74.4542 97.0029 75.9281C104.175 76.8821 109.454 71.9938 109.523 63.372C109.529 62.6188 109.496 61.8576 109.424 61.0918C106.101 67.6616 101.621 70.4095 97.8255 70.9338Z" fill="#2A4259"/>
<path fill-rule="evenodd" clip-rule="evenodd" d="M265.507 113.128L274.343 114.598C278.107 115.217 279.623 118.388 277.889 122.127L273.02 132.982C271.343 136.721 266.981 139.892 262.662 140.511L252.519 141.955C250.263 144.843 247.702 147.654 244.934 150.361L247.314 157.529C248.323 160.571 246.065 164.723 242.003 167.353L230.135 175.036C227.904 176.48 225.454 177.28 223.222 177.28C221.47 177.28 219.994 176.79 218.997 175.862L213.46 170.756C209.884 172.174 206.284 173.335 202.686 174.237L197.188 182.901C194.856 186.588 190.177 189.269 186.08 189.269H174.154C170.056 189.269 167.783 186.588 168.759 182.901L171.063 174.237C168.376 173.36 165.878 172.252 163.636 170.885L153.382 176.042C151.553 176.97 149.666 177.46 147.914 177.46C145.681 177.46 143.949 176.661 143.014 175.217L138.039 167.533C136.308 164.903 137.803 160.752 141.541 157.709L150.278 150.644C149.898 147.963 149.859 145.152 150.165 142.265L141.228 140.769C137.464 140.15 135.948 136.979 137.625 133.24L142.494 122.385C144.172 118.646 148.533 115.475 152.852 114.856L162.882 113.412C165.15 110.498 167.654 107.688 170.423 104.98L168.021 97.7351C167.012 94.6925 169.27 90.5412 173.332 87.9112L185.228 80.2275C187.43 78.7836 189.908 77.9843 192.141 77.9843C193.893 77.9843 195.369 78.4742 196.365 79.4024L201.847 84.5077C205.433 83.0638 209.046 81.8777 212.616 80.9752L218.187 72.2086C220.519 68.5214 225.198 65.8398 229.296 65.8398H241.193C245.291 65.8398 247.564 68.5214 246.588 72.2086L244.331 80.769C247.232 81.6714 249.882 82.8833 252.275 84.353L262.421 79.2477C264.251 78.3195 266.138 77.8296 267.89 77.8296C270.122 77.8296 271.855 78.6289 272.79 80.0728L277.764 87.7565C279.495 90.3865 278.001 94.5378 274.262 97.5803L265.463 104.723C265.814 107.404 265.825 110.215 265.507 113.128ZM195.917 154.079C211.973 154.079 230.315 142.204 236.886 127.555C243.458 112.906 235.769 101.03 219.714 101.03C203.659 101.03 185.316 112.906 178.745 127.555C172.174 142.204 179.862 154.079 195.917 154.079Z" fill="#4098FF"/>
<path fill-rule="evenodd" clip-rule="evenodd" d="M213.895 101.522C217.212 100.224 220.547 99.148 223.845 98.3141L229.417 89.5475C231.749 85.8603 236.428 83.1787 240.526 83.1787H249.074L257.227 85.2415C258.026 86.3509 258.269 87.8415 257.818 89.5475L255.561 98.1079C258.462 99.0103 261.112 100.222 263.505 101.692L273.651 96.5866C273.81 96.506 273.969 96.4287 274.129 96.3548L289.738 106.6L278.411 89.4124C278.309 88.8171 278.096 88.2591 277.765 87.7565L272.791 80.0728C271.856 78.6289 270.123 77.8296 267.891 77.8296C266.139 77.8296 264.252 78.3195 262.422 79.2477L255.59 82.6855L246.412 68.4884L246.386 68.562C245.596 66.8827 243.75 65.8398 241.194 65.8398H229.297C225.199 65.8398 220.52 68.5214 218.188 72.2086L212.617 80.9752C209.047 81.8777 205.434 83.0638 201.848 84.5077L196.366 79.4024C195.37 78.4742 193.894 77.9843 192.142 77.9843C189.909 77.9843 187.431 78.7836 185.229 80.2275L173.333 87.9112C169.271 90.5412 167.013 94.6925 168.022 97.7351L170.424 104.98C167.655 107.688 165.151 110.498 162.883 113.412L152.853 114.856C148.534 115.475 144.173 118.646 142.495 122.385L137.626 133.24C136.427 135.914 136.861 138.298 138.582 139.665L147.376 152.992L141.543 157.709C137.804 160.752 136.309 164.903 138.04 167.533L139.293 169.469L139.107 169.462L150.255 186.357L156.905 171.706L161.508 167.983C161.128 165.302 161.089 162.491 161.395 159.603L152.458 158.108C150.049 157.712 148.56 156.27 148.241 154.303L149.219 155.786L156.574 139.58L153.839 139.478C155.593 135.847 159.858 132.8 164.082 132.195L174.112 130.751C176.38 127.837 178.884 125.027 181.652 122.319L179.251 115.074C178.242 112.031 180.499 107.88 184.562 105.25L196.458 97.5664C198.66 96.1225 201.138 95.3232 203.371 95.3232C205.123 95.3232 206.599 95.813 207.595 96.7413L212.915 101.696C213.242 101.634 213.568 101.576 213.895 101.522Z" fill="#4098FF"/>
<path d="M289.738 134.781L278.905 118.023L274.369 130.893L289.738 134.781Z" fill="#4098FF"/>
<path d="M180.269 204.285L169.121 187.391L187.624 188.08L180.269 204.285Z" fill="#688FB7"/>
<path fill-rule="evenodd" clip-rule="evenodd" d="M276.736 130.468L285.572 131.938C289.335 132.557 290.851 135.728 289.118 139.467L284.248 150.322C282.571 154.061 278.21 157.232 273.891 157.851L263.748 159.295C261.492 162.183 258.931 164.993 256.162 167.701L258.542 174.869C259.551 177.911 257.293 182.063 253.231 184.693L241.363 192.376C239.133 193.82 236.683 194.62 234.45 194.62C232.698 194.62 231.223 194.13 230.226 193.201L224.688 188.096C221.113 189.514 217.512 190.675 213.914 191.577L208.417 200.241C206.085 203.928 201.406 206.609 197.308 206.609H185.383C181.285 206.609 179.012 203.928 179.988 200.241L182.291 191.577C179.604 190.7 177.106 189.592 174.865 188.225L164.611 193.382C162.781 194.31 160.894 194.8 159.142 194.8C156.91 194.8 155.177 194.001 154.242 192.557L149.268 184.873C147.537 182.243 149.031 178.092 152.77 175.049L161.506 167.984C161.127 165.303 161.087 162.492 161.394 159.604L152.456 158.109C148.693 157.49 147.176 154.319 148.854 150.58L153.723 139.725C155.4 135.986 159.762 132.815 164.08 132.196L174.11 130.752C176.378 127.838 178.882 125.028 181.651 122.32L179.249 115.075C178.24 112.032 180.498 107.881 184.56 105.251L196.457 97.5673C198.659 96.1234 201.137 95.3241 203.369 95.3241C205.121 95.3241 206.597 95.814 207.594 96.7422L213.075 101.848C216.662 100.404 220.274 99.2175 223.844 98.3151L229.416 89.5484C231.748 85.8613 236.427 83.1797 240.524 83.1797H252.422C256.519 83.1797 258.793 85.8613 257.817 89.5484L255.559 98.1088C258.461 99.0113 261.111 100.223 263.503 101.693L273.65 96.5875C275.479 95.6593 277.366 95.1694 279.118 95.1694C281.351 95.1694 283.083 95.9687 284.018 97.4126L288.993 105.096C290.724 107.726 289.229 111.878 285.49 114.92L276.691 122.062C277.043 124.744 277.054 127.555 276.736 130.468ZM207.146 171.419C223.201 171.419 241.544 159.544 248.115 144.895C254.686 130.246 246.998 118.37 230.942 118.37C214.887 118.37 196.545 130.246 189.973 144.895C183.402 159.544 191.091 171.419 207.146 171.419Z" fill="#1782FF"/>
<path d="M212.84 103.177V101.344H214.306L212.84 103.177Z" fill="#1782FF"/>
<path d="M213.536 170.828L213.458 170.756C213.33 170.807 213.201 170.858 213.072 170.909C211.079 171.243 209.095 171.418 207.145 171.418C194.132 171.418 186.616 163.618 187.732 152.863C190.133 153.653 192.874 154.079 195.916 154.079C211.971 154.079 230.314 142.204 236.885 127.555C238.13 124.778 238.864 122.101 239.125 119.586C249.398 122.968 253.44 133.02 248.114 144.894C247.323 146.656 246.363 148.377 245.256 150.043C245.149 150.149 245.041 150.255 244.932 150.361L244.969 150.47C238.022 160.639 225.657 168.647 213.536 170.828Z" fill="#688FB7"/>
<path fill-rule="evenodd" clip-rule="evenodd" d="M179.121 112.388L167.821 95.498C167.727 96.281 167.786 97.0374 168.018 97.7354L170.42 104.981C168.424 106.932 166.565 108.937 164.834 110.996L176.27 128.09C177.942 126.117 179.732 124.194 181.648 122.32L179.246 115.074C178.971 114.244 178.939 113.331 179.121 112.388Z" fill="#688FB7"/>
<path fill-rule="evenodd" clip-rule="evenodd" d="M223.846 98.3149C220.547 99.1488 217.212 100.225 213.895 101.523C213.568 101.576 213.242 101.635 212.915 101.697L212.904 101.687L200.692 83.4317L201.848 84.5085C205.434 83.0646 209.047 81.8785 212.617 80.976L214.275 78.3672L225.684 95.4219L223.846 98.3149ZM151.719 115.077C152.096 114.985 152.475 114.911 152.853 114.857L162.883 113.413C163.712 112.347 164.573 111.296 165.467 110.258L176.904 127.356C175.936 128.472 175.005 129.604 174.112 130.752L164.082 132.196C163.811 132.234 163.54 132.283 163.269 132.342L151.719 115.077Z" fill="#1782FF"/>
<path fill-rule="evenodd" clip-rule="evenodd" d="M149.234 155.74L149.179 155.734L149.213 155.785L149.234 155.74ZM148.289 154.583L146.618 151.654L146.473 151.633L147.37 152.992L145.129 154.804L156.712 172.118L156.899 171.705L161.501 167.983C161.122 165.301 161.083 162.491 161.389 159.603L152.452 158.108C150.158 157.731 148.7 156.406 148.289 154.583Z" fill="#688FB7"/>
<path d="M99.541 97.4727L131.903 118.313L87.4952 187.274C81.7403 196.211 69.8305 198.79 60.8939 193.035C51.9572 187.28 49.3779 175.37 55.1327 166.434L99.541 97.4727Z" fill="#F58B00"/>
<ellipse cx="115.365" cy="108.447" rx="19.2459" ry="9.71286" transform="rotate(32.78 115.365 108.447)" fill="#CC7400"/>
<path d="M113.97 91.5926C109.675 95.9509 105.156 95.3456 103.212 95.5025L132.17 114.15C130.744 110.306 130.171 104.467 131.163 102.664L113.97 91.5926Z" fill="#CC7400"/>
<path fill-rule="evenodd" clip-rule="evenodd" d="M120.552 100.388C127.002 104.541 133.93 105.27 136.026 102.015C136.051 101.976 136.075 101.937 136.098 101.898L139.156 97.1489L134.076 93.8777C132.618 92.0195 130.591 90.1765 128.143 88.6002C125.695 87.024 123.179 85.941 120.883 85.3818L115.799 82.1077L112.6 87.0754L112.604 87.078C110.648 90.3558 114.171 96.2785 120.552 100.388Z" fill="#F58B00"/>
<ellipse cx="127.479" cy="89.6312" rx="13.8906" ry="7.01018" transform="rotate(32.78 127.479 89.6312)" fill="#CC7400"/>
<path fill-rule="evenodd" clip-rule="evenodd" d="M181.162 6.26431L172.727 10.5328L123.469 87.0255L123.569 87.0903C123.391 88.2551 124.557 89.9622 126.472 91.195C128.386 92.4278 130.423 92.7837 131.41 92.1393L131.508 92.2025L131.79 91.765C131.792 91.7616 131.794 91.7582 131.796 91.7547C131.799 91.7513 131.801 91.7479 131.803 91.7444L180.766 15.7098L181.162 6.26431Z" fill="#688FB7"/>
<path fill-rule="evenodd" clip-rule="evenodd" d="M175.08 9.33909L172.638 19.4954L180.875 13.07L181.16 6.26233L175.08 9.33909Z" fill="white"/>
<rect width="5.1865" height="67.9541" rx="2.59325" transform="matrix(0.703914 0.710286 -0.541415 0.840756 96.0732 112.195)" fill="#CC7400"/>
<rect width="5.1865" height="67.9541" rx="2.59325" transform="matrix(-0.937878 -0.346966 -0.541415 0.840756 120.17 127.715)" fill="#CC7400"/>
<rect x="104.433" y="120.826" width="5.26153" height="67.9541" rx="2.63076" transform="rotate(32.78 104.433 120.826)" fill="#CC7400"/>
<rect x="144.57" y="58.4941" width="2.92578" height="34.2068" rx="1.46289" transform="rotate(32.78 144.57 58.4941)" fill="#CEDBE8"/>
<rect x="149.784" y="50.3984" width="2.92578" height="6.46777" rx="1.46289" transform="rotate(32.78 149.784 50.3984)" fill="#CEDBE8"/>
</svg>
