<svg width="320" height="240" viewBox="0 0 320 240" fill="none" xmlns="http://www.w3.org/2000/svg">
<path d="M305.546 20H14.4524C12.5549 19.9983 10.6758 20.3705 8.92231 21.0954C7.16883 21.8203 5.5754 22.8836 4.23311 24.2247C2.89082 25.5657 1.82599 27.1582 1.09948 28.911C0.372966 30.6638 -0.000977371 32.5426 -0.000976562 34.44V205.547C-0.000976562 209.38 1.52177 213.056 4.2323 215.767C6.94283 218.477 10.6191 220 14.4524 220H305.546C309.379 220 313.055 218.477 315.766 215.767C318.476 213.056 319.999 209.38 319.999 205.547V34.44C319.999 32.5426 319.625 30.6638 318.899 28.911C318.172 27.1582 317.107 25.5657 315.765 24.2247C314.423 22.8836 312.829 21.8203 311.076 21.0954C309.322 20.3705 307.443 19.9983 305.546 20Z" fill="#EBF8FF"/>
<path d="M296.844 184.523C296.844 183.165 292.901 182.078 287.633 181.831C287.332 176.569 286.172 172.657 284.814 172.66C283.455 172.663 282.326 176.605 282.037 181.894C276.753 182.255 272.826 183.436 272.844 184.797C272.862 186.158 276.787 187.246 282.055 187.49C282.371 192.751 283.515 196.663 284.871 196.66C286.226 196.657 287.362 192.715 287.651 187.426C292.934 187.065 296.859 185.884 296.844 184.523Z" fill="#D1EFFF"/>
<path d="M234.478 168.022C234.478 167.116 231.849 166.392 228.337 166.227C228.136 162.719 227.363 160.111 226.457 160.113C225.552 160.115 224.799 162.743 224.606 166.269C221.084 166.51 218.466 167.297 218.478 168.205C218.49 169.112 221.106 169.837 224.618 170C224.829 173.507 225.592 176.115 226.496 176.113C227.399 176.111 228.156 173.483 228.349 169.957C231.871 169.716 234.488 168.929 234.478 168.022Z" fill="#D1EFFF"/>
<path d="M44.1445 61.2321C44.1445 59.8739 40.2017 58.7866 34.9337 58.5397C34.6325 53.2783 33.4728 49.3661 32.1144 49.3691C30.756 49.3722 29.6265 53.3144 29.3373 58.6029C24.0542 58.9643 20.1265 60.1449 20.1446 61.5062C20.1627 62.8674 24.0874 63.9547 29.3554 64.1986C29.6717 69.46 30.8162 73.3722 32.1716 73.3691C33.5271 73.3661 34.6626 69.4238 34.9517 64.1354C40.2348 63.774 44.1595 62.5934 44.1445 61.2321Z" fill="#D1EFFF"/>
<path d="M79.0502 53.3604C79.4529 52.9673 79.9541 52.69 80.5011 52.5577C81.0481 52.4255 81.6206 52.4431 82.1585 52.6087L95.0537 56.2149C97.1867 56.8103 97.8417 58.8931 97.3746 60.5649C97.2084 61.256 96.8223 61.8745 96.2744 62.3274C95.7265 62.7804 95.0464 63.0432 94.3363 63.0765C93.9927 63.0823 93.6503 63.0362 93.3205 62.9396L80.4253 59.3334C79.8563 59.1868 79.3375 58.8892 78.9238 58.4719C78.5101 58.0547 78.217 57.5333 78.0753 56.9631C77.9176 56.3293 77.9243 55.6657 78.0949 55.0352C78.2655 54.4047 78.5943 53.8282 79.0502 53.3604Z" fill="#A9B4BE"/>
<path d="M134.278 6.0075C134.671 5.91697 135.078 5.90926 135.473 5.98486C135.869 6.06046 136.244 6.2177 136.576 6.44656C136.907 6.67542 137.187 6.97086 137.398 7.31401C137.609 7.65717 137.746 8.04051 137.8 8.43956L140.149 21.2691C140.232 21.7307 140.222 22.2042 140.12 22.6619C140.018 23.1196 139.825 23.5523 139.554 23.9349C139.283 24.3175 138.938 24.6422 138.54 24.8901C138.142 25.138 137.698 25.3041 137.235 25.3786C137.045 25.4147 136.853 25.4352 136.659 25.4397C135.945 25.467 135.246 25.2256 134.701 24.7632C134.156 24.3008 133.804 23.651 133.714 22.9418L131.369 10.1175C131.286 9.65615 131.295 9.18276 131.396 8.72502C131.498 8.26728 131.69 7.8344 131.961 7.45168C132.231 7.06896 132.576 6.74411 132.974 6.49614C133.372 6.24816 133.815 6.08204 134.278 6.0075Z" fill="#A9B4BE"/>
<path d="M100.308 19.6003C100.747 19.6164 101.179 19.722 101.577 19.9107C101.974 20.0993 102.329 20.3671 102.619 20.6976L115.799 35.3908C116.387 36.053 116.695 36.9168 116.661 37.8013C116.626 38.6858 116.251 39.5227 115.613 40.137C115.02 40.7043 114.235 41.0278 113.414 41.0434C112.94 41.0516 112.471 40.9577 112.037 40.7682C111.604 40.5786 111.216 40.2977 110.901 39.9448L97.7209 25.2516C97.1297 24.5861 96.8195 23.7173 96.8556 22.8279C96.8916 21.9385 97.271 21.0977 97.9141 20.4822C98.2331 20.1816 98.6095 19.9485 99.0208 19.797C99.4321 19.6454 99.8698 19.5785 100.308 19.6003Z" fill="#A9B4BE"/>
<path d="M208.579 139.116C176.693 139.956 154.469 112.832 158.94 78.5329C163.411 44.2341 192.884 15.749 224.77 14.9096C256.656 14.0701 278.88 41.1942 274.409 75.4929C272.935 86.7992 268.744 97.4738 262.646 106.735L268.553 128.475C269.128 130.589 266.886 133.063 264.878 132.53L243.419 126.833C233.063 134.264 221.004 138.789 208.579 139.116Z" fill="#D5DADD"/>
<path d="M158.57 82.1071C156.039 114.696 177.811 139.927 208.581 139.117C221.007 138.79 233.066 134.264 243.422 126.833L264.881 132.53C265.859 132.79 266.893 132.336 267.629 131.557L158.57 82.1071Z" fill="#A9B4BE"/>
<path d="M163.241 61.7493L262.676 106.835L262.649 106.735C268.747 97.4742 272.937 86.7996 274.411 75.4934C274.58 74.2009 274.71 72.9187 274.804 71.6477L185.102 30.9746C175.592 39.0748 167.895 49.7294 163.241 61.7493Z" fill="#A9B4BE"/>
<path d="M199.359 133.282C168.177 134.103 146.444 107.577 150.816 74.0359C155.189 40.4945 184.011 12.6383 215.193 11.8174C246.375 10.9965 268.108 37.5217 263.736 71.0631C262.295 82.1193 258.197 92.5578 252.234 101.614L257.978 122.755C258.552 124.869 256.311 127.343 254.303 126.81L233.431 121.269C223.304 128.536 211.511 132.962 199.359 133.282Z" fill="white"/>
<circle cx="181.267" cy="75.7956" r="7.45969" fill="#D5DADD"/>
<circle cx="180.316" cy="68.3366" r="7.45969" fill="#F58B00"/>
<path fill-rule="evenodd" clip-rule="evenodd" d="M186.565 64.2617C186.365 68.2032 183.106 71.3376 179.115 71.3376C176.498 71.3376 174.197 69.9909 172.865 67.9529C172.859 68.08 172.855 68.2079 172.855 68.3367C172.855 72.4565 176.195 75.7963 180.315 75.7963C184.435 75.7963 187.775 72.4565 187.775 68.3367C187.775 66.8329 187.33 65.4331 186.565 64.2617Z" fill="#CC7400"/>
<circle cx="207.679" cy="75.7956" r="7.45969" fill="#D5DADD"/>
<circle cx="206.725" cy="68.3366" r="7.45969" fill="#F58B00"/>
<path fill-rule="evenodd" clip-rule="evenodd" d="M212.975 64.2617C212.775 68.2032 209.516 71.3376 205.525 71.3376C202.909 71.3376 200.607 69.9909 199.276 67.9529C199.269 68.08 199.266 68.2079 199.266 68.3367C199.266 72.4565 202.606 75.7963 206.726 75.7963C210.846 75.7963 214.185 72.4565 214.185 68.3367C214.185 66.8329 213.741 65.4331 212.975 64.2617Z" fill="#CC7400"/>
<circle cx="234.476" cy="75.7956" r="7.45969" fill="#D5DADD"/>
<circle cx="233.522" cy="68.3366" r="7.45969" fill="#F58B00"/>
<path fill-rule="evenodd" clip-rule="evenodd" d="M239.772 64.2617C239.572 68.2032 236.313 71.3376 232.322 71.3376C229.706 71.3376 227.404 69.9909 226.073 67.9529C226.066 68.08 226.063 68.2079 226.063 68.3367C226.063 72.4565 229.403 75.7963 233.523 75.7963C237.643 75.7963 240.982 72.4565 240.982 68.3367C240.982 66.8329 240.537 65.4331 239.772 64.2617Z" fill="#CC7400"/>
<path d="M151.846 96.2676C157.188 118.539 175.51 133.909 199.36 133.281C199.887 133.267 200.414 133.246 200.939 133.217C197.632 121.737 189.331 110.859 177.161 103.736C169.01 98.9651 160.242 96.5323 151.846 96.2676Z" fill="#D5DADD"/>
<path d="M116.706 229.223C155.737 227.911 184.641 194.019 181.265 153.522C177.89 113.025 143.513 81.2588 104.482 82.5705C65.4518 83.8822 36.5477 117.775 39.9233 158.272C41.0358 171.619 45.5159 184.018 52.4203 194.596L43.7442 221.212C42.9437 223.667 45.3673 226.319 47.7357 225.578L74.7553 217.127C86.9927 225.222 101.496 229.734 116.706 229.223Z" fill="#00144A"/>
<path d="M179.148 178.607L43.5882 222.308C43.5755 221.946 43.6232 221.577 43.7423 221.212L52.4184 194.596C45.514 184.018 41.0339 171.619 39.9213 158.272C36.5457 117.775 65.4498 83.8822 104.48 82.5705C143.511 81.2588 177.888 113.025 181.263 153.522C181.993 162.28 181.214 170.729 179.148 178.607Z" fill="#005DC9"/>
<path d="M43.5887 222.309L122.253 196.949L114.578 173.142L51.6676 193.423C51.9147 193.817 52.1651 194.208 52.4189 194.597L43.7428 221.212C43.6237 221.577 43.576 221.947 43.5887 222.309Z" fill="#9EDDFF"/>
<path d="M44.3822 178.548L109.559 157.528L92.7616 105.445L46.8077 120.266C41.3596 131.489 38.7738 144.499 39.9218 158.272C40.511 165.34 42.0444 172.142 44.3822 178.548Z" fill="#9EDDFF"/>
<path d="M122.651 223.672C158.881 222.454 185.637 190.102 182.412 151.412C179.187 112.721 147.202 82.3432 110.972 83.5608C74.7417 84.7783 47.9857 117.13 51.2107 155.821C52.2738 168.574 56.4617 180.425 62.8965 190.538L55.0232 215.572C54.2441 218.049 56.6936 220.745 59.039 219.992L83.6801 212.079C95.0585 219.823 108.532 224.146 122.651 223.672Z" fill="#0070F2"/>
<circle cx="86.1798" cy="155.566" r="8.54794" fill="#004DA5"/>
<circle cx="91.0655" cy="143.167" r="8.54794" fill="white"/>
<path fill-rule="evenodd" clip-rule="evenodd" d="M99.6116 142.963C98.0644 145.158 95.5096 146.592 92.6199 146.592C87.9671 146.592 84.1826 142.875 84.0743 138.248C83.0939 139.639 82.5181 141.336 82.5181 143.167C82.5181 147.888 86.3451 151.715 91.066 151.715C95.7869 151.715 99.6139 147.888 99.6139 143.167C99.6139 143.099 99.6131 143.031 99.6116 142.963Z" fill="#D5DADD"/>
<circle cx="117.367" cy="159.196" r="8.54794" fill="#004DA5"/>
<circle cx="148.551" cy="164.114" r="8.54794" fill="#004DA5"/>
<circle cx="122.249" cy="146.796" r="8.54794" fill="white"/>
<circle cx="153.437" cy="151.716" r="8.54794" fill="white"/>
<path fill-rule="evenodd" clip-rule="evenodd" d="M130.797 146.592C129.25 148.787 126.695 150.221 123.805 150.221C119.153 150.221 115.368 146.504 115.26 141.877C114.279 143.268 113.704 144.965 113.704 146.796C113.704 151.517 117.531 155.344 122.252 155.344C126.972 155.344 130.799 151.517 130.799 146.796C130.799 146.728 130.799 146.66 130.797 146.592Z" fill="#D5DADD"/>
<path fill-rule="evenodd" clip-rule="evenodd" d="M161.981 151.512C160.434 153.707 157.879 155.141 154.989 155.141C150.336 155.141 146.552 151.424 146.443 146.797C145.463 148.188 144.887 149.885 144.887 151.716C144.887 156.437 148.714 160.264 153.435 160.264C158.156 160.264 161.983 156.437 161.983 151.716C161.983 151.648 161.982 151.58 161.981 151.512Z" fill="#D5DADD"/>
</svg>
