<svg width="128" height="128" viewBox="0 0 128 128" fill="none" xmlns="http://www.w3.org/2000/svg">
<mask id="mask0_2672_44772" style="mask-type:alpha" maskUnits="userSpaceOnUse" x="0" y="0" width="128" height="128">
<circle cx="64" cy="64" r="64" fill="#EBF8FF"/>
</mask>
<g mask="url(#mask0_2672_44772)">
<path d="M172.703 -20.0596H-42.7929C-44.1975 -20.0609 -45.5887 -19.7729 -46.8868 -19.2121C-48.1849 -18.6512 -49.3645 -17.8284 -50.3582 -16.7908C-51.3519 -15.7532 -52.1402 -14.5211 -52.678 -13.1649C-53.2158 -11.8087 -53.4927 -10.355 -53.4927 -8.88688V123.504C-53.4927 126.47 -52.3654 129.314 -50.3588 131.411C-48.3522 133.509 -45.6307 134.687 -42.7929 134.687H172.703C175.541 134.687 178.262 133.509 180.269 131.411C182.276 129.314 183.403 126.47 183.403 123.504V-8.88688C183.403 -10.355 183.126 -11.8087 182.588 -13.1649C182.05 -14.5211 181.262 -15.7532 180.268 -16.7908C179.275 -17.8284 178.095 -18.6512 176.797 -19.2121C175.499 -19.7729 174.108 -20.0609 172.703 -20.0596Z" fill="#EBF8FF"/>
<path d="M-3.67846 -6.27226C-3.91799 -6.0297 -4.08771 -5.72704 -4.16976 -5.39615C-4.25181 -5.06525 -4.24315 -4.71836 -4.14469 -4.39196L-2.00527 3.43241C-1.65206 4.72664 -0.392589 5.1307 0.621775 4.85361C1.04103 4.75535 1.41706 4.52364 1.69335 4.19332C1.96965 3.863 2.13126 3.45192 2.15391 3.02186C2.15866 2.81375 2.13189 2.60611 2.07453 2.406L-0.0648766 -5.41836C-0.151688 -5.76356 -0.330199 -6.07887 -0.581515 -6.33093C-0.832832 -6.58299 -1.14761 -6.76241 -1.49253 -6.85022C-1.87595 -6.948 -2.27799 -6.94624 -2.66054 -6.8451C-3.04308 -6.74395 -3.39346 -6.54678 -3.67846 -6.27226Z" fill="#A9B4BE"/>
<path fill-rule="evenodd" clip-rule="evenodd" d="M137.767 -3.97386C139.313 -1.81224 137.444 2.1731 133.593 4.92764C131.008 6.77626 128.186 7.60073 126.143 7.28968C126.044 8.83045 125.861 10.4564 125.617 12.1369C124.274 21.3659 121.979 31.7949 115.304 30.1637C107.559 28.2678 108.698 20.7649 109.981 12.3165C110.084 11.6392 110.187 10.9558 110.288 10.2688C111.637 1.01174 114.015 -6.41806 120.421 -5.54848C123.153 -5.18246 124.753 -3.41252 125.559 -0.720812C126.24 -1.4907 127.058 -2.23175 127.993 -2.9003C131.845 -5.65484 136.221 -6.13549 137.767 -3.97386Z" fill="#9EDDFF"/>
<path d="M137.249 24.9663C135.992 29.9253 132.554 33.3094 129.558 32.5789C122.238 30.7934 124.736 27.1308 126.419 22.2226C128.103 17.3145 131.104 13.9174 134.11 14.61C139.624 15.8747 138.512 19.9803 137.249 24.9663Z" fill="#9EDDFF"/>
<path d="M104.36 30.7499L134.966 38.5039C136.653 38.9314 137.677 40.6508 137.25 42.3385L133.325 57.832C132.223 62.1817 127.794 64.8197 123.445 63.7177L102.496 58.4105C98.1467 57.3085 95.5087 52.8803 96.6107 48.5305L100.536 33.037C100.963 31.3494 102.683 30.3251 104.371 30.7527L104.36 30.7499Z" fill="#D1EFFF"/>
<path d="M138.009 39.3214L101.289 30.0186L100.078 34.7983L136.798 44.1012L138.009 39.3214Z" fill="#B8E6FF"/>
<path d="M139.408 32.7934L103.178 23.6147C101.975 23.31 100.753 24.0379 100.449 25.2406L99.3109 29.7318C99.0063 30.9345 99.7342 32.1564 100.937 32.4611L137.166 41.6398C138.369 41.9445 139.591 41.2165 139.896 40.0139L141.033 35.5226C141.338 34.32 140.61 33.098 139.408 32.7934Z" fill="#D1EFFF"/>
<path fill-rule="evenodd" clip-rule="evenodd" d="M-0.641407 29.3485C-1.46567 29.5029 -1.99651 30.3113 -1.81055 31.129L0.321313 40.5034L79.0845 25.7499L77.117 16.2581C76.9535 15.4696 76.189 14.957 75.3975 15.1053L-0.641407 29.3485ZM79.0845 25.7501L0.321288 40.5036L11.4614 89.8063C11.5128 90.0423 11.6545 90.2488 11.8563 90.3816C12.0581 90.5144 12.3038 90.5628 12.5409 90.5165L89.3191 76.1348C89.4421 76.1119 89.559 76.0644 89.6632 75.9952C89.7673 75.926 89.8565 75.8365 89.9253 75.7321C89.9941 75.6277 90.0411 75.5105 90.0636 75.3875C90.0861 75.2645 90.0835 75.1382 90.0561 75.0163L79.0845 25.7501Z" fill="#9EDDFF"/>
<path d="M2.93506 35.6543L81.6983 20.9008L92.6698 70.167C92.6973 70.289 92.6998 70.4152 92.6774 70.5382C92.6549 70.6612 92.6078 70.7784 92.539 70.8829C92.4702 70.9873 92.3811 71.0767 92.277 71.1459C92.1728 71.2151 92.0558 71.2626 91.9329 71.2855L15.1547 85.6672C14.9176 85.7135 14.6718 85.6651 14.4701 85.5323C14.2683 85.3995 14.1265 85.193 14.0752 84.957L2.93506 35.6543Z" fill="#B8E6FF"/>
<path d="M14.511 45.9443C14.3268 45.1273 14.8576 44.3207 15.6808 44.1665L73.4251 33.3501C74.2068 33.2037 74.9642 33.702 75.1391 34.4779L82.2216 65.8934C82.4057 66.7104 81.875 67.517 81.0518 67.6712L23.3075 78.4876C22.5258 78.634 21.7684 78.1356 21.5935 77.3598L14.511 45.9443Z" fill="#EBF8FF"/>
<path d="M15.211 40.6411L38.3261 36.3113C38.4886 36.282 38.6434 36.2199 38.7812 36.1289C38.9189 36.0378 39.0368 35.9197 39.1275 35.7817C39.2182 35.6437 39.2798 35.4887 39.3088 35.3261C39.3377 35.1636 39.3332 34.9968 39.2957 34.836C39.2156 34.5017 39.01 34.2111 38.7215 34.0243C38.433 33.8375 38.0837 33.7688 37.746 33.8325L14.6375 38.161C14.475 38.1904 14.3202 38.2525 14.1825 38.3435C14.0447 38.4346 13.9269 38.5527 13.8362 38.6907C13.7455 38.8287 13.6838 38.9837 13.6549 39.1463C13.6259 39.3088 13.6304 39.4756 13.6679 39.6364C13.7477 39.9696 13.9522 40.2594 14.2393 40.4463C14.5263 40.6332 14.8741 40.7029 15.211 40.6411Z" fill="#EBF8FF"/>
<path d="M0.803017 26.28C0.617056 25.4623 1.1479 24.6538 1.97216 24.4994L78.0111 10.2562C78.8026 10.108 79.5671 10.6206 79.7305 11.409L81.6981 20.9009L2.93488 35.6544L0.803017 26.28Z" fill="#D1EFFF"/>
<path d="M18.8538 27.736L18.7814 27.7496C18.4587 27.8085 18.1256 27.7404 17.8518 27.5594C17.5781 27.3785 17.3849 27.0987 17.3127 26.7786L17.0276 25.511C16.829 25.7504 16.6887 26.0325 16.6178 26.3353C16.547 26.6381 16.5474 26.9532 16.6191 27.2558C16.7378 27.7975 17.0595 28.2732 17.5181 28.5849C17.9766 28.8967 18.5373 29.021 19.0846 28.9321C19.3482 28.8785 19.5982 28.7724 19.82 28.6203C20.0418 28.4682 20.2307 28.273 20.3756 28.0465C20.5205 27.8199 20.6185 27.5665 20.6636 27.3014C20.7087 27.0362 20.7 26.7647 20.6382 26.503C20.567 26.1926 20.429 25.9014 20.2337 25.6499C20.0384 25.3983 19.7905 25.1924 19.5075 25.0465L19.7926 26.3141C19.8281 26.4694 19.8318 26.6302 19.8034 26.7869C19.775 26.9437 19.7151 27.093 19.6274 27.2259C19.5396 27.3588 19.4258 27.4726 19.2928 27.5603C19.1598 27.6479 19.0105 27.7077 18.8538 27.736Z" fill="#9EDDFF"/>
<path d="M62.4874 19.5012L62.415 19.5147C62.0937 19.5702 61.7633 19.5014 61.4908 19.3223C61.2183 19.1432 61.0241 18.8673 60.9475 18.5503L60.6837 17.3604C60.4902 17.5981 60.3536 17.8768 60.2844 18.1754C60.2153 18.474 60.2153 18.7845 60.2847 19.083C60.4019 19.6255 60.7233 20.1022 61.1823 20.4142C61.6413 20.7263 62.2027 20.8498 62.7503 20.7593C63.0174 20.7095 63.2717 20.6061 63.4977 20.4552C63.7236 20.3043 63.9167 20.1091 64.065 19.8814C64.2133 19.6537 64.3139 19.3983 64.3606 19.1306C64.4073 18.8629 64.3992 18.5885 64.3368 18.324C64.264 18.0107 64.1237 17.7172 63.9257 17.4637C63.7277 17.2103 63.4768 17.0032 63.1904 16.8569L63.4603 18.0796C63.4965 18.2374 63.4997 18.4009 63.4696 18.56C63.4395 18.719 63.3768 18.8701 63.2854 19.0037C63.1939 19.1372 63.0759 19.2504 62.9385 19.336C62.8012 19.4217 62.6476 19.4779 62.4874 19.5012Z" fill="#9EDDFF"/>
<path d="M17.3125 26.7786C17.3848 27.0987 17.578 27.3785 17.8517 27.5595C18.1254 27.7404 18.4585 27.8086 18.7813 27.7496L18.8536 27.7361C19.0104 27.7078 19.1597 27.648 19.2927 27.5603C19.4256 27.4726 19.5395 27.3589 19.6272 27.2259C19.715 27.093 19.7748 26.9437 19.8032 26.787C19.8316 26.6303 19.828 26.4694 19.7925 26.3141L19.5073 25.0466L18.6784 21.3478L17.8394 17.5964C17.7672 17.2763 17.574 16.9966 17.3003 16.8156C17.0266 16.6346 16.6936 16.5665 16.3708 16.6254L16.3313 16.6328C16.1745 16.6611 16.0251 16.721 15.8922 16.8086C15.7592 16.8963 15.6454 17.01 15.5577 17.143C15.4699 17.2759 15.4101 17.4252 15.3817 17.5819C15.3533 17.7387 15.3569 17.8995 15.3924 18.0548L16.2313 21.8061L17.0603 25.5049L17.3125 26.7786Z" fill="#B8E6FF"/>
<path d="M60.9475 18.5505C61.0216 18.8715 61.2161 19.1518 61.4909 19.3335C61.7656 19.5152 62.0997 19.5844 62.424 19.5268L62.4964 19.5133C62.6534 19.485 62.803 19.425 62.936 19.3368C63.069 19.2486 63.1826 19.1342 63.2698 19.0005C63.357 18.8669 63.4159 18.7168 63.443 18.5595C63.4701 18.4023 63.4648 18.2411 63.4274 18.086L63.1575 16.8632L62.3322 13.1842L61.481 9.36706C61.407 9.0467 61.2124 8.76717 60.9376 8.58657C60.6629 8.40598 60.3291 8.33819 60.0057 8.39732L59.9334 8.41087C59.7769 8.43908 59.6278 8.49886 59.4952 8.58655C59.3626 8.67424 59.2492 8.78801 59.162 8.92093C59.0748 9.05385 59.0155 9.20315 58.9879 9.35971C58.9602 9.51627 58.9647 9.67682 59.0011 9.83158L59.8523 13.6487L60.6837 17.3607L60.9475 18.5505Z" fill="#B8E6FF"/>
<path d="M122.538 69.6076C122.538 90.4193 105.667 107.29 84.8557 107.29C64.044 107.29 47.1729 90.4193 47.1729 69.6076C47.1729 48.796 64.044 31.9248 84.8557 31.9248C105.667 31.9248 122.538 48.796 122.538 69.6076Z" fill="#64EDD2"/>
<path d="M84.8558 66.0573C90.2146 66.0573 94.5588 61.7131 94.5588 56.3543C94.5588 50.9955 90.2146 46.6514 84.8558 46.6514C79.497 46.6514 75.1528 50.9955 75.1528 56.3543C75.1528 61.7131 79.497 66.0573 84.8558 66.0573Z" fill="#00A58A"/>
<path d="M84.8557 69.6152C89.3358 69.6152 93.6324 71.395 96.8003 74.5629C99.9683 77.7308 101.748 82.0274 101.748 86.5075V92.503H67.9634V86.5075C67.9634 82.0274 69.7431 77.7308 72.911 74.5629C76.0789 71.395 80.3756 69.6152 84.8557 69.6152Z" fill="#00A58A"/>
<path d="M50.8679 115.436C63.1127 115.436 73.0391 105.51 73.0391 93.2649C73.0391 81.0201 63.1127 71.0938 50.8679 71.0938C38.6231 71.0938 28.6968 81.0201 28.6968 93.2649C28.6968 105.51 38.6231 115.436 50.8679 115.436Z" fill="#F58B00"/>
<path d="M50.8761 81.1919H50.868C49.2134 81.1919 47.8721 82.5332 47.8721 84.1878V102.343C47.8721 103.997 49.2134 105.339 50.868 105.339H50.8761C52.5307 105.339 53.872 103.997 53.872 102.343V84.1878C53.872 82.5332 52.5307 81.1919 50.8761 81.1919Z" fill="white"/>
<path d="M39.3091 92.922V93.5996C39.3091 95.0693 40.5005 96.2607 41.9703 96.2607H59.7904C61.2602 96.2607 62.4516 95.0693 62.4516 93.5996V92.922C62.4516 91.4523 61.2602 90.2608 59.7904 90.2608H41.9703C40.5005 90.2608 39.3091 91.4523 39.3091 92.922Z" fill="white"/>
</g>
</svg>
