<svg width="128" height="128" viewBox="0 0 128 128" fill="none" xmlns="http://www.w3.org/2000/svg">
<mask id="mask0_2810_46831" style="mask-type:alpha" maskUnits="userSpaceOnUse" x="0" y="0" width="128" height="128">
<circle cx="64" cy="64" r="64" fill="#EBF8FF"/>
</mask>
<g mask="url(#mask0_2810_46831)">
<path d="M172.704 -20.0596H-42.7924C-44.1971 -20.0609 -45.5882 -19.7729 -46.8863 -19.2121C-48.1844 -18.6512 -49.364 -17.8284 -50.3577 -16.7908C-51.3514 -15.7532 -52.1397 -14.5211 -52.6775 -13.1649C-53.2154 -11.8087 -53.4922 -10.355 -53.4922 -8.88688V123.504C-53.4922 126.47 -52.3649 129.314 -50.3583 131.411C-48.3517 133.509 -45.6302 134.687 -42.7924 134.687H172.704C175.541 134.687 178.263 133.509 180.269 131.411C182.276 129.314 183.403 126.47 183.403 123.504V-8.88688C183.403 -10.355 183.126 -11.8087 182.589 -13.1649C182.051 -14.5211 181.263 -15.7532 180.269 -16.7908C179.275 -17.8284 178.096 -18.6512 176.797 -19.2121C175.499 -19.7729 174.108 -20.0609 172.704 -20.0596Z" fill="#223548"/>
<path d="M-3.67944 -6.27226C-3.91897 -6.0297 -4.08869 -5.72704 -4.17073 -5.39615C-4.25278 -5.06525 -4.24412 -4.71836 -4.14567 -4.39196L-2.00625 3.43241C-1.65304 4.72664 -0.393565 5.1307 0.620798 4.85361C1.04006 4.75535 1.41609 4.52364 1.69238 4.19332C1.96867 3.863 2.13029 3.45192 2.15293 3.02186C2.15768 2.81375 2.13092 2.60611 2.07356 2.406L-0.0658532 -5.41836C-0.152665 -5.76356 -0.331176 -6.07887 -0.582492 -6.33093C-0.833808 -6.58299 -1.14859 -6.76241 -1.49351 -6.85022C-1.87693 -6.948 -2.27897 -6.94624 -2.66151 -6.8451C-3.04406 -6.74395 -3.39444 -6.54678 -3.67944 -6.27226Z" fill="white"/>
<path fill-rule="evenodd" clip-rule="evenodd" d="M137.767 -3.97386C139.313 -1.81224 137.444 2.1731 133.593 4.92764C131.008 6.77626 128.186 7.60073 126.143 7.28968C126.044 8.83045 125.861 10.4564 125.617 12.1369C124.274 21.3659 121.979 31.7949 115.304 30.1637C107.559 28.2678 108.698 20.7649 109.981 12.3165C110.084 11.6392 110.187 10.9558 110.288 10.2688C111.637 1.01174 114.015 -6.41806 120.421 -5.54848C123.153 -5.18246 124.753 -3.41252 125.559 -0.720812C126.24 -1.4907 127.058 -2.23175 127.993 -2.9003C131.845 -5.65484 136.221 -6.13549 137.767 -3.97386Z" fill="#3B5B7C"/>
<path d="M137.249 24.9663C135.992 29.9253 132.554 33.3094 129.558 32.5789C122.238 30.7934 124.736 27.1308 126.419 22.2226C128.103 17.3145 131.104 13.9174 134.11 14.61C139.624 15.8747 138.512 19.9803 137.249 24.9663Z" fill="#3B5B7C"/>
<path d="M104.359 30.7499L134.965 38.5039C136.653 38.9314 137.677 40.6508 137.249 42.3385L133.324 57.832C132.222 62.1817 127.794 64.8197 123.444 63.7177L102.496 58.4105C98.1462 57.3085 95.5082 52.8803 96.6102 48.5305L100.535 33.037C100.963 31.3494 102.682 30.3251 104.37 30.7527L104.359 30.7499Z" fill="#2A4259"/>
<path d="M138.009 39.3214L101.289 30.0186L100.078 34.7983L136.798 44.1012L138.009 39.3214Z" fill="#324E6B"/>
<path d="M139.407 32.7934L103.178 23.6147C101.975 23.31 100.753 24.0379 100.448 25.2406L99.3105 29.7318C99.0058 30.9345 99.7337 32.1564 100.936 32.4611L137.166 41.6398C138.369 41.9445 139.59 41.2165 139.895 40.0139L141.033 35.5226C141.338 34.32 140.61 33.098 139.407 32.7934Z" fill="#2A4259"/>
<path fill-rule="evenodd" clip-rule="evenodd" d="M-0.641896 29.3485C-1.46616 29.5029 -1.997 30.3113 -1.81104 31.129L0.320825 40.5034L79.0841 25.7499L77.1165 16.2581C76.953 15.4696 76.1885 14.957 75.397 15.1053L-0.641896 29.3485ZM79.084 25.7501L0.320799 40.5036L11.4609 89.8063C11.5123 90.0423 11.654 90.2488 11.8558 90.3816C12.0576 90.5144 12.3034 90.5628 12.5404 90.5165L89.3187 76.1348C89.4416 76.1119 89.5586 76.0644 89.6627 75.9952C89.7668 75.926 89.856 75.8365 89.9248 75.7321C89.9936 75.6277 90.0406 75.5105 90.0631 75.3875C90.0856 75.2645 90.083 75.1382 90.0556 75.0163L79.084 25.7501Z" fill="#3B5B7C"/>
<path d="M2.93457 35.6543L81.6978 20.9008L92.6693 70.167C92.6968 70.289 92.6993 70.4152 92.6769 70.5382C92.6544 70.6612 92.6073 70.7784 92.5385 70.8829C92.4698 70.9873 92.3806 71.0767 92.2765 71.1459C92.1723 71.2151 92.0553 71.2626 91.9324 71.2855L15.1542 85.6672C14.9171 85.7135 14.6713 85.6651 14.4696 85.5323C14.2678 85.3995 14.126 85.193 14.0747 84.957L2.93457 35.6543Z" fill="#324E6B"/>
<path d="M14.51 45.9443C14.3258 45.1273 14.8566 44.3207 15.6798 44.1665L73.4241 33.3501C74.2058 33.2037 74.9632 33.702 75.1381 34.4779L82.2206 65.8934C82.4048 66.7104 81.874 67.517 81.0508 67.6712L23.3065 78.4876C22.5248 78.634 21.7674 78.1356 21.5925 77.3598L14.51 45.9443Z" fill="#223548"/>
<path d="M15.211 40.6411L38.3261 36.3113C38.4886 36.282 38.6434 36.2199 38.7812 36.1289C38.9189 36.0378 39.0368 35.9197 39.1275 35.7817C39.2182 35.6437 39.2798 35.4887 39.3088 35.3261C39.3377 35.1636 39.3332 34.9968 39.2957 34.836C39.2156 34.5017 39.01 34.2111 38.7215 34.0243C38.433 33.8375 38.0837 33.7688 37.746 33.8325L14.6375 38.161C14.475 38.1904 14.3202 38.2525 14.1825 38.3435C14.0447 38.4346 13.9269 38.5527 13.8362 38.6907C13.7455 38.8287 13.6838 38.9837 13.6549 39.1463C13.6259 39.3088 13.6304 39.4756 13.6679 39.6364C13.7477 39.9696 13.9522 40.2594 14.2393 40.4463C14.5263 40.6332 14.8741 40.7029 15.211 40.6411Z" fill="#223548"/>
<path d="M0.802529 26.28C0.616568 25.4623 1.14741 24.6538 1.97167 24.4994L78.0106 10.2562C78.8021 10.108 79.5666 10.6206 79.73 11.409L81.6976 20.9009L2.93439 35.6544L0.802529 26.28Z" fill="#2A4259"/>
<path d="M18.8533 27.736L18.781 27.7496C18.4582 27.8085 18.1251 27.7404 17.8513 27.5594C17.5776 27.3785 17.3845 27.0987 17.3122 26.7786L17.0271 25.511C16.8285 25.7504 16.6883 26.0325 16.6174 26.3353C16.5465 26.6381 16.5469 26.9532 16.6186 27.2558C16.7373 27.7975 17.059 28.2732 17.5176 28.5849C17.9762 28.8967 18.5368 29.021 19.0842 28.9321C19.3477 28.8785 19.5977 28.7724 19.8195 28.6203C20.0413 28.4682 20.2302 28.273 20.3751 28.0465C20.52 27.8199 20.618 27.5665 20.6631 27.3014C20.7082 27.0362 20.6995 26.7647 20.6377 26.503C20.5665 26.1926 20.4285 25.9014 20.2332 25.6499C20.0379 25.3983 19.7901 25.1924 19.507 25.0465L19.7921 26.3141C19.8276 26.4694 19.8313 26.6302 19.8029 26.7869C19.7745 26.9437 19.7146 27.093 19.6269 27.2259C19.5391 27.3588 19.4253 27.4726 19.2923 27.5603C19.1593 27.6479 19.01 27.7077 18.8533 27.736Z" fill="#3B5B7C"/>
<path d="M62.4874 19.5012L62.415 19.5147C62.0937 19.5702 61.7633 19.5014 61.4908 19.3223C61.2183 19.1432 61.0241 18.8673 60.9475 18.5503L60.6837 17.3604C60.4902 17.5981 60.3536 17.8768 60.2844 18.1754C60.2153 18.474 60.2153 18.7845 60.2847 19.083C60.4019 19.6255 60.7233 20.1022 61.1823 20.4142C61.6413 20.7263 62.2027 20.8498 62.7503 20.7593C63.0174 20.7095 63.2717 20.6061 63.4977 20.4552C63.7236 20.3043 63.9167 20.1091 64.065 19.8814C64.2133 19.6537 64.3139 19.3983 64.3606 19.1306C64.4073 18.8629 64.3992 18.5885 64.3368 18.324C64.264 18.0107 64.1237 17.7172 63.9257 17.4637C63.7277 17.2103 63.4768 17.0032 63.1904 16.8569L63.4603 18.0796C63.4965 18.2374 63.4997 18.4009 63.4696 18.56C63.4395 18.719 63.3768 18.8701 63.2854 19.0037C63.1939 19.1372 63.0759 19.2504 62.9385 19.336C62.8012 19.4217 62.6476 19.4779 62.4874 19.5012Z" fill="#3B5B7C"/>
<path d="M17.3116 26.7786C17.3838 27.0987 17.577 27.3785 17.8507 27.5595C18.1244 27.7404 18.4575 27.8086 18.7803 27.7496L18.8527 27.7361C19.0094 27.7078 19.1587 27.648 19.2917 27.5603C19.4246 27.4726 19.5385 27.3589 19.6263 27.2259C19.714 27.093 19.7739 26.9437 19.8023 26.787C19.8307 26.6303 19.827 26.4694 19.7915 26.3141L19.5064 25.0466L18.6774 21.3478L17.8385 17.5964C17.7662 17.2763 17.573 16.9966 17.2993 16.8156C17.0256 16.6346 16.6926 16.5665 16.3698 16.6254L16.3303 16.6328C16.1736 16.6611 16.0242 16.721 15.8912 16.8086C15.7582 16.8963 15.6445 17.01 15.5567 17.143C15.4689 17.2759 15.4091 17.4252 15.3807 17.5819C15.3523 17.7387 15.3559 17.8995 15.3915 18.0548L16.2304 21.8061L17.0593 25.5049L17.3116 26.7786Z" fill="#324E6B"/>
<path d="M60.9475 18.5505C61.0216 18.8715 61.2161 19.1518 61.4909 19.3335C61.7656 19.5152 62.0997 19.5844 62.424 19.5268L62.4964 19.5133C62.6534 19.485 62.803 19.425 62.936 19.3368C63.069 19.2486 63.1826 19.1342 63.2698 19.0005C63.357 18.8669 63.4159 18.7168 63.443 18.5595C63.4701 18.4023 63.4648 18.2411 63.4274 18.086L63.1575 16.8632L62.3322 13.1842L61.481 9.36706C61.407 9.0467 61.2124 8.76717 60.9376 8.58657C60.6629 8.40598 60.3291 8.33819 60.0057 8.39732L59.9334 8.41087C59.7769 8.43908 59.6278 8.49886 59.4952 8.58655C59.3626 8.67424 59.2492 8.78801 59.162 8.92093C59.0748 9.05385 59.0155 9.20315 58.9879 9.35971C58.9602 9.51627 58.9647 9.67682 59.0011 9.83158L59.8523 13.6487L60.6837 17.3607L60.9475 18.5505Z" fill="#324E6B"/>
<path d="M122.538 69.6076C122.538 90.4193 105.667 107.29 84.8557 107.29C64.044 107.29 47.1729 90.4193 47.1729 69.6076C47.1729 48.796 64.044 31.9248 84.8557 31.9248C105.667 31.9248 122.538 48.796 122.538 69.6076Z" fill="#64EDD2"/>
<path d="M84.8553 66.0573C90.2141 66.0573 94.5583 61.7131 94.5583 56.3543C94.5583 50.9955 90.2141 46.6514 84.8553 46.6514C79.4965 46.6514 75.1523 50.9955 75.1523 56.3543C75.1523 61.7131 79.4965 66.0573 84.8553 66.0573Z" fill="#00A58A"/>
<path d="M84.8552 69.6152C89.3353 69.6152 93.6319 71.395 96.7998 74.5629C99.9678 77.7308 101.747 82.0274 101.747 86.5075V92.503H67.9629V86.5075C67.9629 82.0274 69.7426 77.7308 72.9105 74.5629C76.0785 71.395 80.3751 69.6152 84.8552 69.6152Z" fill="#00A58A"/>
<path d="M50.8684 115.436C63.1132 115.436 73.0395 105.51 73.0395 93.2649C73.0395 81.0201 63.1132 71.0938 50.8684 71.0938C38.6236 71.0938 28.6973 81.0201 28.6973 93.2649C28.6973 105.51 38.6236 115.436 50.8684 115.436Z" fill="#F58B00"/>
<path d="M50.8761 81.1919H50.868C49.2134 81.1919 47.8721 82.5332 47.8721 84.1878V102.343C47.8721 103.997 49.2134 105.339 50.868 105.339H50.8761C52.5307 105.339 53.872 103.997 53.872 102.343V84.1878C53.872 82.5332 52.5307 81.1919 50.8761 81.1919Z" fill="#CEDBE8"/>
<path d="M39.3096 92.922V93.5996C39.3096 95.0693 40.501 96.2607 41.9708 96.2607H59.7909C61.2607 96.2607 62.4521 95.0693 62.4521 93.5996V92.922C62.4521 91.4523 61.2607 90.2608 59.7909 90.2608H41.9708C40.501 90.2608 39.3096 91.4523 39.3096 92.922Z" fill="#CEDBE8"/>
</g>
</svg>
