<svg width="45" height="45" viewBox="0 0 45 45" fill="none" xmlns="http://www.w3.org/2000/svg">
<path d="M16.8301 8.06945C15.8613 8.54542 3.6595 18.4404 3.6595 18.4404C3.07978 19.0003 2.94242 19.8753 3.55906 20.4092L25.1307 38.2778C25.1921 38.3307 25.2563 38.3835 25.3205 38.4308C25.7882 38.7777 26.2588 38.9628 26.7966 38.9984C27.1108 39.0193 27.422 38.9482 27.724 38.8589L29.689 38.2778L19.0142 7.94584C19.0142 7.94584 17.7989 7.59349 16.8301 8.06945Z" fill="#1B90FF"/>
<path d="M29.3393 35.3036L26.9202 34.1885L5.15095 16.3242L5.14258 17.748C5.14258 18.2819 5.37417 18.7908 5.78154 19.1384L26.9174 37.1306L27.4978 37.6256C28.12 38.1568 28.918 38.3709 29.6853 38.2736V36.2268L29.3365 35.3036H29.3393Z" fill="#00144A"/>
<path d="M31.3879 34.8649L29.6914 36.2303V38.277C30.2243 38.2102 30.7433 37.9933 31.1758 37.6207L31.3906 37.4372L42.3757 27.9962C42.7831 27.6458 43.0175 27.1369 43.0147 26.6029V25.5156L31.3879 34.8677V34.8649Z" fill="#0899A7"/>
<path d="M32.1232 35.8464C30.8173 36.9616 28.6605 36.9616 27.3379 35.8464L5.87002 17.7375C4.77346 16.8114 4.94924 15.3237 6.2439 14.4199L16.2859 7.42048C17.4773 6.58901 19.33 6.58901 20.4377 7.42048L41.9447 23.594C43.2645 24.5867 43.3873 26.2191 42.1958 27.2369L32.126 35.8464H32.1232Z" fill="#046C7C"/>
<path d="M17.0114 8.28056L14.7936 9.83446L15.9415 10.7293C16.2157 10.9436 16.1942 11.2892 15.8904 11.5062L11.8931 14.3407C11.5786 14.5631 11.1028 14.5631 10.8286 14.3407L9.6835 13.4111L7.33675 15.0534C6.37709 15.7258 6.25075 16.8243 7.06525 17.5075L27.7505 34.8816C28.729 35.7041 30.3176 35.7041 31.2854 34.8816L40.9896 26.6218C41.874 25.869 41.7879 24.6634 40.8121 23.9266L20.0893 8.28056C19.2694 7.66169 17.8958 7.66169 17.0114 8.28056Z" fill="white"/>
<path d="M25.9263 18.9959C26.1985 19.2064 26.6474 19.2064 26.9224 18.9959L26.928 19.0015C27.2029 18.7911 27.2029 18.4477 26.9308 18.2401L24.1868 16.1331H25.455C25.8366 16.1331 26.1536 15.895 26.1564 15.6043C26.1564 15.3163 25.8478 15.0782 25.4662 15.0782H22.5203C22.3435 15.0755 22.1639 15.1253 22.0265 15.2277C21.889 15.3302 21.8245 15.452 21.816 15.5766L21.7599 17.8497C21.7515 18.1432 22.0629 18.3868 22.4501 18.3868C22.8345 18.3868 23.1572 18.1432 23.1628 17.8497L23.1824 16.8779L25.9263 18.9959Z" fill="#046C7C"/>
<path d="M23.4552 25.5462L28.8785 21.3406C30.3038 20.2358 30.2645 18.4999 28.814 17.3979C28.5418 17.1903 28.0957 17.1903 27.8236 17.3979C27.5514 17.6056 27.5486 17.9461 27.8236 18.1566C28.7186 18.8404 28.7466 19.8953 27.8769 20.5653L22.4563 24.7461C21.8082 25.2472 20.7449 25.2306 20.0968 24.7128C19.4487 24.1951 19.4599 23.3672 20.108 22.8744L20.5288 22.556C20.8122 22.3401 20.8234 21.9884 20.5513 21.7725C19.5637 20.9889 19.401 19.8316 20.1501 19.0148C20.383 18.7657 20.3044 18.4334 19.993 18.2673C19.6759 18.0956 19.2382 18.1621 19.0138 18.4057C17.9953 19.5104 18.0374 21.0055 19.0727 22.1407C17.9027 23.0627 17.8579 24.5495 19.0531 25.5158C20.2483 26.482 22.2403 26.4959 23.4636 25.549L23.4552 25.5462Z" fill="#046C7C"/>
</svg>
