<svg width="45" height="33" viewBox="0 0 45 33" fill="none" xmlns="http://www.w3.org/2000/svg">
<path d="M44.602 23.163C43.7519 22.3579 40.5295 19.3087 36.7705 15.7395C36.767 15.736 36.7634 15.7325 36.7598 15.729C36.2042 15.0926 35.6402 14.447 35.0739 13.799C35.0691 13.7931 35.0644 13.7873 35.0596 13.7803C33.3831 11.1639 31.7375 8.58703 30.4125 6.49528C30.3591 6.41035 30.3056 6.32659 30.2534 6.24399C30.2522 6.24166 30.251 6.23934 30.2498 6.23701C30.2012 6.16023 30.1537 6.08461 30.105 6.00899C30.0979 5.99735 30.0907 5.98572 30.0836 5.97409C30.0373 5.9008 29.9922 5.82867 29.9471 5.7577C29.9435 5.75305 29.94 5.74723 29.9376 5.74258C29.8937 5.67161 29.8485 5.60181 29.8058 5.53317C29.7975 5.52037 29.7904 5.50874 29.782 5.49594C29.7417 5.43312 29.7025 5.3703 29.6633 5.30747C29.655 5.29351 29.6467 5.28072 29.6372 5.26676C29.598 5.20393 29.5588 5.14344 29.5208 5.08178C29.5125 5.06782 29.5042 5.05502 29.4947 5.04106C29.4555 4.97824 29.4164 4.91658 29.3784 4.85608C29.3724 4.84561 29.3653 4.83631 29.3594 4.82584C29.3285 4.77581 29.2976 4.72695 29.2668 4.67809C29.2406 4.63504 29.2133 4.59316 29.1872 4.55128C29.1575 4.50358 29.1278 4.45588 29.0982 4.41051C29.091 4.40004 29.0851 4.38957 29.078 4.3791C29.0424 4.32209 29.0079 4.26625 28.9723 4.21157C28.9604 4.19296 28.9486 4.17434 28.9379 4.15573C28.9129 4.11618 28.888 4.07662 28.8643 4.03707C28.8441 4.00449 28.8239 3.97192 28.8037 3.94051C28.7847 3.91026 28.7657 3.87885 28.7467 3.8486C28.7313 3.82417 28.7158 3.79857 28.7004 3.77414C28.679 3.73924 28.6577 3.70434 28.6363 3.6706C28.6197 3.64385 28.6031 3.61709 28.5864 3.59149C28.5698 3.56474 28.5532 3.53681 28.5366 3.51122C28.5188 3.48214 28.4998 3.45189 28.4819 3.42397C28.4665 3.39954 28.4511 3.37511 28.4368 3.35067C28.4178 3.32043 28.3988 3.28902 28.381 3.25993C28.3692 3.24015 28.3573 3.22154 28.3454 3.20293C28.3264 3.17268 28.3074 3.14243 28.2896 3.11218C28.2754 3.08891 28.2623 3.06681 28.248 3.04471C28.2326 3.02028 28.2172 2.99584 28.2029 2.97141C28.1887 2.94815 28.1744 2.92488 28.1602 2.90161C28.1459 2.87834 28.1317 2.85508 28.1174 2.83181C28.1068 2.81319 28.0961 2.79574 28.0854 2.77829C28.07 2.75154 28.0533 2.72594 28.0379 2.70035C28.0355 2.69569 28.0331 2.6922 28.0296 2.68755C27.9655 2.58285 27.9073 2.48629 27.855 2.39787C27.8491 2.38856 27.8432 2.37809 27.8372 2.36762C27.8254 2.34784 27.8147 2.32923 27.8028 2.30945C27.7945 2.29549 27.7862 2.28037 27.7779 2.26757C27.7684 2.25128 27.7589 2.235 27.7494 2.21987C27.7411 2.20591 27.7328 2.19195 27.7256 2.17915C27.7161 2.16287 27.7078 2.14891 27.6995 2.13378C27.6924 2.12215 27.6853 2.11051 27.6793 2.09888C27.671 2.08492 27.6639 2.07212 27.6568 2.05933C27.6496 2.04769 27.6437 2.03606 27.6378 2.02559C27.6306 2.01395 27.6247 2.00232 27.6176 1.99069C27.6117 1.98022 27.6069 1.97091 27.6021 1.9616C27.5962 1.95113 27.5903 1.94066 27.5855 1.93136C27.5808 1.92205 27.576 1.9139 27.5725 1.90692C27.5677 1.89878 27.563 1.88947 27.5594 1.88249C27.5558 1.87435 27.5523 1.86737 27.5487 1.86039C27.5452 1.85341 27.5416 1.84643 27.5392 1.84061C27.5357 1.83363 27.5333 1.82898 27.5309 1.82316C27.5285 1.81851 27.5262 1.81269 27.5238 1.8092C27.5214 1.80338 27.5202 1.79989 27.519 1.79524C27.519 1.79291 27.5167 1.78942 27.5155 1.7871C27.5143 1.78244 27.5131 1.77895 27.5131 1.77546C27.5131 1.77546 27.5131 1.77546 27.5131 1.7743L25.1183 2.18613C25.0613 2.19544 25.0031 2.1745 24.9675 2.13146C24.5365 1.61957 24.2456 1.26474 24.1269 1.10419C24.0865 1.04952 24.0177 1.02625 23.9524 1.04603L22.0432 1.60677C22.0313 1.59398 22.0194 1.58118 22.0099 1.57071C21.9648 1.52068 21.8936 1.5044 21.8307 1.52883L20.413 2.08492C20.413 2.08492 20.4035 2.08841 20.4 2.08957L12.9508 4.27556C12.9449 4.27789 12.9389 4.27905 12.933 4.28021L1.60254 6.22072C1.49212 6.23934 1.43513 6.36149 1.49331 6.45573L2.00029 7.28056C2.05372 7.36781 2.00979 7.48182 1.90887 7.51091L0.113664 8.03792C0.00443152 8.07049 -0.0359368 8.20079 0.0364888 8.28688L1.03145 9.46538C1.10031 9.54682 1.06826 9.6713 0.967336 9.70969L0.402179 9.93189C0.296509 9.97378 0.268013 10.1076 0.34875 10.1878L7.8822 17.5811C7.8822 17.5811 7.88932 17.5881 7.8917 17.5916L9.53612 19.5391C9.54087 19.5449 9.54562 19.5519 9.55036 19.5577L16.9948 31.6649C17.0292 31.7208 17.0945 31.7499 17.1598 31.7382C17.4364 31.687 18.2319 31.5404 19.3824 31.3287C19.4394 31.3182 19.4988 31.3392 19.5356 31.3822L20.4308 32.4432C20.4724 32.4921 20.5389 32.5119 20.6006 32.4932C20.8369 32.42 21.4721 32.2245 22.3911 31.9418C22.4481 31.9244 22.511 31.9395 22.5525 31.9802C22.5988 32.0256 22.6665 32.0384 22.7259 32.0139C22.9527 31.9209 23.5618 31.6719 24.4392 31.3136C24.4439 31.3113 24.4487 31.3101 24.4534 31.3089C26.4659 30.6923 29.0424 29.9071 31.69 29.109C31.696 29.1067 31.7019 29.1055 31.709 29.1043C32.8263 28.9066 33.9305 28.7134 34.9919 28.5296C35.0988 28.511 35.2057 28.4924 35.3113 28.4749C35.3517 28.468 35.3921 28.461 35.4336 28.454C35.5393 28.4354 35.6438 28.4179 35.7471 28.4005C35.7851 28.3935 35.8231 28.3877 35.861 28.3807C35.9643 28.3633 36.0676 28.3458 36.1697 28.3272C36.2066 28.3214 36.2422 28.3144 36.279 28.3086C36.3953 28.2888 36.5117 28.269 36.628 28.2493C36.6459 28.2458 36.6625 28.2434 36.6803 28.2399C36.786 28.2213 36.8916 28.2039 36.9973 28.1864C37.0305 28.1806 37.0626 28.1748 37.0947 28.1701C37.2146 28.1492 37.3345 28.1294 37.4532 28.1096C37.4544 28.1096 37.4556 28.1096 37.4568 28.1096C37.5708 28.0899 37.6836 28.0713 37.7964 28.0526C37.8296 28.0468 37.8628 28.041 37.8961 28.0364C38.0018 28.0189 38.105 28.0015 38.2083 27.984C38.2309 27.9805 38.2523 27.977 38.2748 27.9724C38.371 27.9561 38.4648 27.941 38.5586 27.9247C38.5918 27.9189 38.6251 27.9142 38.6571 27.9084C38.7521 27.8921 38.8459 27.877 38.9385 27.8618C38.9682 27.8572 38.9979 27.8525 39.0276 27.8467C39.1143 27.8328 39.2009 27.8176 39.2864 27.8037C39.3173 27.799 39.3482 27.7932 39.379 27.7886C39.4752 27.7734 39.569 27.7571 39.6628 27.742C39.6794 27.7397 39.6972 27.7362 39.7138 27.7339C39.8017 27.7199 39.8896 27.706 39.9751 27.692C40.0036 27.6873 40.0332 27.6827 40.0617 27.678C40.152 27.6641 40.241 27.649 40.3277 27.635C40.3431 27.6327 40.3574 27.6303 40.3716 27.628C40.4535 27.6152 40.5331 27.6024 40.6126 27.5896C40.6411 27.585 40.6684 27.5803 40.6969 27.5768C40.7848 27.5629 40.8715 27.5489 40.9558 27.5361C40.9605 27.5361 40.9653 27.5349 40.97 27.5338C41.0519 27.521 41.1327 27.5082 41.2122 27.4965C41.2348 27.4931 41.2573 27.4896 41.2799 27.4861C41.3595 27.4733 41.439 27.4616 41.515 27.45C41.5221 27.45 41.5292 27.4477 41.5352 27.4465C41.6076 27.4361 41.6777 27.4256 41.7477 27.4151C41.7691 27.4116 41.7916 27.4081 41.813 27.4058C41.8866 27.3953 41.959 27.3849 42.0279 27.3744C42.0315 27.3744 42.0338 27.3744 42.0362 27.3732C42.1039 27.3639 42.1704 27.3546 42.2345 27.3453C42.2511 27.343 42.2689 27.3407 42.2855 27.3383C42.3509 27.329 42.4162 27.3197 42.4779 27.3116C42.4803 27.3116 42.4815 27.3116 42.4838 27.3116C42.5432 27.3034 42.6014 27.2953 42.6572 27.2883C42.6726 27.286 42.6869 27.2848 42.7011 27.2825C42.7557 27.2755 42.8092 27.2685 42.859 27.2627C42.8638 27.2627 42.8673 27.2627 42.8721 27.2615C42.9208 27.2557 42.9671 27.2499 43.0122 27.2453C43.0252 27.2441 43.0383 27.2418 43.0502 27.2406C43.0953 27.236 43.1392 27.2301 43.1796 27.2266C43.182 27.2266 43.1843 27.2266 43.1867 27.2266C43.2271 27.222 43.2651 27.2185 43.3007 27.215C43.3102 27.215 43.3197 27.2138 43.3292 27.2127C43.3648 27.2092 43.3992 27.2069 43.4313 27.2045C43.4622 27.2022 43.4895 27.201 43.5156 27.1999C43.5227 27.1999 43.5287 27.1999 43.5346 27.1999C43.5595 27.1999 43.5833 27.1987 43.6035 27.1987C43.6236 27.1987 43.6391 27.1987 43.6545 27.2011C43.6581 27.2011 43.6616 27.2011 43.6652 27.2011C43.6783 27.2022 43.6901 27.2045 43.6984 27.2069C43.6984 27.2069 43.4218 26.7787 42.9409 26.033C42.884 25.9446 42.9303 25.8259 43.0336 25.798C43.8801 25.57 44.5177 25.4106 44.8691 25.3455C44.9902 25.3234 45.0413 25.1826 44.9617 25.0907C44.7516 24.8522 44.3811 24.4299 43.8848 23.8633C43.8112 23.7796 43.8469 23.6493 43.9537 23.6132C44.1947 23.5318 44.3906 23.4689 44.5379 23.4282C44.6554 23.3956 44.6922 23.2491 44.6044 23.1653L44.602 23.163Z" fill="#101619"/>
<path d="M3.29395 7.83875L20.8588 32.2384C20.8588 32.2384 44.024 24.6177 44.7552 24.7773C44.7552 24.7773 26.7246 0.816848 26.7316 0.5L3.29395 7.83875Z" fill="#2A4259"/>
<path d="M3.42188 9.7616L22.9125 31.7464C22.9125 31.7464 43.883 22.7279 44.5932 22.8257C44.5932 22.8257 24.716 1.29524 24.6846 0.991211L3.42188 9.7616Z" fill="#3B5B7C"/>
<path d="M4.84961 5.96905L17.6582 31.4939C17.6582 31.4939 42.5198 26.4605 43.2243 26.6911C43.2243 26.6911 29.8591 1.54483 29.9289 1.2373L4.84961 5.96905Z" fill="#D5DADD"/>
<path d="M28.5193 2.3253C29.0095 2.67943 29.4717 3.07083 29.9176 3.47854C30.4078 3.92702 30.8759 4.39879 31.3311 4.88222C31.6629 5.23634 31.9843 5.59862 32.301 5.96556C30.8794 3.22809 29.9118 1.32118 29.9316 1.2373L27.5215 1.69161C27.8696 1.87682 28.2014 2.09349 28.5205 2.32414L28.5193 2.3253Z" fill="#2A4259"/>
<path d="M39.3399 19.3613C39.121 20.3363 38.8742 21.3055 38.5586 22.2537C38.1371 23.5188 37.5899 24.7547 36.8203 25.8486C36.2416 26.6698 35.5768 27.4316 34.834 28.1084C39.3038 27.2581 42.9609 26.6057 43.2252 26.6919C43.2252 26.6919 41.5241 23.492 39.3399 19.3625V19.3613Z" fill="#2A4259"/>
<path d="M19.0708 8.84897L11.8905 10.1979C11.5784 10.2561 11.228 10.1152 11.1069 9.88338L10.8752 9.4384C10.7541 9.20659 10.909 8.97012 11.221 8.91187L18.4013 7.56294C18.7134 7.50469 19.0638 7.64564 19.1849 7.87746L19.4166 8.32244C19.5377 8.55425 19.3828 8.79072 19.0708 8.84897Z" fill="#101619"/>
<path d="M24.0493 18.4046L16.869 19.7536C16.557 19.8118 16.2065 19.6709 16.0854 19.439L15.8537 18.9941C15.7326 18.7622 15.8875 18.5258 16.1995 18.4675L23.3798 17.1186C23.6919 17.0604 24.0423 17.2013 24.1634 17.4331L24.3951 17.8781C24.5162 18.1099 24.3614 18.3464 24.0493 18.4046Z" fill="#101619"/>
<path d="M15.5029 11.6154L12.6899 12.144C12.4861 12.1824 12.2567 12.0905 12.1776 11.9391L11.7945 11.2033C11.7153 11.0519 11.8166 10.897 12.0204 10.8586L14.8334 10.33C15.0371 10.2916 15.2665 10.3836 15.3457 10.5349L15.7287 11.2708C15.8079 11.4221 15.7066 11.577 15.5029 11.6154Z" fill="#101619"/>
<path d="M16.4999 13.5275L13.6869 14.0561C13.4832 14.0946 13.2538 14.0026 13.1746 13.8512L12.7916 13.1154C12.7124 12.964 12.8137 12.8092 13.0175 12.7707L15.8304 12.2421C16.0342 12.2037 16.2636 12.2957 16.3427 12.447L16.7258 13.1829C16.805 13.3343 16.7037 13.4891 16.4999 13.5275Z" fill="#101619"/>
<path d="M17.495 15.4387L14.6821 15.9673C14.4783 16.0057 14.2489 15.9137 14.1698 15.7623L13.7867 15.0265C13.7075 14.8751 13.8088 14.7203 14.0126 14.6819L16.8256 14.1533C17.0293 14.1148 17.2587 14.2068 17.3379 14.3582L17.7209 15.094C17.8001 15.2454 17.6988 15.4002 17.495 15.4387Z" fill="#101619"/>
<path d="M18.4911 17.3498L15.6782 17.8784C15.4744 17.9168 15.245 17.8248 15.1659 17.6735L14.7828 16.9376C14.7036 16.7863 14.8049 16.6314 15.0087 16.593L17.8217 16.0644C18.0254 16.026 18.2548 16.118 18.334 16.2693L18.717 17.0052C18.7962 17.1565 18.6949 17.3114 18.4911 17.3498Z" fill="#101619"/>
<path d="M29.6226 6.86557L22.4422 8.2145C22.1302 8.27274 21.7797 8.13179 21.6586 7.89998L21.4269 7.455C21.3059 7.22319 21.4607 6.98672 21.7727 6.92847L28.9531 5.57954C29.2651 5.5213 29.6156 5.66225 29.7367 5.89406L29.9684 6.33904C30.0894 6.57085 29.9346 6.80732 29.6226 6.86557Z" fill="#101619"/>
<path d="M34.6001 16.4232L27.4198 17.7721C27.1077 17.8304 26.7573 17.6894 26.6362 17.4576L26.4045 17.0126C26.2834 16.7808 26.4383 16.5443 26.7503 16.4861L33.9306 15.1372C34.2427 15.0789 34.5931 15.2199 34.7142 15.4517L34.9459 15.8967C35.067 16.1285 34.9121 16.3649 34.6001 16.4232Z" fill="#101619"/>
<path d="M26.0556 9.63398L23.2426 10.1626C23.0389 10.201 22.8095 10.109 22.7303 9.95766L22.3473 9.22181C22.2681 9.07045 22.3694 8.9156 22.5731 8.87718L25.3861 8.34858C25.5899 8.31015 25.8192 8.40214 25.8984 8.5535L26.2815 9.28934C26.3606 9.4407 26.2593 9.59556 26.0556 9.63398Z" fill="#101619"/>
<path d="M27.0507 11.5451L24.2377 12.0737C24.034 12.1121 23.8046 12.0202 23.7254 11.8688L23.3424 11.1329C23.2632 10.9816 23.3645 10.8267 23.5682 10.7883L26.3812 10.2597C26.585 10.2213 26.8144 10.3133 26.8935 10.4646L27.2766 11.2005C27.3558 11.3518 27.2545 11.5067 27.0507 11.5451Z" fill="#101619"/>
<path d="M28.0458 13.4562L25.2328 13.9848C25.0291 14.0233 24.7997 13.9313 24.7205 13.7799L24.3375 13.0441C24.2583 12.8927 24.3596 12.7379 24.5634 12.6994L27.3763 12.1708C27.5801 12.1324 27.8095 12.2244 27.8886 12.3758L28.2717 13.1116C28.3509 13.263 28.2496 13.4178 28.0458 13.4562Z" fill="#101619"/>
<path d="M29.0429 15.3684L26.2299 15.897C26.0262 15.9354 25.7968 15.8434 25.7176 15.692L25.3346 14.9562C25.2554 14.8048 25.3567 14.65 25.5604 14.6116L28.3734 14.083C28.5772 14.0445 28.8065 14.1365 28.8857 14.2879L29.2688 15.0237C29.3479 15.1751 29.2467 15.3299 29.0429 15.3684Z" fill="#101619"/>
<path d="M39.4149 29.0742C42.4092 29.0742 44.8365 26.6457 44.8365 23.6499C44.8365 20.6541 42.4092 18.2256 39.4149 18.2256C36.4205 18.2256 33.9932 20.6541 33.9932 23.6499C33.9932 26.6457 36.4205 29.0742 39.4149 29.0742Z" fill="#0899A7"/>
<path d="M39.4172 20.6963H39.4152C39.0106 20.6963 38.6826 21.0244 38.6826 21.4293V25.871C38.6826 26.2758 39.0106 26.6039 39.4152 26.6039H39.4172C39.8218 26.6039 40.1498 26.2758 40.1498 25.871V21.4293C40.1498 21.0244 39.8218 20.6963 39.4172 20.6963Z" fill="#D5DADD"/>
<path d="M36.5879 23.5664V23.7321C36.5879 24.0915 36.8792 24.3828 37.2387 24.3828H41.5964C41.9558 24.3828 42.2471 24.0915 42.2471 23.7321V23.5664C42.2471 23.207 41.9558 22.9156 41.5964 22.9156H37.2387C36.8792 22.9156 36.5879 23.207 36.5879 23.5664Z" fill="#D5DADD"/>
</svg>
