<svg width="45" height="32" viewBox="0 0 45 32" fill="none" xmlns="http://www.w3.org/2000/svg">
<path d="M44.602 22.663C43.7519 21.8579 40.5295 18.8087 36.7705 15.2395C36.767 15.236 36.7634 15.2325 36.7598 15.229C36.2042 14.5926 35.6402 13.947 35.0739 13.299C35.0691 13.2931 35.0644 13.2873 35.0596 13.2803C33.3831 10.6639 31.7375 8.08703 30.4125 5.99528C30.3591 5.91035 30.3056 5.82659 30.2534 5.74399C30.2522 5.74166 30.251 5.73934 30.2498 5.73701C30.2012 5.66023 30.1537 5.58461 30.105 5.50899C30.0979 5.49735 30.0907 5.48572 30.0836 5.47409C30.0373 5.4008 29.9922 5.32867 29.9471 5.2577C29.9435 5.25305 29.94 5.24723 29.9376 5.24258C29.8937 5.17161 29.8485 5.10181 29.8058 5.03317C29.7975 5.02037 29.7904 5.00874 29.782 4.99594C29.7417 4.93312 29.7025 4.8703 29.6633 4.80747C29.655 4.79351 29.6467 4.78072 29.6372 4.76676C29.598 4.70393 29.5588 4.64344 29.5208 4.58178C29.5125 4.56782 29.5042 4.55502 29.4947 4.54106C29.4555 4.47824 29.4164 4.41658 29.3784 4.35608C29.3724 4.34561 29.3653 4.33631 29.3594 4.32584C29.3285 4.27581 29.2976 4.22695 29.2668 4.17809C29.2406 4.13504 29.2133 4.09316 29.1872 4.05128C29.1575 4.00358 29.1278 3.95588 29.0982 3.91051C29.091 3.90004 29.0851 3.88957 29.078 3.8791C29.0424 3.82209 29.0079 3.76625 28.9723 3.71157C28.9604 3.69296 28.9486 3.67434 28.9379 3.65573C28.9129 3.61618 28.888 3.57662 28.8643 3.53707C28.8441 3.50449 28.8239 3.47192 28.8037 3.44051C28.7847 3.41026 28.7657 3.37885 28.7467 3.3486C28.7313 3.32417 28.7158 3.29857 28.7004 3.27414C28.679 3.23924 28.6577 3.20434 28.6363 3.1706C28.6197 3.14385 28.6031 3.11709 28.5864 3.09149C28.5698 3.06474 28.5532 3.03681 28.5366 3.01122C28.5188 2.98214 28.4998 2.95189 28.4819 2.92397C28.4665 2.89954 28.4511 2.87511 28.4368 2.85067C28.4178 2.82043 28.3988 2.78902 28.381 2.75993C28.3692 2.74015 28.3573 2.72154 28.3454 2.70293C28.3264 2.67268 28.3074 2.64243 28.2896 2.61218C28.2754 2.58891 28.2623 2.56681 28.248 2.54471C28.2326 2.52028 28.2172 2.49584 28.2029 2.47141C28.1887 2.44815 28.1744 2.42488 28.1602 2.40161C28.1459 2.37834 28.1317 2.35508 28.1174 2.33181C28.1068 2.31319 28.0961 2.29574 28.0854 2.27829C28.07 2.25154 28.0533 2.22594 28.0379 2.20035C28.0355 2.19569 28.0331 2.1922 28.0296 2.18755C27.9655 2.08285 27.9073 1.98629 27.855 1.89787C27.8491 1.88856 27.8432 1.87809 27.8372 1.86762C27.8254 1.84784 27.8147 1.82923 27.8028 1.80945C27.7945 1.79549 27.7862 1.78037 27.7779 1.76757C27.7684 1.75128 27.7589 1.735 27.7494 1.71987C27.7411 1.70591 27.7328 1.69195 27.7256 1.67915C27.7161 1.66287 27.7078 1.64891 27.6995 1.63378C27.6924 1.62215 27.6853 1.61051 27.6793 1.59888C27.671 1.58492 27.6639 1.57212 27.6568 1.55933C27.6496 1.54769 27.6437 1.53606 27.6378 1.52559C27.6306 1.51395 27.6247 1.50232 27.6176 1.49069C27.6117 1.48022 27.6069 1.47091 27.6021 1.4616C27.5962 1.45113 27.5903 1.44066 27.5855 1.43136C27.5808 1.42205 27.576 1.4139 27.5725 1.40692C27.5677 1.39878 27.563 1.38947 27.5594 1.38249C27.5558 1.37435 27.5523 1.36737 27.5487 1.36039C27.5452 1.35341 27.5416 1.34643 27.5392 1.34061C27.5357 1.33363 27.5333 1.32898 27.5309 1.32316C27.5285 1.31851 27.5262 1.31269 27.5238 1.3092C27.5214 1.30338 27.5202 1.29989 27.519 1.29524C27.519 1.29291 27.5167 1.28942 27.5155 1.2871C27.5143 1.28244 27.5131 1.27895 27.5131 1.27546C27.5131 1.27546 27.5131 1.27546 27.5131 1.2743L25.1183 1.68613C25.0613 1.69544 25.0031 1.6745 24.9675 1.63146C24.5365 1.11957 24.2456 0.76474 24.1269 0.604195C24.0865 0.549516 24.0177 0.526248 23.9524 0.546026L22.0432 1.10677C22.0313 1.09398 22.0194 1.08118 22.0099 1.07071C21.9648 1.02068 21.8936 1.0044 21.8307 1.02883L20.413 1.58492C20.413 1.58492 20.4035 1.58841 20.4 1.58957L12.9508 3.77556C12.9449 3.77789 12.9389 3.77905 12.933 3.78021L1.60254 5.72072C1.49212 5.73934 1.43513 5.86149 1.49331 5.95573L2.00029 6.78056C2.05372 6.86781 2.00979 6.98182 1.90887 7.01091L0.113664 7.53792C0.00443152 7.57049 -0.0359368 7.70079 0.0364888 7.78688L1.03145 8.96538C1.10031 9.04682 1.06826 9.1713 0.967336 9.20969L0.402179 9.43189C0.296509 9.47378 0.268013 9.60756 0.34875 9.68784L7.8822 17.0811C7.8822 17.0811 7.88932 17.0881 7.8917 17.0916L9.53612 19.0391C9.54087 19.0449 9.54562 19.0519 9.55036 19.0577L16.9948 31.1649C17.0292 31.2208 17.0945 31.2499 17.1598 31.2382C17.4364 31.187 18.2319 31.0404 19.3824 30.8287C19.4394 30.8182 19.4988 30.8392 19.5356 30.8822L20.4308 31.9432C20.4724 31.9921 20.5389 32.0119 20.6006 31.9932C20.8369 31.92 21.4721 31.7245 22.3911 31.4418C22.4481 31.4244 22.511 31.4395 22.5525 31.4802C22.5988 31.5256 22.6665 31.5384 22.7259 31.5139C22.9527 31.4209 23.5618 31.1719 24.4392 30.8136C24.4439 30.8113 24.4487 30.8101 24.4534 30.8089C26.4659 30.1923 29.0424 29.4071 31.69 28.609C31.696 28.6067 31.7019 28.6055 31.709 28.6043C32.8263 28.4066 33.9305 28.2134 34.9919 28.0296C35.0988 28.011 35.2057 27.9924 35.3113 27.9749C35.3517 27.968 35.3921 27.961 35.4336 27.954C35.5393 27.9354 35.6438 27.9179 35.7471 27.9005C35.7851 27.8935 35.8231 27.8877 35.861 27.8807C35.9643 27.8633 36.0676 27.8458 36.1697 27.8272C36.2066 27.8214 36.2422 27.8144 36.279 27.8086C36.3953 27.7888 36.5117 27.769 36.628 27.7493C36.6459 27.7458 36.6625 27.7434 36.6803 27.7399C36.786 27.7213 36.8916 27.7039 36.9973 27.6864C37.0305 27.6806 37.0626 27.6748 37.0947 27.6701C37.2146 27.6492 37.3345 27.6294 37.4532 27.6096C37.4544 27.6096 37.4556 27.6096 37.4568 27.6096C37.5708 27.5899 37.6836 27.5713 37.7964 27.5526C37.8296 27.5468 37.8628 27.541 37.8961 27.5364C38.0018 27.5189 38.105 27.5015 38.2083 27.484C38.2309 27.4805 38.2523 27.477 38.2748 27.4724C38.371 27.4561 38.4648 27.441 38.5586 27.4247C38.5918 27.4189 38.6251 27.4142 38.6571 27.4084C38.7521 27.3921 38.8459 27.377 38.9385 27.3618C38.9682 27.3572 38.9979 27.3525 39.0276 27.3467C39.1143 27.3328 39.2009 27.3176 39.2864 27.3037C39.3173 27.299 39.3482 27.2932 39.379 27.2886C39.4752 27.2734 39.569 27.2571 39.6628 27.242C39.6794 27.2397 39.6972 27.2362 39.7138 27.2339C39.8017 27.2199 39.8896 27.206 39.9751 27.192C40.0036 27.1873 40.0332 27.1827 40.0617 27.178C40.152 27.1641 40.241 27.149 40.3277 27.135C40.3431 27.1327 40.3574 27.1303 40.3716 27.128C40.4535 27.1152 40.5331 27.1024 40.6126 27.0896C40.6411 27.085 40.6684 27.0803 40.6969 27.0768C40.7848 27.0629 40.8715 27.0489 40.9558 27.0361C40.9605 27.0361 40.9653 27.0349 40.97 27.0338C41.0519 27.021 41.1327 27.0082 41.2122 26.9965C41.2348 26.9931 41.2573 26.9896 41.2799 26.9861C41.3595 26.9733 41.439 26.9616 41.515 26.95C41.5221 26.95 41.5292 26.9477 41.5352 26.9465C41.6076 26.9361 41.6777 26.9256 41.7477 26.9151C41.7691 26.9116 41.7916 26.9081 41.813 26.9058C41.8866 26.8953 41.959 26.8849 42.0279 26.8744C42.0315 26.8744 42.0338 26.8744 42.0362 26.8732C42.1039 26.8639 42.1704 26.8546 42.2345 26.8453C42.2511 26.843 42.2689 26.8407 42.2855 26.8383C42.3509 26.829 42.4162 26.8197 42.4779 26.8116C42.4803 26.8116 42.4815 26.8116 42.4838 26.8116C42.5432 26.8034 42.6014 26.7953 42.6572 26.7883C42.6726 26.786 42.6869 26.7848 42.7011 26.7825C42.7557 26.7755 42.8092 26.7685 42.859 26.7627C42.8638 26.7627 42.8673 26.7627 42.8721 26.7615C42.9208 26.7557 42.9671 26.7499 43.0122 26.7453C43.0252 26.7441 43.0383 26.7418 43.0502 26.7406C43.0953 26.736 43.1392 26.7301 43.1796 26.7266C43.182 26.7266 43.1843 26.7266 43.1867 26.7266C43.2271 26.722 43.2651 26.7185 43.3007 26.715C43.3102 26.715 43.3197 26.7138 43.3292 26.7127C43.3648 26.7092 43.3992 26.7069 43.4313 26.7045C43.4622 26.7022 43.4895 26.701 43.5156 26.6999C43.5227 26.6999 43.5287 26.6999 43.5346 26.6999C43.5595 26.6999 43.5833 26.6987 43.6035 26.6987C43.6236 26.6987 43.6391 26.6987 43.6545 26.7011C43.6581 26.7011 43.6616 26.7011 43.6652 26.7011C43.6783 26.7022 43.6901 26.7045 43.6984 26.7069C43.6984 26.7069 43.4218 26.2787 42.9409 25.533C42.884 25.4446 42.9303 25.3259 43.0336 25.298C43.8801 25.07 44.5177 24.9106 44.8691 24.8455C44.9902 24.8234 45.0413 24.6826 44.9617 24.5907C44.7516 24.3522 44.3811 23.9299 43.8848 23.3633C43.8112 23.2796 43.8469 23.1493 43.9537 23.1132C44.1947 23.0318 44.3906 22.9689 44.5379 22.9282C44.6554 22.8956 44.6922 22.7491 44.6044 22.6653L44.602 22.663Z" fill="#1B90FF"/>
<path d="M3.29395 7.33875L20.8588 31.7384C20.8588 31.7384 44.024 24.1177 44.7552 24.2773C44.7552 24.2773 26.7246 0.316848 26.7316 0L3.29395 7.33875Z" fill="#0040B0"/>
<path d="M3.42188 9.2616L22.9125 31.2464C22.9125 31.2464 43.883 22.2279 44.5932 22.3257C44.5932 22.3257 24.716 0.795245 24.6846 0.491211L3.42188 9.2616Z" fill="#0070F2"/>
<path d="M4.84961 5.46905L17.6582 30.9939C17.6582 30.9939 42.5198 25.9605 43.2243 26.1911C43.2243 26.1911 29.8591 1.04483 29.9289 0.737305L4.84961 5.46905Z" fill="white"/>
<path d="M28.5193 1.8253C29.0095 2.17943 29.4717 2.57083 29.9176 2.97854C30.4078 3.42702 30.8759 3.89879 31.3311 4.38222C31.6629 4.73634 31.9843 5.09862 32.301 5.46556C30.8794 2.72809 29.9118 0.821176 29.9316 0.737305L27.5215 1.19161C27.8696 1.37682 28.2014 1.59349 28.5205 1.82414L28.5193 1.8253Z" fill="#BCE5FF"/>
<path d="M39.3399 18.8613C39.121 19.8363 38.8742 20.8055 38.5586 21.7537C38.1371 23.0188 37.5899 24.2547 36.8203 25.3486C36.2416 26.1698 35.5768 26.9316 34.834 27.6084C39.3038 26.7581 42.9609 26.1057 43.2252 26.1919C43.2252 26.1919 41.5241 22.992 39.3399 18.8625V18.8613Z" fill="#BCE5FF"/>
<path d="M19.0708 8.34897L11.8905 9.6979C11.5784 9.75614 11.228 9.61519 11.1069 9.38338L10.8752 8.9384C10.7541 8.70659 10.909 8.47012 11.221 8.41187L18.4013 7.06294C18.7134 7.00469 19.0638 7.14564 19.1849 7.37746L19.4166 7.82244C19.5377 8.05425 19.3828 8.29072 19.0708 8.34897Z" fill="#1B90FF"/>
<path d="M24.0493 17.9046L16.869 19.2536C16.557 19.3118 16.2065 19.1709 16.0854 18.939L15.8537 18.4941C15.7326 18.2622 15.8875 18.0258 16.1995 17.9675L23.3798 16.6186C23.6919 16.5604 24.0423 16.7013 24.1634 16.9331L24.3951 17.3781C24.5162 17.6099 24.3614 17.8464 24.0493 17.9046Z" fill="#1B90FF"/>
<path d="M15.5029 11.1154L12.6899 11.644C12.4861 11.6824 12.2567 11.5905 12.1776 11.4391L11.7945 10.7033C11.7153 10.5519 11.8166 10.397 12.0204 10.3586L14.8334 9.83002C15.0371 9.7916 15.2665 9.88358 15.3457 10.0349L15.7287 10.7708C15.8079 10.9221 15.7066 11.077 15.5029 11.1154Z" fill="#1B90FF"/>
<path d="M16.4999 13.0275L13.6869 13.5561C13.4832 13.5946 13.2538 13.5026 13.1746 13.3512L12.7916 12.6154C12.7124 12.464 12.8137 12.3092 13.0175 12.2707L15.8304 11.7421C16.0342 11.7037 16.2636 11.7957 16.3427 11.947L16.7258 12.6829C16.805 12.8343 16.7037 12.9891 16.4999 13.0275Z" fill="#1B90FF"/>
<path d="M17.495 14.9387L14.6821 15.4673C14.4783 15.5057 14.2489 15.4137 14.1698 15.2623L13.7867 14.5265C13.7075 14.3751 13.8088 14.2203 14.0126 14.1819L16.8256 13.6533C17.0293 13.6148 17.2587 13.7068 17.3379 13.8582L17.7209 14.594C17.8001 14.7454 17.6988 14.9002 17.495 14.9387Z" fill="#1B90FF"/>
<path d="M18.4911 16.8498L15.6782 17.3784C15.4744 17.4168 15.245 17.3248 15.1659 17.1735L14.7828 16.4376C14.7036 16.2863 14.8049 16.1314 15.0087 16.093L17.8217 15.5644C18.0254 15.526 18.2548 15.618 18.334 15.7693L18.717 16.5052C18.7962 16.6565 18.6949 16.8114 18.4911 16.8498Z" fill="#1B90FF"/>
<path d="M29.6226 6.36557L22.4422 7.7145C22.1302 7.77274 21.7797 7.63179 21.6586 7.39998L21.4269 6.955C21.3059 6.72319 21.4607 6.48672 21.7727 6.42847L28.9531 5.07954C29.2651 5.0213 29.6156 5.16225 29.7367 5.39406L29.9684 5.83904C30.0894 6.07085 29.9346 6.30732 29.6226 6.36557Z" fill="#1B90FF"/>
<path d="M34.6001 15.9232L27.4198 17.2721C27.1077 17.3304 26.7573 17.1894 26.6362 16.9576L26.4045 16.5126C26.2834 16.2808 26.4383 16.0443 26.7503 15.9861L33.9306 14.6372C34.2427 14.5789 34.5931 14.7199 34.7142 14.9517L34.9459 15.3967C35.067 15.6285 34.9121 15.8649 34.6001 15.9232Z" fill="#1B90FF"/>
<path d="M26.0556 9.13398L23.2426 9.66258C23.0389 9.701 22.8095 9.60902 22.7303 9.45766L22.3473 8.72181C22.2681 8.57045 22.3694 8.4156 22.5731 8.37718L25.3861 7.84858C25.5899 7.81015 25.8192 7.90214 25.8984 8.0535L26.2815 8.78934C26.3606 8.9407 26.2593 9.09556 26.0556 9.13398Z" fill="#1B90FF"/>
<path d="M27.0507 11.0451L24.2377 11.5737C24.034 11.6121 23.8046 11.5202 23.7254 11.3688L23.3424 10.6329C23.2632 10.4816 23.3645 10.3267 23.5682 10.2883L26.3812 9.75971C26.585 9.72129 26.8144 9.81327 26.8935 9.96463L27.2766 10.7005C27.3558 10.8518 27.2545 11.0067 27.0507 11.0451Z" fill="#1B90FF"/>
<path d="M28.0458 12.9562L25.2328 13.4848C25.0291 13.5233 24.7997 13.4313 24.7205 13.2799L24.3375 12.5441C24.2583 12.3927 24.3596 12.2379 24.5634 12.1994L27.3763 11.6708C27.5801 11.6324 27.8095 11.7244 27.8886 11.8758L28.2717 12.6116C28.3509 12.763 28.2496 12.9178 28.0458 12.9562Z" fill="#1B90FF"/>
<path d="M29.0429 14.8684L26.2299 15.397C26.0262 15.4354 25.7968 15.3434 25.7176 15.192L25.3346 14.4562C25.2554 14.3048 25.3567 14.15 25.5604 14.1116L28.3734 13.583C28.5772 13.5445 28.8065 13.6365 28.8857 13.7879L29.2688 14.5237C29.3479 14.6751 29.2467 14.8299 29.0429 14.8684Z" fill="#1B90FF"/>
<path d="M39.4149 28.5742C42.4092 28.5742 44.8365 26.1457 44.8365 23.1499C44.8365 20.1541 42.4092 17.7256 39.4149 17.7256C36.4205 17.7256 33.9932 20.1541 33.9932 23.1499C33.9932 26.1457 36.4205 28.5742 39.4149 28.5742Z" fill="#0899A7"/>
<path d="M39.4172 20.1963H39.4152C39.0106 20.1963 38.6826 20.5244 38.6826 20.9293V25.371C38.6826 25.7758 39.0106 26.1039 39.4152 26.1039H39.4172C39.8218 26.1039 40.1498 25.7758 40.1498 25.371V20.9293C40.1498 20.5244 39.8218 20.1963 39.4172 20.1963Z" fill="white"/>
<path d="M36.5879 23.0664V23.2321C36.5879 23.5915 36.8792 23.8828 37.2387 23.8828H41.5964C41.9558 23.8828 42.2471 23.5915 42.2471 23.2321V23.0664C42.2471 22.707 41.9558 22.4156 41.5964 22.4156H37.2387C36.8792 22.4156 36.5879 22.707 36.5879 23.0664Z" fill="white"/>
</svg>
