<?xml version="1.0" encoding="UTF-8"?>
<!--Generator: Apple Native CoreSVG 232.5-->
<!DOCTYPE svg
PUBLIC "-//W3C//DTD SVG 1.1//EN"
       "http://www.w3.org/Graphics/SVG/1.1/DTD/svg11.dtd">
<svg version="1.1" xmlns="http://www.w3.org/2000/svg" xmlns:xlink="http://www.w3.org/1999/xlink" width="3300" height="2200">
 <!--glyph: "", point size: 100.0, font version: "19.0d6e1", template writer version: "123"-->
 <style>.SFSymbolsPreviewWireframe {fill:none;opacity:1.0;stroke:black;stroke-width:0.5}
</style>
 <g id="Notes">
  <rect height="2200" id="artboard" style="fill:white;opacity:1" width="3300" x="0" y="0"/>
  <line style="fill:none;stroke:black;opacity:1;stroke-width:0.5;" x1="263" x2="3036" y1="292" y2="292"/>
  <text style="stroke:none;fill:black;font-family:sans-serif;font-size:13;font-weight:bold;" transform="matrix(1 0 0 1 263 322)">Weight/Scale Variations</text>
  <text style="stroke:none;fill:black;font-family:sans-serif;font-size:13;text-anchor:middle;" transform="matrix(1 0 0 1 559.711 322)">Ultralight</text>
  <text style="stroke:none;fill:black;font-family:sans-serif;font-size:13;text-anchor:middle;" transform="matrix(1 0 0 1 856.422 322)">Thin</text>
  <text style="stroke:none;fill:black;font-family:sans-serif;font-size:13;text-anchor:middle;" transform="matrix(1 0 0 1 1153.13 322)">Light</text>
  <text style="stroke:none;fill:black;font-family:sans-serif;font-size:13;text-anchor:middle;" transform="matrix(1 0 0 1 1449.84 322)">Regular</text>
  <text style="stroke:none;fill:black;font-family:sans-serif;font-size:13;text-anchor:middle;" transform="matrix(1 0 0 1 1746.56 322)">Medium</text>
  <text style="stroke:none;fill:black;font-family:sans-serif;font-size:13;text-anchor:middle;" transform="matrix(1 0 0 1 2043.27 322)">Semibold</text>
  <text style="stroke:none;fill:black;font-family:sans-serif;font-size:13;text-anchor:middle;" transform="matrix(1 0 0 1 2339.98 322)">Bold</text>
  <text style="stroke:none;fill:black;font-family:sans-serif;font-size:13;text-anchor:middle;" transform="matrix(1 0 0 1 2636.69 322)">Heavy</text>
  <text style="stroke:none;fill:black;font-family:sans-serif;font-size:13;text-anchor:middle;" transform="matrix(1 0 0 1 2933.4 322)">Black</text>
  <line style="fill:none;stroke:black;opacity:1;stroke-width:0.5;" x1="263" x2="3036" y1="1903" y2="1903"/>
  <g transform="matrix(0.2 0 0 0.2 263 1933)">
   <path d="m46.2402 4.15039c21.5332 0 39.4531-17.8711 39.4531-39.4043s-17.9688-39.4043-39.502-39.4043c-21.4844 0-39.3555 17.8711-39.3555 39.4043s17.9199 39.4043 39.4043 39.4043Zm0-7.42188c-17.7246 0-31.8848-14.209-31.8848-31.9824s14.1113-31.9824 31.8359-31.9824c17.7734 0 32.0312 14.209 32.0312 31.9824s-14.209 31.9824-31.9824 31.9824Zm-17.9688-31.9824c0 2.14844 1.51367 3.61328 3.75977 3.61328h10.498v10.5957c0 2.19727 1.46484 3.71094 3.61328 3.71094 2.24609 0 3.71094-1.51367 3.71094-3.71094v-10.5957h10.5957c2.19727 0 3.71094-1.46484 3.71094-3.61328 0-2.19727-1.51367-3.71094-3.71094-3.71094h-10.5957v-10.5469c0-2.24609-1.46484-3.75977-3.71094-3.75977-2.14844 0-3.61328 1.51367-3.61328 3.75977v10.5469h-10.498c-2.24609 0-3.75977 1.51367-3.75977 3.71094Z"/>
  </g>
  <g transform="matrix(0.2 0 0 0.2 281.506 1933)">
   <path d="m58.5449 14.5508c27.2461 0 49.8047-22.6074 49.8047-49.8047 0-27.2461-22.6074-49.8047-49.8535-49.8047-27.1973 0-49.7559 22.5586-49.7559 49.8047 0 27.1973 22.6074 49.8047 49.8047 49.8047Zm0-8.30078c-23.0469 0-41.4551-18.457-41.4551-41.5039s18.3594-41.5039 41.4062-41.5039 41.5527 18.457 41.5527 41.5039-18.457 41.5039-41.5039 41.5039Zm-22.6562-41.5039c0 2.39258 1.66016 4.00391 4.15039 4.00391h14.3555v14.4043c0 2.44141 1.66016 4.15039 4.05273 4.15039 2.44141 0 4.15039-1.66016 4.15039-4.15039v-14.4043h14.4043c2.44141 0 4.15039-1.61133 4.15039-4.00391 0-2.44141-1.70898-4.15039-4.15039-4.15039h-14.4043v-14.3555c0-2.49023-1.70898-4.19922-4.15039-4.19922-2.39258 0-4.05273 1.70898-4.05273 4.19922v14.3555h-14.3555c-2.49023 0-4.15039 1.70898-4.15039 4.15039Z"/>
  </g>
  <g transform="matrix(0.2 0 0 0.2 304.924 1933)">
   <path d="m74.8535 28.3203c34.8145 0 63.623-28.8086 63.623-63.5742 0-34.8145-28.8574-63.623-63.6719-63.623-34.7656 0-63.5254 28.8086-63.5254 63.623 0 34.7656 28.8086 63.5742 63.5742 63.5742Zm0-9.08203c-30.1758 0-54.4434-24.3164-54.4434-54.4922 0-30.2246 24.2188-54.4922 54.3945-54.4922 30.2246 0 54.541 24.2676 54.541 54.4922 0 30.1758-24.2676 54.4922-54.4922 54.4922Zm-28.8574-54.4922c0 2.58789 1.85547 4.39453 4.58984 4.39453h19.7266v19.7754c0 2.68555 1.85547 4.58984 4.44336 4.58984 2.68555 0 4.54102-1.85547 4.54102-4.58984v-19.7754h19.7754c2.68555 0 4.58984-1.80664 4.58984-4.39453 0-2.73438-1.85547-4.58984-4.58984-4.58984h-19.7754v-19.7266c0-2.73438-1.85547-4.63867-4.54102-4.63867-2.58789 0-4.44336 1.9043-4.44336 4.63867v19.7266h-19.7266c-2.73438 0-4.58984 1.85547-4.58984 4.58984Z"/>
  </g>
  <text style="stroke:none;fill:black;font-family:sans-serif;font-size:13;font-weight:bold;" transform="matrix(1 0 0 1 263 1953)">Design Variations</text>
  <text style="stroke:none;fill:black;font-family:sans-serif;font-size:13;" transform="matrix(1 0 0 1 263 1971)">Symbols are supported in up to nine weights and three scales.</text>
  <text style="stroke:none;fill:black;font-family:sans-serif;font-size:13;" transform="matrix(1 0 0 1 263 1989)">For optimal layout with text and other symbols, vertically align</text>
  <text style="stroke:none;fill:black;font-family:sans-serif;font-size:13;" transform="matrix(1 0 0 1 263 2007)">symbols with the adjacent text.</text>
  <line style="fill:none;stroke:#00AEEF;stroke-width:0.5;opacity:1.0;" x1="776" x2="776" y1="1919" y2="1933"/>
  <g transform="matrix(0.2 0 0 0.2 776 1933)">
   <path d="m16.5527 0.78125c2.58789 0 3.85742-0.976562 4.78516-3.71094l6.29883-17.2363h28.8086l6.29883 17.2363c0.927734 2.73438 2.19727 3.71094 4.73633 3.71094 2.58789 0 4.24805-1.5625 4.24805-4.00391 0-0.830078-0.146484-1.61133-0.537109-2.63672l-22.9004-60.9863c-1.12305-2.97852-3.125-4.49219-6.25-4.49219-3.02734 0-5.07812 1.46484-6.15234 4.44336l-22.9004 61.084c-0.390625 1.02539-0.537109 1.80664-0.537109 2.63672 0 2.44141 1.5625 3.95508 4.10156 3.95508Zm13.4766-28.3691 11.8652-32.8613h0.244141l11.8652 32.8613Z"/>
  </g>
  <line style="fill:none;stroke:#00AEEF;stroke-width:0.5;opacity:1.0;" x1="792.836" x2="792.836" y1="1919" y2="1933"/>
  <text style="stroke:none;fill:black;font-family:sans-serif;font-size:13;font-weight:bold;" transform="matrix(1 0 0 1 776 1953)">Margins</text>
  <text style="stroke:none;fill:black;font-family:sans-serif;font-size:13;" transform="matrix(1 0 0 1 776 1971)">Leading and trailing margins on the left and right side of each symbol</text>
  <text style="stroke:none;fill:black;font-family:sans-serif;font-size:13;" transform="matrix(1 0 0 1 776 1989)">can be adjusted by modifying the x-location of the margin guidelines.</text>
  <text style="stroke:none;fill:black;font-family:sans-serif;font-size:13;" transform="matrix(1 0 0 1 776 2007)">Modifications are automatically applied proportionally to all</text>
  <text style="stroke:none;fill:black;font-family:sans-serif;font-size:13;" transform="matrix(1 0 0 1 776 2025)">scales and weights.</text>
  <g transform="matrix(0.2 0 0 0.2 1289 1933)">
   <path d="m14.209 9.32617 8.49609 8.54492c4.29688 4.3457 9.22852 4.05273 13.8672-1.07422l53.4668-58.9355-4.83398-4.88281-53.0762 58.3984c-1.75781 2.00195-3.41797 2.49023-5.76172 0.146484l-5.85938-5.81055c-2.34375-2.29492-1.80664-4.00391 0.195312-5.81055l57.373-54.0039-4.88281-4.83398-57.959 54.4434c-4.93164 4.58984-5.32227 9.47266-1.02539 13.8184Zm32.0801-90.9668c-2.09961 2.05078-2.24609 4.93164-1.07422 6.88477 1.17188 1.80664 3.4668 2.97852 6.68945 2.14844 7.32422-1.70898 14.9414-2.00195 22.0703 2.68555l-2.92969 7.27539c-1.70898 4.15039-0.830078 7.08008 1.85547 9.81445l11.4746 11.5723c2.44141 2.44141 4.49219 2.53906 7.32422 2.05078l5.32227-0.976562 3.32031 3.36914-0.195312 2.7832c-0.195312 2.49023 0.439453 4.39453 2.88086 6.78711l3.80859 3.71094c2.39258 2.39258 5.46875 2.53906 7.8125 0.195312l14.5508-14.5996c2.34375-2.34375 2.24609-5.32227-0.146484-7.71484l-3.85742-3.80859c-2.39258-2.39258-4.24805-3.17383-6.64062-2.97852l-2.88086 0.244141-3.22266-3.17383 1.2207-5.61523c0.634766-2.83203-0.146484-5.0293-3.07617-7.95898l-10.9863-10.9375c-16.6992-16.6016-38.8672-16.2109-53.3203-1.75781Zm7.4707 1.85547c12.1582-8.88672 28.6133-7.37305 39.7461 3.75977l12.1582 12.0605c1.17188 1.17188 1.36719 2.09961 1.02539 3.80859l-1.61133 7.42188 7.51953 7.42188 4.93164-0.292969c1.26953-0.0488281 1.66016 0.0488281 2.63672 1.02539l2.88086 2.88086-12.207 12.207-2.88086-2.88086c-0.976562-0.976562-1.12305-1.36719-1.07422-2.68555l0.341797-4.88281-7.4707-7.42188-7.61719 1.26953c-1.61133 0.341797-2.34375 0.195312-3.56445-0.976562l-10.0098-10.0098c-1.26953-1.17188-1.41602-2.00195-0.634766-3.85742l4.39453-10.4492c-7.8125-7.27539-17.9688-10.4004-28.125-7.42188-0.78125 0.195312-1.07422-0.439453-0.439453-0.976562Z"/>
  </g>
  <text style="stroke:none;fill:black;font-family:sans-serif;font-size:13;font-weight:bold;" transform="matrix(1 0 0 1 1289 1953)">Exporting</text>
  <text style="stroke:none;fill:black;font-family:sans-serif;font-size:13;" transform="matrix(1 0 0 1 1289 1971)">Symbols should be outlined when exporting to ensure the</text>
  <text style="stroke:none;fill:black;font-family:sans-serif;font-size:13;" transform="matrix(1 0 0 1 1289 1989)">design is preserved when submitting to Xcode.</text>
  <text id="template-version" style="stroke:none;fill:black;font-family:sans-serif;font-size:13;text-anchor:end;" transform="matrix(1 0 0 1 3036 1933)">Template v.5.0</text>
  <text style="stroke:none;fill:black;font-family:sans-serif;font-size:13;text-anchor:end;" transform="matrix(1 0 0 1 3036 1951)">Requires Xcode 15 or greater</text>
  <text id="descriptive-name" style="stroke:none;fill:black;font-family:sans-serif;font-size:13;text-anchor:end;" transform="matrix(1 0 0 1 3036 1969)">Generated from fiori.monitor.payments</text>
  <text style="stroke:none;fill:black;font-family:sans-serif;font-size:13;text-anchor:end;" transform="matrix(1 0 0 1 3036 1987)">Typeset at 100.0 points</text>
  <text style="stroke:none;fill:black;font-family:sans-serif;font-size:13;" transform="matrix(1 0 0 1 263 726)">Small</text>
  <text style="stroke:none;fill:black;font-family:sans-serif;font-size:13;" transform="matrix(1 0 0 1 263 1156)">Medium</text>
  <text style="stroke:none;fill:black;font-family:sans-serif;font-size:13;" transform="matrix(1 0 0 1 263 1586)">Large</text>
 </g>
 <g id="Guides">
  <g id="H-reference" style="fill:#27AAE1;stroke:none;" transform="matrix(1 0 0 1 339 696)">
   <path d="M0.993654 0L3.63775 0L29.3281-67.1323L30.0303-67.1323L30.0303-70.459L28.1226-70.459ZM11.6885-24.4799L46.9815-24.4799L46.2315-26.7285L12.4385-26.7285ZM55.1196 0L57.7637 0L30.6382-70.459L29.4326-70.459L29.4326-67.1323Z"/>
  </g>
  <line id="Baseline-S" style="fill:none;stroke:#27AAE1;opacity:1;stroke-width:0.5;" x1="263" x2="3036" y1="696" y2="696"/>
  <line id="Capline-S" style="fill:none;stroke:#27AAE1;opacity:1;stroke-width:0.5;" x1="263" x2="3036" y1="625.541" y2="625.541"/>
  <g id="H-reference" style="fill:#27AAE1;stroke:none;" transform="matrix(1 0 0 1 339 1126)">
   <path d="M0.993654 0L3.63775 0L29.3281-67.1323L30.0303-67.1323L30.0303-70.459L28.1226-70.459ZM11.6885-24.4799L46.9815-24.4799L46.2315-26.7285L12.4385-26.7285ZM55.1196 0L57.7637 0L30.6382-70.459L29.4326-70.459L29.4326-67.1323Z"/>
  </g>
  <line id="Baseline-M" style="fill:none;stroke:#27AAE1;opacity:1;stroke-width:0.5;" x1="263" x2="3036" y1="1126" y2="1126"/>
  <line id="Capline-M" style="fill:none;stroke:#27AAE1;opacity:1;stroke-width:0.5;" x1="263" x2="3036" y1="1055.54" y2="1055.54"/>
  <g id="H-reference" style="fill:#27AAE1;stroke:none;" transform="matrix(1 0 0 1 339 1556)">
   <path d="M0.993654 0L3.63775 0L29.3281-67.1323L30.0303-67.1323L30.0303-70.459L28.1226-70.459ZM11.6885-24.4799L46.9815-24.4799L46.2315-26.7285L12.4385-26.7285ZM55.1196 0L57.7637 0L30.6382-70.459L29.4326-70.459L29.4326-67.1323Z"/>
  </g>
  <line id="Baseline-L" style="fill:none;stroke:#27AAE1;opacity:1;stroke-width:0.5;" x1="263" x2="3036" y1="1556" y2="1556"/>
  <line id="Capline-L" style="fill:none;stroke:#27AAE1;opacity:1;stroke-width:0.5;" x1="263" x2="3036" y1="1485.54" y2="1485.54"/>
  <line id="left-margin-Ultralight-S" style="fill:none;stroke:#00AEEF;stroke-width:0.5;opacity:1.0;" x1="515.011" x2="515.011" y1="600.785" y2="720.121"/>
  <line id="right-margin-Ultralight-S" style="fill:none;stroke:#00AEEF;stroke-width:0.5;opacity:1.0;" x1="604.411" x2="604.411" y1="600.785" y2="720.121"/>
  <line id="left-margin-Regular-S" style="fill:none;stroke:#00AEEF;stroke-width:0.5;opacity:1.0;" x1="1403.39" x2="1403.39" y1="600.785" y2="720.121"/>
  <line id="right-margin-Regular-S" style="fill:none;stroke:#00AEEF;stroke-width:0.5;opacity:1.0;" x1="1496.29" x2="1496.29" y1="600.785" y2="720.121"/>
  <line id="left-margin-Black-S" style="fill:none;stroke:#00AEEF;stroke-width:0.5;opacity:1.0;" x1="2884.9" x2="2884.9" y1="600.785" y2="720.121"/>
  <line id="right-margin-Black-S" style="fill:none;stroke:#00AEEF;stroke-width:0.5;opacity:1.0;" x1="2981.9" x2="2981.9" y1="600.785" y2="720.121"/>
 </g>
 <g id="Symbols">
  <g id="Black-S" transform="matrix(1 0 0 1 2884.9 696)">
   <path class="SFSymbolsPreviewWireframe" d="M28.51-41.8L38.51-41.8C40.71-41.8 43.91-43.4 43.91-47.2C43.91-50.9 40.71-52.6 38.51-52.6L35.91-52.6L35.91-55.2C35.91-58.4 33.41-60.6 30.51-60.6C26.71-60.6 25.11-57.4 25.11-55.2L25.11-52.1C20.51-51.2 17.11-46 17.11-41.2C17.11-34 23.01-29.8 28.51-29.8L32.51-29.8C32.81-29.8 33.11-29.6 33.11-29.2C33.11-29 33.01-28.6 32.51-28.6L22.51-28.6C19.81-28.6 17.11-26.5 17.11-23.1C17.11-20.9 18.81-17.8 22.51-17.8L25.11-17.8L25.11-15.2C25.11-12.6 27.11-9.8 30.51-9.8C33.41-9.8 35.91-12.1 35.91-15.2L35.91-18.3C40.51-19.2 43.91-24.4 43.91-29.2C43.91-35.6 38.61-40.6 32.51-40.6L28.51-40.6C28.21-40.6 27.91-40.8 27.91-41.2C27.91-41.6 28.21-41.8 28.51-41.8ZM71.91-47.2C71.91-50.2 69.51-52.6 66.51-52.6L54.51-52.6C51.51-52.6 49.11-50.2 49.11-47.2C49.11-44.2 51.51-41.8 54.51-41.8L66.51-41.8C69.51-41.8 71.91-44.3 71.91-47.2ZM63.91-35.2C63.91-38.2 61.51-40.6 58.51-40.6L54.51-40.6C51.51-40.6 49.11-38.2 49.11-35.2C49.11-32.2 51.51-29.8 54.51-29.8L58.51-29.8C61.51-29.8 63.91-32.3 63.91-35.2ZM59.91-23.3C59.91-20.3177 57.4923-17.9 54.51-17.9C51.5277-17.9 49.11-20.3177 49.11-23.3C49.11-26.2823 51.5277-28.7 54.51-28.7C57.4923-28.7 59.91-26.2823 59.91-23.3ZM46.51-8.7L18.51-8.7C17.11-8.7 15.91-9.9 15.91-11.3L15.91-59.3C15.91-60.7 17.11-61.9 18.51-61.9L74.51-61.9C75.91-61.9 77.11-60.7 77.11-59.3L77.11-43.3C77.11-40.1 79.81-37.9 82.51-37.9C86.21-37.9 87.91-41 87.91-43.3L87.91-59.3C87.91-66.7 81.91-72.7 74.51-72.7L18.51-72.7C11.11-72.7 5.11-66.7 5.11-59.3L5.11-11.3C5.11-3.9 11.11 2.1 18.51 2.1L46.51 2.1C49.21 2.1 51.91-0.1 51.91-3.3C51.91-6.3 49.41-8.7 46.51-8.7ZM88.91-8.1L82.61-11.3C80.91-12.1 78.71-12.7 76.81-12.7L72.31-12.7C70.01-12.7 68.01-12.1 66.31-11.3L60.01-8.1C57.11-6.4 56.71-3.8 57.11-2C57.51-0.2 59.21 2.2 62.41 2.2L86.41 2.2C89.51 2.2 91.31-0.2 91.71-2C92.41-5.3 90.61-7.3 88.91-8.1ZM83.91-23.3C83.91-18.1085 79.7015-13.9 74.51-13.9C69.3185-13.9 65.11-18.1085 65.11-23.3C65.11-28.4915 69.3185-32.7 74.51-32.7C79.7015-32.7 83.91-28.4915 83.91-23.3Z"/>
  </g>
  <g id="Regular-S" transform="matrix(1 0 0 1 1403.39 696)">
   <path class="SFSymbolsPreviewWireframe" d="M26.46-43.2L36.46-43.2C38.66-43.2 40.46-45 40.46-47.2C40.46-49.4 38.66-51.2 36.46-51.2L32.46-51.2L32.46-55.2C32.46-57.4 30.66-59.2 28.46-59.2C26.26-59.2 24.46-57.4 24.46-55.2L24.46-51C19.86-50.1 16.46-46 16.46-41.2C16.46-35.7 20.96-31.2 26.46-31.2L30.46-31.2C31.56-31.2 32.46-30.3 32.46-29.2C32.46-28.1 31.56-27.2 30.46-27.2L20.46-27.2C18.26-27.2 16.46-25.4 16.46-23.2C16.46-21 18.26-19.2 20.46-19.2L24.46-19.2L24.46-15.2C24.46-13 26.26-11.2 28.46-11.2C30.66-11.2 32.46-13 32.46-15.2L32.46-19.4C37.06-20.3 40.46-24.4 40.46-29.2C40.46-34.7 35.96-39.2 30.46-39.2L26.46-39.2C25.36-39.2 24.46-40.1 24.46-41.2C24.46-42.3 25.36-43.2 26.46-43.2ZM68.46-47.2C68.46-49.4 66.66-51.2 64.46-51.2L52.46-51.2C50.26-51.2 48.46-49.4 48.46-47.2C48.46-45 50.26-43.2 52.46-43.2L64.46-43.2C66.66-43.2 68.46-45 68.46-47.2ZM60.46-35.2C60.46-37.4 58.66-39.2 56.46-39.2L52.46-39.2C50.26-39.2 48.46-37.4 48.46-35.2C48.46-33 50.26-31.2 52.46-31.2L56.46-31.2C58.66-31.3 60.46-33 60.46-35.2ZM56.46-23.3C56.46-21.0909 54.6691-19.3 52.46-19.3C50.2509-19.3 48.46-21.0909 48.46-23.3C48.46-25.5091 50.2509-27.3 52.46-27.3C54.6691-27.3 56.46-25.5091 56.46-23.3ZM44.46-7.3L16.46-7.3C14.26-7.3 12.46-9.1 12.46-11.3L12.46-59.3C12.46-61.5 14.26-63.3 16.46-63.3L72.46-63.3C74.66-63.3 76.46-61.5 76.46-59.3L76.46-43.3C76.46-41.1 78.26-39.3 80.46-39.3C82.66-39.3 84.46-41.1 84.46-43.3L84.46-59.3C84.46-65.9 79.06-71.3 72.46-71.3L16.46-71.3C9.86-71.3 4.46-65.9 4.46-59.3L4.46-11.3C4.46-4.7 9.86 0.7 16.46 0.7L44.46 0.7C46.66 0.7 48.46-1.1 48.46-3.3C48.46-5.5 46.66-7.3 44.46-7.3ZM86.26-6.8L79.96-10C78.26-10.8 76.46-11.3 74.56-11.3L70.36-11.3C68.46-11.3 66.66-10.9 64.96-10L58.66-6.8C56.96-6 56.16-4.1 56.56-2.3C56.96-0.5 58.56 0.8 60.46 0.8L84.46 0.8C86.36 0.8 87.96-0.5 88.36-2.3C88.86-4.1 87.96-6 86.26-6.8ZM80.46-23.3C80.46-18.8817 76.8783-15.3 72.46-15.3C68.0417-15.3 64.46-18.8817 64.46-23.3C64.46-27.7183 68.0417-31.3 72.46-31.3C76.8783-31.3 80.46-27.7183 80.46-23.3Z"/>
  </g>
  <g id="Ultralight-S" transform="matrix(1 0 0 1 515.011 696)">
   <path class="SFSymbolsPreviewWireframe" d="M24.775-46.1L34.475-46.1C35.275-46.1 35.975-46.5 35.975-47.3C35.975-47.9 35.675-48.5 34.775-48.5L27.975-48.5L27.975-55.3C27.975-55.9 27.475-56.5 26.775-56.5C26.175-56.5 25.575-56.1 25.575-55.3L25.575-48.8C21.375-48.8 17.375-46 17.575-40.9C17.775-37.1 20.975-34.2 24.775-34.2L28.775-34.2C31.575-34.2 33.575-31.9 33.575-29.4C33.575-26.6 31.275-24.6 28.775-24.6L18.775-24.6C18.175-24.6 17.575-24.1 17.575-23.4C17.575-22.6 18.175-22.2 18.775-22.2L25.575-22.2L25.575-15.4C25.575-14.8 26.075-14.2 26.775-14.2C27.375-14.2 27.975-14.7 27.975-15.4L27.975-21.9C32.175-21.9 36.075-24.6 35.975-29.5C35.875-33.4 32.675-36.5 28.775-36.5L24.675-36.5C22.575-36.5 20.475-38.2 20.075-40.2C19.275-43.7 22.075-46.1 24.775-46.1ZM63.875-47.2C63.875-47.8 63.375-48.4 62.675-48.4L50.675-48.4C50.075-48.4 49.475-47.9 49.475-47.2C49.475-46.5 49.975-46 50.675-46L62.675-46C63.375-46.1 63.875-46.6 63.875-47.2ZM55.875-35.2C55.875-35.8 55.375-36.4 54.675-36.4L50.675-36.4C50.075-36.4 49.475-35.9 49.475-35.2C49.475-34.6 49.975-34 50.675-34L54.675-34C55.375-34.1 55.875-34.6 55.875-35.2ZM52.375-23.3C52.375-22.4163 51.6587-21.7 50.775-21.7C49.8913-21.7 49.175-22.4163 49.175-23.3C49.175-24.1837 49.8913-24.9 50.775-24.9C51.6587-24.9 52.375-24.1837 52.375-23.3ZM42.875-4.4L14.675-4.4C10.875-4.4 7.875-7.5 7.875-11.2L7.875-59.2C7.875-63 10.975-66 14.675-66L70.675-66C74.475-66 77.475-62.9 77.475-59.2L77.475-43.2C77.475-42.6 77.975-42 78.575-42C79.375-42 79.875-42.5 79.875-43.2L79.875-59.2C79.875-64.3 75.775-68.4 70.675-68.4L14.675-68.4C9.575-68.4 5.475-64.3 5.475-59.2L5.475-11.2C5.475-6.1 9.575-2 14.675-2L42.675-2C43.275-2 43.875-2.5 43.875-3.1C43.875-4 43.375-4.4 42.875-4.4ZM83.275-4.3L76.975-7.4C75.675-8 74.275-8.4 72.875-8.4L68.675-8.4C67.275-8.4 65.875-8.1 64.575-7.4L58.275-4.2C57.775-4 57.575-3.4 57.675-2.9C57.775-2.4 58.275-2 58.775-2L82.775-2C83.275-2 83.775-2.4 83.875-2.9C84.075-3.5 83.775-4 83.275-4.3ZM75.975-23.3C75.975-20.4281 73.6469-18.1 70.775-18.1C67.9031-18.1 65.575-20.4281 65.575-23.3C65.575-26.1719 67.9031-28.5 70.775-28.5C73.6469-28.5 75.975-26.1719 75.975-23.3Z"/>
  </g>
 </g>
</svg>
