<svg width="160" height="160" viewBox="0 0 160 160" fill="none" xmlns="http://www.w3.org/2000/svg">
<g clip-path="url(#clip0_4518_152597)">
<rect y="46" width="160" height="69" rx="12" fill="#222F3B"/>
<path fill-rule="evenodd" clip-rule="evenodd" d="M97.9002 94.8425C98.4518 94.8425 98.958 94.63 99.3611 94.2738C100.372 93.966 101.116 92.9207 101.116 91.6785V58.0527C101.116 56.5683 100.053 55.3652 98.7424 55.3652H70.2104C69.6604 55.3652 69.1526 55.5777 68.7511 55.934C67.7402 56.2418 66.9965 57.2871 66.9965 58.5292V65.1121C66.7074 65.184 66.4777 65.2309 66.3262 65.2465C66.0996 65.2684 65.8731 65.2449 65.6481 65.2215C64.7325 65.1246 63.8356 65.0293 63.0356 68.0433C62.3029 70.801 61.4373 71.9463 60.8701 72.6947C60.6935 72.9291 60.5451 73.1228 60.4404 73.3166C60.4232 73.3463 60.4076 73.3791 60.392 73.4088C60.1529 73.915 60.3967 76.8883 60.6201 79.6195C60.7701 81.4523 60.9107 83.1772 60.892 83.9709C60.8591 85.2537 59.9654 87.3224 59.342 88.6161C58.7123 88.2021 58.2967 87.949 58.2967 87.949L57.3249 90.8598L56.6327 90.3754H56.6296L45.644 115.128H65.2184L65.9074 101.995H65.9106L66.1574 97.0268L65.7262 96.7253C65.7856 95.955 65.7402 95.0253 65.4106 94.1035L66.9996 90.7661V94.8409H97.9049L97.9002 94.8425Z" fill="#101619"/>
<rect x="66.6724" y="45.9561" width="14.9393" height="21.9695" fill="#101619"/>
<path d="M118.006 36.2642H84.2224C82.601 36.2642 81.2866 37.5786 81.2866 39.2V88.5267C81.2866 90.1481 82.601 91.4625 84.2224 91.4625H118.006C119.627 91.4625 120.942 90.1481 120.942 88.5267V39.2C120.942 37.5786 119.627 36.2642 118.006 36.2642Z" fill="#046C7C"/>
<path d="M118.062 36.2642H85.2396C83.6484 36.2642 82.3585 37.5541 82.3585 39.1453V88.0454C82.3585 89.6367 83.6484 90.9266 85.2396 90.9266H118.062C119.653 90.9266 120.943 89.6367 120.943 88.0454V39.1453C120.943 37.5541 119.653 36.2642 118.062 36.2642Z" fill="#0899A7"/>
<path d="M116.617 39.1392H86.6271C85.4225 39.1392 84.4459 40.1157 84.4459 41.3203V86.2643C84.4459 87.469 85.4225 88.4455 86.6271 88.4455H116.617C117.821 88.4455 118.798 87.469 118.798 86.2643V41.3203C118.798 40.1157 117.821 39.1392 116.617 39.1392Z" fill="#D5DADD"/>
<path d="M82.2506 54.2653C82.2506 53.94 81.9872 53.6763 81.6623 53.6763C81.3374 53.6763 81.074 53.94 81.074 54.2653V56.0293C81.074 56.3546 81.3374 56.6184 81.6623 56.6184C81.9872 56.6184 82.2506 56.3546 82.2506 56.0293V54.2653Z" fill="#0899A7"/>
<path d="M81.9974 54.1388C81.9974 53.8833 81.7907 53.6763 81.5357 53.6763C81.2808 53.6763 81.074 53.8833 81.074 54.1388V56.1559C81.074 56.4113 81.2808 56.6184 81.5357 56.6184C81.7907 56.6184 81.9974 56.4113 81.9974 56.1559V54.1388Z" fill="#046C7C"/>
<path d="M101.65 38.2017C101.946 38.2017 102.186 37.9618 102.186 37.6658C102.186 37.3698 101.946 37.1299 101.65 37.1299C101.354 37.1299 101.114 37.3698 101.114 37.6658C101.114 37.9618 101.354 38.2017 101.65 38.2017Z" fill="#046C7C"/>
<path d="M110.203 63.737C110.203 68.4602 106.373 72.2898 101.65 72.2898C96.9268 72.2898 93.0972 68.4602 93.0972 63.737C93.0972 59.0137 96.9268 55.1841 101.65 55.1841C106.373 55.1841 110.203 59.0137 110.203 63.737Z" fill="#D20A0A"/>
<path fill-rule="evenodd" clip-rule="evenodd" d="M104.908 61.7746C105.241 61.4402 105.241 60.8996 104.908 60.5652C104.573 60.2309 104.033 60.2309 103.698 60.5652L101.694 62.5699L99.6891 60.5652C99.3563 60.2309 98.8142 60.2309 98.4814 60.5652C98.147 60.8996 98.147 61.4402 98.4814 61.7746L100.486 63.7792L98.4814 65.7838C98.147 66.1182 98.147 66.6588 98.4814 66.9932C98.8142 67.3275 99.3563 67.3275 99.6891 66.9932L101.694 64.9885L103.698 66.9932C104.033 67.3275 104.573 67.3275 104.908 66.9932C105.241 66.6588 105.241 66.1182 104.908 65.7838L102.903 63.7792L104.908 61.7746Z" fill="#D5DADD"/>
<path d="M89.2521 61.1512C87.1568 60.1356 85.0022 63.4339 84.3038 65.148C83.6054 66.8604 82.2742 71.5556 82.2742 70.7947C82.2742 70.0337 81.1336 67.1151 80.943 66.2276C80.8445 65.7729 81.0148 65.0667 81.2883 64.4792V60.8403C81.2883 60.4309 81.4992 59.2934 81.2883 58.9388C81.107 58.6341 78.5821 58.745 78.0743 58.9903C77.6853 59.1778 77.3915 59.5184 77.1571 59.8794C76.3103 61.1856 76.0275 62.8277 75.5072 64.2761C74.9057 65.9464 74.3307 67.6541 73.9885 69.3994C73.6885 70.9275 73.6557 72.4946 73.6244 74.0524C73.5698 76.7554 73.9182 79.71 72.9182 82.2584C72.3495 83.7083 71.6057 85.1036 70.7933 86.4348L78.7868 92.1753L82.2757 85.7052C82.2757 85.7052 84.3679 84.4349 85.3835 83.0396C86.3975 81.6443 87.1615 76.1867 87.224 74.6024C87.2881 73.0149 87.2881 70.8572 87.7943 69.9712C88.3021 69.0838 91.3473 62.1684 89.2537 61.1543L89.2521 61.1512Z" fill="#8D2A00"/>
<path d="M89.252 61.1512C88.9599 61.009 88.6661 60.9543 88.3755 60.9652C88.7099 61.5027 88.7458 62.2152 88.6739 62.8292C88.5677 63.7386 88.2786 64.612 87.9161 65.4495C87.7849 65.751 87.6474 66.0557 87.4771 66.3369C86.9396 67.226 86.1162 67.8978 85.7459 68.8759C85.3756 69.854 85.3131 70.8852 85.2506 71.9024C85.2506 73.2695 85.0803 74.6601 84.9975 76.0257C84.9194 77.2913 84.9318 78.5819 84.6069 79.8131C84.0647 81.8771 82.8007 83.7083 80.8804 84.7036C80.7523 84.7692 80.6179 84.8364 80.532 84.952C80.3851 85.1489 80.4226 85.4192 80.446 85.6629C80.6164 87.3972 79.6883 88.9363 78.6211 90.2206C78.3133 90.5909 77.968 90.9706 77.5883 91.3159L78.7852 92.1752L82.2741 85.7051C82.2741 85.7051 84.3662 84.4348 85.3818 83.0396C86.3959 81.6443 87.1599 76.1866 87.2224 74.6023C87.2865 73.0149 87.2865 70.8571 87.7927 69.9712C88.3005 69.0837 91.3457 62.1683 89.252 61.1543V61.1512Z" fill="#450B00"/>
<path d="M81.2867 58.9388C81.1054 58.6341 78.5805 58.745 78.0727 58.9903C77.6837 59.1778 77.3899 59.5184 77.1556 59.8794C76.3087 61.1856 76.0259 62.8277 75.5056 64.2761C74.9041 65.9464 74.3291 67.6541 73.9869 69.3994C73.6869 70.9275 73.6541 72.4946 73.6229 74.0524C73.5682 76.7554 73.9166 79.71 72.9166 82.2584C72.3479 83.7083 71.6042 85.1036 70.7917 86.4348L71.6854 87.077C72.0823 86.2129 72.5823 85.3958 73.151 84.6349C73.4385 84.2505 73.7353 83.8193 74.1369 83.5458C74.3322 83.413 74.5697 83.3255 74.8056 83.3099C74.9744 83.299 75.2166 83.3787 75.3634 83.2771C75.3634 83.2771 75.415 83.2084 75.4181 83.2037C75.44 83.1537 75.4572 83.0662 75.4619 83.0334C75.4806 82.8771 75.4665 82.7131 75.4462 82.5568C75.3994 82.2146 75.2978 81.8834 75.2369 81.5443C74.6619 78.3632 74.1228 74.8899 74.6103 71.6696C74.8838 69.8619 75.579 68.0807 76.0337 66.3104C76.279 65.3526 76.6399 64.448 77.0368 63.5464C77.3868 62.7512 77.768 61.9574 78.268 61.2418C78.7149 60.5997 79.2899 59.9465 80.068 59.72C80.4398 59.6122 80.8148 59.5887 81.1914 59.6091C81.2554 59.5856 81.3179 59.5591 81.382 59.5387C81.3851 59.2856 81.3632 59.0622 81.2883 58.9372L81.2867 58.9388Z" fill="#450B00"/>
<path d="M80.0757 65.4994C80.2039 65.8884 80.4382 66.2181 80.707 66.5244C80.8492 66.6853 80.9991 66.8415 81.1585 66.9868C81.0585 66.6728 80.9804 66.4087 80.9413 66.2275C80.8429 65.7728 81.0132 65.0666 81.2866 64.4791V61.4995C81.0538 61.7386 80.8398 61.9932 80.6445 62.2636C80.007 63.1479 79.7367 64.2635 80.0195 65.3166C80.0367 65.3775 80.0539 65.4385 80.0742 65.4994H80.0757Z" fill="#450B00"/>
<path d="M86.1756 63.4949C86.1475 63.6792 86.2662 63.8558 86.4475 63.8964C87.71 64.1745 88.6162 64.9995 88.9349 64.8323C89.1802 64.7058 90.5021 61.4684 88.6146 61.0903C86.7272 60.7121 86.3162 62.5855 86.1772 63.4949H86.1756Z" fill="#450B00"/>
<path d="M77.4211 91.9626C77.9121 91.9626 78.3102 91.5646 78.3102 91.0736C78.3102 90.5826 77.9121 90.1846 77.4211 90.1846C76.9301 90.1846 76.5321 90.5826 76.5321 91.0736C76.5321 91.5646 76.9301 91.9626 77.4211 91.9626Z" fill="#450B00"/>
<path d="M80.2148 94.5643C79.2711 96.4095 76.8977 93.7456 74.2634 92.3987C71.6291 91.0535 67.3027 89.0066 68.0964 87.0911C68.3511 86.4786 72.5603 88.0332 75.1946 89.3785C77.8289 90.7238 80.2148 94.5627 80.2148 94.5627V94.5643Z" fill="#2A4259"/>
<path d="M68.5011 88.9098L70.2167 84.3662C70.2167 84.3662 78.093 88.6067 79.2024 91.1316C80.3133 93.655 79.2024 96.2815 79.2024 96.2815L68.4996 88.9098H68.5011Z" fill="#D5DADD"/>
<path d="M54.1187 115.127L68.0979 87.0908L80.2163 94.5625L79.0538 115.126H54.1187V115.127Z" fill="#101619"/>
<path d="M70.5041 112.002C69.3198 110.368 68.312 108.592 67.637 106.685C66.9933 104.867 66.6761 102.912 66.8589 100.986C66.8651 100.928 66.8714 100.87 66.8808 100.814C67.1792 98.8763 69.3213 97.8185 71.0916 98.6622L73.1118 99.6263C73.6931 99.9028 74.2587 99.2216 73.879 98.7029C72.6119 96.9717 70.976 94.7155 70.9525 94.5842C70.9103 94.3577 71.0916 94.1311 71.3369 94.1999C72.2525 94.4577 73.1462 94.7827 74.0259 95.142C76.043 95.9655 78.0054 96.9373 80.0382 97.7123L80.2163 94.5639L68.0979 87.0923L54.1187 115.129H73.1071C72.1759 114.143 71.301 113.102 70.5041 112.004V112.002Z" fill="#2A4259"/>
<path d="M86.1756 63.4949C86.1475 63.6792 86.2662 63.8558 86.4475 63.8964C87.71 64.1745 88.6162 64.9995 88.9349 64.8323C89.1802 64.7058 90.5021 61.4684 88.6146 61.0903C86.7272 60.7121 86.3162 62.5855 86.1772 63.4949H86.1756Z" fill="#C35500"/>
<path d="M77.4211 91.9626C77.9121 91.9626 78.3102 91.5646 78.3102 91.0736C78.3102 90.5826 77.9121 90.1846 77.4211 90.1846C76.9301 90.1846 76.5321 90.5826 76.5321 91.0736C76.5321 91.5646 76.9301 91.9626 77.4211 91.9626Z" fill="#2A4259"/>
</g>
<defs>
<clipPath id="clip0_4518_152597">
<rect width="160" height="160" fill="white"/>
</clipPath>
</defs>
</svg>
