<svg width="160" height="161" viewBox="0 0 160 161" fill="none" xmlns="http://www.w3.org/2000/svg">
<rect y="46" width="160" height="69" rx="12" fill="#222F3B"/>
<path d="M107.021 104.509C105.786 104.509 104.607 104.561 103.509 104.647C102.335 102.533 90.9324 100.879 77.0309 100.879C66.5052 100.879 57.4106 101.828 53.1026 103.207C51.858 103.147 50.5379 103.117 49.1725 103.117C41.5188 103.117 35.3113 104.118 35.3113 105.356C35.3113 106.593 41.5188 107.594 49.1725 107.594C51.3441 107.594 53.3948 107.512 55.2238 107.37C60.0306 108.44 68.0017 109.14 77.0309 109.14C85.1984 109.14 92.5044 108.569 97.3818 107.667C98.8883 108.53 102.632 109.14 107.021 109.14C112.739 109.14 117.38 108.105 117.38 106.825C117.38 105.545 112.744 104.509 107.021 104.509Z" fill="#101619"/>
<path d="M49.1583 94.3283C41.4307 94.5829 39.4074 92.342 34.9116 90.4205C30.4158 88.4991 29.2907 83.8968 31.1937 81.4753C33.0966 79.0538 35.2774 78.8038 37.8147 80.6465C40.3519 82.4893 40.852 82.3782 40.852 80.966C40.852 79.5538 40.7501 75.1275 44.5745 74.5256C44.5745 74.5256 40.5279 65.7609 46.7599 62.3393C52.9919 58.9177 54.6773 61.3346 56.7423 61.5291C58.8073 61.7235 57.3071 57.3435 61.8492 53.6302C66.3913 49.9169 70.3407 52.4264 70.3407 52.4264C70.3407 52.4264 72.0307 44.7174 79.9295 44.9628C87.8284 45.2082 88.4581 52.019 88.4581 52.019C88.4581 52.019 96.3847 51.3893 99.1581 55.8526C101.931 60.316 101.538 64.1543 101.538 64.1543C101.538 64.1543 103.07 63.9089 102.598 65.8211C102.598 65.8211 105.673 61.8995 110.784 63.807C115.896 65.7146 114.021 72.9329 114.021 72.9329C114.021 72.9329 115.798 72.0856 117.1 73.1875C118.401 74.2895 117.229 77.8731 117.229 77.8731C117.229 77.8731 120.16 76.2063 122.651 77.6509C125.147 79.1001 125.16 82.7949 123.938 84.2579C122.711 85.721 120.276 87.0313 120.276 87.0313C120.276 87.0313 126.003 86.4202 128.656 89.4066C131.309 92.3929 127.54 93.4301 123.308 93.6847C119.077 93.9394 114.84 95.8608 110.599 96.1525C106.358 96.4442 86.9533 95.7868 82.351 95.245C77.7488 94.7033 71.6788 96.1942 67.3451 96.222C63.0113 96.2498 54.9412 94.1338 49.149 94.3237L49.1583 94.3283Z" fill="#D5DADD"/>
<path d="M114.386 76.3449C114.572 76.4976 114.511 76.7893 114.284 76.8588C112.909 77.257 109.682 78.3821 108.64 80.3498C106.682 84.0492 100.468 84.3826 103.589 82.8269C105.77 81.7389 107.738 79.3451 107.353 76.6088C107.14 75.104 106.011 74.4234 105.367 74.0298C104.848 73.7104 105.112 73.34 105.645 73.4372C106.617 73.6131 107.886 74.4141 109.062 75.9096C109.779 76.8171 112.419 74.4836 113.53 73.4279C113.636 73.3261 113.812 73.4279 113.766 73.5715C113.534 74.2984 113.372 75.5068 114.386 76.3449Z" fill="#4D82B8"/>
<path d="M79.9607 49.3111C79.7477 47.5424 83.0536 47.4961 83.5814 52.0659C83.5814 52.0659 84.3546 51.9131 85.7112 52.0659C87.9429 52.3206 92.4513 53.746 93.0439 55.1443C94.2292 57.9455 93.2304 60.0018 92.0359 60.7473C90.8413 61.4927 87.8503 58.2517 86.8039 56.8858C85.7575 55.5199 84.8593 57.3071 85.4566 58.5063C86.0538 59.7055 83.3545 58.3906 82.0072 56.2793C80.6598 54.168 79.243 55.6264 77.0854 54.7745C73.7333 53.4503 80.4515 53.4503 79.9561 49.3157L79.9607 49.3111Z" fill="#4D82B8"/>
<path d="M65.3956 62.8015C66.4698 63.8294 68.72 60.0744 70.6229 60.6439C71.9101 60.8245 73.0259 62.195 74.4659 62.5469C75.2761 62.7737 76.2392 62.7182 76.9152 62.2042C77.7208 61.5699 77.7902 60.5421 77.3735 59.5698C76.5031 57.7038 74.077 56.6019 72.0583 56.889C70.5442 57.1066 69.646 58.4632 68.382 59.4355C67.3773 60.343 65.1595 61.1949 65.3725 62.7691L65.391 62.8062L65.3956 62.8015Z" fill="#4D82B8"/>
<path d="M53.3263 73.6049C50.465 76.3227 48.9685 74.1054 45.82 74.3555C41.8752 74.6657 47.1736 74.1053 47.1736 77.5425C47.1736 78.7972 42.6315 81.2419 39.7794 83.205C36.9273 85.1681 40.1915 89.0296 41.3675 85.2561C42.5435 81.4826 45.0669 80.3529 48.7895 79.9779C52.3396 79.6189 55.0778 73.6055 61.5832 76.1075C62.2587 75.005 57.3736 73.8557 57.3736 72.1114C57.3736 69.3513 58.5807 69.3519 60.082 68.1009C61.0867 66.698 57.9755 61.5176 57.3736 65.0979C56.7717 68.1074 55.4337 71.6032 53.3263 73.6049Z" fill="#4D82B8"/>
<path d="M92.2504 68.8577C92.2504 68.8577 96.9896 71.2191 98.4021 68.236C98.9475 67.0853 96.4334 65.7 94.7809 64.4184C93.4012 63.3441 93.0249 61.6316 93.2266 59.9029C93.4284 58.1741 94.2028 56.7125 91.5033 59.4175C89.829 61.0917 88.1875 65.6946 88.1875 65.6946L92.2504 68.8577Z" fill="#4D82B8"/>
<path d="M77.3153 85.9801C76.1537 86.1983 75.123 85.4948 74.1359 84.8731C73.2633 84.3223 73.1488 83.2424 73.0288 82.3589L67.5588 46.7686C67.2152 44.4454 67.1989 43.84 68.2132 42.7221C68.5023 42.4057 69.2767 41.8931 69.7293 41.724C70.2365 41.5386 70.5637 41.5223 71.0491 41.4786L85.1303 40.3388C87.35 40.1698 88.4898 42.0349 88.6861 43.731L92.6563 78.3233C92.7054 79.9539 91.9692 81.241 90.6985 81.8736L77.3153 85.9801Z" fill="#046C7C"/>
<path d="M68.3607 45.656L74.2452 83.6731C74.5179 85.4238 76.1103 86.3999 77.7846 85.8709L90.2788 81.9171C91.7186 81.4644 92.7111 79.8065 92.5257 78.2032L88.4628 43.6272C88.2446 41.7894 86.794 40.3932 85.1961 40.5241L71.2239 41.6748C69.3424 41.8275 68.0444 43.6218 68.3607 45.6614V45.656Z" fill="#0899A7"/>
<path d="M85.305 41.3108L82.1965 41.5781L82.4582 43.6341C82.5182 44.1195 82.2237 44.5448 81.8038 44.5939L76.0939 45.1775C75.6412 45.2211 75.2104 44.8502 75.1395 44.3485L74.8395 42.2161L71.3601 42.5161C69.9204 42.6415 68.9333 44.0104 69.1678 45.5701L74.9759 83.4564C75.1777 84.798 76.3993 85.5506 77.6863 85.147L90.2078 81.2313C91.3149 80.8877 92.0839 79.6116 91.9366 78.3736L87.8191 43.6777C87.6501 42.2598 86.5321 41.1963 85.305 41.2999V41.3108Z" fill="#D5DADD"/>
<path d="M79.7529 43.414L77.0534 43.6704C76.857 43.6922 76.6716 43.534 76.6443 43.3322C76.6171 43.125 76.7534 42.945 76.9552 42.9232L79.6602 42.6778C79.8511 42.656 80.031 42.8141 80.0583 43.0159C80.0856 43.2177 79.9492 43.3977 79.7584 43.4195L79.7529 43.414Z" fill="#00144A"/>
<path d="M80.915 43.2945C81.0841 43.2617 81.1877 43.0818 81.1495 42.8854C81.1113 42.6891 80.9423 42.5582 80.7732 42.5909C80.6041 42.6237 80.4951 42.8036 80.5387 43C80.5823 43.1963 80.7459 43.3272 80.9204 43.2945H80.915Z" fill="#00144A"/>
<path d="M68.5026 53.7498L69.0862 57.5292C69.1353 57.8782 68.9226 57.9546 69.0098 57.9873L69.1898 58.0309C69.5388 57.9655 69.8279 57.9218 69.7733 57.4801L69.1843 53.439C69.1025 53.0409 68.7699 52.9263 68.4154 53.0027L68.3827 53.1336C68.1427 53.2099 68.4481 53.4008 68.4972 53.7553L68.5026 53.7498Z" fill="#0899A7"/>
<path d="M68.1862 53.6611L68.7479 57.5604C68.7915 57.8331 68.8352 58.0131 69.086 58.0349C69.3478 57.9913 69.5714 57.9858 69.5278 57.7131L68.8842 53.4375C68.8406 53.1594 68.6825 52.963 68.4152 52.9957C68.1589 53.0503 68.1426 53.3775 68.1862 53.6556V53.6611Z" fill="#046C7C"/>
<path d="M84.067 62.2144C84.1161 62.5962 84.4324 62.8579 84.776 62.7925V62.8034C85.1196 62.738 85.3595 62.3726 85.3105 61.9908L84.836 58.0806L85.7413 58.8495C86.014 59.0786 86.4012 59.0077 86.6084 58.6968C86.8102 58.386 86.7611 57.9442 86.4939 57.7097L84.3833 55.8991C84.2579 55.7791 84.0888 55.7301 83.9198 55.7573C83.7453 55.7846 83.6144 55.8773 83.5162 56.0137L81.8529 58.4951C81.6402 58.8168 81.6947 59.2695 81.9783 59.504C82.2619 59.733 82.6655 59.6621 82.8836 59.3458L83.5871 58.2933L84.0725 62.2253V62.2144H84.067Z" fill="#046C7C"/>
<path d="M77.692 67.8517L84.5253 66.3846C86.2759 66.0083 87.443 64.165 87.2031 62.1744C87.1594 61.7981 86.8486 61.5418 86.5159 61.6018C86.1832 61.6673 85.9433 62.0272 85.9869 62.409C86.1342 63.6469 85.4252 64.7813 84.3508 64.9994L77.4902 66.4228C76.6503 66.5973 75.8486 65.9756 75.7177 65.0321C75.5814 64.0832 76.1758 63.1834 77.0266 63.0198L77.572 62.9161C77.9374 62.8452 78.1937 62.4635 78.1446 62.0708C77.9483 60.6147 78.6518 59.224 79.8025 58.7823C80.1515 58.646 80.337 58.2315 80.217 57.8552C80.097 57.468 79.7207 57.2716 79.3771 57.3971C77.801 57.997 76.7648 59.6985 76.7539 61.5909C75.1833 61.9127 74.0926 63.5379 74.3489 65.3103C74.5998 67.0663 76.1159 68.1952 77.692 67.8571V67.8517Z" fill="#046C7C"/>
<path d="M82.6139 73.0212C80.8103 72.5146 79.2422 73.8543 78.9622 77.7274C78.6822 81.6005 75.5944 77.7274 75.5944 77.7274L77.0488 81.9199L84.1358 81.6005L95.4054 75.8668C95.8008 73.692 94.721 67.1332 93.772 66.975C92.5857 66.7773 90.1604 66.9751 87.8075 71.4388C86.411 74.0881 84.4478 73.5365 82.6354 73.0273L82.6139 73.0212Z" fill="#4D82B8"/>
<path d="M103.627 76.8209C104.02 73.1669 99.8967 66.2299 94.6722 67.1025C89.4476 67.9751 87.9315 74.4922 87.6206 76.0192C87.3098 77.5462 87.4734 79.2695 86.1918 76.9627C84.463 73.8541 80.0292 74.4867 79.6638 77.8898C79.4511 79.8585 79.1948 81.6419 77.6787 80.5948C76.348 79.6786 76.2826 77.8243 74.2375 76.1719C71.4888 73.9577 67.7695 75.3702 66.7006 77.4044C65.6317 79.4386 67.9767 89.1624 67.9767 89.1624L84.3976 92.5218L100.616 86.6173L103.627 76.8154V76.8209Z" fill="#D5DADD"/>
<path d="M49.158 94.3294C54.9502 94.1396 63.0204 96.2509 67.3541 96.2277C71.6878 96.2046 77.7578 94.7137 82.3601 95.2508C86.9623 95.7925 106.367 96.4453 110.608 96.1583C114.844 95.8712 119.086 93.9405 123.317 93.6905C126.734 93.4867 129.85 92.7691 129.526 90.9263C127.799 92.4959 125.873 92.5515 123.697 91.3014C121.252 89.8985 119.817 87.7918 118.539 88.1576C114.655 89.2827 114.613 91.6625 111.238 91.4542C107.858 91.2412 105.432 91.9172 102.899 93.3941C100.366 94.8711 94.6621 91.7042 89.5922 91.2875C84.5223 90.8708 81.631 90.8834 78.4594 89.4064C75.2924 87.9294 74.973 86.6298 72.4403 86.8428C69.9077 87.0557 68.8058 89.1934 65.4953 89.4064C62.0227 88.712 60.3698 90.0871 57.6242 92.1845C54.8786 94.2819 51.1489 90.4356 50.3017 88.1252C49.459 85.8148 47.1347 83.8887 45.0234 86.8426C42.9121 89.8012 39.9535 90.0096 34.916 90.417C39.4072 92.3385 41.4351 94.5748 49.1627 94.3248L49.158 94.3294Z" fill="#4D82B8"/>
</svg>
