<svg width="46" height="45" viewBox="0 0 46 45" fill="none" xmlns="http://www.w3.org/2000/svg">
<path d="M41.1187 36.8131L31.1357 33.0409C31.1034 33.0287 31.0711 33.0226 31.0388 33.0317L0.92018 35.6524C-0.139092 35.7067 -0.118924 36.1126 0.16944 36.2833L7.14183 40.943C7.72601 41.1868 8.34748 41.2447 8.95404 41.1106L40.2735 37.3587C41.151 37.2154 41.5228 37.016 41.1187 36.8131Z" fill="#1B90FF"/>
<path d="M2.82508 9.98462L10.7779 35.9673C10.9327 36.5319 11.4831 36.896 12.0621 36.8214L42.7116 32.6643C44.1248 32.2114 44.6808 30.7553 44.4372 30.0502L25.5503 7.17072C25.3754 6.67197 24.891 6.35093 24.3664 6.38533L3.96464 6.66425C3.21937 6.71011 2.20368 7.81428 2.82508 9.98462Z" fill="#00144A"/>
<path d="M3.15277 8.13928L11.5242 34.8554C11.679 35.4201 12.2294 35.7842 12.8084 35.7096L43.4939 31.5938C44.2335 31.4992 44.7007 30.7454 44.4542 30.0402L35.4335 5.60431C35.2586 5.10556 34.7742 4.78453 34.2497 4.81892L4.21335 6.65163C3.46808 6.69749 2.95498 7.41982 3.15277 8.13928Z" fill="#56BDFF"/>
<path d="M35.4338 5.60431C35.259 5.10556 34.7746 4.78453 34.25 4.81892L4.16318 6.6107C3.4179 6.65656 2.90481 7.37603 3.1026 8.09549L4.60555 12.7859L37.0381 9.84711L35.431 5.60145L35.4338 5.60431Z" fill="#0040B0"/>
<path d="M19.0789 17.1805L10.979 17.9019C10.8532 17.9147 10.7242 17.8378 10.692 17.7352L10.247 16.3212C10.2148 16.2186 10.2889 16.1256 10.4179 16.116L18.505 15.4266C18.6275 15.417 18.7533 15.4908 18.7855 15.5901L19.2434 16.9753C19.2756 17.0779 19.2047 17.1677 19.0822 17.1805H19.0789Z" fill="white"/>
<path d="M21.8714 21.2511L12.3301 22.1906C12.2043 22.2034 12.0721 22.1265 12.0399 22.0206L11.5885 20.5874C11.5562 20.4816 11.6304 20.3886 11.7593 20.3758L21.2845 19.478C21.4071 19.4652 21.5328 19.5389 21.5651 19.6415L22.0294 21.0427C22.0649 21.1453 21.9939 21.2383 21.8714 21.2511Z" fill="white"/>
<path d="M23.2836 25.5019L13.7037 26.5344C13.5747 26.5472 13.4457 26.4735 13.4102 26.3644L12.9523 24.9088C12.9201 24.8029 12.9943 24.7068 13.1232 24.6907L22.6871 23.6968C22.8096 23.6839 22.9354 23.7577 22.9709 23.8635L23.4417 25.2839C23.4771 25.3897 23.4062 25.4827 23.2836 25.4955V25.5019Z" fill="white"/>
<path d="M22.3454 30.0972L15.0935 30.9501C14.9645 30.9661 14.8323 30.8892 14.8001 30.7801L14.3358 29.3052C14.3003 29.1962 14.3777 29.0968 14.5067 29.084L21.7457 28.2632C21.8682 28.2503 21.9972 28.3241 22.0327 28.4299L22.5099 29.8792C22.5453 29.985 22.4712 30.0844 22.3487 30.0972H22.3454Z" fill="white"/>
<path d="M35.1984 15.7485L26.2955 16.5405C26.1762 16.5501 26.0537 16.4796 26.0182 16.377L25.5507 15.0111C25.5152 14.9117 25.5861 14.8219 25.7022 14.8123L34.5922 14.0556C34.705 14.0459 34.8276 14.1165 34.8598 14.2159L35.337 15.5497C35.3725 15.6491 35.308 15.7357 35.1952 15.7453L35.1984 15.7485Z" fill="white"/>
<path d="M33.9989 20.0572L27.7079 20.676C27.5886 20.6889 27.4628 20.6151 27.4306 20.5125L26.9566 19.1274C26.9211 19.0248 26.9888 18.935 27.1081 18.9222L33.3895 18.329C33.5055 18.3194 33.6281 18.3899 33.6635 18.4893L34.144 19.852C34.1795 19.9514 34.115 20.0412 33.9989 20.054V20.0572Z" fill="white"/>
<path d="M35.4564 24.1896L29.1428 24.8694C29.0235 24.8822 28.8978 24.8084 28.8623 24.7058L28.3819 23.3015C28.3464 23.1989 28.4141 23.1059 28.5334 23.093L34.8373 22.439C34.9534 22.4261 35.0759 22.4999 35.1114 22.5993L35.5983 23.9812C35.6338 24.0838 35.5693 24.1768 35.4532 24.1864L35.4564 24.1896Z" fill="white"/>
<path d="M39.5997 28.0665L30.5969 29.1246C30.4776 29.1374 30.3519 29.0636 30.3164 28.961L29.8295 27.5374C29.794 27.4348 29.8617 27.3386 29.981 27.3258L38.9677 26.3062C39.0838 26.2934 39.2063 26.3639 39.2418 26.4665L39.7384 27.8581C39.7739 27.9607 39.7126 28.0537 39.5965 28.0665H39.5997Z" fill="white"/>
<path d="M43.0692 24.1278L14.1543 27.6026C13.5321 27.6657 12.887 27.2414 12.715 26.6536L8.12469 12.0975C7.9584 11.5298 8.23651 10.3916 9.47224 10.1966L38.1894 9.04979C38.6969 9.00966 39.2703 9.38811 39.471 9.89845L44.9673 22.4591C44.6003 23.3594 44.1071 23.993 43.0692 24.1306V24.1278Z" fill="#DF1278"/>
<path d="M44.3681 22.9314L14.6962 26.4063C14.074 26.4694 13.4289 26.045 13.2569 25.4573L8.76694 11.3025C8.60065 10.7349 8.96477 10.236 9.57834 10.1844L38.7342 7.85058C39.2416 7.81044 39.8151 8.18889 40.0158 8.69923L44.9272 21.8849C45.1336 22.4096 44.887 22.8798 44.3738 22.9314H44.3681Z" fill="#FFEAF4"/>
<path fill-rule="evenodd" clip-rule="evenodd" d="M44.897 22.6261C44.8765 22.6589 44.8531 22.6896 44.8269 22.718C44.7701 22.7797 44.7002 22.8304 44.6186 22.8674C44.5468 22.8999 44.4659 22.9218 44.377 22.9311C44.3759 22.9312 44.3749 22.9313 44.3738 22.9314H44.3681L42.286 23.1752C42.2211 22.6212 42.6176 22.1195 43.1716 22.0546L43.8816 21.9715L43.683 21.4383C43.4883 20.9156 43.7542 20.334 44.277 20.1393L44.9272 21.8849C44.9303 21.8928 44.9333 21.9007 44.9362 21.9086C44.964 21.984 44.9824 22.0582 44.9921 22.13C44.9924 22.1324 44.9927 22.1347 44.993 22.1371C45.0093 22.2662 44.9971 22.3875 44.9597 22.4948C44.9435 22.5414 44.9225 22.5853 44.897 22.6261ZM42.6398 15.7441C42.1171 15.9388 41.8512 16.5204 42.0459 17.0431L42.6412 18.6414C42.8359 19.1641 43.4175 19.43 43.9402 19.2353L42.6398 15.7441ZM41.0027 11.3489C40.48 11.5436 40.2141 12.1251 40.4088 12.6479L41.0041 14.2461C41.1988 14.7688 41.7804 15.0348 42.3031 14.8401L41.0027 11.3489ZM30.836 8.48279C30.8805 9.03881 31.3674 9.45347 31.9234 9.40897L34.0438 9.23924C34.5998 9.19473 35.0145 8.7079 34.97 8.15188L30.836 8.48279ZM25.0049 8.94955C25.0494 9.50557 25.5362 9.92023 26.0922 9.87573L28.2126 9.706C28.7687 9.66149 29.1833 9.17466 29.1388 8.61864L25.0049 8.94955ZM19.1737 9.41631C19.2182 9.97233 19.705 10.387 20.261 10.3425L22.3815 10.1728C22.9375 10.1282 23.3522 9.64142 23.3076 9.0854L19.1737 9.41631ZM13.3425 9.88307C13.387 10.4391 13.8739 10.8538 14.4299 10.8092L16.5503 10.6395C17.1063 10.595 17.521 10.1082 17.4765 9.55216L13.3425 9.88307ZM10.8411 17.8414C11.3728 17.6727 11.6671 17.105 11.4984 16.5733L10.9542 14.8576C10.7855 14.3259 10.2178 14.0316 9.68609 14.2002L10.8411 17.8414ZM12.3377 22.5596C12.8694 22.391 13.1637 21.8232 12.9951 21.2915L12.4508 19.5758C12.2822 19.0441 11.7144 18.7498 11.1827 18.9185L12.3377 22.5596ZM22.7127 25.4675C22.6478 24.9135 22.1461 24.5169 21.592 24.5818L19.4341 24.8345C18.8801 24.8994 18.4836 25.4011 18.5484 25.9552L22.7127 25.4675ZM28.647 24.7725C28.5822 24.2185 28.0804 23.822 27.5264 23.8869L25.3685 24.1396C24.8145 24.2045 24.4179 24.7062 24.4828 25.2602L28.647 24.7725ZM34.5814 24.0775C34.5165 23.5235 34.0148 23.127 33.4608 23.1919L31.3029 23.4446C30.7488 23.5095 30.3523 24.0112 30.4172 24.5652L34.5814 24.0775ZM40.5158 23.3825C40.4509 22.8285 39.9492 22.432 39.3952 22.4969L37.2372 22.7496C36.6832 22.8145 36.2867 23.3162 36.3516 23.8702L40.5158 23.3825ZM16.7783 26.1625C16.7134 25.6084 16.2117 25.2119 15.6577 25.2768L14.5896 25.4019C14.4352 25.4144 14.2563 25.2766 14.2262 25.1736L14.223 25.1627L13.9475 24.2941C13.7788 23.7624 13.2111 23.4681 12.6794 23.6367L13.2569 25.4573C13.4289 26.045 14.074 26.4694 14.6962 26.4063L16.7783 26.1625ZM9.34443 13.1231C9.87613 12.9545 10.1704 12.3867 10.0018 11.855L9.78791 11.1808L10.7191 11.1063C11.2752 11.0618 11.6898 10.5749 11.6453 10.0189L9.57834 10.1844C8.96477 10.236 8.60065 10.7349 8.76694 11.3025L9.34443 13.1231ZM9.63886 11.1949C9.63869 11.1949 9.63886 11.1949 9.63886 11.1949V11.1949ZM36.6672 8.01603C36.7117 8.57205 37.1985 8.98671 37.7545 8.94221L38.8116 8.8576C38.8109 8.85766 38.8106 8.8577 38.8106 8.85777C38.8105 8.85851 38.8578 8.86123 38.9328 8.91083C39.0127 8.96373 39.058 9.02728 39.0741 9.06454L39.367 9.8509C39.5617 10.3736 40.1433 10.6395 40.666 10.4448L40.0158 8.69923C39.8151 8.18889 39.2416 7.81044 38.7342 7.85058L36.6672 8.01603Z" fill="#9B015D"/>
<path d="M21.3625 14.1607L13.8622 14.8537C13.7509 14.8645 13.636 14.7926 13.6072 14.6957L13.1872 13.3781C13.1548 13.2811 13.2195 13.195 13.3308 13.1842L20.8167 12.5128C20.9244 12.502 21.0357 12.5738 21.0681 12.6672L21.4989 13.9669C21.5312 14.0638 21.4702 14.1464 21.3625 14.1572V14.1607Z" fill="#0040B0"/>
<path d="M23.9044 17.972L15.1367 18.8481C15.0254 18.8588 14.9105 18.787 14.8782 18.6901L14.4545 17.3545C14.4222 17.2576 14.4868 17.1678 14.5981 17.157L23.3515 16.3097C23.4592 16.2989 23.5705 16.3672 23.6028 16.4641L24.0408 17.7782C24.0731 17.8751 24.0121 17.9613 23.9044 17.972Z" fill="#0040B0"/>
<path d="M25.2293 21.9545L16.422 22.8988C16.3107 22.9095 16.1959 22.8413 16.1635 22.7408L15.7327 21.3872C15.7004 21.2867 15.765 21.197 15.8763 21.1862L24.6692 20.2706C24.7769 20.2599 24.8918 20.3281 24.9241 20.425L25.3693 21.757C25.4016 21.854 25.3406 21.9437 25.2329 21.9545H25.2293Z" fill="#0040B0"/>
<path d="M37.8092 12.5451L29.5872 13.3062C29.4831 13.317 29.3718 13.2488 29.3395 13.1554L28.8942 11.8809C28.8619 11.7875 28.9194 11.7049 29.0235 11.6942L37.2311 10.9582C37.3317 10.9474 37.4394 11.0156 37.4717 11.1089L37.9277 12.362C37.96 12.4553 37.9061 12.5379 37.8056 12.5451H37.8092Z" fill="#0040B0"/>
<path d="M36.8542 16.5813L30.9337 17.1701C30.8296 17.1809 30.7183 17.1127 30.6859 17.0157L30.2371 15.7232C30.2048 15.6299 30.2623 15.5437 30.3664 15.5329L36.2762 14.9621C36.3767 14.9513 36.488 15.0195 36.5203 15.1129L36.9799 16.3874C37.0122 16.4808 36.9583 16.5669 36.8578 16.5741L36.8542 16.5813Z" fill="#0040B0"/>
<path d="M38.2402 20.4505L32.2945 21.086C32.1904 21.0967 32.0791 21.0285 32.0432 20.9316L31.5872 19.6211C31.5549 19.5242 31.6124 19.438 31.7165 19.4272L37.6514 18.8097C37.7519 18.7989 37.8632 18.8672 37.8991 18.9605L38.3623 20.253C38.3982 20.3464 38.3408 20.4325 38.2402 20.4469V20.4505Z" fill="#0040B0"/>
</svg>
