<?xml version="1.0" encoding="UTF-8"?>
<!--Generator: Apple Native CoreSVG 175.5-->
<!DOCTYPE svg
PUBLIC "-//W3C//DTD SVG 1.1//EN"
       "http://www.w3.org/Graphics/SVG/1.1/DTD/svg11.dtd">
<svg version="1.1" xmlns="http://www.w3.org/2000/svg" xmlns:xlink="http://www.w3.org/1999/xlink" width="3300" height="2200">
 <!--glyph: "", point size: 100.0, font version: "18.0d12e2", template writer version: "101"-->
 <g id="Notes">
  <rect height="2200" id="artboard" style="fill:white;opacity:1" width="3300" x="0" y="0"/>
  <line style="fill:none;stroke:black;opacity:1;stroke-width:0.5;" x1="263" x2="3036" y1="292" y2="292"/>
  <text style="stroke:none;fill:black;font-family:sans-serif;font-size:13;font-weight:bold;" transform="matrix(1 0 0 1 263 322)">Weight/Scale Variations</text>
  <text style="stroke:none;fill:black;font-family:sans-serif;font-size:13;text-anchor:middle;" transform="matrix(1 0 0 1 559.711 322)">Ultralight</text>
  <text style="stroke:none;fill:black;font-family:sans-serif;font-size:13;text-anchor:middle;" transform="matrix(1 0 0 1 856.422 322)">Thin</text>
  <text style="stroke:none;fill:black;font-family:sans-serif;font-size:13;text-anchor:middle;" transform="matrix(1 0 0 1 1153.13 322)">Light</text>
  <text style="stroke:none;fill:black;font-family:sans-serif;font-size:13;text-anchor:middle;" transform="matrix(1 0 0 1 1449.84 322)">Regular</text>
  <text style="stroke:none;fill:black;font-family:sans-serif;font-size:13;text-anchor:middle;" transform="matrix(1 0 0 1 1746.56 322)">Medium</text>
  <text style="stroke:none;fill:black;font-family:sans-serif;font-size:13;text-anchor:middle;" transform="matrix(1 0 0 1 2043.27 322)">Semibold</text>
  <text style="stroke:none;fill:black;font-family:sans-serif;font-size:13;text-anchor:middle;" transform="matrix(1 0 0 1 2339.98 322)">Bold</text>
  <text style="stroke:none;fill:black;font-family:sans-serif;font-size:13;text-anchor:middle;" transform="matrix(1 0 0 1 2636.69 322)">Heavy</text>
  <text style="stroke:none;fill:black;font-family:sans-serif;font-size:13;text-anchor:middle;" transform="matrix(1 0 0 1 2933.4 322)">Black</text>
  <line style="fill:none;stroke:black;opacity:1;stroke-width:0.5;" x1="263" x2="3036" y1="1903" y2="1903"/>
  <g transform="matrix(1 0 0 1 263 1933)">
   <path d="M9.24805 0.830078C13.5547 0.830078 17.1387-2.74414 17.1387-7.05078C17.1387-11.3574 13.5449-14.9316 9.23828-14.9316C4.94141-14.9316 1.36719-11.3574 1.36719-7.05078C1.36719-2.74414 4.95117 0.830078 9.24805 0.830078ZM9.24805-0.654297C5.70312-0.654297 2.87109-3.49609 2.87109-7.05078C2.87109-10.6055 5.69336-13.4473 9.23828-13.4473C12.793-13.4473 15.6445-10.6055 15.6445-7.05078C15.6445-3.49609 12.8027-0.654297 9.24805-0.654297ZM5.6543-7.05078C5.6543-6.62109 5.95703-6.32812 6.40625-6.32812L8.50586-6.32812L8.50586-4.20898C8.50586-3.76953 8.79883-3.4668 9.22852-3.4668C9.67773-3.4668 9.9707-3.76953 9.9707-4.20898L9.9707-6.32812L12.0898-6.32812C12.5293-6.32812 12.832-6.62109 12.832-7.05078C12.832-7.49023 12.5293-7.79297 12.0898-7.79297L9.9707-7.79297L9.9707-9.90234C9.9707-10.3516 9.67773-10.6543 9.22852-10.6543C8.79883-10.6543 8.50586-10.3516 8.50586-9.90234L8.50586-7.79297L6.40625-7.79297C5.95703-7.79297 5.6543-7.49023 5.6543-7.05078Z"/>
  </g>
  <g transform="matrix(1 0 0 1 281.867 1933)">
   <path d="M11.709 2.91016C17.1582 2.91016 21.6699-1.61133 21.6699-7.05078C21.6699-12.5 17.1484-17.0117 11.6992-17.0117C6.25977-17.0117 1.74805-12.5 1.74805-7.05078C1.74805-1.61133 6.26953 2.91016 11.709 2.91016ZM11.709 1.25C7.09961 1.25 3.41797-2.44141 3.41797-7.05078C3.41797-11.6602 7.08984-15.3516 11.6992-15.3516C16.3086-15.3516 20.0098-11.6602 20.0098-7.05078C20.0098-2.44141 16.3184 1.25 11.709 1.25ZM7.17773-7.05078C7.17773-6.57227 7.50977-6.25 8.00781-6.25L10.8789-6.25L10.8789-3.36914C10.8789-2.88086 11.2109-2.53906 11.6895-2.53906C12.1777-2.53906 12.5195-2.87109 12.5195-3.36914L12.5195-6.25L15.4004-6.25C15.8887-6.25 16.2305-6.57227 16.2305-7.05078C16.2305-7.53906 15.8887-7.88086 15.4004-7.88086L12.5195-7.88086L12.5195-10.752C12.5195-11.25 12.1777-11.5918 11.6895-11.5918C11.2109-11.5918 10.8789-11.25 10.8789-10.752L10.8789-7.88086L8.00781-7.88086C7.50977-7.88086 7.17773-7.53906 7.17773-7.05078Z"/>
  </g>
  <g transform="matrix(1 0 0 1 305.646 1933)">
   <path d="M14.9707 5.66406C21.9336 5.66406 27.6953-0.0976562 27.6953-7.05078C27.6953-14.0137 21.9238-19.7754 14.9609-19.7754C8.00781-19.7754 2.25586-14.0137 2.25586-7.05078C2.25586-0.0976562 8.01758 5.66406 14.9707 5.66406ZM14.9707 3.84766C8.93555 3.84766 4.08203-1.01562 4.08203-7.05078C4.08203-13.0957 8.92578-17.9492 14.9609-17.9492C21.0059-17.9492 25.8691-13.0957 25.8691-7.05078C25.8691-1.01562 21.0156 3.84766 14.9707 3.84766ZM9.19922-7.05078C9.19922-6.5332 9.57031-6.17188 10.1172-6.17188L14.0625-6.17188L14.0625-2.2168C14.0625-1.67969 14.4336-1.29883 14.9512-1.29883C15.4883-1.29883 15.8594-1.66992 15.8594-2.2168L15.8594-6.17188L19.8145-6.17188C20.3516-6.17188 20.7324-6.5332 20.7324-7.05078C20.7324-7.59766 20.3613-7.96875 19.8145-7.96875L15.8594-7.96875L15.8594-11.9141C15.8594-12.4609 15.4883-12.8418 14.9512-12.8418C14.4336-12.8418 14.0625-12.4609 14.0625-11.9141L14.0625-7.96875L10.1172-7.96875C9.57031-7.96875 9.19922-7.59766 9.19922-7.05078Z"/>
  </g>
  <text style="stroke:none;fill:black;font-family:sans-serif;font-size:13;font-weight:bold;" transform="matrix(1 0 0 1 263 1953)">Design Variations</text>
  <text style="stroke:none;fill:black;font-family:sans-serif;font-size:13;" transform="matrix(1 0 0 1 263 1971)">Symbols are supported in up to nine weights and three scales.</text>
  <text style="stroke:none;fill:black;font-family:sans-serif;font-size:13;" transform="matrix(1 0 0 1 263 1989)">For optimal layout with text and other symbols, vertically align</text>
  <text style="stroke:none;fill:black;font-family:sans-serif;font-size:13;" transform="matrix(1 0 0 1 263 2007)">symbols with the adjacent text.</text>
  <line style="fill:none;stroke:#00AEEF;stroke-width:0.5;opacity:1.0;" x1="776" x2="776" y1="1919" y2="1933"/>
  <g transform="matrix(1 0 0 1 776 1933)">
   <path d="M3.31055 0.15625C3.82812 0.15625 4.08203-0.0390625 4.26758-0.585938L5.52734-4.0332L11.2891-4.0332L12.5488-0.585938C12.7344-0.0390625 12.9883 0.15625 13.4961 0.15625C14.0137 0.15625 14.3457-0.15625 14.3457-0.644531C14.3457-0.810547 14.3164-0.966797 14.2383-1.17188L9.6582-13.3691C9.43359-13.9648 9.0332-14.2676 8.4082-14.2676C7.80273-14.2676 7.39258-13.9746 7.17773-13.3789L2.59766-1.16211C2.51953-0.957031 2.49023-0.800781 2.49023-0.634766C2.49023-0.146484 2.80273 0.15625 3.31055 0.15625ZM6.00586-5.51758L8.37891-12.0898L8.42773-12.0898L10.8008-5.51758Z"/>
  </g>
  <line style="fill:none;stroke:#00AEEF;stroke-width:0.5;opacity:1.0;" x1="793.197" x2="793.197" y1="1919" y2="1933"/>
  <text style="stroke:none;fill:black;font-family:sans-serif;font-size:13;font-weight:bold;" transform="matrix(1 0 0 1 776 1953)">Margins</text>
  <text style="stroke:none;fill:black;font-family:sans-serif;font-size:13;" transform="matrix(1 0 0 1 776 1971)">Leading and trailing margins on the left and right side of each symbol</text>
  <text style="stroke:none;fill:black;font-family:sans-serif;font-size:13;" transform="matrix(1 0 0 1 776 1989)">can be adjusted by modifying the x-location of the margin guidelines.</text>
  <text style="stroke:none;fill:black;font-family:sans-serif;font-size:13;" transform="matrix(1 0 0 1 776 2007)">Modifications are automatically applied proportionally to all</text>
  <text style="stroke:none;fill:black;font-family:sans-serif;font-size:13;" transform="matrix(1 0 0 1 776 2025)">scales and weights.</text>
  <g transform="matrix(1 0 0 1 1289 1933)">
   <path d="M2.8418 1.86523L4.54102 3.57422C5.40039 4.44336 6.38672 4.38477 7.31445 3.35938L18.0078-8.42773L17.041-9.4043L6.42578 2.27539C6.07422 2.67578 5.74219 2.77344 5.27344 2.30469L4.10156 1.14258C3.63281 0.683594 3.74023 0.341797 4.14062-0.0195312L15.6152-10.8203L14.6387-11.7871L3.04688-0.898438C2.06055 0.0195312 1.98242 0.996094 2.8418 1.86523ZM9.25781-16.3281C8.83789-15.918 8.80859-15.3418 9.04297-14.9512C9.27734-14.5898 9.73633-14.3555 10.3809-14.5215C11.8457-14.8633 13.3691-14.9219 14.7949-13.9844L14.209-12.5293C13.8672-11.6992 14.043-11.1133 14.5801-10.5664L16.875-8.25195C17.3633-7.76367 17.7734-7.74414 18.3398-7.8418L19.4043-8.03711L20.0684-7.36328L20.0293-6.80664C19.9902-6.30859 20.1172-5.92773 20.6055-5.44922L21.3672-4.70703C21.8457-4.22852 22.4609-4.19922 22.9297-4.66797L25.8398-7.58789C26.3086-8.05664 26.2891-8.65234 25.8105-9.13086L25.0391-9.89258C24.5605-10.3711 24.1895-10.5273 23.7109-10.4883L23.1348-10.4395L22.4902-11.0742L22.7344-12.1973C22.8613-12.7637 22.7051-13.2031 22.1191-13.7891L19.9219-15.9766C16.582-19.2969 12.1484-19.2188 9.25781-16.3281ZM10.752-15.957C13.1836-17.7344 16.4746-17.4316 18.7012-15.2051L21.1328-12.793C21.3672-12.5586 21.4062-12.373 21.3379-12.0312L21.0156-10.5469L22.5195-9.0625L23.5059-9.12109C23.7598-9.13086 23.8379-9.11133 24.0332-8.91602L24.6094-8.33984L22.168-5.89844L21.5918-6.47461C21.3965-6.66992 21.3672-6.74805 21.377-7.01172L21.4453-7.98828L19.9512-9.47266L18.4277-9.21875C18.1055-9.15039 17.959-9.17969 17.7148-9.41406L15.7129-11.416C15.459-11.6504 15.4297-11.8164 15.5859-12.1875L16.4648-14.2773C14.9023-15.7324 12.8711-16.3574 10.8398-15.7617C10.6836-15.7227 10.625-15.8496 10.752-15.957Z"/>
  </g>
  <text style="stroke:none;fill:black;font-family:sans-serif;font-size:13;font-weight:bold;" transform="matrix(1 0 0 1 1289 1953)">Exporting</text>
  <text style="stroke:none;fill:black;font-family:sans-serif;font-size:13;" transform="matrix(1 0 0 1 1289 1971)">Symbols should be outlined when exporting to ensure the</text>
  <text style="stroke:none;fill:black;font-family:sans-serif;font-size:13;" transform="matrix(1 0 0 1 1289 1989)">design is preserved when submitting to Xcode.</text>
  <text id="template-version" style="stroke:none;fill:black;font-family:sans-serif;font-size:13;text-anchor:end;" transform="matrix(1 0 0 1 3036 1933)">Template v.3.0</text>
  <text style="stroke:none;fill:black;font-family:sans-serif;font-size:13;text-anchor:end;" transform="matrix(1 0 0 1 3036 1951)">Requires Xcode 13 or greater</text>
  <text id="descriptive-name" style="stroke:none;fill:black;font-family:sans-serif;font-size:13;text-anchor:end;" transform="matrix(1 0 0 1 3036 1969)">Generated from fiori.simulate</text>
  <text style="stroke:none;fill:black;font-family:sans-serif;font-size:13;text-anchor:end;" transform="matrix(1 0 0 1 3036 1987)">Typeset at 100 points</text>
  <text style="stroke:none;fill:black;font-family:sans-serif;font-size:13;" transform="matrix(1 0 0 1 263 726)">Small</text>
  <text style="stroke:none;fill:black;font-family:sans-serif;font-size:13;" transform="matrix(1 0 0 1 263 1156)">Medium</text>
  <text style="stroke:none;fill:black;font-family:sans-serif;font-size:13;" transform="matrix(1 0 0 1 263 1586)">Large</text>
 </g>
 <g id="Guides">
  <g id="H-reference" style="fill:#27AAE1;stroke:none;" transform="matrix(1 0 0 1 339 696)">
   <path d="M0.993654 0L3.63775 0L29.3281-67.1323L30.0303-67.1323L30.0303-70.459L28.1226-70.459ZM11.6885-24.4799L46.9815-24.4799L46.2315-26.7285L12.4385-26.7285ZM55.1196 0L57.7637 0L30.6382-70.459L29.4326-70.459L29.4326-67.1323Z"/>
  </g>
  <line id="Baseline-S" style="fill:none;stroke:#27AAE1;opacity:1;stroke-width:0.5;" x1="263" x2="3036" y1="696" y2="696"/>
  <line id="Capline-S" style="fill:none;stroke:#27AAE1;opacity:1;stroke-width:0.5;" x1="263" x2="3036" y1="625.541" y2="625.541"/>
  <g id="H-reference" style="fill:#27AAE1;stroke:none;" transform="matrix(1 0 0 1 339 1126)">
   <path d="M0.993654 0L3.63775 0L29.3281-67.1323L30.0303-67.1323L30.0303-70.459L28.1226-70.459ZM11.6885-24.4799L46.9815-24.4799L46.2315-26.7285L12.4385-26.7285ZM55.1196 0L57.7637 0L30.6382-70.459L29.4326-70.459L29.4326-67.1323Z"/>
  </g>
  <line id="Baseline-M" style="fill:none;stroke:#27AAE1;opacity:1;stroke-width:0.5;" x1="263" x2="3036" y1="1126" y2="1126"/>
  <line id="Capline-M" style="fill:none;stroke:#27AAE1;opacity:1;stroke-width:0.5;" x1="263" x2="3036" y1="1055.54" y2="1055.54"/>
  <g id="H-reference" style="fill:#27AAE1;stroke:none;" transform="matrix(1 0 0 1 339 1556)">
   <path d="M0.993654 0L3.63775 0L29.3281-67.1323L30.0303-67.1323L30.0303-70.459L28.1226-70.459ZM11.6885-24.4799L46.9815-24.4799L46.2315-26.7285L12.4385-26.7285ZM55.1196 0L57.7637 0L30.6382-70.459L29.4326-70.459L29.4326-67.1323Z"/>
  </g>
  <line id="Baseline-L" style="fill:none;stroke:#27AAE1;opacity:1;stroke-width:0.5;" x1="263" x2="3036" y1="1556" y2="1556"/>
  <line id="Capline-L" style="fill:none;stroke:#27AAE1;opacity:1;stroke-width:0.5;" x1="263" x2="3036" y1="1485.54" y2="1485.54"/>
  <line id="left-margin-Ultralight-S" style="fill:none;stroke:#00AEEF;stroke-width:0.5;opacity:1.0;" x1="515.011" x2="515.011" y1="600.785" y2="720.121"/>
  <line id="right-margin-Ultralight-S" style="fill:none;stroke:#00AEEF;stroke-width:0.5;opacity:1.0;" x1="604.411" x2="604.411" y1="600.785" y2="720.121"/>
  <line id="left-margin-Regular-S" style="fill:none;stroke:#00AEEF;stroke-width:0.5;opacity:1.0;" x1="1403.39" x2="1403.39" y1="600.785" y2="720.121"/>
  <line id="right-margin-Regular-S" style="fill:none;stroke:#00AEEF;stroke-width:0.5;opacity:1.0;" x1="1496.29" x2="1496.29" y1="600.785" y2="720.121"/>
  <line id="left-margin-Black-S" style="fill:none;stroke:#00AEEF;stroke-width:0.5;opacity:1.0;" x1="2884.9" x2="2884.9" y1="600.785" y2="720.121"/>
  <line id="right-margin-Black-S" style="fill:none;stroke:#00AEEF;stroke-width:0.5;opacity:1.0;" x1="2981.9" x2="2981.9" y1="600.785" y2="720.121"/>
 </g>
 <g id="Symbols">
  <g id="Black-S" transform="matrix(1 0 0 1 2884.9 696)">
   <path d="M60.51-45.8L36.51-45.8C33.51-45.8 31.11-48.2 31.11-51.2L31.11-55.2C31.11-58.2 33.51-60.6 36.51-60.6L60.51-60.6C63.51-60.6 65.91-58.2 65.91-55.2L65.91-51.2C65.91-48.3 63.51-45.8 60.51-45.8ZM36.51-21.8C39.51-21.8 41.91-24.2 41.91-27.2C41.91-30.2 39.51-32.6 36.51-32.6C33.51-32.6 31.11-30.2 31.11-27.2C31.11-24.2 33.51-21.8 36.51-21.8ZM48.51-21.8C51.51-21.8 53.91-24.2 53.91-27.2C53.91-30.2 51.51-32.6 48.51-32.6C45.51-32.6 43.11-30.2 43.11-27.2C43.11-24.2 45.51-21.8 48.51-21.8ZM36.51-33.8C39.51-33.8 41.91-36.2 41.91-39.2C41.91-42.2 39.51-44.6 36.51-44.6C33.51-44.6 31.11-42.2 31.11-39.2C31.11-36.2 33.51-33.8 36.51-33.8ZM48.51-33.8C51.51-33.8 53.91-36.2 53.91-39.2C53.91-42.2 51.51-44.6 48.51-44.6C45.51-44.6 43.11-42.2 43.11-39.2C43.11-36.2 45.51-33.8 48.51-33.8ZM60.51-33.8C63.51-33.8 65.91-36.2 65.91-39.2C65.91-42.2 63.51-44.6 60.51-44.6C57.51-44.6 55.11-42.2 55.11-39.2C55.11-36.2 57.51-33.8 60.51-33.8ZM60.51-21.8C63.51-21.8 65.91-24.2 65.91-27.2C65.91-30.2 63.51-32.6 60.51-32.6C57.51-32.6 55.11-30.2 55.11-27.2C55.11-24.2 57.51-21.8 60.51-21.8ZM60.51-9.8C63.51-9.8 65.91-12.2 65.91-15.2C65.91-18.2 63.51-20.6 60.51-20.6C57.51-20.6 55.11-18.2 55.11-15.2C55.11-12.2 57.51-9.8 60.51-9.8ZM48.51-9.9C51.51-9.9 53.91-12.3 53.91-15.3C53.91-18.3 51.51-20.7 48.51-20.7C45.51-20.7 43.11-18.3 43.11-15.3C43.11-12.3 45.51-9.9 48.51-9.9ZM36.51-9.8C39.51-9.8 41.91-12.2 41.91-15.2C41.91-18.2 39.51-20.6 36.51-20.6C33.51-20.6 31.11-18.2 31.11-15.2C31.11-12.2 33.51-9.8 36.51-9.8ZM64.51 2.2L32.51 2.2C25.11 2.2 19.11-3.8 19.11-11.2L19.11-59.2C19.11-66.6 25.11-72.6 32.51-72.6L64.51-72.6C71.91-72.6 77.91-66.6 77.91-59.2L77.91-11.2C77.91-3.8 71.91 2.2 64.51 2.2ZM32.51-61.8C31.11-61.8 29.91-60.6 29.91-59.2L29.91-11.2C29.91-9.8 31.11-8.6 32.51-8.6L64.51-8.6C65.91-8.6 67.11-9.8 67.11-11.2L67.11-59.2C67.11-60.6 65.91-61.8 64.51-61.8L32.51-61.8Z"/>
  </g>
  <g id="Regular-S" transform="matrix(1 0 0 1 1403.39 696)">
   <path d="M58.46-47.3L34.46-47.3C32.26-47.3 30.46-49.1 30.46-51.3L30.46-55.3C30.46-57.5 32.26-59.3 34.46-59.3L58.46-59.3C60.66-59.3 62.46-57.5 62.46-55.3L62.46-51.3C62.46-49 60.76-47.3 58.46-47.3ZM34.46-23.3C36.66-23.3 38.46-25.1 38.46-27.3C38.46-29.5 36.66-31.3 34.46-31.3C32.26-31.3 30.46-29.5 30.46-27.3C30.46-25.1 32.26-23.3 34.46-23.3ZM46.46-23.3C48.66-23.3 50.46-25.1 50.46-27.3C50.46-29.5 48.66-31.3 46.46-31.3C44.26-31.3 42.46-29.5 42.46-27.3C42.46-25.1 44.26-23.3 46.46-23.3ZM34.46-35.3C36.66-35.3 38.46-37.1 38.46-39.3C38.46-41.5 36.66-43.3 34.46-43.3C32.26-43.3 30.46-41.5 30.46-39.3C30.46-37.1 32.26-35.3 34.46-35.3ZM46.46-35.3C48.66-35.3 50.46-37.1 50.46-39.3C50.46-41.5 48.66-43.3 46.46-43.3C44.26-43.3 42.46-41.5 42.46-39.3C42.46-37.1 44.26-35.3 46.46-35.3ZM58.46-35.3C60.66-35.3 62.46-37.1 62.46-39.3C62.46-41.5 60.66-43.3 58.46-43.3C56.26-43.3 54.46-41.5 54.46-39.3C54.46-37.1 56.26-35.3 58.46-35.3ZM58.46-23.3C60.66-23.3 62.46-25.1 62.46-27.3C62.46-29.5 60.66-31.3 58.46-31.3C56.26-31.3 54.46-29.5 54.46-27.3C54.46-25.1 56.26-23.3 58.46-23.3ZM58.46-11.3C60.66-11.3 62.46-13.1 62.46-15.3C62.46-17.5 60.66-19.3 58.46-19.3C56.26-19.3 54.46-17.5 54.46-15.3C54.46-13.1 56.26-11.3 58.46-11.3ZM46.46-11.3C48.66-11.3 50.46-13.1 50.46-15.3C50.46-17.5 48.66-19.3 46.46-19.3C44.26-19.3 42.46-17.5 42.46-15.3C42.46-13.1 44.26-11.3 46.46-11.3ZM34.46-11.3C36.66-11.3 38.46-13.1 38.46-15.3C38.46-17.5 36.66-19.3 34.46-19.3C32.26-19.3 30.46-17.5 30.46-15.3C30.46-13.1 32.26-11.3 34.46-11.3ZM62.46 0.8L30.46 0.8C23.86 0.8 18.46-4.6 18.46-11.2L18.46-59.2C18.46-65.8 23.86-71.2 30.46-71.2L62.46-71.2C69.06-71.2 74.46-65.8 74.46-59.2L74.46-11.2C74.46-4.6 69.16 0.8 62.46 0.8ZM30.46-63.3C28.26-63.3 26.46-61.5 26.46-59.3L26.46-11.3C26.46-9.1 28.26-7.3 30.46-7.3L62.46-7.3C64.66-7.3 66.46-9.1 66.46-11.3L66.46-59.3C66.46-61.5 64.66-63.3 62.46-63.3L30.46-63.3Z"/>
  </g>
  <g id="Ultralight-S" transform="matrix(1 0 0 1 515.011 696)">
   <path d="M56.775-50.1L32.775-50.1C32.175-50.1 31.575-50.6 31.575-51.3L31.575-55.3C31.575-55.9 32.075-56.5 32.775-56.5L56.775-56.5C57.375-56.5 57.975-56 57.975-55.3L57.975-51.3C57.875-50.6 57.375-50.1 56.775-50.1ZM32.775-25.7C33.675-25.7 34.375-26.4 34.375-27.3C34.375-28.2 33.675-28.9 32.775-28.9C31.875-28.9 31.175-28.2 31.175-27.3C31.175-26.4 31.875-25.7 32.775-25.7ZM44.775-25.7C45.675-25.7 46.375-26.4 46.375-27.3C46.375-28.2 45.675-28.9 44.775-28.9C43.875-28.9 43.175-28.2 43.175-27.3C43.175-26.4 43.875-25.7 44.775-25.7ZM32.775-37.7C33.675-37.7 34.375-38.4 34.375-39.3C34.375-40.2 33.675-40.9 32.775-40.9C31.875-40.9 31.175-40.2 31.175-39.3C31.175-38.4 31.875-37.7 32.775-37.7ZM44.775-37.7C45.675-37.7 46.375-38.4 46.375-39.3C46.375-40.2 45.675-40.9 44.775-40.9C43.875-40.9 43.175-40.2 43.175-39.3C43.175-38.4 43.875-37.7 44.775-37.7ZM56.775-37.7C57.675-37.7 58.375-38.4 58.375-39.3C58.375-40.2 57.675-40.9 56.775-40.9C55.875-40.9 55.175-40.2 55.175-39.3C55.175-38.4 55.875-37.7 56.775-37.7ZM56.775-25.7C57.675-25.7 58.375-26.4 58.375-27.3C58.375-28.2 57.675-28.9 56.775-28.9C55.875-28.9 55.175-28.2 55.175-27.3C55.175-26.4 55.875-25.7 56.775-25.7ZM56.775-13.7C57.675-13.7 58.375-14.4 58.375-15.3C58.375-16.2 57.675-16.9 56.775-16.9C55.875-16.9 55.175-16.2 55.175-15.3C55.175-14.4 55.875-13.7 56.775-13.7ZM44.775-13.7C45.675-13.7 46.375-14.4 46.375-15.3C46.375-16.2 45.675-16.9 44.775-16.9C43.875-16.9 43.175-16.2 43.175-15.3C43.175-14.4 43.875-13.7 44.775-13.7ZM32.775-13.7C33.675-13.7 34.375-14.4 34.375-15.3C34.375-16.2 33.675-16.9 32.775-16.9C31.875-16.9 31.175-16.2 31.175-15.3C31.175-14.4 31.875-13.7 32.775-13.7ZM60.775-2.1L28.775-2.1C23.675-2.1 19.575-6.2 19.575-11.3L19.575-59.3C19.575-64.4 23.675-68.5 28.775-68.5L60.775-68.5C65.875-68.5 69.975-64.4 69.975-59.3L69.975-11.3C69.875-6.2 65.775-2.1 60.775-2.1ZM28.775-66.1C24.975-66.1 21.975-63 21.975-59.3L21.975-11.3C21.975-7.5 25.075-4.5 28.775-4.5L60.775-4.5C64.575-4.5 67.575-7.6 67.575-11.3L67.575-59.3C67.575-63.1 64.475-66.1 60.775-66.1L28.775-66.1Z"/>
  </g>
 </g>
</svg>
