<?xml version="1.0" encoding="UTF-8"?>
<!--Generator: Apple Native CoreSVG 232.5-->
<!DOCTYPE svg
PUBLIC "-//W3C//DTD SVG 1.1//EN"
       "http://www.w3.org/Graphics/SVG/1.1/DTD/svg11.dtd">
<svg version="1.1" xmlns="http://www.w3.org/2000/svg" xmlns:xlink="http://www.w3.org/1999/xlink" width="3300" height="2200">
 <!--glyph: "", point size: 100.0, font version: "19.0d6e1", template writer version: "123"-->
 <style>.SFSymbolsPreviewWireframe {fill:none;opacity:1.0;stroke:black;stroke-width:0.5}
</style>
 <g id="Notes">
  <rect height="2200" id="artboard" style="fill:white;opacity:1" width="3300" x="0" y="0"/>
  <line style="fill:none;stroke:black;opacity:1;stroke-width:0.5;" x1="263" x2="3036" y1="292" y2="292"/>
  <text style="stroke:none;fill:black;font-family:sans-serif;font-size:13;font-weight:bold;" transform="matrix(1 0 0 1 263 322)">Weight/Scale Variations</text>
  <text style="stroke:none;fill:black;font-family:sans-serif;font-size:13;text-anchor:middle;" transform="matrix(1 0 0 1 559.711 322)">Ultralight</text>
  <text style="stroke:none;fill:black;font-family:sans-serif;font-size:13;text-anchor:middle;" transform="matrix(1 0 0 1 856.422 322)">Thin</text>
  <text style="stroke:none;fill:black;font-family:sans-serif;font-size:13;text-anchor:middle;" transform="matrix(1 0 0 1 1153.13 322)">Light</text>
  <text style="stroke:none;fill:black;font-family:sans-serif;font-size:13;text-anchor:middle;" transform="matrix(1 0 0 1 1449.84 322)">Regular</text>
  <text style="stroke:none;fill:black;font-family:sans-serif;font-size:13;text-anchor:middle;" transform="matrix(1 0 0 1 1746.56 322)">Medium</text>
  <text style="stroke:none;fill:black;font-family:sans-serif;font-size:13;text-anchor:middle;" transform="matrix(1 0 0 1 2043.27 322)">Semibold</text>
  <text style="stroke:none;fill:black;font-family:sans-serif;font-size:13;text-anchor:middle;" transform="matrix(1 0 0 1 2339.98 322)">Bold</text>
  <text style="stroke:none;fill:black;font-family:sans-serif;font-size:13;text-anchor:middle;" transform="matrix(1 0 0 1 2636.69 322)">Heavy</text>
  <text style="stroke:none;fill:black;font-family:sans-serif;font-size:13;text-anchor:middle;" transform="matrix(1 0 0 1 2933.4 322)">Black</text>
  <line style="fill:none;stroke:black;opacity:1;stroke-width:0.5;" x1="263" x2="3036" y1="1903" y2="1903"/>
  <g transform="matrix(0.2 0 0 0.2 263 1933)">
   <path d="m46.2402 4.15039c21.5332 0 39.4531-17.8711 39.4531-39.4043s-17.9688-39.4043-39.502-39.4043c-21.4844 0-39.3555 17.8711-39.3555 39.4043s17.9199 39.4043 39.4043 39.4043Zm0-7.42188c-17.7246 0-31.8848-14.209-31.8848-31.9824s14.1113-31.9824 31.8359-31.9824c17.7734 0 32.0312 14.209 32.0312 31.9824s-14.209 31.9824-31.9824 31.9824Zm-17.9688-31.9824c0 2.14844 1.51367 3.61328 3.75977 3.61328h10.498v10.5957c0 2.19727 1.46484 3.71094 3.61328 3.71094 2.24609 0 3.71094-1.51367 3.71094-3.71094v-10.5957h10.5957c2.19727 0 3.71094-1.46484 3.71094-3.61328 0-2.19727-1.51367-3.71094-3.71094-3.71094h-10.5957v-10.5469c0-2.24609-1.46484-3.75977-3.71094-3.75977-2.14844 0-3.61328 1.51367-3.61328 3.75977v10.5469h-10.498c-2.24609 0-3.75977 1.51367-3.75977 3.71094Z"/>
  </g>
  <g transform="matrix(0.2 0 0 0.2 281.506 1933)">
   <path d="m58.5449 14.5508c27.2461 0 49.8047-22.6074 49.8047-49.8047 0-27.2461-22.6074-49.8047-49.8535-49.8047-27.1973 0-49.7559 22.5586-49.7559 49.8047 0 27.1973 22.6074 49.8047 49.8047 49.8047Zm0-8.30078c-23.0469 0-41.4551-18.457-41.4551-41.5039s18.3594-41.5039 41.4062-41.5039 41.5527 18.457 41.5527 41.5039-18.457 41.5039-41.5039 41.5039Zm-22.6562-41.5039c0 2.39258 1.66016 4.00391 4.15039 4.00391h14.3555v14.4043c0 2.44141 1.66016 4.15039 4.05273 4.15039 2.44141 0 4.15039-1.66016 4.15039-4.15039v-14.4043h14.4043c2.44141 0 4.15039-1.61133 4.15039-4.00391 0-2.44141-1.70898-4.15039-4.15039-4.15039h-14.4043v-14.3555c0-2.49023-1.70898-4.19922-4.15039-4.19922-2.39258 0-4.05273 1.70898-4.05273 4.19922v14.3555h-14.3555c-2.49023 0-4.15039 1.70898-4.15039 4.15039Z"/>
  </g>
  <g transform="matrix(0.2 0 0 0.2 304.924 1933)">
   <path d="m74.8535 28.3203c34.8145 0 63.623-28.8086 63.623-63.5742 0-34.8145-28.8574-63.623-63.6719-63.623-34.7656 0-63.5254 28.8086-63.5254 63.623 0 34.7656 28.8086 63.5742 63.5742 63.5742Zm0-9.08203c-30.1758 0-54.4434-24.3164-54.4434-54.4922 0-30.2246 24.2188-54.4922 54.3945-54.4922 30.2246 0 54.541 24.2676 54.541 54.4922 0 30.1758-24.2676 54.4922-54.4922 54.4922Zm-28.8574-54.4922c0 2.58789 1.85547 4.39453 4.58984 4.39453h19.7266v19.7754c0 2.68555 1.85547 4.58984 4.44336 4.58984 2.68555 0 4.54102-1.85547 4.54102-4.58984v-19.7754h19.7754c2.68555 0 4.58984-1.80664 4.58984-4.39453 0-2.73438-1.85547-4.58984-4.58984-4.58984h-19.7754v-19.7266c0-2.73438-1.85547-4.63867-4.54102-4.63867-2.58789 0-4.44336 1.9043-4.44336 4.63867v19.7266h-19.7266c-2.73438 0-4.58984 1.85547-4.58984 4.58984Z"/>
  </g>
  <text style="stroke:none;fill:black;font-family:sans-serif;font-size:13;font-weight:bold;" transform="matrix(1 0 0 1 263 1953)">Design Variations</text>
  <text style="stroke:none;fill:black;font-family:sans-serif;font-size:13;" transform="matrix(1 0 0 1 263 1971)">Symbols are supported in up to nine weights and three scales.</text>
  <text style="stroke:none;fill:black;font-family:sans-serif;font-size:13;" transform="matrix(1 0 0 1 263 1989)">For optimal layout with text and other symbols, vertically align</text>
  <text style="stroke:none;fill:black;font-family:sans-serif;font-size:13;" transform="matrix(1 0 0 1 263 2007)">symbols with the adjacent text.</text>
  <line style="fill:none;stroke:#00AEEF;stroke-width:0.5;opacity:1.0;" x1="776" x2="776" y1="1919" y2="1933"/>
  <g transform="matrix(0.2 0 0 0.2 776 1933)">
   <path d="m16.5527 0.78125c2.58789 0 3.85742-0.976562 4.78516-3.71094l6.29883-17.2363h28.8086l6.29883 17.2363c0.927734 2.73438 2.19727 3.71094 4.73633 3.71094 2.58789 0 4.24805-1.5625 4.24805-4.00391 0-0.830078-0.146484-1.61133-0.537109-2.63672l-22.9004-60.9863c-1.12305-2.97852-3.125-4.49219-6.25-4.49219-3.02734 0-5.07812 1.46484-6.15234 4.44336l-22.9004 61.084c-0.390625 1.02539-0.537109 1.80664-0.537109 2.63672 0 2.44141 1.5625 3.95508 4.10156 3.95508Zm13.4766-28.3691 11.8652-32.8613h0.244141l11.8652 32.8613Z"/>
  </g>
  <line style="fill:none;stroke:#00AEEF;stroke-width:0.5;opacity:1.0;" x1="792.836" x2="792.836" y1="1919" y2="1933"/>
  <text style="stroke:none;fill:black;font-family:sans-serif;font-size:13;font-weight:bold;" transform="matrix(1 0 0 1 776 1953)">Margins</text>
  <text style="stroke:none;fill:black;font-family:sans-serif;font-size:13;" transform="matrix(1 0 0 1 776 1971)">Leading and trailing margins on the left and right side of each symbol</text>
  <text style="stroke:none;fill:black;font-family:sans-serif;font-size:13;" transform="matrix(1 0 0 1 776 1989)">can be adjusted by modifying the x-location of the margin guidelines.</text>
  <text style="stroke:none;fill:black;font-family:sans-serif;font-size:13;" transform="matrix(1 0 0 1 776 2007)">Modifications are automatically applied proportionally to all</text>
  <text style="stroke:none;fill:black;font-family:sans-serif;font-size:13;" transform="matrix(1 0 0 1 776 2025)">scales and weights.</text>
  <g transform="matrix(0.2 0 0 0.2 1289 1933)">
   <path d="m14.209 9.32617 8.49609 8.54492c4.29688 4.3457 9.22852 4.05273 13.8672-1.07422l53.4668-58.9355-4.83398-4.88281-53.0762 58.3984c-1.75781 2.00195-3.41797 2.49023-5.76172 0.146484l-5.85938-5.81055c-2.34375-2.29492-1.80664-4.00391 0.195312-5.81055l57.373-54.0039-4.88281-4.83398-57.959 54.4434c-4.93164 4.58984-5.32227 9.47266-1.02539 13.8184Zm32.0801-90.9668c-2.09961 2.05078-2.24609 4.93164-1.07422 6.88477 1.17188 1.80664 3.4668 2.97852 6.68945 2.14844 7.32422-1.70898 14.9414-2.00195 22.0703 2.68555l-2.92969 7.27539c-1.70898 4.15039-0.830078 7.08008 1.85547 9.81445l11.4746 11.5723c2.44141 2.44141 4.49219 2.53906 7.32422 2.05078l5.32227-0.976562 3.32031 3.36914-0.195312 2.7832c-0.195312 2.49023 0.439453 4.39453 2.88086 6.78711l3.80859 3.71094c2.39258 2.39258 5.46875 2.53906 7.8125 0.195312l14.5508-14.5996c2.34375-2.34375 2.24609-5.32227-0.146484-7.71484l-3.85742-3.80859c-2.39258-2.39258-4.24805-3.17383-6.64062-2.97852l-2.88086 0.244141-3.22266-3.17383 1.2207-5.61523c0.634766-2.83203-0.146484-5.0293-3.07617-7.95898l-10.9863-10.9375c-16.6992-16.6016-38.8672-16.2109-53.3203-1.75781Zm7.4707 1.85547c12.1582-8.88672 28.6133-7.37305 39.7461 3.75977l12.1582 12.0605c1.17188 1.17188 1.36719 2.09961 1.02539 3.80859l-1.61133 7.42188 7.51953 7.42188 4.93164-0.292969c1.26953-0.0488281 1.66016 0.0488281 2.63672 1.02539l2.88086 2.88086-12.207 12.207-2.88086-2.88086c-0.976562-0.976562-1.12305-1.36719-1.07422-2.68555l0.341797-4.88281-7.4707-7.42188-7.61719 1.26953c-1.61133 0.341797-2.34375 0.195312-3.56445-0.976562l-10.0098-10.0098c-1.26953-1.17188-1.41602-2.00195-0.634766-3.85742l4.39453-10.4492c-7.8125-7.27539-17.9688-10.4004-28.125-7.42188-0.78125 0.195312-1.07422-0.439453-0.439453-0.976562Z"/>
  </g>
  <text style="stroke:none;fill:black;font-family:sans-serif;font-size:13;font-weight:bold;" transform="matrix(1 0 0 1 1289 1953)">Exporting</text>
  <text style="stroke:none;fill:black;font-family:sans-serif;font-size:13;" transform="matrix(1 0 0 1 1289 1971)">Symbols should be outlined when exporting to ensure the</text>
  <text style="stroke:none;fill:black;font-family:sans-serif;font-size:13;" transform="matrix(1 0 0 1 1289 1989)">design is preserved when submitting to Xcode.</text>
  <text id="template-version" style="stroke:none;fill:black;font-family:sans-serif;font-size:13;text-anchor:end;" transform="matrix(1 0 0 1 3036 1933)">Template v.5.0</text>
  <text style="stroke:none;fill:black;font-family:sans-serif;font-size:13;text-anchor:end;" transform="matrix(1 0 0 1 3036 1951)">Requires Xcode 15 or greater</text>
  <text id="descriptive-name" style="stroke:none;fill:black;font-family:sans-serif;font-size:13;text-anchor:end;" transform="matrix(1 0 0 1 3036 1969)">Generated from opportunity</text>
  <text style="stroke:none;fill:black;font-family:sans-serif;font-size:13;text-anchor:end;" transform="matrix(1 0 0 1 3036 1987)">Typeset at 100.0 points</text>
  <text style="stroke:none;fill:black;font-family:sans-serif;font-size:13;" transform="matrix(1 0 0 1 263 726)">Small</text>
  <text style="stroke:none;fill:black;font-family:sans-serif;font-size:13;" transform="matrix(1 0 0 1 263 1156)">Medium</text>
  <text style="stroke:none;fill:black;font-family:sans-serif;font-size:13;" transform="matrix(1 0 0 1 263 1586)">Large</text>
 </g>
 <g id="Guides">
  <g id="H-reference" style="fill:#27AAE1;stroke:none;" transform="matrix(1 0 0 1 339 696)">
   <path d="M0.993654 0L3.63775 0L29.3281-67.1323L30.0303-67.1323L30.0303-70.459L28.1226-70.459ZM11.6885-24.4799L46.9815-24.4799L46.2315-26.7285L12.4385-26.7285ZM55.1196 0L57.7637 0L30.6382-70.459L29.4326-70.459L29.4326-67.1323Z"/>
  </g>
  <line id="Baseline-S" style="fill:none;stroke:#27AAE1;opacity:1;stroke-width:0.5;" x1="263" x2="3036" y1="696" y2="696"/>
  <line id="Capline-S" style="fill:none;stroke:#27AAE1;opacity:1;stroke-width:0.5;" x1="263" x2="3036" y1="625.541" y2="625.541"/>
  <g id="H-reference" style="fill:#27AAE1;stroke:none;" transform="matrix(1 0 0 1 339 1126)">
   <path d="M0.993654 0L3.63775 0L29.3281-67.1323L30.0303-67.1323L30.0303-70.459L28.1226-70.459ZM11.6885-24.4799L46.9815-24.4799L46.2315-26.7285L12.4385-26.7285ZM55.1196 0L57.7637 0L30.6382-70.459L29.4326-70.459L29.4326-67.1323Z"/>
  </g>
  <line id="Baseline-M" style="fill:none;stroke:#27AAE1;opacity:1;stroke-width:0.5;" x1="263" x2="3036" y1="1126" y2="1126"/>
  <line id="Capline-M" style="fill:none;stroke:#27AAE1;opacity:1;stroke-width:0.5;" x1="263" x2="3036" y1="1055.54" y2="1055.54"/>
  <g id="H-reference" style="fill:#27AAE1;stroke:none;" transform="matrix(1 0 0 1 339 1556)">
   <path d="M0.993654 0L3.63775 0L29.3281-67.1323L30.0303-67.1323L30.0303-70.459L28.1226-70.459ZM11.6885-24.4799L46.9815-24.4799L46.2315-26.7285L12.4385-26.7285ZM55.1196 0L57.7637 0L30.6382-70.459L29.4326-70.459L29.4326-67.1323Z"/>
  </g>
  <line id="Baseline-L" style="fill:none;stroke:#27AAE1;opacity:1;stroke-width:0.5;" x1="263" x2="3036" y1="1556" y2="1556"/>
  <line id="Capline-L" style="fill:none;stroke:#27AAE1;opacity:1;stroke-width:0.5;" x1="263" x2="3036" y1="1485.54" y2="1485.54"/>
  <line id="left-margin-Ultralight-S" style="fill:none;stroke:#00AEEF;stroke-width:0.5;opacity:1.0;" x1="515.011" x2="515.011" y1="600.785" y2="720.121"/>
  <line id="right-margin-Ultralight-S" style="fill:none;stroke:#00AEEF;stroke-width:0.5;opacity:1.0;" x1="604.411" x2="604.411" y1="600.785" y2="720.121"/>
  <line id="left-margin-Regular-S" style="fill:none;stroke:#00AEEF;stroke-width:0.5;opacity:1.0;" x1="1403.39" x2="1403.39" y1="600.785" y2="720.121"/>
  <line id="right-margin-Regular-S" style="fill:none;stroke:#00AEEF;stroke-width:0.5;opacity:1.0;" x1="1496.29" x2="1496.29" y1="600.785" y2="720.121"/>
  <line id="left-margin-Black-S" style="fill:none;stroke:#00AEEF;stroke-width:0.5;opacity:1.0;" x1="2884.9" x2="2884.9" y1="600.785" y2="720.121"/>
  <line id="right-margin-Black-S" style="fill:none;stroke:#00AEEF;stroke-width:0.5;opacity:1.0;" x1="2981.9" x2="2981.9" y1="600.785" y2="720.121"/>
 </g>
 <g id="Symbols">
  <g id="Black-S" transform="matrix(1 0 0 1 2884.9 696)">
   <path class="SFSymbolsPreviewWireframe" d="M53.91-10.3C50.81-10.3 49.31-11.9 48.51-12.9L32.41-33.1L19.61-22.2C15.91-19.4 12.31-20.5 9.81-23C8.21-24.6 6.81-29.3 10.61-32.8L28.91-48.2C29.71-48.9 31.01-49.8 34.11-49.8C36.31-49.8 38.11-48.1 38.81-47.2L55.21-26.7L77.81-39.8C81.91-42.1 85.61-40.9 87.51-38.3C90.11-34.7 88.61-30.3 86.01-28.6L58.01-11.5C57.31-11.1 56.01-10.3 53.91-10.3ZM75.21 8.7L21.81 8.7C11.81 8.7 4.61 0.7 4.61-8.5C4.61-12.4 7.71-15.4 11.51-15.4C14.61-15.4 18.41-12.8 18.41-8.5C18.41-6.7 20.01-5.2 21.71-5.2L75.21-5.2C77.01-5.2 78.51-6.7 78.51-8.5L78.51-15.7C78.51-19.8 81.81-22.6 85.41-22.6C88.71-22.6 92.31-19.8 92.31-15.7L92.31-8.5C92.41 1 84.71 8.7 75.21 8.7ZM11.51-42.7C8.41-42.7 4.61-44.9 4.61-49.6L4.61-56.8C4.61-66.3 12.31-74 21.81-74L44.41-74C48.81-74 51.31-70.4 51.31-67.1C51.31-64.6 49.31-60.2 44.41-60.2L21.81-60.2C20.01-60.2 18.51-58.7 18.51-56.9L18.51-49.7C18.41-46.2 15.71-42.7 11.51-42.7ZM25.91-27.5C25.91-21.701 21.209-17 15.41-17C9.61101-17 4.91-21.701 4.91-27.5C4.91-33.299 9.61101-38 15.41-38C21.209-38 25.91-33.299 25.91-27.5ZM43.91-43C43.91-37.201 39.209-32.5 33.41-32.5C27.611-32.5 22.91-37.201 22.91-43C22.91-48.799 27.611-53.5 33.41-53.5C39.209-53.5 43.91-48.799 43.91-43ZM64.41-17.3C64.41-11.501 59.709-6.8 53.91-6.8C48.111-6.8 43.41-11.501 43.41-17.3C43.41-23.099 48.111-27.8 53.91-27.8C59.709-27.8 64.41-23.099 64.41-17.3ZM92.41-34.3C92.41-28.501 87.709-23.8 81.91-23.8C76.111-23.8 71.41-28.501 71.41-34.3C71.41-40.099 76.111-44.8 81.91-44.8C87.709-44.8 92.41-40.099 92.41-34.3ZM81.61-74.2L87.81-73.3C92.51-72.8 93.91-66.6 91.01-64.1L86.41-59.2L87.51-52.7C88.31-48.2 83.41-44.7 79.51-47L74.31-50L69.01-47C65.61-44.8 60.11-47.8 61.01-52.7L62.11-59.2L57.51-64.1C54.01-68.2 57.21-72.8 60.71-73.3L66.91-74.2L69.41-79.6C71.41-83.6 77.11-84.1 79.31-79.6L81.61-74.2Z"/>
  </g>
  <g id="Regular-S" transform="matrix(1 0 0 1 1403.39 696)">
   <path class="SFSymbolsPreviewWireframe" d="M51.96-13.1C50.76-13.1 49.56-13.6 48.76-14.6L30.86-37.1L15.76-24.4C14.06-22.9 11.46-23.2 9.96-24.9C8.46-26.6 8.76-29.2 10.46-30.7L28.76-46.1C29.56-46.8 30.66-47.2 31.86-47C32.96-46.9 33.96-46.3 34.66-45.5L52.76-22.9L77.56-35.4C79.36-36.7 81.96-36.4 83.26-34.5C84.56-32.7 84.26-30.1 82.36-28.8L54.36-13.9C53.66-13.4 52.76-13.1 51.96-13.1ZM73.26 5.9L19.76 5.9C11.86 5.9 5.36-0.6 5.36-8.5C5.36-10.8 7.16-12.6 9.46-12.6C11.76-12.6 13.56-10.8 13.56-8.5C13.56-5.1 16.36-2.3 19.76-2.3L73.26-2.3C76.66-2.3 79.46-5.1 79.46-8.5L79.46-15.7C79.46-18 81.26-19.8 83.56-19.8C85.86-19.8 87.66-18 87.66-15.7L87.66-8.5C87.66-0.6 81.16 5.9 73.26 5.9ZM9.46-45.5C7.16-45.5 5.36-47.3 5.36-49.6L5.36-56.8C5.36-64.7 11.86-71.2 19.76-71.2L42.36-71.2C44.66-71.2 46.46-69.4 46.46-67.1C46.46-64.8 44.66-63 42.36-63L19.76-63C16.36-63 13.56-60.2 13.56-56.8L13.56-49.6C13.56-47.4 11.76-45.5 9.46-45.5ZM21.06-27.5C21.06-23.2474 17.6126-19.8 13.36-19.8C9.10741-19.8 5.66-23.2474 5.66-27.5C5.66-31.7526 9.10741-35.2 13.36-35.2C17.6126-35.2 21.06-31.7526 21.06-27.5ZM39.06-43C39.06-38.7474 35.6126-35.3 31.36-35.3C27.1074-35.3 23.66-38.7474 23.66-43C23.66-47.2526 27.1074-50.7 31.36-50.7C35.6126-50.7 39.06-47.2526 39.06-43ZM59.66-17.3C59.66-13.0474 56.2126-9.6 51.96-9.6C47.7074-9.6 44.26-13.0474 44.26-17.3C44.26-21.5526 47.7074-25 51.96-25C56.2126-25 59.66-21.5526 59.66-17.3ZM87.66-32.1C87.66-27.8474 84.2126-24.4 79.96-24.4C75.7074-24.4 72.26-27.8474 72.26-32.1C72.26-36.3526 75.7074-39.8 79.96-39.8C84.2126-39.8 87.66-36.3526 87.66-32.1ZM77.66-66L85.36-64.9C87.46-64.6 88.36-62 86.86-60.5L81.26-54.5L82.56-46.6C82.96-44.4 80.66-42.8 78.76-43.9L72.16-47.7L65.56-43.9C63.66-42.8 61.36-44.5 61.76-46.6L63.06-54.5L57.46-60.5C55.96-62 56.86-64.6 58.96-64.9L66.66-66L69.76-72.8C70.66-74.8 73.56-74.8 74.46-72.8L77.66-66Z"/>
  </g>
  <g id="Ultralight-S" transform="matrix(1 0 0 1 515.011 696)">
   <path class="SFSymbolsPreviewWireframe" d="M50.175-16C49.875-16 49.675-16 49.175-16.5L29.475-41.1L12.175-26.6C11.475-25.9 10.775-26.4 10.375-26.8C10.075-27.1 9.875-28.1 10.575-28.6L28.875-44C29.075-44.2 29.375-44.3 29.675-44.3C30.175-44.3 30.475-44 30.675-43.8L50.475-19L77.475-33.1C78.075-33.5 78.675-33.4 79.275-32.8C79.775-32.3 79.475-31.4 78.975-31L50.975-16.2C50.775-16 50.375-16 50.175-16ZM71.475 3L17.975 3C10.975 3 6.475-2.7 6.475-8.5C6.475-9.2 6.975-9.8 7.775-9.8C8.375-9.8 8.975-9.2 8.975-8.5C8.975-3.3 13.175 0.5 17.975 0.5L71.475 0.5C76.475 0.5 80.475-3.5 80.475-8.5L80.475-15.7C80.475-16.2 80.775-17 81.775-17C82.375-17 83.075-16.6 83.075-15.7L83.075-8.5C83.075-2.1 77.875 3 71.475 3ZM7.775-48.4C6.775-48.4 6.475-49.3 6.475-49.7L6.475-56.9C6.475-63.3 11.675-68.5 18.075-68.5L40.675-68.5C41.275-68.5 41.975-68 41.975-67.2C41.975-66.3 41.175-65.9 40.675-65.9L17.975-65.9C12.975-65.9 8.975-61.9 8.975-56.9L8.975-49.7C8.975-48.9 8.475-48.4 7.775-48.4ZM16.575-27.5C16.575-24.7938 14.3812-22.6 11.675-22.6C8.9688-22.6 6.775-24.7938 6.775-27.5C6.775-30.2062 8.9688-32.4 11.675-32.4C14.3812-32.4 16.575-30.2062 16.575-27.5ZM34.575-43C34.575-40.2938 32.3812-38.1 29.675-38.1C26.9688-38.1 24.775-40.2938 24.775-43C24.775-45.7062 26.9688-47.9 29.675-47.9C32.3812-47.9 34.575-45.7062 34.575-43ZM55.075-17.3C55.075-14.5938 52.8812-12.4 50.175-12.4C47.4688-12.4 45.275-14.5938 45.275-17.3C45.275-20.0062 47.4688-22.2 50.175-22.2C52.8812-22.2 55.075-20.0062 55.075-17.3ZM83.075-32.1C83.075-29.3938 80.8812-27.2 78.175-27.2C75.4688-27.2 73.275-29.3938 73.275-32.1C73.275-34.8062 75.4688-37 78.175-37C80.8812-37 83.075-34.8062 83.075-32.1ZM73.975-63.4L81.075-62.4C82.775-62.1 82.775-62.1 82.775-62.1L76.475-55.4L77.975-46.5C77.975-46.5 77.975-46.5 77.275-46.9L70.375-50.8L62.775-46.5C62.775-46.5 62.775-46.5 62.975-47.9L64.275-55.4L57.975-62.1C57.975-62.1 57.975-62.1 58.775-62.2L66.875-63.4L70.375-71.1C70.375-71.1 70.375-71.1 70.975-69.7L73.975-63.4Z"/>
  </g>
 </g>
</svg>
