<svg width="45" height="45" viewBox="0 0 45 45" fill="none" xmlns="http://www.w3.org/2000/svg">
<path d="M36.6334 33.9011L30.3546 32.0997L24.8338 30.5159L21.6415 29.6001C21.4827 29.5544 21.277 29.5126 21.0594 29.4782C20.7367 29.4275 20.3868 29.3946 20.1213 29.3946H15.536V29.3931C15.1024 29.2505 14.2881 29.1403 13.8383 29.1368C13.3825 29.1333 13.3987 29.247 13.8588 29.3946H12.5426V29.3931C12.109 29.2505 11.2947 29.1403 10.8449 29.1368C10.3891 29.1333 10.4053 29.247 10.8654 29.3946H9.5492V29.3931C9.1156 29.2505 8.30131 29.1403 7.85148 29.1368C7.39568 29.1333 7.4119 29.247 7.87197 29.3946H6.55578V29.3931C6.12218 29.2505 5.30788 29.1403 4.85806 29.1368C4.40226 29.1333 4.41848 29.247 4.87854 29.3946H0.414457C0.0815707 29.3946 -0.0524387 29.4396 0.0184063 29.5068C0.0499879 29.5365 0.120835 29.5708 0.234358 29.6076C0.252283 29.6134 0.271909 29.6193 0.292394 29.6251C0.300076 29.6275 0.306052 29.6294 0.314587 29.6318L0.387138 29.6525C0.387991 29.6529 0.388848 29.6533 0.390555 29.654C0.395676 29.6564 0.399948 29.6583 0.405069 29.6607L10.4702 33.805L10.6776 33.8905C10.996 34.0214 11.6635 34.1277 12.1688 34.1277H36.5395C37.026 34.1277 37.067 34.0261 36.6308 33.9011H36.6334Z" fill="#101619"/>
<path d="M36.1088 12.2708C35.9825 12.0404 35.7556 11.8924 35.4772 11.896L30.6313 11.9576L30.6373 11.9506C30.6404 11.9256 30.6418 11.9014 30.6441 11.8764L28.8794 11.8988C28.8728 11.9256 28.8654 11.9525 28.8597 11.9801L27.4683 11.9978L27.4743 11.9909C27.4774 11.9658 27.4788 11.9416 27.4811 11.9166L25.7164 11.9391C25.7098 11.9659 25.7024 11.9927 25.6967 12.0204L24.3053 12.0381L24.3112 12.0311C24.3144 12.006 24.3158 11.9819 24.3181 11.9568L22.5534 11.9793C22.5468 12.0061 22.5394 12.0329 22.5337 12.0606L21.1423 12.0783L21.1482 12.0713C21.1514 12.0463 21.1528 12.0221 21.155 11.9971L19.3903 12.0195C19.3838 12.0463 19.3764 12.0731 19.3707 12.1008L14.6533 12.1608C14.349 12.1647 14.057 12.3244 13.8463 12.5711C13.7061 12.7359 13.6018 12.939 13.5538 13.162C13.5481 13.1888 13.5441 13.2165 13.5402 13.2441C13.5386 13.2545 13.5361 13.2649 13.5345 13.2752L11.1154 32.626L11.0653 33.025C10.9886 33.6364 11.3656 34.1266 11.9079 34.1197L32.6498 33.8559C33.1645 33.8494 33.6404 33.3734 33.7132 32.7922L33.7633 32.3923L35.0719 21.9263L36.1706 13.1357L36.2074 12.8395C36.234 12.6253 36.1953 12.4292 36.1088 12.2716L36.1088 12.2708Z" fill="#00144A"/>
<path d="M43.968 34.1477L18.1687 34.4758C17.4947 34.4844 16.8788 33.9907 16.7915 33.3721L14.0226 13.703C13.9353 13.0852 14.4115 12.5768 15.0845 12.5682L40.9864 12.2388C41.5694 12.2314 42.104 12.6592 42.1796 13.1945L44.9777 33.0701C45.0603 33.6575 44.6071 34.1396 43.968 34.1477Z" fill="#00144A"/>
<path d="M43.9703 33.3033L18.4528 33.6278C17.7861 33.6363 17.177 33.1492 17.0907 32.5389L14.3651 13.1294C14.2799 12.5192 14.7498 12.0183 15.4165 12.0098L41.0354 11.684C41.6121 11.6767 42.1398 12.0985 42.2146 12.6269L44.9679 32.2405C45.0496 32.8197 44.6024 33.2962 43.9692 33.3042" fill="#D5DADD"/>
<path d="M42.8131 16.8891L14.9429 17.2435L14.3651 13.1294C14.2799 12.5192 14.7498 12.0183 15.4165 12.0098L41.0354 11.684C41.6121 11.6767 42.1398 12.0985 42.2146 12.6269L42.8131 16.8891Z" fill="#FA4F96"/>
<path d="M23.6027 13.3736C23.6327 13.6284 23.4759 13.8374 23.2517 13.8402C23.0276 13.8431 22.8215 13.6388 22.7915 13.3839C22.7615 13.1291 22.9184 12.9201 23.1425 12.9173C23.3667 12.9144 23.5728 13.1188 23.6027 13.3736Z" fill="#00144A"/>
<path d="M33.2578 13.2525C33.2877 13.5074 33.1309 13.7163 32.9067 13.7191C32.6826 13.722 32.4765 13.5177 32.4465 13.2628C32.4166 13.008 32.5734 12.7991 32.7976 12.7962C33.0217 12.7934 33.2278 12.9977 33.2578 13.2525Z" fill="#00144A"/>
<path d="M32.2993 11.7875C32.2909 11.1229 32.7999 10.6034 33.2695 10.581C33.7702 10.5583 34.1397 11.1373 34.0956 11.8742C34.0515 12.6111 33.6093 13.2289 33.1086 13.2517" stroke="#00144A" stroke-width="0.654727" stroke-miterlimit="10"/>
<path d="M22.6826 11.9086C22.6742 11.244 23.1832 10.7245 23.6528 10.7021C24.1535 10.6794 24.523 11.2584 24.4789 11.9953C24.4348 12.7322 23.9926 13.35 23.4919 13.3728" stroke="#00144A" stroke-width="0.654727" stroke-miterlimit="10"/>
<path d="M33.2702 10.581C33.7709 10.5583 34.1404 11.1373 34.0963 11.8742C34.0522 12.6111 33.61 13.2289 33.1093 13.2517" stroke="#00144A" stroke-width="0.654727" stroke-miterlimit="10" stroke-linecap="round"/>
<path d="M23.6538 10.706C24.1544 10.6833 24.5239 11.2623 24.4799 11.9992C24.4358 12.7361 23.9935 13.3539 23.4929 13.3767" stroke="#00144A" stroke-width="0.654727" stroke-miterlimit="10" stroke-linecap="round"/>
<path d="M40.8523 31.5513L20.8159 31.8062C20.4456 31.8109 20.109 31.5459 20.0656 31.2154L18.4782 19.2681C18.4338 18.9368 18.6988 18.665 19.0691 18.6603L39.1056 18.4055C39.4759 18.4008 39.8124 18.6658 39.8558 18.9963L41.4433 30.9435C41.4877 31.2748 41.2227 31.5466 40.8523 31.5513Z" stroke="#FA4F96" stroke-width="0.493017" stroke-miterlimit="10"/>
<path d="M35.4163 27.3293L34.1619 27.3453L34.0092 26.1142C33.9736 25.8293 33.7069 25.599 33.4163 25.6027C33.1258 25.6064 32.9176 25.8427 32.9531 26.1277L33.1058 27.3587L31.8515 27.3747C31.561 27.3784 31.3527 27.6147 31.3883 27.8996C31.4238 28.1846 31.6906 28.4148 31.9811 28.4111L33.2354 28.3952L33.3882 29.6262C33.4237 29.9112 33.6905 30.1415 33.981 30.1378C34.2715 30.1341 34.4798 29.8978 34.4443 29.6128L34.2915 28.3818L35.5458 28.3658C35.8364 28.3621 36.0446 28.1258 36.0091 27.8409C35.9736 27.5559 35.7068 27.3256 35.4163 27.3293Z" fill="#FA4F96"/>
<path d="M32.1367 24.6644L31.9152 24.531C31.751 24.4357 31.5827 24.3533 31.4016 24.2849C31.8646 23.8057 32.1103 23.1274 32.0162 22.3698C31.8376 20.9382 30.5124 19.7937 29.0529 19.8122C27.5934 19.8308 26.5643 21.0122 26.742 22.4438C26.8361 23.2014 27.2587 23.8841 27.8518 24.3499C26.6327 24.969 25.8966 26.276 26.0829 27.7722L26.1635 28.4204C26.1991 28.7054 26.4658 28.9356 26.7564 28.9319L29.6608 28.895C29.9513 28.8913 30.1595 28.655 30.124 28.37C30.0885 28.0851 29.8217 27.8548 29.5312 27.8585L27.1544 27.8887L27.1381 27.7587C26.9508 26.2557 28.0405 25.0218 29.5716 25.0023L29.8354 24.9989C30.3837 24.992 30.984 25.1464 31.447 25.413L31.6616 25.5405C31.9257 25.6992 32.2413 25.6305 32.3762 25.3883C32.5111 25.1468 32.4061 24.83 32.1411 24.6713L32.1342 24.6645L32.1367 24.6644ZM29.1895 20.8538C30.061 20.8427 30.8605 21.5335 30.9671 22.3884C31.0736 23.2432 30.4472 23.9522 29.5765 23.9632C28.7058 23.9743 27.9055 23.2835 27.7989 22.4287C27.6923 21.5738 28.3187 20.8649 29.1895 20.8538Z" fill="#FA4F96"/>
</svg>
