<svg width="160" height="161" viewBox="0 0 160 161" fill="none" xmlns="http://www.w3.org/2000/svg">
<rect y="46" width="160" height="69" rx="12" fill="#222F3B"/>
<path d="M98.1035 53.9579C99.0221 53.8889 99.8272 54.5755 99.8965 55.494L100.044 56.9892C100.645 57.0165 101.12 57.1861 101.172 57.787C101.176 57.824 102.754 73.2562 104.318 84.8114C105.85 96.096 106.825 104.161 106.825 104.161C106.9 105.08 106.154 105.885 105.157 105.954L61.1182 109.116C60.121 109.185 59.247 108.499 59.1719 107.58C59.1719 107.58 57.8897 101.666 56.9287 94.495C56.7091 94.6871 56.5056 94.8638 56.3232 95.0185C54.3152 96.7257 52.4288 98.5423 51.1768 100.859C49.9451 103.136 49.0424 105.619 47.4814 107.709C46.7091 108.741 45.7942 109.53 44.7617 110.286C43.2283 111.415 40.3658 113.133 39.5137 114.837L30.2754 114.933L33.1074 108.433C33.6361 107.042 38.4974 93.4569 39.5137 88.5546C39.6925 87.6806 40.1648 86.8921 40.8721 86.3515C43.0712 84.6646 45.7619 84.3512 48.4365 83.1806C52.0648 81.9449 54.2436 81.1612 55.71 80.7655C55.1567 71.251 54.7936 59.9646 54.8594 59.0683C54.8594 59.0663 54.8593 59.0643 54.8594 59.0624C54.8551 58.1914 55.5512 57.4421 56.4316 57.372L98.1035 53.9579Z" fill="#101619"/>
<path d="M68.6247 82.2617C68.6247 82.2617 67.5375 96.8054 64.7976 96.9955C62.0577 97.1855 61.6113 91.4847 61.6113 91.4847C61.6113 91.4847 63.0564 84.078 68.6247 82.2617Z" fill="#450B00"/>
<path d="M60.7855 84.0428C60.7767 84.7719 59.6453 85.7928 58.9692 86.3408C58.324 85.7707 57.7583 85.1166 57.2501 84.4228C55.9509 82.6595 54.8505 80.6399 54.3202 78.5099C54.2671 78.2977 53.728 77.5863 53.781 77.352C57.692 75.6374 62.7742 72.8842 64.4049 72.2301C68.2982 70.6746 68.8992 75.4385 68.8992 75.4385C68.8992 75.4385 66.8973 77.0206 66.3935 78.4701C65.8941 79.9196 60.7943 82.991 60.7855 84.0339V84.0428Z" fill="#C35500"/>
<path d="M58.0984 88.5945C57.2455 88.126 55.4822 83.9896 55.1641 83.2207C55.1641 83.2118 56.428 81.3734 57.5902 81.2408C57.8819 81.1922 57.493 84.0957 58.315 84.0559C59.4817 84.0029 60.1887 82.2484 61.0063 80.8254C61.7001 79.6101 62.2304 79.2654 62.4867 78.7882C62.8093 78.1872 62.6944 78.1076 62.6326 77.4845C62.5972 77.1133 62.5972 76.7332 62.6547 76.3664C62.6812 76.2073 62.7298 76.0306 62.8712 75.9599C62.9994 75.8936 63.1673 75.951 63.2601 76.0615C63.4546 76.3046 63.3176 76.6979 63.4501 76.9763C63.5562 77.1928 63.7993 77.3166 64.0335 77.3254C64.2544 77.3342 64.4489 77.2282 64.6124 77.0912C64.9924 76.773 65.4255 76.5432 65.673 76.1234C65.9426 75.6019 65.8719 74.8639 66.4243 74.9434L68.5853 75.3986C68.5853 75.3986 68.8725 76.4416 68.5499 77.5994C68.3997 77.9132 67.0739 78.5363 66.7778 78.7926C64.7626 80.5338 62.5663 84.7762 62.553 85.6954C62.5442 86.4246 59.7822 89.6639 59.0309 88.9436L58.0984 88.59V88.5945Z" fill="#8D2A00"/>
<path d="M64.842 48.1138L105.048 48.0078C106.047 47.9326 107.116 47.8398 107.196 48.8386C107.196 48.8386 108.778 65.6405 110.347 78.2177C111.88 90.4855 112.857 99.2532 112.857 99.2532C112.932 100.252 112.185 101.127 111.187 101.202L67.0826 104.64C66.0838 104.715 65.2088 103.969 65.1337 102.97C65.1337 102.97 62.9771 92.1913 62.1595 81.6249C61.342 71.0585 60.7719 50.9863 60.8559 49.7445C60.9487 48.3127 61.9783 48.3039 64.842 48.1138Z" fill="#0899A7"/>
<path d="M65.0459 48.1143L105.698 47.5664C106.697 47.4912 107.767 47.3984 107.846 48.3972C107.846 48.3972 109.428 65.1991 110.997 77.7763C112.531 90.0441 113.507 98.8118 113.507 98.8118C113.582 99.8106 112.836 100.686 111.837 100.761L67.7328 104.199C66.734 104.274 65.859 103.527 65.7839 102.528C65.7839 102.528 63.6273 91.7499 62.8097 81.1835C61.9922 70.6171 61.4707 50.1339 61.4707 50.1339C61.4707 49.1882 62.1866 48.3044 65.0503 48.1143H65.0459Z" fill="#046C7C"/>
<path d="M70.3618 82.3438C70.3618 82.3438 70.9451 88.4732 70.4899 91.0983C70.0348 93.7233 68.9653 93.9354 68.3908 93.6658C67.8163 93.3963 66.6099 92.7378 66.5745 91.0187C66.5391 89.2996 66 87.5364 66 87.5364L67.0562 84.4915L70.3662 82.3438H70.3618Z" fill="#450B00"/>
<path d="M65.121 48.83L107.625 45.5156C108.624 45.4405 109.693 45.3476 109.773 46.3464C109.773 46.3464 111.355 63.1483 112.924 75.7255C114.457 87.9933 115.434 96.7611 115.434 96.7611C115.509 97.7598 114.762 98.6348 113.764 98.7099L69.6595 102.148C68.6608 102.223 67.7858 101.476 67.7106 100.478C67.7106 100.478 65.5541 89.6991 64.7365 79.1327C63.9189 68.5663 63.3975 50.7701 63.3975 50.7701C63.3223 49.7713 64.1222 48.9096 65.121 48.83Z" fill="#D5DADD"/>
<path d="M65.0448 48.1113L107.823 44.6732C108.822 44.598 109.697 45.3449 109.772 46.3436L110.757 56.2869L63.7234 59.9947L63.339 50.0735C63.2638 49.0747 64.0504 48.1953 65.0492 48.1158L65.0448 48.1113Z" fill="#0899A7"/>
<path d="M70.8954 84.3008C70.8689 84.3405 70.8424 84.3759 70.8203 84.4156C70.8468 84.3759 70.8733 84.3405 70.8954 84.3008Z" fill="#C35500"/>
<path d="M72.9999 77.7574C72.9778 77.722 72.9557 77.6955 72.9336 77.6602C72.9645 77.7264 72.9955 77.7972 73.022 77.8635C73.0131 77.8281 73.0087 77.7927 73.0043 77.7574H72.9999Z" fill="#C35500"/>
<path d="M68.041 88.0754C68.7967 87.1385 69.7602 85.9585 70.6441 84.668C69.7558 85.9452 68.7967 87.1296 68.041 88.0754Z" fill="#C35500"/>
<path d="M76.3898 55.6624C77.7884 55.6624 78.9222 54.5286 78.9222 53.13C78.9222 51.7314 77.7884 50.5977 76.3898 50.5977C74.9912 50.5977 73.8574 51.7314 73.8574 53.13C73.8574 54.5286 74.9912 55.6624 76.3898 55.6624Z" fill="#00144A"/>
<path d="M98.0656 53.8694C99.4642 53.8694 100.598 52.7356 100.598 51.3371C100.598 49.9385 99.4642 48.8047 98.0656 48.8047C96.667 48.8047 95.5332 49.9385 95.5332 51.3371C95.5332 52.7356 96.667 53.8694 98.0656 53.8694Z" fill="#00144A"/>
<path d="M74.6164 54.9448C74.6164 54.9448 74.2452 54.6752 74.0021 54.03C73.759 53.3848 73.8784 52.775 73.8784 52.775C75.5488 52.7926 76.3752 51.8248 76.1454 48.2011C75.9952 45.8368 75.3588 44.3873 74.7931 43.9984C74.6606 43.9056 74.4926 43.8349 74.1656 43.9365C73.432 44.1619 73.0873 45.6202 73.2066 47.494L70.9882 47.6707C70.723 43.552 72.4554 42.1511 73.5116 41.8241C74.4263 41.5413 75.3014 41.665 76.0438 42.1776C77.7982 43.3841 78.2401 46.3803 78.3462 48.0596C78.4788 50.1102 78.6821 54.3968 74.6164 54.9448Z" fill="#046C7C"/>
<path d="M96.3782 53.2257C96.3782 53.2257 95.9804 52.8987 95.7418 52.3463C95.4678 51.7188 95.5385 51.1796 95.5385 51.1796C97.3769 51.1796 98.4773 50.0704 98.2431 46.4466C98.0928 44.0823 97.4565 42.6328 96.8908 42.2439C96.7582 42.1511 96.5903 42.0804 96.2633 42.1821C95.5297 42.4075 95.1452 43.8437 95.2645 45.7175L93.0858 45.8942C92.8207 41.7755 94.553 40.4011 95.6092 40.0741C96.5196 39.7913 97.399 39.915 98.1459 40.4276C99.9003 41.6341 100.342 44.6303 100.448 46.3096C100.581 48.3602 100.448 52.6822 96.3782 53.2302V53.2257Z" fill="#046C7C"/>
<path d="M100.476 99.7447C97.1132 81.2591 95.4664 57.7351 95.4531 57.4965L96.3325 57.4258C96.3502 57.6688 98.0238 81.2349 101.378 99.6764L100.476 99.7447Z" fill="#0899A7"/>
<path d="M83.4191 101.077C79.8572 82.2556 78.8238 59.0393 78.8105 58.8051L79.69 58.7344C79.6988 58.9686 80.7518 82.2472 84.3048 101.007L83.4191 101.077Z" fill="#0899A7"/>
<path d="M64.3838 73.7951L64.3223 72.9189C64.477 72.9056 79.6023 71.5233 112.141 69.1016L112.252 69.981C79.7216 72.4027 64.5384 73.7819 64.3838 73.7951Z" fill="#0899A7"/>
<path d="M61.4793 50.5983C61.466 50.1342 61.4042 49.3785 62.1599 49.5464C62.8582 49.7011 63.3355 49.7939 63.415 51.3849C63.4504 52.0832 64.9486 49.7718 64.9486 49.7718L65.5762 48.0703L64.1266 48.1675L63.0526 48.362L61.824 48.7995L61.2539 49.4845V50.7485L61.4793 50.6027V50.5983Z" fill="#0899A7"/>
<path d="M68.1113 87.9866C73.5912 87.5181 88.6652 86.2586 113.987 84.3716C113.952 84.0844 113.917 83.7883 113.881 83.4922C89.7656 85.2908 74.9523 86.5149 68.8714 87.032C68.6019 87.3723 68.35 87.686 68.1113 87.9821V87.9866Z" fill="#0899A7"/>
<path d="M63.4062 92.64L64.0559 96.8872L64.6835 96.3436C64.4493 94.9072 64.2018 93.2809 63.9587 91.5352L63.4062 92.6356V92.64Z" fill="#046C7C"/>
<path d="M66.5267 93.7547C66.2925 92.3007 66.0494 90.6699 65.8107 88.9375L63.959 91.5406C64.2021 93.2863 64.454 94.9082 64.6838 96.349L66.5267 93.7592V93.7547Z" fill="#00144A"/>
<path d="M48.4945 108.606C49.5198 107.633 50.629 106.749 51.7692 105.91C52.8916 105.088 53.886 104.23 54.7256 103.108C56.4226 100.837 57.4037 98.1364 58.7427 95.6616C60.1038 93.1426 62.1544 91.1672 64.3375 89.3111C65.4113 88.4008 65.4821 85.3869 66.6841 85.5018C67.8817 85.3559 69.1014 84.9538 69.9808 83.9329C70.6747 83.1286 71.6646 82.1917 71.8148 81.1311C71.9562 80.1324 71.2271 77.282 70.9266 76.3274C71.2138 76.3186 71.5011 76.3849 71.7618 76.5086C68.3767 74.7586 63.2901 82.8856 63.2901 82.8856C63.2901 82.8856 59.9801 87.433 59.2863 87.5611C58.5925 87.6937 56.2061 87.075 57.7616 80.6848C57.9252 80.0042 55.9453 82.2359 55.6183 81.6172C55.2515 80.9278 54.9201 80.2163 54.6682 79.4783C54.487 78.948 55.8216 77.0036 55.7642 76.4423C52.8563 77.7151 49.9308 78.0553 47.54 79.8893C46.771 80.4771 46.2584 81.3344 46.0639 82.2846C44.9591 87.6142 39.6737 102.383 39.0992 103.895L34.1055 114.929H43.8587C45.0387 112.57 46.581 110.426 48.4989 108.606H48.4945Z" fill="#C35500"/>
<path d="M70.8158 84.4166C70.8423 84.3769 70.8688 84.3415 70.8909 84.3017C72.1239 82.4722 73.1271 80.4968 73.1005 78.8307C73.1005 78.7865 73.1005 78.7423 73.1005 78.6981C73.1005 78.6716 73.1005 78.6407 73.1005 78.6142C73.1447 78.3755 73.1094 78.1148 73.0166 77.8585C72.9901 77.7922 72.9635 77.7215 72.9282 77.6552C72.694 77.1779 72.2653 76.7404 71.7571 76.5062C71.4919 76.3825 71.2091 76.3162 70.9219 76.325C71.2224 77.2796 71.9471 80.13 71.8101 81.1287C71.6599 82.1893 70.67 83.1262 69.9761 83.9305C69.0967 84.9514 67.877 85.3535 66.6794 85.4993C65.4774 85.3889 65.4022 88.3984 64.3328 89.3087C62.1497 91.1648 60.0991 93.1402 58.738 95.6592C57.399 98.1339 56.4179 100.834 54.7209 103.106C53.8813 104.228 52.887 105.085 51.7645 105.907C50.6243 106.743 49.5151 107.626 48.4898 108.603C46.5719 110.424 45.0295 112.567 43.8496 114.927H48.755L49.4488 112.311C49.4488 112.311 49.6653 111.745 54.7784 106.734C59.8959 101.722 60.5411 99.6453 62.5253 95.6415C64.5095 91.6377 66.401 90.2279 67.5942 88.6149C67.7267 88.447 67.877 88.2614 68.0273 88.0669C68.7829 87.1256 69.7463 85.9368 70.6302 84.6597C70.6876 84.5757 70.7451 84.4918 70.8025 84.4078L70.8158 84.4166Z" fill="#8D2A00"/>
<path d="M70.1494 82.1469L69.4202 81.8773C68.7528 81.6298 68.1739 81.1878 67.754 80.6133L67.2988 79.9902C67.2988 79.9902 68.9871 74.8989 71.8332 76.6844C74.9755 78.6599 70.145 82.1469 70.145 82.1469H70.1494Z" fill="#450B00"/>
<path d="M68.113 87.9879C68.3516 87.6919 68.6035 87.3737 68.8731 87.0378C69.5183 86.9848 70.2696 86.9185 71.1136 86.8478C72.899 83.7543 73.5221 81.6021 73.1023 78.7031L65.8105 88.9381C66.0492 90.6748 66.2922 92.3011 66.5265 93.755C66.5265 93.755 67.5341 92.5795 70.0972 88.5227C70.2563 88.2708 70.411 88.0233 70.5568 87.7847C69.5978 87.8642 68.7803 87.9349 68.1086 87.9924L68.113 87.9879Z" fill="#4D82B8"/>
<path d="M68.1113 87.9879C68.7831 87.9304 69.6007 87.8597 70.5597 87.7802C70.7586 87.4575 70.9398 87.1482 71.1122 86.8477C70.268 86.9184 69.5167 86.9802 68.8715 87.0377C68.6019 87.378 68.35 87.6918 68.1113 87.9879Z" fill="#00144A"/>
<path d="M48.4945 108.606C49.5198 107.633 50.629 106.749 51.7692 105.91C52.8916 105.088 53.886 104.23 54.7256 103.108C56.4226 100.837 57.4037 98.1364 58.7427 95.6616C60.1038 93.1426 62.1544 91.1672 64.3375 89.3111C65.4113 88.4008 65.4821 85.3869 66.6841 85.5018C67.8817 85.3559 69.1014 84.9538 69.9808 83.9329C70.6747 83.1286 71.6646 82.1917 71.8148 81.1311C71.9562 80.1324 71.2271 77.282 70.9266 76.3274C71.2138 76.3186 71.5011 76.3849 71.7618 76.5086C68.3767 74.7586 63.2901 82.8856 63.2901 82.8856C63.2901 82.8856 59.9801 87.433 59.2863 87.5611C58.5925 87.6937 56.2061 87.075 57.7616 80.6848C57.9252 80.0042 55.9453 82.2359 55.6183 81.6172C55.2515 80.9278 54.9201 80.2163 54.6682 79.4783C54.487 78.948 55.8216 77.0036 55.7642 76.4423C52.8563 77.7151 49.9308 78.0553 47.54 79.8893C46.771 80.4771 46.2584 81.3344 46.0639 82.2846C44.9591 87.6142 39.6737 102.383 39.0992 103.895L34.1055 114.929H43.8587C45.0387 112.57 46.581 110.426 48.4989 108.606H48.4945Z" fill="#C35500"/>
<path d="M70.8158 84.4166C70.8423 84.3769 70.8688 84.3415 70.8909 84.3017C72.1239 82.4722 73.1271 80.4968 73.1005 78.8307C73.1005 78.7865 73.1005 78.7423 73.1005 78.6981C73.1005 78.6716 73.1005 78.6407 73.1005 78.6142C73.1447 78.3755 73.1094 78.1148 73.0166 77.8585C72.9901 77.7922 72.9635 77.7215 72.9282 77.6552C72.694 77.1779 72.2653 76.7404 71.7571 76.5062C71.4919 76.3825 71.2091 76.3162 70.9219 76.325C71.2224 77.2796 71.9471 80.13 71.8101 81.1287C71.6599 82.1893 70.67 83.1262 69.9761 83.9305C69.0967 84.9514 67.877 85.3535 66.6794 85.4993C65.4774 85.3889 65.4022 88.3984 64.3328 89.3087C62.1497 91.1648 60.0991 93.1402 58.738 95.6592C57.399 98.1339 56.4179 100.834 54.7209 103.106C53.8813 104.228 52.887 105.085 51.7645 105.907C50.6243 106.743 49.5151 107.626 48.4898 108.603C46.5719 110.424 45.0295 112.567 43.8496 114.927H48.755L49.4488 112.311C49.4488 112.311 49.6653 111.745 54.7784 106.734C59.8959 101.722 60.5411 99.6453 62.5253 95.6415C64.5095 91.6377 66.401 90.2279 67.5942 88.6149C67.7267 88.447 67.877 88.2614 68.0273 88.0669C68.7829 87.1256 69.7463 85.9368 70.6302 84.6597C70.6876 84.5757 70.7451 84.4918 70.8025 84.4078L70.8158 84.4166Z" fill="#8D2A00"/>
<path d="M70.1494 82.1469L69.4202 81.8773C68.7528 81.6298 68.1739 81.1878 67.754 80.6133L67.2988 79.9902C67.2988 79.9902 68.9871 74.8989 71.8332 76.6844C74.9755 78.6599 70.145 82.1469 70.145 82.1469H70.1494Z" fill="#D094B0"/>
</svg>
