<svg width="45" height="45" viewBox="0 0 45 45" fill="none" xmlns="http://www.w3.org/2000/svg">
<rect width="39.9954" height="26.7119" rx="3.48292" transform="matrix(1 0 0.156434 0.987688 -0.371582 10.7891)" fill="#A9B4BE"/>
<path d="M2.33148 12.5796C2.08072 10.9964 3.1769 9.71289 4.77987 9.71289H37.1418C38.7448 9.71289 40.2475 10.9964 40.4983 12.5796L43.5892 32.0949C43.8399 33.6781 42.7438 34.9616 41.1408 34.9616H8.77888C7.17591 34.9616 5.67316 33.6781 5.42241 32.0949L2.33148 12.5796Z" fill="white"/>
<path fill-rule="evenodd" clip-rule="evenodd" d="M4.61966 8.70117H36.9816C39.1497 8.70117 41.1823 10.4372 41.5215 12.5787L44.6124 32.094C44.9516 34.2355 43.4689 35.9715 41.3008 35.9715H8.93885C6.77068 35.9715 4.73808 34.2355 4.3989 32.094L1.30798 12.5786C0.968803 10.4372 2.45149 8.70117 4.61966 8.70117ZM4.77975 9.71196C3.17678 9.71196 2.0806 10.9954 2.33136 12.5786L5.42229 32.094C5.67305 33.6772 7.17579 34.9607 8.77876 34.9607H41.1407C42.7436 34.9607 43.8398 33.6772 43.5891 32.094L40.4981 12.5787C40.2474 10.9954 38.7446 9.71196 37.1417 9.71196H4.77975Z" fill="#00144A"/>
<path d="M2.33148 12.5796C2.08072 10.9964 3.1769 9.71289 4.77987 9.71289H37.1418C38.7448 9.71289 40.2475 10.9964 40.4983 12.5796L40.8205 14.6144H2.65377L2.33148 12.5796Z" fill="#0070F2"/>
<path d="M21.1469 29.1734C20.5394 29.5008 19.6736 29.0246 19.5451 28.2924L18.7889 23.9815L18.0325 19.6699C17.9041 18.9377 18.6029 18.4615 19.3252 18.789L28.8357 23.1005C29.6365 23.4635 29.8182 24.4995 29.1448 24.8624L21.1469 29.1734Z" fill="#F58B00"/>
</svg>
