<?xml version="1.0" encoding="UTF-8"?>
<!--Generator: Apple Native CoreSVG 232.5-->
<!DOCTYPE svg
PUBLIC "-//W3C//DTD SVG 1.1//EN"
       "http://www.w3.org/Graphics/SVG/1.1/DTD/svg11.dtd">
<svg version="1.1" xmlns="http://www.w3.org/2000/svg" xmlns:xlink="http://www.w3.org/1999/xlink" width="3300" height="2200">
 <!--glyph: "", point size: 100.0, font version: "19.0d6e1", template writer version: "123"-->
 <style>.SFSymbolsPreviewWireframe {fill:none;opacity:1.0;stroke:black;stroke-width:0.5}
</style>
 <g id="Notes">
  <rect height="2200" id="artboard" style="fill:white;opacity:1" width="3300" x="0" y="0"/>
  <line style="fill:none;stroke:black;opacity:1;stroke-width:0.5;" x1="263" x2="3036" y1="292" y2="292"/>
  <text style="stroke:none;fill:black;font-family:sans-serif;font-size:13;font-weight:bold;" transform="matrix(1 0 0 1 263 322)">Weight/Scale Variations</text>
  <text style="stroke:none;fill:black;font-family:sans-serif;font-size:13;text-anchor:middle;" transform="matrix(1 0 0 1 559.711 322)">Ultralight</text>
  <text style="stroke:none;fill:black;font-family:sans-serif;font-size:13;text-anchor:middle;" transform="matrix(1 0 0 1 856.422 322)">Thin</text>
  <text style="stroke:none;fill:black;font-family:sans-serif;font-size:13;text-anchor:middle;" transform="matrix(1 0 0 1 1153.13 322)">Light</text>
  <text style="stroke:none;fill:black;font-family:sans-serif;font-size:13;text-anchor:middle;" transform="matrix(1 0 0 1 1449.84 322)">Regular</text>
  <text style="stroke:none;fill:black;font-family:sans-serif;font-size:13;text-anchor:middle;" transform="matrix(1 0 0 1 1746.56 322)">Medium</text>
  <text style="stroke:none;fill:black;font-family:sans-serif;font-size:13;text-anchor:middle;" transform="matrix(1 0 0 1 2043.27 322)">Semibold</text>
  <text style="stroke:none;fill:black;font-family:sans-serif;font-size:13;text-anchor:middle;" transform="matrix(1 0 0 1 2339.98 322)">Bold</text>
  <text style="stroke:none;fill:black;font-family:sans-serif;font-size:13;text-anchor:middle;" transform="matrix(1 0 0 1 2636.69 322)">Heavy</text>
  <text style="stroke:none;fill:black;font-family:sans-serif;font-size:13;text-anchor:middle;" transform="matrix(1 0 0 1 2933.4 322)">Black</text>
  <line style="fill:none;stroke:black;opacity:1;stroke-width:0.5;" x1="263" x2="3036" y1="1903" y2="1903"/>
  <g transform="matrix(0.2 0 0 0.2 263 1933)">
   <path d="m46.2402 4.15039c21.5332 0 39.4531-17.8711 39.4531-39.4043s-17.9688-39.4043-39.502-39.4043c-21.4844 0-39.3555 17.8711-39.3555 39.4043s17.9199 39.4043 39.4043 39.4043Zm0-7.42188c-17.7246 0-31.8848-14.209-31.8848-31.9824s14.1113-31.9824 31.8359-31.9824c17.7734 0 32.0312 14.209 32.0312 31.9824s-14.209 31.9824-31.9824 31.9824Zm-17.9688-31.9824c0 2.14844 1.51367 3.61328 3.75977 3.61328h10.498v10.5957c0 2.19727 1.46484 3.71094 3.61328 3.71094 2.24609 0 3.71094-1.51367 3.71094-3.71094v-10.5957h10.5957c2.19727 0 3.71094-1.46484 3.71094-3.61328 0-2.19727-1.51367-3.71094-3.71094-3.71094h-10.5957v-10.5469c0-2.24609-1.46484-3.75977-3.71094-3.75977-2.14844 0-3.61328 1.51367-3.61328 3.75977v10.5469h-10.498c-2.24609 0-3.75977 1.51367-3.75977 3.71094Z"/>
  </g>
  <g transform="matrix(0.2 0 0 0.2 281.506 1933)">
   <path d="m58.5449 14.5508c27.2461 0 49.8047-22.6074 49.8047-49.8047 0-27.2461-22.6074-49.8047-49.8535-49.8047-27.1973 0-49.7559 22.5586-49.7559 49.8047 0 27.1973 22.6074 49.8047 49.8047 49.8047Zm0-8.30078c-23.0469 0-41.4551-18.457-41.4551-41.5039s18.3594-41.5039 41.4062-41.5039 41.5527 18.457 41.5527 41.5039-18.457 41.5039-41.5039 41.5039Zm-22.6562-41.5039c0 2.39258 1.66016 4.00391 4.15039 4.00391h14.3555v14.4043c0 2.44141 1.66016 4.15039 4.05273 4.15039 2.44141 0 4.15039-1.66016 4.15039-4.15039v-14.4043h14.4043c2.44141 0 4.15039-1.61133 4.15039-4.00391 0-2.44141-1.70898-4.15039-4.15039-4.15039h-14.4043v-14.3555c0-2.49023-1.70898-4.19922-4.15039-4.19922-2.39258 0-4.05273 1.70898-4.05273 4.19922v14.3555h-14.3555c-2.49023 0-4.15039 1.70898-4.15039 4.15039Z"/>
  </g>
  <g transform="matrix(0.2 0 0 0.2 304.924 1933)">
   <path d="m74.8535 28.3203c34.8145 0 63.623-28.8086 63.623-63.5742 0-34.8145-28.8574-63.623-63.6719-63.623-34.7656 0-63.5254 28.8086-63.5254 63.623 0 34.7656 28.8086 63.5742 63.5742 63.5742Zm0-9.08203c-30.1758 0-54.4434-24.3164-54.4434-54.4922 0-30.2246 24.2188-54.4922 54.3945-54.4922 30.2246 0 54.541 24.2676 54.541 54.4922 0 30.1758-24.2676 54.4922-54.4922 54.4922Zm-28.8574-54.4922c0 2.58789 1.85547 4.39453 4.58984 4.39453h19.7266v19.7754c0 2.68555 1.85547 4.58984 4.44336 4.58984 2.68555 0 4.54102-1.85547 4.54102-4.58984v-19.7754h19.7754c2.68555 0 4.58984-1.80664 4.58984-4.39453 0-2.73438-1.85547-4.58984-4.58984-4.58984h-19.7754v-19.7266c0-2.73438-1.85547-4.63867-4.54102-4.63867-2.58789 0-4.44336 1.9043-4.44336 4.63867v19.7266h-19.7266c-2.73438 0-4.58984 1.85547-4.58984 4.58984Z"/>
  </g>
  <text style="stroke:none;fill:black;font-family:sans-serif;font-size:13;font-weight:bold;" transform="matrix(1 0 0 1 263 1953)">Design Variations</text>
  <text style="stroke:none;fill:black;font-family:sans-serif;font-size:13;" transform="matrix(1 0 0 1 263 1971)">Symbols are supported in up to nine weights and three scales.</text>
  <text style="stroke:none;fill:black;font-family:sans-serif;font-size:13;" transform="matrix(1 0 0 1 263 1989)">For optimal layout with text and other symbols, vertically align</text>
  <text style="stroke:none;fill:black;font-family:sans-serif;font-size:13;" transform="matrix(1 0 0 1 263 2007)">symbols with the adjacent text.</text>
  <line style="fill:none;stroke:#00AEEF;stroke-width:0.5;opacity:1.0;" x1="776" x2="776" y1="1919" y2="1933"/>
  <g transform="matrix(0.2 0 0 0.2 776 1933)">
   <path d="m16.5527 0.78125c2.58789 0 3.85742-0.976562 4.78516-3.71094l6.29883-17.2363h28.8086l6.29883 17.2363c0.927734 2.73438 2.19727 3.71094 4.73633 3.71094 2.58789 0 4.24805-1.5625 4.24805-4.00391 0-0.830078-0.146484-1.61133-0.537109-2.63672l-22.9004-60.9863c-1.12305-2.97852-3.125-4.49219-6.25-4.49219-3.02734 0-5.07812 1.46484-6.15234 4.44336l-22.9004 61.084c-0.390625 1.02539-0.537109 1.80664-0.537109 2.63672 0 2.44141 1.5625 3.95508 4.10156 3.95508Zm13.4766-28.3691 11.8652-32.8613h0.244141l11.8652 32.8613Z"/>
  </g>
  <line style="fill:none;stroke:#00AEEF;stroke-width:0.5;opacity:1.0;" x1="792.836" x2="792.836" y1="1919" y2="1933"/>
  <text style="stroke:none;fill:black;font-family:sans-serif;font-size:13;font-weight:bold;" transform="matrix(1 0 0 1 776 1953)">Margins</text>
  <text style="stroke:none;fill:black;font-family:sans-serif;font-size:13;" transform="matrix(1 0 0 1 776 1971)">Leading and trailing margins on the left and right side of each symbol</text>
  <text style="stroke:none;fill:black;font-family:sans-serif;font-size:13;" transform="matrix(1 0 0 1 776 1989)">can be adjusted by modifying the x-location of the margin guidelines.</text>
  <text style="stroke:none;fill:black;font-family:sans-serif;font-size:13;" transform="matrix(1 0 0 1 776 2007)">Modifications are automatically applied proportionally to all</text>
  <text style="stroke:none;fill:black;font-family:sans-serif;font-size:13;" transform="matrix(1 0 0 1 776 2025)">scales and weights.</text>
  <g transform="matrix(0.2 0 0 0.2 1289 1933)">
   <path d="m14.209 9.32617 8.49609 8.54492c4.29688 4.3457 9.22852 4.05273 13.8672-1.07422l53.4668-58.9355-4.83398-4.88281-53.0762 58.3984c-1.75781 2.00195-3.41797 2.49023-5.76172 0.146484l-5.85938-5.81055c-2.34375-2.29492-1.80664-4.00391 0.195312-5.81055l57.373-54.0039-4.88281-4.83398-57.959 54.4434c-4.93164 4.58984-5.32227 9.47266-1.02539 13.8184Zm32.0801-90.9668c-2.09961 2.05078-2.24609 4.93164-1.07422 6.88477 1.17188 1.80664 3.4668 2.97852 6.68945 2.14844 7.32422-1.70898 14.9414-2.00195 22.0703 2.68555l-2.92969 7.27539c-1.70898 4.15039-0.830078 7.08008 1.85547 9.81445l11.4746 11.5723c2.44141 2.44141 4.49219 2.53906 7.32422 2.05078l5.32227-0.976562 3.32031 3.36914-0.195312 2.7832c-0.195312 2.49023 0.439453 4.39453 2.88086 6.78711l3.80859 3.71094c2.39258 2.39258 5.46875 2.53906 7.8125 0.195312l14.5508-14.5996c2.34375-2.34375 2.24609-5.32227-0.146484-7.71484l-3.85742-3.80859c-2.39258-2.39258-4.24805-3.17383-6.64062-2.97852l-2.88086 0.244141-3.22266-3.17383 1.2207-5.61523c0.634766-2.83203-0.146484-5.0293-3.07617-7.95898l-10.9863-10.9375c-16.6992-16.6016-38.8672-16.2109-53.3203-1.75781Zm7.4707 1.85547c12.1582-8.88672 28.6133-7.37305 39.7461 3.75977l12.1582 12.0605c1.17188 1.17188 1.36719 2.09961 1.02539 3.80859l-1.61133 7.42188 7.51953 7.42188 4.93164-0.292969c1.26953-0.0488281 1.66016 0.0488281 2.63672 1.02539l2.88086 2.88086-12.207 12.207-2.88086-2.88086c-0.976562-0.976562-1.12305-1.36719-1.07422-2.68555l0.341797-4.88281-7.4707-7.42188-7.61719 1.26953c-1.61133 0.341797-2.34375 0.195312-3.56445-0.976562l-10.0098-10.0098c-1.26953-1.17188-1.41602-2.00195-0.634766-3.85742l4.39453-10.4492c-7.8125-7.27539-17.9688-10.4004-28.125-7.42188-0.78125 0.195312-1.07422-0.439453-0.439453-0.976562Z"/>
  </g>
  <text style="stroke:none;fill:black;font-family:sans-serif;font-size:13;font-weight:bold;" transform="matrix(1 0 0 1 1289 1953)">Exporting</text>
  <text style="stroke:none;fill:black;font-family:sans-serif;font-size:13;" transform="matrix(1 0 0 1 1289 1971)">Symbols should be outlined when exporting to ensure the</text>
  <text style="stroke:none;fill:black;font-family:sans-serif;font-size:13;" transform="matrix(1 0 0 1 1289 1989)">design is preserved when submitting to Xcode.</text>
  <text id="template-version" style="stroke:none;fill:black;font-family:sans-serif;font-size:13;text-anchor:end;" transform="matrix(1 0 0 1 3036 1933)">Template v.5.0</text>
  <text style="stroke:none;fill:black;font-family:sans-serif;font-size:13;text-anchor:end;" transform="matrix(1 0 0 1 3036 1951)">Requires Xcode 15 or greater</text>
  <text id="descriptive-name" style="stroke:none;fill:black;font-family:sans-serif;font-size:13;text-anchor:end;" transform="matrix(1 0 0 1 3036 1969)">Generated from fiori.customer.financial.fact.sheet</text>
  <text style="stroke:none;fill:black;font-family:sans-serif;font-size:13;text-anchor:end;" transform="matrix(1 0 0 1 3036 1987)">Typeset at 100.0 points</text>
  <text style="stroke:none;fill:black;font-family:sans-serif;font-size:13;" transform="matrix(1 0 0 1 263 726)">Small</text>
  <text style="stroke:none;fill:black;font-family:sans-serif;font-size:13;" transform="matrix(1 0 0 1 263 1156)">Medium</text>
  <text style="stroke:none;fill:black;font-family:sans-serif;font-size:13;" transform="matrix(1 0 0 1 263 1586)">Large</text>
 </g>
 <g id="Guides">
  <g id="H-reference" style="fill:#27AAE1;stroke:none;" transform="matrix(1 0 0 1 339 696)">
   <path d="M0.993654 0L3.63775 0L29.3281-67.1323L30.0303-67.1323L30.0303-70.459L28.1226-70.459ZM11.6885-24.4799L46.9815-24.4799L46.2315-26.7285L12.4385-26.7285ZM55.1196 0L57.7637 0L30.6382-70.459L29.4326-70.459L29.4326-67.1323Z"/>
  </g>
  <line id="Baseline-S" style="fill:none;stroke:#27AAE1;opacity:1;stroke-width:0.5;" x1="263" x2="3036" y1="696" y2="696"/>
  <line id="Capline-S" style="fill:none;stroke:#27AAE1;opacity:1;stroke-width:0.5;" x1="263" x2="3036" y1="625.541" y2="625.541"/>
  <g id="H-reference" style="fill:#27AAE1;stroke:none;" transform="matrix(1 0 0 1 339 1126)">
   <path d="M0.993654 0L3.63775 0L29.3281-67.1323L30.0303-67.1323L30.0303-70.459L28.1226-70.459ZM11.6885-24.4799L46.9815-24.4799L46.2315-26.7285L12.4385-26.7285ZM55.1196 0L57.7637 0L30.6382-70.459L29.4326-70.459L29.4326-67.1323Z"/>
  </g>
  <line id="Baseline-M" style="fill:none;stroke:#27AAE1;opacity:1;stroke-width:0.5;" x1="263" x2="3036" y1="1126" y2="1126"/>
  <line id="Capline-M" style="fill:none;stroke:#27AAE1;opacity:1;stroke-width:0.5;" x1="263" x2="3036" y1="1055.54" y2="1055.54"/>
  <g id="H-reference" style="fill:#27AAE1;stroke:none;" transform="matrix(1 0 0 1 339 1556)">
   <path d="M0.993654 0L3.63775 0L29.3281-67.1323L30.0303-67.1323L30.0303-70.459L28.1226-70.459ZM11.6885-24.4799L46.9815-24.4799L46.2315-26.7285L12.4385-26.7285ZM55.1196 0L57.7637 0L30.6382-70.459L29.4326-70.459L29.4326-67.1323Z"/>
  </g>
  <line id="Baseline-L" style="fill:none;stroke:#27AAE1;opacity:1;stroke-width:0.5;" x1="263" x2="3036" y1="1556" y2="1556"/>
  <line id="Capline-L" style="fill:none;stroke:#27AAE1;opacity:1;stroke-width:0.5;" x1="263" x2="3036" y1="1485.54" y2="1485.54"/>
  <line id="left-margin-Ultralight-S" style="fill:none;stroke:#00AEEF;stroke-width:0.5;opacity:1.0;" x1="515.011" x2="515.011" y1="600.785" y2="720.121"/>
  <line id="right-margin-Ultralight-S" style="fill:none;stroke:#00AEEF;stroke-width:0.5;opacity:1.0;" x1="604.411" x2="604.411" y1="600.785" y2="720.121"/>
  <line id="left-margin-Regular-S" style="fill:none;stroke:#00AEEF;stroke-width:0.5;opacity:1.0;" x1="1403.39" x2="1403.39" y1="600.785" y2="720.121"/>
  <line id="right-margin-Regular-S" style="fill:none;stroke:#00AEEF;stroke-width:0.5;opacity:1.0;" x1="1496.29" x2="1496.29" y1="600.785" y2="720.121"/>
  <line id="left-margin-Black-S" style="fill:none;stroke:#00AEEF;stroke-width:0.5;opacity:1.0;" x1="2884.9" x2="2884.9" y1="600.785" y2="720.121"/>
  <line id="right-margin-Black-S" style="fill:none;stroke:#00AEEF;stroke-width:0.5;opacity:1.0;" x1="2981.9" x2="2981.9" y1="600.785" y2="720.121"/>
 </g>
 <g id="Symbols">
  <g id="Black-S" transform="matrix(1 0 0 1 2884.9 696)">
   <path class="SFSymbolsPreviewWireframe" d="M71.91-22.1C67.41-22.1 65.11-18.4 65.11-15.3L65.11-8.9L22.71-8.9L22.71-46.9L22.71-47.3L31.91-47.3C37.91-47.3 42.71-52.2 42.71-58.1L42.71-67.3L43.01-67.3L47.81-67.3C52.41-67.3 54.61-71.2 54.61-74.1C54.61-77.1 52.41-80.9 47.81-80.9L39.81-80.9C38.01-80.9 36.21-80.2 35.01-78.9L11.01-54.9C9.71-53.6 9.01-51.9 9.01-50.1L9.01-2.1C9.01 1.7 12.11 4.7 15.81 4.7L71.81 4.7C75.61 4.7 78.61 1.6 78.61-2.1L78.61-15.3C78.71-19.5 75.31-22.1 71.91-22.1ZM56.51-11.3L32.51-11.3C29.51-11.3 27.11-13.7 27.11-16.7L27.11-17.5C27.11-24.4 32.81-30.1 39.71-30.1L49.31-30.1C56.21-30.1 61.91-24.4 61.91-17.5L61.91-16.7C61.91-13.7 59.51-11.3 56.51-11.3ZM44.51-31.3C49.71-31.3 53.91-35.5 53.91-40.7C53.91-45.9 49.71-50.1 44.51-50.1C39.31-50.1 35.11-45.9 35.11-40.7C35.11-35.5 39.31-31.3 44.51-31.3ZM74.51-59.5L70.51-59.5C70.11-59.5 69.91-59.8 69.91-60.1C69.91-60.4 70.11-60.7 70.51-60.7L80.51-60.7C83.21-60.7 85.91-62.8 85.91-66.1C85.91-68.3 84.21-71.5 80.51-71.5L77.91-71.5L77.91-74.1C77.91-76.3 76.11-79.5 72.51-79.5C69.01-79.5 67.11-76.7 67.11-74.1L67.11-72C67.11-71.9 67.11-71.1 67.11-71C62.11-69.3 59.11-65 59.11-60.1C59.11-53.1 65.01-48.7 70.51-48.7L74.51-48.7C74.91-48.7 75.11-48.4 75.11-48.1C75.11-47.7 74.81-47.5 74.51-47.5L64.51-47.5C61.51-47.5 59.11-45.1 59.11-42.1C59.11-38.7 62.01-36.7 64.51-36.7L67.11-36.7L67.11-34.1C67.11-30.7 69.81-28.7 72.51-28.7C75.81-28.7 77.91-31.4 77.91-34.1L77.91-36.7C77.91-36.8 77.91-37.1 77.91-37.2C82.81-38.8 85.91-43.2 85.91-48.1C85.91-53.6 81.41-59.5 74.51-59.5Z"/>
  </g>
  <g id="Regular-S" transform="matrix(1 0 0 1 1403.39 696)">
   <path class="SFSymbolsPreviewWireframe" d="M69.96-22.1C67.76-22.1 65.96-20.3 65.96-18.1L65.96-6.1L17.96-6.1L17.96-48.4L19.66-50.1L29.96-50.1C34.36-50.1 37.96-53.7 37.96-58.1L37.96-68.4L39.66-70.1L49.96-70.1C52.16-70.1 53.96-71.9 53.96-74.1C53.96-76.3 52.16-78.1 49.96-78.1L37.96-78.1C36.86-78.1 35.86-77.7 35.16-76.9L11.16-52.9C10.36-52.1 9.96-51.1 9.96-50.1L9.96-2.1C9.96 0.1 11.76 1.9 13.96 1.9L69.96 1.9C72.16 1.9 73.96 0.1 73.96-2.1L73.96-18.1C73.96-20.3 72.16-22.1 69.96-22.1ZM53.96-14.1L29.96-14.1C27.76-14.1 25.96-15.9 25.96-18.1L25.96-18.9C25.96-25.1 30.96-30.1 37.16-30.1L46.76-30.1C52.96-30.1 57.96-25.1 57.96-18.9L57.96-18.1C57.96-15.9 56.16-14.1 53.96-14.1ZM41.96-34.1C46.36-34.1 49.96-37.7 49.96-42.1C49.96-46.5 46.36-50.1 41.96-50.1C37.56-50.1 33.96-46.5 33.96-42.1C33.96-37.7 37.56-34.1 41.96-34.1ZM71.96-58.1L67.96-58.1C66.86-58.1 65.96-59 65.96-60.1C65.96-61.2 66.86-62.1 67.96-62.1L77.96-62.1C80.16-62.1 81.96-63.9 81.96-66.1C81.96-68.3 80.16-70.1 77.96-70.1L73.96-70.1L73.96-74.1C73.96-76.3 72.16-78.1 69.96-78.1C67.76-78.1 65.96-76.3 65.96-74.1L65.96-70.1C65.96-70 65.96-70 65.96-69.9C61.36-69 57.96-64.9 57.96-60.1C57.96-54.6 62.46-50.1 67.96-50.1L71.96-50.1C73.06-50.1 73.96-49.2 73.96-48.1C73.96-47 73.06-46.1 71.96-46.1L61.96-46.1C59.76-46.1 57.96-44.3 57.96-42.1C57.96-39.9 59.76-38.1 61.96-38.1L65.96-38.1L65.96-34.1C65.96-31.9 67.76-30.1 69.96-30.1C72.16-30.1 73.96-31.9 73.96-34.1L73.96-38.1C73.96-38.2 73.96-38.2 73.96-38.3C78.56-39.2 81.96-43.3 81.96-48.1C81.96-53.6 77.46-58.1 71.96-58.1Z"/>
  </g>
  <g id="Ultralight-S" transform="matrix(1 0 0 1 515.011 696)">
   <path class="SFSymbolsPreviewWireframe" d="M68.175-22.1C67.575-22.1 66.975-21.6 66.975-20.9L66.975-3.3L13.375-3.3L13.375-49.7L16.675-53L28.175-53C31.075-53 33.375-55.3 33.375-58.2L33.375-69.7L36.675-73L51.575-73C52.175-73 52.775-73.5 52.775-74.2C52.775-74.9 52.275-75.4 51.575-75.4L36.175-75.4C35.875-75.4 35.575-75.3 35.375-75.1L11.375-51.1C11.175-50.9 11.075-50.6 11.075-50.3L11.075-2.3C11.075-1.7 11.575-1.1 12.275-1.1L68.275-1.1C68.875-1.1 69.475-1.6 69.475-2.3L69.475-21.1C69.375-21.6 68.775-22.1 68.175-22.1ZM52.775-16.9L28.775-16.9C28.175-16.9 27.575-17.4 27.575-18.1L27.575-18.9C27.575-23.5 31.275-27.3 35.975-27.3L45.575-27.3C50.175-27.3 53.975-23.6 53.975-18.9L53.975-18.1C53.875-17.5 53.375-16.9 52.775-16.9ZM40.775-36.9C43.675-36.9 45.975-39.2 45.975-42.1C45.975-45 43.675-47.3 40.775-47.3C37.875-47.3 35.575-45 35.575-42.1C35.575-39.2 37.875-36.9 40.775-36.9ZM70.775-55.3L66.775-55.3C64.775-55.3 61.975-56.9 61.975-60.1C61.975-62.5 63.875-64.9 66.775-64.9L76.775-64.9C77.575-64.9 77.975-65.6 77.975-66.1C77.975-66.8 77.375-67.3 76.775-67.3L69.975-67.3L69.975-74.1C69.975-74.9 69.275-75.3 68.775-75.3C68.075-75.3 67.575-74.8 67.575-74.1L67.575-68.6C67.575-68.5 67.575-67.3 67.575-67.3C63.075-67.3 59.575-64.4 59.575-60.1C59.575-56.7 62.175-52.9 66.775-52.9L70.775-52.9C74.175-52.9 75.575-50.1 75.575-48.1C75.575-46.1 74.075-43.3 70.775-43.3L60.775-43.3C60.175-43.3 59.575-42.8 59.575-42.1C59.575-41.3 60.275-40.9 60.775-40.9L67.575-40.9L67.575-34.1C67.575-33.8 67.875-32.9 68.775-32.9C69.475-32.9 69.975-33.5 69.975-34.1L69.975-39.8C69.975-39.9 69.975-40.9 69.975-41C74.575-41 77.975-43.9 77.975-48.2C77.875-52.8 73.975-55.3 70.775-55.3Z"/>
  </g>
 </g>
</svg>
