<svg width="46" height="45" viewBox="0 0 46 45" fill="none" xmlns="http://www.w3.org/2000/svg">
<path d="M7.11571 11.2254L11.7179 27.7996C11.8165 28.1556 12.1651 28.386 12.5366 28.3389L43.9966 24.5636C45.1498 24.2739 45.479 23.3523 45.3223 22.9072L27.2234 8.79405C27.1125 8.47988 26.8044 8.27741 26.4699 8.29836L8.02242 8.83594C7.54882 8.86561 6.5981 9.54107 7.11395 11.2271L7.11571 11.2254Z" fill="#00144A"/>
<path d="M7.35751 9.76942L12.1868 27.1587C12.2854 27.5148 12.634 27.7451 13.0055 27.698L44.712 23.8913C45.1838 23.8302 45.4796 23.3555 45.3229 22.9104L39.2242 7.37999C39.1133 7.06582 38.8052 6.86335 38.4707 6.8843L8.03182 8.83215C7.55822 8.86182 7.23075 9.31562 7.35751 9.76942Z" fill="#4D82B8"/>
<path d="M18.4882 25.2044L14.6708 25.6827C14.2908 25.7298 13.9108 25.5117 13.8208 25.192L9.94569 11.4616C9.86569 11.1741 10.0932 10.9163 10.4582 10.8841L14.1181 10.5619C14.4756 10.5297 14.8331 10.7354 14.9181 11.0179L18.9907 24.5526C19.0857 24.8649 18.8582 25.1573 18.4882 25.2044Z" stroke="#D5DADD" stroke-width="0.754166"/>
<path d="M26.6028 24.1879L22.9628 24.6415C22.6004 24.6861 22.2279 24.4729 22.1304 24.1631L18.0052 10.7401C17.9152 10.46 18.1252 10.2097 18.4727 10.1775L21.9701 9.87016C22.3101 9.84042 22.6626 10.0387 22.7551 10.3163L27.0577 23.556C27.1602 23.8608 26.9577 24.1433 26.6028 24.1879Z" stroke="#D5DADD" stroke-width="0.754166"/>
<path d="M34.5913 23.3826L31.1164 23.8163C30.7714 23.8584 30.4064 23.6502 30.2989 23.3504L25.9034 10.1556C25.8084 9.88303 25.9984 9.63767 26.3308 9.60793L29.6758 9.31548C30.0008 9.28574 30.3457 9.48153 30.4457 9.75167L35.0038 22.7704C35.1138 23.0654 34.9288 23.3404 34.5913 23.3826Z" stroke="#D5DADD" stroke-width="0.754166"/>
<path d="M42.5053 22.33L39.1929 22.7439C38.8629 22.786 38.5054 22.5803 38.3929 22.2879L33.5508 9.56158C33.4483 9.2964 33.6233 9.05848 33.9408 9.02874L37.1432 8.74869C37.4557 8.72142 37.7932 8.91226 37.8982 9.17496L42.8803 21.7352C42.9953 22.0227 42.8278 22.2904 42.5053 22.33Z" stroke="#D5DADD" stroke-width="0.754166"/>
<path d="M28.5374 38.1065L18.907 35.1431C20.474 34.0211 19.5117 32.7267 16.5705 31.9373C13.2049 31.0329 7.8775 30.98 4.14193 31.8735C-0.109745 32.8914 -1.03003 34.8028 2.8501 36.0723C6.87948 37.3901 13.6309 37.2518 17.3664 35.903L26.3268 39.0048L27.4165 38.8189C27.6174 38.5765 27.7275 38.8399 28.0415 38.6504C28.6229 38.2525 28.9276 37.9915 28.8312 37.9433H28.5374V38.1065Z" fill="#101619"/>
<path d="M29.8446 14.523C30.4842 17.1979 29.4305 19.9526 28.1146 21.9193C26.9306 23.6865 24.9334 24.9316 22.3184 25.2442C16.5505 25.9324 10.3769 21.8245 8.82055 16.2586C7.2642 10.6928 10.6825 5.39452 16.1598 5.14183C21.4216 4.89911 28.0795 9.59388 29.8446 14.523Z" fill="#8D2A00"/>
<path d="M29.459 13.1481C31.2943 18.2718 28.5256 23.0896 23.0015 23.7495C17.2337 24.4378 11.0601 20.3299 9.50371 14.764C7.94736 9.19812 11.4542 5.04531 16.9331 4.79262C22.195 4.5499 27.6956 8.22059 29.4607 13.1481H29.459Z" fill="#C35500"/>
<path d="M28.2286 13.2481C29.8033 17.7051 27.3619 21.8612 22.5726 22.4082C17.5997 22.9751 12.286 19.439 10.9217 14.6512C9.60584 10.0329 12.5532 6.20592 17.3091 5.96486C21.9013 5.73378 26.7073 8.94065 28.2303 13.2481H28.2286Z" fill="#D0C1CB"/>
<path d="M29.3922 38.1397L26.2461 38.9743L21.248 23.0729L24.1954 22.7305L29.3922 38.1397Z" fill="#C35500"/>
<path d="M10.7559 11.0625L17.2601 5.96875C13.8435 6.15993 11.3704 8.20475 10.7559 11.0625Z" fill="#D0C1CB"/>
<path d="M22.573 22.4093C26.7979 21.9272 29.1942 18.6372 28.6197 14.8086L18.2129 21.9172C19.624 22.386 21.1135 22.5756 22.573 22.4093Z" fill="#D5DADD"/>
<path d="M17.3066 5.96469C17.4419 5.95808 17.5755 5.95478 17.7108 5.95312C17.5755 5.95312 17.4419 5.95808 17.3066 5.96469Z" fill="#D0C1CB"/>
<path d="M21.6777 6.72656C21.7195 6.74319 21.7612 6.75981 21.8013 6.77644C21.7596 6.75981 21.7195 6.74319 21.6777 6.72656Z" fill="#D0C1CB"/>
<path d="M22.0566 6.88281C22.085 6.89611 22.1134 6.90941 22.1418 6.92105C22.1134 6.90775 22.085 6.89445 22.0566 6.88281Z" fill="#D0C1CB"/>
<path d="M21.293 6.58203C21.3397 6.59866 21.3882 6.61528 21.4349 6.63357C21.3882 6.61528 21.3414 6.59866 21.293 6.58203Z" fill="#D0C1CB"/>
<path d="M18.6953 6C18.7721 6.00661 18.8489 6.01487 18.9274 6.02479C18.8506 6.01653 18.7738 6.00826 18.6953 6Z" fill="#D0C1CB"/>
<path d="M18.2793 5.96875C18.3595 5.97371 18.4413 5.97701 18.5214 5.98362C18.4413 5.97701 18.3595 5.97206 18.2793 5.96875Z" fill="#D0C1CB"/>
<path d="M19.1035 6.04297C19.1787 6.05288 19.2555 6.06445 19.3306 6.07602C19.2555 6.06445 19.1803 6.05288 19.1035 6.04297Z" fill="#D0C1CB"/>
<path d="M17.8457 5.95312C17.9359 5.95312 18.0244 5.95478 18.1146 5.95808C18.0244 5.95478 17.9342 5.95312 17.8457 5.95312Z" fill="#D0C1CB"/>
<path d="M28.6922 15.4979C28.4451 10.5472 23.6675 6.58721 18.925 5.99704C17.2751 5.84576 14.3745 5.84576 12.2687 8.12498C12.0316 8.381 11.8095 8.68024 11.6024 8.9961C11.5674 9.0493 11.5473 9.08587 11.5156 9.13741C11.5106 9.14406 11.5089 9.15237 11.5039 9.16068C14.0004 6.16661 17.9915 5.97543 21.5183 7.37189C25.1687 8.81656 28.3215 11.9636 28.6922 15.5013V15.4979Z" fill="#8D2A00"/>
<path d="M16.4787 6.57929L10.756 11.0613C10.5205 12.1585 10.5573 13.3737 10.9213 14.6505C10.9514 14.7569 10.9848 14.8616 11.0198 14.9664L22.093 7.61665C20.2794 6.80704 18.3156 6.40473 16.4787 6.57929Z" fill="#D5DADD"/>
<path d="M20.0488 23.7014L21.7638 24.7138C21.7638 24.7138 21.4065 23.8311 22.5821 23.7097V23.6914C22.1112 23.7629 21.1627 23.8577 20.0488 23.6997V23.7014Z" fill="#8D2A00"/>
<path d="M23.8281 23.5324C24.0669 23.5424 24.4844 23.7186 24.6831 24.2257L24.967 23.3047C24.967 23.3047 24.7048 23.431 23.8281 23.5308V23.5324Z" fill="#8D2A00"/>
<path d="M26.2463 38.9753L21.5605 24.0848L21.8762 23.7689C21.8762 23.7689 22.4757 23.734 23.157 23.5977C23.157 23.5977 22.9215 23.862 22.99 24.2277C23.2638 25.6641 27.7191 38.696 27.7191 38.696L26.2446 38.9753H26.2463Z" fill="#8D2A00"/>
<path d="M29.393 38.1393C29.393 38.3122 28.5814 38.5998 27.2538 38.9406C26.5976 39.072 26.2753 39.0553 26.2469 38.9739C26.2269 38.9157 26.5859 38.6913 27.2371 38.4818C28.2124 38.1776 29.2828 38.0063 29.393 38.1393Z" fill="#8D2A00"/>
<path d="M20.7194 14.3484C21.1603 13.9045 21.5711 13.454 21.3156 12.671C21.0317 11.8015 20.2034 11.3726 19.2366 11.4391C18.2396 11.5073 17.7537 12.006 17.4798 12.6394L16.5547 12.0226C16.8853 11.2878 17.5499 10.6644 18.9426 10.573C20.6059 10.4633 21.9034 11.2213 22.3409 12.538C22.7033 13.6336 22.219 14.237 21.6663 14.8521C21.1586 15.4107 20.8981 15.705 21.0734 16.2519L21.1102 16.365L20.0949 16.4564L20.0581 16.3434C19.7425 15.3492 20.2335 14.8355 20.7194 14.3501V14.3484ZM20.8664 17.1995C21.2855 17.1613 21.703 17.4389 21.8332 17.8429C21.9635 18.2469 21.7447 18.591 21.3239 18.6325C20.8964 18.6741 20.4823 18.3998 20.352 17.9842C20.2218 17.5686 20.4406 17.2378 20.8664 17.1979V17.1995Z" fill="#00144A"/>
</svg>
