<svg width="320" height="164" viewBox="0 0 320 164" fill="none" xmlns="http://www.w3.org/2000/svg">
<rect y="24.3999" width="320" height="138" rx="24" fill="#89D1FF"/>
<path d="M95.1947 74.5838C85.1221 67.119 75.0495 59.6541 64.9768 52.1975C64.5205 51.8633 64.0804 52.6212 64.5286 52.9554C74.6013 60.4202 84.6739 67.885 94.7465 75.3417C95.2029 75.6758 95.643 74.9179 95.1947 74.5838Z" fill="#340800"/>
<path d="M94.1027 73.6384C93.0025 71.2262 91.9024 68.8058 90.8022 66.3936C88.17 60.6238 85.5459 54.8622 82.9136 49.0925L73.3788 28.1649C70.6162 22.1017 67.8536 16.0468 65.0909 9.98363L62.3609 3.99384L61.5134 2.14393C61.3748 1.8424 61.2689 1.41863 61.0651 1.15785C61.0407 1.12526 61.0244 1.07636 61.0081 1.03561C60.9184 0.840029 60.5843 0.929672 60.6006 1.14156C61.1548 7.0417 61.7171 12.9419 62.2712 18.8501C63.1514 28.1812 64.0397 37.5122 64.9198 46.8433C65.1235 49.0028 65.3273 51.1624 65.531 53.322C65.5554 53.5991 65.9955 53.6072 65.9711 53.322C65.4169 47.4219 64.8546 41.5217 64.3004 35.6134C63.4203 26.2824 62.5402 16.9513 61.6519 7.62031C61.4482 5.46073 61.2444 3.30114 61.0407 1.14156L60.6332 1.25565C61.7334 3.66786 62.8335 6.08823 63.9337 8.50044C66.566 14.2702 69.1901 20.0318 71.8223 25.8016L81.3571 46.7292C84.1197 52.7923 86.8824 58.8473 89.645 64.9104L92.375 70.9002L93.2226 72.7501C93.3611 73.0516 93.4671 73.4754 93.6708 73.7362C93.6952 73.7688 93.7115 73.8177 93.7278 73.8584C93.8419 74.1192 94.2249 73.891 94.1109 73.6384H94.1027Z" fill="#340800"/>
<path d="M72.8165 26.0379C69.402 25.2555 65.9955 24.4732 62.5809 23.6827C62.0675 23.5686 61.8475 24.351 62.3609 24.4732C65.7755 25.2555 69.1819 26.0379 72.5965 26.8284C73.1099 26.9425 73.33 26.1601 72.8165 26.0379Z" fill="#340800"/>
<rect x="60.8876" y="1.26611" width="0.3" height="59.4438" transform="rotate(-11.3292 60.8876 1.26611)" fill="#340800"/>
<rect width="0.3" height="64.0404" transform="matrix(-0.959409 0.282019 0.282019 0.959409 61.1473 1.99268)" fill="#340800"/>
<rect width="0.3" height="69.2382" transform="matrix(-0.934726 0.35537 0.35537 0.934726 61.4842 3.1167)" fill="#340800"/>
<path d="M82.7263 46.9085L63.9746 39.0607C63.5263 38.8732 63.3226 39.6067 63.7708 39.7941C70.0214 42.4101 76.272 45.026 82.5225 47.642C82.9707 47.8294 83.1745 47.0959 82.7263 46.9085Z" fill="#340800"/>
<path d="M206.861 154.638C236.54 149.98 259.895 141.709 259.024 136.164C258.154 130.62 233.389 129.901 203.709 134.56C174.03 139.218 150.676 147.489 151.546 153.034C152.416 158.578 177.181 159.297 206.861 154.638Z" fill="#1B90FF"/>
<path d="M224.868 56.8835C233.522 65.9537 242.177 75.0158 250.832 84.0861C251.223 84.4936 251.842 83.8742 251.451 83.4667C242.796 74.3965 234.142 65.3344 225.487 56.2641C225.096 55.8567 224.476 56.476 224.868 56.8835Z" fill="#340800"/>
<path d="M226.229 57.5842C228.934 51.8144 231.64 46.0447 234.345 40.2749C238.648 31.0905 242.951 21.9062 247.254 12.7219C248.232 10.6356 249.21 8.54122 250.196 6.45498L249.788 6.34089C249.797 8.85905 249.805 11.3854 249.821 13.9035L249.894 32.0685C249.927 39.3948 249.951 46.7211 249.984 54.0392C250.008 60.3713 250.033 66.7033 250.057 73.0354L250.082 79.2778C250.082 80.1987 249.894 81.3641 250.09 82.2768C250.098 82.3175 250.09 82.3664 250.09 82.4072C250.09 82.6924 250.53 82.6924 250.53 82.4072C250.522 79.889 250.514 77.3627 250.497 74.8446L250.424 56.6796C250.391 49.3533 250.367 42.027 250.334 34.7089C250.31 28.3768 250.286 22.0447 250.261 15.7127L250.237 9.47025C250.237 8.54937 250.424 7.38401 250.228 6.47128C250.22 6.43054 250.228 6.38164 250.228 6.34089C250.228 6.13716 249.911 6.02307 249.821 6.2268C247.115 11.9966 244.41 17.7663 241.704 23.5361C237.401 32.7204 233.098 41.9048 228.796 51.0891C227.818 53.1754 226.84 55.2697 225.854 57.356C225.731 57.6086 226.114 57.8368 226.237 57.576L226.229 57.5842Z" fill="#340800"/>
<path d="M251.247 31.0092C247.596 29.2897 243.945 27.562 240.286 25.8425C239.773 25.6061 239.333 26.364 239.838 26.6004C243.489 28.3199 247.14 30.0475 250.799 31.7671C251.312 32.0034 251.752 31.2455 251.247 31.0092Z" fill="#340800"/>
<path d="M251.206 55.0092C244.825 50.2988 238.453 45.5885 232.072 40.8781C231.615 40.544 231.175 41.3019 231.623 41.636C238.004 46.3464 244.377 51.0567 250.758 55.767C251.215 56.1012 251.655 55.3433 251.206 55.0092Z" fill="#340800"/>
<rect width="0.3" height="68.6061" transform="matrix(-0.996046 -0.0888429 -0.0888429 0.996046 250.005 8.0542)" fill="#340800"/>
<rect x="249.668" y="7.11133" width="0.3" height="64.6185" transform="rotate(10.0288 249.668 7.11133)" fill="#340800"/>
<rect x="249.461" y="7.20068" width="0.3" height="58.7542" transform="rotate(18.3082 249.461 7.20068)" fill="#340800"/>
<path d="M249.528 83.9797L192.197 108.452L173.355 110.294L149.763 109.023C149.763 109.023 214.852 83.0751 224.11 57.3149L249.528 83.9797Z" fill="#C35500"/>
<path d="M74.2101 58.9369L73.0366 60.469C74.3568 61.4714 75.7259 62.5064 77.1032 63.5576L78.2767 62.0255C76.8994 60.9824 75.5222 59.9393 74.2101 58.9369ZM66.8839 53.3872L65.7104 54.9193C66.8676 55.7994 68.253 56.8507 69.7769 58.0079L70.9504 56.4758C69.4265 55.3186 68.0411 54.2673 66.8839 53.3872ZM92.9293 73.1331C91.8291 72.3019 90.4356 71.2425 88.8627 70.0445L87.6892 71.5766C89.2702 72.7746 90.6637 73.8258 91.7558 74.6652L92.9293 73.1331ZM81.5283 64.4948L80.3548 66.0269C81.7483 67.0863 83.1174 68.1213 84.4213 69.1155L85.5948 67.5834C84.2909 66.5892 82.9218 65.5542 81.5283 64.4948Z" fill="#8D2A00"/>
<path d="M247.482 77.1426L244.948 79.3674L248.46 83.0835L250.994 80.8587L247.482 77.1426Z" fill="#8D2A00"/>
<path d="M246.83 76.458L244.426 78.8132L247.938 82.5293L250.343 80.1741L246.83 76.458Z" fill="#C35500"/>
<path d="M241.224 70.4766L238.689 72.7013L242.201 76.4175L244.736 74.1927L241.224 70.4766Z" fill="#8D2A00"/>
<path d="M240.572 69.7837L238.167 72.1389L241.68 75.855L244.084 73.4998L240.572 69.7837Z" fill="#C35500"/>
<path d="M234.769 63.7124L232.235 65.9372L235.747 69.6533L238.282 67.4285L234.769 63.7124Z" fill="#8D2A00"/>
<path d="M234.109 63.0195L231.705 65.3829L235.226 69.099L237.63 66.7357L234.109 63.0195Z" fill="#C35500"/>
<path d="M228.559 57.1279L226.025 59.3527L229.537 63.0688L232.072 60.844L228.559 57.1279Z" fill="#8D2A00"/>
<path d="M227.907 56.4351L225.495 58.7902L229.016 62.5063L231.42 60.1512L227.907 56.4351Z" fill="#C35500"/>
<path d="M218.968 66.0596L240.074 88.7719L228.462 96.0004L211.878 73.4429L218.968 66.0596Z" fill="#8D2A00"/>
<path d="M183.632 92.7407L190.706 111.321L169.998 116.741L169.216 100.263L183.632 92.7407Z" fill="#8D2A00"/>
<path d="M203.598 80.1172L219.823 102.194L201.226 110.294L193.142 87.142L203.598 80.1172Z" fill="#8D2A00"/>
<path d="M185.726 100.988C189.589 103.115 201.128 103.384 201.128 103.384C201.316 103.384 201.512 103.392 201.666 103.4L224.696 101.159C225.968 101.037 226.897 99.8713 226.701 98.6082C226.644 98.2333 226.579 97.8421 226.506 97.451C226.172 95.5929 225.699 93.6697 225.487 92.8303C225.414 92.5451 225.373 92.3821 225.373 92.3821C225.373 92.3821 225.642 91.9012 226 91.2493C226.294 90.7114 226.938 89.3098 227.247 88.7148C227.924 87.3946 228.551 84.7542 228.404 83.4341C228.388 83.3037 228.233 83.0021 228.233 83.0021C227.826 82.2116 227.044 81.6901 226.147 81.6982H226.131C223.409 81.7553 220.54 82.0894 209.31 80.9485C200.477 80.0439 194.373 78.7563 192.164 78.2429C191.667 78.1288 191.154 78.1859 190.697 78.4059C190.697 78.4059 189.882 78.7319 189.654 78.903C189.442 79.0578 189.287 79.0823 189.116 79.4246C189.1 79.4572 189.043 79.6935 189.043 79.7098C188.97 79.938 188.953 80.1987 188.937 80.321C188.733 81.7064 188.725 82.994 188.587 84.5261C188.448 86.1315 188.35 87.5576 188.301 88.2829C188.285 88.5926 188.204 88.886 188.057 89.1631C187.861 89.5298 187.527 90.2306 187.006 91.5264C186.965 91.6323 186.916 91.7464 186.875 91.8605C186.696 92.3006 186.5 92.814 186.305 93.36C185.889 94.4928 185.05 96.3427 184.512 98.4859C184.439 98.7712 184.341 99.1949 184.496 99.6758C184.569 99.9039 184.797 100.474 185.734 100.988H185.726Z" fill="#FFEAF4"/>
<path d="M188.855 80.9976C188.855 81.0791 188.766 81.7717 188.766 81.8532C188.75 82.0651 188.701 83.0838 188.684 83.2957C201.723 84.6485 214.77 86.0013 227.809 87.3622C227.834 87.2481 227.964 86.9466 227.997 86.8244C228.087 86.4413 228.225 85.8872 228.233 85.8383C228.29 85.5775 228.266 85.5938 228.364 84.9826C215.243 83.6624 201.976 82.3259 188.855 81.0057V80.9976Z" fill="#9B015D"/>
<path d="M188.57 84.8193L188.391 87.1093L226.286 90.7602C226.318 90.6869 226.807 89.8638 226.84 89.7986C226.88 89.7171 227.215 88.7962 227.255 88.7147C214.371 87.419 201.454 86.1232 188.57 84.8193Z" fill="#9B015D"/>
<path opacity="0.3" d="M196.459 83.0021C195.652 82.9451 192.971 81.9997 192.458 82.6354C191.602 83.7111 192.115 86.8975 190.942 89.3831C189.076 93.3437 188.415 97.6058 188.961 98.0377C189.507 98.4696 201.08 101.534 202.033 101.517C202.987 101.501 208.675 86.9301 208.887 86.653C211.307 83.3362 204.616 83.5481 196.459 83.0021Z" fill="#FFB2D2"/>
<path opacity="0.8" d="M200.248 91.0703C200.248 91.0703 194.992 90.2472 191.781 89.9783C188.562 89.7175 188.66 89.3263 187.03 91.2822C187.959 88.9922 188.293 88.5603 188.293 88.5603C188.293 88.5603 188.407 86.6045 188.611 84.29C188.799 84.7546 189.776 87.1586 190.763 87.9573C191.855 88.8537 200.257 91.0703 200.257 91.0703H200.248Z" fill="#FFB2D2"/>
<path opacity="0.8" d="M225.381 92.3819C225.381 92.3819 225.422 92.5449 225.495 92.8302C225.096 92.9768 224.713 93.0991 224.403 93.1398C223.27 93.3028 218.723 92.7161 218.723 92.7161C218.723 92.7161 221.42 92.9035 222.896 92.5449C224.33 92.1945 225.911 91.3062 226.009 91.2573C225.65 91.9093 225.381 92.3901 225.381 92.3901V92.3819Z" fill="#FFB2D2"/>
<path d="M180.616 109.039C180.6 108.64 180.266 108.55 179.907 107.613C179.907 107.613 179.907 107.613 179.907 107.605C179.647 106.912 179.361 105.991 179.207 104.834C179.15 104.451 179.109 104.043 179.093 103.603C179.044 102.813 179.06 101.941 179.158 100.987C179.182 100.743 179.215 100.499 179.256 100.238C179.321 99.7977 179.418 99.3413 179.524 98.8768C179.842 97.5566 180.29 96.1875 180.804 94.8917C180.999 94.3946 181.203 93.9138 181.407 93.4493C182.646 90.6296 183.99 88.4537 184.3 88.47C184.381 88.47 184.642 88.5189 185.025 88.576C186.525 88.8286 189.948 89.4806 192.205 89.8391C193.224 90.0021 193.998 90.1081 194.275 90.0999C195.31 90.0592 201.511 88.1196 202.343 88.4456C202.832 88.6412 202.693 92.1617 202.163 95.8208C202.074 96.3994 201.984 96.978 201.886 97.5566C201.609 99.0887 201.275 100.564 200.884 101.721C200.794 102.014 200.697 102.283 200.599 102.536C200.419 102.984 200.224 103.424 200.045 103.856C199.678 104.679 199.311 105.453 198.961 106.154C198.822 106.431 198.692 106.684 198.57 106.937C197.657 108.705 196.948 109.87 196.948 109.87" fill="#FFB2D2"/>
<path d="M194.364 110.205C194.364 110.205 186.957 109.927 184.626 109.618C182.295 109.316 181.643 109.284 181.643 109.284" fill="#FFB2D2"/>
<path d="M180.616 109.039C180.616 109.039 180.266 108.55 179.907 107.613C180.339 108.298 180.853 108.803 181.073 108.689C181.301 108.575 188.309 107.621 191.341 108.249C194.381 108.868 193.427 108.941 194.658 108.852C195.88 108.754 196.769 107.98 198.26 106.277C199.759 104.565 200.998 97.0515 201.12 96.5544C201.243 96.0573 201.014 94.6393 201.145 93.2376C201.275 91.8359 202.326 88.4458 202.326 88.4458C202.815 88.6414 202.677 92.1619 202.147 95.821C202.057 96.3996 201.968 96.9782 201.87 97.5568C201.593 99.0889 201.259 100.564 200.868 101.721C200.778 102.015 200.68 102.283 200.582 102.536C200.403 102.984 200.208 103.424 200.028 103.856C199.662 104.679 199.295 105.454 198.944 106.154C198.798 106.44 198.798 106.448 198.553 106.937C197.331 109.357 197.266 109.602 196.932 109.871C196.597 110.139 195.872 110.514 194.381 110.205C188.782 109.993 186.077 109.773 184.642 109.618C184.406 109.593 181.66 109.284 181.66 109.284" fill="#9B015D"/>
<path d="M185.188 96.5294C185.796 96.5294 186.288 96.0369 186.288 95.4293C186.288 94.8217 185.796 94.3291 185.188 94.3291C184.581 94.3291 184.088 94.8217 184.088 95.4293C184.088 96.0369 184.581 96.5294 185.188 96.5294Z" fill="#DF1278"/>
<path d="M184.561 92.129C185.168 92.129 185.661 91.6365 185.661 91.0289C185.661 90.4213 185.168 89.9287 184.561 89.9287C183.953 89.9287 183.461 90.4213 183.461 91.0289C183.461 91.6365 183.953 92.129 184.561 92.129Z" fill="#DF1278"/>
<path d="M188.888 99.5368C189.496 99.5368 189.988 99.0442 189.988 98.4366C189.988 97.829 189.496 97.3364 188.888 97.3364C188.28 97.3364 187.788 97.829 187.788 98.4366C187.788 99.0442 188.28 99.5368 188.888 99.5368Z" fill="#DF1278"/>
<path d="M181.823 106.056C182.43 106.056 182.923 105.564 182.923 104.956C182.923 104.349 182.43 103.856 181.823 103.856C181.215 103.856 180.722 104.349 180.722 104.956C180.722 105.564 181.215 106.056 181.823 106.056Z" fill="#DF1278"/>
<path d="M185.482 102.633C186.089 102.633 186.582 102.141 186.582 101.533C186.582 100.926 186.089 100.433 185.482 100.433C184.874 100.433 184.381 100.926 184.381 101.533C184.381 102.141 184.874 102.633 185.482 102.633Z" fill="#DF1278"/>
<path d="M189.63 105.69C190.237 105.69 190.73 105.197 190.73 104.589C190.73 103.982 190.237 103.489 189.63 103.489C189.022 103.489 188.529 103.982 188.529 104.589C188.529 105.197 189.022 105.69 189.63 105.69Z" fill="#DF1278"/>
<path d="M181.969 100.278C182.577 100.278 183.069 99.7859 183.069 99.1783C183.069 98.5707 182.577 98.0781 181.969 98.0781C181.362 98.0781 180.869 98.5707 180.869 99.1783C180.869 99.7859 181.362 100.278 181.969 100.278Z" fill="#DF1278"/>
<path d="M191.977 94.859C192.584 94.859 193.077 94.3665 193.077 93.7589C193.077 93.1513 192.584 92.6587 191.977 92.6587C191.369 92.6587 190.876 93.1513 190.876 93.7589C190.876 94.3665 191.369 94.859 191.977 94.859Z" fill="#DF1278"/>
<path d="M194.324 98.7706C194.931 98.7706 195.424 98.2781 195.424 97.6705C195.424 97.0629 194.931 96.5703 194.324 96.5703C193.716 96.5703 193.223 97.0629 193.223 97.6705C193.223 98.2781 193.716 98.7706 194.324 98.7706Z" fill="#DF1278"/>
<path d="M193.191 103.025C193.798 103.025 194.291 102.532 194.291 101.925C194.291 101.317 193.798 100.825 193.191 100.825C192.583 100.825 192.091 101.317 192.091 101.925C192.091 102.532 192.583 103.025 193.191 103.025Z" fill="#DF1278"/>
<path d="M185.441 108.314C186.048 108.314 186.541 107.821 186.541 107.213C186.541 106.606 186.048 106.113 185.441 106.113C184.833 106.113 184.341 106.606 184.341 107.213C184.341 107.821 184.833 108.314 185.441 108.314Z" fill="#DF1278"/>
<path d="M194.584 107.091C195.192 107.091 195.685 106.599 195.685 105.991C195.685 105.384 195.192 104.891 194.584 104.891C193.977 104.891 193.484 105.384 193.484 105.991C193.484 106.599 193.977 107.091 194.584 107.091Z" fill="#DF1278"/>
<path d="M198.154 102.193C198.761 102.193 199.254 101.701 199.254 101.093C199.254 100.486 198.761 99.9932 198.154 99.9932C197.546 99.9932 197.054 100.486 197.054 101.093C197.054 101.701 197.546 102.193 198.154 102.193Z" fill="#DF1278"/>
<path d="M197.461 93.4083C198.069 93.4083 198.561 92.9158 198.561 92.3082C198.561 91.7006 198.069 91.208 197.461 91.208C196.854 91.208 196.361 91.7006 196.361 92.3082C196.361 92.9158 196.854 93.4083 197.461 93.4083Z" fill="#DF1278"/>
<path d="M198.879 97.0675C199.487 97.0675 199.979 96.575 199.979 95.9674C199.979 95.3597 199.487 94.8672 198.879 94.8672C198.272 94.8672 197.779 95.3597 197.779 95.9674C197.779 96.575 198.272 97.0675 198.879 97.0675Z" fill="#DF1278"/>
<path opacity="0.3" d="M183.591 91.9496C183.021 91.9985 182.507 92.3163 182.222 92.8053C181.741 93.6365 180.991 95.0953 180.445 96.937C179.573 99.8708 179.582 102.87 180.005 103.114C180.429 103.359 188.807 104.231 189.475 104.117C190.135 104.003 192.775 93.335 192.629 93.1394C192.49 92.952 189.328 91.4525 183.591 91.9496Z" fill="#FFEAF4"/>
<path d="M193.061 108.681C193.061 108.681 185.188 110.327 182.654 110.612C180.119 110.905 179.418 111.036 179.418 111.036" fill="#FFB2D2"/>
<path d="M65.7674 53.5991L94.7058 74.926C94.7058 74.926 142.958 102.634 151.923 106.358C160.895 110.082 186.215 107.051 191.626 105.364C197.046 103.669 249.52 83.9963 249.52 83.9963C249.52 83.9963 249.756 83.8415 237.116 94.3623C220.467 108.208 197.201 117.441 182.532 121.606C173.918 124.05 157.448 127.041 147.123 127.041C136.797 127.041 119.268 118.745 112.137 112.511C98.0226 100.157 65.7674 53.5991 65.7674 53.5991Z" fill="#8D2A00"/>
<path d="M85.6029 81.0137L113.661 85.6996L128.811 94.1831L99.1553 98.3474L85.6029 81.0137Z" fill="#C35500"/>
<path d="M112.137 112.486C113.604 113.586 114.794 114.703 116.954 116.08C118.127 116.83 121.33 118.639 124.532 120.253C131.435 123.732 138.395 125.713 138.395 125.713C146.006 119.894 152.721 113.766 160.333 107.947C157.358 107.099 154.147 106.39 151.173 105.551C148.704 104.85 147.139 103.481 144.67 102.78" fill="#C35500"/>
<path d="M161.221 125.86L182.507 107.532L196.182 103.767L189.116 119.552C189.116 119.552 188.644 119.682 187.926 119.878C185.881 120.448 184.822 121.027 184.178 121.206C176.591 123.325 176.232 123.146 175.727 123.26C174.398 123.561 171.685 124.222 167.537 124.931C166.746 125.069 165.923 125.183 163.095 125.688C162.549 125.786 161.514 125.794 161.221 125.851V125.86Z" fill="#C35500"/>
<path d="M212.815 97.5975L207.371 112.397C207.412 112.372 215.194 108.591 215.235 108.575C215.26 108.558 221.608 105.071 221.632 105.054C221.934 101.395 222.244 97.7279 222.545 94.0688L212.815 97.6057V97.5975Z" fill="#C35500"/>
<path d="M235.666 89.1629L231.762 98.4858C232.585 97.842 234.028 96.807 234.875 96.1469C237.027 94.4763 237.206 94.2481 237.646 93.8977C238.811 92.9768 240.457 91.6403 242.438 89.9045V86.6284L235.657 89.1547L235.666 89.1629Z" fill="#C35500"/>
<path d="M80.8763 74.6654C80.8763 74.6654 121.68 101.949 130.449 105.926C136.341 108.599 144.515 114.817 157.643 116.749C160.162 117.115 196.361 116.985 196.361 116.985C193.509 117.026 181.774 124.857 148.761 127.123C142.567 127.547 140.856 126.471 137.938 125.86C129.243 124.059 120.026 118.354 116.954 116.08C113.686 113.668 110.939 111.574 105.642 105.918C102.814 102.903 100.117 99.961 98.6257 98.3393C97.3136 96.9132 83.1174 77.4851 80.8845 74.6572L80.8763 74.6654Z" fill="#8D2A00"/>
</svg>
