<svg width="45" height="45" viewBox="0 0 45 45" fill="none" xmlns="http://www.w3.org/2000/svg">
<path d="M31.7512 0.349953L6.32522 4.35927C5.10036 4.55241 4.26399 5.70193 4.45714 6.92678L10.111 42.7824C10.3042 44.0073 11.4537 44.8436 12.6786 44.6505L38.1045 40.6412C39.3294 40.448 40.1658 39.2985 39.9726 38.0737L34.3187 2.21804C34.1256 0.99318 32.9761 0.156811 31.7512 0.349953Z" fill="white"/>
<path fill-rule="evenodd" clip-rule="evenodd" d="M6.32522 4.35927C6.08595 4.397 5.86151 4.47122 5.65667 4.57537C5.52463 4.64251 5.40072 4.72208 5.28625 4.81233C5.16933 4.90451 5.06223 5.00784 4.96634 5.12042C5.22055 5.44309 5.67508 5.55255 6.05523 5.35926C6.17887 5.2964 6.31514 5.25112 6.46219 5.22793L8.15726 4.96064C8.63701 4.885 8.9646 4.43476 8.88895 3.95501L6.32522 4.35927ZM12.2368 3.42709C12.3125 3.90684 12.7627 4.23443 13.2425 4.15878L16.6326 3.62421C17.1123 3.54856 17.4399 3.09832 17.3643 2.61857L12.2368 3.42709ZM20.7122 2.09066C20.7878 2.5704 21.238 2.89799 21.7178 2.82234L25.1079 2.28777C25.5877 2.21212 25.9153 1.76188 25.8396 1.28213L20.7122 2.09066ZM29.1875 0.754217C29.2631 1.23397 29.7134 1.56155 30.1931 1.4859L31.8882 1.21862C32.0352 1.19543 32.1788 1.19658 32.3158 1.21834C32.737 1.28527 33.1358 1.04126 33.2784 0.656018C33.1525 0.578404 33.0188 0.51305 32.8792 0.461321C32.7425 0.410676 32.6001 0.37309 32.4538 0.349843C32.2269 0.31378 31.9905 0.312225 31.7512 0.349954L29.1875 0.754217ZM33.5576 0.859158C33.2349 1.11336 33.1254 1.5679 33.3187 1.94805C33.3816 2.07168 33.4269 2.20795 33.4501 2.35501L33.7328 4.1478C33.8084 4.62755 34.2586 4.95513 34.7384 4.87948L34.3187 2.21804C34.281 1.97877 34.2068 1.75433 34.1026 1.54949C34.0355 1.41744 33.9559 1.29354 33.8657 1.17907C33.7735 1.06214 33.6702 0.955052 33.5576 0.859158ZM35.3125 8.5205C34.8328 8.59615 34.5052 9.04639 34.5808 9.52614L35.1462 13.1117C35.2219 13.5915 35.6721 13.919 36.1519 13.8434L35.3125 8.5205ZM36.726 17.4844C36.2463 17.5601 35.9187 18.0103 35.9943 18.49L36.5597 22.0756C36.6354 22.5554 37.0856 22.8829 37.5653 22.8073L36.726 17.4844ZM38.1395 26.4483C37.6597 26.524 37.3321 26.9742 37.4078 27.454L37.9732 31.0395C38.0488 31.5193 38.4991 31.8469 38.9788 31.7712L38.1395 26.4483ZM39.553 35.4122C39.0732 35.4879 38.7456 35.9381 38.8213 36.4179L39.104 38.2106C39.1272 38.3577 39.126 38.5013 39.1042 38.6383C39.0373 39.0595 39.2813 39.4582 39.6666 39.6008C39.7442 39.4749 39.8095 39.3413 39.8613 39.2016C39.9119 39.065 39.9495 38.9226 39.9727 38.7763C40.0088 38.5493 40.0104 38.3129 39.9726 38.0737L39.553 35.4122ZM39.4634 39.88C39.2092 39.5574 38.7547 39.4479 38.3745 39.6412C38.2509 39.7041 38.1146 39.7493 37.9676 39.7725L36.2725 40.0398C35.7928 40.1155 35.4652 40.5657 35.5408 41.0454L38.1045 40.6412C38.3438 40.6035 38.5683 40.5292 38.7731 40.4251C38.9051 40.3579 39.029 40.2784 39.1435 40.1881C39.2604 40.0959 39.3675 39.9926 39.4634 39.88ZM32.1929 41.5734C32.1173 41.0936 31.6671 40.766 31.1873 40.8417L27.7972 41.3762C27.3174 41.4519 26.9898 41.9021 27.0655 42.3819L32.1929 41.5734ZM23.7176 42.9098C23.642 42.43 23.1917 42.1025 22.712 42.1781L19.3218 42.7127C18.8421 42.7883 18.5145 43.2386 18.5902 43.7183L23.7176 42.9098ZM15.2423 44.2462C15.1666 43.7665 14.7164 43.4389 14.2366 43.5146L12.5416 43.7818C12.3945 43.805 12.2509 43.8039 12.114 43.7821C11.6928 43.7152 11.294 43.9592 11.1514 44.3444C11.2773 44.422 11.411 44.4874 11.5506 44.5391C11.6873 44.5898 11.8297 44.6274 11.9759 44.6506C12.2029 44.6867 12.4393 44.6882 12.6786 44.6505L15.2423 44.2462ZM10.8722 44.1413C11.1949 43.8871 11.3043 43.4326 11.111 43.0524C11.0482 42.9288 11.0029 42.7925 10.9797 42.6454L10.697 40.8527C10.6214 40.3729 10.1711 40.0453 9.69137 40.121L10.111 42.7824C10.1488 43.0217 10.223 43.2461 10.3271 43.451C10.3943 43.583 10.4739 43.7069 10.5641 43.8214C10.6563 43.9383 10.7596 44.0454 10.8722 44.1413ZM9.11724 36.4799C9.59699 36.4043 9.92458 35.9541 9.84893 35.4743L9.28354 31.8887C9.20789 31.409 8.75765 31.0814 8.2779 31.1571L9.11724 36.4799ZM7.70376 27.516C8.18351 27.4404 8.5111 26.9902 8.43545 26.5104L7.87006 22.9248C7.79441 22.4451 7.34417 22.1175 6.86442 22.1932L7.70376 27.516ZM6.29028 18.5521C6.77003 18.4765 7.09762 18.0262 7.02197 17.5465L6.45658 13.9609C6.38093 13.4812 5.93069 13.1536 5.45094 13.2292L6.29028 18.5521ZM4.87681 9.58823C5.35656 9.51258 5.68414 9.06234 5.60849 8.58259L5.3258 6.78981C5.30261 6.64275 5.30376 6.49916 5.32553 6.36218C5.39245 5.941 5.14844 5.5422 4.7632 5.39962C4.68559 5.5255 4.62023 5.65919 4.5685 5.79881C4.51786 5.9355 4.48027 6.07788 4.45703 6.22418C4.42096 6.45112 4.41941 6.68752 4.45714 6.92678L4.87681 9.58823Z" fill="#F58B00"/>
<path d="M29.377 22.3444C29.9443 25.9425 27.4874 29.3192 23.8892 29.8866C20.2911 30.4539 16.9143 27.9969 16.347 24.3988C15.7797 20.8006 18.2367 17.4239 21.8348 16.8566C25.4329 16.2893 28.8097 18.7462 29.377 22.3444Z" fill="white"/>
<path d="M21.8348 16.8566C20.5463 17.0597 19.3469 17.6404 18.3884 18.5252C17.4299 19.41 16.7553 20.5593 16.4499 21.8275C16.1445 23.0957 16.222 24.4259 16.6726 25.6501C17.1233 26.8742 17.9268 27.9372 18.9816 28.7047C20.0364 29.4722 21.2951 29.9097 22.5985 29.9618C23.9019 30.0139 25.1915 29.6783 26.3042 28.9975C27.4169 28.3167 28.3028 27.3212 28.8497 26.137C29.3967 24.9527 29.5802 23.6329 29.377 22.3444C29.1046 20.6165 28.1569 19.0676 26.7425 18.0384C25.328 17.0093 23.5627 16.5841 21.8348 16.8566ZM23.4783 27.2806C23.2851 27.311 23.0871 27.2836 22.9095 27.2015C22.7318 27.1195 22.5825 26.9865 22.4804 26.8196C22.3783 26.6527 22.3279 26.4594 22.3358 26.2639C22.3436 26.0684 22.4092 25.8795 22.5243 25.7213C22.6394 25.5631 22.7989 25.4425 22.9825 25.3749C23.1661 25.3073 23.3657 25.2957 23.5559 25.3415C23.7461 25.3873 23.9185 25.4886 24.0512 25.6323C24.184 25.7761 24.271 25.9559 24.3015 26.1492C24.3424 26.4084 24.2786 26.6733 24.1243 26.8855C23.9699 27.0976 23.7375 27.2397 23.4783 27.2806ZM23.9839 23.7957C23.9009 23.8523 23.8214 23.9139 23.7459 23.9801C23.711 24.1721 23.609 24.3455 23.4583 24.4695C23.3075 24.5934 23.1177 24.6599 22.9225 24.657C22.7274 24.6541 22.5396 24.582 22.3925 24.4536C22.2455 24.3253 22.1488 24.149 22.1195 23.956C22.0024 23.2133 22.6026 22.7848 23.0021 22.4814C23.5642 22.0656 23.7895 21.8432 23.7166 21.3806C23.6436 20.9181 23.067 20.6484 22.4481 20.746C21.8291 20.8436 21.3675 21.3036 21.4363 21.7401C21.4704 21.9561 21.4173 22.1769 21.2886 22.3537C21.16 22.5305 20.9663 22.6489 20.7504 22.6829C20.5344 22.717 20.3137 22.6639 20.1369 22.5353C19.9601 22.4066 19.8416 22.2129 19.8076 21.9969C19.7814 21.3065 20.0093 20.6306 20.4482 20.0969C20.887 19.5633 21.5063 19.2093 22.1888 19.1017C22.8713 18.9941 23.5695 19.1404 24.1512 19.5131C24.733 19.8858 25.1578 20.4589 25.3453 21.1238C25.4073 21.6538 25.3111 22.1904 25.0689 22.6658C24.8266 23.1412 24.4491 23.5344 23.9839 23.7957Z" fill="#004DA5"/>
</svg>
