<svg width="45" height="37" viewBox="0 0 45 37" fill="none" xmlns="http://www.w3.org/2000/svg">
<path d="M27.2108 17.9811C27.2108 17.9811 27.3365 17.9811 27.3644 17.9811C27.6019 17.9392 27.4482 17.576 27.4622 17.0313C27.4622 16.8916 27.5879 16.7659 27.7136 16.738C28.0908 16.6681 28.6775 16.5843 28.9987 16.5424C29.1245 16.5284 29.2082 16.4167 29.2082 16.291C29.1942 16.0256 29.1384 15.5646 29.0686 15.0897C28.9568 14.4751 28.8451 13.8885 28.7194 13.3298H28.8311L28.6774 12.9666C28.6774 12.9666 28.6775 12.9666 28.6356 12.9666C28.3981 11.9469 28.1467 11.0669 27.9232 10.3685C28.0489 10.3546 28.1746 10.3406 28.3003 10.3127C28.9568 12.2123 29.4318 14.4193 29.4318 14.4193C29.4318 14.4193 29.4317 14.4193 29.4596 14.4193C29.6412 14.4053 29.6692 14.2237 29.6552 14.0561C29.6412 13.7907 29.6133 13.5952 29.5854 13.3298C29.5574 13.0783 29.5016 12.9526 29.739 12.8968C29.9765 12.8409 30.6749 12.799 31.066 12.785C31.2057 12.785 31.3035 12.6453 31.2895 12.5196C31.1917 11.6257 31.0241 10.8015 30.8425 10.0752H30.9263L30.8286 9.6841C30.8286 9.6841 30.8006 9.6841 30.7587 9.6841C30.5352 8.81808 30.2838 8.09175 30.0882 7.54699C30.186 7.54699 30.2698 7.54699 30.3816 7.54699C30.7168 8.37111 31.1358 9.50252 31.485 10.9273C31.485 10.9273 31.7365 11.0111 31.6946 10.6758C31.6806 10.4663 31.6527 10.3127 31.5968 9.73997C31.5968 9.62823 31.6666 9.53045 31.7924 9.53045C31.932 9.53045 32.1416 9.53045 32.3371 9.51649C32.6165 9.51649 32.8399 9.26506 32.798 8.97173C32.7561 8.65047 32.6863 8.17555 32.5746 7.6308H32.6444L32.5047 7.25366C32.5047 7.25366 32.5047 7.25366 32.4768 7.25366C32.3371 6.70891 32.1555 6.10828 31.904 5.49369C32.0018 5.49369 32.0856 5.49369 32.1834 5.49369C32.4628 6.08035 32.798 6.90446 33.0914 7.9381C33.0914 7.9381 33.3288 8.03587 33.2869 7.70064C33.2869 7.61683 33.231 7.25366 33.245 7.16986C33.245 6.73685 33.9015 6.73685 33.6082 5.60544C33.6082 5.56353 33.273 5.52163 32.7701 5.50766C32.7282 5.39592 32.7003 5.29814 32.6584 5.18639C33.1333 5.18639 33.6082 5.18639 33.9714 5.2283C34.2926 5.2702 34.2367 5.03275 34.1948 4.86513C34.1389 4.58577 33.9015 3.78959 33.7339 3.38452C33.6082 3.07722 33.7897 3.10516 33.9154 3.34261C34.2088 3.8734 34.4882 4.59974 34.4882 4.59974C34.4882 4.59974 34.7396 4.73942 34.5999 4.12482C34.4603 3.49626 34.4742 3.20293 34.5999 2.99341C34.8933 2.5185 35.2983 1.862 35.4938 1.59661C35.8011 1.17757 35.5916 0.772494 35.2704 0.884238C35.7872 0.632813 36.4018 1.13566 36.1783 1.72232C36.1783 1.72232 29.2362 20.3976 29.1384 20.677C29.3479 21.2915 29.3479 21.5849 28.9428 22.5347C28.5377 23.4845 28.2305 24.1271 28.2305 24.1271L25.7442 22.3811C27.6019 20.1322 27.3226 19.0846 26.5683 18.2744C24.6128 16.1234 21.4839 14.6428 20.157 14.2796C19.6122 14.1399 19.6821 13.8186 21.0509 14.3075C21.0509 14.3075 21.0509 14.3075 21.0369 14.3075C21.2046 14.4193 21.2045 14.4332 21.6096 14.545C21.6236 14.545 21.6376 14.545 21.6655 14.545C21.9309 14.6567 22.2243 14.7824 22.5455 14.9361C22.6852 15.0059 22.8389 15.0758 22.9925 15.1596C23.1462 15.2434 23.2998 15.3272 23.4674 15.425C24.5988 16.0954 25.7582 16.9475 25.7582 16.9475L26.4705 16.7938C26.3029 15.6345 26.0794 14.5869 25.8559 13.7069C25.9956 13.6929 26.1353 13.665 26.275 13.6371C26.8896 15.7881 27.2108 17.9392 27.2108 17.9392V17.9671V17.9811Z" fill="#8D2A00"/>
<path d="M28.7332 9.89477C28.5656 9.9227 28.384 9.93667 28.1884 9.96461C27.9649 9.35002 27.7135 8.7913 27.462 8.37225C27.2805 8.07893 27.071 8.16273 27.2386 8.42813C27.2386 8.42813 27.49 8.98685 27.8252 10.0065C27.1268 10.1043 26.3586 10.23 25.5624 10.3976C25.3389 9.95064 25.1015 9.57351 24.878 9.29414L23.8444 9.11256C28.831 5.50881 35.1724 0.913321 35.1724 0.913321C35.2004 0.885385 35.2283 0.871417 35.2702 0.857449C35.5915 0.759672 35.801 1.15078 35.4937 1.56982C35.2981 1.83521 34.8931 2.50568 34.5998 2.96662C34.4601 3.17614 34.4461 3.46947 34.5998 4.09803C34.7394 4.71263 34.488 4.57295 34.488 4.57295C34.488 4.57295 34.2086 3.83264 33.9153 3.31582C33.7756 3.07837 33.608 3.05043 33.7338 3.35773C33.9014 3.7628 34.1388 4.55898 34.1946 4.83834C34.2365 5.00596 34.2925 5.24341 33.9712 5.20151C33.608 5.15961 33.1331 5.14564 32.6582 5.15961C32.4487 5.15961 32.2391 5.15961 32.0436 5.15961C31.9598 4.99199 31.8899 4.86628 31.834 4.75453C31.6944 4.48914 31.4988 4.55898 31.6106 4.78247C31.6665 4.90818 31.7223 5.03389 31.7782 5.15961C31.429 5.17357 31.1217 5.20151 30.9401 5.21548C30.5071 5.27135 30.549 5.49484 30.982 5.4669C31.2893 5.45293 31.5966 5.43897 31.89 5.43897C32.1414 6.06753 32.3369 6.66815 32.4626 7.19894C32.309 7.18497 31.6385 7.14307 30.7026 7.18497C30.549 7.18497 30.3954 7.18497 30.2417 7.19894C30.0741 6.80783 29.9204 6.50054 29.8087 6.30498C29.655 6.01166 29.4735 6.15134 29.6132 6.41673C29.6132 6.41673 29.7528 6.71006 29.9624 7.22687C29.5294 7.25481 29.0684 7.31068 28.6074 7.38052C28.1604 7.45036 28.1604 7.63195 28.6074 7.60401C28.6074 7.60401 29.1941 7.53417 30.0741 7.5202C30.2836 8.06496 30.5211 8.79129 30.7446 9.65731C30.5211 9.65731 29.7528 9.72715 28.7192 9.86683L28.7332 9.89477Z" fill="#C35500"/>
<path d="M32.7404 5.49444C33.2433 5.49444 33.5785 5.53634 33.5785 5.59221C33.8718 6.73759 33.2293 6.73759 33.2153 7.15663C33.2153 7.25441 33.2573 7.61758 33.2573 7.68742C33.2992 8.02265 33.0617 7.92488 33.0617 7.92488C32.7684 6.89124 32.4192 6.06713 32.1538 5.48047C32.3633 5.48047 32.5589 5.48047 32.7404 5.48047V5.49444Z" fill="#C35500"/>
<path d="M30.8283 7.54785C31.3591 7.54785 31.9458 7.57579 32.5464 7.63166C32.6721 8.17641 32.742 8.65133 32.7699 8.97259C32.7979 9.25195 32.5883 9.50338 32.309 9.51734C32.1134 9.51734 31.9178 9.51735 31.7642 9.53131C31.6524 9.53131 31.5686 9.62909 31.5686 9.74083C31.6245 10.2996 31.6524 10.4672 31.6664 10.6767C31.6943 10.998 31.4569 10.9281 31.4569 10.9281C31.1077 9.50338 30.7026 8.37197 30.3534 7.54785C30.507 7.54785 30.6607 7.54785 30.8144 7.54785H30.8283Z" fill="#C35500"/>
<path d="M32.6296 5.17236C32.6715 5.27014 32.6995 5.38188 32.7414 5.49363C32.5598 5.49363 32.3643 5.49363 32.1547 5.49363C32.0989 5.38188 32.0569 5.28411 32.015 5.2003C32.2106 5.2003 32.4201 5.2003 32.6296 5.2003V5.17236Z" fill="#C35500"/>
<path d="M32.4902 7.25342L32.6299 7.64452H32.5601C32.5321 7.51881 32.5042 7.37913 32.4623 7.25342C32.4762 7.25342 32.4902 7.25342 32.4902 7.25342Z" fill="#8D2A00"/>
<path d="M32.4626 7.23914C32.4906 7.37882 32.5325 7.50454 32.5604 7.63025C31.9598 7.57438 31.3732 7.56041 30.8424 7.54644C30.8005 7.4347 30.7445 7.32295 30.7026 7.22518C31.6385 7.18327 32.309 7.22518 32.4626 7.23914Z" fill="#8D2A00"/>
<path d="M32.0158 5.18555C32.0577 5.26936 32.1136 5.36713 32.1555 5.47888C32.0577 5.47888 31.9739 5.47888 31.8761 5.47888C31.8342 5.3811 31.7923 5.28332 31.7504 5.18555C31.8342 5.18555 31.918 5.18555 32.0018 5.18555H32.0158Z" fill="#8D2A00"/>
<path d="M31.7629 5.19922C31.8048 5.297 31.8467 5.39477 31.8886 5.49255C31.5953 5.49255 31.288 5.49255 30.9807 5.52048C30.5337 5.53445 30.4918 5.32493 30.9388 5.26906C31.1204 5.25509 31.4137 5.22716 31.7769 5.21319L31.7629 5.19922Z" fill="#8D2A00"/>
<path d="M31.8049 4.78138C31.8608 4.87916 31.9306 5.01884 32.0144 5.18646C31.9306 5.18646 31.8468 5.18646 31.763 5.18646C31.7071 5.06074 31.6512 4.93503 31.5954 4.80932C31.4836 4.58583 31.6791 4.50202 31.8188 4.78138H31.8049Z" fill="#8D2A00"/>
<path d="M28.8576 10.2558C29.528 10.172 30.1985 10.1161 30.855 10.0742C31.0366 10.8145 31.1902 11.6386 31.302 12.5186C31.3159 12.6583 31.2182 12.784 31.0785 12.784C30.7014 12.798 30.003 12.8399 29.7515 12.8958C29.5141 12.9377 29.5839 13.0634 29.5979 13.3288C29.6258 13.5942 29.6538 13.7897 29.6677 14.0551C29.6677 14.2367 29.6537 14.4043 29.4722 14.4183C29.4582 14.4183 29.4443 14.4183 29.4443 14.4183C29.4443 14.4183 28.9833 12.2113 28.3129 10.3117C28.4945 10.2837 28.676 10.2698 28.8576 10.2418V10.2558Z" fill="#C35500"/>
<path d="M30.8273 9.68408L30.9251 10.0612H30.8413C30.8134 9.93551 30.7854 9.80979 30.7435 9.68408C30.7854 9.68408 30.8134 9.68408 30.8134 9.68408H30.8273Z" fill="#8D2A00"/>
<path d="M30.8281 7.54734C30.6605 7.54734 30.5068 7.54734 30.3671 7.54734C30.3252 7.4356 30.2834 7.33782 30.2415 7.24004C30.3951 7.24004 30.5487 7.22607 30.7023 7.22607C30.7442 7.32385 30.7862 7.4356 30.8421 7.54734H30.8281Z" fill="#C35500"/>
<path d="M30.7585 9.69805C30.7865 9.82376 30.8283 9.94947 30.8562 10.0752C30.1997 10.1171 29.5293 10.1869 28.8588 10.2568C28.8169 10.1311 28.7751 10.0053 28.7332 9.8936C29.7808 9.76789 30.535 9.69805 30.7585 9.68408V9.69805Z" fill="#8D2A00"/>
<path d="M30.2398 7.24023C30.2817 7.33801 30.3236 7.43579 30.3655 7.54753C30.2677 7.54753 30.1699 7.54753 30.0721 7.54753C30.0302 7.44976 29.9884 7.35198 29.9604 7.2542C30.0582 7.2542 30.142 7.2542 30.2258 7.24023H30.2398Z" fill="#8D2A00"/>
<path d="M29.9621 7.26709C29.9901 7.36487 30.0319 7.44867 30.0738 7.56042C29.1938 7.57439 28.6072 7.63026 28.6072 7.64423C28.1602 7.67216 28.1602 7.49058 28.6072 7.42074C29.0821 7.3509 29.5431 7.29503 29.9621 7.26709Z" fill="#8D2A00"/>
<path d="M30.2399 7.23974C30.1561 7.23974 30.0583 7.23975 29.9745 7.25371C29.765 6.7369 29.6253 6.44357 29.6253 6.44357C29.4856 6.17817 29.6532 6.03849 29.8208 6.33182C29.9325 6.52738 30.0722 6.83467 30.2538 7.22578L30.2399 7.23974Z" fill="#8D2A00"/>
<path d="M26.7354 13.58C27.378 13.4823 28.0484 13.3985 28.7329 13.3286C28.8586 13.8734 28.9703 14.46 29.0821 15.0886C29.1659 15.5495 29.2077 16.0244 29.2217 16.2898C29.2217 16.4155 29.1379 16.5273 29.0122 16.5413C28.691 16.5832 28.1043 16.6809 27.7271 16.7368C27.5874 16.7508 27.4757 16.8905 27.4757 17.0301C27.4617 17.5889 27.6154 17.9381 27.3779 17.98C27.35 17.98 27.2941 17.98 27.2243 17.98V17.952C27.2243 17.952 26.903 15.801 26.2885 13.6499C26.4421 13.6219 26.5958 13.608 26.7494 13.58H26.7354Z" fill="#C35500"/>
<path d="M28.6765 12.9663L28.8302 13.3155H28.7184C28.6905 13.2038 28.6626 13.092 28.6346 12.9663C28.6626 12.9663 28.6765 12.9663 28.6765 12.9663Z" fill="#8D2A00"/>
<path d="M28.7323 9.89404C28.7742 10.0058 28.816 10.1315 28.8579 10.2572C28.6764 10.2712 28.4948 10.2991 28.3132 10.3271C28.2713 10.2013 28.2294 10.0896 28.1875 9.97785C28.3831 9.94992 28.5507 9.92198 28.7323 9.90801V9.89404Z" fill="#C35500"/>
<path d="M28.6357 12.9663C28.6636 13.0781 28.6915 13.2038 28.7195 13.3295C28.035 13.3993 27.3646 13.4831 26.7221 13.5809C26.6941 13.4552 26.6662 13.3434 26.6243 13.2177C27.6998 13.0641 28.4541 12.9803 28.6357 12.9663Z" fill="#8D2A00"/>
<path d="M28.188 9.9624C28.2299 10.0741 28.2719 10.1999 28.3138 10.3116C28.188 10.3256 28.0623 10.3395 27.9366 10.3675C27.8947 10.2418 27.8667 10.13 27.8248 10.0183C27.9505 10.0043 28.0763 9.97637 28.188 9.9624Z" fill="#8D2A00"/>
<path d="M27.9369 10.3691C28.1604 11.0675 28.4118 11.9475 28.6493 12.9672C28.4817 12.9672 27.7134 13.065 26.6379 13.2186C26.3865 12.3247 26.0651 11.4447 25.7159 10.7183C26.4004 10.5926 27.1547 10.4809 27.9509 10.3691H27.9369Z" fill="#C35500"/>
<path d="M28.1863 9.9634C28.0745 9.97736 27.9488 9.99133 27.8231 10.0193C27.4878 8.9996 27.2364 8.44088 27.2364 8.44088C27.0688 8.17549 27.2783 8.09168 27.4599 8.38501C27.7113 8.80405 27.9628 9.36277 28.1863 9.97736V9.9634Z" fill="#8D2A00"/>
<path d="M27.8232 10.02C27.8651 10.1318 27.893 10.2435 27.935 10.3692C27.1527 10.467 26.3985 10.5927 25.7001 10.7184C25.6442 10.6067 25.6023 10.5089 25.5464 10.4111C26.3426 10.2575 27.1108 10.1178 27.8092 10.02H27.8232Z" fill="#8D2A00"/>
<path d="M26.6375 13.2173C26.6654 13.343 26.7073 13.4547 26.7353 13.5805C26.5816 13.5944 26.4279 13.6224 26.2743 13.6503C26.2464 13.5246 26.2044 13.4128 26.1765 13.2871C26.3302 13.2592 26.4978 13.2452 26.6375 13.2173Z" fill="#C35500"/>
<path d="M26.5813 18.2735C27.3216 19.0836 27.615 20.1312 25.7572 22.3801L15.1415 14.9351C15.1415 14.9351 15.9237 14.3205 16.5662 13.8316C17.0272 13.4685 17.4044 13.3567 17.9212 13.4266C17.991 13.3707 20.6449 11.471 23.8436 9.15234L24.8772 9.33393C25.1007 9.61329 25.3242 9.99043 25.5617 10.4374C25.3941 10.4653 25.2265 10.5072 25.0588 10.5352C25.0169 10.4653 24.975 10.4095 24.9471 10.3396C24.7655 10.0603 24.556 10.1301 24.7236 10.3955C24.7236 10.3955 24.7516 10.4514 24.8074 10.5771C24.1649 10.7168 23.5224 10.8844 22.9078 11.066C22.6703 11.1358 22.5585 11.2196 22.6004 11.2615L21.9579 11.918C21.888 11.918 21.8601 12.0158 21.9579 12.1555C21.9579 12.1555 22.2653 12.798 22.6424 13.9434C22.1256 14.0551 21.6087 14.1808 21.0919 14.3065C19.709 13.8177 19.6532 14.1389 20.198 14.2786C21.525 14.6418 24.6537 16.1224 26.6093 18.2735H26.5813Z" fill="#C35500"/>
<path d="M23.5493 14.1246C24.2337 13.9849 25.016 13.8313 25.854 13.7056C26.0775 14.5856 26.301 15.6332 26.4686 16.7925L25.7563 16.9462C25.7563 16.9462 24.5969 16.0801 23.4655 15.4236C23.3537 15.0186 23.228 14.6135 23.1023 14.2364C23.242 14.2084 23.3956 14.1805 23.5493 14.1386V14.1246Z" fill="#C35500"/>
<path d="M26.1618 13.2881C26.2037 13.4138 26.2317 13.5255 26.2596 13.6513C26.1199 13.6652 25.9803 13.6932 25.8406 13.7211C25.8126 13.5954 25.7707 13.4836 25.7428 13.3579C25.8825 13.33 26.0221 13.316 26.1478 13.2881H26.1618Z" fill="#8D2A00"/>
<path d="M25.7001 10.7183C26.0493 11.4446 26.3705 12.3246 26.6219 13.2185C26.4683 13.2325 26.3146 13.2604 26.1609 13.2884C25.8955 12.3944 25.5743 11.5144 25.1971 10.8021C25.3508 10.7741 25.5185 10.7462 25.6861 10.7183H25.7001Z" fill="#C35500"/>
<path d="M26.1621 13.2887C26.0224 13.3027 25.8968 13.3307 25.7571 13.3586C25.4358 12.2132 25.1145 11.3612 24.9189 10.8723C25.0167 10.8583 25.1145 10.8304 25.2123 10.8164C25.5755 11.5148 25.8967 12.3948 26.1761 13.3027L26.1621 13.2887Z" fill="#8D2A00"/>
<path d="M25.7567 13.3428C25.7846 13.4545 25.8266 13.5802 25.8545 13.7059C25.0164 13.8456 24.2342 13.9853 23.5497 14.125C23.5078 13.9993 23.466 13.8736 23.4241 13.7618C24.2482 13.5942 25.0443 13.4545 25.7567 13.3428Z" fill="#8D2A00"/>
<path d="M25.5471 10.4102C25.603 10.5079 25.645 10.6057 25.7009 10.7175C25.5332 10.7454 25.3656 10.7733 25.2119 10.8013C25.156 10.7035 25.1002 10.6057 25.0443 10.5079C25.2119 10.466 25.3795 10.4381 25.5471 10.4102Z" fill="#C35500"/>
<path d="M23.4238 13.7628C23.2701 13.7907 23.1165 13.8186 22.9628 13.8605C22.6974 13.1621 22.418 12.5336 22.1527 12.0866C22.0688 11.9609 21.9851 11.905 21.9292 11.905L22.5717 11.2485C22.5717 11.2485 22.7672 11.2904 23.0885 11.2206C23.5215 11.1228 24.1501 10.9971 24.8904 10.8574C25.0999 11.3463 25.4212 12.1984 25.7285 13.3437C25.0161 13.4555 24.2339 13.5952 23.3958 13.7628H23.4238Z" fill="#C35500"/>
<path d="M25.045 10.5078C25.1009 10.6056 25.1567 10.7034 25.2126 10.8011C25.1148 10.8151 25.017 10.8291 24.9192 10.857C24.8773 10.7453 24.8355 10.6475 24.7936 10.5637C24.8774 10.5497 24.9612 10.5218 25.045 10.5078Z" fill="#8D2A00"/>
<path d="M24.934 10.3271C24.934 10.3271 25.0178 10.4528 25.0458 10.5226C24.962 10.5366 24.8782 10.5646 24.7944 10.5785C24.7385 10.4528 24.7106 10.3969 24.7106 10.3969C24.5429 10.1315 24.7524 10.0477 24.934 10.3411V10.3271Z" fill="#8D2A00"/>
<path d="M24.7928 10.563C24.8207 10.6328 24.8626 10.7306 24.9185 10.8563C24.1642 10.996 23.5496 11.1217 23.1166 11.2195C22.7953 11.2893 22.6277 11.2893 22.5998 11.2474C22.5579 11.2055 22.6836 11.1217 22.9071 11.0519C23.5217 10.8703 24.1642 10.7027 24.8068 10.563H24.7928Z" fill="#8D2A00"/>
<path d="M23.4239 13.7632C23.4658 13.8749 23.5077 14.0006 23.5496 14.1264C23.3959 14.1543 23.2423 14.1822 23.1026 14.2241C23.0607 14.0984 23.0188 13.9727 22.9769 13.861C23.1306 13.833 23.2842 13.8051 23.4378 13.7632H23.4239Z" fill="#C35500"/>
<path d="M23.1028 14.2236C23.2425 14.6008 23.3542 15.0058 23.466 15.4109C23.3123 15.3131 23.1448 15.2293 22.9911 15.1455C22.9073 14.8382 22.8234 14.5589 22.7396 14.2935C22.8514 14.2655 22.9771 14.2376 23.1028 14.2236Z" fill="#8D2A00"/>
<path d="M22.9769 13.8608C23.0188 13.9866 23.0606 14.0983 23.1026 14.224C22.9768 14.2519 22.8651 14.2799 22.7394 14.2938C22.6975 14.1681 22.6556 14.0424 22.6277 13.9307C22.7394 13.9027 22.8651 13.8748 22.9769 13.8608Z" fill="#8D2A00"/>
<path d="M22.1532 12.0864C22.4326 12.5333 22.7119 13.1479 22.9634 13.8603C22.8516 13.8882 22.7259 13.9162 22.6142 13.9302C22.237 12.7848 21.9297 12.1422 21.9297 12.1422C21.832 11.9886 21.8599 11.9048 21.9297 11.9048C21.9856 11.9048 22.0694 11.9607 22.1532 12.0864Z" fill="#8D2A00"/>
<path d="M22.7399 14.2949C22.8237 14.5603 22.9076 14.8397 22.9914 15.147C22.8378 15.0632 22.6981 14.9933 22.5444 14.9235C22.2232 14.7698 21.9298 14.6441 21.6644 14.5324C21.9578 14.4625 22.3209 14.3787 22.7399 14.2949Z" fill="#C35500"/>
<path d="M22.6289 13.9292C22.6708 14.0409 22.7126 14.1667 22.7405 14.2924C22.3355 14.3762 21.9724 14.46 21.6651 14.5298C21.4416 14.432 21.246 14.3622 21.0645 14.3063C21.5813 14.1667 22.112 14.0549 22.6149 13.9432L22.6289 13.9292Z" fill="#8D2A00"/>
<path d="M21.6657 14.5324C21.6657 14.5324 21.6377 14.5324 21.6098 14.5324C21.2187 14.4206 21.2187 14.4067 21.0371 14.2949C21.0371 14.2949 21.0371 14.2949 21.0511 14.2949C21.2327 14.3508 21.4282 14.4346 21.6517 14.5184L21.6657 14.5324Z" fill="#8D2A00"/>
<path d="M35.2695 0.87024C35.2415 0.884208 35.1996 0.912144 35.1717 0.926112C35.1717 0.926112 28.8442 5.50763 23.8436 9.12535C20.6449 11.444 17.991 13.3577 17.9212 13.3996C17.4044 13.3437 17.0272 13.4554 16.5662 13.8046C15.9377 14.2935 15.1415 14.9081 15.1415 14.9081L25.7572 22.3531L28.2435 24.0991C28.2435 24.0991 28.5508 23.4566 28.9559 22.5067C29.361 21.5429 29.361 21.2636 29.1515 20.649C29.2492 20.3696 36.1913 1.69435 36.1913 1.69435C36.4008 1.12166 35.8003 0.604847 35.2835 0.856271L35.2695 0.87024Z" fill="#C35500"/>
<path d="M27.2106 17.9813C27.2106 17.9813 27.3363 17.9813 27.3643 17.9813C27.6017 17.9394 27.4481 17.5762 27.4621 17.0315C27.4621 16.8918 27.5878 16.7661 27.7135 16.7382C28.0906 16.6683 28.6773 16.5845 28.9986 16.5426C29.1243 16.5286 29.2081 16.4169 29.2081 16.2912C29.1941 16.0258 29.4316 14.4334 29.4316 14.4334C29.4316 14.4334 29.4315 14.4334 29.4595 14.4334C29.6411 14.4195 29.669 14.2379 29.6551 14.0703C29.6411 13.8049 29.6132 13.6093 29.5852 13.3439C29.5573 13.0925 29.5014 12.9668 29.7389 12.9109C29.9763 12.855 30.6747 12.8131 31.0658 12.7992C31.2055 12.7992 31.3033 12.6595 31.2894 12.5338C31.1916 11.6398 30.8983 10.0754 30.9262 10.0754C30.9262 10.0754 31.1078 9.51668 31.457 10.9414C31.457 10.9414 31.7084 11.0252 31.6665 10.69C31.6525 10.4805 31.6245 10.3268 31.5687 9.75414C31.5687 9.64239 31.6385 9.54461 31.7642 9.54461C31.9039 9.54461 32.1135 9.54461 32.309 9.53065C32.5884 9.53065 32.8119 9.27922 32.77 8.98589C32.7281 8.66463 32.7699 6.90465 33.0633 7.93829C33.0633 7.93829 33.3007 8.03607 33.2588 7.70083C33.2588 7.61702 33.2029 7.25386 33.2169 7.17005C33.2169 6.73704 33.8734 6.73704 33.5801 5.60563C33.5801 5.56372 33.5801 5.20055 33.9433 5.24246C34.2645 5.28436 34.2087 5.04691 34.1668 4.87929C34.1109 4.59993 34.4601 4.6139 34.4601 4.6139C34.4601 4.6139 34.7115 4.75358 34.5718 4.13898C34.4322 3.51042 34.4461 3.21709 34.5718 3.00757C34.8652 2.53266 35.2703 1.87616 35.4658 1.61077C35.7731 1.19173 35.5635 0.786654 35.2423 0.898398C35.7591 0.646974 36.3737 1.14982 36.1502 1.73648C36.1502 1.73648 29.2081 20.4117 29.1103 20.6911C29.3198 21.3057 29.3199 21.599 28.9148 22.5489C28.5097 23.4987 28.2024 24.1412 28.2024 24.1412L25.7161 22.3952C27.5738 20.1464 27.2945 19.0988 26.5402 18.2886C24.5847 16.1375 21.4558 14.6569 20.1288 14.2937C19.5841 14.1541 21.0228 14.3217 21.0088 14.3217C21.1765 14.4334 22.7968 15.076 22.9504 15.1598C23.1041 15.2436 25.7161 16.9616 25.7161 16.9616L27.1688 17.9673V17.9953L27.2106 17.9813Z" fill="#8D2A00"/>
<path d="M21.0505 14.3071C25.4784 14.0277 29.4872 11.5693 31.764 7.7421L34.5996 2.979L35.1862 3.43995L28.5653 20.2435L26.7076 17.8689L25.7578 16.9191L21.0645 14.2791L21.0505 14.3071Z" fill="#8D2A00"/>
<path d="M43.078 24.8106C41.4437 24.9363 36.2477 25.3972 32.2947 25.7464C28.9983 24.4334 23.6765 23.8188 17.6562 23.8188C7.65512 23.8188 10.7839 25.6626 10.7839 29.4899C10.7839 32.1438 14.1642 36.6555 13.8429 35.133C14.1642 35.2028 17.0975 36.1107 18.0333 36.1107C27.797 36.1107 35.3677 33.2892 35.7309 29.5876C38.9156 28.0512 44.1396 25.5509 44.5866 25.3693C45.5504 24.9922 44.7402 24.6569 43.078 24.7966V24.8106Z" fill="#101619"/>
<path d="M29.7808 30.1348C29.7808 30.6236 29.6551 31.1684 29.4176 31.6992C29.9624 28.9335 27.6018 28.0815 26.4564 27.9278C25.6323 27.858 28.1325 27.5926 28.5935 25.0225C28.5376 25.8885 28.3421 26.7266 28.0488 27.5227C29.0824 28.0256 29.7808 29.0034 29.7808 30.1348Z" fill="#101619"/>
<path d="M26.4556 27.9269C27.6009 28.0805 29.9615 28.9465 29.4168 31.6983C28.8581 32.9833 27.6149 34.2684 25.6734 34.883C22.9216 35.749 19.8068 36.0563 17.0271 35.9445V35.9166C18.1725 35.9585 19.1782 35.8188 19.5553 35.6652C21.3153 34.9668 20.2677 33.1928 18.8011 33.0811C14.8202 32.7598 13.549 32.1592 14.5408 32.2011C16.3008 32.257 18.6335 32.0055 19.9325 31.1535C21.2315 30.3014 21.008 28.5694 19.6112 28.5415C17.7395 28.4996 17.2785 28.8767 18.3261 28.0386C23.3407 24.0298 21.1198 15.188 16.2729 14.5874C18.0748 14.6991 20.3515 15.3137 22.0696 16.2915C25.1844 18.0515 28.0479 21.2921 28.5368 23.4152C28.6066 23.7504 28.5926 24.0857 28.5926 24.4349C28.5926 24.6304 28.5927 24.812 28.5787 25.0076C28.1318 27.5777 25.6175 27.8431 26.4416 27.9129L26.4556 27.9269Z" fill="#D094B0"/>
<path d="M9.19128 33.0824C9.19128 33.0824 9.28903 33.1104 9.33093 33.1243C9.33093 33.0964 9.33093 33.0685 9.33093 33.0405C9.28903 33.0545 9.24708 33.0685 9.20518 33.0824H9.19128Z" fill="#D5DADD"/>
<path d="M14.5407 32.2151C16.3007 32.271 18.6334 32.0336 19.9324 31.1815C21.2314 30.3295 21.0079 28.5974 19.6111 28.5555C17.7394 28.5136 17.2785 28.8907 18.3261 28.0527C20.3095 26.4603 21.1616 24.1137 21.1616 21.8229C21.1616 18.3309 19.1921 14.9646 16.2588 14.6014C15.7839 14.5735 15.3509 14.5875 14.9598 14.6294C10.0151 15.1881 6.1878 18.7081 5.46146 22.9823L5.09837 24.5886C3.91108 24.9518 3.1009 25.9016 2.79361 27.4101C1.29903 27.6476 0 28.793 0 30.525C0 32.257 3.91102 32.8856 4.94465 33.165C4.16244 33.3885 3.61767 33.7377 3.61767 34.2824C3.61767 35.2183 4.6793 35.8748 6.81641 36.1262C6.98403 36.1402 7.1796 36.1681 7.36118 36.1821C9.76369 36.3637 10.6995 35.5954 10.7973 34.6875C12.1941 35.4138 14.4709 35.8748 17.027 35.9725V35.9446C18.1724 36.0005 19.1781 35.8608 19.5553 35.6932C21.3152 34.9948 20.2677 33.2208 18.801 33.1091C14.8201 32.7878 13.549 32.1872 14.5407 32.2291V32.2151ZM6.42526 28.9606C6.42526 28.9606 6.35543 28.9606 6.34146 28.9466C6.31352 28.9187 6.29961 28.8907 6.31358 28.8488L6.60685 28.8907C6.60685 28.8907 6.48115 28.9327 6.43924 28.9606H6.42526Z" fill="#D0C1CB"/>
</svg>
