<svg width="45" height="45" viewBox="0 0 45 45" fill="none" xmlns="http://www.w3.org/2000/svg">
<g clip-path="url(#clip0_4516_149769)">
<g clip-path="url(#clip1_4516_149769)">
<mask id="mask0_4516_149769" style="mask-type:luminance" maskUnits="userSpaceOnUse" x="0" y="1" width="46" height="44">
<path d="M45.5 1.15527H0.5V44.8453H45.5V1.15527Z" fill="white"/>
</mask>
<g mask="url(#mask0_4516_149769)">
<path d="M43.48 40.1551L26.17 34.3951C26.17 34.3951 26.09 34.3751 26.06 34.3951L1.53999 38.1351C0.43999 38.2651 0.32999 38.5651 0.66999 38.7351L18.02 44.6251C18.7 44.8551 19.42 44.9151 20.12 44.7851L42.51 40.6751C43.53 40.5351 43.73 40.2351 43.49 40.1551H43.48Z" fill="#1B90FF"/>
<path d="M7.18002 6.95545L16.15 39.5054C16.28 39.9754 16.73 40.2754 17.22 40.2154L43.43 35.4454C44.94 35.0654 45.64 33.4854 45.47 32.8654L31.7 3.41545C31.56 3.00545 31.15 2.73545 30.72 2.76545L8.52002 3.24545C7.91002 3.33545 6.50002 4.73545 7.18002 6.96545V6.95545Z" fill="#00144A"/>
<path d="M7.77994 4.42511L17.0499 38.0451C17.1799 38.5151 17.6299 38.8151 18.1199 38.7551L44.6499 33.9351C45.2699 33.8551 45.6499 33.2251 45.4499 32.6451L34.7499 1.81511C34.6099 1.40511 34.1999 1.13511 33.7699 1.16511L8.65994 3.19511C8.03994 3.23511 7.60994 3.83511 7.77994 4.42511Z" fill="white"/>
<path d="M19.19 37.085C18.57 37.085 18.03 36.665 17.86 36.075L17.59 35.085C17.52 34.815 17.67 34.545 17.94 34.475C18.21 34.405 18.48 34.555 18.55 34.825L18.82 35.815C18.86 35.975 19.01 36.095 19.18 36.095L19.91 35.965C20.18 35.915 20.44 36.095 20.49 36.365C20.54 36.635 20.36 36.895 20.09 36.945L19.38 37.075C19.29 37.085 19.23 37.095 19.17 37.095L19.19 37.085ZM22.96 36.385C22.72 36.385 22.51 36.215 22.47 35.975C22.42 35.705 22.6 35.445 22.87 35.395L25.82 34.845C26.1 34.795 26.35 34.975 26.4 35.245C26.45 35.515 26.27 35.775 26 35.825L23.05 36.375C23.05 36.375 22.99 36.375 22.96 36.375V36.385ZM28.85 35.285C28.61 35.285 28.4 35.115 28.36 34.875C28.31 34.605 28.49 34.345 28.76 34.295L31.71 33.745C31.98 33.695 32.24 33.875 32.29 34.145C32.34 34.415 32.16 34.675 31.89 34.725L28.94 35.275C28.94 35.275 28.88 35.275 28.85 35.275V35.285ZM34.75 34.175C34.51 34.175 34.3 34.005 34.26 33.765C34.21 33.495 34.39 33.235 34.66 33.185L37.61 32.635C37.88 32.585 38.14 32.765 38.19 33.035C38.24 33.305 38.06 33.565 37.79 33.615L34.84 34.165C34.84 34.165 34.78 34.165 34.75 34.165V34.175ZM40.65 33.075C40.41 33.075 40.2 32.905 40.16 32.665C40.11 32.395 40.29 32.135 40.56 32.085L42.29 31.765C42.52 31.735 42.64 31.555 42.65 31.395C42.65 31.115 42.9 30.935 43.17 30.915C43.45 30.915 43.66 31.155 43.65 31.435C43.63 32.115 43.12 32.675 42.45 32.755L40.75 33.075C40.75 33.075 40.69 33.075 40.66 33.075H40.65ZM17.28 32.555C17.06 32.555 16.86 32.405 16.8 32.185L16.01 29.295C15.94 29.025 16.09 28.755 16.36 28.685C16.63 28.615 16.9 28.765 16.97 29.035L17.76 31.925C17.83 32.195 17.68 32.465 17.41 32.535C17.37 32.545 17.32 32.555 17.28 32.555ZM42.22 29.055C42.01 29.055 41.82 28.925 41.75 28.715L40.77 25.885C40.68 25.625 40.82 25.335 41.08 25.245C41.34 25.155 41.63 25.295 41.72 25.555L42.7 28.385C42.79 28.645 42.65 28.935 42.39 29.025C42.34 29.045 42.28 29.055 42.23 29.055H42.22ZM15.7 26.765C15.48 26.765 15.28 26.615 15.22 26.395L14.43 23.505C14.36 23.235 14.51 22.965 14.78 22.895C15.05 22.825 15.32 22.975 15.39 23.245L16.18 26.135C16.25 26.405 16.1 26.675 15.83 26.745C15.79 26.755 15.74 26.765 15.7 26.765ZM40.26 23.385C40.05 23.385 39.86 23.255 39.79 23.045L38.81 20.205C38.72 19.945 38.86 19.655 39.12 19.565C39.38 19.475 39.67 19.615 39.76 19.875L40.74 22.715C40.83 22.975 40.69 23.265 40.43 23.355C40.38 23.375 40.32 23.385 40.27 23.385H40.26ZM14.11 20.975C13.89 20.975 13.69 20.825 13.63 20.605L12.84 17.715C12.77 17.445 12.92 17.175 13.19 17.105C13.46 17.035 13.73 17.185 13.8 17.455L14.59 20.345C14.66 20.615 14.51 20.885 14.24 20.955C14.2 20.965 14.15 20.975 14.11 20.975ZM38.3 17.715C38.09 17.715 37.9 17.585 37.83 17.375L36.85 14.535C36.76 14.275 36.9 13.985 37.16 13.895C37.42 13.805 37.71 13.945 37.8 14.205L38.78 17.045C38.87 17.305 38.73 17.595 38.47 17.685C38.42 17.705 38.36 17.715 38.31 17.715H38.3ZM12.53 15.195C12.31 15.195 12.11 15.045 12.05 14.825L11.26 11.935C11.19 11.665 11.34 11.395 11.61 11.325C11.88 11.255 12.15 11.405 12.22 11.675L13.01 14.565C13.08 14.835 12.93 15.105 12.66 15.175C12.62 15.185 12.57 15.195 12.53 15.195ZM36.34 12.045C36.13 12.045 35.94 11.915 35.87 11.705L34.89 8.86504C34.8 8.60504 34.94 8.31504 35.2 8.22504C35.46 8.13504 35.75 8.27504 35.84 8.53504L36.82 11.375C36.91 11.635 36.77 11.925 36.51 12.015C36.46 12.035 36.4 12.045 36.35 12.045H36.34ZM10.94 9.40504C10.72 9.40504 10.52 9.25504 10.46 9.03504L9.67 6.14504C9.64 6.02504 9.62 5.90504 9.62 5.77504C9.62 5.04504 10.19 4.44504 10.91 4.39504L12.24 4.28504C12.52 4.25504 12.76 4.46504 12.78 4.74504C12.8 5.02504 12.6 5.26504 12.32 5.28504L10.98 5.39504C10.75 5.40504 10.62 5.59504 10.62 5.77504C10.62 5.80504 10.62 5.84504 10.63 5.87504L11.42 8.76504C11.49 9.03504 11.34 9.30504 11.07 9.37504C11.03 9.38504 10.98 9.39504 10.94 9.39504V9.40504ZM34.38 6.36504C34.17 6.36504 33.98 6.23504 33.91 6.02504L33.15 3.82504C33.12 3.73504 33.05 3.65504 32.97 3.61504C32.72 3.48504 32.63 3.18504 32.76 2.94504C32.89 2.69504 33.19 2.60504 33.43 2.73504C33.74 2.89504 33.98 3.17504 34.1 3.50504L34.86 5.71504C34.95 5.97504 34.81 6.26504 34.55 6.35504C34.5 6.37504 34.44 6.38504 34.39 6.38504L34.38 6.36504ZM15.27 5.03504C15.01 5.03504 14.79 4.83504 14.77 4.57504C14.75 4.30504 14.95 4.05504 15.23 4.03504L18.22 3.78504C18.5 3.75504 18.74 3.96504 18.76 4.24504C18.78 4.51504 18.58 4.76504 18.3 4.78504L15.31 5.03504C15.31 5.03504 15.28 5.03504 15.27 5.03504ZM21.25 4.53504C20.99 4.53504 20.77 4.33504 20.75 4.07504C20.73 3.79504 20.93 3.55504 21.21 3.53504L24.2 3.28504C24.49 3.25504 24.72 3.46504 24.74 3.74504C24.76 4.02504 24.56 4.26504 24.28 4.28504L21.29 4.53504C21.29 4.53504 21.26 4.53504 21.25 4.53504ZM27.23 4.03504C26.97 4.03504 26.75 3.83504 26.73 3.57504C26.71 3.30504 26.91 3.05504 27.19 3.03504L30.18 2.78504C30.46 2.75504 30.7 2.96504 30.72 3.24504C30.74 3.51504 30.54 3.76504 30.26 3.78504L27.27 4.03504C27.27 4.03504 27.24 4.03504 27.23 4.03504Z" fill="#00144A"/>
<path d="M24.5365 12.4718C20.903 12.8695 18.7338 16.033 19.7732 19.5761C20.8397 23.1824 24.7715 25.7042 28.4863 25.1528C32.1107 24.6105 34.0631 21.3386 32.9332 17.8859C31.8215 14.4874 28.0976 12.0832 24.5365 12.4718ZM28.0163 22.5226C27.9259 22.6763 27.7723 22.7667 27.5644 22.7938C27.3565 22.8209 27.1576 22.7847 26.9769 22.6672C26.8051 22.5497 26.6786 22.3961 26.6153 22.1882C26.5521 21.9803 26.5701 21.8086 26.6696 21.664C26.769 21.5103 26.9226 21.4199 27.1305 21.3928C27.3474 21.3657 27.5282 21.4019 27.709 21.5194C27.8807 21.6369 27.9982 21.7905 28.0615 21.9894C28.1248 22.1882 28.1157 22.378 28.0253 22.5317L28.0163 22.5226ZM28.7032 17.5514C28.658 17.8316 28.5676 18.0666 28.4411 18.2745C28.3055 18.4734 28.1248 18.6993 27.8988 18.9434C27.718 19.1513 27.5915 19.323 27.5011 19.4495C27.4107 19.5761 27.3565 19.7388 27.3203 19.9195C27.2842 20.1003 27.3023 20.3082 27.3655 20.5342L26.3532 20.6697C26.2538 20.3263 26.2267 20.028 26.2719 19.7659C26.3171 19.5038 26.3984 19.2868 26.5069 19.1061C26.6244 18.9253 26.7871 18.7174 26.9949 18.4824C27.0763 18.383 27.1124 18.3468 27.1124 18.3559C27.2661 18.1841 27.3926 18.0215 27.483 17.8859C27.5734 17.7413 27.6276 17.5786 27.6548 17.3978C27.6819 17.217 27.6548 17.0091 27.5824 16.7741C27.4921 16.4939 27.3474 16.2589 27.1396 16.0782C26.9317 15.8884 26.6967 15.7618 26.4255 15.6805C26.1544 15.5991 25.8742 15.5811 25.5849 15.6172C25.133 15.6714 24.7805 15.8161 24.5455 16.0601C24.3105 16.3041 24.1297 16.6295 24.0122 17.0543L23.009 16.6747C23.1084 16.1505 23.3524 15.7257 23.7411 15.3822C24.1207 15.0387 24.6449 14.8309 25.3047 14.7586C25.8199 14.6953 26.308 14.7314 26.7599 14.858C27.2119 14.9845 27.6005 15.2014 27.9169 15.5087C28.2423 15.8161 28.4682 16.1776 28.6038 16.6205C28.7123 16.973 28.7484 17.2893 28.7032 17.5695V17.5514Z" fill="#00144A"/>
</g>
</g>
</g>
<defs>
<clipPath id="clip0_4516_149769">
<rect width="45" height="45" fill="white"/>
</clipPath>
<clipPath id="clip1_4516_149769">
<rect width="45" height="45" fill="white" transform="translate(0.5 0.5)"/>
</clipPath>
</defs>
</svg>
