<svg width="160" height="82" viewBox="0 0 160 82" fill="none" xmlns="http://www.w3.org/2000/svg">
<rect y="12.8999" width="160" height="69" rx="12" fill="#89D1FF"/>
<path d="M46.7891 36.8297C41.7663 33.1072 36.7435 29.3848 31.7206 25.6665C31.4931 25.4999 31.2736 25.8778 31.4971 26.0444C36.5199 29.7668 41.5428 33.4892 46.5656 37.2076C46.7931 37.3742 47.0126 36.9963 46.7891 36.8297Z" fill="#340800"/>
<path d="M46.2445 36.3582C45.6959 35.1553 45.1473 33.9484 44.5987 32.7455C43.2861 29.8684 41.9775 26.9953 40.6649 24.1182L35.9103 13.6824C34.5327 10.659 33.1551 7.63959 31.7775 4.61615L30.4161 1.62928L29.9935 0.706808C29.9244 0.556449 29.8716 0.345133 29.77 0.215093C29.7578 0.198838 29.7497 0.174455 29.7415 0.154136C29.6968 0.0566061 29.5302 0.101307 29.5383 0.206965C29.8147 3.14913 30.0951 6.0913 30.3714 9.03753C30.8103 13.6905 31.2533 18.3435 31.6921 22.9966C31.7937 24.0735 31.8953 25.1504 31.9969 26.2273C32.0091 26.3654 32.2286 26.3695 32.2164 26.2273C31.94 23.2851 31.6596 20.3429 31.3833 17.3967C30.9444 12.7437 30.5055 8.09067 30.0626 3.43766C29.961 2.36076 29.8594 1.28386 29.7578 0.206965L29.5546 0.263858C30.1032 1.46673 30.6518 2.67367 31.2004 3.87654C32.513 6.75369 33.8216 9.62677 35.1341 12.5039L39.8888 22.9397C41.2664 25.9631 42.644 28.9825 44.0216 32.0059L45.383 34.9928L45.8056 35.9153C45.8747 36.0656 45.9275 36.2769 46.0291 36.407C46.0413 36.4232 46.0494 36.4476 46.0575 36.4679C46.1144 36.598 46.3054 36.4842 46.2485 36.3582H46.2445Z" fill="#340800"/>
<path d="M35.6299 12.622C33.9272 12.2319 32.2286 11.8417 30.5259 11.4475C30.2698 11.3907 30.1601 11.7808 30.4161 11.8417C32.1188 12.2319 33.8175 12.622 35.5202 13.0162C35.7762 13.073 35.886 12.6829 35.6299 12.622Z" fill="#340800"/>
<rect x="29.6814" y="0.269043" width="0.2" height="29.6422" transform="rotate(-11.3292 29.6814 0.269043)" fill="#340800"/>
<rect width="0.2" height="31.9344" transform="matrix(-0.959409 0.282019 0.282019 0.959409 29.8109 0.631348)" fill="#340800"/>
<rect width="0.2" height="34.5263" transform="matrix(-0.934726 0.35537 0.35537 0.934726 29.9789 1.19189)" fill="#340800"/>
<path d="M40.5715 23.0291L31.2208 19.1157C30.9973 19.0223 30.8957 19.388 31.1192 19.4815C34.2361 20.7859 37.353 22.0904 40.4699 23.3949C40.6934 23.4883 40.795 23.1226 40.5715 23.0291Z" fill="#340800"/>
<path d="M102.472 76.7498C117.272 74.427 128.918 70.3025 128.484 67.5376C128.05 64.7728 115.701 64.4145 100.901 66.7374C86.101 69.0603 74.4552 73.1847 74.8891 75.9496C75.3231 78.7144 87.6725 79.0727 102.472 76.7498Z" fill="#1B90FF"/>
<path d="M111.452 28.0032C115.767 32.5262 120.083 37.0451 124.399 41.5681C124.594 41.7713 124.903 41.4624 124.708 41.2592C120.392 36.7363 116.076 32.2174 111.761 27.6944C111.565 27.4912 111.257 27.8 111.452 28.0032Z" fill="#340800"/>
<path d="M112.13 28.3527C113.48 25.4756 114.829 22.5984 116.178 19.7213C118.324 15.1414 120.469 10.5616 122.615 5.98172C123.102 4.94139 123.59 3.897 124.082 2.85668L123.879 2.79979C123.883 4.05549 123.887 5.31526 123.895 6.57096L123.932 15.6291C123.948 19.2824 123.96 22.9357 123.976 26.585C123.988 29.7425 124.001 32.9001 124.013 36.0576L124.025 39.1705C124.025 39.6297 123.932 40.2108 124.029 40.6659C124.033 40.6863 124.029 40.7106 124.029 40.731C124.029 40.8732 124.248 40.8732 124.248 40.731C124.244 39.4753 124.24 38.2155 124.232 36.9598L124.196 27.9017C124.179 24.2483 124.167 20.595 124.151 16.9458C124.139 13.7882 124.127 10.6307 124.114 7.47312L124.102 4.36027C124.102 3.90107 124.196 3.31995 124.098 2.86481C124.094 2.84449 124.098 2.82011 124.098 2.79979C124.098 2.69819 123.94 2.6413 123.895 2.7429C122.546 5.62004 121.197 8.49719 119.847 11.3743C117.702 15.9542 115.556 20.5341 113.41 25.1139C112.923 26.1542 112.435 27.1986 111.943 28.239C111.882 28.3649 112.073 28.4787 112.134 28.3487L112.13 28.3527Z" fill="#340800"/>
<path d="M124.606 15.1009C122.785 14.2434 120.965 13.3819 119.14 12.5244C118.884 12.4066 118.665 12.7845 118.917 12.9024C120.737 13.7598 122.558 14.6213 124.383 15.4788C124.639 15.5966 124.858 15.2187 124.606 15.1009Z" fill="#340800"/>
<path d="M124.586 27.0685C121.404 24.7197 118.226 22.3708 115.044 20.022C114.816 19.8553 114.597 20.2333 114.821 20.3999C118.002 22.7487 121.18 25.0976 124.362 27.4465C124.59 27.6131 124.809 27.2351 124.586 27.0685Z" fill="#340800"/>
<rect width="0.2" height="34.1677" transform="matrix(-0.996046 -0.0888429 -0.0888429 0.996046 123.987 3.6543)" fill="#340800"/>
<rect x="123.819" y="3.18408" width="0.2" height="32.2226" transform="rotate(10.0288 123.819 3.18408)" fill="#340800"/>
<rect x="123.715" y="3.22852" width="0.2" height="29.2984" transform="rotate(18.3082 123.715 3.22852)" fill="#340800"/>
<path d="M123.749 41.5149L95.16 53.7184L85.7646 54.6368L74 54.0028C74 54.0028 106.457 41.0638 111.074 28.2183L123.749 41.5149Z" fill="#C35500"/>
<path d="M36.3249 29.0272L35.7397 29.7912C36.398 30.291 37.0807 30.8071 37.7675 31.3313L38.3527 30.5674C37.6659 30.0472 36.9791 29.527 36.3249 29.0272ZM32.6715 26.2598L32.0864 27.0238C32.6634 27.4626 33.3543 27.9869 34.1142 28.5639L34.6994 27.7999C33.9394 27.2229 33.2486 26.6987 32.6715 26.2598ZM45.6593 36.1063C45.1107 35.6918 44.4158 35.1635 43.6315 34.5661L43.0463 35.3301C43.8347 35.9275 44.5296 36.4517 45.0742 36.8703L45.6593 36.1063ZM39.9741 31.7987L39.3889 32.5627C40.0839 33.091 40.7666 33.6071 41.4168 34.1028L42.0019 33.3388C41.3517 32.8431 40.669 32.327 39.9741 31.7987Z" fill="#8D2A00"/>
<path d="M122.729 38.106L121.465 39.2154L123.216 41.0684L124.48 39.959L122.729 38.106Z" fill="#8D2A00"/>
<path d="M122.404 37.7646L121.205 38.9391L122.956 40.7922L124.155 39.6177L122.404 37.7646Z" fill="#C35500"/>
<path d="M119.608 34.7817L118.344 35.8911L120.095 37.7442L121.359 36.6348L119.608 34.7817Z" fill="#8D2A00"/>
<path d="M119.283 34.436L118.084 35.6105L119.835 37.4635L121.034 36.2891L119.283 34.436Z" fill="#C35500"/>
<path d="M116.389 31.4087L115.125 32.5181L116.877 34.3712L118.141 33.2618L116.389 31.4087Z" fill="#8D2A00"/>
<path d="M116.06 31.0635L114.861 32.242L116.617 34.095L117.816 32.9166L116.06 31.0635Z" fill="#C35500"/>
<path d="M113.293 28.1255L112.029 29.2349L113.78 31.088L115.044 29.9786L113.293 28.1255Z" fill="#8D2A00"/>
<path d="M112.967 27.7798L111.765 28.9542L113.52 30.8073L114.719 29.6329L112.967 27.7798Z" fill="#C35500"/>
<path d="M108.51 32.5786L119.035 43.9043L113.244 47.5089L104.974 36.2604L108.51 32.5786Z" fill="#8D2A00"/>
<path d="M90.8891 45.8838L94.4164 55.1492L84.0904 57.8516L83.7003 49.6346L90.8891 45.8838Z" fill="#8D2A00"/>
<path d="M100.845 39.5889L108.936 50.5976L99.6627 54.637L95.6315 43.0918L100.845 39.5889Z" fill="#8D2A00"/>
<path d="M91.9334 49.9961C93.8596 51.0567 99.6139 51.1908 99.6139 51.1908C99.7074 51.1908 99.8049 51.1949 99.8821 51.1989L111.366 50.0814C112 50.0204 112.464 49.4393 112.366 48.8094C112.338 48.6225 112.305 48.4274 112.268 48.2324C112.102 47.3058 111.866 46.3468 111.761 45.9282C111.724 45.786 111.704 45.7047 111.704 45.7047C111.704 45.7047 111.838 45.465 112.017 45.1399C112.163 44.8716 112.484 44.1727 112.638 43.876C112.976 43.2177 113.288 41.901 113.215 41.2427C113.207 41.1777 113.13 41.0273 113.13 41.0273C112.927 40.6331 112.537 40.3731 112.09 40.3771H112.082C110.724 40.4056 109.294 40.5722 103.694 40.0033C99.2888 39.5522 96.2451 38.9101 95.1438 38.6541C94.8959 38.5972 94.6399 38.6256 94.4123 38.7354C94.4123 38.7354 94.0059 38.8979 93.8921 38.9833C93.7865 39.0605 93.7093 39.0727 93.6239 39.2433C93.6158 39.2596 93.5873 39.3774 93.5873 39.3856C93.5508 39.4994 93.5426 39.6294 93.5345 39.6903C93.4329 40.3812 93.4289 41.0233 93.3598 41.7872C93.2907 42.5878 93.2419 43.299 93.2175 43.6606C93.2094 43.8151 93.1688 43.9614 93.0956 44.0995C92.9981 44.2824 92.8315 44.6319 92.5714 45.278C92.5511 45.3309 92.5267 45.3877 92.5064 45.4446C92.417 45.6641 92.3195 45.9201 92.2219 46.1924C92.0147 46.7572 91.5961 47.6797 91.3279 48.7485C91.2913 48.8907 91.2426 49.102 91.3198 49.3418C91.3563 49.4556 91.4701 49.74 91.9375 49.9961H91.9334Z" fill="#FFEAF4"/>
<path d="M93.4939 40.0278C93.4939 40.0685 93.4491 40.4139 93.4491 40.4545C93.441 40.5602 93.4166 41.0682 93.4085 41.1738C99.9105 41.8484 106.417 42.523 112.919 43.2016C112.931 43.1447 112.996 42.9944 113.012 42.9334C113.057 42.7424 113.126 42.4661 113.13 42.4417C113.158 42.3117 113.146 42.3198 113.195 42.015C106.652 41.3567 100.037 40.6902 93.4939 40.0319V40.0278Z" fill="#9B015D"/>
<path d="M93.3516 41.9336L93.2622 43.0755L112.159 44.8961C112.175 44.8595 112.419 44.4491 112.435 44.4166C112.455 44.3759 112.622 43.9167 112.642 43.8761C106.218 43.2299 99.7765 42.5838 93.3516 41.9336Z" fill="#9B015D"/>
<path opacity="0.3" d="M97.2854 41.0274C96.8831 40.9989 95.5461 40.5275 95.2901 40.8445C94.8634 41.3809 95.1194 42.9699 94.5342 44.2093C93.6036 46.1843 93.2744 48.3096 93.5467 48.525C93.819 48.7404 99.5895 50.2684 100.065 50.2602C100.54 50.2521 103.377 42.9861 103.483 42.8479C104.69 41.194 101.353 41.2996 97.2854 41.0274Z" fill="#FFB2D2"/>
<path opacity="0.8" d="M99.1751 45.0505C99.1751 45.0505 96.5539 44.64 94.9528 44.5059C93.3476 44.3759 93.3964 44.1808 92.5836 45.1561C93.0469 44.0142 93.2135 43.7988 93.2135 43.7988C93.2135 43.7988 93.2704 42.8235 93.372 41.6694C93.4655 41.9011 93.9531 43.0999 94.4449 43.4981C94.9894 43.9451 99.1791 45.0505 99.1791 45.0505H99.1751Z" fill="#FFB2D2"/>
<path opacity="0.8" d="M111.708 45.7048C111.708 45.7048 111.728 45.7861 111.765 45.9283C111.565 46.0015 111.375 46.0625 111.22 46.0828C110.655 46.164 108.388 45.8715 108.388 45.8715C108.388 45.8715 109.733 45.9649 110.468 45.7861C111.184 45.6114 111.972 45.1684 112.021 45.144C111.842 45.4691 111.708 45.7089 111.708 45.7089V45.7048Z" fill="#FFB2D2"/>
<path d="M89.3854 54.0112C89.3773 53.812 89.2106 53.7673 89.0318 53.3C89.0318 53.3 89.0318 53.3 89.0318 53.2959C88.9018 52.9505 88.7596 52.4913 88.6824 51.9143C88.6539 51.7233 88.6336 51.5201 88.6255 51.3006C88.6011 50.9065 88.6092 50.4716 88.658 49.9962C88.6702 49.8743 88.6864 49.7523 88.7067 49.6223C88.7393 49.4029 88.788 49.1753 88.8408 48.9437C88.9993 48.2853 89.2228 47.6026 89.4789 46.9565C89.5764 46.7086 89.678 46.4688 89.7796 46.2372C90.3973 44.8311 91.0678 43.7461 91.2222 43.7542C91.2628 43.7542 91.3929 43.7786 91.5839 43.8071C92.3316 43.933 94.0384 44.2581 95.1641 44.4369C95.672 44.5182 96.0581 44.571 96.1963 44.567C96.7124 44.5467 99.8049 43.5795 100.219 43.742C100.463 43.8396 100.394 45.5951 100.13 47.4197C100.085 47.7083 100.041 47.9968 99.9918 48.2853C99.8536 49.0493 99.687 49.7849 99.492 50.3619C99.4473 50.5082 99.3985 50.6423 99.3497 50.7683C99.2603 50.9918 99.1628 51.2112 99.0734 51.4266C98.8905 51.8371 98.7077 52.2231 98.5329 52.5726C98.4638 52.7108 98.3988 52.8367 98.3379 52.9627C97.8827 53.8446 97.5292 54.4257 97.5292 54.4257" fill="#FFB2D2"/>
<path d="M96.241 54.5925C96.241 54.5925 92.547 54.4543 91.3848 54.2999C90.2225 54.1496 89.8974 54.1333 89.8974 54.1333" fill="#FFB2D2"/>
<path d="M89.3854 54.0113C89.3854 54.0113 89.2107 53.7675 89.0319 53.3002C89.2472 53.6415 89.5033 53.8935 89.613 53.8366C89.7268 53.7797 93.2216 53.3042 94.7333 53.6171C96.2491 53.926 95.7736 53.9626 96.3873 53.9179C96.9968 53.8691 97.4398 53.483 98.1835 52.6337C98.9312 51.7803 99.5489 48.0335 99.6098 47.7856C99.6708 47.5377 99.557 46.8306 99.622 46.1317C99.6871 45.4327 100.211 43.7422 100.211 43.7422C100.455 43.8397 100.386 45.5953 100.122 47.4199C100.077 47.7084 100.032 47.9969 99.9837 48.2855C99.8455 49.0495 99.6789 49.785 99.4839 50.3621C99.4392 50.5084 99.3904 50.6425 99.3416 50.7684C99.2522 50.9919 99.1547 51.2114 99.0653 51.4268C98.8824 51.8372 98.6996 52.2233 98.5248 52.5727C98.4517 52.715 98.4517 52.719 98.3298 52.9629C97.7202 54.1698 97.6877 54.2917 97.5211 54.4258C97.3544 54.5599 96.9928 54.7469 96.2491 54.5924C93.4573 54.4868 92.1081 54.3771 91.3929 54.2998C91.2751 54.2877 89.9056 54.1332 89.9056 54.1332" fill="#9B015D"/>
<path d="M91.6652 47.773C91.9682 47.773 92.2138 47.5274 92.2138 47.2244C92.2138 46.9214 91.9682 46.6758 91.6652 46.6758C91.3622 46.6758 91.1166 46.9214 91.1166 47.2244C91.1166 47.5274 91.3622 47.773 91.6652 47.773Z" fill="#DF1278"/>
<path d="M91.3523 45.5787C91.6553 45.5787 91.9009 45.333 91.9009 45.0301C91.9009 44.7271 91.6553 44.4814 91.3523 44.4814C91.0493 44.4814 90.8037 44.7271 90.8037 45.0301C90.8037 45.333 91.0493 45.5787 91.3523 45.5787Z" fill="#DF1278"/>
<path d="M93.5102 49.2725C93.8132 49.2725 94.0588 49.0269 94.0588 48.7239C94.0588 48.4209 93.8132 48.1753 93.5102 48.1753C93.2072 48.1753 92.9616 48.4209 92.9616 48.7239C92.9616 49.0269 93.2072 49.2725 93.5102 49.2725Z" fill="#DF1278"/>
<path d="M89.9868 52.5235C90.2898 52.5235 90.5355 52.2779 90.5355 51.9749C90.5355 51.6719 90.2898 51.4263 89.9868 51.4263C89.6839 51.4263 89.4382 51.6719 89.4382 51.9749C89.4382 52.2779 89.6839 52.5235 89.9868 52.5235Z" fill="#DF1278"/>
<path d="M91.8115 50.8169C92.1145 50.8169 92.3601 50.5713 92.3601 50.2683C92.3601 49.9653 92.1145 49.7197 91.8115 49.7197C91.5085 49.7197 91.2629 49.9653 91.2629 50.2683C91.2629 50.5713 91.5085 50.8169 91.8115 50.8169Z" fill="#DF1278"/>
<path d="M93.8799 52.3409C94.1829 52.3409 94.4285 52.0952 94.4285 51.7923C94.4285 51.4893 94.1829 51.2437 93.8799 51.2437C93.577 51.2437 93.3313 51.4893 93.3313 51.7923C93.3313 52.0952 93.577 52.3409 93.8799 52.3409Z" fill="#DF1278"/>
<path d="M90.06 49.6426C90.363 49.6426 90.6086 49.397 90.6086 49.094C90.6086 48.791 90.363 48.5454 90.06 48.5454C89.757 48.5454 89.5114 48.791 89.5114 49.094C89.5114 49.397 89.757 49.6426 90.06 49.6426Z" fill="#DF1278"/>
<path d="M95.0503 46.94C95.3533 46.94 95.5989 46.6944 95.5989 46.3914C95.5989 46.0884 95.3533 45.8428 95.0503 45.8428C94.7473 45.8428 94.5017 46.0884 94.5017 46.3914C94.5017 46.6944 94.7473 46.94 95.0503 46.94Z" fill="#DF1278"/>
<path d="M96.2207 48.8907C96.5237 48.8907 96.7693 48.6451 96.7693 48.3421C96.7693 48.0391 96.5237 47.7935 96.2207 47.7935C95.9177 47.7935 95.6721 48.0391 95.6721 48.3421C95.6721 48.6451 95.9177 48.8907 96.2207 48.8907Z" fill="#DF1278"/>
<path d="M95.6558 51.0118C95.9588 51.0118 96.2044 50.7661 96.2044 50.4632C96.2044 50.1602 95.9588 49.9146 95.6558 49.9146C95.3528 49.9146 95.1072 50.1602 95.1072 50.4632C95.1072 50.7661 95.3528 51.0118 95.6558 51.0118Z" fill="#DF1278"/>
<path d="M91.7911 53.6495C92.0941 53.6495 92.3397 53.4038 92.3397 53.1009C92.3397 52.7979 92.0941 52.5522 91.7911 52.5522C91.4881 52.5522 91.2425 52.7979 91.2425 53.1009C91.2425 53.4038 91.4881 53.6495 91.7911 53.6495Z" fill="#DF1278"/>
<path d="M96.3507 53.0396C96.6537 53.0396 96.8993 52.794 96.8993 52.491C96.8993 52.188 96.6537 51.9424 96.3507 51.9424C96.0477 51.9424 95.8021 52.188 95.8021 52.491C95.8021 52.794 96.0477 53.0396 96.3507 53.0396Z" fill="#DF1278"/>
<path d="M98.1307 50.5972C98.4337 50.5972 98.6793 50.3516 98.6793 50.0486C98.6793 49.7456 98.4337 49.5 98.1307 49.5C97.8277 49.5 97.5821 49.7456 97.5821 50.0486C97.5821 50.3516 97.8277 50.5972 98.1307 50.5972Z" fill="#DF1278"/>
<path d="M97.7852 46.2168C98.0882 46.2168 98.3338 45.9712 98.3338 45.6682C98.3338 45.3652 98.0882 45.1196 97.7852 45.1196C97.4822 45.1196 97.2366 45.3652 97.2366 45.6682C97.2366 45.9712 97.4822 46.2168 97.7852 46.2168Z" fill="#DF1278"/>
<path d="M98.4923 48.0411C98.7953 48.0411 99.0409 47.7954 99.0409 47.4925C99.0409 47.1895 98.7953 46.9438 98.4923 46.9438C98.1893 46.9438 97.9437 47.1895 97.9437 47.4925C97.9437 47.7954 98.1893 48.0411 98.4923 48.0411Z" fill="#DF1278"/>
<path opacity="0.3" d="M90.8687 45.4896C90.5843 45.5139 90.3283 45.6724 90.186 45.9162C89.9463 46.3308 89.5724 47.0582 89.3001 47.9766C88.8653 49.4395 88.8694 50.935 89.0807 51.0569C89.292 51.1788 93.4695 51.6136 93.8028 51.5568C94.1319 51.4999 95.4486 46.1804 95.3754 46.0829C95.3064 45.9894 93.7296 45.2417 90.8687 45.4896Z" fill="#FFEAF4"/>
<path d="M95.5908 53.8325C95.5908 53.8325 91.6652 54.6534 90.4013 54.7956C89.1375 54.9419 88.788 55.0069 88.788 55.0069" fill="#FFB2D2"/>
<path d="M32.1148 26.3652L46.5452 37.0001C46.5452 37.0001 70.6068 50.8169 75.0769 52.674C79.5511 54.5312 92.1772 53.0195 94.8756 52.1783C97.578 51.333 123.745 41.5231 123.745 41.5231C123.745 41.5231 123.862 41.4459 117.56 46.6922C109.257 53.5965 97.6552 58.2008 90.3404 60.2773C86.045 61.4965 77.8322 62.9879 72.6834 62.9879C67.5346 62.9879 58.7934 58.851 55.2376 55.7422C48.1992 49.5815 32.1148 26.3652 32.1148 26.3652Z" fill="#8D2A00"/>
<path d="M42.006 40.0361L55.9975 42.3728L63.5521 46.6032L48.764 48.6798L42.006 40.0361Z" fill="#C35500"/>
<path d="M55.2376 55.7301C55.9691 56.2787 56.5624 56.8354 57.6393 57.5222C58.2245 57.8961 59.8216 58.7982 61.4186 59.6028C64.8606 61.3381 68.3311 62.3256 68.3311 62.3256C72.1266 59.424 75.4752 56.3681 79.2707 53.4666C77.7875 53.0439 76.1863 52.6904 74.7031 52.2718C73.4718 51.9223 72.6915 51.2396 71.4602 50.8901" fill="#C35500"/>
<path d="M79.7137 62.3987L90.3282 53.2593L97.1472 51.3818L93.6239 59.2534C93.6239 59.2534 93.3882 59.3184 93.0306 59.4159C92.0106 59.7004 91.4823 59.9889 91.1613 60.0783C87.3779 61.1349 87.1991 61.0455 86.9472 61.1024C86.2848 61.2527 84.9315 61.5819 82.8631 61.9354C82.4689 62.0045 82.0584 62.0614 80.6483 62.3134C80.376 62.3621 79.8599 62.3662 79.7137 62.3946V62.3987Z" fill="#C35500"/>
<path d="M105.441 48.3055L102.727 55.6853C102.747 55.6731 106.628 53.7875 106.648 53.7794C106.66 53.7713 109.826 52.032 109.838 52.0239C109.989 50.1992 110.143 48.3705 110.294 46.5459L105.441 48.3096V48.3055Z" fill="#C35500"/>
<path d="M116.836 44.0998L114.89 48.7487C115.3 48.4277 116.019 47.9116 116.442 47.5824C117.515 46.7493 117.604 46.6356 117.824 46.4608C118.405 46.0016 119.226 45.3352 120.213 44.4696V42.8359L116.832 44.0957L116.836 44.0998Z" fill="#C35500"/>
<path d="M39.649 36.8703C39.649 36.8703 59.9963 50.4758 64.3689 52.4589C67.307 53.7918 71.383 56.8924 77.9297 57.8556C79.1854 58.0384 97.2366 57.9734 97.2366 57.9734C95.8143 57.9937 89.9625 61.899 73.5002 63.0287C70.4117 63.24 69.5584 62.7036 68.1035 62.3988C63.7675 61.5007 59.1714 58.6561 57.6393 57.5223C56.0098 56.3194 54.6403 55.2751 51.9988 52.4548C50.5887 50.9512 49.2436 49.4842 48.4999 48.6755C47.8457 47.9644 40.7666 38.2763 39.6531 36.8662L39.649 36.8703Z" fill="#8D2A00"/>
</svg>
