<?xml version="1.0" encoding="UTF-8"?>
<!--Generator: Apple Native CoreSVG 232.5-->
<!DOCTYPE svg
PUBLIC "-//W3C//DTD SVG 1.1//EN"
       "http://www.w3.org/Graphics/SVG/1.1/DTD/svg11.dtd">
<svg version="1.1" xmlns="http://www.w3.org/2000/svg" xmlns:xlink="http://www.w3.org/1999/xlink" width="3300" height="2200">
 <!--glyph: "", point size: 100.0, font version: "19.0d6e1", template writer version: "123"-->
 <style>.SFSymbolsPreviewWireframe {fill:none;opacity:1.0;stroke:black;stroke-width:0.5}
</style>
 <g id="Notes">
  <rect height="2200" id="artboard" style="fill:white;opacity:1" width="3300" x="0" y="0"/>
  <line style="fill:none;stroke:black;opacity:1;stroke-width:0.5;" x1="263" x2="3036" y1="292" y2="292"/>
  <text style="stroke:none;fill:black;font-family:sans-serif;font-size:13;font-weight:bold;" transform="matrix(1 0 0 1 263 322)">Weight/Scale Variations</text>
  <text style="stroke:none;fill:black;font-family:sans-serif;font-size:13;text-anchor:middle;" transform="matrix(1 0 0 1 559.711 322)">Ultralight</text>
  <text style="stroke:none;fill:black;font-family:sans-serif;font-size:13;text-anchor:middle;" transform="matrix(1 0 0 1 856.422 322)">Thin</text>
  <text style="stroke:none;fill:black;font-family:sans-serif;font-size:13;text-anchor:middle;" transform="matrix(1 0 0 1 1153.13 322)">Light</text>
  <text style="stroke:none;fill:black;font-family:sans-serif;font-size:13;text-anchor:middle;" transform="matrix(1 0 0 1 1449.84 322)">Regular</text>
  <text style="stroke:none;fill:black;font-family:sans-serif;font-size:13;text-anchor:middle;" transform="matrix(1 0 0 1 1746.56 322)">Medium</text>
  <text style="stroke:none;fill:black;font-family:sans-serif;font-size:13;text-anchor:middle;" transform="matrix(1 0 0 1 2043.27 322)">Semibold</text>
  <text style="stroke:none;fill:black;font-family:sans-serif;font-size:13;text-anchor:middle;" transform="matrix(1 0 0 1 2339.98 322)">Bold</text>
  <text style="stroke:none;fill:black;font-family:sans-serif;font-size:13;text-anchor:middle;" transform="matrix(1 0 0 1 2636.69 322)">Heavy</text>
  <text style="stroke:none;fill:black;font-family:sans-serif;font-size:13;text-anchor:middle;" transform="matrix(1 0 0 1 2933.4 322)">Black</text>
  <line style="fill:none;stroke:black;opacity:1;stroke-width:0.5;" x1="263" x2="3036" y1="1903" y2="1903"/>
  <g transform="matrix(0.2 0 0 0.2 263 1933)">
   <path d="m46.2402 4.15039c21.5332 0 39.4531-17.8711 39.4531-39.4043s-17.9688-39.4043-39.502-39.4043c-21.4844 0-39.3555 17.8711-39.3555 39.4043s17.9199 39.4043 39.4043 39.4043Zm0-7.42188c-17.7246 0-31.8848-14.209-31.8848-31.9824s14.1113-31.9824 31.8359-31.9824c17.7734 0 32.0312 14.209 32.0312 31.9824s-14.209 31.9824-31.9824 31.9824Zm-17.9688-31.9824c0 2.14844 1.51367 3.61328 3.75977 3.61328h10.498v10.5957c0 2.19727 1.46484 3.71094 3.61328 3.71094 2.24609 0 3.71094-1.51367 3.71094-3.71094v-10.5957h10.5957c2.19727 0 3.71094-1.46484 3.71094-3.61328 0-2.19727-1.51367-3.71094-3.71094-3.71094h-10.5957v-10.5469c0-2.24609-1.46484-3.75977-3.71094-3.75977-2.14844 0-3.61328 1.51367-3.61328 3.75977v10.5469h-10.498c-2.24609 0-3.75977 1.51367-3.75977 3.71094Z"/>
  </g>
  <g transform="matrix(0.2 0 0 0.2 281.506 1933)">
   <path d="m58.5449 14.5508c27.2461 0 49.8047-22.6074 49.8047-49.8047 0-27.2461-22.6074-49.8047-49.8535-49.8047-27.1973 0-49.7559 22.5586-49.7559 49.8047 0 27.1973 22.6074 49.8047 49.8047 49.8047Zm0-8.30078c-23.0469 0-41.4551-18.457-41.4551-41.5039s18.3594-41.5039 41.4062-41.5039 41.5527 18.457 41.5527 41.5039-18.457 41.5039-41.5039 41.5039Zm-22.6562-41.5039c0 2.39258 1.66016 4.00391 4.15039 4.00391h14.3555v14.4043c0 2.44141 1.66016 4.15039 4.05273 4.15039 2.44141 0 4.15039-1.66016 4.15039-4.15039v-14.4043h14.4043c2.44141 0 4.15039-1.61133 4.15039-4.00391 0-2.44141-1.70898-4.15039-4.15039-4.15039h-14.4043v-14.3555c0-2.49023-1.70898-4.19922-4.15039-4.19922-2.39258 0-4.05273 1.70898-4.05273 4.19922v14.3555h-14.3555c-2.49023 0-4.15039 1.70898-4.15039 4.15039Z"/>
  </g>
  <g transform="matrix(0.2 0 0 0.2 304.924 1933)">
   <path d="m74.8535 28.3203c34.8145 0 63.623-28.8086 63.623-63.5742 0-34.8145-28.8574-63.623-63.6719-63.623-34.7656 0-63.5254 28.8086-63.5254 63.623 0 34.7656 28.8086 63.5742 63.5742 63.5742Zm0-9.08203c-30.1758 0-54.4434-24.3164-54.4434-54.4922 0-30.2246 24.2188-54.4922 54.3945-54.4922 30.2246 0 54.541 24.2676 54.541 54.4922 0 30.1758-24.2676 54.4922-54.4922 54.4922Zm-28.8574-54.4922c0 2.58789 1.85547 4.39453 4.58984 4.39453h19.7266v19.7754c0 2.68555 1.85547 4.58984 4.44336 4.58984 2.68555 0 4.54102-1.85547 4.54102-4.58984v-19.7754h19.7754c2.68555 0 4.58984-1.80664 4.58984-4.39453 0-2.73438-1.85547-4.58984-4.58984-4.58984h-19.7754v-19.7266c0-2.73438-1.85547-4.63867-4.54102-4.63867-2.58789 0-4.44336 1.9043-4.44336 4.63867v19.7266h-19.7266c-2.73438 0-4.58984 1.85547-4.58984 4.58984Z"/>
  </g>
  <text style="stroke:none;fill:black;font-family:sans-serif;font-size:13;font-weight:bold;" transform="matrix(1 0 0 1 263 1953)">Design Variations</text>
  <text style="stroke:none;fill:black;font-family:sans-serif;font-size:13;" transform="matrix(1 0 0 1 263 1971)">Symbols are supported in up to nine weights and three scales.</text>
  <text style="stroke:none;fill:black;font-family:sans-serif;font-size:13;" transform="matrix(1 0 0 1 263 1989)">For optimal layout with text and other symbols, vertically align</text>
  <text style="stroke:none;fill:black;font-family:sans-serif;font-size:13;" transform="matrix(1 0 0 1 263 2007)">symbols with the adjacent text.</text>
  <line style="fill:none;stroke:#00AEEF;stroke-width:0.5;opacity:1.0;" x1="776" x2="776" y1="1919" y2="1933"/>
  <g transform="matrix(0.2 0 0 0.2 776 1933)">
   <path d="m16.5527 0.78125c2.58789 0 3.85742-0.976562 4.78516-3.71094l6.29883-17.2363h28.8086l6.29883 17.2363c0.927734 2.73438 2.19727 3.71094 4.73633 3.71094 2.58789 0 4.24805-1.5625 4.24805-4.00391 0-0.830078-0.146484-1.61133-0.537109-2.63672l-22.9004-60.9863c-1.12305-2.97852-3.125-4.49219-6.25-4.49219-3.02734 0-5.07812 1.46484-6.15234 4.44336l-22.9004 61.084c-0.390625 1.02539-0.537109 1.80664-0.537109 2.63672 0 2.44141 1.5625 3.95508 4.10156 3.95508Zm13.4766-28.3691 11.8652-32.8613h0.244141l11.8652 32.8613Z"/>
  </g>
  <line style="fill:none;stroke:#00AEEF;stroke-width:0.5;opacity:1.0;" x1="792.836" x2="792.836" y1="1919" y2="1933"/>
  <text style="stroke:none;fill:black;font-family:sans-serif;font-size:13;font-weight:bold;" transform="matrix(1 0 0 1 776 1953)">Margins</text>
  <text style="stroke:none;fill:black;font-family:sans-serif;font-size:13;" transform="matrix(1 0 0 1 776 1971)">Leading and trailing margins on the left and right side of each symbol</text>
  <text style="stroke:none;fill:black;font-family:sans-serif;font-size:13;" transform="matrix(1 0 0 1 776 1989)">can be adjusted by modifying the x-location of the margin guidelines.</text>
  <text style="stroke:none;fill:black;font-family:sans-serif;font-size:13;" transform="matrix(1 0 0 1 776 2007)">Modifications are automatically applied proportionally to all</text>
  <text style="stroke:none;fill:black;font-family:sans-serif;font-size:13;" transform="matrix(1 0 0 1 776 2025)">scales and weights.</text>
  <g transform="matrix(0.2 0 0 0.2 1289 1933)">
   <path d="m14.209 9.32617 8.49609 8.54492c4.29688 4.3457 9.22852 4.05273 13.8672-1.07422l53.4668-58.9355-4.83398-4.88281-53.0762 58.3984c-1.75781 2.00195-3.41797 2.49023-5.76172 0.146484l-5.85938-5.81055c-2.34375-2.29492-1.80664-4.00391 0.195312-5.81055l57.373-54.0039-4.88281-4.83398-57.959 54.4434c-4.93164 4.58984-5.32227 9.47266-1.02539 13.8184Zm32.0801-90.9668c-2.09961 2.05078-2.24609 4.93164-1.07422 6.88477 1.17188 1.80664 3.4668 2.97852 6.68945 2.14844 7.32422-1.70898 14.9414-2.00195 22.0703 2.68555l-2.92969 7.27539c-1.70898 4.15039-0.830078 7.08008 1.85547 9.81445l11.4746 11.5723c2.44141 2.44141 4.49219 2.53906 7.32422 2.05078l5.32227-0.976562 3.32031 3.36914-0.195312 2.7832c-0.195312 2.49023 0.439453 4.39453 2.88086 6.78711l3.80859 3.71094c2.39258 2.39258 5.46875 2.53906 7.8125 0.195312l14.5508-14.5996c2.34375-2.34375 2.24609-5.32227-0.146484-7.71484l-3.85742-3.80859c-2.39258-2.39258-4.24805-3.17383-6.64062-2.97852l-2.88086 0.244141-3.22266-3.17383 1.2207-5.61523c0.634766-2.83203-0.146484-5.0293-3.07617-7.95898l-10.9863-10.9375c-16.6992-16.6016-38.8672-16.2109-53.3203-1.75781Zm7.4707 1.85547c12.1582-8.88672 28.6133-7.37305 39.7461 3.75977l12.1582 12.0605c1.17188 1.17188 1.36719 2.09961 1.02539 3.80859l-1.61133 7.42188 7.51953 7.42188 4.93164-0.292969c1.26953-0.0488281 1.66016 0.0488281 2.63672 1.02539l2.88086 2.88086-12.207 12.207-2.88086-2.88086c-0.976562-0.976562-1.12305-1.36719-1.07422-2.68555l0.341797-4.88281-7.4707-7.42188-7.61719 1.26953c-1.61133 0.341797-2.34375 0.195312-3.56445-0.976562l-10.0098-10.0098c-1.26953-1.17188-1.41602-2.00195-0.634766-3.85742l4.39453-10.4492c-7.8125-7.27539-17.9688-10.4004-28.125-7.42188-0.78125 0.195312-1.07422-0.439453-0.439453-0.976562Z"/>
  </g>
  <text style="stroke:none;fill:black;font-family:sans-serif;font-size:13;font-weight:bold;" transform="matrix(1 0 0 1 1289 1953)">Exporting</text>
  <text style="stroke:none;fill:black;font-family:sans-serif;font-size:13;" transform="matrix(1 0 0 1 1289 1971)">Symbols should be outlined when exporting to ensure the</text>
  <text style="stroke:none;fill:black;font-family:sans-serif;font-size:13;" transform="matrix(1 0 0 1 1289 1989)">design is preserved when submitting to Xcode.</text>
  <text id="template-version" style="stroke:none;fill:black;font-family:sans-serif;font-size:13;text-anchor:end;" transform="matrix(1 0 0 1 3036 1933)">Template v.5.0</text>
  <text style="stroke:none;fill:black;font-family:sans-serif;font-size:13;text-anchor:end;" transform="matrix(1 0 0 1 3036 1951)">Requires Xcode 15 or greater</text>
  <text id="descriptive-name" style="stroke:none;fill:black;font-family:sans-serif;font-size:13;text-anchor:end;" transform="matrix(1 0 0 1 3036 1969)">Generated from fiori.theater</text>
  <text style="stroke:none;fill:black;font-family:sans-serif;font-size:13;text-anchor:end;" transform="matrix(1 0 0 1 3036 1987)">Typeset at 100.0 points</text>
  <text style="stroke:none;fill:black;font-family:sans-serif;font-size:13;" transform="matrix(1 0 0 1 263 726)">Small</text>
  <text style="stroke:none;fill:black;font-family:sans-serif;font-size:13;" transform="matrix(1 0 0 1 263 1156)">Medium</text>
  <text style="stroke:none;fill:black;font-family:sans-serif;font-size:13;" transform="matrix(1 0 0 1 263 1586)">Large</text>
 </g>
 <g id="Guides">
  <g id="H-reference" style="fill:#27AAE1;stroke:none;" transform="matrix(1 0 0 1 339 696)">
   <path d="M0.993654 0L3.63775 0L29.3281-67.1323L30.0303-67.1323L30.0303-70.459L28.1226-70.459ZM11.6885-24.4799L46.9815-24.4799L46.2315-26.7285L12.4385-26.7285ZM55.1196 0L57.7637 0L30.6382-70.459L29.4326-70.459L29.4326-67.1323Z"/>
  </g>
  <line id="Baseline-S" style="fill:none;stroke:#27AAE1;opacity:1;stroke-width:0.5;" x1="263" x2="3036" y1="696" y2="696"/>
  <line id="Capline-S" style="fill:none;stroke:#27AAE1;opacity:1;stroke-width:0.5;" x1="263" x2="3036" y1="625.541" y2="625.541"/>
  <g id="H-reference" style="fill:#27AAE1;stroke:none;" transform="matrix(1 0 0 1 339 1126)">
   <path d="M0.993654 0L3.63775 0L29.3281-67.1323L30.0303-67.1323L30.0303-70.459L28.1226-70.459ZM11.6885-24.4799L46.9815-24.4799L46.2315-26.7285L12.4385-26.7285ZM55.1196 0L57.7637 0L30.6382-70.459L29.4326-70.459L29.4326-67.1323Z"/>
  </g>
  <line id="Baseline-M" style="fill:none;stroke:#27AAE1;opacity:1;stroke-width:0.5;" x1="263" x2="3036" y1="1126" y2="1126"/>
  <line id="Capline-M" style="fill:none;stroke:#27AAE1;opacity:1;stroke-width:0.5;" x1="263" x2="3036" y1="1055.54" y2="1055.54"/>
  <g id="H-reference" style="fill:#27AAE1;stroke:none;" transform="matrix(1 0 0 1 339 1556)">
   <path d="M0.993654 0L3.63775 0L29.3281-67.1323L30.0303-67.1323L30.0303-70.459L28.1226-70.459ZM11.6885-24.4799L46.9815-24.4799L46.2315-26.7285L12.4385-26.7285ZM55.1196 0L57.7637 0L30.6382-70.459L29.4326-70.459L29.4326-67.1323Z"/>
  </g>
  <line id="Baseline-L" style="fill:none;stroke:#27AAE1;opacity:1;stroke-width:0.5;" x1="263" x2="3036" y1="1556" y2="1556"/>
  <line id="Capline-L" style="fill:none;stroke:#27AAE1;opacity:1;stroke-width:0.5;" x1="263" x2="3036" y1="1485.54" y2="1485.54"/>
  <line id="left-margin-Ultralight-S" style="fill:none;stroke:#00AEEF;stroke-width:0.5;opacity:1.0;" x1="515.011" x2="515.011" y1="600.785" y2="720.121"/>
  <line id="right-margin-Ultralight-S" style="fill:none;stroke:#00AEEF;stroke-width:0.5;opacity:1.0;" x1="604.411" x2="604.411" y1="600.785" y2="720.121"/>
  <line id="left-margin-Regular-S" style="fill:none;stroke:#00AEEF;stroke-width:0.5;opacity:1.0;" x1="1403.39" x2="1403.39" y1="600.785" y2="720.121"/>
  <line id="right-margin-Regular-S" style="fill:none;stroke:#00AEEF;stroke-width:0.5;opacity:1.0;" x1="1496.29" x2="1496.29" y1="600.785" y2="720.121"/>
  <line id="left-margin-Black-S" style="fill:none;stroke:#00AEEF;stroke-width:0.5;opacity:1.0;" x1="2884.9" x2="2884.9" y1="600.785" y2="720.121"/>
  <line id="right-margin-Black-S" style="fill:none;stroke:#00AEEF;stroke-width:0.5;opacity:1.0;" x1="2981.9" x2="2981.9" y1="600.785" y2="720.121"/>
 </g>
 <g id="Symbols">
  <g id="Black-S" transform="matrix(1 0 0 1 2884.9 696)">
   <path class="SFSymbolsPreviewWireframe" d="M88.21-77.1C86.21-78.3 83.81-77.7 82.61-76.9C75.61-72.5 69.21-70.6 61.41-70.6C54.01-70.6 47.21-72.6 40.21-76.9C38.11-78.2 35.91-77.8 34.61-77.1C33.31-76.4 31.71-74.7 31.71-72.3L31.71-62.2C19.91-60.8 8.81-53.4 8.31-53C7.21-52.2 6.01-50.7 6.01-48.5L6.01-27.6C6.01-4.1 24.61 5.4 34.21 7.1C34.41 7.1 35.41 7.3 35.71 7.3C35.91 7.3 36.41 7.3 36.61 7.2C43.11 6.1 53.71 1.4 60.01-8.3C60.71-8.1 61.01-8.1 61.01-8.1C61.61-8.1 61.81-8.1 62.21-8.2C62.41-8.2 63.11-8.4 63.31-8.4C73.01-10.2 91.01-19.4 91.01-41L91.01-72.2C91.01-73.8 90.51-75.7 88.21-77.1ZM35.61-3.9C31.91-4.8 17.01-9.5 17.01-27.5L17.01-45.3C20.61-47.4 28.61-51.2 35.61-51.2C42.81-51.3 50.71-47.4 54.21-45.3L54.21-27.5C54.31-9.5 39.41-4.8 35.61-3.9ZM80.01-41C80.01-26.7 68.91-21.9 64.71-20.3C65.01-22.9 65.31-24.1 65.31-27.5L65.31-28.4C66.61-27.8 67.01-27.4 67.21-27.2C68.11-26.1 69.81-25.6 71.11-25.6C72.21-25.6 73.81-26 75.01-27.2C77.01-29.2 77.31-32.7 75.01-35C72.21-37.8 68.61-39.1 65.31-39.9L65.31-48.4C65.31-50.6 64.01-52.2 62.91-52.9C62.41-53.2 53.41-59.4 42.71-61.5L42.71-63.1C56.71-57.5 69.71-58.9 80.01-63.1L80.01-41ZM25.81-30.7C27.31-30.7 28.71-31.3 29.71-32.4C30.21-32.9 30.61-33.5 30.91-34.2C31.21-34.9 31.41-35.6 31.41-36.3C31.41-37 31.31-37.8 30.91-38.4C30.61-39.1 30.21-39.7 29.71-40.2C28.21-41.7 25.71-42.2 23.71-41.4C23.01-41.1 22.41-40.7 21.91-40.2C21.41-39.7 21.01-39.1 20.71-38.4C20.41-37.7 20.21-36.9 20.21-36.3C20.21-35.6 20.41-34.9 20.71-34.2C21.01-33.5 21.41-32.9 21.91-32.4C23.01-31.4 24.41-30.7 25.81-30.7ZM41.51-40.2C40.51-39.2 39.81-37.7 39.81-36.3C39.81-35.6 39.91-34.8 40.31-34.2C40.61-33.5 40.91-32.9 41.51-32.4C42.01-31.8 42.61-31.4 43.31-31.2C44.01-30.9 44.71-30.8 45.41-30.8C46.11-30.8 46.81-30.9 47.51-31.2C48.21-31.5 48.81-31.9 49.31-32.4C49.81-32.9 50.21-33.5 50.51-34.2C50.81-34.8 50.91-35.6 50.91-36.3C50.91-37.8 50.41-39.2 49.31-40.2C47.31-42.3 43.61-42.3 41.51-40.2ZM67.21-47.8C67.71-47.2 68.31-46.8 69.01-46.6C69.71-46.3 70.41-46.2 71.11-46.2C72.51-46.2 73.91-46.8 75.01-47.9C75.51-48.4 75.91-49 76.21-49.7C76.51-50.4 76.71-51.1 76.71-51.8C76.71-52.6 76.61-53.3 76.31-53.9C76.01-54.6 75.61-55.1 75.11-55.7C73.01-57.8 69.41-57.8 67.31-55.7C66.31-54.7 65.71-53.3 65.71-51.8C65.71-51.1 65.81-50.4 66.11-49.7C66.31-48.9 66.71-48.3 67.21-47.8ZM21.41-20.8C21.41-13.9 28.01-8.1 35.61-8.1C43.31-8.1 49.81-14.3 49.81-20.7L49.91-26.3L21.41-26.3L21.41-20.8Z"/>
  </g>
  <g id="Regular-S" transform="matrix(1 0 0 1 1403.39 696)">
   <path class="SFSymbolsPreviewWireframe" d="M85.46-75.9C84.16-76.6 82.56-76.6 81.26-75.8C74.26-71.4 67.06-69.2 59.26-69.2C51.46-69.2 44.26-71.3 37.26-75.8C35.96-76.6 34.36-76.6 33.06-75.9C31.76-75.2 30.96-73.8 30.96-72.3L30.96-60.9C18.76-59.9 7.56-52.3 7.06-51.9C5.96-51.1 5.26-49.9 5.26-48.5L5.26-27.6C5.36-4.9 23.46 4.2 32.96 5.8C33.16 5.8 33.46 5.9 33.66 5.9C33.86 5.9 34.16 5.9 34.36 5.8C40.86 4.7 51.36 0.1 57.36-9.9C58.06-9.7 58.36-9.6 58.36-9.6C58.66-9.5 58.96-9.5 59.36-9.5C59.56-9.5 59.76-9.5 60.06-9.6C69.66-11.1 87.66-19.7 87.66-41L87.66-72.2C87.66-73.8 86.76-75.1 85.46-75.9ZM33.66-2.4C29.96-3.3 13.66-8.3 13.66-27.5L13.66-46.2C17.26-48.3 25.66-52.7 33.66-52.7C41.76-52.7 50.16-48.3 53.66-46.2L53.66-27.5C53.66-8.3 37.36-3.3 33.66-2.4ZM79.36-41C79.36-24.9 65.96-19.7 60.76-18.2C61.46-21 61.86-24.1 61.86-27.5L61.86-30.3C63.76-29.8 65.26-29 66.16-28.1C66.96-27.3 68.06-26.9 69.06-26.9C70.06-26.9 71.16-27.3 71.96-28.1C73.56-29.7 73.56-32.3 71.96-33.9C69.16-36.7 65.16-38.1 61.86-38.7L61.86-48.3C61.86-49.7 61.16-50.9 60.06-51.7C59.56-52 50.16-58.5 39.26-60.3L39.26-65.2C52.06-59.3 66.56-59.3 79.36-65.2L79.36-41ZM23.86-32.1C24.96-32.1 26.06-32.6 26.76-33.3C27.16-33.7 27.46-34.1 27.66-34.6C27.96-35.1 28.06-35.6 28.06-36.1C28.06-36.6 27.96-37.2 27.66-37.7C27.46-38.2 27.16-38.7 26.76-39C25.66-40.1 23.76-40.5 22.26-39.9C21.76-39.7 21.26-39.4 20.96-39C20.56-38.6 20.26-38.2 20.06-37.7C19.86-37.2 19.66-36.6 19.66-36.1C19.66-35.6 19.86-35.1 20.06-34.6C20.26-34.1 20.56-33.6 20.96-33.3C21.76-32.6 22.76-32.1 23.86-32.1ZM40.56-39.2C39.76-38.4 39.36-37.4 39.36-36.3C39.36-35.8 39.46-35.2 39.76-34.8C39.96-34.3 40.26-33.8 40.66-33.5C41.06-33.1 41.46-32.8 41.96-32.6C42.46-32.4 42.96-32.3 43.56-32.3C44.06-32.3 44.56-32.4 45.06-32.6C45.56-32.8 46.06-33.1 46.36-33.5C46.76-33.9 47.06-34.3 47.26-34.8C47.46-35.3 47.56-35.8 47.56-36.3C47.56-37.4 47.16-38.5 46.36-39.2C44.86-40.7 42.06-40.7 40.56-39.2ZM66.26-48.8C66.66-48.4 67.06-48.1 67.56-47.9C68.06-47.7 68.56-47.6 69.16-47.6C70.16-47.6 71.26-48.1 72.06-48.8C72.46-49.2 72.76-49.6 72.96-50.1C73.26-50.6 73.36-51.1 73.36-51.6C73.36-52.2 73.26-52.7 73.06-53.2C72.76-53.7 72.56-54.1 72.16-54.5C70.56-56 67.86-56 66.36-54.5C65.56-53.7 65.16-52.7 65.16-51.6C65.16-51.1 65.26-50.5 65.46-50.1C65.56-49.6 65.76-49.2 66.26-48.8ZM20.86-20.8C20.86-14.7 26.76-9.5 33.66-9.5C40.36-9.5 46.36-14.7 46.46-20.7L46.56-24.9L20.76-24.9L20.86-20.8Z"/>
  </g>
  <g id="Ultralight-S" transform="matrix(1 0 0 1 515.011 696)">
   <path class="SFSymbolsPreviewWireframe" d="M82.375-73.4C82.075-73.6 81.575-73.7 81.075-73.4C74.375-69 66.275-66.4 57.575-66.4C48.475-66.4 41.075-69 34.075-73.4C33.575-73.7 33.175-73.6 32.775-73.4C32.375-73.2 32.075-72.7 32.075-72.3L32.075-58.3C19.575-58 7.475-49.9 6.975-49.5C6.575-49.2 6.375-48.8 6.375-48.4L6.375-27.5C6.475-7.4 22.175 1.4 31.675 3C31.875 3 31.675 3 31.875 3C32.075 3 31.975 3 32.175 3C38.675 1.9 47.575-2.4 53.375-11.9C54.075-11.7 54.775-11.8 54.775-11.8C55.075-11.8 55.775-11.9 56.175-12C56.375-12 57.475-12.3 57.675-12.4C67.275-13.9 82.875-22.1 82.875-41L82.875-72.2C83.075-72.8 82.775-73.2 82.375-73.4ZM31.875 0.5C23.875-1.4 8.975-8.3 8.975-27.5L8.975-47.8C12.575-49.9 22.075-55.5 31.875-55.5C41.975-55.5 51.175-49.9 54.775-47.8L54.775-27.5C54.775-8 39.275-1.1 31.875 0.5ZM80.475-41C80.475-19.8 60.275-15.6 55.075-14.2C55.775-17 57.375-24.2 57.375-27.6L57.375-34.2C59.275-33.7 64.275-32.7 66.475-30.3C66.775-30 66.975-29.9 67.375-29.9C67.675-29.9 67.975-30 68.275-30.3C68.875-30.8 68.675-31.6 68.275-32.1C65.575-35 60.675-36 57.375-36.5L57.375-48.5C57.375-48.9 57.175-49.4 56.875-49.5C56.375-49.8 45.975-56.8 34.775-58L34.775-69.7C53.175-60.4 67.775-63.1 80.575-69.7L80.575-41ZM22.175-34.7C22.575-34.7 22.975-34.9 23.275-35.2C23.375-35.3 23.575-35.5 23.575-35.7C23.675-35.9 23.675-36.1 23.675-36.3C23.675-36.5 23.675-36.7 23.575-36.9C23.475-37.1 23.375-37.3 23.275-37.4C22.875-37.8 22.175-38 21.575-37.7C21.375-37.6 21.175-37.5 21.075-37.4C20.975-37.3 20.775-37.1 20.775-36.9C20.675-36.7 20.675-36.5 20.675-36.3C20.675-36.1 20.775-35.9 20.775-35.7C20.875-35.5 20.975-35.3 21.075-35.2C21.375-34.9 21.675-34.7 22.175-34.7ZM40.575-37.4C40.275-37.1 40.075-36.7 40.075-36.3C40.075-36.1 40.075-35.9 40.175-35.7C40.275-35.5 40.375-35.3 40.475-35.2C40.575-35 40.775-34.9 40.975-34.8C41.175-34.7 41.375-34.7 41.575-34.7C41.775-34.7 41.975-34.7 42.175-34.8C42.375-34.9 42.575-35 42.675-35.2C42.775-35.3 42.975-35.5 42.975-35.7C43.075-35.9 43.075-36.1 43.075-36.3C43.075-36.7 42.875-37.1 42.675-37.4C42.175-38 41.175-38 40.575-37.4ZM66.275-50.6C66.375-50.4 66.575-50.3 66.775-50.2C66.975-50.1 67.175-50.1 67.375-50.1C67.775-50.1 68.175-50.3 68.475-50.6C68.575-50.7 68.775-50.9 68.775-51.1C68.875-51.3 68.875-51.5 68.875-51.7C68.875-51.9 68.875-52.1 68.775-52.3C68.675-52.5 68.575-52.7 68.375-52.8C67.775-53.4 66.775-53.4 66.175-52.8C65.875-52.5 65.675-52.1 65.675-51.7C65.675-51.5 65.675-51.3 65.775-51.1C66.075-50.9 66.075-50.7 66.275-50.6ZM21.875-20.8C21.875-16.1 26.875-12.3 31.875-12.3C36.975-12.3 41.875-16.3 41.875-20.7L41.875-22L21.875-22L21.875-20.8Z"/>
  </g>
 </g>
</svg>
