<svg width="160" height="161" viewBox="0 0 160 161" fill="none" xmlns="http://www.w3.org/2000/svg">
<rect y="46" width="160" height="69" rx="12" fill="#222F3B"/>
<path d="M39.2352 43.3697L50.0888 82.9795C50.3214 83.8304 51.1435 84.381 52.0196 84.2684L126.214 75.2461C128.933 74.5536 129.71 72.3512 129.34 71.2876L86.6565 37.5593C86.395 36.8084 85.6683 36.3246 84.8794 36.3746L41.3735 37.6594C40.2566 37.7303 38.0145 39.3445 39.231 43.3739L39.2352 43.3697Z" fill="#00144A"/>
<path d="M39.804 39.8868L51.1932 81.4445C51.4257 82.2954 52.2479 82.846 53.124 82.7334L127.899 73.636C129.012 73.49 129.71 72.3554 129.34 71.2918L114.957 34.1764C114.696 33.4256 113.969 32.9418 113.18 32.9918L41.3942 37.6469C40.2773 37.7178 39.505 38.8023 39.804 39.8868Z" fill="#D5DADD"/>
<path d="M114.923 34.128C114.662 33.3856 113.939 32.9072 113.154 32.9567L41.3533 37.6551C40.2414 37.7252 39.4726 38.7975 39.7702 39.8699L41.3574 45.6274L116.915 39.2422L114.923 34.128Z" fill="#4D82B8"/>
<path d="M55.7773 49.0884C56.1788 49.0884 56.4927 49.3252 56.5493 49.5105L65.1291 76.4592C65.1497 76.5261 65.1445 76.5827 65.1085 76.6342C65.0416 76.732 64.9026 76.804 64.7225 76.8297L56.7707 77.8385C56.7295 77.8385 56.6883 77.8437 56.6523 77.8437C56.2457 77.8437 55.906 77.6018 55.8391 77.365L47.774 50.0046C47.7637 49.9737 47.774 49.9582 47.7843 49.9428C47.8306 49.8759 47.9696 49.7987 48.1703 49.7781L55.695 49.0936C55.7259 49.0936 55.7516 49.0936 55.7825 49.0936M55.7773 48.3164C55.7259 48.3164 55.6744 48.3164 55.6229 48.3216L48.0983 49.0061C47.3417 49.073 46.8579 49.6134 47.0329 50.2104L55.0979 77.576C55.2678 78.1782 55.9369 78.6105 56.6523 78.6105C56.7243 78.6105 56.7964 78.6105 56.8685 78.5951L64.8203 77.5863C65.5923 77.4937 66.0658 76.8761 65.8702 76.2276L57.2853 49.2737C57.1206 48.723 56.467 48.3164 55.7773 48.3164Z" fill="#00144A"/>
<path d="M70.5285 47.6236C70.8836 47.6236 71.2182 47.8398 71.2851 48.0302L80.117 74.6495C80.1479 74.7421 80.117 74.7885 80.1119 74.8039C80.0758 74.8605 80.0038 74.9017 79.9111 74.9326L79.8031 74.948L72.2269 75.9002C72.1909 75.9002 72.1549 75.9053 72.1189 75.9053C71.7328 75.9053 71.3983 75.6634 71.3262 75.437L62.8597 48.4368C62.8494 48.4059 62.8546 48.4008 62.8597 48.3956C62.8855 48.3596 62.9781 48.2875 63.1686 48.2721L70.4513 47.6339C70.4513 47.6339 70.5028 47.6339 70.5285 47.6339M70.5285 46.8516C70.4822 46.8516 70.4307 46.8516 70.3844 46.8567L63.1016 47.4949C62.3811 47.5567 61.9385 48.0817 62.1237 48.6684L70.5851 75.6634C70.7704 76.2502 71.4292 76.6722 72.1137 76.6722C72.1806 76.6722 72.2475 76.6722 72.3196 76.6619L79.8957 75.7097V75.72C80.6317 75.6274 81.0589 75.0355 80.8427 74.4024L72.0159 47.7934C71.8358 47.2582 71.1924 46.8567 70.5285 46.8567V46.8516Z" fill="#00144A"/>
<path d="M85.7629 46.1431C86.118 46.1431 86.4525 46.3593 86.5194 46.5549L95.3514 72.8602C95.3823 72.958 95.3514 72.9992 95.3462 73.0146C95.3102 73.0712 95.2381 73.1124 95.1455 73.1433L95.0374 73.1587L87.4613 74.1109C87.4253 74.1109 87.3893 74.116 87.3532 74.116C86.9672 74.116 86.6327 73.8741 86.5606 73.6425L78.0941 46.9512C78.0838 46.9203 78.089 46.9151 78.0941 46.91C78.1198 46.874 78.2125 46.8019 78.4029 46.7865L85.6857 46.1483C85.6857 46.1483 85.7371 46.1483 85.7629 46.1483M85.7629 45.3711C85.7165 45.3711 85.6651 45.3711 85.6188 45.3762L78.336 46.0144C77.6155 46.0762 77.1728 46.6012 77.3581 47.1879L85.8195 73.8741C86.0048 74.4609 86.6636 74.8829 87.3481 74.8829C87.415 74.8829 87.4819 74.8829 87.554 74.8726L95.1301 73.9205V73.9308C95.8661 73.8381 96.2932 73.2462 96.0771 72.6132L87.2503 46.3078C87.0702 45.7725 86.4268 45.3711 85.7629 45.3711Z" fill="#00144A"/>
<path d="M99.8344 45.1744C100.174 45.1744 100.509 45.3905 100.576 45.5707L109.557 71.2327C109.572 71.2738 109.588 71.3356 109.562 71.3716C109.541 71.4077 109.474 71.454 109.356 71.4746H109.32L102.094 72.3856C102.063 72.3856 102.032 72.3907 102.001 72.3907C101.631 72.3907 101.301 72.1488 101.224 71.9326L92.5722 45.9052L92.5619 45.8743C92.5722 45.8589 92.6391 45.8023 92.8038 45.7868L99.7675 45.1744C99.7675 45.1744 99.8087 45.1744 99.8344 45.1744ZM99.8344 44.4023C99.7881 44.4023 99.7469 44.4023 99.7006 44.4075L92.7369 45.02C92.0421 45.0766 91.6458 45.5913 91.8414 46.1574L100.488 72.1745C100.689 72.7458 101.337 73.1627 101.996 73.1627C102.058 73.1627 102.125 73.1627 102.186 73.1524L109.413 72.2466C110.118 72.1591 110.499 71.5878 110.272 70.9702L101.306 45.3185C101.111 44.7935 100.473 44.4075 99.8344 44.4075V44.4023Z" fill="#00144A"/>
<path d="M112.696 43.8384C113.02 43.8384 113.35 44.0546 113.427 44.245L123.448 69.2225C123.473 69.2791 123.473 69.3203 123.463 69.3357C123.453 69.3563 123.401 69.3924 123.293 69.4078L122.876 69.4644L116.381 70.2776C116.355 70.2776 116.325 70.2776 116.299 70.2776C115.98 70.2776 115.63 70.0666 115.532 69.8092L105.815 44.4921C105.815 44.4921 105.815 44.4766 105.81 44.4715C105.835 44.456 105.887 44.4303 105.974 44.4252L112.639 43.8384C112.639 43.8384 112.675 43.8384 112.696 43.8384ZM112.696 43.0664C112.655 43.0664 112.614 43.0664 112.573 43.0716L105.902 43.6583C105.238 43.7201 104.873 44.2141 105.089 44.77L114.806 70.0923C115.022 70.6482 115.661 71.0548 116.294 71.0548C116.355 71.0548 116.412 71.0548 116.474 71.0445L123.381 70.1798V70.1695C124.055 70.0872 124.405 69.5262 124.163 68.9291L114.147 43.9568C113.942 43.4473 113.309 43.0664 112.696 43.0664Z" fill="#00144A"/>
<path d="M96.4035 108.04L73.7036 101.054C77.3971 98.4098 75.129 95.3587 68.1963 93.498C60.2633 91.3662 47.7061 91.2417 38.901 93.3478C28.8794 95.747 26.7102 100.252 35.8561 103.245C45.3537 106.351 61.2673 106.025 70.0724 102.846L91.1928 110.157L93.7614 109.719C94.2349 109.147 94.4943 109.768 95.2345 109.321C96.6049 108.384 97.3231 107.768 97.0959 107.655H96.4035V108.04Z" fill="#101619"/>
<path d="M99.4858 52.4422C100.993 58.7472 98.5096 65.2402 95.408 69.8759C92.6172 74.0413 87.9097 76.9763 81.7457 77.713C68.1504 79.3353 53.5986 69.6525 49.9301 56.5332C46.2616 43.4139 54.3189 30.9255 67.2293 30.3299C79.632 29.7577 95.3253 40.8237 99.4858 52.4422Z" fill="#8D2A00"/>
<path d="M98.5766 49.2058C102.902 61.2828 96.3763 72.6388 83.3556 74.1944C69.7603 75.8167 55.2085 66.134 51.54 53.0146C47.8716 39.8953 56.1374 30.1068 69.0518 29.5112C81.4545 28.9391 94.42 37.5912 98.5805 49.2058H98.5766Z" fill="#C35500"/>
<path d="M95.6756 49.4409C99.3874 59.9466 93.6328 69.743 82.344 71.0322C70.6222 72.3684 58.0975 64.0336 54.8817 52.7482C51.78 41.8625 58.7273 32.842 69.9373 32.2738C80.7617 31.7291 92.0898 39.288 95.6795 49.4409H95.6756Z" fill="#D0C1CB"/>
<path d="M98.4188 108.114L91.0032 110.081L79.2224 72.6002L86.1697 71.793L98.4188 108.114Z" fill="#C35500"/>
<path d="M54.4922 44.2877L69.8234 32.2812C61.7701 32.7319 55.9407 37.5517 54.4922 44.2877Z" fill="#D0C1CB"/>
<path d="M82.3441 71.0328C92.3025 69.8964 97.9508 62.1416 96.5968 53.1172L72.0669 69.8729C75.3929 70.9779 78.9039 71.4247 82.3441 71.0328Z" fill="#D5DADD"/>
<path d="M83.5915 35.6679L83.5837 35.6641L83.5915 35.6679Z" fill="#D0C1CB"/>
<path d="M69.9333 32.2734C70.2522 32.2578 70.5671 32.25 70.8859 32.2461C70.5671 32.2461 70.2522 32.2578 69.9333 32.2734Z" fill="#D0C1CB"/>
<path d="M80.2341 34.0742C80.3325 34.1134 80.4309 34.1526 80.5254 34.1918C80.427 34.1526 80.3325 34.1134 80.2341 34.0742Z" fill="#D0C1CB"/>
<path d="M81.1277 34.4414C81.1946 34.4728 81.2615 34.5041 81.3284 34.5315C81.2615 34.5002 81.1946 34.4688 81.1277 34.4414Z" fill="#D0C1CB"/>
<path d="M79.3289 33.7305C79.4391 33.7697 79.5532 33.8088 79.6634 33.8519C79.5532 33.8088 79.443 33.7697 79.3289 33.7305Z" fill="#D0C1CB"/>
<path d="M73.2041 32.3516C73.3852 32.3671 73.5662 32.3866 73.7512 32.41C73.5702 32.3905 73.3891 32.371 73.2041 32.3516Z" fill="#D0C1CB"/>
<path d="M72.2241 32.2812C72.4131 32.2929 72.6059 32.3007 72.7949 32.3163C72.6059 32.3007 72.4131 32.289 72.2241 32.2812Z" fill="#D0C1CB"/>
<path d="M74.1687 32.4609C74.3458 32.4843 74.5269 32.5116 74.704 32.5388C74.5269 32.5116 74.3498 32.4843 74.1687 32.4609Z" fill="#D0C1CB"/>
<path d="M71.2048 32.25C71.4174 32.25 71.626 32.2539 71.8385 32.2617C71.626 32.2539 71.4134 32.25 71.2048 32.25Z" fill="#D0C1CB"/>
<path d="M96.7698 54.7483C96.1873 43.0789 84.926 33.7449 73.7475 32.3538C69.8586 31.9972 63.0216 31.9972 58.0581 37.3695C57.4992 37.973 56.9757 38.6783 56.4876 39.4229C56.4049 39.5483 56.3577 39.6345 56.2829 39.7559C56.2711 39.7716 56.2672 39.7912 56.2554 39.8108C62.1399 32.7535 71.5472 32.3028 79.8603 35.5944C88.4646 38.9997 95.896 46.4175 96.7698 54.7562V54.7483Z" fill="#8D2A00"/>
<path d="M67.9811 33.7237L54.492 44.2881C53.937 46.8744 54.0236 49.7388 54.8817 52.7483C54.9526 52.9991 55.0313 53.2459 55.1139 53.4928L81.2143 36.1689C76.9397 34.2606 72.3108 33.3123 67.9811 33.7237Z" fill="#D5DADD"/>
<path d="M76.3965 74.0821L80.4389 76.4685C80.4389 76.4685 79.5965 74.3878 82.3676 74.1017V74.0586C81.2576 74.2271 79.0219 74.4505 76.3965 74.0782V74.0821Z" fill="#8D2A00"/>
<path d="M85.304 73.6853C85.8668 73.7088 86.8509 74.1242 87.3192 75.3193L87.9884 73.1484C87.9884 73.1484 87.3704 73.4462 85.304 73.6814V73.6853Z" fill="#8D2A00"/>
<path d="M91.0035 110.083L79.9587 74.9841L80.7027 74.2395C80.7027 74.2395 82.1157 74.1573 83.7217 73.8359C83.7217 73.8359 83.1667 74.459 83.3281 75.3211C83.9736 78.7067 94.4751 109.424 94.4751 109.424L90.9995 110.083H91.0035Z" fill="#8D2A00"/>
<path d="M98.419 108.115C98.419 108.523 96.506 109.201 93.3768 110.004C91.8299 110.314 91.0703 110.274 91.0033 110.082C90.9561 109.945 91.8024 109.416 93.3375 108.922C95.6361 108.205 98.1592 107.802 98.419 108.115Z" fill="#8D2A00"/>
<path d="M77.9749 52.037C79.014 50.9908 79.9823 49.9288 79.3801 48.0832C78.7109 46.0338 76.7586 45.0228 74.4796 45.1796C72.1297 45.3402 70.9843 46.5158 70.3388 48.0088L68.1582 46.555C68.9376 44.823 70.5041 43.3535 73.7868 43.138C77.7072 42.8794 80.7656 44.6662 81.7968 47.7697C82.651 50.352 81.5095 51.7745 80.2067 53.2243C79.0101 54.541 78.396 55.2346 78.8093 56.5238L78.8959 56.7902L76.5028 57.0058L76.4162 56.7393C75.6722 54.396 76.8295 53.1852 77.9749 52.0409V52.037ZM78.3213 58.7573C79.3092 58.6672 80.2932 59.3216 80.6003 60.2738C80.9073 61.226 80.3916 62.0372 79.3997 62.1351C78.3921 62.2331 77.4159 61.5865 77.1089 60.6069C76.8019 59.6273 77.3175 58.8475 78.3213 58.7534V58.7573Z" fill="#00144A"/>
</svg>
