<svg width="128" height="130" viewBox="0 0 128 130" fill="none" xmlns="http://www.w3.org/2000/svg">
<path d="M19.5189 48.2898L19.5633 48.3466C19.7534 48.6995 20.1606 49.3486 20.864 50.0223L22.0362 51.5327C22.5002 52.552 22.942 53.5589 23.3048 54.398C23.8551 55.669 24.1143 58.4554 24.9682 60.7037C24.9805 60.7383 24.9978 60.7777 25.0151 60.8197C25.0768 60.9554 25.1632 61.1282 25.2693 61.3306C25.3014 61.3898 25.3335 61.4515 25.368 61.5157C26.3231 63.2951 28.4456 66.9995 28.0778 70.3461L27.8853 71.1161L25.1706 82.0221C24.1316 81.6272 22.979 82.1701 22.6162 83.2166L6.9668 128.571H31.3677C35.0696 115.591 39.7069 98.7253 41.4444 92.3851C41.4863 92.2345 41.5258 92.0914 41.5628 91.9532C41.5653 91.9433 41.5678 91.9334 41.5703 91.9236C41.9503 90.539 41.3975 89.0657 40.1981 88.2808C40.0599 88.1895 39.9142 88.0982 39.7637 88.0069C39.0801 87.5972 38.6926 86.8346 38.7592 86.0399C38.7592 86.0152 38.7642 85.9906 38.7666 85.9659C38.9764 83.5399 42.3847 83.1549 43.1127 85.4772C43.1201 85.4994 43.1251 85.5192 43.1325 85.5414C43.1547 85.6105 43.1744 85.6771 43.1942 85.7438C43.2337 85.877 43.2756 86.0103 43.3126 86.1411C43.7199 87.5405 43.9913 88.7843 44.1616 89.7024C43.7445 89.9122 43.5348 90.391 43.6656 90.8401L44.0925 92.3086C44.5812 93.9942 44.554 95.7514 44.4331 97.5012C44.4331 97.5283 44.4331 97.553 44.4331 97.5777C44.5022 98.1478 45.0378 99.7816 45.8843 102.116C45.9015 102.161 45.9164 102.205 45.9336 102.252C46.0422 102.548 46.1557 102.857 46.2717 103.175C46.289 103.219 46.3063 103.266 46.3211 103.311C46.3951 103.511 46.4716 103.718 46.5506 103.925C46.5679 103.97 46.5852 104.017 46.6025 104.061C46.9233 104.917 47.2713 105.838 47.6439 106.808C47.6612 106.852 47.6785 106.899 47.6958 106.946C47.7895 107.193 47.8858 107.445 47.9845 107.699C50.334 113.8 53.4856 121.658 56.2917 128.573H80.4408C74.4511 115.92 66.482 99.2954 62.7701 91.3831C62.7331 91.3016 62.6961 91.2227 62.6591 91.1437C62.6369 91.0943 62.6122 91.0425 62.59 90.9956C62.474 90.7488 62.3629 90.5119 62.2568 90.2824C62.2371 90.2404 62.2173 90.2009 62.2 90.159C62.168 90.0874 62.1334 90.0183 62.1013 89.9492C62.0791 89.8998 62.0569 89.8529 62.0347 89.8061C62.0051 89.7419 61.9755 89.6777 61.9458 89.616C61.9286 89.5765 61.9113 89.5395 61.894 89.5025C61.8619 89.4334 61.8323 89.3667 61.8002 89.3026C61.783 89.2656 61.7657 89.2285 61.7509 89.194C61.7237 89.1323 61.6966 89.0755 61.6694 89.0163C61.6522 88.9793 61.6349 88.9423 61.6176 88.9052C61.588 88.8435 61.5608 88.7818 61.5337 88.7226C61.5214 88.6955 61.5065 88.6658 61.4942 88.6387C61.4547 88.5523 61.4177 88.4709 61.3807 88.3894C61.3807 88.3894 61.3807 88.3894 61.3807 88.387C61.3437 88.308 61.3091 88.229 61.2746 88.155C61.2647 88.1328 61.2548 88.113 61.2449 88.0908C61.2203 88.0365 61.198 87.9847 61.1734 87.9353C61.1635 87.9156 61.1561 87.8958 61.1462 87.8736C61.124 87.8267 61.1043 87.7798 61.0845 87.7354C61.0746 87.7157 61.0672 87.6959 61.0574 87.6762C61.0376 87.6318 61.0179 87.5898 61.0006 87.5479C60.9932 87.533 60.9858 87.5158 60.9809 87.501C60.9611 87.459 60.9438 87.4171 60.9266 87.3776C60.9216 87.3652 60.9167 87.3553 60.9118 87.343C60.892 87.2986 60.8747 87.2591 60.8575 87.2196C60.8575 87.2147 60.8525 87.2097 60.8525 87.2073C60.8328 87.1628 60.818 87.1234 60.8007 87.0863C60.4577 87.2616 60.0381 87.1258 59.8629 86.7828L57.6516 82.4811C57.4887 82.1652 57.0889 82.0566 56.7878 82.2516L56.7779 82.259L52.4639 71.3703C51.5063 67.4758 54.0138 62.5127 54.2877 61.338C54.8405 58.9786 54.7344 56.1799 55.1145 54.8373C55.3662 53.9489 55.6723 52.8827 55.998 51.8017L58.0687 48.196C58.3426 47.7197 58.2513 47.12 57.9058 46.7621C57.9033 46.7597 57.9008 46.7572 57.8984 46.7522C57.8712 46.7251 57.8416 46.698 57.812 46.6733C57.8046 46.6683 57.7996 46.6634 57.7922 46.6585C57.7651 46.6363 57.733 46.6165 57.7034 46.5992C57.6935 46.5943 57.6861 46.5894 57.6787 46.582C57.6392 46.5597 57.5997 46.54 57.5578 46.5227C57.0395 46.3204 56.346 46.2142 55.4946 46.4586C55.4106 46.4832 55.3218 46.5104 55.2354 46.5425C55.0972 46.5918 54.9541 46.6535 54.806 46.7226C54.4876 46.8732 54.152 47.0706 53.8015 47.3298C53.7966 47.3322 53.7941 47.3372 53.7892 47.3396C53.7003 47.4063 53.614 47.4729 53.5301 47.5445C53.5004 47.5716 53.4708 47.5988 53.4387 47.6259C53.382 47.6777 53.3227 47.7271 53.2684 47.7789C53.2339 47.811 53.2018 47.8456 53.1697 47.8776C53.1204 47.927 53.0685 47.9788 53.0192 48.0307C52.9846 48.0677 52.9525 48.1047 52.9205 48.1417C52.8736 48.1935 52.8291 48.2454 52.7823 48.2972C52.7502 48.3367 52.7181 48.3762 52.6885 48.4157C52.6441 48.47 52.6021 48.5243 52.5601 48.5785C52.5281 48.6205 52.4984 48.6625 52.4688 48.7044C52.4269 48.7612 52.3874 48.8179 52.3479 48.8747C52.3183 48.9167 52.2911 48.9611 52.2615 49.003C52.222 49.0623 52.1825 49.1215 52.1455 49.1807C52.1184 49.2252 52.0912 49.2696 52.0641 49.3115C52.0271 49.3732 51.99 49.4325 51.953 49.4966C51.9283 49.5411 51.9037 49.5855 51.879 49.6299C51.8444 49.6941 51.8074 49.7558 51.7753 49.8199C51.7506 49.8644 51.7284 49.9088 51.7062 49.9532C51.6717 50.0174 51.6396 50.084 51.6075 50.1482C51.5853 50.1926 51.5655 50.237 51.5433 50.2814C51.5112 50.3481 51.4792 50.4147 51.4496 50.4814C51.4298 50.5258 51.4101 50.5702 51.3903 50.6146C51.3607 50.6813 51.3311 50.7504 51.3015 50.817C51.2817 50.8614 51.2645 50.9058 51.2472 50.9478C51.2176 51.0169 51.1904 51.0835 51.1633 51.1526C51.146 51.1946 52.9007 40.1282 52.5379 38.4031C52.227 36.9198 51.1336 36.5817 50.4772 36.9026C50.4253 36.9272 50.376 36.9569 50.3291 36.9914C50.3291 36.9914 50.3242 36.9939 50.3217 36.9963C50.2748 37.0309 50.2304 37.0679 50.1934 37.1123C50.1761 37.1321 50.1563 37.1592 50.1341 37.1938C50.1341 37.1987 50.1292 37.2012 50.1267 37.2037C50.107 37.2357 50.0848 37.2752 50.0625 37.3197C50.0576 37.3271 50.0551 37.3345 50.0502 37.3419C50.028 37.3863 50.0033 37.4381 49.9786 37.4924C49.9737 37.5023 49.9688 37.5146 49.9638 37.5245C49.9392 37.5813 49.912 37.643 49.8849 37.7096C49.8799 37.7219 49.875 37.7343 49.87 37.7466C49.8429 37.8157 49.8133 37.8898 49.7812 37.9687C49.7763 37.9786 49.7738 37.9885 49.7689 37.9983C49.7392 38.0798 49.7072 38.1637 49.6726 38.255C49.6726 38.2599 49.6677 38.2649 49.6677 38.2698C49.6331 38.3611 49.5986 38.4599 49.564 38.561C49.5591 38.5759 49.5541 38.5907 49.5492 38.6055C49.5147 38.7042 49.4801 38.8054 49.4431 38.9115C49.4357 38.9312 49.4283 38.951 49.4233 38.9732C49.3888 39.0793 49.3518 39.1879 49.3148 39.299C49.3074 39.3212 49.2999 39.3434 49.2925 39.3681C49.2555 39.4816 49.216 39.6001 49.179 39.7185C49.1716 39.7407 49.1642 39.7605 49.1593 39.7827C49.1198 39.9061 49.0778 40.0344 49.0383 40.1628C49.0334 40.1776 49.0285 40.1948 49.0235 40.2096C48.9816 40.3405 48.9396 40.4737 48.8977 40.6119C48.8952 40.6218 48.8903 40.6317 48.8878 40.6415C48.8434 40.7822 48.799 40.9254 48.7545 41.071C48.7471 41.0907 48.7422 41.1129 48.7348 41.1327C48.6928 41.2733 48.6484 41.414 48.6064 41.5572C48.5966 41.5868 48.5892 41.6164 48.5793 41.646C48.5373 41.7892 48.4929 41.9323 48.4485 42.0779C48.4411 42.1051 48.4312 42.1322 48.4238 42.1594C48.3794 42.3099 48.335 42.4604 48.2881 42.6159C48.2831 42.6357 48.2757 42.6579 48.2708 42.6776C48.2239 42.838 48.177 42.9985 48.1277 43.1613C48.1252 43.1712 48.1227 43.1811 48.1203 43.191C48.0709 43.3563 48.024 43.5241 47.9746 43.692C47.9746 43.6994 47.9697 43.7068 47.9672 43.7166C47.9179 43.8845 47.871 44.0523 47.8216 44.2201C47.8167 44.2399 47.8118 44.2571 47.8044 44.2769C47.7575 44.4422 47.7081 44.6076 47.6612 44.7754C47.6563 44.7951 47.6513 44.8149 47.6439 44.8322C47.597 45 47.5477 45.1678 47.5008 45.3356C47.4959 45.3504 47.4909 45.3677 47.4885 45.3825C47.4391 45.5553 47.3897 45.728 47.3428 45.9008C47.3428 45.9057 47.3404 45.9107 47.3379 45.9156C47.0689 46.8658 46.8098 47.7987 46.5728 48.6575C46.4667 49.0425 45.9361 49.0672 45.7905 48.697L45.7855 48.6847C45.9065 47.7888 46.0669 46.7498 46.2742 45.5726C46.6666 43.3613 47.2318 40.6564 48.0512 37.4554C48.4041 36.0758 48.7249 34.6814 48.9446 33.2672C48.9643 33.1463 48.9816 33.0229 49.0013 32.897C49.0137 32.8156 49.026 32.7317 49.0383 32.6478C49.0457 32.6058 49.0507 32.5614 49.0556 32.5194C49.0704 32.4158 49.0828 32.3097 49.0976 32.206C49.0976 32.1887 49.1025 32.1739 49.1025 32.1567C49.2086 31.2953 49.2555 30.3995 49.0926 29.5949C48.9742 29.0125 48.678 28.4473 48.1992 28.1684C47.8784 27.9808 47.5057 27.9364 47.1429 27.8969H47.138C47.0195 27.8846 46.8961 27.8698 46.7801 27.9043C46.7481 27.9142 46.7184 27.9241 46.6913 27.9389C46.6888 27.9389 46.6864 27.9438 46.6814 27.9438C46.6 27.9858 46.5259 28.0499 46.4642 28.1264C46.4174 28.1807 46.3779 28.2424 46.3384 28.3041C46.3384 28.3041 45.6251 29.4197 45.4055 30.4019C45.1463 31.1176 45.403 30.1477 45.6523 28.7138C45.6671 28.625 45.6819 28.5312 45.6967 28.4399C45.7016 28.4103 45.7066 28.3807 45.709 28.351C45.7189 28.2869 45.7288 28.2202 45.7362 28.1536C45.7411 28.1166 45.7461 28.0796 45.751 28.0425C45.7609 27.9562 45.7707 27.8698 45.7806 27.7809C45.7856 27.7266 45.7905 27.6699 45.7954 27.6131C45.7979 27.5761 45.8004 27.5366 45.8028 27.4996C45.8078 27.4354 45.8102 27.3688 45.8152 27.3046C45.8152 27.2849 45.8152 27.2651 45.8152 27.2454C45.8226 27.0233 45.8275 26.8011 45.8102 26.5815V26.542C45.7707 25.967 45.6498 25.4166 45.3907 24.9625C45.1587 24.5553 44.8206 24.2246 44.3294 24.0271C44.1271 23.9457 43.9099 23.8988 43.6976 23.9334C43.0387 24.0444 42.5303 24.8218 42.1453 25.6511C42.0318 25.8485 41.9232 26.0805 41.8516 26.3421C41.7159 26.6876 41.6023 27.0109 41.5086 27.2676C41.5061 27.275 41.5012 27.2849 41.4987 27.2947C41.4 27.5613 41.3037 27.8328 41.2124 28.1018C41.1334 28.3288 41.0594 28.5559 40.9853 28.7829C40.9853 28.7829 40.9853 28.7854 40.9853 28.7879C41.0002 28.7089 41.015 28.6324 41.0273 28.5534C41.0322 28.5189 41.0396 28.4843 41.0446 28.4522C41.0569 28.3831 41.0668 28.314 41.0742 28.2474C41.0791 28.2079 41.0841 28.1709 41.089 28.1314C41.0964 28.0672 41.1038 28.0055 41.1087 27.9438C41.1112 27.9043 41.1137 27.8673 41.1161 27.8303C41.1211 27.7711 41.1236 27.7143 41.126 27.6575C41.126 27.6205 41.126 27.586 41.126 27.5489C41.126 27.4576 41.126 27.3688 41.1161 27.2849C41.1137 27.2429 41.1112 27.1985 41.1063 27.159C41.1013 27.1195 41.0939 27.08 41.089 27.043C41.0816 27.0035 41.0742 26.964 41.0668 26.9245C41.0594 26.89 41.0495 26.8554 41.0396 26.8209C41.0273 26.7814 41.015 26.7444 41.0026 26.7098C40.9903 26.6802 40.9804 26.6506 40.9681 26.621C40.9483 26.579 40.9286 26.5395 40.9064 26.5025C40.894 26.4828 40.8842 26.4606 40.8718 26.4433C40.8373 26.389 40.7953 26.3396 40.7509 26.2927C40.7361 26.2779 40.7188 26.2631 40.7015 26.2483C40.6694 26.2162 40.6349 26.1866 40.5979 26.1595C40.5781 26.1447 40.5534 26.1299 40.5337 26.1175C40.4967 26.0928 40.4572 26.0706 40.4152 26.0509C40.3906 26.0385 40.3659 26.0262 40.3412 26.0163C40.2943 25.9966 40.245 25.9793 40.1931 25.9645C40.1684 25.9571 40.1462 25.9497 40.1216 25.9423C40.0426 25.9225 39.9611 25.9053 39.8723 25.8954C39.8353 25.8905 39.7983 25.8905 39.7612 25.888C38.1324 25.7745 37.197 27.6748 36.5578 29.4468C36.4418 29.3802 36.3233 29.3234 36.2024 29.2765C36.1999 29.2765 36.195 29.2765 36.1925 29.2741C36.121 29.2469 36.0494 29.2272 35.9754 29.2099C35.963 29.2074 35.9531 29.205 35.9408 29.2025C35.8717 29.1877 35.8026 29.1753 35.731 29.1679C35.7212 29.1679 35.7113 29.1655 35.7014 29.1655C35.5385 29.1507 35.3682 29.1581 35.1955 29.1926C35.1338 29.205 35.0721 29.2173 35.0079 29.237C33.7739 29.5949 33.7418 30.6759 34.2848 32.2776C34.1071 31.9074 33.922 31.5421 33.7344 31.1793C33.7344 31.1793 33.7344 31.1793 33.7344 31.1769C33.6851 31.0806 33.6357 30.9868 33.5864 30.8906C33.5864 30.8881 33.5839 30.8832 33.5814 30.8807C33.078 29.9379 32.113 27.9117 30.9678 27.9019C30.7531 27.9019 30.5433 27.9808 30.3533 28.0944C28.717 29.0618 29.1637 31.3792 29.6573 32.9464C30.3508 35.1528 29.7487 33.788 29.0453 32.8082C28.8849 32.5836 28.6899 32.3516 28.4332 32.322C28.3148 32.3072 28.1938 32.3393 28.0778 32.3714C27.7225 32.4676 27.3572 32.5713 27.0635 32.8082C26.6267 33.1611 26.407 33.7682 26.3651 34.363C26.2812 35.5501 26.6588 36.8532 26.9895 37.9737C27.3917 39.3385 27.8903 40.6662 28.4184 41.9767C29.5117 44.6841 30.3558 47.0311 31.0049 49.0154C31.0542 49.1709 31.1036 49.3189 31.1505 49.4695L31.1455 49.4868C31.0073 50.0815 30.1904 50.1556 29.9461 49.5954C28.3765 45.9946 26.7155 42.3444 26.2614 41.9718C25.7481 41.5498 24.7337 41.7349 24.3018 42.7665C24.2722 42.838 24.2451 42.9145 24.2229 42.9911C24.2155 43.0157 24.2105 43.0404 24.2031 43.0651C24.1858 43.1268 24.171 43.1885 24.1587 43.2527C24.1538 43.2798 24.1488 43.3045 24.1439 43.3316C24.1291 43.423 24.1167 43.5167 24.1093 43.6155C24.1093 43.6426 24.1069 43.6722 24.1093 43.7068C24.1093 43.7438 24.1118 43.7833 24.1167 43.8277C24.1217 43.8943 24.1316 43.9684 24.1439 44.0523C24.1538 44.1189 24.1661 44.188 24.1809 44.2621C24.2278 44.5039 24.2969 44.7902 24.3858 45.1135C24.3981 45.1579 24.4104 45.2024 24.4228 45.2468C24.5141 45.5701 24.6202 45.9279 24.7411 46.313C24.7609 46.3746 24.7806 46.4363 24.8004 46.5005C24.8942 46.7967 24.9953 47.1076 25.1039 47.4285C25.1286 47.5 25.1533 47.5741 25.178 47.6481C25.2347 47.8159 25.294 47.9887 25.3532 48.1615C24.8448 47.5938 24.2747 47.1052 23.633 46.7695C21.8462 45.8317 20.5875 46.1106 19.8101 46.5622C19.7534 46.5943 19.7015 46.6338 19.6546 46.6757C19.6102 46.7152 19.5683 46.7547 19.5312 46.7991C19.4794 46.8608 19.435 46.9299 19.4004 47.0015C19.3832 47.0385 19.3659 47.0756 19.3511 47.1126C19.2499 47.3791 19.2425 47.6827 19.3387 47.9616C19.3807 48.08 19.4399 48.1935 19.5189 48.2972V48.2898ZM42.5969 48.623C42.6093 48.6551 42.6241 48.6847 42.6364 48.7168C42.6389 48.7242 42.6438 48.734 42.6463 48.7414C42.629 48.7019 42.6117 48.6625 42.5945 48.623H42.5969Z" fill="#1B90FF"/>
<path d="M41.3873 69.6445C41.3873 69.6445 66.8278 77.6941 66.385 79.848C65.4758 84.2632 40.444 80.6524 41.3873 69.6445Z" fill="#00144A"/>
<path d="M86.5244 72.5112C86.5244 72.5112 80.0471 57.6541 80.0418 57.6436C78.8076 54.8111 80.3458 50.7863 81.2891 48.0192C82.4473 44.6128 82.5206 41.0728 83.553 37.7555C83.8858 36.689 84.2919 35.4051 84.7217 34.1028L87.4625 29.7662C87.9263 29.0325 87.6014 28.0447 86.7839 27.7564C85.6886 27.3686 83.9906 27.2743 81.8105 28.7286C77.8093 31.4013 76.8188 38.4682 76.8188 38.4682C76.8188 38.4682 76.2345 39.1154 74.5863 37.1817C72.9539 35.2636 72.1783 32.5961 71.1852 30.327C69.8777 27.3372 68.7902 24.2767 67.5508 21.2581C66.107 17.7495 65.0746 16.1511 63.1644 12.8784C61.9774 10.845 60.0594 6.13894 56.936 6.95909C52.9636 8.00197 58.385 14.199 61.3564 22.0206C62.9496 26.2131 65.7612 32.1769 65.7612 32.1769C65.1402 32.4049 63.6544 28.3355 63.4972 27.9608C62.1504 24.7614 60.8848 21.5306 59.5301 18.3338C58.1806 15.1449 56.8023 11.9272 55.0441 8.93742C54.3759 7.80283 53.0999 5.36595 51.5827 5.35547C51.2971 5.35547 51.022 5.45242 50.7704 5.58606C48.6034 6.74947 49.1956 9.53485 49.8481 11.4215C50.7678 14.0758 52.5077 16.3555 53.4457 18.9941C54.0536 20.7026 54.7244 22.3953 55.3952 24.0828C56.1682 26.0297 56.8941 28.0185 57.8007 29.9077C58.5842 31.5428 59.703 35.2505 59.5248 35.0199C59.3467 34.7893 59.3938 34.5273 57.7509 30.1488C56.1997 26.0139 54.5332 21.9105 52.6937 17.8962C51.6508 15.6218 50.6027 13.2242 49.041 11.2511C48.8288 10.9813 48.5694 10.7035 48.2287 10.6668C48.0715 10.6511 47.9143 10.6878 47.7597 10.7271C47.2907 10.845 46.8059 10.9682 46.4155 11.2538C45.8364 11.6783 45.5455 12.4067 45.4905 13.122C45.3804 14.5501 45.8783 16.1171 46.3159 17.4665C46.8478 19.1068 47.5081 20.7052 48.2078 22.2826C52.0124 30.8379 53.5322 36.4296 54.0825 38.8691C54.127 39.0657 53.8493 39.16 53.7654 38.9766C51.9207 34.9701 46.3631 23.0294 45.3542 22.2774C44.5157 21.6511 42.6815 22.1333 42.5034 24.2583C42.3252 26.3808 49.2952 42.0738 49.2952 42.0738C49.2952 42.0738 52.809 56.3177 60.3869 62.9681C67.9648 69.6184 69.3877 81.6796 69.3877 81.6796L86.5218 72.5112H86.5244Z" fill="#A93E00"/>
<path d="M59.5215 35.0162C59.3433 34.7883 59.3905 34.5236 57.7475 30.1451C57.3597 29.1101 56.9641 28.075 56.5605 27.0426C56.9484 28.0095 57.3519 28.9659 57.7973 29.9014C58.5808 31.5365 59.6997 35.2442 59.5215 35.0136V35.0162ZM63.4939 27.9571C62.147 24.7577 60.8788 21.5269 59.5267 18.3301C59.0918 17.3056 58.6542 16.2758 58.2035 15.2539C59.2516 17.2768 60.4229 19.5669 61.3531 22.0169C62.9462 26.2094 65.7578 32.1732 65.7578 32.1732C65.1368 32.4012 63.6511 28.3292 63.4939 27.9571Z" fill="#340800"/>
<path d="M58.4218 32.9489C58.5659 33.0433 58.7152 33.1271 58.8646 33.2083C58.6235 32.5166 58.2724 31.5418 57.7483 30.1452C57.4968 29.4718 57.2348 28.8036 56.978 28.1328C56.8234 29.0106 56.7762 29.9251 56.978 30.7898C57.1823 31.6728 57.6592 32.4458 58.4244 32.9463L58.4218 32.9489Z" fill="#340800"/>
<path d="M86.7777 27.7489C85.6824 27.3611 83.9845 27.2668 81.8044 28.721C77.9106 31.3204 76.8678 38.0808 76.8153 38.4424C76.776 38.466 76.7394 38.4948 76.7053 38.5262C76.4721 38.6205 75.8354 38.6468 74.5802 37.1715C72.9478 35.2535 72.1722 32.586 71.1791 30.3168C69.8715 27.327 68.7841 24.2665 67.5447 21.2479C66.1009 17.7394 65.0685 16.141 63.1583 12.8682C63.1112 12.787 63.0614 12.6979 63.0116 12.6088C62.9985 12.5852 62.9854 12.559 62.9697 12.5354C62.9277 12.4594 62.8832 12.3782 62.8386 12.297C62.8282 12.2786 62.8203 12.2629 62.8098 12.2446C62.7653 12.1607 62.7181 12.0769 62.6736 11.9878C62.4194 11.5109 62.1364 10.979 61.822 10.4418C61.8141 10.4313 61.8089 10.4182 61.801 10.4078C61.7355 10.2977 61.67 10.1876 61.6019 10.075C61.594 10.0619 61.5888 10.0514 61.5809 10.0383C60.4909 8.25386 59.0576 6.56901 57.1736 6.89655C57.5456 7.59617 54.286 35.5338 55.0013 36.3278C52.0482 36.1575 49.2891 42.0636 49.2891 42.0636C49.2891 42.0636 52.8029 56.3076 60.3808 62.9579C67.9587 69.6082 69.3815 81.6695 69.3815 81.6695L76.0345 78.1085C75.1148 77.3015 74.2606 76.421 73.4902 75.4856C71.8315 73.4706 70.4716 71.1437 69.827 68.5994C69.5361 67.4491 69.3894 66.249 69.4523 65.0594C69.5073 64.0139 69.772 62.9894 70.1729 62.0198C71.0219 59.9734 72.2089 58.0868 73.2019 56.1111C73.2072 56.1006 73.2124 56.0875 73.2203 56.077C73.6029 55.3145 72.7277 54.5258 72.015 54.9974C71.7582 55.1678 71.4909 55.3197 71.2105 55.4481C69.5676 56.2106 67.5683 55.98 66.1874 54.7721C65.8258 54.4577 65.5769 54.0856 65.4065 53.6794C65.7708 53.5877 66.1193 53.4855 66.3787 53.3597C66.853 53.1344 67.2984 52.82 67.7386 52.5344C68.2784 52.1832 68.8129 51.8216 69.3475 51.4627C69.848 51.1299 70.3484 50.7997 70.862 50.4853C70.8017 50.2128 70.7467 49.9376 70.71 49.6573C70.6838 49.4686 70.8122 49.3009 70.9773 49.2092C70.9747 48.6406 71.0376 48.072 71.1476 47.5348C71.4778 45.9338 72.256 44.4848 73.257 43.2061C73.9199 42.3597 74.5173 40.5936 74.727 39.163C75.3008 39.3752 74.3601 40.9081 75.2798 41.178C75.7227 41.309 76.1839 41.0365 76.3385 40.6041C76.9464 38.8983 78.2932 35.395 78.4766 34.7635C80.468 27.8563 86.3742 28.1839 87.349 28.1446C87.2022 27.9664 87.0083 27.8223 86.7699 27.7384L86.7777 27.7489Z" fill="#340800"/>
<path d="M43.4746 72.0555L47.7614 56.4123C48.3483 51.5936 44.2056 46.1617 43.6423 44.8148C42.5103 42.1107 42.1696 38.7593 41.4412 37.2317C40.9591 36.2229 40.3721 35.0097 39.7616 33.786L36.4286 29.8843C35.8652 29.224 36.046 28.2021 36.8137 27.7986C37.8435 27.2588 39.51 26.9208 41.8735 28.0501C46.2154 30.1228 48.2068 36.9749 48.2068 36.9749C48.2068 36.9749 48.8776 37.533 50.2323 35.3817C51.5739 33.2514 51.9591 30.4975 52.6168 28.1104C53.4841 24.9634 54.1208 21.7798 54.9148 18.6171C55.8398 14.9381 56.6363 13.2087 58.0565 9.69492C58.9396 7.51221 60.1659 2.5808 63.3731 2.94502C67.4529 3.40881 62.9748 10.3159 61.1537 18.4834C60.1764 22.8619 58.2478 29.1664 58.2478 29.1664C58.895 29.3026 59.7833 25.063 59.8855 24.6699C60.7607 21.3107 61.552 17.9305 62.4324 14.5739C63.3129 11.2173 64.2142 7.84237 65.527 4.63249C66.0249 3.41405 66.942 0.819955 68.4408 0.591989C68.7212 0.550064 69.0094 0.60771 69.2793 0.704662C71.5904 1.54578 71.4017 4.38881 71.027 6.34879C70.4977 9.10797 69.1011 11.613 68.5508 14.3591C68.1945 16.1356 67.7726 17.9069 67.3508 19.6757C66.8634 21.7116 66.431 23.7869 65.8048 25.7862C65.265 27.5156 64.6859 31.3465 64.83 31.0923C64.9741 30.8408 64.8903 30.5866 65.8886 26.0194C66.8319 21.7064 67.8932 17.4065 69.1404 13.1694C69.8479 10.7692 70.5423 8.24589 71.8026 6.07104C71.9756 5.77495 72.1904 5.46051 72.5232 5.37666C72.6778 5.33736 72.8377 5.35308 72.9975 5.3688C73.4796 5.41859 73.9749 5.47099 74.402 5.69634C75.0361 6.03174 75.4265 6.71302 75.5837 7.41264C75.8982 8.80926 75.6283 10.4312 75.3872 11.8305C75.0964 13.531 74.6719 15.208 74.2028 16.8667C71.6612 25.8779 70.9589 31.6295 70.7624 34.124C70.7467 34.3258 71.0349 34.3782 71.0925 34.1843C72.3451 29.9551 76.1366 17.3436 77.0275 16.4527C77.7665 15.7138 79.6531 15.9286 80.1326 18.0039C80.6121 20.0792 75.9611 36.608 75.9611 36.608C75.9611 36.608 74.5225 51.2084 67.9744 58.8754C61.4262 66.5424 61.7459 78.6822 61.7459 78.6822L43.4772 72.0607L43.4746 72.0555Z" fill="#FFAB92"/>
<path d="M43.4746 72.0514L48.2094 74.622C48.1282 70.3771 51.0603 66.0012 52.6666 62.076C52.6902 62.0183 52.7164 61.9607 52.7426 61.8978C53.678 59.867 53.9112 57.5507 53.3819 55.3785C52.588 52.1345 49.6821 49.6164 48.4138 46.5035C46.6556 42.1905 45.466 38.302 42.5443 34.5837C42.133 34.0597 37.2356 27.5744 36.8137 27.7945C36.046 28.1981 35.8652 29.2226 36.4286 29.8803C37.5894 31.2376 38.7397 32.5242 39.7197 34.0256C41.8631 37.3062 42.1592 41.2629 43.6449 44.8108C44.2082 46.1576 48.3483 51.5895 47.764 56.4082L43.4772 72.0514H43.4746Z" fill="#FF7F4C"/>
<path d="M68.5461 14.3506C69.0963 11.6045 70.493 9.09951 71.0223 6.34033C71.2922 4.93323 71.4599 3.0702 70.679 1.82031C70.4563 3.91655 69.9165 5.97611 69.2667 7.9754C68.3496 10.8027 63.6723 31.5319 64.2226 31.6132C64.7755 31.697 65.082 31 65.1921 30.4524C65.9153 26.8652 66.7433 23.2754 67.346 19.6646C67.7679 17.8985 68.1897 16.1272 68.5461 14.348V14.3506Z" fill="#FF7F4C"/>
<path d="M72.7739 17.6594C72.132 19.7976 71.7704 21.9934 71.393 24.1892C70.8323 27.4541 70.3554 30.74 70.0855 34.0442C70.0514 34.4477 70.6017 34.6049 70.7877 34.2459C70.7904 34.2407 70.793 34.2354 70.7956 34.2302C70.772 34.2014 70.7589 34.1621 70.7615 34.1149C70.9554 31.6204 71.6603 25.8688 74.202 16.8576C74.671 15.1989 75.0955 13.522 75.3864 11.8214C75.5777 10.7025 75.7847 9.43952 75.7008 8.26562C75.4519 9.42642 75.127 10.5741 74.7627 11.7061C74.1208 13.7001 73.3766 15.6575 72.7739 17.6646V17.6594Z" fill="#FF7F4C"/>
<path d="M64.5224 5.68629C64.4543 5.92212 64.3678 6.15271 64.2971 6.39378C64.1608 6.84185 64.0403 7.3004 63.9014 7.74847C63.6027 8.71274 63.2987 9.67439 63 10.636C62.379 12.638 61.7554 14.6372 61.137 16.6392C60.5186 18.6411 59.8635 20.7661 59.2399 22.8309C58.7682 24.39 58.2966 25.9491 57.8669 27.5187C57.7463 27.9589 57.6153 28.4043 57.5341 28.855C57.4607 29.2664 58.0057 29.5075 58.2416 29.1642C58.2416 29.1616 58.2468 29.1563 58.2494 29.1537C58.3516 29.0017 60.3797 21.9427 61.1553 18.4708C61.7266 15.9133 62.5572 13.4791 63.304 11.3252C63.0027 12.4021 65.0622 5.81207 64.8447 6.41474C65.2928 4.34994 65.0386 3.05027 63.228 2.92188C64.0351 3.46166 64.7163 3.94903 64.6508 5.02074C64.6377 5.25132 64.5879 5.46881 64.5251 5.68105L64.5224 5.68629Z" fill="#FF7F4C"/>
<path d="M76.7953 23.9487C76.7792 23.9487 76.7792 23.9219 76.7953 23.9219C76.8114 23.9219 76.8114 23.9487 76.7953 23.9487Z" fill="#FF7F4C"/>
<path d="M72.4343 93.721L92.0997 80.195L86.5001 70.3008C86.5001 70.3008 76.0713 76.5266 68.0898 80.1426L72.4317 93.721H72.4343Z" fill="white"/>
<path d="M118.192 128.569C108.049 109.071 92.6336 79.9363 91.0797 76.543C91.0797 76.543 69.0849 86.6993 69.4098 89.165C69.7531 91.7696 79.0211 112.837 86.0618 128.572H118.192V128.569Z" fill="#0040B0"/>
<path d="M89.085 128.572C85.883 122.016 83.2994 115.064 82.2199 107.824C81.6801 104.2 81.4993 100.508 81.9264 96.8608C82.1072 95.3174 82.3194 93.719 82.8828 92.2595C83.3492 91.0542 84.02 89.9642 84.8533 88.9789C87.3268 86.0494 90.8983 84.3043 93.7125 81.7652C92.3395 79.1082 91.4014 77.2583 91.0739 76.543C91.0739 76.543 69.079 86.6993 69.404 89.165C69.7472 91.7695 79.0152 112.837 86.056 128.572H89.0824H89.085Z" fill="#00144A"/>
<path d="M51.4446 128.58C57.6678 108.857 66.3829 79.848 66.3829 79.848L41.3852 69.6445L19 128.58H51.4446Z" fill="#0040B0"/>
<path d="M25.5219 128.58C26.0014 126.526 26.5622 124.49 27.1753 122.472C28.1894 119.139 29.3528 115.854 30.6027 112.602C31.8631 109.321 33.2178 106.077 34.6222 102.854C35.9193 99.8802 37.2635 96.9271 38.6287 93.9819C38.6942 93.8404 38.7754 93.6544 38.8724 93.429C43.4238 82.7277 55.0868 76.9368 66.3489 79.8401L66.3829 79.848L41.3852 69.6445L19 128.58H25.5219Z" fill="#00144A"/>
</svg>
