<svg width="320" height="240" viewBox="0 0 320 240" fill="none" xmlns="http://www.w3.org/2000/svg">
<rect y="51" width="320" height="138" rx="24" fill="#89D1FF"/>
<path d="M189.408 101.903C189.168 101.562 188.697 101.492 188.356 101.743L177.395 108.547C177.184 108.708 176.811 108.515 176.74 108.756C175.835 107.878 176.264 108.577 176.058 108.345C176.058 108.305 175.713 108.796 175.723 108.756C175.743 108.615 175.753 108.465 175.763 108.315C175.763 108.165 175.773 108.004 175.783 107.834C175.783 107.794 175.783 107.744 175.783 107.704C175.783 107.573 175.783 107.443 175.783 107.313V107.173C175.783 107.032 175.783 106.882 175.783 106.732C175.783 106.692 175.783 106.662 175.783 106.622C175.783 106.431 175.773 106.241 175.753 106.041C175.493 101.372 173.679 94.4493 166.937 91.7143C164.683 90.8026 162.348 90.2015 159.984 89.7006C159.623 89.6204 159.253 89.5703 158.882 89.5403C158.612 89.2598 158.331 88.9893 158.061 88.7188C157.77 88.4282 157.469 88.1477 157.169 87.8672C155.035 85.8435 152.791 83.93 150.597 82.0265C146.529 78.51 142.402 74.2922 137.022 72.9097C134.106 72.1583 131.221 71.1164 128.747 69.4033C127.815 68.7621 126.783 68.201 125.661 68.0307C123.216 67.6701 120.842 66.8486 118.698 65.6263C117.055 64.6846 115.582 63.302 113.889 62.4104C113.769 62.3503 113.649 62.2902 113.529 62.2301C113.509 62.2301 113.499 62.2201 113.479 62.21C113.368 62.1599 113.268 62.1098 113.158 62.0698C113.108 62.0497 113.058 62.0297 113.018 62.0097C112.938 61.9796 112.857 61.9496 112.767 61.9195C112.627 61.8694 112.487 61.8293 112.356 61.7893C112.156 61.7392 111.926 61.6991 111.765 61.8293C111.475 62.0497 111.665 62.5106 111.876 62.8111C112.657 63.9332 113.438 65.0553 114.22 66.1773C114.34 66.3476 114.47 66.528 114.591 66.7083C114.711 66.8886 114.841 67.069 114.971 67.2493C115.102 67.4296 115.232 67.62 115.362 67.8103C115.492 68.0007 115.632 68.181 115.763 68.3714C115.893 68.5617 116.033 68.7521 116.163 68.9424C116.234 69.0426 116.294 69.1328 116.364 69.2329C116.494 69.4233 116.634 69.6136 116.765 69.804C116.835 69.8942 116.895 69.9943 116.965 70.0845C117.165 70.365 117.366 70.6455 117.556 70.916C117.686 71.0964 117.817 71.2767 117.947 71.457C118.077 71.6374 118.197 71.8077 118.327 71.978C118.638 72.4088 118.929 72.8095 119.209 73.1902C119.369 73.4106 119.53 73.631 119.68 73.8314C120.231 74.5627 120.652 75.1138 120.892 75.3742C121.58 76.123 118.088 76.0979 117.376 76.0655C116.474 76.0254 115.612 75.4945 114.881 75.0036C114.16 74.5127 113.489 73.9717 112.757 73.5008C112.196 73.1401 111.605 72.8296 110.964 72.6492C110.443 72.4989 109.912 72.4489 109.381 72.3587C105.314 71.6975 102.248 69.263 98.8516 67.1692C98.5511 66.9788 98.2606 66.8185 97.9901 66.6682C97.9901 66.6682 97.9901 66.6682 97.98 66.6682C97.8999 66.6282 97.8197 66.5881 97.7396 66.548C97.7196 66.548 97.7095 66.528 97.6895 66.518C97.6294 66.4879 97.5593 66.4578 97.4992 66.4278C97.4791 66.4178 97.4591 66.4078 97.439 66.3977C97.3789 66.3677 97.3288 66.3476 97.2787 66.3276C97.2587 66.3276 97.2387 66.3076 97.2186 66.3076C97.1685 66.2875 97.1185 66.2675 97.0684 66.2575C97.0483 66.2575 97.0283 66.2475 97.0082 66.2374C96.9582 66.2174 96.9081 66.2074 96.868 66.1974C96.858 66.1974 96.8379 66.1974 96.8279 66.1974C96.7177 66.1773 96.6175 66.1673 96.5274 66.1873C96.5173 66.1873 96.5073 66.1873 96.4973 66.1873C96.4673 66.1873 96.4372 66.2074 96.4172 66.2174C96.4071 66.2174 96.3971 66.2274 96.3771 66.2374C96.3571 66.2475 96.337 66.2675 96.317 66.2775C96.307 66.2875 96.2969 66.2975 96.2869 66.3076C96.2769 66.3276 96.2569 66.3476 96.2468 66.3677C96.1867 66.4879 96.1767 66.6382 96.2068 66.7684C96.2068 66.8085 96.2268 66.8486 96.2368 66.8786C96.2769 66.9888 96.347 67.089 96.4172 67.1792C96.4873 67.2794 96.5574 67.3695 96.6275 67.4697C96.6776 67.5499 96.7277 67.62 96.7878 67.6901C96.848 67.7803 96.9081 67.8604 96.9682 67.9506C97.0383 68.0508 97.0984 68.1409 97.1685 68.2411C97.2387 68.3513 97.3188 68.4515 97.3889 68.5617C97.4691 68.6819 97.5492 68.7921 97.6294 68.9124C97.7196 69.0326 97.7997 69.1628 97.8899 69.283C97.98 69.4133 98.0702 69.5435 98.1604 69.6738C98.2606 69.814 98.3507 69.9443 98.4509 70.0845C98.5511 70.2248 98.6513 70.375 98.7515 70.5153C98.8516 70.6656 98.9618 70.8159 99.062 70.9561C99.1722 71.1064 99.2724 71.2567 99.3826 71.4069C99.4928 71.5572 99.603 71.7175 99.7132 71.8778C99.8234 72.0381 99.9336 72.1984 100.044 72.3487C100.154 72.509 100.264 72.6693 100.384 72.8296C100.495 72.9899 100.615 73.1501 100.725 73.3104C100.835 73.4707 100.956 73.631 101.066 73.7913C101.176 73.9516 101.296 74.1119 101.406 74.2722C101.517 74.4325 101.627 74.5928 101.747 74.7431C101.857 74.9034 101.967 75.0536 102.078 75.2139C102.188 75.3642 102.298 75.5245 102.408 75.6748C102.518 75.8251 102.619 75.9753 102.729 76.1256C102.829 76.2659 102.939 76.4162 103.039 76.5564C103.14 76.6967 103.24 76.8369 103.35 76.9772C103.45 77.1074 103.54 77.2477 103.64 77.3779C103.731 77.5082 103.831 77.6384 103.921 77.7586C104.011 77.8788 104.101 77.9991 104.191 78.1193C104.272 78.2295 104.362 78.3397 104.442 78.4499C104.522 78.5501 104.592 78.6503 104.672 78.7605C104.742 78.8506 104.813 78.9408 104.883 79.041C104.933 79.1011 104.973 79.1612 105.013 79.2113C105.213 79.4618 105.374 79.6521 105.484 79.7823C105.504 79.8024 105.514 79.8224 105.534 79.8425C105.504 79.8425 105.484 79.8425 105.454 79.8324C105.203 79.7924 104.963 79.7623 104.712 79.7122C104.702 79.7122 104.682 79.7122 104.672 79.7122C104.161 79.622 103.65 79.5118 103.14 79.3816C103.119 79.3816 103.109 79.3816 103.089 79.3716C102.839 79.3015 102.599 79.2313 102.348 79.1512C102.338 79.1512 102.318 79.1512 102.308 79.1412C101.807 78.9809 101.306 78.7905 100.825 78.5601C100.515 78.4198 100.214 78.2595 99.9136 78.0892C98.6312 77.3479 97.5292 76.356 96.4873 75.3041C95.4754 74.2922 94.4335 73.3806 93.3615 72.4188C91.4881 70.7357 89.6046 69.0626 87.7212 67.3896C85.7175 65.6063 83.7138 63.833 81.7001 62.0698C80.6582 61.1581 79.6062 60.2665 78.5744 59.3448C77.5625 58.4431 76.5206 57.5715 75.3885 56.8402C75.2482 56.75 75.118 56.6698 74.9777 56.5797C74.6271 56.3693 74.2564 56.1689 73.9058 55.9485C73.7956 55.8784 73.6954 55.7982 73.5852 55.7181C73.5651 55.648 73.5451 55.5879 73.5251 55.5177C73.3548 55.3775 73.1744 55.2472 72.9841 55.1571C72.934 55.127 72.8839 55.117 72.8438 55.107H72.8338C72.7536 55.097 72.6935 55.137 72.6735 55.2272C72.6234 55.2572 72.5934 55.3174 72.5934 55.4276C72.5934 55.5378 72.6434 55.7381 72.7236 55.9786C73.1644 57.2209 73.8056 58.373 74.4167 59.5351C74.597 59.8757 75.0579 60.7173 75.3584 61.2683C75.3785 61.2984 75.3785 61.3384 75.3785 61.3685C75.3284 61.3985 75.2683 61.4086 75.2182 61.3685C74.3766 60.8275 72.7837 59.8557 72.5433 60.1663C72.5232 60.1863 72.5232 60.2063 72.5132 60.2364C72.4932 60.2364 72.4832 60.2564 72.4731 60.2665C72.413 60.3466 72.4431 60.5069 72.5833 60.7774C72.9941 61.5388 73.5952 62.4805 74.1262 63.292C74.1562 63.3421 74.3867 63.6727 74.6371 64.0434C74.7173 64.1536 74.7173 64.2738 74.6672 64.374C74.567 64.4842 74.4067 64.5343 74.2464 64.4441C72.1826 63.3421 68.2353 61.2583 68.2454 61.8894C68.1852 61.9095 68.1652 61.9596 68.1852 62.0297C68.3556 62.751 73.9058 69.3932 81.0289 76.1557C81.1992 76.316 81.3795 76.4863 81.5498 76.6466C81.5699 76.6666 81.5799 76.6766 81.5999 76.6967C81.7702 76.857 81.9405 77.0173 82.1109 77.1776C82.1309 77.1976 82.1409 77.2076 82.1609 77.2276C82.3313 77.3879 82.5116 77.5482 82.6919 77.7185C82.6919 77.7185 82.712 77.7386 82.722 77.7386C83.6437 78.5902 84.5954 79.4317 85.5472 80.2632C85.5572 80.2732 85.5772 80.2833 85.5872 80.2933C85.7475 80.4335 85.9179 80.5838 86.0882 80.7241C86.1282 80.7541 86.1683 80.7942 86.2084 80.8243C86.3687 80.9545 86.519 81.0948 86.6793 81.225C86.7293 81.2651 86.7794 81.3051 86.8195 81.3452C86.9698 81.4755 87.1301 81.6057 87.2804 81.7259C87.3305 81.766 87.3805 81.8161 87.4306 81.8562C87.5809 81.9864 87.7412 82.1066 87.8915 82.2369C87.9416 82.2769 87.9817 82.317 88.0317 82.3471C88.192 82.4773 88.3523 82.6075 88.5126 82.7378C88.5427 82.7578 88.5627 82.7778 88.5928 82.7979C89.3341 83.389 90.0655 83.95 90.8068 84.511C90.8569 84.5411 90.897 84.5812 90.9471 84.6112C91.0974 84.7214 91.2477 84.8316 91.3879 84.9418C91.448 84.9819 91.5081 85.032 91.5682 85.0721C91.7085 85.1723 91.8488 85.2724 91.999 85.3826C92.0692 85.4327 92.1293 85.4828 92.1994 85.5229C92.3397 85.6231 92.4799 85.7132 92.6202 85.8134C92.6903 85.8635 92.7604 85.9036 92.8205 85.9537C92.9608 86.0539 93.1011 86.144 93.2413 86.2442C93.3014 86.2843 93.3716 86.3344 93.4317 86.3745C93.5719 86.4746 93.7222 86.5648 93.8625 86.665C93.9126 86.6951 93.9627 86.7351 94.0127 86.7652C94.5638 87.1258 95.1047 87.4665 95.6457 87.7871C95.796 87.8772 95.9363 87.9574 96.0866 88.0475C96.1467 88.0776 96.2068 88.1177 96.2569 88.1477L96.6576 88.3781C96.7277 88.4182 96.7979 88.4583 96.868 88.4984C96.9982 88.5685 97.1285 88.6386 97.2487 88.7088C97.3188 88.7488 97.3889 88.7889 97.4691 88.829C97.5993 88.8991 97.7196 88.9592 97.8498 89.0193C97.9199 89.0594 97.9901 89.0895 98.0702 89.1295C98.2004 89.1896 98.3207 89.2498 98.4409 89.3099C98.511 89.3399 98.5811 89.38 98.6513 89.41C98.6613 89.41 98.6713 89.4201 98.6813 89.4301C98.6813 89.4301 98.6913 89.4301 98.7014 89.4401C98.8116 89.4902 98.9218 89.5403 99.032 89.5904C99.0921 89.6204 99.1522 89.6405 99.2123 89.6705C99.2524 89.6906 99.2924 89.7106 99.3325 89.7206C99.3926 89.7407 99.4427 89.7707 99.4928 89.7907C99.5329 89.8108 99.573 89.8308 99.613 89.8408H99.6231C99.8034 89.921 99.9837 89.9911 100.164 90.0612C101.728 91.3456 102.631 96.5379 103.46 99.5787C103.47 99.6188 103.48 99.6589 103.49 99.699C103.671 100.3 103.971 100.921 104.302 101.442C104.542 101.823 104.843 102.163 105.213 102.424C105.484 102.604 106.105 102.815 105.975 103.256C105.975 103.266 105.965 103.276 105.955 103.296C105.955 103.296 105.955 103.296 105.945 103.306C105.915 103.336 105.885 103.366 105.845 103.386C105.814 103.406 105.774 103.426 105.734 103.446C105.684 103.466 105.634 103.486 105.574 103.506C105.574 103.506 105.574 103.506 105.564 103.506C105.514 103.526 105.454 103.536 105.394 103.546C105.384 103.546 105.374 103.546 105.364 103.546C105.304 103.546 105.243 103.556 105.183 103.566C105.163 103.566 105.153 103.566 105.133 103.566C104.903 103.566 104.602 103.516 104.492 103.766C104.452 103.807 104.412 103.857 104.402 103.937C104.352 104.117 104.432 104.317 104.512 104.488C105.193 105.97 106.556 107.123 108.129 107.553C108.269 107.593 108.449 107.694 108.429 107.824C108.399 107.844 108.359 107.864 108.319 107.874C107.708 108.104 107.067 108.255 106.426 108.345C106.105 108.395 105.674 108.345 105.354 108.365C105.223 108.365 104.913 108.405 104.933 108.545C104.833 108.595 104.813 108.685 105.033 108.826C106.175 109.577 107.357 110.268 108.57 110.89C109.631 111.431 110.653 112.022 111.825 112.292C112.036 112.342 112.246 112.382 112.437 112.462C112.487 112.482 112.537 112.513 112.557 112.563C112.557 112.573 112.557 112.593 112.557 112.603C112.527 112.623 112.487 112.643 112.447 112.663C111.846 112.843 111.224 112.923 110.603 112.893C110.383 112.883 109.882 112.753 109.792 113.044C109.762 113.074 109.732 113.104 109.722 113.154C109.702 113.224 109.702 113.324 109.732 113.434C109.762 113.534 109.802 113.635 109.862 113.755C110.603 115.187 112.246 116.209 113.789 116.53C114.22 116.62 114.671 116.66 115.092 116.79C115.372 116.871 115.693 117.071 115.663 117.361C115.663 117.422 115.632 117.482 115.602 117.532C115.592 117.552 115.572 117.572 115.562 117.582C115.402 117.782 114.861 117.943 114.41 118.043C114.29 118.073 114.21 118.143 114.17 118.233C114.04 118.373 114.03 118.614 114.2 118.754C114.3 118.834 114.38 118.904 114.42 118.934C115.212 119.616 116.113 120.197 117.075 120.607C117.957 120.998 118.919 121.118 119.83 121.459C121.062 121.92 122.215 122.541 123.407 123.092C123.577 123.232 124.258 123.813 125.16 124.605C125.37 124.785 125.591 124.985 125.811 125.186C126.042 125.386 126.272 125.607 126.513 125.817C126.633 125.927 126.753 126.037 126.873 126.148C127.164 126.408 127.444 126.679 127.735 126.939C128.356 127.52 128.967 128.111 129.548 128.732C129.478 128.742 129.408 128.762 129.338 128.762C126.382 129.073 122.796 128.993 120.481 131.147C119.98 131.608 119.56 132.169 119.079 132.64C118.788 132.92 118.478 133.181 118.107 133.361C117.877 133.481 117.626 133.561 117.376 133.631C116.955 133.752 116.524 133.822 116.103 133.962C115.622 134.112 115.182 134.343 114.741 134.593C114.52 134.723 114.31 134.854 114.09 134.984C113.879 135.114 113.659 135.254 113.448 135.385C110.353 137.258 106.696 138.2 103.14 138.671C101.246 138.921 98.7915 138.19 97.1886 139.432C96.317 140.103 95.8561 141.175 95.4854 142.217C93.3615 148.198 93.1512 154.339 93.061 160.601C92.9608 167.995 92.9808 175.538 93.2113 182.862C93.3315 184.926 93.3816 186.979 93.3716 189.023H108.519C108.519 188.673 108.529 188.332 108.539 187.981C108.58 185.697 108.62 183.333 108.63 181.018C108.65 178.424 108.72 175.809 108.78 173.274C108.92 167.714 109.08 161.953 108.68 156.303C108.509 153.849 108.269 151.244 109.862 149.18C110.072 148.909 110.303 148.649 110.613 148.499C110.784 148.409 110.974 148.358 111.164 148.318C111.665 148.198 112.186 148.118 112.697 148.068C113.679 147.988 114.671 148.038 115.643 147.878C117.286 147.607 118.498 146.715 119.68 145.603C121.032 144.341 122.245 142.928 123.497 141.566C124.789 140.163 126.302 138.971 127.955 138.039C128.646 137.649 129.378 137.298 130.119 137.008C133.535 135.666 138.117 135.696 141.73 136.256C145.343 136.838 146.779 137.131 150.296 136.717C152.641 136.457 154.915 135.745 157.129 134.954C158.612 134.423 160.094 133.852 161.657 133.561C161.837 133.531 162.018 133.501 162.208 133.471C162.388 133.441 162.559 133.421 162.739 133.411C162.769 133.411 162.789 133.411 162.819 133.411C162.99 133.391 163.16 133.381 163.33 133.371C163.36 133.371 163.39 133.371 163.42 133.371C163.591 133.361 163.761 133.351 163.931 133.341C163.961 133.341 163.991 133.341 164.021 133.341C164.202 133.341 164.372 133.331 164.552 133.321H164.603C165.214 133.301 165.815 133.301 166.426 133.291L172.457 142.768C172.858 143.409 173.719 143.94 174.421 143.86L203.574 121.94L189.388 101.883L189.408 101.903ZM144.045 130.856C144.095 130.906 144.145 130.966 144.195 131.017C144.415 131.257 144.636 131.517 144.836 131.778C143.033 131.457 140.739 131.007 139.496 130.766C139.196 130.696 138.905 130.646 138.615 130.586H138.605C136.21 130.155 134.487 130.175 133.465 130.185C133.285 129.995 133.065 129.774 132.834 129.534C133.345 129.193 133.926 128.792 134.557 128.382L136.431 126.378C137.302 126.809 138.424 127.39 139.556 128.001C139.627 128.041 139.707 128.081 139.777 128.121C141.55 129.093 143.293 130.135 144.025 130.856H144.045ZM131.892 125.687C131.892 125.687 131.973 125.697 132.013 125.707C132.684 125.827 133.385 125.947 134.116 126.047C134.267 126.067 134.417 126.087 134.567 126.108C134.698 126.128 134.828 126.138 134.968 126.158C135.259 126.188 135.549 126.218 135.84 126.248L133.245 127.39L132.033 127.991C132.033 127.991 132.013 127.991 132.003 127.991C131.842 128.061 131.682 128.131 131.532 128.201C130.861 127.51 130.109 126.759 129.358 125.997C128.967 125.607 128.586 125.216 128.206 124.825C129.318 125.146 130.54 125.436 131.892 125.687ZM153.472 131.718C152.46 131.918 151.438 132.048 150.406 132.099C150.046 132.119 149.675 132.129 149.314 132.139H149.164C148.914 132.139 148.663 132.139 148.413 132.129C148.252 131.718 148.032 131.327 147.752 130.976C147.321 130.456 146.77 130.145 146.179 129.834C145.908 129.674 145.598 129.484 145.257 129.273C145.147 129.203 145.027 129.133 144.906 129.063C143.684 128.332 142.131 127.4 140.618 126.498C141.51 126.498 142.422 126.498 143.374 126.458C143.694 126.448 144.015 126.428 144.315 126.408C144.395 126.408 144.476 126.398 144.556 126.388C144.826 126.368 145.087 126.358 145.337 126.328C145.377 126.328 145.417 126.328 145.457 126.328C145.758 126.298 146.048 126.278 146.329 126.238C146.379 126.238 146.419 126.238 146.469 126.228C146.72 126.198 146.97 126.168 147.221 126.138C147.251 126.138 147.281 126.138 147.321 126.128C147.882 126.047 148.413 125.957 148.914 125.857C148.934 125.857 148.944 125.857 148.954 125.857C149.465 125.757 149.946 125.637 150.406 125.516C150.406 125.506 150.406 125.486 150.416 125.476C150.416 125.486 150.416 125.496 150.416 125.506C152.701 124.895 154.274 124.054 155.366 123.122C155.947 122.631 156.458 122.05 156.878 121.419C156.878 121.419 156.878 121.419 156.888 121.409C157.139 121.038 157.359 120.658 157.54 120.257C158.03 119.185 157.95 117.902 158.732 116.981C159.032 116.62 159.483 116.249 159.894 115.969C159.894 115.969 159.894 115.969 159.904 115.969C160.024 115.879 160.154 115.799 160.285 115.708C160.295 115.708 160.305 115.688 160.325 115.678C162.398 114.236 162.723 115.769 165.358 115.708C165.678 115.708 166.105 115.628 166.426 115.678C166.646 115.718 167.12 115.809 167.351 115.84C167.581 115.87 167.911 115.969 167.921 115.969C168.382 116.029 168.644 115.668 169.095 115.678L169.913 115.84L170.607 116.071C170.307 116.051 171.195 116.714 170.944 116.904L160.615 121.979C160.114 122.349 159.994 123.051 160.325 123.572L163.16 128.111L164.552 130.295C162.839 130.295 161.126 130.325 159.413 130.506C159.153 130.536 158.892 130.566 158.632 130.606C158.612 130.606 158.581 130.606 158.561 130.616C156.848 130.886 155.195 131.367 153.502 131.728H153.492L153.472 131.718Z" fill="#1B90FF"/>
<path d="M206.739 114.326C205.387 114.145 203.994 114.125 202.632 114.125C200.067 114.125 197.502 114.125 194.948 114.396C192.393 114.666 189.949 115.428 187.434 115.949C184.218 116.6 180.952 116.61 177.686 116.249C175.342 115.859 171.565 115.117 169.691 114.747C169.311 114.666 168.94 114.586 168.579 114.526H168.569C162.388 113.404 159.723 114.656 160.955 113.374C161.656 112.903 162.508 112.322 163.43 111.711L166.616 108.305L161.747 110.449L160.214 111.22C160.214 111.22 160.194 111.22 160.184 111.22C159.432 111.561 158.671 111.881 157.86 112.052C157.519 112.112 157.168 112.172 156.818 112.212C153.061 112.603 148.512 112.502 145.567 115.247C144.555 116.189 143.794 117.441 142.561 118.063C141.77 118.463 140.868 118.554 140.017 118.824C138.804 119.215 137.743 119.966 136.651 120.627C132.713 123.012 128.075 124.204 123.556 124.795C121.152 125.106 118.026 124.184 115.993 125.767C114.89 126.628 114.299 127.981 113.829 129.293C111.124 136.897 110.853 144.692 110.753 152.646C110.623 162.044 110.653 171.621 110.953 180.918C111.104 183.543 111.164 186.148 111.154 188.743H130.389C130.389 188.302 130.399 187.861 130.409 187.42C130.459 184.515 130.509 181.519 130.529 178.574C130.549 175.278 130.639 171.962 130.72 168.746C130.9 161.683 131.1 154.369 130.589 147.186C130.369 144.07 130.058 140.764 132.092 138.14C132.353 137.799 132.653 137.468 133.044 137.278C133.264 137.168 133.505 137.108 133.735 137.048C134.376 136.897 135.028 136.787 135.679 136.737C136.921 136.627 138.183 136.697 139.416 136.497C141.499 136.146 143.042 135.014 144.545 133.611C146.258 132.008 147.801 130.215 149.394 128.492C151.027 126.709 152.95 125.196 155.054 124.014C155.936 123.513 156.858 123.082 157.799 122.701C160.094 121.789 162.538 121.259 165.003 121.118C167.467 120.978 170.052 121.359 172.557 121.759C175.382 122.21 178.247 122.581 181.122 122.511C181.894 122.491 182.665 122.441 183.437 122.361C186.412 122.02 189.297 121.128 192.123 120.116C194.006 119.445 195.889 118.714 197.873 118.353C200.077 117.952 202.351 118.023 204.595 117.962C205.146 117.952 205.707 117.922 206.248 117.792C207.831 117.401 209.044 116.129 210.556 115.518C209.384 114.857 208.092 114.516 206.759 114.336L206.739 114.326Z" fill="#C35500"/>
<path d="M118.206 188.464C117.244 186.871 116.573 185.108 116.002 183.354C115.23 180.99 114.739 178.515 114.319 176.061C113.878 173.436 113.577 170.801 113.357 168.146C112.926 162.957 112.756 157.717 112.736 152.508C112.706 147.508 112.435 141.728 116.653 138.191C117.414 137.55 118.346 137.009 119.348 137.059C120.199 137.109 120.971 137.59 121.822 137.67C123.285 137.801 124.708 136.498 124.708 135.036C124.708 133.863 123.926 132.781 124.017 131.609C124.077 130.768 124.588 130.006 125.239 129.475C128.365 126.871 133.073 126.58 136.9 125.809C140.477 125.097 143.973 124.246 147.109 122.292C149.844 120.589 151.938 117.573 155.314 117.052C156.937 116.802 158.56 117.303 160.083 117.894C161.155 118.305 162.938 118.866 164.04 119.146C164.902 119.367 165.763 119.567 166.635 119.737C168.538 120.118 170.462 120.318 172.395 120.298C174.059 120.278 175.651 119.968 177.214 119.407C179.418 118.615 181.442 117.433 183.566 116.451C181.622 116.562 179.659 116.481 177.715 116.261C175.371 115.87 171.594 115.129 169.721 114.758C169.34 114.678 168.969 114.598 168.609 114.538H168.598C162.417 113.416 159.752 114.668 160.984 113.386C161.686 112.915 162.537 112.334 163.459 111.723L166.645 108.316L161.776 110.46L160.243 111.232C160.243 111.232 160.223 111.232 160.213 111.232C159.462 111.572 158.7 111.893 157.889 112.063C157.548 112.123 157.198 112.184 156.847 112.224C153.09 112.614 148.542 112.514 145.596 115.259C144.584 116.201 143.823 117.453 142.591 118.074C141.799 118.475 140.898 118.565 140.046 118.836C138.834 119.226 137.772 119.978 136.68 120.639C132.743 123.023 128.104 124.216 123.586 124.807C121.181 125.117 118.056 124.196 116.022 125.779C114.92 126.64 114.329 127.993 113.858 129.305C111.153 136.909 110.882 144.703 110.782 152.658C110.652 162.055 110.682 171.633 110.983 180.93C111.133 183.555 111.193 186.16 111.183 188.754H118.416C118.356 188.664 118.296 188.574 118.246 188.484L118.206 188.464Z" fill="#8D2A00"/>
<path d="M206.739 114.325C205.386 114.145 203.994 114.125 202.631 114.125C200.066 114.125 197.502 114.125 194.947 114.395C194.276 114.466 193.615 114.576 192.943 114.696C193.404 114.746 193.875 114.806 194.326 114.886C196.159 115.217 197.692 116.139 198.413 117.902C198.453 118.012 198.504 118.122 198.534 118.233C200.517 117.952 202.551 118.012 204.555 117.952C205.106 117.942 205.667 117.912 206.208 117.782C207.791 117.391 209.003 116.119 210.516 115.508C209.344 114.846 208.051 114.506 206.719 114.325H206.739Z" fill="#8D2A00"/>
<path d="M196.922 105.02L213.883 131.108L214.063 131.388L251.102 103.547L233.078 78.0703L220.866 87.2672L196.922 105.01V105.02Z" fill="white"/>
<path d="M249.449 102.172L233.57 100.508C234.361 97.1323 235.062 93.6659 235.263 90.2095C235.443 87.2641 235.152 84.3087 235.112 81.3633C234.912 95.92 229.382 107.461 227.468 108.353C221.678 111.068 196.912 105.027 196.912 105.027C197.092 105.117 197.273 105.207 197.453 105.297C199.246 106.199 201.09 107.01 202.953 107.762C207.141 109.455 211.509 110.868 215.987 111.529C216.588 111.619 217.189 111.689 217.791 111.749L212.922 122.739C211.84 125.184 212.18 128.019 213.813 130.133L219.884 111.879C221.648 111.909 223.401 111.739 225.094 111.248C226.657 110.797 228.14 110.076 229.382 109.024C231.496 107.231 232.528 104.536 233.239 101.881L249.459 102.182L249.449 102.172Z" fill="#0040B0"/>
<path d="M220.605 98.5864C217.77 96.2821 212.861 92.9961 212.861 92.9961L211.669 94.2083L211.358 93.7875L211.328 93.7475C210.947 93.7174 210.567 93.8276 210.246 94.0681L196.822 104.177C196.19 104.658 196.03 105.539 196.451 106.21L199.717 111.35L201.951 114.856L202.021 114.966L211.589 130.014C212.1 130.826 213.192 131.497 214.073 131.397L197.473 105.289C197.292 105.199 197.112 105.108 196.932 105.018L199.016 103.726L212.761 95.2102C213.652 95.7712 214.554 96.4124 214.875 96.6228C215.596 97.0836 216.217 97.6747 216.818 98.2758C217.109 98.5663 217.399 98.8669 217.7 99.1474C218.061 99.498 218.421 99.8487 218.822 100.149C219.113 100.37 219.453 100.61 219.824 100.64C220.084 100.66 220.285 100.52 220.395 100.29C220.545 99.9789 220.585 99.6083 220.595 99.2676C220.595 99.0472 220.595 98.8168 220.595 98.5964L220.605 98.5864Z" fill="#0040B0"/>
<path d="M218 89.4295L233.078 78.0786C232.768 77.6478 232.166 77.5476 231.746 77.8682L217.199 88.8183C216.928 89.0187 216.748 89.2992 216.668 89.6098C216.698 89.6398 216.738 89.6699 216.768 89.7C217.83 90.7118 218.702 91.6936 219.433 92.6253C219.155 91.7719 218.49 90.282 218 89.4295Z" fill="#0040B0"/>
<path d="M183.768 52.8106C178.599 48.3424 173.359 42.9826 166.527 41.2294C163.311 40.3978 160.405 39.1155 157.49 37.5225C155.236 36.2903 152.932 35.0279 150.397 34.487C147.862 33.946 145.568 33.2948 143.254 31.9723C140.559 30.4395 138.255 27.9449 135.199 27.1134C134.949 27.0433 134.658 27.0032 134.448 27.1535C134.077 27.434 134.317 28.0151 134.588 28.3958C135.58 29.8184 136.572 31.251 137.573 32.6736C137.724 32.894 137.884 33.1144 138.044 33.3449C138.205 33.5753 138.365 33.8057 138.525 34.0361C138.686 34.2665 138.856 34.507 139.026 34.7474C139.196 34.9879 139.367 35.2183 139.527 35.4688C139.697 35.7092 139.868 35.9496 140.038 36.1901C140.128 36.3103 140.208 36.4305 140.298 36.5507C140.469 36.7912 140.639 37.0316 140.809 37.2721C140.9 37.3923 140.98 37.5125 141.06 37.6327C141.31 37.9934 141.571 38.344 141.811 38.6947C141.982 38.9251 142.142 39.1555 142.302 39.386C142.462 39.6064 142.623 39.8368 142.783 40.0472C143.174 40.5882 143.554 41.1091 143.905 41.58C144.116 41.8705 144.316 42.141 144.506 42.3915C145.197 43.3232 145.749 44.0145 146.039 44.3451C146.48 44.8159 146.46 44.9362 146.179 44.8961C145.348 44.7558 144.566 44.3451 143.715 44.2148C143.534 44.1848 143.354 44.1647 143.174 44.2148C142.913 44.295 142.733 44.5154 142.603 44.7558C142.472 44.9963 142.372 45.2768 142.432 45.5573C142.482 45.7978 142.653 45.9881 142.813 46.1684C144.707 48.2122 147.151 49.755 149.455 51.2878C151.479 52.6303 153.533 53.8926 155.627 55.1149C159.614 57.4291 163.762 59.6933 168.14 61.166C168.731 61.3664 169.322 61.5467 169.923 61.687C178.609 63.7608 194.388 62.4584 194.388 62.4584C191.022 59.0521 187.335 55.9164 183.748 52.8207H183.758L183.768 52.8106Z" fill="#FFB2D2"/>
<path d="M183.618 52.6804C183.257 52.6804 182.897 52.6904 182.536 52.7004C179.751 52.7205 176.956 52.5702 174.191 52.2997C171.255 52.0092 168.31 51.6485 165.415 51.0975C158.632 49.7951 151.649 47.3606 146.82 42.2212C144.306 39.5463 142.382 36.3504 140.369 33.2948C139.257 31.6117 138.185 29.8584 137.373 28.0151C136.682 27.6344 135.961 27.3238 135.199 27.1134C134.949 27.0433 134.658 27.0032 134.448 27.1535C134.077 27.434 134.317 28.0151 134.588 28.3958C135.58 29.8184 136.572 31.251 137.573 32.6736C137.724 32.894 137.884 33.1144 138.044 33.3449C138.205 33.5753 138.365 33.8057 138.525 34.0361C138.686 34.2665 138.856 34.507 139.026 34.7474C139.196 34.9879 139.367 35.2183 139.527 35.4688C139.697 35.7092 139.868 35.9496 140.038 36.1901C140.128 36.3103 140.208 36.4305 140.298 36.5507C140.469 36.7912 140.639 37.0316 140.809 37.2721C140.9 37.3923 140.98 37.5125 141.06 37.6327C141.31 37.9934 141.571 38.344 141.811 38.6947C141.982 38.9251 142.142 39.1555 142.302 39.386C142.462 39.6064 142.623 39.8368 142.783 40.0472C143.174 40.5882 143.554 41.1091 143.905 41.58C144.116 41.8705 144.316 42.141 144.506 42.3915C145.197 43.3232 145.749 44.0145 146.039 44.3451C146.48 44.8159 146.46 44.9362 146.179 44.8961C145.348 44.7558 144.566 44.3451 143.715 44.2148C143.534 44.1848 143.354 44.1647 143.174 44.2148C142.913 44.295 142.733 44.5154 142.603 44.7558C142.472 44.9963 142.372 45.2768 142.432 45.5573C142.482 45.7978 142.653 45.9881 142.813 46.1684C144.707 48.2122 147.151 49.755 149.455 51.2878C151.479 52.6203 153.533 53.8926 155.627 55.1149C159.614 57.4291 163.762 59.6933 168.14 61.166C168.731 61.3664 169.322 61.5467 169.923 61.687C178.609 63.7608 194.388 62.4584 194.388 62.4584C191.022 59.0521 187.335 55.9164 183.748 52.8207C183.698 52.7806 183.648 52.7305 183.598 52.6904L183.618 52.6804Z" fill="#DF1278"/>
<path d="M165.915 124.155C165.935 123.864 165.885 123.574 165.845 123.293C165.514 121.37 165.053 119.386 164.302 117.583C163.811 116.34 163.21 115.198 162.509 114.467C162.158 114.106 161.617 113.555 160.966 112.874C159.834 111.712 158.341 110.199 156.828 108.666C156.027 107.855 155.225 107.043 154.464 106.272C153.211 105.881 152.069 105.48 151.047 105.08C150.456 104.849 149.905 104.619 149.394 104.398L149.244 104.929C149.244 104.929 150.206 105.741 151.528 106.903C151.789 107.133 152.069 107.384 152.36 107.644C152.65 107.905 152.951 108.175 153.252 108.446C153.402 108.586 153.552 108.726 153.712 108.867C155.375 110.399 157.069 111.962 158.471 113.746C158.742 114.086 159.002 114.447 159.122 114.868C159.222 115.218 159.222 115.589 159.222 115.95C159.222 116.871 159.333 117.793 159.323 118.715C159.323 119.646 159.283 120.618 159.723 121.47C159.894 121.8 160.114 122.091 160.345 122.392C160.695 122.842 160.916 123.423 160.876 124.004C160.825 124.586 160.505 125.127 160.094 125.547C159.814 125.838 159.503 126.098 159.243 126.409C159.202 126.449 159.172 126.499 159.162 126.549C159.152 126.609 159.162 126.669 159.212 126.689C159.243 126.709 159.283 126.709 159.323 126.699C159.513 126.669 159.703 126.599 159.874 126.509C160.154 126.359 160.425 126.189 160.675 125.988C161.236 125.547 161.757 125.006 162.098 124.365C162.539 123.524 162.549 122.672 162.519 121.75C162.478 120.458 162.378 119.156 162.298 117.863C162.278 117.533 162.258 117.202 162.278 116.871C162.278 116.781 162.298 116.681 162.328 116.591C162.328 116.561 162.358 116.521 162.388 116.511C162.428 116.491 162.478 116.541 162.509 116.571C162.999 117.212 163.31 117.963 163.581 118.725C163.861 119.526 164.122 120.328 164.352 121.139C164.622 122.071 164.913 123.083 164.803 124.065C164.783 124.245 164.753 124.415 164.693 124.586C164.622 124.806 164.232 125.427 163.911 125.948C163.781 126.158 164.031 126.389 164.232 126.249C164.913 125.758 165.815 124.946 165.935 124.345C165.945 124.275 165.955 124.205 165.965 124.135L165.915 124.155Z" fill="#FFF8D6"/>
<path d="M181.594 118.882C181.524 118.251 181.404 117.63 181.224 117.039C181.003 116.308 180.673 115.596 180.182 114.995C179.631 114.334 178.929 113.933 178.178 113.542C177.727 113.262 177.176 112.931 176.555 112.561C174.702 111.449 172.257 109.986 169.993 108.633C169.162 108.613 168.35 108.583 167.559 108.543C166.286 108.473 165.074 108.363 163.922 108.223C164.603 108.553 167.188 109.806 169.783 111.208C172.137 112.48 174.491 113.883 175.463 114.835C175.533 114.905 175.593 114.975 175.653 115.045C176.545 115.997 177.347 117.139 177.868 118.371C177.928 118.502 177.978 118.632 178.018 118.772C178.018 118.782 178.028 118.802 178.028 118.812C178.419 119.944 178.559 121.136 178.278 122.319C178.228 122.519 178.178 122.709 178.108 122.9C177.988 123.25 177.827 123.621 177.577 123.901C177.497 124.002 177.597 124.132 177.707 124.092C178.479 123.801 179.11 123.26 179.35 122.459C179.501 121.968 179.511 121.447 179.48 120.936C179.42 120.004 179.21 119.083 179 118.181C178.97 118.051 178.559 116.348 178.539 116.358C178.769 116.308 179.791 118.862 179.961 119.503C180.502 121.567 180.973 124.673 179.16 126.286C179.11 126.326 178.909 126.416 178.889 126.476C178.839 126.626 178.929 126.566 179.08 126.546C180.653 126.286 181.224 123.922 181.464 122.649C181.685 121.447 181.735 120.135 181.584 118.872L181.594 118.882Z" fill="#FFF8D6"/>
<path d="M170.073 111.38C172.377 111.901 174.691 112.342 177.006 112.843C176.855 112.753 176.715 112.663 176.565 112.572C174.711 111.46 172.267 109.998 170.003 108.645C169.171 108.625 168.36 108.595 167.568 108.555C166.296 108.485 165.084 108.375 163.932 108.234C164.613 108.565 167.198 109.817 169.792 111.22C169.883 111.27 169.983 111.32 170.073 111.37V111.38Z" fill="#FFDF72"/>
<path d="M152.35 107.654C152.641 107.914 152.941 108.185 153.242 108.455C153.392 108.596 153.542 108.736 153.703 108.876C154.063 109.207 154.434 109.547 154.795 109.888C155.065 110.078 155.346 110.269 155.616 110.449C157.74 111.822 159.954 113.054 162.138 114.336C162.298 114.436 162.459 114.527 162.619 114.627C162.579 114.577 162.539 114.537 162.499 114.486C162.148 114.126 161.607 113.575 160.956 112.894C159.824 111.731 158.331 110.219 156.818 108.686C156.017 107.874 155.215 107.063 154.454 106.291C153.202 105.901 152.06 105.5 151.038 105.099C150.447 104.869 149.896 104.638 149.385 104.418L149.234 104.949C149.234 104.949 150.196 105.76 151.519 106.923C151.779 107.153 152.06 107.403 152.35 107.664V107.654Z" fill="#FFDF72"/>
<path d="M215.777 84.7511C215.777 84.5708 215.777 84.3804 215.777 84.1901C215.777 84.15 215.777 84.0999 215.777 84.0498C215.777 83.8094 215.757 83.5689 215.747 83.3185C215.426 77.3876 213.112 68.6014 204.546 65.125C201.681 63.9629 198.726 63.2015 195.71 62.5703C192.494 61.8891 189.058 62.8007 185.932 61.5885C184.96 61.2178 184.089 60.6468 183.197 60.1058C176.735 56.1786 169.742 53.6339 162.209 52.9126C156.899 52.4116 151.579 51.9708 146.259 51.5701C140.358 51.1193 134.458 50.8187 128.567 50.3178C125.401 50.0473 122.195 49.4462 119.45 47.8633C117.827 46.9215 116.414 45.6592 115.102 44.3268C113.79 42.9943 112.487 41.8823 111.135 40.66C108.75 38.5261 106.366 36.3922 103.972 34.2683C101.427 32.0041 98.8822 29.75 96.3174 27.5058C94.995 26.3437 93.6626 25.2116 92.3502 24.0395C91.0377 22.8773 89.7454 21.7953 88.3027 20.8636C88.1324 20.7534 87.9521 20.6432 87.7818 20.543C87.3309 20.2725 86.8701 20.0221 86.4293 19.7416C85.9885 19.461 85.6278 19.0803 85.177 18.8599C85.1068 18.8299 85.0467 18.8099 84.9966 18.7998H84.9866C84.8564 18.7798 84.7662 18.8599 84.7662 19.0904C84.7662 19.2406 84.8263 19.4811 84.9365 19.7816C85.4976 21.3645 86.309 22.8272 87.0905 24.2999C87.3209 24.7408 87.902 25.8027 88.2927 26.504C88.3929 26.6843 88.1825 26.8747 88.0222 26.7645C86.9502 26.0732 84.9365 24.851 84.6259 25.2517C84.5458 25.3519 84.5859 25.5522 84.7662 25.9029C85.2872 26.8647 86.0486 28.0569 86.7298 29.0988C86.7699 29.1589 87.0504 29.5797 87.371 30.0505C87.6315 30.4412 87.2007 30.9121 86.7899 30.6917C84.095 29.2591 78.9255 26.524 79.1559 27.5058C79.3763 28.4275 86.4293 36.863 95.4659 45.4488C95.6863 45.6592 95.9067 45.8696 96.1271 46.08C96.1471 46.1 96.1672 46.1201 96.1872 46.1401C96.4076 46.3405 96.618 46.5408 96.8384 46.7512C96.8584 46.7713 96.8785 46.7913 96.8985 46.8113C97.1189 47.0217 97.3393 47.2221 97.5698 47.4325C97.5698 47.4325 97.5898 47.4525 97.5998 47.4625C98.772 48.5445 99.9742 49.6165 101.196 50.6684C101.216 50.6784 101.226 50.6985 101.247 50.7085C101.457 50.8888 101.667 51.0692 101.878 51.2495C101.928 51.2896 101.978 51.3397 102.028 51.3797C102.228 51.55 102.429 51.7204 102.629 51.8807C102.689 51.9307 102.749 51.9808 102.809 52.0309C103.01 52.1912 103.2 52.3615 103.4 52.5218C103.461 52.5719 103.531 52.632 103.601 52.6821C103.801 52.8424 103.992 53.0027 104.192 53.163C104.252 53.2131 104.312 53.2632 104.372 53.3033C104.583 53.4736 104.783 53.6339 104.983 53.7942C105.023 53.8242 105.054 53.8443 105.084 53.8743C106.015 54.6157 106.957 55.347 107.889 56.0483C107.949 56.0884 108.009 56.1385 108.059 56.1786C108.249 56.3188 108.44 56.4591 108.62 56.5893C108.7 56.6394 108.77 56.6995 108.85 56.7596C109.031 56.8899 109.211 57.0201 109.391 57.1503C109.482 57.2105 109.562 57.2706 109.652 57.3307C109.832 57.4609 110.003 57.5811 110.183 57.7014C110.273 57.7615 110.353 57.8216 110.443 57.8817C110.624 58.0019 110.794 58.1221 110.974 58.2424C111.055 58.2924 111.135 58.3526 111.215 58.4027C111.395 58.5229 111.586 58.6431 111.766 58.7733C111.826 58.8134 111.896 58.8535 111.956 58.8936C112.657 59.3544 113.349 59.7852 114.04 60.1959C114.23 60.3062 114.411 60.4164 114.601 60.5266C114.671 60.5666 114.751 60.6167 114.821 60.6568C114.992 60.757 115.162 60.8471 115.332 60.9473C115.423 60.9974 115.503 61.0475 115.593 61.0976C115.753 61.1878 115.924 61.2779 116.084 61.3681C116.174 61.4182 116.264 61.4683 116.364 61.5184C116.525 61.5985 116.685 61.6887 116.845 61.7688C116.935 61.8189 117.026 61.859 117.126 61.9091C117.286 61.9892 117.446 62.0694 117.597 62.1395C117.687 62.1796 117.777 62.2197 117.857 62.2698C117.867 62.2698 117.887 62.2798 117.897 62.2898C117.897 62.2898 117.917 62.2898 117.927 62.2998C118.067 62.3699 118.208 62.4301 118.348 62.5002C118.428 62.5403 118.498 62.5703 118.578 62.6004C118.628 62.6204 118.679 62.6404 118.729 62.6705C118.799 62.7006 118.869 62.7306 118.939 62.7607C118.989 62.7807 119.039 62.8007 119.089 62.8308H119.099C119.33 62.931 119.55 63.0312 119.781 63.1213C119.781 63.1213 120.081 70.0541 124.599 73.0696C124.92 73.29 125.211 73.4804 125.471 73.6707C126.232 74.2217 127.084 74.8128 127.575 75.6243C127.635 75.7345 127.695 75.8447 127.715 75.9649C127.735 76.0852 127.695 76.2254 127.595 76.2956C127.455 76.4058 127.244 76.3456 127.074 76.2755C126.503 76.0551 125.922 75.8247 125.371 75.5442C125.1 75.4039 124.83 75.2436 124.579 75.0733C124.489 75.0132 124.058 74.5824 123.938 74.6726C123.918 74.6926 123.898 74.7227 123.898 74.7728C123.898 74.7928 123.898 74.8228 123.898 74.8529C123.898 74.9431 123.928 75.0633 123.958 75.2136C123.968 75.2637 123.988 75.3137 123.998 75.3638C124.229 76.1252 124.609 76.9067 125.03 77.5679C125.341 78.0488 125.722 78.4896 126.192 78.8202C126.533 79.0506 127.324 79.3111 127.164 79.8721C127.164 79.8922 127.144 79.9122 127.134 79.9322C127.114 79.9723 127.084 80.0224 127.044 80.0625C127.004 80.1026 126.964 80.1326 126.914 80.1627C126.874 80.1927 126.824 80.2128 126.773 80.2428C126.713 80.2729 126.643 80.2929 126.573 80.3129C126.573 80.3129 126.573 80.3129 126.563 80.3129C126.493 80.333 126.423 80.343 126.343 80.353C126.333 80.353 126.323 80.353 126.303 80.353C126.232 80.353 126.152 80.3731 126.072 80.3731C126.052 80.3731 126.032 80.3731 126.012 80.3731C125.691 80.3731 125.271 80.2929 125.171 80.7137C125.11 80.9441 125.211 81.1946 125.301 81.415C126.172 83.2984 127.896 84.7611 129.899 85.3121C130.1 85.3622 130.36 85.5225 130.27 85.7029C130.23 85.783 130.14 85.8231 130.059 85.8531C129.288 86.1437 128.467 86.334 127.655 86.4442C127.244 86.5043 126.703 86.4442 126.293 86.4642C126.072 86.4642 125.421 86.5544 125.962 86.9251C127.405 87.8869 128.907 88.7585 130.46 89.5499C131.803 90.2312 133.115 90.9826 134.598 91.3332C134.858 91.3933 135.129 91.4534 135.379 91.5436C135.439 91.5736 135.51 91.6037 135.53 91.6638C135.57 91.784 135.419 91.8742 135.309 91.9043C134.548 92.1347 133.756 92.2349 132.965 92.2048C132.684 92.1948 132.033 92.0245 131.933 92.4052C131.903 92.4953 131.913 92.6156 131.953 92.7558C131.983 92.876 132.043 93.0163 132.113 93.1566C133.045 94.9799 135.149 96.2823 137.102 96.683C137.653 96.7932 138.214 96.8433 138.755 97.0036C139.116 97.1138 139.517 97.3643 139.487 97.735C139.467 97.8953 139.377 98.0255 139.276 98.1457C139.066 98.4062 138.385 98.6066 137.804 98.7268C137.443 98.8069 137.333 99.2678 137.623 99.4982C137.754 99.5984 137.854 99.6886 137.904 99.7286C138.906 100.6 140.058 101.332 141.28 101.863C142.402 102.353 143.624 102.514 144.777 102.945C146.4 103.556 147.932 104.387 149.515 105.109C151.098 105.83 152.791 106.441 154.484 106.952C154.725 107.022 154.965 107.102 155.216 107.172C156.668 107.593 158.281 107.984 160.055 108.314C160.105 108.314 160.155 108.334 160.205 108.344C161.056 108.505 161.948 108.645 162.88 108.775C163.07 108.805 163.23 108.835 163.421 108.865C163.591 108.885 163.792 108.895 163.962 108.916C165.124 109.046 166.326 109.156 167.599 109.236C168.38 109.276 169.201 109.306 170.033 109.326C170.334 109.326 170.634 109.346 170.935 109.346C172.127 109.356 173.359 109.346 174.641 109.296C175.052 109.276 175.453 109.256 175.844 109.236C175.944 109.236 176.044 109.226 176.144 109.216C176.485 109.196 176.815 109.176 177.146 109.146C177.196 109.146 177.246 109.146 177.296 109.136C177.677 109.106 178.048 109.066 178.398 109.026C178.458 109.026 178.519 109.016 178.579 109.006C178.899 108.966 179.22 108.926 179.53 108.885C179.571 108.885 179.611 108.885 179.651 108.865C180.362 108.765 181.043 108.655 181.674 108.525C181.694 108.525 181.714 108.525 181.735 108.525C182.386 108.395 182.997 108.254 183.578 108.094C183.578 108.074 183.578 108.064 183.588 108.044C183.588 108.064 183.588 108.074 183.588 108.084C186.483 107.303 188.477 106.231 189.869 105.058C190.992 104.107 191.933 102.884 192.554 101.542C193.176 100.2 193.166 98.5264 194.087 97.3042C194.468 96.7932 194.989 96.4025 195.52 96.0419C198.505 93.958 203.134 90.702 207.001 91.3733C207.292 91.4234 207.572 91.4634 207.863 91.5035C207.883 91.5035 207.903 91.5035 207.913 91.5035C208.494 91.5736 209.085 91.6237 209.666 91.6237H209.906C209.906 91.6237 214.675 91.4634 214.665 91.213C215.126 90.7622 215.286 88.6282 215.366 88.4579C215.366 88.4279 215.386 88.4078 215.396 88.3778C215.396 88.3677 215.396 88.3477 215.406 88.3377C215.406 88.3377 215.406 88.3177 215.406 88.3076C215.436 88.2375 215.457 88.1574 215.477 88.0772C215.487 88.0371 215.507 87.987 215.517 87.947C215.527 87.9069 215.537 87.8568 215.557 87.8167C215.567 87.7767 215.577 87.7266 215.587 87.6865C215.607 87.6164 215.617 87.5563 215.637 87.4761C215.637 87.426 215.657 87.3659 215.667 87.3158C215.667 87.2757 215.667 87.2457 215.687 87.2056C215.687 87.1655 215.697 87.1355 215.707 87.0954C215.707 87.0453 215.727 86.9952 215.727 86.9451C215.727 86.895 215.747 86.8349 215.747 86.7848C215.767 86.6045 215.787 86.4242 215.797 86.2238C215.797 86.0335 215.817 85.8331 215.827 85.6227C215.827 85.5726 215.827 85.5125 215.827 85.4624C215.827 85.3021 215.827 85.1318 215.827 84.9615V84.7912L215.777 84.7511Z" fill="#FFB2D2"/>
<path d="M158.732 56.691C160.234 57.6828 161.827 58.5244 163.53 59.1055C165.334 59.7166 167.217 59.947 169.121 60.0171C171.054 60.0873 172.998 60.0171 174.931 60.1273C176.745 60.2275 178.528 60.488 180.301 60.8887C183.557 61.6301 186.763 62.7722 190.109 63.0928C191.732 63.2431 193.375 63.1829 194.968 62.7622C195.209 62.7021 195.439 62.6319 195.67 62.5518C192.464 61.8906 189.047 62.7822 185.942 61.58C184.97 61.2093 184.098 60.6383 183.207 60.0973C176.745 56.1701 169.752 53.6254 162.218 52.904C159.002 52.6035 155.786 52.323 152.57 52.0625C154.654 53.5753 156.608 55.2584 158.742 56.691H158.732Z" fill="#9B015D"/>
<path d="M175.173 90.3303C179.05 89.4487 182.326 87.4249 182.817 82.7764C182.827 82.6862 182.827 82.6161 182.827 82.586C182.586 79.3401 175.323 70.9146 172.358 67.9391C172.217 68.0092 172.067 68.0794 171.927 68.1495C171.135 68.5102 170.354 68.9009 169.432 68.8408C168.44 68.7706 167.469 68.4 166.527 68.1695C163.722 67.4783 160.876 66.9072 158.021 66.3762C152.301 65.3043 146.54 64.3826 140.93 62.8998C138.595 62.2787 136.482 61.357 134.328 60.3852C133.296 59.9144 132.254 59.4435 131.172 59.0628C130.701 58.8925 130.21 58.7422 129.719 58.632C129.278 58.5318 128.617 58.5418 128.266 58.2813C127.725 57.8706 127.285 57.3096 126.664 57.0391C126.383 57.56 126.694 58.2613 126.864 58.8524C129.97 69.3617 138.285 78.3482 146.841 84.9804C149.636 87.1444 152.721 89.0078 156.088 90.1299C159.544 91.282 162.82 91.0215 166.377 91.0215C169.051 91.0215 172.287 90.9915 175.183 90.3303H175.173Z" fill="#9B015D"/>
<path d="M189.01 94.7996C190.182 93.938 191.204 92.8861 192.185 91.8241C193.167 90.7521 194.189 89.6902 195.391 88.8687C195.992 88.4679 196.634 88.1273 197.325 87.8869C197.976 87.6665 198.647 87.5663 199.329 87.5062C201.603 87.3058 203.977 87.3358 206.171 88.0472C206.602 88.1874 207.023 88.3577 207.423 88.5581L207.193 87.9069C206.782 86.7548 206.151 85.6928 205.33 84.7812C202.605 81.7556 196.313 74.7627 195.812 74.1616C195.502 73.7909 193.939 72.3082 192.907 71.647C192.877 71.8273 195.061 75.3037 195.812 76.6562C196.453 77.8083 197.054 79.1107 196.744 80.4532C196.573 81.1946 196.143 81.8458 195.632 82.3968C194.951 83.1281 194.129 83.7693 193.267 84.2903C191.514 85.3622 189.521 86.0535 187.968 87.4461C187.176 88.1574 186.475 88.9789 185.824 89.8204C185.323 90.4716 184.852 91.1429 184.291 91.744C183.68 92.3851 182.968 92.9061 182.187 93.3068C181.967 93.427 181.726 93.5072 181.486 93.5673C180.113 93.9079 178.711 94.1183 177.318 94.3988C176.056 94.6493 174.783 94.9298 173.581 95.4007C172.81 95.7113 171.708 96.2022 171.537 97.1239C171.447 97.5947 171.658 98.1257 171.988 98.4563C172.549 99.0173 173.401 99.1576 174.162 99.2177C175.916 99.3479 177.528 99.0975 179.212 99.7988C180.053 100.149 180.835 100.63 181.596 101.141C181.876 101.332 183.59 102.704 183.8 102.584C181.636 103.806 178.14 104.337 175.675 104.748C171.898 105.379 164.895 105.289 161.108 104.808C157.331 104.327 147.613 100.28 144.818 98.2459C143.616 97.3743 142.384 96.3725 141.472 95.1903C140.731 94.2486 140.3 93.1165 139.899 91.9944C139.238 90.121 138.727 88.2275 136.583 87.5663C136.373 87.5062 136.142 87.4461 136.002 87.2757C135.782 87.0253 135.862 86.6346 135.982 86.324C136.112 86.0134 136.273 85.6828 136.192 85.3622C136.062 84.8012 135.371 84.6509 134.83 84.4706C133.538 84.0498 132.636 83.0079 132.345 81.6855C132.105 80.5634 132.305 79.3812 132.706 78.3093C132.736 78.2491 132.756 78.179 132.786 78.1089C133.518 76.3857 132.967 74.382 131.404 73.3401C130.382 72.6589 129.45 72.0277 129.29 71.9175C127.617 70.6752 126.064 69.1825 125.212 67.2389C124.651 65.9766 124.431 64.574 124.541 63.1915C124.691 61.3681 125.142 61.2779 123.389 60.3663C114.763 55.898 106.929 50.1575 98.984 44.6073C95.1169 41.9023 91.0595 39.0871 88.8153 34.9295C87.9738 33.3766 93.5641 37.2237 96.1088 38.466C96.3292 38.5762 96.5295 38.2857 96.3492 38.1153C94.0149 35.9514 88.2944 30.5214 88.4246 28.8183C88.4447 28.5478 88.605 28.2572 88.8955 28.1971C89.4165 28.0969 90.6888 28.8082 91.6405 29.229C91.911 29.3492 92.1515 29.0186 91.9712 28.7982C90.779 27.3255 88.8254 25.1315 88.0339 23.9393C87.0822 22.5066 86.3208 20.9638 85.8699 19.3208C85.6495 19.1505 85.4291 18.9802 85.1887 18.8599C85.1186 18.8299 85.0584 18.8099 85.0083 18.7998H84.9983C84.8681 18.7798 84.7779 18.8599 84.7779 19.0904C84.7779 19.2406 84.838 19.4811 84.9482 19.7816C85.5093 21.3645 86.3208 22.8272 87.1022 24.2999C87.3326 24.7408 87.9137 25.8027 88.3044 26.514C88.4046 26.6943 88.2042 26.8747 88.0339 26.7745C86.972 26.0832 84.9382 24.851 84.6377 25.2517C84.5575 25.3519 84.5976 25.5522 84.7779 25.9029C85.2989 26.8647 86.0603 28.0569 86.7415 29.0988C86.7816 29.1589 87.0621 29.5797 87.3827 30.0505C87.6432 30.4412 87.2124 30.9121 86.8016 30.7017C84.1067 29.2691 78.9372 26.5441 79.1676 27.5159C79.388 28.4376 86.441 36.8731 95.4776 45.4589C95.698 45.6692 95.9184 45.8796 96.1388 46.09C96.1589 46.11 96.1789 46.1301 96.1989 46.1501C96.4193 46.3505 96.6297 46.5509 96.8501 46.7612C96.8702 46.7813 96.8902 46.8013 96.9102 46.8214C97.1306 47.0317 97.351 47.2321 97.5815 47.4425C97.5815 47.4425 97.6015 47.4625 97.6115 47.4726C98.7837 48.5545 99.9859 49.6265 101.208 50.6784C101.228 50.6885 101.238 50.7085 101.258 50.7185C101.469 50.8989 101.679 51.0792 101.889 51.2595C101.939 51.2996 101.99 51.3497 102.04 51.3898C102.24 51.5601 102.44 51.7304 102.641 51.8907C102.701 51.9408 102.761 51.9909 102.821 52.041C103.021 52.2013 103.212 52.3716 103.412 52.5319C103.472 52.5819 103.542 52.6421 103.613 52.6922C103.813 52.8524 104.003 53.0127 104.204 53.173C104.264 53.2231 104.324 53.2732 104.384 53.3133C104.594 53.4836 104.795 53.6439 104.995 53.8042C105.035 53.8343 105.065 53.8543 105.095 53.8843C106.027 54.6257 106.969 55.3571 107.9 56.0583C107.961 56.0984 108.021 56.1485 108.071 56.1886C108.261 56.3288 108.451 56.4691 108.632 56.5993C108.712 56.6494 108.782 56.7095 108.862 56.7696C109.043 56.8999 109.223 57.0301 109.403 57.1604C109.493 57.2205 109.574 57.2806 109.664 57.3407C109.844 57.4709 110.014 57.5912 110.195 57.7114C110.285 57.7715 110.365 57.8316 110.455 57.8917C110.635 58.0119 110.806 58.1322 110.986 58.2524C111.066 58.3025 111.146 58.3626 111.227 58.4127C111.407 58.5329 111.597 58.6531 111.778 58.7834C111.838 58.8234 111.908 58.8635 111.968 58.9036C112.669 59.3644 113.36 59.7952 114.052 60.206C114.242 60.3162 114.422 60.4264 114.613 60.5366C114.683 60.5766 114.763 60.6267 114.833 60.6668C115.004 60.767 115.174 60.8572 115.344 60.9573C115.434 61.0074 115.514 61.0575 115.605 61.1076C115.765 61.1978 115.935 61.288 116.096 61.3781C116.186 61.4282 116.276 61.4783 116.376 61.5284C116.536 61.6085 116.697 61.6987 116.857 61.7789C116.947 61.8289 117.037 61.869 117.137 61.9191C117.298 61.9993 117.458 62.0794 117.608 62.1495C117.698 62.1896 117.789 62.2297 117.869 62.2798C117.879 62.2798 117.899 62.2898 117.909 62.2998C117.909 62.2998 117.929 62.2998 117.939 62.3098C118.079 62.38 118.219 62.4401 118.36 62.5102C118.44 62.5503 118.51 62.5803 118.59 62.6104C118.64 62.6304 118.69 62.6505 118.74 62.6805C118.811 62.7106 118.881 62.7406 118.951 62.7707C119.001 62.7907 119.051 62.8108 119.101 62.8408H119.111C119.341 62.941 119.562 63.0412 119.792 63.1313C119.792 63.1313 120.093 70.0641 124.611 73.0796C124.932 73.3 125.222 73.4904 125.483 73.6807C126.244 74.2318 127.096 74.8228 127.587 75.6343C127.647 75.7445 127.707 75.8547 127.727 75.975C127.747 76.0952 127.707 76.2354 127.607 76.3056C127.466 76.4158 127.256 76.3557 127.086 76.2855C126.515 76.0651 125.934 75.8347 125.383 75.5542C125.112 75.4139 124.842 75.2536 124.591 75.0833C124.501 75.0232 124.07 74.5924 123.95 74.6826C123.93 74.7026 123.91 74.7327 123.91 74.7828C123.91 74.8028 123.91 74.8329 123.91 74.8629C123.91 74.9531 123.94 75.0733 123.97 75.2236C123.98 75.2737 124 75.3238 124.01 75.3739C124.24 76.1353 124.621 76.9167 125.042 77.5779C125.353 78.0588 125.733 78.4996 126.204 78.8302C126.545 79.0606 127.336 79.3211 127.176 79.8821C127.176 79.9022 127.156 79.9222 127.146 79.9423C127.126 79.9823 127.096 80.0324 127.056 80.0725C127.016 80.1126 126.976 80.1426 126.925 80.1727C126.885 80.2027 126.835 80.2228 126.785 80.2528C126.725 80.2829 126.655 80.3029 126.585 80.323C126.585 80.323 126.585 80.323 126.575 80.323C126.505 80.343 126.435 80.353 126.354 80.363C126.344 80.363 126.334 80.363 126.314 80.363C126.244 80.363 126.164 80.3831 126.084 80.3831C126.064 80.3831 126.044 80.3831 126.024 80.3831C125.703 80.3831 125.282 80.3029 125.182 80.7237C125.122 80.9541 125.222 81.2046 125.312 81.425C126.184 83.3084 127.907 84.7711 129.911 85.3222C130.111 85.3722 130.372 85.5325 130.282 85.7129C130.242 85.793 130.151 85.8331 130.071 85.8632C129.3 86.1537 128.478 86.344 127.667 86.4542C127.256 86.5143 126.715 86.4542 126.304 86.4743C126.084 86.4743 125.433 86.5644 125.974 86.9351C127.416 87.8969 128.919 88.7685 130.472 89.5599C131.814 90.2412 133.127 90.9926 134.61 91.3432C134.87 91.4033 135.141 91.4634 135.391 91.5536C135.451 91.5837 135.521 91.6137 135.541 91.6738C135.581 91.7941 135.431 91.8842 135.321 91.9143C134.559 92.1447 133.768 92.2449 132.977 92.2148C132.696 92.2048 132.045 92.0345 131.945 92.4152C131.915 92.5054 131.925 92.6256 131.965 92.7658C131.995 92.8861 132.055 93.0263 132.125 93.1666C133.057 94.9899 135.161 96.2923 137.114 96.6931C137.665 96.8033 138.226 96.8534 138.767 97.0136C139.128 97.1238 139.529 97.3743 139.499 97.745C139.479 97.9053 139.388 98.0355 139.288 98.1557C139.078 98.4162 138.397 98.6166 137.815 98.7368C137.455 98.817 137.345 99.2778 137.635 99.5082C137.765 99.6084 137.866 99.6986 137.916 99.7387C138.917 100.61 140.07 101.342 141.292 101.873C142.414 102.363 143.636 102.524 144.788 102.955C146.411 103.566 147.944 104.397 149.527 105.119C151.13 105.85 152.803 106.451 154.496 106.962C154.737 107.032 154.977 107.112 155.227 107.182C156.68 107.603 158.293 107.994 160.066 108.324C160.116 108.324 160.167 108.344 160.217 108.354C161.068 108.515 161.96 108.655 162.892 108.785C163.082 108.815 163.272 108.825 163.463 108.855C163.633 108.875 163.793 108.895 163.964 108.916C165.126 109.046 166.328 109.156 167.6 109.236C168.382 109.276 169.203 109.306 170.035 109.326C170.335 109.326 170.636 109.346 170.936 109.346C172.129 109.356 173.361 109.346 174.643 109.296C175.054 109.276 175.455 109.256 175.845 109.236C175.946 109.236 176.046 109.226 176.146 109.216C176.487 109.196 176.817 109.166 177.148 109.146C177.198 109.146 177.248 109.146 177.298 109.136C177.679 109.106 178.039 109.066 178.4 109.026C178.46 109.026 178.52 109.016 178.58 109.006C178.901 108.966 179.222 108.926 179.532 108.885C179.572 108.885 179.612 108.885 179.652 108.865C180.364 108.765 181.045 108.655 181.676 108.525C181.696 108.525 181.716 108.525 181.736 108.525C182.387 108.395 182.999 108.254 183.58 108.094C183.58 108.074 183.58 108.064 183.59 108.044C183.59 108.064 183.59 108.074 183.58 108.084C186.475 107.303 188.469 106.231 189.861 105.058C190.983 104.107 191.925 102.884 192.546 101.542C193.167 100.179 193.077 98.5465 194.059 97.3743C194.45 96.9135 195.011 96.4526 195.532 96.0819C198.207 94.2185 202.294 91.0627 206.522 91.3132C204.789 90.682 202.134 90.4917 200.3 90.8623C197.305 91.4835 194.91 93.2968 192.746 95.3706C191.154 96.8934 186.986 99.9791 186.956 99.9691C186.936 99.9691 186.936 99.7487 186.946 99.4682C186.966 98.5966 187.757 95.7213 189.01 94.7996Z" fill="#DF1278"/>
<path d="M160.996 101.752C162.69 100.61 170.043 98.3756 169.242 96.7226C163.581 98.7863 151.95 96.953 145.999 95.5304C144.576 95.1897 143.735 93.9975 144.837 92.9957C145.458 92.4347 146.51 92.1642 147.792 92.0339C149.075 91.9037 149.165 89.9601 147.832 89.7497C133.776 87.4956 140.609 83.0274 136.221 81.8953C134.868 81.5446 133.526 81.174 132.183 80.7933C132.163 79.9417 132.344 79.0901 132.644 78.2887C132.664 78.2285 132.694 78.1684 132.714 78.0983C133.446 76.3551 132.885 74.3414 131.312 73.2995C130.3 72.6282 129.378 72.0071 129.218 71.8869C127.545 70.6446 125.992 69.1519 125.141 67.2083C124.58 65.946 124.359 64.5434 124.469 63.1608C124.62 61.3375 125.07 61.2473 123.317 60.3356C118.659 57.9212 109.341 51.7098 104.152 48.1933C102.549 47.1113 100.355 48.6942 101.056 50.4976C101.076 50.5376 101.086 50.5677 101.106 50.5877C101.136 50.5877 101.166 50.6278 101.197 50.6478C101.407 50.8282 101.617 51.0085 101.828 51.1888C101.878 51.2289 101.928 51.279 101.978 51.3191C102.178 51.4894 102.379 51.6597 102.579 51.82C102.639 51.8701 102.699 51.9202 102.759 51.9703C102.96 52.1306 103.15 52.3009 103.35 52.4612C103.411 52.5113 103.481 52.5714 103.551 52.6215C103.751 52.7818 103.942 52.942 104.142 53.1023C104.202 53.1524 104.262 53.2025 104.322 53.2426C104.533 53.4129 104.733 53.5732 104.933 53.7335C104.973 53.7636 105.004 53.7836 105.034 53.8136C105.965 54.555 106.907 55.2864 107.839 55.9876C107.899 56.0277 107.959 56.0778 108.009 56.1179C108.199 56.2581 108.39 56.3984 108.57 56.5286C108.65 56.5787 108.72 56.6388 108.801 56.699C108.981 56.8292 109.161 56.9594 109.341 57.0897C109.432 57.1498 109.512 57.2099 109.602 57.27C109.782 57.4002 109.953 57.5205 110.133 57.6407C110.223 57.7008 110.303 57.7609 110.393 57.821C110.574 57.9412 110.744 58.0615 110.924 58.1817C111.005 58.2318 111.085 58.2919 111.165 58.342C111.345 58.4622 111.536 58.5824 111.716 58.7127C111.776 58.7527 111.846 58.7928 111.906 58.8329C112.608 59.2937 113.299 59.7245 113.99 60.1353C114.18 60.2455 114.361 60.3557 114.551 60.4659C114.621 60.506 114.701 60.556 114.771 60.5961C114.942 60.6963 115.112 60.7865 115.282 60.8867C115.373 60.9367 115.453 60.9868 115.543 61.0369C115.703 61.1271 115.874 61.2173 116.034 61.3074C116.124 61.3575 116.214 61.4076 116.314 61.4577C116.475 61.5379 116.635 61.628 116.795 61.7082C116.885 61.7583 116.976 61.7983 117.076 61.8484C117.236 61.9286 117.396 62.0087 117.557 62.0788C117.647 62.1189 117.737 62.159 117.817 62.2091C117.827 62.2091 117.847 62.2191 117.857 62.2291C117.857 62.2291 117.877 62.2291 117.887 62.2391C118.027 62.3093 118.168 62.3694 118.308 62.4395C118.388 62.4796 118.458 62.5096 118.538 62.5397C118.589 62.5597 118.639 62.5798 118.689 62.6098C118.759 62.6399 118.829 62.6699 118.899 62.7C118.949 62.72 118.999 62.7401 119.049 62.7701H119.059C119.29 62.8703 119.51 62.9705 119.741 63.0607C119.741 63.0607 120.041 69.9934 124.559 73.0089C124.88 73.2294 125.171 73.4197 125.431 73.6101C126.192 74.1611 127.044 74.7522 127.535 75.5636C127.595 75.6738 127.655 75.784 127.675 75.9043C127.695 76.0245 127.655 76.1648 127.555 76.2349C127.415 76.3451 127.204 76.285 127.034 76.2148C126.463 75.9944 125.882 75.764 125.331 75.4835C125.06 75.3432 124.79 75.1829 124.539 75.0126C124.449 74.9525 124.018 74.5217 123.898 74.6119C123.878 74.6319 123.858 74.662 123.858 74.7121C123.858 74.7321 123.858 74.7622 123.858 74.7922C123.858 74.8824 123.888 75.0026 123.918 75.1529C123.928 75.203 123.948 75.2531 123.958 75.3032C124.189 76.0646 124.569 76.846 124.99 77.5072C125.301 77.9881 125.682 78.4289 126.152 78.7595C126.353 78.8998 126.693 79.04 126.924 79.2504C126.944 79.2705 126.964 79.2805 126.984 79.3005C127.024 79.3406 127.054 79.3807 127.074 79.4308C127.074 79.4308 127.084 79.4408 127.084 79.4508C127.144 79.561 127.154 79.6812 127.114 79.8215C127.114 79.8415 127.094 79.8615 127.084 79.8816C127.064 79.9217 127.034 79.9717 126.994 80.0118C126.954 80.0519 126.914 80.082 126.874 80.112C126.834 80.1421 126.784 80.1621 126.733 80.1922C126.673 80.2222 126.603 80.2422 126.533 80.2623C126.533 80.2623 126.533 80.2623 126.523 80.2623C126.453 80.2823 126.383 80.2923 126.303 80.3124C126.293 80.3124 126.283 80.3124 126.263 80.3124C126.192 80.3124 126.112 80.3324 126.032 80.3324C126.012 80.3324 125.992 80.3324 125.972 80.3324C125.892 80.3324 125.802 80.3324 125.722 80.3324C125.461 80.3324 125.211 80.3625 125.131 80.673C125.07 80.9035 125.171 81.1539 125.261 81.3743C126.132 83.2578 127.856 84.7205 129.859 85.2715C130.06 85.3216 130.32 85.4819 130.23 85.6622C130.19 85.7424 130.1 85.7824 130.02 85.8125C129.248 86.103 128.427 86.2934 127.615 86.4036C127.415 86.4336 127.174 86.4336 126.934 86.4336C126.693 86.4336 126.463 86.4236 126.253 86.4336C126.032 86.4336 125.381 86.5238 125.922 86.8945C127.365 87.8563 128.867 88.7278 130.42 89.5193C131.763 90.2106 133.075 90.962 134.558 91.3026C134.818 91.3627 135.089 91.4228 135.339 91.513C135.399 91.533 135.46 91.5731 135.48 91.6332C135.52 91.7534 135.369 91.8436 135.259 91.8736C134.498 92.1041 133.706 92.2042 132.915 92.1742C132.634 92.1642 131.983 91.9939 131.883 92.3746C131.853 92.4647 131.863 92.5849 131.903 92.7252C131.933 92.8454 131.993 92.9857 132.063 93.1259C132.995 94.9493 135.099 96.2517 137.052 96.6524C137.603 96.7626 138.164 96.8127 138.705 96.973C138.976 97.0532 139.267 97.2135 139.377 97.4439C139.417 97.524 139.437 97.6042 139.427 97.6943C139.407 97.8546 139.317 97.9849 139.216 98.1051C139.006 98.3656 138.325 98.5659 137.744 98.6862C137.473 98.7463 137.343 99.0268 137.423 99.2572C137.443 99.3374 137.493 99.4075 137.563 99.4676C137.694 99.5678 137.794 99.658 137.844 99.698C138.846 100.57 139.998 101.301 141.22 101.832C142.342 102.323 143.564 102.483 144.717 102.914C146.34 103.525 147.872 104.357 149.455 105.078C151.058 105.809 152.731 106.41 154.424 106.921C154.665 106.991 154.905 107.072 155.156 107.142C156.608 107.562 158.221 107.953 159.995 108.284C160.045 108.284 160.095 108.304 160.145 108.314C160.996 108.474 161.868 108.624 162.8 108.755C162.99 108.785 163.191 108.805 163.381 108.825C163.551 108.845 163.972 108.915 164.142 108.925C165.304 109.055 166.266 109.115 167.539 109.185C167.799 109.206 168.069 109.216 168.34 109.226C168.35 109.226 168.37 109.226 168.38 109.216C168.911 109.236 169.422 109.266 169.973 109.276C170.274 109.276 170.574 109.296 170.875 109.296C172.067 109.306 173.299 109.296 174.581 109.246C174.992 109.226 175.393 109.206 175.784 109.185C175.884 109.185 175.984 109.175 176.084 109.165C176.425 109.145 176.755 109.125 177.076 109.095C177.126 109.095 177.176 109.095 177.226 109.085C177.607 109.055 177.968 109.015 178.328 108.975C178.388 108.975 178.449 108.965 178.509 108.955C178.829 108.915 179.15 108.875 179.46 108.835C179.5 108.835 179.541 108.835 179.581 108.815C179.671 108.805 179.781 108.705 179.911 108.554C181.414 106.771 186.584 103.515 179.571 104.407C163.541 106.45 157.54 104.056 160.956 101.752H160.996Z" fill="#9B015D"/>
<path d="M205.298 84.7415C205.298 84.7415 205.268 84.7014 205.247 84.6914C204.256 85.5931 203.264 86.4947 202.252 87.3864C203.574 87.4264 204.877 87.6068 206.129 88.0175C206.56 88.1578 206.981 88.3281 207.381 88.5285L207.151 87.8773C206.74 86.7251 206.109 85.6632 205.288 84.7515L205.298 84.7415Z" fill="#9B015D"/>
<path d="M213.612 87.8882C211.689 88.3691 209.695 88.329 207.751 87.9684C207.551 87.9283 207.351 87.8882 207.15 87.8381C206.74 86.696 206.108 85.6441 205.297 84.7424C204.045 83.3599 202.051 81.1358 200.198 79.082C199.787 79.8835 199.356 80.675 198.925 81.4564C198.925 81.4764 198.905 81.4865 198.895 81.5065C197.162 84.6623 194.708 87.3572 191.752 89.421C191.622 89.5112 190.37 90.3528 188.777 91.4347C184.769 94.1397 184.709 100.061 188.696 102.786C188.747 102.816 188.787 102.846 188.827 102.876C189.458 103.287 190.119 103.707 190.8 104.068C191.482 103.307 192.063 102.445 192.483 101.523C193.105 100.161 193.095 98.5077 194.016 97.2855C194.397 96.7746 194.918 96.3838 195.449 96.0232C198.434 93.9393 203.063 90.6834 206.93 91.3546C207.221 91.4047 207.501 91.4448 207.792 91.4848C207.812 91.4848 207.832 91.4848 207.842 91.4848C208.423 91.555 209.014 91.6051 209.595 91.6051H209.835C209.835 91.6051 214.604 91.4448 214.594 91.1943C215.055 90.7435 215.215 88.6095 215.295 88.4392C215.295 88.4092 215.315 88.3891 215.325 88.3591C215.325 88.3491 215.325 88.329 215.335 88.319C215.335 88.319 215.335 88.299 215.335 88.289C215.365 88.2188 215.386 88.1387 215.406 88.0585C215.416 88.0185 215.436 87.9684 215.446 87.9283C215.456 87.8882 215.466 87.8381 215.486 87.7981C215.496 87.758 215.506 87.7079 215.516 87.6678C215.536 87.5977 215.546 87.5376 215.566 87.4574C215.566 87.4073 215.586 87.3472 215.596 87.2971C215.596 87.2571 215.596 87.227 215.616 87.1869C214.965 87.4875 214.294 87.7279 213.602 87.8982L213.612 87.8882Z" fill="#9B015D"/>
<path d="M200.068 81.1438C199.968 81.4444 199.908 81.755 199.908 82.0856C199.908 82.847 200.198 83.5282 200.679 84.0492C201.21 84.6202 201.961 84.9909 202.813 84.9909C203.053 84.9909 203.274 84.9608 203.494 84.9007C203.675 84.8607 203.845 84.8006 204.005 84.7304C203.975 84.7505 204.075 84.8607 204.256 85.021C204.726 85.4518 205.718 86.2232 205.839 86.2933C206.61 86.7241 206.42 87.6458 207.131 88.1667C208.263 88.9983 210.086 89.6996 211.429 90.2205C212.451 90.6213 213.533 90.9218 214.605 91.1923C214.605 91.1923 214.424 90.7214 214.094 90.0602C213.994 89.8599 213.883 89.6495 213.753 89.4291C213.172 88.4072 212.32 87.215 211.268 86.6139C209.696 85.7222 206.84 83.8187 205.578 82.9672C205.668 82.6867 205.718 82.3961 205.718 82.0956C205.718 80.4926 204.416 79.2003 202.813 79.2003C202.492 79.2003 202.192 79.2504 201.901 79.3505C200.649 77.8578 195.6 72.1974 192.965 71.4961C192.965 71.4961 193.185 71.6965 193.576 72.1072C194.277 72.8386 195.52 74.2411 197.012 76.355C197.954 77.6775 198.996 79.2704 200.068 81.1539V81.1438ZM202.853 79.7713C203.294 79.7713 203.644 80.122 203.644 80.5628C203.644 81.0036 203.294 81.3542 202.853 81.3542C202.412 81.3542 202.062 81.0036 202.062 80.5628C202.062 80.122 202.412 79.7713 202.853 79.7713Z" fill="#00144A"/>
<path d="M202.854 81.6562C203.455 81.6562 203.936 81.1753 203.936 80.5742C203.936 79.9731 203.455 79.4922 202.854 79.4922C202.253 79.4922 201.762 79.9731 201.762 80.5742C201.762 81.1753 202.253 81.6562 202.854 81.6562Z" fill="#FFF8D6"/>
<path d="M219.433 92.6362C218.702 91.7045 217.821 90.7227 216.769 89.7108C216.739 89.6808 216.698 89.6507 216.668 89.6206C216.248 89.2199 215.797 88.8092 215.316 88.3984C215.316 88.3984 215.316 88.4184 215.296 88.4385C215.216 88.6088 214.825 89.3902 214.374 89.841C214.284 89.9312 214.184 90.0114 214.094 90.0614C214.424 90.7227 214.605 91.1935 214.605 91.1935C213.533 90.923 212.451 90.6325 211.429 90.2217C210.076 89.6908 208.263 88.9995 207.131 88.168L207.401 88.5286L209.716 91.6143L211.329 93.7683L211.359 93.8083L211.619 94.159L213.022 93.1171C213.022 93.1171 217.78 96.3029 220.626 98.6072C221.648 99.4387 222.399 100.14 222.559 100.521C223.03 101.653 223.601 97.9259 219.464 92.6562L219.433 92.6362Z" fill="#FFF8D6"/>
<path d="M219.163 96.6235C217.67 95.3712 216.198 94.0688 215.005 92.5059C214.655 92.0451 214.334 91.5642 214.084 91.0533C213.182 90.8228 212.28 90.5624 211.429 90.2217C210.076 89.6908 208.263 88.9995 207.131 88.168L207.401 88.5286L209.706 91.6143L211.319 93.7683L211.349 93.8083L211.609 94.159L212.861 93.0169C212.861 93.0169 217.77 96.3029 220.606 98.6072C221.628 99.4387 222.379 100.14 222.539 100.521C222.699 100.901 222.86 100.731 222.86 100.15C221.768 98.8175 220.475 97.7456 219.163 96.6436V96.6235Z" fill="#FFDF72"/>
<path d="M212.1 90.4922C212.1 90.4922 212.1 90.4722 212.1 90.4622C211.88 90.382 211.649 90.3019 211.429 90.2217C210.076 89.6908 208.263 88.9995 207.131 88.168L207.401 88.5286L209.706 91.6143L211.655 94.2662L213.012 93.1171L213.142 93.2072C212.641 92.3857 212.32 91.4039 212.11 90.5023L212.1 90.4922Z" fill="#FFDF72"/>
<path d="M183.017 80.7548C183.017 80.5945 182.986 80.4241 182.966 80.2538C182.936 80.0134 182.886 79.7629 182.826 79.5025C182.806 79.4223 182.786 79.3321 182.766 79.252C182.325 77.629 181.303 75.5752 179.25 73.0205C179.129 72.8703 179.009 72.72 178.879 72.5597C178.839 72.5096 178.799 72.4595 178.759 72.4194C178.759 72.4194 178.739 72.3994 178.739 72.3894C178.689 72.3293 178.638 72.2692 178.588 72.209C178.558 72.169 178.518 72.1289 178.478 72.0788C178.438 72.0287 178.388 71.9686 178.338 71.9185C178.268 71.8384 178.198 71.7682 178.138 71.6881C178.097 71.638 178.047 71.5879 177.997 71.5378C177.967 71.4977 177.937 71.4677 177.907 71.4276C177.767 71.2673 177.617 71.107 177.466 70.9467C177.466 70.9467 177.466 70.9467 177.466 70.9367C177.446 70.9167 177.426 70.8966 177.406 70.8766C177.346 70.8165 177.296 70.7564 177.236 70.6963C177.146 70.6061 177.066 70.5059 176.975 70.4157C176.975 70.4157 176.975 70.4157 176.965 70.3957C176.935 70.3657 176.895 70.3256 176.875 70.2955C176.835 70.2555 176.795 70.2054 176.755 70.1653C176.685 70.0952 176.615 70.015 176.545 69.9449C176.525 69.9248 176.505 69.9048 176.485 69.8848C176.444 69.8447 176.394 69.7946 176.354 69.7445C175.663 69.0232 174.962 68.2818 174.23 67.6006C174.2 67.5705 174.17 67.5405 174.14 67.5104C173.88 67.2599 173.619 66.9995 173.349 66.749C173.339 66.739 173.319 66.719 173.309 66.7089C173.038 66.4485 172.768 66.188 172.487 65.9175C172.447 65.8774 172.407 65.8373 172.367 65.7973C172.096 65.5368 171.826 65.2863 171.545 65.0258C171.505 64.9858 171.455 64.9457 171.415 64.8956C171.135 64.6351 170.844 64.3646 170.564 64.1041C170.453 64.004 169.642 63.2526 169.572 63.2025C169.271 62.932 168.971 62.6515 168.67 62.381C168.64 62.3509 168.6 62.3209 168.57 62.2908C168.269 62.0203 167.979 61.7598 167.678 61.4893C167.648 61.4593 167.608 61.4292 167.578 61.3992C166.947 60.8381 166.316 60.2771 165.675 59.7161C163.921 58.1833 162.148 56.6605 160.365 55.1577C158.662 53.7251 156.969 52.2523 155.145 50.97C152.15 48.8661 148.844 47.2131 145.357 46.1111C144.886 45.9608 144.426 45.8205 143.985 45.7003C143.875 45.6702 143.774 45.6402 143.674 45.6202C143.003 45.4398 142.312 45.2795 141.61 45.2495C140.458 45.2094 139.376 44.5281 138.445 43.907C137.513 43.2758 136.671 42.5946 135.74 41.9935C135.028 41.5326 134.277 41.1419 133.465 40.9115C132.814 40.7211 132.123 40.651 131.452 40.5408C126.282 39.6993 122.395 36.6036 118.077 33.9487C117.686 33.7082 117.326 33.4979 116.985 33.3175C116.985 33.3175 116.985 33.3175 116.965 33.3175C116.865 33.2674 116.765 33.2073 116.665 33.1673C116.644 33.1673 116.624 33.1472 116.604 33.1372C116.524 33.0971 116.444 33.0571 116.364 33.027C116.334 33.017 116.314 33.007 116.284 32.9969C116.214 32.9669 116.144 32.9368 116.073 32.9168C116.043 32.9168 116.023 32.8968 115.993 32.8867C115.933 32.8667 115.863 32.8467 115.803 32.8266C115.783 32.8266 115.753 32.8066 115.733 32.8066C115.673 32.7866 115.603 32.7765 115.552 32.7565C115.532 32.7565 115.522 32.7565 115.502 32.7565C115.362 32.7264 115.232 32.7264 115.122 32.7365C115.102 32.7365 115.092 32.7365 115.082 32.7365C115.042 32.7365 115.011 32.7565 114.981 32.7665C114.961 32.7665 114.951 32.7866 114.941 32.7966C114.911 32.8166 114.891 32.8266 114.871 32.8467C114.861 32.8567 114.841 32.8767 114.831 32.8867C114.811 32.9068 114.801 32.9368 114.791 32.9669C114.701 33.1673 114.701 33.4177 114.771 33.6181C114.811 33.7583 114.911 33.8886 115.001 34.0088C115.092 34.129 115.182 34.2593 115.262 34.3795C115.332 34.4797 115.392 34.5698 115.462 34.67C115.542 34.7802 115.613 34.8904 115.693 35.0006C115.783 35.1208 115.863 35.2511 115.953 35.3713C116.043 35.5015 116.144 35.6418 116.234 35.772C116.334 35.9223 116.444 36.0626 116.534 36.2129C116.644 36.3731 116.755 36.5234 116.865 36.6837C116.985 36.854 117.095 37.0143 117.216 37.1846C117.336 37.355 117.456 37.5353 117.586 37.7056C117.706 37.8759 117.837 38.0663 117.967 38.2466C118.097 38.4269 118.227 38.6273 118.358 38.8076C118.488 38.998 118.628 39.1983 118.758 39.3887C118.889 39.579 119.039 39.7794 119.169 39.9798C119.309 40.1801 119.45 40.3805 119.59 40.5809C119.73 40.7813 119.88 40.9816 120.021 41.192C120.161 41.3924 120.311 41.6028 120.451 41.8031C120.592 42.0035 120.742 42.2139 120.882 42.4143C121.023 42.6146 121.173 42.815 121.313 43.0254C121.453 43.2358 121.604 43.4261 121.744 43.6265C121.884 43.8269 122.024 44.0272 122.165 44.2176C122.305 44.4179 122.445 44.6083 122.585 44.7986C122.726 44.999 122.856 45.1793 122.996 45.3697C123.136 45.56 123.267 45.7404 123.397 45.9207C123.527 46.101 123.657 46.2814 123.788 46.4517C123.918 46.622 124.038 46.7923 124.158 46.9626C124.289 47.1329 124.399 47.2832 124.519 47.4435C124.629 47.5938 124.739 47.7441 124.86 47.9044C124.97 48.0446 125.07 48.1849 125.18 48.3251C125.28 48.4554 125.381 48.5856 125.471 48.7158C125.561 48.8361 125.651 48.9463 125.741 49.0665C125.801 49.1366 125.861 49.2168 125.912 49.2869C126.162 49.6075 126.372 49.8479 126.513 50.0182C127.645 51.2605 125.701 50.0784 124.238 49.888C123.878 49.8379 123.537 49.8479 123.287 49.9782C123.287 49.9782 123.287 49.9782 123.267 49.9782C123.227 49.9982 123.197 50.0182 123.166 50.0483C123.156 50.0483 123.146 50.0683 123.126 50.0784C123.096 50.0984 123.076 50.1284 123.056 50.1485C123.056 50.1585 123.036 50.1685 123.026 50.1886C122.996 50.2286 122.976 50.2687 122.946 50.3188C122.926 50.3589 122.906 50.419 122.896 50.4691C122.896 50.4891 122.896 50.5091 122.886 50.5192C122.886 50.5592 122.866 50.6093 122.866 50.6594C122.866 50.6795 122.866 50.6995 122.866 50.7195C122.776 52.1421 123.667 54.0156 124.248 55.2779C124.99 56.8809 125.942 58.3936 127.044 59.7762C129.228 62.5312 132.003 64.7153 134.587 67.0496C134.628 67.0896 134.658 67.1197 134.698 67.1497C134.778 67.2299 134.868 67.3 134.948 67.3802C135.008 67.4303 135.058 67.4804 135.118 67.5304C135.199 67.6006 135.279 67.6707 135.359 67.7408C135.399 67.7809 135.449 67.821 135.499 67.861C135.589 67.9412 135.689 68.0314 135.78 68.1115C135.82 68.1416 135.85 68.1716 135.89 68.2117C136.01 68.3219 136.13 68.4221 136.251 68.5323C136.301 68.5824 136.361 68.6325 136.411 68.6725C136.461 68.7126 136.511 68.7627 136.561 68.8028C136.581 68.8228 136.611 68.8429 136.631 68.8629C136.681 68.913 136.741 68.9631 136.792 69.0031C136.862 69.0633 136.932 69.1334 137.002 69.1935C137.052 69.2436 137.112 69.2937 137.172 69.3438C137.252 69.4139 137.333 69.484 137.413 69.5642C137.453 69.6043 137.493 69.6343 137.533 69.6644C137.653 69.7645 137.763 69.8748 137.884 69.9749C137.924 70.015 137.964 70.0451 138.004 70.0751C138.084 70.1452 138.164 70.2154 138.244 70.2855C138.284 70.3256 138.334 70.3556 138.374 70.3957C138.455 70.4658 138.525 70.5259 138.605 70.5961C138.645 70.6362 138.695 70.6762 138.735 70.7163C138.745 70.7263 138.765 70.7464 138.775 70.7564C138.845 70.8165 138.925 70.8866 138.996 70.9467C139.016 70.9668 139.046 70.9868 139.066 71.0068C139.176 71.107 139.286 71.1972 139.386 71.2873C139.426 71.3174 139.456 71.3475 139.486 71.3775C139.557 71.4376 139.627 71.5078 139.697 71.5679C139.737 71.6079 139.777 71.638 139.827 71.6781C139.897 71.7382 139.957 71.7983 140.027 71.8484C140.068 71.8784 140.098 71.9085 140.128 71.9385C140.218 72.0187 140.308 72.0888 140.388 72.159C140.398 72.159 140.408 72.179 140.428 72.189C140.518 72.2692 140.619 72.3493 140.709 72.4194C140.739 72.4495 140.769 72.4695 140.799 72.4896C140.859 72.5396 140.919 72.5897 140.979 72.6398C141.009 72.6699 141.039 72.6899 141.079 72.72C141.14 72.7701 141.2 72.8202 141.25 72.8602C141.28 72.8803 141.3 72.9003 141.33 72.9304C141.49 73.0606 141.64 73.1908 141.791 73.3011C141.811 73.3211 141.831 73.3411 141.851 73.3511C141.901 73.3912 141.941 73.4213 141.991 73.4613C142.011 73.4814 142.041 73.5014 142.061 73.5114C142.101 73.5415 142.141 73.5716 142.191 73.6116C142.211 73.6216 142.232 73.6417 142.252 73.6517C142.312 73.6918 142.362 73.7318 142.412 73.7719C142.622 73.9222 142.823 74.0725 143.033 74.2528C143.233 74.4231 143.434 74.5934 143.634 74.7738C143.754 74.8739 143.865 74.9841 143.975 75.0943C144.005 75.1244 144.035 75.1545 144.065 75.1845C144.185 75.3047 144.305 75.4149 144.426 75.5352C144.446 75.5552 144.476 75.5853 144.496 75.6053C144.626 75.7355 144.746 75.8658 144.876 75.996C144.886 76.016 144.906 76.0261 144.916 76.0461C145.047 76.1864 145.177 76.3266 145.307 76.4669C145.307 76.4669 145.307 76.4669 145.317 76.4869C146.359 77.639 147.191 78.9815 148.273 80.0835C148.914 80.7247 149.675 81.2256 150.447 81.7065C153.282 83.4597 156.287 84.9525 159.413 86.1046C160.655 86.5654 161.998 86.9962 163.41 87.3669C164.793 87.7376 166.236 88.0382 167.688 88.2385C168.249 88.3187 168.8 88.3788 169.361 88.4189C169.412 88.4189 169.462 88.4189 169.502 88.4289C170.103 88.4689 170.704 88.499 171.295 88.499H171.315C171.626 88.499 171.936 88.499 172.237 88.479C172.848 88.4489 173.459 88.3988 174.05 88.3187C174.641 88.2385 175.232 88.1183 175.803 87.978C176.815 87.7176 177.767 87.3469 178.669 86.866C179.32 86.5154 179.941 86.1046 180.522 85.6137C181.504 84.7822 182.536 83.8404 182.906 82.5681C182.996 82.2575 183.067 81.9069 183.097 81.5061C183.117 81.2657 183.117 81.0052 183.097 80.7247H183.087L183.017 80.7548Z" fill="#FFB2D2"/>
<path d="M183.017 80.7531C183.017 80.5928 182.987 80.4225 182.967 80.2521C182.937 80.0117 182.887 79.7612 182.827 79.5008C182.807 79.4206 182.787 79.3304 182.767 79.2503C182.326 77.6273 181.304 75.5735 179.25 73.0188C179.13 72.8686 179.01 72.7183 178.879 72.558C178.839 72.5079 178.799 72.4578 178.759 72.4177C178.759 72.4177 178.739 72.3977 178.739 72.3877C178.689 72.3276 178.639 72.2675 178.589 72.2073C178.559 72.1673 178.519 72.1272 178.479 72.0771C178.439 72.027 178.389 71.9669 178.338 71.9168C178.268 71.8367 178.198 71.7665 178.138 71.6864C178.098 71.6363 178.048 71.5862 177.998 71.5361C177.968 71.496 177.938 71.466 177.908 71.4259C177.797 71.3057 177.687 71.1855 177.577 71.0552C177.597 71.5361 177.607 72.007 177.617 72.4879C177.637 75.0826 177.517 78.2785 175.653 80.3122C173.9 82.2158 170.935 82.5063 168.52 82.1957C165.485 81.815 162.589 80.693 159.844 79.3906C157.2 78.1383 154.665 76.6756 152.2 75.1227C149.275 73.2793 146.43 71.2857 143.625 69.2619C140.128 66.7273 136.712 64.0724 133.536 61.147C133.536 61.147 133.516 61.127 133.506 61.117C131.643 59.3938 131.031 56.6888 131.983 54.3345C132.043 54.1742 132.113 54.0339 132.174 53.9037C132.715 52.8417 133.506 51.89 134.558 51.4291C133.135 49.8562 131.663 48.3334 130.19 46.8106C127.785 44.3361 125.481 41.7614 123.267 39.1065C122.305 37.9443 121.294 36.7321 120.432 35.4397C119.651 34.9288 118.859 34.4279 118.058 33.927C117.667 33.6865 117.306 33.4761 116.966 33.2958C116.966 33.2958 116.966 33.2958 116.946 33.2958C116.845 33.2457 116.745 33.1856 116.645 33.1455C116.625 33.1455 116.605 33.1255 116.585 33.1155C116.505 33.0754 116.425 33.0353 116.344 33.0053C116.314 32.9952 116.294 32.9852 116.264 32.9752C116.194 32.9451 116.124 32.9151 116.054 32.8951C116.024 32.8951 116.004 32.875 115.974 32.865C115.914 32.845 115.844 32.8149 115.783 32.8049C115.763 32.8049 115.733 32.7849 115.713 32.7849C115.653 32.7648 115.583 32.7548 115.533 32.7448C115.513 32.7448 115.503 32.7448 115.483 32.7448C115.343 32.7147 115.212 32.7147 115.102 32.7247C115.082 32.7247 115.072 32.7247 115.062 32.7247C115.022 32.7247 114.992 32.7448 114.962 32.7548C114.942 32.7548 114.932 32.7748 114.922 32.7849C114.892 32.8049 114.872 32.8149 114.852 32.8349C114.842 32.845 114.822 32.865 114.812 32.875C114.792 32.8951 114.782 32.9251 114.772 32.9552C114.681 33.1555 114.681 33.406 114.751 33.6064C114.792 33.7466 114.892 33.8769 114.982 33.9971C115.072 34.1173 115.162 34.2475 115.242 34.3678C115.313 34.4679 115.373 34.5581 115.443 34.6583C115.523 34.7685 115.593 34.8787 115.673 34.9889C115.763 35.1091 115.844 35.2394 115.934 35.3596C116.024 35.4898 116.124 35.6301 116.214 35.7603C116.314 35.9106 116.425 36.0509 116.515 36.2011C116.625 36.3614 116.735 36.5117 116.845 36.672C116.966 36.8423 117.076 37.0026 117.196 37.1729C117.316 37.3432 117.436 37.5236 117.567 37.6939C117.697 37.8742 117.817 38.0545 117.947 38.2349C118.078 38.4252 118.208 38.6156 118.338 38.7959C118.468 38.9863 118.609 39.1866 118.739 39.377C118.879 39.5773 119.019 39.7677 119.15 39.9681C119.29 40.1684 119.43 40.3688 119.57 40.5692C119.711 40.7695 119.861 40.9699 120.001 41.1803C120.141 41.3807 120.292 41.591 120.432 41.7914C120.572 41.9918 120.722 42.2022 120.863 42.4025C121.003 42.6029 121.153 42.8033 121.294 43.0137C121.434 43.214 121.584 43.4144 121.724 43.6148C121.865 43.8151 122.005 44.0155 122.145 44.2059C122.285 44.4062 122.426 44.5966 122.566 44.7869C122.706 44.9773 122.836 45.1676 122.977 45.358C123.107 45.5383 123.247 45.7287 123.377 45.909C123.508 46.0893 123.638 46.2696 123.768 46.44C123.898 46.6103 124.019 46.7806 124.139 46.9509C124.259 47.1112 124.379 47.2715 124.499 47.4318C124.61 47.5821 124.72 47.7323 124.84 47.8926C124.95 48.0329 125.05 48.1731 125.161 48.3134C125.261 48.4436 125.361 48.5739 125.451 48.7041C125.541 48.8243 125.632 48.9345 125.722 49.0548C125.782 49.1249 125.842 49.205 125.892 49.2752C126.142 49.5958 126.353 49.8362 126.493 50.0065C127.625 51.2488 125.682 50.0666 124.219 49.8763C123.858 49.8262 123.518 49.8362 123.267 49.9664C123.267 49.9664 123.267 49.9664 123.247 49.9664C123.207 49.9865 123.177 50.0065 123.147 50.0366C123.137 50.0366 123.127 50.0566 123.107 50.0666C123.077 50.0867 123.057 50.1167 123.037 50.1368C123.037 50.1468 123.017 50.1568 123.007 50.1768C122.977 50.2169 122.957 50.257 122.927 50.3071C122.906 50.3471 122.886 50.4073 122.876 50.4574C122.876 50.4774 122.876 50.4974 122.866 50.5074C122.866 50.5575 122.846 50.5976 122.846 50.6477C122.846 50.6677 122.846 50.6878 122.846 50.7078C122.756 52.1304 123.648 54.0039 124.229 55.2662C124.97 56.8691 125.922 58.3819 127.024 59.7645C127.265 60.075 127.525 60.3756 127.785 60.6761C127.836 60.7363 127.886 60.7863 127.936 60.8465C128.176 61.117 128.427 61.3875 128.677 61.6579C128.747 61.7281 128.817 61.8082 128.887 61.8784C129.118 62.1188 129.358 62.3492 129.589 62.5796C129.689 62.6798 129.799 62.78 129.899 62.8802C130.07 63.0405 130.23 63.1908 130.4 63.3511C130.711 63.6416 131.021 63.9221 131.332 64.2026C132.404 65.1544 133.486 66.0861 134.538 67.0378C134.578 67.0779 134.608 67.108 134.648 67.138C134.728 67.2182 134.818 67.2883 134.899 67.3685C134.959 67.4185 135.009 67.4686 135.069 67.5187C135.149 67.5889 135.229 67.659 135.309 67.7291C135.349 67.7692 135.399 67.8093 135.45 67.8493C135.54 67.9295 135.64 68.0196 135.73 68.0998C135.77 68.1298 135.8 68.1599 135.84 68.2C135.96 68.3102 136.081 68.4104 136.201 68.5206C136.251 68.5707 136.311 68.6208 136.361 68.6608C136.411 68.7009 136.461 68.751 136.512 68.7911C136.532 68.8111 136.562 68.8311 136.582 68.8512C136.632 68.9013 136.692 68.9514 136.742 68.9914C136.812 69.0515 136.882 69.1217 136.952 69.1818C137.002 69.2319 137.063 69.282 137.123 69.3321C137.203 69.4022 137.283 69.4723 137.363 69.5525C137.403 69.5925 137.443 69.6226 137.483 69.6526C137.604 69.7528 137.714 69.863 137.834 69.9632C137.874 70.0033 137.914 70.0333 137.954 70.0634C138.034 70.1335 138.114 70.2037 138.195 70.2738C138.235 70.3139 138.285 70.3439 138.325 70.384C138.405 70.4541 138.475 70.5142 138.555 70.5844C138.595 70.6244 138.645 70.6645 138.686 70.7046C138.696 70.7146 138.716 70.7346 138.726 70.7447C138.796 70.8048 138.876 70.8749 138.946 70.935C138.966 70.955 138.996 70.9751 139.016 70.9951C139.126 71.0953 139.237 71.1855 139.337 71.2756C139.377 71.3057 139.407 71.3357 139.437 71.3658C139.507 71.4259 139.577 71.496 139.657 71.5561C139.697 71.5962 139.737 71.6263 139.788 71.6664C139.858 71.7265 139.918 71.7866 139.988 71.8367C140.028 71.8667 140.058 71.8968 140.088 71.9268C140.178 72.007 140.268 72.0771 140.349 72.1472C140.359 72.1472 140.369 72.1673 140.389 72.1773C140.479 72.2574 140.579 72.3376 140.669 72.4077C140.699 72.4378 140.729 72.4578 140.759 72.4778C140.819 72.5279 140.88 72.578 140.94 72.6281C140.97 72.6582 141 72.6782 141.04 72.7083C141.1 72.7584 141.16 72.8084 141.21 72.8485C141.24 72.8686 141.26 72.8986 141.29 72.9187C141.451 73.0489 141.601 73.1791 141.751 73.2893C141.771 73.3094 141.791 73.3294 141.811 73.3394C141.861 73.3795 141.901 73.4096 141.952 73.4496C141.972 73.4697 142.002 73.4897 142.022 73.4997C142.062 73.5298 142.102 73.5598 142.152 73.5999C142.172 73.6099 142.192 73.63 142.212 73.64C142.272 73.6801 142.322 73.7201 142.372 73.7602C142.583 73.9105 142.783 74.0608 142.993 74.2411C143.194 74.4114 143.394 74.5817 143.595 74.762C143.715 74.8622 143.825 74.9724 143.935 75.0826C143.965 75.1127 143.995 75.1427 144.025 75.1728C144.146 75.293 144.266 75.4032 144.386 75.5234C144.406 75.5435 144.436 75.5635 144.456 75.5936C144.586 75.7238 144.707 75.8541 144.837 75.9843C144.847 76.0043 144.867 76.0143 144.877 76.0244C145.007 76.1646 145.137 76.3049 145.268 76.4451C145.268 76.4451 145.268 76.4451 145.278 76.4652C146.32 77.6173 147.151 78.9598 148.233 80.0618C148.874 80.703 149.636 81.2039 150.407 81.6848C153.242 83.438 156.248 84.9307 159.374 86.0829C160.616 86.5437 161.958 86.9745 163.371 87.3452C164.753 87.7159 166.196 88.0164 167.649 88.2168C168.21 88.2969 168.761 88.357 169.322 88.3971C169.372 88.3971 169.422 88.3971 169.462 88.4071C170.063 88.4472 170.664 88.4773 171.255 88.4773H171.275C171.586 88.4773 171.897 88.4773 172.197 88.4572C172.808 88.4272 173.419 88.3771 174.01 88.2969C174.602 88.2168 175.193 88.0966 175.764 87.9563C176.776 87.6958 177.727 87.3251 178.629 86.8443C179.28 86.4936 179.901 86.0829 180.482 85.592C181.464 84.7604 182.496 83.8187 182.867 82.5464C182.957 82.2358 183.027 81.8851 183.057 81.4844C183.077 81.244 183.077 80.9835 183.057 80.703L183.017 80.7531Z" fill="#DF1278"/>
</svg>
