<svg width="130" height="128" viewBox="0 0 130 128" fill="none" xmlns="http://www.w3.org/2000/svg">
<path d="M45.0507 117.892L0.000244141 97.8925L35.4576 86.2993L88.169 80.3672L127.389 93.6891L45.0507 117.892Z" fill="#101619"/>
<path d="M34.6809 60.0973L35.5176 55.6342C35.6871 54.7483 36.0715 53.9073 36.6482 53.2121L68.3503 14.3901C69.5374 12.9323 71.4481 12.4053 72.9971 13.1118C75.7671 14.3677 78.537 15.6124 81.307 16.8684C85.0493 18.5616 88.7803 20.2661 92.5113 21.9706C96.2423 23.6751 99.9959 25.402 103.738 27.1401C106.904 28.6091 110.16 29.9324 113.224 31.6144C114.061 32.0742 114.863 32.6573 115.463 33.4198C116.096 34.2384 116.424 35.3262 116.876 36.2793C117.113 36.7727 117.17 37.3558 117.068 37.9277L113.088 59.5815L56.3659 77.2206L34.6922 60.0861L34.6809 60.0973Z" fill="#4D82B8"/>
<path d="M116.48 36.7059C110.838 34.6426 76.6828 28.5199 64.5175 28.3741C67.4683 23.3055 69.1417 18.4164 68.3502 14.3906L36.6142 53.2462C36.0602 53.9302 35.6871 54.7376 35.5288 55.5787L34.6921 60.0978L35.2122 60.5127C35.2122 60.5127 35.2914 60.4454 35.4383 60.3221C35.2914 62.105 36.4446 63.7983 37.9144 65.6262L45.3424 74.8663C46.5296 76.3465 48.2029 77.0081 49.8875 76.6493L101.24 65.8616C103.422 65.4019 105.219 63.3273 105.818 60.58C106.418 57.799 105.66 54.9058 103.896 53.2574L116.706 37.6928C117 37.3451 116.898 36.8293 116.503 36.6835L116.48 36.7059Z" fill="#00144A"/>
<path d="M34.6809 60.0967L45.0372 117.892L128.001 93.5248L117.113 37.2543C117.057 36.974 114.117 38.1402 113.834 38.2299L34.6922 60.0967H34.6809Z" fill="#4D82B8"/>
<path d="M35.3699 59.7313C35.3699 59.7313 112.454 31.8764 116.83 37.2253L112.387 39.1653C111.437 39.5802 110.578 40.2194 109.888 41.0268L83.1718 72.0327L82.0751 72.3467C81.8151 72.4252 81.5664 72.4813 81.3063 72.5486L80.1079 72.8177L44.9574 59.0585C43.9172 58.6548 42.7753 58.5314 41.6334 58.722L35.3699 59.7313Z" fill="#00144A"/>
<path d="M45.0365 117.887L128 93.5195L127.084 88.7761C116.683 84.47 84.7659 71.2154 83.1831 70.3295C81.2837 69.2754 77.7223 71.877 77.7223 71.877C77.7223 71.877 49.2876 105.956 43.9963 111.966L45.0591 117.887H45.0365Z" fill="#00144A"/>
<path d="M127.367 93.7107C126.746 92.2529 125.615 90.7615 125.615 90.7615C125.615 90.7615 85.422 73.369 83.7374 72.3822C82.0528 71.4066 78.8984 73.7502 78.8984 73.7502C78.8984 73.7502 52.7927 105.878 48.9148 110.329C46.3935 113.223 45.783 116.071 45.6699 117.697L127.356 93.6995L127.367 93.7107Z" fill="#4D82B8"/>
<path d="M46.8906 32.2695L45.3078 56.9734L44.9573 59.0703L80.1078 72.8296L81.3062 72.5605C81.5662 72.5044 81.815 72.4371 82.075 72.3586L83.1717 72.0446L109.888 41.0387C110.578 40.2313 111.437 39.5921 112.387 39.1772L113.868 38.5268L113.777 38.0109L113.687 30.6211L46.868 32.2807L46.8906 32.2695Z" fill="#D5DADD"/>
<path d="M81.804 66.2997C79.441 66.2997 77.0781 66.1539 74.7716 65.7614C72.5217 65.3801 70.3736 64.741 68.282 63.8775C64.3927 62.2852 60.6956 60.1545 57.6656 57.2278C54.6469 54.301 52.4083 50.5556 51.402 46.2832C50.7915 43.704 50.6332 40.9903 50.6445 38.2878C50.6558 36.2581 50.7689 34.2172 50.8141 32.1875L46.8796 32.2884L45.2968 56.9923L44.9463 59.0892L80.0968 72.8485L81.2952 72.5794C81.5553 72.5233 81.804 72.456 82.064 72.3775L83.1607 72.0635L88.418 65.9633C86.202 66.1875 83.9861 66.3221 81.7814 66.3221L81.804 66.2997Z" fill="#D094B0"/>
</svg>
