<svg width="320" height="240" viewBox="0 0 320 240" fill="none" xmlns="http://www.w3.org/2000/svg">
<rect y="51" width="320" height="138" rx="24" fill="#89D1FF"/>
<path d="M248.93 146.234L243.211 143.594L145.304 134.611C145.304 134.611 106.007 130.174 90.8009 129.35C71.9361 128.324 53.2058 127.794 52.0704 131.772C50.935 135.75 63.4583 141.713 95.3174 153.934C117.069 162.277 127.122 163.171 135.127 160.583L183.429 146.344L248.938 146.234H248.93Z" fill="#1B90FF"/>
<path d="M201.688 129.633L248.93 146.244C248.93 146.244 250.914 147.32 251.612 142.838C252.142 139.465 252.529 135.033 249.947 128.657L206.978 113.754L201.688 117.127V129.633Z" fill="#FF7F4C"/>
<path d="M248.93 146.235C248.93 146.235 250.914 147.312 251.612 142.829C251.764 141.845 201.688 125.402 201.688 125.402V129.624L248.93 146.235Z" fill="#8D2A00"/>
<path d="M250.939 131.48C250.67 130.58 250.351 129.638 249.947 128.646L206.977 113.742L206.498 114.053L207.575 117.544L250.939 131.48Z" fill="#FFAB92"/>
<path d="M168.97 44.8711L170.122 46.0402C171.03 46.9653 171.804 48.0166 172.418 49.1605L206.977 113.753C206.977 113.753 210.215 120.81 201.687 129.633L135.252 160.432C133.452 161.265 131.475 161.668 129.482 161.593H129.432L168.97 44.8711Z" fill="#FF7F4C"/>
<path d="M116.127 158.185C118.465 158.984 121.131 158.505 123.982 156.949C115.841 149.783 116.548 123.769 126.22 95.3165C135.648 67.5702 150.417 46.8634 161.182 45.1813C159.912 42.7422 158.247 41.0769 156.17 40.3705C155.631 40.1854 155.068 40.0845 154.487 40.034C154.286 40.0256 154.092 40.0004 153.89 40.0004C142.99 39.8911 126.867 62.2715 116.556 92.6168C108.322 116.856 106.118 139.321 110.004 150.725C110.753 152.525 111.611 154.157 112.561 155.603C113.579 156.84 114.765 157.714 116.127 158.177V158.185Z" fill="#FF7F4C"/>
<path d="M126.211 95.3182C116.539 123.771 115.833 149.785 123.974 156.951C134.302 151.316 147.061 131.433 155.732 105.941C164.664 79.6578 166.506 55.4607 161.174 45.1914C150.409 46.8735 135.64 67.5803 126.211 95.3267V95.3182Z" fill="#A93E00"/>
<path d="M154.059 110.651C154.631 109.103 155.186 107.53 155.733 105.941C164.665 79.6578 166.506 55.4607 161.174 45.1914C156.296 45.9568 148.407 51.6591 140.871 63.9553C140.871 63.9553 159.341 67.1513 154.059 110.659V110.651Z" fill="#450B00"/>
<path d="M169.012 92.6812L145.302 138.513L129.432 161.575H129.482C131.467 161.651 133.443 161.255 135.252 160.423L201.713 129.628L164.984 130.333C173.042 109.766 176.048 80.8164 176.048 80.8164L169.012 92.6812Z" fill="#8D2A00"/>
<path d="M206.978 113.744L197.727 96.4521L174.926 63.9453C174.926 63.9453 175.268 75.8064 173.689 85.0305L207.567 117.546C207.626 115.174 206.97 113.744 206.97 113.744H206.978Z" fill="#FFAB92"/>
<path d="M161.174 45.1813C159.904 42.7422 158.238 41.0769 156.161 40.3704C155.623 40.1854 155.059 40.0845 154.479 40.034C154.277 40.0256 154.084 40.0004 153.882 40.0004C146.901 39.9331 137.792 49.0838 129.424 63.634C129.432 63.634 136.278 61.5061 140.862 63.9452C147.792 53.0956 155.11 46.1317 161.165 45.1813H161.174Z" fill="#C35500"/>
<path d="M170.257 46.3178C168.138 42.8443 161.468 41.8687 158.129 40.7332C156.935 40.3295 155.716 40.1109 154.479 40.0352C155.051 40.0856 155.615 40.1865 156.161 40.3716C158.239 41.0781 159.913 42.7434 161.174 45.1824C166.498 55.4517 164.664 79.6488 155.732 105.932C147.07 131.424 134.302 151.307 123.974 156.942C121.123 158.498 118.457 158.977 116.119 158.178C114.756 157.715 113.562 156.841 112.553 155.604C112.586 155.655 112.62 155.714 112.654 155.764C115.16 159.532 125.059 162.316 129.433 161.584C143.52 159.229 158.323 136.714 167.432 109.91C176.38 83.5765 177.692 58.5047 170.257 46.3178Z" fill="#FFAB92"/>
<path d="M166.38 43.3155C164.716 42.4772 161.377 41.607 158.13 40.7332C156.936 40.3295 155.716 40.1109 154.48 40.0352C155.052 40.0856 155.616 40.1865 156.162 40.3716C158.24 41.0781 159.913 42.7434 161.175 45.1824C166.503 55.484 164.324 86.6559 151.348 117.595C170.332 88.5677 171.22 54.59 166.38 43.3155Z" fill="#FFAB92"/>
</svg>
