<svg width="130" height="128" viewBox="0 0 130 128" fill="none" xmlns="http://www.w3.org/2000/svg">
<path d="M104.202 95.0089L86.3422 89.885L70.6386 85.38L61.5583 82.7752C61.1067 82.6452 60.5216 82.5263 59.9025 82.4285C58.9848 82.284 57.9893 82.1907 57.2343 82.1907H44.1916V82.1862C42.9583 81.7806 40.6421 81.4673 39.3626 81.4573C38.0661 81.4473 38.1122 81.7706 39.4208 82.1907H35.677V82.1862C34.4437 81.7806 32.1274 81.4673 30.8479 81.4573C29.5515 81.4473 29.5976 81.7706 30.9062 82.1907H27.1624V82.1862C25.9291 81.7806 23.6128 81.4673 22.3334 81.4573C21.0369 81.4473 21.083 81.7706 22.3916 82.1907H18.6478V82.1862C17.4144 81.7806 15.0982 81.4673 13.8187 81.4573C12.5222 81.4473 12.5684 81.7706 13.877 82.1907H1.17914C0.232267 82.1907 -0.148915 82.3185 0.0526 82.5096C0.142432 82.5941 0.343954 82.6919 0.666863 82.7963C0.717849 82.813 0.773674 82.8297 0.831943 82.8463C0.853794 82.853 0.870792 82.8585 0.895071 82.8652L1.10144 82.9241C1.10386 82.9252 1.1063 82.9263 1.11116 82.9286C1.12572 82.9352 1.13787 82.9408 1.15244 82.9474L29.7821 94.7356L30.3721 94.9789C31.2777 95.3512 33.1763 95.6535 34.6136 95.6535H103.935C105.319 95.6535 105.435 95.3645 104.194 95.0089H104.202Z" fill="#101619"/>
<path d="M102.709 33.4817C102.35 32.8265 101.705 32.4055 100.913 32.4156L87.129 32.5909L87.1459 32.571C87.1548 32.4998 87.1588 32.4311 87.1653 32.3599L82.1457 32.4237C82.127 32.5 82.1059 32.5763 82.0898 32.6549L78.1319 32.7053L78.1489 32.6854C78.1578 32.6142 78.1618 32.5455 78.1683 32.4743L73.1487 32.5381C73.13 32.6144 73.1089 32.6907 73.0927 32.7694L69.1349 32.8197L69.1518 32.7999C69.1607 32.7286 69.1648 32.6599 69.1712 32.5887L64.1516 32.6525C64.133 32.7288 64.1119 32.8051 64.0957 32.8838L60.1379 32.9341L60.1548 32.9143C60.1637 32.843 60.1678 32.7743 60.1742 32.7031L55.1546 32.7669C55.136 32.8432 55.1149 32.9195 55.0987 32.9982L41.6804 33.1688C40.8148 33.1798 39.9842 33.6343 39.3849 34.336C38.9862 34.8046 38.6894 35.3823 38.5528 36.0168C38.5366 36.093 38.5253 36.1717 38.5141 36.2503C38.5095 36.2798 38.5026 36.3093 38.498 36.3388L31.6171 91.381L31.4746 92.5159C31.2563 94.2551 32.3287 95.6493 33.8711 95.6296L92.8704 94.8794C94.3343 94.8607 95.6881 93.5069 95.8952 91.8537L96.0377 90.7163L99.7598 60.9463L102.885 35.9418L102.99 35.0993C103.065 34.4901 102.955 33.9323 102.709 33.4841L102.709 33.4817Z" fill="#00144A"/>
<path d="M125.064 95.7095L51.6792 96.6427C49.7619 96.6671 48.01 95.2629 47.7619 93.5032L39.8857 37.5557C39.6375 35.7985 40.9919 34.3523 42.9062 34.328L116.583 33.391C118.241 33.3699 119.762 34.5867 119.977 36.1094L127.936 92.6444C128.171 94.3152 126.882 95.6864 125.064 95.7095Z" fill="#00144A"/>
<path d="M125.071 93.3068L52.4879 94.2299C50.5915 94.254 48.8589 92.8683 48.6135 91.1325L40.8606 35.9232C40.6182 34.1874 41.9549 32.7626 43.8512 32.7385L116.723 31.8118C118.363 31.7909 119.864 32.9908 120.077 34.4939L127.909 90.2835C128.141 91.9311 126.869 93.2864 125.068 93.3093" fill="#D5DADD"/>
<path d="M121.779 46.6174L42.5041 47.6256L40.8606 35.9232C40.6182 34.1874 41.9549 32.7626 43.8512 32.7385L116.723 31.8118C118.363 31.7909 119.864 32.9908 120.077 34.4939L121.779 46.6174Z" fill="#FA4F96"/>
<path d="M67.1365 36.617C67.2217 37.3418 66.7756 37.9361 66.138 37.9442C65.5004 37.9523 64.9142 37.3712 64.829 36.6463C64.7437 35.9214 65.1899 35.3271 65.8275 35.319C66.465 35.3109 67.0512 35.8921 67.1365 36.617Z" fill="#00144A"/>
<path d="M94.5991 36.2732C94.6844 36.9981 94.2382 37.5924 93.6006 37.6005C92.9631 37.6086 92.3769 37.0274 92.2916 36.3026C92.2064 35.5777 92.6526 34.9834 93.2901 34.9753C93.9277 34.9672 94.5139 35.5483 94.5991 36.2732Z" fill="#00144A"/>
<path d="M91.8729 32.1069C91.8488 30.2162 93.2967 28.7385 94.6325 28.675C96.0566 28.6103 97.1076 30.2573 96.9822 32.3534C96.8568 34.4495 95.599 36.2068 94.1748 36.2715" stroke="#00144A" stroke-width="1.86233" stroke-miterlimit="10"/>
<path d="M64.52 32.4506C64.496 30.56 65.9439 29.0823 67.2797 29.0187C68.7038 28.954 69.7549 30.601 69.6294 32.6971C69.504 34.7932 68.2461 36.5505 66.822 36.6152" stroke="#00144A" stroke-width="1.86233" stroke-miterlimit="10"/>
<path d="M94.6352 28.675C96.0593 28.6103 97.1103 30.2573 96.9849 32.3534C96.8595 34.4495 95.6016 36.2068 94.1775 36.2715" stroke="#00144A" stroke-width="1.86233" stroke-miterlimit="10" stroke-linecap="round"/>
<path d="M67.2824 29.0304C68.7065 28.9657 69.7575 30.6127 69.6321 32.7088C69.5067 34.8049 68.2488 36.5622 66.8247 36.627" stroke="#00144A" stroke-width="1.86233" stroke-miterlimit="10" stroke-linecap="round"/>
<path d="M116.202 88.3257L59.2094 89.0505C58.156 89.0639 57.1988 88.3101 57.0754 87.3701L52.5599 53.3868C52.4336 52.4444 53.1875 51.6713 54.2409 51.6579L111.233 50.9331C112.287 50.9197 113.244 51.6735 113.368 52.6135L117.883 86.5968C118.009 87.5393 117.255 88.3124 116.202 88.3257Z" stroke="#FA4F96" stroke-width="1.40236" stroke-miterlimit="10"/>
<path d="M100.739 76.3133L97.1714 76.3587L96.7369 72.857C96.6358 72.0465 95.877 71.3915 95.0506 71.402C94.2242 71.4126 93.6319 72.0847 93.733 72.8953L94.1675 76.3969L90.5996 76.4423C89.7732 76.4528 89.1808 77.1249 89.2819 77.9355C89.3829 78.746 90.1418 79.401 90.9681 79.3905L94.5361 79.3451L94.9705 82.8468C95.0716 83.6573 95.8304 84.3123 96.6568 84.3018C97.4832 84.2913 98.0755 83.6191 97.9745 82.8086L97.54 79.3069L101.108 79.2615C101.934 79.251 102.527 78.5788 102.426 77.7683C102.324 76.9578 101.566 76.3028 100.739 76.3133Z" fill="#FA4F96"/>
<path d="M91.4116 68.7329L90.7814 68.3534C90.3144 68.0822 89.8357 67.848 89.3206 67.6534C90.6375 66.2902 91.3364 64.361 91.0687 62.2061C90.5607 58.1339 86.7914 54.8783 82.6399 54.9311C78.4884 54.9838 75.561 58.3443 76.0665 62.4165C76.3343 64.5714 77.5362 66.5132 79.2232 67.8382C75.7556 69.5991 73.6618 73.3169 74.1917 77.5727L74.4212 79.4166C74.5223 80.2271 75.2811 80.8821 76.1075 80.8716L84.3688 80.7665C85.1952 80.756 85.7875 80.0838 85.6865 79.2733C85.5854 78.4628 84.8266 77.8078 84.0003 77.8183L77.2396 77.9043L77.1932 77.5345C76.6606 73.2591 79.7602 69.7493 84.1152 69.6939L84.8656 69.6844C86.4252 69.6645 88.1328 70.1039 89.4497 70.8622L90.0601 71.2248C90.8114 71.6763 91.709 71.4809 92.0927 70.7918C92.4763 70.1051 92.1779 69.2039 91.4242 68.7524L91.4043 68.733L91.4116 68.7329ZM83.0283 57.8937C85.5074 57.8622 87.7814 59.8272 88.0846 62.2588C88.3877 64.6903 86.6058 66.7069 84.1291 66.7384C81.6524 66.7699 79.376 64.8049 79.0728 62.3734C78.7697 59.9418 80.5516 57.9252 83.0283 57.8937Z" fill="#FA4F96"/>
</svg>
