<?xml version="1.0" encoding="UTF-8"?>
<!--Generator: Apple Native CoreSVG 232.5-->
<!DOCTYPE svg
PUBLIC "-//W3C//DTD SVG 1.1//EN"
       "http://www.w3.org/Graphics/SVG/1.1/DTD/svg11.dtd">
<svg version="1.1" xmlns="http://www.w3.org/2000/svg" xmlns:xlink="http://www.w3.org/1999/xlink" width="3300" height="2200">
 <!--glyph: "", point size: 100.0, font version: "19.0d6e1", template writer version: "123"-->
 <style>.SFSymbolsPreviewWireframe {fill:none;opacity:1.0;stroke:black;stroke-width:0.5}
</style>
 <g id="Notes">
  <rect height="2200" id="artboard" style="fill:white;opacity:1" width="3300" x="0" y="0"/>
  <line style="fill:none;stroke:black;opacity:1;stroke-width:0.5;" x1="263" x2="3036" y1="292" y2="292"/>
  <text style="stroke:none;fill:black;font-family:sans-serif;font-size:13;font-weight:bold;" transform="matrix(1 0 0 1 263 322)">Weight/Scale Variations</text>
  <text style="stroke:none;fill:black;font-family:sans-serif;font-size:13;text-anchor:middle;" transform="matrix(1 0 0 1 559.711 322)">Ultralight</text>
  <text style="stroke:none;fill:black;font-family:sans-serif;font-size:13;text-anchor:middle;" transform="matrix(1 0 0 1 856.422 322)">Thin</text>
  <text style="stroke:none;fill:black;font-family:sans-serif;font-size:13;text-anchor:middle;" transform="matrix(1 0 0 1 1153.13 322)">Light</text>
  <text style="stroke:none;fill:black;font-family:sans-serif;font-size:13;text-anchor:middle;" transform="matrix(1 0 0 1 1449.84 322)">Regular</text>
  <text style="stroke:none;fill:black;font-family:sans-serif;font-size:13;text-anchor:middle;" transform="matrix(1 0 0 1 1746.56 322)">Medium</text>
  <text style="stroke:none;fill:black;font-family:sans-serif;font-size:13;text-anchor:middle;" transform="matrix(1 0 0 1 2043.27 322)">Semibold</text>
  <text style="stroke:none;fill:black;font-family:sans-serif;font-size:13;text-anchor:middle;" transform="matrix(1 0 0 1 2339.98 322)">Bold</text>
  <text style="stroke:none;fill:black;font-family:sans-serif;font-size:13;text-anchor:middle;" transform="matrix(1 0 0 1 2636.69 322)">Heavy</text>
  <text style="stroke:none;fill:black;font-family:sans-serif;font-size:13;text-anchor:middle;" transform="matrix(1 0 0 1 2933.4 322)">Black</text>
  <line style="fill:none;stroke:black;opacity:1;stroke-width:0.5;" x1="263" x2="3036" y1="1903" y2="1903"/>
  <g transform="matrix(0.2 0 0 0.2 263 1933)">
   <path d="m46.2402 4.15039c21.5332 0 39.4531-17.8711 39.4531-39.4043s-17.9688-39.4043-39.502-39.4043c-21.4844 0-39.3555 17.8711-39.3555 39.4043s17.9199 39.4043 39.4043 39.4043Zm0-7.42188c-17.7246 0-31.8848-14.209-31.8848-31.9824s14.1113-31.9824 31.8359-31.9824c17.7734 0 32.0312 14.209 32.0312 31.9824s-14.209 31.9824-31.9824 31.9824Zm-17.9688-31.9824c0 2.14844 1.51367 3.61328 3.75977 3.61328h10.498v10.5957c0 2.19727 1.46484 3.71094 3.61328 3.71094 2.24609 0 3.71094-1.51367 3.71094-3.71094v-10.5957h10.5957c2.19727 0 3.71094-1.46484 3.71094-3.61328 0-2.19727-1.51367-3.71094-3.71094-3.71094h-10.5957v-10.5469c0-2.24609-1.46484-3.75977-3.71094-3.75977-2.14844 0-3.61328 1.51367-3.61328 3.75977v10.5469h-10.498c-2.24609 0-3.75977 1.51367-3.75977 3.71094Z"/>
  </g>
  <g transform="matrix(0.2 0 0 0.2 281.506 1933)">
   <path d="m58.5449 14.5508c27.2461 0 49.8047-22.6074 49.8047-49.8047 0-27.2461-22.6074-49.8047-49.8535-49.8047-27.1973 0-49.7559 22.5586-49.7559 49.8047 0 27.1973 22.6074 49.8047 49.8047 49.8047Zm0-8.30078c-23.0469 0-41.4551-18.457-41.4551-41.5039s18.3594-41.5039 41.4062-41.5039 41.5527 18.457 41.5527 41.5039-18.457 41.5039-41.5039 41.5039Zm-22.6562-41.5039c0 2.39258 1.66016 4.00391 4.15039 4.00391h14.3555v14.4043c0 2.44141 1.66016 4.15039 4.05273 4.15039 2.44141 0 4.15039-1.66016 4.15039-4.15039v-14.4043h14.4043c2.44141 0 4.15039-1.61133 4.15039-4.00391 0-2.44141-1.70898-4.15039-4.15039-4.15039h-14.4043v-14.3555c0-2.49023-1.70898-4.19922-4.15039-4.19922-2.39258 0-4.05273 1.70898-4.05273 4.19922v14.3555h-14.3555c-2.49023 0-4.15039 1.70898-4.15039 4.15039Z"/>
  </g>
  <g transform="matrix(0.2 0 0 0.2 304.924 1933)">
   <path d="m74.8535 28.3203c34.8145 0 63.623-28.8086 63.623-63.5742 0-34.8145-28.8574-63.623-63.6719-63.623-34.7656 0-63.5254 28.8086-63.5254 63.623 0 34.7656 28.8086 63.5742 63.5742 63.5742Zm0-9.08203c-30.1758 0-54.4434-24.3164-54.4434-54.4922 0-30.2246 24.2188-54.4922 54.3945-54.4922 30.2246 0 54.541 24.2676 54.541 54.4922 0 30.1758-24.2676 54.4922-54.4922 54.4922Zm-28.8574-54.4922c0 2.58789 1.85547 4.39453 4.58984 4.39453h19.7266v19.7754c0 2.68555 1.85547 4.58984 4.44336 4.58984 2.68555 0 4.54102-1.85547 4.54102-4.58984v-19.7754h19.7754c2.68555 0 4.58984-1.80664 4.58984-4.39453 0-2.73438-1.85547-4.58984-4.58984-4.58984h-19.7754v-19.7266c0-2.73438-1.85547-4.63867-4.54102-4.63867-2.58789 0-4.44336 1.9043-4.44336 4.63867v19.7266h-19.7266c-2.73438 0-4.58984 1.85547-4.58984 4.58984Z"/>
  </g>
  <text style="stroke:none;fill:black;font-family:sans-serif;font-size:13;font-weight:bold;" transform="matrix(1 0 0 1 263 1953)">Design Variations</text>
  <text style="stroke:none;fill:black;font-family:sans-serif;font-size:13;" transform="matrix(1 0 0 1 263 1971)">Symbols are supported in up to nine weights and three scales.</text>
  <text style="stroke:none;fill:black;font-family:sans-serif;font-size:13;" transform="matrix(1 0 0 1 263 1989)">For optimal layout with text and other symbols, vertically align</text>
  <text style="stroke:none;fill:black;font-family:sans-serif;font-size:13;" transform="matrix(1 0 0 1 263 2007)">symbols with the adjacent text.</text>
  <line style="fill:none;stroke:#00AEEF;stroke-width:0.5;opacity:1.0;" x1="776" x2="776" y1="1919" y2="1933"/>
  <g transform="matrix(0.2 0 0 0.2 776 1933)">
   <path d="m16.5527 0.78125c2.58789 0 3.85742-0.976562 4.78516-3.71094l6.29883-17.2363h28.8086l6.29883 17.2363c0.927734 2.73438 2.19727 3.71094 4.73633 3.71094 2.58789 0 4.24805-1.5625 4.24805-4.00391 0-0.830078-0.146484-1.61133-0.537109-2.63672l-22.9004-60.9863c-1.12305-2.97852-3.125-4.49219-6.25-4.49219-3.02734 0-5.07812 1.46484-6.15234 4.44336l-22.9004 61.084c-0.390625 1.02539-0.537109 1.80664-0.537109 2.63672 0 2.44141 1.5625 3.95508 4.10156 3.95508Zm13.4766-28.3691 11.8652-32.8613h0.244141l11.8652 32.8613Z"/>
  </g>
  <line style="fill:none;stroke:#00AEEF;stroke-width:0.5;opacity:1.0;" x1="792.836" x2="792.836" y1="1919" y2="1933"/>
  <text style="stroke:none;fill:black;font-family:sans-serif;font-size:13;font-weight:bold;" transform="matrix(1 0 0 1 776 1953)">Margins</text>
  <text style="stroke:none;fill:black;font-family:sans-serif;font-size:13;" transform="matrix(1 0 0 1 776 1971)">Leading and trailing margins on the left and right side of each symbol</text>
  <text style="stroke:none;fill:black;font-family:sans-serif;font-size:13;" transform="matrix(1 0 0 1 776 1989)">can be adjusted by modifying the x-location of the margin guidelines.</text>
  <text style="stroke:none;fill:black;font-family:sans-serif;font-size:13;" transform="matrix(1 0 0 1 776 2007)">Modifications are automatically applied proportionally to all</text>
  <text style="stroke:none;fill:black;font-family:sans-serif;font-size:13;" transform="matrix(1 0 0 1 776 2025)">scales and weights.</text>
  <g transform="matrix(0.2 0 0 0.2 1289 1933)">
   <path d="m14.209 9.32617 8.49609 8.54492c4.29688 4.3457 9.22852 4.05273 13.8672-1.07422l53.4668-58.9355-4.83398-4.88281-53.0762 58.3984c-1.75781 2.00195-3.41797 2.49023-5.76172 0.146484l-5.85938-5.81055c-2.34375-2.29492-1.80664-4.00391 0.195312-5.81055l57.373-54.0039-4.88281-4.83398-57.959 54.4434c-4.93164 4.58984-5.32227 9.47266-1.02539 13.8184Zm32.0801-90.9668c-2.09961 2.05078-2.24609 4.93164-1.07422 6.88477 1.17188 1.80664 3.4668 2.97852 6.68945 2.14844 7.32422-1.70898 14.9414-2.00195 22.0703 2.68555l-2.92969 7.27539c-1.70898 4.15039-0.830078 7.08008 1.85547 9.81445l11.4746 11.5723c2.44141 2.44141 4.49219 2.53906 7.32422 2.05078l5.32227-0.976562 3.32031 3.36914-0.195312 2.7832c-0.195312 2.49023 0.439453 4.39453 2.88086 6.78711l3.80859 3.71094c2.39258 2.39258 5.46875 2.53906 7.8125 0.195312l14.5508-14.5996c2.34375-2.34375 2.24609-5.32227-0.146484-7.71484l-3.85742-3.80859c-2.39258-2.39258-4.24805-3.17383-6.64062-2.97852l-2.88086 0.244141-3.22266-3.17383 1.2207-5.61523c0.634766-2.83203-0.146484-5.0293-3.07617-7.95898l-10.9863-10.9375c-16.6992-16.6016-38.8672-16.2109-53.3203-1.75781Zm7.4707 1.85547c12.1582-8.88672 28.6133-7.37305 39.7461 3.75977l12.1582 12.0605c1.17188 1.17188 1.36719 2.09961 1.02539 3.80859l-1.61133 7.42188 7.51953 7.42188 4.93164-0.292969c1.26953-0.0488281 1.66016 0.0488281 2.63672 1.02539l2.88086 2.88086-12.207 12.207-2.88086-2.88086c-0.976562-0.976562-1.12305-1.36719-1.07422-2.68555l0.341797-4.88281-7.4707-7.42188-7.61719 1.26953c-1.61133 0.341797-2.34375 0.195312-3.56445-0.976562l-10.0098-10.0098c-1.26953-1.17188-1.41602-2.00195-0.634766-3.85742l4.39453-10.4492c-7.8125-7.27539-17.9688-10.4004-28.125-7.42188-0.78125 0.195312-1.07422-0.439453-0.439453-0.976562Z"/>
  </g>
  <text style="stroke:none;fill:black;font-family:sans-serif;font-size:13;font-weight:bold;" transform="matrix(1 0 0 1 1289 1953)">Exporting</text>
  <text style="stroke:none;fill:black;font-family:sans-serif;font-size:13;" transform="matrix(1 0 0 1 1289 1971)">Symbols should be outlined when exporting to ensure the</text>
  <text style="stroke:none;fill:black;font-family:sans-serif;font-size:13;" transform="matrix(1 0 0 1 1289 1989)">design is preserved when submitting to Xcode.</text>
  <text id="template-version" style="stroke:none;fill:black;font-family:sans-serif;font-size:13;text-anchor:end;" transform="matrix(1 0 0 1 3036 1933)">Template v.5.0</text>
  <text style="stroke:none;fill:black;font-family:sans-serif;font-size:13;text-anchor:end;" transform="matrix(1 0 0 1 3036 1951)">Requires Xcode 15 or greater</text>
  <text id="descriptive-name" style="stroke:none;fill:black;font-family:sans-serif;font-size:13;text-anchor:end;" transform="matrix(1 0 0 1 3036 1969)">Generated from collaborate</text>
  <text style="stroke:none;fill:black;font-family:sans-serif;font-size:13;text-anchor:end;" transform="matrix(1 0 0 1 3036 1987)">Typeset at 100.0 points</text>
  <text style="stroke:none;fill:black;font-family:sans-serif;font-size:13;" transform="matrix(1 0 0 1 263 726)">Small</text>
  <text style="stroke:none;fill:black;font-family:sans-serif;font-size:13;" transform="matrix(1 0 0 1 263 1156)">Medium</text>
  <text style="stroke:none;fill:black;font-family:sans-serif;font-size:13;" transform="matrix(1 0 0 1 263 1586)">Large</text>
 </g>
 <g id="Guides">
  <g id="H-reference" style="fill:#27AAE1;stroke:none;" transform="matrix(1 0 0 1 339 696)">
   <path d="M0.993654 0L3.63775 0L29.3281-67.1323L30.0303-67.1323L30.0303-70.459L28.1226-70.459ZM11.6885-24.4799L46.9815-24.4799L46.2315-26.7285L12.4385-26.7285ZM55.1196 0L57.7637 0L30.6382-70.459L29.4326-70.459L29.4326-67.1323Z"/>
  </g>
  <line id="Baseline-S" style="fill:none;stroke:#27AAE1;opacity:1;stroke-width:0.5;" x1="263" x2="3036" y1="696" y2="696"/>
  <line id="Capline-S" style="fill:none;stroke:#27AAE1;opacity:1;stroke-width:0.5;" x1="263" x2="3036" y1="625.541" y2="625.541"/>
  <g id="H-reference" style="fill:#27AAE1;stroke:none;" transform="matrix(1 0 0 1 339 1126)">
   <path d="M0.993654 0L3.63775 0L29.3281-67.1323L30.0303-67.1323L30.0303-70.459L28.1226-70.459ZM11.6885-24.4799L46.9815-24.4799L46.2315-26.7285L12.4385-26.7285ZM55.1196 0L57.7637 0L30.6382-70.459L29.4326-70.459L29.4326-67.1323Z"/>
  </g>
  <line id="Baseline-M" style="fill:none;stroke:#27AAE1;opacity:1;stroke-width:0.5;" x1="263" x2="3036" y1="1126" y2="1126"/>
  <line id="Capline-M" style="fill:none;stroke:#27AAE1;opacity:1;stroke-width:0.5;" x1="263" x2="3036" y1="1055.54" y2="1055.54"/>
  <g id="H-reference" style="fill:#27AAE1;stroke:none;" transform="matrix(1 0 0 1 339 1556)">
   <path d="M0.993654 0L3.63775 0L29.3281-67.1323L30.0303-67.1323L30.0303-70.459L28.1226-70.459ZM11.6885-24.4799L46.9815-24.4799L46.2315-26.7285L12.4385-26.7285ZM55.1196 0L57.7637 0L30.6382-70.459L29.4326-70.459L29.4326-67.1323Z"/>
  </g>
  <line id="Baseline-L" style="fill:none;stroke:#27AAE1;opacity:1;stroke-width:0.5;" x1="263" x2="3036" y1="1556" y2="1556"/>
  <line id="Capline-L" style="fill:none;stroke:#27AAE1;opacity:1;stroke-width:0.5;" x1="263" x2="3036" y1="1485.54" y2="1485.54"/>
  <line id="left-margin-Ultralight-S" style="fill:none;stroke:#00AEEF;stroke-width:0.5;opacity:1.0;" x1="515.011" x2="515.011" y1="600.785" y2="720.121"/>
  <line id="right-margin-Ultralight-S" style="fill:none;stroke:#00AEEF;stroke-width:0.5;opacity:1.0;" x1="604.411" x2="604.411" y1="600.785" y2="720.121"/>
  <line id="left-margin-Regular-S" style="fill:none;stroke:#00AEEF;stroke-width:0.5;opacity:1.0;" x1="1403.39" x2="1403.39" y1="600.785" y2="720.121"/>
  <line id="right-margin-Regular-S" style="fill:none;stroke:#00AEEF;stroke-width:0.5;opacity:1.0;" x1="1496.29" x2="1496.29" y1="600.785" y2="720.121"/>
  <line id="left-margin-Black-S" style="fill:none;stroke:#00AEEF;stroke-width:0.5;opacity:1.0;" x1="2884.9" x2="2884.9" y1="600.785" y2="720.121"/>
  <line id="right-margin-Black-S" style="fill:none;stroke:#00AEEF;stroke-width:0.5;opacity:1.0;" x1="2981.9" x2="2981.9" y1="600.785" y2="720.121"/>
 </g>
 <g id="Symbols">
  <g id="Black-S" transform="matrix(1 0 0 1 2884.9 696)">
   <path class="SFSymbolsPreviewWireframe" d="M85.01-46.3C86.81-49.6 87.31-52.4 87.31-55.3C87.31-66.5 78.11-74.1 68.51-74.1C67.21-74.1 67.11-74.1 66.01-73.9C62.41-79 55.31-82.1 48.51-82.1C41.81-82.1 34.71-79 31.01-73.9C29.81-74 29.71-74.1 28.51-74.1C18.61-74.1 9.71-66.4 9.71-55.3C9.71-51.5 10.71-49 12.01-46.3C4.11-40.7 1.71-33.5 1.71-27.3L1.71-19.3C1.71-15.9 4.31-12.5 8.51-12.5C12.71-12.5 15.31-15.9 15.31-19.3L15.31-27.3C15.31-30.7 17.21-33.4 18.81-34.5L19.21-34.8C18.71-33.6 17.71-31.5 17.71-27.3C17.71-23.1 21.31-20.5 24.51-20.5C29.11-20.5 31.31-24.4 31.31-27.3C31.31-33.3 40.51-36.5 48.51-36.5C57.71-36.5 65.71-32.8 65.71-27.3C65.71-23.2 69.01-20.5 72.51-20.5C76.61-20.5 79.31-23.9 79.31-27.3C79.31-31.5 78.21-33.6 77.81-34.8L79.11-33.6C80.31-32.1 81.61-30.6 81.61-27.3L81.61-19.3C81.61-15.1 85.11-12.5 88.41-12.5C91.31-12.5 95.21-14.8 95.21-19.3L95.21-27.3C95.31-33.7 92.91-40.5 85.01-46.3ZM71.71-59.3C72.91-58.4 73.71-56.9 73.71-55.3C73.71-53.6 72.91-51.1 69.51-50.2L69.41-50.2C70.31-52.2 71.31-55.7 71.31-58.3C71.31-59.1 71.31-58.7 71.31-59.6C71.51-59.4 71.31-59.6 71.71-59.3ZM48.51-68.4C53.61-68.4 57.71-64.3 57.71-59.2C57.71-54.1 53.61-50 48.51-50C43.41-50 39.31-54.1 39.31-59.2C39.31-64.3 43.41-68.4 48.51-68.4ZM25.51-59.5C25.61-59.6 25.61-59.6 25.71-59.6C25.71-59.1 25.61-59.4 25.71-58C25.91-54.7 26.81-52.1 27.61-50.2L27.61-50.2C25.81-50.5 23.41-52.2 23.41-55.3C23.31-56.1 23.71-58.3 25.51-59.5ZM76.51-18.1L64.51-18.1C59.81-18.1 57.71-14.2 57.71-11.3C57.71-9.6 58.31-7.5 60.51-5.8L60.21-5.6C58.01-4.3 54.31-2.1 48.61-2.1C45.91-2.1 42.01-2.6 37.81-5L36.51-5.8C38.41-7.3 39.31-9.1 39.31-11.3C39.31-14.6 36.71-18.1 32.51-18.1L20.51-18.1C15.91-18.1 13.71-14.2 13.71-11.3L13.71 0.7C13.71 5.1 17.41 7.5 20.51 7.5C22.71 7.5 25.21 6.3 26.41 4.1L26.61 3.8C33.21 9.2 41.21 11.6 48.41 11.6C55.01 11.6 62.51 10.1 70.41 3.8L70.51 4C71.91 6.6 74.61 7.5 76.51 7.5C80.71 7.5 83.31 3.9 83.31 0.7L83.31-11.3C83.31-15.3 80.01-18.1 76.51-18.1Z"/>
  </g>
  <g id="Regular-S" transform="matrix(1 0 0 1 1403.39 696)">
   <path class="SFSymbolsPreviewWireframe" d="M78.96-45.3C81.16-48 82.56-51.5 82.56-55.2C82.56-64 75.36-71.2 66.56-71.2C65.26-71.2 64.06-71 62.86-70.7C59.26-75.8 53.26-79.2 46.56-79.2C39.86-79.2 33.86-75.8 30.26-70.7C29.06-71 27.86-71.2 26.56-71.2C17.76-71.2 10.56-64 10.56-55.2C10.56-51.4 11.96-48 14.16-45.3C7.26-42.1 2.46-35.3 2.46-27.3L2.46-19.3C2.46-17.1 4.26-15.3 6.46-15.3C8.66-15.3 10.46-17.1 10.46-19.3L10.46-27.3C10.46-33.9 15.86-39.3 22.46-39.3L23.56-39.3C20.16-35.8 18.46-31.5 18.46-27.3C18.46-25.1 20.26-23.3 22.46-23.3C24.66-23.3 26.46-25.1 26.46-27.3C26.46-33.3 33.36-39.3 46.46-39.3C59.56-39.3 66.46-33.3 66.46-27.3C66.46-25.1 68.26-23.3 70.46-23.3C72.66-23.3 74.46-25.1 74.46-27.3C74.46-31.5 72.86-35.8 69.36-39.3L70.46-39.3C77.06-39.3 82.46-33.9 82.46-27.3L82.46-19.3C82.46-17.1 84.26-15.3 86.46-15.3C88.66-15.3 90.46-17.1 90.46-19.3L90.46-27.3C90.46-35.3 85.76-42.1 78.96-45.3ZM66.46-63.3C70.86-63.3 74.46-59.7 74.46-55.3C74.46-50.9 70.86-47.3 66.46-47.3L62.36-47.3C64.86-50.7 66.46-54.8 66.46-59.3C66.46-60.7 66.36-62 66.06-63.3C66.26-63.2 66.36-63.3 66.46-63.3ZM46.46-71.2C53.06-71.2 58.46-65.8 58.46-59.2C58.46-52.6 53.06-47.2 46.46-47.2C39.86-47.2 34.46-52.6 34.46-59.2C34.46-65.8 39.86-71.2 46.46-71.2ZM26.46-63.3C26.56-63.3 26.76-63.3 26.86-63.3C26.56-62 26.46-60.7 26.46-59.3C26.46-54.8 28.06-50.7 30.56-47.3L26.46-47.3C22.06-47.3 18.46-50.9 18.46-55.3C18.46-59.7 22.06-63.3 26.46-63.3ZM74.46-15.3L62.46-15.3C60.26-15.3 58.46-13.5 58.46-11.3C58.46-9.1 60.26-7.3 62.46-7.3L64.36-7.3C59.86-2.2 53.36 0.7 46.46 0.7C39.56 0.7 33.06-2.2 28.56-7.3L30.46-7.3C32.66-7.3 34.46-9.1 34.46-11.3C34.46-13.5 32.66-15.3 30.46-15.3L18.46-15.3C16.26-15.3 14.46-13.5 14.46-11.3L14.46 0.7C14.46 2.9 16.26 4.7 18.46 4.7C20.66 4.7 22.46 2.9 22.46 0.7L22.46-2.2C28.46 4.7 37.26 8.7 46.46 8.7C55.66 8.7 64.46 4.7 70.46-2.1L70.46 0.7C70.46 2.9 72.26 4.7 74.46 4.7C76.66 4.7 78.46 2.9 78.46 0.7L78.46-11.3C78.46-13.5 76.66-15.3 74.46-15.3Z"/>
  </g>
  <g id="Ultralight-S" transform="matrix(1 0 0 1 515.011 696)">
   <path class="SFSymbolsPreviewWireframe" d="M72.76-44.3C74.96-47 77.96-49.9 77.96-55.3C77.96-63.4 70.36-70.1 61.76-68.1C59.86-67.7 61.06-67.9 59.86-67.7C56.36-72.8 51.46-76.5 44.76-76.5C38.06-76.5 33.26-73.1 29.66-67.6C28.46-67.9 29.06-67.7 27.76-68C19.36-70.1 11.56-63.5 11.56-55.2C11.56-49.8 14.56-47 16.76-44.2C10.06-41.8 3.56-36.2 3.56-27.2L3.56-19.2C3.56-18.6 4.06-18 4.76-18C5.56-18 5.96-18.7 5.96-19.2L5.96-27.2C5.96-36.6 13.86-42 20.76-42L28.46-42C25.26-38.2 19.56-34.5 19.56-27.2C19.56-26.6 19.96-26 20.76-26C21.56-26 21.96-26.7 21.96-27.2C21.96-36 31.66-42 44.76-42C57.86-42 67.56-35.9 67.56-27.2C67.56-26.7 67.86-26 68.76-26C69.46-26 69.96-26.5 69.96-27.2C69.96-34.4 64.46-38.5 61.06-42L68.76-42C75.36-42 83.56-36.8 83.56-27.2L83.56-19.2C83.56-18.7 83.96-18 84.76-18C85.56-18 85.96-18.7 85.96-19.2L85.96-27.2C85.96-36.1 79.46-42 72.76-44.3ZM64.16-66C68.96-66.4 75.56-62.5 75.56-55.2C75.56-50.8 72.36-44.6 64.76-44.4L54.96-44.4C58.76-48.4 63.56-55.6 61.56-62.6C61.16-63.9 61.16-64.5 60.86-65.8C61.06-65.9 64.06-66 64.16-66ZM44.76-74.1C52.96-74.1 59.56-67.4 59.56-59.3C59.56-51.2 52.86-44.5 44.76-44.5C36.66-44.5 29.96-51.2 29.96-59.3C29.96-67.4 36.56-74.1 44.76-74.1ZM25.26-66C25.36-66 28.46-65.9 28.56-65.8C28.26-64.5 28.16-63.9 27.86-62.6C26.56-55.2 29.56-50 34.46-44.4L24.66-44.4C19.56-44.4 13.86-48.3 13.86-55.2C13.96-62.4 20.16-66.4 25.26-66ZM72.76-12.4L60.76-12.4C60.06-12.4 59.56-11.9 59.56-11.2C59.56-10.5 60.26-10 60.76-10L68.96-10C64.76-5.1 57.96 3.7 44.76 3.7C31.46 3.7 25.06-4.9 20.56-10L28.76-10C29.46-10 29.96-10.5 29.96-11.2C29.96-11.8 29.46-12.4 28.76-12.4L16.76-12.4C16.06-12.4 15.56-11.8 15.56-11.2L15.56 0.8C15.56 1.4 15.96 2 16.76 2C17.56 2 17.96 1.2 17.96 0.8L17.96-9.6C23.96-2.7 30.86 5.9 44.76 5.9C59.46 5.9 65.56-2.8 71.56-9.6L71.56 0.7C71.56 1.4 72.16 1.9 72.76 1.9C73.56 1.9 73.96 1.3 73.96 0.7L73.96-11.3C73.96-11.9 73.36-12.4 72.76-12.4Z"/>
  </g>
 </g>
</svg>
