<svg width="45" height="45" viewBox="0 0 45 45" fill="none" xmlns="http://www.w3.org/2000/svg">
<g clip-path="url(#clip0_4518_152595)">
<g clip-path="url(#clip1_4518_152595)">
<path d="M14.769 8.54521C13.7837 9.03786 1.25212 19.2192 1.25212 19.2192C0.656846 19.7939 0.513159 20.6971 1.14949 21.241L23.2877 39.633C23.3492 39.6843 23.4211 39.7459 23.4826 39.787C23.9547 40.1359 24.4166 40.3207 24.9503 40.372C25.2993 40.4028 25.6482 40.3206 25.9869 40.218L29.1838 38.9727L17.0167 8.41179C17.0167 8.41179 15.7646 8.05257 14.7792 8.53495L14.769 8.54521Z" fill="#1B90FF"/>
<path d="M25.5585 35.0766L3.21509 16.6948V18.1625C3.21509 18.7167 3.44088 19.2401 3.86168 19.5892L24.7477 37.5603C26.2153 38.7612 27.4778 39.0896 28.4014 39.0793V35.5179L25.5585 35.0868V35.0766Z" fill="#046C7C"/>
<path d="M44.4226 27.1125C45.1103 26.5582 45.254 25.8808 45.254 25.3266V24.3311L30.1462 35.7748L28.4015 35.5079V39.0693C29.2123 39.0693 29.7665 38.7922 29.9821 38.6075L44.4328 27.1022L44.4226 27.1125Z" fill="#56BDFF"/>
<path d="M30.8957 37.0271C29.5512 38.1767 27.3445 38.1767 25.9795 37.0271L3.95429 18.3888C2.82532 17.4343 3.01005 15.9051 4.33403 14.9711L17.8304 5.8264C19.0517 4.97453 20.9505 4.97453 22.0897 5.8264L44.1663 22.4736C45.521 23.4999 45.6442 25.1729 44.4229 26.2198L30.906 37.0271H30.8957Z" fill="#0899A7"/>
<path d="M18.5694 6.70918L5.46313 15.6281C4.47784 16.3158 4.34441 17.455 5.18601 18.1528L26.421 36.0317C27.4268 36.8733 29.0586 36.8733 30.0439 36.0317L43.1811 25.5836C44.0843 24.8035 44.0021 23.572 42.9963 22.8125L21.7306 6.70918C20.889 6.07285 19.4829 6.07285 18.5694 6.70918Z" fill="white"/>
<path fill-rule="evenodd" clip-rule="evenodd" d="M11.3158 25.5999C11.1205 25.7352 10.2637 25.8705 10.0382 25.6751L8.08426 24.0819C7.94899 23.8564 7.8588 23.5408 8.55021 23.3604C8.9861 23.2402 9.22659 23.3604 9.45205 23.5408L11.2557 25.0138C11.4812 25.1941 11.5113 25.4647 11.3158 25.5999Z" fill="#00144A"/>
<path fill-rule="evenodd" clip-rule="evenodd" d="M10.7148 25.7051C10.5194 25.8403 10.1737 25.8103 9.94826 25.6148L8.14459 24.1418C7.91912 23.9615 7.88907 23.691 8.08446 23.5557C8.27986 23.4204 8.62557 23.4504 8.85102 23.6458L10.6547 25.1188C10.8802 25.2992 10.9102 25.5698 10.7148 25.7051Z" fill="#0899A7"/>
<path fill-rule="evenodd" clip-rule="evenodd" d="M19.2979 16.8692C16.6601 18.7577 16.4549 21.9907 18.9591 24.0536C21.5046 26.1473 25.8152 26.1679 28.4117 24.1152C31.0084 22.0625 30.8647 18.9219 28.3605 16.9924C25.8972 15.104 21.8638 15.0423 19.2979 16.8795V16.8692ZM27.2315 19.8251C27.6728 19.8251 28.0423 20.1124 28.0423 20.4614C28.0423 20.6359 27.9499 20.7898 27.8062 20.9027C27.6625 21.0156 27.4573 21.0875 27.2315 21.0875L24.5835 21.067L24.5528 23.1505C24.5528 23.5097 24.173 23.7971 23.7111 23.7971C23.2493 23.7971 22.8901 23.4994 22.8901 23.1402L22.9414 21.0464L20.2729 21.0259C19.8213 21.0259 19.4621 20.7386 19.4723 20.3793C19.4929 20.0303 19.8623 19.7532 20.314 19.7532L22.9619 19.784L23.0133 17.7724C23.0133 17.4337 23.3827 17.1669 23.824 17.1771C24.2654 17.1771 24.6143 17.4542 24.6143 17.793L24.5835 19.7943L27.211 19.8251H27.2315Z" fill="#D20A0A"/>
</g>
</g>
<defs>
<clipPath id="clip0_4518_152595">
<rect width="45" height="45" fill="white"/>
</clipPath>
<clipPath id="clip1_4518_152595">
<rect width="44.5312" height="35.625" fill="white" transform="translate(0.734375 5.1875)"/>
</clipPath>
</defs>
</svg>
