<svg width="320" height="240" viewBox="0 0 320 240" fill="none" xmlns="http://www.w3.org/2000/svg">
<path d="M306.166 23.1523H27.5483C25.7322 23.1507 23.9335 23.5059 22.2552 24.1976C20.5769 24.8894 19.0517 25.9041 17.767 27.1839C16.4822 28.4636 15.463 29.9833 14.7676 31.656C14.0723 33.3286 13.7144 35.1216 13.7144 36.9322V200.217C13.7144 203.875 15.1718 207.383 17.7662 209.97C20.3606 212.556 23.8793 214.009 27.5483 214.009H306.166C309.835 214.009 313.354 212.556 315.948 209.97C318.543 207.383 320 203.875 320 200.217V36.9322C320 35.1216 319.642 33.3286 318.947 31.656C318.251 29.9833 317.232 28.4636 315.947 27.1839C314.663 25.9041 313.137 24.8894 311.459 24.1976C309.781 23.5059 307.982 23.1507 306.166 23.1523Z" fill="#EBF8FF"/>
<path d="M248.335 17.9922H200.308C198.359 17.9922 196.429 18.3765 194.628 19.1231C192.827 19.8698 191.191 20.9641 189.812 22.3437C188.434 23.7233 187.34 25.3612 186.594 27.1637C185.849 28.9663 185.465 30.8983 185.465 32.8493C185.465 34.8004 185.849 36.7324 186.594 38.5349C187.34 40.3375 188.434 41.9753 189.812 43.3549C191.191 44.7345 192.827 45.8289 194.628 46.5755C196.429 47.3222 198.359 47.7065 200.308 47.7065H248.335C252.272 47.7065 256.048 46.1412 258.831 43.3549C261.615 40.5686 263.179 36.7897 263.179 32.8493C263.179 28.909 261.615 25.13 258.831 22.3437C256.048 19.5575 252.272 17.9922 248.335 17.9922V17.9922Z" fill="#D1EFFF"/>
<path d="M208.335 39.6563H160.308C158.358 39.6562 156.428 40.0405 154.627 40.7872C152.826 41.5338 151.19 42.6282 149.812 44.0078C148.433 45.3874 147.34 47.0253 146.594 48.8278C145.848 50.6304 145.464 52.5623 145.464 54.5134C145.464 56.4644 145.848 58.3964 146.594 60.199C147.34 62.0015 148.433 63.6394 149.812 65.019C151.19 66.3986 152.826 67.493 154.627 68.2396C156.428 68.9862 158.358 69.3705 160.308 69.3705H208.335C212.272 69.3705 216.047 67.8052 218.831 65.019C221.614 62.2327 223.178 58.4537 223.178 54.5134C223.178 50.573 221.614 46.7941 218.831 44.0078C216.047 41.2215 212.272 39.6563 208.335 39.6563V39.6563Z" fill="#D1EFFF"/>
<path d="M73.9653 116.864H67.4922C67.4922 113.53 66.134 110.333 63.7163 107.975C61.2986 105.617 58.0195 104.293 54.6004 104.293H12.8918C9.47272 104.293 6.19365 105.617 3.77596 107.975C1.35827 110.333 0 113.53 0 116.864C0 120.199 1.35827 123.396 3.77596 125.754C6.19365 128.111 9.47272 129.436 12.8918 129.436H19.3649C19.3649 132.77 20.7232 135.968 23.1409 138.325C25.5585 140.683 28.8376 142.007 32.2567 142.007H73.9653C77.3844 142.007 80.6635 140.683 83.0812 138.325C85.4989 135.968 86.8571 132.77 86.8571 129.436C86.8571 126.102 85.4989 122.904 83.0812 120.546C80.6635 118.189 77.3844 116.864 73.9653 116.864V116.864Z" fill="#D1EFFF"/>
<path d="M93.7279 192.293H45.7006C43.7513 192.293 41.8211 192.677 40.0202 193.424C38.2193 194.171 36.583 195.265 35.2047 196.645C33.8263 198.024 32.7329 199.662 31.987 201.465C31.241 203.267 30.8571 205.199 30.8571 207.15C30.8571 209.101 31.241 211.033 31.987 212.836C32.7329 214.638 33.8263 216.276 35.2047 217.656C36.583 219.035 38.2193 220.13 40.0202 220.876C41.8211 221.623 43.7513 222.007 45.7006 222.007H93.7279C97.6646 222.007 101.44 220.442 104.224 217.656C107.008 214.869 108.571 211.09 108.571 207.15C108.571 203.21 107.008 199.431 104.224 196.645C101.44 193.858 97.6646 192.293 93.7279 192.293V192.293Z" fill="#D1EFFF"/>
<path d="M299.442 145.434H251.415C249.466 145.434 247.536 145.818 245.735 146.565C243.934 147.311 242.297 148.406 240.919 149.785C239.541 151.165 238.447 152.803 237.701 154.605C236.955 156.408 236.572 158.34 236.572 160.291C236.572 162.242 236.955 164.174 237.701 165.976C238.447 167.779 239.541 169.417 240.919 170.796C242.297 172.176 243.934 173.27 245.735 174.017C247.536 174.764 249.466 175.148 251.415 175.148H299.442C303.379 175.148 307.155 173.583 309.938 170.796C312.722 168.01 314.286 164.231 314.286 160.291C314.286 156.35 312.722 152.571 309.938 149.785C307.155 146.999 303.379 145.434 299.442 145.434V145.434Z" fill="#D1EFFF"/>
<path d="M269.728 162.578H221.7C219.751 162.578 217.821 162.962 216.02 163.709C214.219 164.456 212.583 165.55 211.204 166.93C209.826 168.309 208.733 169.947 207.987 171.75C207.241 173.552 206.857 175.484 206.857 177.435C206.857 179.386 207.241 181.318 207.987 183.121C208.733 184.923 209.826 186.561 211.204 187.941C212.583 189.32 214.219 190.415 216.02 191.161C217.821 191.908 219.751 192.292 221.7 192.292H269.728C273.664 192.292 277.44 190.727 280.224 187.941C283.007 185.155 284.571 181.376 284.571 177.435C284.571 173.495 283.007 169.716 280.224 166.93C277.44 164.143 273.664 162.578 269.728 162.578V162.578Z" fill="#D1EFFF"/>
<path d="M84.0025 33.5764C84.2987 33.5373 84.5999 33.5611 84.887 33.6462C85.174 33.7314 85.4406 33.876 85.6697 34.0708C85.8987 34.2656 86.0852 34.5064 86.2173 34.7778C86.3494 35.0491 86.4241 35.3451 86.4367 35.6469L87.2866 45.391C87.316 45.7414 87.276 46.094 87.1689 46.4281C87.0619 46.7623 86.89 47.0712 86.6632 47.337C86.4364 47.6028 86.1593 47.8201 85.848 47.9762C85.5368 48.1322 85.1977 48.224 84.8504 48.246C84.7075 48.2592 84.5637 48.2604 84.4205 48.2498C83.8909 48.2183 83.3914 47.9874 83.0205 47.6028C82.6496 47.2182 82.4343 46.7078 82.417 46.1721L81.5698 36.4322C81.5398 36.0819 81.5793 35.7293 81.6859 35.3951C81.7925 35.0609 81.964 34.7518 82.1906 34.4858C82.4171 34.2199 82.694 34.0025 83.0051 33.8463C83.3163 33.6902 83.6553 33.5984 84.0025 33.5764Z" fill="#5B738B"/>
<path d="M58.4615 43.759C58.7874 43.7376 59.1143 43.7836 59.422 43.8941C59.7297 44.0046 60.0119 44.1774 60.2512 44.4017L71.0887 54.357C71.5723 54.8062 71.8651 55.4268 71.906 56.0889C71.9469 56.751 71.7326 57.4035 71.308 57.9099C70.9123 58.3779 70.3568 58.6786 69.7517 58.7526C69.4029 58.7946 69.0492 58.7602 68.7147 58.6518C68.3802 58.5433 68.0728 58.3633 67.8134 58.1241L56.9759 48.1689C56.4893 47.7175 56.195 47.0933 56.1547 46.4274C56.1145 45.7615 56.3315 45.1058 56.7602 44.5981C56.9732 44.3498 57.2336 44.1475 57.526 44.0033C57.8183 43.8591 58.1365 43.776 58.4615 43.759V43.759Z" fill="#5B738B"/>
<path d="M49.6615 73.3313C49.8572 72.9578 50.1487 72.6441 50.5053 72.4232C50.862 72.2023 51.2706 72.0824 51.6881 72.0761L61.6166 71.6644C63.2587 71.5955 64.1925 72.9294 64.2403 74.2298C64.2791 74.7611 64.1461 75.2916 63.8613 75.7413C63.5765 76.1911 63.1553 76.5359 62.661 76.724C62.4195 76.8076 62.1671 76.854 61.9122 76.8614L51.9837 77.2731C51.5484 77.3002 51.1145 77.2079 50.7278 77.006C50.3411 76.8042 50.0161 76.5002 49.7871 76.1263C49.5323 75.7108 49.387 75.2359 49.365 74.7468C49.343 74.2577 49.4451 73.7704 49.6615 73.3313Z" fill="#5B738B"/>
<path d="M300.876 51.2006C300.875 50.344 298.384 49.6615 295.058 49.5098C294.864 46.1922 294.129 43.7261 293.271 43.729C292.414 43.732 291.704 46.2189 291.525 49.554C288.19 49.786 285.711 50.5336 285.723 51.392C285.736 52.2504 288.215 52.9329 291.541 53.0827C291.745 56.4003 292.47 58.8665 293.326 58.8635C294.182 58.8606 294.896 56.3737 295.074 53.0385C298.409 52.8065 300.886 52.059 300.876 51.2006Z" fill="#F58B00"/>
<path d="M165.995 199.237C165.997 198.576 164.077 198.042 161.511 197.915C161.37 195.354 160.81 193.449 160.149 193.449C159.487 193.449 158.931 195.366 158.784 197.939C156.209 198.108 154.294 198.678 154.301 199.34C154.308 200.003 156.219 200.537 158.785 200.662C158.933 203.223 159.485 205.128 160.146 205.129C160.806 205.129 161.365 203.212 161.512 200.639C164.087 200.469 166 199.9 165.995 199.237Z" fill="#F58B00"/>
<path d="M38.9193 45.5099C38.9263 45.0577 37.6176 44.6756 35.8628 44.5664C35.7894 42.8131 35.4229 41.5047 34.9701 41.4987C34.5172 41.4928 34.1205 42.7996 33.9971 44.5588C32.2342 44.6521 30.9189 45.0251 30.918 45.4784C30.917 45.9317 32.2197 46.3138 33.9744 46.422C34.0529 48.1753 34.4144 49.4837 34.8662 49.4896C35.318 49.4955 35.7167 48.1888 35.8402 46.4295C37.6031 46.3362 38.9174 45.9632 38.9193 45.5099Z" fill="#F58B00"/>
<path d="M273.217 81.957H242.613C241.371 81.957 240.141 82.1972 238.994 82.6638C237.846 83.1304 236.804 83.8143 235.925 84.6765C235.047 85.5387 234.35 86.5623 233.875 87.6888C233.4 88.8153 233.155 90.0227 233.155 91.242C233.155 92.4613 233.4 93.6687 233.875 94.7952C234.35 95.9217 235.047 96.9452 235.925 97.8074C236.804 98.6696 237.846 99.3535 238.994 99.8201C240.141 100.287 241.371 100.527 242.613 100.527H273.217C275.725 100.527 278.131 99.5487 279.905 97.8074C281.678 96.0661 282.675 93.7045 282.675 91.242C282.675 88.7794 281.678 86.4178 279.905 84.6765C278.131 82.9353 275.725 81.957 273.217 81.957V81.957Z" fill="#D1EFFF"/>
<path d="M259.429 72.2946C259.429 68.5075 256.359 65.4375 252.572 65.4375H88.0002C84.2131 65.4375 81.143 68.5075 81.143 72.2946V165.552C81.143 169.339 84.2131 172.409 88.0002 172.409H101.832C106.255 172.409 109.143 177.05 107.189 181.018V181.018C104.439 186.604 111.001 192.143 116.046 188.495L136.487 173.71C137.656 172.864 139.063 172.409 140.506 172.409H252.572C256.359 172.409 259.429 169.339 259.429 165.552V72.2946Z" fill="white"/>
<path fill-rule="evenodd" clip-rule="evenodd" d="M107.597 179.951C107.702 179.573 107.767 179.192 107.795 178.814C107.813 178.57 107.816 178.326 107.803 178.085C107.784 177.701 107.727 177.322 107.635 176.955C107.541 176.579 107.412 176.215 107.249 175.867C106.21 176.126 105.464 177.091 105.521 178.201C105.55 178.786 105.438 179.401 105.138 180.009C104.257 181.8 104.063 183.653 104.429 185.363C104.692 186.597 105.907 187.384 107.141 187.12C107.292 187.088 107.436 187.042 107.573 186.983C107.355 186.666 107.167 186.328 107.013 185.973C106.862 185.626 106.744 185.262 106.664 184.885C106.55 184.351 106.511 183.791 106.561 183.217C106.593 182.844 106.663 182.465 106.774 182.084C106.876 181.731 107.014 181.375 107.189 181.019C107.362 180.667 107.497 180.31 107.597 179.951ZM123.008 183.46C123.748 184.482 123.518 185.911 122.496 186.651L117.385 190.347C115.768 191.517 113.973 192.019 112.227 191.946C110.966 191.893 109.986 190.828 110.039 189.566C110.045 189.412 110.067 189.262 110.102 189.118C110.451 189.279 110.816 189.408 111.191 189.5C111.559 189.591 111.938 189.646 112.322 189.662C113.552 189.713 114.842 189.366 116.046 188.495L123.008 183.46ZM148.395 172.409C148.395 173.672 147.371 174.695 146.109 174.695H140.506C139.544 174.695 138.606 174.999 137.826 175.563L132.716 179.259C131.693 179.999 130.264 179.769 129.525 178.746L136.487 173.71C137.656 172.865 139.062 172.409 140.506 172.409H148.395ZM170.808 172.409C170.808 173.672 169.784 174.695 168.522 174.695H157.315C156.053 174.695 155.03 173.672 155.03 172.409H170.808ZM193.221 172.409C193.221 173.672 192.198 174.695 190.935 174.695H179.729C178.466 174.695 177.443 173.672 177.443 172.409H193.221ZM215.634 172.409C215.634 173.672 214.611 174.695 213.348 174.695H202.142C200.879 174.695 199.856 173.672 199.856 172.409H215.634ZM238.047 172.409C238.047 173.672 237.024 174.695 235.762 174.695H224.555C223.293 174.695 222.269 173.672 222.269 172.409H238.047ZM259.429 157.438C260.691 157.438 261.714 158.461 261.714 159.724V165.552C261.714 170.602 257.621 174.695 252.571 174.695H246.968C245.706 174.695 244.682 173.672 244.682 172.409H252.571C256.358 172.409 259.429 169.339 259.429 165.552V157.438ZM259.429 134.124C260.691 134.124 261.714 135.147 261.714 136.409V148.067C261.714 149.329 260.691 150.352 259.429 150.352V134.124ZM259.429 110.809C260.691 110.809 261.714 111.833 261.714 113.095V124.752C261.714 126.015 260.691 127.038 259.429 127.038V110.809ZM259.429 87.4952C260.691 87.4952 261.714 88.5185 261.714 89.7809V101.438C261.714 102.7 260.691 103.724 259.429 103.724V87.4952ZM244.408 65.4381C244.408 64.1757 245.431 63.1523 246.694 63.1523H252.571C257.621 63.1523 261.714 67.2457 261.714 72.2952V78.1238C261.714 79.3861 260.691 80.4095 259.429 80.4095V72.2952C259.429 68.5081 256.358 65.4381 252.571 65.4381H244.408ZM220.898 65.4381C220.898 64.1757 221.921 63.1523 223.184 63.1523H234.939C236.201 63.1523 237.224 64.1757 237.224 65.4381H220.898ZM197.388 65.4381C197.388 64.1757 198.411 63.1523 199.673 63.1523H211.429C212.691 63.1523 213.714 64.1757 213.714 65.4381H197.388ZM173.877 65.4381C173.877 64.1757 174.901 63.1523 176.163 63.1523H187.918C189.181 63.1523 190.204 64.1757 190.204 65.4381H173.877ZM150.367 65.4381C150.367 64.1757 151.391 63.1523 152.653 63.1523H164.408C165.67 63.1523 166.694 64.1757 166.694 65.4381H150.367ZM126.857 65.4381C126.857 64.1757 127.88 63.1523 129.143 63.1523H140.898C142.16 63.1523 143.184 64.1757 143.184 65.4381H126.857ZM119.673 65.4381C119.673 64.1757 118.65 63.1523 117.388 63.1523H105.633C104.37 63.1523 103.347 64.1757 103.347 65.4381H119.673ZM81.1428 80.4095C79.8804 80.4095 78.8571 79.3861 78.8571 78.1238V72.2952C78.8571 67.2457 82.9505 63.1523 88 63.1523H93.8775C95.1399 63.1523 96.1632 64.1757 96.1632 65.4381H88C84.2129 65.4381 81.1428 68.5081 81.1428 72.2952V80.4095ZM81.1428 103.724C79.8804 103.724 78.8571 102.7 78.8571 101.438V89.7809C78.8571 88.5186 79.8804 87.4952 81.1428 87.4952V103.724ZM81.1428 127.038C79.8804 127.038 78.8571 126.015 78.8571 124.752V113.095C78.8571 111.833 79.8804 110.809 81.1428 110.809V127.038ZM81.1428 150.352C79.8804 150.352 78.8571 149.329 78.8571 148.067V136.409C78.8571 135.147 79.8804 134.124 81.1428 134.124V150.352ZM93.7436 172.409C93.7436 173.672 92.7203 174.695 91.4579 174.695H88C82.9505 174.695 78.8571 170.602 78.8571 165.552V159.724C78.8571 158.461 79.8804 157.438 81.1428 157.438V165.552C81.1428 169.339 84.2129 172.409 88 172.409H93.7436ZM106.48 174.631C105.789 175.45 104.594 175.692 103.623 175.151C103.111 174.866 102.51 174.695 101.832 174.695H98.3739C97.1116 174.695 96.0882 173.672 96.0882 172.409H101.832C102.906 172.409 103.89 172.683 104.735 173.154C105.071 173.342 105.386 173.56 105.675 173.805C105.97 174.055 106.24 174.332 106.48 174.631Z" fill="#F58B00"/>
<path d="M195.886 121.275C195.886 127.183 200.675 131.972 206.583 131.972C212.491 131.972 217.28 127.183 217.28 121.275C217.28 115.367 212.491 110.578 206.583 110.578C200.675 110.578 195.886 115.367 195.886 121.275Z" fill="#004DA5"/>
<path d="M124.571 121.275C124.571 127.183 129.361 131.972 135.268 131.972C141.176 131.972 145.966 127.183 145.966 121.275C145.966 115.367 141.176 110.578 135.268 110.578C129.361 110.578 124.571 115.367 124.571 121.275Z" fill="#004DA5"/>
<path d="M160.229 121.275C160.229 127.183 165.018 131.972 170.926 131.972C176.834 131.972 181.623 127.183 181.623 121.275C181.623 115.367 176.834 110.578 170.926 110.578C165.018 110.578 160.229 115.367 160.229 121.275Z" fill="#004DA5"/>
</svg>
