<?xml version="1.0" encoding="UTF-8"?>
<!--Generator: Apple Native CoreSVG 341-->
<!DOCTYPE svg
PUBLIC "-//W3C//DTD SVG 1.1//EN"
       "http://www.w3.org/Graphics/SVG/1.1/DTD/svg11.dtd">
<svg version="1.1" xmlns="http://www.w3.org/2000/svg" xmlns:xlink="http://www.w3.org/1999/xlink" viewBox="0 0 3300 2200">
 <!--glyph: "", point size: 100.0, font version: "21.0d4e1", template writer version: "138.0.0"-->
 <style>.defaults {-sfsymbols-draw-reverses-motion-groups:true}

.monochrome-0 {-sfsymbols-motion-group:1;-sfsymbols-layer-tags:-41039a25696916c9}
.monochrome-1 {-sfsymbols-motion-group:0;-sfsymbols-layer-tags:-41039a25696916c9}

.multicolor-0:tintColor {-sfsymbols-motion-group:1;-sfsymbols-layer-tags:-41039a25696916c9}
.multicolor-1:tintColor {-sfsymbols-motion-group:0;-sfsymbols-layer-tags:-41039a25696916c9}

.hierarchical-0:primary {-sfsymbols-motion-group:1;-sfsymbols-layer-tags:-41039a25696916c9}
.hierarchical-1:primary {-sfsymbols-motion-group:0;-sfsymbols-layer-tags:-41039a25696916c9}

.SFSymbolsPreviewWireframe {fill:none;opacity:1.0;stroke:black;stroke-width:0.5}
</style>
 <g id="Notes">
  <rect height="2200" id="artboard" style="fill:white;opacity:1" width="3300" x="0" y="0"/>
  <line style="fill:none;stroke:black;opacity:1;stroke-width:0.5;" x1="263" x2="3036" y1="292" y2="292"/>
  <text style="stroke:none;fill:black;font-family:sans-serif;font-size:13;font-weight:bold;" transform="matrix(1 0 0 1 263 322)">Weight/Scale Variations</text>
  <text style="stroke:none;fill:black;font-family:sans-serif;font-size:13;text-anchor:middle;" transform="matrix(1 0 0 1 559.711 322)">Ultralight</text>
  <text style="stroke:none;fill:black;font-family:sans-serif;font-size:13;text-anchor:middle;" transform="matrix(1 0 0 1 856.422 322)">Thin</text>
  <text style="stroke:none;fill:black;font-family:sans-serif;font-size:13;text-anchor:middle;" transform="matrix(1 0 0 1 1153.13 322)">Light</text>
  <text style="stroke:none;fill:black;font-family:sans-serif;font-size:13;text-anchor:middle;" transform="matrix(1 0 0 1 1449.84 322)">Regular</text>
  <text style="stroke:none;fill:black;font-family:sans-serif;font-size:13;text-anchor:middle;" transform="matrix(1 0 0 1 1746.56 322)">Medium</text>
  <text style="stroke:none;fill:black;font-family:sans-serif;font-size:13;text-anchor:middle;" transform="matrix(1 0 0 1 2043.27 322)">Semibold</text>
  <text style="stroke:none;fill:black;font-family:sans-serif;font-size:13;text-anchor:middle;" transform="matrix(1 0 0 1 2339.98 322)">Bold</text>
  <text style="stroke:none;fill:black;font-family:sans-serif;font-size:13;text-anchor:middle;" transform="matrix(1 0 0 1 2636.69 322)">Heavy</text>
  <text style="stroke:none;fill:black;font-family:sans-serif;font-size:13;text-anchor:middle;" transform="matrix(1 0 0 1 2933.4 322)">Black</text>
  <line style="fill:none;stroke:black;opacity:1;stroke-width:0.5;" x1="263" x2="3036" y1="1903" y2="1903"/>
  <g transform="matrix(0.2 0 0 0.2 263 1933)">
   <path d="m46.2402 4.15039c21.7773 0 39.4531-17.627 39.4531-39.4043s-17.6758-39.4043-39.4531-39.4043c-21.7285 0-39.4043 17.627-39.4043 39.4043s17.6758 39.4043 39.4043 39.4043Zm0-7.42188c-17.6758 0-31.9336-14.3066-31.9336-31.9824s14.2578-31.9824 31.9336-31.9824 31.9824 14.3066 31.9824 31.9824-14.3066 31.9824-31.9824 31.9824Zm3.61328-17.7734v-28.4668c0-2.24609-1.46484-3.75977-3.71094-3.75977-2.14844 0-3.61328 1.51367-3.61328 3.75977v28.4668c0 2.19727 1.46484 3.71094 3.61328 3.71094 2.24609 0 3.71094-1.51367 3.71094-3.71094Zm-17.8223-10.5957h28.418c2.19727 0 3.71094-1.46484 3.71094-3.61328 0-2.19727-1.51367-3.71094-3.71094-3.71094h-28.418c-2.24609 0-3.75977 1.51367-3.75977 3.71094 0 2.14844 1.51367 3.61328 3.75977 3.61328Z"/>
  </g>
  <g transform="matrix(0.2 0 0 0.2 281.506 1933)">
   <path d="m58.5449 14.5508c27.4902 0 49.8047-22.3145 49.8047-49.8047s-22.3145-49.8047-49.8047-49.8047-49.8047 22.3145-49.8047 49.8047 22.3145 49.8047 49.8047 49.8047Zm0-8.30078c-22.9492 0-41.5039-18.5547-41.5039-41.5039s18.5547-41.5039 41.5039-41.5039 41.5039 18.5547 41.5039 41.5039-18.5547 41.5039-41.5039 41.5039Zm4.05273-23.0957v-36.9141c0-2.49023-1.70898-4.19922-4.15039-4.19922-2.39258 0-4.05273 1.70898-4.05273 4.19922v36.9141c0 2.44141 1.66016 4.15039 4.05273 4.15039 2.44141 0 4.15039-1.66016 4.15039-4.15039Zm-22.5586-14.4043h36.9629c2.44141 0 4.15039-1.61133 4.15039-4.00391 0-2.44141-1.70898-4.15039-4.15039-4.15039h-36.9629c-2.49023 0-4.15039 1.70898-4.15039 4.15039 0 2.39258 1.66016 4.00391 4.15039 4.00391Z"/>
  </g>
  <g transform="matrix(0.2 0 0 0.2 304.924 1933)">
   <path d="m74.8535 28.3203c35.1074 0 63.623-28.4668 63.623-63.5742s-28.5156-63.623-63.623-63.623-63.5742 28.5156-63.5742 63.623 28.4668 63.5742 63.5742 63.5742Zm0-9.08203c-30.127 0-54.4922-24.3652-54.4922-54.4922s24.3652-54.4922 54.4922-54.4922 54.4922 24.3652 54.4922 54.4922-24.3652 54.4922-54.4922 54.4922Zm4.44336-30.3223v-48.4863c0-2.73438-1.85547-4.63867-4.54102-4.63867-2.58789 0-4.44336 1.9043-4.44336 4.63867v48.4863c0 2.68555 1.85547 4.58984 4.44336 4.58984 2.68555 0 4.54102-1.85547 4.54102-4.58984Zm-28.7109-19.7754h48.4863c2.68555 0 4.58984-1.80664 4.58984-4.39453 0-2.73438-1.85547-4.58984-4.58984-4.58984h-48.4863c-2.73438 0-4.58984 1.85547-4.58984 4.58984 0 2.58789 1.85547 4.39453 4.58984 4.39453Z"/>
  </g>
  <text style="stroke:none;fill:black;font-family:sans-serif;font-size:13;font-weight:bold;" transform="matrix(1 0 0 1 263 1953)">Design Variations</text>
  <text style="stroke:none;fill:black;font-family:sans-serif;font-size:13;" transform="matrix(1 0 0 1 263 1971)">Symbols are supported in up to nine weights and three scales.</text>
  <text style="stroke:none;fill:black;font-family:sans-serif;font-size:13;" transform="matrix(1 0 0 1 263 1989)">For optimal layout with text and other symbols, vertically align</text>
  <text style="stroke:none;fill:black;font-family:sans-serif;font-size:13;" transform="matrix(1 0 0 1 263 2007)">symbols with the adjacent text.</text>
  <line style="fill:none;stroke:#00AEEF;stroke-width:0.5;opacity:1.0;" x1="776" x2="776" y1="1919" y2="1933"/>
  <g transform="matrix(0.2 0 0 0.2 776 1933)">
   <path d="m16.5527 0.78125c2.58789 0 3.85742-0.976562 4.78516-3.71094l20.5566-57.5195h0.244141l20.6055 57.5195c0.927734 2.73438 2.19727 3.71094 4.73633 3.71094 2.58789 0 4.24805-1.5625 4.24805-4.00391 0-0.830078-0.146484-1.61133-0.537109-2.63672l-22.9004-60.9863c-1.12305-2.97852-3.125-4.49219-6.25-4.49219-3.02734 0-5.07812 1.46484-6.15234 4.44336l-22.9004 61.084c-0.390625 1.02539-0.537109 1.80664-0.537109 2.63672 0 2.44141 1.5625 3.95508 4.10156 3.95508Zm10.2051-20.9473h30.6641c2.00195 0 3.66211-1.66016 3.66211-3.66211 0-2.05078-1.66016-3.66211-3.66211-3.66211h-30.6641c-2.00195 0-3.66211 1.61133-3.66211 3.66211 0 2.00195 1.66016 3.66211 3.66211 3.66211Z"/>
  </g>
  <line style="fill:none;stroke:#00AEEF;stroke-width:0.5;opacity:1.0;" x1="792.836" x2="792.836" y1="1919" y2="1933"/>
  <text style="stroke:none;fill:black;font-family:sans-serif;font-size:13;font-weight:bold;" transform="matrix(1 0 0 1 776 1953)">Margins</text>
  <text style="stroke:none;fill:black;font-family:sans-serif;font-size:13;" transform="matrix(1 0 0 1 776 1971)">Leading and trailing margins on the left and right side of each symbol</text>
  <text style="stroke:none;fill:black;font-family:sans-serif;font-size:13;" transform="matrix(1 0 0 1 776 1989)">can be adjusted by modifying the x-location of the margin guidelines.</text>
  <text style="stroke:none;fill:black;font-family:sans-serif;font-size:13;" transform="matrix(1 0 0 1 776 2007)">Modifications are automatically applied proportionally to all</text>
  <text style="stroke:none;fill:black;font-family:sans-serif;font-size:13;" transform="matrix(1 0 0 1 776 2025)">scales and weights.</text>
  <g transform="matrix(0.2 0 0 0.2 1289 1933)">
   <path d="m14.209 13.1348 7.86133 7.86133c4.29688 4.39453 9.32617 4.10156 13.8672-1.02539l60.6934-68.2129-4.88281-4.88281-60.2539 67.6758c-1.80664 1.95312-3.4668 2.44141-5.81055 0.0976562l-5.17578-5.12695c-2.29492-2.29492-1.80664-3.95508 0.195312-5.81055l67.4805-62.1582-4.88281-4.83398-68.0664 62.5977c-4.98047 4.58984-5.32227 9.47266-1.02539 13.8184Zm44.873-97.4609c-2.05078 2.00195-2.24609 4.88281-1.07422 6.78711 1.12305 1.80664 3.4668 3.02734 6.5918 2.24609 5.85938-1.66016 12.5977-2.39258 18.8965 0.927734l-2.68555 7.12891c-1.61133 4.00391-0.732422 6.88477 1.70898 9.42383l10.2539 10.3027c2.34375 2.39258 4.54102 2.44141 7.08008 1.95312l4.44336-0.732422 2.58789 2.53906-0.195312 2.24609c-0.0976562 2.29492 0.537109 4.29688 2.7832 6.49414l3.36914 3.32031c2.29492 2.29492 5.51758 2.49023 7.8125 0.195312l12.9883-13.0371c2.29492-2.34375 2.14844-5.37109-0.195312-7.66602l-3.41797-3.41797c-2.19727-2.19727-4.05273-3.02734-6.34766-2.88086l-2.34375 0.244141-2.44141-2.44141 1.02539-4.6875c0.634766-2.73438-0.244141-4.98047-2.88086-7.61719l-11.2793-11.1816c-12.9395-12.8418-35.5957-11.0352-46.6797-0.146484Zm7.08008 2.05078c8.78906-6.39648 25.9766-5.66406 33.6914 1.95312l12.3047 12.207c1.02539 1.02539 1.2207 1.80664 0.927734 3.32031l-1.46484 6.64062 6.73828 6.68945 4.39453-0.244141c1.12305-0.0488281 1.51367 0.0488281 2.34375 0.878906l2.53906 2.49023-10.8398 10.8398-2.49023-2.49023c-0.830078-0.878906-0.976562-1.2207-0.927734-2.39258l0.292969-4.3457-6.68945-6.73828-6.83594 1.17188c-1.41602 0.292969-2.05078 0.195312-3.17383-0.878906l-8.93555-8.88672c-1.07422-1.02539-1.17188-1.70898-0.488281-3.36914l4.58984-11.4746c-6.10352-6.34766-17.041-7.51953-25.5859-4.58984-0.683594 0.244141-0.927734-0.390625-0.390625-0.78125Z"/>
  </g>
  <text style="stroke:none;fill:black;font-family:sans-serif;font-size:13;font-weight:bold;" transform="matrix(1 0 0 1 1289 1953)">Exporting</text>
  <text style="stroke:none;fill:black;font-family:sans-serif;font-size:13;" transform="matrix(1 0 0 1 1289 1971)">Symbols should be outlined when exporting to ensure the</text>
  <text style="stroke:none;fill:black;font-family:sans-serif;font-size:13;" transform="matrix(1 0 0 1 1289 1989)">design is preserved when submitting to Xcode.</text>
  <text id="template-version" style="stroke:none;fill:black;font-family:sans-serif;font-size:13;text-anchor:end;" transform="matrix(1 0 0 1 3036 1933)">Template v.5.0</text>
  <text style="stroke:none;fill:black;font-family:sans-serif;font-size:13;text-anchor:end;" transform="matrix(1 0 0 1 3036 1951)">Requires Xcode 15 or greater</text>
  <text id="descriptive-name" style="stroke:none;fill:black;font-family:sans-serif;font-size:13;text-anchor:end;" transform="matrix(1 0 0 1 3036 1969)">Generated from fiori.gantt.bars</text>
  <text style="stroke:none;fill:black;font-family:sans-serif;font-size:13;text-anchor:end;" transform="matrix(1 0 0 1 3036 1987)">Typeset at 100.0 points</text>
  <text style="stroke:none;fill:black;font-family:sans-serif;font-size:13;" transform="matrix(1 0 0 1 263 726)">Small</text>
  <text style="stroke:none;fill:black;font-family:sans-serif;font-size:13;" transform="matrix(1 0 0 1 263 1156)">Medium</text>
  <text style="stroke:none;fill:black;font-family:sans-serif;font-size:13;" transform="matrix(1 0 0 1 263 1586)">Large</text>
 </g>
 <g id="Guides">
  <g id="H-reference" style="fill:#27AAE1;stroke:none;" transform="matrix(1 0 0 1 339 696)">
   <path d="M0.993654 0L3.63775 0L29.3281-67.1323L30.0303-67.1323L30.0303-70.459L28.1226-70.459ZM11.6885-24.4799L46.9815-24.4799L46.2315-26.7285L12.4385-26.7285ZM55.1196 0L57.7637 0L30.6382-70.459L29.4326-70.459L29.4326-67.1323Z"/>
  </g>
  <line id="Baseline-S" style="fill:none;stroke:#27AAE1;opacity:1;stroke-width:0.5;" x1="263" x2="3036" y1="696" y2="696"/>
  <line id="Capline-S" style="fill:none;stroke:#27AAE1;opacity:1;stroke-width:0.5;" x1="263" x2="3036" y1="625.541" y2="625.541"/>
  <g id="H-reference" style="fill:#27AAE1;stroke:none;" transform="matrix(1 0 0 1 339 1126)">
   <path d="M0.993654 0L3.63775 0L29.3281-67.1323L30.0303-67.1323L30.0303-70.459L28.1226-70.459ZM11.6885-24.4799L46.9815-24.4799L46.2315-26.7285L12.4385-26.7285ZM55.1196 0L57.7637 0L30.6382-70.459L29.4326-70.459L29.4326-67.1323Z"/>
  </g>
  <line id="Baseline-M" style="fill:none;stroke:#27AAE1;opacity:1;stroke-width:0.5;" x1="263" x2="3036" y1="1126" y2="1126"/>
  <line id="Capline-M" style="fill:none;stroke:#27AAE1;opacity:1;stroke-width:0.5;" x1="263" x2="3036" y1="1055.54" y2="1055.54"/>
  <g id="H-reference" style="fill:#27AAE1;stroke:none;" transform="matrix(1 0 0 1 339 1556)">
   <path d="M0.993654 0L3.63775 0L29.3281-67.1323L30.0303-67.1323L30.0303-70.459L28.1226-70.459ZM11.6885-24.4799L46.9815-24.4799L46.2315-26.7285L12.4385-26.7285ZM55.1196 0L57.7637 0L30.6382-70.459L29.4326-70.459L29.4326-67.1323Z"/>
  </g>
  <line id="Baseline-L" style="fill:none;stroke:#27AAE1;opacity:1;stroke-width:0.5;" x1="263" x2="3036" y1="1556" y2="1556"/>
  <line id="Capline-L" style="fill:none;stroke:#27AAE1;opacity:1;stroke-width:0.5;" x1="263" x2="3036" y1="1485.54" y2="1485.54"/>
  <line id="right-margin-Black-S" style="fill:none;stroke:#00AEEF;stroke-width:0.5;opacity:1.0;" x1="2981.9" x2="2981.9" y1="600.785" y2="720.121"/>
  <line id="left-margin-Black-S" style="fill:none;stroke:#00AEEF;stroke-width:0.5;opacity:1.0;" x1="2884.9" x2="2884.9" y1="600.785" y2="720.121"/>
  <line id="right-margin-Regular-S" style="fill:none;stroke:#00AEEF;stroke-width:0.5;opacity:1.0;" x1="1496.29" x2="1496.29" y1="600.785" y2="720.121"/>
  <line id="left-margin-Regular-S" style="fill:none;stroke:#00AEEF;stroke-width:0.5;opacity:1.0;" x1="1403.39" x2="1403.39" y1="600.785" y2="720.121"/>
  <line id="right-margin-Ultralight-S" style="fill:none;stroke:#00AEEF;stroke-width:0.5;opacity:1.0;" x1="604.411" x2="604.411" y1="600.785" y2="720.121"/>
  <line id="left-margin-Ultralight-S" style="fill:none;stroke:#00AEEF;stroke-width:0.5;opacity:1.0;" x1="515.011" x2="515.011" y1="600.785" y2="720.121"/>
 </g>
 <g id="Symbols">
  <g id="Black-S" transform="matrix(1 0 0 1 2884.9 696)">
   <path class="monochrome-0 multicolor-0:tintColor hierarchical-0:primary SFSymbolsPreviewWireframe" d="M80.41-31.6C77.11-31.6 74.61-34.2 74.61-37.4L74.61-51.9C74.61-54.4 72.61-56.4 70.11-56.4L27.01-56.4C24.71-56.4 22.51-54.5 22.51-51.9C22.51-48.7 20.11-46.1 16.41-46.1C13.31-46.1 10.91-48.9 10.91-51.9C10.91-59.8 17.31-68 27.01-68L70.11-68C79.01-68 86.21-60.8 86.21-52L86.21-37.5C86.21-34.5 83.81-31.6 80.41-31.6ZM70.11 7.6L27.01 7.6C18.11 7.6 10.91 0.4 10.91-8.5L10.91-23C10.91-25.1 12.41-28.8 16.71-28.8C20.61-28.8 22.51-25.4 22.51-23L22.51-8.5C22.51-6 24.51-4 27.01-4L70.11-4C72.11-4 74.61-5.7 74.61-8.5C74.61-11 76.71-14.3 80.41-14.3C84.71-14.3 86.21-10.6 86.21-8.5C86.11-0.7 80.01 7.6 70.11 7.6ZM32.01-49C28.81-49 26.21-51.6 26.21-54.8L26.21-72.3C26.21-75.5 28.81-78.1 32.01-78.1C35.21-78.1 37.81-75.5 37.81-72.3L37.81-54.8C37.81-51.6 35.21-49 32.01-49ZM64.91-49C61.71-49 59.11-51.6 59.11-54.8L59.11-72.3C59.11-75.5 61.71-78.1 64.91-78.1C68.11-78.1 70.71-75.5 70.71-72.3L70.71-54.8C70.71-51.6 68.11-49 64.91-49Z"/>
   <path class="monochrome-1 multicolor-1:tintColor hierarchical-1:primary SFSymbolsPreviewWireframe" d="M44.31-28.4C41.31-28.4 38.71-30.9 38.71-32.5L36.31-32.5L16.51-32.5C13.11-32.5 10.71-35.2 10.71-38.3C10.71-41.4 13.11-44.1 16.51-44.1L44.21-44.1C47.41-44.1 50.01-41.5 50.01-38.3L50.01-34.2C50.11-31.4 47.61-28.4 44.31-28.4ZM47.41-10.9C44.61-10.9 41.61-13.2 41.61-16.2L41.61-20.8C41.61-24 44.21-26.6 47.41-26.6L80.21-26.6C82.71-26.6 86.01-24.4 86.01-21.1C86.01-16.9 82.91-15 79.81-15L53.01-15C53.01-13.5 50.41-10.9 47.41-10.9ZM62.81-10.9C59.61-10.9 57.01-13.5 57.01-16.7L57.01-20.8C57.01-24 59.61-26.6 62.81-26.6C66.01-26.6 68.61-24 68.61-20.8L68.61-16.7C68.61-13.5 66.01-10.9 62.81-10.9Z"/>
  </g>
  <g id="Regular-S" transform="matrix(1 0 0 1 1403.39 696)">
   <path class="monochrome-0 multicolor-0:tintColor hierarchical-0:primary SFSymbolsPreviewWireframe" d="M78.36-33.3C76.06-33.3 74.26-35.1 74.26-37.4L74.26-51.9C74.26-55.3 71.46-58.1 68.06-58.1L24.96-58.1C21.56-58.1 18.76-55.3 18.76-51.9C18.76-49.6 16.96-47.8 14.66-47.8C12.36-47.8 10.56-49.6 10.56-51.9C10.56-59.8 16.96-66.3 24.96-66.3L68.06-66.3C75.96-66.3 82.46-59.8 82.46-51.9L82.46-37.4C82.46-35.2 80.66-33.3 78.36-33.3ZM68.06 5.9L24.96 5.9C17.06 5.9 10.56-0.6 10.56-8.5L10.56-23C10.56-25.3 12.36-27.1 14.66-27.1C16.96-27.1 18.76-25.3 18.76-23L18.76-8.5C18.76-5.1 21.56-2.3 24.96-2.3L68.06-2.3C71.46-2.3 74.26-5.1 74.26-8.5C74.26-10.8 76.06-12.6 78.36-12.6C80.66-12.6 82.46-10.8 82.46-8.5C82.46-0.6 76.06 5.9 68.06 5.9ZM30.06-50.7C27.76-50.7 25.96-52.5 25.96-54.8L25.96-72.3C25.96-74.6 27.76-76.4 30.06-76.4C32.36-76.4 34.16-74.6 34.16-72.3L34.16-54.8C34.16-52.5 32.26-50.7 30.06-50.7ZM62.86-50.7C60.56-50.7 58.76-52.5 58.76-54.8L58.76-72.3C58.76-74.6 60.56-76.4 62.86-76.4C65.16-76.4 66.96-74.6 66.96-72.3L66.96-54.8C66.96-52.5 65.16-50.7 62.86-50.7Z"/>
   <path class="monochrome-1 multicolor-1:tintColor hierarchical-1:primary SFSymbolsPreviewWireframe" d="M42.36-30.1C40.06-30.1 38.26-31.9 38.26-34.2L38.26-34.2L14.66-34.2C12.36-34.2 10.56-36 10.56-38.3C10.56-40.6 12.36-42.4 14.66-42.4L42.36-42.4C44.66-42.4 46.46-40.6 46.46-38.3L46.46-34.2C46.46-31.9 44.66-30.1 42.36-30.1ZM45.46-12.6C43.16-12.6 41.36-14.4 41.36-16.7L41.36-20.8C41.36-23.1 43.16-24.9 45.46-24.9L78.26-24.9C80.56-24.9 82.36-23.1 82.36-20.8C82.36-18.5 80.56-16.7 78.26-16.7L49.56-16.7C49.56-14.5 47.66-12.6 45.46-12.6ZM60.86-12.6C58.56-12.6 56.76-14.4 56.76-16.7L56.76-20.8C56.76-23.1 58.56-24.9 60.86-24.9C63.16-24.9 64.96-23.1 64.96-20.8L64.96-16.7C64.96-14.5 63.06-12.6 60.86-12.6Z"/>
  </g>
  <g id="Ultralight-S" transform="matrix(1 0 0 1 515.011 696)">
   <path class="monochrome-0 multicolor-0:tintColor hierarchical-0:primary SFSymbolsPreviewWireframe" d="M76.575-36.2C75.775-36.2 75.275-36.9 75.275-37.5L75.275-52C75.275-57 71.175-61 66.275-61L23.175-61C17.575-61 14.175-56.4 14.175-52C14.175-51.3 13.575-50.7 12.875-50.7C12.375-50.7 11.575-51.1 11.575-52C11.575-58.8 17.275-63.6 23.075-63.6L66.175-63.6C72.575-63.6 77.675-58.4 77.675-52.1L77.675-37.6C77.875-36.8 77.475-36.2 76.575-36.2ZM66.375 3L23.275 3C16.875 3 11.675-2.1 11.675-8.5L11.675-23C11.675-23.8 12.275-24.3 12.975-24.3C13.375-24.3 14.275-24 14.275-23L14.275-8.5C14.275-3.5 18.375 0.5 23.275 0.5L66.375 0.5C71.775 0.5 75.375-3.9 75.375-8.5C75.375-9.2 75.875-9.8 76.675-9.8C77.375-9.8 77.975-9.2 77.975-8.5C77.875-1.3 71.775 3 66.375 3ZM28.275-53.5C27.575-53.5 26.975-54.1 26.975-54.8L26.975-72.3C26.975-73 27.575-73.6 28.275-73.6C28.975-73.6 29.575-73 29.575-72.3L29.575-54.8C29.575-54.1 28.975-53.5 28.275-53.5ZM61.075-53.5C60.375-53.5 59.775-54.1 59.775-54.8L59.775-72.3C59.775-73 60.375-73.6 61.075-73.6C61.775-73.6 62.375-73 62.375-72.3L62.375-54.8C62.375-54.1 61.875-53.5 61.075-53.5Z"/>
   <path class="monochrome-1 multicolor-1:tintColor hierarchical-1:primary SFSymbolsPreviewWireframe" d="M40.575-32.9C39.975-32.9 39.275-33.4 39.275-34.2L39.275-37L12.875-37C12.175-37 11.575-37.6 11.575-38.3C11.575-39 12.175-39.6 12.875-39.6L40.575-39.6C41.275-39.6 41.875-39 41.875-38.3L41.875-34.2C41.875-33.6 41.375-32.9 40.575-32.9ZM43.675-15.5C42.875-15.5 42.375-16.1 42.375-16.8L42.375-20.9C42.375-21.6 42.975-22.2 43.675-22.2L76.475-22.2C77.075-22.2 77.775-21.7 77.775-20.9C77.775-20 77.075-19.6 76.475-19.6L44.875-19.6C44.975-17 45.375-15.5 43.675-15.5ZM59.075-15.5C58.375-15.5 57.775-16.1 57.775-16.8L57.775-20.9C57.775-21.6 58.375-22.2 59.075-22.2C59.775-22.2 60.375-21.6 60.375-20.9L60.375-16.8C60.375-16 59.775-15.5 59.075-15.5Z"/>
  </g>
 </g>
</svg>
