<svg width="45" height="45" viewBox="0 0 45 45" fill="none" xmlns="http://www.w3.org/2000/svg">
<path fill-rule="evenodd" clip-rule="evenodd" d="M39.3094 43.4005C39.3095 43.4005 39.3096 43.4004 39.3096 43.4003C39.3096 33.6576 31.4116 25.7596 21.6689 25.7596C11.9263 25.7596 4.02832 33.6576 4.02832 43.4003C4.02832 43.4004 4.02842 43.4005 4.02854 43.4005H39.3094Z" fill="#4098FF"/>
<ellipse cx="21.6692" cy="29.9344" rx="3.33231" ry="1.73905" fill="#0070F3"/>
<path fill-rule="evenodd" clip-rule="evenodd" d="M21.8799 0.392578C22.4322 0.392578 22.8799 0.840293 22.8799 1.39258L22.8799 28.934C22.8799 29.4863 22.4322 29.934 21.8799 29.934C21.3276 29.934 20.8799 29.4863 20.8799 28.934L20.8799 1.39258C20.8799 0.840293 21.3276 0.392578 21.8799 0.392578Z" fill="#688FB7"/>
<path fill-rule="evenodd" clip-rule="evenodd" d="M23.0171 1.69075L40.9181 10.8721C40.992 10.9105 40.9884 11.0169 40.9122 11.05L23.0106 18.7511C22.9461 18.7789 22.874 18.7316 22.874 18.6613V1.77824C22.874 1.70435 22.9521 1.65706 23.0171 1.69075Z" fill="#F58B00"/>
</svg>
