<svg width="321" height="240" viewBox="0 0 321 240" fill="none" xmlns="http://www.w3.org/2000/svg">
<path d="M305.711 20.0059H14.6174C12.72 20.0041 10.8408 20.3763 9.08735 21.1012C7.33387 21.8261 5.74044 22.8895 4.39815 24.2305C3.05586 25.5716 1.99103 27.164 1.26452 28.9168C0.538005 30.6696 0.164062 32.5485 0.164063 34.4459V205.553C0.164063 209.386 1.68681 213.062 4.39734 215.773C7.10786 218.483 10.7841 220.006 14.6174 220.006H305.711C309.544 220.006 313.22 218.483 315.931 215.773C318.641 213.062 320.164 209.386 320.164 205.553V34.4459C320.164 32.5485 319.79 30.6696 319.064 28.9168C318.337 27.164 317.272 25.5716 315.93 24.2305C314.588 22.8895 312.994 21.8261 311.241 21.1012C309.487 20.3763 307.608 20.0041 305.711 20.0059Z" fill="#EBF8FF"/>
<path d="M97.3023 168.46L93.6126 171.44L112.83 156.038L106.624 160.994L97.3023 168.46Z" fill="#9EDDFF"/>
<path d="M62.5947 188.969L60.5057 185.049L36.2693 156.152C36.1735 156.039 36.1012 155.908 36.0569 155.767C36.0125 155.625 35.9968 155.477 36.0109 155.329C36.0249 155.182 36.0683 155.039 36.1386 154.908C36.2088 154.778 36.3044 154.663 36.4198 154.57L37.8082 153.447L34.7558 149.818C34.6606 149.704 34.589 149.572 34.5451 149.43C34.5013 149.287 34.4861 149.138 34.5004 148.99C34.5148 148.842 34.5583 148.698 34.6286 148.567C34.6989 148.436 34.7944 148.32 34.9098 148.226L36.9056 146.617L33.664 142.451C33.5762 142.318 33.5159 142.168 33.4864 142.011C33.4568 141.854 33.4587 141.692 33.492 141.536C33.5252 141.38 33.5892 141.232 33.6801 141.1C33.7709 140.969 33.887 140.856 34.0215 140.77L63.0978 119.113L63.6536 115.453L26.5792 145.41C26.3514 145.595 26.1633 145.824 26.026 146.083C25.8888 146.343 25.8052 146.627 25.7804 146.919C25.7556 147.211 25.7899 147.506 25.8815 147.784C25.973 148.063 26.1198 148.32 26.3131 148.541L62.1915 189.527C63.1136 190.579 64.3838 191.263 65.7694 191.454C65.0944 191.288 64.4623 190.981 63.915 190.553C63.3676 190.124 62.9176 189.585 62.5947 188.969Z" fill="#9EDDFF"/>
<path d="M36.4162 154.564C36.3008 154.657 36.2052 154.772 36.135 154.902C36.0648 155.033 36.0213 155.176 36.0073 155.323C35.9933 155.471 36.0089 155.619 36.0533 155.761C36.0977 155.902 36.1699 156.033 36.2657 156.146L60.509 185.04L53.8607 172.571L37.8116 153.438L36.4162 154.564Z" fill="#D1EFFF"/>
<path d="M36.8925 146.59L34.8967 148.199C34.7813 148.293 34.6857 148.409 34.6154 148.54C34.5451 148.671 34.5016 148.815 34.4872 148.963C34.4729 149.111 34.4881 149.26 34.5319 149.402C34.5758 149.545 34.6474 149.677 34.7426 149.791L37.795 153.42L53.8442 172.552L46.7583 159.258L36.8925 146.59Z" fill="#B8E6FF"/>
<path d="M33.6509 142.423L36.8925 146.589L46.7682 159.278L40.611 147.71C40.0566 146.676 39.8807 145.48 40.1136 144.329C40.3464 143.179 40.9735 142.145 41.8866 141.407L61.4253 125.614C61.9122 125.228 62.2338 124.67 62.3249 124.055L63.0847 119.085L34.0018 140.728C33.8659 140.815 33.7487 140.928 33.6572 141.061C33.5657 141.194 33.5017 141.344 33.469 141.502C33.4363 141.66 33.4356 141.823 33.4668 141.981C33.498 142.139 33.5607 142.29 33.6509 142.423Z" fill="#D1EFFF"/>
<path d="M94.009 84.3577L64.7088 107.995C64.2208 108.392 63.8971 108.955 63.8 109.575L63.0041 115.086L62.4363 118.778L61.6602 123.791C61.5671 124.412 61.241 124.974 60.7481 125.365L40.9675 141.324C40.0431 142.07 39.4074 143.113 39.1701 144.274C38.9329 145.435 39.1088 146.64 39.6677 147.683L45.8748 159.339L53.0183 172.736L59.7205 185.301L61.8265 189.252C62.1731 189.897 62.6582 190.458 63.2474 190.894C63.8365 191.331 64.5152 191.632 65.2353 191.777C65.9554 191.922 66.6991 191.907 67.4137 191.733C68.1282 191.559 68.7962 191.23 69.3699 190.77L93.2162 171.54L96.9273 168.532L106.365 160.987L112.64 155.982L130.028 142.092C130.429 141.777 130.702 141.327 130.797 140.828C130.892 140.328 130.803 139.811 130.547 139.373L99.3267 85.3513C99.0736 84.9043 98.7256 84.5181 98.3071 84.2195C97.8885 83.921 97.4094 83.7173 96.9031 83.6227C96.3968 83.5281 95.8756 83.5449 95.3757 83.6718C94.8759 83.7988 94.4095 84.0328 94.009 84.3577Z" fill="#B8E6FF"/>
<path d="M209.646 49.017C208.315 48.4117 206.798 48.3594 205.428 48.8714C204.059 49.3835 202.948 50.4181 202.341 51.748L165.468 132.837C164.865 134.169 164.816 135.686 165.33 137.054C165.844 138.423 166.881 139.532 168.212 140.137L225.714 166.284C227.044 166.889 228.56 166.941 229.928 166.428C231.296 165.915 232.405 164.879 233.01 163.549L266.423 90.0685L256.87 70.4909L209.646 49.017Z" fill="#B8E6FF"/>
<path d="M207.798 44.0873C206.467 43.482 204.95 43.4297 203.58 43.9418C202.211 44.4538 201.1 45.4884 200.493 46.8184L163.62 127.907C163.017 129.239 162.967 130.756 163.482 132.125C163.996 133.493 165.033 134.602 166.364 135.207L223.865 161.354C224.524 161.654 225.235 161.821 225.958 161.845C226.682 161.87 227.402 161.752 228.08 161.498C228.758 161.244 229.378 160.859 229.907 160.365C230.436 159.871 230.862 159.278 231.162 158.619L264.575 85.1388L255.022 65.5612L207.798 44.0873Z" fill="#D1EFFF"/>
<path d="M249.273 78.1816L263.164 88.2194L264.566 85.1354L249.273 78.1816Z" fill="#9EDDFF"/>
<path d="M249.273 78.1804L264.566 85.1342L255.014 65.5566L249.273 78.1804Z" fill="#B8E6FF"/>
<path d="M264.92 132.81C257.424 141.21 248.141 150.146 242.255 143.716C234.88 135.653 242.639 128.371 250.162 119.948C257.684 111.524 265.071 105.689 271.181 111.155C276.922 116.274 272.448 124.372 264.92 132.81Z" fill="#9EDDFF"/>
<path d="M277.045 130.424C282.784 130.244 287.353 127.487 287.251 124.267C287.15 121.046 282.416 118.582 276.678 118.762C270.94 118.942 266.37 121.699 266.472 124.919C266.573 128.14 271.307 130.604 277.045 130.424Z" fill="#9EDDFF"/>
<path d="M267.97 153.17C263.193 157.472 257.31 158.685 254.779 155.928C248.597 149.19 253.721 147.061 258.896 143.096C264.07 139.132 269.519 137.613 272.086 140.338C276.799 145.33 272.772 148.844 267.97 153.17Z" fill="#9EDDFF"/>
<path d="M257.263 169.554L223.608 132.191C223.21 131.749 222.529 131.713 222.087 132.112L196.864 154.831C196.422 155.229 196.387 155.91 196.785 156.353L230.44 193.715C230.838 194.157 231.519 194.193 231.961 193.795L257.184 171.075C257.626 170.677 257.662 169.996 257.263 169.554Z" fill="#B8E6FF"/>
<path d="M261.73 165.483L228.127 128.177C227.729 127.735 227.047 127.7 226.605 128.098L217.552 136.253C217.11 136.651 217.074 137.332 217.472 137.775L251.076 175.08C251.474 175.522 252.155 175.558 252.597 175.16L261.651 167.005C262.093 166.606 262.129 165.925 261.73 165.483Z" fill="#9EDDFF"/>
<path d="M267.244 164.612L229.839 123.086C229.44 122.644 228.759 122.608 228.317 123.006L218.396 131.943C217.954 132.341 217.918 133.022 218.316 133.465L255.722 174.991C256.12 175.433 256.801 175.469 257.243 175.07L267.165 166.133C267.607 165.735 267.642 165.054 267.244 164.612Z" fill="#B8E6FF"/>
<path d="M124.385 196.845L116.86 203.741L114.596 193.011L124.385 196.845Z" fill="#005DC9"/>
<ellipse cx="168.558" cy="192.919" rx="52.8727" ry="11.2404" transform="rotate(-11.9114 168.558 192.919)" fill="#005DC9"/>
<path d="M208.696 178.985L220.246 181.792L218.011 171.194L208.696 178.985Z" fill="#005DC9"/>
<ellipse cx="166.449" cy="182.925" rx="52.8727" ry="11.2404" transform="rotate(-11.9114 166.449 182.925)" fill="#0070F2"/>
<path fill-rule="evenodd" clip-rule="evenodd" d="M163.505 125.02C172.96 129.805 179.944 134.081 185.18 138.256C190.004 142.111 193.341 145.844 195.814 149.758C199.891 156.365 201.499 163.491 203.304 172.545L203.22 172.563C203.324 172.7 203.393 172.846 203.425 173.001C204.126 176.324 187.948 182.551 167.29 186.908C146.632 191.266 129.318 192.104 128.617 188.781C128.584 188.626 128.588 188.465 128.627 188.297L128.519 188.32C126.601 179.228 125.144 172.069 126.218 164.439C126.847 159.87 128.367 155.113 131.222 149.638C134.307 143.737 138.969 137.007 145.705 128.775C145.718 128.752 145.763 128.69 145.836 128.589C146.193 128.096 147.213 126.69 148.302 124.501C149.171 122.754 148.674 120.4 147.17 119.158C145.323 117.634 143.854 116.779 143.334 116.477C143.227 116.414 143.16 116.375 143.139 116.359C133.684 111.574 126.699 107.299 121.463 103.124C116.639 99.268 113.302 95.5359 110.829 91.6216C106.753 85.0148 105.145 77.8884 103.34 68.8347L178.124 53.0598C180.042 62.1514 181.499 69.3106 180.426 76.9409C179.796 81.5097 178.276 86.2661 175.421 91.7421C172.336 97.6415 167.674 104.373 160.939 112.604C160.926 112.627 160.882 112.688 160.811 112.786C160.447 113.287 159.378 114.758 158.252 117.058C157.443 118.711 157.909 120.913 159.32 122.094C161.24 123.7 162.778 124.594 163.311 124.904C163.418 124.966 163.484 125.004 163.505 125.02Z" fill="#9EDDFF"/>
<path fill-rule="evenodd" clip-rule="evenodd" d="M96.1959 62.081C97.8602 61.7299 99.4941 62.7945 99.8452 64.4589L126.178 189.294C126.529 190.958 125.465 192.592 123.8 192.943C122.136 193.294 120.502 192.23 120.151 190.566L93.818 65.7303C93.4669 64.0659 94.5315 62.4321 96.1959 62.081Z" fill="#004DA5"/>
<path fill-rule="evenodd" clip-rule="evenodd" d="M183.308 43.706C184.973 43.3549 186.606 44.4195 186.957 46.0839L213.29 170.919C213.641 172.583 212.577 174.217 210.912 174.568C209.248 174.919 207.614 173.855 207.263 172.191L180.93 47.3553C180.579 45.6909 181.644 44.0571 183.308 43.706Z" fill="#004DA5"/>
<path d="M94.9895 57.4931L87.4648 64.3892L85.2014 53.6592L94.9895 57.4931Z" fill="#005DC9"/>
<ellipse cx="139.162" cy="53.5679" rx="52.8727" ry="11.2404" transform="rotate(-11.9114 139.162 53.5679)" fill="#005DC9"/>
<path d="M179.301 39.6331L190.851 42.4402L188.616 31.8424L179.301 39.6331Z" fill="#005DC9"/>
<ellipse cx="137.054" cy="43.5737" rx="52.8727" ry="11.2404" transform="rotate(-11.9114 137.054 43.5737)" fill="#0070F2"/>
<path fill-rule="evenodd" clip-rule="evenodd" d="M176.867 88.7833C176.429 89.7472 175.948 90.7322 175.422 91.7417C172.337 97.6411 167.675 104.373 160.939 112.604C160.927 112.627 160.883 112.688 160.812 112.785L160.812 112.785C160.53 113.174 159.824 114.145 158.996 115.634L146.875 118.917C145.168 117.543 143.826 116.762 143.335 116.477C143.227 116.414 143.16 116.375 143.14 116.359C133.988 111.728 127.152 107.574 121.974 103.527C124.563 100.926 128.413 98.0644 133.854 94.9361C157.83 81.15 171.251 84.0869 176.867 88.7833Z" fill="#CC7400"/>
<path fill-rule="evenodd" clip-rule="evenodd" d="M176.661 89.2311C176.279 90.0521 175.867 90.8887 175.421 91.7427C172.336 97.6422 167.674 104.374 160.939 112.605C160.926 112.628 160.882 112.689 160.811 112.786L160.811 112.786C160.447 113.287 159.378 114.759 158.253 117.059C158.093 117.385 157.983 117.731 157.92 118.088C157.864 118.111 157.807 118.134 157.75 118.157C157.08 121.197 156.781 124.87 156.679 128.41C156.612 130.762 152.812 131.587 151.918 129.411L148.128 120.187L148.029 120.147C147.796 119.775 147.508 119.439 147.17 119.159C145.324 117.634 143.854 116.78 143.335 116.478C143.227 116.415 143.16 116.376 143.139 116.36C133.684 111.575 126.7 107.3 121.463 103.125C119.744 101.751 118.214 100.393 116.845 99.0368C121.759 92.2145 133.088 89.514 148.706 94.9324C164.222 100.316 171.857 95.4525 176.661 89.2311Z" fill="#F58B00"/>
<path fill-rule="evenodd" clip-rule="evenodd" d="M199.705 158.065C201.215 162.403 202.225 167.129 203.304 172.546L203.22 172.563C203.324 172.7 203.393 172.847 203.426 173.002C204.127 176.325 187.949 182.552 167.291 186.909C146.633 191.267 129.318 192.105 128.617 188.782C128.584 188.627 128.588 188.465 128.628 188.298L128.52 188.321C127.457 183.282 126.535 178.836 126.108 174.576C133.733 169.487 149.33 160.288 159.728 158.361C169.204 156.605 187.97 157.093 199.705 158.065Z" fill="#F58B00"/>
<path fill-rule="evenodd" clip-rule="evenodd" d="M202.254 167.472C202.61 169.097 202.953 170.785 203.304 172.546L203.221 172.563C203.324 172.7 203.393 172.846 203.426 173.001C204.127 176.325 187.949 182.551 167.291 186.909C146.633 191.266 129.318 192.105 128.617 188.782C128.584 188.627 128.588 188.465 128.628 188.298L128.52 188.321C128.216 186.882 127.924 185.492 127.652 184.141C133.835 178.087 139.587 169.386 144.233 161.203C150.264 150.578 165.156 147.279 175.29 154.104C183.379 159.551 192.99 164.937 202.254 167.472Z" fill="#CC7400"/>
<path fill-rule="evenodd" clip-rule="evenodd" d="M198.773 155.596C200.828 160.605 202.016 166.083 203.303 172.542L203.219 172.56C203.323 172.697 203.392 172.843 203.425 172.998C204.126 176.321 187.948 182.548 167.29 186.905C146.632 191.263 129.317 192.101 128.616 188.778C128.583 188.623 128.587 188.462 128.627 188.295L128.519 188.317C127.467 183.333 126.554 178.929 126.121 174.71C146.104 181.999 162.712 172.64 176.928 164.629C184.904 160.135 192.128 156.064 198.773 155.596Z" fill="#F58B00"/>
<path fill-rule="evenodd" clip-rule="evenodd" d="M155.429 135.201C156.539 134.967 157.628 135.677 157.862 136.786L158.628 140.416C158.862 141.525 158.152 142.615 157.043 142.849C155.933 143.083 154.844 142.373 154.61 141.263L153.844 137.634C153.61 136.524 154.32 135.435 155.429 135.201Z" fill="#F58B00"/>
<path d="M195.7 168.843C192.121 154.783 184.847 147.004 181.144 143.656C180.513 143.085 179.644 142.872 178.81 143.047C177.534 143.317 176.946 144.99 177.626 146.103C180.789 151.286 185.359 162.186 187.097 170.698C187.51 172.721 189.65 174.022 191.567 173.256L193.882 172.332C195.272 171.776 196.069 170.294 195.7 168.843Z" fill="#D1EFFF"/>
<path fill-rule="evenodd" clip-rule="evenodd" d="M191.426 157.332C193.067 160.58 194.568 164.398 195.7 168.844C196.069 170.295 195.272 171.778 193.882 172.333L191.568 173.258C189.65 174.024 187.511 172.723 187.097 170.7C186.451 167.535 185.413 164.041 184.202 160.633C186.684 159.34 189.09 158.202 191.426 157.332Z" fill="#EBF8FF"/>
<path d="M117.322 91.9475C113.855 88.2137 111.647 84.1372 110.13 78.9596C109.493 76.7831 110.937 74.5951 113.156 74.127L115.155 73.7053C117.49 73.2127 119.73 74.8154 120.322 77.1277C120.963 79.631 122.025 82.6896 123.817 85.7676C125.148 88.0546 124.68 91.1188 122.432 92.5146C120.787 93.5362 118.64 93.3666 117.322 91.9475Z" fill="#EBF8FF"/>
</svg>
