<svg width="128" height="64" viewBox="0 0 128 64" fill="none" xmlns="http://www.w3.org/2000/svg">
<path d="M0 16.5C0 12.0817 3.58172 8.5 8 8.5H120C124.418 8.5 128 12.0817 128 16.5V55.5C128 59.9183 124.418 63.5 120 63.5H8C3.58172 63.5 0 59.9183 0 55.5V16.5Z" fill="#89D1FF"/>
<path d="M37.5517 29.7443C33.5467 26.774 29.5351 23.8036 25.5302 20.8333C25.1564 20.5596 24.7959 21.1804 25.1631 21.4541C29.168 24.4244 33.1796 27.3947 37.1846 30.365C37.5583 30.6387 37.9188 30.018 37.5517 29.7443Z" fill="#340800"/>
<path d="M37.1044 29.484C35.6226 26.2333 34.1407 22.9827 32.6589 19.732C30.296 14.5456 27.9331 9.36587 25.5702 4.17948C25.0228 2.98467 24.4821 1.78986 23.9348 0.588382C23.8614 0.428185 23.581 0.501611 23.6011 0.681833C24.1751 6.73596 24.7491 12.7968 25.3165 18.8509C25.3966 19.712 25.4767 20.5797 25.5635 21.4408C25.5835 21.6677 25.944 21.6744 25.9239 21.4408C25.3499 15.3866 24.7758 9.32582 24.2085 3.27169C24.1284 2.41063 24.0483 1.54289 23.9615 0.681833L23.6278 0.775281C25.1096 4.02596 26.5914 7.27663 28.0732 10.5273C30.4362 15.7137 32.7991 20.8934 35.162 26.0798C35.7093 27.2746 36.25 28.4694 36.7973 29.6709C36.8908 29.8845 37.2045 29.6976 37.111 29.4907L37.1044 29.484Z" fill="#340800"/>
<path d="M28.6006 10.4203C27.2456 10.1066 25.8839 9.79956 24.5289 9.48584C24.1084 9.39239 23.9281 10.0332 24.3487 10.1333L28.4203 11.0678C28.8409 11.1612 29.0211 10.5205 28.6006 10.4203Z" fill="#340800"/>
<path d="M32.5454 18.7376C30.0557 17.6963 27.5726 16.655 25.0829 15.6138C24.7158 15.4602 24.5489 16.061 24.916 16.2145C27.4057 17.2558 29.8888 18.2971 32.3785 19.3383C32.7457 19.4919 32.9125 18.8911 32.5454 18.7376Z" fill="#340800"/>
<path d="M81.8914 59.1435C93.7019 57.2898 102.995 53.998 102.649 51.791C102.303 49.584 92.4475 49.2977 80.637 51.1514C68.8264 53.0051 59.5329 56.2969 59.8793 58.5039C60.2257 60.7108 70.0808 60.9972 81.8914 59.1435Z" fill="#1B90FF"/>
<path d="M88.9283 22.9958C92.3725 26.607 95.8168 30.2114 99.2611 33.8225C99.5815 34.1563 100.089 33.649 99.7683 33.3152C96.3241 29.7041 92.8798 26.0997 89.4356 22.4886C89.1152 22.1548 88.6079 22.6621 88.9283 22.9958Z" fill="#340800"/>
<path d="M89.6826 23.1896C92.466 17.2489 95.2494 11.3083 98.0329 5.37429C98.4267 4.53325 98.8205 3.69221 99.2143 2.8445L98.8806 2.75105C98.8939 6.16193 98.9073 9.56613 98.9206 12.977L98.9874 29.2704C98.9874 30.5186 98.9941 31.7668 99.0007 33.015C99.0007 33.2487 99.3612 33.2487 99.3612 33.015C99.3478 29.6042 99.3345 26.2 99.3211 22.7891C99.3011 17.3557 99.2811 11.9224 99.2544 6.49567C99.2544 5.24747 99.2477 3.99926 99.241 2.75105C99.241 2.58418 98.9807 2.49073 98.9073 2.65761C96.1238 8.59826 93.3404 14.5389 90.557 20.4729C90.1632 21.3139 89.7694 22.155 89.3755 23.0027C89.2754 23.2096 89.5891 23.3965 89.6892 23.1829L89.6826 23.1896Z" fill="#340800"/>
<path d="M99.6482 12.4097C98.1931 11.7221 96.7446 11.0413 95.2895 10.3538C95.116 10.2737 94.9024 10.3071 94.7956 10.4806C94.7021 10.6341 94.7489 10.8878 94.9224 10.9746C96.3775 11.6621 97.826 12.3429 99.2811 13.0304C99.4546 13.1105 99.6682 13.0772 99.775 12.9036C99.8685 12.7501 99.8218 12.4964 99.6482 12.4097Z" fill="#340800"/>
<path d="M99.6282 21.9545C97.0918 20.0789 94.5553 18.2032 92.0188 16.3343C91.645 16.0606 91.2846 16.6814 91.6517 16.955C94.1882 18.8307 96.7246 20.7063 99.2611 22.5753C99.6349 22.849 99.9953 22.2282 99.6282 21.9545Z" fill="#340800"/>
<path d="M98.8672 33.6425L76.0591 43.3812L68.5631 44.1155L59.1782 43.6082C59.1782 43.6082 85.0768 33.2821 88.7614 23.0361L98.8739 33.6425H98.8672Z" fill="#C35500"/>
<path d="M29.1145 23.6835L28.6473 24.2909C29.1746 24.6914 29.7153 25.0986 30.2693 25.5191L30.7365 24.9117C30.1892 24.4979 29.6418 24.084 29.1145 23.6835ZM26.1976 21.4741L25.7303 22.0815C26.1909 22.4286 26.7449 22.8491 27.3524 23.3097L27.8196 22.7023C27.2122 22.2417 26.6648 21.8279 26.1976 21.4741ZM36.5571 29.3238C36.1232 28.9901 35.5692 28.5695 34.9351 28.0956L34.4678 28.703C35.0952 29.177 35.6493 29.5975 36.0898 29.9312L36.5571 29.3238ZM32.0248 25.8929L31.5576 26.5003C32.1116 26.9208 32.6589 27.3347 33.1796 27.7285L33.6468 27.1211C33.1261 26.7273 32.5788 26.3134 32.0248 25.8929Z" fill="#8D2A00"/>
<path d="M98.0529 30.9258L97.045 31.8069L98.4467 33.2887L99.4546 32.4076L98.0529 30.9258Z" fill="#8D2A00"/>
<path d="M97.7926 30.6519L96.8381 31.5863L98.2398 33.0682L99.1943 32.127L97.7926 30.6519Z" fill="#C35500"/>
<path d="M95.5632 28.2686L94.5552 29.1496L95.957 30.6315L96.9649 29.7504L95.5632 28.2686Z" fill="#8D2A00"/>
<path d="M95.3029 27.9951L94.3483 28.9296L95.7434 30.4114L96.7046 29.4703L95.3029 27.9951Z" fill="#C35500"/>
<path d="M92.9933 25.5786L91.9854 26.4597L93.3871 27.9415L94.395 27.0604L92.9933 25.5786Z" fill="#8D2A00"/>
<path d="M92.733 25.3052L91.7785 26.2463L93.1736 27.7215L94.1348 26.7803L92.733 25.3052Z" fill="#C35500"/>
<path d="M90.5236 22.9556L89.5157 23.8367L90.9174 25.3185L91.9253 24.4374L90.5236 22.9556Z" fill="#8D2A00"/>
<path d="M90.2633 22.6821L89.3088 23.6233L90.7038 25.0984L91.665 24.164L90.2633 22.6821Z" fill="#C35500"/>
<path d="M80.5913 32.1069L87.0459 40.8911L79.6502 44.1151L76.4329 34.9037L80.5913 32.1069Z" fill="#8D2A00"/>
<path d="M73.4826 40.411C75.0178 41.2587 79.6101 41.3655 79.6101 41.3655C79.6836 41.3655 79.7637 41.3655 79.8237 41.3655L88.9884 40.4711C89.4957 40.4243 89.8628 39.9571 89.7894 39.4565C89.7693 39.3096 89.7426 39.1561 89.7093 38.9959C89.5758 38.255 89.3888 37.4941 89.3021 37.1536C89.2754 37.0402 89.2553 36.9734 89.2553 36.9734C89.2553 36.9734 89.3621 36.7865 89.509 36.5195C89.6291 36.3059 89.8828 35.7519 90.003 35.5116C90.27 34.9843 90.5236 33.9363 90.4635 33.409C90.4635 33.3556 90.3968 33.2355 90.3968 33.2355C90.2366 32.9218 89.9228 32.7148 89.5691 32.7215H89.5624C88.4811 32.7415 87.3397 32.875 82.8675 32.4211C79.3498 32.0607 76.9201 31.5467 76.0457 31.3465C75.8455 31.2998 75.6452 31.3265 75.4583 31.4132C75.4583 31.4132 75.1379 31.5467 75.0445 31.6135C74.9577 31.6736 74.8976 31.6869 74.8309 31.8204C74.8309 31.8337 74.8042 31.9272 74.8042 31.9339C74.7775 32.0273 74.7642 32.1274 74.7642 32.1742C74.6841 32.7282 74.6774 33.2355 74.624 33.8496C74.5706 34.4904 74.5305 35.0577 74.5105 35.3447C74.5038 35.4716 74.4704 35.585 74.4104 35.6918C74.3369 35.8387 74.2034 36.119 73.9898 36.633C73.9765 36.673 73.9565 36.7198 73.9365 36.7665C73.8631 36.94 73.7896 37.147 73.7095 37.3606C73.5426 37.8078 73.2089 38.5487 72.9953 39.3964C72.9686 39.5099 72.9285 39.6768 72.9886 39.8703C73.0153 39.9571 73.1088 40.1907 73.4826 40.391V40.411Z" fill="#FFEAF4"/>
<path opacity="0.3" d="M77.7545 33.2552C77.4341 33.2352 76.3661 32.8547 76.1659 33.1084C75.8254 33.5356 76.0324 34.8038 75.5651 35.7917C74.8242 37.367 74.5639 39.0624 74.7775 39.2359C74.9978 39.4095 79.5968 40.6243 79.9772 40.6176C80.3577 40.6176 82.6205 34.8171 82.7006 34.7037C83.6618 33.382 81.0052 33.4688 77.7545 33.2485V33.2552Z" fill="#FFB2D2"/>
<path opacity="0.8" d="M79.263 36.4659C79.263 36.4659 77.1738 36.1388 75.8922 36.032C74.6106 35.9252 74.6506 35.7717 74.0032 36.5526C74.3703 35.6382 74.5038 35.4713 74.5038 35.4713C74.5038 35.4713 74.5505 34.697 74.6306 33.7759C74.704 33.9628 75.0979 34.9173 75.485 35.2377C75.9189 35.5915 79.263 36.4725 79.263 36.4725V36.4659Z" fill="#FFB2D2"/>
<path opacity="0.8" d="M89.262 36.9864C89.262 36.9864 89.282 37.0532 89.3087 37.1667C89.1485 37.2267 88.995 37.2735 88.8749 37.2935C88.4276 37.3602 86.6121 37.1266 86.6121 37.1266C86.6121 37.1266 87.6867 37.2 88.2741 37.0599C88.8481 36.9197 89.4756 36.5659 89.5156 36.5459C89.3755 36.8062 89.2687 36.9931 89.2687 36.9931L89.262 36.9864Z" fill="#FFB2D2"/>
<path d="M71.4467 43.6148C71.4467 43.4546 71.3065 43.4212 71.1664 43.0474C71.0596 42.7737 70.9528 42.4066 70.886 41.946C70.866 41.7925 70.846 41.6323 70.8393 41.4588C70.8193 41.1451 70.8259 40.798 70.866 40.4175C70.8727 40.3174 70.8927 40.2239 70.906 40.1171C70.9327 39.9436 70.9728 39.7567 71.0129 39.5765C71.1397 39.0491 71.3199 38.5085 71.5202 37.9945C71.6003 37.7943 71.6803 37.6074 71.7604 37.4205C72.2544 36.2991 72.7884 35.4313 72.9085 35.438C72.9419 35.438 73.042 35.458 73.1955 35.4847C73.7896 35.5849 75.1513 35.8452 76.0524 35.9854C76.4596 36.0521 76.7666 36.0922 76.8734 36.0855C77.2872 36.0721 79.7503 35.2979 80.084 35.4247C80.2776 35.5048 80.2242 36.8998 80.0106 38.3616C79.9772 38.5886 79.9372 38.8222 79.8971 39.0491C79.7903 39.6632 79.6502 40.2439 79.4966 40.7045C79.4633 40.8247 79.4232 40.9315 79.3832 41.0316C79.3097 41.2118 79.2363 41.3854 79.1629 41.5589C79.016 41.886 78.8692 42.193 78.729 42.4734C78.6756 42.5802 78.6222 42.687 78.5689 42.7871C78.2084 43.488 77.9214 43.9552 77.9214 43.9552" fill="#FFB2D2"/>
<path d="M76.9202 44.0751C76.9202 44.0751 73.9699 43.9617 73.0421 43.8415C72.1142 43.7214 71.8539 43.708 71.8539 43.708" fill="#FFB2D2"/>
<path d="M71.4467 43.6149C71.4467 43.6149 71.3066 43.4213 71.1664 43.0475C71.3399 43.3212 71.5402 43.5215 71.627 43.4747C71.7137 43.428 74.5038 43.0475 75.712 43.3012C76.9201 43.5482 76.5397 43.5749 77.027 43.5415C77.5142 43.5014 77.868 43.1944 78.462 42.5202C79.0561 41.8394 79.5501 38.849 79.6035 38.6555C79.6502 38.4552 79.5634 37.8945 79.6168 37.3338C79.6702 36.7731 80.084 35.4248 80.084 35.4248C80.2776 35.5049 80.2242 36.9 80.0106 38.3618C79.9772 38.5887 79.9372 38.8223 79.8972 39.0493C79.7904 39.6634 79.6502 40.2441 79.4966 40.7046C79.4633 40.8248 79.4232 40.9316 79.3832 41.0317C79.3098 41.2119 79.2363 41.3855 79.1629 41.559C79.016 41.8861 78.8692 42.1931 78.7291 42.4735C78.669 42.587 78.669 42.587 78.5689 42.7872C78.0816 43.7484 78.0549 43.8485 77.9214 43.9553C77.7879 44.0621 77.5008 44.209 76.9068 44.0888C74.6774 44.002 73.6027 43.9153 73.0287 43.8552C72.9352 43.8418 71.8406 43.7217 71.8406 43.7217" fill="#9B015D"/>
<path opacity="0.3" d="M72.6349 36.8131C72.408 36.8331 72.201 36.96 72.0876 37.1535C71.894 37.4873 71.6003 38.068 71.38 38.7956C71.0329 39.9637 71.0329 41.1585 71.2065 41.2519C71.3733 41.3454 74.7108 41.6991 74.9711 41.6524C75.2381 41.6057 76.2861 37.3605 76.226 37.287C76.1726 37.2136 74.911 36.6129 72.6282 36.8131H72.6349Z" fill="#FFEAF4"/>
<path d="M76.3995 43.4678C76.3995 43.4678 73.269 44.1219 72.2611 44.2354C71.2532 44.3489 70.9728 44.4023 70.9728 44.4023" fill="#FFB2D2"/>
<path d="M25.7504 21.5542L37.2646 30.038C37.2646 30.038 56.4616 41.0649 60.0327 42.5467C63.6038 44.0286 73.6762 42.8204 75.8322 42.1529C77.9882 41.4788 98.8673 33.6491 98.8673 33.6491C98.8673 33.6491 98.9607 33.589 93.9345 37.7742C87.313 43.281 78.0549 46.9589 72.2144 48.6142C68.7835 49.5888 62.2354 50.7769 58.1237 50.7769C54.012 50.7769 47.0433 47.4728 44.2065 44.9964C38.5929 40.0904 25.7571 21.5609 25.7571 21.5609L25.7504 21.5542Z" fill="#8D2A00"/>
<path d="M31.7645 29.9378C31.7645 29.9378 47.9979 40.7979 51.4888 42.3732C53.8317 43.4345 57.0891 45.9109 62.3088 46.6785C63.3101 46.8253 77.7145 46.7719 77.7145 46.7719C76.5798 46.7853 71.914 49.9024 58.7778 50.8036C56.3148 50.9704 55.6339 50.5432 54.4725 50.3029C51.0149 49.5821 47.3437 47.3126 46.1222 46.4115C44.8206 45.4503 43.7259 44.6226 41.6233 42.3665C40.5019 41.165 39.4273 39.9969 38.8332 39.3494C38.3126 38.7821 32.6656 31.0525 31.7712 29.9312L31.7645 29.9378Z" fill="#8D2A00"/>
</svg>
