<svg width="128" height="63" viewBox="0 0 128 63" fill="none" xmlns="http://www.w3.org/2000/svg">
<path d="M0 16C0 11.5817 3.58172 8 8 8H120C124.418 8 128 11.5817 128 16V55C128 59.4183 124.418 63 120 63H8C3.58172 63 0 59.4183 0 55V16Z" fill="#222F3B"/>
<path d="M37.5517 29.2443C33.5467 26.274 29.5351 23.3036 25.5302 20.3333C25.1564 20.0596 24.7959 20.6804 25.1631 20.9541C29.168 23.9244 33.1796 26.8947 37.1846 29.865C37.5583 30.1387 37.9188 29.518 37.5517 29.2443Z" fill="#340800"/>
<path d="M37.1045 28.984C35.6226 25.7333 34.1408 22.4827 32.659 19.232C30.296 14.0456 27.9331 8.86587 25.5702 3.67948C25.0229 2.48467 24.4822 1.28986 23.9349 0.0883824C23.8614 -0.0718151 23.5811 0.00161091 23.6011 0.181833C24.1752 6.23596 24.7492 12.2968 25.3166 18.3509C25.3967 19.212 25.4768 20.0797 25.5635 20.9408C25.5836 21.1677 25.944 21.1744 25.924 20.9408C25.3499 14.8866 24.7759 8.82582 24.2085 2.77169C24.1284 1.91063 24.0483 1.04289 23.9616 0.181833L23.6278 0.275281C25.1097 3.52596 26.5915 6.77663 28.0733 10.0273C30.4362 15.2137 32.7991 20.3934 35.162 25.5798C35.7094 26.7746 36.2501 27.9694 36.7974 29.1709C36.8909 29.3845 37.2046 29.1976 37.1111 28.9907L37.1045 28.984Z" fill="#340800"/>
<path d="M28.6006 9.92033C27.2456 9.60661 25.8839 9.29956 24.5289 8.98584C24.1084 8.89239 23.9282 9.53318 24.3487 9.63331L28.4204 10.5678C28.8409 10.6612 29.0211 10.0205 28.6006 9.92033Z" fill="#340800"/>
<path d="M32.5455 18.2376C30.0558 17.1963 27.5727 16.155 25.083 15.1138C24.7159 14.9602 24.549 15.561 24.9161 15.7145C27.4059 16.7558 29.8889 17.7971 32.3787 18.8383C32.7458 18.9919 32.9127 18.3911 32.5455 18.2376Z" fill="#340800"/>
<path d="M81.8915 58.6435C93.702 56.7898 102.996 53.498 102.649 51.291C102.303 49.084 92.4476 48.7977 80.6371 50.6514C68.8265 52.5051 59.533 55.7969 59.8794 58.0039C60.2258 60.2108 70.0809 60.4972 81.8915 58.6435Z" fill="#101619"/>
<path d="M88.9283 22.4958C92.3725 26.107 95.8168 29.7114 99.2611 33.3225C99.5815 33.6563 100.089 33.149 99.7683 32.8152C96.3241 29.2041 92.8798 25.5997 89.4356 21.9886C89.1152 21.6548 88.6079 22.1621 88.9283 22.4958Z" fill="#340800"/>
<path d="M89.6826 22.6896C92.466 16.7489 95.2494 10.8083 98.0329 4.87429C98.4267 4.03325 98.8205 3.19221 99.2143 2.3445L98.8806 2.25105C98.8939 5.66193 98.9073 9.06613 98.9206 12.477L98.9874 28.7704C98.9874 30.0186 98.9941 31.2668 99.0007 32.515C99.0007 32.7487 99.3612 32.7487 99.3612 32.515C99.3478 29.1042 99.3345 25.7 99.3211 22.2891C99.3011 16.8557 99.2811 11.4224 99.2544 5.99567C99.2544 4.74747 99.2477 3.49926 99.241 2.25105C99.241 2.08418 98.9807 1.99073 98.9073 2.15761C96.1238 8.09826 93.3404 14.0389 90.557 19.9729C90.1632 20.8139 89.7694 21.655 89.3755 22.5027C89.2754 22.7096 89.5891 22.8965 89.6892 22.6829L89.6826 22.6896Z" fill="#340800"/>
<path d="M99.6483 11.9097C98.1931 11.2221 96.7447 10.5413 95.2896 9.8538C95.116 9.7737 94.9024 9.80707 94.7956 9.98062C94.7022 10.1341 94.7489 10.3878 94.9225 10.4746C96.3776 11.1621 97.826 11.8429 99.2812 12.5304C99.4547 12.6105 99.6683 12.5772 99.7751 12.4036C99.8685 12.2501 99.8218 11.9964 99.6483 11.9097Z" fill="#340800"/>
<path d="M99.6282 21.4545C97.0918 19.5789 94.5553 17.7032 92.0188 15.8343C91.645 15.5606 91.2846 16.1814 91.6517 16.455C94.1882 18.3307 96.7246 20.2063 99.2611 22.0753C99.6349 22.349 99.9953 21.7282 99.6282 21.4545Z" fill="#340800"/>
<path d="M98.8673 33.1425L76.0592 42.8812L68.5632 43.6155L59.1783 43.1082C59.1783 43.1082 85.077 32.7821 88.7615 22.5361L98.874 33.1425H98.8673Z" fill="#C35500"/>
<path d="M29.1146 23.1835L28.6474 23.7909C29.1747 24.1914 29.7154 24.5986 30.2694 25.0191L30.7366 24.4117C30.1893 23.9979 29.642 23.584 29.1146 23.1835ZM26.1977 20.9741L25.7305 21.5815C26.191 21.9286 26.7451 22.3491 27.3525 22.8097L27.8197 22.2023C27.2123 21.7417 26.665 21.3279 26.1977 20.9741ZM36.5572 28.8238C36.1233 28.4901 35.5693 28.0695 34.9352 27.5956L34.4679 28.203C35.0954 28.677 35.6494 29.0975 36.0899 29.4312L36.5572 28.8238ZM32.0249 25.3929L31.5577 26.0003C32.1117 26.4208 32.659 26.8347 33.1797 27.2285L33.6469 26.6211C33.1262 26.2273 32.5789 25.8134 32.0249 25.3929Z" fill="#8D2A00"/>
<path d="M98.053 30.4258L97.045 31.3069L98.4468 32.7887L99.4547 31.9076L98.053 30.4258Z" fill="#8D2A00"/>
<path d="M97.7926 30.1519L96.8381 31.0863L98.2398 32.5682L99.1944 31.627L97.7926 30.1519Z" fill="#C35500"/>
<path d="M95.5632 27.7686L94.5553 28.6496L95.9571 30.1315L96.965 29.2504L95.5632 27.7686Z" fill="#8D2A00"/>
<path d="M95.3029 27.4951L94.3484 28.4296L95.7435 29.9114L96.7046 28.9703L95.3029 27.4951Z" fill="#C35500"/>
<path d="M92.9934 25.0786L91.9855 25.9597L93.3872 27.4415L94.3951 26.5604L92.9934 25.0786Z" fill="#8D2A00"/>
<path d="M92.7331 24.8052L91.7786 25.7463L93.1736 27.2215L94.1348 26.2803L92.7331 24.8052Z" fill="#C35500"/>
<path d="M90.5237 22.4556L89.5157 23.3367L90.9175 24.8185L91.9254 23.9374L90.5237 22.4556Z" fill="#8D2A00"/>
<path d="M90.2633 22.1821L89.3088 23.1233L90.7039 24.5984L91.6651 23.664L90.2633 22.1821Z" fill="#C35500"/>
<path d="M80.5914 31.6069L87.046 40.3911L79.6503 43.6151L76.433 34.4037L80.5914 31.6069Z" fill="#8D2A00"/>
<path d="M73.4827 39.911C75.0179 40.7587 79.6103 40.8655 79.6103 40.8655C79.6837 40.8655 79.7638 40.8655 79.8239 40.8655L88.9885 39.9711C89.4958 39.9243 89.8629 39.4571 89.7895 38.9565C89.7695 38.8096 89.7428 38.6561 89.7094 38.4959C89.5759 37.755 89.389 36.9941 89.3022 36.6536C89.2755 36.5402 89.2555 36.4734 89.2555 36.4734C89.2555 36.4734 89.3623 36.2865 89.5091 36.0195C89.6293 35.8059 89.8829 35.2519 90.0031 35.0116C90.2701 34.4843 90.5237 33.4363 90.4637 32.909C90.4637 32.8556 90.3969 32.7355 90.3969 32.7355C90.2367 32.4218 89.923 32.2148 89.5692 32.2215H89.5625C88.4812 32.2415 87.3398 32.375 82.8676 31.9211C79.3499 31.5607 76.9203 31.0467 76.0458 30.8465C75.8456 30.7998 75.6454 30.8265 75.4585 30.9132C75.4585 30.9132 75.1381 31.0467 75.0446 31.1135C74.9578 31.1736 74.8978 31.1869 74.831 31.3204C74.831 31.3337 74.8043 31.4272 74.8043 31.4339C74.7776 31.5273 74.7643 31.6274 74.7643 31.6742C74.6842 32.2282 74.6775 32.7355 74.6241 33.3496C74.5707 33.9904 74.5307 34.5577 74.5106 34.8447C74.504 34.9716 74.4706 35.085 74.4105 35.1918C74.3371 35.3387 74.2036 35.619 73.99 36.133C73.9766 36.173 73.9566 36.2198 73.9366 36.2665C73.8632 36.44 73.7897 36.647 73.7096 36.8606C73.5428 37.3078 73.209 38.0487 72.9954 38.8964C72.9687 39.0099 72.9287 39.1768 72.9887 39.3703C73.0154 39.4571 73.1089 39.6907 73.4827 39.891V39.911Z" fill="#D0C1CB"/>
<path opacity="0.3" d="M77.7547 32.7552C77.4343 32.7352 76.3663 32.3547 76.166 32.6084C75.8256 33.0356 76.0326 34.3038 75.5653 35.2917C74.8244 36.867 74.5641 38.5624 74.7777 38.7359C74.998 38.9095 79.597 40.1243 79.9774 40.1176C80.3579 40.1176 82.6207 34.3171 82.7008 34.2037C83.662 32.882 81.0053 32.9688 77.7547 32.7485V32.7552Z" fill="#D094B0"/>
<path opacity="0.8" d="M79.2631 35.9659C79.2631 35.9659 77.1739 35.6388 75.8923 35.532C74.6107 35.4252 74.6508 35.2717 74.0033 36.0526C74.3704 35.1382 74.5039 34.9713 74.5039 34.9713C74.5039 34.9713 74.5506 34.197 74.6307 33.2759C74.7042 33.4628 75.098 34.4173 75.4851 34.7377C75.919 35.0915 79.2631 35.9725 79.2631 35.9725V35.9659Z" fill="#D094B0"/>
<path opacity="0.8" d="M89.2621 36.4864C89.2621 36.4864 89.2821 36.5532 89.3088 36.6667C89.1486 36.7267 88.9951 36.7735 88.875 36.7935C88.4278 36.8602 86.6122 36.6266 86.6122 36.6266C86.6122 36.6266 87.6868 36.7 88.2742 36.5599C88.8483 36.4197 89.4757 36.0659 89.5157 36.0459C89.3756 36.3062 89.2688 36.4931 89.2688 36.4931L89.2621 36.4864Z" fill="#D094B0"/>
<path d="M71.4467 43.1148C71.4467 42.9546 71.3065 42.9212 71.1664 42.5474C71.0596 42.2737 70.9528 41.9066 70.886 41.446C70.866 41.2925 70.846 41.1323 70.8393 40.9588C70.8193 40.6451 70.8259 40.298 70.866 39.9175C70.8727 39.8174 70.8927 39.7239 70.906 39.6171C70.9327 39.4436 70.9728 39.2567 71.0129 39.0765C71.1397 38.5491 71.3199 38.0085 71.5202 37.4945C71.6003 37.2943 71.6803 37.1074 71.7604 36.9205C72.2544 35.7991 72.7884 34.9313 72.9085 34.938C72.9419 34.938 73.042 34.958 73.1955 34.9847C73.7896 35.0849 75.1513 35.3452 76.0524 35.4854C76.4596 35.5521 76.7666 35.5922 76.8734 35.5855C77.2872 35.5721 79.7503 34.7979 80.084 34.9247C80.2776 35.0048 80.2242 36.3998 80.0106 37.8616C79.9772 38.0886 79.9372 38.3222 79.8971 38.5491C79.7903 39.1632 79.6502 39.7439 79.4966 40.2045C79.4633 40.3247 79.4232 40.4315 79.3832 40.5316C79.3097 40.7118 79.2363 40.8854 79.1629 41.0589C79.016 41.386 78.8692 41.693 78.729 41.9734C78.6756 42.0802 78.6222 42.187 78.5689 42.2871C78.2084 42.988 77.9214 43.4552 77.9214 43.4552" fill="#D094B0"/>
<path d="M76.9201 43.5751C76.9201 43.5751 73.9698 43.4617 73.042 43.3415C72.1142 43.2214 71.8539 43.208 71.8539 43.208" fill="#D094B0"/>
<path d="M71.4467 43.1149C71.4467 43.1149 71.3066 42.9213 71.1664 42.5475C71.3399 42.8212 71.5402 43.0215 71.627 42.9747C71.7137 42.928 74.5038 42.5475 75.712 42.8012C76.9201 43.0482 76.5397 43.0749 77.027 43.0415C77.5142 43.0014 77.868 42.6944 78.462 42.0202C79.0561 41.3394 79.5501 38.349 79.6035 38.1555C79.6502 37.9552 79.5634 37.3945 79.6168 36.8338C79.6702 36.2731 80.084 34.9248 80.084 34.9248C80.2776 35.0049 80.2242 36.4 80.0106 37.8618C79.9772 38.0887 79.9372 38.3223 79.8972 38.5493C79.7904 39.1634 79.6502 39.7441 79.4966 40.2046C79.4633 40.3248 79.4232 40.4316 79.3832 40.5317C79.3098 40.7119 79.2363 40.8855 79.1629 41.059C79.016 41.3861 78.8692 41.6931 78.7291 41.9735C78.669 42.087 78.669 42.087 78.5689 42.2872C78.0816 43.2484 78.0549 43.3485 77.9214 43.4553C77.7879 43.5621 77.5008 43.709 76.9068 43.5888C74.6774 43.502 73.6027 43.4153 73.0287 43.3552C72.9352 43.3418 71.8406 43.2217 71.8406 43.2217" fill="#9B015D"/>
<path opacity="0.3" d="M72.6348 36.3131C72.4079 36.3331 72.201 36.46 72.0875 36.6535C71.8939 36.9873 71.6002 37.568 71.38 38.2956C71.0329 39.4637 71.0329 40.6585 71.2064 40.7519C71.3733 40.8454 74.7107 41.1991 74.9711 41.1524C75.238 41.1057 76.286 36.8605 76.2259 36.787C76.1725 36.7136 74.911 36.1129 72.6282 36.3131H72.6348Z" fill="#D0C1CB"/>
<path d="M76.3996 42.9678C76.3996 42.9678 73.2691 43.6219 72.2612 43.7354C71.2532 43.8489 70.9729 43.9023 70.9729 43.9023" fill="#D094B0"/>
<path d="M25.7505 21.0542L37.2647 29.538C37.2647 29.538 56.4617 40.5649 60.0328 42.0467C63.6038 43.5286 73.6762 42.3204 75.8322 41.6529C77.9882 40.9788 98.8673 33.1491 98.8673 33.1491C98.8673 33.1491 98.9608 33.089 93.9346 37.2742C87.3131 42.781 78.055 46.4589 72.2145 48.1142C68.7836 49.0888 62.2355 50.2769 58.1238 50.2769C54.012 50.2769 47.0434 46.9728 44.2066 44.4964C38.593 39.5904 25.7572 21.0609 25.7572 21.0609L25.7505 21.0542Z" fill="#8D2A00"/>
<path d="M31.7645 29.4378C31.7645 29.4378 47.9979 40.2979 51.4888 41.8732C53.8317 42.9345 57.0891 45.4109 62.3088 46.1785C63.3101 46.3253 77.7145 46.2719 77.7145 46.2719C76.5798 46.2853 71.914 49.4024 58.7778 50.3036C56.3148 50.4704 55.6339 50.0432 54.4725 49.8029C51.0149 49.0821 47.3437 46.8126 46.1222 45.9115C44.8206 44.9503 43.7259 44.1226 41.6233 41.8665C40.5019 40.665 39.4273 39.4969 38.8332 38.8494C38.3126 38.2821 32.6656 30.5525 31.7712 29.4312L31.7645 29.4378Z" fill="#8D2A00"/>
</svg>
