<svg width="160" height="160" viewBox="0 0 160 160" fill="none" xmlns="http://www.w3.org/2000/svg">
<mask id="mask0_2810_46758" style="mask-type:alpha" maskUnits="userSpaceOnUse" x="0" y="0" width="160" height="160">
<circle cx="79.5982" cy="80.399" r="79.5982" fill="#EBF8FF"/>
</mask>
<g mask="url(#mask0_2810_46758)">
<path d="M178.933 -0.00292474H-55.1126C-56.6382 -0.00433338 -58.149 0.294936 -59.5589 0.877767C-60.9687 1.4606 -62.2499 2.31557 -63.3291 3.3938C-64.4083 4.47204 -65.2645 5.7524 -65.8486 7.16169C-66.4327 8.57099 -66.7334 10.0816 -66.7334 11.6072V149.181C-66.7334 152.263 -65.5091 155.219 -63.3297 157.398C-61.1504 159.577 -58.1946 160.802 -55.1126 160.802H178.933C182.015 160.802 184.971 159.577 187.15 157.398C189.329 155.219 190.554 152.263 190.554 149.181V11.6072C190.554 10.0816 190.253 8.57099 189.669 7.16169C189.085 5.7524 188.229 4.47204 187.149 3.3938C186.07 2.31557 184.789 1.4606 183.379 0.877767C181.969 0.294936 180.459 -0.00433338 178.933 -0.00292474Z" fill="#223548"/>
<path d="M55.0921 88.2581H-43.304C-44.8205 88.2581 -46.0498 89.4896 -46.0498 91.0088V154.848C-46.0498 156.367 -44.8205 157.599 -43.304 157.599H55.0921C56.6086 157.599 57.8379 156.367 57.8379 154.848V91.0088C57.8379 89.4896 56.6086 88.2581 55.0921 88.2581Z" fill="#2A4259"/>
<path d="M52.8142 91.9946H-41.1626C-42.57 91.9946 -43.7109 93.1376 -43.7109 94.5476V152.048C-43.7109 153.458 -42.57 154.601 -41.1626 154.601H52.8142C54.2216 154.601 55.3625 153.458 55.3625 152.048V94.5476C55.3625 93.1376 54.2216 91.9946 52.8142 91.9946Z" fill="#223548"/>
<path d="M72.1352 158.868H-57.2119L-53.9649 160.188C-53.76 160.27 -53.5417 160.314 -53.321 160.316L68.8123 160.62C69.1343 160.622 69.4502 160.532 69.7235 160.362L72.1321 158.859L72.1352 158.868Z" fill="#324E6B"/>
<path d="M72.1352 158.393C72.1344 158.164 72.0431 157.945 71.8815 157.784C71.7198 157.623 71.5008 157.532 71.2726 157.532H-56.3493C-56.5775 157.532 -56.7965 157.623 -56.9582 157.784C-57.1199 157.945 -57.2111 158.164 -57.2119 158.393V158.868H72.1352V158.393Z" fill="#2A4259"/>
<path d="M-0.0631538 157.505H14.8535V157.809C14.8535 158.132 14.7254 158.441 14.4976 158.67C14.2698 158.898 13.9607 159.026 13.6385 159.026H1.14269C0.820463 159.026 0.511438 158.898 0.28359 158.67C0.0557419 158.441 -0.0722656 158.132 -0.0722656 157.809V157.505H-0.0631538Z" fill="#3B5B7C"/>
<path d="M6.08413 90.7022C6.4515 90.7022 6.74932 90.4038 6.74932 90.0358C6.74932 89.6677 6.4515 89.3694 6.08413 89.3694C5.71676 89.3694 5.41895 89.6677 5.41895 90.0358C5.41895 90.4038 5.71676 90.7022 6.08413 90.7022Z" fill="#324E6B"/>
<path d="M170.448 89.8673L126.298 74.7436C124.423 74.1069 122.389 75.0974 121.752 76.9724L99.7475 141.199C99.1108 143.074 100.101 145.108 101.976 145.745L146.127 160.869C148.002 161.506 150.036 160.515 150.673 158.64L172.677 94.4132C173.314 92.5383 172.323 90.5041 170.448 89.8673Z" fill="#2A4259"/>
<path d="M143.969 90.9643C142.518 90.3806 140.909 90.2391 139.387 90.5752C137.848 90.8936 136.451 91.6719 135.354 92.8039C134.258 93.936 133.515 95.3511 133.232 96.89C132.949 98.4289 133.126 100.021 133.745 101.471C134.364 102.922 135.39 104.142 136.716 104.991C138.025 105.84 139.564 106.3 141.138 106.265C142.713 106.247 144.234 105.752 145.525 104.867C146.816 103.983 147.825 102.727 148.408 101.277L141.032 98.3404L143.986 90.9643H143.969Z" fill="#223548"/>
<path d="M146.321 89.8848L143.385 97.2432L150.743 100.179C151.132 99.2066 151.327 98.1807 151.309 97.137C151.309 96.0934 151.079 95.0675 150.672 94.1123C150.266 93.1571 149.664 92.2904 148.921 91.5652C148.178 90.8399 147.294 90.2739 146.321 89.8848Z" fill="#324E6B"/>
<path d="M152.442 116.223L121.682 105.68C120.656 105.327 119.559 105.875 119.205 106.901C118.851 107.927 119.4 109.024 120.426 109.377L151.186 119.92C152.212 120.273 153.309 119.725 153.662 118.699C154.016 117.673 153.468 116.577 152.442 116.223Z" fill="#223548"/>
<path d="M149.789 122.485L119.028 111.942C118.002 111.588 116.906 112.137 116.552 113.163C116.198 114.189 116.746 115.285 117.772 115.639L148.533 126.181C149.559 126.535 150.673 125.987 151.009 124.961C151.363 123.935 150.814 122.838 149.789 122.485Z" fill="#223548"/>
<path d="M132.878 123.687L116.499 118.08C115.473 117.726 114.359 118.274 114.023 119.3C113.669 120.326 114.217 121.423 115.243 121.777L131.64 127.384C132.666 127.738 133.763 127.189 134.117 126.163C134.47 125.137 133.922 124.041 132.896 123.687H132.878Z" fill="#223548"/>
<path d="M-45.7678 54.4903L-1.72349 39.3667C0.151485 38.7299 2.16798 39.7205 2.82245 41.5954L24.7739 105.822C25.4107 107.697 24.4201 109.732 22.5451 110.368L-21.4992 125.492C-23.3742 126.129 -25.3907 125.138 -26.0452 123.263L-47.9966 59.0363C-48.6334 57.1613 -47.6428 55.1271 -45.7678 54.4903Z" fill="#2A4259"/>
<path d="M-36.0919 66.1996C-36.4987 66.3411 -36.711 66.7656 -36.5695 67.1724L-24.6651 101.948C-24.6297 102.036 -24.5943 102.125 -24.5236 102.196L-24.2229 103.045C-24.0814 103.452 -23.6392 103.664 -23.25 103.522L11.4725 91.4587C11.8793 91.3172 12.0916 90.875 11.9501 90.4859L11.1895 88.2925C11.048 87.8857 10.6058 87.6734 10.2166 87.8149L-21.6227 98.8702L-32.9256 65.9343C-33.0671 65.5274 -33.4917 65.3152 -33.8985 65.4567L-36.0919 66.2173V66.1996Z" fill="#223548"/>
<path d="M102.509 19.7961H19.6891C14.6707 19.7961 10.6025 23.8643 10.6025 28.8827V131.313C10.6025 136.331 14.6707 140.399 19.6891 140.399H102.509C107.527 140.399 111.595 136.331 111.595 131.313V28.8827C111.595 23.8643 107.527 19.7961 102.509 19.7961Z" fill="#CEDBE8"/>
<path fill-rule="evenodd" clip-rule="evenodd" d="M19.9131 29.5602C19.9131 29.1472 20.0266 28.8162 20.1653 28.8162H101.509C101.648 28.8162 101.761 29.1314 101.761 29.5602V130.638C101.761 131.051 101.648 131.382 101.509 131.382H20.1653C20.0266 131.382 19.9131 131.067 19.9131 130.638V29.5602Z" fill="#CEDBE8"/>
<path d="M41.7848 31.793H25.7683C24.6887 31.793 23.8135 32.6682 23.8135 33.7477C23.8135 34.8273 24.6887 35.7025 25.7683 35.7025H41.7848C42.8644 35.7025 43.7396 34.8273 43.7396 33.7477C43.7396 32.6682 42.8644 31.793 41.7848 31.793Z" fill="#0070F3"/>
<path d="M39.4258 83.9898C39.4258 83.0616 40.1783 82.3091 41.1065 82.3091H50.3857C51.314 82.3091 52.0665 83.0616 52.0665 83.9898V114.906C52.0665 115.834 51.314 116.587 50.3857 116.587H41.1065C40.1783 116.587 39.4258 115.834 39.4258 114.906V83.9898Z" fill="#2A4259"/>
<path d="M58.8086 65.4503C58.8086 64.522 59.5611 63.7695 60.4893 63.7695H69.7686C70.6968 63.7695 71.4493 64.522 71.4493 65.4503V115.41C71.4493 116.338 70.6968 117.09 69.7686 117.09H60.4893C59.5611 117.09 58.8086 116.338 58.8086 115.41V65.4503Z" fill="#2A4259"/>
<path d="M78.1914 97.473C78.1914 96.5447 78.9439 95.7922 79.8722 95.7922H89.1514C90.0796 95.7922 90.8321 96.5447 90.8321 97.473V115.059C90.8321 115.987 90.0796 116.74 89.1514 116.74H79.8722C78.9439 116.74 78.1914 115.987 78.1914 115.059V97.473Z" fill="#2A4259"/>
<path fill-rule="evenodd" clip-rule="evenodd" d="M26.5584 56.4602C28.0088 56.4602 29.1846 57.6621 29.1846 59.1447V64.7375C29.1846 66.2201 28.0088 67.422 26.5584 67.422C25.108 67.422 23.9322 66.2201 23.9322 64.7375V59.1447C23.9322 57.6621 25.108 56.4602 26.5584 56.4602ZM26.5584 73.2385C28.0088 73.2385 29.1846 74.4404 29.1846 75.923L29.1846 87.1085C29.1846 88.5912 28.0088 89.7931 26.5584 89.7931C25.108 89.7931 23.9322 88.5912 23.9322 87.1085V75.923C23.9322 74.4404 25.108 73.2385 26.5584 73.2385ZM26.5584 95.6095C28.0088 95.6095 29.1846 96.8114 29.1846 98.2941V109.48C29.1846 110.962 28.0088 112.164 26.5584 112.164C25.108 112.164 23.9322 110.962 23.9322 109.48V98.2941C23.9322 96.8114 25.108 95.6095 26.5584 95.6095ZM26.5584 117.981C28.0088 117.981 29.1846 119.182 29.1846 120.665V126.258C29.1846 127.74 28.0088 128.942 26.5584 128.942C25.108 128.942 23.9322 127.74 23.9322 126.258V120.665C23.9322 119.182 25.108 117.981 26.5584 117.981Z" fill="#B9C1C6"/>
<path fill-rule="evenodd" clip-rule="evenodd" d="M23.9326 127.367C23.9326 125.917 25.1345 124.741 26.6171 124.741H32.2099C33.6925 124.741 34.8944 125.917 34.8944 127.367C34.8944 128.818 33.6925 129.993 32.2099 129.993H26.6171C25.1345 129.993 23.9326 128.818 23.9326 127.367ZM40.7109 127.367C40.7109 125.917 41.9128 124.741 43.3954 124.741H54.581C56.0636 124.741 57.2655 125.917 57.2655 127.367C57.2655 128.818 56.0636 129.993 54.581 129.993H43.3954C41.9128 129.993 40.7109 128.818 40.7109 127.367ZM63.0819 127.367C63.0819 125.917 64.2839 124.741 65.7665 124.741H76.952C78.4346 124.741 79.6365 125.917 79.6365 127.367C79.6365 128.818 78.4346 129.993 76.952 129.993H65.7665C64.2839 129.993 63.0819 128.818 63.0819 127.367ZM85.453 127.367C85.453 125.917 86.6549 124.741 88.1375 124.741H93.7303C95.2129 124.741 96.4148 125.917 96.4148 127.367C96.4148 128.818 95.2129 129.993 93.7303 129.993H88.1375C86.6549 129.993 85.453 128.818 85.453 127.367Z" fill="#B9C1C6"/>
</g>
<g clip-path="url(#clip0_2810_46758)">
<path opacity="0.5" d="M104.435 98.6643C122.211 98.6643 136.622 83.9957 136.622 65.8708C136.622 47.7459 122.211 33.0681 104.435 33.0681C86.66 33.0681 72.249 47.7367 72.249 65.8708C72.249 84.0049 86.66 98.6643 104.435 98.6643Z" fill="#223548"/>
<path d="M117.15 36.8911L105.122 33.0681L84.9541 92.9986L96.9907 96.8216L117.15 36.8911Z" fill="#CEDBE8"/>
<path d="M101.685 98.6634L122.238 38.623L118.498 37.4312L97.9355 97.4716L101.685 98.6634Z" fill="#CEDBE8"/>
<path d="M120.459 95.1067L111.649 98.6638L117.278 112.599L126.079 109.042L120.459 95.1067Z" fill="#B9C1C6"/>
<path d="M117.599 111.49C117.152 111.675 116.796 112.029 116.608 112.476C116.421 112.923 116.418 113.425 116.6 113.874L129.746 146.246C130.293 147.556 131.337 148.597 132.65 149.14C133.962 149.683 135.437 149.684 136.75 149.143L137.795 148.712C138.456 148.448 139.057 148.055 139.564 147.556C140.071 147.057 140.473 146.462 140.747 145.806C141.288 144.49 141.288 143.014 140.747 141.698L127.601 109.363C127.51 109.139 127.376 108.934 127.206 108.762C127.036 108.589 126.834 108.452 126.61 108.358C126.387 108.265 126.147 108.216 125.905 108.215C125.663 108.215 125.423 108.262 125.199 108.355L117.599 111.49Z" fill="#F58B00"/>
<path d="M111.338 97.9303L112.255 100.121C112.255 100.121 116.838 102.166 121.679 97.8936L120.212 94.3823L116.169 96.3442L111.338 97.9303Z" fill="#688FB7"/>
<path d="M104.655 99.8007C96.8277 99.8199 89.2362 97.1232 83.1749 92.1705C77.1135 87.2177 72.9578 80.3156 71.4163 72.6412C69.8748 64.9667 71.0429 56.9951 74.7216 50.0857C78.4002 43.1763 84.3615 37.7569 91.5889 34.7518C98.8164 31.7466 106.862 31.3418 114.355 33.6062C121.848 35.8707 128.323 40.6642 132.676 47.1694C137.03 53.6746 138.992 61.4887 138.229 69.2792C137.465 77.0696 134.023 84.354 128.49 89.8902C122.172 96.2213 113.599 99.7858 104.655 99.8007ZM104.655 34.9746C97.4697 34.962 90.5024 37.4419 84.9409 41.9917C79.3794 46.5415 75.5679 52.8794 74.1561 59.9251C72.7443 66.9708 73.8197 74.2881 77.1989 80.6296C80.5781 86.9711 86.0519 91.9442 92.6873 94.7013C99.3226 97.4583 106.709 97.8286 113.586 95.749C120.464 93.6693 126.408 89.2685 130.404 83.2967C134.401 77.325 136.202 70.1519 135.502 63.0004C134.802 55.8488 131.643 49.1615 126.565 44.0783C123.691 41.1943 120.276 38.9056 116.517 37.3434C112.757 35.7812 108.726 34.9763 104.655 34.9746Z" fill="#688FB7"/>
</g>
<path d="M157.81 34.1826C157.518 33.9539 157.169 33.8081 156.802 33.7606C156.434 33.7131 156.06 33.7656 155.719 33.9126L147.529 37.1981C146.174 37.7408 145.894 39.1523 146.32 40.2142C146.478 40.6551 146.775 41.0327 147.167 41.2902C147.558 41.5477 148.022 41.6713 148.49 41.6422C148.716 41.6215 148.937 41.5667 149.146 41.4799L157.336 38.1944C157.699 38.0576 158.017 37.8255 158.258 37.5225C158.499 37.2195 158.654 36.857 158.706 36.4733C158.764 36.0467 158.712 35.6124 158.555 35.2116C158.398 34.8107 158.142 34.4565 157.81 34.1826Z" fill="white"/>
<path d="M118.237 7.11106C117.973 7.07984 117.706 7.10391 117.452 7.18175C117.199 7.25959 116.964 7.38949 116.763 7.56314C116.562 7.7368 116.4 7.9504 116.286 8.19031C116.173 8.43022 116.111 8.69118 116.104 8.9565L115.483 17.5301C115.461 17.8385 115.502 18.1479 115.602 18.4405C115.701 18.7331 115.858 19.0028 116.063 19.2341C116.268 19.4653 116.517 19.6534 116.796 19.7873C117.075 19.9212 117.377 19.9983 117.686 20.014C117.813 20.0241 117.941 20.0237 118.068 20.0128C118.538 19.9795 118.978 19.7714 119.302 19.4294C119.626 19.0875 119.81 18.6366 119.818 18.1655L120.437 9.59563C120.459 9.28739 120.419 8.9779 120.319 8.68527C120.22 8.39264 120.064 8.12275 119.859 7.89139C119.654 7.66003 119.405 7.47185 119.126 7.33786C118.848 7.20388 118.546 7.12677 118.237 7.11106Z" fill="white"/>
<path d="M141.466 13.5855C141.179 13.6275 140.904 13.7276 140.657 13.8796C140.41 14.0317 140.197 14.2325 140.03 14.4698L132.447 25.0395C132.109 25.5155 131.969 26.1034 132.055 26.6805C132.141 27.2575 132.447 27.7789 132.908 28.1358C133.338 28.465 133.875 28.6207 134.414 28.5722C134.725 28.5437 135.026 28.4486 135.296 28.2934C135.567 28.1381 135.801 27.9264 135.982 27.6726L143.565 17.1029C143.905 16.6246 144.046 16.0332 143.959 15.4531C143.872 14.8729 143.563 14.3492 143.098 13.992C142.867 13.8179 142.604 13.6921 142.323 13.6222C142.043 13.5524 141.752 13.5399 141.466 13.5855Z" fill="white"/>
<defs>
<clipPath id="clip0_2810_46758">
<rect width="70.3983" height="117.387" fill="white" transform="translate(70.7539 32.1602)"/>
</clipPath>
</defs>
</svg>
