<svg width="45" height="45" viewBox="0 0 45 45" fill="none" xmlns="http://www.w3.org/2000/svg">
<path d="M15.8381 41.9463L0 34.9151L12.4655 30.8394L30.9968 28.7539L44.7851 33.4374L15.8381 41.9463Z" fill="#101619"/>
<path d="M12.1914 21.6277L12.4855 20.0586C12.5452 19.7472 12.6803 19.4515 12.883 19.2071L24.0283 5.55875C24.4457 5.04625 25.1174 4.86096 25.6619 5.10933C26.6358 5.55087 27.6096 5.98847 28.5834 6.43001C29.8991 7.0253 31.2107 7.62453 32.5224 8.22376C33.8341 8.823 35.1537 9.43012 36.4694 10.0412C37.5823 10.5576 38.727 11.0228 39.8042 11.6142C40.0983 11.7758 40.3805 11.9808 40.5912 12.2489C40.8138 12.5367 40.9291 12.9191 41.0881 13.2542C41.1715 13.4276 41.1914 13.6326 41.1556 13.8337L39.7565 21.4463L19.815 27.6476L12.1954 21.6237L12.1914 21.6277Z" fill="#4D82B8"/>
<path d="M40.9489 13.4038C38.9655 12.6784 26.9576 10.5259 22.6808 10.4747C23.7182 8.69274 24.3065 6.97389 24.0282 5.55859L12.871 19.2188C12.6763 19.4592 12.5451 19.7431 12.4894 20.0388L12.1953 21.6275L12.3782 21.7734C12.3782 21.7734 12.406 21.7497 12.4576 21.7064C12.406 22.3332 12.8114 22.9285 13.3281 23.5711L15.9396 26.8196C16.3569 27.34 16.9452 27.5725 17.5374 27.4464L35.5909 23.6539C36.358 23.4922 36.99 22.7629 37.2007 21.797C37.4113 20.8193 37.145 19.8022 36.5249 19.2227L41.0284 13.7507C41.1317 13.6285 41.0959 13.4472 40.9568 13.3959L40.9489 13.4038Z" fill="#00144A"/>
<path d="M12.1914 21.6278L15.8323 41.9466L44.9992 33.3799L41.1715 13.5973C41.1517 13.4987 40.1182 13.9087 40.0188 13.9403L12.1954 21.6278H12.1914Z" fill="#4D82B8"/>
<path d="M12.4355 21.4998C12.4355 21.4998 39.5356 11.7071 41.0738 13.5875L39.5117 14.2696C39.1779 14.4154 38.8758 14.6401 38.6333 14.924L29.2409 25.8245L28.8554 25.9349C28.7639 25.9625 28.6765 25.9822 28.5851 26.0059L28.1637 26.1005L15.8062 21.2633C15.4405 21.1213 15.039 21.078 14.6376 21.145L12.4355 21.4998Z" fill="#00144A"/>
<path d="M15.8325 41.9445L44.9994 33.3778L44.6775 31.7102C41.0207 30.1964 29.7999 25.5365 29.2434 25.2251C28.5756 24.8545 27.3236 25.7691 27.3236 25.7691C27.3236 25.7691 17.327 37.7499 15.4668 39.863L15.8404 41.9445H15.8325Z" fill="#00144A"/>
<path d="M44.7764 33.4451C44.5578 32.9326 44.1604 32.4083 44.1604 32.4083C44.1604 32.4083 30.03 26.2937 29.4378 25.9468C28.8455 25.6038 27.7366 26.4278 27.7366 26.4278C27.7366 26.4278 18.5588 37.7226 17.1955 39.2877C16.3091 40.3048 16.0944 41.3061 16.0547 41.8778L44.7725 33.4412L44.7764 33.4451Z" fill="#4D82B8"/>
<path d="M16.4844 11.8451L15.9279 20.5301L15.8047 21.2673L28.1623 26.1045L28.5836 26.0099C28.675 25.9902 28.7625 25.9666 28.8539 25.939L29.2394 25.8286L38.6318 14.928C38.8743 14.6442 39.1764 14.4195 39.5103 14.2736L40.031 14.045L39.9992 13.8636L39.9674 11.2656L16.4764 11.8491L16.4844 11.8451Z" fill="#D5DADD"/>
<path d="M28.7586 23.809C27.9278 23.809 27.0971 23.7577 26.2863 23.6197C25.4953 23.4857 24.7401 23.261 24.0047 22.9574C22.6374 22.3976 21.3376 21.6486 20.2724 20.6196C19.2111 19.5907 18.4241 18.2739 18.0704 16.7719C17.8557 15.8652 17.8001 14.9111 17.8041 13.961C17.808 13.2475 17.8478 12.53 17.8637 11.8164L16.4805 11.8519L15.924 20.5368L15.8008 21.274L28.1584 26.1113L28.5797 26.0167C28.6711 25.997 28.7586 25.9733 28.85 25.9457L29.2355 25.8353L31.0838 23.6907C30.3048 23.7695 29.5257 23.8169 28.7506 23.8169L28.7586 23.809Z" fill="#D094B0"/>
</svg>
