<svg width="45" height="45" viewBox="0 0 45 45" fill="none" xmlns="http://www.w3.org/2000/svg">
<path d="M2.82227 13.1349L16.9665 27.4972C17.0222 27.5548 17.0531 27.6304 17.0528 27.7089V41.7104C17.0523 41.8522 17.0914 41.9917 17.1659 42.1143C17.2405 42.237 17.3479 42.3384 17.4771 42.4083C17.6062 42.4781 17.7525 42.5138 17.9008 42.5116C18.0492 42.5094 18.1943 42.4695 18.3212 42.396L27.9015 36.8963C28.025 36.8256 28.1274 36.7256 28.1986 36.6059C28.2699 36.4863 28.3076 36.351 28.308 36.2133L28.3526 27.7089C28.3528 27.6319 28.3831 27.5579 28.4375 27.5012L42.8769 12.5518L2.82227 13.1349Z" fill="#4098FF"/>
<path d="M26.5899 27.6149V37.1125C26.5898 37.1661 26.6046 37.2187 26.6327 37.265C26.6609 37.3113 26.7014 37.3497 26.7501 37.3761C26.7988 37.4025 26.854 37.416 26.9101 37.4154C26.9661 37.4147 27.0209 37.3998 27.0689 37.3722L27.7483 36.9821C27.9177 36.8843 28.0579 36.7464 28.1554 36.5818C28.253 36.4172 28.3046 36.2314 28.3052 36.0422L28.3484 27.8239C28.3498 27.6714 28.4104 27.5248 28.5182 27.4125L42.3756 13.0662C42.4175 13.0225 42.4451 12.9681 42.455 12.9096C42.4648 12.8512 42.4566 12.7912 42.4313 12.7371C42.406 12.6831 42.3647 12.6373 42.3125 12.6054C42.2603 12.5735 42.1995 12.5569 42.1376 12.5576C42.1028 12.5584 42.0685 12.5647 42.0359 12.5763L34.0999 15.3188C34.0301 15.3434 33.9715 15.3904 33.9342 15.4519L26.6317 27.4565C26.603 27.5047 26.5886 27.5594 26.5899 27.6149Z" fill="#1782FF"/>
<path d="M22.4994 15.3612C34.288 15.3612 43.8445 12.8411 43.8445 9.73234C43.8445 6.62363 34.288 4.10352 22.4994 4.10352C10.7108 4.10352 1.1543 6.62363 1.1543 9.73234C1.1543 12.8411 10.7108 15.3612 22.4994 15.3612Z" fill="#1782FF"/>
<path d="M43.8444 9.73766C43.8444 8.33178 41.8882 7.04706 38.6553 6.06055L34.2627 14.4359C40.0351 13.4228 43.8444 11.6947 43.8444 9.73766Z" fill="#0070F3"/>
<path d="M22.4993 16.4663C16.6977 16.4663 11.2288 15.8659 7.10065 14.7782C2.38916 13.5347 0 11.8386 0 9.7325C0 7.62634 2.38777 5.93157 7.10065 4.68812C11.2288 3.60043 16.6977 3 22.4993 3C28.301 3 33.7768 3.60043 37.8994 4.68812C42.6108 5.93157 45 7.62768 45 9.7325C45 11.8373 42.6122 13.5347 37.8994 14.7782C33.7712 15.8619 28.3023 16.4663 22.4993 16.4663ZM22.4993 5.20866C16.8995 5.20866 11.6478 5.7798 7.71464 6.8169C3.43894 7.94453 2.3098 9.21328 2.3098 9.7325C2.3098 10.2517 3.43894 11.5218 7.71464 12.6494C11.6478 13.6865 16.9037 14.2577 22.4993 14.2577C28.0949 14.2577 33.3508 13.6865 37.2854 12.6494C41.5597 11.5218 42.6902 10.253 42.6902 9.7325C42.6902 9.21195 41.5597 7.94453 37.2854 6.8169C33.3508 5.7798 28.1005 5.21133 22.4993 5.21133V5.20866Z" fill="#4098FF"/>
</svg>
