<svg width="46" height="45" viewBox="0 0 46 45" fill="none" xmlns="http://www.w3.org/2000/svg">
<path d="M41.894 36.8131L31.9111 33.0409C31.8788 33.0287 31.8465 33.0226 31.8142 33.0317L1.69557 35.6524C0.636298 35.7067 0.656467 36.1126 0.944831 36.2833L7.91722 40.943C8.5014 41.1868 9.12287 41.2447 9.72943 41.1106L41.0488 37.3587C41.9264 37.2154 42.2982 37.016 41.894 36.8131Z" fill="#101619"/>
<path d="M3.60096 9.98462L11.5538 35.9673C11.7086 36.5319 12.259 36.896 12.838 36.8214L43.4875 32.6643C44.9006 32.2114 45.4567 30.7553 45.2131 30.0502L26.3262 7.17072C26.1513 6.67197 25.6669 6.35093 25.1423 6.38533L4.74052 6.66425C3.99525 6.71011 2.97956 7.81428 3.60096 9.98462Z" fill="#00144A"/>
<path d="M3.92938 8.13928L12.3008 34.8554C12.4556 35.4201 13.006 35.7842 13.585 35.7096L44.2705 31.5938C45.0101 31.4992 45.4773 30.7454 45.2308 30.0402L36.2101 5.60431C36.0353 5.10556 35.5508 4.78453 35.0263 4.81892L4.98996 6.65163C4.24469 6.69749 3.7316 7.41982 3.92938 8.13928Z" fill="#4D82B8"/>
<path d="M36.2098 5.60431C36.035 5.10556 35.5506 4.78453 35.026 4.81892L4.93918 6.6107C4.19391 6.65656 3.68081 7.37603 3.8786 8.09549L5.38156 12.7859L37.8141 9.84711L36.207 5.60145L36.2098 5.60431Z" fill="#2A4259"/>
<path d="M19.8551 17.1805L11.7551 17.9019C11.6294 17.9147 11.5004 17.8378 11.4681 17.7352L11.0231 16.3212C10.9909 16.2186 11.0651 16.1256 11.194 16.116L19.2811 15.4266C19.4036 15.417 19.5294 15.4908 19.5616 15.5901L20.0195 16.9753C20.0518 17.0779 19.9808 17.1677 19.8583 17.1805H19.8551Z" fill="#D5DADD"/>
<path d="M22.6479 21.2511L13.1066 22.1906C12.9808 22.2034 12.8486 22.1265 12.8164 22.0206L12.3649 20.5874C12.3327 20.4816 12.4069 20.3886 12.5358 20.3758L22.061 19.478C22.1836 19.4652 22.3093 19.5389 22.3416 19.6415L22.8059 21.0427C22.8413 21.1453 22.7704 21.2383 22.6479 21.2511Z" fill="#D5DADD"/>
<path d="M24.0595 25.5019L14.4795 26.5344C14.3506 26.5472 14.2216 26.4735 14.1861 26.3644L13.7282 24.9088C13.696 24.8029 13.7701 24.7068 13.8991 24.6907L23.463 23.6968C23.5855 23.6839 23.7113 23.7577 23.7468 23.8635L24.2175 25.2839C24.253 25.3897 24.1821 25.4827 24.0595 25.4955V25.5019Z" fill="#D5DADD"/>
<path d="M23.1218 30.0972L15.8699 30.9501C15.7409 30.9661 15.6087 30.8892 15.5765 30.7801L15.1121 29.3052C15.0767 29.1962 15.154 29.0968 15.283 29.084L22.522 28.2632C22.6446 28.2503 22.7735 28.3241 22.809 28.4299L23.2862 29.8792C23.3217 29.985 23.2476 30.0844 23.125 30.0972H23.1218Z" fill="#D5DADD"/>
<path d="M35.9752 15.7485L27.0724 16.5405C26.9531 16.5501 26.8306 16.4796 26.7951 16.377L26.3275 15.0111C26.2921 14.9117 26.363 14.8219 26.4791 14.8123L35.369 14.0556C35.4819 14.0459 35.6044 14.1165 35.6367 14.2159L36.1139 15.5497C36.1494 15.6491 36.0849 15.7357 35.972 15.7453L35.9752 15.7485Z" fill="#D5DADD"/>
<path d="M34.7744 20.0572L28.4834 20.676C28.3641 20.6889 28.2383 20.6151 28.2061 20.5125L27.7321 19.1274C27.6966 19.0248 27.7643 18.935 27.8836 18.9222L34.165 18.329C34.281 18.3194 34.4036 18.3899 34.439 18.4893L34.9195 19.852C34.955 19.9514 34.8905 20.0412 34.7744 20.054V20.0572Z" fill="#D5DADD"/>
<path d="M36.2324 24.1896L29.9188 24.8694C29.7995 24.8822 29.6738 24.8084 29.6383 24.7058L29.1579 23.3015C29.1224 23.1989 29.1901 23.1059 29.3094 23.093L35.6133 22.439C35.7294 22.4261 35.8519 22.4999 35.8874 22.5993L36.3743 23.9812C36.4098 24.0838 36.3453 24.1768 36.2292 24.1864L36.2324 24.1896Z" fill="#D5DADD"/>
<path d="M40.3754 28.0665L31.3726 29.1246C31.2533 29.1374 31.1275 29.0636 31.092 28.961L30.6051 27.5374C30.5697 27.4348 30.6374 27.3386 30.7567 27.3258L39.7434 26.3062C39.8594 26.2934 39.982 26.3639 40.0175 26.4665L40.514 27.8581C40.5495 27.9607 40.4882 28.0537 40.3721 28.0665H40.3754Z" fill="#D5DADD"/>
<path d="M43.8438 24.1278L14.9288 27.6026C14.3066 27.6657 13.6615 27.2414 13.4895 26.6536L8.89923 12.0975C8.73293 11.5298 9.01104 10.3916 10.2468 10.1966L38.9639 9.04979C39.4714 9.00966 40.0448 9.38811 40.2455 9.89845L45.7418 22.4591C45.3748 23.3594 44.8817 23.993 43.8438 24.1306V24.1278Z" fill="#FA4F96"/>
<path d="M45.1433 22.9314L15.4714 26.4063C14.8493 26.4694 14.2042 26.045 14.0321 25.4573L9.54221 11.3025C9.37592 10.7349 9.74004 10.236 10.3536 10.1844L39.5094 7.85058C40.0169 7.81044 40.5903 8.18889 40.791 8.69923L45.7024 21.8849C45.9089 22.4096 45.6623 22.8798 45.1491 22.9314H45.1433Z" fill="#D0C1CB"/>
<path fill-rule="evenodd" clip-rule="evenodd" d="M45.6723 22.6261C45.6518 22.6589 45.6284 22.6896 45.6022 22.718C45.5454 22.7797 45.4755 22.8304 45.3939 22.8674C45.3221 22.8999 45.2412 22.9218 45.1522 22.9311C45.1512 22.9312 45.1501 22.9313 45.1491 22.9314H45.1433L43.0612 23.1752C42.9963 22.6212 43.3929 22.1195 43.9469 22.0546L44.6569 21.9715L44.4583 21.4383C44.2636 20.9156 44.5295 20.334 45.0522 20.1393L45.7024 21.8849C45.7055 21.8928 45.7085 21.9007 45.7115 21.9086C45.7393 21.984 45.7577 22.0582 45.7673 22.13C45.7677 22.1324 45.768 22.1347 45.7683 22.1371C45.7846 22.2662 45.7724 22.3875 45.735 22.4948C45.7188 22.5414 45.6978 22.5853 45.6723 22.6261ZM43.4151 15.7441C42.8924 15.9388 42.6265 16.5204 42.8212 17.0431L43.4165 18.6414C43.6112 19.1641 44.1928 19.43 44.7155 19.2353L43.4151 15.7441ZM41.778 11.3489C41.2553 11.5436 40.9893 12.1251 41.184 12.6479L41.7794 14.2461C41.9741 14.7688 42.5556 15.0348 43.0784 14.8401L41.778 11.3489ZM31.6113 8.48279C31.6558 9.03881 32.1426 9.45347 32.6986 9.40897L34.8191 9.23924C35.3751 9.19473 35.7898 8.7079 35.7452 8.15188L31.6113 8.48279ZM25.7801 8.94955C25.8246 9.50557 26.3115 9.92023 26.8675 9.87573L28.9879 9.706C29.5439 9.66149 29.9586 9.17466 29.9141 8.61864L25.7801 8.94955ZM19.949 9.41631C19.9935 9.97233 20.4803 10.387 21.0363 10.3425L23.1567 10.1728C23.7128 10.1282 24.1274 9.64142 24.0829 9.0854L19.949 9.41631ZM14.1178 9.88307C14.1623 10.4391 14.6491 10.8538 15.2051 10.8092L17.3256 10.6395C17.8816 10.595 18.2963 10.1082 18.2518 9.55216L14.1178 9.88307ZM11.6163 17.8414C12.148 17.6727 12.4423 17.105 12.2737 16.5733L11.7294 14.8576C11.5608 14.3259 10.9931 14.0316 10.4614 14.2002L11.6163 17.8414ZM13.113 22.5596C13.6447 22.391 13.939 21.8232 13.7703 21.2915L13.2261 19.5758C13.0574 19.0441 12.4897 18.7498 11.958 18.9185L13.113 22.5596ZM23.4879 25.4675C23.423 24.9135 22.9213 24.5169 22.3673 24.5818L20.2094 24.8345C19.6553 24.8994 19.2588 25.4011 19.3237 25.9552L23.4879 25.4675ZM29.4223 24.7725C29.3574 24.2185 28.8557 23.822 28.3017 23.8869L26.1437 24.1396C25.5897 24.2045 25.1932 24.7062 25.2581 25.2602L29.4223 24.7725ZM35.3567 24.0775C35.2918 23.5235 34.7901 23.127 34.2361 23.1919L32.0781 23.4446C31.5241 23.5095 31.1276 24.0112 31.1925 24.5652L35.3567 24.0775ZM41.2911 23.3825C41.2262 22.8285 40.7245 22.432 40.1705 22.4969L38.0125 22.7496C37.4585 22.8145 37.062 23.3162 37.1268 23.8702L41.2911 23.3825ZM17.5535 26.1625C17.4887 25.6084 16.9869 25.2119 16.4329 25.2768L15.3648 25.4019C15.2105 25.4144 15.0316 25.2766 15.0015 25.1736L14.9983 25.1627L14.7227 24.2941C14.5541 23.7624 13.9863 23.4681 13.4546 23.6367L14.0321 25.4573C14.2042 26.045 14.8493 26.4694 15.4714 26.4063L17.5535 26.1625ZM10.1197 13.1231C10.6514 12.9545 10.9457 12.3867 10.777 11.855L10.5632 11.1808L11.4944 11.1063C12.0504 11.0618 12.4651 10.5749 12.4206 10.0189L10.3536 10.1844C9.74004 10.236 9.37592 10.7349 9.54221 11.3025L10.1197 13.1231ZM10.4141 11.1949C10.414 11.1949 10.4141 11.1949 10.4141 11.1949ZM37.4425 8.01603C37.487 8.57205 37.9738 8.98671 38.5298 8.94221L39.5868 8.8576C39.5862 8.85766 39.5858 8.8577 39.5858 8.85777C39.5858 8.85851 39.6331 8.86123 39.7081 8.91083C39.788 8.96373 39.8332 9.02728 39.8493 9.06454L40.1422 9.8509C40.3369 10.3736 40.9185 10.6395 41.4412 10.4448L40.791 8.69923C40.5903 8.18889 40.0169 7.81044 39.5094 7.85058L37.4425 8.01603Z" fill="#9B015D"/>
<path d="M22.1368 14.1607L14.6364 14.8537C14.5251 14.8645 14.4103 14.7926 14.3815 14.6957L13.9615 13.3781C13.9291 13.2811 13.9938 13.195 14.1051 13.1842L21.591 12.5128C21.6987 12.502 21.81 12.5738 21.8424 12.6672L22.2732 13.9669C22.3055 14.0638 22.2445 14.1464 22.1368 14.1572V14.1607Z" fill="#2A4259"/>
<path d="M24.6789 17.972L15.9112 18.8481C15.7999 18.8588 15.685 18.787 15.6527 18.6901L15.229 17.3545C15.1967 17.2576 15.2613 17.1678 15.3726 17.157L24.126 16.3097C24.2337 16.2989 24.345 16.3672 24.3773 16.4641L24.8154 17.7782C24.8477 17.8751 24.7866 17.9613 24.6789 17.972Z" fill="#2A4259"/>
<path d="M26.0029 21.9545L17.1957 22.8988C17.0844 22.9095 16.9695 22.8413 16.9372 22.7408L16.5064 21.3872C16.4741 21.2867 16.5387 21.197 16.65 21.1862L25.4428 20.2706C25.5506 20.2599 25.6654 20.3281 25.6978 20.425L26.143 21.757C26.1753 21.854 26.1142 21.9437 26.0065 21.9545H26.0029Z" fill="#2A4259"/>
<path d="M38.5841 12.5451L30.3621 13.3062C30.258 13.317 30.1467 13.2488 30.1144 13.1554L29.6691 11.8809C29.6368 11.7875 29.6943 11.7049 29.7984 11.6942L38.006 10.9582C38.1066 10.9474 38.2143 11.0156 38.2466 11.1089L38.7026 12.362C38.7349 12.4553 38.681 12.5379 38.5805 12.5451H38.5841Z" fill="#2A4259"/>
<path d="M37.628 16.5813L31.7075 17.1701C31.6034 17.1809 31.4921 17.1127 31.4597 17.0157L31.0109 15.7232C30.9786 15.6299 31.0361 15.5437 31.1402 15.5329L37.05 14.9621C37.1505 14.9513 37.2618 15.0195 37.2941 15.1129L37.7537 16.3874C37.786 16.4808 37.7321 16.5669 37.6316 16.5741L37.628 16.5813Z" fill="#2A4259"/>
<path d="M39.0135 20.4505L33.0679 21.086C32.9637 21.0967 32.8524 21.0285 32.8165 20.9316L32.3606 19.6211C32.3282 19.5242 32.3857 19.438 32.4898 19.4272L38.4247 18.8097C38.5252 18.7989 38.6366 18.8672 38.6725 18.9605L39.1356 20.253C39.1715 20.3464 39.1141 20.4325 39.0135 20.4469V20.4505Z" fill="#2A4259"/>
</svg>
