<svg width="320" height="240" viewBox="0 0 320 240" fill="none" xmlns="http://www.w3.org/2000/svg">
<path d="M305.547 20H14.4533C12.5559 19.9983 10.6768 20.3705 8.92329 21.0954C7.16981 21.8203 5.57638 22.8836 4.23409 24.2247C2.8918 25.5657 1.82697 27.1582 1.10045 28.911C0.373942 30.6638 -8.08861e-07 32.5426 0 34.44V205.547C0 209.38 1.52275 213.056 4.23328 215.767C6.9438 218.477 10.6201 220 14.4533 220H305.547C309.38 220 313.056 218.477 315.767 215.767C318.477 213.056 320 209.38 320 205.547V34.44C320 32.5426 319.626 30.6638 318.9 28.911C318.173 27.1582 317.108 25.5657 315.766 24.2247C314.424 22.8836 312.83 21.8203 311.077 21.0954C309.323 20.3705 307.444 19.9983 305.547 20Z" fill="#223548"/>
<path d="M151.678 130H29.2979C27.4118 130 25.8828 131.532 25.8828 133.421V212.821C25.8828 214.71 27.4118 216.242 29.2979 216.242H151.678C153.564 216.242 155.093 214.71 155.093 212.821V133.421C155.093 131.532 153.564 130 151.678 130Z" fill="#2A4259"/>
<path d="M148.845 134.646H31.9615C30.211 134.646 28.792 136.068 28.792 137.822V209.338C28.792 211.092 30.211 212.513 31.9615 212.513H148.845C150.595 212.513 152.014 211.092 152.014 209.338V137.822C152.014 136.068 150.595 134.646 148.845 134.646Z" fill="#223548"/>
<path d="M172.875 217.82H12L16.0384 219.462C16.2933 219.564 16.5648 219.618 16.8393 219.621L168.742 220C169.143 220.002 169.536 219.89 169.875 219.678L172.871 217.809L172.875 217.82Z" fill="#324E6B"/>
<path d="M172.875 217.229C172.874 216.945 172.761 216.672 172.559 216.472C172.358 216.271 172.086 216.158 171.802 216.158H13.0729C12.789 216.158 12.5167 216.271 12.3156 216.472C12.1145 216.672 12.001 216.945 12 217.229V217.82H172.875V217.229Z" fill="#2A4259"/>
<path d="M83.0777 216.125H101.63V216.503C101.63 216.905 101.471 217.29 101.188 217.574C100.904 217.858 100.52 218.017 100.119 218.017H84.5775C84.1767 218.017 83.7924 217.858 83.509 217.574C83.2256 217.29 83.0664 216.905 83.0664 216.503V216.125H83.0777Z" fill="#3B5B7C"/>
<path d="M90.7238 133.038C91.1807 133.038 91.5511 132.667 91.5511 132.21C91.5511 131.752 91.1807 131.381 90.7238 131.381C90.2669 131.381 89.8965 131.752 89.8965 132.21C89.8965 132.667 90.2669 133.038 90.7238 133.038Z" fill="#324E6B"/>
<path d="M295.976 132.052L241.064 113.242C238.732 112.45 236.202 113.682 235.41 116.014L208.042 195.896C207.25 198.228 208.482 200.758 210.814 201.55L265.726 220.36C268.058 221.152 270.588 219.92 271.38 217.588L298.748 137.706C299.54 135.374 298.308 132.844 295.976 132.052Z" fill="#2A4259"/>
<path d="M263.042 133.416C261.238 132.69 259.236 132.514 257.344 132.932C255.43 133.328 253.692 134.296 252.328 135.704C250.964 137.112 250.04 138.872 249.688 140.786C249.336 142.7 249.556 144.68 250.326 146.484C251.096 148.288 252.372 149.806 254.022 150.862C255.65 151.918 257.564 152.49 259.522 152.446C261.48 152.424 263.372 151.808 264.978 150.708C266.584 149.608 267.838 148.046 268.564 146.242L259.39 142.59L263.064 133.416H263.042Z" fill="#223548"/>
<path d="M265.967 132.074L262.315 141.226L271.467 144.878C271.951 143.668 272.193 142.392 272.171 141.094C272.171 139.796 271.885 138.52 271.379 137.332C270.873 136.144 270.125 135.066 269.201 134.164C268.277 133.262 267.177 132.558 265.967 132.074Z" fill="#324E6B"/>
<path d="M273.579 164.832L235.321 151.72C234.045 151.28 232.681 151.962 232.241 153.238C231.801 154.514 232.483 155.878 233.759 156.318L272.017 169.43C273.293 169.87 274.657 169.188 275.097 167.912C275.537 166.636 274.855 165.272 273.579 164.832Z" fill="#223548"/>
<path d="M270.279 172.619L232.021 159.507C230.745 159.067 229.381 159.749 228.941 161.025C228.501 162.301 229.183 163.665 230.459 164.105L268.717 177.217C269.993 177.657 271.379 176.975 271.797 175.699C272.237 174.423 271.555 173.059 270.279 172.619Z" fill="#223548"/>
<path d="M249.248 174.116L228.876 167.142C227.6 166.702 226.214 167.384 225.796 168.66C225.356 169.936 226.038 171.3 227.314 171.74L247.708 178.714C248.984 179.154 250.348 178.472 250.788 177.196C251.228 175.92 250.546 174.556 249.27 174.116H249.248Z" fill="#223548"/>
<path d="M197.308 45H94.3014C88.0598 45 83 50.0598 83 56.3014V183.699C83 189.94 88.0598 195 94.3014 195H197.308C203.549 195 208.609 189.94 208.609 183.699V56.3014C208.609 50.0598 203.549 45 197.308 45Z" fill="#CEDBE8"/>
<path fill-rule="evenodd" clip-rule="evenodd" d="M94.5801 57.1442C94.5801 56.6305 94.7017 56.2188 94.8468 56.2188H180.383C180.532 56.2188 180.65 56.6109 180.65 57.1442V182.859C180.65 183.373 180.532 183.785 180.383 183.785H94.8468C94.7017 183.785 94.5801 183.392 94.5801 182.859V57.1442Z" fill="#CEDBE8"/>
<path d="M180.65 68.2539H94.5801V78.673H180.65V68.2539Z" fill="#2A4259"/>
<path d="M130.119 59.9199H101.874C100.531 59.9199 99.4424 61.0084 99.4424 62.3512C99.4424 63.6939 100.531 64.7824 101.874 64.7824H130.119C131.462 64.7824 132.55 63.6939 132.55 62.3512C132.55 61.0084 131.462 59.9199 130.119 59.9199Z" fill="#0070F3"/>
<path d="M124.218 72.1914H100.831C100.064 72.1914 99.4424 72.8129 99.4424 73.5796C99.4424 74.3462 100.064 74.9677 100.831 74.9677H124.218C124.984 74.9677 125.606 74.3462 125.606 73.5796C125.606 72.8129 124.984 72.1914 124.218 72.1914Z" fill="#0070F3"/>
<path d="M119.818 82.3789H100.831C100.064 82.3789 99.4424 83.0004 99.4424 83.7671C99.4424 84.5337 100.064 85.1552 100.831 85.1552H119.818C120.584 85.1552 121.206 84.5337 121.206 83.7671C121.206 83.0004 120.584 82.3789 119.818 82.3789Z" fill="#0070F3"/>
<path d="M122.825 93.0293H100.831C100.064 93.0293 99.4424 93.6508 99.4424 94.4175C99.4424 95.1841 100.064 95.8056 100.831 95.8056H122.825C123.592 95.8056 124.214 95.1841 124.214 94.4175C124.214 93.6508 123.592 93.0293 122.825 93.0293Z" fill="#0070F3"/>
<path d="M110.787 103.213H100.831C100.064 103.213 99.4424 103.834 99.4424 104.601C99.4424 105.368 100.064 105.989 100.831 105.989H110.787C111.554 105.989 112.175 105.368 112.175 104.601C112.175 103.834 111.554 103.213 110.787 103.213Z" fill="#0070F3"/>
<path d="M110.787 113.631H100.831C100.064 113.631 99.4424 114.252 99.4424 115.019C99.4424 115.786 100.064 116.407 100.831 116.407H110.787C111.554 116.407 112.175 115.786 112.175 115.019C112.175 114.252 111.554 113.631 110.787 113.631Z" fill="#0070F3"/>
<path d="M110.787 134.471H100.831C100.064 134.471 99.4424 135.092 99.4424 135.859C99.4424 136.626 100.064 137.247 100.831 137.247H110.787C111.554 137.247 112.175 136.626 112.175 135.859C112.175 135.092 111.554 134.471 110.787 134.471Z" fill="#0070F3"/>
<path d="M110.787 124.051H100.831C100.064 124.051 99.4424 124.672 99.4424 125.439C99.4424 126.206 100.064 126.827 100.831 126.827H110.787C111.554 126.827 112.175 126.206 112.175 125.439C112.175 124.672 111.554 124.051 110.787 124.051Z" fill="#0070F3"/>
<path d="M110.787 144.889H100.831C100.064 144.889 99.4424 145.51 99.4424 146.277C99.4424 147.043 100.064 147.665 100.831 147.665H110.787C111.554 147.665 112.175 147.043 112.175 146.277C112.175 145.51 111.554 144.889 110.787 144.889Z" fill="#0070F3"/>
<path d="M110.74 155.352H100.784C100.017 155.352 99.3955 155.973 99.3955 156.74C99.3955 157.506 100.017 158.128 100.784 158.128H110.74C111.507 158.128 112.128 157.506 112.128 156.74C112.128 155.973 111.507 155.352 110.74 155.352Z" fill="#0070F3"/>
<path d="M172.858 71.9277H149.471C148.705 71.9277 148.083 72.5492 148.083 73.3159C148.083 74.0826 148.705 74.7041 149.471 74.7041H172.858C173.625 74.7041 174.246 74.0826 174.246 73.3159C174.246 72.5492 173.625 71.9277 172.858 71.9277Z" fill="#0070F3"/>
<path d="M168.458 82.1152H149.471C148.705 82.1152 148.083 82.7367 148.083 83.5034C148.083 84.2701 148.705 84.8916 149.471 84.8916H168.458C169.225 84.8916 169.847 84.2701 169.847 83.5034C169.847 82.7367 169.225 82.1152 168.458 82.1152Z" fill="#0070F3"/>
<path d="M171.466 92.7617H149.471C148.705 92.7617 148.083 93.3832 148.083 94.1499C148.083 94.9165 148.705 95.538 149.471 95.538H171.466C172.233 95.538 172.854 94.9165 172.854 94.1499C172.854 93.3832 172.233 92.7617 171.466 92.7617Z" fill="#0070F3"/>
<path d="M159.428 102.949H149.471C148.705 102.949 148.083 103.571 148.083 104.337C148.083 105.104 148.705 105.726 149.471 105.726H159.428C160.194 105.726 160.816 105.104 160.816 104.337C160.816 103.571 160.194 102.949 159.428 102.949Z" fill="#0070F3"/>
<path d="M159.428 113.369H149.471C148.705 113.369 148.083 113.991 148.083 114.757C148.083 115.524 148.705 116.145 149.471 116.145H159.428C160.194 116.145 160.816 115.524 160.816 114.757C160.816 113.991 160.194 113.369 159.428 113.369Z" fill="#0070F3"/>
<path d="M159.428 134.207H149.471C148.705 134.207 148.083 134.829 148.083 135.595C148.083 136.362 148.705 136.983 149.471 136.983H159.428C160.194 136.983 160.816 136.362 160.816 135.595C160.816 134.829 160.194 134.207 159.428 134.207Z" fill="#0070F3"/>
<path d="M159.428 123.787H149.471C148.705 123.787 148.083 124.409 148.083 125.175C148.083 125.942 148.705 126.563 149.471 126.563H159.428C160.194 126.563 160.816 125.942 160.816 125.175C160.816 124.409 160.194 123.787 159.428 123.787Z" fill="#0070F3"/>
<path d="M159.428 144.627H149.471C148.705 144.627 148.083 145.248 148.083 146.015C148.083 146.782 148.705 147.403 149.471 147.403H159.428C160.194 147.403 160.816 146.782 160.816 146.015C160.816 145.248 160.194 144.627 159.428 144.627Z" fill="#0070F3"/>
<path d="M159.428 155.045H149.471C148.705 155.045 148.083 155.666 148.083 156.433C148.083 157.2 148.705 157.821 149.471 157.821H159.428C160.194 157.821 160.816 157.2 160.816 156.433C160.816 155.666 160.194 155.045 159.428 155.045Z" fill="#0070F3"/>
<path d="M191.261 71.5156H233.078C233.105 71.5156 233.132 71.5267 233.152 71.5464C233.171 71.5661 233.183 71.5928 233.183 71.6207V177.165C233.183 177.193 233.171 177.22 233.152 177.239C233.132 177.259 233.105 177.27 233.078 177.27H191.366C191.338 177.27 191.311 177.259 191.292 177.239C191.272 177.22 191.261 177.193 191.261 177.165V71.5156Z" fill="#688FB7"/>
<path d="M236.165 68.4785H194.243V174.237H236.165V68.4785Z" fill="#CEDBE8"/>
<path d="M194.243 68.4785H236.074C236.098 68.4785 236.121 68.4881 236.138 68.5053C236.155 68.5224 236.165 68.5456 236.165 68.5698V81.151H194.243V68.4785Z" fill="#2A4259"/>
<path d="M226.049 73.0449H198.814C197.921 73.0449 197.197 73.7687 197.197 74.6615C197.197 75.5543 197.921 76.2781 198.814 76.2781H226.049C226.942 76.2781 227.666 75.5543 227.666 74.6615C227.666 73.7687 226.942 73.0449 226.049 73.0449Z" fill="#0070F3"/>
<path d="M72.9991 97.863C72.9991 96.5047 69.0565 95.4175 63.7886 95.1705C63.4874 89.9092 62.3278 85.997 60.9695 86C59.6111 86.003 58.4816 89.9453 58.1925 95.2338C52.9096 95.5952 48.982 96.7758 49.0001 98.137C49.0181 99.4983 52.9427 100.586 58.2105 100.829C58.5268 106.091 59.6713 110.003 61.0267 110C62.3821 109.997 63.5175 106.055 63.8067 100.766C69.0896 100.405 73.0141 99.2242 72.9991 97.863Z" fill="#2A4259"/>
<path d="M44.4994 59.9029C44.4994 58.9408 41.7067 58.1707 37.9753 57.9958C37.7619 54.269 36.9406 51.4979 35.9784 51.5C35.0162 51.5021 34.2161 54.2946 34.0113 58.0406C30.2693 58.2966 27.4872 59.1328 27.5 60.0971C27.5128 61.0613 30.2927 61.8314 34.0241 62.0042C34.2482 65.731 35.0589 68.5021 36.0189 68.5C36.979 68.4979 37.7833 65.7054 37.9881 61.9594C41.7301 61.7034 44.51 60.8672 44.4994 59.9029Z" fill="#2A4259"/>
<path d="M249.999 47.863C249.999 46.5047 246.056 45.4175 240.789 45.1705C240.487 39.9092 239.328 35.997 237.969 36C236.611 36.003 235.482 39.9453 235.192 45.2338C229.91 45.5952 225.982 46.7758 226 48.137C226.018 49.4983 229.943 50.5855 235.211 50.8295C235.527 56.0908 236.671 60.003 238.027 60C239.382 59.997 240.518 56.0547 240.807 50.7662C246.09 50.4048 250.014 49.2242 249.999 47.863Z" fill="#F58B00"/>
<path d="M267.499 71.9029C267.499 70.9408 264.707 70.1707 260.975 69.9958C260.762 66.269 259.941 63.4979 258.978 63.5C258.016 63.5021 257.216 66.2946 257.011 70.0406C253.269 70.2966 250.487 71.1328 250.5 72.0971C250.513 73.0613 253.293 73.8314 257.024 74.0042C257.248 77.731 258.059 80.5021 259.019 80.5C259.979 80.4979 260.783 77.7054 260.988 73.9594C264.73 73.7034 267.51 72.8672 267.499 71.9029Z" fill="#F58B00"/>
<path d="M215 140C223.284 140 230 133.284 230 125C230 116.716 223.284 110 215 110C206.716 110 200 116.716 200 125C200 133.284 206.716 140 215 140Z" fill="#F58B00"/>
<path fill-rule="evenodd" clip-rule="evenodd" d="M210.258 115.072C210.78 115.072 211.204 115.496 211.204 116.019V131.159C211.204 131.681 210.78 132.105 210.258 132.105C209.735 132.105 209.312 131.681 209.312 131.159V116.019C209.312 115.496 209.735 115.072 210.258 115.072Z" fill="#CEDBE8"/>
<path fill-rule="evenodd" clip-rule="evenodd" d="M205.804 129.228C206.173 128.859 206.772 128.859 207.142 129.228L210.258 132.344L213.374 129.228C213.743 128.859 214.342 128.859 214.712 129.228C215.081 129.598 215.081 130.197 214.712 130.567L210.927 134.352C210.557 134.721 209.958 134.721 209.589 134.352L205.804 130.567C205.434 130.197 205.434 129.598 205.804 129.228Z" fill="#CEDBE8"/>
<path fill-rule="evenodd" clip-rule="evenodd" d="M220.351 117.596C220.873 117.596 221.297 118.019 221.297 118.542V133.682C221.297 134.205 220.873 134.628 220.351 134.628C219.828 134.628 219.404 134.205 219.404 133.682V118.542C219.404 118.019 219.828 117.596 220.351 117.596Z" fill="#CEDBE8"/>
<path fill-rule="evenodd" clip-rule="evenodd" d="M219.682 115.349C220.052 114.98 220.651 114.98 221.02 115.349L224.805 119.134C225.175 119.504 225.175 120.103 224.805 120.473C224.436 120.842 223.837 120.842 223.467 120.473L220.351 117.357L217.235 120.473C216.866 120.842 216.267 120.842 215.897 120.473C215.528 120.103 215.528 119.504 215.897 119.134L219.682 115.349Z" fill="#CEDBE8"/>
</svg>
