<svg width="320" height="155" viewBox="0 0 320 155" fill="none" xmlns="http://www.w3.org/2000/svg">
<path d="M296 0.391602H24C10.7452 0.391602 0 11.1368 0 24.3916V114.392C0 127.646 10.7452 138.392 24 138.392H296C309.255 138.392 320 127.646 320 114.392V24.3916C320 11.1368 309.255 0.391602 296 0.391602Z" fill="#222F3B"/>
<mask id="mask0_4038_85712" style="mask-type:alpha" maskUnits="userSpaceOnUse" x="0" y="0" width="320" height="139">
<path d="M296 0.391602H24C10.7452 0.391602 0 11.1368 0 24.3916V114.392C0 127.646 10.7452 138.392 24 138.392H296C309.255 138.392 320 127.646 320 114.392V24.3916C320 11.1368 309.255 0.391602 296 0.391602Z" fill="#222F3B"/>
</mask>
<g mask="url(#mask0_4038_85712)">
<path d="M198.713 147.907L187.183 152.847L132.813 111.097C135.793 110.407 138.633 109.487 141.273 108.377L198.703 147.907H198.713Z" fill="#101619"/>
<path d="M115.993 45.907C141.673 47.557 162.283 63.787 162.003 82.177C161.833 93.607 153.633 103.177 141.293 108.387L137.603 105.837L128.103 107.467L132.833 111.097C127.333 112.377 121.313 112.887 115.013 112.477C89.3326 110.827 68.7326 94.597 69.0026 76.207C69.2826 57.827 90.3226 44.257 116.003 45.897L115.993 45.907Z" fill="#101619"/>
<path d="M137.593 105.827L141.283 108.377C138.633 109.487 135.803 110.407 132.823 111.097L128.093 107.467L137.593 105.837V105.827Z" fill="#101619"/>
</g>
<path d="M246.903 101.037L121.323 101.387C120.093 101.387 118.983 100.627 118.543 99.4772L92.1926 30.6472C91.4526 28.6972 92.8826 26.6172 94.9726 26.6172L220.613 26.7472L250.543 95.4772C251.683 98.1072 249.763 101.047 246.903 101.047V101.037Z" fill="#688FB7"/>
<path d="M248.233 98.4866L122.343 98.8366C120.883 98.8366 119.563 97.9366 119.043 96.5666L93.1226 28.8466C92.2426 26.5366 93.9426 24.0566 96.4226 24.0566L218.943 24.1766C220.343 24.1766 221.613 25.0066 222.173 26.2966L251.463 93.5466C252.473 95.8766 250.773 98.4766 248.243 98.4766L248.233 98.4866Z" fill="#D5DADD"/>
<path d="M220.592 42.9262L106.072 43.1662C105.582 43.1662 105.142 42.8662 104.972 42.4062L102.792 36.6662C102.502 35.8962 103.072 35.0762 103.892 35.0762L218.212 35.3162C218.672 35.3162 219.092 35.5862 219.282 36.0062L221.662 41.2662C222.012 42.0462 221.442 42.9262 220.592 42.9262Z" fill="#2A4259"/>
<path d="M216.003 40.5768H198.353C197.783 40.5768 197.273 40.2368 197.063 39.7068L197.013 39.5968C196.633 38.6768 197.323 37.6668 198.313 37.6768L216.013 37.7868C216.553 37.7868 217.043 38.1068 217.273 38.5968C217.703 39.5168 217.023 40.5768 216.003 40.5768Z" fill="#D5DADD"/>
<path d="M188.912 40.5768H171.262C170.692 40.5768 170.182 40.2368 169.972 39.7068L169.922 39.5968C169.542 38.6768 170.232 37.6668 171.222 37.6768L188.922 37.7868C189.462 37.7868 189.952 38.1068 190.182 38.5968C190.612 39.5168 189.932 40.5768 188.912 40.5768Z" fill="#D5DADD"/>
<path d="M138.892 30.7163H102.252C101.692 30.7163 101.192 30.3763 100.982 29.8563C100.622 28.9563 101.282 27.9863 102.252 27.9863H138.892C139.452 27.9863 139.952 28.3263 140.162 28.8463C140.522 29.7463 139.862 30.7163 138.892 30.7163Z" fill="#2A4259"/>
<path d="M219.452 51.0563H201.802C201.232 51.0563 200.722 50.7163 200.512 50.1863L200.462 50.0763C200.082 49.1563 200.772 48.1463 201.762 48.1563L219.462 48.2663C220.002 48.2663 220.492 48.5863 220.722 49.0763C221.152 49.9963 220.472 51.0563 219.452 51.0563Z" fill="#2A4259"/>
<path d="M225.533 59.5866H205.163C204.513 59.5866 203.923 59.2466 203.673 58.7166L203.623 58.6066C203.193 57.6866 203.973 56.6766 205.123 56.6866L225.543 56.7966C226.163 56.7966 226.733 57.1166 226.993 57.6066C227.483 58.5266 226.703 59.5866 225.533 59.5866Z" fill="#2A4259"/>
<path d="M222.963 67.9665H207.763C207.273 67.9665 206.833 67.6265 206.653 67.0965L206.613 66.9865C206.293 66.0665 206.873 65.0565 207.733 65.0665L222.973 65.1765C223.443 65.1765 223.863 65.4965 224.053 65.9865C224.423 66.9065 223.843 67.9665 222.963 67.9665Z" fill="#2A4259"/>
<path d="M228.763 76.0368H211.113C210.543 76.0368 210.033 75.6968 209.823 75.1668L209.773 75.0568C209.393 74.1368 210.083 73.1268 211.073 73.1368L228.773 73.2468C229.313 73.2468 229.803 73.5668 230.033 74.0568C230.463 74.9768 229.783 76.0368 228.763 76.0368Z" fill="#2A4259"/>
<path d="M232.363 85.4762H214.713C214.143 85.4762 213.633 85.1363 213.423 84.6063L213.373 84.4963C212.993 83.5763 213.683 82.5662 214.673 82.5762L232.373 82.6862C232.913 82.6862 233.403 83.0063 233.633 83.4963C234.063 84.4163 233.383 85.4762 232.363 85.4762Z" fill="#2A4259"/>
<path d="M190.433 50.7565H172.783C172.213 50.7565 171.703 50.4165 171.493 49.8865L171.443 49.7765C171.063 48.8565 171.753 47.8465 172.743 47.8565L190.443 47.9665C190.983 47.9665 191.473 48.2865 191.703 48.7765C192.133 49.6965 191.453 50.7565 190.433 50.7565Z" fill="#2A4259"/>
<path d="M196.502 59.2868H176.132C175.482 59.2868 174.892 58.9468 174.642 58.4168L174.592 58.3068C174.162 57.3868 174.942 56.3768 176.092 56.3868L196.512 56.4968C197.132 56.4968 197.702 56.8168 197.962 57.3068C198.452 58.2268 197.672 59.2868 196.502 59.2868Z" fill="#2A4259"/>
<path d="M193.943 67.6667H178.743C178.253 67.6667 177.813 67.3267 177.633 66.7967L177.593 66.6867C177.273 65.7667 177.853 64.7567 178.713 64.7667L193.953 64.8767C194.423 64.8767 194.843 65.1967 195.033 65.6867C195.403 66.6067 194.823 67.6667 193.943 67.6667Z" fill="#2A4259"/>
<path d="M199.742 75.737H182.092C181.522 75.737 181.012 75.397 180.802 74.867L180.752 74.757C180.372 73.837 181.062 72.827 182.052 72.837L199.752 72.947C200.292 72.947 200.782 73.267 201.012 73.757C201.442 74.677 200.762 75.737 199.742 75.737Z" fill="#2A4259"/>
<path d="M203.332 85.1764H185.682C185.112 85.1764 184.602 84.8364 184.392 84.3064L184.342 84.1964C183.962 83.2764 184.652 82.2664 185.642 82.2764L203.342 82.3864C203.882 82.3864 204.372 82.7064 204.602 83.1964C205.032 84.1164 204.352 85.1764 203.332 85.1764Z" fill="#2A4259"/>
<path d="M122.343 98.8371L144.223 98.7771C155.223 93.3871 162.393 84.3471 162.543 73.6771C162.823 55.2871 142.213 39.0471 116.533 37.4071C109.623 36.9671 103.043 37.6271 97.123 39.1871L100.213 47.3871L119.043 96.5671C119.563 97.9371 120.883 98.8371 122.343 98.8371Z" fill="#101619"/>
<path fill-rule="evenodd" clip-rule="evenodd" d="M149.723 12.8568C171.813 13.1868 191.923 29.0568 194.643 48.3068C197.363 67.5568 181.663 82.8868 159.573 82.5568C137.483 82.2268 117.373 66.3568 114.653 47.1068C111.933 27.8568 127.633 12.5268 149.713 12.8568H149.723Z" fill="#222F3B"/>
<path fill-rule="evenodd" clip-rule="evenodd" d="M190.553 142.727L167.893 85.0869C167.893 85.0869 162.603 87.1269 164.403 92.0569C166.213 96.9969 185.743 150.617 185.683 150.457C185.623 150.307 187.513 146.677 191.363 145.217L190.543 142.727H190.553Z" fill="#8D2A00"/>
<path fill-rule="evenodd" clip-rule="evenodd" d="M198.763 147.157L195.423 139.247C195.423 139.247 192.713 136.117 188.193 137.437C183.673 138.757 182.993 143.077 182.993 143.077L185.683 150.457L198.763 147.157Z" fill="#C35500"/>
<path fill-rule="evenodd" clip-rule="evenodd" d="M112.393 30.6764C112.393 30.6764 105.023 50.9364 117.263 68.8264C129.513 86.7164 147.383 94.0664 166.923 92.0064C186.473 89.9464 202.343 73.2364 199.853 50.0864C197.363 26.9364 184.613 19.4364 177.313 14.1264C170.013 8.81643 151.263 4.54643 138.433 7.45643C125.613 10.3664 112.383 30.6764 112.383 30.6764H112.393Z" fill="#8D2A00"/>
<path fill-rule="evenodd" clip-rule="evenodd" d="M149.723 12.8568C171.813 13.1868 191.923 29.0568 194.643 48.3068C197.363 67.5568 181.663 82.8868 159.573 82.5568C137.483 82.2268 117.373 66.3568 114.653 47.1068C111.933 27.8568 127.633 12.5268 149.713 12.8568H149.723Z" fill="#D0C1CB"/>
<path fill-rule="evenodd" clip-rule="evenodd" d="M149.723 12.8568C171.813 13.1868 191.923 29.0568 194.643 48.3068C197.363 67.5568 181.663 82.8868 159.573 82.5568C137.483 82.2268 117.373 66.3568 114.653 47.1068C111.933 27.8568 127.633 12.5268 149.713 12.8568H149.723Z" fill="#D0C1CB"/>
<path fill-rule="evenodd" clip-rule="evenodd" d="M149.723 12.8568C171.813 13.1868 191.923 29.0568 194.643 48.3068C197.363 67.5568 181.663 82.8868 159.573 82.5568C137.483 82.2268 117.373 66.3568 114.653 47.1068C111.933 27.8568 127.633 12.5268 149.713 12.8568H149.723Z" fill="#D0C1CB"/>
<g clip-path="url(#clip0_4038_85712)">
<path d="M157.363 54.0764C156.923 53.8164 156.413 53.7364 155.963 53.8764C155.563 53.9964 155.243 54.2664 155.063 54.6464L153.983 56.8764L147.413 38.8064C147.063 37.8464 146.113 37.2464 145.233 37.4364C144.823 37.5264 144.493 37.7764 144.293 38.1464C144.053 38.5764 144.033 39.1264 144.223 39.6464L150.723 57.4964L148.363 56.0764C147.923 55.8164 147.413 55.7364 146.963 55.8764C146.563 55.9964 146.243 56.2664 146.053 56.6464C145.663 57.4464 146.023 58.4664 146.853 58.9664L153.083 62.7064C153.373 62.8864 153.703 62.9764 154.023 62.9764C154.183 62.9764 154.333 62.9564 154.483 62.9064C154.883 62.7864 155.203 62.5164 155.383 62.1364L158.163 56.3864C158.553 55.5864 158.193 54.5664 157.363 54.0664V54.0764Z" fill="#688FB7"/>
<path d="M172.813 57.1768L166.303 39.2868L168.663 40.7068C169.103 40.9668 169.613 41.0468 170.063 40.9068C170.463 40.7868 170.783 40.5168 170.963 40.1368C171.353 39.3368 171.003 38.3168 170.163 37.8068L163.933 34.0768C163.493 33.8168 162.993 33.7368 162.543 33.8768C162.143 33.9968 161.813 34.2668 161.633 34.6468L158.853 40.3968C158.463 41.1968 158.823 42.2168 159.653 42.7168C160.093 42.9768 160.603 43.0468 161.053 42.9168C161.453 42.7968 161.773 42.5268 161.953 42.1468L163.033 39.9168L169.613 58.0168C169.913 58.8368 170.673 59.3868 171.443 59.3868C171.553 59.3868 171.673 59.3768 171.783 59.3468C172.193 59.2568 172.533 58.9968 172.733 58.6268C172.963 58.2068 172.993 57.6668 172.803 57.1668L172.813 57.1768Z" fill="#688FB7"/>
</g>
<path d="M194.593 51.7764C195.413 69.5264 181.443 82.3664 160.583 82.0564C157.623 82.0164 154.693 81.6864 151.843 81.1164C166.473 71.0464 179.953 61.8464 194.583 51.7764H194.593Z" fill="#D5DADD"/>
<path d="M168.093 16.7766C167.163 17.2166 166.273 17.7266 165.423 18.3166C149.663 29.1466 133.903 39.9866 118.133 50.8166C117.823 51.3466 117.513 51.8766 117.203 52.4066C116.613 50.5866 116.173 48.7266 115.903 46.8366C115.143 41.4566 115.833 36.3866 117.703 31.8866C126.843 25.6166 135.983 19.3366 145.133 13.0666C146.963 12.8566 148.853 12.7666 150.793 12.7966C156.883 12.8866 162.643 14.5866 168.103 16.7866L168.093 16.7766Z" fill="#D5DADD"/>
<path d="M161.693 85.2967H160.973C136.833 84.9367 114.673 66.6567 111.553 44.5467C110.103 34.2767 112.933 24.5067 119.513 17.0367C126.753 8.81669 138.003 4.21669 150.313 4.39669C174.453 4.75669 196.613 23.0367 199.723 45.1467C201.173 55.4167 198.343 65.1867 191.763 72.6567C184.653 80.7167 173.723 85.3067 161.673 85.3067H161.693V85.2967ZM149.603 9.07669C138.903 9.07669 129.243 13.0867 123.033 20.1367C117.373 26.5567 114.943 34.9867 116.203 43.8867C119.003 63.7967 139.123 80.2667 161.043 80.5967H161.693C172.393 80.5967 182.053 76.5867 188.263 69.5367C193.923 63.1167 196.353 54.6867 195.093 45.7867C192.293 25.8767 172.173 9.40669 150.253 9.07669H149.603Z" fill="#C35500"/>
<path fill-rule="evenodd" clip-rule="evenodd" d="M185.813 150.637C185.813 150.637 165.013 93.6973 164.403 92.0673C163.793 90.4273 164.093 86.2473 168.153 85.2473C172.213 84.2373 174.593 88.4673 175.463 90.4573C176.333 92.4473 198.863 147.707 198.863 147.707L193.523 149.607L185.803 150.647L185.813 150.637Z" fill="#C35500"/>
<path fill-rule="evenodd" clip-rule="evenodd" d="M190.573 142.717L167.873 84.9766C167.873 84.9766 162.563 87.0166 164.373 91.9666C166.183 96.9166 185.753 150.627 185.703 150.467C185.653 150.307 187.533 146.687 191.393 145.217L190.573 142.717Z" fill="#8D2A00"/>
<path fill-rule="evenodd" clip-rule="evenodd" d="M192.273 142.727C196.033 142.787 199.053 145.487 199.003 148.767C198.953 152.047 195.863 154.667 192.093 154.607C188.323 154.557 185.313 151.847 185.363 148.567C185.413 145.287 188.503 142.667 192.263 142.727H192.273Z" fill="#8D2A00"/>
<defs>
<clipPath id="clip0_4038_85712">
<rect width="28.84" height="29.18" fill="white" transform="translate(144.093 33.8066)"/>
</clipPath>
</defs>
</svg>
