<svg width="320" height="240" viewBox="0 0 320 240" fill="none" xmlns="http://www.w3.org/2000/svg">
<rect y="51" width="320" height="138" rx="24" fill="#89D1FF"/>
<path d="M78.3236 52.365L98.7394 126.259C99.1768 127.847 100.723 128.874 102.371 128.664L241.931 111.832C247.047 110.54 248.508 106.432 247.812 104.447L167.524 41.5252C167.032 40.1245 165.665 39.2218 164.181 39.3152L82.3458 41.712C80.2449 41.8442 76.0274 44.8557 78.3158 52.3728L78.3236 52.365Z" fill="#0040B0"/>
<path d="M79.3932 45.8696L100.817 123.398C101.254 124.985 102.8 126.013 104.448 125.803L245.102 108.831C247.195 108.558 248.507 106.442 247.812 104.458L220.758 35.2166C220.266 33.8159 218.899 32.9132 217.415 33.0066L82.3845 41.6909C80.2835 41.8232 78.8309 43.8464 79.3932 45.8696Z" fill="white"/>
<path d="M220.758 35.2166C220.266 33.8159 218.899 32.9132 217.415 33.0066L82.3845 41.6909C80.2835 41.8232 78.8309 43.8464 79.3932 45.8696L82.3923 56.7328L224.522 44.8658L220.75 35.2166H220.758Z" fill="#0040B0"/>
<path d="M85.696 46.8981L86.8831 51.0224C87.0159 51.4737 87.5236 51.8083 88.0312 51.7694L130.222 48.8746C130.69 48.8435 130.964 48.4622 130.823 48.0342L129.542 44.0656C129.402 43.6376 128.91 43.3108 128.441 43.3419L86.3755 46.0343C85.8756 46.0655 85.571 46.4545 85.696 46.8981Z" fill="#56BDFF"/>
<path d="M121.097 79.6971L99.5725 81.7981C99.0493 81.8526 98.7369 82.2806 98.8774 82.7631L99.432 84.6773C99.5725 85.1598 100.111 85.51 100.635 85.4555L122.199 83.2844C122.706 83.23 122.995 82.8098 122.847 82.3351L122.269 80.4597C122.121 79.985 121.597 79.6426 121.097 79.6971Z" fill="#0070F2"/>
<path d="M123.933 88.9354L102.307 91.2154C101.784 91.2699 101.471 91.7134 101.612 92.2037L102.174 94.1413C102.315 94.6315 102.854 94.9817 103.385 94.9272L125.058 92.5772C125.566 92.5227 125.855 92.0869 125.706 91.6045L125.12 89.7058C124.972 89.2233 124.441 88.8809 123.941 88.9354H123.933Z" fill="#0070F2"/>
<path d="M106.156 104.545L133.882 101.315C134.39 101.253 134.671 100.817 134.523 100.327L133.921 98.4128C133.773 97.9303 133.242 97.5879 132.734 97.6424L105.055 100.778C104.532 100.841 104.219 101.292 104.36 101.782L104.93 103.751C105.071 104.249 105.617 104.607 106.148 104.545H106.156Z" fill="#0070F2"/>
<path d="M96.3006 73.8385L96.8473 75.7217C96.9879 76.1963 97.519 76.5465 98.0422 76.4998L125.378 73.9552C125.878 73.9085 126.159 73.4961 126.018 73.0292L125.448 71.1928C125.3 70.7259 124.784 70.3913 124.284 70.4379L97.0035 72.8969C96.4802 72.9436 96.1756 73.3638 96.3084 73.8463L96.3006 73.8385Z" fill="#0070F2"/>
<path d="M108.921 114.083L130.805 111.36C131.321 111.297 131.61 110.846 131.454 110.348L130.852 108.395C130.704 107.904 130.165 107.554 129.657 107.617L107.82 110.262C107.289 110.325 106.976 110.784 107.125 111.289L107.703 113.289C107.851 113.795 108.398 114.153 108.929 114.083H108.921Z" fill="#0070F2"/>
<path d="M139.076 81.4571L164.936 78.858C165.389 78.8113 165.639 78.4145 165.49 77.9709L164.858 76.1189C164.709 75.6753 164.217 75.3563 163.764 75.403L137.951 77.9242C137.475 77.9709 137.209 78.3756 137.35 78.8269L137.959 80.7256C138.108 81.1769 138.608 81.5116 139.084 81.4571H139.076Z" fill="#0070F2"/>
<path d="M134.592 70.1976L135.194 72.0729C135.334 72.5243 135.834 72.8511 136.311 72.8044L162.061 70.4077C162.514 70.3687 162.764 69.9797 162.615 69.5439L161.99 67.7152C161.842 67.2794 161.358 66.9604 160.905 66.9993L135.201 69.3182C134.725 69.3571 134.459 69.754 134.6 70.2053L134.592 70.1976Z" fill="#0070F2"/>
<path d="M161.772 84.8209L140.857 87.0231C140.38 87.0698 140.107 87.4823 140.255 87.9414L140.872 89.8634C141.021 90.3225 141.528 90.6572 142.005 90.6027L162.952 88.3304C163.412 88.2838 163.662 87.8713 163.514 87.4278L162.881 85.5446C162.733 85.0933 162.233 84.7742 161.772 84.8209Z" fill="#0070F2"/>
<path d="M164.817 93.8677L143.808 96.2489C143.331 96.3034 143.058 96.7236 143.206 97.1905L143.831 99.1437C143.98 99.6106 144.487 99.9452 144.972 99.8907L166.012 97.4395C166.473 97.385 166.723 96.9726 166.575 96.5135L165.926 94.5992C165.77 94.1479 165.27 93.821 164.809 93.8677H164.817Z" fill="#0070F2"/>
<path d="M173.184 75.4083L173.817 77.2292C173.973 77.6728 174.465 77.9996 174.918 77.9529L199.239 75.5095C199.676 75.4628 199.895 75.0815 199.739 74.6457L199.083 72.8715C198.927 72.4435 198.442 72.1245 198.013 72.1634L173.731 74.529C173.278 74.5757 173.036 74.9648 173.192 75.4083H173.184Z" fill="#0070F2"/>
<path d="M190.881 64.3984L170.825 66.2116C170.372 66.2505 170.13 66.6395 170.286 67.0753L170.911 68.8729C171.067 69.3086 171.551 69.6355 172.004 69.5888L192.092 67.7134C192.529 67.6745 192.756 67.2932 192.599 66.8652L191.959 65.1066C191.803 64.6786 191.326 64.3673 190.889 64.4062L190.881 64.3984Z" fill="#0070F2"/>
<path d="M197.014 81.2077L176.793 83.3398C176.34 83.3865 176.098 83.7912 176.254 84.2347L176.895 86.079C177.051 86.5303 177.551 86.8571 178.004 86.8027L198.256 84.6082C198.693 84.5615 198.92 84.1647 198.756 83.7211L198.1 81.9158C197.936 81.48 197.451 81.161 197.014 81.2077Z" fill="#0070F2"/>
<path d="M181.127 95.7726L205.643 92.9167C206.081 92.8622 206.299 92.4654 206.135 92.0218L205.464 90.2009C205.3 89.7574 204.815 89.4383 204.378 89.485L179.901 92.2553C179.448 92.3097 179.206 92.7144 179.362 93.1735L180.01 95.0411C180.166 95.5002 180.666 95.827 181.127 95.7726Z" fill="#0070F2"/>
<path d="M184.229 104.674L204.637 102.137C205.082 102.082 205.3 101.67 205.136 101.219L204.457 99.3665C204.293 98.9152 203.801 98.5961 203.356 98.6506L182.979 101.125C182.518 101.18 182.276 101.6 182.44 102.059L183.096 103.95C183.26 104.409 183.76 104.744 184.221 104.681L184.229 104.674Z" fill="#0070F2"/>
<path d="M223.867 69.6445L205.482 71.4421C205.045 71.481 204.826 71.8701 204.99 72.3136L205.638 74.0412C205.802 74.4769 206.286 74.796 206.724 74.7571L225.132 72.905C225.554 72.8661 225.757 72.477 225.593 72.0491L224.929 70.3527C224.765 69.9247 224.289 69.6134 223.867 69.6523V69.6445Z" fill="#0070F2"/>
<path d="M209.941 83.3177L232.926 80.8275C233.348 80.7809 233.543 80.3918 233.379 79.956L232.707 78.244C232.536 77.8083 232.059 77.497 231.637 77.5437L208.683 79.9638C208.246 80.0105 208.027 80.4073 208.191 80.8509L208.847 82.6018C209.011 83.0453 209.503 83.3644 209.941 83.3177Z" fill="#0070F2"/>
<path d="M201.959 64.2261L202.599 65.9303C202.763 66.3661 203.247 66.6851 203.677 66.6384L226.506 64.5141C226.92 64.4752 227.123 64.1016 226.959 63.6814L226.303 62.0162C226.139 61.596 225.663 61.2847 225.249 61.3236L202.459 63.3779C202.021 63.4169 201.803 63.7982 201.967 64.2261H201.959Z" fill="#0070F2"/>
<path d="M213.206 92.0023L231.748 89.839C232.169 89.7924 232.372 89.3955 232.201 88.9519L231.521 87.2089C231.349 86.7653 230.865 86.454 230.443 86.5007L211.925 88.6018C211.488 88.6485 211.269 89.0531 211.433 89.5044L212.097 91.2786C212.269 91.73 212.761 92.049 213.198 92.0023H213.206Z" fill="#0070F2"/>
<path d="M216.439 100.607L235.05 98.288C235.48 98.2335 235.683 97.8289 235.503 97.3853L234.816 95.6189C234.644 95.1753 234.16 94.8563 233.73 94.903L215.15 97.1596C214.713 97.2141 214.494 97.6265 214.658 98.0779L215.33 99.8754C215.501 100.335 215.994 100.654 216.439 100.599V100.607Z" fill="#0070F2"/>
<path d="M190.024 173.81L145.576 160.132C152.808 154.954 148.367 148.98 134.792 145.336C119.258 141.162 94.6702 140.918 77.429 145.042C57.8058 149.74 53.5583 158.562 71.4667 164.421C90.0639 170.503 121.224 169.865 138.465 163.64L179.821 177.956L184.851 177.098C185.778 175.979 186.286 177.195 187.735 176.32C190.419 174.484 191.825 173.279 191.38 173.057H190.024V173.81Z" fill="#1B90FF"/>
<path d="M196.059 64.9452C199.011 77.2909 194.147 90.0048 188.074 99.0819C182.609 107.238 173.392 112.985 161.322 114.428C134.701 117.604 106.207 98.6445 99.0241 72.9557C91.8409 47.2669 107.618 22.8134 132.898 21.6471C157.183 20.5269 187.912 42.1951 196.059 64.9452Z" fill="#8D2A00"/>
<path d="M194.279 58.6086C202.749 82.2564 189.97 104.492 164.475 107.539C137.854 110.715 109.36 91.7555 102.177 66.0666C94.9935 40.3778 111.179 21.2109 136.466 20.0447C160.752 18.9244 186.14 35.8662 194.286 58.6086H194.279Z" fill="#C35500"/>
<path d="M188.598 59.0675C195.866 79.6385 184.598 98.8208 162.494 101.345C139.542 103.962 115.017 87.6414 108.72 65.5434C102.647 44.2282 116.25 26.5652 138.2 25.4526C159.395 24.3861 181.577 39.1871 188.606 59.0675H188.598Z" fill="#FFEAF4"/>
<path d="M193.969 173.956L179.449 177.808L156.381 104.417L169.984 102.836L193.969 173.956Z" fill="#C35500"/>
<path d="M107.957 48.9785L137.977 25.4688C122.208 26.3511 110.793 35.7888 107.957 48.9785Z" fill="#FFEAF4"/>
<path d="M162.493 101.346C181.992 99.1209 193.052 83.9363 190.401 66.2656L142.369 99.0749C148.882 101.239 155.757 102.113 162.493 101.346Z" fill="white"/>
<path d="M164.937 32.0974L164.922 32.0898L164.937 32.0974Z" fill="#FFEAF4"/>
<path d="M138.191 25.4557C138.816 25.4252 139.432 25.41 140.057 25.4023C139.432 25.4023 138.816 25.4252 138.191 25.4557Z" fill="#FFEAF4"/>
<path d="M158.361 28.9766C158.554 29.0533 158.747 29.13 158.932 29.2067C158.739 29.13 158.554 29.0533 158.361 28.9766Z" fill="#FFEAF4"/>
<path d="M160.111 29.6953C160.242 29.7567 160.373 29.8181 160.504 29.8718C160.373 29.8104 160.242 29.749 160.111 29.6953Z" fill="#FFEAF4"/>
<path d="M156.59 28.3047C156.806 28.3814 157.029 28.4581 157.245 28.5425C157.029 28.4581 156.813 28.3814 156.59 28.3047Z" fill="#FFEAF4"/>
<path d="M144.598 25.6055C144.952 25.636 145.307 25.6741 145.669 25.7199C145.314 25.6817 144.96 25.6436 144.598 25.6055Z" fill="#FFEAF4"/>
<path d="M142.678 25.4688C143.048 25.4916 143.425 25.5069 143.795 25.5374C143.425 25.5069 143.048 25.484 142.678 25.4688Z" fill="#FFEAF4"/>
<path d="M146.486 25.8203C146.833 25.8661 147.188 25.9195 147.535 25.9729C147.188 25.9195 146.841 25.8661 146.486 25.8203Z" fill="#FFEAF4"/>
<path d="M140.682 25.4062C141.098 25.4062 141.506 25.4139 141.923 25.4291C141.506 25.4139 141.09 25.4062 140.682 25.4062Z" fill="#FFEAF4"/>
<path d="M190.741 69.455C189.6 46.6051 167.55 28.3283 145.661 25.6044C138.046 24.9062 124.659 24.9062 114.94 35.4257C113.846 36.6073 112.821 37.9885 111.865 39.4463C111.703 39.6918 111.611 39.8606 111.464 40.0985C111.441 40.1292 111.433 40.1676 111.41 40.2059C122.933 26.3871 141.353 25.5047 157.631 31.9499C174.479 38.6176 189.03 53.1424 190.741 69.4703V69.455Z" fill="#8D2A00"/>
<path d="M134.37 28.2911L107.957 48.9772C106.87 54.0413 107.04 59.6502 108.72 65.543C108.859 66.034 109.013 66.5174 109.175 67.0008L160.282 33.079C151.912 29.3423 142.848 27.4855 134.37 28.2911Z" fill="white"/>
<path d="M150.848 107.316L158.763 111.988C158.763 111.988 157.114 107.914 162.54 107.354V107.27C160.366 107.599 155.988 108.037 150.848 107.308V107.316Z" fill="#8D2A00"/>
<path d="M168.289 106.539C169.391 106.586 171.318 107.399 172.235 109.739L173.545 105.488C173.545 105.488 172.335 106.071 168.289 106.532V106.539Z" fill="#8D2A00"/>
<path d="M179.449 177.806L157.822 109.08L159.279 107.622C159.279 107.622 162.046 107.461 165.19 106.832C165.19 106.832 164.104 108.052 164.42 109.74C165.684 116.369 186.247 176.517 186.247 176.517L179.441 177.806H179.449Z" fill="#8D2A00"/>
<path d="M193.969 173.956C193.969 174.754 190.224 176.082 184.096 177.655C181.068 178.261 179.58 178.184 179.449 177.808C179.356 177.54 181.014 176.504 184.019 175.537C188.52 174.133 193.461 173.343 193.969 173.956Z" fill="#8D2A00"/>
<path d="M167.525 56.322L159.114 49.9502C158.629 49.5821 158.006 49.3904 157.428 49.4364C156.851 49.4824 156.382 49.7585 156.151 50.1802L152.08 57.6179C151.649 58.4076 152.118 59.4734 153.134 59.9948C154.15 60.5162 155.32 60.2939 155.751 59.5041L157.605 56.0766L164.409 77.2012C164.716 78.1673 165.832 78.865 166.902 78.7577C167.972 78.6504 168.572 77.7916 168.264 76.8331L161.43 55.7853L165.255 58.6837C165.771 59.0747 166.394 59.2434 166.948 59.1974C167.364 59.1591 167.741 59.0057 168.01 58.722C168.634 58.0702 168.418 56.9968 167.525 56.322Z" fill="#00144A"/>
<path d="M148.316 70.9146C147.285 70.3932 146.099 70.6233 145.653 71.4361L143.714 74.9862L137.134 53.716C136.841 52.7729 135.733 52.0828 134.656 52.1671C133.578 52.2515 132.939 53.0873 133.224 54.038L139.758 75.3312L135.841 72.3485C134.925 71.6507 133.648 71.6431 132.97 72.3255C132.293 73.0079 132.493 74.1274 133.409 74.8252L142.074 81.4271C142.582 81.8104 143.221 82.0021 143.821 81.9408C144.422 81.8795 144.914 81.5804 145.16 81.128L149.378 73.3376C149.816 72.5249 149.339 71.436 148.308 70.9146H148.316Z" fill="#00144A"/>
</svg>
