<svg width="160" height="92" viewBox="0 0 160 92" fill="none" xmlns="http://www.w3.org/2000/svg">
<rect y="13.4082" width="160" height="69" rx="12" fill="#89D1FF"/>
<g clip-path="url(#clip0_4011_76593)">
<path d="M102.742 82.4977C102.027 80.7316 101.239 78.7314 101.006 76.8681C100.672 74.1902 97.7558 71.9532 96.0582 69.5737C95.4846 68.7701 94.8014 68.024 94.3578 67.156C94.0922 66.6371 93.9184 66.084 93.661 65.5624C92.8532 63.9291 91.324 62.7339 90.148 61.3265C89.0596 60.0259 88.4325 58.4419 87.6385 56.9852C86.3817 54.677 85.1605 52.3523 83.9653 50.0181C83.9653 50.0263 83.9653 50.0359 83.9667 50.0441C83.4273 49.183 82.5483 49.3527 82.5483 49.3527L82.2759 48.5874C82.2759 48.5874 82.2403 48.6353 82.1759 48.7216C81.5407 46.4832 80.5358 43.5685 79.9238 41.8448C79.6131 40.9686 79.928 40.0117 80.7206 39.4271C81.6009 38.7795 83.0754 37.9608 83.5409 37.0066C83.634 36.8176 83.6819 36.6136 83.7298 36.411C83.9667 35.4157 84.0995 34.3314 84.5129 33.3799C84.7169 32.9117 85.0236 32.4777 85.4165 32.1177C85.5575 31.989 85.7725 31.8493 86.0107 31.6987C86.0162 31.7015 86.0189 31.7042 86.0189 31.7042C86.9909 31.2113 87.4126 30.6199 87.4126 30.6199C87.4126 30.6199 87.5577 30.4406 87.4345 30.3091C87.4427 30.242 87.4427 30.1722 87.429 30.1024C87.3921 29.908 87.2634 29.7245 87.0621 29.5726C87.0594 29.5698 87.0566 29.5685 87.0539 29.5657C87.0361 29.552 87.0169 29.5397 86.9978 29.526C86.9909 29.5219 86.9855 29.5178 86.9786 29.5137C86.9594 29.5014 86.9403 29.4891 86.9211 29.4781C86.9143 29.474 86.906 29.4699 86.8992 29.4658C86.8787 29.4548 86.8581 29.4425 86.8376 29.4316C86.8321 29.4288 86.8253 29.4261 86.8184 29.422C86.7486 29.3878 86.6733 29.3563 86.5939 29.3289C86.583 29.3248 86.572 29.3207 86.5597 29.3166C86.5391 29.3097 86.5172 29.3029 86.4953 29.2974C86.4803 29.2933 86.4666 29.2892 86.4515 29.2851C86.431 29.2796 86.4091 29.2741 86.3872 29.2686C86.3707 29.2645 86.353 29.2604 86.3365 29.2577C86.316 29.2536 86.2941 29.2481 86.2722 29.244C86.253 29.2399 86.2338 29.2372 86.2133 29.2344C86.1928 29.2317 86.1722 29.2276 86.1517 29.2248C86.1134 29.2194 86.0737 29.2153 86.034 29.2111C86.0162 29.2098 85.9984 29.2084 85.9806 29.207C85.9546 29.2057 85.9285 29.2029 85.9025 29.2016C85.8834 29.2016 85.8628 29.2002 85.8423 29.1988C85.8163 29.1988 85.7916 29.1975 85.7656 29.1975C85.7451 29.1975 85.7245 29.1975 85.704 29.1975C85.6766 29.1975 85.6493 29.1975 85.6219 29.2002C85.6013 29.2002 85.5822 29.2016 85.5616 29.2029C85.5301 29.2043 85.4987 29.207 85.4672 29.2098C85.4494 29.2111 85.4329 29.2125 85.4151 29.2139C85.3672 29.2194 85.3179 29.2248 85.2673 29.2317C85.2563 29.233 85.2454 29.2358 85.2358 29.2372C85.1961 29.2426 85.155 29.2495 85.1139 29.2577C85.0948 29.2604 85.077 29.2645 85.0578 29.2686C85.0236 29.2755 84.9894 29.2823 84.9551 29.2905C84.9346 29.2947 84.9141 29.3001 84.8935 29.3056C84.8593 29.3138 84.8251 29.3234 84.7909 29.3316C84.7703 29.3371 84.7498 29.3426 84.7306 29.348C84.6923 29.359 84.6553 29.3713 84.617 29.3823C84.5992 29.3878 84.5828 29.3932 84.5663 29.3987C84.5116 29.4165 84.4554 29.437 84.3993 29.4576C84.3938 29.4603 84.387 29.4617 84.3815 29.4644C84.3309 29.4836 84.2802 29.5041 84.2282 29.526C84.209 29.5342 84.1898 29.5425 84.1707 29.5507C84.1323 29.5671 84.0926 29.5849 84.0543 29.6027C84.0324 29.6123 84.0105 29.6232 83.9886 29.6342C83.9516 29.652 83.9133 29.6711 83.8763 29.6903C83.8544 29.7013 83.8311 29.7136 83.8092 29.7245C83.7695 29.7451 83.7298 29.7684 83.6888 29.7903C83.6696 29.8012 83.6491 29.8122 83.6299 29.8231C83.571 29.8573 83.5121 29.8916 83.4533 29.9285C83.4519 29.9285 83.4505 29.9299 83.4492 29.9313C82.6661 30.4187 82.1321 30.9115 81.7693 31.3373C81.7392 31.3729 81.7105 31.4085 81.6817 31.4427C81.6256 31.5112 81.5749 31.5782 81.5284 31.644C81.5051 31.6768 81.4832 31.7083 81.4613 31.7384C81.119 32.2354 81.0396 32.5708 81.0396 32.5708C81.0396 32.5708 80.8973 32.8994 80.7343 33.1746C80.7152 33.2074 80.696 33.2389 80.6755 33.269C80.5577 33.4511 80.4372 33.5853 80.3565 33.5374C80.3524 33.5346 80.3483 33.5305 80.3442 33.5264C80.3414 33.525 80.34 33.5237 80.3373 33.5209C80.3305 33.5141 80.3209 33.5018 80.3086 33.484C80.0156 33.0746 78.1632 29.9053 77.4582 28.0693C78.1003 25.835 78.7957 23.1873 78.6561 22.6451C78.4371 21.7936 77.6512 21.6115 77.2008 21.8128C77.1953 21.8155 77.1898 21.8182 77.1844 21.821C77.1597 21.8333 77.1337 21.8456 77.1118 21.8593C77.0899 21.873 77.0707 21.888 77.0516 21.9045C77.0461 21.9086 77.0392 21.9127 77.0338 21.9182C76.9913 21.9565 76.9366 22.04 76.8708 22.1619C76.7942 21.4239 76.6997 20.6723 76.5861 19.959C76.5861 19.9549 76.5861 19.9508 76.5847 19.9467C76.5724 19.8673 76.5587 19.7879 76.5464 19.7085C76.5436 19.6948 76.5423 19.6811 76.5395 19.6674C76.5272 19.5976 76.5163 19.5278 76.5039 19.4593C76.5012 19.4415 76.4971 19.4237 76.4944 19.4059C76.482 19.3402 76.4711 19.2759 76.4588 19.2115C76.4547 19.1924 76.4519 19.1746 76.4478 19.1554C76.4355 19.0924 76.4232 19.0295 76.4108 18.9678C76.4067 18.95 76.404 18.9309 76.3999 18.9131C76.3876 18.8487 76.3739 18.7858 76.3602 18.7228C76.3575 18.7077 76.3533 18.6927 76.3506 18.6776C76.3479 18.6639 76.3451 18.6502 76.3424 18.6379C76.3643 18.3134 76.3561 17.9903 76.2808 17.6905C76.2178 17.4413 76.0836 17.1977 75.8769 17.0252C75.8755 17.0197 75.8728 17.0156 75.8701 17.0101C75.8564 16.9759 75.8427 16.943 75.8276 16.9102C75.8194 16.8924 75.8112 16.8732 75.8044 16.8554C75.7879 16.8198 75.7729 16.7869 75.7564 16.7527C75.7496 16.739 75.7427 16.7253 75.7373 16.7116C75.6907 16.6199 75.6442 16.535 75.5949 16.4584C75.5867 16.446 75.5785 16.4351 75.5716 16.4228C75.5552 16.3981 75.5388 16.3735 75.521 16.3502C75.5114 16.3365 75.5018 16.3256 75.4922 16.3132C75.4771 16.2941 75.4607 16.2735 75.4457 16.2557C75.4347 16.2434 75.4238 16.2325 75.4142 16.2215C75.3991 16.2051 75.3827 16.19 75.3676 16.175C75.3567 16.164 75.3457 16.1544 75.3334 16.1448C75.3183 16.1312 75.3019 16.1188 75.2868 16.1065C75.2759 16.0983 75.2636 16.0901 75.2526 16.0819C75.2362 16.0709 75.2198 16.0613 75.2033 16.0531C75.1924 16.0463 75.1801 16.0408 75.1691 16.0353C75.1513 16.0271 75.1349 16.0216 75.1171 16.0148C75.1061 16.0107 75.0952 16.0066 75.0829 16.0038C75.0637 15.9984 75.0432 15.9956 75.024 15.9929C75.0144 15.9915 75.0048 15.9888 74.9952 15.9888C74.9651 15.986 74.935 15.986 74.9049 15.9888C74.9049 15.9888 74.8926 15.9874 74.8761 15.9847C74.8734 15.9847 74.872 15.9847 74.8693 15.9847C74.8597 15.9847 74.8474 15.9819 74.8323 15.9806C74.8323 15.9806 74.8296 15.9806 74.8282 15.9806C74.6653 15.9641 74.2696 15.9518 74.0177 16.1531C74.0177 16.0983 74.015 16.0435 74.0109 15.9901C73.9876 15.6588 73.9027 15.3398 73.7193 15.0797C73.7097 15.0633 73.7001 15.0469 73.6905 15.0304C73.685 15.0222 73.6809 15.0154 73.6755 15.0072C73.659 14.9825 73.6412 14.9579 73.6221 14.9346C73.6221 14.9332 73.6193 14.9319 73.6193 14.9305C73.5988 14.9058 73.5769 14.8812 73.555 14.8593C73.5481 14.8525 73.5413 14.847 73.5358 14.8401C73.518 14.8237 73.4989 14.8059 73.4797 14.7908C73.4715 14.784 73.4646 14.7785 73.4564 14.7717C73.4304 14.7511 73.4044 14.732 73.3756 14.7142C73.3756 14.7142 73.3729 14.7128 73.3715 14.7114C73.3414 14.6923 73.3099 14.6758 73.2771 14.658C73.2675 14.6539 73.2579 14.6485 73.2483 14.6444C73.2237 14.632 73.1963 14.6211 73.1703 14.6101C73.1593 14.606 73.1484 14.6019 73.1374 14.5978C73.1005 14.5841 73.0635 14.5718 73.0224 14.5622C73.0224 14.5622 73.0211 14.5622 73.0197 14.5622C72.9978 14.5567 72.9731 14.5513 72.9499 14.5472C72.8212 14.5088 72.6843 14.4869 72.5501 14.5061C72.4926 14.5061 72.4378 14.5088 72.3844 14.5157C72.3666 14.5184 72.3502 14.5225 72.3338 14.5253C72.2982 14.5307 72.264 14.5376 72.2311 14.5472C72.2119 14.5526 72.1928 14.5595 72.175 14.5663C72.1462 14.5759 72.1175 14.5855 72.0901 14.5978C72.0709 14.606 72.0518 14.617 72.034 14.6266C72.0093 14.6389 71.9833 14.6526 71.96 14.6676C71.9409 14.6786 71.9244 14.6923 71.9053 14.7046C71.8834 14.7197 71.8601 14.7361 71.8396 14.7539C71.8218 14.7676 71.8053 14.7826 71.7889 14.7991C71.7684 14.8169 71.7492 14.836 71.73 14.8552C71.7136 14.8716 71.6985 14.8894 71.6821 14.9072C71.6643 14.9278 71.6465 14.9483 71.6301 14.9702C71.615 14.9894 71.6 15.0085 71.5863 15.0291C71.5699 15.051 71.5548 15.0742 71.5397 15.0975C71.526 15.1194 71.5124 15.1413 71.4987 15.1632C71.485 15.1865 71.4713 15.2111 71.459 15.2358C71.4466 15.2591 71.4329 15.2837 71.422 15.3084C71.4097 15.333 71.3987 15.3576 71.3878 15.3836C71.3754 15.4097 71.3645 15.4357 71.3535 15.4631C71.344 15.4877 71.3344 15.5137 71.3248 15.5384C71.3138 15.5671 71.3029 15.5959 71.2919 15.626C71.2837 15.6492 71.2769 15.6725 71.2687 15.6972C71.2577 15.73 71.2468 15.7629 71.2372 15.7957C71.2317 15.8135 71.2276 15.8313 71.2235 15.8478C71.1988 15.9368 71.1769 16.0285 71.1564 16.1216C71.14 16.1585 71.1235 16.1941 71.1085 16.2284C71.0674 15.9381 70.9976 15.6629 70.8908 15.4288C70.8867 15.4192 70.8826 15.4097 70.8785 15.4001C70.8648 15.3713 70.8497 15.3439 70.8347 15.3166C70.8251 15.3001 70.8169 15.2837 70.8073 15.2673C70.7936 15.244 70.7785 15.2207 70.7635 15.1988C70.7512 15.181 70.7388 15.1632 70.7265 15.1454C70.7115 15.1249 70.6964 15.1071 70.68 15.0879C70.6649 15.0701 70.6498 15.0537 70.6348 15.0373C70.6184 15.0208 70.6019 15.0044 70.5855 14.9894C70.5677 14.9729 70.5499 14.9579 70.5321 14.9428C70.5157 14.9291 70.4979 14.9154 70.4801 14.9031C70.4595 14.8894 70.439 14.8757 70.4171 14.8634C70.3993 14.8525 70.3801 14.8429 70.361 14.8333C70.3377 14.8223 70.3131 14.8114 70.2884 14.8018C70.2692 14.7936 70.2501 14.7867 70.2309 14.7799C70.2035 14.7717 70.1748 14.7648 70.146 14.758C70.1269 14.7539 70.1077 14.7484 70.0872 14.7457C70.0543 14.7402 70.0187 14.7375 69.9831 14.7361C69.9653 14.7361 69.9475 14.732 69.9297 14.732C69.875 14.732 69.8188 14.732 69.7586 14.7388C69.7161 14.7429 69.6751 14.7511 69.634 14.7607C69.6244 14.7635 69.6148 14.7648 69.6053 14.7676C69.5656 14.7772 69.5272 14.7895 69.4903 14.8032C69.4861 14.8045 69.482 14.8073 69.4779 14.8086C69.4451 14.8223 69.4122 14.8374 69.3807 14.8538C69.3725 14.8579 69.3643 14.862 69.3561 14.8661C69.3219 14.8853 69.289 14.9058 69.2575 14.9278C69.252 14.9319 69.2452 14.936 69.2397 14.9414C69.2123 14.962 69.185 14.9825 69.1589 15.0058C69.1521 15.0113 69.1453 15.0167 69.1384 15.0236C69.1097 15.0496 69.0809 15.0784 69.0535 15.1085C69.0467 15.1153 69.0412 15.1222 69.0344 15.129C69.0111 15.155 68.9878 15.1838 68.9659 15.2125C68.9604 15.2194 68.9563 15.2248 68.9508 15.2317C68.9262 15.2645 68.9016 15.3001 68.8783 15.3357C68.8728 15.3453 68.866 15.3549 68.8605 15.3645C68.84 15.3973 68.8194 15.4316 68.8002 15.4672C68.7975 15.4726 68.7934 15.4781 68.7907 15.4836C68.7701 15.5233 68.7496 15.5644 68.7291 15.6054C68.7236 15.6164 68.7181 15.6287 68.7126 15.641C68.6935 15.6821 68.6757 15.7245 68.6579 15.7684C68.6565 15.7725 68.6538 15.7779 68.6524 15.782C68.636 15.8245 68.6195 15.8669 68.6045 15.9107C68.6004 15.9231 68.5949 15.9367 68.5908 15.9491C68.5757 15.9956 68.5607 16.0422 68.5456 16.0901C68.5429 16.0997 68.5401 16.1079 68.5374 16.1175C68.536 16.1243 68.5333 16.1298 68.5319 16.1366C68.1992 16.4666 67.9377 16.9129 67.7228 17.3647C67.7228 17.366 67.7214 17.3688 67.7201 17.3702C67.7077 17.3962 67.6954 17.4235 67.6817 17.4496C67.668 17.4331 67.6543 17.4153 67.6393 17.4003C67.6365 17.3975 67.6338 17.3948 67.6311 17.3921C67.6105 17.3702 67.5886 17.3496 67.5681 17.3318C67.5612 17.3263 67.5558 17.3209 67.5489 17.3154C67.5257 17.2962 67.5024 17.2784 67.4777 17.2634C67.4764 17.2634 67.4736 17.2606 67.4723 17.2593C67.4462 17.2428 67.4175 17.2291 67.3901 17.2182C67.3833 17.2155 67.3764 17.2127 67.3682 17.21C67.3449 17.2018 67.3217 17.1935 67.297 17.1881C67.2902 17.1867 67.2833 17.184 67.2765 17.1826C67.2464 17.1771 67.2149 17.173 67.1834 17.173C67.1765 17.173 67.1711 17.173 67.1642 17.173C67.1382 17.173 67.1108 17.1757 67.0821 17.1785C67.0725 17.1785 67.0643 17.1812 67.0547 17.1826C67.0205 17.1881 66.9849 17.1963 66.9493 17.2086C66.6645 17.3017 66.4701 17.5509 66.3428 17.9205C66.3305 17.9561 66.3195 17.9944 66.3086 18.0328C66.3031 18.0506 66.2976 18.067 66.2921 18.0862C66.1128 18.7543 66.1114 19.7386 66.1867 20.8777C65.9389 21.4828 65.7199 22.103 65.4858 22.9381C65.238 23.8198 65.0189 24.7042 64.7875 25.5859C64.778 25.6242 64.7684 25.6625 64.7574 25.6995C64.4357 25.2463 64.1619 24.8521 64.0332 24.6453C63.7032 24.1087 63.146 22.7081 62.378 22.218C62.3479 22.1988 62.3178 22.181 62.2876 22.166C62.2876 22.166 62.2849 22.166 62.2835 22.1646C62.2548 22.1495 62.2247 22.1345 62.1945 22.1222C62.1918 22.1222 62.1891 22.1194 62.1863 22.1194C62.1576 22.1071 62.1288 22.0975 62.1001 22.0879C62.0946 22.0866 62.0891 22.0852 62.0836 22.0838C62.0576 22.0756 62.0303 22.0688 62.0029 22.0633C61.9947 22.0619 61.9851 22.0605 61.9769 22.0592C61.9522 22.0551 61.9289 22.051 61.9043 22.0496C61.892 22.0496 61.8783 22.0496 61.866 22.0496C61.8454 22.0496 61.8235 22.0482 61.803 22.0496C61.7852 22.0496 61.766 22.0537 61.7482 22.0551C61.7318 22.0564 61.7154 22.0578 61.6989 22.0605C61.6675 22.066 61.636 22.0729 61.6031 22.0825C61.599 22.0825 61.5963 22.0838 61.5922 22.0852C61.4073 22.1386 61.28 22.2481 61.1965 22.396C61.1143 22.5452 61.0774 22.7341 61.0746 22.9463C61.0746 22.9915 61.0746 23.0381 61.0774 23.086C61.0829 23.2037 61.0993 23.3283 61.1212 23.4556C61.1267 23.4871 61.1321 23.5186 61.139 23.5515C61.1513 23.6103 61.1636 23.6706 61.1787 23.7308C61.3745 24.5495 61.803 25.4476 62.0645 25.8816C62.3588 26.369 63.1118 28.0707 63.6964 29.4275C63.5321 29.9053 63.3281 30.3666 63.0392 30.7787C62.3314 31.785 61.981 31.5235 61.981 31.5235C61.981 31.5235 61.981 31.5207 61.9782 31.5153C61.9782 31.5139 61.9782 31.5112 61.9755 31.5098C61.9741 31.5057 61.9728 31.5002 61.97 31.4934C61.9686 31.4893 61.9673 31.4838 61.9645 31.4783C61.9618 31.4715 61.9591 31.4646 61.9563 31.4564C61.9536 31.4496 61.9508 31.4413 61.9481 31.4331C61.9454 31.4249 61.9426 31.4167 61.9385 31.4071C61.9344 31.3962 61.9303 31.3852 61.9262 31.3729C61.9235 31.366 61.9207 31.3578 61.918 31.351C61.8975 31.2949 61.8714 31.2278 61.84 31.1497C61.84 31.147 61.8386 31.1456 61.8372 31.1429C61.8276 31.1182 61.8167 31.0922 61.8057 31.0648C61.803 31.058 61.8002 31.0512 61.7975 31.0443C61.7866 31.0183 61.7742 30.9896 61.7619 30.9622C61.7592 30.954 61.7551 30.9471 61.7523 30.9389C61.74 30.9088 61.7263 30.8787 61.7126 30.8472C61.7099 30.8417 61.7072 30.8362 61.7058 30.8307C61.625 30.6487 61.5264 30.4419 61.4087 30.2188C61.406 30.2133 61.4032 30.2092 61.4005 30.2037C61.3786 30.1613 61.3553 30.1188 61.332 30.0764C61.3293 30.0709 61.3266 30.0654 61.3224 30.06C61.1951 29.8286 61.0486 29.5835 60.883 29.3385C60.8816 29.3357 60.8789 29.333 60.8775 29.3303C60.8474 29.2851 60.8145 29.2399 60.783 29.1947C60.7776 29.1879 60.7735 29.1797 60.768 29.1728C60.7365 29.129 60.7036 29.0838 60.6708 29.04C60.6653 29.0332 60.6612 29.0263 60.6557 29.0208C60.5106 28.8264 60.3532 28.6361 60.182 28.4541C60.182 28.4541 60.1807 28.4513 60.1793 28.4513C60.1423 28.4116 60.104 28.3719 60.0657 28.3336C60.0561 28.324 60.0451 28.313 60.0355 28.3035C59.9986 28.2679 59.9616 28.2323 59.9246 28.1967C59.9123 28.1857 59.9 28.1734 59.8877 28.1624C59.8507 28.1282 59.8124 28.094 59.774 28.0598C59.7631 28.0502 59.7508 28.0406 59.7398 28.0296C59.6987 27.9954 59.6577 27.9598 59.6166 27.927C59.3291 27.697 59.0142 27.4998 58.6719 27.3533C57.7738 26.97 57.0688 26.9495 56.5444 27.0631C56.5417 27.0631 56.539 27.0631 56.5362 27.0645C56.4924 27.074 56.45 27.085 56.4075 27.0959C56.4021 27.0973 56.3966 27.0987 56.3925 27.1001C56.3541 27.111 56.3172 27.122 56.2816 27.1343C56.2747 27.137 56.2679 27.1384 56.261 27.1411C56.2268 27.1534 56.194 27.1658 56.1611 27.1781C56.1543 27.1808 56.146 27.1836 56.1392 27.1863C56.1009 27.2014 56.0639 27.2178 56.0283 27.2342C55.9023 27.2931 55.8079 27.3807 55.7449 27.482C55.7326 27.5026 55.7216 27.5231 55.7107 27.545C55.6107 27.7586 55.6436 28.0173 55.827 28.2104L55.8572 28.2418C55.9886 28.4404 56.2693 28.8059 56.758 29.1838L57.5699 30.0326C57.8765 30.5829 58.1709 31.1251 58.4159 31.5851C58.4269 31.6043 58.4365 31.6248 58.4474 31.644C58.4693 31.6837 58.4885 31.7247 58.509 31.7658C58.854 32.4449 59.0786 33.1677 59.1826 33.9098C59.2004 34.0343 59.2196 34.1493 59.2387 34.2561C59.2524 34.3328 59.2689 34.404 59.2839 34.4724C59.4359 35.1268 59.6659 35.4582 60.1081 35.9935C60.3189 36.2495 60.5722 36.6862 60.8214 37.1709C61.1075 37.7253 61.3909 38.3455 61.6045 38.8343C61.6606 38.9602 61.7044 39.0903 61.74 39.2217C61.8632 39.6762 61.8673 40.1527 61.7482 40.6127L60.5476 45.2223L60.0506 47.1294C59.0484 46.9131 58.4173 46.7967 58.4173 46.7967L55.0111 54.8221L43.2563 82.4977H60.6188C61.9686 79.8704 65.2407 75.2047 65.6678 72.3365C66.44 67.1505 67.1177 67.746 69.2137 63.5636C69.8941 62.2055 70.9209 60.0341 71.7355 58.1503C71.7533 58.1804 71.7697 58.2105 71.7875 58.2393C71.8354 58.3187 71.8834 58.3981 71.934 58.4761C72.0025 58.5829 72.0723 58.6884 72.1449 58.7938C72.7733 59.7083 73.518 60.5256 73.8822 61.0144C74.1889 61.4265 74.8419 62.1521 75.5593 63.0461C76.7545 64.537 78.1304 66.4975 78.3864 68.2649C78.4932 68.9974 79.0189 70.3062 79.739 71.8423C79.776 71.9203 79.813 71.9997 79.8499 72.0791C79.9006 72.1873 79.9526 72.2954 80.006 72.4049C81.2231 74.9336 82.8673 77.9346 84.0297 80.0046C84.0297 80.0046 84.031 80.0073 84.0324 80.0087C84.1638 80.2414 84.2884 80.4619 84.4048 80.67C84.4459 80.7411 84.4856 80.811 84.5239 80.8794C85.0879 81.8734 85.4521 82.499 85.4521 82.499H102.486H102.742V82.4977ZM72.5966 51.9403C71.8491 51.1585 70.5787 50.4439 69.096 49.8127C69.1466 49.1898 69.2479 48.3711 69.4519 47.458C69.6997 46.3518 70.0995 45.1114 70.7416 43.9244C70.7662 43.9929 70.7909 44.0613 70.8141 44.1284C70.9442 44.5049 71.0578 44.8855 71.1523 45.2702L72.3338 50.0469L72.7185 51.6035C72.7185 51.6035 72.7185 51.6117 72.7171 51.6295C72.7171 51.6459 72.7144 51.6706 72.713 51.7034C72.7103 51.7732 72.7062 51.88 72.7062 52.0128L72.635 51.9868C72.6213 51.9717 72.609 51.9567 72.5939 51.9416L72.5966 51.9403Z" fill="#1B90FF"/>
<path d="M86.8002 56.0828C86.8002 56.0828 98.0585 53.7151 97.6026 50.202C97.2676 47.6285 95.2986 41.2183 94.2676 37.9716C93.8967 36.8033 94.2725 35.5255 95.2186 34.7477C96.2692 33.8833 98.0291 32.7918 98.5846 31.5189C98.6957 31.2656 98.7529 30.9944 98.8101 30.7248C99.0928 29.3963 99.2513 27.9519 99.7448 26.6823C99.9882 26.0581 100.354 25.4796 100.823 24.9992C101.47 24.3375 103.426 23.4715 103.224 22.3097C103.036 21.228 100.967 20.3489 98.4751 22.0826C95.9833 23.8162 95.5977 25.6006 95.5977 25.6006C95.5977 25.6006 94.9947 27.1512 94.7611 26.8702C94.5274 26.5891 90.9996 19.8652 90.9996 18.2198C90.9996 16.5743 90.4685 3.25725 88.2724 3.48601C88.2724 3.48601 86.9342 3.22947 86.9489 4.40759C86.9489 4.40759 87.7316 1.52521 85.4636 1.50397C83.1956 1.48273 83.6646 6.88963 83.6646 6.88963C83.6646 6.88963 84.4897 1.53011 82.127 1.81279C79.7626 2.09548 80.4227 9.00239 80.4227 9.00239C80.4227 9.00239 80.3263 4.53994 78.7756 5.10367C77.225 5.6674 77.9031 10.6037 78.3394 15.3521C78.7756 20.1005 78.3394 19.7721 78.3394 19.7721C78.3394 19.7721 75.8148 15.9632 75.2969 15.0237C74.7805 14.0841 73.7919 11.1478 72.3818 11.6037C70.9717 12.0612 72.3344 15.54 72.9455 16.6691C73.5566 17.7982 75.8132 23.8146 75.8132 23.8146L82.5616 38.8131C83.0992 40.0092 83.5142 41.2575 83.7986 42.5386L86.7969 56.0828H86.8002Z" fill="#FFAB92"/>
<path d="M94.7281 26.8211C94.7216 26.8521 94.7167 26.8815 94.7101 26.9126C94.6448 27.1936 94.5451 27.4649 94.4765 27.7443C94.4422 27.8865 94.4144 28.0319 94.4079 28.1789C94.3997 28.326 94.4144 28.4714 94.4373 28.6152C94.452 28.7133 94.4699 28.8162 94.5141 28.9061C94.5337 28.9469 94.5664 28.9976 94.617 28.9927C94.6677 28.9878 94.7085 28.9404 94.7379 28.9061C94.787 28.8472 94.8262 28.7819 94.8621 28.7149C94.9552 28.5482 95.032 28.3718 95.1088 28.1969C95.1905 28.009 95.2755 27.8211 95.3621 27.6348C95.5647 27.1985 95.7788 26.7655 96.0141 26.3456C96.2412 25.9387 96.4879 25.5417 96.7625 25.1642C97.0288 24.7982 97.3213 24.4502 97.6432 24.1299C97.9732 23.8031 98.3327 23.5073 98.7183 23.2492C99.1301 22.973 99.5713 22.741 100.03 22.5514C100.601 22.3161 101.195 22.1201 101.797 21.9828C102.189 21.8929 102.588 21.8341 102.99 21.8096C102.351 21.0139 100.563 20.6348 98.4782 22.0841C95.9863 23.8162 95.6007 25.6021 95.6007 25.6021C95.6007 25.6021 94.9977 27.1528 94.7641 26.8717C94.7559 26.8619 94.7445 26.8456 94.7298 26.8211H94.7281Z" fill="#FF7F4C"/>
<path d="M88.2753 3.48699C88.2753 3.48699 87.3325 3.30888 87.04 3.95104C87.1528 3.13731 87.1642 1.51965 85.4665 1.50494C84.4093 1.49514 83.9485 2.66345 83.7557 3.91346C83.625 2.73535 83.2116 1.68305 82.1299 1.81214C80.3014 2.02946 80.2818 6.21086 80.3668 8.09486C80.2442 6.82198 79.8766 4.70431 78.7785 5.10301C77.2279 5.66674 77.906 10.6031 78.3422 15.3515C78.6429 18.6276 78.5285 19.4855 78.4289 19.7044C78.5285 19.9365 78.6347 20.1636 78.7524 20.3858C78.8079 20.492 78.8668 20.5966 78.9289 20.7012C78.9909 20.8057 79.0628 20.9054 79.138 21.0018C79.2998 21.211 79.4762 21.4071 79.6593 21.5966C80.04 21.992 80.4468 22.3597 80.8325 22.7518C80.9485 22.8695 81.0645 22.9904 81.1772 23.1162C81.1968 23.1195 81.2148 23.1228 81.2344 23.126C82.2638 23.345 83.1397 23.9708 84.1005 24.3728C84.4812 24.5313 84.8799 24.6685 85.2966 24.6849C85.6086 24.6979 85.9191 24.644 86.2051 24.5182C86.7802 24.2649 87.2002 23.7616 87.5074 23.229C87.8636 22.6146 88.0989 21.9348 88.2802 21.2518C88.4534 20.595 88.576 19.9234 88.6642 19.2502C88.7704 18.4348 88.8293 17.6145 88.9338 16.7992C89.0809 15.6505 89.2835 14.5034 89.6446 13.4021C89.8816 12.6799 90.1936 11.9707 90.5874 11.3155C90.2002 7.40695 89.4943 3.3579 88.2753 3.48535V3.48699Z" fill="#FF7F4C"/>
<path d="M90.5844 50.167C89.086 49.1049 87.9062 47.6458 87.5304 45.8173C87.3016 44.7078 87.403 43.5935 87.5255 42.4774C87.6677 41.1849 87.9847 39.783 89.2004 39.0869C89.8049 38.7405 90.501 38.5705 91.0729 38.1637C91.5844 37.7993 91.9406 37.2111 92.1465 36.6261C92.5141 35.5803 92.4635 34.2339 91.6317 33.4136C91.2134 33.0019 90.6824 32.8123 90.1023 32.8417C89.519 32.8712 88.9438 33.0248 88.3572 33.0051C87.9062 32.9888 87.4928 32.827 87.3033 32.3891C87.1105 31.9447 87.233 31.3875 87.3196 30.9332C87.4356 30.3107 87.6317 29.6652 87.5941 29.0247C87.5549 28.3499 87.0549 27.6489 86.5598 27.2159C86.0958 26.809 85.5304 26.5443 84.9683 26.3025C84.3294 26.0263 83.7019 25.7387 83.0827 25.4169C81.8343 24.7665 80.6121 24.0459 79.4977 23.1815C79.2787 23.2142 79.0598 23.2485 78.8441 23.2927C78.2575 23.4136 77.6954 23.6162 77.2019 23.9626C77.1937 23.9691 77.1856 23.9544 77.1937 23.9479C77.4307 23.7829 77.6839 23.644 77.9535 23.5361C78.4421 23.3384 78.9617 23.2453 79.4797 23.1685C79.398 23.1047 79.3163 23.0443 79.2379 22.9789C78.1284 22.0819 77.1954 21.0345 76.4323 19.8302C75.4029 18.2093 74.3424 16.5818 73.6839 14.7648C73.3734 13.9086 73.1202 12.9511 73.2689 12.036C73.2836 11.9511 73.3015 11.8677 73.3244 11.786C73.0368 11.5801 72.7231 11.4952 72.3865 11.6047C70.9764 12.0622 72.3391 15.541 72.9502 16.6701C73.5613 17.7991 75.8179 23.8155 75.8179 23.8155L82.5663 38.814C83.1039 40.0101 83.5189 41.2585 83.8033 42.5395L86.8016 56.0837C86.8016 56.0837 92.9112 54.7994 95.9471 52.7177C94.086 52.0559 92.2069 51.3174 90.5876 50.1703L90.5844 50.167Z" fill="#FF7F4C"/>
<path d="M102.885 22.4287C102.885 22.4287 102.325 22.883 102.071 23.1411C101.843 23.3748 101.63 23.6232 101.442 23.8911C101.437 23.8977 101.433 23.9058 101.428 23.9124C101.312 24.0807 101.356 24.3127 101.521 24.432C101.535 24.4418 101.544 24.4483 101.544 24.4483C102.704 23.7898 103.207 23.0006 103.207 23.0006C103.207 23.0006 103.545 22.5366 102.885 22.4287Z" fill="#FF7F4C"/>
<path d="M68.5941 44.5664C68.5941 44.5664 81.9782 47.2936 85.5239 51.4357C89.0697 55.5779 68.0058 51.4308 68.5941 44.5664Z" fill="#00144A"/>
<path d="M70.2639 46.2051L72.5694 36.3177C72.7541 35.5285 72.6953 34.7017 72.3979 33.9468C71.9175 32.7229 71.1528 30.8896 70.6103 30.1576C69.9501 29.2654 69.6854 28.7964 69.5057 27.3781C69.3733 26.3307 69.0825 25.3095 68.6282 24.3569C68.3276 23.7278 67.9616 22.9712 67.5809 22.2081L65.5024 19.7751C65.1511 19.3634 65.2638 18.7261 65.7426 18.4745C66.3848 18.1379 67.424 17.9271 68.8979 18.6313C71.6054 19.9238 72.8472 24.1967 72.8472 24.1967C72.8472 24.1967 73.2655 24.5448 74.1103 23.2033C74.9469 21.8748 75.1871 20.1575 75.5972 18.6689C76.1381 16.7065 76.5352 14.7212 77.0303 12.7489C77.6071 10.4548 78.1038 9.37635 78.9894 7.18516C79.5401 5.82404 80.3048 2.74885 82.3048 2.97598C84.849 3.26519 82.0565 7.57242 80.9208 12.6656C80.3113 15.396 79.1087 19.3274 79.1087 19.3274C79.5123 19.4124 80.0662 16.7686 80.13 16.5235C80.6757 14.4287 81.1692 12.3208 81.7182 10.2277C82.2656 8.13941 82.8293 6.02992 83.648 4.02827C83.9584 3.26846 84.5303 1.6508 85.465 1.50865C85.6398 1.4825 85.8195 1.51845 85.9879 1.57891C87.429 2.10342 87.3114 3.87631 87.0777 5.09854C86.7477 6.81914 85.8767 8.38125 85.5336 10.0937C85.3114 11.2015 85.0483 12.3061 84.7852 13.4091C84.4813 14.6787 84.2117 15.9728 83.8212 17.2195C83.4846 18.298 83.1235 20.6869 83.2133 20.5284C83.3032 20.3699 83.2509 20.213 83.8735 17.365C84.4617 14.6754 85.1235 11.994 85.9012 9.35184C86.3424 7.8551 86.7754 6.28156 87.5614 4.92534C87.6692 4.7407 87.8032 4.54462 88.0107 4.49233C88.1071 4.46782 88.2068 4.47762 88.3065 4.48743C88.6072 4.51847 88.916 4.55115 89.1823 4.69168C89.5778 4.90083 89.8212 5.32567 89.9193 5.76195C90.1153 6.63287 89.947 7.64431 89.7967 8.51687C89.6153 9.57733 89.3506 10.6231 89.0581 11.6574C87.4732 17.2767 87.0352 20.8634 86.9127 22.4189C86.9029 22.5448 87.0826 22.5774 87.1186 22.4565C87.8996 19.8192 90.264 11.9548 90.8196 11.3992C91.2804 10.9385 92.4569 11.0724 92.7559 12.3666C93.0549 13.6607 90.1545 23.968 90.1545 23.968C90.1545 23.968 89.2575 33.0726 85.1741 37.8537C81.0908 42.6348 81.2901 50.2051 81.2901 50.2051L70.2655 46.2083L70.2639 46.2051Z" fill="#C35500"/>
<path d="M78.9897 7.18154C78.1041 9.37273 77.6074 10.4512 77.0306 12.7453C76.5338 14.7175 76.1368 16.7045 75.5976 18.6653C75.1874 20.1539 74.9472 21.8712 74.1106 23.1996C73.2658 24.5411 72.8475 24.1931 72.8475 24.1931C72.8475 24.1931 71.9521 21.1146 70.024 19.394C70.3148 19.9986 70.4946 20.6506 70.6057 21.3156C70.8018 22.4888 70.9962 23.8549 71.7462 24.8271C71.8786 24.997 72.4864 25.8483 73.4864 25.4235C73.8312 25.2764 74.1074 25.0068 74.2887 24.68C75.4489 22.5918 76.3002 20.2829 76.7773 17.9431C77.0028 16.8368 77.1613 15.7175 77.3214 14.5999C77.6384 12.3744 77.9701 10.1325 78.8116 8.03285C79.542 6.20931 80.6123 4.48544 81.9277 3.02628C81.9456 3.00667 81.9636 2.98706 81.98 2.96582C80.2201 3.08674 79.5094 5.89721 78.9897 7.18154Z" fill="#8D2A00"/>
<path d="M82.2625 8.20843C82.2625 8.20843 83.2543 6.01233 83.2069 5.31788C83.1939 5.12507 83.6497 4.02539 83.1122 3.36035C82.72 4.14467 82.0648 5.01886 81.7216 5.82606C81.0027 7.51725 80.2167 9.29013 79.7886 11.081C79.3507 12.9111 79.2216 14.8049 78.6808 16.6121C78.5484 17.0565 77.8491 19.7494 78.9634 19.0516C79.0713 18.9847 79.1693 18.903 79.2641 18.818C79.6072 17.6693 80.4471 14.7983 80.9226 12.6627C81.2788 11.0679 81.7968 9.54994 82.2625 8.20679V8.20843Z" fill="#8D2A00"/>
<path d="M83.9177 17.1573C83.2951 20.007 83.3033 20.3649 83.2134 20.5217C83.1235 20.6786 83.483 18.2913 83.8212 17.2129C84.1595 16.1345 85.5909 10.0625 85.6807 9.43343C85.7167 9.18343 85.8507 8.92852 85.9405 8.69486C86.3932 7.52002 86.8392 6.3321 87.0778 5.09353C87.1709 4.60659 87.2445 4.03469 87.2102 3.4873C86.8098 5.01346 86.2837 6.50367 85.7624 7.99224C85.501 8.73734 85.2412 9.48245 85.001 10.2341C84.8752 10.6279 84.782 11.0298 84.6677 11.4269C84.5549 11.8191 84.434 12.2096 84.3098 12.6001C84.0647 13.3697 83.8033 14.1344 83.5549 14.9024C83.3703 15.4743 83.2101 16.0544 83.0304 16.6279C82.6513 17.8371 82.233 19.0757 82.1431 20.3469C82.1235 20.6198 82.1219 20.8959 82.1562 21.1688C82.1856 21.4155 82.251 21.695 82.385 21.9074C82.4585 22.025 82.5712 22.1165 82.7167 22.0708C82.8621 22.025 82.9765 21.8894 83.0663 21.7734C83.3392 21.4188 83.5304 20.9956 83.702 20.5855C83.9111 20.0887 84.086 19.574 84.2722 19.0691C84.8507 17.5054 85.3932 15.9286 85.9242 14.3485C86.1905 13.5576 86.4749 12.7684 86.6987 11.9645C86.9226 11.1622 87.1219 10.3534 87.318 9.54291C87.5157 8.72754 87.7118 7.91054 87.9226 7.10008C88.0206 6.72589 88.1317 6.35661 88.2118 5.97915C88.2772 5.66869 88.336 5.3566 88.3964 5.04614C88.4308 4.8664 88.4667 4.68503 88.5043 4.50529C88.4389 4.49712 88.3719 4.49058 88.3066 4.48404C88.2085 4.47424 88.1072 4.46444 88.0108 4.48895C87.8033 4.54123 87.6693 4.73731 87.5615 4.92196C86.7755 6.27818 86.3409 7.85172 85.9013 9.34846C85.1235 11.9906 84.5043 14.471 83.9177 17.1606V17.1573Z" fill="#8D2A00"/>
<path d="M90.6747 16.0767C90.6645 16.0767 90.6645 16.0596 90.6747 16.0596C90.685 16.0596 90.685 16.0767 90.6747 16.0767Z" fill="#8D2A00"/>
<path d="M91.174 13.2388C91.1201 13.1816 91.0825 13.1113 91.0564 13.0378C91.027 12.9561 91.0139 12.8678 91.009 12.7812C91.0041 12.6783 91.0123 12.5753 91.027 12.474C91.0352 12.4169 91.0466 12.3597 91.058 12.3025C91.0711 12.2404 91.0923 12.1783 91.112 12.1178C91.1495 12.0051 91.1937 11.8956 91.2492 11.791C91.2982 11.6979 91.3571 11.608 91.4257 11.5263C91.4894 11.4495 91.5629 11.3809 91.643 11.3221C91.6986 11.2812 91.7607 11.2469 91.8227 11.2159C91.442 11.0884 91.045 11.1685 90.8195 11.3956C90.2639 11.9512 87.8995 19.8172 87.1185 22.4529C87.0825 22.5738 86.9028 22.5411 86.9126 22.4153C86.9616 21.7813 87.0645 20.8107 87.2753 19.5035C87.241 19.3728 87.2802 19.0558 87.1936 19.1081C87.0792 19.1783 87.009 19.5329 86.973 19.6522C86.7149 20.4888 86.6087 21.4071 86.6462 22.2813C86.6577 22.5624 86.6904 22.8516 86.8325 23.0934C86.9387 23.2764 87.1446 23.4333 87.3489 23.3794C87.5433 23.3271 87.6413 23.1179 87.7165 22.9316C87.8897 22.497 88.0613 22.0623 88.2329 21.6277C88.8865 19.9643 89.5253 18.2976 90.107 16.6064C90.1953 16.3499 90.2819 16.0917 90.3685 15.8352C90.6136 15.1031 90.8571 14.3662 91.2067 13.6767C91.2574 13.5754 91.3113 13.4773 91.3669 13.3793C91.2933 13.3482 91.2263 13.3025 91.1724 13.2437L91.174 13.2388Z" fill="#8D2A00"/>
<path d="M81.7706 45.457C81.7346 45.4423 81.6987 45.4259 81.6627 45.4112C79.6235 44.5583 77.4274 44.0207 75.6267 42.6694C74.5908 41.8916 73.7476 40.7249 73.7444 39.4292C73.7411 37.8262 74.9159 37.0435 76.1186 36.2739C76.5352 36.0076 76.9584 35.7461 77.3424 35.434C77.6562 35.1808 77.9683 34.8785 78.1186 34.4961C78.6545 33.1383 76.6905 31.7118 75.7656 31.0484C74.7885 30.349 73.7378 29.7477 72.831 28.9585C71.6921 27.9683 70.8244 26.715 70.0711 25.4192C69.3179 24.1235 68.5679 22.8816 67.7541 21.6218C67.4241 21.1088 67.1283 20.5663 67.0237 19.9584C66.9437 19.4895 66.9878 19.0189 67.0695 18.5532C67.0924 18.4225 67.1169 18.2934 67.143 18.1627C66.5548 18.1447 66.0891 18.2885 65.741 18.4715C65.2623 18.7231 65.1495 19.3604 65.5008 19.7721L67.5793 22.2052C67.9616 22.9699 68.3277 23.7248 68.6267 24.3539C69.0809 25.3065 69.3718 26.3277 69.5041 27.3751C69.6839 28.7935 69.9486 29.2608 70.6087 30.1546C71.1496 30.8866 71.9159 32.72 72.3963 33.9438C72.6921 34.6987 72.7509 35.5255 72.5679 36.3148L70.2623 46.2021L81.2869 50.1988C81.2869 50.1988 81.233 48.1204 81.7673 45.4537L81.7706 45.457Z" fill="#8D2A00"/>
<path d="M80.1791 5.11471C80.1791 5.11471 82.1154 6.4938 82.5631 4.70457C82.9226 3.26992 81.8098 3.17679 81.3539 3.19639C81.2363 3.2013 81.1252 3.25195 81.0484 3.34182C80.8114 3.6098 80.2951 4.27647 80.1807 5.11634L80.1791 5.11471Z" fill="#340800"/>
<path d="M83.9078 4.21782C83.916 4.2554 83.9405 4.28808 83.9716 4.30932C84.2575 4.4956 85.6758 5.32404 86.0778 3.71618C86.4846 2.09035 85.001 2.18676 84.7248 2.2178C84.6971 2.22107 84.6693 2.23251 84.648 2.25212C84.4699 2.40408 83.6644 3.16226 83.9062 4.21782H83.9078Z" fill="#340800"/>
<path d="M86.8195 6.76053C86.8195 6.76053 88.8081 8.02524 89.0826 6.20007C89.3473 4.43698 87.6447 4.78829 87.6447 4.78829C87.6447 4.78829 86.8097 5.97131 86.8195 6.76216V6.76053Z" fill="#340800"/>
<path d="M90.5697 13.2764C90.5697 13.2764 91.8295 14.1032 92.0142 12.7339C92.158 11.6555 91.3017 11.5918 90.9798 11.6048C90.9047 11.6081 90.8377 11.649 90.8017 11.7159C90.6759 11.9496 90.403 12.564 90.5697 13.2764Z" fill="#340800"/>
<path d="M66.8667 21.2832C66.8667 21.2832 68.4517 20.5365 67.0497 19.4646C65.6952 18.427 65.4272 19.6133 65.4272 19.6133C65.4272 19.6133 65.8128 20.4662 66.8667 21.2832Z" fill="#340800"/>
<path d="M97.3995 47.9882C97.3995 47.9882 100.475 47.3198 99.3276 54.0323C98.2917 60.0961 84.3684 58.601 83.2801 55.8689C82.1935 53.1369 93.2671 56.485 97.3995 47.9882Z" fill="#00144A"/>
<path d="M86.7819 56.3391L90.6675 63.2313L100.475 57.6251L97.0744 46.9648C97.0744 46.9648 88.9322 59.4535 85.6708 50.9845C85.6708 50.9845 85.4387 53.9584 86.7819 56.3391Z" fill="white"/>
<path d="M99.8228 55.8207C99.0303 55.9073 98.2395 56.0151 97.4503 56.1263C96.7885 56.2194 96.1251 56.3158 95.46 56.3844C94.7656 56.4563 94.0744 56.471 93.3816 56.3501C92.4715 56.1932 91.6022 55.8223 90.875 55.2488C90.3309 54.8207 90.8424 54.1328 90.4927 53.5364C88.1446 54.4874 86.594 53.3828 85.6708 50.9824C85.6708 50.9824 85.4387 53.9563 86.7819 56.337L90.6675 63.2292L100.475 57.623L99.8964 55.8109C99.8718 55.8142 99.8473 55.8158 99.8212 55.8191L99.8228 55.8207Z" fill="#FFDF72"/>
<path d="M99.0909 48.8747C100.517 51.9874 101.975 55.0888 103.475 58.1672C104.421 60.1101 105.171 62.2212 106.47 63.9565C107.874 65.8323 109.7 67.4271 110.663 69.6052C110.97 70.3013 111.179 71.0382 111.495 71.7311C112.024 72.8879 112.839 73.883 113.524 74.9549C115.55 78.1282 119.031 81.1118 119.429 84.6838C119.705 87.1691 120.647 89.8374 121.501 92.192H100.865C100.865 92.192 92.9209 76.9795 92.4323 73.2082C91.9437 69.4369 88.0336 65.0039 87.0548 63.5366C86.0777 62.0709 82.795 58.378 83.9829 55.9956C84.6741 54.6084 100.068 65.3176 99.0909 48.873V48.8747Z" fill="#0070F2"/>
<path d="M120.454 91.4739C118.256 89.6519 110.95 90.214 108.441 89.2843C107.823 89.0555 107.225 88.701 106.859 88.1536C105.921 86.75 107.088 79.66 107.158 78.0996C107.218 76.7809 103.637 75.4198 103.022 74.2515C102.828 73.8822 102.583 73.5309 102.241 73.2924C101.643 72.8741 100.851 72.8691 100.127 72.9688C99.202 73.0963 98.3049 73.1502 97.3784 73.2237C97.6938 72.2499 98.0091 71.276 98.3245 70.3021C98.3768 70.1387 98.4307 69.9606 98.3686 69.8005C98.3 69.6208 98.1137 69.5211 97.9421 69.4345C95.5353 68.2188 93.1921 66.6289 91.5826 64.4279C90.8539 63.4312 90.3016 62.3135 89.9453 61.1305C89.844 60.7906 89.4127 57.4997 89.4061 57.4965C86.6153 56.6844 84.2443 55.4752 83.9829 55.9997C82.7966 58.3837 86.0777 62.0749 87.0548 63.5406C88.0319 65.0063 91.9421 69.441 92.4323 73.2123C92.9209 76.9836 100.865 92.1961 100.865 92.1961H121.196C120.965 91.9412 120.72 91.6977 120.454 91.4771V91.4739Z" fill="#00144A"/>
<path d="M68.5941 44.5664L87.5224 52.2936C87.5224 52.2936 85.9308 55.676 85.5795 56.7462C84.6841 59.4685 82.6563 64.3313 81.4864 66.9391C78.9847 72.5176 78.1759 71.7235 77.2543 78.6402C76.7445 82.467 72.8392 88.6893 71.2281 92.1942H50.5057L68.5941 44.568V44.5664Z" fill="#0070F2"/>
<path d="M63.8881 76.0006C63.9109 76.0154 63.9338 76.0317 63.9567 76.0464C64.0417 76.102 64.1266 76.1591 64.2116 76.218C64.8178 76.6314 65.4011 77.0791 66.0204 77.4745C66.4551 77.7507 66.9061 78.0039 67.3734 78.2212C67.4518 78.2572 67.5352 78.3013 67.6218 78.3438C67.7917 78.4173 67.9633 78.486 68.1381 78.5497C68.1659 78.5562 68.192 78.5611 68.2182 78.566C68.4142 78.5922 68.3669 78.4435 68.3636 78.2801C68.3603 78.1346 68.3472 77.9876 68.3309 77.8422C68.1642 76.4827 67.5629 75.1918 67.0548 73.9336C66.5548 72.6983 65.978 71.3715 65.9224 70.0202C65.8881 69.1705 65.9224 68.311 65.9338 67.4614C65.9453 66.5659 65.9681 65.6705 66.0155 64.7751C66.0989 63.1786 66.2312 61.5888 66.5155 60.0136C66.8064 58.3959 67.2231 56.8012 67.7263 55.2358C68.7705 51.9841 70.1708 48.8795 71.6659 45.8158L68.5973 44.5625L50.5089 92.1887H57.4354C57.187 90.3504 57.1315 88.4844 57.2573 86.6363C57.4207 84.2507 57.8799 81.8487 58.7998 79.6347C59.2638 78.5203 59.8537 77.3879 60.6266 76.4533C61.04 75.9516 61.5825 75.4483 62.2671 75.4108C62.8325 75.3797 63.3619 75.6624 63.826 75.9565C63.8292 75.9582 63.8325 75.9614 63.8358 75.9631C63.8538 75.9745 63.8734 75.9859 63.8913 75.9974L63.8881 76.0006Z" fill="#00144A"/>
</g>
<defs>
<clipPath id="clip0_4011_76593">
<rect width="83.0055" height="90.8193" fill="white" transform="translate(38.5 0.589844)"/>
</clipPath>
</defs>
</svg>
