<svg width="46" height="46" viewBox="0 0 46 46" fill="none" xmlns="http://www.w3.org/2000/svg">
<g clip-path="url(#clip0_4211_40863)">
<path d="M29.9293 27.8163C29.9126 27.7977 29.8959 27.779 29.8771 27.7604C29.8479 27.7314 29.8166 27.7024 29.7854 27.6735C29.7687 27.6569 29.752 27.6424 29.7332 27.6259C29.6894 27.5886 29.6435 27.5513 29.5956 27.5162C29.5872 27.51 29.581 27.5037 29.5726 27.4996C29.5163 27.4603 29.4579 27.421 29.3974 27.3837C29.3766 27.3713 29.3536 27.3589 29.3328 27.3464C29.291 27.3216 29.2472 27.2968 29.2014 27.274C29.1763 27.2595 29.1492 27.2471 29.1221 27.2347C29.0783 27.214 29.0345 27.1933 28.9907 27.1726C28.9615 27.1602 28.9323 27.1477 28.9031 27.1353C28.8551 27.1146 28.8072 27.096 28.7571 27.0774C28.7279 27.067 28.7008 27.0546 28.6695 27.0442C28.6111 27.0236 28.5506 27.0029 28.4901 26.9842C28.4672 26.978 28.4463 26.9697 28.4234 26.9635C28.34 26.9387 28.2524 26.9139 28.1648 26.8911C28.1439 26.8849 28.121 26.8807 28.098 26.8766C28.0292 26.86 27.9604 26.8435 27.8874 26.829C27.854 26.8228 27.8185 26.8166 27.7831 26.8083C27.7205 26.7959 27.6579 26.7855 27.5933 26.7752C27.5557 26.769 27.5161 26.7628 27.4786 26.7565C27.4139 26.7462 27.3493 26.7379 27.2825 26.7296C27.2429 26.7255 27.2053 26.7193 27.1657 26.7152C27.0948 26.7069 27.0197 26.7007 26.9467 26.6945C26.9113 26.6924 26.8779 26.6882 26.8424 26.6841C26.7319 26.6758 26.6213 26.6675 26.5066 26.6634C26.1166 26.6468 25.7161 26.6489 25.3053 26.6696C25.2802 26.6696 25.2531 26.6738 25.2281 26.6738C25.128 26.68 25.0258 26.6862 24.9236 26.6924C24.8214 26.7007 24.7192 26.7089 24.6149 26.7193C24.6045 26.7193 24.594 26.7193 24.5836 26.7214C23.9141 26.7835 23.2029 26.8911 22.4729 27.0442C19.4695 27.0194 16.5933 27.7749 15.5775 28.046C15.1333 28.164 14.0863 28.1868 12.9078 28.1785C12.4928 28.1764 12.0631 28.1702 11.6355 28.164C11.3811 28.1599 11.1287 28.1557 10.8805 28.1516C10.3883 28.1454 9.91901 28.1392 9.50187 28.1412C9.22447 28.1412 8.9721 28.1454 8.74893 28.1557C8.69679 28.1557 8.64465 28.1599 8.59042 28.1619C8.57373 28.1619 8.55496 28.1619 8.53828 28.164C8.50282 28.164 8.46528 28.1681 8.42774 28.1702C8.40688 28.1702 8.38394 28.1723 8.36308 28.1744C8.32971 28.1744 8.29634 28.1785 8.26088 28.1806C8.23794 28.1806 8.21499 28.1847 8.19205 28.1847C8.15868 28.1868 8.12531 28.1888 8.09194 28.193C8.06691 28.193 8.04396 28.1971 8.01894 28.1992C7.98557 28.2013 7.95219 28.2054 7.91882 28.2075C7.89379 28.2095 7.86877 28.2116 7.84582 28.2137C7.81037 28.2178 7.77491 28.2199 7.74154 28.224C7.7186 28.2261 7.69565 28.2282 7.67062 28.2302C7.62891 28.2344 7.58511 28.2385 7.54131 28.2447C7.52045 28.2468 7.50168 28.2489 7.48082 28.2509C7.4266 28.2571 7.37445 28.2634 7.32023 28.2696C7.2952 28.2716 7.27017 28.2758 7.24514 28.2799C7.21177 28.2841 7.17631 28.2882 7.14294 28.2923C7.11374 28.2965 7.08663 28.3006 7.05743 28.3048C7.02614 28.3089 6.99485 28.313 6.96357 28.3172C6.93437 28.3213 6.90517 28.3255 6.87388 28.3296C6.8426 28.3337 6.8134 28.3379 6.78211 28.3441C6.75083 28.3482 6.72163 28.3544 6.69034 28.3586C6.66114 28.3627 6.63194 28.3689 6.60066 28.3731C6.56937 28.3793 6.53809 28.3834 6.5068 28.3896C6.4776 28.3938 6.4484 28.4 6.4192 28.4062C6.38791 28.4124 6.35663 28.4165 6.32534 28.4227C6.29614 28.4289 6.26903 28.4331 6.23983 28.4393C6.17726 28.4517 6.11469 28.4641 6.05212 28.4765C6.02709 28.4828 6.00206 28.4869 5.97494 28.4931C5.94157 28.4993 5.9082 28.5076 5.87483 28.5159C5.84772 28.5221 5.82269 28.5283 5.79557 28.5345C5.7622 28.5428 5.72883 28.5511 5.69546 28.5573C5.67043 28.5635 5.64332 28.5697 5.61829 28.5759C5.58492 28.5842 5.55155 28.5925 5.52026 28.6007C5.49523 28.6069 5.46812 28.6132 5.44309 28.6214C5.40972 28.6297 5.37843 28.638 5.34506 28.6483C5.32003 28.6545 5.29501 28.6628 5.26998 28.669C5.23661 28.6794 5.20323 28.6877 5.17195 28.698C5.14692 28.7042 5.12398 28.7125 5.10103 28.7187C5.06766 28.7291 5.03429 28.7394 5.00092 28.7498C4.99675 28.7498 4.99258 28.7518 4.98841 28.7539C4.92584 28.7477 4.85701 28.7435 4.77775 28.7415C4.58586 28.7415 4.39189 28.7663 4.22921 28.7974C3.92261 28.8553 3.54718 28.9878 3.2239 29.0023H2.4501C1.76391 28.9981 1.06728 29.1637 0.773195 29.3976L0.641796 29.5032C0.349797 29.735 0.51874 29.9771 1.05685 30.0889L1.70133 30.2235C1.9537 30.2773 1.97039 30.3994 2.09553 30.4884C2.1727 30.5422 2.24153 30.6126 2.55439 30.6436C2.59193 30.6478 2.63156 30.6498 2.6691 30.6498C2.67327 30.6581 2.67744 30.6664 2.68162 30.6747C2.68579 30.685 2.68996 30.6954 2.69413 30.7036C2.70456 30.7223 2.71499 30.7409 2.72542 30.7595C2.72959 30.7657 2.73376 30.774 2.73793 30.7802C2.75462 30.8051 2.77339 30.8299 2.79424 30.8547C2.79842 30.8589 2.80259 30.8651 2.80676 30.8692C2.82344 30.8899 2.84013 30.9086 2.8589 30.9293C2.86724 30.9375 2.87559 30.9458 2.88602 30.9541C2.9027 30.9686 2.9173 30.9851 2.93399 30.9996C2.94441 31.01 2.95693 31.0183 2.96736 31.0265C2.98404 31.041 3.00073 31.0534 3.01741 31.0679C3.02993 31.0783 3.04244 31.0866 3.05496 31.0969C3.07373 31.1093 3.09041 31.1238 3.10919 31.1362C3.12379 31.1466 3.1363 31.1549 3.1509 31.1652C3.16967 31.1776 3.19053 31.19 3.2093 31.2025C3.2239 31.2107 3.2385 31.2211 3.2531 31.2294C3.27396 31.2418 3.29481 31.2542 3.31567 31.2666C3.33027 31.2749 3.34696 31.2832 3.36156 31.2915C3.3845 31.3039 3.40744 31.3163 3.43247 31.3267C3.44707 31.3349 3.46376 31.3432 3.47836 31.3494C3.50338 31.3618 3.5305 31.3743 3.55761 31.3867C3.57221 31.3929 3.58681 31.4012 3.60141 31.4074C3.63478 31.4219 3.66815 31.4364 3.70361 31.4508C3.71195 31.455 3.7203 31.4591 3.72864 31.4612C3.77244 31.4798 3.81624 31.4964 3.86004 31.5129C3.87255 31.5171 3.88507 31.5212 3.89758 31.5274C3.93095 31.5398 3.96224 31.5523 3.99561 31.5626C4.0123 31.5688 4.03107 31.575 4.04775 31.5812C4.07695 31.5916 4.10615 31.5999 4.13535 31.6102C4.15412 31.6164 4.17498 31.6226 4.19375 31.6288C4.22087 31.6371 4.25007 31.6454 4.27927 31.6537C4.30012 31.6599 4.32098 31.6661 4.33975 31.6723C4.36687 31.6806 4.39607 31.6889 4.42318 31.6951C4.44404 31.7013 4.46489 31.7054 4.48575 31.7116C4.51287 31.7199 4.54207 31.7261 4.57127 31.7344C4.59212 31.7406 4.61298 31.7448 4.63384 31.7489C4.66304 31.7551 4.69224 31.7634 4.71935 31.7696C4.74021 31.7737 4.76106 31.7799 4.77984 31.7841C4.80904 31.7903 4.84032 31.7965 4.86952 31.8027C4.88829 31.8068 4.90706 31.811 4.92792 31.8151C4.96129 31.8213 4.99466 31.8275 5.02595 31.8338C5.04263 31.8358 5.05723 31.84 5.07392 31.842C5.12189 31.8503 5.17195 31.8586 5.21992 31.8669C5.26789 31.8751 5.31795 31.8834 5.37218 31.8917C5.47855 31.9083 5.59117 31.929 5.71215 31.9497C5.77263 31.96 5.8352 31.9704 5.89777 31.9828C6.21689 32.0387 6.57146 32.1028 6.9302 32.1691C7.43911 32.2622 7.96262 32.3615 8.41105 32.4464C8.59042 32.4795 8.75728 32.5209 8.9137 32.5644C9.38299 32.6989 9.73339 32.8811 9.9211 33.0901C9.95864 33.1315 9.99827 33.1729 10.0379 33.2143C10.0504 33.2267 10.065 33.2391 10.0775 33.2536C10.1046 33.2805 10.1338 33.3074 10.163 33.3344C10.1797 33.3488 10.1964 33.3633 10.2152 33.3778C10.2423 33.4006 10.2694 33.4254 10.2986 33.4482C10.3174 33.4627 10.3362 33.4772 10.3549 33.4917C10.382 33.5144 10.4112 33.5351 10.4404 33.5579C10.4592 33.5724 10.4801 33.5869 10.5009 33.6014C10.5301 33.6221 10.5593 33.6428 10.5885 33.6635C10.6094 33.6779 10.6282 33.6904 10.649 33.7048C10.6803 33.7255 10.7095 33.7442 10.7408 33.7649C10.7616 33.7773 10.7825 33.7897 10.8034 33.8042C10.8367 33.8249 10.868 33.8435 10.9014 33.8621C10.9222 33.8746 10.941 33.8849 10.9619 33.8973C10.9973 33.918 11.0328 33.9367 11.0662 33.9553C11.0849 33.9656 11.1037 33.976 11.1225 33.9863C11.16 34.007 11.1996 34.0257 11.2372 34.0464C11.2539 34.0546 11.2706 34.0629 11.2872 34.0712C11.331 34.0919 11.3748 34.1147 11.4186 34.1354C11.4312 34.1416 11.4437 34.1478 11.4541 34.1519C11.6272 34.2326 11.8045 34.3051 11.9776 34.3713C11.9776 34.3713 11.9797 34.3713 11.9818 34.3713C12.0381 34.392 12.0944 34.4127 12.1507 34.4334C12.1591 34.4355 12.1674 34.4396 12.1757 34.4417C12.2237 34.4583 12.2738 34.4769 12.3217 34.4934C12.3322 34.4976 12.3447 34.5017 12.3551 34.5038C12.401 34.5183 12.4448 34.5348 12.4907 34.5473C12.5032 34.5514 12.5157 34.5555 12.5282 34.5597C12.572 34.5742 12.6137 34.5866 12.6575 34.599C12.6701 34.6031 12.6826 34.6073 12.6951 34.6093C12.7368 34.6218 12.7785 34.6342 12.8202 34.6466C12.8327 34.6507 12.8453 34.6528 12.8557 34.6569C12.8974 34.6694 12.9391 34.6797 12.9808 34.6921C12.9913 34.6942 13.0017 34.6983 13.0121 34.7004C13.0538 34.7128 13.0955 34.7232 13.1373 34.7335C13.1373 34.7335 13.1393 34.7335 13.1414 34.7335C13.5878 35.2965 14.4241 35.6753 15.4816 35.8678C15.4941 35.8698 15.5066 35.8719 15.5191 35.874C15.6234 35.8926 15.7277 35.9092 15.8362 35.9237C15.9509 35.9402 16.0677 35.9526 16.1866 35.9651C16.2783 35.9733 16.3722 35.9816 16.466 35.9878C16.4932 35.9878 16.5182 35.992 16.5453 35.994C17.7654 36.0706 19.1503 35.9402 20.5728 35.6422C20.5916 35.638 20.6124 35.6339 20.6312 35.6298C20.7334 35.6091 20.8335 35.5863 20.9357 35.5615C20.992 35.549 21.0504 35.5366 21.1067 35.5221C21.1693 35.5076 21.2319 35.4911 21.2945 35.4766C21.3967 35.4518 21.4968 35.4269 21.599 35.4C21.6157 35.3959 21.6323 35.3917 21.649 35.3876C23.5428 34.8846 25.42 34.1126 26.9759 33.1626C27.8895 33.1067 28.7759 32.9783 29.5455 32.7776C30.1212 32.6286 30.5717 32.4443 30.8887 32.2436C30.9179 32.227 30.945 32.2084 30.9721 32.1898C31.285 31.9828 31.4372 31.7613 31.431 31.5419C31.431 31.5274 31.431 31.5109 31.431 31.4964C31.4289 31.4777 31.4247 31.4591 31.4206 31.4384C31.4101 31.397 31.3976 31.3577 31.3768 31.3163C31.2162 31.0162 30.7469 30.7306 29.9731 30.5029C29.9501 30.4967 29.9272 30.4905 29.9042 30.4842C30.5592 29.4514 30.5529 28.5345 29.9626 27.8556C29.9668 27.8556 29.9689 27.8577 29.9689 27.8577C29.9564 27.8432 29.9397 27.8287 29.9272 27.8121L29.9293 27.8163Z" fill="#1B90FF"/>
<path d="M14.0325 10.6115L13.7467 9.66563C13.5048 8.86255 13.8489 7.99944 14.581 7.58135L14.9126 7.39092C15.6551 6.96455 16.5979 7.1115 17.1736 7.74486L17.8139 8.44652C18.11 8.69489 18.692 8.64315 19.0653 8.74664C19.2572 8.80252 19.472 8.89773 19.6222 9.06953C20.0039 9.50832 19.8203 10.0154 19.8203 10.0154C19.8203 10.0154 18.9318 10.6819 17.2758 11.6319C15.6197 12.582 14.6477 12.9794 14.6477 12.9794C14.6477 12.9794 14.1513 12.9049 13.9261 12.5178C13.7217 12.168 13.8009 11.9134 13.8447 11.6982C13.9136 11.3422 14.143 10.9841 14.0366 10.6136L14.0325 10.6115Z" fill="#8D2A00"/>
<path d="M14.0325 10.6112L13.7467 9.66534C13.5048 8.86226 13.8489 7.99915 14.581 7.58105L14.9126 7.39062C14.9126 10.3267 15.3722 11.2078 17.2758 11.6316C15.6197 12.5817 14.6477 12.9791 14.6477 12.9791C14.6477 12.9791 14.1513 12.9045 13.9261 12.5175C13.7217 12.1677 13.8009 11.9131 13.8447 11.6979C13.9136 11.3418 14.143 10.9838 14.0366 10.6133L14.0325 10.6112Z" fill="#450B00"/>
<path d="M15.0452 30.9215C15.0452 30.9215 13.606 28.2763 15.187 24.1946C15.504 23.3771 15.5103 22.4726 15.212 21.6488C14.7803 20.4628 14.1629 18.8049 13.7687 17.9087C12.9449 16.0396 12.947 12.2002 16.3216 10.298C19.6963 8.39587 22.4577 9.53633 23.9136 10.83C25.3694 12.1236 27.672 15.8534 28.8984 15.9299C30.1248 16.0065 33.537 16.2342 35.2452 18.4799C36.9513 20.7257 15.0473 30.9235 15.0473 30.9235L15.0452 30.9215Z" fill="#FFDF72"/>
<path d="M17.0885 27.8864C16.9634 26.0174 17.2345 23.7489 18.8864 21.6791C20.5383 19.6093 21.1348 19.216 19.3474 19.1643C17.1094 19.1001 16.102 17.5871 15.4554 16.2873C14.1769 13.7187 15.4554 10.8789 15.4554 10.8789C12.9505 12.9011 13.0172 16.2128 13.766 17.9059C14.1623 18.8021 14.7797 20.46 15.2093 21.646C15.5097 22.4698 15.5013 23.3743 15.1843 24.1918C13.7284 27.9547 14.836 30.4964 15.0195 30.869C15.4992 30.2149 17.1344 28.5632 17.0885 27.8843V27.8864Z" fill="#C35500"/>
<path d="M23.2961 13.8814C24.2075 17.2738 23.6944 17.2179 24.7769 17.6133C25.8594 18.0086 28.8086 16.8371 30.7588 17.6133C32.7089 18.3894 33.4535 19.6479 33.4535 19.6479L35.145 19.2939C35.3557 18.9648 35.4016 18.6875 35.2431 18.4805C33.5369 16.2348 30.1247 16.0071 28.8962 15.9305C27.6698 15.8539 25.3693 12.1242 23.9113 10.8306C22.6328 9.69628 20.351 8.67794 17.5332 9.72939C18.8264 10.0192 22.5473 11.0872 23.2961 13.8814Z" fill="#FFF8D6"/>
<path d="M29.5631 32.4689C36.0932 28.7275 39.9717 23.262 38.226 20.2614C36.4803 17.2608 29.7715 17.8614 23.2414 21.6028C16.7113 25.3442 12.8327 30.8097 14.5784 33.8103C16.3241 36.8109 23.033 36.2103 29.5631 32.4689Z" fill="#FF7F4C"/>
<path d="M36.0773 21.681C34.9657 19.7685 29.401 20.9524 24.4996 23.7611C19.5982 26.5699 15.8377 30.8812 16.9619 32.7854C18.0861 34.6897 23.6257 33.4912 28.5271 30.6825C33.4285 27.8738 37.1911 23.5914 36.0773 21.681Z" fill="#450B00"/>
<path d="M36.0792 21.681C34.9675 19.7685 29.4028 20.9524 24.5014 23.7611C24.297 23.8791 24.0947 23.9971 23.8945 24.1192C24.6933 23.8377 34.6088 20.4474 34.5713 25.8309C35.977 24.1751 36.634 22.6331 36.0813 21.6789L36.0792 21.681Z" fill="#340800"/>
<path d="M15.9725 32.8469C14.6043 30.003 18.1395 25.3398 18.1395 25.3398C14.2977 28.9061 13.5072 31.9694 14.5771 33.8073C16.2791 36.7319 22.7718 36.2393 29.1416 32.7497L32.6622 30.4915C28.2009 33.7349 17.8809 36.8127 15.9725 32.8449V32.8469Z" fill="#8D2A00"/>
<path d="M25.2974 23.3008L23.8379 24.137L25.9549 27.7758L27.4144 26.9396L25.2974 23.3008Z" fill="#8D2A00"/>
<path d="M32.1953 29.3866L32.4653 30.588C35.7163 28.3226 38.1318 25.285 38.5762 22.6765C38.5811 22.6476 38.2997 22.5858 38.033 22.4258C36.7719 26.335 33.6402 28.3817 32.1953 29.3866Z" fill="#FFDF72"/>
<path d="M28.5103 34.6132C30.8049 34.6132 32.665 32.7673 32.665 30.4902C32.665 28.2131 30.8049 26.3672 28.5103 26.3672C26.2157 26.3672 24.3555 28.2131 24.3555 30.4902C24.3555 32.7673 26.2157 34.6132 28.5103 34.6132Z" fill="#FF7F4C"/>
<path d="M28.4062 34.6573C29.837 34.6573 31.2031 33.8977 31.9498 32.8048C26.5186 33.7383 25.0169 30.1058 25.5467 27.6055C24.8104 28.3485 24.2598 29.369 24.2598 30.4949C24.2598 32.9745 26.1119 34.6594 28.4062 34.6594V34.6573Z" fill="#8D2A00"/>
<path d="M31.4851 28.7699C31.6787 28.0498 31.0074 27.2467 29.9857 26.9761C28.964 26.7056 27.9788 27.07 27.7852 27.7902C27.5916 28.5103 28.2628 29.3134 29.2846 29.5839C30.3063 29.8545 31.2915 29.49 31.4851 28.7699Z" fill="#FFDF72"/>
<path d="M31.0529 18.5982C28.4253 18.9216 22.7576 21.2977 19.7012 23.9903C26.2757 20.1023 32.01 18.856 35.5996 19.7974C35.3526 19.5642 34.8866 19.235 33.8507 18.856C33.022 18.5528 31.6339 18.5477 31.0529 18.5982Z" fill="#FFF8D6"/>
</g>
<defs>
<clipPath id="clip0_4211_40863">
<rect width="45" height="45" fill="white" transform="translate(0.5 0.5)"/>
</clipPath>
</defs>
</svg>
