<svg width="128" height="128" viewBox="0 0 128 128" fill="none" xmlns="http://www.w3.org/2000/svg">
<g clip-path="url(#clip0_4211_40766)">
<path d="M111.33 88.5958L106.368 87.2162L87.2513 82.7908L72.1419 66.8036L60.2937 54.4727L0 73.5063L16.1111 77.9163L13.1052 83.4803L50.4007 105.673L52.5716 96.8941L75.5851 105.168L111.33 88.5958Z" fill="#1B90FF"/>
<path d="M70.252 40.7812L113.117 53.6518L111.783 87.8139L70.252 69.7027V40.7812Z" fill="#8D2A00"/>
<path d="M35.7477 83.6465L70.2517 69.9678V40.7812L33.9355 50.3212L35.7477 83.6465Z" fill="#A93E00"/>
<path d="M75.6094 66.5384L113.116 53.8789L111.78 88.4108L75.6094 105.079V66.5384Z" fill="#A93E00"/>
<path d="M83.5017 24.1133L127.405 33.6025L112.775 53.8808L70.252 40.8706L83.5017 24.1133Z" fill="#C35500"/>
<path d="M113.017 53.8789L128 71.3597L91.5499 87.2184L75.6094 66.4607L113.017 53.8789Z" fill="#FF7F4C"/>
<path d="M70.2511 41.2349L62.6633 22.3242L26.1953 29.8008L34.4262 50.9008L70.2511 41.2349Z" fill="#FF7F4C"/>
<path d="M35.6954 84.0487L75.6098 105.079V66.9308L33.9355 50.9023L35.6954 84.0487Z" fill="#450B00"/>
<path d="M61.794 91.9815L75.6083 66.695L34.1175 50.9023L21.4316 71.8494L61.794 91.9815Z" fill="#C35500"/>
</g>
<defs>
<clipPath id="clip0_4211_40766">
<rect width="128" height="128" fill="white"/>
</clipPath>
</defs>
</svg>
