<svg width="160" height="161" viewBox="0 0 160 161" fill="none" xmlns="http://www.w3.org/2000/svg">
<path d="M38.123 18.6498L21.9884 115.9C21.3732 119.608 23.8804 123.113 27.5884 123.728L95.8015 135.045C99.5095 135.66 103.014 133.153 103.629 129.445L119.764 32.1946C120.379 28.4866 117.872 24.982 114.164 24.3668L45.9508 13.0498C42.2428 12.4346 38.7382 14.9418 38.123 18.6498Z" fill="#F58B00"/>
<path d="M94.3293 17.7207H28.0337C24.275 17.7207 21.228 20.7677 21.228 24.5264V119.244C21.228 123.003 24.275 126.05 28.0337 126.05H94.3293C98.088 126.05 101.135 123.003 101.135 119.244V24.5264C101.135 20.7677 98.088 17.7207 94.3293 17.7207Z" fill="white"/>
<path fill-rule="evenodd" clip-rule="evenodd" d="M28.0337 18.7207C24.8273 18.7207 22.228 21.32 22.228 24.5264V119.244C22.228 122.451 24.8273 125.05 28.0337 125.05H94.3293C97.5357 125.05 100.135 122.451 100.135 119.244V24.5264C100.135 21.32 97.5357 18.7207 94.3293 18.7207H28.0337ZM20.228 24.5264C20.228 20.2154 23.7227 16.7207 28.0337 16.7207H94.3293C98.6403 16.7207 102.135 20.2154 102.135 24.5264V119.244C102.135 123.555 98.6403 127.05 94.3293 127.05H28.0337C23.7227 127.05 20.228 123.555 20.228 119.244V24.5264Z" fill="#00144A"/>
<path d="M143.101 23.6594C142.938 23.4665 142.727 23.3211 142.489 23.2388C142.251 23.1564 141.995 23.14 141.748 23.1915L135.844 24.2123C135.641 24.2477 135.448 24.3238 135.275 24.436C135.103 24.5482 134.955 24.6941 134.841 24.865C134.726 25.036 134.647 25.2283 134.609 25.4305C134.571 25.6327 134.575 25.8405 134.619 26.0414C134.66 26.3568 134.802 26.6503 135.025 26.8775C135.247 27.1047 135.538 27.2531 135.852 27.3004C136.005 27.3212 136.159 27.3212 136.312 27.3004L142.216 26.2796C142.477 26.2398 142.722 26.1303 142.926 25.9625C143.129 25.7948 143.284 25.5751 143.373 25.3268C143.477 25.0492 143.506 24.7494 143.458 24.4569C143.41 24.1645 143.287 23.8895 143.101 23.6594Z" fill="#5B738B"/>
<path d="M120.693 0.0774943C120.52 0.0150259 120.337 -0.0101385 120.154 0.00368568C119.972 0.0175099 119.794 0.0700019 119.633 0.157677C119.472 0.245351 119.332 0.36621 119.221 0.512246C119.11 0.658282 119.032 0.826164 118.991 1.00476L117.358 6.61092C117.3 6.81258 117.283 7.02377 117.308 7.23208C117.333 7.44038 117.399 7.6416 117.503 7.8239C117.607 8.00619 117.746 8.16588 117.913 8.29359C118.079 8.4213 118.269 8.51446 118.472 8.56756C118.556 8.59274 118.641 8.60983 118.728 8.6186C119.044 8.66289 119.365 8.58698 119.628 8.40585C119.891 8.22472 120.077 7.95154 120.148 7.64027L121.773 2.04263C121.833 1.84267 121.852 1.63283 121.83 1.42531C121.808 1.2178 121.745 1.01677 121.644 0.833897C121.544 0.651024 121.408 0.489969 121.244 0.360112C121.081 0.230254 120.894 0.134188 120.693 0.0774943Z" fill="#5B738B"/>
<path d="M135.155 7.66583C134.958 7.65622 134.761 7.68588 134.575 7.75306C134.39 7.82024 134.22 7.92362 134.075 8.05717L127.541 14.0121C127.25 14.2818 127.074 14.6536 127.05 15.0499C127.026 15.4461 127.157 15.8363 127.414 16.1389C127.65 16.4195 127.985 16.599 128.349 16.6408C128.559 16.6663 128.772 16.646 128.973 16.5814C129.174 16.5168 129.359 16.4093 129.515 16.2665L136.048 10.3115C136.343 10.0441 136.522 9.67267 136.547 9.27573C136.572 8.87879 136.442 8.48752 136.184 8.18477C136.057 8.03346 135.899 7.90949 135.723 7.82032C135.546 7.73116 135.353 7.6786 135.155 7.66583Z" fill="#5B738B"/>
<path d="M61.5516 52.7451C57.7659 52.7451 54.0652 53.8677 50.9175 55.9709C47.7697 58.0742 45.3164 61.0636 43.8677 64.5611C42.4189 68.0587 42.0399 71.9073 42.7784 75.6202C43.517 79.3332 45.34 82.7438 48.0169 85.4207C50.6938 88.0976 54.1044 89.9206 57.8174 90.6592C61.5303 91.3977 65.3789 91.0187 68.8765 89.5699C72.374 88.1212 75.3634 85.6679 77.4667 82.5202C79.5699 79.3725 80.6925 75.6718 80.6925 71.886C80.679 66.8137 78.6581 61.9529 75.0714 58.3662C71.4847 54.7795 66.6239 52.7586 61.5516 52.7451ZM68.6294 76.2927C68.8197 76.4653 68.9728 76.6748 69.0797 76.9083C69.1865 77.1419 69.2448 77.3948 69.251 77.6516C69.2573 77.9084 69.2113 78.1637 69.1159 78.4022C69.0204 78.6407 68.8776 78.8573 68.696 79.0389C68.5143 79.2206 68.2977 79.3634 68.0592 79.4588C67.8207 79.5542 67.5654 79.6002 67.3086 79.594C67.0518 79.5878 66.799 79.5295 66.5654 79.4226C66.3318 79.3158 66.1223 79.1626 65.9497 78.9724L61.5516 74.5913L57.1449 78.9895C56.7841 79.3169 56.3112 79.493 55.8241 79.4812C55.337 79.4694 54.8731 79.2706 54.5285 78.9261C54.184 78.5815 53.9852 78.1177 53.9734 77.6306C53.9616 77.1435 54.1377 76.6705 54.4652 76.3097L58.8718 71.9116L54.4652 67.5049C54.1377 67.1441 53.9616 66.6711 53.9734 66.184C53.9852 65.6969 54.184 65.2331 54.5285 64.8885C54.8731 64.544 55.337 64.3452 55.8241 64.3334C56.3112 64.3216 56.7841 64.4977 57.1449 64.8251L61.5516 69.2318L65.9497 64.8251C66.1223 64.6349 66.3318 64.4818 66.5654 64.3749C66.799 64.2681 67.0518 64.2098 67.3086 64.2036C67.5654 64.1974 67.8207 64.2433 68.0592 64.3388C68.2977 64.4342 68.5143 64.577 68.696 64.7587C68.8776 64.9403 69.0204 65.1569 69.1159 65.3954C69.2113 65.6339 69.2573 65.8892 69.251 66.146C69.2448 66.4028 69.1865 66.6556 69.0797 66.8892C68.9728 67.1228 68.8197 67.3323 68.6294 67.5049L64.2313 71.9116L68.6294 76.2927Z" fill="#F31DED"/>
<path d="M69.2639 160.018C98.1284 160.018 121.528 158.6 121.528 156.852C121.528 155.103 98.1284 153.686 69.2639 153.686C40.3993 153.686 17 155.103 17 156.852C17 158.6 40.3993 160.018 69.2639 160.018Z" fill="#D5DADD"/>
</svg>
