<svg width="321" height="240" viewBox="0 0 321 240" fill="none" xmlns="http://www.w3.org/2000/svg">
<path d="M305.711 20.0059H14.6174C12.72 20.0041 10.8408 20.3763 9.08735 21.1012C7.33387 21.8261 5.74044 22.8895 4.39815 24.2305C3.05586 25.5716 1.99103 27.164 1.26452 28.9168C0.538005 30.6696 0.164062 32.5485 0.164063 34.4459V205.553C0.164063 209.386 1.68681 213.062 4.39734 215.773C7.10786 218.483 10.7841 220.006 14.6174 220.006H305.711C309.544 220.006 313.22 218.483 315.931 215.773C318.641 213.062 320.164 209.386 320.164 205.553V34.4459C320.164 32.5485 319.79 30.6696 319.064 28.9168C318.337 27.164 317.272 25.5716 315.93 24.2305C314.588 22.8895 312.994 21.8261 311.241 21.1012C309.487 20.3763 307.608 20.0041 305.711 20.0059Z" fill="#223548"/>
<path d="M148.311 111.992C148.562 110.229 148.682 108.413 148.682 106.584C148.682 85.072 131.239 67.6289 109.726 67.6289C94.1522 67.6289 80.7252 76.7614 74.4823 89.963C70.7047 88.2134 66.4897 87.2193 62.0494 87.2193C47.3765 87.2193 35.2088 97.9158 32.9157 111.939C21.7686 112.549 12.9277 121.787 12.9277 133.08C12.9277 144.771 22.4048 154.248 34.0954 154.248H146.375C158.066 154.248 167.543 144.771 167.543 133.08C167.543 122.039 159.087 112.96 148.297 111.992H148.311Z" fill="#2A4259"/>
<path d="M284.383 92.2734C284.635 90.5106 284.754 88.6947 284.754 86.8656C284.754 65.3533 267.311 47.9102 245.799 47.9102C230.224 47.9102 216.798 57.0426 210.555 70.2442C206.777 68.4946 202.562 67.5005 198.122 67.5005C183.449 67.5005 171.281 78.197 168.988 92.2204C157.841 92.8301 149 102.069 149 113.362C149 125.052 158.477 134.529 170.168 134.529H282.448C294.138 134.529 303.615 125.052 303.615 113.362C303.615 102.32 295.159 93.241 284.37 92.2734H284.383Z" fill="#2A4259"/>
<path d="M294.975 82.2069L255.851 56.4245C254.192 55.3314 251.962 55.797 250.87 57.4643L213.381 114.682C212.288 116.35 212.747 118.587 214.406 119.68L253.53 145.463C255.189 146.556 257.419 146.09 258.512 144.423L296.001 87.2052C297.093 85.5378 296.634 83.3001 294.975 82.2069Z" fill="#3B5B7C"/>
<path d="M293.278 79.7734L254.154 53.991C252.495 52.8978 250.265 53.3634 249.172 55.0307L211.683 112.249C210.591 113.916 211.05 116.154 212.709 117.247L251.833 143.029C253.492 144.122 255.722 143.657 256.815 141.989L294.304 84.7716C295.396 83.1043 294.937 80.8665 293.278 79.7734Z" fill="#324E6B"/>
<path d="M267.263 74.241C265.992 73.3093 264.473 72.7774 262.899 72.7126C261.325 72.6477 259.766 73.0528 258.42 73.8767C257.074 74.7005 256 75.9061 255.335 77.341C254.67 78.7759 254.443 80.3757 254.683 81.9381C254.923 83.5005 255.62 84.9553 256.685 86.1186C257.749 87.282 259.134 88.1016 260.665 88.4738C262.195 88.8461 263.802 88.7542 265.282 88.2099C266.763 87.6656 268.05 86.6933 268.981 85.4159L262.55 80.705L267.263 74.241Z" fill="#223548"/>
<path d="M269.829 73.767L265.124 80.2261L271.549 84.9353C272.167 84.0872 272.613 83.1256 272.862 82.1052C273.11 81.0848 273.155 80.0257 272.996 78.9885C272.836 77.9513 272.474 76.9562 271.931 76.0603C271.387 75.1644 270.673 74.3851 269.829 73.767Z" fill="#3B5B7C"/>
<path d="M269.168 101.022L241.904 83.0558C241 82.4598 239.784 82.7136 239.188 83.6228C238.592 84.5319 238.843 85.7521 239.747 86.3482L267.011 104.314C267.915 104.91 269.131 104.657 269.727 103.747C270.323 102.838 270.072 101.618 269.168 101.022Z" fill="#223548"/>
<path d="M265.014 106.46L237.751 88.4933C236.847 87.8973 235.63 88.1511 235.035 89.0603C234.439 89.9694 234.689 91.1897 235.594 91.7857L262.857 109.752C263.762 110.348 264.978 110.094 265.574 109.185C266.169 108.276 265.919 107.056 265.014 106.46Z" fill="#223548"/>
<path d="M248.286 103.43L233.762 93.8585C232.857 93.2625 231.641 93.5163 231.045 94.4255C230.45 95.3347 230.7 96.5548 231.605 97.1509L246.129 106.722C247.033 107.318 248.25 107.064 248.845 106.155C249.441 105.246 249.191 104.026 248.286 103.43Z" fill="#223548"/>
<path d="M190.881 55.1931C191.366 54.0164 192.713 53.4556 193.889 53.9405L230.926 69.2032C232.103 69.6881 232.663 71.0351 232.179 72.2118L216.916 109.248C216.431 110.425 215.084 110.986 213.907 110.501L176.871 95.2383C175.694 94.7534 175.133 93.4064 175.618 92.2297L190.881 55.1931Z" fill="#324E6B"/>
<path d="M188.685 51.5017C189.17 50.325 190.517 49.7642 191.694 50.2491L228.731 65.5118C229.907 65.9967 230.468 67.3437 229.983 68.5204L214.721 105.557C214.236 106.734 212.889 107.295 211.712 106.81L174.675 91.5469C173.499 91.062 172.938 89.715 173.423 88.5383L188.685 51.5017Z" fill="#2A4259"/>
<path d="M190.72 60.0904C191.447 58.3254 193.468 57.4842 195.233 58.2116L219.815 68.3415C221.58 69.0689 222.421 71.0894 221.693 72.8545L212.873 94.2593C212.145 96.0243 210.125 96.8655 208.36 96.1381L183.778 86.0081C182.013 85.2808 181.172 83.2603 181.899 81.4952L190.72 60.0904Z" fill="#EBF8FF"/>
<path d="M209.411 78.7596C212.043 79.8441 215.055 78.5899 216.14 75.9582C217.224 73.3265 215.97 70.3139 213.338 69.2293C210.707 68.1448 207.694 69.399 206.61 72.0308C205.525 74.6625 206.779 77.6751 209.411 78.7596Z" fill="#324E6B"/>
<path d="M197.342 86.1093C198.763 85.7969 200.204 85.559 201.66 85.3966L201.135 84.0588C197.583 74.9275 196.844 71.4632 192.844 67.4387C191.687 66.2159 190.432 65.0796 189.092 64.041L181.479 82.514C181.361 82.7997 181.305 83.1075 181.313 83.4197C181.321 83.7319 181.394 84.0425 181.527 84.3337C181.66 84.6248 181.851 84.8909 182.088 85.1166C182.326 85.3424 182.605 85.5235 182.911 85.6495L190.284 88.6877C192.464 87.4785 194.846 86.6087 197.342 86.1093Z" fill="#324E6B"/>
<path d="M205.57 85.8438C204.332 84.9227 202.8 84.7926 201 85.0083C199.614 85.2107 198.239 85.4886 196.882 85.8406C194.499 86.4094 192.215 87.3469 190.112 88.6196L209.172 96.4744C206.835 91.3062 208.192 87.796 205.57 85.8438Z" fill="#3B5B7C"/>
<path d="M96.0744 60.1282C95.6919 59.092 96.2219 57.9419 97.2581 57.5593L134.778 43.709C135.792 43.3348 136.919 43.8332 137.325 44.8346L161.458 104.441C161.882 105.488 161.356 106.677 160.297 107.068L120.902 121.611C119.866 121.993 118.716 121.463 118.333 120.427L96.0744 60.1282Z" fill="#3B5B7C"/>
<path d="M136.933 55.7108L56.1611 85.5273L76.934 136.307C77.0319 136.55 77.2205 136.746 77.4592 136.852C77.698 136.958 77.9679 136.966 78.2112 136.874L157.117 107.746C157.244 107.7 157.359 107.628 157.457 107.535C157.555 107.443 157.633 107.331 157.687 107.207C157.741 107.083 157.769 106.949 157.771 106.813C157.772 106.677 157.746 106.543 157.694 106.417L136.933 55.7108ZM68.1948 87.8697C68.1253 87.7042 68.0899 87.5264 68.0908 87.3472C68.0916 87.1679 68.1286 86.9909 68.1995 86.8269C68.2705 86.663 68.3738 86.5154 68.5034 86.3933C68.633 86.2712 68.7861 86.177 68.9533 86.1165L92.7495 77.3323C93.0901 77.2065 93.4673 77.2225 93.7979 77.3767C94.1285 77.531 94.3856 77.8108 94.5126 78.1546C94.582 78.3201 94.6174 78.4979 94.6166 78.6772C94.6157 78.8564 94.5787 79.0334 94.5078 79.1974C94.4368 79.3614 94.3334 79.5089 94.2038 79.6311C94.0742 79.7532 93.9213 79.8474 93.7541 79.9078L69.9577 88.6921C69.6171 88.8179 69.24 88.8018 68.9094 88.6476C68.5788 88.4934 68.3217 88.2136 68.1948 87.8697ZM145.411 105.749L84.9736 128.059C84.7285 128.151 84.4567 128.143 84.2162 128.036C83.9757 127.929 83.7858 127.732 83.6872 127.487L69.9563 93.9109C69.9045 93.7846 69.8785 93.6492 69.88 93.5129C69.8814 93.3766 69.9104 93.2421 69.9649 93.1176C70.0194 92.9932 70.0985 92.8813 70.1973 92.7887C70.2962 92.6961 70.4127 92.6248 70.5399 92.5789L130.991 70.2639C131.234 70.172 131.504 70.1799 131.743 70.286C131.981 70.3921 132.17 70.5879 132.268 70.8314L146.001 104.414C146.049 104.54 146.071 104.674 146.066 104.809C146.062 104.943 146.031 105.075 145.975 105.197C145.919 105.318 145.839 105.428 145.741 105.518C145.642 105.608 145.526 105.677 145.401 105.721L145.411 105.749Z" fill="#324E6B"/>
<path d="M56.1615 85.5278L137.116 55.6439L132.867 45.2563C132.767 45.0121 132.577 44.816 132.337 44.7093C132.097 44.6026 131.826 44.5937 131.58 44.6844L114.97 50.8159L116.524 54.6078C116.855 54.7133 117.159 54.8902 117.416 55.1262C117.673 55.3621 117.876 55.6515 118.011 55.9739C118.126 56.2459 118.185 56.5383 118.185 56.8333C118.184 57.1283 118.125 57.4198 118.009 57.6902C117.893 57.9605 117.724 58.204 117.512 58.406C117.3 58.608 117.049 58.7642 116.774 58.8652C116.209 59.0601 115.59 59.0282 115.045 58.7761C114.5 58.524 114.071 58.0711 113.847 57.5111C113.718 57.2038 113.661 56.8714 113.68 56.5394C113.698 56.2073 113.792 55.8843 113.954 55.5952L112.388 51.7692L70.0886 67.3837L71.6496 71.1961C71.9771 71.3017 72.2782 71.4779 72.5319 71.7123C72.7856 71.9468 72.9859 72.2338 73.1185 72.5535C73.2324 72.8227 73.2914 73.1119 73.2923 73.4039C73.2931 73.6959 73.2358 73.9847 73.1236 74.2532C73.0113 74.5217 72.8465 74.7645 72.639 74.967C72.4314 75.1696 72.1852 75.3279 71.9152 75.4324C71.3501 75.6254 70.7319 75.5926 70.1874 75.3407C69.643 75.0889 69.2137 74.6371 68.9879 74.0783C68.8561 73.7671 68.7978 73.4297 68.8174 73.0928C68.837 72.7559 68.9341 72.4287 69.1009 72.1369L67.5399 68.3245L52.4442 73.897C52.3179 73.9436 52.2023 74.0153 52.1045 74.108C52.0066 74.2007 51.9283 74.3125 51.8745 74.4366C51.8206 74.5607 51.7922 74.6946 51.7909 74.8304C51.7897 74.9661 51.8157 75.1008 51.8673 75.2266L53.214 78.521L56.0872 85.5553L56.1615 85.5278Z" fill="#2A4259"/>
<path d="M71.4828 74.1802L71.4085 74.2076C71.0764 74.3284 70.7101 74.315 70.3861 74.1702C70.062 74.0254 69.8054 73.7603 69.6698 73.4305L69.1337 72.1242C68.9669 72.416 68.8698 72.7432 68.8502 73.0801C68.8306 73.417 68.889 73.7543 69.0208 74.0655C69.2465 74.6243 69.6757 75.0761 70.2202 75.328C70.7646 75.5799 71.383 75.6126 71.948 75.4196C72.2181 75.3151 72.4642 75.1568 72.6717 74.9543C72.8793 74.7517 73.0441 74.509 73.1563 74.2405C73.2686 73.972 73.326 73.6831 73.3251 73.3911C73.3243 73.0992 73.2651 72.81 73.1513 72.5408C73.0186 72.2211 72.8185 71.934 72.5647 71.6996C72.311 71.4651 72.0099 71.289 71.6824 71.1834L72.2184 72.4897C72.2847 72.6496 72.3182 72.8212 72.3168 72.9941C72.3155 73.167 72.2794 73.3376 72.2106 73.4956C72.1419 73.6536 72.0419 73.7958 71.9168 73.9135C71.7917 74.0311 71.6441 74.1218 71.4828 74.1802Z" fill="#3B5B7C"/>
<path d="M116.315 57.561L116.241 57.5884C115.91 57.7052 115.546 57.6907 115.224 57.5476C114.901 57.4046 114.644 57.1438 114.505 56.8181L114.005 55.5912C113.844 55.8802 113.75 56.2032 113.731 56.5353C113.713 56.8673 113.77 57.1998 113.898 57.5071C114.123 58.067 114.552 58.52 115.097 58.772C115.642 59.0241 116.261 59.056 116.826 58.8611C117.1 58.7601 117.351 58.6039 117.564 58.4019C117.776 58.1999 117.945 57.9564 118.061 57.686C118.176 57.4157 118.236 57.1242 118.237 56.8292C118.237 56.5342 118.178 56.2418 118.063 55.9698C117.928 55.6474 117.725 55.3581 117.468 55.1221C117.211 54.8862 116.906 54.7092 116.575 54.6037L117.087 55.8648C117.154 56.0273 117.188 56.2018 117.185 56.3775C117.182 56.5532 117.144 56.7262 117.071 56.8856C116.999 57.0449 116.894 57.1872 116.764 57.3035C116.634 57.4197 116.481 57.5074 116.315 57.561Z" fill="#3B5B7C"/>
<path d="M69.6697 73.4302C69.8053 73.7601 70.062 74.0251 70.386 74.1699C70.71 74.3148 71.0764 74.3282 71.4084 74.2074L71.4827 74.1799C71.644 74.1216 71.7916 74.0308 71.9167 73.9132C72.0418 73.7955 72.1418 73.6534 72.2106 73.4953C72.2793 73.3373 72.3154 73.1667 72.3168 72.9938C72.3181 72.8209 72.2847 72.6493 72.2184 72.4894L71.6823 71.1831L70.1214 67.3707L68.5402 63.5037C68.4046 63.1739 68.148 62.9088 67.8239 62.764C67.4999 62.6192 67.1336 62.6058 66.8016 62.7266L66.761 62.7416C66.5998 62.7999 66.4521 62.8906 66.327 63.0083C66.2019 63.126 66.1019 63.2681 66.0332 63.4261C65.9644 63.5841 65.9283 63.7547 65.927 63.9276C65.9256 64.1005 65.9591 64.2721 66.0254 64.432L67.6066 68.299L69.1675 72.1114L69.6697 73.4302Z" fill="#324E6B"/>
<path d="M114.505 56.8186C114.642 57.1491 114.9 57.4144 115.226 57.5599C115.551 57.7053 115.919 57.7196 116.253 57.6L116.327 57.5726C116.489 57.5142 116.636 57.4232 116.761 57.305C116.886 57.1868 116.986 57.0439 117.054 56.8852C117.122 56.7265 117.157 56.5553 117.157 56.382C117.157 56.2088 117.122 56.0372 117.053 55.8778L116.542 54.6167L114.988 50.8248L113.382 46.8895C113.244 46.5597 112.986 46.2952 112.661 46.151C112.336 46.0067 111.969 45.9938 111.637 46.1149L111.562 46.1424C111.401 46.2006 111.254 46.2912 111.129 46.4089C111.004 46.5265 110.905 46.6685 110.837 46.8265C110.768 46.9844 110.733 47.1549 110.732 47.3275C110.732 47.5 110.766 47.6711 110.833 47.8304L112.44 51.7656L114.006 55.5916L114.505 56.8186Z" fill="#324E6B"/>
<path d="M131.499 70.2704C130.959 70.3088 130.428 70.4289 129.925 70.6266L71.5632 92.1704C71.044 92.3503 70.5575 92.6137 70.1227 92.9503C69.9044 93.1705 70.1324 94.3501 70.3643 94.9158L83.2568 126.429C83.4554 126.937 83.7272 127.415 84.0637 127.844C84.2786 128.052 85.429 127.86 85.9969 127.65L144.359 106.106C144.878 105.925 145.363 105.659 145.797 105.32C146.015 105.099 145.789 103.927 145.555 103.354L132.657 71.8277C132.437 71.2731 131.771 70.3016 131.499 70.2704ZM111.874 87.8583C111.596 87.959 111.29 87.9476 111.019 87.8265C110.749 87.7055 110.534 87.4841 110.42 87.2085L109.8 85.6931C109.744 85.5594 109.716 85.4159 109.717 85.2713C109.718 85.1267 109.748 84.984 109.806 84.8518C109.863 84.7197 109.947 84.6008 110.052 84.5025C110.156 84.4041 110.28 84.3284 110.415 84.2797L112.443 83.5311C112.721 83.43 113.028 83.4409 113.3 83.5614C113.572 83.6819 113.788 83.9028 113.903 84.1783L114.524 85.6937C114.579 85.8275 114.606 85.9708 114.604 86.1151C114.603 86.2594 114.572 86.4018 114.515 86.5337C114.458 86.6656 114.374 86.7843 114.27 86.8828C114.166 86.9813 114.043 87.0576 113.909 87.1071L111.874 87.8583ZM115.447 90.5868C115.725 90.488 116.03 90.5002 116.3 90.621C116.571 90.7419 116.785 90.9622 116.9 91.2366L117.521 92.752C117.576 92.8858 117.603 93.0291 117.602 93.1734C117.6 93.3177 117.57 93.46 117.512 93.5919C117.455 93.7238 117.372 93.8425 117.267 93.9411C117.163 94.0396 117.04 94.1158 116.906 94.1653L114.878 94.914C114.6 95.0128 114.295 95.0006 114.025 94.8798C113.754 94.7589 113.539 94.5387 113.424 94.2643L112.804 92.7488C112.749 92.6151 112.722 92.4718 112.723 92.3275C112.725 92.1832 112.755 92.0408 112.813 91.9089C112.87 91.777 112.953 91.6583 113.057 91.5597C113.162 91.4612 113.284 91.385 113.419 91.3355L115.447 90.5868ZM115.68 99.5416C115.624 99.408 115.596 99.2644 115.597 99.1198C115.598 98.9752 115.628 98.8325 115.686 98.7004C115.743 98.5682 115.827 98.4493 115.932 98.351C116.036 98.2527 116.16 98.1769 116.295 98.1283L118.323 97.3796C118.601 97.2807 118.906 97.293 119.177 97.4138C119.447 97.5347 119.662 97.7549 119.777 98.0293L120.397 99.5447C120.452 99.6785 120.479 99.8219 120.478 99.9662C120.476 100.11 120.446 100.253 120.388 100.385C120.331 100.517 120.248 100.635 120.144 100.734C120.04 100.832 119.917 100.909 119.782 100.958L117.754 101.707C117.477 101.806 117.171 101.793 116.901 101.673C116.63 101.552 116.416 101.331 116.301 101.057L115.68 99.5416ZM103.704 90.781C103.426 90.882 103.119 90.8712 102.847 90.7507C102.576 90.6302 102.36 90.4093 102.244 90.1337L101.623 88.6183C101.567 88.4843 101.539 88.3405 101.54 88.1956C101.541 88.0506 101.571 87.9075 101.628 87.7748C101.685 87.6422 101.769 87.5227 101.873 87.4236C101.977 87.3245 102.101 87.2478 102.236 87.1981L104.264 86.4494C104.543 86.3499 104.851 86.3623 105.123 86.484C105.395 86.6056 105.611 86.8273 105.727 87.1035L106.341 88.6215C106.396 88.7546 106.424 88.8974 106.424 89.0414C106.423 89.1854 106.393 89.3276 106.336 89.4594C106.279 89.5912 106.197 89.7099 106.093 89.8083C105.989 89.9068 105.866 89.983 105.732 90.0323L103.704 90.781ZM107.229 93.504C107.507 93.403 107.814 93.4139 108.086 93.5344C108.358 93.6548 108.574 93.8758 108.689 94.1513L109.31 95.6667C109.366 95.8007 109.394 95.9445 109.393 96.0895C109.393 96.2344 109.363 96.3775 109.305 96.5102C109.248 96.6428 109.165 96.7623 109.06 96.8614C108.956 96.9605 108.833 97.0373 108.698 97.0869L106.67 97.8356C106.39 97.9351 106.083 97.9227 105.811 97.8011C105.539 97.6794 105.322 97.4577 105.207 97.1815L104.593 95.6636C104.537 95.5305 104.509 95.3876 104.51 95.2436C104.511 95.0996 104.54 94.9575 104.597 94.8257C104.654 94.6939 104.737 94.5752 104.841 94.4767C104.944 94.3782 105.067 94.302 105.201 94.2527L107.229 93.504ZM107.462 102.459C107.407 102.326 107.379 102.183 107.379 102.039C107.38 101.895 107.41 101.753 107.467 101.621C107.524 101.489 107.606 101.37 107.71 101.272C107.814 101.174 107.936 101.097 108.07 101.048L110.099 100.299C110.377 100.2 110.683 100.212 110.954 100.332C111.226 100.452 111.442 100.672 111.559 100.947L112.18 102.462C112.235 102.596 112.263 102.739 112.262 102.884C112.261 103.028 112.231 103.171 112.174 103.303C112.116 103.435 112.032 103.554 111.928 103.653C111.823 103.751 111.7 103.827 111.565 103.875L109.537 104.624C109.258 104.725 108.951 104.714 108.68 104.594C108.408 104.473 108.192 104.252 108.076 103.977L107.462 102.459ZM95.6884 93.7245C95.41 93.8237 95.1039 93.812 94.8325 93.6917C94.5612 93.5714 94.345 93.3516 94.2281 93.0773L93.614 91.5594C93.5575 91.426 93.5284 91.2827 93.5285 91.1381C93.5286 90.9934 93.5578 90.8505 93.6145 90.7179C93.6711 90.5853 93.754 90.4659 93.8581 90.3669C93.9621 90.2678 94.0851 90.1912 94.2198 90.1417L96.2479 89.393C96.5273 89.2917 96.8354 89.3031 97.108 89.425C97.3805 89.5468 97.5965 89.7697 97.7107 90.0471L98.3316 91.5625C98.3861 91.6963 98.4134 91.8396 98.4118 91.9839C98.4103 92.1282 98.3799 92.2706 98.3225 92.4025C98.2651 92.5343 98.1819 92.6531 98.0778 92.7516C97.9736 92.8501 97.8508 92.9264 97.7165 92.9759L95.6884 93.7245ZM99.2131 96.4476C99.4914 96.3465 99.7981 96.3574 100.07 96.4779C100.342 96.5984 100.558 96.8193 100.673 97.0948L101.294 98.6103C101.35 98.7443 101.378 98.8881 101.377 99.033C101.377 99.178 101.347 99.3211 101.289 99.4537C101.232 99.5864 101.149 99.7059 101.044 99.805C100.94 99.9041 100.817 99.9808 100.682 100.03L98.6535 100.779C98.3747 100.878 98.068 100.865 97.7969 100.743C97.5259 100.621 97.3113 100.399 97.1975 100.123L96.5766 98.6071C96.521 98.4735 96.4929 98.33 96.494 98.1854C96.495 98.0408 96.5252 97.898 96.5827 97.7659C96.6402 97.6337 96.7239 97.5149 96.8286 97.4165C96.9332 97.3182 97.0569 97.2424 97.1918 97.1937L99.2131 96.4476ZM99.4461 105.402C99.3906 105.269 99.3624 105.125 99.3634 104.981C99.3645 104.836 99.3947 104.693 99.4522 104.561C99.5097 104.429 99.5934 104.31 99.6981 104.212C99.8028 104.113 99.9263 104.038 100.061 103.989L102.089 103.24C102.368 103.139 102.674 103.15 102.946 103.271C103.218 103.391 103.434 103.612 103.55 103.888L104.17 105.403C104.226 105.537 104.254 105.68 104.253 105.825C104.252 105.969 104.222 106.112 104.164 106.244C104.107 106.376 104.023 106.495 103.919 106.594C103.814 106.692 103.69 106.768 103.555 106.816L101.527 107.565C101.25 107.666 100.944 107.654 100.673 107.533C100.402 107.412 100.187 107.191 100.074 106.915L99.4461 105.402ZM87.5702 96.6825C87.292 96.7836 86.9851 96.7727 86.7133 96.6522C86.4415 96.5317 86.2254 96.3109 86.1098 96.0353L85.489 94.5199C85.4345 94.3861 85.4072 94.2428 85.4087 94.0985C85.4103 93.9542 85.4406 93.8118 85.498 93.68C85.5554 93.5481 85.6387 93.4293 85.7428 93.3308C85.8469 93.2323 85.9698 93.156 86.1041 93.1065L88.1322 92.3579C88.4098 92.2572 88.716 92.2685 88.9868 92.3896C89.2576 92.5106 89.4722 92.732 89.5858 93.0076L90.2066 94.523C90.2622 94.6567 90.2903 94.8002 90.2893 94.9448C90.2882 95.0894 90.258 95.2321 90.2005 95.3643C90.143 95.4964 90.0594 95.6153 89.9547 95.7136C89.85 95.812 89.7264 95.8878 89.5915 95.9364L87.5702 96.6825ZM91.0949 99.4056C91.3744 99.3061 91.6818 99.3184 91.9538 99.4401C92.2259 99.5617 92.442 99.7835 92.5577 100.06L93.1786 101.575C93.2331 101.709 93.2605 101.852 93.2589 101.996C93.2574 102.141 93.2269 102.283 93.1695 102.415C93.1121 102.547 93.0289 102.666 92.9247 102.764C92.8206 102.863 92.6978 102.939 92.5634 102.988L90.5354 103.737C90.257 103.836 89.951 103.825 89.6796 103.704C89.4082 103.584 89.192 103.364 89.0751 103.09L88.4542 101.574C88.3985 101.44 88.3702 101.297 88.3711 101.152C88.3719 101.007 88.4019 100.864 88.4591 100.731C88.5163 100.598 88.5996 100.479 88.704 100.38C88.8085 100.281 88.9319 100.204 89.0668 100.154L91.0949 99.4056ZM91.328 108.36C91.2734 108.227 91.2461 108.083 91.2476 107.939C91.2492 107.795 91.2795 107.652 91.3369 107.521C91.3943 107.389 91.4776 107.27 91.5817 107.171C91.6858 107.073 91.8088 106.997 91.9431 106.947L93.9712 106.198C94.2495 106.099 94.5555 106.111 94.8269 106.231C95.0983 106.351 95.3145 106.571 95.4314 106.846L96.0522 108.361C96.1079 108.495 96.1362 108.639 96.1354 108.784C96.1345 108.929 96.1046 109.072 96.0474 109.205C95.9902 109.337 95.9068 109.457 95.8024 109.556C95.6979 109.655 95.5746 109.732 95.4397 109.781L93.4116 110.53C93.1321 110.629 92.8247 110.617 92.5527 110.495C92.2806 110.374 92.0645 110.152 91.9488 109.876L91.328 108.36ZM79.6015 99.6086C79.3231 99.7078 79.0171 99.6961 78.7457 99.5758C78.4744 99.4555 78.2581 99.2358 78.1412 98.9614L77.5271 97.4435C77.4717 97.3104 77.4436 97.1675 77.4444 97.0235C77.4452 96.8795 77.475 96.7373 77.5318 96.6055C77.5886 96.4738 77.6714 96.3551 77.7751 96.2566C77.8789 96.1581 78.0015 96.0819 78.1355 96.0326L80.1636 95.2839C80.4419 95.1847 80.748 95.1965 81.0194 95.3168C81.2907 95.437 81.5069 95.6568 81.6239 95.9312L82.2447 97.4466C82.2992 97.5804 82.3266 97.7237 82.325 97.868C82.3235 98.0123 82.2931 98.1547 82.2357 98.2866C82.1783 98.4184 82.095 98.5372 81.9909 98.6357C81.8868 98.7342 81.7639 98.8105 81.6296 98.86L79.6015 99.6086ZM83.1262 102.332C83.4056 102.23 83.7137 102.242 83.9863 102.364C84.2588 102.486 84.4748 102.708 84.589 102.986L85.2099 104.501C85.2644 104.635 85.2918 104.778 85.2902 104.923C85.2887 105.067 85.2582 105.209 85.2008 105.341C85.1434 105.473 85.0603 105.592 84.9561 105.69C84.852 105.789 84.7291 105.865 84.5947 105.915L82.5667 106.663C82.289 106.762 81.9836 106.75 81.7133 106.629C81.4429 106.508 81.2282 106.288 81.1132 106.013L80.4923 104.498C80.4356 104.364 80.4064 104.22 80.4068 104.075C80.4071 103.93 80.4368 103.786 80.4941 103.653C80.5515 103.52 80.6352 103.401 80.7402 103.302C80.8452 103.203 80.9694 103.127 81.1049 103.078L83.1262 102.332ZM83.3593 111.287C83.3037 111.153 83.2756 111.009 83.2766 110.865C83.2777 110.72 83.3079 110.577 83.3654 110.445C83.4229 110.313 83.5065 110.194 83.6112 110.096C83.7159 109.998 83.8394 109.922 83.9744 109.873L86.0025 109.124C86.2807 109.023 86.5875 109.034 86.8594 109.155C87.1312 109.275 87.3472 109.496 87.4627 109.772L88.0836 111.287C88.1393 111.421 88.1676 111.565 88.1668 111.71C88.1659 111.855 88.136 111.998 88.0787 112.131C88.0215 112.263 87.9382 112.383 87.8338 112.482C87.7293 112.581 87.6059 112.658 87.471 112.707L85.4429 113.456C85.164 113.555 84.8573 113.542 84.5863 113.42C84.3152 113.298 84.1006 113.076 83.9869 112.799L83.3593 111.287ZM126.3 94.4349C126.578 94.3338 126.885 94.3447 127.157 94.4652C127.429 94.5857 127.645 94.8066 127.761 95.0821L128.381 96.5975C128.436 96.7313 128.463 96.8746 128.462 97.0189C128.46 97.1632 128.43 97.3056 128.372 97.4375C128.315 97.5694 128.232 97.6881 128.128 97.7866C128.023 97.8851 127.901 97.9614 127.766 98.0109L125.738 98.7596C125.46 98.8588 125.154 98.847 124.882 98.7267C124.611 98.6065 124.395 98.3867 124.278 98.1123L123.664 96.5944C123.608 96.4613 123.58 96.3185 123.581 96.1745C123.582 96.0305 123.612 95.8883 123.668 95.7565C123.725 95.6247 123.808 95.506 123.912 95.4075C124.016 95.3091 124.138 95.2329 124.272 95.1835L126.3 94.4349ZM122.855 91.9693C122.578 92.07 122.271 92.0586 122.001 91.9376C121.73 91.8165 121.515 91.5951 121.402 91.3195L120.781 89.8041C120.725 89.6705 120.697 89.527 120.698 89.3824C120.699 89.2377 120.729 89.095 120.787 88.9629C120.844 88.8307 120.928 88.7119 121.033 88.6135C121.137 88.5152 121.261 88.4394 121.396 88.3907L123.424 87.6421C123.702 87.5411 124.009 87.5519 124.281 87.6724C124.553 87.7929 124.769 88.0138 124.884 88.2893L125.505 89.8048C125.56 89.9386 125.587 90.0818 125.585 90.2262C125.584 90.3705 125.553 90.5128 125.496 90.6447C125.439 90.7766 125.355 90.8953 125.251 90.9939C125.147 91.0924 125.024 91.1686 124.89 91.2181L122.855 91.9693ZM120.452 80.59C120.73 80.4908 121.036 80.5026 121.308 80.6228C121.579 80.7431 121.795 80.9629 121.912 81.2372L122.533 82.7527C122.588 82.8865 122.615 83.0298 122.613 83.1741C122.612 83.3184 122.582 83.4607 122.524 83.5926C122.467 83.7245 122.384 83.8433 122.279 83.9418C122.175 84.0403 122.052 84.1166 121.918 84.166L119.89 84.9147C119.612 85.0139 119.306 85.0022 119.034 84.8819C118.763 84.7616 118.547 84.5418 118.43 84.2674L117.809 82.752C117.754 82.6183 117.727 82.4749 117.729 82.3306C117.73 82.1863 117.76 82.044 117.818 81.9121C117.875 81.7802 117.958 81.6615 118.063 81.5629C118.167 81.4644 118.29 81.3882 118.424 81.3387L120.452 80.59ZM88.2971 120.272C88.0194 120.371 87.714 120.359 87.4437 120.238C87.1733 120.117 86.9587 119.897 86.8436 119.623L86.2227 118.107C86.1671 117.974 86.139 117.83 86.1401 117.685C86.1411 117.541 86.1713 117.398 86.2288 117.266C86.2864 117.134 86.37 117.015 86.4747 116.917C86.5794 116.818 86.7029 116.742 86.8378 116.694L88.8659 115.945C89.1442 115.844 89.451 115.855 89.7228 115.976C89.9947 116.096 90.2108 116.317 90.3263 116.592L90.9471 118.108C91.0016 118.242 91.0289 118.385 91.0274 118.529C91.0258 118.674 90.9955 118.816 90.9381 118.948C90.8807 119.08 90.7974 119.198 90.6933 119.297C90.5892 119.395 90.4663 119.472 90.332 119.521L88.2971 120.272ZM96.2945 117.32C96.0162 117.419 95.7102 117.408 95.4388 117.287C95.1674 117.167 94.9512 116.947 94.8343 116.673L94.2135 115.158C94.1589 115.024 94.1316 114.88 94.1331 114.736C94.1347 114.592 94.1651 114.449 94.2225 114.318C94.2799 114.186 94.3631 114.067 94.4672 113.968C94.5713 113.87 94.6942 113.794 94.8286 113.744L96.8567 112.995C97.135 112.896 97.441 112.908 97.7124 113.028C97.9838 113.149 98.2 113.368 98.3169 113.643L98.9377 115.158C98.9923 115.292 99.0197 115.435 99.0181 115.58C99.0166 115.724 98.9861 115.866 98.9287 115.998C98.8713 116.13 98.7882 116.249 98.684 116.347C98.5799 116.446 98.457 116.522 98.3226 116.572L96.2945 117.32ZM104.42 114.36C104.142 114.459 103.836 114.446 103.566 114.325C103.296 114.205 103.081 113.984 102.966 113.71L102.345 112.195C102.29 112.061 102.261 111.917 102.262 111.773C102.263 111.628 102.294 111.485 102.351 111.353C102.409 111.221 102.492 111.102 102.597 111.004C102.702 110.906 102.825 110.83 102.96 110.781L104.988 110.032C105.267 109.931 105.573 109.942 105.845 110.063C106.117 110.183 106.333 110.404 106.449 110.68L107.069 112.195C107.124 112.329 107.151 112.472 107.15 112.617C107.148 112.761 107.118 112.903 107.06 113.035C107.003 113.167 106.92 113.286 106.816 113.384C106.712 113.483 106.589 113.559 106.454 113.609L104.42 114.36ZM112.417 111.407C112.139 111.507 111.833 111.495 111.561 111.375C111.29 111.254 111.074 111.035 110.957 110.76L110.343 109.242C110.287 109.109 110.259 108.966 110.26 108.822C110.261 108.678 110.29 108.536 110.347 108.404C110.404 108.273 110.487 108.154 110.591 108.055C110.694 107.957 110.817 107.881 110.951 107.831L112.979 107.083C113.257 106.984 113.563 106.995 113.835 107.116C114.106 107.236 114.322 107.456 114.439 107.73L115.06 109.245C115.115 109.379 115.142 109.523 115.14 109.667C115.139 109.811 115.109 109.953 115.051 110.085C114.994 110.217 114.911 110.336 114.806 110.435C114.702 110.533 114.579 110.609 114.445 110.659L112.417 111.407ZM120.616 108.482C120.338 108.58 120.033 108.568 119.763 108.447C119.492 108.327 119.278 108.106 119.163 107.832L118.542 106.316C118.487 106.183 118.46 106.039 118.461 105.895C118.463 105.751 118.493 105.608 118.551 105.476C118.608 105.345 118.691 105.226 118.796 105.127C118.9 105.029 119.023 104.953 119.157 104.903L121.185 104.154C121.463 104.056 121.768 104.068 122.038 104.189C122.309 104.309 122.524 104.53 122.639 104.804L123.259 106.32C123.314 106.453 123.341 106.597 123.34 106.741C123.338 106.885 123.308 107.028 123.25 107.16C123.193 107.291 123.11 107.41 123.006 107.509C122.901 107.607 122.779 107.683 122.644 107.733L120.616 108.482ZM125.213 80.0033C125.159 79.8695 125.131 79.7262 125.133 79.5819C125.134 79.4376 125.165 79.2952 125.222 79.1633C125.28 79.0315 125.363 78.9127 125.467 78.8142C125.571 78.7157 125.694 78.6394 125.828 78.5899L127.856 77.8413C128.135 77.7421 128.441 77.7538 128.712 77.8741C128.983 77.9944 129.2 78.2141 129.317 78.4885L129.937 80.0039C129.993 80.1379 130.021 80.2817 130.021 80.4267C130.02 80.5717 129.99 80.7147 129.933 80.8474C129.875 80.9801 129.792 81.0995 129.688 81.1987C129.583 81.2978 129.46 81.3745 129.325 81.4241L127.297 82.1728C127.017 82.2723 126.71 82.2599 126.438 82.1383C126.166 82.0166 125.95 81.7949 125.834 81.5187L125.213 80.0033ZM128.185 87.0554C128.129 86.9217 128.101 86.7782 128.102 86.6336C128.103 86.489 128.134 86.3463 128.191 86.2141C128.249 86.082 128.332 85.9631 128.437 85.8648C128.542 85.7664 128.665 85.6906 128.8 85.642L130.828 84.8933C131.106 84.7923 131.413 84.8032 131.685 84.9237C131.957 85.0442 132.173 85.2651 132.289 85.5406L132.909 87.056C132.964 87.1898 132.991 87.3331 132.99 87.4774C132.988 87.6217 132.958 87.7641 132.9 87.8959C132.843 88.0278 132.76 88.1466 132.656 88.2451C132.551 88.3436 132.429 88.4199 132.294 88.4694L130.266 89.2181C129.988 89.3169 129.683 89.3046 129.413 89.1838C129.142 89.0629 128.928 88.8427 128.813 88.5683L128.185 87.0554ZM133.142 96.0108C132.865 96.1115 132.559 96.1002 132.288 95.9791C132.017 95.8581 131.802 95.6367 131.689 95.3611L131.068 93.8457C131.012 93.712 130.984 93.5685 130.985 93.4239C130.986 93.2793 131.017 93.1366 131.074 93.0044C131.132 92.8722 131.215 92.7534 131.32 92.655C131.425 92.5567 131.548 92.4809 131.683 92.4323L133.711 91.6836C133.989 91.5826 134.296 91.5935 134.568 91.714C134.84 91.8344 135.056 92.0554 135.172 92.3309L135.792 93.8463C135.847 93.9801 135.874 94.1234 135.873 94.2677C135.871 94.412 135.841 94.5543 135.783 94.6862C135.726 94.8181 135.643 94.9369 135.539 95.0354C135.434 95.1339 135.312 95.2102 135.177 95.2597L133.142 96.0108Z" fill="#223548"/>
<path d="M69.9883 88.6507L93.744 79.8814C93.9112 79.8209 94.0642 79.7268 94.1938 79.6047C94.3233 79.4826 94.4268 79.335 94.4977 79.171C94.5687 79.007 94.6057 78.83 94.6065 78.6508C94.6073 78.4715 94.5719 78.2937 94.5025 78.1282C94.3559 77.7846 94.0841 77.5102 93.7433 77.3617C93.4025 77.2133 93.0189 77.2022 92.6718 77.3308L68.9229 86.0976C68.7557 86.1581 68.6027 86.2522 68.4731 86.3744C68.3436 86.4965 68.2401 86.6441 68.1691 86.808C68.0982 86.972 68.0612 87.149 68.0604 87.3283C68.0596 87.5075 68.0949 87.6853 68.1644 87.8508C68.3104 88.1932 68.5809 88.4671 68.9202 88.6159C69.2595 88.7647 69.6418 88.7771 69.9883 88.6507Z" fill="#223548"/>
<path d="M77.589 96.234C77.5259 96.2561 77.4681 96.291 77.4191 96.3366C77.3701 96.3822 77.3309 96.4374 77.304 96.4989C77.2771 96.5604 77.2629 96.6269 77.2625 96.6942C77.262 96.7616 77.2753 96.8284 77.3014 96.8906L78.3666 99.5059C78.4201 99.6349 78.5207 99.7387 78.6475 99.7957C78.7743 99.8528 78.9178 99.8588 79.0483 99.8125L82.1783 98.6571C82.2419 98.6348 82.3002 98.5994 82.3495 98.5533C82.3989 98.5071 82.4382 98.4512 82.4649 98.3889C82.4917 98.3266 82.5054 98.2593 82.5051 98.1913C82.5048 98.1233 82.4906 98.056 82.4633 97.9936L81.3981 95.3784C81.3433 95.2511 81.2426 95.1493 81.1165 95.0936C80.9904 95.038 80.8483 95.0326 80.719 95.0785L77.589 96.234Z" fill="#D1EFFF"/>
<path d="M85.5906 93.296C85.5273 93.3183 85.4692 93.3533 85.4198 93.3989C85.3704 93.4446 85.3308 93.4998 85.3033 93.5614C85.2758 93.623 85.261 93.6896 85.2598 93.7573C85.2586 93.825 85.271 93.8923 85.2962 93.9552L86.3683 96.5679C86.4218 96.697 86.5223 96.8007 86.6491 96.8578C86.776 96.9148 86.9194 96.9208 87.0499 96.8745L90.1799 95.7191C90.2429 95.6959 90.3005 95.6601 90.3493 95.6138C90.398 95.5674 90.4369 95.5116 90.4635 95.4496C90.4902 95.3876 90.5041 95.3207 90.5043 95.253C90.5046 95.1853 90.4911 95.1181 90.4649 95.0556L89.3997 92.4404C89.343 92.3132 89.241 92.2119 89.1138 92.1567C88.9866 92.1016 88.8438 92.0967 88.7138 92.1431L85.5906 93.296Z" fill="#D1EFFF"/>
<path d="M93.6935 90.3354C93.6305 90.3586 93.5728 90.3945 93.5241 90.4408C93.4753 90.4872 93.4364 90.543 93.4098 90.605C93.3831 90.667 93.3693 90.7339 93.3691 90.8016C93.3688 90.8693 93.3822 90.9364 93.4084 90.999L94.4736 93.6142C94.5285 93.7421 94.6293 93.8448 94.7556 93.9016C94.882 93.9585 95.0247 93.9653 95.1553 93.9209L98.2853 92.7654C98.3486 92.7421 98.4065 92.7062 98.4556 92.6598C98.5048 92.6134 98.5441 92.5575 98.5713 92.4954C98.5986 92.4333 98.6131 92.3663 98.6141 92.2982C98.6151 92.2302 98.6026 92.1626 98.5772 92.0994L97.5051 89.4867C97.4516 89.3576 97.351 89.2539 97.2242 89.1968C97.0974 89.1397 96.954 89.1337 96.8235 89.18L93.6935 90.3354Z" fill="#D1EFFF"/>
<path d="M101.696 87.3975C101.633 87.4209 101.575 87.4568 101.526 87.5032C101.477 87.5496 101.437 87.6054 101.41 87.6675C101.383 87.7296 101.368 87.7967 101.367 87.8647C101.366 87.9327 101.379 88.0003 101.404 88.0635L102.476 90.6763C102.53 90.8053 102.63 90.9091 102.757 90.9661C102.884 91.0232 103.027 91.0292 103.158 90.9829L106.288 89.8275C106.351 89.8043 106.409 89.7684 106.457 89.7221C106.506 89.6758 106.545 89.6199 106.572 89.5579C106.598 89.4959 106.612 89.429 106.612 89.3613C106.612 89.2936 106.599 89.2265 106.573 89.1639L105.508 86.5487C105.453 86.4208 105.352 86.3182 105.226 86.2613C105.099 86.2045 104.957 86.1976 104.826 86.2421L101.696 87.3975Z" fill="#D1EFFF"/>
<path d="M109.895 84.4722C109.832 84.4954 109.774 84.5312 109.725 84.5775C109.676 84.6239 109.638 84.6797 109.611 84.7417C109.584 84.8037 109.57 84.8706 109.57 84.9383C109.57 85.006 109.583 85.0732 109.61 85.1357L110.675 87.7509C110.731 87.8781 110.834 87.9795 110.961 88.0346C111.088 88.0897 111.231 88.0946 111.361 88.0482L114.491 86.8928C114.553 86.8698 114.61 86.8344 114.659 86.7886C114.707 86.7429 114.746 86.6878 114.773 86.6265C114.8 86.5653 114.814 86.4992 114.815 86.4321C114.816 86.3651 114.803 86.2984 114.778 86.2361L113.706 83.6234C113.653 83.4943 113.552 83.3906 113.425 83.3335C113.299 83.2765 113.155 83.2705 113.025 83.3168L109.895 84.4722Z" fill="#D1EFFF"/>
<path d="M122.486 83.9558C122.549 83.9336 122.607 83.8987 122.656 83.8531C122.705 83.8076 122.744 83.7524 122.771 83.6909C122.798 83.6293 122.812 83.5629 122.813 83.4955C122.813 83.4281 122.8 83.3613 122.774 83.2991L121.709 80.6839C121.655 80.5548 121.555 80.451 121.428 80.394C121.301 80.3369 121.158 80.3309 121.027 80.3772L117.897 81.5326C117.833 81.5549 117.775 81.5903 117.726 81.6364C117.676 81.6826 117.637 81.7386 117.61 81.8009C117.584 81.8631 117.57 81.9304 117.57 81.9984C117.57 82.0665 117.585 82.1338 117.612 82.1962L118.677 84.8114C118.732 84.9386 118.833 85.0404 118.959 85.0961C119.085 85.1518 119.227 85.1572 119.356 85.1112L122.486 83.9558Z" fill="#D1EFFF"/>
<path d="M129.093 77.9437C129.04 77.8146 128.939 77.7108 128.812 77.6538C128.686 77.5967 128.542 77.5907 128.412 77.637L125.282 78.7924C125.218 78.8147 125.16 78.8501 125.11 78.8962C125.061 78.9424 125.022 78.9983 124.995 79.0606C124.968 79.1229 124.955 79.1902 124.955 79.2582C124.955 79.3262 124.969 79.3935 124.997 79.4559L126.062 82.0711C126.117 82.1991 126.217 82.3017 126.344 82.3586C126.47 82.4154 126.613 82.4223 126.744 82.3778L129.874 81.2224C129.937 81.1992 129.994 81.1634 130.043 81.117C130.092 81.0707 130.13 81.0149 130.157 80.9528C130.184 80.8908 130.198 80.8239 130.198 80.7562C130.198 80.6885 130.185 80.6214 130.159 80.5589L129.093 77.9437Z" fill="#D1EFFF"/>
<path d="M85.1502 105.71C85.2126 105.686 85.2695 105.65 85.3177 105.603C85.3659 105.557 85.4044 105.501 85.4309 105.439C85.4575 105.378 85.4715 105.311 85.4723 105.244C85.473 105.176 85.4604 105.109 85.4353 105.047L84.3632 102.434C84.3097 102.305 84.2092 102.201 84.0824 102.144C83.9556 102.087 83.8121 102.081 83.6816 102.127L80.5516 103.283C80.4892 103.307 80.4323 103.343 80.3841 103.39C80.3359 103.436 80.2974 103.492 80.2708 103.554C80.2443 103.615 80.2303 103.682 80.2295 103.749C80.2288 103.817 80.2414 103.884 80.2665 103.946L81.3318 106.562C81.3872 106.691 81.4892 106.794 81.617 106.85C81.7449 106.907 81.8891 106.912 82.0202 106.866L85.1502 105.71Z" fill="#D1EFFF"/>
<path d="M93.1457 102.773C93.2087 102.75 93.2664 102.714 93.3151 102.668C93.3639 102.621 93.4027 102.566 93.4293 102.504C93.4559 102.442 93.4698 102.375 93.4701 102.307C93.4703 102.239 93.457 102.172 93.4308 102.11L92.3655 99.4945C92.312 99.3654 92.2114 99.2616 92.0846 99.2046C91.9578 99.1475 91.8144 99.1415 91.6839 99.1878L88.5539 100.343C88.4908 100.366 88.4332 100.402 88.3844 100.449C88.3357 100.495 88.2968 100.551 88.2701 100.613C88.2435 100.675 88.2297 100.742 88.2294 100.809C88.2292 100.877 88.2425 100.944 88.2687 101.007L89.334 103.622C89.3889 103.75 89.4896 103.853 89.616 103.909C89.7424 103.966 89.885 103.973 90.0156 103.929L93.1457 102.773Z" fill="#D1EFFF"/>
<path d="M101.257 99.8195C101.319 99.7955 101.376 99.7592 101.424 99.7127C101.473 99.6662 101.511 99.6104 101.538 99.5487C101.564 99.4869 101.578 99.4204 101.579 99.353C101.58 99.2856 101.567 99.2186 101.542 99.156L100.47 96.5433C100.416 96.4142 100.316 96.3105 100.189 96.2534C100.062 96.1964 99.9189 96.1904 99.7884 96.2366L96.6584 97.3921C96.5953 97.4153 96.5377 97.4512 96.4889 97.4975C96.4402 97.5438 96.4013 97.5996 96.3746 97.6616C96.348 97.7237 96.3342 97.7905 96.3339 97.8582C96.3337 97.9259 96.347 97.9931 96.3732 98.0556L97.4452 100.668C97.4988 100.797 97.5993 100.901 97.7262 100.958C97.853 101.015 97.9964 101.021 98.1269 100.975L101.257 99.8195Z" fill="#D1EFFF"/>
<path d="M109.252 96.8825C109.316 96.8592 109.374 96.8233 109.423 96.7769C109.472 96.7305 109.511 96.6746 109.539 96.6125C109.566 96.5504 109.58 96.4834 109.581 96.4153C109.582 96.3473 109.57 96.2797 109.544 96.2165L108.472 93.6038C108.419 93.4747 108.318 93.371 108.191 93.3139C108.065 93.2569 107.921 93.2509 107.791 93.2972L104.661 94.4526C104.597 94.4749 104.539 94.5102 104.489 94.5564C104.44 94.6026 104.401 94.6585 104.374 94.7208C104.347 94.7831 104.334 94.8503 104.334 94.9184C104.334 94.9864 104.348 95.0537 104.376 95.1161L105.441 97.7313C105.496 97.8592 105.596 97.9619 105.723 98.0188C105.849 98.0756 105.992 98.0825 106.122 98.038L109.252 96.8825Z" fill="#D1EFFF"/>
<path d="M117.456 93.9475C117.518 93.9245 117.575 93.889 117.624 93.8433C117.672 93.7976 117.711 93.7424 117.738 93.6812C117.764 93.62 117.779 93.5539 117.78 93.4868C117.781 93.4197 117.768 93.3531 117.743 93.2908L116.671 90.6781C116.619 90.5478 116.519 90.4429 116.391 90.3856C116.264 90.3284 116.12 90.3232 115.99 90.3714L112.86 91.5268C112.797 91.55 112.739 91.5859 112.69 91.6322C112.641 91.6786 112.602 91.7344 112.576 91.7964C112.549 91.8584 112.535 91.9253 112.535 91.993C112.535 92.0607 112.548 92.1279 112.574 92.1904L113.646 94.8031C113.7 94.9315 113.8 95.0344 113.927 95.0903C114.053 95.1462 114.196 95.1507 114.326 95.1029L117.456 93.9475Z" fill="#D1EFFF"/>
<path d="M120.856 88.5913C120.793 88.6145 120.735 88.6504 120.686 88.6967C120.637 88.743 120.599 88.7989 120.572 88.8609C120.545 88.9229 120.531 88.9898 120.531 89.0575C120.531 89.1252 120.544 89.1923 120.57 89.2548L121.636 91.8701C121.692 91.9973 121.794 92.0986 121.922 92.1537C122.049 92.2088 122.192 92.2137 122.322 92.1674L125.445 91.0144C125.508 90.9921 125.566 90.9571 125.616 90.9115C125.665 90.8659 125.705 90.8106 125.732 90.749C125.76 90.6874 125.774 90.6208 125.776 90.5531C125.777 90.4855 125.765 90.4181 125.739 90.3553L124.667 87.7426C124.614 87.6135 124.513 87.5097 124.386 87.4527C124.259 87.3956 124.116 87.3896 123.986 87.4359L120.856 88.5913Z" fill="#D1EFFF"/>
<path d="M132.058 84.9984C132.004 84.8693 131.904 84.7655 131.777 84.7085C131.65 84.6514 131.507 84.6455 131.376 84.6918L128.246 85.8472C128.183 85.8704 128.126 85.9062 128.077 85.9525C128.028 85.9989 127.989 86.0547 127.963 86.1167C127.936 86.1787 127.922 86.2456 127.922 86.3133C127.922 86.381 127.935 86.4482 127.961 86.5107L129.026 89.1259C129.083 89.2531 129.185 89.3545 129.312 89.4096C129.439 89.4647 129.582 89.4696 129.712 89.4232L132.842 88.2678C132.905 88.2448 132.962 88.2093 133.01 88.1636C133.059 88.1179 133.097 88.0628 133.124 88.0015C133.151 87.9403 133.165 87.8742 133.166 87.8071C133.167 87.7401 133.155 87.6734 133.13 87.6111L132.058 84.9984Z" fill="#D1EFFF"/>
<path d="M87.2456 109.225C87.1921 109.096 87.0916 108.992 86.9647 108.935C86.8379 108.878 86.6944 108.872 86.564 108.919L83.461 110.064C83.398 110.087 83.3404 110.123 83.2916 110.169C83.2429 110.216 83.204 110.272 83.1774 110.334C83.1507 110.396 83.1368 110.462 83.1366 110.53C83.1363 110.598 83.1498 110.665 83.1759 110.727L84.2411 113.343C84.2966 113.472 84.3986 113.575 84.5265 113.632C84.6543 113.688 84.7984 113.693 84.9295 113.647L88.0595 112.491C88.1219 112.467 88.1789 112.431 88.2271 112.385C88.2753 112.338 88.3138 112.282 88.3404 112.221C88.3669 112.159 88.3809 112.092 88.3817 112.025C88.3824 111.958 88.3698 111.891 88.3447 111.828L87.2456 109.225Z" fill="#D1EFFF"/>
<path d="M95.2483 106.285C95.1934 106.158 95.0927 106.055 94.9663 105.998C94.8399 105.941 94.6972 105.934 94.5667 105.979L91.4367 107.134C91.3736 107.157 91.316 107.193 91.2672 107.24C91.2185 107.286 91.1796 107.342 91.1529 107.404C91.1263 107.466 91.1125 107.533 91.1122 107.6C91.112 107.668 91.1253 107.735 91.1515 107.798L92.2168 110.413C92.2717 110.541 92.3724 110.644 92.4988 110.7C92.6252 110.757 92.7678 110.764 92.8984 110.72L96.0284 109.564C96.0914 109.541 96.1491 109.505 96.1979 109.459C96.2466 109.413 96.2855 109.357 96.3121 109.295C96.3388 109.233 96.3526 109.166 96.3528 109.098C96.3531 109.03 96.3398 108.963 96.3136 108.901L95.2483 106.285Z" fill="#D1EFFF"/>
<path d="M103.353 103.332C103.299 103.203 103.199 103.1 103.072 103.042C102.945 102.985 102.802 102.979 102.671 103.026L99.5412 104.181C99.4781 104.204 99.4205 104.24 99.3717 104.287C99.323 104.333 99.2842 104.389 99.2575 104.451C99.2309 104.513 99.217 104.58 99.2167 104.647C99.2165 104.715 99.2298 104.782 99.256 104.845L100.328 107.457C100.381 107.586 100.482 107.689 100.608 107.745C100.735 107.801 100.878 107.805 101.007 107.757L104.137 106.602C104.2 106.579 104.257 106.543 104.305 106.498C104.354 106.452 104.392 106.397 104.419 106.336C104.446 106.274 104.46 106.208 104.461 106.141C104.462 106.074 104.45 106.007 104.425 105.945L103.353 103.332Z" fill="#D1EFFF"/>
<path d="M111.382 100.385C111.329 100.256 111.228 100.152 111.102 100.095C110.975 100.038 110.831 100.032 110.701 100.078L107.571 101.234C107.507 101.256 107.449 101.291 107.399 101.338C107.35 101.384 107.311 101.44 107.284 101.502C107.257 101.564 107.244 101.632 107.244 101.7C107.244 101.768 107.258 101.835 107.286 101.897L108.351 104.513C108.406 104.64 108.506 104.742 108.633 104.797C108.759 104.853 108.901 104.858 109.03 104.812L112.16 103.657C112.223 103.635 112.281 103.6 112.33 103.554C112.379 103.509 112.418 103.453 112.445 103.392C112.472 103.33 112.486 103.264 112.487 103.197C112.487 103.129 112.474 103.062 112.448 103L111.382 100.385Z" fill="#D1EFFF"/>
<path d="M119.525 97.4722C119.471 97.3437 119.371 97.2408 119.244 97.1849C119.118 97.129 118.975 97.1245 118.846 97.1723L115.716 98.3277C115.653 98.3507 115.596 98.3862 115.548 98.4319C115.499 98.4776 115.461 98.5328 115.434 98.594C115.407 98.6552 115.393 98.7213 115.392 98.7884C115.391 98.8555 115.403 98.9221 115.428 98.9844L116.503 101.604C116.556 101.732 116.657 101.835 116.783 101.891C116.91 101.947 117.053 101.952 117.182 101.904L120.312 100.748C120.374 100.725 120.431 100.69 120.48 100.644C120.528 100.598 120.567 100.543 120.594 100.482C120.621 100.421 120.635 100.355 120.636 100.288C120.637 100.221 120.624 100.154 120.599 100.092L119.525 97.4722Z" fill="#D1EFFF"/>
<path d="M128.335 97.8016C128.398 97.7793 128.456 97.7443 128.505 97.6987C128.555 97.6531 128.594 97.5978 128.622 97.5362C128.649 97.4746 128.664 97.408 128.665 97.3403C128.667 97.2726 128.654 97.2053 128.629 97.1424L127.554 94.5229C127.5 94.3956 127.399 94.2939 127.273 94.2382C127.147 94.1825 127.005 94.1771 126.875 94.2231L123.745 95.3785C123.682 95.4006 123.624 95.4356 123.575 95.4811C123.526 95.5267 123.487 95.5819 123.46 95.6434C123.433 95.7049 123.419 95.7714 123.419 95.8388C123.418 95.9061 123.432 95.973 123.458 96.0352L124.525 98.6572C124.58 98.7845 124.681 98.8863 124.807 98.9419C124.933 98.9976 125.075 99.003 125.205 98.957L128.335 97.8016Z" fill="#D1EFFF"/>
<path d="M131.13 92.6362C131.067 92.6594 131.009 92.6953 130.961 92.7416C130.912 92.788 130.873 92.8438 130.846 92.9058C130.82 92.9678 130.806 93.0347 130.806 93.1024C130.805 93.1701 130.819 93.2372 130.845 93.2997L131.91 95.915C131.967 96.0422 132.069 96.1435 132.196 96.1986C132.323 96.2538 132.466 96.2586 132.596 96.2123L135.726 95.0569C135.788 95.0339 135.846 94.9984 135.894 94.9527C135.943 94.9069 135.981 94.8518 136.008 94.7906C136.035 94.7294 136.049 94.6633 136.05 94.5962C136.051 94.5291 136.039 94.4625 136.014 94.4002L134.942 91.7874C134.888 91.6584 134.788 91.5546 134.661 91.4976C134.534 91.4405 134.391 91.4345 134.26 91.4808L131.13 92.6362Z" fill="#D1EFFF"/>
<path d="M90.1165 116.041C90.0629 115.912 89.9623 115.809 89.8355 115.751C89.7087 115.694 89.5653 115.688 89.4348 115.735L86.3048 116.89C86.2418 116.913 86.1841 116.949 86.1354 116.996C86.0866 117.042 86.0478 117.098 86.0211 117.16C85.9945 117.222 85.9807 117.289 85.9804 117.356C85.9802 117.424 85.9935 117.491 86.0197 117.554L87.085 120.169C87.1416 120.296 87.2437 120.397 87.3708 120.453C87.498 120.508 87.6409 120.513 87.7708 120.466L90.9008 119.311C90.9632 119.288 91.0204 119.252 91.0689 119.207C91.1173 119.161 91.156 119.106 91.1829 119.045C91.2097 118.983 91.224 118.917 91.2249 118.85C91.2259 118.783 91.2135 118.716 91.1885 118.654L90.1165 116.041Z" fill="#D1EFFF"/>
<path d="M98.1187 113.104C98.0652 112.975 97.9646 112.871 97.8378 112.814C97.711 112.757 97.5676 112.751 97.4371 112.797L94.3071 113.953C94.2434 113.975 94.1851 114.01 94.1357 114.056C94.0864 114.103 94.0472 114.158 94.0204 114.221C93.9937 114.283 93.9799 114.35 93.9802 114.418C93.9805 114.486 93.9948 114.554 94.022 114.616L95.0872 117.231C95.142 117.359 95.2427 117.46 95.3688 117.516C95.4949 117.572 95.6371 117.577 95.7664 117.531L98.8964 116.376C98.9594 116.354 99.0172 116.319 99.0662 116.273C99.1152 116.227 99.1544 116.172 99.1814 116.111C99.2083 116.049 99.2224 115.983 99.2229 115.915C99.2233 115.848 99.2101 115.781 99.184 115.719L98.1187 113.104Z" fill="#D1EFFF"/>
<path d="M106.223 110.151C106.169 110.022 106.069 109.918 105.942 109.861C105.815 109.804 105.672 109.798 105.541 109.844L102.411 111C102.348 111.023 102.291 111.059 102.242 111.105C102.193 111.151 102.154 111.207 102.128 111.269C102.101 111.331 102.087 111.398 102.087 111.466C102.087 111.533 102.1 111.601 102.126 111.663L103.191 114.278C103.248 114.405 103.35 114.507 103.477 114.562C103.604 114.617 103.747 114.622 103.877 114.576L106.98 113.43C107.043 113.407 107.1 113.372 107.148 113.326C107.197 113.28 107.235 113.225 107.262 113.164C107.289 113.103 107.303 113.037 107.304 112.969C107.305 112.902 107.293 112.836 107.268 112.773L106.223 110.151Z" fill="#D1EFFF"/>
<path d="M114.226 107.211C114.173 107.082 114.072 106.978 113.945 106.921C113.818 106.864 113.675 106.858 113.545 106.905L110.415 108.06C110.351 108.082 110.293 108.118 110.243 108.164C110.194 108.21 110.155 108.266 110.128 108.328C110.101 108.39 110.087 108.458 110.088 108.526C110.088 108.594 110.102 108.661 110.129 108.723L111.195 111.339C111.249 111.466 111.35 111.568 111.476 111.623C111.602 111.679 111.744 111.685 111.874 111.639L115.004 110.483C115.067 110.461 115.125 110.426 115.174 110.38C115.223 110.335 115.262 110.28 115.289 110.218C115.316 110.157 115.33 110.09 115.33 110.023C115.331 109.955 115.318 109.889 115.291 109.826L114.226 107.211Z" fill="#D1EFFF"/>
<path d="M122.427 104.292C122.374 104.164 122.273 104.061 122.147 104.005C122.02 103.949 121.877 103.945 121.748 103.993L118.618 105.148C118.556 105.171 118.498 105.206 118.45 105.252C118.402 105.298 118.363 105.353 118.336 105.414C118.309 105.476 118.295 105.542 118.294 105.609C118.293 105.676 118.305 105.742 118.33 105.805L119.402 108.417C119.455 108.548 119.555 108.653 119.682 108.71C119.81 108.767 119.954 108.772 120.084 108.724L123.248 107.556C123.311 107.533 123.369 107.497 123.417 107.451C123.466 107.405 123.505 107.349 123.532 107.287C123.558 107.225 123.572 107.158 123.572 107.09C123.573 107.022 123.559 106.955 123.533 106.893L122.427 104.292Z" fill="#D1EFFF"/>
<path d="M90.4597 122.994C90.1548 120.767 89.9825 118.487 89.9825 116.181C89.9825 89.0754 111.959 67.0859 139.078 67.0859C158.695 67.0859 175.621 78.591 183.481 95.2388C188.239 93.0253 193.541 91.7926 199.134 91.7926C217.611 91.7926 232.947 105.273 235.837 122.941C249.873 123.71 261.034 135.347 261.034 149.583C261.034 164.322 249.091 176.264 234.352 176.264H92.872C78.1329 176.264 66.1904 164.322 66.1904 149.583C66.1904 135.665 76.8472 124.24 90.4464 123.021L90.4597 122.994Z" fill="#CEDBE8"/>
<path d="M92.9482 202.453C92.9482 201.353 93.8399 200.461 94.9399 200.461H225.065C226.165 200.461 227.056 201.353 227.056 202.453V203.272H92.9482V202.453Z" fill="#4098FF"/>
<path d="M95.7009 205.668C96.0659 205.994 96.5381 206.174 97.0274 206.174H222.977C223.466 206.174 223.939 205.994 224.304 205.668L227.056 203.21H92.9482L95.7009 205.668Z" fill="#1782FF"/>
<rect x="106.146" y="128.723" width="107.712" height="71.8642" rx="3.98327" fill="#4098FF"/>
<path d="M160.002 131.128C160.383 131.128 160.692 130.818 160.692 130.437C160.692 130.055 160.383 129.746 160.002 129.746C159.621 129.746 159.312 130.055 159.312 130.437C159.312 130.818 159.621 131.128 160.002 131.128Z" fill="#0070F3"/>
<rect x="109.707" y="132.072" width="100.59" height="65.166" rx="2.65552" fill="#223548"/>
<path d="M152.2 200.062H167.804V200.54C167.804 201.274 167.209 201.868 166.476 201.868H153.528C152.795 201.868 152.2 201.274 152.2 200.54V200.062Z" fill="#0070F3"/>
<path fill-rule="evenodd" clip-rule="evenodd" d="M123.974 143.045C124.56 143.045 125.035 143.52 125.035 144.106V186.534C125.035 187.12 124.56 187.596 123.974 187.596C123.388 187.596 122.913 187.12 122.913 186.534V144.106C122.913 143.52 123.388 143.045 123.974 143.045Z" fill="#3B5B7C"/>
<rect x="122.912" y="185.662" width="74.1768" height="2.12256" rx="1.06128" fill="#3B5B7C"/>
<rect x="132.302" y="158.732" width="8.07227" height="21.6594" rx="1.5" fill="#3B5B7C"/>
<rect x="144.374" y="147.133" width="8.07227" height="33.2595" rx="1.5" fill="#F58B00"/>
<rect x="156.446" y="169.014" width="8.07227" height="11.3782" rx="1.5" fill="#324E6B"/>
<rect x="168.519" y="158.732" width="8.07227" height="21.6594" rx="1.5" fill="#4098FF"/>
<rect x="180.591" y="151.4" width="8.07227" height="28.9917" rx="1.5" fill="#3B5B7C"/>
</svg>
