<?xml version="1.0" encoding="UTF-8"?>
<!--Generator: Apple Native CoreSVG 341-->
<!DOCTYPE svg
PUBLIC "-//W3C//DTD SVG 1.1//EN"
       "http://www.w3.org/Graphics/SVG/1.1/DTD/svg11.dtd">
<svg version="1.1" xmlns="http://www.w3.org/2000/svg" xmlns:xlink="http://www.w3.org/1999/xlink" viewBox="0 0 3300 2200">
 <!--glyph: "", point size: 100.0, font version: "21.0d4e1", template writer version: "138.0.0"-->
 <style>.defaults {-sfsymbols-draw-reverses-motion-groups:true}

.monochrome-0 {-sfsymbols-motion-group:2;-sfsymbols-layer-tags:1dcbde7046f35431}
.monochrome-1 {-sfsymbols-motion-group:1;-sfsymbols-layer-tags:1dcbde7046f35431}
.monochrome-2 {-sfsymbols-motion-group:0;-sfsymbols-layer-tags:1dcbde7046f35431}

.multicolor-0:tintColor {-sfsymbols-motion-group:2;-sfsymbols-layer-tags:1dcbde7046f35431}
.multicolor-1:tintColor {-sfsymbols-motion-group:1;-sfsymbols-layer-tags:1dcbde7046f35431}
.multicolor-2:tintColor {-sfsymbols-motion-group:0;-sfsymbols-layer-tags:1dcbde7046f35431}

.hierarchical-0:primary {-sfsymbols-motion-group:2;-sfsymbols-layer-tags:1dcbde7046f35431}
.hierarchical-1:primary {-sfsymbols-motion-group:1;-sfsymbols-layer-tags:1dcbde7046f35431}
.hierarchical-2:primary {-sfsymbols-motion-group:0;-sfsymbols-layer-tags:1dcbde7046f35431}

.SFSymbolsPreviewWireframe {fill:none;opacity:1.0;stroke:black;stroke-width:0.5}
</style>
 <g id="Notes">
  <rect height="2200" id="artboard" style="fill:white;opacity:1" width="3300" x="0" y="0"/>
  <line style="fill:none;stroke:black;opacity:1;stroke-width:0.5;" x1="263" x2="3036" y1="292" y2="292"/>
  <text style="stroke:none;fill:black;font-family:sans-serif;font-size:13;font-weight:bold;" transform="matrix(1 0 0 1 263 322)">Weight/Scale Variations</text>
  <text style="stroke:none;fill:black;font-family:sans-serif;font-size:13;text-anchor:middle;" transform="matrix(1 0 0 1 559.711 322)">Ultralight</text>
  <text style="stroke:none;fill:black;font-family:sans-serif;font-size:13;text-anchor:middle;" transform="matrix(1 0 0 1 856.422 322)">Thin</text>
  <text style="stroke:none;fill:black;font-family:sans-serif;font-size:13;text-anchor:middle;" transform="matrix(1 0 0 1 1153.13 322)">Light</text>
  <text style="stroke:none;fill:black;font-family:sans-serif;font-size:13;text-anchor:middle;" transform="matrix(1 0 0 1 1449.84 322)">Regular</text>
  <text style="stroke:none;fill:black;font-family:sans-serif;font-size:13;text-anchor:middle;" transform="matrix(1 0 0 1 1746.56 322)">Medium</text>
  <text style="stroke:none;fill:black;font-family:sans-serif;font-size:13;text-anchor:middle;" transform="matrix(1 0 0 1 2043.27 322)">Semibold</text>
  <text style="stroke:none;fill:black;font-family:sans-serif;font-size:13;text-anchor:middle;" transform="matrix(1 0 0 1 2339.98 322)">Bold</text>
  <text style="stroke:none;fill:black;font-family:sans-serif;font-size:13;text-anchor:middle;" transform="matrix(1 0 0 1 2636.69 322)">Heavy</text>
  <text style="stroke:none;fill:black;font-family:sans-serif;font-size:13;text-anchor:middle;" transform="matrix(1 0 0 1 2933.4 322)">Black</text>
  <line style="fill:none;stroke:black;opacity:1;stroke-width:0.5;" x1="263" x2="3036" y1="1903" y2="1903"/>
  <g transform="matrix(0.2 0 0 0.2 263 1933)">
   <path d="m46.2402 4.15039c21.7773 0 39.4531-17.627 39.4531-39.4043s-17.6758-39.4043-39.4531-39.4043c-21.7285 0-39.4043 17.627-39.4043 39.4043s17.6758 39.4043 39.4043 39.4043Zm0-7.42188c-17.6758 0-31.9336-14.3066-31.9336-31.9824s14.2578-31.9824 31.9336-31.9824 31.9824 14.3066 31.9824 31.9824-14.3066 31.9824-31.9824 31.9824Zm3.61328-17.7734v-28.4668c0-2.24609-1.46484-3.75977-3.71094-3.75977-2.14844 0-3.61328 1.51367-3.61328 3.75977v28.4668c0 2.19727 1.46484 3.71094 3.61328 3.71094 2.24609 0 3.71094-1.51367 3.71094-3.71094Zm-17.8223-10.5957h28.418c2.19727 0 3.71094-1.46484 3.71094-3.61328 0-2.19727-1.51367-3.71094-3.71094-3.71094h-28.418c-2.24609 0-3.75977 1.51367-3.75977 3.71094 0 2.14844 1.51367 3.61328 3.75977 3.61328Z"/>
  </g>
  <g transform="matrix(0.2 0 0 0.2 281.506 1933)">
   <path d="m58.5449 14.5508c27.4902 0 49.8047-22.3145 49.8047-49.8047s-22.3145-49.8047-49.8047-49.8047-49.8047 22.3145-49.8047 49.8047 22.3145 49.8047 49.8047 49.8047Zm0-8.30078c-22.9492 0-41.5039-18.5547-41.5039-41.5039s18.5547-41.5039 41.5039-41.5039 41.5039 18.5547 41.5039 41.5039-18.5547 41.5039-41.5039 41.5039Zm4.05273-23.0957v-36.9141c0-2.49023-1.70898-4.19922-4.15039-4.19922-2.39258 0-4.05273 1.70898-4.05273 4.19922v36.9141c0 2.44141 1.66016 4.15039 4.05273 4.15039 2.44141 0 4.15039-1.66016 4.15039-4.15039Zm-22.5586-14.4043h36.9629c2.44141 0 4.15039-1.61133 4.15039-4.00391 0-2.44141-1.70898-4.15039-4.15039-4.15039h-36.9629c-2.49023 0-4.15039 1.70898-4.15039 4.15039 0 2.39258 1.66016 4.00391 4.15039 4.00391Z"/>
  </g>
  <g transform="matrix(0.2 0 0 0.2 304.924 1933)">
   <path d="m74.8535 28.3203c35.1074 0 63.623-28.4668 63.623-63.5742s-28.5156-63.623-63.623-63.623-63.5742 28.5156-63.5742 63.623 28.4668 63.5742 63.5742 63.5742Zm0-9.08203c-30.127 0-54.4922-24.3652-54.4922-54.4922s24.3652-54.4922 54.4922-54.4922 54.4922 24.3652 54.4922 54.4922-24.3652 54.4922-54.4922 54.4922Zm4.44336-30.3223v-48.4863c0-2.73438-1.85547-4.63867-4.54102-4.63867-2.58789 0-4.44336 1.9043-4.44336 4.63867v48.4863c0 2.68555 1.85547 4.58984 4.44336 4.58984 2.68555 0 4.54102-1.85547 4.54102-4.58984Zm-28.7109-19.7754h48.4863c2.68555 0 4.58984-1.80664 4.58984-4.39453 0-2.73438-1.85547-4.58984-4.58984-4.58984h-48.4863c-2.73438 0-4.58984 1.85547-4.58984 4.58984 0 2.58789 1.85547 4.39453 4.58984 4.39453Z"/>
  </g>
  <text style="stroke:none;fill:black;font-family:sans-serif;font-size:13;font-weight:bold;" transform="matrix(1 0 0 1 263 1953)">Design Variations</text>
  <text style="stroke:none;fill:black;font-family:sans-serif;font-size:13;" transform="matrix(1 0 0 1 263 1971)">Symbols are supported in up to nine weights and three scales.</text>
  <text style="stroke:none;fill:black;font-family:sans-serif;font-size:13;" transform="matrix(1 0 0 1 263 1989)">For optimal layout with text and other symbols, vertically align</text>
  <text style="stroke:none;fill:black;font-family:sans-serif;font-size:13;" transform="matrix(1 0 0 1 263 2007)">symbols with the adjacent text.</text>
  <line style="fill:none;stroke:#00AEEF;stroke-width:0.5;opacity:1.0;" x1="776" x2="776" y1="1919" y2="1933"/>
  <g transform="matrix(0.2 0 0 0.2 776 1933)">
   <path d="m16.5527 0.78125c2.58789 0 3.85742-0.976562 4.78516-3.71094l20.5566-57.5195h0.244141l20.6055 57.5195c0.927734 2.73438 2.19727 3.71094 4.73633 3.71094 2.58789 0 4.24805-1.5625 4.24805-4.00391 0-0.830078-0.146484-1.61133-0.537109-2.63672l-22.9004-60.9863c-1.12305-2.97852-3.125-4.49219-6.25-4.49219-3.02734 0-5.07812 1.46484-6.15234 4.44336l-22.9004 61.084c-0.390625 1.02539-0.537109 1.80664-0.537109 2.63672 0 2.44141 1.5625 3.95508 4.10156 3.95508Zm10.2051-20.9473h30.6641c2.00195 0 3.66211-1.66016 3.66211-3.66211 0-2.05078-1.66016-3.66211-3.66211-3.66211h-30.6641c-2.00195 0-3.66211 1.61133-3.66211 3.66211 0 2.00195 1.66016 3.66211 3.66211 3.66211Z"/>
  </g>
  <line style="fill:none;stroke:#00AEEF;stroke-width:0.5;opacity:1.0;" x1="792.836" x2="792.836" y1="1919" y2="1933"/>
  <text style="stroke:none;fill:black;font-family:sans-serif;font-size:13;font-weight:bold;" transform="matrix(1 0 0 1 776 1953)">Margins</text>
  <text style="stroke:none;fill:black;font-family:sans-serif;font-size:13;" transform="matrix(1 0 0 1 776 1971)">Leading and trailing margins on the left and right side of each symbol</text>
  <text style="stroke:none;fill:black;font-family:sans-serif;font-size:13;" transform="matrix(1 0 0 1 776 1989)">can be adjusted by modifying the x-location of the margin guidelines.</text>
  <text style="stroke:none;fill:black;font-family:sans-serif;font-size:13;" transform="matrix(1 0 0 1 776 2007)">Modifications are automatically applied proportionally to all</text>
  <text style="stroke:none;fill:black;font-family:sans-serif;font-size:13;" transform="matrix(1 0 0 1 776 2025)">scales and weights.</text>
  <g transform="matrix(0.2 0 0 0.2 1289 1933)">
   <path d="m14.209 13.1348 7.86133 7.86133c4.29688 4.39453 9.32617 4.10156 13.8672-1.02539l60.6934-68.2129-4.88281-4.88281-60.2539 67.6758c-1.80664 1.95312-3.4668 2.44141-5.81055 0.0976562l-5.17578-5.12695c-2.29492-2.29492-1.80664-3.95508 0.195312-5.81055l67.4805-62.1582-4.88281-4.83398-68.0664 62.5977c-4.98047 4.58984-5.32227 9.47266-1.02539 13.8184Zm44.873-97.4609c-2.05078 2.00195-2.24609 4.88281-1.07422 6.78711 1.12305 1.80664 3.4668 3.02734 6.5918 2.24609 5.85938-1.66016 12.5977-2.39258 18.8965 0.927734l-2.68555 7.12891c-1.61133 4.00391-0.732422 6.88477 1.70898 9.42383l10.2539 10.3027c2.34375 2.39258 4.54102 2.44141 7.08008 1.95312l4.44336-0.732422 2.58789 2.53906-0.195312 2.24609c-0.0976562 2.29492 0.537109 4.29688 2.7832 6.49414l3.36914 3.32031c2.29492 2.29492 5.51758 2.49023 7.8125 0.195312l12.9883-13.0371c2.29492-2.34375 2.14844-5.37109-0.195312-7.66602l-3.41797-3.41797c-2.19727-2.19727-4.05273-3.02734-6.34766-2.88086l-2.34375 0.244141-2.44141-2.44141 1.02539-4.6875c0.634766-2.73438-0.244141-4.98047-2.88086-7.61719l-11.2793-11.1816c-12.9395-12.8418-35.5957-11.0352-46.6797-0.146484Zm7.08008 2.05078c8.78906-6.39648 25.9766-5.66406 33.6914 1.95312l12.3047 12.207c1.02539 1.02539 1.2207 1.80664 0.927734 3.32031l-1.46484 6.64062 6.73828 6.68945 4.39453-0.244141c1.12305-0.0488281 1.51367 0.0488281 2.34375 0.878906l2.53906 2.49023-10.8398 10.8398-2.49023-2.49023c-0.830078-0.878906-0.976562-1.2207-0.927734-2.39258l0.292969-4.3457-6.68945-6.73828-6.83594 1.17188c-1.41602 0.292969-2.05078 0.195312-3.17383-0.878906l-8.93555-8.88672c-1.07422-1.02539-1.17188-1.70898-0.488281-3.36914l4.58984-11.4746c-6.10352-6.34766-17.041-7.51953-25.5859-4.58984-0.683594 0.244141-0.927734-0.390625-0.390625-0.78125Z"/>
  </g>
  <text style="stroke:none;fill:black;font-family:sans-serif;font-size:13;font-weight:bold;" transform="matrix(1 0 0 1 1289 1953)">Exporting</text>
  <text style="stroke:none;fill:black;font-family:sans-serif;font-size:13;" transform="matrix(1 0 0 1 1289 1971)">Symbols should be outlined when exporting to ensure the</text>
  <text style="stroke:none;fill:black;font-family:sans-serif;font-size:13;" transform="matrix(1 0 0 1 1289 1989)">design is preserved when submitting to Xcode.</text>
  <text id="template-version" style="stroke:none;fill:black;font-family:sans-serif;font-size:13;text-anchor:end;" transform="matrix(1 0 0 1 3036 1933)">Template v.5.0</text>
  <text style="stroke:none;fill:black;font-family:sans-serif;font-size:13;text-anchor:end;" transform="matrix(1 0 0 1 3036 1951)">Requires Xcode 15 or greater</text>
  <text id="descriptive-name" style="stroke:none;fill:black;font-family:sans-serif;font-size:13;text-anchor:end;" transform="matrix(1 0 0 1 3036 1969)">Generated from fiori.idea.wall</text>
  <text style="stroke:none;fill:black;font-family:sans-serif;font-size:13;text-anchor:end;" transform="matrix(1 0 0 1 3036 1987)">Typeset at 100.0 points</text>
  <text style="stroke:none;fill:black;font-family:sans-serif;font-size:13;" transform="matrix(1 0 0 1 263 726)">Small</text>
  <text style="stroke:none;fill:black;font-family:sans-serif;font-size:13;" transform="matrix(1 0 0 1 263 1156)">Medium</text>
  <text style="stroke:none;fill:black;font-family:sans-serif;font-size:13;" transform="matrix(1 0 0 1 263 1586)">Large</text>
 </g>
 <g id="Guides">
  <g id="H-reference" style="fill:#27AAE1;stroke:none;" transform="matrix(1 0 0 1 339 696)">
   <path d="M0.993654 0L3.63775 0L29.3281-67.1323L30.0303-67.1323L30.0303-70.459L28.1226-70.459ZM11.6885-24.4799L46.9815-24.4799L46.2315-26.7285L12.4385-26.7285ZM55.1196 0L57.7637 0L30.6382-70.459L29.4326-70.459L29.4326-67.1323Z"/>
  </g>
  <line id="Baseline-S" style="fill:none;stroke:#27AAE1;opacity:1;stroke-width:0.5;" x1="263" x2="3036" y1="696" y2="696"/>
  <line id="Capline-S" style="fill:none;stroke:#27AAE1;opacity:1;stroke-width:0.5;" x1="263" x2="3036" y1="625.541" y2="625.541"/>
  <g id="H-reference" style="fill:#27AAE1;stroke:none;" transform="matrix(1 0 0 1 339 1126)">
   <path d="M0.993654 0L3.63775 0L29.3281-67.1323L30.0303-67.1323L30.0303-70.459L28.1226-70.459ZM11.6885-24.4799L46.9815-24.4799L46.2315-26.7285L12.4385-26.7285ZM55.1196 0L57.7637 0L30.6382-70.459L29.4326-70.459L29.4326-67.1323Z"/>
  </g>
  <line id="Baseline-M" style="fill:none;stroke:#27AAE1;opacity:1;stroke-width:0.5;" x1="263" x2="3036" y1="1126" y2="1126"/>
  <line id="Capline-M" style="fill:none;stroke:#27AAE1;opacity:1;stroke-width:0.5;" x1="263" x2="3036" y1="1055.54" y2="1055.54"/>
  <g id="H-reference" style="fill:#27AAE1;stroke:none;" transform="matrix(1 0 0 1 339 1556)">
   <path d="M0.993654 0L3.63775 0L29.3281-67.1323L30.0303-67.1323L30.0303-70.459L28.1226-70.459ZM11.6885-24.4799L46.9815-24.4799L46.2315-26.7285L12.4385-26.7285ZM55.1196 0L57.7637 0L30.6382-70.459L29.4326-70.459L29.4326-67.1323Z"/>
  </g>
  <line id="Baseline-L" style="fill:none;stroke:#27AAE1;opacity:1;stroke-width:0.5;" x1="263" x2="3036" y1="1556" y2="1556"/>
  <line id="Capline-L" style="fill:none;stroke:#27AAE1;opacity:1;stroke-width:0.5;" x1="263" x2="3036" y1="1485.54" y2="1485.54"/>
  <line id="right-margin-Black-S" style="fill:none;stroke:#00AEEF;stroke-width:0.5;opacity:1.0;" x1="2981.9" x2="2981.9" y1="600.785" y2="720.121"/>
  <line id="left-margin-Black-S" style="fill:none;stroke:#00AEEF;stroke-width:0.5;opacity:1.0;" x1="2884.9" x2="2884.9" y1="600.785" y2="720.121"/>
  <line id="right-margin-Regular-S" style="fill:none;stroke:#00AEEF;stroke-width:0.5;opacity:1.0;" x1="1496.29" x2="1496.29" y1="600.785" y2="720.121"/>
  <line id="left-margin-Regular-S" style="fill:none;stroke:#00AEEF;stroke-width:0.5;opacity:1.0;" x1="1403.39" x2="1403.39" y1="600.785" y2="720.121"/>
  <line id="right-margin-Ultralight-S" style="fill:none;stroke:#00AEEF;stroke-width:0.5;opacity:1.0;" x1="604.411" x2="604.411" y1="600.785" y2="720.121"/>
  <line id="left-margin-Ultralight-S" style="fill:none;stroke:#00AEEF;stroke-width:0.5;opacity:1.0;" x1="515.011" x2="515.011" y1="600.785" y2="720.121"/>
 </g>
 <g id="Symbols">
  <g id="Black-S" transform="matrix(1 0 0 1 2884.9 696)">
   <path class="monochrome-0 multicolor-0:tintColor hierarchical-0:primary SFSymbolsPreviewWireframe" d="M85.51-38.7C82.21-38.7 79.71-41.4 79.71-44.5L79.71-62C79.71-64.5 77.71-66.5 75.21-66.5L21.71-66.5C19.21-66.5 17.21-64.5 17.21-62L17.21-44.5C17.21-41.7 15.11-38.7 11.41-38.7C7.41-38.7 5.61-42.1 5.61-44.5L5.61-62C5.61-70.9 12.81-78.1 21.71-78.1L75.21-78.1C83.11-78.1 91.31-71.9 91.31-62L91.31-44.5C91.31-41.3 88.81-38.7 85.51-38.7Z"/>
   <path class="monochrome-1 multicolor-1:tintColor hierarchical-1:primary SFSymbolsPreviewWireframe" d="M32.21-22.4C32.21-17.2085 28.0015-13 22.81-13C17.6185-13 13.41-17.2085 13.41-22.4C13.41-27.5915 17.6185-31.8 22.81-31.8C28.0015-31.8 32.21-27.5915 32.21-22.4ZM34.11 7.6L11.51 7.6C7.31 7.6 5.71 4 5.71 1.8C5.71-4.4 10.81-11.2 18.71-11.2L26.91-11.2C35.01-11.2 39.91-4.4 39.91 1.8C39.91 4 38.21 7.6 34.11 7.6ZM83.61-22.4C83.61-17.2085 79.4015-13 74.21-13C69.0185-13 64.81-17.2085 64.81-22.4C64.81-27.5915 69.0185-31.8 74.21-31.8C79.4015-31.8 83.61-27.5915 83.61-22.4ZM85.51 7.6L62.91 7.6C58.81 7.6 57.11 4.1 57.11 1.8C57.11-4.4 62.01-11.2 70.11-11.2L78.31-11.2C86.31-11.2 91.31-4.4 91.31 1.8C91.31 4 89.51 7.6 85.51 7.6Z"/>
   <path class="monochrome-2 multicolor-2:tintColor hierarchical-2:primary SFSymbolsPreviewWireframe" d="M52.61-23.3L44.41-23.3C41.61-23.3 39.81-25.2 39.21-26.6C37.91-29.3 36.81-30.9 35.71-32.5C33.61-35.6 31.41-39.5 31.41-45C31.41-54 38.01-62.7 48.51-62.7C58.91-62.7 65.61-54 65.61-45C65.61-40 63.51-36.2 61.31-32.8C60.21-31.1 59.11-29.3 57.81-26.6C57.21-25.2 55.51-23.3 52.61-23.3ZM47.91-34.9L49.11-34.9C50.21-36.9 50.71-37.6 51.61-39C53.51-42 54.11-42.5 54.11-45C54.11-48.4 51.91-51.1 48.61-51.1C45.51-51.1 43.11-48.6 43.11-45C43.11-42 43.61-41.7 45.41-39C46.21-37.7 46.81-36.9 47.91-34.9ZM54.71-9.9L42.31-9.9C39.11-9.9 36.51-12.5 36.51-15.7C36.51-18.9 39.11-21.5 42.31-21.5L54.61-21.5C57.81-21.5 60.41-18.9 60.41-15.7C60.41-12.5 57.91-9.9 54.71-9.9Z"/>
  </g>
  <g id="Regular-S" transform="matrix(1 0 0 1 1403.39 696)">
   <path class="monochrome-0 multicolor-0:tintColor hierarchical-0:primary SFSymbolsPreviewWireframe" d="M83.46-40.4C81.16-40.4 79.36-42.2 79.36-44.5L79.36-62C79.36-65.4 76.56-68.2 73.16-68.2L19.76-68.2C16.36-68.2 13.56-65.4 13.56-62L13.56-44.5C13.56-42.2 11.76-40.4 9.46-40.4C7.16-40.4 5.36-42.2 5.36-44.5L5.36-62C5.36-69.9 11.86-76.4 19.76-76.4L73.26-76.4C81.16-76.4 87.66-69.9 87.66-62L87.66-44.5C87.66-42.2 85.76-40.4 83.46-40.4Z"/>
   <path class="monochrome-1 multicolor-1:tintColor hierarchical-1:primary SFSymbolsPreviewWireframe" d="M28.46-22.4C28.46-18.1474 25.0126-14.7 20.76-14.7C16.5074-14.7 13.06-18.1474 13.06-22.4C13.06-26.6526 16.5074-30.1 20.76-30.1C25.0126-30.1 28.46-26.6526 28.46-22.4ZM32.06 5.9L9.46 5.9C7.26 5.9 5.36 4 5.36 1.8C5.36-4.4 10.46-9.5 16.66-9.5L24.96-9.5C31.16-9.5 36.26-4.4 36.26 1.8C36.26 4 34.36 5.9 32.06 5.9ZM79.86-22.4C79.86-18.1474 76.4126-14.7 72.16-14.7C67.9074-14.7 64.46-18.1474 64.46-22.4C64.46-26.6526 67.9074-30.1 72.16-30.1C76.4126-30.1 79.86-26.6526 79.86-22.4ZM83.46 5.9L60.86 5.9C58.56 5.9 56.76 4.1 56.76 1.8C56.76-4.4 61.86-9.5 68.06-9.5L76.26-9.5C82.46-9.5 87.56-4.4 87.56 1.8C87.66 4 85.76 5.9 83.46 5.9Z"/>
   <path class="monochrome-2 multicolor-2:tintColor hierarchical-2:primary SFSymbolsPreviewWireframe" d="M50.66-25L42.46-25C40.86-25 39.46-25.9 38.76-27.3C37.46-30 36.26-31.8 35.16-33.4C33.06-36.5 31.16-39.4 31.16-44.9C31.16-53.9 37.96-60.9 46.56-60.9C55.16-60.9 61.96-53.9 61.96-44.9C61.96-39.9 60.16-37 57.96-33.6C56.86-31.9 55.66-29.9 54.36-27.2C53.66-25.9 52.16-25 50.66-25ZM44.86-33.2L48.06-33.2C49.16-35.2 50.16-36.7 50.96-38.1C52.86-41.1 53.66-42.5 53.66-45C53.66-49.4 50.56-52.8 46.46-52.8C42.36-52.8 39.26-49.5 39.26-45C39.26-42 40.06-40.8 41.86-38.1C42.76-36.7 43.86-35.2 44.86-33.2ZM52.66-11.6L40.36-11.6C38.06-11.6 36.26-13.4 36.26-15.7C36.26-18 38.06-19.8 40.36-19.8L52.66-19.8C54.96-19.8 56.76-18 56.76-15.7C56.76-13.4 54.96-11.6 52.66-11.6Z"/>
  </g>
  <g id="Ultralight-S" transform="matrix(1 0 0 1 515.011 696)">
   <path class="monochrome-0 multicolor-0:tintColor hierarchical-0:primary SFSymbolsPreviewWireframe" d="M81.775-43.2C81.075-43.2 80.475-43.7 80.475-44.5L80.475-62C80.475-67 76.475-71 71.475-71L17.975-71C12.975-71 8.975-67 8.975-62L8.975-44.5C8.975-43.8 8.375-43.2 7.675-43.2C6.775-43.2 6.375-43.9 6.375-44.5L6.375-62C6.375-68.4 11.575-73.6 17.975-73.6L71.475-73.6C77.875-73.6 83.075-68.4 83.075-62L83.075-44.5C83.075-43.9 82.575-43.2 81.775-43.2Z"/>
   <path class="monochrome-1 multicolor-1:tintColor hierarchical-1:primary SFSymbolsPreviewWireframe" d="M23.975-22.4C23.975-19.6938 21.7812-17.5 19.075-17.5C16.3688-17.5 14.175-19.6938 14.175-22.4C14.175-25.1062 16.3688-27.3 19.075-27.3C21.7812-27.3 23.975-25.1062 23.975-22.4ZM30.375 3L8.175 3C6.875 3 6.475 2.5 6.475 1.8C6.475-2.5 9.975-6.7 14.975-6.7L23.175-6.7C27.175-6.7 31.675-3.5 31.675 1.8C31.675 2.4 30.975 3 30.375 3ZM75.375-22.4C75.375-19.6938 73.1812-17.5 70.475-17.5C67.7688-17.5 65.575-19.6938 65.575-22.4C65.575-25.1062 67.7688-27.3 70.475-27.3C73.1812-27.3 75.375-25.1062 75.375-22.4ZM81.775 3L59.175 3C58.375 3 57.875 2.4 57.875 1.7C57.875-3.1 61.775-6.8 66.375-6.8L74.575-6.8C78.975-6.8 83.075-3.2 83.075 1.7C83.075 2.5 82.475 3 81.775 3Z"/>
   <path class="monochrome-2 multicolor-2:tintColor hierarchical-2:primary SFSymbolsPreviewWireframe" d="M48.875-27.8L40.675-27.8C40.075-27.8 39.775-27.9 39.475-28.5C38.375-30.8 36.775-33.3 35.675-35C33.575-38.1 32.175-40.4 32.175-44.9C32.175-53.2 38.875-58.1 44.775-58.1C50.775-58.1 57.375-53.2 57.375-44.9C57.375-40.8 55.975-38.5 53.875-35.2C52.775-33.5 51.475-31.2 50.075-28.5C49.775-28 49.275-27.8 48.875-27.8ZM41.475-30.4L48.075-30.4C49.175-32.4 50.775-35.2 51.675-36.6C53.575-39.6 54.875-41.6 54.875-45C54.875-52.3 49.375-55.6 44.875-55.6C39.675-55.6 34.875-51.6 34.875-45C34.875-41 36.175-39.2 37.975-36.5C38.675-35.1 40.375-32.3 41.475-30.4ZM50.775-14.3L38.675-14.3C37.875-14.3 37.275-14.9 37.275-15.7C37.275-16.5 37.875-17.1 38.675-17.1L50.775-17.1C51.575-17.1 52.175-16.5 52.175-15.7C52.175-14.9 51.575-14.3 50.775-14.3Z"/>
  </g>
 </g>
</svg>
