<?xml version="1.0" encoding="UTF-8"?>
<!--Generator: Apple Native CoreSVG 232.5-->
<!DOCTYPE svg
PUBLIC "-//W3C//DTD SVG 1.1//EN"
       "http://www.w3.org/Graphics/SVG/1.1/DTD/svg11.dtd">
<svg version="1.1" xmlns="http://www.w3.org/2000/svg" xmlns:xlink="http://www.w3.org/1999/xlink" width="3300" height="2200">
 <!--glyph: "", point size: 100.0, font version: "19.0d6e1", template writer version: "123"-->
 <style>.SFSymbolsPreviewWireframe {fill:none;opacity:1.0;stroke:black;stroke-width:0.5}
</style>
 <g id="Notes">
  <rect height="2200" id="artboard" style="fill:white;opacity:1" width="3300" x="0" y="0"/>
  <line style="fill:none;stroke:black;opacity:1;stroke-width:0.5;" x1="263" x2="3036" y1="292" y2="292"/>
  <text style="stroke:none;fill:black;font-family:sans-serif;font-size:13;font-weight:bold;" transform="matrix(1 0 0 1 263 322)">Weight/Scale Variations</text>
  <text style="stroke:none;fill:black;font-family:sans-serif;font-size:13;text-anchor:middle;" transform="matrix(1 0 0 1 559.711 322)">Ultralight</text>
  <text style="stroke:none;fill:black;font-family:sans-serif;font-size:13;text-anchor:middle;" transform="matrix(1 0 0 1 856.422 322)">Thin</text>
  <text style="stroke:none;fill:black;font-family:sans-serif;font-size:13;text-anchor:middle;" transform="matrix(1 0 0 1 1153.13 322)">Light</text>
  <text style="stroke:none;fill:black;font-family:sans-serif;font-size:13;text-anchor:middle;" transform="matrix(1 0 0 1 1449.84 322)">Regular</text>
  <text style="stroke:none;fill:black;font-family:sans-serif;font-size:13;text-anchor:middle;" transform="matrix(1 0 0 1 1746.56 322)">Medium</text>
  <text style="stroke:none;fill:black;font-family:sans-serif;font-size:13;text-anchor:middle;" transform="matrix(1 0 0 1 2043.27 322)">Semibold</text>
  <text style="stroke:none;fill:black;font-family:sans-serif;font-size:13;text-anchor:middle;" transform="matrix(1 0 0 1 2339.98 322)">Bold</text>
  <text style="stroke:none;fill:black;font-family:sans-serif;font-size:13;text-anchor:middle;" transform="matrix(1 0 0 1 2636.69 322)">Heavy</text>
  <text style="stroke:none;fill:black;font-family:sans-serif;font-size:13;text-anchor:middle;" transform="matrix(1 0 0 1 2933.4 322)">Black</text>
  <line style="fill:none;stroke:black;opacity:1;stroke-width:0.5;" x1="263" x2="3036" y1="1903" y2="1903"/>
  <g transform="matrix(0.2 0 0 0.2 263 1933)">
   <path d="m46.2402 4.15039c21.5332 0 39.4531-17.8711 39.4531-39.4043s-17.9688-39.4043-39.502-39.4043c-21.4844 0-39.3555 17.8711-39.3555 39.4043s17.9199 39.4043 39.4043 39.4043Zm0-7.42188c-17.7246 0-31.8848-14.209-31.8848-31.9824s14.1113-31.9824 31.8359-31.9824c17.7734 0 32.0312 14.209 32.0312 31.9824s-14.209 31.9824-31.9824 31.9824Zm-17.9688-31.9824c0 2.14844 1.51367 3.61328 3.75977 3.61328h10.498v10.5957c0 2.19727 1.46484 3.71094 3.61328 3.71094 2.24609 0 3.71094-1.51367 3.71094-3.71094v-10.5957h10.5957c2.19727 0 3.71094-1.46484 3.71094-3.61328 0-2.19727-1.51367-3.71094-3.71094-3.71094h-10.5957v-10.5469c0-2.24609-1.46484-3.75977-3.71094-3.75977-2.14844 0-3.61328 1.51367-3.61328 3.75977v10.5469h-10.498c-2.24609 0-3.75977 1.51367-3.75977 3.71094Z"/>
  </g>
  <g transform="matrix(0.2 0 0 0.2 281.506 1933)">
   <path d="m58.5449 14.5508c27.2461 0 49.8047-22.6074 49.8047-49.8047 0-27.2461-22.6074-49.8047-49.8535-49.8047-27.1973 0-49.7559 22.5586-49.7559 49.8047 0 27.1973 22.6074 49.8047 49.8047 49.8047Zm0-8.30078c-23.0469 0-41.4551-18.457-41.4551-41.5039s18.3594-41.5039 41.4062-41.5039 41.5527 18.457 41.5527 41.5039-18.457 41.5039-41.5039 41.5039Zm-22.6562-41.5039c0 2.39258 1.66016 4.00391 4.15039 4.00391h14.3555v14.4043c0 2.44141 1.66016 4.15039 4.05273 4.15039 2.44141 0 4.15039-1.66016 4.15039-4.15039v-14.4043h14.4043c2.44141 0 4.15039-1.61133 4.15039-4.00391 0-2.44141-1.70898-4.15039-4.15039-4.15039h-14.4043v-14.3555c0-2.49023-1.70898-4.19922-4.15039-4.19922-2.39258 0-4.05273 1.70898-4.05273 4.19922v14.3555h-14.3555c-2.49023 0-4.15039 1.70898-4.15039 4.15039Z"/>
  </g>
  <g transform="matrix(0.2 0 0 0.2 304.924 1933)">
   <path d="m74.8535 28.3203c34.8145 0 63.623-28.8086 63.623-63.5742 0-34.8145-28.8574-63.623-63.6719-63.623-34.7656 0-63.5254 28.8086-63.5254 63.623 0 34.7656 28.8086 63.5742 63.5742 63.5742Zm0-9.08203c-30.1758 0-54.4434-24.3164-54.4434-54.4922 0-30.2246 24.2188-54.4922 54.3945-54.4922 30.2246 0 54.541 24.2676 54.541 54.4922 0 30.1758-24.2676 54.4922-54.4922 54.4922Zm-28.8574-54.4922c0 2.58789 1.85547 4.39453 4.58984 4.39453h19.7266v19.7754c0 2.68555 1.85547 4.58984 4.44336 4.58984 2.68555 0 4.54102-1.85547 4.54102-4.58984v-19.7754h19.7754c2.68555 0 4.58984-1.80664 4.58984-4.39453 0-2.73438-1.85547-4.58984-4.58984-4.58984h-19.7754v-19.7266c0-2.73438-1.85547-4.63867-4.54102-4.63867-2.58789 0-4.44336 1.9043-4.44336 4.63867v19.7266h-19.7266c-2.73438 0-4.58984 1.85547-4.58984 4.58984Z"/>
  </g>
  <text style="stroke:none;fill:black;font-family:sans-serif;font-size:13;font-weight:bold;" transform="matrix(1 0 0 1 263 1953)">Design Variations</text>
  <text style="stroke:none;fill:black;font-family:sans-serif;font-size:13;" transform="matrix(1 0 0 1 263 1971)">Symbols are supported in up to nine weights and three scales.</text>
  <text style="stroke:none;fill:black;font-family:sans-serif;font-size:13;" transform="matrix(1 0 0 1 263 1989)">For optimal layout with text and other symbols, vertically align</text>
  <text style="stroke:none;fill:black;font-family:sans-serif;font-size:13;" transform="matrix(1 0 0 1 263 2007)">symbols with the adjacent text.</text>
  <line style="fill:none;stroke:#00AEEF;stroke-width:0.5;opacity:1.0;" x1="776" x2="776" y1="1919" y2="1933"/>
  <g transform="matrix(0.2 0 0 0.2 776 1933)">
   <path d="m16.5527 0.78125c2.58789 0 3.85742-0.976562 4.78516-3.71094l6.29883-17.2363h28.8086l6.29883 17.2363c0.927734 2.73438 2.19727 3.71094 4.73633 3.71094 2.58789 0 4.24805-1.5625 4.24805-4.00391 0-0.830078-0.146484-1.61133-0.537109-2.63672l-22.9004-60.9863c-1.12305-2.97852-3.125-4.49219-6.25-4.49219-3.02734 0-5.07812 1.46484-6.15234 4.44336l-22.9004 61.084c-0.390625 1.02539-0.537109 1.80664-0.537109 2.63672 0 2.44141 1.5625 3.95508 4.10156 3.95508Zm13.4766-28.3691 11.8652-32.8613h0.244141l11.8652 32.8613Z"/>
  </g>
  <line style="fill:none;stroke:#00AEEF;stroke-width:0.5;opacity:1.0;" x1="792.836" x2="792.836" y1="1919" y2="1933"/>
  <text style="stroke:none;fill:black;font-family:sans-serif;font-size:13;font-weight:bold;" transform="matrix(1 0 0 1 776 1953)">Margins</text>
  <text style="stroke:none;fill:black;font-family:sans-serif;font-size:13;" transform="matrix(1 0 0 1 776 1971)">Leading and trailing margins on the left and right side of each symbol</text>
  <text style="stroke:none;fill:black;font-family:sans-serif;font-size:13;" transform="matrix(1 0 0 1 776 1989)">can be adjusted by modifying the x-location of the margin guidelines.</text>
  <text style="stroke:none;fill:black;font-family:sans-serif;font-size:13;" transform="matrix(1 0 0 1 776 2007)">Modifications are automatically applied proportionally to all</text>
  <text style="stroke:none;fill:black;font-family:sans-serif;font-size:13;" transform="matrix(1 0 0 1 776 2025)">scales and weights.</text>
  <g transform="matrix(0.2 0 0 0.2 1289 1933)">
   <path d="m14.209 9.32617 8.49609 8.54492c4.29688 4.3457 9.22852 4.05273 13.8672-1.07422l53.4668-58.9355-4.83398-4.88281-53.0762 58.3984c-1.75781 2.00195-3.41797 2.49023-5.76172 0.146484l-5.85938-5.81055c-2.34375-2.29492-1.80664-4.00391 0.195312-5.81055l57.373-54.0039-4.88281-4.83398-57.959 54.4434c-4.93164 4.58984-5.32227 9.47266-1.02539 13.8184Zm32.0801-90.9668c-2.09961 2.05078-2.24609 4.93164-1.07422 6.88477 1.17188 1.80664 3.4668 2.97852 6.68945 2.14844 7.32422-1.70898 14.9414-2.00195 22.0703 2.68555l-2.92969 7.27539c-1.70898 4.15039-0.830078 7.08008 1.85547 9.81445l11.4746 11.5723c2.44141 2.44141 4.49219 2.53906 7.32422 2.05078l5.32227-0.976562 3.32031 3.36914-0.195312 2.7832c-0.195312 2.49023 0.439453 4.39453 2.88086 6.78711l3.80859 3.71094c2.39258 2.39258 5.46875 2.53906 7.8125 0.195312l14.5508-14.5996c2.34375-2.34375 2.24609-5.32227-0.146484-7.71484l-3.85742-3.80859c-2.39258-2.39258-4.24805-3.17383-6.64062-2.97852l-2.88086 0.244141-3.22266-3.17383 1.2207-5.61523c0.634766-2.83203-0.146484-5.0293-3.07617-7.95898l-10.9863-10.9375c-16.6992-16.6016-38.8672-16.2109-53.3203-1.75781Zm7.4707 1.85547c12.1582-8.88672 28.6133-7.37305 39.7461 3.75977l12.1582 12.0605c1.17188 1.17188 1.36719 2.09961 1.02539 3.80859l-1.61133 7.42188 7.51953 7.42188 4.93164-0.292969c1.26953-0.0488281 1.66016 0.0488281 2.63672 1.02539l2.88086 2.88086-12.207 12.207-2.88086-2.88086c-0.976562-0.976562-1.12305-1.36719-1.07422-2.68555l0.341797-4.88281-7.4707-7.42188-7.61719 1.26953c-1.61133 0.341797-2.34375 0.195312-3.56445-0.976562l-10.0098-10.0098c-1.26953-1.17188-1.41602-2.00195-0.634766-3.85742l4.39453-10.4492c-7.8125-7.27539-17.9688-10.4004-28.125-7.42188-0.78125 0.195312-1.07422-0.439453-0.439453-0.976562Z"/>
  </g>
  <text style="stroke:none;fill:black;font-family:sans-serif;font-size:13;font-weight:bold;" transform="matrix(1 0 0 1 1289 1953)">Exporting</text>
  <text style="stroke:none;fill:black;font-family:sans-serif;font-size:13;" transform="matrix(1 0 0 1 1289 1971)">Symbols should be outlined when exporting to ensure the</text>
  <text style="stroke:none;fill:black;font-family:sans-serif;font-size:13;" transform="matrix(1 0 0 1 1289 1989)">design is preserved when submitting to Xcode.</text>
  <text id="template-version" style="stroke:none;fill:black;font-family:sans-serif;font-size:13;text-anchor:end;" transform="matrix(1 0 0 1 3036 1933)">Template v.5.0</text>
  <text style="stroke:none;fill:black;font-family:sans-serif;font-size:13;text-anchor:end;" transform="matrix(1 0 0 1 3036 1951)">Requires Xcode 15 or greater</text>
  <text id="descriptive-name" style="stroke:none;fill:black;font-family:sans-serif;font-size:13;text-anchor:end;" transform="matrix(1 0 0 1 3036 1969)">Generated from x.ray</text>
  <text style="stroke:none;fill:black;font-family:sans-serif;font-size:13;text-anchor:end;" transform="matrix(1 0 0 1 3036 1987)">Typeset at 100.0 points</text>
  <text style="stroke:none;fill:black;font-family:sans-serif;font-size:13;" transform="matrix(1 0 0 1 263 726)">Small</text>
  <text style="stroke:none;fill:black;font-family:sans-serif;font-size:13;" transform="matrix(1 0 0 1 263 1156)">Medium</text>
  <text style="stroke:none;fill:black;font-family:sans-serif;font-size:13;" transform="matrix(1 0 0 1 263 1586)">Large</text>
 </g>
 <g id="Guides">
  <g id="H-reference" style="fill:#27AAE1;stroke:none;" transform="matrix(1 0 0 1 339 696)">
   <path d="M0.993654 0L3.63775 0L29.3281-67.1323L30.0303-67.1323L30.0303-70.459L28.1226-70.459ZM11.6885-24.4799L46.9815-24.4799L46.2315-26.7285L12.4385-26.7285ZM55.1196 0L57.7637 0L30.6382-70.459L29.4326-70.459L29.4326-67.1323Z"/>
  </g>
  <line id="Baseline-S" style="fill:none;stroke:#27AAE1;opacity:1;stroke-width:0.5;" x1="263" x2="3036" y1="696" y2="696"/>
  <line id="Capline-S" style="fill:none;stroke:#27AAE1;opacity:1;stroke-width:0.5;" x1="263" x2="3036" y1="625.541" y2="625.541"/>
  <g id="H-reference" style="fill:#27AAE1;stroke:none;" transform="matrix(1 0 0 1 339 1126)">
   <path d="M0.993654 0L3.63775 0L29.3281-67.1323L30.0303-67.1323L30.0303-70.459L28.1226-70.459ZM11.6885-24.4799L46.9815-24.4799L46.2315-26.7285L12.4385-26.7285ZM55.1196 0L57.7637 0L30.6382-70.459L29.4326-70.459L29.4326-67.1323Z"/>
  </g>
  <line id="Baseline-M" style="fill:none;stroke:#27AAE1;opacity:1;stroke-width:0.5;" x1="263" x2="3036" y1="1126" y2="1126"/>
  <line id="Capline-M" style="fill:none;stroke:#27AAE1;opacity:1;stroke-width:0.5;" x1="263" x2="3036" y1="1055.54" y2="1055.54"/>
  <g id="H-reference" style="fill:#27AAE1;stroke:none;" transform="matrix(1 0 0 1 339 1556)">
   <path d="M0.993654 0L3.63775 0L29.3281-67.1323L30.0303-67.1323L30.0303-70.459L28.1226-70.459ZM11.6885-24.4799L46.9815-24.4799L46.2315-26.7285L12.4385-26.7285ZM55.1196 0L57.7637 0L30.6382-70.459L29.4326-70.459L29.4326-67.1323Z"/>
  </g>
  <line id="Baseline-L" style="fill:none;stroke:#27AAE1;opacity:1;stroke-width:0.5;" x1="263" x2="3036" y1="1556" y2="1556"/>
  <line id="Capline-L" style="fill:none;stroke:#27AAE1;opacity:1;stroke-width:0.5;" x1="263" x2="3036" y1="1485.54" y2="1485.54"/>
  <line id="left-margin-Ultralight-S" style="fill:none;stroke:#00AEEF;stroke-width:0.5;opacity:1.0;" x1="515.011" x2="515.011" y1="600.785" y2="720.121"/>
  <line id="right-margin-Ultralight-S" style="fill:none;stroke:#00AEEF;stroke-width:0.5;opacity:1.0;" x1="604.411" x2="604.411" y1="600.785" y2="720.121"/>
  <line id="left-margin-Regular-S" style="fill:none;stroke:#00AEEF;stroke-width:0.5;opacity:1.0;" x1="1403.39" x2="1403.39" y1="600.785" y2="720.121"/>
  <line id="right-margin-Regular-S" style="fill:none;stroke:#00AEEF;stroke-width:0.5;opacity:1.0;" x1="1496.29" x2="1496.29" y1="600.785" y2="720.121"/>
  <line id="left-margin-Black-S" style="fill:none;stroke:#00AEEF;stroke-width:0.5;opacity:1.0;" x1="2884.9" x2="2884.9" y1="600.785" y2="720.121"/>
  <line id="right-margin-Black-S" style="fill:none;stroke:#00AEEF;stroke-width:0.5;opacity:1.0;" x1="2981.9" x2="2981.9" y1="600.785" y2="720.121"/>
 </g>
 <g id="Symbols">
  <g id="Black-S" transform="matrix(1 0 0 1 2884.9 696)">
   <path class="SFSymbolsPreviewWireframe" d="M11.51 8.7C8.11 8.7 4.61 6.3 4.61 1.8L4.61-72.2C4.61-76 7.71-79.1 11.51-79.1L85.51-79.1C87.61-79.1 92.21-77.8 92.41-72.2C92.61-66.9 87.91-65.3 85.51-65.3L18.41-65.3L18.41 1.8C18.41 6.3 14.61 8.7 11.51 8.7ZM29.01-58.1C25.21-58.1 22.11-61.2 22.11-65L22.11-72.2C22.11-76 25.21-79.1 29.01-79.1C32.81-79.1 35.91-76 35.91-72.2L35.91-65C35.91-61.2 32.81-58.1 29.01-58.1ZM19.71-42.7L11.51-42.7C7.71-42.7 4.61-45.8 4.61-49.6C4.61-53.4 7.71-56.5 11.51-56.5L19.71-56.5C23.51-56.5 26.61-53.4 26.61-49.6C26.61-45.8 23.51-42.7 19.71-42.7ZM19.71-27.3L11.51-27.3C7.71-27.3 4.61-30.4 4.61-34.2C4.61-38 7.71-41.1 11.51-41.1L19.71-41.1C23.51-41.1 26.61-38 26.61-34.2C26.61-30.4 23.51-27.3 19.71-27.3ZM19.71-11.9L11.51-11.9C7.71-11.9 4.61-15 4.61-18.8C4.61-22.6 7.71-25.7 11.51-25.7L19.71-25.7C23.51-25.7 26.61-22.6 26.61-18.8C26.61-15 23.51-11.9 19.71-11.9ZM70.11-1.6L69.21-1.6C65.71-1.6 61.41-3.3 58.31-7.2L38.31-33.8C37.91-34.2 37.61-34.4 37.21-34.4C34.21-34.4 30.31-36.6 30.31-41.3C30.31-43.6 31.81-48.2 37.21-48.2C41.41-48.2 46.11-46.1 48.51-43.1C48.51-43.1 49.21-42.3 49.21-42.3L69.51-15.4C69.51-15.4 69.61-15.3 69.71-15.3L70.11-15.3C73.71-15.3 77.01-12.4 77.01-8.4C77.01-5.2 74.41-1.6 70.11-1.6ZM37.71-1.6L37.11-1.6C32.91-1.6 30.21-5.1 30.21-8.5C30.21-12.3 33.41-15.4 36.41-15.4L37.91-15.4C38.21-15.4 38.21-15.5 38.31-15.6L58.41-42.6C60.51-45.4 64.61-48.3 69.71-48.3L70.11-48.3C74.01-48.3 77.01-45.1 77.01-41.4C77.01-36.5 72.91-34.5 70.11-34.5L69.81-34.5C69.51-34.5 69.61-34.5 69.31-34.2L49.31-7.3C47.11-4.2 42.71-1.6 37.71-1.6ZM44.41-58.1C40.61-58.1 37.51-61.2 37.51-65L37.51-72.2C37.51-76 40.61-79.1 44.41-79.1C48.21-79.1 51.31-76 51.31-72.2L51.31-65C51.31-61.2 48.21-58.1 44.41-58.1ZM62.91-58.1C59.11-58.1 56.01-61.2 56.01-65L56.01-72.2C56.01-76 59.11-79.1 62.91-79.1C66.71-79.1 69.81-76 69.81-72.2L69.81-65C69.81-61.2 66.71-58.1 62.91-58.1ZM78.31-58.1C74.51-58.1 71.41-61.2 71.41-65L71.41-72.2C71.41-76 74.51-79.1 78.31-79.1C82.11-79.1 85.21-76 85.21-72.2L85.21-65C85.21-61.2 82.11-58.1 78.31-58.1Z"/>
  </g>
  <g id="Regular-S" transform="matrix(1 0 0 1 1403.39 696)">
   <path class="SFSymbolsPreviewWireframe" d="M9.46 5.9C7.26 5.9 5.36 4 5.36 1.8L5.36-72.2C5.36-74.5 7.16-76.3 9.46-76.3L83.46-76.3C85.76-76.3 87.56-74.5 87.56-72.2C87.56-69.9 85.76-68.1 83.46-68.1L13.56-68.1L13.56 1.8C13.56 4 11.76 5.9 9.46 5.9ZM26.96-60.9C24.66-60.9 22.86-62.7 22.86-65L22.86-72.2C22.86-74.5 24.66-76.3 26.96-76.3C29.26-76.3 31.06-74.5 31.06-72.2L31.06-65C31.06-62.8 29.26-60.9 26.96-60.9ZM17.76-45.5L9.46-45.5C7.16-45.5 5.36-47.3 5.36-49.6C5.36-51.9 7.16-53.7 9.46-53.7L17.66-53.7C19.96-53.7 21.76-51.9 21.76-49.6C21.76-47.3 19.96-45.5 17.76-45.5ZM17.76-30.1L9.46-30.1C7.16-30.1 5.36-31.9 5.36-34.2C5.36-36.5 7.16-38.3 9.46-38.3L17.66-38.3C19.96-38.3 21.76-36.5 21.76-34.2C21.76-31.9 19.96-30.1 17.76-30.1ZM17.76-14.7L9.46-14.7C7.16-14.7 5.36-16.5 5.36-18.8C5.36-21.1 7.16-22.9 9.46-22.9L17.66-22.9C19.96-22.9 21.76-21.1 21.76-18.8C21.76-16.5 19.96-14.7 17.76-14.7ZM68.06-4.4L67.66-4.4C64.16-4.4 60.76-6.1 58.66-8.9L38.56-35.6C37.66-36.7 36.46-37.3 35.26-37.3C32.96-37.3 31.16-39.1 31.16-41.4C31.16-43.7 32.96-45.5 35.26-45.5C38.96-45.5 42.66-43.7 45.06-40.7C45.06-40.7 45.06-40.6 45.16-40.6L65.26-13.9C65.46-13.6 66.26-12.7 67.76-12.7L68.16-12.7C70.46-12.7 72.26-10.9 72.26-8.6C72.26-6.3 70.36-4.4 68.06-4.4ZM36.06-4.4L35.26-4.4C32.96-4.4 31.16-6.2 31.16-8.5C31.16-10.8 32.96-12.6 35.26-12.6L36.06-12.6C36.86-12.6 38.06-13.2 38.56-13.8L58.66-41C60.76-43.8 64.16-45.5 67.76-45.5L68.16-45.5C70.46-45.5 72.26-43.7 72.26-41.4C72.26-39.1 70.46-37.3 68.16-37.3L67.76-37.3C66.36-37.3 65.56-36.4 65.26-36.1L45.06-8.9C43.06-6.3 39.36-4.4 36.06-4.4ZM42.36-60.9C40.06-60.9 38.26-62.7 38.26-65L38.26-72.2C38.26-74.5 40.06-76.3 42.36-76.3C44.66-76.3 46.46-74.5 46.46-72.2L46.46-65C46.46-62.8 44.66-60.9 42.36-60.9ZM60.86-60.9C58.56-60.9 56.76-62.7 56.76-65L56.76-72.2C56.76-74.5 58.56-76.3 60.86-76.3C63.16-76.3 64.96-74.5 64.96-72.2L64.96-65C64.96-62.8 63.16-60.9 60.86-60.9ZM76.36-60.9C74.06-60.9 72.26-62.7 72.26-65L72.26-72.2C72.26-74.5 74.06-76.3 76.36-76.3C78.66-76.3 80.46-74.5 80.46-72.2L80.46-65C80.46-62.8 78.56-60.9 76.36-60.9Z"/>
  </g>
  <g id="Ultralight-S" transform="matrix(1 0 0 1 515.011 696)">
   <path class="SFSymbolsPreviewWireframe" d="M7.775 3C7.175 3 6.475 2.5 6.475 1.8L6.475-72.2C6.475-72.9 7.075-73.5 7.775-73.5L81.775-73.5C82.375-73.5 83.075-73 83.075-72.2C83.075-71.5 82.575-71 81.775-70.9L8.975-70.9L8.975 1.8C8.975 2.6 8.375 3 7.775 3ZM25.175-63.8C24.475-63.8 23.875-64.4 23.875-65.1L23.875-72.3C23.875-73 24.475-73.6 25.175-73.6C25.875-73.6 26.475-73 26.475-72.3L26.475-65.1C26.475-64.4 25.875-63.8 25.175-63.8ZM15.975-48.4L7.775-48.4C7.075-48.4 6.475-49 6.475-49.7C6.475-50.4 7.075-51 7.775-51L15.975-51C16.675-51 17.275-50.4 17.275-49.7C17.275-49 16.675-48.4 15.975-48.4ZM15.975-32.9L7.775-32.9C7.075-32.9 6.475-33.5 6.475-34.2C6.475-34.9 7.075-35.5 7.775-35.5L15.975-35.5C16.675-35.5 17.275-34.9 17.275-34.2C17.275-33.5 16.675-32.9 15.975-32.9ZM15.975-17.5L7.775-17.5C7.075-17.5 6.475-18.1 6.475-18.8C6.475-19.5 7.075-20.1 7.775-20.1L15.975-20.1C16.675-20.1 17.275-19.5 17.275-18.8C17.275-18.1 16.675-17.5 15.975-17.5ZM66.375-7.2L66.375-7.2C64.275-7.2 61.275-7.8 59.175-10.6L38.975-37.4C38.075-38.5 36.175-40.1 33.475-40.1C32.775-40.1 32.175-40.7 32.175-41.4C32.175-42.1 32.775-42.7 33.475-42.7C35.275-42.7 37.975-42.2 40.475-39.6C40.475-39.6 40.975-39 41.075-39L61.275-12.2C61.475-11.9 63.075-9.7 66.375-9.8L66.375-9.8C67.175-9.8 67.675-9.2 67.675-8.5C67.575-8 67.275-7.2 66.375-7.2ZM34.275-7.2L33.475-7.2C32.775-7.2 32.175-7.7 32.175-8.5C32.175-9.1 32.575-9.8 33.475-9.8L34.275-9.8C36.775-9.8 38.575-11.6 39.075-12.2L59.175-39.3C60.475-40.9 62.575-42.7 66.375-42.7L66.375-42.7C67.075-42.7 67.675-42.2 67.675-41.4C67.675-40.7 67.075-40.1 66.375-40.1L65.675-40.1C63.075-40.1 61.475-38 61.275-37.7L41.075-10.6C39.075-8 35.675-7.2 34.275-7.2ZM40.675-63.8C39.975-63.8 39.375-64.4 39.375-65.1L39.375-72.3C39.375-73 39.975-73.6 40.675-73.6C41.375-73.6 41.975-73 41.975-72.3L41.975-65.1C41.875-64.4 41.375-63.8 40.675-63.8ZM59.175-63.8C58.475-63.8 57.875-64.4 57.875-65.1L57.875-72.3C57.875-73 58.475-73.6 59.175-73.6C59.875-73.6 60.475-73 60.475-72.3L60.475-65.1C60.375-64.4 59.875-63.8 59.175-63.8ZM74.575-63.8C73.875-63.8 73.275-64.4 73.275-65.1L73.275-72.3C73.275-73 73.875-73.6 74.575-73.6C75.275-73.6 75.875-73 75.875-72.3L75.875-65.1C75.875-64.4 75.275-63.8 74.575-63.8Z"/>
  </g>
 </g>
</svg>
