<svg width="45" height="45" viewBox="0 0 45 45" fill="none" xmlns="http://www.w3.org/2000/svg">
<path fill-rule="evenodd" clip-rule="evenodd" d="M30.7345 29.693C29.4677 28.1576 27.702 26.4867 25.2537 24.5185C25.2256 24.4959 25.1986 24.4717 25.1719 24.4475C25.0457 24.3334 24.6424 23.9738 24.1676 23.3703C23.8277 22.9377 23.8274 22.265 24.166 21.8313C24.6499 21.2117 25.0625 20.844 25.1886 20.7299C25.2145 20.7065 25.2405 20.6831 25.2677 20.6612C27.7242 18.6837 29.4906 17.0124 30.7499 15.4857C31.9228 14.0601 32.6608 12.7626 33.1269 11.4651C33.8571 9.45015 33.9213 7.41928 33.9266 4.90914C33.9273 4.5938 33.6715 4.33789 33.3562 4.33789L11.6443 4.33789C11.3315 4.33789 11.0766 4.5899 11.0744 4.90274C11.0567 7.39967 11.134 9.43228 11.8642 11.4651C12.3461 12.7626 13.0917 14.0601 14.2649 15.4857C15.5316 17.021 17.2974 18.6918 19.7455 20.6598C19.7739 20.6826 19.8012 20.7072 19.8283 20.7317C19.9517 20.8432 20.3369 21.187 20.7948 21.7618C21.1581 22.2178 21.1584 22.9369 20.7963 23.3945C20.3304 23.9833 19.9367 24.3348 19.8123 24.4474C19.7856 24.4716 19.7586 24.4959 19.7305 24.5185C17.2745 26.4956 15.5086 28.1663 14.2495 29.693C13.0765 31.1183 12.3383 32.416 11.8725 33.7135C11.1423 35.7285 11.0781 37.7592 11.0727 40.2695C11.0721 40.5849 11.3279 40.8408 11.6432 40.8408H33.3553C33.6682 40.8408 33.923 40.5888 33.9252 40.2759C33.9429 37.779 33.8656 35.7464 33.1352 33.7135C32.6533 32.416 31.9077 31.1183 30.7345 29.693Z" fill="#CEDBE8"/>
<path fill-rule="evenodd" clip-rule="evenodd" d="M30.75 15.4857C29.4906 17.0124 27.7242 18.6837 25.2678 20.6612C25.2406 20.6831 25.2146 20.7065 25.1887 20.7299L25.1781 20.7395C25.0407 20.8636 24.6372 21.228 24.1661 21.8313C23.8275 22.265 23.8277 22.9377 24.1677 23.3703C24.6303 23.9583 25.0249 24.3147 25.1616 24.4382L25.1719 24.4475C25.1987 24.4717 25.2256 24.4959 25.2538 24.5185C27.7021 26.4867 29.4678 28.1576 30.7345 29.693C31.9077 31.1183 32.6534 32.416 33.1352 33.7135C33.8657 35.7464 33.943 37.779 33.9253 40.2759C33.9231 40.5888 33.6682 40.8408 33.3554 40.8408H11.6433C11.3279 40.8408 11.0721 40.5849 11.0728 40.2695C11.0782 37.7592 11.1423 35.7285 11.8725 33.7135C12.3384 32.416 13.0766 31.1183 14.2495 29.693C15.5086 28.1663 17.2746 26.4956 19.7306 24.5185C19.7587 24.4959 19.7856 24.4716 19.8124 24.4474L19.8229 24.4379C19.9577 24.3159 20.3428 23.9676 20.7964 23.3945C21.1584 22.9369 21.1582 22.2178 20.7948 21.7618C20.3489 21.2019 19.9717 20.8612 19.8385 20.7408C19.8349 20.7376 19.8315 20.7346 19.8283 20.7317C19.8013 20.7072 19.774 20.6826 19.7455 20.6598C17.2975 18.6918 15.5316 17.021 14.265 15.4857C13.0918 14.0601 12.3461 12.7626 11.8643 11.4651C11.1341 9.43228 11.0568 7.39967 11.0745 4.90274C11.0767 4.5899 11.3315 4.33789 11.6444 4.33789L33.3562 4.33789C33.6715 4.33789 33.9274 4.5938 33.9267 4.90914C33.9213 7.41928 33.8571 9.45015 33.1269 11.4651C32.6608 12.7626 31.9229 14.0601 30.75 15.4857ZM34.0676 11.8046C34.8637 9.60688 34.9213 7.41389 34.9267 4.91128C34.9286 4.04176 34.2236 3.33789 33.3562 3.33789L11.6444 3.33789C10.7844 3.33789 10.0806 4.03095 10.0745 4.89565C10.0567 7.39995 10.1279 9.58934 10.9232 11.8032L10.9231 11.8032L10.9268 11.8132C11.4529 13.2299 12.2598 14.6228 13.4928 16.1211L13.4936 16.1221C14.8204 17.7302 16.6435 19.4492 19.119 21.4392C19.119 21.4391 19.1216 21.4413 19.1285 21.4473C19.1357 21.4536 19.144 21.4611 19.1576 21.4734L19.1679 21.4827C19.287 21.5903 19.6173 21.8885 20.0126 22.3848L20.0127 22.385C20.0853 22.4761 20.0867 22.6798 20.0122 22.774C19.6099 23.2824 19.2724 23.5875 19.1518 23.6965C19.1481 23.6999 19.1445 23.7031 19.1412 23.7061C19.1278 23.7183 19.1196 23.7257 19.1125 23.7318C19.1059 23.7376 19.1034 23.7397 19.1035 23.7396C16.6209 25.7381 14.7974 27.4569 13.478 29.0567L13.4774 29.0576C12.2436 30.5567 11.4424 31.9529 10.9319 33.3743C10.1358 35.5719 10.0782 37.7646 10.0728 40.2674C10.0709 41.1369 10.7759 41.8408 11.6433 41.8408H33.3554C34.2154 41.8408 34.9191 41.1477 34.9253 40.283C34.943 37.7787 34.8718 35.5893 34.0763 33.3754L34.0763 33.3754L34.0726 33.3654C33.5466 31.9488 32.7398 30.5556 31.5066 29.0575L30.7345 29.693L31.5059 29.0566C30.179 27.4484 28.3561 25.7293 25.8803 23.7391C25.8803 23.7392 25.8799 23.7388 25.8789 23.7379C25.8775 23.7368 25.875 23.7347 25.8712 23.7313C25.8641 23.7251 25.8559 23.7178 25.8425 23.7057C25.8392 23.7027 25.8357 23.6995 25.832 23.6962C25.7101 23.5861 25.3642 23.2738 24.9539 22.7524M34.0676 11.8046C33.5568 13.2258 32.7559 14.6216 31.5222 16.121L31.5214 16.122C30.2018 17.7218 28.378 19.4411 25.8949 21.4402L25.8949 21.4402C25.8949 21.4402 25.8925 21.4421 25.8867 21.4472L25.8594 21.4716C25.8561 21.4747 25.8525 21.4779 25.8487 21.4813C25.7264 21.5918 25.3725 21.9113 24.9543 22.4467C24.8981 22.5187 24.899 22.6823 24.9539 22.7523" fill="#688FB7"/>
<path fill-rule="evenodd" clip-rule="evenodd" d="M30.9834 39.9021C31.5483 39.9021 31.7898 39.1409 31.3474 38.7898C29.6854 37.4709 28.1225 35.9017 26.7674 34.3802C24.3412 31.6563 19.6959 31.6995 17.3898 34.5258C16.1831 36.0047 14.8199 37.5319 13.4035 38.8518C13.0116 39.217 13.2641 39.9021 13.7997 39.9021H30.9834ZM33.8593 40.5192C33.8546 40.5165 33.8487 40.5182 33.8461 40.5229C33.7389 40.7132 33.5346 40.8417 33.3007 40.8417H11.6988C11.5246 40.8417 11.3669 40.7705 11.2535 40.6556C11.2494 40.6515 11.2429 40.6509 11.2382 40.6543C11.2325 40.6584 11.2317 40.6666 11.2366 40.6716C11.3401 40.7766 11.4841 40.8417 11.6432 40.8417H33.3553C33.5764 40.8417 33.7685 40.7159 33.863 40.5316C33.8653 40.5271 33.8636 40.5217 33.8593 40.5192Z" fill="#F58B00"/>
<path fill-rule="evenodd" clip-rule="evenodd" d="M21.6194 21.2977C21.7977 21.5579 22.0176 21.813 22.3268 21.8752C22.7749 21.9654 23.1444 21.6136 23.4257 21.2533L23.4258 21.2532C23.9469 20.586 24.397 20.1794 24.5492 20.0419L24.5551 20.0366C24.5832 20.0112 24.6297 19.9691 24.6827 19.9265C26.0166 18.8524 27.1341 17.8782 28.0696 16.9767C28.7723 16.2995 28.2729 15.1778 27.2971 15.1778L17.7179 15.1779C16.7421 15.1779 16.2425 16.2998 16.9449 16.9771C17.8817 17.8804 18.9986 18.8538 20.3302 19.9244C20.3848 19.9683 20.4331 20.0119 20.4622 20.0383L20.4622 20.0383L20.4625 20.0385L20.4677 20.0433C20.615 20.1763 21.0361 20.5567 21.5297 21.1765C21.5612 21.216 21.5911 21.2564 21.6194 21.2977ZM30.9986 15.1777C30.9985 15.1777 30.9985 15.1778 30.9984 15.1778C30.9179 15.2798 30.8352 15.3825 30.7501 15.4859C29.4915 17.0118 27.7263 18.6821 25.2719 20.6583C25.2421 20.6823 25.2134 20.708 25.185 20.7336L25.1783 20.7397C25.0675 20.8398 24.7835 21.0962 24.4306 21.5082C24.4305 21.5084 24.4307 21.5086 24.4308 21.5085C24.4308 21.5085 24.4308 21.5085 24.4309 21.5084C24.7838 21.0965 25.0677 20.84 25.1785 20.7399L25.1785 20.7399L25.1891 20.7304C25.2149 20.707 25.241 20.6836 25.2681 20.6617C27.7246 18.6841 29.491 17.0128 30.7503 15.4861C30.8354 15.3827 30.9181 15.28 30.9987 15.178C30.9988 15.1779 30.9987 15.1777 30.9986 15.1777ZM16.2451 17.6074C17.0594 18.3955 18.0003 19.2288 19.0866 20.1238C19.0866 20.1238 19.0866 20.1238 19.0866 20.1238C19.0866 20.1238 19.0866 20.1238 19.0866 20.1238C18.0003 19.2288 17.0594 18.3955 16.2451 17.6074Z" fill="#F58B00"/>
<rect x="6.81152" y="0.527344" width="31.3769" height="3.88012" rx="1.42741" fill="#4098FF"/>
<rect x="6.8125" y="40.5898" width="31.3769" height="3.88012" rx="1.42741" fill="#4098FF"/>
</svg>
