<svg width="128" height="68" viewBox="0 0 128 68" fill="none" xmlns="http://www.w3.org/2000/svg">
<rect y="13" width="128" height="55" rx="8" fill="#89D1FF"/>
<path d="M90.001 43.8144L74.3033 61.1996L25.469 49.2054C23.4762 48.716 22.9304 46.1379 24.555 44.8815L37.9899 34.5022C38.9905 33.7282 40.2797 33.4323 41.5177 33.6912L89.9995 43.8159L90.001 43.8144Z" fill="#1B90FF"/>
<path d="M101.965 51.6021L76.6413 60.9719C73.7303 62.0494 70.4584 61.0845 68.5972 58.6013L37.3989 16.9784C36.194 15.3719 36.8829 13.0568 38.7719 12.3711L63.8397 3.26253C66.8241 2.17845 70.1678 3.176 72.0715 5.71804L103.221 47.3458C104.329 48.8282 103.701 50.9588 101.965 51.6005V51.6021Z" fill="#8D2A00"/>
<path d="M103.774 49.3005L103.996 46.236L37.0737 11.8213L36.7994 15.5339L70.5104 59.6433L103.774 49.3005Z" fill="#8D2A00"/>
<path d="M102.189 48.773L76.8646 58.1428C73.9536 59.2203 70.6818 58.2554 68.8206 55.7722L37.6238 14.1493C36.4189 12.5428 37.1079 10.2277 38.9969 9.54199L64.0646 0.433426C67.0491 -0.650655 70.3928 0.346895 72.2965 2.88893L103.446 44.5167C104.554 45.9991 103.926 48.1297 102.19 48.7714L102.189 48.773Z" fill="#C35500"/>
<path d="M101.078 48.3253L75.7751 57.4502C73.9122 58.1212 71.829 57.509 70.6257 55.9367L38.7367 14.2225C37.7082 12.8788 38.2747 10.9229 39.8616 10.3351L64.882 1.07145C66.9098 0.320427 69.189 0.989814 70.4902 2.71879L102.293 44.1865C103.393 45.6216 102.781 47.7114 101.08 48.3253H101.078Z" fill="white"/>
<path d="M59.3006 7.39048L50.4353 10.6231C49.3691 11.0117 48.174 10.7162 47.4116 9.87375L45.6369 7.91293L58.4924 3.22559L59.9373 4.82232C60.6965 5.6615 60.3651 7.00354 59.3006 7.39048Z" fill="#C35500"/>
<path d="M68.8289 41.519C68.5709 41.6232 68.2375 41.6312 67.8913 41.5174C67.2005 41.2898 66.7196 40.6615 66.819 40.115C68.2743 32.2531 69.8852 24.4264 71.6627 16.6302C71.7846 16.1013 72.4449 15.8577 73.1357 16.0853C73.8266 16.3129 74.2866 16.9252 74.1648 17.4557C72.3888 25.2519 70.778 33.0785 69.321 40.9404C69.2713 41.2129 69.0854 41.4149 68.8273 41.519H68.8289Z" fill="#00144A"/>
<path d="M69.3043 19.8531C67.4931 19.3851 65.5424 19.5438 63.8178 20.1384C58.4226 22.0009 60.455 27.3624 62.8513 30.8021C63.0885 31.113 63.2071 31.2685 63.4443 31.5794C64.5567 32.937 65.2395 34.939 65.068 36.6011C65.0295 36.973 65.2395 37.425 65.6546 37.7247C65.9752 36.0177 66.3006 34.3107 66.6307 32.6053C66.3422 32.0186 65.972 31.4063 65.4975 30.7844C65.2619 30.4751 65.1433 30.3196 64.9077 30.0087C62.9603 27.5387 61.3254 23.514 65.3036 22.0987C66.4977 21.6739 67.703 21.5521 68.8747 21.7989C69.0446 21.0184 69.1312 20.6289 69.3043 19.8515V19.8531Z" fill="#00144A"/>
<path d="M74.5886 22.8984C75.374 23.6165 76.1338 24.4468 76.8566 25.4069C77.0874 25.713 77.2012 25.8653 77.4321 26.1714C78.6358 27.8127 80.5063 29.087 82.3511 29.781C82.8256 29.9605 83.2279 30.3356 83.3321 30.7555C83.4363 31.1739 83.2455 31.5489 82.8416 31.7108C81.2532 32.3423 79.6632 32.9755 78.0748 33.607C78.8329 35.1168 78.3312 36.7197 76.8182 37.2967C75.1336 37.9394 73.1573 37.2999 71.8478 36.0849C72.0706 34.971 72.1828 34.4148 72.412 33.3056C74.7601 32.3808 77.1067 31.456 79.4548 30.5295C77.8937 29.6031 76.4816 28.4138 75.3788 26.9664C75.148 26.6603 75.0326 26.5064 74.8002 26.2003C74.5582 25.8797 74.3161 25.5784 74.0709 25.2947C74.2761 24.3346 74.3787 23.8553 74.587 22.9L74.5886 22.8984Z" fill="#00144A"/>
</svg>
