<svg width="128" height="69" viewBox="0 0 128 69" fill="none" xmlns="http://www.w3.org/2000/svg">
<rect y="13.5" width="128" height="55" rx="8" fill="#222F3B"/>
<path d="M90.001 44.3144L74.3033 61.6996L25.469 49.7054C23.4762 49.216 22.9304 46.6379 24.555 45.3815L37.9899 35.0022C38.9905 34.2282 40.2797 33.9323 41.5177 34.1912L89.9995 44.3159L90.001 44.3144Z" fill="#101619"/>
<path d="M101.965 52.1021L76.6413 61.4719C73.7303 62.5494 70.4585 61.5845 68.5973 59.1013L37.3989 17.4784C36.194 15.8719 36.883 13.5568 38.772 12.8711L63.8397 3.76253C66.8242 2.67845 70.1679 3.676 72.0716 6.21804L103.221 47.8458C104.329 49.3282 103.701 51.4588 101.965 52.1005V52.1021Z" fill="#8D2A00"/>
<path d="M103.774 49.8005L103.996 46.736L37.0737 12.3213L36.7994 16.0339L70.5104 60.1433L103.774 49.8005Z" fill="#8D2A00"/>
<path d="M102.189 49.273L76.8647 58.6428C73.9537 59.7203 70.6818 58.7554 68.8206 56.2722L37.6239 14.6493C36.419 13.0428 37.108 10.7277 38.9969 10.042L64.0647 0.933426C67.0492 -0.150655 70.3929 0.846895 72.2965 3.38893L103.446 45.0167C104.554 46.4991 103.926 48.6297 102.19 49.2714L102.189 49.273Z" fill="#C35500"/>
<path d="M101.078 48.8253L75.7751 57.9502C73.9122 58.6212 71.829 58.009 70.6257 56.4367L38.7367 14.7225C37.7082 13.3788 38.2747 11.4229 39.8616 10.8351L64.882 1.57145C66.9098 0.820427 69.189 1.48981 70.4902 3.21879L102.293 44.6865C103.393 46.1216 102.781 48.2114 101.08 48.8253H101.078Z" fill="#D5DADD"/>
<path d="M59.3006 7.89048L50.4353 11.1231C49.3692 11.5117 48.1741 11.2162 47.4117 10.3737L45.637 8.41293L58.4925 3.72559L59.9374 5.32232C60.6965 6.1615 60.3651 7.50354 59.3006 7.89048Z" fill="#C35500"/>
<path d="M68.829 42.019C68.5709 42.1232 68.2375 42.1312 67.8913 42.0174C67.2005 41.7898 66.7197 41.1615 66.819 40.615C68.2744 32.7531 69.8853 24.9264 71.6628 17.1302C71.7846 16.6013 72.445 16.3577 73.1358 16.5853C73.8266 16.8129 74.2866 17.4252 74.1648 17.9557C72.3889 25.7519 70.778 33.5785 69.3211 41.4404C69.2714 41.7129 69.0854 41.9149 68.8274 42.019H68.829Z" fill="#00144A"/>
<path d="M69.3043 20.3531C67.4931 19.8851 65.5425 20.0438 63.8178 20.6384C58.4227 22.5009 60.4551 27.8624 62.8513 31.3021C63.0885 31.613 63.2072 31.7685 63.4444 32.0794C64.5567 33.437 65.2395 35.439 65.068 37.1011C65.0296 37.473 65.2395 37.925 65.6547 38.2247C65.9752 36.5177 66.3006 34.8107 66.6308 33.1053C66.3423 32.5186 65.972 31.9063 65.4976 31.2844C65.262 30.9751 65.1434 30.8196 64.9078 30.5087C62.9603 28.0387 61.3254 24.014 65.3037 22.5987C66.4978 22.1739 67.7031 22.0521 68.8748 22.2989C69.0447 21.5184 69.1312 21.1289 69.3043 20.3515V20.3531Z" fill="#00144A"/>
<path d="M74.5887 23.3984C75.3741 24.1165 76.1339 24.9468 76.8568 25.9069C77.0876 26.213 77.2014 26.3653 77.4322 26.6714C78.6359 28.3127 80.5064 29.587 82.3513 30.281C82.8257 30.4605 83.228 30.8356 83.3322 31.2555C83.4364 31.6739 83.2457 32.0489 82.8417 32.2108C81.2533 32.8423 79.6633 33.4755 78.0749 34.107C78.833 35.6168 78.3314 37.2197 76.8183 37.7967C75.1337 38.4394 73.1574 37.7999 71.8479 36.5849C72.0707 35.471 72.1829 34.9148 72.4121 33.8056C74.7602 32.8808 77.1068 31.956 79.4549 31.0295C77.8938 30.1031 76.4817 28.9138 75.3789 27.4664C75.1481 27.1603 75.0327 27.0064 74.8003 26.7003C74.5583 26.3797 74.3163 26.0784 74.071 25.7947C74.2762 24.8346 74.3788 24.3553 74.5871 23.4L74.5887 23.3984Z" fill="#00144A"/>
</svg>
