<?xml version="1.0" encoding="UTF-8"?>
<!--Generator: Apple Native CoreSVG 341-->
<!DOCTYPE svg
PUBLIC "-//W3C//DTD SVG 1.1//EN"
       "http://www.w3.org/Graphics/SVG/1.1/DTD/svg11.dtd">
<svg version="1.1" xmlns="http://www.w3.org/2000/svg" xmlns:xlink="http://www.w3.org/1999/xlink" viewBox="0 0 3300 2200">
 <!--glyph: "", point size: 100.0, font version: "21.0d4e1", template writer version: "138.0.0"-->
 <style>.defaults {-sfsymbols-draw-reverses-motion-groups:true}

.monochrome-0 {-sfsymbols-motion-group:1;-sfsymbols-layer-tags:-29502d6389e5fcaf}
.monochrome-1 {-sfsymbols-motion-group:0;-sfsymbols-layer-tags:-29502d6389e5fcaf}

.multicolor-0:tintColor {-sfsymbols-motion-group:1;-sfsymbols-layer-tags:-29502d6389e5fcaf}
.multicolor-1:tintColor {-sfsymbols-motion-group:0;-sfsymbols-layer-tags:-29502d6389e5fcaf}

.hierarchical-0:primary {-sfsymbols-motion-group:1;-sfsymbols-layer-tags:-29502d6389e5fcaf}
.hierarchical-1:primary {-sfsymbols-motion-group:0;-sfsymbols-layer-tags:-29502d6389e5fcaf}

.SFSymbolsPreviewWireframe {fill:none;opacity:1.0;stroke:black;stroke-width:0.5}
</style>
 <g id="Notes">
  <rect height="2200" id="artboard" style="fill:white;opacity:1" width="3300" x="0" y="0"/>
  <line style="fill:none;stroke:black;opacity:1;stroke-width:0.5;" x1="263" x2="3036" y1="292" y2="292"/>
  <text style="stroke:none;fill:black;font-family:sans-serif;font-size:13;font-weight:bold;" transform="matrix(1 0 0 1 263 322)">Weight/Scale Variations</text>
  <text style="stroke:none;fill:black;font-family:sans-serif;font-size:13;text-anchor:middle;" transform="matrix(1 0 0 1 559.711 322)">Ultralight</text>
  <text style="stroke:none;fill:black;font-family:sans-serif;font-size:13;text-anchor:middle;" transform="matrix(1 0 0 1 856.422 322)">Thin</text>
  <text style="stroke:none;fill:black;font-family:sans-serif;font-size:13;text-anchor:middle;" transform="matrix(1 0 0 1 1153.13 322)">Light</text>
  <text style="stroke:none;fill:black;font-family:sans-serif;font-size:13;text-anchor:middle;" transform="matrix(1 0 0 1 1449.84 322)">Regular</text>
  <text style="stroke:none;fill:black;font-family:sans-serif;font-size:13;text-anchor:middle;" transform="matrix(1 0 0 1 1746.56 322)">Medium</text>
  <text style="stroke:none;fill:black;font-family:sans-serif;font-size:13;text-anchor:middle;" transform="matrix(1 0 0 1 2043.27 322)">Semibold</text>
  <text style="stroke:none;fill:black;font-family:sans-serif;font-size:13;text-anchor:middle;" transform="matrix(1 0 0 1 2339.98 322)">Bold</text>
  <text style="stroke:none;fill:black;font-family:sans-serif;font-size:13;text-anchor:middle;" transform="matrix(1 0 0 1 2636.69 322)">Heavy</text>
  <text style="stroke:none;fill:black;font-family:sans-serif;font-size:13;text-anchor:middle;" transform="matrix(1 0 0 1 2933.4 322)">Black</text>
  <line style="fill:none;stroke:black;opacity:1;stroke-width:0.5;" x1="263" x2="3036" y1="1903" y2="1903"/>
  <g transform="matrix(0.2 0 0 0.2 263 1933)">
   <path d="m46.2402 4.15039c21.7773 0 39.4531-17.627 39.4531-39.4043s-17.6758-39.4043-39.4531-39.4043c-21.7285 0-39.4043 17.627-39.4043 39.4043s17.6758 39.4043 39.4043 39.4043Zm0-7.42188c-17.6758 0-31.9336-14.3066-31.9336-31.9824s14.2578-31.9824 31.9336-31.9824 31.9824 14.3066 31.9824 31.9824-14.3066 31.9824-31.9824 31.9824Zm3.61328-17.7734v-28.4668c0-2.24609-1.46484-3.75977-3.71094-3.75977-2.14844 0-3.61328 1.51367-3.61328 3.75977v28.4668c0 2.19727 1.46484 3.71094 3.61328 3.71094 2.24609 0 3.71094-1.51367 3.71094-3.71094Zm-17.8223-10.5957h28.418c2.19727 0 3.71094-1.46484 3.71094-3.61328 0-2.19727-1.51367-3.71094-3.71094-3.71094h-28.418c-2.24609 0-3.75977 1.51367-3.75977 3.71094 0 2.14844 1.51367 3.61328 3.75977 3.61328Z"/>
  </g>
  <g transform="matrix(0.2 0 0 0.2 281.506 1933)">
   <path d="m58.5449 14.5508c27.4902 0 49.8047-22.3145 49.8047-49.8047s-22.3145-49.8047-49.8047-49.8047-49.8047 22.3145-49.8047 49.8047 22.3145 49.8047 49.8047 49.8047Zm0-8.30078c-22.9492 0-41.5039-18.5547-41.5039-41.5039s18.5547-41.5039 41.5039-41.5039 41.5039 18.5547 41.5039 41.5039-18.5547 41.5039-41.5039 41.5039Zm4.05273-23.0957v-36.9141c0-2.49023-1.70898-4.19922-4.15039-4.19922-2.39258 0-4.05273 1.70898-4.05273 4.19922v36.9141c0 2.44141 1.66016 4.15039 4.05273 4.15039 2.44141 0 4.15039-1.66016 4.15039-4.15039Zm-22.5586-14.4043h36.9629c2.44141 0 4.15039-1.61133 4.15039-4.00391 0-2.44141-1.70898-4.15039-4.15039-4.15039h-36.9629c-2.49023 0-4.15039 1.70898-4.15039 4.15039 0 2.39258 1.66016 4.00391 4.15039 4.00391Z"/>
  </g>
  <g transform="matrix(0.2 0 0 0.2 304.924 1933)">
   <path d="m74.8535 28.3203c35.1074 0 63.623-28.4668 63.623-63.5742s-28.5156-63.623-63.623-63.623-63.5742 28.5156-63.5742 63.623 28.4668 63.5742 63.5742 63.5742Zm0-9.08203c-30.127 0-54.4922-24.3652-54.4922-54.4922s24.3652-54.4922 54.4922-54.4922 54.4922 24.3652 54.4922 54.4922-24.3652 54.4922-54.4922 54.4922Zm4.44336-30.3223v-48.4863c0-2.73438-1.85547-4.63867-4.54102-4.63867-2.58789 0-4.44336 1.9043-4.44336 4.63867v48.4863c0 2.68555 1.85547 4.58984 4.44336 4.58984 2.68555 0 4.54102-1.85547 4.54102-4.58984Zm-28.7109-19.7754h48.4863c2.68555 0 4.58984-1.80664 4.58984-4.39453 0-2.73438-1.85547-4.58984-4.58984-4.58984h-48.4863c-2.73438 0-4.58984 1.85547-4.58984 4.58984 0 2.58789 1.85547 4.39453 4.58984 4.39453Z"/>
  </g>
  <text style="stroke:none;fill:black;font-family:sans-serif;font-size:13;font-weight:bold;" transform="matrix(1 0 0 1 263 1953)">Design Variations</text>
  <text style="stroke:none;fill:black;font-family:sans-serif;font-size:13;" transform="matrix(1 0 0 1 263 1971)">Symbols are supported in up to nine weights and three scales.</text>
  <text style="stroke:none;fill:black;font-family:sans-serif;font-size:13;" transform="matrix(1 0 0 1 263 1989)">For optimal layout with text and other symbols, vertically align</text>
  <text style="stroke:none;fill:black;font-family:sans-serif;font-size:13;" transform="matrix(1 0 0 1 263 2007)">symbols with the adjacent text.</text>
  <line style="fill:none;stroke:#00AEEF;stroke-width:0.5;opacity:1.0;" x1="776" x2="776" y1="1919" y2="1933"/>
  <g transform="matrix(0.2 0 0 0.2 776 1933)">
   <path d="m16.5527 0.78125c2.58789 0 3.85742-0.976562 4.78516-3.71094l20.5566-57.5195h0.244141l20.6055 57.5195c0.927734 2.73438 2.19727 3.71094 4.73633 3.71094 2.58789 0 4.24805-1.5625 4.24805-4.00391 0-0.830078-0.146484-1.61133-0.537109-2.63672l-22.9004-60.9863c-1.12305-2.97852-3.125-4.49219-6.25-4.49219-3.02734 0-5.07812 1.46484-6.15234 4.44336l-22.9004 61.084c-0.390625 1.02539-0.537109 1.80664-0.537109 2.63672 0 2.44141 1.5625 3.95508 4.10156 3.95508Zm10.2051-20.9473h30.6641c2.00195 0 3.66211-1.66016 3.66211-3.66211 0-2.05078-1.66016-3.66211-3.66211-3.66211h-30.6641c-2.00195 0-3.66211 1.61133-3.66211 3.66211 0 2.00195 1.66016 3.66211 3.66211 3.66211Z"/>
  </g>
  <line style="fill:none;stroke:#00AEEF;stroke-width:0.5;opacity:1.0;" x1="792.836" x2="792.836" y1="1919" y2="1933"/>
  <text style="stroke:none;fill:black;font-family:sans-serif;font-size:13;font-weight:bold;" transform="matrix(1 0 0 1 776 1953)">Margins</text>
  <text style="stroke:none;fill:black;font-family:sans-serif;font-size:13;" transform="matrix(1 0 0 1 776 1971)">Leading and trailing margins on the left and right side of each symbol</text>
  <text style="stroke:none;fill:black;font-family:sans-serif;font-size:13;" transform="matrix(1 0 0 1 776 1989)">can be adjusted by modifying the x-location of the margin guidelines.</text>
  <text style="stroke:none;fill:black;font-family:sans-serif;font-size:13;" transform="matrix(1 0 0 1 776 2007)">Modifications are automatically applied proportionally to all</text>
  <text style="stroke:none;fill:black;font-family:sans-serif;font-size:13;" transform="matrix(1 0 0 1 776 2025)">scales and weights.</text>
  <g transform="matrix(0.2 0 0 0.2 1289 1933)">
   <path d="m14.209 13.1348 7.86133 7.86133c4.29688 4.39453 9.32617 4.10156 13.8672-1.02539l60.6934-68.2129-4.88281-4.88281-60.2539 67.6758c-1.80664 1.95312-3.4668 2.44141-5.81055 0.0976562l-5.17578-5.12695c-2.29492-2.29492-1.80664-3.95508 0.195312-5.81055l67.4805-62.1582-4.88281-4.83398-68.0664 62.5977c-4.98047 4.58984-5.32227 9.47266-1.02539 13.8184Zm44.873-97.4609c-2.05078 2.00195-2.24609 4.88281-1.07422 6.78711 1.12305 1.80664 3.4668 3.02734 6.5918 2.24609 5.85938-1.66016 12.5977-2.39258 18.8965 0.927734l-2.68555 7.12891c-1.61133 4.00391-0.732422 6.88477 1.70898 9.42383l10.2539 10.3027c2.34375 2.39258 4.54102 2.44141 7.08008 1.95312l4.44336-0.732422 2.58789 2.53906-0.195312 2.24609c-0.0976562 2.29492 0.537109 4.29688 2.7832 6.49414l3.36914 3.32031c2.29492 2.29492 5.51758 2.49023 7.8125 0.195312l12.9883-13.0371c2.29492-2.34375 2.14844-5.37109-0.195312-7.66602l-3.41797-3.41797c-2.19727-2.19727-4.05273-3.02734-6.34766-2.88086l-2.34375 0.244141-2.44141-2.44141 1.02539-4.6875c0.634766-2.73438-0.244141-4.98047-2.88086-7.61719l-11.2793-11.1816c-12.9395-12.8418-35.5957-11.0352-46.6797-0.146484Zm7.08008 2.05078c8.78906-6.39648 25.9766-5.66406 33.6914 1.95312l12.3047 12.207c1.02539 1.02539 1.2207 1.80664 0.927734 3.32031l-1.46484 6.64062 6.73828 6.68945 4.39453-0.244141c1.12305-0.0488281 1.51367 0.0488281 2.34375 0.878906l2.53906 2.49023-10.8398 10.8398-2.49023-2.49023c-0.830078-0.878906-0.976562-1.2207-0.927734-2.39258l0.292969-4.3457-6.68945-6.73828-6.83594 1.17188c-1.41602 0.292969-2.05078 0.195312-3.17383-0.878906l-8.93555-8.88672c-1.07422-1.02539-1.17188-1.70898-0.488281-3.36914l4.58984-11.4746c-6.10352-6.34766-17.041-7.51953-25.5859-4.58984-0.683594 0.244141-0.927734-0.390625-0.390625-0.78125Z"/>
  </g>
  <text style="stroke:none;fill:black;font-family:sans-serif;font-size:13;font-weight:bold;" transform="matrix(1 0 0 1 1289 1953)">Exporting</text>
  <text style="stroke:none;fill:black;font-family:sans-serif;font-size:13;" transform="matrix(1 0 0 1 1289 1971)">Symbols should be outlined when exporting to ensure the</text>
  <text style="stroke:none;fill:black;font-family:sans-serif;font-size:13;" transform="matrix(1 0 0 1 1289 1989)">design is preserved when submitting to Xcode.</text>
  <text id="template-version" style="stroke:none;fill:black;font-family:sans-serif;font-size:13;text-anchor:end;" transform="matrix(1 0 0 1 3036 1933)">Template v.5.0</text>
  <text style="stroke:none;fill:black;font-family:sans-serif;font-size:13;text-anchor:end;" transform="matrix(1 0 0 1 3036 1951)">Requires Xcode 15 or greater</text>
  <text id="descriptive-name" style="stroke:none;fill:black;font-family:sans-serif;font-size:13;text-anchor:end;" transform="matrix(1 0 0 1 3036 1969)">Generated from fiori.per.diem</text>
  <text style="stroke:none;fill:black;font-family:sans-serif;font-size:13;text-anchor:end;" transform="matrix(1 0 0 1 3036 1987)">Typeset at 100.0 points</text>
  <text style="stroke:none;fill:black;font-family:sans-serif;font-size:13;" transform="matrix(1 0 0 1 263 726)">Small</text>
  <text style="stroke:none;fill:black;font-family:sans-serif;font-size:13;" transform="matrix(1 0 0 1 263 1156)">Medium</text>
  <text style="stroke:none;fill:black;font-family:sans-serif;font-size:13;" transform="matrix(1 0 0 1 263 1586)">Large</text>
 </g>
 <g id="Guides">
  <g id="H-reference" style="fill:#27AAE1;stroke:none;" transform="matrix(1 0 0 1 339 696)">
   <path d="M0.993654 0L3.63775 0L29.3281-67.1323L30.0303-67.1323L30.0303-70.459L28.1226-70.459ZM11.6885-24.4799L46.9815-24.4799L46.2315-26.7285L12.4385-26.7285ZM55.1196 0L57.7637 0L30.6382-70.459L29.4326-70.459L29.4326-67.1323Z"/>
  </g>
  <line id="Baseline-S" style="fill:none;stroke:#27AAE1;opacity:1;stroke-width:0.5;" x1="263" x2="3036" y1="696" y2="696"/>
  <line id="Capline-S" style="fill:none;stroke:#27AAE1;opacity:1;stroke-width:0.5;" x1="263" x2="3036" y1="625.541" y2="625.541"/>
  <g id="H-reference" style="fill:#27AAE1;stroke:none;" transform="matrix(1 0 0 1 339 1126)">
   <path d="M0.993654 0L3.63775 0L29.3281-67.1323L30.0303-67.1323L30.0303-70.459L28.1226-70.459ZM11.6885-24.4799L46.9815-24.4799L46.2315-26.7285L12.4385-26.7285ZM55.1196 0L57.7637 0L30.6382-70.459L29.4326-70.459L29.4326-67.1323Z"/>
  </g>
  <line id="Baseline-M" style="fill:none;stroke:#27AAE1;opacity:1;stroke-width:0.5;" x1="263" x2="3036" y1="1126" y2="1126"/>
  <line id="Capline-M" style="fill:none;stroke:#27AAE1;opacity:1;stroke-width:0.5;" x1="263" x2="3036" y1="1055.54" y2="1055.54"/>
  <g id="H-reference" style="fill:#27AAE1;stroke:none;" transform="matrix(1 0 0 1 339 1556)">
   <path d="M0.993654 0L3.63775 0L29.3281-67.1323L30.0303-67.1323L30.0303-70.459L28.1226-70.459ZM11.6885-24.4799L46.9815-24.4799L46.2315-26.7285L12.4385-26.7285ZM55.1196 0L57.7637 0L30.6382-70.459L29.4326-70.459L29.4326-67.1323Z"/>
  </g>
  <line id="Baseline-L" style="fill:none;stroke:#27AAE1;opacity:1;stroke-width:0.5;" x1="263" x2="3036" y1="1556" y2="1556"/>
  <line id="Capline-L" style="fill:none;stroke:#27AAE1;opacity:1;stroke-width:0.5;" x1="263" x2="3036" y1="1485.54" y2="1485.54"/>
  <line id="right-margin-Black-S" style="fill:none;stroke:#00AEEF;stroke-width:0.5;opacity:1.0;" x1="2981.9" x2="2981.9" y1="600.785" y2="720.121"/>
  <line id="left-margin-Black-S" style="fill:none;stroke:#00AEEF;stroke-width:0.5;opacity:1.0;" x1="2884.9" x2="2884.9" y1="600.785" y2="720.121"/>
  <line id="right-margin-Regular-S" style="fill:none;stroke:#00AEEF;stroke-width:0.5;opacity:1.0;" x1="1496.29" x2="1496.29" y1="600.785" y2="720.121"/>
  <line id="left-margin-Regular-S" style="fill:none;stroke:#00AEEF;stroke-width:0.5;opacity:1.0;" x1="1403.39" x2="1403.39" y1="600.785" y2="720.121"/>
  <line id="right-margin-Ultralight-S" style="fill:none;stroke:#00AEEF;stroke-width:0.5;opacity:1.0;" x1="604.411" x2="604.411" y1="600.785" y2="720.121"/>
  <line id="left-margin-Ultralight-S" style="fill:none;stroke:#00AEEF;stroke-width:0.5;opacity:1.0;" x1="515.011" x2="515.011" y1="600.785" y2="720.121"/>
 </g>
 <g id="Symbols">
  <g id="Black-S" transform="matrix(1 0 0 1 2884.9 696)">
   <path class="monochrome-0 multicolor-0:tintColor hierarchical-0:primary SFSymbolsPreviewWireframe" d="M32.01-55.1C28.91-55.1 26.51-57.6 26.51-60.6L26.51-78.1C26.51-81.2 29.01-83.6 32.01-83.6C35.01-83.6 37.51-81.1 37.51-78.1L37.51-60.6C37.61-57.6 35.11-55.1 32.01-55.1ZM64.91-55.1C61.81-55.1 59.41-57.6 59.41-60.6L59.41-78.1C59.41-81.2 61.91-83.6 64.91-83.6C68.01-83.6 70.41-81.1 70.41-78.1L70.41-60.6C70.51-57.6 68.01-55.1 64.91-55.1ZM49.51 1.4L26.91 1.4C18.21 1.4 11.11-5.7 11.11-14.4L11.11-57.6C11.11-66.3 18.21-73.4 26.91-73.4L70.11-73.4C78.81-73.4 85.91-66.3 85.91-57.6L85.91-55.5C85.91-52.5 83.31-50 80.81-50C77.21-50 74.81-52.2 74.81-55.5L74.81-57.6C74.81-60.2 72.71-62.4 70.01-62.4L26.81-62.4C24.21-62.4 22.01-60.3 22.01-57.6L22.01-14.4C22.01-11.8 24.11-9.6 26.81-9.6L49.41-9.6C52.71-9.6 54.91-6.8 54.91-4.1C55.01-1.1 52.71 1.4 49.51 1.4ZM49.51-39.7L16.61-39.7C13.51-39.7 11.11-42.2 11.11-45.2C11.11-48.3 13.61-50.7 16.61-50.7L49.51-50.7C52.61-50.7 55.01-48.2 55.01-45.2C55.01-42.2 52.61-39.7 49.51-39.7Z"/>
   <path class="monochrome-1 multicolor-1:tintColor hierarchical-1:primary SFSymbolsPreviewWireframe" d="M74.21-6.8L63.91-6.8C60.81-6.8 58.41-9.4 58.41-12.3C58.41-15.4 60.91-17.8 63.91-17.8L74.21-17.8C74.61-17.8 74.81-18 74.81-18.4C74.81-18.7 74.51-19 74.21-19L70.11-19C63.01-19 58.41-25.1 58.41-30.7C58.41-36.3 63.01-42.5 70.11-42.5L80.41-42.5C83.61-42.5 85.91-39.8 85.91-37C85.91-33.8 83.31-31.5 80.41-31.5L70.11-31.5C69.81-31.5 69.51-31.3 69.51-30.9C69.51-30.5 69.71-30.3 70.11-30.3L74.21-30.3C81.21-30.3 85.91-24.2 85.91-18.6C85.91-12.9 81.21-6.8 74.21-6.8ZM72.11-33.5C69.01-33.5 66.61-36 66.61-39L66.61-45.2C66.61-48.3 69.11-50.7 72.11-50.7C75.21-50.7 77.61-48.2 77.61-45.2L77.61-39C77.71-36 75.21-33.5 72.11-33.5ZM72.11 1.4C69.01 1.4 66.61-1.1 66.61-4.1L66.61-9.9C66.61-13 69.11-15.4 72.11-15.4C75.21-15.4 77.61-12.9 77.61-9.9L77.61-4.1C77.71-1 75.21 1.4 72.11 1.4Z"/>
  </g>
  <g id="Regular-S" transform="matrix(1 0 0 1 1403.39 696)">
   <path class="monochrome-0 multicolor-0:tintColor hierarchical-0:primary SFSymbolsPreviewWireframe" d="M30.06-56.5C27.76-56.5 25.96-58.3 25.96-60.6L25.96-78.1C25.96-80.4 27.76-82.2 30.06-82.2C32.36-82.2 34.16-80.4 34.16-78.1L34.16-60.6C34.16-58.4 32.36-56.5 30.06-56.5ZM62.96-56.5C60.66-56.5 58.86-58.3 58.86-60.6L58.86-78.1C58.86-80.4 60.66-82.2 62.96-82.2C65.26-82.2 67.06-80.4 67.06-78.1L67.06-60.6C67.06-58.4 65.26-56.5 62.96-56.5ZM47.56 0L24.96 0C16.96 0 10.56-6.4 10.56-14.4L10.56-57.6C10.56-65.5 17.06-72 24.96-72L68.16-72C76.06-72 82.56-65.5 82.56-57.6L82.56-55.5C82.56-53.2 80.76-51.4 78.46-51.4C76.16-51.4 74.36-53.2 74.36-55.5L74.36-57.6C74.36-61 71.56-63.8 68.16-63.8L24.96-63.8C21.56-63.8 18.76-61 18.76-57.6L18.76-14.4C18.76-11 21.56-8.2 24.96-8.2L47.56-8.2C49.86-8.2 51.66-6.4 51.66-4.1C51.66-1.8 49.76 0 47.56 0ZM47.56-41.1L14.66-41.1C12.36-41.1 10.56-42.9 10.56-45.2C10.56-47.5 12.36-49.3 14.66-49.3L47.56-49.3C49.86-49.3 51.66-47.5 51.66-45.2C51.66-42.9 49.76-41.1 47.56-41.1Z"/>
   <path class="monochrome-1 multicolor-1:tintColor hierarchical-1:primary SFSymbolsPreviewWireframe" d="M72.16-8.2L61.96-8.2C59.66-8.2 57.86-10 57.86-12.3C57.86-14.6 59.66-16.4 61.96-16.4L72.26-16.4C73.26-16.4 74.36-17.4 74.36-18.5C74.36-19.6 73.36-20.6 72.26-20.6L68.16-20.6C62.56-20.6 57.86-25.3 57.86-30.9C57.86-36.5 62.56-41.2 68.16-41.2L78.46-41.2C80.76-41.2 82.56-39.4 82.56-37.1C82.56-34.8 80.76-33 78.46-33L68.06-33C67.06-33 65.96-32 65.96-30.9C65.96-29.8 66.96-28.8 68.06-28.8L72.16-28.8C77.76-28.8 82.46-24.1 82.46-18.5C82.46-12.9 77.76-8.2 72.16-8.2ZM70.16-34.9C67.86-34.9 66.06-36.7 66.06-39L66.06-45.2C66.06-47.5 67.86-49.3 70.16-49.3C72.46-49.3 74.26-47.5 74.26-45.2L74.26-39C74.26-36.8 72.46-34.9 70.16-34.9ZM70.16 0C67.86 0 66.06-1.8 66.06-4.1L66.06-9.9C66.06-12.2 67.86-14 70.16-14C72.46-14 74.26-12.2 74.26-9.9L74.26-4.1C74.26-1.8 72.46 0 70.16 0Z"/>
  </g>
  <g id="Ultralight-S" transform="matrix(1 0 0 1 515.011 696)">
   <path class="monochrome-0 multicolor-0:tintColor hierarchical-0:primary SFSymbolsPreviewWireframe" d="M28.275-59.4C27.575-59.4 26.975-60 26.975-60.7L26.975-78.2C26.975-78.9 27.575-79.5 28.275-79.5C28.975-79.5 29.575-78.9 29.575-78.2L29.575-60.7C29.575-59.9 28.975-59.4 28.275-59.4ZM61.175-59.4C60.475-59.4 59.875-60 59.875-60.7L59.875-78.2C59.875-78.9 60.475-79.5 61.175-79.5C61.875-79.5 62.475-78.9 62.475-78.2L62.475-60.7C62.475-59.9 61.875-59.4 61.175-59.4ZM45.775-2.8L23.175-2.8C16.775-2.8 11.575-8 11.575-14.4L11.575-57.6C11.575-64 16.775-69.2 23.175-69.2L66.375-69.2C72.775-69.2 77.975-64 77.975-57.6L77.975-55.5C77.975-54.7 77.275-54.2 76.675-54.2C75.975-54.2 75.375-54.6 75.375-55.5L75.375-57.6C75.375-62.3 71.675-66.6 66.375-66.6L23.175-66.6C18.175-66.6 14.175-62.6 14.175-57.6L14.175-14.4C14.175-9.4 18.175-5.4 23.175-5.4L45.775-5.4C46.575-5.4 47.075-4.7 47.075-4.1C47.075-3.5 46.675-2.8 45.775-2.8ZM45.775-43.9L12.875-43.9C12.175-43.9 11.575-44.5 11.575-45.2C11.575-45.9 12.175-46.5 12.875-46.5L45.775-46.5C46.475-46.5 47.075-45.9 47.075-45.2C47.075-44.5 46.475-43.9 45.775-43.9Z"/>
   <path class="monochrome-1 multicolor-1:tintColor hierarchical-1:primary SFSymbolsPreviewWireframe" d="M70.475-11L60.175-11C59.475-11 58.875-11.6 58.875-12.2C58.875-12.8 59.275-13.5 60.175-13.5L70.475-13.5C73.375-13.5 75.375-16 75.375-18.4C75.375-20.8 73.275-23.3 70.475-23.3L66.875-23.3C62.475-23.3 58.975-26.2 58.975-31.3C58.975-34.9 62.575-38.2 66.375-38.2L76.675-38.2C77.375-38.2 77.975-37.6 77.975-36.9C77.975-36 77.275-35.6 76.675-35.6L66.375-35.6C64.575-35.6 61.475-34.2 61.475-30.7C61.475-27.7 64.175-25.8 66.375-25.8L70.475-25.8C74.575-25.8 77.875-22.4 77.875-18.3C77.875-14 73.975-11 70.475-11ZM68.375-36.5C67.675-36.5 67.075-37.1 67.075-37.8L67.075-45.2C67.075-45.9 67.675-46.5 68.375-46.5C69.075-46.5 69.675-45.9 69.675-45.2L69.675-37.8C69.675-37.1 69.075-36.5 68.375-36.5ZM68.375-2.8C67.675-2.8 67.075-3.4 67.075-4.1L67.075-11.7C67.075-12.4 67.675-13 68.375-13C69.075-13 69.675-12.4 69.675-11.7L69.675-4.1C69.675-3.4 69.075-2.8 68.375-2.8Z"/>
  </g>
 </g>
</svg>
