<svg width="128" height="128" viewBox="0 0 128 128" fill="none" xmlns="http://www.w3.org/2000/svg">
<g clip-path="url(#clip0_4516_149772)">
<mask id="mask0_4516_149772" style="mask-type:luminance" maskUnits="userSpaceOnUse" x="0" y="1" width="128" height="126">
<path d="M128 1.86304H0V126.137H128V1.86304Z" fill="white"/>
</mask>
<g mask="url(#mask0_4516_149772)">
<path d="M122.254 112.796L73.0169 96.4122C73.0169 96.4122 72.7894 96.3554 72.704 96.4122L2.95824 107.05C-0.170649 107.42 -0.483538 108.274 0.483574 108.757L49.8347 125.511C51.7689 126.165 53.8169 126.336 55.808 125.966L119.495 114.275C122.396 113.877 122.965 113.024 122.283 112.796H122.254Z" fill="#101619"/>
<path d="M19.0009 18.3612L44.5155 110.948C44.8853 112.285 46.1653 113.138 47.5591 112.967L122.112 99.3994C126.407 98.3185 128.398 93.8243 127.915 92.0607L88.7466 8.29187C88.3484 7.12565 87.1822 6.35765 85.9591 6.44298L22.8125 7.80832C21.0774 8.06432 17.0667 12.0465 19.0009 18.3896V18.3612Z" fill="#00144A"/>
<path d="M20.7074 11.1646L47.0753 106.795C47.4451 108.132 48.7251 108.985 50.1189 108.814L125.582 95.1041C127.346 94.8766 128.426 93.0846 127.858 91.4348L97.422 3.74059C97.0238 2.57438 95.8575 1.80638 94.6344 1.89171L23.2105 7.66593C21.447 7.77971 20.2239 9.48637 20.7074 11.1646Z" fill="#D5DADD"/>
<path d="M53.1627 104.064C51.3992 104.064 49.8632 102.869 49.3796 101.191L48.6116 98.3747C48.4125 97.6067 48.8392 96.8387 49.6072 96.6396C50.3752 96.4405 51.1432 96.8672 51.3423 97.6352L52.1103 100.451C52.2241 100.906 52.6507 101.248 53.1343 101.248L55.2107 100.878C55.9787 100.736 56.7183 101.248 56.8605 102.016C57.0027 102.784 56.4907 103.523 55.7227 103.665L53.7032 104.035C53.4472 104.064 53.2765 104.092 53.1059 104.092L53.1627 104.064ZM63.8863 102.072C63.2036 102.072 62.6063 101.589 62.4925 100.906C62.3503 100.138 62.8623 99.3987 63.6303 99.2565L72.0214 97.6921C72.8179 97.5498 73.529 98.0618 73.6712 98.8298C73.8134 99.5978 73.3014 100.337 72.5334 100.48L64.1423 102.044C64.1423 102.044 63.9716 102.044 63.8863 102.044V102.072ZM80.6401 98.9436C79.9574 98.9436 79.3601 98.4601 79.2463 97.7774C79.1041 97.0094 79.6161 96.2698 80.3841 96.1276L88.7752 94.5632C89.5432 94.4209 90.2827 94.9329 90.425 95.7009C90.5672 96.4689 90.0552 97.2085 89.2872 97.3507L80.8961 98.9152C80.8961 98.9152 80.7254 98.9152 80.6401 98.9152V98.9436ZM97.4223 95.7863C96.7396 95.7863 96.1423 95.3027 96.0285 94.62C95.8863 93.8521 96.3983 93.1125 97.1663 92.9703L105.557 91.4058C106.325 91.2636 107.065 91.7756 107.207 92.5436C107.349 93.3116 106.837 94.0512 106.069 94.1934L97.6783 95.7578C97.6783 95.7578 97.5076 95.7578 97.4223 95.7578V95.7863ZM114.205 92.6574C113.522 92.6574 112.925 92.1738 112.811 91.4912C112.669 90.7232 113.181 89.9836 113.949 89.8414L118.869 88.9312C119.524 88.8458 119.865 88.3338 119.893 87.8787C119.893 87.0823 120.605 86.5703 121.373 86.5134C122.169 86.5134 122.766 87.1961 122.738 87.9925C122.681 89.9267 121.23 91.5196 119.325 91.7472L114.489 92.6574C114.489 92.6574 114.318 92.6574 114.233 92.6574H114.205ZM47.7299 91.1783C47.1041 91.1783 46.5352 90.7516 46.3645 90.1258L44.1174 81.9054C43.9183 81.1374 44.345 80.3694 45.113 80.1703C45.881 79.9712 46.649 80.3978 46.8481 81.1658L49.0952 89.3863C49.2943 90.1543 48.8676 90.9223 48.0996 91.1214C47.9859 91.1498 47.8436 91.1783 47.7299 91.1783ZM118.67 81.2227C118.073 81.2227 117.533 80.8529 117.333 80.2556L114.546 72.2058C114.29 71.4663 114.688 70.6414 115.428 70.3854C116.167 70.1294 116.992 70.5276 117.248 71.2672L120.036 79.3169C120.292 80.0565 119.893 80.8814 119.154 81.1374C119.012 81.1943 118.841 81.2227 118.699 81.2227H118.67ZM43.2356 74.7089C42.6099 74.7089 42.041 74.2823 41.8703 73.6565L39.6232 65.436C39.4241 64.668 39.8507 63.9001 40.6187 63.7009C41.3867 63.5018 42.1547 63.9285 42.3539 64.6965L44.601 72.9169C44.8001 73.6849 44.3734 74.4529 43.6054 74.6521C43.4916 74.6805 43.3494 74.7089 43.2356 74.7089ZM113.095 65.0947C112.498 65.0947 111.957 64.7249 111.758 64.1276L108.971 56.0494C108.715 55.3098 109.113 54.4849 109.853 54.2289C110.592 53.9729 111.417 54.3712 111.673 55.1107L114.461 63.1889C114.717 63.9285 114.318 64.7534 113.579 65.0094C113.437 65.0663 113.266 65.0947 113.124 65.0947H113.095ZM38.713 58.2396C38.0872 58.2396 37.5183 57.8129 37.3476 57.1872L35.1005 48.9667C34.9014 48.1987 35.3281 47.4307 36.0961 47.2316C36.8641 47.0325 37.6321 47.4592 37.8312 48.2272L40.0783 56.4476C40.2774 57.2156 39.8507 57.9836 39.0827 58.1827C38.969 58.2112 38.8267 58.2396 38.713 58.2396ZM107.52 48.9667C106.923 48.9667 106.382 48.5969 106.183 47.9996L103.396 39.9214C103.14 39.1818 103.538 38.3569 104.277 38.1009C105.017 37.8449 105.842 38.2432 106.098 38.9827L108.885 47.0609C109.141 47.8005 108.743 48.6254 108.004 48.8814C107.861 48.9383 107.691 48.9667 107.549 48.9667H107.52ZM34.2187 41.7987C33.593 41.7987 33.0241 41.372 32.8534 40.7463L30.6063 32.5258C30.4072 31.7578 30.8338 30.9898 31.6019 30.7907C32.3699 30.5916 33.1379 31.0183 33.337 31.7863L35.5841 40.0067C35.7832 40.7747 35.3565 41.5427 34.5885 41.7418C34.4747 41.7703 34.3325 41.7987 34.2187 41.7987ZM101.945 32.8387C101.348 32.8387 100.807 32.4689 100.608 31.8716L97.8205 23.7935C97.5645 23.0539 97.9627 22.229 98.7023 21.973C99.4419 21.717 100.267 22.1153 100.523 22.8548L103.31 30.9329C103.566 31.6725 103.168 32.4974 102.429 32.7534C102.286 32.8103 102.116 32.8387 101.973 32.8387H101.945ZM29.6961 25.3295C29.0703 25.3295 28.5014 24.9028 28.3307 24.277L26.0836 16.0566C25.9983 15.7153 25.9414 15.3739 25.9414 15.0042C25.9414 12.9277 27.5627 11.221 29.6107 11.0788L33.3939 10.7659C34.1903 10.6806 34.873 11.2779 34.9299 12.0744C34.9867 12.8708 34.4179 13.5535 33.6214 13.6104L29.8098 13.9233C29.1556 13.9517 28.7859 14.4922 28.7859 15.0042C28.7859 15.0895 28.7859 15.2033 28.8143 15.2886L31.0614 23.5091C31.2605 24.2771 30.8339 25.045 30.0659 25.2442C29.9521 25.2726 29.8098 25.301 29.6961 25.301V25.3295ZM96.3699 16.6824C95.7725 16.6824 95.2321 16.3126 95.033 15.7153L92.8712 9.45749C92.7859 9.20149 92.5867 8.97394 92.3592 8.86016C91.6481 8.49038 91.3921 7.63705 91.7618 6.95438C92.1316 6.24327 92.985 5.98727 93.6676 6.35705C94.5494 6.81216 95.2321 7.6086 95.5734 8.54727L97.7352 14.8335C97.9912 15.573 97.593 16.3979 96.8534 16.6539C96.7112 16.7108 96.5405 16.7393 96.3983 16.7393L96.3699 16.6824ZM42.0125 12.8993C41.273 12.8993 40.6472 12.3304 40.5903 11.5908C40.5334 10.8228 41.1023 10.1117 41.8987 10.0548L50.4036 9.34371C51.2001 9.25838 51.8827 9.85571 51.9396 10.6522C51.9965 11.4202 51.4276 12.1313 50.6312 12.1882L42.1263 12.8993C42.1263 12.8993 42.041 12.8993 42.0125 12.8993ZM59.0223 11.477C58.2827 11.477 57.657 10.9082 57.6001 10.1686C57.5432 9.37216 58.1121 8.68949 58.9085 8.6326L67.4134 7.92149C68.2383 7.83616 68.8925 8.43349 68.9494 9.22994C69.0063 10.0264 68.4374 10.709 67.641 10.7659L59.1361 11.477C59.1361 11.477 59.0507 11.477 59.0223 11.477ZM76.0321 10.0548C75.2925 10.0548 74.6667 9.48594 74.6099 8.74638C74.553 7.97838 75.1219 7.26727 75.9183 7.21038L84.4232 6.49927C85.2196 6.41394 85.9023 7.01127 85.9592 7.80771C86.0161 8.57571 85.4472 9.28682 84.6507 9.34371L76.1459 10.0548C76.1459 10.0548 76.0605 10.0548 76.0321 10.0548Z" fill="#00144A"/>
<path d="M68.3706 34.0522C58.0353 35.1834 51.8651 44.1818 54.8216 54.26C57.8552 64.5179 69.039 71.691 79.6055 70.1226C89.9149 68.5801 95.4684 59.2733 92.2545 49.4523C89.0923 39.7855 78.4999 32.9468 68.3706 34.0522ZM78.2686 62.6411C78.0115 63.0783 77.5746 63.3355 76.9832 63.4126C76.3919 63.4896 75.8261 63.3867 75.3121 63.0524C74.8235 62.7182 74.4636 62.2813 74.2836 61.69C74.1038 61.0986 74.155 60.6102 74.438 60.1989C74.7208 59.7617 75.1577 59.5046 75.749 59.4275C76.366 59.3504 76.8803 59.4534 77.3945 59.7876C77.8829 60.1218 78.2172 60.5587 78.3972 61.1245C78.5773 61.69 78.5514 62.2298 78.2942 62.667L78.2686 62.6411ZM80.2225 48.5008C80.0939 49.2979 79.8368 49.9663 79.477 50.5577C79.0913 51.1234 78.5773 51.766 77.9344 52.4603C77.4201 53.0517 77.0603 53.5401 76.8032 53.8999C76.5461 54.26 76.3919 54.7228 76.2889 55.2368C76.1862 55.751 76.2377 56.3424 76.4175 56.9852L73.5381 57.3707C73.2553 56.3939 73.1782 55.5454 73.3068 54.7999C73.4354 54.0543 73.6666 53.4371 73.9752 52.9231C74.3095 52.4088 74.7723 51.8175 75.3633 51.149C75.5949 50.8663 75.6976 50.7633 75.6976 50.7892C76.1347 50.3005 76.4946 49.838 76.7517 49.4523C77.0088 49.041 77.163 48.5782 77.2404 48.0639C77.3175 47.5497 77.2404 46.9583 77.0344 46.2898C76.7776 45.4928 76.366 44.8244 75.7749 44.3104C75.1836 43.7705 74.5151 43.4104 73.7437 43.1792C72.9726 42.9476 72.1756 42.8964 71.3527 42.9991C70.0673 43.1533 69.0646 43.5649 68.3961 44.2589C67.7277 44.953 67.2134 45.8785 66.8792 47.0869L64.0257 46.0071C64.3084 44.5161 65.0024 43.3077 66.1081 42.3307C67.1878 41.3536 68.6789 40.7625 70.5557 40.5569C72.0211 40.3768 73.4095 40.4795 74.6949 40.8396C75.9806 41.1994 77.0859 41.8164 77.9859 42.6905C78.9115 43.5649 79.5541 44.5931 79.9398 45.8529C80.2484 46.8556 80.3511 47.7553 80.2225 48.5523V48.5008Z" fill="#00144A"/>
</g>
</g>
<defs>
<clipPath id="clip0_4516_149772">
<rect width="128" height="128" fill="white"/>
</clipPath>
</defs>
</svg>
