<svg width="128" height="68" viewBox="0 0 128 68" fill="none" xmlns="http://www.w3.org/2000/svg">
<rect y="12.5" width="128" height="55" rx="8" fill="#89D1FF"/>
<path d="M72.3401 29.1488C72.4499 29.1488 72.5518 29.1331 72.5911 29.1253C72.9831 29.0469 72.7322 28.4586 72.7635 27.5332C72.7714 27.3057 72.9674 27.0939 73.187 27.0547C73.8143 26.9449 74.8023 26.8037 75.3356 26.7253C75.5473 26.6939 75.6962 26.5136 75.6805 26.3018C75.6492 25.8626 75.5708 25.0861 75.4375 24.3096C75.2571 23.2743 75.069 22.3018 74.8651 21.3842L75.0454 21.3685L74.8023 20.7881C74.8023 20.7881 74.7788 20.7881 74.7396 20.7881C74.3475 19.0861 73.9319 17.6273 73.5634 16.4587C73.7751 16.4273 73.9789 16.4038 74.1906 16.3803C75.2884 19.541 76.0648 23.2194 76.0648 23.2194C76.0648 23.2194 76.0805 23.2194 76.1197 23.2194C76.4177 23.1881 76.4647 22.8979 76.449 22.6077C76.4255 22.1606 76.3706 21.8469 76.3314 21.3999C76.2922 20.9763 76.1824 20.7646 76.5823 20.6861C76.9901 20.6077 78.1507 20.5371 78.7858 20.4979C79.0132 20.4822 79.1936 20.2783 79.1622 20.0508C78.9897 18.5685 78.723 17.1959 78.425 15.9646H78.5584L78.3859 15.3215C78.3859 15.3215 78.3467 15.3215 78.2683 15.3215C77.8919 13.8783 77.4841 12.6705 77.139 11.7607C77.2959 11.7607 77.4527 11.7607 77.6174 11.7607C78.1898 13.1254 78.8642 15.0234 79.4523 17.392C79.4523 17.392 79.8679 17.5254 79.813 16.9763C79.7816 16.6234 79.7346 16.3567 79.6484 15.4234C79.6327 15.2352 79.7738 15.0705 79.962 15.0626C80.2051 15.0626 80.5422 15.0469 80.8637 15.0313C81.3342 15.0156 81.6949 14.5999 81.64 14.1293C81.5773 13.5803 81.4597 12.8038 81.2558 11.894H81.3813L81.1539 11.2587C81.1539 11.2587 81.1382 11.2587 81.1069 11.2587C80.8795 10.3568 80.5737 9.3607 80.1424 8.31756C80.2992 8.31756 80.456 8.31756 80.605 8.31756C81.0598 9.28227 81.64 10.6705 82.1262 12.3881C82.1262 12.3881 82.5183 12.545 82.4399 11.996C82.4242 11.8626 82.3615 11.2587 82.3615 11.1019C82.3772 10.3881 83.4671 10.3881 82.9653 8.48227C82.9653 8.40384 82.4085 8.34894 81.5695 8.32541C81.5067 8.14501 81.4519 7.96463 81.3813 7.79992C82.1733 7.79208 82.9653 7.80776 83.5769 7.87835C84.1023 7.94109 84.016 7.56463 83.9455 7.27443C83.8435 6.81953 83.4593 5.49405 83.177 4.80386C82.9653 4.29406 83.2633 4.33327 83.4828 4.73327C83.9769 5.6117 84.4473 6.83522 84.4473 6.83522C84.4473 6.83522 84.8708 7.06267 84.6434 6.04307C84.4081 4.99209 84.4317 4.51366 84.6591 4.16072C85.1531 3.37641 85.8274 2.27838 86.1567 1.83132C86.6742 1.13329 86.3136 0.458782 85.7882 0.639174C86.6507 0.223489 87.6623 1.07054 87.3095 2.03524C87.3095 2.03524 75.7511 33.1645 75.5786 33.6351C75.9236 34.6625 75.9237 35.141 75.2493 36.741C74.5828 38.3174 74.0731 39.3919 74.0731 39.3919L69.9406 36.49C73.0459 32.7488 72.5597 30.9998 71.3286 29.6508C68.0665 26.0743 62.8441 23.6038 60.6328 22.9998C59.7311 22.7567 59.8329 22.2312 62.1305 23.0469C62.1226 23.0469 62.1149 23.0469 62.0992 23.0469C62.3893 23.2273 62.3893 23.2587 63.048 23.4391C63.0715 23.4391 63.1028 23.4234 63.1264 23.4234C63.5655 23.6038 64.0517 23.8155 64.6006 24.0743C64.8358 24.1841 65.0789 24.3096 65.3377 24.443C65.5965 24.5841 65.8631 24.7332 66.1218 24.89C67.996 26.0037 69.9328 27.439 69.9328 27.439L71.1326 27.1881C70.8581 25.2508 70.4895 23.5175 70.1053 22.043C70.3327 22.0116 70.5679 21.9724 70.8032 21.9332C71.8226 25.5253 72.3558 29.1175 72.3558 29.1175V29.1724L72.3401 29.1488Z" fill="#8D2A00"/>
<path d="M74.8801 15.6592C74.59 15.6985 74.2921 15.7377 73.9706 15.7847C73.5942 14.7651 73.1864 13.8318 72.7629 13.1338C72.465 12.6553 72.1121 12.7887 72.3944 13.2357C72.3944 13.2357 72.81 14.1691 73.3668 15.8632C72.2062 16.0279 70.9123 16.2475 69.595 16.5141C69.2186 15.769 68.8265 15.1416 68.4658 14.6867L66.7329 14.3887C75.0527 8.37301 85.6151 0.725983 85.6151 0.725983C85.6622 0.686768 85.717 0.655396 85.7719 0.624024C85.7797 0.624024 85.7876 0.624024 85.7954 0.61618C86.3208 0.443632 86.6815 1.11814 86.164 1.80833C85.8346 2.26323 85.1603 3.36126 84.6663 4.13773C84.4389 4.49067 84.4154 4.9691 84.6506 6.02007C84.878 7.03968 84.4546 6.81223 84.4546 6.81223C84.4546 6.81223 83.9841 5.5887 83.4901 4.71028C83.2705 4.31028 82.9726 4.27106 83.1843 4.78086C83.4666 5.46321 83.8508 6.7887 83.9527 7.25144C84.0154 7.54164 84.1096 7.9181 83.5842 7.85536C82.9726 7.78477 82.1805 7.76909 81.3885 7.77693C81.0435 7.77693 80.6985 7.78477 80.3691 7.80046C80.2358 7.52595 80.1182 7.30634 80.0241 7.1338C79.7811 6.6789 79.4753 6.80438 79.6556 7.18085C79.7576 7.39262 79.8516 7.60438 79.9379 7.81614C79.3498 7.84752 78.8479 7.88673 78.5499 7.91811C77.8207 8.00438 77.8912 8.373 78.6283 8.34163C79.138 8.3181 79.6556 8.30242 80.1418 8.29457C80.5652 9.33771 80.8789 10.3338 81.1063 11.2357C80.8553 11.2044 79.7262 11.1416 78.1736 11.2044C77.9305 11.2044 77.6717 11.22 77.4051 11.2357C77.115 10.5769 76.864 10.075 76.6915 9.7377C76.4328 9.23575 76.1348 9.47104 76.3778 9.91809C76.3778 9.91809 76.6209 10.4044 76.966 11.2671C76.2524 11.322 75.4839 11.4004 74.6998 11.5259C73.9548 11.6436 73.9627 11.9495 74.6998 11.8946C74.7076 11.8789 75.6799 11.7848 77.1541 11.7612C77.4992 12.671 77.907 13.8789 78.2834 15.322C77.907 15.3377 76.6366 15.4396 74.9036 15.6592H74.8801Z" fill="#C35500"/>
<path d="M81.5606 8.3096C82.3917 8.32528 82.9564 8.38801 82.9564 8.46643C83.4582 10.3719 82.3682 10.3719 82.3525 11.0855C82.3525 11.2423 82.4153 11.8461 82.4309 11.9794C82.5094 12.5361 82.1174 12.3715 82.1174 12.3715C81.6312 10.6542 81.0587 9.26626 80.5961 8.30176C80.9411 8.30176 81.2704 8.30176 81.5606 8.31744V8.3096Z" fill="#C35500"/>
<path d="M78.3846 11.7529C79.263 11.7608 80.2355 11.8 81.2473 11.8863C81.4512 12.8039 81.5689 13.5804 81.6317 14.1215C81.6866 14.5921 81.3257 15.0078 80.8551 15.0235C80.5414 15.0313 80.2042 15.047 79.9532 15.0549C79.7572 15.0549 79.6238 15.2274 79.6395 15.4157C79.7179 16.3568 79.7728 16.6235 79.8042 16.9686C79.8591 17.5176 79.4434 17.3843 79.4434 17.3843C78.8552 15.0157 78.1807 13.1176 77.6082 11.7529C77.8513 11.7529 78.1179 11.7529 78.3846 11.7529Z" fill="#C35500"/>
<path d="M81.3813 7.78421C81.444 7.94888 81.5067 8.12923 81.5695 8.30959C81.2715 8.30174 80.95 8.2939 80.605 8.2939C80.5266 8.11355 80.4403 7.94888 80.3697 7.79989C80.699 7.78421 81.0363 7.78421 81.3891 7.77637L81.3813 7.78421Z" fill="#C35500"/>
<path d="M81.1461 11.251L81.3735 11.9018H81.248C81.201 11.6823 81.1461 11.4705 81.0912 11.251C81.1226 11.251 81.1383 11.251 81.1383 11.251H81.1461Z" fill="#8D2A00"/>
<path d="M81.0908 11.2433C81.1457 11.4629 81.2005 11.6824 81.2476 11.8863C80.236 11.8 79.2559 11.7608 78.3855 11.753C78.3071 11.557 78.2365 11.3766 78.1581 11.2041C79.7107 11.1414 80.8399 11.2041 81.0908 11.2355V11.2433Z" fill="#8D2A00"/>
<path d="M80.3613 7.80713C80.4398 7.95612 80.5182 8.12079 80.5966 8.30114C80.4476 8.30114 80.2908 8.30114 80.134 8.30114C80.0713 8.14431 80.0007 7.97964 79.9301 7.82281C80.0713 7.82281 80.2123 7.80713 80.3613 7.80713Z" fill="#8D2A00"/>
<path d="M79.9295 7.82373C80 7.98056 80.0706 8.14523 80.1334 8.30206C79.6472 8.30206 79.1375 8.32559 78.6199 8.34911C77.8828 8.38048 77.8123 8.01977 78.5415 7.92567C78.8395 7.8943 79.3414 7.84725 79.9295 7.82373Z" fill="#8D2A00"/>
<path d="M80.0166 7.14079C80.1107 7.3133 80.2283 7.53286 80.3616 7.80731C80.2126 7.80731 80.0715 7.82299 79.9304 7.82299C79.8441 7.61127 79.7501 7.39956 79.6481 7.18784C79.4678 6.80361 79.7814 6.68598 80.0166 7.14079Z" fill="#8D2A00"/>
<path d="M75.0839 16.2703C76.1974 16.1369 77.3187 16.0271 78.4165 15.9565C78.7145 17.1879 78.9733 18.5605 79.1536 20.0428C79.185 20.2702 79.0047 20.482 78.7773 20.4899C78.1421 20.5212 76.9815 20.5918 76.5738 20.6781C76.1817 20.7565 76.2837 20.9604 76.3229 21.3918C76.3621 21.8389 76.4169 22.1526 76.4404 22.5996C76.4561 22.8977 76.4091 23.1879 76.1112 23.2114C76.0798 23.2114 76.0562 23.2114 76.0562 23.2114C76.0562 23.2114 75.28 19.533 74.1822 16.3722C74.4802 16.333 74.7781 16.2938 75.0839 16.2624V16.2703Z" fill="#C35500"/>
<path d="M78.3768 15.3208L78.5493 15.956H78.4159C78.3689 15.7442 78.314 15.5325 78.2592 15.3286C78.3376 15.3286 78.3768 15.3208 78.3768 15.3286V15.3208Z" fill="#8D2A00"/>
<path d="M78.385 11.754C78.1184 11.754 77.8597 11.754 77.6087 11.754C77.5303 11.5736 77.4597 11.4011 77.3892 11.2443C77.6558 11.2286 77.9145 11.2129 78.1576 11.2129C78.2282 11.3776 78.3066 11.5658 78.385 11.7618V11.754Z" fill="#C35500"/>
<path d="M78.2604 15.3208C78.3153 15.5247 78.3701 15.7364 78.4172 15.956C77.3194 16.0265 76.198 16.1363 75.0845 16.2696C75.014 16.0579 74.9434 15.854 74.8728 15.6658C76.6136 15.4463 77.8761 15.3443 78.2525 15.3286L78.2604 15.3208Z" fill="#8D2A00"/>
<path d="M77.3892 11.2432C77.4598 11.4079 77.5304 11.5725 77.6088 11.7529C77.4441 11.7529 77.2872 11.7529 77.1304 11.7529C77.0677 11.5804 76.9971 11.4157 76.9422 11.2667C77.0912 11.2589 77.2402 11.2432 77.3892 11.2354V11.2432Z" fill="#8D2A00"/>
<path d="M76.9427 11.2744C76.9976 11.4234 77.0604 11.5881 77.1309 11.7606C75.6567 11.792 74.6844 11.8861 74.6766 11.8939C73.9395 11.9488 73.9316 11.643 74.6766 11.5254C75.4607 11.4077 76.2292 11.3215 76.9427 11.2666V11.2744Z" fill="#8D2A00"/>
<path d="M77.3899 11.2427C77.2409 11.2505 77.0919 11.2662 76.9429 11.274C76.5979 10.4115 76.3548 9.92531 76.3548 9.92531C76.1195 9.47834 76.4097 9.2431 76.6685 9.74495C76.8488 10.0821 77.0919 10.584 77.3821 11.2427H77.3899Z" fill="#8D2A00"/>
<path d="M71.5473 21.7995C72.6216 21.6426 73.7352 21.5014 74.8644 21.3838C75.0682 22.3014 75.2564 23.274 75.4368 24.3093C75.5701 25.0857 75.6406 25.8622 75.6798 26.3014C75.6955 26.5132 75.5465 26.6936 75.3348 26.7249C74.8016 26.8034 73.8136 26.9445 73.1863 27.0543C72.9589 27.0857 72.7706 27.3053 72.7628 27.5328C72.7314 28.4583 72.9902 29.0465 72.5903 29.1249C72.5511 29.1249 72.4491 29.1406 72.3393 29.1485V29.0936C72.3393 29.0936 71.8061 25.5093 70.7867 21.9093C71.0377 21.8701 71.2886 21.8308 71.5473 21.7916V21.7995Z" fill="#C35500"/>
<path d="M74.8011 20.7881L75.0443 21.3684L74.8639 21.384C74.8169 21.1802 74.7776 20.9841 74.7306 20.7881C74.7776 20.7881 74.7933 20.7881 74.7933 20.7881H74.8011Z" fill="#8D2A00"/>
<path d="M74.8803 15.6597C74.943 15.8479 75.0214 16.0517 75.092 16.2635C74.7862 16.2948 74.4882 16.334 74.1902 16.3732C74.1196 16.1772 74.0491 15.9733 73.9786 15.7851C74.2922 15.7381 74.598 15.6989 74.8881 15.6597H74.8803Z" fill="#C35500"/>
<path d="M74.7308 20.7881C74.7779 20.9841 74.8171 21.1802 74.8642 21.384C73.7272 21.5017 72.6136 21.6428 71.5471 21.7996C71.5001 21.6036 71.4452 21.3997 71.3825 21.2037C73.1782 20.9449 74.4407 20.8116 74.7308 20.7959V20.7881Z" fill="#8D2A00"/>
<path d="M73.9697 15.7837C74.0403 15.9798 74.1187 16.1758 74.1814 16.3718C73.9697 16.3954 73.758 16.4267 73.5541 16.4502C73.4914 16.2464 73.4286 16.0503 73.3659 15.8621C73.5698 15.8308 73.7737 15.7994 73.9697 15.7759V15.7837Z" fill="#8D2A00"/>
<path d="M73.5542 16.459C73.9227 17.6276 74.3383 19.0864 74.7304 20.7884C74.4403 20.8119 73.1778 20.9374 71.3821 21.1962C70.9665 19.706 70.4176 18.2472 69.8373 17.0315C70.9822 16.8355 72.2447 16.6315 73.5542 16.459Z" fill="#C35500"/>
<path d="M73.9708 15.7838C73.7748 15.8073 73.5709 15.8387 73.367 15.8701C72.8103 14.1763 72.3947 13.2432 72.3947 13.2432C72.1046 12.7962 72.4653 12.6551 72.7632 13.1412C73.1867 13.8391 73.5945 14.7723 73.9708 15.7916V15.7838Z" fill="#8D2A00"/>
<path d="M73.367 15.8706C73.4297 16.0588 73.4924 16.2548 73.5552 16.4587C72.2456 16.6312 70.991 16.8351 69.8383 17.0311C69.7599 16.8508 69.6736 16.6861 69.5873 16.5214C70.9125 16.2548 72.1986 16.0431 73.3591 15.8706H73.367Z" fill="#8D2A00"/>
<path d="M71.382 21.2026C71.4369 21.3987 71.4917 21.6025 71.5466 21.7986C71.2878 21.83 71.0369 21.8692 70.786 21.9162C70.7311 21.7202 70.6684 21.5163 70.6135 21.3203C70.8801 21.2811 71.1389 21.2418 71.382 21.2026Z" fill="#C35500"/>
<path d="M71.3123 29.619C72.5512 30.9758 73.0295 32.717 69.9243 36.4582L52.2262 24.0425C52.2262 24.0425 53.5435 23.0151 54.5942 22.1994C55.3627 21.6033 55.9822 21.4151 56.8526 21.5171C56.978 21.4386 61.385 18.2465 66.7172 14.3877L68.4501 14.6857C68.8187 15.1406 69.2029 15.7759 69.5792 16.5132C69.3048 16.5681 69.0225 16.6308 68.7403 16.6857C68.6775 16.5759 68.607 16.474 68.5442 16.3642C68.2384 15.8936 67.8856 16.0191 68.1757 16.4661C68.1757 16.4661 68.2227 16.5681 68.3168 16.772C67.2582 17.0151 66.184 17.2818 65.1568 17.5877C64.7725 17.7053 64.5686 17.8465 64.6313 17.9171L63.5492 18.9994C63.4238 18.9994 63.3845 19.1485 63.5492 19.4073C63.5492 19.4073 64.0667 20.4739 64.694 22.3798C63.8393 22.568 62.9611 22.772 62.0986 22.9994C59.801 22.1837 59.6991 22.7092 60.6008 22.9524C62.8121 23.5563 68.0345 26.0269 71.2966 29.6033L71.3123 29.619Z" fill="#C35500"/>
<path d="M66.2465 22.7254C67.3913 22.498 68.693 22.247 70.0888 22.0195C70.4731 23.494 70.8416 25.2195 71.1161 27.1646L69.9163 27.4156C69.9163 27.4156 67.9795 25.9803 66.1054 24.8666C65.925 24.1921 65.7211 23.5254 65.5016 22.8823C65.7447 22.8274 65.9956 22.7803 66.2543 22.7254H66.2465Z" fill="#C35500"/>
<path d="M70.6148 21.313C70.6775 21.509 70.7324 21.7129 70.7873 21.9089C70.552 21.9403 70.3168 21.9795 70.0894 22.0187C70.0345 21.8148 69.9796 21.611 69.9247 21.4228C70.16 21.3836 70.3874 21.3522 70.6069 21.313H70.6148Z" fill="#8D2A00"/>
<path d="M69.8381 17.0317C70.4184 18.2472 70.9672 19.7057 71.3828 21.1956C71.1398 21.2269 70.8732 21.2661 70.6144 21.3132C70.1674 19.8155 69.6342 18.3491 69.0147 17.1807C69.2813 17.1337 69.5558 17.0788 69.8381 17.0317Z" fill="#C35500"/>
<path d="M70.6136 21.3126C70.3941 21.344 70.1667 21.3832 69.9314 21.4224C69.406 19.5091 68.865 18.0819 68.5278 17.2664C68.6846 17.2351 68.8493 17.2037 69.0218 17.1802C69.6413 18.3564 70.1667 19.8149 70.6215 21.3126H70.6136Z" fill="#8D2A00"/>
<path d="M69.9329 21.4233C69.9878 21.6194 70.0427 21.8154 70.0976 22.0193C68.694 22.2467 67.4001 22.4898 66.2552 22.725C66.1847 22.5133 66.1219 22.3094 66.0592 22.1212C67.4393 21.8468 68.7646 21.6115 69.9408 21.4233H69.9329Z" fill="#8D2A00"/>
<path d="M69.5872 16.522C69.6656 16.6866 69.7519 16.8592 69.8382 17.0317C69.5559 17.0787 69.2814 17.1258 69.0148 17.1807C68.9286 17.016 68.8345 16.8513 68.7482 16.6945C69.0305 16.6318 69.3128 16.5769 69.5872 16.522Z" fill="#C35500"/>
<path d="M66.0513 22.1131C65.8003 22.1602 65.5416 22.2151 65.2907 22.27C64.8594 21.0935 64.3889 20.0583 63.9341 19.3132C63.8008 19.1014 63.6675 19.0151 63.5734 19.0151L64.6556 17.9328C64.7183 17.9955 64.9849 17.9955 65.5259 17.8779C66.2474 17.7132 67.2902 17.5014 68.537 17.2661C68.8742 18.0818 69.4153 19.5014 69.9407 21.423C68.7645 21.6112 67.4392 21.8386 66.0591 22.121L66.0513 22.1131Z" fill="#C35500"/>
<path d="M68.748 16.6934C68.8421 16.8502 68.9284 17.007 69.0146 17.1795C68.8499 17.2109 68.6853 17.2344 68.5206 17.2658C68.4422 17.0697 68.3716 16.9051 68.3167 16.7875C68.4579 16.7561 68.599 16.7247 68.7402 16.6934H68.748Z" fill="#8D2A00"/>
<path d="M68.5526 16.3723C68.6153 16.4743 68.6859 16.584 68.7486 16.6938C68.6075 16.7252 68.4663 16.7566 68.3251 16.7879C68.2389 16.584 68.184 16.4821 68.184 16.4821C67.8939 16.0351 68.2467 15.9018 68.5526 16.3802V16.3723Z" fill="#8D2A00"/>
<path d="M68.3252 16.7881C68.3801 16.9135 68.4506 17.0704 68.5291 17.2664C67.2823 17.4938 66.2394 17.7134 65.518 17.878C64.9769 18.0035 64.7025 17.9957 64.6476 17.9329C64.5848 17.8624 64.7808 17.7212 65.1729 17.6036C66.2001 17.2899 67.2744 17.0233 68.333 16.7881H68.3252Z" fill="#8D2A00"/>
<path d="M66.051 22.1133C66.1138 22.3015 66.1843 22.5054 66.2471 22.7171C65.9883 22.7641 65.7374 22.819 65.4943 22.8739C65.4238 22.67 65.3532 22.4661 65.2826 22.2701C65.5414 22.2152 65.7924 22.1682 66.0433 22.1133H66.051Z" fill="#C35500"/>
<path d="M65.5018 22.8823C65.7213 23.5175 65.9252 24.1918 66.1056 24.8662C65.839 24.7094 65.5724 24.5604 65.3214 24.4192C65.1803 23.9096 65.047 23.4391 64.9058 23.0078C65.1019 22.9686 65.2979 22.9294 65.5018 22.8823Z" fill="#8D2A00"/>
<path d="M65.2898 22.271C65.3604 22.467 65.431 22.6709 65.5015 22.8748C65.2977 22.914 65.0938 22.9532 64.9056 23.0003C64.8428 22.7885 64.7723 22.5925 64.7095 22.3965C64.9056 22.3494 65.0938 22.3102 65.2898 22.271Z" fill="#8D2A00"/>
<path d="M63.9258 19.3214C64.3806 20.0663 64.8511 21.1014 65.2824 22.2776C65.0863 22.3168 64.8981 22.3561 64.7021 22.4031C64.0748 20.4976 63.5573 19.4312 63.5573 19.4312C63.3926 19.1803 63.4396 19.0234 63.5573 19.0234C63.6514 19.0234 63.7925 19.1175 63.9179 19.3214H63.9258Z" fill="#8D2A00"/>
<path d="M64.8971 23C65.0382 23.4391 65.1715 23.9096 65.3127 24.4115C65.0618 24.2782 64.8109 24.1527 64.5756 24.0429C64.0267 23.7841 63.5406 23.5724 63.1014 23.3921C63.6033 23.2745 64.1992 23.1411 64.8892 23H64.8971Z" fill="#C35500"/>
<path d="M64.7088 22.3965C64.7716 22.5926 64.8421 22.7886 64.9049 23.0003C64.2148 23.1493 63.6189 23.2826 63.117 23.3924C62.7485 23.2434 62.4113 23.1179 62.1212 23.0081C62.9838 22.7807 63.8541 22.5769 64.7167 22.3887L64.7088 22.3965Z" fill="#8D2A00"/>
<path d="M63.1182 23.3989C63.1182 23.3989 63.0634 23.4145 63.0399 23.4145C62.389 23.2263 62.389 23.2028 62.0911 23.0225C62.0989 23.0225 62.1068 23.0225 62.1225 23.0225C62.4204 23.1244 62.7497 23.2499 63.1182 23.4067V23.3989Z" fill="#8D2A00"/>
<path d="M85.7871 0.624098C85.7871 0.624098 85.7714 0.624098 85.7635 0.631941C85.7086 0.663314 85.6538 0.694685 85.6067 0.726058C85.6067 0.726058 75.0522 8.37308 66.7246 14.3887C61.3924 18.2475 56.9776 21.4318 56.8599 21.5181C55.9895 21.4161 55.3701 21.6044 54.6016 22.2005C53.5508 23.0161 52.2335 24.0436 52.2335 24.0436L69.9317 36.4592L74.0641 39.3612C74.0641 39.3612 74.5738 38.2945 75.2404 36.7102C75.9147 35.1102 75.9147 34.6318 75.5696 33.6043C75.7422 33.1337 87.3005 2.00448 87.3005 2.00448C87.6534 1.03978 86.6418 0.192728 85.7792 0.608412L85.7871 0.624098Z" fill="#C35500"/>
<path d="M72.3384 29.1494C72.4482 29.1494 72.5502 29.1337 72.5894 29.1259C72.9815 29.0474 72.7305 28.4592 72.7619 27.5337C72.7698 27.3063 72.9658 27.0945 73.1854 27.0553C73.8127 26.9455 74.8007 26.8043 75.3339 26.7259C75.5457 26.6945 75.6946 26.5141 75.6789 26.3023C75.6475 25.8631 76.0553 23.2122 76.0553 23.2122C76.0553 23.2122 76.071 23.2122 76.1102 23.2122C76.4082 23.1808 76.4552 22.8906 76.4395 22.6004C76.416 22.1533 76.3612 21.8396 76.322 21.3926C76.2828 20.969 76.1729 20.7573 76.5729 20.6788C76.9806 20.6004 78.1412 20.5298 78.7763 20.4906C79.0037 20.4749 79.1841 20.271 79.1527 20.0435C78.9802 18.5612 78.5097 15.9494 78.5489 15.9494C78.5489 15.9494 78.8547 15.0161 79.4429 17.3847C79.4429 17.3847 79.8584 17.5181 79.8035 16.969C79.7722 16.6161 79.7251 16.3494 79.6389 15.4161C79.6232 15.2279 79.7644 15.0632 79.9526 15.0553C80.1957 15.0553 80.5328 15.0396 80.8543 15.024C81.3247 15.0083 81.6855 14.5926 81.6306 14.122C81.5679 13.573 81.6306 10.6475 82.1168 12.3652C82.1168 12.3652 82.5088 12.522 82.4304 11.973C82.4147 11.8397 82.352 11.2357 82.352 11.0789C82.3677 10.3652 83.4577 10.3652 82.9558 8.45929C82.9558 8.38086 82.9558 7.78478 83.5753 7.85537C84.1007 7.91812 84.0144 7.54165 83.9438 7.25145C83.8419 6.79655 84.4457 6.82008 84.4457 6.82008C84.4457 6.82008 84.8691 7.04753 84.6417 6.02793C84.4065 4.97695 84.43 4.49853 84.6574 4.14559C85.1515 3.36128 85.8257 2.26324 86.1551 1.81619C86.6726 1.11815 86.3119 0.443646 85.7866 0.624037C86.6491 0.208353 87.6607 1.05541 87.3079 2.02011C87.3079 2.02011 75.7495 33.1494 75.577 33.6199C75.922 34.6474 75.9221 35.1258 75.2477 36.7258C74.5812 38.3023 74.0715 39.3768 74.0715 39.3768L69.939 36.4748C73.0442 32.7337 72.5581 30.9847 71.327 29.6357C68.0649 26.0592 62.8425 23.5886 60.6312 22.9847C59.7294 22.7416 62.1132 23.0318 62.1054 23.0396C62.3955 23.22 65.0852 24.2945 65.3361 24.4357C65.5948 24.5769 69.939 27.4317 69.939 27.4317L72.3541 29.118V29.1729L72.3384 29.1494Z" fill="#8D2A00"/>
<path d="M62.0903 23.0238C69.477 22.5454 76.1579 18.4591 79.9453 12.0905L84.6581 4.15332L85.6225 4.92194L74.5817 32.9375L71.5001 28.9846L69.9239 27.4081L62.0903 23.016V23.0238Z" fill="#8D2A00"/>
<path d="M34.3541 52.4913C38.0699 52.4913 41.0821 51.2799 41.0821 49.7855C41.0821 48.291 38.0699 47.0796 34.3541 47.0796C30.6384 47.0796 27.6261 48.291 27.6261 49.7855C27.6261 51.2799 30.6384 52.4913 34.3541 52.4913Z" fill="#1B90FF"/>
<path d="M98.8026 40.5294C96.0895 40.749 87.4325 41.5098 80.8614 42.0902C75.3724 39.8863 66.4802 38.8745 56.4353 38.8745C39.7722 38.8745 44.9711 41.949 44.9711 48.3411C44.9711 52.7568 50.5934 60.2783 50.0681 57.7528C50.5934 57.8548 55.4786 59.3842 57.0626 59.3842C73.3414 59.3842 86.0054 54.6705 86.5857 48.498C91.9022 45.9333 100.575 41.7686 101.312 41.4863C102.912 40.8667 101.578 40.3098 98.7948 40.5294H98.8026Z" fill="#1B90FF"/>
<path d="M76.6202 49.3917C76.6202 50.2073 76.4241 51.1093 76.0242 52.0113C76.9338 47.4074 72.9895 45.9799 71.0841 45.7132C69.7118 45.5956 73.8913 45.1485 74.6441 40.8662C74.55 42.3172 74.2363 43.7133 73.7345 45.0387C75.4518 45.8701 76.6202 47.5093 76.6202 49.3917Z" fill="#FFEAF4"/>
<path d="M71.0848 45.7136C72.9903 45.9724 76.9346 47.4077 76.025 52.0116C75.084 54.1528 73.0216 56.3096 69.791 57.3214C65.2115 58.7567 60.0048 59.2822 55.3705 59.1018V59.0626C57.2681 59.141 58.9462 58.9057 59.5892 58.6547C62.5298 57.4939 60.7733 54.5371 58.3267 54.341C51.7007 53.8155 49.5836 52.8116 51.2303 52.8665C54.1708 52.9685 58.0602 52.5528 60.2166 51.1332C62.373 49.7136 62.0122 46.8195 59.6912 46.7724C56.5703 46.7018 55.8018 47.3293 57.5505 45.9332C65.9016 39.2509 62.2083 24.5137 54.1159 23.502C57.127 23.6823 60.9067 24.7098 63.7845 26.3412C68.9755 29.2823 73.7431 34.6862 74.5665 38.2234C74.6919 38.7725 74.6684 39.3529 74.6684 39.9254C74.6684 40.247 74.6605 40.5607 74.637 40.8744C73.8842 45.1567 69.7125 45.6038 71.077 45.7214L71.0848 45.7136Z" fill="#FFEAF4"/>
<path d="M42.314 54.3089C42.3924 54.3245 42.4707 54.3481 42.5413 54.3716C42.5413 54.3245 42.5256 54.2853 42.5256 54.2383C42.455 54.2618 42.3845 54.2853 42.314 54.3089Z" fill="white"/>
<path d="M51.238 52.8666C49.5913 52.8039 51.7084 53.8078 58.3344 54.3333C60.781 54.5294 62.5374 57.494 59.5969 58.647C58.9539 58.9058 57.2758 59.1411 55.3782 59.0548V59.1019C51.1124 58.9372 47.3329 58.1764 44.9961 56.9686C44.8236 58.4666 43.271 59.7607 39.2641 59.4548C38.9504 59.4313 38.6445 59.3999 38.3544 59.3685C34.7944 58.9607 33.03 57.8627 33.03 56.3019C33.03 55.3921 33.924 54.796 35.2335 54.4352C33.5084 53.9803 27 52.9294 27 50.0353C27 47.1412 29.1564 45.2353 31.6578 44.8353C32.2145 42.1608 33.6809 40.4824 35.8922 39.9883C35.8765 40.7726 35.9079 41.6667 36.0412 42.5608C36.0412 42.5608 38.2525 42.5608 38.9347 44.6627C38.9347 44.6627 37.9232 46.2157 37.5233 47.2588C37.4762 47.3843 37.6017 47.5019 37.7193 47.447C38.4486 47.1098 40.3932 46.4745 42.6672 47.9255C42.6672 47.9255 43.5612 43.9255 46.6036 44.3961C46.1332 46.2392 48.6032 48.498 52.5474 45.7686C53.5903 45.0471 52.1867 45.6667 50.5008 45.7137C48.713 45.7686 46.0704 44.6235 47.082 41.8549C47.4662 40.8039 48.2739 40.1765 48.7443 39.5333C49.4579 38.553 49.5912 37.6902 48.7129 36.7177C47.6073 35.5098 47.7172 34.1059 47.6074 33.4471L36.1118 37.4549C37.3272 30.3177 43.7179 24.4511 51.9515 23.5256C52.6023 23.455 53.3394 23.4393 54.1236 23.4864C59.0088 24.0981 62.2866 29.7138 62.2866 35.5334C62.2866 39.3608 60.8672 43.2745 57.5581 45.9255C55.8095 47.3215 56.5779 46.6941 59.6988 46.7647C62.0199 46.8196 62.3806 49.7137 60.2243 51.1333C58.0679 52.5529 54.1785 52.9686 51.238 52.8666Z" fill="white"/>
<path d="M50.4922 45.7139C52.1781 45.6668 53.5817 45.0472 52.5388 45.761C48.5945 48.4982 42.6585 47.9178 42.6585 47.9178C40.3845 46.4747 37.4676 47.3766 37.5146 47.2511C37.9145 46.208 38.926 44.6551 38.926 44.6551C38.2438 42.5531 36.0326 42.5531 36.0326 42.5531C35.8992 41.659 35.8678 40.7649 35.8835 39.9806C35.8835 39.9806 35.8835 39.9806 35.8914 39.9806C35.8914 39.9571 35.8914 39.9335 35.8914 39.9178C35.8914 39.7845 35.8914 39.659 35.8914 39.5335C35.8914 39.51 35.8914 39.4865 35.8914 39.4551C35.907 39.0002 35.9384 38.6081 35.9698 38.2786C35.9698 38.2473 35.9698 38.2159 35.9776 38.1845C36.009 37.9414 36.0404 37.6904 36.0874 37.4473L47.583 33.4395C47.6928 34.1061 47.583 35.51 48.6887 36.7179C49.5748 37.6826 49.4335 38.5453 48.72 39.5257C48.2495 40.1688 47.4418 40.8041 47.0576 41.8551C46.046 44.6159 48.6886 45.761 50.4765 45.7139H50.4922Z" fill="#FFEAF4"/>
<path d="M35.9073 39.455C35.9152 39.063 35.9465 38.6709 35.9857 38.2788C35.9544 38.6003 35.923 39.0002 35.9073 39.455Z" fill="white"/>
<path d="M47.6374 33.5105C47.8804 34.4281 46.5944 35.1967 46.1632 35.9967C45.8809 36.5222 43.748 38.0281 42.2346 39.8869C42.0934 40.0594 41.9837 40.2241 41.8818 40.3732C41.1368 40.0751 40.3214 39.3457 39.2863 36.7104C38.557 34.8516 36.2908 34.185 35.938 36.13C35.6557 37.6908 37.5611 41.2281 40.9094 41.6673C40.7683 41.7614 40.5957 41.8477 40.3762 41.9104C40.2507 41.9496 40.1174 41.9732 39.9762 41.9888V41.9653C38.604 41.9104 37.1063 40.679 36.6593 40.1222C33.7737 36.5614 35.2871 32.6163 36.7143 33.2908C39.6078 34.6555 41.7641 33.0242 43.2305 31.3458C44.3753 30.036 45.4888 30.0673 46.3984 31.0085C46.3984 31.0085 46.4063 31.0163 46.4141 31.0242C46.9238 31.636 47.3472 32.4438 47.6374 33.5105Z" fill="#D20A0A"/>
<path d="M46.4067 31.0166C45.497 30.0754 44.3835 30.0441 43.2387 31.3539C41.7645 33.0401 39.6081 34.6715 36.7225 33.299C35.2953 32.6245 33.7819 36.5695 36.6675 40.1303C37.1145 40.6872 38.6122 41.9185 39.9766 41.9734V41.997C38.4083 42.1538 35.7344 40.844 34.7934 37.4793C33.6486 33.4009 35.4051 30.0362 40.1649 30.0049C41.6704 29.2362 44.5796 28.8598 46.3988 31.0166H46.4067ZM41.7645 31.9343C42.6584 30.8519 43.3249 30.2088 42.6584 30.2009C40.502 30.1696 39.4278 31.7539 39.765 32.4362C40.2198 33.3539 41.0901 32.7499 41.7645 31.9343Z" fill="#D20A0A"/>
<path d="M42.6587 30.2C43.3253 30.2 42.6587 30.8508 41.7648 31.9329C41.0904 32.7484 40.2279 33.3522 39.7653 32.4348C39.4203 31.7526 40.5023 30.1764 42.6587 30.2Z" fill="#D20A0A"/>
<path d="M41.889 40.3808C41.5126 40.9455 41.3558 41.3847 40.9166 41.6828C37.5683 41.2435 35.6629 37.6985 35.9452 36.1455C36.2981 34.2004 38.5642 34.8671 39.2934 36.7259C40.3206 39.3612 41.1362 40.0906 41.889 40.3886V40.3808Z" fill="#00144A"/>
<path d="M39.7333 32.3573C39.7333 32.3573 39.2472 28.0201 33.5464 23.7848C32.9583 23.3456 33.7033 22.2633 34.3384 22.7574C34.9736 23.2515 39.9372 27.926 40.541 32.8671C40.1725 32.9456 39.8431 32.8828 39.7412 32.3573H39.7333Z" fill="#00144A"/>
</svg>
