<svg width="128" height="128" viewBox="0 0 128 128" fill="none" xmlns="http://www.w3.org/2000/svg">
<mask id="mask0_2672_44840" style="mask-type:alpha" maskUnits="userSpaceOnUse" x="0" y="0" width="128" height="128">
<circle cx="64" cy="64" r="64" fill="#EBF8FF"/>
</mask>
<g mask="url(#mask0_2672_44840)">
<path d="M181.779 -19.6602H-50.1536C-51.6653 -19.6616 -53.1626 -19.3546 -54.5597 -18.7569C-55.9568 -18.1591 -57.2264 -17.2822 -58.2959 -16.1763C-59.3654 -15.0704 -60.2138 -13.7572 -60.7926 -12.3117C-61.3715 -10.8663 -61.6694 -9.3169 -61.6694 -7.7522V133.351C-61.6694 136.512 -60.4562 139.544 -58.2965 141.779C-56.1369 144.014 -53.2078 145.27 -50.1536 145.27H181.779C184.833 145.27 187.762 144.014 189.922 141.779C192.081 139.544 193.295 136.512 193.295 133.351V-7.7522C193.295 -9.3169 192.997 -10.8663 192.418 -12.3117C191.839 -13.7572 190.991 -15.0704 189.921 -16.1763C188.852 -17.2822 187.582 -18.1591 186.185 -18.7569C184.788 -19.3546 183.291 -19.6616 181.779 -19.6602Z" fill="#EBF8FF"/>
<path d="M-47.4729 65.7568H61.2229C61.8164 65.7477 62.3937 65.9501 62.8516 66.3278C63.3094 66.7055 63.6179 67.2338 63.7217 67.8181L76.9401 136.126C77.0238 136.496 77.0219 136.881 76.9344 137.251C76.8469 137.621 76.6762 137.966 76.4352 138.26C76.1943 138.554 75.8894 138.789 75.5439 138.947C75.1984 139.106 74.8213 139.183 74.4413 139.174H-33.0052C-33.5902 139.172 -34.1572 138.971 -34.6118 138.603C-35.0664 138.235 -35.3812 137.722 -35.5039 137.15L-49.9717 68.8425C-50.0621 68.4693 -50.0652 68.0801 -49.9809 67.7054C-49.8965 67.3307 -49.7268 66.9807 -49.4851 66.6822C-49.2434 66.3837 -48.9362 66.1448 -48.5872 65.9844C-48.2382 65.8239 -47.8569 65.7461 -47.4729 65.7568ZM-36.7283 83.9956L-28.4324 129.417C-28.334 130.006 -28.0278 130.54 -27.5695 130.923C-27.1111 131.306 -26.5308 131.512 -25.9337 131.503H48.904C49.2814 131.512 49.6558 131.435 49.999 131.278C50.3423 131.121 50.6455 130.888 50.886 130.597C51.1265 130.306 51.2979 129.965 51.3874 129.598C51.4769 129.232 51.4821 128.849 51.4028 128.48L48.4043 112.728H60.1235C60.5003 112.724 60.8717 112.637 61.2113 112.473C61.5509 112.31 61.8505 112.074 62.0888 111.782C62.3272 111.49 62.4985 111.149 62.5906 110.784C62.6828 110.418 62.6936 110.037 62.6222 109.667L56.2004 75.5757C56.0885 74.9921 55.779 74.4649 55.3239 74.0827C54.8688 73.7004 54.2959 73.4866 53.7016 73.4771H21.7176C21.342 73.4816 20.9719 73.5682 20.6333 73.7309C20.2948 73.8936 19.996 74.1284 19.7579 74.4189C19.5197 74.7094 19.3481 75.0485 19.2549 75.4124C19.1618 75.7763 19.1495 76.156 19.2188 76.5251L20.0934 81.1724L-34.1671 80.985C-34.5483 80.9672 -34.9285 81.037 -35.2786 81.189C-35.6286 81.341 -35.9392 81.5713 -36.1865 81.8619C-36.4338 82.1526 -36.6112 82.4959 -36.7051 82.8658C-36.799 83.2357 -36.807 83.6222 -36.7283 83.9956Z" fill="#D1EFFF"/>
<path d="M40.2835 81.2472L20.0311 81.1723L19.1565 76.5251C19.0872 76.1559 19.0995 75.7762 19.1927 75.4123C19.2858 75.0485 19.4574 74.7093 19.6955 74.4188C19.9337 74.1284 20.2325 73.8935 20.5711 73.7308C20.9096 73.5681 21.2797 73.4815 21.6553 73.4771H53.6393C54.2336 73.4865 54.8065 73.7004 55.2616 74.0826C55.7166 74.4648 56.0262 74.992 56.1381 75.5757L62.5599 109.667C62.6312 110.037 62.6205 110.418 62.5283 110.784C62.4362 111.149 62.2648 111.49 62.0265 111.782C61.7881 112.074 61.4886 112.31 61.149 112.473C60.8094 112.637 60.438 112.724 60.0611 112.728H48.342L42.7323 83.3209C42.6325 82.7428 42.3325 82.2181 41.8848 81.839C41.4371 81.4599 40.8702 81.2504 40.2835 81.2472Z" fill="#B8E6FF"/>
<path d="M21.955 99.2483C21.8521 99.1524 21.7701 99.0364 21.7139 98.9075C21.6578 98.7785 21.6289 98.6394 21.6289 98.4988C21.6289 98.3581 21.6578 98.2189 21.7139 98.0899C21.7701 97.961 21.8521 97.845 21.955 97.7491C22.0518 97.6478 22.1682 97.5674 22.297 97.5123C22.4259 97.4572 22.5645 97.4287 22.7047 97.4287C22.8448 97.4287 22.9835 97.4572 23.1123 97.5123C23.2411 97.5674 23.3575 97.6478 23.4543 97.7491L25.9531 100.248L28.4518 97.7491C28.6543 97.5692 28.9178 97.4735 29.1886 97.4815C29.4593 97.4894 29.7167 97.6006 29.9082 97.7921C30.0997 97.9836 30.2108 98.2409 30.2188 98.5116C30.2268 98.7823 30.131 99.0459 29.9511 99.2483L27.4523 101.747L29.9511 104.245C30.0593 104.341 30.1467 104.459 30.2079 104.59C30.2691 104.721 30.3029 104.863 30.3072 105.008C30.3114 105.152 30.2861 105.296 30.2327 105.431C30.1792 105.565 30.0989 105.687 29.9966 105.79C29.8942 105.892 29.7721 105.972 29.6376 106.026C29.503 106.079 29.3591 106.105 29.2144 106.1C29.0697 106.096 28.9275 106.062 28.7963 106.001C28.6652 105.94 28.548 105.853 28.4518 105.744L25.9531 103.246L23.4543 105.744C23.3575 105.846 23.2411 105.926 23.1123 105.981C22.9835 106.036 22.8448 106.065 22.7047 106.065C22.5645 106.065 22.4259 106.036 22.297 105.981C22.1682 105.926 22.0518 105.846 21.955 105.744C21.8521 105.648 21.7701 105.532 21.7139 105.404C21.6578 105.275 21.6289 105.135 21.6289 104.995C21.6289 104.854 21.6578 104.715 21.7139 104.586C21.7701 104.457 21.8521 104.341 21.955 104.245L24.4538 101.747L21.955 99.2483Z" fill="white"/>
<path d="M-34.2045 80.9849L20.056 81.1724L40.3084 81.2472C40.9036 81.2386 41.4825 81.4427 41.9406 81.8229C42.3987 82.2031 42.706 82.7344 42.8071 83.321L48.4169 112.728L51.4153 128.48C51.4947 128.849 51.4894 129.232 51.3999 129.598C51.3104 129.965 51.139 130.306 50.8986 130.597C50.6581 130.888 50.3549 131.121 50.0116 131.278C49.6683 131.435 49.294 131.512 48.9166 131.503H-25.8462C-26.4433 131.512 -27.0236 131.306 -27.4819 130.923C-27.9403 130.54 -28.2464 130.006 -28.3449 129.417L-36.7032 83.9956C-36.7804 83.6275 -36.7735 83.2467 -36.683 82.8816C-36.5925 82.5166 -36.4208 82.1767 -36.1805 81.8872C-35.9403 81.5978 -35.6379 81.3664 -35.2957 81.2102C-34.9536 81.0539 -34.5806 80.9769 -34.2045 80.9849Z" fill="#EBF8FF"/>
<path d="M155.495 20.9858L104.073 3.37111C101.889 2.62943 99.5195 3.78315 98.7779 5.96696L73.1489 80.7729C72.4073 82.9568 73.561 85.326 75.7448 86.0677L127.167 103.682C129.351 104.424 131.721 103.27 132.462 101.087L158.091 26.2806C158.833 24.0967 157.679 21.7275 155.495 20.9858Z" fill="#D1EFFF"/>
<path d="M124.654 22.2623C122.964 21.5824 121.09 21.4176 119.318 21.809C117.525 22.1798 115.898 23.0863 114.621 24.4049C113.343 25.7234 112.478 27.3716 112.148 29.1639C111.819 30.9563 112.025 32.8105 112.746 34.4999C113.467 36.1892 114.662 37.6108 116.207 38.5997C117.731 39.5886 119.524 40.1242 121.357 40.083C123.191 40.0624 124.963 39.4855 126.467 38.4554C127.971 37.4253 129.145 35.9626 129.825 34.2732L121.234 30.8533L124.674 22.2623H124.654Z" fill="#EBF8FF"/>
<path d="M127.394 21.0063L123.974 29.5768L132.545 32.9967C132.998 31.8636 133.224 30.6687 133.204 29.4532C133.204 28.2377 132.936 27.0427 132.462 25.9302C131.988 24.8177 131.288 23.8082 130.423 22.9635C129.557 22.1189 128.527 21.4596 127.394 21.0063Z" fill="#B8E6FF"/>
<path d="M134.522 51.6823L98.6955 39.4035C97.5006 38.9915 96.2233 39.6301 95.8112 40.8251C95.3992 42.02 96.0379 43.2973 97.2328 43.7093L133.06 55.9882C134.255 56.4002 135.532 55.7615 135.944 54.5666C136.356 53.3717 135.717 52.0944 134.522 51.6823Z" fill="#EBF8FF"/>
<path d="M131.432 58.9758L95.6052 46.697C94.4103 46.2849 93.1329 46.9236 92.7209 48.1185C92.3089 49.3134 92.9475 50.5908 94.1424 51.0028L129.969 63.2816C131.164 63.6937 132.462 63.055 132.854 61.8601C133.266 60.6652 132.627 59.3878 131.432 58.9758Z" fill="#EBF8FF"/>
<path d="M111.736 60.3772L92.6589 53.8464C91.464 53.4344 90.1661 54.073 89.7746 55.2679C89.3626 56.4628 90.0012 57.7402 91.1962 58.1522L110.294 64.6831C111.489 65.0951 112.766 64.4564 113.179 63.2615C113.591 62.0666 112.952 60.7893 111.757 60.3772H111.736Z" fill="#EBF8FF"/>
<path d="M88.7807 12.2582L27.3491 21.9451C24.3898 22.4117 22.369 25.1891 22.8357 28.1484L36.496 114.779C36.9627 117.738 39.74 119.759 42.6994 119.292L104.131 109.606C107.09 109.139 109.111 106.362 108.644 103.402L94.984 16.7717C94.5173 13.8123 91.74 11.7916 88.7807 12.2582Z" fill="white"/>
<path fill-rule="evenodd" clip-rule="evenodd" d="M27.3491 21.9451C26.771 22.0363 26.2288 22.2156 25.7339 22.4672C25.4148 22.6294 25.1155 22.8217 24.8389 23.0397C24.5564 23.2625 24.2976 23.5121 24.0659 23.7841C24.6801 24.5637 25.7783 24.8282 26.6968 24.3612C26.9955 24.2093 27.3248 24.0999 27.6801 24.0439L31.7755 23.3981C32.9346 23.2153 33.7261 22.1275 33.5433 20.9684L27.3491 21.9451ZM41.6321 19.6929C41.8149 20.852 42.9027 21.6435 44.0618 21.4607L52.2527 20.1691C53.4118 19.9863 54.2033 18.8985 54.0205 17.7394L41.6321 19.6929ZM62.1093 16.4639C62.292 17.623 63.3799 18.4145 64.539 18.2317L72.7299 16.9402C73.889 16.7574 74.6804 15.6696 74.4977 14.5105L62.1093 16.4639ZM82.5864 13.235C82.7692 14.3941 83.857 15.1856 85.0162 15.0028L89.1116 14.357C89.4669 14.301 89.8138 14.3038 90.1448 14.3563C91.1624 14.518 92.1259 13.9285 92.4704 12.9977C92.1663 12.8102 91.8433 12.6523 91.5059 12.5273C91.1757 12.4049 90.8317 12.3141 90.4782 12.258C89.9299 12.1708 89.3587 12.1671 88.7806 12.2582L82.5864 13.235ZM93.145 13.4885C92.3654 14.1027 92.1009 15.2009 92.5679 16.1194C92.7198 16.4181 92.8292 16.7473 92.8852 17.1026L93.5682 21.4342C93.751 22.5933 94.8388 23.3848 95.9979 23.202L94.984 16.7717C94.8928 16.1936 94.7135 15.6513 94.4619 15.1564C94.2997 14.8374 94.1074 14.538 93.8893 14.2614C93.6666 13.9789 93.417 13.7202 93.145 13.4885ZM97.3851 31.999C96.226 32.1818 95.4345 33.2696 95.6173 34.4287L96.9833 43.0918C97.1661 44.2509 98.2539 45.0424 99.413 44.8596L97.3851 31.999ZM100.8 53.6566C99.6411 53.8394 98.8496 54.9272 99.0324 56.0864L100.398 64.7494C100.581 65.9085 101.669 66.7 102.828 66.5172L100.8 53.6566ZM104.215 75.3143C103.056 75.4971 102.265 76.5849 102.447 77.744L103.814 86.407C103.996 87.5662 105.084 88.3576 106.243 88.1749L104.215 75.3143ZM107.63 96.9719C106.471 97.1547 105.68 98.2425 105.863 99.4016L106.546 103.733C106.602 104.088 106.599 104.435 106.546 104.766C106.385 105.784 106.974 106.747 107.905 107.092C108.092 106.788 108.25 106.465 108.375 106.127C108.498 105.797 108.588 105.453 108.645 105.1C108.732 104.551 108.736 103.98 108.644 103.402L107.63 96.9719ZM107.414 107.767C106.8 106.987 105.702 106.722 104.783 107.189C104.485 107.341 104.155 107.451 103.8 107.507L99.7045 108.153C98.5454 108.335 97.7539 109.423 97.9367 110.582L104.131 109.606C104.709 109.514 105.251 109.335 105.746 109.083C106.065 108.921 106.365 108.729 106.641 108.511C106.924 108.288 107.182 108.039 107.414 107.767ZM89.8479 111.858C89.6652 110.699 88.5773 109.907 87.4182 110.09L79.2273 111.382C78.0682 111.564 77.2768 112.652 77.4595 113.811L89.8479 111.858ZM69.3708 115.087C69.188 113.928 68.1002 113.136 66.941 113.319L58.7502 114.61C57.5911 114.793 56.7996 115.881 56.9824 117.04L69.3708 115.087ZM48.8936 118.316C48.7108 117.157 47.623 116.365 46.4639 116.548L42.3684 117.194C42.0131 117.25 41.6662 117.247 41.3353 117.194C40.3176 117.033 39.3541 117.622 39.0096 118.553C39.3138 118.74 39.6368 118.898 39.9741 119.023C40.3044 119.146 40.6484 119.237 41.0018 119.293C41.5502 119.38 42.1213 119.384 42.6994 119.292L48.8936 118.316ZM38.3351 118.062C39.1147 117.448 39.3791 116.35 38.9121 115.431C38.7602 115.133 38.6508 114.803 38.5948 114.448L37.9118 110.116C37.729 108.957 36.6412 108.166 35.4821 108.349L36.496 114.779C36.5872 115.357 36.7665 115.899 37.0182 116.394C37.1804 116.713 37.3726 117.013 37.5907 117.289C37.8134 117.572 38.063 117.83 38.3351 118.062ZM34.0949 99.5516C35.254 99.3688 36.0455 98.281 35.8627 97.1219L34.4967 88.4588C34.3139 87.2997 33.2261 86.5082 32.067 86.691L34.0949 99.5516ZM30.6798 77.894C31.8389 77.7112 32.6304 76.6234 32.4476 75.4643L31.0816 66.8012C30.8988 65.6421 29.811 64.8506 28.6519 65.0334L30.6798 77.894ZM27.2647 56.2364C28.4238 56.0536 29.2153 54.9658 29.0325 53.8066L27.6665 45.1436C27.4837 43.9845 26.3959 43.193 25.2368 43.3758L27.2647 56.2364ZM23.8496 34.5787C25.0087 34.396 25.8002 33.3081 25.6175 32.149L24.9344 27.8175C24.8784 27.4622 24.8812 27.1153 24.9338 26.7843C25.0955 25.7667 24.5059 24.8032 23.5751 24.4587C23.3876 24.7628 23.2297 25.0858 23.1047 25.4232C22.9824 25.7534 22.8916 26.0974 22.8354 26.4509C22.7483 26.9992 22.7445 27.5704 22.8357 28.1484L23.8496 34.5787Z" fill="#F58B00"/>
<path d="M83.044 65.3992C84.4147 74.0926 78.4785 82.2512 69.785 83.6219C61.0916 84.9925 52.9331 79.0563 51.5624 70.3629C50.1917 61.6695 56.128 53.5109 64.8214 52.1402C73.5148 50.7696 81.6733 56.7058 83.044 65.3992Z" fill="white"/>
<path d="M64.8214 52.1402C61.7081 52.6311 58.8104 54.0341 56.4945 56.1719C54.1787 58.3096 52.5488 61.0864 51.8109 64.1505C51.073 67.2146 51.2603 70.4285 52.3491 73.3861C53.4378 76.3438 55.3792 78.9121 57.9277 80.7664C60.4762 82.6207 63.5173 83.6777 66.6665 83.8036C69.8157 83.9295 72.9315 83.1187 75.6199 81.4739C78.3083 79.829 80.4485 77.4238 81.77 74.5625C83.0915 71.7013 83.5349 68.5124 83.044 65.3992C82.3858 61.2245 80.0961 57.4823 76.6787 54.9957C73.2613 52.5092 68.9961 51.482 64.8214 52.1402ZM68.7923 77.3255C68.3253 77.3992 67.847 77.3328 67.4178 77.1346C66.9887 76.9364 66.6278 76.6151 66.3811 76.2118C66.1344 75.8086 66.0128 75.3415 66.0317 74.8691C66.0506 74.3968 66.2091 73.9405 66.4873 73.5583C66.7654 73.176 67.1506 72.8846 67.5943 72.7213C68.0379 72.5579 68.5201 72.53 68.9797 72.6407C69.4393 72.7514 69.8558 72.9959 70.1765 73.3433C70.4971 73.6906 70.7075 74.1251 70.7811 74.5921C70.8799 75.2183 70.7259 75.8583 70.3529 76.3709C69.9799 76.8835 69.4185 77.2268 68.7923 77.3255ZM70.0137 68.9058C69.8132 69.0426 69.6212 69.1914 69.4386 69.3513C69.3543 69.8153 69.1081 70.2343 68.7438 70.5337C68.3796 70.8332 67.9209 70.9937 67.4494 70.9867C66.9779 70.9798 66.5242 70.8056 66.1689 70.4955C65.8137 70.1854 65.5799 69.7593 65.5093 69.2931C65.2264 67.4986 66.6764 66.4634 67.6417 65.7304C68.9997 64.7258 69.5441 64.1883 69.3679 63.0707C69.1917 61.9531 67.7984 61.3017 66.303 61.5375C64.8076 61.7732 63.6923 62.8847 63.8586 63.9394C63.9409 64.4612 63.8125 64.9946 63.5017 65.4218C63.1909 65.849 62.7231 66.1349 62.2012 66.2172C61.6794 66.2995 61.1463 66.1713 60.7191 65.8605C60.2919 65.5497 60.0057 65.0817 59.9234 64.5598C59.8601 62.8918 60.4109 61.2585 61.4711 59.9693C62.5314 58.68 64.0277 57.8246 65.6766 57.5646C67.3255 57.3046 69.0125 57.6581 70.418 58.5586C71.8236 59.4591 72.85 60.8437 73.3031 62.4503C73.4529 63.7308 73.2205 65.0272 72.6351 66.1759C72.0498 67.3245 71.1377 68.2744 70.0137 68.9058Z" fill="#004DA5"/>
<path d="M17.0432 -8.40491C17.2922 -8.48968 17.5562 -8.5216 17.8182 -8.49863C18.0802 -8.47567 18.3346 -8.39832 18.5651 -8.27153C18.7956 -8.14474 18.997 -7.9713 19.1567 -7.76226C19.3164 -7.55323 19.4307 -7.31321 19.4924 -7.05752L21.8668 1.1233C21.9512 1.41773 21.9761 1.72602 21.94 2.03017C21.9039 2.33432 21.8076 2.62822 21.6566 2.89474C21.5057 3.16125 21.3032 3.39503 21.0609 3.58241C20.8186 3.7698 20.5414 3.90704 20.2455 3.98612C20.1244 4.02213 20.0005 4.04815 19.8751 4.06392C19.4128 4.12883 18.9429 4.01818 18.5581 3.75379C18.1733 3.48941 17.9015 3.09047 17.7963 2.63562L15.425 -5.54209C15.3401 -5.83631 15.3147 -6.14451 15.3504 -6.44864C15.3861 -6.75277 15.4821 -7.04672 15.6328 -7.31331C15.7835 -7.57989 15.9859 -7.81374 16.228 -8.00117C16.4702 -8.18861 16.7473 -8.32587 17.0432 -8.40491Z" fill="#A9B4BE"/>
<path d="M-4.13118 2.67289C-3.84441 2.65428 -3.55685 2.69435 -3.28609 2.79066C-3.01534 2.88697 -2.76708 3.03748 -2.55649 3.23301L6.97874 11.9086C7.40421 12.3001 7.66185 12.8409 7.69781 13.4179C7.73377 13.9949 7.54525 14.5635 7.17169 15.0048C6.82352 15.4126 6.33478 15.6748 5.8024 15.7392C5.49547 15.7758 5.18426 15.7458 4.88996 15.6513C4.59566 15.5568 4.3252 15.4 4.09701 15.1915L-5.43822 6.51592C-5.86635 6.12258 -6.12534 5.57861 -6.16074 4.99832C-6.19614 4.41803 -6.0052 3.84662 -5.62806 3.40416C-5.44066 3.18775 -5.21148 3.01142 -4.95425 2.88576C-4.69703 2.7601 -4.41707 2.6877 -4.13118 2.67289Z" fill="#A9B4BE"/>
</g>
</svg>
