<svg width="45" height="45" viewBox="0 0 45 45" fill="none" xmlns="http://www.w3.org/2000/svg">
<path fill-rule="evenodd" clip-rule="evenodd" d="M11.4471 14.5047L5.62302 11.9824L1.42236 20.4504L20.892 30.9186L21.0036 30.7578L23.8472 33.424C24.5375 34.0713 25.6219 34.0364 26.2692 33.3461C26.5545 33.0418 26.7072 32.661 26.7297 32.2748C27.4212 32.8928 28.4833 32.8489 29.1211 32.1687C29.5161 31.7474 29.657 31.1794 29.55 30.6535C30.1917 30.9236 30.9609 30.7835 31.465 30.2458C31.8841 29.7988 32.0172 29.1867 31.8716 28.6349C32.5619 29.1612 33.5523 29.0899 34.1589 28.443C34.8062 27.7526 34.7713 26.6683 34.081 26.021L28.1518 20.4617L28.1597 20.4504C28.1445 20.3942 28.1287 20.3339 28.112 20.27C27.8112 19.1195 27.1986 16.7763 23.8129 15.5635C21.5981 14.7701 18.9408 14.7883 16.9016 15.0438C15.0677 15.2737 13.1432 15.2392 11.4471 14.5047Z" fill="#A9B4BE"/>
<path d="M33.7593 15.2286L39.7318 12.9426C39.8554 12.8953 39.9927 12.9653 40.027 13.0931L42.487 22.2775C42.5185 22.3953 42.4495 22.5167 42.3321 22.5498L39.2438 23.421C39.23 23.4248 39.2167 23.43 39.204 23.4365L34.1037 26.0073C34.0207 26.0491 33.9205 26.0351 33.8522 25.9721L27.0296 19.6828C26.2117 18.9288 25.0386 18.7374 23.9652 19.0299C20.2666 20.0375 18.3225 18.9315 17.5453 17.8502C17.3261 17.5454 17.5172 17.1525 17.8737 17.0346L24.9692 14.689C25.1831 14.6183 25.4048 14.58 25.6299 14.5868C26.1869 14.6037 27.3556 14.6787 28.5533 14.999C30.2472 15.452 32.1217 15.8554 33.7593 15.2286Z" fill="white"/>
<path fill-rule="evenodd" clip-rule="evenodd" d="M39.6239 13.5196L33.9385 15.6957C32.1305 16.3878 30.1041 15.9314 28.4246 15.4822C27.2797 15.176 26.1542 15.1031 25.6152 15.0868C25.4572 15.082 25.294 15.1086 25.1265 15.164L18.031 17.5096C17.9878 17.5239 17.9648 17.5496 17.9561 17.5647C18.582 18.4294 20.2843 19.5148 23.8342 18.5477C25.041 18.2189 26.4014 18.4235 27.3689 19.3154L34.0504 25.4747L38.9793 22.9902L39.2044 23.4367L38.9793 22.9902C39.0206 22.9693 39.0639 22.9525 39.1084 22.94L41.9337 22.143L39.6239 13.5196ZM42.1968 22.0688L42.1963 22.0689L42.1968 22.0688ZM34.1915 25.6047L34.1911 25.6043L34.1915 25.6047ZM39.5535 12.4758C39.9541 12.3225 40.3993 12.5496 40.5103 12.964L42.9704 22.1483C43.0727 22.5304 42.849 22.9238 42.4683 23.0312L39.4056 23.8952L34.3292 26.454C34.0601 26.5896 33.7352 26.5442 33.5137 26.34L26.6912 20.0507C26.0227 19.4345 25.0369 19.2564 24.097 19.5125C20.2581 20.5584 18.0719 19.4392 17.1397 18.1423C16.9194 17.8358 16.9063 17.4737 17.0347 17.175C17.1587 16.8865 17.4095 16.6618 17.7171 16.5601L24.8127 14.2145C25.073 14.1284 25.3532 14.0783 25.6455 14.0872C26.2205 14.1047 27.4323 14.1817 28.6829 14.5162C30.3912 14.973 32.1138 15.3234 33.581 14.7618L39.5535 12.4758Z" fill="#00144A"/>
<path d="M18.3801 31.9462C17.4372 32.0266 16.6076 31.3274 16.5272 30.3845L16.2739 27.4146C16.1934 26.4717 16.8926 25.6421 17.8355 25.5617C18.7784 25.4812 19.608 26.1804 19.6884 27.1233L19.9418 30.0932C20.0222 31.0361 19.323 31.8657 18.3801 31.9462Z" fill="white"/>
<path fill-rule="evenodd" clip-rule="evenodd" d="M18.4228 32.4447C17.2047 32.5486 16.1331 31.6454 16.0291 30.4273L15.7758 27.4574C15.6719 26.2394 16.5751 25.1677 17.7931 25.0638C19.0112 24.9599 20.0828 25.8631 20.1867 27.0811L20.4401 30.0511C20.544 31.2691 19.6408 32.3408 18.4228 32.4447ZM17.0255 30.3423C17.0825 31.0101 17.67 31.5053 18.3378 31.4483C19.0055 31.3913 19.5007 30.8038 19.4437 30.1361L19.1904 27.1661C19.1334 26.4984 18.5459 26.0032 17.8781 26.0602C17.2104 26.1172 16.7152 26.7047 16.7722 27.3724L17.0255 30.3423Z" fill="#00144A"/>
<path d="M15.1487 30.5262C14.2058 30.6067 13.3762 29.9075 13.2958 28.9646L13.1461 27.2101C13.0486 26.0671 13.8961 25.0616 15.039 24.9641C15.7819 24.9007 16.4355 25.4516 16.4989 26.1945L16.7103 28.6733C16.7908 29.6162 16.0916 30.4458 15.1487 30.5262Z" fill="white"/>
<path fill-rule="evenodd" clip-rule="evenodd" d="M15.1913 31.0247C13.9733 31.1287 12.9016 30.2255 12.7977 29.0074L12.648 27.2529C12.5271 25.8348 13.5786 24.5872 14.9966 24.4662C16.0146 24.3794 16.9103 25.1343 16.9972 26.1523L17.2086 28.6311C17.3125 29.8492 16.4094 30.9208 15.1913 31.0247ZM13.7941 28.9224C13.851 29.5902 14.4386 30.0853 15.1063 30.0284C15.7741 29.9714 16.2692 29.3839 16.2123 28.7161L16.0008 26.2373C15.9609 25.7695 15.5494 25.4227 15.0816 25.4626C14.2138 25.5366 13.5704 26.3001 13.6444 27.1679L13.7941 28.9224Z" fill="#00144A"/>
<path d="M11.7009 29.2899C10.758 29.3703 9.92845 28.6712 9.84801 27.7283L9.83002 27.5174C9.73965 26.4581 10.5252 25.526 11.5845 25.4357L12.7705 25.3345C12.942 25.3199 13.0928 25.447 13.1074 25.6184L13.2626 27.437C13.343 28.3799 12.6438 29.2095 11.7009 29.2899Z" fill="white"/>
<path fill-rule="evenodd" clip-rule="evenodd" d="M11.7431 29.7865C10.525 29.8904 9.45336 28.9872 9.34946 27.7691L9.33147 27.5583C9.21763 26.2238 10.2072 25.0497 11.5417 24.9359L12.7277 24.8347C13.1743 24.7966 13.5672 25.1277 13.6053 25.5743L13.7604 27.3929C13.8643 28.6109 12.9611 29.6826 11.7431 29.7865ZM10.3458 27.6841C10.4028 28.3519 10.9903 28.8471 11.6581 28.7901C12.3258 28.7331 12.821 28.1456 12.764 27.4779L12.6249 25.8471L11.6267 25.9322C10.8424 25.9991 10.261 26.6891 10.3279 27.4733L10.3458 27.6841Z" fill="#00144A"/>
<path d="M21.8557 32.9012C20.9128 32.9817 20.0832 32.2825 20.0028 31.3396L19.7907 28.8536C19.7103 27.9107 20.4095 27.0811 21.3524 27.0007C22.2953 26.9202 23.1248 27.6194 23.2053 28.5623L23.4174 31.0483C23.4978 31.9912 22.7986 32.8208 21.8557 32.9012Z" fill="white"/>
<path fill-rule="evenodd" clip-rule="evenodd" d="M21.8983 33.3997C20.6803 33.5037 19.6086 32.6005 19.5047 31.3824L19.2927 28.8964C19.1887 27.6784 20.0919 26.6067 21.31 26.5028C22.528 26.3989 23.5997 27.3021 23.7036 28.5201L23.9157 31.0061C24.0196 32.2242 23.1164 33.2958 21.8983 33.3997ZM20.5011 31.2974C20.5581 31.9652 21.1456 32.4603 21.8133 32.4034C22.4811 32.3464 22.9763 31.7589 22.9193 31.0911L22.7072 28.6051C22.6503 27.9374 22.0627 27.4422 21.395 27.4992C20.7272 27.5562 20.2321 28.1437 20.289 28.8114L20.5011 31.2974Z" fill="#00144A"/>
<path fill-rule="evenodd" clip-rule="evenodd" d="M25.2854 26.0683C25.487 25.8795 25.8034 25.89 25.9921 26.0916L29.9606 30.331C30.1493 30.5326 30.1389 30.849 29.9373 31.0377C29.7357 31.2264 29.4193 31.216 29.2306 31.0144L25.262 26.775C25.0733 26.5734 25.0838 26.257 25.2854 26.0683Z" fill="#00144A"/>
<path fill-rule="evenodd" clip-rule="evenodd" d="M27.7796 24.2972C27.9768 24.104 28.2934 24.1071 28.4867 24.3044L32.5044 28.4039C32.6977 28.6011 32.6945 28.9176 32.4973 29.1109C32.3001 29.3042 31.9835 29.301 31.7902 29.1038L27.7725 25.0043C27.5792 24.8071 27.5824 24.4905 27.7796 24.2972Z" fill="#00144A"/>
<path fill-rule="evenodd" clip-rule="evenodd" d="M24.5449 29.574C24.7533 29.3929 25.0691 29.4151 25.2502 29.6236L27.3792 32.075C27.5603 32.2835 27.5381 32.5993 27.3296 32.7804C27.1211 32.9614 26.8053 32.9392 26.6242 32.7307L24.4952 30.2793C24.3141 30.0708 24.3364 29.755 24.5449 29.574Z" fill="#00144A"/>
<rect x="35.2568" y="12.9551" width="5.94559" height="13.0308" rx="0.891992" transform="rotate(-18.7886 35.2568 12.9551)" fill="#0070F2"/>
<rect width="5.86326" height="13.0308" rx="0.891992" transform="matrix(-0.892669 -0.450713 -0.450713 0.892669 11.0205 12.5234)" fill="#F58B00"/>
</svg>
