<?xml version="1.0" encoding="UTF-8"?>
<!--Generator: Apple Native CoreSVG 175.5-->
<!DOCTYPE svg
PUBLIC "-//W3C//DTD SVG 1.1//EN"
       "http://www.w3.org/Graphics/SVG/1.1/DTD/svg11.dtd">
<svg version="1.1" xmlns="http://www.w3.org/2000/svg" xmlns:xlink="http://www.w3.org/1999/xlink" width="3300" height="2200">
 <!--glyph: "", point size: 100.0, font version: "18.0d12e2", template writer version: "101"-->
 <g id="Notes">
  <rect height="2200" id="artboard" style="fill:white;opacity:1" width="3300" x="0" y="0"/>
  <line style="fill:none;stroke:black;opacity:1;stroke-width:0.5;" x1="263" x2="3036" y1="292" y2="292"/>
  <text style="stroke:none;fill:black;font-family:sans-serif;font-size:13;font-weight:bold;" transform="matrix(1 0 0 1 263 322)">Weight/Scale Variations</text>
  <text style="stroke:none;fill:black;font-family:sans-serif;font-size:13;text-anchor:middle;" transform="matrix(1 0 0 1 559.711 322)">Ultralight</text>
  <text style="stroke:none;fill:black;font-family:sans-serif;font-size:13;text-anchor:middle;" transform="matrix(1 0 0 1 856.422 322)">Thin</text>
  <text style="stroke:none;fill:black;font-family:sans-serif;font-size:13;text-anchor:middle;" transform="matrix(1 0 0 1 1153.13 322)">Light</text>
  <text style="stroke:none;fill:black;font-family:sans-serif;font-size:13;text-anchor:middle;" transform="matrix(1 0 0 1 1449.84 322)">Regular</text>
  <text style="stroke:none;fill:black;font-family:sans-serif;font-size:13;text-anchor:middle;" transform="matrix(1 0 0 1 1746.56 322)">Medium</text>
  <text style="stroke:none;fill:black;font-family:sans-serif;font-size:13;text-anchor:middle;" transform="matrix(1 0 0 1 2043.27 322)">Semibold</text>
  <text style="stroke:none;fill:black;font-family:sans-serif;font-size:13;text-anchor:middle;" transform="matrix(1 0 0 1 2339.98 322)">Bold</text>
  <text style="stroke:none;fill:black;font-family:sans-serif;font-size:13;text-anchor:middle;" transform="matrix(1 0 0 1 2636.69 322)">Heavy</text>
  <text style="stroke:none;fill:black;font-family:sans-serif;font-size:13;text-anchor:middle;" transform="matrix(1 0 0 1 2933.4 322)">Black</text>
  <line style="fill:none;stroke:black;opacity:1;stroke-width:0.5;" x1="263" x2="3036" y1="1903" y2="1903"/>
  <g transform="matrix(1 0 0 1 263 1933)">
   <path d="M9.24805 0.830078C13.5547 0.830078 17.1387-2.74414 17.1387-7.05078C17.1387-11.3574 13.5449-14.9316 9.23828-14.9316C4.94141-14.9316 1.36719-11.3574 1.36719-7.05078C1.36719-2.74414 4.95117 0.830078 9.24805 0.830078ZM9.24805-0.654297C5.70312-0.654297 2.87109-3.49609 2.87109-7.05078C2.87109-10.6055 5.69336-13.4473 9.23828-13.4473C12.793-13.4473 15.6445-10.6055 15.6445-7.05078C15.6445-3.49609 12.8027-0.654297 9.24805-0.654297ZM5.6543-7.05078C5.6543-6.62109 5.95703-6.32812 6.40625-6.32812L8.50586-6.32812L8.50586-4.20898C8.50586-3.76953 8.79883-3.4668 9.22852-3.4668C9.67773-3.4668 9.9707-3.76953 9.9707-4.20898L9.9707-6.32812L12.0898-6.32812C12.5293-6.32812 12.832-6.62109 12.832-7.05078C12.832-7.49023 12.5293-7.79297 12.0898-7.79297L9.9707-7.79297L9.9707-9.90234C9.9707-10.3516 9.67773-10.6543 9.22852-10.6543C8.79883-10.6543 8.50586-10.3516 8.50586-9.90234L8.50586-7.79297L6.40625-7.79297C5.95703-7.79297 5.6543-7.49023 5.6543-7.05078Z"/>
  </g>
  <g transform="matrix(1 0 0 1 281.867 1933)">
   <path d="M11.709 2.91016C17.1582 2.91016 21.6699-1.61133 21.6699-7.05078C21.6699-12.5 17.1484-17.0117 11.6992-17.0117C6.25977-17.0117 1.74805-12.5 1.74805-7.05078C1.74805-1.61133 6.26953 2.91016 11.709 2.91016ZM11.709 1.25C7.09961 1.25 3.41797-2.44141 3.41797-7.05078C3.41797-11.6602 7.08984-15.3516 11.6992-15.3516C16.3086-15.3516 20.0098-11.6602 20.0098-7.05078C20.0098-2.44141 16.3184 1.25 11.709 1.25ZM7.17773-7.05078C7.17773-6.57227 7.50977-6.25 8.00781-6.25L10.8789-6.25L10.8789-3.36914C10.8789-2.88086 11.2109-2.53906 11.6895-2.53906C12.1777-2.53906 12.5195-2.87109 12.5195-3.36914L12.5195-6.25L15.4004-6.25C15.8887-6.25 16.2305-6.57227 16.2305-7.05078C16.2305-7.53906 15.8887-7.88086 15.4004-7.88086L12.5195-7.88086L12.5195-10.752C12.5195-11.25 12.1777-11.5918 11.6895-11.5918C11.2109-11.5918 10.8789-11.25 10.8789-10.752L10.8789-7.88086L8.00781-7.88086C7.50977-7.88086 7.17773-7.53906 7.17773-7.05078Z"/>
  </g>
  <g transform="matrix(1 0 0 1 305.646 1933)">
   <path d="M14.9707 5.66406C21.9336 5.66406 27.6953-0.0976562 27.6953-7.05078C27.6953-14.0137 21.9238-19.7754 14.9609-19.7754C8.00781-19.7754 2.25586-14.0137 2.25586-7.05078C2.25586-0.0976562 8.01758 5.66406 14.9707 5.66406ZM14.9707 3.84766C8.93555 3.84766 4.08203-1.01562 4.08203-7.05078C4.08203-13.0957 8.92578-17.9492 14.9609-17.9492C21.0059-17.9492 25.8691-13.0957 25.8691-7.05078C25.8691-1.01562 21.0156 3.84766 14.9707 3.84766ZM9.19922-7.05078C9.19922-6.5332 9.57031-6.17188 10.1172-6.17188L14.0625-6.17188L14.0625-2.2168C14.0625-1.67969 14.4336-1.29883 14.9512-1.29883C15.4883-1.29883 15.8594-1.66992 15.8594-2.2168L15.8594-6.17188L19.8145-6.17188C20.3516-6.17188 20.7324-6.5332 20.7324-7.05078C20.7324-7.59766 20.3613-7.96875 19.8145-7.96875L15.8594-7.96875L15.8594-11.9141C15.8594-12.4609 15.4883-12.8418 14.9512-12.8418C14.4336-12.8418 14.0625-12.4609 14.0625-11.9141L14.0625-7.96875L10.1172-7.96875C9.57031-7.96875 9.19922-7.59766 9.19922-7.05078Z"/>
  </g>
  <text style="stroke:none;fill:black;font-family:sans-serif;font-size:13;font-weight:bold;" transform="matrix(1 0 0 1 263 1953)">Design Variations</text>
  <text style="stroke:none;fill:black;font-family:sans-serif;font-size:13;" transform="matrix(1 0 0 1 263 1971)">Symbols are supported in up to nine weights and three scales.</text>
  <text style="stroke:none;fill:black;font-family:sans-serif;font-size:13;" transform="matrix(1 0 0 1 263 1989)">For optimal layout with text and other symbols, vertically align</text>
  <text style="stroke:none;fill:black;font-family:sans-serif;font-size:13;" transform="matrix(1 0 0 1 263 2007)">symbols with the adjacent text.</text>
  <line style="fill:none;stroke:#00AEEF;stroke-width:0.5;opacity:1.0;" x1="776" x2="776" y1="1919" y2="1933"/>
  <g transform="matrix(1 0 0 1 776 1933)">
   <path d="M3.31055 0.15625C3.82812 0.15625 4.08203-0.0390625 4.26758-0.585938L5.52734-4.0332L11.2891-4.0332L12.5488-0.585938C12.7344-0.0390625 12.9883 0.15625 13.4961 0.15625C14.0137 0.15625 14.3457-0.15625 14.3457-0.644531C14.3457-0.810547 14.3164-0.966797 14.2383-1.17188L9.6582-13.3691C9.43359-13.9648 9.0332-14.2676 8.4082-14.2676C7.80273-14.2676 7.39258-13.9746 7.17773-13.3789L2.59766-1.16211C2.51953-0.957031 2.49023-0.800781 2.49023-0.634766C2.49023-0.146484 2.80273 0.15625 3.31055 0.15625ZM6.00586-5.51758L8.37891-12.0898L8.42773-12.0898L10.8008-5.51758Z"/>
  </g>
  <line style="fill:none;stroke:#00AEEF;stroke-width:0.5;opacity:1.0;" x1="793.197" x2="793.197" y1="1919" y2="1933"/>
  <text style="stroke:none;fill:black;font-family:sans-serif;font-size:13;font-weight:bold;" transform="matrix(1 0 0 1 776 1953)">Margins</text>
  <text style="stroke:none;fill:black;font-family:sans-serif;font-size:13;" transform="matrix(1 0 0 1 776 1971)">Leading and trailing margins on the left and right side of each symbol</text>
  <text style="stroke:none;fill:black;font-family:sans-serif;font-size:13;" transform="matrix(1 0 0 1 776 1989)">can be adjusted by modifying the x-location of the margin guidelines.</text>
  <text style="stroke:none;fill:black;font-family:sans-serif;font-size:13;" transform="matrix(1 0 0 1 776 2007)">Modifications are automatically applied proportionally to all</text>
  <text style="stroke:none;fill:black;font-family:sans-serif;font-size:13;" transform="matrix(1 0 0 1 776 2025)">scales and weights.</text>
  <g transform="matrix(1 0 0 1 1289 1933)">
   <path d="M2.8418 1.86523L4.54102 3.57422C5.40039 4.44336 6.38672 4.38477 7.31445 3.35938L18.0078-8.42773L17.041-9.4043L6.42578 2.27539C6.07422 2.67578 5.74219 2.77344 5.27344 2.30469L4.10156 1.14258C3.63281 0.683594 3.74023 0.341797 4.14062-0.0195312L15.6152-10.8203L14.6387-11.7871L3.04688-0.898438C2.06055 0.0195312 1.98242 0.996094 2.8418 1.86523ZM9.25781-16.3281C8.83789-15.918 8.80859-15.3418 9.04297-14.9512C9.27734-14.5898 9.73633-14.3555 10.3809-14.5215C11.8457-14.8633 13.3691-14.9219 14.7949-13.9844L14.209-12.5293C13.8672-11.6992 14.043-11.1133 14.5801-10.5664L16.875-8.25195C17.3633-7.76367 17.7734-7.74414 18.3398-7.8418L19.4043-8.03711L20.0684-7.36328L20.0293-6.80664C19.9902-6.30859 20.1172-5.92773 20.6055-5.44922L21.3672-4.70703C21.8457-4.22852 22.4609-4.19922 22.9297-4.66797L25.8398-7.58789C26.3086-8.05664 26.2891-8.65234 25.8105-9.13086L25.0391-9.89258C24.5605-10.3711 24.1895-10.5273 23.7109-10.4883L23.1348-10.4395L22.4902-11.0742L22.7344-12.1973C22.8613-12.7637 22.7051-13.2031 22.1191-13.7891L19.9219-15.9766C16.582-19.2969 12.1484-19.2188 9.25781-16.3281ZM10.752-15.957C13.1836-17.7344 16.4746-17.4316 18.7012-15.2051L21.1328-12.793C21.3672-12.5586 21.4062-12.373 21.3379-12.0312L21.0156-10.5469L22.5195-9.0625L23.5059-9.12109C23.7598-9.13086 23.8379-9.11133 24.0332-8.91602L24.6094-8.33984L22.168-5.89844L21.5918-6.47461C21.3965-6.66992 21.3672-6.74805 21.377-7.01172L21.4453-7.98828L19.9512-9.47266L18.4277-9.21875C18.1055-9.15039 17.959-9.17969 17.7148-9.41406L15.7129-11.416C15.459-11.6504 15.4297-11.8164 15.5859-12.1875L16.4648-14.2773C14.9023-15.7324 12.8711-16.3574 10.8398-15.7617C10.6836-15.7227 10.625-15.8496 10.752-15.957Z"/>
  </g>
  <text style="stroke:none;fill:black;font-family:sans-serif;font-size:13;font-weight:bold;" transform="matrix(1 0 0 1 1289 1953)">Exporting</text>
  <text style="stroke:none;fill:black;font-family:sans-serif;font-size:13;" transform="matrix(1 0 0 1 1289 1971)">Symbols should be outlined when exporting to ensure the</text>
  <text style="stroke:none;fill:black;font-family:sans-serif;font-size:13;" transform="matrix(1 0 0 1 1289 1989)">design is preserved when submitting to Xcode.</text>
  <text id="template-version" style="stroke:none;fill:black;font-family:sans-serif;font-size:13;text-anchor:end;" transform="matrix(1 0 0 1 3036 1933)">Template v.3.0</text>
  <text style="stroke:none;fill:black;font-family:sans-serif;font-size:13;text-anchor:end;" transform="matrix(1 0 0 1 3036 1951)">Requires Xcode 13 or greater</text>
  <text id="descriptive-name" style="stroke:none;fill:black;font-family:sans-serif;font-size:13;text-anchor:end;" transform="matrix(1 0 0 1 3036 1969)">Generated from fiori.business.by.design</text>
  <text style="stroke:none;fill:black;font-family:sans-serif;font-size:13;text-anchor:end;" transform="matrix(1 0 0 1 3036 1987)">Typeset at 100 points</text>
  <text style="stroke:none;fill:black;font-family:sans-serif;font-size:13;" transform="matrix(1 0 0 1 263 726)">Small</text>
  <text style="stroke:none;fill:black;font-family:sans-serif;font-size:13;" transform="matrix(1 0 0 1 263 1156)">Medium</text>
  <text style="stroke:none;fill:black;font-family:sans-serif;font-size:13;" transform="matrix(1 0 0 1 263 1586)">Large</text>
 </g>
 <g id="Guides">
  <g id="H-reference" style="fill:#27AAE1;stroke:none;" transform="matrix(1 0 0 1 339 696)">
   <path d="M0.993654 0L3.63775 0L29.3281-67.1323L30.0303-67.1323L30.0303-70.459L28.1226-70.459ZM11.6885-24.4799L46.9815-24.4799L46.2315-26.7285L12.4385-26.7285ZM55.1196 0L57.7637 0L30.6382-70.459L29.4326-70.459L29.4326-67.1323Z"/>
  </g>
  <line id="Baseline-S" style="fill:none;stroke:#27AAE1;opacity:1;stroke-width:0.5;" x1="263" x2="3036" y1="696" y2="696"/>
  <line id="Capline-S" style="fill:none;stroke:#27AAE1;opacity:1;stroke-width:0.5;" x1="263" x2="3036" y1="625.541" y2="625.541"/>
  <g id="H-reference" style="fill:#27AAE1;stroke:none;" transform="matrix(1 0 0 1 339 1126)">
   <path d="M0.993654 0L3.63775 0L29.3281-67.1323L30.0303-67.1323L30.0303-70.459L28.1226-70.459ZM11.6885-24.4799L46.9815-24.4799L46.2315-26.7285L12.4385-26.7285ZM55.1196 0L57.7637 0L30.6382-70.459L29.4326-70.459L29.4326-67.1323Z"/>
  </g>
  <line id="Baseline-M" style="fill:none;stroke:#27AAE1;opacity:1;stroke-width:0.5;" x1="263" x2="3036" y1="1126" y2="1126"/>
  <line id="Capline-M" style="fill:none;stroke:#27AAE1;opacity:1;stroke-width:0.5;" x1="263" x2="3036" y1="1055.54" y2="1055.54"/>
  <g id="H-reference" style="fill:#27AAE1;stroke:none;" transform="matrix(1 0 0 1 339 1556)">
   <path d="M0.993654 0L3.63775 0L29.3281-67.1323L30.0303-67.1323L30.0303-70.459L28.1226-70.459ZM11.6885-24.4799L46.9815-24.4799L46.2315-26.7285L12.4385-26.7285ZM55.1196 0L57.7637 0L30.6382-70.459L29.4326-70.459L29.4326-67.1323Z"/>
  </g>
  <line id="Baseline-L" style="fill:none;stroke:#27AAE1;opacity:1;stroke-width:0.5;" x1="263" x2="3036" y1="1556" y2="1556"/>
  <line id="Capline-L" style="fill:none;stroke:#27AAE1;opacity:1;stroke-width:0.5;" x1="263" x2="3036" y1="1485.54" y2="1485.54"/>
  <line id="left-margin-Ultralight-S" style="fill:none;stroke:#00AEEF;stroke-width:0.5;opacity:1.0;" x1="515.011" x2="515.011" y1="600.785" y2="720.121"/>
  <line id="right-margin-Ultralight-S" style="fill:none;stroke:#00AEEF;stroke-width:0.5;opacity:1.0;" x1="604.411" x2="604.411" y1="600.785" y2="720.121"/>
  <line id="left-margin-Regular-S" style="fill:none;stroke:#00AEEF;stroke-width:0.5;opacity:1.0;" x1="1403.39" x2="1403.39" y1="600.785" y2="720.121"/>
  <line id="right-margin-Regular-S" style="fill:none;stroke:#00AEEF;stroke-width:0.5;opacity:1.0;" x1="1496.29" x2="1496.29" y1="600.785" y2="720.121"/>
  <line id="left-margin-Black-S" style="fill:none;stroke:#00AEEF;stroke-width:0.5;opacity:1.0;" x1="2884.9" x2="2884.9" y1="600.785" y2="720.121"/>
  <line id="right-margin-Black-S" style="fill:none;stroke:#00AEEF;stroke-width:0.5;opacity:1.0;" x1="2981.9" x2="2981.9" y1="600.785" y2="720.121"/>
 </g>
 <g id="Symbols">
  <g id="Black-S" transform="matrix(1 0 0 1 2884.9 696)">
   <path d="M39.11-72.7L17.91-72.7C14.91-72.7 12.51-70.3 12.51-67.3C12.51-64.3 14.91-61.9 17.91-61.9L39.11-61.9C42.11-61.9 44.51-64.3 44.51-67.3C44.51-70.3 42.11-72.7 39.11-72.7ZM84.31-27.1C81.61-29.8 78.21-28.7 76.61-27.1L64.51-14.9L60.31-19.1C57.61-21.8 54.21-20.7 52.61-19.1C51.01-17.5 50.01-14.1 52.61-11.4L60.61-3.4C61.91-2.1 63.41-1.8 64.41-1.8C65.41-1.8 66.91-2.1 68.21-3.4L84.21-19.4C85.91-21 86.91-24.5 84.31-27.1ZM39.11-60.7L17.91-60.7C14.91-60.7 12.51-58.3 12.51-55.3C12.51-52.3 14.91-49.9 17.91-49.9L39.11-49.9C42.11-49.9 44.51-52.3 44.51-55.3C44.51-58.2 42.11-60.7 39.11-60.7ZM31.11-48.7L17.91-48.7C14.91-48.7 12.51-46.3 12.51-43.3C12.51-40.3 14.91-37.9 17.91-37.9L31.11-37.9C34.11-37.9 36.51-40.3 36.51-43.3C36.51-46.3 34.11-48.7 31.11-48.7ZM56.51-37.8L80.51-37.8C82.41-37.8 85.01-38.8 85.81-42C86.51-45 84.61-47.3 82.91-48.1L76.61-51.3C74.91-52.1 72.51-52.7 70.61-52.7L66.41-52.7C64.51-52.7 62.11-52.1 60.41-51.3L54.11-48.1C52.41-47.3 50.51-44.9 51.31-42C52.01-38.9 54.61-37.8 56.51-37.8ZM77.91-63.2C77.91-58.0085 73.7015-53.8 68.51-53.8C63.3185-53.8 59.11-58.0085 59.11-63.2C59.11-68.3915 63.3185-72.6 68.51-72.6C73.7015-72.6 77.91-68.3915 77.91-63.2ZM16.51-15.2C13.51-15.2 11.11-12.8 11.11-9.8L11.11-4.6C11.11-1.6 13.51 0.8 16.51 0.8C19.51 0.8 21.91-1.6 21.91-4.6L21.91-9.8C21.91-12.8 19.51-15.2 16.51-15.2ZM28.51-31.2C25.51-31.2 23.11-28.8 23.11-25.8L23.11-4.6C23.11-1.6 25.51 0.8 28.51 0.8C31.51 0.8 33.91-1.6 33.91-4.6L33.91-25.8C33.91-28.8 31.51-31.2 28.51-31.2ZM40.51-23.2C37.51-23.2 35.11-20.8 35.11-17.8L35.11-4.6C35.11-1.6 37.51 0.8 40.51 0.8C43.51 0.8 45.91-1.6 45.91-4.6L45.91-17.8C45.91-20.8 43.51-23.2 40.51-23.2Z"/>
  </g>
  <g id="Regular-S" transform="matrix(1 0 0 1 1403.39 696)">
   <path d="M38.46-71.2L14.46-71.2C12.26-71.2 10.46-69.4 10.46-67.2C10.46-65 12.26-63.2 14.46-63.2L38.46-63.2C40.66-63.2 42.46-65 42.46-67.2C42.46-69.4 40.66-71.2 38.46-71.2ZM81.36-26.1C79.76-27.7 77.26-27.7 75.66-26.1L62.46-12.9L57.26-18.1C55.66-19.7 53.16-19.7 51.56-18.1C49.96-16.5 49.96-14 51.56-12.4L59.56-4.4C60.36-3.6 61.36-3.2 62.36-3.2C63.36-3.2 64.36-3.6 65.16-4.4L81.16-20.4C82.86-22 82.86-24.5 81.36-26.1ZM38.46-59.2L14.46-59.2C12.26-59.2 10.46-57.4 10.46-55.2C10.46-53 12.26-51.2 14.46-51.2L38.46-51.2C40.66-51.2 42.46-53 42.46-55.2C42.46-57.4 40.66-59.2 38.46-59.2ZM30.46-47.2L14.46-47.2C12.26-47.2 10.46-45.4 10.46-43.2C10.46-41 12.26-39.2 14.46-39.2L30.46-39.2C32.66-39.2 34.46-41 34.46-43.2C34.46-45.4 32.66-47.2 30.46-47.2ZM54.46-39.2L78.46-39.2C80.36-39.2 81.96-40.5 82.36-42.3C82.76-44.1 81.96-46 80.26-46.8L73.96-50C72.26-50.8 70.46-51.3 68.56-51.3L64.36-51.3C62.46-51.3 60.66-50.9 58.96-50L52.66-46.8C50.96-46 50.16-44.1 50.56-42.3C51.06-40.5 52.66-39.2 54.46-39.2ZM74.46-63.2C74.46-58.7817 70.8783-55.2 66.46-55.2C62.0417-55.2 58.46-58.7817 58.46-63.2C58.46-67.6183 62.0417-71.2 66.46-71.2C70.8783-71.2 74.46-67.6183 74.46-63.2ZM14.46-15.2C12.26-15.2 10.46-13.4 10.46-11.2L10.46-3.2C10.46-1 12.26 0.8 14.46 0.8C16.66 0.8 18.46-1 18.46-3.2L18.46-11.2C18.46-13.5 16.66-15.2 14.46-15.2ZM26.46-31.2C24.26-31.2 22.46-29.4 22.46-27.2L22.46-3.2C22.46-1 24.26 0.8 26.46 0.8C28.66 0.8 30.46-1 30.46-3.2L30.46-27.2C30.46-29.5 28.66-31.2 26.46-31.2ZM38.46-23.2C36.26-23.2 34.46-21.4 34.46-19.2L34.46-3.2C34.46-1 36.26 0.8 38.46 0.8C40.66 0.8 42.46-1 42.46-3.2L42.46-19.2C42.46-21.5 40.66-23.2 38.46-23.2Z"/>
  </g>
  <g id="Ultralight-S" transform="matrix(1 0 0 1 515.011 696)">
   <path d="M39.575-68.4L9.875-68.4C9.275-68.4 8.675-67.9 8.675-67.2C8.675-66.5 9.175-66 9.875-66L39.575-66C40.175-66 40.775-66.5 40.775-67.2C40.775-67.9 40.275-68.4 39.575-68.4ZM77.575-24.1C77.075-24.6 76.375-24.5 75.875-24.1L60.775-8.9L53.575-16.1C53.075-16.6 52.375-16.6 51.875-16.1C51.375-15.6 51.475-14.9 51.875-14.5L59.875-6.5C60.075-6.3 60.475-6.2 60.675-6.2C60.975-6.2 61.275-6.3 61.475-6.5L77.475-22.5C78.075-22.9 77.975-23.6 77.575-24.1ZM39.575-56.4L9.875-56.4C9.275-56.4 8.675-55.9 8.675-55.2C8.675-54.5 9.175-54 9.875-54L39.575-54C40.175-54 40.775-54.5 40.775-55.2C40.775-55.9 40.275-56.4 39.575-56.4ZM31.575-44.4L9.875-44.4C9.275-44.4 8.675-43.9 8.675-43.2C8.675-42.5 9.175-42 9.875-42L31.575-42C32.175-42 32.775-42.5 32.775-43.2C32.775-43.9 32.275-44.4 31.575-44.4ZM52.775-42.1L76.775-42.1C77.375-42.1 77.775-42.5 77.875-43C77.975-43.4 77.775-44 77.275-44.3L70.975-47.4C69.275-48.2 67.775-48.4 66.875-48.4L62.675-48.4C61.775-48.4 60.275-48.3 58.575-47.4L52.275-44.2C51.875-44 51.475-43.5 51.675-42.9C51.775-42.4 52.375-42.1 52.775-42.1ZM69.975-63.2C69.975-60.3281 67.6469-58 64.775-58C61.9031-58 59.575-60.3281 59.575-63.2C59.575-66.0719 61.9031-68.4 64.775-68.4C67.6469-68.4 69.975-66.0719 69.975-63.2ZM12.775-15.3C12.175-15.3 11.575-14.8 11.575-14.1L11.575-0.4C11.575 0.2 12.075 0.8 12.775 0.8C13.375 0.8 13.975 0.3 13.975-0.4L13.975-14.1C13.875-14.7 13.375-15.3 12.775-15.3ZM24.775-31.2C24.175-31.2 23.575-30.7 23.575-30L23.575-0.3C23.575 0.3 24.075 0.9 24.775 0.9C25.375 0.9 25.975 0.4 25.975-0.3L25.975-30C25.875-30.7 25.375-31.2 24.775-31.2ZM36.775-23.2C36.175-23.2 35.575-22.7 35.575-22L35.575-0.3C35.575 0.3 36.075 0.9 36.775 0.9C37.475 0.9 37.975 0.4 37.975-0.3L37.975-22C37.875-22.7 37.375-23.2 36.775-23.2Z"/>
  </g>
 </g>
</svg>
