<svg width="45" height="45" viewBox="0 0 45 45" fill="none" xmlns="http://www.w3.org/2000/svg">
<path d="M15.531 18.1387H22.4388C22.9157 18.1387 23.3022 17.7486 23.3022 17.2674C23.3022 16.7861 22.9157 16.3961 22.4388 16.3961H15.531C15.0542 16.3961 14.6676 16.7861 14.6676 17.2674C14.6676 17.7486 15.0542 18.1387 15.531 18.1387Z" fill="#F58B00"/>
<path d="M3.73396 44.565C3.53737 44.5661 3.34654 44.4981 3.19429 44.3726C0.888115 42.4993 -0.205601 40.3247 0.0318523 38.0774C0.39163 34.5849 3.36337 32.4429 8.8284 31.7169C12.8183 31.1868 16.837 31.2885 20.7226 31.3865C22.0754 31.4192 23.4785 31.4555 24.8529 31.4627C25.9322 31.4627 27.0116 31.5208 28.0477 31.5716C31.5879 31.7386 35.2433 31.9165 38.4453 30.3191C39.5413 29.7629 40.5067 28.9766 41.2768 28.013C42.0469 27.0493 42.6038 25.9306 42.9101 24.7319C43.2749 23.4485 43.3673 22.102 43.1813 20.7801C42.9953 19.4583 42.5351 18.1909 41.8308 17.0607L41.7373 16.9155C40.6579 15.2455 39.1469 14.5267 36.7004 14.5121C36.4714 14.5121 36.2517 14.4203 36.0898 14.2569C35.9279 14.0935 35.8369 13.8719 35.8369 13.6408C35.8369 13.4098 35.9279 13.1881 36.0898 13.0247C36.2517 12.8613 36.4714 12.7695 36.7004 12.7695C39.7657 12.7877 41.766 13.7715 43.1764 15.9607L43.2735 16.1132C44.1104 17.4487 44.6592 18.9472 44.8843 20.5109C45.1093 22.0747 45.0054 23.6687 44.5795 25.1893C44.2085 26.625 43.5381 27.9643 42.613 29.1175C41.6879 30.2708 40.5295 31.2114 39.2152 31.8766C35.6174 33.67 31.7282 33.4849 27.9686 33.3034C26.9396 33.2562 25.8711 33.2053 24.8457 33.1981C23.4534 33.1981 22.0466 33.1545 20.6831 33.1218C16.8622 33.0238 12.9119 32.9258 9.05866 33.4377C4.42113 34.0549 2.0322 35.616 1.75158 38.2553C1.57529 39.9072 2.42796 41.5227 4.27002 43.0076C4.40941 43.1207 4.51052 43.2748 4.5594 43.4484C4.60827 43.6221 4.60251 43.8068 4.54286 43.977C4.48322 44.1472 4.37265 44.2944 4.22645 44.3985C4.08026 44.5025 3.90565 44.5582 3.72675 44.5578L3.73396 44.565Z" fill="#00144A"/>
<path d="M14.8943 25.9811H7.12305V1H14.8943C15.0076 1 15.1199 1.02253 15.2247 1.06632C15.3294 1.11011 15.4246 1.17429 15.5048 1.2552C15.585 1.33611 15.6486 1.43216 15.692 1.53788C15.7354 1.64359 15.7577 1.7569 15.7577 1.87132C15.7577 1.98574 15.7354 2.09902 15.692 2.20474C15.6486 2.31045 15.585 2.4065 15.5048 2.48741C15.4246 2.56832 15.3294 2.6325 15.2247 2.67629C15.1199 2.72008 15.0076 2.74261 14.8943 2.74261H8.83559V24.2349H14.8798C15.1089 24.2349 15.3285 24.3267 15.4904 24.4901C15.6524 24.6535 15.7433 24.8751 15.7433 25.1062C15.7433 25.3373 15.6524 25.5589 15.4904 25.7223C15.3285 25.8857 15.1089 25.9775 14.8798 25.9775L14.8943 25.9811Z" fill="#5B738B"/>
<path d="M15.531 10.8789L22.4388 10.8789C22.9157 10.8789 23.3022 10.4888 23.3022 10.0076C23.3022 9.52638 22.9157 9.13629 22.4388 9.13629H15.531C15.0542 9.13629 14.6676 9.52638 14.6676 10.0076C14.6676 10.4888 15.0542 10.8789 15.531 10.8789Z" fill="#F58B00"/>
<path d="M22.2554 22.7866V4.20237C22.2554 3.72116 21.8688 3.33105 21.3919 3.33105C20.915 3.33105 20.5284 3.72116 20.5284 4.20237V22.7866C20.5284 23.2679 20.915 23.658 21.3919 23.658C21.8688 23.658 22.2554 23.2679 22.2554 22.7866Z" fill="#64EDD2"/>
<path d="M30.0626 21.6244H22.1475V5.65039H30.0626C32.1618 5.65039 34.175 6.49188 35.6594 7.98973C37.1438 9.48758 37.9777 11.5191 37.9777 13.6374C37.9777 15.7557 37.1438 17.7872 35.6594 19.285C34.175 20.7829 32.1618 21.6244 30.0626 21.6244Z" fill="#64EDD2"/>
<path d="M37.999 13.6012C38.0022 13.9548 37.9782 14.308 37.927 14.6577C37.6735 12.7405 36.739 10.9812 35.2973 9.70658C33.8555 8.43197 32.0043 7.72865 30.0875 7.72718H22.1724V5.61426H30.0875C32.1861 5.61522 34.1984 6.45711 35.682 7.95486C37.1655 9.45261 37.999 11.4836 37.999 13.6012Z" fill="#00A58A"/>
</svg>
