<svg width="45" height="45" viewBox="0 0 45 45" fill="none" xmlns="http://www.w3.org/2000/svg">
<rect width="35.6055" height="23.78" rx="2.75869" transform="matrix(1 0 0.156434 0.987688 0.367676 14.3906)" fill="#A9B4BE"/>
<path d="M2.72926 15.7022C2.53064 14.4482 3.39889 13.4316 4.66854 13.4316H34.0483C35.318 13.4316 36.5083 14.4482 36.7069 15.7022L39.5477 33.6385C39.7463 34.8925 38.8781 35.9091 37.6084 35.9091H8.22861C6.95896 35.9091 5.76869 34.8925 5.57008 33.6385L2.72926 15.7022Z" fill="white"/>
<path fill-rule="evenodd" clip-rule="evenodd" d="M4.5118 12.4434H33.8916C35.7135 12.4434 37.4216 13.9021 37.7066 15.7017L40.5474 33.6379C40.8324 35.4374 39.5865 36.8962 37.7645 36.8962H8.38474C6.56281 36.8962 4.85479 35.4374 4.56977 33.6379L1.72895 15.7017C1.44394 13.9021 2.68986 12.4434 4.5118 12.4434ZM4.66823 13.431C3.39858 13.431 2.53034 14.4476 2.72895 15.7017L5.56977 33.6379C5.76839 34.8919 6.95866 35.9085 8.22831 35.9085H37.6081C38.8778 35.9085 39.746 34.8919 39.5474 33.6379L36.7066 15.7017C36.508 14.4476 35.3177 13.431 34.048 13.431H4.66823Z" fill="#00144A"/>
<path fill-rule="evenodd" clip-rule="evenodd" d="M27.2258 23.4701H10.5383L10.3818 22.4824H27.0693L27.2258 23.4701Z" fill="#D1EFFF"/>
<path fill-rule="evenodd" clip-rule="evenodd" d="M13.0411 31.71L11.6211 22.7441L12.6211 22.7441L14.0411 31.71L13.0411 31.71Z" fill="#D1EFFF"/>
<rect width="9.97551" height="5.18994" rx="1" transform="matrix(1 0 0.156434 0.987688 6.72314 20.418)" fill="#9EDDFF"/>
<rect x="24.7451" y="18.6348" width="6.69258" height="5.71594" rx="1" transform="rotate(40.5 24.7451 18.6348)" fill="#9EDDFF"/>
<rect width="9.97551" height="5.18994" rx="1" transform="matrix(1 0 0.156434 0.987688 8.01953 28.6035)" fill="#9EDDFF"/>
<path d="M2.72926 15.7022C2.53064 14.4482 3.39889 13.4316 4.66854 13.4316H34.0483C35.318 13.4316 36.5083 14.4482 36.7069 15.7022L37.0384 17.7952H3.06074L2.72926 15.7022Z" fill="#0070F2"/>
<path d="M34.652 1.46138C34.735 1.53227 34.7974 1.62422 34.8326 1.72757C34.8677 1.83092 34.8744 1.94183 34.8519 2.04865L34.3819 4.60328C34.3044 5.02583 33.9135 5.18898 33.5823 5.12813C33.4459 5.10817 33.3196 5.04446 33.2225 4.94658C33.1253 4.84869 33.0626 4.72192 33.0437 4.58532C33.0365 4.51905 33.0394 4.45207 33.0523 4.38666L33.5222 1.83204C33.5406 1.71953 33.589 1.61408 33.6623 1.52682C33.7356 1.43957 33.8312 1.37377 33.9389 1.33638C34.0585 1.29476 34.1869 1.2844 34.3117 1.30627C34.4365 1.32815 34.5536 1.38154 34.652 1.46138Z" fill="#A9B4BE"/>
<path d="M44.7688 11.3003C44.7932 11.3745 44.8018 11.453 44.7942 11.5308C44.7865 11.6085 44.7627 11.6838 44.7243 11.7519C44.686 11.8199 44.6338 11.8792 44.5712 11.926C44.5086 11.9727 44.437 12.0059 44.3608 12.0235L41.9236 12.7028C41.8359 12.7269 41.7442 12.7333 41.654 12.7216C41.5638 12.7099 41.4768 12.6804 41.3981 12.6347C41.3194 12.5891 41.2507 12.5282 41.1958 12.4556C41.1409 12.3831 41.101 12.3003 41.0784 12.2122C41.0681 12.1761 41.0608 12.1392 41.0565 12.1019C41.0387 11.9644 41.073 11.8252 41.1528 11.7117C41.2325 11.5983 41.3519 11.5188 41.4873 11.489L43.9236 10.8106C44.0113 10.7863 44.1029 10.7798 44.1931 10.7914C44.2833 10.8029 44.3703 10.8324 44.449 10.878C44.5277 10.9236 44.5965 10.9844 44.6514 11.0569C44.7064 11.1294 44.7462 11.2122 44.7688 11.3003Z" fill="#A9B4BE"/>
<path d="M41.5454 4.97567C41.5501 5.0609 41.5372 5.14618 41.5078 5.22629C41.4783 5.3064 41.4328 5.37966 41.3741 5.44159L38.7672 8.24612C38.6496 8.37124 38.4882 8.44605 38.3167 8.45491C38.1452 8.46376 37.9769 8.40597 37.847 8.29362C37.727 8.18892 37.6507 8.04293 37.6332 7.88461C37.6233 7.79334 37.6332 7.701 37.6622 7.61389C37.6912 7.52678 37.7387 7.44695 37.8013 7.37984L40.4082 4.5753C40.5264 4.44939 40.6887 4.37419 40.8612 4.36552C41.0337 4.35684 41.2028 4.41536 41.333 4.52878C41.3967 4.58512 41.4483 4.65375 41.4848 4.73054C41.5213 4.80733 41.5419 4.89071 41.5454 4.97567Z" fill="#A9B4BE"/>
<path d="M36.06 44.5575C40.5114 44.5575 44.12 40.9489 44.12 36.4975C44.12 32.0461 40.5114 28.4375 36.06 28.4375C31.6086 28.4375 28 32.0461 28 36.4975C28 40.9489 31.6086 44.5575 36.06 44.5575Z" fill="#F58B00"/>
<path d="M36.0628 32.1094H36.0598C35.4583 32.1094 34.9707 32.597 34.9707 33.1985V39.7984C34.9707 40.3999 35.4583 40.8875 36.0598 40.8875H36.0628C36.6643 40.8875 37.1519 40.3999 37.1519 39.7984V33.1985C37.1519 32.597 36.6643 32.1094 36.0628 32.1094Z" fill="white"/>
<path d="M31.8574 36.3722V36.6185C31.8574 37.1528 32.2906 37.5859 32.8249 37.5859H39.3031C39.8374 37.5859 40.2706 37.1528 40.2706 36.6185V36.3722C40.2706 35.8379 39.8374 35.4048 39.3031 35.4048H32.8249C32.2906 35.4048 31.8574 35.8379 31.8574 36.3722Z" fill="white"/>
</svg>
