<svg width="320" height="240" viewBox="0 0 320 240" fill="none" xmlns="http://www.w3.org/2000/svg">
<rect y="51" width="320" height="138" rx="24" fill="#89D1FF"/>
<path d="M217.659 152.405L178.521 137.693C178.388 137.653 178.256 137.632 178.124 137.663L61.7679 145.534C57.4305 145.716 57.513 147.071 58.6938 147.641L100.483 164.497C102.875 165.311 105.42 165.504 107.903 165.056L214.198 154.227C217.791 153.749 219.314 153.083 217.659 152.405Z" fill="#1B90FF"/>
<path d="M74.0809 61.8232L97.1624 145.678C97.6564 147.48 99.4129 148.642 101.261 148.404L229.705 130.885C234.215 129.439 235.99 124.792 235.212 122.541L174.933 49.5186C174.375 47.9268 172.829 46.9022 171.155 47.0119L78.6368 49.729C76.2582 49.8754 71.4919 53.2969 74.0809 61.8232Z" fill="#00144A"/>
<path d="M75.2885 54.4499L99.5043 142.421C99.9984 144.223 101.755 145.385 103.603 145.147L232.202 127.463C234.562 127.161 236.054 124.755 235.267 122.505L206.477 44.5147C205.919 42.9229 204.373 41.8983 202.698 42.008L78.6734 49.7018C76.2948 49.8482 74.6573 52.1445 75.2885 54.4407V54.4499Z" fill="white"/>
<path d="M206.477 44.5147C205.919 42.9229 204.373 41.8983 202.698 42.008L78.6734 49.7018C76.2948 49.8482 74.6573 52.1445 75.2885 54.4407L78.6826 66.7636L210.52 55.4745L206.468 44.5056L206.477 44.5147Z" fill="#0040B0"/>
<path d="M98.7626 56.5642C99.403 59.2904 97.4453 61.6873 94.3714 61.9617C91.2609 62.2453 88.123 60.2601 87.382 57.4881C86.6318 54.6704 88.6353 52.1638 91.8556 51.9351C95.0301 51.7063 98.1131 53.8013 98.7626 56.5642Z" fill="#56BDFF"/>
<path d="M116.594 78.4198L92.9266 80.6062C92.6247 80.6337 92.3228 80.4507 92.2496 80.1946L91.2524 76.7182C91.1792 76.462 91.3622 76.2333 91.6641 76.2059L115.276 74.0926C115.569 74.0651 115.862 74.2481 115.935 74.4951L116.969 77.9075C117.042 78.1545 116.868 78.3832 116.584 78.4106L116.594 78.4198Z" fill="#56BDFF"/>
<path d="M116.374 89.1036L95.9455 91.1437C95.6436 91.1711 95.3417 90.9881 95.2685 90.732L94.2622 87.2098C94.189 86.9537 94.372 86.7158 94.6739 86.6884L115.057 84.7215C115.349 84.694 115.642 84.877 115.724 85.1332L116.767 88.6004C116.84 88.8566 116.667 89.0853 116.374 89.1127V89.1036Z" fill="#56BDFF"/>
<path d="M122.898 99.2692L99.0023 101.831C98.7004 101.867 98.3985 101.675 98.3161 101.41L97.2915 97.8329C97.2183 97.5676 97.4013 97.3297 97.7032 97.3023L121.553 94.823C121.846 94.7956 122.148 94.9786 122.221 95.2347L123.282 98.7386C123.364 98.9947 123.191 99.2326 122.898 99.26V99.2692Z" fill="#56BDFF"/>
<path d="M126.118 109.916L102.103 112.669C101.801 112.706 101.49 112.514 101.417 112.249L100.383 108.626C100.31 108.36 100.493 108.123 100.795 108.086L124.764 105.415C125.057 105.378 125.358 105.57 125.441 105.826L126.52 109.385C126.603 109.65 126.429 109.888 126.136 109.916H126.118Z" fill="#56BDFF"/>
<path d="M123.711 121.404L105.25 123.655C104.948 123.691 104.637 123.499 104.555 123.234L103.502 119.556C103.429 119.291 103.612 119.044 103.914 119.007L122.33 116.821C122.623 116.784 122.934 116.976 123.007 117.242L124.086 120.864C124.169 121.13 123.986 121.377 123.693 121.413L123.711 121.404Z" fill="#56BDFF"/>
<path d="M132.695 131.662L108.443 134.809C108.132 134.846 107.821 134.663 107.748 134.389L106.677 130.656C106.595 130.382 106.787 130.135 107.089 130.089L131.296 127.024C131.588 126.988 131.9 127.171 131.982 127.445L133.089 131.104C133.171 131.37 132.997 131.626 132.695 131.662Z" fill="#56BDFF"/>
<path d="M158.256 74.5573L139.145 76.323C138.862 76.3504 138.569 76.1674 138.496 75.9204L137.426 72.563C137.343 72.316 137.508 72.0964 137.791 72.069L156.866 70.3582C157.14 70.3308 157.424 70.5137 157.506 70.7516L158.604 74.0633C158.686 74.3103 158.531 74.5207 158.256 74.5482V74.5573Z" fill="#56BDFF"/>
<path d="M164.733 84.2815L142.392 86.5137C142.109 86.5412 141.816 86.3582 141.734 86.1112L140.654 82.708C140.572 82.461 140.736 82.2323 141.02 82.2048L163.324 80.0458C163.598 80.0184 163.882 80.1922 163.964 80.4392L165.08 83.7875C165.163 84.0345 165.007 84.2541 164.733 84.2815Z" fill="#56BDFF"/>
<path d="M168.117 94.4263L145.676 96.8323C145.393 96.8597 145.1 96.6859 145.017 96.4298L143.92 92.9808C143.837 92.7247 144.002 92.496 144.286 92.4685L166.69 90.1357C166.965 90.1082 167.257 90.282 167.34 90.529L168.474 93.9231C168.556 94.1701 168.401 94.3988 168.126 94.4263H168.117Z" fill="#56BDFF"/>
<path d="M166.243 105.324L149.007 107.3C148.723 107.336 148.421 107.153 148.339 106.897L147.232 103.393C147.15 103.137 147.314 102.908 147.598 102.872L164.806 100.96C165.081 100.932 165.373 101.106 165.456 101.362L166.599 104.811C166.682 105.068 166.526 105.296 166.252 105.333L166.243 105.324Z" fill="#56BDFF"/>
<path d="M175.024 115.138L152.373 117.901C152.089 117.938 151.787 117.755 151.705 117.489L150.58 113.94C150.497 113.684 150.662 113.446 150.946 113.409L173.551 110.72C173.826 110.683 174.119 110.866 174.21 111.122L175.372 114.608C175.454 114.864 175.299 115.102 175.024 115.129V115.138Z" fill="#56BDFF"/>
<path d="M175.336 126.128L155.795 128.662C155.511 128.699 155.209 128.516 155.118 128.25L153.974 124.655C153.892 124.39 154.057 124.152 154.34 124.115L173.845 121.645C174.119 121.609 174.421 121.792 174.503 122.048L175.674 125.588C175.757 125.844 175.601 126.091 175.327 126.128H175.336Z" fill="#56BDFF"/>
<path d="M203.569 70.3668L182.619 72.3062C182.353 72.3337 182.07 72.1599 181.987 71.922L180.853 68.6743C180.771 68.4364 180.917 68.226 181.182 68.1986L202.096 66.3232C202.352 66.2957 202.626 66.4695 202.709 66.7074L203.87 69.9002C203.953 70.1381 203.816 70.3485 203.559 70.3668H203.569Z" fill="#56BDFF"/>
<path d="M201.135 80.6522L186.05 82.1526C185.784 82.18 185.501 82.0062 185.418 81.7592L184.275 78.4658C184.193 78.2279 184.339 78.0083 184.604 77.9809L199.662 76.5263C199.919 76.4988 200.202 76.6727 200.285 76.9105L201.456 80.1582C201.538 80.3961 201.401 80.6156 201.145 80.6339L201.135 80.6522Z" fill="#56BDFF"/>
<path d="M204.674 90.5118L189.524 92.1311C189.259 92.1585 188.975 91.9847 188.884 91.7377L187.722 88.3985C187.64 88.1515 187.786 87.932 188.051 87.9045L203.174 86.331C203.43 86.3035 203.714 86.4774 203.805 86.7152L204.985 90.0086C205.077 90.2465 204.93 90.4661 204.674 90.5027V90.5118Z" fill="#56BDFF"/>
<path d="M214.253 99.8257L193.047 102.25C192.781 102.278 192.489 102.104 192.406 101.857L191.226 98.4718C191.144 98.2248 191.29 97.9961 191.555 97.9686L212.725 95.6083C212.981 95.5809 213.265 95.7547 213.356 95.9926L214.564 99.3134C214.655 99.5604 214.518 99.78 214.253 99.8074V99.8257Z" fill="#56BDFF"/>
<path d="M214.903 110.263L196.615 112.496C196.35 112.532 196.057 112.349 195.966 112.102L194.776 108.672C194.685 108.425 194.84 108.196 195.106 108.159L213.366 105.991C213.631 105.964 213.915 106.138 213.997 106.385L215.214 109.76C215.305 110.007 215.168 110.236 214.903 110.263Z" fill="#56BDFF"/>
<path d="M216.576 120.768L200.228 122.891C199.954 122.927 199.67 122.744 199.579 122.488L198.371 119.012C198.279 118.755 198.426 118.527 198.7 118.49L215.021 116.423C215.286 116.386 215.57 116.569 215.661 116.816L216.897 120.247C216.988 120.503 216.851 120.732 216.585 120.768H216.576Z" fill="#56BDFF"/>
<path d="M181.294 77.453L205.741 146.824C206.291 148.829 208.245 150.122 210.301 149.857L253.821 143.211C256.447 142.876 260.256 139.412 259.696 136.002L231.328 70.8172C230.707 69.0462 228.987 67.9063 227.125 68.0285L186.012 69.1106C183.386 69.9961 179.971 73.2089 181.294 77.453Z" fill="#0040B0"/>
<path d="M183.462 74.1282L208.082 143.815C208.632 145.82 210.586 147.113 212.642 146.848L256.274 140.294C258.899 139.958 260.558 137.281 259.683 134.777L233.669 67.7976C233.048 66.0267 231.328 64.8868 229.465 65.0089L187.228 68.8459C184.582 69.0088 182.76 71.5634 183.462 74.118V74.1282Z" fill="#56BDFF"/>
<path d="M224.059 80.5399L201.159 83.1657C200.874 83.1962 200.569 83.0232 200.467 82.7688L199.185 79.3694C199.093 79.1252 199.246 78.8911 199.531 78.8605L222.39 76.2652C222.675 76.2347 222.98 76.4077 223.072 76.652L224.385 80.031C224.476 80.2752 224.334 80.5093 224.049 80.5399H224.059Z" fill="white"/>
<path d="M221.476 91.5009L205.039 93.4347C204.754 93.4652 204.438 93.2922 204.346 93.0377L203.054 89.6078C202.962 89.3534 203.115 89.1295 203.4 89.0888L219.817 87.1754C220.102 87.1448 220.407 87.3179 220.509 87.5723L221.822 90.9818C221.913 91.2363 221.761 91.4602 221.486 91.5009H221.476Z" fill="white"/>
<path d="M225.445 101.82L208.957 103.815C208.672 103.846 208.356 103.673 208.265 103.418L206.962 99.958C206.87 99.7035 207.023 99.4694 207.308 99.4389L223.776 97.4644C224.061 97.4339 224.366 97.6069 224.468 97.8614L225.791 101.301C225.893 101.556 225.74 101.79 225.455 101.82H225.445Z" fill="white"/>
<path d="M236.029 111.41L212.905 114.28C212.62 114.32 212.305 114.137 212.203 113.883L210.89 110.392C210.798 110.137 210.951 109.903 211.236 109.863L234.329 107.023C234.614 106.992 234.93 107.166 235.021 107.42L236.365 110.88C236.466 111.135 236.314 111.369 236.029 111.41Z" fill="white"/>
<path d="M236.792 122.3L216.894 124.834C216.599 124.875 216.294 124.692 216.192 124.427L214.859 120.906C214.757 120.651 214.92 120.407 215.205 120.377L235.082 117.873C235.367 117.832 235.682 118.015 235.784 118.27L237.138 121.771C237.239 122.025 237.087 122.27 236.802 122.3H236.792Z" fill="white"/>
<path d="M238.664 133.169L220.904 135.49C220.609 135.53 220.294 135.347 220.202 135.082L218.859 131.53C218.757 131.266 218.92 131.032 219.205 130.991L236.934 128.701C237.219 128.66 237.535 128.843 237.637 129.098L239 132.63C239.102 132.894 238.949 133.128 238.664 133.169Z" fill="white"/>
<path d="M217.109 101.567C217.109 101.567 211.062 109.783 199.318 111.308C187.573 112.834 171.463 104.141 167.254 90.767C162.68 76.2324 171.048 66.2721 185.348 63.1727C198.439 62.1289 217.109 101.567 217.109 101.567Z" fill="#8D2A00"/>
<path d="M218.696 83.2184C223.558 95.9458 216.743 107.906 203.026 109.569C188.971 111.273 173.806 101.495 169.597 88.1141C165.53 75.1914 173.422 64.1542 186.81 63.0835C199.901 62.0397 213.996 70.895 218.703 83.2117L218.696 83.2184Z" fill="#C35500"/>
<path d="M207.932 82.321C207.811 81.998 207.487 81.7973 207.143 81.8325L197.187 82.8534C196.84 82.8889 196.514 82.6843 196.396 82.357L193.192 73.5238C193.074 73.1996 192.753 72.9954 192.409 73.0266L187.155 73.503C186.661 73.5477 186.342 74.046 186.508 74.5132L189.416 82.7031C189.581 83.1668 189.267 83.6622 188.778 83.7124L179.108 84.7044C178.622 84.7543 178.309 85.2433 178.467 85.7055L180.096 90.4671C180.211 90.8034 180.544 91.0149 180.897 90.9761L191.33 89.8316C191.68 89.7932 192.011 90.0004 192.128 90.3321L195.406 99.5569C195.525 99.8917 195.86 100.099 196.213 100.056L201.59 99.4037C202.075 99.3448 202.379 98.8501 202.212 98.3909L199.139 89.9218C198.971 89.4592 199.281 88.9616 199.77 88.908L209.013 87.8962C209.505 87.8423 209.815 87.3385 209.641 86.8746L207.932 82.321Z" fill="white"/>
</svg>
