<svg width="45" height="45" viewBox="0 0 45 45" fill="none" xmlns="http://www.w3.org/2000/svg">
<g clip-path="url(#clip0_2810_46742)">
<path d="M13.5769 44.7273H35.6961C35.9604 44.727 36.2214 44.6689 36.4609 44.5571C36.7003 44.4453 36.9124 44.2825 37.0823 44.0801C37.2521 43.8776 37.3756 43.6405 37.4441 43.3852C37.5126 43.13 37.5244 42.8629 37.4788 42.6026L31.9714 11.3209C31.8978 10.9017 31.6786 10.5219 31.3526 10.2483C31.0265 9.97473 30.6144 9.82491 30.1888 9.8252H8.06086C7.7966 9.82545 7.53559 9.88351 7.29614 9.99531C7.05669 10.1071 6.84461 10.2699 6.67476 10.4724C6.5049 10.6748 6.38139 10.912 6.31289 11.1672C6.24439 11.4225 6.23257 11.6896 6.27823 11.9499L11.7856 43.2316C11.8606 43.6518 12.0813 44.0321 12.4089 44.3056C12.7365 44.5792 13.1501 44.7285 13.5769 44.7273Z" fill="#B9C1C6"/>
<path d="M35.6958 44.9999H13.5766C13.0865 45.0004 12.612 44.8281 12.2366 44.5131C11.8612 44.1981 11.609 43.7608 11.5243 43.2781L6.0083 12.0138C5.95539 11.7141 5.96875 11.4064 6.04747 11.1124C6.1262 10.8184 6.26835 10.5452 6.46395 10.3121C6.65955 10.0789 6.90387 9.8914 7.17969 9.76274C7.45551 9.63409 7.75615 9.56741 8.0605 9.56738H30.1797C30.6698 9.56685 31.1443 9.73924 31.5197 10.0542C31.8951 10.3692 32.1473 10.8065 32.232 11.2892L37.7393 42.568C37.7922 42.8677 37.7788 43.1754 37.7001 43.4694C37.6214 43.7634 37.4792 44.0365 37.2836 44.2697C37.088 44.5029 36.8437 44.6904 36.5679 44.819C36.2921 44.9477 35.9914 45.0144 35.6871 45.0144L35.6958 44.9999ZM8.0605 10.0978C7.83579 10.0978 7.61381 10.147 7.41014 10.2419C7.20647 10.3369 7.02606 10.4753 6.88158 10.6474C6.7371 10.8195 6.63206 11.0211 6.57384 11.2382C6.51561 11.4552 6.50561 11.6823 6.54454 11.9037L12.0519 43.1825C12.1141 43.5392 12.3003 43.8626 12.5776 44.0954C12.855 44.3282 13.2057 44.4556 13.5678 44.455H35.6958C35.9203 44.4545 36.1421 44.405 36.3455 44.3099C36.5489 44.2148 36.7291 44.0764 36.8735 43.9044C37.0179 43.7324 37.1229 43.531 37.1814 43.3142C37.2398 43.0973 37.2502 42.8704 37.2118 42.6491L31.7044 11.3703C31.6422 11.0136 31.456 10.6902 31.1786 10.4574C30.9013 10.2246 30.5506 10.0972 30.1884 10.0978H8.0605Z" fill="#B9C1C6"/>
<path d="M14.7683 43.5447H36.8876C37.152 43.5449 37.4132 43.4872 37.6529 43.3755C37.8926 43.2639 38.105 43.1011 38.2749 42.8985C38.4449 42.6959 38.5683 42.4586 38.6366 42.2031C38.7049 41.9477 38.7164 41.6803 38.6702 41.42L33.1629 10.1412C33.0898 9.72143 32.8709 9.34095 32.5448 9.0668C32.2187 8.79265 31.8063 8.64241 31.3802 8.64258H9.26098C8.99634 8.64284 8.73496 8.70098 8.49516 8.81293C8.25537 8.92488 8.04296 9.08793 7.87284 9.29064C7.70272 9.49335 7.57901 9.73082 7.51036 9.9864C7.44171 10.242 7.42979 10.5095 7.47545 10.7702L12.9828 42.049C13.0571 42.4684 13.2768 42.8483 13.6033 43.1218C13.9299 43.3953 14.3424 43.5451 14.7683 43.5447Z" fill="#CEDBE8"/>
<path d="M36.8873 43.8199H14.7681C14.2753 43.8203 13.7985 43.6456 13.4226 43.3271C13.0467 43.0086 12.7962 42.5668 12.7158 42.0807L7.20849 10.8019C7.15558 10.5022 7.16896 10.1945 7.24768 9.90051C7.3264 9.60651 7.46856 9.33333 7.66416 9.10016C7.85976 8.86698 8.10405 8.67947 8.37988 8.55082C8.6557 8.42217 8.95636 8.35549 9.26071 8.35547H31.3799C31.8698 8.3555 32.344 8.5281 32.7193 8.84296C33.0946 9.15782 33.347 9.59482 33.4322 10.0772L38.9395 41.3561C38.9924 41.6562 38.9789 41.9642 38.9001 42.2585C38.8212 42.5529 38.6788 42.8264 38.483 43.0598C38.2871 43.2933 38.0425 43.481 37.7663 43.6098C37.4902 43.7386 37.1891 43.8053 36.8844 43.8054L36.8873 43.8199ZM9.26071 8.9149C9.036 8.91488 8.81402 8.96408 8.61035 9.05901C8.40668 9.15395 8.22627 9.29233 8.08179 9.46444C7.93731 9.63654 7.83225 9.8382 7.77403 10.0552C7.7158 10.2723 7.70581 10.4994 7.74475 10.7207L13.2521 42.0025C13.3149 42.3587 13.5014 42.6813 13.7787 42.9136C14.056 43.1458 14.4063 43.2728 14.7681 43.272H36.8844C37.1093 43.2726 37.3315 43.2237 37.5354 43.1289C37.7394 43.0341 37.92 42.8958 38.0646 42.7235C38.2092 42.5513 38.3142 42.3494 38.3722 42.1322C38.4302 41.9149 38.4398 41.6876 38.4004 41.4662L32.893 10.1874C32.8303 9.83088 32.6439 9.50788 32.3667 9.27516C32.0894 9.04244 31.739 8.91488 31.377 8.9149H9.26071Z" fill="#688FB7"/>
<path d="M17.7918 8.30572L19.4353 17.8102C19.4759 18.0537 19.2034 18.1784 18.9976 18.0073L15.8092 15.3696C15.7559 15.3215 15.6867 15.2949 15.6149 15.2949C15.5432 15.2949 15.474 15.3215 15.4207 15.3696L13.2613 17.9378C13.1134 18.1117 12.7917 17.9842 12.7511 17.7378L11.1714 8.29702C11.1611 8.26231 11.1593 8.22564 11.1662 8.1901C11.1731 8.15455 11.1883 8.12118 11.2108 8.09277C11.2332 8.06437 11.2621 8.04177 11.2951 8.02687C11.3281 8.01197 11.3642 8.00521 11.4004 8.00716H17.4642C17.545 8.01108 17.6219 8.04303 17.6817 8.09752C17.7415 8.15201 17.7804 8.22563 17.7918 8.30572Z" fill="#688FB7"/>
<path d="M18.4434 7.90621L20.0869 17.4107C20.1304 17.6571 19.8579 17.7818 19.6492 17.6107L16.4607 14.973C16.4075 14.9249 16.3383 14.8983 16.2665 14.8983C16.1948 14.8983 16.1256 14.9249 16.0723 14.973L13.8984 17.5441C13.7534 17.718 13.4317 17.5905 13.3911 17.3412L11.8085 7.90042C11.8015 7.86672 11.8022 7.83188 11.8105 7.7985C11.8189 7.76511 11.8346 7.73404 11.8566 7.70758C11.8786 7.68112 11.9063 7.65997 11.9376 7.64568C11.9689 7.63139 12.0031 7.62433 12.0375 7.62505H18.1071C18.1871 7.62569 18.2643 7.65408 18.3257 7.70537C18.387 7.75665 18.4286 7.82764 18.4434 7.90621Z" fill="#CEDBE8"/>
<path d="M20.0695 17.5818C20.0051 17.5821 19.9427 17.5595 19.8934 17.5181C19.844 17.4767 19.8109 17.4192 19.7999 17.3557L19.5681 16.0137C19.5558 15.9422 19.5724 15.8687 19.6142 15.8095C19.6561 15.7502 19.7198 15.71 19.7913 15.6977C19.8627 15.6854 19.9362 15.7021 19.9954 15.7439C20.0547 15.7858 20.0949 15.8494 20.1072 15.9209L20.3391 17.263C20.3473 17.3339 20.3291 17.4053 20.2879 17.4636C20.2467 17.5219 20.1855 17.563 20.1159 17.5789L20.0695 17.5818ZM19.1738 17.4891C19.1108 17.4883 19.0497 17.4669 18.9999 17.4282L17.9477 16.5586C17.892 16.5125 17.8569 16.4461 17.8501 16.3741C17.8433 16.3021 17.8654 16.2303 17.9115 16.1746C17.9576 16.1188 18.024 16.0837 18.096 16.0769C18.1681 16.0701 18.2398 16.0922 18.2956 16.1383L19.3478 17.0079C19.3905 17.0438 19.4212 17.0919 19.4357 17.1458C19.4502 17.1997 19.4478 17.2567 19.4288 17.3092C19.4099 17.3617 19.3752 17.4071 19.3296 17.4393C19.284 17.4714 19.2297 17.4888 19.1738 17.4891ZM14.2259 17.4369C14.1622 17.4374 14.1004 17.4147 14.052 17.3731C13.9997 17.3245 13.9673 17.2582 13.9608 17.187C13.9544 17.1159 13.9745 17.0449 14.0172 16.9876L14.8868 15.9441C14.9333 15.8888 14.9999 15.8542 15.0719 15.8479C15.144 15.8417 15.2155 15.8643 15.2709 15.9108C15.3262 15.9573 15.3608 16.0239 15.3671 16.0959C15.3733 16.1679 15.3507 16.2395 15.3042 16.2949L14.4346 17.3384C14.4097 17.3697 14.378 17.3949 14.3418 17.412C14.3056 17.4291 14.2659 17.4376 14.2259 17.4369ZM13.3564 17.4369C13.2919 17.4369 13.2295 17.4139 13.1806 17.3719C13.1316 17.3298 13.0994 17.2717 13.0897 17.2079L12.8636 15.863C12.8567 15.7942 12.8763 15.7254 12.9183 15.6705C12.9602 15.6156 13.0215 15.5787 13.0897 15.5673C13.1578 15.5559 13.2278 15.5708 13.2854 15.609C13.343 15.6472 13.3839 15.7059 13.3998 15.7731L13.6259 17.1181C13.6322 17.1535 13.6313 17.1898 13.6235 17.2249C13.6156 17.26 13.6009 17.2931 13.5801 17.3225C13.5594 17.3519 13.533 17.3769 13.5026 17.396C13.4721 17.4151 13.4382 17.4281 13.4027 17.434L13.3564 17.4369ZM17.0608 15.7673C16.9984 15.7674 16.938 15.7459 16.8897 15.7064L16.2723 15.1963H16.2492L16.1796 15.2774C16.1333 15.3326 16.0671 15.3672 15.9955 15.3738C15.9238 15.3803 15.8524 15.3582 15.797 15.3122C15.7447 15.2636 15.7122 15.1973 15.7058 15.1261C15.6994 15.055 15.7195 14.984 15.7622 14.9267L15.8491 14.8253C15.9506 14.7254 16.0853 14.6664 16.2275 14.6594C16.3697 14.6525 16.5095 14.6981 16.6202 14.7876L17.2347 15.2977C17.2774 15.3336 17.3081 15.3818 17.3226 15.4356C17.3371 15.4895 17.3347 15.5466 17.3158 15.5991C17.2968 15.6515 17.2622 15.6969 17.2165 15.7291C17.1709 15.7613 17.1166 15.7786 17.0608 15.7789V15.7673ZM19.597 14.8977C19.5326 14.898 19.4702 14.8754 19.4209 14.834C19.3715 14.7926 19.3384 14.7351 19.3275 14.6716L19.0956 13.3296C19.0893 13.2942 19.0902 13.2579 19.098 13.2228C19.1059 13.1877 19.1206 13.1545 19.1414 13.1251C19.1621 13.0958 19.1885 13.0708 19.2189 13.0517C19.2494 13.0325 19.2833 13.0196 19.3188 13.0136C19.354 13.0074 19.3901 13.0083 19.4251 13.0162C19.46 13.0241 19.493 13.0388 19.5221 13.0596C19.5512 13.0804 19.5759 13.1068 19.5948 13.1372C19.6136 13.1676 19.6262 13.2015 19.6318 13.2368L19.8637 14.5789C19.8764 14.65 19.8603 14.7232 19.819 14.7825C19.7776 14.8417 19.7145 14.8821 19.6434 14.8948L19.597 14.8977ZM12.9071 14.7354C12.8427 14.7357 12.7802 14.7131 12.7309 14.6717C12.6815 14.6303 12.6485 14.5728 12.6375 14.5093L12.4143 13.1644C12.4057 13.1281 12.4046 13.0904 12.4112 13.0536C12.4177 13.0169 12.4318 12.9819 12.4524 12.9508C12.473 12.9197 12.4998 12.8932 12.5311 12.8729C12.5624 12.8526 12.5976 12.8389 12.6344 12.8327C12.6712 12.8266 12.7089 12.828 12.7451 12.837C12.7813 12.846 12.8153 12.8624 12.8449 12.885C12.8746 12.9077 12.8992 12.9362 12.9174 12.9688C12.9356 13.0014 12.9468 13.0374 12.9505 13.0745L13.1766 14.4195C13.184 14.4903 13.165 14.5614 13.1233 14.6191C13.0816 14.6769 13.0201 14.7172 12.9505 14.7325L12.9071 14.7354ZM19.1333 12.2107C19.0689 12.211 19.0064 12.1884 18.9571 12.147C18.9077 12.1056 18.8747 12.0481 18.8637 11.9846L18.6318 10.6426C18.6236 10.6065 18.6229 10.5692 18.6296 10.5328C18.6363 10.4965 18.6503 10.4619 18.6708 10.4311C18.6914 10.4003 18.7179 10.3741 18.7489 10.3539C18.7799 10.3338 18.8147 10.3201 18.8511 10.3138C18.8875 10.3075 18.9248 10.3087 18.9608 10.3173C18.9968 10.3258 19.0306 10.3417 19.0603 10.3637C19.0899 10.3858 19.1147 10.4137 19.1333 10.4457C19.1518 10.4777 19.1636 10.5131 19.168 10.5498L19.3999 11.8919C19.4126 11.963 19.3965 12.0362 19.3552 12.0955C19.3139 12.1547 19.2507 12.1951 19.1796 12.2078L19.1333 12.2107ZM12.4665 12.0455C12.4024 12.0457 12.3404 12.023 12.2915 11.9816C12.2427 11.9401 12.2101 11.8826 12.1998 11.8194L11.9737 10.4745C11.9678 10.4391 11.9689 10.4028 11.977 10.3679C11.9851 10.3329 12 10.2999 12.0209 10.2707C12.0418 10.2415 12.0682 10.2167 12.0986 10.1977C12.1291 10.1787 12.163 10.1659 12.1984 10.16C12.2338 10.1541 12.27 10.1552 12.3049 10.1633C12.3399 10.1714 12.3729 10.1863 12.4021 10.2071C12.4313 10.228 12.4561 10.2544 12.4751 10.2849C12.4941 10.3153 12.5069 10.3492 12.5128 10.3846L12.7389 11.7238C12.7507 11.7948 12.7338 11.8677 12.692 11.9264C12.6501 11.985 12.5868 12.0247 12.5157 12.0368L12.4665 12.0455ZM18.6782 9.52372C18.6141 9.52387 18.5521 9.5012 18.5032 9.45977C18.4544 9.41833 18.4218 9.36086 18.4115 9.29763L18.1796 7.95558C18.1714 7.91952 18.1707 7.88218 18.1774 7.84583C18.1841 7.80947 18.1981 7.77486 18.2187 7.7441C18.2392 7.71334 18.2657 7.68708 18.2967 7.66691C18.3277 7.64674 18.3625 7.63309 18.3989 7.62679C18.4353 7.62049 18.4727 7.62167 18.5086 7.63026C18.5446 7.63885 18.5784 7.65466 18.6081 7.67674C18.6377 7.69882 18.6626 7.7267 18.6811 7.75869C18.6996 7.79068 18.7115 7.82611 18.7159 7.86282L18.9477 9.20487C18.954 9.24029 18.9532 9.27659 18.9453 9.31168C18.9374 9.34677 18.9227 9.37996 18.902 9.40933C18.8812 9.4387 18.8548 9.46367 18.8244 9.48281C18.794 9.50194 18.76 9.51486 18.7246 9.52082L18.6782 9.52372ZM12.0114 9.3585C11.9475 9.35543 11.8864 9.33131 11.8376 9.28989C11.7889 9.24847 11.7552 9.19207 11.7418 9.12951L11.5447 7.94978C11.5284 7.83377 11.5476 7.71552 11.5998 7.61064C11.6348 7.54722 11.6935 7.50029 11.7631 7.48017C11.8327 7.46006 11.9074 7.46842 11.9708 7.50339C12.0342 7.53837 12.0812 7.59711 12.1013 7.66669C12.1214 7.73627 12.113 7.81099 12.0781 7.87441L12.281 9.03386C12.2927 9.10494 12.2758 9.17779 12.234 9.23646C12.1922 9.29513 12.1288 9.33483 12.0578 9.3469L12.0114 9.3585ZM17.2521 7.9092H15.8868C15.8146 7.9092 15.7453 7.88049 15.6942 7.82939C15.6431 7.77829 15.6144 7.70899 15.6144 7.63673C15.6144 7.56446 15.6431 7.49516 15.6942 7.44406C15.7453 7.39297 15.8146 7.36426 15.8868 7.36426H17.2521C17.3243 7.36426 17.3936 7.39297 17.4447 7.44406C17.4958 7.49516 17.5245 7.56446 17.5245 7.63673C17.5245 7.70899 17.4958 7.77829 17.4447 7.82939C17.3936 7.88049 17.3243 7.9092 17.2521 7.9092ZM14.5245 7.9092H13.1621C13.0899 7.9092 13.0206 7.88049 12.9695 7.82939C12.9184 7.77829 12.8897 7.70899 12.8897 7.63673C12.8897 7.56446 12.9184 7.49516 12.9695 7.44406C13.0206 7.39297 13.0899 7.36426 13.1621 7.36426H14.5245C14.5967 7.36426 14.6661 7.39297 14.7172 7.44406C14.7683 7.49516 14.7969 7.56446 14.7969 7.63673C14.7969 7.70899 14.7683 7.77829 14.7172 7.82939C14.6661 7.88049 14.5967 7.9092 14.5245 7.9092Z" fill="#688FB7"/>
<path d="M16.1075 25.0829H30.6585C30.8113 25.0882 30.9632 25.0582 31.1025 24.9954C31.2418 24.9326 31.3649 24.8386 31.4621 24.7206C31.5593 24.6027 31.6281 24.4639 31.6632 24.3152C31.6982 24.1664 31.6986 24.0116 31.6643 23.8626C31.5973 23.5274 31.4193 23.2247 31.1589 23.0032C30.8985 22.7818 30.5711 22.6546 30.2295 22.6423H15.6785C15.5256 22.6365 15.3734 22.6661 15.2338 22.7287C15.0941 22.7913 14.9708 22.8854 14.8735 23.0035C14.7762 23.1216 14.7074 23.2605 14.6726 23.4096C14.6377 23.5586 14.6378 23.7136 14.6727 23.8626C14.7401 24.1976 14.9184 24.5001 15.1786 24.7214C15.4389 24.9428 15.7661 25.0701 16.1075 25.0829Z" fill="#F58B00"/>
<path d="M25.7474 28.8807H31.2025C31.3552 28.886 31.5071 28.8561 31.6463 28.7933C31.7856 28.7304 31.9085 28.6363 32.0055 28.5183C32.1025 28.4003 32.171 28.2615 32.2057 28.1127C32.2404 27.9639 32.2403 27.8091 32.2054 27.6603C32.1385 27.3252 31.9604 27.0224 31.7 26.8009C31.4397 26.5795 31.1122 26.4523 30.7706 26.44H25.3184C25.1656 26.4348 25.0137 26.4647 24.8744 26.5276C24.735 26.5904 24.612 26.6844 24.5148 26.8024C24.4176 26.9203 24.3488 27.059 24.3137 27.2078C24.2786 27.3566 24.2782 27.5114 24.3125 27.6603C24.38 27.9953 24.5582 28.2978 24.8185 28.5192C25.0787 28.7405 25.4059 28.8679 25.7474 28.8807Z" fill="#B9C1C6"/>
<path d="M17.0206 28.8251H22.4758C22.6285 28.8304 22.7804 28.8004 22.9198 28.7376C23.0591 28.6747 23.1821 28.5807 23.2793 28.4628C23.3766 28.3448 23.4453 28.2061 23.4804 28.0574C23.5155 27.9086 23.5159 27.7538 23.4816 27.6048C23.414 27.2673 23.2338 26.9627 22.9705 26.741C22.7072 26.5193 22.3764 26.3936 22.0323 26.3845H16.5916C16.4387 26.3787 16.2865 26.4082 16.1468 26.4709C16.0072 26.5335 15.8839 26.6276 15.7866 26.7456C15.6892 26.8637 15.6205 27.0027 15.5857 27.1517C15.5508 27.3008 15.5509 27.4558 15.5858 27.6048C15.6532 27.9398 15.8314 28.2423 16.0917 28.4636C16.352 28.685 16.6792 28.8123 17.0206 28.8251Z" fill="#F58B00"/>
<path d="M17.4232 32.1269H22.8842C23.037 32.1321 23.1889 32.1022 23.3282 32.0393C23.4675 31.9765 23.5906 31.8825 23.6878 31.7646C23.785 31.6466 23.8538 31.5079 23.8889 31.3591C23.9239 31.2104 23.9243 31.0555 23.89 30.9066C23.8219 30.5696 23.6414 30.2657 23.3782 30.0445C23.1149 29.8234 22.7844 29.6981 22.4407 29.6892H16.9942C16.8416 29.6835 16.6897 29.713 16.5504 29.7755C16.411 29.838 16.2879 29.9317 16.1906 30.0495C16.0934 30.1672 16.0245 30.3058 15.9895 30.4544C15.9544 30.6031 15.954 30.7578 15.9884 30.9066C16.0554 31.2418 16.2335 31.5446 16.4938 31.766C16.7542 31.9875 17.0816 32.1146 17.4232 32.1269Z" fill="#B9C1C6"/>
</g>
<path d="M8.20384 2.82367C8.27939 2.80467 8.35868 2.80649 8.43328 2.82893C8.50788 2.85138 8.57501 2.89361 8.62753 2.95114L9.92262 4.27531C9.96701 4.32084 10.0017 4.37491 10.0247 4.43423C10.0476 4.49355 10.0582 4.55691 10.056 4.62047C10.0538 4.68403 10.0387 4.74647 10.0117 4.80404C9.98462 4.86161 9.9462 4.9131 9.89871 4.95541C9.8314 5.02707 9.74258 5.07486 9.64568 5.09153C9.54879 5.1082 9.4491 5.09284 9.36171 5.04778C9.31975 5.02541 9.28102 4.99745 9.24657 4.96466L7.95149 3.6405C7.8933 3.58334 7.85166 3.51151 7.83096 3.43262C7.81026 3.35372 7.81127 3.2707 7.8339 3.19234C7.85812 3.10399 7.90499 3.02351 7.96987 2.95884C8.03476 2.89418 8.11541 2.84759 8.20384 2.82367Z" fill="white"/>
<path d="M18.088 0.967467C18.1424 0.982974 18.193 1.00988 18.2363 1.0464C18.2796 1.08292 18.3146 1.12823 18.3391 1.17931C18.3635 1.2304 18.3768 1.28609 18.3781 1.34272C18.3794 1.39934 18.3687 1.45559 18.3466 1.50775L17.7416 3.20847C17.7196 3.26948 17.6857 3.32548 17.6417 3.37318C17.5978 3.42088 17.5447 3.45931 17.4857 3.48622C17.4267 3.51312 17.3629 3.52795 17.2981 3.52984C17.2333 3.53174 17.1687 3.52065 17.1082 3.49724C17.0828 3.48849 17.0583 3.47731 17.035 3.46385C16.9477 3.41773 16.8809 3.34055 16.8478 3.24755C16.8146 3.15456 16.8176 3.05252 16.856 2.96158L17.4616 1.26453C17.4828 1.2036 17.5159 1.1475 17.559 1.09949C17.6021 1.05148 17.6543 1.01252 17.7126 0.984875C17.7709 0.957231 17.8341 0.941454 17.8985 0.938466C17.963 0.935477 18.0274 0.945336 18.088 0.967467Z" fill="white"/>
<path d="M13.0896 0.253134C13.1407 0.286379 13.1847 0.329455 13.2191 0.379854C13.2534 0.430253 13.2774 0.486971 13.2896 0.546715L13.8497 3.2215C13.8739 3.34182 13.8507 3.46683 13.785 3.57046C13.7192 3.67409 13.616 3.74832 13.4968 3.77766C13.3868 3.80521 13.2704 3.78964 13.1714 3.73414C13.1143 3.70257 13.0646 3.65898 13.0259 3.60638C12.9871 3.55378 12.9602 3.49341 12.947 3.42943L12.387 0.754649C12.3616 0.634346 12.3839 0.508869 12.4494 0.40478C12.5149 0.30069 12.6183 0.226156 12.7377 0.196951C12.7971 0.182153 12.8589 0.1795 12.9194 0.189155C12.9798 0.19881 13.0377 0.220569 13.0896 0.253134Z" fill="white"/>
<defs>
<clipPath id="clip0_2810_46742">
<rect width="32.9977" height="37.6471" fill="white" transform="translate(5.97656 7.35254)"/>
</clipPath>
</defs>
</svg>
