<svg width="46" height="46" viewBox="0 0 46 46" fill="none" xmlns="http://www.w3.org/2000/svg">
<g clip-path="url(#clip0_4211_40763)">
<path d="M41.0786 40.8406L24.7331 35.4067C24.6978 35.3958 24.6624 35.3903 24.627 35.3985L1.48093 38.9322C0.440959 39.052 0.342952 39.3433 0.658753 39.4957L17.0341 45.0549C17.6739 45.2727 18.3545 45.3244 19.0188 45.2047L40.153 41.3279C41.114 41.2 41.3073 40.9141 41.0786 40.8406Z" fill="#1B90FF"/>
<path d="M45.246 35.7931C45.4284 35.7605 45.5401 35.5754 45.4856 35.3984L41.5572 22.2164C41.5572 22.2164 41.5517 22.1946 41.5463 22.1838L40.1905 17.6972C40.1905 17.6972 40.185 17.6809 40.1823 17.6727L39.6215 15.8133L38.6632 13.0718C38.6442 13.0201 38.6197 12.9683 38.5952 12.9193C38.5952 12.9193 38.5952 12.9139 38.5952 12.9112C38.5679 12.854 38.538 12.7996 38.5053 12.7478C38.4971 12.7342 38.489 12.7233 38.4808 12.7097C38.4509 12.6634 38.4209 12.6199 38.3855 12.5763C38.3665 12.5491 38.342 12.5246 38.3202 12.5001C38.293 12.4701 38.2685 12.4375 38.2385 12.4075C38.1841 12.3504 38.1242 12.2959 38.0616 12.2469L25.3369 2.08407C25.3369 2.08407 25.1899 1.98062 24.9667 1.87717C24.8932 1.84178 24.8088 1.80911 24.719 1.77916C24.4522 1.6866 24.1309 1.62943 23.8233 1.7111C23.7226 1.73832 23.6218 1.77916 23.5265 1.84178L17.3085 7.38191L14.0961 10.2432L11.9943 12.1162C11.7085 12.3721 11.5206 12.7206 11.4689 13.1017L11.2484 16.4776C11.2348 16.6681 11.2538 16.856 11.3056 17.0411L16.5326 36.3431L17.7986 40.4322C17.8748 40.6799 18.1252 40.8324 18.3812 40.7834L45.246 35.7986V35.7931Z" fill="#00144A"/>
<path d="M11.4414 16.7459L18.3046 40.5726L45.4934 35.4571L39.5313 15.4609L11.4414 16.7459Z" fill="white"/>
<path d="M23.7821 1.60408L12.2036 12.0555C11.9559 12.2787 11.7953 12.5754 11.7408 12.913C11.6918 13.2234 11.6374 13.5991 11.6238 13.8169C11.5965 14.2797 11.4414 16.7435 11.4414 16.7435L39.5313 15.4585L38.5948 12.7388C38.4886 12.4284 38.2817 12.1399 38.0041 11.9166L25.5517 1.84637C25.5517 1.84637 24.5281 1.11949 23.7794 1.60408H23.7821Z" fill="white"/>
<path d="M39.5329 15.4609C39.5329 15.4609 37.5075 15.4609 37.2298 15.5671C36.4566 15.8557 33.6334 27.3035 23.0378 22.4657C21.8807 21.9376 27.1432 28.6647 26.3727 29.3997C25.9889 29.7673 25.5615 30.0967 25.1014 30.3853C24.8809 30.5214 24.5896 30.6085 24.3827 30.7419C24.1512 30.8916 24.1894 30.9679 24.1159 31.2728C24.0124 31.6975 23.7102 32.0187 23.3754 32.2828C22.722 32.7973 21.9216 33.1349 21.2001 33.5651C20.1357 34.2021 19.0685 34.8201 17.9332 35.3619C17.6038 35.517 17.2744 35.6722 16.9395 35.8165L18.3089 40.5726L45.495 35.4599C45.495 35.4599 39.5411 15.4882 39.5329 15.4637V15.4609Z" fill="#00144A"/>
<path d="M38.5921 12.7447C38.573 12.693 38.5485 12.644 38.5268 12.5923C38.4614 12.7992 38.3416 12.9761 38.1184 13.0959C37.9333 13.1966 39.2003 14.5035 38.988 14.5579C38.5948 14.8954 38.1184 15.0434 37.6989 15.1006C36.2753 15.2949 17.4785 15.6276 13.1074 15.7027C12.3487 15.7157 12.5007 15.5251 12.5007 15.5251C12.5007 15.5251 12.3917 15.3995 13.1894 14.6623C14.7716 13.2001 18.8321 9.52381 23.8883 4.12823C23.6841 3.57286 16.3336 10.771 15.7537 10.4987C15.3617 10.3136 14.9615 10.0931 14.5531 9.93244L12.2036 12.0532C12.1274 12.1213 12.0648 12.1921 12.0049 12.2737C11.8116 12.5433 11.7245 12.8101 11.6837 13.2865C11.6564 13.4879 11.6319 13.6812 11.6238 13.8174C11.5965 14.2802 11.4414 16.744 11.4414 16.744L39.5313 15.459L38.5948 12.7393L38.5921 12.7447Z" fill="#9B015D"/>
<path d="M18.3063 40.5745L24.0806 39.4882L29.9747 26.7473C29.9747 26.7473 17.8925 19.198 15.6248 18.1716C14.3534 17.5972 12.7335 17.2896 11.5547 17.1289L18.3008 40.5745H18.3063Z" fill="#DF1278"/>
<path d="M18.3059 40.5744L24.0801 39.4881L29.9742 26.7472C29.9742 26.7472 27.8145 25.0615 25.5467 24.0352C26.6357 27.0299 20.9186 30.0245 16.1543 33.1553L18.3014 40.5744H18.3059Z" fill="#9B015D"/>
<path d="M39.6552 15.8777C39.2251 16.1119 37.9864 16.8551 37.8775 17.7371C37.7441 18.8098 37.8312 19.1664 37.1261 20.2581C36.421 21.3471 32.2012 27.693 32.2012 27.693L42.1653 36.0836L45.4921 35.4574L39.6552 15.875V15.8777Z" fill="#DF1278"/>
<path d="M38.0018 11.9087L25.5522 1.84637C25.5522 1.84637 24.5285 1.11949 23.7799 1.60408L12.1906 11.9003C11.8292 12.226 11.661 12.9057 11.6254 13.4658L11.5508 14.6761L23.6165 4.34556C23.6165 4.34556 24.5558 3.22937 26.1484 4.63414C27.741 6.03891 39.2998 14.7853 39.2998 14.7853L38.9257 13.6571L38.5462 12.5866C38.4284 12.3118 38.2278 12.0911 38.0018 11.9087Z" fill="#DF1278"/>
<path d="M45.3063 35.3773C45.2051 34.7201 44.7068 33.2477 44.5256 32.855C44.482 32.7897 44.4221 32.7325 44.3541 32.6944L32.8636 26.2807C29.6076 25.8778 27.4331 27.8571 27.4331 27.8571C27.4331 27.8571 19.7731 35.4738 18.6854 36.6179C17.9041 37.3366 18.2388 38.2196 18.3395 38.481C18.3722 38.5627 18.4063 38.6282 18.4321 38.7185C18.5606 39.1682 18.4278 39.9564 18.2209 40.2722L18.3081 40.5717L45.3036 35.4726V35.3773H45.3063Z" fill="#00144A"/>
<path d="M45.2933 35.491C45.277 34.9846 44.3568 33.5799 44.1009 33.1987C44.0573 33.1334 44.0029 33.0817 43.9375 33.0436C42.9493 32.4582 34.831 27.6423 32.7293 26.4417C30.705 25.2853 29.6938 26.6132 29.6938 26.6132C29.6938 26.6132 20.1925 36.3894 19.2125 37.2933C18.442 38.0038 18.5248 38.2861 18.5809 38.4966C18.6031 38.58 18.6217 38.6136 18.6244 38.6763C18.6517 39.4331 18.4284 39.9558 18.2188 40.2743L18.3032 40.5711L45.2906 35.4965H45.2933V35.491Z" fill="#DF1278"/>
</g>
<defs>
<clipPath id="clip0_4211_40763">
<rect width="45" height="44" fill="white" transform="translate(0.5 1.4375)"/>
</clipPath>
</defs>
</svg>
