<svg width="134" height="129" viewBox="0 0 134 129" fill="none" xmlns="http://www.w3.org/2000/svg">
<circle cx="64" cy="64.7695" r="64" fill="#EBF8FF"/>
<path fill-rule="evenodd" clip-rule="evenodd" d="M3.94873 42.5856C8.10695 31.3329 15.3377 21.5691 24.6228 14.3125C32.5588 16.4881 38.3903 23.7528 38.3903 32.3794C38.3903 42.7247 30.0038 51.1112 19.6585 51.1112C13.0779 51.1112 7.28987 47.7179 3.94873 42.5856Z" fill="#B8E6FF"/>
<path d="M16.1963 36.9814C16.1319 37.1687 14.7065 36.3463 13.3456 36.9814C11.727 37.7336 11.5631 39.9083 11.206 39.8322C10.7963 39.7473 10.2197 36.7004 11.8411 35.6351C13.5914 34.4819 16.287 36.7151 16.1963 36.9814Z" fill="#9EDDFF"/>
<path d="M24.3501 23.0093C24.2857 23.1966 22.8603 22.3771 21.4993 23.0093C19.8808 23.7644 19.7169 25.9361 19.3598 25.8629C18.9501 25.7751 18.3735 22.7283 19.995 21.6629C21.7452 20.5127 24.4408 22.7459 24.3501 23.0093Z" fill="#9EDDFF"/>
<path d="M29.8994 33.7822C29.835 33.9666 28.4097 33.1471 27.0487 33.7822C25.4301 34.5344 25.2662 36.709 24.9092 36.6329C24.4994 36.5451 23.9228 33.4983 25.5443 32.4358C27.2945 31.2827 29.9814 33.5158 29.8994 33.7822Z" fill="#9EDDFF"/>
<path fill-rule="evenodd" clip-rule="evenodd" d="M3.94775 42.5883C4.1749 41.9735 4.41121 41.3632 4.65653 40.7575C6.7161 42.6193 9.17929 44.0139 11.8792 44.8167C16.1402 46.0838 20.713 45.7941 24.7802 43.9995C28.8473 42.2049 32.1436 39.0223 34.0798 35.0206C36.0161 31.019 36.466 26.4592 35.3493 22.1562C36.8307 24.4313 37.7999 27.0013 38.1896 29.688C38.5794 32.3748 38.3805 35.1142 37.6067 37.7165C36.8329 40.3188 35.5027 42.7217 33.7082 44.759C31.9137 46.7962 29.6978 48.4191 27.2139 49.5151C24.7301 50.6111 22.0377 51.154 19.3232 51.1064C16.6087 51.0587 13.937 50.4216 11.4932 49.2391C9.04936 48.0566 6.89176 46.3571 5.16983 44.2581C4.73103 43.7233 4.3232 43.1657 3.94775 42.5883Z" fill="#9EDDFF"/>
<path d="M64.4147 117.845C42.3679 117.845 24.4954 100.13 24.4954 78.2761C24.4954 56.4227 42.3679 38.707 64.4147 38.707C86.4615 38.707 104.334 56.4227 104.334 78.2761C104.334 100.13 86.4615 117.845 64.4147 117.845Z" fill="#D1EFFF"/>
<path d="M64.415 112.464C45.3657 112.464 29.9232 97.1573 29.9232 78.2752C29.9232 59.393 45.3657 44.0859 64.415 44.0859C83.4642 44.0859 98.9067 59.393 98.9067 78.2752C98.9067 97.1573 83.4642 112.464 64.415 112.464Z" fill="#0070F2"/>
<path fill-rule="evenodd" clip-rule="evenodd" d="M84.8986 105.785L55.0593 105.785C54.3909 105.785 53.8491 105.243 53.8491 104.575C53.8491 103.907 54.3909 103.365 55.0593 103.365L87.846 103.365C86.9102 104.224 85.9263 105.032 84.8986 105.785ZM91.7063 99.1845H37.123C35.2771 96.8206 33.7368 94.2104 32.5609 91.412H58.3552C59.7362 91.412 61.0886 91.0182 62.2537 90.2767L64.5822 88.7949C65.7474 88.0535 67.0997 87.6597 68.4808 87.6597H95.8485C96.4295 87.6597 96.9904 87.7457 97.5193 87.9056C96.2957 92.0448 94.3036 95.8585 91.7063 99.1845ZM98.6992 74.5061H72.3014C71.4659 74.5061 70.7886 73.8288 70.7886 72.9933C70.7886 72.1578 71.4659 71.4805 72.3014 71.4805H98.2253C98.4274 72.4741 98.5861 73.4833 98.6992 74.5061ZM97.5769 68.8425C97.1183 69.3556 96.4508 69.6887 95.681 69.6887H46.4655C45.6144 69.6887 44.9244 68.9987 44.9244 68.1476C44.9244 67.2964 44.2344 66.6065 43.3833 66.6065H31.984C32.8593 64.217 33.9956 61.9517 35.3589 59.8444C35.6968 59.7963 36.0386 59.772 36.382 59.772H71.9944C71.9944 62.4364 74.1544 64.5963 76.8188 64.5963H95.681C95.8046 64.5963 95.9267 64.6052 96.0465 64.6226C96.646 65.9853 97.1584 67.3942 97.5769 68.8425ZM43.9651 50.7404H54.9688C55.8043 50.7404 56.4816 50.0631 56.4816 49.2276C56.4816 48.3921 55.8043 47.7148 54.9688 47.7148H48.9341C47.1876 48.5858 45.5261 49.5994 43.9651 50.7404ZM30.026 80.9382L52.4857 80.9382C54.1567 80.9382 55.5113 82.2928 55.5113 83.9638C55.5113 85.6348 54.1567 86.9894 52.4857 86.9894L31.0533 86.9894C30.5352 85.0352 30.1872 83.0127 30.026 80.9382ZM59.8382 71.4805C59.0027 71.4805 58.3254 72.1578 58.3254 72.9933C58.3254 73.8288 59.0027 74.5061 59.8382 74.5061H63.6471C64.4826 74.5061 65.1599 73.8288 65.1599 72.9933C65.1599 72.1578 64.4826 71.4805 63.6471 71.4805H59.8382Z" fill="#9EDDFF"/>
<path fill-rule="evenodd" clip-rule="evenodd" d="M67.942 112.288C66.7825 112.404 65.6061 112.464 64.4156 112.464C51.4709 112.464 40.1918 105.396 34.292 94.9407C39.5663 98.1847 45.7887 100.058 52.4525 100.058C71.5018 100.058 86.9443 84.7508 86.9443 65.8687C86.9443 59.8176 85.3584 54.1337 82.5761 49.2031C92.3792 55.2327 98.9072 65.9982 98.9072 78.275C98.9072 91.3856 91.4624 102.773 80.5345 108.509C76.7075 110.518 72.4533 111.834 67.942 112.288Z" fill="#004DA5"/>
<path fill-rule="evenodd" clip-rule="evenodd" d="M55.0596 105.785H84.8991C85.9268 105.032 86.9107 104.223 87.8465 103.364L55.0596 103.364C54.3912 103.364 53.8494 103.906 53.8494 104.575C53.8494 105.243 54.3912 105.785 55.0596 105.785ZM60.2343 99.1841H91.7068C94.3041 95.8582 96.2962 92.0446 97.5197 87.9054C96.9908 87.7454 96.4297 87.6593 95.8485 87.6593H79.0318C74.2883 93.3379 67.7282 97.4712 60.2343 99.1841ZM44.6702 99.1841H37.1237C36.0781 97.8452 35.1305 96.4272 34.2917 94.9407C37.4479 96.882 40.9436 98.3323 44.6702 99.1841ZM86.7312 69.6881C86.8718 68.4342 86.944 67.1598 86.944 65.8687C86.944 65.4425 86.9361 65.0181 86.9205 64.5957H95.6813C95.8049 64.5957 95.927 64.6046 96.0469 64.622C96.6464 65.9846 97.1588 67.3935 97.5773 68.8417C97.1187 69.3549 96.4511 69.6881 95.6812 69.6881H86.7312ZM86.4817 71.4799C86.3111 72.5045 86.0944 73.5137 85.834 74.5055H98.6997C98.5865 73.4827 98.4279 72.4735 98.2257 71.4799H86.4817Z" fill="#0070F2"/>
<path fill-rule="evenodd" clip-rule="evenodd" d="M63.9204 11.9355C64.7548 11.9355 65.4312 12.6119 65.4312 13.4463L65.4312 50.9888C65.4312 51.8232 64.7548 52.4995 63.9204 52.4995C63.0861 52.4995 62.4097 51.8232 62.4097 50.9888L62.4097 13.4463C62.4097 12.6119 63.0861 11.9355 63.9204 11.9355Z" fill="#00144A"/>
<path d="M77.8203 14.3958C73.3717 11.2447 67.6256 12.3105 65.3086 13.2373V35.3644C78.3995 27.3708 77.8203 29.8036 89.7527 30.0353C99.2986 30.2207 102.38 26.4054 102.728 24.4746C92.7648 26.2123 83.381 18.3346 77.8203 14.3958Z" fill="#F58B00"/>
<path fill-rule="evenodd" clip-rule="evenodd" d="M81.2627 29.549V16.8887C84.4362 19.1696 88.3 21.7591 92.533 23.315V29.969C91.6738 30.0301 90.7484 30.0542 89.7527 30.0349C87.1764 29.9849 85.1833 29.8323 83.51 29.7041C82.6952 29.6417 81.9563 29.5851 81.2627 29.549Z" fill="#CC7400"/>
<path fill-rule="evenodd" clip-rule="evenodd" d="M70.0584 12.2988V32.5935C68.6936 33.3369 67.134 34.2488 65.3086 35.3634V13.2363C66.3459 12.8214 68.0706 12.3786 70.0584 12.2988Z" fill="#CC7400"/>
<path d="M99.3883 39.639C98.8543 38.3743 99.9708 36.4742 102.226 34.3923C102.169 34.0028 102.127 33.6083 102.102 33.209C98.5005 36.1054 96.5776 38.8591 97.3107 40.5938C98.0438 42.3286 101.268 42.6714 105.721 41.8057C105.467 41.5275 105.225 41.239 104.994 40.9401C102.012 41.3054 99.9231 40.9037 99.3883 39.639Z" fill="#D1EFFF"/>
<path fill-rule="evenodd" clip-rule="evenodd" d="M109.558 19.8203C115.846 26.1924 120.806 33.8771 123.992 42.4263C121.664 44.668 118.563 46.0358 115.158 46.0358C107.93 46.0358 102.071 39.8716 102.071 32.2677C102.071 26.7719 105.132 22.0282 109.558 19.8203Z" fill="#D1EFFF"/>
<path fill-rule="evenodd" clip-rule="evenodd" d="M122.145 37.9901C122.287 38.2971 122.426 38.6054 122.563 38.915H121.804C121.741 38.915 121.678 38.9001 121.621 38.8715C121.564 38.8428 121.514 38.8011 121.474 38.7493C121.434 38.6975 121.405 38.637 121.39 38.5723C121.376 38.5075 121.375 38.44 121.388 38.3748C121.41 38.2725 121.465 38.1814 121.544 38.1168C121.623 38.0522 121.72 38.018 121.82 38.0199L122.145 37.9901ZM121.146 35.9221C119.968 36.5692 118.729 37.1994 117.44 37.8019C115.032 38.9276 112.673 39.8524 110.464 40.5624L110.466 40.5632C109.329 40.9338 108.179 41.2551 107.017 41.5264C106.825 41.5714 106.635 41.6144 106.447 41.6554C106.205 41.7084 105.962 41.7593 105.719 41.808C105.595 41.6718 105.474 41.5336 105.355 41.3934L105.341 41.3752C105.221 41.2332 105.105 41.089 104.992 40.9424L104.996 40.942L104.994 40.9399C105.079 40.9295 105.164 40.9185 105.251 40.9069C105.802 40.8287 106.35 40.7355 106.896 40.6272C109.873 40.0253 113.463 38.8184 117.189 37.0765C118.449 36.4877 119.655 35.8699 120.793 35.2359C120.912 35.4638 121.03 35.6925 121.146 35.9221ZM117.902 30.2499H115.155C114.662 30.2497 114.19 30.0434 113.841 29.6766C113.492 29.3097 113.297 28.8122 113.297 28.2935V27.7672C113.297 27.693 113.283 27.6196 113.256 27.551C113.229 27.4825 113.189 27.4203 113.139 27.3678C113.089 27.3154 113.03 27.2739 112.965 27.2455C112.9 27.2172 112.83 27.2027 112.759 27.2028H104.382L104.382 27.2012H102.983L102.956 27.2756C102.92 27.3734 102.884 27.4713 102.851 27.5699L102.842 27.5939C102.832 27.6238 102.822 27.6533 102.812 27.6833C102.789 27.7528 102.766 27.8238 102.744 27.8942L102.744 27.8942C102.725 27.9528 102.707 28.0111 102.688 28.0677C102.683 28.0837 102.679 28.1001 102.674 28.1165L102.674 28.1165L102.666 28.1439C102.632 28.2564 102.6 28.3689 102.569 28.4832L102.542 28.5836C102.507 28.7204 102.472 28.858 102.44 28.9965L102.435 29.0173C102.404 29.1515 102.376 29.2865 102.349 29.4216L102.331 29.5081C102.276 29.7964 102.228 30.0881 102.191 30.3824L102.181 30.4551C102.163 30.6023 102.146 30.7503 102.132 30.8992L102.135 30.8992L102.135 30.9H112.646L118.324 30.9159C118.185 30.693 118.044 30.471 117.902 30.2499ZM112.231 32.2339H113.053C113.166 32.2339 113.274 32.281 113.354 32.365C113.434 32.4489 113.479 32.5627 113.479 32.6814C113.479 32.8001 113.434 32.9139 113.354 32.9979C113.274 33.0818 113.166 33.1289 113.053 33.1289H112.231C112.118 33.1289 112.01 33.0818 111.93 32.9979C111.85 32.9139 111.805 32.8001 111.805 32.6814C111.805 32.5627 111.85 32.4489 111.93 32.365C112.01 32.281 112.118 32.2339 112.231 32.2339ZM102.07 32.2331H102.073V32.2331H104.68L104.68 32.2331H110.216C110.328 32.2331 110.436 32.2802 110.516 32.364C110.595 32.4477 110.64 32.5613 110.64 32.6798C110.64 32.7978 110.596 32.9111 110.517 32.995C110.438 33.0788 110.331 33.1264 110.219 33.1273H102.095C102.079 32.8434 102.07 32.5569 102.07 32.2678V32.2331Z" fill="#EBF8FF"/>
<path fill-rule="evenodd" clip-rule="evenodd" d="M123.992 42.4274C121.664 44.6691 118.563 46.0369 115.158 46.0369C110.641 46.0369 106.658 43.629 104.307 39.9666C103.763 39.1194 103.306 38.2049 102.95 37.2377C102.567 36.1962 102.3 35.0935 102.168 33.9473C104 38.1548 108.038 41.0777 112.724 41.0777C116.267 41.0777 119.439 39.4074 121.568 36.7744C122.463 38.6112 123.273 40.4973 123.992 42.4274Z" fill="#B8E6FF"/>
<path fill-rule="evenodd" clip-rule="evenodd" d="M122.145 37.9922C122.287 38.2992 122.426 38.6074 122.563 38.917H121.804C121.741 38.917 121.679 38.9022 121.621 38.8735C121.564 38.8449 121.514 38.8031 121.474 38.7514C121.434 38.6996 121.406 38.6391 121.391 38.5743C121.376 38.5095 121.375 38.4421 121.388 38.3769C121.41 38.2746 121.466 38.1835 121.544 38.1189C121.623 38.0543 121.72 38.0201 121.82 38.022L122.145 37.9922ZM106.448 41.6575C106.206 41.7102 105.965 41.7609 105.723 41.8094C105.469 41.5318 105.227 41.2431 104.996 40.9441L104.996 40.944L104.994 40.9419C105.079 40.9316 105.165 40.9205 105.251 40.9089C105.802 40.8308 106.35 40.7375 106.896 40.6293C107.421 40.5231 107.966 40.3981 108.526 40.2546C108.989 40.4436 109.466 40.6022 109.955 40.7282C108.985 41.0308 108.005 41.2977 107.018 41.5285C106.826 41.5735 106.636 41.6165 106.448 41.6575Z" fill="#D1EFFF"/>
<path d="M112.52 73.3929C112.366 70.8346 111.808 68.9323 111.149 68.9356C110.49 68.9388 109.939 70.851 109.798 73.4224C107.229 73.5995 105.321 74.1735 105.327 74.836C105.334 75.4986 107.246 76.0266 109.807 76.148C109.962 78.7063 110.516 80.6086 111.175 80.6053C111.834 80.602 112.385 78.6899 112.526 76.1184C115.095 75.9413 117.003 75.3674 116.997 74.7048C116.99 74.0423 115.078 73.511 112.52 73.3929Z" fill="#F58B00"/>
<path d="M48.1408 26.1306C48.0392 24.412 47.6653 23.1328 47.2225 23.1328C46.7797 23.1328 46.4091 24.4218 46.314 26.1503C44.5855 26.2684 43.303 26.6554 43.3096 27.0982C43.3162 27.5409 44.5986 27.8984 46.3172 27.9772C46.4222 29.6991 46.7961 30.9782 47.2389 30.975C47.6817 30.9717 48.0523 29.686 48.1474 27.9575C49.8726 27.8394 51.155 27.4557 51.1517 27.0096C51.1485 26.5635 49.8628 26.2093 48.1408 26.1306Z" fill="#F58B00"/>
<path d="M16.7364 76.2736C17.5671 75.4429 17.5671 74.0961 16.7364 73.2654C15.9057 72.4347 14.5589 72.4347 13.7282 73.2654C12.8975 74.0961 12.8975 75.4429 13.7282 76.2736C14.5589 77.1043 15.9057 77.1043 16.7364 76.2736Z" fill="#D1EFFF"/>
<path d="M110.999 95.2503C111.447 94.8014 111.447 94.0736 110.999 93.6247C110.55 93.1757 109.822 93.1757 109.373 93.6247C108.924 94.0736 108.924 94.8014 109.373 95.2503C109.822 95.6993 110.55 95.6993 110.999 95.2503Z" fill="#B8E6FF"/>
<path d="M9.83979 59.6069C10.3152 59.1315 10.3152 58.3607 9.83979 57.8853C9.36437 57.4099 8.59356 57.4099 8.11815 57.8853C7.64273 58.3607 7.64273 59.1315 8.11815 59.6069C8.59356 60.0823 9.36437 60.0823 9.83979 59.6069Z" fill="#D1EFFF"/>
</svg>
