<svg width="167" height="160" viewBox="0 0 167 160" fill="none" xmlns="http://www.w3.org/2000/svg">
<circle cx="78.8768" cy="79.8729" r="78.4569" fill="#EBF8FF"/>
<path fill-rule="evenodd" clip-rule="evenodd" d="M39.275 49.1939C40.4276 44.1225 58.6832 37.1118 81.7107 33.0864C104.738 29.061 124.29 29.4626 127.094 33.8422L127.269 33.8116C142.025 43.4077 152.908 58.8726 156.178 77.5789C159.936 99.075 152.784 119.955 138.711 134.543C134.991 138.399 129.92 140.54 124.642 141.463L78.0939 149.6C72.8161 150.522 67.3194 150.229 62.5119 147.864C44.324 138.915 30.5129 121.699 26.7552 100.203C23.4852 81.497 28.4764 63.2571 39.1015 49.2242L39.275 49.1939Z" fill="#D1EFFF"/>
<path fill-rule="evenodd" clip-rule="evenodd" d="M65.6924 149.008C70.1771 150.833 75.1667 151.002 79.9746 150.162L126.523 142.025C131.8 141.102 136.872 138.961 140.592 135.105C154.665 120.517 161.817 99.6368 158.059 78.1407C154.789 59.4344 143.906 43.9695 129.15 34.3734L128.975 34.404C127.988 32.8633 124.929 31.8149 120.375 31.2783C121.371 31.7312 122.081 32.2617 122.47 32.8685L122.645 32.8379C137.401 42.434 148.284 57.8989 151.554 76.6051C155.312 98.1012 148.16 118.981 134.087 133.57C130.367 137.426 125.295 139.566 120.018 140.489L73.4696 148.626C70.8942 149.076 68.2666 149.237 65.6924 149.008Z" fill="#9EDDFF"/>
<path fill-rule="evenodd" clip-rule="evenodd" d="M142.611 61.0959C136.466 59.4293 125.228 58.805 114.067 62.995C94.2578 70.4312 54.7894 84.7664 41.4946 84.7563C38.7594 84.7543 35.8682 84.675 32.9945 84.5483C32.5208 89.6352 32.7081 94.8686 33.6302 100.143C36.8162 118.369 48.0858 133.153 63.1104 141.455C68.9137 144.661 75.7608 144.964 82.292 143.822L118.379 137.513C124.911 136.372 131.249 133.765 135.62 128.779C146.938 115.873 152.523 98.1422 149.337 79.9167C148.148 73.1103 145.83 66.7839 142.611 61.0959Z" fill="#B8E6FF"/>
<path fill-rule="evenodd" clip-rule="evenodd" d="M142.752 61.344C142.604 61.4324 142.456 61.5207 142.308 61.6088C136.812 67.2381 122.811 74.2015 105.198 73.9073C78.9479 73.4688 51.1451 73.7483 33.6052 79.9708C32.4754 86.4699 32.4297 93.2713 33.6309 100.143C36.8169 118.369 48.0865 133.153 63.1112 141.455C68.9144 144.661 75.7615 144.963 82.2927 143.822L118.38 137.513C124.911 136.372 131.25 133.764 135.621 128.779C146.938 115.872 152.524 98.142 149.338 79.9164C148.166 73.209 145.898 66.9677 142.752 61.344Z" fill="#9EDDFF"/>
<path fill-rule="evenodd" clip-rule="evenodd" d="M142.219 119.616L141.376 119.548C137.618 120.615 131.182 120.654 123.167 120.702C112.844 120.764 99.9014 120.842 86.6795 123.154C72.2356 125.679 57.3659 131.732 55.5315 136.47C57.9252 138.322 60.4595 139.989 63.1108 141.454C68.9141 144.661 75.7612 144.963 82.2924 143.821L118.38 137.513C124.911 136.371 131.25 133.764 135.621 128.779C138.108 125.942 140.318 122.873 142.219 119.616Z" fill="#F58B00"/>
<path fill-rule="evenodd" clip-rule="evenodd" d="M99.5742 133.792L130.17 128.443L121.21 98.5729L96.7367 102.851L99.5742 133.792Z" fill="#004DA5"/>
<path fill-rule="evenodd" clip-rule="evenodd" d="M90.4473 135.388L115.521 131.004L106.56 101.134L87.6097 104.447L90.4473 135.388Z" fill="#0070F2"/>
<path fill-rule="evenodd" clip-rule="evenodd" d="M98.6556 114.502C95.6034 115.035 93.348 118.143 93.6197 121.443L94.4058 132.966L107.181 130.732L104.674 119.51C104.098 116.216 101.708 113.968 98.6556 114.502Z" fill="#00144A"/>
<path fill-rule="evenodd" clip-rule="evenodd" d="M99.8698 114.434C97.4475 115.462 95.7956 118.169 96.0304 121.021L96.8164 132.543L107.18 130.732L107.18 130.732L94.4053 132.965L93.6193 121.442C93.3476 118.142 95.603 115.035 98.6551 114.501C99.0734 114.428 99.4793 114.407 99.8698 114.434Z" fill="#004DA5"/>
<path fill-rule="evenodd" clip-rule="evenodd" d="M80.0409 114.598C77.142 119.582 85.0186 129.55 82.109 136.559C75.2336 126.049 80.0798 111.063 75.7382 102.097C73.9888 98.9202 69.1837 101.242 71.1988 104.57C75.2404 111.241 73.0022 123.57 76.9961 132.149C74.512 128.502 72.8346 125.166 72.4512 121.033C72.433 118.548 68.5654 118.726 68.4604 122.393C68.6216 129.082 73.8932 134.183 78.9247 137.398L80.593 137.107L82.0014 136.861L82.2613 136.815L83.9957 136.512C87.4671 130.526 83.608 121.056 84.1102 116.908C84.9969 112.872 81.7177 112.442 80.0409 114.598Z" fill="#00A58A"/>
<path fill-rule="evenodd" clip-rule="evenodd" d="M114.582 87.3127L113.721 87.4631L113.007 83.3783L107.281 84.3794L107.995 88.4642L102.442 89.4348L101.728 85.35L96.0038 86.3507L96.7179 90.4355L91.1762 91.4042L90.4622 87.3194L84.312 88.3945L87.1801 104.801L116.735 99.6346L114.582 87.3127Z" fill="#004DA5"/>
<path fill-rule="evenodd" clip-rule="evenodd" d="M121.24 81.9382L124.108 98.3448L83.7216 105.405L80.8535 88.998L87.0037 87.9229L87.7178 92.0077L93.2594 91.039L92.5453 86.9542L98.2699 85.9535L98.9839 90.0383L104.536 89.0677L103.822 84.9829L109.549 83.9818L110.263 88.0666L115.804 87.0981L115.089 83.0133L121.24 81.9382Z" fill="#0070F2"/>
<path fill-rule="evenodd" clip-rule="evenodd" d="M109.587 100.883L106.719 84.4766L109.549 83.9818L110.263 88.0666L115.804 87.098L115.09 83.0132L121.24 81.9381L124.108 98.3448L109.587 100.883Z" fill="#004DA5"/>
<path fill-rule="evenodd" clip-rule="evenodd" d="M143.307 117.673C133.703 117.702 122.628 121.64 110.531 125.941C94.1072 131.78 75.7994 138.29 56.7272 136.599C56.3313 136.564 55.949 136.533 55.578 136.506C57.9585 138.344 60.4777 139.999 63.1125 141.455C68.9158 144.662 75.7629 144.964 82.2941 143.822L118.382 137.514C124.913 136.372 131.251 133.765 135.623 128.779C138.599 125.385 141.179 121.656 143.307 117.673Z" fill="#CC7400"/>
<ellipse cx="82.7119" cy="38.8097" rx="34.4911" ry="3.27049" transform="rotate(-9.91566 82.7119 38.8097)" fill="#9EDDFF"/>
<path fill-rule="evenodd" clip-rule="evenodd" d="M69.7902 88.189C70.1417 90.2 68.7967 92.1159 66.7849 92.4676C64.7731 92.8193 62.8578 91.4733 62.5063 89.4623C62.1547 87.4513 63.4998 85.5353 65.5116 85.1837C67.5234 84.832 69.4386 86.178 69.7902 88.189Z" fill="#D1EFFF"/>
<path fill-rule="evenodd" clip-rule="evenodd" d="M64.5246 106.757C64.7123 107.831 63.9942 108.854 62.9203 109.042C61.8464 109.23 60.8231 108.511 60.6354 107.437C60.4477 106.363 61.1664 105.34 62.2403 105.152C63.3142 104.964 64.3368 105.683 64.5246 106.757Z" fill="#D1EFFF"/>
<path fill-rule="evenodd" clip-rule="evenodd" d="M139.654 81.6611C139.834 82.6945 139.143 83.6783 138.11 83.8588C137.077 84.0394 136.093 83.3485 135.912 82.3151C135.732 81.2817 136.423 80.299 137.456 80.1183C138.489 79.9378 139.473 80.6277 139.654 81.6611Z" fill="#D1EFFF"/>
<path d="M45.1835 114.927C50.3343 127.397 61.7973 135.858 67.4561 138.376C68.3796 138.787 69.4294 138.602 70.2527 138.016C71.5139 137.118 71.3695 134.993 70.1726 134.011C65.1059 129.853 57.801 120.305 53.7534 109.913C53.0039 107.989 50.4802 107.359 49.0283 108.828L45.7674 112.126C45.0355 112.866 44.7861 113.965 45.1835 114.927Z" fill="white"/>
<path d="M48.586 102.773L45.0445 105.942C43.9451 106.925 42.2354 106.821 41.4053 105.601C38.5967 101.475 37.9892 97.6812 37.912 95.5066C37.8697 94.3155 38.6489 93.3162 39.7432 92.8441L43.8212 91.0847C46.0368 90.1288 48.5504 91.6404 48.8763 94.0314C49.0871 95.5781 49.3642 97.2655 49.7134 98.7336C50.0586 100.185 49.6976 101.778 48.586 102.773Z" fill="white"/>
<path d="M133.819 51.1741C131.056 46.1009 126.082 41.6031 120.797 38.643C119.75 38.057 118.475 38.1087 117.435 38.706L114.069 40.6393C112.164 41.7334 112.361 44.5235 114.364 45.4271C118.885 47.4674 125.166 50.7674 128.685 54.8192C129.762 56.0598 131.735 56.4327 132.961 55.3387C134.15 54.2775 134.581 52.5739 133.819 51.1741Z" fill="white"/>
<path fill-rule="evenodd" clip-rule="evenodd" d="M65.5135 129.353C62.9098 130.494 60.6669 131.688 58.955 132.874C62.1908 135.528 65.2607 137.4 67.4566 138.377C68.38 138.788 69.4298 138.603 70.2531 138.017C71.5143 137.118 71.37 134.994 70.173 134.012C68.755 132.848 67.1617 131.262 65.5135 129.353Z" fill="#D1EFFF"/>
<path d="M34.6742 10.1951C34.4101 10.5042 34.2342 10.8788 34.1651 11.2795C34.0959 11.6802 34.136 12.0921 34.2812 12.4719L37.499 21.5956C38.0305 23.1049 39.5634 23.4772 40.7463 23.0604C41.2366 22.9074 41.664 22.5995 41.9642 22.1828C42.2645 21.7661 42.4214 21.2632 42.4114 20.7496C42.3991 20.5017 42.3494 20.257 42.264 20.0239L39.0462 10.9002C38.9133 10.497 38.6738 10.1372 38.3532 9.859C38.0325 9.58077 37.6427 9.3944 37.2248 9.31961C36.7603 9.23625 36.2822 9.27291 35.8358 9.42612C35.3894 9.57933 34.9896 9.84402 34.6742 10.1951Z" fill="#A9B4BE"/>
<path d="M3.18295 52.2809C3.13649 52.5682 3.15044 52.862 3.2239 53.1436C3.29736 53.4251 3.42872 53.6883 3.60959 53.9163C3.79046 54.1442 4.01687 54.332 4.27436 54.4675C4.53186 54.603 4.81478 54.6834 5.10507 54.7034L14.4668 55.7819C14.8036 55.8196 15.1444 55.7897 15.4695 55.6942C15.7946 55.5986 16.0974 55.4393 16.3602 55.2254C16.623 55.0115 16.8406 54.7474 17.0002 54.4485C17.1598 54.1496 17.2583 53.8219 17.2899 53.4846C17.3068 53.3458 17.3123 53.2059 17.3063 53.0663C17.2917 52.55 17.0842 52.0579 16.7247 51.687C16.3653 51.3161 15.8799 51.0934 15.3644 51.0627L6.00656 49.987C5.66996 49.9488 5.32912 49.9781 5.00399 50.0732C4.67886 50.1683 4.37597 50.3273 4.11304 50.5409C3.85011 50.7545 3.63242 51.0184 3.47272 51.3172C3.31301 51.616 3.2145 51.9436 3.18295 52.2809Z" fill="#A9B4BE"/>
<path d="M11.3533 27.1391C11.386 27.4553 11.4829 27.7615 11.6379 28.0391C11.793 28.3166 12.003 28.5596 12.2552 28.7531L23.4796 37.5508C23.9852 37.9425 24.6226 38.1236 25.2587 38.0562C25.8947 37.9888 26.48 37.6782 26.8923 37.1892C27.2729 36.7341 27.4685 36.1526 27.4404 35.56C27.4236 35.2184 27.3334 34.8845 27.176 34.581C27.0185 34.2775 26.7975 34.0114 26.5279 33.801L15.3036 25.0034C14.7955 24.6091 14.1543 24.4271 13.5148 24.4957C12.8753 24.5643 12.2873 24.8781 11.8744 25.3713C11.673 25.6156 11.523 25.8982 11.4335 26.202C11.3439 26.5057 11.3167 26.8245 11.3533 27.1391Z" fill="#A9B4BE"/>
</svg>
