<svg width="160" height="161" viewBox="0 0 160 161" fill="none" xmlns="http://www.w3.org/2000/svg">
<rect y="46" width="160" height="69" rx="12" fill="#222F3B"/>
<path d="M94.2031 71.5003C94.0829 71.33 93.8475 71.295 93.6771 71.4202L88.1964 74.8225C88.0912 74.9026 87.9043 74.8064 87.8693 74.9266C87.4166 74.4877 87.6308 74.8375 87.5281 74.7213C87.5281 74.7013 87.3555 74.9467 87.3605 74.9266C87.3705 74.8565 87.3756 74.7814 87.3806 74.7062C87.3806 74.6311 87.3856 74.5509 87.3906 74.4658C87.3906 74.4458 87.3906 74.4207 87.3906 74.4007C87.3906 74.3355 87.3906 74.2704 87.3906 74.2053V74.1352C87.3906 74.0651 87.3906 73.9899 87.3906 73.9148C87.3906 73.8947 87.3906 73.8797 87.3906 73.8597C87.3906 73.7645 87.3856 73.6693 87.3756 73.5691C87.2453 71.2348 86.3386 67.7735 82.9674 66.406C81.8404 65.9501 80.6732 65.6496 79.4911 65.3991C79.3107 65.359 79.1254 65.334 78.94 65.319C78.8048 65.1787 78.6645 65.0435 78.5293 64.9082C78.384 64.7629 78.2337 64.6227 78.0835 64.4824C77.0165 63.4706 75.8944 62.5138 74.7974 61.5621C72.7637 59.8038 70.6999 57.695 68.0099 57.0037C66.5523 56.628 65.1096 56.107 63.8723 55.2505C63.4065 54.9299 62.8905 54.6494 62.3295 54.5642C61.1072 54.3839 59.9201 53.9731 58.8481 53.362C58.0266 52.8911 57.2902 52.1998 56.4437 51.754C56.3836 51.724 56.3234 51.6939 56.2633 51.6639C56.2533 51.6639 56.2483 51.6589 56.2383 51.6538C56.1832 51.6288 56.1331 51.6038 56.078 51.5837C56.053 51.5737 56.0279 51.5637 56.0079 51.5537C55.9678 51.5386 55.9277 51.5236 55.8826 51.5086C55.8125 51.4835 55.7424 51.4635 55.6773 51.4435C55.5771 51.4184 55.4619 51.3984 55.3817 51.4635C55.2365 51.5737 55.3316 51.8041 55.4368 51.9544C55.8275 52.5154 56.2183 53.0765 56.609 53.6375C56.6691 53.7226 56.7342 53.8128 56.7943 53.903C56.8544 53.9931 56.9195 54.0833 56.9847 54.1735C57.0498 54.2636 57.1149 54.3588 57.18 54.454C57.2451 54.5492 57.3153 54.6393 57.3804 54.7345C57.4455 54.8297 57.5156 54.9249 57.5808 55.02C57.6158 55.0701 57.6459 55.1152 57.6809 55.1653C57.7461 55.2605 57.8162 55.3557 57.8813 55.4508C57.9164 55.4959 57.9464 55.546 57.9815 55.5911C58.0817 55.7313 58.1819 55.8716 58.277 56.0068C58.3422 56.097 58.4073 56.1872 58.4724 56.2773C58.5375 56.3675 58.5976 56.4527 58.6628 56.5378C58.818 56.7532 58.9633 56.9536 59.1036 57.1439C59.1837 57.2541 59.2639 57.3643 59.339 57.4645C59.6145 57.8302 59.8249 58.1057 59.9451 58.2359C60.2891 58.6103 58.5429 58.5978 58.1869 58.5816C57.736 58.5615 57.3053 58.2961 56.9396 58.0506C56.5789 57.8052 56.2433 57.5347 55.8776 57.2992C55.5971 57.1189 55.3016 56.9636 54.981 56.8734C54.7205 56.7983 54.455 56.7733 54.1895 56.7282C52.1558 56.3976 50.623 55.1803 48.9248 54.1334C48.7746 54.0382 48.6293 53.9581 48.4941 53.8829C48.4941 53.8829 48.4941 53.8829 48.489 53.8829C48.449 53.8629 48.4089 53.8429 48.3688 53.8228C48.3588 53.8228 48.3538 53.8128 48.3438 53.8078C48.3137 53.7928 48.2787 53.7777 48.2486 53.7627C48.2386 53.7577 48.2286 53.7527 48.2185 53.7477C48.1885 53.7327 48.1634 53.7226 48.1384 53.7126C48.1284 53.7126 48.1184 53.7026 48.1083 53.7026C48.0833 53.6926 48.0582 53.6826 48.0332 53.6776C48.0232 53.6776 48.0132 53.6726 48.0031 53.6675C47.9781 53.6575 47.9531 53.6525 47.933 53.6475C47.928 53.6475 47.918 53.6475 47.913 53.6475C47.8579 53.6375 47.8078 53.6325 47.7627 53.6425C47.7577 53.6425 47.7527 53.6425 47.7477 53.6425C47.7327 53.6425 47.7176 53.6525 47.7076 53.6575C47.7026 53.6575 47.6976 53.6625 47.6876 53.6675C47.6775 53.6726 47.6675 53.6826 47.6575 53.6876C47.6525 53.6926 47.6475 53.6976 47.6425 53.7026C47.6375 53.7126 47.6275 53.7226 47.6224 53.7327C47.5924 53.7928 47.5874 53.8679 47.6024 53.933C47.6024 53.9531 47.6124 53.9731 47.6174 53.9881C47.6375 54.0432 47.6725 54.0933 47.7076 54.1384C47.7427 54.1885 47.7777 54.2336 47.8128 54.2837C47.8378 54.3238 47.8629 54.3588 47.8929 54.3939C47.923 54.439 47.9531 54.479 47.9831 54.5241C48.0182 54.5742 48.0482 54.6193 48.0833 54.6694C48.1184 54.7245 48.1584 54.7746 48.1935 54.8297C48.2336 54.8898 48.2736 54.9449 48.3137 55.005C48.3588 55.0651 48.3989 55.1302 48.444 55.1903C48.489 55.2555 48.5341 55.3206 48.5792 55.3857C48.6293 55.4558 48.6744 55.521 48.7245 55.5911C48.7746 55.6612 48.8247 55.7364 48.8748 55.8065C48.9248 55.8816 48.9799 55.9568 49.03 56.0269C49.0851 56.102 49.1352 56.1772 49.1903 56.2523C49.2454 56.3274 49.3005 56.4076 49.3556 56.4877C49.4107 56.5679 49.4658 56.648 49.5209 56.7232C49.576 56.8033 49.6311 56.8835 49.6913 56.9636C49.7464 57.0438 49.8065 57.1239 49.8616 57.204C49.9167 57.2842 49.9768 57.3643 50.0319 57.4445C50.087 57.5246 50.1471 57.6048 50.2022 57.6849C50.2573 57.7651 50.3124 57.8452 50.3725 57.9204C50.4276 58.0005 50.4827 58.0757 50.5378 58.1558C50.5929 58.2309 50.648 58.3111 50.7031 58.3862C50.7582 58.4614 50.8083 58.5365 50.8634 58.6116C50.9135 58.6818 50.9686 58.7569 51.0187 58.827C51.0688 58.8972 51.1189 58.9673 51.174 59.0374C51.2241 59.1025 51.2692 59.1727 51.3192 59.2378C51.3643 59.3029 51.4144 59.368 51.4595 59.4281C51.5046 59.4882 51.5497 59.5484 51.5948 59.6085C51.6348 59.6636 51.6799 59.7187 51.72 59.7738C51.7601 59.8239 51.7951 59.874 51.8352 59.9291C51.8703 59.9741 51.9053 60.0192 51.9404 60.0693C51.9654 60.0994 51.9855 60.1294 52.0055 60.1545C52.1057 60.2797 52.1858 60.3749 52.2409 60.44C52.251 60.45 52.256 60.46 52.266 60.4701C52.251 60.4701 52.2409 60.4701 52.2259 60.465C52.1007 60.445 51.9805 60.43 51.8552 60.4049C51.8502 60.4049 51.8402 60.4049 51.8352 60.4049C51.5797 60.3599 51.3243 60.3048 51.0688 60.2396C51.0588 60.2396 51.0538 60.2396 51.0437 60.2346C50.9185 60.1996 50.7983 60.1645 50.6731 60.1244C50.668 60.1244 50.658 60.1244 50.653 60.1194C50.4026 60.0393 50.1521 59.9441 49.9117 59.8289C49.7564 59.7587 49.6061 59.6786 49.4558 59.5934C48.8146 59.2228 48.2636 58.7268 47.7427 58.2009C47.2367 57.695 46.7158 57.2391 46.1798 56.7582C45.2431 55.9167 44.3013 55.0801 43.3596 54.2436C42.3578 53.352 41.3559 52.4653 40.3491 51.5837C39.8281 51.1279 39.3021 50.6821 38.7862 50.2212C38.2803 49.7704 37.7593 49.3346 37.1933 48.9689C37.1231 48.9238 37.058 48.8838 36.9879 48.8387C36.8126 48.7335 36.6272 48.6333 36.4519 48.5231C36.3968 48.488 36.3467 48.4479 36.2916 48.4079C36.2816 48.3728 36.2716 48.3428 36.2616 48.3077C36.1764 48.2376 36.0862 48.1724 35.9911 48.1274C35.966 48.1123 35.941 48.1073 35.9209 48.1023H35.9159C35.8758 48.0973 35.8458 48.1173 35.8358 48.1624C35.8107 48.1775 35.7957 48.2075 35.7957 48.2626C35.7957 48.3177 35.8207 48.4179 35.8608 48.5381C36.0812 49.1593 36.4018 49.7353 36.7074 50.3164C36.7975 50.4867 37.028 50.9075 37.1782 51.183C37.1883 51.198 37.1883 51.218 37.1883 51.2331C37.1632 51.2481 37.1332 51.2531 37.1081 51.2331C36.6873 50.9626 35.8909 50.4767 35.7707 50.632C35.7606 50.642 35.7606 50.652 35.7556 50.667C35.7456 50.667 35.7406 50.677 35.7356 50.6821C35.7055 50.7221 35.7206 50.8023 35.7907 50.9375C35.9961 51.3182 36.2966 51.7891 36.5621 52.1948C36.5771 52.2199 36.6923 52.3852 36.8176 52.5705C36.8577 52.6256 36.8577 52.6857 36.8326 52.7358C36.7825 52.7909 36.7024 52.816 36.6222 52.7709C35.5903 52.2199 33.6167 51.178 33.6217 51.4935C33.5916 51.5036 33.5816 51.5286 33.5916 51.5637C33.6768 51.9243 36.4519 55.2454 40.0135 58.6267C40.0986 58.7068 40.1888 58.792 40.2739 58.8721C40.284 58.8821 40.289 58.8871 40.299 58.8972C40.3841 58.9773 40.4693 59.0575 40.5545 59.1376C40.5645 59.1476 40.5695 59.1526 40.5795 59.1627C40.6647 59.2428 40.7548 59.3229 40.845 59.4081C40.845 59.4081 40.855 59.4181 40.86 59.4181C41.3209 59.8439 41.7967 60.2647 42.2726 60.6804C42.2776 60.6855 42.2876 60.6905 42.2926 60.6955C42.3728 60.7656 42.458 60.8407 42.5431 60.9109C42.5631 60.9259 42.5832 60.9459 42.6032 60.961C42.6834 61.0261 42.7585 61.0962 42.8387 61.1613C42.8637 61.1814 42.8887 61.2014 42.9088 61.2214C42.9839 61.2866 43.0641 61.3517 43.1392 61.4118C43.1642 61.4318 43.1893 61.4569 43.2143 61.4769C43.2895 61.542 43.3696 61.6021 43.4448 61.6673C43.4698 61.6873 43.4898 61.7073 43.5149 61.7224C43.595 61.7875 43.6752 61.8526 43.7553 61.9177C43.7704 61.9277 43.7804 61.9378 43.7954 61.9478C44.1661 62.2433 44.5318 62.5238 44.9024 62.8043C44.9275 62.8194 44.9475 62.8394 44.9726 62.8544C45.0477 62.9095 45.1229 62.9646 45.193 63.0197C45.223 63.0398 45.2531 63.0648 45.2831 63.0849C45.3533 63.135 45.4234 63.185 45.4985 63.2401C45.5336 63.2652 45.5637 63.2902 45.5987 63.3103C45.6689 63.3604 45.739 63.4055 45.8091 63.4555C45.8442 63.4806 45.8792 63.5006 45.9093 63.5257C45.9794 63.5758 46.0496 63.6208 46.1197 63.6709C46.1497 63.691 46.1848 63.716 46.2149 63.7361C46.285 63.7862 46.3601 63.8312 46.4303 63.8813C46.4553 63.8964 46.4803 63.9164 46.5054 63.9314C46.7809 64.1118 47.0514 64.2821 47.3219 64.4424C47.397 64.4874 47.4672 64.5275 47.5423 64.5726C47.5724 64.5876 47.6024 64.6077 47.6275 64.6227L47.8278 64.7379C47.8629 64.7579 47.898 64.778 47.933 64.798C47.9981 64.8331 48.0633 64.8681 48.1234 64.9032C48.1584 64.9232 48.1935 64.9433 48.2336 64.9633C48.2987 64.9984 48.3588 65.0284 48.4239 65.0585C48.459 65.0785 48.4941 65.0936 48.5341 65.1136C48.5992 65.1436 48.6594 65.1737 48.7195 65.2038C48.7545 65.2188 48.7896 65.2388 48.8247 65.2538C48.8297 65.2538 48.8347 65.2589 48.8397 65.2639C48.8397 65.2639 48.8447 65.2639 48.8497 65.2689C48.9048 65.2939 48.9599 65.319 49.015 65.344C49.0451 65.359 49.0751 65.3691 49.1052 65.3841C49.1252 65.3941 49.1452 65.4041 49.1653 65.4091C49.1953 65.4192 49.2204 65.4342 49.2454 65.4442C49.2655 65.4542 49.2855 65.4642 49.3055 65.4692H49.3106C49.4007 65.5093 49.4909 65.5444 49.581 65.5794C50.3631 66.2216 50.8144 68.8178 51.2291 70.3382C51.2341 70.3582 51.2391 70.3783 51.2441 70.3983C51.3343 70.6989 51.4846 71.0094 51.6499 71.2699C51.7701 71.4603 51.9204 71.6306 52.1057 71.7608C52.2409 71.851 52.5515 71.9562 52.4864 72.1766C52.4864 72.1816 52.4814 72.1866 52.4764 72.1966C52.4764 72.1966 52.4764 72.1966 52.4714 72.2016C52.4563 72.2167 52.4413 72.2317 52.4213 72.2417C52.4062 72.2517 52.3862 72.2617 52.3662 72.2718C52.3411 72.2818 52.3161 72.2918 52.286 72.3018C52.286 72.3018 52.286 72.3018 52.281 72.3018C52.256 72.3118 52.2259 72.3168 52.1959 72.3218C52.1909 72.3218 52.1858 72.3218 52.1808 72.3218C52.1508 72.3218 52.1207 72.3269 52.0907 72.3319C52.0806 72.3319 52.0756 72.3319 52.0656 72.3319C51.9504 72.3319 51.8001 72.3068 51.745 72.432C51.725 72.4521 51.705 72.4771 51.6999 72.5172C51.6749 72.6074 51.715 72.7076 51.755 72.7927C52.0957 73.5341 52.7769 74.1101 53.5634 74.3255C53.6335 74.3456 53.7237 74.3957 53.7137 74.4608C53.6986 74.4708 53.6786 74.4808 53.6585 74.4858C53.353 74.601 53.0324 74.6762 52.7118 74.7213C52.5515 74.7463 52.3361 74.7213 52.1758 74.7313C52.1107 74.7313 51.9554 74.7513 51.9654 74.8214C51.9153 74.8465 51.9053 74.8916 52.0155 74.9617C52.5866 75.3374 53.1777 75.683 53.7838 75.9936C54.3148 76.2641 54.8257 76.5596 55.4118 76.6949C55.517 76.7199 55.6222 76.74 55.7173 76.78C55.7424 76.7901 55.7674 76.8051 55.7774 76.8301C55.7774 76.8351 55.7774 76.8452 55.7774 76.8502C55.7624 76.8602 55.7424 76.8702 55.7223 76.8802C55.4218 76.9704 55.1112 77.0105 54.8007 76.9954C54.6904 76.9904 54.44 76.9253 54.3949 77.0706C54.3799 77.0856 54.3648 77.1006 54.3598 77.1257C54.3498 77.1607 54.3498 77.2108 54.3648 77.2659C54.3799 77.316 54.3999 77.3661 54.43 77.4262C54.8006 78.1426 55.6222 78.6535 56.3936 78.8138C56.609 78.8589 56.8344 78.8789 57.0448 78.944C57.185 78.9841 57.3453 79.0843 57.3303 79.2295C57.3303 79.2596 57.3153 79.2897 57.3002 79.3147C57.2952 79.3247 57.2852 79.3347 57.2802 79.3398C57.2001 79.4399 56.9296 79.5201 56.7041 79.5702C56.644 79.5852 56.604 79.6203 56.5839 79.6654C56.5188 79.7355 56.5138 79.8557 56.599 79.9258C56.649 79.9659 56.6891 80.001 56.7092 80.016C57.1049 80.3566 57.5557 80.6472 58.0366 80.8525C58.4774 81.0479 58.9583 81.108 59.4141 81.2783C60.0303 81.5087 60.6063 81.8193 61.2024 82.0948C61.2876 82.1649 61.6282 82.4555 62.079 82.8512C62.1842 82.9414 62.2944 83.0416 62.4046 83.1417C62.5198 83.2419 62.6351 83.3521 62.7553 83.4573C62.8154 83.5124 62.8755 83.5675 62.9356 83.6226C63.0809 83.7529 63.2211 83.8881 63.3664 84.0184C63.677 84.3089 63.9825 84.6044 64.2731 84.915C64.238 84.92 64.2029 84.93 64.1679 84.93C62.6902 85.0853 60.8969 85.0452 59.7397 86.1222C59.4893 86.3526 59.2789 86.6332 59.0384 86.8686C58.8932 87.0089 58.7379 87.1391 58.5525 87.2293C58.4373 87.2894 58.3121 87.3294 58.1869 87.3645C57.9765 87.4246 57.7611 87.4597 57.5507 87.5298C57.3103 87.605 57.0899 87.7202 56.8695 87.8454C56.7593 87.9105 56.6541 87.9756 56.5439 88.0408C56.4387 88.1059 56.3285 88.176 56.2233 88.2411C54.6754 89.1778 52.8471 89.6487 51.0688 89.8841C50.122 90.0094 48.8948 89.6437 48.0933 90.2648C47.6575 90.6005 47.4271 91.1364 47.2417 91.6574C46.1798 94.6479 46.0746 97.7185 46.0295 100.849C45.9794 104.546 45.9894 108.318 46.1047 111.98C46.1648 113.012 46.1898 114.039 46.1848 115.06H53.7587C53.7587 114.885 53.7637 114.715 53.7688 114.539C53.7888 113.397 53.8088 112.215 53.8138 111.058C53.8239 109.761 53.8589 108.453 53.889 107.186C53.9591 104.406 54.0392 101.526 53.8389 98.7003C53.7537 97.4731 53.6335 96.1707 54.43 95.1388C54.5352 95.0036 54.6504 94.8733 54.8057 94.7982C54.8908 94.7531 54.986 94.728 55.0812 94.708C55.3316 94.6479 55.5921 94.6078 55.8476 94.5828C56.3385 94.5427 56.8344 94.5678 57.3203 94.4876C58.1418 94.3524 58.7479 93.9065 59.339 93.3505C60.0152 92.7194 60.6214 92.0131 61.2475 91.3318C61.8937 90.6305 62.6501 90.0344 63.4766 89.5686C63.8222 89.3732 64.1879 89.1979 64.5586 89.0526C66.2665 88.3816 68.5575 88.3967 70.3643 88.6769C72.1707 88.9679 72.8883 89.1143 74.6471 88.9073C75.8193 88.7771 76.9564 88.4215 78.0634 88.0257C78.8048 87.7602 79.5462 87.4747 80.3276 87.3294C80.4178 87.3144 80.5079 87.2994 80.6031 87.2844C80.6933 87.2693 80.7784 87.2593 80.8686 87.2543C80.8836 87.2543 80.8936 87.2543 80.9087 87.2543C80.9938 87.2443 81.079 87.2393 81.1641 87.2343C81.1792 87.2343 81.1942 87.2343 81.2092 87.2343C81.2944 87.2293 81.3795 87.2242 81.4647 87.2192C81.4797 87.2192 81.4947 87.2192 81.5098 87.2192C81.5999 87.2192 81.6851 87.2142 81.7753 87.2092H81.8003C82.1059 87.1992 82.4064 87.1992 82.712 87.1942L85.7275 91.9329C85.9279 92.2535 86.3587 92.519 86.7093 92.4789L101.286 81.5188L94.1931 71.4903L94.2031 71.5003ZM71.5214 85.977C71.5464 86.002 71.5715 86.0321 71.5965 86.0571C71.7067 86.1773 71.8169 86.3076 71.9171 86.4378C71.0155 86.2775 69.8684 86.0521 69.2472 85.9319C69.0969 85.8968 68.9517 85.8718 68.8064 85.8417H68.8014C67.6042 85.6263 66.7426 85.6363 66.2317 85.6413C66.1415 85.5462 66.0313 85.436 65.9161 85.3157C66.1716 85.1454 66.4621 84.9451 66.7777 84.7397L67.7144 83.7378C68.1502 83.9532 68.7112 84.2438 69.2773 84.5493C69.3123 84.5694 69.3524 84.5894 69.3875 84.6094C70.2741 85.0953 71.1457 85.6163 71.5114 85.977H71.5214ZM65.4452 83.3922C65.4452 83.3922 65.4853 83.3972 65.5053 83.4022C65.841 83.4623 66.1916 83.5224 66.5573 83.5725C66.6324 83.5826 66.7075 83.5926 66.7827 83.6026C66.8478 83.6126 66.9129 83.6176 66.9831 83.6276C67.1283 83.6427 67.2736 83.6577 67.4189 83.6727L66.1215 84.2438L65.5154 84.5443C65.5154 84.5443 65.5053 84.5443 65.5003 84.5443C65.4202 84.5794 65.34 84.6145 65.2649 84.6495C64.9293 84.3039 64.5536 83.9282 64.1779 83.5475C63.9825 83.3521 63.7922 83.1568 63.6018 82.9614C64.1579 83.1217 64.769 83.267 65.4452 83.3922ZM76.2351 86.4078C75.7291 86.5079 75.2182 86.5731 74.7022 86.5981C74.5219 86.6081 74.3366 86.6131 74.1562 86.6181H74.0811C73.9559 86.6181 73.8306 86.6181 73.7054 86.6131C73.6253 86.4077 73.5151 86.2124 73.3748 86.0371C73.1594 85.7766 72.8839 85.6213 72.5884 85.466C72.4531 85.3859 72.2978 85.2907 72.1275 85.1855C72.0724 85.1504 72.0123 85.1154 71.9522 85.0803C71.3411 84.7146 70.5646 84.2488 69.8082 83.798C70.2541 83.798 70.7099 83.798 71.1858 83.7779C71.3461 83.7729 71.5064 83.7629 71.6566 83.7529C71.6967 83.7529 71.7368 83.7479 71.7769 83.7429C71.9121 83.7328 72.0424 83.7278 72.1676 83.7128C72.1876 83.7128 72.2077 83.7128 72.2277 83.7128C72.378 83.6978 72.5232 83.6877 72.6635 83.6677C72.6885 83.6677 72.7086 83.6677 72.7336 83.6627C72.8589 83.6477 72.9841 83.6326 73.1093 83.6176C73.1243 83.6176 73.1394 83.6176 73.1594 83.6126C73.4399 83.5725 73.7054 83.5275 73.9559 83.4774C73.9659 83.4774 73.9709 83.4774 73.9759 83.4774C74.2314 83.4273 74.4718 83.3672 74.7022 83.307C74.7022 83.302 74.7022 83.292 74.7073 83.287C74.7073 83.292 74.7073 83.297 74.7073 83.302C75.8494 82.9965 76.6358 82.5757 77.1818 82.1098C77.4723 81.8644 77.7278 81.5739 77.9382 81.2583C77.9382 81.2583 77.9382 81.2583 77.9432 81.2533C78.0684 81.0679 78.1786 80.8776 78.2688 80.6772C78.5143 80.1412 78.4742 79.5 78.8649 79.0392C79.0152 78.8589 79.2406 78.6735 79.446 78.5333C79.446 78.5333 79.446 78.5333 79.451 78.5333C79.5111 78.4882 79.5762 78.4481 79.6413 78.403C79.6463 78.403 79.6513 78.393 79.6614 78.388C80.6983 77.6667 80.8604 78.4331 82.1778 78.403C82.3381 78.403 82.5517 78.363 82.712 78.388C82.8222 78.408 83.0592 78.4536 83.1744 78.4686C83.2896 78.4836 83.4545 78.5333 83.4595 78.5333C83.69 78.5633 83.8209 78.383 84.0464 78.388L84.4553 78.4686L84.8026 78.5844C84.6523 78.5743 85.0964 78.9059 84.9711 79.001L79.8066 81.5381C79.5562 81.7235 79.4961 82.0741 79.6614 82.3346L81.079 84.6044L81.7753 85.6964C80.9187 85.6964 80.0621 85.7115 79.2055 85.8016C79.0753 85.8167 78.945 85.8317 78.8148 85.8517C78.8048 85.8517 78.7898 85.8517 78.7797 85.8567C77.9232 85.992 77.0966 86.2324 76.2501 86.4128H76.2451L76.2351 86.4078Z" fill="#101619"/>
<path d="M102.87 77.7137C102.193 77.6235 101.497 77.6135 100.816 77.6135C99.5336 77.6135 98.2512 77.6135 96.9739 77.7487C95.6965 77.884 94.4743 78.2647 93.2169 78.5252C91.609 78.8508 89.976 78.8558 88.343 78.6754C87.1708 78.4801 85.2824 78.1094 84.3456 77.924C84.1553 77.884 83.9699 77.8439 83.7896 77.8138H83.7846C80.6939 77.2528 79.3615 77.879 79.9776 77.2378C80.3282 77.0024 80.754 76.7118 81.2149 76.4063L82.8078 74.7031L80.3733 75.7751L79.6069 76.1608C79.6069 76.1608 79.5969 76.1608 79.5919 76.1608C79.2162 76.3311 78.8355 76.4914 78.4298 76.5766C78.2594 76.6066 78.0841 76.6367 77.9088 76.6567C76.0303 76.8521 73.7562 76.802 72.2835 78.1745C71.7775 78.6454 71.3968 79.2715 70.7807 79.5821C70.385 79.7825 69.9341 79.8275 69.5083 79.9628C68.9022 80.1582 68.3713 80.5338 67.8253 80.8645C65.8566 82.0566 63.5374 82.6527 61.2782 82.9483C60.076 83.1036 58.5131 82.6427 57.4963 83.4342C56.9452 83.865 56.6497 84.5412 56.4143 85.1974C55.0618 88.9994 54.9265 92.8966 54.8764 96.8739C54.8113 101.573 54.8263 106.361 54.9766 111.01C55.0518 112.322 55.0818 113.625 55.0768 114.922H64.6945C64.6945 114.702 64.6995 114.481 64.7045 114.261C64.7296 112.808 64.7546 111.31 64.7646 109.838C64.7746 108.19 64.8197 106.532 64.8598 104.924C64.95 101.392 65.0501 97.7355 64.7947 94.1439C64.6845 92.586 64.5292 90.933 65.5461 89.6206C65.6763 89.4502 65.8266 89.2849 66.0219 89.1898C66.1321 89.1347 66.2524 89.1046 66.3676 89.0746C66.6882 88.9994 67.0138 88.9443 67.3394 88.9193C67.9605 88.8642 68.5917 88.8992 69.2078 88.799C70.2497 88.6237 71.0211 88.0577 71.7725 87.3564C72.6291 86.5549 73.4005 85.6583 74.197 84.7967C75.0135 83.905 75.9752 83.1487 77.0272 82.5576C77.468 82.3071 77.9288 82.0917 78.3997 81.9014C79.5468 81.4455 80.7691 81.18 82.0013 81.1099C83.2336 81.0398 84.526 81.2301 85.7783 81.4305C87.1909 81.6559 88.6235 81.8413 90.0611 81.8062C90.4469 81.7962 90.8326 81.7711 91.2183 81.731C92.706 81.5607 94.1487 81.1149 95.5613 80.609C96.503 80.2734 97.4447 79.9077 98.4365 79.7274C99.5386 79.527 100.676 79.5621 101.798 79.532C102.073 79.527 102.354 79.512 102.624 79.4468C103.416 79.2515 104.022 78.6153 104.778 78.3098C104.192 77.9792 103.546 77.8088 102.88 77.7187L102.87 77.7137Z" fill="#C35500"/>
<path d="M58.6039 114.781C58.123 113.984 57.7874 113.103 57.5019 112.226C57.1162 111.044 56.8707 109.807 56.6603 108.579C56.4399 107.267 56.2896 105.949 56.1794 104.622C55.964 102.027 55.8789 99.4074 55.8689 96.8027C55.8538 94.3031 55.7186 91.4127 57.8275 89.6445C58.2082 89.3239 58.674 89.0534 59.1749 89.0785C59.6007 89.1035 59.9864 89.3439 60.4122 89.384C61.1436 89.4491 61.8549 88.7979 61.8549 88.0666C61.8549 87.4805 61.4642 86.9395 61.5092 86.3534C61.5393 85.9327 61.7948 85.552 62.1204 85.2865C63.6832 83.9841 66.0376 83.8388 67.9511 83.4531C69.7394 83.0975 71.4876 82.6717 73.0555 81.6949C74.423 80.8433 75.4699 79.3355 77.158 79.0751C77.9695 78.9498 78.781 79.2003 79.5424 79.4958C80.0784 79.7012 80.97 79.9817 81.521 80.122C81.9518 80.2322 82.3826 80.3324 82.8184 80.4175C83.7702 80.6079 84.7319 80.7081 85.6987 80.698C86.5302 80.688 87.3267 80.5327 88.1081 80.2522C89.2102 79.8565 90.222 79.2654 91.284 78.7745C90.3122 78.8296 89.3304 78.7895 88.3586 78.6793C87.1864 78.484 85.298 78.1133 84.3613 77.928C84.1709 77.8879 83.9856 77.8478 83.8052 77.8178H83.8002C80.7095 77.2567 79.3771 77.8829 79.9932 77.2417C80.3439 77.0063 80.7696 76.7157 81.2305 76.4102L82.8234 74.707L80.389 75.779L79.6225 76.1647C79.6225 76.1647 79.6125 76.1647 79.6075 76.1647C79.2318 76.335 78.8511 76.4953 78.4454 76.5805C78.2751 76.6105 78.0997 76.6406 77.9244 76.6606C76.046 76.856 73.7718 76.8059 72.2991 78.1784C71.7931 78.6493 71.4124 79.2754 70.7963 79.586C70.4006 79.7864 69.9498 79.8315 69.524 79.9667C68.9179 80.1621 68.3869 80.5378 67.8409 80.8684C65.8723 82.0606 63.553 82.6566 61.2938 82.9522C60.0916 83.1075 58.5288 82.6466 57.5119 83.4381C56.9609 83.8689 56.6653 84.5451 56.4299 85.2013C55.0774 89.0033 54.9422 92.9005 54.8921 96.8778C54.8269 101.576 54.842 106.365 54.9923 111.014C55.0674 112.326 55.0974 113.629 55.0924 114.926H58.7091C58.679 114.881 58.649 114.836 58.6239 114.791L58.6039 114.781Z" fill="#8D2A00"/>
<path d="M102.87 77.7135C102.194 77.6233 101.498 77.6133 100.817 77.6133C99.5342 77.6133 98.2518 77.6133 96.9745 77.7485C96.6389 77.7836 96.3083 77.8387 95.9727 77.8988C96.2031 77.9239 96.4385 77.9539 96.6639 77.994C97.5806 78.1593 98.347 78.6201 98.7077 79.5018C98.7277 79.5569 98.7528 79.612 98.7678 79.6671C99.7596 79.5268 100.776 79.5569 101.778 79.5268C102.054 79.5218 102.334 79.5068 102.605 79.4416C103.396 79.2463 104.002 78.6101 104.759 78.3046C104.173 77.9739 103.527 77.8036 102.86 77.7135H102.87Z" fill="#8D2A00"/>
<path d="M97.9609 73.0607L106.442 86.1047L106.532 86.245L125.051 72.3244L116.039 59.5859L109.933 64.1844L97.9609 73.0557V73.0607Z" fill="#D5DADD"/>
<path d="M124.225 71.6385L116.286 70.807C116.681 69.1189 117.032 67.3857 117.132 65.6575C117.222 64.1848 117.077 62.7071 117.057 61.2344C116.957 68.5128 114.192 74.2834 113.235 74.7292C110.34 76.0867 97.957 73.0661 97.957 73.0661C98.0472 73.1112 98.1374 73.1563 98.2275 73.2014C99.1242 73.6522 100.046 74.058 100.978 74.4336C103.071 75.2802 105.255 75.9865 107.495 76.3171C107.795 76.3622 108.096 76.3973 108.396 76.4273L105.962 81.9224C105.421 83.1447 105.591 84.5623 106.408 85.6192L109.443 76.4924C110.325 76.5075 111.201 76.4223 112.048 76.1769C112.829 75.9514 113.571 75.5908 114.192 75.0648C115.249 74.1682 115.765 72.8207 116.12 71.4932L124.23 71.6435L124.225 71.6385Z" fill="#2A4259"/>
<path d="M109.804 69.842C108.386 68.6899 105.931 67.0469 105.931 67.0469L105.335 67.653L105.18 67.4426L105.165 67.4226C104.975 67.4075 104.784 67.4626 104.624 67.5829L97.9117 72.6372C97.5962 72.8776 97.516 73.3184 97.7264 73.654L99.3594 76.2237L100.476 77.977L100.512 78.0321L105.295 85.5559C105.551 85.9617 106.097 86.2973 106.538 86.2472L98.2373 73.1932C98.1472 73.1481 98.057 73.103 97.9668 73.0579L99.0088 72.4117L105.881 68.1539C106.327 68.4344 106.778 68.755 106.938 68.8602C107.299 69.0906 107.61 69.3862 107.91 69.6867C108.055 69.832 108.201 69.9823 108.351 70.1225C108.531 70.2979 108.712 70.4732 108.912 70.6235C109.057 70.7337 109.228 70.8539 109.413 70.8689C109.543 70.8789 109.643 70.8088 109.698 70.6936C109.774 70.5383 109.794 70.353 109.799 70.1826C109.799 70.0724 109.799 69.9572 109.799 69.847L109.804 69.842Z" fill="#2A4259"/>
<path d="M108.502 65.2655L116.041 59.5901C115.886 59.3747 115.585 59.3246 115.375 59.4849L108.101 64.9599C107.966 65.0601 107.876 65.2004 107.836 65.3557C107.851 65.3707 107.871 65.3857 107.886 65.4008C108.417 65.9067 108.853 66.3976 109.218 66.8634C109.08 66.4367 108.747 65.6918 108.502 65.2655Z" fill="#2A4259"/>
<path d="M91.3842 46.9581C88.7995 44.7239 86.1796 42.044 82.7634 41.1674C81.1554 40.7516 79.7027 40.1105 78.245 39.314C77.118 38.6979 75.9659 38.0667 74.6985 37.7962C73.4312 37.5257 72.2841 37.2001 71.127 36.5389C69.7795 35.7725 68.6274 34.5252 67.0996 34.1094C66.9743 34.0744 66.8291 34.0543 66.7239 34.1295C66.5385 34.2697 66.6587 34.5603 66.794 34.7506C67.2899 35.4619 67.7858 36.1782 68.2867 36.8895C68.3619 36.9997 68.442 37.1099 68.5222 37.2252C68.6023 37.3404 68.6825 37.4556 68.7626 37.5708C68.8428 37.686 68.9279 37.8062 69.0131 37.9265C69.0982 38.0467 69.1834 38.1619 69.2635 38.2871C69.3487 38.4073 69.4338 38.5276 69.519 38.6478C69.5641 38.7079 69.6042 38.768 69.6492 38.8281C69.7344 38.9483 69.8196 39.0686 69.9047 39.1888C69.9498 39.2489 69.9899 39.309 70.0299 39.3691C70.1552 39.5494 70.2854 39.7248 70.4056 39.9001C70.4908 40.0153 70.5709 40.1305 70.6511 40.2457C70.7312 40.3559 70.8114 40.4711 70.8915 40.5763C71.0869 40.8468 71.2772 41.1073 71.4526 41.3427C71.5578 41.488 71.6579 41.6232 71.7531 41.7485C72.0987 42.2143 72.3743 42.56 72.5195 42.7253C72.7399 42.9607 72.7299 43.0208 72.5896 43.0008C72.1739 42.9307 71.7832 42.7253 71.3574 42.6602C71.2672 42.6451 71.177 42.6351 71.0869 42.6602C70.9566 42.7002 70.8665 42.8104 70.8014 42.9307C70.7362 43.0509 70.6861 43.1911 70.7162 43.3314C70.7412 43.4516 70.8264 43.5468 70.9066 43.637C71.8533 44.6588 73.0755 45.4302 74.2277 46.1967C75.2395 46.8679 76.2664 47.4991 77.3133 48.1102C79.307 49.2673 81.3808 50.3994 83.5698 51.1357C83.8654 51.2359 84.1609 51.3261 84.4615 51.3962C88.8045 52.4331 96.694 51.7819 96.694 51.7819C95.0109 50.0788 93.1675 48.5109 91.3742 46.9631H91.3792L91.3842 46.9581Z" fill="#D094B0"/>
<path d="M91.3091 46.8929C91.1287 46.8929 90.9484 46.8979 90.7681 46.903C89.3755 46.913 87.9779 46.8378 86.5954 46.7026C85.1277 46.5573 83.655 46.377 82.2073 46.1015C78.8161 45.4503 75.3247 44.233 72.9102 41.6633C71.6529 40.3259 70.6912 38.7279 69.6843 37.2001C69.1283 36.3586 68.5923 35.482 68.1866 34.5603C67.8409 34.3699 67.4803 34.2146 67.0996 34.1094C66.9743 34.0744 66.8291 34.0543 66.7239 34.1295C66.5385 34.2697 66.6587 34.5603 66.794 34.7506C67.2899 35.4619 67.7858 36.1782 68.2867 36.8895C68.3619 36.9997 68.442 37.1099 68.5222 37.2252C68.6023 37.3404 68.6825 37.4556 68.7626 37.5708C68.8428 37.686 68.9279 37.8062 69.0131 37.9265C69.0982 38.0467 69.1834 38.1619 69.2635 38.2871C69.3487 38.4073 69.4338 38.5276 69.519 38.6478C69.5641 38.7079 69.6042 38.768 69.6492 38.8281C69.7344 38.9483 69.8196 39.0686 69.9047 39.1888C69.9498 39.2489 69.9899 39.309 70.0299 39.3691C70.1552 39.5494 70.2854 39.7248 70.4056 39.9001C70.4908 40.0153 70.5709 40.1305 70.6511 40.2457C70.7312 40.3559 70.8114 40.4711 70.8915 40.5763C71.0869 40.8468 71.2772 41.1073 71.4526 41.3427C71.5578 41.488 71.6579 41.6232 71.7531 41.7485C72.0987 42.2143 72.3743 42.56 72.5195 42.7253C72.7399 42.9607 72.7299 43.0208 72.5896 43.0008C72.1739 42.9307 71.7832 42.7253 71.3574 42.6602C71.2672 42.6451 71.177 42.6351 71.0869 42.6602C70.9566 42.7002 70.8665 42.8104 70.8014 42.9307C70.7362 43.0509 70.6861 43.1911 70.7162 43.3314C70.7412 43.4516 70.8264 43.5468 70.9066 43.637C71.8533 44.6588 73.0755 45.4302 74.2277 46.1967C75.2395 46.8629 76.2664 47.4991 77.3133 48.1102C79.307 49.2673 81.3808 50.3994 83.5698 51.1357C83.8654 51.2359 84.1609 51.3261 84.4615 51.3962C88.8045 52.4331 96.694 51.7819 96.694 51.7819C95.0109 50.0788 93.1675 48.5109 91.3742 46.9631C91.3491 46.943 91.3241 46.918 91.2991 46.8979L91.3091 46.8929Z" fill="#FA4F96"/>
<path d="M82.4584 82.6282C82.4684 82.4829 82.4433 82.3376 82.4233 82.1974C82.258 81.2356 82.0276 80.2438 81.6519 79.3421C81.4064 78.721 81.1059 78.1499 80.7552 77.7843C80.5799 77.6039 80.3094 77.3284 79.9838 76.9878C79.4178 76.4067 78.6714 75.6503 77.915 74.8839C77.5143 74.4782 77.1135 74.0724 76.7328 73.6867C76.1067 73.4914 75.5356 73.291 75.0247 73.0906C74.7292 72.9754 74.4537 72.8602 74.1982 72.75L74.123 73.0155C74.123 73.0155 74.6039 73.4212 75.2651 74.0023C75.3954 74.1175 75.5356 74.2427 75.6809 74.373C75.8262 74.5032 75.9765 74.6385 76.1267 74.7737C76.2019 74.8439 76.277 74.914 76.3572 74.9841C77.1887 75.7505 78.0352 76.532 78.7365 77.4236C78.8718 77.5939 79.002 77.7742 79.0621 77.9846C79.1122 78.1599 79.1122 78.3453 79.1122 78.5256C79.1122 78.9865 79.1673 79.4473 79.1623 79.9082C79.1623 80.374 79.1423 80.8599 79.3627 81.2857C79.4478 81.451 79.558 81.5963 79.6733 81.7465C79.8486 81.972 79.9588 82.2625 79.9387 82.553C79.9137 82.8436 79.7534 83.1141 79.548 83.3244C79.4078 83.4697 79.2525 83.6 79.1222 83.7552C79.1022 83.7753 79.0872 83.8003 79.0822 83.8254C79.0772 83.8554 79.0822 83.8855 79.1072 83.8955C79.1222 83.9055 79.1423 83.9055 79.1623 83.9005C79.2575 83.8855 79.3527 83.8504 79.4378 83.8053C79.5781 83.7302 79.7133 83.645 79.8386 83.5449C80.1191 83.3244 80.3796 83.0539 80.5499 82.7334C80.7703 82.3126 80.7753 81.8868 80.7603 81.426C80.7402 80.7798 80.6901 80.1286 80.65 79.4824C80.64 79.3171 80.63 79.1518 80.64 78.9865C80.64 78.9414 80.65 78.8913 80.6651 78.8462C80.6651 78.8312 80.6801 78.8111 80.6951 78.8061C80.7152 78.7961 80.7402 78.8212 80.7552 78.8362C81.0007 79.1568 81.156 79.5325 81.2912 79.9132C81.4315 80.3139 81.5617 80.7146 81.6769 81.1204C81.8122 81.5863 81.9575 82.0922 81.9024 82.5831C81.8923 82.6732 81.8773 82.7584 81.8472 82.8436C81.8122 82.9538 81.6168 83.2643 81.4565 83.5248C81.3914 83.63 81.5166 83.7452 81.6168 83.6751C81.9575 83.4296 82.4083 83.0239 82.4684 82.7233C82.4734 82.6883 82.4784 82.6532 82.4834 82.6181L82.4584 82.6282Z" fill="#D0CDB3"/>
<path d="M90.2972 79.9939C90.2621 79.6783 90.202 79.3677 90.1118 79.0722C90.0016 78.7065 89.8363 78.3508 89.5909 78.0503C89.3154 77.7197 88.9647 77.5193 88.589 77.324C88.3636 77.1837 88.0881 77.0184 87.7776 76.8331C86.8508 76.277 85.6286 75.5457 84.4965 74.8694C84.0808 74.8594 83.675 74.8444 83.2793 74.8244C82.6431 74.7893 82.037 74.7342 81.4609 74.6641C81.8016 74.8294 83.0939 75.4555 84.3913 76.1568C85.5685 76.793 86.7457 77.4943 87.2315 77.9701C87.2666 78.0052 87.2967 78.0403 87.3267 78.0753C87.7725 78.5512 88.1733 79.1223 88.4338 79.7384C88.4638 79.8035 88.4889 79.8686 88.5089 79.9388C88.5089 79.9438 88.5139 79.9538 88.5139 79.9588C88.7093 80.5248 88.7794 81.1209 88.6391 81.712C88.6141 81.8122 88.589 81.9074 88.554 82.0026C88.4939 82.1779 88.4137 82.3632 88.2885 82.5035C88.2484 82.5536 88.2985 82.6187 88.3536 82.5987C88.7393 82.4534 89.0549 82.1829 89.1751 81.7822C89.2503 81.5367 89.2553 81.2762 89.2402 81.0208C89.2102 80.5549 89.105 80.094 88.9998 79.6432C88.9848 79.5781 88.7794 78.7265 88.7694 78.7315C88.8846 78.7065 89.3955 79.9838 89.4807 80.3044C89.7512 81.3363 89.9866 82.8892 89.0799 83.6957C89.0549 83.7157 88.9547 83.7608 88.9447 83.7908C88.9196 83.866 88.9647 83.8359 89.0399 83.8259C89.8263 83.6957 90.1118 82.5135 90.2321 81.8773C90.3423 81.2762 90.3673 80.62 90.2922 79.9889L90.2972 79.9939Z" fill="#D0CDB3"/>
<path d="M84.5374 76.2409C85.6896 76.5013 86.8467 76.7217 88.0038 76.9722C87.9287 76.9271 87.8586 76.882 87.7834 76.837C86.8567 76.2809 85.6345 75.5496 84.5024 74.8733C84.0866 74.8633 83.6809 74.8483 83.2851 74.8283C82.649 74.7932 82.0429 74.7381 81.4668 74.668C81.8074 74.8333 83.0998 75.4594 84.3972 76.1607C84.4423 76.1858 84.4924 76.2108 84.5374 76.2359V76.2409Z" fill="#D0B863"/>
<path d="M75.6751 74.3758C75.8203 74.506 75.9706 74.6413 76.1209 74.7765C76.196 74.8467 76.2711 74.9168 76.3513 74.9869C76.5316 75.1522 76.717 75.3225 76.8973 75.4928C77.0325 75.588 77.1728 75.6832 77.3081 75.7734C78.37 76.4596 79.477 77.0758 80.569 77.7169C80.6492 77.767 80.7293 77.8121 80.8095 77.8622C80.7895 77.8372 80.7694 77.8171 80.7494 77.7921C80.5741 77.6117 80.3036 77.3362 79.978 76.9956C79.4119 76.4145 78.6656 75.6581 77.9092 74.8917C77.5084 74.486 77.1077 74.0802 76.727 73.6945C76.1008 73.4992 75.5298 73.2988 75.0188 73.0984C74.7233 72.9832 74.4478 72.868 74.1923 72.7578L74.1172 73.0233C74.1172 73.0233 74.5981 73.429 75.2593 74.0101C75.3895 74.1253 75.5298 74.2506 75.6751 74.3808V74.3758Z" fill="#D0B863"/>
<path d="M107.389 62.9263C107.389 62.8362 107.389 62.741 107.389 62.6458C107.389 62.6258 107.389 62.6007 107.389 62.5757C107.389 62.4555 107.379 62.3352 107.374 62.21C107.213 59.2446 106.056 54.8515 101.773 53.1133C100.341 52.5322 98.8629 52.1515 97.3551 51.8359C95.7472 51.4953 94.029 51.9512 92.4661 51.345C91.9802 51.1597 91.5444 50.8742 91.0986 50.6037C87.8677 48.6401 84.3712 47.3677 80.6043 47.0071C77.9494 46.7566 75.2895 46.5362 72.6296 46.3358C69.6792 46.1104 66.7288 45.9601 63.7834 45.7097C62.2005 45.5744 60.5975 45.2739 59.225 44.4824C58.4135 44.0116 57.7072 43.3804 57.051 42.7142C56.3948 42.0479 55.7436 41.4919 55.0673 40.8808C53.8752 39.8138 52.683 38.7469 51.4858 37.6849C50.2134 36.5528 48.9411 35.4258 47.6587 34.3037C46.9975 33.7226 46.3313 33.1566 45.6751 32.5705C45.0189 31.9894 44.3727 31.4485 43.6514 30.9826C43.5662 30.9275 43.476 30.8724 43.3909 30.8223C43.1655 30.6871 42.935 30.5618 42.7146 30.4216C42.4942 30.2813 42.3139 30.091 42.0885 29.9808C42.0534 29.9657 42.0234 29.9557 41.9983 29.9507H41.9933C41.9282 29.9407 41.8831 29.9808 41.8831 30.096C41.8831 30.1711 41.9132 30.2913 41.9683 30.4416C42.2488 31.2331 42.6545 31.9644 43.0452 32.7008C43.1605 32.9212 43.451 33.4521 43.6463 33.8028C43.6964 33.8929 43.5912 33.9881 43.5111 33.933C42.9751 33.5874 41.9683 32.9763 41.813 33.1766C41.7729 33.2267 41.7929 33.3269 41.8831 33.5022C42.1436 33.9831 42.5243 34.5792 42.8649 35.1002C42.8849 35.1302 43.0252 35.3406 43.1855 35.576C43.3157 35.7714 43.1003 36.0068 42.895 35.8966C41.5475 35.1803 38.9627 33.8128 39.0779 34.3037C39.1881 34.7645 42.7146 38.9823 47.2329 43.2752C47.3431 43.3804 47.4533 43.4856 47.5635 43.5908C47.5736 43.6008 47.5836 43.6108 47.5936 43.6208C47.7038 43.721 47.809 43.8212 47.9192 43.9264C47.9292 43.9364 47.9392 43.9464 47.9493 43.9565C48.0595 44.0616 48.1697 44.1618 48.2849 44.267C48.2849 44.267 48.2949 44.277 48.2999 44.282C48.886 44.823 49.4871 45.359 50.0982 45.885C50.1082 45.89 50.1132 45.9 50.1233 45.905C50.2285 45.9952 50.3336 46.0854 50.4388 46.1755C50.4639 46.1956 50.4889 46.2206 50.514 46.2406C50.6142 46.3258 50.7143 46.411 50.8145 46.4911C50.8446 46.5162 50.8746 46.5412 50.9047 46.5662C51.0049 46.6464 51.1001 46.7316 51.2002 46.8117C51.2303 46.8367 51.2654 46.8668 51.3004 46.8918C51.4006 46.972 51.4958 47.0521 51.596 47.1323C51.626 47.1573 51.6561 47.1824 51.6861 47.2024C51.7913 47.2876 51.8915 47.3677 51.9917 47.4479C52.0117 47.4629 52.0268 47.4729 52.0418 47.4879C52.5076 47.8586 52.9785 48.2243 53.4444 48.5749C53.4744 48.595 53.5045 48.62 53.5295 48.6401C53.6247 48.7102 53.7199 48.7803 53.81 48.8454C53.8501 48.8705 53.8852 48.9005 53.9252 48.9306C54.0154 48.9957 54.1056 49.0608 54.1957 49.126C54.2408 49.156 54.2809 49.1861 54.326 49.2161C54.4162 49.2812 54.5013 49.3414 54.5915 49.4015C54.6366 49.4315 54.6766 49.4616 54.7217 49.4916C54.8119 49.5517 54.897 49.6118 54.9872 49.672C55.0273 49.697 55.0673 49.7271 55.1074 49.7521C55.1976 49.8122 55.2928 49.8723 55.3829 49.9374C55.413 49.9575 55.448 49.9775 55.4781 49.9976C55.8287 50.228 56.1744 50.4434 56.52 50.6488C56.6152 50.7039 56.7054 50.759 56.8005 50.8141C56.8356 50.8341 56.8757 50.8591 56.9107 50.8792C56.9959 50.9293 57.0811 50.9744 57.1662 51.0244C57.2113 51.0495 57.2514 51.0745 57.2964 51.0996C57.3766 51.1447 57.4618 51.1898 57.5419 51.2348C57.587 51.2599 57.6321 51.2849 57.6822 51.31C57.7623 51.35 57.8425 51.3951 57.9226 51.4352C57.9677 51.4602 58.0128 51.4803 58.0629 51.5053C58.143 51.5454 58.2232 51.5855 58.2983 51.6205C58.3434 51.6406 58.3885 51.6606 58.4285 51.6857C58.4335 51.6857 58.4436 51.6907 58.4486 51.6957C58.4486 51.6957 58.4586 51.6957 58.4636 51.7007C58.5337 51.7358 58.6039 51.7658 58.674 51.8009C58.7141 51.8209 58.7491 51.8359 58.7892 51.851C58.8142 51.861 58.8393 51.871 58.8643 51.886C58.8994 51.9011 58.9345 51.9161 58.9695 51.9311C58.9946 51.9411 59.0196 51.9511 59.0447 51.9662H59.0497C59.1649 52.0163 59.2751 52.0664 59.3903 52.1114C59.3903 52.1114 59.5406 55.5778 61.7997 57.0856C61.96 57.1958 62.1053 57.291 62.2355 57.3861C62.6162 57.6616 63.042 57.9572 63.2875 58.3629C63.3175 58.418 63.3476 58.4731 63.3576 58.5333C63.3676 58.5934 63.3476 58.6635 63.2975 58.6986C63.2274 58.7537 63.1222 58.7236 63.037 58.6885C62.7515 58.5783 62.4609 58.4631 62.1854 58.3229C62.0502 58.2527 61.9149 58.1726 61.7897 58.0874C61.7446 58.0574 61.5292 57.842 61.4691 57.8871C61.4591 57.8971 61.4491 57.9121 61.4491 57.9372C61.4491 57.9472 61.4491 57.9622 61.4491 57.9772C61.4491 58.0223 61.4641 58.0824 61.4791 58.1576C61.4841 58.1826 61.4942 58.2077 61.4992 58.2327C61.6144 58.6134 61.8047 59.0041 62.0151 59.3347C62.1704 59.5752 62.3608 59.7956 62.5962 59.9609C62.7665 60.0761 63.1622 60.2063 63.0821 60.4868C63.0821 60.4969 63.0721 60.5069 63.0671 60.5169C63.057 60.5369 63.042 60.562 63.022 60.582C63.0019 60.6021 62.9819 60.6171 62.9569 60.6321C62.9368 60.6471 62.9118 60.6572 62.8867 60.6722C62.8567 60.6872 62.8216 60.6972 62.7865 60.7073C62.7865 60.7073 62.7865 60.7073 62.7815 60.7073C62.7465 60.7173 62.7114 60.7223 62.6713 60.7273C62.6663 60.7273 62.6613 60.7273 62.6513 60.7273C62.6162 60.7273 62.5762 60.7373 62.5361 60.7373C62.5261 60.7373 62.516 60.7373 62.506 60.7373C62.3457 60.7373 62.1353 60.6972 62.0853 60.9076C62.0552 61.0228 62.1053 61.1481 62.1504 61.2583C62.5862 62.2 63.4478 62.9313 64.4496 63.2068C64.5498 63.2319 64.68 63.312 64.6349 63.4022C64.6149 63.4423 64.5698 63.4623 64.5297 63.4773C64.144 63.6226 63.7333 63.7178 63.3275 63.7729C63.1222 63.8029 62.8517 63.7729 62.6463 63.7829C62.5361 63.7829 62.2105 63.828 62.481 64.0133C63.2023 64.4942 63.9537 64.93 64.7301 65.3257C65.4014 65.6664 66.0576 66.0421 66.7989 66.2174C66.9292 66.2474 67.0644 66.2775 67.1896 66.3226C67.2197 66.3376 67.2548 66.3526 67.2648 66.3827C67.2848 66.4428 67.2097 66.4879 67.1546 66.5029C66.7739 66.6181 66.3781 66.6682 65.9824 66.6532C65.8422 66.6482 65.5166 66.563 65.4665 66.7534C65.4514 66.7985 65.4565 66.8586 65.4765 66.9287C65.4915 66.9888 65.5216 67.0589 65.5566 67.1291C66.0225 68.0407 67.0744 68.6919 68.0512 68.8923C68.3267 68.9474 68.6072 68.9724 68.8777 69.0526C69.0581 69.1077 69.2584 69.2329 69.2434 69.4183C69.2334 69.4984 69.1883 69.5635 69.1382 69.6236C69.033 69.7539 68.6924 69.8541 68.4019 69.9142C68.2215 69.9543 68.1664 70.1847 68.3117 70.2999C68.3768 70.35 68.4269 70.3951 68.452 70.4151C68.9529 70.8509 69.5289 71.2166 70.1401 71.4821C70.7011 71.7275 71.3122 71.8077 71.8883 72.0231C72.6998 72.3286 73.4662 72.7444 74.2576 73.105C75.0491 73.4657 75.8956 73.7713 76.7422 74.0267C76.8624 74.0618 76.9826 74.1019 77.1079 74.1369C77.8342 74.3473 78.6407 74.5427 79.5273 74.708C79.5524 74.708 79.5774 74.718 79.6025 74.723C80.0282 74.8032 80.4741 74.8733 80.9399 74.9384C81.0351 74.9534 81.1152 74.9685 81.2104 74.9835C81.2956 74.9935 81.3958 74.9985 81.4809 75.0085C82.062 75.0737 82.6631 75.1288 83.2993 75.1688C83.69 75.1889 84.1007 75.2039 84.5165 75.2139C84.6668 75.2139 84.8171 75.2239 84.9673 75.2239C85.5634 75.229 86.1796 75.2239 86.8207 75.1989C87.0261 75.1889 87.2265 75.1789 87.4218 75.1688C87.4719 75.1688 87.522 75.1638 87.5721 75.1588C87.7424 75.1488 87.9077 75.1388 88.073 75.1238C88.0981 75.1238 88.1231 75.1238 88.1482 75.1187C88.3385 75.1037 88.5239 75.0837 88.6992 75.0636C88.7292 75.0636 88.7593 75.0586 88.7894 75.0536C88.9497 75.0336 89.1099 75.0136 89.2652 74.9935C89.2853 74.9935 89.3053 74.9935 89.3253 74.9835C89.681 74.9334 90.0216 74.8783 90.3372 74.8132C90.3472 74.8132 90.3572 74.8132 90.3673 74.8132C90.6929 74.7481 90.9984 74.6779 91.289 74.5978C91.289 74.5878 91.289 74.5828 91.294 74.5727C91.294 74.5828 91.294 74.5878 91.294 74.5928C92.7416 74.2021 93.7385 73.6661 94.4347 73.08C94.9958 72.6041 95.4666 71.993 95.7772 71.3218C96.0878 70.6505 96.0828 69.814 96.5436 69.2029C96.734 68.9474 96.9944 68.752 97.2599 68.5717C98.7527 67.5298 101.067 65.9018 103 66.2374C103.146 66.2625 103.286 66.2825 103.431 66.3025C103.441 66.3025 103.451 66.3025 103.456 66.3025C103.747 66.3376 104.042 66.3626 104.333 66.3626H104.453C104.453 66.3626 106.838 66.2825 106.833 66.1573C107.063 65.9319 107.143 64.8649 107.183 64.7797C107.183 64.7647 107.193 64.7547 107.198 64.7397C107.198 64.7347 107.198 64.7246 107.203 64.7196C107.203 64.7196 107.203 64.7096 107.203 64.7046C107.218 64.6695 107.228 64.6295 107.238 64.5894C107.243 64.5694 107.253 64.5443 107.258 64.5243C107.263 64.5042 107.268 64.4792 107.278 64.4592C107.283 64.4391 107.288 64.4141 107.293 64.394C107.303 64.359 107.308 64.3289 107.318 64.2888C107.318 64.2638 107.328 64.2337 107.333 64.2087C107.333 64.1887 107.333 64.1736 107.343 64.1536C107.343 64.1336 107.348 64.1185 107.354 64.0985C107.354 64.0734 107.364 64.0484 107.364 64.0233C107.364 63.9983 107.374 63.9682 107.374 63.9432C107.384 63.853 107.394 63.7629 107.399 63.6627C107.399 63.5675 107.409 63.4673 107.414 63.3621C107.414 63.3371 107.414 63.307 107.414 63.282C107.414 63.2018 107.414 63.1167 107.414 63.0315V62.9464L107.389 62.9263Z" fill="#D094B0"/>
<path d="M78.8658 48.8963C79.6172 49.3922 80.4137 49.813 81.2652 50.1035C82.1669 50.4091 83.1086 50.5243 84.0604 50.5593C85.0271 50.5944 85.9989 50.5593 86.9657 50.6144C87.8724 50.6645 88.764 50.7948 89.6507 50.9951C91.2786 51.3658 92.8816 51.9369 94.5547 52.0972C95.3662 52.1723 96.1877 52.1423 96.9841 51.9319C97.1044 51.9018 97.2196 51.8667 97.3348 51.8267C95.7318 51.4961 94.0237 51.9419 92.4708 51.3408C91.9849 51.1554 91.5491 50.8699 91.1033 50.5994C87.8724 48.6358 84.376 47.3635 80.609 47.0028C79.0011 46.8525 77.3931 46.7123 75.7852 46.582C76.8271 47.3384 77.8039 48.18 78.8708 48.8963H78.8658Z" fill="#9B015D"/>
<path d="M87.0864 65.7159C89.0249 65.2751 90.6629 64.2632 90.9084 61.939C90.9134 61.8939 90.9134 61.8588 90.9134 61.8438C90.7932 60.2208 87.1615 56.0081 85.6788 54.5203C85.6087 54.5554 85.5335 54.5905 85.4634 54.6255C85.0677 54.8059 84.6769 55.0012 84.2161 54.9712C83.7202 54.9361 83.2343 54.7508 82.7634 54.6355C81.3608 54.2899 79.9382 54.0044 78.5106 53.7389C75.6503 53.2029 72.77 52.7421 69.9649 52.0007C68.7977 51.6901 67.7408 51.2293 66.6638 50.7434C66.1479 50.508 65.6269 50.2725 65.0859 50.0822C64.8505 49.997 64.605 49.9219 64.3596 49.8668C64.1392 49.8167 63.8086 49.8217 63.6332 49.6915C63.3627 49.4861 63.1423 49.2056 62.8318 49.0703C62.6915 49.3308 62.8468 49.6814 62.932 49.977C64.4848 55.2316 68.6425 59.7249 72.9203 63.041C74.3179 64.123 75.8607 65.0547 77.5438 65.6157C79.272 66.1918 80.91 66.0616 82.6883 66.0616C84.0257 66.0616 85.6437 66.0465 87.0914 65.7159H87.0864Z" fill="#9B015D"/>
<path d="M94.0048 67.9506C94.5909 67.5198 95.1018 66.9938 95.5927 66.4628C96.0836 65.9268 96.5946 65.3959 97.1957 64.9851C97.4962 64.7848 97.8168 64.6144 98.1624 64.4942C98.488 64.384 98.8237 64.3339 99.1643 64.3039C100.301 64.2037 101.489 64.2187 102.586 64.5744C102.801 64.6445 103.011 64.7296 103.212 64.8298L103.097 64.5042C102.891 63.9282 102.576 63.3972 102.165 62.9414C100.802 61.4286 97.6565 57.9321 97.4061 57.6316C97.2508 57.4463 96.4693 56.7049 95.9534 56.3743C95.9384 56.4645 97.0304 58.2026 97.4061 58.8789C97.7266 59.4549 98.0272 60.1061 97.8719 60.7774C97.7867 61.1481 97.5714 61.4737 97.3159 61.7492C96.9753 62.1148 96.5645 62.4354 96.1337 62.6959C95.2571 63.2319 94.2603 63.5775 93.4838 64.2738C93.0881 64.6295 92.7375 65.0402 92.4119 65.461C92.1614 65.7866 91.926 66.1222 91.6455 66.4228C91.3399 66.7433 90.9842 67.0038 90.5935 67.2042C90.4833 67.2643 90.3631 67.3044 90.2429 67.3344C89.5566 67.5047 88.8553 67.6099 88.159 67.7502C87.5279 67.8754 86.8917 68.0157 86.2906 68.2511C85.9049 68.4064 85.3539 68.6519 85.2687 69.1127C85.2236 69.3481 85.3288 69.6136 85.4941 69.7789C85.7747 70.0594 86.2004 70.1296 86.5811 70.1596C87.4578 70.2248 88.2642 70.0995 89.1058 70.4502C89.5266 70.6255 89.9173 70.8659 90.298 71.1214C90.4382 71.2166 91.2948 71.9028 91.4 71.8427C90.318 72.4538 88.5698 72.7193 87.3375 72.9247C85.4491 73.2403 81.9476 73.1952 80.0541 72.9548C78.1657 72.7143 73.3067 70.6906 71.9092 69.6737C71.3081 69.2379 70.6919 68.737 70.2361 68.1459C69.8654 67.6751 69.65 67.109 69.4496 66.548C69.119 65.6113 68.8636 64.6645 67.7916 64.3339C67.6864 64.3039 67.5712 64.2738 67.5011 64.1887C67.3909 64.0634 67.4309 63.8681 67.491 63.7128C67.5562 63.5575 67.6363 63.3922 67.5962 63.2319C67.5311 62.9514 67.1855 62.8762 66.915 62.7861C66.2688 62.5757 65.818 62.0547 65.6727 61.3935C65.5525 60.8325 65.6527 60.2414 65.853 59.7054C65.8681 59.6754 65.8781 59.6403 65.8931 59.6052C66.2588 58.7436 65.9833 57.7418 65.2018 57.2208C64.6909 56.8802 64.225 56.5646 64.1449 56.5095C63.3083 55.8884 62.5319 55.142 62.1061 54.1702C61.8256 53.5391 61.7154 52.8378 61.7705 52.1465C61.8457 51.2348 62.0711 51.1898 61.1945 50.7339C56.8815 48.4998 52.9643 45.6295 48.992 42.8544C47.0585 41.5019 45.0297 40.0943 43.9077 38.0155C43.4869 37.2391 46.282 39.1626 47.5544 39.7838C47.6646 39.8389 47.7648 39.6936 47.6746 39.6085C46.5075 38.5265 43.6472 35.8115 43.7123 34.9599C43.7223 34.8247 43.8025 34.6794 43.9477 34.6493C44.2082 34.5992 44.8444 34.9549 45.3203 35.1653C45.4555 35.2254 45.5757 35.0601 45.4856 34.9499C44.8895 34.2135 43.9127 33.1165 43.517 32.5204C43.0411 31.8041 42.6604 31.0327 42.435 30.2112C42.3248 30.126 42.2146 30.0409 42.0943 29.9808C42.0593 29.9657 42.0292 29.9557 42.0042 29.9507H41.9992C41.934 29.9407 41.889 29.9808 41.889 30.096C41.889 30.1711 41.919 30.2913 41.9741 30.4416C42.2546 31.2331 42.6604 31.9644 43.0511 32.7008C43.1663 32.9212 43.4568 33.4521 43.6522 33.8078C43.7023 33.898 43.6021 33.9881 43.517 33.938C42.986 33.5924 41.9691 32.9763 41.8188 33.1766C41.7788 33.2267 41.7988 33.3269 41.889 33.5022C42.1494 33.9831 42.5301 34.5792 42.8708 35.1002C42.8908 35.1302 43.0311 35.3406 43.1914 35.576C43.3216 35.7714 43.1062 36.0068 42.9008 35.9016C41.5533 35.1853 38.9686 33.8228 39.0838 34.3087C39.194 34.7696 42.7205 38.9873 47.2388 43.2802C47.349 43.3854 47.4592 43.4906 47.5694 43.5958C47.5794 43.6058 47.5894 43.6158 47.5995 43.6258C47.7097 43.726 47.8149 43.8262 47.9251 43.9314C47.9351 43.9414 47.9451 43.9514 47.9551 43.9615C48.0653 44.0667 48.1755 44.1668 48.2907 44.272C48.2907 44.272 48.3008 44.282 48.3058 44.2871C48.8918 44.8281 49.4929 45.364 50.1041 45.89C50.1141 45.895 50.1191 45.905 50.1291 45.91C50.2343 46.0002 50.3395 46.0904 50.4447 46.1805C50.4697 46.2006 50.4948 46.2256 50.5198 46.2457C50.62 46.3308 50.7202 46.416 50.8204 46.4961C50.8504 46.5212 50.8805 46.5462 50.9106 46.5713C51.0107 46.6514 51.1059 46.7366 51.2061 46.8167C51.2362 46.8418 51.2712 46.8718 51.3063 46.8969C51.4065 46.977 51.5016 47.0572 51.6018 47.1373C51.6319 47.1623 51.6619 47.1874 51.692 47.2074C51.7972 47.2926 51.8974 47.3727 51.9976 47.4529C52.0176 47.4679 52.0326 47.4779 52.0476 47.493C52.5135 47.8636 52.9844 48.2293 53.4502 48.58C53.4803 48.6 53.5103 48.625 53.5354 48.6451C53.6306 48.7152 53.7257 48.7853 53.8159 48.8504C53.856 48.8755 53.891 48.9055 53.9311 48.9356C54.0213 49.0007 54.1114 49.0658 54.2016 49.131C54.2467 49.161 54.2868 49.1911 54.3318 49.2211C54.422 49.2862 54.5072 49.3464 54.5973 49.4065C54.6424 49.4365 54.6825 49.4666 54.7276 49.4966C54.8177 49.5567 54.9029 49.6169 54.9931 49.677C55.0331 49.702 55.0732 49.7321 55.1133 49.7571C55.2034 49.8172 55.2986 49.8773 55.3888 49.9425C55.4188 49.9625 55.4539 49.9825 55.484 50.0026C55.8346 50.233 56.1802 50.4484 56.5259 50.6538C56.6211 50.7089 56.7112 50.764 56.8064 50.8191C56.8415 50.8391 56.8815 50.8642 56.9166 50.8842C57.0018 50.9343 57.0869 50.9794 57.1721 51.0295C57.2171 51.0545 57.2572 51.0795 57.3023 51.1046C57.3825 51.1497 57.4676 51.1948 57.5478 51.2398C57.5928 51.2649 57.6379 51.2899 57.688 51.315C57.7682 51.3551 57.8483 51.4001 57.9285 51.4402C57.9735 51.4653 58.0186 51.4853 58.0687 51.5103C58.1489 51.5504 58.229 51.5905 58.3041 51.6256C58.3492 51.6456 58.3943 51.6656 58.4344 51.6907C58.4394 51.6907 58.4494 51.6957 58.4544 51.7007C58.4544 51.7007 58.4644 51.7007 58.4695 51.7057C58.5396 51.7408 58.6097 51.7708 58.6798 51.8059C58.7199 51.8259 58.755 51.8409 58.7951 51.856C58.8201 51.866 58.8451 51.876 58.8702 51.891C58.9053 51.9061 58.9403 51.9211 58.9754 51.9361C59.0004 51.9461 59.0255 51.9562 59.0505 51.9712H59.0555C59.1707 52.0213 59.2809 52.0714 59.3962 52.1165C59.3962 52.1165 59.5464 55.5828 61.8056 57.0906C61.9659 57.2008 62.1111 57.296 62.2414 57.3912C62.6221 57.6667 63.0479 57.9622 63.2933 58.3679C63.3234 58.4231 63.3534 58.4782 63.3635 58.5383C63.3735 58.5984 63.3534 58.6685 63.3033 58.7036C63.2332 58.7587 63.128 58.7286 63.0429 58.6935C62.7573 58.5833 62.4668 58.4681 62.1913 58.3279C62.056 58.2577 61.9208 58.1776 61.7956 58.0924C61.7505 58.0624 61.5351 57.847 61.475 57.8921C61.465 57.9021 61.4549 57.9171 61.4549 57.9422C61.4549 57.9522 61.4549 57.9672 61.4549 57.9822C61.4549 58.0273 61.47 58.0874 61.485 58.1626C61.49 58.1876 61.5 58.2127 61.505 58.2377C61.6202 58.6184 61.8106 59.0091 62.021 59.3397C62.1763 59.5802 62.3666 59.8006 62.6021 59.9659C62.7724 60.0811 63.1681 60.2113 63.0879 60.4919C63.0879 60.5019 63.0779 60.5119 63.0729 60.5219C63.0629 60.5419 63.0479 60.567 63.0278 60.587C63.0078 60.6071 62.9878 60.6221 62.9627 60.6371C62.9427 60.6521 62.9176 60.6622 62.8926 60.6772C62.8625 60.6922 62.8275 60.7022 62.7924 60.7123C62.7924 60.7123 62.7924 60.7123 62.7874 60.7123C62.7523 60.7223 62.7173 60.7273 62.6772 60.7323C62.6722 60.7323 62.6672 60.7323 62.6572 60.7323C62.6221 60.7323 62.582 60.7423 62.5419 60.7423C62.5319 60.7423 62.5219 60.7423 62.5119 60.7423C62.3516 60.7423 62.1412 60.7022 62.0911 60.9126C62.0611 61.0278 62.1111 61.1531 62.1562 61.2633C62.592 62.205 63.4536 62.9364 64.4555 63.2119C64.5556 63.2369 64.6859 63.3171 64.6408 63.4072C64.6208 63.4473 64.5757 63.4673 64.5356 63.4824C64.1499 63.6276 63.7391 63.7228 63.3334 63.7779C63.128 63.808 62.8575 63.7779 62.6521 63.7879C62.5419 63.7879 62.2163 63.833 62.4868 64.0183C63.2082 64.4992 63.9595 64.935 64.736 65.3308C65.4072 65.6714 66.0634 66.0471 66.8048 66.2224C66.935 66.2524 67.0703 66.2825 67.1955 66.3276C67.2256 66.3426 67.2606 66.3576 67.2706 66.3877C67.2907 66.4478 67.2155 66.4929 67.1604 66.5079C66.7797 66.6231 66.384 66.6732 65.9883 66.6582C65.848 66.6532 65.5224 66.568 65.4723 66.7584C65.4573 66.8035 65.4623 66.8636 65.4823 66.9337C65.4974 66.9938 65.5274 67.0639 65.5625 67.1341C66.0284 68.0457 67.0803 68.6969 68.0571 68.8973C68.3326 68.9524 68.6131 68.9775 68.8836 69.0576C69.0639 69.1127 69.2643 69.2379 69.2493 69.4233C69.2393 69.5034 69.1942 69.5685 69.1441 69.6287C69.0389 69.7589 68.6983 69.8591 68.4077 69.9192C68.2274 69.9593 68.1723 70.1897 68.3176 70.3049C68.3827 70.355 68.4328 70.4001 68.4578 70.4201C68.9587 70.8559 69.5348 71.2216 70.1459 71.4871C70.707 71.7325 71.3181 71.8127 71.8941 72.0281C72.7056 72.3336 73.472 72.7494 74.2635 73.1101C75.065 73.4757 75.9015 73.7763 76.7481 74.0318C76.8683 74.0668 76.9885 74.1069 77.1137 74.142C77.8401 74.3523 78.6466 74.5477 79.5332 74.713C79.5582 74.713 79.5833 74.723 79.6083 74.728C80.0341 74.8082 80.4799 74.8783 80.9458 74.9434C81.041 74.9585 81.1361 74.9635 81.2313 74.9785C81.3165 74.9885 81.3966 74.9985 81.4818 75.0085C82.0628 75.0737 82.6639 75.1288 83.3001 75.1688C83.6908 75.1889 84.1016 75.2039 84.5173 75.2139C84.6676 75.2139 84.8179 75.2239 84.9682 75.2239C85.5643 75.229 86.1804 75.2239 86.8216 75.1989C87.027 75.1889 87.2273 75.1789 87.4227 75.1688C87.4728 75.1688 87.5229 75.1638 87.573 75.1588C87.7433 75.1488 87.9086 75.1338 88.0739 75.1238C88.0989 75.1238 88.124 75.1238 88.149 75.1187C88.3394 75.1037 88.5197 75.0837 88.7 75.0636C88.7301 75.0636 88.7602 75.0586 88.7902 75.0536C88.9505 75.0336 89.1108 75.0136 89.2661 74.9935C89.2861 74.9935 89.3062 74.9935 89.3262 74.9835C89.6818 74.9334 90.0225 74.8783 90.3381 74.8132C90.3481 74.8132 90.3581 74.8132 90.3681 74.8132C90.6937 74.7481 90.9993 74.6779 91.2898 74.5978C91.2898 74.5878 91.2898 74.5828 91.2948 74.5727C91.2948 74.5828 91.2948 74.5878 91.2898 74.5928C92.7375 74.2021 93.7343 73.6661 94.4306 73.08C94.9916 72.6041 95.4625 71.993 95.773 71.3218C96.0836 70.6405 96.0385 69.824 96.5294 69.2379C96.7248 69.0075 97.0053 68.7771 97.2658 68.5917C98.6033 67.66 100.647 66.0821 102.761 66.2074C101.894 65.8918 100.567 65.7966 99.6502 65.982C98.1524 66.2925 96.9552 67.1992 95.8732 68.2361C95.0768 68.9975 92.9929 70.5403 92.9779 70.5353C92.9679 70.5353 92.9679 70.4251 92.9729 70.2849C92.9829 69.8491 93.3786 68.4114 94.0048 67.9506Z" fill="#FA4F96"/>
<path d="M79.9982 71.4247C80.8448 70.8537 84.5216 69.7366 84.1208 68.9101C81.2906 69.942 75.4749 69.0253 72.4995 68.314C71.7881 68.1437 71.3674 67.5476 71.9184 67.0467C72.229 66.7662 72.7549 66.6309 73.3961 66.5658C74.0373 66.5007 74.0824 65.5289 73.4161 65.4237C66.3882 64.2966 69.8045 62.0625 67.6105 61.4965C66.9342 61.3211 66.263 61.1358 65.5917 60.9455C65.5817 60.5197 65.6719 60.0939 65.8222 59.6932C65.8322 59.6631 65.8472 59.633 65.8572 59.598C66.2229 58.7264 65.9424 57.7195 65.1559 57.1986C64.65 56.863 64.1892 56.5524 64.109 56.4923C63.2725 55.8711 62.4961 55.1248 62.0703 54.153C61.7898 53.5218 61.6796 52.8205 61.7347 52.1292C61.8098 51.2176 62.0352 51.1725 61.1586 50.7166C58.8293 49.5094 54.1707 46.4037 51.576 44.6455C50.7745 44.1045 49.6775 44.8959 50.0281 45.7976C50.0381 45.8176 50.0432 45.8327 50.0532 45.8427C50.0682 45.8427 50.0832 45.8627 50.0983 45.8727C50.2035 45.9629 50.3086 46.0531 50.4138 46.1432C50.4389 46.1633 50.4639 46.1883 50.489 46.2084C50.5892 46.2935 50.6893 46.3787 50.7895 46.4588C50.8196 46.4839 50.8496 46.5089 50.8797 46.534C50.9799 46.6141 51.0751 46.6993 51.1752 46.7794C51.2053 46.8045 51.2404 46.8345 51.2754 46.8596C51.3756 46.9397 51.4708 47.0199 51.571 47.1C51.601 47.125 51.6311 47.1501 51.6611 47.1701C51.7663 47.2553 51.8665 47.3354 51.9667 47.4156C51.9867 47.4306 52.0018 47.4406 52.0168 47.4557C52.4826 47.8263 52.9535 48.192 53.4194 48.5427C53.4494 48.5627 53.4795 48.5877 53.5045 48.6078C53.5997 48.6779 53.6949 48.748 53.785 48.8131C53.8251 48.8382 53.8602 48.8683 53.9003 48.8983C53.9904 48.9634 54.0806 49.0285 54.1707 49.0937C54.2158 49.1237 54.2559 49.1538 54.301 49.1838C54.3912 49.249 54.4763 49.3091 54.5665 49.3692C54.6116 49.3992 54.6516 49.4293 54.6967 49.4593C54.7869 49.5194 54.872 49.5796 54.9622 49.6397C55.0023 49.6647 55.0424 49.6948 55.0824 49.7198C55.1726 49.7799 55.2678 49.84 55.3579 49.9052C55.388 49.9252 55.4231 49.9452 55.4531 49.9653C55.8038 50.1957 56.1494 50.4111 56.495 50.6165C56.5902 50.6716 56.6804 50.7267 56.7755 50.7818C56.8106 50.8018 56.8507 50.8269 56.8857 50.8469C56.9709 50.897 57.0561 50.9421 57.1412 50.9922C57.1863 51.0172 57.2264 51.0422 57.2714 51.0673C57.3516 51.1124 57.4368 51.1575 57.5169 51.2025C57.562 51.2276 57.6071 51.2526 57.6572 51.2777C57.7373 51.3178 57.8175 51.3628 57.8976 51.4029C57.9427 51.428 57.9878 51.448 58.0379 51.473C58.118 51.5131 58.1982 51.5532 58.2783 51.5883C58.3234 51.6083 58.3685 51.6283 58.4085 51.6534C58.4135 51.6534 58.4236 51.6584 58.4286 51.6634C58.4286 51.6634 58.4386 51.6634 58.4436 51.6684C58.5137 51.7035 58.5839 51.7335 58.654 51.7686C58.6941 51.7886 58.7291 51.8036 58.7692 51.8187C58.7943 51.8287 58.8193 51.8387 58.8443 51.8537C58.8794 51.8688 58.9145 51.8838 58.9495 51.8988C58.9746 51.9088 58.9996 51.9189 59.0247 51.9339H59.0297C59.1449 51.984 59.2551 52.0341 59.3703 52.0792C59.3703 52.0792 59.5206 55.5455 61.7797 57.0533C61.94 57.1635 62.0853 57.2587 62.2155 57.3539C62.5962 57.6294 63.022 57.9249 63.2675 58.3306C63.2975 58.3858 63.3276 58.4409 63.3376 58.501C63.3476 58.5611 63.3276 58.6312 63.2775 58.6663C63.2074 58.7214 63.1022 58.6913 63.017 58.6562C62.7315 58.546 62.441 58.4308 62.1654 58.2906C62.0302 58.2204 61.895 58.1403 61.7697 58.0551C61.7246 58.0251 61.5092 57.8097 61.4491 57.8548C61.4391 57.8648 61.4291 57.8798 61.4291 57.9049C61.4291 57.9149 61.4291 57.9299 61.4291 57.9449C61.4291 57.99 61.4441 58.0501 61.4591 58.1253C61.4642 58.1503 61.4742 58.1754 61.4792 58.2004C61.5944 58.5811 61.7847 58.9718 61.9951 59.3024C62.1504 59.5429 62.3408 59.7633 62.5762 59.9286C62.6764 59.9987 62.8467 60.0688 62.9619 60.174C62.9719 60.1841 62.982 60.1891 62.992 60.1991C63.012 60.2191 63.027 60.2392 63.0371 60.2642C63.0371 60.2642 63.0421 60.2692 63.0421 60.2742C63.0721 60.3293 63.0771 60.3894 63.0571 60.4596C63.0571 60.4696 63.0471 60.4796 63.0421 60.4896C63.032 60.5097 63.017 60.5347 62.997 60.5547C62.9769 60.5748 62.9569 60.5898 62.9369 60.6048C62.9168 60.6199 62.8918 60.6299 62.8667 60.6449C62.8367 60.6599 62.8016 60.67 62.7666 60.68C62.7666 60.68 62.7666 60.68 62.7615 60.68C62.7265 60.69 62.6914 60.695 62.6513 60.705C62.6463 60.705 62.6413 60.705 62.6313 60.705C62.5962 60.705 62.5562 60.715 62.5161 60.715C62.5061 60.715 62.4961 60.715 62.486 60.715C62.446 60.715 62.4009 60.715 62.3608 60.715C62.2306 60.715 62.1053 60.7301 62.0653 60.8853C62.0352 61.0006 62.0853 61.1258 62.1304 61.236C62.5662 62.1777 63.4278 62.9091 64.4296 63.1846C64.5298 63.2096 64.66 63.2898 64.615 63.3799C64.5949 63.42 64.5498 63.44 64.5098 63.4551C64.124 63.6003 63.7133 63.6955 63.3075 63.7506C63.2074 63.7656 63.0871 63.7656 62.9669 63.7656C62.8467 63.7656 62.7315 63.7606 62.6263 63.7656C62.5161 63.7656 62.1905 63.8107 62.461 63.9961C63.1823 64.477 63.9337 64.9128 64.7101 65.3085C65.3814 65.6541 66.0376 66.0298 66.7789 66.2001C66.9092 66.2302 67.0444 66.2602 67.1696 66.3053C67.1997 66.3153 67.2298 66.3354 67.2398 66.3654C67.2598 66.4255 67.1847 66.4706 67.1296 66.4856C66.7489 66.6009 66.3531 66.6509 65.9574 66.6359C65.8172 66.6309 65.4916 66.5458 65.4415 66.7361C65.4264 66.7812 65.4315 66.8413 65.4515 66.9114C65.4665 66.9715 65.4966 67.0417 65.5316 67.1118C65.9975 68.0235 67.0494 68.6747 68.0262 68.875C68.3017 68.9301 68.5822 68.9552 68.8527 69.0353C68.988 69.0754 69.1333 69.1556 69.1884 69.2708C69.2084 69.3108 69.2184 69.3509 69.2134 69.396C69.2034 69.4761 69.1583 69.5413 69.1082 69.6014C69.003 69.7316 68.6624 69.8318 68.3719 69.8919C68.2366 69.922 68.1715 70.0622 68.2116 70.1774C68.2216 70.2175 68.2466 70.2526 68.2817 70.2826C68.3468 70.3327 68.3969 70.3778 68.422 70.3978C68.9229 70.8336 69.4989 71.1993 70.1101 71.4648C70.6711 71.7103 71.2822 71.7904 71.8583 72.0058C72.6698 72.3114 73.4362 72.7271 74.2276 73.0878C75.0291 73.4535 75.8656 73.754 76.7122 74.0095C76.8324 74.0445 76.9526 74.0846 77.0779 74.1197C77.8042 74.3301 78.6107 74.5254 79.4973 74.6907C79.5224 74.6907 79.5474 74.7008 79.5725 74.7058C79.9982 74.7859 80.434 74.861 80.8999 74.9262C80.9951 74.9412 81.0953 74.9512 81.1904 74.9612C81.2756 74.9713 81.486 75.0063 81.5711 75.0113C82.1522 75.0764 82.6331 75.1065 83.2693 75.1416C83.3995 75.1516 83.5347 75.1566 83.67 75.1616C83.675 75.1616 83.685 75.1616 83.69 75.1566C83.9555 75.1666 84.211 75.1816 84.4865 75.1866C84.6368 75.1866 84.787 75.1967 84.9373 75.1967C85.5334 75.2017 86.1495 75.1967 86.7907 75.1716C86.9961 75.1616 87.1965 75.1516 87.3918 75.1416C87.4419 75.1416 87.492 75.1366 87.5421 75.1315C87.7124 75.1215 87.8777 75.1115 88.038 75.0965C88.0631 75.0965 88.0881 75.0965 88.1132 75.0915C88.3035 75.0764 88.4838 75.0564 88.6642 75.0364C88.6942 75.0364 88.7243 75.0314 88.7543 75.0264C88.9146 75.0063 89.0749 74.9863 89.2302 74.9662C89.2502 74.9662 89.2703 74.9662 89.2903 74.9562C89.3354 74.9512 89.3905 74.9011 89.4556 74.826C90.207 73.9343 92.7918 72.3063 89.2853 72.7522C81.2706 73.774 78.2701 72.5768 79.9782 71.4247H79.9982Z" fill="#9B015D"/>
<path d="M102.15 62.9196C102.15 62.9196 102.135 62.8995 102.125 62.8945C101.629 63.3454 101.133 63.7962 100.627 64.242C101.288 64.262 101.939 64.3522 102.566 64.5576C102.781 64.6277 102.991 64.7129 103.192 64.8131L103.076 64.4875C102.871 63.9114 102.555 63.3804 102.145 62.9246L102.15 62.9196Z" fill="#9B015D"/>
<path d="M106.306 64.4929C105.344 64.7334 104.348 64.7133 103.376 64.533C103.276 64.513 103.175 64.4929 103.075 64.4679C102.87 63.8968 102.554 63.3709 102.148 62.92C101.522 62.2288 100.526 61.1167 99.5988 60.0898C99.3934 60.4906 99.178 60.8863 98.9626 61.277C98.9626 61.287 98.9526 61.2921 98.9476 61.3021C98.081 62.88 96.8538 64.2275 95.376 65.2593C95.3109 65.3044 94.6848 65.7252 93.8883 66.2662C91.8846 67.6187 91.8546 70.5791 93.8482 71.9416C93.8733 71.9567 93.8933 71.9717 93.9133 71.9867C94.2289 72.1921 94.5595 72.4025 94.9002 72.5828C95.2408 72.2021 95.5313 71.7713 95.7417 71.3105C96.0523 70.6292 96.0473 69.8027 96.5081 69.1916C96.6985 68.9361 96.9589 68.7407 97.2244 68.5604C98.7172 67.5185 101.031 65.8905 102.965 66.2261C103.11 66.2512 103.251 66.2712 103.396 66.2912C103.406 66.2912 103.416 66.2912 103.421 66.2912C103.711 66.3263 104.007 66.3514 104.297 66.3514H104.418C104.418 66.3514 106.802 66.2712 106.797 66.146C107.027 65.9206 107.108 64.8536 107.148 64.7684C107.148 64.7534 107.158 64.7434 107.163 64.7284C107.163 64.7234 107.163 64.7133 107.168 64.7083C107.168 64.7083 107.168 64.6983 107.168 64.6933C107.183 64.6582 107.193 64.6182 107.203 64.5781C107.208 64.5581 107.218 64.533 107.223 64.513C107.228 64.4929 107.233 64.4679 107.243 64.4479C107.248 64.4278 107.253 64.4028 107.258 64.3827C107.268 64.3477 107.273 64.3176 107.283 64.2775C107.283 64.2525 107.293 64.2224 107.298 64.1974C107.298 64.1774 107.298 64.1623 107.308 64.1423C106.982 64.2926 106.647 64.4128 106.301 64.498L106.306 64.4929Z" fill="#9B015D"/>
<path d="M99.534 61.1207C99.4839 61.271 99.4538 61.4263 99.4538 61.5916C99.4538 61.9723 99.5991 62.3129 99.8395 62.5734C100.105 62.8589 100.481 63.0443 100.906 63.0443C101.027 63.0443 101.137 63.0293 101.247 62.9992C101.337 62.9792 101.422 62.9491 101.503 62.914C101.488 62.9241 101.538 62.9792 101.628 63.0593C101.863 63.2747 102.359 63.6604 102.419 63.6955C102.805 63.9109 102.71 64.3717 103.065 64.6322C103.631 65.048 104.543 65.3986 105.214 65.6591C105.725 65.8595 106.266 66.0097 106.802 66.145C106.802 66.145 106.712 65.9095 106.547 65.5789C106.497 65.4788 106.442 65.3736 106.377 65.2634C106.086 64.7524 105.66 64.1563 105.134 63.8558C104.348 63.41 102.92 62.4582 102.289 62.0324C102.334 61.8922 102.359 61.7469 102.359 61.5966C102.359 60.7951 101.708 60.149 100.906 60.149C100.746 60.149 100.596 60.174 100.451 60.2241C99.8245 59.4777 97.2998 56.6475 95.9824 56.2969C95.9824 56.2969 96.0926 56.3971 96.288 56.6024C96.6386 56.9681 97.2598 57.6694 98.0061 58.7263C98.477 59.3876 98.998 60.184 99.534 61.1258V61.1207ZM100.927 60.4345C101.147 60.4345 101.322 60.6098 101.322 60.8302C101.322 61.0506 101.147 61.2259 100.927 61.2259C100.706 61.2259 100.531 61.0506 100.531 60.8302C100.531 60.6098 100.706 60.4345 100.927 60.4345Z" fill="#00144A"/>
<path d="M100.927 61.3789C101.227 61.3789 101.468 61.1384 101.468 60.8379C101.468 60.5373 101.227 60.2969 100.927 60.2969C100.626 60.2969 100.381 60.5373 100.381 60.8379C100.381 61.1384 100.626 61.3789 100.927 61.3789Z" fill="#D0CDB3"/>
<path d="M109.218 66.8669C108.852 66.4011 108.411 65.9102 107.885 65.4042C107.87 65.3892 107.85 65.3742 107.835 65.3591C107.625 65.1588 107.399 64.9534 107.159 64.748C107.159 64.748 107.159 64.758 107.149 64.7681C107.109 64.8532 106.913 65.2439 106.688 65.4693C106.643 65.5144 106.593 65.5545 106.548 65.5796C106.713 65.9102 106.803 66.1456 106.803 66.1456C106.267 66.0103 105.726 65.8651 105.215 65.6597C104.539 65.3942 103.632 65.0486 103.066 64.6328L103.202 64.8131L104.359 66.356L105.165 67.433L105.18 67.453L105.311 67.6283L106.012 67.1074C106.012 67.1074 108.391 68.7003 109.814 69.8524C110.325 70.2682 110.7 70.6188 110.781 70.8092C111.016 71.3752 111.302 69.5118 109.233 66.8769L109.218 66.8669Z" fill="#D0CDB3"/>
<path d="M109.082 68.8606C108.336 68.2344 107.6 67.5832 107.004 66.8018C106.828 66.5714 106.668 66.3309 106.543 66.0755C106.092 65.9603 105.641 65.83 105.215 65.6597C104.539 65.3942 103.632 65.0486 103.066 64.6328L103.202 64.8131L104.354 66.356L105.16 67.433L105.175 67.453L105.306 67.6283L105.932 67.0573C105.932 67.0573 108.386 68.7003 109.804 69.8524C110.315 70.2682 110.69 70.6188 110.771 70.8092C110.851 70.9995 110.931 70.9144 110.931 70.6238C110.385 69.9576 109.739 69.4216 109.082 68.8706V68.8606Z" fill="#D0B863"/>
<path d="M105.551 65.7949C105.551 65.7949 105.551 65.7849 105.551 65.7799C105.441 65.7398 105.326 65.6998 105.215 65.6597C104.539 65.3942 103.632 65.0486 103.066 64.6328L103.202 64.8131L104.354 66.356L105.329 67.6819L106.007 67.1074L106.072 67.1524C105.821 66.7417 105.661 66.2508 105.556 65.8L105.551 65.7949Z" fill="#D0B863"/>
<path d="M91.0092 60.9262C91.0092 60.8461 90.9942 60.7609 90.9842 60.6757C90.9692 60.5555 90.9441 60.4303 90.9141 60.3001C90.904 60.26 90.894 60.2149 90.884 60.1748C90.6636 59.3633 90.1527 58.3364 89.1258 57.0591C89.0657 56.984 89.0056 56.9088 88.9404 56.8287C88.9204 56.8036 88.9004 56.7786 88.8803 56.7585C88.8803 56.7585 88.8703 56.7485 88.8703 56.7435C88.8453 56.7135 88.8202 56.6834 88.7952 56.6534C88.7801 56.6333 88.7601 56.6133 88.7401 56.5882C88.72 56.5632 88.695 56.5331 88.6699 56.5081C88.6349 56.468 88.5998 56.4329 88.5697 56.3929C88.5497 56.3678 88.5247 56.3428 88.4996 56.3177C88.4846 56.2977 88.4696 56.2827 88.4545 56.2626C88.3844 56.1825 88.3093 56.1023 88.2341 56.0222C88.2341 56.0222 88.2341 56.0222 88.2341 56.0172C88.2241 56.0072 88.2141 55.9971 88.2041 55.9871C88.174 55.9571 88.149 55.927 88.1189 55.897C88.0738 55.8519 88.0338 55.8018 87.9887 55.7567C87.9887 55.7567 87.9887 55.7567 87.9837 55.7467C87.9686 55.7317 87.9486 55.7116 87.9386 55.6966C87.9186 55.6766 87.8985 55.6515 87.8785 55.6315C87.8434 55.5964 87.8083 55.5563 87.7733 55.5213C87.7633 55.5113 87.7532 55.5012 87.7432 55.4912C87.7232 55.4712 87.6981 55.4461 87.6781 55.4211C87.3325 55.0604 86.9818 54.6897 86.6162 54.3491C86.6011 54.3341 86.5861 54.3191 86.5711 54.304C86.4408 54.1788 86.3106 54.0486 86.1753 53.9233C86.1703 53.9183 86.1603 53.9083 86.1553 53.9033C86.0201 53.7731 85.8848 53.6428 85.7446 53.5076C85.7245 53.4875 85.7045 53.4675 85.6844 53.4475C85.5492 53.3172 85.4139 53.192 85.2737 53.0617C85.2537 53.0417 85.2286 53.0217 85.2086 52.9966C85.0683 52.8664 84.923 52.7311 84.7828 52.6009C84.7277 52.5508 84.3219 52.1751 84.2869 52.1501C84.1366 52.0148 83.9863 51.8746 83.836 51.7393C83.821 51.7243 83.801 51.7093 83.786 51.6942C83.6357 51.559 83.4904 51.4287 83.3401 51.2935C83.3251 51.2785 83.3051 51.2634 83.29 51.2484C82.9745 50.9679 82.6589 50.6874 82.3383 50.4069C81.4617 49.6405 80.575 48.8791 79.6834 48.1277C78.8318 47.4114 77.9853 46.675 77.0736 46.0338C75.5759 44.9819 73.9228 44.1554 72.1796 43.6044C71.9442 43.5292 71.7138 43.4591 71.4934 43.399C71.4382 43.384 71.3882 43.3689 71.3381 43.3589C71.0024 43.2687 70.6568 43.1886 70.3062 43.1736C69.7301 43.1535 69.1891 42.8129 68.7233 42.5023C68.2574 42.1867 67.8366 41.8461 67.3708 41.5456C67.0151 41.3151 66.6394 41.1198 66.2337 41.0046C65.9081 40.9094 65.5624 40.8743 65.2268 40.8192C62.6421 40.3985 60.6985 38.8506 58.5395 37.5232C58.3442 37.403 58.1638 37.2978 57.9935 37.2076C57.9935 37.2076 57.9935 37.2076 57.9835 37.2076C57.9334 37.1825 57.8833 37.1525 57.8332 37.1325C57.8232 37.1325 57.8132 37.1224 57.8032 37.1174C57.7631 37.0974 57.723 37.0774 57.683 37.0623C57.6679 37.0573 57.6579 37.0523 57.6429 37.0473C57.6078 37.0323 57.5728 37.0172 57.5377 37.0072C57.5227 37.0072 57.5126 36.9972 57.4976 36.9922C57.4676 36.9822 57.4325 36.9722 57.4024 36.9621C57.3924 36.9621 57.3774 36.9521 57.3674 36.9521C57.3373 36.9421 57.3023 36.9371 57.2772 36.9271C57.2672 36.9271 57.2622 36.9271 57.2522 36.9271C57.182 36.912 57.1169 36.912 57.0618 36.9171C57.0518 36.9171 57.0468 36.9171 57.0418 36.9171C57.0217 36.9171 57.0067 36.9271 56.9917 36.9321C56.9817 36.9321 56.9767 36.9421 56.9716 36.9471C56.9566 36.9571 56.9466 36.9621 56.9366 36.9722C56.9316 36.9772 56.9216 36.9872 56.9165 36.9922C56.9065 37.0022 56.9015 37.0172 56.8965 37.0323C56.8514 37.1325 56.8514 37.2577 56.8865 37.3579C56.9065 37.428 56.9566 37.4931 57.0017 37.5532C57.0468 37.6133 57.0919 37.6785 57.1319 37.7386C57.167 37.7887 57.1971 37.8337 57.2321 37.8838C57.2722 37.9389 57.3073 37.994 57.3473 38.0491C57.3924 38.1093 57.4325 38.1744 57.4776 38.2345C57.5227 38.2996 57.5728 38.3697 57.6178 38.4348C57.6679 38.51 57.723 38.5801 57.7681 38.6553C57.8232 38.7354 57.8783 38.8105 57.9334 38.8907C57.9935 38.9758 58.0486 39.056 58.1087 39.1411C58.1688 39.2263 58.229 39.3165 58.2941 39.4016C58.3542 39.4868 58.4193 39.582 58.4844 39.6721C58.5495 39.7623 58.6147 39.8625 58.6798 39.9526C58.7449 40.0478 58.815 40.148 58.8802 40.2432C58.9453 40.3383 59.0204 40.4385 59.0855 40.5387C59.1557 40.6389 59.2258 40.7391 59.2959 40.8393C59.3661 40.9395 59.4412 41.0396 59.5113 41.1448C59.5814 41.245 59.6566 41.3502 59.7267 41.4504C59.7968 41.5506 59.872 41.6558 59.9421 41.756C60.0122 41.8561 60.0874 41.9563 60.1575 42.0615C60.2276 42.1667 60.3028 42.2619 60.3729 42.3621C60.443 42.4623 60.5132 42.5624 60.5833 42.6576C60.6534 42.7578 60.7235 42.853 60.7937 42.9481C60.8638 43.0483 60.9289 43.1385 60.9991 43.2337C61.0692 43.3288 61.1343 43.419 61.1994 43.5092C61.2645 43.5993 61.3297 43.6895 61.3948 43.7747C61.4599 43.8598 61.52 43.945 61.5801 44.0301C61.6452 44.1153 61.7003 44.1904 61.7605 44.2706C61.8156 44.3457 61.8707 44.4209 61.9308 44.501C61.9859 44.5711 62.036 44.6413 62.0911 44.7114C62.1412 44.7765 62.1912 44.8416 62.2363 44.9068C62.2814 44.9669 62.3265 45.022 62.3716 45.0821C62.4016 45.1171 62.4317 45.1572 62.4567 45.1923C62.582 45.3526 62.6872 45.4728 62.7573 45.5579C63.3233 46.1791 62.3515 45.588 61.6202 45.4928C61.4399 45.4678 61.2696 45.4728 61.1443 45.5379C61.1443 45.5379 61.1443 45.5379 61.1343 45.5379C61.1143 45.5479 61.0992 45.5579 61.0842 45.573C61.0792 45.573 61.0742 45.583 61.0642 45.588C61.0491 45.598 61.0391 45.613 61.0291 45.6231C61.0291 45.6281 61.0191 45.6331 61.0141 45.6431C60.9991 45.6631 60.989 45.6832 60.974 45.7082C60.964 45.7283 60.954 45.7583 60.949 45.7834C60.949 45.7934 60.949 45.8034 60.944 45.8084C60.944 45.8284 60.9339 45.8535 60.9339 45.8785C60.9339 45.8886 60.9339 45.8986 60.9339 45.9086C60.8889 46.6199 61.3347 47.5566 61.6252 48.1878C61.9959 48.9893 62.4718 49.7456 63.0228 50.4369C64.1148 51.8145 65.5023 52.9065 66.7947 54.0736C66.8147 54.0936 66.8298 54.1087 66.8498 54.1237C66.8899 54.1638 66.935 54.1988 66.975 54.2389C67.0051 54.264 67.0301 54.289 67.0602 54.314C67.1003 54.3491 67.1403 54.3842 67.1804 54.4192C67.2005 54.4393 67.2255 54.4593 67.2505 54.4794C67.2956 54.5194 67.3457 54.5645 67.3908 54.6046C67.4108 54.6196 67.4259 54.6346 67.4459 54.6547C67.506 54.7098 67.5661 54.7599 67.6262 54.815C67.6513 54.84 67.6813 54.8651 67.7064 54.8851C67.7314 54.9051 67.7565 54.9302 67.7815 54.9502C67.7915 54.9602 67.8066 54.9703 67.8166 54.9803C67.8416 55.0053 67.8717 55.0304 67.8967 55.0504C67.9318 55.0805 67.9669 55.1155 68.0019 55.1456C68.027 55.1706 68.057 55.1957 68.0871 55.2207C68.1272 55.2558 68.1672 55.2908 68.2073 55.3309C68.2273 55.351 68.2474 55.366 68.2674 55.381C68.3275 55.4311 68.3826 55.4862 68.4427 55.5363C68.4628 55.5563 68.4828 55.5714 68.5029 55.5864C68.5429 55.6215 68.583 55.6565 68.6231 55.6916C68.6431 55.7116 68.6682 55.7266 68.6882 55.7467C68.7283 55.7817 68.7633 55.8118 68.8034 55.8469C68.8234 55.8669 68.8485 55.8869 68.8685 55.907C68.8735 55.912 68.8835 55.922 68.8886 55.927C68.9236 55.9571 68.9637 55.9921 68.9988 56.0222C69.0088 56.0322 69.0238 56.0422 69.0338 56.0522C69.0889 56.1023 69.144 56.1474 69.1941 56.1925C69.2142 56.2075 69.2292 56.2226 69.2442 56.2376C69.2793 56.2676 69.3143 56.3027 69.3494 56.3328C69.3694 56.3528 69.3895 56.3678 69.4145 56.3879C69.4496 56.4179 69.4796 56.448 69.5147 56.473C69.5347 56.488 69.5498 56.5031 69.5648 56.5181C69.6099 56.5582 69.655 56.5932 69.695 56.6283C69.7001 56.6283 69.7051 56.6383 69.7151 56.6433C69.7602 56.6834 69.8103 56.7235 69.8553 56.7585C69.8704 56.7736 69.8854 56.7836 69.9004 56.7936C69.9305 56.8187 69.9605 56.8437 69.9906 56.8687C70.0056 56.8838 70.0206 56.8938 70.0407 56.9088C70.0707 56.9339 70.1008 56.9589 70.1258 56.9789C70.1409 56.989 70.1509 56.999 70.1659 57.014C70.2461 57.0791 70.3212 57.1443 70.3963 57.1994C70.4064 57.2094 70.4164 57.2194 70.4264 57.2244C70.4514 57.2444 70.4715 57.2595 70.4965 57.2795C70.5065 57.2895 70.5216 57.2995 70.5316 57.3045C70.5516 57.3196 70.5717 57.3346 70.5967 57.3546C70.6067 57.3596 70.6167 57.3697 70.6268 57.3747C70.6568 57.3947 70.6819 57.4148 70.7069 57.4348C70.8121 57.5099 70.9123 57.5851 71.0175 57.6752C71.1177 57.7604 71.2178 57.8455 71.318 57.9357C71.3781 57.9858 71.4332 58.0409 71.4883 58.096C71.5034 58.111 71.5184 58.1261 71.5334 58.1411C71.5935 58.2012 71.6536 58.2563 71.7138 58.3164C71.7238 58.3264 71.7388 58.3415 71.7488 58.3515C71.8139 58.4166 71.8741 58.4817 71.9392 58.5468C71.9442 58.5568 71.9542 58.5619 71.9592 58.5719C72.0243 58.642 72.0894 58.7121 72.1546 58.7823C72.1546 58.7823 72.1546 58.7823 72.1596 58.7923C72.6805 59.3683 73.0963 60.0396 73.6373 60.5906C73.9579 60.9112 74.3386 61.1616 74.7243 61.4021C76.1419 62.2787 77.6447 63.0251 79.2075 63.6011C79.8287 63.8316 80.4999 64.0469 81.2062 64.2323C81.8975 64.4176 82.6188 64.5679 83.3451 64.6681C83.6257 64.7082 83.9012 64.7382 84.1817 64.7583C84.2067 64.7583 84.2318 64.7583 84.2518 64.7633C84.5524 64.7833 84.8529 64.7983 85.1485 64.7983H85.1585C85.3138 64.7983 85.469 64.7983 85.6193 64.7883C85.9249 64.7733 86.2304 64.7482 86.526 64.7082C86.8215 64.6681 87.1171 64.608 87.4026 64.5378C87.9085 64.4076 88.3844 64.2223 88.8352 63.9818C89.1608 63.8065 89.4714 63.6011 89.7619 63.3557C90.2528 62.9399 90.7688 62.469 90.9541 61.8329C90.9992 61.6776 91.0343 61.5023 91.0493 61.3019C91.0593 61.1817 91.0593 61.0514 91.0493 60.9112H91.0443L91.0092 60.9262Z" fill="#D094B0"/>
<path d="M91.0095 60.9273C91.0095 60.8472 90.9945 60.762 90.9844 60.6769C90.9694 60.5566 90.9444 60.4314 90.9143 60.3012C90.9043 60.2611 90.8943 60.216 90.8843 60.1759C90.6639 59.3644 90.1529 58.3375 89.126 57.0602C89.0659 56.9851 89.0058 56.9099 88.9407 56.8298C88.9207 56.8047 88.9006 56.7797 88.8806 56.7596C88.8806 56.7596 88.8706 56.7496 88.8706 56.7446C88.8455 56.7146 88.8205 56.6845 88.7954 56.6545C88.7804 56.6344 88.7604 56.6144 88.7403 56.5893C88.7203 56.5643 88.6952 56.5342 88.6702 56.5092C88.6351 56.4691 88.6001 56.434 88.57 56.394C88.55 56.3689 88.5249 56.3439 88.4999 56.3188C88.4848 56.2988 88.4698 56.2838 88.4548 56.2637C88.3997 56.2036 88.3446 56.1435 88.2895 56.0784C88.2995 56.3188 88.3045 56.5543 88.3095 56.7947C88.3195 58.0921 88.2594 59.69 87.3277 60.7069C86.4511 61.6587 84.9684 61.8039 83.7612 61.6486C82.2434 61.4583 80.7957 60.8973 79.4232 60.2461C78.1008 59.6199 76.8334 58.8886 75.6012 58.1121C74.1385 57.1904 72.7159 56.1936 71.3133 55.1817C69.5651 53.9144 67.8569 52.587 66.269 51.1243C66.269 51.1243 66.259 51.1143 66.254 51.1093C65.3223 50.2477 65.0167 48.8952 65.4926 47.718C65.5226 47.6379 65.5577 47.5677 65.5877 47.5026C65.8582 46.9716 66.254 46.4958 66.7799 46.2654C66.0686 45.4789 65.3323 44.7175 64.5959 43.9561C63.3937 42.7188 62.2416 41.4315 61.1346 40.104C60.6537 39.523 60.1477 38.9168 59.7169 38.2706C59.3262 38.0152 58.9305 37.7647 58.5298 37.5143C58.3344 37.394 58.1541 37.2888 57.9838 37.1987C57.9838 37.1987 57.9838 37.1987 57.9737 37.1987C57.9237 37.1736 57.8736 37.1436 57.8235 37.1235C57.8134 37.1235 57.8034 37.1135 57.7934 37.1085C57.7533 37.0885 57.7133 37.0684 57.6732 37.0534C57.6582 37.0484 57.6481 37.0434 57.6331 37.0384C57.5981 37.0234 57.563 37.0083 57.5279 36.9983C57.5129 36.9983 57.5029 36.9883 57.4878 36.9833C57.4578 36.9733 57.4227 36.9582 57.3927 36.9532C57.3827 36.9532 57.3676 36.9432 57.3576 36.9432C57.3276 36.9332 57.2925 36.9282 57.2674 36.9232C57.2574 36.9232 57.2524 36.9232 57.2424 36.9232C57.1723 36.9081 57.1071 36.9081 57.052 36.9132C57.042 36.9132 57.037 36.9132 57.032 36.9132C57.012 36.9132 56.9969 36.9232 56.9819 36.9282C56.9719 36.9282 56.9669 36.9382 56.9619 36.9432C56.9469 36.9532 56.9368 36.9582 56.9268 36.9683C56.9218 36.9733 56.9118 36.9833 56.9068 36.9883C56.8968 36.9983 56.8918 37.0133 56.8867 37.0284C56.8417 37.1285 56.8417 37.2538 56.8767 37.354C56.8968 37.4241 56.9469 37.4892 56.9919 37.5493C57.037 37.6094 57.0821 37.6746 57.1222 37.7347C57.1572 37.7848 57.1873 37.8298 57.2224 37.8799C57.2624 37.935 57.2975 37.9901 57.3376 38.0452C57.3827 38.1053 57.4227 38.1705 57.4678 38.2306C57.5129 38.2957 57.563 38.3658 57.6081 38.4309C57.6582 38.5061 57.7133 38.5762 57.7583 38.6513C57.8134 38.7315 57.8686 38.8066 57.9237 38.8868C57.9838 38.9719 58.0389 39.0521 58.099 39.1372C58.1591 39.2224 58.2192 39.3126 58.2843 39.3977C58.3494 39.4879 58.4095 39.5781 58.4747 39.6682C58.5398 39.7634 58.6049 39.8586 58.67 39.9487C58.7351 40.0439 58.8053 40.1441 58.8704 40.2393C58.9405 40.3395 59.0106 40.4346 59.0758 40.5348C59.1459 40.635 59.216 40.7352 59.2862 40.8354C59.3563 40.9355 59.4314 41.0357 59.5016 41.1409C59.5717 41.2411 59.6468 41.3463 59.7169 41.4465C59.7871 41.5467 59.8622 41.6519 59.9323 41.7521C60.0025 41.8522 60.0776 41.9524 60.1477 42.0576C60.2179 42.1578 60.293 42.258 60.3631 42.3582C60.4333 42.4583 60.5034 42.5585 60.5735 42.6537C60.6437 42.7539 60.7138 42.8491 60.7839 42.9442C60.854 43.0394 60.9192 43.1346 60.9893 43.2298C61.0544 43.3199 61.1245 43.4151 61.1897 43.5053C61.2548 43.5954 61.3199 43.6856 61.385 43.7708C61.4501 43.8559 61.5102 43.9411 61.5704 44.0262C61.6305 44.1064 61.6906 44.1865 61.7507 44.2667C61.8058 44.3418 61.8609 44.417 61.921 44.4971C61.9761 44.5672 62.0262 44.6374 62.0813 44.7075C62.1314 44.7726 62.1815 44.8377 62.2266 44.9028C62.2716 44.963 62.3167 45.0181 62.3618 45.0782C62.3919 45.1132 62.4219 45.1533 62.447 45.1884C62.5722 45.3487 62.6774 45.4689 62.7475 45.554C63.3136 46.1752 62.3418 45.5841 61.6104 45.4889C61.4301 45.4639 61.2598 45.4689 61.1346 45.534C61.1346 45.534 61.1346 45.534 61.1245 45.534C61.1045 45.544 61.0895 45.554 61.0744 45.5691C61.0694 45.5691 61.0644 45.5791 61.0544 45.5841C61.0394 45.5941 61.0294 45.6091 61.0193 45.6192C61.0193 45.6242 61.0093 45.6292 61.0043 45.6392C60.9893 45.6592 60.9793 45.6793 60.9642 45.7043C60.9542 45.7244 60.9442 45.7544 60.9392 45.7795C60.9392 45.7895 60.9392 45.7995 60.9342 45.8045C60.9342 45.8295 60.9242 45.8496 60.9242 45.8746C60.9242 45.8846 60.9242 45.8947 60.9242 45.9047C60.8791 46.616 61.3249 47.5527 61.6154 48.1839C61.9861 48.9854 62.462 49.7417 63.013 50.433C63.1332 50.5883 63.2635 50.7386 63.3937 50.8889C63.4188 50.9189 63.4438 50.944 63.4688 50.974C63.5891 51.1093 63.7143 51.2445 63.8395 51.3798C63.8746 51.4148 63.9097 51.4549 63.9447 51.49C64.0599 51.6102 64.1802 51.7254 64.2954 51.8406C64.3455 51.8907 64.4006 51.9408 64.4507 51.9909C64.5358 52.071 64.616 52.1462 64.7011 52.2263C64.8564 52.3716 65.0117 52.5118 65.167 52.6521C65.703 53.128 66.244 53.5938 66.7699 54.0697C66.79 54.0897 66.805 54.1048 66.825 54.1198C66.8651 54.1599 66.9102 54.1949 66.9502 54.235C66.9803 54.2601 67.0054 54.2851 67.0354 54.3101C67.0755 54.3452 67.1156 54.3803 67.1556 54.4153C67.1757 54.4354 67.2007 54.4554 67.2258 54.4754C67.2708 54.5155 67.3209 54.5606 67.366 54.6007C67.3861 54.6157 67.4011 54.6307 67.4211 54.6508C67.4812 54.7059 67.5413 54.756 67.6014 54.8111C67.6265 54.8361 67.6565 54.8612 67.6816 54.8812C67.7066 54.9012 67.7317 54.9263 67.7567 54.9463C67.7668 54.9563 67.7818 54.9664 67.7918 54.9764C67.8168 55.0014 67.8469 55.0265 67.8719 55.0465C67.907 55.0766 67.9421 55.1116 67.9771 55.1417C68.0022 55.1667 68.0322 55.1918 68.0623 55.2168C68.1024 55.2519 68.1424 55.2869 68.1825 55.327C68.2026 55.347 68.2226 55.3621 68.2426 55.3771C68.3027 55.4272 68.3578 55.4823 68.4179 55.5324C68.438 55.5524 68.458 55.5675 68.4781 55.5825C68.5181 55.6175 68.5582 55.6526 68.5983 55.6877C68.6183 55.7077 68.6434 55.7227 68.6634 55.7428C68.7035 55.7778 68.7385 55.8079 68.7786 55.843C68.7986 55.863 68.8237 55.883 68.8437 55.9031C68.8487 55.9081 68.8588 55.9181 68.8638 55.9231C68.8988 55.9532 68.9389 55.9882 68.974 56.0183C68.984 56.0283 68.999 56.0383 69.009 56.0483C69.0641 56.0984 69.1192 56.1435 69.1693 56.1886C69.1894 56.2036 69.2044 56.2187 69.2194 56.2337C69.2545 56.2637 69.2896 56.2988 69.3296 56.3289C69.3497 56.3489 69.3697 56.3639 69.3947 56.384C69.4298 56.414 69.4599 56.4441 69.4949 56.4691C69.515 56.4841 69.53 56.4992 69.545 56.5142C69.5901 56.5543 69.6352 56.5893 69.6753 56.6244C69.6803 56.6244 69.6853 56.6344 69.6953 56.6394C69.7404 56.6795 69.7905 56.7196 69.8356 56.7546C69.8506 56.7697 69.8656 56.7797 69.8806 56.7897C69.9107 56.8147 69.9407 56.8398 69.9708 56.8648C69.9858 56.8799 70.0009 56.8899 70.0209 56.9049C70.051 56.93 70.081 56.955 70.1061 56.975C70.1211 56.9851 70.1311 57.0001 70.1461 57.0101C70.2263 57.0752 70.3014 57.1403 70.3765 57.1954C70.3866 57.2055 70.3966 57.2155 70.4066 57.2205C70.4317 57.2405 70.4517 57.2556 70.4767 57.2756C70.4868 57.2856 70.5018 57.2956 70.5118 57.3006C70.5318 57.3157 70.5519 57.3307 70.5769 57.3507C70.5869 57.3557 70.597 57.3658 70.607 57.3708C70.637 57.3908 70.6621 57.4108 70.6871 57.4309C70.7923 57.506 70.8925 57.5812 70.9977 57.6713C71.0979 57.7565 71.1981 57.8416 71.2982 57.9318C71.3584 57.9819 71.4135 58.037 71.4686 58.0921C71.4836 58.1071 71.4986 58.1222 71.5136 58.1372C71.5738 58.1973 71.6339 58.2524 71.694 58.3125C71.704 58.3225 71.719 58.3325 71.729 58.3476C71.7942 58.4127 71.8543 58.4778 71.9194 58.5429C71.9244 58.5529 71.9344 58.558 71.9394 58.563C72.0045 58.6331 72.0697 58.7032 72.1348 58.7734C72.1348 58.7734 72.1348 58.7734 72.1398 58.7834C72.6608 59.3594 73.0765 60.0307 73.6175 60.5817C73.9381 60.9023 74.3188 61.1527 74.7045 61.3932C76.1221 62.2698 77.6249 63.0162 79.1878 63.5922C79.8089 63.8226 80.4801 64.038 81.1864 64.2234C81.8777 64.4087 82.599 64.559 83.3254 64.6592C83.6059 64.6992 83.8814 64.7293 84.1619 64.7493C84.1869 64.7493 84.212 64.7493 84.232 64.7543C84.5326 64.7744 84.8331 64.7894 85.1287 64.7894H85.1387C85.294 64.7894 85.4493 64.7894 85.5995 64.7794C85.9051 64.7644 86.2107 64.7393 86.5062 64.6992C86.8018 64.6592 87.0973 64.5991 87.3828 64.5289C87.8888 64.3987 88.3646 64.2134 88.8155 63.9729C89.1411 63.7976 89.4516 63.5922 89.7422 63.3468C90.2331 62.931 90.749 62.4601 90.9344 61.824C90.9794 61.6687 91.0145 61.4934 91.0295 61.293C91.0395 61.1728 91.0395 61.0425 91.0295 60.9023L91.0095 60.9273Z" fill="#FA4F96"/>
</svg>
