<?xml version="1.0" encoding="UTF-8"?>
<!--Generator: Apple Native CoreSVG 232.5-->
<!DOCTYPE svg
PUBLIC "-//W3C//DTD SVG 1.1//EN"
       "http://www.w3.org/Graphics/SVG/1.1/DTD/svg11.dtd">
<svg version="1.1" xmlns="http://www.w3.org/2000/svg" xmlns:xlink="http://www.w3.org/1999/xlink" width="3300" height="2200">
 <!--glyph: "", point size: 100.0, font version: "19.0d6e1", template writer version: "123"-->
 <style>.SFSymbolsPreviewWireframe {fill:none;opacity:1.0;stroke:black;stroke-width:0.5}
</style>
 <g id="Notes">
  <rect height="2200" id="artboard" style="fill:white;opacity:1" width="3300" x="0" y="0"/>
  <line style="fill:none;stroke:black;opacity:1;stroke-width:0.5;" x1="263" x2="3036" y1="292" y2="292"/>
  <text style="stroke:none;fill:black;font-family:sans-serif;font-size:13;font-weight:bold;" transform="matrix(1 0 0 1 263 322)">Weight/Scale Variations</text>
  <text style="stroke:none;fill:black;font-family:sans-serif;font-size:13;text-anchor:middle;" transform="matrix(1 0 0 1 559.711 322)">Ultralight</text>
  <text style="stroke:none;fill:black;font-family:sans-serif;font-size:13;text-anchor:middle;" transform="matrix(1 0 0 1 856.422 322)">Thin</text>
  <text style="stroke:none;fill:black;font-family:sans-serif;font-size:13;text-anchor:middle;" transform="matrix(1 0 0 1 1153.13 322)">Light</text>
  <text style="stroke:none;fill:black;font-family:sans-serif;font-size:13;text-anchor:middle;" transform="matrix(1 0 0 1 1449.84 322)">Regular</text>
  <text style="stroke:none;fill:black;font-family:sans-serif;font-size:13;text-anchor:middle;" transform="matrix(1 0 0 1 1746.56 322)">Medium</text>
  <text style="stroke:none;fill:black;font-family:sans-serif;font-size:13;text-anchor:middle;" transform="matrix(1 0 0 1 2043.27 322)">Semibold</text>
  <text style="stroke:none;fill:black;font-family:sans-serif;font-size:13;text-anchor:middle;" transform="matrix(1 0 0 1 2339.98 322)">Bold</text>
  <text style="stroke:none;fill:black;font-family:sans-serif;font-size:13;text-anchor:middle;" transform="matrix(1 0 0 1 2636.69 322)">Heavy</text>
  <text style="stroke:none;fill:black;font-family:sans-serif;font-size:13;text-anchor:middle;" transform="matrix(1 0 0 1 2933.4 322)">Black</text>
  <line style="fill:none;stroke:black;opacity:1;stroke-width:0.5;" x1="263" x2="3036" y1="1903" y2="1903"/>
  <g transform="matrix(0.2 0 0 0.2 263 1933)">
   <path d="m46.2402 4.15039c21.5332 0 39.4531-17.8711 39.4531-39.4043s-17.9688-39.4043-39.502-39.4043c-21.4844 0-39.3555 17.8711-39.3555 39.4043s17.9199 39.4043 39.4043 39.4043Zm0-7.42188c-17.7246 0-31.8848-14.209-31.8848-31.9824s14.1113-31.9824 31.8359-31.9824c17.7734 0 32.0312 14.209 32.0312 31.9824s-14.209 31.9824-31.9824 31.9824Zm-17.9688-31.9824c0 2.14844 1.51367 3.61328 3.75977 3.61328h10.498v10.5957c0 2.19727 1.46484 3.71094 3.61328 3.71094 2.24609 0 3.71094-1.51367 3.71094-3.71094v-10.5957h10.5957c2.19727 0 3.71094-1.46484 3.71094-3.61328 0-2.19727-1.51367-3.71094-3.71094-3.71094h-10.5957v-10.5469c0-2.24609-1.46484-3.75977-3.71094-3.75977-2.14844 0-3.61328 1.51367-3.61328 3.75977v10.5469h-10.498c-2.24609 0-3.75977 1.51367-3.75977 3.71094Z"/>
  </g>
  <g transform="matrix(0.2 0 0 0.2 281.506 1933)">
   <path d="m58.5449 14.5508c27.2461 0 49.8047-22.6074 49.8047-49.8047 0-27.2461-22.6074-49.8047-49.8535-49.8047-27.1973 0-49.7559 22.5586-49.7559 49.8047 0 27.1973 22.6074 49.8047 49.8047 49.8047Zm0-8.30078c-23.0469 0-41.4551-18.457-41.4551-41.5039s18.3594-41.5039 41.4062-41.5039 41.5527 18.457 41.5527 41.5039-18.457 41.5039-41.5039 41.5039Zm-22.6562-41.5039c0 2.39258 1.66016 4.00391 4.15039 4.00391h14.3555v14.4043c0 2.44141 1.66016 4.15039 4.05273 4.15039 2.44141 0 4.15039-1.66016 4.15039-4.15039v-14.4043h14.4043c2.44141 0 4.15039-1.61133 4.15039-4.00391 0-2.44141-1.70898-4.15039-4.15039-4.15039h-14.4043v-14.3555c0-2.49023-1.70898-4.19922-4.15039-4.19922-2.39258 0-4.05273 1.70898-4.05273 4.19922v14.3555h-14.3555c-2.49023 0-4.15039 1.70898-4.15039 4.15039Z"/>
  </g>
  <g transform="matrix(0.2 0 0 0.2 304.924 1933)">
   <path d="m74.8535 28.3203c34.8145 0 63.623-28.8086 63.623-63.5742 0-34.8145-28.8574-63.623-63.6719-63.623-34.7656 0-63.5254 28.8086-63.5254 63.623 0 34.7656 28.8086 63.5742 63.5742 63.5742Zm0-9.08203c-30.1758 0-54.4434-24.3164-54.4434-54.4922 0-30.2246 24.2188-54.4922 54.3945-54.4922 30.2246 0 54.541 24.2676 54.541 54.4922 0 30.1758-24.2676 54.4922-54.4922 54.4922Zm-28.8574-54.4922c0 2.58789 1.85547 4.39453 4.58984 4.39453h19.7266v19.7754c0 2.68555 1.85547 4.58984 4.44336 4.58984 2.68555 0 4.54102-1.85547 4.54102-4.58984v-19.7754h19.7754c2.68555 0 4.58984-1.80664 4.58984-4.39453 0-2.73438-1.85547-4.58984-4.58984-4.58984h-19.7754v-19.7266c0-2.73438-1.85547-4.63867-4.54102-4.63867-2.58789 0-4.44336 1.9043-4.44336 4.63867v19.7266h-19.7266c-2.73438 0-4.58984 1.85547-4.58984 4.58984Z"/>
  </g>
  <text style="stroke:none;fill:black;font-family:sans-serif;font-size:13;font-weight:bold;" transform="matrix(1 0 0 1 263 1953)">Design Variations</text>
  <text style="stroke:none;fill:black;font-family:sans-serif;font-size:13;" transform="matrix(1 0 0 1 263 1971)">Symbols are supported in up to nine weights and three scales.</text>
  <text style="stroke:none;fill:black;font-family:sans-serif;font-size:13;" transform="matrix(1 0 0 1 263 1989)">For optimal layout with text and other symbols, vertically align</text>
  <text style="stroke:none;fill:black;font-family:sans-serif;font-size:13;" transform="matrix(1 0 0 1 263 2007)">symbols with the adjacent text.</text>
  <line style="fill:none;stroke:#00AEEF;stroke-width:0.5;opacity:1.0;" x1="776" x2="776" y1="1919" y2="1933"/>
  <g transform="matrix(0.2 0 0 0.2 776 1933)">
   <path d="m16.5527 0.78125c2.58789 0 3.85742-0.976562 4.78516-3.71094l6.29883-17.2363h28.8086l6.29883 17.2363c0.927734 2.73438 2.19727 3.71094 4.73633 3.71094 2.58789 0 4.24805-1.5625 4.24805-4.00391 0-0.830078-0.146484-1.61133-0.537109-2.63672l-22.9004-60.9863c-1.12305-2.97852-3.125-4.49219-6.25-4.49219-3.02734 0-5.07812 1.46484-6.15234 4.44336l-22.9004 61.084c-0.390625 1.02539-0.537109 1.80664-0.537109 2.63672 0 2.44141 1.5625 3.95508 4.10156 3.95508Zm13.4766-28.3691 11.8652-32.8613h0.244141l11.8652 32.8613Z"/>
  </g>
  <line style="fill:none;stroke:#00AEEF;stroke-width:0.5;opacity:1.0;" x1="792.836" x2="792.836" y1="1919" y2="1933"/>
  <text style="stroke:none;fill:black;font-family:sans-serif;font-size:13;font-weight:bold;" transform="matrix(1 0 0 1 776 1953)">Margins</text>
  <text style="stroke:none;fill:black;font-family:sans-serif;font-size:13;" transform="matrix(1 0 0 1 776 1971)">Leading and trailing margins on the left and right side of each symbol</text>
  <text style="stroke:none;fill:black;font-family:sans-serif;font-size:13;" transform="matrix(1 0 0 1 776 1989)">can be adjusted by modifying the x-location of the margin guidelines.</text>
  <text style="stroke:none;fill:black;font-family:sans-serif;font-size:13;" transform="matrix(1 0 0 1 776 2007)">Modifications are automatically applied proportionally to all</text>
  <text style="stroke:none;fill:black;font-family:sans-serif;font-size:13;" transform="matrix(1 0 0 1 776 2025)">scales and weights.</text>
  <g transform="matrix(0.2 0 0 0.2 1289 1933)">
   <path d="m14.209 9.32617 8.49609 8.54492c4.29688 4.3457 9.22852 4.05273 13.8672-1.07422l53.4668-58.9355-4.83398-4.88281-53.0762 58.3984c-1.75781 2.00195-3.41797 2.49023-5.76172 0.146484l-5.85938-5.81055c-2.34375-2.29492-1.80664-4.00391 0.195312-5.81055l57.373-54.0039-4.88281-4.83398-57.959 54.4434c-4.93164 4.58984-5.32227 9.47266-1.02539 13.8184Zm32.0801-90.9668c-2.09961 2.05078-2.24609 4.93164-1.07422 6.88477 1.17188 1.80664 3.4668 2.97852 6.68945 2.14844 7.32422-1.70898 14.9414-2.00195 22.0703 2.68555l-2.92969 7.27539c-1.70898 4.15039-0.830078 7.08008 1.85547 9.81445l11.4746 11.5723c2.44141 2.44141 4.49219 2.53906 7.32422 2.05078l5.32227-0.976562 3.32031 3.36914-0.195312 2.7832c-0.195312 2.49023 0.439453 4.39453 2.88086 6.78711l3.80859 3.71094c2.39258 2.39258 5.46875 2.53906 7.8125 0.195312l14.5508-14.5996c2.34375-2.34375 2.24609-5.32227-0.146484-7.71484l-3.85742-3.80859c-2.39258-2.39258-4.24805-3.17383-6.64062-2.97852l-2.88086 0.244141-3.22266-3.17383 1.2207-5.61523c0.634766-2.83203-0.146484-5.0293-3.07617-7.95898l-10.9863-10.9375c-16.6992-16.6016-38.8672-16.2109-53.3203-1.75781Zm7.4707 1.85547c12.1582-8.88672 28.6133-7.37305 39.7461 3.75977l12.1582 12.0605c1.17188 1.17188 1.36719 2.09961 1.02539 3.80859l-1.61133 7.42188 7.51953 7.42188 4.93164-0.292969c1.26953-0.0488281 1.66016 0.0488281 2.63672 1.02539l2.88086 2.88086-12.207 12.207-2.88086-2.88086c-0.976562-0.976562-1.12305-1.36719-1.07422-2.68555l0.341797-4.88281-7.4707-7.42188-7.61719 1.26953c-1.61133 0.341797-2.34375 0.195312-3.56445-0.976562l-10.0098-10.0098c-1.26953-1.17188-1.41602-2.00195-0.634766-3.85742l4.39453-10.4492c-7.8125-7.27539-17.9688-10.4004-28.125-7.42188-0.78125 0.195312-1.07422-0.439453-0.439453-0.976562Z"/>
  </g>
  <text style="stroke:none;fill:black;font-family:sans-serif;font-size:13;font-weight:bold;" transform="matrix(1 0 0 1 1289 1953)">Exporting</text>
  <text style="stroke:none;fill:black;font-family:sans-serif;font-size:13;" transform="matrix(1 0 0 1 1289 1971)">Symbols should be outlined when exporting to ensure the</text>
  <text style="stroke:none;fill:black;font-family:sans-serif;font-size:13;" transform="matrix(1 0 0 1 1289 1989)">design is preserved when submitting to Xcode.</text>
  <text id="template-version" style="stroke:none;fill:black;font-family:sans-serif;font-size:13;text-anchor:end;" transform="matrix(1 0 0 1 3036 1933)">Template v.5.0</text>
  <text style="stroke:none;fill:black;font-family:sans-serif;font-size:13;text-anchor:end;" transform="matrix(1 0 0 1 3036 1951)">Requires Xcode 15 or greater</text>
  <text id="descriptive-name" style="stroke:none;fill:black;font-family:sans-serif;font-size:13;text-anchor:end;" transform="matrix(1 0 0 1 3036 1969)">Generated from fiori.time.overtime</text>
  <text style="stroke:none;fill:black;font-family:sans-serif;font-size:13;text-anchor:end;" transform="matrix(1 0 0 1 3036 1987)">Typeset at 100.0 points</text>
  <text style="stroke:none;fill:black;font-family:sans-serif;font-size:13;" transform="matrix(1 0 0 1 263 726)">Small</text>
  <text style="stroke:none;fill:black;font-family:sans-serif;font-size:13;" transform="matrix(1 0 0 1 263 1156)">Medium</text>
  <text style="stroke:none;fill:black;font-family:sans-serif;font-size:13;" transform="matrix(1 0 0 1 263 1586)">Large</text>
 </g>
 <g id="Guides">
  <g id="H-reference" style="fill:#27AAE1;stroke:none;" transform="matrix(1 0 0 1 339 696)">
   <path d="M0.993654 0L3.63775 0L29.3281-67.1323L30.0303-67.1323L30.0303-70.459L28.1226-70.459ZM11.6885-24.4799L46.9815-24.4799L46.2315-26.7285L12.4385-26.7285ZM55.1196 0L57.7637 0L30.6382-70.459L29.4326-70.459L29.4326-67.1323Z"/>
  </g>
  <line id="Baseline-S" style="fill:none;stroke:#27AAE1;opacity:1;stroke-width:0.5;" x1="263" x2="3036" y1="696" y2="696"/>
  <line id="Capline-S" style="fill:none;stroke:#27AAE1;opacity:1;stroke-width:0.5;" x1="263" x2="3036" y1="625.541" y2="625.541"/>
  <g id="H-reference" style="fill:#27AAE1;stroke:none;" transform="matrix(1 0 0 1 339 1126)">
   <path d="M0.993654 0L3.63775 0L29.3281-67.1323L30.0303-67.1323L30.0303-70.459L28.1226-70.459ZM11.6885-24.4799L46.9815-24.4799L46.2315-26.7285L12.4385-26.7285ZM55.1196 0L57.7637 0L30.6382-70.459L29.4326-70.459L29.4326-67.1323Z"/>
  </g>
  <line id="Baseline-M" style="fill:none;stroke:#27AAE1;opacity:1;stroke-width:0.5;" x1="263" x2="3036" y1="1126" y2="1126"/>
  <line id="Capline-M" style="fill:none;stroke:#27AAE1;opacity:1;stroke-width:0.5;" x1="263" x2="3036" y1="1055.54" y2="1055.54"/>
  <g id="H-reference" style="fill:#27AAE1;stroke:none;" transform="matrix(1 0 0 1 339 1556)">
   <path d="M0.993654 0L3.63775 0L29.3281-67.1323L30.0303-67.1323L30.0303-70.459L28.1226-70.459ZM11.6885-24.4799L46.9815-24.4799L46.2315-26.7285L12.4385-26.7285ZM55.1196 0L57.7637 0L30.6382-70.459L29.4326-70.459L29.4326-67.1323Z"/>
  </g>
  <line id="Baseline-L" style="fill:none;stroke:#27AAE1;opacity:1;stroke-width:0.5;" x1="263" x2="3036" y1="1556" y2="1556"/>
  <line id="Capline-L" style="fill:none;stroke:#27AAE1;opacity:1;stroke-width:0.5;" x1="263" x2="3036" y1="1485.54" y2="1485.54"/>
  <line id="left-margin-Ultralight-S" style="fill:none;stroke:#00AEEF;stroke-width:0.5;opacity:1.0;" x1="515.011" x2="515.011" y1="600.785" y2="720.121"/>
  <line id="right-margin-Ultralight-S" style="fill:none;stroke:#00AEEF;stroke-width:0.5;opacity:1.0;" x1="604.411" x2="604.411" y1="600.785" y2="720.121"/>
  <line id="left-margin-Regular-S" style="fill:none;stroke:#00AEEF;stroke-width:0.5;opacity:1.0;" x1="1403.39" x2="1403.39" y1="600.785" y2="720.121"/>
  <line id="right-margin-Regular-S" style="fill:none;stroke:#00AEEF;stroke-width:0.5;opacity:1.0;" x1="1496.29" x2="1496.29" y1="600.785" y2="720.121"/>
  <line id="left-margin-Black-S" style="fill:none;stroke:#00AEEF;stroke-width:0.5;opacity:1.0;" x1="2884.9" x2="2884.9" y1="600.785" y2="720.121"/>
  <line id="right-margin-Black-S" style="fill:none;stroke:#00AEEF;stroke-width:0.5;opacity:1.0;" x1="2981.9" x2="2981.9" y1="600.785" y2="720.121"/>
 </g>
 <g id="Symbols">
  <g id="Black-S" transform="matrix(1 0 0 1 2884.9 696)">
   <path class="SFSymbolsPreviewWireframe" d="M37.21-13.3C35.81-13.3 34.71-13.8 33.91-14.4C31.71-16 30.81-19.6 32.71-22.1L44.01-37.5L44.01-56.8C44.01-58.9 45.71-62.3 49.51-62.3C53.31-62.3 55.01-59.2 55.01-56.8L55.01-35.7C55.01-34.5 54.61-33.4 53.91-32.4L41.61-15.5C40.81-14.4 39.31-13.3 37.21-13.3ZM49.51 7.3L48.71 7.3C26.11 7.3 6.01-10.4 6.01-35.3C6.01-58 24.21-77.8 48.51-77.8C68.61-77.8 85.01-64 89.71-45.9C90.31-43.7 89.61-40.3 85.71-39.2C82.41-38.2 79.61-40.8 79.01-43.2C75.01-57.6 62.21-66.8 48.51-66.8C32.21-66.7 17.01-53.4 17.01-35.3C17.01-18.6 30.41-3.8 48.51-3.8L49.51-3.8C52.51-3.8 55.01-1.4 55.01 1.7C55.01 4.6 52.61 7.3 49.51 7.3ZM79.71 1.6L68.01 1.6C64.81 1.6 63.01-1.1 63.01-3.4C63.01-6.5 65.71-8.4 68.01-8.4L79.71-8.4C80.21-8.4 80.61-8.7 80.61-9.1C80.61-9.5 80.21-9.8 79.71-9.8L73.91-9.8C67.41-9.8 63.11-15.2 63.11-20.5C63.11-25.9 67.51-31 73.91-31L85.61-31C88.91-31 90.61-28.3 90.61-26C90.61-23.7 88.91-21 85.61-21L73.81-21C73.41-21 72.91-20.7 72.91-20.3C72.91-19.9 73.41-19.6 73.81-19.6L79.61-19.6C85.11-19.6 90.41-15.4 90.41-9C90.51-2.7 85.21 1.6 79.71 1.6ZM76.81-23.9C74.11-23.9 71.81-26.1 71.81-28.9L71.81-31.2C71.81-33.9 74.01-36.2 76.81-36.2C79.51-36.2 81.81-34 81.81-31.2L81.81-28.9C81.71-26.1 79.51-23.9 76.81-23.9ZM76.81 6.7C74.11 6.7 71.81 4.5 71.81 1.7L71.81-0.6C71.81-3.3 74.01-5.6 76.81-5.6C79.51-5.6 81.81-3.4 81.81-0.6L81.81 1.7C81.71 4.5 79.51 6.7 76.81 6.7Z"/>
  </g>
  <g id="Regular-S" transform="matrix(1 0 0 1 1403.39 696)">
   <path class="SFSymbolsPreviewWireframe" d="M35.16-14.7C34.36-14.7 33.46-15 32.76-15.5C30.96-16.8 30.56-19.4 31.86-21.2L43.46-37L43.46-56.8C43.46-59.1 45.26-60.9 47.56-60.9C49.86-60.9 51.66-59.1 51.66-56.8L51.66-35.7C51.66-34.8 51.36-34 50.86-33.3L38.56-16.4C37.66-15.3 36.46-14.7 35.16-14.7ZM47.56 5.9L46.56 5.9C23.86 5.9 5.36-12.6 5.36-35.3C5.36-58 23.76-76.4 46.46-76.4C65.26-76.4 81.66-63.7 86.26-45.6C86.86-43.4 85.46-41.2 83.26-40.6C81.06-40 78.86-41.4 78.26-43.6C74.66-58 61.56-68.1 46.46-68.1C28.36-68.1 13.56-53.3 13.56-35.2C13.56-17.1 28.36-2.3 46.46-2.3L47.46-2.3C49.76-2.3 51.56-0.5 51.56 1.8C51.66 4 49.76 5.9 47.56 5.9ZM77.66 0.7L66.06 0.7C63.76 0.7 61.96-1.1 61.96-3.4C61.96-5.7 63.76-7.5 66.06-7.5L77.76-7.5C78.66-7.5 79.46-8.2 79.46-9C79.46-9.9 78.66-10.5 77.76-10.5L71.96-10.5C66.46-10.5 62.06-14.9 62.06-20.3C62.06-25.7 66.56-30.1 71.96-30.1L83.66-30.1C85.96-30.1 87.76-28.3 87.76-26C87.76-23.7 85.96-21.9 83.66-21.9L71.86-21.9C70.96-21.9 70.16-21.2 70.16-20.4C70.16-19.5 70.96-18.9 71.86-18.9L77.66-18.9C83.16-18.9 87.56-14.5 87.56-9.1C87.66-3.7 83.16 0.7 77.66 0.7ZM74.76-25C72.46-25 70.66-26.8 70.66-29.1L70.66-31.2C70.66-33.5 72.46-35.3 74.76-35.3C77.06-35.3 78.86-33.5 78.86-31.2L78.86-29.1C78.86-26.8 77.06-25 74.76-25ZM74.76 5.9C72.46 5.9 70.66 4.1 70.66 1.8L70.66-0.3C70.66-2.6 72.46-4.4 74.76-4.4C77.06-4.4 78.86-2.6 78.86-0.3L78.86 1.8C78.86 4 77.06 5.9 74.76 5.9Z"/>
  </g>
  <g id="Ultralight-S" transform="matrix(1 0 0 1 515.011 696)">
   <path class="SFSymbolsPreviewWireframe" d="M33.475-17.5C33.275-17.5 32.975-17.6 32.775-17.7C32.275-18.2 32.075-18.7 32.475-19.5L44.575-36.1L44.575-56.8C44.575-57.3 44.875-58.1 45.875-58.1C46.375-58.1 47.175-57.7 47.175-56.8L47.175-35.7C47.175-35.4 47.075-35.2 46.975-34.9L34.475-18C34.175-17.7 33.775-17.5 33.475-17.5ZM45.775 3L44.775 3C22.975 3 6.475-14.7 6.475-35.3C6.475-56.8 23.875-73.6 44.775-73.6C62.175-73.6 77.475-62 81.875-44.9C82.075-44.2 81.775-43.6 80.975-43.3C80.275-43.1 79.675-43.5 79.375-44.2C74.675-61.4 59.775-71 44.775-71C24.875-71 8.975-54.8 8.975-35.3C8.975-15.7 24.675 0.5 44.775 0.5L45.775 0.5C46.375 0.5 47.075 0.9 47.075 1.8C46.975 2.6 46.375 3 45.775 3ZM75.975-2.1L64.275-2.1C63.375-2.1 62.975-2.9 62.975-3.4C62.975-4 63.475-4.7 64.275-4.7L75.975-4.7C78.675-4.7 80.475-6.9 80.475-9.1C80.475-11 78.975-13.5 75.975-13.5L70.175-13.5C65.775-13.5 63.075-17 63.075-20.4C63.075-23.9 65.975-27.3 70.175-27.3L81.875-27.3C82.675-27.3 83.175-26.7 83.175-26C83.175-25.2 82.575-24.7 81.875-24.7L70.075-24.7C67.275-24.7 65.575-22.5 65.575-20.3C65.575-18.3 67.175-15.9 70.075-15.9L75.975-15.9C79.975-15.9 83.075-12.7 83.075-9C83.075-5.5 80.075-2.1 75.975-2.1ZM72.975-24.8C72.275-24.8 71.675-25.4 71.675-26.1L71.675-31.2C71.675-31.9 72.275-32.5 72.975-32.5C73.675-32.5 74.275-31.9 74.275-31.2L74.275-26.1C74.275-25.4 73.775-24.8 72.975-24.8ZM72.975 3C72.275 3 71.675 2.4 71.675 1.7L71.675-3.3C71.675-4 72.275-4.6 72.975-4.6C73.675-4.6 74.275-4 74.275-3.3L74.275 1.7C74.275 2.5 73.775 3 72.975 3Z"/>
  </g>
 </g>
</svg>
