<svg width="320" height="240" viewBox="0 0 320 240" fill="none" xmlns="http://www.w3.org/2000/svg">
<rect y="51" width="320" height="138" rx="24" fill="#89D1FF"/>
<path d="M133.188 30.1073L148.813 66.5854C149.379 68.4252 145.608 72.0796 143.66 72.2461L73.9418 78.1066C72.4434 78.2315 71.0865 77.2492 70.7369 75.7924L60.2313 36.8668C59.2074 32.7961 61.7297 29.3165 64.9097 28.9502L130.116 27.9762C131.514 27.9096 132.78 28.7837 133.188 30.1073Z" fill="#00144A"/>
<path d="M135.527 27.1346L148.688 65.3859C149.254 67.2256 147.956 69.1153 146.008 69.2818L76.2563 75.6584C74.7578 75.7833 73.3926 74.801 73.0513 73.3525L62.1045 32.6372C61.6717 30.8141 63.0202 29.041 64.9016 28.9494L132.455 25.0036C133.854 24.937 135.127 25.811 135.535 27.1346H135.527Z" fill="#56BDFF"/>
<path d="M104.351 34.368C104.234 34.3014 104.118 34.2431 104.001 34.1765C103.552 33.9351 103.102 33.702 102.644 33.4856C102.619 33.4772 102.603 33.4606 102.578 33.4523C102.087 33.2192 101.587 33.0027 101.088 32.7863C100.996 32.7447 100.896 32.7114 100.796 32.6698C100.305 32.47 99.8058 32.2785 99.3063 32.1037C99.3063 32.1037 99.2896 32.1037 99.2813 32.0954C98.7485 31.9039 98.2074 31.7374 97.658 31.5709C97.5997 31.5543 97.5415 31.5376 97.4915 31.521C96.3927 31.2046 95.2772 30.9466 94.1534 30.7468C94.1284 30.7468 94.1118 30.7468 94.0868 30.7385C93.9203 30.7135 93.7621 30.6968 93.5956 30.6719L94.7195 41.5437C96.3178 41.8268 97.8828 42.3762 99.3313 43.142L104.726 34.5761C104.601 34.5095 104.484 34.4346 104.359 34.368H104.351Z" fill="#0040B0"/>
<path d="M98.2825 58.3833C93.3627 58.9577 88.035 55.6445 86.4783 51.0577C84.9466 46.5541 87.6771 42.5999 92.472 42.1671C92.5303 42.1671 92.5969 42.1671 92.6551 42.1587L91.2899 33.7177C90.6822 33.7093 90.0662 33.7177 89.4585 33.7676C79.4857 34.5418 73.5337 42.6083 76.5555 52.0733C79.6938 61.9295 91.0984 69.0553 101.612 67.6735C107.781 66.866 110.513 65.0548 112.558 60.6432L103.161 55.9447C102.753 56.6114 101.204 58.0336 98.2742 58.375L98.2825 58.3833Z" fill="#0070F2"/>
<path d="M100.713 44.915C102.153 46.097 103.31 47.5871 103.951 49.277C104.251 50.0762 104.409 50.8587 104.451 51.6162C104.492 52.5153 104.368 53.381 104.085 54.1635L113.608 58.5422C114.157 56.869 114.39 55.0543 114.24 53.1646C114.207 52.79 114.166 52.4154 114.107 52.0324C114.107 51.9991 114.099 51.9658 114.091 51.9325C114.032 51.5496 113.949 51.1584 113.858 50.7754C113.858 50.7671 113.858 50.7588 113.858 50.7421C113.774 50.3925 113.674 50.0429 113.566 49.6849C113.541 49.6017 113.516 49.5101 113.483 49.4269C113.366 49.0606 113.233 48.6943 113.092 48.3197C111.568 44.4738 108.78 41.1273 105.366 38.6133L100.721 44.8983L100.713 44.915Z" fill="white"/>
<path d="M141.615 60.6189L161.415 128.042C161.825 129.533 163.274 130.496 164.808 130.292L255.168 117.685C259.95 116.475 261.305 112.622 260.657 110.764L233.918 47.7736C233.458 46.461 232.179 45.6086 230.799 45.7023L145.382 50.6205C143.422 50.7399 139.484 53.5697 141.615 60.6103V60.6189Z" fill="#00144A"/>
<path d="M142.621 54.5226L163.359 125.355C163.768 126.846 165.217 127.81 166.751 127.605L258.134 114.862C260.086 114.606 261.314 112.62 260.666 110.762L235.862 45.0783C235.401 43.7656 234.123 42.9133 232.742 43.007L145.425 50.5931C143.464 50.7125 142.109 52.6133 142.629 54.5141L142.621 54.5226Z" fill="white"/>
<path d="M143.152 58.9378L237.723 49.9774C236.728 47.2431 236.33 46.2195 235.859 45.0783C235.399 43.7656 234.12 42.9133 232.739 43.007L145.422 50.5931C143.462 50.7125 142.378 52.2154 142.627 54.5141C142.746 55.6185 143.029 57.9753 143.152 58.9378Z" fill="#56BDFF"/>
<path d="M204.946 113.95L194.607 115.228L187.43 93.3478L197.675 92.3164L204.946 113.95Z" fill="#56BDFF"/>
<path d="M220.05 112.074L210.043 113.319L200.104 84.0995L210 83.1875L220.05 112.074Z" fill="#56BDFF"/>
<path d="M249.926 108.377L240.55 109.544L232.853 88.4056L242.161 87.4766L249.926 108.377Z" fill="#56BDFF"/>
<path d="M235.376 110.186L225.693 111.38L212.149 72.9632L221.695 72.1875L235.376 110.186Z" fill="#56BDFF"/>
<path d="M190.433 76.8437C190.91 78.2854 189.923 79.5682 188.22 79.7158C186.517 79.8634 184.735 78.8076 184.247 77.3546C183.77 75.9129 184.769 74.6301 186.483 74.4825C188.197 74.3349 189.957 75.3907 190.433 76.8324V76.8437Z" fill="#56BDFF"/>
<path d="M202.875 68.7371C203.342 70.0839 202.441 71.2678 200.866 71.3872C199.291 71.5067 197.619 70.5183 197.163 69.1716C196.706 67.8248 197.608 66.641 199.194 66.5215C200.779 66.402 202.419 67.3904 202.886 68.7371H202.875Z" fill="#56BDFF"/>
<path d="M214.839 58.7031C215.308 60.0144 214.445 61.1617 212.915 61.26C211.386 61.3584 209.758 60.3859 209.288 59.0637C208.818 57.7525 209.692 56.6052 211.222 56.5068C212.752 56.4085 214.369 57.381 214.839 58.6922V58.7031Z" fill="#56BDFF"/>
<path d="M235.214 73.1017C235.77 74.5963 234.843 75.918 233.163 76.0662C231.484 76.2145 229.643 75.1151 229.1 73.6082C228.556 72.1012 229.482 70.7919 231.175 70.656C232.867 70.5201 234.67 71.6071 235.226 73.1017H235.214Z" fill="#56BDFF"/>
<path d="M187.6 77.3406L187.106 76.8548L199.781 68.7146L212.004 58.5117L232.341 73.164L231.983 73.5476L212.14 59.2618L200.292 69.1664L187.6 77.3406Z" fill="#56BDFF"/>
<path d="M198.679 173.355L156.4 160.345C163.279 155.419 159.055 149.737 146.142 146.271C131.367 142.3 107.979 142.068 91.5787 145.991C72.9131 150.46 68.8728 158.851 85.9074 164.425C103.597 170.21 133.237 169.603 149.637 163.681L188.974 177.299L193.759 176.483C194.64 175.418 195.124 176.575 196.502 175.743C199.055 173.996 200.392 172.85 199.969 172.639H198.679V173.355Z" fill="#1B90FF"/>
<path d="M204.42 69.7991C207.228 81.5423 202.602 93.6359 196.825 102.27C191.627 110.028 182.859 115.495 171.379 116.867C146.057 119.888 118.953 101.854 112.121 77.4187C105.288 52.9834 120.295 29.7232 144.341 28.6138C167.442 27.5482 196.671 48.1591 204.42 69.7991Z" fill="#8D2A00"/>
<path d="M202.727 63.7711C210.784 86.265 198.629 107.416 174.377 110.313C149.055 113.335 121.952 95.3005 115.119 70.8652C108.287 46.4299 123.682 28.1983 147.736 27.089C170.836 26.0234 194.985 42.1384 202.734 63.7711H202.727Z" fill="#C35500"/>
<path d="M197.324 64.2097C204.237 83.7769 193.519 102.023 172.493 104.424C150.661 106.913 127.333 91.3892 121.344 70.3696C115.567 50.0945 128.506 33.2934 149.385 32.2351C169.546 31.2206 190.645 45.2994 197.331 64.2097H197.324Z" fill="#FFEAF4"/>
<path d="M202.433 173.489L188.621 177.153L166.679 107.343L179.619 105.84L202.433 173.489Z" fill="#C35500"/>
<path d="M120.618 54.6125L149.173 32.25C134.173 33.0893 123.316 42.0664 120.618 54.6125Z" fill="#FFEAF4"/>
<path d="M172.493 104.423C191.041 102.307 201.561 87.8631 199.04 71.0547L153.352 102.263C159.546 104.321 166.086 105.153 172.493 104.423Z" fill="white"/>
<path d="M174.817 38.5541L174.802 38.5469L174.817 38.5541Z" fill="#FFEAF4"/>
<path d="M149.378 32.2344C149.972 32.2054 150.558 32.1908 151.152 32.1836C150.558 32.1836 149.972 32.2054 149.378 32.2344Z" fill="#FFEAF4"/>
<path d="M168.563 35.582C168.747 35.655 168.93 35.728 169.106 35.801C168.923 35.728 168.747 35.655 168.563 35.582Z" fill="#FFEAF4"/>
<path d="M170.228 36.2695C170.352 36.3279 170.477 36.3863 170.601 36.4374C170.477 36.379 170.352 36.3206 170.228 36.2695Z" fill="#FFEAF4"/>
<path d="M166.877 34.9492C167.083 35.0222 167.295 35.0952 167.5 35.1755C167.295 35.0952 167.09 35.0222 166.877 34.9492Z" fill="#FFEAF4"/>
<path d="M155.47 32.3789C155.807 32.4079 156.144 32.4442 156.489 32.4877C156.152 32.4515 155.814 32.4152 155.47 32.3789Z" fill="#FFEAF4"/>
<path d="M153.645 32.25C153.996 32.2718 154.356 32.2863 154.708 32.3153C154.356 32.2863 153.996 32.2645 153.645 32.25Z" fill="#FFEAF4"/>
<path d="M157.266 32.5859C157.596 32.6295 157.933 32.6803 158.263 32.731C157.933 32.6803 157.604 32.6295 157.266 32.5859Z" fill="#FFEAF4"/>
<path d="M151.746 32.1914C152.142 32.1914 152.53 32.1987 152.926 32.2132C152.53 32.1987 152.134 32.1914 151.746 32.1914Z" fill="#FFEAF4"/>
<path d="M199.362 74.0917C198.277 52.3569 177.302 34.9719 156.482 32.381C149.239 31.7168 136.504 31.7168 127.26 41.723C126.219 42.847 125.244 44.1607 124.335 45.5474C124.181 45.7809 124.093 45.9415 123.953 46.1678C123.931 46.197 123.924 46.2335 123.902 46.2699C134.862 33.1254 152.384 32.2861 167.867 38.4168C183.893 44.7592 197.734 58.5752 199.362 74.1063V74.0917Z" fill="#8D2A00"/>
<path d="M145.742 34.9344L120.618 54.6111C119.584 59.4281 119.745 64.7632 121.343 70.3685C121.475 70.8356 121.622 71.2954 121.776 71.7552L170.389 39.4886C162.427 35.9343 153.806 34.1681 145.742 34.9344Z" fill="white"/>
<path d="M161.416 110.102L168.945 114.547C168.945 114.547 167.376 110.672 172.537 110.139V110.059C170.47 110.372 166.306 110.788 161.416 110.095V110.102Z" fill="#8D2A00"/>
<path d="M178.006 109.363C179.055 109.407 180.887 110.181 181.76 112.407L183.006 108.363C183.006 108.363 181.855 108.918 178.006 109.356V109.363Z" fill="#8D2A00"/>
<path d="M188.622 177.151L168.05 111.779L169.436 110.392C169.436 110.392 172.068 110.239 175.059 109.641C175.059 109.641 174.025 110.801 174.326 112.407C175.528 118.713 195.088 175.925 195.088 175.925L188.614 177.151H188.622Z" fill="#8D2A00"/>
<path d="M202.433 173.489C202.433 174.248 198.87 175.511 193.042 177.007C190.161 177.584 188.746 177.511 188.621 177.153C188.534 176.898 190.11 175.912 192.969 174.993C197.25 173.657 201.95 172.905 202.433 173.489Z" fill="#8D2A00"/>
<path d="M164.355 69.0427C166.291 67.094 168.094 65.1161 166.973 61.6786C165.726 57.8615 162.09 55.9785 157.845 56.2704C153.469 56.5696 151.335 58.7592 150.133 61.5399L146.071 58.8322C147.523 55.6062 150.441 52.8693 156.555 52.4679C163.857 51.9862 169.553 55.3143 171.474 61.0947C173.065 65.9044 170.939 68.5537 168.512 71.2542C166.283 73.7064 165.14 74.9983 165.91 77.3995L166.071 77.8958L161.613 78.2972L161.452 77.8009C160.067 73.4364 162.222 71.1812 164.355 69.05V69.0427ZM165 81.5596C166.841 81.3917 168.673 82.6106 169.245 84.3841C169.817 86.1576 168.857 87.6684 167.009 87.8509C165.132 88.0333 163.314 86.8291 162.742 85.0045C162.171 83.1799 163.131 81.7275 165 81.5523V81.5596Z" fill="#00144A"/>
</svg>
