<svg width="45" height="45" viewBox="0 0 45 45" fill="none" xmlns="http://www.w3.org/2000/svg">
<path d="M20.1731 44.4145C31.3144 44.4145 40.3461 35.3827 40.3461 24.2414C40.3461 13.1001 31.3144 4.06836 20.1731 4.06836C9.0318 4.06836 0 13.1001 0 24.2414C0 35.3827 9.0318 44.4145 20.1731 44.4145Z" fill="#A9B4BE"/>
<path d="M23.2795 41.9301C34.4208 41.9301 43.4526 32.8983 43.4526 21.757C43.4526 10.6158 34.4208 1.58398 23.2795 1.58398C12.1382 1.58398 3.10645 10.6158 3.10645 21.757C3.10645 32.8983 12.1382 41.9301 23.2795 41.9301Z" fill="white"/>
<path fill-rule="evenodd" clip-rule="evenodd" d="M44.4526 21.757C44.4526 33.4506 34.9731 42.9301 23.2795 42.9301C11.586 42.9301 2.10645 33.4506 2.10645 21.757C2.10645 10.0635 11.586 0.583984 23.2795 0.583984C34.9731 0.583984 44.4526 10.0635 44.4526 21.757ZM43.4526 21.757C43.4526 32.8983 34.4208 41.9301 23.2795 41.9301C12.1382 41.9301 3.10645 32.8983 3.10645 21.757C3.10645 10.6158 12.1382 1.58398 23.2795 1.58398C34.4208 1.58398 43.4526 10.6158 43.4526 21.757Z" fill="#00144A"/>
<path d="M23.2793 36.1523C31.2292 36.1523 37.6738 29.7077 37.6738 21.7578C37.6738 13.8079 31.2292 7.36328 23.2793 7.36328C15.3294 7.36328 8.88477 13.8079 8.88477 21.7578C8.88477 29.7077 15.3294 36.1523 23.2793 36.1523Z" fill="#0070F2"/>
<path fill-rule="evenodd" clip-rule="evenodd" d="M23.2796 12.0176C20.1347 12.0176 17.1919 14.1813 17.1919 17.2936C17.1919 17.966 17.737 18.5111 18.4094 18.5111C19.0819 18.5111 19.627 17.966 19.627 17.2936C19.627 15.923 21.045 14.4527 23.2796 14.4527C25.5142 14.4527 26.9322 15.923 26.9322 17.2936C26.9322 18.0389 26.7171 18.5403 26.4221 18.9256C26.1066 19.3377 25.6556 19.6737 25.1009 19.9974C24.8502 20.1438 24.5988 20.2763 24.3349 20.4155L24.2522 20.4592C23.9719 20.6071 23.6623 20.7719 23.3853 20.9488C22.9111 21.2516 22.0621 21.8737 22.0621 22.9755V24.193C22.0621 24.8655 22.6072 25.4106 23.2796 25.4106C23.952 25.4106 24.4972 24.8655 24.4972 24.193V23.1418C24.5379 23.1085 24.601 23.0617 24.6958 23.0011C24.8754 22.8865 25.0985 22.766 25.389 22.6126L25.4732 22.5682C25.7314 22.4321 26.0296 22.2749 26.3285 22.1005C26.9914 21.7136 27.7579 21.1865 28.3556 20.4059C28.9737 19.5985 29.3673 18.5776 29.3673 17.2936C29.3673 14.1813 26.4245 12.0176 23.2796 12.0176Z" fill="white"/>
<path d="M25.1059 29.672C25.1059 30.6806 24.2883 31.4983 23.2796 31.4983C22.271 31.4983 21.4533 30.6806 21.4533 29.672C21.4533 28.6633 22.271 27.8457 23.2796 27.8457C24.2883 27.8457 25.1059 28.6633 25.1059 29.672Z" fill="white"/>
</svg>
