<svg width="45" height="45" viewBox="0 0 45 45" fill="none" xmlns="http://www.w3.org/2000/svg">
<rect x="5.2168" y="3.12305" width="33.2178" height="40.8286" rx="4" fill="white"/>
<path d="M8.2168 5.08609C8.2168 3.40758 9.5775 2.04688 11.256 2.04688L36.744 2.04688C38.4225 2.04688 39.7832 3.40758 39.7832 5.08609V38.2164C39.7832 39.8949 38.4225 41.2556 36.744 41.2556H11.256C9.5775 41.2556 8.2168 39.8949 8.2168 38.2164L8.2168 5.08609Z" fill="#CEDBE8"/>
<path fill-rule="evenodd" clip-rule="evenodd" d="M11.256 1.04688L36.744 1.04688C38.9748 1.04688 40.7832 2.85529 40.7832 5.08609V38.2164C40.7832 40.4472 38.9748 42.2556 36.744 42.2556H11.256C9.02521 42.2556 7.2168 40.4472 7.2168 38.2164L7.2168 5.08609C7.2168 2.85529 9.02521 1.04688 11.256 1.04688ZM11.256 2.04688C9.5775 2.04688 8.2168 3.40758 8.2168 5.08609L8.2168 38.2164C8.2168 39.8949 9.5775 41.2556 11.256 41.2556H36.744C38.4225 41.2556 39.7832 39.8949 39.7832 38.2164V5.08609C39.7832 3.40758 38.4225 2.04688 36.744 2.04688L11.256 2.04688Z" fill="#688FB7"/>
<path d="M11.6846 7.22656C11.6846 6.12199 12.58 5.22656 13.6846 5.22656L34.3154 5.22656C35.42 5.22656 36.3154 6.12199 36.3154 7.22656V13.9199C36.3154 15.0245 35.42 15.9199 34.3154 15.9199L13.6846 15.9199C12.58 15.9199 11.6846 15.0245 11.6846 13.9199V7.22656Z" fill="#00A58A"/>
<path d="M11.6846 22.4102C11.6846 21.3056 12.58 20.4102 13.6846 20.4102H16.0518C17.1564 20.4102 18.0518 21.3056 18.0518 22.4102V25.9315C18.0518 27.0361 17.1564 27.9315 16.0518 27.9315H13.6846C12.58 27.9315 11.6846 27.0361 11.6846 25.9315V22.4102Z" fill="white"/>
<path d="M11.6846 32.2207C11.6846 31.1161 12.58 30.2207 13.6846 30.2207H16.0518C17.1564 30.2207 18.0518 31.1161 18.0518 32.2207V35.7421C18.0518 36.8467 17.1564 37.7421 16.0518 37.7421H13.6846C12.58 37.7421 11.6846 36.8467 11.6846 35.7421V32.2207Z" fill="white"/>
<path d="M20.8164 22.4102C20.8164 21.3056 21.7118 20.4102 22.8164 20.4102H25.1836C26.2882 20.4102 27.1836 21.3056 27.1836 22.4102V25.9315C27.1836 27.0361 26.2882 27.9315 25.1836 27.9315H22.8164C21.7118 27.9315 20.8164 27.0361 20.8164 25.9315V22.4102Z" fill="white"/>
<path d="M20.8164 32.2207C20.8164 31.1161 21.7118 30.2207 22.8164 30.2207H25.1836C26.2882 30.2207 27.1836 31.1161 27.1836 32.2207V35.7421C27.1836 36.8467 26.2882 37.7421 25.1836 37.7421H22.8164C21.7118 37.7421 20.8164 36.8467 20.8164 35.7421V32.2207Z" fill="white"/>
<path d="M29.9482 22.4102C29.9482 21.3056 30.8437 20.4102 31.9482 20.4102H34.3154C35.42 20.4102 36.3154 21.3056 36.3154 22.4102V35.7424C36.3154 36.847 35.42 37.7424 34.3154 37.7424H31.9482C30.8437 37.7424 29.9482 36.847 29.9482 35.7424V22.4102Z" fill="#F58B00"/>
</svg>
