<svg width="321" height="240" viewBox="0 0 321 240" fill="none" xmlns="http://www.w3.org/2000/svg">
<path d="M305.711 20.0059H14.6174C12.72 20.0041 10.8408 20.3763 9.08735 21.1012C7.33387 21.8261 5.74044 22.8895 4.39815 24.2305C3.05586 25.5716 1.99103 27.164 1.26452 28.9168C0.538005 30.6696 0.164062 32.5485 0.164063 34.4459V205.553C0.164063 209.386 1.68681 213.062 4.39734 215.773C7.10786 218.483 10.7841 220.006 14.6174 220.006H305.711C309.544 220.006 313.22 218.483 315.931 215.773C318.641 213.062 320.164 209.386 320.164 205.553V34.4459C320.164 32.5485 319.79 30.6696 319.064 28.9168C318.337 27.164 317.272 25.5716 315.93 24.2305C314.588 22.8895 312.994 21.8261 311.241 21.1012C309.487 20.3763 307.608 20.0041 305.711 20.0059Z" fill="#223548"/>
<path d="M259.708 4.38837C259.992 4.76865 260.169 5.21856 260.219 5.69077C260.269 6.16297 260.191 6.63999 259.993 7.07165L255.553 17.4613C254.819 19.1799 253.004 19.4979 251.657 18.9226C251.097 18.7072 250.623 18.3159 250.304 17.8076C249.986 17.2992 249.841 16.7012 249.892 16.1035C249.925 15.8154 250.001 15.534 250.118 15.2688L254.559 4.87917C254.744 4.41935 255.051 4.01822 255.446 3.71823C255.84 3.41823 256.309 3.23054 256.801 3.175C257.349 3.11302 257.904 3.19193 258.412 3.40427C258.921 3.61662 259.367 3.95536 259.708 4.38837Z" fill="white"/>
<path d="M293.223 55.8189C293.256 56.1572 293.217 56.4985 293.11 56.8211C293.003 57.1437 292.83 57.4405 292.602 57.6925C292.374 57.9444 292.096 58.1461 291.786 58.2845C291.475 58.423 291.14 58.4952 290.8 58.4966L279.807 59.045C279.412 59.0634 279.017 59.0028 278.646 58.8668C278.274 58.7309 277.933 58.5222 277.643 58.2531C277.353 57.9839 277.119 57.6597 276.956 57.2993C276.793 56.9388 276.703 56.5495 276.691 56.1539C276.682 55.9909 276.686 55.8274 276.704 55.6651C276.76 55.0645 277.039 54.5067 277.486 54.1017C277.933 53.6967 278.515 53.4738 279.119 53.4771L290.106 52.9317C290.501 52.9126 290.896 52.9725 291.268 53.108C291.64 53.2435 291.981 53.4517 292.271 53.7206C292.561 53.9894 292.795 54.3135 292.958 54.6738C293.122 55.0341 293.212 55.4234 293.223 55.8189Z" fill="white"/>
<path d="M285.603 25.8991C285.541 26.2652 285.405 26.6148 285.203 26.9265C285.002 27.2382 284.738 27.5055 284.43 27.712L270.683 37.1155C270.064 37.5338 269.307 37.6966 268.571 37.57C267.835 37.4433 267.176 37.0369 266.733 36.4358C266.324 35.8766 266.14 35.1841 266.217 34.4956C266.263 34.0988 266.393 33.7165 266.6 33.3747C266.806 33.0328 267.084 32.7395 267.414 32.5147L281.161 23.1112C281.783 22.6901 282.544 22.5265 283.284 22.6549C284.024 22.7832 284.686 23.1935 285.13 23.7994C285.346 24.0995 285.499 24.4401 285.581 24.8009C285.662 25.1617 285.67 25.5353 285.603 25.8991Z" fill="white"/>
<path d="M289.635 142.103C289.635 140.745 285.692 139.658 280.424 139.411C280.123 134.149 278.963 130.237 277.605 130.24C276.246 130.243 275.117 134.186 274.828 139.474C269.544 139.835 265.617 141.016 265.635 142.377C265.653 143.739 269.578 144.826 274.846 145.07C275.162 150.331 276.306 154.243 277.662 154.24C279.017 154.237 280.153 150.295 280.442 145.006C285.725 144.645 289.65 143.464 289.635 142.103Z" fill="#324E6B"/>
<path d="M35.4707 55.8513C35.4707 54.493 31.5279 53.4058 26.2599 53.1588C25.9587 47.8974 24.799 43.9853 23.4406 43.9883C22.0822 43.9913 20.9527 47.9336 20.6635 53.2221C15.3804 53.5835 11.4527 54.764 11.4708 56.1253C11.4888 57.4866 15.4135 58.5738 20.6816 58.8177C20.9978 64.0791 22.1424 67.9913 23.4978 67.9883C24.8532 67.9853 25.9888 64.043 26.2779 58.7545C31.561 58.3931 35.4857 57.2125 35.4707 55.8513Z" fill="#3B5B7C"/>
<path d="M35.4707 184.192C35.4707 183.286 32.8422 182.562 29.3301 182.397C29.1293 178.889 28.3563 176.281 27.4506 176.283C26.545 176.285 25.792 178.913 25.5992 182.439C22.0772 182.68 19.4587 183.467 19.4707 184.375C19.4828 185.282 22.0993 186.007 25.6113 186.17C25.8221 189.677 26.5852 192.285 27.4888 192.283C28.3924 192.281 29.1494 189.653 29.3422 186.127C32.8643 185.886 35.4807 185.099 35.4707 184.192Z" fill="#2A4259"/>
<rect x="50" y="38.5215" width="195.086" height="195.086" rx="14" fill="#B9C1C6"/>
<rect x="57" y="32.5215" width="195.086" height="195.086" rx="13" fill="#CEDBE8"/>
<path fill-rule="evenodd" clip-rule="evenodd" d="M80.3496 215.258C74.2745 215.258 69.3496 210.333 69.3496 204.258V185.892C72.6633 185.892 75.3496 188.579 75.3496 191.892V204.258C75.3496 207.019 77.5882 209.258 80.3496 209.258H92.7152C96.0289 209.258 98.7152 211.944 98.7152 215.258H80.3496ZM148.177 215.258C148.177 211.944 145.491 209.258 142.177 209.258H117.446C114.133 209.258 111.446 211.944 111.446 215.258H148.177ZM197.64 215.258C197.64 211.944 194.953 209.258 191.64 209.258H166.909C163.595 209.258 160.909 211.944 160.909 215.258H197.64ZM239.736 185.892C236.423 185.892 233.736 188.579 233.736 191.892V204.258C233.736 207.019 231.498 209.258 228.736 209.258H216.371C213.057 209.258 210.371 211.944 210.371 215.258H228.736C234.811 215.258 239.736 210.333 239.736 204.258V185.892ZM239.736 136.43C236.423 136.43 233.736 139.116 233.736 142.43V167.161C233.736 170.475 236.423 173.161 239.736 173.161V136.43ZM239.736 86.9678C236.423 86.9678 233.736 89.6541 233.736 92.9678V117.699C233.736 121.013 236.423 123.699 239.736 123.699V86.9678ZM210.371 44.8711C210.371 48.1848 213.057 50.8711 216.371 50.8711H228.736C231.498 50.8711 233.736 53.1097 233.736 55.8711V68.2367C233.736 71.5504 236.423 74.2367 239.736 74.2367V55.8711C239.736 49.796 234.811 44.8711 228.736 44.8711H210.371ZM160.909 44.8711C160.909 48.1848 163.595 50.8711 166.909 50.8711H191.64C194.953 50.8711 197.64 48.1848 197.64 44.8711H160.909ZM111.446 44.8711C111.446 48.1848 114.133 50.8711 117.446 50.8711H142.177C145.491 50.8711 148.177 48.1848 148.177 44.8711H111.446ZM98.7152 44.8711C98.7152 48.1848 96.0289 50.8711 92.7152 50.8711H80.3496C77.5882 50.8711 75.3496 53.1097 75.3496 55.8711V68.2367C75.3496 71.5504 72.6633 74.2367 69.3496 74.2367V55.8711C69.3496 49.796 74.2745 44.8711 80.3496 44.8711H98.7152ZM69.3496 86.9678C72.6633 86.9678 75.3496 89.6541 75.3496 92.9678V117.699C75.3496 121.013 72.6633 123.699 69.3496 123.699V86.9678ZM69.3496 136.43C72.6633 136.43 75.3496 139.116 75.3496 142.43V167.161C75.3496 170.475 72.6633 173.161 69.3496 173.161V136.43Z" fill="#324E6B"/>
</svg>
