<?xml version="1.0" encoding="UTF-8"?>
<!--Generator: Apple Native CoreSVG 341-->
<!DOCTYPE svg
PUBLIC "-//W3C//DTD SVG 1.1//EN"
       "http://www.w3.org/Graphics/SVG/1.1/DTD/svg11.dtd">
<svg version="1.1" xmlns="http://www.w3.org/2000/svg" xmlns:xlink="http://www.w3.org/1999/xlink" viewBox="0 0 3300 2200">
 <!--glyph: "", point size: 100.0, font version: "21.0d4e1", template writer version: "138.0.0"-->
 <style>.defaults {-sfsymbols-draw-reverses-motion-groups:true}

.monochrome-0 {-sfsymbols-motion-group:1;-sfsymbols-layer-tags:1ea3e683fc015fbc}
.monochrome-1 {-sfsymbols-motion-group:0;-sfsymbols-layer-tags:1ea3e683fc015fbc}

.multicolor-0:tintColor {-sfsymbols-motion-group:1;-sfsymbols-layer-tags:1ea3e683fc015fbc}
.multicolor-1:tintColor {-sfsymbols-motion-group:0;-sfsymbols-layer-tags:1ea3e683fc015fbc}

.hierarchical-0:primary {-sfsymbols-motion-group:1;-sfsymbols-layer-tags:1ea3e683fc015fbc}
.hierarchical-1:primary {-sfsymbols-motion-group:0;-sfsymbols-layer-tags:1ea3e683fc015fbc}

.SFSymbolsPreviewWireframe {fill:none;opacity:1.0;stroke:black;stroke-width:0.5}
</style>
 <g id="Notes">
  <rect height="2200" id="artboard" style="fill:white;opacity:1" width="3300" x="0" y="0"/>
  <line style="fill:none;stroke:black;opacity:1;stroke-width:0.5;" x1="263" x2="3036" y1="292" y2="292"/>
  <text style="stroke:none;fill:black;font-family:sans-serif;font-size:13;font-weight:bold;" transform="matrix(1 0 0 1 263 322)">Weight/Scale Variations</text>
  <text style="stroke:none;fill:black;font-family:sans-serif;font-size:13;text-anchor:middle;" transform="matrix(1 0 0 1 559.711 322)">Ultralight</text>
  <text style="stroke:none;fill:black;font-family:sans-serif;font-size:13;text-anchor:middle;" transform="matrix(1 0 0 1 856.422 322)">Thin</text>
  <text style="stroke:none;fill:black;font-family:sans-serif;font-size:13;text-anchor:middle;" transform="matrix(1 0 0 1 1153.13 322)">Light</text>
  <text style="stroke:none;fill:black;font-family:sans-serif;font-size:13;text-anchor:middle;" transform="matrix(1 0 0 1 1449.84 322)">Regular</text>
  <text style="stroke:none;fill:black;font-family:sans-serif;font-size:13;text-anchor:middle;" transform="matrix(1 0 0 1 1746.56 322)">Medium</text>
  <text style="stroke:none;fill:black;font-family:sans-serif;font-size:13;text-anchor:middle;" transform="matrix(1 0 0 1 2043.27 322)">Semibold</text>
  <text style="stroke:none;fill:black;font-family:sans-serif;font-size:13;text-anchor:middle;" transform="matrix(1 0 0 1 2339.98 322)">Bold</text>
  <text style="stroke:none;fill:black;font-family:sans-serif;font-size:13;text-anchor:middle;" transform="matrix(1 0 0 1 2636.69 322)">Heavy</text>
  <text style="stroke:none;fill:black;font-family:sans-serif;font-size:13;text-anchor:middle;" transform="matrix(1 0 0 1 2933.4 322)">Black</text>
  <line style="fill:none;stroke:black;opacity:1;stroke-width:0.5;" x1="263" x2="3036" y1="1903" y2="1903"/>
  <g transform="matrix(0.2 0 0 0.2 263 1933)">
   <path d="m46.2402 4.15039c21.7773 0 39.4531-17.627 39.4531-39.4043s-17.6758-39.4043-39.4531-39.4043c-21.7285 0-39.4043 17.627-39.4043 39.4043s17.6758 39.4043 39.4043 39.4043Zm0-7.42188c-17.6758 0-31.9336-14.3066-31.9336-31.9824s14.2578-31.9824 31.9336-31.9824 31.9824 14.3066 31.9824 31.9824-14.3066 31.9824-31.9824 31.9824Zm3.61328-17.7734v-28.4668c0-2.24609-1.46484-3.75977-3.71094-3.75977-2.14844 0-3.61328 1.51367-3.61328 3.75977v28.4668c0 2.19727 1.46484 3.71094 3.61328 3.71094 2.24609 0 3.71094-1.51367 3.71094-3.71094Zm-17.8223-10.5957h28.418c2.19727 0 3.71094-1.46484 3.71094-3.61328 0-2.19727-1.51367-3.71094-3.71094-3.71094h-28.418c-2.24609 0-3.75977 1.51367-3.75977 3.71094 0 2.14844 1.51367 3.61328 3.75977 3.61328Z"/>
  </g>
  <g transform="matrix(0.2 0 0 0.2 281.506 1933)">
   <path d="m58.5449 14.5508c27.4902 0 49.8047-22.3145 49.8047-49.8047s-22.3145-49.8047-49.8047-49.8047-49.8047 22.3145-49.8047 49.8047 22.3145 49.8047 49.8047 49.8047Zm0-8.30078c-22.9492 0-41.5039-18.5547-41.5039-41.5039s18.5547-41.5039 41.5039-41.5039 41.5039 18.5547 41.5039 41.5039-18.5547 41.5039-41.5039 41.5039Zm4.05273-23.0957v-36.9141c0-2.49023-1.70898-4.19922-4.15039-4.19922-2.39258 0-4.05273 1.70898-4.05273 4.19922v36.9141c0 2.44141 1.66016 4.15039 4.05273 4.15039 2.44141 0 4.15039-1.66016 4.15039-4.15039Zm-22.5586-14.4043h36.9629c2.44141 0 4.15039-1.61133 4.15039-4.00391 0-2.44141-1.70898-4.15039-4.15039-4.15039h-36.9629c-2.49023 0-4.15039 1.70898-4.15039 4.15039 0 2.39258 1.66016 4.00391 4.15039 4.00391Z"/>
  </g>
  <g transform="matrix(0.2 0 0 0.2 304.924 1933)">
   <path d="m74.8535 28.3203c35.1074 0 63.623-28.4668 63.623-63.5742s-28.5156-63.623-63.623-63.623-63.5742 28.5156-63.5742 63.623 28.4668 63.5742 63.5742 63.5742Zm0-9.08203c-30.127 0-54.4922-24.3652-54.4922-54.4922s24.3652-54.4922 54.4922-54.4922 54.4922 24.3652 54.4922 54.4922-24.3652 54.4922-54.4922 54.4922Zm4.44336-30.3223v-48.4863c0-2.73438-1.85547-4.63867-4.54102-4.63867-2.58789 0-4.44336 1.9043-4.44336 4.63867v48.4863c0 2.68555 1.85547 4.58984 4.44336 4.58984 2.68555 0 4.54102-1.85547 4.54102-4.58984Zm-28.7109-19.7754h48.4863c2.68555 0 4.58984-1.80664 4.58984-4.39453 0-2.73438-1.85547-4.58984-4.58984-4.58984h-48.4863c-2.73438 0-4.58984 1.85547-4.58984 4.58984 0 2.58789 1.85547 4.39453 4.58984 4.39453Z"/>
  </g>
  <text style="stroke:none;fill:black;font-family:sans-serif;font-size:13;font-weight:bold;" transform="matrix(1 0 0 1 263 1953)">Design Variations</text>
  <text style="stroke:none;fill:black;font-family:sans-serif;font-size:13;" transform="matrix(1 0 0 1 263 1971)">Symbols are supported in up to nine weights and three scales.</text>
  <text style="stroke:none;fill:black;font-family:sans-serif;font-size:13;" transform="matrix(1 0 0 1 263 1989)">For optimal layout with text and other symbols, vertically align</text>
  <text style="stroke:none;fill:black;font-family:sans-serif;font-size:13;" transform="matrix(1 0 0 1 263 2007)">symbols with the adjacent text.</text>
  <line style="fill:none;stroke:#00AEEF;stroke-width:0.5;opacity:1.0;" x1="776" x2="776" y1="1919" y2="1933"/>
  <g transform="matrix(0.2 0 0 0.2 776 1933)">
   <path d="m16.5527 0.78125c2.58789 0 3.85742-0.976562 4.78516-3.71094l20.5566-57.5195h0.244141l20.6055 57.5195c0.927734 2.73438 2.19727 3.71094 4.73633 3.71094 2.58789 0 4.24805-1.5625 4.24805-4.00391 0-0.830078-0.146484-1.61133-0.537109-2.63672l-22.9004-60.9863c-1.12305-2.97852-3.125-4.49219-6.25-4.49219-3.02734 0-5.07812 1.46484-6.15234 4.44336l-22.9004 61.084c-0.390625 1.02539-0.537109 1.80664-0.537109 2.63672 0 2.44141 1.5625 3.95508 4.10156 3.95508Zm10.2051-20.9473h30.6641c2.00195 0 3.66211-1.66016 3.66211-3.66211 0-2.05078-1.66016-3.66211-3.66211-3.66211h-30.6641c-2.00195 0-3.66211 1.61133-3.66211 3.66211 0 2.00195 1.66016 3.66211 3.66211 3.66211Z"/>
  </g>
  <line style="fill:none;stroke:#00AEEF;stroke-width:0.5;opacity:1.0;" x1="792.836" x2="792.836" y1="1919" y2="1933"/>
  <text style="stroke:none;fill:black;font-family:sans-serif;font-size:13;font-weight:bold;" transform="matrix(1 0 0 1 776 1953)">Margins</text>
  <text style="stroke:none;fill:black;font-family:sans-serif;font-size:13;" transform="matrix(1 0 0 1 776 1971)">Leading and trailing margins on the left and right side of each symbol</text>
  <text style="stroke:none;fill:black;font-family:sans-serif;font-size:13;" transform="matrix(1 0 0 1 776 1989)">can be adjusted by modifying the x-location of the margin guidelines.</text>
  <text style="stroke:none;fill:black;font-family:sans-serif;font-size:13;" transform="matrix(1 0 0 1 776 2007)">Modifications are automatically applied proportionally to all</text>
  <text style="stroke:none;fill:black;font-family:sans-serif;font-size:13;" transform="matrix(1 0 0 1 776 2025)">scales and weights.</text>
  <g transform="matrix(0.2 0 0 0.2 1289 1933)">
   <path d="m14.209 13.1348 7.86133 7.86133c4.29688 4.39453 9.32617 4.10156 13.8672-1.02539l60.6934-68.2129-4.88281-4.88281-60.2539 67.6758c-1.80664 1.95312-3.4668 2.44141-5.81055 0.0976562l-5.17578-5.12695c-2.29492-2.29492-1.80664-3.95508 0.195312-5.81055l67.4805-62.1582-4.88281-4.83398-68.0664 62.5977c-4.98047 4.58984-5.32227 9.47266-1.02539 13.8184Zm44.873-97.4609c-2.05078 2.00195-2.24609 4.88281-1.07422 6.78711 1.12305 1.80664 3.4668 3.02734 6.5918 2.24609 5.85938-1.66016 12.5977-2.39258 18.8965 0.927734l-2.68555 7.12891c-1.61133 4.00391-0.732422 6.88477 1.70898 9.42383l10.2539 10.3027c2.34375 2.39258 4.54102 2.44141 7.08008 1.95312l4.44336-0.732422 2.58789 2.53906-0.195312 2.24609c-0.0976562 2.29492 0.537109 4.29688 2.7832 6.49414l3.36914 3.32031c2.29492 2.29492 5.51758 2.49023 7.8125 0.195312l12.9883-13.0371c2.29492-2.34375 2.14844-5.37109-0.195312-7.66602l-3.41797-3.41797c-2.19727-2.19727-4.05273-3.02734-6.34766-2.88086l-2.34375 0.244141-2.44141-2.44141 1.02539-4.6875c0.634766-2.73438-0.244141-4.98047-2.88086-7.61719l-11.2793-11.1816c-12.9395-12.8418-35.5957-11.0352-46.6797-0.146484Zm7.08008 2.05078c8.78906-6.39648 25.9766-5.66406 33.6914 1.95312l12.3047 12.207c1.02539 1.02539 1.2207 1.80664 0.927734 3.32031l-1.46484 6.64062 6.73828 6.68945 4.39453-0.244141c1.12305-0.0488281 1.51367 0.0488281 2.34375 0.878906l2.53906 2.49023-10.8398 10.8398-2.49023-2.49023c-0.830078-0.878906-0.976562-1.2207-0.927734-2.39258l0.292969-4.3457-6.68945-6.73828-6.83594 1.17188c-1.41602 0.292969-2.05078 0.195312-3.17383-0.878906l-8.93555-8.88672c-1.07422-1.02539-1.17188-1.70898-0.488281-3.36914l4.58984-11.4746c-6.10352-6.34766-17.041-7.51953-25.5859-4.58984-0.683594 0.244141-0.927734-0.390625-0.390625-0.78125Z"/>
  </g>
  <text style="stroke:none;fill:black;font-family:sans-serif;font-size:13;font-weight:bold;" transform="matrix(1 0 0 1 1289 1953)">Exporting</text>
  <text style="stroke:none;fill:black;font-family:sans-serif;font-size:13;" transform="matrix(1 0 0 1 1289 1971)">Symbols should be outlined when exporting to ensure the</text>
  <text style="stroke:none;fill:black;font-family:sans-serif;font-size:13;" transform="matrix(1 0 0 1 1289 1989)">design is preserved when submitting to Xcode.</text>
  <text id="template-version" style="stroke:none;fill:black;font-family:sans-serif;font-size:13;text-anchor:end;" transform="matrix(1 0 0 1 3036 1933)">Template v.5.0</text>
  <text style="stroke:none;fill:black;font-family:sans-serif;font-size:13;text-anchor:end;" transform="matrix(1 0 0 1 3036 1951)">Requires Xcode 15 or greater</text>
  <text id="descriptive-name" style="stroke:none;fill:black;font-family:sans-serif;font-size:13;text-anchor:end;" transform="matrix(1 0 0 1 3036 1969)">Generated from fiori.general.leave.request</text>
  <text style="stroke:none;fill:black;font-family:sans-serif;font-size:13;text-anchor:end;" transform="matrix(1 0 0 1 3036 1987)">Typeset at 100.0 points</text>
  <text style="stroke:none;fill:black;font-family:sans-serif;font-size:13;" transform="matrix(1 0 0 1 263 726)">Small</text>
  <text style="stroke:none;fill:black;font-family:sans-serif;font-size:13;" transform="matrix(1 0 0 1 263 1156)">Medium</text>
  <text style="stroke:none;fill:black;font-family:sans-serif;font-size:13;" transform="matrix(1 0 0 1 263 1586)">Large</text>
 </g>
 <g id="Guides">
  <g id="H-reference" style="fill:#27AAE1;stroke:none;" transform="matrix(1 0 0 1 339 696)">
   <path d="M0.993654 0L3.63775 0L29.3281-67.1323L30.0303-67.1323L30.0303-70.459L28.1226-70.459ZM11.6885-24.4799L46.9815-24.4799L46.2315-26.7285L12.4385-26.7285ZM55.1196 0L57.7637 0L30.6382-70.459L29.4326-70.459L29.4326-67.1323Z"/>
  </g>
  <line id="Baseline-S" style="fill:none;stroke:#27AAE1;opacity:1;stroke-width:0.5;" x1="263" x2="3036" y1="696" y2="696"/>
  <line id="Capline-S" style="fill:none;stroke:#27AAE1;opacity:1;stroke-width:0.5;" x1="263" x2="3036" y1="625.541" y2="625.541"/>
  <g id="H-reference" style="fill:#27AAE1;stroke:none;" transform="matrix(1 0 0 1 339 1126)">
   <path d="M0.993654 0L3.63775 0L29.3281-67.1323L30.0303-67.1323L30.0303-70.459L28.1226-70.459ZM11.6885-24.4799L46.9815-24.4799L46.2315-26.7285L12.4385-26.7285ZM55.1196 0L57.7637 0L30.6382-70.459L29.4326-70.459L29.4326-67.1323Z"/>
  </g>
  <line id="Baseline-M" style="fill:none;stroke:#27AAE1;opacity:1;stroke-width:0.5;" x1="263" x2="3036" y1="1126" y2="1126"/>
  <line id="Capline-M" style="fill:none;stroke:#27AAE1;opacity:1;stroke-width:0.5;" x1="263" x2="3036" y1="1055.54" y2="1055.54"/>
  <g id="H-reference" style="fill:#27AAE1;stroke:none;" transform="matrix(1 0 0 1 339 1556)">
   <path d="M0.993654 0L3.63775 0L29.3281-67.1323L30.0303-67.1323L30.0303-70.459L28.1226-70.459ZM11.6885-24.4799L46.9815-24.4799L46.2315-26.7285L12.4385-26.7285ZM55.1196 0L57.7637 0L30.6382-70.459L29.4326-70.459L29.4326-67.1323Z"/>
  </g>
  <line id="Baseline-L" style="fill:none;stroke:#27AAE1;opacity:1;stroke-width:0.5;" x1="263" x2="3036" y1="1556" y2="1556"/>
  <line id="Capline-L" style="fill:none;stroke:#27AAE1;opacity:1;stroke-width:0.5;" x1="263" x2="3036" y1="1485.54" y2="1485.54"/>
  <line id="right-margin-Black-S" style="fill:none;stroke:#00AEEF;stroke-width:0.5;opacity:1.0;" x1="2981.9" x2="2981.9" y1="600.785" y2="720.121"/>
  <line id="left-margin-Black-S" style="fill:none;stroke:#00AEEF;stroke-width:0.5;opacity:1.0;" x1="2884.9" x2="2884.9" y1="600.785" y2="720.121"/>
  <line id="right-margin-Regular-S" style="fill:none;stroke:#00AEEF;stroke-width:0.5;opacity:1.0;" x1="1496.29" x2="1496.29" y1="600.785" y2="720.121"/>
  <line id="left-margin-Regular-S" style="fill:none;stroke:#00AEEF;stroke-width:0.5;opacity:1.0;" x1="1403.39" x2="1403.39" y1="600.785" y2="720.121"/>
  <line id="right-margin-Ultralight-S" style="fill:none;stroke:#00AEEF;stroke-width:0.5;opacity:1.0;" x1="604.411" x2="604.411" y1="600.785" y2="720.121"/>
  <line id="left-margin-Ultralight-S" style="fill:none;stroke:#00AEEF;stroke-width:0.5;opacity:1.0;" x1="515.011" x2="515.011" y1="600.785" y2="720.121"/>
 </g>
 <g id="Symbols">
  <g id="Black-S" transform="matrix(1 0 0 1 2884.9 696)">
   <path class="monochrome-0 multicolor-0:tintColor hierarchical-0:primary SFSymbolsPreviewWireframe" d="M88.51-40.7L85.51-40.7C84.31-47.4 82.41-52.1 78.51-57.6L82.31-61.4C85.01-64.1 84.21-68.8 80.31-70.4C78.61-71.1 76.11-70.5 74.81-69.2L70.91-65.3C65.51-68.9 61.01-71.3 54.01-72.3L54.01-75.3C54.01-78.2 51.71-80.7 48.61-80.7C45.21-80.7 43.21-77.9 43.21-75.3L43.21-72.3C36.71-71.1 31.71-69.2 26.31-65.3L22.51-69.1C20.21-71.4 16.81-71.1 14.81-69.1C12.51-66.8 12.81-63.4 14.81-61.4L18.61-57.6C14.91-52.3 12.71-47.6 11.61-40.7L8.61-40.7C5.41-40.7 3.21-38.2 3.21-35.3C3.21-32.1 5.81-29.9 8.61-29.9L11.61-29.9C12.61-24 14.51-18.6 18.61-13L14.81-9.2C12.51-6.9 13.01-3.4 14.81-1.5C15.61-0.7 16.91 0.1 18.61 0.1C20.41 0.1 21.61-0.7 22.41-1.5L26.21-5.3C31.51-1.7 36.01 0.7 43.11 1.7L43.11 4.7C43.11 9 48.01 11.8 51.81 9C53.21 8 53.91 6.3 53.91 4.6L53.91 1.7C60.31 0.7 65.41-1.5 70.81-5.3L74.61-1.5C75.41-0.7 76.71 0.1 78.41 0.1C80.21 0.1 81.41-0.7 82.21-1.5C84.31-3.6 84.31-7 82.21-9.2L78.41-13C82.41-18.2 84.41-23.6 85.41-29.9L88.41-29.9C92.41-29.9 95.11-34.1 93.21-37.9C92.51-39.4 90.31-40.7 88.51-40.7ZM48.71-8.7C33.41-8.7 21.81-20.9 21.91-35.9C21.91-38.3 22.21-39.4 22.71-41.9L25.11-41.9L27.71-36.6C28.41-35.1 30.41-33.9 32.11-33.9L40.71-33.9C42.41-33.9 44.41-35.1 45.11-36.6L47.71-41.9L49.01-41.9L51.61-36.6C52.31-35.1 54.31-33.9 56.01-33.9L64.61-33.9C66.31-33.9 68.31-35.1 69.01-36.6L71.61-41.9L74.01-41.9C74.71-39.1 74.81-38.1 74.81-35.3C75.11-19.9 62.31-8.7 48.71-8.7ZM48.51-61.8C55.91-61.8 62.81-59 68.51-52.6L28.41-52.6C34.71-59.6 41.91-61.8 48.51-61.8Z"/>
   <path class="monochrome-1 multicolor-1:tintColor hierarchical-1:primary SFSymbolsPreviewWireframe" d="M65.11-31.9C63.21-33 59.91-33.2 57.71-29.9C55.41-26.3 52.31-24.6 48.51-24.6C45.21-24.6 41.51-26.2 39.31-29.9C37.51-33.1 33.81-33 31.91-31.9C30.01-30.8 28.21-28 29.91-24.5C33.11-18.1 41.81-13.8 48.41-13.8C57.41-13.8 64.31-19.2 67.41-25.6C68.51-27.7 67.01-30.8 65.11-31.9Z"/>
  </g>
  <g id="Regular-S" transform="matrix(1 0 0 1 1403.39 696)">
   <path class="monochrome-0 multicolor-0:tintColor hierarchical-0:primary SFSymbolsPreviewWireframe" d="M86.46-39.2L82.26-39.2C81.46-46.1 78.76-52.5 74.56-57.6L79.26-62.3C80.86-63.9 80.86-66.4 79.26-68C77.66-69.6 75.16-69.6 73.56-68L68.96-63.3C63.76-67.4 57.46-70.2 50.56-71L50.56-75.2C50.56-77.4 48.76-79.2 46.56-79.2C44.36-79.2 42.56-77.4 42.56-75.2L42.56-71C35.66-70.2 29.26-67.5 24.16-63.3L19.46-68C17.86-69.6 15.36-69.6 13.76-68C12.16-66.4 12.16-63.9 13.76-62.3L18.46-57.6C14.36-52.4 11.56-46.1 10.76-39.2L6.46-39.2C4.26-39.2 2.46-37.4 2.46-35.2C2.46-33 4.26-31.2 6.46-31.2L10.66-31.2C11.46-24.3 14.16-17.9 18.36-12.8L13.66-8.1C12.06-6.5 12.06-4 13.66-2.4C14.46-1.6 15.46-1.2 16.46-1.2C17.46-1.2 18.46-1.6 19.26-2.4L23.96-7.1C29.26-3 35.56-0.3 42.46 0.5L42.46 4.7C42.46 6.9 44.26 8.7 46.46 8.7C48.66 8.7 50.46 6.9 50.46 4.7L50.46 0.5C57.46-0.3 63.76-3 68.96-7.1L73.66-2.4C74.46-1.6 75.46-1.2 76.46-1.2C77.46-1.2 78.46-1.6 79.26-2.4C80.86-4 80.86-6.5 79.26-8.1L74.56-12.8C78.66-18 81.46-24.3 82.26-31.2L86.46-31.2C88.66-31.2 90.46-33 90.46-35.2C90.46-37.5 88.76-39.2 86.46-39.2ZM46.46-7.3C31.06-7.3 18.46-19.9 18.46-35.3C18.46-38.1 18.86-40.8 19.66-43.3L23.96-43.3L26.86-37.5C27.56-36.1 28.96-35.3 30.46-35.3L38.46-35.3C39.96-35.3 41.36-36.2 42.06-37.5L44.96-43.3L48.06-43.3L50.96-37.5C51.66-36.1 53.06-35.3 54.56-35.3L62.56-35.3C64.06-35.3 65.46-36.2 66.16-37.5L69.06-43.3L73.36-43.3C74.16-40.8 74.56-38.1 74.56-35.3C74.46-19.8 61.96-7.3 46.46-7.3ZM46.46-63.2C55.96-63.2 64.36-58.4 69.36-51.2L23.56-51.2C28.66-58.5 36.96-63.2 46.46-63.2Z"/>
   <path class="monochrome-1 multicolor-1:tintColor hierarchical-1:primary SFSymbolsPreviewWireframe" d="M62.36-30.7C60.46-31.8 57.96-31.2 56.86-29.2C54.76-25.5 50.76-23.2 46.46-23.2C42.16-23.2 38.16-25.5 36.06-29.2C34.96-31.1 32.46-31.8 30.56-30.7C28.66-29.6 27.96-27.1 29.06-25.2C32.66-19 39.26-15.2 46.36-15.2C53.46-15.2 60.16-19 63.66-25.2C64.96-27.2 64.26-29.6 62.36-30.7Z"/>
  </g>
  <g id="Ultralight-S" transform="matrix(1 0 0 1 515.011 696)">
   <path class="monochrome-0 multicolor-0:tintColor hierarchical-0:primary SFSymbolsPreviewWireframe" d="M84.775-36.4L77.975-36.4C77.475-44.6 74.675-51.7 69.075-57.9L75.575-64.4C76.075-64.9 76.075-65.6 75.575-66.1C75.075-66.6 74.375-66.5 73.975-66.1L67.475-59.6C62.275-63.7 56.875-67.8 45.975-68.5L45.975-75.2C45.975-75.9 45.475-76.4 44.775-76.4C44.275-76.4 43.675-75.9 43.675-75.2L43.675-68.4C32.975-67.7 27.375-63.6 22.175-59.5L15.675-66C15.175-66.5 14.475-66.5 13.975-66C13.575-65.6 13.475-64.8 13.975-64.4L20.475-57.9C15.875-52.4 12.275-46.8 11.575-36.4L4.775-36.4C4.175-36.4 3.575-35.9 3.575-35.2C3.575-34.6 4.175-34 4.775-34L11.575-34C12.175-25.2 15.375-18 20.475-12.5L13.975-6.1C13.475-5.6 13.575-4.9 13.975-4.4C14.275-4.1 14.475-4.1 14.775-4.1C15.075-4.1 15.375-4.2 15.575-4.4L22.075-10.9C27.475-6.4 33.875-2.6 43.575-2L43.575 4.8C43.575 5.4 44.075 6 44.775 6C45.375 6 45.975 5.4 45.975 4.8L45.975-2C54.875-3 59.875-4.6 67.475-10.9L73.975-4.4C74.175-4.2 74.475-4.1 74.775-4.1C75.075-4.1 75.375-4.2 75.575-4.4C76.075-4.9 76.075-5.6 75.575-6.1L69.075-12.6C74.075-18.4 77.375-24.8 77.975-34.1L84.775-34.1C85.275-34.1 85.975-34.5 85.975-35.3C85.875-35.9 85.375-36.4 84.775-36.4ZM44.775-4.4C27.375-4.4 13.975-18.6 13.975-35.2C13.975-38 15.075-43.5 15.875-46L24.075-46L27.775-38.7C27.975-38.3 28.375-38 28.875-38L36.875-38C37.275-38 37.675-38.2 37.875-38.6L41.575-46L48.175-46L51.875-38.6C52.175-38.1 52.575-38 52.875-38L60.875-38C61.375-38 61.675-38.3 61.875-38.6L65.575-46L73.775-46C74.575-43.5 75.675-37.9 75.675-35.2C75.575-18.4 61.875-4.4 44.775-4.4ZM44.775-66.1C59.775-66.1 69.275-55.8 72.675-48.4L16.875-48.4C20.575-56 29.375-66.1 44.775-66.1Z"/>
   <path class="monochrome-1 multicolor-1:tintColor hierarchical-1:primary SFSymbolsPreviewWireframe" d="M59.175-28.3C58.675-28.6 57.975-28.5 57.575-27.9C55.275-23.9 50.575-20.5 44.875-20.5C39.075-20.5 34.375-23.6 31.875-27.9C31.575-28.4 30.875-28.7 30.275-28.3C29.575-27.8 29.575-27.2 29.875-26.7C33.175-21 38.975-18.1 44.875-18.1C49.975-18.1 55.775-20.5 59.575-26.7C59.975-27.3 59.775-27.9 59.175-28.3Z"/>
  </g>
 </g>
</svg>
