<svg width="160" height="160" viewBox="0 0 160 160" fill="none" xmlns="http://www.w3.org/2000/svg">
<mask id="mask0_2810_46782" style="mask-type:alpha" maskUnits="userSpaceOnUse" x="0" y="1" width="159" height="159">
<circle cx="79.1579" cy="80.1579" r="79.1579" fill="#EBF8FF"/>
</mask>
<g mask="url(#mask0_2810_46782)">
<path d="M201.723 -20.8945H-43.4079C-45.0057 -20.8961 -46.5881 -20.5607 -48.0648 -19.9076C-49.5414 -19.2544 -50.8832 -18.2962 -52.0136 -17.0879C-53.1439 -15.8795 -54.0406 -14.4446 -54.6524 -12.8653C-55.2642 -11.2859 -55.5791 -9.59299 -55.5791 -7.88332V146.293C-55.5791 149.747 -54.2968 153.059 -52.0142 155.502C-49.7317 157.944 -46.6359 159.316 -43.4079 159.316H201.723C204.951 159.316 208.047 157.944 210.33 155.502C212.612 153.059 213.895 149.747 213.895 146.293V-7.88332C213.895 -9.59299 213.58 -11.2859 212.968 -12.8653C212.356 -14.4446 211.459 -15.8795 210.329 -17.0879C209.199 -18.2962 207.857 -19.2544 206.38 -19.9076C204.904 -20.5607 203.321 -20.8961 201.723 -20.8945Z" fill="#223548"/>
<rect x="-28.6318" y="136.579" width="72.9653" height="10.9474" rx="3.36842" fill="#324E6B"/>
<rect x="38.124" y="136.579" width="161.455" height="10.9474" rx="3.36842" fill="#2A4259"/>
<rect x="5.89453" y="46.4736" width="37.8947" height="48" rx="4.21053" fill="#324E6B"/>
<rect x="7.20996" y="44.7354" width="37.8947" height="48" rx="4.21053" fill="#2A4259"/>
<rect x="9.73633" y="47.2617" width="32.8421" height="42.9474" rx="2.52632" fill="#223548"/>
<path fill-rule="evenodd" clip-rule="evenodd" d="M40.8945 90.0651V47.4053C41.8757 47.7521 42.5787 48.6879 42.5787 49.7878V87.6826C42.5787 88.7825 41.8757 89.7183 40.8945 90.0651Z" fill="#324E6B"/>
<mask id="mask1_2810_46782" style="mask-type:alpha" maskUnits="userSpaceOnUse" x="9" y="47" width="34" height="44">
<rect x="9.73633" y="47.2617" width="32.8421" height="42.9474" rx="2.52632" fill="#EBF8FF"/>
</mask>
<g mask="url(#mask1_2810_46782)">
<path d="M30.0088 79.1122L18.1058 81.4419L16.5954 78.9822C15.6637 77.4622 15.075 75.758 14.8702 73.988C14.6654 72.218 14.8494 70.4248 15.4095 68.7329C15.9696 67.0411 16.8922 65.4913 18.1133 64.1912C19.3344 62.8911 20.8246 61.872 22.4804 61.2047L26.1129 59.7427C30.7241 57.8854 35.4204 62.2316 33.9046 66.9572L30.0088 79.1122Z" fill="#324E6B"/>
<path d="M27.8864 97.2027L23.8496 95.677C23.4255 95.5163 23.045 95.2589 22.7384 94.9254C22.4318 94.5918 22.2077 94.1914 22.0838 93.756L18.6852 81.8663C18.6118 81.6106 18.6128 81.3393 18.6879 81.0841C18.7631 80.8289 18.9093 80.6003 19.1097 80.4248C19.3101 80.2494 19.5563 80.1343 19.8196 80.0931C20.083 80.0519 20.3527 80.0862 20.5973 80.192L30.0271 84.2649L30.9259 94.9155C30.9578 95.2935 30.8932 95.6735 30.738 96.0198C30.5829 96.3662 30.3423 96.6676 30.0387 96.896C29.7352 97.1245 29.3785 97.2724 29.0021 97.326C28.6257 97.3797 28.2419 97.3372 27.8864 97.2027Z" fill="#2A4259"/>
<path d="M30.4315 89.0645L30.2294 86.6473C29.4255 86.0998 28.5641 85.6416 27.6605 85.2808C25.1422 84.2566 22.8392 84.0736 22.5148 84.8696C22.1904 85.6656 23.9668 87.1382 26.4824 88.1624C28.0115 88.7833 29.4555 89.0937 30.4315 89.0645Z" fill="#324E6B"/>
<path d="M25.4495 68.3623L29.6716 68.5911C30.3811 68.6282 31.0764 68.8045 31.7175 69.11C32.3587 69.4155 32.9332 69.8442 33.4081 70.3715C33.883 70.8987 34.2491 71.5143 34.4853 72.1829C34.7215 72.8515 34.8233 73.56 34.7847 74.2679L34.3689 81.9036C34.2912 83.3315 33.6481 84.67 32.5813 85.6248C31.5144 86.5796 30.1111 87.0724 28.6801 86.9948L26.8771 86.8971C24.8045 86.7847 22.8615 85.8554 21.4756 84.3137C20.0896 82.772 19.3743 80.7441 19.4869 78.6761L19.7713 73.454C19.8489 72.028 20.4904 70.691 21.555 69.7364C22.6195 68.7818 24.0202 68.2876 25.4495 68.3623Z" fill="#2A4259"/>
<path d="M31.668 75.6813L30.4128 78.9635C30.4053 78.9826 30.4027 79.0033 30.4052 79.0237C30.4077 79.0441 30.4152 79.0636 30.427 79.0804C30.4389 79.0972 30.4547 79.1108 30.4731 79.12C30.4915 79.1293 30.5119 79.1338 30.5324 79.1333H32.6147C32.6339 79.1335 32.653 79.1293 32.6703 79.121C32.6877 79.1126 32.7029 79.1004 32.7147 79.0853C32.7266 79.0701 32.7347 79.0524 32.7386 79.0336C32.7425 79.0148 32.7419 78.9953 32.737 78.9767L31.91 75.6972C31.9033 75.6712 31.8885 75.648 31.8678 75.6309C31.8471 75.6138 31.8216 75.6036 31.7947 75.6018C31.7679 75.6001 31.7412 75.6068 31.7185 75.6211C31.6957 75.6353 31.678 75.6564 31.668 75.6813Z" fill="#324E6B"/>
<path d="M15.6256 72.0772L17.6705 71.4914C17.7079 71.478 17.7477 71.4725 17.7874 71.4753C17.8271 71.478 17.8658 71.489 17.901 71.5075C17.9363 71.5259 17.9673 71.5515 17.9921 71.5825C18.0169 71.6136 18.0349 71.6494 18.0451 71.6878L20.1308 78.9358C20.3085 79.5533 20.2331 80.216 19.9211 80.778C19.6091 81.3401 19.0862 81.7554 18.4672 81.9328C18.394 81.9537 18.3155 81.9448 18.2488 81.908C18.1822 81.8712 18.133 81.8095 18.1119 81.7364L15.4354 72.4354C15.4243 72.3994 15.4205 72.3616 15.424 72.3241C15.4276 72.2867 15.4385 72.2503 15.4562 72.217C15.4738 72.1837 15.4979 72.1543 15.527 72.1303C15.5561 72.1063 15.5896 72.0883 15.6256 72.0772Z" fill="#324E6B"/>
<path d="M19.151 78.0747L17.332 77.3371L22.2783 70.9902L21.6773 74.2379C21.4442 75.5066 20.9399 76.7102 20.1987 77.7669C20.085 77.9292 19.9193 78.048 19.7289 78.104C19.5385 78.1599 19.3347 78.1496 19.151 78.0747Z" fill="#324E6B"/>
<path d="M20.2472 79.846C20.91 79.6817 21.2022 78.5639 20.8998 77.3494C20.5975 76.1348 19.815 75.2834 19.1522 75.4477C18.4895 75.6119 18.1973 76.7297 18.4996 77.9443C18.802 79.1588 19.5844 80.0102 20.2472 79.846Z" fill="#2A4259"/>
<path d="M29.2572 72.2734C34.7396 71.5212 38.9095 68.9201 38.571 66.4638C38.2324 64.0074 33.5136 62.6259 28.0312 63.3782C22.5489 64.1304 18.3789 66.7315 18.7175 69.1879C19.056 71.6442 23.7748 73.0257 29.2572 72.2734Z" fill="#324E6B"/>
<path d="M22.1908 70.9606L18.8145 69.5879L17.245 73.4309L20.6213 74.8037L22.1908 70.9606Z" fill="#324E6B"/>
<path d="M21.998 64.4461C24.3384 62.0566 25.7128 59.6096 25.0678 58.9808C24.4229 58.3519 22.0028 59.7793 19.6624 62.1689C17.3221 64.5585 15.9476 67.0054 16.5926 67.6342C17.2375 68.2631 19.6576 66.8357 21.998 64.4461Z" fill="#324E6B"/>
</g>
<rect x="71.5781" y="-6.9458" width="37.8947" height="48" rx="4.21053" fill="#324E6B"/>
<rect x="73.2627" y="-8.26318" width="37.8947" height="48" rx="4.21053" fill="#2A4259"/>
<rect x="75.7891" y="-5.73682" width="32.8421" height="42.9474" rx="2.52632" fill="#223548"/>
<path fill-rule="evenodd" clip-rule="evenodd" d="M106.946 37.0666V-5.59326C107.927 -5.24657 108.63 -4.3113 108.63 -3.21181V34.6852C108.63 35.7846 107.927 36.7199 106.946 37.0666Z" fill="#324E6B"/>
<path d="M75.7891 17C75.7891 17 84.2101 17 89.6838 24.5789C95.1575 32.1579 98.5259 37.2105 98.5259 37.2105H78.3154C76.9175 37.2105 75.7891 36.0821 75.7891 34.6842V17Z" fill="#324E6B"/>
<path d="M96.6394 28.9243C95.2331 28.5538 93.8605 29.0085 92.37 29.8759C91.2415 30.5748 90.1468 31.3412 89.0942 32.1664C87.2247 33.5727 85.5826 35.2738 84.21 37.2106H103.578C99.6963 33.3959 99.6205 29.7075 96.6394 28.9243Z" fill="#3B5B7C"/>
<path d="M98.7617 16.318C101.221 16.318 103.208 14.398 103.208 12.0233C103.208 9.64852 101.212 7.72852 98.7617 7.72852C96.3112 7.72852 94.3154 9.64852 94.3154 12.0233C94.3154 14.398 96.3112 16.318 98.7617 16.318Z" fill="#2A4259"/>
<rect x="153.263" y="6.89453" width="37.8947" height="48" rx="4.21053" fill="#324E6B"/>
<rect x="154.578" y="5.15625" width="37.8947" height="48" rx="4.21053" fill="#2A4259"/>
<rect x="157.104" y="7.68262" width="32.8421" height="42.9474" rx="2.52632" fill="#223548"/>
</g>
<rect width="37.2632" height="5.68421" rx="2.52632" transform="matrix(-1 0 0 1 82.1582 130.895)" fill="#0070F3"/>
<path d="M72.6647 134.99L70.1576 130.895H159.842V134.571C159.842 134.835 159.796 135.097 159.708 135.342C159.619 135.586 159.49 135.808 159.327 135.995C159.163 136.181 158.97 136.329 158.756 136.429C158.543 136.529 158.315 136.58 158.085 136.579H75.3298C74.8071 136.58 74.2919 136.436 73.828 136.16C73.364 135.883 72.9649 135.482 72.6647 134.99Z" fill="#1782FF"/>
<path d="M121.475 73.4217H35.5569C35.2534 73.4132 34.952 73.4742 34.6761 73.5998C34.4003 73.7254 34.1574 73.9123 33.9663 74.1459C33.7752 74.3796 33.6412 74.6537 33.5744 74.947C33.5077 75.2403 33.5103 75.5449 33.5817 75.8371L45.0177 129.31C45.1147 129.757 45.3636 130.159 45.723 130.447C46.0823 130.735 46.5304 130.893 46.9929 130.894H131.924C132.224 130.901 132.522 130.841 132.795 130.717C133.068 130.593 133.309 130.409 133.5 130.179C133.69 129.949 133.825 129.678 133.894 129.389C133.963 129.099 133.965 128.798 133.899 128.508L123.45 75.045C123.37 74.5858 123.127 74.1699 122.765 73.8723C122.403 73.5747 121.946 73.4149 121.475 73.4217Z" fill="#4098FF"/>
<path d="M117.563 81.8544C117.265 80.2604 115.874 79.105 114.252 79.105H91.6462C89.6243 79.105 88.058 80.8737 88.3025 82.8808L91.3292 107.723C91.5351 109.413 92.9701 110.684 94.6729 110.684H118.897C121.005 110.684 122.595 108.769 122.208 106.696L117.563 81.8544Z" fill="#1782FF"/>
<path d="M46.0347 85.4512L88.8912 85.5992L104.887 85.6584C105.357 85.6516 105.815 85.8129 106.176 86.1132C106.538 86.4135 106.781 86.8332 106.861 87.2966L111.292 110.527L113.66 122.972C113.724 123.264 113.721 123.567 113.651 123.858C113.582 124.149 113.446 124.42 113.256 124.651C113.066 124.882 112.826 125.067 112.554 125.191C112.282 125.316 111.985 125.377 111.686 125.37H52.6364C52.1665 125.364 51.713 125.196 51.3532 124.894C50.9934 124.591 50.7494 124.174 50.6628 123.712L44.0611 87.8394C44.0078 87.549 44.0187 87.2504 44.093 86.9647C44.1674 86.679 44.3034 86.413 44.4915 86.1854C44.6795 85.9578 44.9151 85.7742 45.1817 85.6473C45.4483 85.5205 45.7395 85.4535 46.0347 85.4512Z" fill="#CEDBE8"/>
<path d="M77.9315 88.4524C75.8531 88.4204 73.7911 88.8259 71.8791 89.6428C69.9696 90.4596 68.253 91.6695 66.8406 93.194C65.4375 94.7441 64.3742 96.5715 63.7193 98.5585C63.0681 100.544 62.8414 102.645 63.0539 104.724C63.8461 113.656 71.7682 120.945 80.6924 120.945C82.7708 120.977 84.8328 120.571 86.7449 119.755C88.6537 118.937 90.3702 117.727 91.7833 116.203C93.1879 114.654 94.2514 112.827 94.9046 110.839C95.5575 108.853 95.7842 106.752 95.57 104.673C94.7897 95.7215 86.8756 88.4524 77.9315 88.4524ZM91.1812 115.632C89.8493 117.071 88.2297 118.214 86.428 118.985C84.6241 119.758 82.6781 120.144 80.7162 120.116C72.1841 120.116 64.6383 113.18 63.8897 104.641C63.688 102.674 63.9013 100.687 64.5155 98.8085C65.1307 96.9298 66.1319 95.2011 67.4546 93.7336C68.7884 92.2964 70.4075 91.1543 72.2078 90.3808C74.0126 89.6108 75.9582 89.2269 77.9197 89.2539C86.4517 89.2539 94.0015 96.1857 94.7462 104.728C94.9491 106.694 94.7372 108.679 94.1243 110.557C93.51 112.436 92.5087 114.165 91.1852 115.632H91.1812Z" fill="#F58B00"/>
<path d="M89.3295 114.493C94.1885 109.408 93.6374 100.981 88.0986 95.6693C82.5598 90.358 74.1307 90.1741 69.2717 95.2586C64.4127 100.343 64.9637 108.771 70.5025 114.082C76.0414 119.393 84.4705 119.577 89.3295 114.493Z" fill="#0070F3"/>
<path d="M80.4749 102.789C80.4903 103.056 80.6088 103.307 80.8054 103.489C81.002 103.67 81.2613 103.768 81.5286 103.761H85.9531C86.0789 103.769 86.2049 103.749 86.3217 103.702C86.4386 103.654 86.5433 103.581 86.6282 103.488C86.713 103.395 86.7758 103.283 86.8118 103.162C86.8479 103.041 86.8563 102.914 86.8364 102.789L86.4403 98.2975C86.425 98.0302 86.3064 97.7793 86.1098 97.5979C85.9132 97.4165 85.6539 97.3188 85.3866 97.3254C85.2607 97.3174 85.1346 97.3378 85.0176 97.3851C84.9006 97.4324 84.7957 97.5053 84.7106 97.5986C84.6254 97.6919 84.5623 97.8031 84.5257 97.924C84.4892 98.045 84.4802 98.1726 84.4994 98.2975L84.642 99.9164C83.8644 99.1113 82.9358 98.468 81.9093 98.0234C80.8829 97.5787 79.7789 97.3416 78.6608 97.3254C77.6754 97.309 76.6978 97.5027 75.7928 97.8936C74.8878 98.2845 74.0762 98.8637 73.4117 99.5928C72.7471 100.322 72.245 101.184 71.9385 102.122C71.632 103.061 71.5281 104.053 71.6339 105.035C71.8501 107.123 72.8214 109.059 74.3646 110.479C75.9078 111.9 77.9163 112.705 80.0115 112.744C81.7119 112.769 83.3628 112.171 84.6544 111.062C85.9459 109.954 86.7894 108.412 87.0265 106.725C87.0511 106.45 86.9688 106.176 86.7968 105.959C86.6408 105.749 86.4094 105.606 86.1511 105.563C86.0222 105.536 85.8891 105.536 85.7602 105.564C85.6314 105.591 85.5096 105.645 85.4025 105.721C85.3053 105.792 85.2246 105.883 85.1658 105.988C85.107 106.092 85.0715 106.209 85.0618 106.328C84.901 107.59 84.2774 108.746 83.3123 109.572C82.3473 110.397 81.1099 110.834 79.8412 110.796C78.2747 110.767 76.773 110.164 75.6194 109.102C74.4658 108.04 73.74 106.592 73.5787 105.031C73.4977 104.297 73.5736 103.554 73.8013 102.851C74.0289 102.149 74.4032 101.503 74.8992 100.957C75.3953 100.41 76.0017 99.9758 76.6783 99.6822C77.3548 99.3886 78.086 99.2426 78.8232 99.2538C79.793 99.2651 80.747 99.501 81.6108 99.9429C82.4745 100.385 83.2245 101.021 83.8022 101.801H81.2909C81.1685 101.801 81.0475 101.827 80.9366 101.879C80.8257 101.931 80.7277 102.007 80.6496 102.102C80.5716 102.196 80.5154 102.307 80.4852 102.426C80.455 102.545 80.4515 102.669 80.4749 102.789Z" fill="#CEDBE8"/>
</svg>
