<svg width="128" height="128" viewBox="0 0 128 128" fill="none" xmlns="http://www.w3.org/2000/svg">
<mask id="mask0_2810_46767" style="mask-type:alpha" maskUnits="userSpaceOnUse" x="0" y="0" width="128" height="128">
<circle cx="64" cy="64" r="64" fill="#EBF8FF"/>
</mask>
<g mask="url(#mask0_2810_46767)">
<mask id="mask1_2810_46767" style="mask-type:alpha" maskUnits="userSpaceOnUse" x="-173" y="-17" width="321" height="201">
<path d="M132.917 -16.5288H-158.177C-160.074 -16.5306 -161.953 -16.1583 -163.707 -15.4334C-165.46 -14.7086 -167.054 -13.6452 -168.396 -12.3041C-169.738 -10.9631 -170.803 -9.37064 -171.529 -7.61783C-172.256 -5.86502 -172.63 -3.98621 -172.63 -2.0888V169.018C-172.63 172.851 -171.107 176.527 -168.397 179.238C-165.686 181.948 -162.01 183.471 -158.177 183.471H132.917C136.75 183.471 140.426 181.948 143.137 179.238C145.847 176.527 147.37 172.851 147.37 169.018V-2.0888C147.37 -3.98621 146.996 -5.86502 146.27 -7.61783C145.543 -9.37064 144.478 -10.9631 143.136 -12.3041C141.794 -13.6452 140.2 -14.7086 138.447 -15.4334C136.693 -16.1583 134.814 -16.5306 132.917 -16.5288Z" fill="#EBF8FF"/>
</mask>
<g mask="url(#mask1_2810_46767)">
<path d="M132.917 -16.5288H-158.177C-160.074 -16.5306 -161.953 -16.1583 -163.707 -15.4334C-165.46 -14.7086 -167.054 -13.6452 -168.396 -12.3041C-169.738 -10.9631 -170.803 -9.37064 -171.529 -7.61783C-172.256 -5.86502 -172.63 -3.98621 -172.63 -2.0888V169.018C-172.63 172.851 -171.107 176.527 -168.397 179.238C-165.686 181.948 -162.01 183.471 -158.177 183.471H132.917C136.75 183.471 140.426 181.948 143.137 179.238C145.847 176.527 147.37 172.851 147.37 169.018V-2.0888C147.37 -3.98621 146.996 -5.86502 146.27 -7.61783C145.543 -9.37064 144.478 -10.9631 143.136 -12.3041C141.794 -13.6452 140.2 -14.7086 138.447 -15.4334C136.693 -16.1583 134.814 -16.5306 132.917 -16.5288Z" fill="#223548"/>
<path d="M-195.63 131.511C-195.63 131.511 -113.309 102.948 -58.6299 93.0111C-30.916 87.9745 -15.2948 83.9216 12.8701 83.5111C56.8441 82.8703 81.7173 89.9706 123.87 102.511C153.62 111.362 197.87 131.511 197.87 131.511L-193.63 132.511L-195.63 131.511Z" fill="#2A4259"/>
</g>
<ellipse cx="115.037" cy="12.1379" rx="2.66666" ry="2.66667" fill="#EBF8FF"/>
<ellipse cx="77.7035" cy="16.1378" rx="1.33334" ry="1.33333" fill="#EBF8FF"/>
<ellipse cx="125.703" cy="49.4713" rx="1.33333" ry="1.33334" fill="#EBF8FF"/>
<path d="M117.66 73.1912C117.66 72.2712 116.92 71.5312 116 71.5312C115.08 71.5312 114.34 72.2712 114.34 73.1912V136.811C114.34 137.731 115.08 138.471 116 138.471C116.92 138.471 117.66 137.731 117.66 136.811V73.1912Z" fill="#324E6B"/>
<path d="M23.4494 56.7422C20.4771 56.7422 18.0674 59.1519 18.0674 62.1212V70.4137C18.0674 73.386 20.4771 75.7927 23.4464 75.7927C26.4187 75.7927 28.8255 73.383 28.8255 70.4137V62.1212C28.8284 59.1519 26.4187 56.7422 23.4494 56.7422Z" fill="#2A4259"/>
<path d="M23.9413 65.4619C23.9413 65.1702 23.7057 64.9346 23.414 64.9346C23.1224 64.9346 22.8867 65.1702 22.8867 65.4619V85.673C22.8867 85.9647 23.1224 86.2003 23.414 86.2003C23.7057 86.2003 23.9413 85.9647 23.9413 85.673V65.4619Z" fill="#324E6B"/>
<path d="M116.449 73.7422C113.477 73.7422 111.067 76.1519 111.067 79.1212V87.4137C111.067 90.386 113.477 92.7927 116.446 92.7927C119.419 92.7927 121.825 90.383 121.825 87.4137V79.1212C121.828 76.1519 119.419 73.7422 116.449 73.7422Z" fill="#2A4259"/>
<path d="M116.941 82.4619C116.941 82.1702 116.706 81.9346 116.414 81.9346C116.122 81.9346 115.887 82.1702 115.887 82.4619V102.673C115.887 102.965 116.122 103.2 116.414 103.2C116.706 103.2 116.941 102.965 116.941 102.673V82.4619Z" fill="#324E6B"/>
<path d="M0.829117 63.5796C-2.48432 63.5796 -5.1709 66.2662 -5.1709 69.5796V71.6016C-5.1709 74.915 -2.48432 77.6016 0.829117 77.6016C4.14256 77.6016 6.82913 74.915 6.82913 71.6016V69.5796C6.82913 66.2662 4.14256 63.5796 0.829117 63.5796Z" fill="#2A4259"/>
<path d="M1.25995 71.7618C1.25995 71.545 1.08555 71.3706 0.868742 71.3706C0.651931 71.3706 0.477539 71.545 0.477539 71.7618V86.7548C0.477539 86.9716 0.651931 87.146 0.868742 87.146C1.08555 87.146 1.25995 86.9716 1.25995 86.7548V71.7618Z" fill="#324E6B"/>
<path d="M59.2832 87.1416V175.939C59.2832 178.238 60.4707 180.106 61.9417 180.106H69.5997V87.1416H59.2832Z" fill="#324E6B"/>
<path d="M69.5996 87.1416V180.106C70.1556 180.106 70.6889 179.885 71.0821 179.49C71.4752 179.096 71.6961 178.561 71.6961 178.003V87.1416H69.5996Z" fill="#3B5B7C"/>
<path d="M44.4901 34.2395H89.9882C96.5828 34.2395 102.907 36.8675 107.57 41.5453C112.234 46.2231 114.853 52.5676 114.853 59.183V83.8421C114.853 84.9473 114.416 86.0072 113.637 86.7887C112.858 87.5702 111.801 88.0092 110.699 88.0092H23.8229C22.7212 88.0092 21.6646 87.5702 20.8856 86.7887C20.1066 86.0072 19.6689 84.9473 19.6689 83.8421V59.1487C19.6677 55.878 20.3087 52.6392 21.5555 49.6171C22.8023 46.595 24.6304 43.849 26.9354 41.5358C29.2404 39.2227 31.9771 37.3877 34.9892 36.1358C38.0013 34.8839 41.2297 34.2395 44.4901 34.2395Z" fill="#1782FF"/>
<path d="M90.6577 34.2395H90.9021C97.3826 34.2395 103.598 36.822 108.18 41.4189C112.763 46.0158 115.337 52.2506 115.337 58.7516V82.9352C115.337 83.4856 115.229 84.0307 115.019 84.5392C114.809 85.0478 114.501 85.5099 114.113 85.8991C113.725 86.2883 113.265 86.5971 112.758 86.8077C112.251 87.0183 111.707 87.1268 111.159 87.1268H70.3962C69.8475 87.1268 69.3041 87.0183 68.7972 86.8077C68.2902 86.5971 67.8296 86.2883 67.4416 85.8991C67.0536 85.5099 66.7458 85.0478 66.5358 84.5392C66.3259 84.0307 66.2178 83.4856 66.2178 82.9352V58.7516C66.2178 52.2506 68.7922 46.0158 73.3746 41.4189C77.9571 36.822 84.1723 34.2395 90.6528 34.2395H90.6577Z" fill="#4098FF"/>
<path d="M90.3943 36.9656H91.0883C93.8954 36.9656 96.675 37.5202 99.2685 38.5978C101.862 39.6755 104.218 41.255 106.203 43.2461C108.188 45.2373 109.763 47.6012 110.837 50.2028C111.911 52.8044 112.464 55.5928 112.464 58.4087V84.6171H69.0283V58.4136C69.0283 55.5977 69.5812 52.8093 70.6555 50.2077C71.7297 47.6061 73.3042 45.2422 75.2891 43.251C77.2741 41.2599 79.6305 39.6804 82.2239 38.6027C84.8174 37.5251 87.597 36.9705 90.4041 36.9705L90.3943 36.9656Z" fill="#0070F3"/>
<path d="M142.979 84.6213H67.4204C66.4865 84.6213 65.7295 85.3808 65.7295 86.3176V86.3225C65.7295 87.2593 66.4865 88.0187 67.4204 88.0187H142.979C143.912 88.0187 144.669 87.2593 144.669 86.3225V86.3176C144.669 85.3808 143.912 84.6213 142.979 84.6213Z" fill="#1782FF"/>
<path d="M3.44238 58.7122L3.44238 75.752C3.44238 76.2522 3.63638 76.7319 3.98169 77.0856C4.327 77.4392 4.79535 77.6379 5.2837 77.6379H12.3115C12.7998 77.6379 13.2682 77.4392 13.6135 77.0856C13.9588 76.7319 14.1528 76.2522 14.1528 75.752V69.0215H15.0561H52.4978C53.1657 69.0209 53.8267 68.8843 54.4426 68.6196C55.0584 68.3549 55.6167 67.9675 56.0851 67.4798C56.5534 66.9921 56.9223 66.4138 57.1704 65.7788C57.4186 65.1437 57.5409 64.4644 57.5304 63.7804C57.5231 63.5524 57.5032 63.325 57.4708 63.0992C57.2572 61.8608 56.622 60.7399 55.6779 59.9358C54.7338 59.1317 53.542 58.6963 52.3142 58.7071H3.45727L3.44238 58.7122Z" fill="#CC7400"/>
<path d="M3.44238 57.8108L3.44238 74.8506C3.44238 75.3508 3.63638 75.8305 3.98169 76.1842C4.327 76.5379 4.79535 76.7366 5.2837 76.7366H12.3115C12.7998 76.7366 13.2682 76.5379 13.6135 76.1842C13.9588 75.8305 14.1528 75.3508 14.1528 74.8506V68.1201H15.0561H52.4978C53.1657 68.1195 53.8267 67.9829 54.4426 67.7182C55.0584 67.4536 55.6167 67.0661 56.0851 66.5784C56.5534 66.0907 56.9223 65.5125 57.1704 64.8774C57.4186 64.2423 57.5409 63.563 57.5304 62.879C57.5231 62.651 57.5032 62.4236 57.4708 62.1979C57.2572 60.9594 56.622 59.8386 55.6779 59.0344C54.7338 58.2303 53.542 57.795 52.3142 57.8057H3.45727L3.44238 57.8108Z" fill="#F58B00"/>
</g>
</svg>
