<svg width="160" height="160" viewBox="0 0 160 160" fill="none" xmlns="http://www.w3.org/2000/svg">
<circle cx="80" cy="80" r="80" fill="#223548"/>
<path d="M50.9533 68.2004L36.9593 59.393L22.7803 79.5277L68.7524 114.214L91.6229 90.147C91.3027 87.2855 91.0653 80.5536 82.3719 75.8379C76.9842 72.9154 70.1352 71.907 64.7832 71.755C59.97 71.6184 55.0284 70.7652 50.9533 68.2004Z" fill="#F58B00"/>
<rect x="86.042" y="85.1328" width="40.6" height="8.92801" rx="4.46401" transform="rotate(45.6507 86.042 85.1328)" fill="#F58B00"/>
<rect x="82.0352" y="91.3047" width="28.7393" height="8.92801" rx="4.46401" transform="rotate(51.9253 82.0352 91.3047)" fill="#F58B00"/>
<rect x="75.2354" y="95.3242" width="28.7393" height="8.92801" rx="4.46401" transform="rotate(51.9253 75.2354 95.3242)" fill="#F58B00"/>
<rect x="67.4258" y="97.2246" width="28.7393" height="8.92801" rx="4.46401" transform="rotate(51.9253 67.4258 97.2246)" fill="#F58B00"/>
<path d="M107.95 79.148L134.449 74.1171C134.782 74.0539 135.098 74.2879 135.135 74.6249L137.823 99.2668C137.857 99.5822 137.632 99.8669 137.317 99.9063L118.97 102.201C118.942 102.205 118.914 102.21 118.887 102.218L106.609 105.628C106.405 105.684 106.188 105.626 106.039 105.476L87.6957 86.8573C85.861 84.995 83.1984 84.2728 80.6064 84.6137C70.542 85.9374 66.6328 82.3694 65.268 79.2608C64.8748 78.3653 65.5323 77.4307 66.4969 77.2689L85.6979 74.0476C86.2766 73.9505 86.8628 73.9398 87.4397 74.0468C88.8977 74.3172 91.9745 74.9969 94.9925 76.3534C99.0597 78.1813 103.569 79.9797 107.95 79.148Z" fill="#324E6B"/>
<path fill-rule="evenodd" clip-rule="evenodd" d="M80.1013 103.1C80.4698 102.79 81.0195 102.838 81.329 103.206L91.4875 115.301C91.7971 115.669 91.7492 116.219 91.3807 116.529C91.0122 116.838 90.4625 116.79 90.1529 116.422L79.9944 104.327C79.6849 103.959 79.7327 103.409 80.1013 103.1Z" fill="#CC7400"/>
<path fill-rule="evenodd" clip-rule="evenodd" d="M86.0762 97.6357C86.4165 97.2954 86.9683 97.2954 87.3086 97.6357L104.113 114.44C104.453 114.78 104.453 115.332 104.113 115.672C103.772 116.013 103.221 116.013 102.88 115.672L86.0762 98.8681C85.7359 98.5278 85.7359 97.9761 86.0762 97.6357Z" fill="#CC7400"/>
<path fill-rule="evenodd" clip-rule="evenodd" d="M72.1796 105.955C72.5507 105.649 73.1 105.701 73.4064 106.072L83.6273 118.452C83.9337 118.823 83.8812 119.372 83.5101 119.679C83.1389 119.985 82.5897 119.933 82.2833 119.562L72.0624 107.182C71.756 106.811 71.8084 106.262 72.1796 105.955Z" fill="#CC7400"/>
<path fill-rule="evenodd" clip-rule="evenodd" d="M87.6288 85.6733C88.0573 85.4543 88.5823 85.6241 88.8013 86.0527C90.383 89.1476 96.983 95.79 110.404 95.6721C110.885 95.6679 111.278 96.0546 111.283 96.5358C111.287 97.0171 110.9 97.4107 110.419 97.4149C96.3989 97.538 89.1581 90.5808 87.2493 86.8458C87.0303 86.4173 87.2002 85.8923 87.6288 85.6733Z" fill="#0070F3"/>
<path fill-rule="evenodd" clip-rule="evenodd" d="M117.848 102.349C117.627 101.921 117.794 101.396 118.222 101.174C118.67 100.942 119.412 100.448 120.086 99.7579C120.764 99.0649 121.313 98.2374 121.495 97.3428C121.591 96.8712 122.051 96.5667 122.522 96.6627C122.994 96.7587 123.298 97.2188 123.202 97.6904C122.929 99.0334 122.141 100.149 121.332 100.976C120.521 101.807 119.627 102.409 119.023 102.722C118.596 102.943 118.07 102.776 117.848 102.349Z" fill="#0070F3"/>
<rect x="57.4248" y="115.559" width="16.6934" height="8.92801" rx="4.46401" transform="rotate(-86.1068 57.4248 115.559)" fill="#324E6B"/>
<path d="M54.1236 110.924C51.6639 110.757 49.8056 108.627 49.973 106.167L50.3542 100.566C50.5571 97.5849 53.1385 95.3324 56.12 95.5353C58.0579 95.6672 59.5221 97.3452 59.3902 99.2831L58.8804 106.774C58.713 109.233 56.5833 111.092 54.1236 110.924Z" fill="#324E6B"/>
<path d="M45.7359 106.368C43.2762 106.2 41.4179 104.07 41.5853 101.611L41.6227 101.061C41.8108 98.2973 44.2035 96.2095 46.967 96.3975L50.0609 96.6081C50.5081 96.6385 50.846 97.0257 50.8156 97.473L50.4927 102.217C50.3253 104.677 48.1956 106.535 45.7359 106.368Z" fill="#324E6B"/>
<rect x="65.9932" y="119.4" width="13.1021" height="8.92801" rx="4.46401" transform="rotate(-86.1068 65.9932 119.4)" fill="#324E6B"/>
<path fill-rule="evenodd" clip-rule="evenodd" d="M66.9612 108.431C67.4411 108.468 67.8002 108.887 67.7633 109.367L67.2864 115.575C67.2495 116.055 66.8306 116.414 66.3508 116.377C65.8709 116.34 65.5118 115.921 65.5486 115.442L66.0256 109.233C66.0624 108.754 66.4813 108.394 66.9612 108.431Z" fill="#0070F3"/>
<path fill-rule="evenodd" clip-rule="evenodd" d="M58.691 100.605C59.1712 100.636 59.5348 101.051 59.5031 101.532L58.8963 110.722C58.8646 111.202 58.4495 111.566 57.9693 111.534C57.4891 111.503 57.1255 111.088 57.1572 110.607L57.764 101.417C57.7957 100.937 58.2108 100.573 58.691 100.605Z" fill="#0070F3"/>
<path fill-rule="evenodd" clip-rule="evenodd" d="M50.7232 98.1116C51.2024 98.1568 51.5542 98.5818 51.5091 99.061L50.9066 105.454C50.8614 105.934 50.4364 106.285 49.9572 106.24C49.4781 106.195 49.1263 105.77 49.1714 105.291L49.7739 98.8974C49.819 98.4183 50.2441 98.0665 50.7232 98.1116Z" fill="#0070F3"/>
<path fill-rule="evenodd" clip-rule="evenodd" d="M0.0806543 76.3657C0.814653 59.9442 6.49931 44.8109 15.678 32.4221L46.5828 60.9529C49.0588 63.2454 50.8424 66.2441 51.7123 69.5769C52.5821 72.9098 52.5001 76.4303 51.4763 79.7017C50.8331 81.753 49.7964 83.6428 48.4294 85.2555C47.0624 86.8683 45.394 88.1702 43.5258 89.0817C41.6577 89.9933 39.6292 90.4953 37.5642 90.5571C35.4992 90.6189 33.4411 90.2393 31.5155 89.4414L0.0806543 76.3657Z" fill="#00A58A"/>
<path fill-rule="evenodd" clip-rule="evenodd" d="M0.0382154 82.5369C0.0119616 81.6942 -0.00126711 80.8483 -0.00126599 79.9993C-0.00126591 61.012 6.61352 43.5696 17.6643 29.8509L40.3143 51.1974C50.5366 66.3314 35.9637 84.5972 19.9198 87.5192L16.9719 88.0594C15.622 88.3044 14.2315 88.1648 12.946 87.6552L0.0382154 82.5369Z" fill="#64EDD2"/>
<path d="M12.8387 82.5685C10.724 82.8211 8.79519 81.2301 8.53068 79.015C8.26618 76.8 9.7661 74.7996 11.8809 74.5471C13.9956 74.2946 15.9244 75.8855 16.1889 78.1006C16.4534 80.3156 14.9535 82.316 12.8387 82.5685Z" fill="#00A58A"/>
<path fill-rule="evenodd" clip-rule="evenodd" d="M0.0366768 77.511C0.116205 74.908 0.320077 72.3363 0.642555 69.8016C0.74405 69.7808 0.847191 69.764 0.951837 69.7515C3.06659 69.499 4.99536 71.0899 5.25987 73.305C5.52437 75.52 4.02445 77.5204 1.90969 77.7729C1.25262 77.8514 0.613498 77.7519 0.0366768 77.511Z" fill="#00A58A"/>
<path fill-rule="evenodd" clip-rule="evenodd" d="M158.161 97.1304C159.365 91.6111 160 85.8788 160 79.9984C160 72.423 158.947 65.0936 156.979 58.1484L119.948 74.7841C119.775 74.8621 119.629 74.9877 119.525 75.1461C119.422 75.3045 119.366 75.4891 119.363 75.6784C119.361 75.8676 119.413 76.0535 119.513 76.2142C119.613 76.375 119.756 76.5039 119.927 76.5859L121.506 77.3537C131.141 82.0106 132.359 94.7783 124.639 101.122L121.489 101.873C121.598 102.159 121.802 102.399 122.067 102.554C122.331 102.709 122.641 102.768 122.944 102.723L158.161 97.1304Z" fill="#4098FF"/>
<path d="M78.5194 32.2779C78.8282 32.3853 79.1023 32.5739 79.3129 32.8239C79.5236 33.0739 79.663 33.3761 79.7164 33.6987L81.1866 41.3375C81.4303 42.6008 80.5175 43.4815 79.5273 43.6724C79.1249 43.7653 78.7032 43.725 78.3257 43.5577C77.9481 43.3903 77.635 43.1049 77.4335 42.7444C77.3414 42.5673 77.2765 42.3773 77.2412 42.1809L75.771 34.542C75.6996 34.2082 75.7198 33.8613 75.8294 33.538C75.939 33.2148 76.134 32.9271 76.3936 32.7056C76.6822 32.4592 77.0289 32.2906 77.401 32.2157C77.773 32.1408 78.1579 32.1623 78.5194 32.2779Z" fill="white"/>
<path d="M117.461 48.7037C117.609 48.8843 117.719 49.0938 117.782 49.3191C117.846 49.5444 117.861 49.7803 117.828 50.012C117.795 50.2436 117.714 50.4658 117.591 50.6644C117.467 50.863 117.303 51.0336 117.11 51.1654L111.05 55.7142C110.831 55.8771 110.583 55.9947 110.318 56.0604C110.054 56.126 109.779 56.1383 109.51 56.0965C109.24 56.0548 108.982 55.9598 108.75 55.8171C108.518 55.6745 108.317 55.487 108.158 55.2656C108.09 55.1762 108.029 55.0813 107.977 54.982C107.777 54.6177 107.721 54.1919 107.82 53.7885C107.919 53.3852 108.166 53.0336 108.511 52.803L114.57 48.2577C114.788 48.0946 115.036 47.9765 115.3 47.9106C115.565 47.8446 115.839 47.832 116.109 47.8736C116.378 47.9151 116.636 48.0099 116.868 48.1525C117.1 48.295 117.302 48.4824 117.461 48.7037Z" fill="white"/>
<path d="M101.584 34.5714C101.69 34.8042 101.747 35.056 101.752 35.3116C101.757 35.5672 101.71 35.8211 101.613 36.0578L97.3937 46.7204C97.2018 47.1976 96.8328 47.5821 96.364 47.7935C95.8952 48.0049 95.3628 48.0269 94.8782 47.8549C94.4293 47.6934 94.0575 47.3692 93.8364 46.9465C93.7094 46.7027 93.6365 46.4343 93.6225 46.1597C93.6086 45.8851 93.654 45.6107 93.7557 45.3553L97.9751 34.6926C98.1678 34.2127 98.5389 33.8261 99.0106 33.6141C99.4823 33.4021 100.018 33.3813 100.505 33.5559C100.744 33.6438 100.962 33.779 101.148 33.9535C101.333 34.128 101.482 34.3382 101.584 34.5714Z" fill="white"/>
<path d="M49.2871 130.216C49.2871 129.482 47.1561 128.895 44.3088 128.761C44.146 125.918 43.5192 123.803 42.785 123.805C42.0508 123.806 41.4403 125.937 41.284 128.795C38.4286 128.991 36.3057 129.629 36.3155 130.365C36.3252 131.1 38.4465 131.688 41.2938 131.82C41.4647 134.664 42.0833 136.778 42.8159 136.776C43.5485 136.775 44.1623 134.644 44.3185 131.786C47.174 131.59 49.2952 130.952 49.2871 130.216Z" fill="#2A4259"/>
<path d="M139.91 118.003C139.91 117.477 138.383 117.056 136.342 116.96C136.226 114.922 135.776 113.407 135.25 113.408C134.724 113.409 134.287 114.936 134.175 116.985C132.129 117.124 130.607 117.582 130.614 118.109C130.621 118.636 132.141 119.057 134.182 119.152C134.304 121.19 134.747 122.705 135.272 122.704C135.797 122.702 136.237 121.176 136.349 119.127C138.395 118.987 139.915 118.53 139.91 118.003Z" fill="#2A4259"/>
<path d="M64.6578 22.9857C64.6578 22.1966 62.3673 21.5649 59.3067 21.4215C59.1318 18.3648 58.4581 16.092 57.6689 16.0938C56.8797 16.0955 56.2235 18.3858 56.0555 21.4582C52.9862 21.6682 50.7044 22.354 50.7149 23.1449C50.7254 23.9357 53.0055 24.5674 56.066 24.7091C56.2497 27.7657 56.9147 30.0385 57.7021 30.0368C58.4896 30.035 59.1493 27.7447 59.3172 24.6723C62.3865 24.4624 64.6666 23.7765 64.6578 22.9857Z" fill="#2A4259"/>
</svg>
