<svg width="320" height="240" viewBox="0 0 320 240" fill="none" xmlns="http://www.w3.org/2000/svg">
<rect y="51" width="320" height="138" rx="24" fill="#89D1FF"/>
<path d="M54.6767 57.8632L75.5329 133.633C75.9793 135.262 77.5664 136.312 79.2362 136.097L221.807 118.836C227.032 117.514 228.52 113.298 227.817 111.264L145.806 46.7449C145.301 45.3066 143.904 44.3807 142.392 44.4799L58.7934 46.935C56.6441 47.0673 52.3373 50.1589 54.6767 57.8632Z" fill="#0040B0"/>
<path d="M55.7682 51.2005L77.6494 130.69C78.0958 132.319 79.6829 133.369 81.3527 133.154L225.04 115.753C227.172 115.48 228.52 113.306 227.809 111.273L200.183 40.2723C199.678 38.8339 198.281 37.9081 196.768 38.0073L58.8267 46.9102C56.6775 47.0425 55.1978 49.1173 55.7682 51.1922V51.2005Z" fill="#56BDFF"/>
<path d="M200.183 40.2723C199.678 38.8339 198.281 37.9081 196.768 38.0073L58.8267 46.9102C56.6775 47.0425 55.1978 49.1173 55.7682 51.1922L58.835 62.3271L204.026 50.1589L200.174 40.264L200.183 40.2723Z" fill="#00144A"/>
<path d="M91.6435 66.8373L73.2505 68.3119C72.5532 68.368 72.1044 68.8649 72.2647 69.4259L73.2024 72.7599C73.3627 73.3209 74.0599 73.7297 74.7572 73.6656L93.2063 72.1108C93.8876 72.0547 94.3123 71.5578 94.144 71.0048L93.1663 67.7269C93.006 67.1819 92.3167 66.7812 91.6355 66.8373H91.6435Z" fill="white"/>
<path d="M94.4324 76.2449L75.9432 77.8638C75.2379 77.9279 74.7971 78.4328 74.9574 79.0019L75.9031 82.3839C76.0634 82.953 76.7687 83.3617 77.4739 83.2976L96.0193 81.5985C96.7085 81.5344 97.1253 81.0295 96.957 80.4685L95.9712 77.1425C95.8029 76.5895 95.1136 76.1808 94.4324 76.2449Z" fill="white"/>
<path d="M97.269 85.7959L78.6836 87.5591C77.9783 87.6232 77.5295 88.1441 77.6898 88.7211L78.6515 92.1513C78.8118 92.7283 79.5251 93.1371 80.2303 93.073L98.8719 91.2216C99.5611 91.1495 99.9859 90.6366 99.8176 90.0676L98.8158 86.6935C98.6475 86.1325 97.9582 85.7238 97.269 85.7879V85.7959Z" fill="white"/>
<path d="M100.139 95.4848L81.449 97.4003C80.7357 97.4724 80.2869 98.0013 80.4552 98.5864L81.4329 102.073C81.6012 102.658 82.3145 103.074 83.0278 102.994L101.774 100.991C102.471 100.919 102.888 100.39 102.719 99.8126L101.701 96.3904C101.533 95.8214 100.836 95.4127 100.139 95.4848Z" fill="white"/>
<path d="M103.056 105.33L84.2621 107.406C83.5489 107.486 83.1 108.031 83.2683 108.624L84.2621 112.166C84.4304 112.76 85.1517 113.176 85.865 113.096L104.715 110.932C105.412 110.852 105.837 110.315 105.661 109.73L104.627 106.252C104.45 105.667 103.753 105.258 103.056 105.338V105.33Z" fill="white"/>
<path d="M106.013 115.322L87.1227 117.558C86.4014 117.647 85.9526 118.199 86.1209 118.801L87.1307 122.399C87.299 123 88.0284 123.425 88.7497 123.337L107.696 121.013C108.401 120.924 108.818 120.371 108.641 119.778L107.592 116.252C107.415 115.659 106.71 115.25 106.005 115.33L106.013 115.322Z" fill="white"/>
<path d="M130.337 63.736L113.017 65.1225C112.36 65.1786 111.959 65.6515 112.128 66.1964L113.138 69.4182C113.306 69.9632 113.979 70.3559 114.644 70.2998L132.012 68.8332C132.653 68.7771 133.037 68.3042 132.861 67.7673L131.819 64.5935C131.643 64.0646 130.986 63.6719 130.345 63.728L130.337 63.736Z" fill="white"/>
<path d="M133.326 72.8374L115.927 74.3601C115.262 74.4162 114.861 74.9051 115.037 75.4581L116.063 78.728C116.231 79.281 116.913 79.6737 117.578 79.6176L135.025 78.0147C135.674 77.9586 136.051 77.4697 135.875 76.9247L134.817 73.7109C134.64 73.174 133.975 72.7813 133.326 72.8374Z" fill="white"/>
<path d="M136.347 82.0772L118.86 83.7362C118.195 83.8003 117.794 84.2972 117.97 84.8582L119.004 88.1761C119.18 88.7371 119.862 89.1379 120.535 89.0657L138.07 87.3266C138.72 87.2625 139.096 86.7656 138.92 86.2126L137.846 82.9507C137.67 82.4058 136.996 82.0131 136.347 82.0772Z" fill="white"/>
<path d="M139.417 91.4561L121.841 93.2593C121.168 93.3314 120.767 93.8364 120.944 94.4054L121.994 97.7714C122.17 98.3404 122.859 98.7412 123.532 98.669L141.156 96.7857C141.805 96.7135 142.19 96.2086 142.006 95.6476L140.916 92.3377C140.731 91.7847 140.058 91.392 139.409 91.4561H139.417Z" fill="white"/>
<path d="M142.535 100.969L124.871 102.917C124.198 102.989 123.797 103.518 123.973 104.087L125.039 107.509C125.216 108.086 125.913 108.487 126.586 108.415L144.298 106.379C144.955 106.307 145.332 105.786 145.147 105.217L144.041 101.859C143.857 101.298 143.176 100.897 142.527 100.969H142.535Z" fill="white"/>
<path d="M145.693 110.627L127.941 112.727C127.267 112.807 126.859 113.344 127.043 113.921L128.125 117.392C128.309 117.977 129.007 118.385 129.688 118.297L147.488 116.109C148.145 116.029 148.53 115.5 148.337 114.923L147.215 111.517C147.031 110.948 146.342 110.547 145.685 110.627H145.693Z" fill="white"/>
<path d="M169.976 69.6332L153.563 71.0678C152.938 71.1239 152.577 71.5968 152.761 72.1257L153.843 75.2914C154.028 75.8204 154.685 76.2131 155.31 76.149L171.763 74.6422C172.372 74.5861 172.717 74.1133 172.525 73.5924L171.411 70.4748C171.226 69.9538 170.577 69.5771 169.976 69.6252V69.6332Z" fill="white"/>
<path d="M173.166 78.5851L156.68 80.1479C156.055 80.204 155.694 80.6929 155.878 81.2299L156.976 84.4436C157.161 84.9806 157.826 85.3733 158.451 85.3092L174.977 83.6662C175.586 83.6021 175.931 83.1213 175.738 82.5923L174.608 79.4346C174.416 78.9057 173.775 78.521 173.158 78.5851H173.166Z" fill="white"/>
<path d="M176.411 87.6554L159.853 89.3545C159.22 89.4186 158.86 89.9155 159.052 90.4605L160.166 93.7223C160.35 94.2673 161.023 94.66 161.649 94.5959L178.246 92.8167C178.864 92.7526 179.2 92.2637 179.008 91.7187L177.862 88.513C177.669 87.976 177.02 87.5913 176.403 87.6554H176.411Z" fill="white"/>
<path d="M179.697 96.8642L163.067 98.6995C162.434 98.7716 162.073 99.2765 162.266 99.8295L163.396 103.139C163.588 103.692 164.253 104.085 164.894 104.013L181.572 102.098C182.189 102.025 182.534 101.529 182.334 100.976L181.172 97.7217C180.979 97.1767 180.322 96.792 179.705 96.8642H179.697Z" fill="white"/>
<path d="M183.031 106.204L166.321 108.183C165.688 108.255 165.327 108.776 165.52 109.337L166.666 112.695C166.858 113.256 167.531 113.657 168.173 113.577L184.923 111.517C185.54 111.437 185.884 110.932 185.684 110.371L184.506 107.077C184.306 106.524 183.648 106.14 183.031 106.212V106.204Z" fill="white"/>
<path d="M201.28 58.0352L185.845 59.2774C185.26 59.3255 184.931 59.7743 185.123 60.2792L186.245 63.3086C186.438 63.8216 187.063 64.1902 187.656 64.1421L203.132 62.8358C203.709 62.7877 204.013 62.3389 203.821 61.842L202.675 58.8606C202.483 58.3637 201.865 57.9951 201.288 58.0432L201.28 58.0352Z" fill="white"/>
<path d="M204.583 66.6021L189.083 67.9565C188.49 68.0046 188.169 68.4694 188.362 68.9824L189.5 72.0519C189.692 72.5648 190.325 72.9415 190.918 72.8854L206.458 71.4588C207.035 71.4027 207.34 70.9539 207.147 70.441L205.985 67.4195C205.793 66.9146 205.168 66.546 204.591 66.5941L204.583 66.6021Z" fill="white"/>
<path d="M207.916 75.2812L192.352 76.7639C191.759 76.82 191.439 77.2849 191.631 77.8058L192.785 80.9154C192.977 81.4363 193.619 81.813 194.212 81.7569L209.816 80.2101C210.393 80.154 210.697 79.6892 210.505 79.1763L209.327 76.1147C209.126 75.6018 208.501 75.2332 207.924 75.2893L207.916 75.2812Z" fill="white"/>
<path d="M211.306 84.082L195.678 85.6849C195.085 85.749 194.756 86.2219 194.956 86.7508L196.126 89.9085C196.327 90.4375 196.968 90.8222 197.561 90.758L213.229 89.083C213.806 89.0189 214.119 88.5461 213.918 88.0251L212.724 84.9235C212.524 84.4026 211.891 84.0339 211.314 84.09L211.306 84.082Z" fill="white"/>
<path d="M214.736 92.9955L199.044 94.7266C198.443 94.7907 198.123 95.2796 198.323 95.8166L199.509 99.0143C199.709 99.5513 200.359 99.936 200.96 99.8639L216.692 98.0606C217.277 97.9965 217.582 97.5076 217.373 96.9787L216.155 93.829C215.955 93.3001 215.313 92.9314 214.736 92.9955Z" fill="white"/>
<path d="M218.222 102.04L202.466 103.907C201.864 103.979 201.544 104.476 201.744 105.021L202.946 108.267C203.147 108.812 203.804 109.197 204.405 109.125L220.201 107.185C220.787 107.113 221.091 106.616 220.883 106.079L219.648 102.889C219.44 102.352 218.799 101.976 218.222 102.048V102.04Z" fill="white"/>
<path d="M172.206 69.958L175.826 69.8773L224.783 66.6602L253.54 129.48C254.517 131.595 253.648 134.104 251.578 135.171L250.977 135.485L198.669 143.783C195.774 144.24 192.952 142.591 191.948 139.84L169.535 78.9105C168.137 75.1198 169.634 71.1409 172.224 69.958H172.206Z" fill="#0040B0"/>
<path d="M173.218 69.6897L224.917 65.0118C226.243 64.8953 227.489 65.6481 227.991 66.8758L253.675 129.812C254.409 131.614 253.271 133.63 251.354 133.935L199.977 142.081C197.692 142.439 195.488 141.14 194.681 138.98L170.664 73.7403C169.983 71.8763 171.247 69.869 173.227 69.6897H173.218Z" fill="white"/>
<path d="M218.177 78.8243L193.067 81.1364C192.583 81.1812 192.314 81.5665 192.485 82.0057L193.435 84.6135C193.596 85.0526 194.116 85.3752 194.6 85.3214L219.844 82.8391C220.292 82.7943 220.516 82.4179 220.346 81.9967L219.307 79.4964C219.136 79.0842 218.625 78.7795 218.186 78.8154L218.177 78.8243Z" fill="#56BDFF"/>
<path d="M221.153 86.0234L195.81 88.6402C195.326 88.694 195.057 89.0883 195.218 89.5453L196.195 92.2248C196.356 92.6818 196.885 93.0045 197.378 92.9507L222.856 90.1547C223.313 90.1009 223.537 89.7156 223.357 89.2854L222.291 86.7224C222.112 86.3012 221.61 85.9876 221.153 86.0324V86.0234Z" fill="#56BDFF"/>
<path d="M198.614 96.346C198.122 96.3997 197.853 96.8209 198.023 97.278L199.027 100.038C199.197 100.504 199.735 100.827 200.227 100.773L225.947 97.6544C226.404 97.6006 226.619 97.1973 226.44 96.7492L225.347 94.1146C225.167 93.6754 224.648 93.3618 224.191 93.4066L198.605 96.346H198.614Z" fill="#56BDFF"/>
<path d="M227.336 100.997L201.509 104.259C201.007 104.322 200.747 104.761 200.926 105.227L201.957 108.059C202.127 108.534 202.683 108.874 203.176 108.812L229.137 105.344C229.594 105.281 229.818 104.86 229.63 104.403L228.51 101.696C228.322 101.248 227.802 100.926 227.345 100.988L227.336 100.997Z" fill="#56BDFF"/>
<path d="M230.562 108.802L204.493 112.422C203.991 112.485 203.722 112.942 203.902 113.426L204.959 116.347C205.138 116.84 205.694 117.181 206.196 117.1L232.399 113.274C232.865 113.211 233.08 112.772 232.892 112.306L231.745 109.519C231.557 109.053 231.019 108.73 230.553 108.793L230.562 108.802Z" fill="#56BDFF"/>
<path d="M233.869 116.822L207.549 120.81C207.047 120.891 206.779 121.357 206.967 121.85L208.06 124.861C208.239 125.363 208.804 125.721 209.315 125.631L235.778 121.42C236.244 121.339 236.468 120.891 236.271 120.416L235.088 117.557C234.891 117.082 234.353 116.751 233.887 116.822H233.878H233.869Z" fill="#56BDFF"/>
<path d="M185.242 174.882L108.823 150.431C108.823 150.431 108.041 150.187 108.002 149.783C107.962 149.378 108.706 149.165 108.706 149.165L129.662 143.327C129.662 143.327 130.474 143.043 131.018 143.043C131.563 143.043 132.444 143.327 132.444 143.327L200.993 165.95L185.242 174.882Z" fill="#1B90FF"/>
<path d="M166.351 53.985C165.514 50.418 161.544 47.7244 157.448 48.018C153.309 48.3189 150.718 51.5483 151.687 55.174C151.958 56.1869 152.479 57.1117 153.177 57.9117C152.971 57.5374 155.936 57.7208 155.804 57.3172C154.733 53.9557 155.841 52.4951 157.632 51.7612C160.443 50.6088 164.054 52.2235 164.531 55.5777C164.832 57.6988 163.643 59.886 161.683 60.7741C165.059 60.0328 167.1 57.1851 166.351 53.9777V53.985Z" fill="#9B015D"/>
<path d="M185.221 174.872L186.88 174.99C187.195 175.012 187.511 174.99 187.819 174.938L188.627 174.784L143.789 46.2031L142.123 46.2985C141.676 46.3279 141.191 46.482 140.516 47.1206C140.244 47.3774 139.709 48.0453 139.709 48.0453C139.459 48.5224 139.569 49.0802 139.745 49.5866L184.56 174.381C184.663 174.667 184.92 174.858 185.221 174.88V174.872Z" fill="#9B015D"/>
<path d="M166.299 45L142.116 46.2991C141.47 46.3358 141.037 46.9817 141.257 47.5909L187.004 174.19C187.18 174.667 187.672 174.954 188.171 174.866L211.922 170.645C212.296 170.579 212.524 170.19 212.392 169.823L167.261 45.6385C167.114 45.2422 166.725 44.978 166.299 45.0073V45ZM161.954 57.6827C159.246 57.9249 156.509 56.1928 155.855 53.7781C155.195 51.3193 156.949 49.1322 159.76 48.934C162.534 48.7358 165.228 50.5634 165.793 52.9781C166.351 55.3561 164.641 57.4478 161.962 57.69L161.954 57.6827Z" fill="#FFB2D2"/>
<path d="M160.81 68.2398L160.127 66.3315C160.091 66.2288 160.164 66.1187 160.267 66.1113L171.371 65.1719C171.445 65.1719 171.511 65.2086 171.54 65.282L172.223 67.1682C172.259 67.271 172.193 67.3811 172.083 67.3884L160.986 68.3499C160.913 68.3499 160.839 68.3132 160.817 68.2398H160.81Z" fill="#9B015D"/>
<path d="M172.01 99.4595L171.32 97.5365C171.283 97.4338 171.349 97.331 171.459 97.3163L182.491 96.0906C182.564 96.0833 182.637 96.1273 182.66 96.2007L183.342 98.1017C183.379 98.2044 183.313 98.3072 183.203 98.3219L172.179 99.5696C172.105 99.5769 172.032 99.5329 172.003 99.4595H172.01Z" fill="#9B015D"/>
<path d="M167.525 73.6042C167.452 73.6042 167.378 73.5675 167.356 73.4941L166.997 72.5032L173.778 71.8867C173.852 71.8867 173.925 71.9234 173.947 71.9968L174.299 72.9803L167.518 73.5968L167.525 73.6042Z" fill="#9B015D"/>
<path d="M169.757 79.821C169.683 79.821 169.61 79.7843 169.588 79.7109L169.228 78.7201L176.003 78.0742C176.076 78.0742 176.149 78.1109 176.171 78.1843L176.524 79.1678L169.749 79.821H169.757Z" fill="#9B015D"/>
<path d="M171.819 85.932L171.533 85.1393C171.496 85.0366 171.562 84.9338 171.672 84.9192L178.226 84.2586C178.3 84.2513 178.373 84.2953 178.395 84.3687L178.748 85.3522L171.981 86.0421C171.907 86.0494 171.834 86.0054 171.812 85.932H171.819Z" fill="#9B015D"/>
<path d="M174.058 92.1597L173.772 91.3596C173.735 91.2569 173.801 91.1541 173.911 91.1395L180.458 90.4422C180.531 90.4349 180.605 90.4789 180.627 90.5523L180.913 91.345C180.95 91.4477 180.884 91.5505 180.773 91.5651L174.227 92.2697C174.153 92.2771 174.08 92.233 174.058 92.1597Z" fill="#9B015D"/>
<path d="M183.327 131.022L182.63 129.084C182.593 128.989 182.659 128.879 182.762 128.864L193.72 127.345C193.793 127.337 193.874 127.381 193.896 127.455L194.586 129.37C194.623 129.466 194.556 129.576 194.454 129.59L183.496 131.132C183.422 131.139 183.342 131.095 183.32 131.022H183.327Z" fill="#9B015D"/>
<path d="M178.594 104.792L178.308 103.992C178.271 103.889 178.337 103.787 178.44 103.772L184.972 103.009C185.045 103.001 185.119 103.045 185.148 103.119L185.434 103.911C185.471 104.014 185.405 104.117 185.302 104.132L178.77 104.902C178.697 104.91 178.623 104.866 178.594 104.792Z" fill="#9B015D"/>
<path d="M180.839 111.044L180.553 110.244C180.517 110.148 180.583 110.038 180.685 110.023L187.21 109.223C187.284 109.216 187.357 109.26 187.386 109.334L187.673 110.126C187.709 110.222 187.643 110.332 187.54 110.346L181.016 111.154C180.942 111.161 180.869 111.117 180.839 111.044Z" fill="#9B015D"/>
<path d="M183.085 117.295L182.799 116.487C182.762 116.392 182.828 116.282 182.931 116.267L189.448 115.43C189.522 115.423 189.595 115.467 189.625 115.541L189.911 116.341C189.948 116.436 189.882 116.546 189.779 116.561L183.261 117.405C183.188 117.412 183.114 117.368 183.085 117.295Z" fill="#9B015D"/>
<path d="M185.332 123.562L185.045 122.755C185.009 122.659 185.075 122.549 185.178 122.534L191.688 121.661C191.761 121.654 191.834 121.698 191.864 121.771L192.15 122.571C192.187 122.666 192.121 122.777 192.018 122.791L185.515 123.665C185.442 123.672 185.368 123.628 185.339 123.555L185.332 123.562Z" fill="#9B015D"/>
<path d="M194.711 162.773L194.014 160.821C193.977 160.725 194.043 160.622 194.139 160.6L205.03 158.78C205.111 158.765 205.185 158.81 205.214 158.883L205.911 160.813C205.948 160.909 205.882 161.011 205.786 161.033L194.902 162.876C194.821 162.89 194.748 162.846 194.718 162.773H194.711Z" fill="#9B015D"/>
<path d="M189.896 136.27L189.602 135.463C189.566 135.368 189.632 135.257 189.735 135.243L196.223 134.303C196.303 134.289 196.377 134.34 196.399 134.413L196.685 135.213C196.722 135.309 196.656 135.419 196.553 135.434L190.065 136.38C189.984 136.395 189.911 136.344 189.889 136.27H189.896Z" fill="#9B015D"/>
<path d="M192.15 142.557L191.856 141.75C191.819 141.655 191.885 141.544 191.988 141.53L198.469 140.554C198.55 140.539 198.623 140.583 198.645 140.664L198.931 141.471C198.968 141.566 198.902 141.677 198.799 141.691L192.318 142.675C192.238 142.689 192.164 142.645 192.142 142.565L192.15 142.557Z" fill="#9B015D"/>
<path d="M194.41 148.847L194.116 148.033C194.08 147.937 194.146 147.835 194.249 147.813L200.722 146.8C200.803 146.785 200.876 146.829 200.898 146.91L201.192 147.717C201.228 147.813 201.162 147.915 201.06 147.937L194.586 148.957C194.505 148.972 194.432 148.928 194.41 148.847Z" fill="#9B015D"/>
<path d="M196.678 155.15L196.384 154.335C196.347 154.24 196.413 154.137 196.509 154.115L202.975 153.065C203.056 153.051 203.129 153.095 203.158 153.168L203.452 153.975C203.489 154.071 203.423 154.174 203.327 154.196L196.861 155.245C196.78 155.26 196.707 155.216 196.678 155.135V155.15Z" fill="#9B015D"/>
</svg>
