<?xml version="1.0" encoding="UTF-8"?>
<!--Generator: Apple Native CoreSVG 232.5-->
<!DOCTYPE svg
PUBLIC "-//W3C//DTD SVG 1.1//EN"
       "http://www.w3.org/Graphics/SVG/1.1/DTD/svg11.dtd">
<svg version="1.1" xmlns="http://www.w3.org/2000/svg" xmlns:xlink="http://www.w3.org/1999/xlink" width="3300" height="2200">
 <!--glyph: "", point size: 100.0, font version: "19.0d6e1", template writer version: "123"-->
 <style>.SFSymbolsPreviewWireframe {fill:none;opacity:1.0;stroke:black;stroke-width:0.5}
</style>
 <g id="Notes">
  <rect height="2200" id="artboard" style="fill:white;opacity:1" width="3300" x="0" y="0"/>
  <line style="fill:none;stroke:black;opacity:1;stroke-width:0.5;" x1="263" x2="3036" y1="292" y2="292"/>
  <text style="stroke:none;fill:black;font-family:sans-serif;font-size:13;font-weight:bold;" transform="matrix(1 0 0 1 263 322)">Weight/Scale Variations</text>
  <text style="stroke:none;fill:black;font-family:sans-serif;font-size:13;text-anchor:middle;" transform="matrix(1 0 0 1 559.711 322)">Ultralight</text>
  <text style="stroke:none;fill:black;font-family:sans-serif;font-size:13;text-anchor:middle;" transform="matrix(1 0 0 1 856.422 322)">Thin</text>
  <text style="stroke:none;fill:black;font-family:sans-serif;font-size:13;text-anchor:middle;" transform="matrix(1 0 0 1 1153.13 322)">Light</text>
  <text style="stroke:none;fill:black;font-family:sans-serif;font-size:13;text-anchor:middle;" transform="matrix(1 0 0 1 1449.84 322)">Regular</text>
  <text style="stroke:none;fill:black;font-family:sans-serif;font-size:13;text-anchor:middle;" transform="matrix(1 0 0 1 1746.56 322)">Medium</text>
  <text style="stroke:none;fill:black;font-family:sans-serif;font-size:13;text-anchor:middle;" transform="matrix(1 0 0 1 2043.27 322)">Semibold</text>
  <text style="stroke:none;fill:black;font-family:sans-serif;font-size:13;text-anchor:middle;" transform="matrix(1 0 0 1 2339.98 322)">Bold</text>
  <text style="stroke:none;fill:black;font-family:sans-serif;font-size:13;text-anchor:middle;" transform="matrix(1 0 0 1 2636.69 322)">Heavy</text>
  <text style="stroke:none;fill:black;font-family:sans-serif;font-size:13;text-anchor:middle;" transform="matrix(1 0 0 1 2933.4 322)">Black</text>
  <line style="fill:none;stroke:black;opacity:1;stroke-width:0.5;" x1="263" x2="3036" y1="1903" y2="1903"/>
  <g transform="matrix(0.2 0 0 0.2 263 1933)">
   <path d="m46.2402 4.15039c21.5332 0 39.4531-17.8711 39.4531-39.4043s-17.9688-39.4043-39.502-39.4043c-21.4844 0-39.3555 17.8711-39.3555 39.4043s17.9199 39.4043 39.4043 39.4043Zm0-7.42188c-17.7246 0-31.8848-14.209-31.8848-31.9824s14.1113-31.9824 31.8359-31.9824c17.7734 0 32.0312 14.209 32.0312 31.9824s-14.209 31.9824-31.9824 31.9824Zm-17.9688-31.9824c0 2.14844 1.51367 3.61328 3.75977 3.61328h10.498v10.5957c0 2.19727 1.46484 3.71094 3.61328 3.71094 2.24609 0 3.71094-1.51367 3.71094-3.71094v-10.5957h10.5957c2.19727 0 3.71094-1.46484 3.71094-3.61328 0-2.19727-1.51367-3.71094-3.71094-3.71094h-10.5957v-10.5469c0-2.24609-1.46484-3.75977-3.71094-3.75977-2.14844 0-3.61328 1.51367-3.61328 3.75977v10.5469h-10.498c-2.24609 0-3.75977 1.51367-3.75977 3.71094Z"/>
  </g>
  <g transform="matrix(0.2 0 0 0.2 281.506 1933)">
   <path d="m58.5449 14.5508c27.2461 0 49.8047-22.6074 49.8047-49.8047 0-27.2461-22.6074-49.8047-49.8535-49.8047-27.1973 0-49.7559 22.5586-49.7559 49.8047 0 27.1973 22.6074 49.8047 49.8047 49.8047Zm0-8.30078c-23.0469 0-41.4551-18.457-41.4551-41.5039s18.3594-41.5039 41.4062-41.5039 41.5527 18.457 41.5527 41.5039-18.457 41.5039-41.5039 41.5039Zm-22.6562-41.5039c0 2.39258 1.66016 4.00391 4.15039 4.00391h14.3555v14.4043c0 2.44141 1.66016 4.15039 4.05273 4.15039 2.44141 0 4.15039-1.66016 4.15039-4.15039v-14.4043h14.4043c2.44141 0 4.15039-1.61133 4.15039-4.00391 0-2.44141-1.70898-4.15039-4.15039-4.15039h-14.4043v-14.3555c0-2.49023-1.70898-4.19922-4.15039-4.19922-2.39258 0-4.05273 1.70898-4.05273 4.19922v14.3555h-14.3555c-2.49023 0-4.15039 1.70898-4.15039 4.15039Z"/>
  </g>
  <g transform="matrix(0.2 0 0 0.2 304.924 1933)">
   <path d="m74.8535 28.3203c34.8145 0 63.623-28.8086 63.623-63.5742 0-34.8145-28.8574-63.623-63.6719-63.623-34.7656 0-63.5254 28.8086-63.5254 63.623 0 34.7656 28.8086 63.5742 63.5742 63.5742Zm0-9.08203c-30.1758 0-54.4434-24.3164-54.4434-54.4922 0-30.2246 24.2188-54.4922 54.3945-54.4922 30.2246 0 54.541 24.2676 54.541 54.4922 0 30.1758-24.2676 54.4922-54.4922 54.4922Zm-28.8574-54.4922c0 2.58789 1.85547 4.39453 4.58984 4.39453h19.7266v19.7754c0 2.68555 1.85547 4.58984 4.44336 4.58984 2.68555 0 4.54102-1.85547 4.54102-4.58984v-19.7754h19.7754c2.68555 0 4.58984-1.80664 4.58984-4.39453 0-2.73438-1.85547-4.58984-4.58984-4.58984h-19.7754v-19.7266c0-2.73438-1.85547-4.63867-4.54102-4.63867-2.58789 0-4.44336 1.9043-4.44336 4.63867v19.7266h-19.7266c-2.73438 0-4.58984 1.85547-4.58984 4.58984Z"/>
  </g>
  <text style="stroke:none;fill:black;font-family:sans-serif;font-size:13;font-weight:bold;" transform="matrix(1 0 0 1 263 1953)">Design Variations</text>
  <text style="stroke:none;fill:black;font-family:sans-serif;font-size:13;" transform="matrix(1 0 0 1 263 1971)">Symbols are supported in up to nine weights and three scales.</text>
  <text style="stroke:none;fill:black;font-family:sans-serif;font-size:13;" transform="matrix(1 0 0 1 263 1989)">For optimal layout with text and other symbols, vertically align</text>
  <text style="stroke:none;fill:black;font-family:sans-serif;font-size:13;" transform="matrix(1 0 0 1 263 2007)">symbols with the adjacent text.</text>
  <line style="fill:none;stroke:#00AEEF;stroke-width:0.5;opacity:1.0;" x1="776" x2="776" y1="1919" y2="1933"/>
  <g transform="matrix(0.2 0 0 0.2 776 1933)">
   <path d="m16.5527 0.78125c2.58789 0 3.85742-0.976562 4.78516-3.71094l6.29883-17.2363h28.8086l6.29883 17.2363c0.927734 2.73438 2.19727 3.71094 4.73633 3.71094 2.58789 0 4.24805-1.5625 4.24805-4.00391 0-0.830078-0.146484-1.61133-0.537109-2.63672l-22.9004-60.9863c-1.12305-2.97852-3.125-4.49219-6.25-4.49219-3.02734 0-5.07812 1.46484-6.15234 4.44336l-22.9004 61.084c-0.390625 1.02539-0.537109 1.80664-0.537109 2.63672 0 2.44141 1.5625 3.95508 4.10156 3.95508Zm13.4766-28.3691 11.8652-32.8613h0.244141l11.8652 32.8613Z"/>
  </g>
  <line style="fill:none;stroke:#00AEEF;stroke-width:0.5;opacity:1.0;" x1="792.836" x2="792.836" y1="1919" y2="1933"/>
  <text style="stroke:none;fill:black;font-family:sans-serif;font-size:13;font-weight:bold;" transform="matrix(1 0 0 1 776 1953)">Margins</text>
  <text style="stroke:none;fill:black;font-family:sans-serif;font-size:13;" transform="matrix(1 0 0 1 776 1971)">Leading and trailing margins on the left and right side of each symbol</text>
  <text style="stroke:none;fill:black;font-family:sans-serif;font-size:13;" transform="matrix(1 0 0 1 776 1989)">can be adjusted by modifying the x-location of the margin guidelines.</text>
  <text style="stroke:none;fill:black;font-family:sans-serif;font-size:13;" transform="matrix(1 0 0 1 776 2007)">Modifications are automatically applied proportionally to all</text>
  <text style="stroke:none;fill:black;font-family:sans-serif;font-size:13;" transform="matrix(1 0 0 1 776 2025)">scales and weights.</text>
  <g transform="matrix(0.2 0 0 0.2 1289 1933)">
   <path d="m14.209 9.32617 8.49609 8.54492c4.29688 4.3457 9.22852 4.05273 13.8672-1.07422l53.4668-58.9355-4.83398-4.88281-53.0762 58.3984c-1.75781 2.00195-3.41797 2.49023-5.76172 0.146484l-5.85938-5.81055c-2.34375-2.29492-1.80664-4.00391 0.195312-5.81055l57.373-54.0039-4.88281-4.83398-57.959 54.4434c-4.93164 4.58984-5.32227 9.47266-1.02539 13.8184Zm32.0801-90.9668c-2.09961 2.05078-2.24609 4.93164-1.07422 6.88477 1.17188 1.80664 3.4668 2.97852 6.68945 2.14844 7.32422-1.70898 14.9414-2.00195 22.0703 2.68555l-2.92969 7.27539c-1.70898 4.15039-0.830078 7.08008 1.85547 9.81445l11.4746 11.5723c2.44141 2.44141 4.49219 2.53906 7.32422 2.05078l5.32227-0.976562 3.32031 3.36914-0.195312 2.7832c-0.195312 2.49023 0.439453 4.39453 2.88086 6.78711l3.80859 3.71094c2.39258 2.39258 5.46875 2.53906 7.8125 0.195312l14.5508-14.5996c2.34375-2.34375 2.24609-5.32227-0.146484-7.71484l-3.85742-3.80859c-2.39258-2.39258-4.24805-3.17383-6.64062-2.97852l-2.88086 0.244141-3.22266-3.17383 1.2207-5.61523c0.634766-2.83203-0.146484-5.0293-3.07617-7.95898l-10.9863-10.9375c-16.6992-16.6016-38.8672-16.2109-53.3203-1.75781Zm7.4707 1.85547c12.1582-8.88672 28.6133-7.37305 39.7461 3.75977l12.1582 12.0605c1.17188 1.17188 1.36719 2.09961 1.02539 3.80859l-1.61133 7.42188 7.51953 7.42188 4.93164-0.292969c1.26953-0.0488281 1.66016 0.0488281 2.63672 1.02539l2.88086 2.88086-12.207 12.207-2.88086-2.88086c-0.976562-0.976562-1.12305-1.36719-1.07422-2.68555l0.341797-4.88281-7.4707-7.42188-7.61719 1.26953c-1.61133 0.341797-2.34375 0.195312-3.56445-0.976562l-10.0098-10.0098c-1.26953-1.17188-1.41602-2.00195-0.634766-3.85742l4.39453-10.4492c-7.8125-7.27539-17.9688-10.4004-28.125-7.42188-0.78125 0.195312-1.07422-0.439453-0.439453-0.976562Z"/>
  </g>
  <text style="stroke:none;fill:black;font-family:sans-serif;font-size:13;font-weight:bold;" transform="matrix(1 0 0 1 1289 1953)">Exporting</text>
  <text style="stroke:none;fill:black;font-family:sans-serif;font-size:13;" transform="matrix(1 0 0 1 1289 1971)">Symbols should be outlined when exporting to ensure the</text>
  <text style="stroke:none;fill:black;font-family:sans-serif;font-size:13;" transform="matrix(1 0 0 1 1289 1989)">design is preserved when submitting to Xcode.</text>
  <text id="template-version" style="stroke:none;fill:black;font-family:sans-serif;font-size:13;text-anchor:end;" transform="matrix(1 0 0 1 3036 1933)">Template v.5.0</text>
  <text style="stroke:none;fill:black;font-family:sans-serif;font-size:13;text-anchor:end;" transform="matrix(1 0 0 1 3036 1951)">Requires Xcode 15 or greater</text>
  <text id="descriptive-name" style="stroke:none;fill:black;font-family:sans-serif;font-size:13;text-anchor:end;" transform="matrix(1 0 0 1 3036 1969)">Generated from fiori.activate</text>
  <text style="stroke:none;fill:black;font-family:sans-serif;font-size:13;text-anchor:end;" transform="matrix(1 0 0 1 3036 1987)">Typeset at 100.0 points</text>
  <text style="stroke:none;fill:black;font-family:sans-serif;font-size:13;" transform="matrix(1 0 0 1 263 726)">Small</text>
  <text style="stroke:none;fill:black;font-family:sans-serif;font-size:13;" transform="matrix(1 0 0 1 263 1156)">Medium</text>
  <text style="stroke:none;fill:black;font-family:sans-serif;font-size:13;" transform="matrix(1 0 0 1 263 1586)">Large</text>
 </g>
 <g id="Guides">
  <g id="H-reference" style="fill:#27AAE1;stroke:none;" transform="matrix(1 0 0 1 339 696)">
   <path d="M0.993654 0L3.63775 0L29.3281-67.1323L30.0303-67.1323L30.0303-70.459L28.1226-70.459ZM11.6885-24.4799L46.9815-24.4799L46.2315-26.7285L12.4385-26.7285ZM55.1196 0L57.7637 0L30.6382-70.459L29.4326-70.459L29.4326-67.1323Z"/>
  </g>
  <line id="Baseline-S" style="fill:none;stroke:#27AAE1;opacity:1;stroke-width:0.5;" x1="263" x2="3036" y1="696" y2="696"/>
  <line id="Capline-S" style="fill:none;stroke:#27AAE1;opacity:1;stroke-width:0.5;" x1="263" x2="3036" y1="625.541" y2="625.541"/>
  <g id="H-reference" style="fill:#27AAE1;stroke:none;" transform="matrix(1 0 0 1 339 1126)">
   <path d="M0.993654 0L3.63775 0L29.3281-67.1323L30.0303-67.1323L30.0303-70.459L28.1226-70.459ZM11.6885-24.4799L46.9815-24.4799L46.2315-26.7285L12.4385-26.7285ZM55.1196 0L57.7637 0L30.6382-70.459L29.4326-70.459L29.4326-67.1323Z"/>
  </g>
  <line id="Baseline-M" style="fill:none;stroke:#27AAE1;opacity:1;stroke-width:0.5;" x1="263" x2="3036" y1="1126" y2="1126"/>
  <line id="Capline-M" style="fill:none;stroke:#27AAE1;opacity:1;stroke-width:0.5;" x1="263" x2="3036" y1="1055.54" y2="1055.54"/>
  <g id="H-reference" style="fill:#27AAE1;stroke:none;" transform="matrix(1 0 0 1 339 1556)">
   <path d="M0.993654 0L3.63775 0L29.3281-67.1323L30.0303-67.1323L30.0303-70.459L28.1226-70.459ZM11.6885-24.4799L46.9815-24.4799L46.2315-26.7285L12.4385-26.7285ZM55.1196 0L57.7637 0L30.6382-70.459L29.4326-70.459L29.4326-67.1323Z"/>
  </g>
  <line id="Baseline-L" style="fill:none;stroke:#27AAE1;opacity:1;stroke-width:0.5;" x1="263" x2="3036" y1="1556" y2="1556"/>
  <line id="Capline-L" style="fill:none;stroke:#27AAE1;opacity:1;stroke-width:0.5;" x1="263" x2="3036" y1="1485.54" y2="1485.54"/>
  <line id="left-margin-Ultralight-S" style="fill:none;stroke:#00AEEF;stroke-width:0.5;opacity:1.0;" x1="515.011" x2="515.011" y1="600.785" y2="720.121"/>
  <line id="right-margin-Ultralight-S" style="fill:none;stroke:#00AEEF;stroke-width:0.5;opacity:1.0;" x1="604.411" x2="604.411" y1="600.785" y2="720.121"/>
  <line id="left-margin-Regular-S" style="fill:none;stroke:#00AEEF;stroke-width:0.5;opacity:1.0;" x1="1403.39" x2="1403.39" y1="600.785" y2="720.121"/>
  <line id="right-margin-Regular-S" style="fill:none;stroke:#00AEEF;stroke-width:0.5;opacity:1.0;" x1="1496.29" x2="1496.29" y1="600.785" y2="720.121"/>
  <line id="left-margin-Black-S" style="fill:none;stroke:#00AEEF;stroke-width:0.5;opacity:1.0;" x1="2884.9" x2="2884.9" y1="600.785" y2="720.121"/>
  <line id="right-margin-Black-S" style="fill:none;stroke:#00AEEF;stroke-width:0.5;opacity:1.0;" x1="2981.9" x2="2981.9" y1="600.785" y2="720.121"/>
 </g>
 <g id="Symbols">
  <g id="Black-S" transform="matrix(1 0 0 1 2884.9 696)">
   <path class="SFSymbolsPreviewWireframe" d="M62.21-40.9L54.21-48.9C51.51-51.6 47.21-51.6 44.51-48.9L40.11-44.5L8.51-12.9C5.71-10.1 4.81-6.6 4.81-4.1C4.81 0 6.61 2.9 8.51 4.7C8.51 4.7 8.51 4.7 8.51 4.7C10.41 6.6 13.31 8.4 17.31 8.4C21.41 8.4 24.31 6.6 26.11 4.7L57.91-27L62.21-31.3C64.81-33.9 64.81-38.2 62.21-40.9ZM18.51-2.9C17.91-2.3 16.81-2.3 16.21-2.9C15.81-3.3 15.71-3.8 15.71-4.1C15.71-4.4 15.81-4.9 16.21-5.3L45.41-34.5L47.71-32.2L18.51-2.9ZM60.01-53.4L65.51-52.3L66.61-46.8C67.01-44.9 69.01-41.3 73.31-41.3C77.71-41.3 79.61-44.9 80.01-46.8L81.11-52.3L86.61-53.4C88.51-53.8 92.11-55.5 92.11-60.1C92.11-64.5 88.51-66.4 86.61-66.8L81.11-67.9L80.01-73.4C79.61-75.3 77.71-78.9 73.31-78.9C68.81-78.9 67.01-75.3 66.61-73.4L65.51-67.9L60.01-66.8C58.11-66.4 54.51-64.4 54.51-60.1C54.51-55.8 58.11-53.7 60.01-53.4ZM16.01-53.4L21.51-52.3L22.61-46.8C23.01-44.9 24.81-41.3 29.31-41.3C33.71-41.3 35.61-44.9 36.01-46.8L37.11-52.3L42.61-53.4C44.51-53.8 48.11-55.6 48.11-60.1C48.11-64.6 44.51-66.4 42.61-66.8L37.11-67.9L36.01-73.4C35.61-75.3 33.81-78.9 29.31-78.9C24.71-78.9 23.01-75.3 22.61-73.4L21.51-67.9L16.01-66.8C14.11-66.4 10.51-64.6 10.51-60.1C10.51-55.6 14.11-53.7 16.01-53.4ZM86.71-22.8L81.21-23.9L80.01-29.4C79.61-31.3 77.81-34.9 73.31-34.9C68.91-34.9 67.01-31.3 66.61-29.4L65.51-23.9L60.01-22.8C58.11-22.4 54.51-20.4 54.51-16.1C54.51-11.4 58.11-9.8 60.01-9.4L65.51-8.3L66.61-2.8C67.01-0.9 68.91 2.7 73.31 2.7C77.61 2.7 79.61-0.9 80.01-2.8L81.11-8.3L86.61-9.4C88.51-9.8 92.11-11.6 92.11-16.1C92.21-20.5 88.51-22.4 86.71-22.8Z"/>
  </g>
  <g id="Regular-S" transform="matrix(1 0 0 1 1403.39 696)">
   <path class="SFSymbolsPreviewWireframe" d="M58.16-38.9L50.16-46.9C48.56-48.5 46.06-48.5 44.46-46.9L40.46-42.9L8.46-10.9C6.66-9.1 5.66-6.7 5.66-4.1C5.66-1.5 6.66 0.9 8.46 2.7C8.46 2.7 8.46 2.7 8.46 2.7C10.36 4.6 12.86 5.5 15.26 5.5C17.66 5.5 20.16 4.6 22.06 2.7L54.06-29.3L58.06-33.3C59.76-34.8 59.76-37.3 58.16-38.9ZM16.46-2.9C15.86-2.3 14.76-2.3 14.16-2.9C13.76-3.3 13.66-3.8 13.66-4.1C13.66-4.4 13.76-4.9 14.16-5.3L43.36-34.5L45.66-32.2L16.46-2.9ZM58.56-56.2L65.96-54.7L67.46-47.3C67.86-45.4 69.46-44.1 71.36-44.1C73.26-44.1 74.86-45.4 75.26-47.3L76.76-54.7L84.16-56.2C86.06-56.6 87.36-58.2 87.36-60.1C87.36-62 85.96-63.6 84.16-64L76.76-65.5L75.26-72.9C74.86-74.8 73.26-76.1 71.36-76.1C69.46-76.1 67.86-74.8 67.46-72.9L65.96-65.5L58.56-64C56.66-63.6 55.36-62 55.36-60.1C55.36-58.2 56.66-56.5 58.56-56.2ZM14.56-56.2L21.96-54.7L23.46-47.3C23.86-45.4 25.46-44.1 27.36-44.1C29.26-44.1 30.86-45.4 31.26-47.3L32.76-54.7L40.16-56.2C42.06-56.6 43.36-58.2 43.36-60.1C43.36-62 41.96-63.6 40.16-64L32.76-65.5L31.26-72.9C30.86-74.8 29.26-76.1 27.36-76.1C25.46-76.1 23.86-74.8 23.46-72.9L21.96-65.5L14.56-64C12.66-63.6 11.36-62 11.36-60.1C11.36-58.2 12.66-56.5 14.56-56.2ZM84.16-20L76.76-21.5L75.26-28.9C74.86-30.8 73.26-32.1 71.36-32.1C69.46-32.1 67.86-30.8 67.46-28.9L65.96-21.5L58.56-20C56.66-19.6 55.36-18 55.36-16.1C55.36-14.2 56.66-12.6 58.56-12.2L65.96-10.7L67.46-3.3C67.86-1.4 69.46-0.1 71.36-0.1C73.26-0.1 74.86-1.4 75.26-3.3L76.76-10.7L84.16-12.2C86.06-12.6 87.36-14.2 87.36-16.1C87.36-18 85.96-19.6 84.16-20Z"/>
  </g>
  <g id="Ultralight-S" transform="matrix(1 0 0 1 515.011 696)">
   <path class="SFSymbolsPreviewWireframe" d="M54.375-36.9L46.375-44.9C45.875-45.4 45.175-45.4 44.775-44.9L38.775-38.9L8.775-8.9C8.075-8.2 6.775-6.7 6.775-4.1C6.775-3.3 6.975-1.1 8.775 0.7C8.875 0.8 8.775 0.7 8.775 0.7C9.575 1.5 11.175 2.7 13.575 2.7C15.975 2.7 17.575 1.5 18.375 0.7L47.975-28.8L54.475-35.3C54.875-35.7 54.875-36.4 54.375-36.9ZM16.775-0.9C15.875 0.4 12.575 1.2 10.475-0.9C9.975-1.3 9.075-2.4 9.075-4.1C9.075-4.4 9.075-6 10.375-7.3L41.575-38.5L47.975-32.1L16.775-0.9ZM57.375-58.9L66.575-57.1L68.375-47.9C68.475-47.3 69.075-47 69.475-47C69.975-47 70.475-47.4 70.575-47.9L72.375-57.1L81.575-58.9C82.075-59 82.475-59.5 82.475-60C82.475-60.6 82.075-61 81.575-61.1L72.375-62.9L70.575-72.1C70.475-72.8 69.875-73 69.475-73C68.975-73 68.475-72.7 68.375-72.1L66.575-62.9L57.375-61.1C56.775-60.9 56.475-60.5 56.475-60C56.375-59.5 56.775-59 57.375-58.9ZM13.375-58.9L22.575-57.1L24.375-47.9C24.475-47.4 24.975-47 25.475-47C25.975-47 26.475-47.4 26.575-47.9L28.375-57.1L37.675-59C38.175-59.1 38.575-59.6 38.575-60.1C38.575-60.7 38.275-61.1 37.675-61.3L28.475-63.1L26.675-72.3C26.575-72.8 26.075-73.2 25.575-73.2C24.975-73.2 24.575-72.8 24.475-72.3L22.675-63.1L13.475-61.3C12.975-61.2 12.575-60.7 12.575-60.2C12.375-59.5 12.775-59 13.375-58.9ZM81.775-17.2L72.575-19L70.775-28.2C70.575-28.9 70.075-29.1 69.675-29.1C69.175-29.1 68.675-28.8 68.575-28.2L66.775-19L57.575-17.2C56.975-17.1 56.675-16.6 56.675-16.1C56.675-15.5 57.075-15.1 57.575-15L66.775-13.2L68.575-4C68.675-3.4 69.175-3.1 69.675-3.1C70.275-3.1 70.675-3.6 70.775-4L72.575-13.2L81.775-15C82.375-15.1 82.675-15.6 82.675-16.1C82.775-16.7 82.375-17.1 81.775-17.2Z"/>
  </g>
 </g>
</svg>
