<svg width="189" height="181" viewBox="0 0 189 181" fill="none" xmlns="http://www.w3.org/2000/svg">
<path d="M79.3943 161.789C123.243 161.789 158.789 126.243 158.789 82.3943C158.789 38.546 123.243 3 79.3943 3C35.546 3 0 38.546 0 82.3943C0 126.243 35.546 161.789 79.3943 161.789Z" fill="#EBF8FF"/>
<path d="M105.777 19.0182L56.1169 9.07575C54.0115 8.65422 51.9647 10.0228 51.5453 12.1325L37.1527 84.5321C36.7333 86.6419 38.1001 88.6939 40.2055 89.1154L89.8657 99.0578C91.9711 99.4793 94.0179 98.1108 94.4373 96.001L108.83 23.6014C109.249 21.4917 107.883 19.4397 105.777 19.0182Z" fill="#D1EFFF"/>
<path d="M77.4615 24.0194C75.8101 23.6023 74.0726 23.6852 72.4688 24.2577C70.8649 24.8301 69.4668 25.8664 68.451 27.2354C67.4353 28.6045 66.8476 30.2448 66.7623 31.9491C66.677 33.6534 67.0978 35.3451 67.9716 36.8103C68.8455 38.2754 70.133 39.4483 71.6715 40.1806C73.21 40.9129 74.9304 41.1717 76.6151 40.9243C78.2998 40.677 79.8732 39.9345 81.1363 38.7908C82.3995 37.6471 83.2956 36.1536 83.7116 34.4991L75.3566 32.392L77.4615 24.0194Z" fill="#EBF8FF"/>
<path d="M79.8412 22.5062L77.7426 30.8706L86.0904 32.9785C86.3665 31.8801 86.424 30.7378 86.2593 29.6169C86.0947 28.4959 85.7113 27.4184 85.1309 26.4458C84.5505 25.4732 83.7846 24.6246 82.877 23.9487C81.9694 23.2727 80.9378 22.7825 79.8412 22.5062Z" fill="#B8E6FF"/>
<path d="M90.2207 50.03L55.6154 43.1017C54.4673 42.8719 53.3512 43.6181 53.1225 44.7685C52.8938 45.9189 53.6391 47.0378 54.7872 47.2677L89.3925 54.196C90.5406 54.4258 91.6567 53.6796 91.8854 52.5292C92.1141 51.3788 91.3688 50.2599 90.2207 50.03Z" fill="#EBF8FF"/>
<path d="M88.2617 57.1492L53.6564 50.2209C52.5083 49.991 51.3922 50.7373 51.1636 51.8877C50.9349 53.0381 51.6802 54.157 52.8282 54.3869L87.4335 61.3152C88.5816 61.545 89.6977 60.7987 89.9264 59.6484C90.1551 58.498 89.4097 57.379 88.2617 57.1492Z" fill="#EBF8FF"/>
<path d="M70.2663 60.8923L51.8307 57.2013C50.6826 56.9715 49.5666 57.7177 49.3379 58.8681C49.1092 60.0185 49.8545 61.1374 51.0026 61.3672L69.4381 65.0582C70.5862 65.288 71.7023 64.5419 71.9309 63.3915C72.1596 62.2411 71.4143 61.1221 70.2663 60.8923Z" fill="#EBF8FF"/>
<path fill-rule="evenodd" clip-rule="evenodd" d="M108.268 156.376C135.132 145.884 154.88 121.182 158.271 91.51L126.579 71.1218C124.773 69.9601 122.363 70.4836 121.197 72.291L81.1761 134.316C80.0099 136.124 80.5284 138.531 82.3342 139.693L108.268 156.376Z" fill="#D1EFFF"/>
<path fill-rule="evenodd" clip-rule="evenodd" d="M146.353 110.937C146.832 111.725 146.582 112.752 145.794 113.23L125.212 125.743C124.726 126.038 124.123 126.066 123.612 125.817C123.102 125.568 122.753 125.076 122.686 124.511L121.488 114.292L104.479 123.935C103.677 124.389 102.659 124.108 102.204 123.306C101.749 122.504 102.031 121.485 102.833 121.03L122.029 110.147C122.516 109.871 123.109 109.857 123.607 110.11C124.106 110.363 124.446 110.849 124.511 111.404L125.699 121.539L144.06 110.378C144.848 109.899 145.875 110.149 146.353 110.937Z" fill="#B8E6FF"/>
<path d="M121.956 87.5316C122.206 87.1442 122.722 87.0326 123.11 87.2824L125.232 88.6506C125.619 88.9004 125.731 89.417 125.481 89.8045L103.819 123.402C103.569 123.789 103.053 123.901 102.665 123.651L100.543 122.283C100.156 122.033 100.044 121.516 100.294 121.129L121.956 87.5316Z" fill="#EBF8FF"/>
<path fill-rule="evenodd" clip-rule="evenodd" d="M133.904 140.119L102.159 119.858C101.771 119.61 101.255 119.724 101.007 120.113L99.6482 122.241C99.4002 122.63 99.5141 123.146 99.9027 123.394L130.657 143.022C131.766 142.084 132.848 141.116 133.904 140.119Z" fill="#EBF8FF"/>
<path d="M95.4106 130.246C95.9003 129.465 96.935 129.221 97.7162 129.711L114.078 139.968C114.859 140.457 115.091 141.495 114.601 142.276C114.111 143.057 113.077 143.3 112.296 142.811L95.9339 132.554C95.1528 132.064 94.921 131.027 95.4106 130.246Z" fill="#EBF8FF"/>
<path d="M126.007 35.1744C126.007 33.9855 122.556 33.0339 117.945 32.8177C117.681 28.2126 116.666 24.7884 115.477 24.791C114.288 24.7937 113.299 28.2442 113.046 32.8731C108.422 33.1894 104.984 34.2227 105 35.4142C105.016 36.6057 108.451 37.5573 113.062 37.7709C113.339 42.376 114.341 45.8002 115.527 45.7976C116.713 45.7949 117.707 42.3444 117.96 37.7155C122.585 37.3992 126.02 36.3659 126.007 35.1744Z" fill="#F58B00"/>
<path d="M143.011 56.6876C143.011 55.9214 140.787 55.3082 137.816 55.1689C137.646 52.2011 136.992 49.9944 136.225 49.9961C135.459 49.9978 134.822 52.2215 134.659 55.2045C131.679 55.4084 129.463 56.0743 129.474 56.8422C129.484 57.61 131.698 58.2233 134.669 58.3609C134.848 61.3286 135.493 63.5354 136.258 63.5337C137.022 63.532 137.663 61.3083 137.826 58.3252C140.806 58.1213 143.02 57.4554 143.011 56.6876Z" fill="#F58B00"/>
<path d="M7.45996 56.7098C7.45996 52.8132 10.6188 49.6543 14.5155 49.6543H88.3227L107.744 65.7563V140.452C107.744 144.349 104.586 147.508 100.689 147.508H14.5155C10.6188 147.508 7.45996 144.349 7.45996 140.452V56.7098Z" fill="#D5DADD"/>
<path d="M3.93213 51.7714C3.93213 48.6541 6.45923 46.127 9.57656 46.127H84.0185L104.217 63.0434V138.336C104.217 141.453 101.689 143.981 98.5721 143.981H9.57656C6.45923 143.981 3.93213 141.453 3.93213 138.336V51.7714Z" fill="white"/>
<path d="M83.9097 62.8906L104.217 66.9858V62.8906H83.9097Z" fill="#A9B4BE"/>
<path d="M83.9097 62.89H104.217L83.9097 46.127V62.89Z" fill="#D5DADD"/>
<rect x="15.9902" y="74.2676" width="76.1684" height="58.7705" rx="4.09664" fill="#EBF8FF"/>
<path fill-rule="evenodd" clip-rule="evenodd" d="M31.8499 81.3242C32.4155 81.3242 32.874 81.7828 32.874 82.3484L32.874 124.957C32.874 125.522 32.4155 125.981 31.8499 125.981C31.2842 125.981 30.8257 125.522 30.8257 124.957L30.8257 82.3484C30.8257 81.7828 31.2842 81.3242 31.8499 81.3242Z" fill="#9EDDFF"/>
<path fill-rule="evenodd" clip-rule="evenodd" d="M54.4153 81.3242C54.9809 81.3242 55.4395 81.7828 55.4395 82.3484L55.4395 124.957C55.4395 125.522 54.9809 125.981 54.4153 125.981C53.8497 125.981 53.3911 125.522 53.3911 124.957L53.3911 82.3484C53.3911 81.7828 53.8497 81.3242 54.4153 81.3242Z" fill="#9EDDFF"/>
<path fill-rule="evenodd" clip-rule="evenodd" d="M76.9807 81.3242C77.5464 81.3242 78.0049 81.7828 78.0049 82.3484L78.0049 124.957C78.0049 125.522 77.5463 125.981 76.9807 125.981C76.4151 125.981 75.9566 125.522 75.9566 124.957L75.9566 82.3484C75.9566 81.7828 76.4151 81.3242 76.9807 81.3242Z" fill="#9EDDFF"/>
<rect x="22.1445" y="86.0664" width="24.0844" height="8.30793" rx="1.36555" fill="#F58B00"/>
<rect x="59.4839" y="112.93" width="26.5215" height="8.30793" rx="1.36555" fill="#004DA5"/>
<rect x="59.4839" y="99.3965" width="14.5967" height="8.30793" rx="1.36555" fill="#0070F2"/>
<rect x="34.1865" y="99.3965" width="22.5655" height="8.30793" rx="1.36555" fill="#0070F2"/>
<path d="M30.9111 57.0664H17.7851C16.9003 57.0664 16.1831 57.7836 16.1831 58.6684C16.1831 59.5532 16.9003 60.2704 17.7851 60.2704H30.9111C31.7959 60.2704 32.5131 59.5532 32.5131 58.6684C32.5131 57.7836 31.7959 57.0664 30.9111 57.0664Z" fill="#004DA5"/>
<path d="M43.9434 63.291H17.5408C16.791 63.291 16.1831 63.8989 16.1831 64.6487C16.1831 65.3985 16.791 66.0064 17.5408 66.0064H43.9434C44.6932 66.0064 45.301 65.3985 45.301 64.6487C45.301 63.8989 44.6932 63.291 43.9434 63.291Z" fill="#005DC9"/>
</svg>
