<svg width="160" height="161" viewBox="0 0 160 161" fill="none" xmlns="http://www.w3.org/2000/svg">
<circle cx="80" cy="80.5" r="80" fill="#223548"/>
<path d="M102.037 160.464L30.1708 140.547C53.4175 131.157 50.0914 114.457 50.0914 114.457L126.359 118.682C126.359 118.682 121.7 154.346 102.037 160.464Z" fill="#2A4259"/>
<path d="M142.791 103.349L69.5276 102.692C66.6141 109.422 50.4824 114.441 50.4824 114.441L126.314 118.935C126.314 118.935 138.26 111.165 142.791 103.349Z" fill="#324E6B"/>
<path d="M147.342 72.9859L142.792 103.35L69.3263 102.366L75.867 79.1315L147.342 72.9859Z" fill="#2A4259"/>
<path d="M147.587 73.0608L76.6934 78.8477L90.9651 71.3988L158.992 64.2182L147.587 73.0608Z" fill="#324E6B"/>
<path d="M117.238 97.2786C104.323 119.564 77.968 129.802 61.1119 122.815C53.3371 119.592 45.9135 115.962 41.8252 112.029C31.1885 101.795 34.1327 88.3378 45.1738 65.9279C56.5576 42.8226 77.7847 26.3383 94.2137 31.1686C121.72 39.2558 130.703 74.0434 117.238 97.2786Z" fill="#1782FF"/>
<path fill-rule="evenodd" clip-rule="evenodd" d="M87.7543 33.0639C92.3695 34.013 98.6553 30.5741 101.122 24.0176C103.589 17.461 100.608 12.1166 95.9933 11.1676C91.3781 10.2186 85.0923 13.6574 82.6252 20.214C80.1582 26.7705 83.1391 32.1149 87.7543 33.0639ZM86.532 36.3123C93.5174 37.7487 101.572 32.5572 104.522 24.7166C107.472 16.8761 104.201 9.35566 97.2155 7.91923C90.2302 6.48281 82.1758 11.6744 79.2256 19.5149C76.2755 27.3554 79.5467 34.8759 86.532 36.3123Z" fill="white"/>
<path d="M93.6505 32.2184C91.648 33.1305 89.5686 33.4384 87.749 33.0643L88.6346 34.9561C90.4532 35.5513 92.4023 35.6811 94.3547 35.4084C98.7426 33.5756 102.651 29.6762 104.517 24.717C104.652 24.3567 104.775 23.9972 104.884 23.6388C104.773 23.889 104.653 24.1404 104.523 24.3928C102.079 29.1658 97.6172 31.8701 93.6505 32.2184Z" fill="#688FB7"/>
<path fill-rule="evenodd" clip-rule="evenodd" d="M95.8275 28.535C95.8469 28.4781 95.8628 28.4201 95.875 28.3608C96.2049 26.7563 93.712 24.8879 90.307 24.1877C86.9019 23.4875 83.8741 24.2206 83.5442 25.8252C83.532 25.8844 83.5237 25.9441 83.5191 26.004L83.5084 26.0018L81.9856 33.4072L94.3164 35.9428L95.8392 28.5374L95.8275 28.535Z" fill="white"/>
<path fill-rule="evenodd" clip-rule="evenodd" d="M89.3548 34.9221L91.4999 24.4904C94.2737 25.336 96.1641 26.95 95.8741 28.3602C95.8619 28.4194 95.8461 28.4775 95.8266 28.5344L95.8384 28.5368L94.3156 35.9422L89.3548 34.9221Z" fill="#688FB7"/>
<path fill-rule="evenodd" clip-rule="evenodd" d="M101.001 15.0443C99.947 13.0103 98.149 11.61 95.995 11.167C91.3798 10.218 85.094 13.6568 82.627 20.2134C81.7832 22.4559 81.5767 24.5566 81.8549 26.3882C79.8331 21.8058 82.4517 14.1786 88.5996 10.764C95.2879 7.04939 99.8561 10.6552 101.001 15.0443Z" fill="#688FB7"/>
<path fill-rule="evenodd" clip-rule="evenodd" d="M40.3183 76.4984L52.1023 64.0332L103.852 112.955C90.4105 123.925 73.2845 127.862 61.1119 122.816C53.3372 119.593 45.9136 115.963 41.8252 112.03C32.9766 103.517 33.5267 92.772 40.3183 76.4984Z" fill="#0070F3"/>
<ellipse cx="71.0716" cy="73.0641" rx="39.1286" ry="48.2577" transform="rotate(39.6076 71.0716 73.0641)" fill="#4098FF"/>
<ellipse cx="69.9686" cy="71.5653" rx="31.2362" ry="41.5822" transform="rotate(39.6076 69.9686 71.5653)" fill="#0070F3"/>
<path fill-rule="evenodd" clip-rule="evenodd" d="M47.4869 106.292C60.9816 113.457 80.787 107.49 94.0377 91.4775C108.522 73.9739 109.748 51.023 96.9041 39.8849C83.4095 32.7203 63.604 38.6863 50.3533 54.6993C35.8691 72.2029 34.6429 95.1538 47.4869 106.292Z" fill="#688FB7"/>
<path fill-rule="evenodd" clip-rule="evenodd" d="M47.3861 106.238C60.8828 113.486 80.754 107.53 94.0377 91.4772C106.711 76.1615 109.234 56.6752 101.063 44.5813C87.5659 37.3332 67.6947 43.289 54.4109 59.3419C41.7372 74.6576 39.2142 94.144 47.3861 106.238Z" fill="#CEDBE8"/>
<path fill-rule="evenodd" clip-rule="evenodd" d="M84.9389 36.9717C85.5595 37.1319 85.9327 37.7648 85.7725 38.3853L84.1673 44.6046C84.0071 45.2251 83.3742 45.5984 82.7537 45.4382C82.1331 45.278 81.7599 44.6451 81.9201 44.0246L83.5253 37.8053C83.6855 37.1848 84.3184 36.8116 84.9389 36.9717Z" fill="#688FB7"/>
<path fill-rule="evenodd" clip-rule="evenodd" d="M63.0816 98.9723C63.694 99.1613 64.0373 99.8109 63.8483 100.423L61.3276 108.593C61.1386 109.205 60.489 109.549 59.8766 109.36C59.2643 109.171 58.921 108.521 59.1099 107.909L61.6306 99.739C61.8196 99.1266 62.4692 98.7834 63.0816 98.9723Z" fill="#688FB7"/>
<path fill-rule="evenodd" clip-rule="evenodd" d="M49.7885 70.4699C49.6923 71.1035 49.1006 71.5392 48.467 71.4429L42.2919 70.5048C41.6583 70.4085 41.2227 69.8169 41.3189 69.1833C41.4152 68.5497 42.0069 68.1141 42.6405 68.2103L48.8156 69.1484C49.4492 69.2447 49.8848 69.8363 49.7885 70.4699Z" fill="#688FB7"/>
<path fill-rule="evenodd" clip-rule="evenodd" d="M102.16 77.2688C102.063 77.9024 101.472 78.338 100.838 78.2417L94.663 77.3036C94.0294 77.2074 93.5938 76.6157 93.69 75.9821C93.7863 75.3485 94.3779 74.9129 95.0116 75.0091L101.187 75.9472C101.82 76.0435 102.256 76.6352 102.16 77.2688Z" fill="#688FB7"/>
<path d="M98.5034 53.828L68.4358 66.763C68.3523 66.7989 68.2784 66.8539 68.2201 66.9236L46.1418 93.3095C45.7551 93.7716 46.2421 94.444 46.8018 94.2207L77.0326 82.162C77.1255 82.125 77.2072 82.0645 77.2699 81.9866L99.1849 54.7245C99.5638 54.2531 99.0589 53.589 98.5034 53.828Z" fill="white"/>
<path d="M98.8606 50.5368L66.5227 64.4484L42.8806 92.7032L75.3882 79.7364L98.8606 50.5368Z" fill="#F58B00"/>
<path fill-rule="evenodd" clip-rule="evenodd" d="M75.4086 79.7128L98.8617 50.5372L66.5238 64.4489L66.3075 64.7074L75.4086 79.7128Z" fill="#64EDD2"/>
<path fill-rule="evenodd" clip-rule="evenodd" d="M43.5339 91.925L42.8808 92.7055L75.3884 79.7387L98.5493 50.9266L43.5339 91.925Z" fill="#CC7400"/>
<path fill-rule="evenodd" clip-rule="evenodd" d="M70.5862 71.7626L75.4079 79.7123L98.55 50.9235L70.5862 71.7626Z" fill="#00A58A"/>
<ellipse cx="70.5189" cy="72.0862" rx="2.59313" ry="3.28459" transform="rotate(56.0862 70.5189 72.0862)" fill="#688FB7"/>
<path d="M49.5203 51.2212L52.7141 34.9907L5.67479 2.43312L49.5203 51.2212Z" fill="#324E6B"/>
<path d="M49.5211 51.2196L46.4709 38.852L17.1938 20.2572L49.5211 51.2196Z" fill="#3B5B7C"/>
<path d="M52.4236 35.3881L70.9249 29.1272L5.67525 2.43253L52.4236 35.3881Z" fill="#2A4259"/>
<path d="M5.89228 2.46967L46.4703 38.8533L18.6716 52.4853L5.89228 2.46967Z" fill="#2A4259"/>
<path d="M139.144 41.3503C139.144 40.5641 136.862 39.9349 133.813 39.792C133.639 36.7469 132.968 34.4826 132.182 34.4844C131.395 34.4861 130.742 36.7678 130.574 39.8286C127.517 40.0377 125.243 40.721 125.254 41.5089C125.264 42.2967 127.536 42.926 130.585 43.0672C130.768 46.1123 131.43 48.3765 132.215 48.3747C132.999 48.373 133.656 46.0913 133.824 43.0305C136.881 42.8214 139.153 42.1381 139.144 41.3503Z" fill="#2A4259"/>
<path d="M22.3319 102.408C22.3319 101.75 20.4223 101.223 17.8708 101.104C17.725 98.5554 17.1633 96.6607 16.5054 96.6621C15.8475 96.6636 15.3004 98.5729 15.1604 101.134C12.6016 101.309 10.6993 101.881 10.708 102.54C10.7168 103.2 12.6176 103.726 15.1691 103.844C15.3223 106.393 15.8766 108.287 16.5331 108.286C17.1896 108.285 17.7395 106.375 17.8796 103.814C20.4384 103.639 22.3392 103.067 22.3319 102.408Z" fill="#2A4259"/>
</svg>
