<svg width="46" height="46" viewBox="0 0 46 46" fill="none" xmlns="http://www.w3.org/2000/svg">
<g clip-path="url(#clip0_4211_44380)">
<path d="M39.6395 31.6448L37.8951 31.1598L31.1743 29.604L25.8624 23.9835L21.697 19.6484L0.5 26.3399L6.16405 27.8903L5.10729 29.8464L18.219 37.6484L18.9822 34.5622L27.0729 37.4711L39.6395 31.6448Z" fill="#101619"/>
<path d="M25.1973 14.8359L40.267 19.3607L39.7981 31.3708L25.1973 25.0036V14.8359Z" fill="#8D2A00"/>
<path d="M13.0668 29.9057L25.1971 25.0968V14.8359L12.4297 18.1898L13.0668 29.9057Z" fill="#A93E00"/>
<path d="M27.082 23.892L40.268 19.4414L39.7981 31.5815L27.082 37.4414V23.892Z" fill="#A93E00"/>
<path d="M29.8554 8.97656L45.2903 12.3126L40.1469 19.4417L25.1973 14.8678L29.8554 8.97656Z" fill="#C35500"/>
<path d="M40.2332 19.4414L45.5006 25.587L32.6861 31.1623L27.082 23.8647L40.2332 19.4414Z" fill="#FF7F4C"/>
<path d="M25.1974 14.9959L22.5298 8.34766L9.70898 10.9761L12.6027 18.3941L25.1974 14.9959Z" fill="#FF7F4C"/>
<path d="M13.0484 30.0514L27.0808 37.4449V24.0334L12.4297 18.3984L13.0484 30.0514Z" fill="#450B00"/>
<path d="M22.225 32.8403L27.0816 23.9505L12.495 18.3984L8.03516 25.7626L22.225 32.8403Z" fill="#C35500"/>
</g>
<defs>
<clipPath id="clip0_4211_44380">
<rect width="45" height="45" fill="white" transform="translate(0.5 0.5)"/>
</clipPath>
</defs>
</svg>
