<svg width="321" height="240" viewBox="0 0 321 240" fill="none" xmlns="http://www.w3.org/2000/svg">
<path d="M306.282 20.334H15.1887C13.2913 20.3322 11.4121 20.7045 9.65864 21.4293C7.90516 22.1542 6.31173 23.2176 4.96944 24.5587C3.62715 25.8997 2.56232 27.4921 1.83581 29.245C1.10929 30.9978 0.735351 32.8766 0.735352 34.774V205.881C0.735352 209.714 2.2581 213.39 4.96863 216.101C7.67915 218.811 11.3554 220.334 15.1887 220.334H306.282C310.115 220.334 313.792 218.811 316.502 216.101C319.213 213.39 320.735 209.714 320.735 205.881V34.774C320.735 32.8766 320.361 30.9978 319.635 29.245C318.908 27.4921 317.844 25.8997 316.501 24.5587C315.159 23.2176 313.566 22.1542 311.812 21.4293C310.059 20.7045 308.179 20.3322 306.282 20.334Z" fill="#223548"/>
<path d="M42.4595 36.9298C20.2332 40.1936 24.5687 59.341 26.5765 75.0895C30.7589 77.9826 39.7179 81.3196 38.3051 71.2994C36.3288 57.2813 32.3661 47.2414 44.9859 45.5742C56.4126 44.0646 59.5968 62.4533 59.8194 71.6571L69.527 71.2228C68.923 57.7189 64.6858 33.6659 42.4595 36.9298Z" fill="#324E6B"/>
<path d="M17.8785 88.8642C16.5215 78.72 24.8844 69.9171 35.0849 70.7526L62.6401 73.0097C66.4711 73.3235 69.55 76.294 70.0009 80.1113L74.6528 119.496C75.2107 124.22 71.5855 128.4 66.8302 128.517L37.0222 129.246C29.2287 129.437 22.5422 123.728 21.5085 116.001L17.8785 88.8642Z" fill="#324E6B"/>
<path d="M31.2723 67.5508L22.376 75.6069L33.7559 75.9488L31.2723 67.5508Z" fill="#324E6B"/>
<path d="M82.4885 116.287L71.2031 127.051L73.1849 119.852L82.4885 116.287Z" fill="#324E6B"/>
<path fill-rule="evenodd" clip-rule="evenodd" d="M66.7011 71.3486C66.5944 70.2361 66.3153 68.7543 65.8357 66.8421C62.4701 53.421 54.5949 44.3326 46.2295 45.4862C55.6505 45.4291 58.971 59.637 59.6778 68.9078C60.5464 69.8845 61.3768 70.7847 62.1434 71.5525L66.7011 71.3486Z" fill="#3B5B7C"/>
<path d="M27.7879 74.9897C27.2987 70.2572 30.9859 66.1294 35.7434 66.0838L69.2536 65.7622C74.4565 65.7123 78.94 69.4148 79.8747 74.5333L85.7702 106.818C86.9319 113.179 82.2246 119.108 75.7654 119.419L47.0368 120.8C38.9361 121.19 31.9432 115.181 31.1091 107.114L27.7879 74.9897Z" fill="#2A4259"/>
<path d="M54.1004 106.761L52.6912 93.9618C50.8906 93.4921 47.2544 91.3549 47.1134 86.5639C46.9373 80.5751 51.4148 79.0199 54.0628 79.0195C56.9814 79.0192 62.0854 80.5751 63.0835 87.0336C63.882 92.2004 61.2634 93.8053 59.8543 93.9618L61.4395 106.761H54.1004Z" fill="#3B5B7C"/>
<path fill-rule="evenodd" clip-rule="evenodd" d="M50.8877 79.715C53.8316 79.7782 58.7494 81.4004 59.7271 87.7271C60.5257 92.8939 57.907 94.4988 56.4979 94.6553L57.9973 106.761H61.4397L59.8545 93.9618C61.2636 93.8053 63.8822 92.2004 63.0837 87.0336C62.0856 80.5751 56.9816 79.0192 54.063 79.0195C53.136 79.0197 51.9849 79.2103 50.8877 79.715Z" fill="#324E6B"/>
<path d="M58.1777 180.516C58.1777 178.859 59.5209 177.516 61.1777 177.516H257.185C258.841 177.516 260.185 178.859 260.185 180.516V181.75H58.1777V180.516Z" fill="#4098FF"/>
<path d="M62.3241 185.359C62.8739 185.85 63.5851 186.121 64.3221 186.121H254.04C254.777 186.121 255.488 185.85 256.038 185.359L260.185 181.657H58.1777L62.3241 185.359Z" fill="#1782FF"/>
<rect x="78.0586" y="69.4551" width="162.246" height="108.249" rx="6" fill="#4098FF"/>
<path d="M159.181 73.0772C159.755 73.0772 160.22 72.6113 160.22 72.0366C160.22 71.462 159.755 70.9961 159.181 70.9961C158.608 70.9961 158.143 71.462 158.143 72.0366C158.143 72.6113 158.608 73.0772 159.181 73.0772Z" fill="#0070F3"/>
<rect x="83.4219" y="74.5" width="151.518" height="98.1594" rx="4" fill="#223548"/>
<path d="M147.43 176.912H170.933V177.632C170.933 178.736 170.038 179.632 168.933 179.632H149.43C148.325 179.632 147.43 178.736 147.43 177.632V176.912Z" fill="#0070F3"/>
<path fill-rule="evenodd" clip-rule="evenodd" d="M105.083 92.652C105.083 88.7862 108.217 85.6523 112.083 85.6523H118.264C118.816 85.6523 119.263 86.0999 119.263 86.652C119.263 87.2041 118.816 87.6516 118.264 87.6516H112.083C109.321 87.6516 107.082 89.8904 107.082 92.652V98.8329C107.082 99.385 106.635 99.8325 106.083 99.8325C105.531 99.8325 105.083 99.385 105.083 98.8329V92.652Z" fill="#1782FF"/>
<path fill-rule="evenodd" clip-rule="evenodd" d="M105.083 156.504C105.083 160.37 108.217 163.504 112.083 163.504H118.264C118.816 163.504 119.263 163.056 119.263 162.504C119.263 161.952 118.816 161.505 118.264 161.505H112.083C109.321 161.505 107.082 159.266 107.082 156.504V150.323C107.082 149.771 106.635 149.324 106.083 149.324C105.531 149.324 105.083 149.771 105.083 150.323V156.504Z" fill="#1782FF"/>
<path fill-rule="evenodd" clip-rule="evenodd" d="M213.271 92.652C213.271 88.7862 210.138 85.6523 206.272 85.6523H200.091C199.539 85.6523 199.091 86.0999 199.091 86.652C199.091 87.2041 199.539 87.6516 200.091 87.6516H206.272C209.033 87.6516 211.272 89.8904 211.272 92.652V98.8329C211.272 99.385 211.72 99.8325 212.272 99.8325C212.824 99.8325 213.271 99.385 213.271 98.8329V92.652Z" fill="#1782FF"/>
<path fill-rule="evenodd" clip-rule="evenodd" d="M213.271 156.504C213.271 160.37 210.138 163.504 206.272 163.504H200.091C199.539 163.504 199.091 163.056 199.091 162.504C199.091 161.952 199.539 161.505 200.091 161.505H206.272C209.033 161.505 211.272 159.266 211.272 156.504V150.323C211.272 149.771 211.72 149.324 212.272 149.324C212.824 149.324 213.271 149.771 213.271 150.323V156.504Z" fill="#1782FF"/>
<circle cx="159.178" cy="124.578" r="39.7812" fill="#CEDBE8"/>
<path fill-rule="evenodd" clip-rule="evenodd" d="M159.281 100.58C165.808 100.58 171.917 103.153 176.475 107.822H176.474C176.898 108.257 176.891 108.95 176.458 109.372C176.244 109.581 175.977 109.684 175.691 109.684C175.406 109.684 175.121 109.572 174.908 109.355C170.763 105.11 165.213 102.772 159.28 102.772C156.088 102.772 153.014 103.445 150.144 104.77C149.594 105.021 148.945 104.786 148.689 104.234C148.438 103.685 148.676 103.034 149.225 102.78C152.386 101.321 155.771 100.58 159.281 100.58ZM175.389 118.074C172.715 111.487 166.392 107.231 159.282 107.231C155.984 107.231 153.111 108.011 150.696 109.575C148.281 111.138 146.345 113.47 144.897 116.537C144.636 117.086 144.874 117.739 145.418 117.996H145.419C145.963 118.253 146.619 118.024 146.879 117.474C148.149 114.782 149.826 112.774 151.887 111.437C153.946 110.101 156.412 109.422 159.282 109.422C165.496 109.422 171.019 113.139 173.358 118.897C173.53 119.326 173.944 119.581 174.373 119.581C174.508 119.581 174.651 119.555 174.785 119.5C175.345 119.272 175.615 118.633 175.387 118.073L175.389 118.074ZM182.733 119.374C182.736 119.397 182.738 119.409 182.74 119.418V119.422L182.742 119.42C183.114 121.111 183.313 122.854 183.313 124.608C183.313 126.494 183.216 128.392 183.032 130.245C183.031 130.259 183.03 130.274 183.029 130.293V130.308L183.027 130.326L182.994 130.637V130.639V130.641C182.931 131.199 182.459 131.616 181.906 131.616C181.866 131.616 181.826 131.614 181.785 131.609H181.784C181.179 131.544 180.75 131 180.814 130.4L180.839 130.165L180.849 130.069C181.029 128.272 181.121 126.435 181.121 124.607C181.121 123.002 180.946 121.405 180.602 119.857H180.596L180.529 119.575C179.885 116.837 178.736 114.281 177.099 111.974C176.749 111.481 176.864 110.798 177.356 110.448H177.358C177.847 110.1 178.535 110.21 178.885 110.708C178.886 110.709 178.886 110.71 178.886 110.71C180.725 113.298 182.013 116.173 182.713 119.255C182.724 119.3 182.729 119.343 182.732 119.37L182.733 119.374ZM162.952 130.367C162.827 131.243 162.672 132.111 162.492 132.968L162.493 132.966C162.385 133.483 161.927 133.835 161.422 133.835C161.351 133.835 161.276 133.828 161.198 133.813H161.196H161.194C160.601 133.688 160.222 133.106 160.347 132.514C160.51 131.739 160.648 130.953 160.763 130.158C160.766 130.131 160.77 130.108 160.774 130.093C160.778 130.073 160.779 130.064 160.779 130.064V130.06V130.057C161.037 128.265 161.167 126.433 161.167 124.609C161.167 123.57 160.295 122.725 159.281 122.725C158.266 122.725 157.436 123.53 157.398 124.535C157.4 124.56 157.402 124.584 157.402 124.609V124.611V124.613L157.397 125.216V125.218V125.221C157.385 125.776 156.911 126.352 156.278 126.292C155.672 126.282 155.194 125.78 155.205 125.179L155.209 124.694C155.207 124.667 155.205 124.64 155.205 124.611C155.205 122.363 157.034 120.533 159.282 120.533C161.53 120.533 163.36 122.363 163.36 124.611C163.36 126.501 163.223 128.399 162.963 130.256V130.26V130.263C162.961 130.268 162.96 130.276 162.958 130.302C162.957 130.307 162.957 130.314 162.956 130.322L162.954 130.342L162.953 130.35L162.952 130.361V130.364V130.367ZM156.345 130.576C156.928 130.727 157.285 131.321 157.135 131.909V131.908C156.271 135.3 155.515 137.542 154.433 139.607C153.352 141.668 151.953 143.537 149.826 146.188C149.609 146.457 149.291 146.597 148.971 146.597C148.732 146.597 148.489 146.519 148.287 146.356H148.286C147.815 145.977 147.741 145.288 148.118 144.818C150.197 142.226 151.5 140.484 152.496 138.586C153.489 136.691 154.182 134.622 155.012 131.369C155.159 130.787 155.747 130.421 156.345 130.576ZM160.494 136.354H160.493H160.491C159.916 136.148 159.294 136.46 159.095 137.026C157.546 141.441 156.651 143.168 154.004 146.837C153.651 147.328 153.758 148.011 154.249 148.366H154.25C154.446 148.508 154.67 148.574 154.892 148.574C155.228 148.574 155.566 148.417 155.781 148.12C158.541 144.292 159.554 142.342 161.164 137.75C161.364 137.181 161.065 136.555 160.494 136.354ZM147.316 106.341C147.823 106.009 147.962 105.327 147.632 104.823C147.298 104.314 146.618 104.175 146.113 104.507C140.879 107.944 137.235 113.182 135.853 119.256C135.841 119.306 135.834 119.353 135.831 119.379C135.829 119.393 135.828 119.403 135.827 119.41L135.826 119.418V119.422C135.452 121.114 135.255 122.856 135.255 124.608C135.255 125.358 135.195 126.114 135.077 126.846C134.979 127.445 135.384 128.004 135.978 128.103H135.981H135.984C136.046 128.114 136.104 128.118 136.161 128.118C136.69 128.118 137.154 127.735 137.242 127.197C137.378 126.345 137.449 125.476 137.449 124.608C137.449 123.004 137.625 121.405 137.967 119.857H137.972L138.038 119.576C139.323 114.129 142.608 109.432 147.317 106.34L147.316 106.341ZM175.593 123.554C175.849 123.555 176.119 123.636 176.329 123.818L176.327 123.816C176.542 124.003 176.669 124.278 176.66 124.608C176.659 126.469 176.554 128.338 176.355 130.168L176.348 130.237L176.347 130.251C176.346 130.258 176.346 130.265 176.345 130.274L176.344 130.284C176.344 130.297 176.343 130.312 176.341 130.328V130.33V130.333C175.775 135.38 174.463 140.295 172.439 144.942C172.259 145.356 171.855 145.601 171.435 145.601C171.288 145.601 171.14 145.573 170.996 145.509C170.441 145.267 170.19 144.621 170.432 144.067C172.354 139.656 173.603 134.99 174.149 130.196L174.151 130.173C174.152 130.162 174.153 130.153 174.154 130.144L174.189 129.838H174.19C174.374 128.113 174.468 126.353 174.468 124.608V124.602V124.596C174.479 124.258 174.628 123.987 174.851 123.806C175.068 123.631 175.338 123.554 175.593 123.554ZM143.338 130.405L143.338 130.405L143.343 130.38C143.349 130.357 143.355 130.331 143.363 130.302C143.85 128.455 144.102 126.545 144.102 124.61C144.102 124.584 144.1 124.56 144.098 124.535L144.098 124.535L144.097 124.532C144.103 123.297 144.259 122.068 144.557 120.881C144.707 120.295 144.352 119.702 143.769 119.554H143.766H143.762C143.161 119.396 142.578 119.772 142.434 120.348V120.349C142.083 121.736 141.906 123.17 141.906 124.611C141.906 124.639 141.908 124.669 141.911 124.699C141.903 126.445 141.671 128.173 141.224 129.841H141.218L141.143 130.107C140.554 132.179 139.647 134.137 138.429 135.919C138.09 136.419 138.218 137.102 138.717 137.444C138.907 137.573 139.122 137.634 139.334 137.634C139.683 137.634 140.028 137.468 140.241 137.156C141.631 135.117 142.665 132.878 143.315 130.503V130.5C143.325 130.466 143.332 130.433 143.338 130.405L143.338 130.405ZM168.587 119.238L168.625 119.297L168.626 119.298L168.959 119.86C169.634 121.088 170.011 122.446 170.011 124.611C170.011 126.491 169.89 128.391 169.661 130.258C169.66 130.266 169.659 130.277 169.658 130.298C169.657 130.306 169.656 130.318 169.655 130.329L169.655 130.329L169.655 130.337L169.654 130.344V130.35C169.174 134.157 168.213 137.895 166.799 141.455C166.628 141.885 166.215 142.146 165.781 142.146C165.642 142.146 165.509 142.119 165.382 142.071L165.378 142.068H165.375C164.813 141.843 164.538 141.207 164.762 140.644C166.097 137.283 167.006 133.754 167.464 130.16C167.466 130.14 167.469 130.124 167.471 130.115C167.474 130.103 167.475 130.102 167.475 130.099L167.476 130.095C167.477 130.09 167.478 130.086 167.478 130.083C167.479 130.079 167.48 130.076 167.48 130.074C167.706 128.266 167.82 126.429 167.82 124.61C167.82 123.48 167.706 122.661 167.495 121.981C167.285 121.302 166.974 120.742 166.555 120.132C166.493 120.044 166.452 119.951 166.424 119.861C166.304 119.473 166.438 119.138 166.438 119.138C166.507 118.935 166.636 118.746 166.838 118.608C167.338 118.265 168.02 118.394 168.36 118.891C168.417 118.974 168.471 119.056 168.523 119.137L168.532 119.152C168.551 119.181 168.569 119.21 168.587 119.238ZM163.489 144.145C163.689 143.576 164.311 143.271 164.884 143.472L164.885 143.476C165.456 143.675 165.759 144.299 165.557 144.872C165.151 146.031 164.697 147.058 164.167 148.013C163.966 148.372 163.591 148.576 163.208 148.576C163.025 148.576 162.845 148.53 162.681 148.442L162.678 148.44L162.675 148.438C162.148 148.143 161.956 147.475 162.25 146.946C162.717 146.107 163.122 145.19 163.489 144.145ZM165.137 115.616C163.395 114.481 161.37 113.88 159.284 113.88C155.562 113.88 152.158 115.768 150.182 118.928C150.131 119.01 150.089 119.093 150.055 119.16L150.048 119.174C150.023 119.225 150.002 119.267 149.979 119.308L149.973 119.319C149.968 119.326 149.964 119.334 149.961 119.341L149.672 119.857H149.687C148.956 121.328 148.557 122.947 148.557 124.608C148.557 124.64 148.559 124.674 148.563 124.711C148.556 126.484 148.37 128.258 148.011 129.982C148.007 129.997 148.004 130.013 148 130.028C147.998 130.037 147.996 130.046 147.994 130.056C147.992 130.062 147.991 130.068 147.99 130.074C147.986 130.086 147.984 130.097 147.983 130.106L147.982 130.111C147.981 130.113 147.981 130.116 147.98 130.118C147.98 130.12 147.979 130.123 147.979 130.125V130.13L147.977 130.136C147.936 130.335 147.891 130.531 147.844 130.727C147.704 131.315 148.065 131.908 148.653 132.05L148.661 132.052H148.668C148.742 132.068 148.824 132.08 148.913 132.08C149.409 132.08 149.855 131.743 149.978 131.242C150.042 130.974 150.101 130.704 150.158 130.432V130.43C150.165 130.396 150.169 130.364 150.172 130.34L150.174 130.326C150.177 130.3 150.179 130.288 150.182 130.277C150.559 128.422 150.757 126.515 150.757 124.609C150.757 124.58 150.755 124.546 150.751 124.511C150.77 122.941 151.215 121.416 152.043 120.09C152.085 120.022 152.135 119.956 152.195 119.877C152.199 119.871 152.203 119.865 152.208 119.859H152.212L152.321 119.704C153.926 117.427 156.486 116.073 159.286 116.073C160.946 116.073 162.556 116.551 163.94 117.454V117.455C164.448 117.781 165.125 117.642 165.456 117.134C165.787 116.627 165.642 115.947 165.137 115.617V115.616ZM147.988 134.51C148.504 134.826 148.669 135.498 148.358 136.016L148.357 136.014C147.643 137.191 147.217 138.009 146.839 138.738L146.837 138.741C146.224 139.921 145.732 140.865 144.429 142.473C144.213 142.742 143.896 142.88 143.577 142.88C143.338 142.88 143.091 142.802 142.889 142.636H142.888L142.887 142.635C142.418 142.254 142.345 141.565 142.725 141.096C143.889 139.66 144.283 138.903 144.89 137.736L144.893 137.73L144.917 137.684C145.303 136.944 145.745 136.095 146.482 134.878C146.798 134.36 147.47 134.2 147.986 134.508L147.987 134.51H147.988Z" fill="#688FB7"/>
<path fill-rule="evenodd" clip-rule="evenodd" d="M174.445 126.082H176.637C176.597 127.452 176.501 128.82 176.355 130.168L176.348 130.237L176.347 130.251C176.346 130.258 176.346 130.265 176.345 130.274L176.344 130.283C176.344 130.297 176.343 130.312 176.341 130.328V130.33V130.332C175.775 135.38 174.463 140.295 172.439 144.942C172.259 145.356 171.855 145.6 171.435 145.6C171.288 145.6 171.14 145.572 170.996 145.509C170.441 145.267 170.19 144.621 170.432 144.067C172.354 139.656 173.603 134.99 174.149 130.196L174.151 130.173C174.152 130.162 174.153 130.153 174.154 130.144L174.189 129.838H174.19C174.322 128.597 174.408 127.34 174.445 126.082ZM141.858 126.082H144.053C143.958 127.513 143.726 128.925 143.363 130.302C143.355 130.331 143.349 130.357 143.343 130.38L143.338 130.405L143.338 130.405C143.332 130.433 143.325 130.466 143.315 130.5V130.503C142.665 132.878 141.631 135.117 140.241 137.156C140.028 137.468 139.683 137.634 139.334 137.634C139.122 137.634 138.907 137.573 138.717 137.443C138.218 137.102 138.09 136.419 138.429 135.919C139.647 134.136 140.554 132.179 141.143 130.107L141.218 129.841H141.224C141.552 128.615 141.765 127.356 141.858 126.082ZM183.294 126.082C183.257 127.479 183.168 128.874 183.032 130.244C183.031 130.258 183.03 130.273 183.029 130.293V130.308L183.027 130.326L182.994 130.636V130.639V130.641C182.931 131.199 182.459 131.616 181.906 131.616C181.866 131.616 181.826 131.613 181.785 131.609H181.784C181.179 131.543 180.75 131 180.814 130.4L180.839 130.165L180.849 130.069C180.98 128.755 181.065 127.42 181.101 126.082H183.294ZM135.178 126.082H137.382C137.348 126.456 137.301 126.828 137.242 127.197C137.154 127.735 136.69 128.118 136.161 128.118C136.104 128.118 136.046 128.114 135.984 128.103H135.981H135.978C135.384 128.004 134.979 127.445 135.077 126.846C135.118 126.594 135.151 126.339 135.178 126.082ZM148.522 126.082H150.718C150.643 127.495 150.461 128.9 150.182 130.277C150.179 130.287 150.177 130.3 150.174 130.326L150.172 130.34C150.169 130.364 150.165 130.396 150.158 130.43V130.432C150.101 130.704 150.042 130.974 149.978 131.242C149.855 131.743 149.409 132.08 148.913 132.08C148.824 132.08 148.742 132.068 148.668 132.052H148.661L148.653 132.05C148.065 131.908 147.704 131.315 147.844 130.727C147.891 130.531 147.936 130.335 147.977 130.136L147.979 130.13V130.125L147.979 130.125C147.98 130.119 147.981 130.114 147.983 130.105C147.984 130.097 147.986 130.086 147.99 130.074C147.993 130.059 147.997 130.043 148 130.028C148.004 130.012 148.007 129.997 148.011 129.982C148.277 128.703 148.449 127.396 148.522 126.082ZM155.653 126.082H156.966C156.779 126.231 156.542 126.317 156.278 126.292C156.043 126.288 155.828 126.21 155.653 126.082ZM161.139 126.082H163.333C163.281 127.483 163.156 128.881 162.963 130.256V130.259V130.263C162.961 130.268 162.96 130.276 162.958 130.302L162.957 130.312L162.957 130.313L162.956 130.326L162.956 130.326C162.955 130.337 162.954 130.349 162.952 130.361V130.364V130.367C162.827 131.243 162.672 132.111 162.492 132.968L162.493 132.965C162.385 133.482 161.927 133.835 161.422 133.835C161.351 133.835 161.276 133.828 161.198 133.813H161.196H161.194C160.601 133.688 160.222 133.105 160.347 132.514C160.51 131.738 160.648 130.953 160.763 130.158C160.766 130.131 160.77 130.108 160.774 130.093C160.778 130.073 160.779 130.063 160.779 130.063V130.06V130.057C160.967 128.747 161.088 127.416 161.139 126.082ZM167.795 126.082H169.987C169.941 127.478 169.83 128.877 169.661 130.258C169.66 130.266 169.659 130.277 169.658 130.297C169.657 130.308 169.656 130.323 169.655 130.337L169.654 130.344V130.35C169.174 134.157 168.213 137.895 166.799 141.455C166.628 141.885 166.215 142.145 165.781 142.145C165.642 142.145 165.509 142.119 165.382 142.071L165.378 142.068H165.375C164.813 141.843 164.538 141.207 164.762 140.644C166.097 137.283 167.006 133.754 167.464 130.16C167.466 130.14 167.469 130.124 167.471 130.114C167.474 130.103 167.475 130.101 167.475 130.099L167.476 130.095C167.477 130.09 167.477 130.086 167.478 130.083L167.478 130.082L167.478 130.082C167.479 130.08 167.479 130.078 167.479 130.077C167.48 130.076 167.48 130.075 167.48 130.073C167.645 128.752 167.751 127.416 167.795 126.082ZM157.135 131.909C157.285 131.321 156.928 130.727 156.345 130.576C155.747 130.421 155.159 130.786 155.012 131.369C154.182 134.622 153.489 136.69 152.496 138.586C151.5 140.484 150.197 142.226 148.118 144.818C147.741 145.287 147.815 145.977 148.286 146.356H148.287C148.489 146.519 148.732 146.597 148.971 146.597C149.291 146.597 149.609 146.457 149.826 146.188C151.953 143.537 153.352 141.668 154.433 139.606C155.515 137.541 156.271 135.3 157.135 131.908V131.909ZM160.493 136.353H160.494C161.065 136.555 161.364 137.181 161.164 137.749C159.554 142.341 158.541 144.292 155.781 148.119C155.566 148.417 155.228 148.574 154.892 148.574C154.67 148.574 154.446 148.508 154.25 148.366H154.249C153.758 148.011 153.651 147.328 154.004 146.837C156.651 143.168 157.546 141.441 159.095 137.026C159.294 136.46 159.916 136.148 160.491 136.353H160.493ZM164.884 143.472C164.311 143.271 163.689 143.576 163.489 144.144C163.122 145.19 162.717 146.107 162.25 146.946C161.956 147.475 162.148 148.143 162.675 148.438L162.678 148.44L162.681 148.442C162.845 148.53 163.025 148.576 163.208 148.576C163.591 148.576 163.966 148.372 164.167 148.013C164.697 147.058 165.151 146.031 165.557 144.871C165.759 144.298 165.456 143.675 164.885 143.475L164.884 143.472ZM148.358 136.016C148.669 135.498 148.504 134.826 147.988 134.51H147.987L147.986 134.508C147.47 134.2 146.798 134.36 146.482 134.878C145.745 136.095 145.303 136.944 144.917 137.684L144.917 137.684L144.893 137.73L144.89 137.736L144.89 137.736C144.283 138.902 143.889 139.659 142.725 141.096C142.345 141.564 142.418 142.254 142.887 142.635L142.888 142.636H142.889C143.091 142.802 143.338 142.88 143.577 142.88C143.896 142.88 144.213 142.742 144.429 142.473C145.732 140.865 146.224 139.921 146.837 138.741L146.839 138.738C147.217 138.009 147.643 137.191 148.357 136.014L148.358 136.016Z" fill="#CC7400"/>
<rect x="123.548" y="124.469" width="71.5432" height="3.54102" rx="1.77051" fill="#F58B00"/>
<path d="M39.2382 182.025C39.2382 180.667 35.2955 179.58 30.0274 179.333C29.7262 174.071 28.5666 170.159 27.2082 170.162C25.8497 170.165 24.7202 174.107 24.4311 179.396C19.148 179.757 15.2203 180.938 15.2383 182.299C15.2564 183.66 19.1811 184.748 24.4492 184.992C24.7654 190.253 25.91 194.165 27.2654 194.162C28.6208 194.159 29.7564 190.217 30.0455 184.928C35.3286 184.567 39.2533 183.386 39.2382 182.025Z" fill="#2A4259"/>
<path d="M294.169 192.95C294.169 192.044 291.54 191.319 288.028 191.155C287.828 187.647 287.054 185.039 286.149 185.041C285.243 185.043 284.49 187.671 284.297 191.197C280.775 191.438 278.157 192.225 278.169 193.132C278.181 194.04 280.798 194.765 284.31 194.927C284.52 198.435 285.283 201.043 286.187 201.041C287.091 201.039 287.848 198.411 288.04 194.885C291.562 194.644 294.179 193.857 294.169 192.95Z" fill="#2A4259"/>
<path d="M201.904 44.6911C201.904 43.3328 197.961 42.2456 192.693 41.9987C192.392 36.7373 191.233 32.8251 189.874 32.8281C188.516 32.8311 187.386 36.7734 187.097 42.0619C181.814 42.4233 177.886 43.6039 177.904 44.9652C177.922 46.3264 181.847 47.4136 187.115 47.6576C187.431 52.919 188.576 56.8311 189.931 56.8281C191.287 56.8251 192.422 52.8828 192.712 47.5943C197.995 47.2329 201.919 46.0524 201.904 44.6911Z" fill="#2A4259"/>
<path d="M236.6 84.3357C256.894 87.2906 269.217 80.3766 273.306 73.6448C275.305 81.263 286.319 91.575 306.612 94.5298C300.34 152.156 265.914 159.632 251.737 160.876C238.504 155.64 226.179 141.358 236.6 84.3357Z" fill="#324E6B"/>
<path d="M263.909 71.5527L273.172 74.2048L268.409 82.2816L263.909 71.5527Z" fill="#324E6B"/>
<path d="M226.397 83.3126C246.69 86.2675 259.767 78.2949 263.856 71.5631C265.855 79.1813 276.115 90.5519 296.409 93.5067C290.137 151.133 265.022 159.675 250.845 160.919C237.612 155.684 215.975 140.335 226.397 83.3126Z" fill="#2A4259"/>
<path d="M235.137 90.6764C250.64 92.9337 257.479 93.9841 260.625 88.6853C262.115 94.6054 272.914 96.1775 288.188 98.4009L288.621 98.464C283.648 143.734 264.425 150.52 253.584 151.541C243.485 147.471 226.994 135.485 235.137 90.6764Z" fill="#3B5B7C"/>
<path d="M233.028 90.3679C248.531 92.6251 258.551 86.3241 261.697 81.0254C263.202 87.0013 271.009 95.8981 286.512 98.1554C281.539 143.426 262.315 150.211 251.475 151.232C241.375 147.162 224.885 135.177 233.028 90.3679Z" fill="#324E6B"/>
<path fill-rule="evenodd" clip-rule="evenodd" d="M269.131 109.233C269.745 110.121 269.548 111.372 268.69 112.028L251.12 125.455C250.262 126.11 249.069 125.922 248.455 125.034L243.737 118.214C243.123 117.327 243.321 116.075 244.179 115.42C245.036 114.765 246.229 114.953 246.843 115.841L250.449 121.053L266.466 108.813C267.324 108.157 268.517 108.346 269.131 109.233Z" fill="#223548"/>
</svg>
