<svg width="160" height="86" viewBox="0 0 160 86" fill="none" xmlns="http://www.w3.org/2000/svg">
<rect y="8.75" width="160" height="69" rx="12" fill="#89D1FF"/>
<path d="M119 11.4033L92.5508 20.23L99.454 23.5645L100.262 27.0993L102.701 25.0568C103.835 25.0712 105.733 25.31 108.515 26.3186L119 11.4033Z" fill="#1B90FF"/>
<path d="M51 24.0187L55.0319 27.5894L55.8213 29.0883L56.8074 28.5387C57.6479 28.9252 59.0763 29.7523 59.7125 31.1236L71.1573 20.5254L51 24.0182V24.0187Z" fill="#1B90FF"/>
<path d="M79.6737 61.1193L82.4393 63.7599L83.9589 61.4497L86.3775 61.6347L93.4646 46.9997L69.9485 62.2914L79.6737 61.1193Z" fill="#1B90FF"/>
<path d="M106.443 21.7959C104.821 24.2527 102.078 25.5483 99.2968 26.2237C97.8606 26.5724 96.3927 26.7709 94.92 26.8874C93.4479 27.0031 91.9256 27.0845 90.4735 26.7592C89.0215 26.4339 87.7817 25.6958 87.238 24.3106C86.6742 22.8744 86.9134 21.1426 87.6501 19.8132C88.3351 18.5762 89.5542 17.4239 91.0221 17.284C92.2591 17.1661 93.3763 17.7981 94.0392 18.8236C95.5133 21.1026 94.9503 24.0039 93.6051 26.1879C92.1075 28.6178 89.6762 30.3104 87.1628 31.564C84.2891 32.9967 81.1865 33.8651 78.1129 34.7527C74.5727 35.774 71.0166 36.7884 67.6446 38.2943C62.0424 40.7973 56.6098 45.1982 55.0716 51.4082C54.8904 52.1401 54.7746 52.8871 54.7126 53.6383C54.6692 54.1648 55.49 54.162 55.5334 53.6383C56.0854 46.9059 61.7399 41.9502 67.495 39.2604C71.0001 37.6223 74.7443 36.5789 78.4505 35.5094C81.6654 34.5811 84.901 33.6542 87.8885 32.1153C90.5163 30.7611 93.0206 28.8921 94.5044 26.2809C95.8517 23.9095 96.3017 20.8125 94.7477 18.4108C94.0192 17.284 92.8566 16.5176 91.4976 16.4542C89.9808 16.3833 88.5611 17.2537 87.6273 18.3977C85.6267 20.8476 85.3938 25.0508 88.3909 26.8371C89.7148 27.6261 91.3288 27.8039 92.8408 27.8053C94.3728 27.806 95.9179 27.653 97.4312 27.4228C100.408 26.9694 103.488 26.0252 105.727 23.9171C106.268 23.4078 106.742 22.8317 107.15 22.2121C107.442 21.7704 106.732 21.359 106.442 21.798L106.443 21.7959Z" fill="#FFF8D6"/>
<path d="M85.8018 52.6199C85.8653 56.6948 84.3381 60.581 81.9502 63.8379C79.4644 67.2286 76.1061 69.8839 72.3888 71.808C68.1326 74.0112 63.4836 75.3227 58.8228 76.3537C54.1621 77.3846 49.4703 78.131 44.8385 79.2316C40.2549 80.3204 35.7037 81.7594 31.5812 84.0791C31.0733 84.3651 30.573 84.6649 30.0802 84.9764C29.635 85.2575 30.0465 85.9681 30.4944 85.6848C34.5584 83.1163 39.1199 81.5175 43.7586 80.3418C48.449 79.153 53.2303 78.3853 57.96 77.3798C62.6655 76.3792 67.3559 75.1352 71.7135 73.0574C75.6127 71.1988 79.1639 68.6186 81.8909 65.2466C84.4525 62.0792 86.2601 58.2668 86.5758 54.1698C86.6157 53.6543 86.6288 53.1367 86.6213 52.6199C86.6137 52.103 85.7922 52.0906 85.8005 52.6199H85.8018Z" fill="#FFF8D6"/>
<path d="M37.2136 58.7766C41.0632 55.4287 44.2154 51.2745 46.38 46.653C47.3152 44.6559 48.2063 42.1735 47.4069 39.982C46.6164 37.8146 44.1148 36.539 41.9191 37.4225C39.9385 38.2198 38.186 41.1391 39.9343 42.9943C41.4719 44.6255 43.9969 44.4932 45.8831 43.64C50.5694 41.5209 51.2482 35.8223 53.6678 31.8472C56.0516 27.9308 59.8234 24.8564 64.1464 23.3238C64.6874 23.1322 65.2367 22.9654 65.7921 22.82C66.3028 22.6863 66.0864 21.8951 65.5737 22.0288C61.4139 23.1156 57.6236 25.5311 54.8511 28.8142C53.4073 30.524 52.3026 32.4296 51.4267 34.4846C50.5067 36.6417 49.7321 38.9683 48.2297 40.8097C46.9913 42.3279 45.0444 43.505 43.0376 43.4505C42.0921 43.425 41.0129 43.0598 40.4078 42.2941C39.7173 41.4196 40.1473 40.0874 40.7593 39.2915C41.3898 38.4721 42.3622 37.9586 43.4015 37.9642C44.4414 37.9697 45.4827 38.4548 46.1154 39.2887C47.4413 41.0364 46.8149 43.4946 46.0664 45.3443C45.1802 47.5345 43.9466 49.624 42.6007 51.5598C41.2403 53.5163 39.6821 55.3343 37.9613 56.9835C37.5285 57.3983 37.0847 57.8015 36.6319 58.1957C36.2329 58.543 36.8152 59.1212 37.2122 58.7759L37.2136 58.7766Z" fill="#FFF8D6"/>
<path d="M105.327 24.6289L104.265 17.7035L129.962 0.25L105.327 24.6289Z" fill="#046C7C"/>
<path d="M106.798 21.3047L105.326 24.6292L108.532 21.457L108.913 21.0766L107.389 20.7686L106.798 21.3047Z" fill="#00144A"/>
<path d="M95.1895 9.41714L104.264 17.7035L129.961 0.25L95.1895 9.41714Z" fill="#0899A7"/>
<path d="M106.798 21.3044C106.798 21.3044 109.619 20.6579 116.176 25.5061L129.961 0.25L106.798 21.3044Z" fill="#0899A7"/>
<path d="M63.3416 23.6496L62.4678 21.0708L80.3072 13.6865L63.3416 23.6496Z" fill="#046C7C"/>
<path d="M58.0078 14.4122L62.468 21.0708L80.3075 13.6865L58.0078 14.4122Z" fill="#0899A7"/>
<path d="M63.7105 22.4336L63.3418 23.6493L64.6925 22.8581L63.7105 22.4336Z" fill="#00144A"/>
<path d="M63.7109 22.434C63.7109 22.434 66.6171 24.407 67.6467 27.8287L80.3079 13.6865L63.7109 22.434Z" fill="#0899A7"/>
<path d="M81.1162 52.7647L85.1126 59.954L101.741 32.1562L81.1162 52.7647Z" fill="#046C7C"/>
<path d="M68.2227 51.689L81.6819 53.6372L101.74 32.1562L68.2227 51.689Z" fill="#0899A7"/>
<path d="M82.7949 54.1436L85.1125 59.9538L87.4846 55.9726L82.7949 54.1436Z" fill="#00144A"/>
<path d="M82.7949 54.1437L90.6851 57.5302L101.74 32.1562L82.7949 54.1437Z" fill="#0899A7"/>
</svg>
