<svg width="45" height="45" viewBox="0 0 45 45" fill="none" xmlns="http://www.w3.org/2000/svg">
<g clip-path="url(#clip0_4211_44541)">
<path d="M-0.382812 31.3984L25.3145 31.6846L34.7592 39.0705L17.6899 38.6614L-0.382812 31.3984Z" fill="#101619"/>
<path d="M33.0257 39.0692L33.5811 6.21484H18.9277V38.2319L31.2141 43.0022H44.8855L33.0257 39.0692Z" fill="#D0B863"/>
<path d="M17.6523 4.58984H34.4051V39.0689H33.0268V5.70477H18.6197V38.6598H17.6895L17.6523 4.58984Z" fill="#C35500"/>
<path d="M18.6191 5.70312L18.6276 5.71478L18.6191 38.6582L19.182 38.1124V6.5478H33.0262V5.70312H18.6191Z" fill="#A93E00"/>
<path d="M34.7599 4.58984H34.4062V39.0689H34.7599V4.58984Z" fill="#A93E00"/>
<path d="M18.6191 5.70312V38.6582L19.182 38.1124L18.9282 6.2129L18.6191 5.70312Z" fill="#340800"/>
<path d="M18.9297 5.49334V38.4039L27.5408 41.595V2.03516L18.9297 5.49334Z" fill="#C35500"/>
<path d="M28.1093 2.03516H27.5391V41.595L28.1093 41.4667V2.03516Z" fill="#340800"/>
<ellipse cx="1.43152" cy="1.43152" rx="1.43152" ry="1.43152" transform="matrix(0.866025 0.5 -0.309017 0.951057 25.2305 20.1055)" fill="#D0B863"/>
</g>
<defs>
<clipPath id="clip0_4211_44541">
<rect width="45" height="43.0347" fill="white" transform="translate(0 0.984375)"/>
</clipPath>
</defs>
</svg>
