<?xml version="1.0" encoding="UTF-8"?>
<!--Generator: Apple Native CoreSVG 232.5-->
<!DOCTYPE svg
PUBLIC "-//W3C//DTD SVG 1.1//EN"
       "http://www.w3.org/Graphics/SVG/1.1/DTD/svg11.dtd">
<svg version="1.1" xmlns="http://www.w3.org/2000/svg" xmlns:xlink="http://www.w3.org/1999/xlink" width="3300" height="2200">
 <!--glyph: "", point size: 100.0, font version: "19.0d6e1", template writer version: "123"-->
 <style>.SFSymbolsPreviewWireframe {fill:none;opacity:1.0;stroke:black;stroke-width:0.5}
</style>
 <g id="Notes">
  <rect height="2200" id="artboard" style="fill:white;opacity:1" width="3300" x="0" y="0"/>
  <line style="fill:none;stroke:black;opacity:1;stroke-width:0.5;" x1="263" x2="3036" y1="292" y2="292"/>
  <text style="stroke:none;fill:black;font-family:sans-serif;font-size:13;font-weight:bold;" transform="matrix(1 0 0 1 263 322)">Weight/Scale Variations</text>
  <text style="stroke:none;fill:black;font-family:sans-serif;font-size:13;text-anchor:middle;" transform="matrix(1 0 0 1 559.711 322)">Ultralight</text>
  <text style="stroke:none;fill:black;font-family:sans-serif;font-size:13;text-anchor:middle;" transform="matrix(1 0 0 1 856.422 322)">Thin</text>
  <text style="stroke:none;fill:black;font-family:sans-serif;font-size:13;text-anchor:middle;" transform="matrix(1 0 0 1 1153.13 322)">Light</text>
  <text style="stroke:none;fill:black;font-family:sans-serif;font-size:13;text-anchor:middle;" transform="matrix(1 0 0 1 1449.84 322)">Regular</text>
  <text style="stroke:none;fill:black;font-family:sans-serif;font-size:13;text-anchor:middle;" transform="matrix(1 0 0 1 1746.56 322)">Medium</text>
  <text style="stroke:none;fill:black;font-family:sans-serif;font-size:13;text-anchor:middle;" transform="matrix(1 0 0 1 2043.27 322)">Semibold</text>
  <text style="stroke:none;fill:black;font-family:sans-serif;font-size:13;text-anchor:middle;" transform="matrix(1 0 0 1 2339.98 322)">Bold</text>
  <text style="stroke:none;fill:black;font-family:sans-serif;font-size:13;text-anchor:middle;" transform="matrix(1 0 0 1 2636.69 322)">Heavy</text>
  <text style="stroke:none;fill:black;font-family:sans-serif;font-size:13;text-anchor:middle;" transform="matrix(1 0 0 1 2933.4 322)">Black</text>
  <line style="fill:none;stroke:black;opacity:1;stroke-width:0.5;" x1="263" x2="3036" y1="1903" y2="1903"/>
  <g transform="matrix(0.2 0 0 0.2 263 1933)">
   <path d="m46.2402 4.15039c21.5332 0 39.4531-17.8711 39.4531-39.4043s-17.9688-39.4043-39.502-39.4043c-21.4844 0-39.3555 17.8711-39.3555 39.4043s17.9199 39.4043 39.4043 39.4043Zm0-7.42188c-17.7246 0-31.8848-14.209-31.8848-31.9824s14.1113-31.9824 31.8359-31.9824c17.7734 0 32.0312 14.209 32.0312 31.9824s-14.209 31.9824-31.9824 31.9824Zm-17.9688-31.9824c0 2.14844 1.51367 3.61328 3.75977 3.61328h10.498v10.5957c0 2.19727 1.46484 3.71094 3.61328 3.71094 2.24609 0 3.71094-1.51367 3.71094-3.71094v-10.5957h10.5957c2.19727 0 3.71094-1.46484 3.71094-3.61328 0-2.19727-1.51367-3.71094-3.71094-3.71094h-10.5957v-10.5469c0-2.24609-1.46484-3.75977-3.71094-3.75977-2.14844 0-3.61328 1.51367-3.61328 3.75977v10.5469h-10.498c-2.24609 0-3.75977 1.51367-3.75977 3.71094Z"/>
  </g>
  <g transform="matrix(0.2 0 0 0.2 281.506 1933)">
   <path d="m58.5449 14.5508c27.2461 0 49.8047-22.6074 49.8047-49.8047 0-27.2461-22.6074-49.8047-49.8535-49.8047-27.1973 0-49.7559 22.5586-49.7559 49.8047 0 27.1973 22.6074 49.8047 49.8047 49.8047Zm0-8.30078c-23.0469 0-41.4551-18.457-41.4551-41.5039s18.3594-41.5039 41.4062-41.5039 41.5527 18.457 41.5527 41.5039-18.457 41.5039-41.5039 41.5039Zm-22.6562-41.5039c0 2.39258 1.66016 4.00391 4.15039 4.00391h14.3555v14.4043c0 2.44141 1.66016 4.15039 4.05273 4.15039 2.44141 0 4.15039-1.66016 4.15039-4.15039v-14.4043h14.4043c2.44141 0 4.15039-1.61133 4.15039-4.00391 0-2.44141-1.70898-4.15039-4.15039-4.15039h-14.4043v-14.3555c0-2.49023-1.70898-4.19922-4.15039-4.19922-2.39258 0-4.05273 1.70898-4.05273 4.19922v14.3555h-14.3555c-2.49023 0-4.15039 1.70898-4.15039 4.15039Z"/>
  </g>
  <g transform="matrix(0.2 0 0 0.2 304.924 1933)">
   <path d="m74.8535 28.3203c34.8145 0 63.623-28.8086 63.623-63.5742 0-34.8145-28.8574-63.623-63.6719-63.623-34.7656 0-63.5254 28.8086-63.5254 63.623 0 34.7656 28.8086 63.5742 63.5742 63.5742Zm0-9.08203c-30.1758 0-54.4434-24.3164-54.4434-54.4922 0-30.2246 24.2188-54.4922 54.3945-54.4922 30.2246 0 54.541 24.2676 54.541 54.4922 0 30.1758-24.2676 54.4922-54.4922 54.4922Zm-28.8574-54.4922c0 2.58789 1.85547 4.39453 4.58984 4.39453h19.7266v19.7754c0 2.68555 1.85547 4.58984 4.44336 4.58984 2.68555 0 4.54102-1.85547 4.54102-4.58984v-19.7754h19.7754c2.68555 0 4.58984-1.80664 4.58984-4.39453 0-2.73438-1.85547-4.58984-4.58984-4.58984h-19.7754v-19.7266c0-2.73438-1.85547-4.63867-4.54102-4.63867-2.58789 0-4.44336 1.9043-4.44336 4.63867v19.7266h-19.7266c-2.73438 0-4.58984 1.85547-4.58984 4.58984Z"/>
  </g>
  <text style="stroke:none;fill:black;font-family:sans-serif;font-size:13;font-weight:bold;" transform="matrix(1 0 0 1 263 1953)">Design Variations</text>
  <text style="stroke:none;fill:black;font-family:sans-serif;font-size:13;" transform="matrix(1 0 0 1 263 1971)">Symbols are supported in up to nine weights and three scales.</text>
  <text style="stroke:none;fill:black;font-family:sans-serif;font-size:13;" transform="matrix(1 0 0 1 263 1989)">For optimal layout with text and other symbols, vertically align</text>
  <text style="stroke:none;fill:black;font-family:sans-serif;font-size:13;" transform="matrix(1 0 0 1 263 2007)">symbols with the adjacent text.</text>
  <line style="fill:none;stroke:#00AEEF;stroke-width:0.5;opacity:1.0;" x1="776" x2="776" y1="1919" y2="1933"/>
  <g transform="matrix(0.2 0 0 0.2 776 1933)">
   <path d="m16.5527 0.78125c2.58789 0 3.85742-0.976562 4.78516-3.71094l6.29883-17.2363h28.8086l6.29883 17.2363c0.927734 2.73438 2.19727 3.71094 4.73633 3.71094 2.58789 0 4.24805-1.5625 4.24805-4.00391 0-0.830078-0.146484-1.61133-0.537109-2.63672l-22.9004-60.9863c-1.12305-2.97852-3.125-4.49219-6.25-4.49219-3.02734 0-5.07812 1.46484-6.15234 4.44336l-22.9004 61.084c-0.390625 1.02539-0.537109 1.80664-0.537109 2.63672 0 2.44141 1.5625 3.95508 4.10156 3.95508Zm13.4766-28.3691 11.8652-32.8613h0.244141l11.8652 32.8613Z"/>
  </g>
  <line style="fill:none;stroke:#00AEEF;stroke-width:0.5;opacity:1.0;" x1="792.836" x2="792.836" y1="1919" y2="1933"/>
  <text style="stroke:none;fill:black;font-family:sans-serif;font-size:13;font-weight:bold;" transform="matrix(1 0 0 1 776 1953)">Margins</text>
  <text style="stroke:none;fill:black;font-family:sans-serif;font-size:13;" transform="matrix(1 0 0 1 776 1971)">Leading and trailing margins on the left and right side of each symbol</text>
  <text style="stroke:none;fill:black;font-family:sans-serif;font-size:13;" transform="matrix(1 0 0 1 776 1989)">can be adjusted by modifying the x-location of the margin guidelines.</text>
  <text style="stroke:none;fill:black;font-family:sans-serif;font-size:13;" transform="matrix(1 0 0 1 776 2007)">Modifications are automatically applied proportionally to all</text>
  <text style="stroke:none;fill:black;font-family:sans-serif;font-size:13;" transform="matrix(1 0 0 1 776 2025)">scales and weights.</text>
  <g transform="matrix(0.2 0 0 0.2 1289 1933)">
   <path d="m14.209 9.32617 8.49609 8.54492c4.29688 4.3457 9.22852 4.05273 13.8672-1.07422l53.4668-58.9355-4.83398-4.88281-53.0762 58.3984c-1.75781 2.00195-3.41797 2.49023-5.76172 0.146484l-5.85938-5.81055c-2.34375-2.29492-1.80664-4.00391 0.195312-5.81055l57.373-54.0039-4.88281-4.83398-57.959 54.4434c-4.93164 4.58984-5.32227 9.47266-1.02539 13.8184Zm32.0801-90.9668c-2.09961 2.05078-2.24609 4.93164-1.07422 6.88477 1.17188 1.80664 3.4668 2.97852 6.68945 2.14844 7.32422-1.70898 14.9414-2.00195 22.0703 2.68555l-2.92969 7.27539c-1.70898 4.15039-0.830078 7.08008 1.85547 9.81445l11.4746 11.5723c2.44141 2.44141 4.49219 2.53906 7.32422 2.05078l5.32227-0.976562 3.32031 3.36914-0.195312 2.7832c-0.195312 2.49023 0.439453 4.39453 2.88086 6.78711l3.80859 3.71094c2.39258 2.39258 5.46875 2.53906 7.8125 0.195312l14.5508-14.5996c2.34375-2.34375 2.24609-5.32227-0.146484-7.71484l-3.85742-3.80859c-2.39258-2.39258-4.24805-3.17383-6.64062-2.97852l-2.88086 0.244141-3.22266-3.17383 1.2207-5.61523c0.634766-2.83203-0.146484-5.0293-3.07617-7.95898l-10.9863-10.9375c-16.6992-16.6016-38.8672-16.2109-53.3203-1.75781Zm7.4707 1.85547c12.1582-8.88672 28.6133-7.37305 39.7461 3.75977l12.1582 12.0605c1.17188 1.17188 1.36719 2.09961 1.02539 3.80859l-1.61133 7.42188 7.51953 7.42188 4.93164-0.292969c1.26953-0.0488281 1.66016 0.0488281 2.63672 1.02539l2.88086 2.88086-12.207 12.207-2.88086-2.88086c-0.976562-0.976562-1.12305-1.36719-1.07422-2.68555l0.341797-4.88281-7.4707-7.42188-7.61719 1.26953c-1.61133 0.341797-2.34375 0.195312-3.56445-0.976562l-10.0098-10.0098c-1.26953-1.17188-1.41602-2.00195-0.634766-3.85742l4.39453-10.4492c-7.8125-7.27539-17.9688-10.4004-28.125-7.42188-0.78125 0.195312-1.07422-0.439453-0.439453-0.976562Z"/>
  </g>
  <text style="stroke:none;fill:black;font-family:sans-serif;font-size:13;font-weight:bold;" transform="matrix(1 0 0 1 1289 1953)">Exporting</text>
  <text style="stroke:none;fill:black;font-family:sans-serif;font-size:13;" transform="matrix(1 0 0 1 1289 1971)">Symbols should be outlined when exporting to ensure the</text>
  <text style="stroke:none;fill:black;font-family:sans-serif;font-size:13;" transform="matrix(1 0 0 1 1289 1989)">design is preserved when submitting to Xcode.</text>
  <text id="template-version" style="stroke:none;fill:black;font-family:sans-serif;font-size:13;text-anchor:end;" transform="matrix(1 0 0 1 3036 1933)">Template v.5.0</text>
  <text style="stroke:none;fill:black;font-family:sans-serif;font-size:13;text-anchor:end;" transform="matrix(1 0 0 1 3036 1951)">Requires Xcode 15 or greater</text>
  <text id="descriptive-name" style="stroke:none;fill:black;font-family:sans-serif;font-size:13;text-anchor:end;" transform="matrix(1 0 0 1 3036 1969)">Generated from fiori.sys.find.next</text>
  <text style="stroke:none;fill:black;font-family:sans-serif;font-size:13;text-anchor:end;" transform="matrix(1 0 0 1 3036 1987)">Typeset at 100.0 points</text>
  <text style="stroke:none;fill:black;font-family:sans-serif;font-size:13;" transform="matrix(1 0 0 1 263 726)">Small</text>
  <text style="stroke:none;fill:black;font-family:sans-serif;font-size:13;" transform="matrix(1 0 0 1 263 1156)">Medium</text>
  <text style="stroke:none;fill:black;font-family:sans-serif;font-size:13;" transform="matrix(1 0 0 1 263 1586)">Large</text>
 </g>
 <g id="Guides">
  <g id="H-reference" style="fill:#27AAE1;stroke:none;" transform="matrix(1 0 0 1 339 696)">
   <path d="M0.993654 0L3.63775 0L29.3281-67.1323L30.0303-67.1323L30.0303-70.459L28.1226-70.459ZM11.6885-24.4799L46.9815-24.4799L46.2315-26.7285L12.4385-26.7285ZM55.1196 0L57.7637 0L30.6382-70.459L29.4326-70.459L29.4326-67.1323Z"/>
  </g>
  <line id="Baseline-S" style="fill:none;stroke:#27AAE1;opacity:1;stroke-width:0.5;" x1="263" x2="3036" y1="696" y2="696"/>
  <line id="Capline-S" style="fill:none;stroke:#27AAE1;opacity:1;stroke-width:0.5;" x1="263" x2="3036" y1="625.541" y2="625.541"/>
  <g id="H-reference" style="fill:#27AAE1;stroke:none;" transform="matrix(1 0 0 1 339 1126)">
   <path d="M0.993654 0L3.63775 0L29.3281-67.1323L30.0303-67.1323L30.0303-70.459L28.1226-70.459ZM11.6885-24.4799L46.9815-24.4799L46.2315-26.7285L12.4385-26.7285ZM55.1196 0L57.7637 0L30.6382-70.459L29.4326-70.459L29.4326-67.1323Z"/>
  </g>
  <line id="Baseline-M" style="fill:none;stroke:#27AAE1;opacity:1;stroke-width:0.5;" x1="263" x2="3036" y1="1126" y2="1126"/>
  <line id="Capline-M" style="fill:none;stroke:#27AAE1;opacity:1;stroke-width:0.5;" x1="263" x2="3036" y1="1055.54" y2="1055.54"/>
  <g id="H-reference" style="fill:#27AAE1;stroke:none;" transform="matrix(1 0 0 1 339 1556)">
   <path d="M0.993654 0L3.63775 0L29.3281-67.1323L30.0303-67.1323L30.0303-70.459L28.1226-70.459ZM11.6885-24.4799L46.9815-24.4799L46.2315-26.7285L12.4385-26.7285ZM55.1196 0L57.7637 0L30.6382-70.459L29.4326-70.459L29.4326-67.1323Z"/>
  </g>
  <line id="Baseline-L" style="fill:none;stroke:#27AAE1;opacity:1;stroke-width:0.5;" x1="263" x2="3036" y1="1556" y2="1556"/>
  <line id="Capline-L" style="fill:none;stroke:#27AAE1;opacity:1;stroke-width:0.5;" x1="263" x2="3036" y1="1485.54" y2="1485.54"/>
  <line id="left-margin-Ultralight-S" style="fill:none;stroke:#00AEEF;stroke-width:0.5;opacity:1.0;" x1="515.011" x2="515.011" y1="600.785" y2="720.121"/>
  <line id="right-margin-Ultralight-S" style="fill:none;stroke:#00AEEF;stroke-width:0.5;opacity:1.0;" x1="604.411" x2="604.411" y1="600.785" y2="720.121"/>
  <line id="left-margin-Regular-S" style="fill:none;stroke:#00AEEF;stroke-width:0.5;opacity:1.0;" x1="1403.39" x2="1403.39" y1="600.785" y2="720.121"/>
  <line id="right-margin-Regular-S" style="fill:none;stroke:#00AEEF;stroke-width:0.5;opacity:1.0;" x1="1496.29" x2="1496.29" y1="600.785" y2="720.121"/>
  <line id="left-margin-Black-S" style="fill:none;stroke:#00AEEF;stroke-width:0.5;opacity:1.0;" x1="2884.9" x2="2884.9" y1="600.785" y2="720.121"/>
  <line id="right-margin-Black-S" style="fill:none;stroke:#00AEEF;stroke-width:0.5;opacity:1.0;" x1="2981.9" x2="2981.9" y1="600.785" y2="720.121"/>
 </g>
 <g id="Symbols">
  <g id="Black-S" transform="matrix(1 0 0 1 2884.9 696)">
   <path class="SFSymbolsPreviewWireframe" d="M52.61-28.8C52.91-27.2 53.71-24.4 55.11-22.3C55.91-21.1 57.51-19.8 59.61-19.8C61.01-19.8 62.01-20.2 62.71-20.7C64.61-21.9 66.31-24.9 64.31-28.3C63.81-29.1 63.61-29.6 63.31-31.1C63.21-31.7 63.11-32.1 63.11-32.7C63.11-37.3 67.11-41 71.41-41C75.61-41 79.71-37.5 79.71-32.7C79.71-31.2 79.41-29.8 78.51-28.3C77.01-25.7 77.51-22.4 80.21-20.7C82.11-19.4 85.71-19.2 87.81-22.4C89.91-25 91.01-29.2 91.01-32.7C91.01-35.1 90.41-38 89.51-40.1L89.51-40.1L78.81-68.9C77.01-73.7 72.11-77.8 65.91-77.8C59.71-77.8 54.01-73.2 52.61-67.4C51.71-67.5 51.91-67.5 51.01-67.5L45.71-67.5C44.71-67.5 45.01-67.5 44.31-67.4C42.51-74.3 36.61-77.8 31.01-77.8C24.81-77.8 19.91-73.7 18.11-68.9C18.11-68.9 6.81-38.6 6.81-38.6C6.21-36.9 5.81-34.6 5.81-32.7C5.81-22.9 14.01-13.3 25.21-13.3C36.41-13.3 44.61-23 44.61-32.7C44.61-32.8 44.61-33.4 44.61-33.4C44.61-35.6 46.41-37.1 48.31-37.1C50.21-37.1 52.01-35.5 52.01-33.3C52.21-33.2 52.41-30 52.61-28.8ZM63.31-64.1C63.31-65.3 64.21-66.8 66.01-66.8C66.91-66.8 68.11-66.2 68.51-65.1L73.31-52.1C72.51-52.2 72.41-52.2 71.71-52.2C68.91-52.1 66.31-51.7 63.41-50.2L63.41-64.1ZM28.61-65C29.01-66 29.91-66.7 31.11-66.7C32.21-66.7 33.81-65.8 33.81-64L33.81-50.1C31.01-51.6 27.61-52.1 25.51-52.1C24.51-52.1 24.31-52.1 23.81-52L28.61-65ZM25.41-24.3C20.91-24.3 17.11-28.1 17.11-32.6C17.11-33.7 17.31-34.8 17.81-35.8C17.81-35.8 17.81-35.8 17.81-35.8C19.11-38.8 22.11-40.9 25.51-40.9C30.01-40.9 33.81-37.1 33.81-32.6C33.71-28.2 29.91-24.3 25.41-24.3ZM48.51-48.1C46.71-48.1 45.91-47.9 44.81-47.6L44.81-55.2C44.81-55.9 45.41-56.4 46.01-56.4L51.01-56.4C51.41-56.4 52.21-56.1 52.21-55.2L52.21-47.6C50.61-48 50.31-48.1 48.51-48.1ZM85.51-17.6L77.21-17.6L77.21-26C77.21-29.1 74.71-31.5 71.71-31.5C68.91-31.5 66.21-29.4 66.21-26L66.21-17.7L57.91-17.7C54.61-17.7 52.41-15 52.41-12.2C52.41-9.1 55.01-6.7 57.91-6.7L66.21-6.7L66.21 1.6C66.21 4.5 68.51 7.1 71.71 7.1C74.51 7.1 77.21 4.9 77.21 1.6L77.21-6.7L85.51-6.7C88.71-6.7 91.01-9.4 91.01-12.2C91.01-14.9 88.91-17.6 85.51-17.6Z"/>
  </g>
  <g id="Regular-S" transform="matrix(1 0 0 1 1403.39 696)">
   <path class="SFSymbolsPreviewWireframe" d="M52.06-29.1C52.36-27.5 52.96-25.2 54.36-23C55.16-21.8 56.46-21.1 57.86-21.1C58.66-21.1 59.36-21.3 60.06-21.8C61.96-23 62.46-25.6 61.26-27.5C60.76-28.3 60.36-29.3 60.06-30.8C59.96-31.4 59.86-32.1 59.86-32.7C59.86-38 64.36-42.5 69.66-42.5C74.96-42.5 79.46-38 79.46-32.7C79.46-30.7 78.96-29 78.06-27.5C76.86-25.6 77.36-23 79.26-21.8C81.16-20.6 83.76-21.1 84.96-23C86.76-25.8 87.66-29.1 87.66-32.6C87.66-35 87.16-37.4 86.26-39.5L86.26-39.5L75.46-68.4C73.66-73.2 69.06-76.4 63.96-76.4C57.76-76.4 52.56-71.8 51.76-65.8C50.86-66 49.96-66.1 48.96-66.1L43.96-66.1C42.96-66.1 42.06-66 41.16-65.7C40.36-71.7 35.16-76.3 28.96-76.3C23.86-76.3 19.26-73.1 17.46-68.3C17.46-68.3 6.16-38.1 6.16-38C5.56-36.3 5.26-34.5 5.26-32.6C5.26-22.8 13.46-14.6 23.26-14.6C33.06-14.6 41.26-22.8 41.26-32.6C41.26-32.7 41.26-33.3 41.26-33.3C41.26-36.1 43.56-38.4 46.36-38.4C49.16-38.4 51.46-36.1 51.46-33.2C51.66-33.2 51.76-30.3 52.06-29.1ZM59.86-64.1C59.86-66.3 61.66-68.2 63.96-68.2C65.66-68.2 67.16-67.1 67.76-65.5L73.46-50.2C72.26-50.5 70.96-50.6 69.66-50.6C66.06-50.6 62.76-49.5 59.86-47.6L59.86-64.1ZM25.26-65.5C25.86-67.1 27.36-68.2 29.06-68.2C31.26-68.2 33.16-66.4 33.16-64.1L33.16-47.7C30.36-49.6 26.96-50.7 23.36-50.7C22.06-50.7 20.76-50.5 19.56-50.3L25.26-65.5ZM23.36-22.9C18.06-22.9 13.56-27.4 13.56-32.7C13.56-34 13.86-35.3 14.36-36.4C14.36-36.4 14.36-36.4 14.36-36.4C15.86-39.9 19.36-42.4 23.36-42.4C28.66-42.4 33.16-37.9 33.16-32.6C33.16-27.4 28.66-22.9 23.36-22.9ZM46.46-46.7C44.66-46.7 42.86-46.3 41.36-45.7L41.36-55.2C41.36-56.7 42.56-57.8 43.96-57.8L48.96-57.8C50.46-57.8 51.56-56.6 51.56-55.2L51.56-45.7C50.06-46.3 48.36-46.7 46.46-46.7ZM83.46-16.2L73.66-16.2L73.66-26C73.66-28.3 71.86-30.1 69.56-30.1C67.26-30.1 65.46-28.3 65.46-26L65.46-16.2L55.66-16.2C53.36-16.2 51.56-14.4 51.56-12.1C51.56-9.8 53.46-8 55.76-8L65.56-8L65.56 1.8C65.56 4.1 67.36 5.9 69.66 5.9C71.96 5.9 73.76 4.1 73.76 1.8L73.76-8L83.56-8C85.86-8 87.66-9.8 87.66-12.1C87.66-14.4 85.76-16.2 83.46-16.2Z"/>
  </g>
  <g id="Ultralight-S" transform="matrix(1 0 0 1 515.011 696)">
   <path class="SFSymbolsPreviewWireframe" d="M53.075-29.7C53.375-28.1 53.775-26.8 54.975-24.6C55.275-24.1 55.675-24 56.075-24C56.375-24 56.575-24 56.775-24.2C57.275-24.6 57.575-25.3 57.175-26C56.575-26.9 55.875-28.8 55.575-30.2C55.475-30.8 55.275-32.1 55.275-32.7C55.275-39.6 61.175-45.3 67.875-45.3C74.475-45.3 80.475-39.7 80.475-32.7C80.475-30.7 80.075-28 78.575-26C78.175-25.5 78.275-24.7 78.975-24.2C79.575-23.8 80.275-23.9 80.775-24.6C81.875-26.2 83.075-29.1 83.075-32.7C83.075-35.1 82.675-36.7 81.775-38.8L81.575-39.4L71.175-67.4C69.575-71.6 65.775-73.6 62.275-73.6C56.775-73.6 52.775-69.8 52.475-62.2C51.575-62.4 49.175-63.3 47.375-63.3L42.375-63.3C40.775-63.3 38.075-62.4 37.275-62.2C37.175-68.5 33.675-73.6 27.475-73.6C23.975-73.6 20.175-71.5 18.575-67.4C18.575-67.4 7.375-37.3 7.375-37.2C6.775-35.5 6.675-34.7 6.675-32.9C6.675-24.9 13.275-17.5 21.875-17.5C29.575-17.5 37.075-24 37.075-32.7C37.075-32.8 37.075-33.4 37.075-33.4C37.075-37.7 40.475-41.4 45.075-41.4C49.175-41.4 53.075-38.2 53.075-33.5C52.675-33.3 52.775-30.8 53.075-29.7ZM55.275-64.1C55.275-68.3 58.675-71 62.175-71C66.075-71 68.075-68.1 68.675-66.5L76.175-46.3C74.875-46.7 72.875-47.5 71.075-47.7C66.675-48.2 63.175-48.6 55.275-42.4L55.275-64.1ZM20.875-66.5C21.475-68.1 23.275-71 27.375-71C31.575-71 34.275-67.6 34.275-64.1L34.275-42.4C31.575-44.2 27.875-47.9 21.975-48.2C18.775-48.3 14.575-46.8 13.375-46.3L20.875-66.5ZM21.575-20.1C14.775-20.1 8.975-25.9 8.975-32.7C8.975-34.4 9.375-36 9.975-37.5C9.975-37.5 9.975-37.5 9.975-37.6C11.875-42.1 16.475-45.3 21.575-45.3C28.375-45.3 34.175-39.5 34.175-32.7C34.175-25.9 28.475-20.1 21.575-20.1ZM44.775-43.9C41.475-43.9 38.375-42.1 36.775-41.4L36.775-55.2C36.775-58.6 39.775-60.7 42.275-60.7L47.075-60.7C50.075-60.7 52.775-58.6 52.775-55.2L52.775-41.4C51.175-42.1 48.275-43.9 44.775-43.9ZM81.775-13.4L69.175-13.4L69.175-26C69.175-26.8 68.575-27.3 67.875-27.3C67.275-27.3 66.575-26.9 66.575-26L66.575-13.4L53.975-13.4C53.375-13.4 52.675-12.9 52.675-12.1C52.675-11.4 53.275-10.8 53.975-10.8L66.575-10.8L66.575 1.8C66.575 2.3 66.975 3 67.875 3C68.575 3 69.175 2.5 69.175 1.7L69.175-10.9L81.775-10.9C82.475-10.9 83.075-11.4 83.075-12.2C83.075-12.8 82.475-13.4 81.775-13.4Z"/>
  </g>
 </g>
</svg>
