<?xml version="1.0" encoding="UTF-8"?>
<!--Generator: Apple Native CoreSVG 341-->
<!DOCTYPE svg
PUBLIC "-//W3C//DTD SVG 1.1//EN"
       "http://www.w3.org/Graphics/SVG/1.1/DTD/svg11.dtd">
<svg version="1.1" xmlns="http://www.w3.org/2000/svg" xmlns:xlink="http://www.w3.org/1999/xlink" viewBox="0 0 3300 2200">
 <!--glyph: "", point size: 100.0, font version: "21.0d4e1", template writer version: "138.0.0"-->
 <style>.defaults {-sfsymbols-draw-reverses-motion-groups:true}

.monochrome-0 {-sfsymbols-motion-group:1;-sfsymbols-layer-tags:-219ab0b6503f743c}
.monochrome-1 {-sfsymbols-motion-group:0;-sfsymbols-layer-tags:-219ab0b6503f743c}

.multicolor-0:tintColor {-sfsymbols-motion-group:1;-sfsymbols-layer-tags:-219ab0b6503f743c}
.multicolor-1:tintColor {-sfsymbols-motion-group:0;-sfsymbols-layer-tags:-219ab0b6503f743c}

.hierarchical-0:primary {-sfsymbols-motion-group:1;-sfsymbols-layer-tags:-219ab0b6503f743c}
.hierarchical-1:primary {-sfsymbols-motion-group:0;-sfsymbols-layer-tags:-219ab0b6503f743c}

.SFSymbolsPreviewWireframe {fill:none;opacity:1.0;stroke:black;stroke-width:0.5}
</style>
 <g id="Notes">
  <rect height="2200" id="artboard" style="fill:white;opacity:1" width="3300" x="0" y="0"/>
  <line style="fill:none;stroke:black;opacity:1;stroke-width:0.5;" x1="263" x2="3036" y1="292" y2="292"/>
  <text style="stroke:none;fill:black;font-family:sans-serif;font-size:13;font-weight:bold;" transform="matrix(1 0 0 1 263 322)">Weight/Scale Variations</text>
  <text style="stroke:none;fill:black;font-family:sans-serif;font-size:13;text-anchor:middle;" transform="matrix(1 0 0 1 559.711 322)">Ultralight</text>
  <text style="stroke:none;fill:black;font-family:sans-serif;font-size:13;text-anchor:middle;" transform="matrix(1 0 0 1 856.422 322)">Thin</text>
  <text style="stroke:none;fill:black;font-family:sans-serif;font-size:13;text-anchor:middle;" transform="matrix(1 0 0 1 1153.13 322)">Light</text>
  <text style="stroke:none;fill:black;font-family:sans-serif;font-size:13;text-anchor:middle;" transform="matrix(1 0 0 1 1449.84 322)">Regular</text>
  <text style="stroke:none;fill:black;font-family:sans-serif;font-size:13;text-anchor:middle;" transform="matrix(1 0 0 1 1746.56 322)">Medium</text>
  <text style="stroke:none;fill:black;font-family:sans-serif;font-size:13;text-anchor:middle;" transform="matrix(1 0 0 1 2043.27 322)">Semibold</text>
  <text style="stroke:none;fill:black;font-family:sans-serif;font-size:13;text-anchor:middle;" transform="matrix(1 0 0 1 2339.98 322)">Bold</text>
  <text style="stroke:none;fill:black;font-family:sans-serif;font-size:13;text-anchor:middle;" transform="matrix(1 0 0 1 2636.69 322)">Heavy</text>
  <text style="stroke:none;fill:black;font-family:sans-serif;font-size:13;text-anchor:middle;" transform="matrix(1 0 0 1 2933.4 322)">Black</text>
  <line style="fill:none;stroke:black;opacity:1;stroke-width:0.5;" x1="263" x2="3036" y1="1903" y2="1903"/>
  <g transform="matrix(0.2 0 0 0.2 263 1933)">
   <path d="m46.2402 4.15039c21.7773 0 39.4531-17.627 39.4531-39.4043s-17.6758-39.4043-39.4531-39.4043c-21.7285 0-39.4043 17.627-39.4043 39.4043s17.6758 39.4043 39.4043 39.4043Zm0-7.42188c-17.6758 0-31.9336-14.3066-31.9336-31.9824s14.2578-31.9824 31.9336-31.9824 31.9824 14.3066 31.9824 31.9824-14.3066 31.9824-31.9824 31.9824Zm3.61328-17.7734v-28.4668c0-2.24609-1.46484-3.75977-3.71094-3.75977-2.14844 0-3.61328 1.51367-3.61328 3.75977v28.4668c0 2.19727 1.46484 3.71094 3.61328 3.71094 2.24609 0 3.71094-1.51367 3.71094-3.71094Zm-17.8223-10.5957h28.418c2.19727 0 3.71094-1.46484 3.71094-3.61328 0-2.19727-1.51367-3.71094-3.71094-3.71094h-28.418c-2.24609 0-3.75977 1.51367-3.75977 3.71094 0 2.14844 1.51367 3.61328 3.75977 3.61328Z"/>
  </g>
  <g transform="matrix(0.2 0 0 0.2 281.506 1933)">
   <path d="m58.5449 14.5508c27.4902 0 49.8047-22.3145 49.8047-49.8047s-22.3145-49.8047-49.8047-49.8047-49.8047 22.3145-49.8047 49.8047 22.3145 49.8047 49.8047 49.8047Zm0-8.30078c-22.9492 0-41.5039-18.5547-41.5039-41.5039s18.5547-41.5039 41.5039-41.5039 41.5039 18.5547 41.5039 41.5039-18.5547 41.5039-41.5039 41.5039Zm4.05273-23.0957v-36.9141c0-2.49023-1.70898-4.19922-4.15039-4.19922-2.39258 0-4.05273 1.70898-4.05273 4.19922v36.9141c0 2.44141 1.66016 4.15039 4.05273 4.15039 2.44141 0 4.15039-1.66016 4.15039-4.15039Zm-22.5586-14.4043h36.9629c2.44141 0 4.15039-1.61133 4.15039-4.00391 0-2.44141-1.70898-4.15039-4.15039-4.15039h-36.9629c-2.49023 0-4.15039 1.70898-4.15039 4.15039 0 2.39258 1.66016 4.00391 4.15039 4.00391Z"/>
  </g>
  <g transform="matrix(0.2 0 0 0.2 304.924 1933)">
   <path d="m74.8535 28.3203c35.1074 0 63.623-28.4668 63.623-63.5742s-28.5156-63.623-63.623-63.623-63.5742 28.5156-63.5742 63.623 28.4668 63.5742 63.5742 63.5742Zm0-9.08203c-30.127 0-54.4922-24.3652-54.4922-54.4922s24.3652-54.4922 54.4922-54.4922 54.4922 24.3652 54.4922 54.4922-24.3652 54.4922-54.4922 54.4922Zm4.44336-30.3223v-48.4863c0-2.73438-1.85547-4.63867-4.54102-4.63867-2.58789 0-4.44336 1.9043-4.44336 4.63867v48.4863c0 2.68555 1.85547 4.58984 4.44336 4.58984 2.68555 0 4.54102-1.85547 4.54102-4.58984Zm-28.7109-19.7754h48.4863c2.68555 0 4.58984-1.80664 4.58984-4.39453 0-2.73438-1.85547-4.58984-4.58984-4.58984h-48.4863c-2.73438 0-4.58984 1.85547-4.58984 4.58984 0 2.58789 1.85547 4.39453 4.58984 4.39453Z"/>
  </g>
  <text style="stroke:none;fill:black;font-family:sans-serif;font-size:13;font-weight:bold;" transform="matrix(1 0 0 1 263 1953)">Design Variations</text>
  <text style="stroke:none;fill:black;font-family:sans-serif;font-size:13;" transform="matrix(1 0 0 1 263 1971)">Symbols are supported in up to nine weights and three scales.</text>
  <text style="stroke:none;fill:black;font-family:sans-serif;font-size:13;" transform="matrix(1 0 0 1 263 1989)">For optimal layout with text and other symbols, vertically align</text>
  <text style="stroke:none;fill:black;font-family:sans-serif;font-size:13;" transform="matrix(1 0 0 1 263 2007)">symbols with the adjacent text.</text>
  <line style="fill:none;stroke:#00AEEF;stroke-width:0.5;opacity:1.0;" x1="776" x2="776" y1="1919" y2="1933"/>
  <g transform="matrix(0.2 0 0 0.2 776 1933)">
   <path d="m16.5527 0.78125c2.58789 0 3.85742-0.976562 4.78516-3.71094l20.5566-57.5195h0.244141l20.6055 57.5195c0.927734 2.73438 2.19727 3.71094 4.73633 3.71094 2.58789 0 4.24805-1.5625 4.24805-4.00391 0-0.830078-0.146484-1.61133-0.537109-2.63672l-22.9004-60.9863c-1.12305-2.97852-3.125-4.49219-6.25-4.49219-3.02734 0-5.07812 1.46484-6.15234 4.44336l-22.9004 61.084c-0.390625 1.02539-0.537109 1.80664-0.537109 2.63672 0 2.44141 1.5625 3.95508 4.10156 3.95508Zm10.2051-20.9473h30.6641c2.00195 0 3.66211-1.66016 3.66211-3.66211 0-2.05078-1.66016-3.66211-3.66211-3.66211h-30.6641c-2.00195 0-3.66211 1.61133-3.66211 3.66211 0 2.00195 1.66016 3.66211 3.66211 3.66211Z"/>
  </g>
  <line style="fill:none;stroke:#00AEEF;stroke-width:0.5;opacity:1.0;" x1="792.836" x2="792.836" y1="1919" y2="1933"/>
  <text style="stroke:none;fill:black;font-family:sans-serif;font-size:13;font-weight:bold;" transform="matrix(1 0 0 1 776 1953)">Margins</text>
  <text style="stroke:none;fill:black;font-family:sans-serif;font-size:13;" transform="matrix(1 0 0 1 776 1971)">Leading and trailing margins on the left and right side of each symbol</text>
  <text style="stroke:none;fill:black;font-family:sans-serif;font-size:13;" transform="matrix(1 0 0 1 776 1989)">can be adjusted by modifying the x-location of the margin guidelines.</text>
  <text style="stroke:none;fill:black;font-family:sans-serif;font-size:13;" transform="matrix(1 0 0 1 776 2007)">Modifications are automatically applied proportionally to all</text>
  <text style="stroke:none;fill:black;font-family:sans-serif;font-size:13;" transform="matrix(1 0 0 1 776 2025)">scales and weights.</text>
  <g transform="matrix(0.2 0 0 0.2 1289 1933)">
   <path d="m14.209 13.1348 7.86133 7.86133c4.29688 4.39453 9.32617 4.10156 13.8672-1.02539l60.6934-68.2129-4.88281-4.88281-60.2539 67.6758c-1.80664 1.95312-3.4668 2.44141-5.81055 0.0976562l-5.17578-5.12695c-2.29492-2.29492-1.80664-3.95508 0.195312-5.81055l67.4805-62.1582-4.88281-4.83398-68.0664 62.5977c-4.98047 4.58984-5.32227 9.47266-1.02539 13.8184Zm44.873-97.4609c-2.05078 2.00195-2.24609 4.88281-1.07422 6.78711 1.12305 1.80664 3.4668 3.02734 6.5918 2.24609 5.85938-1.66016 12.5977-2.39258 18.8965 0.927734l-2.68555 7.12891c-1.61133 4.00391-0.732422 6.88477 1.70898 9.42383l10.2539 10.3027c2.34375 2.39258 4.54102 2.44141 7.08008 1.95312l4.44336-0.732422 2.58789 2.53906-0.195312 2.24609c-0.0976562 2.29492 0.537109 4.29688 2.7832 6.49414l3.36914 3.32031c2.29492 2.29492 5.51758 2.49023 7.8125 0.195312l12.9883-13.0371c2.29492-2.34375 2.14844-5.37109-0.195312-7.66602l-3.41797-3.41797c-2.19727-2.19727-4.05273-3.02734-6.34766-2.88086l-2.34375 0.244141-2.44141-2.44141 1.02539-4.6875c0.634766-2.73438-0.244141-4.98047-2.88086-7.61719l-11.2793-11.1816c-12.9395-12.8418-35.5957-11.0352-46.6797-0.146484Zm7.08008 2.05078c8.78906-6.39648 25.9766-5.66406 33.6914 1.95312l12.3047 12.207c1.02539 1.02539 1.2207 1.80664 0.927734 3.32031l-1.46484 6.64062 6.73828 6.68945 4.39453-0.244141c1.12305-0.0488281 1.51367 0.0488281 2.34375 0.878906l2.53906 2.49023-10.8398 10.8398-2.49023-2.49023c-0.830078-0.878906-0.976562-1.2207-0.927734-2.39258l0.292969-4.3457-6.68945-6.73828-6.83594 1.17188c-1.41602 0.292969-2.05078 0.195312-3.17383-0.878906l-8.93555-8.88672c-1.07422-1.02539-1.17188-1.70898-0.488281-3.36914l4.58984-11.4746c-6.10352-6.34766-17.041-7.51953-25.5859-4.58984-0.683594 0.244141-0.927734-0.390625-0.390625-0.78125Z"/>
  </g>
  <text style="stroke:none;fill:black;font-family:sans-serif;font-size:13;font-weight:bold;" transform="matrix(1 0 0 1 1289 1953)">Exporting</text>
  <text style="stroke:none;fill:black;font-family:sans-serif;font-size:13;" transform="matrix(1 0 0 1 1289 1971)">Symbols should be outlined when exporting to ensure the</text>
  <text style="stroke:none;fill:black;font-family:sans-serif;font-size:13;" transform="matrix(1 0 0 1 1289 1989)">design is preserved when submitting to Xcode.</text>
  <text id="template-version" style="stroke:none;fill:black;font-family:sans-serif;font-size:13;text-anchor:end;" transform="matrix(1 0 0 1 3036 1933)">Template v.5.0</text>
  <text style="stroke:none;fill:black;font-family:sans-serif;font-size:13;text-anchor:end;" transform="matrix(1 0 0 1 3036 1951)">Requires Xcode 15 or greater</text>
  <text id="descriptive-name" style="stroke:none;fill:black;font-family:sans-serif;font-size:13;text-anchor:end;" transform="matrix(1 0 0 1 3036 1969)">Generated from fiori.burglary</text>
  <text style="stroke:none;fill:black;font-family:sans-serif;font-size:13;text-anchor:end;" transform="matrix(1 0 0 1 3036 1987)">Typeset at 100.0 points</text>
  <text style="stroke:none;fill:black;font-family:sans-serif;font-size:13;" transform="matrix(1 0 0 1 263 726)">Small</text>
  <text style="stroke:none;fill:black;font-family:sans-serif;font-size:13;" transform="matrix(1 0 0 1 263 1156)">Medium</text>
  <text style="stroke:none;fill:black;font-family:sans-serif;font-size:13;" transform="matrix(1 0 0 1 263 1586)">Large</text>
 </g>
 <g id="Guides">
  <g id="H-reference" style="fill:#27AAE1;stroke:none;" transform="matrix(1 0 0 1 339 696)">
   <path d="M0.993654 0L3.63775 0L29.3281-67.1323L30.0303-67.1323L30.0303-70.459L28.1226-70.459ZM11.6885-24.4799L46.9815-24.4799L46.2315-26.7285L12.4385-26.7285ZM55.1196 0L57.7637 0L30.6382-70.459L29.4326-70.459L29.4326-67.1323Z"/>
  </g>
  <line id="Baseline-S" style="fill:none;stroke:#27AAE1;opacity:1;stroke-width:0.5;" x1="263" x2="3036" y1="696" y2="696"/>
  <line id="Capline-S" style="fill:none;stroke:#27AAE1;opacity:1;stroke-width:0.5;" x1="263" x2="3036" y1="625.541" y2="625.541"/>
  <g id="H-reference" style="fill:#27AAE1;stroke:none;" transform="matrix(1 0 0 1 339 1126)">
   <path d="M0.993654 0L3.63775 0L29.3281-67.1323L30.0303-67.1323L30.0303-70.459L28.1226-70.459ZM11.6885-24.4799L46.9815-24.4799L46.2315-26.7285L12.4385-26.7285ZM55.1196 0L57.7637 0L30.6382-70.459L29.4326-70.459L29.4326-67.1323Z"/>
  </g>
  <line id="Baseline-M" style="fill:none;stroke:#27AAE1;opacity:1;stroke-width:0.5;" x1="263" x2="3036" y1="1126" y2="1126"/>
  <line id="Capline-M" style="fill:none;stroke:#27AAE1;opacity:1;stroke-width:0.5;" x1="263" x2="3036" y1="1055.54" y2="1055.54"/>
  <g id="H-reference" style="fill:#27AAE1;stroke:none;" transform="matrix(1 0 0 1 339 1556)">
   <path d="M0.993654 0L3.63775 0L29.3281-67.1323L30.0303-67.1323L30.0303-70.459L28.1226-70.459ZM11.6885-24.4799L46.9815-24.4799L46.2315-26.7285L12.4385-26.7285ZM55.1196 0L57.7637 0L30.6382-70.459L29.4326-70.459L29.4326-67.1323Z"/>
  </g>
  <line id="Baseline-L" style="fill:none;stroke:#27AAE1;opacity:1;stroke-width:0.5;" x1="263" x2="3036" y1="1556" y2="1556"/>
  <line id="Capline-L" style="fill:none;stroke:#27AAE1;opacity:1;stroke-width:0.5;" x1="263" x2="3036" y1="1485.54" y2="1485.54"/>
  <line id="right-margin-Black-S" style="fill:none;stroke:#00AEEF;stroke-width:0.5;opacity:1.0;" x1="2981.9" x2="2981.9" y1="600.785" y2="720.121"/>
  <line id="left-margin-Black-S" style="fill:none;stroke:#00AEEF;stroke-width:0.5;opacity:1.0;" x1="2884.9" x2="2884.9" y1="600.785" y2="720.121"/>
  <line id="right-margin-Regular-S" style="fill:none;stroke:#00AEEF;stroke-width:0.5;opacity:1.0;" x1="1496.29" x2="1496.29" y1="600.785" y2="720.121"/>
  <line id="left-margin-Regular-S" style="fill:none;stroke:#00AEEF;stroke-width:0.5;opacity:1.0;" x1="1403.39" x2="1403.39" y1="600.785" y2="720.121"/>
  <line id="right-margin-Ultralight-S" style="fill:none;stroke:#00AEEF;stroke-width:0.5;opacity:1.0;" x1="604.411" x2="604.411" y1="600.785" y2="720.121"/>
  <line id="left-margin-Ultralight-S" style="fill:none;stroke:#00AEEF;stroke-width:0.5;opacity:1.0;" x1="515.011" x2="515.011" y1="600.785" y2="720.121"/>
 </g>
 <g id="Symbols">
  <g id="Black-S" transform="matrix(1 0 0 1 2884.9 696)">
   <path class="monochrome-0 multicolor-0:tintColor hierarchical-0:primary SFSymbolsPreviewWireframe" d="M46.31-47.9C45.01-47.9 43.81-48.4 42.81-49.4L33.71-58.5C31.81-60.4 31.81-63.6 33.71-65.5C35.61-67.4 38.81-67.4 40.71-65.5L49.81-56.4C51.71-54.5 51.71-51.3 49.81-49.4C48.81-48.4 47.51-47.9 46.31-47.9ZM31.31-32.5C30.11-32.5 28.81-33 27.91-33.9L18.31-43C16.31-44.9 16.31-48 18.11-50C20.01-52 23.11-52 25.11-50.2L34.61-41.1C36.61-39.2 36.61-36.1 34.81-34.1C33.91-33 32.61-32.5 31.31-32.5ZM43.71-3.6L21.41-3.6C13.71-3.6 6.51-9.8 6.51-18.5C6.51-21.2 8.81-23.5 11.51-23.5C14.61-23.5 16.51-20.8 16.51-18.5C16.51-16.3 18.21-13.6 21.41-13.6L43.71-13.6C47.01-13.6 48.71-10.9 48.71-8.6C48.71-6.3 47.01-3.6 43.71-3.6ZM11.51-29.3C8.81-29.3 6.51-31.5 6.51-34.3L6.51-46.6C6.51-49.3 8.71-51.6 11.51-51.6C14.31-51.6 16.51-49.4 16.51-46.6L16.51-34.3C16.41-31.5 14.21-29.3 11.51-29.3ZM70.11-39.6C66.81-39.6 65.11-42.3 65.11-44.6L65.11-62.4C65.11-64.7 63.41-67.3 60.21-67.3L21.81-67.3C19.31-67.3 16.51-65.4 16.51-62C16.51-59.7 14.81-57 11.51-57C8.41-57 6.51-59.7 6.51-62C6.51-69.9 12.71-77.2 21.71-77.2L60.11-77.2C68.71-77.2 75.01-70.1 75.01-62.3L75.01-44.5C75.01-42.3 73.21-39.6 70.11-39.6ZM56.31 6.7C53.21 6.7 49.51 5.2 47.31 2.9L25.81-18.7C23.21-21.3 22.11-24 22.01-27.1C21.91-30.4 23.11-33.9 25.71-36.5L47.41-58.3C47.51-58.4 47.61-58.5 47.61-58.5C53.01-63.3 61.01-62.3 64.81-58.5C64.91-58.4 65.01-58.3 65.01-58.3L86.61-36.6C88.81-34.6 90.41-31.6 90.41-28.2C90.41-24.2 89.01-21.1 86.71-18.8L65.11 2.9C63.11 5.1 59.81 6.6 56.71 6.7C56.61 6.7 56.51 6.7 56.31 6.7ZM46.41-37.6C40.91-31.7 40.81-23.1 46.31-17.9C52.01-12.5 60.61-12.4 66.01-17.8L66.01-17.8C68.71-20.5 70.21-24.2 70.11-28C70.11-31.6 68.61-35 66.11-37.4C60.41-42.9 51.81-42.9 46.41-37.6Z"/>
   <path class="monochrome-1 multicolor-1:tintColor hierarchical-1:primary SFSymbolsPreviewWireframe" d="M56.21-19C51.51-19 47.61-22.8 47.61-27.6C47.61-32.3 51.41-36.2 56.21-36.2C60.91-36.2 64.81-32.4 64.81-27.6C64.81-22.8 60.91-19 56.21-19Z"/>
  </g>
  <g id="Regular-S" transform="matrix(1 0 0 1 1403.39 696)">
   <path class="monochrome-0 multicolor-0:tintColor hierarchical-0:primary SFSymbolsPreviewWireframe" d="M44.26-48.8C43.16-48.8 42.16-49.2 41.36-50L32.26-59.1C30.66-60.7 30.66-63.3 32.26-64.9C33.86-66.5 36.46-66.5 38.06-64.9L47.16-55.8C48.76-54.2 48.76-51.6 47.16-50C46.36-49.2 45.36-48.8 44.26-48.8ZM29.26-33.3C28.26-33.3 27.26-33.7 26.46-34.4L16.96-43.6C15.36-45.2 15.26-47.8 16.86-49.4C18.46-51 21.06-51.1 22.66-49.5L32.16-40.4C33.76-38.8 33.86-36.2 32.26-34.6C31.46-33.8 30.36-33.3 29.26-33.3ZM41.76-4.4L19.36-4.4C11.66-4.4 5.36-10.7 5.36-18.4C5.36-20.7 7.16-22.5 9.46-22.5C11.76-22.5 13.56-20.7 13.56-18.4C13.56-15.2 16.16-12.6 19.36-12.6L41.66-12.6C43.96-12.6 45.76-10.8 45.76-8.5C45.76-6.2 43.96-4.4 41.76-4.4ZM9.46-30.1C7.16-30.1 5.36-31.9 5.36-34.2L5.36-46.5C5.36-48.8 7.16-50.6 9.46-50.6C11.76-50.6 13.56-48.8 13.56-46.5L13.56-34.2C13.56-32 11.76-30.1 9.46-30.1ZM68.06-40.4C65.76-40.4 63.96-42.2 63.96-44.5L63.96-62.3C63.96-65.5 61.36-68.1 58.16-68.1L19.76-68.1C16.36-68.1 13.56-65.3 13.56-61.9C13.56-59.6 11.76-57.8 9.46-57.8C7.16-57.8 5.36-59.7 5.36-62C5.36-69.9 11.86-76.4 19.76-76.4L58.16-76.4C65.86-76.4 72.16-70.1 72.16-62.4L72.16-44.6C72.16-42.3 70.36-40.4 68.06-40.4ZM54.36 5.9C51.26 5.9 48.16 4.6 45.96 2.4L24.36-19.3C22.16-21.3 20.86-24.1 20.76-27.1C20.66-30.4 21.96-33.6 24.26-35.9L45.96-57.7C46.06-57.8 46.06-57.8 46.16-57.9C50.76-61.9 57.66-61.9 62.26-57.9C62.36-57.8 62.36-57.8 62.46-57.7L84.06-36C86.26-34 87.56-31.2 87.66-28.2C87.76-24.9 86.46-21.7 84.16-19.4L62.56 2.3C60.56 4.5 57.86 5.8 54.76 5.9C54.66 5.9 54.46 5.9 54.36 5.9ZM43.86-38.2C37.96-32 37.96-22.8 43.76-17.3C49.76-11.5 58.96-11.5 64.66-17.2L64.66-17.2C67.46-20 69.06-24 68.96-28.1C68.96-32 67.36-35.5 64.66-38.1C58.66-43.8 49.56-43.9 43.86-38.2Z"/>
   <path class="monochrome-1 multicolor-1:tintColor hierarchical-1:primary SFSymbolsPreviewWireframe" d="M54.26-19.8C49.96-19.8 46.56-23.3 46.56-27.5C46.56-31.8 50.06-35.2 54.26-35.2C58.56-35.2 61.96-31.7 61.96-27.5C61.96-23.3 58.46-19.8 54.26-19.8Z"/>
  </g>
  <g id="Ultralight-S" transform="matrix(1 0 0 1 515.011 696)">
   <path class="monochrome-0 multicolor-0:tintColor hierarchical-0:primary SFSymbolsPreviewWireframe" d="M43.675-50.5C43.375-50.5 42.975-50.6 42.775-50.9L32.575-61.1C32.075-61.6 32.075-62.4 32.575-62.9C33.075-63.4 33.875-63.4 34.375-62.9L44.575-52.7C45.075-52.2 45.075-51.4 44.575-50.9C44.275-50.6 43.975-50.5 43.675-50.5ZM28.675-35C28.375-35 28.075-35.1 27.775-35.4L17.175-45.6C16.675-46.1 16.675-46.9 17.175-47.4C17.675-47.9 18.475-47.9 18.975-47.4L29.675-37.2C30.175-36.7 30.175-35.9 29.675-35.4C29.375-35.2 28.975-35 28.675-35ZM39.975-7.2L17.675-7.2C11.875-7.2 6.475-12 6.475-18.4C6.475-19.2 7.175-19.7 7.775-19.7C8.475-19.7 9.075-19.1 9.075-18.4C9.075-14.1 12.475-9.8 17.675-9.8L39.975-9.8C40.675-9.8 41.275-9.2 41.275-8.5C41.275-7.8 40.575-7.2 39.975-7.2ZM7.775-32.9C7.075-32.9 6.475-33.5 6.475-34.2L6.475-46.5C6.475-47.2 7.075-47.8 7.775-47.8C8.475-47.8 8.975-47.3 8.975-46.6L8.975-34.3C8.975-33.5 8.475-32.9 7.775-32.9ZM66.375-43.3C65.675-43.3 65.075-43.9 65.075-44.6L65.075-62.4C65.075-67.2 61.175-71 56.475-71L17.975-71C13.275-71 8.975-67.2 8.975-62C8.975-61.4 8.575-60.7 7.675-60.7C6.775-60.7 6.375-61.5 6.375-62C6.375-68.6 11.775-73.6 17.975-73.6L56.375-73.6C62.575-73.6 67.575-68.6 67.575-62.4L67.575-44.6C67.575-43.8 66.975-43.3 66.375-43.3ZM52.575 3C51.175 3 48.475 2.6 46.175 0.3L24.575-21.4C22.375-23.4 21.875-26 21.875-27.3C21.975-29.2 22.175-31.7 24.475-34L45.975-55.6C46.075-55.7 46.175-55.7 46.175-55.8C49.175-58.8 55.575-58.7 58.475-55.8C58.575-55.7 58.775-55.5 58.775-55.5L80.375-34C82.575-32 83.075-29.4 83.075-28.1C83.075-26.5 82.775-23.7 80.475-21.4L58.675 0.3C56.675 2.5 54.075 3 52.875 3C52.775 3 52.775 3 52.575 3ZM40.075-40.2C33.075-32.8 33.075-21.8 39.975-15.3C47.175-8.4 58.075-8.4 64.875-15.2L64.875-15.2C68.275-18.6 70.175-23.3 70.075-28.2C69.975-32.8 68.175-37.1 64.975-40.2C57.775-46.9 46.875-47 40.075-40.2Z"/>
   <path class="monochrome-1 multicolor-1:tintColor hierarchical-1:primary SFSymbolsPreviewWireframe" d="M52.475-22.7C49.775-22.7 47.575-24.9 47.575-27.6C47.575-30.3 49.775-32.5 52.475-32.5C55.175-32.5 57.375-30.3 57.375-27.6C57.375-24.9 55.175-22.7 52.475-22.7Z"/>
  </g>
 </g>
</svg>
