<svg width="320" height="240" viewBox="0 0 320 240" fill="none" xmlns="http://www.w3.org/2000/svg">
<path d="M130.573 150.733H33.9598C18.1939 150.733 5.41309 163.514 5.41309 179.28C5.41309 195.046 18.1939 207.827 33.9598 207.827H130.573C146.339 207.827 159.12 195.046 159.12 179.28C159.12 163.514 146.339 150.733 130.573 150.733Z" fill="#223548"/>
<path d="M165.747 179.066H69.1336C53.3677 179.066 40.5869 191.847 40.5869 207.613C40.5869 223.379 53.3677 236.16 69.1336 236.16H165.747C181.513 236.16 194.294 223.379 194.294 207.613C194.294 191.847 181.513 179.066 165.747 179.066Z" fill="#223548"/>
<path d="M291.453 100.12H194.84C179.074 100.12 166.293 112.901 166.293 128.667C166.293 144.433 179.074 157.213 194.84 157.213H291.453C307.219 157.213 320 144.433 320 128.667C320 112.901 307.219 100.12 291.453 100.12Z" fill="#223548"/>
<path d="M219.453 48H37.8267C16.9356 48 0 64.9356 0 85.8267V85.84C0 106.731 16.9356 123.667 37.8267 123.667H219.453C240.344 123.667 257.28 106.731 257.28 85.84V85.8267C257.28 64.9356 240.344 48 219.453 48Z" fill="#223548"/>
<path d="M150.893 114.92H176.493C178.261 114.92 179.693 113.487 179.693 111.72C179.693 109.953 178.261 108.52 176.493 108.52H150.893C149.126 108.52 147.693 109.953 147.693 111.72C147.693 113.487 149.126 114.92 150.893 114.92Z" fill="#F58B00"/>
<path d="M107.173 211.974C106.444 211.978 105.737 211.728 105.173 211.267C96.6263 204.387 92.573 196.4 93.453 188.147C94.7863 175.32 105.8 167.454 126.053 164.787C140.84 162.84 155.733 163.214 170.133 163.574C175.146 163.694 180.346 163.827 185.44 163.854C189.44 163.854 193.44 164.067 197.28 164.254C210.4 164.867 223.946 165.52 235.813 159.654C239.875 157.611 243.453 154.723 246.307 151.184C249.16 147.645 251.224 143.536 252.36 139.134C253.711 134.42 254.054 129.475 253.365 124.62C252.675 119.766 250.97 115.111 248.36 110.96L248.013 110.427C244.013 104.294 238.413 101.654 229.346 101.6C228.498 101.6 227.684 101.263 227.084 100.663C226.483 100.063 226.146 99.2489 226.146 98.4002C226.146 97.5515 226.483 96.7376 227.084 96.1375C227.684 95.5373 228.498 95.2002 229.346 95.2002C240.706 95.2669 248.12 98.8802 253.346 106.92L253.706 107.48C256.808 112.385 258.842 117.888 259.676 123.632C260.51 129.375 260.125 135.229 258.546 140.814C257.172 146.086 254.687 151.005 251.259 155.24C247.83 159.476 243.537 162.931 238.666 165.374C225.333 171.96 210.92 171.28 196.986 170.614C193.173 170.44 189.213 170.254 185.413 170.227C180.253 170.227 175.04 170.067 169.986 169.947C155.826 169.587 141.186 169.227 126.906 171.107C109.72 173.374 100.866 179.107 99.8263 188.8C99.173 194.867 102.333 200.8 109.16 206.254C109.676 206.669 110.051 207.235 110.232 207.873C110.413 208.51 110.392 209.189 110.171 209.814C109.95 210.439 109.54 210.98 108.998 211.362C108.456 211.744 107.809 211.948 107.146 211.947L107.173 211.974Z" fill="#688FB7"/>
<path d="M148.533 143.72H119.733V51.9736H148.533C148.954 51.9736 149.37 52.0564 149.758 52.2172C150.146 52.378 150.499 52.6137 150.796 52.9109C151.093 53.208 151.329 53.5608 151.49 53.9491C151.651 54.3373 151.733 54.7534 151.733 55.1737C151.733 55.5939 151.651 56.01 151.49 56.3982C151.329 56.7864 151.093 57.1392 150.796 57.4364C150.499 57.7335 150.146 57.9692 149.758 58.13C149.37 58.2909 148.954 58.3736 148.533 58.3736H126.08V137.307H148.48C149.329 137.307 150.143 137.644 150.743 138.244C151.343 138.844 151.68 139.658 151.68 140.507C151.68 141.356 151.343 142.17 150.743 142.77C150.143 143.37 149.329 143.707 148.48 143.707L148.533 143.72Z" fill="white"/>
<path d="M150.893 88.2539H176.493C178.261 88.2539 179.693 86.8212 179.693 85.0539C179.693 83.2866 178.261 81.8539 176.493 81.8539H150.893C149.126 81.8539 147.693 83.2866 147.693 85.0539C147.693 86.8212 149.126 88.2539 150.893 88.2539Z" fill="#F58B00"/>
<path d="M175.813 131.987V63.7332C175.813 61.9659 174.381 60.5332 172.614 60.5332C170.846 60.5332 169.413 61.9659 169.413 63.7332V131.987C169.413 133.754 170.846 135.187 172.614 135.187C174.381 135.187 175.813 133.754 175.813 131.987Z" fill="#64EDD2"/>
<path d="M204.746 127.72H175.413V69.0537H204.746C212.526 69.0537 219.987 72.1442 225.488 77.6453C230.989 83.1463 234.08 90.6074 234.08 98.387C234.08 106.167 230.989 113.628 225.488 119.129C219.987 124.63 212.526 127.72 204.746 127.72Z" fill="#64EDD2"/>
<path d="M234.16 98.2533C234.172 99.5516 234.083 100.849 233.893 102.133C232.954 95.0919 229.491 88.6307 224.148 83.9495C218.804 79.2684 211.944 76.6853 204.84 76.6799H175.507V68.9199H204.84C212.618 68.9235 220.075 72.0154 225.573 77.5161C231.072 83.0168 234.16 90.4759 234.16 98.2533Z" fill="#00A58A"/>
<path fill-rule="evenodd" clip-rule="evenodd" d="M112.683 214.062C113.738 212.554 115.816 212.187 117.325 213.242C119.531 214.786 120.577 215.502 121.627 216.221L121.63 216.223C122.692 216.95 123.759 217.68 125.991 219.242C127.5 220.298 127.867 222.376 126.812 223.884C125.756 225.393 123.678 225.76 122.169 224.704C119.963 223.161 118.917 222.444 117.867 221.726L117.864 221.724C116.802 220.997 115.735 220.266 113.503 218.704C111.994 217.649 111.627 215.571 112.683 214.062Z" fill="#688FB7"/>
<path d="M235.342 4.10331L205.474 29.2374C205.418 29.2869 205.377 29.3504 205.354 29.4212C205.331 29.4921 205.328 29.5677 205.345 29.6402C205.361 29.7127 205.398 29.7794 205.449 29.8333C205.501 29.8871 205.567 29.9262 205.639 29.9464L220.584 33.9204C220.643 33.9361 220.699 33.9647 220.746 34.0042C220.793 34.0437 220.83 34.093 220.856 34.1487C220.881 34.2044 220.894 34.265 220.892 34.326C220.891 34.3871 220.876 34.4471 220.849 34.5018L210.372 55.3996C210.328 55.4845 210.315 55.5821 210.335 55.6756C210.356 55.7691 210.408 55.8526 210.484 55.9118C210.56 55.971 210.654 56.0021 210.751 55.9999C210.848 55.9976 210.94 55.9621 211.013 55.8994L241.189 30.8362C241.246 30.7876 241.289 30.7244 241.313 30.6535C241.337 30.5826 241.34 30.5066 241.324 30.4337C241.307 30.3608 241.271 30.2938 241.219 30.2398C241.167 30.1858 241.101 30.1469 241.028 30.1272L225.843 26.1887C225.784 26.1725 225.728 26.1434 225.681 26.1036C225.634 26.0638 225.596 26.0143 225.571 25.9585C225.545 25.9027 225.532 25.842 225.533 25.7807C225.534 25.7194 225.548 25.659 225.575 25.6038L235.987 4.59962C236.031 4.51435 236.044 4.41639 236.023 4.32271C236.002 4.22903 235.949 4.14552 235.872 4.08663C235.796 4.02773 235.701 3.99716 235.604 4.00021C235.507 4.00326 235.415 4.03972 235.342 4.10331Z" fill="#F58B00"/>
</svg>
