<svg width="46" height="46" viewBox="0 0 46 46" fill="none" xmlns="http://www.w3.org/2000/svg">
<g clip-path="url(#clip0_4211_44396)">
<mask id="mask0_4211_44396" style="mask-type:luminance" maskUnits="userSpaceOnUse" x="0" y="0" width="46" height="46">
<path d="M45.5 0.5H0.5V45.5H45.5V0.5Z" fill="white"/>
</mask>
<g mask="url(#mask0_4211_44396)">
<path d="M17.2989 8.07081C16.3248 8.54938 4.05678 18.498 4.05678 18.498C3.47389 19.061 3.33579 19.9409 3.95578 20.4777L25.6447 38.4434C25.7064 38.4964 25.7709 38.5496 25.8354 38.5971C26.3058 38.946 26.7789 39.132 27.3196 39.1679C27.6355 39.1888 27.9484 39.1173 28.252 39.0275L30.2278 38.4434L19.4949 7.94652C19.4949 7.94652 18.273 7.59225 17.2989 8.07081Z" fill="#101619"/>
<path d="M29.8771 35.4576L27.4449 34.3364L5.55724 16.375L5.54883 17.8066C5.54883 18.3435 5.7817 18.8551 6.1913 19.2046L27.442 37.2945L28.0256 37.7922C28.6511 38.3263 29.4535 38.5416 30.225 38.4437V36.3859L29.8743 35.4576H29.8771Z" fill="#046C7C"/>
<path d="M31.9362 35.0133L30.2305 36.3861V38.444C30.7663 38.3769 31.2881 38.1588 31.723 37.7842L31.9389 37.5996L42.9837 28.1073C43.3934 27.755 43.629 27.2433 43.6262 26.7065V25.6133L31.9362 35.0161V35.0133Z" fill="#4D82B8"/>
<path d="M32.676 36.0004C31.3631 37.1216 29.1945 37.1216 27.8648 36.0004L6.2802 17.793C5.17767 16.862 5.35442 15.3661 6.65609 14.4574L16.7526 7.41999C17.9506 6.58396 19.8134 6.58396 20.9271 7.41999L42.551 23.6813C43.8778 24.6795 44.0013 26.3207 42.8035 27.344L32.6788 36.0004H32.676Z" fill="#0899A7"/>
<path d="M17.4824 8.28702L15.2527 9.84935L16.4067 10.749C16.6824 10.9645 16.6608 11.312 16.3554 11.5302L12.3364 14.3801C12.0202 14.6037 11.5418 14.6037 11.2661 14.3801L10.1148 13.4454L7.75524 15.0966C6.79033 15.7728 6.6633 16.8772 7.48225 17.5641L28.2799 35.0326C29.2637 35.8596 30.861 35.8596 31.834 35.0326L41.5909 26.728C42.4801 25.971 42.3937 24.7589 41.4125 24.0182L20.5771 8.28702C19.7527 7.66474 18.3716 7.66474 17.4824 8.28702Z" fill="#D5DADD"/>
</g>
<path d="M19.8193 16.8891C17.5681 19.1402 17.3857 22.6076 19.4117 24.6337C21.4377 26.6597 24.9051 26.4772 27.1562 24.226C29.0969 22.2854 29.4997 19.4423 28.2773 17.3966C28.1295 17.1492 27.7953 17.0903 27.531 17.2651C27.2666 17.4398 27.1722 17.782 27.32 18.0294C28.2978 19.6658 27.9741 21.9408 26.4225 23.4923C24.6216 25.2933 21.8478 25.4393 20.2269 23.8184C18.606 22.1976 18.752 19.4237 20.553 17.6228C21.7595 16.4162 23.4036 15.9519 24.8451 16.2654L23.2432 17.8673C23.0181 18.0925 22.9998 18.4392 23.2024 18.6418C23.405 18.8444 23.7518 18.8262 23.9769 18.601L26.1828 16.3951C26.205 16.3759 26.226 16.3549 26.2456 16.3323L26.4225 16.1554C26.6477 15.9303 26.6659 15.5835 26.4633 15.3809L24.2622 13.1798C24.0596 12.9772 23.7129 12.9955 23.4878 13.2206C23.2627 13.4457 23.2444 13.7924 23.447 13.9951L24.5473 15.0954C22.9132 14.9481 21.1531 15.5553 19.8193 16.8891Z" fill="#D20A0A"/>
</g>
<defs>
<clipPath id="clip0_4211_44396">
<rect width="45" height="45" fill="white" transform="translate(0.5 0.5)"/>
</clipPath>
</defs>
</svg>
