<svg width="128" height="128" viewBox="0 0 128 128" fill="none" xmlns="http://www.w3.org/2000/svg">
<g clip-path="url(#clip0_4413_116739)">
<path d="M49.0352 115.521L1.08182 99.0349C-0.595853 98.4544 -0.230205 95.9917 1.54426 95.9271L76.62 93.1094L122.864 109.488L49.0246 115.532" fill="#101619"/>
<path d="M36.7862 106.69L118.229 99.2798C121.735 99.2798 124.574 96.4407 124.574 92.9347L118.347 27.4193C118.347 23.9133 115.508 21.0742 112.002 21.0742L43.3034 22.0851C39.7976 22.0851 37.6037 24.2467 36.9583 26.688L30.2801 100.151C29.6239 104.549 33.2804 106.679 36.7862 106.679V106.69Z" fill="#688FB7"/>
<path d="M121.767 39.4258L127.972 103.07C128.284 106.264 125.961 109.2 122.875 109.48L52.9394 115.997C47.9602 116.459 43.7768 113.028 43.4327 108.167L38.6147 41.7702L121.767 39.4258Z" fill="#4D82B8"/>
<path d="M119.97 24.3023L121.734 39.4336L38.7323 43.1547L37.0009 28.0556C36.6029 24.3454 39.7432 21.1083 43.7223 21.0868L114.668 19.6134C117.357 19.5919 119.658 21.6353 119.96 24.3023H119.97Z" fill="#0899A7"/>
<path d="M98.9562 34.255C96.6226 34.3088 94.6653 32.4804 94.6008 30.1684C94.5362 27.8561 96.3859 25.9741 98.709 25.9418C101.032 25.9096 102.957 27.7271 103.032 30.0069C103.107 32.287 101.279 34.2013 98.9562 34.255Z" fill="#688FB7"/>
<path d="M62.7471 35.1526C60.252 35.2063 58.2088 33.3136 58.1764 30.9371C58.1443 28.5603 60.1553 26.603 62.6396 26.5707C65.1237 26.5385 67.1347 28.4097 67.1671 30.7756C67.1993 33.1416 65.2207 35.1096 62.7471 35.1634V35.1526Z" fill="#688FB7"/>
<path d="M95.7949 32.9582C95.7949 32.9582 95.1927 32.4635 94.8699 31.5709C94.4827 30.5063 94.6227 29.732 94.6227 29.732C97.5263 29.732 99.1931 27.979 98.8168 22.2577C98.5801 18.526 97.5692 16.2353 96.6875 15.6223C96.4724 15.4825 96.2141 15.3642 95.6982 15.5255C94.5365 15.8804 93.9451 18.8163 94.1064 20.0316L90.7727 20.1068C90.6757 15.1061 92.9988 12.7079 94.6656 12.1917C96.1066 11.7507 97.4833 11.9443 98.6663 12.7509C101.43 14.6544 102.129 19.3863 102.301 22.0319C102.505 25.2689 102.215 32.0872 95.8057 32.9582H95.7949Z" fill="#046C7C"/>
<path d="M59.4346 33.8567C59.4346 33.8567 58.8108 33.3621 58.4883 32.4695C58.1012 31.4048 58.1979 30.6306 58.1979 30.6306C61.1015 30.6306 62.8116 28.8775 62.435 23.1562C62.1986 19.4244 61.1877 17.1337 60.3056 16.5207C60.0906 16.3809 59.8326 16.2626 59.3163 16.4239C58.1549 16.7788 57.5525 19.575 57.714 20.7902L54.3909 20.8547C54.2942 15.8539 56.6169 13.6063 58.2838 13.0901C59.7251 12.6492 61.1015 12.8427 62.2845 13.6493C65.0484 15.5528 65.7473 20.2847 65.9194 22.9303C66.1236 26.1674 65.8548 32.9858 59.4454 33.8567H59.4346Z" fill="#046C7C"/>
<path d="M40.4426 68.0733L40.2168 64.858L67.3178 62.9542L65.6723 42.0049L68.8879 41.7469L70.544 62.7286L97.7955 60.8143L96.1286 40.5422L99.344 40.2734L101.011 60.5885L123.509 59.0075L123.735 62.2232L101.269 63.7933L102.915 83.8714L125.144 82.3121L125.37 85.5277L103.183 87.087L105.151 111.134L101.936 111.403L99.957 87.3129L72.6196 89.2272L74.566 113.984L71.3507 114.242L69.4042 89.453L42.0665 91.3673L41.8407 88.1517L69.1459 86.2374L67.565 66.159L40.4318 68.0625L40.4426 68.0733ZM72.3724 86.0223L99.699 84.108L98.0535 64.0297L70.7914 65.944L72.3724 86.0223Z" fill="#D5DADD"/>
</g>
<defs>
<clipPath id="clip0_4413_116739">
<rect width="128" height="128" fill="white"/>
</clipPath>
</defs>
</svg>
