<svg width="45" height="45" viewBox="0 0 45 45" fill="none" xmlns="http://www.w3.org/2000/svg">
<rect x="4.36475" y="42.9805" width="18.6907" height="8.09727" rx="1.33104" transform="rotate(-90 4.36475 42.9805)" fill="#004DA5"/>
<rect x="18.4512" y="42.9805" width="41.2192" height="8.09727" rx="1.33092" transform="rotate(-90 18.4512 42.9805)" fill="#F58B00"/>
<rect x="32.5376" y="42.9805" width="32.4419" height="8.09727" rx="1.33104" transform="rotate(-90 32.5376 42.9805)" fill="#0070F2"/>
<path fill-rule="evenodd" clip-rule="evenodd" d="M2.56592 14.0119C2.56592 13.4606 3.01282 13.0137 3.56411 13.0137H13.263C13.8143 13.0137 14.2612 13.4606 14.2612 14.0119C14.2612 14.5631 13.8143 15.0101 13.263 15.0101H3.56411C3.01282 15.0101 2.56592 14.5631 2.56592 14.0119Z" fill="#00144A"/>
<path fill-rule="evenodd" clip-rule="evenodd" d="M16.6523 27.4318C16.6523 26.8805 17.0992 26.4336 17.6505 26.4336H27.3494C27.9007 26.4336 28.3476 26.8805 28.3476 27.4318C28.3476 27.9831 27.9007 28.43 27.3494 28.43H17.6505C17.0992 28.43 16.6523 27.9831 16.6523 27.4318Z" fill="#00144A"/>
<path fill-rule="evenodd" clip-rule="evenodd" d="M30.7388 18.5099C30.7388 17.9586 31.1857 17.5117 31.737 17.5117H41.4359C41.9871 17.5117 42.434 17.9586 42.434 18.5099C42.434 19.0612 41.9871 19.5081 41.4359 19.5081H31.737C31.1857 19.5081 30.7388 19.0612 30.7388 18.5099Z" fill="#00144A"/>
</svg>
