<svg width="130" height="128" viewBox="0 0 130 128" fill="none" xmlns="http://www.w3.org/2000/svg">
<path d="M48.4492 21.529C45.6935 22.8828 10.9862 51.0285 10.9862 51.0285C9.33717 52.6211 8.94646 55.1101 10.7005 56.6288L72.0599 107.455C72.2345 107.605 72.417 107.756 72.5996 107.89C73.9301 108.877 75.2686 109.403 76.7983 109.505C77.6921 109.564 78.5772 109.362 79.4362 109.108L85.0257 107.455L54.6616 21.1774C54.6616 21.1774 51.2049 20.1751 48.4492 21.529Z" fill="#1B90FF"/>
<path d="M84.0314 98.9975L77.1504 95.8256L15.2289 45.0117L15.2051 49.0616C15.2051 50.5804 15.8638 52.0279 17.0226 53.0166L77.1424 104.194L78.7932 105.602C80.5631 107.113 82.833 107.722 85.0156 107.445V101.624L84.0235 98.9975H84.0314Z" fill="#00144A"/>
<path d="M89.8587 97.7497L85.0332 101.633V107.455C86.5491 107.265 88.0253 106.648 89.2555 105.588L89.8666 105.066L121.113 78.212C122.272 77.2153 122.938 75.7678 122.931 74.2491V71.1562L89.8587 97.7576V97.7497Z" fill="#0899A7"/>
<path d="M91.9508 100.54C88.2364 103.712 82.1014 103.712 78.3395 100.54L17.2751 49.0301C14.1561 46.396 14.6561 42.1642 18.3387 39.5934L46.9025 19.684C50.2915 17.3189 55.5614 17.3189 58.7122 19.684L119.888 65.6885C123.642 68.5124 123.991 73.1556 120.602 76.0506L91.9587 100.54H91.9508Z" fill="#046C7C"/>
<path d="M48.9657 22.1328L42.6576 26.5527L45.9225 29.098C46.7024 29.7077 46.6413 30.6907 45.7772 31.308L34.4073 39.3706C33.5127 40.0031 32.1593 40.0031 31.3793 39.3706L28.122 36.7263L21.4469 41.3977C18.7171 43.3105 18.3578 46.4349 20.6746 48.3782L79.5125 97.7979C82.2958 100.137 86.8147 100.137 89.5674 97.7979L117.17 74.3035C119.686 72.1621 119.441 68.7328 116.666 66.6372L57.7207 22.1328C55.3886 20.3724 51.4814 20.3724 48.9657 22.1328Z" fill="white"/>
<path d="M74.3243 52.6089C75.0984 53.2074 76.3753 53.2074 77.1574 52.6089L77.1733 52.6246C77.9554 52.0261 77.9554 51.0495 77.1813 50.4589L69.3763 44.4657H72.9835C74.0689 44.4657 74.9707 43.7884 74.9787 42.9615C74.9787 42.1424 74.1008 41.4652 73.0155 41.4652H64.6359C64.1331 41.4573 63.6223 41.599 63.2313 41.8904C62.8402 42.1818 62.6567 42.5283 62.6327 42.8827L62.4731 49.3484C62.4492 50.1832 63.335 50.8763 64.4363 50.8763C65.5297 50.8763 66.4475 50.1832 66.4634 49.3484L66.5193 46.5842L74.3243 52.6089Z" fill="#046C7C"/>
<path d="M67.2942 71.2414L82.7207 59.2787C86.7748 56.1364 86.6631 51.1985 82.5371 48.0641C81.763 47.4734 80.4941 47.4734 79.72 48.0641C78.9459 48.6547 78.9379 49.6234 79.72 50.2219C82.2658 52.1672 82.3456 55.1677 79.8716 57.0736L64.4532 68.9654C62.6096 70.3909 59.585 70.3436 57.7415 68.8709C55.898 67.3982 55.9299 65.0435 57.7734 63.6417L58.9705 62.736C59.7765 62.1217 59.8085 61.1215 59.0344 60.5072C56.2252 58.2785 55.7623 54.9866 57.8931 52.6633C58.5555 51.9545 58.3321 51.0095 57.4462 50.537C56.5444 50.0487 55.2995 50.2377 54.661 50.9307C51.7641 54.073 51.8838 58.3258 54.8286 61.5547C51.5007 64.1772 51.373 68.4063 54.7727 71.1548C58.1725 73.9033 63.8387 73.9427 67.3182 71.2493L67.2942 71.2414Z" fill="#046C7C"/>
</svg>
