<svg width="321" height="240" viewBox="0 0 321 240" fill="none" xmlns="http://www.w3.org/2000/svg">
<path d="M305.711 20.0059H14.6174C12.72 20.0041 10.8408 20.3763 9.08735 21.1012C7.33387 21.8261 5.74044 22.8895 4.39815 24.2305C3.05586 25.5716 1.99103 27.164 1.26452 28.9168C0.538005 30.6696 0.164062 32.5485 0.164063 34.4459V205.553C0.164063 209.386 1.68681 213.062 4.39734 215.773C7.10786 218.483 10.7841 220.006 14.6174 220.006H305.711C309.544 220.006 313.22 218.483 315.931 215.773C318.641 213.062 320.164 209.386 320.164 205.553V34.4459C320.164 32.5485 319.79 30.6696 319.064 28.9168C318.337 27.164 317.272 25.5716 315.93 24.2305C314.588 22.8895 312.994 21.8261 311.241 21.1012C309.487 20.3763 307.608 20.0041 305.711 20.0059Z" fill="#EBF8FF"/>
<path d="M81.5766 28.0503C81.2682 28.4113 81.0628 28.8488 80.982 29.3168C80.9013 29.7847 80.9481 30.2658 81.1177 30.7094L84.8757 41.365C85.4964 43.1276 87.2868 43.5625 88.6682 43.0756C89.2408 42.897 89.74 42.5373 90.0906 42.0507C90.4413 41.564 90.6246 40.9767 90.6128 40.3769C90.5985 40.0873 90.5405 39.8015 90.4407 39.5293L86.6827 28.8737C86.5274 28.4028 86.2478 27.9827 85.8733 27.6578C85.4988 27.3328 85.0435 27.1152 84.5555 27.0278C84.013 26.9305 83.4546 26.9733 82.9333 27.1522C82.412 27.3311 81.945 27.6403 81.5766 28.0503Z" fill="#A9B4BE"/>
<path d="M44.7981 77.2004C44.7438 77.5359 44.7601 77.879 44.8459 78.2078C44.9317 78.5367 45.0851 78.8441 45.2963 79.1103C45.5076 79.3765 45.772 79.5957 46.0727 79.754C46.3735 79.9123 46.7039 80.0062 47.0429 80.0296L57.9765 81.2892C58.3698 81.3332 58.7679 81.2983 59.1475 81.1867C59.5272 81.0751 59.8808 80.889 60.1877 80.6392C60.4946 80.3894 60.7488 80.081 60.9352 79.7319C61.1216 79.3828 61.2366 79.0001 61.2735 78.6061C61.2932 78.444 61.2997 78.2807 61.2927 78.1176C61.2756 77.5146 61.0333 76.9399 60.6135 76.5067C60.1937 76.0736 59.6268 75.8134 59.0247 75.7776L48.0958 74.5213C47.7026 74.4766 47.3046 74.5108 46.9249 74.6219C46.5451 74.733 46.1914 74.9187 45.8843 75.1682C45.5772 75.4177 45.323 75.7259 45.1365 76.0749C44.95 76.4238 44.8349 76.8064 44.7981 77.2004Z" fill="#A9B4BE"/>
<path d="M54.3416 47.8371C54.3798 48.2064 54.4929 48.5641 54.674 48.8882C54.8551 49.2123 55.1004 49.4961 55.3949 49.7222L68.5038 59.9969C69.0943 60.4544 69.8388 60.6659 70.5816 60.5872C71.3244 60.5085 72.008 60.1457 72.4896 59.5746C72.934 59.0431 73.1624 58.364 73.1296 57.6719C73.11 57.273 73.0047 56.883 72.8208 56.5285C72.6369 56.174 72.3788 55.8633 72.064 55.6176L58.9551 45.3429C58.3616 44.8824 57.6128 44.6698 56.866 44.75C56.1191 44.8301 55.4324 45.1966 54.9502 45.7725C54.7149 46.0579 54.5398 46.3879 54.4352 46.7427C54.3306 47.0975 54.2988 47.4697 54.3416 47.8371Z" fill="#A9B4BE"/>
<rect x="27.8623" y="202.574" width="231.534" height="17.4263" rx="4" fill="#D1EFFF"/>
<path d="M199.019 206.574C199.019 204.365 200.809 202.574 203.019 202.574H297.906C300.115 202.574 301.906 204.365 301.906 206.574V216C301.906 218.21 300.115 220 297.906 220H203.019C200.809 220 199.019 218.21 199.019 216V206.574Z" fill="#9EDDFF"/>
<rect x="96.8662" y="76.0078" width="178.1" height="113.946" rx="12.3835" fill="#005DC9"/>
<rect x="96.8662" y="76.0078" width="138.824" height="113.946" rx="12.3835" fill="#0070F2"/>
<rect x="115.492" y="94.4512" width="101.572" height="77.0582" rx="9.00618" fill="#00144A"/>
<path d="M112.652 189.996H137.806L129.102 201.393C128.535 202.136 127.653 202.573 126.718 202.573H115.652C113.995 202.573 112.652 201.229 112.652 199.573V189.996Z" fill="#005DC9"/>
<path fill-rule="evenodd" clip-rule="evenodd" d="M134.333 194.544H112.652V189.996H137.806L134.333 194.544Z" fill="#004DA5"/>
<path d="M153.407 189.996H178.561L169.857 201.393C169.289 202.136 168.408 202.573 167.473 202.573H156.407C154.75 202.573 153.407 201.229 153.407 199.573V189.996Z" fill="#004DA5"/>
<path fill-rule="evenodd" clip-rule="evenodd" d="M173.759 196.284H153.407V189.996H178.561L173.759 196.284Z" fill="#004DA5"/>
<path d="M219.315 189.996H194.162L202.866 201.393C203.433 202.136 204.315 202.573 205.25 202.573H216.315C217.972 202.573 219.315 201.229 219.315 199.573V189.996Z" fill="#005DC9"/>
<path fill-rule="evenodd" clip-rule="evenodd" d="M197.635 194.544H219.315V189.996H194.162L197.635 194.544Z" fill="#004DA5"/>
<path d="M260.07 189.996H234.917L243.621 201.393C244.188 202.136 245.07 202.573 246.005 202.573H257.07C258.727 202.573 260.07 201.229 260.07 199.573V189.996Z" fill="#004DA5"/>
<path fill-rule="evenodd" clip-rule="evenodd" d="M239.719 196.284H260.07V189.996H234.917L239.719 196.284Z" fill="#004DA5"/>
<rect x="16.293" y="94.4512" width="100.504" height="77.0582" rx="9.00618" fill="#005DC9"/>
<rect x="12.293" y="94.4512" width="101.572" height="77.0582" rx="9.00618" fill="#9EDDFF"/>
<circle cx="31.8726" cy="118.187" r="3.73584" fill="#F58B00"/>
<circle cx="31.8726" cy="147.771" r="3.73584" fill="#F58B00"/>
<circle cx="71.0933" cy="132.98" r="16.2573" fill="#D1EFFF"/>
<rect x="111.628" y="102.826" width="8.75772" height="24.4715" rx="4.37886" fill="#004DA5"/>
<rect x="111.628" y="136.146" width="8.75772" height="24.4715" rx="4.37886" fill="#004DA5"/>
<path d="M308.188 92.9273C308.188 91.8459 305.049 90.9803 300.855 90.7837C300.615 86.5947 299.692 83.48 298.611 83.4824C297.529 83.4848 296.63 86.6235 296.4 90.834C292.193 91.1218 289.066 92.0617 289.081 93.1455C289.095 94.2293 292.22 95.0949 296.414 95.2891C296.666 99.478 297.577 102.593 298.656 102.59C299.735 102.588 300.639 99.4492 300.87 95.2387C305.076 94.951 308.2 94.0111 308.188 92.9273Z" fill="#D1EFFF"/>
<path d="M259.494 46.9841C259.494 45.6258 255.551 44.5386 250.283 44.2916C249.982 39.0302 248.822 35.1181 247.464 35.1211C246.105 35.1241 244.976 39.0664 244.686 44.3549C239.403 44.7163 235.476 45.8968 235.494 47.2581C235.512 48.6194 239.436 49.7066 244.705 49.9506C245.021 55.2119 246.165 59.1241 247.521 59.1211C248.876 59.1181 250.012 55.1758 250.301 49.8873C255.584 49.5259 259.509 48.3453 259.494 46.9841Z" fill="#D1EFFF"/>
</svg>
