<?xml version="1.0" encoding="UTF-8"?>
<!--Generator: Apple Native CoreSVG 341-->
<!DOCTYPE svg
PUBLIC "-//W3C//DTD SVG 1.1//EN"
       "http://www.w3.org/Graphics/SVG/1.1/DTD/svg11.dtd">
<svg version="1.1" xmlns="http://www.w3.org/2000/svg" xmlns:xlink="http://www.w3.org/1999/xlink" viewBox="0 0 3300 2200">
 <!--glyph: "", point size: 100.0, font version: "21.0d4e1", template writer version: "138.0.0"-->
 <style>.defaults {-sfsymbols-draw-reverses-motion-groups:true}

.monochrome-0 {-sfsymbols-motion-group:2;-sfsymbols-layer-tags:-2b02fc3779811d17}
.monochrome-1 {-sfsymbols-motion-group:1;-sfsymbols-layer-tags:-2b02fc3779811d17}
.monochrome-2 {-sfsymbols-motion-group:0;-sfsymbols-layer-tags:-2b02fc3779811d17}

.multicolor-0:tintColor {-sfsymbols-motion-group:2;-sfsymbols-layer-tags:-2b02fc3779811d17}
.multicolor-1:tintColor {-sfsymbols-motion-group:1;-sfsymbols-layer-tags:-2b02fc3779811d17}
.multicolor-2:tintColor {-sfsymbols-motion-group:0;-sfsymbols-layer-tags:-2b02fc3779811d17}

.hierarchical-0:primary {-sfsymbols-motion-group:2;-sfsymbols-layer-tags:-2b02fc3779811d17}
.hierarchical-1:primary {-sfsymbols-motion-group:1;-sfsymbols-layer-tags:-2b02fc3779811d17}
.hierarchical-2:primary {-sfsymbols-motion-group:0;-sfsymbols-layer-tags:-2b02fc3779811d17}

.SFSymbolsPreviewWireframe {fill:none;opacity:1.0;stroke:black;stroke-width:0.5}
</style>
 <g id="Notes">
  <rect height="2200" id="artboard" style="fill:white;opacity:1" width="3300" x="0" y="0"/>
  <line style="fill:none;stroke:black;opacity:1;stroke-width:0.5;" x1="263" x2="3036" y1="292" y2="292"/>
  <text style="stroke:none;fill:black;font-family:sans-serif;font-size:13;font-weight:bold;" transform="matrix(1 0 0 1 263 322)">Weight/Scale Variations</text>
  <text style="stroke:none;fill:black;font-family:sans-serif;font-size:13;text-anchor:middle;" transform="matrix(1 0 0 1 559.711 322)">Ultralight</text>
  <text style="stroke:none;fill:black;font-family:sans-serif;font-size:13;text-anchor:middle;" transform="matrix(1 0 0 1 856.422 322)">Thin</text>
  <text style="stroke:none;fill:black;font-family:sans-serif;font-size:13;text-anchor:middle;" transform="matrix(1 0 0 1 1153.13 322)">Light</text>
  <text style="stroke:none;fill:black;font-family:sans-serif;font-size:13;text-anchor:middle;" transform="matrix(1 0 0 1 1449.84 322)">Regular</text>
  <text style="stroke:none;fill:black;font-family:sans-serif;font-size:13;text-anchor:middle;" transform="matrix(1 0 0 1 1746.56 322)">Medium</text>
  <text style="stroke:none;fill:black;font-family:sans-serif;font-size:13;text-anchor:middle;" transform="matrix(1 0 0 1 2043.27 322)">Semibold</text>
  <text style="stroke:none;fill:black;font-family:sans-serif;font-size:13;text-anchor:middle;" transform="matrix(1 0 0 1 2339.98 322)">Bold</text>
  <text style="stroke:none;fill:black;font-family:sans-serif;font-size:13;text-anchor:middle;" transform="matrix(1 0 0 1 2636.69 322)">Heavy</text>
  <text style="stroke:none;fill:black;font-family:sans-serif;font-size:13;text-anchor:middle;" transform="matrix(1 0 0 1 2933.4 322)">Black</text>
  <line style="fill:none;stroke:black;opacity:1;stroke-width:0.5;" x1="263" x2="3036" y1="1903" y2="1903"/>
  <g transform="matrix(0.2 0 0 0.2 263 1933)">
   <path d="m46.2402 4.15039c21.7773 0 39.4531-17.627 39.4531-39.4043s-17.6758-39.4043-39.4531-39.4043c-21.7285 0-39.4043 17.627-39.4043 39.4043s17.6758 39.4043 39.4043 39.4043Zm0-7.42188c-17.6758 0-31.9336-14.3066-31.9336-31.9824s14.2578-31.9824 31.9336-31.9824 31.9824 14.3066 31.9824 31.9824-14.3066 31.9824-31.9824 31.9824Zm3.61328-17.7734v-28.4668c0-2.24609-1.46484-3.75977-3.71094-3.75977-2.14844 0-3.61328 1.51367-3.61328 3.75977v28.4668c0 2.19727 1.46484 3.71094 3.61328 3.71094 2.24609 0 3.71094-1.51367 3.71094-3.71094Zm-17.8223-10.5957h28.418c2.19727 0 3.71094-1.46484 3.71094-3.61328 0-2.19727-1.51367-3.71094-3.71094-3.71094h-28.418c-2.24609 0-3.75977 1.51367-3.75977 3.71094 0 2.14844 1.51367 3.61328 3.75977 3.61328Z"/>
  </g>
  <g transform="matrix(0.2 0 0 0.2 281.506 1933)">
   <path d="m58.5449 14.5508c27.4902 0 49.8047-22.3145 49.8047-49.8047s-22.3145-49.8047-49.8047-49.8047-49.8047 22.3145-49.8047 49.8047 22.3145 49.8047 49.8047 49.8047Zm0-8.30078c-22.9492 0-41.5039-18.5547-41.5039-41.5039s18.5547-41.5039 41.5039-41.5039 41.5039 18.5547 41.5039 41.5039-18.5547 41.5039-41.5039 41.5039Zm4.05273-23.0957v-36.9141c0-2.49023-1.70898-4.19922-4.15039-4.19922-2.39258 0-4.05273 1.70898-4.05273 4.19922v36.9141c0 2.44141 1.66016 4.15039 4.05273 4.15039 2.44141 0 4.15039-1.66016 4.15039-4.15039Zm-22.5586-14.4043h36.9629c2.44141 0 4.15039-1.61133 4.15039-4.00391 0-2.44141-1.70898-4.15039-4.15039-4.15039h-36.9629c-2.49023 0-4.15039 1.70898-4.15039 4.15039 0 2.39258 1.66016 4.00391 4.15039 4.00391Z"/>
  </g>
  <g transform="matrix(0.2 0 0 0.2 304.924 1933)">
   <path d="m74.8535 28.3203c35.1074 0 63.623-28.4668 63.623-63.5742s-28.5156-63.623-63.623-63.623-63.5742 28.5156-63.5742 63.623 28.4668 63.5742 63.5742 63.5742Zm0-9.08203c-30.127 0-54.4922-24.3652-54.4922-54.4922s24.3652-54.4922 54.4922-54.4922 54.4922 24.3652 54.4922 54.4922-24.3652 54.4922-54.4922 54.4922Zm4.44336-30.3223v-48.4863c0-2.73438-1.85547-4.63867-4.54102-4.63867-2.58789 0-4.44336 1.9043-4.44336 4.63867v48.4863c0 2.68555 1.85547 4.58984 4.44336 4.58984 2.68555 0 4.54102-1.85547 4.54102-4.58984Zm-28.7109-19.7754h48.4863c2.68555 0 4.58984-1.80664 4.58984-4.39453 0-2.73438-1.85547-4.58984-4.58984-4.58984h-48.4863c-2.73438 0-4.58984 1.85547-4.58984 4.58984 0 2.58789 1.85547 4.39453 4.58984 4.39453Z"/>
  </g>
  <text style="stroke:none;fill:black;font-family:sans-serif;font-size:13;font-weight:bold;" transform="matrix(1 0 0 1 263 1953)">Design Variations</text>
  <text style="stroke:none;fill:black;font-family:sans-serif;font-size:13;" transform="matrix(1 0 0 1 263 1971)">Symbols are supported in up to nine weights and three scales.</text>
  <text style="stroke:none;fill:black;font-family:sans-serif;font-size:13;" transform="matrix(1 0 0 1 263 1989)">For optimal layout with text and other symbols, vertically align</text>
  <text style="stroke:none;fill:black;font-family:sans-serif;font-size:13;" transform="matrix(1 0 0 1 263 2007)">symbols with the adjacent text.</text>
  <line style="fill:none;stroke:#00AEEF;stroke-width:0.5;opacity:1.0;" x1="776" x2="776" y1="1919" y2="1933"/>
  <g transform="matrix(0.2 0 0 0.2 776 1933)">
   <path d="m16.5527 0.78125c2.58789 0 3.85742-0.976562 4.78516-3.71094l20.5566-57.5195h0.244141l20.6055 57.5195c0.927734 2.73438 2.19727 3.71094 4.73633 3.71094 2.58789 0 4.24805-1.5625 4.24805-4.00391 0-0.830078-0.146484-1.61133-0.537109-2.63672l-22.9004-60.9863c-1.12305-2.97852-3.125-4.49219-6.25-4.49219-3.02734 0-5.07812 1.46484-6.15234 4.44336l-22.9004 61.084c-0.390625 1.02539-0.537109 1.80664-0.537109 2.63672 0 2.44141 1.5625 3.95508 4.10156 3.95508Zm10.2051-20.9473h30.6641c2.00195 0 3.66211-1.66016 3.66211-3.66211 0-2.05078-1.66016-3.66211-3.66211-3.66211h-30.6641c-2.00195 0-3.66211 1.61133-3.66211 3.66211 0 2.00195 1.66016 3.66211 3.66211 3.66211Z"/>
  </g>
  <line style="fill:none;stroke:#00AEEF;stroke-width:0.5;opacity:1.0;" x1="792.836" x2="792.836" y1="1919" y2="1933"/>
  <text style="stroke:none;fill:black;font-family:sans-serif;font-size:13;font-weight:bold;" transform="matrix(1 0 0 1 776 1953)">Margins</text>
  <text style="stroke:none;fill:black;font-family:sans-serif;font-size:13;" transform="matrix(1 0 0 1 776 1971)">Leading and trailing margins on the left and right side of each symbol</text>
  <text style="stroke:none;fill:black;font-family:sans-serif;font-size:13;" transform="matrix(1 0 0 1 776 1989)">can be adjusted by modifying the x-location of the margin guidelines.</text>
  <text style="stroke:none;fill:black;font-family:sans-serif;font-size:13;" transform="matrix(1 0 0 1 776 2007)">Modifications are automatically applied proportionally to all</text>
  <text style="stroke:none;fill:black;font-family:sans-serif;font-size:13;" transform="matrix(1 0 0 1 776 2025)">scales and weights.</text>
  <g transform="matrix(0.2 0 0 0.2 1289 1933)">
   <path d="m14.209 13.1348 7.86133 7.86133c4.29688 4.39453 9.32617 4.10156 13.8672-1.02539l60.6934-68.2129-4.88281-4.88281-60.2539 67.6758c-1.80664 1.95312-3.4668 2.44141-5.81055 0.0976562l-5.17578-5.12695c-2.29492-2.29492-1.80664-3.95508 0.195312-5.81055l67.4805-62.1582-4.88281-4.83398-68.0664 62.5977c-4.98047 4.58984-5.32227 9.47266-1.02539 13.8184Zm44.873-97.4609c-2.05078 2.00195-2.24609 4.88281-1.07422 6.78711 1.12305 1.80664 3.4668 3.02734 6.5918 2.24609 5.85938-1.66016 12.5977-2.39258 18.8965 0.927734l-2.68555 7.12891c-1.61133 4.00391-0.732422 6.88477 1.70898 9.42383l10.2539 10.3027c2.34375 2.39258 4.54102 2.44141 7.08008 1.95312l4.44336-0.732422 2.58789 2.53906-0.195312 2.24609c-0.0976562 2.29492 0.537109 4.29688 2.7832 6.49414l3.36914 3.32031c2.29492 2.29492 5.51758 2.49023 7.8125 0.195312l12.9883-13.0371c2.29492-2.34375 2.14844-5.37109-0.195312-7.66602l-3.41797-3.41797c-2.19727-2.19727-4.05273-3.02734-6.34766-2.88086l-2.34375 0.244141-2.44141-2.44141 1.02539-4.6875c0.634766-2.73438-0.244141-4.98047-2.88086-7.61719l-11.2793-11.1816c-12.9395-12.8418-35.5957-11.0352-46.6797-0.146484Zm7.08008 2.05078c8.78906-6.39648 25.9766-5.66406 33.6914 1.95312l12.3047 12.207c1.02539 1.02539 1.2207 1.80664 0.927734 3.32031l-1.46484 6.64062 6.73828 6.68945 4.39453-0.244141c1.12305-0.0488281 1.51367 0.0488281 2.34375 0.878906l2.53906 2.49023-10.8398 10.8398-2.49023-2.49023c-0.830078-0.878906-0.976562-1.2207-0.927734-2.39258l0.292969-4.3457-6.68945-6.73828-6.83594 1.17188c-1.41602 0.292969-2.05078 0.195312-3.17383-0.878906l-8.93555-8.88672c-1.07422-1.02539-1.17188-1.70898-0.488281-3.36914l4.58984-11.4746c-6.10352-6.34766-17.041-7.51953-25.5859-4.58984-0.683594 0.244141-0.927734-0.390625-0.390625-0.78125Z"/>
  </g>
  <text style="stroke:none;fill:black;font-family:sans-serif;font-size:13;font-weight:bold;" transform="matrix(1 0 0 1 1289 1953)">Exporting</text>
  <text style="stroke:none;fill:black;font-family:sans-serif;font-size:13;" transform="matrix(1 0 0 1 1289 1971)">Symbols should be outlined when exporting to ensure the</text>
  <text style="stroke:none;fill:black;font-family:sans-serif;font-size:13;" transform="matrix(1 0 0 1 1289 1989)">design is preserved when submitting to Xcode.</text>
  <text id="template-version" style="stroke:none;fill:black;font-family:sans-serif;font-size:13;text-anchor:end;" transform="matrix(1 0 0 1 3036 1933)">Template v.5.0</text>
  <text style="stroke:none;fill:black;font-family:sans-serif;font-size:13;text-anchor:end;" transform="matrix(1 0 0 1 3036 1951)">Requires Xcode 15 or greater</text>
  <text id="descriptive-name" style="stroke:none;fill:black;font-family:sans-serif;font-size:13;text-anchor:end;" transform="matrix(1 0 0 1 3036 1969)">Generated from fiori.photo.voltaic</text>
  <text style="stroke:none;fill:black;font-family:sans-serif;font-size:13;text-anchor:end;" transform="matrix(1 0 0 1 3036 1987)">Typeset at 100.0 points</text>
  <text style="stroke:none;fill:black;font-family:sans-serif;font-size:13;" transform="matrix(1 0 0 1 263 726)">Small</text>
  <text style="stroke:none;fill:black;font-family:sans-serif;font-size:13;" transform="matrix(1 0 0 1 263 1156)">Medium</text>
  <text style="stroke:none;fill:black;font-family:sans-serif;font-size:13;" transform="matrix(1 0 0 1 263 1586)">Large</text>
 </g>
 <g id="Guides">
  <g id="H-reference" style="fill:#27AAE1;stroke:none;" transform="matrix(1 0 0 1 339 696)">
   <path d="M0.993654 0L3.63775 0L29.3281-67.1323L30.0303-67.1323L30.0303-70.459L28.1226-70.459ZM11.6885-24.4799L46.9815-24.4799L46.2315-26.7285L12.4385-26.7285ZM55.1196 0L57.7637 0L30.6382-70.459L29.4326-70.459L29.4326-67.1323Z"/>
  </g>
  <line id="Baseline-S" style="fill:none;stroke:#27AAE1;opacity:1;stroke-width:0.5;" x1="263" x2="3036" y1="696" y2="696"/>
  <line id="Capline-S" style="fill:none;stroke:#27AAE1;opacity:1;stroke-width:0.5;" x1="263" x2="3036" y1="625.541" y2="625.541"/>
  <g id="H-reference" style="fill:#27AAE1;stroke:none;" transform="matrix(1 0 0 1 339 1126)">
   <path d="M0.993654 0L3.63775 0L29.3281-67.1323L30.0303-67.1323L30.0303-70.459L28.1226-70.459ZM11.6885-24.4799L46.9815-24.4799L46.2315-26.7285L12.4385-26.7285ZM55.1196 0L57.7637 0L30.6382-70.459L29.4326-70.459L29.4326-67.1323Z"/>
  </g>
  <line id="Baseline-M" style="fill:none;stroke:#27AAE1;opacity:1;stroke-width:0.5;" x1="263" x2="3036" y1="1126" y2="1126"/>
  <line id="Capline-M" style="fill:none;stroke:#27AAE1;opacity:1;stroke-width:0.5;" x1="263" x2="3036" y1="1055.54" y2="1055.54"/>
  <g id="H-reference" style="fill:#27AAE1;stroke:none;" transform="matrix(1 0 0 1 339 1556)">
   <path d="M0.993654 0L3.63775 0L29.3281-67.1323L30.0303-67.1323L30.0303-70.459L28.1226-70.459ZM11.6885-24.4799L46.9815-24.4799L46.2315-26.7285L12.4385-26.7285ZM55.1196 0L57.7637 0L30.6382-70.459L29.4326-70.459L29.4326-67.1323Z"/>
  </g>
  <line id="Baseline-L" style="fill:none;stroke:#27AAE1;opacity:1;stroke-width:0.5;" x1="263" x2="3036" y1="1556" y2="1556"/>
  <line id="Capline-L" style="fill:none;stroke:#27AAE1;opacity:1;stroke-width:0.5;" x1="263" x2="3036" y1="1485.54" y2="1485.54"/>
  <line id="right-margin-Black-S" style="fill:none;stroke:#00AEEF;stroke-width:0.5;opacity:1.0;" x1="2981.9" x2="2981.9" y1="600.785" y2="720.121"/>
  <line id="left-margin-Black-S" style="fill:none;stroke:#00AEEF;stroke-width:0.5;opacity:1.0;" x1="2884.9" x2="2884.9" y1="600.785" y2="720.121"/>
  <line id="right-margin-Regular-S" style="fill:none;stroke:#00AEEF;stroke-width:0.5;opacity:1.0;" x1="1496.29" x2="1496.29" y1="600.785" y2="720.121"/>
  <line id="left-margin-Regular-S" style="fill:none;stroke:#00AEEF;stroke-width:0.5;opacity:1.0;" x1="1403.39" x2="1403.39" y1="600.785" y2="720.121"/>
  <line id="right-margin-Ultralight-S" style="fill:none;stroke:#00AEEF;stroke-width:0.5;opacity:1.0;" x1="604.411" x2="604.411" y1="600.785" y2="720.121"/>
  <line id="left-margin-Ultralight-S" style="fill:none;stroke:#00AEEF;stroke-width:0.5;opacity:1.0;" x1="515.011" x2="515.011" y1="600.785" y2="720.121"/>
 </g>
 <g id="Symbols">
  <g id="Black-S" transform="matrix(1 0 0 1 2884.9 696)">
   <path class="monochrome-0 multicolor-0:tintColor hierarchical-0:primary SFSymbolsPreviewWireframe" d="M85.51 7.3L62.91 7.3C60.61 7.3 58.41 5.8 57.81 3.9C57.11 1.9 57.11-0.2 59.01-2.1L81.61-24.7C83.51-26.5 85.61-26.6 87.61-25.9C89.31-25.3 91.01-23.3 91.01-20.8L91.01 1.8C91.01 4.8 88.61 7.3 85.51 7.3ZM76.21-3.8L80.01-3.8L80.01-7.5L76.21-3.8Z"/>
   <path class="monochrome-1 multicolor-1:tintColor hierarchical-1:primary SFSymbolsPreviewWireframe" d="M42.31 2.2C40.91 2.2 39.51 1.7 38.41 0.6C36.21-1.6 36.21-5.1 38.41-7.2L76.41-45.2C78.61-47.4 82.11-47.4 84.21-45.2C86.41-43 86.41-39.5 84.21-37.4L46.21 0.6C45.21 1.6 43.71 2.2 42.31 2.2Z"/>
   <path class="monochrome-2 multicolor-2:tintColor hierarchical-2:primary SFSymbolsPreviewWireframe" d="M33.11-36.4C25.21-36.4 18.81-42.8 18.81-50.7C18.81-58.6 25.21-65 33.11-65C41.01-65 47.41-58.6 47.41-50.7C47.31-42.8 40.91-36.4 33.11-36.4ZM33.11-53.9C31.31-53.9 29.91-52.5 29.91-50.7C29.91-48.9 31.31-47.5 33.11-47.5C34.91-47.5 36.31-48.9 36.31-50.7C36.31-52.5 34.81-53.9 33.11-53.9ZM12.11-46.2L10.01-46.2C6.91-46.2 4.51-48.7 4.51-51.7C4.51-54.7 7.01-57.2 10.01-57.2L12.11-57.2C15.21-57.2 17.61-54.7 17.61-51.7C17.61-48.7 15.21-46.2 12.11-46.2ZM56.11-46.2L54.01-46.2C50.91-46.2 48.51-48.7 48.51-51.7C48.51-54.7 51.01-57.2 54.01-57.2L56.11-57.2C59.21-57.2 61.61-54.7 61.61-51.7C61.61-48.7 59.11-46.2 56.11-46.2ZM33.11-66.1C30.01-66.1 27.61-68.6 27.61-71.6L27.61-73.7C27.61-76.8 30.11-79.2 33.11-79.2C36.11-79.2 38.61-76.7 38.61-73.7L38.61-71.6C38.61-68.6 36.11-66.1 33.11-66.1ZM33.11-22.1C30.01-22.1 27.61-24.6 27.61-27.6L27.61-29.7C27.61-32.8 30.11-35.2 33.11-35.2C36.11-35.2 38.61-32.7 38.61-29.7L38.61-27.6C38.61-24.6 36.11-22.1 33.11-22.1ZM18.71-59.5C17.31-59.5 15.91-60 14.81-61.1L12.81-63.2C10.61-65.4 10.61-68.9 12.81-71C15.01-73.2 18.51-73.2 20.61-71L22.61-68.9C24.81-66.7 24.81-63.2 22.61-61.1C21.51-60.1 20.11-59.5 18.71-59.5ZM49.51-28.7C48.11-28.7 46.71-29.2 45.61-30.3L43.51-32.4C41.31-34.6 41.31-38.1 43.51-40.2C45.71-42.4 49.21-42.4 51.31-40.2L53.41-38.1C55.61-35.9 55.61-32.4 53.41-30.3C52.31-29.2 50.91-28.7 49.51-28.7ZM47.51-59.5C46.11-59.5 44.71-60 43.61-61.1C41.41-63.3 41.41-66.8 43.61-68.9L45.71-71C47.91-73.2 51.41-73.2 53.51-71C55.71-68.8 55.71-65.3 53.51-63.2L51.41-61.1C50.31-60.1 48.91-59.5 47.51-59.5ZM16.61-28.7C15.21-28.7 13.81-29.2 12.71-30.3C10.51-32.5 10.51-36 12.71-38.1L14.81-40.2C17.01-42.4 20.51-42.4 22.61-40.2C24.81-38 24.81-34.5 22.61-32.4L20.51-30.3C19.51-29.2 18.01-28.7 16.61-28.7Z"/>
  </g>
  <g id="Regular-S" transform="matrix(1 0 0 1 1403.39 696)">
   <path class="monochrome-0 multicolor-0:tintColor hierarchical-0:primary SFSymbolsPreviewWireframe" d="M83.46 5.9L60.86 5.9C59.16 5.9 57.66 4.9 57.06 3.4C56.46 1.8 56.76 0 57.96-1.1L80.56-23.7C81.76-24.9 83.46-25.2 85.06-24.6C86.56-24 87.56-22.5 87.56-20.8L87.56 1.8C87.66 4 85.76 5.9 83.46 5.9ZM70.86-2.4L79.46-2.4L79.46-11L70.86-2.4Z"/>
   <path class="monochrome-1 multicolor-1:tintColor hierarchical-1:primary SFSymbolsPreviewWireframe" d="M40.36 0.7C39.26 0.7 38.26 0.3 37.46-0.5C35.86-2.1 35.86-4.7 37.46-6.3L75.46-44.3C77.06-45.9 79.66-45.9 81.26-44.3C82.86-42.7 82.86-40.1 81.26-38.5L43.26-0.5C42.46 0.3 41.36 0.7 40.36 0.7Z"/>
   <path class="monochrome-2 multicolor-2:tintColor hierarchical-2:primary SFSymbolsPreviewWireframe" d="M31.06-37.8C23.96-37.8 18.16-43.6 18.16-50.6C18.16-57.7 23.96-63.5 31.06-63.5C38.16-63.5 43.86-57.7 43.86-50.6C43.96-43.6 38.16-37.8 31.06-37.8ZM31.06-55.3C28.46-55.3 26.46-53.2 26.46-50.7C26.46-48.2 28.56-46.1 31.06-46.1C33.56-46.1 35.66-48.2 35.66-50.7C35.66-53.2 33.66-55.3 31.06-55.3ZM11.56-47.6L9.46-47.6C7.16-47.6 5.36-49.4 5.36-51.7C5.36-54 7.16-55.8 9.46-55.8L11.56-55.8C13.86-55.8 15.66-54 15.66-51.7C15.66-49.4 13.86-47.6 11.56-47.6ZM52.66-47.6L50.56-47.6C48.26-47.6 46.46-49.4 46.46-51.7C46.46-54 48.26-55.8 50.56-55.8L52.66-55.8C54.96-55.8 56.76-54 56.76-51.7C56.76-49.4 54.96-47.6 52.66-47.6ZM31.06-66.1C28.76-66.1 26.96-67.9 26.96-70.2L26.96-72.3C26.96-74.6 28.76-76.4 31.06-76.4C33.36-76.4 35.16-74.6 35.16-72.3L35.16-70.2C35.16-67.9 33.36-66.1 31.06-66.1ZM31.06-25C28.76-25 26.96-26.8 26.96-29.1L26.96-31.2C26.96-33.5 28.76-35.3 31.06-35.3C33.36-35.3 35.16-33.5 35.16-31.2L35.16-29.1C35.16-26.8 33.36-25 31.06-25ZM16.66-60.9C15.56-60.9 14.56-61.3 13.76-62.1L11.66-64.2C10.06-65.8 10.06-68.4 11.66-70C13.26-71.6 15.86-71.6 17.46-70L19.56-67.9C21.16-66.3 21.16-63.7 19.56-62.1C18.76-61.4 17.76-60.9 16.66-60.9ZM47.56-30.1C46.46-30.1 45.46-30.5 44.66-31.3L42.56-33.4C40.96-35 40.96-37.6 42.56-39.2C44.16-40.8 46.76-40.8 48.36-39.2L50.46-37.1C52.06-35.5 52.06-32.9 50.46-31.3C49.66-30.5 48.56-30.1 47.56-30.1ZM45.46-60.9C44.36-60.9 43.36-61.3 42.56-62.1C40.96-63.7 40.96-66.3 42.56-67.9L44.66-70C46.26-71.6 48.86-71.6 50.46-70C52.06-68.4 52.06-65.8 50.46-64.2L48.36-62.1C47.56-61.4 46.56-60.9 45.46-60.9ZM14.66-30.1C13.56-30.1 12.56-30.5 11.76-31.3C10.16-32.9 10.16-35.5 11.76-37.1L13.86-39.2C15.46-40.8 18.06-40.8 19.66-39.2C21.26-37.6 21.26-35 19.66-33.4L17.56-31.3C16.76-30.5 15.66-30.1 14.66-30.1Z"/>
  </g>
  <g id="Ultralight-S" transform="matrix(1 0 0 1 515.011 696)">
   <path class="monochrome-0 multicolor-0:tintColor hierarchical-0:primary SFSymbolsPreviewWireframe" d="M81.775 3L59.175 3C58.675 3 58.275 2.7 57.975 2.2C57.775 1.8 57.875 1.2 58.275 0.8L80.875-21.8C81.275-22.2 81.875-22.2 82.275-22.1C82.875-21.9 83.075-21.2 83.075-20.9L83.075 1.8C83.075 2.5 82.475 3 81.775 3ZM62.275 0.5L80.575 0.5L80.575-17.8L62.275 0.5Z"/>
   <path class="monochrome-1 multicolor-1:tintColor hierarchical-1:primary SFSymbolsPreviewWireframe" d="M38.575-2.1C38.275-2.1 37.875-2.2 37.675-2.5C37.175-3 37.175-3.8 37.675-4.3L75.675-42.3C76.175-42.8 76.975-42.8 77.475-42.3C77.975-41.8 77.975-41 77.475-40.5L39.475-2.5C39.275-2.2 38.875-2.1 38.575-2.1Z"/>
   <path class="monochrome-2 multicolor-2:tintColor hierarchical-2:primary SFSymbolsPreviewWireframe" d="M29.375-40.7C23.875-40.7 19.375-45.2 19.375-50.7C19.375-56.2 23.875-60.7 29.375-60.7C34.875-60.7 39.375-56.2 39.375-50.7C39.375-45.1 34.875-40.7 29.375-40.7ZM29.375-58.1C25.275-58.1 21.875-54.8 21.875-50.6C21.875-46.4 25.175-43.1 29.375-43.1C33.575-43.1 36.875-46.4 36.875-50.6C36.875-54.8 33.475-58.1 29.375-58.1ZM9.775-50.4L7.675-50.4C6.975-50.4 6.375-51 6.375-51.7C6.375-52.4 7.075-53 7.775-53L9.875-53C10.575-53 11.175-52.4 11.175-51.7C11.175-51 10.475-50.4 9.775-50.4ZM50.875-50.4L48.775-50.4C48.075-50.4 47.475-51 47.475-51.7C47.475-52.4 48.075-53 48.775-53L50.875-53C51.575-53 52.175-52.4 52.175-51.7C52.175-51 51.575-50.4 50.875-50.4ZM29.375-68.9C28.675-68.9 28.075-69.5 28.075-70.2L28.075-72.3C28.075-73 28.675-73.6 29.375-73.6C30.075-73.6 30.675-73 30.675-72.3L30.675-70.2C30.575-69.5 30.075-68.9 29.375-68.9ZM29.375-27.8C28.675-27.8 28.075-28.4 28.075-29.1L28.075-31.2C28.075-31.9 28.675-32.5 29.375-32.5C30.075-32.5 30.675-31.9 30.675-31.2L30.675-29.1C30.575-28.4 30.075-27.8 29.375-27.8ZM14.975-63.8C14.675-63.8 14.275-63.9 14.075-64.2L11.975-66.2C11.475-66.7 11.475-67.5 11.975-68C12.475-68.5 13.275-68.5 13.775-68L15.875-66C16.375-65.5 16.375-64.7 15.875-64.2C15.575-63.9 15.275-63.8 14.975-63.8ZM45.775-32.9C45.475-32.9 45.075-33 44.875-33.3L42.775-35.4C42.275-35.9 42.275-36.7 42.775-37.2C43.275-37.7 44.075-37.7 44.575-37.2L46.675-35.1C47.175-34.6 47.175-33.8 46.675-33.3C46.475-33.1 46.075-32.9 45.775-32.9ZM43.675-63.8C43.375-63.8 42.975-63.9 42.775-64.2C42.275-64.7 42.275-65.5 42.775-66L44.875-68.1C45.375-68.6 46.175-68.6 46.675-68.1C47.175-67.6 47.175-66.8 46.675-66.3L44.575-64.2C44.375-63.9 44.075-63.8 43.675-63.8ZM12.875-32.9C12.575-32.9 12.275-33 11.975-33.3C11.475-33.8 11.475-34.6 11.975-35.1L14.075-37.2C14.575-37.7 15.375-37.7 15.875-37.2C16.375-36.7 16.375-35.9 15.875-35.4L13.775-33.3C13.575-33.1 13.175-32.9 12.875-32.9Z"/>
  </g>
 </g>
</svg>
