<?xml version="1.0" encoding="UTF-8"?>
<!--Generator: Apple Native CoreSVG 232.5-->
<!DOCTYPE svg
PUBLIC "-//W3C//DTD SVG 1.1//EN"
       "http://www.w3.org/Graphics/SVG/1.1/DTD/svg11.dtd">
<svg version="1.1" xmlns="http://www.w3.org/2000/svg" xmlns:xlink="http://www.w3.org/1999/xlink" width="3300" height="2200">
 <!--glyph: "", point size: 100.0, font version: "19.0d6e1", template writer version: "123"-->
 <style>.SFSymbolsPreviewWireframe {fill:none;opacity:1.0;stroke:black;stroke-width:0.5}
</style>
 <g id="Notes">
  <rect height="2200" id="artboard" style="fill:white;opacity:1" width="3300" x="0" y="0"/>
  <line style="fill:none;stroke:black;opacity:1;stroke-width:0.5;" x1="263" x2="3036" y1="292" y2="292"/>
  <text style="stroke:none;fill:black;font-family:sans-serif;font-size:13;font-weight:bold;" transform="matrix(1 0 0 1 263 322)">Weight/Scale Variations</text>
  <text style="stroke:none;fill:black;font-family:sans-serif;font-size:13;text-anchor:middle;" transform="matrix(1 0 0 1 559.711 322)">Ultralight</text>
  <text style="stroke:none;fill:black;font-family:sans-serif;font-size:13;text-anchor:middle;" transform="matrix(1 0 0 1 856.422 322)">Thin</text>
  <text style="stroke:none;fill:black;font-family:sans-serif;font-size:13;text-anchor:middle;" transform="matrix(1 0 0 1 1153.13 322)">Light</text>
  <text style="stroke:none;fill:black;font-family:sans-serif;font-size:13;text-anchor:middle;" transform="matrix(1 0 0 1 1449.84 322)">Regular</text>
  <text style="stroke:none;fill:black;font-family:sans-serif;font-size:13;text-anchor:middle;" transform="matrix(1 0 0 1 1746.56 322)">Medium</text>
  <text style="stroke:none;fill:black;font-family:sans-serif;font-size:13;text-anchor:middle;" transform="matrix(1 0 0 1 2043.27 322)">Semibold</text>
  <text style="stroke:none;fill:black;font-family:sans-serif;font-size:13;text-anchor:middle;" transform="matrix(1 0 0 1 2339.98 322)">Bold</text>
  <text style="stroke:none;fill:black;font-family:sans-serif;font-size:13;text-anchor:middle;" transform="matrix(1 0 0 1 2636.69 322)">Heavy</text>
  <text style="stroke:none;fill:black;font-family:sans-serif;font-size:13;text-anchor:middle;" transform="matrix(1 0 0 1 2933.4 322)">Black</text>
  <line style="fill:none;stroke:black;opacity:1;stroke-width:0.5;" x1="263" x2="3036" y1="1903" y2="1903"/>
  <g transform="matrix(0.2 0 0 0.2 263 1933)">
   <path d="m46.2402 4.15039c21.5332 0 39.4531-17.8711 39.4531-39.4043s-17.9688-39.4043-39.502-39.4043c-21.4844 0-39.3555 17.8711-39.3555 39.4043s17.9199 39.4043 39.4043 39.4043Zm0-7.42188c-17.7246 0-31.8848-14.209-31.8848-31.9824s14.1113-31.9824 31.8359-31.9824c17.7734 0 32.0312 14.209 32.0312 31.9824s-14.209 31.9824-31.9824 31.9824Zm-17.9688-31.9824c0 2.14844 1.51367 3.61328 3.75977 3.61328h10.498v10.5957c0 2.19727 1.46484 3.71094 3.61328 3.71094 2.24609 0 3.71094-1.51367 3.71094-3.71094v-10.5957h10.5957c2.19727 0 3.71094-1.46484 3.71094-3.61328 0-2.19727-1.51367-3.71094-3.71094-3.71094h-10.5957v-10.5469c0-2.24609-1.46484-3.75977-3.71094-3.75977-2.14844 0-3.61328 1.51367-3.61328 3.75977v10.5469h-10.498c-2.24609 0-3.75977 1.51367-3.75977 3.71094Z"/>
  </g>
  <g transform="matrix(0.2 0 0 0.2 281.506 1933)">
   <path d="m58.5449 14.5508c27.2461 0 49.8047-22.6074 49.8047-49.8047 0-27.2461-22.6074-49.8047-49.8535-49.8047-27.1973 0-49.7559 22.5586-49.7559 49.8047 0 27.1973 22.6074 49.8047 49.8047 49.8047Zm0-8.30078c-23.0469 0-41.4551-18.457-41.4551-41.5039s18.3594-41.5039 41.4062-41.5039 41.5527 18.457 41.5527 41.5039-18.457 41.5039-41.5039 41.5039Zm-22.6562-41.5039c0 2.39258 1.66016 4.00391 4.15039 4.00391h14.3555v14.4043c0 2.44141 1.66016 4.15039 4.05273 4.15039 2.44141 0 4.15039-1.66016 4.15039-4.15039v-14.4043h14.4043c2.44141 0 4.15039-1.61133 4.15039-4.00391 0-2.44141-1.70898-4.15039-4.15039-4.15039h-14.4043v-14.3555c0-2.49023-1.70898-4.19922-4.15039-4.19922-2.39258 0-4.05273 1.70898-4.05273 4.19922v14.3555h-14.3555c-2.49023 0-4.15039 1.70898-4.15039 4.15039Z"/>
  </g>
  <g transform="matrix(0.2 0 0 0.2 304.924 1933)">
   <path d="m74.8535 28.3203c34.8145 0 63.623-28.8086 63.623-63.5742 0-34.8145-28.8574-63.623-63.6719-63.623-34.7656 0-63.5254 28.8086-63.5254 63.623 0 34.7656 28.8086 63.5742 63.5742 63.5742Zm0-9.08203c-30.1758 0-54.4434-24.3164-54.4434-54.4922 0-30.2246 24.2188-54.4922 54.3945-54.4922 30.2246 0 54.541 24.2676 54.541 54.4922 0 30.1758-24.2676 54.4922-54.4922 54.4922Zm-28.8574-54.4922c0 2.58789 1.85547 4.39453 4.58984 4.39453h19.7266v19.7754c0 2.68555 1.85547 4.58984 4.44336 4.58984 2.68555 0 4.54102-1.85547 4.54102-4.58984v-19.7754h19.7754c2.68555 0 4.58984-1.80664 4.58984-4.39453 0-2.73438-1.85547-4.58984-4.58984-4.58984h-19.7754v-19.7266c0-2.73438-1.85547-4.63867-4.54102-4.63867-2.58789 0-4.44336 1.9043-4.44336 4.63867v19.7266h-19.7266c-2.73438 0-4.58984 1.85547-4.58984 4.58984Z"/>
  </g>
  <text style="stroke:none;fill:black;font-family:sans-serif;font-size:13;font-weight:bold;" transform="matrix(1 0 0 1 263 1953)">Design Variations</text>
  <text style="stroke:none;fill:black;font-family:sans-serif;font-size:13;" transform="matrix(1 0 0 1 263 1971)">Symbols are supported in up to nine weights and three scales.</text>
  <text style="stroke:none;fill:black;font-family:sans-serif;font-size:13;" transform="matrix(1 0 0 1 263 1989)">For optimal layout with text and other symbols, vertically align</text>
  <text style="stroke:none;fill:black;font-family:sans-serif;font-size:13;" transform="matrix(1 0 0 1 263 2007)">symbols with the adjacent text.</text>
  <line style="fill:none;stroke:#00AEEF;stroke-width:0.5;opacity:1.0;" x1="776" x2="776" y1="1919" y2="1933"/>
  <g transform="matrix(0.2 0 0 0.2 776 1933)">
   <path d="m16.5527 0.78125c2.58789 0 3.85742-0.976562 4.78516-3.71094l6.29883-17.2363h28.8086l6.29883 17.2363c0.927734 2.73438 2.19727 3.71094 4.73633 3.71094 2.58789 0 4.24805-1.5625 4.24805-4.00391 0-0.830078-0.146484-1.61133-0.537109-2.63672l-22.9004-60.9863c-1.12305-2.97852-3.125-4.49219-6.25-4.49219-3.02734 0-5.07812 1.46484-6.15234 4.44336l-22.9004 61.084c-0.390625 1.02539-0.537109 1.80664-0.537109 2.63672 0 2.44141 1.5625 3.95508 4.10156 3.95508Zm13.4766-28.3691 11.8652-32.8613h0.244141l11.8652 32.8613Z"/>
  </g>
  <line style="fill:none;stroke:#00AEEF;stroke-width:0.5;opacity:1.0;" x1="792.836" x2="792.836" y1="1919" y2="1933"/>
  <text style="stroke:none;fill:black;font-family:sans-serif;font-size:13;font-weight:bold;" transform="matrix(1 0 0 1 776 1953)">Margins</text>
  <text style="stroke:none;fill:black;font-family:sans-serif;font-size:13;" transform="matrix(1 0 0 1 776 1971)">Leading and trailing margins on the left and right side of each symbol</text>
  <text style="stroke:none;fill:black;font-family:sans-serif;font-size:13;" transform="matrix(1 0 0 1 776 1989)">can be adjusted by modifying the x-location of the margin guidelines.</text>
  <text style="stroke:none;fill:black;font-family:sans-serif;font-size:13;" transform="matrix(1 0 0 1 776 2007)">Modifications are automatically applied proportionally to all</text>
  <text style="stroke:none;fill:black;font-family:sans-serif;font-size:13;" transform="matrix(1 0 0 1 776 2025)">scales and weights.</text>
  <g transform="matrix(0.2 0 0 0.2 1289 1933)">
   <path d="m14.209 9.32617 8.49609 8.54492c4.29688 4.3457 9.22852 4.05273 13.8672-1.07422l53.4668-58.9355-4.83398-4.88281-53.0762 58.3984c-1.75781 2.00195-3.41797 2.49023-5.76172 0.146484l-5.85938-5.81055c-2.34375-2.29492-1.80664-4.00391 0.195312-5.81055l57.373-54.0039-4.88281-4.83398-57.959 54.4434c-4.93164 4.58984-5.32227 9.47266-1.02539 13.8184Zm32.0801-90.9668c-2.09961 2.05078-2.24609 4.93164-1.07422 6.88477 1.17188 1.80664 3.4668 2.97852 6.68945 2.14844 7.32422-1.70898 14.9414-2.00195 22.0703 2.68555l-2.92969 7.27539c-1.70898 4.15039-0.830078 7.08008 1.85547 9.81445l11.4746 11.5723c2.44141 2.44141 4.49219 2.53906 7.32422 2.05078l5.32227-0.976562 3.32031 3.36914-0.195312 2.7832c-0.195312 2.49023 0.439453 4.39453 2.88086 6.78711l3.80859 3.71094c2.39258 2.39258 5.46875 2.53906 7.8125 0.195312l14.5508-14.5996c2.34375-2.34375 2.24609-5.32227-0.146484-7.71484l-3.85742-3.80859c-2.39258-2.39258-4.24805-3.17383-6.64062-2.97852l-2.88086 0.244141-3.22266-3.17383 1.2207-5.61523c0.634766-2.83203-0.146484-5.0293-3.07617-7.95898l-10.9863-10.9375c-16.6992-16.6016-38.8672-16.2109-53.3203-1.75781Zm7.4707 1.85547c12.1582-8.88672 28.6133-7.37305 39.7461 3.75977l12.1582 12.0605c1.17188 1.17188 1.36719 2.09961 1.02539 3.80859l-1.61133 7.42188 7.51953 7.42188 4.93164-0.292969c1.26953-0.0488281 1.66016 0.0488281 2.63672 1.02539l2.88086 2.88086-12.207 12.207-2.88086-2.88086c-0.976562-0.976562-1.12305-1.36719-1.07422-2.68555l0.341797-4.88281-7.4707-7.42188-7.61719 1.26953c-1.61133 0.341797-2.34375 0.195312-3.56445-0.976562l-10.0098-10.0098c-1.26953-1.17188-1.41602-2.00195-0.634766-3.85742l4.39453-10.4492c-7.8125-7.27539-17.9688-10.4004-28.125-7.42188-0.78125 0.195312-1.07422-0.439453-0.439453-0.976562Z"/>
  </g>
  <text style="stroke:none;fill:black;font-family:sans-serif;font-size:13;font-weight:bold;" transform="matrix(1 0 0 1 1289 1953)">Exporting</text>
  <text style="stroke:none;fill:black;font-family:sans-serif;font-size:13;" transform="matrix(1 0 0 1 1289 1971)">Symbols should be outlined when exporting to ensure the</text>
  <text style="stroke:none;fill:black;font-family:sans-serif;font-size:13;" transform="matrix(1 0 0 1 1289 1989)">design is preserved when submitting to Xcode.</text>
  <text id="template-version" style="stroke:none;fill:black;font-family:sans-serif;font-size:13;text-anchor:end;" transform="matrix(1 0 0 1 3036 1933)">Template v.5.0</text>
  <text style="stroke:none;fill:black;font-family:sans-serif;font-size:13;text-anchor:end;" transform="matrix(1 0 0 1 3036 1951)">Requires Xcode 15 or greater</text>
  <text id="descriptive-name" style="stroke:none;fill:black;font-family:sans-serif;font-size:13;text-anchor:end;" transform="matrix(1 0 0 1 3036 1969)">Generated from fiori.full.stacked.chart</text>
  <text style="stroke:none;fill:black;font-family:sans-serif;font-size:13;text-anchor:end;" transform="matrix(1 0 0 1 3036 1987)">Typeset at 100.0 points</text>
  <text style="stroke:none;fill:black;font-family:sans-serif;font-size:13;" transform="matrix(1 0 0 1 263 726)">Small</text>
  <text style="stroke:none;fill:black;font-family:sans-serif;font-size:13;" transform="matrix(1 0 0 1 263 1156)">Medium</text>
  <text style="stroke:none;fill:black;font-family:sans-serif;font-size:13;" transform="matrix(1 0 0 1 263 1586)">Large</text>
 </g>
 <g id="Guides">
  <g id="H-reference" style="fill:#27AAE1;stroke:none;" transform="matrix(1 0 0 1 339 696)">
   <path d="M0.993654 0L3.63775 0L29.3281-67.1323L30.0303-67.1323L30.0303-70.459L28.1226-70.459ZM11.6885-24.4799L46.9815-24.4799L46.2315-26.7285L12.4385-26.7285ZM55.1196 0L57.7637 0L30.6382-70.459L29.4326-70.459L29.4326-67.1323Z"/>
  </g>
  <line id="Baseline-S" style="fill:none;stroke:#27AAE1;opacity:1;stroke-width:0.5;" x1="263" x2="3036" y1="696" y2="696"/>
  <line id="Capline-S" style="fill:none;stroke:#27AAE1;opacity:1;stroke-width:0.5;" x1="263" x2="3036" y1="625.541" y2="625.541"/>
  <g id="H-reference" style="fill:#27AAE1;stroke:none;" transform="matrix(1 0 0 1 339 1126)">
   <path d="M0.993654 0L3.63775 0L29.3281-67.1323L30.0303-67.1323L30.0303-70.459L28.1226-70.459ZM11.6885-24.4799L46.9815-24.4799L46.2315-26.7285L12.4385-26.7285ZM55.1196 0L57.7637 0L30.6382-70.459L29.4326-70.459L29.4326-67.1323Z"/>
  </g>
  <line id="Baseline-M" style="fill:none;stroke:#27AAE1;opacity:1;stroke-width:0.5;" x1="263" x2="3036" y1="1126" y2="1126"/>
  <line id="Capline-M" style="fill:none;stroke:#27AAE1;opacity:1;stroke-width:0.5;" x1="263" x2="3036" y1="1055.54" y2="1055.54"/>
  <g id="H-reference" style="fill:#27AAE1;stroke:none;" transform="matrix(1 0 0 1 339 1556)">
   <path d="M0.993654 0L3.63775 0L29.3281-67.1323L30.0303-67.1323L30.0303-70.459L28.1226-70.459ZM11.6885-24.4799L46.9815-24.4799L46.2315-26.7285L12.4385-26.7285ZM55.1196 0L57.7637 0L30.6382-70.459L29.4326-70.459L29.4326-67.1323Z"/>
  </g>
  <line id="Baseline-L" style="fill:none;stroke:#27AAE1;opacity:1;stroke-width:0.5;" x1="263" x2="3036" y1="1556" y2="1556"/>
  <line id="Capline-L" style="fill:none;stroke:#27AAE1;opacity:1;stroke-width:0.5;" x1="263" x2="3036" y1="1485.54" y2="1485.54"/>
  <line id="left-margin-Ultralight-S" style="fill:none;stroke:#00AEEF;stroke-width:0.5;opacity:1.0;" x1="515.011" x2="515.011" y1="600.785" y2="720.121"/>
  <line id="right-margin-Ultralight-S" style="fill:none;stroke:#00AEEF;stroke-width:0.5;opacity:1.0;" x1="604.411" x2="604.411" y1="600.785" y2="720.121"/>
  <line id="left-margin-Regular-S" style="fill:none;stroke:#00AEEF;stroke-width:0.5;opacity:1.0;" x1="1403.39" x2="1403.39" y1="600.785" y2="720.121"/>
  <line id="right-margin-Regular-S" style="fill:none;stroke:#00AEEF;stroke-width:0.5;opacity:1.0;" x1="1496.29" x2="1496.29" y1="600.785" y2="720.121"/>
  <line id="left-margin-Black-S" style="fill:none;stroke:#00AEEF;stroke-width:0.5;opacity:1.0;" x1="2884.9" x2="2884.9" y1="600.785" y2="720.121"/>
  <line id="right-margin-Black-S" style="fill:none;stroke:#00AEEF;stroke-width:0.5;opacity:1.0;" x1="2981.9" x2="2981.9" y1="600.785" y2="720.121"/>
 </g>
 <g id="Symbols">
  <g id="Black-S" transform="matrix(1 0 0 1 2884.9 696)">
   <path class="SFSymbolsPreviewWireframe" d="M80.385 2.4L16.685 2.4C13.485 2.4 10.885-0.2 10.885-3.4L10.885-67.1C10.885-70 13.085-72.9 16.685-72.9C19.785-72.9 22.485-70.5 22.485-67.1L22.485-9.2L80.385-9.2C83.585-9.2 86.185-6.7 86.185-3.4C86.185-0.5 83.885 2.4 80.385 2.4ZM37.885-59.9C37.885-56.6967 35.2883-54.1 32.085-54.1C28.8817-54.1 26.285-56.6967 26.285-59.9C26.285-63.1033 28.8817-65.7 32.085-65.7C35.2883-65.7 37.885-63.1033 37.885-59.9ZM60.485-39.4C60.485-42.6 57.885-45.2 54.685-45.2C51.485-45.2 48.885-42.6 48.885-39.4C48.885-36.2 51.485-33.6 54.685-33.6C57.885-33.6 60.485-36.2 60.485-39.4ZM37.885-18.8C37.885-15.5967 35.2883-13 32.085-13C28.8817-13 26.285-15.5967 26.285-18.8C26.285-22.0033 28.8817-24.6 32.085-24.6C35.2883-24.6 37.885-22.0033 37.885-18.8ZM67.985-54.1C71.185-54.1 73.785-56.7 73.785-59.9C73.785-63.1 71.185-65.7 67.985-65.7C64.785-65.7 62.185-63.1 62.185-59.9C62.185-56.7 64.785-54.1 67.985-54.1ZM86.185-59.9C86.185-56.6967 83.5883-54.1 80.385-54.1C77.1817-54.1 74.585-56.6967 74.585-59.9C74.585-63.1033 77.1817-65.7 80.385-65.7C83.5883-65.7 86.185-63.1033 86.185-59.9ZM54.685-24.6L47.485-24.6C44.285-24.6 41.685-22 41.685-18.8C41.685-15.6 44.285-13 47.485-13L54.685-13C57.885-13 60.485-15.6 60.485-18.8C60.485-22 57.885-24.6 54.685-24.6ZM80.385-24.6L68.085-24.6C64.885-24.6 62.285-22 62.285-18.8C62.285-15.6 64.885-13 68.085-13L80.385-13C83.585-13 86.185-15.6 86.185-18.8C86.185-22 83.585-24.6 80.385-24.6ZM80.385-45.2L67.985-45.2C64.785-45.2 62.185-42.6 62.185-39.4L62.185-39.4C62.185-36.2 64.785-33.6 67.985-33.6L80.285-33.6C83.485-33.6 86.085-36.2 86.085-39.4L86.085-39.4C86.185-42.6 83.585-45.2 80.385-45.2ZM45.085-39.4C45.085-42.6 42.485-45.2 39.285-45.2L32.085-45.2C28.885-45.2 26.285-42.6 26.285-39.4L26.285-39.4C26.285-36.2 28.885-33.6 32.085-33.6L39.285-33.6C42.485-33.5 45.085-36.2 45.085-39.4L45.085-39.4ZM54.685-65.7L47.485-65.7C44.285-65.7 41.685-63.1 41.685-59.9C41.685-56.7 44.285-54.1 47.485-54.1L54.685-54.1C57.885-54.1 60.485-56.7 60.485-59.9C60.485-63.1 57.885-65.7 54.685-65.7Z"/>
  </g>
  <g id="Regular-S" transform="matrix(1 0 0 1 1403.39 696)">
   <path class="SFSymbolsPreviewWireframe" d="M78.335 0.7L14.635 0.7C12.335 0.7 10.535-1.1 10.535-3.4L10.535-67.1C10.535-69.4 12.335-71.2 14.635-71.2C16.935-71.2 18.735-69.4 18.735-67.1L18.735-7.5L78.335-7.5C80.635-7.5 82.435-5.7 82.435-3.4C82.435-1.1 80.635 0.7 78.335 0.7ZM34.135-59.9C34.135-57.6356 32.2994-55.8 30.035-55.8C27.7706-55.8 25.935-57.6356 25.935-59.9C25.935-62.1644 27.7706-64 30.035-64C32.2994-64 34.135-62.1644 34.135-59.9ZM56.735-39.4C56.735-41.7 54.935-43.5 52.635-43.5C50.335-43.5 48.535-41.7 48.535-39.4C48.535-37.1 50.335-35.3 52.635-35.3C54.935-35.3 56.735-37.1 56.735-39.4ZM34.135-18.8C34.135-16.5356 32.2994-14.7 30.035-14.7C27.7706-14.7 25.935-16.5356 25.935-18.8C25.935-21.0644 27.7706-22.9 30.035-22.9C32.2994-22.9 34.135-21.0644 34.135-18.8ZM66.035-55.8C68.335-55.8 70.135-57.6 70.135-59.9C70.135-62.2 68.335-64 66.035-64C63.735-64 61.935-62.2 61.935-59.9C61.935-57.6 63.735-55.8 66.035-55.8ZM82.435-59.9C82.435-57.6356 80.5994-55.8 78.335-55.8C76.0706-55.8 74.235-57.6356 74.235-59.9C74.235-62.1644 76.0706-64 78.335-64C80.5994-64 82.435-62.1644 82.435-59.9ZM52.635-22.9L45.435-22.9C43.135-22.9 41.335-21.1 41.335-18.8C41.335-16.5 43.135-14.7 45.435-14.7L52.635-14.7C54.935-14.7 56.735-16.5 56.735-18.8C56.735-21.1 54.935-22.9 52.635-22.9ZM78.335-22.9L66.035-22.9C63.735-22.9 61.935-21.1 61.935-18.8C61.935-16.5 63.735-14.7 66.035-14.7L78.335-14.7C80.635-14.7 82.435-16.5 82.435-18.8C82.435-21.1 80.635-22.9 78.335-22.9ZM78.335-43.5L66.035-43.5C63.735-43.5 61.935-41.7 61.935-39.4L61.935-39.4C61.935-37.1 63.735-35.3 66.035-35.3L78.335-35.3C80.635-35.3 82.435-37.1 82.435-39.4L82.435-39.4C82.435-41.6 80.635-43.5 78.335-43.5ZM41.335-39.4C41.335-41.7 39.535-43.5 37.235-43.5L30.035-43.5C27.735-43.5 25.935-41.7 25.935-39.4L25.935-39.4C25.935-37.1 27.735-35.3 30.035-35.3L37.235-35.3C39.535-35.2 41.335-37.1 41.335-39.4L41.335-39.4ZM52.635-64L45.435-64C43.135-64 41.335-62.2 41.335-59.9C41.335-57.6 43.135-55.8 45.435-55.8L52.635-55.8C54.935-55.8 56.735-57.6 56.735-59.9C56.735-62.2 54.935-64 52.635-64Z"/>
  </g>
  <g id="Ultralight-S" transform="matrix(1 0 0 1 515.011 696)">
   <path class="SFSymbolsPreviewWireframe" d="M76.575-2.1L12.875-2.1C12.175-2.1 11.575-2.7 11.575-3.4L11.575-67.1C11.575-67.7 11.975-68.4 12.875-68.4C13.475-68.4 14.175-67.9 14.175-67.1L14.175-4.6L76.675-4.6C77.275-4.6 77.975-4.1 77.975-3.3C77.875-2.6 77.175-2.1 76.575-2.1ZM29.875-59.9C29.875-59.0163 29.1587-58.3 28.275-58.3C27.3913-58.3 26.675-59.0163 26.675-59.9C26.675-60.7837 27.3913-61.5 28.275-61.5C29.1587-61.5 29.875-60.7837 29.875-59.9ZM52.475-39.4C52.475-40.3 51.775-41 50.875-41C49.975-41 49.275-40.3 49.275-39.4C49.275-38.5 49.975-37.8 50.875-37.8C51.775-37.8 52.475-38.5 52.475-39.4ZM29.875-18.8C29.875-17.9163 29.1587-17.2 28.275-17.2C27.3913-17.2 26.675-17.9163 26.675-18.8C26.675-19.6837 27.3913-20.4 28.275-20.4C29.1587-20.4 29.875-19.6837 29.875-18.8ZM64.275-58.4C65.175-58.4 65.875-59.1 65.875-60C65.875-60.9 65.175-61.6 64.275-61.6C63.375-61.6 62.675-60.9 62.675-60C62.675-59.1 63.375-58.4 64.275-58.4ZM78.175-59.9C78.175-59.0163 77.4587-58.3 76.575-58.3C75.6913-58.3 74.975-59.0163 74.975-59.9C74.975-60.7837 75.6913-61.5 76.575-61.5C77.4587-61.5 78.175-60.7837 78.175-59.9ZM50.875-20.1L43.675-20.1C42.975-20.1 42.375-19.5 42.375-18.8C42.375-18.1 42.975-17.5 43.675-17.5L50.875-17.5C51.575-17.5 52.175-18.1 52.175-18.8C52.175-19.5 51.575-20.1 50.875-20.1ZM76.575-20.1L64.275-20.1C63.575-20.1 62.975-19.5 62.975-18.8C62.975-18.1 63.575-17.5 64.275-17.5L76.575-17.5C77.275-17.5 77.875-18.1 77.875-18.8C77.875-19.5 77.275-20.1 76.575-20.1ZM76.575-40.6L64.275-40.6C63.575-40.6 62.975-40 62.975-39.3L62.975-39.3C62.975-38.6 63.575-38 64.275-38L76.575-38C77.275-38 77.875-38.6 77.875-39.3L77.875-39.3C77.875-40.1 77.275-40.6 76.575-40.6ZM36.775-39.4C36.775-40.1 36.175-40.7 35.475-40.7L28.275-40.7C27.575-40.7 26.975-40.1 26.975-39.4L26.975-39.4C26.975-38.7 27.575-38.1 28.275-38.1L35.475-38.1C36.175-38.1 36.775-38.7 36.775-39.4L36.775-39.4ZM50.875-61.2L43.675-61.2C42.975-61.2 42.375-60.6 42.375-59.9C42.375-59.2 42.975-58.6 43.675-58.6L50.875-58.6C51.575-58.6 52.175-59.2 52.175-59.9C52.175-60.6 51.575-61.2 50.875-61.2Z"/>
  </g>
 </g>
</svg>
