<svg width="160" height="161" viewBox="0 0 160 161" fill="none" xmlns="http://www.w3.org/2000/svg">
<rect y="46" width="160" height="69" rx="12" fill="#222F3B"/>
<path d="M125.97 99.2431L78.7284 89.0664L50.8268 96.1131L47 99.2431L92.6106 110.856L110.05 104.126L109.797 101.861L112.827 103.318H114.621L125.97 99.2431Z" fill="#101619"/>
<path d="M81.7842 40.9732C80.0687 40.9732 78.6699 39.5744 78.6699 37.859C78.6699 36.1435 80.0687 34.75 81.7842 34.75C83.4996 34.75 84.8984 36.1488 84.8984 37.8643C84.8984 39.5797 83.4996 40.9785 81.7842 40.9785V40.9732ZM81.7842 35.8057C80.6493 35.8057 79.7256 36.7294 79.7256 37.8643C79.7256 38.9991 80.6493 39.9228 81.7842 39.9228C82.919 39.9228 83.8427 38.9991 83.8427 37.8643C83.8427 36.7294 82.919 35.8057 81.7842 35.8057Z" fill="#C35500"/>
<path d="M88.4877 68.3897V68.3791L88.3611 68.738L87.9916 68.3791L78.1104 68.4741L80.7602 82.8366L86.123 86.4206L82.2698 85.4125V85.4019L81.8634 85.2963L80.9766 85.0694L80.5279 87.4816L80.2798 85.5497L78.7597 79.7171L77.8834 78.3711L77.8307 78.0861L77.6248 77.0145L76.7275 72.2429L75.4079 76.6767L70.8157 68.0782L66.9625 69.6354L66.3132 69.8782L69.1477 66.3047C69.1477 66.3047 55.7564 68.7539 55.54 68.9492L55.16 78.9148L54.6216 93.0978L85.4791 100.123L85.4949 99.9808L86.8409 86.447L88.6355 68.3897H88.4877Z" fill="#D5DADD"/>
<path d="M76.9651 78.044L74.8273 79.6222C74.5212 79.8914 74.281 80.112 73.835 79.39L69.4222 71.4407C69.1217 70.8806 68.7939 70.6563 68.3454 71.2665L58.8496 83.4596C58.2152 84.2158 58.5165 84.4452 59.3405 84.5998L67.3742 86.1569L78.8283 88.3791L82.7871 89.1445C83.5362 89.3153 83.9117 88.9676 83.4364 88.1363L81.8634 85.2912L80.9766 85.0643L80.528 87.4765L80.2799 85.5446L78.7597 79.712L77.8835 78.366L77.8307 78.0809C77.5879 77.8487 77.3696 77.744 76.9651 78.0387V78.044Z" fill="#046C7C"/>
<path d="M92.3356 71.5738L88.8255 105.128L50.9372 96.1183L51.6709 72.9884L51.8187 67.4883L50.3513 68.8976L48.4036 69.5996L47.8599 70.6395L47.1104 99.2431L92.7209 110.856L93.6658 109.504L98.1682 70.2067L95.7085 69.0032L92.3356 71.5738Z" fill="#8D2A00"/>
<path d="M49.3959 67.6575L48.4036 69.6L50.3513 68.898L51.8187 67.4886L52.9483 66.4805L50.6733 67.2353L49.3959 67.6575Z" fill="#FF7F4C"/>
<path opacity="0.5" d="M49.1636 69.3242L48.6041 98.0967L47.1104 99.2421L47.8599 70.6385L48.4036 69.5987L49.1636 69.3242Z" fill="#FF7F4C"/>
<path d="M92.1824 73.0621L92.3355 71.5736L90.1925 71.2516L88.2289 72.6081L85.4894 100.114L54.632 93.0883L55.8196 66.9497C54.7639 66.7738 53.7962 66.5978 52.9165 66.4219L51.8186 67.4881L50.9424 96.1075L88.8307 105.123L92.1824 73.0621Z" fill="#C35500"/>
<path d="M92.3356 71.5722L92.8898 68.0251L92.7948 67.3812L92.874 66.6211L92.3778 66.885C91.7814 67.4604 91.1743 67.9882 90.467 68.2257C89.9445 68.3313 89.6172 68.4052 89.4008 68.4633L88.5985 68.8908L88.229 72.6068L90.0448 72.9499L92.3356 71.5669V71.5722Z" fill="#8D2A00"/>
<path d="M98.4214 67.7295L96.859 66.885L95.2861 66.0352L92.8897 68.0251L92.3354 71.5722L95.3916 69.9728L98.0731 71.0021L98.4425 67.7981L98.4478 67.7454L98.4214 67.7295Z" fill="#450B00"/>
<path d="M49.1638 69.3252L50.3514 68.8976L51.8188 67.4883L50.9373 96.1183L48.6042 98.0977L49.1638 69.3252Z" fill="#8D2A00"/>
<path d="M48.6042 98.0966L50.9373 96.1172L88.8256 105.127L91.8923 108.991L48.6042 98.0966Z" fill="#FF7F4C"/>
<path d="M52.4046 60.6041L59.3035 35.7798L99.7254 48.9494L92.8899 68.015L95.1385 66.8484L97.2182 67.466L99.3981 66.7693L107.263 45.4551L56.6907 30L48.1292 61.475L50.3936 60.5777L51.2117 61.1531L52.4046 60.6041Z" fill="#FF7F4C"/>
<path d="M105.489 45.8754L97.218 67.464L99.398 66.7673L107.263 45.4531L105.489 45.8754Z" fill="#450B00"/>
<path d="M56.6907 30L57.683 31.6574L105.489 45.8774L107.263 45.4551L56.6907 30Z" fill="#C35500"/>
<path d="M56.6907 30L57.8203 31.1665L49.4646 60.9472L48.1292 61.475L56.6907 30Z" fill="#A93E00"/>
<path d="M49.4644 60.9486L50.3934 60.5792L51.2115 61.1545L52.4044 60.6056L53.3281 57.2696L59.3033 35.7813L57.82 31.168" fill="#FF7F4C"/>
<path d="M55.655 67.3589L55.9307 66.9688L55.9956 68.8184L55.7391 68.8847L55.655 67.3589Z" fill="#FF7F4C"/>
<path d="M51.8188 67.4881L53.7084 67.467L55.6682 67.3816L55.9253 66.9708L52.9114 66.4219L51.8135 67.4881H51.8188Z" fill="#FF7F4C"/>
<path d="M59.3033 35.7813L57.8201 31.168L105.489 45.8788L99.7252 48.9509L59.3033 35.7813Z" fill="#8D2A00"/>
<path d="M92.721 110.854L91.8923 108.991L96.7062 67.3125L97.2182 67.4656L98.4481 67.7453L93.6659 109.503L92.721 110.854Z" fill="#450B00"/>
<path d="M61.874 41.0039L56.4109 60.2067L61.816 61.1462L65.9384 61.3415L67.675 63.1784L71.4649 63.4898L72.0508 57.9053L73.7293 63.5004L74.9486 62.6242L76.1151 61.7849L77.0177 61.3521L77.952 61.426L82.1589 60.629L83.9324 60.3017L84.55 60.1856L86.4027 59.8425L84.5869 60.5498L84.0697 60.7451L78.7068 62.8195V63.9227L78.7121 63.928V63.9332L80.0897 65.0259H83.1512H84.5342L88.3715 68.7418L90.029 64.0441L94.3097 51.8932L61.874 41.0039Z" fill="#D5DADD"/>
<path d="M76.1152 61.7864L77.0178 61.3536L77.9521 61.4275L82.1643 60.6304L83.9325 60.3032C83.468 59.0311 82.4968 57.9437 81.1561 57.4001C78.7175 56.4024 76.0466 57.5954 75.1493 60.0076C74.8326 60.8627 74.7798 61.7706 74.954 62.6257L76.1205 61.7864H76.1152Z" fill="#046C7C"/>
<path d="M84.0696 60.7461L78.7068 62.8205V63.9237H78.7121V63.9342L80.0897 65.0269H83.1512C83.4521 64.6679 83.7054 64.2509 83.8954 63.7812C84.2966 62.7836 84.3283 61.7279 84.0696 60.7461Z" fill="#046C7C"/>
<path d="M99.7256 48.9508L59.3036 35.7812L52.4048 60.6055C52.8798 60.5369 53.3602 60.4788 53.8352 60.4261C54.0094 60.4049 54.1836 60.3891 54.3631 60.3733C54.7167 60.3416 55.0651 60.3099 55.4187 60.2835C55.746 60.2624 56.0785 60.2413 56.4058 60.2255C56.5272 60.2202 56.6486 60.2096 56.77 60.2044C56.6486 60.2044 56.5325 60.2044 56.4111 60.2149L61.8795 41.0121L94.3047 51.8909L88.1606 69.3307C88.4668 69.2938 88.7782 69.2674 89.0896 69.2515H89.1371C89.4485 69.2357 89.7652 69.2304 90.0925 69.2462C90.2086 69.2357 90.3247 69.2199 90.4409 69.1935C90.4831 69.1829 90.52 69.1723 90.5623 69.1618C90.6362 69.146 90.7101 69.1248 90.784 69.1037C90.8315 69.0879 90.8843 69.0668 90.9318 69.0509C90.9951 69.0298 91.0584 69.0034 91.1271 68.9823C91.1798 68.9612 91.2379 68.9348 91.2907 68.9137C91.3488 68.8873 91.4121 68.8609 91.4702 68.8345C91.5282 68.8081 91.5863 68.7765 91.6443 68.7501C91.6971 68.7237 91.7552 68.692 91.808 68.6656C91.8713 68.6339 91.9347 68.597 91.9927 68.5601C92.0402 68.5337 92.093 68.5073 92.1405 68.4756C92.2144 68.4334 92.283 68.3911 92.3569 68.3489C92.3939 68.3278 92.4308 68.3067 92.4678 68.2803C92.605 68.1958 92.7475 68.1114 92.8848 68.0269L99.715 48.9614V48.9508H99.7256Z" fill="#C35500"/>
</svg>
