<?xml version="1.0" encoding="UTF-8"?>
<!--Generator: Apple Native CoreSVG 175.5-->
<!DOCTYPE svg
PUBLIC "-//W3C//DTD SVG 1.1//EN"
       "http://www.w3.org/Graphics/SVG/1.1/DTD/svg11.dtd">
<svg version="1.1" xmlns="http://www.w3.org/2000/svg" xmlns:xlink="http://www.w3.org/1999/xlink" width="3300" height="2200">
 <!--glyph: "", point size: 100.0, font version: "18.0d12e2", template writer version: "101"-->
 <g id="Notes">
  <rect height="2200" id="artboard" style="fill:white;opacity:1" width="3300" x="0" y="0"/>
  <line style="fill:none;stroke:black;opacity:1;stroke-width:0.5;" x1="263" x2="3036" y1="292" y2="292"/>
  <text style="stroke:none;fill:black;font-family:sans-serif;font-size:13;font-weight:bold;" transform="matrix(1 0 0 1 263 322)">Weight/Scale Variations</text>
  <text style="stroke:none;fill:black;font-family:sans-serif;font-size:13;text-anchor:middle;" transform="matrix(1 0 0 1 559.711 322)">Ultralight</text>
  <text style="stroke:none;fill:black;font-family:sans-serif;font-size:13;text-anchor:middle;" transform="matrix(1 0 0 1 856.422 322)">Thin</text>
  <text style="stroke:none;fill:black;font-family:sans-serif;font-size:13;text-anchor:middle;" transform="matrix(1 0 0 1 1153.13 322)">Light</text>
  <text style="stroke:none;fill:black;font-family:sans-serif;font-size:13;text-anchor:middle;" transform="matrix(1 0 0 1 1449.84 322)">Regular</text>
  <text style="stroke:none;fill:black;font-family:sans-serif;font-size:13;text-anchor:middle;" transform="matrix(1 0 0 1 1746.56 322)">Medium</text>
  <text style="stroke:none;fill:black;font-family:sans-serif;font-size:13;text-anchor:middle;" transform="matrix(1 0 0 1 2043.27 322)">Semibold</text>
  <text style="stroke:none;fill:black;font-family:sans-serif;font-size:13;text-anchor:middle;" transform="matrix(1 0 0 1 2339.98 322)">Bold</text>
  <text style="stroke:none;fill:black;font-family:sans-serif;font-size:13;text-anchor:middle;" transform="matrix(1 0 0 1 2636.69 322)">Heavy</text>
  <text style="stroke:none;fill:black;font-family:sans-serif;font-size:13;text-anchor:middle;" transform="matrix(1 0 0 1 2933.4 322)">Black</text>
  <line style="fill:none;stroke:black;opacity:1;stroke-width:0.5;" x1="263" x2="3036" y1="1903" y2="1903"/>
  <g transform="matrix(1 0 0 1 263 1933)">
   <path d="M9.24805 0.830078C13.5547 0.830078 17.1387-2.74414 17.1387-7.05078C17.1387-11.3574 13.5449-14.9316 9.23828-14.9316C4.94141-14.9316 1.36719-11.3574 1.36719-7.05078C1.36719-2.74414 4.95117 0.830078 9.24805 0.830078ZM9.24805-0.654297C5.70312-0.654297 2.87109-3.49609 2.87109-7.05078C2.87109-10.6055 5.69336-13.4473 9.23828-13.4473C12.793-13.4473 15.6445-10.6055 15.6445-7.05078C15.6445-3.49609 12.8027-0.654297 9.24805-0.654297ZM5.6543-7.05078C5.6543-6.62109 5.95703-6.32812 6.40625-6.32812L8.50586-6.32812L8.50586-4.20898C8.50586-3.76953 8.79883-3.4668 9.22852-3.4668C9.67773-3.4668 9.9707-3.76953 9.9707-4.20898L9.9707-6.32812L12.0898-6.32812C12.5293-6.32812 12.832-6.62109 12.832-7.05078C12.832-7.49023 12.5293-7.79297 12.0898-7.79297L9.9707-7.79297L9.9707-9.90234C9.9707-10.3516 9.67773-10.6543 9.22852-10.6543C8.79883-10.6543 8.50586-10.3516 8.50586-9.90234L8.50586-7.79297L6.40625-7.79297C5.95703-7.79297 5.6543-7.49023 5.6543-7.05078Z"/>
  </g>
  <g transform="matrix(1 0 0 1 281.867 1933)">
   <path d="M11.709 2.91016C17.1582 2.91016 21.6699-1.61133 21.6699-7.05078C21.6699-12.5 17.1484-17.0117 11.6992-17.0117C6.25977-17.0117 1.74805-12.5 1.74805-7.05078C1.74805-1.61133 6.26953 2.91016 11.709 2.91016ZM11.709 1.25C7.09961 1.25 3.41797-2.44141 3.41797-7.05078C3.41797-11.6602 7.08984-15.3516 11.6992-15.3516C16.3086-15.3516 20.0098-11.6602 20.0098-7.05078C20.0098-2.44141 16.3184 1.25 11.709 1.25ZM7.17773-7.05078C7.17773-6.57227 7.50977-6.25 8.00781-6.25L10.8789-6.25L10.8789-3.36914C10.8789-2.88086 11.2109-2.53906 11.6895-2.53906C12.1777-2.53906 12.5195-2.87109 12.5195-3.36914L12.5195-6.25L15.4004-6.25C15.8887-6.25 16.2305-6.57227 16.2305-7.05078C16.2305-7.53906 15.8887-7.88086 15.4004-7.88086L12.5195-7.88086L12.5195-10.752C12.5195-11.25 12.1777-11.5918 11.6895-11.5918C11.2109-11.5918 10.8789-11.25 10.8789-10.752L10.8789-7.88086L8.00781-7.88086C7.50977-7.88086 7.17773-7.53906 7.17773-7.05078Z"/>
  </g>
  <g transform="matrix(1 0 0 1 305.646 1933)">
   <path d="M14.9707 5.66406C21.9336 5.66406 27.6953-0.0976562 27.6953-7.05078C27.6953-14.0137 21.9238-19.7754 14.9609-19.7754C8.00781-19.7754 2.25586-14.0137 2.25586-7.05078C2.25586-0.0976562 8.01758 5.66406 14.9707 5.66406ZM14.9707 3.84766C8.93555 3.84766 4.08203-1.01562 4.08203-7.05078C4.08203-13.0957 8.92578-17.9492 14.9609-17.9492C21.0059-17.9492 25.8691-13.0957 25.8691-7.05078C25.8691-1.01562 21.0156 3.84766 14.9707 3.84766ZM9.19922-7.05078C9.19922-6.5332 9.57031-6.17188 10.1172-6.17188L14.0625-6.17188L14.0625-2.2168C14.0625-1.67969 14.4336-1.29883 14.9512-1.29883C15.4883-1.29883 15.8594-1.66992 15.8594-2.2168L15.8594-6.17188L19.8145-6.17188C20.3516-6.17188 20.7324-6.5332 20.7324-7.05078C20.7324-7.59766 20.3613-7.96875 19.8145-7.96875L15.8594-7.96875L15.8594-11.9141C15.8594-12.4609 15.4883-12.8418 14.9512-12.8418C14.4336-12.8418 14.0625-12.4609 14.0625-11.9141L14.0625-7.96875L10.1172-7.96875C9.57031-7.96875 9.19922-7.59766 9.19922-7.05078Z"/>
  </g>
  <text style="stroke:none;fill:black;font-family:sans-serif;font-size:13;font-weight:bold;" transform="matrix(1 0 0 1 263 1953)">Design Variations</text>
  <text style="stroke:none;fill:black;font-family:sans-serif;font-size:13;" transform="matrix(1 0 0 1 263 1971)">Symbols are supported in up to nine weights and three scales.</text>
  <text style="stroke:none;fill:black;font-family:sans-serif;font-size:13;" transform="matrix(1 0 0 1 263 1989)">For optimal layout with text and other symbols, vertically align</text>
  <text style="stroke:none;fill:black;font-family:sans-serif;font-size:13;" transform="matrix(1 0 0 1 263 2007)">symbols with the adjacent text.</text>
  <line style="fill:none;stroke:#00AEEF;stroke-width:0.5;opacity:1.0;" x1="776" x2="776" y1="1919" y2="1933"/>
  <g transform="matrix(1 0 0 1 776 1933)">
   <path d="M3.31055 0.15625C3.82812 0.15625 4.08203-0.0390625 4.26758-0.585938L5.52734-4.0332L11.2891-4.0332L12.5488-0.585938C12.7344-0.0390625 12.9883 0.15625 13.4961 0.15625C14.0137 0.15625 14.3457-0.15625 14.3457-0.644531C14.3457-0.810547 14.3164-0.966797 14.2383-1.17188L9.6582-13.3691C9.43359-13.9648 9.0332-14.2676 8.4082-14.2676C7.80273-14.2676 7.39258-13.9746 7.17773-13.3789L2.59766-1.16211C2.51953-0.957031 2.49023-0.800781 2.49023-0.634766C2.49023-0.146484 2.80273 0.15625 3.31055 0.15625ZM6.00586-5.51758L8.37891-12.0898L8.42773-12.0898L10.8008-5.51758Z"/>
  </g>
  <line style="fill:none;stroke:#00AEEF;stroke-width:0.5;opacity:1.0;" x1="793.197" x2="793.197" y1="1919" y2="1933"/>
  <text style="stroke:none;fill:black;font-family:sans-serif;font-size:13;font-weight:bold;" transform="matrix(1 0 0 1 776 1953)">Margins</text>
  <text style="stroke:none;fill:black;font-family:sans-serif;font-size:13;" transform="matrix(1 0 0 1 776 1971)">Leading and trailing margins on the left and right side of each symbol</text>
  <text style="stroke:none;fill:black;font-family:sans-serif;font-size:13;" transform="matrix(1 0 0 1 776 1989)">can be adjusted by modifying the x-location of the margin guidelines.</text>
  <text style="stroke:none;fill:black;font-family:sans-serif;font-size:13;" transform="matrix(1 0 0 1 776 2007)">Modifications are automatically applied proportionally to all</text>
  <text style="stroke:none;fill:black;font-family:sans-serif;font-size:13;" transform="matrix(1 0 0 1 776 2025)">scales and weights.</text>
  <g transform="matrix(1 0 0 1 1289 1933)">
   <path d="M2.8418 1.86523L4.54102 3.57422C5.40039 4.44336 6.38672 4.38477 7.31445 3.35938L18.0078-8.42773L17.041-9.4043L6.42578 2.27539C6.07422 2.67578 5.74219 2.77344 5.27344 2.30469L4.10156 1.14258C3.63281 0.683594 3.74023 0.341797 4.14062-0.0195312L15.6152-10.8203L14.6387-11.7871L3.04688-0.898438C2.06055 0.0195312 1.98242 0.996094 2.8418 1.86523ZM9.25781-16.3281C8.83789-15.918 8.80859-15.3418 9.04297-14.9512C9.27734-14.5898 9.73633-14.3555 10.3809-14.5215C11.8457-14.8633 13.3691-14.9219 14.7949-13.9844L14.209-12.5293C13.8672-11.6992 14.043-11.1133 14.5801-10.5664L16.875-8.25195C17.3633-7.76367 17.7734-7.74414 18.3398-7.8418L19.4043-8.03711L20.0684-7.36328L20.0293-6.80664C19.9902-6.30859 20.1172-5.92773 20.6055-5.44922L21.3672-4.70703C21.8457-4.22852 22.4609-4.19922 22.9297-4.66797L25.8398-7.58789C26.3086-8.05664 26.2891-8.65234 25.8105-9.13086L25.0391-9.89258C24.5605-10.3711 24.1895-10.5273 23.7109-10.4883L23.1348-10.4395L22.4902-11.0742L22.7344-12.1973C22.8613-12.7637 22.7051-13.2031 22.1191-13.7891L19.9219-15.9766C16.582-19.2969 12.1484-19.2188 9.25781-16.3281ZM10.752-15.957C13.1836-17.7344 16.4746-17.4316 18.7012-15.2051L21.1328-12.793C21.3672-12.5586 21.4062-12.373 21.3379-12.0312L21.0156-10.5469L22.5195-9.0625L23.5059-9.12109C23.7598-9.13086 23.8379-9.11133 24.0332-8.91602L24.6094-8.33984L22.168-5.89844L21.5918-6.47461C21.3965-6.66992 21.3672-6.74805 21.377-7.01172L21.4453-7.98828L19.9512-9.47266L18.4277-9.21875C18.1055-9.15039 17.959-9.17969 17.7148-9.41406L15.7129-11.416C15.459-11.6504 15.4297-11.8164 15.5859-12.1875L16.4648-14.2773C14.9023-15.7324 12.8711-16.3574 10.8398-15.7617C10.6836-15.7227 10.625-15.8496 10.752-15.957Z"/>
  </g>
  <text style="stroke:none;fill:black;font-family:sans-serif;font-size:13;font-weight:bold;" transform="matrix(1 0 0 1 1289 1953)">Exporting</text>
  <text style="stroke:none;fill:black;font-family:sans-serif;font-size:13;" transform="matrix(1 0 0 1 1289 1971)">Symbols should be outlined when exporting to ensure the</text>
  <text style="stroke:none;fill:black;font-family:sans-serif;font-size:13;" transform="matrix(1 0 0 1 1289 1989)">design is preserved when submitting to Xcode.</text>
  <text id="template-version" style="stroke:none;fill:black;font-family:sans-serif;font-size:13;text-anchor:end;" transform="matrix(1 0 0 1 3036 1933)">Template v.3.0</text>
  <text style="stroke:none;fill:black;font-family:sans-serif;font-size:13;text-anchor:end;" transform="matrix(1 0 0 1 3036 1951)">Requires Xcode 13 or greater</text>
  <text id="descriptive-name" style="stroke:none;fill:black;font-family:sans-serif;font-size:13;text-anchor:end;" transform="matrix(1 0 0 1 3036 1969)">Generated from fiori.general.leave.request</text>
  <text style="stroke:none;fill:black;font-family:sans-serif;font-size:13;text-anchor:end;" transform="matrix(1 0 0 1 3036 1987)">Typeset at 100 points</text>
  <text style="stroke:none;fill:black;font-family:sans-serif;font-size:13;" transform="matrix(1 0 0 1 263 726)">Small</text>
  <text style="stroke:none;fill:black;font-family:sans-serif;font-size:13;" transform="matrix(1 0 0 1 263 1156)">Medium</text>
  <text style="stroke:none;fill:black;font-family:sans-serif;font-size:13;" transform="matrix(1 0 0 1 263 1586)">Large</text>
 </g>
 <g id="Guides">
  <g id="H-reference" style="fill:#27AAE1;stroke:none;" transform="matrix(1 0 0 1 339 696)">
   <path d="M0.993654 0L3.63775 0L29.3281-67.1323L30.0303-67.1323L30.0303-70.459L28.1226-70.459ZM11.6885-24.4799L46.9815-24.4799L46.2315-26.7285L12.4385-26.7285ZM55.1196 0L57.7637 0L30.6382-70.459L29.4326-70.459L29.4326-67.1323Z"/>
  </g>
  <line id="Baseline-S" style="fill:none;stroke:#27AAE1;opacity:1;stroke-width:0.5;" x1="263" x2="3036" y1="696" y2="696"/>
  <line id="Capline-S" style="fill:none;stroke:#27AAE1;opacity:1;stroke-width:0.5;" x1="263" x2="3036" y1="625.541" y2="625.541"/>
  <g id="H-reference" style="fill:#27AAE1;stroke:none;" transform="matrix(1 0 0 1 339 1126)">
   <path d="M0.993654 0L3.63775 0L29.3281-67.1323L30.0303-67.1323L30.0303-70.459L28.1226-70.459ZM11.6885-24.4799L46.9815-24.4799L46.2315-26.7285L12.4385-26.7285ZM55.1196 0L57.7637 0L30.6382-70.459L29.4326-70.459L29.4326-67.1323Z"/>
  </g>
  <line id="Baseline-M" style="fill:none;stroke:#27AAE1;opacity:1;stroke-width:0.5;" x1="263" x2="3036" y1="1126" y2="1126"/>
  <line id="Capline-M" style="fill:none;stroke:#27AAE1;opacity:1;stroke-width:0.5;" x1="263" x2="3036" y1="1055.54" y2="1055.54"/>
  <g id="H-reference" style="fill:#27AAE1;stroke:none;" transform="matrix(1 0 0 1 339 1556)">
   <path d="M0.993654 0L3.63775 0L29.3281-67.1323L30.0303-67.1323L30.0303-70.459L28.1226-70.459ZM11.6885-24.4799L46.9815-24.4799L46.2315-26.7285L12.4385-26.7285ZM55.1196 0L57.7637 0L30.6382-70.459L29.4326-70.459L29.4326-67.1323Z"/>
  </g>
  <line id="Baseline-L" style="fill:none;stroke:#27AAE1;opacity:1;stroke-width:0.5;" x1="263" x2="3036" y1="1556" y2="1556"/>
  <line id="Capline-L" style="fill:none;stroke:#27AAE1;opacity:1;stroke-width:0.5;" x1="263" x2="3036" y1="1485.54" y2="1485.54"/>
  <line id="left-margin-Ultralight-S" style="fill:none;stroke:#00AEEF;stroke-width:0.5;opacity:1.0;" x1="515.011" x2="515.011" y1="600.785" y2="720.121"/>
  <line id="right-margin-Ultralight-S" style="fill:none;stroke:#00AEEF;stroke-width:0.5;opacity:1.0;" x1="604.411" x2="604.411" y1="600.785" y2="720.121"/>
  <line id="left-margin-Regular-S" style="fill:none;stroke:#00AEEF;stroke-width:0.5;opacity:1.0;" x1="1403.39" x2="1403.39" y1="600.785" y2="720.121"/>
  <line id="right-margin-Regular-S" style="fill:none;stroke:#00AEEF;stroke-width:0.5;opacity:1.0;" x1="1496.29" x2="1496.29" y1="600.785" y2="720.121"/>
  <line id="left-margin-Black-S" style="fill:none;stroke:#00AEEF;stroke-width:0.5;opacity:1.0;" x1="2884.9" x2="2884.9" y1="600.785" y2="720.121"/>
  <line id="right-margin-Black-S" style="fill:none;stroke:#00AEEF;stroke-width:0.5;opacity:1.0;" x1="2981.9" x2="2981.9" y1="600.785" y2="720.121"/>
 </g>
 <g id="Symbols">
  <g id="Black-S" transform="matrix(1 0 0 1 2884.9 696)">
   <path d="M88.51-40.7L85.51-40.7C84.31-47.4 82.41-52.1 78.51-57.6L82.31-61.4C85.01-64.1 84.21-68.8 80.31-70.4C78.61-71.1 76.11-70.5 74.81-69.2L70.91-65.3C65.51-68.9 61.01-71.3 54.01-72.3L54.01-75.3C54.01-78.2 51.71-80.7 48.61-80.7C45.21-80.7 43.21-77.9 43.21-75.3L43.21-72.3C36.71-71.1 31.71-69.2 26.31-65.3L22.51-69.1C20.21-71.4 16.81-71.1 14.81-69.1C12.51-66.8 12.81-63.4 14.81-61.4L18.61-57.6C14.91-52.3 12.71-47.6 11.61-40.7L8.61-40.7C5.41-40.7 3.21-38.2 3.21-35.3C3.21-32.1 5.81-29.9 8.61-29.9L11.61-29.9C12.61-24 14.51-18.6 18.61-13L14.81-9.2C12.51-6.9 13.01-3.4 14.81-1.5C15.61-0.7 16.91 0.1 18.61 0.1C20.41 0.1 21.61-0.7 22.41-1.5L26.21-5.3C31.51-1.7 36.01 0.7 43.11 1.7L43.11 4.7C43.11 9 48.01 11.8 51.81 9C53.21 8 53.91 6.3 53.91 4.6L53.91 1.7C60.31 0.7 65.41-1.5 70.81-5.3L74.61-1.5C75.41-0.7 76.71 0.1 78.41 0.1C80.21 0.1 81.41-0.7 82.21-1.5C84.31-3.6 84.31-7 82.21-9.2L78.41-13C82.41-18.2 84.41-23.6 85.41-29.9L88.41-29.9C92.41-29.9 95.11-34.1 93.21-37.9C92.51-39.4 90.31-40.7 88.51-40.7ZM48.71-8.7C33.41-8.7 21.81-20.9 21.91-35.9C21.91-38.3 22.21-39.4 22.71-41.9L25.11-41.9L27.71-36.6C28.41-35.1 30.41-33.9 32.11-33.9L40.71-33.9C42.41-33.9 44.41-35.1 45.11-36.6L47.71-41.9L49.01-41.9L51.61-36.6C52.31-35.1 54.31-33.9 56.01-33.9L64.61-33.9C66.31-33.9 68.31-35.1 69.01-36.6L71.61-41.9L74.01-41.9C74.71-39.1 74.81-38.1 74.81-35.3C75.11-19.9 62.31-8.7 48.71-8.7ZM48.51-61.8C55.91-61.8 62.81-59 68.51-52.6L28.41-52.6C34.71-59.6 41.91-61.8 48.51-61.8ZM65.11-31.9C63.21-33 59.91-33.2 57.71-29.9C55.41-26.3 52.31-24.6 48.51-24.6C45.21-24.6 41.51-26.2 39.31-29.9C37.51-33.1 33.81-33 31.91-31.9C30.01-30.8 28.21-28 29.91-24.5C33.11-18.1 41.81-13.8 48.41-13.8C57.41-13.8 64.31-19.2 67.41-25.6C68.51-27.7 67.01-30.8 65.11-31.9Z"/>
  </g>
  <g id="Regular-S" transform="matrix(1 0 0 1 1403.39 696)">
   <path d="M86.46-39.2L82.26-39.2C81.46-46.1 78.76-52.5 74.56-57.6L79.26-62.3C80.86-63.9 80.86-66.4 79.26-68C77.66-69.6 75.16-69.6 73.56-68L68.96-63.3C63.76-67.4 57.46-70.2 50.56-71L50.56-75.2C50.56-77.4 48.76-79.2 46.56-79.2C44.36-79.2 42.56-77.4 42.56-75.2L42.56-71C35.66-70.2 29.26-67.5 24.16-63.3L19.46-68C17.86-69.6 15.36-69.6 13.76-68C12.16-66.4 12.16-63.9 13.76-62.3L18.46-57.6C14.36-52.4 11.56-46.1 10.76-39.2L6.46-39.2C4.26-39.2 2.46-37.4 2.46-35.2C2.46-33 4.26-31.2 6.46-31.2L10.66-31.2C11.46-24.3 14.16-17.9 18.36-12.8L13.66-8.1C12.06-6.5 12.06-4 13.66-2.4C14.46-1.6 15.46-1.2 16.46-1.2C17.46-1.2 18.46-1.6 19.26-2.4L23.96-7.1C29.26-3 35.56-0.3 42.46 0.5L42.46 4.7C42.46 6.9 44.26 8.7 46.46 8.7C48.66 8.7 50.46 6.9 50.46 4.7L50.46 0.5C57.46-0.3 63.76-3 68.96-7.1L73.66-2.4C74.46-1.6 75.46-1.2 76.46-1.2C77.46-1.2 78.46-1.6 79.26-2.4C80.86-4 80.86-6.5 79.26-8.1L74.56-12.8C78.66-18 81.46-24.3 82.26-31.2L86.46-31.2C88.66-31.2 90.46-33 90.46-35.2C90.46-37.5 88.76-39.2 86.46-39.2ZM46.46-7.3C31.06-7.3 18.46-19.9 18.46-35.3C18.46-38.1 18.86-40.8 19.66-43.3L23.96-43.3L26.86-37.5C27.56-36.1 28.96-35.3 30.46-35.3L38.46-35.3C39.96-35.3 41.36-36.2 42.06-37.5L44.96-43.3L48.06-43.3L50.96-37.5C51.66-36.1 53.06-35.3 54.56-35.3L62.56-35.3C64.06-35.3 65.46-36.2 66.16-37.5L69.06-43.3L73.36-43.3C74.16-40.8 74.56-38.1 74.56-35.3C74.46-19.8 61.96-7.3 46.46-7.3ZM46.46-63.2C55.96-63.2 64.36-58.4 69.36-51.2L23.56-51.2C28.66-58.5 36.96-63.2 46.46-63.2ZM62.36-30.7C60.46-31.8 57.96-31.2 56.86-29.2C54.76-25.5 50.76-23.2 46.46-23.2C42.16-23.2 38.16-25.5 36.06-29.2C34.96-31.1 32.46-31.8 30.56-30.7C28.66-29.6 27.96-27.1 29.06-25.2C32.66-19 39.26-15.2 46.36-15.2C53.46-15.2 60.16-19 63.66-25.2C64.96-27.2 64.26-29.6 62.36-30.7Z"/>
  </g>
  <g id="Ultralight-S" transform="matrix(1 0 0 1 515.011 696)">
   <path d="M84.775-36.4L77.975-36.4C77.475-44.6 74.675-51.7 69.075-57.9L75.575-64.4C76.075-64.9 76.075-65.6 75.575-66.1C75.075-66.6 74.375-66.5 73.975-66.1L67.475-59.6C62.275-63.7 56.875-67.8 45.975-68.5L45.975-75.2C45.975-75.9 45.475-76.4 44.775-76.4C44.275-76.4 43.675-75.9 43.675-75.2L43.675-68.4C32.975-67.7 27.375-63.6 22.175-59.5L15.675-66C15.175-66.5 14.475-66.5 13.975-66C13.575-65.6 13.475-64.8 13.975-64.4L20.475-57.9C15.875-52.4 12.275-46.8 11.575-36.4L4.775-36.4C4.175-36.4 3.575-35.9 3.575-35.2C3.575-34.6 4.175-34 4.775-34L11.575-34C12.175-25.2 15.375-18 20.475-12.5L13.975-6.1C13.475-5.6 13.575-4.9 13.975-4.4C14.275-4.1 14.475-4.1 14.775-4.1C15.075-4.1 15.375-4.2 15.575-4.4L22.075-10.9C27.475-6.4 33.875-2.6 43.575-2L43.575 4.8C43.575 5.4 44.075 6 44.775 6C45.375 6 45.975 5.4 45.975 4.8L45.975-2C54.875-3 59.875-4.6 67.475-10.9L73.975-4.4C74.175-4.2 74.475-4.1 74.775-4.1C75.075-4.1 75.375-4.2 75.575-4.4C76.075-4.9 76.075-5.6 75.575-6.1L69.075-12.6C74.075-18.4 77.375-24.8 77.975-34.1L84.775-34.1C85.275-34.1 85.975-34.5 85.975-35.3C85.875-35.9 85.375-36.4 84.775-36.4ZM44.775-4.4C27.375-4.4 13.975-18.6 13.975-35.2C13.975-38 15.075-43.5 15.875-46L24.075-46L27.775-38.7C27.975-38.3 28.375-38 28.875-38L36.875-38C37.275-38 37.675-38.2 37.875-38.6L41.575-46L48.175-46L51.875-38.6C52.175-38.1 52.575-38 52.875-38L60.875-38C61.375-38 61.675-38.3 61.875-38.6L65.575-46L73.775-46C74.575-43.5 75.675-37.9 75.675-35.2C75.575-18.4 61.875-4.4 44.775-4.4ZM44.775-66.1C59.775-66.1 69.275-55.8 72.675-48.4L16.875-48.4C20.575-56 29.375-66.1 44.775-66.1ZM59.175-28.3C58.675-28.6 57.975-28.5 57.575-27.9C55.275-23.9 50.575-20.5 44.875-20.5C39.075-20.5 34.375-23.6 31.875-27.9C31.575-28.4 30.875-28.7 30.275-28.3C29.575-27.8 29.575-27.2 29.875-26.7C33.175-21 38.975-18.1 44.875-18.1C49.975-18.1 55.775-20.5 59.575-26.7C59.975-27.3 59.775-27.9 59.175-28.3Z"/>
  </g>
 </g>
</svg>
