<svg width="45" height="45" viewBox="0 0 45 45" fill="none" xmlns="http://www.w3.org/2000/svg">
<path d="M43.5415 12.7012C43.5415 9.38747 40.8552 6.70117 37.5415 6.70117H6.84705C3.53334 6.70117 0.847046 9.38746 0.847046 12.7012V29.25C0.847046 30.63 1.96571 31.7486 3.34564 31.7486H4.13568C5.81384 31.7486 6.80333 33.6313 5.85162 35.0135C4.38627 37.1417 7.33853 39.5062 9.0953 37.6115L13.7652 32.5748C14.2536 32.048 14.9394 31.7486 15.6578 31.7486H37.5415C40.8552 31.7486 43.5415 29.0623 43.5415 25.7486V12.7012Z" fill="white"/>
<path fill-rule="evenodd" clip-rule="evenodd" d="M6.39148 34.5717C6.45411 34.4095 6.4944 34.2442 6.51405 34.079C6.51893 34.0381 6.52254 33.9972 6.5249 33.9563C6.53464 33.7878 6.52328 33.6203 6.49267 33.4573C6.46127 33.29 6.4096 33.1275 6.33963 32.9733C5.89859 33.0561 5.55362 33.4304 5.52656 33.8986C5.5162 34.0778 5.45866 34.2648 5.33364 34.4464C4.84857 35.1509 4.68275 35.9228 4.79608 36.6546C4.8806 37.2003 5.39156 37.5743 5.93734 37.4897C6.02288 37.4765 6.10421 37.4528 6.18021 37.4201C6.0778 37.2847 5.99111 37.1376 5.92367 36.9818C5.85769 36.8292 5.81013 36.6683 5.7843 36.5015C5.75622 36.3202 5.75383 36.132 5.78139 35.9404C5.80456 35.7793 5.84887 35.6158 5.91686 35.4519C5.97754 35.3056 6.05709 35.159 6.15728 35.0135C6.25561 34.8707 6.33322 34.7225 6.39148 34.5717ZM11.2483 35.619C11.6533 35.9945 11.6772 36.6272 11.3017 37.0322L10.1343 38.2914C9.55272 38.9186 8.83566 39.249 8.09679 39.2982C7.54573 39.3349 7.06924 38.918 7.03252 38.3669C7.02677 38.2805 7.03216 38.196 7.04746 38.1147C7.20195 38.185 7.36438 38.2375 7.53122 38.2693C7.69447 38.3004 7.86193 38.3116 8.03031 38.3004C8.50459 38.2688 8.98611 38.0589 9.40096 37.6115L11.2483 35.619ZM18.7871 31.7486C18.7871 32.3009 18.3394 32.7486 17.7871 32.7486H15.9634C15.5234 32.7486 15.1033 32.932 14.8041 33.2547L13.6367 34.5138C13.2612 34.9188 12.6285 34.9427 12.2235 34.5672L14.0708 32.5748C14.5592 32.048 15.2451 31.7486 15.9634 31.7486H18.7871ZM26.0817 31.7486C26.0817 32.3009 25.6339 32.7486 25.0817 32.7486H21.4344C20.8821 32.7486 20.4344 32.3009 20.4344 31.7486H26.0817ZM33.3762 31.7486C33.3762 32.3009 32.9285 32.7486 32.3762 32.7486H28.7289C28.1767 32.7486 27.7289 32.3009 27.7289 31.7486H33.3762ZM41.0324 30.8343C41.045 30.8589 41.0568 30.8842 41.0676 30.9103C41.2792 31.4204 41.0371 32.0055 40.5269 32.2171C39.7002 32.5599 38.7945 32.7486 37.8472 32.7486H36.0235C35.4712 32.7486 35.0235 32.3009 35.0235 31.7486H37.8472C38.6607 31.7486 39.4364 31.5867 40.1439 31.2933C40.2984 31.2293 40.4497 31.1589 40.5973 31.0826C40.7461 31.0058 40.8912 30.9229 41.0324 30.8343ZM43.8472 23.1177C44.3995 23.1177 44.8472 23.5654 44.8472 24.1177V25.7486C44.8472 26.6959 44.6584 27.6017 44.3156 28.4284C44.1041 28.9386 43.519 29.1806 43.0088 28.9691C42.9828 28.9583 42.9575 28.9465 42.9328 28.9338C43.0214 28.7926 43.1043 28.6475 43.1812 28.4988C43.2575 28.3511 43.3278 28.1999 43.3919 28.0453C43.6853 27.3379 43.8472 26.5622 43.8472 25.7486V23.1177ZM43.8472 16.594C44.3995 16.594 44.8472 17.0417 44.8472 17.594V20.8558C44.8472 21.4081 44.3995 21.8558 43.8472 21.8558V16.594ZM42.9328 9.51597C42.9575 9.50329 42.9828 9.49152 43.0088 9.48072C43.519 9.26917 44.1041 9.51124 44.3156 10.0214C44.6584 10.8481 44.8472 11.7539 44.8472 12.7012V14.3321C44.8472 14.8844 44.3995 15.3321 43.8472 15.3321V12.7012C43.8472 11.8876 43.6853 11.1119 43.3919 10.4044C43.3278 10.2499 43.2575 10.0987 43.1812 9.95101C43.1043 9.80226 43.0214 9.65714 42.9328 9.51597ZM34.9288 6.70117C34.9288 6.14889 35.3765 5.70117 35.9288 5.70117H37.8472C38.7945 5.70117 39.7002 5.88989 40.5269 6.23273C41.0371 6.44429 41.2792 7.02935 41.0676 7.53951C41.0568 7.56555 41.0451 7.59089 41.0324 7.6155C40.8912 7.5269 40.7461 7.44402 40.5973 7.36717C40.4497 7.29087 40.2984 7.22053 40.1439 7.15646C39.4364 6.86309 38.6607 6.70117 37.8472 6.70117H34.9288ZM27.2551 6.70117C27.2551 6.14889 27.7029 5.70117 28.2551 5.70117H32.092C32.6442 5.70117 33.092 6.14889 33.092 6.70117H27.2551ZM19.5815 6.70117C19.5815 6.14889 20.0293 5.70117 20.5815 5.70117H24.4183C24.9706 5.70117 25.4183 6.14889 25.4183 6.70117H19.5815ZM11.9079 6.70117C11.9079 6.14889 12.3556 5.70117 12.9079 5.70117H16.7447C17.297 5.70117 17.7447 6.14889 17.7447 6.70117H11.9079ZM10.0711 6.70117C10.0711 6.14889 9.6234 5.70117 9.07111 5.70117H7.15271C6.20541 5.70117 5.29967 5.88989 4.47293 6.23273C3.96277 6.44428 3.7207 7.02935 3.93225 7.53951C3.94305 7.56555 3.95482 7.59089 3.96751 7.6155C4.10868 7.5269 4.2538 7.44402 4.40254 7.36717C4.55022 7.29087 4.70148 7.22053 4.85598 7.15646C5.56343 6.86309 6.33916 6.70117 7.15271 6.70117H10.0711ZM1.15271 15.7698C0.600426 15.7698 0.15271 15.3221 0.15271 14.7698V12.7012C0.15271 11.7539 0.341431 10.8481 0.684265 10.0214C0.895821 9.51123 1.48089 9.26917 1.99105 9.48072C2.01709 9.49152 2.04242 9.50329 2.06704 9.51597C1.97844 9.65714 1.89555 9.80226 1.81871 9.95101C1.74241 10.0987 1.67207 10.2499 1.60799 10.4044C1.31463 11.1119 1.15271 11.8876 1.15271 12.7012V15.7698ZM1.15271 24.0442C0.600426 24.0442 0.15271 23.5965 0.15271 23.0442V18.907C0.15271 18.3547 0.600426 17.907 1.15271 17.907V24.0442ZM6.2251 32.7554C6.13784 32.6104 6.03327 32.4757 5.91332 32.3549C5.7964 32.2373 5.66488 32.1329 5.52059 32.0454C5.31956 31.9234 5.09374 31.8341 4.84809 31.7869C4.71784 31.7618 4.58202 31.7486 4.44135 31.7486H3.6513C3.51273 31.7486 3.3768 31.7373 3.24437 31.7156C3.05302 31.6843 2.86898 31.6312 2.69487 31.559C2.53958 31.4946 2.39218 31.415 2.25455 31.3221C2.12865 31.237 2.01093 31.1408 1.90278 31.0349C1.89056 31.0229 1.87845 31.0108 1.86647 30.9985C1.76051 30.8904 1.66431 30.7727 1.57927 30.6468C1.48631 30.5091 1.4067 30.3617 1.3423 30.2065C1.22014 29.9118 1.15271 29.5888 1.15271 29.25V26.1814C0.600426 26.1814 0.15271 26.6291 0.15271 27.1814V29.25C0.15271 29.7226 0.246941 30.1756 0.418579 30.5895C0.630135 31.0997 1.2152 31.3417 1.72536 31.1302C1.75514 31.1178 1.78401 31.1042 1.81192 31.0894C1.79712 31.1173 1.78349 31.1462 1.77114 31.176C1.55959 31.6861 1.80165 32.2712 2.31181 32.4827C2.72571 32.6544 3.17876 32.7486 3.6513 32.7486H3.84881C3.91643 32.7486 3.98248 32.7419 4.04633 32.7291C4.11019 32.7419 4.17622 32.7486 4.24384 32.7486H4.44135C4.66179 32.7486 4.84843 32.8073 5.00195 32.9004C5.4029 33.1436 5.9068 33.0717 6.2251 32.7554Z" fill="#F58B00"/>
<path d="M28.1058 20.2323C28.1058 21.6303 29.2647 22.7635 30.6944 22.7635C32.1241 22.7635 33.2831 21.6303 33.2831 20.2323C33.2831 18.8344 32.1241 17.7012 30.6944 17.7012C29.2647 17.7012 28.1058 18.8344 28.1058 20.2323Z" fill="#004DA5"/>
<path d="M10.8472 20.2323C10.8472 21.6303 12.0062 22.7635 13.4359 22.7635C14.8655 22.7635 16.0245 21.6303 16.0245 20.2323C16.0245 18.8344 14.8655 17.7012 13.4359 17.7012C12.0062 17.7012 10.8472 18.8344 10.8472 20.2323Z" fill="#004DA5"/>
<path d="M19.4763 20.2323C19.4763 21.6303 20.6353 22.7635 22.065 22.7635C23.4947 22.7635 24.6537 21.6303 24.6537 20.2323C24.6537 18.8344 23.4947 17.7012 22.065 17.7012C20.6353 17.7012 19.4763 18.8344 19.4763 20.2323Z" fill="#004DA5"/>
</svg>
