<svg width="160" height="160" viewBox="0 0 160 160" fill="none" xmlns="http://www.w3.org/2000/svg">
<g clip-path="url(#clip0_2810_46731)">
<path d="M101.736 125.503C102.716 125.386 103.651 125.022 104.452 124.446C104.193 124.323 103.974 124.128 103.821 123.884C103.669 123.64 103.59 123.358 103.593 123.07L104.074 97.278C104.081 96.9129 104.218 96.5623 104.461 96.2896C104.704 96.0168 105.036 95.8399 105.398 95.7907L125.026 93.0309C125.318 92.9862 125.617 93.028 125.886 93.1513C126.13 92.3797 126.209 91.5654 126.118 90.7612L118.922 29.883C118.748 28.4613 118.06 27.1521 116.988 26.2021C115.916 25.252 114.534 24.7266 113.101 24.7246C112.866 24.7261 112.63 24.7404 112.396 24.7676L26.921 34.8781C26.1529 34.9656 25.4096 35.204 24.734 35.5798C24.0584 35.9556 23.4638 36.4613 22.9844 37.0677C22.5049 37.6742 22.1502 38.3695 21.9405 39.1137C21.7308 39.8578 21.6703 40.636 21.7626 41.4035L31.9849 127.868C32.0745 128.635 32.3144 129.377 32.6909 130.051C33.0673 130.726 33.573 131.32 34.179 131.799C34.7849 132.278 35.4793 132.633 36.2225 132.843C36.9657 133.054 37.7431 133.116 38.5103 133.026L101.736 125.503ZM69.8564 34.6116C71.0861 34.6855 72.2672 35.1176 73.2542 35.8547C74.2412 36.5918 74.9909 37.6017 75.4108 38.7598C75.8306 39.9179 75.9024 41.1736 75.6171 42.3719C75.3319 43.5703 74.7021 44.659 73.8055 45.5038C72.9089 46.3485 71.7847 46.9124 70.5715 47.1258C69.3582 47.3392 68.109 47.1929 66.978 46.7048C65.8469 46.2167 64.8835 45.4083 64.2064 44.3792C63.5293 43.3501 63.1682 42.1453 63.1676 40.9135C63.2193 39.1909 63.953 37.5594 65.2073 36.3777C66.4616 35.1959 68.1339 34.5607 69.8564 34.6116Z" fill="#B9C1C6"/>
<path d="M127.82 90.5555L120.624 29.6773C120.506 28.687 120.195 27.7296 119.708 26.8597C119.22 25.9898 118.566 25.2244 117.783 24.6072C117 23.9901 116.103 23.5333 115.143 23.2629C114.183 22.9925 113.18 22.9139 112.19 23.0315L26.7056 33.1334C25.7149 33.2496 24.7569 33.5601 23.8864 34.0471C23.0159 34.5341 22.2501 35.1881 21.6327 35.9716C21.0154 36.755 20.5587 37.6526 20.2887 38.6128C20.0188 39.5731 19.941 40.5771 20.0598 41.5675L30.2821 128.032C30.5007 129.877 31.3876 131.578 32.7753 132.814C34.163 134.049 35.9553 134.734 37.8134 134.738C38.1007 134.736 38.3877 134.719 38.6731 134.686L101.89 127.215C102.969 127.086 104.009 126.729 104.939 126.165C105.869 125.602 106.667 124.845 107.28 123.948L126.513 95.7311C127.559 94.2203 128.023 92.3819 127.82 90.5555ZM31.9844 127.834L21.7621 41.3698C21.6698 40.6022 21.7303 39.8239 21.94 39.0798C22.1496 38.3357 22.5044 37.6404 22.9838 37.034C23.4633 36.4275 24.0579 35.9218 24.7335 35.546C25.4091 35.1702 26.1524 34.9317 26.9205 34.8443L112.404 24.7338C112.638 24.7066 112.874 24.6923 113.109 24.6908C114.542 24.6927 115.924 25.2182 116.996 26.1683C118.068 27.1184 118.756 28.4274 118.93 29.8492L126.126 90.7274C126.217 91.5316 126.138 92.3459 125.894 93.1175C125.625 92.9943 125.326 92.9524 125.034 92.9971L105.406 95.7569C105.044 95.8061 104.712 95.983 104.469 96.2558C104.226 96.5286 104.089 96.8792 104.082 97.2443L103.601 123.036C103.598 123.324 103.677 123.606 103.829 123.85C103.982 124.094 104.201 124.289 104.46 124.412C103.659 124.989 102.724 125.352 101.744 125.47L38.5184 132.949C36.9742 133.134 35.4197 132.699 34.1952 131.741C32.9706 130.782 32.1757 129.377 31.9844 127.834Z" fill="#B9C1C6"/>
<path d="M106.799 120.741C107.778 120.619 108.712 120.256 109.516 119.683C109.257 119.559 109.038 119.364 108.886 119.12C108.734 118.877 108.654 118.595 108.656 118.307L109.137 92.5152C109.144 92.1491 109.281 91.7974 109.524 91.5232C109.766 91.249 110.099 91.0704 110.461 91.0193L130.089 88.2681C130.382 88.2213 130.681 88.2633 130.949 88.3885C131.191 87.6163 131.267 86.8019 131.173 85.9984L123.977 25.1202C123.803 23.6984 123.115 22.3893 122.043 21.4393C120.971 20.4892 119.589 19.9637 118.156 19.9618C117.921 19.9489 117.686 19.9489 117.451 19.9618L31.9758 30.0637C31.2077 30.1533 30.4649 30.3935 29.7898 30.7705C29.1146 31.1475 28.5205 31.654 28.0414 32.2609C27.5622 32.8678 27.2075 33.5632 26.9974 34.3074C26.7874 35.0516 26.7262 35.8299 26.8173 36.5978L37.0482 123.07C37.1378 123.838 37.3778 124.58 37.7542 125.254C38.1307 125.929 38.6364 126.522 39.2423 127.001C39.8483 127.48 40.5427 127.835 41.2859 128.046C42.0291 128.257 42.8065 128.319 43.5737 128.229L106.799 120.741ZM74.9198 29.8488C76.1495 29.9226 77.3306 30.3548 78.3176 31.0919C79.3046 31.829 80.0542 32.8389 80.4741 33.997C80.894 35.1551 80.9658 36.4108 80.6805 37.6092C80.3953 38.8075 79.7655 39.8962 78.8689 40.741C77.9723 41.5857 76.848 42.1496 75.6348 42.363C74.4216 42.5764 73.1724 42.4301 72.0413 41.942C70.9103 41.454 69.9468 40.6455 69.2697 39.6164C68.5926 38.5873 68.2316 37.3825 68.231 36.1507C68.2849 34.4289 69.0193 32.7988 70.2731 31.6175C71.5269 30.4362 73.1979 29.8001 74.9198 29.8488Z" fill="#CEDBE8"/>
<path d="M132.884 85.7925L125.688 24.9143C125.451 22.9139 124.43 21.0893 122.848 19.8416C121.267 18.5938 119.255 18.0249 117.254 18.2599L31.7701 28.4135C30.7794 28.5296 29.8214 28.8401 28.9509 29.3271C28.0804 29.8142 27.3146 30.4681 26.6972 31.2516C26.0799 32.0351 25.6231 32.9326 25.3532 33.8928C25.0833 34.8531 25.0055 35.8571 25.1242 36.8475L35.3466 123.312C35.5653 125.158 36.4535 126.861 37.843 128.096C39.2325 129.332 41.0269 130.016 42.8865 130.018C43.1738 130.016 43.4608 129.999 43.7462 129.966L106.963 122.495C108.043 122.366 109.082 122.009 110.012 121.445C110.942 120.882 111.74 120.126 112.353 119.228L131.586 91.0111C132.639 89.4876 133.101 87.6321 132.884 85.7925ZM37.0488 123.071L26.8266 36.6068C26.7354 35.8389 26.7966 35.0606 27.0066 34.3165C27.2167 33.5723 27.5714 32.8768 28.0506 32.2699C28.5297 31.663 29.1239 31.1565 29.799 30.7795C30.4741 30.4025 31.217 30.1623 31.985 30.0728L117.46 19.9708C117.695 19.958 117.931 19.958 118.165 19.9708C119.598 19.9728 120.98 20.4982 122.052 21.4483C123.124 22.3983 123.812 23.7075 123.986 25.1292L131.173 86.016C131.267 86.8196 131.191 87.634 130.95 88.4062C130.682 88.2809 130.382 88.239 130.09 88.2858L110.462 91.0369C110.099 91.088 109.767 91.2667 109.524 91.5409C109.282 91.815 109.145 92.1668 109.138 92.5329L108.657 118.325C108.655 118.612 108.734 118.894 108.887 119.138C109.039 119.381 109.257 119.577 109.516 119.701C108.713 120.274 107.779 120.637 106.8 120.758L43.5743 128.229C42.8071 128.319 42.0297 128.257 41.2865 128.046C40.5433 127.836 39.8489 127.481 39.2429 127.002C38.637 126.523 38.1313 125.929 37.7548 125.255C37.3784 124.58 37.1384 123.838 37.0488 123.071ZM129.901 90.031L110.376 117.732L110.849 92.7048L129.901 90.031Z" fill="#688FB7"/>
<path d="M110.401 117.731L129.917 90.0215L110.874 92.7039L110.401 117.731Z" fill="#CEDBE8"/>
<path d="M74.9202 42.4436C78.6143 42.4436 81.609 39.6222 81.609 36.1417C81.609 32.6613 78.6143 29.8398 74.9202 29.8398C71.2261 29.8398 68.2314 32.6613 68.2314 36.1417C68.2314 39.6222 71.2261 42.4436 74.9202 42.4436Z" fill="#F58B00"/>
<path d="M104.741 56.4043L53.1718 61.7972C51.0797 62.016 49.5611 63.8893 49.7799 65.9813L49.9927 68.0164C50.2115 70.1085 52.0848 71.6271 54.1768 71.4083L105.747 66.0154C107.839 65.7966 109.357 63.9233 109.138 61.8313L108.926 59.7962C108.707 57.7041 106.834 56.1856 104.741 56.4043Z" fill="#B9C1C6"/>
<path d="M87.4772 75.404L54.6935 78.8324C52.9934 79.0102 51.7594 80.5325 51.9371 82.2326L52.2984 85.6871C52.4762 87.3872 53.9985 88.6212 55.6986 88.4435L88.4823 85.0151C90.1823 84.8373 91.4164 83.315 91.2386 81.6149L90.8773 78.1604C90.6996 76.4604 89.1773 75.2263 87.4772 75.404Z" fill="#B9C1C6"/>
<path d="M100.034 61.0835C99.713 60.7534 99.3295 60.4909 98.9056 60.3116C98.4818 60.1324 98.0263 60.04 97.5661 60.04C97.1059 60.04 96.6505 60.1324 96.2266 60.3116C95.8028 60.4909 95.4192 60.7534 95.0987 61.0835L71.026 85.1563L62.8584 76.9887C62.5338 76.6647 62.1486 76.4078 61.7247 76.2326C61.3008 76.0575 60.8466 75.9676 60.3879 75.968C59.9293 75.9684 59.4752 76.0591 59.0516 76.2349C58.628 76.4108 58.2433 76.6684 57.9192 76.993C57.5952 77.3176 57.3383 77.7029 57.1631 78.1267C56.988 78.5506 56.898 79.0049 56.8984 79.4635C56.8988 79.9222 56.9895 80.3763 57.1654 80.7998C57.3413 81.2234 57.5989 81.6082 57.9235 81.9322L68.5585 92.5844C68.8791 92.9146 69.2626 93.1771 69.6864 93.3563C70.1103 93.5356 70.5658 93.6279 71.026 93.6279C71.4861 93.6279 71.9416 93.5356 72.3655 93.3563C72.7893 93.1771 73.1729 92.9146 73.4934 92.5844L100.068 66.0098C100.398 65.6893 100.661 65.3057 100.84 64.8819C101.019 64.4581 101.112 64.0026 101.112 63.5424C101.112 63.0822 101.019 62.6267 100.84 62.2029C100.661 61.779 100.398 61.3955 100.068 61.0749L100.034 61.0835Z" fill="#F58B00"/>
<path d="M79.7785 33.7969C80.0059 33.4634 79.4079 32.6596 78.4429 32.0016C77.4778 31.3435 76.5111 31.0804 76.2838 31.4138C76.0564 31.7473 76.6544 32.5511 77.6195 33.2091C78.5845 33.8672 79.5511 34.1303 79.7785 33.7969Z" fill="#CEDBE8"/>
</g>
<path d="M140.58 20.4094C140.44 20.243 140.257 20.1177 140.052 20.0466C139.846 19.9755 139.626 19.9614 139.413 20.0058L134.32 20.8864C134.145 20.9169 133.978 20.9825 133.83 21.0793C133.681 21.1761 133.553 21.302 133.455 21.4494C133.356 21.5968 133.288 21.7628 133.255 21.9372C133.222 22.1116 133.225 22.2908 133.263 22.4641C133.299 22.7361 133.422 22.9893 133.614 23.1853C133.806 23.3813 134.056 23.5093 134.327 23.5501C134.459 23.568 134.592 23.568 134.724 23.5501L139.816 22.6695C140.041 22.6353 140.253 22.5408 140.429 22.3961C140.604 22.2514 140.738 22.0619 140.814 21.8477C140.904 21.6083 140.929 21.3496 140.888 21.0973C140.847 20.8451 140.741 20.6079 140.58 20.4094Z" fill="white"/>
<path d="M121.25 0.0668457C121.102 0.0129612 120.944 -0.00874538 120.786 0.00317922C120.628 0.0151038 120.475 0.0603829 120.336 0.13601C120.198 0.211637 120.077 0.315889 119.981 0.441858C119.886 0.567827 119.818 0.71264 119.783 0.866697L118.374 5.70251C118.324 5.87645 118.309 6.05863 118.331 6.23831C118.352 6.41799 118.41 6.59156 118.499 6.74881C118.589 6.90605 118.709 7.0438 118.852 7.15396C118.996 7.26412 119.16 7.34448 119.335 7.39029C119.407 7.412 119.481 7.42675 119.555 7.43431C119.828 7.47251 120.105 7.40703 120.332 7.25079C120.559 7.09456 120.719 6.85891 120.781 6.59041L122.182 1.76195C122.234 1.58947 122.251 1.40846 122.232 1.22946C122.213 1.05046 122.158 0.877053 122.071 0.71931C121.985 0.561566 121.867 0.422642 121.726 0.310628C121.586 0.198615 121.424 0.115749 121.25 0.0668457Z" fill="white"/>
<path d="M133.726 6.61285C133.556 6.60457 133.386 6.63015 133.226 6.6881C133.066 6.74604 132.919 6.83522 132.794 6.95042L127.158 12.0871C126.907 12.3197 126.755 12.6404 126.735 12.9822C126.714 13.3241 126.827 13.6606 127.048 13.9216C127.252 14.1637 127.541 14.3185 127.855 14.3546C128.036 14.3765 128.22 14.359 128.394 14.3033C128.567 14.2476 128.726 14.1549 128.861 14.0317L134.496 8.89501C134.75 8.66436 134.905 8.34393 134.927 8.00153C134.949 7.65913 134.836 7.32164 134.614 7.06049C134.504 6.92996 134.368 6.82303 134.216 6.74612C134.063 6.6692 133.896 6.62387 133.726 6.61285Z" fill="white"/>
<path d="M78.9474 160.001C102.667 160.001 121.895 157.173 121.895 153.685C121.895 150.197 102.667 147.369 78.9474 147.369C55.2282 147.369 36 150.197 36 153.685C36 157.173 55.2282 160.001 78.9474 160.001Z" fill="#B9C1C6"/>
<defs>
<clipPath id="clip0_2810_46731">
<rect width="112.935" height="116.529" fill="white" transform="translate(20 18.208)"/>
</clipPath>
</defs>
</svg>
