<svg width="160" height="160" viewBox="0 0 160 160" fill="none" xmlns="http://www.w3.org/2000/svg">
<g clip-path="url(#clip0_2698_32783)">
<path d="M101.736 125.503C102.716 125.386 103.651 125.022 104.452 124.446C104.193 124.323 103.974 124.128 103.821 123.884C103.669 123.64 103.59 123.358 103.593 123.07L104.074 97.278C104.081 96.9129 104.218 96.5623 104.461 96.2896C104.704 96.0168 105.036 95.8399 105.398 95.7907L125.026 93.0309C125.318 92.9862 125.617 93.028 125.886 93.1513C126.13 92.3797 126.209 91.5654 126.118 90.7612L118.922 29.883C118.748 28.4613 118.06 27.1521 116.988 26.2021C115.916 25.252 114.534 24.7266 113.101 24.7246C112.866 24.7261 112.63 24.7404 112.396 24.7676L26.921 34.8781C26.1529 34.9656 25.4096 35.204 24.734 35.5798C24.0584 35.9556 23.4638 36.4613 22.9844 37.0677C22.5049 37.6742 22.1502 38.3695 21.9405 39.1137C21.7308 39.8578 21.6703 40.636 21.7626 41.4035L31.9849 127.868C32.0745 128.635 32.3144 129.377 32.6909 130.051C33.0673 130.726 33.573 131.32 34.179 131.799C34.7849 132.278 35.4793 132.633 36.2225 132.843C36.9657 133.054 37.7431 133.116 38.5103 133.026L101.736 125.503ZM69.8564 34.6116C71.0861 34.6855 72.2672 35.1176 73.2542 35.8547C74.2412 36.5918 74.9909 37.6017 75.4108 38.7598C75.8306 39.9179 75.9024 41.1736 75.6171 42.3719C75.3319 43.5703 74.7021 44.659 73.8055 45.5038C72.9089 46.3485 71.7847 46.9124 70.5715 47.1258C69.3582 47.3392 68.109 47.1929 66.978 46.7048C65.8469 46.2167 64.8835 45.4083 64.2064 44.3792C63.5293 43.3501 63.1682 42.1453 63.1676 40.9135C63.2193 39.1909 63.953 37.5594 65.2073 36.3777C66.4616 35.1959 68.1339 34.5607 69.8564 34.6116Z" fill="#D5DADD"/>
<path d="M127.82 90.5555L120.624 29.6773C120.507 28.687 120.196 27.7296 119.708 26.8597C119.221 25.9898 118.567 25.2244 117.784 24.6072C117.001 23.9901 116.103 23.5333 115.144 23.2629C114.184 22.9925 113.18 22.9139 112.19 23.0315L26.7061 33.1334C25.7154 33.2496 24.7574 33.5601 23.8869 34.0471C23.0164 34.5341 22.2505 35.1881 21.6332 35.9716C21.0159 36.755 20.5591 37.6526 20.2892 38.6128C20.0193 39.5731 19.9415 40.5771 20.0603 41.5675L30.2826 128.032C30.5011 129.877 31.3881 131.578 32.7758 132.814C34.1635 134.049 35.9558 134.734 37.8139 134.738C38.1012 134.736 38.3882 134.719 38.6736 134.686L101.89 127.215C102.97 127.086 104.01 126.729 104.939 126.165C105.869 125.602 106.668 124.845 107.281 123.948L126.513 95.7311C127.56 94.2203 128.024 92.3819 127.82 90.5555ZM31.9849 127.834L21.7626 41.3698C21.6703 40.6022 21.7308 39.8239 21.9404 39.0798C22.1501 38.3357 22.5049 37.6404 22.9843 37.034C23.4637 36.4275 24.0584 35.9218 24.734 35.546C25.4096 35.1702 26.1529 34.9317 26.921 34.8443L112.405 24.7338C112.639 24.7066 112.874 24.6923 113.11 24.6908C114.542 24.6927 115.925 25.2182 116.997 26.1683C118.069 27.1184 118.756 28.4274 118.93 29.8492L126.126 90.7274C126.218 91.5316 126.138 92.3459 125.894 93.1175C125.626 92.9943 125.327 92.9524 125.035 92.9971L105.407 95.7569C105.045 95.8061 104.712 95.983 104.47 96.2558C104.227 96.5286 104.09 96.8792 104.083 97.2443L103.601 123.036C103.598 123.324 103.677 123.606 103.83 123.85C103.982 124.094 104.201 124.289 104.461 124.412C103.659 124.989 102.725 125.352 101.744 125.47L38.5189 132.949C36.9747 133.134 35.4202 132.699 34.1957 131.741C32.9711 130.782 32.1762 129.377 31.9849 127.834Z" fill="#D5DADD"/>
<path d="M106.799 120.741C107.779 120.619 108.713 120.256 109.516 119.683C109.257 119.559 109.039 119.364 108.886 119.12C108.734 118.877 108.654 118.595 108.657 118.307L109.138 92.5152C109.145 92.1491 109.282 91.7974 109.524 91.5232C109.767 91.249 110.099 91.0704 110.462 91.0193L130.09 88.2681C130.382 88.2213 130.681 88.2633 130.95 88.3885C131.191 87.6163 131.267 86.8019 131.173 85.9984L123.977 25.1202C123.803 23.6984 123.115 22.3893 122.043 21.4393C120.971 20.4892 119.589 19.9637 118.157 19.9618C117.922 19.9489 117.686 19.9489 117.452 19.9618L31.9763 30.0637C31.2082 30.1533 30.4654 30.3935 29.7902 30.7705C29.1151 31.1475 28.521 31.654 28.0419 32.2609C27.5627 32.8678 27.208 33.5632 26.9979 34.3074C26.7879 35.0516 26.7267 35.8299 26.8178 36.5978L37.0487 123.07C37.1383 123.838 37.3782 124.58 37.7547 125.254C38.1312 125.929 38.6369 126.522 39.2428 127.001C39.8488 127.48 40.5432 127.835 41.2864 128.046C42.0296 128.257 42.807 128.319 43.5742 128.229L106.799 120.741ZM74.9203 29.8488C76.15 29.9226 77.3311 30.3548 78.3181 31.0919C79.3051 31.829 80.0547 32.8389 80.4746 33.997C80.8945 35.1551 80.9662 36.4108 80.681 37.6092C80.3958 38.8075 79.766 39.8962 78.8694 40.741C77.9728 41.5857 76.8485 42.1496 75.6353 42.363C74.422 42.5764 73.1729 42.4301 72.0418 41.942C70.9108 41.454 69.9473 40.6455 69.2702 39.6164C68.5931 38.5873 68.232 37.3825 68.2315 36.1507C68.2854 34.4289 69.0197 32.7988 70.2735 31.6175C71.5273 30.4362 73.1984 29.8001 74.9203 29.8488Z" fill="white"/>
<path d="M132.884 85.7925L125.688 24.9143C125.451 22.9139 124.43 21.0893 122.848 19.8416C121.267 18.5938 119.255 18.0249 117.254 18.2599L31.7701 28.4135C30.7794 28.5296 29.8214 28.8401 28.9509 29.3271C28.0804 29.8142 27.3146 30.4681 26.6972 31.2516C26.0799 32.0351 25.6231 32.9326 25.3532 33.8928C25.0833 34.8531 25.0055 35.8571 25.1242 36.8475L35.3466 123.312C35.5653 125.158 36.4535 126.861 37.843 128.096C39.2325 129.332 41.0269 130.016 42.8865 130.018C43.1738 130.016 43.4608 129.999 43.7462 129.966L106.963 122.495C108.043 122.366 109.082 122.009 110.012 121.445C110.942 120.882 111.74 120.126 112.353 119.228L131.586 91.0111C132.639 89.4876 133.101 87.6321 132.884 85.7925ZM37.0488 123.071L26.8266 36.6068C26.7354 35.8389 26.7966 35.0606 27.0066 34.3165C27.2167 33.5723 27.5714 32.8768 28.0506 32.2699C28.5297 31.663 29.1239 31.1565 29.799 30.7795C30.4741 30.4025 31.217 30.1623 31.985 30.0728L117.46 19.9708C117.695 19.958 117.931 19.958 118.165 19.9708C119.598 19.9728 120.98 20.4982 122.052 21.4483C123.124 22.3983 123.812 23.7075 123.986 25.1292L131.173 86.016C131.267 86.8196 131.191 87.634 130.95 88.4062C130.682 88.2809 130.382 88.239 130.09 88.2858L110.462 91.0369C110.099 91.088 109.767 91.2667 109.524 91.5409C109.282 91.815 109.145 92.1668 109.138 92.5329L108.657 118.325C108.655 118.612 108.734 118.894 108.887 119.138C109.039 119.381 109.257 119.577 109.516 119.701C108.713 120.274 107.779 120.637 106.8 120.758L43.5743 128.229C42.8071 128.319 42.0297 128.257 41.2865 128.046C40.5433 127.836 39.8489 127.481 39.2429 127.002C38.637 126.523 38.1313 125.929 37.7548 125.255C37.3784 124.58 37.1384 123.838 37.0488 123.071ZM129.901 90.031L110.376 117.732L110.849 92.7048L129.901 90.031Z" fill="#00144A"/>
<path d="M110.402 117.732L129.918 90.0225L110.875 92.7049L110.402 117.732Z" fill="white"/>
<path d="M74.9202 42.4436C78.6143 42.4436 81.609 39.6222 81.609 36.1417C81.609 32.6613 78.6143 29.8398 74.9202 29.8398C71.2261 29.8398 68.2314 32.6613 68.2314 36.1417C68.2314 39.6222 71.2261 42.4436 74.9202 42.4436Z" fill="#F58B00"/>
<path d="M104.742 56.4034L53.1723 61.7963C51.0802 62.015 49.5616 63.8883 49.7804 65.9804L49.9932 68.0155C50.212 70.1075 52.0853 71.6261 54.1773 71.4073L105.747 66.0144C107.839 65.7956 109.358 63.9223 109.139 61.8303L108.926 59.7952C108.707 57.7032 106.834 56.1846 104.742 56.4034Z" fill="#D5DADD"/>
<path d="M87.4777 75.405L54.694 78.8334C52.9939 79.0112 51.7599 80.5335 51.9376 82.2336L52.2989 85.6881C52.4767 87.3882 53.999 88.6222 55.6991 88.4444L88.4827 85.0161C90.1828 84.8383 91.4169 83.316 91.2391 81.6159L90.8778 78.1614C90.7 76.4613 89.1777 75.2272 87.4777 75.405Z" fill="#D5DADD"/>
<path d="M100.033 61.0835C99.7125 60.7534 99.329 60.4909 98.9052 60.3116C98.4813 60.1324 98.0258 60.04 97.5656 60.04C97.1055 60.04 96.65 60.1324 96.2261 60.3116C95.8023 60.4909 95.4187 60.7534 95.0982 61.0835L71.0255 85.1563L62.8579 76.9887C62.5333 76.6647 62.1481 76.4078 61.7242 76.2326C61.3003 76.0575 60.8461 75.9676 60.3874 75.968C59.9288 75.9684 59.4747 76.0591 59.0511 76.2349C58.6275 76.4108 58.2428 76.6684 57.9187 76.993C57.5947 77.3176 57.3378 77.7029 57.1626 78.1267C56.9875 78.5506 56.8976 79.0049 56.898 79.4635C56.8983 79.9222 56.9891 80.3763 57.1649 80.7998C57.3408 81.2234 57.5984 81.6082 57.923 81.9322L68.558 92.5844C68.8786 92.9146 69.2621 93.1771 69.686 93.3563C70.1098 93.5356 70.5653 93.6279 71.0255 93.6279C71.4857 93.6279 71.9411 93.5356 72.365 93.3563C72.7888 93.1771 73.1724 92.9146 73.4929 92.5844L100.068 66.0098C100.398 65.6893 100.66 65.3057 100.839 64.8819C101.019 64.4581 101.111 64.0026 101.111 63.5424C101.111 63.0822 101.019 62.6267 100.839 62.2029C100.66 61.779 100.398 61.3955 100.068 61.0749L100.033 61.0835Z" fill="#F58B00"/>
<path d="M79.7785 33.7969C80.0059 33.4634 79.4079 32.6596 78.4429 32.0016C77.4778 31.3435 76.5111 31.0804 76.2838 31.4138C76.0564 31.7473 76.6544 32.5511 77.6195 33.2091C78.5845 33.8672 79.5511 34.1303 79.7785 33.7969Z" fill="white"/>
</g>
<path d="M140.58 20.4094C140.44 20.243 140.257 20.1177 140.052 20.0466C139.846 19.9755 139.626 19.9614 139.413 20.0058L134.32 20.8864C134.145 20.9169 133.978 20.9825 133.83 21.0793C133.681 21.1761 133.553 21.302 133.455 21.4494C133.356 21.5968 133.288 21.7628 133.255 21.9372C133.222 22.1116 133.225 22.2908 133.263 22.4641C133.299 22.7361 133.422 22.9893 133.614 23.1853C133.806 23.3813 134.056 23.5093 134.327 23.5501C134.459 23.568 134.592 23.568 134.724 23.5501L139.816 22.6695C140.041 22.6353 140.253 22.5408 140.429 22.3961C140.604 22.2514 140.738 22.0619 140.814 21.8477C140.904 21.6083 140.929 21.3496 140.888 21.0973C140.847 20.8451 140.741 20.6079 140.58 20.4094Z" fill="#5B738B"/>
<path d="M121.251 0.0668457C121.102 0.0129612 120.944 -0.00874538 120.786 0.00317922C120.629 0.0151038 120.476 0.0603829 120.337 0.13601C120.198 0.211637 120.077 0.315889 119.982 0.441858C119.886 0.567827 119.819 0.71264 119.783 0.866697L118.374 5.70251C118.325 5.87645 118.31 6.05863 118.331 6.23831C118.353 6.41799 118.41 6.59156 118.5 6.74881C118.589 6.90605 118.709 7.0438 118.853 7.15396C118.997 7.26412 119.161 7.34448 119.336 7.39029C119.408 7.412 119.481 7.42675 119.556 7.43431C119.829 7.47251 120.106 7.40703 120.333 7.25079C120.56 7.09456 120.72 6.85891 120.781 6.59041L122.183 1.76195C122.234 1.58947 122.251 1.40846 122.232 1.22946C122.213 1.05046 122.159 0.877053 122.072 0.71931C121.985 0.561566 121.868 0.422642 121.727 0.310628C121.586 0.198615 121.424 0.115749 121.251 0.0668457Z" fill="#5B738B"/>
<path d="M133.725 6.61285C133.556 6.60457 133.386 6.63015 133.226 6.6881C133.066 6.74604 132.919 6.83522 132.794 6.95042L127.158 12.0871C126.907 12.3197 126.755 12.6404 126.734 12.9822C126.714 13.3241 126.826 13.6606 127.048 13.9216C127.252 14.1637 127.541 14.3185 127.855 14.3546C128.036 14.3765 128.219 14.359 128.393 14.3033C128.567 14.2476 128.726 14.1549 128.86 14.0317L134.496 8.89501C134.75 8.66436 134.904 8.34393 134.926 8.00153C134.948 7.65913 134.836 7.32164 134.613 7.06049C134.503 6.92996 134.368 6.82303 134.215 6.74612C134.063 6.6692 133.896 6.62387 133.725 6.61285Z" fill="#5B738B"/>
<path d="M78.9474 160C102.667 160 121.895 157.172 121.895 153.684C121.895 150.196 102.667 147.368 78.9474 147.368C55.2282 147.368 36 150.196 36 153.684C36 157.172 55.2282 160 78.9474 160Z" fill="#D5DADD"/>
<defs>
<clipPath id="clip0_2698_32783">
<rect width="112.935" height="116.529" fill="white" transform="translate(20 18.208)"/>
</clipPath>
</defs>
</svg>
