<svg width="128" height="128" viewBox="0 0 128 128" fill="none" xmlns="http://www.w3.org/2000/svg">
<mask id="mask0_4434_140205" style="mask-type:alpha" maskUnits="userSpaceOnUse" x="0" y="0" width="128" height="128">
<circle cx="64" cy="64" r="64" fill="#EBF8FF"/>
</mask>
<g mask="url(#mask0_4434_140205)">
<path d="M155.132 -1.74218H-34.9693C-36.2084 -1.74333 -37.4356 -1.50025 -38.5807 -1.02685C-39.7259 -0.553448 -40.7665 0.140996 -41.6431 1.01678C-42.5197 1.89257 -43.2151 2.93253 -43.6895 4.07723C-44.164 5.22192 -44.4082 6.4489 -44.4082 7.68802V119.431C-44.4082 121.934 -43.4138 124.335 -41.6436 126.105C-39.8735 127.876 -37.4726 128.87 -34.9693 128.87H155.132C157.636 128.87 160.037 127.876 161.807 126.105C163.577 124.335 164.571 121.934 164.571 119.431V7.68802C164.571 6.4489 164.327 5.22192 163.853 4.07723C163.378 2.93253 162.683 1.89257 161.806 1.01678C160.93 0.140996 159.889 -0.553448 158.744 -1.02685C157.599 -1.50025 156.372 -1.74333 155.132 -1.74218V-1.74218Z" fill="#EBF8FF"/>
<path d="M106.012 10H63.988C62.2824 10 60.5935 10.3363 59.0177 10.9896C57.442 11.6429 56.0102 12.6004 54.8041 13.8076C53.5981 15.0148 52.6413 16.4479 51.9886 18.0251C51.3359 19.6023 51 21.2928 51 23C51 24.7072 51.3359 26.3977 51.9886 27.9749C52.6413 29.5521 53.5981 30.9852 54.8041 32.1924C56.0102 33.3995 57.442 34.3571 59.0177 35.0104C60.5935 35.6637 62.2824 36 63.988 36H106.012C109.457 36 112.76 34.6304 115.196 32.1924C117.632 29.7544 119 26.4478 119 23C119 19.5522 117.632 16.2456 115.196 13.8076C112.76 11.3696 109.457 10 106.012 10V10Z" fill="#D1EFFF"/>
<path d="M128.012 31H85.988C84.2824 31 82.5935 31.3363 81.0177 31.9896C79.442 32.6429 78.0102 33.6004 76.8041 34.8076C75.5981 36.0148 74.6413 37.4479 73.9886 39.0251C73.3359 40.6023 73 42.2928 73 44C73 45.7072 73.3359 47.3977 73.9886 48.9749C74.6413 50.5521 75.5981 51.9852 76.8041 53.1924C78.0102 54.3995 79.442 55.3571 81.0177 56.0104C82.5935 56.6637 84.2824 57 85.988 57H128.012C131.457 57 134.76 55.6304 137.196 53.1924C139.632 50.7544 141 47.4478 141 44C141 40.5522 139.632 37.2456 137.196 34.8076C134.76 32.3696 131.457 31 128.012 31V31Z" fill="#D1EFFF"/>
<path d="M113 44.9492C113 41.6355 110.314 38.9492 107 38.9492H31.2566C27.9429 38.9492 25.2566 41.6355 25.2566 44.9492V87.1285C25.2566 89.5954 27.2565 91.5953 29.7234 91.5953H33.7208C36.1455 91.5953 37.3887 94.5005 35.7146 96.2545C33.4751 98.6008 36.4225 102.215 39.1713 100.494L52.2383 92.31C52.984 91.8429 53.8461 91.5953 54.7261 91.5953H107C110.314 91.5953 113 88.909 113 85.5953V44.9492Z" fill="white"/>
<path fill-rule="evenodd" clip-rule="evenodd" d="M36.1579 95.6495C36.2837 95.4181 36.3712 95.1768 36.4234 94.9322C36.4297 94.9027 36.4355 94.8731 36.4408 94.8435C36.4853 94.5938 36.4935 94.3416 36.4686 94.0939C36.4428 93.8388 36.3819 93.5885 36.289 93.3508C35.6389 93.4166 35.0844 93.9052 34.964 94.5803C34.9263 94.7921 34.8271 95.0119 34.6295 95.2189C33.8513 96.0341 33.4577 97.0097 33.4254 97.9988C33.3984 98.8268 34.0477 99.52 34.8757 99.547C35.0216 99.5518 35.1633 99.5355 35.298 99.501C35.1706 99.2792 35.0722 99.0411 35.0082 98.7932C34.9459 98.5518 34.9164 98.3012 34.9246 98.0478C34.9299 97.888 34.9501 97.7271 34.9867 97.5665C35.0414 97.3265 35.1327 97.0875 35.2647 96.8547C35.3816 96.6486 35.5306 96.4473 35.7146 96.2545C35.8958 96.0646 36.0429 95.8613 36.1579 95.6495ZM43.7093 97.6515C44.149 98.3536 43.9363 99.2792 43.2342 99.7189L39.9675 101.765C39.0123 102.363 37.9775 102.552 37.0021 102.385C36.1856 102.245 35.6373 101.469 35.7774 100.653C35.8021 100.509 35.8465 100.373 35.9074 100.248C36.099 100.418 36.3125 100.562 36.5424 100.675C36.7664 100.784 37.0059 100.864 37.2558 100.906C37.8577 101.01 38.5201 100.901 39.1713 100.494L43.7093 97.6515ZM60.5822 91.5953C60.5822 92.4237 59.9106 93.0953 59.0822 93.0953H54.726C54.1277 93.0953 53.5415 93.2637 53.0344 93.5812L49.7677 95.6271C49.0656 96.0668 48.14 95.8541 47.7002 95.152L52.2382 92.31C52.984 91.8429 53.8461 91.5953 54.726 91.5953H60.5822ZM78.0069 91.5953C78.0069 92.4237 77.3353 93.0953 76.5069 93.0953H67.7945C66.9661 93.0953 66.2945 92.4237 66.2945 91.5953H78.0069ZM95.4315 91.5953C95.4315 92.4237 94.7599 93.0953 93.9315 93.0953H85.2192C84.3907 93.0953 83.7192 92.4237 83.7192 91.5953H95.4315ZM110.599 90.3961C110.63 90.4501 110.658 90.5065 110.682 90.5654C111 91.3306 110.637 92.2082 109.871 92.5256C108.985 92.8931 108.014 93.0953 107 93.0953H102.644C101.815 93.0953 101.144 92.4237 101.144 91.5953H107C107.814 91.5953 108.589 91.4333 109.297 91.14C109.529 91.0437 109.754 90.9332 109.97 90.8097C110.189 90.6848 110.399 90.5466 110.599 90.3961ZM113 80.7081C113.828 80.7081 114.5 81.3797 114.5 82.2081V85.5953C114.5 86.6094 114.298 87.5802 113.93 88.4666C113.613 89.2318 112.735 89.5949 111.97 89.2776C111.911 89.2532 111.855 89.2254 111.801 89.1947C111.951 88.9943 112.09 88.7842 112.214 88.5654C112.338 88.349 112.448 88.1242 112.545 87.892C112.838 87.1845 113 86.4088 113 85.5953V80.7081ZM113 67.1594C113.828 67.1594 114.5 67.831 114.5 68.6594V75.4337C114.5 76.2622 113.828 76.9337 113 76.9337V67.1594ZM113 53.6107C113.828 53.6107 114.5 54.2823 114.5 55.1107V61.8851C114.5 62.7135 113.828 63.3851 113 63.3851V53.6107ZM111.801 41.3498C111.855 41.319 111.911 41.2913 111.97 41.2669C112.735 40.9496 113.613 41.3127 113.93 42.0779C114.298 42.9643 114.5 43.9351 114.5 44.9492V48.3364C114.5 49.1648 113.828 49.8364 113 49.8364V44.9492C113 44.1357 112.838 43.3599 112.545 42.6525C112.448 42.4203 112.338 42.1955 112.214 41.9791C112.09 41.7603 111.951 41.5502 111.801 41.3498ZM101.713 38.9492C101.713 38.1208 102.384 37.4492 103.213 37.4492H107C108.014 37.4492 108.985 37.6513 109.871 38.0189C110.637 38.3362 111 39.2138 110.682 39.9791C110.658 40.0379 110.63 40.0944 110.599 40.1484C110.399 39.9979 110.189 39.8596 109.97 39.7348C109.754 39.6112 109.529 39.5008 109.297 39.4045C108.589 39.1111 107.814 38.9492 107 38.9492H101.713ZM86.5641 38.9492C86.5641 38.1208 87.2357 37.4492 88.0641 37.4492H95.6385C96.4669 37.4492 97.1385 38.1208 97.1385 38.9492H86.5641ZM71.4155 38.9492C71.4155 38.1208 72.087 37.4492 72.9155 37.4492H80.4898C81.3182 37.4492 81.9898 38.1208 81.9898 38.9492H71.4155ZM56.2668 38.9492C56.2668 38.1208 56.9383 37.4492 57.7668 37.4492H65.3411C66.1695 37.4492 66.8411 38.1208 66.8411 38.9492H56.2668ZM41.1181 38.9492C41.1181 38.1208 41.7897 37.4492 42.6181 37.4492H50.1924C51.0209 37.4492 51.6924 38.1208 51.6924 38.9492H41.1181ZM36.5438 38.9492C36.5438 38.1208 35.8722 37.4492 35.0438 37.4492H31.2566C30.2424 37.4492 29.2717 37.6513 28.3853 38.0189C27.62 38.3362 27.2569 39.2138 27.5743 39.9791C27.5987 40.0379 27.6264 40.0944 27.6571 40.1484C27.8575 39.9979 28.0677 39.8596 28.2865 39.7347C28.5028 39.6112 28.7277 39.5008 28.9599 39.4045C29.6673 39.1111 30.443 38.9492 31.2566 38.9492H36.5438ZM25.2566 49.9642C24.4282 49.9642 23.7566 49.2926 23.7566 48.4642V44.9492C23.7566 43.935 23.9587 42.9643 24.3263 42.0779C24.6436 41.3127 25.5212 40.9496 26.2865 41.2669C26.3453 41.2913 26.4018 41.319 26.4557 41.3498C26.3052 41.5502 26.167 41.7603 26.0421 41.9791C25.9186 42.1955 25.8082 42.4203 25.7119 42.6525C25.4185 43.3599 25.2566 44.1357 25.2566 44.9492V49.9642ZM25.2566 64.0239C24.4282 64.0239 23.7566 63.3523 23.7566 62.5239V55.494C23.7566 54.6656 24.4282 53.994 25.2566 53.994V64.0239ZM25.2566 78.0836C24.4282 78.0836 23.7566 77.4121 23.7566 76.5836V69.5538C23.7566 68.7253 24.4282 68.0538 25.2566 68.0538V78.0836ZM26.3952 90.1077C26.3247 90.1519 26.2496 90.1909 26.1701 90.2239C25.4049 90.5412 24.5273 90.1781 24.2099 89.4129C23.9173 88.7073 23.7566 87.9347 23.7566 87.1285V83.6135C23.7566 82.7851 24.4282 82.1135 25.2566 82.1135V87.1285C25.2566 87.7341 25.3771 88.3116 25.5955 88.8383C25.692 89.0709 25.8075 89.2936 25.9402 89.5044C26.0749 89.7184 26.2272 89.9202 26.3952 90.1077ZM36.2178 93.1846C36.11 92.9533 35.9711 92.7364 35.8043 92.5416C35.6424 92.3526 35.4542 92.1844 35.2429 92.0442C34.8202 91.7638 34.3047 91.5953 33.7207 91.5953H29.7234C29.1177 91.5953 28.5402 91.4747 28.0136 91.2563C27.7809 91.1598 27.5582 91.0443 27.3474 90.9116C27.1334 90.7769 26.9317 90.6246 26.7442 90.4567C26.6999 90.5271 26.6609 90.6023 26.628 90.6817C26.3106 91.447 26.6737 92.3246 27.439 92.6419C28.1446 92.9345 28.9171 93.0953 29.7234 93.0953H30.7227C31.1066 93.0953 31.4568 92.9511 31.7221 92.7139C31.9874 92.9511 32.3375 93.0953 32.7214 93.0953H33.7207C34.0069 93.0953 34.2344 93.1752 34.4137 93.2941C34.9851 93.6732 35.7214 93.6094 36.2178 93.1846Z" fill="#F58B00"/>
<path d="M78.4618 66.2692C78.4618 68.627 80.3732 70.5384 82.731 70.5384C85.0889 70.5384 87.0002 68.627 87.0002 66.2692C87.0002 63.9114 85.0889 62 82.731 62C80.3732 62 78.4618 63.9114 78.4618 66.2692Z" fill="#004DA5"/>
<path d="M50 66.2692C50 68.627 51.9114 70.5384 54.2692 70.5384C56.6271 70.5384 58.5385 68.627 58.5385 66.2692C58.5385 63.9114 56.6271 62 54.2692 62C51.9114 62 50 63.9114 50 66.2692Z" fill="#004DA5"/>
<path d="M64.2311 66.2692C64.2311 68.627 66.1425 70.5384 68.5003 70.5384C70.8581 70.5384 72.7695 68.627 72.7695 66.2692C72.7695 63.9114 70.8581 62 68.5003 62C66.1425 62 64.2311 63.9114 64.2311 66.2692Z" fill="#004DA5"/>
</g>
</svg>
