<svg width="160" height="161" viewBox="0 0 160 161" fill="none" xmlns="http://www.w3.org/2000/svg">
<rect y="46" width="160" height="69" rx="12" fill="#89D1FF"/>
<path d="M98.1031 53.958C99.0217 53.889 99.8268 54.5756 99.8961 55.4941L100.044 56.9893C100.645 57.0166 101.119 57.1862 101.171 57.7871C101.175 57.8241 102.753 73.2563 104.318 84.8115C105.849 96.0961 106.825 104.161 106.825 104.161C106.9 105.08 106.154 105.885 105.157 105.954L61.1177 109.116C60.1206 109.185 59.2466 108.499 59.1714 107.58C59.1714 107.58 57.8892 101.666 56.9283 94.4951C56.7086 94.6872 56.5052 94.8639 56.3228 95.0186C54.3148 96.7258 52.4283 98.5424 51.1763 100.859C49.9446 103.136 49.042 105.62 47.481 107.709C46.7087 108.742 45.7938 109.53 44.7613 110.286C43.2278 111.415 40.3653 113.133 39.5132 114.837L30.275 114.933L33.107 108.433C33.6357 107.042 38.497 93.457 39.5132 88.5547C39.6921 87.6807 40.1643 86.8922 40.8716 86.3516C43.0707 84.6647 45.7614 84.3513 48.4361 83.1807C52.0644 81.945 54.2432 81.1613 55.7095 80.7656C55.1563 71.2511 54.7932 59.9647 54.8589 59.0684C54.859 59.0664 54.8589 59.0644 54.8589 59.0625C54.8547 58.1915 55.5508 57.4422 56.4312 57.3721L98.1031 53.958Z" fill="#1B90FF"/>
<path d="M68.6255 82.2617C68.6255 82.2617 67.5383 96.8054 64.7984 96.9955C62.0585 97.1855 61.6121 91.4847 61.6121 91.4847C61.6121 91.4847 63.0572 84.078 68.6255 82.2617Z" fill="#450B00"/>
<path d="M60.7857 84.0428C60.7769 84.7719 59.6456 85.7928 58.9694 86.3408C58.3242 85.7707 57.7586 85.1166 57.2504 84.4228C55.9511 82.6595 54.8507 80.6399 54.3204 78.5099C54.2674 78.2977 53.7282 77.5863 53.7813 77.352C57.6923 75.6374 62.7744 72.8842 64.4051 72.2301C68.2984 70.6746 68.8995 75.4385 68.8995 75.4385C68.8995 75.4385 66.8975 77.0206 66.3938 78.4701C65.8944 79.9196 60.7946 82.991 60.7857 84.0339V84.0428Z" fill="#C35500"/>
<path d="M58.0989 88.5945C57.246 88.126 55.4827 83.9896 55.1645 83.2207C55.1645 83.2118 56.4284 81.3734 57.5907 81.2408C57.8823 81.1922 57.4934 84.0957 58.3154 84.0559C59.4821 84.0029 60.1892 82.2484 61.0067 80.8254C61.7005 79.6101 62.2309 79.2654 62.4872 78.7882C62.8098 78.1872 62.6949 78.1076 62.633 77.4845C62.5976 77.1133 62.5976 76.7332 62.6551 76.3664C62.6816 76.2073 62.7302 76.0306 62.8716 75.9599C62.9998 75.8936 63.1677 75.951 63.2605 76.0615C63.455 76.3046 63.318 76.6979 63.4506 76.9763C63.5566 77.1928 63.7997 77.3166 64.0339 77.3254C64.2549 77.3342 64.4493 77.2282 64.6128 77.0912C64.9929 76.773 65.426 76.5432 65.6734 76.1234C65.943 75.6019 65.8723 74.8639 66.4247 74.9434L68.5857 75.3986C68.5857 75.3986 68.873 76.4416 68.5504 77.5994C68.4001 77.9132 67.0743 78.5363 66.7782 78.7926C64.7631 80.5338 62.5667 84.7762 62.5535 85.6954C62.5446 86.4246 59.7826 89.6639 59.0313 88.9436L58.0989 88.59V88.5945Z" fill="#8D2A00"/>
<path d="M64.8427 48.1138L105.049 48.0078C106.048 47.9326 107.117 47.8398 107.197 48.8386C107.197 48.8386 108.779 65.6405 110.348 78.2177C111.881 90.4855 112.858 99.2532 112.858 99.2532C112.933 100.252 112.186 101.127 111.187 101.202L67.0832 104.64C66.0845 104.715 65.2095 103.969 65.1343 102.97C65.1343 102.97 62.9778 92.1913 62.1602 81.6249C61.3426 71.0585 60.7726 50.9863 60.8565 49.7445C60.9493 48.3127 61.979 48.3039 64.8427 48.1138Z" fill="#0899A7"/>
<path d="M65.0459 48.1143L105.698 47.5664C106.697 47.4912 107.767 47.3984 107.846 48.3972C107.846 48.3972 109.428 65.1991 110.997 77.7763C112.531 90.0441 113.507 98.8118 113.507 98.8118C113.582 99.8106 112.836 100.686 111.837 100.761L67.7328 104.199C66.734 104.274 65.859 103.527 65.7839 102.528C65.7839 102.528 63.6273 91.7499 62.8097 81.1835C61.9922 70.6171 61.4707 50.1339 61.4707 50.1339C61.4707 49.1882 62.1866 48.3044 65.0503 48.1143H65.0459Z" fill="#046C7C"/>
<path d="M70.3622 82.3438C70.3622 82.3438 70.9455 88.4732 70.4903 91.0983C70.0351 93.7233 68.9657 93.9354 68.3912 93.6658C67.8167 93.3963 66.6102 92.7378 66.5749 91.0187C66.5395 89.2996 66.0004 87.5364 66.0004 87.5364L67.0566 84.4915L70.3666 82.3438H70.3622Z" fill="#450B00"/>
<path d="M65.121 48.83L107.625 45.5156C108.624 45.4405 109.693 45.3476 109.773 46.3464C109.773 46.3464 111.355 63.1483 112.924 75.7255C114.457 87.9933 115.434 96.7611 115.434 96.7611C115.509 97.7598 114.762 98.6348 113.764 98.7099L69.6596 102.148C68.6608 102.223 67.7858 101.476 67.7107 100.478C67.7107 100.478 65.5541 89.6991 64.7366 79.1327C63.919 68.5663 63.3975 50.7701 63.3975 50.7701C63.3224 49.7713 64.1223 48.9096 65.121 48.83Z" fill="white"/>
<path d="M65.0459 48.1113L107.824 44.6732C108.823 44.598 109.698 45.3449 109.773 46.3436L110.759 56.2869L63.7246 59.9947L63.3401 50.0735C63.265 49.0747 64.0516 48.1953 65.0504 48.1158L65.0459 48.1113Z" fill="#0899A7"/>
<path d="M70.897 84.3008C70.8705 84.3405 70.844 84.3759 70.8219 84.4156C70.8484 84.3759 70.8749 84.3405 70.897 84.3008Z" fill="#C35500"/>
<path d="M73.0005 77.7574C72.9784 77.722 72.9563 77.6955 72.9342 77.6602C72.9651 77.7264 72.9961 77.7972 73.0226 77.8635C73.0138 77.8281 73.0093 77.7927 73.0049 77.7574H73.0005Z" fill="#C35500"/>
<path d="M68.0421 88.0754C68.7978 87.1385 69.7613 85.9585 70.6452 84.668C69.7569 85.9452 68.7978 87.1296 68.0421 88.0754Z" fill="#C35500"/>
<path d="M76.3903 55.6624C77.7889 55.6624 78.9227 54.5286 78.9227 53.13C78.9227 51.7314 77.7889 50.5977 76.3903 50.5977C74.9917 50.5977 73.8579 51.7314 73.8579 53.13C73.8579 54.5286 74.9917 55.6624 76.3903 55.6624Z" fill="#00144A"/>
<path d="M98.0665 53.8694C99.4651 53.8694 100.599 52.7356 100.599 51.3371C100.599 49.9385 99.4651 48.8047 98.0665 48.8047C96.668 48.8047 95.5342 49.9385 95.5342 51.3371C95.5342 52.7356 96.668 53.8694 98.0665 53.8694Z" fill="#00144A"/>
<path d="M74.618 54.9448C74.618 54.9448 74.2467 54.6752 74.0037 54.03C73.7606 53.3848 73.8799 52.775 73.8799 52.775C75.5504 52.7926 76.3768 51.8248 76.147 48.2011C75.9968 45.8368 75.3604 44.3873 74.7947 43.9984C74.6621 43.9056 74.4942 43.8349 74.1672 43.9365C73.4336 44.1619 73.0889 45.6202 73.2082 47.494L70.9898 47.6707C70.7246 43.552 72.4569 42.1511 73.5131 41.8241C74.4279 41.5413 75.3029 41.665 76.0454 42.1776C77.7998 43.3841 78.2417 46.3803 78.3478 48.0596C78.4804 50.1102 78.6837 54.3968 74.618 54.9448Z" fill="#046C7C"/>
<path d="M96.3783 53.2257C96.3783 53.2257 95.9806 52.8987 95.7419 52.3463C95.4679 51.7188 95.5386 51.1796 95.5386 51.1796C97.377 51.1796 98.4774 50.0704 98.2432 46.4466C98.0929 44.0823 97.4566 42.6328 96.8909 42.2439C96.7583 42.1511 96.5904 42.0804 96.2634 42.1821C95.5298 42.4075 95.1453 43.8437 95.2646 45.7175L93.086 45.8942C92.8208 41.7755 94.5531 40.4011 95.6093 40.0741C96.5197 39.7913 97.3991 39.915 98.146 40.4276C99.9004 41.6341 100.342 44.6303 100.448 46.3096C100.581 48.3602 100.448 52.6822 96.3783 53.2302V53.2257Z" fill="#046C7C"/>
<path d="M100.478 99.7447C97.1148 81.2591 95.468 57.7351 95.4547 57.4965L96.3341 57.4258C96.3518 57.6688 98.0254 81.2349 101.38 99.6764L100.478 99.7447Z" fill="#0899A7"/>
<path d="M83.4205 101.077C79.8586 82.2556 78.8251 59.0393 78.8119 58.8051L79.6913 58.7344C79.7002 58.9686 80.7531 82.2472 84.3062 101.007L83.4205 101.077Z" fill="#0899A7"/>
<path d="M64.3844 73.7951L64.3229 72.9189C64.4776 72.9056 79.6029 71.5233 112.142 69.1016L112.252 69.981C79.7222 72.4027 64.539 73.7819 64.3844 73.7951Z" fill="#0899A7"/>
<path d="M61.4796 50.5983C61.4663 50.1342 61.4045 49.3785 62.1602 49.5464C62.8585 49.7011 63.3358 49.7939 63.4153 51.3849C63.4507 52.0832 64.9489 49.7718 64.9489 49.7718L65.5765 48.0703L64.1269 48.1675L63.0529 48.362L61.8243 48.7995L61.2542 49.4845V50.7485L61.4796 50.6027V50.5983Z" fill="#0899A7"/>
<path d="M68.1128 87.9866C73.5926 87.5181 88.6667 86.2586 113.989 84.3716C113.954 84.0844 113.918 83.7883 113.883 83.4922C89.7671 85.2908 74.9538 86.5149 68.8729 87.032C68.6033 87.3723 68.3514 87.686 68.1128 87.9821V87.9866Z" fill="#0899A7"/>
<path d="M63.4064 92.64L64.056 96.8872L64.6836 96.3436C64.4494 94.9072 64.2019 93.2809 63.9588 91.5352L63.4064 92.6356V92.64Z" fill="#046C7C"/>
<path d="M66.5265 93.7547C66.2923 92.3007 66.0492 90.6699 65.8106 88.9375L63.9588 91.5406C64.2019 93.2863 64.4538 94.9082 64.6836 96.349L66.5265 93.7592V93.7547Z" fill="#00144A"/>
<path d="M48.4959 108.606C49.5212 107.633 50.6304 106.749 51.7706 105.91C52.8931 105.088 53.8874 104.23 54.727 103.108C56.424 100.837 57.4051 98.1364 58.7441 95.6616C60.1052 93.1426 62.1558 91.1672 64.3389 89.3111C65.4128 88.4008 65.4835 85.3869 66.6855 85.5018C67.8831 85.3559 69.1028 84.9538 69.9822 83.9329C70.6761 83.1286 71.666 82.1917 71.8162 81.1311C71.9576 80.1324 71.2285 77.282 70.928 76.3274C71.2152 76.3186 71.5025 76.3849 71.7632 76.5086C68.3781 74.7586 63.2915 82.8856 63.2915 82.8856C63.2915 82.8856 59.9815 87.433 59.2877 87.5611C58.5939 87.6937 56.2075 87.075 57.7631 80.6848C57.9266 80.0042 55.9467 82.2359 55.6197 81.6172C55.2529 80.9278 54.9215 80.2163 54.6696 79.4783C54.4884 78.948 55.823 77.0036 55.7656 76.4423C52.8577 77.7151 49.9322 78.0553 47.5414 79.8893C46.7724 80.4771 46.2598 81.3344 46.0653 82.2846C44.9605 87.6142 39.6751 102.383 39.1006 103.895L34.1069 114.929H43.8601C45.0401 112.57 46.5824 110.426 48.5003 108.606H48.4959Z" fill="#C35500"/>
<path d="M70.8174 84.4166C70.844 84.3769 70.8705 84.3415 70.8926 84.3017C72.1255 82.4722 73.1287 80.4968 73.1022 78.8307C73.1022 78.7865 73.1022 78.7423 73.1022 78.6981C73.1022 78.6716 73.1022 78.6407 73.1022 78.6142C73.1464 78.3755 73.111 78.1148 73.0182 77.8585C72.9917 77.7922 72.9652 77.7215 72.9298 77.6552C72.6956 77.1779 72.267 76.7404 71.7587 76.5062C71.4936 76.3825 71.2108 76.3162 70.9235 76.325C71.224 77.2796 71.9488 80.13 71.8118 81.1287C71.6615 82.1893 70.6716 83.1262 69.9778 83.9305C69.0984 84.9514 67.8787 85.3535 66.681 85.4993C65.479 85.3889 65.4039 88.3984 64.3344 89.3087C62.1513 91.1648 60.1008 93.1402 58.7397 95.6592C57.4006 98.1339 56.4196 100.834 54.7226 103.106C53.8829 104.228 52.8886 105.085 51.7661 105.907C50.6259 106.743 49.5167 107.626 48.4915 108.603C46.5735 110.424 45.0312 112.567 43.8513 114.927H48.7566L49.4504 112.311C49.4504 112.311 49.667 111.745 54.78 106.734C59.8975 101.722 60.5427 99.6453 62.527 95.6415C64.5112 91.6377 66.4026 90.2279 67.5958 88.6149C67.7284 88.447 67.8787 88.2614 68.0289 88.0669C68.7846 87.1256 69.748 85.9368 70.6318 84.6597C70.6893 84.5757 70.7467 84.4918 70.8042 84.4078L70.8174 84.4166Z" fill="#8D2A00"/>
<path d="M70.1503 82.1469L69.421 81.8773C68.7537 81.6298 68.1747 81.1878 67.7549 80.6133L67.2997 79.9902C67.2997 79.9902 68.9879 74.8989 71.8341 76.6844C74.9763 78.6599 70.1458 82.1469 70.1458 82.1469H70.1503Z" fill="#450B00"/>
<path d="M68.1129 87.9879C68.3515 87.6919 68.6034 87.3737 68.873 87.0378C69.5182 86.9848 70.2695 86.9185 71.1136 86.8478C72.8989 83.7543 73.5221 81.6021 73.1022 78.7031L65.8105 88.9381C66.0491 90.6748 66.2922 92.3011 66.5264 93.755C66.5264 93.755 67.534 92.5795 70.0971 88.5227C70.2562 88.2708 70.4109 88.0233 70.5567 87.7847C69.5978 87.8642 68.7802 87.9349 68.1085 87.9924L68.1129 87.9879Z" fill="#56BDFF"/>
<path d="M68.1128 87.9879C68.7846 87.9304 69.6022 87.8597 70.5612 87.7802C70.7601 87.4575 70.9413 87.1482 71.1136 86.8477C70.2695 86.9184 69.5182 86.9802 68.8729 87.0377C68.6034 87.378 68.3514 87.6918 68.1128 87.9879Z" fill="#00144A"/>
<path d="M48.4959 108.606C49.5212 107.633 50.6304 106.749 51.7706 105.91C52.8931 105.088 53.8874 104.23 54.727 103.108C56.424 100.837 57.4051 98.1364 58.7441 95.6616C60.1052 93.1426 62.1558 91.1672 64.3389 89.3111C65.4128 88.4008 65.4835 85.3869 66.6855 85.5018C67.8831 85.3559 69.1028 84.9538 69.9822 83.9329C70.6761 83.1286 71.666 82.1917 71.8162 81.1311C71.9576 80.1324 71.2285 77.282 70.928 76.3274C71.2152 76.3186 71.5025 76.3849 71.7632 76.5086C68.3781 74.7586 63.2915 82.8856 63.2915 82.8856C63.2915 82.8856 59.9815 87.433 59.2877 87.5611C58.5939 87.6937 56.2075 87.075 57.7631 80.6848C57.9266 80.0042 55.9467 82.2359 55.6197 81.6172C55.2529 80.9278 54.9215 80.2163 54.6696 79.4783C54.4884 78.948 55.823 77.0036 55.7656 76.4423C52.8577 77.7151 49.9322 78.0553 47.5414 79.8893C46.7724 80.4771 46.2598 81.3344 46.0653 82.2846C44.9605 87.6142 39.6751 102.383 39.1006 103.895L34.1069 114.929H43.8601C45.0401 112.57 46.5824 110.426 48.5003 108.606H48.4959Z" fill="#C35500"/>
<path d="M70.8174 84.4166C70.844 84.3769 70.8705 84.3415 70.8926 84.3017C72.1255 82.4722 73.1287 80.4968 73.1022 78.8307C73.1022 78.7865 73.1022 78.7423 73.1022 78.6981C73.1022 78.6716 73.1022 78.6407 73.1022 78.6142C73.1464 78.3755 73.111 78.1148 73.0182 77.8585C72.9917 77.7922 72.9652 77.7215 72.9298 77.6552C72.6956 77.1779 72.267 76.7404 71.7587 76.5062C71.4936 76.3825 71.2108 76.3162 70.9235 76.325C71.224 77.2796 71.9488 80.13 71.8118 81.1287C71.6615 82.1893 70.6716 83.1262 69.9778 83.9305C69.0984 84.9514 67.8787 85.3535 66.681 85.4993C65.479 85.3889 65.4039 88.3984 64.3344 89.3087C62.1513 91.1648 60.1008 93.1402 58.7397 95.6592C57.4006 98.1339 56.4196 100.834 54.7226 103.106C53.8829 104.228 52.8886 105.085 51.7661 105.907C50.6259 106.743 49.5167 107.626 48.4915 108.603C46.5735 110.424 45.0312 112.567 43.8513 114.927H48.7566L49.4504 112.311C49.4504 112.311 49.667 111.745 54.78 106.734C59.8975 101.722 60.5427 99.6453 62.527 95.6415C64.5112 91.6377 66.4026 90.2279 67.5958 88.6149C67.7284 88.447 67.8787 88.2614 68.0289 88.0669C68.7846 87.1256 69.748 85.9368 70.6318 84.6597C70.6893 84.5757 70.7467 84.4918 70.8042 84.4078L70.8174 84.4166Z" fill="#8D2A00"/>
<path d="M70.1503 82.1469L69.421 81.8773C68.7537 81.6298 68.1747 81.1878 67.7549 80.6133L67.2997 79.9902C67.2997 79.9902 68.9879 74.8989 71.8341 76.6844C74.9763 78.6599 70.1458 82.1469 70.1458 82.1469H70.1503Z" fill="#FFB2D2"/>
</svg>
