<svg width="128" height="56" viewBox="0 0 128 56" fill="none" xmlns="http://www.w3.org/2000/svg">
<mask id="mask0_4011_81693" style="mask-type:luminance" maskUnits="userSpaceOnUse" x="0" y="0" width="128" height="56">
<path d="M128 0.5H0V55.5H128V0.5Z" fill="white"/>
</mask>
<g mask="url(#mask0_4011_81693)">
<path d="M118.4 0.5H9.6C4.29807 0.5 0 4.78249 0 10.0652V45.9348C0 51.2175 4.29807 55.5 9.6 55.5H118.4C123.702 55.5 128 51.2175 128 45.9348V10.0652C128 4.78249 123.702 0.5 118.4 0.5Z" fill="#89D1FF"/>
<path d="M96.3636 43.9335L46.1316 44.073C45.6396 44.073 45.1956 43.7701 45.0196 43.3118L34.4794 15.8796C34.1834 15.1024 34.7554 14.2734 35.5914 14.2734L85.8476 14.3252L97.8196 41.7176C98.2756 42.7658 97.5076 43.9375 96.3636 43.9375V43.9335Z" fill="#00144A"/>
<path d="M96.895 42.918L46.539 43.0575C45.955 43.0575 45.427 42.6988 45.219 42.1528L34.8508 15.163C34.4988 14.2423 35.1788 13.2539 36.1708 13.2539L85.179 13.3017C85.739 13.3017 86.247 13.6325 86.471 14.1467L98.187 40.9492C98.591 41.8778 97.911 42.914 96.899 42.914L96.895 42.918Z" fill="white"/>
<path d="M84.0036 19.8375H76.9436C76.7156 19.8375 76.5116 19.702 76.4276 19.4907L76.4076 19.4469C76.2556 19.0802 76.5316 18.6777 76.9276 18.6817L84.0076 18.7255C84.2236 18.7255 84.4196 18.853 84.5116 19.0483C84.6836 19.415 84.4116 19.8375 84.0036 19.8375Z" fill="white"/>
<path d="M73.1667 19.8375H66.1067C65.8787 19.8375 65.6747 19.702 65.5907 19.4907L65.5707 19.4469C65.4187 19.0802 65.6947 18.6777 66.0907 18.6817L73.1707 18.7255C73.3867 18.7255 73.5827 18.853 73.6747 19.0483C73.8467 19.415 73.5747 19.8375 73.1667 19.8375Z" fill="white"/>
<path d="M85.3835 24.0142H78.3235C78.0955 24.0142 77.8915 23.8787 77.8075 23.6675L77.7875 23.6236C77.6355 23.257 77.9115 22.8544 78.3075 22.8584L85.3875 22.9023C85.6035 22.9023 85.7995 23.0298 85.8915 23.2251C86.0635 23.5918 85.7915 24.0142 85.3835 24.0142Z" fill="#0040B0"/>
<path d="M87.8149 27.4136H79.6669C79.4069 27.4136 79.1709 27.2781 79.0709 27.0669L79.0509 27.0231C78.8789 26.6564 79.1909 26.2539 79.6509 26.2578L87.8189 26.3017C88.0669 26.3017 88.2949 26.4292 88.3989 26.6245C88.5949 26.9912 88.2829 27.4136 87.8149 27.4136Z" fill="#0040B0"/>
<path d="M86.7872 30.7545H80.7072C80.5112 30.7545 80.3352 30.619 80.2632 30.4077L80.2476 30.3639C80.1196 29.9972 80.3512 29.5947 80.6952 29.5987L86.7916 29.6425C86.9796 29.6425 87.1476 29.77 87.2236 29.9653C87.3716 30.332 87.1392 30.7545 86.7872 30.7545Z" fill="#0040B0"/>
<path d="M89.1072 33.9703H82.0471C81.8191 33.9703 81.6152 33.8348 81.5312 33.6235L81.5112 33.5797C81.3592 33.213 81.6352 32.8105 82.0312 32.8145L89.1112 32.8583C89.3272 32.8583 89.5231 32.9859 89.6151 33.1811C89.7871 33.5478 89.5152 33.9703 89.1072 33.9703Z" fill="#0040B0"/>
<path d="M90.5476 37.733H83.4876C83.2596 37.733 83.0556 37.5975 82.9716 37.3862L82.9516 37.3424C82.7996 36.9757 83.0756 36.5732 83.4716 36.5772L90.5516 36.621C90.7676 36.621 90.9636 36.7486 91.0556 36.9438C91.2276 37.3105 90.9556 37.733 90.5476 37.733Z" fill="#0040B0"/>
<path d="M73.7751 23.8951H66.7151C66.4871 23.8951 66.2831 23.7596 66.1991 23.5483L66.1791 23.5045C66.0271 23.1378 66.3031 22.7353 66.6991 22.7393L73.7791 22.7831C73.9951 22.7831 74.1911 22.9107 74.2831 23.106C74.4551 23.4726 74.1831 23.8951 73.7751 23.8951Z" fill="#0040B0"/>
<path d="M76.2026 27.2945H68.0545C67.7945 27.2945 67.5586 27.159 67.4586 26.9478L67.4386 26.9039C67.2666 26.5373 67.5786 26.1347 68.0386 26.1387L76.2066 26.1825C76.4546 26.1825 76.6826 26.3101 76.7866 26.5054C76.9826 26.872 76.6706 27.2945 76.2026 27.2945Z" fill="#0040B0"/>
<path d="M75.1792 30.6343H69.0992C68.9032 30.6343 68.7272 30.4988 68.6552 30.2876L68.6392 30.2438C68.5112 29.8771 68.7432 29.4746 69.0872 29.4785L75.1832 29.5224C75.3712 29.5224 75.5392 29.6499 75.6152 29.8452C75.7632 30.2119 75.5312 30.6343 75.1792 30.6343Z" fill="#0040B0"/>
<path d="M77.4987 33.8511H70.4388C70.2108 33.8511 70.0068 33.7156 69.9228 33.5044L69.9028 33.4606C69.7508 33.0939 70.0268 32.6914 70.4228 32.6953L77.5028 32.7392C77.7188 32.7392 77.9147 32.8667 78.0067 33.062C78.1787 33.4287 77.9067 33.8511 77.4987 33.8511Z" fill="#0040B0"/>
<path d="M78.9353 37.6129H71.8753C71.6473 37.6129 71.4433 37.4773 71.3593 37.2661L71.3393 37.2223C71.1873 36.8556 71.4633 36.4531 71.8593 36.4571L78.9393 36.5009C79.1553 36.5009 79.3513 36.6284 79.4433 36.8237C79.6153 37.1904 79.3433 37.6129 78.9353 37.6129Z" fill="#0040B0"/>
<path d="M67.6697 43.0087L65.8592 35.0102L50.4758 30.6949L50.4053 30.2341C50.9366 30.0134 51.4706 29.7866 52.0083 29.5497C62.4703 24.9415 70 19.0611 68.8262 16.4156C67.6904 13.8556 58.8207 15.2631 48.7685 19.5324L48.0085 14.5635L42.5154 22.5098C39.9901 23.8531 40.2838 23.2495 38.4658 24.5718L42.424 34.8794L57.5622 37.7973L63.4811 43.0025" fill="#1B90FF"/>
<path d="M65.834 44.0196L70.1697 47.8325L68.8118 43.9707C67.2817 44.02 67.3649 44.0066 65.834 44.0196Z" fill="#1B90FF"/>
<path d="M38.6103 26.6357C32.4589 30.2537 31.1781 32.3605 32.0331 34.2876C32.4392 35.2029 33.8351 35.6103 35.9191 35.5618L42.5262 36.7947" fill="#1B90FF"/>
<path d="M43.6533 28.4174L62.8717 34.7808C62.9481 34.8068 63.0117 34.8606 63.0497 34.9313L69.8813 47.5389C69.9501 47.6669 70.0517 47.7741 70.1761 47.8498C70.3001 47.9259 70.4425 47.9674 70.5881 47.9701C70.7337 47.9729 70.8773 47.9371 71.0041 47.8661C71.1313 47.7956 71.2369 47.6924 71.3105 47.5672L76.8981 38.1656C76.9705 38.0446 77.0101 37.907 77.0133 37.7661C77.0161 37.6253 76.9829 37.486 76.9161 37.3618L72.8049 29.6834C72.7677 29.6141 72.7577 29.5333 72.7769 29.457L77.9489 9.29004L43.6533 28.4174Z" fill="#046C7C"/>
<path d="M61.7267 21.2836C71.9043 15.8086 78.9251 9.10118 77.4083 6.302C75.8915 3.50281 66.4115 5.67189 56.2339 11.1468C46.0567 16.6217 39.0359 23.3292 40.5527 26.1283C42.0695 28.9276 51.5495 26.7584 61.7267 21.2836Z" fill="#046C7C"/>
<path d="M62.8919 34.7977L43.7383 28.3285L54.2891 25.5791L65.3263 33.3421L62.8919 34.7977Z" fill="#00144A"/>
<path d="M77.4116 6.30639C76.7256 5.04051 63.7036 7.46569 61.4312 9.56817C61.4312 9.56817 66.0412 9.40643 66.6256 12.3176C67.21 15.2287 60.1328 21.2127 60.1328 21.2127C64.6776 20.0805 78.3664 8.06854 77.4116 6.30639Z" fill="#00144A"/>
<path d="M62.2663 22.2785C57.2575 24.9729 52.2431 26.9722 48.1487 27.91C43.4743 28.9785 40.5843 28.5609 39.5566 26.6644C38.5289 24.768 39.7635 22.133 43.2255 18.8246C46.2587 15.928 50.6871 12.8474 55.6959 10.153C60.7047 7.45859 65.7251 5.45611 69.8147 4.52091C74.4891 3.4524 77.3791 3.87004 78.4063 5.76531C79.4331 7.66054 78.1999 10.2979 74.7379 13.6064C71.7027 16.4993 67.2763 19.5835 62.2663 22.2785ZM56.7735 12.1418C51.9391 14.7424 47.6839 17.6957 44.7943 20.4562C41.6531 23.4573 41.2975 25.1242 41.5507 25.5917C41.8039 26.0592 43.3987 26.6784 47.6399 25.708C51.5415 24.8152 56.3579 22.8885 61.1887 20.2898C66.0195 17.6911 70.2783 14.7358 73.1691 11.9746C76.3091 8.9742 76.6663 7.30674 76.4123 6.83805C76.1583 6.36931 74.5639 5.75315 70.3235 6.72287C66.4207 7.61638 61.6103 9.54285 56.7747 12.1442L56.7735 12.1418Z" fill="#0899A7"/>
<path d="M65.3254 33.3428L62.8906 34.7984L69.8706 47.575L65.3254 33.3428Z" fill="#00144A"/>
</g>
</svg>
