<svg width="130" height="128" viewBox="0 0 130 128" fill="none" xmlns="http://www.w3.org/2000/svg">
<path d="M129.698 96.8182L126.347 95.2705L68.9684 90.0064C68.9684 90.0064 36.1118 86.5709 27.2002 86.0878C16.1445 85.4865 5.1676 85.176 4.50219 87.5074C3.83677 89.8388 11.176 93.3334 29.847 100.495C43.87 105.878 58.2331 107.159 63.0043 105.227L91.3115 96.8823L129.703 96.8182H129.698Z" fill="#101619"/>
<path d="M65.9168 24.0708L86.5272 83.2692C86.9668 85.5295 84.5755 87.2562 83.168 87.3765L18.6943 96.5226C17.5955 96.6168 16.5908 95.8895 16.3397 94.8117L1.0401 30.7054C0.495934 28.0683 2.68831 24.908 4.0749 24.8452L63.6878 22.4907C64.7029 22.4436 65.6238 23.0924 65.9168 24.0708Z" fill="#2A4259"/>
<path d="M67.6119 22.2675L86.4328 82.7634C86.841 84.1186 85.9044 85.5052 84.4916 85.6255L20.3894 94.7193C19.2906 94.8135 18.2859 94.0862 18.0348 93.0083L2.42126 27.5783C2.10208 26.2231 3.09624 24.915 4.48806 24.847L65.3829 20.6821C66.3979 20.635 67.3188 21.2838 67.6119 22.2622V22.2675Z" fill="#4D82B8"/>
<path d="M63.3068 35.5856L19.04 39.0746C18.4676 39.1292 17.9224 38.8293 17.8406 38.4477L17.0774 35.1768C16.9957 34.7951 17.3773 34.4408 17.9497 34.3863L62.0257 31.1698C62.5436 31.1426 63.0342 31.4152 63.1433 31.7695L64.0428 34.8497C64.1518 35.2313 63.8247 35.5584 63.3068 35.6129V35.5856Z" fill="#D5DADD"/>
<path d="M61.0618 57.2501L24.2182 61.0493C23.6458 61.1038 23.0734 60.8313 22.9916 60.3951L22.1739 56.9606C22.0649 56.5518 22.4737 56.1702 23.0462 56.1156L59.6989 52.6162C60.2168 52.5617 60.7347 52.8343 60.8437 53.2432L61.7978 56.4869C61.9068 56.8685 61.5797 57.1956 61.0618 57.2501Z" fill="#D5DADD"/>
<path d="M67.3022 79.2571L29.6711 84.2135C29.0714 84.2953 28.499 83.9954 28.39 83.5593L27.545 79.9067C27.4359 79.4706 27.8448 79.0617 28.4445 78.98L65.8575 74.3507C66.3754 74.2962 66.9206 74.5688 67.0296 74.9776L68.0382 78.3849C68.1472 78.7937 67.8201 79.2026 67.3022 79.2571Z" fill="#D5DADD"/>
<path d="M46.3669 47.5705L21.6062 49.9027C21.0338 49.9572 20.4887 49.6574 20.3796 49.2485L19.5891 45.8958C19.5074 45.4869 19.889 45.1326 20.4614 45.0781L45.0858 42.9639C45.6037 42.9094 46.1216 43.182 46.2306 43.5909L47.1301 46.78C47.2391 47.1616 46.9121 47.516 46.3669 47.5705Z" fill="#D5DADD"/>
<path d="M52.2625 69.3706L26.9174 72.4667C26.3177 72.5485 25.7725 72.2486 25.6635 71.8125L24.8458 68.269C24.7367 67.8328 25.1456 67.4512 25.718 67.3695L50.8996 64.5187C51.4448 64.4641 51.9627 64.7367 52.0717 65.1456L53.0258 68.4983C53.1348 68.9072 52.8077 69.316 52.2625 69.3706Z" fill="#D5DADD"/>
<path d="M102.578 87.8472L128.307 96.8938C128.307 96.8938 129.388 97.4801 129.768 95.0386C130.057 93.2019 130.267 90.7879 128.861 87.3159L105.459 79.1992L102.578 81.036V87.8472Z" fill="#FF7F4C"/>
<path d="M128.307 96.8889C128.307 96.8889 129.388 97.4752 129.768 95.0338C129.851 94.4979 102.578 85.543 102.578 85.543V87.8424L128.307 96.8889Z" fill="#8D2A00"/>
<path d="M129.403 88.8595C129.256 88.3694 129.082 87.8564 128.862 87.3159L105.46 79.1992L105.199 79.3687L105.786 81.2696L129.403 88.8595Z" fill="#FFAB92"/>
<path d="M84.7615 41.6875L85.3891 42.3242C85.8838 42.828 86.3052 43.4006 86.6395 44.0236L105.461 79.2019C105.461 79.2019 107.224 83.045 102.58 87.85L66.3982 104.624C65.418 105.077 64.3416 105.297 63.256 105.256H63.2285L84.7615 41.6875Z" fill="#FF7F4C"/>
<path d="M55.9813 103.401C57.2547 103.836 58.7067 103.575 60.2595 102.727C55.8255 98.8249 56.2103 84.6573 61.4779 69.1614C66.6126 54.0503 74.656 42.7731 80.5191 41.857C79.8274 40.5286 78.9205 39.6217 77.7891 39.2369C77.496 39.1361 77.1891 39.0812 76.873 39.0537C76.7631 39.0491 76.6577 39.0354 76.5478 39.0354C70.6114 38.9758 61.8306 51.1646 56.2149 67.6911C51.7305 80.8921 50.5305 93.1267 52.6467 99.3379C53.0543 100.318 53.5215 101.207 54.0391 101.995C54.5934 102.668 55.2392 103.144 55.9813 103.396V103.401Z" fill="#FF7F4C"/>
<path d="M61.4713 69.1554C56.2037 84.6512 55.819 98.8188 60.2529 102.721C65.8778 99.6524 72.8264 88.8241 77.549 74.9405C82.4135 60.6264 83.4166 47.4483 80.5126 41.8555C74.6495 42.7716 66.6061 54.0488 61.4713 69.1599V69.1554Z" fill="#A93E00"/>
<path d="M76.6373 77.5056C76.9488 76.6628 77.2511 75.8063 77.5489 74.9405C82.4134 60.6264 83.4165 47.4483 80.5124 41.8555C77.8557 42.2723 73.5592 45.3779 69.4551 52.0746C69.4551 52.0746 79.5139 53.8152 76.6373 77.5102V77.5056Z" fill="#450B00"/>
<path d="M84.7846 67.7274L71.872 92.6883L63.2285 105.248H63.256C64.337 105.289 65.4134 105.074 66.3982 104.621L102.594 87.849L82.591 88.233C86.9796 77.0322 88.6164 61.2656 88.6164 61.2656L84.7846 67.7274Z" fill="#8D2A00"/>
<path d="M105.464 79.1994L100.425 69.7818L88.0073 52.0781C88.0073 52.0781 88.1935 58.5379 87.334 63.5615L105.784 81.2698C105.816 79.9781 105.459 79.1994 105.459 79.1994H105.464Z" fill="#FFAB92"/>
<path d="M80.5141 41.857C79.8225 40.5286 78.9155 39.6217 77.7841 39.2369C77.491 39.1361 77.1841 39.0812 76.868 39.0537C76.7581 39.0491 76.6527 39.0354 76.5428 39.0354C72.741 38.9987 67.7803 43.9823 63.2227 51.9066C63.2272 51.9066 66.9558 50.7477 69.4522 52.0761C73.2265 46.1672 77.2116 42.3746 80.5095 41.857H80.5141Z" fill="#C35500"/>
<path d="M85.4601 42.4763C84.3058 40.5846 80.6735 40.0532 78.855 39.4349C78.2046 39.215 77.5404 39.0959 76.8671 39.0547C77.1786 39.0822 77.4855 39.1371 77.7832 39.2379C78.9146 39.6227 79.8261 40.5296 80.5132 41.858C83.4126 47.4508 82.4141 60.6289 77.5496 74.943C72.8316 88.8266 65.8784 99.6549 60.2535 102.724C58.7008 103.571 57.2487 103.832 55.9753 103.397C55.2333 103.145 54.5829 102.669 54.0332 101.996C54.0515 102.023 54.0698 102.055 54.0882 102.083C55.4532 104.135 60.8444 105.651 63.2263 105.252C70.8987 103.97 78.9604 91.7077 83.9211 77.1096C88.7947 62.768 89.5093 49.1135 85.4601 42.4763Z" fill="#FFAB92"/>
<path d="M83.3469 40.8412C82.441 40.3847 80.6223 39.9107 78.8541 39.4349C78.2037 39.215 77.5395 39.0959 76.8662 39.0547C77.1776 39.0822 77.4845 39.1371 77.7823 39.2379C78.9136 39.6227 79.8252 40.5296 80.5123 41.858C83.4142 47.4684 82.227 64.4451 75.1602 81.295C85.4991 65.4863 85.9829 46.9815 83.3469 40.8412Z" fill="#FFAB92"/>
</svg>
