<svg width="160" height="160" viewBox="0 0 160 160" fill="none" xmlns="http://www.w3.org/2000/svg">
<circle cx="80" cy="80" r="80" fill="#EBF8FF"/>
<path fill-rule="evenodd" clip-rule="evenodd" d="M4.0459 54.8121C9.86801 37.2458 21.6138 22.3794 36.9161 12.5801C47.4859 16.5835 55.0002 26.801 55.0002 38.7736C55.0002 54.2376 42.4642 66.7736 27.0002 66.7736C17.5021 66.7736 9.10855 62.0443 4.0459 54.8121Z" fill="#B8E6FF"/>
<path d="M21.8242 45.6519C21.7279 45.9319 19.5973 44.7025 17.563 45.6519C15.1436 46.7762 14.8986 50.0269 14.3648 49.9131C13.7523 49.7862 12.8904 45.2319 15.3142 43.6394C17.9304 41.9156 21.9598 45.2537 21.8242 45.6519Z" fill="#9EDDFF"/>
<path d="M34.0131 24.7649C33.9169 25.0449 31.7863 23.82 29.7519 24.7649C27.3325 25.8937 27.0875 29.1399 26.5538 29.0306C25.9413 28.8993 25.0794 24.345 27.5032 22.7525C30.1194 21.0331 34.1488 24.3712 34.0131 24.7649Z" fill="#9EDDFF"/>
<path d="M42.3081 40.8686C42.2118 41.1443 40.0812 39.9193 38.0468 40.8686C35.6275 41.993 35.3825 45.2436 34.8487 45.1299C34.2362 44.9986 33.3743 40.4443 35.7981 38.8562C38.4143 37.1324 42.4306 40.4705 42.3081 40.8686Z" fill="#9EDDFF"/>
<path fill-rule="evenodd" clip-rule="evenodd" d="M4.04443 54.8169C4.38329 53.7943 4.74221 52.7809 5.12074 51.7771C8.0852 54.3203 11.5717 56.2347 15.3719 57.3647C21.7412 59.2587 28.5766 58.8257 34.6561 56.1431C40.7355 53.4605 45.6628 48.7033 48.5571 42.7217C51.4513 36.7401 52.1239 29.9241 50.4546 23.4922C52.669 26.893 54.1177 30.7345 54.7003 34.7506C55.283 38.7667 54.9857 42.8615 53.829 46.7513C52.6723 50.6412 50.6839 54.2331 48.0015 57.2784C45.3191 60.3236 42.0068 62.7494 38.294 64.3877C34.5812 66.026 30.5567 66.8376 26.4991 66.7664C22.4415 66.6952 18.448 65.7428 14.7949 63.9752C11.1419 62.2077 7.91677 59.6672 5.34287 56.5297C4.88751 55.9747 4.45446 55.4032 4.04443 54.8169Z" fill="#9EDDFF"/>
<path fill-rule="evenodd" clip-rule="evenodd" d="M160 79.8146C148.1 84.193 134.913 86.1554 127.117 86.3547C119.957 86.5377 110.524 86.9539 105.073 92.3832C99.5531 97.8805 102.711 106.544 106.043 112.31C111.933 122.501 123.462 134.032 135.91 137.22C134.909 138.198 133.882 139.15 132.831 140.075C129.852 139.123 126.982 137.794 124.258 136.292C111.305 129.147 93.6676 112.924 96.5253 96.3257C99.155 81.0513 117.158 80.3473 131.061 79.8036C134.468 79.6704 137.63 79.5468 140.258 79.2206C146.984 78.3857 153.36 76.0224 159.751 73.6362C159.911 75.6751 159.995 77.7355 160 79.8146ZM156.225 55.6415C155.351 55.7919 154.455 55.8054 153.54 55.6433C149.929 55.0032 146.411 53.2926 144.59 51.6485C143.651 50.8008 143.159 53.4564 144.334 53.8032C145.799 54.2352 147.212 54.8234 148.612 55.4059C151.305 56.5267 153.949 57.6267 156.809 57.5537C156.622 56.9129 156.427 56.2755 156.225 55.6415Z" fill="#B8E6FF"/>
<path fill-rule="evenodd" clip-rule="evenodd" d="M159.967 77.6634C159.987 78.3783 159.998 79.0956 160 79.8151C148.1 84.1935 134.913 86.1558 127.117 86.3551C119.957 86.5381 110.524 86.9543 105.072 92.3837C102.416 95.0291 101.77 98.4078 102.185 101.844C101.232 97.7359 101.532 93.5194 104.711 90.3534C110.162 84.924 119.595 84.5079 126.756 84.3248C134.623 84.1237 147.981 82.1269 159.967 77.6634ZM156.224 55.642C156.427 56.276 156.622 56.9134 156.809 57.5541C153.949 57.6271 151.305 56.5271 148.612 55.4064C147.212 54.8238 145.799 54.2356 144.334 53.8037C143.54 53.5692 143.507 52.2795 143.859 51.7305C143.895 51.7473 143.933 51.7617 143.973 51.7734C144.401 51.8996 144.824 52.039 145.244 52.1878C147.179 53.6534 150.322 55.0735 153.54 55.6437C154.455 55.8059 155.351 55.7924 156.224 55.642ZM132.831 140.075C133.376 139.596 133.915 139.109 134.446 138.614C130.758 137.668 127.219 136.094 123.897 134.262C113.224 128.375 99.3711 116.325 96.4229 102.98C98.3257 117.123 113.047 130.108 124.258 136.292C126.982 137.795 129.852 139.124 132.831 140.075Z" fill="#9EDDFF"/>
<path d="M74.5394 17.1873C75.5555 16.1713 75.5555 14.524 74.5394 13.508C73.5234 12.492 71.8762 12.492 70.8602 13.508C69.8441 14.524 69.8441 16.1713 70.8602 17.1873C71.8762 18.2033 73.5234 18.2033 74.5394 17.1873Z" fill="#D1EFFF"/>
<path d="M124.692 109.523C125.241 108.974 125.241 108.084 124.692 107.535C124.142 106.986 123.252 106.986 122.703 107.535C122.154 108.084 122.154 108.974 122.703 109.523C123.252 110.073 124.142 110.073 124.692 109.523Z" fill="#B8E6FF"/>
<path d="M97.956 140.789C98.5374 140.208 98.5374 139.265 97.956 138.683C97.3745 138.102 96.4317 138.102 95.8502 138.683C95.2687 139.265 95.2687 140.208 95.8502 140.789C96.4317 141.371 97.3745 141.371 97.956 140.789Z" fill="#D1EFFF"/>
<path fill-rule="evenodd" clip-rule="evenodd" d="M63.4366 38.5291C63.7985 38.1119 64.4301 38.067 64.8473 38.4289L68.3606 41.4762C68.7778 41.8381 68.8226 42.4697 68.4607 42.8869C68.0989 43.3041 67.4673 43.3489 67.0501 42.9871L63.5368 39.9397C63.1196 39.5779 63.0747 38.9463 63.4366 38.5291Z" fill="#9EDDFF"/>
<path fill-rule="evenodd" clip-rule="evenodd" d="M79.4337 31.8458C78.889 31.7543 78.3734 32.1217 78.2819 32.6664L77.2698 38.6953C77.1783 39.2399 77.5457 39.7556 78.0904 39.8471C78.6351 39.9385 79.1507 39.5711 79.2422 39.0264L80.2543 32.9975C80.3458 32.4529 79.9784 31.9372 79.4337 31.8458Z" fill="#9EDDFF"/>
<path fill-rule="evenodd" clip-rule="evenodd" d="M66.8531 31.1554C67.3535 30.9217 67.9486 31.1379 68.1823 31.6383L70.7174 37.0667C70.951 37.5671 70.7348 38.1622 70.2344 38.3959C69.734 38.6296 69.1389 38.4133 68.9052 37.9129L66.3702 32.4846C66.1365 31.9842 66.3527 31.3891 66.8531 31.1554Z" fill="#B8E6FF"/>
<path d="M64.5346 78.369L59.1505 83.207C60.7166 74.4054 64.9517 62.0024 69.1159 54.1805C71.5525 49.6037 71.5666 44.3472 74.401 46.1398C77.9916 48.4107 79.2797 55.068 76.7197 60.7034C73.8052 67.1193 68.3073 73.9545 64.5346 78.369Z" fill="#A9B4BE"/>
<path d="M24.5021 74.9244L14.4151 84.7854L30.9211 91.9961L47.6064 78.1914L24.5021 74.9244Z" fill="#005DC9"/>
<path d="M20.8087 114.386L26.0323 117.144L33.5228 86.8334L18.7435 83.9407C14.8267 83.1741 11.261 86.3598 11.5831 90.3378L12.5114 101.802C12.9436 107.139 16.0732 111.886 20.8087 114.386Z" fill="#0070F2"/>
<path d="M41.5828 128.078C48.2893 126.997 51.8325 117.922 52.7657 113.519L43.0382 114.588L33.6247 122.179C33.483 124.596 34.8762 129.159 41.5828 128.078Z" fill="#D5DADD"/>
<path d="M42.3379 118.115C69.6181 113.801 68.9036 83.7036 62.8998 70.4293C56.7455 73.4186 39.5199 77.632 29.4864 86.0315C18.0155 95.6344 1.91873 102.812 4.46282 107.483C6.73038 111.646 19.2856 109.788 28.3307 103.911C28.0896 110.215 25.5408 114.152 24.2965 115.332C17.7186 105.74 11.8129 112.549 10.2917 117.897C6.85037 129.996 15.0746 130.617 17.4885 127.459C27.9686 140.963 38.0139 127.17 42.3379 118.115Z" fill="white"/>
<path fill-rule="evenodd" clip-rule="evenodd" d="M63.715 72.4247C60.6593 79.4086 55.2689 85.1565 51.4777 88.0073C48.1053 90.4075 39.233 94.0693 30.7223 89.5148C29.7009 88.9682 28.6394 88.3223 27.5701 87.5835C28.2202 87.0737 28.8603 86.5566 29.4866 86.0323C36.629 80.053 47.4161 76.195 55.2595 73.3898C58.4342 72.2543 61.1267 71.2914 62.9 70.4301C63.1843 71.0587 63.4568 71.7251 63.715 72.4247Z" fill="#A9B4BE"/>
<path d="M62.7884 48.0578C76.1316 65.0192 57.5228 80.2493 49.2291 85.7546C45.7216 87.9527 36.6496 91.0874 28.4209 86.0412C18.1351 79.7334 4.13217 62.4245 22.5497 43.2514C38.6105 26.5317 56.4783 40.0365 62.7884 48.0578Z" fill="white"/>
<path fill-rule="evenodd" clip-rule="evenodd" d="M42.3046 87.4188C49.8004 82.2136 66.5354 67.688 53.7286 50.5249C49.6386 45.0437 40.6113 36.9363 30.7639 37.1993C44.3074 30.9287 57.5422 41.3877 62.7884 48.0565C76.1315 65.0179 57.5227 80.248 49.229 85.7533C47.3555 86.9275 43.8943 88.3688 39.8219 88.6879C40.8249 88.2816 41.6676 87.8348 42.3046 87.4188Z" fill="#D5DADD"/>
<path d="M61.2722 44.6646C72.482 56.5909 63.4486 64.1678 59.1447 69.4871C53.756 76.147 45.2545 83.6423 35.3545 76.9882C22.9795 68.6706 20.1119 56.2995 28.3783 46.1744C36.5918 36.1142 47.2599 29.7568 61.2722 44.6646Z" fill="#00144A"/>
<path d="M58.2377 46.2921C60.5148 48.7691 62.1728 52.3697 62.9917 55.9005C63.1846 56.7323 62.9104 57.5947 62.317 58.2086L60.8064 59.7711C59.9943 60.611 58.58 60.1197 58.4234 58.9619C58.0071 55.8844 57.1369 51.2721 55.3234 48.3934C54.8444 47.6331 54.9533 46.5623 55.7021 46.0654C56.5082 45.5305 57.5829 45.5798 58.2377 46.2921Z" fill="white"/>
<path d="M44.0726 105.846C44.4602 103.941 44.5626 101.986 44.5583 100.414C44.5535 98.6583 45.9008 97.1151 47.6163 96.7395C53.4872 95.454 58.6416 91.6094 61.8464 88.6219C62.8904 87.6487 64.4885 88.1171 64.5203 89.544C64.5572 91.1988 64.4356 93.464 63.8895 96.2998C63.5754 97.9314 62.8051 99.456 61.59 100.589C56.8803 104.982 50.5093 107.321 46.1191 108.216C44.8076 108.483 43.8056 107.158 44.0726 105.846Z" fill="#CC7400"/>
<path d="M43.8592 104.329C44.2468 102.424 44.3492 100.469 44.3449 98.8969C44.3401 97.1407 45.6874 95.5976 47.4029 95.2219C53.2738 93.9364 58.4282 90.0918 61.633 87.1044C62.677 86.1311 64.2751 86.5995 64.3069 88.0264C64.3438 89.6812 64.2222 91.9464 63.6761 94.7822C63.362 96.4139 62.5917 97.9384 61.3766 99.0717C56.6669 103.464 50.296 105.803 45.9057 106.698C44.5942 106.965 43.5922 105.64 43.8592 104.329Z" fill="#F58B00"/>
<path fill-rule="evenodd" clip-rule="evenodd" d="M35.9991 117.129C36.1005 116.812 36.4396 116.638 36.7564 116.739C39.0303 117.468 41.5277 117.558 42.4699 117.512C42.8021 117.496 43.0846 117.752 43.1008 118.084C43.1169 118.416 42.8607 118.699 42.5284 118.715C41.4874 118.766 38.8378 118.671 36.3889 117.886C36.0721 117.785 35.8976 117.446 35.9991 117.129Z" fill="#A9B4BE"/>
<path fill-rule="evenodd" clip-rule="evenodd" d="M15.1702 122.601C15.4816 122.483 15.8289 122.641 15.946 122.952C16.4938 124.409 17.6657 126.28 18.1894 127.038C18.3785 127.312 18.3099 127.687 18.0362 127.876C17.7625 128.065 17.3874 127.996 17.1983 127.723C16.6595 126.943 15.4194 124.974 14.8184 123.376C14.7014 123.065 14.8588 122.718 15.1702 122.601Z" fill="#A9B4BE"/>
<path d="M36.6299 56.6307C37.1207 55.9274 36.9484 54.9594 36.2451 54.4686C35.5417 53.9779 34.5737 54.1502 34.083 54.8535C33.5922 55.5568 33.7645 56.5248 34.4678 57.0156C35.1711 57.5064 36.1391 57.3341 36.6299 56.6307Z" fill="#A9B4BE"/>
<path d="M44.5819 54.651C44.965 54.1021 44.8305 53.3465 44.2816 52.9635C43.7326 52.5804 42.977 52.7149 42.594 53.2638C42.2109 53.8128 42.3454 54.5683 42.8944 54.9514C43.4433 55.3345 44.1989 55.2 44.5819 54.651Z" fill="#D5DADD"/>
<ellipse cx="25.3019" cy="76.7431" rx="5.86058" ry="7.19504" transform="rotate(-41.0635 25.3019 76.7431)" fill="#A9B4BE"/>
<ellipse cx="23.5123" cy="78.458" rx="5.86058" ry="7.19504" transform="rotate(-41.0635 23.5123 78.458)" fill="#D5DADD"/>
<path d="M133.227 45.5226L147.97 46.136L137.781 55.498L124.76 55.0158L133.227 45.5226Z" fill="#005DC9"/>
<path d="M146.078 46.2794C140.789 48.3129 134.686 54.3335 132.399 56.0361L140.508 91.6065C143.109 92.386 149.371 89.1614 153.799 86.8088C155.244 86.0408 156.327 84.7279 156.383 83.0921C156.628 75.9376 153.846 59.1497 151.008 49.2878C150.357 47.0239 148.277 45.434 146.078 46.2794Z" fill="#0070F2"/>
<path d="M103.645 74.0549C105.627 69.053 110.951 56.2324 105.44 56.8481C97.2881 57.7588 90.3611 53.7757 84.6904 51.0591C80.3899 48.9989 77.7248 45.5014 74.8833 47.585C72.3011 49.4785 74.7107 55.4611 80.1262 59.6094C87.233 65.0531 97.9441 71.0676 103.645 74.0549Z" fill="white"/>
<path d="M122.774 112.902C100.954 93.9874 100.926 69.2718 103.64 59.2783C109.897 58.455 124.666 55.9913 133.686 52.7226C140.248 50.3449 145.297 63.6787 150.939 71.132C156.582 78.5852 162.792 87.99 158.582 89.8254C156.18 90.8729 154.026 89.1647 151.183 86.7308C147.381 83.4756 141.987 77.7094 140.085 74.7805C142.286 78.5226 142.821 83.2559 142.486 86.1364C142.323 87.5401 141.833 88.988 142.452 90.2585C143.724 92.8698 147.123 95.9094 149.803 97.7893C151.33 98.8608 152.854 100.043 153.658 101.726C155.874 106.364 156.217 112.168 151.817 114.086C145.827 116.697 140.62 111.636 138.765 106.3C135.993 105.345 130.575 99.5325 128.213 96.7456C129.129 100.572 133.271 102.182 134.998 105.294C136.726 108.406 138.101 111.658 138.638 113.497C140.387 119.492 136.771 124.29 130.194 124.824C124.932 125.251 123.055 117.054 122.774 112.902Z" fill="white"/>
<path d="M125.28 73.9234C120.07 76.0119 113.468 76.9811 109.388 77.4685C108.473 77.5778 107.779 78.3489 107.847 79.2679C108.124 83.0217 109.272 88.0968 110.879 91.1102C111.505 92.2829 112.607 93.1385 113.929 93.2785C118.022 93.7119 125.557 91.8501 130.634 89.8432C132.26 89.2005 133.014 87.3976 132.5 85.7265L129.43 75.7376C128.908 74.0415 126.927 73.2632 125.28 73.9234Z" fill="#00A58A"/>
<path d="M123.686 72.8121C118.475 74.9006 111.873 75.8698 107.793 76.3572C106.878 76.4665 106.185 77.2375 106.252 78.1565C106.53 81.9104 107.677 86.9854 109.284 89.9988C109.91 91.1716 111.012 92.0272 112.334 92.1672C116.427 92.6006 123.962 90.7388 129.039 88.7319C130.665 88.0892 131.419 86.2863 130.906 84.6151L127.835 74.6263C127.314 72.9302 125.333 72.1518 123.686 72.8121Z" fill="#64EDD2"/>
<path d="M138.661 53.7879C136.981 52.4265 135.334 52.1671 133.67 52.7321C124.871 55.7195 110.824 58.3394 104.248 59.2006C104.035 59.2285 103.83 59.2553 103.634 59.2811C103.519 59.7056 100.541 58.4309 100.903 58.7577C102.938 60.5967 108.53 63.0533 112.03 63.4144C125.387 64.7925 133.886 59.4273 138.661 53.7879Z" fill="#A9B4BE"/>
<path fill-rule="evenodd" clip-rule="evenodd" d="M102.573 73.7931C103.471 85.4272 108.382 100.427 122.774 112.902C123.055 117.054 124.932 125.252 130.194 124.825C136.771 124.291 140.388 119.493 138.638 113.498C138.101 111.659 136.726 108.407 134.999 105.295C134.277 103.994 133.133 102.956 131.979 101.909C130.627 100.681 129.261 99.4412 128.544 97.7516L127.686 96.8508C117.379 105.866 105.389 91.1201 102.573 73.7931Z" fill="#D5DADD"/>
<path d="M118.673 11.7113C98.2221 8.84725 91.27 20.5589 90.3503 26.7728C87.9685 37.2302 88.0826 58.6482 107.593 60.6613C127.104 62.6743 136.376 50.1855 138.574 43.6895C140.461 34.2235 139.124 14.5755 118.673 11.7113Z" fill="white"/>
<path fill-rule="evenodd" clip-rule="evenodd" d="M103.51 12.5915C107.287 11.8424 111.798 11.8283 117.131 12.9871C136.648 17.228 136.68 32.773 131.84 45.3799C128.768 53.3819 118.788 61.7746 100.626 58.8217C102.614 59.747 104.922 60.3864 107.593 60.662C127.104 62.6751 136.376 50.1862 138.573 43.6902C140.461 34.2242 139.123 14.5762 118.673 11.7121C112.432 10.8381 107.449 11.3214 103.51 12.5915Z" fill="#D5DADD"/>
<path d="M104.223 19.7985L110.733 19.7946C123.34 19.7869 129.274 29.265 128.319 39.3164C128.24 40.149 128.132 40.9291 127.996 41.6604C124.819 58.7248 89.0233 57.7821 88.0293 40.453C87.3219 28.1208 91.401 19.8064 104.223 19.7985Z" fill="#00144A"/>
<path fill-rule="evenodd" clip-rule="evenodd" d="M120.966 98.9023C121.04 98.5779 121.363 98.3749 121.687 98.4487C123.035 98.7557 125.656 98.8238 127.853 96.5506L128.368 96.0176L128.785 96.6311C130.052 98.4996 132.27 101.584 135.135 103.565C136.56 104.552 138.119 105.245 139.778 105.397C141.425 105.549 143.219 105.171 145.137 103.938C145.417 103.758 145.79 103.839 145.97 104.119C146.15 104.398 146.069 104.771 145.789 104.951C143.661 106.319 141.602 106.775 139.667 106.597C137.743 106.42 135.989 105.621 134.449 104.556C131.682 102.642 129.519 99.8047 128.189 97.8925C125.716 100.055 122.907 99.9621 121.419 99.6233C121.095 99.5494 120.892 99.2266 120.966 98.9023Z" fill="#A9B4BE"/>
<path fill-rule="evenodd" clip-rule="evenodd" d="M122.009 112.233C122.235 111.99 122.617 111.976 122.86 112.203C123.373 112.68 125.09 113.756 127.464 113.78C127.797 113.784 128.063 114.056 128.06 114.389C128.057 114.722 127.784 114.988 127.452 114.985C124.747 114.957 122.749 113.745 122.039 113.084C121.796 112.858 121.782 112.477 122.009 112.233Z" fill="#A9B4BE"/>
<path d="M104.773 28.2367C105.158 27.6854 105.023 26.9266 104.471 26.5419C103.92 26.1572 103.161 26.2922 102.777 26.8435C102.392 27.3949 102.527 28.1537 103.078 28.5384C103.63 28.9231 104.388 28.788 104.773 28.2367Z" fill="#A9B4BE"/>
<path d="M112.067 26.4977C112.368 26.0674 112.262 25.4751 111.832 25.1748C111.402 24.8746 110.809 24.98 110.509 25.4103C110.209 25.8406 110.314 26.4329 110.744 26.7332C111.175 27.0334 111.767 26.928 112.067 26.4977Z" fill="#D5DADD"/>
<path d="M124.753 35.2028C125.829 39.7638 123.285 44.614 121.632 46.5068C121.376 46.801 121.007 46.9516 120.638 46.9673C119.896 46.9988 119.422 46.0323 119.684 45.3117C120.513 43.0321 120.9 39.3171 120.064 35.9489C119.869 35.1648 120.576 34.2718 121.399 34.3422L123.972 34.5622C124.355 34.5948 124.667 34.837 124.753 35.2028Z" fill="white"/>
<path d="M120.365 32.6185L122.925 32.7189C123.432 32.7388 123.86 32.4504 123.897 32.0125C124.055 30.1743 123.315 28.9451 122.775 28.3079C122.479 27.9582 121.981 27.8435 121.531 27.9321L118.809 28.4685C117.87 28.6536 117.5 29.614 118.01 30.4007C118.24 30.7552 118.471 31.1352 118.664 31.5003C118.98 32.0983 119.641 32.5901 120.365 32.6185Z" fill="white"/>
<path fill-rule="evenodd" clip-rule="evenodd" d="M110.756 53.8519C100.169 54.7677 88.5885 50.2051 88.0292 40.453C87.9374 38.8531 87.9262 37.3208 88.0042 35.8655C89.782 34.5845 91.8681 33.6728 94.1698 33.2631C102.369 31.8038 110.198 37.2672 111.657 45.4659C112.18 48.4002 111.815 51.2873 110.756 53.8519Z" fill="#A9B4BE"/>
<ellipse cx="5.86058" cy="7.19504" rx="5.86058" ry="7.19504" transform="matrix(-0.999251 -0.0386881 -0.0386881 0.999251 143.573 30.7871)" fill="#A9B4BE"/>
<ellipse cx="5.86058" cy="7.19504" rx="5.86058" ry="7.19504" transform="matrix(-0.999251 -0.0386881 -0.0386881 0.999251 146.042 31)" fill="#D5DADD"/>
<path fill-rule="evenodd" clip-rule="evenodd" d="M53.3797 155.464C67.5868 152.046 80.137 143.832 85.7333 129.711C92.7476 112.012 81.5702 103.885 64.9305 105.82C54.5875 107.023 44.5328 109.721 34.4776 112.42C27.3515 114.332 20.2252 116.244 12.9959 117.624C12.635 117.693 12.2649 117.765 11.8868 117.838C11.1896 117.973 10.4651 118.114 9.72047 118.251C8.99588 116.923 8.30786 115.572 7.65775 114.199C9.6201 113.739 11.5174 113.195 13.2189 112.707C14.0831 112.459 14.8968 112.225 15.6428 112.025C18.2306 111.329 21.6391 110.227 25.5865 108.95C46.5127 102.182 82.584 90.5155 91.8077 108.606C102.579 129.734 81.0589 150.369 62.5383 158.088C59.4126 157.392 56.3558 156.513 53.3797 155.464ZM1.64275 96.2071C1.48313 95.4313 1.33474 94.6515 1.19775 93.8677C6.39418 92.7188 12.2053 93.0987 14.1916 93.4615C14.5922 93.5346 14.7504 93.9193 14.5971 94.2965C14.4614 94.6304 14.1326 94.8411 13.7724 94.8289C11.9472 94.7668 6.28591 94.7173 1.64275 96.2071Z" fill="#B8E6FF"/>
<path fill-rule="evenodd" clip-rule="evenodd" d="M1.64275 96.2071C1.48313 95.4313 1.33474 94.6515 1.19775 93.8677C6.39418 92.7188 12.2053 93.0987 14.1916 93.4615C14.5922 93.5346 14.7504 93.9193 14.5971 94.2965C14.4614 94.6304 14.1326 94.8411 13.7724 94.8289C11.9472 94.7668 6.28591 94.7173 1.64275 96.2071ZM9.72048 118.251C9.26132 117.41 8.81686 116.559 8.38741 115.699C9.4326 115.514 10.4447 115.317 11.405 115.131L11.4052 115.131C11.7833 115.058 12.1533 114.986 12.5141 114.917C19.7434 113.537 26.8697 111.625 33.9958 109.713C44.051 107.014 54.1058 104.316 64.4487 103.113C77.0301 101.65 86.4887 105.939 87.322 115.769C85.1039 107.867 76.29 104.499 64.9305 105.82C54.5875 107.023 44.5328 109.721 34.4776 112.42L34.4775 112.42C27.3514 114.332 20.2252 116.244 12.9959 117.624C12.635 117.693 12.2649 117.765 11.8868 117.838C11.1896 117.973 10.4651 118.114 9.72048 118.251ZM62.5383 158.088C60.977 157.741 59.4329 157.347 57.9074 156.91C74.6501 151.579 96.3816 134.072 94.0374 114.62C98.5067 133.548 79.2947 151.104 62.5383 158.088Z" fill="#9EDDFF"/>
<path d="M60.7319 135.84C60.5315 132.514 59.8066 130.041 58.9495 130.045C58.0923 130.049 57.3759 132.535 57.1926 135.878C53.8537 136.109 51.3719 136.855 51.3804 137.716C51.3889 138.578 53.875 139.264 57.2054 139.422C57.4058 142.748 58.1264 145.221 58.9836 145.217C59.8407 145.213 60.5571 142.727 60.7404 139.384C64.0794 139.153 66.5611 138.407 66.5526 137.546C66.5441 136.684 64.058 135.994 60.7319 135.84Z" fill="#F58B00"/>
<path d="M86.9742 11.6612C86.842 9.42673 86.3558 7.76367 85.7802 7.76367C85.2045 7.76367 84.7226 9.43952 84.599 11.6868C82.3517 11.8403 80.6844 12.3435 80.6929 12.9192C80.7014 13.4948 82.3688 13.9596 84.6032 14.062C84.7397 16.3007 85.2258 17.9638 85.8015 17.9595C86.3772 17.9552 86.859 16.2837 86.9827 14.0364C89.2257 13.8829 90.893 13.384 90.8887 12.804C90.8845 12.2241 89.2129 11.7635 86.9742 11.6612Z" fill="#F58B00"/>
</svg>
