<svg width="161" height="171" viewBox="0 0 161 171" fill="none" xmlns="http://www.w3.org/2000/svg">
<circle cx="80.2401" cy="90.9999" r="70.8436" fill="#EBF8FF"/>
<path fill-rule="evenodd" clip-rule="evenodd" d="M141.317 55.0826C140.036 57.4578 138.06 59.4919 135.495 60.8472C128.606 64.4868 120.071 61.8526 116.431 54.9635C112.792 48.0744 115.426 39.5392 122.315 35.8996C122.829 35.6283 123.351 35.3918 123.88 35.1894C130.862 40.6567 136.793 47.4059 141.317 55.0826ZM134.736 49.5197C133.544 47.2632 130.748 46.4004 128.492 47.5925C126.235 48.7847 125.372 51.5804 126.564 53.8369C127.757 56.0934 130.552 56.9562 132.809 55.7641C135.065 54.5719 135.928 51.7762 134.736 49.5197Z" fill="#9EDDFF"/>
<path fill-rule="evenodd" clip-rule="evenodd" d="M117.594 39.0132C118.645 41.004 121.112 41.7653 123.103 40.7135C124.761 39.8373 125.567 37.9793 125.181 36.2324C120.981 32.7815 116.376 29.8044 111.449 27.3828L117.594 39.0132Z" fill="#D1EFFF"/>
<path fill-rule="evenodd" clip-rule="evenodd" d="M115.983 29.8214C114.507 28.9571 112.996 28.1447 111.455 27.3867L117.597 39.0139C118.152 40.0641 119.101 40.7722 120.166 41.0524L121.534 40.3293L115.983 29.8214Z" fill="#B8E6FF"/>
<path fill-rule="evenodd" clip-rule="evenodd" d="M141.1 54.7174C139.937 57.859 137.657 60.6002 134.462 62.2882C127.573 65.9278 119.038 63.2936 115.398 56.4045C111.759 49.5154 114.393 40.9802 121.282 37.3406C122.456 36.7201 123.679 36.282 124.916 36.0162C131.341 41.2428 136.832 47.5728 141.1 54.7174ZM133.703 50.9608C132.511 48.7043 129.715 47.8414 127.459 49.0336C125.202 50.2257 124.339 53.0214 125.531 55.2779C126.724 57.5344 129.519 58.3972 131.776 57.2051C134.032 56.0129 134.895 53.2173 133.703 50.9608Z" fill="#D1EFFF"/>
<path fill-rule="evenodd" clip-rule="evenodd" d="M132.305 63.211C133.121 60.3645 133.499 57.8352 133.523 55.5906C133.106 56.2515 132.515 56.8154 131.775 57.2067C129.518 58.3988 126.722 57.536 125.53 55.2795C124.338 53.023 125.201 50.2273 127.458 49.0352C129.167 48.1321 131.186 48.4083 132.582 49.5763C130.224 43 123.865 40.2017 118.467 39.2952C113.741 43.5129 112.305 50.5535 115.397 56.4061C118.665 62.5914 125.879 65.3468 132.305 63.211Z" fill="#B8E6FF"/>
<path fill-rule="evenodd" clip-rule="evenodd" d="M122.444 34.0932C121.509 33.3988 120.556 32.7268 119.587 32.0781L121.239 35.2061L123.479 36.053L122.444 34.0932Z" fill="#B8E6FF"/>
<rect width="9.11802" height="2.601" rx="1.3005" transform="matrix(0.884189 -0.46713 -0.467128 -0.884189 121.21 46.9668)" fill="#B8E6FF"/>
<path fill-rule="evenodd" clip-rule="evenodd" d="M105.755 45.1262C100.643 51.0061 101.265 59.9168 107.145 65.0289C113.025 70.141 121.936 69.5186 127.048 63.6387C132.16 57.7589 131.537 48.8481 125.658 43.736C119.778 38.6239 110.867 39.2463 105.755 45.1262ZM115.734 53.8033C117.409 51.8773 120.327 51.6735 122.253 53.3479C124.179 55.0224 124.383 57.941 122.708 59.867C121.034 61.7929 118.115 61.9968 116.189 60.3223C114.263 58.6479 114.06 55.7292 115.734 53.8033Z" fill="#9EDDFF"/>
<path fill-rule="evenodd" clip-rule="evenodd" d="M109.267 48.1342C107.79 49.8335 105.215 50.0133 103.516 48.536L84.1382 31.6888C82.439 30.2114 82.2591 27.6364 83.7364 25.9371C85.2138 24.2379 87.7889 24.0581 89.4881 25.5354L108.866 42.3826C110.565 43.8599 110.745 46.435 109.267 48.1342Z" fill="#9EDDFF"/>
<path fill-rule="evenodd" clip-rule="evenodd" d="M108.228 49.3296C106.75 51.0288 104.175 51.2086 102.476 49.7313L91.3708 40.0761L91.407 38.0504L88.7675 37.8127L87.6549 36.8454L85.7514 35.1905L84.8105 32.3152L83.0986 32.8841C81.3994 31.4068 81.2196 28.8317 82.6969 27.1325C84.1742 25.4332 86.7493 25.2534 88.4485 26.7307L107.826 43.5779C109.525 45.0552 109.705 47.6303 108.228 49.3296Z" fill="#D1EFFF"/>
<path fill-rule="evenodd" clip-rule="evenodd" d="M82.0402 28.1665L106.622 49.5385L105.607 50.706C104.513 50.8289 103.372 50.5107 102.476 49.7313L91.3707 40.0761L91.4069 38.0504L88.7674 37.8127L85.7513 35.1905L84.8104 32.3152L83.0986 32.8841C81.7176 31.6835 81.3402 29.7578 82.0402 28.1665Z" fill="#B8E6FF"/>
<path fill-rule="evenodd" clip-rule="evenodd" d="M105.309 46.843C100.197 52.7229 100.819 61.6336 106.699 66.7457C112.579 71.8578 121.489 71.2354 126.601 65.3555C131.714 59.4757 131.091 50.5649 125.211 45.4528C119.331 40.3407 110.421 40.9631 105.309 46.843ZM115.289 55.52C116.963 53.5941 119.882 53.3902 121.808 55.0647C123.734 56.7392 123.938 59.6578 122.263 61.5838C120.589 63.5097 117.67 63.7136 115.744 62.0391C113.818 60.3647 113.614 57.446 115.289 55.52Z" fill="#D1EFFF"/>
<path fill-rule="evenodd" clip-rule="evenodd" d="M84.991 25.8054L106.895 44.849L104.5 44.8671L83.3804 26.505C83.8678 26.1511 84.4189 25.9169 84.991 25.8054Z" fill="#B8E6FF"/>
<rect width="9.11802" height="2.601" rx="1.3005" transform="matrix(0.656119 -0.754659 -0.754657 -0.656118 108.717 55.8438)" fill="#B8E6FF"/>
<path d="M139.581 57.689C139.665 57.5644 139.746 57.4386 139.826 57.3116C140.208 56.8441 140.558 56.3544 140.875 55.8463C140.9 55.8676 140.924 55.8902 140.947 55.9142C143.19 58.2074 144.753 61.2077 145.251 64.6232C146.502 73.2067 140.557 81.179 131.974 82.4297C123.39 83.6804 115.418 77.7359 114.167 69.1523C113.304 63.2284 115.869 57.5973 120.357 54.2659C120.375 54.2524 120.394 54.2396 120.412 54.2274C120.911 54.4157 121.385 54.694 121.811 55.0641C121.915 55.1544 122.013 55.2484 122.107 55.3457C122.06 55.6151 121.914 55.8677 121.677 56.0436C117.816 58.909 115.617 63.747 116.358 68.8331C117.432 76.2068 124.281 81.3133 131.654 80.2389C139.028 79.1645 144.135 72.316 143.06 64.9424C142.649 62.1174 141.391 59.6277 139.581 57.689Z" fill="#9EDDFF"/>
<path d="M134.043 51.7878C134.261 52.5096 134.294 53.2581 134.16 53.9716C133.973 54.0181 133.772 54.0167 133.575 53.9575C132.579 53.6592 131.541 53.4739 130.476 53.4145C130.425 52.6649 130.314 51.9193 130.144 51.1855C130.152 51.1856 130.16 51.1857 130.168 51.186C131.499 51.2234 132.8 51.4301 134.043 51.7878Z" fill="#9EDDFF"/>
<path d="M15.9697 126.071C15.9697 125.06 16.7896 124.24 17.8009 124.24H137.443C138.454 124.24 139.274 125.06 139.274 126.071V126.825H15.9697V126.071Z" fill="#0070F2"/>
<path d="M18.5006 129.027C18.8362 129.327 19.2704 129.492 19.7203 129.492H135.523C135.973 129.492 136.407 129.327 136.743 129.027L139.274 126.767H15.9697L18.5006 129.027Z" fill="#005DC9"/>
<rect x="28.1045" y="58.2812" width="99.0342" height="66.0748" rx="3.66238" fill="#0070F2"/>
<path d="M77.6219 60.491C77.9721 60.491 78.256 60.2066 78.256 59.8558C78.256 59.5051 77.9721 59.2207 77.6219 59.2207C77.2717 59.2207 76.9878 59.5051 76.9878 59.8558C76.9878 60.2066 77.2717 60.491 77.6219 60.491Z" fill="#004DA5"/>
<rect x="31.3784" y="61.3594" width="92.4862" height="59.9161" rx="2.44158" fill="white"/>
<path d="M70.4487 123.871H84.7951V124.31C84.7951 124.985 84.2486 125.531 83.5743 125.531H71.6695C70.9953 125.531 70.4487 124.985 70.4487 124.31V123.871Z" fill="#004DA5"/>
<rect x="46.8306" y="92.1914" width="61.5761" height="9.11314" rx="1.83119" fill="#D5DADD"/>
<path d="M87.4055 77.2248C87.4055 82.5675 83.0742 86.8987 77.7313 86.8987C72.3884 86.8987 68.0571 82.5675 68.0571 77.2248C68.0571 71.882 72.3884 67.5508 77.7313 67.5508C83.0742 67.5508 87.4055 71.882 87.4055 77.2248Z" fill="#3B0AC6"/>
<path fill-rule="evenodd" clip-rule="evenodd" d="M70.4702 83.6167C70.9656 81.0615 73.2055 79.2046 75.8218 79.2046H79.6692C82.277 79.2046 84.5108 81.0495 85.0158 83.5918C83.2425 85.6187 80.6368 86.8988 77.7321 86.8988C74.8393 86.8988 72.243 85.6292 70.4702 83.6167ZM81.0167 73.7533C81.0167 75.5597 79.5523 77.0241 77.7458 77.0241C75.9393 77.0241 74.4749 75.5597 74.4749 73.7533C74.4749 71.9468 75.9393 70.4824 77.7458 70.4824C79.5523 70.4824 81.0167 71.9468 81.0167 73.7533Z" fill="white"/>
<path fill-rule="evenodd" clip-rule="evenodd" d="M77.7313 85.2927C82.1873 85.2927 85.7995 81.6806 85.7995 77.2248C85.7995 72.7689 82.1873 69.1568 77.7313 69.1568C73.2754 69.1568 69.6631 72.7689 69.6631 77.2248C69.6631 81.6806 73.2754 85.2927 77.7313 85.2927ZM77.7313 86.8987C83.0742 86.8987 87.4055 82.5675 87.4055 77.2248C87.4055 71.882 83.0742 67.5508 77.7313 67.5508C72.3884 67.5508 68.0571 71.882 68.0571 77.2248C68.0571 82.5675 72.3884 86.8987 77.7313 86.8987Z" fill="#3B0AC6"/>
<rect x="46.8306" y="105.25" width="61.5761" height="9.11314" rx="1.83119" fill="#D5DADD"/>
<circle cx="52.6442" cy="96.7496" r="1.48009" fill="#00144A"/>
<circle cx="59.2667" cy="96.7496" r="1.48009" fill="#00144A"/>
<circle cx="65.8893" cy="96.7496" r="1.48009" fill="#00144A"/>
<circle cx="72.5118" cy="96.7496" r="1.48009" fill="#00144A"/>
<circle cx="52.6442" cy="109.806" r="1.48009" fill="#00144A"/>
<circle cx="59.2667" cy="109.806" r="1.48009" fill="#00144A"/>
<circle cx="65.8893" cy="109.806" r="1.48009" fill="#00144A"/>
<circle cx="72.5118" cy="109.806" r="1.48009" fill="#00144A"/>
<circle cx="79.1344" cy="109.806" r="1.48009" fill="#00144A"/>
<circle cx="85.757" cy="109.806" r="1.48009" fill="#00144A"/>
<path d="M76.6433 39.051C76.6433 38.2218 74.2362 37.558 71.02 37.4072C70.8362 34.1951 70.1282 31.8068 69.2989 31.8086C68.4695 31.8104 67.78 34.2172 67.6035 37.4459C64.3781 37.6665 61.9802 38.3872 61.9912 39.2183C62.0023 40.0494 64.3983 40.7131 67.6145 40.862C67.8076 44.0741 68.5063 46.4625 69.3338 46.4607C70.1613 46.4588 70.8545 44.0521 71.0311 40.8234C74.2564 40.6028 76.6525 39.882 76.6433 39.051Z" fill="#D1EFFF"/>
<path d="M100.881 148.115C100.881 147.43 98.8911 146.881 96.2326 146.757C96.0806 144.102 95.4954 142.127 94.8099 142.129C94.1244 142.13 93.5544 144.12 93.4085 146.789C90.7425 146.971 88.7604 147.567 88.7696 148.254C88.7787 148.941 90.7592 149.489 93.4176 149.612C93.5772 152.267 94.1548 154.242 94.8388 154.24C95.5228 154.239 96.0958 152.249 96.2417 149.58C98.9078 149.398 100.888 148.802 100.881 148.115Z" fill="#D1EFFF"/>
<path d="M17.263 22.5201C3.20453 24.5845 5.94682 36.6956 7.21678 46.6568C9.86221 48.4867 15.5289 50.5974 14.6353 44.2595C13.3853 35.3928 10.8788 29.0423 18.8611 27.9878C26.0886 27.033 28.1027 38.6641 28.2435 44.4857L34.3837 44.211C34.0017 35.6695 31.3215 20.4556 17.263 22.5201Z" fill="#B8E6FF"/>
<path d="M1.71539 55.3709C0.857079 48.9544 6.14675 43.3865 12.5987 43.915L30.0279 45.3426C32.4511 45.5411 34.3985 47.42 34.6837 49.8345L37.6261 74.746C37.979 77.734 35.686 80.3782 32.6782 80.4518L13.8241 80.9131C8.89461 81.0337 4.66524 77.4228 4.01146 72.5354L1.71539 55.3709Z" fill="#B8E6FF"/>
<path d="M10.1871 41.8887L4.56006 46.9843L11.7581 47.2006L10.1871 41.8887Z" fill="#B8E6FF"/>
<path d="M42.5826 72.7149L35.4443 79.5231L36.6978 74.9698L42.5826 72.7149Z" fill="#B8E6FF"/>
<path fill-rule="evenodd" clip-rule="evenodd" d="M32.5968 44.2911C32.5293 43.5874 32.3528 42.6501 32.0495 41.4406C29.9207 32.9515 24.9394 27.203 19.6482 27.9327C25.6069 27.8967 27.7072 36.8831 28.1543 42.747C28.7038 43.3648 29.2291 43.9343 29.714 44.42L32.5968 44.2911Z" fill="#9EDDFF"/>
<path d="M7.98308 46.5944C7.6736 43.601 10.0059 40.9901 13.0151 40.9612L34.2108 40.7578C37.5018 40.7262 40.3376 43.0681 40.9289 46.3057L44.6579 66.7262C45.3926 70.7499 42.4152 74.4999 38.3296 74.6964L20.1583 75.5704C15.0345 75.8168 10.6113 72.0161 10.0838 66.9135L7.98308 46.5944Z" fill="#D1EFFF"/>
<path d="M24.6266 66.6898L23.7353 58.5938C22.5964 58.2967 20.2964 56.9449 20.2073 53.9145C20.0959 50.1265 22.928 49.1428 24.6029 49.1426C26.449 49.1423 29.6773 50.1265 30.3086 54.2116C30.8137 57.4797 29.1574 58.4948 28.2661 58.5938L29.2688 66.6898H24.6266Z" fill="#9EDDFF"/>
<path fill-rule="evenodd" clip-rule="evenodd" d="M22.5938 49.5825C24.4558 49.6224 27.5664 50.6485 28.1849 54.6503C28.6899 57.9184 27.0336 58.9335 26.1423 59.0325L27.0907 66.6898H29.2681L28.2654 58.5938C29.1567 58.4948 30.813 57.4797 30.3079 54.2116C29.6766 50.1265 26.4483 49.1423 24.6022 49.1426C24.0159 49.1427 23.2878 49.2632 22.5938 49.5825Z" fill="#B8E6FF"/>
<rect x="127.262" y="109.506" width="24.1113" height="23.3432" fill="white"/>
<path d="M139.271 99.9082C135.064 99.9082 130.951 101.156 127.453 103.493C123.955 105.83 121.229 109.152 119.619 113.038C118.009 116.925 117.587 121.201 118.408 125.327C119.229 129.453 121.255 133.243 124.23 136.217C127.205 139.192 130.995 141.218 135.121 142.038C139.247 142.859 143.524 142.438 147.411 140.828C151.298 139.218 154.62 136.492 156.957 132.994C159.294 129.497 160.542 125.384 160.542 121.178C160.525 115.542 158.279 110.141 154.293 106.156C150.308 102.171 144.907 99.9249 139.271 99.9082ZM149.262 116.286L136.499 129.047C136.307 129.251 136.075 129.413 135.818 129.524C135.56 129.635 135.283 129.692 135.003 129.692C134.723 129.692 134.446 129.635 134.189 129.524C133.932 129.413 133.7 129.251 133.508 129.047L129.253 124.793C128.857 124.397 128.634 123.859 128.634 123.298C128.634 122.737 128.857 122.199 129.253 121.802C129.65 121.406 130.188 121.183 130.749 121.183C131.31 121.183 131.848 121.406 132.245 121.802L135.01 124.567L146.284 113.295C146.68 112.898 147.218 112.675 147.779 112.675C148.057 112.675 148.332 112.73 148.589 112.836C148.845 112.942 149.078 113.098 149.275 113.295C149.471 113.491 149.627 113.724 149.733 113.981C149.84 114.237 149.894 114.512 149.894 114.79C149.894 115.068 149.84 115.343 149.733 115.6C149.627 115.856 149.471 116.089 149.275 116.286H149.262Z" fill="#00A800"/>
</svg>
