<?xml version="1.0" encoding="UTF-8"?>
<!--Generator: Apple Native CoreSVG 232.5-->
<!DOCTYPE svg
PUBLIC "-//W3C//DTD SVG 1.1//EN"
       "http://www.w3.org/Graphics/SVG/1.1/DTD/svg11.dtd">
<svg version="1.1" xmlns="http://www.w3.org/2000/svg" xmlns:xlink="http://www.w3.org/1999/xlink" width="3300" height="2200">
 <!--glyph: "", point size: 100.0, font version: "19.0d6e1", template writer version: "123"-->
 <style>.SFSymbolsPreviewWireframe {fill:none;opacity:1.0;stroke:black;stroke-width:0.5}
</style>
 <g id="Notes">
  <rect height="2200" id="artboard" style="fill:white;opacity:1" width="3300" x="0" y="0"/>
  <line style="fill:none;stroke:black;opacity:1;stroke-width:0.5;" x1="263" x2="3036" y1="292" y2="292"/>
  <text style="stroke:none;fill:black;font-family:sans-serif;font-size:13;font-weight:bold;" transform="matrix(1 0 0 1 263 322)">Weight/Scale Variations</text>
  <text style="stroke:none;fill:black;font-family:sans-serif;font-size:13;text-anchor:middle;" transform="matrix(1 0 0 1 559.711 322)">Ultralight</text>
  <text style="stroke:none;fill:black;font-family:sans-serif;font-size:13;text-anchor:middle;" transform="matrix(1 0 0 1 856.422 322)">Thin</text>
  <text style="stroke:none;fill:black;font-family:sans-serif;font-size:13;text-anchor:middle;" transform="matrix(1 0 0 1 1153.13 322)">Light</text>
  <text style="stroke:none;fill:black;font-family:sans-serif;font-size:13;text-anchor:middle;" transform="matrix(1 0 0 1 1449.84 322)">Regular</text>
  <text style="stroke:none;fill:black;font-family:sans-serif;font-size:13;text-anchor:middle;" transform="matrix(1 0 0 1 1746.56 322)">Medium</text>
  <text style="stroke:none;fill:black;font-family:sans-serif;font-size:13;text-anchor:middle;" transform="matrix(1 0 0 1 2043.27 322)">Semibold</text>
  <text style="stroke:none;fill:black;font-family:sans-serif;font-size:13;text-anchor:middle;" transform="matrix(1 0 0 1 2339.98 322)">Bold</text>
  <text style="stroke:none;fill:black;font-family:sans-serif;font-size:13;text-anchor:middle;" transform="matrix(1 0 0 1 2636.69 322)">Heavy</text>
  <text style="stroke:none;fill:black;font-family:sans-serif;font-size:13;text-anchor:middle;" transform="matrix(1 0 0 1 2933.4 322)">Black</text>
  <line style="fill:none;stroke:black;opacity:1;stroke-width:0.5;" x1="263" x2="3036" y1="1903" y2="1903"/>
  <g transform="matrix(0.2 0 0 0.2 263 1933)">
   <path d="m46.2402 4.15039c21.5332 0 39.4531-17.8711 39.4531-39.4043s-17.9688-39.4043-39.502-39.4043c-21.4844 0-39.3555 17.8711-39.3555 39.4043s17.9199 39.4043 39.4043 39.4043Zm0-7.42188c-17.7246 0-31.8848-14.209-31.8848-31.9824s14.1113-31.9824 31.8359-31.9824c17.7734 0 32.0312 14.209 32.0312 31.9824s-14.209 31.9824-31.9824 31.9824Zm-17.9688-31.9824c0 2.14844 1.51367 3.61328 3.75977 3.61328h10.498v10.5957c0 2.19727 1.46484 3.71094 3.61328 3.71094 2.24609 0 3.71094-1.51367 3.71094-3.71094v-10.5957h10.5957c2.19727 0 3.71094-1.46484 3.71094-3.61328 0-2.19727-1.51367-3.71094-3.71094-3.71094h-10.5957v-10.5469c0-2.24609-1.46484-3.75977-3.71094-3.75977-2.14844 0-3.61328 1.51367-3.61328 3.75977v10.5469h-10.498c-2.24609 0-3.75977 1.51367-3.75977 3.71094Z"/>
  </g>
  <g transform="matrix(0.2 0 0 0.2 281.506 1933)">
   <path d="m58.5449 14.5508c27.2461 0 49.8047-22.6074 49.8047-49.8047 0-27.2461-22.6074-49.8047-49.8535-49.8047-27.1973 0-49.7559 22.5586-49.7559 49.8047 0 27.1973 22.6074 49.8047 49.8047 49.8047Zm0-8.30078c-23.0469 0-41.4551-18.457-41.4551-41.5039s18.3594-41.5039 41.4062-41.5039 41.5527 18.457 41.5527 41.5039-18.457 41.5039-41.5039 41.5039Zm-22.6562-41.5039c0 2.39258 1.66016 4.00391 4.15039 4.00391h14.3555v14.4043c0 2.44141 1.66016 4.15039 4.05273 4.15039 2.44141 0 4.15039-1.66016 4.15039-4.15039v-14.4043h14.4043c2.44141 0 4.15039-1.61133 4.15039-4.00391 0-2.44141-1.70898-4.15039-4.15039-4.15039h-14.4043v-14.3555c0-2.49023-1.70898-4.19922-4.15039-4.19922-2.39258 0-4.05273 1.70898-4.05273 4.19922v14.3555h-14.3555c-2.49023 0-4.15039 1.70898-4.15039 4.15039Z"/>
  </g>
  <g transform="matrix(0.2 0 0 0.2 304.924 1933)">
   <path d="m74.8535 28.3203c34.8145 0 63.623-28.8086 63.623-63.5742 0-34.8145-28.8574-63.623-63.6719-63.623-34.7656 0-63.5254 28.8086-63.5254 63.623 0 34.7656 28.8086 63.5742 63.5742 63.5742Zm0-9.08203c-30.1758 0-54.4434-24.3164-54.4434-54.4922 0-30.2246 24.2188-54.4922 54.3945-54.4922 30.2246 0 54.541 24.2676 54.541 54.4922 0 30.1758-24.2676 54.4922-54.4922 54.4922Zm-28.8574-54.4922c0 2.58789 1.85547 4.39453 4.58984 4.39453h19.7266v19.7754c0 2.68555 1.85547 4.58984 4.44336 4.58984 2.68555 0 4.54102-1.85547 4.54102-4.58984v-19.7754h19.7754c2.68555 0 4.58984-1.80664 4.58984-4.39453 0-2.73438-1.85547-4.58984-4.58984-4.58984h-19.7754v-19.7266c0-2.73438-1.85547-4.63867-4.54102-4.63867-2.58789 0-4.44336 1.9043-4.44336 4.63867v19.7266h-19.7266c-2.73438 0-4.58984 1.85547-4.58984 4.58984Z"/>
  </g>
  <text style="stroke:none;fill:black;font-family:sans-serif;font-size:13;font-weight:bold;" transform="matrix(1 0 0 1 263 1953)">Design Variations</text>
  <text style="stroke:none;fill:black;font-family:sans-serif;font-size:13;" transform="matrix(1 0 0 1 263 1971)">Symbols are supported in up to nine weights and three scales.</text>
  <text style="stroke:none;fill:black;font-family:sans-serif;font-size:13;" transform="matrix(1 0 0 1 263 1989)">For optimal layout with text and other symbols, vertically align</text>
  <text style="stroke:none;fill:black;font-family:sans-serif;font-size:13;" transform="matrix(1 0 0 1 263 2007)">symbols with the adjacent text.</text>
  <line style="fill:none;stroke:#00AEEF;stroke-width:0.5;opacity:1.0;" x1="776" x2="776" y1="1919" y2="1933"/>
  <g transform="matrix(0.2 0 0 0.2 776 1933)">
   <path d="m16.5527 0.78125c2.58789 0 3.85742-0.976562 4.78516-3.71094l6.29883-17.2363h28.8086l6.29883 17.2363c0.927734 2.73438 2.19727 3.71094 4.73633 3.71094 2.58789 0 4.24805-1.5625 4.24805-4.00391 0-0.830078-0.146484-1.61133-0.537109-2.63672l-22.9004-60.9863c-1.12305-2.97852-3.125-4.49219-6.25-4.49219-3.02734 0-5.07812 1.46484-6.15234 4.44336l-22.9004 61.084c-0.390625 1.02539-0.537109 1.80664-0.537109 2.63672 0 2.44141 1.5625 3.95508 4.10156 3.95508Zm13.4766-28.3691 11.8652-32.8613h0.244141l11.8652 32.8613Z"/>
  </g>
  <line style="fill:none;stroke:#00AEEF;stroke-width:0.5;opacity:1.0;" x1="792.836" x2="792.836" y1="1919" y2="1933"/>
  <text style="stroke:none;fill:black;font-family:sans-serif;font-size:13;font-weight:bold;" transform="matrix(1 0 0 1 776 1953)">Margins</text>
  <text style="stroke:none;fill:black;font-family:sans-serif;font-size:13;" transform="matrix(1 0 0 1 776 1971)">Leading and trailing margins on the left and right side of each symbol</text>
  <text style="stroke:none;fill:black;font-family:sans-serif;font-size:13;" transform="matrix(1 0 0 1 776 1989)">can be adjusted by modifying the x-location of the margin guidelines.</text>
  <text style="stroke:none;fill:black;font-family:sans-serif;font-size:13;" transform="matrix(1 0 0 1 776 2007)">Modifications are automatically applied proportionally to all</text>
  <text style="stroke:none;fill:black;font-family:sans-serif;font-size:13;" transform="matrix(1 0 0 1 776 2025)">scales and weights.</text>
  <g transform="matrix(0.2 0 0 0.2 1289 1933)">
   <path d="m14.209 9.32617 8.49609 8.54492c4.29688 4.3457 9.22852 4.05273 13.8672-1.07422l53.4668-58.9355-4.83398-4.88281-53.0762 58.3984c-1.75781 2.00195-3.41797 2.49023-5.76172 0.146484l-5.85938-5.81055c-2.34375-2.29492-1.80664-4.00391 0.195312-5.81055l57.373-54.0039-4.88281-4.83398-57.959 54.4434c-4.93164 4.58984-5.32227 9.47266-1.02539 13.8184Zm32.0801-90.9668c-2.09961 2.05078-2.24609 4.93164-1.07422 6.88477 1.17188 1.80664 3.4668 2.97852 6.68945 2.14844 7.32422-1.70898 14.9414-2.00195 22.0703 2.68555l-2.92969 7.27539c-1.70898 4.15039-0.830078 7.08008 1.85547 9.81445l11.4746 11.5723c2.44141 2.44141 4.49219 2.53906 7.32422 2.05078l5.32227-0.976562 3.32031 3.36914-0.195312 2.7832c-0.195312 2.49023 0.439453 4.39453 2.88086 6.78711l3.80859 3.71094c2.39258 2.39258 5.46875 2.53906 7.8125 0.195312l14.5508-14.5996c2.34375-2.34375 2.24609-5.32227-0.146484-7.71484l-3.85742-3.80859c-2.39258-2.39258-4.24805-3.17383-6.64062-2.97852l-2.88086 0.244141-3.22266-3.17383 1.2207-5.61523c0.634766-2.83203-0.146484-5.0293-3.07617-7.95898l-10.9863-10.9375c-16.6992-16.6016-38.8672-16.2109-53.3203-1.75781Zm7.4707 1.85547c12.1582-8.88672 28.6133-7.37305 39.7461 3.75977l12.1582 12.0605c1.17188 1.17188 1.36719 2.09961 1.02539 3.80859l-1.61133 7.42188 7.51953 7.42188 4.93164-0.292969c1.26953-0.0488281 1.66016 0.0488281 2.63672 1.02539l2.88086 2.88086-12.207 12.207-2.88086-2.88086c-0.976562-0.976562-1.12305-1.36719-1.07422-2.68555l0.341797-4.88281-7.4707-7.42188-7.61719 1.26953c-1.61133 0.341797-2.34375 0.195312-3.56445-0.976562l-10.0098-10.0098c-1.26953-1.17188-1.41602-2.00195-0.634766-3.85742l4.39453-10.4492c-7.8125-7.27539-17.9688-10.4004-28.125-7.42188-0.78125 0.195312-1.07422-0.439453-0.439453-0.976562Z"/>
  </g>
  <text style="stroke:none;fill:black;font-family:sans-serif;font-size:13;font-weight:bold;" transform="matrix(1 0 0 1 1289 1953)">Exporting</text>
  <text style="stroke:none;fill:black;font-family:sans-serif;font-size:13;" transform="matrix(1 0 0 1 1289 1971)">Symbols should be outlined when exporting to ensure the</text>
  <text style="stroke:none;fill:black;font-family:sans-serif;font-size:13;" transform="matrix(1 0 0 1 1289 1989)">design is preserved when submitting to Xcode.</text>
  <text id="template-version" style="stroke:none;fill:black;font-family:sans-serif;font-size:13;text-anchor:end;" transform="matrix(1 0 0 1 3036 1933)">Template v.5.0</text>
  <text style="stroke:none;fill:black;font-family:sans-serif;font-size:13;text-anchor:end;" transform="matrix(1 0 0 1 3036 1951)">Requires Xcode 15 or greater</text>
  <text id="descriptive-name" style="stroke:none;fill:black;font-family:sans-serif;font-size:13;text-anchor:end;" transform="matrix(1 0 0 1 3036 1969)">Generated from two.keys</text>
  <text style="stroke:none;fill:black;font-family:sans-serif;font-size:13;text-anchor:end;" transform="matrix(1 0 0 1 3036 1987)">Typeset at 100.0 points</text>
  <text style="stroke:none;fill:black;font-family:sans-serif;font-size:13;" transform="matrix(1 0 0 1 263 726)">Small</text>
  <text style="stroke:none;fill:black;font-family:sans-serif;font-size:13;" transform="matrix(1 0 0 1 263 1156)">Medium</text>
  <text style="stroke:none;fill:black;font-family:sans-serif;font-size:13;" transform="matrix(1 0 0 1 263 1586)">Large</text>
 </g>
 <g id="Guides">
  <g id="H-reference" style="fill:#27AAE1;stroke:none;" transform="matrix(1 0 0 1 339 696)">
   <path d="M0.993654 0L3.63775 0L29.3281-67.1323L30.0303-67.1323L30.0303-70.459L28.1226-70.459ZM11.6885-24.4799L46.9815-24.4799L46.2315-26.7285L12.4385-26.7285ZM55.1196 0L57.7637 0L30.6382-70.459L29.4326-70.459L29.4326-67.1323Z"/>
  </g>
  <line id="Baseline-S" style="fill:none;stroke:#27AAE1;opacity:1;stroke-width:0.5;" x1="263" x2="3036" y1="696" y2="696"/>
  <line id="Capline-S" style="fill:none;stroke:#27AAE1;opacity:1;stroke-width:0.5;" x1="263" x2="3036" y1="625.541" y2="625.541"/>
  <g id="H-reference" style="fill:#27AAE1;stroke:none;" transform="matrix(1 0 0 1 339 1126)">
   <path d="M0.993654 0L3.63775 0L29.3281-67.1323L30.0303-67.1323L30.0303-70.459L28.1226-70.459ZM11.6885-24.4799L46.9815-24.4799L46.2315-26.7285L12.4385-26.7285ZM55.1196 0L57.7637 0L30.6382-70.459L29.4326-70.459L29.4326-67.1323Z"/>
  </g>
  <line id="Baseline-M" style="fill:none;stroke:#27AAE1;opacity:1;stroke-width:0.5;" x1="263" x2="3036" y1="1126" y2="1126"/>
  <line id="Capline-M" style="fill:none;stroke:#27AAE1;opacity:1;stroke-width:0.5;" x1="263" x2="3036" y1="1055.54" y2="1055.54"/>
  <g id="H-reference" style="fill:#27AAE1;stroke:none;" transform="matrix(1 0 0 1 339 1556)">
   <path d="M0.993654 0L3.63775 0L29.3281-67.1323L30.0303-67.1323L30.0303-70.459L28.1226-70.459ZM11.6885-24.4799L46.9815-24.4799L46.2315-26.7285L12.4385-26.7285ZM55.1196 0L57.7637 0L30.6382-70.459L29.4326-70.459L29.4326-67.1323Z"/>
  </g>
  <line id="Baseline-L" style="fill:none;stroke:#27AAE1;opacity:1;stroke-width:0.5;" x1="263" x2="3036" y1="1556" y2="1556"/>
  <line id="Capline-L" style="fill:none;stroke:#27AAE1;opacity:1;stroke-width:0.5;" x1="263" x2="3036" y1="1485.54" y2="1485.54"/>
  <line id="left-margin-Ultralight-S" style="fill:none;stroke:#00AEEF;stroke-width:0.5;opacity:1.0;" x1="515.011" x2="515.011" y1="600.785" y2="720.121"/>
  <line id="right-margin-Ultralight-S" style="fill:none;stroke:#00AEEF;stroke-width:0.5;opacity:1.0;" x1="604.411" x2="604.411" y1="600.785" y2="720.121"/>
  <line id="left-margin-Regular-S" style="fill:none;stroke:#00AEEF;stroke-width:0.5;opacity:1.0;" x1="1403.39" x2="1403.39" y1="600.785" y2="720.121"/>
  <line id="right-margin-Regular-S" style="fill:none;stroke:#00AEEF;stroke-width:0.5;opacity:1.0;" x1="1496.29" x2="1496.29" y1="600.785" y2="720.121"/>
  <line id="left-margin-Black-S" style="fill:none;stroke:#00AEEF;stroke-width:0.5;opacity:1.0;" x1="2884.9" x2="2884.9" y1="600.785" y2="720.121"/>
  <line id="right-margin-Black-S" style="fill:none;stroke:#00AEEF;stroke-width:0.5;opacity:1.0;" x1="2981.9" x2="2981.9" y1="600.785" y2="720.121"/>
 </g>
 <g id="Symbols">
  <g id="Black-S" transform="matrix(1 0 0 1 2884.9 696)">
   <path class="SFSymbolsPreviewWireframe" d="M27.91 8.7C15.01 8.7 4.51-1.8 4.51-14.7C4.51-27.6 15.01-38.1 27.91-38.1C40.81-38.1 51.31-27.6 51.31-14.7C51.31-1.8 40.81 8.7 27.91 8.7ZM27.91-24.2C22.71-24.2 18.41-19.9 18.41-14.7C18.41-9.5 22.71-5.2 27.91-5.2C33.11-5.2 37.41-9.5 37.41-14.7C37.41-19.9 33.21-24.2 27.91-24.2ZM69.01-32.4C56.11-32.4 45.61-42.9 45.61-55.8C45.61-68.7 56.11-79.2 69.01-79.2C81.91-79.2 92.41-68.7 92.41-55.8C92.41-42.9 81.91-32.4 69.01-32.4ZM69.01-65.3C63.81-65.3 59.51-61 59.51-55.8C59.51-50.6 63.81-46.3 69.01-46.3C74.21-46.3 78.51-50.6 78.51-55.8C78.61-61 74.31-65.3 69.01-65.3ZM85.51-6.7L41.51-6.7L41.51-27.8L81.31-27.8C84.81-27.8 86.61-25.6 87.31-24.3L91.41-17.1C93.01-14.2 92.11-11.4 91.41-10.2C90.81-8.9 88.81-6.7 85.51-6.7ZM55.41-47.8L11.41-47.8C8.51-47.8 6.31-49.6 5.41-51.3C4.41-53.1 3.91-55.7 5.41-58.2L9.51-65.4C10.71-67.6 13.01-68.9 15.51-68.9L55.31-68.9L55.31-47.8ZM77.31 0.5C73.51 0.5 70.41-2.6 70.41-6.4L70.41-14.6C70.41-18.4 73.51-21.5 77.31-21.5C81.11-21.5 84.21-18.4 84.21-14.6L84.21-6.4C84.21-2.6 81.11 0.5 77.31 0.5ZM60.81 0.5C57.01 0.5 53.91-2.6 53.91-6.4L53.91-14.6C53.91-18.4 57.01-21.5 60.81-21.5C64.61-21.5 67.71-18.4 67.71-14.6L67.71-6.4C67.81-2.6 64.71 0.5 60.81 0.5ZM36.21-40.6C32.41-40.6 29.31-43.7 29.31-47.5L29.31-55.7C29.31-59.5 32.41-62.6 36.21-62.6C40.01-62.6 43.11-59.5 43.11-55.7L43.11-47.5C43.11-43.7 40.01-40.6 36.21-40.6ZM19.71-40.6C15.91-40.6 12.81-43.7 12.81-47.5L12.81-55.7C12.81-59.5 15.91-62.6 19.71-62.6C23.51-62.6 26.61-59.5 26.61-55.7L26.61-47.5C26.71-43.7 23.51-40.6 19.71-40.6Z"/>
  </g>
  <g id="Regular-S" transform="matrix(1 0 0 1 1403.39 696)">
   <path class="SFSymbolsPreviewWireframe" d="M25.96 5.9C14.56 5.9 5.36-3.4 5.36-14.7C5.36-26 14.56-35.2 25.96-35.2C37.26-35.2 46.56-26 46.56-14.6C46.56-3.2 37.26 5.9 25.96 5.9ZM25.96-27C19.16-27 13.66-21.5 13.66-14.7C13.66-7.9 19.16-2.4 25.96-2.4C32.76-2.4 38.26-7.9 38.26-14.7C38.26-21.5 32.76-27 25.96-27ZM67.06-35.2C55.76-35.2 46.46-44.4 46.46-55.8C46.46-67.2 55.66-76.4 67.06-76.4C78.46-76.4 87.66-67.2 87.66-55.8C87.66-44.4 78.36-35.2 67.06-35.2ZM67.06-68.1C60.26-68.1 54.76-62.6 54.76-55.8C54.76-49 60.26-43.5 67.06-43.5C73.86-43.5 79.36-49 79.36-55.8C79.36-62.6 73.86-68.1 67.06-68.1ZM83.46-9.6L42.36-9.6L42.36-25L79.36-25C80.86-25 82.16-24.2 82.96-22.9L87.06-15.7C87.76-14.4 87.76-12.9 87.06-11.6C86.36-10.3 84.96-9.6 83.46-9.6ZM50.66-50.7L9.46-50.7C7.96-50.7 6.66-51.5 5.86-52.7C5.16-54 5.16-55.5 5.86-56.8L9.96-64C10.66-65.3 12.06-66.1 13.56-66.1L50.56-66.1L50.56-50.7ZM75.26-2.4C72.96-2.4 71.16-4.2 71.16-6.5L71.16-14.7C71.16-17 72.96-18.8 75.26-18.8C77.56-18.8 79.36-17 79.36-14.7L79.36-6.5C79.36-4.2 77.56-2.4 75.26-2.4ZM58.86-2.4C56.56-2.4 54.76-4.2 54.76-6.5L54.76-14.7C54.76-17 56.56-18.8 58.86-18.8C61.16-18.8 62.96-17 62.96-14.7L62.96-6.5C62.96-4.2 61.06-2.4 58.86-2.4ZM34.16-43.5C31.86-43.5 30.06-45.3 30.06-47.6L30.06-55.8C30.06-58.1 31.86-59.9 34.16-59.9C36.46-59.9 38.26-58.1 38.26-55.8L38.26-47.6C38.26-45.3 36.46-43.5 34.16-43.5ZM17.76-43.5C15.46-43.5 13.66-45.3 13.66-47.6L13.66-55.8C13.66-58.1 15.46-59.9 17.76-59.9C20.06-59.9 21.86-58.1 21.86-55.8L21.86-47.6C21.86-45.3 19.96-43.5 17.76-43.5Z"/>
  </g>
  <g id="Ultralight-S" transform="matrix(1 0 0 1 515.011 696)">
   <path class="SFSymbolsPreviewWireframe" d="M24.175 3C14.375 3 6.475-5 6.475-14.7C6.475-24.4 14.475-32.4 24.175-32.4C33.975-32.4 41.875-24.4 41.875-14.7C41.875-5 33.975 3 24.175 3ZM24.175-29.9C15.775-29.9 8.975-23.1 8.975-14.7C8.975-6.3 15.775 0.5 24.175 0.5C32.575 0.5 39.375-6.3 39.375-14.7C39.375-23.1 32.575-29.9 24.175-29.9ZM65.275-38.1C55.475-38.1 47.575-46.1 47.575-55.8C47.575-65.5 55.575-73.5 65.275-73.5C74.975-73.5 82.975-65.5 82.975-55.8C82.975-46.1 75.075-38.1 65.275-38.1ZM65.275-71C56.875-71 50.075-64.2 50.075-55.8C50.075-47.4 56.875-40.6 65.275-40.6C73.675-40.6 80.475-47.4 80.475-55.8C80.475-64.2 73.675-71 65.275-71ZM81.775-12.4L39.375-12.4L39.375-22.2L77.675-22.2C78.175-22.2 78.575-22 78.775-21.6L82.875-14.4C83.075-14 83.075-13.5 82.875-13.1C82.575-12.6 82.175-12.4 81.775-12.4ZM50.175-53.5L7.775-53.5C7.275-53.5 6.975-53.7 6.675-54.1C6.375-54.6 6.475-55.1 6.675-55.4L10.775-62.6C10.975-63 11.375-63.2 11.875-63.2L50.175-63.2L50.175-53.5ZM73.575-5.2C72.875-5.2 72.275-5.8 72.275-6.5L72.275-14.7C72.275-15.4 72.875-16 73.575-16C74.275-16 74.875-15.4 74.875-14.7L74.875-6.5C74.775-5.8 74.275-5.2 73.575-5.2ZM57.075-5.2C56.375-5.2 55.775-5.8 55.775-6.5L55.775-14.7C55.775-15.4 56.375-16 57.075-16C57.775-16 58.375-15.4 58.375-14.7L58.375-6.5C58.375-5.8 57.775-5.2 57.075-5.2ZM32.375-46.3C31.675-46.3 31.075-46.9 31.075-47.6L31.075-55.8C31.075-56.5 31.675-57.1 32.375-57.1C33.075-57.1 33.675-56.5 33.675-55.8L33.675-47.6C33.675-46.9 33.075-46.3 32.375-46.3ZM15.975-46.3C15.275-46.3 14.675-46.9 14.675-47.6L14.675-55.8C14.675-56.5 15.275-57.1 15.975-57.1C16.675-57.1 17.275-56.5 17.275-55.8L17.275-47.6C17.275-46.9 16.675-46.3 15.975-46.3Z"/>
  </g>
 </g>
</svg>
