<svg width="134" height="129" viewBox="0 0 134 129" fill="none" xmlns="http://www.w3.org/2000/svg">
<circle cx="64" cy="64.7695" r="64" fill="#223548"/>
<path fill-rule="evenodd" clip-rule="evenodd" d="M3.94922 42.5856C8.10744 31.3329 15.3382 21.5691 24.6232 14.3125C32.5593 16.4881 38.3908 23.7528 38.3908 32.3794C38.3908 42.7247 30.0043 51.1112 19.659 51.1112C13.0784 51.1112 7.29036 47.7179 3.94922 42.5856Z" fill="#324E6B"/>
<path d="M16.1963 36.9814C16.1319 37.1687 14.7065 36.3463 13.3456 36.9814C11.727 37.7336 11.5631 39.9083 11.206 39.8322C10.7963 39.7473 10.2197 36.7004 11.8411 35.6351C13.5914 34.4819 16.287 36.7151 16.1963 36.9814Z" fill="#3B5B7C"/>
<path d="M24.3506 23.0093C24.2862 23.1966 22.8608 22.3771 21.4998 23.0093C19.8813 23.7644 19.7174 25.9361 19.3603 25.8629C18.9506 25.7751 18.374 22.7283 19.9954 21.6629C21.7457 20.5127 24.4413 22.7459 24.3506 23.0093Z" fill="#3B5B7C"/>
<path d="M29.8994 33.7822C29.835 33.9666 28.4097 33.1471 27.0487 33.7822C25.4301 34.5344 25.2662 36.709 24.9092 36.6329C24.4994 36.5451 23.9228 33.4983 25.5443 32.4358C27.2945 31.2827 29.9814 33.5158 29.8994 33.7822Z" fill="#3B5B7C"/>
<path fill-rule="evenodd" clip-rule="evenodd" d="M3.94824 42.5883C4.17539 41.9735 4.4117 41.3632 4.65702 40.7575C6.71659 42.6193 9.17978 44.0139 11.8796 44.8167C16.1407 46.0838 20.7135 45.7941 24.7807 43.9995C28.8478 42.2049 32.1441 39.0223 34.0803 35.0206C36.0166 31.019 36.4665 26.4592 35.3498 22.1562C36.8312 24.4313 37.8003 27.0013 38.1901 29.688C38.5799 32.3748 38.381 35.1142 37.6072 37.7165C36.8334 40.3188 35.5032 42.7217 33.7087 44.759C31.9141 46.7962 29.6982 48.4191 27.2144 49.5151C24.7306 50.6111 22.0382 51.154 19.3237 51.1064C16.6092 51.0587 13.9375 50.4216 11.4937 49.2391C9.04984 48.0566 6.89224 46.3571 5.17032 44.2581C4.73152 43.7233 4.32368 43.1657 3.94824 42.5883Z" fill="#3B5B7C"/>
<path d="M64.4147 117.845C42.3679 117.845 24.4954 100.13 24.4954 78.2761C24.4954 56.4227 42.3679 38.707 64.4147 38.707C86.4615 38.707 104.334 56.4227 104.334 78.2761C104.334 100.13 86.4615 117.845 64.4147 117.845Z" fill="#2A4259"/>
<path d="M64.4145 112.464C45.3652 112.464 29.9227 97.1573 29.9227 78.2752C29.9227 59.393 45.3652 44.0859 64.4145 44.0859C83.4637 44.0859 98.9062 59.393 98.9062 78.2752C98.9062 97.1573 83.4637 112.464 64.4145 112.464Z" fill="#4098FF"/>
<path fill-rule="evenodd" clip-rule="evenodd" d="M84.8986 105.785L55.0593 105.785C54.3909 105.785 53.8491 105.243 53.8491 104.575C53.8491 103.907 54.3909 103.365 55.0593 103.365L87.846 103.365C86.9102 104.224 85.9263 105.032 84.8986 105.785ZM91.7063 99.1845H37.123C35.2771 96.8206 33.7368 94.2104 32.5609 91.412H58.3552C59.7362 91.412 61.0886 91.0182 62.2537 90.2767L64.5822 88.7949C65.7474 88.0535 67.0997 87.6597 68.4808 87.6597H95.8485C96.4295 87.6597 96.9904 87.7457 97.5193 87.9056C96.2957 92.0448 94.3036 95.8585 91.7063 99.1845ZM98.6992 74.5061H72.3014C71.4659 74.5061 70.7886 73.8288 70.7886 72.9933C70.7886 72.1578 71.4659 71.4805 72.3014 71.4805H98.2253C98.4274 72.4741 98.5861 73.4833 98.6992 74.5061ZM97.5769 68.8425C97.1183 69.3556 96.4508 69.6887 95.681 69.6887H46.4655C45.6144 69.6887 44.9244 68.9987 44.9244 68.1476C44.9244 67.2964 44.2344 66.6065 43.3833 66.6065H31.984C32.8593 64.217 33.9956 61.9517 35.3589 59.8444C35.6968 59.7963 36.0386 59.772 36.382 59.772H71.9944C71.9944 62.4364 74.1544 64.5963 76.8188 64.5963H95.681C95.8046 64.5963 95.9267 64.6052 96.0465 64.6226C96.646 65.9853 97.1584 67.3942 97.5769 68.8425ZM43.9651 50.7404H54.9688C55.8043 50.7404 56.4816 50.0631 56.4816 49.2276C56.4816 48.3921 55.8043 47.7148 54.9688 47.7148H48.9341C47.1876 48.5858 45.5261 49.5994 43.9651 50.7404ZM30.026 80.9382L52.4857 80.9382C54.1567 80.9382 55.5113 82.2928 55.5113 83.9638C55.5113 85.6348 54.1567 86.9894 52.4857 86.9894L31.0533 86.9894C30.5352 85.0352 30.1872 83.0127 30.026 80.9382ZM59.8382 71.4805C59.0027 71.4805 58.3254 72.1578 58.3254 72.9933C58.3254 73.8288 59.0027 74.5061 59.8382 74.5061H63.6471C64.4826 74.5061 65.1599 73.8288 65.1599 72.9933C65.1599 72.1578 64.4826 71.4805 63.6471 71.4805H59.8382Z" fill="#3B5B7C"/>
<path fill-rule="evenodd" clip-rule="evenodd" d="M67.9409 112.288C66.7815 112.405 65.605 112.464 64.4145 112.464C51.4698 112.464 40.1907 105.396 34.2909 94.9408C39.5653 98.1849 45.7876 100.058 52.4514 100.058C71.5007 100.058 86.9432 84.751 86.9432 65.8688C86.9432 59.8178 85.3573 54.1339 82.575 49.2033C92.3781 55.2329 98.9061 65.9983 98.9061 78.2752C98.9061 91.3857 91.4613 102.773 80.5334 108.509C76.7064 110.518 72.4522 111.834 67.9409 112.288Z" fill="#0070F3"/>
<path fill-rule="evenodd" clip-rule="evenodd" d="M55.0591 105.785H84.8987C85.9263 105.032 86.9103 104.223 87.8461 103.364L55.0591 103.364C54.3907 103.364 53.8489 103.906 53.8489 104.575C53.8489 105.243 54.3907 105.785 55.0591 105.785ZM60.2338 99.1841H91.7064C94.3036 95.8582 96.2957 92.0446 97.5192 87.9054C96.9903 87.7454 96.4292 87.6593 95.848 87.6593H79.0313C74.2878 93.3379 67.7277 97.4712 60.2338 99.1841ZM44.6697 99.1841H37.1232C36.0776 97.8452 35.1301 96.4272 34.2913 94.9407C37.4474 96.882 40.9431 98.3323 44.6697 99.1841ZM86.7307 69.6881C86.8713 68.4342 86.9435 67.1598 86.9435 65.8687C86.9435 65.4425 86.9357 65.0181 86.9201 64.5957H95.6808C95.8044 64.5957 95.9266 64.6046 96.0464 64.622C96.6459 65.9846 97.1583 67.3935 97.5768 68.8417C97.1182 69.3549 96.4506 69.6881 95.6808 69.6881H86.7307ZM86.4812 71.4799C86.3106 72.5045 86.0939 73.5137 85.8335 74.5055H98.6992C98.586 73.4827 98.4274 72.4735 98.2252 71.4799H86.4812Z" fill="#4098FF"/>
<path fill-rule="evenodd" clip-rule="evenodd" d="M63.92 11.9355C64.7543 11.9355 65.4307 12.6119 65.4307 13.4463L65.4307 50.9888C65.4307 51.8232 64.7543 52.4995 63.92 52.4995C63.0856 52.4995 62.4092 51.8232 62.4092 50.9888L62.4092 13.4463C62.4092 12.6119 63.0856 11.9355 63.92 11.9355Z" fill="#688FB7"/>
<path d="M77.8193 14.3958C73.3707 11.2447 67.6246 12.3105 65.3076 13.2373V35.3644C78.3986 27.3708 77.8193 29.8036 89.7517 30.0353C99.2977 30.2207 102.379 26.4054 102.727 24.4746C92.7638 26.2123 83.38 18.3346 77.8193 14.3958Z" fill="#F58B00"/>
<path fill-rule="evenodd" clip-rule="evenodd" d="M81.2618 29.5491V16.8888C84.4352 19.1697 88.2991 21.7592 92.5321 23.3151V29.9691C91.6728 30.0301 90.7475 30.0543 89.7518 30.035C87.1754 29.985 85.1824 29.8323 83.5091 29.7042C82.6943 29.6418 81.9553 29.5852 81.2618 29.5491Z" fill="#CC7400"/>
<path fill-rule="evenodd" clip-rule="evenodd" d="M70.0575 12.2988V32.5935C68.6927 33.3369 67.1331 34.2488 65.3077 35.3634V13.2363C66.345 12.8214 68.0697 12.3786 70.0575 12.2988Z" fill="#CC7400"/>
<path d="M99.3883 39.639C98.8543 38.3743 99.9708 36.4742 102.226 34.3923C102.169 34.0028 102.127 33.6083 102.102 33.209C98.5005 36.1054 96.5776 38.8591 97.3107 40.5938C98.0438 42.3286 101.268 42.6714 105.721 41.8057C105.467 41.5275 105.225 41.239 104.994 40.9401C102.012 41.3054 99.9231 40.9037 99.3883 39.639Z" fill="#2A4259"/>
<path fill-rule="evenodd" clip-rule="evenodd" d="M123.993 42.4263C121.665 44.668 118.564 46.0358 115.159 46.0358C107.931 46.0358 102.072 39.8716 102.072 32.2677C102.072 26.7719 105.133 22.0282 109.559 19.8203C115.847 26.1924 120.807 33.8771 123.993 42.4263Z" fill="#2A4259"/>
<path fill-rule="evenodd" clip-rule="evenodd" d="M122.146 37.9901C122.287 38.2971 122.427 38.6054 122.563 38.915H121.805C121.741 38.915 121.679 38.9001 121.622 38.8715C121.564 38.8428 121.514 38.8011 121.474 38.7493C121.434 38.6975 121.406 38.637 121.391 38.5723C121.376 38.5075 121.375 38.44 121.388 38.3748C121.411 38.2725 121.466 38.1814 121.545 38.1168C121.623 38.0522 121.721 38.018 121.82 38.0199L122.146 37.9901ZM121.146 35.9221C119.969 36.5692 118.73 37.1994 117.44 37.8019C115.032 38.9276 112.673 39.8524 110.465 40.5624L110.466 40.5632C109.33 40.9338 108.179 41.2551 107.018 41.5264C106.826 41.5714 106.636 41.6144 106.448 41.6554C106.205 41.7084 105.963 41.7593 105.72 41.808C105.596 41.6718 105.474 41.5336 105.356 41.3934L105.341 41.3752C105.221 41.2332 105.105 41.089 104.993 40.9424L104.996 40.942L104.994 40.9399C105.079 40.9295 105.165 40.9185 105.251 40.9069C105.802 40.8287 106.351 40.7355 106.897 40.6272C109.873 40.0253 113.463 38.8184 117.189 37.0765C118.449 36.4877 119.655 35.8699 120.794 35.2359C120.913 35.4638 121.03 35.6925 121.146 35.9221ZM117.903 30.2499H115.156C114.663 30.2497 114.19 30.0434 113.842 29.6766C113.493 29.3097 113.297 28.8122 113.297 28.2935V27.7672C113.297 27.693 113.283 27.6196 113.256 27.551C113.229 27.4825 113.19 27.4203 113.14 27.3678C113.09 27.3154 113.031 27.2739 112.965 27.2455C112.9 27.2172 112.83 27.2027 112.76 27.2028H104.382L104.382 27.2012H102.984L102.956 27.2756C102.92 27.3734 102.885 27.4713 102.851 27.5699L102.843 27.5939C102.832 27.6238 102.822 27.6533 102.812 27.6833C102.789 27.7528 102.767 27.8238 102.744 27.8942L102.744 27.8942C102.726 27.9528 102.708 28.0111 102.689 28.0677C102.684 28.0837 102.679 28.1001 102.675 28.1165L102.675 28.1165L102.667 28.1439C102.633 28.2564 102.601 28.3689 102.57 28.4832L102.542 28.5836C102.507 28.7204 102.473 28.858 102.44 28.9965L102.435 29.0173C102.404 29.1515 102.376 29.2865 102.349 29.4216L102.332 29.5081C102.277 29.7964 102.229 30.0881 102.191 30.3824L102.181 30.4551C102.163 30.6023 102.147 30.7503 102.133 30.8992L102.136 30.8992L102.136 30.9H112.646L118.324 30.9159C118.185 30.693 118.044 30.471 117.903 30.2499ZM112.231 32.2339H113.054C113.167 32.2339 113.275 32.281 113.355 32.365C113.435 32.4489 113.479 32.5627 113.479 32.6814C113.479 32.8001 113.435 32.9139 113.355 32.9979C113.275 33.0818 113.167 33.1289 113.054 33.1289H112.231C112.118 33.1289 112.01 33.0818 111.93 32.9979C111.851 32.9139 111.806 32.8001 111.806 32.6814C111.806 32.5627 111.851 32.4489 111.93 32.365C112.01 32.281 112.118 32.2339 112.231 32.2339ZM102.07 32.2331H102.074V32.2331H104.68L104.68 32.2331H110.216C110.329 32.2331 110.437 32.2802 110.516 32.364C110.596 32.4477 110.641 32.5613 110.641 32.6798C110.641 32.7978 110.597 32.9111 110.518 32.995C110.439 33.0788 110.332 33.1264 110.219 33.1273H102.096C102.079 32.8434 102.07 32.5569 102.07 32.2678V32.2331Z" fill="#EBF8FF"/>
<path fill-rule="evenodd" clip-rule="evenodd" d="M123.992 42.4274C121.664 44.6691 118.563 46.0369 115.158 46.0369C110.641 46.0369 106.658 43.629 104.307 39.9666C103.763 39.1194 103.306 38.2049 102.95 37.2377C102.567 36.1962 102.3 35.0935 102.168 33.9473C104 38.1548 108.038 41.0777 112.724 41.0777C116.267 41.0777 119.439 39.4074 121.568 36.7744C122.463 38.6112 123.273 40.4973 123.992 42.4274Z" fill="#324E6B"/>
<path fill-rule="evenodd" clip-rule="evenodd" d="M122.145 37.9922C122.287 38.2992 122.426 38.6074 122.563 38.917H121.804C121.741 38.917 121.679 38.9022 121.621 38.8735C121.564 38.8449 121.514 38.8031 121.474 38.7514C121.434 38.6996 121.406 38.6391 121.391 38.5743C121.376 38.5095 121.375 38.4421 121.388 38.3769C121.41 38.2746 121.466 38.1835 121.544 38.1189C121.623 38.0543 121.72 38.0201 121.82 38.022L122.145 37.9922ZM106.448 41.6575C106.206 41.7102 105.965 41.7609 105.723 41.8094C105.469 41.5318 105.227 41.2431 104.996 40.9441L104.996 40.944L104.994 40.9419C105.079 40.9316 105.165 40.9205 105.251 40.9089C105.802 40.8308 106.35 40.7375 106.896 40.6293C107.421 40.5231 107.966 40.3981 108.526 40.2546C108.989 40.4436 109.466 40.6022 109.955 40.7282C108.985 41.0308 108.005 41.2977 107.018 41.5285C106.826 41.5735 106.636 41.6165 106.448 41.6575Z" fill="#2A4259"/>
<path d="M112.52 73.3929C112.366 70.8346 111.808 68.9323 111.149 68.9356C110.49 68.9388 109.939 70.851 109.798 73.4224C107.229 73.5995 105.321 74.1735 105.327 74.836C105.334 75.4986 107.246 76.0266 109.807 76.148C109.962 78.7063 110.516 80.6086 111.175 80.6053C111.834 80.602 112.385 78.6899 112.526 76.1184C115.095 75.9413 117.003 75.3674 116.997 74.7048C116.99 74.0423 115.078 73.511 112.52 73.3929Z" fill="#F58B00"/>
<path d="M48.1408 26.1306C48.0392 24.412 47.6653 23.1328 47.2225 23.1328C46.7797 23.1328 46.4091 24.4218 46.314 26.1503C44.5855 26.2684 43.303 26.6554 43.3096 27.0982C43.3162 27.5409 44.5986 27.8984 46.3172 27.9772C46.4222 29.6991 46.7961 30.9782 47.2389 30.975C47.6817 30.9717 48.0523 29.686 48.1474 27.9575C49.8726 27.8394 51.155 27.4557 51.1517 27.0096C51.1485 26.5635 49.8628 26.2093 48.1408 26.1306Z" fill="#F58B00"/>
<path d="M16.7369 76.2736C17.5676 75.4429 17.5676 74.0961 16.7369 73.2654C15.9062 72.4347 14.5594 72.4347 13.7287 73.2654C12.898 74.0961 12.898 75.4429 13.7287 76.2736C14.5594 77.1043 15.9062 77.1043 16.7369 76.2736Z" fill="#2A4259"/>
<path d="M110.999 95.2503C111.448 94.8014 111.448 94.0736 110.999 93.6247C110.55 93.1757 109.822 93.1757 109.373 93.6247C108.924 94.0736 108.924 94.8014 109.373 95.2503C109.822 95.6993 110.55 95.6993 110.999 95.2503Z" fill="#324E6B"/>
<path d="M9.84028 59.6069C10.3157 59.1315 10.3157 58.3607 9.84028 57.8853C9.36486 57.4099 8.59405 57.4099 8.11863 57.8853C7.64322 58.3607 7.64322 59.1315 8.11863 59.6069C8.59405 60.0823 9.36486 60.0823 9.84028 59.6069Z" fill="#2A4259"/>
</svg>
