<svg width="45" height="45" viewBox="0 0 45 45" fill="none" xmlns="http://www.w3.org/2000/svg">
<path d="M22.3855 0C21.5464 0 20.7417 0.333359 20.1484 0.926736C19.555 1.52011 19.2217 2.3249 19.2217 3.16406V7.55157H25.5494V3.16758C25.5499 2.75178 25.4684 2.33995 25.3096 1.95566C25.1508 1.57138 24.9178 1.22216 24.624 0.927981C24.3301 0.633798 23.9812 0.400413 23.5971 0.241184C23.213 0.0819555 22.8013 -2.5667e-07 22.3855 0Z" fill="#CC7400"/>
<path d="M38.8939 20.9188V35.2133H5.65234V20.9188C5.65234 16.5104 7.40344 12.2825 10.5204 9.16531C13.6374 6.0481 17.865 4.29688 22.2731 4.29688C26.6812 4.29688 30.9088 6.0481 34.0258 9.16531C37.1427 12.2825 38.8939 16.5104 38.8939 20.9188Z" fill="#F58B00"/>
<path d="M22.3863 44.9996C24.6345 44.9996 26.4571 43.1769 26.4571 40.9285C26.4571 38.6801 24.6345 36.8574 22.3863 36.8574C20.138 36.8574 18.3154 38.6801 18.3154 40.9285C18.3154 43.1769 20.138 44.9996 22.3863 44.9996Z" fill="#F58B00"/>
<path d="M42.6241 36.8582C41.6257 36.6508 38.8943 35.2129 38.8943 35.2129H5.65275C5.65275 35.2129 2.92128 36.6508 1.92291 36.8582C0.924537 37.0656 0 37.7195 0 38.7813C0 39.2913 0.202588 39.7804 0.563205 40.1411C0.923822 40.5017 1.41292 40.7043 1.92291 40.7043H42.6241C43.1341 40.7043 43.6232 40.5017 43.9838 40.1411C44.3444 39.7804 44.547 39.2913 44.547 38.7813C44.5576 37.7195 43.6611 37.0797 42.6241 36.8582Z" fill="#CC7400"/>
<path opacity="0.5" d="M20.6426 4.27539C16.5319 4.68546 12.7193 6.6158 9.94438 9.69194C7.16948 12.7681 5.63014 16.7707 5.625 20.9232V35.3254H36.675V21.0047C36.6744 16.673 35.0038 12.5102 32.0142 9.3906C29.0246 6.27104 24.9486 4.43759 20.6426 4.27539Z" fill="#CC7400"/>
</svg>
