<svg width="45" height="33" viewBox="0 0 45 33" fill="none" xmlns="http://www.w3.org/2000/svg">
<g clip-path="url(#clip0_4038_84772)">
<path d="M40.2216 19.3587L37.4205 17.2977L16.3914 1.81547C14.8058 0.648489 12.3965 0.543008 11.0102 1.5794L1.35957 8.79058C1.1101 8.9781 0.912538 9.18906 0.761851 9.41677C-0.425223 10.5084 -0.212588 12.2028 1.30935 13.3229L24.9537 30.7289C26.5711 31.9193 29.0507 32.013 30.494 30.9381L40.5347 23.4607C41.9779 22.3858 41.8373 20.5491 40.2199 19.3587H40.2216Z" fill="#101619"/>
<path d="M44.0022 23.9066L33.9614 31.384C32.5182 32.4589 30.0369 32.3652 28.4212 31.1747L4.77679 13.7705C3.15942 12.58 3.01878 10.7433 4.46202 9.66843L14.5028 2.19103C15.946 1.11614 18.4273 1.2099 20.043 2.40032L43.6874 19.8063C45.3048 20.9967 45.4454 22.8334 44.0022 23.9083V23.9066Z" fill="#8D2A00"/>
<path d="M43.396 23.317L33.7471 30.5282C32.3607 31.5646 29.9514 31.4591 28.3659 30.2921L5.18528 13.2277C3.59972 12.0607 3.43899 10.2742 4.82698 9.23785L14.4759 2.02666C15.8623 0.990274 18.2716 1.09575 19.8571 2.26274L43.0377 19.3271C44.6233 20.4941 44.784 22.2806 43.396 23.317Z" fill="#8D2A00"/>
<path d="M42.1856 22.924L33.8777 29.1322C32.6103 30.0799 30.4086 29.9828 28.9587 28.9162L6.72738 12.5517C5.27911 11.4852 5.13177 9.85274 6.39921 8.90509L14.7071 2.6968C15.9745 1.74915 18.1762 1.84626 19.6261 2.91279L41.8574 19.279C43.3057 20.3455 43.453 21.978 42.1856 22.9256V22.924Z" fill="#D5DADD"/>
<path d="M13.8581 4.85265L9.29903 8.25984C9.18016 8.34858 8.97422 8.3402 8.8386 8.23975L8.69628 8.13427C8.56067 8.03381 8.54727 7.88145 8.66615 7.79271L13.2252 4.38552C13.3441 4.29678 13.5501 4.30516 13.6857 4.40561L13.828 4.51109C13.9636 4.61155 13.977 4.76391 13.8581 4.85265Z" fill="#8D2A00"/>
<path d="M37.886 25.1085L36.7893 25.9272C36.729 25.9724 36.6219 25.9674 36.5532 25.9172L36.1715 25.6359C36.1012 25.584 36.0945 25.5069 36.1564 25.4601L37.2531 24.6413C37.3134 24.5961 37.4205 24.6012 37.4892 24.6514L37.8709 24.9327C37.9412 24.9846 37.9479 25.0616 37.886 25.1085Z" fill="#8D2A00"/>
<path d="M24.7043 19.9762C24.6146 20.0503 24.4827 20.0954 24.3303 20.0936C24.0262 20.0898 23.7554 19.8998 23.7263 19.6694C23.317 16.3518 22.9741 13.0286 22.7015 9.6966C22.6835 9.47039 22.9161 9.29013 23.2202 9.29393C23.5242 9.29772 23.7847 9.48393 23.8029 9.71078C24.0761 13.0426 24.419 16.3658 24.8277 19.6836C24.8422 19.7985 24.7935 19.9024 24.7037 19.9764L24.7043 19.9762Z" fill="#00144A"/>
<path d="M22.1671 11.2781C21.3861 11.3194 20.6283 11.6282 20.0156 12.0824C18.099 13.504 19.5841 15.3858 20.9724 16.4555C21.1062 16.5496 21.173 16.5967 21.3067 16.6908C21.9211 17.0921 22.4453 17.8043 22.5861 18.4886C22.6176 18.6416 22.7582 18.7954 22.9614 18.8627C22.8744 18.1418 22.7893 17.4202 22.7062 16.6987C22.5174 16.5012 22.2927 16.3037 22.0253 16.1154C21.8924 16.0217 21.8255 15.9747 21.6925 15.8804C20.6051 15.1407 19.4467 13.7419 20.8547 12.6769C21.2773 12.3573 21.7425 12.157 22.2407 12.1079C22.2102 11.7753 22.1957 11.6091 22.1669 11.2774L22.1671 11.2781Z" fill="#00144A"/>
<path d="M24.6576 11.8269C25.0611 12.0143 25.4685 12.2497 25.8775 12.5415C26.0081 12.6345 26.0726 12.6809 26.2032 12.7739C26.8897 13.2768 27.7958 13.5494 28.6187 13.5939C28.8305 13.6057 29.0381 13.7046 29.1325 13.8589C29.2267 14.0126 29.1978 14.1861 29.0572 14.3015C28.5034 14.7532 27.9491 15.2058 27.3953 15.6575C27.8876 16.164 27.8894 16.8662 27.3587 17.2867C26.768 17.755 25.8996 17.7488 25.2246 17.4292C25.1732 16.9571 25.1479 16.7212 25.0997 16.2501C25.9195 15.5858 26.7386 14.9218 27.5582 14.2568C26.8192 14.084 26.1065 13.7876 25.4846 13.3493C25.3541 13.2563 25.2887 13.2095 25.1575 13.1167C25.0207 13.0193 24.8863 12.9297 24.7528 12.8474C24.7137 12.4388 24.6943 12.2348 24.6571 11.8277L24.6576 11.8269Z" fill="#00144A"/>
</g>
<defs>
<clipPath id="clip0_4038_84772">
<rect width="45" height="31.2674" fill="white" transform="translate(0 0.866211)"/>
</clipPath>
</defs>
</svg>
