<svg width="45" height="45" viewBox="0 0 45 45" fill="none" xmlns="http://www.w3.org/2000/svg">
<path d="M22.386 0C21.5469 0 20.7421 0.333359 20.1488 0.926736C19.5554 1.52011 19.2221 2.3249 19.2221 3.16406V7.55157H25.5498V3.16758C25.5503 2.75178 25.4688 2.33995 25.31 1.95566C25.1512 1.57138 24.9182 1.22216 24.6244 0.927981C24.3306 0.633798 23.9816 0.400413 23.5975 0.241184C23.2135 0.0819555 22.8017 -2.5667e-07 22.386 0Z" fill="#CC7400"/>
<path d="M38.8942 20.918V35.2126H5.65271V20.918C5.65271 16.5096 7.40381 12.2818 10.5208 9.16458C13.6378 6.04737 17.8654 4.29614 22.2735 4.29614C26.6816 4.29614 30.9091 6.04737 34.0261 9.16458C37.1431 12.2818 38.8942 16.5096 38.8942 20.918Z" fill="#F58B00"/>
<path d="M22.386 45.0001C24.6343 45.0001 26.4568 43.1774 26.4568 40.929C26.4568 38.6806 24.6343 36.8579 22.386 36.8579C20.1378 36.8579 18.3152 38.6806 18.3152 40.929C18.3152 43.1774 20.1378 45.0001 22.386 45.0001Z" fill="#F58B00"/>
<path d="M42.6241 36.8577C41.6257 36.6503 38.8943 35.2124 38.8943 35.2124H5.65275C5.65275 35.2124 2.92128 36.6503 1.92291 36.8577C0.924537 37.0651 0 37.7191 0 38.7808C0 39.2908 0.202588 39.7799 0.563205 40.1406C0.923822 40.5012 1.41292 40.7038 1.92291 40.7038H42.6241C43.1341 40.7038 43.6232 40.5012 43.9838 40.1406C44.3444 39.7799 44.547 39.2908 44.547 38.7808C44.5576 37.7191 43.6611 37.0792 42.6241 36.8577Z" fill="#CC7400"/>
<path opacity="0.5" d="M20.6426 4.2749C16.5319 4.68497 12.7193 6.61532 9.94438 9.69145C7.16948 12.7676 5.63014 16.7702 5.625 20.9227V35.3249H36.675V21.0042C36.6744 16.6725 35.0038 12.5097 32.0142 9.39011C29.0246 6.27055 24.9486 4.4371 20.6426 4.2749Z" fill="#CC7400"/>
</svg>
