<svg width="45" height="45" viewBox="0 0 45 45" fill="none" xmlns="http://www.w3.org/2000/svg">
<path d="M7.36207 16.7739L7.37769 16.7938C7.4445 16.9179 7.58766 17.1461 7.83494 17.383L8.24707 17.914C8.41019 18.2723 8.5655 18.6263 8.69304 18.9213C8.88653 19.3681 8.97763 20.3477 9.27784 21.1381C9.28217 21.1503 9.28825 21.1642 9.29432 21.1789C9.31601 21.2266 9.34638 21.2874 9.38369 21.3585C9.39497 21.3793 9.40625 21.401 9.41839 21.4236C9.75417 22.0492 10.5003 23.3515 10.3711 24.528L10.3034 24.7987L9.34898 28.6329C8.9837 28.4941 8.57851 28.6849 8.45097 29.0528L2.94922 44.9976H11.5276C12.8291 40.4346 14.4594 34.5051 15.0702 32.2761C15.085 32.2232 15.0989 32.1729 15.1119 32.1243C15.1128 32.1208 15.1136 32.1173 15.1145 32.1139C15.2481 31.6271 15.0538 31.1091 14.6321 30.8332C14.5835 30.8011 14.5323 30.769 14.4794 30.7369C14.239 30.5929 14.1028 30.3248 14.1262 30.0454C14.1262 30.0367 14.128 30.0281 14.1288 30.0194C14.2026 29.1665 15.4008 29.0311 15.6568 29.8476C15.6594 29.8554 15.6611 29.8623 15.6637 29.8701C15.6715 29.8944 15.6785 29.9179 15.6854 29.9413C15.6993 29.9881 15.714 30.035 15.7271 30.081C15.8702 30.5729 15.9657 31.0102 16.0255 31.333C15.8789 31.4067 15.8051 31.5751 15.8511 31.733L16.0012 32.2492C16.173 32.8418 16.1635 33.4596 16.121 34.0748C16.121 34.0843 16.121 34.093 16.121 34.1017C16.1453 34.3021 16.3335 34.8765 16.6311 35.6973C16.6372 35.7129 16.6424 35.7285 16.6485 35.745C16.6867 35.8491 16.7266 35.9576 16.7674 36.0695C16.7734 36.0851 16.7795 36.1016 16.7847 36.1172C16.8107 36.1875 16.8376 36.2604 16.8654 36.3332C16.8715 36.3489 16.8776 36.3653 16.8836 36.381C16.9964 36.682 17.1188 37.0057 17.2498 37.3467C17.2558 37.3623 17.2619 37.3788 17.268 37.3952C17.301 37.482 17.3348 37.5705 17.3695 37.6599C18.1955 39.8047 19.3035 42.5673 20.29 44.9984H28.7799C26.6742 40.55 23.8725 34.7055 22.5676 31.9239C22.5546 31.8952 22.5416 31.8675 22.5285 31.8397C22.5207 31.8223 22.5121 31.8041 22.5042 31.7876C22.4635 31.7009 22.4244 31.6176 22.3871 31.5369C22.3802 31.5221 22.3732 31.5083 22.3672 31.4935C22.3559 31.4683 22.3437 31.4441 22.3325 31.4198C22.3246 31.4024 22.3168 31.3859 22.309 31.3694C22.2986 31.3469 22.2882 31.3243 22.2778 31.3026C22.2717 31.2887 22.2656 31.2757 22.2596 31.2627C22.2483 31.2384 22.2379 31.215 22.2266 31.1924C22.2205 31.1794 22.2145 31.1664 22.2092 31.1543C22.1997 31.1326 22.1902 31.1126 22.1806 31.0918C22.1745 31.0788 22.1685 31.0658 22.1624 31.0527C22.152 31.0311 22.1424 31.0094 22.1329 30.9885C22.1286 30.979 22.1233 30.9686 22.119 30.959C22.1051 30.9287 22.0921 30.9 22.0791 30.8714C22.0791 30.8714 22.0791 30.8714 22.0791 30.8705C22.0661 30.8428 22.0539 30.815 22.0418 30.789C22.0383 30.7812 22.0348 30.7742 22.0314 30.7664C22.0227 30.7473 22.0149 30.7291 22.0062 30.7118C22.0027 30.7048 22.0001 30.6979 21.9967 30.6901C21.9889 30.6736 21.9819 30.6571 21.975 30.6415C21.9715 30.6345 21.9689 30.6276 21.9654 30.6207C21.9585 30.605 21.9516 30.5903 21.9455 30.5755C21.9429 30.5703 21.9403 30.5643 21.9385 30.5591C21.9316 30.5443 21.9255 30.5296 21.9195 30.5157C21.9177 30.5113 21.916 30.5079 21.9142 30.5035C21.9073 30.4879 21.9012 30.474 21.8952 30.4601C21.8952 30.4584 21.8934 30.4567 21.8934 30.4558C21.8865 30.4402 21.8813 30.4263 21.8752 30.4133C21.7546 30.4749 21.6071 30.4272 21.5455 30.3066L20.7681 28.7943C20.7108 28.6832 20.5703 28.645 20.4644 28.7136L20.4609 28.7162L18.9443 24.8881C18.6076 23.519 19.4892 21.7741 19.5855 21.3611C19.7798 20.5317 19.7425 19.5477 19.8761 19.0757C19.9646 18.7634 20.0722 18.3886 20.1868 18.0085L20.9147 16.7409C21.011 16.5735 20.9789 16.3626 20.8575 16.2368C20.8566 16.2359 20.8557 16.2351 20.8548 16.2333C20.8453 16.2238 20.8349 16.2142 20.8245 16.2056C20.8219 16.2038 20.8201 16.2021 20.8175 16.2004C20.808 16.1926 20.7967 16.1856 20.7863 16.1795C20.7828 16.1778 20.7802 16.1761 20.7776 16.1735C20.7637 16.1657 20.7499 16.1587 20.7351 16.1526C20.5529 16.0815 20.3091 16.0442 20.0098 16.1301C19.9803 16.1388 19.949 16.1483 19.9187 16.1596C19.8701 16.1769 19.8197 16.1986 19.7677 16.2229C19.6558 16.2758 19.5378 16.3453 19.4146 16.4364C19.4128 16.4372 19.412 16.439 19.4102 16.4398C19.379 16.4633 19.3486 16.4867 19.3191 16.5118C19.3087 16.5214 19.2983 16.5309 19.287 16.5405C19.2671 16.5587 19.2462 16.5761 19.2271 16.5943C19.215 16.6056 19.2037 16.6177 19.1924 16.629C19.1751 16.6463 19.1569 16.6646 19.1395 16.6828C19.1274 16.6958 19.1161 16.7088 19.1048 16.7218C19.0883 16.74 19.0727 16.7583 19.0562 16.7765C19.0449 16.7904 19.0337 16.8042 19.0232 16.8181C19.0076 16.8372 18.9929 16.8563 18.9781 16.8754C18.9669 16.8901 18.9564 16.9049 18.946 16.9196C18.9313 16.9396 18.9174 16.9596 18.9035 16.9795C18.8931 16.9943 18.8836 17.0099 18.8731 17.0246C18.8593 17.0455 18.8454 17.0663 18.8324 17.0871C18.8228 17.1027 18.8133 17.1183 18.8037 17.1331C18.7907 17.1548 18.7777 17.1756 18.7647 17.1982C18.756 17.2138 18.7473 17.2294 18.7387 17.245C18.7265 17.2676 18.7135 17.2893 18.7022 17.3118C18.6935 17.3274 18.6857 17.3431 18.6779 17.3587C18.6658 17.3812 18.6545 17.4047 18.6432 17.4272C18.6354 17.4428 18.6285 17.4585 18.6207 17.4741C18.6094 17.4975 18.5981 17.5209 18.5877 17.5443C18.5807 17.56 18.5738 17.5756 18.5669 17.5912C18.5565 17.6146 18.546 17.6389 18.5356 17.6623C18.5287 17.678 18.5226 17.6936 18.5165 17.7083C18.5061 17.7326 18.4966 17.7561 18.487 17.7803C18.481 17.7951 19.0979 13.9046 18.9703 13.2981C18.861 12.7766 18.4766 12.6578 18.2458 12.7706C18.2276 12.7792 18.2103 12.7896 18.1938 12.8018C18.1938 12.8018 18.192 12.8027 18.1912 12.8035C18.1747 12.8157 18.1591 12.8287 18.1461 12.8443C18.14 12.8512 18.133 12.8608 18.1252 12.8729C18.1252 12.8747 18.1235 12.8755 18.1226 12.8764C18.1157 12.8877 18.1079 12.9016 18.1001 12.9172C18.0983 12.9198 18.0975 12.9224 18.0957 12.925C18.0879 12.9406 18.0792 12.9588 18.0706 12.9779C18.0688 12.9814 18.0671 12.9857 18.0654 12.9892C18.0567 13.0092 18.0471 13.0308 18.0376 13.0543C18.0359 13.0586 18.0341 13.063 18.0324 13.0673C18.0228 13.0916 18.0124 13.1176 18.0012 13.1454C17.9994 13.1488 17.9986 13.1523 17.9968 13.1558C17.9864 13.1844 17.9751 13.2139 17.963 13.246C17.963 13.2478 17.9612 13.2495 17.9612 13.2512C17.9491 13.2833 17.937 13.318 17.9248 13.3536C17.9231 13.3588 17.9213 13.364 17.9196 13.3692C17.9075 13.4039 17.8953 13.4395 17.8823 13.4768C17.8797 13.4838 17.8771 13.4907 17.8753 13.4985C17.8632 13.5358 17.8502 13.574 17.8372 13.613C17.8346 13.6208 17.832 13.6287 17.8294 13.6373C17.8163 13.6772 17.8025 13.7189 17.7895 13.7605C17.7868 13.7683 17.7842 13.7753 17.7825 13.7831C17.7686 13.8265 17.7539 13.8716 17.74 13.9167C17.7383 13.9219 17.7365 13.928 17.7348 13.9332C17.72 13.9792 17.7053 14.026 17.6905 14.0746C17.6897 14.0781 17.6879 14.0816 17.6871 14.085C17.6715 14.1345 17.6558 14.1848 17.6402 14.236C17.6376 14.243 17.6359 14.2508 17.6333 14.2577C17.6185 14.3072 17.6029 14.3566 17.5882 14.4069C17.5847 14.4173 17.5821 14.4278 17.5786 14.4382C17.5639 14.4885 17.5482 14.5388 17.5326 14.59C17.53 14.5996 17.5266 14.6091 17.524 14.6186C17.5083 14.6716 17.4927 14.7245 17.4762 14.7792C17.4745 14.7861 17.4719 14.7939 17.4702 14.8008C17.4537 14.8572 17.4372 14.9136 17.4198 14.9709C17.419 14.9744 17.4181 14.9778 17.4172 14.9813C17.3999 15.0395 17.3834 15.0985 17.366 15.1575C17.366 15.1601 17.3643 15.1627 17.3634 15.1661C17.3461 15.2251 17.3296 15.2841 17.3122 15.3431C17.3105 15.3501 17.3088 15.3561 17.3062 15.3631C17.2897 15.4212 17.2723 15.4793 17.2558 15.5383C17.2541 15.5453 17.2524 15.5522 17.2498 15.5583C17.2333 15.6173 17.2159 15.6763 17.1995 15.7353C17.1977 15.7405 17.196 15.7466 17.1951 15.7518C17.1778 15.8125 17.1604 15.8733 17.1439 15.934C17.1439 15.9357 17.1431 15.9375 17.1422 15.9392C17.0476 16.2732 16.9565 16.6012 16.8732 16.9032C16.8359 17.0385 16.6494 17.0472 16.5982 16.917L16.5964 16.9127C16.639 16.5977 16.6953 16.2325 16.7682 15.8186C16.9062 15.0412 17.1049 14.0902 17.3929 12.9649C17.517 12.4799 17.6298 11.9897 17.707 11.4925C17.714 11.45 17.72 11.4066 17.727 11.3624C17.7313 11.3337 17.7357 11.3042 17.74 11.2747C17.7426 11.26 17.7443 11.2444 17.7461 11.2296C17.7513 11.1932 17.7556 11.1559 17.7608 11.1194C17.7608 11.1133 17.7626 11.1081 17.7626 11.1021C17.7999 10.7993 17.8163 10.4843 17.7591 10.2015C17.7174 9.99669 17.6133 9.798 17.445 9.69995C17.3322 9.63401 17.2012 9.61839 17.0736 9.60451H17.0719C17.0303 9.60017 16.9869 9.59497 16.9461 9.60711C16.9348 9.61058 16.9244 9.61406 16.9149 9.61926C16.914 9.61926 16.9131 9.621 16.9114 9.621C16.8828 9.63575 16.8567 9.65831 16.835 9.6852C16.8186 9.70429 16.8047 9.72598 16.7908 9.74767C16.7908 9.74767 16.54 10.1398 16.4628 10.4852C16.3717 10.7368 16.462 10.3958 16.5496 9.8917C16.5548 9.86047 16.56 9.8275 16.5652 9.79539C16.5669 9.78498 16.5687 9.77457 16.5695 9.76416C16.573 9.7416 16.5765 9.71817 16.5791 9.69475C16.5808 9.68173 16.5826 9.66872 16.5843 9.6557C16.5878 9.62533 16.5912 9.59497 16.5947 9.56373C16.5964 9.54464 16.5982 9.52469 16.5999 9.50473C16.6008 9.49172 16.6016 9.47783 16.6025 9.46482C16.6042 9.44226 16.6051 9.41883 16.6068 9.39628C16.6068 9.38933 16.6068 9.38239 16.6068 9.37545C16.6095 9.29736 16.6112 9.21928 16.6051 9.14206V9.12817C16.5912 8.92601 16.5487 8.73253 16.4576 8.57288C16.3761 8.42972 16.2572 8.31345 16.0845 8.24404C16.0134 8.21541 15.937 8.19892 15.8624 8.21107C15.6307 8.25011 15.452 8.52342 15.3167 8.81495C15.2767 8.88436 15.2386 8.96592 15.2134 9.05789C15.1657 9.17936 15.1258 9.29303 15.0928 9.38326C15.0919 9.38586 15.0902 9.38933 15.0893 9.39281C15.0546 9.48651 15.0208 9.58195 14.9887 9.67653C14.9609 9.75635 14.9349 9.83617 14.9089 9.916C14.9089 9.916 14.9089 9.91686 14.9089 9.91773C14.9141 9.88997 14.9193 9.86307 14.9236 9.83531C14.9253 9.82316 14.928 9.81101 14.9297 9.79973C14.934 9.77544 14.9375 9.75114 14.9401 9.72772C14.9418 9.71384 14.9436 9.70082 14.9453 9.68694C14.9479 9.66438 14.9505 9.64269 14.9522 9.621C14.9531 9.60711 14.954 9.5941 14.9548 9.58108C14.9566 9.56026 14.9575 9.54031 14.9583 9.52035C14.9583 9.50733 14.9583 9.49519 14.9583 9.48217C14.9583 9.45007 14.9583 9.41883 14.9548 9.38933C14.954 9.37458 14.9531 9.35897 14.9514 9.34508C14.9496 9.3312 14.947 9.31732 14.9453 9.30431C14.9427 9.29042 14.9401 9.27654 14.9375 9.26266C14.9349 9.25051 14.9314 9.23836 14.928 9.22622C14.9236 9.21233 14.9193 9.19932 14.9149 9.18717C14.9106 9.17676 14.9071 9.16635 14.9028 9.15594C14.8959 9.14119 14.8889 9.12731 14.8811 9.11429C14.8768 9.10735 14.8733 9.09954 14.869 9.09347C14.8568 9.07438 14.8421 9.05703 14.8264 9.04054C14.8212 9.03533 14.8152 9.03013 14.8091 9.02492C14.7978 9.01364 14.7857 9.00323 14.7726 8.99369C14.7657 8.98848 14.757 8.98328 14.7501 8.97894C14.7371 8.97026 14.7232 8.96245 14.7084 8.95551C14.6998 8.95117 14.6911 8.94683 14.6824 8.94336C14.6659 8.93642 14.6486 8.93035 14.6304 8.92514C14.6217 8.92254 14.6139 8.91994 14.6052 8.91733C14.5774 8.91039 14.5488 8.90432 14.5176 8.90085C14.5045 8.89911 14.4915 8.89911 14.4785 8.89825C13.9059 8.85833 13.577 9.52642 13.3523 10.1494C13.3115 10.126 13.2699 10.106 13.2274 10.0895C13.2265 10.0895 13.2248 10.0895 13.2239 10.0887C13.1987 10.0791 13.1736 10.0722 13.1475 10.0661C13.1432 10.0652 13.1397 10.0644 13.1354 10.0635C13.1111 10.0583 13.0868 10.054 13.0616 10.0513C13.0582 10.0513 13.0547 10.0505 13.0512 10.0505C12.994 10.0453 12.9341 10.0479 12.8734 10.06C12.8517 10.0644 12.83 10.0687 12.8074 10.0756C12.3736 10.2015 12.3623 10.5815 12.5532 11.1446C12.4907 11.0144 12.4257 10.886 12.3597 10.7585C12.3597 10.7585 12.3597 10.7585 12.3597 10.7576C12.3424 10.7238 12.325 10.6908 12.3077 10.657C12.3077 10.6561 12.3068 10.6544 12.3059 10.6535C12.1289 10.3221 11.7897 9.60972 11.3871 9.60625C11.3116 9.60625 11.2379 9.63401 11.171 9.67392C10.5958 10.014 10.7528 10.8288 10.9264 11.3797C11.1702 12.1554 10.9585 11.6756 10.7112 11.3311C10.6548 11.2522 10.5862 11.1706 10.496 11.1602C10.4544 11.155 10.4118 11.1663 10.3711 11.1776C10.2461 11.2114 10.1177 11.2478 10.0145 11.3311C9.86089 11.4552 9.78367 11.6686 9.76892 11.8777C9.73942 12.2951 9.87217 12.7532 9.98844 13.1471C10.1299 13.6269 10.3051 14.0937 10.4908 14.5544C10.8752 15.5062 11.1719 16.3314 11.4001 17.029C11.4175 17.0836 11.4348 17.1357 11.4513 17.1886L11.4496 17.1947C11.401 17.4038 11.1138 17.4298 11.0279 17.2329C10.4761 15.967 9.89213 14.6837 9.73248 14.5527C9.55201 14.4043 9.19541 14.4694 9.04357 14.8321C9.03316 14.8572 9.02361 14.8841 9.01581 14.911C9.0132 14.9197 9.01147 14.9284 9.00886 14.9371C9.00279 14.9588 8.99759 14.9805 8.99325 15.003C8.99151 15.0126 8.98978 15.0212 8.98804 15.0308C8.98284 15.0629 8.9785 15.0958 8.97589 15.1306C8.97589 15.1401 8.97503 15.1505 8.97589 15.1627C8.97589 15.1757 8.97676 15.1896 8.9785 15.2052C8.98023 15.2286 8.9837 15.2546 8.98804 15.2841C8.99151 15.3076 8.99585 15.3318 9.00106 15.3579C9.01754 15.4429 9.04184 15.5436 9.07307 15.6572C9.07741 15.6728 9.08175 15.6885 9.08609 15.7041C9.11819 15.8177 9.1555 15.9435 9.19801 16.0789C9.20495 16.1006 9.21189 16.1223 9.21884 16.1448C9.25181 16.249 9.28738 16.3583 9.32556 16.4711C9.33423 16.4962 9.34291 16.5223 9.35159 16.5483C9.37154 16.6073 9.39236 16.668 9.41319 16.7288C9.23445 16.5292 9.03403 16.3574 8.80844 16.2394C8.18026 15.9097 7.73776 16.0077 7.46445 16.1665C7.4445 16.1778 7.42628 16.1917 7.40979 16.2064C7.39417 16.2203 7.37942 16.2342 7.36641 16.2498C7.34819 16.2715 7.33257 16.2958 7.32042 16.321C7.31435 16.334 7.30828 16.347 7.30307 16.36C7.2675 16.4537 7.26489 16.5604 7.29873 16.6585C7.31348 16.7001 7.33431 16.74 7.36207 16.7765V16.7739ZM15.4754 16.891C15.4798 16.9023 15.485 16.9127 15.4893 16.924C15.4902 16.9266 15.4919 16.9301 15.4928 16.9327C15.4867 16.9188 15.4806 16.9049 15.4746 16.891H15.4754Z" fill="#101619"/>
<path d="M15.0502 24.2812C15.0502 24.2812 23.9941 27.1112 23.8384 27.8684C23.5187 29.4206 14.7185 28.1512 15.0502 24.2812Z" fill="#00144A"/>
<path d="M30.9187 25.2891C30.9187 25.2891 28.6415 20.0659 28.6397 20.0622C28.2058 19.0664 28.7466 17.6515 29.0782 16.6787C29.4854 15.4811 29.5112 14.2366 29.8741 13.0703C29.9911 12.6954 30.1339 12.244 30.285 11.7862L31.2485 10.2616C31.4116 10.0037 31.2974 9.65636 31.0099 9.55503C30.6249 9.41869 30.0279 9.38553 29.2615 9.89679C27.8548 10.8364 27.5066 13.3209 27.5066 13.3209C27.5066 13.3209 27.3012 13.5484 26.7218 12.8686C26.1479 12.1943 25.8752 11.2565 25.526 10.4587C25.0664 9.40764 24.6841 8.33167 24.2483 7.27045C23.7408 6.03696 23.3778 5.47503 22.7062 4.32445C22.2889 3.6096 21.6146 1.95513 20.5166 2.24346C19.12 2.6101 21.026 4.78874 22.0706 7.53852C22.6307 9.01244 23.6192 11.1091 23.6192 11.1091C23.4008 11.1892 22.8785 9.75861 22.8232 9.62688C22.3497 8.50209 21.9048 7.36626 21.4285 6.24239C20.9541 5.12129 20.4696 3.99006 19.8515 2.93897C19.6165 2.54009 19.1679 1.68337 18.6345 1.67969C18.5341 1.67969 18.4374 1.71377 18.349 1.76075C17.5871 2.16977 17.7953 3.149 18.0247 3.81227C18.3481 4.74544 18.9597 5.54689 19.2895 6.47453C19.5032 7.07516 19.7391 7.67025 19.9749 8.2635C20.2466 8.94796 20.5018 9.64715 20.8206 10.3113C21.096 10.8862 21.4893 12.1897 21.4267 12.1086C21.3641 12.0275 21.3806 11.9354 20.8031 10.3961C20.2577 8.94243 19.6718 7.49983 19.0251 6.08855C18.6585 5.28895 18.29 4.44605 17.741 3.75239C17.6664 3.6575 17.5752 3.55986 17.4554 3.54696C17.4001 3.54143 17.3449 3.55433 17.2905 3.56815C17.1256 3.6096 16.9552 3.6529 16.8179 3.75331C16.6144 3.90254 16.5121 4.15864 16.4928 4.41012C16.4541 4.91218 16.6291 5.46306 16.7829 5.93747C16.9699 6.51415 17.2021 7.07608 17.448 7.63064C18.7856 10.6384 19.3199 12.6042 19.5134 13.4618C19.529 13.5309 19.4314 13.5641 19.4019 13.4996C18.7534 12.0911 16.7995 7.89318 16.4449 7.6288C16.1501 7.40863 15.5052 7.57813 15.4426 8.32522C15.3799 9.0714 17.8303 14.5885 17.8303 14.5885C17.8303 14.5885 19.0657 19.5961 21.7298 21.9341C24.3939 24.2721 24.8941 28.5124 24.8941 28.5124L30.9178 25.2891H30.9187Z" fill="#A93E00"/>
<path d="M21.4257 12.1078C21.3631 12.0277 21.3797 11.9347 20.8021 10.3953C20.6657 10.0315 20.5266 9.66759 20.3848 9.30464C20.5211 9.64456 20.663 9.9808 20.8196 10.3097C21.095 10.8845 21.4884 12.188 21.4257 12.1069V12.1078ZM22.8223 9.62613C22.3488 8.50135 21.9029 7.36551 21.4276 6.24164C21.2746 5.88146 21.1208 5.51942 20.9624 5.16016C21.3308 5.87132 21.7426 6.67645 22.0696 7.53777C22.6297 9.01169 23.6182 11.1083 23.6182 11.1083C23.3999 11.1885 22.8775 9.75694 22.8223 9.62613Z" fill="#340800"/>
<path d="M21.0391 11.3807C21.0898 11.4138 21.1423 11.4433 21.1948 11.4719C21.1101 11.2287 20.9866 10.886 20.8024 10.395C20.714 10.1582 20.6218 9.92333 20.5316 9.6875C20.4772 9.9961 20.4606 10.3176 20.5316 10.6216C20.6034 10.932 20.7711 11.2038 21.0401 11.3797L21.0391 11.3807Z" fill="#340800"/>
<path d="M31.0077 9.55238C30.6227 9.41605 30.0257 9.38288 29.2593 9.89415C27.8904 10.808 27.5238 13.1847 27.5053 13.3118C27.4915 13.3201 27.4786 13.3302 27.4666 13.3413C27.3847 13.3744 27.1608 13.3837 26.7196 12.865C26.1456 12.1907 25.873 11.2529 25.5238 10.4552C25.0642 9.40407 24.6819 8.32811 24.2461 7.26689C23.7385 6.0334 23.3756 5.47147 22.704 4.32089C22.6875 4.29233 22.67 4.26101 22.6525 4.22969C22.6478 4.2214 22.6432 4.21219 22.6377 4.2039C22.623 4.17718 22.6073 4.14862 22.5917 4.12007C22.588 4.11362 22.5852 4.10809 22.5815 4.10164C22.5659 4.07216 22.5493 4.04269 22.5336 4.01136C22.4443 3.84371 22.3448 3.6567 22.2342 3.46786C22.2315 3.46417 22.2296 3.45957 22.2269 3.45588C22.2038 3.41719 22.1808 3.3785 22.1568 3.33889C22.1541 3.33428 22.1522 3.3306 22.1495 3.32599C21.7663 2.69865 21.2624 2.10632 20.6 2.22147C20.7308 2.46743 19.5849 12.2893 19.8363 12.5684C18.7981 12.5085 17.8281 14.5849 17.8281 14.5849C17.8281 14.5849 19.0635 19.5925 21.7276 21.9305C24.3917 24.2686 24.8919 28.5088 24.8919 28.5088L27.2308 27.2569C26.9075 26.9732 26.6072 26.6637 26.3363 26.3348C25.7532 25.6264 25.2751 24.8084 25.0485 23.9139C24.9462 23.5095 24.8947 23.0876 24.9168 22.6694C24.9361 22.3018 25.0291 21.9416 25.1701 21.6008C25.4686 20.8813 25.8859 20.218 26.235 19.5235C26.2368 19.5198 26.2387 19.5152 26.2414 19.5115C26.3759 19.2434 26.0683 18.9661 25.8177 19.1319C25.7274 19.1918 25.6335 19.2452 25.5349 19.2904C24.9573 19.5585 24.2544 19.4774 23.7689 19.0527C23.6418 18.9422 23.5543 18.8114 23.4944 18.6686C23.6225 18.6363 23.745 18.6004 23.8362 18.5562C24.0029 18.477 24.1595 18.3664 24.3143 18.266C24.5041 18.1426 24.692 18.0154 24.8799 17.8892C25.0559 17.7723 25.2318 17.6562 25.4124 17.5456C25.3912 17.4498 25.3718 17.3531 25.3589 17.2545C25.3497 17.1882 25.3949 17.1293 25.4529 17.097C25.452 16.8971 25.4741 16.6972 25.5128 16.5084C25.6288 15.9455 25.9024 15.4361 26.2543 14.9865C26.4874 14.689 26.6974 14.0681 26.7711 13.5651C26.9729 13.6397 26.6422 14.1786 26.9655 14.2735C27.1212 14.3196 27.2833 14.2238 27.3377 14.0718C27.5514 13.4721 28.0249 12.2404 28.0894 12.0184C28.7895 9.59015 30.8659 9.7053 31.2086 9.69148C31.157 9.62884 31.0888 9.57818 31.005 9.5487L31.0077 9.55238Z" fill="#340800"/>
<path d="M15.7842 25.1288L17.2912 19.6292C17.4976 17.9351 16.0412 16.0255 15.8431 15.552C15.4452 14.6013 15.3254 13.4231 15.0693 12.886C14.8998 12.5314 14.6935 12.1048 14.4788 11.6746L13.3071 10.303C13.109 10.0708 13.1726 9.71156 13.4425 9.56969C13.8045 9.37993 14.3904 9.26109 15.2213 9.65813C16.7477 10.3868 17.4478 12.7957 17.4478 12.7957C17.4478 12.7957 17.6837 12.992 18.1599 12.2356C18.6316 11.4867 18.767 10.5185 18.9982 9.67932C19.3031 8.57296 19.527 7.4537 19.8061 6.34181C20.1313 5.04844 20.4113 4.44045 20.9106 3.20512C21.2211 2.43776 21.6522 0.704065 22.7798 0.832112C24.2141 0.995164 22.6397 3.42345 21.9995 6.29483C21.6559 7.83415 20.9779 10.0506 20.9779 10.0506C21.2054 10.0985 21.5177 8.60796 21.5536 8.46978C21.8613 7.2888 22.1395 6.10045 22.449 4.9204C22.7586 3.74034 23.0755 2.55383 23.537 1.42536C23.712 0.997006 24.0344 0.0850183 24.5614 0.00487391C24.6599 -0.00986529 24.7613 0.0104011 24.8561 0.0444855C25.6686 0.340191 25.6023 1.33969 25.4706 2.02875C25.2845 2.99877 24.7935 3.87944 24.6 4.84486C24.4748 5.46943 24.3264 6.09216 24.1781 6.71397C24.0068 7.42975 23.8548 8.15934 23.6346 8.86221C23.4449 9.47021 23.2413 10.817 23.2919 10.7276C23.3426 10.6392 23.3131 10.5499 23.6641 8.9442C23.9957 7.4279 24.3688 5.91621 24.8073 4.42663C25.056 3.58282 25.3002 2.6957 25.7433 1.9311C25.8041 1.82701 25.8796 1.71646 25.9966 1.68699C26.0509 1.67317 26.1071 1.67869 26.1633 1.68422C26.3328 1.70172 26.5069 1.72015 26.6571 1.79937C26.88 1.91729 27.0173 2.1568 27.0725 2.40276C27.1831 2.89376 27.0882 3.46398 27.0035 3.9559C26.9012 4.55376 26.752 5.14333 26.5871 5.72645C25.6935 8.89445 25.4466 10.9165 25.3775 11.7935C25.372 11.8644 25.4733 11.8828 25.4936 11.8147C25.9339 10.3278 27.2669 5.89411 27.5801 5.5809C27.8399 5.32112 28.5032 5.39666 28.6718 6.12625C28.8403 6.85584 27.2052 12.6668 27.2052 12.6668C27.2052 12.6668 26.6995 17.7997 24.3974 20.4951C22.0953 23.1906 22.2077 27.4585 22.2077 27.4585L15.7851 25.1306L15.7842 25.1288Z" fill="#FFAB92"/>
<path d="M15.7842 25.1274L17.4488 26.0311C17.4202 24.5388 18.451 23.0003 19.0157 21.6204C19.024 21.6001 19.0332 21.5799 19.0424 21.5578C19.3713 20.8438 19.4533 20.0295 19.2672 19.2658C18.9881 18.1254 17.9665 17.2401 17.5206 16.1457C16.9025 14.6294 16.4843 13.2623 15.4571 11.9552C15.3125 11.7709 13.5908 9.49095 13.4425 9.56833C13.1726 9.7102 13.109 10.0704 13.3071 10.3016C13.7151 10.7788 14.1196 11.2311 14.4641 11.7589C15.2176 12.9123 15.3217 14.3033 15.844 15.5506C16.0421 16.0241 17.4976 17.9338 17.2922 19.6278L15.7851 25.1274H15.7842Z" fill="#FF7F4C"/>
<path d="M24.5982 4.84268C24.7917 3.87726 25.2827 2.99659 25.4688 2.02657C25.5637 1.53189 25.6226 0.876912 25.3481 0.4375C25.2698 1.17446 25.08 1.89852 24.8516 2.6014C24.5292 3.59537 22.8848 10.883 23.0783 10.9115C23.2726 10.941 23.3804 10.696 23.4191 10.5035C23.6734 9.24233 23.9645 7.98029 24.1763 6.71087C24.3247 6.08998 24.473 5.46725 24.5982 4.84176V4.84268Z" fill="#FF7F4C"/>
<path d="M26.0844 6.00563C25.8587 6.75733 25.7315 7.52929 25.5989 8.30126C25.4017 9.44907 25.2341 10.6043 25.1392 11.7659C25.1272 11.9078 25.3207 11.963 25.3861 11.8368C25.387 11.835 25.3879 11.8331 25.3888 11.8313C25.3806 11.8212 25.376 11.8073 25.3769 11.7908C25.445 10.9138 25.6928 8.89175 26.5864 5.72374C26.7513 5.14062 26.9005 4.55105 27.0028 3.95319C27.07 3.55984 27.1428 3.11582 27.1133 2.70312C27.0258 3.11122 26.9116 3.5147 26.7835 3.91266C26.5579 4.61369 26.2962 5.30183 26.0844 6.00747V6.00563Z" fill="#FF7F4C"/>
<path d="M23.1838 1.79608C23.1599 1.87899 23.1295 1.96006 23.1046 2.04481C23.0567 2.20233 23.0143 2.36354 22.9655 2.52107C22.8605 2.86007 22.7536 3.19815 22.6486 3.53623C22.4303 4.24003 22.211 4.9429 21.9936 5.6467C21.7762 6.3505 21.5459 7.09759 21.3267 7.8235C21.1609 8.37161 20.995 8.91973 20.844 9.47152C20.8016 9.62629 20.7555 9.78289 20.727 9.94134C20.7012 10.086 20.8928 10.1707 20.9757 10.05C20.9757 10.0491 20.9775 10.0473 20.9785 10.0464C21.0144 9.99292 21.7274 7.51121 22.0001 6.29062C22.2009 5.39153 22.4929 4.53573 22.7555 3.77851C22.6495 4.15712 23.3736 1.8403 23.2971 2.05218C23.4547 1.32627 23.3653 0.869358 22.7287 0.824219C23.0125 1.01399 23.252 1.18533 23.229 1.5621C23.2244 1.64317 23.2068 1.71963 23.1847 1.79424L23.1838 1.79608Z" fill="#FF7F4C"/>
<path d="M27.4984 8.21647C27.4927 8.21647 27.4927 8.20703 27.4984 8.20703C27.504 8.20703 27.504 8.21647 27.4984 8.21647Z" fill="#FF7F4C"/>
<path d="M25.9649 32.7454L32.8785 27.9902L30.9099 24.5117C30.9099 24.5117 27.2435 26.7005 24.4375 27.9717L25.9639 32.7454H25.9649Z" fill="#D5DADD"/>
<path d="M42.0516 44.9975C38.4857 38.1428 33.0662 27.9 32.52 26.707C32.52 26.707 24.7874 30.2776 24.9016 31.1445C25.0223 32.0601 28.2806 39.4666 30.7559 44.9984H42.0516V44.9975Z" fill="#2A4259"/>
<path d="M31.8188 44.9984C30.6931 42.6935 29.7848 40.2496 29.4053 37.7043C29.2155 36.4303 29.152 35.1323 29.3021 33.85C29.3657 33.3074 29.4403 32.7455 29.6383 32.2324C29.8023 31.8086 30.0381 31.4254 30.3311 31.079C31.2007 30.0491 32.4563 29.4356 33.4457 28.543C32.963 27.6089 32.6332 26.9585 32.518 26.707C32.518 26.707 24.7855 30.2776 24.8997 31.1445C25.0204 32.0601 28.2787 39.4666 30.7539 44.9984H31.8179H31.8188Z" fill="#00144A"/>
<path d="M18.586 45.0009C20.7738 38.067 23.8377 27.8684 23.8377 27.8684L15.0495 24.2812L7.17969 45.0009H18.586Z" fill="#2A4259"/>
<path d="M9.47255 45.0009C9.64113 44.2787 9.83827 43.5629 10.0538 42.8536C10.4103 41.6818 10.8193 40.5266 11.2588 39.3834C11.7019 38.2301 12.1781 37.0896 12.6719 35.9565C13.1279 34.911 13.6005 33.8728 14.0804 32.8374C14.1034 32.7876 14.132 32.7222 14.1661 32.643C15.7662 28.8808 19.8665 26.845 23.8258 27.8656L23.8377 27.8684L15.0495 24.2812L7.17969 45.0009H9.47255Z" fill="#00144A"/>
</svg>
