<?xml version="1.0" encoding="UTF-8"?>
<!--Generator: Apple Native CoreSVG 232.5-->
<!DOCTYPE svg
PUBLIC "-//W3C//DTD SVG 1.1//EN"
       "http://www.w3.org/Graphics/SVG/1.1/DTD/svg11.dtd">
<svg version="1.1" xmlns="http://www.w3.org/2000/svg" xmlns:xlink="http://www.w3.org/1999/xlink" width="3300" height="2200">
 <!--glyph: "", point size: 100.0, font version: "19.0d6e1", template writer version: "123"-->
 <style>.SFSymbolsPreviewWireframe {fill:none;opacity:1.0;stroke:black;stroke-width:0.5}
</style>
 <g id="Notes">
  <rect height="2200" id="artboard" style="fill:white;opacity:1" width="3300" x="0" y="0"/>
  <line style="fill:none;stroke:black;opacity:1;stroke-width:0.5;" x1="263" x2="3036" y1="292" y2="292"/>
  <text style="stroke:none;fill:black;font-family:sans-serif;font-size:13;font-weight:bold;" transform="matrix(1 0 0 1 263 322)">Weight/Scale Variations</text>
  <text style="stroke:none;fill:black;font-family:sans-serif;font-size:13;text-anchor:middle;" transform="matrix(1 0 0 1 559.711 322)">Ultralight</text>
  <text style="stroke:none;fill:black;font-family:sans-serif;font-size:13;text-anchor:middle;" transform="matrix(1 0 0 1 856.422 322)">Thin</text>
  <text style="stroke:none;fill:black;font-family:sans-serif;font-size:13;text-anchor:middle;" transform="matrix(1 0 0 1 1153.13 322)">Light</text>
  <text style="stroke:none;fill:black;font-family:sans-serif;font-size:13;text-anchor:middle;" transform="matrix(1 0 0 1 1449.84 322)">Regular</text>
  <text style="stroke:none;fill:black;font-family:sans-serif;font-size:13;text-anchor:middle;" transform="matrix(1 0 0 1 1746.56 322)">Medium</text>
  <text style="stroke:none;fill:black;font-family:sans-serif;font-size:13;text-anchor:middle;" transform="matrix(1 0 0 1 2043.27 322)">Semibold</text>
  <text style="stroke:none;fill:black;font-family:sans-serif;font-size:13;text-anchor:middle;" transform="matrix(1 0 0 1 2339.98 322)">Bold</text>
  <text style="stroke:none;fill:black;font-family:sans-serif;font-size:13;text-anchor:middle;" transform="matrix(1 0 0 1 2636.69 322)">Heavy</text>
  <text style="stroke:none;fill:black;font-family:sans-serif;font-size:13;text-anchor:middle;" transform="matrix(1 0 0 1 2933.4 322)">Black</text>
  <line style="fill:none;stroke:black;opacity:1;stroke-width:0.5;" x1="263" x2="3036" y1="1903" y2="1903"/>
  <g transform="matrix(0.2 0 0 0.2 263 1933)">
   <path d="m46.2402 4.15039c21.5332 0 39.4531-17.8711 39.4531-39.4043s-17.9688-39.4043-39.502-39.4043c-21.4844 0-39.3555 17.8711-39.3555 39.4043s17.9199 39.4043 39.4043 39.4043Zm0-7.42188c-17.7246 0-31.8848-14.209-31.8848-31.9824s14.1113-31.9824 31.8359-31.9824c17.7734 0 32.0312 14.209 32.0312 31.9824s-14.209 31.9824-31.9824 31.9824Zm-17.9688-31.9824c0 2.14844 1.51367 3.61328 3.75977 3.61328h10.498v10.5957c0 2.19727 1.46484 3.71094 3.61328 3.71094 2.24609 0 3.71094-1.51367 3.71094-3.71094v-10.5957h10.5957c2.19727 0 3.71094-1.46484 3.71094-3.61328 0-2.19727-1.51367-3.71094-3.71094-3.71094h-10.5957v-10.5469c0-2.24609-1.46484-3.75977-3.71094-3.75977-2.14844 0-3.61328 1.51367-3.61328 3.75977v10.5469h-10.498c-2.24609 0-3.75977 1.51367-3.75977 3.71094Z"/>
  </g>
  <g transform="matrix(0.2 0 0 0.2 281.506 1933)">
   <path d="m58.5449 14.5508c27.2461 0 49.8047-22.6074 49.8047-49.8047 0-27.2461-22.6074-49.8047-49.8535-49.8047-27.1973 0-49.7559 22.5586-49.7559 49.8047 0 27.1973 22.6074 49.8047 49.8047 49.8047Zm0-8.30078c-23.0469 0-41.4551-18.457-41.4551-41.5039s18.3594-41.5039 41.4062-41.5039 41.5527 18.457 41.5527 41.5039-18.457 41.5039-41.5039 41.5039Zm-22.6562-41.5039c0 2.39258 1.66016 4.00391 4.15039 4.00391h14.3555v14.4043c0 2.44141 1.66016 4.15039 4.05273 4.15039 2.44141 0 4.15039-1.66016 4.15039-4.15039v-14.4043h14.4043c2.44141 0 4.15039-1.61133 4.15039-4.00391 0-2.44141-1.70898-4.15039-4.15039-4.15039h-14.4043v-14.3555c0-2.49023-1.70898-4.19922-4.15039-4.19922-2.39258 0-4.05273 1.70898-4.05273 4.19922v14.3555h-14.3555c-2.49023 0-4.15039 1.70898-4.15039 4.15039Z"/>
  </g>
  <g transform="matrix(0.2 0 0 0.2 304.924 1933)">
   <path d="m74.8535 28.3203c34.8145 0 63.623-28.8086 63.623-63.5742 0-34.8145-28.8574-63.623-63.6719-63.623-34.7656 0-63.5254 28.8086-63.5254 63.623 0 34.7656 28.8086 63.5742 63.5742 63.5742Zm0-9.08203c-30.1758 0-54.4434-24.3164-54.4434-54.4922 0-30.2246 24.2188-54.4922 54.3945-54.4922 30.2246 0 54.541 24.2676 54.541 54.4922 0 30.1758-24.2676 54.4922-54.4922 54.4922Zm-28.8574-54.4922c0 2.58789 1.85547 4.39453 4.58984 4.39453h19.7266v19.7754c0 2.68555 1.85547 4.58984 4.44336 4.58984 2.68555 0 4.54102-1.85547 4.54102-4.58984v-19.7754h19.7754c2.68555 0 4.58984-1.80664 4.58984-4.39453 0-2.73438-1.85547-4.58984-4.58984-4.58984h-19.7754v-19.7266c0-2.73438-1.85547-4.63867-4.54102-4.63867-2.58789 0-4.44336 1.9043-4.44336 4.63867v19.7266h-19.7266c-2.73438 0-4.58984 1.85547-4.58984 4.58984Z"/>
  </g>
  <text style="stroke:none;fill:black;font-family:sans-serif;font-size:13;font-weight:bold;" transform="matrix(1 0 0 1 263 1953)">Design Variations</text>
  <text style="stroke:none;fill:black;font-family:sans-serif;font-size:13;" transform="matrix(1 0 0 1 263 1971)">Symbols are supported in up to nine weights and three scales.</text>
  <text style="stroke:none;fill:black;font-family:sans-serif;font-size:13;" transform="matrix(1 0 0 1 263 1989)">For optimal layout with text and other symbols, vertically align</text>
  <text style="stroke:none;fill:black;font-family:sans-serif;font-size:13;" transform="matrix(1 0 0 1 263 2007)">symbols with the adjacent text.</text>
  <line style="fill:none;stroke:#00AEEF;stroke-width:0.5;opacity:1.0;" x1="776" x2="776" y1="1919" y2="1933"/>
  <g transform="matrix(0.2 0 0 0.2 776 1933)">
   <path d="m16.5527 0.78125c2.58789 0 3.85742-0.976562 4.78516-3.71094l6.29883-17.2363h28.8086l6.29883 17.2363c0.927734 2.73438 2.19727 3.71094 4.73633 3.71094 2.58789 0 4.24805-1.5625 4.24805-4.00391 0-0.830078-0.146484-1.61133-0.537109-2.63672l-22.9004-60.9863c-1.12305-2.97852-3.125-4.49219-6.25-4.49219-3.02734 0-5.07812 1.46484-6.15234 4.44336l-22.9004 61.084c-0.390625 1.02539-0.537109 1.80664-0.537109 2.63672 0 2.44141 1.5625 3.95508 4.10156 3.95508Zm13.4766-28.3691 11.8652-32.8613h0.244141l11.8652 32.8613Z"/>
  </g>
  <line style="fill:none;stroke:#00AEEF;stroke-width:0.5;opacity:1.0;" x1="792.836" x2="792.836" y1="1919" y2="1933"/>
  <text style="stroke:none;fill:black;font-family:sans-serif;font-size:13;font-weight:bold;" transform="matrix(1 0 0 1 776 1953)">Margins</text>
  <text style="stroke:none;fill:black;font-family:sans-serif;font-size:13;" transform="matrix(1 0 0 1 776 1971)">Leading and trailing margins on the left and right side of each symbol</text>
  <text style="stroke:none;fill:black;font-family:sans-serif;font-size:13;" transform="matrix(1 0 0 1 776 1989)">can be adjusted by modifying the x-location of the margin guidelines.</text>
  <text style="stroke:none;fill:black;font-family:sans-serif;font-size:13;" transform="matrix(1 0 0 1 776 2007)">Modifications are automatically applied proportionally to all</text>
  <text style="stroke:none;fill:black;font-family:sans-serif;font-size:13;" transform="matrix(1 0 0 1 776 2025)">scales and weights.</text>
  <g transform="matrix(0.2 0 0 0.2 1289 1933)">
   <path d="m14.209 9.32617 8.49609 8.54492c4.29688 4.3457 9.22852 4.05273 13.8672-1.07422l53.4668-58.9355-4.83398-4.88281-53.0762 58.3984c-1.75781 2.00195-3.41797 2.49023-5.76172 0.146484l-5.85938-5.81055c-2.34375-2.29492-1.80664-4.00391 0.195312-5.81055l57.373-54.0039-4.88281-4.83398-57.959 54.4434c-4.93164 4.58984-5.32227 9.47266-1.02539 13.8184Zm32.0801-90.9668c-2.09961 2.05078-2.24609 4.93164-1.07422 6.88477 1.17188 1.80664 3.4668 2.97852 6.68945 2.14844 7.32422-1.70898 14.9414-2.00195 22.0703 2.68555l-2.92969 7.27539c-1.70898 4.15039-0.830078 7.08008 1.85547 9.81445l11.4746 11.5723c2.44141 2.44141 4.49219 2.53906 7.32422 2.05078l5.32227-0.976562 3.32031 3.36914-0.195312 2.7832c-0.195312 2.49023 0.439453 4.39453 2.88086 6.78711l3.80859 3.71094c2.39258 2.39258 5.46875 2.53906 7.8125 0.195312l14.5508-14.5996c2.34375-2.34375 2.24609-5.32227-0.146484-7.71484l-3.85742-3.80859c-2.39258-2.39258-4.24805-3.17383-6.64062-2.97852l-2.88086 0.244141-3.22266-3.17383 1.2207-5.61523c0.634766-2.83203-0.146484-5.0293-3.07617-7.95898l-10.9863-10.9375c-16.6992-16.6016-38.8672-16.2109-53.3203-1.75781Zm7.4707 1.85547c12.1582-8.88672 28.6133-7.37305 39.7461 3.75977l12.1582 12.0605c1.17188 1.17188 1.36719 2.09961 1.02539 3.80859l-1.61133 7.42188 7.51953 7.42188 4.93164-0.292969c1.26953-0.0488281 1.66016 0.0488281 2.63672 1.02539l2.88086 2.88086-12.207 12.207-2.88086-2.88086c-0.976562-0.976562-1.12305-1.36719-1.07422-2.68555l0.341797-4.88281-7.4707-7.42188-7.61719 1.26953c-1.61133 0.341797-2.34375 0.195312-3.56445-0.976562l-10.0098-10.0098c-1.26953-1.17188-1.41602-2.00195-0.634766-3.85742l4.39453-10.4492c-7.8125-7.27539-17.9688-10.4004-28.125-7.42188-0.78125 0.195312-1.07422-0.439453-0.439453-0.976562Z"/>
  </g>
  <text style="stroke:none;fill:black;font-family:sans-serif;font-size:13;font-weight:bold;" transform="matrix(1 0 0 1 1289 1953)">Exporting</text>
  <text style="stroke:none;fill:black;font-family:sans-serif;font-size:13;" transform="matrix(1 0 0 1 1289 1971)">Symbols should be outlined when exporting to ensure the</text>
  <text style="stroke:none;fill:black;font-family:sans-serif;font-size:13;" transform="matrix(1 0 0 1 1289 1989)">design is preserved when submitting to Xcode.</text>
  <text id="template-version" style="stroke:none;fill:black;font-family:sans-serif;font-size:13;text-anchor:end;" transform="matrix(1 0 0 1 3036 1933)">Template v.5.0</text>
  <text style="stroke:none;fill:black;font-family:sans-serif;font-size:13;text-anchor:end;" transform="matrix(1 0 0 1 3036 1951)">Requires Xcode 15 or greater</text>
  <text id="descriptive-name" style="stroke:none;fill:black;font-family:sans-serif;font-size:13;text-anchor:end;" transform="matrix(1 0 0 1 3036 1969)">Generated from fiori.contacts</text>
  <text style="stroke:none;fill:black;font-family:sans-serif;font-size:13;text-anchor:end;" transform="matrix(1 0 0 1 3036 1987)">Typeset at 100.0 points</text>
  <text style="stroke:none;fill:black;font-family:sans-serif;font-size:13;" transform="matrix(1 0 0 1 263 726)">Small</text>
  <text style="stroke:none;fill:black;font-family:sans-serif;font-size:13;" transform="matrix(1 0 0 1 263 1156)">Medium</text>
  <text style="stroke:none;fill:black;font-family:sans-serif;font-size:13;" transform="matrix(1 0 0 1 263 1586)">Large</text>
 </g>
 <g id="Guides">
  <g id="H-reference" style="fill:#27AAE1;stroke:none;" transform="matrix(1 0 0 1 339 696)">
   <path d="M0.993654 0L3.63775 0L29.3281-67.1323L30.0303-67.1323L30.0303-70.459L28.1226-70.459ZM11.6885-24.4799L46.9815-24.4799L46.2315-26.7285L12.4385-26.7285ZM55.1196 0L57.7637 0L30.6382-70.459L29.4326-70.459L29.4326-67.1323Z"/>
  </g>
  <line id="Baseline-S" style="fill:none;stroke:#27AAE1;opacity:1;stroke-width:0.5;" x1="263" x2="3036" y1="696" y2="696"/>
  <line id="Capline-S" style="fill:none;stroke:#27AAE1;opacity:1;stroke-width:0.5;" x1="263" x2="3036" y1="625.541" y2="625.541"/>
  <g id="H-reference" style="fill:#27AAE1;stroke:none;" transform="matrix(1 0 0 1 339 1126)">
   <path d="M0.993654 0L3.63775 0L29.3281-67.1323L30.0303-67.1323L30.0303-70.459L28.1226-70.459ZM11.6885-24.4799L46.9815-24.4799L46.2315-26.7285L12.4385-26.7285ZM55.1196 0L57.7637 0L30.6382-70.459L29.4326-70.459L29.4326-67.1323Z"/>
  </g>
  <line id="Baseline-M" style="fill:none;stroke:#27AAE1;opacity:1;stroke-width:0.5;" x1="263" x2="3036" y1="1126" y2="1126"/>
  <line id="Capline-M" style="fill:none;stroke:#27AAE1;opacity:1;stroke-width:0.5;" x1="263" x2="3036" y1="1055.54" y2="1055.54"/>
  <g id="H-reference" style="fill:#27AAE1;stroke:none;" transform="matrix(1 0 0 1 339 1556)">
   <path d="M0.993654 0L3.63775 0L29.3281-67.1323L30.0303-67.1323L30.0303-70.459L28.1226-70.459ZM11.6885-24.4799L46.9815-24.4799L46.2315-26.7285L12.4385-26.7285ZM55.1196 0L57.7637 0L30.6382-70.459L29.4326-70.459L29.4326-67.1323Z"/>
  </g>
  <line id="Baseline-L" style="fill:none;stroke:#27AAE1;opacity:1;stroke-width:0.5;" x1="263" x2="3036" y1="1556" y2="1556"/>
  <line id="Capline-L" style="fill:none;stroke:#27AAE1;opacity:1;stroke-width:0.5;" x1="263" x2="3036" y1="1485.54" y2="1485.54"/>
  <line id="left-margin-Ultralight-S" style="fill:none;stroke:#00AEEF;stroke-width:0.5;opacity:1.0;" x1="515.011" x2="515.011" y1="600.785" y2="720.121"/>
  <line id="right-margin-Ultralight-S" style="fill:none;stroke:#00AEEF;stroke-width:0.5;opacity:1.0;" x1="604.411" x2="604.411" y1="600.785" y2="720.121"/>
  <line id="left-margin-Regular-S" style="fill:none;stroke:#00AEEF;stroke-width:0.5;opacity:1.0;" x1="1403.39" x2="1403.39" y1="600.785" y2="720.121"/>
  <line id="right-margin-Regular-S" style="fill:none;stroke:#00AEEF;stroke-width:0.5;opacity:1.0;" x1="1496.29" x2="1496.29" y1="600.785" y2="720.121"/>
  <line id="left-margin-Black-S" style="fill:none;stroke:#00AEEF;stroke-width:0.5;opacity:1.0;" x1="2884.9" x2="2884.9" y1="600.785" y2="720.121"/>
  <line id="right-margin-Black-S" style="fill:none;stroke:#00AEEF;stroke-width:0.5;opacity:1.0;" x1="2981.9" x2="2981.9" y1="600.785" y2="720.121"/>
 </g>
 <g id="Symbols">
  <g id="Black-S" transform="matrix(1 0 0 1 2884.9 696)">
   <path class="SFSymbolsPreviewWireframe" d="M64.91-42.7L32.01-42.7C28.41-42.7 25.11-45.5 25.11-49.6L25.11-51.7C25.11-55.5 28.21-58.6 32.01-58.6L64.91-58.6C68.71-58.6 71.81-55.5 71.81-51.7L71.81-49.6C71.91-45.9 69.01-42.7 64.91-42.7ZM70.11 3.6L26.91 3.6C17.41 3.6 9.71-4.1 9.71-13.6L9.71-56.8C9.71-66.3 17.41-74 26.91-74L70.11-74C79.61-74 87.31-66.3 87.31-56.8L87.31-13.6C87.31-4.1 79.61 3.6 70.11 3.6ZM26.91-60.2C25.11-60.2 23.61-58.7 23.61-56.9L23.61-13.7C23.61-11.9 25.11-10.4 26.91-10.4L70.11-10.4C71.91-10.4 73.41-11.9 73.41-13.7L73.41-56.9C73.41-58.7 71.91-60.2 70.11-60.2L26.91-60.2ZM14.21-35.5L11.41-35.5C7.61-35.5 4.51-38.6 4.51-42.4C4.51-46.2 7.61-49.3 11.41-49.3L14.21-49.3C18.01-49.3 21.11-46.2 21.11-42.4C21.11-38.6 18.11-35.5 14.21-35.5ZM14.21-49.9L11.41-49.9C7.61-49.9 4.51-53 4.51-56.8C4.51-60.6 7.61-63.7 11.41-63.7L14.21-63.7C18.01-63.7 21.11-60.6 21.11-56.8C21.11-53 18.11-49.9 14.21-49.9ZM87.31-37.6C83.51-37.6 80.41-40.7 80.41-44.5L80.41-56.8C80.41-60.6 83.51-63.7 87.31-63.7C91.11-63.7 94.21-60.6 94.21-56.8L94.21-44.5C94.31-40.7 91.11-37.6 87.31-37.6ZM87.31-6.7C83.51-6.7 80.41-9.8 80.41-13.6L80.41-26C80.41-29.8 83.51-32.9 87.31-32.9C91.11-32.9 94.21-29.8 94.21-26L94.21-13.7C94.31-9.8 91.11-6.7 87.31-6.7ZM14.21-6.7L11.41-6.7C7.61-6.7 4.51-9.8 4.51-13.6C4.51-17.4 7.61-20.5 11.41-20.5L14.21-20.5C18.01-20.5 21.11-17.4 21.11-13.6C21.11-9.8 18.11-6.7 14.21-6.7ZM14.21-21.1L11.41-21.1C7.61-21.1 4.51-24.2 4.51-28C4.51-31.8 7.61-35 11.51-35L14.31-35C18.11-35 21.21-31.9 21.21-28.1C21.21-24.3 18.11-21.1 14.21-21.1Z"/>
  </g>
  <g id="Regular-S" transform="matrix(1 0 0 1 1403.39 696)">
   <path class="SFSymbolsPreviewWireframe" d="M62.96-45.5L30.06-45.5C27.76-45.5 25.96-47.3 25.96-49.6L25.96-51.7C25.96-54 27.76-55.8 30.06-55.8L62.96-55.8C65.26-55.8 67.06-54 67.06-51.7L67.06-49.6C67.06-47.4 65.26-45.5 62.96-45.5ZM68.06 0.7L24.96 0.7C17.06 0.7 10.56-5.8 10.56-13.7L10.56-56.9C10.56-64.8 17.06-71.3 24.96-71.3L68.16-71.3C76.06-71.3 82.56-64.8 82.56-56.9L82.56-13.7C82.46-5.7 76.06 0.7 68.06 0.7ZM24.96-63C21.56-63 18.76-60.2 18.76-56.8L18.76-13.6C18.76-10.2 21.56-7.4 24.96-7.4L68.16-7.4C71.56-7.4 74.36-10.2 74.36-13.6L74.36-56.8C74.36-60.2 71.56-63 68.16-63L24.96-63ZM11.56-38.3L9.46-38.3C7.16-38.3 5.36-40.1 5.36-42.4C5.36-44.7 7.16-46.5 9.46-46.5L11.56-46.5C13.86-46.5 15.66-44.7 15.66-42.4C15.66-40.1 13.86-38.3 11.56-38.3ZM11.56-52.7L9.46-52.7C7.16-52.7 5.36-54.5 5.36-56.8C5.36-59.1 7.26-61 9.46-61L11.56-61C13.86-61 15.66-59.2 15.66-56.9C15.66-54.6 13.86-52.7 11.56-52.7ZM82.46-40.4C80.16-40.4 78.36-42.2 78.36-44.5L78.36-56.8C78.36-59.1 80.16-60.9 82.46-60.9C84.76-60.9 86.56-59.1 86.56-56.8L86.56-44.5C86.56-42.2 84.76-40.4 82.46-40.4ZM82.46-9.5C80.16-9.5 78.36-11.3 78.36-13.6L78.36-26C78.36-28.3 80.16-30.1 82.46-30.1C84.76-30.1 86.56-28.3 86.56-26L86.56-13.7C86.56-11.4 84.76-9.5 82.46-9.5ZM11.56-9.5L9.46-9.5C7.16-9.5 5.36-11.3 5.36-13.6C5.36-15.9 7.16-17.7 9.46-17.7L11.56-17.7C13.86-17.7 15.66-15.9 15.66-13.6C15.66-11.3 13.86-9.5 11.56-9.5ZM11.56-23.9L9.46-23.9C7.16-23.9 5.36-25.7 5.36-28C5.36-30.3 7.16-32.1 9.46-32.1L11.56-32.1C13.86-32.1 15.66-30.3 15.66-28C15.66-25.7 13.86-23.9 11.56-23.9Z"/>
  </g>
  <g id="Ultralight-S" transform="matrix(1 0 0 1 515.011 696)">
   <path class="SFSymbolsPreviewWireframe" d="M61.175-48.4L28.275-48.4C27.575-48.4 26.975-49 26.975-49.7L26.975-51.8C26.975-52.5 27.575-53.1 28.275-53.1L61.175-53.1C61.875-53.1 62.475-52.5 62.475-51.8L62.475-49.7C62.475-48.9 61.875-48.4 61.175-48.4ZM66.375-2.1L23.175-2.1C16.775-2.1 11.575-7.3 11.575-13.7L11.575-56.9C11.575-63.3 16.775-68.5 23.175-68.5L66.375-68.5C72.775-68.5 77.975-63.3 77.975-56.9L77.975-13.7C77.875-7.3 72.675-2.1 66.375-2.1ZM23.175-65.8C18.175-65.8 14.175-61.8 14.175-56.8L14.175-13.6C14.175-8.6 18.175-4.6 23.175-4.6L66.375-4.6C71.375-4.6 75.375-8.6 75.375-13.6L75.375-56.8C75.375-61.8 71.375-65.8 66.375-65.8L23.175-65.8ZM12.275-41.2L7.775-41.2C7.075-41.2 6.475-41.8 6.475-42.5C6.475-43.2 7.075-43.8 7.775-43.8L12.375-43.8C13.075-43.8 13.675-43.2 13.675-42.5C13.675-41.8 13.075-41.2 12.275-41.2ZM12.275-55.6L7.775-55.6C7.075-55.6 6.475-56.2 6.475-56.9C6.475-57.6 7.075-58.2 7.775-58.2L12.375-58.2C13.075-58.2 13.675-57.6 13.675-56.9C13.675-56.2 13.075-55.6 12.275-55.6ZM77.875-43.2C77.175-43.2 76.575-43.8 76.575-44.5L76.575-56.8C76.575-57.5 77.175-58.1 77.875-58.1C78.575-58.1 79.175-57.5 79.175-56.8L79.175-44.5C79.175-43.8 78.575-43.2 77.875-43.2ZM77.875-12.4C77.175-12.4 76.575-13 76.575-13.7L76.575-26C76.575-26.7 77.175-27.3 77.875-27.3C78.575-27.3 79.175-26.7 79.175-26L79.175-13.7C79.175-13 78.575-12.4 77.875-12.4ZM12.275-12.4L7.775-12.4C7.075-12.4 6.475-13 6.475-13.7C6.475-14.4 7.075-15 7.775-15L12.375-15C13.075-15 13.675-14.4 13.675-13.7C13.675-13 13.075-12.4 12.275-12.4ZM12.275-26.8L7.775-26.8C7.075-26.8 6.475-27.4 6.475-28.1C6.475-28.8 7.075-29.4 7.775-29.4L12.375-29.4C13.075-29.4 13.675-28.8 13.675-28.1C13.675-27.4 13.075-26.8 12.275-26.8Z"/>
  </g>
 </g>
</svg>
