<svg width="128" height="128" viewBox="0 0 128 128" fill="none" xmlns="http://www.w3.org/2000/svg">
<mask id="mask0_4525_144722" style="mask-type:alpha" maskUnits="userSpaceOnUse" x="0" y="0" width="128" height="128">
<circle cx="64" cy="64" r="64" fill="#EBF8FF"/>
</mask>
<g mask="url(#mask0_4525_144722)">
<path d="M181.139 -59.3584H-65.9228C-67.5332 -59.36 -69.1281 -59.022 -70.6163 -58.3636C-72.1045 -57.7053 -73.4569 -56.7396 -74.5962 -55.5218C-75.7354 -54.3039 -76.6392 -52.8577 -77.2558 -51.2659C-77.8724 -49.6741 -78.1898 -47.9679 -78.1898 -46.2447V109.145C-78.1898 112.627 -76.8974 115.965 -74.5969 118.427C-72.2964 120.888 -69.1762 122.271 -65.9228 122.271H181.139C184.392 122.271 187.512 120.888 189.813 118.427C192.113 115.965 193.406 112.627 193.406 109.145V-46.2447C193.406 -47.9679 193.088 -49.6741 192.472 -51.2659C191.855 -52.8577 190.951 -54.3039 189.812 -55.5218C188.673 -56.7396 187.32 -57.7053 185.832 -58.3636C184.344 -59.022 182.749 -59.36 181.139 -59.3584V-59.3584Z" fill="#111619"/>
<rect x="-51.0303" y="99.3552" width="73.5398" height="11.0336" rx="3.39494" fill="#384D69"/>
<rect x="16.2509" y="99.3552" width="162.726" height="11.0336" rx="3.39494" fill="#2F4257"/>
<rect x="-16.2322" y="8.54053" width="38.1931" height="48.378" rx="4.24368" fill="#384D69"/>
<rect x="-15.0557" y="7.59937" width="38.1931" height="48.378" rx="4.24368" fill="#2F4257"/>
<rect x="-12.5094" y="10.1455" width="33.1007" height="43.2855" rx="2.54621" fill="#111619"/>
<path d="M18.8938 10.2932C19.8823 10.643 20.5911 11.5834 20.5911 12.6917V50.885C20.5909 51.9931 19.8821 52.9326 18.8938 53.2825V10.2932Z" fill="#384D69"/>
<mask id="mask1_4525_144722" style="mask-type:alpha" maskUnits="userSpaceOnUse" x="-13" y="10" width="34" height="44">
<rect x="-12.5094" y="10.1458" width="33.1007" height="43.2855" rx="2.54621" fill="#EBF8FF"/>
</mask>
<g mask="url(#mask1_4525_144722)">
<path d="M7.92257 42.2467L-4.07409 44.5947L-5.59646 42.1157C-6.53547 40.5837 -7.12882 38.8661 -7.33522 37.0821C-7.54163 35.2982 -7.35615 33.4908 -6.79168 31.7857C-6.22721 30.0805 -5.29729 28.5185 -4.06658 27.2082C-2.83588 25.8979 -1.33392 24.8708 0.334869 24.1982L3.99604 22.7247C8.64354 20.8527 13.3768 25.2331 11.8491 29.996L7.92257 42.2467Z" fill="#384D69"/>
<path d="M5.78381 60.4799L1.71524 58.9422C1.28786 58.7802 0.90435 58.5208 0.595346 58.1846C0.286343 57.8485 0.0604049 57.4449 -0.064427 57.006L-3.48975 45.0227C-3.56373 44.765 -3.5628 44.4916 -3.48706 44.2344C-3.41132 43.9772 -3.26388 43.7467 -3.06194 43.5699C-2.86 43.3931 -2.61185 43.2771 -2.34642 43.2356C-2.08098 43.1941 -1.80918 43.2286 -1.56267 43.3353L7.94139 47.4403L8.8473 58.1747C8.87945 58.5557 8.81429 58.9386 8.65792 59.2877C8.50155 59.6368 8.25908 59.9406 7.95312 60.1708C7.64717 60.401 7.28773 60.5501 6.90837 60.6042C6.52902 60.6582 6.14212 60.6155 5.78381 60.4799V60.4799Z" fill="#2F4257"/>
<path d="M8.34872 52.2777L8.14502 49.8415C7.33484 49.2897 6.46665 48.8279 5.55593 48.4642C3.01776 47.432 0.696693 47.2475 0.369706 48.0497C0.0427192 48.852 1.83311 50.3362 4.3686 51.3685C5.90972 51.9943 7.36508 52.3072 8.34872 52.2777Z" fill="#384D69"/>
<path d="M3.32701 31.4124L7.58229 31.6431C8.29742 31.6805 8.99814 31.8582 9.64435 32.1661C10.2906 32.474 10.8696 32.906 11.3483 33.4374C11.8269 33.9689 12.1959 34.5893 12.4339 35.2631C12.672 35.937 12.7746 36.6511 12.7357 37.3646L12.3166 45.0604C12.2383 46.4995 11.5902 47.8486 10.5149 48.8109C9.43962 49.7732 8.02527 50.2699 6.58297 50.1917L4.76579 50.0932C2.67687 49.9799 0.718594 49.0433 -0.678238 47.4895C-2.07507 45.9356 -2.79604 43.8917 -2.68254 41.8074L-2.39594 36.5443C-2.31768 35.107 -1.67113 33.7595 -0.598192 32.7974C0.474746 31.8352 1.88642 31.3371 3.32701 31.4124V31.4124Z" fill="#2F4257"/>
<path d="M9.59502 38.7891L8.32996 42.0971C8.32245 42.1164 8.31983 42.1373 8.32233 42.1578C8.32484 42.1784 8.3324 42.198 8.34434 42.2149C8.35627 42.2319 8.37221 42.2456 8.39075 42.2549C8.40928 42.2642 8.42983 42.2688 8.45057 42.2683H10.5492C10.5686 42.2685 10.5878 42.2643 10.6053 42.2559C10.6228 42.2475 10.6381 42.2352 10.65 42.2199C10.662 42.2046 10.6702 42.1868 10.6741 42.1678C10.678 42.1488 10.6774 42.1292 10.6725 42.1105L9.83892 38.8051C9.83217 38.7789 9.81731 38.7556 9.79646 38.7383C9.7756 38.721 9.74982 38.7108 9.72279 38.709C9.69576 38.7072 9.66886 38.714 9.64591 38.7284C9.62297 38.7428 9.60516 38.764 9.59502 38.7891V38.7891Z" fill="#384D69"/>
<path d="M-3.02086 41.2013L-4.85413 40.4578L0.131083 34.061L-0.474649 37.3343C-0.709595 38.6129 -1.21786 39.826 -1.96485 40.8911V40.8911C-2.07951 41.0546 -2.24649 41.1744 -2.43838 41.2308C-2.63027 41.2872 -2.83567 41.2768 -3.02086 41.2013V41.2013Z" fill="#384D69"/>
<path d="M7.1651 35.3545C12.6907 34.5963 16.8934 31.9748 16.5522 29.4991C16.211 27.0234 11.455 25.631 5.92947 26.3892C0.403917 27.1473 -3.79883 29.7689 -3.45763 32.2446C-3.11642 34.7203 1.63954 36.1126 7.1651 35.3545Z" fill="#384D69"/>
<path d="M0.043169 34.0315L-3.35974 32.6479L-4.94156 36.5213L-1.53865 37.9048L0.043169 34.0315Z" fill="#384D69"/>
<path d="M-0.151529 27.4657C2.20728 25.0572 3.59251 22.591 2.94248 21.9572C2.29246 21.3234 -0.146682 22.762 -2.50549 25.1704C-4.8643 27.5788 -6.24954 30.0451 -5.59951 30.6789C-4.94948 31.3127 -2.51034 29.8741 -0.151529 27.4657Z" fill="#384D69"/>
</g>
<rect width="37.5566" height="5.72897" rx="2.54621" transform="matrix(-1 0 0 1 61.1355 93.3743)" fill="#2F4257"/>
<path d="M51.5679 97.5023L49.041 93.3743H139.431V97.0792C139.431 97.346 139.386 97.6101 139.296 97.8564C139.207 98.1027 139.077 98.3264 138.912 98.5145C138.748 98.7026 138.552 98.8514 138.338 98.9524C138.123 99.0535 137.893 99.1047 137.661 99.1032H54.2539C53.7272 99.1045 53.2079 98.9597 52.7403 98.681C52.2727 98.4022 51.8705 97.9979 51.5679 97.5023V97.5023Z" fill="#425A79"/>
<path d="M100.762 35.4488H14.1676C13.8618 35.4403 13.558 35.5017 13.2799 35.6283C13.0019 35.7549 12.7571 35.9433 12.5645 36.1788C12.372 36.4143 12.2368 36.6905 12.1696 36.9862C12.1024 37.2818 12.1049 37.5888 12.177 37.8833L23.703 91.7769C23.8007 92.2282 24.0516 92.6327 24.4138 92.9232C24.7759 93.2137 25.2276 93.3726 25.6937 93.3736H111.293C111.596 93.381 111.896 93.3199 112.172 93.195C112.447 93.07 112.69 92.8845 112.882 92.6526C113.074 92.4207 113.21 92.1485 113.279 91.8567C113.349 91.5649 113.351 91.2612 113.284 90.9687L102.753 37.0849C102.673 36.6221 102.428 36.2029 102.063 35.903C101.698 35.603 101.237 35.4419 100.762 35.4488Z" fill="#5A81B4"/>
<path d="M96.819 43.948C96.5187 42.3415 95.1163 41.177 93.4819 41.177H70.6982C68.6604 41.177 67.0817 42.9597 67.3281 44.9825L70.3787 70.0203C70.5862 71.7238 72.0325 73.0046 73.7487 73.0046H98.1631C100.288 73.0046 101.891 71.0745 101.5 68.9857L96.819 43.948Z" fill="#425A79"/>
<path d="M24.7282 47.5732L67.9222 47.7224L84.044 47.7821C84.5179 47.7752 84.9787 47.9378 85.3434 48.2405C85.7081 48.5432 85.9527 48.9661 86.0332 49.4332L90.4988 72.8468L92.8857 85.3891C92.9507 85.6836 92.9478 85.989 92.8773 86.2822C92.8069 86.5754 92.6707 86.8487 92.4791 87.0815C92.2875 87.3143 92.0454 87.5005 91.7713 87.6261C91.4971 87.7516 91.198 87.8132 90.8966 87.8061H31.3818C30.9082 87.8004 30.4512 87.6308 30.0885 87.3262C29.7259 87.0215 29.48 86.6006 29.3927 86.1351L22.7391 49.9803C22.6853 49.6876 22.6963 49.3867 22.7712 49.0987C22.8462 48.8107 22.9832 48.5426 23.1728 48.3132C23.3623 48.0839 23.5998 47.8988 23.8685 47.7709C24.1372 47.6431 24.4306 47.5756 24.7282 47.5732Z" fill="#D6DADD"/>
<path d="M56.8761 50.5982C54.7813 50.5659 52.7031 50.9746 50.776 51.7979C48.8515 52.6211 47.1213 53.8406 45.6979 55.3771C44.2836 56.9394 43.212 58.7812 42.552 60.7838C41.8956 62.7852 41.6671 64.9027 41.8813 66.9984C42.6797 76.0002 50.6642 83.3465 59.6587 83.3465C61.7535 83.3788 63.8317 82.9701 65.7588 82.1468C67.6827 81.3226 69.4127 80.1033 70.8369 78.5676C72.2526 77.0064 73.3244 75.1643 73.9828 73.1609C74.6408 71.1598 74.8694 69.0421 74.6535 66.9464C73.867 57.9245 65.8905 50.5982 56.8761 50.5982ZM70.2301 77.9918C68.8876 79.4425 67.2554 80.5939 65.4394 81.371C63.6214 82.1506 61.6601 82.5389 59.6826 82.5107C51.0834 82.5107 43.4782 75.5204 42.7236 66.9144C42.5204 64.9322 42.7353 62.9294 43.3544 61.0358C43.9745 59.1423 44.9835 57.4 46.3166 55.921C47.661 54.4724 49.2928 53.3214 51.1073 52.5418C52.9263 51.7656 54.8872 51.3788 56.8641 51.406C65.4634 51.406 73.0725 58.3924 73.8231 67.0024C74.0276 68.9829 73.8141 70.9844 73.1963 72.877C72.5772 74.7708 71.5681 76.5134 70.2341 77.9918H70.2301Z" fill="#EF8659"/>
<path d="M68.3636 76.843C73.2609 71.7185 72.7055 63.2247 67.123 57.8716C61.5406 52.5184 53.0451 52.3331 48.1478 57.4576C43.2506 62.5821 43.806 71.0759 49.3884 76.4291C54.9708 81.7822 63.4663 81.9676 68.3636 76.843Z" fill="#2F4257"/>
<path d="M59.4389 65.0475C59.4544 65.3169 59.5738 65.5698 59.772 65.7526C59.9701 65.9354 60.2315 66.0339 60.5008 66.0272H64.9602C65.087 66.0354 65.214 66.0149 65.3317 65.9673C65.4495 65.9196 65.5551 65.846 65.6406 65.7519C65.7261 65.6578 65.7894 65.5456 65.8257 65.4236C65.862 65.3017 65.8705 65.1731 65.8505 65.0475L65.4512 60.5205C65.4358 60.2511 65.3163 59.9982 65.1182 59.8154C64.92 59.6326 64.6586 59.5341 64.3893 59.5408C64.2624 59.5327 64.1353 59.5533 64.0174 59.6009C63.8994 59.6485 63.7937 59.7221 63.7079 59.8161C63.6221 59.9101 63.5584 60.0222 63.5216 60.1441C63.4847 60.266 63.4757 60.3946 63.495 60.5205L63.6388 62.1522C62.8551 61.3407 61.9191 60.6924 60.8846 60.2442C59.8501 59.7961 58.7374 59.557 57.6105 59.5408C56.6173 59.5243 55.632 59.7195 54.7199 60.1134C53.8078 60.5074 52.9897 61.0912 52.32 61.826C51.6503 62.5607 51.1442 63.4298 50.8352 64.3754C50.5263 65.3211 50.4217 66.3217 50.5282 67.3109C50.7462 69.4153 51.7251 71.3671 53.2804 72.7984C54.8358 74.2297 56.8601 75.0416 58.9718 75.0811C60.6856 75.1057 62.3495 74.5029 63.6513 73.386C64.953 72.2691 65.8031 70.7147 66.0421 69.0145C66.0668 68.737 65.9839 68.4606 65.8105 68.2427C65.6533 68.0302 65.4201 67.8869 65.1598 67.8428C65.0298 67.8159 64.8957 67.8162 64.7658 67.8437C64.636 67.8713 64.5132 67.9254 64.4053 68.0028C64.3074 68.0739 64.226 68.1654 64.1667 68.2711C64.1075 68.3767 64.0717 68.4939 64.0619 68.6146C63.8999 69.8858 63.2713 71.051 62.2986 71.8834C61.326 72.7158 60.0789 73.1557 58.8001 73.1176C57.2213 73.0879 55.7079 72.4806 54.5452 71.4102C53.3825 70.3399 52.6509 68.8804 52.4884 67.3069C52.4068 66.5671 52.4832 65.8183 52.7127 65.1103C52.9421 64.4023 53.3194 63.7513 53.8193 63.2006C54.3193 62.6499 54.9305 62.212 55.6123 61.9161C56.2942 61.6202 57.0311 61.473 57.7741 61.4843C58.7516 61.4957 59.7131 61.7334 60.5837 62.1788C61.4542 62.6242 62.2101 63.2652 62.7924 64.0517H60.2613C60.1379 64.0512 60.0159 64.0781 59.9042 64.1305C59.7924 64.1829 59.6936 64.2595 59.615 64.3547C59.5363 64.45 59.4797 64.5615 59.4493 64.6813C59.4188 64.8011 59.4153 64.9261 59.4389 65.0475V65.0475Z" fill="#D6DADD"/>
</g>
</svg>
