<svg width="128" height="128" viewBox="0 0 128 128" fill="none" xmlns="http://www.w3.org/2000/svg">
<mask id="mask0_2810_46783" style="mask-type:alpha" maskUnits="userSpaceOnUse" x="0" y="0" width="128" height="128">
<circle cx="64" cy="64" r="64" fill="#EBF8FF"/>
</mask>
<g mask="url(#mask0_2810_46783)">
<path d="M181.138 -59.3589H-65.9234C-67.5338 -59.3605 -69.1287 -59.0224 -70.6169 -58.3641C-72.1052 -57.7058 -73.4576 -56.7401 -74.5968 -55.5223C-75.7361 -54.3044 -76.6398 -52.8582 -77.2564 -51.2664C-77.8731 -49.6746 -78.1904 -47.9684 -78.1904 -46.2452V109.145C-78.1904 112.626 -76.898 115.965 -74.5975 118.426C-72.297 120.888 -69.1768 122.271 -65.9234 122.271H181.138C184.391 122.271 187.512 120.888 189.812 118.426C192.113 115.965 193.405 112.626 193.405 109.145V-46.2452C193.405 -47.9684 193.088 -49.6746 192.471 -51.2664C191.854 -52.8582 190.951 -54.3044 189.811 -55.5223C188.672 -56.7401 187.32 -57.7058 185.832 -58.3641C184.343 -59.0224 182.748 -59.3605 181.138 -59.3589Z" fill="#223548"/>
<rect x="-51.0303" y="99.355" width="73.5398" height="11.0336" rx="3.39494" fill="#324E6B"/>
<rect x="16.251" y="99.355" width="162.726" height="11.0336" rx="3.39494" fill="#2A4259"/>
<rect x="-16.2324" y="8.54004" width="38.1931" height="48.378" rx="4.24368" fill="#324E6B"/>
<rect x="-15.0557" y="7.59912" width="38.1931" height="48.378" rx="4.24368" fill="#2A4259"/>
<rect x="-12.5098" y="10.1455" width="33.1007" height="43.2855" rx="2.54621" fill="#223548"/>
<path fill-rule="evenodd" clip-rule="evenodd" d="M18.8936 53.2858V10.29C19.8825 10.6396 20.591 11.5827 20.591 12.6914V50.8845C20.591 51.9931 19.8825 52.9363 18.8936 53.2858Z" fill="#324E6B"/>
<mask id="mask1_2810_46783" style="mask-type:alpha" maskUnits="userSpaceOnUse" x="-13" y="10" width="34" height="44">
<rect x="-12.5098" y="10.1455" width="33.1007" height="43.2855" rx="2.54621" fill="#EBF8FF"/>
</mask>
<g mask="url(#mask1_2810_46783)">
<path d="M7.92257 42.2467L-4.07409 44.5947L-5.59646 42.1157C-6.53547 40.5837 -7.12882 38.8661 -7.33522 37.0821C-7.54163 35.2982 -7.35615 33.4908 -6.79168 31.7857C-6.22721 30.0805 -5.29729 28.5185 -4.06659 27.2082C-2.83588 25.8979 -1.33392 24.8708 0.334869 24.1982L3.99604 22.7247C8.64354 20.8527 13.3768 25.2331 11.8491 29.996L7.92257 42.2467Z" fill="#324E6B"/>
<path d="M5.78345 60.4801L1.71488 58.9424C1.2875 58.7805 0.903984 58.5211 0.59498 58.1849C0.285977 57.8487 0.0600388 57.4451 -0.0647931 57.0063L-3.49011 45.023C-3.5641 44.7652 -3.56316 44.4919 -3.48742 44.2346C-3.41168 43.9774 -3.26425 43.747 -3.06231 43.5702C-2.86036 43.3933 -2.61222 43.2774 -2.34678 43.2358C-2.08134 43.1943 -1.80954 43.2289 -1.56303 43.3355L7.94102 47.4405L8.84694 58.1749C8.87908 58.5559 8.81393 58.9389 8.65756 59.2879C8.50119 59.637 8.25871 59.9408 7.95276 60.1711C7.6468 60.4013 7.28736 60.5504 6.90801 60.6044C6.52865 60.6585 6.14175 60.6157 5.78345 60.4801Z" fill="#2A4259"/>
<path d="M8.3486 52.2777L8.1449 49.8415C7.33471 49.2897 6.46653 48.8279 5.55581 48.4642C3.01764 47.432 0.696571 47.2475 0.369584 48.0497C0.0425971 48.852 1.83299 50.3362 4.36847 51.3685C5.9096 51.9943 7.36496 52.3071 8.3486 52.2777Z" fill="#324E6B"/>
<path d="M3.32689 31.4124L7.58217 31.6431C8.2973 31.6805 8.99802 31.8582 9.64423 32.1661C10.2904 32.474 10.8695 32.906 11.3481 33.4374C11.8268 33.9689 12.1957 34.5893 12.4338 35.2631C12.6719 35.937 12.7744 36.6511 12.7356 37.3646L12.3165 45.0604C12.2381 46.4995 11.59 47.8486 10.5148 48.8109C9.4395 49.7732 8.02515 50.2699 6.58285 50.1917L4.76567 50.0932C2.67675 49.9799 0.718472 49.0433 -0.67836 47.4895C-2.07519 45.9356 -2.79616 43.8917 -2.68266 41.8074L-2.39606 36.5443C-2.3178 35.107 -1.67125 33.7595 -0.598314 32.7974C0.474624 31.8352 1.8863 31.3371 3.32689 31.4124Z" fill="#2A4259"/>
<path d="M9.5949 38.7893L8.32984 42.0974C8.32232 42.1167 8.3197 42.1375 8.32221 42.1581C8.32472 42.1786 8.33228 42.1982 8.34422 42.2152C8.35615 42.2321 8.37209 42.2458 8.39063 42.2551C8.40916 42.2645 8.42971 42.269 8.45045 42.2685H10.5491C10.5685 42.2687 10.5877 42.2645 10.6052 42.2561C10.6227 42.2477 10.638 42.2354 10.6499 42.2201C10.6618 42.2048 10.6701 42.187 10.674 42.1681C10.6779 42.1491 10.6773 42.1295 10.6723 42.1107L9.8388 38.8054C9.83205 38.7792 9.81719 38.7558 9.79633 38.7385C9.77548 38.7213 9.7497 38.711 9.72267 38.7093C9.69564 38.7075 9.66873 38.7143 9.64579 38.7286C9.62285 38.743 9.60504 38.7643 9.5949 38.7893Z" fill="#324E6B"/>
<path d="M-3.02122 41.2013L-4.85449 40.4578L0.130716 34.061L-0.475016 37.3343C-0.709961 38.6129 -1.21823 39.826 -1.96522 40.8911C-2.07987 41.0546 -2.24685 41.1744 -2.43875 41.2308C-2.63064 41.2872 -2.83604 41.2768 -3.02122 41.2013Z" fill="#324E6B"/>
<path d="M7.16534 35.3547C12.6909 34.5966 16.8936 31.975 16.5524 29.4993C16.2112 27.0236 11.4553 25.6313 5.92972 26.3894C0.404161 27.1476 -3.79859 29.7692 -3.45738 32.2449C-3.11617 34.7206 1.63979 36.1129 7.16534 35.3547Z" fill="#324E6B"/>
<path d="M0.0435352 34.0315L-3.35938 32.6479L-4.9412 36.5213L-1.53829 37.9048L0.0435352 34.0315Z" fill="#324E6B"/>
<path d="M-0.151406 27.4657C2.2074 25.0572 3.59263 22.591 2.94261 21.9572C2.29258 21.3234 -0.14656 22.762 -2.50537 25.1704C-4.86417 27.5788 -6.24942 30.0451 -5.59939 30.6789C-4.94936 31.3127 -2.51021 29.8741 -0.151406 27.4657Z" fill="#324E6B"/>
</g>
<rect width="37.5566" height="5.72897" rx="2.54621" transform="matrix(-1 0 0 1 61.1357 93.374)" fill="#0070F3"/>
<path d="M51.5681 97.5021L49.0413 93.374H139.432V97.079C139.432 97.3457 139.386 97.6099 139.297 97.8562C139.208 98.1025 139.077 98.3261 138.912 98.5142C138.748 98.7023 138.553 98.8512 138.338 98.9522C138.123 99.0532 137.893 99.1045 137.661 99.103H54.2542C53.7274 99.1043 53.2082 98.9594 52.7405 98.6807C52.2729 98.402 51.8707 97.9977 51.5681 97.5021Z" fill="#1782FF"/>
<path d="M100.763 35.4485H14.1679C13.862 35.44 13.5582 35.5014 13.2802 35.628C13.0022 35.7546 12.7574 35.943 12.5648 36.1785C12.3722 36.414 12.2371 36.6903 12.1698 36.9859C12.1026 37.2815 12.1052 37.5885 12.1772 37.883L23.7032 91.7767C23.801 92.2279 24.0518 92.6325 24.414 92.923C24.7762 93.2135 25.2278 93.3724 25.6939 93.3734H111.293C111.596 93.3808 111.897 93.3197 112.172 93.1947C112.447 93.0698 112.69 92.8843 112.882 92.6524C113.074 92.4205 113.21 92.1483 113.28 91.8565C113.349 91.5647 113.351 91.261 113.284 90.9685L102.753 37.0847C102.673 36.6218 102.428 36.2027 102.063 35.9027C101.698 35.6028 101.237 35.4417 100.763 35.4485Z" fill="#4098FF"/>
<path d="M96.8194 43.9478C96.519 42.3413 95.1166 41.1768 93.4823 41.1768H70.6985C68.6607 41.1768 67.082 42.9594 67.3285 44.9823L70.379 70.02C70.5866 71.7236 72.0329 73.0044 73.749 73.0044H98.1635C100.288 73.0044 101.891 71.0743 101.501 68.9855L96.8194 43.9478Z" fill="#1782FF"/>
<path d="M24.7284 47.5728L67.9224 47.7219L84.0443 47.7816C84.5182 47.7747 84.979 47.9373 85.3436 48.24C85.7083 48.5427 85.9529 48.9656 86.0334 49.4327L90.4991 72.8463L92.886 85.3886C92.9509 85.6831 92.948 85.9885 92.8775 86.2817C92.8071 86.5749 92.6709 86.8482 92.4793 87.081C92.2877 87.3139 92.0457 87.5001 91.7715 87.6256C91.4974 87.7511 91.1983 87.8127 90.8969 87.8056H31.3821C30.9085 87.7999 30.4514 87.6303 30.0888 87.3257C29.7261 87.021 29.4803 86.6001 29.3929 86.1346L22.7393 49.9798C22.6856 49.6871 22.6965 49.3862 22.7715 49.0982C22.8464 48.8102 22.9835 48.5421 23.173 48.3127C23.3626 48.0834 23.6001 47.8983 23.8687 47.7704C24.1374 47.6426 24.4309 47.5751 24.7284 47.5728Z" fill="#CEDBE8"/>
<path d="M56.8764 50.598C54.7817 50.5657 52.7034 50.9744 50.7763 51.7977C48.8518 52.6209 47.1217 53.8403 45.6982 55.3768C44.284 56.9391 43.2123 58.781 42.5523 60.7836C41.896 62.785 41.6674 64.9024 41.8817 66.9981C42.6801 76 50.6645 83.3463 59.659 83.3463C61.7538 83.3786 63.832 82.9699 65.7592 82.1466C67.6831 81.3223 69.413 80.103 70.8373 78.5674C72.2529 77.0062 73.3248 75.164 73.9831 73.1607C74.6412 71.1596 74.8697 69.0418 74.6538 66.9461C73.8674 57.9242 65.8909 50.598 56.8764 50.598ZM70.2304 77.9915C68.888 79.4422 67.2557 80.5936 65.4398 81.3707C63.6217 82.1504 61.6604 82.5387 59.683 82.5105C51.0837 82.5105 43.4785 75.5201 42.724 66.9141C42.5208 64.932 42.7357 62.9291 43.3548 61.0355C43.9748 59.1421 44.9839 57.3997 46.317 55.9207C47.6613 54.4722 49.2931 53.3211 51.1077 52.5415C52.9267 51.7654 54.8875 51.3785 56.8645 51.4058C65.4637 51.4058 73.0729 58.3921 73.8235 67.0021C74.028 68.9827 73.8144 70.9842 73.1967 72.8767C72.5776 74.7706 71.5684 76.5131 70.2344 77.9915H70.2304Z" fill="#F58B00"/>
<path d="M68.3633 76.843C73.2606 71.7185 72.7052 63.2247 67.1228 57.8716C61.5404 52.5184 53.0449 52.3331 48.1476 57.4576C43.2503 62.5821 43.8057 71.0759 49.3882 76.4291C54.9706 81.7822 63.4661 81.9676 68.3633 76.843Z" fill="#0070F3"/>
<path d="M59.4394 65.0475C59.4549 65.3169 59.5743 65.5698 59.7725 65.7526C59.9706 65.9354 60.232 66.0339 60.5013 66.0272H64.9607C65.0874 66.0354 65.2144 66.0149 65.3322 65.9673C65.45 65.9196 65.5556 65.846 65.6411 65.7519C65.7266 65.6578 65.7899 65.5456 65.8262 65.4236C65.8625 65.3017 65.871 65.1731 65.8509 65.0475L65.4517 60.5205C65.4363 60.2511 65.3168 59.9982 65.1187 59.8154C64.9205 59.6326 64.6591 59.5341 64.3898 59.5408C64.2629 59.5327 64.1358 59.5533 64.0179 59.6009C63.8999 59.6485 63.7942 59.7221 63.7084 59.8161C63.6226 59.9101 63.5589 60.0222 63.5221 60.1441C63.4852 60.266 63.4762 60.3946 63.4955 60.5205L63.6392 62.1522C62.8555 61.3407 61.9196 60.6924 60.8851 60.2442C59.8506 59.7961 58.7379 59.557 57.6109 59.5408C56.6178 59.5243 55.6325 59.7195 54.7204 60.1134C53.8083 60.5074 52.9902 61.0912 52.3205 61.826C51.6508 62.5607 51.1447 63.4298 50.8357 64.3754C50.5268 65.3211 50.4222 66.3217 50.5287 67.3109C50.7467 69.4153 51.7256 71.3671 53.2809 72.7984C54.8363 74.2297 56.8606 75.0416 58.9723 75.0811C60.6861 75.1057 62.35 74.5029 63.6517 73.386C64.9535 72.2691 65.8036 70.7147 66.0426 69.0145C66.0673 68.737 65.9844 68.4606 65.811 68.2427C65.6538 68.0302 65.4206 67.8869 65.1603 67.8428C65.0303 67.8159 64.8962 67.8162 64.7663 67.8437C64.6365 67.8713 64.5137 67.9254 64.4057 68.0028C64.3078 68.0739 64.2265 68.1654 64.1672 68.2711C64.1079 68.3767 64.0722 68.4939 64.0624 68.6146C63.9003 69.8858 63.2718 71.051 62.2991 71.8834C61.3265 72.7158 60.0794 73.1557 58.8006 73.1176C57.2218 73.0879 55.7083 72.4806 54.5457 71.4102C53.383 70.3399 52.6514 68.8804 52.4889 67.3069C52.4073 66.5671 52.4837 65.8183 52.7132 65.1103C52.9426 64.4023 53.3199 63.7513 53.8198 63.2006C54.3198 62.6499 54.931 62.212 55.6128 61.9161C56.2947 61.6202 57.0316 61.473 57.7746 61.4843C58.7521 61.4957 59.7136 61.7334 60.5842 62.1788C61.4547 62.6242 62.2106 63.2652 62.7929 64.0517H60.2618C60.1384 64.0512 60.0164 64.0781 59.9047 64.1305C59.7929 64.1829 59.6941 64.2595 59.6155 64.3547C59.5368 64.45 59.4802 64.5615 59.4498 64.6813C59.4193 64.8011 59.4158 64.9261 59.4394 65.0475Z" fill="#CEDBE8"/>
</g>
</svg>
