<svg width="45" height="45" viewBox="0 0 45 45" fill="none" xmlns="http://www.w3.org/2000/svg">
<path d="M16.0733 11.0817L20.8774 27.4397C20.9766 27.8016 21.3282 28.0353 21.7005 27.9857L43.6236 24.9271C44.7838 24.6334 45.1126 23.6987 44.9554 23.2478L38.468 7.96517C38.3563 7.6467 38.0461 7.43989 37.7111 7.46264L16.9874 8.65589C16.5118 8.68484 15.5563 9.37142 16.0733 11.0796V11.0817Z" fill="#0040B0"/>
<path d="M16.3175 9.60419L21.349 26.7894C21.4483 27.1513 21.7999 27.385 22.1721 27.3354L44.3434 24.2437C44.817 24.1817 45.1148 23.6998 44.9576 23.249L38.9397 7.31283C38.828 6.99435 38.5178 6.78755 38.1828 6.8103L16.9979 8.65084C16.5223 8.67979 16.1934 9.14096 16.3196 9.60212L16.3175 9.60419Z" fill="#56BDFF"/>
<path d="M29.8334 24.1107L27.0069 24.5068L24.9664 18.5742L27.7681 18.246L29.8334 24.1107Z" fill="white"/>
<path d="M34.0702 23.4697L31.5447 23.8274L28.7213 15.9044L31.2177 15.6378L34.0702 23.4697Z" fill="white"/>
<path d="M42.1541 22.399L39.8616 22.6753L36.8769 14.9462L39.1516 14.7353L42.1541 22.399Z" fill="white"/>
<path d="M38.1354 22.8977L35.8101 23.2311L30.9381 10.1922L33.2275 9.97335L38.1354 22.8977Z" fill="white"/>
<path d="M30.0019 39.2603L19.7459 36.1043C21.4146 34.9094 20.3899 33.5309 17.2576 32.6902C13.6734 31.727 7.99986 31.6708 4.02162 32.6224C-0.506265 33.7063 -1.48634 35.7419 2.64587 37.0939C6.93701 38.4973 14.127 38.35 18.1052 36.9135L27.6477 40.2169L28.8082 40.0189C29.0222 39.7608 29.1394 40.0413 29.4738 39.8394C30.0929 39.4158 30.4174 39.1377 30.3148 39.0864H30.0019V39.2603Z" fill="#1B90FF"/>
<path d="M31.3944 14.137C32.0755 16.9856 30.9533 19.9193 29.552 22.0137C28.2911 23.8957 26.1641 25.2218 23.3792 25.5546C17.2366 26.2876 10.6619 21.9128 9.00448 15.9853C7.34702 10.0579 10.9874 4.41543 16.8205 4.14632C22.4242 3.88784 29.5146 8.88759 31.3944 14.137Z" fill="#8D2A00"/>
<path d="M30.9836 12.676C32.9381 18.1326 29.9895 23.2633 24.1066 23.9662C17.9641 24.6992 11.3894 20.3244 9.73191 14.3969C8.07445 8.46943 11.8091 4.04684 17.6439 3.77773C23.2476 3.51925 29.1056 7.42841 30.9854 12.676H30.9836Z" fill="#C35500"/>
<path d="M29.673 12.7806C31.35 17.5271 28.75 21.9533 23.6496 22.5358C18.3536 23.1395 12.6948 19.3737 11.2418 14.2748C9.84046 9.35652 12.9793 5.28094 18.0442 5.02422C22.9347 4.77813 28.0529 8.19333 29.6748 12.7806H29.673Z" fill="#FFEAF4"/>
<path d="M30.9124 39.2892L27.562 40.178L22.2393 23.2436L25.3781 22.8789L30.9124 39.2892Z" fill="#C35500"/>
<path d="M11.0657 10.452L17.9925 5.02734C14.3539 5.23095 11.7201 7.4086 11.0657 10.452Z" fill="#FFEAF4"/>
<path d="M23.6496 22.5359C28.1489 22.0225 30.7009 18.5188 30.0891 14.4414L19.0062 22.0119C20.509 22.5111 22.0953 22.713 23.6496 22.5359Z" fill="white"/>
<path d="M18.0422 5.02404C18.1863 5.017 18.3286 5.01348 18.4726 5.01172C18.3286 5.01172 18.1863 5.017 18.0422 5.02404Z" fill="#FFEAF4"/>
<path d="M22.6963 5.83984C22.7407 5.85755 22.7852 5.87525 22.8279 5.89296C22.7834 5.87525 22.7407 5.85755 22.6963 5.83984Z" fill="#FFEAF4"/>
<path d="M23.1 6.00391C23.1302 6.01807 23.1604 6.03223 23.1907 6.04463C23.1604 6.03046 23.1302 6.0163 23.1 6.00391Z" fill="#FFEAF4"/>
<path d="M22.2872 5.68359C22.337 5.7013 22.3886 5.719 22.4384 5.73848C22.3886 5.719 22.3388 5.7013 22.2872 5.68359Z" fill="#FFEAF4"/>
<path d="M19.5201 5.0625C19.6019 5.06954 19.6838 5.07834 19.7673 5.0889C19.6855 5.0801 19.6037 5.0713 19.5201 5.0625Z" fill="#FFEAF4"/>
<path d="M19.0773 5.02734C19.1626 5.03262 19.2498 5.03614 19.3351 5.04318C19.2498 5.03614 19.1626 5.03086 19.0773 5.02734Z" fill="#FFEAF4"/>
<path d="M19.9558 5.10938C20.0358 5.11993 20.1176 5.13225 20.1977 5.14457C20.1176 5.13225 20.0376 5.11993 19.9558 5.10938Z" fill="#FFEAF4"/>
<path d="M18.6167 5.01562C18.7127 5.01562 18.807 5.01738 18.903 5.0209C18.807 5.01738 18.711 5.01562 18.6167 5.01562Z" fill="#FFEAF4"/>
<path d="M30.1674 15.1774C29.9042 9.90497 24.8162 5.68776 19.7656 5.05925C18.0085 4.89814 14.9195 4.89814 12.6769 7.32543C12.4244 7.59808 12.1879 7.91676 11.9674 8.25314C11.93 8.3098 11.9087 8.34875 11.8749 8.40363C11.8695 8.41071 11.8678 8.41956 11.8624 8.42842C14.5211 5.23983 18.7715 5.03623 22.5274 6.52341C26.415 8.06193 29.7726 11.4134 30.1674 15.1809V15.1774Z" fill="#8D2A00"/>
<path d="M17.1602 5.67955L11.0657 10.4527C10.8149 11.6212 10.8541 12.9154 11.2418 14.2751C11.2738 14.3884 11.3093 14.4999 11.3467 14.6115L23.1392 6.78432C21.2078 5.92211 19.1164 5.49366 17.1602 5.67955Z" fill="white"/>
<path d="M20.9624 23.913L22.7888 24.9912C22.7888 24.9912 22.4082 24.0511 23.6602 23.9218V23.9023C23.1587 23.9785 22.1486 24.0794 20.9624 23.9112V23.913Z" fill="#8D2A00"/>
<path d="M24.9869 23.7347C25.2412 23.7454 25.6858 23.933 25.8975 24.473L26.1998 23.4922C26.1998 23.4922 25.9206 23.6267 24.9869 23.733V23.7347Z" fill="#8D2A00"/>
<path d="M27.5619 40.1814L22.5718 24.3234L22.9079 23.987C22.9079 23.987 23.5463 23.9499 24.2719 23.8047C24.2719 23.8047 24.0212 24.0862 24.0941 24.4757C24.3857 26.0054 29.1305 39.8839 29.1305 39.8839L27.5602 40.1814H27.5619Z" fill="#8D2A00"/>
<path d="M30.9125 39.2907C30.9125 39.4749 30.0482 39.7811 28.6344 40.1441C27.9355 40.284 27.5922 40.2662 27.562 40.1795C27.5407 40.1175 27.923 39.8785 28.6166 39.6554C29.6552 39.3315 30.7951 39.1491 30.9125 39.2907Z" fill="#8D2A00"/>
<path d="M21.6757 13.9576C22.1451 13.4849 22.5826 13.0051 22.3105 12.1713C22.0082 11.2453 21.1261 10.7885 20.0964 10.8594C19.0347 10.9319 18.5172 11.4631 18.2256 12.1376L17.2404 11.4808C17.5925 10.6982 18.3003 10.0343 19.7834 9.93695C21.5547 9.8201 22.9365 10.6274 23.4025 12.0296C23.7884 13.1963 23.2726 13.839 22.684 14.4941C22.1434 15.089 21.8659 15.4023 22.0527 15.9848L22.0918 16.1052L21.0105 16.2026L20.9714 16.0822C20.6353 15.0235 21.1581 14.4764 21.6757 13.9594V13.9576ZM21.8322 16.994C22.2785 16.9532 22.7231 17.2489 22.8618 17.6791C23.0005 18.1093 22.7676 18.4758 22.3194 18.5201C21.8642 18.5644 21.4231 18.2722 21.2844 17.8296C21.1457 17.387 21.3787 17.0347 21.8322 16.9922V16.994Z" fill="#00144A"/>
</svg>
