<svg width="128" height="129" viewBox="0 0 128 129" fill="none" xmlns="http://www.w3.org/2000/svg">
<circle cx="64" cy="64.7695" r="64" fill="#223548"/>
<path d="M0 97.7746C0 96.8388 0.758678 96.0801 1.69455 96.0801H112.409C113.345 96.0801 114.104 96.8388 114.104 97.7746V98.472H0V97.7746Z" fill="#4098FF"/>
<path d="M2.34207 100.511C2.65261 100.788 3.05436 100.941 3.47068 100.941H110.633C111.049 100.941 111.451 100.788 111.762 100.511L114.104 98.4197H0L2.34207 100.511Z" fill="#1782FF"/>
<rect x="11.2295" y="35.041" width="91.6448" height="61.1446" rx="3.38911" fill="#4098FF"/>
<path d="M57.0516 37.0876C57.3757 37.0876 57.6384 36.8245 57.6384 36.4999C57.6384 36.1753 57.3757 35.9121 57.0516 35.9121C56.7276 35.9121 56.4648 36.1753 56.4648 36.4999C56.4648 36.8245 56.7276 37.0876 57.0516 37.0876Z" fill="#0070F3"/>
<rect x="14.2588" y="37.8906" width="85.5853" height="55.4455" rx="2.25941" fill="#CEDBE8"/>
<path d="M50.4141 95.7383H63.69V96.1448C63.69 96.7687 63.1842 97.2745 62.5603 97.2745H51.5438C50.9198 97.2745 50.4141 96.7687 50.4141 96.1448V95.7383Z" fill="#0070F3"/>
<rect x="28.5586" y="66.4219" width="56.9816" height="8.43316" rx="1.69455" fill="#B9C1C6"/>
<path d="M66.6817 52.2266C66.6817 57.1691 62.675 61.1759 57.7325 61.1759C52.7899 61.1759 48.7832 57.1691 48.7832 52.2266C48.7832 47.2841 52.7899 43.2773 57.7325 43.2773C62.675 43.2773 66.6817 47.2841 66.6817 52.2266Z" fill="#3B0AC6"/>
<path fill-rule="evenodd" clip-rule="evenodd" d="M51.0137 58.1395C51.4723 55.7763 53.5441 54.0589 55.964 54.0589H59.5231C61.9359 54.0589 64.0026 55.7662 64.4693 58.1186C62.829 59.9931 60.4189 61.1769 57.7323 61.1769C55.0558 61.1769 52.6537 60.0019 51.0137 58.1395ZM60.7691 49.016C60.7691 50.6871 59.4144 52.0418 57.7433 52.0418C56.0722 52.0418 54.7175 50.6871 54.7175 49.016C54.7175 47.3449 56.0722 45.9902 57.7433 45.9902C59.4144 45.9902 60.7691 47.3449 60.7691 49.016Z" fill="#CEDBE8"/>
<path fill-rule="evenodd" clip-rule="evenodd" d="M57.7325 59.6902C61.8545 59.6902 65.196 56.3486 65.196 52.2266C65.196 48.1046 61.8545 44.763 57.7325 44.763C53.6104 44.763 50.2689 48.1046 50.2689 52.2266C50.2689 56.3486 53.6104 59.6902 57.7325 59.6902ZM57.7325 61.1759C62.675 61.1759 66.6817 57.1691 66.6817 52.2266C66.6817 47.2841 62.675 43.2773 57.7325 43.2773C52.7899 43.2773 48.7832 47.2841 48.7832 52.2266C48.7832 57.1691 52.7899 61.1759 57.7325 61.1759Z" fill="#3B0AC6"/>
<rect x="28.5586" y="78.5059" width="56.9816" height="8.43316" rx="1.69455" fill="#B9C1C6"/>
<circle cx="33.938" cy="70.6392" r="1.36965" fill="#688FB7"/>
<circle cx="40.0669" cy="70.6392" r="1.36965" fill="#688FB7"/>
<circle cx="46.1949" cy="70.6392" r="1.36965" fill="#688FB7"/>
<circle cx="52.3228" cy="70.6392" r="1.36965" fill="#688FB7"/>
<circle cx="33.938" cy="82.7232" r="1.36965" fill="#688FB7"/>
<circle cx="40.0669" cy="82.7232" r="1.36965" fill="#688FB7"/>
<circle cx="46.1949" cy="82.7232" r="1.36965" fill="#688FB7"/>
<circle cx="52.3228" cy="82.7232" r="1.36965" fill="#688FB7"/>
<circle cx="58.4517" cy="82.7232" r="1.36965" fill="#688FB7"/>
<circle cx="64.5806" cy="82.7232" r="1.36965" fill="#688FB7"/>
<path d="M91.4842 116.115C91.4842 115.43 89.4946 114.881 86.8361 114.757C86.6841 112.102 86.099 110.127 85.4135 110.129C84.7279 110.13 84.158 112.12 84.012 114.789C81.346 114.971 79.364 115.567 79.3731 116.254C79.3822 116.941 81.3627 117.489 84.0212 117.612C84.1808 120.267 84.7583 122.242 85.4423 122.24C86.1263 122.239 86.6993 120.249 86.8453 117.58C89.5113 117.398 91.4918 116.802 91.4842 116.115Z" fill="#2A4259"/>
<path d="M58.9695 19.3508C58.9695 18.3226 55.985 17.4997 51.9974 17.3127C51.7694 13.3301 50.8916 10.3688 49.8633 10.3711C48.8351 10.3734 47.9801 13.3575 47.7612 17.3606C43.7622 17.6342 40.7891 18.5278 40.8028 19.5582C40.8165 20.5886 43.7873 21.4116 47.7749 21.5962C48.0143 25.5789 48.8807 28.5402 49.9067 28.5379C50.9326 28.5356 51.7922 25.5515 52.0111 21.5484C56.0101 21.2748 58.9809 20.3812 58.9695 19.3508Z" fill="#2A4259"/>
<rect x="94.2617" y="84.5059" width="24.1113" height="23.3432" fill="#CEDBE8"/>
<path d="M106.27 74.9082C102.063 74.9082 97.9506 76.1556 94.4526 78.4928C90.9546 80.8299 88.2282 84.1517 86.6182 88.0382C85.0082 91.9247 84.587 96.2012 85.4078 100.327C86.2285 104.453 88.2544 108.243 91.2292 111.217C94.2041 114.192 97.9942 116.218 102.12 117.038C106.247 117.859 110.524 117.438 114.41 115.828C118.297 114.218 121.619 111.492 123.957 107.994C126.294 104.497 127.541 100.384 127.541 96.1777C127.525 90.5418 125.278 85.1415 121.293 81.1563C117.307 77.1711 111.907 74.9249 106.27 74.9082ZM116.261 91.2857L103.498 104.047C103.306 104.251 103.074 104.413 102.817 104.524C102.56 104.635 102.283 104.692 102.003 104.692C101.723 104.692 101.446 104.635 101.188 104.524C100.931 104.413 100.699 104.251 100.507 104.047L96.2528 99.7935C95.8562 99.3968 95.6333 98.8589 95.6333 98.298C95.6333 97.737 95.8562 97.1991 96.2528 96.8024C96.6495 96.4058 97.1875 96.183 97.7485 96.183C98.3094 96.183 98.8474 96.4058 99.2441 96.8024L102.009 99.5675L113.283 88.2947C113.68 87.898 114.218 87.6752 114.779 87.6752C115.057 87.6752 115.332 87.7299 115.588 87.8362C115.845 87.9425 116.078 88.0983 116.274 88.2947C116.471 88.4911 116.627 88.7242 116.733 88.9808C116.839 89.2374 116.894 89.5124 116.894 89.7902C116.894 90.0679 116.839 90.3429 116.733 90.5995C116.627 90.8561 116.471 91.0893 116.274 91.2857H116.261Z" fill="#00A800"/>
</svg>
