<?xml version="1.0" encoding="UTF-8"?>
<!--Generator: Apple Native CoreSVG 232.5-->
<!DOCTYPE svg
PUBLIC "-//W3C//DTD SVG 1.1//EN"
       "http://www.w3.org/Graphics/SVG/1.1/DTD/svg11.dtd">
<svg version="1.1" xmlns="http://www.w3.org/2000/svg" xmlns:xlink="http://www.w3.org/1999/xlink" width="3300" height="2200">
 <!--glyph: "", point size: 100.0, font version: "19.0d6e1", template writer version: "123"-->
 <style>.SFSymbolsPreviewWireframe {fill:none;opacity:1.0;stroke:black;stroke-width:0.5}
</style>
 <g id="Notes">
  <rect height="2200" id="artboard" style="fill:white;opacity:1" width="3300" x="0" y="0"/>
  <line style="fill:none;stroke:black;opacity:1;stroke-width:0.5;" x1="263" x2="3036" y1="292" y2="292"/>
  <text style="stroke:none;fill:black;font-family:sans-serif;font-size:13;font-weight:bold;" transform="matrix(1 0 0 1 263 322)">Weight/Scale Variations</text>
  <text style="stroke:none;fill:black;font-family:sans-serif;font-size:13;text-anchor:middle;" transform="matrix(1 0 0 1 559.711 322)">Ultralight</text>
  <text style="stroke:none;fill:black;font-family:sans-serif;font-size:13;text-anchor:middle;" transform="matrix(1 0 0 1 856.422 322)">Thin</text>
  <text style="stroke:none;fill:black;font-family:sans-serif;font-size:13;text-anchor:middle;" transform="matrix(1 0 0 1 1153.13 322)">Light</text>
  <text style="stroke:none;fill:black;font-family:sans-serif;font-size:13;text-anchor:middle;" transform="matrix(1 0 0 1 1449.84 322)">Regular</text>
  <text style="stroke:none;fill:black;font-family:sans-serif;font-size:13;text-anchor:middle;" transform="matrix(1 0 0 1 1746.56 322)">Medium</text>
  <text style="stroke:none;fill:black;font-family:sans-serif;font-size:13;text-anchor:middle;" transform="matrix(1 0 0 1 2043.27 322)">Semibold</text>
  <text style="stroke:none;fill:black;font-family:sans-serif;font-size:13;text-anchor:middle;" transform="matrix(1 0 0 1 2339.98 322)">Bold</text>
  <text style="stroke:none;fill:black;font-family:sans-serif;font-size:13;text-anchor:middle;" transform="matrix(1 0 0 1 2636.69 322)">Heavy</text>
  <text style="stroke:none;fill:black;font-family:sans-serif;font-size:13;text-anchor:middle;" transform="matrix(1 0 0 1 2933.4 322)">Black</text>
  <line style="fill:none;stroke:black;opacity:1;stroke-width:0.5;" x1="263" x2="3036" y1="1903" y2="1903"/>
  <g transform="matrix(0.2 0 0 0.2 263 1933)">
   <path d="m46.2402 4.15039c21.5332 0 39.4531-17.8711 39.4531-39.4043s-17.9688-39.4043-39.502-39.4043c-21.4844 0-39.3555 17.8711-39.3555 39.4043s17.9199 39.4043 39.4043 39.4043Zm0-7.42188c-17.7246 0-31.8848-14.209-31.8848-31.9824s14.1113-31.9824 31.8359-31.9824c17.7734 0 32.0312 14.209 32.0312 31.9824s-14.209 31.9824-31.9824 31.9824Zm-17.9688-31.9824c0 2.14844 1.51367 3.61328 3.75977 3.61328h10.498v10.5957c0 2.19727 1.46484 3.71094 3.61328 3.71094 2.24609 0 3.71094-1.51367 3.71094-3.71094v-10.5957h10.5957c2.19727 0 3.71094-1.46484 3.71094-3.61328 0-2.19727-1.51367-3.71094-3.71094-3.71094h-10.5957v-10.5469c0-2.24609-1.46484-3.75977-3.71094-3.75977-2.14844 0-3.61328 1.51367-3.61328 3.75977v10.5469h-10.498c-2.24609 0-3.75977 1.51367-3.75977 3.71094Z"/>
  </g>
  <g transform="matrix(0.2 0 0 0.2 281.506 1933)">
   <path d="m58.5449 14.5508c27.2461 0 49.8047-22.6074 49.8047-49.8047 0-27.2461-22.6074-49.8047-49.8535-49.8047-27.1973 0-49.7559 22.5586-49.7559 49.8047 0 27.1973 22.6074 49.8047 49.8047 49.8047Zm0-8.30078c-23.0469 0-41.4551-18.457-41.4551-41.5039s18.3594-41.5039 41.4062-41.5039 41.5527 18.457 41.5527 41.5039-18.457 41.5039-41.5039 41.5039Zm-22.6562-41.5039c0 2.39258 1.66016 4.00391 4.15039 4.00391h14.3555v14.4043c0 2.44141 1.66016 4.15039 4.05273 4.15039 2.44141 0 4.15039-1.66016 4.15039-4.15039v-14.4043h14.4043c2.44141 0 4.15039-1.61133 4.15039-4.00391 0-2.44141-1.70898-4.15039-4.15039-4.15039h-14.4043v-14.3555c0-2.49023-1.70898-4.19922-4.15039-4.19922-2.39258 0-4.05273 1.70898-4.05273 4.19922v14.3555h-14.3555c-2.49023 0-4.15039 1.70898-4.15039 4.15039Z"/>
  </g>
  <g transform="matrix(0.2 0 0 0.2 304.924 1933)">
   <path d="m74.8535 28.3203c34.8145 0 63.623-28.8086 63.623-63.5742 0-34.8145-28.8574-63.623-63.6719-63.623-34.7656 0-63.5254 28.8086-63.5254 63.623 0 34.7656 28.8086 63.5742 63.5742 63.5742Zm0-9.08203c-30.1758 0-54.4434-24.3164-54.4434-54.4922 0-30.2246 24.2188-54.4922 54.3945-54.4922 30.2246 0 54.541 24.2676 54.541 54.4922 0 30.1758-24.2676 54.4922-54.4922 54.4922Zm-28.8574-54.4922c0 2.58789 1.85547 4.39453 4.58984 4.39453h19.7266v19.7754c0 2.68555 1.85547 4.58984 4.44336 4.58984 2.68555 0 4.54102-1.85547 4.54102-4.58984v-19.7754h19.7754c2.68555 0 4.58984-1.80664 4.58984-4.39453 0-2.73438-1.85547-4.58984-4.58984-4.58984h-19.7754v-19.7266c0-2.73438-1.85547-4.63867-4.54102-4.63867-2.58789 0-4.44336 1.9043-4.44336 4.63867v19.7266h-19.7266c-2.73438 0-4.58984 1.85547-4.58984 4.58984Z"/>
  </g>
  <text style="stroke:none;fill:black;font-family:sans-serif;font-size:13;font-weight:bold;" transform="matrix(1 0 0 1 263 1953)">Design Variations</text>
  <text style="stroke:none;fill:black;font-family:sans-serif;font-size:13;" transform="matrix(1 0 0 1 263 1971)">Symbols are supported in up to nine weights and three scales.</text>
  <text style="stroke:none;fill:black;font-family:sans-serif;font-size:13;" transform="matrix(1 0 0 1 263 1989)">For optimal layout with text and other symbols, vertically align</text>
  <text style="stroke:none;fill:black;font-family:sans-serif;font-size:13;" transform="matrix(1 0 0 1 263 2007)">symbols with the adjacent text.</text>
  <line style="fill:none;stroke:#00AEEF;stroke-width:0.5;opacity:1.0;" x1="776" x2="776" y1="1919" y2="1933"/>
  <g transform="matrix(0.2 0 0 0.2 776 1933)">
   <path d="m16.5527 0.78125c2.58789 0 3.85742-0.976562 4.78516-3.71094l6.29883-17.2363h28.8086l6.29883 17.2363c0.927734 2.73438 2.19727 3.71094 4.73633 3.71094 2.58789 0 4.24805-1.5625 4.24805-4.00391 0-0.830078-0.146484-1.61133-0.537109-2.63672l-22.9004-60.9863c-1.12305-2.97852-3.125-4.49219-6.25-4.49219-3.02734 0-5.07812 1.46484-6.15234 4.44336l-22.9004 61.084c-0.390625 1.02539-0.537109 1.80664-0.537109 2.63672 0 2.44141 1.5625 3.95508 4.10156 3.95508Zm13.4766-28.3691 11.8652-32.8613h0.244141l11.8652 32.8613Z"/>
  </g>
  <line style="fill:none;stroke:#00AEEF;stroke-width:0.5;opacity:1.0;" x1="792.836" x2="792.836" y1="1919" y2="1933"/>
  <text style="stroke:none;fill:black;font-family:sans-serif;font-size:13;font-weight:bold;" transform="matrix(1 0 0 1 776 1953)">Margins</text>
  <text style="stroke:none;fill:black;font-family:sans-serif;font-size:13;" transform="matrix(1 0 0 1 776 1971)">Leading and trailing margins on the left and right side of each symbol</text>
  <text style="stroke:none;fill:black;font-family:sans-serif;font-size:13;" transform="matrix(1 0 0 1 776 1989)">can be adjusted by modifying the x-location of the margin guidelines.</text>
  <text style="stroke:none;fill:black;font-family:sans-serif;font-size:13;" transform="matrix(1 0 0 1 776 2007)">Modifications are automatically applied proportionally to all</text>
  <text style="stroke:none;fill:black;font-family:sans-serif;font-size:13;" transform="matrix(1 0 0 1 776 2025)">scales and weights.</text>
  <g transform="matrix(0.2 0 0 0.2 1289 1933)">
   <path d="m14.209 9.32617 8.49609 8.54492c4.29688 4.3457 9.22852 4.05273 13.8672-1.07422l53.4668-58.9355-4.83398-4.88281-53.0762 58.3984c-1.75781 2.00195-3.41797 2.49023-5.76172 0.146484l-5.85938-5.81055c-2.34375-2.29492-1.80664-4.00391 0.195312-5.81055l57.373-54.0039-4.88281-4.83398-57.959 54.4434c-4.93164 4.58984-5.32227 9.47266-1.02539 13.8184Zm32.0801-90.9668c-2.09961 2.05078-2.24609 4.93164-1.07422 6.88477 1.17188 1.80664 3.4668 2.97852 6.68945 2.14844 7.32422-1.70898 14.9414-2.00195 22.0703 2.68555l-2.92969 7.27539c-1.70898 4.15039-0.830078 7.08008 1.85547 9.81445l11.4746 11.5723c2.44141 2.44141 4.49219 2.53906 7.32422 2.05078l5.32227-0.976562 3.32031 3.36914-0.195312 2.7832c-0.195312 2.49023 0.439453 4.39453 2.88086 6.78711l3.80859 3.71094c2.39258 2.39258 5.46875 2.53906 7.8125 0.195312l14.5508-14.5996c2.34375-2.34375 2.24609-5.32227-0.146484-7.71484l-3.85742-3.80859c-2.39258-2.39258-4.24805-3.17383-6.64062-2.97852l-2.88086 0.244141-3.22266-3.17383 1.2207-5.61523c0.634766-2.83203-0.146484-5.0293-3.07617-7.95898l-10.9863-10.9375c-16.6992-16.6016-38.8672-16.2109-53.3203-1.75781Zm7.4707 1.85547c12.1582-8.88672 28.6133-7.37305 39.7461 3.75977l12.1582 12.0605c1.17188 1.17188 1.36719 2.09961 1.02539 3.80859l-1.61133 7.42188 7.51953 7.42188 4.93164-0.292969c1.26953-0.0488281 1.66016 0.0488281 2.63672 1.02539l2.88086 2.88086-12.207 12.207-2.88086-2.88086c-0.976562-0.976562-1.12305-1.36719-1.07422-2.68555l0.341797-4.88281-7.4707-7.42188-7.61719 1.26953c-1.61133 0.341797-2.34375 0.195312-3.56445-0.976562l-10.0098-10.0098c-1.26953-1.17188-1.41602-2.00195-0.634766-3.85742l4.39453-10.4492c-7.8125-7.27539-17.9688-10.4004-28.125-7.42188-0.78125 0.195312-1.07422-0.439453-0.439453-0.976562Z"/>
  </g>
  <text style="stroke:none;fill:black;font-family:sans-serif;font-size:13;font-weight:bold;" transform="matrix(1 0 0 1 1289 1953)">Exporting</text>
  <text style="stroke:none;fill:black;font-family:sans-serif;font-size:13;" transform="matrix(1 0 0 1 1289 1971)">Symbols should be outlined when exporting to ensure the</text>
  <text style="stroke:none;fill:black;font-family:sans-serif;font-size:13;" transform="matrix(1 0 0 1 1289 1989)">design is preserved when submitting to Xcode.</text>
  <text id="template-version" style="stroke:none;fill:black;font-family:sans-serif;font-size:13;text-anchor:end;" transform="matrix(1 0 0 1 3036 1933)">Template v.5.0</text>
  <text style="stroke:none;fill:black;font-family:sans-serif;font-size:13;text-anchor:end;" transform="matrix(1 0 0 1 3036 1951)">Requires Xcode 15 or greater</text>
  <text id="descriptive-name" style="stroke:none;fill:black;font-family:sans-serif;font-size:13;text-anchor:end;" transform="matrix(1 0 0 1 3036 1969)">Generated from fiori.offsite.work</text>
  <text style="stroke:none;fill:black;font-family:sans-serif;font-size:13;text-anchor:end;" transform="matrix(1 0 0 1 3036 1987)">Typeset at 100.0 points</text>
  <text style="stroke:none;fill:black;font-family:sans-serif;font-size:13;" transform="matrix(1 0 0 1 263 726)">Small</text>
  <text style="stroke:none;fill:black;font-family:sans-serif;font-size:13;" transform="matrix(1 0 0 1 263 1156)">Medium</text>
  <text style="stroke:none;fill:black;font-family:sans-serif;font-size:13;" transform="matrix(1 0 0 1 263 1586)">Large</text>
 </g>
 <g id="Guides">
  <g id="H-reference" style="fill:#27AAE1;stroke:none;" transform="matrix(1 0 0 1 339 696)">
   <path d="M0.993654 0L3.63775 0L29.3281-67.1323L30.0303-67.1323L30.0303-70.459L28.1226-70.459ZM11.6885-24.4799L46.9815-24.4799L46.2315-26.7285L12.4385-26.7285ZM55.1196 0L57.7637 0L30.6382-70.459L29.4326-70.459L29.4326-67.1323Z"/>
  </g>
  <line id="Baseline-S" style="fill:none;stroke:#27AAE1;opacity:1;stroke-width:0.5;" x1="263" x2="3036" y1="696" y2="696"/>
  <line id="Capline-S" style="fill:none;stroke:#27AAE1;opacity:1;stroke-width:0.5;" x1="263" x2="3036" y1="625.541" y2="625.541"/>
  <g id="H-reference" style="fill:#27AAE1;stroke:none;" transform="matrix(1 0 0 1 339 1126)">
   <path d="M0.993654 0L3.63775 0L29.3281-67.1323L30.0303-67.1323L30.0303-70.459L28.1226-70.459ZM11.6885-24.4799L46.9815-24.4799L46.2315-26.7285L12.4385-26.7285ZM55.1196 0L57.7637 0L30.6382-70.459L29.4326-70.459L29.4326-67.1323Z"/>
  </g>
  <line id="Baseline-M" style="fill:none;stroke:#27AAE1;opacity:1;stroke-width:0.5;" x1="263" x2="3036" y1="1126" y2="1126"/>
  <line id="Capline-M" style="fill:none;stroke:#27AAE1;opacity:1;stroke-width:0.5;" x1="263" x2="3036" y1="1055.54" y2="1055.54"/>
  <g id="H-reference" style="fill:#27AAE1;stroke:none;" transform="matrix(1 0 0 1 339 1556)">
   <path d="M0.993654 0L3.63775 0L29.3281-67.1323L30.0303-67.1323L30.0303-70.459L28.1226-70.459ZM11.6885-24.4799L46.9815-24.4799L46.2315-26.7285L12.4385-26.7285ZM55.1196 0L57.7637 0L30.6382-70.459L29.4326-70.459L29.4326-67.1323Z"/>
  </g>
  <line id="Baseline-L" style="fill:none;stroke:#27AAE1;opacity:1;stroke-width:0.5;" x1="263" x2="3036" y1="1556" y2="1556"/>
  <line id="Capline-L" style="fill:none;stroke:#27AAE1;opacity:1;stroke-width:0.5;" x1="263" x2="3036" y1="1485.54" y2="1485.54"/>
  <line id="left-margin-Ultralight-S" style="fill:none;stroke:#00AEEF;stroke-width:0.5;opacity:1.0;" x1="515.011" x2="515.011" y1="600.785" y2="720.121"/>
  <line id="right-margin-Ultralight-S" style="fill:none;stroke:#00AEEF;stroke-width:0.5;opacity:1.0;" x1="604.411" x2="604.411" y1="600.785" y2="720.121"/>
  <line id="left-margin-Regular-S" style="fill:none;stroke:#00AEEF;stroke-width:0.5;opacity:1.0;" x1="1403.39" x2="1403.39" y1="600.785" y2="720.121"/>
  <line id="right-margin-Regular-S" style="fill:none;stroke:#00AEEF;stroke-width:0.5;opacity:1.0;" x1="1496.29" x2="1496.29" y1="600.785" y2="720.121"/>
  <line id="left-margin-Black-S" style="fill:none;stroke:#00AEEF;stroke-width:0.5;opacity:1.0;" x1="2884.9" x2="2884.9" y1="600.785" y2="720.121"/>
  <line id="right-margin-Black-S" style="fill:none;stroke:#00AEEF;stroke-width:0.5;opacity:1.0;" x1="2981.9" x2="2981.9" y1="600.785" y2="720.121"/>
 </g>
 <g id="Symbols">
  <g id="Black-S" transform="matrix(1 0 0 1 2884.9 696)">
   <path class="SFSymbolsPreviewWireframe" d="M23.61-65.8C20.11-65.8 17.81-63.5 17.81-60.1C17.81-56.7 20.11-54.4 23.61-54.4C27.11-54.4 29.41-56.7 29.41-60.1C29.41-63.5 27.11-65.8 23.61-65.8L23.61-65.8ZM42.61-65.8C39.11-65.8 36.81-63.5 36.81-60.1C36.81-56.7 39.11-54.4 42.61-54.4C46.11-54.4 48.41-56.7 48.41-60.1C48.41-63.5 46.01-65.8 42.61-65.8L42.61-65.8ZM23.61-50.4C20.11-50.4 17.81-48.1 17.81-44.7C17.81-41.3 20.11-39 23.61-39C27.11-39 29.41-41.3 29.41-44.7C29.41-48.1 27.11-50.4 23.61-50.4L23.61-50.4ZM42.61-50.4C39.11-50.4 36.81-48.1 36.81-44.7C36.81-41.3 39.11-39 42.61-39C46.11-39 48.41-41.3 48.41-44.7C48.41-48.1 46.01-50.4 42.61-50.4L42.61-50.4ZM23.61-21.2C20.11-21.2 17.81-18.9 17.81-15.5C17.81-12.1 20.11-9.8 23.61-9.8C27.11-9.8 29.41-12.1 29.41-15.5C29.41-18.9 27.11-21.2 23.61-21.2L23.61-21.2ZM54.71-22.3C51.71-22.3 49.21-19.8 49.21-16.8L49.21-3.8L47.91-3.8L47.91-15.7C47.91-18.7 45.51-21.2 42.41-21.2C39.21-21.2 36.91-18.7 36.91-15.7L36.91-3.8L17.01-3.8L17.01-66.8L49.11-66.8L49.11-53.8C49.11-50.9 51.61-48.3 54.61-48.3C57.91-48.3 60.11-51 60.11-53.8L60.11-72.3C60.11-75.4 57.61-77.8 54.61-77.8L11.51-77.8C8.41-77.8 6.01-75.3 6.01-72.3L6.01 1.7C6.01 4.8 8.51 7.2 11.51 7.2L54.71 7.2C57.81 7.2 60.21 4.7 60.21 1.7L60.21-16.8C60.21-19.4 58.21-22.3 54.71-22.3ZM89.41-39.1L76.31-52C74.71-53.6 71.31-54.7 68.51-51.9C65.81-49.2 67.01-45.7 68.61-44.1L72.01-40.7L57.71-40.7C54.61-40.7 52.21-38.3 52.21-35.2C52.21-32.5 54.41-29.7 57.71-29.7L72.01-29.7L68.61-26.4C67.01-24.8 65.91-21.6 68.51-18.6C69.21-17.7 70.81-16.9 72.41-16.9C74.21-16.9 75.51-17.7 76.31-18.5L89.41-31.3C90.21-32.1 91.11-33.4 91.11-35.2C91.01-37 90.21-38.4 89.41-39.1ZM23.61-34.9C20.11-34.9 17.81-32.6 17.81-29.2C17.81-25.8 20.11-23.5 23.61-23.5C27.11-23.5 29.41-25.8 29.41-29.2C29.41-32.7 27.11-34.9 23.61-34.9L23.61-34.9ZM42.61-34.9C39.11-34.9 36.81-32.6 36.81-29.2C36.81-25.8 39.11-23.5 42.61-23.5C46.11-23.5 48.41-25.8 48.41-29.2C48.41-32.7 46.01-34.9 42.61-34.9L42.61-34.9Z"/>
  </g>
  <g id="Regular-S" transform="matrix(1 0 0 1 1403.39 696)">
   <path class="SFSymbolsPreviewWireframe" d="M21.56-64.4C18.96-64.4 17.16-62.7 17.16-60.1C17.16-57.5 18.86-55.8 21.56-55.8C24.16-55.8 25.96-57.5 25.96-60.1C25.96-62.7 24.16-64.4 21.56-64.4L21.56-64.4ZM40.56-64.4C37.96-64.4 36.16-62.7 36.16-60.1C36.16-57.5 37.86-55.8 40.56-55.8C43.16-55.8 44.96-57.5 44.96-60.1C44.96-62.7 43.16-64.4 40.56-64.4L40.56-64.4ZM21.56-48.9C18.96-48.9 17.16-47.2 17.16-44.6C17.16-42 18.86-40.3 21.56-40.3C24.16-40.3 25.96-42 25.96-44.6C25.96-47.2 24.16-48.9 21.56-48.9L21.56-48.9ZM40.56-48.9C37.96-48.9 36.16-47.2 36.16-44.6C36.16-42 37.86-40.3 40.56-40.3C43.26-40.3 44.96-42 44.96-44.6C44.96-47.2 43.16-48.9 40.56-48.9L40.56-48.9ZM21.56-19.8C18.96-19.8 17.16-18.1 17.16-15.5C17.16-12.9 18.86-11.2 21.56-11.2C24.16-11.2 25.96-12.9 25.96-15.5C25.96-18.1 24.16-19.8 21.56-19.8L21.56-19.8ZM52.66-20.9C50.36-20.9 48.56-19.1 48.56-16.8L48.56-2.4L44.46-2.4L44.46-15.8C44.46-18.1 42.66-19.9 40.36-19.9C38.06-19.9 36.26-18.1 36.26-15.8L36.26-2.4L13.56-2.4L13.56-68.2L48.56-68.2L48.56-53.8C48.56-51.5 50.36-49.7 52.66-49.7C54.96-49.7 56.76-51.5 56.76-53.8L56.76-72.3C56.76-74.6 54.96-76.4 52.66-76.4L9.46-76.4C7.16-76.4 5.36-74.6 5.36-72.3L5.36 1.7C5.36 4 7.16 5.8 9.46 5.8L52.66 5.8C54.96 5.8 56.76 4 56.76 1.7L56.76-16.8C56.76-19 54.96-20.9 52.66-20.9ZM86.36-38.1L73.36-51C71.76-52.6 69.16-52.6 67.56-50.9C65.96-49.3 65.96-46.7 67.66-45.1L73.56-39.3L55.76-39.3C53.46-39.3 51.66-37.5 51.66-35.2C51.66-32.9 53.46-31.1 55.76-31.1L73.46-31.1L67.56-25.3C65.96-23.7 65.96-21.1 67.46-19.5C68.26-18.7 69.36-18.3 70.36-18.3C71.36-18.3 72.46-18.7 73.26-19.5L86.36-32.3C87.16-33.1 87.56-34.1 87.56-35.2C87.56-36.3 87.16-37.4 86.36-38.1ZM21.56-33.5C18.96-33.5 17.16-31.8 17.16-29.2C17.16-26.6 18.96-25 21.56-25C24.16-25 25.96-26.7 25.96-29.3C25.96-31.9 24.16-33.5 21.56-33.5L21.56-33.5ZM40.56-33.5C37.96-33.5 36.16-31.8 36.16-29.2C36.16-26.6 37.96-25 40.56-25C43.16-25 44.96-26.7 44.96-29.3C44.96-31.9 43.16-33.5 40.56-33.5L40.56-33.5Z"/>
  </g>
  <g id="Ultralight-S" transform="matrix(1 0 0 1 515.011 696)">
   <path class="SFSymbolsPreviewWireframe" d="M19.875-61.5C18.975-61.5 18.375-60.9 18.375-60.1C18.375-59.3 18.975-58.7 19.875-58.7C20.775-58.7 21.375-59.3 21.375-60.1C21.375-60.9 20.675-61.5 19.875-61.5L19.875-61.5ZM38.875-61.5C37.975-61.5 37.375-60.9 37.375-60.1C37.375-59.3 37.975-58.7 38.875-58.7C39.775-58.7 40.375-59.3 40.375-60.1C40.375-60.9 39.675-61.5 38.875-61.5L38.875-61.5ZM19.875-46.1C18.975-46.1 18.375-45.5 18.375-44.7C18.375-43.8 18.975-43.3 19.875-43.3C20.775-43.3 21.375-43.9 21.375-44.7C21.275-45.5 20.675-46.1 19.875-46.1L19.875-46.1ZM38.875-46.1C37.975-46.1 37.375-45.5 37.375-44.7C37.375-43.9 37.975-43.3 38.875-43.3C39.775-43.3 40.375-43.9 40.375-44.7C40.375-45.5 39.675-46.1 38.875-46.1L38.875-46.1ZM19.875-17C18.975-17 18.375-16.4 18.375-15.6C18.375-14.8 18.975-14.2 19.875-14.2C20.775-14.2 21.375-14.8 21.375-15.6C21.375-16.4 20.675-17 19.875-17L19.875-17ZM50.775-18C50.075-18 49.575-17.4 49.575-16.7L49.575 0.5L39.775 0.5L39.775-15.7C39.775-16.4 39.275-16.9 38.575-16.9C37.975-16.9 37.175-16.6 37.175-15.6L37.175 0.5L8.975 0.5L8.975-71L49.575-71L49.575-53.8C49.575-53.1 50.075-52.5 50.775-52.5C51.875-52.5 52.175-53.3 52.175-53.8L52.175-72.3C52.175-73 51.575-73.6 50.875-73.6L7.775-73.6C7.075-73.6 6.475-73 6.475-72.3L6.475 1.7C6.475 2.5 7.075 3 7.775 3L50.975 3C51.675 3 52.275 2.4 52.275 1.7L52.275-16.8C52.175-17.4 51.775-18 50.775-18ZM82.675-36.1L69.575-48.9C69.075-49.4 68.275-49.4 67.775-48.9C67.275-48.4 67.175-47.7 67.775-47.1L78.575-36.5L53.875-36.5C53.175-36.5 52.675-36 52.675-35.3C52.675-34.3 53.475-34 53.975-34L78.575-34L67.775-23.3C67.275-22.8 67.275-22 67.775-21.5C67.975-21.3 68.375-21.1 68.675-21.1C68.975-21.1 69.275-21.2 69.575-21.5L82.675-34.3C82.975-34.6 83.075-34.9 83.075-35.2C83.075-35.5 82.875-35.9 82.675-36.1ZM19.875-30.7C18.975-30.7 18.375-30.1 18.375-29.3C18.375-28.5 18.975-27.9 19.875-27.9C20.775-27.9 21.375-28.5 21.375-29.3C21.375-30.1 20.675-30.7 19.875-30.7L19.875-30.7ZM38.875-30.7C37.975-30.7 37.375-30.1 37.375-29.3C37.375-28.5 37.975-27.9 38.875-27.9C39.775-27.9 40.375-28.5 40.375-29.3C40.375-30.1 39.675-30.7 38.875-30.7L38.875-30.7Z"/>
  </g>
 </g>
</svg>
