<svg width="160" height="160" viewBox="0 0 160 160" fill="none" xmlns="http://www.w3.org/2000/svg">
<g clip-path="url(#clip0_2810_46737)">
<circle cx="74.5" cy="51.5" r="34.5" fill="#CEDBE8"/>
<path d="M73.9619 36.2617C70.7885 36.2617 67.6864 37.2027 65.0479 38.9658C62.4093 40.7288 60.3528 43.2347 59.1384 46.1665C57.924 49.0983 57.6062 52.3244 58.2253 55.4368C58.8444 58.5492 60.3726 61.4082 62.6165 63.6521C64.8604 65.896 67.7193 67.4241 70.8317 68.0432C73.9441 68.6623 77.1702 68.3446 80.102 67.1302C83.0339 65.9158 85.5397 63.8592 87.3027 61.2207C89.0658 58.5821 90.0067 55.48 90.0067 52.3066C89.9955 48.0547 88.3014 43.9802 85.2949 40.9736C82.2883 37.9671 78.2138 36.273 73.9619 36.2617ZM73.9619 61.9336C73.4848 61.935 73.0182 61.7948 72.6209 61.5308C72.2236 61.2668 71.9135 60.8909 71.73 60.4506C71.5465 60.0103 71.4977 59.5254 71.5899 59.0574C71.6821 58.5894 71.9111 58.1592 72.2479 57.8214C72.5847 57.4836 73.0141 57.2534 73.4819 57.1598C73.9496 57.0662 74.4347 57.1135 74.8755 57.2957C75.3164 57.478 75.6932 57.7869 75.9583 58.1834C76.2235 58.58 76.365 59.0462 76.365 59.5233C76.3489 60.1562 76.0908 60.7589 75.6437 61.2072C75.1967 61.6556 74.5947 61.9155 73.9619 61.9336ZM77.1708 53.2693C76.9141 53.4048 76.5647 53.6259 76.2438 53.7899C76.0602 53.8623 75.8855 53.9556 75.7233 54.068L75.5663 54.232C75.498 54.6032 75.2982 54.9373 75.0035 55.173C74.7088 55.4088 74.339 55.5304 73.9619 55.5156C73.7479 55.528 73.5337 55.495 73.3334 55.4188C73.1331 55.3426 72.9513 55.2248 72.7998 55.0733C72.6482 54.9217 72.5304 54.7398 72.4542 54.5395C72.3779 54.3392 72.3449 54.1251 72.3574 53.9111C72.3574 52.7844 72.9065 52.3066 74.183 51.2227C74.183 51.2227 74.5395 50.9589 74.7819 50.8091L75.5663 50.3812C76.6859 49.7394 77.1708 49.2545 77.1708 48.135C77.1708 46.8514 75.7446 45.7247 73.9619 45.7247C72.1791 45.7247 70.7529 46.8514 70.7529 48.135C70.7529 48.5605 70.5839 48.9686 70.283 49.2695C69.9821 49.5704 69.5739 49.7394 69.1484 49.7394C68.7229 49.7394 68.3148 49.5704 68.0139 49.2695C67.713 48.9686 67.5439 48.5605 67.5439 48.135C67.5439 44.926 70.3963 42.5157 73.9619 42.5157C77.5274 42.5157 80.3798 44.926 80.3798 48.135C80.3798 50.5381 79.2602 51.9857 77.1708 53.2693Z" fill="#0070F3"/>
<path opacity="0.2" d="M87.6249 20.3022L74.7248 16.209L53.082 80.3885L65.9892 84.4746L87.6249 20.3022Z" fill="#B9C1C6"/>
<path opacity="0.2" d="M71.0307 86.4147L93.08 22.1495L89.0723 20.873L67.0088 85.1382L71.0307 86.4147Z" fill="#B9C1C6"/>
<path d="M91.1762 82.5986L81.7275 86.4138L87.7605 101.332L97.202 97.5169L91.1762 82.5986Z" fill="#B9C1C6"/>
<path d="M86.2988 100.891L101.153 137.338C101.741 138.743 102.862 139.859 104.271 140.439C105.68 141.019 107.262 141.017 108.669 140.433L109.789 139.976C111.191 139.388 112.304 138.269 112.883 136.864C113.463 135.458 113.463 133.88 112.883 132.474L98.0294 96.0273L86.2988 100.891Z" fill="#F58B00"/>
<path d="M81.3994 85.6228L82.3906 87.9761C82.3906 87.9761 87.3823 90.1653 92.5024 85.58L90.9265 81.8291L86.5908 83.9684L81.3994 85.6228Z" fill="#B9C1C6"/>
<path d="M74.2188 87.6334C65.8333 87.6384 57.7056 84.7354 51.2209 79.4189C44.7361 74.1025 40.2957 66.7019 38.6564 58.4782C37.017 50.2545 38.2802 41.7168 42.2307 34.3202C46.1812 26.9236 52.5745 21.1259 60.3209 17.9151C68.0673 14.7044 76.6875 14.2793 84.7122 16.7123C92.737 19.1454 99.6696 24.286 104.329 31.258C108.988 38.2301 111.085 46.602 110.263 54.9471C109.44 63.2921 105.749 71.0938 99.8193 77.0224C93.0245 83.8054 83.8197 87.6207 74.2188 87.6334ZM74.2188 18.2553C66.5246 18.2605 59.0701 20.9331 53.1254 25.818C47.1808 30.7028 43.1137 37.4977 41.617 45.045C40.1203 52.5922 41.2866 60.4249 44.9173 67.2086C48.548 73.9924 54.4183 79.3075 61.5283 82.2484C68.6382 85.1894 76.548 85.5742 83.9099 83.3374C91.2718 81.1005 97.6304 76.3805 101.903 69.9812C106.175 63.582 108.096 55.8995 107.339 48.2426C106.582 40.5857 103.194 33.4281 97.7513 27.9893C91.5061 21.7557 83.0426 18.2549 74.2188 18.2553Z" fill="#688FB7"/>
<path d="M116.955 15.2537C116.82 15.1272 116.654 15.0394 116.473 14.9992C116.292 14.9591 116.104 14.9682 115.928 15.0255L111.707 16.2877C111.424 16.3836 111.191 16.5872 111.057 16.8542C110.924 17.1213 110.901 17.4301 110.994 17.7139C111.053 17.9392 111.184 18.1393 111.367 18.2845C111.549 18.4296 111.773 18.5121 112.006 18.5197C112.12 18.52 112.233 18.5032 112.342 18.4698L116.556 17.2076C116.743 17.1551 116.913 17.0532 117.047 16.9127C117.181 16.7722 117.275 16.5982 117.319 16.4089C117.359 16.2013 117.347 15.9869 117.284 15.7851C117.22 15.5834 117.107 15.4007 116.955 15.2537Z" fill="white"/>
<path d="M98.5143 0.0145245C98.3845 -0.0120561 98.2505 -0.0113209 98.1209 0.0166572C97.9914 0.0446352 97.8691 0.0992495 97.7618 0.177045C97.6545 0.254841 97.5645 0.354121 97.4976 0.468551C97.4308 0.582981 97.3885 0.710056 97.3733 0.84173L96.6602 5.07047C96.6349 5.2224 96.6402 5.37783 96.6759 5.52767C96.7116 5.67751 96.7768 5.81871 96.8678 5.94296C96.9589 6.06721 97.0738 6.17199 97.2059 6.25116C97.3381 6.33033 97.4847 6.3823 97.6372 6.40397C97.7012 6.41104 97.7658 6.41104 97.8297 6.40397C98.0644 6.40904 98.2923 6.32629 98.4691 6.17194C98.6459 6.0176 98.7587 5.80278 98.7853 5.56963L99.4984 1.34091C99.5433 1.0346 99.465 0.722954 99.2805 0.474318C99.096 0.225681 98.8205 0.0603281 98.5143 0.0145245Z" fill="white"/>
<path d="M109.76 4.25685C109.615 4.26641 109.474 4.30477 109.344 4.36967C109.214 4.43456 109.099 4.5247 109.004 4.6348L104.725 9.54811C104.538 9.76934 104.443 10.0544 104.46 10.344C104.477 10.6336 104.606 10.9053 104.818 11.1027C105.012 11.2833 105.266 11.3851 105.531 11.3879C105.687 11.388 105.841 11.3543 105.983 11.289C106.124 11.2238 106.25 11.1286 106.351 11.01L110.63 6.10379C110.818 5.8814 110.913 5.59516 110.896 5.3044C110.879 5.01364 110.75 4.74067 110.537 4.54209C110.433 4.44561 110.311 4.37072 110.177 4.32177C110.044 4.27281 109.902 4.25075 109.76 4.25685Z" fill="white"/>
</g>
<path d="M97.7702 160C110.844 160 121.442 158.281 121.442 156.16C121.442 154.039 110.844 152.32 97.7702 152.32C84.6967 152.32 74.0986 154.039 74.0986 156.16C74.0986 158.281 84.6967 160 97.7702 160Z" fill="#B9C1C6"/>
<defs>
<clipPath id="clip0_2810_46737">
<rect width="79.3259" height="140.874" fill="white" transform="translate(38)"/>
</clipPath>
</defs>
</svg>
