<svg width="45" height="46" viewBox="0 0 45 46" fill="none" xmlns="http://www.w3.org/2000/svg">
<path d="M26.9235 45.5C26.866 45.5 26.8108 45.4771 26.7702 45.4365C26.7295 45.3958 26.7066 45.3406 26.7066 45.2831C26.7066 44.9823 26.6402 44.7794 26.5282 44.7059C26.4163 44.6324 26.3778 44.6674 26.2414 44.7059C26.0427 44.7537 25.8332 44.7223 25.6572 44.6185C25.5724 44.5529 25.5033 44.4693 25.4549 44.3737C25.4065 44.2781 25.38 44.1729 25.3774 44.0657C25.3499 43.8817 25.2993 43.7019 25.227 43.5305C25.1713 43.3904 25.0894 43.2622 24.9856 43.1527C24.8853 43.0504 24.8025 42.9322 24.7408 42.8029C24.5951 42.4735 24.5396 42.1113 24.5799 41.7534C24.2243 41.524 23.9349 41.2057 23.7404 40.8299C23.4465 40.2212 23.499 39.4866 23.555 38.731C23.555 38.654 23.555 38.5806 23.555 38.5106C23.5968 38.2066 23.585 37.8975 23.52 37.5976C23.4516 37.3142 23.3331 37.0452 23.1702 36.8035C22.5231 35.803 22.5336 33.6341 22.5965 32.0879V32.0319C22.666 30.2244 22.6403 28.4145 22.5196 26.6097C22.5143 26.5792 22.5154 26.548 22.523 26.518C22.5306 26.4879 22.5444 26.4599 22.5635 26.4355C22.5827 26.4112 22.6068 26.3912 22.6342 26.3768C22.6616 26.3624 22.6917 26.3539 22.7226 26.352C22.7535 26.35 22.7845 26.3545 22.8135 26.3653C22.8425 26.3761 22.8689 26.3929 22.891 26.4146C22.9131 26.4363 22.9304 26.4624 22.9417 26.4912C22.9531 26.52 22.9582 26.5508 22.9568 26.5818C23.0776 28.4018 23.1033 30.2268 23.0338 32.0495V32.0634C22.9393 34.3583 23.1072 35.852 23.527 36.5061C23.7243 36.7922 23.8667 37.1125 23.9467 37.4507C24.0244 37.795 24.0398 38.1504 23.9922 38.5001C23.9922 38.5701 23.9922 38.64 23.9922 38.7135C23.9362 39.4586 23.8908 40.1128 24.1356 40.606C24.2632 40.8602 24.4475 41.0816 24.6743 41.2532C24.7727 40.9285 24.9835 40.6494 25.269 40.4661C25.6467 40.2492 26.2169 40.2072 26.4828 40.5221C26.5513 40.6121 26.5985 40.7164 26.621 40.8273C26.6434 40.9382 26.6404 41.0527 26.6122 41.1622C26.5926 41.3247 26.5353 41.4804 26.4448 41.6168C26.3544 41.7532 26.2333 41.8665 26.0912 41.9478C25.9491 42.029 25.79 42.0759 25.6266 42.0846C25.4632 42.0934 25.3 42.0639 25.15 41.9983L25.0136 41.9493C25.0104 42.1635 25.0533 42.3759 25.1395 42.572C25.1807 42.6687 25.2401 42.7566 25.3144 42.8309C25.4493 42.9755 25.5561 43.1439 25.6293 43.3276C25.7137 43.5296 25.7736 43.741 25.8077 43.9573C25.8391 44.1392 25.8531 44.1882 25.9056 44.2232C25.9581 44.2581 26.0455 44.2581 26.1819 44.2406C26.3813 44.1916 26.5919 44.2217 26.7696 44.3246C26.9063 44.4371 27.0123 44.5824 27.0777 44.747C27.1432 44.9115 27.1659 45.0899 27.1439 45.2656C27.1439 45.3235 27.1211 45.379 27.0806 45.4202C27.04 45.4615 26.9848 45.4851 26.927 45.486L26.9235 45.5ZM25.0661 41.5086C25.1362 41.5428 25.2087 41.572 25.283 41.596C25.4713 41.673 25.6823 41.673 25.8706 41.596C25.953 41.539 26.0231 41.4659 26.0765 41.3811C26.13 41.2964 26.1659 41.2017 26.1819 41.1028C26.2077 41.0077 26.1965 40.9065 26.1505 40.8194C26.047 40.7672 25.9315 40.7436 25.8159 40.751C25.7003 40.7584 25.5888 40.7965 25.4928 40.8614C25.2714 41.0129 25.1181 41.2453 25.0661 41.5086Z" fill="#00144A"/>
<path d="M32.5552 11.1862C32.4258 16.6504 24.5099 23.6048 23.1527 24.6473C23.0354 24.6992 22.9085 24.7261 22.7802 24.7261C22.6518 24.7261 22.525 24.6992 22.4076 24.6473C18.6228 21.0966 13.6208 16.6924 13.5508 10.7629C13.4808 4.83351 17.9233 0.373313 23.3241 0.502746C28.7249 0.63218 32.6986 5.2428 32.5552 11.1862Z" fill="#FF7F4C"/>
<path d="M22.4076 24.6438L21.6136 26.246C21.5977 26.2775 21.5904 26.3126 21.5923 26.3478C21.5941 26.383 21.6051 26.4171 21.6242 26.4468C21.6433 26.4764 21.6697 26.5006 21.701 26.5169C21.7323 26.5333 21.7672 26.5411 21.8025 26.5398H23.7718C23.8064 26.539 23.8401 26.5294 23.8699 26.5119C23.8997 26.4944 23.9245 26.4696 23.9421 26.4398C23.9596 26.4101 23.9692 26.3763 23.97 26.3418C23.9708 26.3072 23.9628 26.273 23.9467 26.2425L23.1562 24.6158" fill="#FF7F4C"/>
<path d="M15.7021 6.32024C15.6699 6.31951 15.638 6.3136 15.6076 6.30274C15.5814 6.29037 15.5579 6.27295 15.5385 6.25147C15.519 6.22999 15.504 6.20489 15.4942 6.17759C15.4845 6.1503 15.4802 6.12135 15.4817 6.0924C15.4831 6.06345 15.4903 6.03508 15.5027 6.0089C16.0465 4.93755 16.7994 3.98598 17.7169 3.21034C17.7372 3.18698 17.7622 3.16818 17.7903 3.15514C17.8184 3.1421 17.8489 3.13513 17.8799 3.13467C17.9108 3.13421 17.9415 3.14028 17.97 3.15247C17.9984 3.16467 18.024 3.18273 18.045 3.20547C18.066 3.22821 18.082 3.25512 18.0919 3.28445C18.1018 3.31378 18.1054 3.34487 18.1025 3.37569C18.0996 3.40652 18.0903 3.43638 18.0751 3.46334C18.0598 3.4903 18.0391 3.51376 18.0142 3.53218C17.1384 4.27237 16.419 5.17977 15.898 6.2013C15.88 6.23771 15.852 6.26824 15.8174 6.2893C15.7827 6.31037 15.7427 6.3211 15.7021 6.32024Z" fill="#C35500"/>
<path d="M14.7751 8.32818H14.7016C14.6744 8.31878 14.6492 8.30403 14.6277 8.2848C14.6062 8.26557 14.5888 8.24224 14.5764 8.21618C14.564 8.19012 14.557 8.16185 14.5556 8.13303C14.5543 8.1042 14.5588 8.07541 14.5687 8.04832C14.6738 7.75329 14.7988 7.46577 14.943 7.18777C14.9713 7.13721 15.0185 7.09996 15.0743 7.08421C15.13 7.06847 15.1898 7.07551 15.2403 7.10381C15.2909 7.13211 15.3281 7.17934 15.3439 7.2351C15.3596 7.29086 15.3526 7.3506 15.3243 7.40116C15.1883 7.65687 15.0714 7.92228 14.9745 8.19524C14.9569 8.23377 14.929 8.26663 14.8937 8.29012C14.8585 8.3136 14.8174 8.32678 14.7751 8.32818Z" fill="#C35500"/>
</svg>
