<svg width="45" height="46" viewBox="0 0 45 46" fill="none" xmlns="http://www.w3.org/2000/svg">
<path d="M26.9233 45.5C26.8658 45.5 26.8106 45.4772 26.77 45.4365C26.7293 45.3959 26.7064 45.3407 26.7064 45.2832C26.7064 44.9823 26.64 44.7794 26.5281 44.706C26.4161 44.6325 26.3776 44.6675 26.2412 44.706C26.0425 44.7538 25.833 44.7224 25.6571 44.6185C25.5723 44.553 25.5031 44.4694 25.4547 44.3738C25.4063 44.2782 25.3798 44.1729 25.3772 44.0658C25.3497 43.8818 25.2992 43.702 25.2268 43.5306C25.1711 43.3904 25.0892 43.2622 24.9855 43.1528C24.8851 43.0505 24.8023 42.9323 24.7406 42.803C24.5949 42.4736 24.5394 42.1114 24.5797 41.7535C24.2242 41.5241 23.9348 41.2057 23.7402 40.83C23.4464 40.2213 23.4988 39.4867 23.5548 38.7311C23.5548 38.6541 23.5548 38.5806 23.5548 38.5107C23.5966 38.2066 23.5848 37.8976 23.5198 37.5976C23.4514 37.3142 23.3329 37.0453 23.17 36.8035C22.5229 35.8031 22.5334 33.6342 22.5963 32.088V32.032C22.6658 30.2245 22.6401 28.4146 22.5194 26.6098C22.5141 26.5793 22.5152 26.548 22.5228 26.518C22.5304 26.488 22.5442 26.4599 22.5634 26.4356C22.5825 26.4113 22.6066 26.3913 22.634 26.3769C22.6614 26.3625 22.6915 26.354 22.7224 26.352C22.7533 26.35 22.7843 26.3546 22.8133 26.3654C22.8423 26.3762 22.8687 26.393 22.8908 26.4146C22.9129 26.4363 22.9302 26.4624 22.9415 26.4912C22.9529 26.52 22.958 26.5509 22.9566 26.5818C23.0774 28.4018 23.1031 30.2269 23.0336 32.0495V32.0635C22.9391 34.3583 23.107 35.852 23.5268 36.5062C23.7241 36.7922 23.8665 37.1126 23.9466 37.4507C24.0242 37.795 24.0396 38.1505 23.992 38.5002C23.992 38.5701 23.992 38.6401 23.992 38.7136C23.9361 39.4587 23.8906 40.1128 24.1354 40.6061C24.263 40.8603 24.4473 41.0817 24.6741 41.2533C24.7725 40.9285 24.9833 40.6495 25.2688 40.4662C25.6466 40.2493 26.2167 40.2073 26.4826 40.5221C26.5511 40.6121 26.5984 40.7165 26.6208 40.8274C26.6432 40.9382 26.6402 41.0527 26.612 41.1623C26.5924 41.3248 26.5351 41.4804 26.4447 41.6168C26.3542 41.7532 26.2331 41.8666 26.091 41.9478C25.949 42.0291 25.7899 42.0759 25.6264 42.0847C25.463 42.0935 25.2998 42.0639 25.1499 41.9984L25.0134 41.9494C25.0102 42.1636 25.0531 42.376 25.1394 42.5721C25.1805 42.6688 25.2399 42.7567 25.3143 42.8309C25.4491 42.9755 25.5559 43.144 25.6291 43.3277C25.7135 43.5297 25.7734 43.7411 25.8075 43.9574C25.839 44.1393 25.8529 44.1882 25.9054 44.2232C25.9579 44.2582 26.0453 44.2582 26.1818 44.2407C26.3811 44.1917 26.5917 44.2217 26.7694 44.3247C26.9061 44.4372 27.0121 44.5825 27.0776 44.747C27.143 44.9116 27.1658 45.09 27.1437 45.2657C27.1437 45.3235 27.121 45.3791 27.0804 45.4203C27.0398 45.4615 26.9847 45.4851 26.9268 45.4861L26.9233 45.5ZM25.0659 41.5086C25.136 41.5428 25.2085 41.5721 25.2828 41.5961C25.4711 41.6731 25.6821 41.6731 25.8704 41.5961C25.9528 41.539 26.0229 41.4659 26.0764 41.3812C26.1299 41.2964 26.1657 41.2018 26.1818 41.1028C26.2076 41.0078 26.1963 40.9065 26.1503 40.8195C26.0468 40.7673 25.9314 40.7437 25.8158 40.7511C25.7001 40.7584 25.5886 40.7965 25.4927 40.8615C25.2712 41.013 25.1179 41.2453 25.0659 41.5086Z" fill="#00144A"/>
<path d="M32.555 11.1862C32.4256 16.6504 24.5097 23.6048 23.1525 24.6473C23.0352 24.6992 22.9083 24.7261 22.78 24.7261C22.6517 24.7261 22.5248 24.6992 22.4075 24.6473C18.6227 21.0966 13.6206 16.6924 13.5506 10.7629C13.4807 4.83351 17.9231 0.373313 23.3239 0.502746C28.7248 0.63218 32.6984 5.2428 32.555 11.1862Z" fill="#F58B00"/>
<path d="M22.4074 24.6442L21.6134 26.2464C21.5976 26.2779 21.5902 26.313 21.5921 26.3482C21.5939 26.3834 21.605 26.4175 21.624 26.4472C21.6431 26.4768 21.6696 26.501 21.7008 26.5173C21.7321 26.5336 21.767 26.5415 21.8023 26.5402H23.7716C23.8062 26.5394 23.8399 26.5298 23.8697 26.5123C23.8995 26.4948 23.9244 26.47 23.9419 26.4402C23.9594 26.4105 23.969 26.3767 23.9698 26.3422C23.9706 26.3076 23.9626 26.2734 23.9465 26.2429L23.156 24.6162" fill="#F58B00"/>
<path d="M15.7017 6.32036C15.6694 6.31963 15.6376 6.31372 15.6072 6.30287C15.581 6.29049 15.5575 6.27307 15.538 6.25159C15.5186 6.23012 15.5035 6.20501 15.4938 6.17772C15.484 6.15042 15.4798 6.12147 15.4812 6.09252C15.4827 6.06358 15.4898 6.0352 15.5023 6.00902C16.0461 4.93767 16.799 3.98611 17.7165 3.21046C17.7368 3.18711 17.7618 3.1683 17.7899 3.15527C17.818 3.14223 17.8485 3.13525 17.8794 3.13479C17.9104 3.13433 17.9411 3.1404 17.9696 3.1526C17.998 3.1648 18.0236 3.18285 18.0446 3.20559C18.0656 3.22833 18.0816 3.25524 18.0915 3.28457C18.1014 3.3139 18.105 3.34499 18.1021 3.37581C18.0992 3.40664 18.0898 3.4365 18.0746 3.46346C18.0594 3.49042 18.0387 3.51388 18.0138 3.5323C17.138 4.27249 16.4186 5.17989 15.8975 6.20143C15.8796 6.23783 15.8516 6.26836 15.8169 6.28943C15.7822 6.31049 15.7422 6.32122 15.7017 6.32036Z" fill="#CC7400"/>
<path d="M14.7749 8.32836H14.7014C14.6741 8.31896 14.649 8.30422 14.6275 8.28498C14.606 8.26575 14.5885 8.24242 14.5762 8.21636C14.5638 8.1903 14.5567 8.16203 14.5554 8.13321C14.5541 8.10439 14.5585 8.07559 14.5685 8.04851C14.6735 7.75347 14.7986 7.46596 14.9428 7.18796C14.9711 7.13739 15.0183 7.10014 15.074 7.08439C15.1298 7.06865 15.1895 7.0757 15.2401 7.10399C15.2907 7.13229 15.3279 7.17952 15.3436 7.23528C15.3594 7.29105 15.3523 7.35078 15.324 7.40134C15.188 7.65705 15.0711 7.92247 14.9742 8.19543C14.9567 8.23395 14.9287 8.26681 14.8935 8.2903C14.8583 8.31379 14.8172 8.32696 14.7749 8.32836Z" fill="#CC7400"/>
</svg>
