<svg width="128" height="128" viewBox="0 0 128 128" fill="none" xmlns="http://www.w3.org/2000/svg">
<path d="M57.0198 119.422C88.5114 119.422 114.04 93.3256 114.04 61.1351C114.04 28.9437 88.5114 2.84766 57.0198 2.84766C25.529 2.84766 0 28.9437 0 61.1351C0 93.3256 25.529 119.422 57.0198 119.422Z" fill="#4D82B8"/>
<path d="M53.4613 52.9845C52.1462 52.9845 50.7533 53.143 49.4385 53.3014C48.8199 53.3802 48.2005 53.459 47.5819 53.5386C46.8084 53.459 45.9569 53.2218 45.2604 52.9845C44.2548 52.5895 43.2489 52.3522 42.2432 52.2734C41.1605 52.2734 39.7675 52.747 39.3031 55.0405C39.149 55.5152 39.149 55.99 39.3031 56.4644C39.381 56.9392 39.5352 57.3348 39.8446 57.7299C40.464 58.5207 41.5467 58.8367 43.0168 58.8367C43.8683 58.8367 44.7189 58.7579 45.5698 58.6003C45.9569 58.6003 46.344 58.5207 46.7305 58.4419C47.1949 58.4419 47.4269 58.6791 47.9684 59.1539C48.742 59.9446 49.6706 60.5769 50.6762 60.8938H50.9856C52.6877 61.6846 54.4669 62.0797 56.3243 62.2381C56.8656 62.2381 57.407 62.2381 57.9485 62.0006C58.4906 61.8422 58.955 61.5261 59.3415 61.131C59.7286 60.6566 59.9607 60.0234 60.1151 59.4699C60.2701 58.8367 60.193 58.2044 60.1151 57.6511C59.6507 54.5669 57.485 53.0642 53.5392 53.0642L53.4613 52.9845Z" fill="#046C7C"/>
<path d="M87.4821 78.7689C85.3851 78.7689 83.287 79.164 81.345 79.7969C80.6455 80.0344 79.9468 80.192 79.2472 80.2716C78.7814 80.2716 78.3156 80.1132 77.9269 79.7969C77.1502 79.164 76.6065 78.2942 76.2957 77.345C75.5962 75.7635 74.6643 73.7075 71.634 73.7075H71.0132C69.7699 73.7075 68.4496 73.47 67.2842 72.9955C66.1186 72.5208 65.0312 71.8088 64.1766 70.8596C63.71 70.3857 63.2442 69.9901 62.6225 69.7526C62.0017 69.5153 61.3801 69.3578 60.7585 69.3578C59.7489 69.3578 58.8165 69.5941 57.884 69.9113C57.185 70.1485 56.4855 70.3061 55.7089 70.3061C54.6985 70.3061 53.689 69.9113 52.7565 69.4366C51.902 68.883 51.1253 68.1711 50.5816 67.2219C50.3487 66.7474 49.805 65.6404 48.7176 65.6404C47.6293 65.6404 47.0856 66.3523 45.9199 68.0126C45.7649 68.3289 45.6099 68.5662 45.4541 68.8034C45.2212 69.1993 44.9883 69.5941 44.6775 69.9113C44.0559 69.3578 43.4342 68.7246 42.9684 68.0126C42.5797 67.5382 42.2689 66.9846 41.881 66.5099C39.8611 63.742 38.3849 61.6857 36.8314 60.895C36.2876 60.6578 35.821 60.4202 35.2773 60.2627C34.1898 59.9458 33.4132 59.6295 33.0245 58.7599C32.8695 58.3643 32.7916 57.9683 32.7916 57.4944C32.6366 55.6749 32.1699 54.0145 28.1307 54.0145C24.0909 54.0145 25.8772 53.6985 25.6442 53.2238C25.3334 52.5118 25.8 51.1675 27.1204 49.1904C28.1307 47.5292 29.2955 46.8173 30.4609 46.8173C31.6262 46.8173 32.4808 47.3714 33.5682 48.4784C35.2773 50.2184 36.9084 51.0091 38.5404 51.0091C39.2394 51.0091 39.939 50.8507 40.5598 50.5347C41.1814 50.2184 41.7251 49.8227 42.1918 49.2692C43.9779 47.5292 44.8325 45.6314 45.7649 42.0727C46.6974 38.3553 48.2509 34.0844 52.6794 33.2936C53.689 33.1352 54.6985 32.977 55.553 32.898C59.4381 32.3444 62.5455 31.9491 64.0208 29.5765C66.1965 26.2547 67.2842 20.8768 63.0892 16.6851C60.9134 14.3125 57.8061 12.8889 54.6214 12.7308C53.1452 12.7308 51.6691 13.1263 50.2708 13.838C48.9505 14.5498 47.7848 15.4988 46.8524 16.6851C44.5996 19.3741 42.8905 21.1932 41.5701 21.1932C40.7935 21.1141 40.094 20.6395 39.5503 20.0068C39.1615 19.5323 38.9286 19.0578 38.7736 18.5041C38.6178 17.9505 38.6178 17.3178 38.7736 16.7642C38.8513 16.0524 39.1615 15.4197 39.5503 14.8661C39.939 14.3125 40.4827 13.838 41.1043 13.6007C42.2689 13.1262 43.4342 12.968 44.6775 13.0471C47.0082 13.0471 49.7271 12.968 51.5141 9.88362C52.4457 8.30194 52.6794 6.95737 52.2128 5.77107C51.902 5.21745 51.5141 4.6639 51.0474 4.26843C50.5816 3.87297 49.96 3.55667 49.3384 3.39844H49.0275C39.5502 4.74297 30.5388 8.53917 22.8476 14.3916C15.1569 20.2441 8.99598 28.3982 5.13548 36.9317C5.05773 37.1689 2.33879 42.7838 3.19335 46.4222C3.7371 48.2412 4.74708 49.9023 6.30069 51.0879C7.77676 52.2746 9.64122 52.9069 11.5057 52.9866C14.6908 52.9866 16.7883 53.7773 18.342 57.5735C20.051 61.8442 24.0909 64.5327 27.1204 65.5616C27.5092 65.7192 27.9749 65.7979 28.3636 65.9567C30.3838 66.5099 32.092 66.9846 33.3353 70.2273C33.724 71.414 34.5007 72.5208 35.5102 73.2328C36.5205 73.9447 37.8409 74.2607 39.0844 74.1819H40.9485C41.6481 74.1819 42.6576 74.2607 42.9684 74.8143C43.1234 75.1306 43.3571 76.1585 41.7251 79.0061C38.2296 85.2537 39.0844 88.1012 40.8706 91.6602C41.881 93.7952 43.3571 95.614 45.2212 96.9591C47.0856 98.3822 49.2613 99.3314 51.5141 99.727C51.9799 99.727 52.4457 99.9646 52.9123 100.202C53.3002 100.439 53.689 100.834 53.9219 101.309C54.8543 103.207 53.9219 106.449 52.6794 108.901C52.1349 110.088 51.4362 111.116 50.6595 112.144C49.8821 113.251 49.2613 114.041 49.2613 115.228C49.3384 116.652 49.5504 117.208 50.0162 118.554L50.1581 119.066C52.2559 119.383 56.488 119.638 59.9323 119.374L62.6017 119.186L60.2709 117.842C60.2709 117.842 59.0277 117.13 59.1273 115.228C59.1273 112.46 60.8364 113.409 65.7301 113.409H67.6721C68.5267 113.409 69.3041 112.934 69.9249 112.302L70.3137 111.828C72.1006 109.613 76.2957 104.314 78.1598 103.128C78.9372 102.574 79.8689 102.178 80.8013 102.021C82.3546 101.625 83.8307 100.834 84.9964 99.6474C85.5401 99.0942 86.0059 98.4618 86.3167 97.7499C86.6275 97.0379 86.7834 96.2472 86.7834 95.4564C86.7834 94.5072 87.0163 93.5577 87.56 92.767C88.1816 91.8974 89.0362 91.1855 90.0457 90.6319C91.289 89.8412 92.8422 88.892 93.5418 86.7564C94.5516 83.9094 94.7074 82.0904 93.7747 80.7464C92.8422 79.4012 90.9781 78.7689 87.715 78.7689H87.4821Z" fill="#046C7C"/>
<path d="M59.265 10.229C60.3477 10.5453 61.5086 10.7036 62.6692 10.7036C63.3649 10.7036 63.8293 10.7036 64.0614 10.8617C64.2937 11.2571 64.5258 11.6525 64.6029 12.048C64.9899 13.1552 65.4544 14.4996 66.7694 15.1324C67.853 15.6069 69.013 15.7651 70.1737 15.7651C71.1796 15.7651 73.8103 15.6069 75.2803 14.1833C78.2975 11.2571 73.825 5.79108 73.67 5.55385L73.498 5.33381C68.1585 3.6172 62.0446 2.69295 55.2422 2.87397L55.3963 3.74391C55.4743 4.29743 56.402 9.27993 59.265 10.229Z" fill="#046C7C"/>
<path d="M107.927 48.0872C109.629 44.6858 109.475 41.0483 107.309 37.5681C103.363 30.9249 93.7691 26.4961 87.3477 26.4961C80.926 26.4961 80.6168 28.1569 79.7659 31.0831C78.9923 33.4556 78.7603 36.0657 79.2247 38.5173C79.6109 41.0483 80.6168 43.3418 82.1639 45.3977C85.8003 50.3806 92.1449 53.7021 98.0243 53.7021C103.904 53.7021 106.071 51.7246 107.927 48.0872Z" fill="#046C7C"/>
<path d="M59.5533 73.9958C66.3298 63.8113 77.4352 62.0372 82.1414 62.4229L91.176 69.3662C98.4044 86.9579 90.9478 104.821 86.2424 111.186C68.0289 122.057 50.5483 120.385 39.5684 116.644C39.5684 110.278 51.0833 86.7261 59.5533 73.9958Z" fill="#2A4259"/>
<path d="M72.4917 72.9172C67.8495 73.5503 64.1058 71.2207 62.9457 69.9023C55.6689 77.2968 48.0448 93.2817 46.3691 97.7631C46.9874 98.0791 48.3782 98.3567 48.8941 98.621C52.9172 98.937 53.9236 100.862 53.9236 101.784C60.113 103.682 72.1264 103.22 77.4125 102.692C77.7995 102.297 79.1447 101.309 81.002 100.993C83.3227 100.597 86.4178 97.8302 86.4178 94.2704C86.4178 91.4234 89.7706 89.3942 91.4466 88.7351C92.6072 87.0211 94.6187 82.8818 93.3808 80.0351C92.1428 77.1881 86.1593 77.7943 83.3227 78.4536C81.7756 80.6942 78.3711 83.9897 77.1334 79.2444C75.8954 74.499 73.523 73.0489 72.4917 72.9172Z" fill="#046C7C"/>
<path d="M72.4917 72.9172C67.8495 73.5503 64.1058 71.2207 62.9457 69.9023C55.6689 77.2968 48.0448 93.2817 46.3691 97.7631C46.9874 98.0791 48.3782 98.3567 48.8941 98.621C52.9172 98.937 53.9236 100.862 53.9236 101.784C60.113 103.682 72.1264 103.22 77.4125 102.692C77.7995 102.297 79.1447 101.309 81.002 100.993C83.3227 100.597 86.4178 97.8302 86.4178 94.2704C86.4178 91.4234 89.7706 89.3942 91.4466 88.7351C92.6072 87.0211 94.6187 82.8818 93.3808 80.0351C92.1428 77.1881 86.1593 77.7943 83.3227 78.4536C81.7756 80.6942 78.3711 83.9897 77.1334 79.2444C75.8954 74.499 73.523 73.0489 72.4917 72.9172Z" fill="#00144A"/>
<path d="M100.486 34.1836C100.567 34.1836 100.726 34.2655 100.807 34.3471C100.726 34.3471 100.567 34.2655 100.486 34.1836Z" fill="#D0C1CB"/>
<path d="M101.445 34.5938C101.445 34.5938 101.606 34.5938 101.686 34.6757C101.686 34.6757 101.526 34.6757 101.445 34.5938Z" fill="#D0C1CB"/>
<path d="M99.4453 33.7734C99.6048 33.7734 99.6843 33.8551 99.8446 33.9367C99.6843 33.9367 99.6048 33.8551 99.4453 33.7734Z" fill="#D0C1CB"/>
<path d="M35.7743 93.9839C10.3544 82.5873 2.32409 57.9914 2.19513 45.0742C-4.69389 67.9609 4.08967 103.92 38.4493 116.244C68.2872 126.946 92.1386 110.007 102.087 96.8337C66.885 106.325 57.8243 103.869 35.7743 93.9839Z" fill="#3B5B7C"/>
<path d="M95.3281 34.9844C95.4831 34.9844 95.7155 34.9844 95.8705 35.0634C95.7155 35.0634 95.4831 35.0635 95.3281 34.9844Z" fill="#D0C1CB"/>
<path fill-rule="evenodd" clip-rule="evenodd" d="M46.0677 98.3789C42.2922 106.386 39.5642 113.553 39.5605 116.656C42.4088 117.612 45.2232 118.307 47.9888 118.771C50.77 119.232 53.7663 119.507 56.9301 119.51C68.1683 119.488 78.278 115.926 86.2391 111.198C88.0469 108.751 90.2588 104.609 91.8892 99.4385C69.9745 104.558 59.6927 103.63 46.0677 98.3789Z" fill="#2A4259"/>
<path d="M69.8595 111.075L77.8746 101.557C65.0762 102.765 59.0049 101.659 53.8935 100.449C53.9605 100.503 54.3509 101.497 54.0493 103.428C53.6731 105.843 50.2855 111.88 49.5329 113.087C48.9304 114.054 49.8707 117.322 50.3726 118.932C53.4316 119.38 59.004 119.559 62.2293 119.112C62.2293 119.112 60.0723 117.917 59.3196 116.71C56.4796 112.155 60.4485 112.283 64.5895 112.685C67.902 113.007 69.4833 111.746 69.8595 111.075Z" fill="#3B5B7C"/>
<path d="M69.8537 111.075L77.8687 101.557C65.0704 102.765 58.999 101.659 53.8876 100.449C53.9547 100.503 54.3451 101.497 54.0434 103.428C53.6672 105.843 50.2797 111.88 49.527 113.087C48.9246 114.054 49.8648 117.323 50.3668 118.933C53.4257 119.38 58.9982 119.559 62.2235 119.112C62.2235 119.112 60.0664 117.917 59.3137 116.71C56.4738 112.155 60.4426 112.283 64.5837 112.685C67.8961 113.007 69.4775 111.746 69.8537 111.075Z" fill="#00144A"/>
<path d="M108.232 70.9489C107.993 70.5395 107.113 68.9043 105.593 68.7404C104.393 68.6591 103.434 69.3949 102.073 71.1118C98.554 75.6089 98.3937 76.7544 99.354 79.6978C99.5134 80.1885 99.834 80.5969 100.234 80.9246C100.634 81.1701 101.114 81.3331 101.593 81.3331C103.353 81.3331 105.273 80.1071 105.753 79.7794C106.073 79.534 106.313 79.2888 106.553 79.0433C109.033 76.4267 108.393 72.1748 108.153 70.9489H108.232Z" fill="#046C7C"/>
<path d="M124.79 55.9622C126.582 63.6217 123.63 71.5094 119.944 77.1408C116.628 82.2011 111.033 85.7666 103.708 86.6614C87.5515 88.6321 70.2581 76.8694 65.8983 60.932C61.5388 44.9946 71.1141 29.8235 86.4568 29.1C101.196 28.4051 119.846 41.8481 124.79 55.9622Z" fill="#8D2A00"/>
<path d="M123.709 52.032C128.849 66.703 121.094 80.4986 105.62 82.3885C89.4633 84.3591 72.1699 72.5965 67.8104 56.659C63.4509 40.7216 73.274 28.8303 88.6215 28.1068C103.361 27.4118 118.769 37.9224 123.713 52.032H123.709Z" fill="#C35500"/>
<path d="M120.262 52.3179C124.673 65.0804 117.834 76.981 104.419 78.5471C90.4886 80.1705 75.6044 70.0454 71.7828 56.3357C68.0967 43.1116 76.3527 32.1534 89.6747 31.4633C102.538 30.8014 116.001 39.9841 120.267 52.3179H120.262Z" fill="#D0C1CB"/>
<path d="M123.522 123.596L114.709 125.985L100.709 80.4531L108.965 79.4727L123.522 123.596Z" fill="#C35500"/>
<path d="M71.3203 46.0581L89.5397 31.4727C79.9692 32.0199 73.0416 37.8752 71.3203 46.0581Z" fill="#D0C1CB"/>
<path d="M104.42 78.5452C116.255 77.1648 122.967 67.7443 121.358 56.7812L92.207 77.1364C96.1597 78.4787 100.332 79.0214 104.42 78.5452Z" fill="#D5DADD"/>
<path d="M89.6719 31.463C90.0506 31.4439 90.4248 31.4345 90.8038 31.4297C90.4248 31.4297 90.0506 31.4439 89.6719 31.463Z" fill="#D0C1CB"/>
<path d="M101.912 33.6484C102.029 33.6962 102.146 33.7437 102.258 33.7912C102.141 33.7437 102.029 33.6962 101.912 33.6484Z" fill="#D0C1CB"/>
<path d="M102.973 34.0977C103.052 34.1358 103.132 34.1739 103.211 34.2072C103.132 34.1691 103.052 34.1312 102.973 34.0977Z" fill="#D0C1CB"/>
<path d="M100.838 33.2344C100.969 33.2822 101.104 33.3297 101.236 33.382C101.104 33.3297 100.973 33.2822 100.838 33.2344Z" fill="#D0C1CB"/>
<path d="M93.5566 31.5586C93.772 31.5774 93.9871 31.601 94.2069 31.6294C93.9918 31.6058 93.7765 31.5822 93.5566 31.5586Z" fill="#D0C1CB"/>
<path d="M92.3906 31.4727C92.6149 31.4869 92.8442 31.4963 93.0687 31.5153C92.8442 31.4963 92.6149 31.482 92.3906 31.4727Z" fill="#D0C1CB"/>
<path d="M94.7031 31.6914C94.9135 31.7199 95.1289 31.7531 95.3392 31.7861C95.1289 31.7531 94.9182 31.7199 94.7031 31.6914Z" fill="#D0C1CB"/>
<path d="M91.1816 31.4336C91.4343 31.4336 91.6822 31.4384 91.9346 31.4478C91.6822 31.4384 91.4296 31.4336 91.1816 31.4336Z" fill="#D0C1CB"/>
<path d="M121.563 58.7668C120.871 44.5906 107.488 33.2515 94.2035 31.5617C89.5821 31.1284 81.4569 31.1284 75.5583 37.6547C74.8941 38.388 74.2719 39.2448 73.692 40.1493C73.5938 40.3015 73.5376 40.4062 73.4488 40.5538C73.4347 40.5729 73.4299 40.5968 73.416 40.6204C80.4093 32.0472 91.5887 31.4996 101.468 35.4984C111.693 39.635 120.525 48.6462 121.563 58.7762V58.7668Z" fill="#8D2A00"/>
<path d="M87.349 33.2245L71.3186 46.0581C70.6589 49.2001 70.7618 52.6797 71.7817 56.3356C71.8657 56.6403 71.9595 56.9401 72.0577 57.2402L103.075 36.195C97.9952 33.8768 92.4943 32.7248 87.349 33.2245Z" fill="#D5DADD"/>
<path d="M97.3496 82.2511L102.154 85.1502C102.154 85.1502 101.153 82.6226 104.446 82.275V82.2227C103.127 82.4272 100.47 82.6985 97.3496 82.2465V82.2511Z" fill="#8D2A00"/>
<path d="M107.938 81.7733C108.606 81.8018 109.776 82.3064 110.332 83.7582L111.127 81.1211C111.127 81.1211 110.393 81.4829 107.938 81.7685V81.7733Z" fill="#8D2A00"/>
<path d="M114.71 125.982L101.584 83.3438L102.468 82.4396C102.468 82.4396 104.147 82.3395 106.056 81.9492C106.056 81.9492 105.396 82.7061 105.588 83.7535C106.355 87.8662 118.835 125.182 118.835 125.182L114.705 125.982H114.71Z" fill="#8D2A00"/>
<path d="M123.522 123.591C123.522 124.086 121.249 124.91 117.53 125.886C115.692 126.262 114.789 126.214 114.709 125.981C114.653 125.814 115.659 125.172 117.483 124.572C120.215 123.701 123.213 123.211 123.522 123.591Z" fill="#8D2A00"/>
</svg>
