<svg width="160" height="161" viewBox="0 0 160 161" fill="none" xmlns="http://www.w3.org/2000/svg">
<path d="M61.6132 80.1924H80.1215C81.3992 80.1924 82.4351 79.1566 82.4351 77.8788C82.4351 76.6011 81.3992 75.5653 80.1215 75.5653H61.6132C60.3355 75.5653 59.2997 76.6011 59.2997 77.8788C59.2997 79.1566 60.3355 80.1924 61.6132 80.1924Z" fill="#F58B00"/>
<path d="M30.0046 150.36C29.4779 150.363 28.9666 150.182 28.5586 149.849C22.3796 144.875 19.4491 139.101 20.0853 133.134C21.0493 123.861 29.0117 118.173 43.6544 116.245C54.3448 114.838 65.1124 115.108 75.5233 115.368C79.1478 115.455 82.9074 115.551 86.5897 115.57C89.4817 115.57 92.3736 115.725 95.1498 115.86C104.635 116.303 114.429 116.775 123.009 112.534C125.945 111.057 128.532 108.969 130.595 106.411C132.658 103.852 134.151 100.881 134.971 97.6984C135.949 94.2908 136.196 90.7154 135.698 87.2056C135.2 83.6959 133.967 80.3306 132.08 77.3297L131.829 76.9441C128.937 72.5099 124.888 70.6012 118.333 70.5626C117.72 70.5626 117.131 70.3189 116.697 69.885C116.264 69.4511 116.02 68.8627 116.02 68.2491C116.02 67.6355 116.264 67.047 116.697 66.6132C117.131 66.1793 117.72 65.9355 118.333 65.9355C126.546 65.9837 131.906 68.5961 135.685 74.4089L135.945 74.8137C138.187 78.36 139.658 82.3386 140.261 86.4908C140.864 90.6429 140.585 94.8755 139.444 98.913C138.45 102.725 136.654 106.281 134.175 109.343C131.697 112.406 128.593 114.903 125.071 116.669C115.432 121.431 105.011 120.94 94.9377 120.458C92.1807 120.332 89.3178 120.198 86.5704 120.178C82.8399 120.178 79.0707 120.063 75.4173 119.976C65.1799 119.716 54.5955 119.455 44.2714 120.814C31.8458 122.453 25.445 126.598 24.6931 133.606C24.2208 137.992 26.5054 142.282 31.4409 146.225C31.8144 146.525 32.0853 146.934 32.2162 147.395C32.3472 147.856 32.3317 148.347 32.1719 148.799C32.0121 149.251 31.7159 149.642 31.3242 149.918C30.9325 150.194 30.4646 150.342 29.9853 150.341L30.0046 150.36Z" fill="#00144A"/>
<path d="M59.9068 101.014H39.085V34.6836H59.9068C60.2106 34.6836 60.5114 34.7434 60.7921 34.8597C61.0728 34.976 61.3278 35.1464 61.5427 35.3612C61.7575 35.576 61.9279 35.8311 62.0442 36.1118C62.1604 36.3925 62.2203 36.6933 62.2203 36.9971C62.2203 37.301 62.1604 37.6018 62.0442 37.8825C61.9279 38.1631 61.7575 38.4182 61.5427 38.633C61.3278 38.8479 61.0728 39.0183 60.7921 39.1345C60.5114 39.2508 60.2106 39.3106 59.9068 39.3106H43.6735V96.3778H59.8682C60.4818 96.3778 61.0703 96.6215 61.5041 97.0554C61.938 97.4893 62.1817 98.0778 62.1817 98.6913C62.1817 99.3049 61.938 99.8933 61.5041 100.327C61.0703 100.761 60.4818 101.005 59.8682 101.005L59.9068 101.014Z" fill="#5B738B"/>
<path d="M61.6132 60.9131H80.1215C81.3992 60.9131 82.4351 59.8773 82.4351 58.5995C82.4351 57.3218 81.3992 56.286 80.1215 56.286H61.6132C60.3355 56.286 59.2997 57.3218 59.2997 58.5995C59.2997 59.8773 60.3355 60.9131 61.6132 60.9131Z" fill="#F58B00"/>
<path d="M79.6299 92.5313V43.1856C79.6299 41.9079 78.5941 40.8721 77.3164 40.8721C76.0387 40.8721 75.0028 41.9079 75.0028 43.1856V92.5313C75.0028 93.8091 76.0387 94.8449 77.3164 94.8449C78.5941 94.8449 79.6299 93.8091 79.6299 92.5313Z" fill="#64EDD2"/>
<path d="M100.548 89.447H79.3408V47.0322H100.548C106.173 47.0322 111.567 49.2666 115.544 53.2437C119.521 57.2209 121.756 62.6151 121.756 68.2396C121.756 73.8641 119.521 79.2583 115.544 83.2355C111.567 87.2126 106.173 89.447 100.548 89.447Z" fill="#64EDD2"/>
<path d="M121.813 68.1429C121.822 69.0816 121.758 70.0194 121.62 70.9481C120.941 65.8573 118.438 61.186 114.574 57.8016C110.711 54.4173 105.751 52.5498 100.616 52.5459H79.4082V46.9355H100.616C106.238 46.9381 111.63 49.1735 115.605 53.1504C119.58 57.1273 121.813 62.52 121.813 68.1429Z" fill="#00A58A"/>
<path fill-rule="evenodd" clip-rule="evenodd" d="M33.9138 151.819C34.7053 150.688 36.2641 150.412 37.3954 151.204C38.9899 152.319 39.7464 152.837 40.5054 153.357L40.5072 153.358C41.2756 153.884 42.047 154.412 43.6612 155.542C44.7925 156.333 45.0679 157.892 44.2763 159.023C43.4848 160.155 41.926 160.43 40.7947 159.638C39.2002 158.523 38.4436 158.005 37.6847 157.485L37.6829 157.484C36.9145 156.958 36.1431 156.43 34.5289 155.301C33.3976 154.509 33.1222 152.95 33.9138 151.819Z" fill="#00144A"/>
<path d="M122.667 0.0746896L101.074 18.2461C101.033 18.2819 101.003 18.3278 100.986 18.379C100.97 18.4302 100.968 18.4849 100.98 18.5373C100.992 18.5897 101.018 18.638 101.056 18.6769C101.093 18.7158 101.14 18.7441 101.193 18.7587L111.997 21.6318C112.04 21.6431 112.081 21.6638 112.115 21.6924C112.149 21.7209 112.176 21.7566 112.194 21.7969C112.212 21.8371 112.221 21.8809 112.221 21.9251C112.22 21.9692 112.209 22.0126 112.189 22.0521L104.615 37.1608C104.583 37.2222 104.573 37.2928 104.588 37.3604C104.603 37.428 104.641 37.4883 104.696 37.5311C104.75 37.5739 104.819 37.5964 104.889 37.5948C104.958 37.5932 105.025 37.5675 105.078 37.5222L126.895 19.402C126.936 19.3669 126.967 19.3212 126.984 19.2699C127.001 19.2187 127.004 19.1637 126.992 19.111C126.98 19.0583 126.954 19.0098 126.916 18.9708C126.878 18.9317 126.831 18.9036 126.778 18.8894L115.8 16.042C115.757 16.0302 115.717 16.0092 115.683 15.9805C115.649 15.9517 115.621 15.9159 115.603 15.8755C115.584 15.8352 115.575 15.7913 115.576 15.747C115.576 15.7027 115.586 15.659 115.606 15.6191L123.133 0.433511C123.165 0.371863 123.175 0.30104 123.16 0.233311C123.145 0.165581 123.106 0.105209 123.051 0.0626288C122.996 0.0200489 122.927 -0.00205372 122.857 0.000150238C122.787 0.00235419 122.72 0.0287181 122.667 0.0746896Z" fill="#F58B00"/>
</svg>
