<svg width="157" height="150" viewBox="0 0 157 150" fill="none" xmlns="http://www.w3.org/2000/svg">
<path d="M64 128C99.3462 128 128 99.3462 128 64C128 28.6538 99.3462 0 64 0C28.6538 0 0 28.6538 0 64C0 99.3462 28.6538 128 64 128Z" fill="#223548"/>
<path fill-rule="evenodd" clip-rule="evenodd" d="M83.8693 124.855C107.876 117.022 125.642 95.3793 127.783 69.3099L98.4356 55.6069C96.7927 54.8399 94.8361 55.5513 94.0655 57.196L67.6184 113.637C66.8477 115.282 67.5547 117.237 69.1976 118.004L83.8693 124.855Z" fill="#2A4259"/>
<path fill-rule="evenodd" clip-rule="evenodd" d="M119.501 86.6792C119.991 87.284 119.898 88.1717 119.293 88.6618L103.491 101.468C103.119 101.77 102.618 101.861 102.162 101.711C101.706 101.56 101.358 101.188 101.239 100.723L99.0759 92.3086L85.9389 102.308C85.3194 102.779 84.435 102.659 83.9635 102.04C83.492 101.42 83.612 100.536 84.2315 100.064L99.0586 88.7788C99.4345 88.4927 99.9287 88.4139 100.375 88.5689C100.821 88.7239 101.16 89.0921 101.278 89.5496L103.423 97.8947L117.518 86.4715C118.123 85.9814 119.011 86.0744 119.501 86.6792Z" fill="#324E6B"/>
<path d="M96.4307 69.8629C96.5957 69.5104 97.0153 69.3584 97.3678 69.5234L99.2988 70.4275C99.6513 70.5925 99.8033 71.0121 99.6382 71.3646L85.3261 101.935C85.161 102.288 84.7415 102.44 84.3889 102.275L82.458 101.371C82.1055 101.206 81.9535 100.786 82.1185 100.433L96.4307 69.8629Z" fill="#223548"/>
<path fill-rule="evenodd" clip-rule="evenodd" d="M107.999 110.476L83.5344 99.1604C83.1811 98.997 82.7622 99.1509 82.5988 99.5042L81.7037 101.439C81.5403 101.793 81.6942 102.211 82.0475 102.375L105.118 113.046C106.104 112.218 107.065 111.361 107.999 110.476Z" fill="#223548"/>
<path d="M79.0671 108.619C79.3882 107.909 80.2263 107.588 80.9355 107.909L95.79 114.635C96.4992 114.956 96.8109 115.797 96.4899 116.507C96.1688 117.216 95.3307 117.537 94.6215 117.216L79.7669 110.491C79.0577 110.17 78.746 109.328 79.0671 108.619Z" fill="#223548"/>
<path fill-rule="evenodd" clip-rule="evenodd" d="M24.6624 114.487H86.3119C89.6583 114.487 92.371 111.774 92.371 108.428V44.281L75.6922 30.4531H12.3091C11.0097 30.4531 9.80593 30.8621 8.81936 31.5584C7.89753 33.123 7.04035 34.7302 6.25149 36.3764C6.2505 36.4215 6.25 36.4668 6.25 36.5122V91.6195C10.553 100.6 16.8892 108.421 24.6624 114.487Z" fill="#B9C1C6"/>
<path fill-rule="evenodd" clip-rule="evenodd" d="M21.0597 111.457H84.4944C87.1715 111.457 89.3417 109.287 89.3417 106.61V41.9511L71.9963 27.4238H11.4748C7.9766 32.438 5.17807 37.9765 3.2207 43.8978V84.1022C6.73222 94.725 12.9509 104.116 21.0597 111.457Z" fill="#CEDBE8"/>
<path d="M71.9023 41.8184L89.3413 45.3351V41.8184H71.9023Z" fill="white"/>
<path d="M71.9023 41.8194H89.3413L71.9023 27.4238V41.8194Z" fill="#B9C1C6"/>
<path d="M97.8751 22.8469C97.8751 21.9485 95.2671 21.2293 91.7825 21.066C91.5832 17.5858 90.8162 14.998 89.9176 15C89.0191 15.002 88.272 17.6097 88.0807 21.1078C84.5861 21.3469 81.9881 22.1278 82 23.0282C82.012 23.9286 84.608 24.6478 88.0927 24.8091C88.3019 28.2894 89.0589 30.8771 89.9555 30.8751C90.8521 30.8731 91.6032 28.2655 91.7944 24.7673C95.289 24.5283 97.885 23.7474 97.8751 22.8469Z" fill="#F58B00"/>
<path d="M114.231 40.0569C114.231 39.4779 112.55 39.0145 110.304 38.9092C110.176 36.6664 109.682 34.9987 109.102 35C108.523 35.0013 108.042 36.6818 107.919 38.9361C105.667 39.0902 103.992 39.5934 104 40.1737C104.008 40.754 105.681 41.2175 107.926 41.3214C108.061 43.5642 108.549 45.2319 109.127 45.2306C109.705 45.2293 110.189 43.5488 110.312 41.2945C112.564 41.1404 114.237 40.6372 114.231 40.0569Z" fill="#F58B00"/>
<rect x="13" y="51.8281" width="65.6545" height="50.6581" rx="3.53116" fill="#223548"/>
<path fill-rule="evenodd" clip-rule="evenodd" d="M22.3857 86.9628L45.3792 66.1855L46.5629 67.4955L23.5695 88.2727L22.3857 86.9628Z" fill="#3B5B7C"/>
<path fill-rule="evenodd" clip-rule="evenodd" d="M69.2666 86.9628L46.2731 66.1855L45.0894 67.4955L68.0829 88.2727L69.2666 86.9628Z" fill="#3B5B7C"/>
<path fill-rule="evenodd" clip-rule="evenodd" d="M44.836 85.7149L44.836 66.4863L46.6016 66.4863L46.6016 85.7149L44.836 85.7149Z" fill="#3B5B7C"/>
<path d="M52.7902 65.381C52.7902 69.1381 49.7445 72.1838 45.9874 72.1838C42.2303 72.1838 39.1846 69.1381 39.1846 65.381C39.1846 61.6239 42.2303 58.5781 45.9874 58.5781C49.7445 58.5781 52.7902 61.6239 52.7902 65.381Z" fill="#F58B00"/>
<path fill-rule="evenodd" clip-rule="evenodd" d="M40.8828 69.8756C41.2309 68.0784 42.8061 66.7722 44.6461 66.7722H47.3516C49.1852 66.7722 50.7558 68.0693 51.1112 69.8568C49.8642 71.2825 48.0317 72.183 45.9888 72.183C43.9549 72.183 42.1294 71.2904 40.8828 69.8756ZM48.2989 62.9388C48.2989 64.2091 47.2692 65.2389 45.9989 65.2389C44.7286 65.2389 43.6988 64.2091 43.6988 62.9388C43.6988 61.6685 44.7286 60.6387 45.9989 60.6387C47.2692 60.6387 48.2989 61.6685 48.2989 62.9388Z" fill="#CEDBE8"/>
<path fill-rule="evenodd" clip-rule="evenodd" d="M45.9874 70.536C48.8343 70.536 51.1423 68.228 51.1423 65.381C51.1423 62.534 48.8343 60.226 45.9874 60.226C43.1404 60.226 40.8324 62.534 40.8324 65.381C40.8324 68.228 43.1404 70.536 45.9874 70.536ZM45.9874 72.1838C49.7445 72.1838 52.7902 69.1381 52.7902 65.381C52.7902 61.6239 49.7445 58.5781 45.9874 58.5781C42.2303 58.5781 39.1846 61.6239 39.1846 65.381C39.1846 69.1381 42.2303 72.1838 45.9874 72.1838Z" fill="#F58B00"/>
<path d="M31.6037 88.922C31.6037 92.6791 28.5579 95.7248 24.8008 95.7248C21.0438 95.7248 17.998 92.6791 17.998 88.922C17.998 85.1649 21.0438 82.1191 24.8008 82.1191C28.5579 82.1191 31.6037 85.1649 31.6037 88.922Z" fill="#4098FF"/>
<path fill-rule="evenodd" clip-rule="evenodd" d="M19.6952 93.4162C20.0434 91.6192 21.6185 90.3132 23.4584 90.3132H26.1638C27.9976 90.3132 29.5683 91.6105 29.9235 93.3982C28.6766 94.8237 26.8441 95.724 24.8014 95.724C22.7673 95.724 20.9418 94.8313 19.6952 93.4162ZM27.1112 86.4798C27.1112 87.7501 26.0814 88.7799 24.8111 88.7799C23.5409 88.7799 22.5111 87.7501 22.5111 86.4798C22.5111 85.2095 23.5409 84.1797 24.8111 84.1797C26.0814 84.1797 27.1112 85.2095 27.1112 86.4798Z" fill="#CEDBE8"/>
<path fill-rule="evenodd" clip-rule="evenodd" d="M24.8008 94.077C27.6478 94.077 29.9558 91.769 29.9558 88.922C29.9558 86.075 27.6478 83.767 24.8008 83.767C21.9539 83.767 19.6459 86.075 19.6459 88.922C19.6459 91.769 21.9539 94.077 24.8008 94.077ZM24.8008 95.7248C28.5579 95.7248 31.6037 92.6791 31.6037 88.922C31.6037 85.1649 28.5579 82.1191 24.8008 82.1191C21.0438 82.1191 17.998 85.1649 17.998 88.922C17.998 92.6791 21.0438 95.7248 24.8008 95.7248Z" fill="#4098FF"/>
<path d="M52.7902 88.922C52.7902 92.6791 49.7445 95.7248 45.9874 95.7248C42.2303 95.7248 39.1846 92.6791 39.1846 88.922C39.1846 85.1649 42.2303 82.1191 45.9874 82.1191C49.7445 82.1191 52.7902 85.1649 52.7902 88.922Z" fill="#1782FF"/>
<path fill-rule="evenodd" clip-rule="evenodd" d="M40.8828 93.4166C41.2309 91.6194 42.8061 90.3132 44.6461 90.3132H47.3516C49.1852 90.3132 50.7558 91.6103 51.1112 93.3979C49.8642 94.8235 48.0317 95.724 45.9888 95.724C43.9549 95.724 42.1294 94.8314 40.8828 93.4166ZM48.2989 86.4798C48.2989 87.7501 47.2692 88.7799 45.9989 88.7799C44.7286 88.7799 43.6988 87.7501 43.6988 86.4798C43.6988 85.2095 44.7286 84.1797 45.9989 84.1797C47.2692 84.1797 48.2989 85.2095 48.2989 86.4798Z" fill="#CEDBE8"/>
<path fill-rule="evenodd" clip-rule="evenodd" d="M45.9874 94.077C48.8343 94.077 51.1423 91.769 51.1423 88.922C51.1423 86.075 48.8343 83.767 45.9874 83.767C43.1404 83.767 40.8324 86.075 40.8324 88.922C40.8324 91.769 43.1404 94.077 45.9874 94.077ZM45.9874 95.7248C49.7445 95.7248 52.7902 92.6791 52.7902 88.922C52.7902 85.1649 49.7445 82.1191 45.9874 82.1191C42.2303 82.1191 39.1846 85.1649 39.1846 88.922C39.1846 92.6791 42.2303 95.7248 45.9874 95.7248Z" fill="#1782FF"/>
<path d="M73.9787 88.922C73.9787 92.6791 70.9329 95.7248 67.1758 95.7248C63.4188 95.7248 60.373 92.6791 60.373 88.922C60.373 85.1649 63.4188 82.1191 67.1758 82.1191C70.9329 82.1191 73.9787 85.1649 73.9787 88.922Z" fill="#4098FF"/>
<path fill-rule="evenodd" clip-rule="evenodd" d="M62.0693 93.4161C62.4176 91.6192 63.9927 90.3132 65.8326 90.3132H68.538C70.3718 90.3132 71.9425 91.6106 72.2977 93.3983C71.0508 94.8237 69.2184 95.724 67.1757 95.724C65.1416 95.724 63.316 94.8312 62.0693 93.4161ZM69.4854 86.4798C69.4854 87.7501 68.4556 88.7799 67.1853 88.7799C65.915 88.7799 64.8852 87.7501 64.8852 86.4798C64.8852 85.2095 65.915 84.1797 67.1853 84.1797C68.4556 84.1797 69.4854 85.2095 69.4854 86.4798Z" fill="#CEDBE8"/>
<path fill-rule="evenodd" clip-rule="evenodd" d="M67.1758 94.077C70.0228 94.077 72.3308 91.769 72.3308 88.922C72.3308 86.075 70.0228 83.767 67.1758 83.767C64.3289 83.767 62.0209 86.075 62.0209 88.922C62.0209 91.769 64.3289 94.077 67.1758 94.077ZM67.1758 95.7248C70.9329 95.7248 73.9787 92.6791 73.9787 88.922C73.9787 85.1649 70.9329 82.1191 67.1758 82.1191C63.4188 82.1191 60.373 85.1649 60.373 88.922C60.373 92.6791 63.4188 95.7248 67.1758 95.7248Z" fill="#4098FF"/>
<path d="M25.8611 37H14.5469C13.7842 37 13.166 37.6182 13.166 38.3809C13.166 39.1435 13.7842 39.7617 14.5469 39.7617H25.8611C26.6237 39.7617 27.2419 39.1435 27.2419 38.3809C27.2419 37.6182 26.6237 37 25.8611 37Z" fill="#0070F3"/>
<path d="M37.0944 42.3652H14.3363C13.69 42.3652 13.166 42.8892 13.166 43.5355C13.166 44.1818 13.69 44.7058 14.3363 44.7058H37.0944C37.7407 44.7058 38.2647 44.1818 38.2647 43.5355C38.2647 42.8892 37.7407 42.3652 37.0944 42.3652Z" fill="#1782FF"/>
</svg>
