<svg width="160" height="160" viewBox="0 0 160 160" fill="none" xmlns="http://www.w3.org/2000/svg">
<mask id="mask0_4434_140584" style="mask-type:alpha" maskUnits="userSpaceOnUse" x="0" y="0" width="160" height="160">
<circle cx="80" cy="80" r="80" fill="#EBF8FF"/>
</mask>
<g mask="url(#mask0_4434_140584)">
<path d="M204.314 -5.51562H-36.5906C-38.1609 -5.51707 -39.7161 -5.20903 -41.1672 -4.60912C-42.6184 -4.00921 -43.9371 -3.12918 -45.0479 -2.01934C-46.1588 -0.909505 -47.04 0.408373 -47.6413 1.85898C-48.2425 3.30958 -48.552 4.86446 -48.552 6.43473V148.04C-48.552 151.213 -47.2918 154.255 -45.0486 156.498C-42.8054 158.741 -39.763 160.002 -36.5906 160.002H204.314C207.487 160.002 210.529 158.741 212.772 156.498C215.015 154.255 216.276 151.213 216.276 148.04V6.43473C216.276 4.86446 215.966 3.30958 215.365 1.85898C214.764 0.408373 213.882 -0.909505 212.772 -2.01934C211.661 -3.12918 210.342 -4.00921 208.891 -4.60912C207.44 -5.20903 205.884 -5.51707 204.314 -5.51562V-5.51562Z" fill="#101619"/>
<path d="M139.441 8.41406H93.9389C92.0921 8.41406 90.2634 8.77815 88.5572 9.48552C86.8511 10.1929 85.3008 11.2297 83.9949 12.5368C82.6891 13.8438 81.6531 15.3956 80.9464 17.1033C80.2397 18.8111 79.876 20.6414 79.876 22.4899C79.876 24.3384 80.2397 26.1688 80.9464 27.8765C81.6531 29.5843 82.6891 31.136 83.9949 32.4431C85.3008 33.7501 86.8511 34.7869 88.5572 35.4943C90.2634 36.2017 92.0921 36.5658 93.9389 36.5658H139.441C143.17 36.5658 146.747 35.0828 149.385 32.4431C152.022 29.8033 153.504 26.2231 153.504 22.4899C153.504 18.7568 152.022 15.1765 149.385 12.5368C146.747 9.89704 143.17 8.41406 139.441 8.41406V8.41406Z" fill="#2A4259"/>
<path d="M57.1508 124.27H11.6491C9.8023 124.27 7.97364 124.634 6.26745 125.341C4.56126 126.048 3.01099 127.085 1.70512 128.392C0.399261 129.699 -0.63665 131.251 -1.34338 132.959C-2.05011 134.667 -2.41382 136.497 -2.41382 138.345C-2.41382 140.194 -2.05011 142.024 -1.34338 143.732C-0.63665 145.44 0.399261 146.991 1.70512 148.299C3.01099 149.606 4.56126 150.642 6.26745 151.35C7.97364 152.057 9.8023 152.421 11.6491 152.421H57.1508C60.8805 152.421 64.4575 150.938 67.0948 148.299C69.7321 145.659 71.2138 142.079 71.2138 138.345C71.2138 134.612 69.7321 131.032 67.0948 128.392C64.4575 125.753 60.8805 124.27 57.1508 124.27V124.27Z" fill="#2A4259"/>
<path d="M173.006 32.2344H127.505C125.658 32.2344 123.829 32.5985 122.123 33.3058C120.417 34.0132 118.866 35.05 117.561 36.3571C116.255 37.6642 115.219 39.2159 114.512 40.9236C113.805 42.6314 113.442 44.4618 113.442 46.3102C113.442 48.1587 113.805 49.9891 114.512 51.6968C115.219 53.4046 116.255 54.9563 117.561 56.2634C118.866 57.5704 120.417 58.6073 122.123 59.3146C123.829 60.022 125.658 60.3861 127.505 60.3861H173.006C176.736 60.3861 180.313 58.9031 182.95 56.2634C185.588 53.6236 187.069 50.0434 187.069 46.3102C187.069 42.5771 185.588 38.9968 182.95 36.3571C180.313 33.7174 176.736 32.2344 173.006 32.2344V32.2344Z" fill="#2A4259"/>
</g>
<path d="M113.768 134.24C113.776 133.736 112.319 133.307 110.364 133.182C110.286 131.226 109.88 129.766 109.375 129.759C108.871 129.752 108.427 131.208 108.286 133.17C106.322 133.271 104.856 133.685 104.854 134.191C104.852 134.696 106.303 135.125 108.257 135.248C108.342 137.204 108.742 138.664 109.245 138.671C109.749 138.679 110.195 137.222 110.336 135.26C112.3 135.159 113.765 134.746 113.768 134.24Z" fill="#F58B00"/>
<path d="M64.9725 23.6641C64.9727 23.2821 63.864 22.9758 62.3823 22.9056C62.2984 21.4257 61.9728 20.3253 61.5907 20.3259C61.2086 20.3266 60.8904 21.4352 60.8083 22.9226C59.3224 23.0235 58.2175 23.3549 58.2224 23.7378C58.2273 24.1207 59.331 24.427 60.8126 24.4964C60.9008 25.9762 61.2222 27.0767 61.6034 27.076C61.9846 27.0754 62.3045 25.9668 62.3866 24.4794C63.8726 24.3785 64.9766 24.047 64.9725 23.6641Z" fill="#F58B00"/>
<path d="M140.167 53.1649C140.167 49.717 137.372 46.9219 133.924 46.9219H42.1815C38.7335 46.9219 35.9384 49.717 35.9384 53.1649V104.153C35.9384 107.083 38.314 109.459 41.2444 109.459H45.9928C48.8731 109.459 50.3499 112.91 48.3612 114.994V114.994C45.701 117.781 49.2021 122.074 52.4674 120.029L67.9893 110.308C68.8752 109.753 69.8993 109.459 70.9446 109.459H133.924C137.372 109.459 140.167 106.664 140.167 103.216V53.1649Z" fill="#D5DADD"/>
<path fill-rule="evenodd" clip-rule="evenodd" d="M48.833 114.37C48.9711 114.136 49.0752 113.892 49.1474 113.643C49.1789 113.535 49.2043 113.426 49.2239 113.316C49.2701 113.057 49.2834 112.795 49.2662 112.537C49.2485 112.272 49.1988 112.01 49.1195 111.758C48.4202 111.805 47.8158 112.321 47.6873 113.042C47.6349 113.336 47.4972 113.637 47.2322 113.914C46.3443 114.845 45.8995 115.952 45.863 117.071C45.8348 117.933 46.5105 118.654 47.372 118.682C47.5051 118.686 47.6348 118.674 47.7591 118.647C47.6427 118.409 47.5536 118.158 47.4962 117.899C47.4401 117.646 47.4143 117.385 47.4229 117.122C47.4315 116.859 47.4745 116.593 47.5559 116.329C47.6312 116.086 47.7393 115.844 47.8834 115.609C48.0128 115.398 48.1713 115.191 48.3612 114.992C48.5487 114.796 48.7054 114.587 48.833 114.37ZM57.6707 116.769C58.1282 117.499 57.9069 118.462 57.1764 118.92L53.2959 121.35C52.2061 122.033 51.0317 122.246 49.9281 122.056C49.0785 121.91 48.508 121.103 48.6538 120.254C48.6763 120.123 48.7146 119.998 48.7664 119.882C48.9757 120.044 49.2036 120.181 49.4457 120.29C49.6823 120.396 49.9324 120.473 50.1921 120.518C50.907 120.641 51.6939 120.512 52.4674 120.027L57.6707 116.769ZM76.4416 109.457C76.4416 110.319 75.7428 111.018 74.8808 111.018H70.9446C70.1924 111.018 69.4553 111.23 68.8178 111.629L64.9373 114.059C64.2068 114.517 63.2437 114.296 62.7861 113.565L67.9894 110.306C68.8752 109.752 69.8993 109.457 70.9446 109.457H76.4416ZM92.1864 109.457C92.1864 110.319 91.4876 111.018 90.6256 111.018H82.7532C81.8912 111.018 81.1924 110.319 81.1924 109.457H92.1864ZM107.931 109.457C107.931 110.319 107.232 111.018 106.37 111.018H98.4981C97.6361 111.018 96.9373 110.319 96.9373 109.457H107.931ZM123.676 109.457C123.676 110.319 122.977 111.018 122.115 111.018H114.243C113.381 111.018 112.682 110.319 112.682 109.457H123.676ZM137.669 108.21C137.701 108.266 137.73 108.324 137.755 108.386C138.086 109.182 137.708 110.095 136.912 110.425C135.989 110.808 134.979 111.018 133.924 111.018H129.988C129.126 111.018 128.427 110.319 128.427 109.457H133.924C134.77 109.457 135.578 109.289 136.314 108.984C136.555 108.883 136.789 108.768 137.014 108.64C137.242 108.51 137.461 108.366 137.669 108.21ZM140.167 97.4826C141.029 97.4826 141.728 98.1813 141.728 99.0433V103.214C141.728 104.27 141.517 105.28 141.135 106.202C140.805 106.998 139.892 107.376 139.095 107.046C139.034 107.02 138.975 106.991 138.919 106.96C139.076 106.751 139.22 106.532 139.35 106.305C139.478 106.08 139.593 105.846 139.693 105.604C139.999 104.868 140.167 104.061 140.167 103.214V97.4826ZM140.167 80.7989C141.029 80.7989 141.728 81.4977 141.728 82.3596V90.7015C141.728 91.5635 141.029 92.2623 140.167 92.2623V80.7989ZM140.167 64.1152C141.029 64.1152 141.728 64.814 141.728 65.676V74.0178C141.728 74.8798 141.029 75.5786 140.167 75.5786V64.1152ZM138.919 49.4179C138.975 49.3859 139.034 49.3571 139.095 49.3317C139.892 49.0015 140.805 49.3793 141.135 50.1756C141.517 51.0979 141.728 52.1079 141.728 53.1632V57.3341C141.728 58.1961 141.029 58.8949 140.167 58.8949V53.1632C140.167 52.3167 139.999 51.5095 139.693 50.7734C139.593 50.5318 139.478 50.2979 139.35 50.0727C139.22 49.8451 139.076 49.6265 138.919 49.4179ZM128.541 46.9201C128.541 46.0582 129.239 45.3594 130.101 45.3594H133.924C134.979 45.3594 135.989 45.5697 136.912 45.9521C137.708 46.2823 138.086 47.1955 137.755 47.9917C137.73 48.053 137.701 48.1117 137.669 48.1679C137.461 48.0113 137.242 47.8674 137.014 47.7375C136.789 47.609 136.555 47.494 136.314 47.3939C135.578 47.0886 134.77 46.9201 133.924 46.9201H128.541ZM113.25 46.9201C113.25 46.0582 113.949 45.3594 114.811 45.3594H122.456C123.318 45.3594 124.017 46.0582 124.017 46.9201H113.25ZM97.9598 46.9201C97.9598 46.0582 98.6585 45.3594 99.5205 45.3594H107.166C108.028 45.3594 108.726 46.0582 108.726 46.9201H97.9598ZM82.6694 46.9201C82.6694 46.0582 83.3681 45.3594 84.2301 45.3594H91.8753C92.7373 45.3594 93.4361 46.0582 93.4361 46.9201H82.6694ZM67.3789 46.9201C67.3789 46.0582 68.0777 45.3594 68.9397 45.3594H76.5849C77.4469 45.3594 78.1457 46.0582 78.1457 46.9201H67.3789ZM52.0885 46.9201C52.0885 46.0582 52.7873 45.3594 53.6493 45.3594H61.2945C62.1565 45.3594 62.8553 46.0582 62.8553 46.9201H52.0885ZM39.091 47.7375C39.3162 47.609 39.5501 47.4941 39.7917 47.3939C40.5278 47.0886 41.335 46.9201 42.1815 46.9201H47.5648C47.5648 46.0582 46.8661 45.3594 46.0041 45.3594H42.1815C41.1262 45.3594 40.1161 45.5697 39.1939 45.9521C38.3976 46.2823 38.0198 47.1955 38.35 47.9917C38.3754 48.053 38.4042 48.1117 38.4362 48.1679C38.6447 48.0113 38.8634 47.8674 39.091 47.7375ZM35.9384 58.973C35.0764 58.973 34.3777 58.2742 34.3777 57.4122V53.1632C34.3777 52.1079 34.588 51.0979 34.9704 50.1756C35.3006 49.3793 36.2138 49.0015 37.01 49.3317C37.0712 49.3571 37.13 49.386 37.1862 49.4179C37.0296 49.6265 36.8857 49.8451 36.7558 50.0728C36.6272 50.2979 36.5123 50.5318 36.4121 50.7734C36.1069 51.5095 35.9384 52.3167 35.9384 53.1632V58.973ZM35.9384 75.969C35.0764 75.969 34.3777 75.2702 34.3777 74.4082V65.9102C34.3777 65.0482 35.0764 64.3495 35.9384 64.3495V75.969ZM35.9384 92.965C35.0764 92.965 34.3777 92.2663 34.3777 91.4043V82.9063C34.3777 82.0443 35.0764 81.3455 35.9384 81.3455V92.965ZM37.1451 107.52C37.0799 107.559 37.0111 107.594 36.9389 107.624C36.1427 107.954 35.2295 107.576 34.8993 106.78C34.5627 105.968 34.3777 105.079 34.3777 104.151V99.9023C34.3777 99.0403 35.0764 98.3415 35.9384 98.3415V104.151C35.9384 104.871 36.0816 105.557 36.341 106.182C36.4413 106.424 36.559 106.657 36.6924 106.879C36.8276 107.104 36.979 107.319 37.1451 107.52ZM48.8556 111.142C48.3393 111.615 47.5484 111.696 46.9381 111.291C46.6893 111.126 46.3766 111.018 45.9928 111.018H44.8057C44.3305 111.018 43.9049 110.806 43.6186 110.471C43.3324 110.806 42.9067 111.018 42.4315 111.018H41.2444C40.3162 111.018 39.4273 110.833 38.6155 110.496C37.8193 110.166 37.4414 109.253 37.7716 108.457C37.8016 108.385 37.8363 108.316 37.8754 108.251C38.0772 108.417 38.2914 108.568 38.5165 108.703C38.7387 108.837 38.9715 108.954 39.2134 109.055C39.839 109.314 40.525 109.457 41.2444 109.457H45.9928C46.6865 109.457 47.2988 109.658 47.8009 109.991C48.0204 110.136 48.2189 110.307 48.3939 110.498C48.5733 110.694 48.7281 110.91 48.8556 111.142Z" fill="#F58B00"/>
<path d="M103.18 79.3084C103.18 82.7622 105.98 85.5621 109.434 85.5621C112.888 85.5621 115.688 82.7622 115.688 79.3084C115.688 75.8546 112.888 73.0547 109.434 73.0547C105.98 73.0547 103.18 75.8546 103.18 79.3084Z" fill="#101619"/>
<path d="M61.4882 79.3084C61.4882 82.7622 64.2881 85.5621 67.7419 85.5621C71.1957 85.5621 73.9956 82.7622 73.9956 79.3084C73.9956 75.8546 71.1957 73.0547 67.7419 73.0547C64.2881 73.0547 61.4882 75.8546 61.4882 79.3084Z" fill="#101619"/>
<path d="M82.3341 79.3084C82.3341 82.7622 85.134 85.5621 88.5878 85.5621C92.0417 85.5621 94.8416 82.7622 94.8416 79.3084C94.8416 75.8546 92.0417 73.0547 88.5878 73.0547C85.134 73.0547 82.3341 75.8546 82.3341 79.3084Z" fill="#101619"/>
<path d="M37.7303 28.3646C37.9048 28.3418 38.0822 28.3557 38.2513 28.4052C38.4204 28.4547 38.5775 28.5389 38.7124 28.6523C38.8473 28.7657 38.9572 28.9058 39.035 29.0638C39.1128 29.2217 39.1568 29.394 39.1642 29.5696L39.6649 35.2409C39.6822 35.4449 39.6587 35.6501 39.5956 35.8446C39.5326 36.0391 39.4313 36.2189 39.2977 36.3736C39.1641 36.5283 39.0008 36.6548 38.8175 36.7456C38.6341 36.8364 38.4343 36.8898 38.2298 36.9027C38.1456 36.9103 38.0609 36.911 37.9765 36.9049C37.6645 36.8865 37.3703 36.7521 37.1518 36.5283C36.9333 36.3045 36.8065 36.0073 36.7963 35.6956L36.2972 30.0267C36.2795 29.8228 36.3028 29.6176 36.3656 29.4231C36.4284 29.2286 36.5294 29.0486 36.6629 28.8939C36.7963 28.7391 36.9595 28.6126 37.1428 28.5217C37.326 28.4308 37.5258 28.3774 37.7303 28.3646Z" fill="white"/>
<path d="M22.6842 34.2881C22.8762 34.2757 23.0687 34.3025 23.25 34.3668C23.4313 34.4311 23.5975 34.5316 23.7385 34.6622L30.1228 40.4564C30.4077 40.7179 30.5802 41.0791 30.6043 41.4644C30.6283 41.8498 30.5021 42.2296 30.252 42.5243C30.0189 42.7967 29.6917 42.9717 29.3352 43.0147C29.1297 43.0392 28.9213 43.0192 28.7243 42.9561C28.5272 42.893 28.3461 42.7882 28.1934 42.649L21.809 36.8548C21.5224 36.5921 21.349 36.2288 21.3253 35.8412C21.3016 35.4537 21.4294 35.072 21.6819 34.7765C21.8074 34.632 21.9609 34.5142 22.1331 34.4303C22.3053 34.3464 22.4927 34.298 22.6842 34.2881V34.2881Z" fill="white"/>
<path d="M17.4999 51.5011C17.6152 51.2837 17.7869 51.1011 17.997 50.9725C18.2071 50.844 18.4478 50.7742 18.6938 50.7705L24.5426 50.5309C25.5099 50.4908 26.06 51.2672 26.0882 52.024C26.1111 52.3333 26.0328 52.642 25.865 52.9038C25.6972 53.1656 25.4491 53.3663 25.1579 53.4757C25.0156 53.5244 24.8669 53.5514 24.7167 53.5557L18.8679 53.7953C18.6115 53.8111 18.3559 53.7574 18.1281 53.6399C17.9003 53.5224 17.7088 53.3455 17.5739 53.1279C17.4238 52.886 17.3382 52.6096 17.3253 52.3249C17.3123 52.0402 17.3724 51.7567 17.4999 51.5011Z" fill="white"/>
</svg>
