<svg width="128" height="129" viewBox="0 0 128 129" fill="none" xmlns="http://www.w3.org/2000/svg">
<circle cx="64" cy="64.7695" r="64" fill="#EBF8FF"/>
<mask id="mask0_2642_18860" style="mask-type:alpha" maskUnits="userSpaceOnUse" x="0" y="0" width="128" height="129">
<circle cx="64" cy="64.7695" r="64" fill="#EBF8FF"/>
</mask>
<g mask="url(#mask0_2642_18860)">
<path d="M35.2745 18.9302C35.828 18.5373 36.5148 18.3802 37.1841 18.4932C37.8533 18.6062 38.4504 18.9801 38.8442 19.533L62.7788 53.253C63.1708 53.8071 63.3268 54.4942 63.2126 55.1632C63.0985 55.8323 62.7235 56.4288 62.17 56.8216L38.2585 73.7942C37.7053 74.1868 37.0188 74.3436 36.35 74.2301C35.6813 74.1166 35.085 73.7421 34.6923 73.1889L13.0034 42.6327L15.6365 32.8693L35.2745 18.9302Z" fill="#B8E6FF"/>
<path d="M35.6837 16.5201C36.2372 16.1272 36.924 15.97 37.5932 16.083C38.2625 16.196 38.8596 16.57 39.2534 17.1228L63.188 50.8428C63.5799 51.397 63.736 52.084 63.6218 52.7531C63.5077 53.4222 63.1327 54.0186 62.5792 54.4115L38.6676 71.384C38.3938 71.5784 38.0842 71.717 37.7568 71.7918C37.4293 71.8666 37.0904 71.8762 36.7592 71.8199C36.4281 71.7637 36.1112 71.6429 35.8268 71.4642C35.5424 71.2856 35.2959 71.0527 35.1015 70.7788L13.4126 40.2225L16.0457 30.4592L35.6837 16.5201Z" fill="#D1EFFF"/>
<path d="M19.7754 35.707L14.3264 41.5033L13.4161 40.2209L19.7754 35.707Z" fill="#9EDDFF"/>
<path d="M19.7754 35.7065L13.4162 40.2204L16.0493 30.457L19.7754 35.7065Z" fill="#B8E6FF"/>
<path d="M55.6753 21.6121C57.6146 26.4653 59.4069 32.1717 55.5171 33.2869C50.6404 34.6834 49.2203 29.952 47.2766 25.0832C45.333 20.2143 44.4369 15.9372 47.9724 14.5295C51.2878 13.2032 53.7267 16.7379 55.6753 21.6121Z" fill="#9EDDFF"/>
<path d="M57.193 16.0809C58.3056 13.6592 58.1056 11.19 56.7464 10.5657C55.3871 9.94146 53.3833 11.3986 52.2708 13.8202C51.1582 16.2419 51.3582 18.7111 52.7175 19.3354C54.0767 19.9596 56.0805 18.5025 57.193 16.0809Z" fill="#9EDDFF"/>
<path d="M64.766 24.5573C65.5654 27.4323 64.8521 30.128 63.1825 30.6091C59.1036 31.7837 59.279 29.214 58.7024 26.2433C58.1258 23.2726 58.6224 20.6945 60.2858 20.1915C63.3352 19.2661 63.9622 21.6666 64.766 24.5573Z" fill="#9EDDFF"/>
<path d="M69.3594 32.3977L46.8695 38.6512C46.6034 38.7252 46.4477 39.0009 46.5217 39.2669L50.7432 54.4491C50.8171 54.7152 51.0928 54.8709 51.359 54.7969L73.8488 48.5435C74.1149 48.4695 74.2706 48.1938 74.1966 47.9277L69.9751 32.7455C69.9012 32.4795 69.6255 32.3238 69.3594 32.3977Z" fill="#B8E6FF"/>
<path d="M68.592 29.6983L46.1366 35.9422C45.8705 36.0162 45.7148 36.2919 45.7887 36.5579L47.3041 42.0076C47.378 42.2737 47.6538 42.4294 47.9199 42.3554L70.3753 36.1116C70.6414 36.0376 70.7971 35.7619 70.7231 35.4958L69.2078 30.0461C69.1338 29.7801 68.8581 29.6243 68.592 29.6983Z" fill="#9EDDFF"/>
<path d="M69.3709 27.2282L44.3749 34.1785C44.1088 34.2525 43.953 34.5282 44.027 34.7943L45.6876 40.7664C45.7616 41.0325 46.0373 41.1882 46.3034 41.1142L71.2994 34.1639C71.5655 34.0899 71.7212 33.8143 71.6472 33.5482L69.9866 27.576C69.9127 27.31 69.637 27.1542 69.3709 27.2282Z" fill="#B8E6FF"/>
<path d="M13.2098 60.3115C12.3111 57.6269 14.0045 54.7701 16.7909 54.2699L93.2371 40.5483C95.5042 40.1414 97.7268 41.4588 98.4581 43.6431L113.275 87.9002C114.173 90.5848 112.48 93.4416 109.693 93.9418L33.2474 107.663C30.9802 108.07 28.7576 106.753 28.0263 104.569L13.2098 60.3115Z" fill="#004DA5"/>
<path d="M14.9932 53.6462L13.4938 56.8055L17.0034 56.0343L14.9932 53.6462Z" fill="#004DA5"/>
<path d="M113.046 88.9312L113.017 91.4442L114.194 88.931L113.046 88.9312Z" fill="#004DA5"/>
<path d="M14.6737 57.374C13.775 54.6894 15.4683 51.8326 18.2548 51.3324L94.7009 37.6108C96.9681 37.2039 99.1907 38.5213 99.9219 40.7056L114.738 84.9627C115.637 87.6473 113.944 90.5041 111.157 91.0043L34.7112 104.726C32.4441 105.133 30.2215 103.815 29.4902 101.631L14.6737 57.374Z" fill="#0070F2"/>
<path d="M14.6765 57.3822C13.7768 54.6948 15.4747 51.8356 18.2649 51.3394L94.7509 37.7369C97.016 37.3341 99.2342 38.6514 99.9646 40.833L102.383 48.0554L16.6579 63.3008L14.6765 57.3822Z" fill="#005DC9"/>
<path d="M24.4594 68.672C24.0999 67.5981 24.7773 66.4554 25.892 66.2554L96.4567 53.5948C97.3635 53.4321 98.2525 53.9591 98.5449 54.8327L108.3 83.9706C108.659 85.0445 107.982 86.1873 106.867 86.3873L36.3025 99.0478C35.3957 99.2105 34.5067 98.6835 34.2142 97.8099L24.4594 68.672Z" fill="#005DC9"/>
<path d="M25.7768 66.7618C25.4172 65.688 26.0947 64.5452 27.2093 64.3452L97.774 51.6847C98.6809 51.522 99.5698 52.0489 99.8623 52.9226L109.617 82.0605C109.977 83.1343 109.299 84.2771 108.185 84.4771L37.6199 97.1377C36.713 97.3004 35.8241 96.7734 35.5316 95.8997L25.7768 66.7618Z" fill="white"/>
<path d="M33.1147 71.2103C32.8308 70.3623 33.3658 69.4599 34.246 69.302L49.6487 66.5385C50.3648 66.41 51.0667 66.8261 51.2977 67.516L53.0574 72.7722C53.3413 73.6202 52.8063 74.5225 51.9261 74.6805L36.5234 77.444C35.8073 77.5725 35.1054 77.1563 34.8744 76.4665L33.1147 71.2103Z" fill="#D5DADD"/>
<path d="M37.8301 84.722C37.5462 83.874 38.0811 82.9716 38.9613 82.8137L54.364 80.0502C55.0801 79.9217 55.7821 80.3378 56.013 81.0277L57.7727 86.2839C58.0566 87.1319 57.5217 88.0343 56.6415 88.1922L41.2387 90.9557C40.5227 91.0842 39.8207 90.6681 39.5897 89.9782L37.8301 84.722Z" fill="#D5DADD"/>
<circle cx="21.999" cy="56.3409" r="2.08851" transform="rotate(-18.5096 21.999 56.3409)" fill="#9EDDFF"/>
<circle cx="29.9248" cy="55.0147" r="2.08851" transform="rotate(-18.5096 29.9248 55.0147)" fill="#9EDDFF"/>
<circle cx="37.8481" cy="53.5577" r="2.08851" transform="rotate(-18.5096 37.8481 53.5577)" fill="#9EDDFF"/>
<path d="M58.8097 68.3089L64.7814 62.3375C65.1345 61.9844 65.6613 61.87 66.129 62.0449L75.0675 65.3864C75.3705 65.4997 75.4676 65.8803 75.2559 66.1248L69.7692 72.4651C69.4135 72.8761 68.8365 73.0163 68.332 72.8145L58.9655 69.068C58.6562 68.9443 58.5741 68.5445 58.8097 68.3089Z" fill="#D5DADD"/>
<path fill-rule="evenodd" clip-rule="evenodd" d="M47.0833 85.9539L42.1668 71.2421L43.4873 70.8008L48.4038 85.5126L47.0833 85.9539Z" fill="#D5DADD"/>
<path fill-rule="evenodd" clip-rule="evenodd" d="M93.6055 63.1682L39.8192 73.0199L39.5684 71.6504L93.3546 61.7987L93.6055 63.1682Z" fill="#D5DADD"/>
<ellipse cx="6.52918" cy="6.17962" rx="6.52918" ry="6.17962" transform="matrix(0.998834 -0.0482839 0.252197 0.967676 79.7358 57.8906)" fill="#D5DADD"/>
<path d="M93.6361 16.7145C93.8102 16.8325 93.9493 16.9953 94.0388 17.1858C94.1282 17.3762 94.1647 17.5873 94.1443 17.7967L93.7899 22.7903C93.7317 23.6162 93.0178 24.0122 92.3705 23.9664C92.1049 23.9573 91.8494 23.8623 91.6424 23.6955C91.4355 23.5288 91.2882 23.2994 91.2228 23.0418C91.1949 22.9163 91.1862 22.7874 91.1968 22.6594L91.5513 17.6658C91.5623 17.4464 91.6325 17.2341 91.7543 17.0513C91.8761 16.8685 92.0451 16.7221 92.2433 16.6274C92.4637 16.5221 92.7073 16.4749 92.951 16.4901C93.1947 16.5054 93.4305 16.5826 93.6361 16.7145Z" fill="#A9B4BE"/>
<path d="M115.12 33.3951C115.183 33.5321 115.216 33.6806 115.218 33.8311C115.22 33.9817 115.19 34.131 115.131 34.2696C115.072 34.4081 114.985 34.5328 114.875 34.6358C114.765 34.7387 114.635 34.8176 114.493 34.8674L109.97 36.6893C109.807 36.7542 109.633 36.7861 109.458 36.783C109.282 36.7799 109.109 36.7419 108.949 36.6712C108.788 36.6005 108.644 36.4986 108.523 36.3713C108.402 36.2441 108.308 36.0941 108.246 35.9301C108.219 35.8632 108.197 35.7941 108.181 35.7236C108.117 35.464 108.153 35.19 108.282 34.9557C108.41 34.7213 108.622 34.5436 108.875 34.4576L113.397 32.6377C113.559 32.5725 113.733 32.5404 113.909 32.5432C114.084 32.5461 114.257 32.5839 114.417 32.6545C114.578 32.725 114.723 32.8268 114.843 32.954C114.964 33.0812 115.058 33.2311 115.12 33.3951Z" fill="#A9B4BE"/>
<path d="M107.596 21.9714C107.623 22.1336 107.617 22.2997 107.578 22.4594C107.538 22.6192 107.467 22.7692 107.368 22.9004L102.973 28.8292C102.775 29.094 102.482 29.2717 102.155 29.3253C101.828 29.3789 101.494 29.3042 101.221 29.1167C100.969 28.9418 100.791 28.6785 100.724 28.379C100.686 28.2063 100.685 28.0273 100.722 27.8543C100.759 27.6812 100.833 27.5182 100.938 27.3762L105.332 21.4474C105.532 21.181 105.827 21.0023 106.155 20.9488C106.484 20.8954 106.82 20.9713 107.094 21.1607C107.228 21.2551 107.341 21.3755 107.428 21.5148C107.514 21.6541 107.571 21.8094 107.596 21.9714Z" fill="#A9B4BE"/>
<path d="M81.6341 112.067C81.6341 111.465 79.8872 110.983 77.5531 110.874C77.4196 108.543 76.9058 106.809 76.304 106.811C75.7021 106.812 75.2016 108.559 75.0735 110.902C72.7328 111.062 70.9925 111.585 71.0005 112.188C71.0085 112.791 72.7474 113.273 75.0815 113.381C75.2217 115.712 75.7288 117.446 76.3293 117.444C76.9299 117.443 77.433 115.696 77.5611 113.353C79.9019 113.193 81.6408 112.67 81.6341 112.067Z" fill="#D1EFFF"/>
<path d="M15.3591 91.9396C15.3591 91.5384 14.1945 91.2173 12.6384 91.1443C12.5495 89.5902 12.2069 88.4347 11.8057 88.4355C11.4044 88.4364 11.0708 89.6009 10.9854 91.163C9.42486 91.2698 8.2647 91.6185 8.27004 92.0206C8.27538 92.4227 9.43465 92.7438 10.9907 92.8159C11.0841 94.37 11.4222 95.5255 11.8226 95.5246C12.2229 95.5237 12.5583 94.3593 12.6438 92.7972C14.2043 92.6904 15.3635 92.3417 15.3591 91.9396Z" fill="#D1EFFF"/>
<path d="M79.6136 17.0471C79.6136 16.4453 77.8667 15.9636 75.5326 15.8542C75.3991 13.523 74.8853 11.7897 74.2835 11.791C73.6816 11.7924 73.1811 13.539 73.053 15.8822C70.7122 16.0423 68.972 16.5654 68.98 17.1685C68.988 17.7717 70.7269 18.2534 73.061 18.3615C73.2012 20.6926 73.7083 22.426 74.3088 22.4246C74.9094 22.4233 75.4125 20.6766 75.5406 18.3335C77.8814 18.1733 79.6203 17.6503 79.6136 17.0471Z" fill="#D1EFFF"/>
<path d="M101.355 107.733C109.898 107.733 116.825 100.807 116.825 92.2628C116.825 83.7191 109.898 76.793 101.355 76.793C92.8109 76.793 85.8848 83.7191 85.8848 92.2628C85.8848 100.807 92.8109 107.733 101.355 107.733Z" fill="#F58B00"/>
<path d="M101.36 83.8398H101.355C100.2 83.8398 99.2642 84.7757 99.2642 85.9302V98.5978C99.2642 99.7522 100.2 100.688 101.355 100.688H101.36C102.515 100.688 103.451 99.7522 103.451 98.5978V85.9302C103.451 84.7757 102.515 83.8398 101.36 83.8398Z" fill="white"/>
<path d="M93.2881 92.0239V92.4967C93.2881 93.5222 94.1194 94.3535 95.1449 94.3535H107.579C108.604 94.3535 109.436 93.5222 109.436 92.4967V92.0239C109.436 90.9984 108.604 90.1671 107.579 90.1671H95.1449C94.1194 90.1671 93.2881 90.9984 93.2881 92.0239Z" fill="white"/>
</g>
</svg>
