<svg width="130" height="128" viewBox="0 0 130 128" fill="none" xmlns="http://www.w3.org/2000/svg">
<path d="M102.773 106.966L71.5642 97.9885C71.489 97.9602 71.4139 97.946 71.3388 97.9673L2.08239 105.9C-0.125079 106.211 -0.333111 106.969 0.33722 107.366L31.6098 116.669C32.9678 117.236 34.4124 117.37 35.8225 117.059L100.808 108.234C102.848 107.901 103.259 107.158 102.773 106.966Z" fill="#101619"/>
<path d="M87.3206 35.8821L108.932 97.9549C109.393 100.325 106.885 102.135 105.41 102.262L37.8051 111.852C36.653 111.951 35.5996 111.188 35.3362 110.058L19.2937 42.8388C18.7232 40.0736 21.022 36.7599 22.4759 36.694L84.9834 34.2252C86.0477 34.1758 87.0133 34.8561 87.3206 35.8821Z" fill="#2A4259"/>
<path d="M89.0983 33.9852L108.833 97.4186C109.261 98.8396 108.279 100.293 106.798 100.42L39.5829 109.955C38.4307 110.054 37.3773 109.291 37.1139 108.161L20.7423 39.5539C20.4076 38.1329 21.45 36.7613 22.9094 36.69L86.7611 32.3228C87.8255 32.2735 88.7911 32.9538 89.0983 33.9797V33.9852Z" fill="#4D82B8"/>
<path d="M84.5846 47.9525L38.1683 51.6109C37.5681 51.6681 36.9965 51.3537 36.9107 50.9535L36.1104 47.5238C36.0247 47.1236 36.4248 46.7521 37.025 46.6949L83.2412 43.3223C83.7843 43.2937 84.2987 43.5795 84.4131 43.9511L85.3563 47.1808C85.4706 47.5809 85.1276 47.9239 84.5846 47.9811V47.9525Z" fill="#D5DADD"/>
<path d="M82.2312 70.6668L43.5986 74.6505C42.9984 74.7077 42.3982 74.4219 42.3125 73.9646L41.455 70.3633C41.3407 69.9346 41.7694 69.5345 42.3696 69.4773L80.8021 65.808C81.3452 65.7508 81.8882 66.0366 82.0025 66.4654L83.0029 69.8665C83.1172 70.2667 82.7742 70.6097 82.2312 70.6668Z" fill="#D5DADD"/>
<path d="M88.7733 93.7535L49.315 98.9505C48.6862 99.0363 48.086 98.7219 47.9716 98.2646L47.0856 94.4347C46.9713 93.9774 47.4 93.5486 48.0288 93.4629L87.2585 88.6088C87.8015 88.5517 88.3732 88.8375 88.4875 89.2662L89.545 92.8389C89.6594 93.2676 89.3164 93.6963 88.7733 93.7535Z" fill="#D5DADD"/>
<path d="M66.8178 60.5172L40.8549 62.9626C40.2546 63.0198 39.683 62.7054 39.5687 62.2767L38.7398 58.7612C38.6541 58.3324 39.0542 57.9609 39.6544 57.9037L65.4745 55.6869C66.0175 55.6298 66.5606 55.9156 66.6749 56.3443L67.6181 59.6883C67.7324 60.0885 67.3894 60.46 66.8178 60.5172Z" fill="#D5DADD"/>
<path d="M73.0043 83.3838L46.4285 86.6303C45.7997 86.716 45.2281 86.4016 45.1137 85.9443L44.2563 82.2287C44.142 81.7714 44.5707 81.3713 45.1709 81.2856L71.5752 78.2963C72.1469 78.2392 72.6899 78.525 72.8043 78.9537L73.8046 82.4692C73.9189 82.8979 73.5759 83.3267 73.0043 83.3838Z" fill="#D5DADD"/>
<path d="M125.845 53.1042C125.845 53.1042 118.985 62.4252 105.661 64.1562C92.3368 65.8872 74.0599 56.0247 69.285 40.8521C64.0956 24.3627 73.5894 13.0628 89.812 9.54654C104.664 8.36237 125.845 53.1042 125.845 53.1042Z" fill="#8D2A00"/>
<path d="M127.646 32.2931C133.162 46.7323 125.43 60.3006 109.868 62.1876C93.9234 64.1205 76.7183 53.0275 71.9434 37.8473C67.3288 23.1865 76.2828 10.6649 91.471 9.45021C106.323 8.26605 122.313 18.3124 127.654 32.2855L127.646 32.2931Z" fill="#C35500"/>
<path d="M115.434 31.2824C115.296 30.9159 114.929 30.6883 114.54 30.7282L103.244 31.8864C102.851 31.9267 102.481 31.6946 102.346 31.3233L98.7111 21.3021C98.5777 20.9343 98.2132 20.7026 97.8235 20.7379L91.8628 21.2784C91.3026 21.3292 90.9406 21.8944 91.1288 22.4245L94.4278 31.7158C94.6145 32.2419 94.2592 32.804 93.7039 32.8609L82.7335 33.9864C82.1822 34.0429 81.827 34.5978 82.0064 35.1221L83.8546 40.5242C83.9851 40.9056 84.3628 41.1455 84.7636 41.1016L96.5995 39.8031C96.9965 39.7596 97.3714 39.9946 97.5051 40.371L101.223 50.8364C101.358 51.2163 101.739 51.4517 102.139 51.4032L108.239 50.6626C108.789 50.5958 109.134 50.0345 108.945 49.5136L105.458 39.9055C105.268 39.3807 105.619 38.8161 106.174 38.7553L116.66 37.6074C117.219 37.5462 117.571 36.9748 117.373 36.4484L115.434 31.2824Z" fill="#D5DADD"/>
</svg>
