<svg width="128" height="128" viewBox="0 0 128 128" fill="none" xmlns="http://www.w3.org/2000/svg">
<circle cx="64" cy="64" r="64" fill="#223548"/>
<mask id="mask0_2810_46823" style="mask-type:alpha" maskUnits="userSpaceOnUse" x="0" y="0" width="128" height="128">
<circle cx="64" cy="64" r="64" fill="#EBF8FF"/>
</mask>
<g mask="url(#mask0_2810_46823)">
<path d="M102.768 67.5926L110.347 69.1655C110.943 69.2892 111.465 69.6422 111.798 70.1468C112.131 70.6514 112.248 71.2663 112.123 71.8561L108.946 86.8355C108.821 87.4254 108.464 87.9419 107.954 88.2715C107.444 88.601 106.822 88.7166 106.226 88.5929L98.6474 87.02C97.9388 86.873 97.3183 86.4535 96.9225 85.8539C96.5266 85.2543 96.3877 84.5237 96.5363 83.8229L99.5334 69.6938C99.6055 69.3453 99.7465 69.0144 99.9483 68.7199C100.15 68.4255 100.409 68.1734 100.709 67.9782C101.01 67.7829 101.347 67.6483 101.7 67.5822C102.053 67.516 102.416 67.5195 102.768 67.5926Z" fill="#64EDD2"/>
<path d="M104.444 67.9393L102.389 67.5127L98.2677 86.9401L100.323 87.3667L104.444 67.9393Z" fill="#00A58A"/>
<path d="M93.9631 60.9612L102.073 62.6445C102.337 62.6993 102.588 62.8052 102.811 62.9559C103.034 63.1067 103.225 63.2994 103.373 63.5231C103.521 63.7468 103.622 63.997 103.672 64.2596C103.722 64.5222 103.719 64.7919 103.664 65.0534L98.5577 89.1251C98.4325 89.7149 98.0757 90.2315 97.5655 90.561C97.0554 90.8906 96.4338 91.0062 95.8375 90.8825L87.963 89.2481C87.4291 89.1373 86.9616 88.8213 86.6633 88.3695C86.365 87.9177 86.2603 87.3673 86.3724 86.8392L91.5278 62.5346C91.5833 62.2731 91.6903 62.025 91.8427 61.8044C91.9951 61.5838 92.1899 61.3951 92.4161 61.249C92.6422 61.1029 92.8952 61.0023 93.1607 60.9529C93.4261 60.9036 93.6988 60.9064 93.9631 60.9612Z" fill="#64EDD2"/>
<path d="M93.3651 60.8356L88.5218 59.8304C87.2801 59.5727 86.0622 60.3595 85.8017 61.5878L80.7456 85.424C80.485 86.6523 81.2804 87.8569 82.5222 88.1147L87.3654 89.1199C88.6072 89.3776 89.825 88.5908 90.0855 87.3625L95.1417 63.5263C95.4022 62.298 94.6068 61.0934 93.3651 60.8356Z" fill="#00A58A"/>
<path d="M90.2857 67.8708L88.4817 67.4963C88.2173 67.4415 87.958 67.609 87.9025 67.8706L87.2287 71.047C87.1732 71.3085 87.3426 71.565 87.607 71.6199L89.411 71.9943C89.6754 72.0492 89.9347 71.8817 89.9902 71.6201L90.664 68.4437C90.7195 68.1822 90.5501 67.9256 90.2857 67.8708Z" fill="#688FB7"/>
<path d="M88.2701 77.3703L86.4661 76.9959C86.2017 76.941 85.9423 77.1085 85.8868 77.3701L85.2131 80.5465C85.1576 80.808 85.327 81.0646 85.5914 81.1194L87.3954 81.4939C87.6598 81.5487 87.9191 81.3812 87.9746 81.1196L88.6484 77.9432C88.7039 77.6817 88.5345 77.4251 88.2701 77.3703Z" fill="#688FB7"/>
<path d="M93.0578 126.78C86.5063 126.78 81.6171 124.695 79.2873 120.898C77.5251 118.027 77.1954 114.001 78.3873 109.849C79.5387 105.839 81.9009 102.312 84.8442 100.158C92.847 94.3134 106.309 93.4739 120.385 108.269C123.323 102.28 124.083 95.5967 121.82 90.2658C121.01 88.3329 117.812 81.8845 111.123 80.1521C110.88 80.0893 110.672 79.9336 110.545 79.7193C110.418 79.505 110.382 79.2495 110.446 79.0092C110.509 78.7688 110.667 78.5632 110.883 78.4376C111.1 78.312 111.358 78.2767 111.601 78.3395C119.131 80.2911 122.664 87.4105 123.566 89.5439C126.161 95.6929 125.101 103.446 121.464 110.213C121.435 110.283 121.399 110.35 121.355 110.413C118.78 115.116 114.955 119.321 110.245 122.131C105.38 125.034 98.9633 126.772 93.0929 126.78H93.0578ZM96.9551 98.0857C92.9961 98.0685 89.1388 99.3259 85.9658 101.668C80.3982 105.732 77.8576 114.95 80.9063 119.931C82.8793 123.139 87.1928 124.909 93.0686 124.909H93.1091C98.6497 124.909 104.698 123.264 109.285 120.527C113.553 117.984 117.05 114.233 119.464 110.028C113.518 103.638 107.101 99.6443 100.904 98.4653C99.6028 98.2147 98.2806 98.0875 96.9551 98.0857Z" fill="#688FB7"/>
<path d="M42.8936 56.0098L59.5764 59.4723C60.3481 59.6325 61.0239 60.0893 61.4551 60.7423C61.8862 61.3953 62.0375 62.191 61.8756 62.9543C61.7137 63.7177 61.2518 64.3861 60.5917 64.8126C59.9315 65.2391 59.1271 65.3887 58.3554 65.2286L41.6725 61.766L42.8936 56.0098Z" fill="#F58B00"/>
<path d="M40.2959 68.8467L56.9841 72.3103C57.7558 72.4705 58.4315 72.9273 58.8627 73.5803C59.2939 74.2333 59.4451 75.029 59.2832 75.7923C59.1213 76.5557 58.6595 77.2241 57.9993 77.6506C57.3392 78.0771 56.5348 78.2267 55.7631 78.0666L39.0749 74.603L40.2959 68.8467Z" fill="#F58B00"/>
<path d="M33.376 44.2783L46.7948 47.0634C47.1831 47.144 47.5516 47.2995 47.8792 47.5209C48.2068 47.7424 48.4871 48.0255 48.7041 48.3542C48.9211 48.6828 49.0705 49.0505 49.1439 49.4362C49.2172 49.822 49.213 50.2182 49.1315 50.6024L42.4825 81.9479C42.318 82.7238 41.8486 83.4031 41.1776 83.8366C40.5067 84.2701 39.6891 84.4222 38.9048 84.2594L25.486 81.4743L33.376 44.2783Z" fill="#64EDD2"/>
<path d="M36.0844 44.838L30.1858 43.6138C28.5525 43.2748 26.9507 44.3097 26.608 45.9252L19.9585 77.2734C19.6158 78.889 20.662 80.4734 22.2952 80.8124L28.1939 82.0367C29.8271 82.3757 31.429 81.3408 31.7717 79.7252L38.4212 48.3771C38.7639 46.7615 37.7177 45.177 36.0844 44.838Z" fill="#00A58A"/>
<path d="M30.5134 50.3535L21.1311 48.4063C19.4978 48.0673 17.896 49.1022 17.5533 50.7177L13.4468 70.0771C13.1041 71.6927 14.1503 73.2772 15.7836 73.6161L25.1659 75.5634C26.7992 75.9024 28.401 74.8675 28.7437 73.252L32.8502 53.8926C33.1929 52.277 32.1467 50.6925 30.5134 50.3535Z" fill="#64EDD2"/>
<path d="M18.8913 47.9423L16.344 47.4136C14.7107 47.0746 13.1089 48.1095 12.7662 49.725L8.65972 69.0844C8.31702 70.7 9.36323 72.2845 10.9965 72.6235L13.5438 73.1521C15.177 73.4911 16.7788 72.4562 17.1215 70.8407L21.228 51.4813C21.5707 49.8657 20.5245 48.2812 18.8913 47.9423Z" fill="#00A58A"/>
<path d="M64.7921 141C64.5664 140.997 64.3492 140.915 64.1794 140.767C64.0097 140.62 63.8985 140.418 63.866 140.197C63.8334 139.976 63.8816 139.751 64.0018 139.562C64.122 139.373 64.3064 139.233 64.5218 139.166C80.2193 134.474 88.8762 122.435 87.1167 114.134C86.4248 110.87 84.0275 107.905 80.1869 105.558C73.2057 101.28 62.6596 99.7885 54.5433 101.901C49.6514 103.173 47.1432 105.389 44.7162 107.534C42.2891 109.678 39.7323 111.942 34.9863 112.961C27.8403 114.493 19.3104 112.573 11.5671 107.694C3.7021 102.735 -2.14933 95.396 -4.4899 87.5307C-6.88993 79.4675 -7.40345 64.8517 1.45612 59.9566C6.11835 57.3793 11.4563 58.3311 14.2266 59.1305C14.4674 59.2014 14.6699 59.364 14.7895 59.5826C14.9092 59.8012 14.9361 60.0579 14.8644 60.2961C14.7927 60.5343 14.6283 60.7346 14.4073 60.853C14.1863 60.9713 13.9269 60.9979 13.686 60.927C11.1914 60.2105 6.41294 59.3443 2.35884 61.59C-1.93311 63.9641 -3.41151 69.025 -3.8953 72.8507C-4.431 77.6003 -4.02056 82.4078 -2.68718 87.0013C-0.476336 94.4282 5.0859 101.395 12.5698 106.117C19.8915 110.731 27.9105 112.562 34.5701 111.132C38.835 110.218 41.0756 108.237 43.4486 106.138C45.9216 103.954 48.7216 101.478 54.0541 100.091C62.6326 97.8583 73.7841 99.4516 81.1734 103.964C85.4653 106.587 88.1573 109.972 88.96 113.752C89.9573 118.457 88.1032 124.053 83.8734 129.111C79.3977 134.458 72.7165 138.669 65.0624 140.96C64.9746 140.986 64.8836 140.999 64.7921 141Z" fill="#688FB7"/>
<path d="M86.0054 17.0715L66.0936 34.4721C66.0562 34.5063 66.0284 34.5503 66.0132 34.5993C65.998 34.6484 65.9959 34.7007 66.0071 34.7509C66.0183 34.8011 66.0425 34.8473 66.077 34.8846C66.1115 34.9219 66.1552 34.9489 66.2034 34.9629L76.1665 37.7141C76.2062 37.725 76.2431 37.7448 76.2745 37.7721C76.3059 37.7995 76.3309 37.8336 76.3478 37.8722C76.3648 37.9107 76.3731 37.9527 76.3723 37.9949C76.3715 38.0372 76.3615 38.0788 76.3431 38.1166L69.3589 52.5843C69.3293 52.6431 69.3205 52.7107 69.3341 52.7754C69.3477 52.8401 69.3828 52.898 69.4334 52.9389C69.484 52.9799 69.5469 53.0015 69.6113 52.9999C69.6757 52.9984 69.7375 52.9738 69.7862 52.9304L89.9033 35.5789C89.9415 35.5453 89.9701 35.5015 89.9859 35.4524C90.0018 35.4033 90.0043 35.3507 89.9932 35.3003C89.9822 35.2498 89.958 35.2034 89.9232 35.166C89.8885 35.1286 89.8444 35.1017 89.7959 35.0881L79.6729 32.3614C79.6331 32.3502 79.5962 32.3301 79.5648 32.3025C79.5334 32.275 79.5083 32.2407 79.4912 32.202C79.4741 32.1634 79.4655 32.1214 79.466 32.0789C79.4664 32.0365 79.476 31.9947 79.4939 31.9565L86.4351 17.4151C86.4647 17.3561 86.4733 17.2883 86.4594 17.2234C86.4455 17.1586 86.4099 17.1007 86.359 17.06C86.308 17.0192 86.2447 16.998 86.1802 17.0001C86.1156 17.0023 86.0538 17.0275 86.0054 17.0715Z" fill="#F58B00"/>
</g>
</svg>
