<svg width="128" height="62" viewBox="0 0 128 62" fill="none" xmlns="http://www.w3.org/2000/svg">
<path d="M118.4 0.242188H9.6C4.29807 0.242188 0 4.54025 0 9.84219V45.8422C0 51.1441 4.29807 55.4422 9.6 55.4422H118.4C123.702 55.4422 128 51.1441 128 45.8422V9.84219C128 4.54025 123.702 0.242188 118.4 0.242188Z" fill="#89D1FF"/>
<mask id="mask0_4011_79387" style="mask-type:alpha" maskUnits="userSpaceOnUse" x="0" y="0" width="128" height="56">
<path d="M118.4 0.242188H9.6C4.29807 0.242188 0 4.54025 0 9.84219V45.8422C0 51.1441 4.29807 55.4422 9.6 55.4422H118.4C123.702 55.4422 128 51.1441 128 45.8422V9.84219C128 4.54025 123.702 0.242188 118.4 0.242188Z" fill="#89D1FF"/>
</mask>
<g mask="url(#mask0_4011_79387)">
<path d="M72.8875 -3.04966C74.6773 -3.5172 76.514 -3.44739 78.2215 -2.87193C78.9626 -2.6451 79.6722 -2.3344 80.325 -1.95103L80.8162 -2.40513C81.0602 -2.63294 81.4438 -2.61684 81.6678 -2.3729L82.2938 -1.70103C84.0349 -2.49209 86.1721 -2.11985 87.5565 -0.632669L88.6619 0.555807C88.8007 0.456168 88.9398 0.356891 89.0799 0.258932L89.1844 0.186667C89.4324 -0.0450733 89.8245 -0.0251129 90.0565 0.2228L90.8221 1.05092C90.8339 1.05781 90.8453 1.06468 90.8543 1.07436C91.0699 1.30624 90.422 2.28725 89.2645 3.5851L91.868 6.39077C92.1824 6.72929 92.1675 7.2541 91.8318 7.56655C91.4918 7.87855 90.9633 7.8587 90.6473 7.5187L88.1238 4.79799C87.709 5.21838 87.2601 5.65514 86.785 6.09682C86.2733 6.57249 85.7689 7.01793 85.2879 7.42495L87.7723 10.1027C87.8503 10.1843 87.9062 10.2782 87.9432 10.3771C87.9462 10.3849 87.9491 10.3927 87.952 10.4005C87.9538 10.4058 87.9561 10.4109 87.9578 10.4162C88.0593 10.7168 87.9842 11.0596 87.7361 11.2873V11.2824C87.3961 11.5944 86.8686 11.5745 86.5526 11.2345L83.9891 8.47182C82.7253 9.43249 81.7778 9.96534 81.5125 9.8146C81.507 9.81447 81.5037 9.8146 81.5037 9.8146L81.4813 9.79018L81.4793 9.78921C81.4785 9.78835 81.4781 9.78715 81.4774 9.78628L80.66 8.91128C80.424 8.66329 80.4403 8.27121 80.6883 8.03921C80.7902 7.91476 80.8936 7.79134 80.9969 7.66811L79.8768 6.46303C78.482 4.96123 78.281 2.77814 79.2361 1.09975L78.6277 0.446432C78.4001 0.202417 78.4161 -0.181134 78.66 -0.409036L79.0369 -0.758646C77.278 -1.74315 75.2508 -2.0046 73.2879 -1.49302C71.2161 -0.952955 69.5046 0.375333 68.4647 2.24721L66.7127 5.3937C67.7446 5.36316 68.9021 5.3952 69.4803 5.37124C69.4962 5.37051 69.5118 5.37085 69.5272 5.37026C70.4474 5.33344 70.408 5.53407 70.408 6.05092L70.4031 6.14663C70.3537 6.58746 69.9794 7.10921 69.241 7.43569C69.1267 7.48669 69.0041 7.53483 68.8719 7.57534C67.8334 7.89881 66.105 7.97846 65.3074 8.33706C65.2953 8.3425 65.2836 8.34908 65.2713 8.35464C65.1715 8.40114 65.0752 8.45089 64.9822 8.50503L63.994 10.2824C64.2664 10.0204 64.5591 9.86335 64.867 9.88296C64.9528 9.88755 65.0398 9.90514 65.1277 9.93862H65.1238L65.1229 9.9396C65.1819 9.95581 65.2446 9.98729 65.3035 10.0226C66.2974 10.6293 66.3231 11.7579 66.0848 12.8517C66.0871 12.8525 66.0893 12.8538 66.0916 12.8546C66.5076 12.9986 66.7721 13.3671 67.1561 13.8751C67.7759 14.699 68.216 15.3589 68.9598 16.6066C69.6436 17.7583 69.8879 18.3707 69.6082 18.8546C69.3282 19.3386 67.8755 21.7869 67.6395 22.4669C67.3994 23.147 66.8754 24.6749 66.4754 26.6027C66.1981 27.9394 65.746 28.3297 65.1854 28.5236C65.0322 28.5775 64.871 28.6165 64.7029 28.6554L65.8074 34.1984C65.8834 34.5743 65.9834 34.9467 66.1033 35.3107H66.116C67.008 35.0388 67.9802 35.3989 68.4842 36.1789C68.896 36.8148 68.9882 37.6231 68.7322 38.339L68.4676 39.0705L69.8836 40.6271C70.4715 41.2711 70.6522 42.1831 70.3602 43.0031L70.1873 43.4787C70.0353 43.9026 69.7798 44.2547 69.4559 44.5187C69.6519 44.9867 69.8237 45.4672 69.9637 45.9552C70.8876 49.1071 71.0233 52.1349 70.3514 55.3507L70.3602 55.3546L68.7918 55.3664C69.4077 52.4065 69.2834 49.3103 68.4315 46.4064C68.2955 45.9427 68.132 45.4908 67.9442 45.047C67.7162 45.047 67.4837 45.0067 67.2557 44.9347C66.6397 44.7387 66.1442 44.3106 65.8602 43.7306C65.5762 43.1506 65.5397 42.4987 65.7557 41.8908L65.8201 41.715C65.7682 41.659 65.7197 41.603 65.6678 41.547L64.9959 40.8224C64.3 40.0744 63.8756 39.0982 63.7996 38.0783L63.7762 37.7306C63.7202 36.9906 64.0481 36.3108 64.6121 35.8908C64.4601 35.4428 64.336 34.9828 64.2401 34.5109L63.1287 28.9425C62.9176 28.9718 62.6925 29.0045 62.4598 29.0343C62.4518 29.1783 62.4442 29.2628 62.4442 29.2628C62.4438 29.2702 62.424 29.711 62.3524 30.4347C62.2742 31.2287 62.1337 32.3632 61.8836 33.6388C61.3996 36.0908 60.8003 36.5712 59.3963 38.4152C59.1603 38.7192 58.5521 39.5389 57.6922 40.6789L57.6971 40.6662C57.694 40.6702 57.6914 40.6748 57.6883 40.6789V40.6945C55.0163 44.2505 49.9966 50.9632 46.5926 55.5392H31.6004L45.3846 39.0109L45.3992 38.9923L45.3875 39.0031L47.4764 36.4982L48.5408 35.2189L49.0643 34.5929L49.824 33.6828C51.0919 32.1629 51.8996 30.3271 52.1717 28.3673C52.7277 24.3233 53.7195 17.5065 54.1395 16.6945C54.1397 16.6929 54.1419 16.6856 54.1561 16.6749C54.1574 16.6724 54.1586 16.6697 54.16 16.6671L55.0252 14.9376C56.2084 12.5692 58.1159 8.81378 58.6834 8.45522C59.3844 8.01482 63.3587 6.18684 64.7264 5.67202L67.0682 1.46303C68.3242 -0.792919 70.3876 -2.39764 72.8875 -3.04966ZM67.6317 41.3947H67.6356C68.0196 41.8907 68.3675 42.4112 68.6795 42.9552C68.6795 42.9552 68.6795 42.9466 68.6834 42.9425L68.8514 42.4669C68.9434 42.2029 68.888 41.9103 68.7 41.7023L67.8563 40.7746L67.6317 41.3947ZM65.3719 37.6183L65.3953 37.9669C65.4434 38.6268 65.7199 39.2545 66.1678 39.7384L66.4315 40.0226L66.6434 39.4386C66.1555 38.8747 65.7318 38.2584 65.3719 37.6105V37.6183ZM66.7674 36.8263C66.9194 37.1063 67.0873 37.3789 67.2713 37.6388C67.2993 37.4388 67.2554 37.2268 67.1434 37.0548C67.0594 36.9229 66.9154 36.8423 66.7674 36.8263Z" fill="#1B90FF"/>
</g>
<path d="M74.3516 61.5742L72.7836 61.5862C73.3996 58.6262 73.2756 55.5302 72.4236 52.6262C72.2876 52.1622 72.1236 51.7101 71.9356 51.2661C71.7076 51.2661 71.4756 51.2261 71.2476 51.1541C70.6316 50.9581 70.1356 50.5301 69.8516 49.9501C69.5676 49.3701 69.5316 48.7181 69.7476 48.1101L69.8116 47.9342C69.7596 47.8782 69.7116 47.8221 69.6596 47.7661L68.9876 47.0421C68.2916 46.2941 67.8676 45.3181 67.7916 44.2981L67.7676 43.9501C67.7116 43.2101 68.0396 42.5301 68.6036 42.1101C68.4516 41.6621 68.3276 41.2021 68.2316 40.7301L67.0956 35.0301L65.8476 30.2261C65.1596 27.5821 64.6436 24.8701 64.3076 22.1621C64.1196 20.6421 64.5036 19.1221 65.3956 17.8741L71.0596 7.68215C72.3156 5.42615 74.3796 3.82215 76.8796 3.17015C79.3756 2.51815 81.9636 2.90615 84.1636 4.26215L83.3236 5.62215C81.4996 4.49815 79.3556 4.17815 77.2836 4.71815C75.2116 5.25815 73.4996 6.58615 72.4596 8.45815L66.7196 18.7701C66.0476 19.6941 65.7556 20.8301 65.8956 21.9621C66.2196 24.6021 66.7276 27.2461 67.3956 29.8221L68.6596 34.6941L69.7996 40.4181C69.8756 40.7941 69.9756 41.1661 70.0956 41.5301H70.1076C70.9996 41.2581 71.9716 41.6181 72.4756 42.3981C72.8876 43.0341 72.9796 43.8421 72.7236 44.5581L72.4596 45.2901L73.8756 46.8461C74.4636 47.4902 74.6436 48.4021 74.3516 49.2221L74.1796 49.6981C74.0276 50.1221 73.7716 50.4741 73.4476 50.7381C73.6436 51.2061 73.8156 51.6861 73.9556 52.1741C74.8796 55.3261 75.0156 58.3542 74.3436 61.5702L74.3516 61.5742ZM71.6276 47.6141C72.0116 48.1101 72.3596 48.6301 72.6716 49.1741C72.6716 49.1741 72.6716 49.1661 72.6756 49.1622L72.8436 48.6861C72.9356 48.4221 72.8796 48.1301 72.6916 47.9221L71.8476 46.9941L71.6236 47.6141H71.6276ZM69.3636 43.8261C69.3636 43.8261 69.3636 43.8341 69.3636 43.8381L69.3876 44.1861C69.4356 44.8461 69.7116 45.4741 70.1596 45.9581L70.4236 46.2421L70.6356 45.6581C70.1476 45.0942 69.7236 44.4781 69.3636 43.8302V43.8261ZM70.7596 43.0462C70.9116 43.3261 71.0796 43.5981 71.2636 43.8582C71.2916 43.6581 71.2476 43.4461 71.1356 43.2742C71.0516 43.1422 70.9076 43.0621 70.7596 43.0462Z" fill="#00144A"/>
<path d="M73.5997 25.0743C73.3197 25.5583 71.8677 28.0063 71.6317 28.6863C71.3917 29.3663 70.8677 30.8943 70.4677 32.8223C70.0677 34.7503 69.3037 34.7103 68.3757 34.9503C68.0557 35.0343 67.3077 35.1423 66.4637 35.2503C64.8757 35.4463 62.9596 35.6343 62.9596 35.6343L60.9156 31.7023L62.5997 21.4623C62.5997 21.4623 63.3437 21.1663 64.3237 20.7863C64.8797 20.5703 65.5117 20.3263 66.1397 20.0903C67.1717 19.6943 68.1596 19.3343 68.7036 19.1743C69.3396 18.9783 69.7597 18.9583 70.0837 19.0743C70.4997 19.2183 70.7636 19.5863 71.1476 20.0943C71.7676 20.9183 72.2077 21.5783 72.9517 22.8263C73.6357 23.9783 73.8797 24.5903 73.5997 25.0743Z" fill="#FFAB92"/>
<path d="M74.4002 12.2659C74.4002 12.7899 73.9162 13.4699 72.8722 13.7899C71.8322 14.1139 70.1002 14.1939 69.3042 14.5539C68.6682 14.8379 67.9082 15.2739 67.1802 15.7339C66.9882 15.8539 66.7962 15.9739 66.6122 16.0979C66.1522 16.3979 65.9162 16.6219 65.7282 16.9099C65.5522 17.1859 65.4242 17.5259 65.2042 18.0499C65.0442 18.4339 64.6962 19.5339 64.3162 20.7899C64.0442 21.6939 63.7562 22.6699 63.5082 23.5219C63.1402 24.8299 62.8642 25.8339 62.9122 25.8059C62.9282 25.7899 62.9962 25.6939 63.1082 25.5139C63.1242 25.4939 63.1322 25.4699 63.1482 25.4499C63.1762 25.4019 63.2122 25.3419 63.2482 25.2819C63.2882 25.2259 63.3202 25.1699 63.3602 25.1059C63.4682 24.9339 63.5882 24.7299 63.7162 24.5099C63.7522 24.4539 63.7802 24.4019 63.8162 24.3419C63.9562 24.1099 64.0922 23.8699 64.2402 23.6139C64.2682 23.5659 64.3002 23.5059 64.3282 23.4499L64.4122 23.3059L64.4602 23.2259C64.5082 23.1459 64.5522 23.0579 64.6042 22.9779C64.7162 22.7699 64.8402 22.5619 64.9482 22.3579C65.0402 22.1859 65.1362 22.0179 65.2242 21.8499C65.2922 21.7299 65.3562 21.6139 65.4202 21.4939C65.5002 21.3419 65.5842 21.1939 65.6562 21.0459C65.7642 20.8379 65.8602 20.6499 65.9402 20.4859C65.9562 20.4659 65.9642 20.4419 65.9762 20.4219C66.0362 20.3019 66.0842 20.1939 66.1282 20.0979C66.1522 20.0499 66.1722 19.9939 66.1922 19.9499C66.2122 19.9019 66.2322 19.8619 66.2402 19.8219C66.6242 18.7859 67.7442 15.6459 69.1082 16.1659C69.1682 16.1819 69.2322 16.2139 69.2922 16.2499C70.2882 16.8579 70.3122 17.9899 70.0722 19.0859C69.9642 19.5819 69.8002 20.0779 69.6522 20.5059C69.5602 20.7659 69.4242 21.0939 69.2722 21.4739C68.6082 23.0899 67.4922 25.5659 67.1962 26.9299C67.0322 27.6979 66.8602 29.5419 66.7242 31.3219C66.5842 33.0219 66.4882 34.6699 66.4522 35.2539C66.4442 35.3979 66.4362 35.4819 66.4362 35.4819C66.4362 35.4819 66.3562 37.4099 65.8722 39.8579C65.3882 42.3099 64.7882 42.7899 63.3842 44.6339C63.1482 44.9379 62.5402 45.7579 61.6802 46.8979V46.9139C59.0082 50.4699 53.9882 57.1819 50.5842 61.7579H35.5922L49.3762 45.2299L52.5322 41.4379L53.8162 39.9059C55.0842 38.3859 55.8922 36.5499 56.1642 34.5899C56.7202 30.5459 57.7122 23.7299 58.1322 22.9179C58.1322 22.9179 58.1322 22.9099 58.1482 22.8979C58.1482 22.8979 58.1562 22.8819 58.1642 22.8779C58.6722 21.8819 60.7082 17.6779 61.9202 15.6939C62.2562 15.1579 62.5162 14.7859 62.6802 14.6819C63.0442 14.4499 64.3362 13.8299 65.6682 13.2219C67.0842 12.5699 68.5482 11.9339 69.0242 11.7939C69.2082 11.7379 69.4522 11.7019 69.7442 11.6699C70.9042 11.5579 72.7082 11.6219 73.4802 11.5899C74.4402 11.5459 74.4002 11.7459 74.4002 12.2699V12.2659Z" fill="#FFAB92"/>
<path d="M65.3637 18.2899C65.2077 18.6739 64.6917 19.5259 64.3157 20.7859C64.8717 20.5699 65.5037 20.3259 66.1317 20.0899C66.1797 19.9819 66.2157 19.8859 66.2437 19.8139C66.6277 18.7779 67.7477 15.6379 69.1117 16.1579C69.1717 16.1739 69.2357 16.2059 69.2957 16.2419C70.2917 16.8499 70.3157 17.9819 70.0757 19.0779C70.4877 19.2219 70.7557 19.5899 71.1397 20.0979C71.7597 20.9219 72.1997 21.5819 72.9437 22.8299C73.6277 23.9819 73.8717 24.5939 73.5877 25.0779C73.3077 25.5619 71.8557 28.0099 71.6197 28.6899C71.3797 29.3699 70.8557 30.8979 70.4557 32.8259C70.0557 34.7539 69.2917 34.7139 68.3637 34.9539C68.0437 35.0379 67.2957 35.1459 66.4517 35.2539C66.4437 35.3979 66.4357 35.4819 66.4357 35.4819C66.4357 35.4819 66.3557 37.4099 65.8757 39.8579C65.3917 42.3099 64.7917 42.7899 63.3877 44.6339C63.1517 44.9379 62.5437 45.7579 61.6837 46.8979L62.4957 45.0299C63.8437 41.9339 63.4997 38.3619 61.5997 35.5739L58.8197 31.5019L58.6317 34.5059C58.5077 36.4379 57.5997 38.2419 56.1277 39.4979L49.3797 45.2219L53.8157 39.9019C55.0837 38.3819 55.8917 36.5459 56.1637 34.5859C56.7197 30.5419 57.7117 23.7259 58.1317 22.9139C58.1317 22.9139 58.1317 22.9059 58.1477 22.8939C58.7757 21.6779 61.9157 15.1579 62.6717 14.6819C63.4357 14.2019 68.0877 12.0739 69.0157 11.7939C69.1997 11.7379 69.4437 11.7019 69.7357 11.6699C70.8957 11.5579 72.6997 11.6219 73.4717 11.5899C74.4317 11.5459 74.3917 11.7459 74.3917 12.2699C74.3917 12.7939 73.9077 13.4739 72.8637 13.7939C71.8237 14.1179 70.0917 14.1979 69.2957 14.5579C68.4917 14.9219 67.9517 15.5539 67.0717 16.1259C66.1877 16.7059 66.1037 16.9979 65.6677 18.0779L65.3677 18.2899H65.3637Z" fill="#FF7F4C"/>
<path d="M66.372 31.4987L68.62 30.3747C68.62 30.3747 68.5 29.5307 68.62 28.7267C68.74 27.9227 70.304 25.9187 70.588 25.4347C70.868 24.9507 71.308 24.5147 70.764 23.6267C70.224 22.7387 69.044 21.1387 69.044 21.1387L67.22 25.7987L66.368 31.4987V31.5067H66.372V31.4987Z" fill="#A93E00"/>
<path d="M69.1159 16.1583C68.7399 16.9663 67.4599 19.7423 66.2479 22.4223C64.8039 25.6103 62.0279 29.2543 61.1599 30.1903C60.2879 31.1263 61.4519 28.3463 63.1119 25.5063C63.1279 25.4863 63.1359 25.4623 63.1519 25.4423C63.8599 24.2983 65.9119 20.7263 66.2519 19.8143C66.6359 18.7783 67.7559 15.6383 69.1199 16.1583H69.1159Z" fill="#A93E00"/>
<path d="M69.7396 11.6621C69.7396 11.6621 63.9156 15.0101 63.1836 15.6781C62.6276 16.1901 58.4036 22.4901 58.1516 22.8861C58.7796 21.6701 61.9195 15.1501 62.6755 14.6741C63.4395 14.1941 68.0915 12.0661 69.0195 11.7861C69.2035 11.7301 69.4476 11.6941 69.7396 11.6621Z" fill="#A93E00"/>
<path d="M76.8801 3.17386C74.3801 3.82586 72.3161 5.42986 71.0601 7.68586L67.8561 13.4539L65.3961 17.8779C64.5081 19.1259 64.1201 20.6459 64.3081 22.1659C64.3521 22.5179 64.4081 22.8699 64.4561 23.2259C65.0281 22.2179 65.6241 21.1419 65.9761 20.4259C66.1401 20.1019 66.3641 19.6539 66.5481 19.0419C66.8761 18.2139 67.3721 17.1259 67.9681 16.5339L72.4561 8.46586C73.4961 6.59386 75.2081 5.26586 77.2801 4.72586C79.3521 4.18586 81.4961 4.50586 83.3201 5.62986L84.4841 4.36586C82.2841 3.00986 79.3761 2.52586 76.8761 3.17786L76.8801 3.17386Z" fill="#00144A"/>
<path d="M66.9119 27.8418L67.6639 30.8498L66.3719 31.4978L66.9119 27.8418Z" fill="#00144A"/>
<path d="M85.0282 13.9375L92.7082 6.83355L91.5482 5.58555C89.8242 3.73355 86.9322 3.60955 85.0922 5.30955L84.0842 6.24155C82.2442 7.94155 82.1482 10.8295 83.8682 12.6815L85.0282 13.9295V13.9375Z" fill="#046C7C"/>
<path d="M94.6278 7.96578L86.1318 15.8218C85.8838 16.0538 85.4958 16.0338 85.4958 16.0338L84.6518 15.1298C84.4158 14.8818 84.4318 14.4898 84.6798 14.2578C87.1078 11.2938 89.9318 8.67378 93.0718 6.47778L93.1758 6.40578C93.4238 6.17378 93.8158 6.19378 94.0478 6.44178L94.8478 7.30578C94.8478 7.48178 94.8758 7.73778 94.6278 7.96978V7.96578Z" fill="#0899A7"/>
<path d="M86.3676 4.6058L83.3236 7.4218L82.6196 6.6658C82.3916 6.4218 82.4076 6.0378 82.6516 5.8098L84.8076 3.8138C85.0516 3.5858 85.4356 3.6018 85.6596 3.8458L86.3676 4.6058Z" fill="#046C7C"/>
<path d="M90.7767 12.3164C93.3656 9.90986 95.1875 7.66122 94.846 7.29393C94.5046 6.92664 92.1291 8.57977 89.5403 10.9863C86.9515 13.3929 85.1296 15.6415 85.471 16.0088C85.8124 16.3761 88.1879 14.7229 90.7767 12.3164Z" fill="#046C7C"/>
<path d="M91.728 17.5055C92.068 17.1935 92.084 16.6655 91.764 16.3255L88.736 13.0615C88.232 13.3055 87.812 13.6895 87.528 14.1695L87.516 14.1895L90.544 17.4535C90.86 17.7935 91.388 17.8135 91.728 17.5015V17.5055Z" fill="#FFDF72"/>
<path d="M95.8193 13.7897C96.1593 13.4777 96.1753 12.9497 95.8593 12.6097L92.8313 9.3457C92.2953 9.5417 91.8593 9.9417 91.6193 10.4577L91.6113 10.4737L94.6393 13.7377C94.9553 14.0777 95.4833 14.0977 95.8233 13.7857L95.8193 13.7897Z" fill="#FFDF72"/>
</svg>
