<svg width="128" height="63" viewBox="0 0 128 63" fill="none" xmlns="http://www.w3.org/2000/svg">
<path d="M118.4 0.742188H9.6C4.29807 0.742188 0 5.04025 0 10.3422V46.3422C0 51.6441 4.29807 55.9422 9.6 55.9422H118.4C123.702 55.9422 128 51.6441 128 46.3422V10.3422C128 5.04025 123.702 0.742188 118.4 0.742188Z" fill="#222F3B"/>
<mask id="mask0_4038_86976" style="mask-type:alpha" maskUnits="userSpaceOnUse" x="0" y="0" width="128" height="56">
<path d="M118.4 0.742188H9.6C4.29807 0.742188 0 5.04025 0 10.3422V46.3422C0 51.6441 4.29807 55.9422 9.6 55.9422H118.4C123.702 55.9422 128 51.6441 128 46.3422V10.3422C128 5.04025 123.702 0.742188 118.4 0.742188Z" fill="#222F3B"/>
</mask>
<g mask="url(#mask0_4038_86976)">
<path d="M72.8875 -2.54966C74.6773 -3.0172 76.514 -2.94739 78.2214 -2.37193C78.9625 -2.1451 79.6721 -1.8344 80.325 -1.45103L80.8162 -1.90513C81.0602 -2.13294 81.4438 -2.11684 81.6677 -1.8729L82.2937 -1.20103C84.0349 -1.99209 86.172 -1.61985 87.5564 -0.132669L88.6619 1.05581C88.8007 0.956168 88.9398 0.856891 89.0798 0.758932L89.1843 0.686667C89.4323 0.454927 89.8245 0.474887 90.0564 0.7228L90.822 1.55092C90.8339 1.55781 90.8452 1.56468 90.8542 1.57436C91.0698 1.80624 90.4219 2.78725 89.2644 4.0851L91.8679 6.89077C92.1823 7.22929 92.1674 7.7541 91.8318 8.06655C91.4918 8.37855 90.9632 8.3587 90.6472 8.0187L88.1238 5.29799C87.7089 5.71838 87.2601 6.15514 86.7849 6.59682C86.2732 7.07249 85.7688 7.51793 85.2878 7.92495L87.7722 10.6027C87.8502 10.6843 87.9061 10.7782 87.9431 10.8771C87.9462 10.8849 87.9491 10.8927 87.9519 10.9005C87.9537 10.9058 87.9561 10.9109 87.9578 10.9162C88.0592 11.2168 87.9841 11.5596 87.7361 11.7873V11.7824C87.3961 12.0944 86.8685 12.0745 86.5525 11.7345L83.989 8.97182C82.7253 9.93249 81.7778 10.4653 81.5125 10.3146C81.507 10.3145 81.5037 10.3146 81.5037 10.3146L81.4812 10.2902L81.4792 10.2892C81.4785 10.2883 81.4781 10.2872 81.4773 10.2863L80.6599 9.41128C80.4239 9.16329 80.4403 8.77121 80.6882 8.53921C80.7902 8.41476 80.8935 8.29134 80.9968 8.16811L79.8767 6.96303C78.4819 5.46123 78.2809 3.27814 79.2361 1.59975L78.6277 0.946432C78.4 0.702417 78.416 0.318866 78.6599 0.0909636L79.0369 -0.258646C77.278 -1.24315 75.2508 -1.5046 73.2878 -0.993021C71.216 -0.452955 69.5045 0.875333 68.4646 2.74721L66.7126 5.8937C67.7445 5.86316 68.902 5.8952 69.4802 5.87124C69.4961 5.87051 69.5118 5.87085 69.5271 5.87026C70.4473 5.83344 70.408 6.03407 70.408 6.55092L70.4031 6.64663C70.3536 7.08746 69.9793 7.60921 69.241 7.93569C69.1266 7.98669 69.004 8.03483 68.8718 8.07534C67.8334 8.39881 66.1049 8.47846 65.3074 8.83706C65.2952 8.8425 65.2835 8.84908 65.2712 8.85464C65.1714 8.90114 65.0752 8.95089 64.9822 9.00503L63.9939 10.7824C64.2663 10.5204 64.5591 10.3633 64.8669 10.383C64.9527 10.3876 65.0397 10.4051 65.1277 10.4386H65.1238L65.1228 10.4396C65.1818 10.4558 65.2446 10.4873 65.3035 10.5226C66.2973 11.1293 66.3231 12.2579 66.0847 13.3517C66.0871 13.3525 66.0892 13.3538 66.0916 13.3546C66.5076 13.4986 66.772 13.8671 67.156 14.3751C67.7759 15.199 68.2159 15.8589 68.9597 17.1066C69.6436 18.2583 69.8878 18.8707 69.6082 19.3546C69.3282 19.8386 67.8754 22.2869 67.6394 22.9669C67.3994 23.647 66.8753 25.1749 66.4753 27.1027C66.198 28.4394 65.7459 28.8297 65.1853 29.0236C65.0322 29.0775 64.871 29.1165 64.7029 29.1554L65.8074 34.6984C65.8834 35.0743 65.9833 35.4467 66.1033 35.8107H66.116C67.0079 35.5388 67.9802 35.8989 68.4841 36.6789C68.896 37.3148 68.9881 38.1231 68.7322 38.839L68.4675 39.5705L69.8835 41.1271C70.4715 41.7711 70.6521 42.6831 70.3601 43.5031L70.1873 43.9787C70.0353 44.4026 69.7798 44.7547 69.4558 45.0187C69.6518 45.4867 69.8236 45.9672 69.9636 46.4552C70.8875 49.6071 71.0233 52.6349 70.3513 55.8507L70.3601 55.8546L68.7917 55.8664C69.4077 52.9065 69.2834 49.8103 68.4314 46.9064C68.2955 46.4427 68.132 45.9908 67.9441 45.547C67.7161 45.547 67.4836 45.5067 67.2556 45.4347C66.6397 45.2387 66.1441 44.8106 65.8601 44.2306C65.5761 43.6506 65.5396 42.9987 65.7556 42.3908L65.8201 42.215C65.7681 42.159 65.7197 42.103 65.6677 42.047L64.9958 41.3224C64.2999 40.5744 63.8756 39.5982 63.7996 38.5783L63.7761 38.2306C63.7202 37.4906 64.0481 36.8108 64.6121 36.3908C64.4601 35.9428 64.336 35.4828 64.24 35.0109L63.1287 29.4425C62.9175 29.4718 62.6924 29.5045 62.4597 29.5343C62.4517 29.6783 62.4441 29.7628 62.4441 29.7628C62.4438 29.7702 62.424 30.211 62.3523 30.9347C62.2741 31.7287 62.1337 32.8632 61.8835 34.1388C61.3995 36.5908 60.8002 37.0712 59.3962 38.9152C59.1602 39.2192 58.5521 40.0389 57.6921 41.1789L57.697 41.1662C57.694 41.1702 57.6913 41.1748 57.6882 41.1789V41.1945C55.0162 44.7505 49.9965 51.4632 46.5925 56.0392H31.6003L45.3845 39.5109L45.3992 39.4923L45.3875 39.5031L47.4763 36.9982L48.5408 35.7189L49.0642 35.0929L49.824 34.1828C51.0918 32.6629 51.8996 30.8271 52.1716 28.8673C52.7276 24.8233 53.7194 18.0065 54.1394 17.1945C54.1396 17.1929 54.1419 17.1856 54.156 17.1749C54.1573 17.1724 54.1586 17.1697 54.1599 17.1671L55.0251 15.4376C56.2084 13.0692 58.1158 9.31378 58.6833 8.95522C59.3843 8.51482 63.3587 6.68684 64.7263 6.17202L67.0681 1.96303C68.3241 -0.292919 70.3875 -1.89764 72.8875 -2.54966ZM67.6316 41.8947H67.6355C68.0195 42.3907 68.3674 42.9112 68.6794 43.4552C68.6794 43.4552 68.6794 43.4466 68.6833 43.4425L68.8513 42.9669C68.9433 42.7029 68.888 42.4103 68.7 42.2023L67.8562 41.2746L67.6316 41.8947ZM65.3718 38.1183L65.3953 38.4669C65.4433 39.1268 65.7199 39.7545 66.1677 40.2384L66.4314 40.5226L66.6433 39.9386C66.1554 39.3747 65.7318 38.7584 65.3718 38.1105V38.1183ZM66.7673 37.3263C66.9193 37.6063 67.0873 37.8789 67.2712 38.1388C67.2992 37.9388 67.2553 37.7268 67.1433 37.5548C67.0593 37.4229 66.9153 37.3423 66.7673 37.3263Z" fill="#101619"/>
</g>
<path d="M74.3516 62.0742L72.7836 62.0862C73.3996 59.1262 73.2756 56.0302 72.4236 53.1262C72.2876 52.6622 72.1236 52.2101 71.9356 51.7661C71.7076 51.7661 71.4756 51.7261 71.2476 51.6541C70.6316 51.4581 70.1356 51.0301 69.8516 50.4501C69.5676 49.8701 69.5316 49.2181 69.7476 48.6101L69.8116 48.4342C69.7596 48.3782 69.7116 48.3221 69.6596 48.2661L68.9876 47.5421C68.2916 46.7941 67.8676 45.8181 67.7916 44.7981L67.7676 44.4501C67.7116 43.7101 68.0396 43.0301 68.6036 42.6101C68.4516 42.1621 68.3276 41.7021 68.2316 41.2301L67.0956 35.5301L65.8476 30.7261C65.1596 28.0821 64.6436 25.3701 64.3076 22.6621C64.1196 21.1421 64.5036 19.6221 65.3956 18.3741L71.0596 8.18215C72.3156 5.92615 74.3796 4.32215 76.8796 3.67015C79.3756 3.01815 81.9636 3.40615 84.1636 4.76215L83.3236 6.12215C81.4996 4.99815 79.3556 4.67815 77.2836 5.21815C75.2116 5.75815 73.4996 7.08615 72.4596 8.95815L66.7196 19.2701C66.0476 20.1941 65.7556 21.3301 65.8956 22.4621C66.2196 25.1021 66.7276 27.7461 67.3956 30.3221L68.6596 35.1941L69.7996 40.9181C69.8756 41.2941 69.9756 41.6661 70.0956 42.0301H70.1076C70.9996 41.7581 71.9716 42.1181 72.4756 42.8981C72.8876 43.5341 72.9796 44.3421 72.7236 45.0581L72.4596 45.7901L73.8756 47.3461C74.4636 47.9902 74.6436 48.9021 74.3516 49.7221L74.1796 50.1981C74.0276 50.6221 73.7716 50.9741 73.4476 51.2381C73.6436 51.7061 73.8156 52.1861 73.9556 52.6741C74.8796 55.8261 75.0156 58.8542 74.3436 62.0702L74.3516 62.0742ZM71.6276 48.1141C72.0116 48.6101 72.3596 49.1301 72.6716 49.6741C72.6716 49.6741 72.6716 49.6661 72.6756 49.6622L72.8436 49.1861C72.9356 48.9221 72.8796 48.6301 72.6916 48.4221L71.8476 47.4941L71.6236 48.1141H71.6276ZM69.3636 44.3261C69.3636 44.3261 69.3636 44.3341 69.3636 44.3381L69.3876 44.6861C69.4356 45.3461 69.7116 45.9741 70.1596 46.4581L70.4236 46.7421L70.6356 46.1581C70.1476 45.5942 69.7236 44.9781 69.3636 44.3302V44.3261ZM70.7596 43.5462C70.9116 43.8261 71.0796 44.0981 71.2636 44.3582C71.2916 44.1581 71.2476 43.9461 71.1356 43.7742C71.0516 43.6422 70.9076 43.5621 70.7596 43.5462Z" fill="#00144A"/>
<path d="M73.5997 25.5743C73.3197 26.0583 71.8677 28.5063 71.6317 29.1863C71.3917 29.8663 70.8677 31.3943 70.4677 33.3223C70.0677 35.2503 69.3037 35.2103 68.3757 35.4503C68.0557 35.5343 67.3077 35.6423 66.4637 35.7503C64.8757 35.9463 62.9596 36.1343 62.9596 36.1343L60.9156 32.2023L62.5997 21.9623C62.5997 21.9623 63.3437 21.6663 64.3237 21.2863C64.8797 21.0703 65.5117 20.8263 66.1397 20.5903C67.1717 20.1943 68.1596 19.8343 68.7036 19.6743C69.3396 19.4783 69.7597 19.4583 70.0837 19.5743C70.4997 19.7183 70.7636 20.0863 71.1476 20.5943C71.7676 21.4183 72.2077 22.0783 72.9517 23.3263C73.6357 24.4783 73.8797 25.0903 73.5997 25.5743Z" fill="#FFAB92"/>
<path d="M74.4002 12.7659C74.4002 13.2899 73.9162 13.9699 72.8722 14.2899C71.8322 14.6139 70.1002 14.6939 69.3042 15.0539C68.6682 15.3379 67.9082 15.7739 67.1802 16.2339C66.9882 16.3539 66.7962 16.4739 66.6122 16.5979C66.1522 16.8979 65.9162 17.1219 65.7282 17.4099C65.5522 17.6859 65.4242 18.0259 65.2042 18.5499C65.0442 18.9339 64.6962 20.0339 64.3162 21.2899C64.0442 22.1939 63.7562 23.1699 63.5082 24.0219C63.1402 25.3299 62.8642 26.3339 62.9122 26.3059C62.9282 26.2899 62.9962 26.1939 63.1082 26.0139C63.1242 25.9939 63.1322 25.9699 63.1482 25.9499C63.1762 25.9019 63.2122 25.8419 63.2482 25.7819C63.2882 25.7259 63.3202 25.6699 63.3602 25.6059C63.4682 25.4339 63.5882 25.2299 63.7162 25.0099C63.7522 24.9539 63.7802 24.9019 63.8162 24.8419C63.9562 24.6099 64.0922 24.3699 64.2402 24.1139C64.2682 24.0659 64.3002 24.0059 64.3282 23.9499L64.4122 23.8059L64.4602 23.7259C64.5082 23.6459 64.5522 23.5579 64.6042 23.4779C64.7162 23.2699 64.8402 23.0619 64.9482 22.8579C65.0402 22.6859 65.1362 22.5179 65.2242 22.3499C65.2922 22.2299 65.3562 22.1139 65.4202 21.9939C65.5002 21.8419 65.5842 21.6939 65.6562 21.5459C65.7642 21.3379 65.8602 21.1499 65.9402 20.9859C65.9562 20.9659 65.9642 20.9419 65.9762 20.9219C66.0362 20.8019 66.0842 20.6939 66.1282 20.5979C66.1522 20.5499 66.1722 20.4939 66.1922 20.4499C66.2122 20.4019 66.2322 20.3619 66.2402 20.3219C66.6242 19.2859 67.7442 16.1459 69.1082 16.6659C69.1682 16.6819 69.2322 16.7139 69.2922 16.7499C70.2882 17.3579 70.3122 18.4899 70.0722 19.5859C69.9642 20.0819 69.8002 20.5779 69.6522 21.0059C69.5602 21.2659 69.4242 21.5939 69.2722 21.9739C68.6082 23.5899 67.4922 26.0659 67.1962 27.4299C67.0322 28.1979 66.8602 30.0419 66.7242 31.8219C66.5842 33.5219 66.4882 35.1699 66.4522 35.7539C66.4442 35.8979 66.4362 35.9819 66.4362 35.9819C66.4362 35.9819 66.3562 37.9099 65.8722 40.3579C65.3882 42.8099 64.7882 43.2899 63.3842 45.1339C63.1482 45.4379 62.5402 46.2579 61.6802 47.3979V47.4139C59.0082 50.9699 53.9882 57.6819 50.5842 62.2579H35.5922L49.3762 45.7299L52.5322 41.9379L53.8162 40.4059C55.0842 38.8859 55.8922 37.0499 56.1642 35.0899C56.7202 31.0459 57.7122 24.2299 58.1322 23.4179C58.1322 23.4179 58.1322 23.4099 58.1482 23.3979C58.1482 23.3979 58.1562 23.3819 58.1642 23.3779C58.6722 22.3819 60.7082 18.1779 61.9202 16.1939C62.2562 15.6579 62.5162 15.2859 62.6802 15.1819C63.0442 14.9499 64.3362 14.3299 65.6682 13.7219C67.0842 13.0699 68.5482 12.4339 69.0242 12.2939C69.2082 12.2379 69.4522 12.2019 69.7442 12.1699C70.9042 12.0579 72.7082 12.1219 73.4802 12.0899C74.4402 12.0459 74.4002 12.2459 74.4002 12.7699V12.7659Z" fill="#FFAB92"/>
<path d="M65.3636 18.7899C65.2076 19.1739 64.6916 20.0259 64.3156 21.2859C64.8716 21.0699 65.5036 20.8259 66.1316 20.5899C66.1796 20.4819 66.2156 20.3859 66.2436 20.3139C66.6276 19.2779 67.7476 16.1379 69.1116 16.6579C69.1716 16.6739 69.2356 16.7059 69.2956 16.7419C70.2916 17.3499 70.3156 18.4819 70.0756 19.5779C70.4876 19.7219 70.7556 20.0899 71.1396 20.5979C71.7596 21.4219 72.1996 22.0819 72.9436 23.3299C73.6276 24.4819 73.8716 25.0939 73.5876 25.5779C73.3076 26.0619 71.8556 28.5099 71.6196 29.1899C71.3796 29.8699 70.8556 31.3979 70.4556 33.3259C70.0556 35.2539 69.2916 35.2139 68.3636 35.4539C68.0436 35.5379 67.2956 35.6459 66.4516 35.7539C66.4436 35.8979 66.4356 35.9819 66.4356 35.9819C66.4356 35.9819 66.3556 37.9099 65.8756 40.3579C65.3916 42.8099 64.7916 43.2899 63.3876 45.1339C63.1516 45.4379 62.5436 46.2579 61.6836 47.3979L62.4956 45.5299C63.8436 42.4339 63.4996 38.8619 61.5996 36.0739L58.8196 32.0019L58.6316 35.0059C58.5076 36.9379 57.5996 38.7419 56.1276 39.9979L49.3796 45.7219L53.8156 40.4019C55.0836 38.8819 55.8916 37.0459 56.1636 35.0859C56.7196 31.0419 57.7116 24.2259 58.1316 23.4139C58.1316 23.4139 58.1316 23.4059 58.1476 23.3939C58.7756 22.1779 61.9156 15.6579 62.6716 15.1819C63.4356 14.7019 68.0876 12.5739 69.0156 12.2939C69.1996 12.2379 69.4436 12.2019 69.7356 12.1699C70.8956 12.0579 72.6996 12.1219 73.4716 12.0899C74.4316 12.0459 74.3916 12.2459 74.3916 12.7699C74.3916 13.2939 73.9076 13.9739 72.8636 14.2939C71.8236 14.6179 70.0916 14.6979 69.2956 15.0579C68.4916 15.4219 67.9516 16.0539 67.0716 16.6259C66.1876 17.2059 66.1036 17.4979 65.6676 18.5779L65.3676 18.7899H65.3636Z" fill="#FF7F4C"/>
<path d="M66.3719 31.9987L68.6199 30.8747C68.6199 30.8747 68.4999 30.0307 68.6199 29.2267C68.7399 28.4227 70.3039 26.4187 70.5879 25.9347C70.8679 25.4507 71.3079 25.0147 70.7639 24.1267C70.2239 23.2387 69.0439 21.6387 69.0439 21.6387L67.2199 26.2987L66.3679 31.9987V32.0067H66.3719V31.9987Z" fill="#A93E00"/>
<path d="M69.116 16.6583C68.74 17.4663 67.46 20.2423 66.248 22.9223C64.804 26.1103 62.028 29.7543 61.16 30.6903C60.288 31.6263 61.452 28.8463 63.112 26.0063C63.128 25.9863 63.136 25.9623 63.152 25.9423C63.86 24.7983 65.912 21.2263 66.252 20.3143C66.636 19.2783 67.756 16.1383 69.12 16.6583H69.116Z" fill="#A93E00"/>
<path d="M69.7396 12.1621C69.7396 12.1621 63.9156 15.5101 63.1836 16.1781C62.6276 16.6901 58.4036 22.9901 58.1516 23.3861C58.7796 22.1701 61.9196 15.6501 62.6756 15.1741C63.4396 14.6941 68.0916 12.5661 69.0196 12.2861C69.2036 12.2301 69.4476 12.1941 69.7396 12.1621Z" fill="#A93E00"/>
<path d="M76.8801 3.67386C74.3801 4.32586 72.3161 5.92986 71.0601 8.18586L67.8561 13.9539L65.3961 18.3779C64.5081 19.6259 64.1201 21.1459 64.3081 22.6659C64.3521 23.0179 64.4081 23.3699 64.4561 23.7259C65.0281 22.7179 65.6241 21.6419 65.9761 20.9259C66.1401 20.6019 66.3641 20.1539 66.5481 19.5419C66.8761 18.7139 67.3721 17.6259 67.9681 17.0339L72.4561 8.96586C73.4961 7.09386 75.2081 5.76586 77.2801 5.22586C79.3521 4.68586 81.4961 5.00586 83.3201 6.12986L84.4841 4.86586C82.2841 3.50986 79.3761 3.02586 76.8761 3.67786L76.8801 3.67386Z" fill="#00144A"/>
<path d="M66.9118 28.3418L67.6638 31.3498L66.3718 31.9978L66.9118 28.3418Z" fill="#00144A"/>
<path d="M85.0282 14.4375L92.7082 7.33355L91.5482 6.08555C89.8242 4.23355 86.9322 4.10955 85.0922 5.80955L84.0842 6.74155C82.2442 8.44155 82.1482 11.3295 83.8682 13.1815L85.0282 14.4295V14.4375Z" fill="#046C7C"/>
<path d="M94.6279 8.46578L86.1319 16.3218C85.8839 16.5538 85.4959 16.5338 85.4959 16.5338L84.6519 15.6298C84.4159 15.3818 84.4319 14.9898 84.6799 14.7578C87.1079 11.7938 89.9319 9.17378 93.0719 6.97778L93.1759 6.90578C93.4239 6.67378 93.8159 6.69378 94.0479 6.94178L94.8479 7.80578C94.8479 7.98178 94.8759 8.23778 94.6279 8.46978V8.46578Z" fill="#0899A7"/>
<path d="M86.3677 5.1058L83.3237 7.9218L82.6197 7.1658C82.3917 6.9218 82.4077 6.5378 82.6517 6.3098L84.8077 4.3138C85.0517 4.0858 85.4357 4.1018 85.6597 4.3458L86.3677 5.1058Z" fill="#046C7C"/>
<path d="M90.7767 12.8164C93.3656 10.4099 95.1875 8.16122 94.846 7.79393C94.5046 7.42664 92.1291 9.07977 89.5403 11.4863C86.9515 13.8929 85.1296 16.1415 85.471 16.5088C85.8124 16.8761 88.1879 15.2229 90.7767 12.8164Z" fill="#046C7C"/>
<path d="M91.7281 18.0055C92.0681 17.6935 92.0841 17.1655 91.7641 16.8255L88.7361 13.5615C88.2321 13.8055 87.8121 14.1895 87.5281 14.6695L87.5161 14.6895L90.5441 17.9535C90.8601 18.2935 91.3881 18.3135 91.7281 18.0015V18.0055Z" fill="#D0B863"/>
<path d="M95.8193 14.2897C96.1593 13.9777 96.1753 13.4497 95.8593 13.1097L92.8313 9.8457C92.2953 10.0417 91.8593 10.4417 91.6193 10.9577L91.6113 10.9737L94.6393 14.2377C94.9553 14.5777 95.4833 14.5977 95.8233 14.2857L95.8193 14.2897Z" fill="#D0B863"/>
</svg>
