<svg width="160" height="160" viewBox="0 0 160 160" fill="none" xmlns="http://www.w3.org/2000/svg">
<mask id="mask0_2672_44827" style="mask-type:alpha" maskUnits="userSpaceOnUse" x="0" y="0" width="160" height="160">
<circle cx="80" cy="80" r="80" fill="#EBF8FF"/>
</mask>
<g mask="url(#mask0_2672_44827)">
<path d="M184.437 4.92495e-06H-48.4373C-49.9553 -0.00139667 -51.4586 0.296376 -52.8614 0.876291C-54.2642 1.45621 -55.5389 2.3069 -56.6127 3.37974C-57.6866 4.45258 -58.5384 5.72653 -59.1196 7.12878C-59.7008 8.53103 -60 10.0341 -60 11.552V148.437C-60 151.504 -58.7818 154.445 -56.6134 156.613C-54.445 158.782 -51.5039 160 -48.4373 160H184.437C187.504 160 190.445 158.782 192.613 156.613C194.782 154.445 196 151.504 196 148.437V11.552C196 10.0341 195.701 8.53103 195.12 7.12878C194.538 5.72653 193.687 4.45258 192.613 3.37974C191.539 2.3069 190.264 1.45621 188.861 0.876291C187.459 0.296376 185.955 -0.00139667 184.437 4.92495e-06Z" fill="#EBF8FF"/>
<path d="M62.4005 155.622L96.5804 128.788L47.5534 105.73C47.1351 105.541 46.6733 105.47 46.2264 105.563C45.7794 105.656 45.3676 105.877 45.062 106.206L22.1097 131.125L62.3863 155.626L62.4005 155.622Z" fill="#D1EFFF"/>
<path d="M93.8143 130.696C93.7908 130.611 93.7531 130.53 93.6871 130.457C93.6353 130.38 93.563 130.339 93.4765 130.301L45.1349 107.131C45.1349 107.131 44.9839 107.081 44.9052 107.072C44.8265 107.064 44.7376 107.073 44.6707 107.107C44.5857 107.13 44.5227 107.178 44.4597 107.226C44.3967 107.274 44.3557 107.346 44.3147 107.419C44.2737 107.491 44.265 107.57 44.2562 107.648C44.2475 107.727 44.271 107.812 44.2906 107.883C44.3141 107.968 44.362 108.031 44.4099 108.094C44.4578 108.157 44.5302 108.198 44.6025 108.239L92.9402 131.395C93.0448 131.443 93.1738 131.468 93.291 131.451C93.4082 131.434 93.5177 131.388 93.6192 131.314C93.7067 131.244 93.7823 131.132 93.8116 131.017C93.8408 130.902 93.852 130.777 93.8206 130.664L93.8143 130.696Z" fill="#B8E6FF"/>
<path d="M62.601 156.237L66.7407 172.919L26.5444 143.028L22.4956 131.308L62.601 156.237L94.7178 129.607C95.9929 128.538 97.8297 129.997 97.0821 131.485L66.7407 172.919" fill="#EBF8FF"/>
<path d="M97.8033 130.233C97.6819 129.794 97.4188 129.394 97.0518 129.114C96.6588 128.796 96.1838 128.622 95.681 128.624C95.1783 128.626 94.6942 128.806 94.328 129.136L62.5569 155.472L22.8171 130.762C22.7086 130.7 22.5757 130.661 22.4545 130.664C22.3192 130.67 22.2137 130.73 22.1082 130.79C22.0066 130.864 21.931 130.976 21.9056 131.105C21.8803 131.234 21.8691 131.359 21.9186 131.483L25.9674 143.203C25.9987 143.316 26.0906 143.428 26.185 143.494L66.3852 173.398C66.5015 173.488 66.6486 173.524 66.7981 173.513C66.8406 173.501 66.8831 173.489 66.9256 173.478C67.0389 173.446 67.1263 173.376 67.2098 173.292C67.224 173.288 67.2342 173.27 67.2445 173.252L97.5756 131.836C97.5756 131.836 97.6206 131.778 97.6269 131.746C97.8753 131.266 97.9224 130.719 97.7814 130.209L97.8033 130.233ZM63.3055 156.469L95.1254 130.089C95.2861 129.953 95.4805 129.884 95.6906 129.872C95.9007 129.86 96.102 129.926 96.2623 130.065C96.4226 130.203 96.5444 130.368 96.5992 130.566C96.6541 130.765 96.6381 130.982 96.5537 131.174L67.0436 171.478L63.3055 156.469ZM23.6581 132.755L62.0544 156.632L65.718 171.372L27.0727 142.623L23.6542 132.741L23.6581 132.755Z" fill="#B8E6FF"/>
<path d="M96.3568 130.13C96.2727 130.047 96.1603 129.971 96.0415 129.928C95.9228 129.884 95.7938 129.859 95.6726 129.862C95.5515 129.865 95.424 129.9 95.3004 129.95C95.1768 129.999 95.0752 130.073 94.9957 130.171L93.3119 131.582L95.0991 133.192L96.3591 131.517C96.4567 131.429 96.5182 131.321 96.5758 131.198C96.6192 131.08 96.6445 130.951 96.6557 130.825C96.6527 130.704 96.6316 130.573 96.5822 130.449C96.5328 130.326 96.459 130.224 96.3749 130.141L96.3568 130.13Z" fill="#9EDDFF"/>
<path d="M89.9824 136.361C89.9824 136.361 89.933 136.237 89.889 136.188C89.8489 136.154 89.8089 136.119 89.7546 136.088C89.7004 136.057 89.6539 136.055 89.6036 136.038C89.543 136.04 89.4966 136.038 89.4439 136.067C89.3872 136.083 89.3486 136.109 89.2998 136.153L68.3237 155.204C68.2363 155.274 68.1889 155.379 68.1919 155.5C68.191 155.607 68.2224 155.72 68.2923 155.808C68.3324 155.842 68.3724 155.877 68.4267 155.908C68.4809 155.938 68.5274 155.941 68.5777 155.957C68.6383 155.956 68.6847 155.958 68.7374 155.928C68.7941 155.913 68.8327 155.887 68.8815 155.843L89.8576 136.792C89.8576 136.792 89.9616 136.671 89.9704 136.593C89.9933 136.51 89.9879 136.435 89.9683 136.365L89.9824 136.361Z" fill="#B8E6FF"/>
<path d="M86.8834 141.975C86.8834 141.975 86.8238 141.87 86.7798 141.821C86.7397 141.786 86.6996 141.751 86.6493 141.735C86.5989 141.718 86.5486 141.702 86.488 141.703C86.4314 141.719 86.385 141.716 86.3322 141.746C86.2755 141.762 86.2409 141.802 86.2062 141.842L67.296 162.96C67.2267 163.04 67.1833 163.159 67.1965 163.262C67.1956 163.369 67.2553 163.475 67.3354 163.544C67.3755 163.579 67.4156 163.613 67.4659 163.63C67.5163 163.647 67.5666 163.663 67.6272 163.662C67.6838 163.646 67.7263 163.634 67.783 163.619C67.8397 163.603 67.8743 163.563 67.909 163.523L86.8192 142.405C86.8192 142.405 86.9051 142.274 86.9139 142.195C86.9226 142.117 86.9172 142.042 86.8976 141.971L86.8834 141.975Z" fill="#B8E6FF"/>
<path d="M53.5161 153.382C53.4808 153.254 53.407 153.153 53.2946 153.077L27.8691 137.34C27.7567 137.264 27.6135 137.243 27.4861 137.278C27.3586 137.313 27.2428 137.391 27.1672 137.504C27.1364 137.558 27.1096 137.626 27.0969 137.691C27.0842 137.755 27.0897 137.83 27.1053 137.887C27.1249 137.958 27.1406 138.014 27.1846 138.063C27.2286 138.112 27.2726 138.161 27.3307 138.206L52.7601 153.957C52.7601 153.957 52.8828 154.014 52.9473 154.027C53.0118 154.04 53.0865 154.034 53.1432 154.018C53.214 153.999 53.2707 153.983 53.3195 153.939C53.3683 153.895 53.4172 153.851 53.4621 153.793C53.507 153.735 53.5197 153.67 53.5323 153.606C53.545 153.541 53.5396 153.467 53.52 153.396L53.5161 153.382Z" fill="#B8E6FF"/>
<path d="M61.6783 162.882C61.6469 162.769 61.5731 162.667 61.4827 162.616L37.7143 146.695C37.7143 146.695 37.6058 146.634 37.5413 146.621C37.4768 146.608 37.4163 146.61 37.3415 146.615C37.2849 146.631 37.214 146.651 37.1652 146.695C37.1124 146.724 37.0636 146.768 37.0329 146.823C37.0021 146.877 36.9714 146.931 36.9587 146.996C36.946 147.06 36.9475 147.121 36.9632 147.177C36.9789 147.234 36.9985 147.305 37.0425 147.354C37.0723 147.406 37.1305 147.451 37.1705 147.486L60.9247 163.411C60.9247 163.411 61.0332 163.472 61.0977 163.485C61.1622 163.497 61.2228 163.496 61.2936 163.476C61.3644 163.457 61.4211 163.441 61.4699 163.397C61.5188 163.353 61.5676 163.309 61.5984 163.255C61.6433 163.197 61.6701 163.128 61.6828 163.064C61.6954 162.999 61.69 162.925 61.6704 162.854L61.6783 162.882Z" fill="#B8E6FF"/>
<path d="M4.4699 113.683L45.4789 93.6687C47.2275 92.8098 47.9384 90.7169 47.099 88.9833L17.9747 29.3101C17.1158 27.5614 15.023 26.8505 13.2894 27.6899L-27.7173 47.7214C-29.4659 48.5802 -30.1769 50.6731 -29.3375 52.4067L-0.213175 112.08C0.645677 113.829 2.73855 114.54 4.47214 113.7L4.4699 113.683Z" fill="#9EDDFF"/>
<path d="M2.47969 112.819L43.2914 92.637C45.0228 91.7804 45.7337 89.6875 44.8771 87.9561L15.5102 28.5776C14.6536 26.8462 12.5608 26.1353 10.8294 26.9919L-29.9823 47.1736C-31.7137 48.0302 -32.4246 50.1231 -31.568 51.8544L-2.2184 111.235C-1.36179 112.967 0.73108 113.677 2.46243 112.821L2.47969 112.819Z" fill="#B8E6FF"/>
<path d="M9.6784 43.1275L-14.3474 55.0046L-10.1123 63.5623L13.9135 51.6852L9.6784 43.1275Z" fill="#EBF8FF"/>
<path d="M165.443 64.8898L126.325 43.5575C124.663 42.6567 122.589 43.2619 121.688 44.924L90.6524 101.829C89.7516 103.492 90.3567 105.565 92.0188 106.466L131.137 127.798C132.799 128.699 134.873 128.094 135.773 126.432L166.81 69.5264C167.71 67.8642 167.105 65.7906 165.443 64.8898Z" fill="#D1EFFF"/>
<path d="M140.347 61.6638C139.075 60.8812 137.583 60.4892 136.098 60.5609C134.598 60.6131 133.158 61.1208 131.944 62.0099C130.73 62.8989 129.803 64.1112 129.289 65.5139C128.775 66.9167 128.686 68.4433 129.035 69.9079C129.385 71.3725 130.154 72.686 131.266 73.6984C132.361 74.7079 133.735 75.3882 135.223 75.608C136.707 75.8445 138.218 75.623 139.576 74.9983C140.933 74.3736 142.084 73.3539 142.867 72.0827L136.397 68.1333L140.363 61.6667L140.347 61.6638Z" fill="#EBF8FF"/>
<path d="M142.735 61.0264L138.788 67.4792L145.241 71.4258C145.763 70.5728 146.112 69.6386 146.263 68.6536C146.431 67.6714 146.379 66.6689 146.15 65.7046C145.921 64.7403 145.494 63.8279 144.911 63.0259C144.329 62.2239 143.588 61.549 142.735 61.0264Z" fill="#B8E6FF"/>
<path d="M144.258 86.7976L117.005 71.93C116.097 71.4321 114.976 71.7718 114.478 72.6804C113.981 73.589 114.32 74.7093 115.229 75.2072L142.482 90.0748C143.391 90.5727 144.511 90.233 145.009 89.3244C145.507 88.4158 145.167 87.2955 144.258 86.7976Z" fill="#EBF8FF"/>
<path d="M140.755 92.2639L113.501 77.3963C112.593 76.8984 111.472 77.2381 110.975 78.1467C110.477 79.0553 110.816 80.1756 111.725 80.6735L138.978 95.5411C139.887 96.039 141.024 95.7022 141.505 94.7907C142.003 93.8821 141.663 92.7618 140.755 92.2639Z" fill="#EBF8FF"/>
<path d="M124.647 90.6767L110.134 82.7659C109.226 82.268 108.089 82.6049 107.607 83.5163C107.109 84.4249 107.449 85.5452 108.358 86.0431L122.888 93.9568C123.796 94.4547 124.916 94.115 125.414 93.2064C125.912 92.2977 125.572 91.1775 124.664 90.6796L124.647 90.6767Z" fill="#EBF8FF"/>
<path d="M62.7996 25.0903C62.7996 24.0037 59.6454 23.1339 55.4309 22.9363C55.19 18.727 54.2623 15.5972 53.1755 15.5996C52.0888 15.602 51.1852 18.756 50.9539 22.9869C46.7274 23.276 43.5852 24.2205 43.5997 25.3096C43.6141 26.3986 46.7539 27.2684 50.9683 27.4636C51.2213 31.6729 52.137 34.8027 53.2213 34.8003C54.3056 34.7979 55.2141 31.644 55.4454 27.413C59.6719 27.1239 62.8116 26.1794 62.7996 25.0903Z" fill="#D1EFFF"/>
<path d="M18.8177 84.5214L66.7778 111.66C66.9676 111.77 67.109 111.947 67.1736 112.157L78.8226 149.551C78.9395 149.93 79.1549 150.271 79.4468 150.54C79.7387 150.808 80.0965 150.994 80.4834 151.078C80.8703 151.162 81.2724 151.141 81.6484 151.018C82.0243 150.895 82.3604 150.673 82.6223 150.376L102.438 128.089C102.694 127.803 102.871 127.454 102.953 127.078C103.035 126.702 103.018 126.311 102.905 125.943L95.9427 103.195C95.8794 102.989 95.8949 102.767 95.9862 102.573L120.311 51.1955L18.8177 84.5214Z" fill="#0070F2"/>
<path d="M91.3767 104.341L99.2785 129.706C99.3228 129.849 99.4042 129.978 99.5144 130.079C99.6245 130.18 99.7596 130.251 99.9056 130.283C100.052 130.314 100.203 130.307 100.345 130.261C100.488 130.214 100.615 130.131 100.714 130.019L102.119 128.439C102.469 128.043 102.711 127.564 102.823 127.047C102.934 126.53 102.911 125.992 102.755 125.487L96.0276 103.504C95.9044 103.096 95.9365 102.656 96.1178 102.271L119.463 52.9655C119.533 52.8156 119.558 52.6484 119.534 52.4844C119.511 52.3204 119.44 52.1668 119.331 52.0425C119.221 51.9182 119.078 51.8286 118.919 51.7848C118.759 51.741 118.591 51.745 118.433 51.7961C118.346 51.8257 118.263 51.8698 118.19 51.9265L100.267 65.5452C100.11 65.6661 99.9997 65.8384 99.9558 66.0322L91.3512 103.884C91.3183 104.036 91.3271 104.194 91.3767 104.341Z" fill="#005DC9"/>
<path d="M70.7676 74.86C100.781 65.51 123.015 51.2 120.429 42.8976C117.842 34.5953 91.415 35.4444 61.4015 44.7944C31.3879 54.1443 9.15381 68.4543 11.7402 76.7567C14.3266 85.0591 40.754 84.2099 70.7676 74.86Z" fill="#005DC9"/>
<path d="M120.433 42.9117C119.263 39.1571 113.214 37.2775 104.163 37.207L99.9471 63.0588C113.801 55.7747 122.061 48.1384 120.433 42.9117Z" fill="#004DA5"/>
<path d="M71.6868 77.8107C56.9159 82.4122 42.4926 85.1462 31.0776 85.5155C18.0477 85.9314 10.5538 83.2966 8.80149 77.6718C7.04922 72.0469 11.7184 65.6269 22.6828 58.5681C32.288 52.389 45.7122 46.4479 60.4831 41.8464C75.2541 37.245 89.695 34.5054 101.096 34.1406C114.126 33.7246 121.62 36.3594 123.371 41.9807C125.122 47.602 120.455 54.0292 109.491 61.088C99.8821 67.2563 86.4613 73.2081 71.6868 77.8107ZM62.3207 47.7451C48.0638 52.1864 35.1682 57.8771 26.0172 63.7664C16.0694 70.1691 14.2502 74.4531 14.6822 75.8398C15.1142 77.2264 19.0456 79.7229 30.8697 79.3432C41.7464 78.9934 55.603 76.3501 69.8493 71.9121C84.0956 67.474 97.0018 61.7801 106.156 55.8897C116.101 49.488 117.923 45.2029 117.49 43.8127C117.057 42.4225 113.124 39.9343 101.304 40.3129C90.4235 40.6637 76.5834 43.3097 62.3229 47.7522L62.3207 47.7451Z" fill="#0070F2"/>
</g>
<path d="M149.82 39.4605C149.583 39.1773 149.275 38.9631 148.927 38.8405C148.579 38.7179 148.204 38.6914 147.842 38.7637L139.19 40.2603C137.759 40.5071 137.193 41.8225 137.387 42.9442C137.449 43.4061 137.66 43.8352 137.988 44.1671C138.315 44.499 138.741 44.7156 139.202 44.7844C139.426 44.8111 139.653 44.8037 139.874 44.7626L148.526 43.266C148.907 43.2081 149.266 43.0484 149.563 42.8036C149.861 42.5589 150.087 42.2382 150.217 41.8756C150.362 41.4726 150.402 41.0392 150.332 40.6165C150.263 40.1939 150.086 39.7959 149.82 39.4605Z" fill="#A9B4BE"/>
<path d="M116.933 4.90141C116.683 4.8163 116.418 4.78425 116.155 4.8073C115.892 4.83036 115.636 4.90802 115.405 5.03533C115.173 5.16263 114.971 5.33678 114.811 5.54667C114.65 5.75655 114.536 5.99755 114.474 6.25428L112.09 14.4683C112.005 14.764 111.98 15.0735 112.016 15.3789C112.052 15.6843 112.149 15.9794 112.301 16.247C112.452 16.5146 112.656 16.7493 112.899 16.9374C113.142 17.1256 113.42 17.2634 113.718 17.3428C113.839 17.3789 113.963 17.4051 114.089 17.4209C114.554 17.4861 115.025 17.375 115.412 17.1095C115.798 16.844 116.071 16.4435 116.177 15.9868L118.558 7.77586C118.643 7.48044 118.668 7.17099 118.632 6.86563C118.597 6.56026 118.5 6.26511 118.349 5.99745C118.198 5.72978 117.994 5.49498 117.751 5.30679C117.508 5.11859 117.23 4.98077 116.933 4.90141Z" fill="#A9B4BE"/>
<path d="M138.193 16.0245C137.905 16.0058 137.616 16.046 137.344 16.1427C137.073 16.2394 136.823 16.3905 136.612 16.5869L127.038 25.2977C126.611 25.6908 126.352 26.2338 126.316 26.8131C126.28 27.3925 126.469 27.9634 126.844 28.4065C127.194 28.816 127.684 29.0792 128.219 29.1438C128.527 29.1806 128.84 29.1505 129.135 29.0556C129.431 28.9607 129.702 28.8033 129.931 28.5939L139.505 19.8831C139.935 19.4882 140.195 18.942 140.231 18.3593C140.266 17.7767 140.075 17.203 139.696 16.7587C139.508 16.5414 139.278 16.3644 139.019 16.2382C138.761 16.112 138.48 16.0393 138.193 16.0245Z" fill="#A9B4BE"/>
</svg>
