<svg width="128" height="129" viewBox="0 0 128 129" fill="none" xmlns="http://www.w3.org/2000/svg">
<path d="M77.0868 128.22C76.8236 128.22 76.5712 128.116 76.3852 127.929C76.1991 127.743 76.0945 127.491 76.0945 127.228C76.0945 126.394 75.8862 125.997 75.7274 125.888C75.5687 125.779 75.4893 125.888 75.1718 125.888C74.8404 125.983 74.493 126.008 74.1515 125.962C73.81 125.916 73.4817 125.799 73.1873 125.62C72.9031 125.412 72.6674 125.144 72.4961 124.836C72.3249 124.527 72.2222 124.186 72.195 123.834C72.1122 123.341 71.9654 122.861 71.7584 122.406C71.614 122.034 71.3944 121.696 71.1135 121.413C70.7933 121.088 70.5286 120.713 70.3296 120.302C69.9118 119.399 69.7178 118.408 69.764 117.415C68.7528 116.762 67.9233 115.864 67.3528 114.805C66.4102 112.989 66.5293 110.766 66.6384 108.613V108.058C66.741 107.209 66.6906 106.348 66.4896 105.517C66.284 104.761 65.9482 104.046 65.4973 103.404C63.5128 100.427 63.3938 94.2158 63.5128 89.7606V89.6514C63.5805 84.5182 63.3851 79.3848 62.9274 74.2716C62.9163 74.1413 62.931 74.0101 62.9707 73.8854C63.0103 73.7608 63.0741 73.6452 63.1584 73.5452C63.2427 73.4453 63.3459 73.3629 63.462 73.3028C63.5782 73.2427 63.705 73.2061 63.8353 73.195C63.9656 73.1839 64.0968 73.1986 64.2214 73.2382C64.3461 73.2779 64.4617 73.3417 64.5616 73.426C64.6616 73.5103 64.744 73.6134 64.8041 73.7296C64.8642 73.8457 64.9008 73.9726 64.9119 74.1029C65.378 79.282 65.5767 84.4816 65.5073 89.6812V89.8002C65.3882 96.2697 65.9438 100.457 67.1445 102.233C67.7428 103.073 68.1832 104.014 68.4443 105.011C68.7081 106.048 68.7787 107.124 68.6527 108.187V108.722C68.5535 110.707 68.4542 112.562 69.1488 113.902C69.4268 114.418 69.7967 114.878 70.2403 115.261C70.554 114.447 71.1165 113.753 71.8477 113.277C73.0483 112.533 74.8245 112.374 75.7671 113.406C76.0016 113.701 76.1678 114.045 76.2536 114.412C76.3394 114.779 76.3427 115.161 76.2632 115.529C76.2198 116.037 76.059 116.529 75.7935 116.964C75.5279 117.4 75.1649 117.767 74.733 118.039C74.3011 118.31 73.8121 118.477 73.3045 118.527C72.7969 118.577 72.2846 118.509 71.808 118.327C71.863 118.707 71.9768 119.075 72.1454 119.419C72.2521 119.654 72.4038 119.867 72.5919 120.044C73.0082 120.481 73.3441 120.988 73.5842 121.542C73.8532 122.138 74.0465 122.764 74.1597 123.408C74.1872 123.583 74.2303 123.756 74.2886 123.924C74.4648 123.966 74.6483 123.966 74.8245 123.924C75.1559 123.833 75.5019 123.81 75.8425 123.854C76.1832 123.898 76.5116 124.01 76.809 124.182C77.2615 124.526 77.6184 124.98 77.8459 125.501C78.0734 126.022 78.1639 126.593 78.1088 127.158C78.1088 127.422 78.0043 127.674 77.8182 127.86C77.6321 128.046 77.3797 128.151 77.1166 128.151L77.0868 128.22ZM71.9767 116.383L72.2843 116.482C72.7197 116.661 73.2083 116.661 73.6437 116.482C73.9903 116.221 74.2244 115.838 74.2986 115.41C74.3595 115.216 74.3595 115.009 74.2986 114.815C74.0622 114.761 73.8175 114.756 73.5789 114.798C73.3403 114.841 73.1127 114.931 72.9094 115.063C72.4511 115.38 72.1177 115.846 71.9668 116.383H71.9767Z" fill="#688FB7"/>
<path d="M90.7498 29.9385C90.7498 45.4771 68.7616 65.7785 64.9513 68.8247C64.623 68.9868 64.264 69.0776 63.8981 69.0913C63.5322 69.105 63.1675 69.0412 62.8279 68.9041C51.8338 59.0809 37.3172 46.8961 36.7219 30.0477C36.1265 13.1993 48.4403 0.220703 63.8003 0.220703C79.1603 0.220703 90.7498 13.0406 90.7498 29.9385Z" fill="#F58B00"/>
<path d="M62.8277 68.8841L60.6844 73.4881C60.6414 73.5779 60.6224 73.6773 60.6293 73.7766C60.6362 73.8759 60.6687 73.9717 60.7237 74.0547C60.7787 74.1377 60.8542 74.205 60.943 74.25C61.0318 74.295 61.1307 74.3163 61.2302 74.3117L66.8364 74.2323C66.9343 74.2259 67.0291 74.1949 67.112 74.1422C67.1949 74.0896 67.2632 74.0169 67.3106 73.9309C67.358 73.8449 67.3831 73.7484 67.3835 73.6502C67.3838 73.5521 67.3595 73.4553 67.3126 73.369L64.9511 68.8047" fill="#F58B00"/>
<path d="M42.4964 17.6344C42.3601 17.6355 42.225 17.6084 42.0995 17.555C41.9794 17.5032 41.8706 17.4282 41.7796 17.3342C41.6886 17.2402 41.617 17.1292 41.5691 17.0074C41.5211 16.8857 41.4977 16.7557 41.5002 16.6249C41.5027 16.4941 41.531 16.365 41.5836 16.2452C43.0704 13.1045 45.1764 10.2965 47.7752 7.98971C47.9611 7.8049 48.2126 7.70117 48.4747 7.70117C48.7369 7.70117 48.9883 7.8049 49.1743 7.98971C49.2673 8.08195 49.3411 8.1917 49.3915 8.31261C49.4418 8.43352 49.4678 8.56322 49.4678 8.69421C49.4678 8.8252 49.4418 8.95489 49.3915 9.0758C49.3411 9.19672 49.2673 9.30646 49.1743 9.3987C46.7675 11.5215 44.8164 14.1106 43.4391 17.0092C43.3643 17.1971 43.234 17.3576 43.0655 17.4693C42.8971 17.581 42.6985 17.6386 42.4964 17.6344Z" fill="#CC7400"/>
<path d="M39.9963 23.399C39.8916 23.4012 39.7873 23.3844 39.6887 23.3493C39.4388 23.2676 39.2315 23.09 39.1125 22.8556C38.9934 22.6212 38.9722 22.3491 39.0536 22.0991C39.327 21.2375 39.6585 20.3955 40.0459 19.5788C40.1046 19.4603 40.1865 19.3548 40.2866 19.2683C40.3868 19.1819 40.5032 19.1164 40.629 19.0757C40.7548 19.0349 40.8875 19.0197 41.0193 19.0309C41.1511 19.0422 41.2793 19.0797 41.3964 19.1412C41.5134 19.2027 41.617 19.287 41.7011 19.3892C41.7851 19.4913 41.8479 19.6092 41.8857 19.736C41.9235 19.8627 41.9356 19.9957 41.9212 20.1272C41.9069 20.2587 41.8664 20.386 41.8021 20.5016C41.457 21.2203 41.1555 21.9593 40.8992 22.7143C40.8366 22.9069 40.7165 23.0758 40.5551 23.1982C40.3937 23.3206 40.1986 23.3906 39.9963 23.399Z" fill="#CC7400"/>
</svg>
