<svg width="160" height="161" viewBox="0 0 160 161" fill="none" xmlns="http://www.w3.org/2000/svg">
<rect y="46" width="160" height="69" rx="12" fill="#222F3B"/>
<path d="M65.4407 35.5433L73.2206 53.7061C73.5025 54.6221 71.6249 56.4417 70.655 56.5246L35.9418 59.4426C35.1957 59.5048 34.5201 59.0157 34.346 58.2903L29.1152 38.909C28.6053 36.8821 29.8612 35.1496 31.4446 34.9672L63.9113 34.4822C64.6076 34.4491 65.2376 34.8843 65.4407 35.5433Z" fill="#00144A"/>
<path d="M66.6055 34.0629L73.1585 53.1085C73.4404 54.0245 72.7938 54.9654 71.8239 55.0483L37.0941 58.2233C36.348 58.2854 35.6682 57.7963 35.4983 57.0751L30.0478 36.8026C29.8323 35.8949 30.5037 35.012 31.4405 34.9664L65.076 33.0018C65.7724 32.9686 66.4065 33.4038 66.6096 34.0629H66.6055Z" fill="#4D82B8"/>
<path d="M51.0827 37.6645C51.0247 37.6314 50.9666 37.6024 50.9086 37.5692C50.6848 37.449 50.461 37.3329 50.233 37.2252C50.2206 37.221 50.2123 37.2127 50.1998 37.2086C49.9553 37.0925 49.7066 36.9848 49.4579 36.877C49.4123 36.8563 49.3626 36.8397 49.3128 36.819C49.0683 36.7195 48.8196 36.6242 48.5709 36.5371C48.5709 36.5371 48.5626 36.5371 48.5585 36.533C48.2932 36.4377 48.0238 36.3548 47.7502 36.2719C47.7212 36.2636 47.6922 36.2553 47.6673 36.247C47.1202 36.0895 46.5648 35.961 46.0052 35.8615C45.9928 35.8615 45.9845 35.8615 45.9721 35.8574C45.8892 35.8449 45.8104 35.8367 45.7275 35.8242L46.2871 41.2374C47.0829 41.3783 47.8621 41.6519 48.5833 42.0332L51.2692 37.7682C51.207 37.735 51.149 37.6977 51.0868 37.6645H51.0827Z" fill="#2A4259"/>
<path d="M48.0613 49.6225C45.6117 49.9085 42.959 48.2588 42.1839 45.975C41.4213 43.7326 42.7808 41.7638 45.1682 41.5483C45.1972 41.5483 45.2304 41.5483 45.2594 41.5441L44.5797 37.3412C44.2771 37.3371 43.9704 37.3412 43.6678 37.3661C38.7022 37.7516 35.7387 41.768 37.2432 46.4807C38.8059 51.3882 44.4843 54.9362 49.7193 54.2481C52.7906 53.8461 54.1512 52.9443 55.1691 50.7477L50.4902 48.4083C50.2874 48.7402 49.5162 49.4484 48.0572 49.6183L48.0613 49.6225Z" fill="#3B5B7C"/>
<path d="M49.2715 42.9189C49.9885 43.5075 50.5647 44.2494 50.8838 45.0908C51.0331 45.4887 51.1118 45.8783 51.1325 46.2555C51.1533 46.7032 51.0911 47.1342 50.9502 47.5239L55.6919 49.7041C55.9654 48.8709 56.0815 47.9674 56.0069 47.0265C55.9903 46.84 55.9696 46.6534 55.9406 46.4628C55.9406 46.4462 55.9364 46.4296 55.9323 46.413C55.9033 46.2224 55.8618 46.0276 55.8162 45.8369C55.8162 45.8327 55.8162 45.8286 55.8162 45.8203C55.7748 45.6462 55.725 45.4721 55.6712 45.2939C55.6587 45.2525 55.6463 45.2069 55.6297 45.1654C55.5717 44.9831 55.5054 44.8007 55.4349 44.6142C54.6764 42.6992 53.2879 41.033 51.5885 39.7812L49.2756 42.9106L49.2715 42.9189Z" fill="#D5DADD"/>
<path d="M69.6367 50.7314L79.4956 84.3017C79.6993 85.0444 80.4208 85.524 81.1847 85.4221L126.176 79.1452C128.557 78.5425 129.231 76.6242 128.909 75.699L115.595 44.3356C115.366 43.682 114.73 43.2576 114.042 43.3043L71.5125 45.7531C70.5364 45.8125 68.5757 47.2215 69.6367 50.7271V50.7314Z" fill="#00144A"/>
<path d="M70.1376 47.6981L80.4633 82.9661C80.6671 83.7088 81.3885 84.1884 82.1525 84.0865L127.653 77.7417C128.625 77.6144 129.236 76.6255 128.913 75.7003L116.563 42.9957C116.334 42.3422 115.697 41.9178 115.01 41.9644L71.5339 45.7416C70.5577 45.801 69.8829 46.7475 70.1418 47.6939L70.1376 47.6981Z" fill="#D5DADD"/>
<path d="M70.4021 49.8965L117.49 45.4351C116.994 44.0736 116.796 43.564 116.562 42.9957C116.333 42.3422 115.696 41.9178 115.009 41.9644L71.5326 45.7416C70.5564 45.801 70.0169 46.5493 70.1405 47.6939C70.1999 48.2438 70.3411 49.4173 70.4021 49.8965Z" fill="#4D82B8"/>
<path d="M101.17 77.287L96.0217 77.9236L92.4482 67.0292L97.5496 66.5156L101.17 77.287Z" fill="#4D82B8"/>
<path d="M108.69 76.3557L103.708 76.9753L98.759 62.4268L103.686 61.9727L108.69 76.3557Z" fill="#4D82B8"/>
<path d="M123.566 74.5158L118.897 75.0972L115.065 64.572L119.699 64.1094L123.566 74.5158Z" fill="#4D82B8"/>
<path d="M116.321 75.4121L111.5 76.0063L104.756 56.8784L109.509 56.4922L116.321 75.4121Z" fill="#4D82B8"/>
<path d="M93.9439 58.8114C94.1813 59.5293 93.6896 60.168 92.8417 60.2415C91.9939 60.3149 91.1065 59.7893 90.8634 59.0658C90.626 58.3479 91.1234 57.7092 91.9769 57.6358C92.8304 57.5623 93.7065 58.0879 93.9439 58.8058V58.8114Z" fill="#4D82B8"/>
<path d="M100.139 54.776C100.371 55.4466 99.9225 56.036 99.1383 56.0955C98.3542 56.155 97.5214 55.6629 97.2943 54.9923C97.0672 54.3218 97.516 53.7323 98.3055 53.6728C99.0951 53.6134 99.9116 54.1055 100.144 54.776H100.139Z" fill="#4D82B8"/>
<path d="M106.095 49.7806C106.329 50.4334 105.9 51.0047 105.138 51.0537C104.376 51.1026 103.566 50.6184 103.332 49.9601C103.098 49.3072 103.533 48.736 104.295 48.687C105.056 48.638 105.861 49.1222 106.095 49.7751V49.7806Z" fill="#4D82B8"/>
<path d="M116.24 56.95C116.517 57.6942 116.056 58.3523 115.219 58.4261C114.383 58.4999 113.467 57.9525 113.196 57.2022C112.925 56.4519 113.387 55.7999 114.229 55.7323C115.072 55.6646 115.97 56.2058 116.247 56.95H116.24Z" fill="#4D82B8"/>
<path d="M92.5333 59.0626L92.2871 58.8207L98.598 54.7676L104.684 49.6875L114.81 56.983L114.632 57.174L104.752 50.061L98.8526 54.9925L92.5333 59.0626Z" fill="#4D82B8"/>
<path d="M98.0498 106.866L76.9986 100.389C80.4238 97.936 78.3204 95.1065 71.8912 93.3809C64.5344 91.404 52.8891 91.2885 44.7235 93.2416C35.4297 95.4666 33.418 99.6446 41.8996 102.42C50.7075 105.3 65.4654 104.998 73.631 102.05L93.2176 108.83L95.5997 108.424C96.0388 107.894 96.2793 108.47 96.9658 108.055C98.2366 107.186 98.9027 106.615 98.692 106.51H98.0498V106.866Z" fill="#101619"/>
<path d="M100.908 55.3075C102.306 61.1545 100.003 67.176 97.1265 71.475C94.5385 75.3379 90.1728 78.0598 84.4565 78.7429C71.8485 80.2474 58.3535 71.2679 54.9515 59.1013C51.5494 46.9348 59.0215 35.3533 70.9943 34.801C82.4963 34.2704 97.0499 44.5327 100.908 55.3075Z" fill="#8D2A00"/>
<path d="M100.065 52.3048C104.077 63.5047 98.0244 74.036 85.9493 75.4786C73.3413 76.9831 59.8463 68.0036 56.4443 55.837C53.0423 43.6705 60.7078 34.5928 72.6843 34.0405C84.1863 33.5099 96.2102 41.5337 100.069 52.3048H100.065Z" fill="#C35500"/>
<path d="M97.3748 52.5242C100.817 62.2669 95.4803 71.3518 85.0113 72.5474C74.1409 73.7866 62.5257 66.0571 59.5435 55.5913C56.6671 45.4961 63.1098 37.1307 73.5057 36.6038C83.5439 36.0987 94.0494 43.1086 97.3784 52.5242H97.3748Z" fill="#D0C1CB"/>
<path d="M99.9188 106.933L93.0417 108.758L82.1165 73.9986L88.5592 73.25L99.9188 106.933Z" fill="#C35500"/>
<path d="M59.1821 47.7439L73.3999 36.6094C65.9315 37.0273 60.5254 41.4971 59.1821 47.7439Z" fill="#D0C1CB"/>
<path d="M85.0113 72.5481C94.2464 71.4943 99.4846 64.3026 98.2289 55.9336L75.4805 71.4725C78.5649 72.4972 81.821 72.9115 85.0113 72.5481Z" fill="#D5DADD"/>
<path d="M86.1684 39.7497L86.1611 39.7461L86.1684 39.7497Z" fill="#D0C1CB"/>
<path d="M73.502 36.6034C73.7976 36.589 74.0896 36.5817 74.3853 36.5781C74.0896 36.5781 73.7976 36.589 73.502 36.6034Z" fill="#D0C1CB"/>
<path d="M83.0547 38.2695C83.1459 38.3059 83.2372 38.3422 83.3248 38.3786C83.2335 38.3422 83.1459 38.3059 83.0547 38.2695Z" fill="#D0C1CB"/>
<path d="M83.8833 38.6133C83.9454 38.6424 84.0074 38.6714 84.0695 38.6969C84.0074 38.6678 83.9454 38.6387 83.8833 38.6133Z" fill="#D0C1CB"/>
<path d="M82.2151 37.9531C82.3173 37.9895 82.4231 38.0258 82.5254 38.0658C82.4231 38.0258 82.3209 37.9895 82.2151 37.9531Z" fill="#D0C1CB"/>
<path d="M76.5354 36.6758C76.7033 36.6902 76.8712 36.7083 77.0428 36.73C76.8749 36.7119 76.707 36.6938 76.5354 36.6758Z" fill="#D0C1CB"/>
<path d="M75.6265 36.6094C75.8017 36.6202 75.9805 36.6274 76.1558 36.6419C75.9805 36.6274 75.8017 36.6166 75.6265 36.6094Z" fill="#D0C1CB"/>
<path d="M77.4297 36.7773C77.5939 36.799 77.7619 36.8243 77.9261 36.8496C77.7619 36.8243 77.5976 36.799 77.4297 36.7773Z" fill="#D0C1CB"/>
<path d="M74.6812 36.582C74.8783 36.582 75.0717 36.5856 75.2688 36.5929C75.0717 36.5856 74.8746 36.582 74.6812 36.582Z" fill="#D0C1CB"/>
<path d="M98.3895 57.4444C97.8493 46.6225 87.4059 37.9664 77.0391 36.6763C73.4327 36.3456 67.0922 36.3456 62.4892 41.3278C61.9709 41.8874 61.4854 42.5415 61.0327 43.232C60.9561 43.3483 60.9123 43.4282 60.8429 43.5409C60.832 43.5554 60.8283 43.5736 60.8174 43.5917C66.2745 37.047 74.9986 36.6291 82.708 39.6816C90.6874 42.8395 97.5791 49.7186 98.3895 57.4517V57.4444Z" fill="#8D2A00"/>
<path d="M71.6916 37.9473L59.1822 47.7445C58.6675 50.1429 58.7478 52.7993 59.5436 55.5902C59.6093 55.8228 59.6823 56.0517 59.7589 56.2807L83.9638 40.2149C79.9996 38.4452 75.7069 37.5657 71.6916 37.9473Z" fill="#D5DADD"/>
<path d="M79.4958 75.3734L83.2447 77.5865C83.2447 77.5865 82.4635 75.6568 85.0333 75.3915V75.3516C84.0039 75.5078 81.9306 75.715 79.4958 75.3697V75.3734Z" fill="#8D2A00"/>
<path d="M87.7563 75.0057C88.2783 75.0275 89.1909 75.4127 89.6253 76.521L90.2458 74.5078C90.2458 74.5078 89.6727 74.784 87.7563 75.002V75.0057Z" fill="#8D2A00"/>
<path d="M93.0419 108.759L82.7993 76.2093L83.4892 75.5188C83.4892 75.5188 84.7997 75.4425 86.289 75.1445C86.289 75.1445 85.7743 75.7223 85.9239 76.5218C86.5226 79.6616 96.2615 108.148 96.2615 108.148L93.0383 108.759H93.0419Z" fill="#8D2A00"/>
<path d="M99.9189 106.936C99.9189 107.314 98.1448 107.942 95.2429 108.687C93.8083 108.974 93.1038 108.938 93.0418 108.76C92.998 108.633 93.7828 108.142 95.2064 107.684C97.3381 107.019 99.6779 106.645 99.9189 106.936Z" fill="#8D2A00"/>
<path d="M80.9595 54.928C81.9231 53.9577 82.8211 52.9729 82.2626 51.2613C81.6421 49.3608 79.8315 48.4232 77.718 48.5686C75.5388 48.7176 74.4766 49.8077 73.878 51.1923L71.8557 49.8441C72.5785 48.2379 74.0313 46.8751 77.0756 46.6753C80.7112 46.4354 83.5475 48.0925 84.5039 50.9706C85.296 53.3654 84.2374 54.6845 83.0292 56.0291C81.9195 57.2501 81.35 57.8933 81.7333 59.0889L81.8136 59.336L79.5943 59.5359L79.514 59.2888C78.8241 57.1157 79.8972 55.9928 80.9595 54.9316V54.928ZM81.2807 61.1603C82.1969 61.0767 83.1095 61.6836 83.3942 62.5666C83.6789 63.4497 83.2007 64.2019 82.2809 64.2928C81.3464 64.3836 80.4411 63.784 80.1564 62.8755C79.8717 61.967 80.3499 61.2439 81.2807 61.1566V61.1603Z" fill="#00144A"/>
</svg>
