<svg width="160" height="160" viewBox="0 0 160 160" fill="none" xmlns="http://www.w3.org/2000/svg">
<mask id="mask0_2810_46790" style="mask-type:alpha" maskUnits="userSpaceOnUse" x="8" y="0" width="144" height="144">
<circle cx="79.7808" cy="71.7808" r="71.7808" fill="#EBF8FF"/>
</mask>
<g mask="url(#mask0_2810_46790)">
<path d="M206.955 6.74651e-06H-112.051C-114.131 -0.00191325 -116.19 0.405994 -118.112 1.2004C-120.033 1.9948 -121.78 3.16014 -123.251 4.62978C-124.722 6.09943 -125.888 7.84456 -126.685 9.76545C-127.481 11.6863 -127.891 13.7453 -127.891 15.8247V203.339C-127.891 207.54 -126.222 211.568 -123.251 214.539C-120.281 217.509 -116.252 219.178 -112.051 219.178H206.955C211.156 219.178 215.185 217.509 218.155 214.539C221.126 211.568 222.794 207.54 222.794 203.339V15.8247C222.794 13.7453 222.384 11.6863 221.588 9.76545C220.792 7.84456 219.625 6.09943 218.154 4.62978C216.683 3.16014 214.937 1.9948 213.015 1.2004C211.094 0.405994 209.034 -0.00191325 206.955 6.74651e-06Z" fill="#223548"/>
<path d="M188.687 17.5342H152.792C151.335 17.5342 149.893 17.8176 148.547 18.3684C147.201 18.9191 145.978 19.7263 144.948 20.744C143.917 21.7616 143.1 22.9697 142.543 24.2993C141.985 25.6289 141.698 27.0539 141.698 28.4931C141.698 29.9322 141.985 31.3573 142.543 32.6869C143.1 34.0165 143.917 35.2246 144.948 36.2422C145.978 37.2598 147.201 38.0671 148.547 38.6178C149.893 39.1685 151.335 39.452 152.792 39.452H188.687C191.629 39.452 194.451 38.2974 196.531 36.2422C198.612 34.187 199.78 31.3996 199.78 28.4931C199.78 25.5866 198.612 22.7992 196.531 20.744C194.451 18.6888 191.629 17.5342 188.687 17.5342Z" fill="#2A4259"/>
<path d="M95.1447 36.2653L93.7809 37.3831L93.7106 37.4162L93.6115 37.3334C93.2673 37.514 92.9142 37.6771 92.5535 37.822C90.6814 38.2733 88.611 37.9462 87.1357 39.1013C73.4113 26.3701 56.1163 19.3647 38.3708 19.3647C-1.2196 19.3647 -33.4209 51.9734 -33.4209 91.6743C-33.4209 131.375 -1.21959 163.715 38.3832 163.715C52.5044 163.715 65.7494 160.129 76.9364 153.679C96.3596 143.523 109.997 125.405 111.2 101.801C112.555 102.215 112.336 100.928 112.853 100.613C113.857 102.642 115.134 102.07 116.06 101.131C117.829 101.926 117.589 98.2655 118.068 98.2655H118.866L119.019 97.5037C125.416 65.4458 106.778 45.7464 95.1447 36.2653Z" fill="#3B5B7C"/>
<path d="M107.931 105.598C107.687 105.147 106.55 103.143 104.72 102.981C103.277 102.853 102.075 103.785 100.475 105.805C96.2064 111.187 96.0411 112.537 97.2189 116.056C97.3978 116.633 97.7663 117.132 98.2644 117.472C98.7711 117.795 99.3628 117.958 99.9629 117.94C102.145 117.998 104.434 116.441 104.976 116.06C105.343 115.808 105.684 115.521 105.997 115.203C109.03 112.102 108.199 106.997 107.931 105.598Z" fill="#00A58A"/>
<path d="M33.7382 81.8864C32.0493 81.9186 30.364 82.0569 28.6923 82.3004C27.9086 82.4293 27.1178 82.5109 26.3243 82.5447C25.3079 82.4443 24.3105 82.2019 23.3613 81.8243C22.1458 81.3434 20.8632 81.0543 19.5592 80.9673C18.2037 80.9673 16.4722 81.5221 15.9143 84.3416C15.7525 84.8955 15.7214 85.4794 15.8234 86.0474C15.9257 86.6157 16.1576 87.1527 16.5011 87.6165C17.2698 88.5481 18.6294 88.9994 20.5304 88.9994C21.6051 88.9754 22.6773 88.8869 23.7414 88.7344C24.2401 88.6599 24.7402 88.6102 25.2416 88.5854C25.8615 88.5854 26.1632 88.8462 26.812 89.4755C27.736 90.482 28.903 91.2334 30.2007 91.6574L30.614 91.7982C32.7647 92.6182 35.0252 93.1135 37.3212 93.268H37.3502C38.0352 93.3208 38.7234 93.2233 39.3669 92.9823C40.0106 92.7452 40.5936 92.3676 41.0737 91.8769C41.5305 91.2624 41.8491 90.5562 42.0076 89.8067C42.1614 89.0539 42.1473 88.2763 41.9663 87.5296C41.4208 83.762 38.6602 81.8864 33.7382 81.8864Z" fill="#00A58A"/>
<path d="M75.9856 112.691C73.3649 112.703 70.7635 113.141 68.2824 113.987C67.4296 114.305 66.5366 114.503 65.6292 114.574C65.0353 114.57 64.4575 114.381 63.9762 114.032C63.0215 113.237 62.3061 112.192 61.9099 111.014C61.0173 109.027 59.9097 106.547 56.1242 106.547H55.2977C53.7097 106.551 52.1366 106.24 50.6692 105.632C49.2057 105.023 47.878 104.127 46.7639 102.998C46.2193 102.42 45.5607 101.962 44.8298 101.653C44.0976 101.345 43.3093 101.194 42.5155 101.21C41.2795 101.261 40.0555 101.474 38.8747 101.843C37.9997 102.117 37.0951 102.285 36.1803 102.344C34.8813 102.283 33.6177 101.9 32.5022 101.23C31.3889 100.564 30.4554 99.634 29.783 98.5227C29.5144 97.9721 28.787 96.5354 27.4274 96.5354C26.3488 96.5354 25.3611 97.3841 23.9477 99.4667C23.7328 99.8269 23.5345 100.137 23.3526 100.415C23.0668 100.915 22.7302 101.384 22.3484 101.814C21.537 101.138 20.8308 100.344 20.2532 99.4584C19.7862 98.8332 19.3399 98.237 18.9266 97.6574C16.3726 94.2624 14.5708 91.7534 12.583 90.8053C11.948 90.4984 11.292 90.2369 10.62 90.0228C9.30173 89.6088 8.33472 89.2569 7.77268 88.1307C7.58695 87.6467 7.48763 87.1338 7.47926 86.6154C7.30156 84.3796 6.72299 82.3757 1.6936 82.3757C0.00749588 82.3757 -1.10417 82.0238 -1.42238 81.4276C-1.83564 80.5996 -1.25294 78.9435 0.387707 76.4966C1.65642 74.4803 3.09044 73.5363 4.52032 73.5363C5.70638 73.5363 6.99987 74.2236 8.38017 75.6064C10.4754 77.6973 12.5541 78.7572 14.5543 78.7572C15.4255 78.7369 16.2834 78.5382 17.0752 78.1734C17.8604 77.81 18.5634 77.2902 19.1415 76.6456C21.369 74.4596 22.4889 72.2073 23.5799 67.8352C24.7164 63.2809 26.7372 57.9731 32.2584 57.025C33.4982 56.818 34.738 56.6565 35.891 56.495C40.7633 55.8243 44.6232 55.2819 46.5201 52.4417C49.231 48.3801 50.5576 41.793 45.3547 36.597C42.5868 33.6678 38.7858 31.9383 34.7628 31.7777C32.8854 31.8109 31.0394 32.2665 29.3614 33.1109C27.686 33.9539 26.2224 35.1654 25.0801 36.6549C22.2947 39.9961 20.1209 42.2194 18.5009 42.2194C17.5099 42.0866 16.6106 41.5692 15.9966 40.7786C15.5384 40.229 15.2081 39.5841 15.0296 38.8907C14.8528 38.1957 14.8344 37.4698 14.9758 36.7667C15.097 35.9369 15.4191 35.1494 15.9139 34.473C16.4097 33.794 17.0638 33.2468 17.8191 32.879C19.2309 32.3285 20.7455 32.0926 22.2575 32.1876C25.204 32.1214 28.5515 32.0551 30.7872 28.333C31.9361 26.4244 32.2088 24.7103 31.6137 23.2322C31.2619 22.5153 30.7617 21.8817 30.1466 21.3733C29.5328 20.8611 28.8172 20.4857 28.0473 20.272H27.6712C15.781 21.9296 4.50435 26.5805 -5.10455 33.7899C-14.703 40.9808 -22.316 50.5015 -27.2264 61.4551C-27.3669 61.7407 -30.7722 68.6301 -29.6523 73.0974C-29.0135 75.3689 -27.6633 77.3747 -25.8007 78.8193C-23.9362 80.2676 -21.6586 81.0814 -19.3001 81.142C-15.3452 81.142 -12.6631 82.0901 -10.7662 86.8224C-8.6586 92.0846 -3.55482 95.4051 0.238914 96.6637C0.759623 96.8335 1.28034 96.9784 1.79278 97.1192C4.30128 97.8189 6.46263 98.4151 8.04129 102.373C8.52768 103.868 9.49952 105.156 10.8019 106.033C12.1133 106.903 13.6759 107.312 15.2444 107.197H17.5752C18.4968 107.242 19.7573 107.321 20.1168 107.971C20.3234 108.36 20.5796 109.627 18.5877 113.092C14.1906 120.777 15.2816 124.234 17.5008 128.622C18.7738 131.206 20.6371 133.453 22.9394 135.181C25.2552 136.908 27.9456 138.063 30.7913 138.551C31.3991 138.601 31.9852 138.8 32.4981 139.13C33.0153 139.458 33.4417 139.911 33.7379 140.447C34.9033 142.745 33.7379 146.769 32.2129 149.775C31.4906 151.187 30.6325 152.525 29.6507 153.77C28.6754 155.087 27.9068 156.101 27.9068 157.559C28.0049 159.32 28.3815 161.054 29.0226 162.697L29.2333 163.214L29.7912 163.285C32.4607 163.594 35.146 163.746 37.8333 163.74C39.0731 163.74 40.2674 163.711 41.4617 163.703L44.8092 163.529L41.8502 161.914C41.7841 161.881 40.317 161.041 40.317 157.604C40.317 156.536 42.4784 155.393 48.5368 155.393H50.9626C52.038 155.312 53.0391 154.813 53.7521 154.002L54.2439 153.393C56.4425 150.64 61.7363 144.186 64.0299 142.662C65.0456 142.013 66.1633 141.539 67.336 141.263C69.3185 140.824 71.1306 139.817 72.5514 138.364C73.2541 137.69 73.8159 136.882 74.2044 135.988C74.5934 135.091 74.7986 134.125 74.8078 133.148C74.8103 131.983 75.1396 130.842 75.7583 129.856C76.5802 128.767 77.6277 127.868 78.8288 127.223C80.4033 126.279 82.3002 125.074 83.2466 122.491C84.5566 119 84.7095 116.802 83.54 115.138C82.3705 113.473 80.0231 112.691 75.9856 112.691Z" fill="#00A58A"/>
<path d="M41.0528 28.3739C42.4318 28.7991 43.8716 28.9922 45.3136 28.9453C46.2228 28.9453 46.7848 28.9453 47.0162 29.1854C47.3426 29.6368 47.5822 30.145 47.7229 30.6842C48.2023 32.0132 48.7933 33.6527 50.438 34.4435C51.7798 34.9921 53.2213 35.253 54.6698 35.2095C55.9758 35.2095 59.2157 35.0232 61.0506 33.2553C64.7989 29.645 59.1289 23.0496 58.8934 22.7763L58.7198 22.5734L58.4512 22.4906C51.6684 20.3659 44.5969 19.3113 37.4905 19.3647H35.9697L36.1516 20.4329C36.2755 21.1243 37.4409 27.2146 41.0528 28.3739Z" fill="#00A58A"/>
<path d="M102.17 75.8337C104.339 71.6934 104.067 67.1971 101.409 62.8664C96.4048 54.7432 84.4326 49.2905 76.3823 49.2905C71.3611 49.2905 67.9683 51.3068 66.8194 54.9378C65.832 57.8851 65.5878 61.0313 66.1086 64.0961C66.6292 67.1651 67.8983 70.0578 69.8031 72.5173C74.349 78.6283 82.3415 82.7355 89.7099 82.7355C95.4419 82.7355 99.8555 80.2844 102.17 75.8337Z" fill="#00A58A"/>
</g>
<g clip-path="url(#clip0_2810_46790)">
<path opacity="0.5" d="M104.356 102.046C124.556 102.046 140.933 85.3391 140.933 64.6957C140.933 44.0523 124.556 27.335 104.356 27.335C84.1568 27.335 67.7803 44.0418 67.7803 64.6957C67.7803 85.3496 84.1568 102.046 104.356 102.046Z" fill="#223548"/>
<path d="M118.806 31.6892L105.138 27.335L82.2197 95.593L95.898 99.9472L118.806 31.6892Z" fill="#CEDBE8"/>
<path d="M101.232 102.046L124.588 33.6626L120.337 32.3052L96.9707 100.688L101.232 102.046Z" fill="#CEDBE8"/>
<path d="M122.567 97.9946L112.556 102.046L118.952 117.918L128.953 113.866L122.567 97.9946Z" fill="#B9C1C6"/>
<path d="M119.316 116.654C118.808 116.864 118.403 117.268 118.19 117.777C117.978 118.285 117.974 118.858 118.181 119.369L133.12 156.239C133.742 157.731 134.928 158.917 136.42 159.535C137.911 160.153 139.587 160.155 141.079 159.538L142.266 159.047C143.017 158.747 143.701 158.3 144.277 157.731C144.853 157.163 145.31 156.485 145.621 155.737C146.236 154.239 146.236 152.558 145.621 151.059L130.682 114.231C130.579 113.975 130.427 113.743 130.233 113.546C130.04 113.35 129.81 113.193 129.556 113.087C129.303 112.98 129.03 112.925 128.755 112.924C128.48 112.923 128.207 112.977 127.953 113.083L119.316 116.654Z" fill="#F58B00"/>
<path d="M112.201 101.21L113.243 103.706C113.243 103.706 118.452 106.035 123.952 101.169L122.285 97.1694L117.691 99.404L112.201 101.21Z" fill="#688FB7"/>
<path d="M104.607 103.341C95.7121 103.363 87.0851 100.291 80.1971 94.6502C73.3091 89.0093 68.5865 81.1481 66.8348 72.4073C65.083 63.6664 66.4105 54.5871 70.5908 46.7176C74.7712 38.8481 81.5456 32.6757 89.7588 29.253C97.972 25.8303 107.115 25.3692 115.63 27.9483C124.144 30.5274 131.503 35.987 136.45 43.3961C141.397 50.8053 143.628 59.7051 142.76 68.5781C141.892 77.4511 137.981 85.7477 131.693 92.0531C124.513 99.264 114.771 103.324 104.607 103.341ZM104.607 29.5068C96.4416 29.4924 88.5241 32.317 82.204 37.499C75.884 42.6809 71.5526 49.8995 69.9483 57.9242C68.3439 65.949 69.566 74.283 73.4061 81.5057C77.2462 88.7283 83.4666 94.3925 91.0069 97.5327C98.5473 100.673 106.941 101.095 114.757 98.7259C122.572 96.3573 129.327 91.345 133.868 84.5435C138.41 77.7419 140.457 69.5721 139.661 61.4268C138.866 53.2815 135.276 45.665 129.505 39.8755C126.239 36.5907 122.359 33.984 118.087 32.2047C113.814 30.4255 109.233 29.5087 104.607 29.5068Z" fill="#688FB7"/>
</g>
<defs>
<clipPath id="clip0_2810_46790">
<rect width="80" height="133.699" fill="white" transform="translate(66.082 26.3013)"/>
</clipPath>
</defs>
</svg>
