<svg width="160" height="160" viewBox="0 0 160 160" fill="none" xmlns="http://www.w3.org/2000/svg">
<mask id="mask0_4525_144950" style="mask-type:alpha" maskUnits="userSpaceOnUse" x="8" y="0" width="144" height="144">
<circle cx="79.7808" cy="71.7808" r="71.7808" fill="#EBF8FF"/>
</mask>
<g mask="url(#mask0_4525_144950)">
<path d="M206.955 6.74651e-06H-112.051C-114.13 -0.00191325 -116.19 0.405994 -118.111 1.2004C-120.033 1.9948 -121.779 3.16014 -123.25 4.62978C-124.721 6.09943 -125.888 7.84456 -126.684 9.76545C-127.481 11.6863 -127.89 13.7453 -127.89 15.8247V203.339C-127.89 207.54 -126.222 211.568 -123.251 214.539C-120.281 217.509 -116.252 219.178 -112.051 219.178H206.955C211.156 219.178 215.185 217.509 218.155 214.539C221.126 211.568 222.795 207.54 222.795 203.339V15.8247C222.795 13.7453 222.385 11.6863 221.589 9.76545C220.792 7.84456 219.625 6.09943 218.154 4.62978C216.683 3.16014 214.937 1.9948 213.016 1.2004C211.094 0.405994 209.035 -0.00191325 206.955 6.74651e-06V6.74651e-06Z" fill="#111619"/>
<path d="M188.687 17.5342H152.792C151.335 17.5342 149.893 17.8176 148.547 18.3684C147.201 18.9191 145.978 19.7263 144.948 20.744C143.918 21.7616 143.101 22.9697 142.543 24.2993C141.986 25.6289 141.699 27.0539 141.699 28.4931C141.699 29.9322 141.986 31.3573 142.543 32.6869C143.101 34.0165 143.918 35.2246 144.948 36.2422C145.978 37.2598 147.201 38.0671 148.547 38.6178C149.893 39.1685 151.335 39.452 152.792 39.452H188.687C191.629 39.452 194.451 38.2974 196.532 36.2422C198.612 34.187 199.781 31.3996 199.781 28.4931C199.781 25.5866 198.612 22.7992 196.532 20.744C194.451 18.6888 191.629 17.5342 188.687 17.5342V17.5342Z" fill="#1F4049"/>
<path d="M95.1454 36.2655L93.7816 37.3834L93.7114 37.4165L93.6122 37.3337C93.268 37.5143 92.9149 37.6773 92.5543 37.8222C90.6822 38.2735 88.6117 37.9464 87.1364 39.1016C73.412 26.3703 56.117 19.365 38.3716 19.365C-1.21886 19.365 -33.4202 51.9736 -33.4202 91.6745C-33.4202 131.375 -1.21885 163.715 38.384 163.715C52.5051 163.715 65.7501 160.129 76.9371 153.679C96.3604 143.523 109.998 125.405 111.201 101.802C112.556 102.216 112.337 100.928 112.854 100.613C113.858 102.642 115.135 102.071 116.061 101.131C117.829 101.926 117.59 98.2658 118.069 98.2658H118.867L119.019 97.504C125.417 65.446 106.779 45.7467 95.1454 36.2655Z" fill="#252F3A"/>
<path d="M107.932 105.598C107.688 105.147 106.551 103.143 104.721 102.982C103.278 102.853 102.076 103.785 100.476 105.805C96.2074 111.188 96.0421 112.537 97.2198 116.057C97.3988 116.633 97.7673 117.132 98.2654 117.472C98.7721 117.795 99.3638 117.958 99.9639 117.94C102.146 117.998 104.435 116.442 104.977 116.061C105.344 115.808 105.685 115.521 105.997 115.204C109.031 112.103 108.2 106.998 107.932 105.598Z" fill="#2E6B7A"/>
<path d="M33.7389 81.8869C32.0499 81.9191 30.3646 82.0573 28.6929 82.3009C27.9092 82.4298 27.1184 82.5114 26.3249 82.5452C25.3085 82.4448 24.3111 82.2024 23.3619 81.8248C22.1464 81.3439 20.8638 81.0548 19.5598 80.9678C18.2043 80.9678 16.4728 81.5226 15.9149 84.3421C15.7532 84.896 15.722 85.4799 15.824 86.0479C15.9263 86.6162 16.1583 87.1532 16.5017 87.617C17.2704 88.5486 18.63 88.9999 20.531 88.9999C21.6057 88.9759 22.6779 88.8874 23.7421 88.7349C24.2407 88.6604 24.7408 88.6107 25.2422 88.5858C25.8621 88.5858 26.1638 88.8467 26.8126 89.476C27.7366 90.4825 28.9036 91.2339 30.2013 91.6579L30.6146 91.7987C32.7654 92.6187 35.0258 93.114 37.3219 93.2685H37.3508C38.0358 93.3213 38.724 93.2238 39.3675 92.9828C40.0112 92.7457 40.5942 92.3681 41.0743 91.8774C41.5311 91.2629 41.8497 90.5567 42.0082 89.8072C42.162 89.0544 42.1479 88.2768 41.9669 87.5301C41.4214 83.7624 38.6608 81.8869 33.7389 81.8869Z" fill="#2E6B7A"/>
<path d="M75.9865 112.691C73.3658 112.703 70.7644 113.141 68.2833 113.987C67.4305 114.305 66.5375 114.503 65.6302 114.574C65.0363 114.57 64.4584 114.381 63.9771 114.032C63.0224 113.237 62.307 112.192 61.9108 111.014C61.0182 109.027 59.9106 106.547 56.1252 106.547H55.2986C53.7106 106.551 52.1375 106.24 50.6701 105.632C49.2066 105.023 47.8789 104.127 46.7648 102.998C46.2202 102.42 45.5616 101.962 44.8307 101.653C44.0985 101.345 43.3103 101.194 42.5165 101.21C41.2805 101.261 40.0564 101.474 38.8756 101.843C38.0006 102.117 37.096 102.285 36.1812 102.344C34.8822 102.283 33.6187 101.9 32.5031 101.23C31.3898 100.564 30.4563 99.634 29.7839 98.5227C29.5153 97.9721 28.7879 96.5354 27.4283 96.5354C26.3497 96.5354 25.362 97.3842 23.9486 99.4667C23.7337 99.8269 23.5354 100.137 23.3536 100.415C23.0677 100.915 22.7311 101.384 22.3493 101.814C21.5379 101.138 20.8318 100.344 20.2541 99.4584C19.7871 98.8332 19.3408 98.237 18.9275 97.6574C16.3736 94.2624 14.5717 91.7534 12.5839 90.8053C11.9489 90.4984 11.2929 90.2369 10.621 90.0228C9.30265 89.6088 8.33563 89.2568 7.7736 88.1307C7.58787 87.6467 7.48854 87.1338 7.48017 86.6154C7.30247 84.3796 6.72391 82.3757 1.69452 82.3757C0.00841109 82.3757 -1.10325 82.0238 -1.42146 81.4276C-1.83473 80.5996 -1.25202 78.9435 0.388623 76.4966C1.65733 74.4803 3.09135 73.5363 4.52124 73.5363C5.70729 73.5363 7.00079 74.2236 8.38108 75.6064C10.4763 77.6973 12.555 78.7572 14.5552 78.7572C15.4264 78.7369 16.2844 78.5382 17.0761 78.1734C17.8613 77.81 18.5644 77.2902 19.1424 76.6456C21.3699 74.4596 22.4898 72.2073 23.5808 67.8352C24.7173 63.2809 26.7382 57.9731 32.2593 57.025C33.4991 56.818 34.7389 56.6565 35.8919 56.495C40.7642 55.8243 44.6241 55.2819 46.521 52.4417C49.232 48.3801 50.5585 41.793 45.3556 36.597C42.5877 33.6678 38.7867 31.9383 34.7637 31.7777C32.8863 31.8109 31.0403 32.2665 29.3624 33.1109C27.6869 33.9539 26.2233 35.1654 25.081 36.6549C22.2956 39.9961 20.1218 42.2194 18.5018 42.2194C17.5108 42.0866 16.6115 41.5692 15.9975 40.7786C15.5394 40.229 15.2091 39.5841 15.0305 38.8907C14.8537 38.1957 14.8353 37.4698 14.9767 36.7667C15.0979 35.9369 15.42 35.1494 15.9149 34.473C16.4107 33.794 17.0647 33.2468 17.82 32.879C19.2318 32.3285 20.7464 32.0926 22.2584 32.1876C25.205 32.1214 28.5524 32.0551 30.7881 28.333C31.937 26.4244 32.2097 24.7103 31.6146 23.2323C31.2628 22.5153 30.7627 21.8817 30.1475 21.3733C29.5337 20.8611 28.8181 20.4857 28.0482 20.272H27.6721C15.7819 21.9296 4.50527 26.5805 -5.10364 33.7899C-14.7021 40.9808 -22.3151 50.5015 -27.2255 61.4551C-27.366 61.7407 -30.7713 68.6301 -29.6513 73.0974C-29.0125 75.3689 -27.6624 77.3747 -25.7997 78.8193C-23.9353 80.2676 -21.6577 81.0814 -19.2992 81.142C-15.3442 81.142 -12.6622 82.0901 -10.7653 86.8224C-8.65769 92.0846 -3.55391 95.4051 0.239829 96.6638C0.760538 96.8335 1.28125 96.9784 1.7937 97.1192C4.30219 97.8189 6.46355 98.4151 8.0422 102.373C8.5286 103.868 9.50043 105.156 10.8028 106.033C12.1143 106.903 13.6768 107.312 15.2453 107.197H17.5761C18.4977 107.242 19.7582 107.321 20.1177 107.971C20.3243 108.36 20.5806 109.627 18.5886 113.092C14.1915 120.777 15.2825 124.234 17.5018 128.622C18.7747 131.206 20.638 133.453 22.9403 135.181C25.2561 136.908 27.9465 138.063 30.7923 138.551C31.4 138.601 31.9861 138.8 32.499 139.13C33.0162 139.458 33.4426 139.911 33.7388 140.447C34.9042 142.745 33.7388 146.769 32.2139 149.775C31.4915 151.187 30.6334 152.525 29.6517 153.77C28.6764 155.087 27.9077 156.101 27.9077 157.559C28.0058 159.32 28.3824 161.054 29.0235 162.697L29.2343 163.214L29.7921 163.285C32.4617 163.594 35.147 163.746 37.8342 163.74C39.074 163.74 40.2683 163.711 41.4627 163.703L44.8101 163.529L41.8511 161.914C41.785 161.881 40.3179 161.041 40.3179 157.604C40.3179 156.536 42.4793 155.393 48.5377 155.393H50.9635C52.0389 155.312 53.04 154.813 53.753 154.002L54.2448 153.393C56.4434 150.64 61.7372 144.186 64.0308 142.662C65.0465 142.013 66.1642 141.539 67.3369 141.263C69.3194 140.824 71.1316 139.817 72.5523 138.364C73.255 137.69 73.8169 136.882 74.2053 135.988C74.5943 135.091 74.7995 134.125 74.8087 133.148C74.8112 131.983 75.1405 130.842 75.7592 129.856C76.5811 128.767 77.6286 127.868 78.8297 127.223C80.4043 126.279 82.3011 125.074 83.2475 122.491C84.5575 119 84.7104 116.802 83.5409 115.138C82.3714 113.473 80.0241 112.691 75.9865 112.691Z" fill="#2E6B7A"/>
<path d="M41.0537 28.3742C42.4326 28.7993 43.8724 28.9924 45.3144 28.9455C46.2236 28.9455 46.7857 28.9455 47.0171 29.1857C47.3434 29.637 47.583 30.1452 47.7238 30.6844C48.2031 32.0134 48.7941 33.653 50.4389 34.4438C51.7806 34.9923 53.2222 35.2532 54.6707 35.2097C55.9766 35.2097 59.2166 35.0234 61.0515 33.2555C64.7998 29.6452 59.1298 23.0498 58.8942 22.7765L58.7207 22.5737L58.452 22.4909C51.6693 20.3661 44.5978 19.3116 37.4914 19.365H35.9706L36.1524 20.4332C36.2764 21.1246 37.4418 27.2149 41.0537 28.3742Z" fill="#2E6B7A"/>
<path d="M102.171 75.8339C104.34 71.6937 104.068 67.1973 101.41 62.8666C96.4057 54.7435 84.4335 49.2908 76.3832 49.2908C71.3621 49.2908 67.9692 51.3071 66.8203 54.9381C65.8329 57.8853 65.5887 61.0316 66.1095 64.0963C66.6301 67.1653 67.8992 70.058 69.8041 72.5176C74.3499 78.6286 82.3424 82.7357 89.7108 82.7357C95.4428 82.7357 99.8564 80.2847 102.171 75.8339Z" fill="#2E6B7A"/>
</g>
<g clip-path="url(#clip0_4525_144950)">
<path opacity="0.5" d="M104.357 102.046C124.557 102.046 140.933 85.3391 140.933 64.6957C140.933 44.0523 124.557 27.335 104.357 27.335C84.1574 27.335 67.7809 44.0418 67.7809 64.6957C67.7809 85.3496 84.1574 102.046 104.357 102.046Z" fill="#111619"/>
<path d="M118.806 31.6892L105.138 27.335L82.2196 95.593L95.8979 99.9472L118.806 31.6892Z" fill="#9FACB0"/>
<path d="M101.232 102.046L124.588 33.6626L120.338 32.3052L96.9708 100.688L101.232 102.046Z" fill="#9FACB0"/>
<path d="M122.567 97.9944L112.556 102.046L118.952 117.917L128.953 113.866L122.567 97.9944Z" fill="#848F97"/>
<path d="M119.317 116.654C118.808 116.865 118.403 117.268 118.191 117.777C117.978 118.285 117.974 118.858 118.181 119.369L133.12 156.239C133.742 157.732 134.929 158.917 136.42 159.535C137.912 160.154 139.587 160.155 141.079 159.538L142.267 159.048C143.017 158.747 143.701 158.3 144.277 157.732C144.853 157.163 145.31 156.485 145.621 155.738C146.236 154.239 146.236 152.558 145.621 151.06L130.682 114.232C130.579 113.976 130.427 113.743 130.234 113.546C130.04 113.35 129.81 113.194 129.557 113.087C129.303 112.98 129.03 112.925 128.755 112.924C128.48 112.923 128.207 112.977 127.953 113.083L119.317 116.654Z" fill="#EF8659"/>
<path d="M112.201 101.211L113.243 103.706C113.243 103.706 118.452 106.035 123.952 101.169L122.286 97.1697L117.692 99.4042L112.201 101.211Z" fill="#708EB4"/>
<path d="M104.607 103.341C95.7123 103.363 87.0853 100.291 80.1973 94.6502C73.3093 89.0093 68.5867 81.1481 66.8349 72.4073C65.0832 63.6664 66.4107 54.5871 70.591 46.7176C74.7714 38.8481 81.5458 32.6757 89.759 29.253C97.9722 25.8303 107.116 25.3692 115.63 27.9483C124.145 30.5274 131.503 35.987 136.45 43.3961C141.398 50.8053 143.628 59.7051 142.76 68.5781C141.893 77.4511 137.981 85.7476 131.693 92.0531C124.513 99.264 114.771 103.324 104.607 103.341V103.341ZM104.607 29.5068C96.4418 29.4924 88.5243 32.317 82.2042 37.499C75.8842 42.6809 71.5528 49.8995 69.9485 57.9242C68.3441 65.949 69.5662 74.283 73.4063 81.5057C77.2463 88.7283 83.4667 94.3925 91.0071 97.5327C98.5474 100.673 106.941 101.095 114.757 98.7259C122.573 96.3573 129.327 91.345 133.868 84.5435C138.41 77.7419 140.457 69.5721 139.662 61.4268C138.866 53.2815 135.276 45.665 129.505 39.8755C126.239 36.5907 122.359 33.984 118.087 32.2047C113.814 30.4255 109.234 29.5087 104.607 29.5068V29.5068Z" fill="#708EB4"/>
</g>
<defs>
<clipPath id="clip0_4525_144950">
<rect width="80" height="133.699" fill="white" transform="translate(66.0822 26.3013)"/>
</clipPath>
</defs>
</svg>
