<svg width="160" height="85" viewBox="0 0 160 85" fill="none" xmlns="http://www.w3.org/2000/svg">
<rect y="15.75" width="160" height="69" rx="12" fill="#222F3B"/>
<path d="M146.816 28.5718C146.816 28.1342 145.546 27.7839 143.849 27.7044C143.752 26.0094 143.378 24.749 142.94 24.75C142.503 24.751 142.139 26.021 142.046 27.7247C140.344 27.8412 139.078 28.2215 139.084 28.6601C139.09 29.0986 140.354 29.4489 142.051 29.5274C142.153 31.2224 142.522 32.4828 142.959 32.4818C143.395 32.4808 143.761 31.2108 143.854 29.5071C145.556 29.3906 146.821 29.0103 146.816 28.5718Z" fill="#4D82B8"/>
<path d="M116.97 70.8275C116.97 70.5462 116.154 70.321 115.063 70.2698C115 69.1802 114.76 68.37 114.479 68.3706C114.198 68.3712 113.964 69.1877 113.904 70.2829C112.81 70.3578 111.996 70.6023 112 70.8842C112.004 71.1661 112.817 71.3913 113.908 71.4418C113.973 72.5315 114.21 73.3417 114.491 73.3411C114.772 73.3404 115.007 72.524 115.067 71.4287C116.161 71.3539 116.974 71.1094 116.97 70.8275Z" fill="#4D82B8"/>
<path d="M21.5455 28.3115C21.5455 27.9052 20.366 27.5799 18.7901 27.506C18.7 25.9321 18.3531 24.7618 17.9467 24.7627C17.5404 24.7636 17.2025 25.9429 17.116 27.525C15.5355 27.6331 14.3606 27.9862 14.366 28.3935C14.3714 28.8007 15.5455 29.1259 17.1214 29.1989C17.216 30.7728 17.5584 31.9431 17.9639 31.9422C18.3693 31.9413 18.709 30.762 18.7955 29.18C20.3759 29.0719 21.55 28.7187 21.5455 28.3115Z" fill="#4D82B8"/>
<circle cx="150.958" cy="40.49" r="0.828409" fill="#4D82B8"/>
<circle cx="127.188" cy="52.0784" r="0.828409" fill="#4D82B8"/>
<circle cx="34.5238" cy="52.1004" r="0.828409" fill="#4D82B8"/>
<circle cx="108.252" cy="67.8399" r="0.552273" fill="#4D82B8"/>
<circle cx="11.0523" cy="47.9585" r="0.552273" fill="#4D82B8"/>
<mask id="mask0_4038_82438" style="mask-type:alpha" maskUnits="userSpaceOnUse" x="0" y="15" width="160" height="70">
<rect y="15.75" width="160" height="69" rx="12" fill="#89D1FF"/>
</mask>
<g mask="url(#mask0_4038_82438)">
<path d="M59.8724 40.5263L49.1042 34.7311L60.4211 9.50866C62.377 5.14925 67.4266 3.11231 71.8598 4.89378L76.9969 6.95798L59.872 40.5259L59.8724 40.5263Z" fill="#101619"/>
<path d="M63.923 42.732L53.1548 36.9368L64.8835 11.2752C66.8599 6.95113 71.8854 4.94387 76.297 6.71651L81.489 8.80277L63.923 42.7316V42.732Z" fill="#101619"/>
<path d="M91.1342 14.5983C91.1342 19.2497 88.0281 23.0204 84.1961 23.0204C80.364 23.0204 72.6057 18.1669 72.6057 13.5155C72.6057 8.86412 79.1609 5.57471 82.9929 5.57471C86.8249 5.57471 91.1342 9.94695 91.1342 14.5983Z" fill="#101619"/>
<path d="M68.7557 19.3709L69.9312 17.9896C70.2132 17.6584 70.4149 17.2661 70.5204 16.8442L71.0301 16.9589C71.7568 17.1226 72.459 17.3796 73.1192 17.7237L76.3512 19.4094C76.7122 19.5974 77.0675 19.7964 77.4164 20.0057L79.4894 21.2478C80.1672 21.6536 80.8674 22.0206 81.5869 22.3462L82.4231 22.7248C83.6824 23.2947 84.9955 23.7367 86.343 24.0439L86.6025 24.1032L86.4677 24.4477C86.3173 24.8324 86.2034 25.2302 86.1272 25.6361L86.0009 26.3094L76.2153 23.4219L68.7557 19.3713V19.3709Z" fill="#101619"/>
<path d="M81.1081 34.6909L84.0734 36.0027C84.8759 36.3577 85.7049 36.6488 86.5527 36.8742L89.1323 37.6129C89.9845 37.8572 90.8532 38.0397 91.7315 38.1596L93.0922 38.3453C93.63 38.4187 94.1727 38.2486 94.5721 37.8808L97.3025 35.3699C97.3875 35.2917 97.4661 35.2066 97.5379 35.116L98.1647 34.3223C98.4683 33.9377 98.6336 33.4617 98.6336 32.9716V32.4506L96.8288 27.873L95.3048 28.1538L91.7355 31.3221L86.0406 31.2018L83.6744 32.1242L81.1077 34.6909H81.1081Z" fill="#101619"/>
<path d="M45.3744 59.8368L47.2766 57.0759C47.656 56.5253 48.2042 56.113 48.8383 55.9017C49.4499 55.6979 49.9688 55.2824 50.3017 54.7306L50.7741 53.9469C51.1247 53.3658 51.6256 52.8902 52.2235 52.5701L52.6017 52.368C52.8636 52.228 53.1841 52.2585 53.4143 52.4458L53.6753 52.658L54.2348 50.5039C54.396 49.8835 54.6298 49.2843 54.9314 48.7189L55.4684 47.7118C55.6633 47.3465 55.8474 46.9759 56.0215 46.6005L58.4065 41.4486C58.6476 40.9285 58.9247 40.4255 59.2359 39.9439L59.5896 39.3964C60.4535 38.0601 61.5287 36.873 62.7732 35.8816L65.6262 33.6089L68.3133 32.2854L69.1555 28.315L72.1674 24.4032V17.8677L81.4878 23.3095L85.8793 25.628L82.5541 33.3314C82.0717 34.4495 81.4769 35.5155 80.7799 36.5137C80.1182 37.4606 79.584 38.4901 79.1901 39.5761L78.0459 42.7328L76.996 45.5666L76.4995 47.0453C76.0435 48.4032 75.4303 49.7038 74.6727 50.9194L74.165 51.7343C73.1034 53.438 71.8016 54.9792 70.3001 56.3111L65.7265 60.3665L61.1914 63.8801C61.0466 63.992 60.8922 64.0907 60.7298 64.1749L59.3574 64.8848C58.8922 65.1254 58.3728 65.2405 57.8495 65.2192L56.2449 65.1543C55.8715 65.139 55.4985 65.1936 55.1448 65.3147L48.5411 67.5778L45.5733 64.132L45.3728 59.8376L45.3744 59.8368Z" fill="#101619"/>
<path d="M60.5341 59.1551L62.7876 56.9397C64.4131 55.3419 65.6002 53.3531 66.2359 51.1646L66.3205 50.8726C66.5792 49.9819 66.7103 49.0591 66.7103 48.1315V44.7442C66.7103 43.4127 66.4805 42.0913 66.0309 40.838L65.3644 38.9795C65.1983 38.5167 64.8651 38.1333 64.4299 37.9043C63.8949 37.6228 63.2601 37.6031 62.7086 37.8514L61.2973 38.4866C60.6885 38.7605 60.1439 39.1592 59.6987 39.6569L58.82 40.6387C58.6729 40.9033 58.5353 41.1733 58.4078 41.4484L56.0227 46.6003C55.8487 46.9756 55.6646 47.3466 55.4697 47.7116L54.9327 48.7186C54.6311 49.2841 54.3973 49.8833 54.236 50.5037L53.6766 52.6577L53.4155 52.4456C53.1849 52.2583 52.8649 52.2278 52.603 52.3678L52.2248 52.5699C51.6264 52.8899 51.1255 53.3656 50.7754 53.9467L50.3025 54.7303C49.9697 55.2826 49.4507 55.6977 48.8391 55.9014C48.2047 56.1128 47.6564 56.525 47.2774 57.0757L45.3752 59.8365L45.5758 64.131L48.5435 67.5768L50.8724 66.7787L53.5567 63.8069L56.9255 61.8017L60.5349 59.1547L60.5341 59.1551Z" fill="#101619"/>
<path d="M43.6098 73.1516L43.7044 74.2641C43.7477 74.7746 43.8861 75.2727 44.1115 75.7328L44.1624 75.8366C44.5314 76.589 45.4109 76.9395 46.1961 76.6471L46.537 76.5204L48.1412 74.6355L49.184 72.9912L50.1357 71.5518C50.5953 70.8568 50.9634 70.1052 51.2309 69.3156L51.3541 68.9518C51.5594 68.3454 51.9544 67.8212 52.4806 67.4567L55.778 65.1711L53.5554 63.8071L53.0541 64.4336C51.9861 65.7687 50.252 66.3811 48.5824 66.0129L43.6094 73.1516H43.6098Z" fill="#101619"/>
<path d="M46.3594 58.4071L44.9734 59.4358L43.6335 60.6053C43.0648 61.1014 42.6269 61.7298 42.3578 62.4349L40.5117 67.2736C40.1749 67.975 40 68.743 40 69.5214C40 70.1238 40.1047 70.7218 40.31 71.2885L40.8053 72.6572C41.2489 73.8829 42.7829 74.2843 43.7699 73.4329L45.3636 71.1722C45.4507 71.0486 45.5441 70.9291 45.6436 70.8148L46.8888 69.3803C47.1876 69.0358 47.4327 68.6483 47.6151 68.2305L48.5833 66.0135C47.634 65.4071 46.8411 64.5857 46.268 63.616C46.1553 63.4251 46.0831 63.2125 46.0563 62.9923L45.9548 62.1558C45.9424 62.0539 45.9223 61.9532 45.8942 61.8542L45.6985 61.1636C45.5794 60.7429 45.6027 60.2949 45.7655 59.889L46.3599 58.4067L46.3594 58.4071Z" fill="#101619"/>
<path d="M72.4052 46.7628L70.5134 45.9402C69.9471 45.694 69.4831 45.2596 69.2 44.711L67.6724 41.7496L64.9854 34.1297L68.4745 32.4854L70.9209 31.6031L73.5277 28.4749L74.8512 25.3467L74.0892 19.6919L78.3455 22.8093C78.9022 23.1899 79.4921 23.5199 80.1081 23.7954L82.4447 24.841C83.3145 25.23 84.2297 25.5075 85.169 25.6667L86.1203 25.828L87.4036 27.0712L87.9567 27.6243C88.6012 28.2688 89.4851 28.6165 90.3963 28.5832L90.7925 28.5687C91.0283 28.5603 91.2505 28.6778 91.376 28.8779L91.745 29.4659C91.8906 29.6448 92.1581 29.6604 92.3233 29.5L93.0051 28.839C93.2253 28.6253 93.4876 28.4601 93.7751 28.353L96.1461 27.4723L96.5396 27.3179C97 27.137 97.3505 26.7536 97.4897 26.2787L97.559 26.0417C97.8041 25.2119 98.9796 25.2123 99.2242 26.0421L99.3148 26.3493L99.3549 27.5525L99.6357 29.3973L100.799 30.039L101.1 31.0685C101.218 31.4711 101.225 31.8979 101.121 32.3041C100.951 32.9687 100.312 33.4026 99.6317 33.3152L98.7931 33.2077L98.7113 33.3553C98.6447 33.4752 98.4963 33.5221 98.3728 33.4628L98.295 33.4255C97.7788 33.1768 97.3284 32.8102 96.9803 32.3554L96.5484 31.7908C96.1578 31.2802 95.946 30.655 95.946 30.0121V29.9941C95.946 29.6247 96.013 29.2626 96.1433 28.9213C96.2909 28.5354 96.4674 28.0738 96.4674 28.0738L95.7703 28.75C95.3565 29.1511 95.0232 29.6279 94.7886 30.1541L94.0996 31.6981C94.0206 31.8754 93.9255 32.045 93.816 32.2051L93.7021 32.3715C93.5806 32.5492 93.3223 32.5608 93.1852 32.3948L92.6971 31.804C92.4051 32.3615 92.2094 32.9642 92.1184 33.5871L91.7627 36.0162C91.7334 36.1706 91.5441 36.2308 91.431 36.1217L90.9365 35.6437C90.6413 35.3581 90.3907 35.0301 90.1929 34.6699L90.1023 34.5047C89.9078 34.1501 89.767 33.7684 89.6844 33.3725L89.6082 33.0072L89.0255 33.9653C88.841 34.2685 88.517 34.4594 88.162 34.4738H88.1496C87.8733 34.4854 87.6054 34.3928 87.3968 34.2147C87.3066 34.1377 87.2051 34.0515 87.1049 33.9657C86.7319 33.648 86.4828 33.2089 86.401 32.726L86.3978 32.7076C86.3373 32.3506 85.9587 32.1505 85.633 32.3005C85.4582 32.3811 85.3162 32.4461 85.3162 32.4461L84.7146 34.0102L81.7067 35.0128L80.6464 37.0008C80.07 38.0812 79.5455 39.1881 79.0738 40.3179L78.0572 42.7531L72.4024 46.7636L72.4052 46.7628Z" fill="#101619"/>
<path d="M67.3218 49.1936L71.9531 47.8228C72.8912 47.5453 73.7847 47.1342 74.6057 46.6029L75.2253 46.2018C75.8032 45.828 76.3418 45.3965 76.8331 44.9144L78.1798 43.514L78.3707 41.8384L72.9662 45.6395L67.3214 49.1936H67.3218Z" fill="#101619"/>
<path d="M66.951 48.4871L68.1333 46.4742C68.331 46.1377 68.4348 45.7547 68.4348 45.3649V42.6927C68.4348 41.502 68.3382 40.3133 68.1465 39.1382L67.95 37.9358C67.8457 37.2982 67.6821 36.6713 67.4607 36.0641L66.5463 33.5564C66.4629 33.3274 66.1986 33.2223 65.9808 33.3314L64.9666 33.8383C64.7745 33.9346 64.6898 34.1632 64.7733 34.3613L65.2666 35.5332L66.0285 38.0598L66.645 40.8334C66.9814 42.347 67.1222 43.897 67.0645 45.4463L66.951 48.4871Z" fill="#101619"/>
<path d="M68.6353 32.084L69.334 31.0794C69.7214 30.5223 70.1894 30.0254 70.722 29.6047L71.1571 29.2614C71.346 29.1123 71.5089 28.9326 71.6392 28.7301L71.8955 28.3314C72.0723 28.0567 72.1794 27.7427 72.2075 27.4174L72.2155 27.3244C72.2344 27.1054 72.1963 26.8856 72.104 26.6863C72.0543 26.5784 71.9143 26.5499 71.8265 26.6294L71.2277 27.1696C70.6582 27.6833 69.9676 28.0435 69.2205 28.2159L68.7958 28.3138L66.4296 28.8351L65.7787 29.0208C65.1847 29.1905 64.5727 29.2891 63.9555 29.3152L60.8943 29.4431C60.3921 29.464 59.9317 29.7291 59.6614 30.1526L58.8898 31.3613L58.1575 32.8845C57.9782 33.2571 57.7412 33.5988 57.4545 33.8964L57.0807 34.2846C56.9299 34.4414 56.7217 34.5296 56.5044 34.5296C56.2962 34.5296 56.0965 34.4486 55.9469 34.3034L55.6012 33.9682L50.9089 31.8827L50.8456 30.9475C50.7826 30.0186 51.0224 29.0942 51.5293 28.3134L52.2324 27.2305L55.3421 23.5717C56.4214 22.302 57.8836 21.4177 59.509 21.0511L64.9854 19.8167L67.984 19.021C68.4132 18.9071 68.8615 18.8831 69.3007 18.9508C69.5485 18.9889 69.802 18.9689 70.041 18.8919L70.1084 18.8702C70.6434 18.6978 71.2101 18.6485 71.7667 18.7263L72.6454 18.849L74.5304 20.774V25.7142L72.5652 30.0383L68.6349 32.0836L68.6353 32.084Z" fill="#101619"/>
<path d="M68.1271 32.6941L68.7347 33.4032C68.8177 33.5002 68.9561 33.5287 69.0708 33.4726L69.8412 33.1301C71.4334 32.4222 72.7769 31.2532 73.6981 29.7741L74.6097 28.3102C74.9566 27.7532 75.2345 27.1564 75.4382 26.5328L75.721 25.6661C76.118 24.4481 76.0811 23.1299 75.6163 21.936L75.4451 21.4964C75.0584 20.5038 74.3783 19.6528 73.4956 19.0572L73.4081 18.9983C73.3015 18.9261 73.1843 18.8707 73.0612 18.833L72.2082 18.5748C72.134 18.5523 72.079 18.6441 72.134 18.6987L72.5254 19.0901L72.8992 19.4639C73.4141 19.9788 73.7647 20.6342 73.9074 21.348L73.9375 21.4976C74.0382 22.0017 74.059 22.5183 73.9985 23.0288L73.7955 24.7421C73.751 25.1179 73.6816 25.4901 73.5882 25.8566L73.5601 25.9661C73.3528 26.7786 73.0275 27.5559 72.5948 28.2742L72.063 29.1569C71.6026 29.9209 70.9665 30.5633 70.2069 31.0314L68.1929 32.2726C68.0461 32.3633 68.0148 32.5634 68.1271 32.6941Z" fill="#101619"/>
<path d="M48.8211 42.5674C48.9659 42.3307 49.3047 41.8699 49.3047 41.8699L49.4652 41.7095L49.1363 42.3372C49.0621 42.4791 49.0132 42.6327 48.9919 42.792C48.9859 42.8373 48.9795 42.885 48.9735 42.9299C48.9542 43.0767 48.9735 43.2263 49.0296 43.3634C49.1507 43.6594 49.5474 43.7132 49.7427 43.4597L50.6282 42.3111L50.949 41.5892L51.5478 40.5413C51.683 40.3046 51.845 40.0849 52.0311 39.8859L52.3527 39.5418L52.8781 39.0883C52.8953 39.0734 52.9206 39.0927 52.9106 39.1127C52.8476 39.2431 52.7265 39.4945 52.6134 39.7303C52.4486 40.0748 52.4353 40.4727 52.5773 40.8276C52.6495 41.0077 52.8949 41.0305 52.9992 40.8673L53.0221 40.8316C53.1103 40.6933 53.1841 40.5461 53.2419 40.3925L53.7564 39.0225L54.0937 37.6786L54.3327 36.4028C54.3744 36.1814 54.5076 35.9877 54.7001 35.8702L55.12 35.6136L55.3807 35.4215C55.7043 35.1828 55.9333 34.8379 56.0271 34.4469L56.0424 34.3839L55.9622 33.7687L50.9089 31.8838L50.5235 32.3269C50.256 32.6346 50.1177 33.0336 50.1369 33.4407C50.1433 33.5734 50.0956 33.703 50.0046 33.8L49.7295 34.0932C49.6071 34.2235 49.5021 34.3695 49.4174 34.5271L48.5788 36.0848C48.2881 36.6246 48.0503 37.1917 47.869 37.7776L47.6203 38.5813L47.5305 38.8966C47.482 39.0666 47.6773 39.2009 47.8185 39.0947L47.9436 39.0008C47.968 38.9824 48.0021 39.006 47.9933 39.0357L47.6207 40.2545L47.5281 40.8192C47.51 40.9291 47.5249 41.0418 47.571 41.1432C47.632 41.2776 47.8112 41.3045 47.9091 41.1942L48.1084 40.9696C48.1577 40.9239 48.2367 40.9676 48.2247 41.0337L48.1958 41.1906C48.1333 41.531 48.102 41.8764 48.102 42.2225C48.102 42.2955 48.102 42.366 48.102 42.4254C48.102 42.5349 48.1313 42.6424 48.187 42.7366L48.2215 42.7952C48.3611 43.0314 48.7192 42.9692 48.7709 42.6997C48.7798 42.6532 48.7966 42.6087 48.8215 42.5682L48.8211 42.5674Z" fill="#101619"/>
<path d="M50.1922 38.9905L50.0162 38.9764C49.7868 38.958 49.6243 38.7438 49.6693 38.518L49.7523 38.0997C49.788 37.9201 49.6504 37.7524 49.4671 37.7524H49.0705C49.0059 37.7524 48.9538 37.7003 48.9538 37.6357V37.5038C48.9538 37.3923 48.8126 37.3442 48.7444 37.4324L48.1621 38.1868C48.1036 38.263 47.9816 38.2213 47.9816 38.125V37.4396C47.9423 37.5515 47.9046 37.6638 47.8694 37.7773L47.6207 38.581L47.5309 38.8962C47.4823 39.0663 47.6776 39.2006 47.8188 39.0944L47.9439 39.0005C47.9684 38.9821 48.0025 39.0057 47.9937 39.0354L47.6211 40.2542L47.5285 40.8189C47.5104 40.9288 47.5252 41.0414 47.5714 41.1429C47.6323 41.2773 47.8116 41.3041 47.9095 41.1938L48.1088 40.9693C48.1581 40.9235 48.2371 40.9673 48.2251 41.0334L48.1962 41.1902C48.1336 41.5307 48.1024 41.876 48.1024 42.2221C48.1024 42.2951 48.1024 42.3657 48.1024 42.4251C48.1024 42.5346 48.1316 42.642 48.1874 42.7363L48.2219 42.7948C48.3614 43.0311 48.7196 42.9689 48.7709 42.6994C48.7797 42.6529 48.7966 42.6084 48.8214 42.5678C48.9662 42.3312 49.3051 41.8704 49.3051 41.8704L49.4655 41.71L50.4353 39.3895C50.5107 39.2087 50.3879 39.0069 50.1926 38.9913L50.1922 38.9905Z" fill="#101619"/>
<path d="M85.3189 32.4453L86.2413 29.0364L79.0625 25.0259L77.2578 30.801L84.7173 34.0094L85.3189 32.4453Z" fill="#101619"/>
<path d="M76.5762 25.9082L79.0627 25.0259L77.2579 30.801L74.9519 31.9007L76.5762 25.9082Z" fill="#101619"/>
<path d="M81.7096 35.0118L74.9519 31.9005L77.2579 30.8008L84.7175 34.0092L81.7096 35.0118Z" fill="#101619"/>
<path d="M80.1055 28.7153L80.5466 27.2314L84.878 29.357L84.4781 30.8008L80.1055 28.7153Z" fill="#101619"/>
<path d="M87.8837 22.3966C87.7518 22.1271 87.5163 21.9222 87.2304 21.8296L87.1237 21.7951C85.3615 21.2224 83.6498 20.5053 82.0051 19.6515L78.22 17.6863L75.8185 16.2854C74.8973 15.748 74.25 14.8417 74.0407 13.7957C73.9689 13.4368 74.0439 13.0638 74.2492 12.7606L76.8645 8.8941C76.9523 8.76416 77.0521 8.64264 77.1624 8.53115C78.0191 7.66488 79.0398 6.97828 80.1647 6.51066C80.7105 6.28366 81.2836 6.12926 81.8696 6.05105L82.3633 5.98488C83.2051 5.87219 84.0593 5.89464 84.8939 6.05145L85.5588 6.17618C84.409 5.4186 83.0579 5.02437 81.6811 5.04522L80.265 5.05324C77.5118 5.09535 74.9065 6.39275 73.2081 8.56002L72.4044 9.58511C71.8734 10.4085 71.4812 11.3132 71.2433 12.2637L71.1992 12.4394C71.0384 13.0823 70.9646 13.7424 70.9602 14.4053C70.9586 14.6648 70.9301 14.9231 70.876 15.1765L70.519 16.8441L71.0288 16.9588C71.7555 17.1224 72.4577 17.3795 73.1178 17.7236L76.3499 19.4092C76.7109 19.5973 77.0658 19.7962 77.4151 20.0056L79.4877 21.2476C80.1655 21.6539 80.8657 22.0205 81.5856 22.3465L82.4218 22.7251C83.6811 23.295 84.9941 23.737 86.3417 24.0442L86.6011 24.1035H87.2898C87.4654 24.1035 87.6218 23.9916 87.678 23.8252L87.923 23.1009C88.0012 22.8699 87.9896 22.6164 87.8825 22.3974L87.8837 22.3966Z" fill="#101619"/>
<path d="M88.4676 9.97085C88.2832 9.81124 88.0309 10.0571 88.1833 10.2468C89.0171 11.2855 89.6086 12.9707 89.6086 14.8733C89.6086 17.6113 88.0221 20.2915 86.5169 20.9536C86.3208 21.0398 86.3754 21.3334 86.5899 21.3354C86.5943 21.3354 86.5983 21.3354 86.6028 21.3354C88.2639 21.3354 90.3726 18.2553 90.3726 15.0991C90.3726 12.8484 89.5453 10.9021 88.468 9.97005L88.4676 9.97085Z" fill="#101619"/>
<path d="M98.7498 25.4928L98.7887 25.3801C98.9511 24.908 99.2074 24.4733 99.5415 24.1023L99.896 23.7081C100.044 23.5441 100.204 23.3913 100.375 23.2513L101.18 22.5928C101.353 22.4508 101.547 22.3357 101.754 22.2515L102.131 22.0987C102.519 21.9411 102.944 21.8953 103.356 21.9671C103.482 21.9888 103.533 22.1412 103.447 22.2346L103.16 22.5158C102.765 22.9032 102.431 23.3484 102.168 23.8356L102.068 24.0213C102.05 24.0562 102.089 24.0935 102.123 24.0739L103.244 23.3656C103.565 23.1631 103.912 23.0059 104.275 22.8984L104.561 22.8138C104.727 22.7644 104.896 22.7287 105.068 22.7067L105.967 22.5908C106.023 22.5836 106.081 22.5932 106.132 22.6188C106.268 22.687 106.328 22.8494 106.267 22.989L106.265 22.9934C106.258 23.0115 106.248 23.0287 106.237 23.0452L106.192 23.1089C106.047 23.3155 105.864 23.4919 105.652 23.6283L105.543 23.6981C105.517 23.7149 105.534 23.7554 105.564 23.7486L105.724 23.7133C105.995 23.6532 106.275 23.6399 106.55 23.6744L106.905 23.7189C107.014 23.7326 107.096 23.8256 107.096 23.9355V24.0173C107.096 24.0646 107.081 24.1103 107.052 24.148L107.017 24.1946C106.884 24.3726 106.714 24.5198 106.519 24.6265C106.467 24.655 106.476 24.7328 106.533 24.748L106.902 24.8463C106.95 24.8591 106.995 24.8828 107.034 24.9149C107.144 25.0063 107.186 25.1555 107.141 25.291L107.135 25.3115C107.11 25.3865 107.06 25.4507 106.993 25.4936L106.612 25.7386C106.589 25.753 106.599 25.7883 106.626 25.7883C106.731 25.7883 106.803 25.8942 106.765 25.9921L106.754 26.0209C106.741 26.0522 106.719 26.0783 106.69 26.0955L106.51 26.1982C106.287 26.3253 106.086 26.4878 105.915 26.6791L105.491 27.1523L104.93 27.7138L103.795 28.88C103.59 29.091 103.361 29.2771 103.112 29.4343C102.569 29.7784 101.946 29.9777 101.303 30.0122L100.799 30.0395L99.1549 29.8389L98.9543 27.1519L98.7494 25.4936L98.7498 25.4928Z" fill="#101619"/>
<path d="M105.915 26.6781C106.086 26.4868 106.287 26.3244 106.51 26.1973L106.69 26.0946C106.719 26.0778 106.741 26.0513 106.754 26.02L106.765 25.9911C106.804 25.8933 106.731 25.7874 106.626 25.7874C106.6 25.7874 106.589 25.7521 106.612 25.7377L106.993 25.4926C107.06 25.4497 107.11 25.3855 107.135 25.3105L107.142 25.2901C107.187 25.1545 107.145 25.0053 107.035 24.9139C106.996 24.8818 106.951 24.8582 106.902 24.8453L106.534 24.7471C106.476 24.7318 106.467 24.654 106.519 24.6255C106.715 24.5189 106.885 24.3717 107.018 24.1936L107.053 24.1471C107.081 24.1094 107.096 24.0633 107.096 24.0164V23.9345C107.096 23.8243 107.015 23.7316 106.905 23.718L106.551 23.6739C106.275 23.6394 105.995 23.6526 105.724 23.7128L105.565 23.7481C105.534 23.7549 105.517 23.7144 105.544 23.6975L105.652 23.6277C105.864 23.4914 106.048 23.3149 106.192 23.1084L106.237 23.0446C106.248 23.0286 106.258 23.0113 106.266 22.9929L106.268 22.9885C106.328 22.8485 106.268 22.6861 106.132 22.6183C106.081 22.5926 106.024 22.583 105.967 22.5902L105.314 22.6744L105.281 22.723C104.889 23.2921 104.416 23.7998 103.875 24.2289L102.89 25.0106C102.647 25.2255 102.762 25.6262 103.082 25.6795C103.187 25.6972 103.28 25.7573 103.34 25.8459L103.972 26.7948C104.022 26.8694 104.096 26.9244 104.182 26.95L104.293 26.9833C104.393 27.0134 104.477 27.0828 104.525 27.1754L104.847 27.7983L104.931 27.712L105.492 27.1506L105.915 26.6773L105.915 26.6781Z" fill="#101619"/>
<path d="M98.6018 28.8212L98.8946 29.4172L98.6752 28.5397C98.6078 28.2702 98.5737 27.9935 98.5737 27.7155V26.607C98.5737 26.4486 98.5849 26.2906 98.607 26.1338L98.6996 25.4737C98.4462 25.3814 98.1542 25.4079 97.9232 25.5531L98.0427 25.9273C98.1025 26.1146 98.1462 26.3071 98.1727 26.502L98.222 26.8629C98.2429 27.0149 98.2533 27.1685 98.2533 27.3221C98.2533 27.8419 98.3724 28.3552 98.6022 28.8216L98.6018 28.8212Z" fill="#101619"/>
<circle cx="85.6429" cy="16.9977" r="0.520618" fill="#101619"/>
</g>
<path d="M79.9689 38.5277L68.6066 32.4128L80.5478 5.79879C82.6116 1.19886 87.9398 -0.950456 92.6176 0.929296L98.0381 3.10739L79.9684 38.5273L79.9689 38.5277Z" fill="#D0C1CB"/>
<path d="M84.2429 40.8552L72.8806 34.7403L85.2564 7.66287C87.3418 3.10017 92.6447 0.982172 97.2996 2.85261L102.778 5.05398L84.2429 40.8548V40.8552Z" fill="#9B015D"/>
<path d="M112.955 11.1694C112.955 16.0774 109.678 20.0561 105.634 20.0561C101.591 20.0561 93.4047 14.9349 93.4047 10.0269C93.4047 5.11885 100.321 1.64795 104.365 1.64795C108.408 1.64795 112.955 6.26142 112.955 11.1694Z" fill="#00144A"/>
<path d="M89.3423 16.2051L90.5826 14.7477C90.8801 14.3981 91.093 13.9842 91.2043 13.5391L91.7421 13.6601C92.5089 13.8327 93.2499 14.104 93.9464 14.4671L97.3568 16.2457C97.7377 16.4442 98.1126 16.6541 98.4808 16.875L100.668 18.1855C101.383 18.6138 102.122 19.001 102.881 19.3446L103.764 19.7441C105.093 20.3454 106.478 20.8118 107.9 21.1359L108.174 21.1986L108.031 21.5621C107.873 21.9679 107.753 22.3877 107.672 22.8159L107.539 23.5265L97.2134 20.4796L89.3423 16.2055V16.2051Z" fill="#D094B0"/>
<path d="M102.376 32.3703L105.505 33.7545C106.352 34.129 107.226 34.4362 108.121 34.6741L110.843 35.4535C111.742 35.7113 112.659 35.9038 113.586 36.0303L115.021 36.2263C115.589 36.3037 116.161 36.1243 116.583 35.7362L119.464 33.0867C119.554 33.0042 119.637 32.9145 119.712 32.8188L120.374 31.9814C120.694 31.5756 120.868 31.0732 120.868 30.5561V30.0064L118.964 25.1763L117.356 25.4725L113.59 28.8156L107.581 28.6886L105.084 29.6619L102.376 32.3703H102.376Z" fill="#D094B0"/>
<path d="M64.671 58.9038L66.6781 55.9906C67.0785 55.4096 67.6569 54.9746 68.326 54.7515C68.9713 54.5366 69.5189 54.0982 69.8702 53.5159L70.3687 52.689C70.7385 52.0758 71.2671 51.5739 71.898 51.2362L72.2971 51.0229C72.5734 50.8752 72.9115 50.9074 73.1544 51.105L73.4299 51.3289L74.0203 49.056C74.1904 48.4014 74.4371 47.7691 74.7553 47.1725L75.3219 46.1098C75.5276 45.7243 75.7218 45.3333 75.9055 44.9372L78.4221 39.5011C78.6765 38.9522 78.9689 38.4216 79.2973 37.9133L79.6705 37.3357C80.582 35.9257 81.7166 34.6731 83.0297 33.627L86.0402 31.2288L88.8755 29.8324L89.7641 25.6429L92.9422 21.5152V14.6191L102.777 20.3612L107.411 22.8076L103.902 30.936C103.393 32.1158 102.765 33.2406 102.03 34.2939C101.332 35.293 100.768 36.3793 100.352 37.5253L99.1451 40.8561L98.0372 43.8463L97.5133 45.4065C97.0322 46.8394 96.3852 48.2118 95.5858 49.4944L95.05 50.3543C93.9299 52.152 92.5562 53.7782 90.9719 55.1836L86.146 59.4628L81.3607 63.1702C81.2079 63.2883 81.045 63.3924 80.8736 63.4813L79.4255 64.2303C78.9346 64.4842 78.3866 64.6056 77.8343 64.5832L76.1412 64.5147C75.7472 64.4986 75.3537 64.5561 74.9804 64.6839L68.0124 67.0719L64.8809 63.436L64.6693 58.9046L64.671 58.9038Z" fill="#D094B0"/>
<path d="M80.6671 58.1843L83.0449 55.8467C84.7601 54.1607 86.0127 52.0622 86.6834 49.7529L86.7727 49.4449C87.0457 48.505 87.184 47.5312 87.184 46.5524V42.9783C87.184 41.5733 86.9416 40.179 86.4672 38.8565L85.7639 36.8955C85.5887 36.4072 85.237 36.0026 84.7779 35.761C84.2133 35.4639 83.5434 35.4432 82.9616 35.7051L81.4724 36.3755C80.83 36.6645 80.2554 37.0851 79.7856 37.6103L78.8585 38.6462C78.7032 38.9255 78.558 39.2103 78.4234 39.5006L75.9068 44.9367C75.7231 45.3328 75.5289 45.7243 75.3232 46.1094L74.7566 47.172C74.4384 47.7687 74.1917 48.4009 74.0215 49.0555L73.4312 51.3284L73.1557 51.1046C72.9124 50.9069 72.5747 50.8748 72.2984 51.0225L71.8993 51.2357C71.2679 51.5734 70.7394 52.0753 70.37 52.6885L69.871 53.5154C69.5198 54.0981 68.9722 54.5361 68.3269 54.7511C67.6574 54.9741 67.0789 55.4091 66.679 55.9901L64.6719 58.9033L64.8835 63.4347L68.015 67.0706L70.4724 66.2285L73.3047 63.0927L76.8594 60.9769L80.668 58.1839L80.6671 58.1843Z" fill="#D5DADD"/>
<path d="M62.809 72.9533L62.9089 74.1272C62.9546 74.6659 63.1006 75.1915 63.3384 75.6769L63.3922 75.7865C63.7815 76.5803 64.7095 76.9502 65.5381 76.6417L65.8978 76.508L67.5905 74.519L68.6908 72.784L69.695 71.2652C70.1799 70.5319 70.5684 69.7388 70.8506 68.9056L70.9806 68.5218C71.1972 67.8819 71.6141 67.3288 72.1693 66.9442L75.6486 64.5325L73.3034 63.0933L72.7744 63.7543C71.6475 65.163 69.8177 65.8092 68.056 65.4207L62.8086 72.9533H62.809Z" fill="#00144A"/>
<path d="M65.7103 57.395L64.2478 58.4804L62.834 59.7144C62.2339 60.2379 61.7718 60.901 61.4879 61.6449L59.54 66.7505C59.1845 67.4907 59 68.3011 59 69.1225C59 69.7581 59.1104 70.389 59.3271 70.987L59.8497 72.4313C60.3178 73.7245 61.9364 74.1481 62.9779 73.2497L64.6596 70.8643C64.7514 70.7339 64.85 70.6078 64.9549 70.4872L66.2689 68.9735C66.5842 68.61 66.8427 68.2012 67.0353 67.7602L68.0568 65.4209C67.0552 64.7811 66.2186 63.9144 65.6138 62.8912C65.4949 62.6897 65.4187 62.4655 65.3904 62.2331L65.2833 61.3504C65.2702 61.2429 65.2491 61.1367 65.2194 61.0322L65.0129 60.3034C64.8872 59.8595 64.9118 59.3868 65.0836 58.9586L65.7107 57.3945L65.7103 57.395Z" fill="#00144A"/>
<path d="M93.1931 45.1079L91.197 44.24C90.5994 43.9801 90.1098 43.5218 89.8111 42.9429L88.1992 39.8182L85.3639 31.7778L89.0455 30.0428L91.6269 29.1118L94.3776 25.811L95.774 22.5103L94.97 16.5435L99.4612 19.8328C100.049 20.2344 100.671 20.5827 101.321 20.8734L103.786 21.9766C104.704 22.3871 105.67 22.6799 106.661 22.8479L107.665 23.0181L109.019 24.3299L109.603 24.9135C110.283 25.5935 111.215 25.9604 112.177 25.9253L112.595 25.9101C112.844 25.9012 113.078 26.0252 113.211 26.2363L113.6 26.8567C113.754 27.0454 114.036 27.0619 114.21 26.8927L114.93 26.1953C115.162 25.9697 115.439 25.7954 115.742 25.6824L118.244 24.7531L118.659 24.5902C119.145 24.3993 119.515 23.9948 119.662 23.4937L119.735 23.2436C119.993 22.3681 121.234 22.3685 121.492 23.244L121.587 23.5682L121.63 24.8377L121.926 26.7843L123.153 27.4614L123.471 28.5477C123.595 28.9726 123.603 29.4228 123.493 29.8515C123.314 30.5527 122.64 31.0106 121.922 30.9184L121.037 30.8049L120.951 30.9607C120.88 31.0872 120.724 31.1367 120.593 31.0741L120.511 31.0347C119.967 30.7724 119.491 30.3856 119.124 29.9057L118.668 29.3099C118.256 28.7712 118.033 28.1114 118.033 27.4331V27.414C118.033 27.0243 118.103 26.6421 118.241 26.282C118.397 25.8749 118.583 25.3879 118.583 25.3879L117.847 26.1013C117.411 26.5245 117.059 27.0277 116.811 27.5829L116.084 29.2121C116.001 29.3991 115.901 29.5782 115.785 29.747L115.665 29.9226C115.537 30.1101 115.264 30.1224 115.12 29.9472L114.605 29.3238C114.296 29.912 114.09 30.5481 113.994 31.2053L113.619 33.7685C113.588 33.9314 113.388 33.9949 113.269 33.8797L112.747 33.3753C112.435 33.074 112.171 32.7279 111.962 32.3478L111.867 32.1735C111.661 31.7994 111.513 31.3965 111.426 30.9789L111.345 30.5934L110.73 31.6043C110.536 31.9242 110.194 32.1257 109.819 32.1409H109.806C109.515 32.1532 109.232 32.0554 109.012 31.8675C108.917 31.7863 108.81 31.6953 108.704 31.6047C108.31 31.2696 108.047 30.8062 107.961 30.2967L107.958 30.2772C107.894 29.9006 107.494 29.6894 107.151 29.8477C106.966 29.9328 106.816 30.0013 106.816 30.0013L106.182 31.6517L103.008 32.7097L101.889 34.8074C101.281 35.9474 100.727 37.1154 100.23 38.3074L99.1569 40.877L93.1901 45.1087L93.1931 45.1079Z" fill="#D5DADD"/>
<path d="M87.8293 47.6737L92.7161 46.2272C93.7059 45.9344 94.6488 45.5007 95.515 44.9399L96.1688 44.5168C96.7786 44.1224 97.347 43.667 97.8653 43.1584L99.2864 41.6806L99.4878 39.9126L93.7851 43.9235L87.8289 47.6737H87.8293Z" fill="#00144A"/>
<path d="M87.4379 46.9277L88.6854 44.8038C88.894 44.4487 89.0036 44.0446 89.0036 43.6333V40.8136C89.0036 39.5572 88.9016 38.3029 88.6994 37.063L88.492 35.7943C88.382 35.1215 88.2093 34.46 87.9757 33.8194L87.0109 31.1732C86.9229 30.9316 86.644 30.8207 86.4142 30.9358L85.344 31.4707C85.1413 31.5723 85.052 31.8135 85.14 32.0225L85.6605 33.2591L86.4646 35.9251L87.115 38.8518C87.47 40.4488 87.6186 42.0844 87.5576 43.7192L87.4379 46.9277Z" fill="#00144A"/>
<path d="M89.2153 29.6199L89.9525 28.5598C90.3612 27.972 90.8551 27.4477 91.4171 27.0038L91.8762 26.6415C92.0755 26.4841 92.2473 26.2945 92.3849 26.0808L92.6553 25.6602C92.8419 25.3703 92.9549 25.039 92.9845 24.6958L92.993 24.5976C93.0129 24.3665 92.9727 24.1346 92.8753 23.9243C92.8229 23.8105 92.6752 23.7804 92.5825 23.8642L91.9507 24.4343C91.3498 24.9763 90.6211 25.3564 89.8327 25.5383L89.3846 25.6416L86.8878 26.1917L86.201 26.3876C85.5743 26.5666 84.9285 26.6707 84.2772 26.6982L81.0471 26.8332C80.5173 26.8552 80.0315 27.135 79.7463 27.5818L78.9321 28.8573L78.1594 30.4645C77.9702 30.8577 77.7201 31.2182 77.4175 31.5322L77.0231 31.9418C76.864 32.1073 76.6444 32.2004 76.415 32.2004C76.1954 32.2004 75.9847 32.1149 75.8268 31.9617L75.462 31.608L70.5109 29.4074L70.444 28.4206C70.3776 27.4405 70.6306 26.4651 71.1655 25.6412L71.9073 24.4986L75.1887 20.6379C76.3274 19.2982 77.8703 18.365 79.5855 17.9783L85.3639 16.6757L88.528 15.8361C88.9808 15.716 89.454 15.6906 89.9173 15.7621C90.1789 15.8023 90.4463 15.7811 90.6985 15.6999L90.7696 15.677C91.3341 15.4951 91.9321 15.443 92.5194 15.5251L93.4466 15.6546L95.4356 17.6858V22.8985L93.362 27.4612L89.2149 29.6194L89.2153 29.6199Z" fill="#D5DADD"/>
<path d="M88.6791 30.2634L89.3202 31.0115C89.4078 31.1139 89.5538 31.144 89.6748 31.0847L90.4877 30.7233C92.1677 29.9764 93.5854 28.7429 94.5574 27.1822L95.5193 25.6376C95.8853 25.0498 96.1786 24.4201 96.3936 23.7621L96.6919 22.8476C97.1109 21.5624 97.0719 20.1714 96.5815 18.9116L96.4008 18.4478C95.9928 17.4005 95.2751 16.5025 94.3437 15.8741L94.2514 15.8119C94.1389 15.7357 94.0153 15.6773 93.8854 15.6375L92.9853 15.365C92.907 15.3413 92.849 15.4382 92.907 15.4958L93.32 15.9088L93.7144 16.3032C94.2578 16.8465 94.6277 17.538 94.7783 18.2913L94.81 18.4491C94.9163 18.981 94.9383 19.5261 94.8744 20.0648L94.6602 21.8726C94.6133 22.2691 94.5401 22.6618 94.4415 23.0486L94.4118 23.1641C94.193 24.0215 93.8499 24.8416 93.3932 25.5995L92.8321 26.5309C92.3463 27.3371 91.6751 28.015 90.8736 28.5089L88.7485 29.8186C88.5936 29.9142 88.5606 30.1254 88.6791 30.2634Z" fill="#00144A"/>
<path d="M68.3077 40.6812C68.4605 40.4315 68.8181 39.9453 68.8181 39.9453L68.9874 39.776L68.6404 40.4383C68.5621 40.5881 68.5104 40.7502 68.488 40.9182C68.4817 40.966 68.4749 41.0164 68.4685 41.0638C68.4482 41.2186 68.4685 41.3765 68.5278 41.5212C68.6556 41.8335 69.0741 41.8902 69.2802 41.6228L70.2146 40.4108L70.5531 39.6491L71.1849 38.5433C71.3275 38.2937 71.4985 38.0617 71.6949 37.8519L72.0342 37.4888L72.5886 37.0102C72.6068 36.9945 72.6335 37.0148 72.6229 37.036C72.5564 37.1735 72.4286 37.4388 72.3093 37.6877C72.1354 38.0512 72.1214 38.471 72.2712 38.8455C72.3474 39.0355 72.6064 39.0596 72.7164 38.8874L72.7405 38.8497C72.8336 38.7037 72.9115 38.5484 72.9724 38.3863L73.5154 36.9408L73.8712 35.5227L74.1235 34.1766C74.1675 33.943 74.308 33.7386 74.5111 33.6146L74.9542 33.3437L75.2292 33.141C75.5707 32.8893 75.8124 32.5253 75.9114 32.1127L75.9275 32.0463L75.8428 31.3971L70.5108 29.4082L70.1041 29.8758C69.8219 30.2004 69.6759 30.6214 69.6962 31.051C69.703 31.191 69.6526 31.3277 69.5565 31.4301L69.2662 31.7395C69.1372 31.877 69.0263 32.0311 68.937 32.1974L68.0521 33.841C67.7453 34.4106 67.4944 35.0089 67.3031 35.6272L67.0408 36.4753L66.946 36.8079C66.8948 36.9873 67.1008 37.1291 67.2498 37.0169L67.3818 36.9179C67.4076 36.8984 67.4436 36.9234 67.4343 36.9547L67.0412 38.2408L66.9434 38.8366C66.9244 38.9525 66.94 39.0714 66.9887 39.1785C67.053 39.3203 67.2422 39.3486 67.3454 39.2323L67.5558 38.9953C67.6078 38.947 67.6912 38.9932 67.6785 39.063L67.648 39.2284C67.582 39.5877 67.549 39.9521 67.549 40.3173C67.549 40.3943 67.549 40.4688 67.549 40.5314C67.549 40.6469 67.5799 40.7603 67.6387 40.8598L67.6751 40.9216C67.8224 41.1708 68.2003 41.1052 68.2548 40.8209C68.2642 40.7718 68.2819 40.7248 68.3082 40.6821L68.3077 40.6812Z" fill="#D5DADD"/>
<path d="M69.7545 36.9076L69.5688 36.8928C69.3267 36.8733 69.1553 36.6473 69.2027 36.4091L69.2903 35.9677C69.328 35.7781 69.1828 35.6012 68.9894 35.6012H68.5709C68.5028 35.6012 68.4478 35.5462 68.4478 35.4781V35.3389C68.4478 35.2212 68.2988 35.1704 68.2269 35.2635L67.6124 36.0595C67.5506 36.1399 67.422 36.0959 67.422 35.9944V35.2712C67.3805 35.3892 67.3407 35.5077 67.3035 35.6275L67.0411 36.4755L66.9463 36.8081C66.8951 36.9876 67.1012 37.1293 67.2502 37.0172L67.3822 36.9182C67.408 36.8987 67.444 36.9237 67.4347 36.955L67.0415 38.241L66.9438 38.8368C66.9247 38.9528 66.9404 39.0717 66.9891 39.1788C67.0534 39.3205 67.2425 39.3489 67.3458 39.2325L67.5561 38.9955C67.6082 38.9473 67.6915 38.9934 67.6788 39.0632L67.6484 39.2287C67.5824 39.588 67.5494 39.9523 67.5494 40.3175C67.5494 40.3946 67.5494 40.469 67.5494 40.5317C67.5494 40.6472 67.5802 40.7606 67.6391 40.86L67.6755 40.9218C67.8227 41.1711 68.2006 41.1055 68.2548 40.8211C68.2641 40.772 68.2819 40.7251 68.3081 40.6823C68.4609 40.4326 68.8185 39.9464 68.8185 39.9464L68.9877 39.7771L70.011 37.3286C70.0905 37.1378 69.961 36.9249 69.755 36.9084L69.7545 36.9076Z" fill="#D0C1CB"/>
<path d="M106.819 30.0006L107.793 26.4036L100.218 22.1719L98.3135 28.2656L106.185 31.651L106.819 30.0006Z" fill="#D5DADD"/>
<path d="M97.5941 23.1029L100.218 22.1719L98.3135 28.2656L95.8802 29.426L97.5941 23.1029Z" fill="#9B015D"/>
<path d="M103.011 32.709L95.8802 29.426L98.3135 28.2656L106.185 31.651L103.011 32.709Z" fill="#D094B0"/>
<path d="M101.318 26.0653L101.784 24.4995L106.354 26.7423L105.932 28.2658L101.318 26.0653Z" fill="#9B015D"/>
<path d="M109.526 19.398C109.386 19.1136 109.138 18.8973 108.836 18.7996L108.724 18.7632C106.864 18.1589 105.058 17.4023 103.323 16.5013L99.3287 14.4277L96.7947 12.9496C95.8227 12.3825 95.1397 11.4262 94.9188 10.3225C94.8431 9.94376 94.9222 9.55021 95.1388 9.23029L97.8984 5.15044C97.9911 5.01333 98.0964 4.88511 98.2128 4.76746C99.1167 3.8534 100.194 3.12892 101.381 2.6355C101.957 2.39598 102.561 2.23306 103.18 2.15054L103.701 2.08071C104.589 1.9618 105.49 1.9855 106.371 2.15096L107.072 2.28257C105.859 1.48319 104.434 1.0672 102.981 1.08921L101.487 1.09767C98.5814 1.14211 95.8324 2.51108 94.0403 4.79793L93.1922 5.87957C92.6319 6.74835 92.2181 7.70304 91.9671 8.70597L91.9206 8.89132C91.7509 9.56967 91.673 10.2662 91.6684 10.9657C91.6667 11.2395 91.6366 11.5121 91.5795 11.7795L91.2029 13.5391L91.7407 13.6601C92.5075 13.8328 93.2485 14.104 93.9451 14.4671L97.3555 16.2457C97.7363 16.4442 98.1108 16.6541 98.4794 16.875L100.666 18.1856C101.382 18.6142 102.12 19.001 102.88 19.3451L103.762 19.7445C105.091 20.3459 106.477 20.8122 107.898 21.1364L108.172 21.199H108.899C109.084 21.199 109.249 21.0809 109.309 20.9053L109.567 20.1411C109.65 19.8973 109.637 19.6299 109.524 19.3988L109.526 19.398Z" fill="#D0C1CB"/>
<path d="M97.1921 10.2808C98.606 10.2808 99.7523 9.08714 99.7523 7.61475C99.7523 6.14235 98.606 4.94873 97.1921 4.94873C95.7781 4.94873 94.6318 6.14235 94.6318 7.61475C94.6318 9.08714 95.7781 10.2808 97.1921 10.2808Z" fill="#D5DADD"/>
<path d="M110.142 6.28619C109.947 6.11777 109.681 6.37718 109.842 6.57734C110.722 7.67337 111.346 9.45156 111.346 11.4591C111.346 14.3481 109.672 17.1762 108.083 17.8749C107.876 17.9659 107.934 18.2756 108.16 18.2778C108.165 18.2778 108.169 18.2778 108.174 18.2778C109.927 18.2778 112.152 15.0278 112.152 11.6974C112.152 9.32249 111.279 7.26881 110.142 6.28535L110.142 6.28619Z" fill="#D5DADD"/>
<path d="M120.991 22.6652L121.032 22.5463C121.204 22.0482 121.474 21.5895 121.826 21.198L122.201 20.782C122.357 20.609 122.526 20.4477 122.706 20.3L123.555 19.6052C123.738 19.4554 123.942 19.3339 124.162 19.2451L124.559 19.0838C124.968 18.9175 125.416 18.8693 125.852 18.945C125.984 18.9679 126.038 19.1287 125.947 19.2273L125.645 19.5239C125.228 19.9327 124.875 20.4025 124.598 20.9166L124.493 21.1125C124.473 21.1494 124.514 21.1887 124.55 21.168L125.734 20.4207C126.072 20.2069 126.438 20.0411 126.821 19.9277L127.123 19.8384C127.298 19.7863 127.477 19.7486 127.658 19.7254L128.606 19.6031C128.666 19.5955 128.727 19.6056 128.781 19.6327C128.924 19.7046 128.987 19.876 128.924 20.0233L128.921 20.0279C128.913 20.047 128.903 20.0652 128.891 20.0825L128.844 20.1498C128.691 20.3678 128.498 20.554 128.274 20.6978L128.159 20.7715C128.132 20.7892 128.15 20.832 128.182 20.8248L128.35 20.7875C128.636 20.7241 128.931 20.7101 129.222 20.7465L129.596 20.7935C129.711 20.8079 129.798 20.906 129.798 21.022V21.1083C129.798 21.1583 129.782 21.2065 129.752 21.2463L129.715 21.2954C129.574 21.4833 129.395 21.6386 129.189 21.7511C129.134 21.7812 129.144 21.8633 129.204 21.8793L129.593 21.983C129.644 21.9966 129.692 22.0215 129.733 22.0554C129.848 22.1519 129.893 22.3093 129.846 22.4523L129.839 22.4739C129.812 22.553 129.759 22.6208 129.689 22.666L129.287 22.9246C129.263 22.9398 129.274 22.9771 129.302 22.9771C129.413 22.9771 129.489 23.0888 129.448 23.192L129.436 23.2225C129.423 23.2555 129.4 23.283 129.369 23.3012L129.179 23.4096C128.944 23.5437 128.732 23.7151 128.551 23.9169L128.105 24.4163L127.512 25.0087L126.315 26.2393C126.098 26.4619 125.856 26.6583 125.594 26.8242C125.021 27.1873 124.363 27.3976 123.686 27.434L123.154 27.4627L121.419 27.2512L121.207 24.4159L120.991 22.666L120.991 22.6652Z" fill="#D5DADD"/>
<path d="M128.552 23.9155C128.732 23.7137 128.944 23.5423 129.18 23.4081L129.37 23.2998C129.4 23.282 129.424 23.2541 129.437 23.2211L129.449 23.1906C129.489 23.0874 129.413 22.9756 129.302 22.9756C129.274 22.9756 129.263 22.9384 129.287 22.9232L129.69 22.6646C129.76 22.6193 129.812 22.5516 129.839 22.4725L129.846 22.4509C129.894 22.3079 129.849 22.1504 129.733 22.054C129.692 22.0201 129.645 21.9951 129.593 21.9816L129.205 21.8779C129.144 21.8618 129.134 21.7797 129.189 21.7497C129.395 21.6371 129.575 21.4818 129.715 21.2939L129.752 21.2448C129.782 21.2051 129.798 21.1564 129.798 21.1069V21.0206C129.798 20.9042 129.712 20.8064 129.596 20.792L129.222 20.7455C128.931 20.7091 128.636 20.7231 128.35 20.7865L128.182 20.8238C128.15 20.831 128.132 20.7882 128.16 20.7705L128.274 20.6968C128.498 20.5529 128.692 20.3667 128.844 20.1488L128.891 20.0815C128.903 20.0646 128.913 20.0464 128.922 20.0269L128.924 20.0223C128.987 19.8746 128.924 19.7032 128.781 19.6317C128.727 19.6046 128.666 19.5944 128.607 19.6021L127.918 19.6909L127.883 19.7421C127.47 20.3426 126.97 20.8784 126.399 21.3312L125.36 22.1559C125.104 22.3828 125.225 22.8055 125.563 22.8618C125.674 22.8804 125.772 22.9439 125.834 23.0374L126.502 24.0387C126.554 24.1174 126.633 24.1753 126.723 24.2024L126.841 24.2375C126.946 24.2693 127.035 24.3425 127.085 24.4402L127.425 25.0974L127.513 25.0065L128.106 24.414L128.552 23.9147L128.552 23.9155Z" fill="#D0C1CB"/>
<path d="M120.835 26.1769L121.144 26.8057L120.912 25.8798C120.841 25.5954 120.805 25.3034 120.805 25.0102V23.8405C120.805 23.6734 120.817 23.5066 120.841 23.3412L120.938 22.6446C120.671 22.5473 120.363 22.5752 120.119 22.7284L120.245 23.1232C120.308 23.3208 120.354 23.524 120.382 23.7296L120.434 24.1105C120.456 24.2709 120.467 24.433 120.467 24.595C120.467 25.1435 120.593 25.6851 120.835 26.1773L120.835 26.1769Z" fill="#D094B0"/>
<path d="M96.5361 10.175C97.9052 10.175 99.0151 9.01924 99.0151 7.59359C99.0151 6.16793 97.9052 5.01221 96.5361 5.01221C95.167 5.01221 94.0571 6.16793 94.0571 7.59359C94.0571 9.01924 95.167 10.175 96.5361 10.175Z" fill="#D0C1CB"/>
<circle cx="103.041" cy="11.2288" r="0.274671" fill="#D5DADD"/>
<circle cx="108.535" cy="8.48219" r="0.274671" fill="#D5DADD"/>
<circle cx="107.161" cy="13.7007" r="0.549342" fill="#D5DADD"/>
</svg>
