<svg width="128" height="128" viewBox="0 0 128 128" fill="none" xmlns="http://www.w3.org/2000/svg">
<g clip-path="url(#clip0_4211_40778)">
<g clip-path="url(#clip1_4211_40778)">
<path d="M40.2126 22.226C37.365 23.6497 1.14864 53.0738 1.14864 53.0738C-0.571716 54.7348 -0.986974 57.3451 0.852027 58.9169L64.8316 112.07C65.0094 112.218 65.2171 112.396 65.3949 112.515C66.7594 113.523 68.0941 114.057 69.6365 114.206C70.6452 114.295 71.6536 114.057 72.6322 113.761L81.8714 110.162L46.7083 21.8404C46.7083 21.8404 43.0897 20.8022 40.2421 22.1963L40.2126 22.226Z" fill="#1B90FF"/>
<path d="M71.3928 98.9009L6.82031 45.7773V50.0189C6.82031 51.6207 7.47286 53.1333 8.68897 54.142L69.0497 106.079C73.2912 109.549 76.9396 110.498 79.609 110.469V100.176L71.3928 98.9304V98.9009Z" fill="#046C7C"/>
<path d="M125.913 75.8899C127.9 74.2881 128.315 72.3305 128.315 70.7286V67.8516L84.6536 100.924L79.6113 100.153V110.445C81.9544 110.445 83.5563 109.644 84.1792 109.111L125.942 75.8602L125.913 75.8899Z" fill="#56BDFF"/>
<path d="M86.8181 104.54C82.9326 107.862 76.5553 107.862 72.6103 104.54L8.95727 50.6754C5.69452 47.9167 6.22841 43.4973 10.0547 40.7981L49.0593 14.3699C52.589 11.908 58.0763 11.908 61.3686 14.3699L125.17 62.4805C129.085 65.4465 129.441 70.2815 125.912 73.307L86.8478 104.54H86.8181Z" fill="#0899A7"/>
<path d="M51.1947 16.9222L13.3174 42.698C10.4699 44.6853 10.0843 47.9777 12.5165 49.9945L73.8858 101.665C76.7926 104.097 81.5085 104.097 84.3561 101.665L122.323 71.4695C124.933 69.215 124.695 65.6559 121.789 63.4609L60.3304 16.9222C57.8983 15.0832 53.8347 15.0832 51.1947 16.9222Z" fill="white"/>
<path fill-rule="evenodd" clip-rule="evenodd" d="M30.231 71.5145C29.6664 71.9054 27.1904 72.2964 26.5388 71.7318L20.8918 67.1274C20.5008 66.4756 20.2402 65.5636 22.2384 65.0422C23.4981 64.6947 24.1931 65.0422 24.8447 65.5636L30.0574 69.8205C30.7088 70.3416 30.7958 71.1235 30.231 71.5145Z" fill="#00144A"/>
<path fill-rule="evenodd" clip-rule="evenodd" d="M28.4958 71.8189C27.9311 72.2098 26.9319 72.1229 26.2804 71.558L21.0677 67.3011C20.4161 66.78 20.3293 65.9981 20.894 65.6072C21.4587 65.2162 22.4578 65.3029 23.1093 65.8677L28.3219 70.1247C28.9737 70.646 29.0603 71.4279 28.4958 71.8189Z" fill="#0899A7"/>
<path fill-rule="evenodd" clip-rule="evenodd" d="M53.3003 46.2844C45.6773 51.7422 45.0841 61.0855 52.3214 67.0473C59.6776 73.0983 72.1354 73.1578 79.6395 67.2255C87.1439 61.2932 86.7286 52.2167 79.4913 46.6405C72.3725 41.1829 60.7158 41.0048 53.3003 46.3141V46.2844ZM76.2285 54.8269C77.504 54.8269 78.5719 55.6574 78.5719 56.6658C78.5719 57.1703 78.3048 57.615 77.8895 57.9414C77.4742 58.2677 76.8811 58.4753 76.2285 58.4753L68.5759 58.4161L68.487 64.4373C68.487 65.4755 67.3894 66.306 66.0546 66.306C64.7199 66.306 63.6818 65.4457 63.6818 64.4076L63.8302 58.3566L56.1182 58.2974C54.8129 58.2974 53.7748 57.4669 53.8045 56.4288C53.864 55.4201 54.9316 54.6193 56.2369 54.6193L63.8894 54.7082L64.0378 48.8946C64.0378 47.916 65.1054 47.1447 66.381 47.1744C67.6565 47.1744 68.6649 47.9752 68.6649 48.9541L68.5759 54.738L76.1693 54.8269H76.2285Z" fill="#D20A0A"/>
</g>
</g>
<defs>
<clipPath id="clip0_4211_40778">
<rect width="128" height="128" fill="white"/>
</clipPath>
<clipPath id="clip1_4211_40778">
<rect width="128.696" height="102.957" fill="white" transform="translate(-0.347656 12.5234)"/>
</clipPath>
</defs>
</svg>
