<svg width="128" height="128" viewBox="0 0 128 128" fill="none" xmlns="http://www.w3.org/2000/svg">
<mask id="mask0_2810_46811" style="mask-type:alpha" maskUnits="userSpaceOnUse" x="0" y="0" width="128" height="128">
<circle cx="64" cy="64" r="64" fill="#EBF8FF"/>
</mask>
<g mask="url(#mask0_2810_46811)">
<path d="M181.138 -59.3589H-65.9234C-67.5338 -59.3605 -69.1287 -59.0224 -70.6169 -58.3641C-72.1052 -57.7058 -73.4576 -56.7401 -74.5968 -55.5223C-75.7361 -54.3044 -76.6398 -52.8582 -77.2564 -51.2664C-77.8731 -49.6746 -78.1904 -47.9684 -78.1904 -46.2452V109.145C-78.1904 112.626 -76.898 115.965 -74.5975 118.426C-72.297 120.888 -69.1768 122.271 -65.9234 122.271H181.138C184.391 122.271 187.512 120.888 189.812 118.426C192.113 115.965 193.405 112.626 193.405 109.145V-46.2452C193.405 -47.9684 193.088 -49.6746 192.471 -51.2664C191.854 -52.8582 190.951 -54.3044 189.811 -55.5223C188.672 -56.7401 187.32 -57.7058 185.832 -58.3641C184.343 -59.0224 182.748 -59.3605 181.138 -59.3589Z" fill="#223548"/>
<rect x="-51.0303" y="99.355" width="73.5398" height="11.0336" rx="3.39494" fill="#324E6B"/>
<rect x="16.251" y="99.355" width="162.726" height="11.0336" rx="3.39494" fill="#2A4259"/>
<rect x="-16.2324" y="8.54004" width="38.1931" height="48.378" rx="4.24368" fill="#324E6B"/>
<rect x="-15.0557" y="7.59912" width="38.1931" height="48.378" rx="4.24368" fill="#2A4259"/>
<rect x="-12.5098" y="10.1455" width="33.1007" height="43.2855" rx="2.54621" fill="#223548"/>
<path fill-rule="evenodd" clip-rule="evenodd" d="M18.8936 53.2858V10.29C19.8825 10.6396 20.591 11.5827 20.591 12.6914V50.8845C20.591 51.9931 19.8825 52.9363 18.8936 53.2858Z" fill="#324E6B"/>
<mask id="mask1_2810_46811" style="mask-type:alpha" maskUnits="userSpaceOnUse" x="-13" y="10" width="34" height="44">
<rect x="-12.5098" y="10.1455" width="33.1007" height="43.2855" rx="2.54621" fill="#EBF8FF"/>
</mask>
<g mask="url(#mask1_2810_46811)">
<path d="M7.92257 42.2467L-4.07409 44.5947L-5.59646 42.1157C-6.53547 40.5837 -7.12882 38.8661 -7.33522 37.0821C-7.54163 35.2982 -7.35615 33.4908 -6.79168 31.7857C-6.22721 30.0805 -5.29729 28.5185 -4.06659 27.2082C-2.83588 25.8979 -1.33392 24.8708 0.334869 24.1982L3.99604 22.7247C8.64354 20.8527 13.3768 25.2331 11.8491 29.996L7.92257 42.2467Z" fill="#324E6B"/>
<path d="M5.78345 60.4801L1.71488 58.9424C1.2875 58.7805 0.903984 58.5211 0.59498 58.1849C0.285977 57.8487 0.0600388 57.4451 -0.0647931 57.0063L-3.49011 45.023C-3.5641 44.7652 -3.56316 44.4919 -3.48742 44.2346C-3.41168 43.9774 -3.26425 43.747 -3.06231 43.5702C-2.86036 43.3933 -2.61222 43.2774 -2.34678 43.2358C-2.08134 43.1943 -1.80954 43.2289 -1.56303 43.3355L7.94102 47.4405L8.84694 58.1749C8.87908 58.5559 8.81393 58.9389 8.65756 59.2879C8.50119 59.637 8.25871 59.9408 7.95276 60.1711C7.6468 60.4013 7.28736 60.5504 6.90801 60.6044C6.52865 60.6585 6.14175 60.6157 5.78345 60.4801Z" fill="#2A4259"/>
<path d="M8.3486 52.2777L8.1449 49.8415C7.33471 49.2897 6.46653 48.8279 5.55581 48.4642C3.01764 47.432 0.696571 47.2475 0.369584 48.0497C0.0425971 48.852 1.83299 50.3362 4.36847 51.3685C5.9096 51.9943 7.36496 52.3071 8.3486 52.2777Z" fill="#324E6B"/>
<path d="M3.32689 31.4129L7.58217 31.6436C8.2973 31.6809 8.99802 31.8587 9.64423 32.1666C10.2904 32.4744 10.8695 32.9065 11.3481 33.4379C11.8268 33.9693 12.1957 34.5898 12.4338 35.2636C12.6719 35.9375 12.7744 36.6516 12.7356 37.3651L12.3165 45.0609C12.2381 46.5 11.59 47.8491 10.5148 48.8114C9.4395 49.7737 8.02515 50.2703 6.58285 50.1922L4.76567 50.0936C2.67675 49.9804 0.718472 49.0438 -0.67836 47.49C-2.07519 45.9361 -2.79616 43.8922 -2.68266 41.8079L-2.39606 36.5447C-2.3178 35.1075 -1.67125 33.76 -0.598314 32.7978C0.474624 31.8357 1.8863 31.3376 3.32689 31.4129Z" fill="#2A4259"/>
<path d="M9.5949 38.7893L8.32984 42.0974C8.32232 42.1167 8.3197 42.1375 8.32221 42.1581C8.32472 42.1786 8.33228 42.1982 8.34422 42.2152C8.35615 42.2321 8.37209 42.2458 8.39063 42.2551C8.40916 42.2645 8.42971 42.269 8.45045 42.2685H10.5491C10.5685 42.2687 10.5877 42.2645 10.6052 42.2561C10.6227 42.2477 10.638 42.2354 10.6499 42.2201C10.6618 42.2048 10.6701 42.187 10.674 42.1681C10.6779 42.1491 10.6773 42.1295 10.6723 42.1107L9.8388 38.8054C9.83205 38.7792 9.81719 38.7558 9.79633 38.7385C9.77548 38.7213 9.7497 38.711 9.72267 38.7093C9.69564 38.7075 9.66873 38.7143 9.64579 38.7286C9.62285 38.743 9.60504 38.7643 9.5949 38.7893Z" fill="#324E6B"/>
<path d="M-3.02122 41.2013L-4.85449 40.4578L0.130716 34.061L-0.475016 37.3343C-0.709961 38.6129 -1.21823 39.826 -1.96522 40.8911C-2.07987 41.0546 -2.24685 41.1744 -2.43875 41.2308C-2.63064 41.2872 -2.83604 41.2768 -3.02122 41.2013Z" fill="#324E6B"/>
<path d="M7.16534 35.3547C12.6909 34.5966 16.8936 31.975 16.5524 29.4993C16.2112 27.0236 11.4553 25.6313 5.92972 26.3894C0.404161 27.1476 -3.79859 29.7692 -3.45738 32.2449C-3.11617 34.7206 1.63979 36.1129 7.16534 35.3547Z" fill="#324E6B"/>
<path d="M0.0435352 34.0315L-3.35938 32.6479L-4.9412 36.5213L-1.53829 37.9048L0.0435352 34.0315Z" fill="#324E6B"/>
<path d="M-0.151406 27.4657C2.2074 25.0572 3.59263 22.591 2.94261 21.9572C2.29258 21.3234 -0.14656 22.762 -2.50537 25.1704C-4.86417 27.5788 -6.24942 30.0451 -5.59939 30.6789C-4.94936 31.3127 -2.51021 29.8741 -0.151406 27.4657Z" fill="#324E6B"/>
</g>
<g clip-path="url(#clip0_2810_46811)">
<rect width="37.5566" height="5.72897" rx="2.54621" transform="matrix(-1 0 0 1 60.4453 94.2227)" fill="#0070F3"/>
<path d="M50.8777 98.3507L48.3508 94.2227H138.741V97.9276C138.741 98.1944 138.695 98.4585 138.606 98.7048C138.517 98.9511 138.387 99.1748 138.222 99.3628C138.057 99.5509 137.862 99.6998 137.647 99.8008C137.433 99.9019 137.203 99.9531 136.97 99.9516H53.5637C53.037 99.9529 52.5177 99.808 52.0501 99.5293C51.5825 99.2506 51.1803 98.8463 50.8777 98.3507Z" fill="#1782FF"/>
<path d="M100.072 36.2972H13.4775C13.1716 36.2887 12.8678 36.3501 12.5898 36.4767C12.3117 36.6033 12.0669 36.7916 11.8744 37.0271C11.6818 37.2626 11.5466 37.5389 11.4794 37.8345C11.4122 38.1302 11.4147 38.4371 11.4868 38.7316L23.0128 92.6253C23.1106 93.0766 23.3614 93.4811 23.7236 93.7716C24.0858 94.0621 24.5374 94.221 25.0035 94.222H110.603C110.906 94.2294 111.206 94.1683 111.481 94.0434C111.757 93.9184 112 93.7329 112.191 93.501C112.383 93.2691 112.519 92.9969 112.589 92.7051C112.659 92.4133 112.66 92.1096 112.594 91.8171L102.063 37.9333C101.982 37.4705 101.738 37.0513 101.373 36.7514C101.008 36.4514 100.547 36.2903 100.072 36.2972Z" fill="#4098FF"/>
<path d="M96.129 44.7964C95.8286 43.1899 94.4262 42.0254 92.7919 42.0254H70.0081C67.9703 42.0254 66.3916 43.8081 66.6381 45.8309L69.6886 70.8686C69.8962 72.5722 71.3424 73.853 73.0586 73.853H97.473C99.598 73.853 101.201 71.9229 100.81 69.8341L96.129 44.7964Z" fill="#1782FF"/>
<path d="M24.038 48.4214L67.232 48.5706L83.3539 48.6303C83.8277 48.6234 84.2885 48.7859 84.6532 49.0886C85.0179 49.3913 85.2625 49.8143 85.343 50.2813L89.8086 73.695L92.1956 86.2373C92.2605 86.5317 92.2576 86.8371 92.1871 87.1303C92.1167 87.4235 91.9805 87.6968 91.7889 87.9297C91.5973 88.1625 91.3553 88.3487 91.0811 88.4742C90.807 88.5997 90.5079 88.6613 90.2064 88.6542H30.6916C30.2181 88.6486 29.761 88.479 29.3984 88.1743C29.0357 87.8697 28.7898 87.4488 28.7025 86.9832L22.0489 50.8284C21.9952 50.5357 22.0061 50.2348 22.081 49.9468C22.156 49.6589 22.293 49.3908 22.4826 49.1614C22.6721 48.932 22.9096 48.7469 23.1783 48.6191C23.447 48.4912 23.7405 48.4238 24.038 48.4214Z" fill="#CEDBE8"/>
<path d="M55.7488 54.874C48.3807 54.874 42.8806 60.8858 43.5272 68.2353C44.1738 75.5847 50.7117 81.5964 58.0917 81.5964C65.4717 81.5964 70.9598 75.5847 70.3172 68.2353C69.6746 60.8858 63.1168 54.874 55.7488 54.874ZM62.3106 73.188C62.1895 73.3144 62.0439 73.4151 61.8827 73.4839C61.7215 73.5527 61.548 73.5881 61.3726 73.5881C61.1973 73.5881 61.0238 73.5527 60.8626 73.4839C60.7013 73.4151 60.5557 73.3144 60.4346 73.188L57.0859 70.1144L54.292 73.188C54.1712 73.3143 54.0259 73.4149 53.8651 73.4836C53.7042 73.5524 53.531 73.5878 53.356 73.5878C53.1809 73.5878 53.0077 73.5524 52.8469 73.4836C52.686 73.4149 52.5408 73.3143 52.42 73.188C52.283 73.0779 52.1697 72.9414 52.087 72.7866C52.0042 72.6318 51.9537 72.4619 51.9384 72.2872C51.9231 72.1124 51.9434 71.9363 51.9981 71.7696C52.0527 71.6028 52.1405 71.4488 52.2563 71.3168L55.0503 68.2432L51.7015 65.1696C51.5643 65.0599 51.4507 64.9236 51.3675 64.7689C51.2844 64.6143 51.2335 64.4445 51.2179 64.2697C51.2022 64.0949 51.2221 63.9188 51.2764 63.7519C51.3307 63.585 51.4183 63.4307 51.5339 63.2984C51.655 63.172 51.8006 63.0713 51.9618 63.0026C52.123 62.9338 52.2965 62.8983 52.4719 62.8983C52.6472 62.8983 52.8208 62.9338 52.982 63.0026C53.1432 63.0713 53.2887 63.172 53.4098 63.2984L56.7626 66.372L59.5565 63.2984C59.6777 63.172 59.8232 63.0713 59.9844 63.0026C60.1456 62.9338 60.3192 62.8983 60.4945 62.8983C60.6698 62.8983 60.8434 62.9338 61.0046 63.0026C61.1658 63.0713 61.3113 63.172 61.4325 63.2984C61.569 63.4088 61.6818 63.5455 61.7643 63.7003C61.8467 63.8551 61.8971 64.0248 61.9123 64.1994C61.9276 64.374 61.9075 64.5499 61.8531 64.7166C61.7988 64.8833 61.7114 65.0374 61.5961 65.1696L58.8022 68.2432L62.1509 71.3168C62.2864 71.427 62.3983 71.5633 62.48 71.7176C62.5617 71.8718 62.6114 72.0408 62.6263 72.2146C62.6412 72.3884 62.6209 72.5635 62.5667 72.7293C62.5124 72.8952 62.4254 73.0484 62.3106 73.18V73.188Z" fill="#F31DED"/>
<path d="M55.5327 51.7921C53.4381 51.7615 51.3604 52.171 49.4349 52.9941C47.5094 53.8173 45.7793 55.0355 44.3569 56.5697C42.9411 58.1278 41.8697 59.9655 41.2123 61.9636C40.555 63.9616 40.3263 66.0753 40.5412 68.1672C41.3395 77.1569 49.3222 84.4905 58.3187 84.4905C60.4132 84.5202 62.4905 84.1102 64.4159 83.2871C66.3412 82.464 68.0715 81.2463 69.4945 79.7129C70.911 78.1545 71.9828 76.3161 72.6402 74.3173C73.2977 72.3185 73.5259 70.204 73.3102 68.1114C72.5239 59.1058 64.5492 51.7921 55.5327 51.7921ZM68.8878 79.1396C67.5425 80.5876 65.9071 81.7373 64.0877 82.5144C62.2684 83.2915 60.3056 83.6785 58.3267 83.6504C49.7293 83.6504 42.1258 76.6713 41.3714 68.0956C41.1665 66.1177 41.3803 64.1189 41.9992 62.2287C42.618 60.3386 43.6279 58.5991 44.9636 57.1231C46.3084 55.6758 47.9432 54.5267 49.7619 53.7503C51.5806 52.9739 53.5427 52.5875 55.5207 52.6163C64.1181 52.6163 71.7256 59.5915 72.476 68.1672C72.682 70.1448 72.469 72.1435 71.8508 74.0338C71.2327 75.924 70.2232 77.6636 68.8878 79.1396Z" fill="#F58B00"/>
</g>
</g>
<defs>
<clipPath id="clip0_2810_46811">
<rect width="127.31" height="63.4384" fill="white" transform="matrix(-1 0 0 1 139.086 35.6997)"/>
</clipPath>
</defs>
</svg>
