<svg width="128" height="62" viewBox="0 0 128 62" fill="none" xmlns="http://www.w3.org/2000/svg">
<rect y="7" width="128" height="55" rx="8" fill="#89D1FF"/>
<path fill-rule="evenodd" clip-rule="evenodd" d="M82.0599 43.8853C82.617 43.8853 83.1297 43.6955 83.537 43.377C84.5595 43.102 85.3121 42.1685 85.3121 41.0592V2.4C85.3121 1.07452 84.2375 0 82.9121 0H54.0525C53.4954 0 52.9827 0.189793 52.5754 0.508245C51.5529 0.783244 50.8003 1.71677 50.8003 2.82607V17.3373C50.5088 17.401 50.2752 17.4439 50.1226 17.4573C49.8935 17.4771 49.6643 17.4556 49.4364 17.4343C48.51 17.3475 47.603 17.2626 46.7935 19.9538C46.0529 22.4164 45.1764 23.4385 44.6032 24.107C44.4243 24.3157 44.2749 24.4899 44.1684 24.6627C44.1508 24.6898 44.1346 24.718 44.1197 24.745C43.8784 25.1978 44.1244 27.8527 44.3504 30.2906C44.5021 31.9278 44.6448 33.4672 44.6247 34.1759C44.5922 35.322 43.6878 37.1694 43.0572 38.3245C42.4194 37.9545 41.9994 37.7283 41.9994 37.7283L41.0173 40.3279L40.3166 39.8958L40.314 39.8945L29.2015 62H37.823H49.0004L49.6973 50.2727L49.7 50.273L49.9505 45.8365L49.5137 45.5671C49.5734 44.8799 49.5277 44.0495 49.1937 43.2256L50.8003 40.2459V43.8853H82.0599ZM50.8003 21.9232V24.2175C50.6743 23.8352 50.5713 23.5067 50.5288 23.3073C50.4514 22.9466 50.5845 22.3893 50.8003 21.9232Z" fill="#1B90FF"/>
<rect x="55.4883" y="0.425781" width="33.6596" height="43.4592" rx="2.4" fill="#046C7C"/>
<rect x="56.3406" width="33.6596" height="43.4592" rx="2.4" fill="#07838F"/>
<rect x="58" y="2.28516" width="30" height="39.2" rx="0.8" fill="white"/>
<circle cx="73.3831" cy="1.27861" r="0.426071" fill="#046C7C"/>
<path d="M72.2946 2.73506C72.2269 2.76079 72.1565 2.77839 72.0834 2.78245C72.0577 2.78381 72.032 2.78245 72.0062 2.77974C72.0062 2.81089 72.0076 2.84067 72.0089 2.87182C72.0089 2.88536 72.0062 2.92598 72.0171 2.92733C72.0238 2.92733 72.0482 2.90973 72.0536 2.90702C72.0753 2.89483 72.0969 2.88129 72.1173 2.86775C72.1633 2.83797 72.208 2.80683 72.2513 2.77433C72.2716 2.75944 72.2919 2.74183 72.3109 2.72559C72.3055 2.72829 72.3 2.731 72.2933 2.73371L72.2946 2.73506Z" fill="#0070F2"/>
<path d="M79.9996 21.885C79.9996 25.6405 76.9551 28.685 73.1996 28.685C69.4441 28.685 66.3996 25.6405 66.3996 21.885C66.3996 18.1294 69.4441 15.085 73.1996 15.085C76.9551 15.085 79.9996 18.1294 79.9996 21.885Z" fill="#DF1278"/>
<path d="M74.8275 19.3641C75.0928 19.0987 75.5231 19.0988 75.7884 19.3641C76.0538 19.6294 76.0538 20.0596 75.7884 20.325L74.1947 21.9187L75.7884 23.5125C76.0538 23.7778 76.0538 24.2081 75.7884 24.4734C75.5231 24.7388 75.0928 24.7388 74.8275 24.4734L73.2337 22.8797L71.64 24.4734C71.3746 24.7388 70.9444 24.7388 70.6791 24.4734C70.4138 24.2081 70.4137 23.7778 70.6791 23.5125L72.2728 21.9187L70.6791 20.325C70.4137 20.0596 70.4137 19.6294 70.6791 19.3641C70.9444 19.0987 71.3746 19.0987 71.64 19.3641L73.2337 20.9578L74.8275 19.3641Z" fill="white"/>
<mask id="mask0_4011_77914" style="mask-type:alpha" maskUnits="userSpaceOnUse" x="32" y="14" width="32" height="48">
<path d="M51.2883 14.7998L32.8 61.9998H54.4L63.4883 19.1998L60.6883 19.5998L59.0883 20.5998L55.4883 23.3998V14.7998H51.2883Z" fill="#D9D9D9"/>
</mask>
<g mask="url(#mask0_4011_77914)">
<path d="M47.1458 39.8846C47.1458 39.8846 49.2645 36.4554 49.3146 34.69C49.3647 32.9246 48.4062 26.0146 48.8096 25.2591C49.2131 24.5037 50.4735 23.8213 51.4821 20.4679C52.4907 17.1144 53.651 18.0716 54.8112 17.9714C55.9714 17.8699 61.8214 16.0544 62.1747 16.4578C62.5281 16.8613 62.83 18.5766 61.116 19.3835C59.4007 20.1903 56.7282 21.5523 56.2233 21.6024C55.7183 21.6525 55.063 23.116 55.2146 23.8213C55.3663 24.5267 56.2733 26.8472 56.2733 27.4523C56.2733 28.0575 57.3321 24.325 57.8871 22.963C58.4422 21.601 60.1562 18.9787 61.8214 19.7855C63.4853 20.5924 61.0646 26.0904 60.6611 26.7957C60.2577 27.5011 60.2577 29.2164 60.2076 30.4782C60.1575 31.7386 59.5009 32.1935 59.5009 32.1935C59.5009 32.1935 59.551 36.0777 58.7441 37.1864C57.9372 38.2952 56.2733 39.3052 56.2733 39.3052L53.4993 44.4498L47.1444 39.886L47.1458 39.8846Z" fill="#8D2A00"/>
<path d="M61.6097 17.5098C61.6585 17.7386 61.6287 17.9783 61.5096 18.1813C61.4188 18.337 61.3011 18.4467 61.144 18.5279C60.7704 18.7215 60.3425 18.8366 59.9283 18.9057C59.7144 18.9409 59.495 18.9639 59.2784 18.949C59.1227 18.9381 58.9508 18.9097 58.8249 18.8122C58.7734 18.7716 58.7328 18.7202 58.7085 18.6579C58.7058 18.6511 58.6976 18.6092 58.6936 18.6078C58.6827 18.6037 58.6313 18.666 58.6232 18.6755C58.5744 18.731 58.5379 18.7946 58.5122 18.8637C58.4242 19.1047 58.4675 19.3727 58.3605 19.6096C58.2983 19.7464 58.1927 19.8628 58.0681 19.944C57.9056 20.0496 57.7337 20.1431 57.5577 20.2243C57.226 20.3786 56.8605 20.4842 56.4922 20.4734C56.346 20.4693 56.2025 20.4368 56.0712 20.3732C55.9493 20.315 55.8424 20.2324 55.7368 20.1512C55.5296 19.9914 55.3171 19.8439 55.0707 19.7532C54.9475 19.7071 54.8189 19.6706 54.6889 19.6543C54.5901 19.6421 54.4588 19.634 54.3789 19.7058C54.2963 19.7789 54.3274 19.9021 54.3667 19.9901C54.4181 20.1052 54.4967 20.208 54.5738 20.3069C54.6564 20.4111 54.7444 20.51 54.8297 20.6115C54.8947 20.69 54.9651 20.7699 55.0125 20.8606C55.1465 21.1192 55.2277 21.413 55.2061 21.7054C55.1655 22.2578 54.7485 22.6964 54.2679 22.9293C54.1393 22.9915 54.0025 23.0376 53.8698 23.0877C53.6722 23.1635 53.4745 23.2393 53.2796 23.3259C53.09 23.4099 52.9018 23.5019 52.7313 23.6197C52.6081 23.705 52.4618 23.8187 52.4226 23.9731C52.3793 24.1423 52.5214 24.3021 52.6636 24.3725C52.933 24.5065 53.262 24.4293 53.5503 24.4726C53.6898 24.4943 53.8252 24.5417 53.9335 24.6351C54.0485 24.7326 54.169 24.8463 54.2232 24.9912C54.3031 25.2078 54.1487 25.3905 54.0242 25.553C53.8888 25.729 53.7114 25.974 53.7615 26.211C53.8008 26.3964 53.9985 26.479 54.1582 26.5318C54.3437 26.5941 54.5386 26.6293 54.7201 26.7078C54.8852 26.7796 54.9854 26.8987 55.0802 27.0476C55.198 27.2318 55.2968 27.4281 55.4186 27.6108C55.5256 27.7719 55.6623 27.9574 55.8573 28.0143C56.0793 28.0793 56.3203 27.9222 56.4489 27.7516C56.6127 27.5337 56.6533 27.2318 56.6777 26.9678C56.6939 26.7985 56.6994 26.628 56.7061 26.4574C56.4557 27.2128 56.2756 27.7015 56.2756 27.4524C56.2756 26.8473 55.3672 24.5268 55.2169 23.8214C55.0653 23.1147 55.7219 21.6526 56.2255 21.6025C56.7305 21.5524 59.403 20.1904 61.1183 19.3836C62.8336 18.5767 62.5304 16.8614 62.177 16.4579C62.0836 16.351 61.607 16.3997 60.9328 16.531C61.2591 16.772 61.5285 17.1186 61.6111 17.5112L61.6097 17.5098Z" fill="#450B00"/>
<path d="M53.8676 43.6779C53.4628 43.3435 53.0228 42.9171 52.8278 42.4202C52.6261 41.9085 52.6884 41.3507 52.7425 40.8186C52.7926 40.3231 52.7723 39.8209 52.8712 39.3308C52.9524 38.9287 53.1121 38.532 53.3897 38.2301C53.5982 38.0026 53.8838 37.8294 54.1911 37.8226C54.4132 37.8185 54.6569 37.9268 54.7259 38.1367C54.7909 38.3343 54.6839 38.5496 54.5404 38.7012C54.4145 38.8353 54.2602 38.9409 54.091 39.0099C54.0436 39.0289 53.9921 39.0478 53.9637 39.0898C53.9204 39.1521 53.9434 39.2373 53.9732 39.3077C54.1708 39.7802 55.3419 41.0352 55.8009 40.185C55.9593 39.8926 56.1163 39.6002 56.2747 39.3077C56.2747 39.3077 57.9386 38.2991 58.7455 37.189C59.5523 36.0788 59.5023 32.196 59.5023 32.196C59.5023 32.196 60.1575 31.7425 60.209 30.4807C60.2591 29.2203 60.259 27.505 60.6625 26.7983C61.0375 26.1417 63.1549 21.3477 62.1152 20.0264C62.0055 20.071 61.8999 20.1293 61.8092 20.1875C61.4396 20.4217 61.1255 20.7385 60.8453 21.0715C60.2022 21.8351 59.7026 22.7164 59.2464 23.6005C58.4029 25.2319 57.5514 26.8551 56.777 28.5217C56.7472 28.584 56.7215 28.6679 56.7729 28.7153C56.8244 28.7627 56.911 28.6449 56.842 28.6368C56.5712 28.6368 55.2972 33.1112 55.1131 33.6162C54.7719 34.5585 54.2927 35.6416 53.3342 36.0978C52.2267 36.6258 51.2262 36.0003 50.7226 34.947C50.1567 33.7638 50.196 32.3869 50.3354 31.0818C50.483 29.7104 50.6942 28.3823 50.4126 27.046C50.3665 26.8308 50.0714 26.7929 49.9726 26.9892C49.737 27.4603 49.5746 27.9978 49.2767 28.3281C49.1102 28.0438 49.0411 27.685 48.9829 27.3601C48.8543 26.6385 48.8408 25.9088 48.857 25.1764C48.8394 25.2034 48.8232 25.2319 48.8083 25.259C48.4048 26.0158 49.3634 32.9257 49.3133 34.6898C49.2632 36.4552 47.1444 39.8845 47.1444 39.8845L53.4993 44.4483L53.9001 43.7037C53.8892 43.6942 53.8771 43.6861 53.8662 43.6766L53.8676 43.6779Z" fill="#450B00"/>
<path d="M45.3233 41.8542L46.688 38.2422C46.688 38.2422 52.9495 41.6132 53.8322 43.621C54.7149 45.6274 53.8322 47.715 53.8322 47.715L45.3233 41.8542Z" fill="white"/>
<path d="M33.8889 62.6988L45.0026 40.4092L54.6365 46.3498L53.7132 62.6988H33.8889Z" fill="#1B90FF"/>
<path d="M47.4348 57.1775C47.4389 57.1693 47.4416 57.1626 47.4456 57.1544C47.4957 57.038 47.516 56.9121 47.5296 56.7835C47.5553 56.5384 47.4565 56.3205 47.3441 56.1052C47.0706 55.5813 46.6712 55.125 46.456 54.5727C46.1405 53.7644 45.9293 52.921 45.8048 52.0627C45.7425 51.6348 45.6802 51.1962 45.6775 50.763C45.6735 50.2905 45.6477 49.8166 45.6207 49.3455C45.5692 48.475 45.5029 47.6004 45.5638 46.7285C45.5638 46.7245 45.5638 46.7204 45.5638 46.7163C45.5665 46.6866 45.5665 46.6568 45.5692 46.627C45.5692 46.6243 45.5719 46.6216 45.5746 46.6216C46.4248 46.6933 47.1492 47.2782 47.78 47.8021C48.0968 48.0661 48.4055 48.3382 48.7291 48.5955C49.0256 48.8324 49.3356 49.0382 49.6673 49.2237C50.4173 49.6433 51.208 49.9913 52.0243 50.2634C52.7744 50.5125 53.5785 50.7088 54.3881 50.7873L54.6386 46.3508L45.0047 40.4102L33.8896 62.6998C33.8896 62.6998 42.4974 62.6998 42.5109 62.6998C42.5285 62.6998 41.6485 60.3576 41.5822 60.1789C41.1462 59.0078 40.7171 57.7041 40.7712 56.441C40.7712 56.4383 40.7726 56.4369 40.7753 56.4356C40.8457 56.422 40.9161 56.4139 40.9878 56.4112C41.3872 56.3936 41.792 56.487 42.1765 56.5831C42.6761 56.7077 43.1675 56.8634 43.659 57.015C44.1639 57.1707 44.6676 57.3277 45.1807 57.4536C45.6125 57.5592 46.0607 57.6527 46.5074 57.6418C46.8256 57.6337 47.1803 57.5592 47.3752 57.2844C47.3807 57.2776 47.3847 57.2695 47.3901 57.2628C47.4077 57.2357 47.4226 57.2086 47.4362 57.1802L47.4348 57.1775Z" fill="#0040B0"/>
<path d="M59.3759 21.7017C59.3529 21.8411 59.4477 21.9752 59.5912 22.005C60.5945 22.2148 61.3162 22.839 61.5694 22.7131C61.7644 22.617 62.8151 20.1689 61.3149 19.8833C59.8146 19.5976 59.4883 21.0138 59.3773 21.7017H59.3759Z" fill="#C35500"/>
</g>
</svg>
