<svg width="45" height="45" viewBox="0 0 45 45" fill="none" xmlns="http://www.w3.org/2000/svg">
<path fill-rule="evenodd" clip-rule="evenodd" d="M30.7355 29.693C29.4687 28.1576 27.703 26.4867 25.2547 24.5185C25.2266 24.4959 25.1996 24.4717 25.1728 24.4475C25.0467 24.3334 24.6434 23.9738 24.1686 23.3703C23.8287 22.9377 23.8284 22.265 24.167 21.8313C24.6509 21.2117 25.0634 20.844 25.1896 20.7299C25.2155 20.7065 25.2415 20.6831 25.2687 20.6612C27.7252 18.6837 29.4916 17.0124 30.7509 15.4857C31.9238 14.0601 32.6617 12.7626 33.1279 11.4651C33.8581 9.45015 33.9222 7.41928 33.9276 4.90914C33.9283 4.5938 33.6725 4.33789 33.3571 4.33789L11.6453 4.33789C11.3324 4.33789 11.0776 4.5899 11.0754 4.90274C11.0577 7.39967 11.135 9.43228 11.8652 11.4651C12.347 12.7626 13.0927 14.0601 14.2659 15.4857C15.5326 17.021 17.2984 18.6918 19.7465 20.6598C19.7749 20.6826 19.8022 20.7072 19.8293 20.7317C19.9526 20.8432 20.3379 21.187 20.7957 21.7618C21.1591 22.2178 21.1594 22.9369 20.7973 23.3945C20.3314 23.9833 19.9377 24.3348 19.8133 24.4474C19.7866 24.4716 19.7596 24.4959 19.7315 24.5185C17.2755 26.4956 15.5095 28.1663 14.2504 29.693C13.0775 31.1183 12.3393 32.416 11.8735 33.7135C11.1433 35.7285 11.0791 37.7592 11.0737 40.2695C11.073 40.5849 11.3289 40.8408 11.6442 40.8408H33.3563C33.6691 40.8408 33.924 40.5888 33.9262 40.2759C33.9439 37.779 33.8666 35.7464 33.1361 33.7135C32.6543 32.416 31.9086 31.1183 30.7355 29.693Z" fill="#CEDBE8"/>
<path fill-rule="evenodd" clip-rule="evenodd" d="M30.75 15.4857C29.4906 17.0124 27.7242 18.6837 25.2678 20.6612C25.2406 20.6831 25.2146 20.7065 25.1887 20.7299L25.1781 20.7395C25.0407 20.8636 24.6372 21.228 24.1661 21.8313C23.8275 22.265 23.8277 22.9377 24.1677 23.3703C24.6303 23.9583 25.0249 24.3147 25.1616 24.4382L25.1719 24.4475C25.1987 24.4717 25.2256 24.4959 25.2538 24.5185C27.7021 26.4867 29.4678 28.1576 30.7345 29.693C31.9077 31.1183 32.6534 32.416 33.1352 33.7135C33.8657 35.7464 33.943 37.779 33.9253 40.2759C33.9231 40.5888 33.6682 40.8408 33.3554 40.8408H11.6433C11.3279 40.8408 11.0721 40.5849 11.0728 40.2695C11.0782 37.7592 11.1423 35.7285 11.8725 33.7135C12.3384 32.416 13.0766 31.1183 14.2495 29.693C15.5086 28.1663 17.2746 26.4956 19.7306 24.5185C19.7587 24.4959 19.7856 24.4716 19.8124 24.4474L19.8229 24.4379C19.9577 24.3159 20.3428 23.9676 20.7964 23.3945C21.1584 22.9369 21.1582 22.2178 20.7948 21.7618C20.3489 21.2019 19.9717 20.8612 19.8385 20.7408C19.8349 20.7376 19.8315 20.7346 19.8283 20.7317C19.8013 20.7072 19.774 20.6826 19.7455 20.6598C17.2975 18.6918 15.5316 17.021 14.265 15.4857C13.0918 14.0601 12.3461 12.7626 11.8643 11.4651C11.1341 9.43228 11.0568 7.39967 11.0745 4.90274C11.0767 4.5899 11.3315 4.33789 11.6444 4.33789L33.3562 4.33789C33.6715 4.33789 33.9274 4.5938 33.9267 4.90914C33.9213 7.41928 33.8571 9.45015 33.1269 11.4651C32.6608 12.7626 31.9229 14.0601 30.75 15.4857ZM34.0676 11.8046C34.8637 9.60688 34.9213 7.41389 34.9267 4.91128C34.9286 4.04176 34.2236 3.33789 33.3562 3.33789L11.6444 3.33789C10.7844 3.33789 10.0806 4.03095 10.0745 4.89565C10.0567 7.39995 10.1279 9.58934 10.9232 11.8032L10.9231 11.8032L10.9268 11.8132C11.4529 13.2299 12.2598 14.6228 13.4928 16.1211L13.4936 16.1221C14.8204 17.7302 16.6435 19.4492 19.119 21.4392C19.119 21.4391 19.1216 21.4413 19.1285 21.4473C19.1357 21.4536 19.144 21.4611 19.1576 21.4734L19.1679 21.4827C19.287 21.5903 19.6173 21.8885 20.0126 22.3848L20.0127 22.385C20.0853 22.4761 20.0867 22.6798 20.0122 22.774C19.6099 23.2824 19.2724 23.5875 19.1518 23.6965C19.1481 23.6999 19.1445 23.7031 19.1412 23.7061C19.1278 23.7183 19.1196 23.7257 19.1125 23.7318C19.1059 23.7376 19.1034 23.7397 19.1035 23.7396C16.6209 25.7381 14.7974 27.4569 13.478 29.0567L13.4774 29.0576C12.2436 30.5567 11.4424 31.9529 10.9319 33.3743C10.1358 35.5719 10.0782 37.7646 10.0728 40.2674C10.0709 41.1369 10.7759 41.8408 11.6433 41.8408H33.3554C34.2154 41.8408 34.9191 41.1477 34.9253 40.283C34.943 37.7787 34.8718 35.5893 34.0763 33.3754L34.0763 33.3754L34.0726 33.3654C33.5466 31.9488 32.7398 30.5556 31.5066 29.0575L30.7345 29.693L31.5059 29.0566C30.179 27.4484 28.3561 25.7293 25.8803 23.7391C25.8803 23.7392 25.8799 23.7388 25.8789 23.7379C25.8775 23.7368 25.875 23.7347 25.8712 23.7313C25.8641 23.7251 25.8559 23.7178 25.8425 23.7057C25.8392 23.7027 25.8357 23.6995 25.832 23.6962C25.7101 23.5861 25.3642 23.2738 24.9539 22.7524M34.0676 11.8046C33.5568 13.2258 32.7559 14.6216 31.5222 16.121L31.5214 16.122C30.2018 17.7218 28.378 19.4411 25.8949 21.4402L25.8949 21.4402C25.8949 21.4402 25.8925 21.4421 25.8867 21.4472L25.8594 21.4716C25.8561 21.4747 25.8525 21.4779 25.8487 21.4813C25.7264 21.5918 25.3725 21.9113 24.9543 22.4467C24.8981 22.5187 24.899 22.6823 24.9539 22.7523" fill="#688FB7"/>
<path fill-rule="evenodd" clip-rule="evenodd" d="M30.9844 39.9021C31.5492 39.9021 31.7908 39.1409 31.3484 38.7898C29.6864 37.4709 28.1235 35.9017 26.7684 34.3802C24.3422 31.6563 19.6968 31.6995 17.3907 34.5258C16.184 36.0047 14.8209 37.5319 13.4045 38.8518C13.0126 39.217 13.265 39.9021 13.8007 39.9021H30.9844ZM33.8602 40.5192C33.8556 40.5165 33.8497 40.5182 33.847 40.5229C33.7399 40.7132 33.5355 40.8417 33.3017 40.8417H11.6997C11.5256 40.8417 11.3679 40.7705 11.2544 40.6556C11.2504 40.6515 11.2439 40.6509 11.2392 40.6543C11.2335 40.6584 11.2327 40.6666 11.2376 40.6716C11.3411 40.7766 11.4851 40.8417 11.6442 40.8417H33.3563C33.5774 40.8417 33.7695 40.7159 33.8639 40.5316C33.8662 40.5271 33.8646 40.5217 33.8602 40.5192Z" fill="white"/>
<rect x="6.81152" y="0.527344" width="31.3769" height="3.88012" rx="1.42741" fill="#4098FF"/>
<rect x="6.8125" y="40.5918" width="31.3769" height="3.88012" rx="1.42741" fill="#4098FF"/>
</svg>
