<svg width="128" height="128" viewBox="0 0 128 128" fill="none" xmlns="http://www.w3.org/2000/svg">
<mask id="mask0_2810_46903" style="mask-type:alpha" maskUnits="userSpaceOnUse" x="0" y="0" width="128" height="128">
<circle cx="64" cy="64" r="64" fill="#EBF8FF"/>
</mask>
<g mask="url(#mask0_2810_46903)">
<path d="M181.138 -59.3574H-65.9234C-67.5338 -59.359 -69.1287 -59.021 -70.6169 -58.3627C-72.1052 -57.7044 -73.4576 -56.7387 -74.5968 -55.5208C-75.7361 -54.3029 -76.6398 -52.8568 -77.2564 -51.2649C-77.8731 -49.6731 -78.1904 -47.9669 -78.1904 -46.2438V109.146C-78.1904 112.627 -76.898 115.966 -74.5975 118.428C-72.297 120.889 -69.1768 122.272 -65.9234 122.272H181.138C184.391 122.272 187.512 120.889 189.812 118.428C192.113 115.966 193.405 112.627 193.405 109.146V-46.2438C193.405 -47.9669 193.088 -49.6731 192.471 -51.2649C191.854 -52.8568 190.951 -54.3029 189.811 -55.5208C188.672 -56.7387 187.32 -57.7044 185.832 -58.3627C184.343 -59.021 182.748 -59.359 181.138 -59.3574Z" fill="#223548"/>
<rect x="-51.0303" y="99.3555" width="73.5398" height="11.0336" rx="3.39494" fill="#324E6B"/>
<rect x="16.251" y="99.3555" width="162.726" height="11.0336" rx="3.39494" fill="#2A4259"/>
<rect x="-16.2324" y="8.54102" width="38.1931" height="48.378" rx="4.24368" fill="#324E6B"/>
<rect x="-15.0557" y="7.59961" width="38.1931" height="48.378" rx="4.24368" fill="#2A4259"/>
<rect x="-12.5098" y="10.1465" width="33.1007" height="43.2855" rx="2.54621" fill="#223548"/>
<path fill-rule="evenodd" clip-rule="evenodd" d="M18.8936 53.2868V10.291C19.8825 10.6406 20.591 11.5837 20.591 12.6923V50.8855C20.591 51.9941 19.8825 52.9372 18.8936 53.2868Z" fill="#324E6B"/>
<mask id="mask1_2810_46903" style="mask-type:alpha" maskUnits="userSpaceOnUse" x="-13" y="10" width="34" height="44">
<rect x="-12.5098" y="10.1465" width="33.1007" height="43.2855" rx="2.54621" fill="#EBF8FF"/>
</mask>
<g mask="url(#mask1_2810_46903)">
<path d="M7.92257 42.2477L-4.07409 44.5957L-5.59646 42.1167C-6.53547 40.5847 -7.12882 38.867 -7.33522 37.0831C-7.54163 35.2992 -7.35615 33.4918 -6.79168 31.7867C-6.22721 30.0815 -5.29729 28.5195 -4.06659 27.2092C-2.83588 25.8989 -1.33392 24.8717 0.334869 24.1992L3.99604 22.7257C8.64354 20.8537 13.3768 25.2341 11.8491 29.997L7.92257 42.2477Z" fill="#324E6B"/>
<path d="M5.78345 60.4801L1.71488 58.9424C1.2875 58.7805 0.903984 58.5211 0.59498 58.1849C0.285977 57.8487 0.0600388 57.4451 -0.0647931 57.0063L-3.49011 45.023C-3.5641 44.7652 -3.56316 44.4919 -3.48742 44.2346C-3.41168 43.9774 -3.26425 43.747 -3.06231 43.5702C-2.86036 43.3933 -2.61222 43.2774 -2.34678 43.2358C-2.08134 43.1943 -1.80954 43.2289 -1.56303 43.3355L7.94102 47.4405L8.84694 58.1749C8.87908 58.5559 8.81393 58.9389 8.65756 59.2879C8.50119 59.637 8.25871 59.9408 7.95276 60.1711C7.6468 60.4013 7.28736 60.5504 6.90801 60.6044C6.52865 60.6585 6.14175 60.6157 5.78345 60.4801Z" fill="#2A4259"/>
<path d="M8.3486 52.2797L8.1449 49.8434C7.33471 49.2917 6.46653 48.8298 5.55581 48.4662C3.01764 47.4339 0.696571 47.2494 0.369584 48.0517C0.0425971 48.854 1.83299 50.3382 4.36847 51.3704C5.9096 51.9962 7.36496 52.3091 8.3486 52.2797Z" fill="#324E6B"/>
<path d="M3.32689 31.4134L7.58217 31.6441C8.2973 31.6814 8.99802 31.8591 9.64423 32.167C10.2904 32.4749 10.8695 32.907 11.3481 33.4384C11.8268 33.9698 12.1957 34.5902 12.4338 35.2641C12.6719 35.938 12.7744 36.6521 12.7356 37.3655L12.3165 45.0614C12.2381 46.5005 11.59 47.8496 10.5148 48.8119C9.4395 49.7742 8.02515 50.2708 6.58285 50.1926L4.76567 50.0941C2.67675 49.9809 0.718472 49.0443 -0.67836 47.4904C-2.07519 45.9366 -2.79616 43.8927 -2.68266 41.8084L-2.39606 36.5452C-2.3178 35.108 -1.67125 33.7604 -0.598314 32.7983C0.474624 31.8362 1.8863 31.3381 3.32689 31.4134Z" fill="#2A4259"/>
<path d="M9.5949 38.7893L8.32984 42.0974C8.32232 42.1167 8.3197 42.1375 8.32221 42.1581C8.32472 42.1786 8.33228 42.1982 8.34422 42.2152C8.35615 42.2321 8.37209 42.2458 8.39063 42.2551C8.40916 42.2645 8.42971 42.269 8.45045 42.2685H10.5491C10.5685 42.2687 10.5877 42.2645 10.6052 42.2561C10.6227 42.2477 10.638 42.2354 10.6499 42.2201C10.6618 42.2048 10.6701 42.187 10.674 42.1681C10.6779 42.1491 10.6773 42.1295 10.6723 42.1107L9.8388 38.8054C9.83205 38.7792 9.81719 38.7558 9.79633 38.7385C9.77548 38.7213 9.7497 38.711 9.72267 38.7093C9.69564 38.7075 9.66873 38.7143 9.64579 38.7286C9.62285 38.743 9.60504 38.7643 9.5949 38.7893Z" fill="#324E6B"/>
<path d="M-3.02122 41.2027L-4.85449 40.4593L0.130716 34.0625L-0.475016 37.3358C-0.709961 38.6144 -1.21823 39.8275 -1.96522 40.8925C-2.07987 41.0561 -2.24685 41.1759 -2.43875 41.2323C-2.63064 41.2886 -2.83604 41.2782 -3.02122 41.2027Z" fill="#324E6B"/>
<path d="M7.16534 35.3562C12.6909 34.598 16.8936 31.9765 16.5524 29.5008C16.2112 27.0251 11.4553 25.6327 5.92972 26.3909C0.404161 27.1491 -3.79859 29.7706 -3.45738 32.2463C-3.11617 34.722 1.63979 36.1144 7.16534 35.3562Z" fill="#324E6B"/>
<path d="M0.0435352 34.032L-3.35938 32.6484L-4.9412 36.5217L-1.53829 37.9053L0.0435352 34.032Z" fill="#324E6B"/>
<path d="M-0.151406 27.4657C2.2074 25.0572 3.59263 22.591 2.94261 21.9572C2.29258 21.3234 -0.14656 22.762 -2.50537 25.1704C-4.86417 27.5788 -6.24942 30.0451 -5.59939 30.6789C-4.94936 31.3127 -2.51021 29.8741 -0.151406 27.4657Z" fill="#324E6B"/>
</g>
<rect width="37.5566" height="5.72897" rx="2.54621" transform="matrix(-1 0 0 1 61.1357 93.375)" fill="#0070F3"/>
<path d="M51.5681 97.503L49.0413 93.375H139.432V97.08C139.432 97.3467 139.386 97.6108 139.297 97.8571C139.208 98.1035 139.077 98.3271 138.912 98.5152C138.748 98.7033 138.553 98.8521 138.338 98.9532C138.123 99.0542 137.893 99.1054 137.661 99.1039H54.2542C53.7274 99.1052 53.2082 98.9604 52.7405 98.6817C52.2729 98.403 51.8707 97.9986 51.5681 97.503Z" fill="#1782FF"/>
<path d="M100.763 35.45H14.1679C13.862 35.4415 13.5582 35.5029 13.2802 35.6295C13.0022 35.7561 12.7574 35.9445 12.5648 36.18C12.3722 36.4155 12.2371 36.6918 12.1698 36.9874C12.1026 37.283 12.1052 37.59 12.1772 37.8845L23.7032 91.7782C23.801 92.2294 24.0518 92.6339 24.414 92.9244C24.7762 93.2149 25.2278 93.3739 25.6939 93.3749H111.293C111.596 93.3822 111.897 93.3211 112.172 93.1962C112.447 93.0712 112.69 92.8857 112.882 92.6538C113.074 92.4219 113.21 92.1497 113.28 91.8579C113.349 91.5661 113.351 91.2625 113.284 90.97L102.753 37.0861C102.673 36.6233 102.428 36.2041 102.063 35.9042C101.698 35.6042 101.237 35.4432 100.763 35.45Z" fill="#4098FF"/>
<path d="M96.8194 43.9488C96.519 42.3422 95.1166 41.1777 93.4823 41.1777H70.6985C68.6607 41.1777 67.082 42.9604 67.3285 44.9833L70.379 70.021C70.5866 71.7246 72.0329 73.0053 73.749 73.0053H98.1635C100.288 73.0053 101.891 71.0753 101.501 68.9865L96.8194 43.9488Z" fill="#1782FF"/>
<path d="M24.7284 47.5742L67.9224 47.7234L84.0443 47.7831C84.5182 47.7762 84.979 47.9388 85.3436 48.2415C85.7083 48.5442 85.9529 48.9671 86.0334 49.4342L90.4991 72.8478L92.886 85.3901C92.9509 85.6846 92.948 85.9899 92.8775 86.2831C92.8071 86.5763 92.6709 86.8497 92.4793 87.0825C92.2877 87.3153 92.0457 87.5015 91.7715 87.6271C91.4974 87.7526 91.1983 87.8141 90.8969 87.8071H31.3821C30.9085 87.8014 30.4514 87.6318 30.0888 87.3272C29.7261 87.0225 29.4803 86.6016 29.3929 86.1361L22.7393 49.9812C22.6856 49.6886 22.6965 49.3877 22.7715 49.0997C22.8464 48.8117 22.9835 48.5436 23.173 48.3142C23.3626 48.0848 23.6001 47.8997 23.8687 47.7719C24.1374 47.6441 24.4309 47.5766 24.7284 47.5742Z" fill="#CEDBE8"/>
<path d="M56.8948 50.7281C54.8005 50.6979 52.723 51.1064 50.7955 51.9277C48.871 52.7595 47.1415 53.9853 45.7181 55.5264C44.3053 57.0871 43.2351 58.9274 42.5766 60.9284C41.9187 62.9292 41.6901 65.0467 41.906 67.1421C42.7043 76.1468 50.6877 83.4921 59.6811 83.4921C61.7743 83.5243 63.8509 83.1156 65.7764 82.2925C67.7006 81.4694 69.4306 80.2501 70.8538 78.7138C72.2692 77.1543 73.3409 75.3137 73.9993 73.3118C74.6573 71.3097 74.8858 69.1909 74.6699 67.0941C73.8835 58.0534 65.9281 50.7281 56.8948 50.7281ZM70.2471 78.1181C68.9042 79.5689 67.2724 80.7213 65.4571 81.5008C63.637 82.2773 61.675 82.6641 59.697 82.6364C51.0989 82.6364 43.4987 75.647 42.7443 67.0421C42.5402 65.0743 42.751 63.0854 43.363 61.2043C43.9819 59.3107 44.991 57.5684 46.3248 56.0902C47.6671 54.6396 49.2992 53.4884 51.1149 52.7114C52.9328 51.9328 54.894 51.5459 56.8709 51.5758C65.465 51.5758 73.0732 58.5613 73.8237 67.1501C74.0301 69.1317 73.8165 71.1347 73.197 73.0279C72.5811 74.9218 71.5717 76.6634 70.2351 78.1381L70.2471 78.1181Z" fill="#F58B00"/>
<path d="M57.1021 53.6836C49.7414 53.6836 44.2449 59.7134 44.8915 67.0907C45.5382 74.468 52.0766 80.4978 59.4452 80.4978C66.8139 80.4978 72.3025 74.464 71.6598 67.0907C71.0172 59.7174 64.4628 53.6836 57.1021 53.6836ZM64.2872 64.0038L56.9584 72.0488C56.8376 72.1757 56.6924 72.2768 56.5315 72.3458C56.3706 72.4148 56.1974 72.4504 56.0224 72.4504C55.8473 72.4504 55.6741 72.4148 55.5132 72.3458C55.3523 72.2768 55.2071 72.1757 55.0863 72.0488L52.1764 69.3698C52.0396 69.2593 51.9264 69.1223 51.8436 68.9669C51.7608 68.8116 51.71 68.6412 51.6944 68.4658C51.6787 68.2904 51.6985 68.1137 51.7525 67.9461C51.8065 67.7786 51.8937 67.6236 52.0087 67.4905C52.1299 67.3635 52.2754 67.2624 52.4367 67.1934C52.5979 67.1243 52.7714 67.0887 52.9468 67.0887C53.1221 67.0887 53.2957 67.1243 53.4569 67.1934C53.6181 67.2624 53.7637 67.3635 53.8848 67.4905L55.7769 69.2339L62.2514 62.1285C62.3722 62.0016 62.5174 61.9006 62.6783 61.8316C62.8392 61.7625 63.0124 61.7269 63.1875 61.7269C63.3625 61.7269 63.5357 61.7625 63.6966 61.8316C63.8575 61.9006 64.0027 62.0016 64.1235 62.1285C64.2605 62.2384 64.3739 62.3748 64.457 62.5297C64.5402 62.6845 64.5913 62.8545 64.6073 63.0296C64.6233 63.2047 64.6039 63.3812 64.5503 63.5486C64.4967 63.7159 64.4099 63.8708 64.2952 64.0038H64.2872Z" fill="#00A800"/>
</g>
</svg>
