<svg width="128" height="128" viewBox="0 0 128 128" fill="none" xmlns="http://www.w3.org/2000/svg">
<g clip-path="url(#clip0_4211_44363)">
<path d="M47.7816 21.5328C45.0109 22.8941 10.1151 51.1926 10.1151 51.1926C8.45708 52.7938 8.06424 55.2965 9.82777 56.8234L71.5208 107.926C71.6961 108.077 71.8797 108.228 72.0633 108.363C73.4012 109.356 74.7467 109.885 76.2848 109.987C77.1834 110.046 78.0734 109.843 78.9371 109.588L84.5571 107.926L54.0279 21.1793C54.0279 21.1793 50.5523 20.1716 47.7816 21.5328Z" fill="#101619"/>
<path d="M83.5616 99.4199L76.6432 96.2308L14.3853 45.1406L14.3613 49.2128C14.3613 50.7397 15.0236 52.1951 16.1887 53.1893L76.6352 104.645L78.2951 106.061C80.0746 107.58 82.3568 108.192 84.5512 107.914V102.06L83.5536 99.4199H83.5616Z" fill="#9B015D"/>
<path d="M89.4202 98.1636L84.5684 102.069V107.922C86.0924 107.731 87.5767 107.111 88.8136 106.045L89.4279 105.52L120.844 78.5198C122.009 77.5177 122.68 76.0623 122.672 74.5354V71.4258L89.4202 98.1716V98.1636Z" fill="#D094B0"/>
<path d="M91.5259 100.97C87.7915 104.159 81.623 104.159 77.8407 100.97L16.4445 49.1796C13.3085 46.5313 13.8112 42.2764 17.5138 39.6918L46.2328 19.6741C49.6404 17.2961 54.9389 17.2961 58.1068 19.6741L119.615 65.9286C123.389 68.7679 123.74 73.4362 120.333 76.347L91.534 100.97H91.5259Z" fill="#FA4F96"/>
<path d="M48.3075 22.1439L41.9651 26.5878L45.2477 29.147C46.0319 29.7599 45.9704 30.7483 45.1018 31.369L33.6699 39.4754C32.7705 40.1113 31.4097 40.1113 30.6256 39.4754L27.3505 36.8167L20.6391 41.5135C17.8945 43.4368 17.5332 46.5781 19.8626 48.532L79.0203 98.2202C81.8187 100.573 86.3622 100.573 89.1297 98.2202L116.883 74.5983C119.412 72.4451 119.166 68.9972 116.375 66.8903L57.11 22.1439C54.7651 20.3739 50.8368 20.3739 48.3075 22.1439Z" fill="#D5DADD"/>
<path d="M74.2299 71.1491L74.1938 71.1875C73.7637 71.647 73.1397 71.8535 72.5068 71.8003L59.6055 70.6155C58.4509 70.5054 57.6007 69.4944 57.7108 68.3401C57.8206 67.1856 58.8319 66.3354 59.9861 66.4455L70.3372 67.3998L67.705 40.7612C67.5926 39.6143 68.43 38.5656 69.596 38.4711C70.7431 38.3586 71.7918 39.196 71.8862 40.3621L74.7698 69.535C74.8267 70.127 74.624 70.7276 74.2118 71.1683L74.2299 71.1491Z" fill="#0899A7"/>
</g>
<defs>
<clipPath id="clip0_4211_44363">
<rect width="128" height="128" fill="white"/>
</clipPath>
</defs>
</svg>
