<svg width="320" height="240" viewBox="0 0 320 240" fill="none" xmlns="http://www.w3.org/2000/svg">
<rect y="51" width="320" height="138" rx="24" fill="#89D1FF"/>
<path d="M238.901 170.097L178.861 150.137C178.733 150.097 178.598 150.081 178.47 150.105L93.4533 163.088C89.6335 163.526 89.2747 164.595 90.431 165.161L150.583 185.584C152.928 186.381 155.432 186.573 157.872 186.134L235.504 171.891C239.037 171.421 239.738 170.368 238.909 170.097H238.901Z" fill="#1B90FF"/>
<path d="M90.4469 44.8569L115.854 144.929C116.253 146.373 117.648 147.306 119.131 147.115L199.132 134.379C203.757 133.207 205.081 129.475 204.69 128.295L165.464 34.6495C164.778 32.7595 163.542 31.9381 162.194 32.0259L94.0913 35.1838C92.1934 35.3034 88.3815 38.0387 90.4469 44.8569Z" fill="#00144A"/>
<path d="M91.4198 38.9539L117.736 142.32C118.135 143.763 119.53 144.696 121.013 144.505L202.003 131.642C203.893 131.395 205.081 129.473 204.451 127.671L173.948 31.5774C173.502 30.3095 172.266 29.4881 170.926 29.5678L94.1232 35.158C92.2253 35.2776 90.9095 37.1118 91.4198 38.9539Z" fill="#56BDFF"/>
<path d="M120.838 55.8294L151.939 168.685C152.385 170.312 153.964 171.365 155.647 171.149L246.533 154.594C251.756 153.27 253.247 149.06 252.538 147.026L205.871 43.5645C205.368 42.1291 203.973 41.2041 202.457 41.2998L124.945 44.9122C122.8 45.0478 118.493 48.1339 120.83 55.8373L120.838 55.8294Z" fill="#00144A"/>
<path d="M121.931 49.1591L154.06 165.739C154.507 167.366 156.086 168.418 157.768 168.203L249.771 151.504C251.908 151.225 253.247 149.056 252.538 147.023L215.456 40.0841C214.954 38.6486 213.558 37.7236 212.043 37.8193L124.985 44.8768C122.84 45.0123 121.356 47.0857 121.931 49.1591Z" fill="white"/>
<path d="M162.852 161.767C162.479 161.767 162.146 161.497 162.075 161.117C161.995 160.689 162.281 160.269 162.709 160.189L167.386 159.317C167.822 159.238 168.235 159.523 168.314 159.952C168.393 160.38 168.108 160.8 167.68 160.879L163.002 161.751C162.955 161.759 162.907 161.767 162.86 161.767H162.852ZM158.587 160.657C158.333 160.657 158.079 160.53 157.929 160.3C157.699 159.96 157.532 159.587 157.421 159.191L156.414 155.544C156.295 155.124 156.549 154.688 156.969 154.569C157.389 154.45 157.826 154.703 157.944 155.124L158.951 158.77C159.015 159.008 159.118 159.23 159.253 159.428C159.498 159.793 159.395 160.285 159.031 160.53C158.896 160.618 158.745 160.665 158.594 160.665L158.587 160.657ZM172.198 160.015C171.826 160.015 171.493 159.745 171.422 159.365C171.342 158.937 171.628 158.517 172.056 158.437L176.733 157.565C177.169 157.486 177.581 157.771 177.661 158.2C177.74 158.628 177.454 159.048 177.026 159.127L172.349 159.999C172.301 160.007 172.254 160.015 172.206 160.015H172.198ZM181.553 158.271C181.18 158.271 180.848 158.001 180.776 157.621C180.697 157.193 180.982 156.773 181.41 156.693L186.088 155.821C186.524 155.742 186.936 156.027 187.015 156.455C187.095 156.884 186.809 157.304 186.381 157.383L181.704 158.255C181.656 158.263 181.609 158.271 181.561 158.271H181.553ZM190.908 156.527C190.535 156.527 190.202 156.257 190.131 155.877C190.052 155.449 190.337 155.028 190.765 154.949L195.442 154.077C195.878 154.006 196.291 154.283 196.37 154.711C196.449 155.139 196.164 155.56 195.736 155.639L191.058 156.511C191.011 156.519 190.963 156.527 190.916 156.527H190.908ZM200.255 154.783C199.882 154.783 199.549 154.513 199.478 154.133C199.398 153.705 199.684 153.284 200.112 153.205L204.789 152.333C205.217 152.262 205.637 152.539 205.717 152.967C205.796 153.395 205.511 153.816 205.082 153.895L200.405 154.767C200.358 154.775 200.31 154.783 200.262 154.783H200.255ZM209.609 153.039C209.237 153.039 208.904 152.769 208.832 152.389C208.753 151.96 209.038 151.54 209.466 151.461L214.144 150.589C214.58 150.518 214.992 150.795 215.071 151.223C215.151 151.651 214.865 152.071 214.437 152.151L209.76 153.023C209.712 153.031 209.665 153.039 209.617 153.039H209.609ZM155.915 151.54C155.566 151.54 155.249 151.31 155.154 150.962L153.893 146.371C153.774 145.951 154.028 145.515 154.448 145.396C154.868 145.277 155.305 145.531 155.423 145.951L156.684 150.541C156.803 150.962 156.549 151.398 156.129 151.517C156.058 151.532 155.986 151.548 155.915 151.548V151.54ZM218.956 151.287C218.583 151.287 218.25 151.017 218.179 150.637C218.1 150.208 218.385 149.788 218.813 149.709L223.491 148.837C223.927 148.766 224.339 149.043 224.418 149.471C224.497 149.899 224.212 150.319 223.784 150.399L219.107 151.271C219.059 151.279 219.011 151.287 218.964 151.287H218.956ZM228.311 149.543C227.938 149.543 227.605 149.273 227.534 148.892C227.454 148.464 227.74 148.044 228.168 147.965L232.845 147.093C233.281 147.022 233.694 147.299 233.773 147.727C233.852 148.155 233.567 148.575 233.139 148.655L228.461 149.527C228.414 149.535 228.366 149.543 228.319 149.543H228.311ZM237.665 147.798C237.293 147.798 236.96 147.529 236.888 147.148C236.809 146.72 237.095 146.3 237.523 146.221L242.2 145.349C242.636 145.277 243.048 145.555 243.127 145.983C243.207 146.411 242.921 146.831 242.493 146.911L237.816 147.783C237.768 147.791 237.721 147.798 237.673 147.798H237.665ZM245.268 143.755C244.84 143.755 244.483 143.414 244.475 142.978C244.475 142.741 244.428 142.503 244.348 142.273L243.104 138.69C242.961 138.277 243.175 137.825 243.595 137.683C244.007 137.532 244.459 137.754 244.602 138.174L245.847 141.758C245.981 142.146 246.053 142.542 246.061 142.947C246.069 143.383 245.728 143.747 245.284 143.755H245.268ZM153.394 142.368C153.045 142.368 152.728 142.138 152.633 141.789L151.372 137.199C151.253 136.779 151.507 136.343 151.927 136.224C152.347 136.105 152.784 136.359 152.902 136.779L154.163 141.369C154.282 141.789 154.028 142.225 153.608 142.344C153.537 142.36 153.465 142.376 153.394 142.376V142.368ZM242.287 134.734C241.962 134.734 241.653 134.527 241.542 134.202L239.98 129.707C239.837 129.295 240.052 128.843 240.472 128.701C240.884 128.558 241.336 128.772 241.479 129.192L243.04 133.687C243.183 134.099 242.969 134.551 242.549 134.694C242.462 134.726 242.374 134.742 242.287 134.742V134.734ZM150.865 133.196C150.516 133.196 150.199 132.966 150.104 132.617L148.843 128.035C148.725 127.615 148.978 127.179 149.398 127.06C149.819 126.941 150.255 127.194 150.373 127.615L151.634 132.197C151.753 132.617 151.499 133.053 151.079 133.172C151.008 133.188 150.936 133.204 150.865 133.204V133.196ZM239.164 125.752C238.839 125.752 238.529 125.545 238.418 125.22L236.857 120.725C236.714 120.313 236.928 119.861 237.348 119.719C237.76 119.568 238.212 119.79 238.355 120.21L239.917 124.705C240.059 125.117 239.845 125.569 239.425 125.712C239.338 125.744 239.251 125.759 239.164 125.759V125.752ZM148.344 124.023C147.995 124.023 147.678 123.793 147.583 123.445L146.322 118.862C146.204 118.442 146.457 118.006 146.877 117.887C147.298 117.768 147.734 118.022 147.852 118.442L149.113 123.024C149.232 123.445 148.978 123.881 148.558 124C148.487 124.015 148.415 124.031 148.344 124.031V124.023ZM236.04 116.762C235.715 116.762 235.406 116.555 235.295 116.23L233.733 111.735C233.59 111.323 233.805 110.871 234.225 110.729C234.637 110.586 235.089 110.8 235.232 111.22L236.793 115.715C236.936 116.127 236.722 116.579 236.302 116.722C236.215 116.754 236.127 116.769 236.04 116.769V116.762ZM145.815 114.851C145.466 114.851 145.149 114.621 145.054 114.272L143.793 109.682C143.675 109.262 143.928 108.826 144.348 108.707C144.769 108.588 145.205 108.842 145.324 109.262L146.584 113.852C146.703 114.272 146.449 114.708 146.029 114.827C145.958 114.843 145.886 114.859 145.815 114.859V114.851ZM232.925 107.779C232.6 107.779 232.29 107.573 232.179 107.248L230.618 102.753C230.475 102.341 230.689 101.889 231.109 101.746C231.521 101.604 231.973 101.818 232.116 102.238L233.678 106.733C233.82 107.145 233.606 107.597 233.186 107.74C233.099 107.772 233.012 107.787 232.925 107.787V107.779ZM143.294 105.679C142.945 105.679 142.628 105.449 142.533 105.1L141.272 100.51C141.154 100.09 141.407 99.6536 141.827 99.5347C142.248 99.4157 142.684 99.6694 142.803 100.09L144.063 104.68C144.182 105.1 143.928 105.536 143.508 105.655C143.437 105.671 143.365 105.687 143.294 105.687V105.679ZM229.801 98.7894C229.476 98.7894 229.167 98.5833 229.056 98.2583L227.494 93.7633C227.351 93.3511 227.565 92.8992 227.986 92.7565C228.398 92.6138 228.85 92.8278 228.992 93.248L230.554 97.743C230.697 98.1552 230.483 98.6071 230.063 98.7498C229.975 98.7815 229.888 98.7974 229.801 98.7974V98.7894ZM140.765 96.5063C140.416 96.5063 140.099 96.2764 140.004 95.9276L138.744 91.3374C138.625 90.9173 138.878 90.4812 139.298 90.3623C139.719 90.2434 140.155 90.4971 140.274 90.9172L141.534 95.5074C141.653 95.9276 141.399 96.3636 140.979 96.4825C140.908 96.4983 140.836 96.5142 140.765 96.5142V96.5063ZM226.678 89.8074C226.352 89.8074 226.043 89.6013 225.932 89.2762L224.371 84.7812C224.228 84.369 224.442 83.9171 224.862 83.7744C225.274 83.6317 225.726 83.8457 225.869 84.2659L227.431 88.7609C227.573 89.1732 227.359 89.625 226.939 89.7677C226.852 89.7994 226.765 89.8153 226.678 89.8153V89.8074ZM138.244 87.3339C137.895 87.3339 137.578 87.104 137.483 86.7552L136.223 82.173C136.104 81.7528 136.357 81.3168 136.777 81.1979C137.198 81.079 137.634 81.3327 137.753 81.7528L139.013 86.335C139.132 86.7552 138.878 87.1912 138.458 87.3102C138.387 87.326 138.315 87.3419 138.244 87.3419V87.3339ZM223.554 80.8174C223.229 80.8174 222.92 80.6113 222.809 80.2862L221.247 75.7912C221.104 75.379 221.318 74.9271 221.739 74.7844C222.151 74.6417 222.603 74.8557 222.745 75.2759L224.307 79.7709C224.45 80.1832 224.236 80.635 223.816 80.7777C223.728 80.8094 223.641 80.8253 223.554 80.8253V80.8174ZM135.715 78.1616C135.366 78.1616 135.049 77.9317 134.954 77.5829L133.694 72.9927C133.575 72.5726 133.828 72.1365 134.249 72.0176C134.669 71.8987 135.105 72.1524 135.224 72.5726L136.484 77.1627C136.603 77.5829 136.349 78.0189 135.929 78.1378C135.858 78.1537 135.787 78.1695 135.715 78.1695V78.1616ZM220.43 71.8274C220.105 71.8274 219.796 71.6212 219.685 71.2962L218.124 66.8012C217.981 66.389 218.195 65.9371 218.615 65.7944C219.027 65.6517 219.479 65.8657 219.622 66.2859L221.184 70.7809C221.326 71.1932 221.112 71.645 220.692 71.7877C220.605 71.8194 220.518 71.8353 220.43 71.8353V71.8274ZM133.194 68.9893C132.845 68.9893 132.528 68.7594 132.433 68.4105L131.173 63.8204C131.054 63.4002 131.307 62.9642 131.728 62.8453C132.148 62.7264 132.584 62.9801 132.703 63.4002L133.963 67.9904C134.082 68.4105 133.828 68.8466 133.408 68.9655C133.337 68.9813 133.266 68.9972 133.194 68.9972V68.9893ZM217.307 62.8453C216.982 62.8453 216.673 62.6392 216.562 62.3141L215 57.8191C214.857 57.4069 215.071 56.955 215.492 56.8123C215.904 56.6696 216.356 56.8837 216.498 57.3038L218.06 61.7988C218.203 62.2111 217.989 62.663 217.569 62.8057C217.481 62.8374 217.394 62.8532 217.307 62.8532V62.8453ZM130.665 59.8169C130.316 59.8169 129.999 59.587 129.904 59.2382L128.644 54.6481C128.525 54.2279 128.778 53.7919 129.199 53.673C129.619 53.554 130.055 53.8077 130.174 54.2279L131.434 58.818C131.553 59.2382 131.299 59.6742 130.879 59.7931C130.808 59.809 130.737 59.8248 130.665 59.8248V59.8169ZM214.191 53.8553C213.866 53.8553 213.557 53.6492 213.446 53.3241L211.884 48.8291C211.742 48.4169 211.956 47.965 212.376 47.8223C212.788 47.6796 213.24 47.8937 213.383 48.3138L214.945 52.8088C215.087 53.2211 214.873 53.673 214.453 53.8157C214.366 53.8474 214.279 53.8632 214.191 53.8632V53.8553ZM130.11 52.3252C129.92 52.3252 129.722 52.2539 129.571 52.1191C129.246 51.8258 129.23 51.3184 129.524 51.0013C130.205 50.264 131.125 49.828 132.132 49.7646L134.51 49.5664C134.962 49.5268 135.327 49.8518 135.366 50.2878C135.406 50.7239 135.081 51.1044 134.645 51.144L132.251 51.3422C131.64 51.3819 131.093 51.6435 130.697 52.0795C130.538 52.246 130.324 52.3332 130.11 52.3332V52.3252ZM139.314 50.7476C138.91 50.7476 138.561 50.4385 138.522 50.0183C138.482 49.5823 138.807 49.2017 139.243 49.1621L143.984 48.7657C144.42 48.7102 144.8 49.0511 144.84 49.4871C144.88 49.9232 144.555 50.3037 144.119 50.3433L139.378 50.7397C139.378 50.7397 139.33 50.7397 139.314 50.7397V50.7476ZM148.796 49.9549C148.392 49.9549 148.043 49.6457 148.003 49.2255C147.963 48.7895 148.289 48.409 148.725 48.3693L153.465 47.9729C153.909 47.9254 154.282 48.2583 154.321 48.6944C154.361 49.1304 154.036 49.5109 153.6 49.5506L148.859 49.9469C148.859 49.9469 148.812 49.9469 148.796 49.9469V49.9549ZM158.277 49.17C157.873 49.17 157.524 48.8608 157.485 48.4407C157.445 48.0047 157.77 47.6241 158.206 47.5845L162.947 47.1881C163.391 47.1485 163.763 47.4735 163.803 47.9095C163.843 48.3455 163.518 48.7261 163.082 48.7657L158.341 49.1621C158.341 49.1621 158.293 49.1621 158.277 49.1621V49.17ZM167.759 48.3773C167.355 48.3773 167.006 48.0681 166.966 47.6479C166.927 47.2119 167.252 46.8314 167.688 46.7917L172.428 46.3953C172.872 46.3478 173.245 46.6807 173.285 47.1168C173.324 47.5528 172.999 47.9333 172.563 47.9729L167.822 48.3693C167.822 48.3693 167.775 48.3693 167.759 48.3693V48.3773ZM177.24 47.5924C176.836 47.5924 176.487 47.2832 176.448 46.8631C176.408 46.427 176.733 46.0465 177.169 46.0069L181.91 45.6105C182.362 45.5709 182.726 45.8959 182.766 46.3319C182.806 46.7679 182.481 47.1485 182.045 47.1881L177.304 47.5845C177.304 47.5845 177.256 47.5845 177.24 47.5845V47.5924ZM186.722 46.8076C186.318 46.8076 185.969 46.4984 185.929 46.0782C185.89 45.6422 186.215 45.2617 186.651 45.222L191.391 44.8257C191.827 44.7702 192.208 45.111 192.248 45.5471C192.287 45.9831 191.962 46.3636 191.526 46.4033L186.785 46.7996C186.785 46.7996 186.738 46.7996 186.722 46.7996V46.8076ZM196.196 46.0148C195.791 46.0148 195.442 45.7056 195.403 45.2855C195.363 44.8494 195.688 44.4689 196.124 44.4293L200.865 44.0329C201.309 43.9853 201.682 44.3183 201.721 44.7543C201.761 45.1903 201.436 45.5709 201 45.6105L196.259 46.0069C196.259 46.0069 196.211 46.0069 196.196 46.0069V46.0148ZM210.362 45.333C210.235 45.333 210.109 45.3013 209.99 45.2379C209.657 45.0635 209.284 44.9684 208.912 44.9684H208.753L205.748 45.222C205.304 45.2617 204.932 44.9366 204.892 44.5006C204.853 44.0646 205.178 43.6841 205.614 43.6444L208.65 43.3907C208.753 43.3907 208.832 43.3828 208.912 43.3828C209.546 43.3828 210.18 43.5414 210.743 43.8426C211.131 44.0487 211.274 44.5323 211.068 44.9129C210.925 45.1824 210.648 45.333 210.37 45.333H210.362Z" fill="#1B90FF"/>
<path d="M194.932 69L155.174 73.3154C154.326 73.4061 153.819 74.0022 154.06 74.6631L157.099 83.242C157.327 83.9029 158.213 84.3436 159.061 84.2528L198.92 79.6264C199.718 79.5357 200.187 78.9396 199.946 78.3046L196.819 69.9978C196.578 69.3629 195.742 68.9352 194.945 69.013L194.932 69Z" fill="#DBF1FF"/>
<path d="M201.136 85.5117L161.214 90.3195C160.365 90.4232 159.859 91.0452 160.099 91.7062L163.189 100.441C163.429 101.101 164.316 101.555 165.164 101.451L205.188 96.3196C205.998 96.2159 206.454 95.6068 206.213 94.9589L203.035 86.5096C202.795 85.8746 201.946 85.434 201.149 85.5247L201.136 85.5117Z" fill="#DBF1FF"/>
<path d="M207.441 102.292L167.354 107.619C166.493 107.735 165.999 108.37 166.24 109.044L169.392 117.921C169.633 118.595 170.519 119.049 171.38 118.932L211.569 113.269C212.379 113.152 212.835 112.53 212.582 111.869L209.34 103.277C209.1 102.629 208.239 102.189 207.441 102.292Z" fill="#DBF1FF"/>
<path d="M213.86 119.347L173.621 125.204C172.76 125.334 172.267 125.982 172.507 126.669L175.711 135.701C175.951 136.388 176.85 136.842 177.711 136.712L218.064 130.505C218.874 130.375 219.33 129.74 219.077 129.066L215.785 120.332C215.532 119.671 214.683 119.23 213.86 119.347Z" fill="#DBF1FF"/>
<path d="M186.979 127.718L186.897 127.737C185.968 128.199 184.939 128.023 184.054 127.44L165.73 114.719C164.066 113.548 163.494 111.107 164.493 109.24C165.498 107.395 167.63 106.826 169.272 108.001L183.83 118.241L196.994 74.1173C197.534 72.3156 199.284 71.4838 200.897 72.3362C202.475 73.1309 203.384 75.251 202.843 77.0527L188.831 125.43C188.528 126.471 187.836 127.317 186.963 127.743L187.004 127.734L186.979 127.718Z" fill="#00A800"/>
<path d="M204.001 44.498C197.501 43.4963 203.001 43.9978 194.001 43.9959C194.001 43.9959 208.499 44.4136 213.998 54.5007C216.997 60.0015 217.498 53.5016 216.999 49.0015C216.501 44.5014 217 49.0015 216.501 45.5013L204.001 44.498Z" fill="#D5DADD"/>
<path d="M202.718 43.0877C202.718 43.0877 199.832 44.0594 198.641 44.0028C197.456 43.9368 192.952 44.0028 192.952 44.0028C192.952 44.0028 193.183 42.0217 195.172 42.2481C197.167 42.4745 198.104 40.8047 198.104 40.8047L202.718 43.0877Z" fill="#FFDF72"/>
<path d="M231.371 49.8195C231.371 49.8195 241.602 66.3654 240.96 67.7207C240.319 69.0761 238.827 65.53 238.827 65.53C238.827 65.53 237.275 68.4453 236.174 66.6722C235.073 64.9077 233.096 64.7628 231.362 61.3786C229.637 57.9944 226.828 51.7119 224.686 50.1179C222.553 48.5153 219.267 45.4721 217.308 45.4891C215.357 45.5062 195.494 47.6032 190.352 36.8113C190.352 36.8113 189.867 35.8054 189.737 36.2658C189.537 36.9988 188.748 33.6061 188.748 33.6061L188.809 35.1491C188.809 35.294 188.627 35.3366 188.566 35.2172C188.219 34.5609 187.664 33.4357 187.656 32.9157C187.656 32.3531 187.378 32.8389 187.084 32.6088C186.962 32.5065 186.91 32.3445 186.893 32.1911C186.806 31.6455 186.953 31.0659 186.832 30.5288C186.728 30.077 186.442 29.6764 186.06 29.4121C185.982 29.361 185.913 29.3098 185.861 29.2417C185.826 29.1905 185.818 29.1223 185.8 29.0626C185.696 28.5086 185.679 27.9374 185.766 27.3748C185.8 27.1106 185.87 26.8378 185.835 26.5735C185.8 26.2837 185.662 26.0109 185.575 25.7381C185.401 25.184 185.428 24.5788 185.575 24.0162C185.774 23.2064 186.173 22.4903 186.347 21.672C186.451 21.152 186.485 20.615 186.537 20.0865C186.641 19.1317 187.049 18.6203 188.011 18.4072C188.159 18.3731 188.297 18.356 188.453 18.3304C191.263 17.9298 187.396 13.8978 187.396 13.8978C187.396 13.8978 184.292 9.5418 189.364 3.84751C194.028 -1.38647 206.652 -2.3412 211.993 8.57002C212.903 10.4369 214.412 11.9627 216.293 12.8493C218.574 13.9233 221.504 15.8072 222.874 18.7652C224.157 21.5527 224.964 23.0018 225.432 23.7349C225.579 23.9651 225.345 24.2464 225.094 24.1441L224.452 23.9054L226.412 28.2954C226.516 28.5256 226.281 28.7643 226.039 28.662L224.99 28.2102C224.99 28.2102 229.845 35.0979 229.489 36.871C229.255 38.0303 228.466 36.7943 228.466 36.7943C228.466 36.7943 230.885 41.423 232.255 42.6761C233.625 43.9292 237.397 47.3645 236.98 48.4641C236.564 49.5638 229.897 45.4806 229.897 45.4806L233.001 50.689L231.362 49.828L231.371 49.8195Z" fill="#0040B0"/>
<path d="M188.598 16.1964C190.263 17.6612 196.814 18.6737 199.881 18.9968L216.093 12.6418C215.18 12.4264 213.206 11.0132 211.492 7.58004C208.817 2.21918 203.167 -0.712772 196.923 0.148829C190.679 1.01043 187.939 4.42865 186.843 7.26298C185.753 10.0838 186.517 14.3654 188.598 16.1964Z" fill="#0070F2"/>
<path d="M229.897 45.4647C226.031 45.4733 222.458 44.4077 219.276 42.4983C215.044 40.4959 212.185 38.4207 208.682 36.1958C206.558 34.8489 204.196 33.007 202.497 31.1572C200.295 28.7619 198.976 24.8869 198.256 21.767C197.727 19.4654 198.217 16.2005 200.696 15.0071C200.8 14.956 201.277 14.6832 201.373 14.7429C204.338 16.4733 202.56 20.8037 203.687 21.767C204.19 22.1846 206.289 27.9983 211.811 29.2599C215.002 29.993 232.793 45.4477 229.906 45.4562L229.897 45.4647Z" fill="#00144A"/>
<path d="M223.878 37.5514C222.788 38.6232 219.155 34.7651 217.847 33.3367L205.763 25.9891L201.885 17.4091L211.486 12.7227C213.073 12.884 216.491 13.2843 217.463 13.5942C218.678 13.9816 220.812 15.5963 221.962 16.9846C223.111 18.3729 225.829 23.9935 225.729 24.3858C225.649 24.6997 224.914 24.2551 224.557 23.9935C225.247 25.4314 226.621 28.415 226.601 28.8464C226.581 29.2778 225.612 28.6666 225.131 28.3071C225.621 28.8953 226.895 30.6403 228.072 32.9148C229.543 35.7578 229.668 36.4441 229.393 37.1794C229.174 37.7676 228.531 37.1961 228.237 36.8368C227.147 36.7177 224.75 36.6939 223.878 37.5514Z" fill="#0070F2"/>
<path fill-rule="evenodd" clip-rule="evenodd" d="M209.234 12.4863C208.419 13.3132 207.301 13.782 206.13 13.8161C202.732 13.9184 196.862 14.9328 199.81 21.1556C203.85 29.6971 213.257 38.1362 229.904 45.4672C229.904 45.4672 236.424 49.7805 236.988 48.4507C236.988 47.2232 236.129 46.294 234.395 44.4016C233.372 43.2849 232.037 41.8272 230.398 39.7814C229.453 38.3237 227.919 36.0136 227.286 35.2464C226.384 34.1468 219.439 26.5516 222.075 31.3849C222.101 31.4275 222.127 31.4616 222.153 31.5042C222.933 32.7658 224.26 34.9225 222.907 35.5874C221.884 36.0989 220.748 35.3317 219.916 34.7009C217.931 32.8852 215.798 31.0951 213.76 29.3902C206.668 23.4487 200.738 18.4875 206.13 16.4416C209.876 16.1433 211.02 15.1033 211.905 14.302C212.772 13.5092 213.396 12.9466 216.006 13.5348C218.009 13.9866 218.85 14.2594 220.081 15.1885C218.746 13.9269 217.766 13.4496 216.769 12.9637C215.936 12.5545 215.095 12.1453 214.012 11.2673C212.529 10.7644 210.544 11.148 209.234 12.4778V12.4863Z" fill="#0070F2"/>
<path d="M185.585 25.7224C185.411 25.1683 185.437 24.5631 185.585 24.0005C185.784 23.1907 186.183 22.4746 186.356 21.6563C186.46 21.1363 186.495 20.5993 186.547 20.0707C186.651 19.116 187.059 18.6045 188.021 18.3914C188.099 18.3744 188.177 18.3573 188.255 18.3488C188.272 18.3744 188.359 18.3829 188.472 18.3744L188.983 15.9449L193.778 12.7057C193.995 12.7568 194.212 12.7909 194.437 12.7909C195.798 12.7909 196.925 11.7765 197.09 10.4723L202.405 6.875C202.405 6.875 195.209 18.4937 191.411 18.8091C190.622 18.8773 190.032 18.9114 189.59 18.9114C189.087 18.9114 188.741 19.3973 188.879 19.8747C191.411 21.1363 190.847 23.9323 191.272 26.7624C191.402 27.6404 191.784 28.5099 192.113 29.3282C192.573 30.4705 193.119 31.5787 193.778 32.6272C197.315 38.2533 199.526 35.2612 203.176 37.9208C204.668 39.0034 205.24 41.484 206.974 42.1318C208.526 42.72 210.485 43.3423 212.141 43.3935C215.193 43.4872 218.453 41.3561 220.985 43.3935C225.554 46.0275 227.704 50.1959 230.097 54.6968C231.441 57.22 232.889 60.8599 234.953 62.9484C235.49 63.4854 236.262 62.113 235.776 60.5104C236.678 61.3884 238.204 63.852 239.453 63.7923C240.493 65.8211 241.152 67.3555 240.97 67.7306C240.328 69.0859 238.837 65.5398 238.837 65.5398C238.837 65.5398 238.074 70.3902 236.149 70.9613C234.216 71.5239 231.823 65.7103 230.097 62.3261C228.372 58.9419 226.291 55.1656 223.829 50.8949C222.13 48.5678 219.294 45.4905 217.335 45.5075C215.384 45.5246 195.521 47.6215 190.379 36.8297C190.379 36.8297 189.894 35.8238 189.764 36.2841C189.564 37.0172 188.775 33.633 188.775 33.633L188.836 35.1759C188.836 35.3209 188.654 35.3635 188.593 35.2441C188.246 34.5878 187.692 33.4626 187.683 32.9426C187.683 32.38 187.397 32.8658 187.102 32.6357C186.981 32.5334 186.929 32.3714 186.903 32.218C186.816 31.6724 186.963 31.0928 186.842 30.5557C186.746 30.1039 186.452 29.7033 186.07 29.439C185.992 29.3879 185.923 29.3367 185.871 29.2686C185.836 29.2174 185.819 29.1492 185.81 29.0895C185.706 28.5355 185.689 27.9643 185.775 27.4017C185.81 27.1375 185.879 26.8647 185.845 26.6004C185.81 26.3106 185.671 26.0378 185.585 25.765H185.611L185.585 25.7224Z" fill="#00144A"/>
<path d="M190.05 14.3065L193.119 12.4311C193.509 12.6442 193.952 12.7721 194.428 12.7721C195.911 12.7721 197.099 11.5872 197.099 10.121V10.0273L202.396 6.84766C202.396 6.84766 197.463 10.3938 197.281 11.0076C197.099 11.6213 196.31 13.3006 194.376 13.0619C192.452 12.8318 192.738 14.7412 192.738 14.7412L190.033 14.298L190.05 14.3065Z" fill="#00144A"/>
<path d="M189.659 14.3596C189.659 14.3596 192.85 13.8652 192.746 14.7517C192.642 15.6382 191.463 19.8067 184.812 19.1332L186.989 17.4198L184.058 18.4854C184.058 18.4854 183.486 17.3772 185.931 15.2461C188.402 12.7911 188.471 12.74 188.783 13.5071C189.096 14.2743 189.65 14.3596 189.65 14.3596H189.659Z" fill="#FFDF72"/>
</svg>
