<svg width="45" height="45" viewBox="0 0 45 45" fill="none" xmlns="http://www.w3.org/2000/svg">
<g clip-path="url(#clip0_4413_116720)">
<path d="M40.8981 40.0847L24.4236 34.3912C24.3886 34.3798 24.3514 34.3753 24.3164 34.3821L0.988697 38.0854C-0.0594217 38.2104 -0.157888 38.5153 0.159391 38.6767L16.6645 44.5022C17.3078 44.7296 17.9949 44.7843 18.6645 44.6591L39.966 40.5964C40.9354 40.4623 41.1278 40.162 40.9003 40.0847H40.8981Z" fill="#101619"/>
<path d="M0.163653 4.36096L7.13506 32.906C7.24445 33.3176 7.62739 33.5837 8.0344 33.5293L29.9858 29.8964C31.2548 29.5621 31.6181 28.4976 31.5108 28.161L20.7475 1.44938C20.5593 0.910277 20.2201 0.676008 19.8503 0.701024L1.16363 1.60179C0.642856 1.6359 -0.403075 2.41613 0.163653 4.36096Z" fill="#00144A"/>
<path d="M0.429528 2.67883L7.6504 32.1632C7.7598 32.5748 8.14271 32.8409 8.54971 32.7864L30.7725 29.1174C31.2911 29.0469 31.617 28.4987 31.4442 27.9847L23.0746 0.574741C22.952 0.213083 22.6129 -0.0212143 22.2453 0.00151947L1.17131 1.59608C0.65053 1.63019 0.289488 2.15338 0.429528 2.67883Z" fill="#4D82B8"/>
<path d="M8.50245 7.49014L17.0362 39.6813C17.1587 40.1454 17.592 40.4457 18.0537 40.3841L42.992 35.6619C44.4251 35.2843 44.8342 34.0834 44.6397 33.5032L31.8344 3.99167C31.6967 3.58224 31.3139 3.31839 30.8979 3.34568L9.62934 4.37609C9.04072 4.41477 7.85914 5.29508 8.50025 7.49242L8.50245 7.49014Z" fill="#00144A"/>
<path d="M8.80118 5.59199L17.6172 38.8455C17.7397 39.3096 18.173 39.6096 18.6347 39.5483L43.8794 34.7851C44.4657 34.7055 44.8331 34.0868 44.6386 33.5069L34.4637 3.00342C34.3259 2.59398 33.9429 2.33011 33.5272 2.3574L9.63925 4.3705C9.05063 4.40918 8.64365 5.0006 8.80118 5.59199Z" fill="#D5DADD"/>
<path d="M20.0292 37.7095C19.9269 37.7095 19.8356 37.6328 19.816 37.5241C19.7942 37.402 19.8725 37.2822 19.99 37.2594L21.2734 37.0107C21.3931 36.9882 21.5062 37.0697 21.5279 37.1918C21.5497 37.3139 21.4714 37.4337 21.3539 37.4562L20.0705 37.705C20.0574 37.7072 20.0444 37.7095 20.0313 37.7095H20.0292ZM18.8589 37.3929C18.7892 37.3929 18.7196 37.3567 18.6783 37.2911C18.6152 37.1941 18.5695 37.0877 18.5391 36.9747L18.2628 35.9345C18.2302 35.8147 18.2998 35.6903 18.4151 35.6564C18.5304 35.6224 18.65 35.6946 18.6827 35.8147L18.9589 36.8547C18.9763 36.9225 19.0046 36.9859 19.0416 37.0423C19.109 37.1465 19.0807 37.2868 18.9807 37.3567C18.9437 37.3818 18.9024 37.3952 18.861 37.3952L18.8589 37.3929ZM22.5938 37.2098C22.4916 37.2098 22.4002 37.1328 22.3806 37.0244C22.3589 36.9023 22.4372 36.7825 22.5547 36.7597L23.8381 36.5109C23.9577 36.4884 24.0708 36.5697 24.0926 36.6921C24.1143 36.8142 24.036 36.934 23.9186 36.9565L22.6352 37.2052C22.6221 37.2075 22.6091 37.2098 22.596 37.2098H22.5938ZM25.1606 36.7123C25.0584 36.7123 24.9671 36.6353 24.9475 36.5269C24.9257 36.4048 25.004 36.285 25.1215 36.2622L26.4049 36.0135C26.5246 35.9909 26.6377 36.0722 26.6594 36.1946C26.6812 36.3167 26.6029 36.4365 26.4854 36.459L25.202 36.7078C25.1889 36.71 25.1759 36.7123 25.1628 36.7123H25.1606ZM27.7276 36.2149C27.6252 36.2149 27.5338 36.1378 27.5144 36.0295C27.4927 35.9074 27.5709 35.7876 27.6883 35.7647L28.9716 35.516C29.0913 35.4958 29.2046 35.5748 29.2263 35.6969C29.248 35.8189 29.1698 35.939 29.0523 35.9616L27.7687 36.2103C27.7558 36.2126 27.7427 36.2149 27.7298 36.2149H27.7276ZM30.292 35.7174C30.1899 35.7174 30.0986 35.6404 30.0791 35.532C30.0571 35.4099 30.1356 35.2898 30.2531 35.2673L31.5364 35.0186C31.6538 34.9983 31.7691 35.0773 31.791 35.1994C31.8127 35.3215 31.7345 35.4416 31.6168 35.4641L30.3334 35.7128C30.3206 35.7151 30.3074 35.7174 30.2942 35.7174H30.292ZM32.8589 35.2199C32.7569 35.2199 32.6655 35.1429 32.6457 35.0345C32.6241 34.9122 32.7023 34.7924 32.8197 34.7698L34.1033 34.5211C34.2229 34.5008 34.336 34.5799 34.3577 34.7019C34.3796 34.824 34.3011 34.9438 34.1837 34.9666L32.9004 35.2154C32.8872 35.2177 32.8743 35.2199 32.8611 35.2199H32.8589ZM18.1258 34.7924C18.0301 34.7924 17.9431 34.7268 17.917 34.6275L17.5711 33.3179C17.5385 33.1981 17.6081 33.0738 17.7234 33.0398C17.8386 33.0059 17.9583 33.0783 17.9909 33.1981L18.3368 34.5074C18.3694 34.6275 18.2998 34.7519 18.1845 34.7858C18.165 34.7901 18.1454 34.7946 18.1258 34.7946V34.7924ZM35.4237 34.7202C35.3213 34.7202 35.2299 34.6432 35.2105 34.5348C35.1888 34.4124 35.267 34.2926 35.3844 34.2701L36.668 34.0214C36.7877 34.0011 36.9007 34.0801 36.9224 34.2022C36.9441 34.3243 36.8659 34.4441 36.7484 34.4669L35.4651 34.7156C35.4519 34.7179 35.4388 34.7202 35.4259 34.7202H35.4237ZM37.9906 34.2227C37.8882 34.2227 37.7969 34.1457 37.7774 34.037C37.7554 33.915 37.8339 33.7952 37.9513 33.7726L39.2347 33.5239C39.3543 33.5036 39.4673 33.5826 39.4893 33.7047C39.511 33.8268 39.4328 33.9466 39.3153 33.9694L38.0317 34.2182C38.0188 34.2205 38.0057 34.2227 37.9925 34.2227H37.9906ZM40.5572 33.725C40.4552 33.725 40.3638 33.6483 40.344 33.5396C40.3223 33.4175 40.4005 33.2977 40.5183 33.2752L41.8016 33.0264C41.9212 33.0059 42.0343 33.0852 42.0559 33.2073C42.0779 33.3294 41.9994 33.4492 41.882 33.472L40.5987 33.7207C40.5855 33.723 40.5726 33.725 40.5594 33.725H40.5572ZM42.6434 32.5718C42.526 32.5718 42.428 32.4745 42.4258 32.3501C42.4258 32.2825 42.4129 32.2146 42.391 32.149L42.0496 31.127C42.0104 31.0092 42.0691 30.8803 42.1844 30.8398C42.2974 30.7967 42.4214 30.86 42.4607 30.9798L42.8023 32.0021C42.8391 32.1128 42.8588 32.2258 42.861 32.3413C42.8632 32.4656 42.7696 32.5695 42.6478 32.5718H42.6434ZM17.4341 32.1761C17.3384 32.1761 17.2513 32.1105 17.2252 32.011L16.8794 30.7017C16.8467 30.5819 16.9163 30.4575 17.0316 30.4236C17.1469 30.3897 17.2665 30.4621 17.2992 30.5819L17.6451 31.8912C17.6777 32.011 17.6081 32.1353 17.4928 32.1693C17.4732 32.1738 17.4536 32.1784 17.4341 32.1784V32.1761ZM41.8255 29.9986C41.7363 29.9986 41.6515 29.9398 41.621 29.8468L41.1924 28.5647C41.1532 28.4472 41.2119 28.3182 41.3274 28.2777C41.4405 28.2369 41.5645 28.298 41.6035 28.4178L42.0321 29.6999C42.0713 29.8175 42.0126 29.9464 41.8973 29.9872C41.8732 29.9963 41.8493 30.0009 41.8255 30.0009V29.9986ZM16.7401 29.5599C16.6444 29.5599 16.5574 29.4943 16.5313 29.3947L16.1854 28.0878C16.1528 27.9679 16.2224 27.8436 16.3377 27.8096C16.453 27.7757 16.5726 27.8479 16.6053 27.9679L16.9511 29.2749C16.9838 29.3947 16.9142 29.5191 16.7989 29.553C16.7793 29.5576 16.7597 29.5622 16.7401 29.5622V29.5599ZM40.9685 27.4365C40.8794 27.4365 40.7943 27.3775 40.7638 27.2848L40.3355 26.0026C40.2963 25.8851 40.355 25.7562 40.4702 25.7157C40.5833 25.6726 40.7073 25.7359 40.7466 25.8557L41.1752 27.1379C41.2141 27.2554 41.1554 27.3843 41.0402 27.4251C41.0163 27.4343 40.9924 27.4385 40.9685 27.4385V27.4365ZM16.0484 26.9434C15.9527 26.9434 15.8657 26.8778 15.8396 26.7785L15.4937 25.4712C15.4611 25.3514 15.5307 25.2271 15.646 25.1931C15.7613 25.1592 15.8809 25.2316 15.9135 25.3514L16.2594 26.6584C16.292 26.7785 16.2224 26.9029 16.1071 26.9368C16.0875 26.9411 16.068 26.9456 16.0484 26.9456V26.9434ZM40.1113 24.8722C40.0222 24.8722 39.9374 24.8132 39.9069 24.7205L39.4783 23.4383C39.4391 23.3208 39.4978 23.1919 39.6133 23.1514C39.7264 23.1106 39.8504 23.1716 39.8894 23.2914L40.318 24.5736C40.3572 24.6911 40.2985 24.82 40.1832 24.8608C40.1591 24.8699 40.1352 24.8742 40.1113 24.8742V24.8722ZM15.3545 24.3271C15.2588 24.3271 15.1718 24.2615 15.1456 24.162L14.7998 22.8527C14.7672 22.7329 14.8368 22.6085 14.9521 22.5746C15.0673 22.5407 15.187 22.6131 15.2196 22.7329L15.5655 24.0422C15.5981 24.162 15.5285 24.2863 15.4132 24.3203C15.3936 24.3248 15.3741 24.3294 15.3545 24.3294V24.3271ZM39.2563 22.31C39.1672 22.31 39.0824 22.2512 39.0519 22.1585L38.6236 20.8764C38.5844 20.7588 38.6431 20.6299 38.7583 20.5892C38.8714 20.5485 38.9954 20.6095 39.0346 20.7294L39.4632 22.0115C39.5022 22.1291 39.4435 22.258 39.3282 22.2987C39.3044 22.3078 39.2805 22.3123 39.2563 22.3123V22.31ZM14.6627 21.7108C14.567 21.7108 14.48 21.6452 14.4539 21.5457L14.108 20.2364C14.0754 20.1166 14.145 19.9922 14.2603 19.9583C14.3756 19.9244 14.4953 19.9967 14.5279 20.1166L14.8738 21.4258C14.9064 21.5457 14.8368 21.6701 14.7215 21.704C14.7019 21.7085 14.6823 21.7131 14.6627 21.7131V21.7108ZM38.3994 19.7457C38.3102 19.7457 38.2255 19.6869 38.195 19.5942L37.7664 18.312C37.7272 18.1945 37.7859 18.0656 37.9014 18.0248C38.0145 17.9841 38.1385 18.0452 38.1774 18.165L38.606 19.4472C38.6453 19.5648 38.5866 19.6937 38.4713 19.7344C38.4472 19.7434 38.4233 19.748 38.3994 19.748V19.7457ZM13.9688 19.0944C13.8731 19.0944 13.7861 19.0289 13.76 18.9294L13.4141 17.6201C13.3815 17.5002 13.4511 17.3758 13.5664 17.3419C13.6817 17.308 13.8013 17.3804 13.834 17.5002L14.1798 18.8095C14.2125 18.9294 14.1429 19.0537 14.0276 19.0877C14.008 19.0922 13.9884 19.0967 13.9688 19.0967V19.0944ZM37.5422 17.1836C37.4531 17.1836 37.3683 17.1249 37.3378 17.0321L36.9095 15.75C36.8702 15.6324 36.929 15.5035 37.0442 15.4628C37.1573 15.4221 37.2813 15.4831 37.3205 15.603L37.7491 16.8851C37.7881 17.0027 37.7294 17.1316 37.6141 17.1723C37.5902 17.1814 37.5664 17.1859 37.5422 17.1859V17.1836ZM13.2771 16.4781C13.1814 16.4781 13.0944 16.4125 13.0683 16.313L12.7224 15.006C12.6898 14.8862 12.7594 14.7618 12.8747 14.7279C12.99 14.6939 13.1096 14.7663 13.1422 14.8862L13.4881 16.1932C13.5207 16.313 13.4511 16.4374 13.3358 16.4713C13.3163 16.4758 13.2967 16.4804 13.2771 16.4804V16.4781ZM36.6853 14.6193C36.5961 14.6193 36.5113 14.5605 36.4809 14.4678L36.0523 13.1856C36.013 13.0681 36.0718 12.9392 36.1873 12.8985C36.3003 12.8578 36.4244 12.9188 36.4633 13.0387L36.8919 14.3208C36.9312 14.4384 36.8724 14.5673 36.7572 14.608C36.733 14.6171 36.7092 14.6216 36.6853 14.6216V14.6193ZM12.5832 13.8618C12.4875 13.8618 12.4005 13.7962 12.3744 13.6967L12.0285 12.3874C11.9958 12.2676 12.0655 12.1432 12.1808 12.1093C12.296 12.0753 12.4157 12.1477 12.4483 12.2676L12.7942 13.5768C12.8268 13.6967 12.7572 13.8211 12.6419 13.855C12.6223 13.8595 12.6028 13.864 12.5832 13.864V13.8618ZM35.8281 12.055C35.7389 12.055 35.6541 11.9962 35.6237 11.9035L35.1951 10.6213C35.1561 10.5037 35.2149 10.3748 35.3301 10.3341C35.4431 10.2934 35.5672 10.3545 35.6064 10.4743L36.035 11.7565C36.074 11.8741 36.0152 12.003 35.9 12.0437C35.8761 12.0527 35.8523 12.0572 35.8281 12.0572V12.055ZM11.8914 11.2455C11.7957 11.2455 11.7087 11.1799 11.6826 11.0804L11.3368 9.77106C11.3041 9.65123 11.3737 9.52684 11.489 9.49292C11.6043 9.45901 11.7239 9.53137 11.7566 9.65123L12.1024 10.9605C12.1351 11.0804 12.0655 11.2047 11.9502 11.2387C11.9306 11.2432 11.911 11.2477 11.8914 11.2477V11.2455ZM34.9712 9.49292C34.882 9.49292 34.7972 9.43414 34.7668 9.34143L34.3382 8.05927C34.2989 7.94167 34.3577 7.81276 34.4729 7.77206C34.5862 7.73136 34.7102 7.79243 34.7492 7.91229L35.1778 9.19445C35.217 9.31202 35.1583 9.44092 35.0431 9.48163C35.0189 9.49067 34.9951 9.49518 34.9712 9.49518V9.49292ZM11.1975 8.6291C11.1018 8.6291 11.0148 8.56352 10.9887 8.46403L10.6428 7.15474C10.6102 7.03488 10.6798 6.91052 10.7951 6.8766C10.9104 6.84269 11.03 6.91505 11.0627 7.03488L11.4085 8.3442C11.4412 8.46403 11.3715 8.58839 11.2562 8.62234C11.2367 8.62684 11.2171 8.63138 11.1975 8.63138V8.6291ZM34.1162 6.9286C34.027 6.9286 33.9422 6.86981 33.9118 6.77711L33.4832 5.49495C33.4442 5.37734 33.5029 5.24844 33.6182 5.20774C33.7312 5.16703 33.8552 5.2281 33.8945 5.34796L34.3228 6.63012C34.362 6.7477 34.3033 6.8766 34.1881 6.91731C34.1642 6.92635 34.1403 6.93085 34.1162 6.93085V6.9286ZM11.0452 6.49218C10.9931 6.49218 10.9387 6.47181 10.8973 6.43339C10.8081 6.3497 10.8038 6.205 10.8843 6.11452C11.0714 5.90424 11.3237 5.77985 11.5999 5.76176L12.2525 5.70523C12.3765 5.69393 12.4766 5.78663 12.4875 5.91103C12.4983 6.03539 12.4092 6.14393 12.2895 6.15523L11.6326 6.21176C11.4651 6.22308 11.315 6.2977 11.2062 6.42207C11.1627 6.46956 11.104 6.49443 11.0452 6.49443V6.49218ZM13.5708 6.04218C13.4598 6.04218 13.3641 5.95399 13.3532 5.83413C13.3424 5.70976 13.4315 5.60123 13.5512 5.5899L14.852 5.47683C14.9716 5.461 15.0761 5.55824 15.0869 5.68264C15.0978 5.807 15.0086 5.91554 14.889 5.92683L13.5882 6.0399C13.5882 6.0399 13.5751 6.0399 13.5708 6.0399V6.04218ZM16.1724 5.81604C16.0615 5.81604 15.9657 5.72785 15.9548 5.60799C15.944 5.48362 16.0332 5.37509 16.1528 5.36379L17.4536 5.25072C17.5755 5.23715 17.6777 5.33213 17.6886 5.4565C17.6995 5.58086 17.6102 5.6894 17.4906 5.70072L16.1898 5.81379C16.1898 5.81379 16.1767 5.81379 16.1724 5.81379V5.81604ZM18.774 5.59219C18.6631 5.59219 18.5674 5.50399 18.5565 5.38413C18.5456 5.25977 18.6348 5.15123 18.7545 5.13991L20.0553 5.02684C20.1771 5.01554 20.2793 5.10824 20.2902 5.23261C20.3011 5.357 20.2119 5.46554 20.0922 5.47683L18.7914 5.5899C18.7914 5.5899 18.7784 5.5899 18.774 5.5899V5.59219ZM21.3757 5.36605C21.2647 5.36605 21.169 5.27785 21.1581 5.15799C21.1472 5.03363 21.2365 4.92509 21.3561 4.91377L22.6569 4.80073C22.7787 4.78715 22.881 4.88213 22.8918 5.0065C22.9027 5.13086 22.8135 5.2394 22.6939 5.25072L21.3931 5.36379C21.3931 5.36379 21.38 5.36379 21.3757 5.36379V5.36605ZM23.9773 5.14216C23.8664 5.14216 23.7706 5.05399 23.7598 4.93413C23.7489 4.80977 23.8381 4.7012 23.9577 4.68991L25.2585 4.57684C25.3825 4.56554 25.4826 4.65825 25.4935 4.78261C25.5043 4.90701 25.4152 5.01554 25.2955 5.02684L23.9947 5.13991C23.9947 5.13991 23.9816 5.13991 23.9773 5.13991V5.14216ZM26.5789 4.9183C26.468 4.9183 26.3723 4.83011 26.3614 4.71028C26.3505 4.58588 26.4397 4.47735 26.5593 4.46605L27.8601 4.35298C27.9797 4.33715 28.0843 4.43439 28.095 4.55875C28.1059 4.68312 28.0168 4.79166 27.8971 4.80298L26.5963 4.91605C26.5963 4.91605 26.5833 4.91605 26.5789 4.91605V4.9183ZM29.1783 4.69216C29.0674 4.69216 28.9716 4.60397 28.9609 4.48414C28.95 4.35977 29.0391 4.25121 29.1588 4.23991L30.4597 4.12684C30.5815 4.11326 30.6836 4.20825 30.6945 4.33261C30.7055 4.45698 30.6163 4.56554 30.4967 4.57684L29.1958 4.68991C29.1958 4.68991 29.1827 4.68991 29.1783 4.68991V4.69216ZM33.0655 4.49768C33.0307 4.49768 32.9961 4.48864 32.9635 4.47056C32.8721 4.42081 32.7698 4.39369 32.6677 4.39369H32.6241L31.7995 4.46605C31.6777 4.47735 31.5756 4.38464 31.5646 4.26025C31.5539 4.13588 31.6431 4.02735 31.7627 4.01602L32.5958 3.94369C32.6241 3.94369 32.6457 3.94141 32.6677 3.94141C32.8417 3.94141 33.0156 3.98664 33.1701 4.07256C33.2766 4.13138 33.3158 4.26932 33.2593 4.37785C33.22 4.45473 33.144 4.49768 33.0677 4.49768H33.0655Z" fill="#101619"/>
<path d="M28.8334 11.25L17.9242 12.4809C17.6915 12.5068 17.5525 12.6768 17.6185 12.8654L18.4523 15.3124C18.5148 15.5009 18.7581 15.6266 18.9908 15.6007L29.9277 14.2811C30.1466 14.2552 30.2753 14.0852 30.2092 13.9041L29.3512 11.5346C29.285 11.3535 29.0557 11.2315 28.837 11.2537L28.8334 11.25Z" fill="#EBF8FF"/>
<path d="M30.5355 15.9609L19.5812 17.3323C19.3484 17.3619 19.2095 17.5393 19.2755 17.7279L20.1232 20.2193C20.1892 20.4078 20.4324 20.5372 20.6652 20.5076L31.6474 19.0438C31.8696 19.0142 31.9947 18.8405 31.9286 18.6557L31.0566 16.2456C30.9908 16.0645 30.7578 15.9388 30.5391 15.9646L30.5355 15.9609Z" fill="#EBF8FF"/>
<path d="M32.2655 20.7465L21.266 22.2657C21.0298 22.299 20.8943 22.4801 20.9603 22.6724L21.8254 25.2044C21.8914 25.3967 22.1346 25.5262 22.3708 25.4928L33.3982 23.8775C33.6205 23.8441 33.7456 23.6667 33.6762 23.4781L32.7866 21.0274C32.7207 20.8426 32.4845 20.7169 32.2655 20.7465Z" fill="#EBF8FF"/>
<path d="M34.0266 25.6108L22.9855 27.2815C22.7493 27.3186 22.6138 27.5034 22.6798 27.6994L23.5588 30.2757C23.6248 30.4716 23.8714 30.6011 24.1077 30.5641L35.1801 28.7936C35.4024 28.7565 35.5275 28.5754 35.4581 28.3831L34.5548 25.8918C34.4854 25.7033 34.2524 25.5775 34.0266 25.6108Z" fill="#EBF8FF"/>
<path d="M26.8863 27.7445L26.8596 27.7509C26.555 27.9042 26.2175 27.8461 25.9274 27.6522L19.9212 23.4272C19.3759 23.0383 19.1883 22.2273 19.516 21.6074C19.8452 20.9945 20.544 20.8054 21.0824 21.1958L25.854 24.5969L30.1688 9.94152C30.3461 9.3431 30.9195 9.06681 31.4483 9.34995C31.9656 9.61391 32.2634 10.3181 32.0862 10.9165L27.4932 26.9847C27.3938 27.3304 27.1671 27.6114 26.8811 27.7531L26.8945 27.7499L26.8863 27.7445Z" fill="#00A800"/>
</g>
<defs>
<clipPath id="clip0_4413_116720">
<rect width="45" height="45" fill="white"/>
</clipPath>
</defs>
</svg>
