<?xml version="1.0" encoding="UTF-8"?>
<!--Generator: Apple Native CoreSVG 175.5-->
<!DOCTYPE svg
PUBLIC "-//W3C//DTD SVG 1.1//EN"
       "http://www.w3.org/Graphics/SVG/1.1/DTD/svg11.dtd">
<svg version="1.1" xmlns="http://www.w3.org/2000/svg" xmlns:xlink="http://www.w3.org/1999/xlink" width="3300" height="2200">
 <!--glyph: "", point size: 100.0, font version: "18.0d12e2", template writer version: "101"-->
 <g id="Notes">
  <rect height="2200" id="artboard" style="fill:white;opacity:1" width="3300" x="0" y="0"/>
  <line style="fill:none;stroke:black;opacity:1;stroke-width:0.5;" x1="263" x2="3036" y1="292" y2="292"/>
  <text style="stroke:none;fill:black;font-family:sans-serif;font-size:13;font-weight:bold;" transform="matrix(1 0 0 1 263 322)">Weight/Scale Variations</text>
  <text style="stroke:none;fill:black;font-family:sans-serif;font-size:13;text-anchor:middle;" transform="matrix(1 0 0 1 559.711 322)">Ultralight</text>
  <text style="stroke:none;fill:black;font-family:sans-serif;font-size:13;text-anchor:middle;" transform="matrix(1 0 0 1 856.422 322)">Thin</text>
  <text style="stroke:none;fill:black;font-family:sans-serif;font-size:13;text-anchor:middle;" transform="matrix(1 0 0 1 1153.13 322)">Light</text>
  <text style="stroke:none;fill:black;font-family:sans-serif;font-size:13;text-anchor:middle;" transform="matrix(1 0 0 1 1449.84 322)">Regular</text>
  <text style="stroke:none;fill:black;font-family:sans-serif;font-size:13;text-anchor:middle;" transform="matrix(1 0 0 1 1746.56 322)">Medium</text>
  <text style="stroke:none;fill:black;font-family:sans-serif;font-size:13;text-anchor:middle;" transform="matrix(1 0 0 1 2043.27 322)">Semibold</text>
  <text style="stroke:none;fill:black;font-family:sans-serif;font-size:13;text-anchor:middle;" transform="matrix(1 0 0 1 2339.98 322)">Bold</text>
  <text style="stroke:none;fill:black;font-family:sans-serif;font-size:13;text-anchor:middle;" transform="matrix(1 0 0 1 2636.69 322)">Heavy</text>
  <text style="stroke:none;fill:black;font-family:sans-serif;font-size:13;text-anchor:middle;" transform="matrix(1 0 0 1 2933.4 322)">Black</text>
  <line style="fill:none;stroke:black;opacity:1;stroke-width:0.5;" x1="263" x2="3036" y1="1903" y2="1903"/>
  <g transform="matrix(1 0 0 1 263 1933)">
   <path d="M9.24805 0.830078C13.5547 0.830078 17.1387-2.74414 17.1387-7.05078C17.1387-11.3574 13.5449-14.9316 9.23828-14.9316C4.94141-14.9316 1.36719-11.3574 1.36719-7.05078C1.36719-2.74414 4.95117 0.830078 9.24805 0.830078ZM9.24805-0.654297C5.70312-0.654297 2.87109-3.49609 2.87109-7.05078C2.87109-10.6055 5.69336-13.4473 9.23828-13.4473C12.793-13.4473 15.6445-10.6055 15.6445-7.05078C15.6445-3.49609 12.8027-0.654297 9.24805-0.654297ZM5.6543-7.05078C5.6543-6.62109 5.95703-6.32812 6.40625-6.32812L8.50586-6.32812L8.50586-4.20898C8.50586-3.76953 8.79883-3.4668 9.22852-3.4668C9.67773-3.4668 9.9707-3.76953 9.9707-4.20898L9.9707-6.32812L12.0898-6.32812C12.5293-6.32812 12.832-6.62109 12.832-7.05078C12.832-7.49023 12.5293-7.79297 12.0898-7.79297L9.9707-7.79297L9.9707-9.90234C9.9707-10.3516 9.67773-10.6543 9.22852-10.6543C8.79883-10.6543 8.50586-10.3516 8.50586-9.90234L8.50586-7.79297L6.40625-7.79297C5.95703-7.79297 5.6543-7.49023 5.6543-7.05078Z"/>
  </g>
  <g transform="matrix(1 0 0 1 281.867 1933)">
   <path d="M11.709 2.91016C17.1582 2.91016 21.6699-1.61133 21.6699-7.05078C21.6699-12.5 17.1484-17.0117 11.6992-17.0117C6.25977-17.0117 1.74805-12.5 1.74805-7.05078C1.74805-1.61133 6.26953 2.91016 11.709 2.91016ZM11.709 1.25C7.09961 1.25 3.41797-2.44141 3.41797-7.05078C3.41797-11.6602 7.08984-15.3516 11.6992-15.3516C16.3086-15.3516 20.0098-11.6602 20.0098-7.05078C20.0098-2.44141 16.3184 1.25 11.709 1.25ZM7.17773-7.05078C7.17773-6.57227 7.50977-6.25 8.00781-6.25L10.8789-6.25L10.8789-3.36914C10.8789-2.88086 11.2109-2.53906 11.6895-2.53906C12.1777-2.53906 12.5195-2.87109 12.5195-3.36914L12.5195-6.25L15.4004-6.25C15.8887-6.25 16.2305-6.57227 16.2305-7.05078C16.2305-7.53906 15.8887-7.88086 15.4004-7.88086L12.5195-7.88086L12.5195-10.752C12.5195-11.25 12.1777-11.5918 11.6895-11.5918C11.2109-11.5918 10.8789-11.25 10.8789-10.752L10.8789-7.88086L8.00781-7.88086C7.50977-7.88086 7.17773-7.53906 7.17773-7.05078Z"/>
  </g>
  <g transform="matrix(1 0 0 1 305.646 1933)">
   <path d="M14.9707 5.66406C21.9336 5.66406 27.6953-0.0976562 27.6953-7.05078C27.6953-14.0137 21.9238-19.7754 14.9609-19.7754C8.00781-19.7754 2.25586-14.0137 2.25586-7.05078C2.25586-0.0976562 8.01758 5.66406 14.9707 5.66406ZM14.9707 3.84766C8.93555 3.84766 4.08203-1.01562 4.08203-7.05078C4.08203-13.0957 8.92578-17.9492 14.9609-17.9492C21.0059-17.9492 25.8691-13.0957 25.8691-7.05078C25.8691-1.01562 21.0156 3.84766 14.9707 3.84766ZM9.19922-7.05078C9.19922-6.5332 9.57031-6.17188 10.1172-6.17188L14.0625-6.17188L14.0625-2.2168C14.0625-1.67969 14.4336-1.29883 14.9512-1.29883C15.4883-1.29883 15.8594-1.66992 15.8594-2.2168L15.8594-6.17188L19.8145-6.17188C20.3516-6.17188 20.7324-6.5332 20.7324-7.05078C20.7324-7.59766 20.3613-7.96875 19.8145-7.96875L15.8594-7.96875L15.8594-11.9141C15.8594-12.4609 15.4883-12.8418 14.9512-12.8418C14.4336-12.8418 14.0625-12.4609 14.0625-11.9141L14.0625-7.96875L10.1172-7.96875C9.57031-7.96875 9.19922-7.59766 9.19922-7.05078Z"/>
  </g>
  <text style="stroke:none;fill:black;font-family:sans-serif;font-size:13;font-weight:bold;" transform="matrix(1 0 0 1 263 1953)">Design Variations</text>
  <text style="stroke:none;fill:black;font-family:sans-serif;font-size:13;" transform="matrix(1 0 0 1 263 1971)">Symbols are supported in up to nine weights and three scales.</text>
  <text style="stroke:none;fill:black;font-family:sans-serif;font-size:13;" transform="matrix(1 0 0 1 263 1989)">For optimal layout with text and other symbols, vertically align</text>
  <text style="stroke:none;fill:black;font-family:sans-serif;font-size:13;" transform="matrix(1 0 0 1 263 2007)">symbols with the adjacent text.</text>
  <line style="fill:none;stroke:#00AEEF;stroke-width:0.5;opacity:1.0;" x1="776" x2="776" y1="1919" y2="1933"/>
  <g transform="matrix(1 0 0 1 776 1933)">
   <path d="M3.31055 0.15625C3.82812 0.15625 4.08203-0.0390625 4.26758-0.585938L5.52734-4.0332L11.2891-4.0332L12.5488-0.585938C12.7344-0.0390625 12.9883 0.15625 13.4961 0.15625C14.0137 0.15625 14.3457-0.15625 14.3457-0.644531C14.3457-0.810547 14.3164-0.966797 14.2383-1.17188L9.6582-13.3691C9.43359-13.9648 9.0332-14.2676 8.4082-14.2676C7.80273-14.2676 7.39258-13.9746 7.17773-13.3789L2.59766-1.16211C2.51953-0.957031 2.49023-0.800781 2.49023-0.634766C2.49023-0.146484 2.80273 0.15625 3.31055 0.15625ZM6.00586-5.51758L8.37891-12.0898L8.42773-12.0898L10.8008-5.51758Z"/>
  </g>
  <line style="fill:none;stroke:#00AEEF;stroke-width:0.5;opacity:1.0;" x1="793.197" x2="793.197" y1="1919" y2="1933"/>
  <text style="stroke:none;fill:black;font-family:sans-serif;font-size:13;font-weight:bold;" transform="matrix(1 0 0 1 776 1953)">Margins</text>
  <text style="stroke:none;fill:black;font-family:sans-serif;font-size:13;" transform="matrix(1 0 0 1 776 1971)">Leading and trailing margins on the left and right side of each symbol</text>
  <text style="stroke:none;fill:black;font-family:sans-serif;font-size:13;" transform="matrix(1 0 0 1 776 1989)">can be adjusted by modifying the x-location of the margin guidelines.</text>
  <text style="stroke:none;fill:black;font-family:sans-serif;font-size:13;" transform="matrix(1 0 0 1 776 2007)">Modifications are automatically applied proportionally to all</text>
  <text style="stroke:none;fill:black;font-family:sans-serif;font-size:13;" transform="matrix(1 0 0 1 776 2025)">scales and weights.</text>
  <g transform="matrix(1 0 0 1 1289 1933)">
   <path d="M2.8418 1.86523L4.54102 3.57422C5.40039 4.44336 6.38672 4.38477 7.31445 3.35938L18.0078-8.42773L17.041-9.4043L6.42578 2.27539C6.07422 2.67578 5.74219 2.77344 5.27344 2.30469L4.10156 1.14258C3.63281 0.683594 3.74023 0.341797 4.14062-0.0195312L15.6152-10.8203L14.6387-11.7871L3.04688-0.898438C2.06055 0.0195312 1.98242 0.996094 2.8418 1.86523ZM9.25781-16.3281C8.83789-15.918 8.80859-15.3418 9.04297-14.9512C9.27734-14.5898 9.73633-14.3555 10.3809-14.5215C11.8457-14.8633 13.3691-14.9219 14.7949-13.9844L14.209-12.5293C13.8672-11.6992 14.043-11.1133 14.5801-10.5664L16.875-8.25195C17.3633-7.76367 17.7734-7.74414 18.3398-7.8418L19.4043-8.03711L20.0684-7.36328L20.0293-6.80664C19.9902-6.30859 20.1172-5.92773 20.6055-5.44922L21.3672-4.70703C21.8457-4.22852 22.4609-4.19922 22.9297-4.66797L25.8398-7.58789C26.3086-8.05664 26.2891-8.65234 25.8105-9.13086L25.0391-9.89258C24.5605-10.3711 24.1895-10.5273 23.7109-10.4883L23.1348-10.4395L22.4902-11.0742L22.7344-12.1973C22.8613-12.7637 22.7051-13.2031 22.1191-13.7891L19.9219-15.9766C16.582-19.2969 12.1484-19.2188 9.25781-16.3281ZM10.752-15.957C13.1836-17.7344 16.4746-17.4316 18.7012-15.2051L21.1328-12.793C21.3672-12.5586 21.4062-12.373 21.3379-12.0312L21.0156-10.5469L22.5195-9.0625L23.5059-9.12109C23.7598-9.13086 23.8379-9.11133 24.0332-8.91602L24.6094-8.33984L22.168-5.89844L21.5918-6.47461C21.3965-6.66992 21.3672-6.74805 21.377-7.01172L21.4453-7.98828L19.9512-9.47266L18.4277-9.21875C18.1055-9.15039 17.959-9.17969 17.7148-9.41406L15.7129-11.416C15.459-11.6504 15.4297-11.8164 15.5859-12.1875L16.4648-14.2773C14.9023-15.7324 12.8711-16.3574 10.8398-15.7617C10.6836-15.7227 10.625-15.8496 10.752-15.957Z"/>
  </g>
  <text style="stroke:none;fill:black;font-family:sans-serif;font-size:13;font-weight:bold;" transform="matrix(1 0 0 1 1289 1953)">Exporting</text>
  <text style="stroke:none;fill:black;font-family:sans-serif;font-size:13;" transform="matrix(1 0 0 1 1289 1971)">Symbols should be outlined when exporting to ensure the</text>
  <text style="stroke:none;fill:black;font-family:sans-serif;font-size:13;" transform="matrix(1 0 0 1 1289 1989)">design is preserved when submitting to Xcode.</text>
  <text id="template-version" style="stroke:none;fill:black;font-family:sans-serif;font-size:13;text-anchor:end;" transform="matrix(1 0 0 1 3036 1933)">Template v.3.0</text>
  <text style="stroke:none;fill:black;font-family:sans-serif;font-size:13;text-anchor:end;" transform="matrix(1 0 0 1 3036 1951)">Requires Xcode 13 or greater</text>
  <text id="descriptive-name" style="stroke:none;fill:black;font-family:sans-serif;font-size:13;text-anchor:end;" transform="matrix(1 0 0 1 3036 1969)">Generated from fiori.customize</text>
  <text style="stroke:none;fill:black;font-family:sans-serif;font-size:13;text-anchor:end;" transform="matrix(1 0 0 1 3036 1987)">Typeset at 100 points</text>
  <text style="stroke:none;fill:black;font-family:sans-serif;font-size:13;" transform="matrix(1 0 0 1 263 726)">Small</text>
  <text style="stroke:none;fill:black;font-family:sans-serif;font-size:13;" transform="matrix(1 0 0 1 263 1156)">Medium</text>
  <text style="stroke:none;fill:black;font-family:sans-serif;font-size:13;" transform="matrix(1 0 0 1 263 1586)">Large</text>
 </g>
 <g id="Guides">
  <g id="H-reference" style="fill:#27AAE1;stroke:none;" transform="matrix(1 0 0 1 339 696)">
   <path d="M0.993654 0L3.63775 0L29.3281-67.1323L30.0303-67.1323L30.0303-70.459L28.1226-70.459ZM11.6885-24.4799L46.9815-24.4799L46.2315-26.7285L12.4385-26.7285ZM55.1196 0L57.7637 0L30.6382-70.459L29.4326-70.459L29.4326-67.1323Z"/>
  </g>
  <line id="Baseline-S" style="fill:none;stroke:#27AAE1;opacity:1;stroke-width:0.5;" x1="263" x2="3036" y1="696" y2="696"/>
  <line id="Capline-S" style="fill:none;stroke:#27AAE1;opacity:1;stroke-width:0.5;" x1="263" x2="3036" y1="625.541" y2="625.541"/>
  <g id="H-reference" style="fill:#27AAE1;stroke:none;" transform="matrix(1 0 0 1 339 1126)">
   <path d="M0.993654 0L3.63775 0L29.3281-67.1323L30.0303-67.1323L30.0303-70.459L28.1226-70.459ZM11.6885-24.4799L46.9815-24.4799L46.2315-26.7285L12.4385-26.7285ZM55.1196 0L57.7637 0L30.6382-70.459L29.4326-70.459L29.4326-67.1323Z"/>
  </g>
  <line id="Baseline-M" style="fill:none;stroke:#27AAE1;opacity:1;stroke-width:0.5;" x1="263" x2="3036" y1="1126" y2="1126"/>
  <line id="Capline-M" style="fill:none;stroke:#27AAE1;opacity:1;stroke-width:0.5;" x1="263" x2="3036" y1="1055.54" y2="1055.54"/>
  <g id="H-reference" style="fill:#27AAE1;stroke:none;" transform="matrix(1 0 0 1 339 1556)">
   <path d="M0.993654 0L3.63775 0L29.3281-67.1323L30.0303-67.1323L30.0303-70.459L28.1226-70.459ZM11.6885-24.4799L46.9815-24.4799L46.2315-26.7285L12.4385-26.7285ZM55.1196 0L57.7637 0L30.6382-70.459L29.4326-70.459L29.4326-67.1323Z"/>
  </g>
  <line id="Baseline-L" style="fill:none;stroke:#27AAE1;opacity:1;stroke-width:0.5;" x1="263" x2="3036" y1="1556" y2="1556"/>
  <line id="Capline-L" style="fill:none;stroke:#27AAE1;opacity:1;stroke-width:0.5;" x1="263" x2="3036" y1="1485.54" y2="1485.54"/>
  <line id="left-margin-Ultralight-S" style="fill:none;stroke:#00AEEF;stroke-width:0.5;opacity:1.0;" x1="515.011" x2="515.011" y1="600.785" y2="720.121"/>
  <line id="right-margin-Ultralight-S" style="fill:none;stroke:#00AEEF;stroke-width:0.5;opacity:1.0;" x1="604.411" x2="604.411" y1="600.785" y2="720.121"/>
  <line id="left-margin-Regular-S" style="fill:none;stroke:#00AEEF;stroke-width:0.5;opacity:1.0;" x1="1403.39" x2="1403.39" y1="600.785" y2="720.121"/>
  <line id="right-margin-Regular-S" style="fill:none;stroke:#00AEEF;stroke-width:0.5;opacity:1.0;" x1="1496.29" x2="1496.29" y1="600.785" y2="720.121"/>
  <line id="left-margin-Black-S" style="fill:none;stroke:#00AEEF;stroke-width:0.5;opacity:1.0;" x1="2884.9" x2="2884.9" y1="600.785" y2="720.121"/>
  <line id="right-margin-Black-S" style="fill:none;stroke:#00AEEF;stroke-width:0.5;opacity:1.0;" x1="2981.9" x2="2981.9" y1="600.785" y2="720.121"/>
 </g>
 <g id="Symbols">
  <g id="Black-S" transform="matrix(1 0 0 1 2884.9 696)">
   <path d="M40.51-53.5L16.51-53.5C13.41-53.5 10.81-56.1 10.81-59.2C10.81-62.3 13.41-64.9 16.51-64.9L40.51-64.9C43.61-64.9 46.21-62.3 46.21-59.2C46.21-56.1 43.61-53.5 40.51-53.5ZM80.51-29.5L56.51-29.5C53.31-29.5 50.81-32.1 50.81-35.2C50.81-38.3 53.31-40.9 56.51-40.9L80.51-40.9C83.71-40.9 86.21-38.3 86.21-35.2C86.21-32.1 83.61-29.5 80.51-29.5ZM80.51-5.5L64.51-5.5C61.31-5.5 58.81-8 58.81-11.2C58.81-14.4 61.31-16.9 64.51-16.9L80.51-16.9C83.71-16.9 86.21-14.4 86.21-11.2C86.21-8 83.61-5.5 80.51-5.5ZM80.51-53.5L72.51-53.5C69.31-53.5 66.81-56.1 66.81-59.2C66.81-62.3 69.31-64.9 72.51-64.9L80.51-64.9C83.71-64.9 86.21-62.3 86.21-59.2C86.21-56.1 83.61-53.5 80.51-53.5ZM64.51-45.5C56.91-45.5 50.81-51.6 50.81-59.2C50.81-66.8 56.91-73 64.51-73C72.11-73 78.21-66.9 78.21-59.3C78.21-51.7 72.01-45.5 64.51-45.5ZM64.51-61.5C63.21-61.5 62.21-60.5 62.21-59.2C62.21-57.9 63.21-56.9 64.51-56.9C65.81-56.9 66.81-57.9 66.81-59.2C66.81-60.5 65.81-61.5 64.51-61.5ZM32.51-21.6C24.91-21.6 18.81-27.7 18.81-35.3C18.81-42.9 24.91-49 32.51-49C40.11-49 46.21-42.9 46.21-35.3C46.21-27.7 40.01-21.6 32.51-21.6ZM32.51-37.5C31.21-37.5 30.21-36.5 30.21-35.2C30.21-33.9 31.21-32.9 32.51-32.9C33.81-32.9 34.81-33.9 34.81-35.2C34.81-36.5 33.81-37.5 32.51-37.5ZM56.51 2.4C48.91 2.4 42.81-3.7 42.81-11.3C42.81-18.9 48.91-25 56.51-25C64.11-25 70.21-18.9 70.21-11.3C70.21-3.7 64.01 2.4 56.51 2.4ZM56.51-13.5C55.21-13.5 54.21-12.5 54.21-11.2C54.21-9.9 55.21-8.9 56.51-8.9C57.81-8.9 58.81-9.9 58.81-11.2C58.81-12.5 57.81-13.5 56.51-13.5ZM24.51-29.5L16.51-29.5C13.41-29.5 10.81-32.1 10.81-35.2C10.81-38.3 13.41-40.9 16.51-40.9L24.51-40.9C27.61-40.9 30.21-38.3 30.21-35.2C30.21-32.1 27.61-29.5 24.51-29.5ZM32.51-5.5L16.51-5.5C13.41-5.5 10.81-8 10.81-11.2C10.81-14.4 13.41-16.9 16.51-16.9L32.51-16.9C35.61-16.9 38.21-14.4 38.21-11.2C38.21-8 35.61-5.5 32.51-5.5Z"/>
  </g>
  <g id="Regular-S" transform="matrix(1 0 0 1 1403.39 696)">
   <path d="M38.46-55.2L14.46-55.2C12.26-55.2 10.46-57 10.46-59.2C10.46-61.4 12.26-63.2 14.46-63.2L38.46-63.2C40.66-63.2 42.46-61.4 42.46-59.2C42.46-57 40.66-55.2 38.46-55.2ZM78.46-31.3L54.46-31.3C52.26-31.3 50.46-33.1 50.46-35.3C50.46-37.5 52.26-39.3 54.46-39.3L78.46-39.3C80.66-39.3 82.46-37.5 82.46-35.3C82.46-33.1 80.76-31.3 78.46-31.3ZM78.46-7.3L62.46-7.3C60.26-7.3 58.46-9.1 58.46-11.3C58.46-13.5 60.26-15.3 62.46-15.3L78.46-15.3C80.66-15.3 82.46-13.5 82.46-11.3C82.46-9.1 80.76-7.3 78.46-7.3ZM78.46-55.2L70.46-55.2C68.26-55.2 66.46-57 66.46-59.2C66.46-61.4 68.26-63.2 70.46-63.2L78.46-63.2C80.66-63.2 82.46-61.4 82.46-59.2C82.46-57 80.76-55.2 78.46-55.2ZM62.46-47.2C55.86-47.2 50.46-52.6 50.46-59.2C50.46-65.8 55.86-71.2 62.46-71.2C69.06-71.2 74.46-65.8 74.46-59.2C74.46-52.6 69.16-47.2 62.46-47.2ZM62.46-63.2C60.26-63.2 58.46-61.4 58.46-59.2C58.46-57 60.26-55.2 62.46-55.2C64.66-55.2 66.46-57 66.46-59.2C66.46-61.4 64.66-63.2 62.46-63.2ZM30.46-23.3C23.86-23.3 18.46-28.7 18.46-35.3C18.46-41.9 23.86-47.3 30.46-47.3C37.06-47.3 42.46-41.9 42.46-35.3C42.46-28.7 37.16-23.3 30.46-23.3ZM30.46-39.2C28.26-39.2 26.46-37.4 26.46-35.2C26.46-33 28.26-31.2 30.46-31.2C32.66-31.2 34.46-33 34.46-35.2C34.46-37.4 32.66-39.2 30.46-39.2ZM54.46 0.7C47.86 0.7 42.46-4.7 42.46-11.3C42.46-17.9 47.86-23.3 54.46-23.3C61.06-23.3 66.46-17.9 66.46-11.3C66.46-4.7 61.16 0.7 54.46 0.7ZM54.46-15.3C52.26-15.3 50.46-13.5 50.46-11.3C50.46-9.1 52.26-7.3 54.46-7.3C56.66-7.3 58.46-9.1 58.46-11.3C58.46-13.5 56.66-15.3 54.46-15.3ZM22.46-31.3L14.46-31.3C12.26-31.3 10.46-33.1 10.46-35.3C10.46-37.5 12.26-39.3 14.46-39.3L22.46-39.3C24.66-39.3 26.46-37.5 26.46-35.3C26.46-33.1 24.66-31.3 22.46-31.3ZM30.46-7.3L14.46-7.3C12.26-7.3 10.46-9.1 10.46-11.3C10.46-13.5 12.26-15.3 14.46-15.3L30.46-15.3C32.66-15.3 34.46-13.5 34.46-11.3C34.46-9.1 32.66-7.3 30.46-7.3Z"/>
  </g>
  <g id="Ultralight-S" transform="matrix(1 0 0 1 515.011 696)">
   <path d="M36.775-58.1L12.775-58.1C12.175-58.1 11.575-58.6 11.575-59.3C11.575-60 12.075-60.5 12.775-60.5L36.775-60.5C37.375-60.5 37.975-60 37.975-59.3C37.975-58.6 37.375-58.1 36.775-58.1ZM76.775-34.1L52.775-34.1C52.175-34.1 51.575-34.6 51.575-35.3C51.575-36 52.075-36.5 52.775-36.5L76.775-36.5C77.375-36.5 77.975-36 77.975-35.3C77.975-34.6 77.375-34.1 76.775-34.1ZM76.775-10.1L60.775-10.1C60.175-10.1 59.575-10.6 59.575-11.3C59.575-11.9 60.075-12.5 60.775-12.5L76.775-12.5C77.375-12.5 77.975-12 77.975-11.3C77.875-10.6 77.375-10.1 76.775-10.1ZM76.775-58.1L68.775-58.1C68.175-58.1 67.575-58.6 67.575-59.3C67.575-60 68.075-60.5 68.775-60.5L76.775-60.5C77.375-60.5 77.975-60 77.975-59.3C77.975-58.6 77.375-58.1 76.775-58.1ZM60.775-50.1C55.675-50.1 51.575-54.2 51.575-59.3C51.575-64.4 55.675-68.5 60.775-68.5C65.875-68.5 69.975-64.4 69.975-59.3C69.975-54.2 65.775-50.1 60.775-50.1ZM60.775-66.1C56.975-66.1 53.975-63 53.975-59.3C53.975-55.5 57.075-52.5 60.775-52.5C64.475-52.5 67.575-55.6 67.575-59.3C67.575-63 64.475-66.1 60.775-66.1ZM28.775-26.1C23.675-26.1 19.575-30.2 19.575-35.3C19.575-40.4 23.675-44.5 28.775-44.5C33.875-44.5 37.975-40.4 37.975-35.3C37.975-30.2 33.775-26.1 28.775-26.1ZM28.775-42.1C24.975-42.1 21.975-39 21.975-35.3C21.975-31.5 25.075-28.5 28.775-28.5C32.475-28.5 35.575-31.6 35.575-35.3C35.575-39 32.475-42.1 28.775-42.1ZM52.775-2.1C47.675-2.1 43.575-6.2 43.575-11.3C43.575-16.4 47.675-20.5 52.775-20.5C57.875-20.5 61.975-16.4 61.975-11.3C61.975-6.2 57.775-2.1 52.775-2.1ZM52.775-18.1C48.975-18.1 45.975-15 45.975-11.3C45.975-7.6 49.075-4.5 52.775-4.5C56.475-4.5 59.575-7.6 59.575-11.3C59.575-15 56.475-18.1 52.775-18.1ZM20.775-34.1L12.775-34.1C12.175-34.1 11.575-34.6 11.575-35.3C11.575-36 12.075-36.5 12.775-36.5L20.775-36.5C21.375-36.5 21.975-36 21.975-35.3C21.975-34.6 21.375-34.1 20.775-34.1ZM28.775-10.1L12.775-10.1C12.175-10.1 11.575-10.6 11.575-11.3C11.575-11.9 12.075-12.5 12.775-12.5L28.775-12.5C29.375-12.5 29.975-12 29.975-11.3C29.875-10.6 29.375-10.1 28.775-10.1Z"/>
  </g>
 </g>
</svg>
