<?xml version="1.0" encoding="UTF-8"?>
<!--Generator: Apple Native CoreSVG 341-->
<!DOCTYPE svg
PUBLIC "-//W3C//DTD SVG 1.1//EN"
       "http://www.w3.org/Graphics/SVG/1.1/DTD/svg11.dtd">
<svg version="1.1" xmlns="http://www.w3.org/2000/svg" xmlns:xlink="http://www.w3.org/1999/xlink" viewBox="0 0 3300 2200">
 <!--glyph: "", point size: 100.0, font version: "21.0d4e1", template writer version: "138.0.0"-->
 <style>.defaults {-sfsymbols-draw-reverses-motion-groups:true}

.monochrome-0 {-sfsymbols-motion-group:2;-sfsymbols-layer-tags:-3e0ae808a8178f00}
.monochrome-1 {-sfsymbols-motion-group:1;-sfsymbols-layer-tags:-3e0ae808a8178f00}
.monochrome-2 {-sfsymbols-motion-group:0;-sfsymbols-layer-tags:-3e0ae808a8178f00}

.multicolor-0:tintColor {-sfsymbols-motion-group:2;-sfsymbols-layer-tags:-3e0ae808a8178f00}
.multicolor-1:tintColor {-sfsymbols-motion-group:1;-sfsymbols-layer-tags:-3e0ae808a8178f00}
.multicolor-2:tintColor {-sfsymbols-motion-group:0;-sfsymbols-layer-tags:-3e0ae808a8178f00}

.hierarchical-0:primary {-sfsymbols-motion-group:2;-sfsymbols-layer-tags:-3e0ae808a8178f00}
.hierarchical-1:primary {-sfsymbols-motion-group:1;-sfsymbols-layer-tags:-3e0ae808a8178f00}
.hierarchical-2:primary {-sfsymbols-motion-group:0;-sfsymbols-layer-tags:-3e0ae808a8178f00}

.SFSymbolsPreviewWireframe {fill:none;opacity:1.0;stroke:black;stroke-width:0.5}
</style>
 <g id="Notes">
  <rect height="2200" id="artboard" style="fill:white;opacity:1" width="3300" x="0" y="0"/>
  <line style="fill:none;stroke:black;opacity:1;stroke-width:0.5;" x1="263" x2="3036" y1="292" y2="292"/>
  <text style="stroke:none;fill:black;font-family:sans-serif;font-size:13;font-weight:bold;" transform="matrix(1 0 0 1 263 322)">Weight/Scale Variations</text>
  <text style="stroke:none;fill:black;font-family:sans-serif;font-size:13;text-anchor:middle;" transform="matrix(1 0 0 1 559.711 322)">Ultralight</text>
  <text style="stroke:none;fill:black;font-family:sans-serif;font-size:13;text-anchor:middle;" transform="matrix(1 0 0 1 856.422 322)">Thin</text>
  <text style="stroke:none;fill:black;font-family:sans-serif;font-size:13;text-anchor:middle;" transform="matrix(1 0 0 1 1153.13 322)">Light</text>
  <text style="stroke:none;fill:black;font-family:sans-serif;font-size:13;text-anchor:middle;" transform="matrix(1 0 0 1 1449.84 322)">Regular</text>
  <text style="stroke:none;fill:black;font-family:sans-serif;font-size:13;text-anchor:middle;" transform="matrix(1 0 0 1 1746.56 322)">Medium</text>
  <text style="stroke:none;fill:black;font-family:sans-serif;font-size:13;text-anchor:middle;" transform="matrix(1 0 0 1 2043.27 322)">Semibold</text>
  <text style="stroke:none;fill:black;font-family:sans-serif;font-size:13;text-anchor:middle;" transform="matrix(1 0 0 1 2339.98 322)">Bold</text>
  <text style="stroke:none;fill:black;font-family:sans-serif;font-size:13;text-anchor:middle;" transform="matrix(1 0 0 1 2636.69 322)">Heavy</text>
  <text style="stroke:none;fill:black;font-family:sans-serif;font-size:13;text-anchor:middle;" transform="matrix(1 0 0 1 2933.4 322)">Black</text>
  <line style="fill:none;stroke:black;opacity:1;stroke-width:0.5;" x1="263" x2="3036" y1="1903" y2="1903"/>
  <g transform="matrix(0.2 0 0 0.2 263 1933)">
   <path d="m46.2402 4.15039c21.7773 0 39.4531-17.627 39.4531-39.4043s-17.6758-39.4043-39.4531-39.4043c-21.7285 0-39.4043 17.627-39.4043 39.4043s17.6758 39.4043 39.4043 39.4043Zm0-7.42188c-17.6758 0-31.9336-14.3066-31.9336-31.9824s14.2578-31.9824 31.9336-31.9824 31.9824 14.3066 31.9824 31.9824-14.3066 31.9824-31.9824 31.9824Zm3.61328-17.7734v-28.4668c0-2.24609-1.46484-3.75977-3.71094-3.75977-2.14844 0-3.61328 1.51367-3.61328 3.75977v28.4668c0 2.19727 1.46484 3.71094 3.61328 3.71094 2.24609 0 3.71094-1.51367 3.71094-3.71094Zm-17.8223-10.5957h28.418c2.19727 0 3.71094-1.46484 3.71094-3.61328 0-2.19727-1.51367-3.71094-3.71094-3.71094h-28.418c-2.24609 0-3.75977 1.51367-3.75977 3.71094 0 2.14844 1.51367 3.61328 3.75977 3.61328Z"/>
  </g>
  <g transform="matrix(0.2 0 0 0.2 281.506 1933)">
   <path d="m58.5449 14.5508c27.4902 0 49.8047-22.3145 49.8047-49.8047s-22.3145-49.8047-49.8047-49.8047-49.8047 22.3145-49.8047 49.8047 22.3145 49.8047 49.8047 49.8047Zm0-8.30078c-22.9492 0-41.5039-18.5547-41.5039-41.5039s18.5547-41.5039 41.5039-41.5039 41.5039 18.5547 41.5039 41.5039-18.5547 41.5039-41.5039 41.5039Zm4.05273-23.0957v-36.9141c0-2.49023-1.70898-4.19922-4.15039-4.19922-2.39258 0-4.05273 1.70898-4.05273 4.19922v36.9141c0 2.44141 1.66016 4.15039 4.05273 4.15039 2.44141 0 4.15039-1.66016 4.15039-4.15039Zm-22.5586-14.4043h36.9629c2.44141 0 4.15039-1.61133 4.15039-4.00391 0-2.44141-1.70898-4.15039-4.15039-4.15039h-36.9629c-2.49023 0-4.15039 1.70898-4.15039 4.15039 0 2.39258 1.66016 4.00391 4.15039 4.00391Z"/>
  </g>
  <g transform="matrix(0.2 0 0 0.2 304.924 1933)">
   <path d="m74.8535 28.3203c35.1074 0 63.623-28.4668 63.623-63.5742s-28.5156-63.623-63.623-63.623-63.5742 28.5156-63.5742 63.623 28.4668 63.5742 63.5742 63.5742Zm0-9.08203c-30.127 0-54.4922-24.3652-54.4922-54.4922s24.3652-54.4922 54.4922-54.4922 54.4922 24.3652 54.4922 54.4922-24.3652 54.4922-54.4922 54.4922Zm4.44336-30.3223v-48.4863c0-2.73438-1.85547-4.63867-4.54102-4.63867-2.58789 0-4.44336 1.9043-4.44336 4.63867v48.4863c0 2.68555 1.85547 4.58984 4.44336 4.58984 2.68555 0 4.54102-1.85547 4.54102-4.58984Zm-28.7109-19.7754h48.4863c2.68555 0 4.58984-1.80664 4.58984-4.39453 0-2.73438-1.85547-4.58984-4.58984-4.58984h-48.4863c-2.73438 0-4.58984 1.85547-4.58984 4.58984 0 2.58789 1.85547 4.39453 4.58984 4.39453Z"/>
  </g>
  <text style="stroke:none;fill:black;font-family:sans-serif;font-size:13;font-weight:bold;" transform="matrix(1 0 0 1 263 1953)">Design Variations</text>
  <text style="stroke:none;fill:black;font-family:sans-serif;font-size:13;" transform="matrix(1 0 0 1 263 1971)">Symbols are supported in up to nine weights and three scales.</text>
  <text style="stroke:none;fill:black;font-family:sans-serif;font-size:13;" transform="matrix(1 0 0 1 263 1989)">For optimal layout with text and other symbols, vertically align</text>
  <text style="stroke:none;fill:black;font-family:sans-serif;font-size:13;" transform="matrix(1 0 0 1 263 2007)">symbols with the adjacent text.</text>
  <line style="fill:none;stroke:#00AEEF;stroke-width:0.5;opacity:1.0;" x1="776" x2="776" y1="1919" y2="1933"/>
  <g transform="matrix(0.2 0 0 0.2 776 1933)">
   <path d="m16.5527 0.78125c2.58789 0 3.85742-0.976562 4.78516-3.71094l20.5566-57.5195h0.244141l20.6055 57.5195c0.927734 2.73438 2.19727 3.71094 4.73633 3.71094 2.58789 0 4.24805-1.5625 4.24805-4.00391 0-0.830078-0.146484-1.61133-0.537109-2.63672l-22.9004-60.9863c-1.12305-2.97852-3.125-4.49219-6.25-4.49219-3.02734 0-5.07812 1.46484-6.15234 4.44336l-22.9004 61.084c-0.390625 1.02539-0.537109 1.80664-0.537109 2.63672 0 2.44141 1.5625 3.95508 4.10156 3.95508Zm10.2051-20.9473h30.6641c2.00195 0 3.66211-1.66016 3.66211-3.66211 0-2.05078-1.66016-3.66211-3.66211-3.66211h-30.6641c-2.00195 0-3.66211 1.61133-3.66211 3.66211 0 2.00195 1.66016 3.66211 3.66211 3.66211Z"/>
  </g>
  <line style="fill:none;stroke:#00AEEF;stroke-width:0.5;opacity:1.0;" x1="792.836" x2="792.836" y1="1919" y2="1933"/>
  <text style="stroke:none;fill:black;font-family:sans-serif;font-size:13;font-weight:bold;" transform="matrix(1 0 0 1 776 1953)">Margins</text>
  <text style="stroke:none;fill:black;font-family:sans-serif;font-size:13;" transform="matrix(1 0 0 1 776 1971)">Leading and trailing margins on the left and right side of each symbol</text>
  <text style="stroke:none;fill:black;font-family:sans-serif;font-size:13;" transform="matrix(1 0 0 1 776 1989)">can be adjusted by modifying the x-location of the margin guidelines.</text>
  <text style="stroke:none;fill:black;font-family:sans-serif;font-size:13;" transform="matrix(1 0 0 1 776 2007)">Modifications are automatically applied proportionally to all</text>
  <text style="stroke:none;fill:black;font-family:sans-serif;font-size:13;" transform="matrix(1 0 0 1 776 2025)">scales and weights.</text>
  <g transform="matrix(0.2 0 0 0.2 1289 1933)">
   <path d="m14.209 13.1348 7.86133 7.86133c4.29688 4.39453 9.32617 4.10156 13.8672-1.02539l60.6934-68.2129-4.88281-4.88281-60.2539 67.6758c-1.80664 1.95312-3.4668 2.44141-5.81055 0.0976562l-5.17578-5.12695c-2.29492-2.29492-1.80664-3.95508 0.195312-5.81055l67.4805-62.1582-4.88281-4.83398-68.0664 62.5977c-4.98047 4.58984-5.32227 9.47266-1.02539 13.8184Zm44.873-97.4609c-2.05078 2.00195-2.24609 4.88281-1.07422 6.78711 1.12305 1.80664 3.4668 3.02734 6.5918 2.24609 5.85938-1.66016 12.5977-2.39258 18.8965 0.927734l-2.68555 7.12891c-1.61133 4.00391-0.732422 6.88477 1.70898 9.42383l10.2539 10.3027c2.34375 2.39258 4.54102 2.44141 7.08008 1.95312l4.44336-0.732422 2.58789 2.53906-0.195312 2.24609c-0.0976562 2.29492 0.537109 4.29688 2.7832 6.49414l3.36914 3.32031c2.29492 2.29492 5.51758 2.49023 7.8125 0.195312l12.9883-13.0371c2.29492-2.34375 2.14844-5.37109-0.195312-7.66602l-3.41797-3.41797c-2.19727-2.19727-4.05273-3.02734-6.34766-2.88086l-2.34375 0.244141-2.44141-2.44141 1.02539-4.6875c0.634766-2.73438-0.244141-4.98047-2.88086-7.61719l-11.2793-11.1816c-12.9395-12.8418-35.5957-11.0352-46.6797-0.146484Zm7.08008 2.05078c8.78906-6.39648 25.9766-5.66406 33.6914 1.95312l12.3047 12.207c1.02539 1.02539 1.2207 1.80664 0.927734 3.32031l-1.46484 6.64062 6.73828 6.68945 4.39453-0.244141c1.12305-0.0488281 1.51367 0.0488281 2.34375 0.878906l2.53906 2.49023-10.8398 10.8398-2.49023-2.49023c-0.830078-0.878906-0.976562-1.2207-0.927734-2.39258l0.292969-4.3457-6.68945-6.73828-6.83594 1.17188c-1.41602 0.292969-2.05078 0.195312-3.17383-0.878906l-8.93555-8.88672c-1.07422-1.02539-1.17188-1.70898-0.488281-3.36914l4.58984-11.4746c-6.10352-6.34766-17.041-7.51953-25.5859-4.58984-0.683594 0.244141-0.927734-0.390625-0.390625-0.78125Z"/>
  </g>
  <text style="stroke:none;fill:black;font-family:sans-serif;font-size:13;font-weight:bold;" transform="matrix(1 0 0 1 1289 1953)">Exporting</text>
  <text style="stroke:none;fill:black;font-family:sans-serif;font-size:13;" transform="matrix(1 0 0 1 1289 1971)">Symbols should be outlined when exporting to ensure the</text>
  <text style="stroke:none;fill:black;font-family:sans-serif;font-size:13;" transform="matrix(1 0 0 1 1289 1989)">design is preserved when submitting to Xcode.</text>
  <text id="template-version" style="stroke:none;fill:black;font-family:sans-serif;font-size:13;text-anchor:end;" transform="matrix(1 0 0 1 3036 1933)">Template v.5.0</text>
  <text style="stroke:none;fill:black;font-family:sans-serif;font-size:13;text-anchor:end;" transform="matrix(1 0 0 1 3036 1951)">Requires Xcode 15 or greater</text>
  <text id="descriptive-name" style="stroke:none;fill:black;font-family:sans-serif;font-size:13;text-anchor:end;" transform="matrix(1 0 0 1 3036 1969)">Generated from fiori.horizontal.combination.chart</text>
  <text style="stroke:none;fill:black;font-family:sans-serif;font-size:13;text-anchor:end;" transform="matrix(1 0 0 1 3036 1987)">Typeset at 100.0 points</text>
  <text style="stroke:none;fill:black;font-family:sans-serif;font-size:13;" transform="matrix(1 0 0 1 263 726)">Small</text>
  <text style="stroke:none;fill:black;font-family:sans-serif;font-size:13;" transform="matrix(1 0 0 1 263 1156)">Medium</text>
  <text style="stroke:none;fill:black;font-family:sans-serif;font-size:13;" transform="matrix(1 0 0 1 263 1586)">Large</text>
 </g>
 <g id="Guides">
  <g id="H-reference" style="fill:#27AAE1;stroke:none;" transform="matrix(1 0 0 1 339 696)">
   <path d="M0.993654 0L3.63775 0L29.3281-67.1323L30.0303-67.1323L30.0303-70.459L28.1226-70.459ZM11.6885-24.4799L46.9815-24.4799L46.2315-26.7285L12.4385-26.7285ZM55.1196 0L57.7637 0L30.6382-70.459L29.4326-70.459L29.4326-67.1323Z"/>
  </g>
  <line id="Baseline-S" style="fill:none;stroke:#27AAE1;opacity:1;stroke-width:0.5;" x1="263" x2="3036" y1="696" y2="696"/>
  <line id="Capline-S" style="fill:none;stroke:#27AAE1;opacity:1;stroke-width:0.5;" x1="263" x2="3036" y1="625.541" y2="625.541"/>
  <g id="H-reference" style="fill:#27AAE1;stroke:none;" transform="matrix(1 0 0 1 339 1126)">
   <path d="M0.993654 0L3.63775 0L29.3281-67.1323L30.0303-67.1323L30.0303-70.459L28.1226-70.459ZM11.6885-24.4799L46.9815-24.4799L46.2315-26.7285L12.4385-26.7285ZM55.1196 0L57.7637 0L30.6382-70.459L29.4326-70.459L29.4326-67.1323Z"/>
  </g>
  <line id="Baseline-M" style="fill:none;stroke:#27AAE1;opacity:1;stroke-width:0.5;" x1="263" x2="3036" y1="1126" y2="1126"/>
  <line id="Capline-M" style="fill:none;stroke:#27AAE1;opacity:1;stroke-width:0.5;" x1="263" x2="3036" y1="1055.54" y2="1055.54"/>
  <g id="H-reference" style="fill:#27AAE1;stroke:none;" transform="matrix(1 0 0 1 339 1556)">
   <path d="M0.993654 0L3.63775 0L29.3281-67.1323L30.0303-67.1323L30.0303-70.459L28.1226-70.459ZM11.6885-24.4799L46.9815-24.4799L46.2315-26.7285L12.4385-26.7285ZM55.1196 0L57.7637 0L30.6382-70.459L29.4326-70.459L29.4326-67.1323Z"/>
  </g>
  <line id="Baseline-L" style="fill:none;stroke:#27AAE1;opacity:1;stroke-width:0.5;" x1="263" x2="3036" y1="1556" y2="1556"/>
  <line id="Capline-L" style="fill:none;stroke:#27AAE1;opacity:1;stroke-width:0.5;" x1="263" x2="3036" y1="1485.54" y2="1485.54"/>
  <line id="right-margin-Black-S" style="fill:none;stroke:#00AEEF;stroke-width:0.5;opacity:1.0;" x1="2981.9" x2="2981.9" y1="600.785" y2="720.121"/>
  <line id="left-margin-Black-S" style="fill:none;stroke:#00AEEF;stroke-width:0.5;opacity:1.0;" x1="2884.9" x2="2884.9" y1="600.785" y2="720.121"/>
  <line id="right-margin-Regular-S" style="fill:none;stroke:#00AEEF;stroke-width:0.5;opacity:1.0;" x1="1496.29" x2="1496.29" y1="600.785" y2="720.121"/>
  <line id="left-margin-Regular-S" style="fill:none;stroke:#00AEEF;stroke-width:0.5;opacity:1.0;" x1="1403.39" x2="1403.39" y1="600.785" y2="720.121"/>
  <line id="right-margin-Ultralight-S" style="fill:none;stroke:#00AEEF;stroke-width:0.5;opacity:1.0;" x1="604.411" x2="604.411" y1="600.785" y2="720.121"/>
  <line id="left-margin-Ultralight-S" style="fill:none;stroke:#00AEEF;stroke-width:0.5;opacity:1.0;" x1="515.011" x2="515.011" y1="600.785" y2="720.121"/>
 </g>
 <g id="Symbols">
  <g id="Black-S" transform="matrix(1 0 0 1 2884.9 696)">
   <path class="monochrome-0 multicolor-0:tintColor hierarchical-0:primary SFSymbolsPreviewWireframe" d="M80.41 3.6L16.61 3.6C12.81 3.6 9.71 0.5 9.71-3.3L9.71-67C9.71-71.2 13.11-73.9 16.61-73.9C20.41-73.9 23.51-70.9 23.51-67L23.51-10.2L80.31-10.2C84.01-10.2 87.21-7.1 87.21-3.3C87.31 0 84.51 3.6 80.41 3.6Z"/>
   <path class="monochrome-1 multicolor-1:tintColor hierarchical-1:primary SFSymbolsPreviewWireframe" d="M74.51-14.1L58.11-35.3C57.11-36.7 55.91-40.3 57.91-43.2L67.31-53.9L52.71-67.3L62.51-77.1L81.11-59.7C84.31-56.5 83.11-52.6 82.01-50.9L72.21-39.5L85.81-22.3L74.51-14.1ZM87.31-20.5C87.31-15.6399 83.3701-11.7 78.51-11.7C73.6499-11.7 69.71-15.6399 69.71-20.5C69.71-25.3601 73.6499-29.3 78.51-29.3C83.3701-29.3 87.31-25.3601 87.31-20.5ZM73.61-39.3C73.61-34.4399 69.6701-30.5 64.81-30.5C59.9499-30.5 56.01-34.4399 56.01-39.3C56.01-44.1601 59.9499-48.1 64.81-48.1C69.6701-48.1 73.61-44.1601 73.61-39.3ZM83.91-54.8C83.91-49.9399 79.9701-46 75.11-46C70.2499-46 66.31-49.9399 66.31-54.8C66.31-59.6601 70.2499-63.6 75.11-63.6C79.9701-63.6 83.91-59.6601 83.91-54.8ZM68.41-70.2C68.41-65.3399 64.4701-61.4 59.61-61.4C54.7499-61.4 50.81-65.3399 50.81-70.2C50.81-75.0601 54.7499-79 59.61-79C64.4701-79 68.41-75.0601 68.41-70.2Z"/>
   <path class="monochrome-2 multicolor-2:tintColor hierarchical-2:primary SFSymbolsPreviewWireframe" d="M44.41-29.3L32.01-29.3C28.21-29.3 25.11-32.4 25.11-36.2C25.11-40 28.21-43.1 32.01-43.1L44.41-43.1C48.21-43.1 51.31-40 51.31-36.2C51.31-32.4 48.31-29.3 44.41-29.3ZM39.21-60.2L32.01-60.2C28.21-60.2 25.11-63.3 25.11-67.1C25.11-70.9 28.21-74 32.01-74L39.21-74C43.01-74 46.11-70.9 46.11-67.1C46.11-63.3 43.11-60.2 39.21-60.2ZM49.61-44.8L32.01-44.8C28.21-44.8 25.11-47.9 25.11-51.7C25.11-55.5 28.21-58.6 32.01-58.6L49.61-58.6C53.41-58.6 56.51-55.5 56.51-51.7C56.51-47.9 53.51-44.8 49.61-44.8ZM54.71-13.9L32.01-13.9C28.21-13.9 25.11-17 25.11-20.8C25.11-24.6 28.21-27.7 32.01-27.7L54.71-27.7C58.51-27.7 61.61-24.6 61.61-20.8C61.61-17 58.61-13.9 54.71-13.9Z"/>
  </g>
  <g id="Regular-S" transform="matrix(1 0 0 1 1403.39 696)">
   <path class="monochrome-0 multicolor-0:tintColor hierarchical-0:primary SFSymbolsPreviewWireframe" d="M78.36 0.7L14.66 0.7C12.36 0.7 10.56-1.1 10.56-3.4L10.56-67.1C10.56-69.4 12.36-71.2 14.66-71.2C16.96-71.2 18.76-69.4 18.76-67.1L18.76-7.5L78.36-7.5C80.66-7.5 82.46-5.7 82.46-3.4C82.46-1.1 80.66 0.7 78.36 0.7Z"/>
   <path class="monochrome-1 multicolor-1:tintColor hierarchical-1:primary SFSymbolsPreviewWireframe" d="M73.16-13.6L59.46-32.5C58.46-33.9 58.36-35.8 59.36-37.2L67.76-49.8L54.76-62.8L60.56-68.6L75.96-53.2C77.36-51.8 77.56-49.6 76.46-48L67.76-35L79.76-18.5L73.16-13.6ZM82.46-16.1C82.46-12.7863 79.7737-10.1 76.46-10.1C73.1463-10.1 70.46-12.7863 70.46-16.1C70.46-19.4137 73.1463-22.1 76.46-22.1C79.7737-22.1 82.46-19.4137 82.46-16.1ZM68.76-34.9C68.76-31.5863 66.0737-28.9 62.76-28.9C59.4463-28.9 56.76-31.5863 56.76-34.9C56.76-38.2137 59.4463-40.9 62.76-40.9C66.0737-40.9 68.76-38.2137 68.76-34.9ZM79.06-50.3C79.06-46.9863 76.3737-44.3 73.06-44.3C69.7463-44.3 67.06-46.9863 67.06-50.3C67.06-53.6137 69.7463-56.3 73.06-56.3C76.3737-56.3 79.06-53.6137 79.06-50.3ZM63.66-65.7C63.66-62.3863 60.9737-59.7 57.66-59.7C54.3463-59.7 51.66-62.3863 51.66-65.7C51.66-69.0137 54.3463-71.7 57.66-71.7C60.9737-71.7 63.66-69.0137 63.66-65.7Z"/>
   <path class="monochrome-2 multicolor-2:tintColor hierarchical-2:primary SFSymbolsPreviewWireframe" d="M42.46-32.2L30.06-32.2C27.76-32.2 25.96-34 25.96-36.3C25.96-38.6 27.76-40.4 30.06-40.4L42.46-40.4C44.76-40.4 46.56-38.6 46.56-36.3C46.56-34 44.66-32.2 42.46-32.2ZM37.26-63L30.06-63C27.76-63 25.96-64.8 25.96-67.1C25.96-69.4 27.76-71.2 30.06-71.2L37.26-71.2C39.56-71.2 41.36-69.4 41.36-67.1C41.36-64.8 39.56-63 37.26-63ZM47.56-47.6L30.06-47.6C27.76-47.6 25.96-49.4 25.96-51.7C25.96-54 27.76-55.8 30.06-55.8L47.56-55.8C49.86-55.8 51.66-54 51.66-51.7C51.66-49.4 49.86-47.6 47.56-47.6ZM52.66-16.7L30.06-16.7C27.76-16.7 25.96-18.5 25.96-20.8C25.96-23.1 27.76-24.9 30.06-24.9L52.66-24.9C54.96-24.9 56.76-23.1 56.76-20.8C56.76-18.5 54.86-16.7 52.66-16.7Z"/>
  </g>
  <g id="Ultralight-S" transform="matrix(1 0 0 1 515.011 696)">
   <path class="monochrome-0 multicolor-0:tintColor hierarchical-0:primary SFSymbolsPreviewWireframe" d="M76.575-2.1L12.875-2.1C12.175-2.1 11.575-2.6 11.575-3.4L11.575-67.1C11.575-67.8 12.075-68.4 12.875-68.4C13.475-68.4 14.175-67.9 14.175-67.1L14.175-4.6L76.675-4.6C77.375-4.6 77.975-4 77.975-3.3C77.875-2.9 77.475-2.1 76.575-2.1Z"/>
   <path class="monochrome-1 multicolor-1:tintColor hierarchical-1:primary SFSymbolsPreviewWireframe" d="M73.075-16.2L60.075-34.2C59.475-34.8 59.775-35.4 60.075-35.7L69.775-50.3L55.375-64.4L57.175-66.2L72.175-51.2C72.575-50.8 72.775-50 72.375-49.6L62.575-34.9L75.075-17.7L73.075-16.2ZM77.975-16.1C77.975-14.3327 76.5423-12.9 74.775-12.9C73.0077-12.9 71.575-14.3327 71.575-16.1C71.575-17.8673 73.0077-19.3 74.775-19.3C76.5423-19.3 77.975-17.8673 77.975-16.1ZM64.275-34.9C64.275-33.1327 62.8423-31.7 61.075-31.7C59.3077-31.7 57.875-33.1327 57.875-34.9C57.875-36.6673 59.3077-38.1 61.075-38.1C62.8423-38.1 64.275-36.6673 64.275-34.9ZM74.475-50.3C74.475-48.5327 73.0423-47.1 71.275-47.1C69.5077-47.1 68.075-48.5327 68.075-50.3C68.075-52.0673 69.5077-53.5 71.275-53.5C73.0423-53.5 74.475-52.0673 74.475-50.3ZM59.075-65.7C59.075-63.9327 57.6423-62.5 55.875-62.5C54.1077-62.5 52.675-63.9327 52.675-65.7C52.675-67.4673 54.1077-68.9 55.875-68.9C57.6423-68.9 59.075-67.4673 59.075-65.7Z"/>
   <path class="monochrome-2 multicolor-2:tintColor hierarchical-2:primary SFSymbolsPreviewWireframe" d="M40.575-35L28.275-35C27.575-35 26.975-35.6 26.975-36.3C26.975-37 27.575-37.6 28.275-37.6L40.575-37.6C41.275-37.6 41.875-37 41.875-36.3C41.875-35.6 41.275-35 40.575-35ZM35.475-65.8L28.275-65.8C27.575-65.8 26.975-66.4 26.975-67.1C26.975-67.8 27.575-68.4 28.275-68.4L35.475-68.4C36.175-68.4 36.775-67.8 36.775-67.1C36.775-66.4 36.175-65.8 35.475-65.8ZM45.775-50.4L28.275-50.4C27.575-50.4 26.975-51 26.975-51.7C26.975-52.4 27.575-53 28.275-53L45.775-53C46.475-53 47.075-52.4 47.075-51.7C47.075-51 46.475-50.4 45.775-50.4ZM50.875-19.6L28.275-19.6C27.575-19.6 26.975-20.2 26.975-20.9C26.975-21.6 27.575-22.2 28.275-22.2L50.875-22.2C51.575-22.2 52.175-21.6 52.175-20.9C52.175-20.2 51.575-19.6 50.875-19.6Z"/>
  </g>
 </g>
</svg>
