<svg width="160" height="74" viewBox="0 0 160 74" fill="none" xmlns="http://www.w3.org/2000/svg">
<rect y="4.25" width="160" height="69" rx="12" fill="#89D1FF"/>
<path d="M78.4983 65.0499L30 45.5061L62.0592 35.7593L78.4983 43.6186V65.0499Z" fill="#1B90FF"/>
<path d="M66.5835 17.1469L78.4983 65.0502L124.873 41.6036L115.787 0.87793L66.5835 17.1469Z" fill="#0070F2"/>
<path d="M66.1967 16.9402L66.5835 17.1467L115.787 0.877745L115.663 0.75L66.1967 16.9402Z" fill="#0070F2"/>
<path d="M57.4836 56.5672L66.1967 16.9399L66.5835 17.1465L74.726 49.8863L57.4836 56.5672Z" fill="#0040B0"/>
<path d="M67.2042 17.5741L77.9455 61.2809L123.92 38.9923L115.58 1.60596L67.2042 17.5741Z" fill="#0040B0"/>
<path d="M67.5492 17.4621L78.2917 61.17L124.265 38.8815L115.925 1.49512L67.5492 17.4621Z" fill="#56BDFF"/>
<path d="M115.925 1.49512L118.965 12.9301C120.384 18.2703 122.78 23.3001 126.031 27.7688L130 33.2249L84.0563 55.2424C77.3487 47.2804 72.5665 37.8786 70.0812 27.7676L67.5492 17.4645L115.925 1.49512Z" fill="white"/>
<path d="M103.13 8.07194C103.467 7.63384 103.504 7.16828 103.523 6.91162L102.527 7.24229C102.499 7.33063 102.456 7.41896 102.391 7.50372C102.325 7.58847 102.154 7.71501 102 7.81529L102.134 8.78819L102.143 8.80609C102.245 8.75834 102.861 8.4229 103.131 8.07194H103.13Z" fill="#00144A"/>
<path fill-rule="evenodd" clip-rule="evenodd" d="M67.5492 17.4621L69.1608 24.0189L117.365 6.91175L115.925 1.49512L67.5492 17.4621Z" fill="#C35500"/>
<path d="M81.4801 15.8213L79.7312 16.4087L79.5223 14.8962L81.2879 14.3101L81.4801 15.8213Z" fill="#0040B0"/>
<path d="M81.4801 15.8213L81.196 15.9168L80.9871 14.4032L81.2879 14.3101L81.4801 15.8213Z" fill="#00144A"/>
<path d="M80.382 11.4114C80.2005 11.1882 79.7159 10.596 78.9686 10.645C78.2834 10.6891 77.8202 11.2407 77.6316 11.6991C77.4358 12.1743 77.5707 12.9253 77.6316 13.1987L78.5221 12.9074C78.4732 12.6447 78.429 12.2137 78.4947 12.0549C78.5591 11.8973 78.7549 11.5953 79.0295 11.5774C79.3016 11.5571 79.5332 11.8484 79.6598 12.0024C79.9964 12.4155 80.1611 13.8935 80.1468 14.1812C80.1325 14.3818 80.1146 14.6301 79.9451 14.8522C79.8364 14.9931 79.6836 15.1029 79.5535 15.1638L79.6968 16.1559C79.7994 16.1081 80.4154 15.7727 80.6852 15.4217C81.0266 14.9775 81.06 14.5024 81.0779 14.2481C81.0887 14.0941 81.0099 12.1827 80.3832 11.4138L80.382 11.4114Z" fill="#00144A"/>
<path d="M103.903 8.35943L102.156 8.94794L101.946 7.43547L103.711 6.84814L103.903 8.35943Z" fill="#0040B0"/>
<path d="M103.903 8.35943L103.621 8.45492L103.41 6.94245L103.711 6.84814L103.903 8.35943Z" fill="#00144A"/>
<path d="M102.829 4.06425C102.648 3.841 102.163 3.24883 101.416 3.29778C100.731 3.34196 100.267 3.89353 100.079 4.35198C99.883 4.82714 100.018 5.57809 100.079 5.85149L100.969 5.56019C100.92 5.29753 100.876 4.86654 100.942 4.70776C101.006 4.55016 101.202 4.24811 101.477 4.2302C101.749 4.20991 101.98 4.50121 102.107 4.65523C102.444 5.06831 102.608 6.54633 102.594 6.83406C102.58 7.03463 102.562 7.28296 102.392 7.50502C102.284 7.6459 102.131 7.75573 102.001 7.81662L102.144 8.80873C102.247 8.76098 102.863 8.4255 103.132 8.0745C103.474 7.63037 103.507 7.15521 103.525 6.90091C103.536 6.7469 103.457 4.8355 102.83 4.06664L102.829 4.06425Z" fill="#00144A"/>
<path d="M109.636 31.8471L124.434 25.4157C124.326 25.2461 124.22 25.0754 124.114 24.9035L109.382 31.3063C107.99 28.3108 106.8 25.202 105.751 22.0501L120.091 16.5356C120.024 16.3482 119.956 16.1607 119.891 15.9733L105.565 21.4818C104.283 17.5599 103.211 13.5819 102.232 9.6875L101.657 9.84748C102.638 13.7586 103.716 17.7545 105.007 21.6955L88.6547 27.9837C87.3045 23.9126 86.1884 19.7758 85.1713 15.7297L84.5959 15.8897C85.6154 19.9525 86.7387 24.1084 88.096 28.1986L72.0628 34.3638C72.1297 34.5512 72.1989 34.7375 72.2669 34.9249L88.287 28.7645C89.4366 32.1659 90.7533 35.5159 92.3135 38.7227L77.1195 45.3272C77.2198 45.5003 77.3189 45.6746 77.4203 45.8477L92.5773 39.2599C94.1901 42.5025 96.0583 45.5923 98.2619 48.4313L98.8134 48.1663C96.605 45.3356 94.7356 42.2554 93.124 39.0211L109.087 32.0835C110.54 35.1446 112.206 38.0804 114.153 40.8155L114.701 40.5529C112.752 37.8273 111.084 34.8987 109.635 31.8447L109.636 31.8471ZM92.8626 38.4863C91.3048 35.2879 89.9917 31.945 88.8457 28.5508L105.194 22.265C106.246 25.4228 107.439 28.5401 108.834 31.5439L92.8626 38.4863Z" fill="#C35500"/>
</svg>
