<svg width="45" height="45" viewBox="0 0 45 45" fill="none" xmlns="http://www.w3.org/2000/svg">
<path d="M42.9929 19.6819C42.4734 19.4334 39.6531 18.0798 39.1336 17.8313C38.7044 17.628 38.2075 17.5377 37.6444 17.5603H37.5992C37.2604 17.0859 36.3811 16.3195 33.9884 15.3708L28.03 12.4602C28.03 12.4602 26.97 12.4151 25.6825 12.8894C25.3888 12.9346 25.0952 12.9798 24.779 13.0701C24.7564 13.0701 24.7112 13.0701 24.6886 13.0927C23.7851 12.7313 23.1542 12.4828 23.0187 12.4376C22.7025 12.3247 22.3863 12.2795 22.049 12.3021V12.2795C22.049 12.2795 22.0265 12.2344 22.0039 12.2118C22.0039 12.2118 21.9813 12.1666 21.9587 12.1666L21.9135 12.1214L21.8683 12.0762L21.8232 12.0311C21.8232 12.0311 21.778 12.0085 21.778 11.9859C21.778 11.9859 21.7328 11.9633 21.7328 11.9407C21.7328 11.9407 21.6876 11.9181 21.6651 11.8955C21.6651 11.8955 21.6199 11.8955 21.5973 11.8729C21.3036 11.7374 20.1984 11.1953 19.9048 11.0598C19.4079 10.8339 18.7318 10.8339 17.9864 11.1727C16.4747 11.8504 15.2549 13.4977 15.2549 14.8965C15.2549 15.5967 15.5486 16.092 16.0455 16.3179C16.294 16.4309 17.0603 16.8149 17.4895 17.0182C17.4669 17.0182 17.4443 17.0407 17.4217 17.0633C17.1733 17.1763 16.9248 17.2892 16.6763 17.4247C15.3453 18.0572 13.8787 18.801 12.9977 19.8626C12.3427 19.6367 11.373 19.5238 10.2001 19.9304C9.81607 19.953 9.40949 20.0207 9.00452 20.1337C8.95934 20.1337 8.91417 20.1563 8.8464 20.1788C8.23653 19.953 7.85415 19.7949 7.74121 19.7497C7.42497 19.6367 7.13133 19.6142 6.8151 19.6367C6.8151 19.6367 6.8151 19.6142 6.79251 19.5916C6.79251 19.5916 6.76993 19.5464 6.74734 19.5464C6.74734 19.5464 6.72475 19.5012 6.70216 19.5012C6.70216 19.5012 6.67957 19.4786 6.65699 19.456C6.65699 19.456 6.6344 19.4334 6.61181 19.4109C6.61181 19.4109 6.58922 19.3883 6.56663 19.3657C6.56663 19.3657 6.52146 19.3431 6.52146 19.3205C6.52146 19.3205 6.47628 19.2979 6.47628 19.2753C6.47628 19.2753 6.43111 19.2527 6.40852 19.2302C6.40852 19.2302 6.36334 19.2302 6.34075 19.2076C6.04711 19.072 4.94192 18.5299 4.64827 18.3944C4.15134 18.1685 3.47531 18.1685 2.72991 18.5073C1.21813 19.185 0 20.8323 0 22.2311C0 22.9313 0.293643 23.4267 0.790578 23.6526C1.08422 23.7881 2.16683 24.3076 2.46047 24.4657H3.09293C3.22846 24.7368 3.43175 24.9627 3.70281 25.1434C3.79316 25.1885 4.15457 25.4144 4.69506 25.7306V25.7758C4.808 26.2953 5.01129 26.7681 5.30494 27.1747C5.64376 27.9878 6.31978 28.709 7.24589 29.1834C7.26847 29.1834 7.29106 29.206 7.31365 29.2285C9.86447 30.537 14.3095 32.7264 15.7309 32.862C15.9568 33.2686 16.2956 33.5622 16.7005 33.7655C17.1975 34.014 19.9952 35.345 20.5373 35.6161C20.5373 35.6161 20.5824 35.6161 20.605 35.6387H21.1471C21.7118 35.7516 22.3879 35.7064 23.0881 35.4806C23.1333 35.4806 23.1784 35.458 23.2236 35.4354C23.2914 35.4354 23.3366 35.3902 23.4043 35.3676C23.5173 35.3224 23.6302 35.2773 23.7657 35.2321C26.3166 34.1043 28.3914 31.2598 28.3914 28.9123C28.3914 27.7394 27.8719 26.9036 27.0378 26.497C26.5182 26.2485 23.698 24.8949 23.1784 24.6464C22.7719 24.4657 22.3201 24.3528 21.8022 24.3754C21.5763 24.0365 21.0794 23.63 20.1775 23.2024C18.5076 22.3892 19.3417 22.4344 19.929 21.8713C20.0871 21.7132 20.2001 21.5777 20.3582 21.4873C20.3582 21.4873 20.4034 21.4873 20.4259 21.5099C20.5163 21.5551 20.7873 21.6906 21.081 21.8262C21.1036 21.8262 21.1262 21.8262 21.1488 21.8487C21.1939 21.8713 21.2391 21.8939 21.2843 21.9165H21.3069C21.3295 21.9165 21.3746 21.9391 21.3972 21.9617C21.5102 22.0294 21.6231 22.0746 21.7135 22.1198C21.7135 22.1198 21.7586 22.1198 21.7586 22.1424H21.8264C21.9619 22.2102 22.12 22.2553 22.3007 22.2553C22.4814 22.2553 22.6847 22.2102 22.888 22.1424C22.9558 22.1424 23.001 22.0972 23.0687 22.0746H23.0913C23.272 22.165 23.4527 22.2553 23.656 22.3683C23.7012 22.3909 23.7464 22.4134 23.7915 22.436C23.7915 22.436 23.8367 22.436 23.8367 22.4586C23.8593 22.4586 23.9045 22.4812 23.9271 22.5038C23.9271 22.5038 23.9722 22.5038 23.9722 22.5264C23.9948 22.5264 24.04 22.549 24.0626 22.5716C24.0626 22.5716 24.1078 22.5716 24.1078 22.5941C24.1304 22.5941 24.1755 22.6167 24.1981 22.6393C24.1981 22.6393 24.2207 22.6393 24.2433 22.6619C24.2659 22.6619 24.3111 22.6845 24.3337 22.7071H24.3788C24.424 22.7071 24.4692 22.7523 24.4918 22.7748C24.6725 22.8652 24.8532 22.9556 25.0113 23.0459H25.0339C25.0565 23.0459 25.1016 23.0685 25.1242 23.0911C25.1242 23.0911 25.1694 23.0911 25.1694 23.1137C25.192 23.1137 25.2146 23.1363 25.2598 23.1588C25.2598 23.1588 25.3049 23.1588 25.3275 23.1814C25.3501 23.1814 25.3953 23.204 25.4179 23.2266C25.4179 23.2266 25.4405 23.2266 25.4631 23.2492C25.4856 23.2492 25.5308 23.2718 25.5534 23.2944C25.5534 23.2944 25.5986 23.2944 25.5986 23.317C25.6212 23.317 25.6663 23.3395 25.6889 23.3621H25.7341C25.847 23.4073 25.96 23.4751 26.0503 23.5203H26.0955C26.1181 23.5203 26.1633 23.5428 26.1859 23.5654C26.1859 23.5654 26.231 23.5654 26.231 23.588C26.2536 23.588 26.2762 23.6106 26.3214 23.6332C26.3214 23.6332 26.3666 23.6332 26.3666 23.6558C26.3892 23.6558 26.4117 23.6784 26.4569 23.701C26.4569 23.701 26.5021 23.701 26.5021 23.7235C26.5247 23.7235 26.5473 23.7461 26.5924 23.7687C26.5924 23.7687 26.6376 23.7687 26.6376 23.7913C26.6602 23.7913 26.6828 23.8139 26.728 23.8365C26.728 23.8365 26.7506 23.8365 26.7732 23.8591C26.7957 23.8591 26.8409 23.8817 26.8635 23.9042H26.9087C27.0216 23.9494 27.112 23.9946 27.2249 24.0624H27.2701C27.2927 24.0624 27.3378 24.0849 27.3604 24.1075H27.4056C27.4282 24.1075 27.4508 24.1301 27.496 24.1527C27.496 24.1527 27.5411 24.1527 27.5411 24.1753C27.5637 24.1753 27.5863 24.1979 27.6315 24.2205C27.6315 24.2205 27.6767 24.2205 27.6767 24.2431C27.6993 24.2431 27.7218 24.2657 27.767 24.2882H27.8122C27.8348 24.2882 27.8574 24.3108 27.9025 24.3334H27.9477C27.9703 24.3334 28.0155 24.356 28.0381 24.3786H28.0607C28.1736 24.4238 28.264 24.4689 28.3769 24.5141H28.4221C28.4447 24.5141 28.4672 24.5367 28.5124 24.5593H28.5576C28.5802 24.5593 28.6028 24.5593 28.6254 24.5819H28.6705C28.6931 24.5819 28.7157 24.5819 28.7383 24.6045H28.7835C28.8061 24.6045 28.8287 24.6045 28.8512 24.6271H28.8964C28.919 24.6271 28.9416 24.6271 28.9642 24.6496H29.0094C29.0319 24.6496 29.0545 24.6496 29.0997 24.6722C29.1675 24.6948 29.2352 24.7174 29.303 24.74C29.3256 24.74 29.3482 24.74 29.3933 24.7626H29.4385C29.4611 24.7626 29.4837 24.7626 29.5063 24.7852H29.5515C29.5741 24.7852 29.5966 24.7852 29.6192 24.8078H29.6644C29.687 24.8078 29.7096 24.8078 29.7322 24.8303H29.9806C30.071 24.8529 30.1613 24.8755 30.2291 24.8981H30.8842C30.9519 24.8981 31.0197 24.8981 31.0874 24.9207H31.1778C31.2456 24.9207 31.3133 24.9207 31.3811 24.9659C31.3811 24.9659 31.4263 24.9659 31.4489 24.9885C31.6747 25.395 32.0136 25.7113 32.4411 25.913C32.938 26.1614 35.7357 27.4925 36.2778 27.7636C36.2778 27.7636 36.323 27.7636 36.3456 27.7861H36.7522C37.362 27.9443 38.1058 27.8991 38.8964 27.6506C38.9868 27.628 39.0771 27.5828 39.1675 27.5603C39.2804 27.5151 39.3933 27.4699 39.5289 27.4247C42.0797 26.297 44.1546 23.4525 44.1546 21.105C44.1546 19.932 43.635 19.0962 42.8009 18.6897L43.0026 19.6835L42.9929 19.6819Z" fill="#101619"/>
<mask id="mask0_4413_116648" style="mask-type:luminance" maskUnits="userSpaceOnUse" x="0" y="8" width="45" height="29">
<path d="M45 8.23438H0V36.763H45V8.23438Z" fill="white"/>
</mask>
<g mask="url(#mask0_4413_116648)">
<path d="M7.44245 23.9346C7.87676 24.1952 8.46152 24.1518 9.1347 23.7609C10.4578 23.0009 11.5219 21.1566 11.5219 19.6164C11.5219 18.8563 11.2613 18.315 10.827 18.0761C10.5664 17.9241 9.61244 17.3812 9.35185 17.2292C8.91754 16.9904 8.33278 17.0121 7.6596 17.403C6.33652 18.163 5.27246 20.0072 5.27246 21.5475C5.27246 22.3075 5.53305 22.8489 5.96736 23.0877C6.22794 23.2397 7.18186 23.7826 7.44245 23.9346Z" fill="#046C7C"/>
<path d="M20.8739 15.6456C21.3082 15.9062 21.893 15.8628 22.5661 15.4719C23.8892 14.7119 24.9533 12.8676 24.9533 11.3274C24.9533 10.5673 24.6927 10.026 24.2584 9.78709C23.9978 9.63508 23.0439 9.0922 22.7833 8.94019C22.349 8.70132 21.7642 8.72304 21.0911 9.11391C19.768 9.87395 18.7039 11.7182 18.7039 13.2585C18.7039 14.0185 18.9645 14.5599 19.3988 14.7987C19.6594 14.9507 20.6133 15.4936 20.8739 15.6456Z" fill="#046C7C"/>
<path d="M16.36 21.3328C16.2948 21.2894 13.3447 19.9446 11.4787 19.1194C11.3918 18.6417 11.153 18.2942 10.8272 18.1003C10.3929 17.8615 9.80812 17.8832 9.13494 18.2741C7.81185 19.0341 6.7478 20.8784 6.7478 22.4186C6.7478 23.1786 7.00839 23.72 7.44269 23.9588C7.74671 24.1326 8.13759 24.176 8.54863 24.0457C10.2192 25.2385 12.9104 27.1696 12.9739 27.213C13.2997 27.3651 14.2753 26.4747 14.7965 26.1288L16.315 23.5028C16.3802 22.8731 16.6407 21.5717 16.3584 21.3763V21.3328H16.36Z" fill="#00144A"/>
<path d="M30.2233 13.2787C30.1581 13.2353 26.8388 11.7168 24.9077 10.8265C24.8208 10.327 24.5819 9.97955 24.2562 9.80737C23.8219 9.5685 23.2371 9.59022 22.564 9.9811C21.2409 10.7411 20.1768 12.5854 20.1768 14.1256C20.1768 14.8857 20.4374 15.427 20.8717 15.6659C21.1757 15.8396 21.5883 15.883 22.0211 15.731C23.7568 16.9673 26.7504 19.0938 26.8372 19.1372C27.163 19.2892 28.182 18.4206 28.7032 18.0747L30.2217 15.4487C30.2652 14.819 30.5257 13.4959 30.2217 13.3005V13.2787H30.2233Z" fill="#00144A"/>
<path d="M24.193 17.6622C24.193 17.293 24.2364 16.9456 24.3016 16.5779C24.3667 16.2103 24.4536 15.8613 24.5839 15.5154C24.6925 15.168 24.8445 14.8205 25.0182 14.4964C25.1919 14.1722 25.3656 13.8449 25.5828 13.5424C25.7999 13.24 26.0171 12.9561 26.2777 12.6955C26.5383 12.435 26.7989 12.1961 27.1029 11.9789C27.3635 11.8052 27.624 11.6315 27.9063 11.5012C26.6484 10.9149 25.7364 10.4821 25.5843 10.417C25.0415 10.1998 24.5218 10.2433 23.8921 10.5473C23.1321 10.9164 22.4604 11.5881 21.9827 12.4132C21.5267 13.2384 21.2661 14.1489 21.3312 14.9958C21.3964 15.6907 21.6352 16.1886 22.0696 16.5143C22.1998 16.6012 23.0452 17.2092 24.2178 18.0112V17.642L24.1961 17.6637L24.193 17.6622Z" fill="#046C7C"/>
<path d="M10.8271 25.9528C10.8706 25.6053 10.914 25.2579 11.0009 24.9337C11.066 24.608 11.1529 24.2822 11.2614 23.958C11.37 23.654 11.4786 23.35 11.6306 23.0476C11.7609 22.7653 11.9346 22.483 12.1083 22.2007C12.2821 21.9401 12.4775 21.6795 12.6946 21.4406C12.9118 21.2017 13.1507 20.9846 13.3895 20.7674C13.6501 20.5503 13.9324 20.3766 14.2147 20.2028C14.3884 20.0943 14.5839 20.0074 14.7793 19.9205C13.3694 19.2691 12.3053 18.7712 12.1533 18.706C11.6321 18.4889 11.1342 18.554 10.5045 18.858C9.76618 19.2272 9.09455 19.9205 8.61681 20.724C8.16079 21.5492 7.87849 22.4597 7.94364 23.2849C7.98707 23.9798 8.20422 24.4559 8.63853 24.7817C8.76882 24.8685 9.63588 25.4983 10.8085 26.3219C10.8085 26.1916 10.8302 26.0613 10.8519 25.9093L10.8302 25.9528H10.8271Z" fill="#046C7C"/>
<path d="M9.48211 25.4729C9.63412 26.3415 9.98157 27.0783 10.4794 27.6429L10.5012 27.6646L10.5446 27.708C10.5446 27.708 10.5663 27.7297 10.588 27.7515L11.4132 28.662L11.3915 28.6402C11.3915 28.6402 11.3698 28.6185 11.3481 28.5968C11.3046 28.5534 11.2829 28.5099 11.2395 28.4665C11.1743 28.3797 11.1092 28.2711 11.044 28.1842C10.7183 27.663 10.4794 27.0566 10.3709 26.3834C10.3274 26.0359 10.284 25.6885 10.3057 25.3426C10.3709 22.8252 12.0414 20.331 14.4285 19.4624C15.0583 19.2235 15.6865 19.1367 16.2945 19.1801H16.5334L16.7723 19.2235H16.8591L15.6229 18.9195C15.5143 18.8978 15.4057 18.8761 15.2754 18.8544C14.624 18.7458 13.9089 18.8109 13.1923 19.0932C10.9138 19.9184 9.33011 22.3691 9.39525 24.7997V25.1472C9.39525 25.2557 9.39525 25.3643 9.43868 25.4729H9.48211Z" fill="#00144A"/>
<path d="M23.3894 17.4455C23.5414 18.3141 23.8888 19.0509 24.3867 19.6155L24.4084 19.6372L24.4519 19.6806L24.4953 19.7241L25.3205 20.6346L25.2988 20.6128L25.2553 20.5694C25.2119 20.526 25.1902 20.4825 25.1468 20.4391C25.0816 20.3523 25.0165 20.2437 24.9513 20.1568C24.6256 19.6356 24.3867 19.0292 24.2781 18.356C24.2347 18.0085 24.1913 17.6611 24.213 17.3152C24.2781 14.7978 25.9487 12.3036 28.3358 11.435C28.9656 11.1961 29.5938 11.1093 30.2018 11.1527H30.4406L30.6795 11.1961H30.7664L29.5302 10.8921C29.4216 10.8704 29.313 10.8487 29.1827 10.827C28.5312 10.7184 27.8162 10.7835 27.0996 11.0658C24.821 11.891 23.2374 14.3418 23.3025 16.7723V17.1198C23.3025 17.2283 23.3025 17.3369 23.3459 17.4455H23.3894Z" fill="#00144A"/>
<path d="M35.1934 13.4117L31.2008 11.068C30.1166 10.4382 28.7703 10.3948 27.6861 11.0028C26.9912 11.3937 26.2544 12.0002 25.6246 12.9774C24.3884 14.8868 24.2147 15.2776 24.2364 15.3428C23.9324 15.3428 21.6104 15.4079 19.442 17.4693L18.3795 18.5101L17.6629 19.357C17.6629 19.357 15.4494 16.883 12.0432 20.5933C10.503 22.2855 9.96007 23.9995 9.85149 25.366C9.7212 26.9279 10.503 28.4248 11.8478 29.2282C14.3869 30.7902 18.9859 33.503 19.5288 32.9384C20.2889 32.1567 20.354 26.1477 24.345 25.1488C24.345 25.1488 25.7984 24.0429 23.1522 22.5228C21.6988 21.6759 22.4139 21.6976 22.935 21.0694C23.4779 20.3963 23.5865 19.9852 26.2544 21.5906C29.0091 23.2611 32.0695 25.2791 33.3708 24.8231C34.2177 24.5191 38.5344 16.3619 38.5344 16.3619C38.5344 16.3619 38.9036 15.1474 35.2151 13.4334L35.1934 13.4117Z" fill="#046C7C"/>
<path d="M40.2918 16.8626C39.8792 16.6238 37.7309 15.3875 37.3199 15.1487C36.6467 14.7578 35.6928 14.8229 34.6722 15.4093C32.8713 16.45 31.3745 18.7503 31.0054 20.9203C30.9619 21.1157 30.7882 21.246 30.5928 21.2243C30.8317 17.5792 30.115 17.5575 30.115 17.5575C28.5314 17.1667 26.6871 15.583 26.166 15.7784C25.6448 15.9739 25.6882 18.0353 25.5362 18.057C25.1236 18.1004 23.6268 19.7927 23.2142 19.7709C22.9319 19.7709 26.4467 21.5935 26.1644 21.5501C26.2078 21.5501 26.2295 21.5935 26.273 21.6152C28.7253 23.0903 31.3932 24.8477 32.8682 24.9128C32.9334 24.9128 32.9985 24.9128 33.042 24.9563C33.802 25.3906 34.7125 25.9102 34.9948 26.0839C35.6028 26.4314 36.4482 26.4314 37.3602 25.9753C37.4471 25.9319 37.5557 25.8668 37.6425 25.8233C39.7257 24.6305 41.3962 21.7222 41.3962 19.3149C41.3962 18.1221 40.9836 17.2752 40.2903 16.8844V16.8626H40.2918Z" fill="#00144A"/>
<path d="M43.0682 17.9676C42.6121 17.7071 40.1397 16.2754 39.6837 16.0148C38.9453 15.5805 37.9263 15.6456 36.8203 16.2971C34.5852 17.5985 32.7627 20.7441 32.7627 23.3267C32.7627 24.6281 33.2187 25.5401 33.9555 25.9527C34.3898 26.2133 36.8405 27.6232 37.3182 27.9055C37.9263 28.253 38.7282 28.2747 39.6185 27.9055C39.7054 27.8621 39.7922 27.8404 39.8574 27.7969C39.966 27.7535 40.0745 27.6884 40.1614 27.6232C42.3965 26.3219 44.2191 23.1762 44.2191 20.5936C44.2191 19.2923 43.763 18.3802 43.0263 17.9676H43.0697H43.0682Z" fill="#046C7C"/>
<path d="M36.2123 26.2974C35.3003 25.0612 34.5201 23.6714 34.4766 22.1095C34.4766 21.2843 34.6503 20.5041 34.9326 19.744C35.1932 19.0057 35.5407 18.3125 35.9951 17.661C36.2123 17.3353 36.4729 17.0312 36.7335 16.7504C36.9723 16.4898 37.2329 16.2727 37.4718 16.0121L37.5152 15.9688C37.2981 16.0555 37.0592 16.1641 36.8203 16.2944C34.5852 17.5958 32.7627 20.7414 32.7627 23.324C32.7627 24.6253 33.2187 25.5374 33.9555 25.95C34.3898 26.2106 36.8405 27.6205 37.3182 27.9028C37.4485 27.9897 37.6005 28.0331 37.7525 28.0765C37.1662 27.5337 36.69 26.9272 36.2123 26.2757V26.2974Z" fill="#00144A"/>
<path d="M43.5895 20.9168C43.5895 19.8326 43.2421 19.0725 42.6356 18.7251C42.0291 18.3776 41.1822 18.4428 40.2484 19.0074C38.3825 20.1133 36.8422 22.8045 36.7988 24.9745C36.7988 26.0587 37.1463 26.8187 37.7527 27.1662C38.3592 27.5136 39.2061 27.4485 40.1399 26.8839C42.0058 25.7562 43.5461 23.0868 43.5895 20.9168Z" fill="#00144A"/>
<path d="M42.5686 20.3298C42.5686 19.6132 42.308 18.9632 41.9388 18.5072C41.4394 18.4638 40.8546 18.6158 40.2466 18.985C38.3806 20.0909 36.8403 22.782 36.7969 24.952C36.7969 25.6686 36.9489 26.2534 37.2312 26.666C37.7958 26.7529 38.4892 26.666 39.1189 26.2968C40.9849 25.1692 42.5251 22.4997 42.5686 20.3298Z" fill="#222F3B"/>
<path d="M29.8779 17.3817C29.0527 16.8822 26.7974 15.5157 25.9722 15.0162C24.6057 14.191 22.6963 14.2996 20.6132 15.5808C19.3987 16.3191 18.0306 17.2514 16.9681 18.4442C16.9681 18.4876 16.9464 18.531 16.9247 18.5744C16.7944 19.0088 16.7292 19.4632 16.6641 19.8975C16.6424 20.0713 16.6206 20.245 16.5989 20.397C16.5772 20.5707 16.5338 20.7227 16.5121 20.8964C16.4252 21.2873 16.3601 21.6782 16.3601 22.0675V22.1761L17.1852 22.9796C18.4215 24.1724 20.4395 24.0204 21.4166 22.6104C21.4166 22.6104 21.4384 22.567 21.4601 22.5453C21.6772 22.2195 21.851 21.9589 21.9378 21.8504C21.9812 21.8069 22.0247 21.7418 22.0681 21.6984C22.1115 21.6549 22.155 21.6115 22.1984 21.5463C22.2418 21.5029 22.2853 21.4595 22.3287 21.3943C22.3721 21.3509 22.4156 21.2858 22.459 21.2423C22.7847 20.8732 23.1322 20.5474 23.4781 20.2233C23.5215 20.1798 23.5649 20.1364 23.6083 20.1147L23.6301 20.093C23.6735 20.0495 23.7169 20.0278 23.7604 19.9844C23.7604 19.9844 23.7821 19.9844 23.8038 19.9627C23.8472 19.9192 23.8906 19.8975 23.9341 19.8541L23.9775 19.8107C24.0209 19.789 24.0644 19.7455 24.0861 19.7238L24.1295 19.6804C24.1729 19.6587 24.1947 19.6152 24.2381 19.5935C24.2381 19.5935 24.2815 19.5718 24.3032 19.5501C24.3467 19.5284 24.3684 19.5067 24.4118 19.4632C24.4335 19.4632 24.4552 19.4198 24.477 19.4198C24.4987 19.4198 24.5421 19.3764 24.5638 19.3546C24.629 19.3112 24.6724 19.2895 24.7375 19.2461C26.2344 18.2704 27.5792 18.0098 28.6432 18.3356L29.3164 18.7482C29.5118 18.8785 29.7724 18.7916 29.9027 18.5962C29.9896 18.4224 30.0981 18.227 30.185 18.075C30.2719 17.923 30.2284 17.6624 30.0547 17.5538C29.881 17.4452 29.9244 17.467 29.8376 17.4235L29.881 17.3801L29.8779 17.3817Z" fill="#046C7C"/>
<path d="M21.1777 22.4804C20.6782 22.3936 20.202 22.2633 19.746 22.0678C19.3551 21.8941 18.9643 21.6553 18.6835 21.3295C18.4028 21.0038 18.2275 20.5912 18.184 20.1802C18.1189 19.6373 18.2492 19.0742 18.4446 18.5748C18.7269 17.8365 19.1178 17.1431 19.5723 16.4917C19.7026 16.3179 19.8112 16.1442 19.9632 15.9922C18.6184 16.8174 17.1433 17.8147 16.4267 19.2898C16.2312 19.7024 16.1009 20.1786 15.9923 20.6346C15.8838 21.0907 15.9055 21.3947 16.0358 21.7406C16.1444 21.9794 16.2964 22.1749 16.4701 22.3703C17.1433 23.1086 17.9669 23.7585 19.0092 23.802C19.8996 23.8454 20.7883 23.4328 21.3312 22.7178C21.3529 22.696 21.3747 22.6526 21.3964 22.6309C21.3964 22.6309 21.4181 22.5875 21.4398 22.5658V22.544C21.3529 22.544 21.2444 22.5223 21.1575 22.5006L21.1792 22.4789L21.1777 22.4804Z" fill="#00144A"/>
<path d="M26.3845 24.89C25.9719 24.6511 23.8236 23.4149 23.4126 23.176C22.7394 22.7852 21.7855 22.8503 20.7649 23.4366C19.2681 24.3052 17.9667 27.3423 17.3804 28.9694C16.7941 30.5965 16.4482 29.9885 15.775 29.7946C15.0801 29.5991 14.4085 29.3168 13.757 28.9694C13.3444 28.7522 12.9536 28.5134 12.5859 28.2311C11.6755 27.5579 10.8503 26.7777 10.1771 25.8656C10.0685 25.7353 9.98169 25.5833 9.87311 25.4313V25.5182C9.78625 26.9933 10.5245 28.3815 11.7825 29.1633C14.0393 30.5515 18.0737 32.9386 19.2681 33.0038C20.0064 33.4164 20.83 33.9143 21.1123 34.0663C21.6769 34.392 22.4137 34.4137 23.2606 34.0663C23.3692 34.0229 23.4778 33.9794 23.5863 33.9143C23.6515 33.8709 23.7166 33.8491 23.7818 33.8057C25.8649 32.6129 27.5354 29.7046 27.5354 27.2973C27.5354 26.1045 27.1228 25.2576 26.4295 24.8667L26.3861 24.8885L26.3845 24.89Z" fill="#00144A"/>
<path d="M29.1612 25.9949C28.7052 25.7344 26.2327 24.3027 25.7767 24.0421C25.0384 23.6078 24.0193 23.6729 22.9134 24.3244C20.6782 25.6258 18.8557 28.7714 18.8557 31.354C18.8557 32.6554 19.3117 33.5674 20.0485 33.98C20.4828 34.2406 22.9335 35.6505 23.4113 35.9328C24.0193 36.2803 24.7995 36.302 25.6898 35.9328C25.7333 35.9328 25.7767 35.8894 25.7984 35.8894C25.8418 35.8677 25.907 35.846 25.9504 35.8242C26.059 35.7808 26.1676 35.7157 26.2544 35.6505C28.4896 34.3492 30.3121 31.2035 30.3121 28.6209C30.3121 27.3196 29.8561 26.4075 29.1193 25.9949H29.1627H29.1612Z" fill="#046C7C"/>
<path d="M23.6068 35.4775C22.9988 34.8912 22.4575 34.263 21.9363 33.5898C21.0041 32.3536 20.2006 30.9002 19.9835 29.3367C19.9183 28.9024 19.3103 28.8373 19.18 29.2716C18.9628 29.9882 18.8325 30.7032 18.8325 31.3764C18.8325 32.6778 19.2886 33.5898 20.0253 34.0024C20.4596 34.263 22.9104 35.6729 23.3881 35.9552C23.6704 36.1073 23.9961 36.2158 24.342 36.2158C24.0815 35.977 23.8426 35.7381 23.582 35.4992L23.6037 35.4775H23.6068Z" fill="#00144A"/>
<path d="M29.6821 28.9441C29.6821 27.8599 29.3347 27.0999 28.7282 26.7524C28.1217 26.405 27.2748 26.4701 26.3411 27.0347C24.4751 28.1407 22.9349 30.8318 22.8914 33.0018C22.8914 34.086 23.2389 34.8461 23.8454 35.1935C24.4518 35.541 25.2987 35.4758 26.2325 34.9112C28.0985 33.7836 29.6387 31.1141 29.6821 28.9441Z" fill="#00144A"/>
<path d="M28.6617 28.361C28.6617 27.6444 28.4012 26.9945 28.032 26.5385C27.5325 26.4951 26.9478 26.647 26.3398 27.0161C24.4738 28.1221 22.9335 30.8132 22.8901 32.9832C22.8901 33.6998 23.0421 34.2847 23.3244 34.6973C23.889 34.784 24.5824 34.6972 25.2121 34.328C27.0781 33.2003 28.6183 30.531 28.6617 28.361Z" fill="#222F3B"/>
<path d="M23.1286 34.3265C23.5629 34.3265 24.0406 34.1962 24.4734 33.9356C26.3393 32.8079 27.8796 30.1385 27.923 27.9685C27.923 27.4473 27.7927 26.9712 27.5756 26.5586C27.3801 26.5803 27.1847 26.6454 26.9893 26.7106C27.0544 26.9712 27.0544 27.2535 27.0544 27.514C27.0327 28.2306 26.8372 28.924 26.5767 29.5972C26.3161 30.2486 25.9686 30.8768 25.5359 31.4631C25.3622 31.702 25.1667 31.9409 24.9496 32.158C24.7976 32.31 24.6673 32.4403 24.5153 32.5706C24.3415 32.7226 24.1678 32.8529 23.9941 32.9832C23.6684 33.2221 23.3209 33.4175 22.9316 33.5478C22.975 33.8518 23.0402 34.1124 23.127 34.3296L23.1286 34.3265Z" fill="#D5DADD"/>
<path d="M36.9722 26.1253C37.4065 26.1037 37.8625 25.9733 38.2953 25.7345C40.1612 24.6068 41.7015 21.9374 41.7449 19.7675C41.7449 19.3115 41.6581 18.8988 41.4843 18.5312C41.2672 18.5529 41.05 18.6181 40.8329 18.705C40.8546 18.9004 40.8763 19.1176 40.8546 19.313C40.8329 20.0295 40.6374 20.7229 40.3769 21.396C40.1163 22.0475 39.7688 22.6758 39.3361 23.2621C39.1623 23.5009 38.9669 23.7397 38.7498 23.9569C38.5977 24.1089 38.4675 24.2393 38.3154 24.3696C38.1417 24.5216 37.968 24.6518 37.7943 24.7821C37.4903 24.9992 37.1645 25.1947 36.7969 25.325C36.7969 25.629 36.8621 25.8896 36.9489 26.1284H36.9706L36.9722 26.1253Z" fill="#D5DADD"/>
<path d="M26.7956 17.6433C26.6218 17.5564 25.6896 16.9918 25.5159 16.905C25.2336 16.753 24.8427 16.7747 24.4317 17.0135C23.5848 17.513 22.8914 18.7058 22.8914 19.6814C22.8914 20.1809 23.0652 20.5283 23.3475 20.6788C23.5212 20.7656 24.4534 21.3085 24.6271 21.4171C24.866 21.5474 25.1917 21.5474 25.5593 21.3954C25.6028 21.3737 25.6679 21.352 25.7113 21.3085C26.5582 20.8091 27.2516 19.6163 27.2516 18.6406C27.2516 18.1412 27.0779 17.7937 26.7956 17.6433Z" fill="#00144A"/>
<path d="M26.7953 17.641C26.665 17.5758 26.1222 17.2501 25.7763 17.0547C25.5591 17.1415 25.342 17.2501 25.1465 17.3804C24.8208 17.6193 24.5385 17.9233 24.2996 18.249C24.0607 18.5965 23.9087 18.9873 23.8002 19.3984C23.6916 19.8094 23.6699 20.2236 23.7133 20.6346C23.7133 20.7215 23.735 20.8083 23.7567 20.9169C24.0825 21.1123 24.4951 21.3512 24.6036 21.4164C24.8425 21.5466 25.1682 21.5466 25.5358 21.3946C25.5793 21.3729 25.6444 21.3512 25.6878 21.3078C26.5347 20.8083 27.2281 19.6155 27.2281 18.6399C27.2281 18.1404 27.0544 17.793 26.7721 17.6425H26.7938L26.7953 17.641ZM26.7953 19.3984C26.6868 19.6155 26.5782 19.8327 26.4479 20.0498C26.2742 20.3104 26.1004 20.571 25.8833 20.7882C25.7096 20.9619 25.4924 21.1356 25.2318 21.1573C24.9712 21.1573 24.7541 20.9402 24.6672 20.7013C24.5586 20.419 24.6021 20.115 24.6672 19.8327C24.7541 19.4852 24.9061 19.1595 25.1015 18.8788C25.297 18.598 25.5141 18.3359 25.7964 18.1187C26.0136 17.9667 26.4262 17.7278 26.7503 17.9884C26.9892 18.1621 27.0109 18.4662 26.9892 18.705C26.9675 18.9439 26.9024 19.2045 26.7938 19.4216V19.3999L26.7953 19.3984Z" fill="#046C7C"/>
</g>
</svg>
