<svg width="320" height="240" viewBox="0 0 320 240" fill="none" xmlns="http://www.w3.org/2000/svg">
<rect y="51" width="320" height="138" rx="24" fill="#222F3B"/>
<path d="M248.318 114.199C242.625 111.229 235.367 109.18 228.403 108.26C228.374 108.26 228.346 108.26 228.317 108.25C227.871 108.193 227.425 108.136 226.979 108.089C226.951 108.089 226.923 108.089 226.885 108.079C225.49 107.927 224.095 107.823 222.738 107.757C222.672 107.757 222.596 107.757 222.53 107.757C222.16 107.738 221.799 107.728 221.439 107.719C221.334 107.719 221.239 107.719 221.135 107.719C220.793 107.719 220.452 107.719 220.12 107.719C220.025 107.719 219.93 107.719 219.826 107.719C219.427 107.719 219.029 107.728 218.63 107.738C218.611 107.738 218.583 107.738 218.564 107.738C218.146 107.747 217.738 107.766 217.33 107.795C213.639 107.975 211.827 108.136 208.82 108.582C208.051 108.677 207.282 108.791 206.552 108.933C198.591 110.48 195.299 114.379 197.681 118.886C193.088 119.74 186.969 120.964 180.564 122.292C177.272 121.495 173.866 120.917 170.45 120.575C170.384 120.575 170.346 120.556 170.27 120.546C164.644 119.816 158.078 119.835 151.892 120.252C151.844 120.252 151.797 120.252 151.749 120.252C147.594 120.499 145.611 120.66 140.449 121.41C138.941 121.628 137.394 121.96 135.923 122.283C129.775 123.63 124.737 125.765 121.027 128.44C120.335 128.934 119.69 129.456 119.092 129.987C118.494 130.518 117.934 131.078 117.422 131.657C117.166 131.942 116.929 132.236 116.691 132.53C116.226 133.128 115.818 133.735 115.458 134.361C113.114 138.469 113.095 143.232 116.113 148.052C115.695 148.175 115.259 148.308 114.775 148.441C114.775 148.441 114.756 148.441 114.746 148.441C114.424 148.536 114.073 148.64 113.722 148.745C113.674 148.764 113.617 148.773 113.57 148.792C113.247 148.887 112.915 148.982 112.564 149.086C112.498 149.105 112.431 149.124 112.365 149.143C112.004 149.248 111.634 149.361 111.245 149.475C111.198 149.485 111.16 149.504 111.122 149.513C110.695 149.637 110.258 149.769 109.813 149.902C107.934 150.453 105.875 151.069 103.721 151.714C103.702 151.714 103.683 151.724 103.664 151.733C103.161 151.885 102.649 152.037 102.137 152.189C102.061 152.208 101.985 152.236 101.9 152.255C101.444 152.388 100.989 152.53 100.533 152.663C100.41 152.701 100.287 152.739 100.163 152.777C99.7553 152.9 99.3473 153.024 98.9393 153.147C98.7591 153.204 98.5883 153.252 98.408 153.308C98.0285 153.422 97.6395 153.536 97.26 153.65C97.0987 153.697 96.9374 153.745 96.7856 153.792C96.3776 153.916 95.9601 154.039 95.5521 154.162C95.4003 154.21 95.2485 154.257 95.0967 154.295C94.6602 154.428 94.2238 154.561 93.7968 154.694C93.683 154.732 93.5596 154.76 93.4458 154.798C92.3262 155.14 91.2161 155.481 90.125 155.813C90.0776 155.823 90.0301 155.842 89.9922 155.851C89.5083 156.003 89.0244 156.145 88.55 156.297C88.4077 156.345 88.2654 156.383 88.123 156.43C87.753 156.544 87.3925 156.658 87.0319 156.762C86.8422 156.819 86.6619 156.876 86.4816 156.933C86.159 157.028 85.8459 157.132 85.5328 157.227C85.3525 157.284 85.1628 157.341 84.9825 157.398C84.6789 157.493 84.3848 157.588 84.0812 157.682C83.8914 157.739 83.7111 157.796 83.5309 157.853C83.2557 157.939 82.9806 158.024 82.7054 158.109C82.5251 158.166 82.3449 158.223 82.1741 158.28C81.8989 158.366 81.6333 158.451 81.3676 158.536C81.2158 158.584 81.0545 158.641 80.9027 158.688C80.6086 158.783 80.3334 158.868 80.0583 158.963C79.9444 159.001 79.8211 159.039 79.7167 159.077C79.3372 159.2 78.9671 159.324 78.6256 159.438C77.1739 159.922 75.9025 160.368 74.7829 160.785C71.9555 161.838 70.1149 162.711 68.9194 163.394C68.6822 163.536 68.464 163.669 68.2742 163.793C67.8947 164.039 67.61 164.267 67.4013 164.466C66.9744 164.865 66.851 165.149 66.832 165.349C66.832 165.444 66.8415 165.519 66.87 165.576C66.87 165.576 66.87 165.576 66.87 165.586C66.8795 165.614 66.8984 165.633 66.9269 165.662C67.3634 166.155 69.7069 167.208 77.3921 165.311C84.4322 163.565 111.198 156.041 120.562 153.441C123.153 155.88 127.28 158.65 134.804 161.383C134.946 161.44 135.098 161.487 135.25 161.544C135.591 161.667 135.923 161.791 136.284 161.914C137.128 162.208 137.992 162.493 138.865 162.758C138.884 162.758 138.912 162.777 138.931 162.777C139.605 162.977 140.288 163.176 140.971 163.366C141.028 163.385 141.094 163.394 141.161 163.413C141.778 163.584 142.404 163.736 143.039 163.888C143.144 163.916 143.258 163.935 143.362 163.963C143.95 164.106 144.548 164.239 145.146 164.362C145.288 164.39 145.43 164.419 145.573 164.447C146.142 164.561 146.711 164.675 147.29 164.779C147.461 164.808 147.632 164.836 147.802 164.865C148.353 164.96 148.903 165.055 149.453 165.13C149.653 165.159 149.852 165.187 150.042 165.216C150.573 165.292 151.104 165.368 151.636 165.434C151.854 165.463 152.072 165.491 152.29 165.51C152.803 165.567 153.324 165.624 153.837 165.671C154.074 165.69 154.311 165.719 154.548 165.738C155.051 165.785 155.554 165.823 156.057 165.852C156.313 165.871 156.56 165.889 156.816 165.899C157.3 165.927 157.793 165.946 158.277 165.965C158.543 165.975 158.808 165.984 159.074 165.994C159.548 166.003 160.023 166.013 160.497 166.022C160.772 166.022 161.048 166.022 161.332 166.022C161.797 166.022 162.262 166.022 162.727 166.003C163.012 166.003 163.296 166.003 163.581 165.984C164.036 165.975 164.492 165.946 164.947 165.927C165.232 165.918 165.526 165.899 165.811 165.89C166.266 165.861 166.712 165.823 167.158 165.795C167.442 165.776 167.727 165.757 168.012 165.728C168.467 165.69 168.923 165.633 169.378 165.586C169.644 165.557 169.919 165.529 170.184 165.5C170.678 165.444 171.152 165.368 171.636 165.301C171.864 165.273 172.092 165.244 172.319 165.206C173.021 165.093 173.723 164.979 174.416 164.846V164.884H174.407C177.841 164.371 182.443 163.385 187.168 161.753C187.595 161.61 188.022 161.459 188.439 161.297C190.128 160.671 191.827 159.969 193.458 159.181C193.866 158.982 194.265 158.783 194.663 158.574C197.424 157.132 199.967 155.443 202.045 153.47C204.351 151.278 206.059 148.754 206.827 145.879C206.96 145.452 207.055 145.025 207.121 144.589C207.14 144.466 207.159 144.342 207.169 144.228C207.216 143.896 207.235 143.555 207.245 143.223C207.245 143.118 207.245 143.005 207.245 142.9C207.245 142.018 207.112 141.126 206.865 140.225C206.846 140.139 206.818 140.054 206.789 139.968C206.666 139.57 206.523 139.171 206.362 138.763C206.343 138.716 206.324 138.669 206.305 138.631C205.992 137.9 205.594 137.16 205.129 136.439C211.182 134.133 216.429 132.093 219.399 130.945C226.885 132.739 234.807 133.317 241.192 132.302C241.192 132.302 241.278 132.293 241.316 132.283C241.373 132.283 241.43 132.264 241.477 132.255C246.487 131.496 251.724 130.063 254.476 128.251C254.476 128.251 254.485 128.251 254.495 128.241C254.675 128.118 254.846 127.995 255.007 127.871C255.083 127.814 255.159 127.748 255.235 127.681C255.273 127.653 255.311 127.625 255.339 127.596C255.339 127.596 255.349 127.577 255.358 127.568C255.614 127.349 255.851 127.122 256.06 126.884C256.478 126.41 256.791 125.898 256.99 125.376C257.331 124.512 257.379 123.592 257.142 122.643C257.094 122.454 257.037 122.264 256.971 122.074C256.051 119.465 253.09 116.694 248.289 114.18L248.318 114.199Z" fill="#101619"/>
<path d="M170.82 100.024C163.638 87.2154 152.85 78.3536 141.996 74.9949C141.92 74.9664 141.873 74.919 141.797 74.8905C131.398 70.8866 118.399 72.5565 109.528 75.8393C107.972 76.3611 106.454 76.9778 104.993 77.7938C87.516 87.5949 84.3849 115.205 97.9907 139.475C110.382 161.573 132.385 173.214 149.415 167.711V167.778C157.338 165.852 173.316 158.043 177.49 136.335C179.796 125.556 177.709 112.311 170.82 100.024Z" fill="#C35500"/>
<path d="M98.9116 134.801C98.9116 134.801 77.0418 149.384 69.4799 155.323C61.918 161.263 62.8668 164.09 63.2653 164.764C63.6638 165.437 66.0927 167.591 71.6242 164.764C77.1462 161.936 101.132 147.382 104.642 145.361C108.143 143.34 98.9116 134.801 98.9116 134.801Z" fill="#00144A"/>
<path d="M149.416 167.711V167.777C157.339 165.851 173.316 158.042 177.491 136.334C179.047 129.057 178.592 120.65 176.021 112.178L133.671 95.0352C133.671 95.0352 120.809 111.381 142.887 134.684C155.136 147.606 143.619 167.919 120.525 163.128C130.118 168.754 140.45 170.614 149.416 167.72V167.711Z" fill="#8D2A00"/>
<path d="M170.196 153.774C174.386 138.411 153.709 135.897 144.666 125.75C144.666 125.75 162.616 128.091 165.555 125.75C168.494 123.41 177.198 116.668 177.198 116.668C180.676 131.788 176.336 145.246 170.196 153.774Z" fill="#450B00"/>
<path d="M177.348 69.5391C170.318 71.9965 154.036 79.824 140.763 86.4371C132.745 90.4126 128.163 104.066 134.529 115.3C142.347 129.086 158.742 130.945 164.274 126.714C178.458 115.878 195.148 102.434 195.148 102.434L198.222 96.2857C198.222 96.2857 184.388 67.0722 177.358 69.5296L177.348 69.5391Z" fill="#A93E00"/>
<path d="M71.2636 158.006C79.9261 152.891 101.967 140.813 101.967 140.813L98.2474 135.234C94.5661 137.701 76.2638 149.979 69.4799 155.311C61.918 161.25 62.8668 164.078 63.2653 164.751C63.474 165.093 64.2046 165.814 65.5898 166.08C65.5898 166.08 62.6011 163.12 71.2636 158.006Z" fill="#046C7C"/>
<path d="M189.097 97.6523L144.848 125.611C147.451 127.374 153.16 128.802 157.358 128.802C160.717 128.802 163.18 127.627 163.991 127.039L193.588 103.906L189.097 97.6523Z" fill="#8D2A00"/>
<path d="M226.022 97.1042C229.912 87.9293 229.324 75.168 223.47 63.0518C223.005 62.0841 222.502 61.1448 221.989 60.2244C221.866 60.0062 221.743 59.7975 221.619 59.5792C221.155 58.7633 220.671 57.9758 220.168 57.1978C220.111 57.1124 220.063 57.027 220.006 56.9416C218.773 55.082 217.454 53.3457 216.059 51.7422L203.507 76.5058L186.011 89.1533L180.65 93.2805C180.793 93.4893 180.945 93.6885 181.096 93.8972C181.258 94.1155 181.409 94.3337 181.571 94.5424C181.732 94.7512 181.893 94.9599 182.055 95.1686C182.206 95.3679 182.368 95.5671 182.52 95.7664C182.681 95.9751 182.852 96.1743 183.022 96.3736C183.184 96.5634 183.345 96.7531 183.506 96.9429C183.677 97.1421 183.848 97.3319 184.019 97.5311C184.189 97.7209 184.351 97.9012 184.521 98.0909C184.692 98.2807 184.863 98.4609 185.034 98.6412C185.224 98.85 185.423 99.0397 185.622 99.239C185.888 99.5046 186.144 99.7703 186.41 100.026C186.628 100.235 186.846 100.444 187.064 100.653C187.235 100.814 187.406 100.966 187.586 101.118C187.776 101.288 187.956 101.459 188.146 101.62C188.326 101.772 188.506 101.924 188.687 102.076C188.876 102.237 189.066 102.389 189.256 102.541C189.436 102.683 189.617 102.835 189.797 102.977C189.996 103.129 190.186 103.281 190.385 103.433C190.565 103.565 190.736 103.698 190.916 103.831C191.135 103.992 191.353 104.144 191.571 104.296C191.732 104.41 191.894 104.524 192.045 104.628C192.406 104.875 192.776 105.112 193.137 105.34C193.288 105.435 193.431 105.52 193.582 105.605C193.82 105.748 194.057 105.89 194.294 106.032C194.465 106.127 194.636 106.222 194.806 106.317C195.025 106.44 195.243 106.554 195.471 106.678C195.641 106.772 195.822 106.858 196.002 106.943C196.23 107.057 196.448 107.161 196.676 107.266C196.846 107.351 197.017 107.427 197.188 107.503C197.425 107.607 197.672 107.712 197.909 107.816C198.061 107.882 198.222 107.949 198.374 108.015C198.706 108.148 199.029 108.272 199.361 108.385C199.465 108.423 199.56 108.461 199.664 108.49C200.025 108.613 200.376 108.727 200.736 108.841C200.879 108.888 201.021 108.926 201.173 108.964C201.429 109.04 201.685 109.106 201.941 109.173C202.103 109.211 202.264 109.249 202.425 109.287C202.672 109.344 202.909 109.391 203.156 109.448C203.317 109.476 203.478 109.514 203.64 109.543C203.886 109.59 204.143 109.628 204.389 109.666C204.541 109.685 204.683 109.714 204.835 109.733C205.129 109.771 205.414 109.799 205.699 109.828C205.803 109.837 205.917 109.847 206.021 109.856C206.41 109.884 206.809 109.903 207.198 109.913C207.293 109.913 207.397 109.913 207.492 109.913C207.786 109.913 208.08 109.913 208.374 109.913C208.517 109.913 208.659 109.903 208.792 109.894C209.038 109.884 209.295 109.865 209.541 109.837C209.693 109.828 209.835 109.809 209.987 109.79C210.234 109.761 210.471 109.733 210.718 109.695C210.86 109.676 211.002 109.647 211.145 109.628C211.401 109.581 211.657 109.533 211.913 109.476C212.037 109.448 212.16 109.429 212.283 109.401C212.653 109.315 213.033 109.211 213.403 109.106C213.403 109.106 213.488 109.087 213.536 109.078C213.593 109.059 213.65 109.04 213.706 109.021C219.608 107.313 226.306 103.594 229.827 98.5084C231.098 96.6772 229.105 96.5444 226.05 97.1137L226.022 97.1042Z" fill="#450B00"/>
<path d="M121.483 72.9453C117.014 73.4197 114.889 73.7423 109.547 75.5925C108 76.1238 106.454 76.9777 104.993 77.7937C87.516 87.5947 84.3849 115.205 97.9907 139.475C101.568 145.86 106.606 154.789 120.515 163.128C120.515 163.128 102.225 144.965 100.885 118.042C99.5444 91.1182 107.768 79.0645 121.473 72.9453H121.483Z" fill="#FF7F4C"/>
<path d="M206.002 109.872C205.898 109.872 205.794 109.853 205.68 109.844C205.784 109.853 205.898 109.863 206.002 109.872Z" fill="#450B00"/>
<path d="M192.037 104.645C191.876 104.54 191.714 104.417 191.562 104.312C191.724 104.426 191.885 104.54 192.037 104.645Z" fill="#450B00"/>
<path d="M189.777 103.003C189.597 102.861 189.417 102.718 189.236 102.566C189.417 102.709 189.597 102.861 189.777 103.003Z" fill="#450B00"/>
<path d="M193.573 105.633C193.421 105.538 193.269 105.453 193.127 105.367C193.279 105.462 193.421 105.547 193.573 105.633Z" fill="#450B00"/>
<path d="M187.567 101.137C187.396 100.985 187.216 100.824 187.045 100.672C187.216 100.833 187.386 100.985 187.567 101.137Z" fill="#450B00"/>
<path d="M201.163 108.991C201.021 108.953 200.878 108.915 200.727 108.867C200.869 108.915 201.011 108.953 201.163 108.991Z" fill="#450B00"/>
<path d="M199.655 108.518C199.551 108.48 199.456 108.443 199.352 108.414C199.456 108.452 199.551 108.49 199.655 108.518Z" fill="#450B00"/>
<path d="M203.621 109.56C203.459 109.531 203.298 109.503 203.137 109.465C203.298 109.493 203.459 109.531 203.621 109.56Z" fill="#450B00"/>
<path d="M197.178 107.53C197.008 107.454 196.837 107.369 196.666 107.293C196.837 107.378 197.008 107.454 197.178 107.53Z" fill="#450B00"/>
<path d="M195.992 106.969C195.812 106.883 195.641 106.789 195.461 106.703C195.632 106.798 195.812 106.883 195.992 106.969Z" fill="#450B00"/>
<path d="M211.126 109.637C210.984 109.665 210.842 109.684 210.699 109.703C210.842 109.684 210.984 109.656 211.126 109.637Z" fill="#450B00"/>
<path d="M220.168 57.207C220.671 57.9756 221.155 58.7725 221.62 59.5885C221.155 58.7725 220.671 57.985 220.168 57.207Z" fill="#450B00"/>
<path d="M186.011 89.1597L203.507 76.5123L216.06 51.7487C217.454 53.3521 218.773 55.0979 220.007 56.9481C214.039 47.8966 205.87 41.7294 197.776 39.699C198.678 38.3706 198.735 37.4503 196.989 37.5926C192.444 37.9721 190.214 38.3991 186.457 39.7654C185.508 40.05 184.569 40.3916 183.658 40.828C170.622 47.1185 167.32 67.271 176.286 85.839C177.69 88.7518 179.322 91.4463 181.116 93.9037C180.964 93.695 180.812 93.4957 180.67 93.287L186.03 89.1597H186.011Z" fill="#C35500"/>
<path d="M185.613 99.2578C185.879 99.5235 186.135 99.7891 186.401 100.045C186.135 99.7891 185.869 99.5235 185.613 99.2578Z" fill="#450B00"/>
<path d="M183.022 96.3924C182.852 96.1931 182.69 95.9844 182.52 95.7852C182.681 95.9939 182.852 96.1931 183.022 96.3924Z" fill="#450B00"/>
<path d="M184.008 97.5492C183.838 97.3594 183.667 97.1602 183.496 96.9609C183.667 97.1602 183.838 97.3499 184.008 97.5492Z" fill="#450B00"/>
<path d="M209.967 109.797C209.816 109.816 209.673 109.825 209.521 109.844C209.673 109.835 209.816 109.816 209.967 109.797Z" fill="#450B00"/>
<path d="M208.773 109.902C208.631 109.902 208.488 109.921 208.355 109.921C208.498 109.921 208.64 109.912 208.773 109.902Z" fill="#450B00"/>
<path d="M213.373 109.105C213.003 109.219 212.633 109.314 212.254 109.4C212.624 109.314 213.003 109.21 213.373 109.105Z" fill="#450B00"/>
<path d="M209.523 109.844C209.276 109.863 209.02 109.882 208.773 109.901C209.02 109.891 209.276 109.872 209.523 109.844Z" fill="#450B00"/>
<path d="M207.178 109.932C206.789 109.932 206.4 109.903 206.002 109.875C206.391 109.903 206.789 109.922 207.178 109.932Z" fill="#450B00"/>
<path d="M205.68 109.845C205.395 109.816 205.101 109.788 204.816 109.75C205.111 109.788 205.395 109.816 205.68 109.845Z" fill="#450B00"/>
<path d="M203.137 109.466C202.89 109.419 202.653 109.362 202.406 109.305C202.653 109.362 202.89 109.409 203.137 109.466Z" fill="#450B00"/>
<path d="M208.345 109.922C208.051 109.931 207.757 109.931 207.463 109.922C207.757 109.922 208.051 109.922 208.345 109.922Z" fill="#450B00"/>
<path d="M185.612 99.2579C185.412 99.0587 185.223 98.8594 185.023 98.6602C185.213 98.8689 185.412 99.0587 185.612 99.2579Z" fill="#450B00"/>
<path d="M184.522 98.0989C184.352 97.9186 184.181 97.7288 184.02 97.5391C184.19 97.7288 184.352 97.9091 184.522 98.0989Z" fill="#450B00"/>
<path d="M182.52 95.7735C182.358 95.5743 182.206 95.375 182.055 95.1758C182.206 95.375 182.368 95.5743 182.52 95.7735Z" fill="#450B00"/>
<path d="M181.57 94.5514C181.409 94.3427 181.248 94.1245 181.096 93.9062C181.257 94.1245 181.409 94.3427 181.57 94.5514Z" fill="#450B00"/>
<path d="M188.136 101.64C187.946 101.478 187.756 101.308 187.576 101.137C187.766 101.308 187.946 101.478 188.136 101.64Z" fill="#450B00"/>
<path d="M196.666 107.291C196.438 107.187 196.22 107.073 195.992 106.969C196.22 107.083 196.438 107.187 196.666 107.291Z" fill="#450B00"/>
<path d="M200.726 108.867C200.366 108.762 200.015 108.639 199.654 108.516C200.015 108.639 200.366 108.753 200.726 108.867Z" fill="#450B00"/>
<path d="M195.471 106.696C195.253 106.583 195.025 106.459 194.807 106.336C195.025 106.459 195.243 106.573 195.471 106.696Z" fill="#450B00"/>
<path d="M197.899 107.844C197.662 107.74 197.415 107.645 197.178 107.531C197.415 107.636 197.662 107.74 197.899 107.844Z" fill="#450B00"/>
<path d="M190.366 103.452C190.166 103.3 189.967 103.148 189.777 102.996C189.977 103.148 190.166 103.3 190.366 103.452Z" fill="#450B00"/>
<path d="M189.237 102.566C189.047 102.415 188.858 102.253 188.668 102.102C188.858 102.263 189.047 102.415 189.237 102.566Z" fill="#450B00"/>
<path d="M193.126 105.356C192.756 105.128 192.396 104.891 192.035 104.645C192.396 104.891 192.766 105.128 193.126 105.356Z" fill="#450B00"/>
<path d="M194.294 106.06C194.056 105.927 193.819 105.775 193.582 105.633C193.819 105.775 194.056 105.917 194.294 106.06Z" fill="#450B00"/>
<path d="M183.941 85.7148C187.366 91.9849 191.999 96.7804 193.842 98.3475L189.491 102.734C183.977 98.6004 179.764 92.4877 177.947 89.0066L183.941 85.7148Z" fill="#8D2A00"/>
<path d="M222.262 104.927C235.295 98.6349 238.779 78.8634 230.042 60.7663C221.305 42.6693 203.657 33.0996 190.623 39.3919C177.589 45.6842 174.106 65.4557 182.843 83.5528C191.58 101.65 209.228 111.219 222.262 104.927Z" fill="#A93E00"/>
<path d="M190.631 39.4068C177.595 45.6973 174.113 65.4703 182.851 83.5638C183.178 84.2408 183.521 84.9354 183.943 85.7244C183.943 85.7244 169.919 33.4294 216.439 43.8377C208.156 37.6136 198.544 35.5832 190.641 39.3973L190.631 39.4068Z" fill="#FF7F4C"/>
<path d="M222.264 104.938C235.3 98.6477 238.783 78.8748 230.044 60.7812C229.797 98.5054 194.701 99.0462 194.645 99.0652C203.317 106.409 213.763 109.047 222.255 104.948L222.264 104.938Z" fill="#8D2A00"/>
</svg>
