<svg width="320" height="240" viewBox="0 0 320 240" fill="none" xmlns="http://www.w3.org/2000/svg">
<path d="M305.547 27H14.4533C12.5559 26.9983 10.6768 27.3705 8.92329 28.0954C7.16981 28.8203 5.57638 29.8836 4.23409 31.2247C2.8918 32.5657 1.82697 34.1582 1.10045 35.911C0.373942 37.6638 -8.08861e-07 39.5426 0 41.44V212.547C0 216.38 1.52275 220.056 4.23328 222.767C6.9438 225.477 10.6201 227 14.4533 227H305.547C309.38 227 313.056 225.477 315.767 222.767C318.477 220.056 320 216.38 320 212.547V41.44C320 39.5426 319.626 37.6638 318.9 35.911C318.173 34.1582 317.108 32.5657 315.766 31.2247C314.424 29.8836 312.83 28.8203 311.077 28.0954C309.323 27.3705 307.444 26.9983 305.547 27Z" fill="#223548"/>
<path d="M63.8769 53H31.123C29.7936 53 28.4773 53.2587 27.2491 53.7612C26.0209 54.2638 24.905 55.0003 23.965 55.9289C23.025 56.8575 22.2793 57.9599 21.7705 59.1732C21.2618 60.3864 21 61.6868 21 63C21 64.3132 21.2618 65.6136 21.7705 66.8268C22.2793 68.0401 23.025 69.1425 23.965 70.0711C24.905 70.9996 26.0209 71.7362 27.2491 72.2388C28.4773 72.7413 29.7936 73 31.123 73H63.8769C66.5617 73 69.1366 71.9464 71.035 70.0711C72.9335 68.1957 74 65.6522 74 63C74 60.3478 72.9335 57.8043 71.035 55.9289C69.1366 54.0536 66.5617 53 63.8769 53Z" fill="#2A4259"/>
<path d="M305.877 53H273.123C271.794 53 270.477 53.2587 269.249 53.7612C268.021 54.2638 266.905 55.0003 265.965 55.9289C265.025 56.8575 264.279 57.9599 263.771 59.1732C263.262 60.3864 263 61.6868 263 63C263 64.3132 263.262 65.6136 263.771 66.8268C264.279 68.0401 265.025 69.1425 265.965 70.0711C266.905 70.9996 268.021 71.7362 269.249 72.2388C270.477 72.7413 271.794 73 273.123 73H305.877C308.562 73 311.137 71.9464 313.035 70.0711C314.933 68.1957 316 65.6522 316 63C316 60.3478 314.933 57.8043 313.035 55.9289C311.137 54.0536 308.562 53 305.877 53Z" fill="#2A4259"/>
<path d="M288.877 43H256.123C254.794 43 253.477 43.2587 252.249 43.7612C251.021 44.2638 249.905 45.0003 248.965 45.9289C248.025 46.8575 247.279 47.9599 246.771 49.1732C246.262 50.3864 246 51.6868 246 53C246 54.3132 246.262 55.6136 246.771 56.8268C247.279 58.0401 248.025 59.1425 248.965 60.0711C249.905 60.9996 251.021 61.7362 252.249 62.2388C253.477 62.7413 254.794 63 256.123 63H288.877C291.562 63 294.137 61.9464 296.035 60.0711C297.933 58.1957 299 55.6522 299 53C299 50.3478 297.933 47.8043 296.035 45.9289C294.137 44.0536 291.562 43 288.877 43Z" fill="#2A4259"/>
<path d="M236.889 186H207.411C206.214 186 205.029 186.233 203.924 186.685C202.819 187.137 201.814 187.8 200.968 188.636C200.122 189.472 199.451 190.464 198.993 191.556C198.535 192.648 198.3 193.818 198.3 195C198.3 196.182 198.535 197.352 198.993 198.444C199.451 199.536 200.122 200.528 200.968 201.364C201.814 202.2 202.819 202.863 203.924 203.315C205.029 203.767 206.214 204 207.411 204H236.889C239.305 204 241.623 203.052 243.331 201.364C245.04 199.676 246 197.387 246 195C246 192.613 245.04 190.324 243.331 188.636C241.623 186.948 239.305 186 236.889 186Z" fill="#2A4259"/>
<path d="M244.047 27.8287C244.047 26.1309 239.118 24.7719 232.534 24.4632C232.157 17.8864 230.708 12.9962 229.01 13C227.312 13.0038 225.9 17.9316 225.538 24.5422C218.935 24.994 214.025 26.4697 214.048 28.1713C214.071 29.8729 218.976 31.2319 225.561 31.5368C225.956 38.1136 227.387 43.0038 229.081 43C230.775 42.9962 232.195 38.0684 232.556 31.4578C239.16 31.006 244.066 29.5303 244.047 27.8287Z" fill="#F58B00"/>
<path d="M265.547 52.8573C265.547 51.4424 261.44 50.3099 255.953 50.0526C255.639 44.572 254.431 40.4969 253.016 40.5C251.601 40.5031 250.425 44.6097 250.123 50.1185C244.62 50.495 240.529 51.7247 240.548 53.1427C240.567 54.5607 244.655 55.6932 250.142 55.9474C250.472 61.428 251.664 65.5031 253.076 65.5C254.487 65.4969 255.67 61.3903 255.971 55.8815C261.475 55.505 265.563 54.2753 265.547 52.8573Z" fill="#F58B00"/>
<path d="M207.42 53.4025L206.056 54.5203L205.986 54.5535L205.887 54.4706C205.543 54.6513 205.19 54.8143 204.829 54.9592C202.957 55.4105 200.886 55.0834 199.411 56.2385C185.687 43.5073 168.392 36.502 150.646 36.502C111.056 36.502 78.8545 69.1106 78.8545 108.811C78.8545 148.512 111.056 180.852 150.659 180.852C164.78 180.852 178.025 177.266 189.212 170.816C208.635 160.66 222.273 142.542 223.475 118.939C224.831 119.353 224.612 118.065 225.128 117.75C226.133 119.779 227.409 119.208 228.335 118.268C230.104 119.063 229.864 115.403 230.344 115.403H231.141L231.294 114.641C237.691 82.583 219.053 62.8836 207.42 53.4025Z" fill="#3B5B7C"/>
<path d="M157.911 193.169H143.86V208.132H157.911V193.169Z" fill="#324E6B"/>
<path d="M182.69 226.117C176.296 213.394 163.94 205.494 150.455 205.494C136.971 205.494 124.597 213.394 118.221 226.117L117.522 227.5H183.417L182.69 226.117Z" fill="#2A4259"/>
<path d="M164.085 188.921C159.717 189.335 155.192 189.517 150.89 189.517C146.588 189.517 142.257 189.331 137.984 188.946L135.946 188.772L136.727 190.233C138.474 193.435 141.282 195.925 144.666 197.272C146.637 198.065 148.741 198.47 150.865 198.464C152.989 198.47 155.093 198.065 157.064 197.272C160.448 195.926 163.255 193.436 164.999 190.233L165.784 188.772L164.085 188.921Z" fill="#2A4259"/>
<path d="M220.206 122.735C219.962 122.284 218.826 120.28 216.995 120.119C215.553 119.99 214.35 120.922 212.751 122.942C208.482 128.325 208.316 129.674 209.494 133.193C209.673 133.77 210.042 134.269 210.54 134.609C211.046 134.932 211.638 135.095 212.238 135.077C214.42 135.135 216.71 133.579 217.251 133.198C217.618 132.945 217.96 132.658 218.272 132.341C221.305 129.24 220.475 124.135 220.206 122.735Z" fill="#00A58A"/>
<path d="M146.014 99.0236C144.325 99.0558 142.639 99.1941 140.968 99.4377C140.184 99.5665 139.393 99.6481 138.6 99.6819C137.583 99.5816 136.586 99.3391 135.637 98.9615C134.421 98.4806 133.139 98.1915 131.835 98.1045C130.479 98.1045 128.748 98.6593 128.19 101.479C128.028 102.033 127.997 102.617 128.099 103.185C128.201 103.753 128.433 104.29 128.777 104.754C129.545 105.685 130.905 106.137 132.806 106.137C133.88 106.113 134.953 106.024 136.017 105.872C136.516 105.797 137.016 105.747 137.517 105.723C138.137 105.723 138.439 105.983 139.087 106.613C140.011 107.619 141.178 108.371 142.476 108.795L142.889 108.935C145.04 109.755 147.301 110.251 149.597 110.405H149.626C150.311 110.458 150.999 110.361 151.642 110.12C152.286 109.882 152.869 109.505 153.349 109.014C153.806 108.4 154.124 107.693 154.283 106.944C154.437 106.191 154.423 105.414 154.242 104.667C153.696 100.899 150.936 99.0236 146.014 99.0236Z" fill="#00A58A"/>
<path d="M188.261 129.828C185.64 129.84 183.039 130.278 180.558 131.124C179.705 131.442 178.812 131.64 177.905 131.712C177.311 131.708 176.733 131.518 176.252 131.169C175.297 130.375 174.581 129.33 174.185 128.151C173.293 126.164 172.185 123.684 168.4 123.684H167.573C165.985 123.688 164.412 123.377 162.945 122.769C161.481 122.16 160.153 121.265 159.039 120.136C158.495 119.557 157.836 119.099 157.105 118.79C156.373 118.482 155.585 118.332 154.791 118.347C153.555 118.398 152.331 118.611 151.15 118.98C150.275 119.254 149.37 119.422 148.456 119.481C147.157 119.42 145.893 119.037 144.778 118.368C143.664 117.701 142.731 116.771 142.058 115.66C141.79 115.109 141.062 113.673 139.703 113.673C138.624 113.673 137.636 114.521 136.223 116.604C136.008 116.964 135.81 117.275 135.628 117.552C135.342 118.052 135.006 118.521 134.624 118.951C133.812 118.275 133.106 117.481 132.529 116.596C132.062 115.97 131.615 115.374 131.202 114.795C128.648 111.4 126.846 108.891 124.858 107.943C124.223 107.636 123.567 107.374 122.895 107.16C121.577 106.746 120.61 106.394 120.048 105.268C119.862 104.784 119.763 104.271 119.755 103.753C119.577 101.517 118.998 99.5129 113.969 99.5129C112.283 99.5129 111.171 99.161 110.853 98.5648C110.44 97.7368 111.022 96.0807 112.663 93.6338C113.932 91.6175 115.366 90.6735 116.796 90.6735C117.982 90.6735 119.275 91.3608 120.656 92.7436C122.751 94.8345 124.829 95.8944 126.83 95.8944C127.701 95.8741 128.559 95.6754 129.351 95.3106C130.136 94.9472 130.839 94.4274 131.417 93.7828C133.644 91.5968 134.764 89.3445 135.855 84.9724C136.992 80.4181 139.013 75.1103 144.534 74.1622C145.774 73.9552 147.013 73.7937 148.166 73.6322C153.039 72.9615 156.899 72.4191 158.795 69.5789C161.506 65.5173 162.833 58.9302 157.63 53.7342C154.862 50.805 151.061 49.0755 147.038 48.9149C145.161 48.9481 143.315 49.4037 141.637 50.2481C139.961 51.0911 138.498 52.3026 137.355 53.7922C134.57 57.1333 132.396 59.3567 130.776 59.3567C129.785 59.2238 128.886 58.7064 128.272 57.9158C127.814 57.3662 127.484 56.7213 127.305 56.0279C127.128 55.3329 127.11 54.607 127.251 53.9039C127.372 53.0741 127.694 52.2867 128.189 51.6102C128.685 50.9312 129.339 50.384 130.094 50.0162C131.506 49.4657 133.021 49.2298 134.533 49.3248C137.479 49.2586 140.827 49.1923 143.063 45.4703C144.211 43.5616 144.484 41.8475 143.889 40.3695C143.537 39.6525 143.037 39.0189 142.422 38.5105C141.808 37.9983 141.093 37.6229 140.323 37.4092H139.947C128.056 39.0668 116.78 43.7177 107.171 50.9271C97.5724 58.118 89.9594 67.6388 85.049 78.5923C84.9085 78.8779 81.5032 85.7673 82.6231 90.2347C83.2619 92.5061 84.6121 94.5119 86.4747 95.9565C88.3392 97.4049 90.6168 98.2186 92.9753 98.2792C96.9302 98.2792 99.6123 99.2273 101.509 103.96C103.617 109.222 108.721 112.542 112.514 113.801C113.035 113.971 113.556 114.116 114.068 114.256C116.577 114.956 118.738 115.552 120.317 119.51C120.803 121.005 121.775 122.293 123.077 123.17C124.389 124.04 125.951 124.449 127.52 124.334H129.851C130.772 124.379 132.033 124.458 132.392 125.108C132.599 125.497 132.855 126.764 130.863 130.229C126.466 137.914 127.557 141.371 129.776 145.76C131.049 148.344 132.912 150.59 135.215 152.318C137.531 154.045 140.221 155.2 143.067 155.688C143.674 155.738 144.261 155.937 144.773 156.268C145.291 156.595 145.717 157.048 146.013 157.584C147.179 159.882 146.013 163.906 144.488 166.912C143.766 168.324 142.908 169.662 141.926 170.907C140.951 172.224 140.182 173.238 140.182 174.696C140.28 176.457 140.657 178.191 141.298 179.834L141.509 180.351L142.067 180.422C144.736 180.731 147.421 180.883 150.109 180.877C151.348 180.877 152.543 180.848 153.737 180.84L157.085 180.666L154.126 179.051C154.059 179.018 152.592 178.178 152.592 174.741C152.592 173.673 154.754 172.53 160.812 172.53H163.238C164.313 172.449 165.314 171.95 166.028 171.139L166.519 170.531C168.718 167.777 174.012 161.323 176.305 159.799C177.321 159.15 178.439 158.677 179.611 158.4C181.594 157.961 183.406 156.954 184.827 155.502C185.529 154.827 186.091 154.019 186.48 153.125C186.869 152.228 187.074 151.263 187.083 150.285C187.086 149.12 187.415 147.98 188.034 146.993C188.856 145.904 189.903 145.006 191.104 144.36C192.679 143.416 194.576 142.211 195.522 139.628C196.832 136.138 196.985 133.939 195.815 132.275C194.646 130.61 192.299 129.828 188.261 129.828Z" fill="#00A58A"/>
<path d="M153.328 45.5111C154.707 45.9363 156.147 46.1294 157.589 46.0825C158.498 46.0825 159.06 46.0825 159.292 46.3226C159.618 46.774 159.858 47.2822 159.998 47.8214C160.478 49.1504 161.069 50.7899 162.713 51.5807C164.055 52.1293 165.497 52.3902 166.945 52.3467C168.251 52.3467 171.491 52.1604 173.326 50.3925C177.074 46.7822 171.404 40.1868 171.169 39.9135L170.995 39.7106L170.727 39.6278C163.944 37.5031 156.872 36.4485 149.766 36.5019H148.245L148.427 37.5701C148.551 38.2615 149.716 44.3519 153.328 45.5111Z" fill="#00A58A"/>
<path d="M214.445 92.9709C216.615 88.8306 216.342 84.3343 213.685 80.0036C208.68 71.8804 196.708 66.4277 188.658 66.4277C183.637 66.4277 180.244 68.444 179.095 72.075C178.107 75.0223 177.863 78.1685 178.384 81.2333C178.905 84.3023 180.174 87.195 182.079 89.6545C186.624 95.7655 194.617 99.8727 201.985 99.8727C207.717 99.8727 212.131 97.4216 214.445 92.9709Z" fill="#00A58A"/>
<path d="M207.552 168.531C208.134 168.527 208.691 168.293 209.102 167.88C209.306 167.677 209.468 167.435 209.577 167.169C209.687 166.902 209.743 166.616 209.742 166.328C209.743 166.039 209.687 165.753 209.577 165.486C209.467 165.218 209.306 164.976 209.102 164.771C208.69 164.361 208.133 164.131 207.552 164.129C206.972 164.13 206.416 164.359 206.002 164.767C205.591 165.177 205.358 165.734 205.354 166.315C205.353 166.599 205.408 166.881 205.515 167.144C205.624 167.413 205.786 167.657 205.99 167.864C206.193 168.068 206.435 168.23 206.701 168.34C206.968 168.461 207.258 168.526 207.552 168.531Z" fill="#F58B00"/>
<path d="M93.7731 54.1189C95.2319 54.1189 96.4139 53.1335 96.4139 51.9162C96.4139 50.699 95.2319 49.7178 93.7731 49.7178C92.3143 49.7178 91.1406 50.7032 91.1406 51.9162C91.1406 53.1293 92.3226 54.1189 93.7731 54.1189Z" fill="#F58B00"/>
<path d="M156.659 195.455C154.859 196.343 152.879 196.803 150.873 196.8C148.867 196.802 146.887 196.342 145.087 195.455L143.848 194.941V198.373L144.439 198.614C147.032 199.69 149.818 200.224 152.625 200.183V200.212C154.133 200.208 155.637 200.087 157.126 199.847L157.907 199.723V194.937L156.659 195.455Z" fill="#3B5B7C"/>
<path d="M220.128 153.994C220.076 153.941 220.014 153.899 219.946 153.87C219.877 153.841 219.802 153.825 219.727 153.824C219.652 153.824 219.577 153.84 219.508 153.87C219.438 153.898 219.374 153.94 219.322 153.994L209.875 163.86C209.469 163.525 208.976 163.314 208.453 163.252C207.93 163.189 207.4 163.277 206.924 163.504C206.447 163.729 206.045 164.087 205.767 164.535C205.491 164.984 205.348 165.503 205.354 166.03C205.354 166.665 205.573 167.281 205.974 167.773C190.677 182.087 170.431 189.893 149.502 189.547C128.569 189.197 108.589 180.72 93.7733 165.902C78.9737 151.096 70.5037 131.103 70.1554 110.153C69.8111 89.2037 77.6157 68.942 91.9178 53.6552C92.4138 54.0711 93.0397 54.2997 93.6865 54.3011C94.217 54.3087 94.7387 54.1651 95.1908 53.887C95.6425 53.6028 96.0015 53.1927 96.2239 52.7071C96.4506 52.2218 96.5297 51.6803 96.4512 51.1503C96.38 50.6214 96.1559 50.1249 95.8066 49.7219L105.526 40.1331C105.577 40.0772 105.621 40.0145 105.655 39.9468C105.682 39.8782 105.697 39.8054 105.7 39.7315C105.699 39.6561 105.684 39.5816 105.655 39.5121C105.628 39.4413 105.587 39.3765 105.535 39.3216C105.483 39.2669 105.419 39.2245 105.349 39.1974C105.28 39.1672 105.205 39.1517 105.13 39.1519C105.055 39.1512 104.98 39.1653 104.911 39.1933C104.842 39.2189 104.78 39.26 104.729 39.3133L94.8933 49.0098C94.5176 48.825 94.1051 48.7273 93.6865 48.7241C93.1696 48.7207 92.6623 48.8643 92.2236 49.1382L82.826 39.7688C82.7716 39.7141 82.707 39.6705 82.6359 39.6404C82.5649 39.6124 82.4891 39.5984 82.4128 39.599C82.3351 39.5983 82.258 39.6124 82.1855 39.6404C82.1156 39.6705 82.0524 39.7141 81.9995 39.7688C81.9427 39.8215 81.8988 39.8867 81.8714 39.9592C81.8411 40.0297 81.827 40.1061 81.8301 40.1828C81.8273 40.2595 81.8414 40.3358 81.8714 40.4064C81.8998 40.4784 81.9435 40.5434 81.9995 40.5968L91.364 49.9414C91.0794 50.3554 90.9123 50.8391 90.8805 51.3408C90.8461 51.8433 90.949 52.3456 91.178 52.794C76.7034 68.3042 68.8138 88.8441 69.176 110.074C69.5466 131.307 78.1417 151.563 93.1452 166.564C108.155 181.578 128.394 190.171 149.601 190.536C170.809 190.905 191.334 183.016 206.854 168.531C207.252 168.736 207.692 168.847 208.139 168.854C208.704 168.853 209.254 168.68 209.718 168.357L217.871 176.538C217.924 176.594 217.987 176.639 218.057 176.67C218.129 176.697 218.204 176.711 218.281 176.712C218.355 176.71 218.429 176.696 218.5 176.67C218.57 176.639 218.633 176.594 218.686 176.538C218.739 176.486 218.781 176.424 218.81 176.356C218.842 176.287 218.859 176.212 218.859 176.136C218.858 176.06 218.841 175.986 218.81 175.917C218.781 175.847 218.739 175.784 218.686 175.73L210.503 167.52C210.776 167.081 210.919 166.573 210.916 166.055C210.914 165.61 210.803 165.172 210.594 164.78L220.099 154.81C220.154 154.756 220.196 154.691 220.223 154.619C220.253 154.549 220.267 154.472 220.264 154.396C220.269 154.323 220.26 154.25 220.237 154.181C220.213 154.112 220.176 154.049 220.128 153.994ZM92.2194 50.7818C92.3933 50.4337 92.6868 50.1603 93.046 50.0118C93.2395 49.9251 93.4498 49.8827 93.6617 49.8876C93.9139 49.8878 94.1627 49.9459 94.3891 50.0573C94.6157 50.1661 94.8117 50.3297 94.9594 50.5334C95.1475 50.7726 95.2662 51.0591 95.3024 51.3615C95.3264 51.6663 95.2693 51.972 95.1371 52.2475C95.0021 52.5286 94.7918 52.7666 94.5296 52.9348C94.2716 53.1045 93.9704 53.1965 93.6617 53.1998C93.2853 53.1915 92.9222 53.059 92.6286 52.823C92.3353 52.5852 92.1302 52.2557 92.0459 51.8873C92.0376 51.7729 92.0376 51.6581 92.0459 51.5437C92.0408 51.2793 92.1004 51.0178 92.2194 50.7818ZM209.656 166.667C209.508 167.034 209.233 167.335 208.883 167.516C208.652 167.633 208.398 167.694 208.139 167.694C208.016 167.711 207.891 167.711 207.767 167.694C207.384 167.593 207.048 167.362 206.817 167.04C206.621 166.761 206.515 166.429 206.515 166.088C206.514 165.821 206.582 165.558 206.713 165.326C206.892 164.982 207.184 164.71 207.54 164.556C207.737 164.476 207.948 164.436 208.16 164.44C208.501 164.438 208.834 164.546 209.11 164.746C209.433 164.978 209.665 165.315 209.767 165.699C209.776 165.819 209.776 165.939 209.767 166.059C209.77 166.267 209.732 166.474 209.656 166.667Z" fill="#688FB7"/>
<path d="M150.997 191.405C134.935 191.426 119.215 186.759 105.757 177.974C92.3046 169.184 81.7039 156.653 75.2546 141.917C68.8088 127.184 66.798 110.886 69.469 95.0241C72.1303 79.1597 79.3595 64.4198 90.2684 52.6155C90.1643 52.2762 90.1127 51.9229 90.1155 51.568C90.1139 51.085 90.208 50.6066 90.3924 50.1603L81.5444 41.325C81.3337 41.1116 81.1901 40.841 81.1312 40.5467C81.0726 40.2519 81.1028 39.9464 81.218 39.6689C81.3302 39.3896 81.5248 39.1513 81.7759 38.9858C82.0202 38.8207 82.3077 38.7315 82.6024 38.7291C82.8006 38.7289 82.997 38.7669 83.181 38.8409C83.3648 38.9163 83.532 39.0275 83.6727 39.168L92.5703 48.0529C92.9754 47.8989 93.4056 47.8217 93.839 47.8252C94.1603 47.826 94.4801 47.8705 94.7895 47.9577L104.166 38.7001C104.31 38.5595 104.48 38.4484 104.666 38.373C104.85 38.2986 105.047 38.2607 105.245 38.2612C105.444 38.2611 105.641 38.3019 105.824 38.3813C106.01 38.4587 106.178 38.5727 106.319 38.7167C106.458 38.8583 106.567 39.0256 106.642 39.2094C106.717 39.3948 106.756 39.5929 106.758 39.7931C106.755 39.9941 106.713 40.1925 106.634 40.3769C106.555 40.5605 106.443 40.7276 106.303 40.8696L97.1492 49.8953C97.4177 50.4061 97.5595 50.9742 97.5624 51.5514C97.549 52.5409 97.15 53.4858 96.4508 54.1846C95.7524 54.8808 94.8117 55.2786 93.8266 55.2942C93.271 55.2959 92.7224 55.1698 92.2231 54.9257C78.3375 70.0517 70.8283 89.9712 71.2666 110.517C71.703 131.063 80.0498 150.645 94.5622 165.168C109.076 179.704 128.632 188.065 149.15 188.507C169.667 188.945 189.56 181.429 204.68 167.528C204.446 167.036 204.327 166.496 204.333 165.951C204.331 165.458 204.426 164.97 204.614 164.514C204.806 164.059 205.087 163.646 205.44 163.301C206.144 162.599 207.096 162.204 208.089 162.204C208.636 162.204 209.176 162.328 209.668 162.568L218.565 153.273C218.707 153.123 218.877 153.004 219.065 152.921C219.252 152.839 219.453 152.797 219.656 152.797C220.054 152.789 220.438 152.937 220.727 153.211C221.013 153.492 221.179 153.874 221.19 154.275C221.19 154.474 221.155 154.672 221.086 154.859C221.009 155.044 220.897 155.213 220.756 155.356L211.664 164.878C211.767 165.221 211.822 165.576 211.825 165.934C211.818 166.369 211.741 166.799 211.598 167.209L219.28 174.927C219.533 175.217 219.664 175.594 219.648 175.978C219.635 176.363 219.475 176.727 219.202 176.997C218.934 177.273 218.569 177.433 218.185 177.444C217.8 177.462 217.422 177.333 217.127 177.084L209.531 169.404C209.086 169.585 208.611 169.679 208.13 169.681C207.764 169.677 207.4 169.623 207.048 169.52C191.789 183.637 171.767 191.454 150.997 191.405ZM208.106 165.243C208.018 165.226 207.929 165.226 207.841 165.243C207.689 165.305 207.565 165.419 207.49 165.566C207.432 165.663 207.402 165.775 207.403 165.889C207.401 166.037 207.448 166.183 207.535 166.303C207.633 166.444 207.781 166.541 207.949 166.576C208.001 166.584 208.054 166.584 208.106 166.576C208.212 166.576 208.317 166.551 208.411 166.501C208.561 166.421 208.681 166.295 208.755 166.141C208.763 166.056 208.763 165.97 208.755 165.884C208.759 165.833 208.759 165.782 208.755 165.731C208.716 165.563 208.615 165.415 208.473 165.317C208.366 165.241 208.237 165.202 208.106 165.205V165.243ZM93.8472 50.8269C93.7609 50.8145 93.6732 50.8145 93.5869 50.8269C93.4344 50.8923 93.31 51.0096 93.2356 51.1581C93.1782 51.253 93.1482 51.3619 93.1488 51.4728C93.1447 51.5238 93.1447 51.575 93.1488 51.626C93.1869 51.7935 93.2855 51.941 93.4257 52.04C93.5437 52.1321 93.6893 52.1817 93.839 52.1808C93.9705 52.1803 94.0987 52.1399 94.2068 52.0648C94.3134 51.9941 94.4002 51.8972 94.4589 51.7833C94.5086 51.6891 94.5329 51.5834 94.5291 51.4769C94.5288 51.3272 94.4795 51.1817 94.3886 51.0629C94.2874 50.9274 94.1406 50.8333 93.9753 50.7979L93.8472 50.8269Z" fill="#688FB7"/>
<path opacity="0.5" d="M212.478 120.102C230.876 120.102 245.783 104.894 245.783 86.0935C245.783 67.2926 230.876 52.0938 212.478 52.0938C194.08 52.0938 179.165 67.3009 179.165 86.0935C179.165 104.886 194.08 120.102 212.478 120.102Z" fill="#223548"/>
<path opacity="0.7" d="M225.637 56.0518L213.206 52.0938L192.332 114.239L204.788 118.193L225.637 56.0518Z" fill="#CEDBE8"/>
<path opacity="0.7" d="M209.635 120.102L230.881 57.8451L227.012 56.603L205.767 118.86L209.635 120.102Z" fill="#CEDBE8"/>
<path d="M229.091 116.405L219.999 120.102L225.822 134.552L234.914 130.863L229.091 116.405Z" fill="#B9C1C6"/>
<path d="M225.673 133.582C225.501 133.653 225.345 133.757 225.213 133.888C225.081 134.02 224.976 134.176 224.905 134.348C224.762 134.697 224.762 135.088 224.905 135.437L238.695 169.437C238.977 170.11 239.387 170.722 239.902 171.238C240.418 171.753 241.03 172.159 241.704 172.435C242.377 172.715 243.099 172.86 243.828 172.86C244.557 172.86 245.279 172.715 245.952 172.435L247.027 171.996C248.382 171.424 249.457 170.339 250.019 168.977C250.577 167.615 250.577 166.088 250.019 164.725L236.228 130.775C236.157 130.601 236.054 130.442 235.922 130.308C235.79 130.174 235.633 130.068 235.46 129.997C235.287 129.923 235.102 129.885 234.914 129.885C234.726 129.885 234.539 129.922 234.364 129.993L225.673 133.582Z" fill="#F58B00"/>
<path d="M219.619 119.332L220.574 121.617C220.574 121.617 225.351 123.728 230.331 119.294L228.81 115.651L224.628 117.721L219.619 119.332Z" fill="#688FB7"/>
<path d="M212.709 121.278C204.611 121.283 196.762 118.474 190.501 113.328C184.239 108.185 179.95 101.026 178.367 93.0701C176.786 85.115 178.007 76.8567 181.822 69.7025C185.634 62.5434 191.808 56.9325 199.291 53.8288C206.771 50.719 215.097 50.3077 222.847 52.6654C230.599 55.017 237.295 59.9927 241.791 66.7422C246.285 73.4867 248.305 81.5844 247.506 89.6544C246.716 97.7296 243.152 105.279 237.422 111.014C234.179 114.274 230.324 116.859 226.078 118.62C221.84 120.378 217.297 121.282 212.709 121.278ZM212.709 54.0689C205.272 54.0544 198.06 56.6254 192.303 61.3433C186.547 66.0586 182.603 72.629 181.145 79.933C179.676 87.2376 180.783 94.8265 184.277 101.404C187.774 107.98 193.439 113.137 200.308 115.995C207.174 118.852 214.817 119.235 221.933 117.079C229.054 114.926 235.207 110.361 239.34 104.166C243.477 97.974 245.342 90.5364 244.617 83.121C243.89 75.7069 240.621 68.7744 235.364 63.5045C229.358 57.4783 221.21 54.0849 212.709 54.0689Z" fill="#688FB7"/>
</svg>
