<svg width="320" height="156" viewBox="0 0 320 156" fill="none" xmlns="http://www.w3.org/2000/svg">
<path d="M296 0.389648H24C10.7452 0.389648 0 11.1348 0 24.3896V114.39C0 127.644 10.7452 138.39 24 138.39H296C309.255 138.39 320 127.644 320 114.39V24.3896C320 11.1348 309.255 0.389648 296 0.389648Z" fill="#89D1FF"/>
<mask id="mask0_4011_79843" style="mask-type:alpha" maskUnits="userSpaceOnUse" x="0" y="0" width="320" height="139">
<path d="M296 0.389648H24C10.7452 0.389648 0 11.1348 0 24.3896V114.39C0 127.644 10.7452 138.39 24 138.39H296C309.255 138.39 320 127.644 320 114.39V24.3896C320 11.1348 309.255 0.389648 296 0.389648Z" fill="#89D1FF"/>
</mask>
<g mask="url(#mask0_4011_79843)">
<path d="M198.713 147.905L187.183 152.845L132.813 111.095C135.793 110.405 138.633 109.485 141.273 108.375L198.703 147.905H198.713Z" fill="#1B90FF"/>
<path d="M115.993 45.905C141.673 47.555 162.283 63.785 162.003 82.175C161.833 93.605 153.633 103.175 141.293 108.385L137.603 105.835L128.103 107.465L132.833 111.095C127.333 112.375 121.313 112.885 115.013 112.475C89.3326 110.825 68.7326 94.595 69.0026 76.205C69.2826 57.825 90.3226 44.255 116.003 45.895L115.993 45.905Z" fill="#1B90FF"/>
<path d="M137.593 105.825L141.283 108.375C138.633 109.485 135.803 110.405 132.823 111.095L128.093 107.465L137.593 105.835V105.825Z" fill="#1B90FF"/>
</g>
<path d="M246.903 101.035L121.323 101.385C120.093 101.385 118.983 100.625 118.543 99.4752L92.1926 30.6452C91.4526 28.6952 92.8826 26.6152 94.9726 26.6152L220.613 26.7452L250.543 95.4752C251.683 98.1052 249.763 101.045 246.903 101.045V101.035Z" fill="#00144A"/>
<path d="M246.908 99.3692L121.328 99.7192C120.098 99.7192 118.988 98.9592 118.548 97.8092L92.1975 28.9792C91.4575 27.0292 92.8875 24.9492 94.9775 24.9492L220.618 25.0792L250.548 93.8092C251.688 96.4392 249.768 99.3792 246.908 99.3792V99.3692Z" fill="#00144A"/>
<path d="M248.238 96.8196L122.348 97.1696C120.888 97.1696 119.568 96.2697 119.048 94.8997L93.1275 27.1796C92.2475 24.8696 93.9475 22.3896 96.4275 22.3896L218.948 22.5096C220.348 22.5096 221.618 23.3396 222.178 24.6296L251.468 91.8796C252.478 94.2096 250.778 96.8096 248.248 96.8096L248.238 96.8196Z" fill="white"/>
<path fill-rule="evenodd" clip-rule="evenodd" d="M124.82 89.5373C124.785 89.5307 124.751 89.5229 124.716 89.514C124.513 89.4618 124.312 89.3713 124.129 89.2529C124.111 89.2414 124.094 89.2297 124.076 89.2178C123.896 89.094 123.735 88.9432 123.608 88.7755C123.586 88.7469 123.566 88.7177 123.546 88.6882C123.493 88.6087 123.448 88.5261 123.413 88.4412L122.332 85.8779C123.001 85.8779 123.756 86.3808 124.017 87.0012L124.624 88.4412H126.886C127.555 88.4412 128.309 88.9441 128.571 89.5645H125.098C125.006 89.5645 124.913 89.5551 124.82 89.5373ZM133.357 78.3899C132.688 78.3899 132.358 78.8928 132.619 79.5132L133.833 82.3932C134.095 83.0136 134.849 83.5165 135.518 83.5165L133.357 78.3899ZM130.201 70.9018C129.532 70.9018 129.201 71.4047 129.463 72.0251L130.677 74.9051C130.938 75.5255 131.693 76.0285 132.362 76.0285L130.201 70.9018ZM127.044 63.4138C126.375 63.4138 126.045 63.9167 126.306 64.5371L127.52 67.4171C127.782 68.0375 128.536 68.5404 129.205 68.5404L127.044 63.4138ZM123.888 55.9257C123.219 55.9257 122.888 56.4287 123.15 57.049L124.364 59.9291C124.625 60.5494 125.38 61.0524 126.049 61.0524L123.888 55.9257ZM120.731 48.4377C120.062 48.4377 119.732 48.9406 119.993 49.561L121.207 52.441C121.469 53.0614 122.223 53.5643 122.892 53.5643L120.731 48.4377ZM105.554 46.0763C106.223 46.0763 106.554 45.5733 106.292 44.953L105.685 43.513L107.946 43.513C108.616 43.513 108.946 43.01 108.685 42.3896H105.212C105.12 42.3896 105.035 42.3991 104.957 42.4169C104.928 42.4235 104.9 42.4313 104.872 42.4402C104.714 42.4924 104.589 42.5828 104.505 42.7013C104.497 42.7127 104.49 42.7244 104.482 42.7364C104.407 42.8602 104.373 43.011 104.387 43.1787C104.39 43.2073 104.393 43.2364 104.399 43.266C104.413 43.3455 104.438 43.4281 104.474 43.513L105.554 46.0763ZM106.55 48.4377C107.219 48.4377 107.973 48.9406 108.235 49.561L109.449 52.441C109.71 53.0614 109.38 53.5643 108.711 53.5643L106.55 48.4377ZM109.706 55.9257C110.375 55.9257 111.13 56.4287 111.391 57.049L112.605 59.9291C112.867 60.5494 112.536 61.0524 111.867 61.0524L109.706 55.9257ZM112.863 63.4138C113.532 63.4138 114.286 63.9167 114.548 64.5371L115.762 67.4171C116.023 68.0375 115.693 68.5404 115.024 68.5404L112.863 63.4138ZM116.019 70.9018C116.688 70.9018 117.443 71.4047 117.704 72.0251L118.918 74.9051C119.18 75.5255 118.849 76.0285 118.18 76.0285L116.019 70.9018ZM119.176 78.3899C119.845 78.3899 120.599 78.8928 120.861 79.5132L122.075 82.3932C122.336 83.0136 122.006 83.5165 121.337 83.5165L119.176 78.3899ZM113.497 42.3896C113.759 43.01 114.513 43.513 115.182 43.513H117.444L118.051 44.953C118.312 45.5733 119.067 46.0763 119.736 46.0763L118.655 43.513C118.62 43.4281 118.575 43.3455 118.522 43.266C118.502 43.2364 118.481 43.2073 118.46 43.1787C118.333 43.011 118.172 42.8602 117.992 42.7364C117.974 42.7244 117.957 42.7127 117.939 42.7013C117.756 42.5828 117.555 42.4924 117.352 42.4402C117.317 42.4313 117.283 42.4235 117.248 42.4169C117.155 42.3991 117.062 42.3896 116.97 42.3896H113.497ZM136.514 85.8779C135.845 85.8779 135.514 86.3808 135.776 87.0012L136.383 88.4412H134.122C133.452 88.4412 133.122 88.9441 133.383 89.5645H136.856C136.948 89.5645 137.033 89.5551 137.111 89.5373C137.14 89.5307 137.168 89.5229 137.196 89.514C137.354 89.4618 137.479 89.3713 137.563 89.2529C137.571 89.2414 137.578 89.2297 137.586 89.2178C137.661 89.094 137.695 88.9432 137.681 88.7755C137.678 88.7469 137.675 88.7177 137.669 88.6882C137.655 88.6087 137.63 88.5261 137.594 88.4412L136.514 85.8779Z" fill="#00144A"/>
<path fill-rule="evenodd" clip-rule="evenodd" d="M145.676 89.5373C145.641 89.5307 145.606 89.5229 145.572 89.514C145.369 89.4618 145.168 89.3713 144.984 89.2529C144.967 89.2414 144.949 89.2297 144.932 89.2178C144.752 89.094 144.591 88.9432 144.464 88.7755C144.442 88.7469 144.421 88.7177 144.402 88.6882C144.349 88.6087 144.304 88.5261 144.268 88.4412L143.188 85.8779C143.857 85.8779 144.611 86.3808 144.873 87.0012L145.48 88.4412H147.741C148.41 88.4412 149.165 88.9441 149.426 89.5645H145.954C145.862 89.5645 145.769 89.5551 145.676 89.5373ZM154.213 78.3899C153.544 78.3899 153.213 78.8928 153.475 79.5132L154.689 82.3932C154.95 83.0136 155.705 83.5165 156.374 83.5165L154.213 78.3899ZM151.056 70.9018C150.387 70.9018 150.057 71.4047 150.318 72.0251L151.532 74.9051C151.794 75.5255 152.548 76.0285 153.218 76.0285L151.056 70.9018ZM147.9 63.4138C147.231 63.4138 146.9 63.9167 147.162 64.5371L148.376 67.4171C148.637 68.0375 149.392 68.5404 150.061 68.5404L147.9 63.4138ZM144.743 55.9257C144.074 55.9257 143.744 56.4287 144.005 57.049L145.219 59.9291C145.481 60.5494 146.235 61.0524 146.904 61.0524L144.743 55.9257ZM141.587 48.4377C140.918 48.4377 140.587 48.9406 140.849 49.561L142.063 52.441C142.324 53.0614 143.079 53.5643 143.748 53.5643L141.587 48.4377ZM126.41 46.0763C127.079 46.0763 127.409 45.5733 127.148 44.953L126.541 43.513L128.802 43.513C129.471 43.513 129.802 43.01 129.54 42.3896H126.067C125.976 42.3896 125.891 42.3991 125.812 42.4169C125.783 42.4235 125.755 42.4313 125.728 42.4402C125.569 42.4924 125.445 42.5828 125.361 42.7013C125.353 42.7127 125.345 42.7244 125.338 42.7364C125.262 42.8602 125.228 43.011 125.243 43.1787C125.245 43.2073 125.249 43.2364 125.254 43.266C125.269 43.3455 125.293 43.4281 125.329 43.513L126.41 46.0763ZM127.405 48.4377C128.074 48.4377 128.829 48.9406 129.09 49.561L130.304 52.441C130.566 53.0614 130.235 53.5643 129.566 53.5643L127.405 48.4377ZM130.562 55.9257C131.231 55.9257 131.985 56.4287 132.247 57.049L133.461 59.9291C133.722 60.5494 133.392 61.0524 132.723 61.0524L130.562 55.9257ZM133.718 63.4138C134.387 63.4138 135.142 63.9167 135.403 64.5371L136.617 67.4171C136.879 68.0375 136.548 68.5404 135.879 68.5404L133.718 63.4138ZM136.875 70.9018C137.544 70.9018 138.298 71.4047 138.56 72.0251L139.774 74.9051C140.035 75.5255 139.705 76.0285 139.036 76.0285L136.875 70.9018ZM140.031 78.3899C140.7 78.3899 141.455 78.8928 141.716 79.5132L142.93 82.3932C143.192 83.0136 142.862 83.5165 142.192 83.5165L140.031 78.3899ZM134.353 42.3896C134.614 43.01 135.369 43.513 136.038 43.513H138.299L138.906 44.953C139.168 45.5733 139.922 46.0763 140.591 46.0763L139.511 43.513C139.475 43.4281 139.43 43.3455 139.377 43.266C139.358 43.2364 139.337 43.2073 139.315 43.1787C139.188 43.011 139.027 42.8602 138.847 42.7364C138.83 42.7244 138.812 42.7127 138.795 42.7013C138.611 42.5828 138.41 42.4924 138.208 42.4402C138.173 42.4313 138.138 42.4235 138.103 42.4169C138.01 42.3991 137.917 42.3896 137.826 42.3896H134.353ZM157.37 85.8779C156.7 85.8779 156.37 86.3808 156.631 87.0012L157.238 88.4412H154.977C154.308 88.4412 153.977 88.9441 154.239 89.5645H157.712C157.803 89.5645 157.889 89.5551 157.967 89.5373C157.996 89.5307 158.024 89.5229 158.051 89.514C158.21 89.4618 158.335 89.3713 158.418 89.2529C158.426 89.2414 158.434 89.2297 158.441 89.2178C158.517 89.094 158.551 88.9432 158.536 88.7755C158.534 88.7469 158.53 88.7177 158.525 88.6882C158.511 88.6087 158.486 88.5261 158.45 88.4412L157.37 85.8779Z" fill="#00144A"/>
<path fill-rule="evenodd" clip-rule="evenodd" d="M166.531 89.5373C166.497 89.5307 166.462 89.5229 166.427 89.514C166.224 89.4618 166.023 89.3713 165.84 89.2529C165.822 89.2414 165.805 89.2297 165.787 89.2178C165.607 89.094 165.446 88.9432 165.319 88.7755C165.298 88.7469 165.277 88.7177 165.257 88.6882C165.205 88.6087 165.16 88.5261 165.124 88.4412L164.043 85.8779C164.712 85.8779 165.467 86.3808 165.729 87.0012L166.336 88.4412H168.597C169.266 88.4412 170.02 88.9441 170.282 89.5645H166.809C166.718 89.5645 166.624 89.5551 166.531 89.5373ZM175.069 78.3899C174.399 78.3899 174.069 78.8928 174.33 79.5132L175.544 82.3932C175.806 83.0136 176.56 83.5165 177.23 83.5165L175.069 78.3899ZM171.912 70.9018C171.243 70.9018 170.912 71.4047 171.174 72.0251L172.388 74.9051C172.649 75.5255 173.404 76.0285 174.073 76.0285L171.912 70.9018ZM168.755 63.4138C168.086 63.4138 167.756 63.9167 168.017 64.5371L169.231 67.4171C169.493 68.0375 170.247 68.5404 170.917 68.5404L168.755 63.4138ZM165.599 55.9257C164.93 55.9257 164.599 56.4287 164.861 57.049L166.075 59.9291C166.336 60.5494 167.091 61.0524 167.76 61.0524L165.599 55.9257ZM162.442 48.4377C161.773 48.4377 161.443 48.9406 161.704 49.561L162.918 52.441C163.18 53.0614 163.934 53.5643 164.603 53.5643L162.442 48.4377ZM147.265 46.0763C147.934 46.0763 148.265 45.5733 148.003 44.953L147.396 43.513L149.658 43.513C150.327 43.513 150.657 43.01 150.396 42.3896H146.923C146.831 42.3896 146.746 42.3991 146.668 42.4169C146.639 42.4235 146.611 42.4313 146.584 42.4402C146.425 42.4924 146.3 42.5828 146.217 42.7013C146.208 42.7127 146.201 42.7244 146.193 42.7364C146.118 42.8602 146.084 43.011 146.098 43.1787C146.101 43.2073 146.105 43.2364 146.11 43.266C146.124 43.3455 146.149 43.4281 146.185 43.513L147.265 46.0763ZM148.261 48.4377C148.93 48.4377 149.684 48.9406 149.946 49.561L151.16 52.441C151.421 53.0614 151.091 53.5643 150.422 53.5643L148.261 48.4377ZM151.417 55.9257C152.086 55.9257 152.841 56.4287 153.102 57.049L154.316 59.9291C154.578 60.5494 154.247 61.0524 153.578 61.0524L151.417 55.9257ZM154.574 63.4138C155.243 63.4138 155.997 63.9167 156.259 64.5371L157.473 67.4171C157.734 68.0375 157.404 68.5404 156.735 68.5404L154.574 63.4138ZM157.73 70.9018C158.399 70.9018 159.154 71.4047 159.415 72.0251L160.63 74.9051C160.891 75.5255 160.561 76.0285 159.891 76.0285L157.73 70.9018ZM160.887 78.3899C161.556 78.3899 162.31 78.8928 162.572 79.5132L163.786 82.3932C164.048 83.0136 163.717 83.5165 163.048 83.5165L160.887 78.3899ZM155.208 42.3896C155.47 43.01 156.224 43.513 156.893 43.513H159.155L159.762 44.953C160.023 45.5733 160.778 46.0763 161.447 46.0763L160.366 43.513C160.331 43.4281 160.286 43.3455 160.233 43.266C160.213 43.2364 160.193 43.2073 160.171 43.1787C160.044 43.011 159.883 42.8602 159.703 42.7364C159.685 42.7244 159.668 42.7127 159.65 42.7013C159.467 42.5828 159.266 42.4924 159.063 42.4402C159.028 42.4313 158.994 42.4235 158.959 42.4169C158.866 42.3991 158.773 42.3896 158.681 42.3896H155.208ZM178.225 85.8779C177.556 85.8779 177.225 86.3808 177.487 87.0012L178.094 88.4412H175.833C175.163 88.4412 174.833 88.9441 175.094 89.5645H178.567C178.659 89.5645 178.744 89.5551 178.822 89.5373C178.851 89.5307 178.88 89.5229 178.907 89.514C179.066 89.4618 179.19 89.3713 179.274 89.2529C179.282 89.2414 179.289 89.2297 179.297 89.2178C179.372 89.094 179.406 88.9432 179.392 88.7755C179.389 88.7469 179.386 88.7177 179.38 88.6882C179.366 88.6087 179.341 88.5261 179.306 88.4412L178.225 85.8779Z" fill="#00144A"/>
<path fill-rule="evenodd" clip-rule="evenodd" d="M187.82 89.5373C187.785 89.5307 187.751 89.5229 187.716 89.514C187.513 89.4618 187.312 89.3713 187.129 89.2529C187.111 89.2414 187.094 89.2297 187.076 89.2178C186.896 89.094 186.735 88.9432 186.608 88.7755C186.586 88.7469 186.566 88.7177 186.546 88.6882C186.493 88.6087 186.448 88.5261 186.413 88.4412L185.332 85.8779C186.001 85.8779 186.756 86.3808 187.017 87.0012L187.624 88.4412H189.886C190.555 88.4412 191.309 88.9441 191.571 89.5645H188.098C188.006 89.5645 187.913 89.5551 187.82 89.5373ZM196.357 78.3899C195.688 78.3899 195.358 78.8928 195.619 79.5132L196.833 82.3932C197.095 83.0136 197.849 83.5165 198.518 83.5165L196.357 78.3899ZM193.201 70.9018C192.532 70.9018 192.201 71.4047 192.463 72.0251L193.677 74.9051C193.938 75.5255 194.693 76.0285 195.362 76.0285L193.201 70.9018ZM190.044 63.4138C189.375 63.4138 189.045 63.9167 189.306 64.5371L190.52 67.4171C190.782 68.0375 191.536 68.5404 192.205 68.5404L190.044 63.4138ZM186.888 55.9257C186.219 55.9257 185.888 56.4287 186.15 57.049L187.364 59.9291C187.625 60.5494 188.38 61.0524 189.049 61.0524L186.888 55.9257ZM183.731 48.4377C183.062 48.4377 182.732 48.9406 182.993 49.561L184.207 52.441C184.469 53.0614 185.223 53.5643 185.892 53.5643L183.731 48.4377ZM168.554 46.0763C169.223 46.0763 169.554 45.5733 169.292 44.953L168.685 43.513L170.946 43.513C171.616 43.513 171.946 43.01 171.685 42.3896H168.212C168.12 42.3896 168.035 42.3991 167.957 42.4169C167.928 42.4235 167.9 42.4313 167.872 42.4402C167.714 42.4924 167.589 42.5828 167.505 42.7013C167.497 42.7127 167.49 42.7244 167.482 42.7364C167.407 42.8602 167.373 43.011 167.387 43.1787C167.39 43.2073 167.393 43.2364 167.399 43.266C167.413 43.3455 167.438 43.4281 167.474 43.513L168.554 46.0763ZM169.55 48.4377C170.219 48.4377 170.973 48.9406 171.235 49.561L172.449 52.441C172.71 53.0614 172.38 53.5643 171.711 53.5643L169.55 48.4377ZM172.706 55.9257C173.375 55.9257 174.13 56.4287 174.391 57.049L175.605 59.9291C175.867 60.5494 175.536 61.0524 174.867 61.0524L172.706 55.9257ZM175.863 63.4138C176.532 63.4138 177.286 63.9167 177.548 64.5371L178.762 67.4171C179.023 68.0375 178.693 68.5404 178.024 68.5404L175.863 63.4138ZM179.019 70.9018C179.688 70.9018 180.443 71.4047 180.704 72.0251L181.918 74.9051C182.18 75.5255 181.849 76.0285 181.18 76.0285L179.019 70.9018ZM182.176 78.3899C182.845 78.3899 183.599 78.8928 183.861 79.5132L185.075 82.3932C185.336 83.0136 185.006 83.5165 184.337 83.5165L182.176 78.3899ZM176.497 42.3896C176.759 43.01 177.513 43.513 178.182 43.513H180.444L181.051 44.953C181.312 45.5733 182.067 46.0763 182.736 46.0763L181.655 43.513C181.62 43.4281 181.575 43.3455 181.522 43.266C181.502 43.2364 181.481 43.2073 181.46 43.1787C181.333 43.011 181.172 42.8602 180.992 42.7364C180.974 42.7244 180.957 42.7127 180.939 42.7013C180.756 42.5828 180.555 42.4924 180.352 42.4402C180.317 42.4313 180.283 42.4235 180.248 42.4169C180.155 42.3991 180.062 42.3896 179.97 42.3896H176.497ZM199.514 85.8779C198.845 85.8779 198.514 86.3808 198.776 87.0012L199.383 88.4412H197.122C196.452 88.4412 196.122 88.9441 196.383 89.5645H199.856C199.948 89.5645 200.033 89.5551 200.111 89.5373C200.14 89.5307 200.168 89.5229 200.196 89.514C200.354 89.4618 200.479 89.3713 200.563 89.2529C200.571 89.2414 200.578 89.2297 200.586 89.2178C200.661 89.094 200.695 88.9432 200.681 88.7755C200.678 88.7469 200.675 88.7177 200.669 88.6882C200.655 88.6087 200.63 88.5261 200.594 88.4412L199.514 85.8779Z" fill="#00144A"/>
<path fill-rule="evenodd" clip-rule="evenodd" d="M208.676 89.5373C208.641 89.5307 208.606 89.5229 208.572 89.514C208.369 89.4618 208.168 89.3713 207.984 89.2529C207.967 89.2414 207.949 89.2297 207.932 89.2178C207.752 89.094 207.591 88.9432 207.464 88.7755C207.442 88.7469 207.421 88.7177 207.402 88.6882C207.349 88.6087 207.304 88.5261 207.268 88.4412L206.188 85.8779C206.857 85.8779 207.611 86.3808 207.873 87.0012L208.48 88.4412H210.741C211.41 88.4412 212.165 88.9441 212.426 89.5645H208.954C208.862 89.5645 208.769 89.5551 208.676 89.5373ZM217.213 78.3899C216.544 78.3899 216.213 78.8928 216.475 79.5132L217.689 82.3932C217.95 83.0136 218.705 83.5165 219.374 83.5165L217.213 78.3899ZM214.056 70.9018C213.387 70.9018 213.057 71.4047 213.318 72.0251L214.532 74.9051C214.794 75.5255 215.548 76.0285 216.218 76.0285L214.056 70.9018ZM210.9 63.4138C210.231 63.4138 209.9 63.9167 210.162 64.5371L211.376 67.4171C211.637 68.0375 212.392 68.5404 213.061 68.5404L210.9 63.4138ZM207.743 55.9257C207.074 55.9257 206.744 56.4287 207.005 57.049L208.219 59.9291C208.481 60.5494 209.235 61.0524 209.904 61.0524L207.743 55.9257ZM204.587 48.4377C203.918 48.4377 203.587 48.9406 203.849 49.561L205.063 52.441C205.324 53.0614 206.079 53.5643 206.748 53.5643L204.587 48.4377ZM189.41 46.0763C190.079 46.0763 190.409 45.5733 190.148 44.953L189.541 43.513L191.802 43.513C192.471 43.513 192.802 43.01 192.54 42.3896H189.067C188.976 42.3896 188.891 42.3991 188.812 42.4169C188.783 42.4235 188.755 42.4313 188.728 42.4402C188.569 42.4924 188.445 42.5828 188.361 42.7013C188.353 42.7127 188.345 42.7244 188.338 42.7364C188.262 42.8602 188.228 43.011 188.243 43.1787C188.245 43.2073 188.249 43.2364 188.254 43.266C188.269 43.3455 188.293 43.4281 188.329 43.513L189.41 46.0763ZM190.405 48.4377C191.074 48.4377 191.829 48.9406 192.09 49.561L193.304 52.441C193.566 53.0614 193.235 53.5643 192.566 53.5643L190.405 48.4377ZM193.562 55.9257C194.231 55.9257 194.985 56.4287 195.247 57.049L196.461 59.9291C196.722 60.5494 196.392 61.0524 195.723 61.0524L193.562 55.9257ZM196.718 63.4138C197.387 63.4138 198.142 63.9167 198.403 64.5371L199.617 67.4171C199.879 68.0375 199.548 68.5404 198.879 68.5404L196.718 63.4138ZM199.875 70.9018C200.544 70.9018 201.298 71.4047 201.56 72.0251L202.774 74.9051C203.035 75.5255 202.705 76.0285 202.036 76.0285L199.875 70.9018ZM203.031 78.3899C203.7 78.3899 204.455 78.8928 204.716 79.5132L205.93 82.3932C206.192 83.0136 205.862 83.5165 205.192 83.5165L203.031 78.3899ZM197.353 42.3896C197.614 43.01 198.369 43.513 199.038 43.513H201.299L201.906 44.953C202.168 45.5733 202.922 46.0763 203.591 46.0763L202.511 43.513C202.475 43.4281 202.43 43.3455 202.377 43.266C202.358 43.2364 202.337 43.2073 202.315 43.1787C202.188 43.011 202.027 42.8602 201.847 42.7364C201.83 42.7244 201.812 42.7127 201.795 42.7013C201.611 42.5828 201.41 42.4924 201.208 42.4402C201.173 42.4313 201.138 42.4235 201.103 42.4169C201.01 42.3991 200.917 42.3896 200.826 42.3896H197.353ZM220.37 85.8779C219.7 85.8779 219.37 86.3808 219.631 87.0012L220.238 88.4412H217.977C217.308 88.4412 216.977 88.9441 217.239 89.5645H220.712C220.803 89.5645 220.889 89.5551 220.967 89.5373C220.996 89.5307 221.024 89.5229 221.051 89.514C221.21 89.4618 221.335 89.3713 221.418 89.2529C221.426 89.2414 221.434 89.2297 221.441 89.2178C221.517 89.094 221.551 88.9432 221.536 88.7755C221.534 88.7469 221.53 88.7177 221.525 88.6882C221.511 88.6087 221.486 88.5261 221.45 88.4412L220.37 85.8779Z" fill="#00144A"/>
<path fill-rule="evenodd" clip-rule="evenodd" d="M229.531 89.5373C229.497 89.5307 229.462 89.5229 229.427 89.514C229.224 89.4618 229.023 89.3713 228.84 89.2529C228.822 89.2414 228.805 89.2297 228.787 89.2178C228.607 89.094 228.446 88.9432 228.319 88.7755C228.298 88.7469 228.277 88.7177 228.257 88.6882C228.205 88.6087 228.16 88.5261 228.124 88.4412L227.043 85.8779C227.712 85.8779 228.467 86.3808 228.729 87.0012L229.336 88.4412H231.597C232.266 88.4412 233.02 88.9441 233.282 89.5645H229.809C229.718 89.5645 229.624 89.5551 229.531 89.5373ZM238.069 78.3899C237.399 78.3899 237.069 78.8928 237.33 79.5132L238.544 82.3932C238.806 83.0136 239.56 83.5165 240.23 83.5165L238.069 78.3899ZM234.912 70.9018C234.243 70.9018 233.912 71.4047 234.174 72.0251L235.388 74.9051C235.649 75.5255 236.404 76.0285 237.073 76.0285L234.912 70.9018ZM231.755 63.4138C231.086 63.4138 230.756 63.9167 231.017 64.5371L232.231 67.4171C232.493 68.0375 233.247 68.5404 233.917 68.5404L231.755 63.4138ZM228.599 55.9257C227.93 55.9257 227.599 56.4287 227.861 57.049L229.075 59.9291C229.336 60.5494 230.091 61.0524 230.76 61.0524L228.599 55.9257ZM225.442 48.4377C224.773 48.4377 224.443 48.9406 224.704 49.561L225.918 52.441C226.18 53.0614 226.934 53.5643 227.603 53.5643L225.442 48.4377ZM210.265 46.0763C210.934 46.0763 211.265 45.5733 211.003 44.953L210.396 43.513L212.658 43.513C213.327 43.513 213.657 43.01 213.396 42.3896H209.923C209.831 42.3896 209.746 42.3991 209.668 42.4169C209.639 42.4235 209.611 42.4313 209.584 42.4402C209.425 42.4924 209.3 42.5828 209.217 42.7013C209.208 42.7127 209.201 42.7244 209.193 42.7364C209.118 42.8602 209.084 43.011 209.098 43.1787C209.101 43.2073 209.105 43.2364 209.11 43.266C209.124 43.3455 209.149 43.4281 209.185 43.513L210.265 46.0763ZM211.261 48.4377C211.93 48.4377 212.684 48.9406 212.946 49.561L214.16 52.441C214.421 53.0614 214.091 53.5643 213.422 53.5643L211.261 48.4377ZM214.417 55.9257C215.086 55.9257 215.841 56.4287 216.102 57.049L217.316 59.9291C217.578 60.5494 217.247 61.0524 216.578 61.0524L214.417 55.9257ZM217.574 63.4138C218.243 63.4138 218.997 63.9167 219.259 64.5371L220.473 67.4171C220.734 68.0375 220.404 68.5404 219.735 68.5404L217.574 63.4138ZM220.73 70.9018C221.399 70.9018 222.154 71.4047 222.415 72.0251L223.63 74.9051C223.891 75.5255 223.561 76.0285 222.891 76.0285L220.73 70.9018ZM223.887 78.3899C224.556 78.3899 225.31 78.8928 225.572 79.5132L226.786 82.3932C227.048 83.0136 226.717 83.5165 226.048 83.5165L223.887 78.3899ZM218.208 42.3896C218.47 43.01 219.224 43.513 219.893 43.513H222.155L222.762 44.953C223.023 45.5733 223.778 46.0763 224.447 46.0763L223.366 43.513C223.331 43.4281 223.286 43.3455 223.233 43.266C223.213 43.2364 223.193 43.2073 223.171 43.1787C223.044 43.011 222.883 42.8602 222.703 42.7364C222.685 42.7244 222.668 42.7127 222.65 42.7013C222.467 42.5828 222.266 42.4924 222.063 42.4402C222.028 42.4313 221.994 42.4235 221.959 42.4169C221.866 42.3991 221.773 42.3896 221.681 42.3896H218.208ZM241.225 85.8779C240.556 85.8779 240.225 86.3808 240.487 87.0012L241.094 88.4412H238.833C238.163 88.4412 237.833 88.9441 238.094 89.5645H241.567C241.659 89.5645 241.744 89.5551 241.822 89.5373C241.851 89.5307 241.88 89.5229 241.907 89.514C242.066 89.4618 242.19 89.3713 242.274 89.2529C242.282 89.2414 242.289 89.2297 242.297 89.2178C242.372 89.094 242.406 88.9432 242.392 88.7755C242.389 88.7469 242.386 88.7177 242.38 88.6882C242.366 88.6087 242.341 88.5261 242.306 88.4412L241.225 85.8779Z" fill="#00144A"/>
<path d="M140.94 32.714H104.3C103.74 32.714 103.234 32.374 103.015 31.8541C102.639 30.9542 103.282 29.9844 104.252 29.9844H140.892C141.452 29.9844 141.958 30.3243 142.177 30.8442C142.553 31.7441 141.91 32.714 140.94 32.714Z" fill="#0040B0"/>
<path d="M188.912 40.5749H171.262C170.692 40.5749 170.182 40.2349 169.972 39.7049L169.922 39.5949C169.542 38.6749 170.232 37.6649 171.222 37.6749L188.922 37.7849C189.462 37.7849 189.952 38.1049 190.182 38.5949C190.612 39.5149 189.932 40.5749 188.912 40.5749Z" fill="white"/>
<path d="M122.22 97.1535L144.1 97.0935C155.1 91.7035 162.27 82.6635 162.42 71.9935C162.7 53.6035 142.09 37.3635 116.41 35.7235C109.5 35.2835 102.92 35.9435 97 37.5035L100.09 45.7035L118.92 94.8835C119.44 96.2535 120.76 97.1535 122.22 97.1535Z" fill="#1B90FF"/>
<path fill-rule="evenodd" clip-rule="evenodd" d="M112.802 31.6691C112.802 31.6691 105.428 51.9272 117.674 69.8203C129.92 87.7133 147.789 95.0587 167.339 92.9958C186.89 90.9329 202.757 74.2223 200.265 51.0727C197.773 27.9231 185.027 20.4223 177.722 15.114C170.418 9.80559 151.67 5.53301 138.846 8.44182C126.022 11.3506 112.793 31.6605 112.793 31.6605L112.802 31.6691Z" fill="#8D2A00"/>
<path fill-rule="evenodd" clip-rule="evenodd" d="M150.126 13.8528C172.212 14.1808 192.323 30.0541 195.048 49.3023C197.765 68.5505 182.069 83.88 159.983 83.552C137.898 83.224 117.787 67.3507 115.062 48.1025C112.345 28.8543 128.041 13.5248 150.126 13.8528Z" fill="#56BDFF"/>
<mask id="mask1_4011_79843" style="mask-type:luminance" maskUnits="userSpaceOnUse" x="114" y="13" width="82" height="71">
<path d="M150.128 13.8518C172.214 14.1798 192.324 30.0531 195.05 49.3013C197.766 68.5495 182.071 83.8791 159.985 83.5511C137.899 83.2231 117.788 67.3498 115.063 48.1016C112.347 28.8534 128.042 13.5239 150.128 13.8518Z" fill="white"/>
</mask>
<g mask="url(#mask1_4011_79843)">
<path fill-rule="evenodd" clip-rule="evenodd" d="M150.126 13.8518C172.212 14.1798 192.323 30.0531 195.048 49.3013C197.765 68.5495 182.069 83.8791 159.983 83.5511C137.898 83.2231 117.787 67.3498 115.062 48.1016C112.345 28.8534 128.041 13.5239 150.126 13.8518Z" fill="#FFEAF4"/>
<path fill-rule="evenodd" clip-rule="evenodd" d="M188.623 -16.2305C190.305 -15.4623 190.797 -13.2699 191.788 -11.8025C194.677 -7.69393 197.566 -3.58535 200.455 0.523239C198.11 2.15459 195.755 3.78594 193.401 5.41729L191.59 1.01523C166.831 18.0451 142.072 35.0837 117.304 52.1136C115.484 55.2123 113.673 58.311 111.854 61.4097C107.749 64.2322 103.644 67.0547 99.5474 69.8772C99.3404 69.7391 99.1335 69.5924 98.9265 69.4543C98.8661 69.7564 99.0041 69.9635 98.7109 69.765C96.6757 66.744 94.6318 63.7316 92.5966 60.7106C92.0533 59.9165 90.5182 58.475 90.7683 57.6637L98.7626 52.2604C99.2542 49.6968 99.7371 47.1332 100.229 44.5697L113.173 35.593C138.32 18.3214 163.468 1.04976 188.615 -16.2218L188.623 -16.2305ZM239.599 21.7394C242.557 25.9861 245.515 30.2328 248.465 34.4795C249.223 35.4721 251.561 37.4574 251 38.8902C225.646 56.2222 200.292 73.5629 174.929 90.9035C168.866 95.1157 162.795 99.3365 156.724 103.549C155.508 104.455 151.558 108.201 149.997 107.614L141.744 95.1933C140.778 93.795 139.579 92.8197 138.89 91.0848C172.454 67.9696 206.018 44.8459 239.582 21.7222L239.599 21.7394Z" fill="white"/>
</g>
<path d="M162.105 86.2891C161.863 86.2891 161.631 86.2891 161.389 86.2891C137.251 85.9265 115.088 67.6537 111.974 45.5398C110.525 35.2684 113.354 25.4975 119.934 18.0313C127.178 9.81413 138.424 5.21355 150.73 5.39481C174.868 5.75733 197.032 24.0302 200.145 46.144C201.594 56.4155 198.765 66.1863 192.185 73.6526C185.079 81.7144 174.144 86.2977 162.096 86.2977L162.105 86.2891ZM150.014 10.0731C139.312 10.0731 129.653 14.0867 123.444 21.13C117.787 27.5518 115.355 35.9848 116.614 44.8838C119.417 64.7967 139.536 81.2655 161.458 81.5935C161.674 81.5935 161.889 81.5935 162.105 81.5935C172.807 81.5935 182.466 77.5799 188.675 70.5366C194.332 64.1148 196.764 55.6818 195.505 46.7828C192.702 26.8699 172.583 10.4011 150.661 10.0731C150.445 10.0731 150.23 10.0731 150.014 10.0731Z" fill="#C35500"/>
<path fill-rule="evenodd" clip-rule="evenodd" d="M186.218 151.629C186.218 151.629 165.417 94.6867 164.805 93.0554C164.193 91.4154 164.494 87.2377 168.556 86.2365C172.618 85.2266 174.998 89.456 175.869 91.4499C176.74 93.4438 199.275 148.703 199.275 148.703L193.936 150.601L186.218 151.637V151.629Z" fill="#C35500"/>
<path fill-rule="evenodd" clip-rule="evenodd" d="M190.96 143.715L168.296 86.0742C168.296 86.0742 163.001 88.1113 164.804 93.0485C166.615 97.9857 186.148 151.604 186.088 151.449C186.027 151.294 187.916 147.668 191.771 146.21L190.951 143.715H190.96Z" fill="#8D2A00"/>
<path fill-rule="evenodd" clip-rule="evenodd" d="M190.985 143.706L168.287 85.9609C168.287 85.9609 162.975 87.998 164.786 92.9524C166.597 97.8983 186.164 151.612 186.113 151.457C186.061 151.301 187.941 147.676 191.804 146.209L190.985 143.714V143.706Z" fill="#8D2A00"/>
<path fill-rule="evenodd" clip-rule="evenodd" d="M199.17 148.151L195.832 140.245C195.832 140.245 193.124 137.112 188.605 138.432C184.087 139.753 183.405 144.077 183.405 144.077L186.096 151.457L199.178 148.16L199.17 148.151Z" fill="#C35500"/>
<mask id="mask2_4011_79843" style="mask-type:luminance" maskUnits="userSpaceOnUse" x="183" y="138" width="17" height="14">
<path d="M199.17 148.151L195.833 140.245C195.833 140.245 193.125 137.112 188.606 138.432C184.087 139.753 183.406 144.077 183.406 144.077L186.097 151.457L199.179 148.16L199.17 148.151Z" fill="white"/>
</mask>
<g mask="url(#mask2_4011_79843)">
<path fill-rule="evenodd" clip-rule="evenodd" d="M188.503 137.476L191.289 144.778L187.856 153.504L186.666 155.697L182.992 150.923L180.155 140.73L188.503 137.476Z" fill="#8D2A00"/>
</g>
<path fill-rule="evenodd" clip-rule="evenodd" d="M192.677 143.723C196.437 143.784 199.455 146.485 199.404 149.765C199.352 153.045 196.264 155.661 192.496 155.609C188.727 155.557 185.717 152.847 185.769 149.567C185.821 146.287 188.908 143.672 192.668 143.723H192.677Z" fill="#8D2A00"/>
<path d="M142.734 40.2131L147.141 42.1897C147.141 42.1897 147.977 39.0133 150.711 37.054C152.85 35.5176 156.644 34.9652 159.878 37.5632C166.312 42.7335 162.112 46.7471 160.292 51.2096C159.387 53.4193 159.378 56.026 160.913 58.3651L165.148 57.4847C165.148 57.4847 164.13 56.751 164.423 53.8249C164.578 52.254 166.363 50.3465 167.493 47.0924C169.848 40.3598 163.293 32.5224 155.463 31.7974C150.703 31.3572 145.718 33.0835 142.725 40.239L142.734 40.2131Z" fill="#00144A"/>
<path d="M168.636 66.6241C169.771 65.5427 169.594 63.5129 168.241 62.0904C166.888 60.6679 164.871 60.3913 163.736 61.4727C162.601 62.554 162.778 64.5838 164.131 66.0064C165.484 67.4289 167.501 67.7054 168.636 66.6241Z" fill="#00144A"/>
</svg>
