<svg width="160" height="75" viewBox="0 0 160 75" fill="none" xmlns="http://www.w3.org/2000/svg">
<rect y="5.34473" width="160" height="69" rx="12" fill="#222F3B"/>
<path d="M86.0076 70.4274L41.1452 50.0001L27.0339 28.8392L78.5847 10.291L106.554 45.7258L86.0076 70.4274Z" fill="#101619"/>
<path d="M62.9325 20.1933L62.8964 20.1692L29.3941 31.9748L20.3999 23.6368L51.2533 14.4922L62.8964 20.4281L62.9325 20.1933Z" fill="#101619"/>
<path d="M89.2038 11.3802L89.1677 11.3561L56.2493 23.5229L48.5762 12.4368L83.9267 0.655273L89.1677 11.615L89.2038 11.3802Z" fill="#FF7F4C"/>
<path d="M89.2049 11.3802L89.1688 11.615L96.3221 0.655273L126.619 19.019L118.656 30.723L89.2049 11.3802Z" fill="#C35500"/>
<path d="M56.2498 23.5234L57.3093 44.1653L85.7727 70.028L86.0075 69.9136L85.3814 44.7566L56.2498 23.5234Z" fill="#450B00"/>
<path d="M118.656 30.7227L85.3822 44.7557L86.0083 70.4266L118.656 54.6838V30.7227Z" fill="#8D2A00"/>
<path d="M89.1681 11.6153L89.2042 11.3805L89.1681 11.3564L56.2498 23.5232L78.5846 39.8018L89.8363 35.1L89.1681 11.6153Z" fill="#A93E00"/>
<path d="M89.2049 11.3799L89.1688 11.6147L89.8371 35.0994L90.0538 35.0091L96.2606 40.1684L118.656 30.7227L89.2049 11.3799Z" fill="#8D2A00"/>
<path d="M90.0539 35.0098L89.8372 35.1001L78.5854 39.8018L85.3822 44.7564L90.0539 42.7878L97.1276 39.8018L90.0539 35.0098Z" fill="#340800"/>
<path d="M118.656 48.3166V30.7227L85.3822 44.7557L96.0164 59.3834L118.656 48.3166Z" fill="#450B00"/>
<path d="M118.657 30.7227L85.3832 44.7557L97.7585 53.07L130.4 37.3272L118.657 30.7227Z" fill="#FF7F4C"/>
<path d="M56.2495 23.5234L48.9294 35.716L77.0579 57.2115L85.3812 44.7566L56.2495 23.5234Z" fill="#C35500"/>
<path d="M27.0339 23.6973L29.8092 41.517L43.9205 62.2686V51.348" fill="#101619"/>
</svg>
