<svg width="320" height="240" viewBox="0 0 320 240" fill="none" xmlns="http://www.w3.org/2000/svg">
<rect y="51" width="320" height="138" rx="24" fill="#222F3B"/>
<path d="M217.659 152.405L178.521 137.693C178.388 137.653 178.256 137.632 178.124 137.663L61.7679 145.534C57.4305 145.716 57.513 147.071 58.6938 147.641L100.483 164.497C102.875 165.311 105.42 165.504 107.903 165.056L214.198 154.227C217.791 153.749 219.314 153.083 217.659 152.405Z" fill="#101619"/>
<path d="M74.0802 61.8232L97.1616 145.678C97.6557 147.48 99.4122 148.642 101.26 148.404L229.704 130.885C234.214 129.439 235.989 124.792 235.211 122.541L174.932 49.5186C174.374 47.9268 172.828 46.9022 171.154 47.0119L78.6361 49.729C76.2575 49.8754 71.4912 53.2969 74.0802 61.8232Z" fill="#00144A"/>
<path d="M75.2875 54.4499L99.5034 142.421C99.9974 144.223 101.754 145.385 103.602 145.147L232.201 127.463C234.561 127.161 236.053 124.755 235.266 122.505L206.476 44.5147C205.918 42.9229 204.372 41.8983 202.697 42.008L78.6724 49.7018C76.2938 49.8482 74.6563 52.1445 75.2875 54.4407V54.4499Z" fill="#D5DADD"/>
<path d="M206.476 44.5147C205.918 42.9229 204.372 41.8983 202.697 42.008L78.6724 49.7018C76.2938 49.8482 74.6563 52.1445 75.2875 54.4407L78.6816 66.7636L210.519 55.4745L206.467 44.5056L206.476 44.5147Z" fill="#2A4259"/>
<path d="M98.7629 56.5642C99.4033 59.2904 97.4455 61.6873 94.3716 61.9617C91.2612 62.2453 88.1233 60.2601 87.3823 57.4881C86.6321 54.6704 88.6356 52.1638 91.8558 51.9351C95.0303 51.7063 98.1133 53.8013 98.7629 56.5642Z" fill="#4D82B8"/>
<path d="M116.593 78.4198L92.9261 80.6062C92.6242 80.6337 92.3223 80.4507 92.2491 80.1946L91.2519 76.7182C91.1788 76.462 91.3617 76.2333 91.6636 76.2059L115.276 74.0926C115.568 74.0651 115.861 74.2481 115.934 74.4951L116.968 77.9075C117.041 78.1545 116.868 78.3832 116.584 78.4106L116.593 78.4198Z" fill="#4D82B8"/>
<path d="M116.373 89.1036L95.9448 91.1437C95.6429 91.1711 95.341 90.9881 95.2678 90.732L94.2615 87.2098C94.1883 86.9537 94.3713 86.7158 94.6731 86.6884L115.056 84.7215C115.349 84.694 115.641 84.877 115.724 85.1332L116.767 88.6004C116.84 88.8566 116.666 89.0853 116.373 89.1127V89.1036Z" fill="#4D82B8"/>
<path d="M122.896 99.2692L99.0008 101.831C98.6989 101.867 98.397 101.675 98.3147 101.41L97.29 97.8329C97.2168 97.5676 97.3998 97.3297 97.7017 97.3023L121.552 94.823C121.844 94.7956 122.146 94.9786 122.219 95.2347L123.281 98.7386C123.363 98.9947 123.189 99.2326 122.896 99.26V99.2692Z" fill="#4D82B8"/>
<path d="M126.117 109.916L102.102 112.669C101.8 112.706 101.489 112.514 101.416 112.249L100.382 108.626C100.309 108.36 100.492 108.123 100.794 108.086L124.763 105.415C125.055 105.378 125.357 105.57 125.44 105.826L126.519 109.385C126.601 109.65 126.428 109.888 126.135 109.916H126.117Z" fill="#4D82B8"/>
<path d="M123.71 121.404L105.249 123.655C104.947 123.691 104.636 123.499 104.554 123.234L103.501 119.556C103.428 119.291 103.611 119.044 103.913 119.007L122.329 116.821C122.622 116.784 122.933 116.976 123.006 117.242L124.085 120.864C124.168 121.13 123.985 121.377 123.692 121.413L123.71 121.404Z" fill="#4D82B8"/>
<path d="M132.694 131.662L108.442 134.809C108.131 134.846 107.82 134.663 107.747 134.389L106.676 130.656C106.594 130.382 106.786 130.135 107.088 130.089L131.295 127.024C131.587 126.988 131.899 127.171 131.981 127.445L133.088 131.104C133.17 131.37 132.996 131.626 132.694 131.662Z" fill="#4D82B8"/>
<path d="M158.255 74.5573L139.144 76.323C138.86 76.3504 138.568 76.1674 138.494 75.9204L137.424 72.563C137.342 72.316 137.506 72.0964 137.79 72.069L156.864 70.3582C157.139 70.3308 157.422 70.5137 157.505 70.7516L158.603 74.0633C158.685 74.3103 158.529 74.5207 158.255 74.5482V74.5573Z" fill="#4D82B8"/>
<path d="M164.732 84.2815L142.391 86.5137C142.108 86.5412 141.815 86.3582 141.733 86.1112L140.653 82.708C140.571 82.461 140.735 82.2323 141.019 82.2048L163.323 80.0458C163.597 80.0184 163.881 80.1922 163.963 80.4392L165.079 83.7875C165.162 84.0345 165.006 84.2541 164.732 84.2815Z" fill="#4D82B8"/>
<path d="M168.117 94.4263L145.676 96.8323C145.392 96.8597 145.1 96.6859 145.017 96.4298L143.919 92.9808C143.837 92.7247 144.002 92.496 144.285 92.4685L166.69 90.1357C166.964 90.1082 167.257 90.282 167.339 90.529L168.474 93.9231C168.556 94.1701 168.401 94.3988 168.126 94.4263H168.117Z" fill="#4D82B8"/>
<path d="M166.242 105.324L149.006 107.3C148.722 107.336 148.42 107.153 148.338 106.897L147.231 103.393C147.149 103.137 147.314 102.908 147.597 102.872L164.805 100.96C165.08 100.932 165.372 101.106 165.455 101.362L166.598 104.811C166.681 105.068 166.525 105.296 166.251 105.333L166.242 105.324Z" fill="#4D82B8"/>
<path d="M175.024 115.138L152.373 117.901C152.089 117.938 151.787 117.755 151.705 117.489L150.58 113.94C150.497 113.684 150.662 113.446 150.946 113.409L173.551 110.72C173.826 110.683 174.119 110.866 174.21 111.122L175.372 114.608C175.454 114.864 175.299 115.102 175.024 115.129V115.138Z" fill="#4D82B8"/>
<path d="M175.335 126.128L155.794 128.662C155.51 128.699 155.208 128.516 155.117 128.25L153.973 124.655C153.891 124.39 154.055 124.152 154.339 124.115L173.843 121.645C174.118 121.609 174.42 121.792 174.502 122.048L175.673 125.588C175.755 125.844 175.6 126.091 175.326 126.128H175.335Z" fill="#4D82B8"/>
<path d="M203.567 70.3668L182.617 72.3062C182.352 72.3337 182.069 72.1599 181.986 71.922L180.852 68.6743C180.769 68.4364 180.916 68.226 181.181 68.1986L202.094 66.3232C202.351 66.2957 202.625 66.4695 202.707 66.7074L203.869 69.9002C203.952 70.1381 203.814 70.3485 203.558 70.3668H203.567Z" fill="#4D82B8"/>
<path d="M201.134 80.6522L186.048 82.1526C185.783 82.18 185.499 82.0062 185.417 81.7592L184.273 78.4658C184.191 78.2279 184.337 78.0083 184.603 77.9809L199.661 76.5263C199.917 76.4988 200.201 76.6727 200.283 76.9105L201.454 80.1582C201.536 80.3961 201.399 80.6156 201.143 80.6339L201.134 80.6522Z" fill="#4D82B8"/>
<path d="M204.674 90.5118L189.524 92.1311C189.259 92.1585 188.975 91.9847 188.884 91.7377L187.722 88.3985C187.64 88.1515 187.786 87.932 188.051 87.9045L203.174 86.331C203.43 86.3035 203.713 86.4774 203.805 86.7152L204.985 90.0086C205.076 90.2465 204.93 90.4661 204.674 90.5027V90.5118Z" fill="#4D82B8"/>
<path d="M214.252 99.8257L193.046 102.25C192.781 102.278 192.488 102.104 192.406 101.857L191.226 98.4718C191.143 98.2248 191.29 97.9961 191.555 97.9686L212.725 95.6083C212.981 95.5809 213.264 95.7547 213.356 95.9926L214.563 99.3134C214.655 99.5604 214.518 99.78 214.252 99.8074V99.8257Z" fill="#4D82B8"/>
<path d="M214.902 110.263L196.615 112.496C196.349 112.532 196.057 112.349 195.965 112.102L194.776 108.672C194.684 108.425 194.84 108.196 195.105 108.159L213.365 105.991C213.631 105.964 213.914 106.138 213.997 106.385L215.213 109.76C215.305 110.007 215.168 110.236 214.902 110.263Z" fill="#4D82B8"/>
<path d="M216.576 120.768L200.228 122.891C199.953 122.927 199.67 122.744 199.578 122.488L198.37 119.012C198.279 118.755 198.425 118.527 198.7 118.49L215.021 116.423C215.286 116.386 215.57 116.569 215.661 116.816L216.896 120.247C216.988 120.503 216.85 120.732 216.585 120.768H216.576Z" fill="#4D82B8"/>
<path d="M181.294 77.453L205.741 146.824C206.291 148.829 208.245 150.122 210.301 149.857L253.821 143.211C256.447 142.876 260.256 139.412 259.696 136.002L231.328 70.8172C230.707 69.0462 228.987 67.9063 227.125 68.0285L186.012 69.1106C183.386 69.9961 179.971 73.2089 181.294 77.453Z" fill="#2A4259"/>
<path d="M183.462 74.1282L208.081 143.815C208.631 145.82 210.585 147.113 212.641 146.848L256.273 140.294C258.899 139.958 260.558 137.281 259.683 134.777L233.668 67.7976C233.047 66.0267 231.327 64.8868 229.465 65.0089L187.227 68.8459C184.581 69.0088 182.759 71.5634 183.462 74.118V74.1282Z" fill="#4D82B8"/>
<path d="M224.06 80.5399L201.16 83.1657C200.875 83.1962 200.57 83.0232 200.468 82.7688L199.185 79.3694C199.094 79.1252 199.247 78.8911 199.532 78.8605L222.391 76.2652C222.676 76.2347 222.981 76.4077 223.073 76.652L224.386 80.031C224.477 80.2752 224.335 80.5093 224.05 80.5399H224.06Z" fill="#D5DADD"/>
<path d="M221.475 91.5009L205.038 93.4347C204.753 93.4652 204.438 93.2922 204.346 93.0377L203.053 89.6078C202.962 89.3534 203.114 89.1295 203.399 89.0888L219.816 87.1754C220.101 87.1448 220.406 87.3179 220.508 87.5723L221.821 90.9818C221.913 91.2363 221.76 91.4602 221.485 91.5009H221.475Z" fill="#D5DADD"/>
<path d="M225.445 101.82L208.957 103.815C208.672 103.846 208.356 103.673 208.265 103.418L206.962 99.958C206.87 99.7035 207.023 99.4694 207.308 99.4389L223.775 97.4644C224.06 97.4339 224.366 97.6069 224.468 97.8614L225.791 101.301C225.892 101.556 225.74 101.79 225.455 101.82H225.445Z" fill="#D5DADD"/>
<path d="M236.029 111.41L212.906 114.28C212.621 114.32 212.305 114.137 212.203 113.883L210.89 110.392C210.799 110.137 210.951 109.903 211.236 109.863L234.33 107.023C234.615 106.992 234.93 107.166 235.022 107.42L236.365 110.88C236.467 111.135 236.314 111.369 236.029 111.41Z" fill="#D5DADD"/>
<path d="M236.792 122.3L216.894 124.834C216.599 124.875 216.294 124.692 216.192 124.427L214.859 120.906C214.757 120.651 214.92 120.407 215.205 120.377L235.082 117.873C235.367 117.832 235.682 118.015 235.784 118.27L237.138 121.771C237.24 122.025 237.087 122.27 236.802 122.3H236.792Z" fill="#D5DADD"/>
<path d="M238.665 133.169L220.905 135.49C220.61 135.53 220.294 135.347 220.203 135.082L218.859 131.53C218.757 131.266 218.92 131.032 219.205 130.991L236.935 128.701C237.22 128.66 237.535 128.843 237.637 129.098L239.001 132.63C239.103 132.894 238.95 133.128 238.665 133.169Z" fill="#D5DADD"/>
<path d="M217.109 101.567C217.109 101.567 211.062 109.783 199.318 111.308C187.573 112.834 171.463 104.141 167.254 90.767C162.68 76.2324 171.048 66.2721 185.348 63.1727C198.439 62.1289 217.109 101.567 217.109 101.567Z" fill="#8D2A00"/>
<path d="M218.697 83.2184C223.559 95.9458 216.744 107.906 203.026 109.569C188.972 111.273 173.806 101.495 169.598 88.1141C165.53 75.1914 173.423 64.1542 186.81 63.0835C199.902 62.0397 213.996 70.895 218.703 83.2117L218.697 83.2184Z" fill="#C35500"/>
<path d="M207.932 82.321C207.811 81.998 207.487 81.7973 207.143 81.8325L197.187 82.8534C196.84 82.8889 196.514 82.6843 196.396 82.357L193.192 73.5238C193.074 73.1996 192.753 72.9954 192.409 73.0266L187.155 73.503C186.661 73.5477 186.342 74.046 186.508 74.5132L189.416 82.7031C189.581 83.1668 189.267 83.6622 188.778 83.7124L179.108 84.7044C178.622 84.7543 178.309 85.2433 178.467 85.7055L180.096 90.4671C180.211 90.8034 180.544 91.0149 180.897 90.9761L191.33 89.8316C191.68 89.7932 192.011 90.0004 192.128 90.3321L195.406 99.5569C195.525 99.8917 195.86 100.099 196.213 100.056L201.59 99.4037C202.075 99.3448 202.379 98.8501 202.212 98.3909L199.139 89.9218C198.971 89.4592 199.281 88.9616 199.77 88.908L209.013 87.8962C209.505 87.8423 209.815 87.3385 209.641 86.8746L207.932 82.321Z" fill="#D5DADD"/>
</svg>
