<svg width="320" height="240" viewBox="0 0 320 240" fill="none" xmlns="http://www.w3.org/2000/svg">
<rect y="51" width="320" height="138" rx="24" fill="#222F3B"/>
<path d="M146.774 168.482L241.172 120.513L175.026 88.8945L54.6054 135.392L52 137.998L146.774 168.482Z" fill="#101619"/>
<path d="M106.404 148.111L121.623 70.221L124.463 71.2555L223.239 38.6211L226.171 104.683L106.392 148.111H106.404Z" fill="#2A4259"/>
<path d="M122.393 70.5977L146.763 168.478L241.425 120.636L223.17 38.2852L122.393 70.5977Z" fill="#3B5B7C"/>
<path d="M121.623 70.2091L122.393 70.6L223.171 38.2874L220.205 38L121.623 70.0827V70.2091Z" fill="#3B5B7C"/>
<path d="M123.681 71.5094L146.487 160.32L239.482 115.225L222.469 38.875L123.681 71.4979V71.5094Z" fill="#2A4259"/>
<path d="M124.462 71.244L148.154 159.629L241.873 114.19L223.239 38.6211L124.451 71.244H124.462Z" fill="#4D82B8"/>
<path d="M223.239 38.7461L229.435 62.0925C232.274 73.0588 237.171 83.2434 243.873 92.3935L252 103.486L158.12 148.489C144.452 132.235 134.647 113.027 129.624 92.3935L124.462 71.2426L223.239 38.7461Z" fill="#D5DADD"/>
<path d="M197.065 52.1618C197.709 51.2537 197.835 50.3571 197.835 49.8398L195.778 50.4836C195.778 50.61 195.651 50.8744 195.525 51.0008C195.398 51.1273 195.008 51.3917 194.755 51.6446L195.008 53.5757C195.26 53.5757 196.421 52.8056 197.065 52.1618Z" fill="#00144A"/>
<path fill-rule="evenodd" clip-rule="evenodd" d="M124.462 71.2438L127.739 84.6815L226.205 49.7021L223.239 38.6094L124.451 71.2323L124.462 71.2438Z" fill="#C35500"/>
<path d="M152.832 67.8851L149.223 69.0461L148.832 65.954L152.441 64.793L152.832 67.8851Z" fill="#2A4259"/>
<path d="M198.617 52.6781L195.008 53.8391L194.617 50.7469L198.226 49.5859L198.617 52.6781Z" fill="#2A4259"/>
<path d="M197.835 52.919L197.536 49.7923L198.226 49.5739C198.226 49.4475 198.617 52.6661 198.617 52.6661L197.847 52.919H197.835Z" fill="#8D2A00"/>
<path d="M210.342 100.648L240.517 87.4975C240.264 87.1067 240.126 86.8538 239.873 86.463L209.825 99.4868C206.985 93.429 204.537 86.9802 202.479 80.5315L231.757 69.3123C231.631 68.9215 231.504 68.5422 231.366 68.1513L202.089 79.3705C199.514 71.37 197.318 63.2545 195.249 55.2539L194.088 55.6447C196.146 63.6453 198.341 71.7608 200.928 79.8878L167.523 92.7852C164.81 84.5318 162.488 76.0255 160.431 67.772L159.27 68.1628C161.327 76.4163 163.649 84.9226 166.362 93.314L133.601 105.947C133.728 106.338 133.854 106.717 133.992 107.108L166.753 94.475C169.075 101.441 171.788 108.269 175.006 114.856L143.924 128.397C144.177 128.788 144.314 129.167 144.567 129.431L175.524 116.017C178.88 122.592 182.616 128.914 187.134 134.719L188.294 134.202C183.777 128.397 179.915 122.075 176.685 115.499L209.307 101.315C212.273 107.499 215.63 113.568 219.63 119.109L220.791 118.592C216.791 113.051 213.446 106.982 210.468 100.797L210.342 100.671V100.648ZM176.167 114.189C172.949 107.614 170.362 100.774 167.914 93.9462L201.318 81.0488C203.514 87.4975 205.962 93.8198 208.802 100.004L176.179 114.189H176.167Z" fill="#C35500"/>
<path d="M152.441 64.793L151.625 65.0918L151.97 68.161L152.832 67.8851L152.441 64.793Z" fill="#8D2A00"/>
<path d="M149.223 69.0468L148.924 66.7248C148.924 66.7248 150.28 66.127 150.51 64.8741C150.844 63.0004 150.154 60.345 149.027 59.1955C148.74 58.8967 148.257 58.7472 147.901 58.8392C147.464 58.9541 147.085 59.3794 146.993 59.8507C146.786 60.9428 147.027 61.7704 147.039 61.8049L144.912 62.4946C144.809 61.8739 144.556 60.5175 144.901 59.23C145.246 57.9426 146.246 56.9655 147.487 56.6436C148.637 56.3562 149.798 56.6896 150.671 57.5747C152.327 59.2645 153.166 62.6325 152.786 65.2764C152.35 68.2421 149.361 68.9893 149.246 69.0353L149.223 69.0468Z" fill="#00144A"/>
<path d="M194.996 53.7019L194.709 51.5178C194.709 51.5178 195.985 50.9545 196.203 49.782C196.525 48.0233 195.87 45.5174 194.812 44.4368C194.536 44.161 194.088 44.0115 193.755 44.1035C193.341 44.2069 192.984 44.6093 192.893 45.0576C192.697 46.0806 192.915 46.8623 192.927 46.8853L190.927 47.5405C190.823 46.9543 190.594 45.6898 190.927 44.4713C191.26 43.2529 192.203 42.3447 193.364 42.0459C194.444 41.77 195.536 42.0919 196.353 42.9195C197.904 44.5058 198.698 47.6784 198.33 50.1614C197.916 52.9432 195.111 53.6559 194.996 53.6904V53.7019Z" fill="#00144A"/>
</svg>
