<svg width="321" height="240" viewBox="0 0 321 240" fill="none" xmlns="http://www.w3.org/2000/svg">
<path d="M305.711 20.0059H14.6174C12.72 20.0041 10.8408 20.3763 9.08735 21.1012C7.33387 21.8261 5.74044 22.8895 4.39815 24.2305C3.05586 25.5716 1.99103 27.164 1.26452 28.9168C0.538005 30.6696 0.164062 32.5485 0.164063 34.4459V205.553C0.164063 209.386 1.68681 213.062 4.39734 215.773C7.10786 218.483 10.7841 220.006 14.6174 220.006H305.711C309.544 220.006 313.22 218.483 315.931 215.773C318.641 213.062 320.164 209.386 320.164 205.553V34.4459C320.164 32.5485 319.79 30.6696 319.064 28.9168C318.337 27.164 317.272 25.5716 315.93 24.2305C314.588 22.8895 312.994 21.8261 311.241 21.1012C309.487 20.3763 307.608 20.0041 305.711 20.0059Z" fill="#EBF8FF"/>
<path fill-rule="evenodd" clip-rule="evenodd" d="M142.903 220.006C141.785 217.532 139.296 215.812 136.405 215.812C133.989 215.812 131.854 217.014 130.565 218.852C127.868 213.829 122.565 210.414 116.465 210.414C111.739 210.414 107.491 212.464 104.563 215.723C102.513 202.955 91.4448 193.2 78.0981 193.2C76.671 193.2 75.2699 193.312 73.9032 193.527C68.9937 187.321 61.3962 183.339 52.8687 183.339C48.3789 183.339 44.1471 184.442 40.4295 186.393C39.1871 184.667 37.6612 183.151 35.9182 181.908C39.4284 181.118 42.0505 177.982 42.0505 174.233C42.0505 169.889 38.5285 166.367 34.1838 166.367C31.243 166.367 28.6791 167.98 27.3292 170.371C24.7264 161.908 16.8468 155.757 7.53064 155.757C4.93603 155.757 2.45285 156.234 0.164062 157.105V205.552C0.164062 209.386 1.68681 213.062 4.39734 215.772C7.10786 218.483 10.7841 220.006 14.6174 220.006H142.903ZM25.677 144.871C25.677 148.808 22.486 151.999 18.5497 151.999C14.6134 151.999 11.4224 148.808 11.4224 144.871C11.4224 140.935 14.6134 137.744 18.5497 137.744C22.486 137.744 25.677 140.935 25.677 144.871ZM37.7476 157.437C39.7157 157.437 41.3113 155.842 41.3113 153.874C41.3113 151.905 39.7157 150.31 37.7476 150.31C35.7794 150.31 34.1838 151.905 34.1838 153.874C34.1838 155.842 35.7794 157.437 37.7476 157.437Z" fill="#D1EFFF"/>
<path d="M49.5537 97.2285C68.0849 97.2285 83.1074 82.206 83.1074 63.6748C83.1074 45.1436 68.0849 30.1211 49.5537 30.1211C31.0225 30.1211 16 45.1436 16 63.6748C16 82.206 31.0225 97.2285 49.5537 97.2285Z" fill="#B8E6FF"/>
<path d="M43.3515 71.916C43.2361 72.2515 40.6829 70.7783 38.245 71.916C35.3458 73.2634 35.0522 77.1588 34.4126 77.0224C33.6786 76.8704 32.6458 71.4127 35.5502 69.5043C38.6854 67.4387 43.514 71.4389 43.3515 71.916Z" fill="#9EDDFF"/>
<path d="M57.9579 46.888C57.8426 47.2236 55.2893 45.7556 52.8515 46.888C49.9522 48.2407 49.6586 52.1308 49.019 51.9997C48.285 51.8424 47.2522 46.3847 50.1567 44.4764C53.2919 42.416 58.1204 46.4162 57.9579 46.888Z" fill="#9EDDFF"/>
<path d="M67.8979 66.1855C67.7825 66.5158 65.2293 65.0478 62.7914 66.1855C59.8922 67.5329 59.5986 71.4282 58.959 71.2919C58.225 71.1346 57.1921 65.6769 60.0966 63.7738C63.2318 61.7082 68.0447 65.7084 67.8979 66.1855Z" fill="#9EDDFF"/>
<path d="M77.6603 45.3613C79.6608 53.069 78.8548 61.2369 75.3864 68.4049C71.9181 75.5729 66.0135 81.2738 58.7282 84.4885C51.4429 87.7031 43.2518 88.222 35.619 85.9524C27.9863 83.6827 21.4096 78.7725 17.0645 72.0994C18.2861 76.8066 20.5164 81.1919 23.6008 84.9518C26.6853 88.7116 30.5501 91.7559 34.9277 93.8741C39.3053 95.9922 44.091 97.1335 48.9533 97.2188C53.8157 97.3041 58.6385 96.3315 63.0877 94.3683C67.5369 92.4051 71.5062 89.4981 74.7207 85.8489C77.9351 82.1996 80.3179 77.8953 81.704 73.2339C83.0901 68.5725 83.4464 63.6655 82.7482 58.8528C82.05 54.0401 80.3139 49.4366 77.6603 45.3613Z" fill="#9EDDFF"/>
<path d="M270.613 114.964C270.397 111.382 269.617 108.718 268.693 108.723C267.77 108.727 266.999 111.405 266.801 115.005C263.205 115.253 260.532 116.057 260.542 116.985C260.551 117.913 263.228 118.652 266.815 118.822C267.031 122.404 267.807 125.068 268.73 125.063C269.653 125.059 270.425 122.381 270.622 118.781C274.218 118.533 276.891 117.729 276.882 116.801C276.873 115.873 274.196 115.129 270.613 114.964Z" fill="#F58B00"/>
<path d="M254.146 138.166C254.004 135.76 253.48 133.969 252.86 133.969C252.24 133.969 251.721 135.774 251.588 138.194C249.168 138.359 247.372 138.901 247.381 139.521C247.391 140.141 249.186 140.642 251.593 140.752C251.74 143.163 252.263 144.954 252.883 144.95C253.503 144.945 254.022 143.145 254.156 140.725C256.571 140.559 258.367 140.022 258.362 139.397C258.358 138.773 256.558 138.277 254.146 138.166Z" fill="#F58B00"/>
<path d="M161.274 38.4672C161.132 36.0607 160.608 34.2695 159.988 34.2695C159.368 34.2695 158.849 36.0744 158.716 38.4948C156.296 38.6601 154.5 39.202 154.509 39.8221C154.518 40.4421 156.314 40.9427 158.721 41.0529C158.868 43.464 159.391 45.2552 160.011 45.2506C160.631 45.246 161.15 43.4457 161.283 41.0253C163.699 40.86 165.495 40.3226 165.49 39.698C165.486 39.0734 163.685 38.5774 161.274 38.4672Z" fill="#F58B00"/>
<path d="M289.178 100.471C290.08 99.5692 290.08 98.1066 289.178 97.2044C288.276 96.3022 286.813 96.3022 285.911 97.2044C285.009 98.1066 285.009 99.5692 285.911 100.471C286.813 101.374 288.276 101.374 289.178 100.471Z" fill="#D1EFFF"/>
<path d="M198.837 173.741C199.739 172.839 199.739 171.376 198.837 170.474C197.935 169.572 196.472 169.572 195.57 170.474C194.668 171.376 194.668 172.839 195.57 173.741C196.472 174.643 197.935 174.643 198.837 173.741Z" fill="#D1EFFF"/>
<path d="M105.372 65.2331C106.274 64.3309 106.274 62.8683 105.372 61.9661C104.47 61.064 103.007 61.064 102.105 61.9661C101.203 62.8683 101.203 64.3309 102.105 65.2331C103.007 66.1353 104.47 66.1353 105.372 65.2331Z" fill="#D1EFFF"/>
<path d="M275.868 59.3562C277.018 58.207 277.018 56.3438 275.868 55.1946C274.719 54.0454 272.856 54.0454 271.707 55.1946C270.558 56.3438 270.558 58.207 271.707 59.3562C272.856 60.5054 274.719 60.5054 275.868 59.3562Z" fill="#D1EFFF"/>
<path d="M190.444 196.118C191.593 194.969 191.593 193.105 190.444 191.956C189.294 190.807 187.431 190.807 186.282 191.956C185.133 193.105 185.133 194.969 186.282 196.118C187.431 197.267 189.294 197.267 190.444 196.118Z" fill="#B8E6FF"/>
<path d="M138.039 41.3933C138.941 40.4911 138.941 39.0284 138.039 38.1263C137.137 37.2241 135.674 37.2241 134.772 38.1263C133.87 39.0284 133.87 40.4911 134.772 41.3933C135.674 42.2954 137.137 42.2954 138.039 41.3933Z" fill="#9EDDFF"/>
<path d="M244.028 177.712L243.955 177.761C242.716 178.673 241.888 180.039 241.652 181.56C241.415 183.08 241.79 184.633 242.694 185.878C243.595 187.121 244.95 187.958 246.465 188.208C247.98 188.458 249.532 188.1 250.785 187.213C250.821 187.189 250.855 187.161 250.885 187.13L278.104 159.484C278.209 159.363 278.268 159.21 278.272 159.05C278.277 158.89 278.225 158.733 278.128 158.607C278.03 158.48 277.891 158.392 277.735 158.356C277.579 158.32 277.416 158.339 277.272 158.41L244.028 177.712Z" fill="#9EDDFF"/>
<path d="M247.821 186.023C249.953 186.023 251.682 184.294 251.682 182.162C251.682 180.03 249.953 178.301 247.821 178.301C245.688 178.301 243.959 180.03 243.959 182.162C243.959 184.294 245.688 186.023 247.821 186.023Z" fill="#EBF8FF"/>
<path d="M266.263 181.784L266.221 181.829C265.547 182.63 265.217 183.664 265.304 184.707C265.39 185.75 265.886 186.717 266.682 187.396C267.475 188.068 268.501 188.402 269.538 188.326C270.575 188.251 271.542 187.771 272.229 186.99L272.281 186.917L285.866 164.301C285.926 164.204 285.948 164.089 285.929 163.977C285.909 163.865 285.85 163.764 285.761 163.693C285.672 163.622 285.56 163.586 285.447 163.592C285.333 163.598 285.226 163.646 285.145 163.726L266.263 181.784Z" fill="#9EDDFF"/>
<path d="M269.476 186.753C270.927 186.753 272.103 185.576 272.103 184.125C272.103 182.674 270.927 181.498 269.476 181.498C268.025 181.498 266.848 182.674 266.848 184.125C266.848 185.576 268.025 186.753 269.476 186.753Z" fill="#EBF8FF"/>
<path d="M205.907 147.008L212.49 115.359L176.281 137.598L183.523 163.476C184.45 166.79 188.603 167.876 191.034 165.441L201.761 154.693C203.861 152.589 205.302 149.919 205.907 147.008Z" fill="#0070F2"/>
<path fill-rule="evenodd" clip-rule="evenodd" d="M206.435 119.076L201.235 144.075C200.63 146.985 199.189 149.656 197.089 151.76L186.362 162.507C185.576 163.295 184.609 163.715 183.629 163.809C183.59 163.7 183.554 163.589 183.522 163.475L176.28 137.596L206.435 119.076Z" fill="#005DC9"/>
<path d="M178.381 48.9152C139.811 76.5633 122.816 114.114 120.006 131.234C119.509 148.18 134.587 157.332 143.337 158.085C157.497 156.5 180.997 142.806 206.557 121.86C240.182 94.3044 275.505 28.4312 265.952 18.3929C256.925 8.90722 222.792 17.0801 178.381 48.9152Z" fill="white"/>
<path fill-rule="evenodd" clip-rule="evenodd" d="M235.89 19.5885C220.869 24.3643 201.374 34.2787 179.255 50.1346C141.074 77.5035 124.296 114.615 121.503 131.378C121.3 139.303 124.706 145.398 129.229 149.638C133.756 153.88 139.324 156.19 143.319 156.577C150.072 155.783 159.213 152.098 169.923 145.933C180.675 139.744 192.872 131.135 205.606 120.7C222.219 107.086 239.346 83.9056 251.137 62.8254C257.028 52.2935 261.546 42.3572 263.998 34.4743C265.225 30.5265 265.913 27.1615 266.023 24.5284C266.135 21.8316 265.629 20.2295 264.865 19.4272C263.01 17.4779 259.669 16.2513 254.685 16.1835C249.738 16.1161 243.405 17.199 235.89 19.5885ZM254.726 13.1838C260.069 13.2565 264.38 14.5655 267.038 17.359C268.663 19.0663 269.142 21.7186 269.02 24.6533C268.895 27.6517 268.128 31.2952 266.862 35.3652C264.327 43.5179 259.704 53.6543 253.755 64.2899C241.867 85.5447 224.521 109.078 207.508 123.02C194.682 133.531 182.349 142.242 171.42 148.533C160.53 154.802 150.897 158.748 143.504 159.576L143.356 159.593L143.208 159.58C138.463 159.171 132.198 156.532 127.178 151.826C122.118 147.083 118.243 140.163 118.507 131.191L118.51 131.091L118.526 130.992C121.402 113.467 138.623 75.5694 177.507 47.6963C199.799 31.717 219.576 21.6275 234.981 16.7295C242.678 14.2821 249.347 13.1105 254.726 13.1838Z" fill="#9EDDFF"/>
<path d="M196.895 127.282C199.038 101.523 180.701 87.0014 166.864 80.9602C165.805 80.4978 165.203 81.7469 166.157 82.3993C176.211 89.2772 188.29 99.5729 189.552 111.886C191.073 126.732 195.646 127.282 196.895 127.282Z" fill="#9EDDFF"/>
<path fill-rule="evenodd" clip-rule="evenodd" d="M172.414 123.09L206.351 99.3409L207.091 98.8366C214.866 93.5383 218.353 83.8419 215.734 74.8053L248.855 51.6115C257.796 43.0136 263.548 27.7006 265.336 17.8066C265.553 17.9939 265.758 18.1893 265.952 18.3928C275.505 28.4311 240.182 94.3043 206.557 121.86C180.997 142.806 157.497 156.5 143.337 158.085C134.587 157.331 119.508 148.18 120.006 131.234C121.815 120.214 129.501 100.729 145.036 80.868L159.372 68.0458C154.41 89.8822 152.443 111.925 172.414 123.09Z" fill="#B8E6FF"/>
<path fill-rule="evenodd" clip-rule="evenodd" d="M223.364 22.7076C232.816 24.0686 245.436 27.8508 251.978 36.4228C256.734 42.6545 257.839 49.0007 257.407 54.1869C265.971 36.9928 270.009 22.6572 265.952 18.3936C260.322 12.4778 244.927 13.4303 223.364 22.7076Z" fill="#64EDD2"/>
<path d="M257.407 54.1858C265.971 36.9918 270.009 22.6563 265.952 18.3928C265.758 18.1893 265.553 17.9939 265.336 17.8066C265.834 24.6817 260.752 34.7273 255.703 42.9073C257.317 46.9247 257.689 50.8021 257.407 54.1858Z" fill="#00A58A"/>
<path fill-rule="evenodd" clip-rule="evenodd" d="M159.082 153.22C163.263 145.369 160.245 133.279 151.229 124.166C143.179 116.028 132.704 112.647 124.932 114.932C122.315 121.336 120.713 126.931 120.006 131.235C119.509 148.18 134.587 157.332 143.337 158.085C147.751 157.591 153.073 155.92 159.082 153.22Z" fill="#0070F2"/>
<ellipse cx="132.842" cy="142.866" rx="15.1313" ry="7.18547" transform="rotate(49.2452 132.842 142.866)" fill="#004DA5"/>
<path d="M108.6 79.4929L116.591 72.1254C120.534 68.4897 125.503 66.1584 130.819 65.4495L161.648 61.3389C161.582 74.6893 140.125 92.4971 135.589 94.513L110.381 87.1115C107.028 86.1271 106.031 81.8615 108.6 79.4929Z" fill="#0070F2"/>
<ellipse cx="188.257" cy="112.817" rx="6.57432" ry="22.7542" transform="rotate(50.9269 188.257 112.817)" fill="#0070F2"/>
<ellipse cx="234.039" cy="67.6331" rx="17.4755" ry="21.8065" transform="rotate(32.437 234.039 67.6331)" fill="#005DC9"/>
<ellipse cx="237.676" cy="69.9162" rx="12.8454" ry="15.8971" transform="rotate(32.437 237.676 69.9162)" fill="#9EDDFF"/>
<path fill-rule="evenodd" clip-rule="evenodd" d="M250.077 68.8577L228.388 60.8887C229.511 59.5345 230.765 58.3777 232.092 57.4396L250.239 64.1069C250.42 65.6186 250.368 67.2241 250.077 68.8577Z" fill="#D1EFFF"/>
<path fill-rule="evenodd" clip-rule="evenodd" d="M244.518 79.4384L223.792 71.8234C224.025 68.9266 225.027 65.8659 226.832 63.0258C226.839 63.0149 226.846 63.0041 226.853 62.9932L249.466 71.3016C248.954 72.8922 248.217 74.4785 247.249 76.0015C246.437 77.2793 245.516 78.429 244.518 79.4384Z" fill="#D1EFFF"/>
<path fill-rule="evenodd" clip-rule="evenodd" d="M228.46 82.8444C234.917 83.4052 241.632 80.2244 245.531 74.088C248.892 68.8002 249.378 62.552 247.369 57.3368C252.451 61.5278 253.126 69.9795 248.71 76.9282C244 84.3382 235.286 87.233 229.245 83.394C228.974 83.2213 228.712 83.0379 228.46 82.8444Z" fill="#004DA5"/>
<path d="M26.0669 182.982C73.2392 182.982 121.531 138.273 125.954 134.109C130.378 129.945 137.339 130.155 141.503 134.579C145.667 139.002 145.457 145.964 141.034 150.128C106.084 186.457 105.647 204.679 104.146 216.68C73.3118 216.68 29.959 211.411 26.0669 182.982Z" fill="#D1EFFF"/>
<path d="M102.611 168.908C120.929 161.012 156.073 142.468 146.599 132.046C133.078 117.173 109.814 159.701 102.611 168.908Z" fill="#B8E6FF"/>
<path d="M151.173 124.124C160.189 133.237 163.207 145.326 159.026 153.178C153.017 155.878 147.695 157.549 143.281 158.043C141.058 157.852 138.427 157.118 135.747 155.853L136.828 154.61C139.228 155.478 141.327 155.438 142.664 154.286C145.67 151.695 143.685 144.463 138.229 138.133C132.774 131.802 125.914 128.771 122.908 131.361C121.478 132.593 121.178 134.875 121.842 137.61L120.787 138.61C120.179 136.332 119.872 133.859 119.95 131.193C120.657 126.889 122.26 121.294 124.876 114.89C132.648 112.605 143.123 115.986 151.173 124.124Z" fill="#0070F2"/>
<path fill-rule="evenodd" clip-rule="evenodd" d="M108.607 79.4861L108.6 79.4926C106.031 81.8612 107.029 86.1268 110.381 87.1112L135.59 94.5127C140.049 92.5307 160.865 75.2833 161.627 62.0156C142.141 88.1571 120.387 85.6546 108.607 79.4861Z" fill="#005DC9"/>
</svg>
