<svg width="320" height="240" viewBox="0 0 320 240" fill="none" xmlns="http://www.w3.org/2000/svg">
<path d="M305.547 19H14.4533C12.5559 18.9983 10.6768 19.3705 8.92329 20.0954C7.16981 20.8203 5.57638 21.8836 4.23409 23.2247C2.8918 24.5657 1.82697 26.1582 1.10045 27.911C0.373942 29.6638 -8.08861e-07 31.5426 0 33.44V204.547C0 208.38 1.52275 212.056 4.23328 214.767C6.9438 217.477 10.6201 219 14.4533 219H305.547C309.38 219 313.056 217.477 315.767 214.767C318.477 212.056 320 208.38 320 204.547V33.44C320 31.5426 319.626 29.6638 318.9 27.911C318.173 26.1582 317.108 24.5657 315.766 23.2247C314.424 21.8836 312.83 20.8203 311.077 20.0954C309.323 19.3705 307.444 18.9983 305.547 19Z" fill="#EBF8FF"/>
<path d="M307.617 114.776L250.515 95.171C248.094 94.3398 245.459 95.633 244.63 98.0593L216.169 181.324C215.339 183.751 216.63 186.392 219.05 187.223L276.152 206.828C278.573 207.659 281.208 206.366 282.038 203.939L310.499 120.674C311.328 118.248 310.038 115.607 307.617 114.776Z" fill="#D1EFFF"/>
<path d="M273.369 116.204C271.484 115.449 269.418 115.272 267.433 115.695C265.447 116.118 263.631 117.121 262.214 118.578C260.798 120.034 259.844 121.88 259.473 123.88C259.103 125.88 259.332 127.945 260.133 129.815C260.934 131.684 262.269 133.274 263.971 134.382C265.673 135.491 267.665 136.069 269.694 136.043C271.724 136.018 273.701 135.389 275.374 134.238C277.047 133.086 278.343 131.464 279.096 129.575L269.558 125.763L273.369 116.204Z" fill="#EBF8FF"/>
<path d="M276.421 114.793L272.618 124.344L282.147 128.155C282.647 126.901 282.896 125.56 282.879 124.21C282.862 122.859 282.579 121.526 282.047 120.285C281.515 119.044 280.745 117.92 279.779 116.978C278.814 116.035 277.673 115.293 276.421 114.793Z" fill="#B8E6FF"/>
<path d="M284.329 148.955L244.538 135.293C243.218 134.84 241.781 135.545 241.329 136.868C240.877 138.191 241.58 139.631 242.901 140.084L282.692 153.746C284.012 154.199 285.448 153.494 285.901 152.171C286.353 150.848 285.649 149.408 284.329 148.955Z" fill="#EBF8FF"/>
<path d="M280.888 157.058L241.097 143.397C239.777 142.944 238.34 143.649 237.888 144.972C237.436 146.295 238.14 147.735 239.46 148.188L279.251 161.85C280.571 162.303 282.007 161.598 282.46 160.275C282.912 158.952 282.208 157.512 280.888 157.058Z" fill="#EBF8FF"/>
<path d="M259.033 158.632L237.835 151.354C236.515 150.901 235.078 151.606 234.626 152.929C234.174 154.252 234.877 155.692 236.197 156.145L257.396 163.423C258.716 163.876 260.152 163.171 260.605 161.848C261.057 160.525 260.353 159.085 259.033 158.632Z" fill="#EBF8FF"/>
<path d="M16 214.207C16 212.949 17.0195 211.93 18.2772 211.93H167.058C168.316 211.93 169.335 212.949 169.335 214.207V215.144H16V214.207Z" fill="#D1EFFF"/>
<path d="M19.1473 217.884C19.5646 218.257 20.1045 218.463 20.664 218.463H164.671C165.231 218.463 165.771 218.257 166.188 217.884L169.335 215.074H16L19.1473 217.884Z" fill="#B8E6FF"/>
<rect x="31.0903" y="129.906" width="123.154" height="82.1674" rx="4.55436" fill="#D1EFFF"/>
<path d="M92.6675 132.656C93.103 132.656 93.456 132.302 93.456 131.866C93.456 131.43 93.103 131.076 92.6675 131.076C92.232 131.076 91.8789 131.43 91.8789 131.866C91.8789 132.302 92.232 132.656 92.6675 132.656Z" fill="#9EDDFF"/>
<rect x="35.1621" y="133.736" width="115.011" height="74.5088" rx="3.03624" fill="#EBF8FF"/>
<path d="M83.7476 211.473H101.588V212.019C101.588 212.857 100.908 213.537 100.07 213.537H85.2657C84.4272 213.537 83.7476 212.857 83.7476 212.019V211.473Z" fill="#9EDDFF"/>
<path d="M258.613 45.3833C258.613 44.1945 255.162 43.2429 250.551 43.0267C250.287 38.4216 249.272 34.9974 248.083 35C246.894 35.0026 245.906 38.4532 245.653 43.0821C241.029 43.3984 237.591 44.4317 237.606 45.6232C237.622 46.8147 241.058 47.7663 245.668 47.9798C245.945 52.585 246.947 56.0092 248.133 56.0066C249.32 56.0039 250.314 52.5534 250.567 47.9245C255.191 47.6082 258.626 46.5748 258.613 45.3833Z" fill="#F58B00"/>
<path d="M275.617 66.8966C275.617 66.1304 273.393 65.5172 270.422 65.3779C270.252 62.4101 269.598 60.2034 268.831 60.2051C268.065 60.2068 267.428 62.4305 267.265 65.4135C264.285 65.6174 262.069 66.2833 262.08 67.0512C262.09 67.819 264.304 68.4323 267.275 68.5699C267.454 71.5376 268.099 73.7443 268.864 73.7426C269.628 73.7409 270.269 71.5172 270.432 68.5342C273.412 68.3303 275.626 67.6644 275.617 66.8966Z" fill="#F58B00"/>
<path d="M23.5127 67.2369L80.6145 47.632C83.0355 46.8008 85.6704 48.0939 86.4997 50.5203L114.961 133.785C115.79 136.212 114.5 138.852 112.079 139.684L54.9771 159.289C52.5561 160.12 49.9212 158.827 49.0918 156.4L20.6308 73.1352C19.8015 70.7089 21.0917 68.0681 23.5127 67.2369Z" fill="#D1EFFF"/>
<path fill-rule="evenodd" clip-rule="evenodd" d="M75.372 78.1518C76.4629 78.2857 77.2386 79.2786 77.1046 80.3695L73.6046 108.869C73.522 109.542 73.1029 110.126 72.4923 110.42C71.8817 110.714 71.1636 110.677 70.5865 110.322L60.1403 103.893L56.5963 126.93C56.4292 128.016 55.4131 128.761 54.3268 128.594C53.2406 128.427 52.4955 127.411 52.6626 126.324L56.6626 100.324C56.764 99.6652 57.1888 99.1007 57.794 98.8208C58.3992 98.5408 59.1045 98.5826 59.6724 98.9321L70.0322 105.307L73.1543 79.8844C73.2882 78.7935 74.2811 78.0178 75.372 78.1518Z" fill="#B8E6FF"/>
<path d="M35.4515 83.6875C35.2736 83.1676 35.5509 82.6019 36.0708 82.424L38.9187 81.4494C39.4386 81.2715 40.0043 81.5488 40.1822 82.0687L55.6105 127.156C55.7884 127.676 55.5111 128.241 54.9912 128.419L52.1433 129.394C51.6234 129.572 51.0577 129.294 50.8798 128.775L35.4515 83.6875Z" fill="#EBF8FF"/>
<path d="M52.7099 130.812C52.1908 130.993 51.6238 130.718 51.4435 130.199L50.4559 127.355C50.2756 126.836 50.5502 126.269 51.0693 126.089L96.0846 110.453C96.6037 110.272 97.1707 110.547 97.351 111.066L98.3387 113.91C98.519 114.429 98.2443 114.996 97.7252 115.176L52.7099 130.812Z" fill="#EBF8FF"/>
<path d="M55.801 140.077C55.4319 139.042 55.9686 137.894 57.0039 137.525L78.6873 129.795C79.7226 129.426 80.8643 129.976 81.2333 131.011C81.6024 132.046 81.0657 133.194 80.0304 133.563L58.347 141.293C57.3117 141.662 56.17 141.112 55.801 140.077Z" fill="#EBF8FF"/>
<path d="M93.9321 61.127C93.9321 55.6041 98.4093 51.127 103.932 51.127H208.541L236.068 73.9487V179.817C236.068 185.34 231.591 189.817 226.068 189.817H103.932C98.4093 189.817 93.9321 185.34 93.9321 179.817V61.127Z" fill="#D5DADD"/>
<path d="M88.9321 54.1269C88.9321 49.7087 92.5139 46.127 96.9321 46.127H202.441L231.068 70.103V176.817C231.068 181.236 227.486 184.817 223.068 184.817H96.9321C92.5139 184.817 88.9321 181.236 88.9321 176.817V54.1269Z" fill="white"/>
<path d="M202.286 69.8848L231.068 75.6889V69.8848H202.286Z" fill="#A9B4BE"/>
<path d="M202.286 69.8857H231.068L202.286 46.127V69.8857Z" fill="#D5DADD"/>
<rect x="103.671" y="84.1934" width="111.557" height="86.0762" rx="6" fill="#EBF8FF"/>
<path d="M157.055 102.102C157.104 101.511 156.663 100.99 156.071 100.963C150.753 100.726 145.465 101.967 140.8 104.559C135.82 107.325 131.773 111.505 129.17 116.572C126.567 121.638 125.525 127.362 126.175 133.021C126.825 138.679 129.139 144.018 132.823 148.362C136.508 152.706 141.397 155.859 146.874 157.424C152.351 158.989 158.169 158.894 163.592 157.153C169.015 155.411 173.799 152.1 177.341 147.639C180.659 143.459 182.747 138.445 183.38 133.16C183.451 132.57 183.008 132.051 182.417 132.003L172.297 131.171C171.705 131.123 171.19 131.564 171.103 132.151C170.679 135.011 169.51 137.716 167.705 139.99C165.677 142.545 162.936 144.441 159.83 145.439C156.723 146.436 153.391 146.491 150.254 145.594C147.117 144.698 144.316 142.892 142.206 140.404C140.095 137.915 138.77 134.857 138.398 131.616C138.025 128.375 138.622 125.096 140.113 122.194C141.605 119.292 143.923 116.898 146.775 115.313C149.313 113.903 152.172 113.191 155.063 113.24C155.656 113.25 156.175 112.813 156.224 112.222L157.055 102.102Z" fill="#0070F2"/>
<path d="M157.511 102.142C157.569 101.552 157.138 101.024 156.545 100.987C152.155 100.719 147.757 101.459 143.689 103.157C139.622 104.855 136.003 107.463 133.107 110.774C132.717 111.22 132.789 111.898 133.25 112.272L141.137 118.667C141.598 119.041 142.273 118.967 142.676 118.532C144.28 116.797 146.242 115.424 148.43 114.51C150.618 113.597 152.973 113.167 155.335 113.246C155.928 113.266 156.454 112.838 156.513 112.247L157.511 102.142Z" fill="#9EDDFF"/>
<path d="M190.843 126.796C191.434 126.854 191.962 126.423 191.998 125.83C192.207 122.419 191.807 118.995 190.814 115.718C189.718 112.099 187.919 108.731 185.52 105.807C183.122 102.883 180.171 100.46 176.836 98.6759C173.818 97.0613 170.538 95.9991 167.152 95.5365C166.564 95.4562 166.037 95.8897 165.979 96.4803L164.781 108.607C164.722 109.198 165.155 109.72 165.74 109.822C167.253 110.086 168.717 110.59 170.075 111.317C171.75 112.212 173.232 113.429 174.436 114.898C175.641 116.367 176.544 118.058 177.095 119.876C177.542 121.35 177.75 122.884 177.713 124.42C177.698 125.013 178.126 125.539 178.716 125.598L190.843 126.796Z" fill="#F58B00"/>
<path d="M182.375 132.458C182.966 132.516 183.4 133.043 183.319 133.631C182.768 137.664 181.368 141.538 179.206 144.997C176.855 148.759 173.665 151.927 169.887 154.254C166.109 156.581 161.845 158.003 157.426 158.41C153.365 158.784 149.275 158.291 145.426 156.968C144.864 156.775 144.589 156.151 144.803 155.597L148.451 146.145C148.665 145.592 149.286 145.32 149.852 145.497C151.932 146.148 154.123 146.382 156.3 146.181C158.834 145.948 161.28 145.132 163.447 143.797C165.614 142.463 167.444 140.646 168.793 138.488C169.951 136.634 170.729 134.571 171.083 132.421C171.18 131.836 171.702 131.404 172.293 131.462L182.375 132.458Z" fill="#004DA5"/>
<path d="M125.524 59H106.299C105.004 59 103.953 60.0505 103.953 61.3463C103.953 62.6421 105.004 63.6926 106.299 63.6926H125.524C126.82 63.6926 127.87 62.6421 127.87 61.3463C127.87 60.0505 126.82 59 125.524 59Z" fill="#004DA5"/>
<path d="M144.611 68.1152H105.942C104.843 68.1152 103.953 69.0055 103.953 70.1037C103.953 71.2019 104.843 72.0922 105.942 72.0922H144.611C145.709 72.0922 146.6 71.2019 146.6 70.1037C146.6 69.0055 145.709 68.1152 144.611 68.1152Z" fill="#005DC9"/>
</svg>
