<svg width="130" height="128" viewBox="0 0 130 128" fill="none" xmlns="http://www.w3.org/2000/svg">
<path d="M104.78 95.0089L86.9201 89.885L71.2165 85.38L62.1362 82.7752C61.6846 82.6452 61.0995 82.5263 60.4804 82.4285C59.5627 82.284 58.5672 82.1907 57.8121 82.1907H44.7695V82.1862C43.5361 81.7806 41.22 81.4673 39.9405 81.4573C38.644 81.4473 38.6901 81.7706 39.9987 82.1907H36.2549V82.1862C35.0215 81.7806 32.7053 81.4673 31.4258 81.4573C30.1293 81.4473 30.1755 81.7706 31.4841 82.1907H27.7403V82.1862C26.5069 81.7806 24.1907 81.4673 22.9112 81.4573C21.6147 81.4473 21.6609 81.7706 22.9695 82.1907H19.2257V82.1862C17.9923 81.7806 15.6761 81.4673 14.3966 81.4573C13.1001 81.4473 13.1462 81.7706 14.4549 82.1907H1.75703C0.810148 82.1907 0.428966 82.3185 0.630481 82.5096C0.720313 82.5941 0.921835 82.6919 1.24474 82.7963C1.29573 82.813 1.35155 82.8297 1.40982 82.8463C1.43168 82.853 1.44867 82.8585 1.47295 82.8652L1.67932 82.9241C1.68174 82.9252 1.68418 82.9263 1.68904 82.9286C1.7036 82.9352 1.71575 82.9408 1.73032 82.9474L30.36 94.7356L30.95 94.9789C31.8556 95.3512 33.7542 95.6535 35.1915 95.6535H104.513C105.896 95.6535 106.013 95.3645 104.772 95.0089H104.78Z" fill="#101619"/>
<path d="M103.286 33.4817C102.927 32.8265 102.282 32.4055 101.49 32.4156L87.7061 32.5909L87.723 32.571C87.7319 32.4998 87.736 32.4311 87.7424 32.3599L82.7228 32.4237C82.7042 32.5 82.6831 32.5763 82.6669 32.6549L78.7091 32.7053L78.726 32.6854C78.7349 32.6142 78.739 32.5455 78.7454 32.4743L73.7258 32.5381C73.7072 32.6144 73.6861 32.6907 73.6699 32.7694L69.7121 32.8197L69.729 32.7999C69.7379 32.7286 69.7419 32.6599 69.7484 32.5887L64.7288 32.6525C64.7101 32.7288 64.689 32.8051 64.6729 32.8838L60.715 32.9341L60.732 32.9143C60.7409 32.843 60.7449 32.7743 60.7514 32.7031L55.7318 32.7669C55.7131 32.8432 55.692 32.9195 55.6758 32.9982L42.2576 33.1688C41.3919 33.1798 40.5614 33.6343 39.9621 34.336C39.5634 34.8046 39.2666 35.3823 39.13 36.0168C39.1138 36.093 39.1025 36.1717 39.0912 36.2503C39.0867 36.2798 39.0797 36.3093 39.0752 36.3388L32.1943 91.381L32.0517 92.5159C31.8335 94.2551 32.9058 95.6493 34.4482 95.6296L93.4475 94.8794C94.9115 94.8607 96.2653 93.5069 96.4723 91.8537L96.6148 90.7163L100.337 60.9463L103.462 35.9418L103.567 35.0993C103.643 34.4901 103.532 33.9323 103.286 33.4841L103.286 33.4817Z" fill="#00144A"/>
<path d="M125.643 95.7095L52.2588 96.6427C50.3415 96.6671 48.5896 95.2629 48.3415 93.5032L40.4652 37.5557C40.2171 35.7985 41.5715 34.3523 43.4858 34.328L117.162 33.391C118.821 33.3699 120.341 34.5867 120.556 36.1094L128.515 92.6444C128.75 94.3152 127.461 95.6864 125.643 95.7095Z" fill="#00144A"/>
<path d="M125.647 93.3068L53.0638 94.2299C51.1675 94.254 49.4348 92.8683 49.1894 91.1325L41.4365 35.9232C41.1941 34.1874 42.5308 32.7626 44.4272 32.7385L117.299 31.8118C118.939 31.7909 120.44 32.9908 120.653 34.4939L128.485 90.2835C128.717 91.9311 127.445 93.2864 125.644 93.3093" fill="#D5DADD"/>
<path d="M122.355 46.6174L43.0801 47.6256L41.4365 35.9232C41.1941 34.1874 42.5308 32.7626 44.4272 32.7385L117.299 31.8118C118.939 31.7909 120.44 32.9908 120.653 34.4939L122.355 46.6174Z" fill="#FA4F96"/>
<path d="M67.7153 36.617C67.8006 37.3418 67.3544 37.9361 66.7169 37.9442C66.0793 37.9523 65.4931 37.3712 65.4078 36.6463C65.3226 35.9214 65.7688 35.3271 66.4063 35.319C67.0439 35.3109 67.6301 35.8921 67.7153 36.617Z" fill="#00144A"/>
<path d="M95.1763 36.2732C95.2615 36.9981 94.8154 37.5924 94.1778 37.6005C93.5402 37.6086 92.954 37.0274 92.8688 36.3026C92.7835 35.5777 93.2297 34.9834 93.8673 34.9753C94.5048 34.9672 95.091 35.5483 95.1763 36.2732Z" fill="#00144A"/>
<path d="M92.4502 32.1069C92.4262 30.2162 93.8741 28.7385 95.2099 28.675C96.634 28.6103 97.685 30.2573 97.5596 32.3534C97.4342 34.4495 96.1763 36.2068 94.7522 36.2715" stroke="#00144A" stroke-width="1.86233" stroke-miterlimit="10"/>
<path d="M65.0948 32.4506C65.0707 30.56 66.5186 29.0823 67.8544 29.0187C69.2785 28.954 70.3296 30.601 70.2042 32.6971C70.0788 34.7932 68.8209 36.5505 67.3967 36.6152" stroke="#00144A" stroke-width="1.86233" stroke-miterlimit="10"/>
<path d="M95.2099 28.675C96.634 28.6103 97.685 30.2573 97.5596 32.3534C97.4342 34.4495 96.1763 36.2068 94.7522 36.2715" stroke="#00144A" stroke-width="1.86233" stroke-miterlimit="10" stroke-linecap="round"/>
<path d="M67.8603 29.0304C69.2844 28.9657 70.3354 30.6127 70.21 32.7088C70.0846 34.8049 68.8267 36.5622 67.4026 36.627" stroke="#00144A" stroke-width="1.86233" stroke-miterlimit="10" stroke-linecap="round"/>
<path d="M116.781 88.3257L59.7881 89.0505C58.7346 89.0639 57.7774 88.3101 57.654 87.3701L53.1385 53.3868C53.0122 52.4444 53.7661 51.6713 54.8195 51.6579L111.812 50.9331C112.865 50.9197 113.823 51.6735 113.946 52.6135L118.462 86.5968C118.588 87.5393 117.834 88.3124 116.781 88.3257Z" stroke="#FA4F96" stroke-width="1.40236" stroke-miterlimit="10"/>
<path d="M101.316 76.3133L97.7483 76.3587L97.3138 72.857C97.2127 72.0465 96.4539 71.3915 95.6275 71.402C94.8011 71.4126 94.2088 72.0847 94.3099 72.8953L94.7444 76.3969L91.1765 76.4423C90.3501 76.4528 89.7577 77.1249 89.8588 77.9355C89.9598 78.746 90.7187 79.401 91.545 79.3905L95.113 79.3451L95.5474 82.8468C95.6485 83.6573 96.4073 84.3123 97.2337 84.3018C98.0601 84.2913 98.6524 83.6191 98.5514 82.8086L98.1169 79.3069L101.685 79.2615C102.511 79.251 103.104 78.5788 103.002 77.7683C102.901 76.9578 102.143 76.3028 101.316 76.3133Z" fill="#FA4F96"/>
<path d="M91.9883 68.7329L91.3581 68.3534C90.8911 68.0822 90.4123 67.848 89.8973 67.6534C91.2141 66.2902 91.9131 64.361 91.6453 62.2061C91.1374 58.1339 87.3681 54.8783 83.2165 54.9311C79.065 54.9838 76.1377 58.3443 76.6432 62.4165C76.9109 64.5714 78.1129 66.5132 79.7999 67.8382C76.3323 69.5991 74.2385 73.3169 74.7684 77.5727L74.9979 79.4166C75.0989 80.2271 75.8577 80.8821 76.6841 80.8716L84.9455 80.7665C85.7719 80.756 86.3642 80.0838 86.2631 79.2733C86.1621 78.4628 85.4033 77.8078 84.5769 77.8183L77.8163 77.9043L77.7699 77.5345C77.2373 73.2591 80.3368 69.7493 84.6919 69.6939L85.4422 69.6844C87.0018 69.6645 88.7095 70.1039 90.0263 70.8622L90.6367 71.2248C91.3881 71.6763 92.2857 71.4809 92.6693 70.7918C93.053 70.1051 92.7546 69.2039 92.0008 68.7524L91.9809 68.733L91.9883 68.7329ZM83.6049 57.8937C86.0841 57.8622 88.3581 59.8272 88.6612 62.2588C88.9644 64.6903 87.1825 66.7069 84.7058 66.7384C82.2291 66.7699 79.9526 64.8049 79.6495 62.3734C79.3463 59.9418 81.1282 57.9252 83.6049 57.8937Z" fill="#FA4F96"/>
</svg>
