<svg width="128" height="130" viewBox="0 0 128 130" fill="none" xmlns="http://www.w3.org/2000/svg">
<path d="M125.086 109.622L50.2984 93.5117L6.12779 104.667L0.0695801 109.622L72.2751 128.006L99.8839 117.352L99.4828 113.767L104.279 116.073H107.12L125.086 109.622Z" fill="#1B90FF"/>
<path d="M55.1369 17.3753C52.4212 17.3753 50.2068 15.161 50.2068 12.4452C50.2068 9.72946 52.4212 7.52344 55.1369 7.52344C57.8527 7.52344 60.0671 9.73782 60.0671 12.4536C60.0671 15.1693 57.8527 17.3837 55.1369 17.3837V17.3753ZM55.1369 9.19467C53.3403 9.19467 51.878 10.657 51.878 12.4536C51.878 14.2501 53.3403 15.7125 55.1369 15.7125C56.9335 15.7125 58.3958 14.2501 58.3958 12.4536C58.3958 10.657 56.9335 9.19467 55.1369 9.19467Z" fill="#C35500"/>
<path d="M65.7477 60.7772V60.7605L65.5472 61.3288L64.9623 60.7605L49.3195 60.9109L53.5143 83.648L62.0042 89.3219L55.9042 87.7258V87.7091L55.2608 87.542L53.8569 87.1827L53.1467 91.0015L52.7539 87.9431L50.3473 78.7096L48.9602 76.5787L48.8767 76.1275L48.5508 74.4312L47.1302 66.8772L45.0412 73.8964L37.7713 60.2842L31.6713 62.7493L30.6435 63.1337L35.1308 57.4766C35.1308 57.4766 13.9312 61.3538 13.5886 61.663L12.987 77.4394L12.1346 99.8924L60.9847 111.014L61.0098 110.789L63.1406 89.3637L65.9817 60.7772H65.7477Z" fill="#56BDFF"/>
<path d="M71.8398 65.8114L66.283 118.932L6.30248 104.668L7.46398 68.0509L7.69795 59.3438L5.37494 61.5748L2.29152 62.6862L1.43084 64.3324L0.244263 109.614L72.4498 127.998L73.9456 125.859L81.0734 63.6472L77.1794 61.742L71.8398 65.8114Z" fill="#8D2A00"/>
<path d="M3.86246 59.6056L2.2915 62.6807L5.37492 61.5693L7.69794 59.3382L9.48615 57.7422L5.88465 58.9371L3.86246 59.6056Z" fill="#FF7F4C"/>
<path opacity="0.5" d="M3.49481 62.2539L2.60905 107.803L0.244263 109.617L1.43084 64.3346L2.29152 62.6884L3.49481 62.2539Z" fill="#FF7F4C"/>
<path d="M71.5977 68.1683L71.84 65.8119L68.4474 65.3021L65.3389 67.4497L61.0021 110.994L12.152 99.8715L14.0321 58.4919C12.3609 58.2133 10.8289 57.9348 9.43624 57.6562L7.69816 59.3442L6.31104 104.651L66.2915 118.924L71.5977 68.1683Z" fill="#C35500"/>
<path d="M71.8398 65.8146L72.7172 60.1993L72.5668 59.1799L72.6922 57.9766L71.9067 58.3944C70.9624 59.3052 70.0015 60.1408 68.8818 60.5168C68.0545 60.684 67.5364 60.8009 67.1938 60.8929L65.9237 61.5697L65.3387 67.4524L68.2133 67.9956L71.8398 65.8063V65.8146Z" fill="#8D2A00"/>
<path d="M81.4749 59.7253L79.0014 58.3883L76.5113 57.043L72.7176 60.1932L71.8402 65.8086L76.6784 63.2767L80.9234 64.9061L81.5083 59.8339L81.5166 59.7504L81.4749 59.7253Z" fill="#450B00"/>
<path d="M3.49537 62.2517L5.37551 61.5748L7.69852 59.3438L6.30304 104.668L2.60962 107.801L3.49537 62.2517Z" fill="#8D2A00"/>
<path d="M2.60962 107.802L6.30304 104.668L66.2835 118.932L71.1385 125.049L2.60962 107.802Z" fill="#FF7F4C"/>
<path d="M8.6253 48.449L19.5468 9.14999L83.5382 29.9986L72.717 60.181L76.2767 58.3343L79.569 59.312L83.0201 58.209L95.4708 24.4668L15.4105 0L1.85681 49.8278L5.4416 48.4072L6.73681 49.318L8.6253 48.449Z" fill="#FF7F4C"/>
<path d="M92.6634 25.1333L79.5693 59.31L83.0204 58.207L95.4711 24.4648L92.6634 25.1333Z" fill="#450B00"/>
<path d="M15.411 0L16.982 2.62383L92.6637 25.1353L95.4713 24.4668L15.411 0Z" fill="#C35500"/>
<path d="M15.4105 0L17.1987 1.84671L3.97092 48.9921L1.85681 49.8278L15.4105 0Z" fill="#A93E00"/>
<path d="M3.9707 48.9892L5.44139 48.4043L6.73659 49.3151L8.62508 48.446L10.0874 43.1649L19.5466 9.14703L17.1985 1.84375" fill="#FF7F4C"/>
<path d="M13.7708 59.1411L14.2072 58.5234L14.3098 61.4516L13.9038 61.5566L13.7708 59.1411Z" fill="#FF7F4C"/>
<path d="M7.69854 59.3442L10.69 59.3108L13.7926 59.1756L14.1996 58.5253L9.42827 57.6562L7.69019 59.3442H7.69854Z" fill="#FF7F4C"/>
<path d="M19.5466 9.14703L17.1985 1.84375L92.6629 25.1324L83.538 29.9956L19.5466 9.14703Z" fill="#8D2A00"/>
<path d="M72.4507 127.996L71.1388 125.047L78.7596 59.0664L79.5702 59.3087L81.5171 59.7516L73.9465 125.857L72.4507 127.996Z" fill="#450B00"/>
<path d="M23.6165 17.4219L14.9679 47.8216L23.5246 49.309L30.0508 49.6181L32.7999 52.5261L38.7997 53.0191L39.7272 44.1783L42.3844 53.0358L44.3147 51.6487L46.1614 50.3201L47.5903 49.6349L49.0694 49.7518L55.7292 48.4901L58.5369 47.972L59.5146 47.7881L62.4476 47.245L59.5731 48.3647L58.7542 48.6739L50.2643 51.9579V53.7043L50.2727 53.7127V53.721L52.4536 55.4507H57.3002H59.4895L65.5644 61.3335L68.1882 53.8965L74.9651 34.6606L23.6165 17.4219Z" fill="#56BDFF"/>
<path d="M83.5392 30.0049L19.5477 9.15625L8.62622 48.4553C9.37827 48.3466 10.1387 48.2547 10.8907 48.1711C11.1665 48.1377 11.4422 48.1126 11.7264 48.0876C12.2862 48.0374 12.8377 47.9873 13.3976 47.9455C13.9157 47.9121 14.4421 47.8787 14.9602 47.8536C15.1524 47.8452 15.3446 47.8285 15.5368 47.8202C15.3446 47.8202 15.1607 47.8202 14.9685 47.8369L23.6255 17.4372L74.9574 34.6592L65.2308 62.268C65.7155 62.2095 66.2085 62.1677 66.7015 62.1426H66.7767C67.2697 62.1176 67.7711 62.1092 68.2892 62.1343C68.473 62.1176 68.6568 62.0925 68.8407 62.0507C68.9075 62.034 68.966 62.0173 69.0329 62.0006C69.1499 61.9755 69.2668 61.9421 69.3838 61.9087C69.459 61.8836 69.5426 61.8502 69.6178 61.8251C69.7181 61.7917 69.8183 61.7499 69.927 61.7165C70.0105 61.683 70.1025 61.6413 70.186 61.6078C70.2779 61.5661 70.3782 61.5243 70.4701 61.4825C70.562 61.4407 70.654 61.3906 70.7459 61.3488C70.8294 61.307 70.9214 61.2569 71.0049 61.2151C71.1052 61.165 71.2055 61.1065 71.2974 61.048C71.3726 61.0062 71.4562 60.9644 71.5314 60.9143C71.6483 60.8474 71.757 60.7806 71.874 60.7137C71.9325 60.6803 71.991 60.6469 72.0494 60.6051C72.2667 60.4714 72.4923 60.3377 72.7096 60.204L83.5225 30.0216V30.0049H83.5392Z" fill="#C35500"/>
</svg>
