<svg width="160" height="160" viewBox="0 0 160 160" fill="none" xmlns="http://www.w3.org/2000/svg">
<circle cx="80.6931" cy="68.3552" r="49.0749" fill="#EBF8FF"/>
<path d="M80.1827 10.0371C48.0785 10.0371 21.8105 36.3546 21.8105 68.5194C21.8105 100.684 48.0785 127.002 80.1827 127.002C112.287 127.002 138.555 100.684 138.555 68.5194C138.555 36.3546 112.287 10.0371 80.1827 10.0371ZM107.617 55.0696L72.5946 90.1581C72.0676 90.7127 71.4336 91.1543 70.7311 91.456C70.0285 91.7577 69.2722 91.9133 68.5078 91.9133C67.7435 91.9133 66.9871 91.7577 66.2846 91.456C65.5821 91.1543 64.9481 90.7127 64.4211 90.1581L52.7484 78.4634C52.1948 77.9354 51.7541 77.3002 51.453 76.5963C51.1518 75.8925 50.9965 75.1347 50.9965 74.3689C50.9965 73.6031 51.1518 72.8454 51.453 72.1415C51.7541 71.4377 52.1948 70.8025 52.7484 70.2745C53.2754 69.7205 53.9091 69.2795 54.6112 68.9782C55.3133 68.6769 56.0692 68.5216 56.833 68.5216C57.5968 68.5216 58.3526 68.6769 59.0547 68.9782C59.7568 69.2795 60.3905 69.7205 60.9175 70.2745L68.51 77.8989L99.4479 46.9027C99.9749 46.3488 100.609 45.9078 101.311 45.6065C102.013 45.3052 102.769 45.1498 103.532 45.1498C104.296 45.1498 105.052 45.3052 105.754 45.6065C106.456 45.9078 107.09 46.3488 107.617 46.9027C108.167 47.4305 108.605 48.0643 108.904 48.7661C109.203 49.4679 109.357 50.2231 109.357 50.9862C109.357 51.7492 109.203 52.5044 108.904 53.2062C108.605 53.908 108.167 54.5419 107.617 55.0696Z" fill="#00A800"/>
<path d="M80.3899 137.042C42.6782 137.042 12 106.302 12 68.5189C12 30.736 42.6782 0 80.3899 0C118.102 0 148.784 30.736 148.784 68.5189C148.784 106.302 118.102 137.042 80.3899 137.042ZM80.3899 3.66892C44.6984 3.66892 15.662 32.7734 15.662 68.5189C15.662 104.264 44.7117 133.373 80.3899 133.373C116.068 133.373 145.135 104.282 145.135 68.5189C145.135 32.7557 116.086 3.66892 80.3899 3.66892Z" fill="#00A800"/>
<path d="M83.6116 160C105.305 160 122.89 158.79 122.89 157.297C122.89 155.804 105.305 154.594 83.6116 154.594C61.9186 154.594 44.333 155.804 44.333 157.297C44.333 158.79 61.9186 160 83.6116 160Z" fill="#B9C1C6"/>
</svg>
