<svg width="45" height="45" viewBox="0 0 45 45" fill="none" xmlns="http://www.w3.org/2000/svg">
<path d="M36.6334 33.9011L30.3546 32.0997L24.8338 30.5159L21.6415 29.6001C21.4827 29.5544 21.277 29.5126 21.0594 29.4782C20.7367 29.4275 20.3868 29.3946 20.1213 29.3946H15.536V29.3931C15.1024 29.2505 14.2881 29.1403 13.8383 29.1368C13.3825 29.1333 13.3987 29.247 13.8588 29.3946H12.5426V29.3931C12.109 29.2505 11.2947 29.1403 10.8449 29.1368C10.3891 29.1333 10.4053 29.247 10.8654 29.3946H9.5492V29.3931C9.1156 29.2505 8.30131 29.1403 7.85148 29.1368C7.39568 29.1333 7.4119 29.247 7.87197 29.3946H6.55578V29.3931C6.12218 29.2505 5.30788 29.1403 4.85806 29.1368C4.40226 29.1333 4.41848 29.247 4.87854 29.3946H0.414457C0.0815707 29.3946 -0.0524387 29.4396 0.0184063 29.5068C0.0499879 29.5365 0.120835 29.5708 0.234358 29.6076C0.252283 29.6134 0.271909 29.6193 0.292394 29.6251C0.300076 29.6275 0.306052 29.6294 0.314587 29.6318L0.387138 29.6525C0.387991 29.6529 0.388848 29.6533 0.390555 29.654C0.395676 29.6564 0.399948 29.6583 0.405069 29.6607L10.4702 33.805L10.6776 33.8905C10.996 34.0214 11.6635 34.1277 12.1688 34.1277H36.5395C37.026 34.1277 37.067 34.0261 36.6308 33.9011H36.6334Z" fill="#1B90FF"/>
<path d="M36.1083 12.2708C35.982 12.0404 35.7551 11.8924 35.4767 11.896L30.6308 11.9576L30.6368 11.9506C30.6399 11.9256 30.6413 11.9014 30.6436 11.8764L28.8789 11.8988C28.8723 11.9256 28.8649 11.9525 28.8592 11.9801L27.4678 11.9978L27.4738 11.9909C27.4769 11.9658 27.4783 11.9416 27.4806 11.9166L25.7159 11.9391C25.7093 11.9659 25.7019 11.9927 25.6962 12.0204L24.3048 12.0381L24.3108 12.0311C24.3139 12.006 24.3153 11.9819 24.3176 11.9568L22.5529 11.9793C22.5463 12.0061 22.5389 12.0329 22.5332 12.0606L21.1418 12.0783L21.1477 12.0713C21.1509 12.0463 21.1523 12.0221 21.1546 11.9971L19.3899 12.0195C19.3833 12.0463 19.3759 12.0731 19.3702 12.1008L14.6528 12.1608C14.3485 12.1647 14.0565 12.3244 13.8458 12.5711C13.7057 12.7359 13.6013 12.939 13.5533 13.162C13.5476 13.1888 13.5436 13.2165 13.5397 13.2441C13.5381 13.2545 13.5356 13.2649 13.534 13.2752L11.115 32.626L11.0648 33.025C10.9881 33.6364 11.3651 34.1266 11.9074 34.1197L32.6493 33.8559C33.164 33.8494 33.6399 33.3734 33.7127 32.7922L33.7628 32.3923L35.0714 21.9263L36.1701 13.1357L36.2069 12.8395C36.2335 12.6253 36.1948 12.4292 36.1083 12.2716L36.1083 12.2708Z" fill="#00144A"/>
<path d="M43.9682 34.1477L18.169 34.4758C17.4949 34.4844 16.879 33.9907 16.7918 33.3721L14.0228 13.703C13.9356 13.0852 14.4117 12.5768 15.0847 12.5682L40.9866 12.2388C41.5697 12.2314 42.1043 12.6592 42.1799 13.1945L44.978 33.0701C45.0606 33.6575 44.6074 34.1396 43.9682 34.1477Z" fill="#00144A"/>
<path d="M43.9693 33.3033L18.4518 33.6278C17.7851 33.6363 17.176 33.1492 17.0897 32.5389L14.3641 13.1294C14.2789 12.5192 14.7488 12.0183 15.4155 12.0098L41.0345 11.684C41.6112 11.6767 42.1389 12.0985 42.2136 12.6269L44.967 32.2405C45.0486 32.8197 44.6014 33.2962 43.9682 33.3042" fill="white"/>
<path d="M42.8122 16.8891L14.9419 17.2435L14.3641 13.1294C14.2789 12.5192 14.7488 12.0183 15.4155 12.0098L41.0345 11.684C41.6112 11.6767 42.1389 12.0985 42.2136 12.6269L42.8122 16.8891Z" fill="#DF1278"/>
<path d="M23.6032 13.3736C23.6332 13.6284 23.4763 13.8374 23.2522 13.8402C23.0281 13.8431 22.822 13.6388 22.792 13.3839C22.762 13.1291 22.9189 12.9201 23.143 12.9173C23.3672 12.9144 23.5733 13.1188 23.6032 13.3736Z" fill="#00144A"/>
<path d="M33.2575 13.2525C33.2875 13.5074 33.1306 13.7163 32.9065 13.7191C32.6824 13.722 32.4763 13.5177 32.4463 13.2628C32.4163 13.008 32.5732 12.7991 32.7973 12.7962C33.0215 12.7934 33.2276 12.9977 33.2575 13.2525Z" fill="#00144A"/>
<path d="M32.2991 11.7875C32.2906 11.1229 32.7996 10.6034 33.2693 10.581C33.7699 10.5583 34.1394 11.1373 34.0953 11.8742C34.0512 12.6111 33.609 13.2289 33.1084 13.2517" stroke="#00144A" stroke-width="0.654727" stroke-miterlimit="10"/>
<path d="M22.6819 11.9086C22.6734 11.244 23.1824 10.7245 23.6521 10.7021C24.1527 10.6794 24.5222 11.2584 24.4781 11.9953C24.4341 12.7322 23.9918 13.35 23.4912 13.3728" stroke="#00144A" stroke-width="0.654727" stroke-miterlimit="10"/>
<path d="M33.2693 10.581C33.7699 10.5583 34.1394 11.1373 34.0953 11.8742C34.0512 12.6111 33.609 13.2289 33.1084 13.2517" stroke="#00144A" stroke-width="0.654727" stroke-miterlimit="10" stroke-linecap="round"/>
<path d="M23.654 10.706C24.1547 10.6833 24.5242 11.2623 24.4801 11.9992C24.436 12.7361 23.9938 13.3539 23.4931 13.3767" stroke="#00144A" stroke-width="0.654727" stroke-miterlimit="10" stroke-linecap="round"/>
<path d="M40.8526 31.5513L20.8161 31.8062C20.4458 31.8109 20.1093 31.5459 20.0659 31.2154L18.4784 19.2681C18.434 18.9368 18.6991 18.665 19.0694 18.6603L39.1058 18.4055C39.4762 18.4008 39.8127 18.6658 39.8561 18.9963L41.4436 30.9435C41.4879 31.2748 41.2229 31.5466 40.8526 31.5513Z" stroke="#DF1278" stroke-width="0.493017" stroke-miterlimit="10"/>
<path d="M35.4155 27.3293L34.1612 27.3453L34.0084 26.1142C33.9729 25.8293 33.7061 25.599 33.4156 25.6027C33.1251 25.6064 32.9168 25.8427 32.9524 26.1277L33.1051 27.3587L31.8508 27.3747C31.5603 27.3784 31.352 27.6147 31.3875 27.8996C31.4231 28.1846 31.6898 28.4148 31.9804 28.4111L33.2347 28.3952L33.3875 29.6262C33.423 29.9112 33.6897 30.1415 33.9803 30.1378C34.2708 30.1341 34.479 29.8978 34.4435 29.6128L34.2908 28.3818L35.5451 28.3658C35.8356 28.3621 36.0439 28.1258 36.0084 27.8409C35.9728 27.5559 35.7061 27.3256 35.4155 27.3293Z" fill="#DF1278"/>
<path d="M32.1367 24.6644L31.9152 24.531C31.751 24.4357 31.5827 24.3533 31.4016 24.2849C31.8646 23.8057 32.1103 23.1274 32.0162 22.3698C31.8376 20.9382 30.5124 19.7937 29.0529 19.8122C27.5934 19.8308 26.5643 21.0122 26.742 22.4438C26.8361 23.2014 27.2587 23.8841 27.8518 24.3499C26.6327 24.969 25.8966 26.276 26.0829 27.7722L26.1635 28.4204C26.1991 28.7054 26.4658 28.9356 26.7564 28.9319L29.6608 28.895C29.9513 28.8913 30.1595 28.655 30.124 28.37C30.0885 28.0851 29.8217 27.8548 29.5312 27.8585L27.1544 27.8887L27.1381 27.7587C26.9508 26.2557 28.0405 25.0218 29.5716 25.0023L29.8354 24.9989C30.3837 24.992 30.984 25.1464 31.447 25.413L31.6616 25.5405C31.9257 25.6992 32.2413 25.6305 32.3762 25.3883C32.5111 25.1468 32.4061 24.83 32.1411 24.6713L32.1342 24.6645L32.1367 24.6644ZM29.1895 20.8538C30.061 20.8427 30.8605 21.5335 30.9671 22.3884C31.0736 23.2432 30.4472 23.9522 29.5765 23.9632C28.7058 23.9743 27.9055 23.2835 27.7989 22.4287C27.6923 21.5738 28.3187 20.8649 29.1895 20.8538Z" fill="#DF1278"/>
</svg>
