<svg width="45" height="38" viewBox="0 0 45 38" fill="none" xmlns="http://www.w3.org/2000/svg">
<g clip-path="url(#clip0_4011_81887)">
<path d="M44.4883 34.9687C44.3903 34.9075 44.1181 34.7415 43.718 34.4998C43.669 34.4707 43.6146 34.4386 43.5629 34.4066C43.3478 34.2755 43.1001 34.127 42.8279 33.9639C42.7599 33.9231 42.6891 33.8823 42.6183 33.8386C42.4768 33.7541 42.3271 33.6639 42.1746 33.5736C41.7146 33.2969 41.2056 32.994 40.6694 32.6736C40.3999 32.5134 40.125 32.3474 39.8473 32.1813C37.795 30.9551 35.4894 29.5804 33.8726 28.6134C33.5786 28.4386 33.3064 28.2755 33.0641 28.1299C32.272 27.658 31.7821 27.3639 31.7821 27.3639C31.7821 27.3639 31.235 27.0202 30.1625 26.9241C30.1162 26.8978 30.0699 26.8687 30.0237 26.8425C29.8005 26.7114 29.5854 26.5862 29.3813 26.4639C29.3813 26.4639 29.3813 26.4639 29.3786 26.4639C29.3649 26.4551 29.3486 26.4464 29.335 26.4376C27.9658 25.6338 27.0295 25.0833 26.8879 25.0017L26.9941 22.2114L26.9995 22.0483L15.5917 20.3532L12.9541 19.9629L12.7608 25.0833L14.7996 25.4066C13.7108 25.5085 12.69 25.6017 11.8435 25.6804C10.4662 25.8085 9.54884 25.893 9.54884 25.893C9.54884 25.893 9.22765 25.66 8.71863 25.3804C8.2069 25.1037 7.52912 24.9959 6.34778 25.1124C5.16371 25.226 0.315842 25.7532 0.315842 25.7532C0.315842 25.7532 -0.258499 25.9308 0.147078 26.2017C0.552655 26.4726 1.40736 27.026 1.40736 27.026C1.40736 27.026 1.28487 27.0406 1.15149 27.0842C0.702365 27.2328 0.767692 27.5357 1.27943 27.8182L2.65131 28.5784L4.90784 29.8512L16.7267 36.9231L17.1868 36.8736L17.8128 37.2493L17.9897 37.2289L18.7165 37.6396H18.7301C18.8472 37.7007 18.9887 37.7532 19.152 37.7998C19.2963 37.8406 19.4596 37.8755 19.6365 37.9075C19.9305 37.9571 20.2653 37.9833 20.6219 37.96C20.641 37.96 20.6655 37.9571 20.6927 37.9541C20.7008 37.9541 20.709 37.9541 20.7172 37.9541C20.739 37.9541 20.7635 37.9512 20.7907 37.9483C20.8016 37.9483 20.8152 37.9483 20.8288 37.9454C20.856 37.9454 20.8832 37.9396 20.9159 37.9367C20.9322 37.9367 20.9485 37.9367 20.9649 37.9338C20.9975 37.9338 21.0329 37.9279 21.0683 37.925C21.0874 37.925 21.1091 37.9221 21.1309 37.9192C21.1663 37.9163 21.2044 37.9134 21.2452 37.9105C21.2697 37.9105 21.2942 37.9075 21.3187 37.9046C21.3623 37.9017 21.4113 37.8959 21.4576 37.893C21.4793 37.893 21.5011 37.8901 21.5256 37.8872C21.5855 37.8813 21.6481 37.8755 21.7134 37.8697C21.727 37.8697 21.7406 37.8697 21.757 37.8668C21.923 37.8522 22.1027 37.8347 22.2987 37.8173C22.3204 37.8173 22.3449 37.8114 22.3694 37.8114C22.4402 37.8056 22.5137 37.7969 22.5899 37.791C22.6307 37.7881 22.6716 37.7823 22.7151 37.7794C22.775 37.7736 22.8376 37.7677 22.9002 37.7619C22.9519 37.7561 23.0064 37.7532 23.0608 37.7474C23.1207 37.7415 23.1806 37.7357 23.2405 37.7299C23.2895 37.724 23.3385 37.7211 23.3875 37.7153C23.4555 37.7095 23.5263 37.7037 23.597 37.6949C23.6569 37.6891 23.7195 37.6833 23.7794 37.6774C23.8148 37.6745 23.8502 37.6716 23.8883 37.6658C29.3541 37.1474 40.0243 36.1017 43.6717 35.7464C43.8078 35.7318 43.9276 35.7202 44.0447 35.7114C44.2379 35.694 44.404 35.6765 44.5346 35.6619C44.7878 35.6357 44.9293 35.6241 44.9293 35.6241C44.9293 35.6241 45.2777 35.4755 44.4965 34.9804L44.4883 34.9687Z" fill="#1B90FF"/>
</g>
<path d="M17.0129 14.9013C17.0129 14.9013 16.8948 14.9331 16.7404 15.0262C16.2134 15.3419 15.9658 15.9734 16.1089 16.5707L20.8493 36.5226C20.8493 36.5226 21.3013 37.706 21.4331 37.6833C22.5279 37.4811 44.072 32.7521 44.072 32.7521C44.072 32.7521 44.5126 32.4409 44.3582 31.3984C44.2037 30.3558 40.306 10.6152 40.306 10.6152C40.306 10.6152 40.1107 9.34318 38.3776 9.69979C36.6445 10.0564 24.9492 12.5163 24.9492 12.5163C24.9492 12.5163 24.9174 12.0234 24.772 11.4374C24.6266 10.8514 24.1655 10.6311 23.0639 10.8718C21.96 11.1126 17.3832 12.2233 17.3832 12.2233C17.3832 12.2233 16.7245 12.5958 16.7926 13.1659C16.8607 13.736 17.0152 14.9013 17.0152 14.9013H17.0129Z" fill="#0899A7"/>
<path d="M30.105 12.9501C31.3338 13.1546 32.6035 13.2068 33.846 13.1046C35.2133 12.991 36.5603 12.6776 37.8527 12.2233C38.5023 11.9962 39.1383 11.7349 39.7607 11.4442C39.9787 11.342 40.1922 11.2307 40.408 11.1239C40.3444 10.7969 40.3081 10.6152 40.3081 10.6152C40.3081 10.6152 40.1127 9.34318 38.3797 9.69979C37.1145 9.961 30.5388 11.342 27.0818 12.0688C28.0517 12.4777 29.067 12.7775 30.105 12.9501Z" fill="#046C7C"/>
<path d="M34.0634 14.5664C32.9073 14.6323 31.7466 14.6664 30.5882 14.68C29.4389 14.6936 28.2918 14.6709 27.1425 14.68C25.3594 14.6936 23.5651 14.8663 21.8388 15.3342C20.2148 15.7725 18.6566 16.488 17.3369 17.5397C17.0416 17.7759 16.7554 17.9031 16.4897 18.1689L20.769 37.2394L21.4322 37.6801C22.5316 37.5165 44.0711 32.7489 44.0711 32.7489C44.0711 32.7489 44.5118 32.4377 44.3573 31.3952C44.2415 30.6115 42.0065 19.241 40.9071 13.6602C38.6562 14.1621 36.3621 14.4347 34.0634 14.5687V14.5664Z" fill="#046C7C"/>
<path d="M38.8311 11.1472C38.8311 11.1472 38.8288 11.129 38.8265 11.1199L38.7198 10.6134L38.6357 10.2137C38.504 9.5913 37.8953 9.19381 37.2729 9.32328L32.8323 10.2568C32.21 10.3886 31.8125 10.9973 31.9419 11.6196L32.0623 12.1898L17.8184 15.5696C17.5141 15.6423 17.321 15.9398 17.3755 16.2465L20.744 34.5448L42.597 29.2933L38.8311 11.1427V11.1472Z" fill="#FFDF72"/>
<path d="M20.1464 34.9983L16.7394 16.4887C16.7053 16.3002 16.8234 16.1162 17.0119 16.0708L37.7611 11.1487C37.9587 11.101 38.1563 11.2282 38.1994 11.4281L42.0017 29.7468" fill="white"/>
<path d="M37.8914 12.2056C37.8869 12.1511 37.8801 12.0966 37.8665 12.0421L37.7461 11.5469C37.6121 10.9972 37.0579 10.6611 36.5082 10.7951L33.6757 11.4856C33.1261 11.6196 32.7899 12.1738 32.9239 12.7235L32.9784 12.9438L16.9356 16.7506C16.6154 16.8256 16.4109 17.1413 16.47 17.4639L19.8316 35.7326L41.6847 30.4812L37.8914 12.2056Z" fill="#FFDF72"/>
<path d="M22.2406 36.762L18.8812 18.5069C18.8199 18.1752 19.0289 17.855 19.3582 17.7755L39.5849 12.976C39.9324 12.8943 40.2777 13.1146 40.3504 13.4644L44.0959 31.5106" fill="#FFF8D6"/>
<path d="M33.7646 0.0351562L28.4473 10.8129L37.9212 15.4874L43.3794 4.42575L33.7646 0.0351562Z" fill="#FFDF72"/>
<path d="M41.4583 6.80459C40.7224 7.90621 39.7752 8.85111 38.7735 9.70969C38.2625 10.1481 37.7355 10.5637 37.1995 10.968C36.6793 11.361 36.1546 11.7562 35.6118 12.1174C34.9144 12.583 34.1649 12.9873 33.3654 13.2372L37.9218 15.4858L43.3799 4.42417L42.9483 4.22656C42.4532 5.08515 42.008 5.97553 41.456 6.80232L41.4583 6.80459Z" fill="#FFDF72"/>
<path d="M37.1372 3.53312C37.7482 4.50754 38.8294 5.08675 39.9787 5.05949C40.9304 5.03678 41.9889 4.99362 42.4659 4.90958C42.7135 4.86642 42.9633 4.81645 43.2086 4.76421L43.3767 4.4235L35.5677 0.857422C35.7244 1.25264 36.4831 2.49736 37.1327 3.53312H37.1372Z" fill="#FFDF72"/>
<path d="M20.41 36.4183L17.0506 18.1631C16.9893 17.8315 17.1982 17.5112 17.5276 17.4317L37.7543 12.6323C38.1018 12.5505 38.4471 12.7708 38.5197 13.1206L42.2653 31.1668" fill="white"/>
<path d="M18.724 19.898C18.724 19.898 18.5786 19.9366 18.3969 20.0547C17.9063 20.3773 17.6814 20.9837 17.8109 21.5561L21.2793 36.9834L20.8455 36.52L20.8023 36.6222C20.6683 36.9448 20.7273 37.3218 20.9704 37.5717C21.1862 37.7943 21.5246 37.9828 22.0357 37.9056C23.135 37.742 44.6746 32.9744 44.6746 32.9744C44.6746 32.9744 45.1152 32.6632 44.9608 31.6206C44.8063 30.5781 42.0125 15.6074 42.0125 15.6074C42.0125 15.6074 41.8172 14.3354 40.0841 14.692C38.351 15.0486 26.6557 17.5085 26.6557 17.5085C26.6557 17.5085 26.6239 17.0156 26.4785 16.4296C26.3331 15.8436 25.872 15.6232 24.7704 15.864C23.6665 16.1048 19.0897 17.2155 19.0897 17.2155C19.0897 17.2155 18.431 17.588 18.4991 18.1581C18.5672 18.7282 18.7217 19.8935 18.7217 19.8935L18.724 19.898Z" fill="#0899A7"/>
<path d="M25.2089 37.2099C24.6501 37.1372 24.0891 37.0759 23.5326 36.985C22.9216 36.8874 22.306 36.7602 21.7245 36.5444C21.5178 36.4671 21.3157 36.3786 21.1226 36.2695L21.2839 36.9828L20.8501 36.5194L20.8069 36.6216C20.6729 36.9441 20.7319 37.3212 20.975 37.571C21.1908 37.7936 21.5292 37.9822 22.0403 37.9049C22.2833 37.8686 23.5303 37.6074 25.3224 37.2212C25.2861 37.2167 25.2475 37.2122 25.2111 37.2076L25.2089 37.2099Z" fill="#046C7C"/>
<path fill-rule="evenodd" clip-rule="evenodd" d="M24.9499 33.8021C24.8393 33.793 24.7331 33.76 24.6381 33.7072C24.6134 33.6935 24.5894 33.6784 24.5664 33.6621C24.4776 33.5993 24.4018 33.5179 24.3457 33.4222C24.3362 33.4059 24.3272 33.3892 24.3188 33.3721C24.2943 33.322 24.2749 33.2685 24.2616 33.2121L23.9167 31.7574C24.3252 31.6681 24.7344 31.9255 24.8308 32.3323L25.0011 33.0504L25.7038 32.8968C26.1122 32.8074 26.5215 33.0648 26.6179 33.4716L25.1757 33.787C25.1191 33.7994 25.0625 33.8051 25.0067 33.8047C24.9876 33.8045 24.9687 33.8037 24.9499 33.8021ZM31.537 32.3959C31.4406 31.9891 31.0313 31.7317 30.6229 31.8211L29.2175 32.1284C28.809 32.2177 28.5561 32.6199 28.6525 33.0267L31.537 32.3959ZM36.4562 31.3202C36.3597 30.9134 35.9505 30.656 35.5421 30.7454L34.1366 31.0527C33.7282 31.142 33.4753 31.5442 33.5717 31.951L36.4562 31.3202ZM38.9616 23.1801C38.5532 23.2694 38.3003 23.6716 38.3967 24.0784L38.7371 25.5146C38.8336 25.9214 39.2428 26.1788 39.6512 26.0895L38.9616 23.1801ZM30.8394 20.4241C30.9358 20.8309 31.3451 21.0883 31.7535 20.999L33.159 20.6917C33.5674 20.6023 33.8203 20.2002 33.7239 19.7934L30.8394 20.4241ZM25.9203 21.4998C26.0167 21.9066 26.4259 22.164 26.8344 22.0747L28.2398 21.7674C28.6483 21.678 28.9012 21.2759 28.8047 20.8691L25.9203 21.4998ZM22.2233 24.6131C22.6317 24.5238 22.8846 24.1217 22.7882 23.7149L22.618 22.9967L23.3207 22.8431C23.7291 22.7538 23.982 22.3516 23.8856 21.9448L22.4434 22.2602C22.3868 22.2725 22.3332 22.2909 22.2831 22.3145C22.266 22.3225 22.2493 22.3312 22.233 22.3404C22.1374 22.3946 22.0566 22.4685 21.9947 22.5556C21.9787 22.5783 21.9639 22.6018 21.9504 22.6261C21.8987 22.7196 21.8671 22.8245 21.8596 22.9341C21.8584 22.9528 21.8578 22.9716 21.858 22.9904C21.8584 23.0458 21.8651 23.1021 21.8785 23.1584L22.2233 24.6131ZM22.7252 26.7306C23.1336 26.6413 23.5429 26.8987 23.6393 27.3055L23.9797 28.7417C24.0762 29.1485 23.8232 29.5507 23.4148 29.64L22.7252 26.7306ZM35.7585 19.3484C35.855 19.7552 36.2642 20.0126 36.6726 19.9233L37.3754 19.7696L37.5456 20.4877C37.642 20.8945 38.0513 21.1519 38.4597 21.0626L38.1149 19.6079C38.1015 19.5515 38.0822 19.4981 38.0576 19.448C38.0492 19.4309 38.0403 19.4142 38.0307 19.3979C37.9746 19.3021 37.8988 19.2207 37.8101 19.158C37.787 19.1416 37.763 19.1266 37.7383 19.1129C37.6433 19.0601 37.5372 19.027 37.4265 19.0179C37.4077 19.0164 37.3888 19.0155 37.3697 19.0154C37.314 19.015 37.2574 19.0207 37.2008 19.0331L35.7585 19.3484ZM40.1532 28.2069C39.7447 28.2962 39.4918 28.6984 39.5882 29.1052L39.7585 29.8233L39.0557 29.977C38.6473 30.0663 38.3944 30.4685 38.4908 30.8753L39.9331 30.5599C39.9896 30.5475 40.0432 30.5291 40.0934 30.5056C40.1104 30.4975 40.1271 30.4889 40.1434 30.4797C40.239 30.4255 40.3198 30.3515 40.3817 30.2644C40.3978 30.2418 40.4126 30.2182 40.426 30.1939C40.4777 30.1005 40.5094 29.9956 40.5168 29.8859C40.518 29.8673 40.5186 29.8485 40.5185 29.8296C40.518 29.7742 40.5113 29.718 40.498 29.6616L40.1532 28.2069Z" fill="white"/>
<path fill-rule="evenodd" clip-rule="evenodd" d="M32.042 25.0551L32.0401 25.0538L30.9025 24.346L30.9023 24.3459C30.8086 24.2871 30.7067 24.2659 30.6018 24.2889C30.4972 24.3117 30.4168 24.3725 30.3644 24.4652L29.6602 25.5726L29.66 25.5729C29.6254 25.6279 29.603 25.693 29.6192 25.7615C29.6355 25.8303 29.6851 25.8784 29.7417 25.9111C29.7957 25.9446 29.8573 25.9599 29.9216 25.9459C29.9866 25.9317 30.0355 25.8915 30.0692 25.8379L30.5348 25.0976L31.162 27.7435C31.1767 27.8057 31.2075 27.8658 31.2662 27.9027C31.3249 27.9397 31.3924 27.9413 31.4548 27.9277C31.5172 27.914 31.5773 27.8845 31.6136 27.8268C31.6499 27.769 31.6505 27.7021 31.6357 27.6399L31.0043 24.976L31.78 25.4638C31.8345 25.4981 31.8968 25.5139 31.9617 25.4997C32.0287 25.4851 32.0823 25.4472 32.1184 25.3898C32.1521 25.3362 32.1715 25.2733 32.1557 25.2068C32.1402 25.1413 32.0951 25.0918 32.042 25.0551Z" fill="white"/>
<path fill-rule="evenodd" clip-rule="evenodd" d="M33.5697 27.8768C33.6735 27.8541 33.7728 27.875 33.8614 27.9359C33.9546 27.9893 34.0165 28.0698 34.041 28.1732C34.0666 28.2812 34.049 28.3835 33.9868 28.4728C33.9319 28.559 33.8511 28.6142 33.7497 28.6364L29.7055 29.5208C29.5994 29.5439 29.4976 29.5296 29.4069 29.4726C29.3163 29.4156 29.2592 29.33 29.2342 29.2243C29.2102 29.1234 29.225 29.0266 29.2789 28.9398C29.3324 28.845 29.417 28.7849 29.5255 28.7612L33.5697 27.8768Z" fill="white"/>
<defs>
<clipPath id="clip0_4011_81887">
<rect width="45" height="18" fill="white" transform="translate(0 19.9629)"/>
</clipPath>
</defs>
</svg>
