<svg width="333" height="248" viewBox="0 0 333 248" fill="none" xmlns="http://www.w3.org/2000/svg">
<path d="M317.711 28.0059H26.6174C24.72 28.0041 22.8408 28.3763 21.0874 29.1012C19.3339 29.8261 17.7404 30.8895 16.3982 32.2305C15.0559 33.5716 13.991 35.164 13.2645 36.9168C12.538 38.6696 12.1641 40.5485 12.1641 42.4459V213.553C12.1641 217.386 13.6868 221.062 16.3973 223.773C19.1079 226.483 22.7841 228.006 26.6174 228.006H317.711C321.544 228.006 325.22 226.483 327.931 223.773C330.641 221.062 332.164 217.386 332.164 213.553V42.4459C332.164 40.5485 331.79 38.6696 331.064 36.9168C330.337 35.164 329.272 33.5716 327.93 32.2305C326.588 30.8895 324.994 29.8261 323.241 29.1012C321.487 28.3763 319.608 28.0041 317.711 28.0059Z" fill="#223548"/>
<path d="M268.266 16.9607C268.576 17.3207 268.783 17.7576 268.865 18.2253C268.947 18.6929 268.902 19.1742 268.734 19.6183L265.011 30.2861C264.396 32.0507 262.607 32.4914 261.224 32.0091C260.651 31.8323 260.15 31.4743 259.798 30.9888C259.446 30.5033 259.261 29.9165 259.27 29.3167C259.284 29.0271 259.341 28.7411 259.44 28.4685L263.163 17.8008C263.317 17.3294 263.595 16.9083 263.968 16.5822C264.342 16.256 264.796 16.0369 265.284 15.9479C265.826 15.8488 266.385 15.8898 266.907 16.067C267.429 16.2443 267.897 16.5519 268.266 16.9607Z" fill="white"/>
<path d="M305.205 65.9904C305.26 66.3257 305.245 66.6688 305.16 66.998C305.076 67.3271 304.923 67.6349 304.713 67.9019C304.502 68.1688 304.239 68.3889 303.939 68.5481C303.638 68.7074 303.308 68.8023 302.969 68.8268L292.04 70.1221C291.647 70.1673 291.249 70.1338 290.869 70.0234C290.488 69.9131 290.134 69.7281 289.827 69.4793C289.519 69.2305 289.264 68.9229 289.076 68.5745C288.889 68.226 288.772 67.8437 288.734 67.4498C288.714 67.2878 288.707 67.1244 288.713 66.9613C288.728 66.3583 288.969 65.7827 289.387 65.3482C289.806 64.9137 290.372 64.6517 290.974 64.6139L301.898 63.322C302.291 63.2761 302.69 63.309 303.07 63.4188C303.45 63.5287 303.804 63.7133 304.112 63.9617C304.42 64.2102 304.675 64.5176 304.863 64.8659C305.05 65.2142 305.167 65.5965 305.205 65.9904Z" fill="white"/>
<path d="M295.566 36.6589C295.529 37.0284 295.417 37.3864 295.237 37.7111C295.057 38.0358 294.812 38.3204 294.519 38.5474L281.443 48.8648C280.854 49.3243 280.111 49.5382 279.367 49.462C278.624 49.3857 277.94 49.0251 277.456 48.4556C277.01 47.9255 276.779 47.2471 276.81 46.5549C276.828 46.156 276.932 45.7657 277.115 45.4106C277.298 45.0555 277.555 44.7439 277.869 44.4972L290.944 34.1798C291.536 33.7174 292.284 33.5024 293.031 33.5801C293.778 33.6577 294.466 34.022 294.95 34.5963C295.187 34.881 295.363 35.2104 295.469 35.5648C295.574 35.9193 295.607 36.2914 295.566 36.6589Z" fill="white"/>
<path d="M312.283 104.281C312.283 102.923 308.34 101.835 303.072 101.589C302.771 96.3271 301.612 92.415 300.253 92.418C298.895 92.421 297.765 96.3633 297.476 101.652C292.193 102.013 288.265 103.194 288.283 104.555C288.301 105.916 292.226 107.003 297.494 107.247C297.81 112.509 298.955 116.421 300.31 116.418C301.666 116.415 302.801 112.473 303.09 107.184C308.374 106.823 312.298 105.642 312.283 104.281Z" fill="#2A4259"/>
<path d="M53.6211 194.879C53.6211 193.974 50.9926 193.249 47.4805 193.084C47.2797 189.577 46.5066 186.969 45.601 186.971C44.6954 186.973 43.9424 189.601 43.7496 193.127C40.2276 193.367 37.6091 194.155 37.6211 195.062C37.6332 195.97 40.2497 196.694 43.7617 196.857C43.9725 200.365 44.7356 202.973 45.6392 202.971C46.5428 202.969 47.2998 200.341 47.4926 196.815C51.0146 196.574 53.6311 195.787 53.6211 194.879Z" fill="#2A4259"/>
<path d="M157.338 49.0348C157.338 47.6766 153.395 46.5894 148.127 46.3424C147.826 41.081 146.666 37.1689 145.308 37.1719C143.949 37.1749 142.82 41.1172 142.531 46.4057C137.248 46.7671 133.32 47.9476 133.338 49.3089C133.356 50.6702 137.281 51.7574 142.549 52.0013C142.865 57.2627 144.01 61.1749 145.365 61.1719C146.72 61.1689 147.856 57.2266 148.145 51.9381C153.428 51.5767 157.353 50.3961 157.338 49.0348Z" fill="#2A4259"/>
<path d="M46.6785 48.0204C47.6027 47.0174 48.8871 46.4221 50.2498 46.3652C51.6125 46.3083 52.9421 46.7945 53.9466 47.717L115.053 104.022C116.054 104.948 116.647 106.233 116.702 107.596C116.756 108.959 116.268 110.287 115.344 111.29L75.4168 154.622C74.4931 155.624 73.2091 156.219 71.8472 156.275C70.4852 156.33 69.1569 155.843 68.1545 154.919L12.7818 103.897L13.8874 83.6076L46.6785 48.0204Z" fill="#324E6B"/>
<path d="M46.4783 43.1141C47.4025 42.1111 48.6869 41.5158 50.0496 41.459C51.4123 41.4021 52.7419 41.8883 53.7464 42.8108L114.852 99.1156C115.854 100.041 116.447 101.327 116.502 102.69C116.556 104.052 116.068 105.381 115.144 106.384L75.2166 149.716C74.7593 150.212 74.2086 150.614 73.5962 150.897C72.9837 151.181 72.3213 151.341 71.647 151.368C70.9726 151.396 70.2994 151.29 69.6658 151.058C69.0323 150.825 68.4507 150.47 67.9543 150.013L12.5816 98.9908L13.6872 78.7013L46.4783 43.1141Z" fill="#2A4259"/>
<path d="M23.2061 87.4609L14.9115 101.126L12.5875 98.985L23.2061 87.4609Z" fill="#3B5B7C"/>
<path d="M23.2063 87.4608L12.5877 98.9848L13.6934 78.6953L23.2063 87.4608Z" fill="#324E6B"/>
<path d="M91.1807 34.9567C96.7895 44.7187 102.344 56.3448 94.3862 59.9038C84.4092 64.3619 79.9449 54.7022 74.322 44.9081C68.6992 35.1141 65.4903 26.264 72.6032 22.1889C79.2715 18.3542 85.5458 25.1526 91.1807 34.9567Z" fill="#3B5B7C"/>
<path d="M92.7393 22.6967C94.3772 17.1943 93.2013 11.9888 90.113 11.0699C87.0247 10.1511 83.1933 13.8667 81.5555 19.3691C79.9176 24.8715 81.0934 30.0769 84.1818 30.9958C87.2701 31.9147 91.1014 28.199 92.7393 22.6967Z" fill="#3B5B7C"/>
<path d="M111.462 38.4797C114.039 44.3687 113.336 50.3344 109.921 51.8671C101.579 55.6099 101.173 50.0762 99.0416 43.9156C96.9105 37.7549 97.1872 32.1057 100.582 30.5282C106.805 27.6292 108.871 32.5587 111.462 38.4797Z" fill="#3B5B7C"/>
<path d="M123.638 53.8049L77.571 73.9665C77.0259 74.205 76.7774 74.8403 77.0159 75.3853L90.6263 106.484C90.8649 107.029 91.5001 107.277 92.0452 107.038L138.112 86.8769C138.657 86.6383 138.906 86.0031 138.667 85.4581L125.057 54.3598C124.818 53.8148 124.183 53.5664 123.638 53.8049Z" fill="#324E6B"/>
<path d="M121.183 48.2831L75.1862 68.4137C74.6411 68.6523 74.3926 69.2875 74.6311 69.8325L79.5166 80.9954C79.7552 81.5404 80.3904 81.7888 80.9355 81.5503L126.932 61.4196C127.477 61.181 127.725 60.5458 127.487 60.0008L122.601 48.8379C122.363 48.2929 121.728 48.0445 121.183 48.2831Z" fill="#3B5B7C"/>
<path d="M122.094 42.775L70.8942 65.1833C70.3491 65.4218 70.1006 66.0571 70.3391 66.6021L75.693 78.8351C75.9315 79.3801 76.5668 79.6285 77.1118 79.39L128.312 56.9817C128.857 56.7431 129.106 56.1079 128.867 55.5629L123.513 43.3299C123.275 42.7849 122.64 42.5365 122.094 42.775Z" fill="#324E6B"/>
<path d="M72.0935 103.832C70.157 98.0481 73.8056 91.8927 79.8095 90.815L244.524 61.2498C249.409 60.373 254.198 63.2116 255.773 67.9179L287.697 163.276C289.634 169.061 285.985 175.216 279.981 176.294L115.267 205.859C110.382 206.736 105.593 203.897 104.018 199.191L72.0935 103.832Z" fill="#0070F3"/>
<path d="M75.9348 89.4703L72.7041 96.2775L80.2661 94.6157L75.9348 89.4703Z" fill="#0070F3"/>
<path d="M287.204 165.496L287.14 170.91L289.676 165.495L287.204 165.496Z" fill="#0070F3"/>
<path d="M75.2478 97.5023C73.3113 91.718 76.9599 85.5626 82.9638 84.4849L247.678 54.9197C252.563 54.0429 257.352 56.8815 258.927 61.5878L290.852 156.946C292.788 162.731 289.14 168.886 283.136 169.964L118.421 199.529C113.537 200.406 108.748 197.567 107.172 192.861L75.2478 97.5023Z" fill="#4098FF"/>
<path d="M75.2537 97.52C73.3152 91.7297 76.9735 85.5691 82.9855 84.4999L247.786 55.1915C252.666 54.3236 257.446 57.1619 259.019 61.8624L264.229 77.4241L79.523 110.273L75.2537 97.52Z" fill="#1782FF"/>
<path d="M96.3318 121.845C95.5572 119.531 97.0168 117.069 99.4185 116.638L251.46 89.3586C253.414 89.0081 255.33 90.1435 255.96 92.0259L276.978 154.808C277.753 157.122 276.293 159.584 273.891 160.015L121.85 187.294C119.896 187.644 117.98 186.509 117.35 184.626L96.3318 121.845Z" fill="#1782FF"/>
<path d="M99.1727 117.729C98.398 115.416 99.8577 112.953 102.259 112.522L254.301 85.2434C256.255 84.8928 258.171 86.0283 258.801 87.9107L279.819 150.692C280.594 153.006 279.134 155.469 276.732 155.899L124.69 183.178C122.736 183.529 120.821 182.394 120.191 180.511L99.1727 117.729Z" fill="#CEDBE8"/>
<path d="M114.984 127.316C114.372 125.489 115.525 123.544 117.421 123.204L150.608 117.25C152.151 116.973 153.664 117.869 154.161 119.356L157.953 130.681C158.565 132.508 157.412 134.453 155.516 134.793L122.328 140.747C120.785 141.024 119.273 140.127 118.775 138.641L114.984 127.316Z" fill="#B9C1C6"/>
<path d="M125.142 156.429C124.53 154.602 125.683 152.658 127.579 152.317L160.767 146.363C162.31 146.086 163.822 146.983 164.32 148.469L168.111 159.794C168.723 161.622 167.57 163.566 165.674 163.906L132.486 169.861C130.943 170.137 129.431 169.241 128.933 167.754L125.142 156.429Z" fill="#B9C1C6"/>
<circle cx="91.0356" cy="95.2761" r="4.5" transform="rotate(-18.5096 91.0356 95.2761)" fill="#3B5B7C"/>
<circle cx="108.107" cy="92.4187" r="4.5" transform="rotate(-18.5096 108.107 92.4187)" fill="#3B5B7C"/>
<circle cx="125.182" cy="89.28" r="4.5" transform="rotate(-18.5096 125.182 89.28)" fill="#3B5B7C"/>
<path d="M170.345 121.063L183.212 108.196C183.972 107.435 185.107 107.189 186.115 107.566L205.375 114.766C206.027 115.01 206.237 115.83 205.781 116.357L193.959 130.018C193.192 130.903 191.949 131.205 190.862 130.771L170.681 122.698C170.014 122.432 169.837 121.57 170.345 121.063Z" fill="#B9C1C6"/>
<path fill-rule="evenodd" clip-rule="evenodd" d="M145.08 159.083L134.487 127.384L137.332 126.434L147.925 158.132L145.08 159.083Z" fill="#B9C1C6"/>
<path fill-rule="evenodd" clip-rule="evenodd" d="M245.317 109.988L129.427 131.215L128.887 128.264L244.777 107.037L245.317 109.988Z" fill="#B9C1C6"/>
<ellipse cx="14.068" cy="13.3149" rx="14.068" ry="13.3149" transform="matrix(0.998834 -0.0482839 0.252197 0.967676 215.437 98.6152)" fill="#B9C1C6"/>
<path d="M270.918 209C290.203 209 305.836 193.367 305.836 174.082C305.836 154.797 290.203 139.164 270.918 139.164C251.633 139.164 236 154.797 236 174.082C236 193.367 251.633 209 270.918 209Z" fill="#F58B00"/>
<path d="M270.93 155.068H270.918C268.312 155.068 266.199 157.181 266.199 159.787V188.379C266.199 190.985 268.312 193.098 270.918 193.098H270.93C273.536 193.098 275.649 190.985 275.649 188.379V159.787C275.649 157.181 273.536 155.068 270.93 155.068Z" fill="#CEDBE8"/>
<path d="M252.711 173.543V174.61C252.711 176.924 254.587 178.801 256.902 178.801H284.968C287.282 178.801 289.159 176.924 289.159 174.61V173.543C289.159 171.228 287.282 169.351 284.968 169.351H256.902C254.587 169.351 252.711 171.228 252.711 173.543Z" fill="#CEDBE8"/>
</svg>
