<svg width="320" height="157" viewBox="0 0 320 157" fill="none" xmlns="http://www.w3.org/2000/svg">
<rect y="13.5566" width="320" height="138" rx="24" fill="#222F3B"/>
<path d="M106.619 47.5997C106.823 41.4091 107.146 35.2242 107.584 29.0449L102.899 28.5897V13L98.1698 14.3224L60 24.4296V139.246L94.8038 149.323C98.7954 150.479 102.933 151.048 107.088 151.013L118.616 150.915C118.616 150.915 100.685 142.996 100.642 141.732C100.603 140.539 100.771 139.34 101.204 138.223C101.667 137.034 102.414 135.978 103.325 135.088C104.469 133.97 105.861 133.112 107.247 132.327C108.706 131.503 110.231 130.793 111.796 130.193C113.291 129.622 114.827 129.154 116.382 128.777V126.829C114.561 123.913 113.164 120.693 111.965 117.565C109.609 111.412 107.687 104.999 106.844 98.4559C105.78 90.2068 106.052 81.8622 106.226 73.57C106.258 72.0285 106.28 70.4869 106.301 68.9473C106.346 64.7141 106.368 60.4828 106.432 56.2515C106.469 53.3688 106.524 50.4842 106.617 47.6016L106.619 47.5997Z" fill="#101619"/>
<path d="M238.442 54.8991C243.557 57.6189 250.019 57.6189 250.019 57.6189L255.135 47.4817C255.135 47.4817 238.709 45.9982 238.44 43.0312C238.44 43.0312 233.324 52.1794 238.44 54.8991H238.442Z" fill="#101619"/>
<path d="M222.915 47.9633L209.725 44.957L207.536 56.1862L219.518 56.8324L222.915 47.9633Z" fill="#101619"/>
<path d="M221.419 72.9093L208.534 68.5469L206.165 78.0228C206.165 78.0228 215.18 78.4405 220.312 82.8123C220.312 82.8123 224.515 74.4846 221.417 72.9093H221.419Z" fill="#101619"/>
<path d="M201.06 55.8016L198.462 50.6094L192.807 52.0929L195.864 55.8016H201.06Z" fill="#101619"/>
<path d="M234.096 55.4925L231.985 52.3008C231.985 52.3008 228.511 52.9283 227.454 52.3008L230.867 56.9161L234.094 55.4906L234.096 55.4925Z" fill="#101619"/>
<path d="M250.89 61.3711L243.089 65.3645L250.89 71.3546C255.494 71.4727 257.541 66.4228 257.541 66.4228L250.89 61.373V61.3711Z" fill="#101619"/>
<path d="M77.7943 13.001L134.178 18.9593V139.23H202.898C207.828 139.23 208.731 146.252 203.962 147.5L179.565 153.883C166.661 157.259 153.113 157.296 140.191 153.994L77.7962 138.043V13.001H77.7943Z" fill="#D0CDB3"/>
<path d="M203.229 67.3507L203.439 66.5621C203.812 65.1554 202.877 63.7356 201.347 63.3872L189.091 60.5888C188.848 60.4802 188.589 60.3922 188.314 60.3322L183.498 59.3114L180.513 58.6783L178.544 65.309L178.22 66.5977C177.722 66.6164 175.714 66.7588 173.953 67.8002C173.485 67.5754 173.037 67.3376 172.524 67.2008C172.065 67.0791 171.597 67.0454 171.126 66.9873C170.169 66.8318 169.255 66.6857 168.461 66.5565L169.16 65.1498C169.16 65.1498 169.12 65.1329 169.051 65.103C169.047 65.103 169.045 65.0992 169.042 65.0992C169.036 65.0973 169.032 65.0955 169.027 65.0936C167.397 64.3781 151.017 57.2341 145.392 56.9475C141.447 56.7452 138.07 56.262 135.796 55.7656C135.575 57.5488 135.362 59.332 135.163 61.117C134.68 65.5038 134.294 69.9018 134.114 74.3111C133.933 78.7896 134.024 83.2588 134.255 87.7336C134.318 88.968 134.395 90.2023 134.474 91.4348C134.614 93.5683 134.755 95.6999 134.839 97.8352C134.888 99.0171 134.923 100.201 134.933 101.387C134.935 101.69 134.946 101.992 134.963 102.291C135.909 101.905 136.84 101.514 137.731 101.128C139.473 108.107 142.802 118.645 147.462 121.06C147.462 121.06 149.547 122.556 152.914 121.567C156.282 120.578 177.709 114.762 179.46 114.762C179.761 114.762 179.883 114.498 179.876 114.06C181.644 113.884 183.564 114.052 185.148 114.296C187.147 114.603 188.908 115.669 190.052 117.203C192.731 120.794 193.913 120.387 193.913 120.387C194.115 114.266 185.428 107.588 184.721 107.124C184.015 106.659 185.933 105.732 185.933 105.732L182.399 102.17L176.882 106.534C176.667 106.184 176.484 105.929 176.352 105.809C176.352 105.809 176.352 105.809 176.351 105.807C176.336 105.794 176.322 105.783 176.309 105.773C176.309 105.773 176.306 105.77 176.304 105.77C176.291 105.76 176.279 105.753 176.268 105.747L176.264 105.745C176.251 105.74 176.24 105.734 176.229 105.732C176.208 105.728 176.186 105.726 176.161 105.728C175.787 105.745 175.124 106.38 174.371 107.023C174.23 107.143 174.086 107.264 173.94 107.38C173.46 107.764 172.962 108.105 172.49 108.265C172.387 108.3 172.286 108.326 172.187 108.341C171.868 108.392 171.186 108.45 170.282 108.516C170.252 108.517 170.22 108.519 170.19 108.523C169.754 108.555 169.268 108.589 168.75 108.626C168.628 108.635 168.506 108.643 168.381 108.652C168.18 108.667 167.974 108.682 167.764 108.697C167.629 108.707 167.495 108.716 167.358 108.727C167.24 108.737 167.12 108.744 167 108.753C166.669 108.778 166.331 108.804 165.99 108.83C165.887 108.838 165.783 108.847 165.678 108.855C165.511 108.868 165.342 108.881 165.174 108.896C164.795 108.928 164.415 108.959 164.037 108.993C163.754 109.019 163.471 109.046 163.192 109.072C163.031 109.087 162.87 109.104 162.711 109.121C162.224 109.171 161.748 109.222 161.293 109.278C161.263 109.282 161.233 109.285 161.203 109.289C161.061 109.306 160.922 109.325 160.783 109.342C160.763 109.343 160.742 109.347 160.72 109.349C159.682 109.486 158.775 109.641 158.11 109.815C157.723 109.917 157.348 110.018 156.988 110.113C156.663 110.201 156.35 110.287 156.052 110.37C155.838 110.43 155.632 110.486 155.434 110.542C155.368 110.561 155.303 110.58 155.239 110.597C155.164 110.617 155.089 110.64 155.016 110.66C153.461 111.104 152.512 111.402 152.512 111.402C152.512 111.402 152.512 111.396 152.512 111.394C152.512 111.391 152.512 111.387 152.512 111.378C152.512 111.372 152.512 111.368 152.512 111.361C152.512 111.353 152.512 111.346 152.512 111.336C152.575 110.437 153.216 100.568 151.159 98.6799C151.159 98.6799 154.415 93.6975 151.648 89.4269C153.842 88.7957 158.395 82.5096 158.395 82.5096C158.395 82.5096 157.532 82.0675 156.226 81.4045C156.082 81.3314 155.93 81.2546 155.775 81.1759C155.698 81.1366 155.617 81.0973 155.539 81.0561C155.379 80.9755 155.215 80.8912 155.046 80.8069C154.962 80.7639 154.876 80.7208 154.791 80.6777C151.345 78.9338 146.419 76.4689 144.662 75.729C144.654 75.7252 144.645 75.7196 144.635 75.7178C144.559 75.684 144.48 75.6466 144.403 75.6054C144.371 75.5885 144.339 75.5679 144.308 75.5492C144.253 75.5173 144.199 75.4874 144.145 75.4518C144.109 75.4293 144.073 75.4031 144.038 75.3769C143.987 75.3413 143.937 75.3076 143.886 75.2701C143.849 75.242 143.811 75.212 143.774 75.1821C143.725 75.1446 143.676 75.1053 143.628 75.0659C143.59 75.0341 143.551 74.9985 143.513 74.9648C143.467 74.9217 143.418 74.8805 143.371 74.8355C143.334 74.7999 143.296 74.7625 143.259 74.725C143.212 74.6782 143.165 74.6332 143.118 74.5845C143.081 74.5452 143.043 74.5059 143.006 74.4647C142.959 74.4141 142.912 74.3654 142.867 74.3129C142.83 74.2717 142.792 74.2268 142.755 74.1837C142.71 74.1312 142.663 74.0788 142.618 74.0226C142.581 73.9777 142.545 73.9327 142.508 73.8859C142.463 73.8297 142.418 73.7735 142.373 73.7173C142.335 73.6705 142.3 73.6218 142.264 73.5749C142.219 73.5169 142.176 73.4588 142.133 73.3989C142.097 73.3502 142.062 73.2996 142.024 73.249C141.981 73.1891 141.938 73.1273 141.895 73.0655C141.859 73.013 141.824 72.9624 141.788 72.91C141.747 72.8482 141.704 72.7864 141.663 72.7227C141.627 72.6684 141.592 72.6159 141.558 72.5616C141.517 72.4979 141.477 72.4342 141.436 72.3705C141.401 72.3144 141.367 72.26 141.333 72.2038C141.294 72.1402 141.256 72.0765 141.217 72.0128C141.183 71.9547 141.148 71.8985 141.114 71.8405C141.077 71.7787 141.041 71.715 141.005 71.6513C140.972 71.5913 140.936 71.5314 140.902 71.4715C140.869 71.4097 140.835 71.3497 140.801 71.2879C140.767 71.2261 140.732 71.1624 140.698 71.1006C140.666 71.0425 140.636 70.9845 140.605 70.9245C140.569 70.859 140.535 70.7915 140.502 70.726C140.473 70.6717 140.445 70.6173 140.419 70.563C140.384 70.4937 140.348 70.4225 140.312 70.3532C140.288 70.3045 140.265 70.2577 140.243 70.209C140.206 70.1322 140.168 70.0573 140.133 69.9824C140.114 69.9449 140.097 69.9074 140.08 69.87C140.041 69.7857 140 69.7014 139.962 69.6171C139.951 69.5946 139.941 69.5722 139.932 69.5497C139.357 68.2816 138.964 67.1353 138.849 66.4628C138.834 66.3767 138.823 66.2961 138.818 66.2268C138.791 65.8822 139.651 65.7286 141.084 65.7436C142.558 65.7604 144.641 65.9552 146.994 66.3092C147.003 66.3092 147.012 66.313 147.024 66.313C147.151 66.3317 147.28 66.3523 147.409 66.3729C147.43 66.3767 147.449 66.3785 147.469 66.3823C147.87 66.446 148.279 66.5115 148.693 66.5846C148.702 66.5846 148.713 66.5883 148.722 66.5902C148.835 66.6089 148.947 66.6295 149.062 66.6501C149.114 66.6595 149.166 66.6689 149.219 66.6782C149.324 66.697 149.429 66.7157 149.534 66.7363C149.593 66.7475 149.653 66.7588 149.715 66.77C149.818 66.7887 149.921 66.8094 150.024 66.8281C150.086 66.8393 150.146 66.8524 150.208 66.8637C150.382 66.8974 150.556 66.9311 150.732 66.9667C150.815 66.9835 150.895 66.9985 150.978 67.0154C151.064 67.0322 151.152 67.051 151.238 67.0697C151.324 67.0866 151.41 67.1053 151.495 67.1222C151.579 67.139 151.663 67.1577 151.748 67.1746C151.843 67.1952 151.939 67.2158 152.034 67.2364C152.109 67.2533 152.184 67.2683 152.261 67.2851C152.424 67.3207 152.589 67.3582 152.751 67.3938C152.802 67.405 152.851 67.4162 152.901 67.4275C153.025 67.4556 153.15 67.4837 153.274 67.5136C153.34 67.5286 153.407 67.5455 153.473 67.5605C153.585 67.5867 153.696 67.6129 153.808 67.641C153.872 67.656 153.937 67.6728 154.001 67.6878C154.124 67.7178 154.246 67.7478 154.37 67.7796C154.42 67.7927 154.471 67.804 154.522 67.8171C154.694 67.8602 154.866 67.9051 155.039 67.9501C155.067 67.9576 155.097 67.965 155.125 67.9725C155.269 68.01 155.413 68.0493 155.556 68.0868C155.608 68.1018 155.66 68.1149 155.715 68.1299C155.838 68.1636 155.962 68.1973 156.084 68.231C156.136 68.246 156.189 68.261 156.241 68.2741C156.38 68.3134 156.516 68.3528 156.653 68.3921C156.687 68.4015 156.719 68.4108 156.752 68.4202C156.925 68.4708 157.097 68.5214 157.268 68.5719C157.29 68.5794 157.312 68.585 157.335 68.5925C157.479 68.6356 157.623 68.6806 157.768 68.7255C157.814 68.7405 157.859 68.7536 157.906 68.7686C158.03 68.8079 158.155 68.8473 158.277 68.8866C158.322 68.9016 158.367 68.9166 158.412 68.9297C158.554 68.9765 158.695 69.0233 158.835 69.0702C158.856 69.0777 158.876 69.0833 158.897 69.0908C159.062 69.147 159.225 69.2032 159.388 69.2594C159.414 69.2687 159.438 69.2781 159.465 69.2856C159.598 69.3324 159.729 69.3792 159.86 69.4261C159.903 69.441 159.946 69.4579 159.989 69.4729C160.105 69.516 160.221 69.559 160.336 69.6021C160.377 69.6171 160.418 69.634 160.459 69.649C160.596 69.7014 160.731 69.7538 160.864 69.8063C160.879 69.8119 160.894 69.8175 160.909 69.8231C161.061 69.8831 161.208 69.9449 161.356 70.0048C161.385 70.0161 161.415 70.0292 161.443 70.0404C161.557 70.0891 161.671 70.1378 161.785 70.1865C161.827 70.2053 161.868 70.2221 161.907 70.2408C162.01 70.2858 162.113 70.3326 162.214 70.3795C162.252 70.3963 162.289 70.4132 162.327 70.43C162.452 70.4881 162.576 70.5462 162.698 70.6042C162.707 70.608 162.716 70.6136 162.726 70.6173C162.859 70.681 162.988 70.7466 163.115 70.8121C163.145 70.8271 163.173 70.8421 163.203 70.8571C163.299 70.9058 163.394 70.9564 163.488 71.0069C163.526 71.0275 163.563 71.0481 163.6 71.0669C163.688 71.1156 163.775 71.1624 163.859 71.2111C163.893 71.2298 163.926 71.2486 163.958 71.2673C164.071 71.3329 164.179 71.3965 164.286 71.4621C164.288 71.4621 164.292 71.4658 164.293 71.4677C164.404 71.5351 164.511 71.6045 164.616 71.6738C164.644 71.6925 164.672 71.7112 164.698 71.73C164.773 71.7805 164.848 71.8311 164.921 71.8817C164.953 71.9042 164.985 71.9266 165.016 71.9491C165.086 71.9997 165.155 72.0502 165.221 72.1008C165.247 72.1214 165.275 72.142 165.301 72.1608C165.391 72.2319 165.481 72.3012 165.565 72.3743L166.59 70.3102C166.601 70.3176 166.614 70.3251 166.625 70.3308V70.3439C166.625 70.3439 166.751 70.4169 166.925 70.5181C167.392 71.0631 168.491 72.3106 169.032 72.5803C169.503 72.8145 170.417 73.2172 171.16 73.4644C171.406 75.1821 172.456 76.4632 173.393 77.2893C174.329 78.1546 175.199 78.6117 175.199 78.6117L173.661 84.7423L173.294 86.2033L177.87 87.492L181.219 88.4342L181.749 88.584C182.127 88.6908 182.511 88.6945 182.869 88.6158L194.055 91.2213C194.587 91.3449 195.121 91.315 195.604 91.1651C196.044 91.0284 196.441 90.7924 196.756 90.4777C196.765 90.4683 196.773 90.459 196.782 90.4496C197.069 90.1536 197.284 89.7903 197.393 89.3782L200.753 76.688C203.023 78.0235 205.792 79.3459 207.869 79.3459C212.07 79.3459 215.221 73.9402 215.221 73.9402L203.224 67.3563L203.229 67.3507ZM175.652 76.8248C175.195 76.6 173.178 75.5267 172.593 73.7697C172.966 73.884 173.23 74.0507 173.296 74.0095C173.365 73.9645 173.781 73.6574 173.5 73.279C173.694 73.3127 173.865 73.3427 173.981 73.3708C174.03 73.382 174.071 73.3933 174.099 73.4026C174.343 73.4907 174.575 73.249 174.698 73.0879C174.728 73.0486 174.753 73.013 174.764 72.9831C174.839 72.8782 174.914 72.7583 174.987 72.6215C175.287 72.0559 174.612 71.9697 174.612 71.9697C174.612 71.9697 174.655 71.9641 174.723 71.936C174.723 71.936 174.725 71.936 174.727 71.936C174.743 71.9285 174.76 71.921 174.779 71.9098C174.781 71.9098 174.785 71.906 174.787 71.906C174.803 71.8967 174.818 71.8873 174.837 71.8761C174.843 71.8723 174.846 71.8704 174.852 71.8667C174.873 71.8536 174.893 71.8386 174.914 71.8199C174.918 71.8161 174.921 71.8124 174.925 71.8105C174.944 71.7955 174.961 71.7787 174.979 71.7599C174.985 71.7543 174.993 71.7468 174.998 71.7412C175.021 71.7187 175.043 71.6944 175.066 71.6663C175.067 71.6625 175.071 71.6588 175.073 71.655C175.094 71.6307 175.114 71.6026 175.133 71.5726C175.139 71.5633 175.146 71.5539 175.152 71.5445C175.174 71.5108 175.197 71.4733 175.219 71.434C175.24 71.3947 175.255 71.3572 175.266 71.3216C175.266 71.3179 175.268 71.3141 175.27 71.3104C175.333 71.0856 175.208 70.9264 175.081 70.8309C175.041 70.8009 175.002 70.7766 174.968 70.7578C174.966 70.7578 174.964 70.7559 174.961 70.7541C174.946 70.7466 174.931 70.7391 174.92 70.7335C174.951 70.7447 174.996 70.7541 175.049 70.7447C175.06 70.7447 175.069 70.741 175.081 70.7372C175.187 70.7054 175.313 70.5892 175.392 70.2577C175.392 70.2558 175.392 70.2521 175.392 70.2502C175.401 70.2109 175.407 70.1753 175.41 70.1397C175.41 70.1247 175.41 70.1135 175.412 70.0985C175.412 70.076 175.416 70.0554 175.414 70.0348C175.414 70.0179 175.41 70.0048 175.41 69.9899C175.41 69.9749 175.408 69.958 175.405 69.943C175.401 69.9262 175.397 69.9112 175.393 69.8962C175.39 69.885 175.388 69.8737 175.384 69.8625C175.378 69.8456 175.371 69.8306 175.363 69.8138C175.36 69.8063 175.358 69.7988 175.354 69.7913C175.345 69.7745 175.335 69.7595 175.324 69.7445C175.322 69.7407 175.318 69.737 175.317 69.7332C175.303 69.7164 175.29 69.7014 175.277 69.6883C175.277 69.6883 175.274 69.6845 175.274 69.6827C175.126 69.5328 174.916 69.5085 174.916 69.5085C175.3 69.235 175.335 68.8323 175.259 68.5794C175.251 68.5569 175.245 68.5363 175.236 68.5176C175.236 68.5139 175.232 68.5101 175.23 68.5064C175.223 68.4914 175.217 68.4764 175.21 68.4633C175.208 68.4595 175.204 68.4558 175.202 68.4502C176.345 67.6897 177.491 67.4069 177.999 67.4743L175.654 76.8266L175.652 76.8248Z" fill="#101619"/>
<path d="M175.142 66.585C175.142 66.585 176.768 68.7315 177.466 69.1099C178.165 69.4882 179.842 70.2749 180.484 70.303C181.126 70.3311 181.63 70.7357 181.724 70.6702C181.818 70.6046 182.524 70.0333 181.381 69.4452C180.239 68.8589 175.142 66.585 175.142 66.585Z" fill="#FF7F4C"/>
<path d="M102.09 124.317C102.09 124.317 97.885 126.647 96.1861 124.317C94.4872 121.986 89.6715 116.794 89.6715 118.304C89.6715 119.814 90.8984 127.744 94.7701 129.915C98.6399 132.086 99.3067 132.086 98.5949 133.219C97.885 134.353 97.9449 134.07 97.9449 134.07L102.369 138.071L107.52 132.223C107.52 132.223 107.794 131.919 107.279 130.222C106.763 128.525 102.09 124.318 102.09 124.318V124.317Z" fill="#00144A"/>
<path d="M107.842 64.7881L105.162 71.194C105.162 71.194 114.732 74.5356 118.339 75.7213C121.947 76.907 131.194 70.7277 131.194 70.7277L127.309 63.874C127.309 63.874 121.583 66.5319 119.105 68.8845L107.842 64.7862V64.7881Z" fill="#3B5B7C"/>
<path d="M127.308 63.876C127.308 63.876 124.472 65.1928 121.926 66.7943C122.61 67.5735 123.264 68.392 123.756 69.3042C124.003 69.7631 124.211 70.2538 124.311 70.7689C124.406 71.2616 124.378 71.7448 124.224 72.2225C124.078 72.6757 123.85 73.2246 123.383 73.4287C123.029 73.5842 122.636 73.4718 122.306 73.3107C121.426 72.8818 120.759 72.1176 119.888 71.6718C119.851 71.7692 119.81 71.8628 119.759 71.9546C119.575 72.2918 119.296 72.5615 118.94 72.7095C118.581 72.8593 118.18 72.8818 117.796 72.8499C116.953 72.7806 116.15 72.4735 115.355 72.2037C114.143 71.7935 112.928 71.3927 111.701 71.0312C110.478 70.6715 109.24 70.3587 107.983 70.1396C107.234 70.0085 106.479 69.9167 105.72 69.8586L105.16 71.196C105.16 71.196 114.73 74.5376 118.337 75.7233C121.945 76.9089 131.192 70.7296 131.192 70.7296L127.308 63.876Z" fill="#2A4259"/>
<path d="M184.56 106.723L190.822 101.328L194.357 105.209C194.357 105.209 192.437 106.219 193.145 106.724C193.851 107.23 202.538 114.502 202.336 121.168C202.336 121.168 201.154 121.612 198.476 117.699C197.331 116.026 195.57 114.865 193.572 114.532C191.584 114.2 189.065 113.992 186.982 114.5L184.558 115.206L183.144 107.639L184.558 106.721L184.56 106.723Z" fill="#00144A"/>
<path d="M166.826 79.9131C166.826 79.9131 162.115 86.9971 159.969 87.4804C157.822 87.9636 156.41 86.4745 156.41 86.4745V78.1992L166.826 79.915V79.9131Z" fill="#00144A"/>
<path d="M144.767 93.2725C144.767 93.2725 148.779 117.889 155.889 121.901C155.889 121.901 157.974 123.532 161.342 122.453C164.709 121.374 186.136 115.041 187.887 115.041C189.638 115.041 185.326 105.339 184.652 105.204C183.978 105.069 182.092 107.789 180.61 108.045C179.128 108.302 169.84 108.707 166.534 109.651C163.228 110.595 160.937 111.38 160.937 111.38C160.937 111.38 161.746 99.6803 159.59 97.5244C159.59 97.5244 165.653 87.4191 154.2 82.9723C142.746 78.5256 144.765 93.2743 144.765 93.2743L144.767 93.2725Z" fill="#2A4259"/>
<path d="M158.717 119.925C157.462 118.614 156.335 117.173 155.364 115.639C154.924 114.942 154.518 114.225 154.16 113.483C153.855 112.85 153.615 112.2 153.379 111.539C152.693 109.615 152.263 107.594 152.148 105.553C152.077 104.294 152.154 103.02 152.446 101.795C152.377 101.509 152.289 101.228 152.16 100.964C151.976 100.591 151.721 100.276 151.455 99.9615C150.907 99.3134 150.36 98.6447 150.019 97.8618C149.88 97.5452 149.786 97.223 149.723 96.884C149.657 96.53 149.62 96.1741 149.573 95.8182C149.485 95.1289 149.384 94.3741 148.947 93.8084C148.914 93.8477 148.885 93.8908 148.861 93.9377C148.854 93.9508 148.833 93.9508 148.827 93.9377C148.488 93.2615 148.046 92.6415 147.541 92.0795C146.696 91.143 145.688 90.3769 144.665 89.6445C144.544 91.6506 144.767 93.2746 144.767 93.2746C144.767 93.2746 148.779 117.891 155.889 121.903C155.889 121.903 157.974 123.534 161.342 122.455C161.39 122.44 161.443 122.424 161.497 122.407C160.499 121.665 159.573 120.824 158.717 119.929V119.925Z" fill="#00144A"/>
<path d="M160.813 101.329C160.723 102.822 160.504 104.304 160.308 105.785C160.081 107.488 159.884 109.215 160.002 110.934C160.04 111.479 160.105 112.036 160.289 112.555C160.409 112.892 160.589 113.227 160.883 113.444C161.458 113.868 162.252 113.684 162.877 113.489C163.896 113.171 164.863 112.691 165.839 112.268C166.17 112.124 166.498 111.993 166.845 111.89C167.309 111.751 167.779 111.635 168.255 111.541C169.139 111.365 170.035 111.264 170.934 111.212C171.848 111.157 172.765 111.153 173.681 111.159C174.506 111.165 175.337 111.212 176.16 111.165C177.237 111.105 178.293 110.829 179.353 110.644C179.853 110.556 180.357 110.481 180.865 110.462C181.282 110.447 181.719 110.47 182.114 110.618C182.453 110.745 182.74 110.972 182.916 111.29C183.077 111.582 183.139 111.916 183.156 112.251C183.257 111.537 183.539 110.844 183.547 110.12C183.547 110.108 183.556 110.099 183.568 110.099C183.867 110.099 184.171 110.099 184.465 110.17C184.532 110.187 184.598 110.206 184.663 110.228C184.746 110.258 184.813 110.324 184.877 110.234C184.957 110.119 184.993 109.94 185.04 109.809C185.248 109.224 185.401 108.623 185.525 108.016C185.602 107.634 185.664 107.248 185.722 106.862C185.237 105.899 184.826 105.24 184.654 105.205C183.98 105.07 182.093 107.789 180.612 108.046C179.13 108.303 169.842 108.707 166.536 109.651C163.23 110.595 160.939 111.38 160.939 111.38C160.939 111.38 161.343 105.519 160.815 101.329H160.813Z" fill="#3B5B7C"/>
<path d="M142.481 84.885C142.481 84.885 121.244 96.7379 117.779 102.573C114.314 108.407 109.938 117.707 107.569 118.436C105.198 119.164 102.463 121.536 98.6343 120.624C98.6343 120.624 103.375 132.293 107.387 132.293C107.387 132.293 125.813 112.599 127.45 107.858C127.45 107.858 146.52 100.93 152.482 96.736C158.444 92.5422 160.708 82.8358 157.462 80.0131C154.214 77.1904 142.483 84.8831 142.483 84.8831L142.481 84.885Z" fill="#2A4259"/>
<path d="M118.392 103.655C119.051 102.852 119.721 102.056 120.437 101.303C121.175 100.527 121.973 99.8436 122.803 99.1711C126.371 96.2809 130.788 94.8349 134.614 92.3662C136.441 91.188 138.22 89.8881 140.224 89.019C141.106 88.6369 142.037 88.3428 143 88.251C143.967 88.1592 144.939 88.296 145.87 88.5601C147.696 89.0789 149.382 90.0511 151.275 90.3301C153.259 90.6242 155.406 90.0623 157.187 89.1913C157.533 89.0227 157.865 88.8336 158.189 88.635C159.356 85.0555 159.21 81.536 157.46 80.0151C154.212 77.1923 142.481 84.8851 142.481 84.8851C142.481 84.8851 121.244 96.738 117.779 102.573C116.874 104.097 115.906 105.86 114.928 107.643C116.176 106.401 117.275 105.015 118.392 103.657V103.655Z" fill="#00144A"/>
<path d="M151.418 95.3462C150.768 95.0652 150.167 94.7974 149.996 94.7562C148.436 94.3834 146.799 94.5033 145.214 94.6307C142.736 94.8292 140.157 95.069 138.038 96.3689C136.675 97.2062 135.598 98.4255 134.444 99.5344C132.526 101.376 130.361 101.958 128.004 103.026C126.88 103.535 125.773 103.989 124.582 104.301C123.587 104.562 122.475 104.863 121.851 105.751C121.274 106.573 121.6 107.577 121.909 108.428C122.031 108.763 122.155 109.11 122.173 109.469C122.192 109.799 122.108 110.144 122.031 110.462C121.636 112.071 120.607 113.532 119.65 114.853C118.639 116.25 117.528 117.567 116.468 118.926C115.883 119.676 115.338 120.446 114.692 121.146C114.072 121.82 113.394 122.442 112.664 122.995C109.955 125.038 106.584 125.904 103.227 125.389C102.309 125.248 101.414 125.014 100.547 124.707C102.296 128.073 104.973 132.295 107.387 132.295C107.387 132.295 125.813 112.601 127.45 107.86C127.45 107.86 146.52 100.932 152.482 96.7379C152.793 96.5187 153.092 96.2809 153.383 96.0336C153.268 96.131 152.3 95.7264 151.42 95.3462H151.418Z" fill="#3B5B7C"/>
<path d="M186.767 62.5869C186.767 62.5869 180.923 62.6 179.726 67.678C178.531 72.7578 183.392 75.4419 183.392 75.4419L183.989 73.8067C183.989 73.8067 179.842 71.6751 181.086 68.0694C182.33 64.4637 185.746 63.3155 186.535 63.5722L186.767 62.5869Z" fill="#FA4F96"/>
<path d="M181.086 68.0703C181.475 66.939 182.08 66.0493 182.751 65.3694C182.685 65.2645 182.618 65.1596 182.552 65.0547C182.367 64.7587 182.185 64.4609 182.005 64.1631C180.996 64.9179 180.115 66.0306 179.726 67.6807C178.531 72.7606 183.631 75.6807 183.631 75.6807L184.174 73.7851C184.174 73.7851 179.84 71.6779 181.086 68.0722V68.0703Z" fill="#9B015D"/>
<path d="M182.528 70.0088C182.283 69.9133 180.962 69.7278 180.576 69.5911C180.19 69.4525 179.406 69.1116 179.276 69.031C179.149 68.9505 178.531 68.677 178.132 68.5253C177.892 68.4354 177.622 68.2724 177.416 68.1301C177.368 68.1038 177.319 68.0757 177.267 68.0458C175.585 67.0399 173.32 65.5209 173.32 65.5209L173.844 62.6569L174.204 62.0781C174.204 62.0781 176.692 62.5146 179.552 63.0165C180.022 63.0802 180.492 63.1158 180.949 63.2488C181.488 63.4043 181.955 63.6815 182.447 63.9362C182.813 64.1254 183.18 64.3127 183.54 64.5094C183.727 64.6124 183.899 65.3354 183.345 65.7644C183.345 65.7644 183.98 65.843 183.82 66.5792C183.697 67.1561 183.451 67.1336 183.35 67.0961C183.487 67.1654 183.877 67.4127 183.652 67.8603C183.38 68.3998 183.041 68.4447 183.041 68.4447C183.041 68.4447 183.714 68.5365 183.416 69.1547C183.116 69.7709 182.772 70.1024 182.528 70.005V70.0088Z" fill="#FFAB92"/>
<path d="M183.304 65.7326C183.229 65.7157 183.156 65.6895 183.084 65.6614C183.006 65.6296 182.933 65.5865 182.86 65.5434C182.787 65.5003 182.715 65.4573 182.64 65.4217C182.567 65.3861 182.493 65.358 182.419 65.3261C182.346 65.2943 182.273 65.2625 182.208 65.2156C182.182 65.1969 182.153 65.1763 182.133 65.1501C182.118 65.1313 182.105 65.107 182.112 65.0845C182.12 65.0583 182.152 65.0433 182.176 65.0377C182.202 65.0321 182.228 65.0358 182.253 65.0414C182.311 65.0545 182.363 65.0845 182.414 65.1107C182.459 65.1351 182.504 65.1576 182.554 65.1726C182.612 65.1894 182.67 65.2025 182.729 65.2119C182.858 65.2344 182.995 65.2494 183.126 65.2269C183.182 65.2175 183.236 65.2007 183.283 65.1688C183.337 65.1313 183.382 65.0845 183.42 65.0283C183.489 64.9216 183.519 64.7886 183.506 64.6612C183.498 64.59 183.478 64.5207 183.446 64.457C183.491 64.4814 183.525 64.5001 183.543 64.5095C183.727 64.6106 183.895 65.3093 183.373 65.742C183.35 65.7382 183.328 65.7364 183.305 65.7307L183.304 65.7326Z" fill="#FF7F4C"/>
<path d="M183.573 67.2606C183.515 67.2531 183.459 67.2418 183.403 67.225C183.307 67.1969 183.216 67.1594 183.126 67.1145C182.946 67.0264 182.777 66.9178 182.599 66.8241C182.511 66.7773 182.419 66.7342 182.324 66.7024C182.277 66.6855 182.228 66.6706 182.178 66.6593C182.138 66.6499 182.101 66.6462 182.062 66.6462C182.02 66.6462 181.981 66.6481 181.94 66.6462C181.906 66.6462 181.869 66.6406 181.841 66.62C181.829 66.6106 181.818 66.5975 181.816 66.5806C181.813 66.5582 181.816 66.5338 181.816 66.5113C181.816 66.487 181.813 66.4664 181.803 66.4439C181.794 66.4214 181.781 66.4008 181.771 66.3783C181.781 66.3746 181.788 66.3709 181.799 66.3709C181.829 66.3709 181.859 66.3896 181.884 66.4046C181.916 66.4252 181.944 66.4477 181.974 66.4701C182 66.4889 182.026 66.5095 182.054 66.5245C182.073 66.5338 182.094 66.5376 182.114 66.5432C182.142 66.5507 182.172 66.5563 182.2 66.5638C182.316 66.5881 182.436 66.6012 182.554 66.6106C182.607 66.6144 182.661 66.6144 182.714 66.6218C182.757 66.6275 182.802 66.6368 182.845 66.6462C182.929 66.6649 183.015 66.6855 183.101 66.6912C183.187 66.6968 183.275 66.6837 183.354 66.6462C183.431 66.6087 183.5 66.5507 183.556 66.487C183.609 66.4252 183.652 66.354 183.678 66.2772C183.703 66.2023 183.712 66.1217 183.701 66.0449C183.693 65.9962 183.678 65.9513 183.658 65.9082C183.791 66.0225 183.899 66.2229 183.822 66.5806C183.699 67.1576 183.453 67.1351 183.352 67.0976C183.405 67.1257 183.496 67.1782 183.575 67.2606H183.573Z" fill="#FF7F4C"/>
<path d="M182.854 68.418C182.762 68.4106 182.67 68.3993 182.58 68.3825C182.491 68.3656 182.402 68.3431 182.316 68.3169C182.142 68.2663 181.972 68.2026 181.799 68.1446C181.775 68.1371 181.753 68.1296 181.726 68.124C181.698 68.1184 181.67 68.1127 181.642 68.1071C181.616 68.1015 181.588 68.094 181.563 68.0809C181.545 68.0715 181.532 68.0565 181.533 68.0359C181.535 68.0135 181.56 68.0022 181.578 67.9947C181.605 67.9854 181.633 67.9835 181.661 67.9835C181.687 67.9835 181.713 67.9835 181.739 67.9854C181.788 67.9872 181.837 67.991 181.886 67.9947C182.08 68.0078 182.275 68.0303 182.47 68.0528C182.552 68.0622 182.638 68.064 182.721 68.0659C182.805 68.0659 182.889 68.0659 182.974 68.0565C183.056 68.0472 183.139 68.0303 183.217 68.0041C183.257 67.991 183.294 67.9741 183.33 67.9554C183.369 67.9329 183.405 67.9086 183.44 67.8823C183.541 67.8056 183.629 67.7119 183.717 67.6201C183.716 67.695 183.695 67.7756 183.65 67.8674C183.451 68.2626 183.215 68.3918 183.105 68.433C183.021 68.433 182.936 68.4274 182.852 68.4218L182.854 68.418Z" fill="#FF7F4C"/>
<path d="M177.733 66.5585C177.87 66.6466 177.991 66.7552 178.089 66.8882C178.248 67.1055 178.375 67.3434 178.525 67.5681C178.598 67.6787 178.675 67.7873 178.765 67.8847C178.857 67.984 178.95 68.0776 179.05 68.1694C179.245 68.3492 179.458 68.5103 179.683 68.6489C180.052 68.8774 180.449 69.0591 180.857 69.2033C181.052 69.2726 181.252 69.3232 181.449 69.3869C181.646 69.4506 181.865 69.5199 182.082 69.5012C182.251 69.4862 182.41 69.4225 182.577 69.3925C182.742 69.3644 182.914 69.37 183.077 69.4131C183.253 69.46 183.214 69.5386 183.126 69.6641C183.002 69.8402 182.77 70.1024 182.526 70.0069C182.281 69.9114 180.96 69.7259 180.574 69.5892C180.189 69.4506 179.404 69.1097 179.275 69.0291C179.145 68.9486 178.529 68.6751 178.13 68.5234C177.731 68.3717 176.403 67.5176 176.248 67.4202C176.032 67.2853 175.054 66.6747 175.054 66.6747L175.32 65.1725C175.585 65.1406 177.518 66.4181 177.733 66.5567V66.5585Z" fill="#FF7F4C"/>
<path d="M181.959 66.0392C181.887 66.0523 181.814 66.0542 181.743 66.0598C181.711 66.0636 181.678 66.0673 181.648 66.0767C181.61 66.0879 181.578 66.1198 181.554 66.1479C181.53 66.1778 181.511 66.2115 181.492 66.2453C181.477 66.2734 181.462 66.3015 181.442 66.3258C181.427 66.3445 181.406 66.3539 181.384 66.3595C181.363 66.3633 181.342 66.3614 181.322 66.3595C181.279 66.3502 181.239 66.3239 181.208 66.294C181.108 66.2022 181.028 66.0317 181.037 65.895C181.039 65.8575 181.05 65.8219 181.073 65.792C181.093 65.7676 181.121 65.7526 181.149 65.7414C181.217 65.7152 181.292 65.7114 181.365 65.7133C181.618 65.7227 182.054 65.7451 182.099 65.9306C182.11 65.9737 182.02 66.028 181.959 66.0392ZM181.326 69.113C181.262 69.2029 181.024 69.1242 180.883 69.0661C180.745 69.0081 180.619 68.9144 180.522 68.7983C180.426 68.684 180.355 68.5492 180.325 68.4031C180.301 68.2776 180.292 68.1464 180.301 68.0209C180.307 67.9254 180.329 67.8318 180.338 67.7344C180.348 67.6313 180.35 67.5265 180.35 67.4216C180.35 67.3747 180.35 67.3279 180.357 67.2811C180.365 67.2343 180.383 67.1893 180.417 67.1556C180.449 67.1237 180.492 67.105 180.535 67.0919C180.812 67.0132 181.099 67.1481 181.374 67.1593C181.432 67.1612 181.49 67.1631 181.55 67.1668C181.623 67.1706 181.696 67.1762 181.769 67.1856C181.839 67.1949 181.908 67.2043 181.974 67.2249C182.022 67.2399 182.075 67.2586 182.11 67.2961C182.142 67.3298 182.144 67.3729 182.123 67.4141C182.093 67.4703 182.034 67.5058 181.975 67.5302C181.901 67.562 181.82 67.5789 181.739 67.592C181.659 67.6051 181.577 67.6126 181.494 67.6164C181.432 67.6201 181.37 67.6201 181.309 67.6239C181.258 67.6257 181.208 67.6313 181.159 67.6426C181.123 67.652 181.086 67.6651 181.058 67.6894C180.994 67.7437 180.998 67.8355 181.011 67.9104C181.016 67.9404 181.022 67.9704 181.03 68.0003C181.035 68.0322 181.041 68.0659 181.046 68.0977C181.071 68.2476 181.069 68.4031 181.106 68.5492C181.133 68.6466 181.178 68.7383 181.222 68.8282C181.267 68.9163 181.372 69.0511 181.329 69.113H181.326Z" fill="#FF7F4C"/>
<path d="M130.979 52.9937C130.979 52.9937 130.119 51.5084 130.979 47.6629C131.839 43.8175 130.08 39.5487 126.277 39.0692C122.473 38.5916 118.646 41.0247 118.068 43.5946C118.068 43.5946 116.371 45.0181 116.028 47.5543C115.97 47.9851 117.058 48.2923 116.985 48.843C116.912 49.3937 115.619 51.6545 115.927 52.001C116.234 52.3475 116.751 52.2145 117.058 52.5948C117.365 52.975 117.086 53.3871 117.257 53.595C117.427 53.8029 117.15 54.1457 117.356 54.1813C117.562 54.2169 116.717 56.5863 117.191 57.5191C117.665 58.4519 120.842 57.3768 122.145 57.9031C123.449 58.4294 124.867 57.3468 125.584 59.9953C126.302 62.6439 131.194 54.0839 131.194 54.0839L130.981 52.9937H130.979Z" fill="#FFAB92"/>
<path d="M116.554 51.7948C116.698 51.7611 116.848 51.7517 116.994 51.7704C117.131 51.7892 117.262 51.8304 117.391 51.8809C117.446 51.9034 117.502 51.924 117.56 51.939C117.609 51.9521 117.667 51.9652 117.715 51.9446C117.807 51.9072 117.77 51.7966 117.736 51.7311C117.689 51.6449 117.622 51.57 117.558 51.4951C117.476 51.4014 117.384 51.3153 117.283 51.2422C117.159 51.1542 117.026 51.083 116.886 51.0268C116.739 50.9687 116.586 50.9219 116.43 50.9013C116.337 50.8882 116.243 50.8882 116.149 50.8957C115.943 51.407 115.812 51.8453 115.925 51.9914C115.99 51.9914 116.058 51.9746 116.116 51.9521C116.262 51.8922 116.404 51.8285 116.558 51.7929L116.554 51.7948Z" fill="#C35500"/>
<path d="M124.281 48.1012C124.209 48.6762 123.945 49.2175 123.702 49.7457C123.606 49.9518 123.486 50.184 123.267 50.2383C123.136 50.2721 122.997 50.2327 122.876 50.1784C122.763 50.1297 122.642 50.0417 122.645 49.918C122.655 49.7064 122.975 49.6521 123.114 49.5547C123.177 49.5097 123.209 49.446 123.224 49.3692C123.228 49.3449 123.233 49.3168 123.233 49.2924C123.233 49.2812 123.23 49.2737 123.222 49.2662C123.123 49.1557 123.136 49.0527 123.286 48.9852C123.363 48.9497 123.451 48.9309 123.514 48.8747C123.565 48.8279 123.593 48.7605 123.616 48.6949C123.769 48.2566 123.827 47.7846 123.784 47.3219C123.775 47.2302 123.747 47.1197 123.657 47.0972C123.614 47.0859 123.567 47.1028 123.528 47.1253C123.383 47.2114 123.293 47.4025 123.127 47.4137C123.041 47.4193 122.951 47.3669 122.915 47.2882C122.825 47.0897 123.069 46.9005 123.22 46.8181C123.41 46.7151 123.647 46.6757 123.848 46.7713C124.11 46.8968 124.236 47.2021 124.279 47.4887C124.309 47.6966 124.307 47.9007 124.282 48.1012H124.281Z" fill="#FF7F4C"/>
<path d="M117.135 53.5781C117.496 53.8591 116.979 53.8666 117.356 54.1831C117.397 54.2187 117.391 54.3573 117.346 54.6102C117.515 54.5146 117.659 54.3817 117.792 54.2449C118.109 53.919 118.375 53.5425 118.729 53.2559C118.68 53.2559 118.624 53.2634 118.566 53.2803C118.266 53.3664 117.959 53.1641 117.877 52.8626C117.843 52.7352 117.813 52.6153 117.796 52.5273C117.77 52.3831 117.725 52.2445 117.646 52.119C117.586 52.0234 117.508 51.9391 117.416 51.8736C117.234 51.7443 117.009 51.69 116.788 51.6844C116.549 51.6769 116.307 51.7219 116.078 51.793C116.013 51.8137 115.951 51.8417 115.887 51.8661C115.891 51.9223 115.902 51.9729 115.929 52.0028C116.236 52.3494 116.753 52.2164 117.06 52.5966C117.367 52.9768 116.925 53.4114 117.137 53.5781H117.135Z" fill="#FF7F4C"/>
<path d="M116.786 48.3932C116.818 48.3913 116.848 48.3875 116.876 48.3838C117.071 48.3557 117.256 48.292 117.449 48.2489C117.513 48.2339 117.577 48.2246 117.644 48.2265C117.721 48.2265 117.798 48.2339 117.875 48.2396C118.069 48.2527 118.266 48.2677 118.461 48.2508C118.579 48.2414 118.772 48.2171 118.822 48.086C118.755 48.0335 118.682 47.9904 118.613 47.9399C118.551 47.8949 118.47 47.8443 118.457 47.7638C118.444 47.6833 118.496 47.6214 118.56 47.5802C118.598 47.5559 118.637 47.5353 118.676 47.5166C118.721 47.4941 118.766 47.4716 118.811 47.4491C119.049 47.333 119.294 47.23 119.532 47.1101C119.65 47.0502 119.766 46.9865 119.877 46.9153C119.982 46.8479 120.083 46.7767 120.188 46.7093C120.39 46.58 120.607 46.462 120.851 46.4395C120.857 46.4395 120.866 46.4433 120.868 46.4489C120.89 46.492 120.941 46.5051 120.986 46.5107C121.109 46.5257 121.239 46.4938 121.357 46.4601C121.375 46.4545 121.394 46.4451 121.413 46.4395C121.493 46.2447 121.557 46.0424 121.578 45.8326C121.6 45.6135 121.57 45.3681 121.39 45.2201C121.226 45.0853 120.976 45.207 120.821 45.3007C120.606 45.4299 121.265 44.6095 121.008 44.6732C120.744 44.7388 120.658 43.9015 120.388 43.8884C120.087 43.8734 119.042 43.5156 118.749 43.4445C118.673 43.4257 116.65 45.5311 116.614 45.6041C116.226 46.4002 116.153 47.0408 116.116 47.0708C116.082 47.2281 116.054 47.3911 116.031 47.5578C115.992 47.8556 116.498 48.0953 116.79 48.395L116.786 48.3932Z" fill="#FF7F4C"/>
<path d="M120.587 55.9421C120.986 55.5656 121.424 55.2266 121.915 54.9775C122.979 54.4399 124.239 54.3856 125.369 54.7452C125.94 54.9269 126.463 55.2247 126.955 55.56C127.16 55.6986 127.341 55.8466 127.523 56.0133C127.731 56.2025 127.948 56.3954 128.214 56.4966C128.692 56.6783 129.181 56.4685 129.566 56.1838C129.919 55.9234 130.22 55.5956 130.497 55.2547C130.921 54.5654 131.194 54.0878 131.194 54.0878L130.981 52.9976C130.981 52.9976 130.121 51.5123 130.981 47.6668C131.84 43.8214 130.082 39.5526 126.279 39.0731C122.475 38.5955 118.648 41.0286 118.068 43.5985C118.051 43.6715 118.032 43.739 118.013 43.8083C118.159 43.8588 118.309 43.9019 118.461 43.9356C118.727 43.9956 118.998 44.0387 119.261 44.1192C119.77 44.2747 120.162 44.6212 120.27 45.1588C120.398 45.7937 120.356 46.1309 120.259 46.4905C120.119 47.0169 120.752 47.4046 121.164 47.0468C121.169 47.0412 121.175 47.0375 121.181 47.0319C122.098 46.2339 124.455 45.4322 124.985 47.0937C125.14 47.5788 125.062 48.107 124.925 48.5996C124.783 49.1147 124.577 49.6148 124.316 50.0812C124.138 50.4015 123.923 50.7181 123.608 50.9073C123.065 51.2351 122.518 50.9504 122.068 50.6132C121.859 50.4559 121.565 51.1695 121.315 51.7895C120.793 53.0913 120.004 54.3613 118.92 55.2697C118.435 55.6762 117.875 56.0114 117.257 56.1613C117.195 56.1763 117.135 56.18 117.073 56.1913C117.019 56.7026 117.024 57.199 117.187 57.523C117.386 57.9126 118.058 57.9501 118.867 57.9033C119.062 57.6654 119.253 57.4237 119.444 57.184C119.793 56.7457 120.175 56.328 120.583 55.944L120.587 55.9421Z" fill="#FF7F4C"/>
<path d="M120.27 45.1545C120.398 45.7876 120.356 46.1248 120.261 46.4844C120.12 47.0145 120.752 47.4041 121.164 47.0445L121.181 47.0295C121.99 46.3252 123.042 45.9431 124.108 46.2353C124.344 46.299 124.58 46.4001 124.736 46.5893C124.878 46.7635 124.936 46.9902 124.989 47.2093C125.005 47.2767 125.02 47.3442 125.035 47.4135C125.101 47.4772 125.163 47.5446 125.223 47.612C125.507 47.9379 125.743 48.3032 125.959 48.6759C126.163 49.03 126.348 49.3933 126.532 49.7586C126.697 50.0826 126.867 50.4029 127.049 50.7176C127.51 51.5212 127.963 52.394 128.787 52.8848C129.259 53.1657 129.801 53.2894 130.333 53.3999C130.582 53.4504 130.833 53.4879 131.084 53.5216L130.981 52.9934C130.981 52.9934 130.121 51.5081 130.981 47.6626C131.84 43.8172 130.07 39.6252 126.279 39.0689C121.304 38.3402 117.375 41.1592 116.794 43.731C116.777 43.804 116.629 45.531 116.612 45.6003C116.68 45.6228 117.075 45.2725 117.483 44.8867C118.178 44.2292 119.272 44.1581 119.999 44.7818C120.145 44.9073 120.246 45.0328 120.27 45.1527V45.1545Z" fill="#450B00"/>
<path d="M125.363 58.836C125.363 58.836 123.543 61.0388 123.709 63.5937C123.876 66.1486 127.658 72.4908 129.108 74.4182C130.557 76.3457 131.485 77.7804 133.438 77.7954C135.392 77.8104 126.457 58.2441 126.457 58.2441L125.363 58.836Z" fill="#2A4259"/>
<path d="M125.23 57.9164L124.693 61.833C124.693 61.833 126.667 69.271 128.576 72.1331C130.484 74.9952 132.309 75.7219 132.309 75.7219C132.309 75.7219 126.285 59.3212 126.603 57.9164C126.922 56.5115 125.23 57.9164 125.23 57.9164Z" fill="#D5DADD"/>
<path d="M126.33 54.556C125.856 54.9868 125.607 55.6105 125.657 56.2492C125.878 59.0476 126.57 66.8341 127.59 68.7971C128.842 71.2058 131.488 75.1749 131.477 76.5853C131.466 77.9958 133.262 82.6654 139.02 85.9545C144.778 89.2456 146.864 92.7876 149.408 92.2444C151.952 91.7012 158.088 84.8681 158.669 84.3118C159.249 83.7574 156.408 78.1962 156.408 78.1962C156.408 78.1962 157.79 81.1857 161.707 81.4067C165.623 81.6277 166.824 79.912 166.824 79.912C166.824 79.912 155.902 73.8169 153.091 72.5245C150.279 71.2321 147.376 64.0151 147.248 62.1813C147.123 60.3457 168.115 63.4756 173.996 68.8832L177.585 61.0125C177.585 61.0125 159.74 52.4075 153.817 52.0779C147.896 51.7482 143.249 50.7236 141.704 50.0062C140.159 49.2888 136.937 46.3013 133.818 48.3916C131.428 49.9931 127.864 53.1605 126.33 54.5541V54.556Z" fill="#3B5B7C"/>
<path d="M144.038 61.172C143.043 60.6044 142.109 59.9301 141.238 59.1865C140.822 58.8325 140.421 58.4616 140.037 58.0739C139.702 57.733 139.355 57.3808 139.076 56.9912C138.357 55.9891 138.046 54.7941 137.793 53.6066C137.668 53.0222 137.551 52.4321 137.383 51.859C137.299 51.5705 137.201 51.2839 137.081 51.0086C137.02 50.8662 136.952 50.7239 136.879 50.5871C136.845 50.5253 136.812 50.4654 136.776 50.4055C136.733 50.3305 136.737 50.2931 136.695 50.368C136.624 50.4972 136.596 50.6789 136.557 50.8213C136.519 50.9543 136.486 51.0854 136.454 51.2202C136.388 51.4956 136.338 51.7728 136.298 52.0538C136.223 52.6007 136.199 53.157 136.231 53.7077C136.351 55.8337 137.295 57.8004 138.548 59.4899C139.867 61.2675 141.511 62.7866 143.21 64.1951C143.618 64.5342 144.032 64.8676 144.45 65.1972C144.877 65.5363 145.321 65.8584 145.731 66.2162C146.628 67.001 147.335 67.9656 148.003 68.9453C148.689 69.9474 149.346 70.9738 150.161 71.8804C151.053 72.8731 152.156 73.6542 153.308 74.3154C155.563 75.6116 158.054 76.4095 160.384 77.5502C162.175 78.4268 163.793 79.6125 165.603 80.4517C165.723 80.5078 165.846 80.5622 165.974 80.6165C166.584 80.2587 166.826 79.9178 166.826 79.9178C166.826 79.9178 155.904 73.8228 153.092 72.5304C150.395 71.2904 147.614 64.6016 147.28 62.44C147.202 62.4251 147.123 62.4119 147.044 62.3951C145.984 62.1666 144.976 61.7114 144.038 61.1757V61.172Z" fill="#2A4259"/>
<path d="M138.91 79.1031C138.747 79.0806 138.572 79.0507 138.452 78.9364C138.228 78.721 138.321 78.3333 138.514 78.0879C138.936 77.5503 139.46 77.0989 139.719 76.4433C139.874 76.0481 139.9 75.6042 139.799 75.1921C139.709 74.8268 139.425 74.514 139.028 74.7688C138.462 75.1322 137.876 75.4637 137.272 75.7578C136.66 76.0556 135.978 75.5161 136.117 74.8493C136.27 74.1188 136.489 73.3996 136.636 72.6672C136.686 72.4087 136.336 72.2757 136.203 72.5042C135.943 72.9519 135.643 73.4277 135.409 73.6936C134.27 74.9879 132.837 74.1563 132.363 72.6822C132.129 71.9517 132.204 71.1631 132.15 70.397C132.063 69.2095 131.663 68.0725 131.408 66.9093C130.889 64.5324 132.086 62.6293 132.095 60.2954C132.095 60.1681 132.091 60.0388 132.082 59.9115C132.078 59.8646 132.09 59.7672 132.056 59.7316C132.028 59.7035 131.96 59.7354 131.921 59.7447C131.709 59.7972 131.505 59.8796 131.312 59.9789C130.893 60.1962 130.516 60.494 130.177 60.8199C129.898 61.0878 129.636 61.38 129.396 61.689C128.977 62.2285 128.113 62.0187 127.958 61.3537C127.909 61.1421 127.868 60.9304 127.834 60.715C127.439 58.147 128.04 55.5696 128.083 52.9941C127.354 53.6347 126.723 54.2004 126.277 54.605C125.832 55.0096 125.607 55.5846 125.654 56.1765C125.867 58.9112 126.562 66.8157 127.592 68.7974C128.842 71.2062 131.49 75.1752 131.479 76.5857C131.47 77.7882 132.775 81.3583 136.727 84.4246C137.527 84.2166 138.316 83.96 139.072 83.6322C140.251 83.1228 141.339 82.4484 142.154 81.5288C142.901 80.6859 142.358 79.3522 141.232 79.2923C140.408 79.2492 139.516 79.1855 138.908 79.1012L138.91 79.1031Z" fill="#2A4259"/>
<path d="M175.311 63.1423C174.736 63.6275 174.118 64.1107 173.427 64.4198C172.852 64.6764 172.232 64.8131 171.604 64.86C170.198 64.9649 168.781 64.6464 167.446 64.2306C166.015 63.7848 164.636 63.1967 163.256 62.616C162.42 62.2657 161.593 61.8799 160.708 61.6738C159.967 61.4996 159.216 61.3592 158.465 61.2337C157.464 61.0651 156.458 60.9265 155.449 60.8272C154.458 60.7298 153.461 60.668 152.465 60.6998C151.705 60.7242 150.879 60.7766 150.174 61.0913C149.884 61.2206 149.646 61.4135 149.515 61.6626C155.078 61.7282 169.317 64.5865 173.996 68.889L177.585 61.0183C177.585 61.0183 177.538 60.9958 177.452 60.9546C176.796 61.7394 176.094 62.4849 175.311 63.1442V63.1423Z" fill="#2A4259"/>
<path d="M116.043 47.4211C116.043 47.4211 115.938 47.7152 116.164 47.8894C116.372 48.0505 117.573 47.4361 117.993 47.5541C118.412 47.6721 117.727 47.2507 116.045 47.4193L116.043 47.4211Z" fill="#450B00"/>
<path d="M116.786 48.3929C116.786 48.3929 117.14 48.2056 117.978 48.2131C117.978 48.2131 118.585 48.2393 118.59 48.2524C118.596 48.2656 118.21 48.318 117.888 48.3461C117.566 48.3742 117.429 48.3255 117.421 48.4454C117.414 48.5653 117.446 48.6982 117.339 48.7807C117.221 48.8724 116.934 48.7413 116.786 48.3929Z" fill="#450B00"/>
<path d="M116.449 51.9037C116.449 51.9037 116.71 51.7932 117.062 51.8344C117.414 51.8756 116.616 52.0704 116.449 51.9037Z" fill="#450B00"/>
<path d="M117.135 53.5779C117.135 53.5779 116.902 54.1136 117.17 54.2166C117.438 54.3196 118.33 53.5385 118.337 53.4561C118.345 53.3737 117.135 53.5779 117.135 53.5779Z" fill="#FFAB92"/>
<path d="M117.118 53.2163C117.118 53.2163 116.947 53.6172 117.255 53.5966C117.562 53.576 118.558 53.5085 118.292 53.4074C118.026 53.3062 117.288 53.1639 117.118 53.2163Z" fill="#C35500"/>
<path d="M191.923 54.6582L209.774 59.0993C211.304 59.4795 212.239 61.0248 211.866 62.557L205.825 87.3998C205.466 88.8814 203.965 89.7842 202.488 89.4096L185.467 85.094L191.921 54.6601L191.923 54.6582Z" fill="#FA4F96"/>
<path d="M207.571 78.8753C206.861 79.6039 206.181 80.37 205.417 81.0443C204.628 81.7392 203.767 82.3517 202.858 82.8818C201.071 83.927 199.108 84.6612 197.099 85.1408C196.859 85.1988 196.539 85.2513 196.185 85.3C194.988 85.4629 194.096 84.2492 194.577 83.1422C194.581 83.1328 194.585 83.1253 194.589 83.1159C195.435 81.1623 195.832 79.0439 196.192 76.9554C196.55 74.8837 196.842 72.7821 197.466 70.7686C198.318 68.0207 200.011 65.6325 201.216 63.0383C201.903 61.5548 202.649 60.0976 202.965 58.4774C203.033 58.1308 203.074 57.7843 203.094 57.4359L191.921 54.6562L185.467 85.0902L191.972 86.7404L202.488 89.4076C203.965 89.7823 205.464 88.8794 205.824 87.3978L208.006 78.4276C207.86 78.5775 207.715 78.7273 207.569 78.8753H207.571Z" fill="#9B015D"/>
<path d="M186.971 61.1885L181.728 83.9447L189.653 86.3741C191.103 86.818 192.632 85.9676 193.019 84.501L199.425 60.222C199.946 58.2459 198.73 56.2305 196.739 55.7697L188.938 53.9678L186.969 61.1885H186.971Z" fill="#FA4F96"/>
<path d="M198.547 61.1339C198.524 60.9654 198.298 60.9298 198.226 61.0815C197.545 62.5144 195.525 66.7176 194.681 67.9969C193.806 69.3231 192.796 70.608 192.364 72.1365C192.008 73.3952 192.071 74.7138 191.965 76.0044C191.852 77.3586 191.485 78.726 191.024 80.0016C190.728 80.8501 189.556 80.9418 189.125 80.1533C188.96 79.8536 188.808 79.552 188.668 79.2467C188.389 78.6436 187.552 78.5967 187.205 79.1624C186.756 79.8967 186.4 80.7096 185.868 81.3895C185.776 81.5075 185.671 81.6274 185.527 81.6723C185.383 81.7192 185.223 81.6817 185.072 81.6911C184.54 81.7304 184.281 82.2549 183.83 82.4459C183.202 82.71 182.704 82.2043 182.211 81.8372L181.726 83.9425L190.181 86.533C191.343 86.8889 192.566 86.2071 192.875 85.0345L195.027 76.881C196.149 72.6272 197.273 68.3715 198.395 64.1178C198.706 62.9415 198.631 61.7839 198.545 61.1321L198.547 61.1339Z" fill="#9B015D"/>
<path d="M194.699 70.8978C194.596 71.8925 194.182 72.445 196.209 72.977C199.847 73.9304 200.105 69.7852 197.277 69.5324C196.245 69.4406 194.898 68.9798 194.699 70.8978Z" fill="#D0CDB3"/>
<path d="M194.733 71.3324C194.866 71.3624 194.999 71.3924 195.134 71.4186C195.271 71.4448 195.407 71.4692 195.546 71.4823C195.662 71.4935 195.78 71.4991 195.894 71.4766C195.967 71.4617 196.052 71.4317 196.084 71.3568C196.125 71.2631 196.074 71.1432 196.031 71.0589C195.887 70.7667 195.548 70.6281 195.252 70.5457C195.096 70.5026 194.939 70.4727 194.78 70.4502C194.746 70.5851 194.716 70.7293 194.699 70.8979C194.684 71.0458 194.662 71.1844 194.641 71.3137C194.671 71.3212 194.701 71.3249 194.733 71.3324Z" fill="#D0B863"/>
<path d="M198.593 70.0762C198.616 70.2504 198.631 70.4246 198.629 70.5988C198.629 70.8067 198.607 71.0165 198.558 71.2206C198.511 71.4117 198.44 71.5953 198.337 71.7601C198.234 71.923 198.099 72.0635 197.938 72.1722C197.756 72.2939 197.55 72.3688 197.337 72.4082C197.202 72.4344 197.065 72.4419 196.928 72.4475C196.745 72.4569 196.561 72.4587 196.378 72.4512C196.029 72.44 195.685 72.3988 195.344 72.3295C195.119 72.2845 194.898 72.2227 194.679 72.159C194.834 72.4662 195.246 72.7247 196.209 72.9776C199.124 73.7418 199.867 71.2337 198.593 70.0762Z" fill="#D0B863"/>
<path d="M79.8453 138.043L118.616 150.915H120.694V0.556641L79.8453 13.0014V138.043Z" fill="#450B00"/>
<path d="M77.7943 138.043L118.616 150.915V1.23242L77.7943 13.001V138.043Z" fill="#FA4F96"/>
<path d="M87.465 119.256C87.3657 115.676 87.8734 112.042 88.5177 108.5C89.1246 105.157 89.8869 101.875 89.739 98.4551C89.6153 95.6043 88.986 92.8227 88.3903 90.0412C87.8209 87.3833 87.3358 84.7048 87.3807 81.9757C87.4276 79.1436 88.1431 76.3901 88.6582 73.6124C88.7537 73.0617 88.8455 72.5091 88.9335 71.9566C89.9525 65.073 90.0911 58.1069 90.3683 51.1634C90.4582 48.3781 90.5706 45.5853 90.7972 42.8113C91.0838 39.082 91.5802 35.3714 92.6198 31.7844C94.0864 26.7252 96.4989 21.9732 99.6176 17.7344C104.598 10.9651 111.249 5.59867 118.618 1.60337V1.23438L77.7961 13.003V138.045L100.919 145.337C100.612 144.999 100.309 144.662 100.009 144.32C98.0199 142.044 96.3491 139.478 94.6109 137.009C92.7059 134.302 90.8497 131.523 89.473 128.503C89.0984 127.683 88.7855 126.853 88.5271 126.014C88.3791 125.555 88.248 125.09 88.1356 124.622C87.716 122.858 87.5137 121.061 87.4669 119.258L87.465 119.256Z" fill="#9B015D"/>
<path d="M101.2 69.9335L111.87 69.7686C112.9 69.7536 113.728 68.9126 113.728 67.8824V15.2168C113.728 13.9731 112.546 13.0703 111.345 13.3962L100.676 16.3013C99.8556 16.5242 99.2861 17.2697 99.2861 18.122V68.0454C99.2861 69.0981 100.148 69.9484 101.202 69.9316L101.2 69.9335Z" fill="#D094B0"/>
<path d="M83.7414 69.9361L94.4106 69.7825C95.4426 69.7675 96.2705 68.9284 96.2705 67.8963V19.1061C96.2705 17.8755 95.113 16.9745 93.9198 17.278L83.2507 19.9846C82.4134 20.1962 81.8271 20.9492 81.8271 21.8127V68.0499C81.8271 69.1026 82.6888 69.9511 83.7396 69.9361H83.7414Z" fill="#D094B0"/>
<path d="M100.901 132.488L111.47 135.835C112.491 136.159 113.31 135.592 113.31 134.559V81.8939C113.31 80.6501 112.139 79.3577 110.95 79.2903L100.38 78.6834C99.567 78.6366 99.0013 79.1948 99.0013 80.0451V129.969C99.0013 131.021 99.8555 132.154 100.899 132.486L100.901 132.488Z" fill="#D094B0"/>
<path d="M83.6028 126.743L94.1727 130.101C95.1935 130.425 96.0139 129.857 96.0139 128.827V80.0371C96.0139 78.8064 94.8676 77.5253 93.6857 77.4353L83.1158 76.6299C82.2861 76.5662 81.7073 77.1263 81.7073 77.9898V124.227C81.7073 125.28 82.5595 126.411 83.6028 126.743Z" fill="#D094B0"/>
<path d="M114.273 77.5591C115.595 77.5591 116.667 76.4874 116.667 75.1653C116.667 73.8432 115.595 72.7715 114.273 72.7715C112.951 72.7715 111.879 73.8432 111.879 75.1653C111.879 76.4874 112.951 77.5591 114.273 77.5591Z" fill="#D0CDB3"/>
<path d="M113.981 72.792C112.797 72.9362 111.879 73.9439 111.879 75.1671C111.879 76.3902 112.797 77.396 113.981 77.5421C115.164 77.3979 116.082 76.3902 116.082 75.1671C116.082 73.9439 115.164 72.9381 113.981 72.792Z" fill="#D0B863"/>
<path d="M239.691 36.4638C239.691 36.4638 234.575 46.4267 239.691 49.3881C244.806 52.3494 251.268 52.3494 251.268 52.3494L256.384 41.3095C256.384 41.3095 239.959 39.693 239.689 36.4619L239.691 36.4638Z" fill="#D5DADD"/>
<path d="M211.493 51.7255L223.476 52.4298L226.875 42.7703L213.683 39.4961L211.493 51.7255Z" fill="#D5DADD"/>
<path d="M227.128 57.0078L224.759 67.3267C224.759 67.3267 233.774 67.7799 238.906 72.5432C238.906 72.5432 243.109 63.4756 240.011 61.758L227.126 57.0078H227.128Z" fill="#D5DADD"/>
<path d="M197.709 54.1158H202.907L200.307 48.4609L194.653 50.0755L197.709 54.1158Z" fill="#D5DADD"/>
<path d="M211.42 63.2734L205.069 70.586C205.069 70.586 212.104 76.4731 216.304 76.4731C220.503 76.4731 223.655 70.586 223.655 70.586L211.42 63.2734Z" fill="#D5DADD"/>
<path d="M230.777 51.083L234.19 56.1104L237.417 54.5595L235.306 51.0849C235.306 51.0849 231.831 51.7667 230.775 51.0849L230.777 51.083Z" fill="#D5DADD"/>
<path d="M253.454 57.8379L260.106 63.3373C260.106 63.3373 258.058 68.8367 253.454 68.7093L245.653 62.1872L253.454 57.8379Z" fill="#D5DADD"/>
</svg>
