<svg width="320" height="156" viewBox="0 0 320 156" fill="none" xmlns="http://www.w3.org/2000/svg">
<rect y="13.0566" width="320" height="138" rx="24" fill="#89D1FF"/>
<path d="M106.619 47.0997C106.823 40.9091 107.146 34.7242 107.584 28.5449L102.899 28.0897V12.5L98.1698 13.8224L60 23.9296V138.746L94.8038 148.823C98.7954 149.979 102.933 150.548 107.088 150.513L118.616 150.415C118.616 150.415 100.685 142.496 100.642 141.232C100.603 140.039 100.771 138.84 101.204 137.723C101.667 136.534 102.414 135.478 103.325 134.588C104.469 133.47 105.861 132.612 107.247 131.827C108.706 131.003 110.231 130.293 111.796 129.693C113.291 129.122 114.827 128.654 116.382 128.277V126.329C114.561 123.413 113.164 120.193 111.965 117.065C109.609 110.912 107.687 104.499 106.844 97.9559C105.78 89.7068 106.052 81.3622 106.226 73.07C106.258 71.5285 106.28 69.9869 106.301 68.4473C106.346 64.2141 106.368 59.9828 106.432 55.7515C106.469 52.8688 106.524 49.9842 106.617 47.1016L106.619 47.0997Z" fill="#1B90FF"/>
<path d="M238.442 54.3991C243.557 57.1189 250.019 57.1189 250.019 57.1189L255.135 46.9817C255.135 46.9817 238.709 45.4982 238.44 42.5312C238.44 42.5312 233.324 51.6794 238.44 54.3991H238.442Z" fill="#1B90FF"/>
<path d="M222.915 47.4633L209.725 44.457L207.536 55.6862L219.518 56.3324L222.915 47.4633Z" fill="#1B90FF"/>
<path d="M221.419 72.4093L208.534 68.0469L206.165 77.5228C206.165 77.5228 215.18 77.9405 220.312 82.3123C220.312 82.3123 224.515 73.9846 221.417 72.4093H221.419Z" fill="#1B90FF"/>
<path d="M201.06 55.3016L198.462 50.1094L192.807 51.5929L195.864 55.3016H201.06Z" fill="#1B90FF"/>
<path d="M234.096 54.9925L231.985 51.8008C231.985 51.8008 228.51 52.4283 227.454 51.8008L230.867 56.4161L234.094 54.9906L234.096 54.9925Z" fill="#1B90FF"/>
<path d="M250.89 60.8711L243.089 64.8645L250.89 70.8546C255.494 70.9727 257.541 65.9228 257.541 65.9228L250.89 60.873V60.8711Z" fill="#1B90FF"/>
<path d="M77.7943 12.501L134.178 18.4593V138.73H202.898C207.828 138.73 208.731 145.752 203.962 147L179.565 153.383C166.661 156.759 153.113 156.796 140.191 153.494L77.7962 137.543V12.501H77.7943Z" fill="#FFF8D6"/>
<path d="M203.229 66.8507L203.439 66.0621C203.812 64.6554 202.877 63.2356 201.347 62.8872L189.091 60.0888C188.848 59.9802 188.589 59.8922 188.314 59.8322L183.498 58.8114L180.513 58.1783L178.544 64.809L178.22 66.0977C177.722 66.1164 175.714 66.2588 173.953 67.3002C173.485 67.0754 173.037 66.8376 172.524 66.7008C172.065 66.5791 171.597 66.5454 171.127 66.4873C170.169 66.3318 169.255 66.1857 168.461 66.0565L169.16 64.6498C169.16 64.6498 169.12 64.6329 169.051 64.603C169.047 64.603 169.046 64.5992 169.042 64.5992C169.036 64.5973 169.032 64.5955 169.027 64.5936C167.397 63.8781 151.017 56.7341 145.392 56.4475C141.447 56.2452 138.07 55.762 135.796 55.2656C135.575 57.0488 135.362 58.832 135.163 60.617C134.68 65.0038 134.294 69.4018 134.114 73.8111C133.933 78.2896 134.024 82.7588 134.255 87.2336C134.318 88.468 134.395 89.7023 134.474 90.9348C134.614 93.0683 134.755 95.1999 134.839 97.3352C134.888 98.5171 134.923 99.7009 134.933 100.887C134.935 101.19 134.946 101.492 134.963 101.791C135.909 101.405 136.84 101.014 137.731 100.628C139.473 107.607 142.802 118.145 147.462 120.56C147.462 120.56 149.547 122.056 152.914 121.067C156.282 120.078 177.709 114.262 179.46 114.262C179.761 114.262 179.883 113.998 179.876 113.56C181.644 113.384 183.564 113.552 185.148 113.796C187.147 114.103 188.908 115.169 190.052 116.703C192.731 120.294 193.913 119.887 193.913 119.887C194.115 113.766 185.428 107.088 184.721 106.624C184.015 106.159 185.933 105.232 185.933 105.232L182.399 101.67L176.883 106.034C176.667 105.684 176.484 105.429 176.352 105.309C176.352 105.309 176.352 105.309 176.351 105.307C176.336 105.294 176.322 105.283 176.309 105.273C176.309 105.273 176.306 105.27 176.304 105.27C176.291 105.26 176.279 105.253 176.268 105.247L176.264 105.245C176.251 105.24 176.24 105.234 176.229 105.232C176.208 105.228 176.186 105.226 176.161 105.228C175.787 105.245 175.124 105.88 174.371 106.523C174.23 106.643 174.086 106.764 173.94 106.88C173.46 107.264 172.962 107.605 172.49 107.765C172.387 107.8 172.286 107.826 172.187 107.841C171.868 107.892 171.186 107.95 170.282 108.016C170.252 108.017 170.22 108.019 170.19 108.023C169.754 108.055 169.268 108.089 168.75 108.126C168.628 108.135 168.506 108.143 168.381 108.152C168.18 108.167 167.974 108.182 167.764 108.197C167.629 108.207 167.495 108.216 167.358 108.227C167.24 108.237 167.12 108.244 167 108.253C166.669 108.278 166.331 108.304 165.991 108.33C165.887 108.338 165.783 108.347 165.678 108.355C165.511 108.368 165.342 108.381 165.174 108.396C164.795 108.428 164.415 108.459 164.037 108.493C163.754 108.519 163.471 108.546 163.192 108.572C163.031 108.587 162.87 108.604 162.711 108.621C162.224 108.671 161.748 108.722 161.293 108.778C161.263 108.782 161.233 108.785 161.203 108.789C161.061 108.806 160.922 108.825 160.783 108.842C160.763 108.843 160.742 108.847 160.72 108.849C159.682 108.986 158.775 109.141 158.11 109.315C157.723 109.417 157.348 109.518 156.988 109.613C156.663 109.701 156.35 109.787 156.052 109.87C155.838 109.93 155.632 109.986 155.434 110.042C155.368 110.061 155.303 110.08 155.239 110.097C155.164 110.117 155.089 110.14 155.016 110.16C153.461 110.604 152.512 110.902 152.512 110.902C152.512 110.902 152.512 110.896 152.512 110.894C152.512 110.891 152.512 110.887 152.512 110.878C152.512 110.872 152.512 110.868 152.512 110.861C152.512 110.853 152.512 110.846 152.512 110.836C152.575 109.937 153.216 100.068 151.159 98.1799C151.159 98.1799 154.415 93.1975 151.648 88.9269C153.842 88.2957 158.395 82.0096 158.395 82.0096C158.395 82.0096 157.532 81.5675 156.226 80.9045C156.082 80.8314 155.93 80.7546 155.775 80.6759C155.698 80.6366 155.617 80.5973 155.539 80.5561C155.379 80.4755 155.215 80.3912 155.046 80.3069C154.962 80.2639 154.876 80.2208 154.791 80.1777C151.345 78.4338 146.419 75.9689 144.662 75.229C144.654 75.2252 144.645 75.2196 144.635 75.2178C144.559 75.184 144.48 75.1466 144.403 75.1054C144.371 75.0885 144.339 75.0679 144.308 75.0492C144.253 75.0173 144.199 74.9874 144.145 74.9518C144.109 74.9293 144.074 74.9031 144.038 74.8769C143.987 74.8413 143.937 74.8076 143.886 74.7701C143.849 74.742 143.811 74.712 143.774 74.6821C143.725 74.6446 143.676 74.6053 143.628 74.5659C143.59 74.5341 143.551 74.4985 143.513 74.4648C143.467 74.4217 143.418 74.3805 143.371 74.3355C143.334 74.2999 143.296 74.2625 143.259 74.225C143.212 74.1782 143.165 74.1332 143.118 74.0845C143.081 74.0452 143.043 74.0059 143.006 73.9647C142.959 73.9141 142.912 73.8654 142.867 73.8129C142.83 73.7717 142.792 73.7268 142.755 73.6837C142.71 73.6312 142.663 73.5788 142.618 73.5226C142.581 73.4777 142.545 73.4327 142.508 73.3859C142.463 73.3297 142.418 73.2735 142.373 73.2173C142.335 73.1705 142.3 73.1218 142.264 73.0749C142.219 73.0169 142.176 72.9588 142.133 72.8989C142.097 72.8502 142.062 72.7996 142.024 72.749C141.981 72.6891 141.938 72.6273 141.895 72.5655C141.86 72.513 141.824 72.4624 141.788 72.41C141.747 72.3482 141.704 72.2864 141.663 72.2227C141.627 72.1684 141.592 72.1159 141.558 72.0616C141.517 71.9979 141.477 71.9342 141.436 71.8705C141.401 71.8144 141.367 71.76 141.333 71.7038C141.294 71.6402 141.256 71.5765 141.217 71.5128C141.183 71.4547 141.148 71.3985 141.114 71.3405C141.077 71.2787 141.041 71.215 141.005 71.1513C140.972 71.0913 140.936 71.0314 140.902 70.9715C140.869 70.9097 140.835 70.8497 140.801 70.7879C140.768 70.7261 140.732 70.6624 140.698 70.6006C140.666 70.5425 140.636 70.4845 140.605 70.4245C140.569 70.359 140.535 70.2915 140.502 70.226C140.473 70.1717 140.445 70.1173 140.419 70.063C140.384 69.9937 140.348 69.9225 140.312 69.8532C140.288 69.8045 140.266 69.7577 140.243 69.709C140.206 69.6322 140.168 69.5573 140.133 69.4824C140.114 69.4449 140.097 69.4074 140.08 69.37C140.041 69.2857 140 69.2014 139.962 69.1171C139.951 69.0946 139.941 69.0722 139.932 69.0497C139.357 67.7816 138.964 66.6353 138.849 65.9628C138.834 65.8767 138.823 65.7961 138.818 65.7268C138.791 65.3822 139.651 65.2286 141.084 65.2436C142.558 65.2604 144.641 65.4552 146.994 65.8092C147.003 65.8092 147.012 65.813 147.024 65.813C147.151 65.8317 147.28 65.8523 147.409 65.8729C147.43 65.8767 147.449 65.8785 147.469 65.8823C147.87 65.946 148.279 66.0115 148.693 66.0846C148.702 66.0846 148.713 66.0883 148.723 66.0902C148.835 66.1089 148.947 66.1295 149.062 66.1501C149.114 66.1595 149.166 66.1689 149.219 66.1782C149.324 66.197 149.429 66.2157 149.534 66.2363C149.594 66.2475 149.653 66.2588 149.715 66.27C149.818 66.2887 149.921 66.3094 150.024 66.3281C150.086 66.3393 150.146 66.3524 150.208 66.3637C150.382 66.3974 150.556 66.4311 150.732 66.4667C150.815 66.4835 150.895 66.4985 150.978 66.5154C151.064 66.5322 151.152 66.551 151.238 66.5697C151.324 66.5866 151.41 66.6053 151.495 66.6222C151.579 66.639 151.663 66.6577 151.748 66.6746C151.843 66.6952 151.939 66.7158 152.034 66.7364C152.109 66.7533 152.184 66.7683 152.261 66.7851C152.424 66.8207 152.589 66.8582 152.752 66.8938C152.802 66.905 152.851 66.9162 152.901 66.9275C153.025 66.9556 153.15 66.9837 153.274 67.0136C153.34 67.0286 153.407 67.0455 153.473 67.0605C153.585 67.0867 153.696 67.1129 153.808 67.141C153.872 67.156 153.937 67.1728 154.001 67.1878C154.125 67.2178 154.246 67.2478 154.37 67.2796C154.42 67.2927 154.471 67.304 154.522 67.3171C154.694 67.3602 154.866 67.4051 155.039 67.4501C155.067 67.4576 155.097 67.465 155.125 67.4725C155.269 67.51 155.413 67.5493 155.556 67.5868C155.608 67.6018 155.66 67.6149 155.715 67.6299C155.838 67.6636 155.962 67.6973 156.084 67.731C156.136 67.746 156.189 67.761 156.241 67.7741C156.38 67.8134 156.516 67.8528 156.653 67.8921C156.687 67.9015 156.719 67.9108 156.752 67.9202C156.925 67.9708 157.097 68.0214 157.268 68.0719C157.29 68.0794 157.313 68.085 157.335 68.0925C157.479 68.1356 157.623 68.1806 157.768 68.2255C157.814 68.2405 157.859 68.2536 157.906 68.2686C158.03 68.3079 158.155 68.3473 158.277 68.3866C158.322 68.4016 158.367 68.4166 158.412 68.4297C158.554 68.4765 158.695 68.5233 158.835 68.5702C158.856 68.5777 158.877 68.5833 158.897 68.5908C159.062 68.647 159.225 68.7032 159.388 68.7594C159.414 68.7687 159.438 68.7781 159.465 68.7856C159.598 68.8324 159.729 68.8792 159.86 68.9261C159.903 68.941 159.946 68.9579 159.989 68.9729C160.105 69.016 160.221 69.059 160.336 69.1021C160.377 69.1171 160.418 69.134 160.459 69.149C160.596 69.2014 160.731 69.2538 160.864 69.3063C160.879 69.3119 160.894 69.3175 160.909 69.3231C161.061 69.3831 161.209 69.4449 161.356 69.5048C161.385 69.5161 161.415 69.5292 161.443 69.5404C161.557 69.5891 161.671 69.6378 161.785 69.6865C161.827 69.7053 161.868 69.7221 161.907 69.7408C162.01 69.7858 162.113 69.8326 162.214 69.8795C162.252 69.8963 162.289 69.9132 162.327 69.93C162.452 69.9881 162.576 70.0462 162.698 70.1042C162.707 70.108 162.716 70.1136 162.726 70.1173C162.859 70.181 162.988 70.2466 163.115 70.3121C163.145 70.3271 163.173 70.3421 163.203 70.3571C163.299 70.4058 163.394 70.4564 163.488 70.5069C163.526 70.5275 163.563 70.5481 163.6 70.5669C163.688 70.6156 163.775 70.6624 163.859 70.7111C163.893 70.7298 163.926 70.7486 163.958 70.7673C164.071 70.8329 164.179 70.8965 164.286 70.9621C164.288 70.9621 164.292 70.9658 164.293 70.9677C164.404 71.0351 164.511 71.1045 164.616 71.1738C164.644 71.1925 164.672 71.2112 164.698 71.23C164.773 71.2805 164.848 71.3311 164.921 71.3817C164.953 71.4042 164.985 71.4266 165.017 71.4491C165.086 71.4997 165.155 71.5502 165.221 71.6008C165.247 71.6214 165.275 71.642 165.301 71.6608C165.391 71.7319 165.481 71.8012 165.565 71.8743L166.59 69.8102C166.601 69.8176 166.614 69.8251 166.625 69.8308V69.8439C166.625 69.8439 166.751 69.9169 166.925 70.0181C167.392 70.5631 168.491 71.8106 169.032 72.0803C169.503 72.3145 170.417 72.7172 171.16 72.9644C171.406 74.6821 172.456 75.9632 173.393 76.7893C174.33 77.6546 175.199 78.1117 175.199 78.1117L173.661 84.2423L173.294 85.7033L177.87 86.992L181.219 87.9342L181.749 88.084C182.127 88.1908 182.511 88.1945 182.869 88.1158L194.055 90.7213C194.587 90.8449 195.121 90.815 195.604 90.6651C196.044 90.5284 196.441 90.2924 196.756 89.9777C196.765 89.9683 196.773 89.959 196.782 89.9496C197.069 89.6536 197.284 89.2903 197.393 88.8782L200.753 76.188C203.023 77.5235 205.792 78.8459 207.869 78.8459C212.07 78.8459 215.221 73.4402 215.221 73.4402L203.224 66.8563L203.229 66.8507ZM175.652 76.3248C175.195 76.1 173.178 75.0267 172.593 73.2697C172.966 73.384 173.23 73.5507 173.296 73.5095C173.365 73.4645 173.781 73.1574 173.5 72.779C173.695 72.8127 173.865 72.8427 173.981 72.8708C174.03 72.882 174.071 72.8933 174.099 72.9026C174.343 72.9907 174.575 72.749 174.698 72.5879C174.728 72.5486 174.753 72.513 174.764 72.4831C174.839 72.3782 174.914 72.2583 174.987 72.1215C175.287 71.5559 174.612 71.4697 174.612 71.4697C174.612 71.4697 174.655 71.4641 174.723 71.436C174.723 71.436 174.725 71.436 174.727 71.436C174.743 71.4285 174.76 71.421 174.779 71.4098C174.781 71.4098 174.785 71.406 174.787 71.406C174.803 71.3967 174.818 71.3873 174.837 71.3761C174.843 71.3723 174.846 71.3704 174.852 71.3667C174.873 71.3536 174.893 71.3386 174.914 71.3199C174.918 71.3161 174.921 71.3124 174.925 71.3105C174.944 71.2955 174.961 71.2787 174.979 71.2599C174.985 71.2543 174.993 71.2468 174.998 71.2412C175.021 71.2187 175.043 71.1944 175.066 71.1663C175.068 71.1625 175.071 71.1588 175.073 71.155C175.094 71.1307 175.114 71.1026 175.133 71.0726C175.139 71.0633 175.146 71.0539 175.152 71.0445C175.174 71.0108 175.197 70.9733 175.219 70.934C175.24 70.8947 175.255 70.8572 175.266 70.8216C175.266 70.8179 175.268 70.8141 175.27 70.8104C175.333 70.5856 175.208 70.4264 175.081 70.3309C175.041 70.3009 175.002 70.2766 174.968 70.2578C174.966 70.2578 174.964 70.2559 174.961 70.2541C174.946 70.2466 174.931 70.2391 174.92 70.2335C174.951 70.2447 174.996 70.2541 175.049 70.2447C175.06 70.2447 175.069 70.241 175.081 70.2372C175.187 70.2054 175.313 70.0892 175.392 69.7577C175.392 69.7558 175.392 69.7521 175.392 69.7502C175.401 69.7109 175.407 69.6753 175.41 69.6397C175.41 69.6247 175.41 69.6135 175.412 69.5985C175.412 69.576 175.416 69.5554 175.414 69.5348C175.414 69.5179 175.41 69.5048 175.41 69.4899C175.41 69.4749 175.408 69.458 175.405 69.443C175.401 69.4262 175.397 69.4112 175.393 69.3962C175.39 69.385 175.388 69.3737 175.384 69.3625C175.378 69.3456 175.371 69.3306 175.363 69.3138C175.36 69.3063 175.358 69.2988 175.354 69.2913C175.345 69.2745 175.335 69.2595 175.324 69.2445C175.322 69.2407 175.319 69.237 175.317 69.2332C175.304 69.2164 175.29 69.2014 175.277 69.1883C175.277 69.1883 175.274 69.1845 175.274 69.1827C175.126 69.0328 174.916 69.0085 174.916 69.0085C175.3 68.735 175.335 68.3323 175.259 68.0794C175.251 68.0569 175.245 68.0363 175.236 68.0176C175.236 68.0139 175.232 68.0101 175.23 68.0064C175.223 67.9914 175.217 67.9764 175.21 67.9633C175.208 67.9595 175.204 67.9558 175.202 67.9502C176.345 67.1897 177.491 66.9069 177.999 66.9743L175.654 76.3266L175.652 76.3248Z" fill="#1B90FF"/>
<path d="M175.142 66.085C175.142 66.085 176.768 68.2315 177.466 68.6099C178.165 68.9882 179.842 69.7749 180.484 69.803C181.127 69.8311 181.63 70.2357 181.724 70.1702C181.818 70.1046 182.524 69.5333 181.381 68.9452C180.239 68.3589 175.142 66.085 175.142 66.085Z" fill="#FF7F4C"/>
<path d="M102.09 123.817C102.09 123.817 97.8851 126.147 96.1862 123.817C94.4873 121.486 89.6716 116.294 89.6716 117.804C89.6716 119.314 90.8985 127.244 94.7701 129.415C98.6399 131.586 99.3067 131.586 98.595 132.719C97.8851 133.853 97.945 133.57 97.945 133.57L102.369 137.571L107.52 131.723C107.52 131.723 107.794 131.419 107.279 129.722C106.764 128.025 102.09 123.818 102.09 123.818V123.817Z" fill="#00144A"/>
<path d="M107.842 64.2881L105.162 70.694C105.162 70.694 114.732 74.0356 118.339 75.2213C121.947 76.407 131.194 70.2277 131.194 70.2277L127.309 63.374C127.309 63.374 121.583 66.0319 119.105 68.3845L107.842 64.2862V64.2881Z" fill="#0070F2"/>
<path d="M127.308 63.376C127.308 63.376 124.472 64.6928 121.926 66.2943C122.61 67.0735 123.264 67.892 123.756 68.8042C124.003 69.2631 124.211 69.7538 124.311 70.2689C124.406 70.7616 124.378 71.2448 124.225 71.7225C124.078 72.1757 123.85 72.7246 123.383 72.9287C123.029 73.0842 122.636 72.9718 122.306 72.8107C121.426 72.3818 120.759 71.6176 119.888 71.1718C119.851 71.2692 119.81 71.3628 119.759 71.4546C119.576 71.7918 119.296 72.0615 118.941 72.2095C118.581 72.3593 118.18 72.3818 117.796 72.3499C116.953 72.2806 116.15 71.9735 115.355 71.7037C114.144 71.2935 112.928 70.8927 111.701 70.5312C110.478 70.1715 109.24 69.8587 107.983 69.6396C107.234 69.5085 106.479 69.4167 105.72 69.3586L105.16 70.696C105.16 70.696 114.73 74.0376 118.337 75.2233C121.945 76.4089 131.192 70.2296 131.192 70.2296L127.308 63.376Z" fill="#0040B0"/>
<path d="M184.56 106.223L190.822 100.828L194.357 104.709C194.357 104.709 192.437 105.719 193.145 106.224C193.851 106.73 202.538 114.002 202.336 120.668C202.336 120.668 201.154 121.112 198.476 117.199C197.331 115.526 195.57 114.365 193.572 114.032C191.584 113.7 189.065 113.492 186.982 114L184.558 114.706L183.144 107.139L184.558 106.221L184.56 106.223Z" fill="#00144A"/>
<path d="M166.826 79.4131C166.826 79.4131 162.115 86.4971 159.969 86.9804C157.822 87.4636 156.41 85.9745 156.41 85.9745V77.6992L166.826 79.415V79.4131Z" fill="#00144A"/>
<path d="M144.767 92.7725C144.767 92.7725 148.779 117.389 155.889 121.401C155.889 121.401 157.974 123.032 161.342 121.953C164.709 120.874 186.136 114.541 187.887 114.541C189.638 114.541 185.327 104.839 184.652 104.704C183.978 104.569 182.092 107.289 180.61 107.545C179.128 107.802 169.84 108.207 166.534 109.151C163.228 110.095 160.937 110.88 160.937 110.88C160.937 110.88 161.746 99.1803 159.59 97.0244C159.59 97.0244 165.654 86.9191 154.2 82.4723C142.746 78.0256 144.765 92.7743 144.765 92.7743L144.767 92.7725Z" fill="#0040B0"/>
<path d="M158.717 119.425C157.462 118.114 156.335 116.673 155.365 115.139C154.924 114.442 154.518 113.725 154.16 112.983C153.855 112.35 153.615 111.7 153.379 111.039C152.694 109.115 152.263 107.094 152.149 105.053C152.077 103.794 152.154 102.52 152.446 101.295C152.377 101.009 152.289 100.728 152.16 100.464C151.976 100.091 151.721 99.7762 151.455 99.4615C150.907 98.8134 150.36 98.1447 150.019 97.3618C149.88 97.0452 149.787 96.723 149.723 96.384C149.657 96.03 149.62 95.6741 149.573 95.3182C149.485 94.6289 149.384 93.8741 148.947 93.3084C148.914 93.3477 148.886 93.3908 148.861 93.4377C148.854 93.4508 148.833 93.4508 148.828 93.4377C148.488 92.7615 148.046 92.1415 147.541 91.5795C146.696 90.643 145.688 89.8769 144.666 89.1445C144.544 91.1506 144.767 92.7746 144.767 92.7746C144.767 92.7746 148.779 117.391 155.889 121.403C155.889 121.403 157.974 123.034 161.342 121.955C161.39 121.94 161.443 121.924 161.497 121.907C160.499 121.165 159.573 120.324 158.717 119.429V119.425Z" fill="#00144A"/>
<path d="M160.813 100.829C160.723 102.322 160.504 103.804 160.308 105.285C160.081 106.988 159.884 108.715 160.002 110.434C160.04 110.979 160.105 111.536 160.289 112.055C160.409 112.392 160.589 112.727 160.883 112.944C161.458 113.368 162.252 113.184 162.878 112.989C163.896 112.671 164.863 112.191 165.839 111.768C166.17 111.624 166.498 111.493 166.845 111.39C167.309 111.251 167.779 111.135 168.255 111.041C169.139 110.865 170.035 110.764 170.934 110.712C171.848 110.657 172.766 110.653 173.682 110.659C174.506 110.665 175.337 110.712 176.16 110.665C177.237 110.605 178.293 110.329 179.353 110.144C179.853 110.056 180.357 109.981 180.865 109.962C181.283 109.947 181.719 109.97 182.114 110.118C182.453 110.245 182.74 110.472 182.916 110.79C183.077 111.082 183.139 111.416 183.156 111.751C183.257 111.037 183.54 110.344 183.547 109.62C183.547 109.608 183.556 109.599 183.568 109.599C183.867 109.599 184.171 109.599 184.465 109.67C184.532 109.687 184.598 109.706 184.663 109.728C184.746 109.758 184.813 109.824 184.877 109.734C184.957 109.619 184.993 109.44 185.04 109.309C185.248 108.724 185.401 108.123 185.525 107.516C185.602 107.134 185.664 106.748 185.722 106.362C185.237 105.399 184.826 104.74 184.654 104.705C183.98 104.57 182.094 107.289 180.612 107.546C179.13 107.803 169.842 108.207 166.536 109.151C163.23 110.095 160.939 110.88 160.939 110.88C160.939 110.88 161.343 105.019 160.815 100.829H160.813Z" fill="#0070F2"/>
<path d="M142.481 84.385C142.481 84.385 121.244 96.2379 117.779 102.073C114.314 107.907 109.938 117.207 107.569 117.936C105.198 118.664 102.463 121.036 98.6344 120.124C98.6344 120.124 103.375 131.793 107.387 131.793C107.387 131.793 125.813 112.099 127.45 107.358C127.45 107.358 146.52 100.43 152.482 96.236C158.444 92.0422 160.709 82.3358 157.462 79.5131C154.215 76.6904 142.483 84.3831 142.483 84.3831L142.481 84.385Z" fill="#0040B0"/>
<path d="M118.392 103.155C119.051 102.352 119.722 101.556 120.437 100.803C121.175 100.027 121.973 99.3436 122.803 98.6711C126.371 95.7809 130.788 94.3349 134.615 91.8662C136.441 90.688 138.22 89.3881 140.224 88.519C141.107 88.1369 142.038 87.8428 143 87.751C143.967 87.6592 144.939 87.796 145.87 88.0601C147.696 88.5789 149.382 89.5511 151.276 89.8301C153.259 90.1242 155.406 89.5623 157.187 88.6913C157.534 88.5227 157.865 88.3336 158.189 88.135C159.356 84.5555 159.21 81.036 157.461 79.5151C154.213 76.6923 142.481 84.3851 142.481 84.3851C142.481 84.3851 121.244 96.238 117.779 102.073C116.875 103.597 115.906 105.36 114.928 107.143C116.176 105.901 117.275 104.515 118.392 103.157V103.155Z" fill="#00144A"/>
<path d="M151.418 94.8462C150.768 94.5652 150.167 94.2974 149.996 94.2562C148.436 93.8834 146.799 94.0033 145.214 94.1307C142.736 94.3292 140.157 94.569 138.038 95.8689C136.675 96.7062 135.598 97.9255 134.444 99.0344C132.526 100.876 130.361 101.458 128.004 102.526C126.881 103.035 125.774 103.489 124.582 103.801C123.588 104.062 122.475 104.363 121.851 105.251C121.274 106.073 121.6 107.077 121.909 107.928C122.031 108.263 122.155 108.61 122.173 108.969C122.192 109.299 122.108 109.644 122.031 109.962C121.636 111.571 120.608 113.032 119.65 114.353C118.639 115.75 117.528 117.067 116.468 118.426C115.884 119.176 115.339 119.946 114.692 120.646C114.072 121.32 113.394 121.942 112.664 122.495C109.955 124.538 106.584 125.404 103.227 124.889C102.309 124.748 101.414 124.514 100.547 124.207C102.296 127.573 104.973 131.795 107.387 131.795C107.387 131.795 125.813 112.101 127.45 107.36C127.45 107.36 146.52 100.432 152.482 96.2379C152.793 96.0187 153.092 95.7809 153.383 95.5336C153.269 95.631 152.3 95.2264 151.42 94.8462H151.418Z" fill="#0070F2"/>
<path d="M186.767 62.0869C186.767 62.0869 180.923 62.1 179.726 67.178C178.531 72.2578 183.392 74.9419 183.392 74.9419L183.989 73.3067C183.989 73.3067 179.842 71.1751 181.086 67.5694C182.33 63.9637 185.746 62.8155 186.535 63.0722L186.767 62.0869Z" fill="#DF1278"/>
<path d="M181.086 67.5703C181.475 66.439 182.08 65.5493 182.751 64.8694C182.685 64.7645 182.618 64.6596 182.552 64.5547C182.367 64.2587 182.185 63.9609 182.005 63.6631C180.996 64.4179 180.115 65.5306 179.726 67.1807C178.531 72.2606 183.631 75.1807 183.631 75.1807L184.174 73.2851C184.174 73.2851 179.84 71.1779 181.086 67.5722V67.5703Z" fill="#9B015D"/>
<path d="M182.528 69.5088C182.283 69.4133 180.962 69.2278 180.576 69.0911C180.19 68.9525 179.406 68.6116 179.276 68.531C179.149 68.4505 178.531 68.177 178.132 68.0253C177.892 67.9354 177.622 67.7724 177.416 67.6301C177.368 67.6038 177.319 67.5757 177.267 67.5458C175.585 66.5399 173.32 65.0209 173.32 65.0209L173.844 62.1569L174.204 61.5781C174.204 61.5781 176.692 62.0146 179.552 62.5165C180.022 62.5802 180.492 62.6158 180.949 62.7488C181.489 62.9043 181.955 63.1815 182.448 63.4362C182.813 63.6254 183.18 63.8127 183.54 64.0094C183.727 64.1124 183.899 64.8354 183.345 65.2644C183.345 65.2644 183.98 65.343 183.821 66.0792C183.697 66.6561 183.452 66.6336 183.35 66.5961C183.487 66.6654 183.877 66.9127 183.652 67.3603C183.38 67.8998 183.041 67.9447 183.041 67.9447C183.041 67.9447 183.714 68.0365 183.416 68.6547C183.116 69.2709 182.772 69.6024 182.528 69.505V69.5088Z" fill="#FFAB92"/>
<path d="M183.304 65.2326C183.229 65.2157 183.156 65.1895 183.084 65.1614C183.006 65.1296 182.933 65.0865 182.86 65.0434C182.787 65.0003 182.715 64.9573 182.64 64.9217C182.567 64.8861 182.492 64.858 182.419 64.8261C182.346 64.7943 182.273 64.7625 182.208 64.7156C182.182 64.6969 182.153 64.6763 182.133 64.6501C182.118 64.6313 182.105 64.607 182.112 64.5845C182.12 64.5583 182.152 64.5433 182.176 64.5377C182.202 64.5321 182.228 64.5358 182.253 64.5414C182.311 64.5545 182.363 64.5845 182.414 64.6107C182.459 64.6351 182.504 64.6576 182.554 64.6726C182.612 64.6894 182.67 64.7025 182.728 64.7119C182.858 64.7344 182.994 64.7494 183.126 64.7269C183.182 64.7175 183.236 64.7007 183.283 64.6688C183.337 64.6313 183.382 64.5845 183.42 64.5283C183.489 64.4216 183.519 64.2886 183.506 64.1612C183.498 64.09 183.478 64.0207 183.446 63.957C183.491 63.9814 183.525 64.0001 183.543 64.0095C183.727 64.1106 183.895 64.8093 183.373 65.242C183.35 65.2382 183.328 65.2364 183.305 65.2307L183.304 65.2326Z" fill="#FF7F4C"/>
<path d="M183.573 66.7606C183.515 66.7531 183.459 66.7418 183.403 66.725C183.307 66.6969 183.215 66.6594 183.126 66.6145C182.946 66.5264 182.777 66.4178 182.599 66.3241C182.511 66.2773 182.419 66.2342 182.324 66.2024C182.277 66.1855 182.228 66.1706 182.178 66.1593C182.138 66.1499 182.101 66.1462 182.062 66.1462C182.02 66.1462 181.981 66.1481 181.94 66.1462C181.906 66.1462 181.869 66.1406 181.841 66.12C181.829 66.1106 181.818 66.0975 181.816 66.0806C181.813 66.0582 181.816 66.0338 181.816 66.0113C181.816 65.987 181.813 65.9664 181.803 65.9439C181.794 65.9214 181.781 65.9008 181.771 65.8783C181.781 65.8746 181.788 65.8709 181.799 65.8709C181.829 65.8709 181.859 65.8896 181.884 65.9046C181.916 65.9252 181.944 65.9477 181.974 65.9701C182 65.9889 182.026 66.0095 182.054 66.0245C182.073 66.0338 182.094 66.0376 182.114 66.0432C182.142 66.0507 182.172 66.0563 182.2 66.0638C182.316 66.0881 182.436 66.1012 182.554 66.1106C182.607 66.1144 182.661 66.1144 182.714 66.1218C182.757 66.1275 182.802 66.1368 182.845 66.1462C182.929 66.1649 183.015 66.1855 183.101 66.1912C183.187 66.1968 183.275 66.1837 183.354 66.1462C183.431 66.1087 183.5 66.0507 183.556 65.987C183.609 65.9252 183.652 65.854 183.678 65.7772C183.702 65.7023 183.712 65.6217 183.701 65.5449C183.693 65.4962 183.678 65.4513 183.658 65.4082C183.791 65.5225 183.899 65.7229 183.822 66.0806C183.699 66.6576 183.453 66.6351 183.352 66.5976C183.405 66.6257 183.496 66.6782 183.575 66.7606H183.573Z" fill="#FF7F4C"/>
<path d="M182.854 67.918C182.762 67.9106 182.67 67.8993 182.58 67.8825C182.491 67.8656 182.403 67.8431 182.316 67.8169C182.142 67.7663 181.972 67.7026 181.799 67.6446C181.775 67.6371 181.753 67.6296 181.726 67.624C181.698 67.6184 181.67 67.6127 181.642 67.6071C181.616 67.6015 181.588 67.594 181.563 67.5809C181.545 67.5715 181.532 67.5565 181.533 67.5359C181.535 67.5135 181.56 67.5022 181.578 67.4947C181.605 67.4854 181.633 67.4835 181.661 67.4835C181.687 67.4835 181.713 67.4835 181.739 67.4854C181.788 67.4872 181.837 67.491 181.886 67.4947C182.08 67.5078 182.275 67.5303 182.47 67.5528C182.552 67.5622 182.639 67.564 182.721 67.5659C182.805 67.5659 182.89 67.5659 182.974 67.5565C183.056 67.5472 183.139 67.5303 183.217 67.5041C183.257 67.491 183.294 67.4741 183.33 67.4554C183.369 67.4329 183.405 67.4086 183.44 67.3823C183.541 67.3056 183.629 67.2119 183.717 67.1201C183.716 67.195 183.695 67.2756 183.65 67.3674C183.451 67.7626 183.215 67.8918 183.105 67.933C183.021 67.933 182.936 67.9274 182.852 67.9218L182.854 67.918Z" fill="#FF7F4C"/>
<path d="M177.733 66.0585C177.87 66.1466 177.991 66.2552 178.089 66.3882C178.248 66.6055 178.375 66.8434 178.525 67.0681C178.598 67.1787 178.675 67.2873 178.765 67.3847C178.857 67.484 178.95 67.5776 179.05 67.6694C179.245 67.8492 179.458 68.0103 179.683 68.1489C180.052 68.3774 180.449 68.5591 180.857 68.7033C181.052 68.7726 181.252 68.8232 181.449 68.8869C181.646 68.9506 181.865 69.0199 182.082 69.0012C182.251 68.9862 182.41 68.9225 182.577 68.8925C182.742 68.8644 182.914 68.87 183.077 68.9131C183.253 68.96 183.214 69.0386 183.126 69.1641C183.002 69.3402 182.77 69.6024 182.526 69.5069C182.281 69.4114 180.96 69.2259 180.574 69.0892C180.189 68.9506 179.404 68.6097 179.275 68.5291C179.145 68.4486 178.529 68.1751 178.13 68.0234C177.731 67.8717 176.403 67.0176 176.248 66.9202C176.032 66.7853 175.054 66.1747 175.054 66.1747L175.32 64.6725C175.585 64.6406 177.518 65.9181 177.733 66.0567V66.0585Z" fill="#FF7F4C"/>
<path d="M181.959 65.5392C181.888 65.5523 181.814 65.5542 181.743 65.5598C181.711 65.5636 181.678 65.5673 181.648 65.5767C181.61 65.5879 181.578 65.6198 181.554 65.6479C181.53 65.6778 181.511 65.7115 181.492 65.7453C181.477 65.7734 181.462 65.8015 181.442 65.8258C181.427 65.8445 181.406 65.8539 181.384 65.8595C181.363 65.8633 181.342 65.8614 181.322 65.8595C181.279 65.8502 181.239 65.8239 181.208 65.794C181.108 65.7022 181.028 65.5317 181.037 65.395C181.039 65.3575 181.05 65.3219 181.073 65.292C181.093 65.2676 181.121 65.2526 181.15 65.2414C181.217 65.2152 181.292 65.2114 181.365 65.2133C181.618 65.2227 182.054 65.2451 182.099 65.4306C182.11 65.4737 182.021 65.528 181.959 65.5392ZM181.326 68.613C181.262 68.7029 181.024 68.6242 180.884 68.5661C180.745 68.5081 180.619 68.4144 180.522 68.2983C180.427 68.184 180.355 68.0492 180.325 67.9031C180.301 67.7776 180.292 67.6464 180.301 67.5209C180.307 67.4254 180.329 67.3318 180.338 67.2344C180.348 67.1313 180.35 67.0265 180.35 66.9216C180.35 66.8747 180.35 66.8279 180.357 66.7811C180.365 66.7343 180.383 66.6893 180.417 66.6556C180.449 66.6237 180.492 66.605 180.535 66.5919C180.812 66.5132 181.099 66.6481 181.374 66.6593C181.432 66.6612 181.49 66.6631 181.55 66.6668C181.623 66.6706 181.696 66.6762 181.77 66.6856C181.839 66.6949 181.908 66.7043 181.974 66.7249C182.022 66.7399 182.075 66.7586 182.11 66.7961C182.142 66.8298 182.144 66.8729 182.124 66.9141C182.094 66.9703 182.034 67.0058 181.976 67.0302C181.901 67.062 181.82 67.0789 181.74 67.092C181.659 67.1051 181.577 67.1126 181.494 67.1164C181.432 67.1201 181.371 67.1201 181.309 67.1239C181.258 67.1257 181.208 67.1313 181.159 67.1426C181.123 67.152 181.086 67.1651 181.058 67.1894C180.994 67.2437 180.998 67.3355 181.011 67.4104C181.017 67.4404 181.022 67.4704 181.03 67.5003C181.035 67.5322 181.041 67.5659 181.046 67.5977C181.071 67.7476 181.069 67.9031 181.106 68.0492C181.133 68.1466 181.178 68.2383 181.223 68.3282C181.268 68.4163 181.372 68.5511 181.329 68.613H181.326Z" fill="#FF7F4C"/>
<path d="M130.979 52.4937C130.979 52.4937 130.119 51.0084 130.979 47.1629C131.839 43.3175 130.08 39.0487 126.277 38.5692C122.473 38.0916 118.646 40.5247 118.068 43.0946C118.068 43.0946 116.371 44.5181 116.028 47.0543C115.97 47.4851 117.058 47.7923 116.985 48.343C116.912 48.8937 115.619 51.1545 115.927 51.501C116.234 51.8475 116.751 51.7145 117.058 52.0948C117.365 52.475 117.086 52.8871 117.257 53.095C117.427 53.3029 117.15 53.6457 117.356 53.6813C117.562 53.7169 116.717 56.0863 117.191 57.0191C117.665 57.9519 120.842 56.8768 122.145 57.4031C123.449 57.9294 124.867 56.8468 125.584 59.4953C126.302 62.1439 131.194 53.5839 131.194 53.5839L130.981 52.4937H130.979Z" fill="#FFAB92"/>
<path d="M116.554 51.2948C116.698 51.2611 116.848 51.2517 116.994 51.2704C117.131 51.2892 117.262 51.3304 117.391 51.3809C117.446 51.4034 117.502 51.424 117.56 51.439C117.609 51.4521 117.667 51.4652 117.715 51.4446C117.807 51.4072 117.77 51.2966 117.736 51.2311C117.689 51.1449 117.622 51.07 117.558 50.9951C117.476 50.9014 117.384 50.8153 117.283 50.7422C117.159 50.6542 117.026 50.583 116.886 50.5268C116.74 50.4687 116.586 50.4219 116.431 50.4013C116.337 50.3882 116.243 50.3882 116.15 50.3957C115.944 50.907 115.812 51.3453 115.925 51.4914C115.99 51.4914 116.058 51.4746 116.116 51.4521C116.262 51.3922 116.404 51.3285 116.558 51.2929L116.554 51.2948Z" fill="#C35500"/>
<path d="M124.281 47.6012C124.209 48.1762 123.945 48.7175 123.702 49.2457C123.606 49.4518 123.486 49.684 123.267 49.7383C123.136 49.7721 122.998 49.7327 122.876 49.6784C122.763 49.6297 122.642 49.5417 122.645 49.418C122.655 49.2064 122.975 49.1521 123.114 49.0547C123.177 49.0097 123.209 48.946 123.224 48.8692C123.228 48.8449 123.234 48.8168 123.234 48.7924C123.234 48.7812 123.23 48.7737 123.222 48.7662C123.123 48.6557 123.136 48.5527 123.286 48.4852C123.363 48.4497 123.451 48.4309 123.515 48.3747C123.565 48.3279 123.593 48.2605 123.616 48.1949C123.769 47.7566 123.827 47.2846 123.784 46.8219C123.775 46.7302 123.747 46.6197 123.657 46.5972C123.614 46.5859 123.567 46.6028 123.528 46.6253C123.383 46.7114 123.294 46.9025 123.127 46.9137C123.041 46.9193 122.951 46.8669 122.915 46.7882C122.825 46.5897 123.069 46.4005 123.22 46.3181C123.41 46.2151 123.648 46.1757 123.848 46.2713C124.11 46.3968 124.236 46.7021 124.279 46.9887C124.309 47.1966 124.307 47.4007 124.283 47.6012H124.281Z" fill="#FF7F4C"/>
<path d="M117.135 53.0781C117.496 53.3591 116.979 53.3666 117.356 53.6831C117.397 53.7187 117.391 53.8573 117.346 54.1102C117.515 54.0146 117.659 53.8817 117.792 53.7449C118.109 53.419 118.375 53.0425 118.729 52.7559C118.68 52.7559 118.624 52.7634 118.566 52.7803C118.266 52.8664 117.959 52.6641 117.877 52.3626C117.843 52.2352 117.813 52.1153 117.796 52.0273C117.77 51.8831 117.725 51.7445 117.646 51.619C117.586 51.5234 117.508 51.4391 117.416 51.3736C117.234 51.2443 117.009 51.19 116.788 51.1844C116.549 51.1769 116.307 51.2219 116.078 51.293C116.013 51.3137 115.951 51.3417 115.887 51.3661C115.891 51.4223 115.902 51.4729 115.929 51.5028C116.236 51.8494 116.753 51.7164 117.06 52.0966C117.367 52.4768 116.925 52.9114 117.137 53.0781H117.135Z" fill="#FF7F4C"/>
<path d="M116.786 47.8932C116.818 47.8913 116.848 47.8875 116.876 47.8838C117.071 47.8557 117.257 47.792 117.449 47.7489C117.513 47.7339 117.577 47.7246 117.644 47.7265C117.721 47.7265 117.798 47.7339 117.875 47.7396C118.069 47.7527 118.266 47.7677 118.461 47.7508C118.579 47.7414 118.772 47.7171 118.822 47.586C118.755 47.5335 118.682 47.4904 118.613 47.4399C118.551 47.3949 118.47 47.3443 118.457 47.2638C118.444 47.1833 118.497 47.1214 118.56 47.0802C118.598 47.0559 118.637 47.0353 118.676 47.0166C118.721 46.9941 118.766 46.9716 118.811 46.9491C119.049 46.833 119.294 46.73 119.532 46.6101C119.65 46.5502 119.766 46.4865 119.877 46.4153C119.982 46.3479 120.083 46.2767 120.188 46.2093C120.39 46.08 120.608 45.962 120.851 45.9395C120.857 45.9395 120.866 45.9433 120.868 45.9489C120.89 45.992 120.941 46.0051 120.986 46.0107C121.109 46.0257 121.239 45.9938 121.357 45.9601C121.375 45.9545 121.394 45.9451 121.413 45.9395C121.493 45.7447 121.557 45.5424 121.578 45.3326C121.6 45.1135 121.57 44.8681 121.39 44.7201C121.226 44.5853 120.977 44.707 120.821 44.8007C120.606 44.9299 121.265 44.1095 121.008 44.1732C120.744 44.2388 120.658 43.4015 120.388 43.3884C120.087 43.3734 119.042 43.0156 118.749 42.9445C118.673 42.9257 116.65 45.0311 116.614 45.1041C116.226 45.9002 116.153 46.5408 116.116 46.5708C116.082 46.7281 116.054 46.8911 116.032 47.0578C115.992 47.3556 116.498 47.5953 116.79 47.895L116.786 47.8932Z" fill="#FF7F4C"/>
<path d="M120.587 55.4421C120.986 55.0656 121.424 54.7266 121.915 54.4775C122.979 53.9399 124.239 53.8856 125.369 54.2452C125.94 54.4269 126.463 54.7247 126.955 55.06C127.16 55.1986 127.341 55.3466 127.523 55.5133C127.731 55.7025 127.948 55.8954 128.214 55.9966C128.692 56.1783 129.181 55.9685 129.566 55.6838C129.919 55.4234 130.22 55.0956 130.497 54.7547C130.921 54.0654 131.194 53.5878 131.194 53.5878L130.981 52.4976C130.981 52.4976 130.121 51.0123 130.981 47.1668C131.84 43.3214 130.082 39.0526 126.279 38.5731C122.475 38.0955 118.648 40.5286 118.068 43.0985C118.051 43.1715 118.032 43.239 118.013 43.3083C118.159 43.3588 118.309 43.4019 118.461 43.4356C118.727 43.4956 118.999 43.5387 119.261 43.6192C119.77 43.7747 120.162 44.1212 120.27 44.6588C120.398 45.2937 120.356 45.6309 120.259 45.9905C120.119 46.5169 120.752 46.9046 121.164 46.5468C121.169 46.5412 121.175 46.5375 121.181 46.5319C122.098 45.7339 124.455 44.9322 124.985 46.5937C125.14 47.0788 125.062 47.607 124.925 48.0996C124.783 48.6147 124.577 49.1148 124.316 49.5812C124.138 49.9015 123.923 50.2181 123.608 50.4073C123.065 50.7351 122.518 50.4504 122.069 50.1132C121.859 49.9559 121.565 50.6695 121.316 51.2895C120.793 52.5913 120.004 53.8613 118.92 54.7697C118.435 55.1762 117.875 55.5114 117.257 55.6613C117.195 55.6763 117.135 55.68 117.073 55.6913C117.019 56.2026 117.024 56.699 117.187 57.023C117.386 57.4126 118.058 57.4501 118.867 57.4033C119.062 57.1654 119.253 56.9237 119.444 56.684C119.793 56.2457 120.175 55.828 120.583 55.444L120.587 55.4421Z" fill="#FF7F4C"/>
<path d="M120.27 44.6545C120.398 45.2876 120.357 45.6248 120.261 45.9844C120.12 46.5145 120.752 46.9041 121.164 46.5445L121.181 46.5295C121.99 45.8252 123.043 45.4431 124.108 45.7353C124.344 45.799 124.58 45.9001 124.736 46.0893C124.878 46.2635 124.936 46.4902 124.989 46.7093C125.006 46.7767 125.02 46.8442 125.035 46.9135C125.101 46.9772 125.163 47.0446 125.223 47.112C125.507 47.4379 125.744 47.8032 125.959 48.1759C126.163 48.53 126.349 48.8933 126.532 49.2586C126.697 49.5826 126.867 49.9029 127.049 50.2176C127.51 51.0212 127.963 51.894 128.787 52.3848C129.259 52.6657 129.801 52.7894 130.333 52.8999C130.582 52.9504 130.833 52.9879 131.084 53.0216L130.981 52.4934C130.981 52.4934 130.121 51.0081 130.981 47.1626C131.84 43.3172 130.07 39.1252 126.279 38.5689C121.304 37.8402 117.375 40.6592 116.794 43.231C116.777 43.304 116.629 45.031 116.612 45.1003C116.68 45.1228 117.075 44.7725 117.483 44.3867C118.178 43.7292 119.272 43.6581 119.999 44.2818C120.145 44.4073 120.246 44.5328 120.27 44.6527V44.6545Z" fill="#450B00"/>
<path d="M125.363 58.336C125.363 58.336 123.543 60.5388 123.709 63.0937C123.876 65.6486 127.658 71.9908 129.108 73.9182C130.557 75.8457 131.485 77.2804 133.438 77.2954C135.392 77.3104 126.457 57.7441 126.457 57.7441L125.363 58.336Z" fill="#0040B0"/>
<path d="M125.23 57.4164L124.693 61.333C124.693 61.333 126.667 68.771 128.576 71.6331C130.484 74.4952 132.309 75.2219 132.309 75.2219C132.309 75.2219 126.285 58.8212 126.603 57.4164C126.922 56.0115 125.23 57.4164 125.23 57.4164Z" fill="white"/>
<path d="M126.33 54.056C125.856 54.4868 125.607 55.1105 125.657 55.7492C125.878 58.5476 126.569 66.3341 127.59 68.2971C128.842 70.7058 131.488 74.6749 131.477 76.0853C131.466 77.4958 133.262 82.1654 139.02 85.4545C144.778 88.7456 146.864 92.2876 149.408 91.7444C151.952 91.2012 158.088 84.3681 158.669 83.8118C159.249 83.2574 156.408 77.6962 156.408 77.6962C156.408 77.6962 157.79 80.6857 161.707 80.9067C165.623 81.1277 166.824 79.412 166.824 79.412C166.824 79.412 155.902 73.3169 153.091 72.0245C150.279 70.7321 147.376 63.5151 147.248 61.6813C147.123 59.8457 168.115 62.9756 173.996 68.3832L177.585 60.5125C177.585 60.5125 159.74 51.9075 153.817 51.5779C147.896 51.2482 143.249 50.2236 141.704 49.5062C140.159 48.7888 136.937 45.8013 133.818 47.8916C131.428 49.4931 127.864 52.6605 126.33 54.0541V54.056Z" fill="#0070F2"/>
<path d="M144.038 60.672C143.043 60.1044 142.109 59.4301 141.238 58.6865C140.822 58.3325 140.421 57.9616 140.037 57.5739C139.702 57.233 139.355 56.8808 139.076 56.4912C138.357 55.4891 138.046 54.2941 137.793 53.1066C137.668 52.5222 137.551 51.9321 137.383 51.359C137.299 51.0705 137.201 50.7839 137.081 50.5086C137.02 50.3662 136.952 50.2239 136.879 50.0871C136.845 50.0253 136.812 49.9654 136.776 49.9055C136.733 49.8305 136.737 49.7931 136.695 49.868C136.624 49.9972 136.596 50.1789 136.557 50.3213C136.519 50.4543 136.486 50.5854 136.454 50.7202C136.388 50.9956 136.338 51.2728 136.298 51.5538C136.223 52.1007 136.199 52.657 136.231 53.2077C136.351 55.3337 137.295 57.3004 138.548 58.9899C139.867 60.7675 141.511 62.2866 143.21 63.6951C143.618 64.0342 144.032 64.3676 144.45 64.6972C144.877 65.0363 145.321 65.3584 145.731 65.7162C146.628 66.501 147.335 67.4656 148.003 68.4453C148.689 69.4474 149.346 70.4738 150.161 71.3804C151.053 72.3731 152.156 73.1542 153.308 73.8154C155.563 75.1116 158.054 75.9095 160.384 77.0502C162.175 77.9268 163.793 79.1125 165.603 79.9517C165.723 80.0078 165.846 80.0622 165.974 80.1165C166.584 79.7587 166.826 79.4178 166.826 79.4178C166.826 79.4178 155.904 73.3228 153.092 72.0304C150.395 70.7904 147.614 64.1016 147.28 61.94C147.202 61.9251 147.123 61.9119 147.044 61.8951C145.984 61.6666 144.976 61.2114 144.038 60.6757V60.672Z" fill="#0040B0"/>
<path d="M138.909 78.6031C138.747 78.5806 138.572 78.5507 138.452 78.4364C138.228 78.221 138.321 77.8333 138.514 77.5879C138.936 77.0503 139.46 76.5989 139.719 75.9433C139.874 75.5481 139.9 75.1042 139.799 74.6921C139.709 74.3268 139.425 74.014 139.028 74.2688C138.462 74.6322 137.876 74.9637 137.272 75.2578C136.66 75.5556 135.978 75.0161 136.117 74.3493C136.27 73.6188 136.489 72.8996 136.636 72.1672C136.686 71.9087 136.336 71.7757 136.203 72.0042C135.943 72.4519 135.643 72.9277 135.409 73.1936C134.27 74.4879 132.837 73.6563 132.363 72.1822C132.129 71.4517 132.204 70.6631 132.15 69.897C132.063 68.7095 131.663 67.5725 131.408 66.4093C130.889 64.0324 132.086 62.1293 132.095 59.7954C132.095 59.6681 132.091 59.5388 132.082 59.4115C132.078 59.3646 132.09 59.2672 132.056 59.2316C132.028 59.2035 131.96 59.2354 131.921 59.2447C131.709 59.2972 131.505 59.3796 131.312 59.4789C130.893 59.6962 130.516 59.994 130.177 60.3199C129.898 60.5878 129.636 60.88 129.396 61.189C128.977 61.7285 128.113 61.5187 127.958 60.8537C127.909 60.6421 127.868 60.4304 127.834 60.215C127.439 57.647 128.04 55.0696 128.083 52.4941C127.354 53.1347 126.723 53.7004 126.277 54.105C125.832 54.5096 125.607 55.0846 125.654 55.6765C125.867 58.4112 126.562 66.3157 127.592 68.2974C128.842 70.7062 131.49 74.6752 131.479 76.0857C131.47 77.2882 132.775 80.8583 136.727 83.9246C137.527 83.7166 138.316 83.46 139.072 83.1322C140.251 82.6228 141.339 81.9484 142.154 81.0288C142.901 80.1859 142.358 78.8522 141.232 78.7923C140.408 78.7492 139.516 78.6855 138.908 78.6012L138.909 78.6031Z" fill="#0040B0"/>
<path d="M175.311 62.6423C174.736 63.1275 174.118 63.6107 173.427 63.9198C172.852 64.1764 172.232 64.3131 171.604 64.36C170.197 64.4649 168.781 64.1464 167.446 63.7306C166.015 63.2848 164.636 62.6967 163.256 62.116C162.42 61.7657 161.592 61.3799 160.708 61.1738C159.967 60.9996 159.216 60.8592 158.464 60.7337C157.464 60.5651 156.458 60.4265 155.449 60.3272C154.458 60.2298 153.461 60.168 152.465 60.1998C151.704 60.2242 150.878 60.2766 150.174 60.5913C149.884 60.7206 149.646 60.9135 149.515 61.1626C155.078 61.2282 169.317 64.0865 173.996 68.389L177.585 60.5183C177.585 60.5183 177.538 60.4958 177.452 60.4546C176.796 61.2394 176.094 61.9849 175.311 62.6442V62.6423Z" fill="#0040B0"/>
<path d="M116.043 46.9211C116.043 46.9211 115.938 47.2152 116.164 47.3894C116.372 47.5505 117.573 46.9361 117.993 47.0541C118.412 47.1721 117.727 46.7507 116.045 46.9193L116.043 46.9211Z" fill="#450B00"/>
<path d="M116.786 47.8929C116.786 47.8929 117.14 47.7056 117.978 47.7131C117.978 47.7131 118.585 47.7393 118.59 47.7524C118.596 47.7656 118.21 47.818 117.888 47.8461C117.566 47.8742 117.429 47.8255 117.421 47.9454C117.414 48.0653 117.446 48.1982 117.339 48.2807C117.221 48.3724 116.934 48.2413 116.786 47.8929Z" fill="#450B00"/>
<path d="M116.449 51.4037C116.449 51.4037 116.71 51.2932 117.062 51.3344C117.414 51.3756 116.616 51.5704 116.449 51.4037Z" fill="#450B00"/>
<path d="M117.135 53.0779C117.135 53.0779 116.902 53.6136 117.17 53.7166C117.438 53.8196 118.33 53.0385 118.337 52.9561C118.345 52.8737 117.135 53.0779 117.135 53.0779Z" fill="#FFAB92"/>
<path d="M117.118 52.7163C117.118 52.7163 116.947 53.1172 117.255 53.0966C117.562 53.076 118.558 53.0085 118.292 52.9074C118.026 52.8062 117.288 52.6639 117.118 52.7163Z" fill="#C35500"/>
<path d="M191.923 54.1582L209.774 58.5993C211.304 58.9795 212.239 60.5248 211.866 62.057L205.825 86.8998C205.466 88.3814 203.966 89.2842 202.488 88.9096L185.467 84.594L191.922 54.1601L191.923 54.1582Z" fill="#DF1278"/>
<path d="M207.571 78.3753C206.861 79.1039 206.181 79.87 205.417 80.5443C204.629 81.2392 203.767 81.8517 202.859 82.3818C201.072 83.427 199.109 84.1612 197.099 84.6408C196.859 84.6988 196.539 84.7513 196.185 84.8C194.988 84.9629 194.096 83.7492 194.578 82.6422C194.581 82.6328 194.585 82.6253 194.589 82.6159C195.435 80.6623 195.833 78.5439 196.192 76.4554C196.55 74.3837 196.842 72.2821 197.466 70.2686C198.318 67.5207 200.011 65.1325 201.216 62.5383C201.903 61.0548 202.649 59.5976 202.965 57.9774C203.033 57.6308 203.074 57.2843 203.095 56.9359L191.922 54.1562L185.467 84.5902L191.972 86.2404L202.488 88.9076C203.966 89.2823 205.464 88.3794 205.824 86.8978L208.006 77.9276C207.86 78.0775 207.715 78.2273 207.569 78.3753H207.571Z" fill="#9B015D"/>
<path d="M186.971 60.6885L181.728 83.4447L189.653 85.8741C191.103 86.318 192.631 85.4676 193.019 84.001L199.425 59.722C199.946 57.7459 198.73 55.7305 196.739 55.2697L188.938 53.4678L186.969 60.6885H186.971Z" fill="#DF1278"/>
<path d="M198.547 60.6339C198.524 60.4654 198.298 60.4298 198.226 60.5815C197.545 62.0144 195.525 66.2176 194.681 67.4969C193.806 68.8231 192.796 70.108 192.364 71.6365C192.008 72.8952 192.071 74.2138 191.965 75.5044C191.852 76.8586 191.485 78.226 191.024 79.5016C190.728 80.3501 189.556 80.4418 189.125 79.6533C188.96 79.3536 188.809 79.052 188.668 78.7467C188.389 78.1436 187.552 78.0967 187.205 78.6624C186.756 79.3967 186.4 80.2096 185.868 80.8895C185.776 81.0075 185.671 81.1274 185.527 81.1723C185.383 81.2192 185.223 81.1817 185.072 81.1911C184.54 81.2304 184.281 81.7549 183.83 81.9459C183.202 82.21 182.704 81.7043 182.212 81.3372L181.726 83.4425L190.182 86.033C191.343 86.3889 192.566 85.7071 192.875 84.5345L195.027 76.381C196.149 72.1272 197.273 67.8715 198.395 63.6178C198.706 62.4415 198.631 61.2839 198.545 60.6321L198.547 60.6339Z" fill="#9B015D"/>
<path d="M194.699 70.3978C194.596 71.3925 194.182 71.945 196.209 72.477C199.847 73.4304 200.105 69.2852 197.277 69.0324C196.245 68.9406 194.898 68.4798 194.699 70.3978Z" fill="#FFF8D6"/>
<path d="M194.733 70.8324C194.866 70.8624 194.999 70.8924 195.134 70.9186C195.271 70.9448 195.407 70.9692 195.546 70.9823C195.662 70.9935 195.78 70.9991 195.894 70.9766C195.967 70.9617 196.052 70.9317 196.084 70.8568C196.125 70.7631 196.074 70.6432 196.031 70.5589C195.887 70.2667 195.548 70.1281 195.252 70.0457C195.096 70.0026 194.939 69.9727 194.78 69.9502C194.746 70.0851 194.716 70.2293 194.699 70.3979C194.684 70.5458 194.662 70.6844 194.641 70.8137C194.671 70.8212 194.701 70.8249 194.733 70.8324Z" fill="#FFDF72"/>
<path d="M198.593 69.5762C198.616 69.7504 198.631 69.9246 198.629 70.0988C198.629 70.3067 198.607 70.5165 198.558 70.7206C198.511 70.9117 198.44 71.0953 198.337 71.2601C198.234 71.423 198.099 71.5635 197.938 71.6722C197.756 71.7939 197.55 71.8688 197.337 71.9082C197.202 71.9344 197.065 71.9419 196.928 71.9475C196.745 71.9569 196.561 71.9587 196.378 71.9512C196.029 71.94 195.685 71.8988 195.344 71.8295C195.119 71.7845 194.898 71.7227 194.679 71.659C194.834 71.9662 195.246 72.2247 196.209 72.4776C199.124 73.2418 199.867 70.7337 198.593 69.5762Z" fill="#FFDF72"/>
<path d="M79.8454 137.543L118.616 150.415H120.694V0.0566406L79.8454 12.5014V137.543Z" fill="#450B00"/>
<path d="M77.7943 137.543L118.616 150.415V0.732422L77.7943 12.501V137.543Z" fill="#DF1278"/>
<path d="M87.4651 118.756C87.3658 115.176 87.8734 111.542 88.5177 108C89.1246 104.657 89.887 101.375 89.739 97.9551C89.6154 95.1043 88.986 92.3227 88.3904 89.5412C87.821 86.8833 87.3358 84.2048 87.3808 81.4757C87.4276 78.6436 88.1431 75.8901 88.6582 73.1124C88.7538 72.5617 88.8455 72.0091 88.9336 71.4566C89.9525 64.573 90.0911 57.6069 90.3684 50.6634C90.4583 47.8781 90.5706 45.0853 90.7973 42.3113C91.0839 38.582 91.5802 34.8714 92.6198 31.2844C94.0864 26.2252 96.499 21.4732 99.6177 17.2344C104.598 10.4651 111.25 5.09867 118.618 1.10337V0.734375L77.7962 12.503V137.545L100.919 144.837C100.612 144.499 100.309 144.162 100.009 143.82C98.0199 141.544 96.3491 138.978 94.6109 136.509C92.706 133.802 90.8497 131.023 89.473 128.003C89.0984 127.183 88.7856 126.353 88.5271 125.514C88.3791 125.055 88.248 124.59 88.1356 124.122C87.7161 122.358 87.5138 120.561 87.4669 118.758L87.4651 118.756Z" fill="#9B015D"/>
<path d="M101.2 69.4335L111.87 69.2686C112.9 69.2536 113.728 68.4126 113.728 67.3824V14.7168C113.728 13.4731 112.546 12.5703 111.345 12.8962L100.676 15.8013C99.8556 16.0242 99.2862 16.7697 99.2862 17.622V67.5454C99.2862 68.5981 100.148 69.4484 101.202 69.4316L101.2 69.4335Z" fill="#FFB2D2"/>
<path d="M83.7414 69.4361L94.4105 69.2825C95.4426 69.2675 96.2705 68.4284 96.2705 67.3963V18.6061C96.2705 17.3755 95.1129 16.4745 93.9198 16.778L83.2506 19.4846C82.4134 19.6962 81.8271 20.4492 81.8271 21.3127V67.5499C81.8271 68.6026 82.6887 69.4511 83.7395 69.4361H83.7414Z" fill="#FFB2D2"/>
<path d="M100.901 131.988L111.471 135.335C112.491 135.659 113.31 135.092 113.31 134.059V81.3939C113.31 80.1501 112.139 78.8577 110.95 78.7903L100.38 78.1834C99.5671 78.1366 99.0014 78.6948 99.0014 79.5451V129.469C99.0014 130.521 99.8555 131.654 100.899 131.986L100.901 131.988Z" fill="#FFB2D2"/>
<path d="M83.6028 126.243L94.1727 129.601C95.1935 129.925 96.0139 129.357 96.0139 128.327V79.5371C96.0139 78.3064 94.8676 77.0253 93.6857 76.9353L83.1158 76.1299C82.2861 76.0662 81.7073 76.6263 81.7073 77.4898V123.727C81.7073 124.78 82.5595 125.911 83.6028 126.243Z" fill="#FFB2D2"/>
<path d="M114.273 77.0591C115.595 77.0591 116.667 75.9874 116.667 74.6653C116.667 73.3432 115.595 72.2715 114.273 72.2715C112.951 72.2715 111.879 73.3432 111.879 74.6653C111.879 75.9874 112.951 77.0591 114.273 77.0591Z" fill="#FFF8D6"/>
<path d="M113.981 72.292C112.797 72.4362 111.879 73.4439 111.879 74.6671C111.879 75.8902 112.797 76.896 113.981 77.0421C115.164 76.8979 116.082 75.8902 116.082 74.6671C116.082 73.4439 115.164 72.4381 113.981 72.292Z" fill="#FFDF72"/>
<path d="M239.691 35.9638C239.691 35.9638 234.576 45.9267 239.691 48.8881C244.806 51.8494 251.268 51.8494 251.268 51.8494L256.384 40.8095C256.384 40.8095 239.959 39.193 239.689 35.9619L239.691 35.9638Z" fill="white"/>
<path d="M211.493 51.2255L223.476 51.9298L226.875 42.2703L213.683 38.9961L211.493 51.2255Z" fill="white"/>
<path d="M227.128 56.5078L224.759 66.8267C224.759 66.8267 233.774 67.2799 238.906 72.0432C238.906 72.0432 243.109 62.9756 240.011 61.258L227.126 56.5078H227.128Z" fill="white"/>
<path d="M197.709 53.6158H202.907L200.307 47.9609L194.653 49.5755L197.709 53.6158Z" fill="white"/>
<path d="M211.42 62.7734L205.069 70.086C205.069 70.086 212.104 75.9731 216.304 75.9731C220.503 75.9731 223.655 70.086 223.655 70.086L211.42 62.7734Z" fill="white"/>
<path d="M230.777 50.583L234.19 55.6104L237.417 54.0595L235.306 50.5849C235.306 50.5849 231.831 51.2667 230.775 50.5849L230.777 50.583Z" fill="white"/>
<path d="M253.454 57.3379L260.106 62.8373C260.106 62.8373 258.058 68.3367 253.454 68.2093L245.653 61.6872L253.454 57.3379Z" fill="white"/>
</svg>
