<svg width="160" height="161" viewBox="0 0 160 161" fill="none" xmlns="http://www.w3.org/2000/svg">
<rect y="46" width="160" height="69" rx="12" fill="#222F3B"/>
<path d="M71.8567 102.508L118.527 78.7924L85.8244 63.1601L26.2881 86.1488L25 87.437L71.8567 102.508Z" fill="#101619"/>
<path d="M51.8973 92.4409L59.4218 53.9317L60.8256 54.4431L109.661 38.3086L111.11 70.9698L51.8916 92.4409H51.8973Z" fill="#2A4259"/>
<path d="M59.8025 54.116L71.8508 102.508L118.652 78.8549L109.627 38.1406L59.8025 54.116Z" fill="#3B5B7C"/>
<path d="M59.4219 53.9243L59.8026 54.1175L109.627 38.1421L108.161 38L59.4219 53.8618V53.9243Z" fill="#3B5B7C"/>
<path d="M60.4392 54.5642L71.7146 98.4725L117.692 76.1774L109.28 38.4297L60.4392 54.5585V54.5642Z" fill="#2A4259"/>
<path d="M60.8255 54.4375L72.5385 98.1354L118.874 75.6698L109.661 38.3086L60.8198 54.4375H60.8255Z" fill="#4D82B8"/>
<path d="M109.661 38.3711L112.724 49.9136C114.128 55.3354 116.549 60.3707 119.863 64.8945L123.881 70.3788L77.466 92.6284C70.7087 84.5924 65.861 75.0958 63.3774 64.8945L60.8257 54.4374L109.661 38.3711Z" fill="#D5DADD"/>
<path d="M96.7204 45.0035C97.0387 44.5545 97.1012 44.1112 97.1012 43.8555L96.0839 44.1737C96.0839 44.2362 96.0214 44.367 95.9589 44.4295C95.8964 44.492 95.7032 44.6227 95.5781 44.7477L95.7032 45.7025C95.8282 45.7025 96.4022 45.3217 96.7204 45.0035Z" fill="#00144A"/>
<path fill-rule="evenodd" clip-rule="evenodd" d="M60.8255 54.4353L62.4452 61.079L111.127 43.785L109.661 38.3008L60.8198 54.4296L60.8255 54.4353Z" fill="#C35500"/>
<path d="M74.8515 52.7749L73.067 53.3489L72.8738 51.8201L74.6583 51.2461L74.8515 52.7749Z" fill="#2A4259"/>
<path d="M97.4878 45.2592L95.7032 45.8332L95.51 44.3045L97.2945 43.7305L97.4878 45.2592Z" fill="#2A4259"/>
<path d="M97.1011 45.3783L96.9534 43.8324L97.2944 43.7245C97.2944 43.6619 97.4876 45.2532 97.4876 45.2532L97.1068 45.3783H97.1011Z" fill="#8D2A00"/>
<path d="M103.284 68.9741L118.203 62.4726C118.078 62.2793 118.01 62.1543 117.884 61.9611L103.029 68.4001C101.625 65.4051 100.414 62.2168 99.3971 59.0286L113.872 53.4818C113.81 53.2885 113.747 53.101 113.679 52.9078L99.2039 58.4546C97.9309 54.4991 96.8454 50.4867 95.8224 46.5312L95.2484 46.7245C96.2657 50.68 97.3512 54.6923 98.6299 58.7103L82.1146 65.0868C80.7733 61.0063 79.6253 56.8008 78.608 52.7202L78.034 52.9135C79.0513 56.994 80.1993 61.1995 81.5406 65.3483L65.3435 71.5941C65.406 71.7873 65.4685 71.9748 65.5367 72.1681L81.7338 65.9223C82.8818 69.3663 84.223 72.7421 85.8143 75.9985L70.447 82.6933C70.572 82.8865 70.6402 83.0741 70.7653 83.2048L86.0701 76.5725C87.7295 79.8233 89.5766 82.9491 91.8101 85.8191L92.3841 85.5633C90.1506 82.6933 88.241 79.5676 86.6441 76.3168L102.773 69.3037C104.239 72.3613 105.899 75.362 107.876 78.1013L108.45 77.8456C106.473 75.1063 104.819 72.1056 103.347 69.048L103.284 68.9855V68.9741ZM86.3883 75.6689C84.797 72.4181 83.5183 69.0366 82.3078 65.6608L98.8231 59.2843C99.9086 62.4726 101.119 65.5983 102.523 68.6559L86.394 75.6689H86.3883Z" fill="#C35500"/>
<path d="M74.6584 51.2461L74.2549 51.3939L74.4254 52.9113L74.8516 52.7749L74.6584 51.2461Z" fill="#8D2A00"/>
<path d="M73.067 53.3499L72.9192 52.2019C72.9192 52.2019 73.5898 51.9064 73.7035 51.2869C73.8683 50.3605 73.5273 49.0477 72.9704 48.4794C72.8283 48.3316 72.5896 48.2578 72.4134 48.3032C72.1975 48.3601 72.0099 48.5703 71.9645 48.8033C71.8622 49.3432 71.9815 49.7524 71.9872 49.7695L70.9358 50.1105C70.8847 49.8036 70.7596 49.133 70.9301 48.4964C71.1006 47.8599 71.5951 47.3769 72.2088 47.2177C72.7772 47.0757 73.3512 47.2405 73.7831 47.6781C74.6015 48.5135 75.0163 50.1787 74.8288 51.4858C74.6128 52.9521 73.1352 53.3215 73.0784 53.3442L73.067 53.3499Z" fill="#00144A"/>
<path d="M95.6974 45.7637L95.5554 44.6839C95.5554 44.6839 96.1862 44.4054 96.2942 43.8257C96.4533 42.9562 96.1294 41.7172 95.6065 41.183C95.4701 41.0466 95.2485 40.9727 95.0837 41.0182C94.8791 41.0694 94.7029 41.2683 94.6574 41.4899C94.5608 41.9957 94.6688 42.3822 94.6745 42.3935L93.6856 42.7175C93.6345 42.4276 93.5208 41.8025 93.6856 41.2001C93.8504 40.5976 94.3164 40.1487 94.8904 40.0009C95.4246 39.8645 95.9646 40.0236 96.3681 40.4328C97.1353 41.2171 97.5274 42.7857 97.3456 44.0132C97.141 45.3886 95.7543 45.7409 95.6974 45.758V45.7637Z" fill="#00144A"/>
</svg>
