<?xml version="1.0" encoding="UTF-8"?>
<!--Generator: Apple Native CoreSVG 341-->
<!DOCTYPE svg
PUBLIC "-//W3C//DTD SVG 1.1//EN"
       "http://www.w3.org/Graphics/SVG/1.1/DTD/svg11.dtd">
<svg version="1.1" xmlns="http://www.w3.org/2000/svg" xmlns:xlink="http://www.w3.org/1999/xlink" viewBox="0 0 3300 2200">
 <!--glyph: "", point size: 100.0, font version: "21.0d4e1", template writer version: "138.0.0"-->
 <style>.defaults {-sfsymbols-draw-reverses-motion-groups:true}

.monochrome-0 {-sfsymbols-motion-group:2;-sfsymbols-layer-tags:70f1eb49a524f2c3}
.monochrome-1 {-sfsymbols-motion-group:1;-sfsymbols-layer-tags:70f1eb49a524f2c3}
.monochrome-2 {-sfsymbols-motion-group:0;-sfsymbols-layer-tags:70f1eb49a524f2c3}

.multicolor-0:tintColor {-sfsymbols-motion-group:2;-sfsymbols-layer-tags:70f1eb49a524f2c3}
.multicolor-1:tintColor {-sfsymbols-motion-group:1;-sfsymbols-layer-tags:70f1eb49a524f2c3}
.multicolor-2:tintColor {-sfsymbols-motion-group:0;-sfsymbols-layer-tags:70f1eb49a524f2c3}

.hierarchical-0:primary {-sfsymbols-motion-group:2;-sfsymbols-layer-tags:70f1eb49a524f2c3}
.hierarchical-1:primary {-sfsymbols-motion-group:1;-sfsymbols-layer-tags:70f1eb49a524f2c3}
.hierarchical-2:primary {-sfsymbols-motion-group:0;-sfsymbols-layer-tags:70f1eb49a524f2c3}

.SFSymbolsPreviewWireframe {fill:none;opacity:1.0;stroke:black;stroke-width:0.5}
</style>
 <g id="Notes">
  <rect height="2200" id="artboard" style="fill:white;opacity:1" width="3300" x="0" y="0"/>
  <line style="fill:none;stroke:black;opacity:1;stroke-width:0.5;" x1="263" x2="3036" y1="292" y2="292"/>
  <text style="stroke:none;fill:black;font-family:sans-serif;font-size:13;font-weight:bold;" transform="matrix(1 0 0 1 263 322)">Weight/Scale Variations</text>
  <text style="stroke:none;fill:black;font-family:sans-serif;font-size:13;text-anchor:middle;" transform="matrix(1 0 0 1 559.711 322)">Ultralight</text>
  <text style="stroke:none;fill:black;font-family:sans-serif;font-size:13;text-anchor:middle;" transform="matrix(1 0 0 1 856.422 322)">Thin</text>
  <text style="stroke:none;fill:black;font-family:sans-serif;font-size:13;text-anchor:middle;" transform="matrix(1 0 0 1 1153.13 322)">Light</text>
  <text style="stroke:none;fill:black;font-family:sans-serif;font-size:13;text-anchor:middle;" transform="matrix(1 0 0 1 1449.84 322)">Regular</text>
  <text style="stroke:none;fill:black;font-family:sans-serif;font-size:13;text-anchor:middle;" transform="matrix(1 0 0 1 1746.56 322)">Medium</text>
  <text style="stroke:none;fill:black;font-family:sans-serif;font-size:13;text-anchor:middle;" transform="matrix(1 0 0 1 2043.27 322)">Semibold</text>
  <text style="stroke:none;fill:black;font-family:sans-serif;font-size:13;text-anchor:middle;" transform="matrix(1 0 0 1 2339.98 322)">Bold</text>
  <text style="stroke:none;fill:black;font-family:sans-serif;font-size:13;text-anchor:middle;" transform="matrix(1 0 0 1 2636.69 322)">Heavy</text>
  <text style="stroke:none;fill:black;font-family:sans-serif;font-size:13;text-anchor:middle;" transform="matrix(1 0 0 1 2933.4 322)">Black</text>
  <line style="fill:none;stroke:black;opacity:1;stroke-width:0.5;" x1="263" x2="3036" y1="1903" y2="1903"/>
  <g transform="matrix(0.2 0 0 0.2 263 1933)">
   <path d="m46.2402 4.15039c21.7773 0 39.4531-17.627 39.4531-39.4043s-17.6758-39.4043-39.4531-39.4043c-21.7285 0-39.4043 17.627-39.4043 39.4043s17.6758 39.4043 39.4043 39.4043Zm0-7.42188c-17.6758 0-31.9336-14.3066-31.9336-31.9824s14.2578-31.9824 31.9336-31.9824 31.9824 14.3066 31.9824 31.9824-14.3066 31.9824-31.9824 31.9824Zm3.61328-17.7734v-28.4668c0-2.24609-1.46484-3.75977-3.71094-3.75977-2.14844 0-3.61328 1.51367-3.61328 3.75977v28.4668c0 2.19727 1.46484 3.71094 3.61328 3.71094 2.24609 0 3.71094-1.51367 3.71094-3.71094Zm-17.8223-10.5957h28.418c2.19727 0 3.71094-1.46484 3.71094-3.61328 0-2.19727-1.51367-3.71094-3.71094-3.71094h-28.418c-2.24609 0-3.75977 1.51367-3.75977 3.71094 0 2.14844 1.51367 3.61328 3.75977 3.61328Z"/>
  </g>
  <g transform="matrix(0.2 0 0 0.2 281.506 1933)">
   <path d="m58.5449 14.5508c27.4902 0 49.8047-22.3145 49.8047-49.8047s-22.3145-49.8047-49.8047-49.8047-49.8047 22.3145-49.8047 49.8047 22.3145 49.8047 49.8047 49.8047Zm0-8.30078c-22.9492 0-41.5039-18.5547-41.5039-41.5039s18.5547-41.5039 41.5039-41.5039 41.5039 18.5547 41.5039 41.5039-18.5547 41.5039-41.5039 41.5039Zm4.05273-23.0957v-36.9141c0-2.49023-1.70898-4.19922-4.15039-4.19922-2.39258 0-4.05273 1.70898-4.05273 4.19922v36.9141c0 2.44141 1.66016 4.15039 4.05273 4.15039 2.44141 0 4.15039-1.66016 4.15039-4.15039Zm-22.5586-14.4043h36.9629c2.44141 0 4.15039-1.61133 4.15039-4.00391 0-2.44141-1.70898-4.15039-4.15039-4.15039h-36.9629c-2.49023 0-4.15039 1.70898-4.15039 4.15039 0 2.39258 1.66016 4.00391 4.15039 4.00391Z"/>
  </g>
  <g transform="matrix(0.2 0 0 0.2 304.924 1933)">
   <path d="m74.8535 28.3203c35.1074 0 63.623-28.4668 63.623-63.5742s-28.5156-63.623-63.623-63.623-63.5742 28.5156-63.5742 63.623 28.4668 63.5742 63.5742 63.5742Zm0-9.08203c-30.127 0-54.4922-24.3652-54.4922-54.4922s24.3652-54.4922 54.4922-54.4922 54.4922 24.3652 54.4922 54.4922-24.3652 54.4922-54.4922 54.4922Zm4.44336-30.3223v-48.4863c0-2.73438-1.85547-4.63867-4.54102-4.63867-2.58789 0-4.44336 1.9043-4.44336 4.63867v48.4863c0 2.68555 1.85547 4.58984 4.44336 4.58984 2.68555 0 4.54102-1.85547 4.54102-4.58984Zm-28.7109-19.7754h48.4863c2.68555 0 4.58984-1.80664 4.58984-4.39453 0-2.73438-1.85547-4.58984-4.58984-4.58984h-48.4863c-2.73438 0-4.58984 1.85547-4.58984 4.58984 0 2.58789 1.85547 4.39453 4.58984 4.39453Z"/>
  </g>
  <text style="stroke:none;fill:black;font-family:sans-serif;font-size:13;font-weight:bold;" transform="matrix(1 0 0 1 263 1953)">Design Variations</text>
  <text style="stroke:none;fill:black;font-family:sans-serif;font-size:13;" transform="matrix(1 0 0 1 263 1971)">Symbols are supported in up to nine weights and three scales.</text>
  <text style="stroke:none;fill:black;font-family:sans-serif;font-size:13;" transform="matrix(1 0 0 1 263 1989)">For optimal layout with text and other symbols, vertically align</text>
  <text style="stroke:none;fill:black;font-family:sans-serif;font-size:13;" transform="matrix(1 0 0 1 263 2007)">symbols with the adjacent text.</text>
  <line style="fill:none;stroke:#00AEEF;stroke-width:0.5;opacity:1.0;" x1="776" x2="776" y1="1919" y2="1933"/>
  <g transform="matrix(0.2 0 0 0.2 776 1933)">
   <path d="m16.5527 0.78125c2.58789 0 3.85742-0.976562 4.78516-3.71094l20.5566-57.5195h0.244141l20.6055 57.5195c0.927734 2.73438 2.19727 3.71094 4.73633 3.71094 2.58789 0 4.24805-1.5625 4.24805-4.00391 0-0.830078-0.146484-1.61133-0.537109-2.63672l-22.9004-60.9863c-1.12305-2.97852-3.125-4.49219-6.25-4.49219-3.02734 0-5.07812 1.46484-6.15234 4.44336l-22.9004 61.084c-0.390625 1.02539-0.537109 1.80664-0.537109 2.63672 0 2.44141 1.5625 3.95508 4.10156 3.95508Zm10.2051-20.9473h30.6641c2.00195 0 3.66211-1.66016 3.66211-3.66211 0-2.05078-1.66016-3.66211-3.66211-3.66211h-30.6641c-2.00195 0-3.66211 1.61133-3.66211 3.66211 0 2.00195 1.66016 3.66211 3.66211 3.66211Z"/>
  </g>
  <line style="fill:none;stroke:#00AEEF;stroke-width:0.5;opacity:1.0;" x1="792.836" x2="792.836" y1="1919" y2="1933"/>
  <text style="stroke:none;fill:black;font-family:sans-serif;font-size:13;font-weight:bold;" transform="matrix(1 0 0 1 776 1953)">Margins</text>
  <text style="stroke:none;fill:black;font-family:sans-serif;font-size:13;" transform="matrix(1 0 0 1 776 1971)">Leading and trailing margins on the left and right side of each symbol</text>
  <text style="stroke:none;fill:black;font-family:sans-serif;font-size:13;" transform="matrix(1 0 0 1 776 1989)">can be adjusted by modifying the x-location of the margin guidelines.</text>
  <text style="stroke:none;fill:black;font-family:sans-serif;font-size:13;" transform="matrix(1 0 0 1 776 2007)">Modifications are automatically applied proportionally to all</text>
  <text style="stroke:none;fill:black;font-family:sans-serif;font-size:13;" transform="matrix(1 0 0 1 776 2025)">scales and weights.</text>
  <g transform="matrix(0.2 0 0 0.2 1289 1933)">
   <path d="m14.209 13.1348 7.86133 7.86133c4.29688 4.39453 9.32617 4.10156 13.8672-1.02539l60.6934-68.2129-4.88281-4.88281-60.2539 67.6758c-1.80664 1.95312-3.4668 2.44141-5.81055 0.0976562l-5.17578-5.12695c-2.29492-2.29492-1.80664-3.95508 0.195312-5.81055l67.4805-62.1582-4.88281-4.83398-68.0664 62.5977c-4.98047 4.58984-5.32227 9.47266-1.02539 13.8184Zm44.873-97.4609c-2.05078 2.00195-2.24609 4.88281-1.07422 6.78711 1.12305 1.80664 3.4668 3.02734 6.5918 2.24609 5.85938-1.66016 12.5977-2.39258 18.8965 0.927734l-2.68555 7.12891c-1.61133 4.00391-0.732422 6.88477 1.70898 9.42383l10.2539 10.3027c2.34375 2.39258 4.54102 2.44141 7.08008 1.95312l4.44336-0.732422 2.58789 2.53906-0.195312 2.24609c-0.0976562 2.29492 0.537109 4.29688 2.7832 6.49414l3.36914 3.32031c2.29492 2.29492 5.51758 2.49023 7.8125 0.195312l12.9883-13.0371c2.29492-2.34375 2.14844-5.37109-0.195312-7.66602l-3.41797-3.41797c-2.19727-2.19727-4.05273-3.02734-6.34766-2.88086l-2.34375 0.244141-2.44141-2.44141 1.02539-4.6875c0.634766-2.73438-0.244141-4.98047-2.88086-7.61719l-11.2793-11.1816c-12.9395-12.8418-35.5957-11.0352-46.6797-0.146484Zm7.08008 2.05078c8.78906-6.39648 25.9766-5.66406 33.6914 1.95312l12.3047 12.207c1.02539 1.02539 1.2207 1.80664 0.927734 3.32031l-1.46484 6.64062 6.73828 6.68945 4.39453-0.244141c1.12305-0.0488281 1.51367 0.0488281 2.34375 0.878906l2.53906 2.49023-10.8398 10.8398-2.49023-2.49023c-0.830078-0.878906-0.976562-1.2207-0.927734-2.39258l0.292969-4.3457-6.68945-6.73828-6.83594 1.17188c-1.41602 0.292969-2.05078 0.195312-3.17383-0.878906l-8.93555-8.88672c-1.07422-1.02539-1.17188-1.70898-0.488281-3.36914l4.58984-11.4746c-6.10352-6.34766-17.041-7.51953-25.5859-4.58984-0.683594 0.244141-0.927734-0.390625-0.390625-0.78125Z"/>
  </g>
  <text style="stroke:none;fill:black;font-family:sans-serif;font-size:13;font-weight:bold;" transform="matrix(1 0 0 1 1289 1953)">Exporting</text>
  <text style="stroke:none;fill:black;font-family:sans-serif;font-size:13;" transform="matrix(1 0 0 1 1289 1971)">Symbols should be outlined when exporting to ensure the</text>
  <text style="stroke:none;fill:black;font-family:sans-serif;font-size:13;" transform="matrix(1 0 0 1 1289 1989)">design is preserved when submitting to Xcode.</text>
  <text id="template-version" style="stroke:none;fill:black;font-family:sans-serif;font-size:13;text-anchor:end;" transform="matrix(1 0 0 1 3036 1933)">Template v.5.0</text>
  <text style="stroke:none;fill:black;font-family:sans-serif;font-size:13;text-anchor:end;" transform="matrix(1 0 0 1 3036 1951)">Requires Xcode 15 or greater</text>
  <text id="descriptive-name" style="stroke:none;fill:black;font-family:sans-serif;font-size:13;text-anchor:end;" transform="matrix(1 0 0 1 3036 1969)">Generated from fiori.customize</text>
  <text style="stroke:none;fill:black;font-family:sans-serif;font-size:13;text-anchor:end;" transform="matrix(1 0 0 1 3036 1987)">Typeset at 100.0 points</text>
  <text style="stroke:none;fill:black;font-family:sans-serif;font-size:13;" transform="matrix(1 0 0 1 263 726)">Small</text>
  <text style="stroke:none;fill:black;font-family:sans-serif;font-size:13;" transform="matrix(1 0 0 1 263 1156)">Medium</text>
  <text style="stroke:none;fill:black;font-family:sans-serif;font-size:13;" transform="matrix(1 0 0 1 263 1586)">Large</text>
 </g>
 <g id="Guides">
  <g id="H-reference" style="fill:#27AAE1;stroke:none;" transform="matrix(1 0 0 1 339 696)">
   <path d="M0.993654 0L3.63775 0L29.3281-67.1323L30.0303-67.1323L30.0303-70.459L28.1226-70.459ZM11.6885-24.4799L46.9815-24.4799L46.2315-26.7285L12.4385-26.7285ZM55.1196 0L57.7637 0L30.6382-70.459L29.4326-70.459L29.4326-67.1323Z"/>
  </g>
  <line id="Baseline-S" style="fill:none;stroke:#27AAE1;opacity:1;stroke-width:0.5;" x1="263" x2="3036" y1="696" y2="696"/>
  <line id="Capline-S" style="fill:none;stroke:#27AAE1;opacity:1;stroke-width:0.5;" x1="263" x2="3036" y1="625.541" y2="625.541"/>
  <g id="H-reference" style="fill:#27AAE1;stroke:none;" transform="matrix(1 0 0 1 339 1126)">
   <path d="M0.993654 0L3.63775 0L29.3281-67.1323L30.0303-67.1323L30.0303-70.459L28.1226-70.459ZM11.6885-24.4799L46.9815-24.4799L46.2315-26.7285L12.4385-26.7285ZM55.1196 0L57.7637 0L30.6382-70.459L29.4326-70.459L29.4326-67.1323Z"/>
  </g>
  <line id="Baseline-M" style="fill:none;stroke:#27AAE1;opacity:1;stroke-width:0.5;" x1="263" x2="3036" y1="1126" y2="1126"/>
  <line id="Capline-M" style="fill:none;stroke:#27AAE1;opacity:1;stroke-width:0.5;" x1="263" x2="3036" y1="1055.54" y2="1055.54"/>
  <g id="H-reference" style="fill:#27AAE1;stroke:none;" transform="matrix(1 0 0 1 339 1556)">
   <path d="M0.993654 0L3.63775 0L29.3281-67.1323L30.0303-67.1323L30.0303-70.459L28.1226-70.459ZM11.6885-24.4799L46.9815-24.4799L46.2315-26.7285L12.4385-26.7285ZM55.1196 0L57.7637 0L30.6382-70.459L29.4326-70.459L29.4326-67.1323Z"/>
  </g>
  <line id="Baseline-L" style="fill:none;stroke:#27AAE1;opacity:1;stroke-width:0.5;" x1="263" x2="3036" y1="1556" y2="1556"/>
  <line id="Capline-L" style="fill:none;stroke:#27AAE1;opacity:1;stroke-width:0.5;" x1="263" x2="3036" y1="1485.54" y2="1485.54"/>
  <line id="right-margin-Black-S" style="fill:none;stroke:#00AEEF;stroke-width:0.5;opacity:1.0;" x1="2981.9" x2="2981.9" y1="600.785" y2="720.121"/>
  <line id="left-margin-Black-S" style="fill:none;stroke:#00AEEF;stroke-width:0.5;opacity:1.0;" x1="2884.9" x2="2884.9" y1="600.785" y2="720.121"/>
  <line id="right-margin-Regular-S" style="fill:none;stroke:#00AEEF;stroke-width:0.5;opacity:1.0;" x1="1496.29" x2="1496.29" y1="600.785" y2="720.121"/>
  <line id="left-margin-Regular-S" style="fill:none;stroke:#00AEEF;stroke-width:0.5;opacity:1.0;" x1="1403.39" x2="1403.39" y1="600.785" y2="720.121"/>
  <line id="right-margin-Ultralight-S" style="fill:none;stroke:#00AEEF;stroke-width:0.5;opacity:1.0;" x1="604.411" x2="604.411" y1="600.785" y2="720.121"/>
  <line id="left-margin-Ultralight-S" style="fill:none;stroke:#00AEEF;stroke-width:0.5;opacity:1.0;" x1="515.011" x2="515.011" y1="600.785" y2="720.121"/>
 </g>
 <g id="Symbols">
  <g id="Black-S" transform="matrix(1 0 0 1 2884.9 696)">
   <path class="monochrome-0 multicolor-0:tintColor hierarchical-0:primary SFSymbolsPreviewWireframe" d="M80.51-5.5L64.51-5.5C61.31-5.5 58.81-8 58.81-11.2C58.81-14.4 61.31-16.9 64.51-16.9L80.51-16.9C83.71-16.9 86.21-14.4 86.21-11.2C86.21-8 83.61-5.5 80.51-5.5ZM56.51 2.4C48.91 2.4 42.81-3.7 42.81-11.3C42.81-18.9 48.91-25 56.51-25C64.11-25 70.21-18.9 70.21-11.3C70.21-3.7 64.01 2.4 56.51 2.4ZM56.51-13.5C55.21-13.5 54.21-12.5 54.21-11.2C54.21-9.9 55.21-8.9 56.51-8.9C57.81-8.9 58.81-9.9 58.81-11.2C58.81-12.5 57.81-13.5 56.51-13.5ZM32.51-5.5L16.51-5.5C13.41-5.5 10.81-8 10.81-11.2C10.81-14.4 13.41-16.9 16.51-16.9L32.51-16.9C35.61-16.9 38.21-14.4 38.21-11.2C38.21-8 35.61-5.5 32.51-5.5Z"/>
   <path class="monochrome-1 multicolor-1:tintColor hierarchical-1:primary SFSymbolsPreviewWireframe" d="M80.51-29.5L56.51-29.5C53.31-29.5 50.81-32.1 50.81-35.2C50.81-38.3 53.31-40.9 56.51-40.9L80.51-40.9C83.71-40.9 86.21-38.3 86.21-35.2C86.21-32.1 83.61-29.5 80.51-29.5ZM32.51-21.6C24.91-21.6 18.81-27.7 18.81-35.3C18.81-42.9 24.91-49 32.51-49C40.11-49 46.21-42.9 46.21-35.3C46.21-27.7 40.01-21.6 32.51-21.6ZM32.51-37.5C31.21-37.5 30.21-36.5 30.21-35.2C30.21-33.9 31.21-32.9 32.51-32.9C33.81-32.9 34.81-33.9 34.81-35.2C34.81-36.5 33.81-37.5 32.51-37.5ZM24.51-29.5L16.51-29.5C13.41-29.5 10.81-32.1 10.81-35.2C10.81-38.3 13.41-40.9 16.51-40.9L24.51-40.9C27.61-40.9 30.21-38.3 30.21-35.2C30.21-32.1 27.61-29.5 24.51-29.5Z"/>
   <path class="monochrome-2 multicolor-2:tintColor hierarchical-2:primary SFSymbolsPreviewWireframe" d="M40.51-53.5L16.51-53.5C13.41-53.5 10.81-56.1 10.81-59.2C10.81-62.3 13.41-64.9 16.51-64.9L40.51-64.9C43.61-64.9 46.21-62.3 46.21-59.2C46.21-56.1 43.61-53.5 40.51-53.5ZM80.51-53.5L72.51-53.5C69.31-53.5 66.81-56.1 66.81-59.2C66.81-62.3 69.31-64.9 72.51-64.9L80.51-64.9C83.71-64.9 86.21-62.3 86.21-59.2C86.21-56.1 83.61-53.5 80.51-53.5ZM64.51-45.5C56.91-45.5 50.81-51.6 50.81-59.2C50.81-66.8 56.91-73 64.51-73C72.11-73 78.21-66.9 78.21-59.3C78.21-51.7 72.01-45.5 64.51-45.5ZM64.51-61.5C63.21-61.5 62.21-60.5 62.21-59.2C62.21-57.9 63.21-56.9 64.51-56.9C65.81-56.9 66.81-57.9 66.81-59.2C66.81-60.5 65.81-61.5 64.51-61.5Z"/>
  </g>
  <g id="Regular-S" transform="matrix(1 0 0 1 1403.39 696)">
   <path class="monochrome-0 multicolor-0:tintColor hierarchical-0:primary SFSymbolsPreviewWireframe" d="M78.46-7.3L62.46-7.3C60.26-7.3 58.46-9.1 58.46-11.3C58.46-13.5 60.26-15.3 62.46-15.3L78.46-15.3C80.66-15.3 82.46-13.5 82.46-11.3C82.46-9.1 80.76-7.3 78.46-7.3ZM54.46 0.7C47.86 0.7 42.46-4.7 42.46-11.3C42.46-17.9 47.86-23.3 54.46-23.3C61.06-23.3 66.46-17.9 66.46-11.3C66.46-4.7 61.16 0.7 54.46 0.7ZM54.46-15.3C52.26-15.3 50.46-13.5 50.46-11.3C50.46-9.1 52.26-7.3 54.46-7.3C56.66-7.3 58.46-9.1 58.46-11.3C58.46-13.5 56.66-15.3 54.46-15.3ZM30.46-7.3L14.46-7.3C12.26-7.3 10.46-9.1 10.46-11.3C10.46-13.5 12.26-15.3 14.46-15.3L30.46-15.3C32.66-15.3 34.46-13.5 34.46-11.3C34.46-9.1 32.66-7.3 30.46-7.3Z"/>
   <path class="monochrome-1 multicolor-1:tintColor hierarchical-1:primary SFSymbolsPreviewWireframe" d="M78.46-31.3L54.46-31.3C52.26-31.3 50.46-33.1 50.46-35.3C50.46-37.5 52.26-39.3 54.46-39.3L78.46-39.3C80.66-39.3 82.46-37.5 82.46-35.3C82.46-33.1 80.76-31.3 78.46-31.3ZM30.46-23.3C23.86-23.3 18.46-28.7 18.46-35.3C18.46-41.9 23.86-47.3 30.46-47.3C37.06-47.3 42.46-41.9 42.46-35.3C42.46-28.7 37.16-23.3 30.46-23.3ZM30.46-39.2C28.26-39.2 26.46-37.4 26.46-35.2C26.46-33 28.26-31.2 30.46-31.2C32.66-31.2 34.46-33 34.46-35.2C34.46-37.4 32.66-39.2 30.46-39.2ZM22.46-31.3L14.46-31.3C12.26-31.3 10.46-33.1 10.46-35.3C10.46-37.5 12.26-39.3 14.46-39.3L22.46-39.3C24.66-39.3 26.46-37.5 26.46-35.3C26.46-33.1 24.66-31.3 22.46-31.3Z"/>
   <path class="monochrome-2 multicolor-2:tintColor hierarchical-2:primary SFSymbolsPreviewWireframe" d="M38.46-55.2L14.46-55.2C12.26-55.2 10.46-57 10.46-59.2C10.46-61.4 12.26-63.2 14.46-63.2L38.46-63.2C40.66-63.2 42.46-61.4 42.46-59.2C42.46-57 40.66-55.2 38.46-55.2ZM78.46-55.2L70.46-55.2C68.26-55.2 66.46-57 66.46-59.2C66.46-61.4 68.26-63.2 70.46-63.2L78.46-63.2C80.66-63.2 82.46-61.4 82.46-59.2C82.46-57 80.76-55.2 78.46-55.2ZM62.46-47.2C55.86-47.2 50.46-52.6 50.46-59.2C50.46-65.8 55.86-71.2 62.46-71.2C69.06-71.2 74.46-65.8 74.46-59.2C74.46-52.6 69.16-47.2 62.46-47.2ZM62.46-63.2C60.26-63.2 58.46-61.4 58.46-59.2C58.46-57 60.26-55.2 62.46-55.2C64.66-55.2 66.46-57 66.46-59.2C66.46-61.4 64.66-63.2 62.46-63.2Z"/>
  </g>
  <g id="Ultralight-S" transform="matrix(1 0 0 1 515.011 696)">
   <path class="monochrome-0 multicolor-0:tintColor hierarchical-0:primary SFSymbolsPreviewWireframe" d="M76.775-10.1L60.775-10.1C60.175-10.1 59.575-10.6 59.575-11.3C59.575-11.9 60.075-12.5 60.775-12.5L76.775-12.5C77.375-12.5 77.975-12 77.975-11.3C77.875-10.6 77.375-10.1 76.775-10.1ZM52.775-2.1C47.675-2.1 43.575-6.2 43.575-11.3C43.575-16.4 47.675-20.5 52.775-20.5C57.875-20.5 61.975-16.4 61.975-11.3C61.975-6.2 57.775-2.1 52.775-2.1ZM52.775-18.1C48.975-18.1 45.975-15 45.975-11.3C45.975-7.6 49.075-4.5 52.775-4.5C56.475-4.5 59.575-7.6 59.575-11.3C59.575-15 56.475-18.1 52.775-18.1ZM28.775-10.1L12.775-10.1C12.175-10.1 11.575-10.6 11.575-11.3C11.575-11.9 12.075-12.5 12.775-12.5L28.775-12.5C29.375-12.5 29.975-12 29.975-11.3C29.875-10.6 29.375-10.1 28.775-10.1Z"/>
   <path class="monochrome-1 multicolor-1:tintColor hierarchical-1:primary SFSymbolsPreviewWireframe" d="M76.775-34.1L52.775-34.1C52.175-34.1 51.575-34.6 51.575-35.3C51.575-36 52.075-36.5 52.775-36.5L76.775-36.5C77.375-36.5 77.975-36 77.975-35.3C77.975-34.6 77.375-34.1 76.775-34.1ZM28.775-26.1C23.675-26.1 19.575-30.2 19.575-35.3C19.575-40.4 23.675-44.5 28.775-44.5C33.875-44.5 37.975-40.4 37.975-35.3C37.975-30.2 33.775-26.1 28.775-26.1ZM28.775-42.1C24.975-42.1 21.975-39 21.975-35.3C21.975-31.5 25.075-28.5 28.775-28.5C32.475-28.5 35.575-31.6 35.575-35.3C35.575-39 32.475-42.1 28.775-42.1ZM20.775-34.1L12.775-34.1C12.175-34.1 11.575-34.6 11.575-35.3C11.575-36 12.075-36.5 12.775-36.5L20.775-36.5C21.375-36.5 21.975-36 21.975-35.3C21.975-34.6 21.375-34.1 20.775-34.1Z"/>
   <path class="monochrome-2 multicolor-2:tintColor hierarchical-2:primary SFSymbolsPreviewWireframe" d="M36.775-58.1L12.775-58.1C12.175-58.1 11.575-58.6 11.575-59.3C11.575-60 12.075-60.5 12.775-60.5L36.775-60.5C37.375-60.5 37.975-60 37.975-59.3C37.975-58.6 37.375-58.1 36.775-58.1ZM76.775-58.1L68.775-58.1C68.175-58.1 67.575-58.6 67.575-59.3C67.575-60 68.075-60.5 68.775-60.5L76.775-60.5C77.375-60.5 77.975-60 77.975-59.3C77.975-58.6 77.375-58.1 76.775-58.1ZM60.775-50.1C55.675-50.1 51.575-54.2 51.575-59.3C51.575-64.4 55.675-68.5 60.775-68.5C65.875-68.5 69.975-64.4 69.975-59.3C69.975-54.2 65.775-50.1 60.775-50.1ZM60.775-66.1C56.975-66.1 53.975-63 53.975-59.3C53.975-55.5 57.075-52.5 60.775-52.5C64.475-52.5 67.575-55.6 67.575-59.3C67.575-63 64.475-66.1 60.775-66.1Z"/>
  </g>
 </g>
</svg>
