<svg width="160" height="77" viewBox="0 0 160 77" fill="none" xmlns="http://www.w3.org/2000/svg">
<path d="M148 0.195312H12C5.37258 0.195312 0 5.5679 0 12.1953V57.1953C0 63.8227 5.37258 69.1953 12 69.1953H148C154.627 69.1953 160 63.8227 160 57.1953V12.1953C160 5.5679 154.627 0.195312 148 0.195312Z" fill="#222F3B"/>
<mask id="mask0_4038_86409" style="mask-type:alpha" maskUnits="userSpaceOnUse" x="0" y="0" width="160" height="70">
<path d="M148 0.195312H12C5.37258 0.195312 0 5.5679 0 12.1953V57.1953C0 63.8227 5.37258 69.1953 12 69.1953H148C154.627 69.1953 160 63.8227 160 57.1953V12.1953C160 5.5679 154.627 0.195312 148 0.195312Z" fill="#222F3B"/>
</mask>
<g mask="url(#mask0_4038_86409)">
<path d="M99.3516 73.9527C99.3526 73.9527 99.3529 73.9541 99.3519 73.9545L94.197 76.1631C93.8217 76.3239 93.3893 76.274 93.0606 76.032L65.491 55.7372C63.3335 54.1489 64.5487 52.2378 67.2265 52.3223C68.3072 52.3565 69.0368 52.5737 69.9204 53.1968L99.351 73.9525C99.3512 73.9526 99.3514 73.9527 99.3516 73.9527Z" fill="#101619"/>
<path d="M57.9988 22.9505C57.9978 22.9515 57.9985 22.9531 57.9999 22.9532C70.8382 23.7795 81.1413 31.8939 81.0013 41.088C80.9218 46.4332 77.3301 50.9648 71.8176 53.6602C71.0977 54.0122 70.247 53.9171 69.5878 53.4615L69.4015 53.3328C69.0168 53.0669 68.5432 52.9623 68.0823 53.0414L65.5777 53.4711C64.9955 53.571 64.8113 54.3162 65.2799 54.6759C65.7336 55.024 65.5764 55.7357 65.0135 55.8368C62.6543 56.2605 60.1288 56.4087 57.5063 56.238C44.6663 55.413 34.3663 47.298 34.5013 38.103C34.6413 28.9139 45.1594 22.1293 57.9978 22.9478C57.9991 22.9479 57.9998 22.9495 57.9988 22.9505Z" fill="#101619"/>
<path d="M68.7964 52.9166C68.7964 52.9151 68.798 52.9142 68.7992 52.9151L69.7384 53.5641C70.1289 53.8339 70.0655 54.4258 69.6202 54.5902C68.7495 54.9117 67.8439 55.1928 66.9073 55.4283C66.594 55.5071 66.2629 55.4342 66.0067 55.2375C65.259 54.6637 65.553 53.4746 66.4819 53.3152L68.7949 52.9183C68.7957 52.9182 68.7964 52.9174 68.7964 52.9166Z" fill="#101619"/>
</g>
<path d="M123.452 50.5176L60.6618 50.6926C60.0468 50.6926 59.4918 50.3126 59.2718 49.7376L46.0968 15.3226C45.7268 14.3476 46.4418 13.3076 47.4868 13.3076L110.307 13.3726L125.272 47.7376C125.842 49.0526 124.882 50.5226 123.452 50.5226V50.5176Z" fill="#688FB7"/>
<path d="M123.454 49.6856L60.6638 49.8606C60.0488 49.8606 59.4938 49.4806 59.2738 48.9056L46.0988 14.4906C45.7288 13.5156 46.4438 12.4756 47.4888 12.4756L110.309 12.5406L125.274 46.9056C125.844 48.2206 124.884 49.6906 123.454 49.6906V49.6856Z" fill="#688FB7"/>
<path d="M124.119 48.4103L61.1738 48.5853C60.4438 48.5853 59.7838 48.1353 59.5238 47.4503L46.5638 13.5903C46.1238 12.4353 46.9738 11.1953 48.2138 11.1953L109.474 11.2553C110.174 11.2553 110.809 11.6703 111.089 12.3153L125.734 45.9403C126.239 47.1053 125.389 48.4053 124.124 48.4053L124.119 48.4103Z" fill="#D5DADD"/>
<path d="M111.45 21.25H104.2L114.2 44.7501H121.45L111.45 21.25Z" fill="#101619"/>
<path d="M110.95 44.7499H103.95L96.9502 28H103.95L110.95 44.7499Z" fill="#101619"/>
<path d="M100.7 44.9999H93.7002L86.7002 28.25H93.7002L100.7 44.9999Z" fill="#101619"/>
<path d="M70.47 16.358H52.15C51.87 16.358 51.6171 16.188 51.5075 15.928C51.3197 15.4781 51.6412 14.9932 52.1262 14.9932H70.4462C70.7262 14.9932 70.9792 15.1631 71.0887 15.4231C71.2766 15.873 70.955 16.358 70.47 16.358Z" fill="#2A4259"/>
<path d="M94.4562 20.2879H85.6312C85.3462 20.2879 85.0912 20.1179 84.9862 19.8529L84.9612 19.7979C84.7712 19.3379 85.1162 18.8329 85.6112 18.8379L94.4612 18.8929C94.7312 18.8929 94.9762 19.0529 95.0912 19.2979C95.3062 19.7579 94.9662 20.2879 94.4562 20.2879Z" fill="#D5DADD"/>
<path d="M61.11 48.5767L72.05 48.5467C77.55 45.8517 81.135 41.3317 81.21 35.9967C81.35 26.8017 71.045 18.6817 58.205 17.8617C54.75 17.6417 51.46 17.9717 48.5 18.7517L50.045 22.8517L59.46 47.4417C59.72 48.1267 60.38 48.5767 61.11 48.5767Z" fill="#101619"/>
<path fill-rule="evenodd" clip-rule="evenodd" d="M56.4012 14.8351C56.4012 14.8351 52.7145 24.9641 58.8374 33.9106C64.9604 42.8572 73.8947 46.5299 83.6699 45.4984C93.445 44.4669 101.379 36.1117 100.133 24.5368C98.8867 12.962 92.5136 9.21165 88.8614 6.55747C85.2092 3.90328 75.8351 1.76699 69.4232 3.2214C63.0114 4.6758 56.3968 14.8307 56.3968 14.8307L56.4012 14.8351Z" fill="#8D2A00"/>
<path fill-rule="evenodd" clip-rule="evenodd" d="M75.0636 5.92641C86.1064 6.09041 96.1619 14.0271 97.5245 23.6512C98.8827 33.2753 91.035 40.94 79.9921 40.776C68.9492 40.612 58.8938 32.6754 57.5312 23.0513C56.173 13.4272 64.0207 5.76241 75.0636 5.92641Z" fill="#4D82B8"/>
<mask id="mask1_4038_86409" style="mask-type:luminance" maskUnits="userSpaceOnUse" x="57" y="5" width="41" height="36">
<path d="M75.0643 5.92641C86.1072 6.09041 96.1626 14.0271 97.5252 23.6512C98.8834 33.2753 91.0357 40.94 79.9928 40.776C68.95 40.612 58.8945 32.6754 57.532 23.0513C56.1737 13.4272 64.0214 5.76241 75.0643 5.92641Z" fill="white"/>
</mask>
<g mask="url(#mask1_4038_86409)">
<path fill-rule="evenodd" clip-rule="evenodd" d="M75.0636 5.92641C86.1064 6.09041 96.1619 14.0271 97.5245 23.6512C98.8827 33.2753 91.035 40.94 79.9921 40.776C68.9492 40.612 58.8938 32.6754 57.5312 23.0513C56.173 13.4272 64.0207 5.76241 75.0636 5.92641Z" fill="#D0C1CB"/>
<path fill-rule="evenodd" clip-rule="evenodd" d="M94.3121 -9.11523C95.1529 -8.73113 95.3987 -7.63494 95.8946 -6.90126C97.3391 -4.84697 98.7836 -2.79267 100.228 -0.73838C99.0552 0.0772943 97.8781 0.892969 96.7009 1.70864L95.7954 -0.492383C83.4158 8.02257 71.0362 16.5418 58.6523 25.0568C57.7425 26.6062 56.837 28.1555 55.9272 29.7049C53.8747 31.1161 51.8222 32.5274 49.7741 33.9386C49.6706 33.8695 49.5671 33.7962 49.4636 33.7271C49.4334 33.8782 49.5024 33.9818 49.3558 33.8825C48.3382 32.372 47.3163 30.8658 46.2986 29.3553C46.027 28.9582 45.2595 28.2375 45.3845 27.8318L49.3817 25.1302C49.6275 23.8484 49.8689 22.5666 50.1147 21.2848L56.5869 16.7965C69.1605 8.16068 81.7342 -0.47512 94.3078 -9.11092L94.3121 -9.11523ZM119.8 9.86971C121.279 11.9931 122.758 14.1164 124.233 16.2397C124.612 16.7361 125.781 17.7287 125.5 18.4451C112.823 27.1111 100.146 35.7814 87.4647 44.4518C84.4334 46.5578 81.3978 48.6682 78.3622 50.7743C77.7542 51.2275 75.7794 53.1005 74.9989 52.807L70.8724 46.5967C70.3894 45.8975 69.7901 45.4098 69.4451 44.5424C86.2272 32.9848 103.009 21.423 119.791 9.86108L119.8 9.86971Z" fill="#D5DADD"/>
</g>
<path d="M81.0526 42.145C80.9319 42.145 80.8155 42.145 80.6947 42.145C68.6256 41.9638 57.5439 32.8273 55.9873 21.7704C55.2629 16.6347 56.6772 11.7493 59.9672 8.01614C63.5893 3.90755 69.212 1.60726 75.3652 1.69789C87.4343 1.87915 98.516 11.0156 100.073 22.0725C100.797 27.2082 99.3827 32.0937 96.0927 35.8268C92.5396 39.8577 87.0721 42.1493 81.0483 42.1493L81.0526 42.145ZM75.0073 4.03703C69.6562 4.03703 64.8268 6.04384 61.7222 9.56549C58.8936 12.7764 57.6776 16.9929 58.3071 21.4424C59.7085 31.3988 69.7683 39.6333 80.7292 39.7973C80.837 39.7973 80.9448 39.7973 81.0526 39.7973C86.4037 39.7973 91.2331 37.7904 94.3377 34.2688C97.1663 31.0579 98.3823 26.8414 97.7528 22.3919C96.3514 12.4355 86.2916 4.20102 75.3307 4.03703C75.2229 4.03703 75.1151 4.03703 75.0073 4.03703Z" fill="#C35500"/>
<path fill-rule="evenodd" clip-rule="evenodd" d="M93.1093 74.8148C93.1093 74.8148 82.7089 46.3438 82.4028 45.5282C82.0967 44.7082 82.2476 42.6194 84.2785 42.1187C86.3094 41.6138 87.4995 43.7285 87.935 44.7254C88.3705 45.7224 99.6376 73.3518 99.6376 73.3518L96.9685 74.3012L93.1093 74.8191V74.8148Z" fill="#C35500"/>
<path fill-rule="evenodd" clip-rule="evenodd" d="M95.4803 70.8576L84.1485 42.0371C84.1485 42.0371 81.501 43.0556 82.4022 45.5242C83.3077 47.9928 93.0742 74.8022 93.044 74.7245C93.0138 74.6469 93.9582 72.8342 95.8856 72.1049L95.476 70.8576H95.4803Z" fill="#8D2A00"/>
<path fill-rule="evenodd" clip-rule="evenodd" d="M95.493 70.8528L84.1439 41.9805C84.1439 41.9805 81.4878 42.999 82.3933 45.4762C83.2988 47.9491 93.0826 74.806 93.0567 74.7283C93.0308 74.6506 93.9708 72.838 95.9026 72.1043L95.493 70.8571V70.8528Z" fill="#8D2A00"/>
<path fill-rule="evenodd" clip-rule="evenodd" d="M99.5851 73.0756L97.9164 69.1224C97.9164 69.1224 96.5624 67.5558 94.303 68.2161C92.0435 68.8764 91.7029 71.0386 91.7029 71.0386L93.0482 74.7286L99.5894 73.0799L99.5851 73.0756Z" fill="#C35500"/>
<mask id="mask2_4038_86409" style="mask-type:luminance" maskUnits="userSpaceOnUse" x="91" y="68" width="9" height="7">
<path d="M99.5852 73.0756L97.9165 69.1224C97.9165 69.1224 96.5626 67.5558 94.3031 68.2161C92.0436 68.8764 91.703 71.0386 91.703 71.0386L93.0483 74.7286L99.5895 73.0799L99.5852 73.0756Z" fill="white"/>
</mask>
<g mask="url(#mask2_4038_86409)">
<path fill-rule="evenodd" clip-rule="evenodd" d="M94.2515 67.7373L95.6442 71.3884L93.9281 75.7516L93.333 76.8478L91.4961 74.4612L90.0775 69.3643L94.2515 67.7373Z" fill="#8D2A00"/>
</g>
<path fill-rule="evenodd" clip-rule="evenodd" d="M96.3387 70.8627C98.2187 70.8929 99.7279 72.2437 99.702 73.8837C99.6762 75.5237 98.1325 76.8314 96.2482 76.8055C94.3638 76.7796 92.859 75.4244 92.8849 73.7844C92.9107 72.1445 94.4544 70.8368 96.3344 70.8627H96.3387Z" fill="#8D2A00"/>
<path d="M71.3671 19.107L73.5705 20.0953C73.5705 20.0953 73.9888 18.5071 75.3556 17.5275C76.425 16.7593 78.3223 16.4831 79.9392 17.7821C83.1559 20.3672 81.056 22.3741 80.1462 24.6053C79.6935 25.7101 79.6891 27.0135 80.4567 28.183L82.5738 27.7428C82.5738 27.7428 82.065 27.376 82.2116 25.913C82.2892 25.1275 83.1818 24.1737 83.7467 22.5467C84.9238 19.1804 81.6468 15.2617 77.7315 14.8992C75.3513 14.6791 72.859 15.5422 71.3628 19.12L71.3671 19.107Z" fill="#00144A"/>
<path d="M84.3179 32.3125C84.8853 31.7718 84.797 30.7569 84.1205 30.0457C83.444 29.3344 82.4356 29.1961 81.8681 29.7368C81.3006 30.2775 81.389 31.2924 82.0655 32.0037C82.742 32.7149 83.7504 32.8532 84.3179 32.3125Z" fill="#00144A"/>
</svg>
