<svg width="320" height="240" viewBox="0 0 320 240" fill="none" xmlns="http://www.w3.org/2000/svg">
<path d="M305.547 19H14.4533C12.5559 18.9983 10.6768 19.3705 8.92329 20.0954C7.16981 20.8203 5.57638 21.8836 4.23409 23.2247C2.8918 24.5657 1.82697 26.1582 1.10045 27.911C0.373942 29.6638 -8.08861e-07 31.5426 0 33.44V204.547C0 208.38 1.52275 212.056 4.23328 214.767C6.9438 217.477 10.6201 219 14.4533 219H305.547C309.38 219 313.056 217.477 315.767 214.767C318.477 212.056 320 208.38 320 204.547V33.44C320 31.5426 319.626 29.6638 318.9 27.911C318.173 26.1582 317.108 24.5657 315.766 23.2247C314.424 21.8836 312.83 20.8203 311.077 20.0954C309.323 19.3705 307.444 18.9983 305.547 19Z" fill="#223548"/>
<path d="M307.616 114.776L250.514 95.171C248.093 94.3398 245.459 95.633 244.629 98.0593L216.168 181.324C215.339 183.751 216.629 186.392 219.05 187.223L276.152 206.828C278.573 207.659 281.208 206.366 282.037 203.939L310.498 120.674C311.327 118.248 310.037 115.607 307.616 114.776Z" fill="#2A4259"/>
<path d="M273.369 116.204C271.484 115.449 269.418 115.272 267.433 115.695C265.447 116.118 263.631 117.121 262.214 118.578C260.798 120.034 259.844 121.88 259.473 123.88C259.103 125.88 259.332 127.945 260.133 129.815C260.934 131.684 262.269 133.274 263.971 134.382C265.673 135.491 267.665 136.069 269.694 136.043C271.724 136.018 273.701 135.389 275.374 134.238C277.047 133.086 278.343 131.464 279.096 129.575L269.558 125.763L273.369 116.204Z" fill="#223548"/>
<path d="M276.42 114.793L272.617 124.344L282.147 128.155C282.647 126.901 282.895 125.56 282.878 124.21C282.861 122.859 282.579 121.526 282.047 120.285C281.515 119.044 280.744 117.92 279.779 116.978C278.813 116.035 277.672 115.293 276.42 114.793Z" fill="#324E6B"/>
<path d="M284.329 148.955L244.538 135.293C243.218 134.84 241.781 135.545 241.329 136.868C240.876 138.191 241.58 139.631 242.9 140.084L282.691 153.746C284.011 154.199 285.448 153.494 285.9 152.171C286.352 150.848 285.649 149.408 284.329 148.955Z" fill="#223548"/>
<path d="M280.888 157.058L241.097 143.397C239.777 142.944 238.34 143.649 237.888 144.972C237.436 146.295 238.14 147.735 239.46 148.188L279.251 161.85C280.571 162.303 282.007 161.598 282.46 160.275C282.912 158.952 282.208 157.512 280.888 157.058Z" fill="#223548"/>
<path d="M259.034 158.632L237.836 151.354C236.515 150.901 235.079 151.606 234.626 152.929C234.174 154.252 234.878 155.692 236.198 156.145L257.396 163.423C258.716 163.876 260.153 163.171 260.605 161.848C261.057 160.525 260.354 159.085 259.034 158.632Z" fill="#223548"/>
<path d="M16 214.207C16 212.949 17.0195 211.93 18.2772 211.93H167.058C168.316 211.93 169.335 212.949 169.335 214.207V215.144H16V214.207Z" fill="#2A4259"/>
<path d="M19.1473 217.884C19.5646 218.257 20.1045 218.463 20.664 218.463H164.671C165.231 218.463 165.771 218.257 166.188 217.884L169.335 215.074H16L19.1473 217.884Z" fill="#324E6B"/>
<rect x="31.0908" y="129.906" width="123.154" height="82.1674" rx="4.55436" fill="#2A4259"/>
<path d="M92.6675 132.656C93.103 132.656 93.456 132.302 93.456 131.866C93.456 131.43 93.103 131.076 92.6675 131.076C92.232 131.076 91.8789 131.43 91.8789 131.866C91.8789 132.302 92.232 132.656 92.6675 132.656Z" fill="#3B5B7C"/>
<rect x="35.1621" y="133.736" width="115.011" height="74.5088" rx="3.03624" fill="#223548"/>
<path d="M83.7471 211.473H101.588V212.019C101.588 212.857 100.908 213.537 100.069 213.537H85.2652C84.4268 213.537 83.7471 212.857 83.7471 212.019V211.473Z" fill="#3B5B7C"/>
<path d="M258.613 45.3833C258.613 44.1945 255.162 43.2429 250.551 43.0267C250.287 38.4216 249.272 34.9974 248.083 35C246.894 35.0026 245.906 38.4532 245.653 43.0821C241.029 43.3984 237.591 44.4317 237.606 45.6232C237.622 46.8147 241.058 47.7663 245.668 47.9798C245.945 52.585 246.947 56.0092 248.133 56.0066C249.32 56.0039 250.314 52.5534 250.567 47.9245C255.191 47.6082 258.626 46.5748 258.613 45.3833Z" fill="#F58B00"/>
<path d="M275.618 66.8966C275.618 66.1304 273.394 65.5172 270.422 65.3779C270.252 62.4101 269.598 60.2034 268.832 60.2051C268.066 60.2068 267.429 62.4305 267.265 65.4135C264.285 65.6174 262.07 66.2833 262.08 67.0512C262.09 67.819 264.304 68.4323 267.276 68.5699C267.454 71.5376 268.1 73.7443 268.864 73.7426C269.629 73.7409 270.269 71.5172 270.432 68.5342C273.412 68.3303 275.626 67.6644 275.618 66.8966Z" fill="#F58B00"/>
<path d="M23.5136 67.2369L80.6155 47.632C83.0365 46.8008 85.6714 48.0939 86.5007 50.5203L114.962 133.785C115.791 136.212 114.501 138.852 112.08 139.684L54.978 159.289C52.5571 160.12 49.9222 158.827 49.0928 156.4L20.6318 73.1352C19.8024 70.7089 21.0927 68.0681 23.5136 67.2369Z" fill="#2A4259"/>
<path fill-rule="evenodd" clip-rule="evenodd" d="M75.3715 78.1518C76.4624 78.2857 77.2381 79.2786 77.1041 80.3695L73.6041 108.869C73.5215 109.542 73.1024 110.126 72.4918 110.42C71.8812 110.714 71.1631 110.677 70.586 110.322L60.1398 103.893L56.5958 126.93C56.4287 128.016 55.4126 128.761 54.3264 128.594C53.2401 128.427 52.495 127.411 52.6621 126.324L56.6621 100.324C56.7635 99.6652 57.1883 99.1007 57.7935 98.8208C58.3987 98.5408 59.104 98.5826 59.6719 98.9321L70.0317 105.307L73.1538 79.8844C73.2878 78.7935 74.2807 78.0178 75.3715 78.1518Z" fill="#324E6B"/>
<path d="M35.451 83.6875C35.2731 83.1676 35.5504 82.6019 36.0703 82.424L38.9182 81.4494C39.4381 81.2715 40.0038 81.5488 40.1817 82.0687L55.61 127.156C55.7879 127.676 55.5106 128.241 54.9907 128.419L52.1428 129.394C51.6229 129.572 51.0572 129.294 50.8793 128.775L35.451 83.6875Z" fill="#223548"/>
<path d="M52.7094 130.812C52.1903 130.993 51.6234 130.718 51.443 130.199L50.4554 127.355C50.2751 126.836 50.5497 126.269 51.0688 126.089L96.0841 110.453C96.6032 110.272 97.1702 110.547 97.3505 111.066L98.3382 113.91C98.5185 114.429 98.2438 114.996 97.7247 115.176L52.7094 130.812Z" fill="#223548"/>
<path d="M55.8005 140.077C55.4314 139.042 55.9681 137.894 57.0034 137.525L78.6868 129.795C79.7221 129.426 80.8638 129.976 81.2329 131.011C81.6019 132.046 81.0652 133.194 80.03 133.563L58.3465 141.293C57.3113 141.662 56.1695 141.112 55.8005 140.077Z" fill="#223548"/>
<path d="M93.9316 61.127C93.9316 55.6041 98.4088 51.127 103.932 51.127H208.54L236.067 73.9487V179.817C236.067 185.34 231.59 189.817 226.067 189.817H103.932C98.4088 189.817 93.9316 185.34 93.9316 179.817V61.127Z" fill="#B9C1C6"/>
<path d="M88.9316 54.1269C88.9316 49.7087 92.5134 46.127 96.9316 46.127H202.44L231.067 70.103V176.817C231.067 181.236 227.486 184.817 223.067 184.817H96.9316C92.5134 184.817 88.9316 181.236 88.9316 176.817V54.1269Z" fill="#CEDBE8"/>
<path d="M202.286 69.8848L231.068 75.6889V69.8848H202.286Z" fill="white"/>
<path d="M202.286 69.8857H231.068L202.286 46.127V69.8857Z" fill="#B9C1C6"/>
<rect x="103.671" y="84.1934" width="111.557" height="86.0762" rx="6" fill="#223548"/>
<path d="M125.524 59H106.299C105.004 59 103.953 60.0505 103.953 61.3463C103.953 62.6421 105.004 63.6926 106.299 63.6926H125.524C126.82 63.6926 127.87 62.6421 127.87 61.3463C127.87 60.0505 126.82 59 125.524 59Z" fill="#0070F3"/>
<path d="M144.611 68.1152H105.942C104.843 68.1152 103.953 69.0055 103.953 70.1037C103.953 71.2019 104.843 72.0922 105.942 72.0922H144.611C145.709 72.0922 146.6 71.2019 146.6 70.1037C146.6 69.0055 145.709 68.1152 144.611 68.1152Z" fill="#1782FF"/>
<rect x="103.953" y="84.1934" width="111.557" height="86.0762" rx="6" fill="#EBF8FF"/>
<rect x="103.953" y="113.842" width="111.557" height="56.4281" rx="6" fill="#2A4259"/>
<rect x="103.953" y="142.711" width="111.557" height="27.5579" rx="6" fill="#324E6B"/>
<path fill-rule="evenodd" clip-rule="evenodd" d="M220.966 96.5455C221.738 98.0114 221.176 99.8258 219.71 100.598L193.563 114.375C192.815 114.769 192.009 115.042 191.176 115.184L139.871 123.917C139.688 123.948 139.509 124.005 139.342 124.085L97.8604 143.996C96.3667 144.713 94.5746 144.084 93.8577 142.59C93.1407 141.096 93.7703 139.304 95.264 138.587L136.745 118.676C137.417 118.354 138.13 118.127 138.865 118.002L190.169 109.269C190.377 109.234 190.579 109.165 190.766 109.067L216.914 95.2898C218.379 94.5175 220.194 95.0797 220.966 96.5455Z" fill="#F58B00"/>
<path fill-rule="evenodd" clip-rule="evenodd" d="M222.293 108.928C223.421 110.141 223.352 112.039 222.139 113.168L191.572 141.59C190.092 142.966 188.145 143.731 186.124 143.731H137.563C137.264 143.731 136.97 143.798 136.701 143.926L100.101 161.407C98.6062 162.121 96.8153 161.488 96.1012 159.993C95.3872 158.498 96.0203 156.707 97.5154 155.993L134.115 138.512C135.191 137.998 136.369 137.731 137.563 137.731H186.124C186.629 137.731 187.116 137.54 187.486 137.196L218.053 108.774C219.267 107.645 221.165 107.715 222.293 108.928Z" fill="#0070F3"/>
</svg>
