<svg width="128" height="69" viewBox="0 0 128 69" fill="none" xmlns="http://www.w3.org/2000/svg">
<rect y="7.09961" width="128" height="55.2" rx="8" fill="#222F3B"/>
<path d="M95.2003 9.22266L74.0405 16.284L79.5631 18.9516L80.2094 21.7795L82.1603 20.1455C83.0678 20.1569 84.586 20.348 86.812 21.1548L95.2003 9.22266Z" fill="#101619"/>
<path d="M40.7999 19.3152L44.0254 22.1717L44.657 23.3708L45.4459 22.9311C46.1183 23.2404 47.261 23.902 47.7699 24.9991L56.9258 16.5205L40.7999 19.3148V19.3152Z" fill="#101619"/>
<path d="M63.7389 48.9954L65.9514 51.1079L67.1671 49.2598L69.102 49.4078L74.7716 37.6998L55.9587 49.9331L63.7389 48.9954Z" fill="#101619"/>
<path d="M85.1556 17.5363C83.8583 19.5018 81.6641 20.5383 79.4389 21.0786C78.29 21.3575 77.1157 21.5163 75.9375 21.6095C74.7599 21.7021 73.542 21.7672 72.3803 21.507C71.2187 21.2467 70.2269 20.6563 69.7919 19.5481C69.3409 18.3991 69.5322 17.0137 70.1216 15.9502C70.6696 14.9605 71.6449 14.0387 72.8192 13.9268C73.8088 13.8325 74.7025 14.3381 75.2329 15.1585C76.4122 16.9817 75.9617 19.3028 74.8856 21.0499C73.6875 22.9939 71.7425 24.3479 69.7318 25.3508C67.4328 26.497 64.9507 27.1917 62.4918 27.9018C59.6596 28.7188 56.8148 29.5304 54.1172 30.735C49.6355 32.7374 45.2894 36.2582 44.0588 41.2262C43.9138 41.8117 43.8212 42.4093 43.7716 43.0102C43.7369 43.4314 44.3935 43.4292 44.4282 43.0102C44.8698 37.6244 49.3934 33.6598 53.9975 31.508C56.8016 30.1975 59.7969 29.3628 62.7619 28.5071C65.3339 27.7645 67.9223 27.0229 70.3123 25.7918C72.4145 24.7085 74.418 23.2133 75.605 21.1243C76.6829 19.2272 77.0429 16.7496 75.7997 14.8282C75.2169 13.9268 74.2868 13.3137 73.1996 13.263C71.9861 13.2062 70.8504 13.9025 70.1034 14.8177C68.5029 16.7777 68.3165 20.1402 70.7142 21.5693C71.7733 22.2005 73.0645 22.3428 74.2741 22.3439C75.4997 22.3444 76.7358 22.222 77.9465 22.0379C80.3282 21.6751 82.7921 20.9198 84.5828 19.2333C85.0156 18.8259 85.3949 18.365 85.7218 17.8693C85.955 17.5159 85.3872 17.1868 85.1551 17.538L85.1556 17.5363Z" fill="#D0CDB3"/>
<path d="M68.643 42.1957C68.6937 45.4557 67.472 48.5646 65.5617 51.1701C63.573 53.8827 60.8864 56.0069 57.9126 57.5462C54.5076 59.3088 50.7884 60.358 47.0598 61.1827C43.3312 62.0075 39.5778 62.6046 35.8723 63.4851C32.2055 64.3562 28.5645 65.5073 25.2665 67.3631C24.8602 67.5919 24.4599 67.8317 24.0657 68.0809C23.7096 68.3058 24.0387 68.8742 24.3971 68.6477C27.6482 66.5929 31.2974 65.3138 35.0084 64.3732C38.7607 63.4222 42.5858 62.808 46.3695 62.0037C50.134 61.2031 53.8863 60.208 57.3723 58.5457C60.4917 57.0588 63.3327 54.9947 65.5143 52.297C67.5635 49.7632 69.0096 46.7132 69.2621 43.4356C69.2941 43.0232 69.3046 42.6092 69.2985 42.1957C69.2925 41.7822 68.6353 41.7723 68.6419 42.1957H68.643Z" fill="#D0CDB3"/>
<path d="M29.7724 47.1213C32.8521 44.443 35.3738 41.1196 37.1055 37.4224C37.8537 35.8247 38.5665 33.8388 37.927 32.0856C37.2946 30.3517 35.2933 29.3312 33.5368 30.038C31.9523 30.6759 30.5503 33.0113 31.949 34.4954C33.179 35.8004 35.199 35.6946 36.708 35.012C40.457 33.3167 41.0001 28.7578 42.9358 25.5778C44.8428 22.4446 47.8602 19.9851 51.3187 18.759C51.7514 18.6057 52.1908 18.4723 52.6352 18.356C53.0437 18.249 52.8706 17.6161 52.4604 17.7231C49.1327 18.5925 46.1004 20.5249 43.8824 23.1514C42.7274 24.5192 41.8436 26.0436 41.1429 27.6877C40.4069 29.4133 39.7872 31.2746 38.5853 32.7477C37.5945 33.9623 36.0371 34.904 34.4316 34.8604C33.6752 34.84 32.8118 34.5478 32.3278 33.9353C31.7753 33.2357 32.1194 32.17 32.6089 31.5332C33.1134 30.8777 33.8913 30.4669 34.7227 30.4713C35.5547 30.4757 36.3877 30.8639 36.8938 31.531C37.9546 32.9291 37.4534 34.8957 36.8547 36.3755C36.1457 38.1276 35.1588 39.7992 34.0821 41.3478C32.9938 42.9131 31.7472 44.3674 30.3706 45.6868C30.0243 46.0187 29.6693 46.3412 29.307 46.6565C28.9878 46.9344 29.4537 47.397 29.7713 47.1208L29.7724 47.1213Z" fill="#D0CDB3"/>
<path d="M84.2629 19.8029L83.4133 14.2626L103.971 0.299805L84.2629 19.8029Z" fill="#046C7C"/>
<path d="M85.4393 17.1438L84.2617 19.8034L86.8265 17.2656L87.1308 16.9613L85.9118 16.7148L85.4393 17.1438Z" fill="#00144A"/>
<path d="M76.1523 7.63351L83.4122 14.2626L103.97 0.299805L76.1523 7.63351Z" fill="#0899A7"/>
<path d="M85.4382 17.1433C85.4382 17.1433 87.6954 16.6262 92.9407 20.5047L103.969 0.299805L85.4382 17.1433Z" fill="#0899A7"/>
<path d="M50.6756 19.0193L49.9766 16.9563L64.2481 11.0488L50.6756 19.0193Z" fill="#046C7C"/>
<path d="M46.4078 11.6294L49.976 16.9563L64.2476 11.0488L46.4078 11.6294Z" fill="#0899A7"/>
<path d="M50.97 18.0469L50.675 19.0194L51.7556 18.3865L50.97 18.0469Z" fill="#00144A"/>
<path d="M50.9703 18.0468C50.9703 18.0468 53.2953 19.6252 54.1189 22.3625L64.2479 11.0488L50.9703 18.0468Z" fill="#0899A7"/>
<path d="M64.8954 42.312L68.0925 48.0634L81.3949 25.8252L64.8954 42.312Z" fill="#046C7C"/>
<path d="M54.5797 41.4514L65.3471 43.01L81.3939 25.8252L54.5797 41.4514Z" fill="#0899A7"/>
<path d="M66.2375 43.415L68.0917 48.0633L69.9893 44.8783L66.2375 43.415Z" fill="#00144A"/>
<path d="M66.2375 43.4152L72.5497 46.1244L81.394 25.8252L66.2375 43.4152Z" fill="#0899A7"/>
</svg>
