<svg width="128" height="129" viewBox="0 0 128 129" fill="none" xmlns="http://www.w3.org/2000/svg">
<circle cx="64" cy="64.7695" r="64" fill="#223548"/>
<path fill-rule="evenodd" clip-rule="evenodd" d="M118.5 98.3397C124.524 88.5805 128 77.0814 128 64.7705C128 62.8249 127.913 60.8995 127.743 58.998H118.5V98.3397Z" fill="#324E6B"/>
<path fill-rule="evenodd" clip-rule="evenodd" d="M107.974 102.096H101.572V64.8712V58.9004H107.974V102.096Z" fill="#2A4259"/>
<path d="M107.97 68.0691C104.849 67.6233 102.405 66.4864 101.572 65.9737L107.97 65.4609V68.0691Z" fill="#3B5B7C"/>
<path fill-rule="evenodd" clip-rule="evenodd" d="M114.208 65.0128L113.709 65.1435C107.59 66.7468 101.155 66.7017 95.0579 65.0128C94.8866 65.0128 94.7399 64.8897 94.7107 64.7212L91.8374 48.3276C91.7997 48.1118 91.9657 47.9141 92.1847 47.9141H104.633H117.081C117.301 47.9141 117.466 48.1118 117.429 48.3276L114.555 64.7212C114.526 64.8897 114.379 65.0128 114.208 65.0128Z" fill="#324E6B"/>
<ellipse cx="104.632" cy="48.1084" rx="12.7252" ry="1.33491" fill="#3B5B7C"/>
<path fill-rule="evenodd" clip-rule="evenodd" d="M106.221 57.9669C105.893 57.9732 105.625 57.7081 105.625 57.3799V53.255C105.625 52.9325 105.884 52.6702 106.206 52.6636C106.936 52.6487 107.646 52.6236 108.338 52.5892C108.677 52.5723 108.962 52.8412 108.962 53.1802V57.3084C108.962 57.6213 108.717 57.8798 108.405 57.8946C107.694 57.9282 106.967 57.9525 106.221 57.9669ZM111.365 57.6948C111.023 57.7251 110.73 57.4541 110.73 57.1104V52.9686C110.73 52.6627 110.964 52.408 111.268 52.3793C112 52.3103 112.709 52.2306 113.395 52.1416C113.75 52.0954 114.067 52.3706 114.067 52.7288V56.8833C114.067 57.1794 113.847 57.4298 113.553 57.4655C112.845 57.5516 112.116 57.6284 111.365 57.6948ZM115.865 57.1413C115.849 57.1439 115.834 57.1314 115.834 57.115V52.152C115.834 51.9316 115.997 51.7426 116.214 51.703C116.527 51.646 116.799 51.918 116.744 52.2314L115.887 57.1196C115.885 57.1308 115.877 57.1395 115.865 57.1413ZM93.3719 57.0868C93.3822 57.1456 93.4287 57.1913 93.4878 57.2002C93.5718 57.2128 93.6474 57.1478 93.6474 57.0628V52.3213C93.6474 52.0543 93.4476 51.8259 93.1844 51.7808C92.8099 51.7167 92.4879 52.0426 92.5535 52.4169L93.3719 57.0868ZM103.273 52.6685C103.597 52.6738 103.857 52.9365 103.857 53.2597V57.3844C103.857 57.7118 103.59 57.9766 103.263 57.9716C102.518 57.9601 101.79 57.9392 101.08 57.9097C100.766 57.8967 100.52 57.6375 100.52 57.3232V53.1959C100.52 52.8585 100.803 52.5902 101.14 52.605C101.832 52.6352 102.543 52.6566 103.273 52.6685ZM98.2086 52.4171C98.5153 52.4433 98.7523 52.6989 98.7523 53.0067V57.1455C98.7523 57.4875 98.462 57.7578 98.1211 57.7304C97.3708 57.6702 96.6421 57.5999 95.9342 57.5207C95.6378 57.4875 95.4149 57.236 95.4149 56.9377V52.7879C95.4149 52.4322 95.7277 52.1578 96.0808 52.1999C96.7667 52.2817 97.4757 52.3545 98.2086 52.4171Z" fill="#2A4259"/>
<path fill-rule="evenodd" clip-rule="evenodd" d="M127.186 75.0039C126.576 78.7965 125.634 82.4776 124.389 86.0164V75.0039H127.186Z" fill="#324E6B"/>
<path fill-rule="evenodd" clip-rule="evenodd" d="M118.865 97.7418H112.49V69.3182C112.49 69.0552 112.769 68.8852 113.002 69.0069L124.201 74.8236C124.317 74.8835 124.389 75.0027 124.389 75.1324V86.017C122.94 90.1343 121.083 94.0589 118.865 97.7418Z" fill="#2A4259"/>
<path fill-rule="evenodd" clip-rule="evenodd" d="M119.585 82.8422H121.833C122.028 82.8422 122.186 82.6846 122.186 82.4897V78.2725C122.186 78.0779 122.028 77.9199 121.833 77.9199H119.585C119.39 77.9199 119.232 78.0779 119.232 78.2725V82.4897C119.232 82.6846 119.39 82.8422 119.585 82.8422ZM119.585 89.7609H121.833C122.028 89.7609 122.186 89.6033 122.186 89.4084V85.1912C122.186 84.9966 122.028 84.8386 121.833 84.8386H119.585C119.39 84.8386 119.232 84.9966 119.232 85.1912V89.4084C119.232 89.6033 119.39 89.7609 119.585 89.7609Z" fill="#324E6B"/>
<path fill-rule="evenodd" clip-rule="evenodd" d="M127.187 75.003H124.437L112.922 69.0234H118.177L127.383 73.6992C127.322 74.1352 127.256 74.5699 127.187 75.003Z" fill="#3B5B7C"/>
<path fill-rule="evenodd" clip-rule="evenodd" d="M119.427 96.7894C108.359 115.908 87.6815 128.77 64.0003 128.77C40.4934 128.77 19.9465 116.097 8.81934 97.2104C15.5008 95.8871 20.2352 94.5336 24.6921 93.2595C30.5497 91.5849 35.9281 90.0473 44.6177 88.8954C66.4796 86.013 83.7823 88.9734 99.5155 91.6685C104.095 92.4521 106.677 93.035 119.427 96.7894Z" fill="#2A4259"/>
<path fill-rule="evenodd" clip-rule="evenodd" d="M102.255 116.083C91.5837 124.051 78.3428 128.77 63.9999 128.77C63.7914 128.77 63.5831 128.769 63.375 128.767L66.1366 110.262C67.4393 101.533 74.9356 95.0723 83.7616 95.0723C92.5876 95.0723 100.084 101.533 101.387 110.262L102.255 116.083Z" fill="#1782FF"/>
<path fill-rule="evenodd" clip-rule="evenodd" d="M63.373 128.768L66.0213 111.022C67.3926 101.834 74.919 95.0625 83.7613 95.0625C86.4035 95.0625 88.9282 95.6671 91.2063 96.7602C91.0158 101.23 89.2855 105.464 85.0968 108.841C81.5934 111.665 83.6646 117.618 85.8977 124.036C85.9891 124.298 86.0807 124.562 86.1723 124.826C79.264 127.377 71.7948 128.771 64.0001 128.771C63.7909 128.771 63.5818 128.77 63.373 128.768Z" fill="#0070F3"/>
<ellipse cx="17.3102" cy="20.7857" rx="17.3102" ry="20.7857" transform="matrix(0.504307 0.863525 -0.811889 0.583813 83.5332 61.8672)" fill="#1782FF"/>
<path fill-rule="evenodd" clip-rule="evenodd" d="M78.907 69.6944C80.6113 70.6883 82.1396 72.024 83.4135 73.7022C89.7594 82.0629 87.3867 95.7608 78.1141 104.297C76.4042 105.871 74.5791 107.16 72.6996 108.163C66.8316 108.533 61.4442 106.1 58.5127 101.08C53.6915 92.8249 57.3386 80.6996 66.6588 73.9976C70.5802 71.1779 74.881 69.7674 78.907 69.6944Z" fill="#0070F3"/>
<path d="M78.468 95.7647C58.9126 115.32 32.1005 118.851 20.3897 108.457C6.30541 95.9564 11.9023 68.3097 31.4577 48.7542C51.0131 29.1988 79.7895 22.7925 91.5184 34.5214C103.247 46.2503 98.0235 76.2092 78.468 95.7647Z" fill="#4098FF"/>
<path d="M75.1765 91.2387C55.9656 110.45 29.6558 116.888 20.0136 105.6C9.01416 92.7225 13.7034 68.1873 32.9143 48.9763C52.1252 29.7654 79.0812 24.5031 89.6254 35.0473C100.17 45.5916 94.3875 72.0278 75.1765 91.2387Z" fill="#CEDBE8"/>
<path fill-rule="evenodd" clip-rule="evenodd" d="M64.7406 31.8143C54.4716 34.1698 43.0931 40.1922 33.6126 49.6728C24.1219 59.1634 18.2534 69.9358 16.1002 79.8705C13.9449 89.8146 15.5236 98.821 20.7644 104.957C25.2143 110.166 33.705 111.465 43.7625 108.898C53.7567 106.346 64.9842 100.033 74.4783 90.5386C83.9657 81.0511 90.1172 69.7965 92.6 59.6563C95.0959 49.4626 93.8381 40.6547 88.9272 35.7438C84.0102 30.8268 75.0647 29.4462 64.7406 31.8143ZM64.2991 29.8893C74.8918 27.4595 84.6965 28.7199 90.3237 34.3472C95.9571 39.9805 97.0803 49.6628 94.5184 60.126C91.9434 70.6428 85.5983 82.2117 75.8748 91.9352C66.1579 101.652 54.6251 108.163 44.251 110.812C33.9404 113.444 24.455 112.318 19.2627 106.239C13.5041 99.4976 11.9277 89.7977 14.1699 79.4522C16.4142 69.0972 22.4957 57.9965 32.216 48.2762C41.9463 38.5459 53.6514 32.3316 64.2991 29.8893Z" fill="#4098FF"/>
<path fill-rule="evenodd" clip-rule="evenodd" d="M91.9633 62.1114C91.0102 59.9503 89.7343 58.031 88.1316 56.4283C77.5874 45.8841 52.8138 48.964 36.2056 65.5723C23.73 78.0478 19.0968 93.8792 22.2794 106.39C21.6683 105.89 21.1031 105.338 20.5875 104.733C9.91636 92.2193 14.6205 68.2439 33.4733 49.3912C52.3261 30.5384 78.6676 25.2622 88.9064 35.5011C94.4245 41.0191 95.2896 51.0674 91.9633 62.1114Z" fill="#2A4259"/>
<ellipse cx="63.7483" cy="81.9813" rx="5.4854" ry="10.8228" transform="rotate(43.5117 63.7483 81.9813)" fill="#688FB7"/>
<path d="M39.8426 58.1527C39.6116 57.8785 39.63 57.4728 39.8848 57.2206C40.1491 56.9589 40.5737 56.9547 40.8431 57.2112L64.0918 79.3432C65.1508 80.3513 65.0994 82.0556 63.9818 82.9982C62.9449 83.8727 61.3952 83.7405 60.5213 82.703L39.8426 58.1527Z" fill="white"/>
<circle cx="39.1333" cy="56.5153" r="2.77005" transform="rotate(10.0415 39.1333 56.5153)" fill="#688FB7"/>
<path d="M48.4526 27.236L48.296 42.8582C48.2964 42.8882 48.3048 42.9174 48.3204 42.9428C48.336 42.9682 48.3581 42.9889 48.3845 43.0027C48.4109 43.0165 48.4406 43.0228 48.4705 43.0212C48.5003 43.0195 48.5293 43.0098 48.5543 42.9931L53.6576 39.4917C53.6779 39.4777 53.701 39.4684 53.7253 39.4644C53.7496 39.4604 53.7744 39.4618 53.7979 39.4687C53.8214 39.4755 53.8431 39.4875 53.8613 39.5038C53.8795 39.5201 53.8938 39.5402 53.9032 39.5629L57.5167 48.1928C57.5309 48.2284 57.5571 48.2579 57.5908 48.276C57.6245 48.2942 57.6636 48.3 57.7014 48.2924C57.7391 48.2848 57.7732 48.2643 57.7977 48.2343C57.8222 48.2044 57.8356 48.167 57.8356 48.1285L58.0939 32.4312C58.0941 32.4012 58.0861 32.3717 58.0708 32.346C58.0554 32.3203 58.0333 32.2993 58.0069 32.2853C57.9804 32.2713 57.9506 32.2649 57.9206 32.2666C57.8906 32.2684 57.8616 32.2783 57.8366 32.2953L52.6815 35.8788C52.661 35.8926 52.6377 35.9019 52.6134 35.9058C52.589 35.9097 52.5642 35.9082 52.5405 35.9015C52.5169 35.8947 52.4951 35.8828 52.4767 35.8666C52.4583 35.8504 52.4436 35.8303 52.4339 35.8078L48.7713 27.1697C48.757 27.134 48.7306 27.1045 48.6967 27.0864C48.6628 27.0683 48.6236 27.0627 48.5858 27.0706C48.5479 27.0785 48.5139 27.0993 48.4896 27.1295C48.4653 27.1597 48.4522 27.1974 48.4526 27.236Z" fill="#F58B00"/>
<path fill-rule="evenodd" clip-rule="evenodd" d="M10.5703 29.5256C10.8074 29.1668 11.048 28.8106 11.2921 28.457L16.3673 34.1527C16.3838 34.1709 16.4041 34.1853 16.4267 34.1947C16.4494 34.2041 16.4739 34.2084 16.4984 34.2072C16.523 34.206 16.547 34.1995 16.5688 34.1879C16.5906 34.1764 16.6097 34.1602 16.6246 34.1404L20.3564 29.0917C20.3746 29.0676 20.3989 29.0489 20.4268 29.0376C20.4546 29.0263 20.4849 29.0228 20.5145 29.0276C20.544 29.0323 20.5717 29.0451 20.5944 29.0645C20.6172 29.0839 20.6343 29.1093 20.6438 29.1378L25.4385 44.0871C25.4509 44.1236 25.4502 44.1633 25.4366 44.1995C25.423 44.2357 25.3974 44.2661 25.364 44.2854C25.3307 44.3047 25.2918 44.3118 25.2541 44.3054C25.2163 44.299 25.1821 44.2795 25.1572 44.2503L18.9644 37.2373C18.9483 37.2189 18.9282 37.2044 18.9057 37.1948C18.8832 37.1852 18.8589 37.1808 18.8344 37.1819C18.8099 37.183 18.786 37.1896 18.7643 37.2011C18.7426 37.2127 18.7237 37.229 18.709 37.2488L14.9998 42.2032C14.9815 42.227 14.9572 42.2455 14.9295 42.2567C14.9017 42.2679 14.8716 42.2713 14.8421 42.2668C14.8127 42.2622 14.7851 42.2497 14.7622 42.2306C14.7393 42.2116 14.722 42.1866 14.712 42.1584L10.5703 29.5256Z" fill="#F58B00"/>
</svg>
