<svg width="320" height="240" viewBox="0 0 320 240" fill="none" xmlns="http://www.w3.org/2000/svg">
<rect y="51" width="320" height="138" rx="24" fill="#89D1FF"/>
<path d="M238.901 167.095L178.861 147.135C178.733 147.095 178.597 147.079 178.47 147.103L93.4532 160.086C89.6334 160.524 89.2746 161.593 90.4309 162.159L150.583 182.582C152.927 183.379 155.431 183.571 157.872 183.132L235.504 168.89C239.037 168.419 239.738 167.367 238.909 167.095H238.901Z" fill="#1B90FF"/>
<path d="M90.4468 41.8562L115.854 141.929C116.252 143.372 117.648 144.305 119.131 144.114L199.132 131.378C203.757 130.206 205.081 126.474 204.69 125.294L165.463 31.6488C164.778 29.7588 163.541 28.9374 162.194 29.0251L94.0911 32.183C92.1932 32.3027 88.3814 35.0379 90.4468 41.8562Z" fill="#00144A"/>
<path d="M91.4197 35.9539L117.736 139.32C118.134 140.763 119.53 141.696 121.013 141.505L202.003 128.642C203.893 128.395 205.081 126.473 204.451 124.671L173.948 28.5774C173.502 27.3095 172.266 26.4881 170.926 26.5678L94.1231 32.158C92.2252 32.2776 90.9094 34.1118 91.4197 35.9539Z" fill="#56BDFF"/>
<path d="M120.838 52.8284L151.939 165.684C152.385 167.311 153.964 168.364 155.647 168.148L246.533 151.593C251.756 150.269 253.247 146.059 252.538 144.025L205.87 40.5635C205.368 39.1281 203.973 38.2031 202.457 38.2988L124.945 41.9112C122.8 42.0468 118.493 45.133 120.83 52.8364L120.838 52.8284Z" fill="#00144A"/>
<path d="M121.93 46.161L154.06 162.741C154.506 164.368 156.085 165.42 157.768 165.205L249.77 148.506C251.908 148.227 253.247 146.058 252.538 144.025L215.456 37.086C214.954 35.6506 213.558 34.7255 212.043 34.8212L124.985 41.8787C122.84 42.0143 121.356 44.0877 121.93 46.161Z" fill="white"/>
<path d="M162.852 158.766C162.479 158.766 162.146 158.497 162.075 158.116C161.995 157.688 162.281 157.268 162.709 157.189L167.386 156.317C167.822 156.237 168.235 156.523 168.314 156.951C168.393 157.379 168.108 157.799 167.68 157.878L163.002 158.75C162.955 158.758 162.907 158.766 162.86 158.766H162.852ZM158.587 157.656C158.333 157.656 158.079 157.53 157.929 157.3C157.699 156.959 157.532 156.586 157.421 156.19L156.414 152.543C156.295 152.123 156.549 151.687 156.969 151.568C157.389 151.449 157.825 151.703 157.944 152.123L158.951 155.77C159.015 156.007 159.118 156.229 159.252 156.428C159.498 156.792 159.395 157.284 159.03 157.53C158.896 157.617 158.745 157.664 158.594 157.664L158.587 157.656ZM172.198 157.014C171.826 157.014 171.493 156.745 171.421 156.364C171.342 155.936 171.628 155.516 172.056 155.437L176.733 154.565C177.169 154.485 177.581 154.771 177.661 155.199C177.74 155.627 177.454 156.047 177.026 156.126L172.349 156.998C172.301 157.006 172.254 157.014 172.206 157.014H172.198ZM181.553 155.27C181.18 155.27 180.847 155.001 180.776 154.62C180.697 154.192 180.982 153.772 181.41 153.693L186.088 152.821C186.524 152.741 186.936 153.027 187.015 153.455C187.094 153.883 186.809 154.303 186.381 154.382L181.704 155.254C181.656 155.262 181.609 155.27 181.561 155.27H181.553ZM190.908 153.526C190.535 153.526 190.202 153.257 190.131 152.876C190.052 152.448 190.337 152.028 190.765 151.948L195.442 151.076C195.878 151.005 196.291 151.283 196.37 151.711C196.449 152.139 196.164 152.559 195.736 152.638L191.058 153.51C191.011 153.518 190.963 153.526 190.916 153.526H190.908ZM200.254 151.782C199.882 151.782 199.549 151.512 199.478 151.132C199.398 150.704 199.684 150.284 200.112 150.204L204.789 149.332C205.217 149.261 205.637 149.538 205.717 149.967C205.796 150.395 205.511 150.815 205.082 150.894L200.405 151.766C200.358 151.774 200.31 151.782 200.262 151.782H200.254ZM209.609 150.038C209.237 150.038 208.904 149.768 208.832 149.388C208.753 148.96 209.038 148.54 209.466 148.46L214.144 147.588C214.58 147.517 214.992 147.794 215.071 148.222C215.151 148.651 214.865 149.071 214.437 149.15L209.76 150.022C209.712 150.03 209.665 150.038 209.617 150.038H209.609ZM155.915 148.54C155.566 148.54 155.249 148.31 155.154 147.961L153.893 143.371C153.774 142.951 154.028 142.515 154.448 142.396C154.868 142.277 155.304 142.53 155.423 142.951L156.684 147.541C156.803 147.961 156.549 148.397 156.129 148.516C156.058 148.532 155.986 148.548 155.915 148.548V148.54ZM218.956 148.286C218.583 148.286 218.25 148.016 218.179 147.636C218.1 147.208 218.385 146.788 218.813 146.708L223.491 145.836C223.927 145.765 224.339 146.042 224.418 146.47C224.497 146.899 224.212 147.319 223.784 147.398L219.107 148.27C219.059 148.278 219.011 148.286 218.964 148.286H218.956ZM228.311 146.542C227.938 146.542 227.605 146.272 227.534 145.892C227.454 145.464 227.74 145.043 228.168 144.964L232.845 144.092C233.281 144.021 233.693 144.298 233.773 144.726C233.852 145.154 233.567 145.575 233.139 145.654L228.461 146.526C228.414 146.534 228.366 146.542 228.318 146.542H228.311ZM237.665 144.798C237.293 144.798 236.96 144.528 236.888 144.148C236.809 143.72 237.094 143.299 237.523 143.22L242.2 142.348C242.636 142.277 243.048 142.554 243.127 142.982C243.207 143.41 242.921 143.831 242.493 143.91L237.816 144.782C237.768 144.79 237.721 144.798 237.673 144.798H237.665ZM245.268 140.755C244.84 140.755 244.483 140.414 244.475 139.978C244.475 139.74 244.428 139.502 244.348 139.272L243.104 135.689C242.961 135.277 243.175 134.825 243.595 134.682C244.007 134.531 244.459 134.753 244.602 135.173L245.847 138.757C245.981 139.145 246.053 139.542 246.061 139.946C246.069 140.382 245.728 140.747 245.284 140.755H245.268ZM153.394 139.367C153.045 139.367 152.728 139.137 152.633 138.789L151.372 134.198C151.253 133.778 151.507 133.342 151.927 133.223C152.347 133.104 152.783 133.358 152.902 133.778L154.163 138.368C154.282 138.789 154.028 139.225 153.608 139.343C153.537 139.359 153.465 139.375 153.394 139.375V139.367ZM242.287 131.733C241.962 131.733 241.653 131.527 241.542 131.202L239.98 126.707C239.837 126.294 240.051 125.843 240.472 125.7C240.884 125.557 241.336 125.771 241.478 126.191L243.04 130.686C243.183 131.099 242.969 131.551 242.549 131.693C242.461 131.725 242.374 131.741 242.287 131.741V131.733ZM150.865 130.195C150.516 130.195 150.199 129.965 150.104 129.616L148.843 125.034C148.724 124.614 148.978 124.178 149.398 124.059C149.818 123.94 150.255 124.194 150.373 124.614L151.634 129.196C151.753 129.616 151.499 130.052 151.079 130.171C151.008 130.187 150.936 130.203 150.865 130.203V130.195ZM239.164 122.751C238.839 122.751 238.529 122.545 238.418 122.22L236.857 117.725C236.714 117.312 236.928 116.861 237.348 116.718C237.76 116.567 238.212 116.789 238.355 117.209L239.917 121.704C240.059 122.117 239.845 122.568 239.425 122.711C239.338 122.743 239.251 122.759 239.164 122.759V122.751ZM148.344 121.023C147.995 121.023 147.678 120.793 147.583 120.444L146.322 115.862C146.203 115.441 146.457 115.005 146.877 114.887C147.297 114.768 147.734 115.021 147.852 115.441L149.113 120.024C149.232 120.444 148.978 120.88 148.558 120.999C148.487 121.015 148.415 121.03 148.344 121.03V121.023ZM236.04 113.761C235.715 113.761 235.406 113.555 235.295 113.23L233.733 108.735C233.59 108.322 233.804 107.871 234.225 107.728C234.637 107.585 235.089 107.799 235.231 108.219L236.793 112.714C236.936 113.127 236.722 113.578 236.302 113.721C236.214 113.753 236.127 113.769 236.04 113.769V113.761ZM145.815 111.85C145.466 111.85 145.149 111.62 145.054 111.271L143.793 106.681C143.675 106.261 143.928 105.825 144.348 105.706C144.769 105.587 145.205 105.841 145.323 106.261L146.584 110.851C146.703 111.271 146.449 111.708 146.029 111.826C145.958 111.842 145.886 111.858 145.815 111.858V111.85ZM232.924 104.779C232.599 104.779 232.29 104.573 232.179 104.248L230.618 99.7526C230.475 99.3403 230.689 98.8884 231.109 98.7457C231.521 98.603 231.973 98.8171 232.116 99.2373L233.678 103.732C233.82 104.145 233.606 104.596 233.186 104.739C233.099 104.771 233.012 104.787 232.924 104.787V104.779ZM143.294 102.678C142.945 102.678 142.628 102.448 142.533 102.099L141.272 97.509C141.154 97.0889 141.407 96.6528 141.827 96.5339C142.248 96.415 142.684 96.6687 142.802 97.0889L144.063 101.679C144.182 102.099 143.928 102.535 143.508 102.654C143.437 102.67 143.365 102.686 143.294 102.686V102.678ZM229.801 95.7887C229.476 95.7887 229.167 95.5826 229.056 95.2576L227.494 90.7626C227.351 90.3503 227.565 89.8984 227.986 89.7557C228.398 89.613 228.85 89.8271 228.992 90.2473L230.554 94.7423C230.697 95.1545 230.483 95.6064 230.063 95.7491C229.975 95.7808 229.888 95.7966 229.801 95.7966V95.7887ZM140.765 93.5055C140.416 93.5055 140.099 93.2756 140.004 92.9268L138.743 88.3367C138.625 87.9165 138.878 87.4805 139.298 87.3616C139.719 87.2427 140.155 87.4963 140.274 87.9165L141.534 92.5066C141.653 92.9268 141.399 93.3628 140.979 93.4818C140.908 93.4976 140.836 93.5135 140.765 93.5135V93.5055ZM226.677 86.8066C226.352 86.8066 226.043 86.6005 225.932 86.2755L224.371 81.7805C224.228 81.3682 224.442 80.9164 224.862 80.7737C225.274 80.631 225.726 80.845 225.869 81.2652L227.431 85.7602C227.573 86.1724 227.359 86.6243 226.939 86.767C226.852 86.7987 226.765 86.8146 226.677 86.8146V86.8066ZM138.244 84.3332C137.895 84.3332 137.578 84.1033 137.483 83.7545L136.222 79.1723C136.104 78.7521 136.357 78.3161 136.777 78.1972C137.198 78.0783 137.634 78.3319 137.753 78.7521L139.013 83.3343C139.132 83.7545 138.878 84.1905 138.458 84.3094C138.387 84.3253 138.315 84.3411 138.244 84.3411V84.3332ZM223.554 77.8166C223.229 77.8166 222.92 77.6105 222.809 77.2855L221.247 72.7905C221.104 72.3782 221.318 71.9264 221.739 71.7837C222.151 71.641 222.603 71.855 222.745 72.2752L224.307 76.7702C224.45 77.1824 224.236 77.6343 223.816 77.777C223.728 77.8087 223.641 77.8246 223.554 77.8246V77.8166ZM135.715 75.1609C135.366 75.1609 135.049 74.931 134.954 74.5821L133.694 69.992C133.575 69.5718 133.828 69.1358 134.248 69.0169C134.669 68.898 135.105 69.1517 135.224 69.5718L136.484 74.162C136.603 74.5821 136.349 75.0182 135.929 75.1371C135.858 75.1529 135.786 75.1688 135.715 75.1688V75.1609ZM220.43 68.8266C220.105 68.8266 219.796 68.6205 219.685 68.2955L218.123 63.8005C217.981 63.3882 218.195 62.9364 218.615 62.7937C219.027 62.651 219.479 62.865 219.622 63.2852L221.184 67.7802C221.326 68.1924 221.112 68.6443 220.692 68.787C220.605 68.8187 220.518 68.8346 220.43 68.8346V68.8266ZM133.194 65.9885C132.845 65.9885 132.528 65.7586 132.433 65.4098L131.173 60.8197C131.054 60.3995 131.307 59.9635 131.727 59.8446C132.148 59.7256 132.584 59.9793 132.703 60.3995L133.963 64.9896C134.082 65.4098 133.828 65.8458 133.408 65.9647C133.337 65.9806 133.265 65.9965 133.194 65.9965V65.9885ZM217.307 59.8446C216.982 59.8446 216.673 59.6384 216.562 59.3134L215 54.8184C214.857 54.4062 215.071 53.9543 215.491 53.8116C215.904 53.6689 216.356 53.8829 216.498 54.3031L218.06 58.7981C218.203 59.2103 217.989 59.6622 217.569 59.8049C217.481 59.8366 217.394 59.8525 217.307 59.8525V59.8446ZM130.665 56.8162C130.316 56.8162 129.999 56.5863 129.904 56.2375L128.644 51.6473C128.525 51.2272 128.778 50.7911 129.199 50.6722C129.619 50.5533 130.055 50.807 130.174 51.2272L131.434 55.8173C131.553 56.2375 131.299 56.6735 130.879 56.7924C130.808 56.8083 130.737 56.8241 130.665 56.8241V56.8162ZM214.191 50.8546C213.866 50.8546 213.557 50.6484 213.446 50.3234L211.884 45.8284C211.742 45.4162 211.956 44.9643 212.376 44.8216C212.788 44.6789 213.24 44.8929 213.383 45.3131L214.944 49.8081C215.087 50.2203 214.873 50.6722 214.453 50.8149C214.366 50.8466 214.279 50.8625 214.191 50.8625V50.8546ZM130.11 49.3245C129.92 49.3245 129.722 49.2532 129.571 49.1184C129.246 48.8251 129.23 48.3177 129.524 48.0006C130.205 47.2633 131.125 46.8273 132.132 46.7639L134.51 46.5657C134.962 46.526 135.327 46.8511 135.366 47.2871C135.406 47.7231 135.081 48.1037 134.645 48.1433L132.251 48.3415C131.64 48.3811 131.093 48.6427 130.697 49.0788C130.538 49.2452 130.324 49.3324 130.11 49.3324V49.3245ZM139.314 47.7469C138.91 47.7469 138.561 47.4377 138.522 47.0176C138.482 46.5815 138.807 46.201 139.243 46.1614L143.984 45.765C144.42 45.7095 144.8 46.0504 144.84 46.4864C144.88 46.9224 144.554 47.303 144.118 47.3426L139.378 47.739C139.378 47.739 139.33 47.739 139.314 47.739V47.7469ZM148.796 46.9541C148.392 46.9541 148.043 46.645 148.003 46.2248C147.963 45.7888 148.288 45.4082 148.724 45.3686L153.465 44.9722C153.909 44.9246 154.282 45.2576 154.321 45.6936C154.361 46.1297 154.036 46.5102 153.6 46.5498L148.859 46.9462C148.859 46.9462 148.812 46.9462 148.796 46.9462V46.9541ZM158.277 46.1693C157.873 46.1693 157.524 45.8601 157.485 45.4399C157.445 45.0039 157.77 44.6234 158.206 44.5838L162.947 44.1874C163.391 44.1477 163.763 44.4728 163.803 44.9088C163.843 45.3448 163.518 45.7253 163.082 45.765L158.341 46.1614C158.341 46.1614 158.293 46.1614 158.277 46.1614V46.1693ZM167.759 45.3765C167.355 45.3765 167.006 45.0673 166.966 44.6472C166.926 44.2112 167.251 43.8306 167.688 43.791L172.428 43.3946C172.872 43.347 173.245 43.68 173.284 44.116C173.324 44.552 172.999 44.9326 172.563 44.9722L167.822 45.3686C167.822 45.3686 167.775 45.3686 167.759 45.3686V45.3765ZM177.24 44.5917C176.836 44.5917 176.487 44.2825 176.448 43.8623C176.408 43.4263 176.733 43.0458 177.169 43.0061L181.91 42.6098C182.362 42.5701 182.726 42.8952 182.766 43.3312C182.806 43.7672 182.481 44.1477 182.045 44.1874L177.304 44.5838C177.304 44.5838 177.256 44.5838 177.24 44.5838V44.5917ZM186.722 43.8068C186.318 43.8068 185.969 43.4977 185.929 43.0775C185.889 42.6415 186.215 42.2609 186.651 42.2213L191.391 41.8249C191.827 41.7694 192.208 42.1103 192.247 42.5463C192.287 42.9824 191.962 43.3629 191.526 43.4025L186.785 43.7989C186.785 43.7989 186.738 43.7989 186.722 43.7989V43.8068ZM196.195 43.0141C195.791 43.0141 195.442 42.7049 195.403 42.2847C195.363 41.8487 195.688 41.4682 196.124 41.4285L200.865 41.0322C201.309 40.9846 201.681 41.3175 201.721 41.7536C201.761 42.1896 201.436 42.5701 201 42.6098L196.259 43.0061C196.259 43.0061 196.211 43.0061 196.195 43.0061V43.0141ZM210.362 42.3323C210.235 42.3323 210.109 42.3006 209.99 42.2372C209.657 42.0628 209.284 41.9676 208.912 41.9676H208.753L205.748 42.2213C205.304 42.2609 204.932 41.9359 204.892 41.4999C204.853 41.0639 205.178 40.6833 205.614 40.6437L208.65 40.39C208.753 40.39 208.832 40.3821 208.912 40.3821C209.546 40.3821 210.18 40.5406 210.743 40.8419C211.131 41.048 211.274 41.5316 211.068 41.9121C210.925 42.1817 210.648 42.3323 210.37 42.3323H210.362Z" fill="#1B90FF"/>
<path d="M182.25 73.0914C171.365 74.2796 164.857 83.7454 167.983 94.3755C171.165 105.189 182.968 112.741 194.076 111.09C204.945 109.479 210.783 99.6706 207.394 89.3117C204.052 79.1282 192.912 71.9271 182.25 73.0914ZM192.681 103.195C192.401 103.65 191.955 103.921 191.325 104.009C190.695 104.096 190.097 103.977 189.57 103.634C189.044 103.291 188.677 102.813 188.486 102.191C188.295 101.569 188.35 101.066 188.637 100.612C188.925 100.165 189.387 99.8939 190.025 99.8062C190.663 99.7184 191.221 99.846 191.748 100.189C192.266 100.532 192.625 100.994 192.808 101.592C192.992 102.191 192.96 102.749 192.689 103.203L192.681 103.195ZM194.746 88.2909C194.61 89.1282 194.347 89.846 193.948 90.444C193.55 91.0421 193.007 91.712 192.33 92.4536C191.795 93.0756 191.405 93.586 191.141 93.9768C190.878 94.3675 190.695 94.838 190.591 95.3803C190.488 95.9226 190.535 96.5366 190.735 97.2224L187.712 97.6291C187.417 96.6004 187.338 95.6993 187.465 94.9178C187.593 94.1363 187.832 93.4823 188.175 92.9401C188.518 92.3978 189.012 91.7838 189.642 91.082C189.889 90.7949 190.001 90.6673 189.985 90.6913C190.456 90.1729 190.822 89.7024 191.086 89.2798C191.349 88.8571 191.524 88.3707 191.596 87.8204C191.676 87.2702 191.596 86.6482 191.381 85.9464C191.118 85.117 190.679 84.4153 190.065 83.8571C189.451 83.2989 188.733 82.9001 187.92 82.6689C187.106 82.4376 186.261 82.3738 185.4 82.4775C184.036 82.637 182.999 83.0756 182.29 83.7933C181.58 84.511 181.046 85.4998 180.687 86.7598L177.672 85.6115C177.983 84.0485 178.709 82.7566 179.857 81.7358C180.998 80.7151 182.561 80.0931 184.547 79.8618C186.102 79.6784 187.553 79.7821 188.901 80.1728C190.248 80.5636 191.405 81.2095 192.362 82.1106C193.326 83.0197 194.012 84.1202 194.427 85.436C194.762 86.4966 194.866 87.4456 194.73 88.2829L194.746 88.2909Z" fill="#00144A"/>
<path fill-rule="evenodd" clip-rule="evenodd" d="M212.622 20L212.622 31.1875L210.622 31.1875L210.622 20L212.622 20Z" fill="#00144A"/>
<path fill-rule="evenodd" clip-rule="evenodd" d="M224.099 24.1012L217.441 33.1041L215.83 31.9194L222.488 22.9166L224.099 24.1012Z" fill="#00144A"/>
<path fill-rule="evenodd" clip-rule="evenodd" d="M230.295 35.4468L219.382 38.0326L218.915 36.0876L229.829 33.5018L230.295 35.4468Z" fill="#00144A"/>
</svg>
