<svg width="320" height="240" viewBox="0 0 320 240" fill="none" xmlns="http://www.w3.org/2000/svg">
<path d="M305.547 20H14.4533C12.5559 19.9983 10.6768 20.3705 8.92329 21.0954C7.16981 21.8203 5.57638 22.8836 4.23409 24.2247C2.8918 25.5657 1.82697 27.1582 1.10045 28.911C0.373942 30.6638 -8.08861e-07 32.5426 0 34.44V205.547C0 209.38 1.52275 213.056 4.23328 215.767C6.9438 218.477 10.6201 220 14.4533 220H305.547C309.38 220 313.056 218.477 315.767 215.767C318.477 213.056 320 209.38 320 205.547V34.44C320 32.5426 319.626 30.6638 318.9 28.911C318.173 27.1582 317.108 25.5657 315.766 24.2247C314.424 22.8836 312.83 21.8203 311.077 21.0954C309.323 20.3705 307.444 19.9983 305.547 20Z" fill="#EBF8FF"/>
<path d="M18.2241 120.001H154.646C155.391 119.99 156.115 120.244 156.69 120.718C157.265 121.192 157.652 121.855 157.782 122.588L174.372 208.32C174.477 208.785 174.475 209.268 174.365 209.732C174.255 210.196 174.041 210.629 173.739 210.998C173.436 211.367 173.054 211.662 172.62 211.861C172.186 212.06 171.713 212.157 171.236 212.145H36.3823C35.648 212.144 34.9364 211.891 34.3659 211.429C33.7953 210.966 33.4002 210.323 33.2462 209.605L15.088 123.874C14.9745 123.406 14.9706 122.917 15.0765 122.447C15.1824 121.977 15.3953 121.537 15.6987 121.163C16.002 120.788 16.3876 120.488 16.8256 120.287C17.2636 120.085 17.7422 119.988 18.2241 120.001ZM31.7094 142.892L42.1214 199.9C42.245 200.639 42.6292 201.31 43.2045 201.79C43.7798 202.27 44.5081 202.529 45.2576 202.518H139.185C139.658 202.529 140.128 202.432 140.559 202.235C140.99 202.038 141.37 201.746 141.672 201.381C141.974 201.016 142.189 200.587 142.302 200.127C142.414 199.667 142.42 199.187 142.321 198.724L138.558 178.953H153.266C153.739 178.948 154.205 178.839 154.631 178.634C155.058 178.429 155.434 178.133 155.733 177.766C156.032 177.4 156.247 176.972 156.363 176.514C156.478 176.055 156.492 175.576 156.402 175.112L148.342 132.325C148.202 131.592 147.813 130.931 147.242 130.451C146.671 129.971 145.952 129.703 145.206 129.691H105.064C104.592 129.696 104.128 129.805 103.703 130.009C103.278 130.213 102.903 130.508 102.604 130.873C102.305 131.237 102.09 131.663 101.973 132.12C101.856 132.576 101.84 133.053 101.928 133.516L103.025 139.349L34.924 139.114C34.4455 139.091 33.9683 139.179 33.529 139.37C33.0896 139.561 32.6998 139.85 32.3895 140.214C32.0791 140.579 31.8565 141.01 31.7386 141.474C31.6207 141.939 31.6107 142.424 31.7094 142.892Z" fill="#D1EFFF"/>
<path d="M215.722 212.145H73.2477L77.2306 217.804C77.7085 218.483 78.3426 219.037 79.0794 219.419C79.8163 219.801 80.6343 220 81.4643 220H36.649C35.8172 220 35.0195 219.669 34.4314 219.081C33.8433 218.493 33.5129 217.695 33.5129 216.864V215.437C33.5129 214.605 33.8433 213.808 34.4314 213.22C35.0195 212.632 35.8172 212.301 36.649 212.301H215.722V212.145Z" fill="#B8E6FF"/>
<path d="M77.2305 217.804L73.2477 212.145H215.722V217.224C215.722 217.96 215.43 218.666 214.909 219.187C214.389 219.707 213.683 220 212.947 220H81.4643C80.6343 220 79.8163 219.801 79.0794 219.419C78.3426 219.037 77.7085 218.483 77.2305 217.804Z" fill="#B8E6FF"/>
<path d="M128.365 139.443L102.947 139.349L101.849 133.516C101.762 133.053 101.778 132.576 101.895 132.119C102.012 131.663 102.227 131.237 102.526 130.872C102.825 130.508 103.2 130.213 103.625 130.009C104.05 129.805 104.514 129.696 104.985 129.69H145.128C145.874 129.702 146.593 129.971 147.164 130.45C147.735 130.93 148.124 131.592 148.264 132.324L156.324 175.112C156.413 175.576 156.4 176.055 156.284 176.513C156.169 176.972 155.954 177.399 155.654 177.766C155.355 178.132 154.979 178.428 154.553 178.634C154.127 178.839 153.661 178.948 153.188 178.953H138.479L131.439 142.045C131.313 141.32 130.937 140.661 130.375 140.185C129.813 139.709 129.102 139.447 128.365 139.443Z" fill="#B8E6FF"/>
<path d="M105.362 162.036C105.232 161.915 105.129 161.77 105.059 161.608C104.989 161.446 104.952 161.271 104.952 161.095C104.952 160.918 104.989 160.744 105.059 160.582C105.129 160.42 105.232 160.274 105.362 160.154C105.483 160.027 105.629 159.926 105.791 159.857C105.953 159.788 106.127 159.752 106.302 159.752C106.478 159.752 106.652 159.788 106.814 159.857C106.976 159.926 107.122 160.027 107.243 160.154L110.379 163.29L113.516 160.154C113.77 159.928 114.1 159.808 114.44 159.818C114.78 159.828 115.103 159.968 115.343 160.208C115.584 160.448 115.723 160.771 115.733 161.111C115.743 161.451 115.623 161.782 115.397 162.036L112.261 165.171L115.397 168.307C115.533 168.428 115.643 168.575 115.72 168.74C115.796 168.904 115.839 169.083 115.844 169.264C115.849 169.446 115.818 169.626 115.751 169.795C115.684 169.964 115.583 170.117 115.454 170.246C115.326 170.374 115.173 170.475 115.004 170.542C114.835 170.609 114.654 170.641 114.473 170.636C114.291 170.63 114.113 170.588 113.948 170.511C113.783 170.434 113.636 170.324 113.516 170.189L110.379 167.053L107.243 170.189C107.122 170.316 106.976 170.417 106.814 170.486C106.652 170.555 106.478 170.591 106.302 170.591C106.127 170.591 105.953 170.555 105.791 170.486C105.629 170.417 105.483 170.316 105.362 170.189C105.232 170.068 105.129 169.923 105.059 169.761C104.989 169.599 104.952 169.425 104.952 169.248C104.952 169.072 104.989 168.897 105.059 168.735C105.129 168.573 105.232 168.428 105.362 168.307L108.498 165.171L105.362 162.036Z" fill="white"/>
<path d="M34.8771 139.114L102.978 139.349L128.397 139.443C129.144 139.432 129.87 139.689 130.445 140.166C131.02 140.643 131.406 141.31 131.533 142.046L138.573 178.954L142.337 198.725C142.436 199.188 142.43 199.667 142.317 200.127C142.205 200.588 141.99 201.016 141.688 201.381C141.386 201.747 141.006 202.038 140.575 202.235C140.144 202.432 139.674 202.529 139.201 202.519H45.3674C44.618 202.529 43.8897 202.271 43.3144 201.79C42.7391 201.31 42.3549 200.64 42.2313 199.9L31.7409 142.893C31.644 142.431 31.6527 141.953 31.7663 141.495C31.8799 141.036 32.0955 140.61 32.3969 140.246C32.6984 139.883 33.0781 139.593 33.5075 139.397C33.9369 139.201 34.4051 139.104 34.8771 139.114Z" fill="#EBF8FF"/>
<path fill-rule="evenodd" clip-rule="evenodd" d="M292.612 141.739C294.918 143.688 293.972 148.599 290.498 152.708C288.166 155.466 285.289 157.161 282.951 157.389C283.272 159.114 283.525 160.956 283.724 162.875C284.821 173.415 285.203 185.543 277.396 185.609C268.336 185.682 267.497 177.1 266.552 167.436C266.476 166.661 266.4 165.88 266.318 165.095C265.222 154.522 265.767 145.675 273.067 144.845C276.177 144.486 278.434 145.989 280.073 148.728C280.608 147.691 281.302 146.646 282.146 145.649C285.62 141.54 290.305 139.789 292.612 141.739Z" fill="#9EDDFF"/>
<path d="M300.117 173.76C300.117 179.572 297.274 184.259 293.77 184.291C285.209 184.367 286.938 179.636 287.423 173.76C287.908 167.884 290.266 163.304 293.77 163.228C300.195 163.083 300.117 167.915 300.117 173.76Z" fill="#9EDDFF"/>
<path d="M265.505 189.308H301.38C303.358 189.308 304.966 190.916 304.966 192.894V211.055C304.966 216.154 300.825 220.295 295.726 220.295H271.171C266.073 220.295 261.931 216.154 261.931 211.055V192.894C261.931 190.916 263.539 189.308 265.517 189.308H265.505Z" fill="#D1EFFF"/>
<path d="M304.959 189.359H261.918V194.962H304.959V189.359Z" fill="#B8E6FF"/>
<path d="M304.679 181.778H262.212C260.802 181.778 259.659 182.921 259.659 184.331V189.595C259.659 191.005 260.802 192.148 262.212 192.148H304.679C306.088 192.148 307.231 191.005 307.231 189.595V184.331C307.231 182.921 306.088 181.778 304.679 181.778Z" fill="#D1EFFF"/>
<path d="M272.336 63.7497L207.796 41.6418C205.055 40.7109 202.082 42.1589 201.151 44.8998L168.985 138.787C168.054 141.528 169.502 144.502 172.243 145.432L236.782 167.54C239.523 168.471 242.496 167.023 243.427 164.282L275.594 70.3949C276.524 67.6541 275.076 64.6805 272.336 63.7497Z" fill="#D1EFFF"/>
<path d="M233.627 65.3519C231.507 64.4986 229.154 64.2918 226.93 64.7831C224.681 65.2485 222.638 66.3862 221.035 68.0411C219.432 69.6959 218.346 71.7645 217.932 74.0141C217.518 76.2637 217.777 78.5908 218.682 80.7111C219.587 82.8314 221.087 84.6155 223.026 85.8567C224.939 87.0978 227.189 87.7701 229.49 87.7184C231.791 87.6925 234.015 86.9685 235.903 85.6757C237.79 84.3828 239.264 82.5469 240.117 80.4267L229.335 76.1344L233.653 65.3519H233.627Z" fill="#EBF8FF"/>
<path d="M237.067 63.7754L232.774 74.532L243.531 78.8243C244.1 77.4021 244.384 75.9024 244.358 74.3768C244.358 72.8513 244.022 71.3515 243.428 69.9553C242.833 68.559 241.954 67.292 240.868 66.2318C239.782 65.1717 238.489 64.3442 237.067 63.7754Z" fill="#B8E6FF"/>
<path d="M246.013 102.276L201.047 86.8656C199.547 86.3485 197.944 87.1501 197.427 88.6498C196.91 90.1495 197.712 91.7526 199.211 92.2698L244.177 107.681C245.677 108.198 247.28 107.396 247.797 105.896C248.314 104.397 247.512 102.794 246.013 102.276Z" fill="#EBF8FF"/>
<path d="M242.134 111.43L197.169 96.019C195.669 95.5018 194.066 96.3034 193.549 97.8031C193.032 99.3028 193.833 100.906 195.333 101.423L240.298 116.834C241.798 117.351 243.427 116.55 243.918 115.05C244.436 113.55 243.634 111.947 242.134 111.43Z" fill="#EBF8FF"/>
<path d="M217.415 113.189L193.471 104.992C191.972 104.475 190.343 105.277 189.851 106.776C189.334 108.276 190.136 109.879 191.636 110.396L215.605 118.593C217.105 119.11 218.708 118.309 219.225 116.809C219.742 115.309 218.941 113.706 217.441 113.189H217.415Z" fill="#EBF8FF"/>
<path d="M188.827 53.0611L111.725 65.2188C108.011 65.8045 105.475 69.2903 106.06 73.0045L123.205 181.733C123.791 185.447 127.277 187.983 130.991 187.397L208.092 175.24C211.807 174.654 214.343 171.168 213.757 167.454L196.612 58.7258C196.027 55.0116 192.541 52.4754 188.827 53.0611Z" fill="white"/>
<path fill-rule="evenodd" clip-rule="evenodd" d="M111.725 65.2188C111 65.3332 110.319 65.5583 109.698 65.8741C109.298 66.0777 108.922 66.319 108.575 66.5927C108.22 66.8722 107.895 67.1855 107.605 67.5269C108.375 68.5054 109.754 68.8373 110.907 68.2512C111.281 68.0606 111.695 67.9233 112.141 67.8529L117.281 67.0424C118.735 66.813 119.729 65.4477 119.499 63.9929L111.725 65.2188ZM129.651 62.3921C129.881 63.8469 131.246 64.8403 132.701 64.6109L142.981 62.9898C144.436 62.7604 145.429 61.3951 145.2 59.9404L129.651 62.3921ZM155.352 58.3395C155.581 59.7943 156.947 60.7877 158.401 60.5583L168.682 58.9372C170.136 58.7078 171.13 57.3425 170.9 55.8878L155.352 58.3395ZM181.052 54.2869C181.282 55.7417 182.647 56.7351 184.102 56.5057L189.242 55.6952C189.688 55.6249 190.123 55.6283 190.539 55.6943C191.816 55.8973 193.025 55.1574 193.458 53.9892C193.076 53.7538 192.67 53.5556 192.247 53.3988C191.833 53.2452 191.401 53.1312 190.957 53.0607C190.269 52.9514 189.552 52.9466 188.827 53.0611L181.052 54.2869ZM194.304 54.6052C193.326 55.376 192.994 56.7543 193.58 57.9071C193.771 58.282 193.908 58.6952 193.978 59.1412L194.835 64.5776C195.065 66.0324 196.43 67.0257 197.885 66.7963L196.612 58.7258C196.498 58.0003 196.273 57.3197 195.957 56.6985C195.753 56.2981 195.512 55.9224 195.238 55.5752C194.959 55.2207 194.646 54.8959 194.304 54.6052ZM199.626 77.8373C198.171 78.0667 197.178 79.432 197.407 80.8868L199.122 91.7596C199.351 93.2144 200.716 94.2077 202.171 93.9783L199.626 77.8373ZM203.912 105.019C202.457 105.249 201.464 106.614 201.693 108.069L203.408 118.942C203.637 120.396 205.002 121.39 206.457 121.16L203.912 105.019ZM208.198 132.201C206.744 132.431 205.75 133.796 205.98 135.251L207.694 146.124C207.923 147.578 209.289 148.572 210.743 148.342L208.198 132.201ZM212.484 159.383C211.03 159.613 210.036 160.978 210.266 162.433L211.123 167.869C211.193 168.315 211.19 168.751 211.124 169.166C210.921 170.443 211.661 171.652 212.829 172.085C213.064 171.703 213.263 171.298 213.419 170.874C213.573 170.46 213.687 170.028 213.757 169.584C213.867 168.896 213.872 168.179 213.757 167.454L212.484 159.383ZM212.213 172.931C211.442 171.953 210.064 171.621 208.911 172.207C208.536 172.398 208.123 172.535 207.677 172.605L202.537 173.416C201.082 173.645 200.089 175.011 200.318 176.465L208.092 175.24C208.818 175.125 209.499 174.9 210.12 174.584C210.52 174.381 210.896 174.139 211.243 173.866C211.597 173.586 211.922 173.273 212.213 172.931ZM190.166 178.066C189.937 176.611 188.571 175.618 187.117 175.847L176.836 177.469C175.382 177.698 174.388 179.063 174.618 180.518L190.166 178.066ZM164.466 182.119C164.236 180.664 162.871 179.671 161.416 179.9L151.136 181.521C149.681 181.751 148.688 183.116 148.917 184.571L164.466 182.119ZM138.765 186.171C138.536 184.717 137.171 183.723 135.716 183.953L130.576 184.763C130.13 184.834 129.694 184.83 129.279 184.764C128.002 184.561 126.792 185.301 126.36 186.469C126.742 186.705 127.147 186.903 127.571 187.06C127.985 187.213 128.417 187.327 128.86 187.398C129.549 187.507 130.265 187.512 130.991 187.397L138.765 186.171ZM125.513 185.853C126.492 185.082 126.824 183.704 126.238 182.551C126.047 182.176 125.91 181.763 125.839 181.317L124.982 175.881C124.753 174.426 123.387 173.433 121.933 173.662L123.205 181.733C123.32 182.458 123.545 183.139 123.861 183.76C124.064 184.16 124.305 184.536 124.579 184.883C124.859 185.238 125.172 185.562 125.513 185.853ZM120.192 162.621C121.646 162.392 122.64 161.026 122.41 159.572L120.696 148.699C120.467 147.244 119.101 146.251 117.646 146.48L120.192 162.621ZM115.905 135.439C117.36 135.21 118.354 133.844 118.124 132.39L116.41 121.517C116.18 120.062 114.815 119.069 113.36 119.298L115.905 135.439ZM111.619 108.257C113.074 108.028 114.067 106.662 113.838 105.208L112.124 94.3348C111.894 92.88 110.529 91.8866 109.074 92.116L111.619 108.257ZM107.333 81.075C108.788 80.8456 109.781 79.4803 109.552 78.0255L108.695 72.5891C108.624 72.1432 108.628 71.7078 108.694 71.2924C108.897 70.0152 108.157 68.8059 106.989 68.3736C106.753 68.7553 106.555 69.1607 106.398 69.5841C106.245 69.9986 106.131 70.4303 106.06 70.8739C105.951 71.5621 105.946 72.279 106.06 73.0045L107.333 81.075Z" fill="#F58B00"/>
<path d="M181.627 119.757C183.347 130.668 175.897 140.907 164.986 142.627C154.075 144.348 143.835 136.897 142.115 125.986C140.395 115.076 147.845 104.836 158.756 103.116C169.667 101.395 179.906 108.846 181.627 119.757Z" fill="white"/>
<path d="M158.756 103.116C154.849 103.732 151.212 105.493 148.305 108.176C145.399 110.859 143.353 114.344 142.427 118.189C141.501 122.035 141.736 126.069 143.102 129.781C144.469 133.493 146.905 136.716 150.104 139.044C153.302 141.371 157.119 142.697 161.072 142.856C165.024 143.014 168.935 141.996 172.309 139.932C175.683 137.867 178.369 134.848 180.028 131.257C181.686 127.666 182.243 123.664 181.627 119.757C180.801 114.517 177.927 109.82 173.638 106.699C169.349 103.579 163.996 102.289 158.756 103.116ZM163.74 134.725C163.154 134.817 162.553 134.734 162.015 134.485C161.476 134.237 161.023 133.833 160.714 133.327C160.404 132.821 160.251 132.235 160.275 131.642C160.299 131.049 160.498 130.477 160.847 129.997C161.196 129.517 161.679 129.151 162.236 128.946C162.793 128.741 163.398 128.706 163.975 128.845C164.552 128.984 165.075 129.291 165.477 129.727C165.879 130.163 166.144 130.708 166.236 131.294C166.36 132.08 166.167 132.884 165.698 133.527C165.23 134.17 164.526 134.601 163.74 134.725ZM165.273 124.158C165.021 124.329 164.78 124.516 164.551 124.717C164.445 125.299 164.136 125.825 163.679 126.201C163.222 126.577 162.646 126.778 162.054 126.769C161.463 126.761 160.893 126.542 160.447 126.153C160.001 125.764 159.708 125.229 159.619 124.644C159.264 122.392 161.084 121.092 162.296 120.172C164 118.911 164.683 118.237 164.462 116.834C164.241 115.432 162.492 114.614 160.616 114.91C158.739 115.206 157.339 116.601 157.548 117.924C157.651 118.579 157.49 119.249 157.1 119.785C156.71 120.321 156.122 120.68 155.467 120.783C154.813 120.887 154.143 120.726 153.607 120.336C153.071 119.945 152.712 119.358 152.609 118.703C152.529 116.61 153.22 114.56 154.551 112.942C155.882 111.323 157.76 110.25 159.829 109.924C161.899 109.597 164.016 110.041 165.78 111.171C167.544 112.301 168.833 114.039 169.401 116.055C169.589 117.663 169.297 119.29 168.563 120.731C167.828 122.173 166.683 123.365 165.273 124.158Z" fill="#004DA5"/>
<path d="M57.6816 70.3255C57.9774 69.9715 58.3631 69.7038 58.7982 69.5506C59.2333 69.3973 59.7017 69.3642 60.154 69.4546L70.9693 71.3253C72.7582 71.6339 73.4651 73.2781 73.223 74.6802C73.1448 75.2576 72.8813 75.794 72.4721 76.2088C72.0628 76.6236 71.53 76.8944 70.9537 76.9805C70.674 77.0138 70.3909 77.0046 70.1139 76.9531L59.2987 75.0824C58.8225 75.0101 58.3747 74.8104 58.0027 74.5045C57.6308 74.1985 57.3484 73.7977 57.1856 73.3445C57.0043 72.8407 56.9548 72.2989 57.0416 71.7706C57.1284 71.2423 57.3487 70.7448 57.6816 70.3255Z" fill="#A9B4BE"/>
<path d="M98.7905 27.1267C99.1031 27.0203 99.4343 26.9802 99.7632 27.0091C100.092 27.0379 100.411 27.135 100.701 27.2941C100.99 27.4532 101.243 27.6709 101.443 27.9333C101.644 28.1956 101.787 28.4969 101.864 28.8178L104.845 39.0853C104.95 39.4549 104.982 39.8418 104.936 40.2235C104.891 40.6053 104.77 40.9741 104.581 41.3086C104.391 41.6431 104.137 41.9365 103.833 42.1717C103.529 42.4069 103.181 42.5792 102.81 42.6784C102.658 42.7236 102.502 42.7563 102.345 42.7761C101.765 42.8575 101.175 42.7186 100.692 42.3868C100.209 42.055 99.8678 41.5543 99.7357 40.9834L96.7595 30.7198C96.653 30.3505 96.6212 29.9637 96.666 29.582C96.7108 29.2003 96.8313 28.8313 97.0204 28.4967C97.2095 28.1622 97.4635 27.8687 97.7674 27.6334C98.0714 27.3982 98.4192 27.2259 98.7905 27.1267Z" fill="#A9B4BE"/>
<path d="M72.2151 41.0305C72.5751 41.0071 72.936 41.0574 73.2758 41.1783C73.6156 41.2991 73.9272 41.4881 74.1915 41.7335L86.159 52.622C86.693 53.1134 87.0163 53.7921 87.0614 54.5163C87.1066 55.2405 86.87 55.9541 86.4011 56.508C85.9641 57.0199 85.3507 57.3488 84.6826 57.4297C84.2973 57.4757 83.9067 57.438 83.5374 57.3194C83.168 57.2008 82.8286 57.004 82.5422 56.7423L70.5747 45.8538C70.0374 45.3601 69.7123 44.6774 69.6679 43.9491C69.6235 43.2208 69.8631 42.5036 70.3364 41.9483C70.5716 41.6767 70.8593 41.4554 71.1821 41.2976C71.505 41.1399 71.8563 41.0491 72.2151 41.0305Z" fill="#A9B4BE"/>
<path d="M40.9992 62.8744C40.9992 61.6293 37.3851 60.6327 32.5562 60.4063C32.2801 55.5834 31.2172 51.9972 29.972 52C28.7268 52.0028 27.6915 55.6165 27.4264 60.4643C22.5838 60.7956 18.9835 61.8778 19.0001 63.1256C19.0166 64.3734 22.6141 65.3701 27.443 65.5937C27.7329 70.4166 28.782 74.0028 30.0245 74C31.2669 73.9972 32.3078 70.3835 32.5728 65.5357C37.4155 65.2044 41.013 64.1222 40.9992 62.8744Z" fill="#D1EFFF"/>
<path d="M304.999 46.8744C304.999 45.6293 301.385 44.6327 296.556 44.4063C296.28 39.5834 295.217 35.9972 293.972 36C292.727 36.0028 291.691 39.6165 291.426 44.4643C286.584 44.7956 282.983 45.8778 283 47.1256C283.017 48.3734 286.614 49.3701 291.443 49.5937C291.733 54.4166 292.782 58.0028 294.024 58C295.267 57.9972 296.308 54.3835 296.573 49.5357C301.415 49.2044 305.013 48.1222 304.999 46.8744Z" fill="#D1EFFF"/>
</svg>
