<svg width="163" height="160" viewBox="0 0 163 160" fill="none" xmlns="http://www.w3.org/2000/svg">
<mask id="mask0_2707_37674" style="mask-type:alpha" maskUnits="userSpaceOnUse" x="0" y="11" width="140" height="140">
<circle cx="69.5146" cy="80.5146" r="69.5146" fill="#EBF8FF"/>
</mask>
<g mask="url(#mask0_2707_37674)">
<path d="M234.988 -5.31054H8.89581C7.42209 -5.3119 5.96256 -5.0228 4.60063 -4.45978C3.23871 -3.89676 2.00109 -3.07084 0.958536 -2.02924C-0.0840201 -0.98765 -0.911076 0.249193 -1.47536 1.6106C-2.03964 2.97201 -2.33008 4.43128 -2.33008 5.90499V138.803C-2.33008 141.781 -1.14736 144.636 0.957904 146.741C3.06317 148.847 5.91852 150.029 8.89581 150.029H234.988C237.965 150.029 240.82 148.847 242.926 146.741C245.031 144.636 246.214 141.781 246.214 138.803V5.90499C246.214 4.43128 245.923 2.97201 245.359 1.6106C244.795 0.249193 243.968 -0.98765 242.925 -2.02924C241.882 -3.07084 240.645 -3.89676 239.283 -4.45978C237.921 -5.0228 236.461 -5.3119 234.988 -5.31054Z" fill="#EBF8FF"/>
<rect x="18.6406" y="139.932" width="66.0564" height="10.0971" rx="3.1068" fill="#D1EFFF"/>
<rect x="79.0752" y="139.932" width="146.167" height="10.0971" rx="3.1068" fill="#B8E6FF"/>
<path d="M66.041 95.8494L77.4552 93.9214L80.6376 118.364C80.6889 118.754 80.5852 119.149 80.3481 119.465C80.111 119.782 79.7589 119.995 79.3658 120.061L72.9847 121.134C72.5901 121.203 72.1837 121.118 71.8515 120.897C71.5193 120.675 71.2873 120.335 71.2046 119.949L66.041 95.8494Z" fill="#F58B00"/>
<path d="M62.1357 103.542H96.3105V134.407C96.3105 136.078 95.6376 137.681 94.4399 138.863C93.2422 140.045 91.6178 140.709 89.924 140.709H68.5223C66.8285 140.709 65.204 140.045 64.0063 138.863C62.8086 137.681 62.1357 136.078 62.1357 134.407V103.542Z" fill="#B8E6FF"/>
<path d="M79.2218 105.385C88.6581 105.385 96.3078 104.56 96.3078 103.543C96.3078 102.525 88.6581 101.701 79.2218 101.701C69.7854 101.701 62.1357 102.525 62.1357 103.543C62.1357 104.56 69.7854 105.385 79.2218 105.385Z" fill="#9EDDFF"/>
<path d="M77.4443 93.921L74.3217 89.5688L67.5574 90.7112L66.0273 95.8464L77.4443 93.921Z" fill="#00144A"/>
<path d="M73.623 85.5377L66.8618 86.6792L67.5604 90.7073L74.3215 89.5658L73.623 85.5377Z" fill="#00144A"/>
<path d="M72.8353 85.6754L72.0879 81.3662C72.0731 81.277 72.0364 81.1927 71.981 81.1208C71.9255 81.0489 71.8531 80.9915 71.7699 80.9536C71.6867 80.9158 71.5954 80.8986 71.504 80.9037C71.4126 80.9088 71.3238 80.9359 71.2454 80.9827L67.1825 83.3773C67.0841 83.4343 67.0054 83.5194 66.9569 83.6214C66.9084 83.7233 66.8923 83.8374 66.9107 83.9485L67.3727 86.5979L72.8353 85.6754Z" fill="#F58B00"/>
<path d="M67.9762 104.908C70.9167 105.197 74.7405 105.377 78.9365 105.385L78.4256 101.462C74.7318 101.487 71.0417 101.7 67.3701 102.1L67.9762 104.908Z" fill="#F58B00"/>
<path d="M67.1632 41.8324L71.7674 37.2095C71.8327 37.1442 71.9166 37.1069 72.0098 37.1069H75.7472C75.8777 37.1069 75.9243 37.2747 75.8125 37.3493L66.0913 43.5007L67.1538 41.8417L67.1632 41.8324Z" fill="#B8E6FF"/>
<path d="M71.8606 37.1533L47.2454 49.4096C42.3242 51.8609 38.6893 56.3067 37.2726 61.6193L34.8773 70.6042C34.2341 73.0182 33.0784 75.2737 31.494 77.2124L28.0454 81.4252L53.9747 75.8329C62.7359 73.9409 68.384 65.3941 66.6784 56.5863C66.2963 54.629 66.2404 52.6252 66.5107 50.6492L66.6225 49.8197C66.9487 47.3964 67.5173 45.0011 68.3095 42.6896C68.6916 41.5898 69.2508 40.5553 69.9592 39.6325L71.8606 37.1533Z" fill="#D1EFFF"/>
<path d="M56.9574 74.8824C57.1345 74.8171 55.4848 75.7864 49.7155 77.8276C40.1434 81.7049 29.919 83.6995 19.592 83.6995C18.5761 83.6995 17.5695 83.5783 16.5908 83.3453L14.3353 82.814C14.1955 82.7767 14.2048 82.581 14.3353 82.5624L28.5955 79.5705C30.0028 79.2723 31.3916 78.8808 32.7524 78.3868L46.1085 73.5496C46.4067 73.447 46.7329 73.4657 47.0126 73.6241C47.3574 73.8571 47.8421 74.1554 48.4479 74.435C52.5768 76.3084 56.5753 75.0222 56.9667 74.8824H56.9574Z" fill="#B8E6FF"/>
<path d="M59.9212 48.1237L42.809 57.1272C42.3523 57.3695 42.1752 57.9288 42.4082 58.3948C42.6412 58.8608 43.2097 59.0565 43.6851 58.8235L60.9744 50.1835C61.4404 49.9505 61.6361 49.382 61.4031 48.9066L61.226 48.5431C60.993 48.0678 60.4058 47.8814 59.9305 48.1237H59.9212Z" fill="#B8E6FF"/>
<path d="M58.8306 53.884L41.7183 62.8875C41.2616 63.1298 41.0752 63.689 41.3176 64.155C41.5506 64.621 42.1191 64.8168 42.5944 64.5838L59.8838 55.9438C60.3498 55.7108 60.5455 55.1422 60.3125 54.6669L60.1354 54.3034C59.9024 53.828 59.3152 53.6416 58.8399 53.884H58.8306Z" fill="#B8E6FF"/>
<path d="M18.1404 49.469C18.2601 49.3261 18.4163 49.218 18.5925 49.156C18.7686 49.0941 18.9583 49.0808 19.1414 49.1173L23.5205 49.8728C24.2448 49.9975 24.5311 50.6615 24.433 51.2278C24.4014 51.461 24.2947 51.6777 24.129 51.8452C23.9633 52.0127 23.7475 52.1221 23.5142 52.1569C23.4009 52.1703 23.2863 52.1666 23.1742 52.1458L18.7951 51.3903C18.6023 51.3611 18.421 51.2804 18.2704 51.1568C18.1198 51.0333 18.0054 50.8714 17.9395 50.6883C17.8661 50.4849 17.8461 50.2661 17.8812 50.0527C17.9164 49.8393 18.0056 49.6384 18.1404 49.469Z" fill="#B8E6FF"/>
<path d="M34.7851 32.0219C34.9117 31.9789 35.0458 31.9627 35.179 31.9744C35.3121 31.986 35.4414 32.0252 35.5585 32.0895C35.6756 32.1538 35.778 32.2417 35.8592 32.3476C35.9403 32.4536 35.9984 32.5753 36.0297 32.7049L37.2364 36.8518C37.2793 37.001 37.2919 37.1573 37.2736 37.3115C37.2552 37.4656 37.2063 37.6146 37.1296 37.7497C37.0529 37.8848 36.95 38.0033 36.8268 38.0983C36.7037 38.1933 36.5628 38.2629 36.4125 38.303C36.3509 38.3212 36.288 38.3344 36.2243 38.3424C35.9893 38.3753 35.7505 38.3192 35.555 38.1852C35.3594 38.0512 35.2213 37.8489 35.1679 37.6184L33.9628 33.4731C33.9197 33.3239 33.9068 33.1677 33.9249 33.0135C33.9431 32.8594 33.9918 32.7103 34.0684 32.5752C34.145 32.4401 34.2478 32.3215 34.3709 32.2265C34.494 32.1315 34.6348 32.0619 34.7851 32.0219Z" fill="#B8E6FF"/>
<path d="M24.0247 37.6375C24.1704 37.6281 24.3165 37.6484 24.4541 37.6972C24.5917 37.746 24.7179 37.8223 24.8249 37.9214L29.6705 42.3191C29.8867 42.5176 30.0176 42.7917 30.0359 43.0842C30.0542 43.3767 29.9584 43.6649 29.7685 43.8886C29.5916 44.0954 29.3432 44.2282 29.0727 44.2609C28.9167 44.2794 28.7585 44.2643 28.609 44.2163C28.4594 44.1684 28.322 44.0889 28.206 43.9833L23.3604 39.5856C23.1429 39.3862 23.0113 39.1104 22.9933 38.8163C22.9753 38.5221 23.0723 38.2325 23.264 38.0082C23.3592 37.8985 23.4757 37.8091 23.6064 37.7454C23.7371 37.6817 23.8794 37.645 24.0247 37.6375Z" fill="#B8E6FF"/>
</g>
<path d="M123.533 91.3096L142.02 96.4187L121.755 97.1234L123.533 91.3096Z" fill="#F58B00"/>
<path d="M130.466 99.7663L142.02 96.4189L128.866 96.7713L130.466 99.7663Z" fill="#CC7400"/>
<path d="M113.109 140.616H85.8851C79.5256 140.616 76.3338 133.001 80.811 128.535L100.194 109.253L116.271 93.2622C121.964 87.5989 131.723 91.5859 131.723 99.5888V122.156C131.724 127.05 129.763 131.744 126.273 135.205C122.782 138.667 118.047 140.613 113.109 140.616Z" fill="#0070F2"/>
<path opacity="0.5" d="M119.695 98.67C120.934 97.4421 120.934 95.4517 119.696 94.2243C118.457 92.997 116.449 92.9973 115.21 94.2252L66.7578 142.244C65.5188 143.472 65.5184 145.462 66.7569 146.69C67.9954 147.917 70.0037 147.917 71.2426 146.689L119.695 98.67Z" fill="white"/>
<path d="M113.097 101.813L120.117 108.771C122.021 110.657 123.09 113.215 123.09 115.883C123.09 118.55 122.021 121.108 120.117 122.994L113.714 129.341C109.949 133.073 104.841 135.171 99.5158 135.172C94.1901 135.173 89.082 133.078 85.3148 129.347L113.097 101.813Z" fill="#004DA5"/>
<path d="M80.823 128.535L100.206 109.253L116.284 93.2621C119.335 90.2257 116.467 96.9929 119.727 98.638C120.308 98.0463 120.631 97.2514 120.626 96.4255C120.62 95.5995 120.287 94.8089 119.698 94.2247C119.103 93.6357 118.296 93.3048 117.455 93.3048C116.615 93.3048 115.808 93.6357 115.213 94.2247L66.7582 142.246C66.1639 142.836 65.8301 143.635 65.8301 144.469C65.8301 145.302 66.1639 146.101 66.7582 146.691C67.0528 146.983 67.4027 147.214 67.7876 147.372C68.1725 147.531 68.5851 147.612 69.0017 147.612C69.4184 147.612 69.8309 147.531 70.2158 147.372C70.6008 147.214 70.9506 146.983 71.2452 146.691L80.1852 137.831C78.2088 135.197 78.0685 131.274 80.823 128.535Z" fill="#004DA5"/>
<path d="M116.283 93.2618L100.206 109.253L80.823 128.535C78.0685 131.274 78.2087 135.196 80.1924 137.821L126.789 91.6431C126.798 91.6321 126.808 91.6217 126.818 91.6119C123.564 89.9668 119.335 90.2254 116.283 93.2618Z" fill="#004DA5"/>
<path d="M124.781 98.2606C124.995 98.6183 125.886 98.4799 126.772 97.9517C127.658 97.4235 128.203 96.7053 127.99 96.3477C127.777 95.9901 126.886 96.1284 126 96.6567C125.114 97.1849 124.568 97.903 124.781 98.2606Z" fill="#004DA5"/>
<path d="M146.561 98.1392C146.184 98.6376 146.52 99.3546 147.144 99.3836L156.252 99.8059C160.446 100 163.344 95.6665 161.561 91.8648C159.779 88.063 154.594 87.5189 152.061 90.8677L146.561 98.1392Z" fill="#D1EFFF"/>
</svg>
