<?xml version="1.0" encoding="UTF-8"?>
<!--Generator: Apple Native CoreSVG 341-->
<!DOCTYPE svg
PUBLIC "-//W3C//DTD SVG 1.1//EN"
       "http://www.w3.org/Graphics/SVG/1.1/DTD/svg11.dtd">
<svg version="1.1" xmlns="http://www.w3.org/2000/svg" xmlns:xlink="http://www.w3.org/1999/xlink" viewBox="0 0 3300 2200">
 <!--glyph: "", point size: 100.0, font version: "21.0d4e1", template writer version: "138.0.0"-->
 <style>.defaults {-sfsymbols-draw-reverses-motion-groups:true}

.monochrome-0 {-sfsymbols-motion-group:1;-sfsymbols-layer-tags:4e20b6d251bb45c2}
.monochrome-1 {-sfsymbols-motion-group:0;-sfsymbols-layer-tags:4e20b6d251bb45c2}

.multicolor-0:tintColor {-sfsymbols-motion-group:1;-sfsymbols-layer-tags:4e20b6d251bb45c2}
.multicolor-1:tintColor {-sfsymbols-motion-group:0;-sfsymbols-layer-tags:4e20b6d251bb45c2}

.hierarchical-0:primary {-sfsymbols-motion-group:1;-sfsymbols-layer-tags:4e20b6d251bb45c2}
.hierarchical-1:primary {-sfsymbols-motion-group:0;-sfsymbols-layer-tags:4e20b6d251bb45c2}

.SFSymbolsPreviewWireframe {fill:none;opacity:1.0;stroke:black;stroke-width:0.5}
</style>
 <g id="Notes">
  <rect height="2200" id="artboard" style="fill:white;opacity:1" width="3300" x="0" y="0"/>
  <line style="fill:none;stroke:black;opacity:1;stroke-width:0.5;" x1="263" x2="3036" y1="292" y2="292"/>
  <text style="stroke:none;fill:black;font-family:sans-serif;font-size:13;font-weight:bold;" transform="matrix(1 0 0 1 263 322)">Weight/Scale Variations</text>
  <text style="stroke:none;fill:black;font-family:sans-serif;font-size:13;text-anchor:middle;" transform="matrix(1 0 0 1 559.711 322)">Ultralight</text>
  <text style="stroke:none;fill:black;font-family:sans-serif;font-size:13;text-anchor:middle;" transform="matrix(1 0 0 1 856.422 322)">Thin</text>
  <text style="stroke:none;fill:black;font-family:sans-serif;font-size:13;text-anchor:middle;" transform="matrix(1 0 0 1 1153.13 322)">Light</text>
  <text style="stroke:none;fill:black;font-family:sans-serif;font-size:13;text-anchor:middle;" transform="matrix(1 0 0 1 1449.84 322)">Regular</text>
  <text style="stroke:none;fill:black;font-family:sans-serif;font-size:13;text-anchor:middle;" transform="matrix(1 0 0 1 1746.56 322)">Medium</text>
  <text style="stroke:none;fill:black;font-family:sans-serif;font-size:13;text-anchor:middle;" transform="matrix(1 0 0 1 2043.27 322)">Semibold</text>
  <text style="stroke:none;fill:black;font-family:sans-serif;font-size:13;text-anchor:middle;" transform="matrix(1 0 0 1 2339.98 322)">Bold</text>
  <text style="stroke:none;fill:black;font-family:sans-serif;font-size:13;text-anchor:middle;" transform="matrix(1 0 0 1 2636.69 322)">Heavy</text>
  <text style="stroke:none;fill:black;font-family:sans-serif;font-size:13;text-anchor:middle;" transform="matrix(1 0 0 1 2933.4 322)">Black</text>
  <line style="fill:none;stroke:black;opacity:1;stroke-width:0.5;" x1="263" x2="3036" y1="1903" y2="1903"/>
  <g transform="matrix(0.2 0 0 0.2 263 1933)">
   <path d="m46.2402 4.15039c21.7773 0 39.4531-17.627 39.4531-39.4043s-17.6758-39.4043-39.4531-39.4043c-21.7285 0-39.4043 17.627-39.4043 39.4043s17.6758 39.4043 39.4043 39.4043Zm0-7.42188c-17.6758 0-31.9336-14.3066-31.9336-31.9824s14.2578-31.9824 31.9336-31.9824 31.9824 14.3066 31.9824 31.9824-14.3066 31.9824-31.9824 31.9824Zm3.61328-17.7734v-28.4668c0-2.24609-1.46484-3.75977-3.71094-3.75977-2.14844 0-3.61328 1.51367-3.61328 3.75977v28.4668c0 2.19727 1.46484 3.71094 3.61328 3.71094 2.24609 0 3.71094-1.51367 3.71094-3.71094Zm-17.8223-10.5957h28.418c2.19727 0 3.71094-1.46484 3.71094-3.61328 0-2.19727-1.51367-3.71094-3.71094-3.71094h-28.418c-2.24609 0-3.75977 1.51367-3.75977 3.71094 0 2.14844 1.51367 3.61328 3.75977 3.61328Z"/>
  </g>
  <g transform="matrix(0.2 0 0 0.2 281.506 1933)">
   <path d="m58.5449 14.5508c27.4902 0 49.8047-22.3145 49.8047-49.8047s-22.3145-49.8047-49.8047-49.8047-49.8047 22.3145-49.8047 49.8047 22.3145 49.8047 49.8047 49.8047Zm0-8.30078c-22.9492 0-41.5039-18.5547-41.5039-41.5039s18.5547-41.5039 41.5039-41.5039 41.5039 18.5547 41.5039 41.5039-18.5547 41.5039-41.5039 41.5039Zm4.05273-23.0957v-36.9141c0-2.49023-1.70898-4.19922-4.15039-4.19922-2.39258 0-4.05273 1.70898-4.05273 4.19922v36.9141c0 2.44141 1.66016 4.15039 4.05273 4.15039 2.44141 0 4.15039-1.66016 4.15039-4.15039Zm-22.5586-14.4043h36.9629c2.44141 0 4.15039-1.61133 4.15039-4.00391 0-2.44141-1.70898-4.15039-4.15039-4.15039h-36.9629c-2.49023 0-4.15039 1.70898-4.15039 4.15039 0 2.39258 1.66016 4.00391 4.15039 4.00391Z"/>
  </g>
  <g transform="matrix(0.2 0 0 0.2 304.924 1933)">
   <path d="m74.8535 28.3203c35.1074 0 63.623-28.4668 63.623-63.5742s-28.5156-63.623-63.623-63.623-63.5742 28.5156-63.5742 63.623 28.4668 63.5742 63.5742 63.5742Zm0-9.08203c-30.127 0-54.4922-24.3652-54.4922-54.4922s24.3652-54.4922 54.4922-54.4922 54.4922 24.3652 54.4922 54.4922-24.3652 54.4922-54.4922 54.4922Zm4.44336-30.3223v-48.4863c0-2.73438-1.85547-4.63867-4.54102-4.63867-2.58789 0-4.44336 1.9043-4.44336 4.63867v48.4863c0 2.68555 1.85547 4.58984 4.44336 4.58984 2.68555 0 4.54102-1.85547 4.54102-4.58984Zm-28.7109-19.7754h48.4863c2.68555 0 4.58984-1.80664 4.58984-4.39453 0-2.73438-1.85547-4.58984-4.58984-4.58984h-48.4863c-2.73438 0-4.58984 1.85547-4.58984 4.58984 0 2.58789 1.85547 4.39453 4.58984 4.39453Z"/>
  </g>
  <text style="stroke:none;fill:black;font-family:sans-serif;font-size:13;font-weight:bold;" transform="matrix(1 0 0 1 263 1953)">Design Variations</text>
  <text style="stroke:none;fill:black;font-family:sans-serif;font-size:13;" transform="matrix(1 0 0 1 263 1971)">Symbols are supported in up to nine weights and three scales.</text>
  <text style="stroke:none;fill:black;font-family:sans-serif;font-size:13;" transform="matrix(1 0 0 1 263 1989)">For optimal layout with text and other symbols, vertically align</text>
  <text style="stroke:none;fill:black;font-family:sans-serif;font-size:13;" transform="matrix(1 0 0 1 263 2007)">symbols with the adjacent text.</text>
  <line style="fill:none;stroke:#00AEEF;stroke-width:0.5;opacity:1.0;" x1="776" x2="776" y1="1919" y2="1933"/>
  <g transform="matrix(0.2 0 0 0.2 776 1933)">
   <path d="m16.5527 0.78125c2.58789 0 3.85742-0.976562 4.78516-3.71094l20.5566-57.5195h0.244141l20.6055 57.5195c0.927734 2.73438 2.19727 3.71094 4.73633 3.71094 2.58789 0 4.24805-1.5625 4.24805-4.00391 0-0.830078-0.146484-1.61133-0.537109-2.63672l-22.9004-60.9863c-1.12305-2.97852-3.125-4.49219-6.25-4.49219-3.02734 0-5.07812 1.46484-6.15234 4.44336l-22.9004 61.084c-0.390625 1.02539-0.537109 1.80664-0.537109 2.63672 0 2.44141 1.5625 3.95508 4.10156 3.95508Zm10.2051-20.9473h30.6641c2.00195 0 3.66211-1.66016 3.66211-3.66211 0-2.05078-1.66016-3.66211-3.66211-3.66211h-30.6641c-2.00195 0-3.66211 1.61133-3.66211 3.66211 0 2.00195 1.66016 3.66211 3.66211 3.66211Z"/>
  </g>
  <line style="fill:none;stroke:#00AEEF;stroke-width:0.5;opacity:1.0;" x1="792.836" x2="792.836" y1="1919" y2="1933"/>
  <text style="stroke:none;fill:black;font-family:sans-serif;font-size:13;font-weight:bold;" transform="matrix(1 0 0 1 776 1953)">Margins</text>
  <text style="stroke:none;fill:black;font-family:sans-serif;font-size:13;" transform="matrix(1 0 0 1 776 1971)">Leading and trailing margins on the left and right side of each symbol</text>
  <text style="stroke:none;fill:black;font-family:sans-serif;font-size:13;" transform="matrix(1 0 0 1 776 1989)">can be adjusted by modifying the x-location of the margin guidelines.</text>
  <text style="stroke:none;fill:black;font-family:sans-serif;font-size:13;" transform="matrix(1 0 0 1 776 2007)">Modifications are automatically applied proportionally to all</text>
  <text style="stroke:none;fill:black;font-family:sans-serif;font-size:13;" transform="matrix(1 0 0 1 776 2025)">scales and weights.</text>
  <g transform="matrix(0.2 0 0 0.2 1289 1933)">
   <path d="m14.209 13.1348 7.86133 7.86133c4.29688 4.39453 9.32617 4.10156 13.8672-1.02539l60.6934-68.2129-4.88281-4.88281-60.2539 67.6758c-1.80664 1.95312-3.4668 2.44141-5.81055 0.0976562l-5.17578-5.12695c-2.29492-2.29492-1.80664-3.95508 0.195312-5.81055l67.4805-62.1582-4.88281-4.83398-68.0664 62.5977c-4.98047 4.58984-5.32227 9.47266-1.02539 13.8184Zm44.873-97.4609c-2.05078 2.00195-2.24609 4.88281-1.07422 6.78711 1.12305 1.80664 3.4668 3.02734 6.5918 2.24609 5.85938-1.66016 12.5977-2.39258 18.8965 0.927734l-2.68555 7.12891c-1.61133 4.00391-0.732422 6.88477 1.70898 9.42383l10.2539 10.3027c2.34375 2.39258 4.54102 2.44141 7.08008 1.95312l4.44336-0.732422 2.58789 2.53906-0.195312 2.24609c-0.0976562 2.29492 0.537109 4.29688 2.7832 6.49414l3.36914 3.32031c2.29492 2.29492 5.51758 2.49023 7.8125 0.195312l12.9883-13.0371c2.29492-2.34375 2.14844-5.37109-0.195312-7.66602l-3.41797-3.41797c-2.19727-2.19727-4.05273-3.02734-6.34766-2.88086l-2.34375 0.244141-2.44141-2.44141 1.02539-4.6875c0.634766-2.73438-0.244141-4.98047-2.88086-7.61719l-11.2793-11.1816c-12.9395-12.8418-35.5957-11.0352-46.6797-0.146484Zm7.08008 2.05078c8.78906-6.39648 25.9766-5.66406 33.6914 1.95312l12.3047 12.207c1.02539 1.02539 1.2207 1.80664 0.927734 3.32031l-1.46484 6.64062 6.73828 6.68945 4.39453-0.244141c1.12305-0.0488281 1.51367 0.0488281 2.34375 0.878906l2.53906 2.49023-10.8398 10.8398-2.49023-2.49023c-0.830078-0.878906-0.976562-1.2207-0.927734-2.39258l0.292969-4.3457-6.68945-6.73828-6.83594 1.17188c-1.41602 0.292969-2.05078 0.195312-3.17383-0.878906l-8.93555-8.88672c-1.07422-1.02539-1.17188-1.70898-0.488281-3.36914l4.58984-11.4746c-6.10352-6.34766-17.041-7.51953-25.5859-4.58984-0.683594 0.244141-0.927734-0.390625-0.390625-0.78125Z"/>
  </g>
  <text style="stroke:none;fill:black;font-family:sans-serif;font-size:13;font-weight:bold;" transform="matrix(1 0 0 1 1289 1953)">Exporting</text>
  <text style="stroke:none;fill:black;font-family:sans-serif;font-size:13;" transform="matrix(1 0 0 1 1289 1971)">Symbols should be outlined when exporting to ensure the</text>
  <text style="stroke:none;fill:black;font-family:sans-serif;font-size:13;" transform="matrix(1 0 0 1 1289 1989)">design is preserved when submitting to Xcode.</text>
  <text id="template-version" style="stroke:none;fill:black;font-family:sans-serif;font-size:13;text-anchor:end;" transform="matrix(1 0 0 1 3036 1933)">Template v.5.0</text>
  <text style="stroke:none;fill:black;font-family:sans-serif;font-size:13;text-anchor:end;" transform="matrix(1 0 0 1 3036 1951)">Requires Xcode 15 or greater</text>
  <text id="descriptive-name" style="stroke:none;fill:black;font-family:sans-serif;font-size:13;text-anchor:end;" transform="matrix(1 0 0 1 3036 1969)">Generated from fiori.sales.notification</text>
  <text style="stroke:none;fill:black;font-family:sans-serif;font-size:13;text-anchor:end;" transform="matrix(1 0 0 1 3036 1987)">Typeset at 100.0 points</text>
  <text style="stroke:none;fill:black;font-family:sans-serif;font-size:13;" transform="matrix(1 0 0 1 263 726)">Small</text>
  <text style="stroke:none;fill:black;font-family:sans-serif;font-size:13;" transform="matrix(1 0 0 1 263 1156)">Medium</text>
  <text style="stroke:none;fill:black;font-family:sans-serif;font-size:13;" transform="matrix(1 0 0 1 263 1586)">Large</text>
 </g>
 <g id="Guides">
  <g id="H-reference" style="fill:#27AAE1;stroke:none;" transform="matrix(1 0 0 1 339 696)">
   <path d="M0.993654 0L3.63775 0L29.3281-67.1323L30.0303-67.1323L30.0303-70.459L28.1226-70.459ZM11.6885-24.4799L46.9815-24.4799L46.2315-26.7285L12.4385-26.7285ZM55.1196 0L57.7637 0L30.6382-70.459L29.4326-70.459L29.4326-67.1323Z"/>
  </g>
  <line id="Baseline-S" style="fill:none;stroke:#27AAE1;opacity:1;stroke-width:0.5;" x1="263" x2="3036" y1="696" y2="696"/>
  <line id="Capline-S" style="fill:none;stroke:#27AAE1;opacity:1;stroke-width:0.5;" x1="263" x2="3036" y1="625.541" y2="625.541"/>
  <g id="H-reference" style="fill:#27AAE1;stroke:none;" transform="matrix(1 0 0 1 339 1126)">
   <path d="M0.993654 0L3.63775 0L29.3281-67.1323L30.0303-67.1323L30.0303-70.459L28.1226-70.459ZM11.6885-24.4799L46.9815-24.4799L46.2315-26.7285L12.4385-26.7285ZM55.1196 0L57.7637 0L30.6382-70.459L29.4326-70.459L29.4326-67.1323Z"/>
  </g>
  <line id="Baseline-M" style="fill:none;stroke:#27AAE1;opacity:1;stroke-width:0.5;" x1="263" x2="3036" y1="1126" y2="1126"/>
  <line id="Capline-M" style="fill:none;stroke:#27AAE1;opacity:1;stroke-width:0.5;" x1="263" x2="3036" y1="1055.54" y2="1055.54"/>
  <g id="H-reference" style="fill:#27AAE1;stroke:none;" transform="matrix(1 0 0 1 339 1556)">
   <path d="M0.993654 0L3.63775 0L29.3281-67.1323L30.0303-67.1323L30.0303-70.459L28.1226-70.459ZM11.6885-24.4799L46.9815-24.4799L46.2315-26.7285L12.4385-26.7285ZM55.1196 0L57.7637 0L30.6382-70.459L29.4326-70.459L29.4326-67.1323Z"/>
  </g>
  <line id="Baseline-L" style="fill:none;stroke:#27AAE1;opacity:1;stroke-width:0.5;" x1="263" x2="3036" y1="1556" y2="1556"/>
  <line id="Capline-L" style="fill:none;stroke:#27AAE1;opacity:1;stroke-width:0.5;" x1="263" x2="3036" y1="1485.54" y2="1485.54"/>
  <line id="right-margin-Black-S" style="fill:none;stroke:#00AEEF;stroke-width:0.5;opacity:1.0;" x1="2981.9" x2="2981.9" y1="600.785" y2="720.121"/>
  <line id="left-margin-Black-S" style="fill:none;stroke:#00AEEF;stroke-width:0.5;opacity:1.0;" x1="2884.9" x2="2884.9" y1="600.785" y2="720.121"/>
  <line id="right-margin-Regular-S" style="fill:none;stroke:#00AEEF;stroke-width:0.5;opacity:1.0;" x1="1496.29" x2="1496.29" y1="600.785" y2="720.121"/>
  <line id="left-margin-Regular-S" style="fill:none;stroke:#00AEEF;stroke-width:0.5;opacity:1.0;" x1="1403.39" x2="1403.39" y1="600.785" y2="720.121"/>
  <line id="right-margin-Ultralight-S" style="fill:none;stroke:#00AEEF;stroke-width:0.5;opacity:1.0;" x1="604.411" x2="604.411" y1="600.785" y2="720.121"/>
  <line id="left-margin-Ultralight-S" style="fill:none;stroke:#00AEEF;stroke-width:0.5;opacity:1.0;" x1="515.011" x2="515.011" y1="600.785" y2="720.121"/>
 </g>
 <g id="Symbols">
  <g id="Black-S" transform="matrix(1 0 0 1 2884.9 696)">
   <path class="monochrome-0 multicolor-0:tintColor hierarchical-0:primary SFSymbolsPreviewWireframe" d="M85.51 13.2C83.71 13.2 82.41 12.4 81.61 11.6L66.81-3.2L21.81-3.2C13.01-3.2 6.01-10.3 6.01-19L6.01-56C6.01-64.7 13.11-71.8 21.81-71.8L75.31-71.8C83.91-71.8 91.01-64.7 91.01-56L91.01 7.7C91.01 9.8 90.01 11.6 87.61 12.8C87.01 13.1 86.21 13.2 85.51 13.2ZM21.81-60.8C19.21-60.8 17.01-58.7 17.01-56L17.01-19C17.01-16.4 19.11-14.2 21.81-14.2L69.01-14.2C70.91-14.2 72.11-13.4 72.91-12.6L79.91-5.6L79.91-56C79.91-58.6 77.81-60.8 75.11-60.8L21.81-60.8ZM38.21-19.6L26.91-19.6C22.91-19.6 21.41-22.9 21.41-25.1C21.41-27.3 23.21-30.6 26.91-30.6L38.21-30.6C38.61-30.6 38.81-30.9 38.81-31.2C38.81-31.6 38.51-31.8 38.21-31.8L34.11-31.8C28.51-31.8 22.41-36.3 22.41-43.5C22.41-50.7 28.51-55.2 34.11-55.2L44.41-55.2C48.21-55.2 49.91-51.9 49.91-49.7C49.91-47.5 48.21-44.2 44.41-44.2L34.11-44.2C33.81-44.2 33.51-44 33.51-43.6C33.51-43.2 33.91-43 34.11-43L38.21-43C45.31-43 49.91-36.9 49.91-31.3C49.91-25.7 45.31-19.6 38.21-19.6ZM36.21-44.3C33.11-44.3 30.71-46.8 30.71-49.8L30.71-66.2C30.71-69.3 33.21-71.7 36.21-71.7C39.21-71.7 41.71-69.2 41.71-66.2L41.71-49.8C41.71-46.8 39.21-44.3 36.21-44.3ZM36.21-3.2C33.11-3.2 30.71-5.7 30.71-8.7L30.71-25.1C30.71-28.2 33.21-30.6 36.21-30.6C39.21-30.6 41.71-28.1 41.71-25.1L41.71-8.7C41.71-5.7 39.21-3.2 36.21-3.2Z"/>
   <path class="monochrome-1 multicolor-1:tintColor hierarchical-1:primary SFSymbolsPreviewWireframe" d="M70.11-45.3L62.91-45.3C59.81-45.3 57.41-47.8 57.41-50.8C57.41-53.9 59.91-56.3 62.91-56.3L70.11-56.3C73.21-56.3 75.61-53.8 75.61-50.8C75.61-47.8 73.11-45.3 70.11-45.3ZM70.11-32.8L62.91-32.8C59.81-32.8 57.41-35.3 57.41-38.3C57.41-41.4 59.91-43.8 62.91-43.8L70.11-43.8C73.21-43.8 75.61-41.3 75.61-38.3C75.61-35.2 73.11-32.8 70.11-32.8ZM70.11-20.2L62.91-20.2C59.81-20.2 57.41-22.7 57.41-25.7C57.41-28.7 59.91-31.2 62.91-31.2L70.11-31.2C73.21-31.2 75.61-28.7 75.61-25.7C75.61-22.7 73.11-20.2 70.11-20.2Z"/>
  </g>
  <g id="Regular-S" transform="matrix(1 0 0 1 1403.39 696)">
   <path class="monochrome-0 multicolor-0:tintColor hierarchical-0:primary SFSymbolsPreviewWireframe" d="M83.46 11.8C82.36 11.8 81.36 11.4 80.56 10.6L65.36-4.6L19.76-4.6C11.86-4.6 5.36-11.1 5.36-19L5.36-56C5.36-63.9 11.86-70.4 19.76-70.4L73.26-70.4C81.16-70.4 87.66-63.9 87.66-56L87.66 7.7C87.66 9.4 86.66 10.9 85.16 11.5C84.56 11.7 84.06 11.8 83.46 11.8ZM19.76-62.2C16.36-62.2 13.56-59.4 13.56-56L13.56-19C13.56-15.6 16.36-12.8 19.76-12.8L67.06-12.8C68.16-12.8 69.16-12.4 69.96-11.6L79.36-2.2L79.36-56C79.36-59.4 76.56-62.2 73.16-62.2L19.76-62.2ZM36.26-21.1L24.96-21.1C22.66-21.1 20.86-22.9 20.86-25.2C20.86-27.5 22.66-29.3 24.96-29.3L36.26-29.3C37.26-29.3 38.36-30.3 38.36-31.4C38.36-32.5 37.36-33.5 36.26-33.5L32.16-33.5C26.56-33.5 21.86-38.2 21.86-43.8C21.86-49.4 26.56-54 32.16-54L42.46-54C44.76-54 46.56-52.2 46.56-49.9C46.56-47.6 44.76-45.8 42.46-45.8L32.16-45.8C31.16-45.8 30.06-44.8 30.06-43.7C30.06-42.7 31.06-41.6 32.16-41.6L36.26-41.6C41.86-41.6 46.56-36.9 46.56-31.3C46.56-25.7 41.76-21.1 36.26-21.1ZM34.16-45.7C31.86-45.7 30.06-47.5 30.06-49.8L30.06-66.2C30.06-68.5 31.86-70.3 34.16-70.3C36.46-70.3 38.26-68.5 38.26-66.2L38.26-49.8C38.26-47.6 36.46-45.7 34.16-45.7ZM34.16-4.6C31.86-4.6 30.06-6.4 30.06-8.7L30.06-25.1C30.06-27.4 31.86-29.2 34.16-29.2C36.46-29.2 38.26-27.4 38.26-25.1L38.26-8.7C38.26-6.5 36.46-4.6 34.16-4.6Z"/>
   <path class="monochrome-1 multicolor-1:tintColor hierarchical-1:primary SFSymbolsPreviewWireframe" d="M68.06-46.8L60.86-46.8C58.56-46.8 56.76-48.6 56.76-50.9C56.76-53.2 58.56-55 60.86-55L68.06-55C70.36-55 72.16-53.2 72.16-50.9C72.16-48.6 70.36-46.8 68.06-46.8ZM68.06-35.5L60.86-35.5C58.56-35.5 56.76-37.3 56.76-39.6C56.76-41.9 58.56-43.7 60.86-43.7L68.06-43.7C70.36-43.7 72.16-41.9 72.16-39.6C72.16-37.3 70.36-35.5 68.06-35.5ZM68.06-24.1L60.86-24.1C58.56-24.1 56.76-25.9 56.76-28.2C56.76-30.5 58.56-32.3 60.86-32.3L68.06-32.3C70.36-32.3 72.16-30.5 72.16-28.2C72.16-25.9 70.36-24.1 68.06-24.1Z"/>
  </g>
  <g id="Ultralight-S" transform="matrix(1 0 0 1 515.011 696)">
   <path class="monochrome-0 multicolor-0:tintColor hierarchical-0:primary SFSymbolsPreviewWireframe" d="M81.775 9C81.475 9 81.175 8.9 80.875 8.6L64.775-7.5L17.975-7.5C11.675-7.5 6.475-12.6 6.475-19L6.475-56C6.475-62.4 11.675-67.6 18.075-67.6L71.575-67.6C77.975-67.6 83.175-62.4 83.175-56L83.175 7.7C83.175 8.3 82.775 8.7 82.375 8.9C81.975 9 81.975 9 81.775 9ZM17.975-65C12.975-65 8.975-61 8.975-56L8.975-19C8.975-14 12.975-10 17.975-10L65.275-10C66.375-10 65.375-10.4 66.175-9.6L80.475 4.6L80.475-56C80.475-61 76.475-65 71.475-65L17.975-65ZM34.475-23.9L23.175-23.9C22.375-23.9 21.875-24.5 21.875-25.2C21.875-26 22.575-26.5 23.175-26.5L34.475-26.5C37.075-26.5 39.375-28.6 39.375-31.4C39.375-34.3 36.775-36.3 34.475-36.3L30.375-36.3C26.075-36.3 22.975-40 22.975-43.7C22.975-48.3 27.075-51.1 30.375-51.1L40.675-51.1C41.475-51.1 41.975-50.5 41.975-49.8C41.975-49.1 41.375-48.5 40.675-48.5L30.375-48.5C27.775-48.5 25.475-46.2 25.475-43.6C25.475-40.8 27.975-38.7 30.375-38.7L34.475-38.7C37.975-38.7 41.875-35.8 41.875-31.3C41.875-26.8 37.875-23.9 34.475-23.9ZM32.375-48.6C31.675-48.6 31.075-49.2 31.075-49.9L31.075-66.3C31.075-67 31.675-67.6 32.375-67.6C33.075-67.6 33.675-67 33.675-66.3L33.675-49.9C33.675-49.1 33.075-48.6 32.375-48.6ZM32.375-7.5C31.675-7.5 31.075-8.1 31.075-8.8L31.075-25.2C31.075-25.9 31.675-26.5 32.375-26.5C33.075-26.5 33.675-25.9 33.675-25.2L33.675-8.8C33.675-8 33.075-7.5 32.375-7.5Z"/>
   <path class="monochrome-1 multicolor-1:tintColor hierarchical-1:primary SFSymbolsPreviewWireframe" d="M66.375-49.6L59.175-49.6C58.475-49.6 57.875-50.2 57.875-50.9C57.875-51.6 58.475-52.2 59.175-52.2L66.375-52.2C67.075-52.2 67.675-51.6 67.675-50.9C67.675-50.2 67.075-49.6 66.375-49.6ZM66.375-38.3L59.175-38.3C58.475-38.3 57.875-38.9 57.875-39.6C57.875-40.3 58.475-40.9 59.175-40.9L66.375-40.9C67.075-40.9 67.675-40.3 67.675-39.6C67.575-38.9 67.075-38.3 66.375-38.3ZM66.375-27L59.175-27C58.475-27 57.875-27.6 57.875-28.3C57.875-29 58.475-29.6 59.175-29.6L66.375-29.6C67.075-29.6 67.675-29 67.675-28.3C67.675-27.6 67.075-27 66.375-27Z"/>
  </g>
 </g>
</svg>
