<svg width="320" height="240" viewBox="0 0 320 240" fill="none" xmlns="http://www.w3.org/2000/svg">
<path d="M305.547 19H14.4533C12.5559 18.9983 10.6768 19.3705 8.92329 20.0954C7.16981 20.8203 5.57638 21.8836 4.23409 23.2247C2.8918 24.5657 1.82697 26.1582 1.10045 27.911C0.373942 29.6638 -8.08861e-07 31.5426 0 33.44V204.547C0 208.38 1.52275 212.056 4.23328 214.767C6.9438 217.477 10.6201 219 14.4533 219H305.547C309.38 219 313.056 217.477 315.767 214.767C318.477 212.056 320 208.38 320 204.547V33.44C320 31.5426 319.626 29.6638 318.9 27.911C318.173 26.1582 317.108 24.5657 315.766 23.2247C314.424 21.8836 312.83 20.8203 311.077 20.0954C309.323 19.3705 307.444 18.9983 305.547 19Z" fill="#223548"/>
<path d="M151.678 129H29.2979C27.4118 129 25.8828 130.532 25.8828 132.421V211.821C25.8828 213.71 27.4118 215.242 29.2979 215.242H151.678C153.564 215.242 155.093 213.71 155.093 211.821V132.421C155.093 130.532 153.564 129 151.678 129Z" fill="#2A4259"/>
<path d="M148.845 133.647H31.9615C30.211 133.647 28.792 135.069 28.792 136.823V208.339C28.792 210.093 30.211 211.514 31.9615 211.514H148.845C150.595 211.514 152.014 210.093 152.014 208.339V136.823C152.014 135.069 150.595 133.647 148.845 133.647Z" fill="#223548"/>
<path d="M172.875 216.82H12L16.0384 218.462C16.2933 218.564 16.5648 218.618 16.8393 218.621L168.742 219C169.143 219.002 169.536 218.89 169.875 218.678L172.871 216.809L172.875 216.82Z" fill="#324E6B"/>
<path d="M172.875 216.23C172.874 215.945 172.761 215.673 172.559 215.472C172.358 215.271 172.086 215.159 171.802 215.159H13.0729C12.789 215.159 12.5167 215.271 12.3156 215.472C12.1145 215.673 12.001 215.945 12 216.23V216.82H172.875V216.23Z" fill="#2A4259"/>
<path d="M83.0777 215.125H101.63V215.503C101.63 215.904 101.471 216.289 101.188 216.573C100.904 216.857 100.52 217.017 100.119 217.017H84.5775C84.1767 217.017 83.7924 216.857 83.509 216.573C83.2256 216.289 83.0664 215.904 83.0664 215.503V215.125H83.0777Z" fill="#3B5B7C"/>
<path d="M90.7238 132.039C91.1807 132.039 91.5511 131.668 91.5511 131.21C91.5511 130.752 91.1807 130.381 90.7238 130.381C90.2669 130.381 89.8965 130.752 89.8965 131.21C89.8965 131.668 90.2669 132.039 90.7238 132.039Z" fill="#324E6B"/>
<path d="M295.976 131.052L241.064 112.242C238.732 111.45 236.202 112.682 235.41 115.014L208.042 194.896C207.25 197.228 208.482 199.758 210.814 200.55L265.726 219.36C268.058 220.152 270.588 218.92 271.38 216.588L298.748 136.706C299.54 134.374 298.308 131.844 295.976 131.052Z" fill="#2A4259"/>
<path d="M263.042 132.416C261.238 131.69 259.236 131.514 257.344 131.932C255.43 132.328 253.692 133.296 252.328 134.704C250.964 136.112 250.04 137.872 249.688 139.786C249.336 141.7 249.556 143.68 250.326 145.484C251.096 147.288 252.372 148.806 254.022 149.862C255.65 150.918 257.564 151.49 259.522 151.446C261.48 151.424 263.372 150.808 264.978 149.708C266.584 148.608 267.838 147.046 268.564 145.242L259.39 141.59L263.064 132.416H263.042Z" fill="#223548"/>
<path d="M265.967 131.074L262.315 140.226L271.467 143.878C271.951 142.668 272.193 141.392 272.171 140.094C272.171 138.796 271.885 137.52 271.379 136.332C270.873 135.144 270.125 134.066 269.201 133.164C268.277 132.262 267.177 131.558 265.967 131.074Z" fill="#324E6B"/>
<path d="M273.579 163.832L235.321 150.72C234.045 150.28 232.681 150.962 232.241 152.238C231.801 153.514 232.483 154.878 233.759 155.318L272.017 168.43C273.293 168.87 274.657 168.188 275.097 166.912C275.537 165.636 274.855 164.272 273.579 163.832Z" fill="#223548"/>
<path d="M270.279 171.62L232.021 158.508C230.745 158.068 229.381 158.75 228.941 160.026C228.501 161.302 229.183 162.666 230.459 163.106L268.717 176.218C269.993 176.658 271.379 175.976 271.797 174.7C272.237 173.424 271.555 172.06 270.279 171.62Z" fill="#223548"/>
<path d="M249.248 173.116L228.876 166.142C227.6 165.702 226.214 166.384 225.796 167.66C225.356 168.936 226.038 170.3 227.314 170.74L247.708 177.714C248.984 178.154 250.348 177.472 250.788 176.196C251.228 174.92 250.546 173.556 249.27 173.116H249.248Z" fill="#223548"/>
<path d="M197.308 44H94.3014C88.0598 44 83 49.0598 83 55.3014V182.699C83 188.94 88.0598 194 94.3014 194H197.308C203.549 194 208.609 188.94 208.609 182.699V55.3014C208.609 49.0598 203.549 44 197.308 44Z" fill="#CEDBE8"/>
<path fill-rule="evenodd" clip-rule="evenodd" d="M94.5801 56.1442C94.5801 55.6305 94.7017 55.2188 94.8468 55.2188H180.383C180.532 55.2188 180.65 55.6109 180.65 56.1442V181.859C180.65 182.373 180.532 182.785 180.383 182.785H94.8468C94.7017 182.785 94.5801 182.392 94.5801 181.859V56.1442Z" fill="#CEDBE8"/>
<path d="M180.65 67.2539H94.5801V77.673H180.65V67.2539Z" fill="#2A4259"/>
<path d="M130.119 58.9204H101.874C100.531 58.9204 99.4424 60.0089 99.4424 61.3517C99.4424 62.6944 100.531 63.7829 101.874 63.7829H130.119C131.462 63.7829 132.55 62.6944 132.55 61.3517C132.55 60.0089 131.462 58.9204 130.119 58.9204Z" fill="#0070F3"/>
<path d="M124.218 71.1904H100.831C100.064 71.1904 99.4424 71.8119 99.4424 72.5786C99.4424 73.3453 100.064 73.9668 100.831 73.9668H124.218C124.984 73.9668 125.606 73.3453 125.606 72.5786C125.606 71.8119 124.984 71.1904 124.218 71.1904Z" fill="#0070F3"/>
<path d="M119.818 81.3784H100.831C100.064 81.3784 99.4424 81.9999 99.4424 82.7666C99.4424 83.5332 100.064 84.1547 100.831 84.1547H119.818C120.584 84.1547 121.206 83.5332 121.206 82.7666C121.206 81.9999 120.584 81.3784 119.818 81.3784Z" fill="#0070F3"/>
<path d="M122.825 92.0288H100.831C100.064 92.0288 99.4424 92.6503 99.4424 93.417C99.4424 94.1836 100.064 94.8051 100.831 94.8051H122.825C123.592 94.8051 124.214 94.1836 124.214 93.417C124.214 92.6503 123.592 92.0288 122.825 92.0288Z" fill="#0070F3"/>
<path d="M110.787 102.213H100.831C100.064 102.213 99.4424 102.834 99.4424 103.601C99.4424 104.368 100.064 104.989 100.831 104.989H110.787C111.554 104.989 112.175 104.368 112.175 103.601C112.175 102.834 111.554 102.213 110.787 102.213Z" fill="#0070F3"/>
<path d="M110.787 112.632H100.831C100.064 112.632 99.4424 113.253 99.4424 114.02C99.4424 114.787 100.064 115.408 100.831 115.408H110.787C111.554 115.408 112.175 114.787 112.175 114.02C112.175 113.253 111.554 112.632 110.787 112.632Z" fill="#0070F3"/>
<path d="M110.787 133.47H100.831C100.064 133.47 99.4424 134.091 99.4424 134.858C99.4424 135.625 100.064 136.246 100.831 136.246H110.787C111.554 136.246 112.175 135.625 112.175 134.858C112.175 134.091 111.554 133.47 110.787 133.47Z" fill="#0070F3"/>
<path d="M110.787 123.051H100.831C100.064 123.051 99.4424 123.672 99.4424 124.439C99.4424 125.206 100.064 125.827 100.831 125.827H110.787C111.554 125.827 112.175 125.206 112.175 124.439C112.175 123.672 111.554 123.051 110.787 123.051Z" fill="#0070F3"/>
<path d="M110.787 143.889H100.831C100.064 143.889 99.4424 144.51 99.4424 145.277C99.4424 146.043 100.064 146.665 100.831 146.665H110.787C111.554 146.665 112.175 146.043 112.175 145.277C112.175 144.51 111.554 143.889 110.787 143.889Z" fill="#0070F3"/>
<path d="M110.74 154.351H100.784C100.017 154.351 99.3955 154.973 99.3955 155.739C99.3955 156.506 100.017 157.127 100.784 157.127H110.74C111.507 157.127 112.128 156.506 112.128 155.739C112.128 154.973 111.507 154.351 110.74 154.351Z" fill="#0070F3"/>
<path d="M172.858 70.9277H149.471C148.705 70.9277 148.083 71.5492 148.083 72.3159C148.083 73.0826 148.705 73.7041 149.471 73.7041H172.858C173.625 73.7041 174.246 73.0826 174.246 72.3159C174.246 71.5492 173.625 70.9277 172.858 70.9277Z" fill="#0070F3"/>
<path d="M168.458 81.1157H149.471C148.705 81.1157 148.083 81.7372 148.083 82.5039C148.083 83.2706 148.705 83.8921 149.471 83.8921H168.458C169.225 83.8921 169.847 83.2706 169.847 82.5039C169.847 81.7372 169.225 81.1157 168.458 81.1157Z" fill="#0070F3"/>
<path d="M171.466 91.7622H149.471C148.705 91.7622 148.083 92.3837 148.083 93.1504C148.083 93.917 148.705 94.5385 149.471 94.5385H171.466C172.233 94.5385 172.854 93.917 172.854 93.1504C172.854 92.3837 172.233 91.7622 171.466 91.7622Z" fill="#0070F3"/>
<path d="M159.428 101.95H149.471C148.705 101.95 148.083 102.571 148.083 103.338C148.083 104.105 148.705 104.726 149.471 104.726H159.428C160.194 104.726 160.816 104.105 160.816 103.338C160.816 102.571 160.194 101.95 159.428 101.95Z" fill="#0070F3"/>
<path d="M159.428 112.369H149.471C148.705 112.369 148.083 112.991 148.083 113.757C148.083 114.524 148.705 115.145 149.471 115.145H159.428C160.194 115.145 160.816 114.524 160.816 113.757C160.816 112.991 160.194 112.369 159.428 112.369Z" fill="#0070F3"/>
<path d="M159.428 133.207H149.471C148.705 133.207 148.083 133.829 148.083 134.595C148.083 135.362 148.705 135.983 149.471 135.983H159.428C160.194 135.983 160.816 135.362 160.816 134.595C160.816 133.829 160.194 133.207 159.428 133.207Z" fill="#0070F3"/>
<path d="M159.428 122.788H149.471C148.705 122.788 148.083 123.41 148.083 124.176C148.083 124.943 148.705 125.564 149.471 125.564H159.428C160.194 125.564 160.816 124.943 160.816 124.176C160.816 123.41 160.194 122.788 159.428 122.788Z" fill="#0070F3"/>
<path d="M159.428 143.626H149.471C148.705 143.626 148.083 144.248 148.083 145.015C148.083 145.781 148.705 146.403 149.471 146.403H159.428C160.194 146.403 160.816 145.781 160.816 145.015C160.816 144.248 160.194 143.626 159.428 143.626Z" fill="#0070F3"/>
<path d="M159.428 154.045H149.471C148.705 154.045 148.083 154.666 148.083 155.433C148.083 156.2 148.705 156.821 149.471 156.821H159.428C160.194 156.821 160.816 156.2 160.816 155.433C160.816 154.666 160.194 154.045 159.428 154.045Z" fill="#0070F3"/>
<path d="M191.261 70.5156H233.078C233.105 70.5156 233.132 70.5267 233.152 70.5464C233.171 70.5661 233.183 70.5928 233.183 70.6207V176.165C233.183 176.193 233.171 176.22 233.152 176.239C233.132 176.259 233.105 176.27 233.078 176.27H191.366C191.338 176.27 191.311 176.259 191.292 176.239C191.272 176.22 191.261 176.193 191.261 176.165V70.5156Z" fill="#B9C1C6"/>
<path d="M236.165 67.4785H194.243V173.237H236.165V67.4785Z" fill="#CEDBE8"/>
<path d="M194.243 67.4785H236.074C236.098 67.4785 236.121 67.4881 236.138 67.5053C236.155 67.5224 236.165 67.5456 236.165 67.5698V80.151H194.243V67.4785Z" fill="#2A4259"/>
<path d="M226.049 72.0454H198.814C197.921 72.0454 197.197 72.7692 197.197 73.662C197.197 74.5548 197.921 75.2786 198.814 75.2786H226.049C226.942 75.2786 227.666 74.5548 227.666 73.662C227.666 72.7692 226.942 72.0454 226.049 72.0454Z" fill="#0070F3"/>
<path d="M72.9991 96.863C72.9991 95.5047 69.0565 94.4175 63.7886 94.1705C63.4874 88.9092 62.3278 84.997 60.9695 85C59.6111 85.003 58.4816 88.9453 58.1925 94.2338C52.9096 94.5952 48.982 95.7758 49.0001 97.137C49.0181 98.4983 52.9427 99.5855 58.2105 99.8295C58.5268 105.091 59.6713 109.003 61.0267 109C62.3821 108.997 63.5175 105.055 63.8067 99.7662C69.0896 99.4048 73.0141 98.2242 72.9991 96.863Z" fill="#2A4259"/>
<path d="M44.4994 58.9029C44.4994 57.9408 41.7067 57.1707 37.9753 56.9958C37.7619 53.269 36.9406 50.4979 35.9784 50.5C35.0162 50.5021 34.2161 53.2946 34.0113 57.0406C30.2693 57.2966 27.4872 58.1328 27.5 59.0971C27.5128 60.0613 30.2927 60.8314 34.0241 61.0042C34.2482 64.731 35.0589 67.5021 36.0189 67.5C36.979 67.4979 37.7833 64.7054 37.9881 60.9594C41.7301 60.7034 44.51 59.8672 44.4994 58.9029Z" fill="#2A4259"/>
<path d="M249.999 46.863C249.999 45.5047 246.056 44.4175 240.789 44.1705C240.487 38.9092 239.328 34.997 237.969 35C236.611 35.003 235.482 38.9453 235.192 44.2338C229.91 44.5952 225.982 45.7758 226 47.137C226.018 48.4983 229.943 49.5855 235.211 49.8295C235.527 55.0908 236.671 59.003 238.027 59C239.382 58.997 240.518 55.0547 240.807 49.7662C246.09 49.4048 250.014 48.2242 249.999 46.863Z" fill="#F58B00"/>
<path d="M267.499 70.9029C267.499 69.9408 264.707 69.1707 260.975 68.9958C260.762 65.269 259.941 62.4979 258.978 62.5C258.016 62.5021 257.216 65.2946 257.011 69.0406C253.269 69.2966 250.487 70.1328 250.5 71.0971C250.513 72.0613 253.293 72.8314 257.024 73.0042C257.248 76.731 258.059 79.5021 259.019 79.5C259.979 79.4979 260.783 76.7054 260.988 72.9594C264.73 72.7034 267.51 71.8672 267.499 70.9029Z" fill="#F58B00"/>
<path d="M215 139C223.284 139 230 132.284 230 124C230 115.716 223.284 109 215 109C206.716 109 200 115.716 200 124C200 132.284 206.716 139 215 139Z" fill="#F58B00"/>
<path d="M215.005 115.832H215C213.88 115.832 212.973 116.739 212.973 117.859V130.142C212.973 131.261 213.88 132.169 215 132.169H215.005C216.124 132.169 217.032 131.261 217.032 130.142V117.859C217.032 116.739 216.124 115.832 215.005 115.832Z" fill="#CEDBE8"/>
<path d="M207.18 123.768V124.226C207.18 125.221 207.986 126.027 208.98 126.027H221.036C222.031 126.027 222.837 125.221 222.837 124.226V123.768C222.837 122.774 222.031 121.968 221.036 121.968H208.98C207.986 121.968 207.18 122.774 207.18 123.768Z" fill="#CEDBE8"/>
</svg>
