<svg width="320" height="172" viewBox="0 0 320 172" fill="none" xmlns="http://www.w3.org/2000/svg">
<rect y="17.5" width="320" height="138" rx="24" fill="#89D1FF"/>
<path d="M238.001 22.8076L185.102 40.4609L198.908 47.13L200.524 54.1997L205.401 50.1147C207.67 50.1433 211.465 50.621 217.03 52.6381L238.001 22.8076Z" fill="#1B90FF"/>
<path d="M102 48.0384L110.064 55.1798L111.643 58.1776L113.615 57.0784C115.296 57.8514 118.153 59.5056 119.425 62.2482L142.315 41.0518L102 48.0374V48.0384Z" fill="#1B90FF"/>
<path d="M159.347 122.24L164.879 127.521L167.918 122.9L172.755 123.27L186.929 94.0004L139.897 124.584L159.347 122.24Z" fill="#1B90FF"/>
<path d="M212.886 43.5918C209.642 48.5054 204.157 51.0967 198.594 52.4474C195.722 53.1448 192.786 53.5418 189.84 53.7747C186.896 54.0063 183.852 54.1689 180.947 53.5184C178.043 52.8678 175.564 51.3916 174.476 48.6212C173.349 45.7488 173.827 42.2851 175.301 39.6264C176.671 37.1523 179.109 34.8478 182.045 34.568C184.519 34.3323 186.753 35.5962 188.079 37.6471C191.027 42.2052 189.901 48.0079 187.211 52.3757C184.215 57.2357 179.353 60.6208 174.326 63.1279C168.579 65.9934 162.373 67.7301 156.226 69.5054C149.146 71.548 142.034 73.5769 135.29 76.5885C124.085 81.5945 113.22 90.3964 110.144 102.816C109.781 104.28 109.55 105.774 109.426 107.277C109.339 108.33 110.98 108.324 111.067 107.277C112.171 93.8119 123.48 83.9004 134.99 78.5209C142.001 75.2447 149.489 73.1579 156.901 71.0188C163.331 69.1622 169.802 67.3083 175.777 64.2306C181.033 61.5222 186.042 57.7842 189.009 52.5618C191.704 47.819 192.604 41.6249 189.496 36.8215C188.039 34.568 185.714 33.0353 182.996 32.9085C179.962 32.7665 177.123 34.5073 175.255 36.7953C171.254 41.6952 170.788 50.1015 176.782 53.6741C179.43 55.2523 182.658 55.6079 185.682 55.6106C188.746 55.612 191.836 55.306 194.863 54.8457C200.817 53.9387 206.977 52.0505 211.454 47.8342C212.536 46.8156 213.484 45.6634 214.301 44.4243C214.884 43.5408 213.465 42.7179 212.884 43.5959L212.886 43.5918Z" fill="#FFF8D6"/>
<path d="M171.604 105.239C171.731 113.389 168.676 121.161 163.901 127.675C158.929 134.456 152.212 139.767 144.778 143.615C136.265 148.021 126.967 150.644 117.646 152.706C108.324 154.768 98.9408 156.261 89.6772 158.462C80.51 160.64 71.4077 163.518 63.1626 168.157C62.1468 168.729 61.1462 169.329 60.1607 169.952C59.2703 170.514 60.0931 171.935 60.989 171.369C69.1169 166.232 78.24 163.034 87.5174 160.683C96.8981 158.305 106.461 156.77 115.92 154.759C125.331 152.757 134.712 150.269 143.427 146.114C151.226 142.397 158.328 137.236 163.782 130.492C168.905 124.157 172.52 116.533 173.152 108.339C173.232 107.308 173.258 106.272 173.243 105.239C173.228 104.205 171.585 104.18 171.601 105.239H171.604Z" fill="#FFF8D6"/>
<path d="M74.4275 117.553C82.1268 110.857 88.4312 102.549 92.7604 93.306C94.6308 89.3117 96.413 84.347 94.8141 79.964C93.2332 75.6292 88.2299 73.078 83.8386 74.845C79.8774 76.4397 76.3723 82.2782 79.8691 85.9886C82.9441 89.2511 87.9943 88.9864 91.7667 87.2801C101.139 83.0418 102.497 71.6445 107.336 63.6944C112.104 55.8615 119.647 49.7129 128.293 46.6475C129.375 46.2643 130.474 45.9308 131.585 45.64C132.606 45.3726 132.173 43.7903 131.148 44.0577C122.828 46.2313 115.248 51.0622 109.703 57.6285C106.815 61.0481 104.606 64.8591 102.854 68.9692C101.014 73.2833 99.4645 77.9365 96.4598 81.6194C93.983 84.6558 90.0893 87.0099 86.0756 86.901C84.1846 86.85 82.0262 86.1195 80.816 84.5882C79.4349 82.8392 80.295 80.1749 81.519 78.5829C82.7801 76.9441 84.7249 75.9173 86.8034 75.9283C88.8833 75.9393 90.9659 76.9097 92.2312 78.5774C94.883 82.0728 93.6302 86.9893 92.1333 90.6886C90.3608 95.0689 87.8936 99.2479 85.2018 103.12C82.481 107.033 79.3647 110.669 75.923 113.967C75.0574 114.797 74.1698 115.603 73.2643 116.391C72.4662 117.086 73.6309 118.242 74.4248 117.552L74.4275 117.553Z" fill="#FFF8D6"/>
<path d="M210.65 49.2577L208.526 35.4071L259.92 0.5L210.65 49.2577Z" fill="#046C7C"/>
<path d="M213.594 42.6085L210.65 49.2574L217.062 42.9131L217.823 42.1522L214.775 41.5361L213.594 42.6085Z" fill="#00144A"/>
<path d="M190.376 18.8343L208.526 35.4071L259.92 0.5L190.376 18.8343Z" fill="#0899A7"/>
<path d="M213.594 42.6087C213.594 42.6087 219.237 41.3159 232.35 51.0123L259.92 0.5L213.594 42.6087Z" fill="#0899A7"/>
<path d="M126.683 47.2993L124.936 42.1416L160.615 27.373L126.683 47.2993Z" fill="#046C7C"/>
<path d="M116.015 28.8244L124.936 42.1416L160.615 27.373L116.015 28.8244Z" fill="#0899A7"/>
<path d="M127.421 44.8682L126.683 47.2995L129.385 45.7172L127.421 44.8682Z" fill="#00144A"/>
<path d="M127.421 44.8679C127.421 44.8679 133.233 48.814 135.292 55.6573L160.615 27.373L127.421 44.8679Z" fill="#0899A7"/>
<path d="M162.231 105.53L170.224 119.909L203.48 64.3135L162.231 105.53Z" fill="#046C7C"/>
<path d="M136.445 103.379L163.363 107.275L203.48 64.3135L136.445 103.379Z" fill="#0899A7"/>
<path d="M165.589 108.289L170.224 119.91L174.968 111.947L165.589 108.289Z" fill="#00144A"/>
<path d="M165.589 108.288L181.369 115.061L203.48 64.3135L165.589 108.288Z" fill="#0899A7"/>
</svg>
