<svg width="160" height="160" viewBox="0 0 160 160" fill="none" xmlns="http://www.w3.org/2000/svg">
<circle cx="83.8235" cy="75.2941" r="75.2941" fill="#101619"/>
<path d="M126.814 74.6961L135.579 76.5239C136.269 76.6677 136.873 77.0779 137.259 77.6643C137.644 78.2507 137.779 78.9652 137.634 79.6506L133.959 97.0576C133.814 97.7431 133.402 98.3433 132.812 98.7263C132.221 99.1093 131.502 99.2436 130.813 99.0998L122.047 97.272C121.227 97.1012 120.509 96.6137 120.052 95.917C119.594 95.2202 119.433 94.3712 119.605 93.5568L123.072 77.1379C123.155 76.7329 123.318 76.3483 123.552 76.0062C123.785 75.664 124.084 75.3711 124.432 75.1442C124.78 74.9173 125.169 74.7609 125.578 74.684C125.986 74.6071 126.406 74.6112 126.814 74.6961Z" fill="#0899A7"/>
<path d="M128.751 75.0989L126.374 74.6032L121.607 97.1791L123.985 97.6748L128.751 75.0989Z" fill="#046C7C"/>
<path d="M116.629 66.99L126.01 68.946C126.315 69.0098 126.606 69.1328 126.863 69.308C127.121 69.4831 127.342 69.7071 127.513 69.967C127.684 70.227 127.801 70.5178 127.859 70.823C127.917 71.1281 127.914 71.4415 127.849 71.7454L121.943 99.7183C121.799 100.404 121.386 101.004 120.796 101.387C120.206 101.77 119.487 101.904 118.797 101.76L109.688 99.8612C109.071 99.7324 108.53 99.3652 108.185 98.8402C107.84 98.3152 107.719 97.6755 107.848 97.0619L113.812 68.8184C113.876 68.5145 114 68.2262 114.176 67.9699C114.352 67.7135 114.578 67.4942 114.839 67.3244C115.101 67.1547 115.393 67.0377 115.7 66.9804C116.008 66.923 116.323 66.9263 116.629 66.99V66.99Z" fill="#0899A7"/>
<path d="M115.936 66.8439L110.334 65.6758C108.898 65.3763 107.489 66.2906 107.188 67.718L101.339 95.4172C101.038 96.8445 101.958 98.2444 103.394 98.5439L108.997 99.712C110.433 100.012 111.842 99.0972 112.143 97.6699L117.991 69.9706C118.293 68.5433 117.373 67.1434 115.936 66.8439Z" fill="#046C7C"/>
<path d="M112.374 75.019L110.287 74.5839C109.981 74.5201 109.681 74.7148 109.617 75.0187L108.838 78.7099C108.774 79.0139 108.97 79.312 109.276 79.3757L111.362 79.8108C111.668 79.8746 111.968 79.6799 112.032 79.376L112.812 75.6848C112.876 75.3808 112.68 75.0827 112.374 75.019Z" fill="#688FB7"/>
<path d="M110.043 86.0582L107.956 85.6231C107.65 85.5593 107.35 85.754 107.286 86.058L106.507 89.7492C106.442 90.0531 106.638 90.3512 106.944 90.415L109.031 90.8501C109.337 90.9138 109.637 90.7191 109.701 90.4152L110.48 86.724C110.544 86.4201 110.349 86.122 110.043 86.0582Z" fill="#688FB7"/>
<path d="M115.581 143.476C108.003 143.476 102.347 141.052 99.6525 136.641C97.6141 133.304 97.2327 128.625 98.6114 123.801C99.9432 119.14 102.676 115.043 106.08 112.539C115.337 105.747 130.909 104.772 147.191 121.964C150.589 115.005 151.468 107.239 148.851 101.044C147.913 98.7975 144.215 91.304 136.477 89.2909C136.196 89.218 135.956 89.0371 135.809 88.788C135.662 88.5389 135.621 88.2421 135.694 87.9627C135.767 87.6834 135.949 87.4445 136.2 87.2986C136.451 87.1526 136.749 87.1116 137.03 87.1845C145.74 89.4524 149.826 97.7257 150.871 100.205C153.872 107.35 152.646 116.36 148.438 124.223C148.405 124.305 148.363 124.383 148.313 124.456C145.334 129.921 140.91 134.808 135.461 138.073C129.834 141.447 122.412 143.466 115.622 143.476H115.581ZM120.089 110.131C115.51 110.111 111.048 111.572 107.378 114.294C100.937 119.016 97.9987 129.728 101.525 135.516C103.807 139.244 108.797 141.301 115.593 141.301H115.64C122.049 141.301 129.046 139.39 134.351 136.209C139.288 133.254 143.333 128.896 146.125 124.009C139.247 116.584 131.825 111.942 124.657 110.572C123.152 110.281 121.622 110.133 120.089 110.131Z" fill="#688FB7"/>
<path d="M57.5563 61.2361L76.8536 65.2598C77.7462 65.4459 78.5279 65.9768 79.0266 66.7356C79.5254 67.4945 79.7003 68.4191 79.5131 69.3062C79.3258 70.1932 78.7915 70.97 78.0279 71.4656C77.2643 71.9612 76.3339 72.1351 75.4412 71.949L56.1439 67.9253L57.5563 61.2361Z" fill="#FF7F4C"/>
<path d="M54.5507 76.1531L73.8541 80.1781C74.7467 80.3642 75.5284 80.8951 76.0271 81.6539C76.5259 82.4127 76.7008 83.3374 76.5135 84.2244C76.3263 85.1115 75.792 85.8882 75.0284 86.3839C74.2648 86.8795 73.3344 87.0534 72.4417 86.8672L53.1383 82.8423L54.5507 76.1531Z" fill="#FF7F4C"/>
<path d="M46.5466 47.6034L62.0683 50.8398C62.5175 50.9335 62.9437 51.1142 63.3227 51.3715C63.7016 51.6289 64.0259 51.9579 64.2769 52.3398C64.5278 52.7217 64.7007 53.149 64.7855 53.5972C64.8703 54.0455 64.8655 54.506 64.7712 54.9524L57.0803 91.3779C56.8899 92.2795 56.3469 93.069 55.5708 93.5727C54.7947 94.0764 53.849 94.2532 52.9418 94.064L37.4201 90.8276L46.5466 47.6034Z" fill="#0899A7"/>
<path d="M49.6797 48.2536L42.8567 46.8309C40.9675 46.437 39.1146 47.6396 38.7182 49.517L31.0266 85.9456C30.6302 87.823 31.8404 89.6642 33.7296 90.0581L40.5526 91.4808C42.4418 91.8747 44.2947 90.6721 44.6911 88.7947L52.3827 52.3662C52.7791 50.4888 51.5689 48.6475 49.6797 48.2536Z" fill="#046C7C"/>
<path d="M43.2353 54.6632L32.3826 52.4003C30.4934 52.0064 28.6406 53.209 28.2442 55.0864L23.4941 77.5832C23.0977 79.4606 24.3079 81.3019 26.1971 81.6958L37.0497 83.9587C38.9389 84.3526 40.7918 83.15 41.1882 81.2726L45.9382 58.7757C46.3346 56.8983 45.1245 55.0571 43.2353 54.6632Z" fill="#0899A7"/>
<path d="M29.7923 51.8608L26.8458 51.2464C24.9566 50.8525 23.1038 52.0551 22.7074 53.9325L17.9573 76.4294C17.5609 78.3068 18.7711 80.148 20.6603 80.5419L23.6068 81.1563C25.496 81.5502 27.3488 80.3476 27.7452 78.4702L32.4952 55.9733C32.8916 54.096 31.6815 52.2547 29.7923 51.8608Z" fill="#046C7C"/>
<path d="M82.8862 160C82.6251 159.996 82.3738 159.901 82.1775 159.73C81.9811 159.559 81.8526 159.324 81.8149 159.067C81.7772 158.81 81.8329 158.548 81.972 158.329C82.111 158.109 82.3243 157.946 82.5735 157.869C100.731 152.416 110.745 138.427 108.709 128.78C107.909 124.987 105.136 121.542 100.694 118.814C92.6183 113.843 80.4195 112.11 71.0312 114.564C65.3727 116.043 62.4715 118.618 59.664 121.11C56.8566 123.601 53.8992 126.233 48.4094 127.416C40.1435 129.197 30.2769 126.966 21.3201 121.296C12.2225 115.533 5.45412 107.005 2.74675 97.8652C-0.0293993 88.4952 -0.623393 71.5107 9.6246 65.8223C15.0175 62.8274 21.1919 63.9334 24.3963 64.8623C24.6749 64.9447 24.9092 65.1337 25.0475 65.3877C25.1859 65.6417 25.2171 65.94 25.1341 66.2168C25.0512 66.4937 24.861 66.7264 24.6054 66.8639C24.3498 67.0014 24.0497 67.0324 23.7711 66.95C20.8855 66.1174 15.3582 65.1108 10.6688 67.7205C5.70422 70.4793 3.99414 76.3603 3.43453 80.8061C2.81488 86.3255 3.28964 91.9121 4.83199 97.25C7.3893 105.881 13.8232 113.977 22.4799 119.463C30.949 124.825 40.2248 126.954 47.9279 125.291C52.8612 124.229 55.4529 121.927 58.1978 119.488C61.0584 116.95 64.2972 114.073 70.4654 112.461C80.3882 109.866 93.2873 111.718 101.835 116.962C106.799 120.01 109.913 123.943 110.841 128.336C111.995 133.804 109.85 140.306 104.958 146.184C99.7806 152.398 92.0524 157.291 83.1988 159.953C83.0973 159.983 82.992 159.999 82.8862 160V160Z" fill="#688FB7"/>
<path d="M107.359 16.0823L83.9337 36.0986C83.8897 36.138 83.857 36.1885 83.8391 36.245C83.8212 36.3014 83.8187 36.3616 83.8319 36.4194C83.8451 36.4771 83.8735 36.5302 83.9141 36.5731C83.9548 36.616 84.0061 36.6471 84.0629 36.6632L95.7841 39.828C95.8309 39.8405 95.8743 39.8633 95.9112 39.8947C95.9481 39.9262 95.9776 39.9655 95.9975 40.0098C96.0174 40.0542 96.0272 40.1024 96.0262 40.1511C96.0253 40.1997 96.0136 40.2475 95.9919 40.291L87.7752 56.9336C87.7404 57.0012 87.7301 57.079 87.7461 57.1534C87.7621 57.2279 87.8034 57.2944 87.8629 57.3415C87.9224 57.3887 87.9964 57.4135 88.0722 57.4117C88.1479 57.4099 88.2206 57.3816 88.2779 57.3317L111.945 37.3718C111.99 37.3331 112.024 37.2828 112.042 37.2263C112.061 37.1699 112.064 37.1093 112.051 37.0513C112.038 36.9932 112.009 36.9398 111.969 36.8968C111.928 36.8538 111.876 36.8228 111.819 36.8072L99.9093 33.6707C99.8625 33.6577 99.8191 33.6346 99.7821 33.6029C99.7452 33.5712 99.7156 33.5317 99.6955 33.4873C99.6754 33.4429 99.6653 33.3945 99.6659 33.3457C99.6664 33.2969 99.6776 33.2488 99.6987 33.2048L107.865 16.4775C107.9 16.4096 107.91 16.3316 107.893 16.257C107.877 16.1824 107.835 16.1159 107.775 16.069C107.715 16.0221 107.641 15.9977 107.565 16.0002C107.489 16.0026 107.416 16.0316 107.359 16.0823Z" fill="#FF7F4C"/>
</svg>
