<svg width="128" height="128" viewBox="0 0 128 128" fill="none" xmlns="http://www.w3.org/2000/svg">
<mask id="mask0_4525_144314" style="mask-type:alpha" maskUnits="userSpaceOnUse" x="0" y="0" width="128" height="128">
<circle cx="64" cy="64" r="64" fill="#EBF8FF"/>
</mask>
<g mask="url(#mask0_4525_144314)">
<path d="M204.387 -33.6271H-45.1039C-46.7301 -33.6286 -48.3407 -33.3096 -49.8436 -32.6883C-51.3465 -32.067 -52.7122 -31.1556 -53.8626 -30.0062C-55.0131 -28.8568 -55.9257 -27.492 -56.5484 -25.9897C-57.1711 -24.4874 -57.4916 -22.8771 -57.4916 -21.2508V125.402C-57.4916 128.687 -56.1865 131.838 -53.8633 134.161C-51.5402 136.484 -48.3893 137.79 -45.1039 137.79H204.387C207.673 137.79 210.824 136.484 213.147 134.161C215.47 131.838 216.775 128.687 216.775 125.402V-21.2508C216.775 -22.8771 216.455 -24.4874 215.832 -25.9897C215.209 -27.492 214.297 -28.8568 213.146 -30.0062C211.996 -31.1556 210.63 -32.067 209.127 -32.6883C207.624 -33.3096 206.014 -33.6286 204.387 -33.6271V-33.6271Z" fill="#101619"/>
<rect x="-33.8146" y="101.672" width="72.8929" height="11.1421" rx="3.42833" fill="#2A4259"/>
<rect x="32.8746" y="101.672" width="161.295" height="11.1421" rx="3.42833" fill="#324E6B"/>
<path d="M18.4915 53.0265L31.087 50.8989L34.5988 77.8709C34.6554 78.3016 34.5408 78.7371 34.2792 79.0863C34.0176 79.4355 33.6291 79.6712 33.1953 79.744L26.1537 80.9276C25.7183 81.0039 25.2699 80.91 24.9033 80.666C24.5367 80.4219 24.2807 80.0467 24.1894 79.6197L18.4915 53.0265Z" fill="#FF7F4C"/>
<path d="M14.182 61.5158H51.8937V95.5748C51.8937 97.4191 51.1512 99.1878 49.8295 100.492C48.5078 101.796 46.7153 102.529 44.8462 102.529H21.2295C19.3604 102.529 17.5678 101.796 16.2462 100.492C14.9245 99.1878 14.182 97.4191 14.182 95.5748V61.5158Z" fill="#324E6B"/>
<path d="M33.0363 63.5494C43.4493 63.5494 51.8907 62.6392 51.8907 61.5165C51.8907 60.3937 43.4493 59.4836 33.0363 59.4836C22.6234 59.4836 14.182 60.3937 14.182 61.5165C14.182 62.6392 22.6234 63.5494 33.0363 63.5494Z" fill="#222F3B"/>
<path d="M31.075 50.8988L27.6292 46.0963L20.1648 47.3568L18.4764 53.0235L31.075 50.8988Z" fill="#688FB7"/>
<path d="M26.8583 41.6476L19.3975 42.9073L20.1683 47.3523L27.6292 46.0927L26.8583 41.6476Z" fill="#688FB7"/>
<path d="M25.9889 41.7997L25.1642 37.0445C25.1479 36.946 25.1073 36.8531 25.0462 36.7737C24.985 36.6943 24.905 36.631 24.8132 36.5892C24.7215 36.5475 24.6207 36.5285 24.5198 36.5341C24.4189 36.5397 24.3209 36.5697 24.2345 36.6213L19.7511 39.2638C19.6424 39.3267 19.5556 39.4206 19.5021 39.5331C19.4486 39.6456 19.4308 39.7714 19.4512 39.8941L19.961 42.8176L25.9889 41.7997Z" fill="#FF7F4C"/>
<path d="M20.6268 63.0223C23.8716 63.3419 28.0911 63.5402 32.7215 63.5491L32.1577 59.2199C28.0816 59.248 24.0096 59.483 19.958 59.9242L20.6268 63.0223Z" fill="#FF7F4C"/>
<path d="M81.5903 48.0157L101.991 53.6536L79.6287 54.4312L81.5903 48.0157Z" fill="#FF7F4C"/>
<path d="M89.2406 57.3475L101.991 53.6537L87.4751 54.0425L89.2406 57.3475Z" fill="#C35500"/>
<path d="M70.0872 102.425H40.0462C33.0285 102.425 29.5064 94.0218 34.447 89.0936L55.8358 67.8166L73.5773 50.1703C79.8591 43.9209 90.6283 48.3206 90.6283 57.1517V82.0541C90.629 87.4547 88.4655 92.6344 84.6135 96.4544C80.7615 100.274 75.5365 102.422 70.0872 102.425V102.425Z" fill="#4D82B8"/>
<path opacity="0.5" d="M77.3553 56.1376C78.7225 54.7826 78.7229 52.5863 77.3562 51.2318C75.9896 49.8774 73.7734 49.8778 72.4063 51.2328L18.9397 104.221C17.5725 105.576 17.5721 107.773 18.9387 109.127C20.3054 110.482 22.5215 110.481 23.8887 109.126L77.3553 56.1376Z" fill="#D5DADD"/>
<path d="M70.075 59.6068L77.8218 67.2844C79.9219 69.3658 81.1018 72.1887 81.1018 75.1321C81.1018 78.0756 79.9219 80.8984 77.8218 82.9798L70.7555 89.9829C66.6005 94.1018 60.9648 96.4165 55.088 96.4179C49.2111 96.4193 43.5744 94.1073 39.4173 89.9904V89.9904L70.075 59.6068Z" fill="#2A4259"/>
<path d="M34.4603 89.0935L55.8493 67.8165L73.5907 50.1703C76.9583 46.8196 73.7934 54.2872 77.3902 56.1025C78.0319 55.4496 78.3882 54.5725 78.3822 53.661C78.3762 52.7496 78.0084 51.8771 77.3582 51.2325C76.7017 50.5825 75.8118 50.2175 74.8839 50.2175C73.956 50.2175 73.066 50.5825 72.4095 51.2325L18.9399 104.224C18.284 104.875 17.9156 105.757 17.9156 106.676C17.9156 107.596 18.284 108.478 18.9399 109.129V109.129C19.2649 109.451 19.651 109.706 20.0758 109.881C20.5005 110.055 20.9558 110.145 21.4155 110.145C21.8753 110.145 22.3305 110.055 22.7553 109.881C23.1801 109.706 23.5661 109.451 23.8912 109.129L33.7565 99.3515C31.5755 96.4448 31.4207 92.1165 34.4603 89.0935Z" fill="#2A4259"/>
<path d="M73.5909 50.1702L55.8494 67.8164L34.4604 89.0934C31.4208 92.1164 31.5755 96.4447 33.7645 99.3409L85.1839 48.3839C85.1938 48.3718 85.2045 48.3603 85.2159 48.3495C81.6244 46.5342 76.9584 46.8195 73.5909 50.1702Z" fill="#2A4259"/>
<path d="M82.9681 55.6861C83.2034 56.0807 84.1868 55.9281 85.1645 55.3452C86.1422 54.7623 86.7441 53.9698 86.5089 53.5752C86.2736 53.1806 85.2903 53.3332 84.3125 53.9161C83.3348 54.499 82.7329 55.2915 82.9681 55.6861Z" fill="#2A4259"/>
<path d="M107.002 55.5516C106.586 56.1016 106.957 56.8928 107.646 56.9248L117.695 57.3909C122.324 57.6055 125.522 52.823 123.555 48.6278C121.588 44.4326 115.866 43.8322 113.071 47.5276L107.002 55.5516Z" fill="#2A4259"/>
</g>
</svg>
