<svg width="128" height="67" viewBox="0 0 128 67" fill="none" xmlns="http://www.w3.org/2000/svg">
<rect y="12" width="128" height="55" rx="8" fill="#222F3B"/>
<path d="M83.4337 56.3655L78.903 58.3053L57.5306 41.9049C58.7071 41.6318 59.8205 41.2747 60.8569 40.8335L83.4337 56.3655Z" fill="#101619"/>
<path d="M50.9195 16.2961C61.0174 16.9404 69.1125 23.3198 69.0075 30.5396C68.9375 35.0284 65.7162 38.7888 60.8633 40.8336L59.4138 39.8322L55.6813 40.4695L57.544 41.898C55.3802 42.3952 53.0133 42.5983 50.5343 42.4373C40.4364 41.793 32.3413 35.4135 32.4463 28.1937C32.5514 20.9739 40.8285 15.6449 50.9265 16.2891L50.9195 16.2961Z" fill="#101619"/>
<path d="M59.4071 39.832L60.8566 40.8334C59.8202 41.2746 58.7068 41.6317 57.5303 41.9048L55.6676 40.4763L59.4001 39.839L59.4071 39.832Z" fill="#101619"/>
<path fill-rule="evenodd" clip-rule="evenodd" d="M102.571 39.2029C102.571 39.2029 102.277 39.9451 102.109 40.1692C101.941 40.3933 101.611 40.8485 100.687 40.8485C99.7628 40.8485 88.6845 40.6594 88.0892 40.6594C87.494 40.6594 86.0794 40.2182 85.3652 39.1048C84.6509 37.9844 84.5669 36.941 85.5262 35.9956L97.5639 37.2701L102.571 39.2029Z" fill="#2A4259"/>
<path fill-rule="evenodd" clip-rule="evenodd" d="M95.239 31.0733L83.2013 29.7988C82.2419 30.7442 82.333 31.7876 83.0402 32.908C83.7475 34.0285 85.162 34.4626 85.7643 34.4626C86.3665 34.4626 97.4448 34.6517 98.3621 34.6517C99.2795 34.6517 99.6156 34.2035 99.7837 33.9724C99.9518 33.7414 100.246 33.0061 100.246 33.0061L95.239 31.0733Z" fill="#2A4259"/>
<path fill-rule="evenodd" clip-rule="evenodd" d="M92.8864 24.4835L80.8488 23.209C79.8894 24.1544 79.9804 25.1978 80.6877 26.3182C81.4019 27.4386 82.8095 27.8728 83.4117 27.8728C84.014 27.8728 95.0923 28.0619 96.0096 28.0619C96.927 28.0619 97.2631 27.6137 97.4312 27.3826C97.5993 27.1515 97.8934 26.4162 97.8934 26.4162L92.8864 24.4835Z" fill="#2A4259"/>
<path d="M102.48 37.9848C102.935 39.2103 102.319 40.1907 101.093 40.1767L88.3622 39.9876C87.1437 39.9736 85.7851 38.9582 85.33 37.7327C84.8748 36.5072 85.4911 35.5198 86.7165 35.5409L99.4475 35.7299C100.666 35.7439 102.024 36.7593 102.48 37.9848Z" fill="#3B5B7C"/>
<path d="M100.176 31.7668C100.631 32.9923 100.008 33.9727 98.7894 33.9587L86.0655 33.7696C84.84 33.7486 83.4885 32.7402 83.0263 31.5148C82.5711 30.2893 83.1944 29.3089 84.4128 29.3229L97.1368 29.519C98.3552 29.533 99.7138 30.5484 100.176 31.7739V31.7668Z" fill="#4D82B8"/>
<path d="M97.774 25.3098C98.2292 26.5353 97.6059 27.5157 96.3875 27.5017L83.6635 27.3126C82.445 27.2916 81.0865 26.2832 80.6243 25.0577C80.1692 23.8322 80.7924 22.8519 82.0109 22.8659L94.7348 23.0549C95.9533 23.076 97.3118 24.0843 97.774 25.3098Z" fill="#3B5B7C"/>
<path fill-rule="evenodd" clip-rule="evenodd" d="M47.3351 20.0646C47.3351 20.0646 33.1757 19.8125 32.3143 19.7985C31.453 19.7845 30.3746 19.5534 29.9194 18.412C29.4642 17.2705 24.3523 3.49618 24.1702 2.97798C23.9881 2.45978 23.9111 2.11665 24.1492 1.62646C24.3102 1.29733 24.3522 1.09425 24.5133 0.961197C24.8354 0.681088 25.3326 0.793133 25.4657 0.828146C34.4852 1.14327 43.4977 1.45839 52.5172 1.76651L55.9345 11.3532L47.3282 20.0646H47.3351Z" fill="#2A4259"/>
<path d="M59.8216 17.9287C60.1158 18.727 59.7166 19.3572 58.9253 19.3502L32.2799 18.9511C31.4886 18.9441 30.6063 18.2858 30.3122 17.4875L24.5139 1.92747C24.2128 1.12916 24.619 0.498914 25.4103 0.505917L52.0556 0.905072C52.847 0.919077 53.7293 1.57033 54.0234 2.36864L59.8216 17.9287Z" fill="#4D82B8"/>
<path fill-rule="evenodd" clip-rule="evenodd" d="M79.9674 37.642C79.9184 37.789 79.8414 38.0131 79.7153 38.2652C79.6033 38.4893 79.5472 38.6014 79.4422 38.6924C79.1691 38.9445 78.7489 38.8885 78.6369 38.8885C77.9366 38.8815 53.287 38.4683 52.7338 38.4613C52.1806 38.4543 51.8095 38.2722 51.5154 37.621C51.2212 36.9697 41.3964 10.8286 41.2634 10.4924C41.1303 10.1633 41.0883 9.86921 41.3194 9.51207C41.5505 9.15493 41.6975 8.90283 41.6975 8.90283L64.6595 19.617C69.7645 25.6253 74.8694 31.6337 79.9674 37.642Z" fill="#00144A"/>
<path fill-rule="evenodd" clip-rule="evenodd" d="M42.2508 8.60899L68.525 9.00114C68.9801 9.00114 69.4843 9.37929 69.6524 9.83446L79.9534 37.1661C80.1215 37.6213 79.8974 37.9854 79.4422 37.9784L53.168 37.5862C52.7128 37.5862 52.2086 37.2081 52.0406 36.7529L41.7396 9.4213C41.5715 8.96613 41.7956 8.60198 42.2508 8.60899Z" fill="#4D82B8"/>
<mask id="mask0_4038_83156" style="mask-type:luminance" maskUnits="userSpaceOnUse" x="41" y="8" width="40" height="30">
<path d="M42.2516 8.60899L68.5258 9.00114C68.981 9.00114 69.4852 9.37929 69.6532 9.83446L79.9543 37.1661C80.1223 37.6213 79.8982 37.9854 79.4431 37.9784L53.1689 37.5862C52.7137 37.5862 52.2095 37.2081 52.0414 36.7529L41.7404 9.4213C41.5723 8.96613 41.7965 8.60198 42.2516 8.60899Z" fill="white"/>
</mask>
<g mask="url(#mask0_4038_83156)">
<path fill-rule="evenodd" clip-rule="evenodd" d="M42.2513 8.60899L68.5254 9.00114C68.9806 9.00114 69.4848 9.37929 69.6529 9.83446L79.9539 37.1661C80.122 37.6213 79.8979 37.9854 79.4427 37.9784L53.1685 37.5862C52.7133 37.5862 52.2091 37.2081 52.0411 36.7529L41.74 9.4213C41.572 8.96613 41.7961 8.60198 42.2513 8.60899Z" fill="#D5DADD"/>
<path fill-rule="evenodd" clip-rule="evenodd" d="M51.1234 13.3501C61.2213 13.9944 69.3165 20.3739 69.2114 27.5937C69.1064 34.8135 60.8292 40.1425 50.7313 39.4983C40.6333 38.854 32.5382 32.4746 32.6432 25.2548C32.7483 18.035 41.0255 12.7059 51.1234 13.3501Z" fill="#101619"/>
</g>
<path fill-rule="evenodd" clip-rule="evenodd" d="M49.4852 10.3165C49.4852 10.3165 46.5861 18.2715 51.4039 25.3023C56.2218 32.333 63.2455 35.2181 70.9275 34.4058C78.6165 33.6005 84.856 27.0319 83.8756 17.9424C82.8952 8.85288 77.8882 5.90474 75.0171 3.81793C72.146 1.73112 64.7721 0.0574659 59.7302 1.19891C54.6882 2.34035 49.4852 10.3165 49.4852 10.3165Z" fill="#8D2A00"/>
<path fill-rule="evenodd" clip-rule="evenodd" d="M64.1557 3.32199C72.8391 3.45504 80.7452 9.68746 81.8166 17.2434C82.888 24.7993 76.7116 30.8287 68.0282 30.6956C59.3449 30.5626 51.4388 24.3301 50.3674 16.7742C49.2959 9.21128 55.4723 3.18894 64.1557 3.32199Z" fill="#4D82B8"/>
<mask id="mask1_4038_83156" style="mask-type:luminance" maskUnits="userSpaceOnUse" x="50" y="3" width="32" height="28">
<path d="M64.1566 3.32296C72.8399 3.45602 80.746 9.68844 81.8175 17.2444C82.8889 24.8003 76.7125 30.8296 68.0291 30.6966C59.3457 30.5635 51.4396 24.3311 50.3682 16.7752C49.2968 9.21225 55.4732 3.18991 64.1566 3.32296Z" fill="white"/>
</mask>
<g mask="url(#mask1_4038_83156)">
<path fill-rule="evenodd" clip-rule="evenodd" d="M64.1564 3.32199C72.8398 3.45504 80.7459 9.68746 81.8173 17.2434C82.8887 24.7993 76.7123 30.8287 68.029 30.6956C59.3456 30.5626 51.4395 24.3301 50.3681 16.7742C49.2967 9.21128 55.4731 3.18894 64.1564 3.32199Z" fill="#D0C1CB"/>
<path fill-rule="evenodd" clip-rule="evenodd" d="M79.2894 -8.4917C79.9546 -8.19058 80.1437 -7.32925 80.5359 -6.75503C81.6703 -5.1444 82.8048 -3.52677 83.9462 -1.91615C83.0218 -1.2719 82.0975 -0.634648 81.1731 0.00960159L80.4589 -1.72007C70.7251 4.96753 60.9913 11.6621 51.2575 18.3497C50.5432 19.5682 49.829 20.7867 49.1147 22.0051C47.5041 23.1116 45.8864 24.225 44.2758 25.3314C44.1917 25.2754 44.1147 25.2194 44.0307 25.1634C44.0097 25.2824 44.0587 25.3665 43.9467 25.2824C43.1484 24.099 42.3431 22.9085 41.5447 21.725C41.3277 21.4099 40.7254 20.8497 40.8234 20.5276L43.9677 18.4058C44.1567 17.3974 44.3528 16.389 44.5419 15.3876L49.6329 11.8582C59.5207 5.07257 69.4015 -1.70606 79.2894 -8.4917ZM99.3312 6.41709C100.494 8.08374 101.656 9.75039 102.819 11.424C103.12 11.8162 104.037 12.5935 103.813 13.1607C93.848 19.9674 83.8762 26.781 73.9113 33.5876C71.5234 35.2403 69.1425 36.8999 66.7545 38.5526C66.2784 38.9097 64.7237 40.3803 64.1075 40.1492L60.8652 35.2683C60.4871 34.7221 60.0179 34.3369 59.7448 33.6577C72.9379 24.5751 86.131 15.4996 99.3312 6.41709Z" fill="#D5DADD"/>
</g>
<path d="M68.8622 31.7733C68.7712 31.7733 68.6732 31.7733 68.5821 31.7733C59.0934 31.6332 50.3821 24.4555 49.1566 15.7721C48.5894 11.7385 49.6958 7.90103 52.2868 4.96689C55.1369 1.73864 59.5556 -0.0680645 64.3945 0.00196268C73.8832 0.142017 82.5946 7.31981 83.82 16.0032C84.3873 20.0367 83.2808 23.8742 80.6898 26.8084C77.8957 29.9736 73.5961 31.7733 68.8622 31.7733ZM64.1144 1.83667C59.9058 1.83667 56.1103 3.41229 53.6663 6.17836C51.4395 8.69934 50.4871 12.0116 50.9773 15.506C52.0767 23.328 59.9898 29.7985 68.6101 29.9246C68.6942 29.9246 68.7782 29.9246 68.8622 29.9246C73.0709 29.9246 76.8663 28.349 79.3103 25.5829C81.5372 23.0619 82.4895 19.7496 81.9993 16.2553C80.8999 8.43323 72.9868 1.96272 64.3665 1.83667C64.2824 1.83667 64.1984 1.83667 64.1144 1.83667Z" fill="#C35500"/>
<path fill-rule="evenodd" clip-rule="evenodd" d="M78.3438 57.4314C78.3438 57.4314 70.1646 35.0647 69.9265 34.4274C69.6884 33.7902 69.8075 32.1445 71.3971 31.7454C72.9867 31.3462 73.932 33.0129 74.2752 33.7972C74.6183 34.5815 83.4768 56.2829 83.4768 56.2829L81.3759 57.0322L78.3438 57.4384V57.4314Z" fill="#C35500"/>
<path fill-rule="evenodd" clip-rule="evenodd" d="M80.2057 54.3283L71.2983 31.6885C71.2983 31.6885 69.2185 32.4868 69.9258 34.4265C70.633 36.3663 78.315 57.4235 78.294 57.3604C78.273 57.2974 79.0153 55.8759 80.5279 55.3017L80.2057 54.3213V54.3283Z" fill="#8D2A00"/>
<path fill-rule="evenodd" clip-rule="evenodd" d="M80.2057 54.3283L71.2983 31.6885C71.2983 31.6885 69.2185 32.4868 69.9258 34.4265C70.633 36.3663 78.315 57.4235 78.294 57.3604C78.273 57.2974 79.0153 55.8759 80.5279 55.3017L80.2057 54.3213V54.3283Z" fill="#8D2A00"/>
<path fill-rule="evenodd" clip-rule="evenodd" d="M83.4347 56.0732L82.1182 52.964C82.1182 52.964 81.0537 51.7316 79.275 52.2498C77.4964 52.768 77.2302 54.4696 77.2302 54.4696L78.2876 57.3688L83.4277 56.0732H83.4347Z" fill="#C35500"/>
<mask id="mask2_4038_83156" style="mask-type:luminance" maskUnits="userSpaceOnUse" x="77" y="52" width="7" height="6">
<path d="M83.4343 56.0742L82.1178 52.965C82.1178 52.965 81.0534 51.7325 79.2747 52.2507C77.496 52.7689 77.2299 54.4706 77.2299 54.4706L78.2873 57.3697L83.4273 56.0742H83.4343Z" fill="white"/>
</mask>
<g mask="url(#mask2_4038_83156)">
<path fill-rule="evenodd" clip-rule="evenodd" d="M79.2466 51.8794L80.339 54.7435L78.9875 58.1678L78.5183 59.0292L77.0757 57.1594L75.9623 53.1539L79.2466 51.8794Z" fill="#8D2A00"/>
</g>
<path fill-rule="evenodd" clip-rule="evenodd" d="M80.8856 54.3289C82.3632 54.3499 83.5466 55.4144 83.5326 56.7029C83.5116 57.9914 82.3002 59.0208 80.8156 58.9997C79.338 58.9787 78.1546 57.9143 78.1686 56.6258C78.1896 55.3373 79.4011 54.3079 80.8856 54.3289Z" fill="#8D2A00"/>
<path d="M61.5153 13.5245L63.1749 14.2668C63.1749 14.2668 63.4901 13.0694 64.5195 12.3341C65.3248 11.7599 66.7463 11.5498 67.9648 12.5232C70.3877 14.4629 68.8051 15.9755 68.1189 17.6491C67.7827 18.4755 67.7757 19.4628 68.3499 20.3382L69.9466 20.0091C69.9466 20.0091 69.5614 19.736 69.6734 18.6295C69.7365 18.0413 70.4017 17.32 70.8289 16.1015C71.7113 13.5736 69.2463 10.6254 66.3051 10.3523C64.5124 10.1842 62.6427 10.8355 61.5153 13.5245Z" fill="#00144A"/>
<path d="M71.2766 23.4722C71.7052 23.0642 71.6397 22.2998 71.1304 21.7647C70.6211 21.2297 69.8607 21.1267 69.4322 21.5347C69.0036 21.9427 69.069 22.7072 69.5783 23.2422C70.0877 23.7772 70.848 23.8802 71.2766 23.4722Z" fill="#00144A"/>
</svg>
