<svg width="320" height="240" viewBox="0 0 320 240" fill="none" xmlns="http://www.w3.org/2000/svg">
<rect y="51" width="320" height="138" rx="24" fill="#222F3B"/>
<path d="M179.701 51.0517C179.521 51.8216 179.411 52.6014 179.381 53.3712C179.231 52.5714 179.091 51.8016 178.941 51.0517H97.8372C98.0471 52.0715 98.737 55.4908 98.9269 56.3606C99.1369 57.3804 100.107 58.2003 101.686 58.8201C101.766 59.35 101.856 59.9199 101.956 60.5698C102.266 62.4594 102.696 64.8389 103.286 67.5784C103.306 67.6683 103.326 67.7583 103.346 67.8483C102.756 66.8985 102.026 66.0087 101.097 65.2588C99.2669 63.7891 96.8474 61.9995 92.2783 61.8595C86.8294 61.6896 83.0302 65.4288 82.3003 69.7079C81.0306 75.7167 83.86 83.3052 93.638 89.9438C105.266 96.9524 113.734 102.051 115.444 106.061C116.463 108.43 116.333 109.89 115.884 110.47C115.434 111.05 114.404 110.98 113.824 110.88C112.764 110.7 111.774 111.419 111.594 112.469C111.414 113.509 112.134 114.519 113.184 114.699C113.984 114.829 114.744 114.859 115.444 114.759C116.883 114.569 118.083 113.909 118.913 112.849C119.633 111.929 120.003 110.78 120.053 109.46C120.123 109.55 120.193 109.64 120.263 109.73C120.353 109.84 120.443 109.96 120.533 110.08C120.653 110.23 120.773 110.39 120.902 110.54C121.002 110.66 121.102 110.78 121.202 110.9C121.332 111.05 121.462 111.2 121.592 111.36C121.702 111.479 121.812 111.609 121.922 111.729C122.052 111.879 122.192 112.029 122.332 112.179C122.452 112.309 122.562 112.429 122.682 112.559C122.822 112.709 122.962 112.849 123.102 112.999C123.222 113.129 123.352 113.249 123.482 113.379C123.632 113.529 123.772 113.669 123.922 113.819C124.052 113.949 124.182 114.079 124.322 114.199C124.472 114.339 124.622 114.479 124.782 114.629C124.922 114.759 125.062 114.889 125.202 115.009C125.362 115.149 125.512 115.289 125.672 115.429C125.821 115.559 125.961 115.679 126.111 115.809C126.271 115.949 126.441 116.079 126.601 116.219C126.751 116.338 126.901 116.468 127.061 116.588C127.231 116.728 127.401 116.858 127.571 116.988C127.731 117.108 127.881 117.238 128.041 117.358C128.221 117.488 128.401 117.618 128.581 117.758C128.741 117.878 128.901 117.998 129.061 118.108C129.251 118.248 129.451 118.378 129.651 118.518C129.801 118.628 129.961 118.728 130.111 118.838C130.461 119.068 130.81 119.298 131.16 119.518C131.33 119.628 131.51 119.728 131.69 119.838C131.88 119.958 132.08 120.078 132.27 120.188C132.46 120.298 132.65 120.408 132.84 120.508C133.03 120.618 133.22 120.728 133.41 120.828C133.61 120.938 133.81 121.038 134 121.138C134.19 121.238 134.38 121.337 134.57 121.437C134.77 121.537 134.98 121.637 135.18 121.737C135.37 121.827 135.57 121.927 135.759 122.017C135.969 122.117 136.179 122.207 136.389 122.297C136.579 122.387 136.779 122.467 136.979 122.547C137.189 122.637 137.409 122.727 137.629 122.807C137.829 122.887 138.029 122.957 138.219 123.037C138.379 123.097 138.529 123.157 138.689 123.207C139.219 125.537 140.559 128.246 143.158 129.266C139.749 132.685 136.939 132.375 134.43 134.315C131.92 136.254 128.981 143.973 127.341 147.852C125.702 151.731 125.022 162.949 120.783 167.758C118.283 170.598 107.065 180.975 98.2671 189.024H142.908C143.118 188.894 143.328 188.784 143.518 188.684C145.178 187.854 147.557 187.634 149.877 187.494C149.417 187.864 148.827 188.384 148.197 189.014H193.888L193.868 188.904C192.778 183.005 184.48 179.386 174.052 179.636C173.802 178.836 173.552 177.936 173.302 176.926C175.481 175.247 175.261 171.177 176.221 167.968C177.201 164.669 179.521 164.209 179.941 160.939C180.17 159.15 178.671 156.3 178.671 156.3C180.2 155.161 181.96 153.221 181.55 149.112C181.34 146.972 179.291 144.243 179.291 144.243C182.23 143.253 183.26 141.113 182.86 137.154C182.75 136.025 181.9 135.075 181.03 134.375H181.05C181.05 134.375 180.38 133.785 179.911 133.535C179.531 133.335 178.991 133.095 178.991 133.095H178.981C178.981 133.095 179.981 131.855 179.401 129.286C178.811 126.716 176.941 124.437 175.561 123.757C174.182 123.077 171.912 123.037 169.103 124.897C168.583 125.237 168.083 125.557 167.573 125.877C167.863 125.297 168.273 124.727 168.843 124.177C171.142 121.987 170.272 117.358 169.943 115.969C175.671 110.28 179.151 103.101 180.48 98.0022C180.89 98.5121 181.38 98.932 181.93 99.252C183.1 99.9218 184.45 100.082 185.859 99.7119C186.539 99.5519 187.229 99.252 187.929 98.822C188.829 98.2622 189.129 97.0624 188.569 96.1626C188.009 95.2628 186.829 94.9628 185.909 95.5227C185.409 95.8326 184.48 96.2826 183.85 95.9126C183.22 95.5427 182.55 94.243 182.61 91.6635C182.68 88.6041 185.629 83.7951 190.208 77.4464C189.539 75.2168 189.089 72.9073 188.799 70.5478C186.519 73.8171 184.31 77.2864 182.54 80.5957C182.45 77.0564 182.1 73.5072 181.7 69.438C181.56 68.0283 181.4 66.6186 181.22 65.2088C182.79 65.0489 184.49 64.609 185.599 63.5792C186.479 62.7593 186.919 61.6896 186.869 60.4798C186.839 59.41 186.469 58.2503 186.069 56.9105C185.459 54.9309 184.78 52.7214 185.239 51.0117H179.681L179.701 51.0517ZM96.4174 85.4048C90.2487 81.6855 87.2893 75.3168 88.0891 71.5376C88.529 67.8283 93.1881 65.3788 97.2373 68.7381C100.837 71.6318 100.959 74.5922 104.596 82.3757C107.714 89.0497 109.893 92.1706 113.144 97.2823C108.465 93.0332 101.996 88.7541 96.4274 85.3948L96.4174 85.4048Z" fill="#101619"/>
<path d="M164.344 185.695L167.443 196.303C167.613 197.013 167.933 197.673 168.393 198.242C170.493 200.842 176.871 206.711 192.168 204.181C208.615 201.452 213.604 192.893 215.263 189.134C215.653 188.244 215.733 187.255 215.483 186.315L213.344 174.617L164.344 185.695Z" fill="#FF7F4C"/>
<path d="M168.413 184.777L164.344 185.697L167.443 196.305C167.613 197.015 167.933 197.675 168.393 198.245C169.673 199.824 172.532 202.614 178.021 203.993L176.601 193.876L168.413 184.777Z" fill="#450B00"/>
<path d="M191.781 193.128C205.31 190.069 214.965 181.783 213.346 174.619C211.726 167.456 199.446 164.129 185.917 167.188C172.387 170.247 162.733 178.533 164.352 185.697C165.972 192.86 178.252 196.187 191.781 193.128Z" fill="#D0B863"/>
<path d="M165.823 178.986C164.414 181.205 163.854 183.505 164.354 185.694C165.314 189.963 170.073 192.863 176.611 193.873L198.157 176.746L165.823 178.986Z" fill="#8D2A00"/>
<path d="M168.073 117.811C166.843 113.822 167.823 112.452 167.823 112.452L155.546 110.992C156.146 113.342 157.605 116.081 160.295 117.021C163.624 118.191 166.343 123.22 166.343 123.22C166.343 123.22 166.453 123.58 166.643 124.22L175.502 121.85C175.502 121.85 169.303 121.8 168.073 117.811Z" fill="#8D2A00"/>
<path d="M164.864 187.303C164.864 187.303 167.723 186.664 171.222 187.283C174.722 187.903 180.63 184.944 183.49 182.244C186.349 179.545 186.179 169.457 186.179 169.457L170.173 174.226C170.173 174.226 163.434 179.275 164.194 184.854C164.424 186.534 164.854 187.303 164.854 187.303H164.864Z" fill="#450B00"/>
<path d="M200.276 173.619C199.957 172.219 198.837 171.11 197.177 170.36C196.157 169.74 195.048 169.44 195.048 169.44C190.368 166.38 184.77 118.42 184.77 118.42C184.77 118.42 182.58 114.241 185.789 110.932C188.409 108.232 186.439 102.273 186.439 102.273C171.452 113.601 155.416 110.402 155.416 110.402C155.456 110.592 155.496 110.792 155.555 110.982L167.833 112.441C167.833 112.441 166.843 113.811 168.083 117.8C169.313 121.789 175.511 121.839 175.511 121.839L166.653 124.209C168.423 130.058 178.641 168.92 178.631 173.289C176.271 175.089 175.012 177.248 175.461 179.228C176.281 182.857 182.5 184.537 189.359 182.987C196.217 181.437 201.106 177.238 200.286 173.609L200.276 173.619Z" fill="#D0B863"/>
<path d="M200.426 173.528C200.106 172.128 198.987 171.019 197.327 170.269C195.747 169.679 195.197 169.349 195.197 169.349C194.238 168.789 193.918 168.079 193.358 166.77C192.358 167.779 192.518 169.109 194.748 170.889C201.716 176.458 189.339 182.986 189.339 182.986C196.197 181.437 201.236 177.147 200.416 173.518L200.426 173.528Z" fill="#D0CDB3"/>
<path d="M115.534 45.2227C115.534 45.2227 119.503 73.517 134.88 96.0924C140.479 104.311 155.296 115.449 170.912 111.959C186.529 108.47 194.628 92.8231 196.447 83.9949C198.807 72.5472 197.827 65.6986 196.447 55.7406C194.468 41.4235 190.049 26.2266 190.049 26.2266L115.534 45.2227Z" fill="#D0B863"/>
<path d="M201.816 85.816C200.426 86.2459 199.067 86.136 197.877 85.5161C195.697 84.3763 194.468 81.6969 194.398 77.9676C194.278 71.279 201.246 59.7513 207.115 51.273C211.214 45.3442 211.294 38.3356 209.015 35.2063C207.095 31.9969 201.836 31.687 199.527 36.406C198.607 38.2057 199.517 40.7951 200.316 43.0647C200.776 44.3844 201.186 45.5342 201.256 46.604C201.346 47.8137 200.956 48.8935 200.106 49.7433C197.877 51.9829 192.988 51.7429 192.028 51.6729C190.968 51.593 190.168 50.6731 190.248 49.6034C190.328 48.5436 191.248 47.7437 192.318 47.8237C194.678 48.0037 193.798 48.3636 194.068 47.8437C194.068 47.8437 192.898 45.9741 192.908 45.9241C192.868 45.3642 194.658 45.5042 194.318 44.5244C193.368 41.8149 192.928 38.0757 194.588 34.8163C195.647 32.7268 197.117 30.0973 201.226 28.0977C206.125 25.7082 211.124 27.5578 213.544 31.1571C217.163 36.1061 217.703 44.1945 211.514 54.2624C203.786 65.4302 198.167 73.5585 198.247 77.9176C198.287 80.4971 199.007 81.7768 199.657 82.1168C200.306 82.4567 201.216 81.9668 201.706 81.6469C202.596 81.047 203.796 81.2969 204.386 82.1768C204.975 83.0566 204.736 84.2663 203.856 84.8562C203.176 85.3061 202.496 85.6361 201.826 85.836L201.816 85.816Z" fill="#D0B863"/>
<path d="M132.01 103.602C131.32 103.732 130.561 103.732 129.751 103.632C128.701 103.492 127.941 102.522 128.081 101.472C128.221 100.423 129.181 99.6629 130.241 99.8028C130.821 99.8728 131.86 99.9128 132.28 99.3129C132.7 98.7131 132.78 97.2533 131.66 94.9238C129.791 90.9946 121.132 86.2256 109.235 79.6869C99.1969 73.4382 96.0776 65.9597 97.1074 59.9109C97.6772 55.6118 101.327 51.7226 106.765 51.6726C111.334 51.6326 113.824 53.3222 115.704 54.722C118.643 56.9015 119.913 60.4508 120.273 63.2902C120.403 64.32 121.932 63.3902 122.152 63.9101C122.172 63.9501 121.972 66.1496 121.972 66.1496C122.452 66.4896 121.502 66.5696 123.532 65.3498C124.442 64.7999 125.622 65.0999 126.171 66.0197C126.721 66.9295 126.421 68.1092 125.502 68.6591C124.672 69.149 120.403 71.5485 117.413 70.5388C116.273 70.1488 115.444 69.359 114.984 68.2392C114.574 67.2494 114.434 66.0397 114.254 64.6499C113.954 62.2604 113.614 59.551 111.984 58.3412C107.805 55.1519 103.236 57.7713 102.956 61.5006C102.316 65.3098 105.516 71.5485 111.834 75.0278C120.873 79.9968 132.25 87.1954 135.13 93.2342C136.739 96.6035 136.829 99.5529 135.39 101.542C134.6 102.632 133.43 103.332 132 103.572L132.01 103.602Z" fill="#8D2A00"/>
<path d="M182.59 31.7773C182.59 31.7773 190.478 57.1522 190.119 73.8188C189.959 81.1673 188.789 85.7764 185.14 90.6354C184.48 91.5153 183.21 92.685 182.34 93.4549C182.17 93.6048 181.92 93.4149 182.01 93.2149C182.97 91.1153 184.64 85.4665 183.05 73.149C181.29 59.6017 173.252 35.9065 173.252 35.9065L182.6 31.7873L182.59 31.7773Z" fill="#D0CDB3"/>
<path d="M144.788 51.5423C162.694 45.0436 173.672 38.9648 173.672 38.9648L129.111 41.7543L115.534 45.2136C115.534 45.2136 119.503 73.5079 134.88 96.0833C140.109 103.772 153.416 114 167.893 112.45C146.427 102.012 138.279 80.2065 135.2 65.9094C133.68 58.8608 135.06 55.0716 144.788 51.5423Z" fill="#C35500"/>
<path d="M190.848 20.4187C190.028 17.1594 171.672 18.979 149.857 24.4879C128.041 29.9968 111.014 37.0954 111.834 40.3547L112.424 42.7742L118.793 44.8938L149.297 27.3373C149.697 27.2373 150.087 27.1274 150.486 27.0274C156.275 25.5677 162.604 24.3479 168.493 23.3781L186.339 26.9774L190.918 23.2682L191.228 21.9184L190.838 20.4087L190.848 20.4187Z" fill="#D0B863"/>
<path d="M192.268 25.9668C192.028 25.037 190.848 20.418 190.848 20.418C191.668 23.6773 183.43 31.4457 153.486 38.8342C123.542 46.2227 112.654 43.6233 111.834 40.3639C111.834 40.3639 112.944 44.913 113.204 45.9228C114.444 50.8418 133.15 50.3619 154.986 44.853C176.821 39.3441 193.508 30.8858 192.268 25.9668Z" fill="#D0CDB3"/>
<path d="M188.259 23.7784C187.519 20.829 173.602 21.7388 156.115 25.688L156.095 25.728C156.095 25.728 131.89 33.6964 134.98 42.6446C140.479 41.8048 146.807 40.515 153.476 38.8354C173.502 33.7764 189.069 27.0377 188.249 23.7884L188.259 23.7784Z" fill="#450B00"/>
<path d="M156.095 25.7275L156.115 25.6875C154.286 26.0974 152.406 26.5473 150.507 27.0272C130.481 32.0862 114.914 38.8248 115.734 42.0742C116.283 44.2437 123.982 44.3237 134.99 42.6341C131.9 33.6859 156.105 25.7175 156.105 25.7175L156.095 25.7275Z" fill="#8D2A00"/>
<path d="M159.435 179.958C159.435 179.958 159.505 179.868 159.535 179.828C159.505 179.868 159.465 179.918 159.435 179.958Z" fill="#8D2A00"/>
<path d="M107.135 189.023C107.135 189.023 135.41 161.339 139.459 156.36C143.508 151.381 143.748 140.143 145.228 136.204C146.707 132.265 149.347 124.436 151.776 122.397C154.206 120.357 157.015 120.567 160.294 117.008C160.294 117.008 161.634 117.288 163.504 119.177C165.084 120.767 166.153 122.776 166.153 122.776C166.153 122.776 174.882 119.697 186.079 111.639C188.819 109.669 191.078 109.619 192.488 110.249C193.898 110.879 195.857 113.078 196.537 115.618C197.217 118.157 196.267 119.437 196.267 119.437C196.267 119.437 199.966 120.907 200.306 123.336C200.856 127.276 199.916 129.465 197.017 130.565C197.017 130.565 199.167 133.204 199.467 135.334C200.036 139.423 198.357 141.433 196.867 142.632C196.867 142.632 198.487 145.412 198.327 147.212C198.037 150.491 195.737 151.041 194.887 154.38C194.038 157.719 194.468 161.899 192.158 163.588C185.029 168.797 182.58 171.287 175.331 173.866C172.492 174.876 166.353 174.386 163.144 176.156C159.935 177.925 148.677 189.013 148.677 189.013H107.135V189.023Z" fill="#C35500"/>
<path d="M162.804 118.547C162.804 118.547 162.274 119.927 160.594 121.206C160.005 121.656 158.955 122.556 158.765 123.266L158.245 130.135C158.245 130.135 159.885 124.106 166.153 122.776C166.153 122.776 165.014 120.367 162.804 118.547Z" fill="#450B00"/>
<path d="M196.287 119.438C196.287 119.438 194.238 121.747 186.309 126.167C178.381 130.586 178.751 131.226 179.75 131.496C180.75 131.765 182.75 133.215 187.689 129.076C190.278 126.916 192.548 124.167 194.028 122.777C196.067 120.858 198.387 120.618 198.387 120.618C198.387 120.618 197.697 120.058 197.217 119.818C196.837 119.628 196.277 119.418 196.277 119.418L196.287 119.438Z" fill="#450B00"/>
<path d="M197.027 130.586C197.027 130.586 188.509 137.255 187.019 138.424C185.529 139.594 185.619 142.723 187.399 141.644C189.179 140.564 191.718 136.555 193.878 134.405C196.037 132.256 197.887 131.776 197.887 131.776L197.027 130.586Z" fill="#450B00"/>
<path d="M196.857 142.562C196.857 142.562 191.298 148.581 190.338 150.171C189.579 151.431 188.369 152.68 186.979 154.19C185.809 155.46 187.969 158.509 189.639 155.33C190.698 153.32 193.418 148.001 194.368 147.042C195.317 146.082 197.047 143.972 196.847 142.562H196.857Z" fill="#450B00"/>
<path d="M163.014 176.376C166.233 174.607 172.362 175.097 175.202 174.087C181.49 171.847 184.17 169.678 189.419 165.739C187.359 166.169 185.859 164.939 185.25 163.799C184.34 162.079 179.351 158.12 179.711 154.751C180.321 148.912 180.281 146.243 178.851 147.132C174.542 149.812 172.222 149.002 172.082 146.153C171.692 138.114 169.043 139.054 165.454 136.924C160.754 134.135 160.624 126.926 160.864 125.767C160.964 125.277 159.645 126.986 159.205 127.616C155.735 132.585 151.256 155.881 152.256 163.779C152.906 168.918 151.976 175.657 150.736 178.406C148.607 183.135 143.318 187.174 140.519 189.064L148.657 189.014C154.966 182.985 160.395 177.806 163.004 176.367L163.014 176.376Z" fill="#8D2A00"/>
</svg>
