<?xml version="1.0" encoding="UTF-8"?>
<!--Generator: Apple Native CoreSVG 341-->
<!DOCTYPE svg
PUBLIC "-//W3C//DTD SVG 1.1//EN"
       "http://www.w3.org/Graphics/SVG/1.1/DTD/svg11.dtd">
<svg version="1.1" xmlns="http://www.w3.org/2000/svg" xmlns:xlink="http://www.w3.org/1999/xlink" viewBox="0 0 3300 2200">
 <!--glyph: "", point size: 100.0, font version: "21.0d4e1", template writer version: "138.0.0"-->
 <style>.defaults {-sfsymbols-draw-reverses-motion-groups:true}

.monochrome-0 {-sfsymbols-motion-group:3;-sfsymbols-layer-tags:67dcc0c1b11c6a03}
.monochrome-1 {-sfsymbols-motion-group:2;-sfsymbols-layer-tags:67dcc0c1b11c6a03}
.monochrome-2 {-sfsymbols-motion-group:1;-sfsymbols-layer-tags:67dcc0c1b11c6a03}
.monochrome-3 {-sfsymbols-motion-group:0;-sfsymbols-layer-tags:67dcc0c1b11c6a03}

.multicolor-0:tintColor {-sfsymbols-motion-group:3;-sfsymbols-layer-tags:67dcc0c1b11c6a03}
.multicolor-1:tintColor {-sfsymbols-motion-group:2;-sfsymbols-layer-tags:67dcc0c1b11c6a03}
.multicolor-2:tintColor {-sfsymbols-motion-group:1;-sfsymbols-layer-tags:67dcc0c1b11c6a03}
.multicolor-3:tintColor {-sfsymbols-motion-group:0;-sfsymbols-layer-tags:67dcc0c1b11c6a03}

.hierarchical-0:primary {-sfsymbols-motion-group:3;-sfsymbols-layer-tags:67dcc0c1b11c6a03}
.hierarchical-1:primary {-sfsymbols-motion-group:2;-sfsymbols-layer-tags:67dcc0c1b11c6a03}
.hierarchical-2:primary {-sfsymbols-motion-group:1;-sfsymbols-layer-tags:67dcc0c1b11c6a03}
.hierarchical-3:primary {-sfsymbols-motion-group:0;-sfsymbols-layer-tags:67dcc0c1b11c6a03}

.SFSymbolsPreviewWireframe {fill:none;opacity:1.0;stroke:black;stroke-width:0.5}
</style>
 <g id="Notes">
  <rect height="2200" id="artboard" style="fill:white;opacity:1" width="3300" x="0" y="0"/>
  <line style="fill:none;stroke:black;opacity:1;stroke-width:0.5;" x1="263" x2="3036" y1="292" y2="292"/>
  <text style="stroke:none;fill:black;font-family:sans-serif;font-size:13;font-weight:bold;" transform="matrix(1 0 0 1 263 322)">Weight/Scale Variations</text>
  <text style="stroke:none;fill:black;font-family:sans-serif;font-size:13;text-anchor:middle;" transform="matrix(1 0 0 1 559.711 322)">Ultralight</text>
  <text style="stroke:none;fill:black;font-family:sans-serif;font-size:13;text-anchor:middle;" transform="matrix(1 0 0 1 856.422 322)">Thin</text>
  <text style="stroke:none;fill:black;font-family:sans-serif;font-size:13;text-anchor:middle;" transform="matrix(1 0 0 1 1153.13 322)">Light</text>
  <text style="stroke:none;fill:black;font-family:sans-serif;font-size:13;text-anchor:middle;" transform="matrix(1 0 0 1 1449.84 322)">Regular</text>
  <text style="stroke:none;fill:black;font-family:sans-serif;font-size:13;text-anchor:middle;" transform="matrix(1 0 0 1 1746.56 322)">Medium</text>
  <text style="stroke:none;fill:black;font-family:sans-serif;font-size:13;text-anchor:middle;" transform="matrix(1 0 0 1 2043.27 322)">Semibold</text>
  <text style="stroke:none;fill:black;font-family:sans-serif;font-size:13;text-anchor:middle;" transform="matrix(1 0 0 1 2339.98 322)">Bold</text>
  <text style="stroke:none;fill:black;font-family:sans-serif;font-size:13;text-anchor:middle;" transform="matrix(1 0 0 1 2636.69 322)">Heavy</text>
  <text style="stroke:none;fill:black;font-family:sans-serif;font-size:13;text-anchor:middle;" transform="matrix(1 0 0 1 2933.4 322)">Black</text>
  <line style="fill:none;stroke:black;opacity:1;stroke-width:0.5;" x1="263" x2="3036" y1="1903" y2="1903"/>
  <g transform="matrix(0.2 0 0 0.2 263 1933)">
   <path d="m46.2402 4.15039c21.7773 0 39.4531-17.627 39.4531-39.4043s-17.6758-39.4043-39.4531-39.4043c-21.7285 0-39.4043 17.627-39.4043 39.4043s17.6758 39.4043 39.4043 39.4043Zm0-7.42188c-17.6758 0-31.9336-14.3066-31.9336-31.9824s14.2578-31.9824 31.9336-31.9824 31.9824 14.3066 31.9824 31.9824-14.3066 31.9824-31.9824 31.9824Zm3.61328-17.7734v-28.4668c0-2.24609-1.46484-3.75977-3.71094-3.75977-2.14844 0-3.61328 1.51367-3.61328 3.75977v28.4668c0 2.19727 1.46484 3.71094 3.61328 3.71094 2.24609 0 3.71094-1.51367 3.71094-3.71094Zm-17.8223-10.5957h28.418c2.19727 0 3.71094-1.46484 3.71094-3.61328 0-2.19727-1.51367-3.71094-3.71094-3.71094h-28.418c-2.24609 0-3.75977 1.51367-3.75977 3.71094 0 2.14844 1.51367 3.61328 3.75977 3.61328Z"/>
  </g>
  <g transform="matrix(0.2 0 0 0.2 281.506 1933)">
   <path d="m58.5449 14.5508c27.4902 0 49.8047-22.3145 49.8047-49.8047s-22.3145-49.8047-49.8047-49.8047-49.8047 22.3145-49.8047 49.8047 22.3145 49.8047 49.8047 49.8047Zm0-8.30078c-22.9492 0-41.5039-18.5547-41.5039-41.5039s18.5547-41.5039 41.5039-41.5039 41.5039 18.5547 41.5039 41.5039-18.5547 41.5039-41.5039 41.5039Zm4.05273-23.0957v-36.9141c0-2.49023-1.70898-4.19922-4.15039-4.19922-2.39258 0-4.05273 1.70898-4.05273 4.19922v36.9141c0 2.44141 1.66016 4.15039 4.05273 4.15039 2.44141 0 4.15039-1.66016 4.15039-4.15039Zm-22.5586-14.4043h36.9629c2.44141 0 4.15039-1.61133 4.15039-4.00391 0-2.44141-1.70898-4.15039-4.15039-4.15039h-36.9629c-2.49023 0-4.15039 1.70898-4.15039 4.15039 0 2.39258 1.66016 4.00391 4.15039 4.00391Z"/>
  </g>
  <g transform="matrix(0.2 0 0 0.2 304.924 1933)">
   <path d="m74.8535 28.3203c35.1074 0 63.623-28.4668 63.623-63.5742s-28.5156-63.623-63.623-63.623-63.5742 28.5156-63.5742 63.623 28.4668 63.5742 63.5742 63.5742Zm0-9.08203c-30.127 0-54.4922-24.3652-54.4922-54.4922s24.3652-54.4922 54.4922-54.4922 54.4922 24.3652 54.4922 54.4922-24.3652 54.4922-54.4922 54.4922Zm4.44336-30.3223v-48.4863c0-2.73438-1.85547-4.63867-4.54102-4.63867-2.58789 0-4.44336 1.9043-4.44336 4.63867v48.4863c0 2.68555 1.85547 4.58984 4.44336 4.58984 2.68555 0 4.54102-1.85547 4.54102-4.58984Zm-28.7109-19.7754h48.4863c2.68555 0 4.58984-1.80664 4.58984-4.39453 0-2.73438-1.85547-4.58984-4.58984-4.58984h-48.4863c-2.73438 0-4.58984 1.85547-4.58984 4.58984 0 2.58789 1.85547 4.39453 4.58984 4.39453Z"/>
  </g>
  <text style="stroke:none;fill:black;font-family:sans-serif;font-size:13;font-weight:bold;" transform="matrix(1 0 0 1 263 1953)">Design Variations</text>
  <text style="stroke:none;fill:black;font-family:sans-serif;font-size:13;" transform="matrix(1 0 0 1 263 1971)">Symbols are supported in up to nine weights and three scales.</text>
  <text style="stroke:none;fill:black;font-family:sans-serif;font-size:13;" transform="matrix(1 0 0 1 263 1989)">For optimal layout with text and other symbols, vertically align</text>
  <text style="stroke:none;fill:black;font-family:sans-serif;font-size:13;" transform="matrix(1 0 0 1 263 2007)">symbols with the adjacent text.</text>
  <line style="fill:none;stroke:#00AEEF;stroke-width:0.5;opacity:1.0;" x1="776" x2="776" y1="1919" y2="1933"/>
  <g transform="matrix(0.2 0 0 0.2 776 1933)">
   <path d="m16.5527 0.78125c2.58789 0 3.85742-0.976562 4.78516-3.71094l20.5566-57.5195h0.244141l20.6055 57.5195c0.927734 2.73438 2.19727 3.71094 4.73633 3.71094 2.58789 0 4.24805-1.5625 4.24805-4.00391 0-0.830078-0.146484-1.61133-0.537109-2.63672l-22.9004-60.9863c-1.12305-2.97852-3.125-4.49219-6.25-4.49219-3.02734 0-5.07812 1.46484-6.15234 4.44336l-22.9004 61.084c-0.390625 1.02539-0.537109 1.80664-0.537109 2.63672 0 2.44141 1.5625 3.95508 4.10156 3.95508Zm10.2051-20.9473h30.6641c2.00195 0 3.66211-1.66016 3.66211-3.66211 0-2.05078-1.66016-3.66211-3.66211-3.66211h-30.6641c-2.00195 0-3.66211 1.61133-3.66211 3.66211 0 2.00195 1.66016 3.66211 3.66211 3.66211Z"/>
  </g>
  <line style="fill:none;stroke:#00AEEF;stroke-width:0.5;opacity:1.0;" x1="792.836" x2="792.836" y1="1919" y2="1933"/>
  <text style="stroke:none;fill:black;font-family:sans-serif;font-size:13;font-weight:bold;" transform="matrix(1 0 0 1 776 1953)">Margins</text>
  <text style="stroke:none;fill:black;font-family:sans-serif;font-size:13;" transform="matrix(1 0 0 1 776 1971)">Leading and trailing margins on the left and right side of each symbol</text>
  <text style="stroke:none;fill:black;font-family:sans-serif;font-size:13;" transform="matrix(1 0 0 1 776 1989)">can be adjusted by modifying the x-location of the margin guidelines.</text>
  <text style="stroke:none;fill:black;font-family:sans-serif;font-size:13;" transform="matrix(1 0 0 1 776 2007)">Modifications are automatically applied proportionally to all</text>
  <text style="stroke:none;fill:black;font-family:sans-serif;font-size:13;" transform="matrix(1 0 0 1 776 2025)">scales and weights.</text>
  <g transform="matrix(0.2 0 0 0.2 1289 1933)">
   <path d="m14.209 13.1348 7.86133 7.86133c4.29688 4.39453 9.32617 4.10156 13.8672-1.02539l60.6934-68.2129-4.88281-4.88281-60.2539 67.6758c-1.80664 1.95312-3.4668 2.44141-5.81055 0.0976562l-5.17578-5.12695c-2.29492-2.29492-1.80664-3.95508 0.195312-5.81055l67.4805-62.1582-4.88281-4.83398-68.0664 62.5977c-4.98047 4.58984-5.32227 9.47266-1.02539 13.8184Zm44.873-97.4609c-2.05078 2.00195-2.24609 4.88281-1.07422 6.78711 1.12305 1.80664 3.4668 3.02734 6.5918 2.24609 5.85938-1.66016 12.5977-2.39258 18.8965 0.927734l-2.68555 7.12891c-1.61133 4.00391-0.732422 6.88477 1.70898 9.42383l10.2539 10.3027c2.34375 2.39258 4.54102 2.44141 7.08008 1.95312l4.44336-0.732422 2.58789 2.53906-0.195312 2.24609c-0.0976562 2.29492 0.537109 4.29688 2.7832 6.49414l3.36914 3.32031c2.29492 2.29492 5.51758 2.49023 7.8125 0.195312l12.9883-13.0371c2.29492-2.34375 2.14844-5.37109-0.195312-7.66602l-3.41797-3.41797c-2.19727-2.19727-4.05273-3.02734-6.34766-2.88086l-2.34375 0.244141-2.44141-2.44141 1.02539-4.6875c0.634766-2.73438-0.244141-4.98047-2.88086-7.61719l-11.2793-11.1816c-12.9395-12.8418-35.5957-11.0352-46.6797-0.146484Zm7.08008 2.05078c8.78906-6.39648 25.9766-5.66406 33.6914 1.95312l12.3047 12.207c1.02539 1.02539 1.2207 1.80664 0.927734 3.32031l-1.46484 6.64062 6.73828 6.68945 4.39453-0.244141c1.12305-0.0488281 1.51367 0.0488281 2.34375 0.878906l2.53906 2.49023-10.8398 10.8398-2.49023-2.49023c-0.830078-0.878906-0.976562-1.2207-0.927734-2.39258l0.292969-4.3457-6.68945-6.73828-6.83594 1.17188c-1.41602 0.292969-2.05078 0.195312-3.17383-0.878906l-8.93555-8.88672c-1.07422-1.02539-1.17188-1.70898-0.488281-3.36914l4.58984-11.4746c-6.10352-6.34766-17.041-7.51953-25.5859-4.58984-0.683594 0.244141-0.927734-0.390625-0.390625-0.78125Z"/>
  </g>
  <text style="stroke:none;fill:black;font-family:sans-serif;font-size:13;font-weight:bold;" transform="matrix(1 0 0 1 1289 1953)">Exporting</text>
  <text style="stroke:none;fill:black;font-family:sans-serif;font-size:13;" transform="matrix(1 0 0 1 1289 1971)">Symbols should be outlined when exporting to ensure the</text>
  <text style="stroke:none;fill:black;font-family:sans-serif;font-size:13;" transform="matrix(1 0 0 1 1289 1989)">design is preserved when submitting to Xcode.</text>
  <text id="template-version" style="stroke:none;fill:black;font-family:sans-serif;font-size:13;text-anchor:end;" transform="matrix(1 0 0 1 3036 1933)">Template v.5.0</text>
  <text style="stroke:none;fill:black;font-family:sans-serif;font-size:13;text-anchor:end;" transform="matrix(1 0 0 1 3036 1951)">Requires Xcode 15 or greater</text>
  <text id="descriptive-name" style="stroke:none;fill:black;font-family:sans-serif;font-size:13;text-anchor:end;" transform="matrix(1 0 0 1 3036 1969)">Generated from fiori.enablement</text>
  <text style="stroke:none;fill:black;font-family:sans-serif;font-size:13;text-anchor:end;" transform="matrix(1 0 0 1 3036 1987)">Typeset at 100.0 points</text>
  <text style="stroke:none;fill:black;font-family:sans-serif;font-size:13;" transform="matrix(1 0 0 1 263 726)">Small</text>
  <text style="stroke:none;fill:black;font-family:sans-serif;font-size:13;" transform="matrix(1 0 0 1 263 1156)">Medium</text>
  <text style="stroke:none;fill:black;font-family:sans-serif;font-size:13;" transform="matrix(1 0 0 1 263 1586)">Large</text>
 </g>
 <g id="Guides">
  <g id="H-reference" style="fill:#27AAE1;stroke:none;" transform="matrix(1 0 0 1 339 696)">
   <path d="M0.993654 0L3.63775 0L29.3281-67.1323L30.0303-67.1323L30.0303-70.459L28.1226-70.459ZM11.6885-24.4799L46.9815-24.4799L46.2315-26.7285L12.4385-26.7285ZM55.1196 0L57.7637 0L30.6382-70.459L29.4326-70.459L29.4326-67.1323Z"/>
  </g>
  <line id="Baseline-S" style="fill:none;stroke:#27AAE1;opacity:1;stroke-width:0.5;" x1="263" x2="3036" y1="696" y2="696"/>
  <line id="Capline-S" style="fill:none;stroke:#27AAE1;opacity:1;stroke-width:0.5;" x1="263" x2="3036" y1="625.541" y2="625.541"/>
  <g id="H-reference" style="fill:#27AAE1;stroke:none;" transform="matrix(1 0 0 1 339 1126)">
   <path d="M0.993654 0L3.63775 0L29.3281-67.1323L30.0303-67.1323L30.0303-70.459L28.1226-70.459ZM11.6885-24.4799L46.9815-24.4799L46.2315-26.7285L12.4385-26.7285ZM55.1196 0L57.7637 0L30.6382-70.459L29.4326-70.459L29.4326-67.1323Z"/>
  </g>
  <line id="Baseline-M" style="fill:none;stroke:#27AAE1;opacity:1;stroke-width:0.5;" x1="263" x2="3036" y1="1126" y2="1126"/>
  <line id="Capline-M" style="fill:none;stroke:#27AAE1;opacity:1;stroke-width:0.5;" x1="263" x2="3036" y1="1055.54" y2="1055.54"/>
  <g id="H-reference" style="fill:#27AAE1;stroke:none;" transform="matrix(1 0 0 1 339 1556)">
   <path d="M0.993654 0L3.63775 0L29.3281-67.1323L30.0303-67.1323L30.0303-70.459L28.1226-70.459ZM11.6885-24.4799L46.9815-24.4799L46.2315-26.7285L12.4385-26.7285ZM55.1196 0L57.7637 0L30.6382-70.459L29.4326-70.459L29.4326-67.1323Z"/>
  </g>
  <line id="Baseline-L" style="fill:none;stroke:#27AAE1;opacity:1;stroke-width:0.5;" x1="263" x2="3036" y1="1556" y2="1556"/>
  <line id="Capline-L" style="fill:none;stroke:#27AAE1;opacity:1;stroke-width:0.5;" x1="263" x2="3036" y1="1485.54" y2="1485.54"/>
  <line id="right-margin-Black-S" style="fill:none;stroke:#00AEEF;stroke-width:0.5;opacity:1.0;" x1="2981.9" x2="2981.9" y1="600.785" y2="720.121"/>
  <line id="left-margin-Black-S" style="fill:none;stroke:#00AEEF;stroke-width:0.5;opacity:1.0;" x1="2884.9" x2="2884.9" y1="600.785" y2="720.121"/>
  <line id="right-margin-Regular-S" style="fill:none;stroke:#00AEEF;stroke-width:0.5;opacity:1.0;" x1="1496.29" x2="1496.29" y1="600.785" y2="720.121"/>
  <line id="left-margin-Regular-S" style="fill:none;stroke:#00AEEF;stroke-width:0.5;opacity:1.0;" x1="1403.39" x2="1403.39" y1="600.785" y2="720.121"/>
  <line id="right-margin-Ultralight-S" style="fill:none;stroke:#00AEEF;stroke-width:0.5;opacity:1.0;" x1="604.411" x2="604.411" y1="600.785" y2="720.121"/>
  <line id="left-margin-Ultralight-S" style="fill:none;stroke:#00AEEF;stroke-width:0.5;opacity:1.0;" x1="515.011" x2="515.011" y1="600.785" y2="720.121"/>
 </g>
 <g id="Symbols">
  <g id="Black-S" transform="matrix(1 0 0 1 2884.9 696)">
   <path class="monochrome-0 multicolor-0:tintColor hierarchical-0:primary SFSymbolsPreviewWireframe" d="M85.51 3.5C84.11 3.5 82.71 3 81.61 1.9L74.41-5.3C72.21-7.5 72.21-11 74.41-13.1C76.61-15.3 80.11-15.3 82.21-13.1L89.41-5.9C91.61-3.7 91.61-0.2 89.41 1.9C88.31 3 86.91 3.5 85.51 3.5ZM69.11-1.6C64.01-1.6 59.81-3.7 56.91-6.7C55.31-8.3 54.31-11.4 57.11-14.5C58.61-16.2 62.31-16.9 64.91-14.3C66.21-12.9 67.71-12.6 69.11-12.6C71.91-12.6 74.81-14.4 74.81-18.4C74.81-22.1 72.11-24.2 69.01-24.2C68.11-24.2 66.61-24 65.31-23C63.51-21.6 59.71-21 57.51-23.9C55.11-27 56.61-30.3 58.41-31.7C61.11-33.9 65.41-35.3 69.01-35.3C79.31-35.3 85.81-27.1 85.81-18.5C85.91-9.8 79.31-1.6 69.11-1.6Z"/>
   <path class="monochrome-1 multicolor-1:tintColor hierarchical-1:primary SFSymbolsPreviewWireframe" d="M45.61-26.2L41.11-22C39.61-20.6 37.31-20.8 36.01-22.4L33.71-25.4C32.61-26.9 32.71-29.1 34.51-30.5L39.51-33.9C41.01-34.9 43.11-34.6 44.21-33.2L45.91-31C47.01-29.6 46.91-27.4 45.61-26.2ZM45.31-9L39.31-9.9C38.11-10.1 35.91-11.3 36.41-14.1L37.21-17.7C37.91-20.5 40.51-20.6 41.61-20.3L47.41-18.4C48.41-18.1 50.11-16.9 49.71-14.3L49.11-11.6C48.41-9.1 46.41-8.8 45.31-9ZM31.91 1.6L28.91-3.7C28.31-4.8 27.91-7.2 30.41-8.6L33.71-10.2C36.31-11.4 38.01-9.4 38.41-8.3L40.61-2.5C41.01-1.5 41.11 0.7 38.91 1.9L36.51 3C34.21 4.1 32.51 2.5 31.91 1.6ZM15.51-2.4L17.71-8.2C18.11-9.3 19.81-11.2 22.51-10.1L25.81-8.5C28.31-7.2 27.91-4.6 27.31-3.6L24.21 1.7C23.71 2.6 22.01 4.1 19.71 3.1L17.21 2C15.01 0.8 15.11-1.4 15.51-2.4ZM8.41-18.1L14.21-19.9C16.91-20.7 18.41-18.5 18.61-17.3L19.41-13.6C19.71-12.4 19.31-9.9 16.51-9.4L10.51-8.5C9.41-8.3 7.31-8.7 6.61-11.2L6.01-13.9C5.51-16.4 7.41-17.7 8.41-18.1ZM15.91-33.5L20.91-30C23.21-28.2 22.41-25.9 21.71-24.9L19.41-22C18.71-21 16.61-19.7 14.31-21.6L9.91-25.8C8.11-27.8 8.91-29.7 9.61-30.5L11.31-32.7C11.91-33.6 13.71-34.9 15.91-33.5ZM32.51-37.2L33.01-31C33.01-28 30.71-27.2 29.51-27.2L25.81-27.2C24.61-27.2 22.31-28 22.31-31L22.81-37.2C23.01-39.7 25.21-40.4 26.31-40.4L29.01-40.4C30.11-40.4 32.21-39.7 32.51-37.2ZM27.91-1.6C18.51-1.6 11.11-9 11.11-18.4C11.11-27.8 18.51-35.2 27.91-35.2C37.31-35.2 44.71-27.8 44.71-18.4C44.81-9 37.41-1.6 27.91-1.6ZM27.91-24.2C24.61-24.2 22.11-21.7 22.11-18.4C22.11-15.1 24.61-12.6 27.91-12.6C31.21-12.6 33.71-15.1 33.71-18.4C33.71-21.7 31.21-24.2 27.91-24.2Z"/>
   <path class="monochrome-2 multicolor-2:tintColor hierarchical-2:primary SFSymbolsPreviewWireframe" d="M80.41-70.5L57.71-70.5C54.61-70.5 52.21-73 52.21-76C52.21-79 54.71-81.5 57.71-81.5L80.31-81.5C83.41-81.5 85.81-79 85.81-76C85.81-73 83.41-70.5 80.41-70.5ZM80.41-56.6L57.71-56.6C54.61-56.6 52.21-59.1 52.21-62.1C52.21-65.2 54.71-67.6 57.71-67.6L80.31-67.6C83.41-67.6 85.81-65.1 85.81-62.1C85.91-59.1 83.41-56.6 80.41-56.6ZM75.21-42.7L57.71-42.7C54.61-42.7 52.21-45.2 52.21-48.2C52.21-51.2 54.71-53.7 57.71-53.7L75.21-53.7C78.31-53.7 80.71-51.2 80.71-48.2C80.71-45.2 78.31-42.7 75.21-42.7Z"/>
   <path class="monochrome-3 multicolor-3:tintColor hierarchical-3:primary SFSymbolsPreviewWireframe" d="M37.01-72.4C37.01-67.3742 32.9358-63.3 27.91-63.3C22.8842-63.3 18.81-67.3742 18.81-72.4C18.81-77.4258 22.8842-81.5 27.91-81.5C32.9358-81.5 37.01-77.4258 37.01-72.4ZM39.21-42.7L16.61-42.7C13.51-42.7 11.11-45.2 11.11-48.2C11.11-54.4 16.11-60.9 23.81-60.9L32.01-60.9C39.81-60.9 44.71-54.4 44.71-48.2C44.81-45.2 42.41-42.7 39.21-42.7Z"/>
  </g>
  <g id="Regular-S" transform="matrix(1 0 0 1 1403.39 696)">
   <path class="monochrome-0 multicolor-0:tintColor hierarchical-0:primary SFSymbolsPreviewWireframe" d="M83.46 2.1C82.36 2.1 81.36 1.7 80.56 0.9L73.36-6.3C71.76-7.9 71.76-10.5 73.36-12.1C74.96-13.7 77.56-13.7 79.16-12.1L86.36-4.9C87.96-3.3 87.96-0.7 86.36 0.9C85.56 1.7 84.56 2.1 83.46 2.1ZM67.06-3C62.76-3 58.76-4.7 55.86-7.7C54.26-9.3 54.36-11.9 55.96-13.5C57.56-15.1 60.16-15 61.76-13.4C63.06-12 64.96-11.2 66.96-11.2C71.16-11.2 74.16-14.2 74.16-18.4C74.16-22.6 71.16-25.6 66.96-25.6C65.26-25.6 63.66-25.1 62.36-24.1C60.56-22.7 57.96-23 56.56-24.8C55.16-26.6 55.46-29.2 57.26-30.6C59.96-32.8 63.36-33.9 66.96-33.9C75.56-33.9 82.36-27.1 82.36-18.5C82.46-9.8 75.76-3 67.06-3Z"/>
   <path class="monochrome-1 multicolor-1:tintColor hierarchical-1:primary SFSymbolsPreviewWireframe" d="M42.66-27.3L38.16-23C37.26-22.2 35.86-22.3 35.16-23.2L32.96-26.2C32.26-27.2 32.46-28.6 33.46-29.2L38.46-32.6C39.36-33.2 40.56-33 41.16-32.2L42.86-30C43.46-29.2 43.36-28 42.66-27.3ZM43.56-10.4L37.56-11.3C36.36-11.5 35.56-12.6 35.86-13.8L36.66-17.4C36.96-18.6 38.16-19.3 39.26-18.9L45.06-17C46.06-16.7 46.66-15.6 46.46-14.5L45.86-12C45.56-10.9 44.56-10.2 43.56-10.4ZM31.16 0.9L28.16-4.4C27.56-5.5 27.96-6.8 29.06-7.3L32.36-9C33.46-9.5 34.76-9 35.16-7.9L37.36-2.1C37.76-1.1 37.26 0.1 36.36 0.5L33.96 1.7C32.86 2.2 31.76 1.8 31.16 0.9ZM14.86-1.9L17.06-7.7C17.46-8.8 18.76-9.4 19.86-8.8L23.16-7.2C24.26-6.7 24.66-5.3 24.06-4.3L20.96 1.1C20.46 2 19.26 2.4 18.26 1.9L15.86 0.7C14.86 0.2 14.46-0.9 14.86-1.9ZM6.86-16.7L12.66-18.5C13.76-18.9 14.96-18.2 15.26-17L16.06-13.3C16.36-12.1 15.56-10.9 14.36-10.8L8.36-9.9C7.26-9.7 6.26-10.4 6.06-11.5L5.46-14.2C5.16-15.3 5.76-16.4 6.86-16.7ZM13.16-32.3L18.16-28.8C19.16-28.1 19.36-26.7 18.66-25.8L16.36-22.9C15.66-21.9 14.26-21.8 13.36-22.7L8.96-26.9C8.16-27.6 8.06-28.9 8.76-29.7L10.46-31.9C11.06-32.8 12.26-33 13.16-32.3ZM29.06-37.1L29.56-30.9C29.66-29.7 28.76-28.6 27.56-28.6L23.86-28.6C22.66-28.6 21.76-29.6 21.86-30.9L22.36-37.1C22.46-38.2 23.36-39 24.36-39L26.96-39C28.06-39 28.96-38.2 29.06-37.1ZM25.96-3C17.36-3 10.56-9.8 10.56-18.4C10.56-27 17.36-33.8 25.96-33.8C34.56-33.8 41.36-27 41.36-18.4C41.36-9.8 34.56-3 25.96-3ZM25.96-25.6C21.86-25.6 18.76-22.5 18.76-18.4C18.76-14.3 21.86-11.2 25.96-11.2C30.06-11.2 33.16-14.3 33.16-18.4C33.16-22.5 30.06-25.6 25.96-25.6Z"/>
   <path class="monochrome-2 multicolor-2:tintColor hierarchical-2:primary SFSymbolsPreviewWireframe" d="M78.36-71.9L55.76-71.9C53.46-71.9 51.66-73.7 51.66-76C51.66-78.3 53.46-80.1 55.76-80.1L78.36-80.1C80.66-80.1 82.46-78.3 82.46-76C82.46-73.7 80.66-71.9 78.36-71.9ZM78.36-58L55.76-58C53.46-58 51.66-59.8 51.66-62.1C51.66-64.4 53.46-66.2 55.76-66.2L78.36-66.2C80.66-66.2 82.46-64.4 82.46-62.1C82.46-59.8 80.66-58 78.36-58ZM73.26-44.1L55.76-44.1C53.46-44.1 51.66-45.9 51.66-48.2C51.66-50.5 53.46-52.3 55.76-52.3L73.26-52.3C75.56-52.3 77.36-50.5 77.36-48.2C77.36-46 75.46-44.1 73.26-44.1Z"/>
   <path class="monochrome-3 multicolor-3:tintColor hierarchical-3:primary SFSymbolsPreviewWireframe" d="M33.66-72.4C33.66-68.1474 30.2126-64.7 25.96-64.7C21.7074-64.7 18.26-68.1474 18.26-72.4C18.26-76.6526 21.7074-80.1 25.96-80.1C30.2126-80.1 33.66-76.6526 33.66-72.4ZM37.26-44.1L14.66-44.1C12.36-44.1 10.56-45.9 10.56-48.2C10.56-54.4 15.66-59.5 21.86-59.5L30.06-59.5C36.26-59.5 41.36-54.4 41.36-48.2C41.36-46 39.56-44.1 37.26-44.1Z"/>
  </g>
  <g id="Ultralight-S" transform="matrix(1 0 0 1 515.011 696)">
   <path class="monochrome-0 multicolor-0:tintColor hierarchical-0:primary SFSymbolsPreviewWireframe" d="M81.775 0.7C81.075 0.7 80.375 0.4 79.875-0.1L72.675-7.3C71.575-8.4 71.575-10.1 72.675-11.1C73.775-12.2 75.475-12.2 76.475-11.1L83.675-3.9C84.775-2.8 84.775-1.1 83.675-0.1C83.175 0.4 82.475 0.7 81.775 0.7ZM65.375-4.4C61.975-4.4 58.075-5.6 55.175-8.7C53.975-10 54.475-11.7 55.275-12.5C55.875-13 57.575-13.9 59.075-12.4C60.475-11 62.275-9.8 65.375-9.8C69.875-9.8 73.975-12.9 73.975-18.4C73.975-23.6 70.075-27 65.375-27C63.075-27 61.275-26.1 59.975-25.2C58.575-24.3 57.075-24.5 56.175-25.6C55.375-26.7 55.375-28.4 56.575-29.4C59.275-31.6 62.475-32.4 65.375-32.4C73.175-32.4 79.375-26.3 79.375-18.4C79.275-10.1 72.675-4.4 65.375-4.4Z"/>
   <path class="monochrome-1 multicolor-1:tintColor hierarchical-1:primary SFSymbolsPreviewWireframe" d="M39.875-28.3L35.475-24.1C35.175-23.9 34.775-23.9 34.575-24.2L32.275-27.2C32.075-27.5 32.075-28 32.475-28.2L37.475-31.6C37.775-31.8 38.075-31.7 38.275-31.5L39.975-29.3C40.175-28.9 40.175-28.5 39.875-28.3ZM41.975-11.8L35.975-12.7C35.575-12.8 35.375-13.2 35.475-13.5L36.275-17.1C36.375-17.5 36.875-17.7 37.075-17.6L42.875-15.7C43.175-15.6 43.375-15.2 43.275-14.9L42.675-12.2C42.575-11.9 42.275-11.7 41.975-11.8ZM30.675 0.2L27.675-5.1C27.475-5.5 27.675-5.9 27.975-6.1L30.975-7.6C31.475-7.9 31.875-7.9 32.175-7.4L34.375-1.6C34.475-1.2 34.275-0.9 34.075-0.7L31.675 0.5C31.175 0.6 30.875 0.5 30.675 0.2ZM14.475-1.4L16.675-7.2C16.775-7.6 17.275-7.7 17.475-7.6L20.775-6C21.075-5.9 21.275-5.4 21.075-5L17.975 0.4C17.775 0.7 17.475 0.8 17.175 0.7L14.775-0.5C14.475-0.7 14.275-1.1 14.475-1.4ZM5.475-15.4L11.275-17.2C11.675-17.3 11.975-17.1 12.075-16.7L12.875-13C12.975-12.6 12.775-12.2 12.375-12.2L6.375-11.3C6.175-11.2 5.775-11.4 5.675-11.8L5.075-14.5C4.975-14.9 5.175-15.3 5.475-15.4ZM10.575-31.2L15.575-27.7C15.875-27.5 15.975-27 15.775-26.7L13.475-23.8C13.275-23.5 12.875-23.5 12.575-23.7L8.175-28C7.875-28.2 7.875-28.7 8.075-28.9L9.775-31.1C9.975-31.3 10.275-31.4 10.575-31.2ZM25.875-37L26.375-30.8C26.375-30.3 26.075-30.1 25.775-30.1L22.075-30.1C21.775-30.1 21.375-30.4 21.475-30.8L21.975-37C21.975-37.4 22.375-37.6 22.575-37.6L25.275-37.6C25.475-37.6 25.875-37.4 25.875-37ZM24.175-4.4C16.275-4.4 10.175-10.6 10.175-18.4C10.175-26.3 16.375-32.4 24.175-32.4C31.975-32.4 38.175-26.2 38.175-18.4C38.175-10.6 32.075-4.4 24.175-4.4ZM24.175-27C19.275-27 15.575-23.3 15.575-18.4C15.575-13.5 19.275-9.8 24.175-9.8C29.075-9.8 32.775-13.5 32.775-18.4C32.775-23.3 29.075-27 24.175-27Z"/>
   <path class="monochrome-2 multicolor-2:tintColor hierarchical-2:primary SFSymbolsPreviewWireframe" d="M76.575-73.3L53.975-73.3C52.475-73.3 51.275-74.5 51.275-76C51.275-77.5 52.475-78.7 53.975-78.7L76.575-78.7C78.075-78.7 79.275-77.5 79.275-76C79.275-74.5 78.075-73.3 76.575-73.3ZM76.575-59.4L53.975-59.4C52.475-59.4 51.275-60.6 51.275-62.1C51.275-63.6 52.475-64.8 53.975-64.8L76.575-64.8C78.075-64.8 79.275-63.6 79.275-62.1C79.275-60.6 78.075-59.4 76.575-59.4ZM71.475-45.5L53.975-45.5C52.475-45.5 51.275-46.7 51.275-48.2C51.275-49.7 52.475-50.9 53.975-50.9L71.475-50.9C72.975-50.9 74.175-49.7 74.175-48.2C74.175-46.8 72.975-45.5 71.475-45.5Z"/>
   <path class="monochrome-3 multicolor-3:tintColor hierarchical-3:primary SFSymbolsPreviewWireframe" d="M30.475-72.4C30.475-68.9206 27.6544-66.1 24.175-66.1C20.6956-66.1 17.875-68.9206 17.875-72.4C17.875-75.8794 20.6956-78.7 24.175-78.7C27.6544-78.7 30.475-75.8794 30.475-72.4ZM35.475-45.5L12.875-45.5C11.775-45.5 10.175-46.4 10.175-48.2C10.175-54.1 15.075-58.1 20.075-58.1L28.275-58.1C33.775-58.1 38.175-53.6 38.175-48.2C38.175-47.1 37.375-45.5 35.475-45.5Z"/>
  </g>
 </g>
</svg>
