<svg width="45" height="33" viewBox="0 0 45 33" fill="none" xmlns="http://www.w3.org/2000/svg">
<path d="M44.3495 22.6935C43.5042 21.8963 40.3001 18.8768 36.5624 15.3423C36.5589 15.3389 36.5553 15.3354 36.5518 15.3319C35.9993 14.7018 35.4385 14.0624 34.8753 13.4207C34.8706 13.4149 34.8659 13.4092 34.8612 13.4023C33.1942 10.8113 31.5579 8.25957 30.2404 6.1882C30.1872 6.1041 30.1341 6.02116 30.0822 5.93936C30.081 5.93706 30.0798 5.93475 30.0786 5.93245C30.0302 5.85642 29.983 5.78153 29.9346 5.70665C29.9275 5.69513 29.9204 5.68361 29.9133 5.67209C29.8673 5.59951 29.8224 5.52808 29.7776 5.45781C29.774 5.4532 29.7705 5.44744 29.7681 5.44283C29.7244 5.37256 29.6796 5.30344 29.6371 5.23547C29.6288 5.22279 29.6217 5.21127 29.6135 5.1986C29.5733 5.13639 29.5344 5.07418 29.4954 5.01197C29.4872 4.99815 29.4789 4.98547 29.4694 4.97165C29.4305 4.90944 29.3915 4.84953 29.3537 4.78848C29.3455 4.77465 29.3372 4.76198 29.3278 4.74815C29.2888 4.68594 29.2499 4.62489 29.2121 4.56498C29.2062 4.55461 29.1991 4.5454 29.1932 4.53503C29.1625 4.48549 29.1318 4.4371 29.1011 4.38872C29.0751 4.34609 29.048 4.30462 29.022 4.26315C28.9925 4.21591 28.963 4.16868 28.9335 4.12375C28.9264 4.11338 28.9205 4.10301 28.9134 4.09264C28.878 4.03619 28.8437 3.9809 28.8083 3.92675C28.7965 3.90832 28.7847 3.88988 28.7741 3.87145C28.7493 3.83228 28.7245 3.79311 28.7009 3.75394C28.6808 3.72169 28.6607 3.68943 28.6407 3.65833C28.6218 3.62837 28.6029 3.59727 28.584 3.56731C28.5687 3.54312 28.5533 3.51778 28.538 3.49358C28.5167 3.45902 28.4955 3.42446 28.4742 3.39105C28.4577 3.36456 28.4412 3.33806 28.4246 3.31271C28.4081 3.28622 28.3916 3.25857 28.375 3.23322C28.3573 3.20442 28.3384 3.17447 28.3207 3.14682C28.3054 3.12263 28.29 3.09843 28.2759 3.07424C28.257 3.04429 28.2381 3.01318 28.2204 2.98438C28.2086 2.9648 28.1968 2.94637 28.185 2.92793C28.1661 2.89798 28.1472 2.86803 28.1295 2.83807C28.1153 2.81503 28.1023 2.79314 28.0882 2.77126C28.0728 2.74706 28.0575 2.72287 28.0433 2.69868C28.0291 2.67564 28.015 2.6526 28.0008 2.62955C27.9866 2.60651 27.9725 2.58347 27.9583 2.56043C27.9477 2.542 27.937 2.52472 27.9264 2.50744C27.9111 2.48094 27.8945 2.4556 27.8792 2.43025C27.8768 2.42564 27.8745 2.42219 27.8709 2.41758C27.8072 2.3139 27.7493 2.21828 27.6974 2.13072C27.6915 2.12151 27.6856 2.11114 27.6797 2.10077C27.6679 2.08118 27.6572 2.06275 27.6454 2.04317C27.6372 2.02934 27.6289 2.01437 27.6206 2.00169C27.6112 1.98556 27.6018 1.96944 27.5923 1.95446C27.584 1.94063 27.5758 1.92681 27.5687 1.91414C27.5593 1.89801 27.551 1.88418 27.5427 1.86921C27.5356 1.85769 27.5286 1.84617 27.5227 1.83465C27.5144 1.82082 27.5073 1.80815 27.5002 1.79548C27.4931 1.78396 27.4872 1.77244 27.4813 1.76207C27.4743 1.75055 27.4684 1.73903 27.4613 1.72751C27.4554 1.71714 27.4506 1.70792 27.4459 1.69871C27.44 1.68834 27.4341 1.67797 27.4294 1.66875C27.4247 1.65954 27.4199 1.65147 27.4164 1.64456C27.4117 1.6365 27.407 1.62728 27.4034 1.62037C27.3999 1.6123 27.3963 1.60539 27.3928 1.59848C27.3893 1.59157 27.3857 1.58465 27.3833 1.57889C27.3798 1.57198 27.3774 1.56737 27.3751 1.56161C27.3727 1.55701 27.3704 1.55125 27.368 1.54779C27.3656 1.54203 27.3645 1.53857 27.3633 1.53397C27.3633 1.53166 27.3609 1.5282 27.3597 1.5259C27.3586 1.52129 27.3574 1.51784 27.3574 1.51438C27.3574 1.51438 27.3574 1.51438 27.3574 1.51323L24.9761 1.92105C24.9195 1.93027 24.8616 1.90953 24.8262 1.8669C24.3976 1.36001 24.1084 1.00863 23.9903 0.849654C23.9502 0.795508 23.8817 0.772467 23.8168 0.792052L21.9184 1.34733C21.9066 1.33466 21.8948 1.32199 21.8854 1.31162C21.8405 1.26208 21.7697 1.24596 21.7071 1.27015L20.2975 1.82082C20.2975 1.82082 20.288 1.82428 20.2845 1.82543L12.8775 3.99011C12.8716 3.99242 12.8657 3.99357 12.8598 3.99472L1.59347 5.91632C1.48368 5.93475 1.42701 6.05572 1.48486 6.14903L1.98897 6.96583C2.0421 7.05223 1.99841 7.16513 1.89806 7.19393L0.11302 7.71581C0.00440644 7.74806 -0.0357334 7.87709 0.0362822 7.96234L1.02561 9.12936C1.09409 9.21 1.06221 9.33327 0.961861 9.37129L0.399902 9.59133C0.29483 9.6328 0.266496 9.76528 0.346776 9.84478L7.83759 17.166C7.83759 17.166 7.84467 17.1729 7.84703 17.1764L9.48214 19.1049C9.48686 19.1106 9.49159 19.1175 9.49631 19.1233L16.8986 31.1126C16.9328 31.1679 16.9977 31.1967 17.0627 31.1851C17.3378 31.1345 18.1287 30.9893 19.2727 30.7796C19.3294 30.7693 19.3884 30.79 19.425 30.8326L20.3152 31.8833C20.3565 31.9317 20.4226 31.9513 20.484 31.9328C20.7189 31.8602 21.3506 31.6667 22.2643 31.3868C22.321 31.3695 22.3836 31.3845 22.4249 31.4248C22.4709 31.4697 22.5382 31.4824 22.5973 31.4582C22.8228 31.366 23.4284 31.1195 24.3008 30.7647C24.3056 30.7624 24.3103 30.7612 24.315 30.76C26.3161 30.1495 28.878 29.3718 31.5107 28.5815C31.5166 28.5792 31.5225 28.5781 31.5296 28.5769C32.6405 28.3811 33.7384 28.1898 34.7939 28.0078C34.9001 27.9894 35.0064 27.971 35.1115 27.9537C35.1516 27.9468 35.1917 27.9399 35.2331 27.9329C35.3381 27.9145 35.442 27.8972 35.5447 27.8799C35.5825 27.873 35.6203 27.8673 35.6581 27.8604C35.7608 27.8431 35.8635 27.8258 35.965 27.8074C36.0016 27.8016 36.037 27.7947 36.0736 27.7889C36.1893 27.7694 36.305 27.7498 36.4207 27.7302C36.4384 27.7267 36.455 27.7244 36.4727 27.721C36.5777 27.7025 36.6828 27.6853 36.7879 27.668C36.8209 27.6622 36.8528 27.6565 36.8847 27.6518C37.0039 27.6311 37.1232 27.6115 37.2412 27.5919C37.2424 27.5919 37.2436 27.5919 37.2448 27.5919C37.3581 27.5724 37.4703 27.5539 37.5824 27.5355C37.6155 27.5297 37.6485 27.524 37.6816 27.5194C37.7867 27.5021 37.8894 27.4848 37.9921 27.4675C38.0145 27.4641 38.0358 27.4606 38.0582 27.456C38.1538 27.4399 38.2471 27.4249 38.3404 27.4088C38.3734 27.403 38.4065 27.3984 38.4383 27.3926C38.5328 27.3765 38.6261 27.3615 38.7181 27.3466C38.7477 27.3419 38.7772 27.3373 38.8067 27.3316C38.8929 27.3178 38.9791 27.3028 39.0641 27.289C39.0947 27.2843 39.1254 27.2786 39.1561 27.274C39.2518 27.259 39.345 27.2429 39.4383 27.2279C39.4548 27.2256 39.4725 27.2221 39.4891 27.2198C39.5764 27.206 39.6638 27.1922 39.7488 27.1784C39.7771 27.1737 39.8066 27.1691 39.835 27.1645C39.9247 27.1507 40.0132 27.1357 40.0994 27.1219C40.1148 27.1196 40.1289 27.1173 40.1431 27.115C40.2246 27.1023 40.3037 27.0896 40.3828 27.077C40.4111 27.0724 40.4383 27.0678 40.4666 27.0643C40.554 27.0505 40.6401 27.0367 40.724 27.024C40.7287 27.024 40.7334 27.0228 40.7381 27.0217C40.8196 27.009 40.8999 26.9963 40.979 26.9848C41.0014 26.9814 41.0238 26.9779 41.0463 26.9744C41.1254 26.9618 41.2045 26.9503 41.28 26.9387C41.2871 26.9387 41.2942 26.9364 41.3001 26.9353C41.3721 26.9249 41.4417 26.9145 41.5114 26.9042C41.5327 26.9007 41.5551 26.8973 41.5763 26.895C41.6495 26.8846 41.7215 26.8742 41.79 26.8638C41.7936 26.8638 41.7959 26.8639 41.7983 26.8627C41.8656 26.8535 41.9317 26.8443 41.9954 26.835C42.012 26.8327 42.0297 26.8304 42.0462 26.8281C42.1111 26.8189 42.1761 26.8097 42.2375 26.8016C42.2398 26.8016 42.241 26.8016 42.2434 26.8016C42.3024 26.7936 42.3602 26.7855 42.4157 26.7786C42.4311 26.7763 42.4452 26.7751 42.4594 26.7728C42.5137 26.7659 42.5668 26.759 42.6164 26.7533C42.6212 26.7533 42.6247 26.7533 42.6294 26.7521C42.6778 26.7463 42.7239 26.7406 42.7687 26.736C42.7817 26.7348 42.7947 26.7325 42.8065 26.7314C42.8514 26.7268 42.8951 26.721 42.9352 26.7175C42.9375 26.7175 42.9399 26.7175 42.9423 26.7175C42.9824 26.7129 43.0202 26.7095 43.0556 26.706C43.0651 26.706 43.0745 26.7049 43.0839 26.7037C43.1194 26.7003 43.1536 26.698 43.1855 26.6957C43.2162 26.6933 43.2433 26.6922 43.2693 26.691C43.2764 26.691 43.2823 26.691 43.2882 26.691C43.313 26.691 43.3366 26.6899 43.3567 26.6899C43.3767 26.6899 43.3921 26.6899 43.4074 26.6922C43.411 26.6922 43.4145 26.6922 43.418 26.6922C43.431 26.6933 43.4428 26.6957 43.4511 26.698C43.4511 26.698 43.176 26.274 42.6979 25.5355C42.6412 25.448 42.6873 25.3305 42.79 25.3028C43.6317 25.077 44.2657 24.9192 44.6152 24.8547C44.7356 24.8328 44.7863 24.6934 44.7072 24.6024C44.4983 24.3662 44.1299 23.948 43.6365 23.387C43.5633 23.304 43.5987 23.175 43.7049 23.1393C43.9446 23.0587 44.1394 22.9965 44.2858 22.9561C44.4027 22.9239 44.4393 22.7787 44.3519 22.6958L44.3495 22.6935Z" fill="#101619"/>
<path d="M3.77344 8.05239L21.2389 32.2142C21.2389 32.2142 44.273 24.6678 45 24.8259C45 24.8259 27.0715 1.09892 27.0784 0.785156L3.77344 8.05239Z" fill="#D5DADD"/>
<path d="M3.90002 9.95739L23.2803 31.728C23.2803 31.728 44.1321 22.7973 44.8383 22.8942C44.8383 22.8942 25.0736 1.57353 25.0424 1.27246L3.90002 9.95739Z" fill="#2A4259"/>
<path d="M5.32031 6.20126L18.0564 31.4774C18.0564 31.4774 42.7773 26.493 43.4778 26.7214C43.4778 26.7214 30.1882 1.82016 30.2577 1.51562L5.32031 6.20126Z" fill="#D5DADD"/>
<path d="M28.8562 2.59302C29.3436 2.94369 29.8032 3.33128 30.2466 3.73502C30.734 4.17912 31.1994 4.6463 31.6521 5.12502C31.982 5.47569 32.3016 5.83444 32.6165 6.1978C31.2029 3.48701 30.2408 1.59868 30.2605 1.51562L27.864 1.9655C28.2102 2.14891 28.5401 2.36347 28.8573 2.59187L28.8562 2.59302Z" fill="#2A4259"/>
<path d="M39.6158 19.4629C39.3981 20.4284 39.1527 21.3881 38.8389 22.3271C38.4198 23.5798 37.8757 24.8037 37.1105 25.8869C36.5351 26.7001 35.874 27.4545 35.1354 28.1247C39.5799 27.2827 43.2163 26.6367 43.4791 26.7221C43.4791 26.7221 41.7877 23.5533 39.6158 19.464V19.4629Z" fill="#2A4259"/>
<path d="M21.3783 4.96228C21.3783 4.96228 21.3729 4.95872 21.3701 4.95694C21.1387 5.20978 20.9227 5.4853 20.7249 5.76287L20.724 5.76424C19.9824 6.80157 19.4997 7.85974 19.4997 7.85974C26.8016 13.0537 38.5442 20.8442 40.7204 22.2856C40.9408 22.4313 41.2197 22.4573 41.4639 22.3539L43.3421 19.3928L43.2588 18.9789C43.2212 18.9526 43.1837 18.9263 43.1462 18.9C43.1031 18.8702 43.0601 18.8404 43.0171 18.8106C43.0142 18.8135 43.0112 18.8165 43.0081 18.8183L42.4034 18.4625C42.4034 18.4625 21.6502 4.67142 21.5095 4.81668C21.4824 4.84481 21.4366 4.89691 21.3797 4.96317L21.3783 4.96228Z" fill="#0899A7"/>
<path d="M29.4008 12.1028C29.4001 12.0888 29.3973 12.0752 29.3955 12.0614C29.3849 12.0059 29.3677 11.9471 29.3568 11.9128C29.3318 11.8285 29.2959 11.7488 29.2492 11.6737C29.0394 11.3383 28.6649 11.1297 28.3105 10.9769C27.6405 10.6868 26.9186 10.5585 26.2145 10.3805C25.3339 10.1572 24.4862 9.74895 23.7242 9.26007C22.4278 8.4277 21.3425 7.28073 20.6024 5.93709C19.929 6.91641 19.4988 7.85973 19.4988 7.85973C26.8006 13.0537 38.5432 20.8442 40.7195 22.2856C40.9398 22.4313 41.2187 22.4573 41.463 22.3539L41.5691 22.1852C41.397 21.882 41.167 21.6074 40.9338 21.3513C40.0629 20.3996 39.0125 19.6061 37.9739 18.8454C36.7138 17.9228 35.4144 17.0545 34.1137 16.1912C32.7513 15.2879 31.3765 14.3989 30.0612 13.4279C29.8141 13.2454 29.5755 13.0528 29.3417 12.8546C29.1034 12.6525 28.856 12.4347 28.6886 12.1706C28.6853 12.1665 28.69 12.1608 28.695 12.1621C28.8205 12.1899 28.9547 12.1698 29.0816 12.1713C29.1468 12.1717 29.2127 12.1755 29.2777 12.1865C29.295 12.19 29.324 12.198 29.341 12.2003C29.3872 12.2059 29.3764 12.2164 29.3935 12.1798C29.3999 12.1655 29.402 12.1473 29.4022 12.1261C29.4014 12.1227 29.4016 12.1179 29.402 12.1143C29.4011 12.1098 29.4001 12.1053 29.4003 12.1005L29.4008 12.1028Z" fill="#046C7C"/>
<path d="M21.3707 4.95725L21.6481 4.66996L43.2578 18.9772L43.3411 19.3911L43.0886 19.7899L21.3707 4.95725Z" fill="#046C7C"/>
<path d="M21.5447 5.86514C21.5681 5.86962 21.5936 5.8501 21.6093 5.81848L21.614 5.80689C21.7007 5.54686 21.8218 5.29844 21.9592 5.05955C21.9144 5.03246 21.871 5.00626 21.8319 4.98385C21.7041 5.24547 21.5925 5.51664 21.5196 5.79732C21.51 5.83001 21.5213 5.86065 21.5447 5.86514Z" fill="#D5DADD"/>
<path d="M23.2584 6.64185C23.2841 6.64586 23.3131 6.62087 23.3265 6.58384C23.3865 6.40375 23.4644 6.23048 23.5512 6.06004C23.513 6.03626 23.476 6.01225 23.4389 5.98823C23.3564 6.17898 23.2844 6.37459 23.2322 6.57428C23.2239 6.60785 23.2338 6.6376 23.2586 6.64298L23.2584 6.64185Z" fill="#D5DADD"/>
<path d="M22.21 5.68677C22.2357 5.69078 22.2647 5.66579 22.2782 5.62876C22.3122 5.52725 22.3538 5.42768 22.3969 5.33014C22.3629 5.30903 22.3302 5.28882 22.2975 5.2686C22.2547 5.38492 22.2143 5.50076 22.1841 5.62033C22.1758 5.6539 22.1857 5.68365 22.2105 5.68903L22.21 5.68677Z" fill="#D5DADD"/>
<path d="M22.5807 5.85585C22.6064 5.85986 22.6367 5.83576 22.6499 5.79761L22.6497 5.79648C22.678 5.71267 22.7114 5.63017 22.7459 5.54743C22.7132 5.52721 22.6816 5.50675 22.65 5.4863C22.6144 5.58579 22.5824 5.6857 22.5554 5.78691C22.5471 5.82049 22.557 5.85024 22.5804 5.85472L22.5807 5.85585Z" fill="#D5DADD"/>
<path d="M22.9526 6.02641C22.9784 6.03042 23.0087 6.00632 23.0208 5.9684C23.0446 5.90207 23.0697 5.83663 23.0948 5.77119C23.0635 5.75186 23.0331 5.73116 23.002 5.71296C22.9743 5.79427 22.9482 5.8776 22.9267 5.95997C22.9171 5.99265 22.9283 6.02329 22.9518 6.02778L22.9526 6.02641Z" fill="#D5DADD"/>
<path d="M24.9012 7.66932C24.9269 7.67332 24.9582 7.64786 24.9694 7.61131C25.0267 7.4412 25.0991 7.275 25.1808 7.1139C25.1437 7.08988 25.108 7.06676 25.071 7.04274C24.9927 7.22553 24.9246 7.41204 24.8762 7.6015C24.867 7.63645 24.878 7.66596 24.9017 7.67157L24.9012 7.66932Z" fill="#D5DADD"/>
<path d="M23.8529 6.714C23.8786 6.71801 23.9099 6.69254 23.9211 6.65599C23.9538 6.55947 23.9918 6.46537 24.0323 6.37193C23.9993 6.35058 23.9678 6.33013 23.9351 6.30991C23.8936 6.42123 23.857 6.53273 23.8267 6.64642C23.8176 6.68137 23.8286 6.71088 23.8523 6.7165L23.8529 6.714Z" fill="#D5DADD"/>
<path d="M24.2246 6.88318C24.2503 6.88719 24.2816 6.86172 24.2927 6.82517C24.32 6.74749 24.35 6.67159 24.3814 6.59657C24.3498 6.57611 24.3171 6.5559 24.2867 6.5352C24.2542 6.62697 24.2243 6.72052 24.1995 6.81537C24.1904 6.85031 24.2014 6.87982 24.2251 6.88544L24.2246 6.88318Z" fill="#D5DADD"/>
<path d="M24.5973 7.05319C24.623 7.05719 24.6529 7.03083 24.6654 6.99517C24.6859 6.93544 24.7082 6.87886 24.7302 6.82114C24.7 6.80157 24.6698 6.78201 24.6396 6.76244C24.615 6.83602 24.5916 6.90936 24.572 6.98424C24.5629 7.01919 24.5739 7.0487 24.5975 7.05431L24.5973 7.05319Z" fill="#D5DADD"/>
<path d="M26.4936 8.68078C26.483 8.71483 26.4932 8.74571 26.5157 8.75157C26.5408 8.75807 26.5723 8.73373 26.5857 8.6967C26.6414 8.54698 26.7079 8.40324 26.7797 8.26193C26.7941 8.2353 26.8097 8.20843 26.8242 8.1818C26.7871 8.15778 26.7512 8.13353 26.7141 8.10951C26.7019 8.13567 26.6895 8.1607 26.6784 8.18661C26.606 8.34693 26.5441 8.51211 26.4947 8.68054L26.4936 8.68078Z" fill="#D5DADD"/>
<path d="M25.4942 7.64796C25.4848 7.68178 25.4938 7.7129 25.5166 7.71988C25.5425 7.72502 25.572 7.70228 25.5865 7.66502C25.613 7.59458 25.6417 7.52367 25.6723 7.45591C25.6745 7.44955 25.678 7.44407 25.6802 7.43771C25.6487 7.41726 25.6171 7.3968 25.5867 7.37611C25.5853 7.3811 25.5827 7.3852 25.5814 7.39019C25.5485 7.47495 25.5198 7.56238 25.4942 7.64796Z" fill="#D5DADD"/>
<path d="M25.8552 7.84335C25.8456 7.87604 25.8557 7.90692 25.8783 7.91277C25.9019 7.91839 25.9296 7.89839 25.9443 7.867L25.9482 7.85791C25.9676 7.8043 25.9895 7.75134 26.0107 7.70087C26.0162 7.68791 26.0229 7.67471 26.0284 7.66176C25.9982 7.64219 25.9678 7.62149 25.9376 7.60193C25.933 7.61352 25.9283 7.62511 25.9237 7.6367C25.899 7.7044 25.8758 7.77298 25.855 7.84222L25.8552 7.84335Z" fill="#D5DADD"/>
<path d="M26.2151 8.03772C26.2058 8.07154 26.2147 8.10265 26.2375 8.10964C26.2623 8.11501 26.2938 8.09067 26.3075 8.05477C26.3212 8.01887 26.3349 7.98297 26.3499 7.94796C26.3576 7.92864 26.3676 7.90885 26.3753 7.88953C26.3451 7.86996 26.3149 7.85039 26.2848 7.83083C26.2782 7.84991 26.2702 7.86809 26.2636 7.88717C26.2458 7.93692 26.2293 7.98756 26.2142 8.03908L26.2151 8.03772Z" fill="#D5DADD"/>
<path d="M28.0744 9.82159C28.0648 9.85428 28.0749 9.88515 28.0977 9.89214C28.1216 9.89888 28.1531 9.87454 28.1668 9.83864L28.1666 9.83751C28.2196 9.69189 28.2843 9.55089 28.3545 9.41345C28.3838 9.35656 28.4154 9.29918 28.4475 9.24407C28.4091 9.21917 28.3718 9.19402 28.3333 9.16912C28.3063 9.22553 28.2792 9.28195 28.2535 9.33925C28.1829 9.49684 28.1225 9.65815 28.0733 9.82183L28.0744 9.82159Z" fill="#D5DADD"/>
<path d="M27.0765 8.79041C27.0669 8.8231 27.0758 8.85422 27.0995 8.85983C27.1246 8.86634 27.155 8.84224 27.1686 8.80634C27.1944 8.7384 27.2204 8.67159 27.2504 8.60632C27.2672 8.56858 27.2856 8.53285 27.3027 8.49623C27.2698 8.47488 27.2368 8.45354 27.205 8.43195C27.1902 8.46809 27.1743 8.50447 27.1606 8.54037C27.1298 8.62352 27.1014 8.70733 27.0767 8.79154L27.0765 8.79041Z" fill="#D5DADD"/>
<path d="M27.4363 8.9839C27.4269 9.01772 27.4359 9.04884 27.4587 9.05582C27.4835 9.06119 27.5141 9.03822 27.5287 9.00095L27.5284 8.99982C27.5474 8.94984 27.5655 8.90122 27.5869 8.85188C27.606 8.80777 27.6275 8.76432 27.6476 8.71997C27.6161 8.69952 27.5843 8.67793 27.5516 8.65772C27.5348 8.70134 27.5167 8.74408 27.5002 8.78884C27.4761 8.85404 27.4544 8.91876 27.4352 8.98414L27.4363 8.9839Z" fill="#D5DADD"/>
<path d="M27.7971 9.17806C27.7877 9.21187 27.7967 9.24299 27.8195 9.24997C27.8432 9.25559 27.8706 9.23446 27.8853 9.20308L27.8884 9.19535C27.9002 9.16218 27.9124 9.13015 27.9259 9.099C27.9468 9.0474 27.9706 8.99759 27.9929 8.94688C27.9614 8.92643 27.9295 8.90484 27.898 8.88439C27.8781 8.93574 27.858 8.98597 27.8407 9.03797C27.8244 9.08386 27.8097 9.13176 27.796 9.1783L27.7971 9.17806Z" fill="#D5DADD"/>
<path d="M29.6556 10.962C29.6462 10.9958 29.6552 11.0269 29.678 11.0339C29.703 11.0404 29.7334 11.0163 29.7479 10.979C29.7999 10.8395 29.8611 10.704 29.9277 10.572C29.9728 10.4835 30.022 10.3977 30.0723 10.3116C30.0325 10.2858 29.9925 10.2589 29.9527 10.2331C29.9085 10.3202 29.8659 10.4094 29.8258 10.4992C29.7585 10.6502 29.7015 10.8049 29.6547 10.9633L29.6556 10.962Z" fill="#D5DADD"/>
<path d="M28.6584 9.92975C28.649 9.96357 28.658 9.99468 28.6808 10.0017C28.7047 10.0084 28.7362 9.98407 28.7496 9.94704C28.7741 9.8841 28.7977 9.82252 28.8249 9.76135C28.8553 9.69246 28.8881 9.62421 28.9223 9.55686C28.888 9.53462 28.8548 9.51215 28.8205 9.48991C28.791 9.55744 28.763 9.62586 28.7365 9.69629C28.7068 9.77332 28.6811 9.85302 28.6575 9.93112L28.6584 9.92975Z" fill="#D5DADD"/>
<path d="M29.0173 10.1253C29.0077 10.158 29.0178 10.1889 29.0406 10.1958C29.0656 10.2024 29.096 10.1783 29.1097 10.1424C29.1273 10.0974 29.1441 10.0537 29.1631 10.0096C29.1952 9.93211 29.2302 9.85751 29.2663 9.78267C29.2332 9.76019 29.1988 9.73796 29.1659 9.71661C29.1336 9.79299 29.1036 9.8689 29.0763 9.94658C29.0548 10.0066 29.0355 10.066 29.0178 10.1276L29.0173 10.1253Z" fill="#D5DADD"/>
<path d="M29.3778 10.3189C29.3673 10.353 29.3774 10.3838 29.4 10.3897C29.4259 10.3948 29.4554 10.3721 29.4699 10.3348C29.4808 10.3078 29.4907 10.2821 29.5017 10.2562C29.5346 10.1714 29.5727 10.0891 29.612 10.0065C29.579 9.98519 29.5459 9.96272 29.5129 9.94137C29.4787 10.0252 29.4469 10.1098 29.4191 10.1958C29.4041 10.2367 29.3914 10.2771 29.3792 10.3198L29.3778 10.3189Z" fill="#D5DADD"/>
<path d="M31.2371 12.1037C31.2278 12.1376 31.237 12.1698 31.2604 12.1743C31.2855 12.1808 31.3158 12.1567 31.3295 12.1208C31.3793 11.9877 31.436 11.859 31.4993 11.7336C31.5599 11.6123 31.6273 11.4955 31.6975 11.3804C31.6564 11.3538 31.615 11.3259 31.5738 11.2993C31.5113 11.4174 31.4518 11.5384 31.3988 11.6616C31.3359 11.8058 31.2811 11.9541 31.2374 12.1049L31.2371 12.1037Z" fill="#D5DADD"/>
<path d="M30.2399 11.0715C30.2303 11.1042 30.2393 11.1353 30.2632 11.1421C30.2883 11.1486 30.3187 11.1245 30.3323 11.0886C30.3535 11.0322 30.376 10.9768 30.3999 10.9222C30.4432 10.8199 30.4932 10.7209 30.5445 10.6228C30.5089 10.5997 30.4729 10.5754 30.4372 10.5523C30.3923 10.6526 30.3487 10.7538 30.3115 10.8571C30.2853 10.9287 30.2605 11.0011 30.239 11.0729L30.2399 11.0715Z" fill="#D5DADD"/>
<path d="M30.5993 11.2652C30.5899 11.299 30.5991 11.3312 30.6217 11.3371C30.6476 11.3422 30.6771 11.3195 30.6916 11.2822C30.7062 11.2449 30.7205 11.2065 30.7365 11.1702C30.7815 11.0592 30.8334 10.9528 30.8879 10.847C30.8522 10.8238 30.8176 10.8005 30.7819 10.7773C30.7339 10.8853 30.6884 10.994 30.6506 11.1057C30.6321 11.158 30.6139 11.2114 30.5981 11.2654L30.5993 11.2652Z" fill="#D5DADD"/>
<path d="M30.9592 11.4604C30.9496 11.4931 30.9597 11.524 30.9825 11.531C31.0051 11.5368 31.0328 11.5168 31.0471 11.4843L31.0511 11.4752C31.0577 11.4561 31.0654 11.4368 31.0734 11.4186C31.1193 11.3005 31.1741 11.1851 31.2318 11.0727C31.1975 11.0505 31.163 11.0271 31.1286 11.0049C31.0786 11.1204 31.0314 11.2376 30.9919 11.358C30.98 11.3912 30.9686 11.4266 30.9592 11.4604Z" fill="#D5DADD"/>
<path d="M32.8198 13.2433C32.8093 13.2773 32.8194 13.3082 32.8422 13.3152C32.8647 13.321 32.8924 13.301 32.9068 13.2685L32.9108 13.2594C32.9566 13.1354 33.009 13.0146 33.0681 12.8972C33.1442 12.7432 33.2311 12.5952 33.3232 12.4496C33.2804 12.4209 33.2365 12.3924 33.1939 12.3648C33.1135 12.5151 33.0371 12.668 32.971 12.8246C32.9126 12.9619 32.8606 13.1014 32.8198 13.2433Z" fill="#D5DADD"/>
<path d="M31.8218 12.211C31.8124 12.2448 31.8214 12.2759 31.8442 12.2829C31.8693 12.2894 31.8996 12.2653 31.9142 12.2281C31.9325 12.1806 31.952 12.1328 31.9714 12.0851C32.0289 11.9492 32.0957 11.8183 32.1676 11.6888C32.1305 11.6648 32.0932 11.6396 32.0562 11.6156C31.9932 11.748 31.9341 11.8819 31.8855 12.0207C31.8633 12.0832 31.8415 12.1479 31.8223 12.2133L31.8218 12.211Z" fill="#D5DADD"/>
<path d="M32.1817 12.4065C32.1721 12.4392 32.1811 12.4703 32.205 12.477C32.2289 12.4838 32.2604 12.4594 32.273 12.4238C32.2844 12.3942 32.2959 12.3647 32.3076 12.3363C32.3657 12.1919 32.4354 12.0522 32.5095 11.9163C32.4724 11.8923 32.4365 11.8681 32.3994 11.8441C32.3336 11.9853 32.2728 12.1278 32.2236 12.275C32.208 12.3184 32.1939 12.3638 32.1811 12.409L32.1817 12.4065Z" fill="#D5DADD"/>
<path d="M32.5412 12.6011C32.5318 12.6349 32.5408 12.666 32.5635 12.673C32.5895 12.6781 32.619 12.6554 32.6335 12.6181L32.6468 12.5859C32.7041 12.4323 32.7757 12.2851 32.8529 12.1415C32.817 12.1172 32.7813 12.0941 32.7454 12.0698C32.6776 12.2186 32.6153 12.3708 32.5655 12.5264C32.5576 12.5505 32.5491 12.577 32.5414 12.6022L32.5412 12.6011Z" fill="#D5DADD"/>
<path d="M34.4011 14.385C34.3917 14.4188 34.4007 14.4499 34.4244 14.4555C34.4483 14.4623 34.4798 14.4379 34.4935 14.402C34.5367 14.288 34.584 14.1766 34.6377 14.0674C34.7291 13.8795 34.8362 13.6989 34.9494 13.524C34.9052 13.4945 34.8599 13.4651 34.8158 13.4355C34.7156 13.6158 34.6215 13.802 34.5406 13.9947C34.4885 14.1225 34.4404 14.2529 34.4013 14.3861L34.4011 14.385Z" fill="#D5DADD"/>
<path d="M33.4025 13.353C33.3929 13.3857 33.403 13.4166 33.4256 13.4224C33.4506 13.4289 33.4822 13.4046 33.4947 13.3689C33.5099 13.3292 33.5254 13.2905 33.5408 13.2519C33.6111 13.0814 33.6957 12.9173 33.7872 12.7577C33.7485 12.7317 33.7101 12.7068 33.6714 12.6807C33.5904 12.8452 33.5163 13.0142 33.4574 13.1881C33.4372 13.2431 33.4203 13.2974 33.4037 13.3528L33.4025 13.353Z" fill="#D5DADD"/>
<path d="M33.7636 13.5469C33.7542 13.5808 33.7632 13.6119 33.786 13.6189C33.8099 13.6256 33.8414 13.6013 33.856 13.564C33.8646 13.5433 33.8712 13.5242 33.8801 13.5047C33.9495 13.3249 34.0348 13.1525 34.1305 12.9849C34.0921 12.96 34.0548 12.9348 34.0163 12.9099C33.9325 13.0833 33.8566 13.2608 33.7972 13.4432C33.7855 13.4775 33.7741 13.5129 33.7638 13.5481L33.7636 13.5469Z" fill="#D5DADD"/>
<path d="M34.1225 13.7424C34.1129 13.7751 34.1219 13.8062 34.1458 13.813C34.1708 13.8195 34.2012 13.7954 34.2149 13.7595L34.2173 13.7542C34.2871 13.565 34.3741 13.3839 34.4718 13.2088C34.4345 13.1837 34.3974 13.1597 34.3601 13.1345C34.2734 13.3167 34.1972 13.5038 34.1385 13.6954C34.1335 13.7106 34.1287 13.727 34.1236 13.7422L34.1225 13.7424Z" fill="#D5DADD"/>
<path d="M35.983 15.5247C35.9736 15.5586 35.9826 15.5897 36.0054 15.5967C36.0291 15.6023 36.0565 15.5811 36.0712 15.5498L36.0743 15.542C36.1126 15.4384 36.1559 15.3361 36.2034 15.2365C36.3087 15.0138 36.4364 14.8017 36.5728 14.5973C36.5273 14.5668 36.4806 14.5365 36.4339 14.5063C36.3133 14.7181 36.2013 14.9374 36.109 15.1656C36.0609 15.2843 36.0186 15.4028 35.983 15.5247Z" fill="#D5DADD"/>
<path d="M34.9845 14.4922C34.9752 14.5261 34.9842 14.5572 35.0069 14.5642C35.0309 14.5709 35.0624 14.5466 35.0769 14.5093L35.0767 14.5082C35.087 14.4789 35.0985 14.4493 35.1102 14.4209C35.1921 14.2161 35.2959 14.0197 35.4093 13.8295C35.3693 13.8026 35.3295 13.7768 35.2883 13.7501C35.1881 13.947 35.0976 14.15 35.0262 14.3597C35.0105 14.403 34.9968 14.4496 34.9837 14.4936L34.9845 14.4922Z" fill="#D5DADD"/>
<path d="M35.3447 14.6878C35.3351 14.7205 35.3452 14.7514 35.368 14.7583C35.393 14.7649 35.4234 14.7408 35.4371 14.7049L35.4494 14.6739C35.5303 14.4588 35.6358 14.2537 35.7521 14.0547C35.7123 14.0289 35.6736 14.0029 35.6336 13.9759C35.5306 14.1816 35.4374 14.3947 35.3679 14.6133C35.36 14.6374 35.3523 14.6626 35.3447 14.6878Z" fill="#D5DADD"/>
<path d="M35.7045 14.8834C35.694 14.9174 35.7041 14.9483 35.7266 14.9542C35.7464 14.9582 35.7674 14.9455 35.7828 14.9234L35.7955 14.8995C35.8752 14.6846 35.9785 14.48 36.0927 14.2826C36.054 14.2566 36.0142 14.2308 35.9744 14.205C35.8686 14.4195 35.7759 14.6407 35.7077 14.8709L35.7036 14.8847L35.7045 14.8834Z" fill="#D5DADD"/>
<path d="M37.5645 16.6677C37.554 16.7017 37.5641 16.7326 37.5866 16.7384C37.6126 16.7436 37.6429 16.7195 37.6566 16.6836C37.6923 16.59 37.7297 16.4984 37.7714 16.4106C37.8915 16.1517 38.0408 15.908 38.1985 15.6754C38.1516 15.6441 38.1033 15.6118 38.0553 15.5807C37.9141 15.8239 37.7812 16.0783 37.6777 16.3431C37.6353 16.4499 37.5968 16.5582 37.5647 16.6688L37.5645 16.6677Z" fill="#D5DADD"/>
<path d="M36.5656 15.634C36.556 15.6667 36.5652 15.6989 36.5889 15.7046C36.614 15.7111 36.6443 15.687 36.658 15.6511C36.6657 15.6317 36.6726 15.6138 36.6805 15.5956C36.7747 15.354 36.8975 15.1242 37.033 14.9045C36.9916 14.8767 36.9502 14.8489 36.9076 14.8213C36.7872 15.0507 36.6779 15.2884 36.5976 15.5341C36.5858 15.5673 36.5752 15.6013 36.5647 15.6354L36.5656 15.634Z" fill="#D5DADD"/>
<path d="M36.927 15.8281C36.9165 15.8622 36.9266 15.893 36.9492 15.8989C36.9742 15.9054 37.0048 15.8824 37.0183 15.8454L37.0178 15.8431C37.1112 15.5923 37.2359 15.3549 37.3745 15.1276C37.3331 15.0998 37.2919 15.0731 37.2494 15.0455C37.1258 15.2827 37.0176 15.5307 36.9395 15.7866C36.9342 15.8007 36.9312 15.8143 36.9259 15.8283L36.927 15.8281Z" fill="#D5DADD"/>
<path d="M37.2825 16.0437C37.2819 16.0686 37.2919 16.0877 37.3096 16.0934C37.3185 16.0962 37.3298 16.0939 37.3413 16.0867C37.3562 16.0788 37.3715 16.0615 37.3787 16.0399C37.4675 15.8007 37.5859 15.5729 37.7158 15.3544C37.6747 15.3277 37.6346 15.3008 37.5932 15.273C37.4704 15.5135 37.3618 15.7652 37.2866 16.024L37.2827 16.0448L37.2825 16.0437Z" fill="#D5DADD"/>
<path d="M39.1461 17.8068C39.1367 17.8407 39.1457 17.8718 39.1685 17.8788C39.191 17.8846 39.2187 17.8646 39.2331 17.8321L39.2371 17.823C39.267 17.7412 39.3 17.6623 39.3352 17.583C39.4681 17.2896 39.6413 17.0137 39.8218 16.7492C39.7735 16.7169 39.7241 16.6849 39.6745 16.6518C39.5127 16.9265 39.3596 17.2135 39.244 17.5161C39.2065 17.6125 39.1727 17.7092 39.1447 17.8059L39.1461 17.8068Z" fill="#D5DADD"/>
<path d="M38.1479 16.7738C38.1386 16.8076 38.1478 16.8398 38.1703 16.8457C38.194 16.8513 38.2215 16.8302 38.2361 16.7988L38.2392 16.7911L38.2487 16.769C38.3527 16.49 38.4957 16.2275 38.6543 15.9771C38.6115 15.9484 38.5676 15.9199 38.5248 15.8912C38.3838 16.1521 38.2573 16.4252 38.1685 16.7093C38.1602 16.7311 38.1529 16.7527 38.147 16.7751L38.1479 16.7738Z" fill="#D5DADD"/>
<path d="M38.5078 16.9689C38.4981 17.0016 38.5082 17.0325 38.531 17.0395C38.5474 17.0443 38.5666 17.0343 38.5807 17.0172C38.5884 17.0085 38.5944 16.9978 38.5988 16.9851C38.6998 16.7091 38.8399 16.4496 38.9942 16.2012C38.9528 16.1734 38.91 16.1447 38.8675 16.1171C38.7236 16.3869 38.5956 16.6698 38.5079 16.9642L38.5066 16.9692L38.5078 16.9689Z" fill="#D5DADD"/>
<path d="M38.8909 17.2351C38.9159 17.2416 38.9463 17.2175 38.9608 17.1802C39.0586 16.9167 39.1902 16.6672 39.3383 16.4284C39.2969 16.4006 39.2543 16.373 39.2115 16.3443C39.073 16.6059 38.9515 16.8803 38.8687 17.1643C38.8593 17.1981 38.8683 17.2292 38.8911 17.2362L38.8909 17.2351Z" fill="#D5DADD"/>
<path d="M40.7272 18.9479C40.7178 18.9817 40.7268 19.0128 40.7496 19.0198C40.7756 19.0249 40.8059 19.0008 40.8196 18.9649C40.8454 18.897 40.8723 18.8288 40.9022 18.7635C41.0452 18.4398 41.2341 18.1369 41.4336 17.8508C41.4392 17.8437 41.4436 17.8368 41.449 17.8286C41.3996 17.7966 41.3497 17.7623 41.2973 17.7274C41.1146 18.0313 40.9398 18.3559 40.8131 18.6951C40.7814 18.7796 40.753 18.8634 40.7286 18.9488L40.7272 18.9479Z" fill="#D5DADD"/>
<path d="M39.7288 17.9151C39.7183 17.9492 39.7284 17.98 39.7521 17.9856C39.7735 17.9917 39.7992 17.9733 39.8134 17.9456L39.8201 17.9324C39.935 17.6216 40.0979 17.3302 40.2769 17.053C40.2327 17.0234 40.1885 16.9938 40.1433 16.9645C39.9806 17.2571 39.8356 17.5659 39.7385 17.8883L39.7293 17.9174L39.7288 17.9151Z" fill="#D5DADD"/>
<path d="M40.0874 18.1485C40.0907 18.1643 40.0984 18.178 40.112 18.181L40.1297 18.1808C40.1501 18.1765 40.1703 18.1546 40.1809 18.1264C40.2912 17.8272 40.4456 17.5458 40.6172 17.2785C40.5744 17.2498 40.5302 17.2202 40.4849 17.1908C40.3246 17.4829 40.1825 17.7888 40.0876 18.1107C40.0837 18.1257 40.0829 18.1388 40.0853 18.1501L40.0874 18.1485Z" fill="#D5DADD"/>
<path d="M40.4713 18.3748C40.4964 18.3813 40.5268 18.3572 40.5404 18.3213C40.647 18.0323 40.7943 17.7619 40.9582 17.5032C40.9157 17.4757 40.8726 17.4458 40.8287 17.4174C40.6757 17.6996 40.5399 17.996 40.4494 18.3051C40.4398 18.3378 40.4502 18.3698 40.4727 18.3757L40.4713 18.3748Z" fill="#D5DADD"/>
<path d="M42.3792 19.8766C42.3528 19.947 42.3297 20.0167 42.3094 20.0882C42.3001 20.122 42.309 20.1531 42.3318 20.1601C42.3555 20.1657 42.383 20.1446 42.3976 20.1132L42.4007 20.1055C42.4209 20.0505 42.4426 19.9964 42.4656 19.9432C42.6091 19.6052 42.806 19.2901 43.0144 18.9902C43.0423 18.9489 43.0719 18.9097 43.1012 18.8693C43.0721 18.8495 43.0442 18.8295 43.0151 18.8097C43.0122 18.8126 43.0093 18.8156 43.0061 18.8175L42.9357 18.7757C42.9181 18.8042 42.9005 18.8327 42.8831 18.8623C42.6919 19.1821 42.5085 19.5215 42.3806 19.8775L42.3792 19.8766Z" fill="#D5DADD"/>
<path d="M41.3089 19.0689C41.3045 19.0982 41.3143 19.122 41.3343 19.1272C41.3466 19.1294 41.36 19.1254 41.3724 19.1169C41.3836 19.1086 41.3939 19.0958 41.4001 19.0803L41.4032 19.0726C41.5258 18.7366 41.7058 18.4251 41.902 18.129C41.8581 18.1005 41.8123 18.0689 41.7629 18.0369C41.5803 18.3584 41.4157 18.6974 41.3108 19.0556L41.3078 19.0692L41.3089 19.0689Z" fill="#D5DADD"/>
<path d="M41.6941 19.3208C41.7192 19.3273 41.7496 19.3032 41.7632 19.2673C41.8829 18.9449 42.054 18.6423 42.2415 18.3551C42.2028 18.3291 42.1573 18.2986 42.1049 18.2637C41.9297 18.5754 41.7727 18.9056 41.6711 19.2514C41.6615 19.284 41.6707 19.3163 41.6944 19.3219L41.6941 19.3208Z" fill="#D5DADD"/>
<path d="M42.054 19.5162C42.078 19.523 42.1095 19.4986 42.1229 19.4616C42.2394 19.1469 42.4052 18.8525 42.588 18.571L42.4499 18.4894C42.2813 18.7926 42.13 19.1111 42.0319 19.4454C42.0214 19.4795 42.0315 19.5104 42.0543 19.5173L42.054 19.5162Z" fill="#D5DADD"/>
<path d="M33.2626 14.7505C35.1979 14.7505 36.7667 13.1873 36.7667 11.259C36.7667 9.33076 35.1979 7.76758 33.2626 7.76758C31.3273 7.76758 29.7584 9.33076 29.7584 11.259C29.7584 13.1873 31.3273 14.7505 33.2626 14.7505Z" fill="#FA4F96"/>
<path d="M33.2636 9.35742H33.2623C33.0008 9.35742 32.7888 9.56865 32.7888 9.82921V12.6882C32.7888 12.9487 33.0008 13.16 33.2623 13.16H33.2636C33.5251 13.16 33.7371 12.9487 33.7371 12.6882V9.82921C33.7371 9.56865 33.5251 9.35742 33.2636 9.35742Z" fill="#D5DADD"/>
<path d="M31.4357 11.2047V11.3114C31.4357 11.5428 31.624 11.7305 31.8563 11.7305H34.6727C34.905 11.7305 35.0933 11.5428 35.0933 11.3114V11.2047C35.0933 10.9732 34.905 10.7856 34.6727 10.7856H31.8563C31.624 10.7856 31.4357 10.9732 31.4357 11.2047Z" fill="#D5DADD"/>
<path d="M17.4545 18.5704C17.3508 18.3676 17.4491 18.1711 17.6741 18.1315L19.9303 17.7352C20.1553 17.6956 20.4218 17.828 20.5255 18.0309L23.9888 24.8034C24.0926 25.0062 23.9942 25.2027 23.7692 25.2422L21.5131 25.6386C21.2881 25.6781 21.0216 25.5457 20.9178 25.3429L17.4545 18.5704Z" fill="#2A4259"/>
<path d="M20.0865 13.6827C19.9828 13.4799 20.0811 13.2834 20.3061 13.2439L22.5622 12.8475C22.7872 12.8079 23.0537 12.9403 23.1575 13.1432L28.7535 24.0862C28.8573 24.2891 28.7589 24.4856 28.5339 24.5251L26.2778 24.9215C26.0528 24.961 25.7863 24.8286 25.6826 24.6258L20.0865 13.6827Z" fill="#2A4259"/>
<path d="M28.7491 20.6583C28.7159 20.5935 28.8781 20.5078 29.1114 20.4668L31.4498 20.056C31.683 20.015 31.8989 20.0343 31.932 20.0991L33.7195 23.5946C33.7527 23.6594 33.5905 23.7452 33.3573 23.7861L31.0189 24.197C30.7857 24.2379 30.5697 24.2186 30.5366 24.1538L28.7491 20.6583Z" fill="#2A4259"/>
<path fill-rule="evenodd" clip-rule="evenodd" d="M11.2063 13.2926C11.4324 13.2529 11.7002 13.386 11.8045 13.5898L19.3505 28.346C19.4547 28.5498 19.3559 28.7473 19.1298 28.787C18.9036 28.8268 18.6358 28.6937 18.5315 28.4899L10.9856 13.7337C10.8813 13.5298 10.9801 13.3324 11.2063 13.2926Z" fill="#222F3B"/>
<path fill-rule="evenodd" clip-rule="evenodd" d="M18.6789 28.7773C18.5746 28.5735 18.6734 28.376 18.8996 28.3363L35.2685 25.4604C35.4947 25.4207 35.7625 25.5538 35.8667 25.7576C35.971 25.9615 35.8722 26.1589 35.646 26.1987L19.2771 29.0745C19.051 29.1142 18.7831 28.9812 18.6789 28.7773Z" fill="#222F3B"/>
</svg>
