<svg width="45" height="32" viewBox="0 0 45 32" fill="none" xmlns="http://www.w3.org/2000/svg">
<path d="M44.3495 22.1935C43.5042 21.3963 40.3001 18.3768 36.5624 14.8423C36.5589 14.8389 36.5553 14.8354 36.5518 14.8319C35.9993 14.2018 35.4385 13.5624 34.8753 12.9207C34.8706 12.9149 34.8659 12.9092 34.8612 12.9023C33.1942 10.3113 31.5579 7.75957 30.2404 5.6882C30.1872 5.6041 30.1341 5.52116 30.0822 5.43936C30.081 5.43706 30.0798 5.43475 30.0786 5.43245C30.0302 5.35642 29.983 5.28153 29.9346 5.20665C29.9275 5.19513 29.9204 5.18361 29.9133 5.17209C29.8673 5.09951 29.8224 5.02808 29.7776 4.95781C29.774 4.9532 29.7705 4.94744 29.7681 4.94283C29.7244 4.87256 29.6796 4.80344 29.6371 4.73547C29.6288 4.72279 29.6217 4.71127 29.6135 4.6986C29.5733 4.63639 29.5344 4.57418 29.4954 4.51197C29.4872 4.49815 29.4789 4.48547 29.4694 4.47165C29.4305 4.40944 29.3915 4.34953 29.3537 4.28848C29.3455 4.27465 29.3372 4.26198 29.3278 4.24815C29.2888 4.18594 29.2499 4.12489 29.2121 4.06498C29.2062 4.05461 29.1991 4.0454 29.1932 4.03503C29.1625 3.98549 29.1318 3.9371 29.1011 3.88872C29.0751 3.84609 29.048 3.80462 29.022 3.76315C28.9925 3.71591 28.963 3.66868 28.9335 3.62375C28.9264 3.61338 28.9205 3.60301 28.9134 3.59264C28.878 3.53619 28.8437 3.4809 28.8083 3.42675C28.7965 3.40832 28.7847 3.38988 28.7741 3.37145C28.7493 3.33228 28.7245 3.29311 28.7009 3.25394C28.6808 3.22169 28.6607 3.18943 28.6407 3.15833C28.6218 3.12837 28.6029 3.09727 28.584 3.06731C28.5687 3.04312 28.5533 3.01778 28.538 2.99358C28.5167 2.95902 28.4955 2.92446 28.4742 2.89105C28.4577 2.86456 28.4412 2.83806 28.4246 2.81271C28.4081 2.78622 28.3916 2.75857 28.375 2.73322C28.3573 2.70442 28.3384 2.67447 28.3207 2.64682C28.3054 2.62263 28.29 2.59843 28.2759 2.57424C28.257 2.54429 28.2381 2.51318 28.2204 2.48438C28.2086 2.4648 28.1968 2.44637 28.185 2.42793C28.1661 2.39798 28.1472 2.36803 28.1295 2.33807C28.1153 2.31503 28.1023 2.29314 28.0882 2.27126C28.0728 2.24706 28.0575 2.22287 28.0433 2.19868C28.0291 2.17564 28.015 2.1526 28.0008 2.12955C27.9866 2.10651 27.9725 2.08347 27.9583 2.06043C27.9477 2.042 27.937 2.02472 27.9264 2.00744C27.9111 1.98094 27.8945 1.9556 27.8792 1.93025C27.8768 1.92564 27.8745 1.92219 27.8709 1.91758C27.8072 1.8139 27.7493 1.71828 27.6974 1.63072C27.6915 1.62151 27.6856 1.61114 27.6797 1.60077C27.6679 1.58118 27.6572 1.56275 27.6454 1.54317C27.6372 1.52934 27.6289 1.51437 27.6206 1.50169C27.6112 1.48556 27.6018 1.46944 27.5923 1.45446C27.584 1.44063 27.5758 1.42681 27.5687 1.41414C27.5593 1.39801 27.551 1.38418 27.5427 1.36921C27.5356 1.35769 27.5286 1.34617 27.5227 1.33465C27.5144 1.32082 27.5073 1.30815 27.5002 1.29548C27.4931 1.28396 27.4872 1.27244 27.4813 1.26207C27.4743 1.25055 27.4684 1.23903 27.4613 1.22751C27.4554 1.21714 27.4506 1.20792 27.4459 1.19871C27.44 1.18834 27.4341 1.17797 27.4294 1.16875C27.4247 1.15954 27.4199 1.15147 27.4164 1.14456C27.4117 1.1365 27.407 1.12728 27.4034 1.12037C27.3999 1.1123 27.3963 1.10539 27.3928 1.09848C27.3893 1.09157 27.3857 1.08465 27.3833 1.07889C27.3798 1.07198 27.3774 1.06737 27.3751 1.06161C27.3727 1.05701 27.3704 1.05125 27.368 1.04779C27.3656 1.04203 27.3645 1.03857 27.3633 1.03397C27.3633 1.03166 27.3609 1.0282 27.3597 1.0259C27.3586 1.02129 27.3574 1.01784 27.3574 1.01438C27.3574 1.01438 27.3574 1.01438 27.3574 1.01323L24.9761 1.42105C24.9195 1.43027 24.8616 1.40953 24.8262 1.3669C24.3976 0.860007 24.1084 0.508635 23.9903 0.349654C23.9502 0.295508 23.8817 0.272467 23.8168 0.292052L21.9184 0.847334C21.9066 0.834662 21.8948 0.82199 21.8854 0.811622C21.8405 0.762084 21.7697 0.745955 21.7071 0.770148L20.2975 1.32082C20.2975 1.32082 20.288 1.32428 20.2845 1.32543L12.8775 3.49011C12.8716 3.49242 12.8657 3.49357 12.8598 3.49472L1.59347 5.41632C1.48368 5.43475 1.42701 5.55572 1.48486 5.64903L1.98897 6.46583C2.0421 6.55223 1.99841 6.66513 1.89806 6.69393L0.11302 7.21581C0.00440644 7.24806 -0.0357334 7.37709 0.0362822 7.46234L1.02561 8.62936C1.09409 8.71 1.06221 8.83327 0.961861 8.87129L0.399902 9.09133C0.29483 9.1328 0.266496 9.26528 0.346776 9.34478L7.83759 16.666C7.83759 16.666 7.84467 16.6729 7.84703 16.6764L9.48214 18.6049C9.48686 18.6106 9.49159 18.6175 9.49631 18.6233L16.8986 30.6126C16.9328 30.6679 16.9977 30.6967 17.0627 30.6851C17.3378 30.6345 18.1287 30.4893 19.2727 30.2796C19.3294 30.2693 19.3884 30.29 19.425 30.3326L20.3152 31.3833C20.3565 31.4317 20.4226 31.4513 20.484 31.4328C20.7189 31.3602 21.3506 31.1667 22.2643 30.8868C22.321 30.8695 22.3836 30.8845 22.4249 30.9248C22.4709 30.9697 22.5382 30.9824 22.5973 30.9582C22.8228 30.866 23.4284 30.6195 24.3008 30.2647C24.3056 30.2624 24.3103 30.2612 24.315 30.26C26.3161 29.6495 28.878 28.8718 31.5107 28.0815C31.5166 28.0792 31.5225 28.0781 31.5296 28.0769C32.6405 27.8811 33.7384 27.6898 34.7939 27.5078C34.9001 27.4894 35.0064 27.471 35.1115 27.4537C35.1516 27.4468 35.1917 27.4399 35.2331 27.4329C35.3381 27.4145 35.442 27.3972 35.5447 27.3799C35.5825 27.373 35.6203 27.3673 35.6581 27.3604C35.7608 27.3431 35.8635 27.3258 35.965 27.3074C36.0016 27.3016 36.037 27.2947 36.0736 27.2889C36.1893 27.2694 36.305 27.2498 36.4207 27.2302C36.4384 27.2267 36.455 27.2244 36.4727 27.221C36.5777 27.2025 36.6828 27.1853 36.7879 27.168C36.8209 27.1622 36.8528 27.1565 36.8847 27.1518C37.0039 27.1311 37.1232 27.1115 37.2412 27.0919C37.2424 27.0919 37.2436 27.0919 37.2448 27.0919C37.3581 27.0724 37.4703 27.0539 37.5824 27.0355C37.6155 27.0297 37.6485 27.024 37.6816 27.0194C37.7867 27.0021 37.8894 26.9848 37.9921 26.9675C38.0145 26.9641 38.0358 26.9606 38.0582 26.956C38.1538 26.9399 38.2471 26.9249 38.3404 26.9088C38.3734 26.903 38.4065 26.8984 38.4383 26.8926C38.5328 26.8765 38.6261 26.8615 38.7181 26.8466C38.7477 26.8419 38.7772 26.8373 38.8067 26.8316C38.8929 26.8178 38.9791 26.8028 39.0641 26.789C39.0947 26.7843 39.1254 26.7786 39.1561 26.774C39.2518 26.759 39.345 26.7429 39.4383 26.7279C39.4548 26.7256 39.4725 26.7221 39.4891 26.7198C39.5764 26.706 39.6638 26.6922 39.7488 26.6784C39.7771 26.6737 39.8066 26.6691 39.835 26.6645C39.9247 26.6507 40.0132 26.6357 40.0994 26.6219C40.1148 26.6196 40.1289 26.6173 40.1431 26.615C40.2246 26.6023 40.3037 26.5896 40.3828 26.577C40.4111 26.5724 40.4383 26.5678 40.4666 26.5643C40.554 26.5505 40.6401 26.5367 40.724 26.524C40.7287 26.524 40.7334 26.5228 40.7381 26.5217C40.8196 26.509 40.8999 26.4963 40.979 26.4848C41.0014 26.4814 41.0238 26.4779 41.0463 26.4744C41.1254 26.4618 41.2045 26.4503 41.28 26.4387C41.2871 26.4387 41.2942 26.4364 41.3001 26.4353C41.3721 26.4249 41.4417 26.4145 41.5114 26.4042C41.5327 26.4007 41.5551 26.3973 41.5763 26.395C41.6495 26.3846 41.7215 26.3742 41.79 26.3638C41.7936 26.3638 41.7959 26.3639 41.7983 26.3627C41.8656 26.3535 41.9317 26.3443 41.9954 26.335C42.012 26.3327 42.0297 26.3304 42.0462 26.3281C42.1111 26.3189 42.1761 26.3097 42.2375 26.3016C42.2398 26.3016 42.241 26.3016 42.2434 26.3016C42.3024 26.2936 42.3602 26.2855 42.4157 26.2786C42.4311 26.2763 42.4452 26.2751 42.4594 26.2728C42.5137 26.2659 42.5668 26.259 42.6164 26.2533C42.6212 26.2533 42.6247 26.2533 42.6294 26.2521C42.6778 26.2463 42.7239 26.2406 42.7687 26.236C42.7817 26.2348 42.7947 26.2325 42.8065 26.2314C42.8514 26.2268 42.8951 26.221 42.9352 26.2175C42.9375 26.2175 42.9399 26.2175 42.9423 26.2175C42.9824 26.2129 43.0202 26.2095 43.0556 26.206C43.0651 26.206 43.0745 26.2049 43.0839 26.2037C43.1194 26.2003 43.1536 26.198 43.1855 26.1957C43.2162 26.1933 43.2433 26.1922 43.2693 26.191C43.2764 26.191 43.2823 26.191 43.2882 26.191C43.313 26.191 43.3366 26.1899 43.3567 26.1899C43.3767 26.1899 43.3921 26.1899 43.4074 26.1922C43.411 26.1922 43.4145 26.1922 43.418 26.1922C43.431 26.1933 43.4428 26.1957 43.4511 26.198C43.4511 26.198 43.176 25.774 42.6979 25.0355C42.6412 24.948 42.6873 24.8305 42.79 24.8028C43.6317 24.577 44.2657 24.4192 44.6152 24.3547C44.7356 24.3328 44.7863 24.1934 44.7072 24.1024C44.4983 23.8662 44.1299 23.448 43.6365 22.887C43.5633 22.804 43.5987 22.675 43.7049 22.6393C43.9446 22.5587 44.1394 22.4965 44.2858 22.4561C44.4027 22.4239 44.4393 22.2787 44.3519 22.1958L44.3495 22.1935Z" fill="#1B90FF"/>
<path d="M3.77344 7.55239L21.2389 31.7142C21.2389 31.7142 44.273 24.1678 45 24.3259C45 24.3259 27.0715 0.598916 27.0784 0.285156L3.77344 7.55239Z" fill="white"/>
<path d="M3.89996 9.45739L23.2803 31.228C23.2803 31.228 44.132 22.2973 44.8383 22.3942C44.8383 22.3942 25.0736 1.07353 25.0423 0.772461L3.89996 9.45739Z" fill="#BCE5FF"/>
<path d="M5.32037 5.70126L18.0565 30.9774C18.0565 30.9774 42.7774 25.993 43.4778 26.2214C43.4778 26.2214 30.1883 1.32016 30.2578 1.01562L5.32037 5.70126Z" fill="white"/>
<path d="M28.8561 2.09302C29.3435 2.44369 29.8031 2.83128 30.2465 3.23502C30.734 3.67912 31.1994 4.1463 31.652 4.62502C31.982 4.97569 32.3015 5.33444 32.6164 5.6978C31.2028 2.98701 30.2408 1.09868 30.2604 1.01562L27.864 1.4655C28.2101 1.64891 28.5401 1.86347 28.8573 2.09187L28.8561 2.09302Z" fill="#BCE5FF"/>
<path d="M39.6158 18.9629C39.3981 19.9284 39.1527 20.8881 38.8389 21.8271C38.4198 23.0798 37.8757 24.3037 37.1105 25.3869C36.5351 26.2001 35.874 26.9545 35.1354 27.6247C39.5799 26.7827 43.2163 26.1367 43.4791 26.2221C43.4791 26.2221 41.7877 23.0533 39.6158 18.964V18.9629Z" fill="#BCE5FF"/>
<path d="M21.3784 4.46228C21.3784 4.46228 21.3729 4.45872 21.3702 4.45694C21.1387 4.70978 20.9228 4.9853 20.725 5.26287L20.7241 5.26424C19.9825 6.30157 19.4998 7.35974 19.4998 7.35974C26.8016 12.5537 38.5442 20.3442 40.7205 21.7856C40.9408 21.9313 41.2197 21.9573 41.464 21.8539L43.3421 18.8928L43.2588 18.4789C43.2213 18.4526 43.1838 18.4263 43.1462 18.4C43.1032 18.3702 43.0602 18.3404 43.0171 18.3106C43.0142 18.3135 43.0113 18.3165 43.0081 18.3183L42.4035 17.9625C42.4035 17.9625 21.6503 4.17142 21.5096 4.31668C21.4824 4.34481 21.4367 4.39691 21.3798 4.46317L21.3784 4.46228Z" fill="#0899A7"/>
<path d="M29.4008 11.6028C29.4002 11.5888 29.3973 11.5752 29.3956 11.5614C29.385 11.5059 29.3677 11.4471 29.3569 11.4128C29.3318 11.3285 29.296 11.2488 29.2492 11.1737C29.0395 10.8383 28.6649 10.6297 28.3106 10.4769C27.6406 10.1868 26.9187 10.0585 26.2146 9.88051C25.334 9.65722 24.4862 9.24895 23.7243 8.76007C22.4278 7.9277 21.3426 6.78073 20.6025 5.43709C19.929 6.41641 19.4988 7.35973 19.4988 7.35973C26.8007 12.5537 38.5433 20.3442 40.7195 21.7856C40.9398 21.9313 41.2188 21.9573 41.463 21.8539L41.5692 21.6852C41.397 21.382 41.1671 21.1074 40.9339 20.8513C40.0629 19.8996 39.0126 19.1061 37.9739 18.3454C36.7139 17.4228 35.4145 16.5545 34.1138 15.6912C32.7513 14.7879 31.3766 13.8989 30.0612 12.9279C29.8142 12.7454 29.5756 12.5528 29.3417 12.3546C29.1035 12.1525 28.856 11.9347 28.6886 11.6706C28.6854 11.6665 28.6901 11.6608 28.6951 11.6621C28.8205 11.6899 28.9547 11.6698 29.0817 11.6713C29.1468 11.6717 29.2127 11.6755 29.2778 11.6865C29.2951 11.69 29.324 11.698 29.3411 11.7003C29.3872 11.7059 29.3765 11.7164 29.3935 11.6798C29.3999 11.6655 29.402 11.6473 29.4022 11.6261C29.4015 11.6227 29.4017 11.6179 29.4021 11.6143C29.4011 11.6098 29.4002 11.6053 29.4003 11.6005L29.4008 11.6028Z" fill="#046C7C"/>
<path d="M21.3708 4.45725L21.6482 4.16996L43.2579 18.4772L43.3411 18.8911L43.0887 19.2899L21.3708 4.45725Z" fill="#046C7C"/>
<path d="M21.5448 5.36514C21.5683 5.36962 21.5937 5.3501 21.6095 5.31848L21.6141 5.30689C21.7008 5.04686 21.822 4.79844 21.9593 4.55955C21.9145 4.53246 21.8711 4.50626 21.832 4.48385C21.7042 4.74547 21.5926 5.01664 21.5197 5.29732C21.5101 5.33001 21.5214 5.36065 21.5448 5.36514Z" fill="white"/>
<path d="M23.2585 6.14185C23.2842 6.14586 23.3132 6.12087 23.3266 6.08384C23.3866 5.90375 23.4645 5.73048 23.5514 5.56004C23.5132 5.53626 23.4761 5.51225 23.4391 5.48823C23.3565 5.67898 23.2845 5.87459 23.2323 6.07428C23.2241 6.10785 23.2339 6.1376 23.2587 6.14298L23.2585 6.14185Z" fill="white"/>
<path d="M22.2102 5.18677C22.2359 5.19078 22.2649 5.16579 22.2783 5.12876C22.3123 5.02725 22.3539 4.92768 22.3971 4.83014C22.363 4.80903 22.3303 4.78882 22.2976 4.7686C22.2549 4.88492 22.2144 5.00076 22.1842 5.12033C22.176 5.1539 22.1858 5.18365 22.2106 5.18903L22.2102 5.18677Z" fill="white"/>
<path d="M22.5808 5.35585C22.6065 5.35986 22.6369 5.33576 22.6501 5.29761L22.6498 5.29648C22.6782 5.21267 22.7115 5.13017 22.746 5.04743C22.7133 5.02721 22.6817 5.00675 22.6501 4.9863C22.6145 5.08579 22.5825 5.1857 22.5555 5.28691C22.5472 5.32049 22.5571 5.35024 22.5805 5.35472L22.5808 5.35585Z" fill="white"/>
<path d="M22.9528 5.52641C22.9785 5.53042 23.0089 5.50632 23.0209 5.4684C23.0447 5.40207 23.0698 5.33663 23.095 5.27119C23.0636 5.25186 23.0332 5.23116 23.0021 5.21296C22.9744 5.29427 22.9483 5.3776 22.9268 5.45997C22.9172 5.49265 22.9284 5.52329 22.9519 5.52778L22.9528 5.52641Z" fill="white"/>
<path d="M24.9013 7.16932C24.927 7.17332 24.9583 7.14786 24.9694 7.11131C25.0268 6.9412 25.0991 6.775 25.1808 6.6139C25.1438 6.58988 25.1081 6.56676 25.071 6.54274C24.9927 6.72553 24.9247 6.91204 24.8762 7.1015C24.8671 7.13645 24.8781 7.16596 24.9018 7.17157L24.9013 7.16932Z" fill="white"/>
<path d="M23.8531 6.214C23.8788 6.21801 23.9101 6.19254 23.9213 6.15599C23.954 6.05947 23.992 5.96537 24.0325 5.87193C23.9995 5.85058 23.9679 5.83013 23.9352 5.80991C23.8938 5.92123 23.8572 6.03273 23.8269 6.14642C23.8178 6.18137 23.8288 6.21088 23.8525 6.2165L23.8531 6.214Z" fill="white"/>
<path d="M24.2247 6.38318C24.2504 6.38719 24.2817 6.36172 24.2929 6.32517C24.3201 6.24749 24.3502 6.17159 24.3815 6.09657C24.35 6.07611 24.3173 6.0559 24.2868 6.0352C24.2543 6.12697 24.2245 6.22052 24.1997 6.31537C24.1905 6.35031 24.2015 6.37982 24.2252 6.38544L24.2247 6.38318Z" fill="white"/>
<path d="M24.5975 6.55319C24.6232 6.55719 24.6531 6.53083 24.6656 6.49517C24.6861 6.43544 24.7083 6.37886 24.7304 6.32114C24.7002 6.30157 24.67 6.28201 24.6398 6.26244C24.6152 6.33602 24.5918 6.40936 24.5722 6.48424C24.563 6.51919 24.574 6.5487 24.5977 6.55431L24.5975 6.55319Z" fill="white"/>
<path d="M26.4937 8.18078C26.4832 8.21483 26.4933 8.24571 26.5159 8.25157C26.5409 8.25807 26.5725 8.23373 26.5859 8.1967C26.6416 8.04698 26.7081 7.90324 26.7798 7.76193C26.7943 7.7353 26.8099 7.70843 26.8243 7.6818C26.7873 7.65778 26.7514 7.63353 26.7143 7.60951C26.7021 7.63567 26.6897 7.6607 26.6786 7.68661C26.6062 7.84693 26.5443 8.01211 26.4949 8.18054L26.4937 8.18078Z" fill="white"/>
<path d="M25.4943 7.14796C25.4849 7.18178 25.4939 7.2129 25.5167 7.21988C25.5426 7.22502 25.5721 7.20228 25.5867 7.16502C25.6131 7.09458 25.6418 7.02367 25.6724 6.95591C25.6746 6.94955 25.6782 6.94407 25.6803 6.93771C25.6488 6.91726 25.6172 6.8968 25.5868 6.87611C25.5855 6.8811 25.5828 6.8852 25.5815 6.89019C25.5486 6.97495 25.5199 7.06238 25.4943 7.14796Z" fill="white"/>
<path d="M25.8554 7.34335C25.8458 7.37604 25.8559 7.40692 25.8784 7.41277C25.9021 7.41839 25.9298 7.39839 25.9444 7.367L25.9484 7.35791C25.9678 7.3043 25.9897 7.25134 26.0109 7.20087C26.0164 7.18791 26.0231 7.17471 26.0286 7.16176C25.9984 7.14219 25.968 7.12149 25.9378 7.10193C25.9332 7.11352 25.9285 7.12511 25.9239 7.1367C25.8992 7.2044 25.8759 7.27298 25.8552 7.34222L25.8554 7.34335Z" fill="white"/>
<path d="M26.2152 7.53772C26.2058 7.57154 26.2148 7.60265 26.2376 7.60964C26.2624 7.61501 26.2939 7.59067 26.3076 7.55477C26.3212 7.51887 26.3349 7.48297 26.35 7.44796C26.3577 7.42864 26.3677 7.40885 26.3754 7.38953C26.3452 7.36996 26.315 7.35039 26.2848 7.33083C26.2782 7.34991 26.2703 7.36809 26.2637 7.38717C26.2458 7.43692 26.2294 7.48756 26.2143 7.53908L26.2152 7.53772Z" fill="white"/>
<path d="M28.0745 9.32159C28.0649 9.35428 28.075 9.38515 28.0978 9.39214C28.1217 9.39888 28.1532 9.37454 28.1669 9.33864L28.1666 9.33751C28.2197 9.19189 28.2844 9.05089 28.3546 8.91345C28.3839 8.85656 28.4155 8.79918 28.4476 8.74407C28.4091 8.71917 28.3718 8.69402 28.3334 8.66912C28.3063 8.72553 28.2793 8.78195 28.2536 8.83925C28.183 8.99684 28.1226 9.15815 28.0734 9.32183L28.0745 9.32159Z" fill="white"/>
<path d="M27.0765 8.29041C27.0669 8.3231 27.0759 8.35422 27.0996 8.35983C27.1246 8.36634 27.155 8.34224 27.1687 8.30634C27.1945 8.2384 27.2205 8.17159 27.2504 8.10632C27.2672 8.06858 27.2857 8.03285 27.3028 7.99623C27.2698 7.97488 27.2369 7.95354 27.2051 7.93195C27.1903 7.96809 27.1743 8.00447 27.1607 8.04037C27.1298 8.12352 27.1015 8.20733 27.0768 8.29154L27.0765 8.29041Z" fill="white"/>
<path d="M27.4364 8.4839C27.427 8.51772 27.436 8.54884 27.4588 8.55582C27.4836 8.56119 27.5142 8.53822 27.5288 8.50095L27.5286 8.49982C27.5475 8.44984 27.5656 8.40122 27.587 8.35188C27.6061 8.30777 27.6276 8.26432 27.6478 8.21997C27.6162 8.19952 27.5844 8.17793 27.5517 8.15772C27.5349 8.20134 27.5168 8.24408 27.5003 8.28884C27.4763 8.35404 27.4545 8.41876 27.4353 8.48414L27.4364 8.4839Z" fill="white"/>
<path d="M27.7972 8.67806C27.7878 8.71187 27.7968 8.74299 27.8196 8.74997C27.8432 8.75559 27.8707 8.73446 27.8853 8.70308L27.8884 8.69535C27.9003 8.66218 27.9124 8.63015 27.9259 8.599C27.9469 8.5474 27.9706 8.49759 27.993 8.44688C27.9614 8.42643 27.9296 8.40484 27.898 8.38439C27.8782 8.43574 27.8581 8.48597 27.8408 8.53797C27.8245 8.58386 27.8098 8.63176 27.796 8.6783L27.7972 8.67806Z" fill="white"/>
<path d="M29.6557 10.462C29.6463 10.4958 29.6553 10.5269 29.6781 10.5339C29.7031 10.5404 29.7335 10.5163 29.7481 10.479C29.8001 10.3395 29.8612 10.204 29.9278 10.072C29.9729 9.98351 30.0221 9.89766 30.0724 9.81157C30.0326 9.78578 29.9926 9.75885 29.9528 9.73306C29.9086 9.82021 29.866 9.90938 29.8259 9.9992C29.7586 10.1502 29.7016 10.3049 29.6548 10.4633L29.6557 10.462Z" fill="white"/>
<path d="M28.6586 9.42975C28.6492 9.46357 28.6582 9.49468 28.6809 9.50167C28.7049 9.50841 28.7364 9.48407 28.7498 9.44704C28.7743 9.3841 28.7979 9.32252 28.8251 9.26135C28.8554 9.19246 28.8883 9.12421 28.9225 9.05686C28.8882 9.03462 28.855 9.01215 28.8207 8.98991C28.7912 9.05744 28.7632 9.12586 28.7367 9.19629C28.707 9.27332 28.6813 9.35302 28.6577 9.43112L28.6586 9.42975Z" fill="white"/>
<path d="M29.0174 9.6253C29.0078 9.65799 29.0179 9.68887 29.0407 9.69585C29.0658 9.70235 29.0961 9.67825 29.1098 9.64235C29.1275 9.59736 29.1442 9.55373 29.1632 9.50962C29.1953 9.43211 29.2303 9.35751 29.2665 9.28267C29.2333 9.26019 29.199 9.23796 29.166 9.21661C29.1337 9.29299 29.1037 9.3689 29.0765 9.44658C29.0549 9.50655 29.0356 9.56604 29.0179 9.62756L29.0174 9.6253Z" fill="white"/>
<path d="M29.3779 9.81891C29.3674 9.85297 29.3775 9.88385 29.4001 9.8897C29.426 9.89484 29.4555 9.87211 29.4701 9.83484C29.4809 9.80779 29.4908 9.78211 29.5019 9.7562C29.5347 9.67144 29.5729 9.58911 29.6121 9.50654C29.5792 9.48519 29.546 9.46272 29.513 9.44137C29.4788 9.52524 29.4471 9.60976 29.4192 9.69582C29.4042 9.73671 29.3915 9.77713 29.3793 9.8198L29.3779 9.81891Z" fill="white"/>
<path d="M31.2372 11.6037C31.2278 11.6376 31.237 11.6698 31.2605 11.6743C31.2855 11.6808 31.3159 11.6567 31.3296 11.6208C31.3794 11.4877 31.436 11.359 31.4993 11.2336C31.5599 11.1123 31.6274 10.9955 31.6976 10.8804C31.6564 10.8538 31.615 10.8259 31.5738 10.7993C31.5114 10.9174 31.4519 11.0384 31.3988 11.1616C31.336 11.3058 31.2811 11.4541 31.2374 11.6049L31.2372 11.6037Z" fill="white"/>
<path d="M30.2401 10.5715C30.2304 10.6042 30.2394 10.6353 30.2633 10.6421C30.2884 10.6486 30.3188 10.6245 30.3324 10.5886C30.3536 10.5322 30.3761 10.4768 30.4 10.4222C30.4434 10.3199 30.4933 10.2209 30.5447 10.1228C30.509 10.0997 30.4731 10.0754 30.4374 10.0523C30.3924 10.1526 30.3488 10.2538 30.3116 10.3571C30.2854 10.4287 30.2606 10.5011 30.2392 10.5729L30.2401 10.5715Z" fill="white"/>
<path d="M30.5994 10.7652C30.5901 10.799 30.5993 10.8312 30.6218 10.8371C30.6478 10.8422 30.6773 10.8195 30.6918 10.7822C30.7064 10.7449 30.7207 10.7065 30.7366 10.6702C30.7817 10.5592 30.8336 10.4528 30.888 10.347C30.8524 10.3238 30.8178 10.3005 30.7821 10.2773C30.7341 10.3853 30.6885 10.494 30.6508 10.6057C30.6323 10.658 30.614 10.7114 30.5983 10.7654L30.5994 10.7652Z" fill="white"/>
<path d="M30.9593 10.9604C30.9497 10.9931 30.9598 11.024 30.9826 11.031C31.0051 11.0368 31.0328 11.0168 31.0472 10.9843L31.0512 10.9752C31.0578 10.9561 31.0655 10.9368 31.0735 10.9186C31.1194 10.8005 31.1741 10.6851 31.2319 10.5727C31.1976 10.5505 31.163 10.5271 31.1287 10.5049C31.0787 10.6204 31.0314 10.7376 30.9919 10.858C30.9801 10.8912 30.9687 10.9266 30.9593 10.9604Z" fill="white"/>
<path d="M32.8199 12.7433C32.8094 12.7773 32.8196 12.8082 32.8423 12.8152C32.8649 12.821 32.8926 12.801 32.907 12.7685L32.911 12.7594C32.9568 12.6354 33.0092 12.5146 33.0683 12.3972C33.1444 12.2432 33.2313 12.0952 33.3234 11.9496C33.2806 11.9209 33.2367 11.8924 33.1941 11.8648C33.1136 12.0151 33.0373 12.168 32.9712 12.3246C32.9128 12.4619 32.8608 12.6014 32.8199 12.7433Z" fill="white"/>
<path d="M31.8219 11.711C31.8126 11.7448 31.8216 11.7759 31.8443 11.7829C31.8694 11.7894 31.8998 11.7653 31.9143 11.7281C31.9326 11.6806 31.9521 11.6328 31.9715 11.5851C32.029 11.4492 32.0959 11.3183 32.1677 11.1888C32.1307 11.1648 32.0934 11.1396 32.0563 11.1156C31.9933 11.248 31.9342 11.3819 31.8856 11.5207C31.8634 11.5832 31.8417 11.6479 31.8224 11.7133L31.8219 11.711Z" fill="white"/>
<path d="M32.1818 11.9065C32.1722 11.9392 32.1812 11.9703 32.2051 11.977C32.229 11.9838 32.2605 11.9594 32.2731 11.9238C32.2846 11.8942 32.296 11.8647 32.3077 11.8363C32.3658 11.6919 32.4355 11.5522 32.5096 11.4163C32.4725 11.3923 32.4366 11.3681 32.3995 11.3441C32.3337 11.4853 32.2729 11.6278 32.2237 11.775C32.2081 11.8184 32.1941 11.8638 32.1812 11.909L32.1818 11.9065Z" fill="white"/>
<path d="M32.5412 12.1011C32.5318 12.1349 32.5408 12.166 32.5636 12.173C32.5896 12.1781 32.619 12.1554 32.6336 12.1181L32.6469 12.0859C32.7041 11.9323 32.7758 11.7851 32.853 11.6415C32.817 11.6172 32.7813 11.5941 32.7454 11.5698C32.6776 11.7186 32.6153 11.8708 32.5656 12.0264C32.5577 12.0505 32.5491 12.077 32.5415 12.1022L32.5412 12.1011Z" fill="white"/>
<path d="M34.4013 13.885C34.3919 13.9188 34.4009 13.9499 34.4245 13.9555C34.4485 13.9623 34.48 13.9379 34.4936 13.902C34.5368 13.788 34.5842 13.6766 34.6379 13.5674C34.7293 13.3795 34.8364 13.1989 34.9496 13.024C34.9054 12.9945 34.8601 12.9651 34.8159 12.9355C34.7158 13.1158 34.6217 13.302 34.5408 13.4947C34.4886 13.6225 34.4406 13.7529 34.4015 13.8861L34.4013 13.885Z" fill="white"/>
<path d="M33.4026 12.853C33.393 12.8857 33.4031 12.9166 33.4257 12.9224C33.4507 12.9289 33.4822 12.9046 33.4947 12.8689C33.51 12.8292 33.5254 12.7905 33.5409 12.7519C33.6111 12.5814 33.6958 12.4173 33.7873 12.2577C33.7486 12.2317 33.7102 12.2068 33.6715 12.1807C33.5905 12.3452 33.5164 12.5142 33.4575 12.6881C33.4372 12.7431 33.4204 12.7974 33.4037 12.8528L33.4026 12.853Z" fill="white"/>
<path d="M33.7637 13.0469C33.7543 13.0808 33.7633 13.1119 33.7861 13.1189C33.81 13.1256 33.8415 13.1013 33.8561 13.064C33.8647 13.0433 33.8713 13.0242 33.8802 13.0047C33.9497 12.8249 34.0349 12.6525 34.1306 12.4849C34.0922 12.46 34.0549 12.4348 34.0164 12.4099C33.9326 12.5833 33.8567 12.7608 33.7973 12.9432C33.7856 12.9775 33.7742 13.0129 33.764 13.0481L33.7637 13.0469Z" fill="white"/>
<path d="M34.1226 13.2424C34.113 13.2751 34.122 13.3062 34.1459 13.313C34.171 13.3195 34.2013 13.2954 34.215 13.2595L34.2175 13.2542C34.2873 13.065 34.3742 12.8839 34.4719 12.7088C34.4346 12.6837 34.3975 12.6597 34.3602 12.6345C34.2735 12.8167 34.1973 13.0038 34.1387 13.1954C34.1336 13.2106 34.1288 13.227 34.1238 13.2422L34.1226 13.2424Z" fill="white"/>
<path d="M35.9832 15.0247C35.9738 15.0586 35.9828 15.0897 36.0056 15.0967C36.0293 15.1023 36.0567 15.0811 36.0714 15.0498L36.0744 15.042C36.1128 14.9384 36.1561 14.8361 36.2036 14.7365C36.3089 14.5138 36.4366 14.3017 36.573 14.0973C36.5274 14.0668 36.4808 14.0365 36.4341 14.0063C36.3135 14.2181 36.2015 14.4374 36.1092 14.6656C36.0611 14.7843 36.0188 14.9028 35.9832 15.0247Z" fill="white"/>
<path d="M34.9846 13.9922C34.9752 14.0261 34.9842 14.0572 35.007 14.0642C35.0309 14.0709 35.0624 14.0466 35.077 14.0093L35.0767 14.0082C35.0871 13.9789 35.0986 13.9493 35.1103 13.9209C35.1922 13.7161 35.296 13.5197 35.4094 13.3295C35.3693 13.3026 35.3295 13.2768 35.2884 13.2501C35.1882 13.447 35.0976 13.65 35.0262 13.8597C35.0106 13.903 34.9968 13.9496 34.9837 13.9936L34.9846 13.9922Z" fill="white"/>
<path d="M35.3449 14.1878C35.3353 14.2205 35.3454 14.2514 35.3682 14.2583C35.3932 14.2649 35.4236 14.2408 35.4373 14.2049L35.4496 14.1739C35.5305 13.9588 35.636 13.7537 35.7523 13.5547C35.7125 13.5289 35.6738 13.5029 35.6338 13.4759C35.5307 13.6816 35.4376 13.8947 35.3681 14.1133C35.3602 14.1374 35.3525 14.1626 35.3449 14.1878Z" fill="white"/>
<path d="M35.7046 14.3834C35.6941 14.4174 35.7043 14.4483 35.7268 14.4542C35.7466 14.4582 35.7676 14.4455 35.783 14.4234L35.7957 14.3995C35.8754 14.1846 35.9787 13.98 36.0929 13.7826C36.0542 13.7566 36.0144 13.7308 35.9746 13.705C35.8688 13.9195 35.7761 14.1407 35.7079 14.3709L35.7038 14.3847L35.7046 14.3834Z" fill="white"/>
<path d="M37.5646 16.1677C37.5541 16.2017 37.5642 16.2326 37.5867 16.2384C37.6127 16.2436 37.6431 16.2195 37.6567 16.1836C37.6925 16.09 37.7298 15.9984 37.7715 15.9106C37.8916 15.6517 38.0409 15.408 38.1986 15.1754C38.1517 15.1441 38.1034 15.1118 38.0554 15.0807C37.9142 15.3239 37.7813 15.5783 37.6778 15.8431C37.6355 15.9499 37.597 16.0582 37.5648 16.1688L37.5646 16.1677Z" fill="white"/>
<path d="M36.5657 15.134C36.5561 15.1667 36.5654 15.1989 36.589 15.2046C36.6141 15.2111 36.6445 15.187 36.6581 15.1511C36.6659 15.1317 36.6727 15.1138 36.6807 15.0956C36.7749 14.854 36.8976 14.6242 37.0331 14.4045C36.9917 14.3767 36.9503 14.3489 36.9077 14.3213C36.7873 14.5507 36.6781 14.7884 36.5978 15.0341C36.5859 15.0673 36.5754 15.1013 36.5649 15.1354L36.5657 15.134Z" fill="white"/>
<path d="M36.9271 15.3281C36.9166 15.3622 36.9267 15.393 36.9493 15.3989C36.9743 15.4054 37.0049 15.3824 37.0184 15.3454L37.0179 15.3431C37.1113 15.0923 37.236 14.8549 37.3746 14.6276C37.3332 14.5998 37.292 14.5731 37.2495 14.5455C37.1259 14.7827 37.0177 15.0307 36.9396 15.2866C36.9343 15.3007 36.9313 15.3143 36.926 15.3283L36.9271 15.3281Z" fill="white"/>
<path d="M37.2826 15.5437C37.282 15.5686 37.292 15.5877 37.3098 15.5934C37.3186 15.5962 37.33 15.5939 37.3415 15.5867C37.3564 15.5788 37.3716 15.5615 37.3789 15.5399C37.4676 15.3007 37.5861 15.0729 37.716 14.8544C37.6748 14.8277 37.6347 14.8008 37.5933 14.773C37.4705 15.0135 37.3619 15.2652 37.2867 15.524L37.2829 15.5448L37.2826 15.5437Z" fill="white"/>
<path d="M39.1462 17.3068C39.1368 17.3407 39.1458 17.3718 39.1686 17.3788C39.1911 17.3846 39.2188 17.3646 39.2332 17.3321L39.2372 17.323C39.2672 17.2412 39.3001 17.1623 39.3353 17.083C39.4682 16.7896 39.6415 16.5137 39.8219 16.2492C39.7736 16.2169 39.7242 16.1849 39.6746 16.1518C39.5129 16.4265 39.3597 16.7135 39.2442 17.0161C39.2067 17.1125 39.1728 17.2092 39.1448 17.3059L39.1462 17.3068Z" fill="white"/>
<path d="M38.1481 16.2738C38.1387 16.3076 38.1479 16.3398 38.1704 16.3457C38.1941 16.3513 38.2216 16.3302 38.2362 16.2988L38.2393 16.2911L38.2488 16.269C38.3528 15.99 38.4958 15.7275 38.6544 15.4771C38.6116 15.4484 38.5677 15.4199 38.5249 15.3912C38.3839 15.6521 38.2574 15.9252 38.1687 16.2093C38.1603 16.2311 38.153 16.2527 38.1472 16.2751L38.1481 16.2738Z" fill="white"/>
<path d="M38.5079 16.4689C38.4983 16.5016 38.5084 16.5325 38.5312 16.5395C38.5476 16.5443 38.5667 16.5343 38.5809 16.5172C38.5885 16.5085 38.5945 16.4978 38.5989 16.4851C38.7 16.2091 38.84 15.9496 38.9943 15.7012C38.9529 15.6734 38.9101 15.6447 38.8676 15.6171C38.7238 15.8869 38.5957 16.1698 38.508 16.4642L38.5067 16.4692L38.5079 16.4689Z" fill="white"/>
<path d="M38.891 16.7351C38.916 16.7416 38.9464 16.7175 38.961 16.6802C39.0588 16.4167 39.1903 16.1672 39.3384 15.9284C39.297 15.9006 39.2544 15.873 39.2116 15.8443C39.0732 16.1059 38.9516 16.3803 38.8688 16.6643C38.8594 16.6981 38.8684 16.7292 38.8912 16.7362L38.891 16.7351Z" fill="white"/>
<path d="M40.7273 18.4479C40.7179 18.4817 40.7269 18.5128 40.7497 18.5198C40.7756 18.5249 40.806 18.5008 40.8197 18.4649C40.8454 18.397 40.8724 18.3288 40.9023 18.2635C41.0453 17.9398 41.2341 17.6369 41.4337 17.3508C41.4392 17.3437 41.4437 17.3368 41.4491 17.3286C41.3997 17.2966 41.3498 17.2623 41.2974 17.2274C41.1146 17.5313 40.9399 17.8559 40.8132 18.1951C40.7814 18.2796 40.7531 18.3634 40.7286 18.4488L40.7273 18.4479Z" fill="white"/>
<path d="M39.7289 17.4151C39.7184 17.4492 39.7285 17.48 39.7522 17.4856C39.7736 17.4917 39.7993 17.4733 39.8135 17.4456L39.8202 17.4324C39.9352 17.1216 40.098 16.8302 40.277 16.553C40.2328 16.5234 40.1887 16.4938 40.1434 16.4645C39.9807 16.7571 39.8358 17.0659 39.7386 17.3883L39.7294 17.4174L39.7289 17.4151Z" fill="white"/>
<path d="M40.0876 17.6485C40.0909 17.6643 40.0986 17.678 40.1122 17.681L40.1299 17.6808C40.1503 17.6765 40.1705 17.6546 40.1811 17.6264C40.2914 17.3272 40.4458 17.0458 40.6174 16.7785C40.5746 16.7498 40.5304 16.7202 40.4851 16.6908C40.3247 16.9829 40.1827 17.2888 40.0878 17.6107C40.0839 17.6257 40.0831 17.6388 40.0855 17.6501L40.0876 17.6485Z" fill="white"/>
<path d="M40.4715 17.8748C40.4966 17.8813 40.5269 17.8572 40.5406 17.8213C40.6472 17.5323 40.7944 17.2619 40.9584 17.0032C40.9158 16.9757 40.8728 16.9458 40.8289 16.9174C40.6759 17.1996 40.5401 17.496 40.4496 17.8051C40.44 17.8378 40.4503 17.8698 40.4729 17.8757L40.4715 17.8748Z" fill="white"/>
<path d="M42.3794 19.3766C42.353 19.447 42.3299 19.5167 42.3096 19.5882C42.3002 19.622 42.3092 19.6531 42.332 19.6601C42.3557 19.6657 42.3831 19.6446 42.3978 19.6132L42.4009 19.6055C42.4211 19.5505 42.4428 19.4964 42.4658 19.4432C42.6093 19.1052 42.8062 18.7901 43.0146 18.4902C43.0425 18.4489 43.0721 18.4097 43.1013 18.3693C43.0723 18.3495 43.0443 18.3295 43.0153 18.3097C43.0124 18.3126 43.0094 18.3156 43.0063 18.3175L42.9359 18.2757C42.9183 18.3042 42.9007 18.3327 42.8833 18.3623C42.6921 18.6821 42.5086 19.0215 42.3808 19.3775L42.3794 19.3766Z" fill="white"/>
<path d="M41.3091 18.5689C41.3046 18.5982 41.3144 18.622 41.3345 18.6272C41.3468 18.6294 41.3601 18.6254 41.3725 18.6169C41.3838 18.6086 41.3941 18.5958 41.4002 18.5803L41.4033 18.5726C41.526 18.2366 41.7059 17.9251 41.9021 17.629C41.8582 17.6005 41.8124 17.5689 41.763 17.5369C41.5805 17.8584 41.4159 18.1974 41.3109 18.5556L41.3079 18.5692L41.3091 18.5689Z" fill="white"/>
<path d="M41.6942 18.8208C41.7192 18.8273 41.7496 18.8032 41.7633 18.7673C41.8829 18.4449 42.0541 18.1423 42.2415 17.8551C42.2029 17.8291 42.1573 17.7986 42.1049 17.7637C41.9298 18.0754 41.7728 18.4056 41.6712 18.7514C41.6615 18.784 41.6708 18.8163 41.6944 18.8219L41.6942 18.8208Z" fill="white"/>
<path d="M42.0541 19.0162C42.078 19.023 42.1095 18.9986 42.123 18.9616C42.2395 18.6469 42.4053 18.3525 42.5881 18.071L42.45 17.9894C42.2813 18.2926 42.1301 18.6111 42.032 18.9454C42.0214 18.9795 42.0316 19.0104 42.0543 19.0173L42.0541 19.0162Z" fill="white"/>
<path d="M33.2625 14.2505C35.1978 14.2505 36.7667 12.6873 36.7667 10.759C36.7667 8.83076 35.1978 7.26758 33.2625 7.26758C31.3272 7.26758 29.7584 8.83076 29.7584 10.759C29.7584 12.6873 31.3272 14.2505 33.2625 14.2505Z" fill="#DF1278"/>
<path d="M33.2636 8.85742H33.2623C33.0008 8.85742 32.7888 9.06865 32.7888 9.32921V12.1882C32.7888 12.4487 33.0008 12.66 33.2623 12.66H33.2636C33.5251 12.66 33.7371 12.4487 33.7371 12.1882V9.32921C33.7371 9.06865 33.5251 8.85742 33.2636 8.85742Z" fill="white"/>
<path d="M31.4356 10.7047V10.8114C31.4356 11.0428 31.6239 11.2305 31.8562 11.2305H34.6727C34.905 11.2305 35.0933 11.0428 35.0933 10.8114V10.7047C35.0933 10.4732 34.905 10.2856 34.6727 10.2856H31.8562C31.6239 10.2856 31.4356 10.4732 31.4356 10.7047Z" fill="white"/>
<path d="M17.4545 18.0704C17.3508 17.8676 17.4491 17.6711 17.6741 17.6315L19.9302 17.2352C20.1552 17.1956 20.4217 17.328 20.5255 17.5309L23.9888 24.3034C24.0925 24.5062 23.9942 24.7027 23.7692 24.7422L21.513 25.1386C21.288 25.1781 21.0215 25.0457 20.9178 24.8429L17.4545 18.0704Z" fill="#BCE5FF"/>
<path d="M20.0866 13.1827C19.9828 12.9799 20.0811 12.7834 20.3062 12.7439L22.5623 12.3475C22.7873 12.3079 23.0538 12.4403 23.1575 12.6432L28.7536 23.5862C28.8573 23.7891 28.759 23.9856 28.534 24.0251L26.2778 24.4215C26.0528 24.461 25.7863 24.3286 25.6826 24.1258L20.0866 13.1827Z" fill="#BCE5FF"/>
<path d="M28.7491 20.1583C28.7159 20.0935 28.8781 20.0078 29.1114 19.9668L31.4498 19.556C31.683 19.515 31.8989 19.5343 31.932 19.5991L33.7195 23.0946C33.7527 23.1594 33.5905 23.2452 33.3573 23.2861L31.0189 23.697C30.7857 23.7379 30.5697 23.7186 30.5366 23.6538L28.7491 20.1583Z" fill="#BCE5FF"/>
<path fill-rule="evenodd" clip-rule="evenodd" d="M11.2061 12.7936C11.4323 12.7539 11.7001 12.8869 11.8044 13.0908L19.3503 27.847C19.4546 28.0508 19.3558 28.2483 19.1296 28.288C18.9035 28.3278 18.6357 28.1947 18.5314 27.9908L10.9854 13.2347C10.8812 13.0308 10.98 12.8333 11.2061 12.7936Z" fill="#89D1FF"/>
<path fill-rule="evenodd" clip-rule="evenodd" d="M18.6788 28.2773C18.5746 28.0735 18.6734 27.876 18.8995 27.8363L35.2685 24.9604C35.4946 24.9207 35.7624 25.0538 35.8667 25.2576C35.9709 25.4615 35.8721 25.6589 35.646 25.6987L19.277 28.5745C19.0509 28.6142 18.7831 28.4812 18.6788 28.2773Z" fill="#89D1FF"/>
</svg>
