<svg width="45" height="47" viewBox="0 0 45 47" fill="none" xmlns="http://www.w3.org/2000/svg">
<path d="M38.6627 0H9.07573C7.28294 0 5.82959 1.45335 5.82959 3.24614V39.839C5.82959 41.6318 7.28294 43.0851 9.07573 43.0851H38.6627C40.4555 43.0851 41.9088 41.6318 41.9088 39.839V3.24614C41.9088 1.45335 40.4555 0 38.6627 0Z" fill="white"/>
<path fill-rule="evenodd" clip-rule="evenodd" d="M38.6627 0.957447H9.07573C7.81172 0.957447 6.78704 1.98213 6.78704 3.24614V39.839C6.78704 41.103 7.81172 42.1277 9.07573 42.1277H38.6627C39.9267 42.1277 40.9514 41.103 40.9514 39.839V3.24614C40.9514 1.98213 39.9267 0.957447 38.6627 0.957447ZM9.07573 0H38.6627C40.4555 0 41.9088 1.45335 41.9088 3.24614V39.839C41.9088 41.6318 40.4555 43.0851 38.6627 43.0851H9.07573C7.28294 43.0851 5.82959 41.6318 5.82959 39.839V3.24614C5.82959 1.45335 7.28294 0 9.07573 0Z" fill="#00144A"/>
<path fill-rule="evenodd" clip-rule="evenodd" d="M9.15576 3.48716C9.15576 3.33961 9.19068 3.22021 9.23235 3.22021H33.8014C33.8442 3.22021 33.878 3.33961 33.878 3.48716V39.5968C33.878 39.7443 33.8442 39.8626 33.8014 39.8626H9.23235C9.19068 39.8626 9.15576 39.75 9.15576 39.5968V3.48716Z" fill="white"/>
<path d="M19.3637 4.28418H11.2506C10.8649 4.28418 10.5522 4.59684 10.5522 4.98252C10.5522 5.3682 10.8649 5.68085 11.2506 5.68085H19.3637C19.7494 5.68085 20.062 5.3682 20.062 4.98252C20.062 4.59684 19.7494 4.28418 19.3637 4.28418Z" fill="#F58B00"/>
<path d="M10.085 10.7148C10.085 10.3788 10.2542 10.1064 10.463 10.1064H11.6066C11.8154 10.1064 11.9847 10.3788 11.9847 10.7148V36.0939C11.9847 36.4298 11.8154 36.7022 11.6066 36.7022H10.463C10.2542 36.7022 10.085 36.4298 10.085 36.0939V10.7148Z" fill="#9EDDFF"/>
<path d="M10.6933 36.7017C10.3573 36.7017 10.085 36.5324 10.085 36.3236V35.18C10.085 34.9712 10.3573 34.802 10.6933 34.802H36.0724C36.4083 34.802 36.6807 34.9712 36.6807 35.18V36.3236C36.6807 36.5324 36.4083 36.7017 36.0724 36.7017H10.6933Z" fill="#9EDDFF"/>
<path d="M15.5552 20.2627C15.5552 19.927 15.8273 19.6548 16.1631 19.6548H19.5295C19.8652 19.6548 20.1374 19.927 20.1374 20.2627V31.4723C20.1374 31.8081 19.8652 32.0802 19.5295 32.0802H16.1631C15.8273 32.0802 15.5552 31.8081 15.5552 31.4723V20.2627Z" fill="#D1EFFF"/>
<path d="M22.5811 13.543C22.5811 13.2072 22.8532 12.9351 23.189 12.9351H26.5553C26.8911 12.9351 27.1632 13.2072 27.1632 13.543V31.6556C27.1632 31.9914 26.8911 32.2635 26.5553 32.2635H23.189C22.8532 32.2635 22.5811 31.9914 22.5811 31.6556V13.543Z" fill="#D1EFFF"/>
<path d="M29.6069 25.1509C29.6069 24.8151 29.8791 24.543 30.2148 24.543H33.5812C33.9169 24.543 34.1891 24.8151 34.1891 25.1509V31.5284C34.1891 31.8641 33.9169 32.1363 33.5812 32.1363H30.2148C29.8791 32.1363 29.6069 31.8641 29.6069 31.5284V25.1509Z" fill="#D1EFFF"/>
<path d="M9.65957 44.9998C13.8898 44.9998 17.3192 41.5705 17.3192 37.3402C17.3192 33.11 13.8898 29.6807 9.65957 29.6807C5.42931 29.6807 2 33.11 2 37.3402C2 41.5705 5.42931 44.9998 9.65957 44.9998Z" fill="#F58B00"/>
<path fill-rule="evenodd" clip-rule="evenodd" d="M18.3402 37.34C18.3402 42.1343 14.4537 46.0209 9.65937 46.0209C4.86507 46.0209 0.978516 42.1343 0.978516 37.34C0.978516 32.5457 4.86507 28.6592 9.65937 28.6592C14.4537 28.6592 18.3402 32.5457 18.3402 37.34ZM17.3189 37.34C17.3189 41.5703 13.8896 44.9996 9.65937 44.9996C5.4291 44.9996 1.99979 41.5703 1.99979 37.34C1.99979 33.1098 5.4291 29.6805 9.65937 29.6805C13.8896 29.6805 17.3189 33.1098 17.3189 37.34Z" fill="white"/>
<path d="M9.66234 33.1694H9.65951C9.0879 33.1694 8.62451 33.6328 8.62451 34.2044V40.4765C8.62451 41.0481 9.0879 41.5115 9.65951 41.5115H9.66234C10.234 41.5115 10.6973 41.0481 10.6973 40.4765V34.2044C10.6973 33.6328 10.234 33.1694 9.66234 33.1694Z" fill="white"/>
<path d="M5.6665 37.2216V37.4556C5.6665 37.9634 6.07812 38.375 6.58588 38.375H12.7423C13.2501 38.375 13.6617 37.9634 13.6617 37.4556V37.2216C13.6617 36.7138 13.2501 36.3022 12.7423 36.3022H6.58588C6.07812 36.3022 5.6665 36.7138 5.6665 37.2216Z" fill="white"/>
</svg>
