<svg width="320" height="240" viewBox="0 0 320 240" fill="none" xmlns="http://www.w3.org/2000/svg">
<path d="M305.547 18.8652H14.4533C12.5559 18.8635 10.6768 19.2357 8.92329 19.9606C7.16981 20.6855 5.57638 21.7489 4.23409 23.0899C2.8918 24.431 1.82697 26.0234 1.10045 27.7762C0.373942 29.529 -8.08861e-07 31.4078 0 33.3052V204.412C0 208.245 1.52275 211.921 4.23328 214.632C6.9438 217.342 10.6201 218.865 14.4533 218.865H305.547C309.38 218.865 313.056 217.342 315.767 214.632C318.477 211.921 320 208.245 320 204.412V33.3052C320 31.4078 319.626 29.529 318.9 27.7762C318.173 26.0234 317.108 24.431 315.766 23.0899C314.424 21.7489 312.83 20.6855 311.077 19.9606C309.323 19.2357 307.444 18.8635 305.547 18.8652Z" fill="#EBF8FF"/>
<path d="M307.617 114.641L250.515 95.0363C248.094 94.2051 245.459 95.4982 244.63 97.9246L216.169 181.19C215.339 183.616 216.63 186.257 219.05 187.088L276.152 206.693C278.573 207.524 281.208 206.231 282.038 203.805L310.499 120.54C311.328 118.113 310.038 115.472 307.617 114.641Z" fill="#D1EFFF"/>
<path d="M273.369 116.069C271.484 115.315 269.418 115.138 267.433 115.56C265.447 115.983 263.631 116.986 262.214 118.443C260.798 119.9 259.844 121.745 259.473 123.745C259.103 125.745 259.332 127.811 260.133 129.68C260.934 131.549 262.269 133.139 263.971 134.248C265.673 135.356 267.665 135.934 269.694 135.909C271.724 135.883 273.701 135.255 275.374 134.103C277.047 132.952 278.343 131.329 279.096 129.44L269.558 125.628L273.369 116.069Z" fill="#EBF8FF"/>
<path d="M276.421 114.658L272.618 124.209L282.147 128.02C282.647 126.766 282.896 125.426 282.879 124.075C282.862 122.725 282.579 121.391 282.047 120.15C281.515 118.909 280.745 117.785 279.779 116.843C278.814 115.901 277.673 115.158 276.421 114.658Z" fill="#B8E6FF"/>
<path d="M284.329 148.82L244.538 135.159C243.218 134.705 241.781 135.41 241.329 136.733C240.877 138.057 241.58 139.496 242.901 139.95L282.692 153.611C284.012 154.064 285.448 153.359 285.901 152.036C286.353 150.713 285.649 149.273 284.329 148.82Z" fill="#EBF8FF"/>
<path d="M280.888 156.924L241.097 143.262C239.777 142.809 238.34 143.514 237.888 144.837C237.436 146.16 238.14 147.6 239.46 148.053L279.251 161.715C280.571 162.168 282.007 161.463 282.46 160.14C282.912 158.817 282.208 157.377 280.888 156.924Z" fill="#EBF8FF"/>
<path d="M259.033 158.497L237.835 151.219C236.515 150.766 235.078 151.471 234.626 152.794C234.174 154.117 234.877 155.557 236.197 156.01L257.396 163.288C258.716 163.741 260.152 163.036 260.605 161.713C261.057 160.39 260.353 158.95 259.033 158.497Z" fill="#EBF8FF"/>
<path d="M16 214.072C16 212.814 17.0195 211.795 18.2772 211.795H167.058C168.316 211.795 169.335 212.814 169.335 214.072V215.009H16V214.072Z" fill="#D1EFFF"/>
<path d="M19.1473 217.75C19.5646 218.122 20.1045 218.328 20.664 218.328H164.671C165.231 218.328 165.771 218.122 166.188 217.75L169.335 214.939H16L19.1473 217.75Z" fill="#B8E6FF"/>
<rect x="31.0903" y="129.771" width="123.154" height="82.1674" rx="4.55436" fill="#D1EFFF"/>
<path d="M92.6675 132.521C93.103 132.521 93.456 132.167 93.456 131.731C93.456 131.295 93.103 130.941 92.6675 130.941C92.232 130.941 91.8789 131.295 91.8789 131.731C91.8789 132.167 92.232 132.521 92.6675 132.521Z" fill="#9EDDFF"/>
<rect x="35.1621" y="133.602" width="115.011" height="74.5088" rx="3.03624" fill="#EBF8FF"/>
<path d="M83.7476 211.338H101.588V211.884C101.588 212.723 100.908 213.402 100.07 213.402H85.2657C84.4272 213.402 83.7476 212.723 83.7476 211.884V211.338Z" fill="#9EDDFF"/>
<path d="M258.613 45.2486C258.613 44.0597 255.162 43.1081 250.551 42.892C250.287 38.2868 249.272 34.8626 248.083 34.8652C246.894 34.8679 245.906 38.3184 245.653 42.9473C241.029 43.2636 237.591 44.297 237.606 45.4885C237.622 46.6799 241.058 47.6315 245.668 47.8451C245.945 52.4502 246.947 55.8744 248.133 55.8718C249.32 55.8692 250.314 52.4186 250.567 47.7897C255.191 47.4734 258.626 46.4401 258.613 45.2486Z" fill="#F58B00"/>
<path d="M275.617 66.7618C275.617 65.9957 273.393 65.3824 270.422 65.2431C270.252 62.2753 269.598 60.0686 268.831 60.0703C268.065 60.072 267.428 62.2957 267.265 65.2788C264.285 65.4826 262.069 66.1485 262.08 66.9164C262.09 67.6842 264.304 68.2975 267.275 68.4351C267.454 71.4029 268.099 73.6096 268.864 73.6079C269.628 73.6062 270.269 71.3825 270.432 68.3994C273.412 68.1956 275.626 67.5296 275.617 66.7618Z" fill="#F58B00"/>
<path d="M23.5127 67.1021L80.6145 47.4972C83.0355 46.666 85.6704 47.9592 86.4997 50.3855L114.961 133.651C115.79 136.077 114.5 138.718 112.079 139.549L54.9771 159.154C52.5561 159.985 49.9212 158.692 49.0918 156.266L20.6308 73.0005C19.8015 70.5741 21.0917 67.9333 23.5127 67.1021Z" fill="#D1EFFF"/>
<path fill-rule="evenodd" clip-rule="evenodd" d="M75.372 78.017C76.4629 78.151 77.2386 79.1439 77.1046 80.2347L73.6046 108.735C73.522 109.407 73.1029 109.992 72.4923 110.285C71.8817 110.579 71.1636 110.542 70.5865 110.187L60.1403 103.759L56.5963 126.795C56.4292 127.881 55.4131 128.626 54.3268 128.459C53.2406 128.292 52.4955 127.276 52.6626 126.19L56.6626 100.19C56.764 99.5305 57.1888 98.966 57.794 98.686C58.3992 98.4061 59.1045 98.4479 59.6724 98.7974L70.0322 105.173L73.1543 79.7496C73.2882 78.6587 74.2811 77.883 75.372 78.017Z" fill="#B8E6FF"/>
<path d="M35.4515 83.5527C35.2736 83.0328 35.5509 82.4671 36.0708 82.2892L38.9187 81.3147C39.4386 81.1368 40.0043 81.414 40.1822 81.9339L55.6105 127.021C55.7884 127.541 55.5111 128.107 54.9912 128.285L52.1433 129.259C51.6234 129.437 51.0577 129.16 50.8798 128.64L35.4515 83.5527Z" fill="#EBF8FF"/>
<path d="M52.7099 130.677C52.1908 130.858 51.6238 130.583 51.4435 130.064L50.4559 127.221C50.2756 126.702 50.5502 126.135 51.0693 125.954L96.0846 110.318C96.6037 110.138 97.1707 110.412 97.351 110.931L98.3387 113.775C98.519 114.294 98.2443 114.861 97.7252 115.041L52.7099 130.677Z" fill="#EBF8FF"/>
<path d="M55.801 139.942C55.4319 138.907 55.9686 137.759 57.0039 137.39L78.6873 129.661C79.7226 129.292 80.8643 129.841 81.2333 130.876C81.6024 131.912 81.0657 133.059 80.0304 133.428L58.347 141.158C57.3117 141.527 56.17 140.978 55.801 139.942Z" fill="#EBF8FF"/>
<path d="M93.9321 60.9922C93.9321 55.4693 98.4093 50.9922 103.932 50.9922H208.541L236.068 73.8139V179.683C236.068 185.205 231.591 189.683 226.068 189.683H103.932C98.4093 189.683 93.9321 185.205 93.9321 179.683V60.9922Z" fill="#D5DADD"/>
<path d="M88.9321 53.9922C88.9321 49.5739 92.5139 45.9922 96.9321 45.9922H202.441L231.068 69.9683V176.683C231.068 181.101 227.486 184.683 223.068 184.683H96.9321C92.5139 184.683 88.9321 181.101 88.9321 176.683V53.9922Z" fill="white"/>
<path d="M202.286 69.75L231.068 75.5542V69.75H202.286Z" fill="#A9B4BE"/>
<path d="M202.286 69.7509H231.068L202.286 45.9922V69.7509Z" fill="#D5DADD"/>
<rect x="104.12" y="84.3984" width="111.557" height="86.0762" rx="6" fill="#EBF8FF"/>
<rect x="109.546" y="90.0703" width="101" height="37" rx="4" fill="#D1EFFF"/>
<path fill-rule="evenodd" clip-rule="evenodd" d="M115.546 147.07H185.546V150.07H115.546V147.07Z" fill="#9EDDFF"/>
<path fill-rule="evenodd" clip-rule="evenodd" d="M195.546 113.07L195.546 143.07L192.546 143.07L192.546 113.07L195.546 113.07Z" fill="#9EDDFF"/>
<path fill-rule="evenodd" clip-rule="evenodd" d="M155.546 116.07L155.546 143.07L152.546 143.07L152.546 116.07L155.546 116.07Z" fill="#9EDDFF"/>
<path fill-rule="evenodd" clip-rule="evenodd" d="M120.5 105.57L187 105.57V108.57L120.5 108.57V105.57Z" fill="#9EDDFF"/>
<circle cx="121.546" cy="149.07" r="8" fill="#0070F2"/>
<circle cx="121.546" cy="107.07" r="8" fill="#005DC9"/>
<circle cx="194.546" cy="107.07" r="8" fill="#F58B00"/>
<rect x="141.546" y="97.0703" width="30" height="20" rx="2.00019" fill="#0070F2"/>
<rect x="176.546" y="139.07" width="29" height="20" rx="2.00019" fill="#005DC9"/>
<rect x="154.438" y="139.07" width="13.9903" height="13.9903" rx="2.00019" transform="rotate(45 154.438 139.07)" fill="#004DA5"/>
<path d="M125.973 59.2051H106.749C105.453 59.2051 104.402 60.2556 104.402 61.5514C104.402 62.8472 105.453 63.8977 106.749 63.8977H125.973C127.269 63.8977 128.32 62.8472 128.32 61.5514C128.32 60.2556 127.269 59.2051 125.973 59.2051Z" fill="#004DA5"/>
<path d="M145.06 68.3203H106.391C105.293 68.3203 104.402 69.2106 104.402 70.3088C104.402 71.407 105.293 72.2973 106.391 72.2973H145.06C146.159 72.2973 147.049 71.407 147.049 70.3088C147.049 69.2106 146.159 68.3203 145.06 68.3203Z" fill="#005DC9"/>
</svg>
