<svg width="49" height="48" viewBox="0 0 49 48" fill="none" xmlns="http://www.w3.org/2000/svg">
<g clip-path="url(#clip0_28880_94497)">
<path opacity="0.5" d="M23.948 27.1938C31.2347 27.1938 37.1423 21.1958 37.1423 13.7845C37.1423 6.37313 31.2347 0.371338 23.948 0.371338C16.6612 0.371338 10.7536 6.36938 10.7536 13.7845C10.7536 21.1995 16.6612 27.1938 23.948 27.1938Z" fill="#223548"/>
<path d="M29.1603 1.93458L24.2298 0.371338L15.9622 24.8771L20.8965 26.4403L29.1603 1.93458Z" fill="#CEDBE8"/>
<path d="M22.8205 27.1938L31.246 2.6431L29.7127 2.15576L21.2835 26.7065L22.8205 27.1938Z" fill="#CEDBE8"/>
<path d="M30.517 25.7393L26.9055 27.1938L29.2129 32.8919L32.8206 31.4374L30.517 25.7393Z" fill="#B9C1C6"/>
<path d="M29.3445 32.4382C29.161 32.5138 29.015 32.6587 28.9382 32.8413C28.8615 33.0239 28.8603 33.2294 28.9348 33.4129L34.3238 46.6498C34.5482 47.1858 34.9762 47.6113 35.5142 47.8333C36.0523 48.0553 36.6566 48.0557 37.1949 47.8344L37.6233 47.6583C37.8942 47.5505 38.1407 47.3898 38.3485 47.1858C38.5563 46.9817 38.7211 46.7383 38.8334 46.4699C39.0552 45.9319 39.0552 45.3284 38.8334 44.7904L33.4444 31.5685C33.4073 31.4767 33.3523 31.393 33.2826 31.3225C33.2129 31.252 33.1299 31.1959 33.0383 31.1576C32.9468 31.1192 32.8485 31.0994 32.7492 31.0991C32.6499 31.0989 32.5516 31.1183 32.4598 31.1562L29.3445 32.4382Z" fill="#F58B00"/>
<path d="M26.7777 26.8936L27.1535 27.7896C27.1535 27.7896 29.0325 28.6256 31.0167 26.8787L30.4155 25.4429L28.7582 26.2451L26.7777 26.8936Z" fill="#688FB7"/>
<path d="M24.0382 27.6587C20.8295 27.6665 17.7174 26.5638 15.2327 24.5386C12.7479 22.5134 11.0443 19.6912 10.4124 16.5531C9.78048 13.4149 10.2593 10.1553 11.7674 7.33004C13.2754 4.50477 15.7191 2.28879 18.6819 1.05997C21.6447 -0.168847 24.9431 -0.334401 28.0146 0.591539C31.0861 1.51748 33.7405 3.47757 35.5252 6.13758C37.3099 8.79758 38.1143 11.9928 37.8014 15.1783C37.4884 18.3639 36.0774 21.3425 33.809 23.6062C31.2189 26.1951 27.7047 27.6526 24.0382 27.6587ZM24.0382 1.15108C21.0927 1.14592 18.2365 2.15998 15.9567 4.0204C13.6768 5.88081 12.1143 8.47241 11.5356 11.3534C10.9568 14.2344 11.3977 17.2265 12.7829 19.8195C14.1682 22.4126 16.4121 24.4461 19.1322 25.5735C21.8523 26.7008 24.8801 26.8523 27.6996 26.0019C30.519 25.1515 32.9556 23.352 34.5938 20.9101C36.2321 18.4683 36.9706 15.5352 36.6836 12.6109C36.3966 9.68661 35.1018 6.95213 33.0198 4.87361C31.8417 3.69431 30.442 2.75847 28.9008 2.11969C27.3596 1.48091 25.7071 1.15176 24.0382 1.15108Z" fill="#688FB7"/>
</g>
<defs>
<clipPath id="clip0_28880_94497">
<rect width="28.8589" height="48" fill="white" transform="translate(10.1409)"/>
</clipPath>
</defs>
</svg>
