<?xml version="1.0" encoding="UTF-8"?>
<!--Generator: Apple Native CoreSVG 232.5-->
<!DOCTYPE svg
PUBLIC "-//W3C//DTD SVG 1.1//EN"
       "http://www.w3.org/Graphics/SVG/1.1/DTD/svg11.dtd">
<svg version="1.1" xmlns="http://www.w3.org/2000/svg" xmlns:xlink="http://www.w3.org/1999/xlink" width="3300" height="2200">
 <!--glyph: "", point size: 100.0, font version: "19.0d6e1", template writer version: "123"-->
 <style>.SFSymbolsPreviewWireframe {fill:none;opacity:1.0;stroke:black;stroke-width:0.5}
</style>
 <g id="Notes">
  <rect height="2200" id="artboard" style="fill:white;opacity:1" width="3300" x="0" y="0"/>
  <line style="fill:none;stroke:black;opacity:1;stroke-width:0.5;" x1="263" x2="3036" y1="292" y2="292"/>
  <text style="stroke:none;fill:black;font-family:sans-serif;font-size:13;font-weight:bold;" transform="matrix(1 0 0 1 263 322)">Weight/Scale Variations</text>
  <text style="stroke:none;fill:black;font-family:sans-serif;font-size:13;text-anchor:middle;" transform="matrix(1 0 0 1 559.711 322)">Ultralight</text>
  <text style="stroke:none;fill:black;font-family:sans-serif;font-size:13;text-anchor:middle;" transform="matrix(1 0 0 1 856.422 322)">Thin</text>
  <text style="stroke:none;fill:black;font-family:sans-serif;font-size:13;text-anchor:middle;" transform="matrix(1 0 0 1 1153.13 322)">Light</text>
  <text style="stroke:none;fill:black;font-family:sans-serif;font-size:13;text-anchor:middle;" transform="matrix(1 0 0 1 1449.84 322)">Regular</text>
  <text style="stroke:none;fill:black;font-family:sans-serif;font-size:13;text-anchor:middle;" transform="matrix(1 0 0 1 1746.56 322)">Medium</text>
  <text style="stroke:none;fill:black;font-family:sans-serif;font-size:13;text-anchor:middle;" transform="matrix(1 0 0 1 2043.27 322)">Semibold</text>
  <text style="stroke:none;fill:black;font-family:sans-serif;font-size:13;text-anchor:middle;" transform="matrix(1 0 0 1 2339.98 322)">Bold</text>
  <text style="stroke:none;fill:black;font-family:sans-serif;font-size:13;text-anchor:middle;" transform="matrix(1 0 0 1 2636.69 322)">Heavy</text>
  <text style="stroke:none;fill:black;font-family:sans-serif;font-size:13;text-anchor:middle;" transform="matrix(1 0 0 1 2933.4 322)">Black</text>
  <line style="fill:none;stroke:black;opacity:1;stroke-width:0.5;" x1="263" x2="3036" y1="1903" y2="1903"/>
  <g transform="matrix(0.2 0 0 0.2 263 1933)">
   <path d="m46.2402 4.15039c21.5332 0 39.4531-17.8711 39.4531-39.4043s-17.9688-39.4043-39.502-39.4043c-21.4844 0-39.3555 17.8711-39.3555 39.4043s17.9199 39.4043 39.4043 39.4043Zm0-7.42188c-17.7246 0-31.8848-14.209-31.8848-31.9824s14.1113-31.9824 31.8359-31.9824c17.7734 0 32.0312 14.209 32.0312 31.9824s-14.209 31.9824-31.9824 31.9824Zm-17.9688-31.9824c0 2.14844 1.51367 3.61328 3.75977 3.61328h10.498v10.5957c0 2.19727 1.46484 3.71094 3.61328 3.71094 2.24609 0 3.71094-1.51367 3.71094-3.71094v-10.5957h10.5957c2.19727 0 3.71094-1.46484 3.71094-3.61328 0-2.19727-1.51367-3.71094-3.71094-3.71094h-10.5957v-10.5469c0-2.24609-1.46484-3.75977-3.71094-3.75977-2.14844 0-3.61328 1.51367-3.61328 3.75977v10.5469h-10.498c-2.24609 0-3.75977 1.51367-3.75977 3.71094Z"/>
  </g>
  <g transform="matrix(0.2 0 0 0.2 281.506 1933)">
   <path d="m58.5449 14.5508c27.2461 0 49.8047-22.6074 49.8047-49.8047 0-27.2461-22.6074-49.8047-49.8535-49.8047-27.1973 0-49.7559 22.5586-49.7559 49.8047 0 27.1973 22.6074 49.8047 49.8047 49.8047Zm0-8.30078c-23.0469 0-41.4551-18.457-41.4551-41.5039s18.3594-41.5039 41.4062-41.5039 41.5527 18.457 41.5527 41.5039-18.457 41.5039-41.5039 41.5039Zm-22.6562-41.5039c0 2.39258 1.66016 4.00391 4.15039 4.00391h14.3555v14.4043c0 2.44141 1.66016 4.15039 4.05273 4.15039 2.44141 0 4.15039-1.66016 4.15039-4.15039v-14.4043h14.4043c2.44141 0 4.15039-1.61133 4.15039-4.00391 0-2.44141-1.70898-4.15039-4.15039-4.15039h-14.4043v-14.3555c0-2.49023-1.70898-4.19922-4.15039-4.19922-2.39258 0-4.05273 1.70898-4.05273 4.19922v14.3555h-14.3555c-2.49023 0-4.15039 1.70898-4.15039 4.15039Z"/>
  </g>
  <g transform="matrix(0.2 0 0 0.2 304.924 1933)">
   <path d="m74.8535 28.3203c34.8145 0 63.623-28.8086 63.623-63.5742 0-34.8145-28.8574-63.623-63.6719-63.623-34.7656 0-63.5254 28.8086-63.5254 63.623 0 34.7656 28.8086 63.5742 63.5742 63.5742Zm0-9.08203c-30.1758 0-54.4434-24.3164-54.4434-54.4922 0-30.2246 24.2188-54.4922 54.3945-54.4922 30.2246 0 54.541 24.2676 54.541 54.4922 0 30.1758-24.2676 54.4922-54.4922 54.4922Zm-28.8574-54.4922c0 2.58789 1.85547 4.39453 4.58984 4.39453h19.7266v19.7754c0 2.68555 1.85547 4.58984 4.44336 4.58984 2.68555 0 4.54102-1.85547 4.54102-4.58984v-19.7754h19.7754c2.68555 0 4.58984-1.80664 4.58984-4.39453 0-2.73438-1.85547-4.58984-4.58984-4.58984h-19.7754v-19.7266c0-2.73438-1.85547-4.63867-4.54102-4.63867-2.58789 0-4.44336 1.9043-4.44336 4.63867v19.7266h-19.7266c-2.73438 0-4.58984 1.85547-4.58984 4.58984Z"/>
  </g>
  <text style="stroke:none;fill:black;font-family:sans-serif;font-size:13;font-weight:bold;" transform="matrix(1 0 0 1 263 1953)">Design Variations</text>
  <text style="stroke:none;fill:black;font-family:sans-serif;font-size:13;" transform="matrix(1 0 0 1 263 1971)">Symbols are supported in up to nine weights and three scales.</text>
  <text style="stroke:none;fill:black;font-family:sans-serif;font-size:13;" transform="matrix(1 0 0 1 263 1989)">For optimal layout with text and other symbols, vertically align</text>
  <text style="stroke:none;fill:black;font-family:sans-serif;font-size:13;" transform="matrix(1 0 0 1 263 2007)">symbols with the adjacent text.</text>
  <line style="fill:none;stroke:#00AEEF;stroke-width:0.5;opacity:1.0;" x1="776" x2="776" y1="1919" y2="1933"/>
  <g transform="matrix(0.2 0 0 0.2 776 1933)">
   <path d="m16.5527 0.78125c2.58789 0 3.85742-0.976562 4.78516-3.71094l6.29883-17.2363h28.8086l6.29883 17.2363c0.927734 2.73438 2.19727 3.71094 4.73633 3.71094 2.58789 0 4.24805-1.5625 4.24805-4.00391 0-0.830078-0.146484-1.61133-0.537109-2.63672l-22.9004-60.9863c-1.12305-2.97852-3.125-4.49219-6.25-4.49219-3.02734 0-5.07812 1.46484-6.15234 4.44336l-22.9004 61.084c-0.390625 1.02539-0.537109 1.80664-0.537109 2.63672 0 2.44141 1.5625 3.95508 4.10156 3.95508Zm13.4766-28.3691 11.8652-32.8613h0.244141l11.8652 32.8613Z"/>
  </g>
  <line style="fill:none;stroke:#00AEEF;stroke-width:0.5;opacity:1.0;" x1="792.836" x2="792.836" y1="1919" y2="1933"/>
  <text style="stroke:none;fill:black;font-family:sans-serif;font-size:13;font-weight:bold;" transform="matrix(1 0 0 1 776 1953)">Margins</text>
  <text style="stroke:none;fill:black;font-family:sans-serif;font-size:13;" transform="matrix(1 0 0 1 776 1971)">Leading and trailing margins on the left and right side of each symbol</text>
  <text style="stroke:none;fill:black;font-family:sans-serif;font-size:13;" transform="matrix(1 0 0 1 776 1989)">can be adjusted by modifying the x-location of the margin guidelines.</text>
  <text style="stroke:none;fill:black;font-family:sans-serif;font-size:13;" transform="matrix(1 0 0 1 776 2007)">Modifications are automatically applied proportionally to all</text>
  <text style="stroke:none;fill:black;font-family:sans-serif;font-size:13;" transform="matrix(1 0 0 1 776 2025)">scales and weights.</text>
  <g transform="matrix(0.2 0 0 0.2 1289 1933)">
   <path d="m14.209 9.32617 8.49609 8.54492c4.29688 4.3457 9.22852 4.05273 13.8672-1.07422l53.4668-58.9355-4.83398-4.88281-53.0762 58.3984c-1.75781 2.00195-3.41797 2.49023-5.76172 0.146484l-5.85938-5.81055c-2.34375-2.29492-1.80664-4.00391 0.195312-5.81055l57.373-54.0039-4.88281-4.83398-57.959 54.4434c-4.93164 4.58984-5.32227 9.47266-1.02539 13.8184Zm32.0801-90.9668c-2.09961 2.05078-2.24609 4.93164-1.07422 6.88477 1.17188 1.80664 3.4668 2.97852 6.68945 2.14844 7.32422-1.70898 14.9414-2.00195 22.0703 2.68555l-2.92969 7.27539c-1.70898 4.15039-0.830078 7.08008 1.85547 9.81445l11.4746 11.5723c2.44141 2.44141 4.49219 2.53906 7.32422 2.05078l5.32227-0.976562 3.32031 3.36914-0.195312 2.7832c-0.195312 2.49023 0.439453 4.39453 2.88086 6.78711l3.80859 3.71094c2.39258 2.39258 5.46875 2.53906 7.8125 0.195312l14.5508-14.5996c2.34375-2.34375 2.24609-5.32227-0.146484-7.71484l-3.85742-3.80859c-2.39258-2.39258-4.24805-3.17383-6.64062-2.97852l-2.88086 0.244141-3.22266-3.17383 1.2207-5.61523c0.634766-2.83203-0.146484-5.0293-3.07617-7.95898l-10.9863-10.9375c-16.6992-16.6016-38.8672-16.2109-53.3203-1.75781Zm7.4707 1.85547c12.1582-8.88672 28.6133-7.37305 39.7461 3.75977l12.1582 12.0605c1.17188 1.17188 1.36719 2.09961 1.02539 3.80859l-1.61133 7.42188 7.51953 7.42188 4.93164-0.292969c1.26953-0.0488281 1.66016 0.0488281 2.63672 1.02539l2.88086 2.88086-12.207 12.207-2.88086-2.88086c-0.976562-0.976562-1.12305-1.36719-1.07422-2.68555l0.341797-4.88281-7.4707-7.42188-7.61719 1.26953c-1.61133 0.341797-2.34375 0.195312-3.56445-0.976562l-10.0098-10.0098c-1.26953-1.17188-1.41602-2.00195-0.634766-3.85742l4.39453-10.4492c-7.8125-7.27539-17.9688-10.4004-28.125-7.42188-0.78125 0.195312-1.07422-0.439453-0.439453-0.976562Z"/>
  </g>
  <text style="stroke:none;fill:black;font-family:sans-serif;font-size:13;font-weight:bold;" transform="matrix(1 0 0 1 1289 1953)">Exporting</text>
  <text style="stroke:none;fill:black;font-family:sans-serif;font-size:13;" transform="matrix(1 0 0 1 1289 1971)">Symbols should be outlined when exporting to ensure the</text>
  <text style="stroke:none;fill:black;font-family:sans-serif;font-size:13;" transform="matrix(1 0 0 1 1289 1989)">design is preserved when submitting to Xcode.</text>
  <text id="template-version" style="stroke:none;fill:black;font-family:sans-serif;font-size:13;text-anchor:end;" transform="matrix(1 0 0 1 3036 1933)">Template v.5.0</text>
  <text style="stroke:none;fill:black;font-family:sans-serif;font-size:13;text-anchor:end;" transform="matrix(1 0 0 1 3036 1951)">Requires Xcode 15 or greater</text>
  <text id="descriptive-name" style="stroke:none;fill:black;font-family:sans-serif;font-size:13;text-anchor:end;" transform="matrix(1 0 0 1 3036 1969)">Generated from fiori.phone</text>
  <text style="stroke:none;fill:black;font-family:sans-serif;font-size:13;text-anchor:end;" transform="matrix(1 0 0 1 3036 1987)">Typeset at 100.0 points</text>
  <text style="stroke:none;fill:black;font-family:sans-serif;font-size:13;" transform="matrix(1 0 0 1 263 726)">Small</text>
  <text style="stroke:none;fill:black;font-family:sans-serif;font-size:13;" transform="matrix(1 0 0 1 263 1156)">Medium</text>
  <text style="stroke:none;fill:black;font-family:sans-serif;font-size:13;" transform="matrix(1 0 0 1 263 1586)">Large</text>
 </g>
 <g id="Guides">
  <g id="H-reference" style="fill:#27AAE1;stroke:none;" transform="matrix(1 0 0 1 339 696)">
   <path d="M0.993654 0L3.63775 0L29.3281-67.1323L30.0303-67.1323L30.0303-70.459L28.1226-70.459ZM11.6885-24.4799L46.9815-24.4799L46.2315-26.7285L12.4385-26.7285ZM55.1196 0L57.7637 0L30.6382-70.459L29.4326-70.459L29.4326-67.1323Z"/>
  </g>
  <line id="Baseline-S" style="fill:none;stroke:#27AAE1;opacity:1;stroke-width:0.5;" x1="263" x2="3036" y1="696" y2="696"/>
  <line id="Capline-S" style="fill:none;stroke:#27AAE1;opacity:1;stroke-width:0.5;" x1="263" x2="3036" y1="625.541" y2="625.541"/>
  <g id="H-reference" style="fill:#27AAE1;stroke:none;" transform="matrix(1 0 0 1 339 1126)">
   <path d="M0.993654 0L3.63775 0L29.3281-67.1323L30.0303-67.1323L30.0303-70.459L28.1226-70.459ZM11.6885-24.4799L46.9815-24.4799L46.2315-26.7285L12.4385-26.7285ZM55.1196 0L57.7637 0L30.6382-70.459L29.4326-70.459L29.4326-67.1323Z"/>
  </g>
  <line id="Baseline-M" style="fill:none;stroke:#27AAE1;opacity:1;stroke-width:0.5;" x1="263" x2="3036" y1="1126" y2="1126"/>
  <line id="Capline-M" style="fill:none;stroke:#27AAE1;opacity:1;stroke-width:0.5;" x1="263" x2="3036" y1="1055.54" y2="1055.54"/>
  <g id="H-reference" style="fill:#27AAE1;stroke:none;" transform="matrix(1 0 0 1 339 1556)">
   <path d="M0.993654 0L3.63775 0L29.3281-67.1323L30.0303-67.1323L30.0303-70.459L28.1226-70.459ZM11.6885-24.4799L46.9815-24.4799L46.2315-26.7285L12.4385-26.7285ZM55.1196 0L57.7637 0L30.6382-70.459L29.4326-70.459L29.4326-67.1323Z"/>
  </g>
  <line id="Baseline-L" style="fill:none;stroke:#27AAE1;opacity:1;stroke-width:0.5;" x1="263" x2="3036" y1="1556" y2="1556"/>
  <line id="Capline-L" style="fill:none;stroke:#27AAE1;opacity:1;stroke-width:0.5;" x1="263" x2="3036" y1="1485.54" y2="1485.54"/>
  <line id="left-margin-Ultralight-S" style="fill:none;stroke:#00AEEF;stroke-width:0.5;opacity:1.0;" x1="515.011" x2="515.011" y1="600.785" y2="720.121"/>
  <line id="right-margin-Ultralight-S" style="fill:none;stroke:#00AEEF;stroke-width:0.5;opacity:1.0;" x1="604.411" x2="604.411" y1="600.785" y2="720.121"/>
  <line id="left-margin-Regular-S" style="fill:none;stroke:#00AEEF;stroke-width:0.5;opacity:1.0;" x1="1403.39" x2="1403.39" y1="600.785" y2="720.121"/>
  <line id="right-margin-Regular-S" style="fill:none;stroke:#00AEEF;stroke-width:0.5;opacity:1.0;" x1="1496.29" x2="1496.29" y1="600.785" y2="720.121"/>
  <line id="left-margin-Black-S" style="fill:none;stroke:#00AEEF;stroke-width:0.5;opacity:1.0;" x1="2884.9" x2="2884.9" y1="600.785" y2="720.121"/>
  <line id="right-margin-Black-S" style="fill:none;stroke:#00AEEF;stroke-width:0.5;opacity:1.0;" x1="2981.9" x2="2981.9" y1="600.785" y2="720.121"/>
 </g>
 <g id="Symbols">
  <g id="Black-S" transform="matrix(1 0 0 1 2884.9 696)">
   <path class="SFSymbolsPreviewWireframe" d="M75.21 7.3L21.71 7.3C13.01 7.3 6.01 0.2 6.01-8.5L6.01-10.7C6.01-13.9 8.71-16.2 11.51-16.2C14.01-16.2 17.01-14.3 17.01-10.7L17.01-8.5C17.01-5.9 19.11-3.7 21.81-3.7L75.31-3.7C77.91-3.7 80.11-5.8 80.11-8.5L80.11-62C80.11-64.6 78.01-66.8 75.31-66.8L41.81-66.8C39.51-66.8 36.91-69.1 36.91-72.3C36.91-75.3 39.31-77.8 42.41-77.8L75.31-77.8C83.91-77.8 91.01-70.7 91.01-62L91.01-8.5C91.01 0.2 83.91 7.3 75.21 7.3ZM23.81-23.6L16.61-23.6C10.71-23.6 6.01-28.3 6.01-34.2L6.01-67.1C6.01-73 10.81-77.8 16.71-77.8L23.91-77.8C29.81-77.8 34.61-73 34.61-67.1L34.61-34.2C34.51-28.3 29.71-23.6 23.81-23.6ZM17.51-66.7C17.01-66.7 17.01-66.7 17.01-66.7L17.01-34.6C17.01-34.6 17.01-34.6 17.41-34.6L22.91-34.6C23.41-34.6 23.41-34.6 23.41-34.6L23.41-66.7C23.41-66.7 23.41-66.7 22.81-66.7L17.51-66.7ZM49.91-39.4C49.91-36.3624 47.4476-33.9 44.41-33.9C41.3724-33.9 38.91-36.3624 38.91-39.4C38.91-42.4376 41.3724-44.9 44.41-44.9C47.4476-44.9 49.91-42.4376 49.91-39.4ZM49.91-27C49.91-23.9624 47.4476-21.5 44.41-21.5C41.3724-21.5 38.91-23.9624 38.91-27C38.91-30.0376 41.3724-32.5 44.41-32.5C47.4476-32.5 49.91-30.0376 49.91-27ZM62.21-27C62.21-23.9624 59.7476-21.5 56.71-21.5C53.6724-21.5 51.21-23.9624 51.21-27C51.21-30.0376 53.6724-32.5 56.71-32.5C59.7476-32.5 62.21-30.0376 62.21-27ZM62.21-39.4C62.21-36.3624 59.7476-33.9 56.71-33.9C53.6724-33.9 51.21-36.3624 51.21-39.4C51.21-42.4376 53.6724-44.9 56.71-44.9C59.7476-44.9 62.21-42.4376 62.21-39.4ZM74.51-39.4C74.51-36.3624 72.0476-33.9 69.01-33.9C65.9724-33.9 63.51-36.3624 63.51-39.4C63.51-42.4376 65.9724-44.9 69.01-44.9C72.0476-44.9 74.51-42.4376 74.51-39.4ZM74.51-27C74.51-23.9624 72.0476-21.5 69.01-21.5C65.9724-21.5 63.51-23.9624 63.51-27C63.51-30.0376 65.9724-32.5 69.01-32.5C72.0476-32.5 74.51-30.0376 74.51-27ZM49.91-14.7C49.91-11.6624 47.4476-9.2 44.41-9.2C41.3724-9.2 38.91-11.6624 38.91-14.7C38.91-17.7376 41.3724-20.2 44.41-20.2C47.4476-20.2 49.91-17.7376 49.91-14.7ZM62.21-14.7C62.21-11.6624 59.7476-9.2 56.71-9.2C53.6724-9.2 51.21-11.6624 51.21-14.7C51.21-17.7376 53.6724-20.2 56.71-20.2C59.7476-20.2 62.21-17.7376 62.21-14.7ZM74.51-14.7C74.51-11.6624 72.0476-9.2 69.01-9.2C65.9724-9.2 63.51-11.6624 63.51-14.7C63.51-17.7376 65.9724-20.2 69.01-20.2C72.0476-20.2 74.51-17.7376 74.51-14.7ZM70.11-49.3L42.31-49.3C39.21-49.3 36.81-51.8 36.81-54.8C36.81-57.8 39.31-60.3 42.31-60.3L70.11-60.3C73.21-60.3 75.61-57.8 75.61-54.8C75.61-51.8 73.11-49.3 70.11-49.3Z"/>
  </g>
  <g id="Regular-S" transform="matrix(1 0 0 1 1403.39 696)">
   <path class="SFSymbolsPreviewWireframe" d="M73.26 5.9L19.76 5.9C11.86 5.9 5.36-0.6 5.36-8.5L5.36-10.7C5.36-13 7.16-14.8 9.46-14.8C11.76-14.8 13.56-13 13.56-10.7L13.56-8.5C13.56-5.1 16.36-2.3 19.76-2.3L73.26-2.3C76.66-2.3 79.46-5.1 79.46-8.5L79.46-62C79.46-65.4 76.66-68.2 73.26-68.2L40.36-68.2C38.06-68.2 36.26-70 36.26-72.3C36.26-74.6 38.06-76.4 40.36-76.4L73.26-76.4C81.16-76.4 87.66-69.9 87.66-62L87.66-8.5C87.66-0.6 81.16 5.9 73.26 5.9ZM21.86-25L14.66-25C9.56-25 5.36-29.1 5.36-34.3L5.36-67.2C5.36-72.3 9.56-76.5 14.66-76.5L21.86-76.5C26.96-76.5 31.16-72.3 31.16-67.2L31.16-34.3C31.06-29.1 26.96-25 21.86-25ZM14.66-68.1C14.06-68.1 13.66-67.6 13.66-67.1L13.66-34.2C13.66-33.6 14.16-33.2 14.66-33.2L21.86-33.2C22.46-33.2 22.86-33.7 22.86-34.2L22.86-67.1C22.86-67.7 22.36-68.1 21.86-68.1L14.66-68.1ZM46.46-39.4C46.46-37.1356 44.6244-35.3 42.36-35.3C40.0956-35.3 38.26-37.1356 38.26-39.4C38.26-41.6644 40.0956-43.5 42.36-43.5C44.6244-43.5 46.46-41.6644 46.46-39.4ZM46.46-27C46.46-24.7356 44.6244-22.9 42.36-22.9C40.0956-22.9 38.26-24.7356 38.26-27C38.26-29.2644 40.0956-31.1 42.36-31.1C44.6244-31.1 46.46-29.2644 46.46-27ZM58.86-27C58.86-24.7356 57.0244-22.9 54.76-22.9C52.4956-22.9 50.66-24.7356 50.66-27C50.66-29.2644 52.4956-31.1 54.76-31.1C57.0244-31.1 58.86-29.2644 58.86-27ZM58.86-39.4C58.86-37.1356 57.0244-35.3 54.76-35.3C52.4956-35.3 50.66-37.1356 50.66-39.4C50.66-41.6644 52.4956-43.5 54.76-43.5C57.0244-43.5 58.86-41.6644 58.86-39.4ZM71.16-39.4C71.16-37.1356 69.3244-35.3 67.06-35.3C64.7956-35.3 62.96-37.1356 62.96-39.4C62.96-41.6644 64.7956-43.5 67.06-43.5C69.3244-43.5 71.16-41.6644 71.16-39.4ZM71.16-27C71.16-24.7356 69.3244-22.9 67.06-22.9C64.7956-22.9 62.96-24.7356 62.96-27C62.96-29.2644 64.7956-31.1 67.06-31.1C69.3244-31.1 71.16-29.2644 71.16-27ZM46.46-14.7C46.46-12.4356 44.6244-10.6 42.36-10.6C40.0956-10.6 38.26-12.4356 38.26-14.7C38.26-16.9644 40.0956-18.8 42.36-18.8C44.6244-18.8 46.46-16.9644 46.46-14.7ZM58.86-14.7C58.86-12.4356 57.0244-10.6 54.76-10.6C52.4956-10.6 50.66-12.4356 50.66-14.7C50.66-16.9644 52.4956-18.8 54.76-18.8C57.0244-18.8 58.86-16.9644 58.86-14.7ZM71.16-14.7C71.16-12.4356 69.3244-10.6 67.06-10.6C64.7956-10.6 62.96-12.4356 62.96-14.7C62.96-16.9644 64.7956-18.8 67.06-18.8C69.3244-18.8 71.16-16.9644 71.16-14.7ZM68.06-50.7L40.36-50.7C38.06-50.7 36.26-52.5 36.26-54.8C36.26-57.1 38.06-58.9 40.36-58.9L68.16-58.9C70.46-58.9 72.26-57.1 72.26-54.8C72.26-52.5 70.36-50.7 68.06-50.7Z"/>
  </g>
  <g id="Ultralight-S" transform="matrix(1 0 0 1 515.011 696)">
   <path class="SFSymbolsPreviewWireframe" d="M71.475 3L17.975 3C11.675 3 6.475-2.1 6.475-8.5L6.475-10.7C6.475-11.4 6.975-12 7.775-12C8.375-12 8.975-11.5 8.975-10.8L8.975-8.6C8.975-4 12.675 0.4 17.975 0.4L71.475 0.4C76.775 0.4 80.475-4 80.475-8.6L80.475-62C80.475-66.6 76.775-71 71.475-71L38.575-71C37.875-71 37.275-71.6 37.275-72.3C37.275-73.1 37.875-73.6 38.575-73.6L71.475-73.6C77.875-73.6 83.075-68.4 83.075-62L83.075-8.5C83.075-2.1 77.875 3 71.475 3ZM20.075-27.8L12.875-27.8C9.375-27.8 6.475-30.7 6.475-34.2L6.475-67.1C6.475-70.6 9.375-73.5 12.875-73.5L20.075-73.5C23.575-73.5 26.475-70.6 26.475-67.1L26.475-34.2C26.475-30.7 23.575-27.8 20.075-27.8ZM12.875-71C10.775-71 8.975-69.3 8.975-67.1L8.975-34.2C8.975-32.1 10.675-30.3 12.875-30.3L20.075-30.3C22.175-30.3 23.975-32 23.975-34.2L23.975-67.1C23.975-69.2 22.275-71 20.075-71L12.875-71ZM42.275-39.4C42.275-38.5163 41.5587-37.8 40.675-37.8C39.7913-37.8 39.075-38.5163 39.075-39.4C39.075-40.2837 39.7913-41 40.675-41C41.5587-41 42.275-40.2837 42.275-39.4ZM42.275-27C42.275-26.1163 41.5587-25.4 40.675-25.4C39.7913-25.4 39.075-26.1163 39.075-27C39.075-27.8837 39.7913-28.6 40.675-28.6C41.5587-28.6 42.275-27.8837 42.275-27ZM54.575-27C54.575-26.1163 53.8587-25.4 52.975-25.4C52.0913-25.4 51.375-26.1163 51.375-27C51.375-27.8837 52.0913-28.6 52.975-28.6C53.8587-28.6 54.575-27.8837 54.575-27ZM54.575-39.4C54.575-38.5163 53.8587-37.8 52.975-37.8C52.0913-37.8 51.375-38.5163 51.375-39.4C51.375-40.2837 52.0913-41 52.975-41C53.8587-41 54.575-40.2837 54.575-39.4ZM66.875-39.4C66.875-38.5163 66.1587-37.8 65.275-37.8C64.3913-37.8 63.675-38.5163 63.675-39.4C63.675-40.2837 64.3913-41 65.275-41C66.1587-41 66.875-40.2837 66.875-39.4ZM66.875-27C66.875-26.1163 66.1587-25.4 65.275-25.4C64.3913-25.4 63.675-26.1163 63.675-27C63.675-27.8837 64.3913-28.6 65.275-28.6C66.1587-28.6 66.875-27.8837 66.875-27ZM42.275-14.7C42.275-13.8163 41.5587-13.1 40.675-13.1C39.7913-13.1 39.075-13.8163 39.075-14.7C39.075-15.5837 39.7913-16.3 40.675-16.3C41.5587-16.3 42.275-15.5837 42.275-14.7ZM54.575-14.7C54.575-13.8163 53.8587-13.1 52.975-13.1C52.0913-13.1 51.375-13.8163 51.375-14.7C51.375-15.5837 52.0913-16.3 52.975-16.3C53.8587-16.3 54.575-15.5837 54.575-14.7ZM66.875-14.7C66.875-13.8163 66.1587-13.1 65.275-13.1C64.3913-13.1 63.675-13.8163 63.675-14.7C63.675-15.5837 64.3913-16.3 65.275-16.3C66.1587-16.3 66.875-15.5837 66.875-14.7ZM66.375-53.5L38.575-53.5C37.875-53.5 37.275-54.1 37.275-54.8C37.275-55.5 37.875-56.1 38.575-56.1L66.375-56.1C67.075-56.1 67.675-55.5 67.675-54.8C67.675-54.1 67.075-53.5 66.375-53.5Z"/>
  </g>
 </g>
</svg>
