<svg width="45" height="45" viewBox="0 0 45 45" fill="none" xmlns="http://www.w3.org/2000/svg">
<path fill-rule="evenodd" clip-rule="evenodd" d="M29.2346 41.0559H22.512V27.3716C22.512 22.4892 26.47 18.5312 31.3523 18.5312H35.9168C40.7193 18.5312 44.6275 22.3609 44.7539 27.1329C41.9279 33.7951 36.2411 38.9498 29.2346 41.0559Z" fill="white"/>
<rect width="7.21717" height="5.7768" rx="1.04004" transform="matrix(-1 0 0 1 37.2432 26.9473)" fill="#00A58A"/>
<path d="M26.0291 12.758C26.0536 14.9412 26.6697 16.0367 28.299 17.4517C31.2323 19.5549 36.3949 19.1624 38.8253 17.445C40.2967 16.4429 41.1513 14.8513 41.1264 12.5871C41.0768 8.32316 38.0105 4.45368 33.5735 4.50042C29.1384 4.54668 25.98 8.49309 26.0291 12.758Z" fill="white"/>
<path fill-rule="evenodd" clip-rule="evenodd" d="M27.7668 13.1503C27.8017 16.2475 30.1577 17.5899 33.6461 17.553C37.1342 17.5149 39.4097 16.1102 39.3756 13.015C39.3396 9.9194 37.0044 7.9109 33.5161 7.94776C30.029 7.98441 27.731 10.0541 27.7668 13.1503Z" fill="#688FB7"/>
<path fill-rule="evenodd" clip-rule="evenodd" d="M33.496 18.908H33.6451C33.6451 18.908 36.849 19.017 38.786 17.3191C38.7916 17.3141 38.8002 17.3163 38.7998 17.3238C38.7845 17.577 38.5026 20.4557 33.6451 20.4557H33.496C28.6382 20.4557 28.3566 17.577 28.3413 17.3238C28.3409 17.3163 28.3495 17.3141 28.3551 17.3191C30.2921 19.017 33.496 18.908 33.496 18.908Z" fill="#688FB7"/>
<path fill-rule="evenodd" clip-rule="evenodd" d="M1.45032 30.7076V29.7567C1.45032 23.7512 6.31874 18.8828 12.3242 18.8828H20.463C26.4685 18.8828 31.3369 23.7512 31.3369 29.7567V40.3174C28.503 41.461 25.4064 42.0906 22.1629 42.0906C13.4525 42.0906 5.80252 37.5505 1.45032 30.7076Z" fill="#CEDBE8"/>
<path fill-rule="evenodd" clip-rule="evenodd" d="M0.472424 29.0263C0.849741 22.8087 6.01174 17.8828 12.3242 17.8828H20.463C27.0208 17.8828 32.3369 23.1989 32.3369 29.7567V39.8877C32.0074 40.0381 31.674 40.1814 31.3369 40.3174V29.7567C31.3369 23.7512 26.4685 18.8828 20.463 18.8828H12.3242C6.31874 18.8828 1.45032 23.7512 1.45032 29.7567V30.7076C1.10297 30.1614 0.776627 29.6006 0.472424 29.0263Z" fill="#688FB7"/>
<path fill-rule="evenodd" clip-rule="evenodd" d="M7.01758 36.8584V28.2754C7.01758 27.9992 7.24144 27.7754 7.51758 27.7754C7.79372 27.7754 8.01758 27.9992 8.01758 28.2754V37.6041C7.67776 37.3639 7.34433 37.1152 7.01758 36.8584ZM24.7676 41.9539V28.2754C24.7676 27.9992 24.9914 27.7754 25.2676 27.7754C25.5437 27.7754 25.7676 27.9992 25.7676 28.2754V41.8275C25.4364 41.8763 25.103 41.9184 24.7676 41.9539Z" fill="#688FB7"/>
<rect width="8.54849" height="6.84242" rx="1.27928" transform="matrix(-1 0 0 1 20.667 28.8516)" fill="#F58B00"/>
<path d="M7.73438 11.9956C7.76201 14.4626 8.45823 15.7005 10.2994 17.2995C13.614 19.6761 19.4477 19.2325 22.1941 17.2919C23.8567 16.1596 24.8225 14.361 24.7943 11.8025C24.7383 6.98423 21.2733 2.61172 16.2595 2.66454C11.2478 2.71681 7.67887 7.17624 7.73438 11.9956Z" fill="#CEDBE8"/>
<path fill-rule="evenodd" clip-rule="evenodd" d="M9.67914 18.0856L9.71695 18.1127C11.6085 19.469 14.1348 19.9745 16.485 19.9147C18.8269 19.8551 21.1806 19.2295 22.7635 18.1141C24.7297 16.7717 25.8247 14.6422 25.7933 11.7927L25.7933 11.7921C25.7324 6.55918 21.9415 1.60659 16.2489 1.66655C10.5851 1.72563 6.67438 6.74212 6.73505 12.0083C6.74994 13.3351 6.94576 14.4239 7.44237 15.42C7.93449 16.4072 8.68012 17.218 9.64401 18.0551L9.67914 18.0856ZM22.1939 17.2931C19.4475 19.2337 13.6138 19.6773 10.2992 17.3007C8.45804 15.7017 7.76182 14.4638 7.7342 11.9968C7.67868 7.17742 11.2476 2.71799 16.2593 2.66572C21.2731 2.6129 24.7381 6.98541 24.7941 11.8037C24.8223 14.3622 23.8565 16.1608 22.1939 17.2931Z" fill="#688FB7"/>
<path fill-rule="evenodd" clip-rule="evenodd" d="M9.44264 12.5105C9.48403 16.179 12.2747 17.769 16.4065 17.7253C20.5381 17.6802 23.2333 16.0164 23.1929 12.3503C23.1503 8.68358 20.3844 6.30458 16.2525 6.34825C12.1222 6.39166 9.40024 8.84309 9.44264 12.5105Z" fill="#688FB7"/>
<path fill-rule="evenodd" clip-rule="evenodd" d="M16.2295 19.3285H16.4062C16.4062 19.3285 20.2011 19.4576 22.4953 17.4465C22.502 17.4406 22.5122 17.4432 22.5117 17.4521C22.4936 17.752 22.1597 21.1617 16.4062 21.1617H16.2295C10.4757 21.1617 10.1421 17.752 10.124 17.4521C10.1235 17.4432 10.1337 17.4406 10.1403 17.4465C12.4346 19.4576 16.2295 19.3285 16.2295 19.3285Z" fill="#688FB7"/>
</svg>
