<?xml version="1.0" encoding="UTF-8"?>
<!--Generator: Apple Native CoreSVG 232.5-->
<!DOCTYPE svg
PUBLIC "-//W3C//DTD SVG 1.1//EN"
       "http://www.w3.org/Graphics/SVG/1.1/DTD/svg11.dtd">
<svg version="1.1" xmlns="http://www.w3.org/2000/svg" xmlns:xlink="http://www.w3.org/1999/xlink" width="3300" height="2200">
 <!--glyph: "", point size: 100.0, font version: "19.0d6e1", template writer version: "123"-->
 <style>.SFSymbolsPreviewWireframe {fill:none;opacity:1.0;stroke:black;stroke-width:0.5}
</style>
 <g id="Notes">
  <rect height="2200" id="artboard" style="fill:white;opacity:1" width="3300" x="0" y="0"/>
  <line style="fill:none;stroke:black;opacity:1;stroke-width:0.5;" x1="263" x2="3036" y1="292" y2="292"/>
  <text style="stroke:none;fill:black;font-family:sans-serif;font-size:13;font-weight:bold;" transform="matrix(1 0 0 1 263 322)">Weight/Scale Variations</text>
  <text style="stroke:none;fill:black;font-family:sans-serif;font-size:13;text-anchor:middle;" transform="matrix(1 0 0 1 559.711 322)">Ultralight</text>
  <text style="stroke:none;fill:black;font-family:sans-serif;font-size:13;text-anchor:middle;" transform="matrix(1 0 0 1 856.422 322)">Thin</text>
  <text style="stroke:none;fill:black;font-family:sans-serif;font-size:13;text-anchor:middle;" transform="matrix(1 0 0 1 1153.13 322)">Light</text>
  <text style="stroke:none;fill:black;font-family:sans-serif;font-size:13;text-anchor:middle;" transform="matrix(1 0 0 1 1449.84 322)">Regular</text>
  <text style="stroke:none;fill:black;font-family:sans-serif;font-size:13;text-anchor:middle;" transform="matrix(1 0 0 1 1746.56 322)">Medium</text>
  <text style="stroke:none;fill:black;font-family:sans-serif;font-size:13;text-anchor:middle;" transform="matrix(1 0 0 1 2043.27 322)">Semibold</text>
  <text style="stroke:none;fill:black;font-family:sans-serif;font-size:13;text-anchor:middle;" transform="matrix(1 0 0 1 2339.98 322)">Bold</text>
  <text style="stroke:none;fill:black;font-family:sans-serif;font-size:13;text-anchor:middle;" transform="matrix(1 0 0 1 2636.69 322)">Heavy</text>
  <text style="stroke:none;fill:black;font-family:sans-serif;font-size:13;text-anchor:middle;" transform="matrix(1 0 0 1 2933.4 322)">Black</text>
  <line style="fill:none;stroke:black;opacity:1;stroke-width:0.5;" x1="263" x2="3036" y1="1903" y2="1903"/>
  <g transform="matrix(0.2 0 0 0.2 263 1933)">
   <path d="m46.2402 4.15039c21.5332 0 39.4531-17.8711 39.4531-39.4043s-17.9688-39.4043-39.502-39.4043c-21.4844 0-39.3555 17.8711-39.3555 39.4043s17.9199 39.4043 39.4043 39.4043Zm0-7.42188c-17.7246 0-31.8848-14.209-31.8848-31.9824s14.1113-31.9824 31.8359-31.9824c17.7734 0 32.0312 14.209 32.0312 31.9824s-14.209 31.9824-31.9824 31.9824Zm-17.9688-31.9824c0 2.14844 1.51367 3.61328 3.75977 3.61328h10.498v10.5957c0 2.19727 1.46484 3.71094 3.61328 3.71094 2.24609 0 3.71094-1.51367 3.71094-3.71094v-10.5957h10.5957c2.19727 0 3.71094-1.46484 3.71094-3.61328 0-2.19727-1.51367-3.71094-3.71094-3.71094h-10.5957v-10.5469c0-2.24609-1.46484-3.75977-3.71094-3.75977-2.14844 0-3.61328 1.51367-3.61328 3.75977v10.5469h-10.498c-2.24609 0-3.75977 1.51367-3.75977 3.71094Z"/>
  </g>
  <g transform="matrix(0.2 0 0 0.2 281.506 1933)">
   <path d="m58.5449 14.5508c27.2461 0 49.8047-22.6074 49.8047-49.8047 0-27.2461-22.6074-49.8047-49.8535-49.8047-27.1973 0-49.7559 22.5586-49.7559 49.8047 0 27.1973 22.6074 49.8047 49.8047 49.8047Zm0-8.30078c-23.0469 0-41.4551-18.457-41.4551-41.5039s18.3594-41.5039 41.4062-41.5039 41.5527 18.457 41.5527 41.5039-18.457 41.5039-41.5039 41.5039Zm-22.6562-41.5039c0 2.39258 1.66016 4.00391 4.15039 4.00391h14.3555v14.4043c0 2.44141 1.66016 4.15039 4.05273 4.15039 2.44141 0 4.15039-1.66016 4.15039-4.15039v-14.4043h14.4043c2.44141 0 4.15039-1.61133 4.15039-4.00391 0-2.44141-1.70898-4.15039-4.15039-4.15039h-14.4043v-14.3555c0-2.49023-1.70898-4.19922-4.15039-4.19922-2.39258 0-4.05273 1.70898-4.05273 4.19922v14.3555h-14.3555c-2.49023 0-4.15039 1.70898-4.15039 4.15039Z"/>
  </g>
  <g transform="matrix(0.2 0 0 0.2 304.924 1933)">
   <path d="m74.8535 28.3203c34.8145 0 63.623-28.8086 63.623-63.5742 0-34.8145-28.8574-63.623-63.6719-63.623-34.7656 0-63.5254 28.8086-63.5254 63.623 0 34.7656 28.8086 63.5742 63.5742 63.5742Zm0-9.08203c-30.1758 0-54.4434-24.3164-54.4434-54.4922 0-30.2246 24.2188-54.4922 54.3945-54.4922 30.2246 0 54.541 24.2676 54.541 54.4922 0 30.1758-24.2676 54.4922-54.4922 54.4922Zm-28.8574-54.4922c0 2.58789 1.85547 4.39453 4.58984 4.39453h19.7266v19.7754c0 2.68555 1.85547 4.58984 4.44336 4.58984 2.68555 0 4.54102-1.85547 4.54102-4.58984v-19.7754h19.7754c2.68555 0 4.58984-1.80664 4.58984-4.39453 0-2.73438-1.85547-4.58984-4.58984-4.58984h-19.7754v-19.7266c0-2.73438-1.85547-4.63867-4.54102-4.63867-2.58789 0-4.44336 1.9043-4.44336 4.63867v19.7266h-19.7266c-2.73438 0-4.58984 1.85547-4.58984 4.58984Z"/>
  </g>
  <text style="stroke:none;fill:black;font-family:sans-serif;font-size:13;font-weight:bold;" transform="matrix(1 0 0 1 263 1953)">Design Variations</text>
  <text style="stroke:none;fill:black;font-family:sans-serif;font-size:13;" transform="matrix(1 0 0 1 263 1971)">Symbols are supported in up to nine weights and three scales.</text>
  <text style="stroke:none;fill:black;font-family:sans-serif;font-size:13;" transform="matrix(1 0 0 1 263 1989)">For optimal layout with text and other symbols, vertically align</text>
  <text style="stroke:none;fill:black;font-family:sans-serif;font-size:13;" transform="matrix(1 0 0 1 263 2007)">symbols with the adjacent text.</text>
  <line style="fill:none;stroke:#00AEEF;stroke-width:0.5;opacity:1.0;" x1="776" x2="776" y1="1919" y2="1933"/>
  <g transform="matrix(0.2 0 0 0.2 776 1933)">
   <path d="m16.5527 0.78125c2.58789 0 3.85742-0.976562 4.78516-3.71094l6.29883-17.2363h28.8086l6.29883 17.2363c0.927734 2.73438 2.19727 3.71094 4.73633 3.71094 2.58789 0 4.24805-1.5625 4.24805-4.00391 0-0.830078-0.146484-1.61133-0.537109-2.63672l-22.9004-60.9863c-1.12305-2.97852-3.125-4.49219-6.25-4.49219-3.02734 0-5.07812 1.46484-6.15234 4.44336l-22.9004 61.084c-0.390625 1.02539-0.537109 1.80664-0.537109 2.63672 0 2.44141 1.5625 3.95508 4.10156 3.95508Zm13.4766-28.3691 11.8652-32.8613h0.244141l11.8652 32.8613Z"/>
  </g>
  <line style="fill:none;stroke:#00AEEF;stroke-width:0.5;opacity:1.0;" x1="792.836" x2="792.836" y1="1919" y2="1933"/>
  <text style="stroke:none;fill:black;font-family:sans-serif;font-size:13;font-weight:bold;" transform="matrix(1 0 0 1 776 1953)">Margins</text>
  <text style="stroke:none;fill:black;font-family:sans-serif;font-size:13;" transform="matrix(1 0 0 1 776 1971)">Leading and trailing margins on the left and right side of each symbol</text>
  <text style="stroke:none;fill:black;font-family:sans-serif;font-size:13;" transform="matrix(1 0 0 1 776 1989)">can be adjusted by modifying the x-location of the margin guidelines.</text>
  <text style="stroke:none;fill:black;font-family:sans-serif;font-size:13;" transform="matrix(1 0 0 1 776 2007)">Modifications are automatically applied proportionally to all</text>
  <text style="stroke:none;fill:black;font-family:sans-serif;font-size:13;" transform="matrix(1 0 0 1 776 2025)">scales and weights.</text>
  <g transform="matrix(0.2 0 0 0.2 1289 1933)">
   <path d="m14.209 9.32617 8.49609 8.54492c4.29688 4.3457 9.22852 4.05273 13.8672-1.07422l53.4668-58.9355-4.83398-4.88281-53.0762 58.3984c-1.75781 2.00195-3.41797 2.49023-5.76172 0.146484l-5.85938-5.81055c-2.34375-2.29492-1.80664-4.00391 0.195312-5.81055l57.373-54.0039-4.88281-4.83398-57.959 54.4434c-4.93164 4.58984-5.32227 9.47266-1.02539 13.8184Zm32.0801-90.9668c-2.09961 2.05078-2.24609 4.93164-1.07422 6.88477 1.17188 1.80664 3.4668 2.97852 6.68945 2.14844 7.32422-1.70898 14.9414-2.00195 22.0703 2.68555l-2.92969 7.27539c-1.70898 4.15039-0.830078 7.08008 1.85547 9.81445l11.4746 11.5723c2.44141 2.44141 4.49219 2.53906 7.32422 2.05078l5.32227-0.976562 3.32031 3.36914-0.195312 2.7832c-0.195312 2.49023 0.439453 4.39453 2.88086 6.78711l3.80859 3.71094c2.39258 2.39258 5.46875 2.53906 7.8125 0.195312l14.5508-14.5996c2.34375-2.34375 2.24609-5.32227-0.146484-7.71484l-3.85742-3.80859c-2.39258-2.39258-4.24805-3.17383-6.64062-2.97852l-2.88086 0.244141-3.22266-3.17383 1.2207-5.61523c0.634766-2.83203-0.146484-5.0293-3.07617-7.95898l-10.9863-10.9375c-16.6992-16.6016-38.8672-16.2109-53.3203-1.75781Zm7.4707 1.85547c12.1582-8.88672 28.6133-7.37305 39.7461 3.75977l12.1582 12.0605c1.17188 1.17188 1.36719 2.09961 1.02539 3.80859l-1.61133 7.42188 7.51953 7.42188 4.93164-0.292969c1.26953-0.0488281 1.66016 0.0488281 2.63672 1.02539l2.88086 2.88086-12.207 12.207-2.88086-2.88086c-0.976562-0.976562-1.12305-1.36719-1.07422-2.68555l0.341797-4.88281-7.4707-7.42188-7.61719 1.26953c-1.61133 0.341797-2.34375 0.195312-3.56445-0.976562l-10.0098-10.0098c-1.26953-1.17188-1.41602-2.00195-0.634766-3.85742l4.39453-10.4492c-7.8125-7.27539-17.9688-10.4004-28.125-7.42188-0.78125 0.195312-1.07422-0.439453-0.439453-0.976562Z"/>
  </g>
  <text style="stroke:none;fill:black;font-family:sans-serif;font-size:13;font-weight:bold;" transform="matrix(1 0 0 1 1289 1953)">Exporting</text>
  <text style="stroke:none;fill:black;font-family:sans-serif;font-size:13;" transform="matrix(1 0 0 1 1289 1971)">Symbols should be outlined when exporting to ensure the</text>
  <text style="stroke:none;fill:black;font-family:sans-serif;font-size:13;" transform="matrix(1 0 0 1 1289 1989)">design is preserved when submitting to Xcode.</text>
  <text id="template-version" style="stroke:none;fill:black;font-family:sans-serif;font-size:13;text-anchor:end;" transform="matrix(1 0 0 1 3036 1933)">Template v.5.0</text>
  <text style="stroke:none;fill:black;font-family:sans-serif;font-size:13;text-anchor:end;" transform="matrix(1 0 0 1 3036 1951)">Requires Xcode 15 or greater</text>
  <text id="descriptive-name" style="stroke:none;fill:black;font-family:sans-serif;font-size:13;text-anchor:end;" transform="matrix(1 0 0 1 3036 1969)">Generated from money.bills</text>
  <text style="stroke:none;fill:black;font-family:sans-serif;font-size:13;text-anchor:end;" transform="matrix(1 0 0 1 3036 1987)">Typeset at 100.0 points</text>
  <text style="stroke:none;fill:black;font-family:sans-serif;font-size:13;" transform="matrix(1 0 0 1 263 726)">Small</text>
  <text style="stroke:none;fill:black;font-family:sans-serif;font-size:13;" transform="matrix(1 0 0 1 263 1156)">Medium</text>
  <text style="stroke:none;fill:black;font-family:sans-serif;font-size:13;" transform="matrix(1 0 0 1 263 1586)">Large</text>
 </g>
 <g id="Guides">
  <g id="H-reference" style="fill:#27AAE1;stroke:none;" transform="matrix(1 0 0 1 339 696)">
   <path d="M0.993654 0L3.63775 0L29.3281-67.1323L30.0303-67.1323L30.0303-70.459L28.1226-70.459ZM11.6885-24.4799L46.9815-24.4799L46.2315-26.7285L12.4385-26.7285ZM55.1196 0L57.7637 0L30.6382-70.459L29.4326-70.459L29.4326-67.1323Z"/>
  </g>
  <line id="Baseline-S" style="fill:none;stroke:#27AAE1;opacity:1;stroke-width:0.5;" x1="263" x2="3036" y1="696" y2="696"/>
  <line id="Capline-S" style="fill:none;stroke:#27AAE1;opacity:1;stroke-width:0.5;" x1="263" x2="3036" y1="625.541" y2="625.541"/>
  <g id="H-reference" style="fill:#27AAE1;stroke:none;" transform="matrix(1 0 0 1 339 1126)">
   <path d="M0.993654 0L3.63775 0L29.3281-67.1323L30.0303-67.1323L30.0303-70.459L28.1226-70.459ZM11.6885-24.4799L46.9815-24.4799L46.2315-26.7285L12.4385-26.7285ZM55.1196 0L57.7637 0L30.6382-70.459L29.4326-70.459L29.4326-67.1323Z"/>
  </g>
  <line id="Baseline-M" style="fill:none;stroke:#27AAE1;opacity:1;stroke-width:0.5;" x1="263" x2="3036" y1="1126" y2="1126"/>
  <line id="Capline-M" style="fill:none;stroke:#27AAE1;opacity:1;stroke-width:0.5;" x1="263" x2="3036" y1="1055.54" y2="1055.54"/>
  <g id="H-reference" style="fill:#27AAE1;stroke:none;" transform="matrix(1 0 0 1 339 1556)">
   <path d="M0.993654 0L3.63775 0L29.3281-67.1323L30.0303-67.1323L30.0303-70.459L28.1226-70.459ZM11.6885-24.4799L46.9815-24.4799L46.2315-26.7285L12.4385-26.7285ZM55.1196 0L57.7637 0L30.6382-70.459L29.4326-70.459L29.4326-67.1323Z"/>
  </g>
  <line id="Baseline-L" style="fill:none;stroke:#27AAE1;opacity:1;stroke-width:0.5;" x1="263" x2="3036" y1="1556" y2="1556"/>
  <line id="Capline-L" style="fill:none;stroke:#27AAE1;opacity:1;stroke-width:0.5;" x1="263" x2="3036" y1="1485.54" y2="1485.54"/>
  <line id="left-margin-Ultralight-S" style="fill:none;stroke:#00AEEF;stroke-width:0.5;opacity:1.0;" x1="515.011" x2="515.011" y1="600.785" y2="720.121"/>
  <line id="right-margin-Ultralight-S" style="fill:none;stroke:#00AEEF;stroke-width:0.5;opacity:1.0;" x1="604.411" x2="604.411" y1="600.785" y2="720.121"/>
  <line id="left-margin-Regular-S" style="fill:none;stroke:#00AEEF;stroke-width:0.5;opacity:1.0;" x1="1403.39" x2="1403.39" y1="600.785" y2="720.121"/>
  <line id="right-margin-Regular-S" style="fill:none;stroke:#00AEEF;stroke-width:0.5;opacity:1.0;" x1="1496.29" x2="1496.29" y1="600.785" y2="720.121"/>
  <line id="left-margin-Black-S" style="fill:none;stroke:#00AEEF;stroke-width:0.5;opacity:1.0;" x1="2884.9" x2="2884.9" y1="600.785" y2="720.121"/>
  <line id="right-margin-Black-S" style="fill:none;stroke:#00AEEF;stroke-width:0.5;opacity:1.0;" x1="2981.9" x2="2981.9" y1="600.785" y2="720.121"/>
 </g>
 <g id="Symbols">
  <g id="Black-S" transform="matrix(1 0 0 1 2884.9 696)">
   <path class="SFSymbolsPreviewWireframe" d="M92.51-55.3C92.51-58.5 90.61-61.3 87.81-62.6L85.31-72.4C84.81-74.5 83.51-76.2 81.71-77.3C79.91-78.4 77.71-78.7 75.61-78.2L16.01-63.3L12.51-63.3C12.51-63.3 12.51-63.3 12.51-63.3C8.11-63.3 4.51-59.7 4.51-55.3C4.51-55.3 4.51-55.3 4.51-55.3C4.51-55.3 4.51-55.3 4.51-55.3L4.51-15.3C4.51-15.2 4.51-15.1 4.51-15C4.61-11.4 7.21-8.4 10.61-7.6C11.21-7.5 13.31-7.4 13.31-7.4L15.61 1.7C16.11 3.8 17.41 5.5 19.31 6.6C20.61 7.4 22.01 7.7 23.41 7.7C24.11 7.7 24.71 7.6 25.41 7.5C25.41 7.5 85.91-7.5 86.21-7.6C89.71-8.3 92.41-11.4 92.61-15.1C92.61-15.2 92.61-15.3 92.61-15.4L92.61-55.3C92.51-55.3 92.51-55.3 92.51-55.3C92.51-55.3 92.51-55.3 92.51-55.3ZM20.51-15.2C20.51-15.2 20.51-15.2 20.51-15.2C20.51-19.6 16.91-23.2 12.51-23.2C12.51-23.2 12.51-23.2 12.51-23.2L12.51-47.2C12.51-47.2 12.51-47.2 12.51-47.2C16.91-47.2 20.51-50.8 20.51-55.2L44.51-55.2L44.51-51C39.91-50.1 36.51-46 36.51-41.2C36.51-35.7 41.01-31.2 46.51-31.2L50.51-31.2C51.61-31.2 52.51-30.3 52.51-29.2C52.51-28.1 51.61-27.2 50.51-27.2L40.51-27.2C38.31-27.2 36.51-25.4 36.51-23.2C36.51-21 38.31-19.2 40.51-19.2L44.51-19.2L44.51-15.2L20.51-15.2ZM84.51-23.3C80.11-23.3 76.51-19.7 76.51-15.3C76.51-15.3 76.51-15.3 76.51-15.3L52.51-15.3L52.51-19.5C57.11-20.4 60.51-24.5 60.51-29.3C60.51-34.8 56.01-39.3 50.51-39.3L46.51-39.3C45.41-39.3 44.51-40.2 44.51-41.3C44.51-42.4 45.41-43.3 46.51-43.3L56.51-43.3C58.71-43.3 60.51-45.1 60.51-47.3C60.51-49.5 58.71-51.3 56.51-51.3L52.51-51.3L52.51-55.3L76.51-55.3C76.51-50.9 80.11-47.3 84.51-47.3L84.51-23.3ZM77.61-70.4L79.41-63.2L49.01-63.2L77.61-70.4ZM23.41-0.1L21.61-7.2L52.01-7.2L23.41-0.1ZM76.51-35.3C76.51-33.0909 74.7191-31.3 72.51-31.3C70.3009-31.3 68.51-33.0909 68.51-35.3C68.51-37.5091 70.3009-39.3 72.51-39.3C74.7191-39.3 76.51-37.5091 76.51-35.3ZM28.51-35.3C28.51-33.0909 26.7191-31.3 24.51-31.3C22.3009-31.3 20.51-33.0909 20.51-35.3C20.51-37.5091 22.3009-39.3 24.51-39.3C26.7191-39.3 28.51-37.5091 28.51-35.3Z"/>
  </g>
  <g id="Regular-S" transform="matrix(1 0 0 1 1403.39 696)">
   <path class="SFSymbolsPreviewWireframe" d="M90.46-55.3C90.46-58.5 88.56-61.3 85.76-62.6L83.26-72.4C82.76-74.5 81.46-76.2 79.66-77.3C77.86-78.4 75.66-78.7 73.56-78.2L13.96-63.3L10.46-63.3C10.46-63.3 10.46-63.3 10.46-63.3C6.06-63.3 2.46-59.7 2.46-55.3C2.46-55.3 2.46-55.3 2.46-55.3C2.46-55.3 2.46-55.3 2.46-55.3L2.46-15.3C2.46-15.2 2.46-15.1 2.46-15C2.56-11.4 5.16-8.4 8.56-7.6C9.16-7.5 11.26-7.4 11.26-7.4L13.56 1.7C14.06 3.8 15.36 5.5 17.26 6.6C18.56 7.4 19.96 7.7 21.36 7.7C22.06 7.7 22.66 7.6 23.36 7.5C23.36 7.5 83.86-7.5 84.16-7.6C87.66-8.3 90.36-11.4 90.56-15.1C90.56-15.2 90.56-15.3 90.56-15.4L90.56-55.3C90.46-55.3 90.46-55.3 90.46-55.3C90.46-55.3 90.46-55.3 90.46-55.3ZM18.46-15.2C18.46-15.2 18.46-15.2 18.46-15.2C18.46-19.6 14.86-23.2 10.46-23.2C10.46-23.2 10.46-23.2 10.46-23.2L10.46-47.2C10.46-47.2 10.46-47.2 10.46-47.2C14.86-47.2 18.46-50.8 18.46-55.2L42.46-55.2L42.46-51C37.86-50.1 34.46-46 34.46-41.2C34.46-35.7 38.96-31.2 44.46-31.2L48.46-31.2C49.56-31.2 50.46-30.3 50.46-29.2C50.46-28.1 49.56-27.2 48.46-27.2L38.46-27.2C36.26-27.2 34.46-25.4 34.46-23.2C34.46-21 36.26-19.2 38.46-19.2L42.46-19.2L42.46-15.2L18.46-15.2ZM82.46-23.3C78.06-23.3 74.46-19.7 74.46-15.3C74.46-15.3 74.46-15.3 74.46-15.3L50.46-15.3L50.46-19.5C55.06-20.4 58.46-24.5 58.46-29.3C58.46-34.8 53.96-39.3 48.46-39.3L44.46-39.3C43.36-39.3 42.46-40.2 42.46-41.3C42.46-42.4 43.36-43.3 44.46-43.3L54.46-43.3C56.66-43.3 58.46-45.1 58.46-47.3C58.46-49.5 56.66-51.3 54.46-51.3L50.46-51.3L50.46-55.3L74.46-55.3C74.46-50.9 78.06-47.3 82.46-47.3L82.46-23.3ZM75.56-70.4L77.36-63.2L46.96-63.2L75.56-70.4ZM21.36-0.1L19.56-7.2L49.96-7.2L21.36-0.1ZM74.46-35.3C74.46-33.0909 72.6691-31.3 70.46-31.3C68.2509-31.3 66.46-33.0909 66.46-35.3C66.46-37.5091 68.2509-39.3 70.46-39.3C72.6691-39.3 74.46-37.5091 74.46-35.3ZM26.46-35.3C26.46-33.0909 24.6691-31.3 22.46-31.3C20.2509-31.3 18.46-33.0909 18.46-35.3C18.46-37.5091 20.2509-39.3 22.46-39.3C24.6691-39.3 26.46-37.5091 26.46-35.3Z"/>
  </g>
  <g id="Ultralight-S" transform="matrix(1 0 0 1 515.011 696)">
   <path class="SFSymbolsPreviewWireframe" d="M85.875-55.3C85.875-58.5 84.375-59.3 81.575-60.6L78.775-71.8C78.275-73.9 77.475-76.8 77.475-76.8C77.475-76.8 74.575-76.1 72.475-75.6L12.475-60.6L8.675-60.6C8.675-60.6 8.675-60.6 8.675-60.6C6.175-60.6 3.575-58.5 3.575-55.4C3.575-55.4 3.575-55.4 3.575-55.4C3.575-55.4 3.575-55.4 3.575-55.4L3.575-15.5C3.575-15.4 3.575-15.6 3.575-15.5C3.575-14.4 4.275-11.1 7.475-10.4C8.075-10.3 11.775-10.1 11.775-10.1L14.575 1C15.075 3.1 15.975 6 15.975 6C15.975 6 17.475 5.6 18.775 5.3C19.375 5.2 20.175 4.9 20.875 4.7C20.875 4.7 81.475-10.3 81.775-10.4C83.375-10.8 85.875-12.3 85.875-15.3C85.875-15.4 85.875-15.9 85.875-16L85.875-54.5C85.875-54.3 85.875-55.3 85.875-55.3C85.875-55.3 85.875-55.3 85.875-55.3ZM13.875-12.4C13.875-12.4 13.875-12.4 13.875-12.4C13.875-18.9 12.775-20.4 5.875-20.4C5.875-20.4 5.875-20.4 5.875-20.4L5.875-50.1C5.875-50.1 5.875-50.1 5.875-50.1C12.775-50.1 13.875-51.8 13.875-58.1L43.575-58.1L43.575-48.7C39.975-48.7 35.575-46 35.575-41.2C35.575-37.4 38.675-34 42.775-34L46.775-34C49.375-34 51.575-32 51.575-29.2C51.575-26.5 49.375-24.4 46.775-24.4L36.775-24.4C36.175-24.4 35.575-24 35.575-23.2C35.575-22.4 36.175-22 36.775-22L43.575-22L43.575-12.3L13.875-12.4ZM83.575-20.4C77.175-20.4 75.575-19.3 75.575-12.4C75.575-12.4 74.075-12.4 74.075-12.4L45.875-12.4L45.875-21.8C49.975-21.8 53.875-24.5 53.875-29.3C53.875-32.8 51.175-36.5 46.675-36.5L42.675-36.5C39.575-36.5 37.875-39.2 37.875-41.3C37.875-43.8 39.875-46.1 42.675-46.1L52.675-46.1C53.375-46.1 53.875-46.6 53.875-47.3C53.875-48 53.375-48.5 52.675-48.5L45.875-48.5L45.875-58.2L75.575-58.2C75.575-51.2 77.475-50.2 83.575-50.2L83.575-20.4ZM75.875-73.8L79.275-60.4L22.275-60.4L75.875-73.8ZM17.575 3.3L14.175-10.1L71.275-10.1L17.575 3.3ZM70.375-35.3C70.375-34.4163 69.6587-33.7 68.775-33.7C67.8913-33.7 67.175-34.4163 67.175-35.3C67.175-36.1837 67.8913-36.9 68.775-36.9C69.6587-36.9 70.375-36.1837 70.375-35.3ZM22.375-35.3C22.375-34.4163 21.6587-33.7 20.775-33.7C19.8913-33.7 19.175-34.4163 19.175-35.3C19.175-36.1837 19.8913-36.9 20.775-36.9C21.6587-36.9 22.375-36.1837 22.375-35.3Z"/>
  </g>
 </g>
</svg>
