<svg width="128" height="189" viewBox="0 0 128 189" fill="none" xmlns="http://www.w3.org/2000/svg">
<circle cx="64" cy="64.7695" r="64" fill="#EBF8FF"/>
<path fill-rule="evenodd" clip-rule="evenodd" d="M115.44 102.854C103.779 118.579 85.08 128.77 64.0001 128.77C43.5408 128.77 25.3237 119.17 13.6078 104.228C13.4531 101.285 13.374 98.3021 13.374 95.2853V95.2852H115.608V95.2853C115.608 97.8336 115.551 100.358 115.44 102.854Z" fill="#D1EFFF"/>
<path fill-rule="evenodd" clip-rule="evenodd" d="M115.44 102.854C112.31 107.076 108.672 110.898 104.618 114.231C105.335 108.117 105.721 101.78 105.74 95.2852H115.607V95.2853C115.607 97.8336 115.551 100.358 115.44 102.854Z" fill="#B8E6FF"/>
<ellipse cx="64.4913" cy="95.2858" rx="51.1168" ry="10.0104" fill="#9EDDFF"/>
<ellipse cx="7.24272" cy="8.95233" rx="7.24272" ry="8.95233" transform="matrix(-0.877901 -0.478843 -0.478843 0.877901 33.2905 48.543)" fill="#B8E6FF"/>
<path fill-rule="evenodd" clip-rule="evenodd" d="M115.608 79.2987L115.608 79.2987C115.608 51.6694 92.7224 29.2715 64.4914 29.2715C36.2689 29.2715 13.3884 51.656 13.3747 79.2739C13.3746 79.2822 13.3745 79.2904 13.3745 79.2987C13.3745 84.8273 36.2603 89.3091 64.4913 89.3091C92.7223 89.3091 115.608 84.8273 115.608 79.2987Z" fill="#D1EFFF"/>
<path fill-rule="evenodd" clip-rule="evenodd" d="M97.1141 72.7823C97.1141 72.8298 97.114 72.8773 97.1138 72.9247H97.1059C96.7191 76.3872 82.2653 79.1707 64.4917 79.1707C46.7181 79.1707 32.2644 76.3872 31.8776 72.9247H31.8702C31.87 72.8859 31.8699 72.8471 31.8699 72.8083C31.8697 72.7996 31.8696 72.7909 31.8696 72.7822C31.8696 72.7736 31.8697 72.7649 31.8699 72.7562C31.8843 55.1355 46.4842 40.8555 64.492 40.8555C82.5087 40.8555 97.1141 55.1496 97.1141 72.7823Z" fill="#9EDDFF"/>
<rect x="40.8828" y="10.7422" width="4.48261" height="30.1132" rx="2.2413" fill="#9EDDFF"/>
<rect x="83.6172" y="8.28125" width="4.48261" height="32.5733" rx="2.2413" fill="#9EDDFF"/>
<circle cx="43.1243" cy="14.8314" r="6.5501" fill="#D1EFFF"/>
<path fill-rule="evenodd" clip-rule="evenodd" d="M40.5601 19.5904C44.1776 19.5904 47.1102 16.6578 47.1102 13.0403C47.1102 11.3844 46.4958 9.87204 45.4824 8.71875C47.9346 9.6655 49.6741 12.0453 49.6741 14.8314C49.6741 18.4489 46.7415 21.3815 43.124 21.3815C41.1623 21.3815 39.4021 20.5192 38.2017 19.153C38.9334 19.4355 39.7287 19.5904 40.5601 19.5904Z" fill="#B8E6FF"/>
<circle cx="85.8582" cy="14.8314" r="6.5501" fill="#5D36FF"/>
<circle cx="52.9103" cy="60.0128" r="4.56358" fill="white"/>
<circle cx="76.0719" cy="60.0128" r="4.56358" fill="#64EDD2"/>
<line x1="59.8137" y1="72.2029" x2="69.1679" y2="72.2029" stroke="#A9B4BE" stroke-width="1.87156" stroke-linecap="round"/>
<ellipse cx="105.836" cy="52.9341" rx="7.24272" ry="8.95233" transform="rotate(-28.6099 105.836 52.9341)" fill="#0070F2"/>
<path fill-rule="evenodd" clip-rule="evenodd" d="M50.1431 88.9094V31.2691C54.695 29.9688 59.5098 29.2715 64.4909 29.2715C92.7155 29.2715 115.597 51.6593 115.608 79.28L115.608 79.2987C115.608 84.8273 92.722 89.3091 64.491 89.3091C59.5098 89.3091 54.6951 89.1696 50.1431 88.9094Z" fill="#0070F2"/>
<path fill-rule="evenodd" clip-rule="evenodd" d="M105.356 85.3142C105.715 82.9295 105.901 80.49 105.901 78.0081C105.901 54.1351 88.7062 34.1801 65.7402 29.2871C93.3875 29.9363 115.597 52.0691 115.607 79.281L115.607 79.2997C115.607 81.557 111.792 83.6397 105.356 85.3142Z" fill="#005DC9"/>
<path fill-rule="evenodd" clip-rule="evenodd" d="M50.1431 78.5212V44.1016C54.4732 42.0227 59.3431 40.8555 64.4916 40.8555C82.5083 40.8555 97.1137 55.1496 97.1137 72.7823C97.1137 72.8298 97.1136 72.8773 97.1134 72.9247H97.1055C96.7187 76.3872 82.2649 79.1707 64.4913 79.1707C59.343 79.1707 54.4731 78.9372 50.1431 78.5212Z" fill="#00144A"/>
<rect x="83.6167" y="10.7422" width="4.48261" height="30.1132" rx="2.2413" fill="#A9B4BE"/>
<circle cx="85.8577" cy="14.8314" r="6.5501" fill="#0070F2"/>
<path fill-rule="evenodd" clip-rule="evenodd" d="M82.8699 19.8192C86.4875 19.8192 89.42 16.8866 89.42 13.2691C89.42 11.3573 88.601 9.63689 87.2948 8.43945C90.2211 9.0944 92.408 11.7075 92.408 14.8315C92.408 18.449 89.4755 21.3816 85.8579 21.3816C84.1521 21.3816 82.5987 20.7295 81.4331 19.6611C81.8955 19.7646 82.3763 19.8192 82.8699 19.8192Z" fill="#005DC9"/>
<path fill-rule="evenodd" clip-rule="evenodd" d="M50.1431 63.6422V56.3833C50.9106 55.7973 51.8696 55.4492 52.9099 55.4492C55.4303 55.4492 57.4735 57.4924 57.4735 60.0128C57.4735 62.5332 55.4303 64.5764 52.9099 64.5764C51.8696 64.5764 50.9106 64.2283 50.1431 63.6422Z" fill="#64EDD2"/>
<circle cx="76.0719" cy="60.0128" r="4.56358" fill="#64EDD2"/>
<path fill-rule="evenodd" clip-rule="evenodd" d="M59.0121 70.5436C59.2947 70.0426 59.93 69.8656 60.4309 70.1483C62.9506 71.5699 66.0304 71.5699 68.55 70.1483C69.051 69.8656 69.6862 70.0426 69.9689 70.5436C70.2516 71.0445 70.0746 71.6798 69.5736 71.9625C66.4186 73.7426 62.5623 73.7426 59.4073 71.9625C58.9064 71.6798 58.7294 71.0445 59.0121 70.5436Z" fill="#A9B4BE"/>
<rect x="46.71" y="94.7559" width="71.5706" height="3.77276" rx="1.88638" transform="rotate(-90 46.71 94.7559)" fill="#F58B00"/>
</svg>
