<svg width="320" height="167" viewBox="0 0 320 167" fill="none" xmlns="http://www.w3.org/2000/svg">
<rect y="28.5" width="320" height="138" rx="24" fill="#222F3B"/>
<path d="M211.167 144.014L199.637 148.951L145.272 107.201C148.256 106.51 151.093 105.595 153.732 104.482L211.167 144.014Z" fill="#101619"/>
<path d="M128.447 42.0072C154.129 43.6559 174.732 59.8917 174.456 78.2767C174.283 89.7048 166.09 99.2771 153.741 104.482L150.05 101.936L140.546 103.567L145.281 107.201C139.779 108.478 133.76 108.988 127.455 108.582C101.774 106.933 81.1711 90.6974 81.4471 72.3124C81.723 53.9273 102.765 40.3586 128.447 42.0072Z" fill="#101619"/>
<path d="M150.042 101.937L153.733 104.483C151.086 105.597 148.257 106.512 145.273 107.202L140.539 103.568L150.042 101.937Z" fill="#101619"/>
<path fill-rule="evenodd" clip-rule="evenodd" d="M259.842 100.33C259.842 100.33 259.092 102.22 258.669 102.799C258.246 103.377 257.393 104.525 255.056 104.525C252.719 104.525 224.527 104.042 223.009 104.042C221.491 104.042 217.895 102.92 216.084 100.08C214.273 97.24 214.049 94.5643 216.49 92.1733L247.113 95.4101L259.85 100.339L259.842 100.33Z" fill="#2A4259"/>
<path fill-rule="evenodd" clip-rule="evenodd" d="M241.196 79.6142L210.572 76.3774C208.132 78.777 208.356 81.4441 210.167 84.2839C211.978 87.1323 215.574 88.2457 217.092 88.2457C218.61 88.2457 246.801 88.7291 249.138 88.7291C251.475 88.7291 252.329 87.5897 252.752 87.0028C253.174 86.4159 253.924 84.5342 253.924 84.5342L241.187 79.6056L241.196 79.6142Z" fill="#2A4259"/>
<path fill-rule="evenodd" clip-rule="evenodd" d="M235.203 62.8511L204.58 59.6143C202.139 62.0138 202.363 64.6809 204.174 67.5207C205.985 70.3691 209.582 71.4825 211.099 71.4825C212.617 71.4825 240.809 71.9659 243.146 71.9659C245.483 71.9659 246.337 70.8266 246.759 70.2396C247.182 69.6527 247.932 67.771 247.932 67.771L235.194 62.8424L235.203 62.8511Z" fill="#2A4259"/>
<path d="M259.617 97.2153C260.781 100.34 259.203 102.834 256.098 102.791L223.716 102.308C220.611 102.265 217.153 99.6925 215.997 96.5679C214.833 93.4433 216.411 90.9402 219.516 90.992L251.898 91.4754C255.003 91.5185 258.461 94.0907 259.617 97.2153Z" fill="#3B5B7C"/>
<path d="M253.753 81.3931C254.909 84.5177 253.331 87.0122 250.226 86.9691L217.852 86.4857C214.739 86.4339 211.289 83.8617 210.125 80.7371C208.97 77.6125 210.548 75.118 213.652 75.1612L246.026 75.6532C249.131 75.6963 252.589 78.2685 253.753 81.3931Z" fill="#4D82B8"/>
<path d="M247.647 64.9415C248.802 68.0661 247.224 70.5606 244.12 70.5174L211.746 70.034C208.641 69.9823 205.183 67.4101 204.019 64.2855C202.863 61.1609 204.441 58.6664 207.546 58.7095L239.92 59.1929C243.024 59.2447 246.483 61.8169 247.647 64.9415Z" fill="#3B5B7C"/>
<path d="M254.357 97.6791C254.641 98.6026 254.21 99.3449 253.408 99.3277C252.606 99.3104 251.718 98.5422 251.442 97.6186C251.157 96.6864 251.58 95.9528 252.382 95.97C253.192 95.9873 254.072 96.7469 254.357 97.6791Z" fill="#4D82B8"/>
<path d="M249.045 97.5672C249.33 98.4908 248.907 99.2331 248.096 99.2159C247.294 99.1986 246.415 98.4304 246.13 97.5068C245.845 96.5746 246.268 95.8409 247.079 95.8582C247.881 95.8755 248.76 96.635 249.045 97.5672Z" fill="#4D82B8"/>
<path d="M243.732 97.4554C244.016 98.379 243.594 99.1213 242.792 99.0954C241.99 99.0781 241.101 98.3186 240.817 97.3864C240.532 96.4628 240.963 95.7291 241.765 95.7464C242.567 95.7637 243.456 96.5232 243.732 97.4554Z" fill="#4D82B8"/>
<path d="M241.395 64.3191C241.568 64.906 241.24 65.3635 240.662 65.3462L229.632 65.1132C229.055 65.1046 228.451 64.6212 228.279 64.0429C228.106 63.4646 228.434 63.0071 229.012 63.0157L240.041 63.2488C240.619 63.2661 241.223 63.7408 241.395 64.3191Z" fill="#4D82B8"/>
<path d="M228.864 80.6666C229.037 81.2449 228.709 81.7024 228.14 81.6938L217.101 81.4607C216.524 81.4434 215.92 80.9687 215.747 80.3904C215.575 79.8035 215.903 79.346 216.48 79.3633L227.51 79.5963C228.088 79.5963 228.692 80.0883 228.864 80.6666Z" fill="#3B5B7C"/>
<path fill-rule="evenodd" clip-rule="evenodd" d="M119.342 51.2923C119.342 51.2923 83.3197 50.645 81.1378 50.6191C78.956 50.5932 76.205 49.9976 75.0494 47.0888C73.8938 44.18 60.8976 9.11029 60.4319 7.78967C59.9662 6.46905 59.7765 5.59727 60.3802 4.34571C60.7855 3.50845 60.9062 2.99057 61.3029 2.64531C62.1222 1.93753 63.3899 2.21373 63.7348 2.30005C86.6744 3.09414 109.605 3.89687 132.545 4.69097L141.238 29.1008L119.35 51.2837L119.342 51.2923Z" fill="#2A4259"/>
<path d="M151.104 45.8537C151.854 47.8821 150.837 49.4962 148.827 49.4703L81.0437 48.4518C79.0344 48.4259 76.7921 46.7601 76.0332 44.7317L61.2864 5.12178C60.5275 3.09338 61.5538 1.4793 63.5631 1.50519L131.338 2.51507C133.356 2.5496 135.598 4.21547 136.349 6.24387L151.104 45.8537Z" fill="#4D82B8"/>
<path fill-rule="evenodd" clip-rule="evenodd" d="M111.865 25.2925C109.002 16.9286 99.8344 10.0493 91.383 9.92843C89.6409 9.90253 88.0714 10.1787 86.6916 10.688L97.7388 25.1285L80.4306 19.3454C80.3358 21.0458 80.5859 22.8929 81.2499 24.835C84.1044 33.1903 93.2802 40.0782 101.732 40.199C110.183 40.3285 114.719 33.6477 111.856 25.2925H111.865Z" fill="#3B5B7C"/>
<path fill-rule="evenodd" clip-rule="evenodd" d="M202.356 96.3577C202.235 96.7375 202.028 97.2985 201.709 97.9459C201.425 98.5156 201.278 98.8004 201.019 99.0421C200.321 99.6808 199.251 99.5427 198.975 99.5427C197.199 99.5168 134.486 98.4724 133.08 98.4552C131.666 98.4379 130.735 97.9718 129.984 96.3232C129.234 94.6746 104.233 28.0999 103.897 27.2541C103.561 26.4082 103.457 25.6745 104.035 24.7509C104.613 23.836 105.001 23.1973 105.001 23.1973L163.419 50.4814C176.398 65.7764 189.386 81.0714 202.365 96.3663L202.356 96.3577Z" fill="#00144A"/>
<path fill-rule="evenodd" clip-rule="evenodd" d="M201.045 96.2189L155.312 95.5371L134.21 95.2177C133.054 95.2004 131.769 94.251 131.338 93.0944L109.58 35.2893L105.138 23.4987C104.699 22.3421 105.276 21.4185 106.432 21.4358L173.267 22.437C174.423 22.4543 175.708 23.4038 176.139 24.5604L202.338 94.156C202.778 95.3126 202.2 96.2362 201.045 96.2189Z" fill="#D5DADD"/>
<path fill-rule="evenodd" clip-rule="evenodd" d="M175.001 69.7791C174.837 80.8879 167.084 90.2358 155.313 95.5355L134.21 95.2161C133.054 95.1988 131.769 94.2494 131.338 93.0928L109.58 35.2877C115.505 33.7254 122.085 33.0694 128.992 33.5096C154.674 35.1496 175.277 51.3941 175.001 69.7791Z" fill="#101619"/>
<path fill-rule="evenodd" clip-rule="evenodd" d="M124.802 26.7795C124.802 26.7795 117.428 47.0376 129.674 64.9306C141.92 82.8237 159.789 90.1691 179.339 88.1062C198.889 86.0432 214.757 69.3327 212.265 46.1831C209.773 23.0334 197.027 15.5327 189.722 10.2243C182.418 4.91594 163.669 0.643358 150.846 3.55217C138.022 6.46098 124.793 26.7709 124.793 26.7709L124.802 26.7795Z" fill="#8D2A00"/>
<path fill-rule="evenodd" clip-rule="evenodd" d="M162.126 8.96269C184.212 9.29068 204.323 25.164 207.048 44.4122C209.764 63.6604 194.069 78.9899 171.983 78.6619C149.897 78.3339 129.786 62.4606 127.061 43.2124C124.345 23.9642 140.04 8.63469 162.126 8.96269Z" fill="#4D82B8"/>
<mask id="mask0_4038_83046" style="mask-type:luminance" maskUnits="userSpaceOnUse" x="126" y="8" width="82" height="71">
<path d="M162.127 8.9622C184.213 9.29019 204.324 25.1635 207.049 44.4117C209.766 63.6599 194.07 78.9894 171.985 78.6614C149.899 78.3334 129.788 62.4601 127.063 43.2119C124.346 23.9637 140.042 8.6342 162.127 8.9622Z" fill="white"/>
</mask>
<g mask="url(#mask0_4038_83046)">
<path fill-rule="evenodd" clip-rule="evenodd" d="M162.126 8.96171C184.212 9.28971 204.323 25.163 207.048 44.4112C209.764 63.6594 194.069 78.9889 171.983 78.6609C149.897 78.3329 129.786 62.4596 127.061 43.2114C124.345 23.9632 140.04 8.63371 162.126 8.96171Z" fill="#D0C1CB"/>
<path fill-rule="evenodd" clip-rule="evenodd" d="M200.623 -21.1206C202.305 -20.3524 202.796 -18.16 203.788 -16.6927C206.677 -12.5841 209.566 -8.47548 212.455 -4.3669C210.109 -2.73555 207.755 -1.1042 205.401 0.527151L203.59 -3.8749C178.831 13.155 154.071 30.1936 129.304 47.2235C127.484 50.3222 125.673 53.4209 123.853 56.5196C119.748 59.3421 115.643 62.1646 111.547 64.9871C111.34 64.849 111.133 64.7022 110.926 64.5641C110.866 64.8662 111.004 65.0734 110.711 64.8749C108.675 61.8538 106.632 58.8415 104.596 55.8204C104.053 55.0263 102.518 53.5849 102.768 52.7735L110.762 47.3702C111.254 44.8067 111.737 42.2431 112.228 39.6796L125.173 30.7028C150.32 13.4312 175.467 -3.84038 200.615 -21.112L200.623 -21.1206ZM251.599 16.8493C254.557 21.096 257.515 25.3427 260.464 29.5894C261.223 30.582 263.56 32.5672 263 34C237.646 51.3321 212.291 68.6727 186.928 86.0134C180.866 90.2255 174.795 94.4463 168.723 98.6585C167.507 99.5648 163.558 103.311 161.997 102.724L153.744 90.3032C152.778 88.9049 151.579 87.9296 150.889 86.1946C184.453 63.0795 218.018 39.9558 251.582 16.832L251.599 16.8493Z" fill="#D5DADD"/>
</g>
<path d="M174.105 81.3994C173.863 81.3994 173.63 81.3994 173.389 81.3994C149.251 81.0369 127.087 62.764 123.974 40.6502C122.525 30.3787 125.354 20.6079 131.934 13.1417C139.178 4.92448 150.423 0.3239 162.73 0.505161C186.868 0.867683 209.031 19.1405 212.145 41.2544C213.593 51.5258 210.765 61.2967 204.185 68.7629C197.079 76.8247 186.144 81.408 174.096 81.408L174.105 81.3994ZM162.014 5.18343C151.312 5.18343 141.653 9.19706 135.444 16.2404C129.787 22.6622 127.355 31.0951 128.614 39.9942C131.416 59.907 151.536 76.3759 173.458 76.7039C173.673 76.7039 173.889 76.7039 174.105 76.7039C184.807 76.7039 194.466 72.6902 200.675 65.647C206.332 59.2251 208.764 50.7922 207.505 41.8931C204.702 21.9803 184.583 5.51142 162.661 5.18343C162.445 5.18343 162.23 5.18343 162.014 5.18343Z" fill="#C35500"/>
<path fill-rule="evenodd" clip-rule="evenodd" d="M198.218 146.739C198.218 146.739 177.417 89.7976 176.805 88.1662C176.192 86.5262 176.494 82.3486 180.556 81.3473C184.618 80.3375 186.998 84.5669 187.869 86.5607C188.74 88.5546 211.274 143.813 211.274 143.813L205.936 145.712L198.218 146.748V146.739Z" fill="#C35500"/>
<path fill-rule="evenodd" clip-rule="evenodd" d="M202.96 138.825L180.296 81.1841C180.296 81.1841 175.001 83.2211 176.804 88.1583C178.615 93.0955 198.148 146.714 198.087 146.559C198.027 146.404 199.916 142.778 203.77 141.32L202.951 138.825H202.96Z" fill="#8D2A00"/>
<path fill-rule="evenodd" clip-rule="evenodd" d="M202.985 138.816L180.287 81.0713C180.287 81.0713 174.975 83.1083 176.786 88.0628C178.597 93.0086 198.164 146.722 198.112 146.567C198.061 146.412 199.941 142.786 203.804 141.319L202.985 138.825V138.816Z" fill="#8D2A00"/>
<path fill-rule="evenodd" clip-rule="evenodd" d="M211.169 143.262L207.832 135.356C207.832 135.356 205.124 132.222 200.605 133.543C196.086 134.864 195.405 139.188 195.405 139.188L198.096 146.568L211.178 143.271L211.169 143.262Z" fill="#C35500"/>
<mask id="mask1_4038_83046" style="mask-type:luminance" maskUnits="userSpaceOnUse" x="195" y="133" width="17" height="14">
<path d="M211.17 143.262L207.833 135.355C207.833 135.355 205.125 132.222 200.606 133.543C196.087 134.863 195.406 139.188 195.406 139.188L198.096 146.567L211.179 143.27L211.17 143.262Z" fill="white"/>
</mask>
<g mask="url(#mask1_4038_83046)">
<path fill-rule="evenodd" clip-rule="evenodd" d="M200.503 132.585L203.288 139.888L199.856 148.614L198.666 150.807L194.992 146.033L192.155 135.84L200.503 132.585Z" fill="#8D2A00"/>
</g>
<path fill-rule="evenodd" clip-rule="evenodd" d="M204.677 138.834C208.437 138.895 211.455 141.596 211.403 144.876C211.352 148.156 208.264 150.772 204.496 150.72C200.727 150.668 197.717 147.958 197.769 144.678C197.821 141.398 200.908 138.782 204.668 138.834H204.677Z" fill="#8D2A00"/>
<path d="M154.734 35.3239L159.141 37.3005C159.141 37.3005 159.977 34.1242 162.711 32.1648C164.85 30.6284 168.644 30.076 171.878 32.6741C178.312 37.8443 174.112 41.858 172.292 46.3204C171.387 48.5301 171.378 51.1368 172.913 53.4759L177.147 52.5955C177.147 52.5955 176.13 51.8619 176.423 48.9358C176.578 47.3649 178.363 45.4573 179.493 42.2032C181.847 35.4707 175.293 27.6333 167.463 26.9082C162.702 26.468 157.718 28.1943 154.725 35.3498L154.734 35.3239Z" fill="#00144A"/>
<path d="M180.635 61.7344C181.77 60.6531 181.594 58.6233 180.241 57.2007C178.888 55.7782 176.871 55.5016 175.736 56.583C174.601 57.6644 174.778 59.6942 176.131 61.1167C177.484 62.5392 179.5 62.8158 180.635 61.7344Z" fill="#00144A"/>
</svg>
