<svg width="320" height="166" viewBox="0 0 320 166" fill="none" xmlns="http://www.w3.org/2000/svg">
<rect y="28" width="320" height="138" rx="24" fill="#89D1FF"/>
<path d="M211.167 143.514L199.637 148.451L145.272 106.701C148.256 106.01 151.093 105.095 153.732 103.982L211.167 143.514Z" fill="#1B90FF"/>
<path d="M128.447 41.5072C154.129 43.1559 174.732 59.3917 174.456 77.7767C174.283 89.2048 166.09 98.7771 153.741 103.982L150.05 101.436L140.547 103.067L145.281 106.701C139.779 107.978 133.76 108.488 127.455 108.082C101.774 106.433 81.1712 90.1974 81.4471 71.8124C81.7231 53.4273 102.765 39.8586 128.447 41.5072Z" fill="#1B90FF"/>
<path d="M150.042 101.437L153.733 103.983C151.086 105.097 148.257 106.012 145.273 106.702L140.539 103.068L150.042 101.437Z" fill="#1B90FF"/>
<path fill-rule="evenodd" clip-rule="evenodd" d="M259.842 99.8301C259.842 99.8301 259.092 101.72 258.669 102.299C258.246 102.877 257.393 104.025 255.056 104.025C252.719 104.025 224.527 103.542 223.009 103.542C221.492 103.542 217.895 102.42 216.084 99.5798C214.273 96.74 214.049 94.0643 216.49 91.6733L247.113 94.9101L259.851 99.8387L259.842 99.8301Z" fill="#0040B0"/>
<path fill-rule="evenodd" clip-rule="evenodd" d="M241.196 79.1142L210.572 75.8774C208.132 78.277 208.356 80.9441 210.167 83.7839C211.978 86.6323 215.574 87.7457 217.092 87.7457C218.61 87.7457 246.801 88.2291 249.138 88.2291C251.475 88.2291 252.329 87.0897 252.752 86.5028C253.174 85.9159 253.924 84.0342 253.924 84.0342L241.187 79.1056L241.196 79.1142Z" fill="#0040B0"/>
<path fill-rule="evenodd" clip-rule="evenodd" d="M235.203 62.3511L204.58 59.1143C202.139 61.5138 202.363 64.1809 204.174 67.0207C205.985 69.8691 209.582 70.9825 211.099 70.9825C212.617 70.9825 240.809 71.4659 243.146 71.4659C245.483 71.4659 246.337 70.3266 246.759 69.7396C247.182 69.1527 247.932 67.271 247.932 67.271L235.195 62.3424L235.203 62.3511Z" fill="#0040B0"/>
<path d="M259.617 96.7153C260.781 99.8399 259.203 102.334 256.098 102.291L223.716 101.808C220.611 101.765 217.153 99.1925 215.997 96.0679C214.833 92.9433 216.411 90.4402 219.516 90.492L251.899 90.9754C255.003 91.0185 258.461 93.5907 259.617 96.7153Z" fill="#0070F2"/>
<path d="M253.754 80.8931C254.909 84.0177 253.331 86.5122 250.226 86.4691L217.852 85.9857C214.739 85.9339 211.29 83.3617 210.125 80.2371C208.97 77.1125 210.548 74.618 213.653 74.6612L246.027 75.1532C249.131 75.1963 252.589 77.7685 253.754 80.8931Z" fill="#56BDFF"/>
<path d="M247.647 64.4415C248.803 67.5661 247.224 70.0606 244.12 70.0174L211.746 69.534C208.641 69.4823 205.183 66.9101 204.019 63.7855C202.863 60.6609 204.441 58.1664 207.546 58.2095L239.92 58.6929C243.025 58.7447 246.483 61.3169 247.647 64.4415Z" fill="#0070F2"/>
<path d="M254.357 97.1791C254.641 98.1026 254.21 98.8449 253.408 98.8277C252.606 98.8104 251.718 98.0422 251.442 97.1186C251.157 96.1864 251.58 95.4528 252.382 95.47C253.192 95.4873 254.072 96.2469 254.357 97.1791Z" fill="#56BDFF"/>
<path d="M249.045 97.0672C249.33 97.9908 248.907 98.7331 248.096 98.7159C247.294 98.6986 246.415 97.9304 246.13 97.0068C245.845 96.0746 246.268 95.3409 247.079 95.3582C247.881 95.3755 248.76 96.135 249.045 97.0672Z" fill="#56BDFF"/>
<path d="M243.732 96.9554C244.016 97.879 243.594 98.6213 242.792 98.5954C241.99 98.5781 241.101 97.8186 240.817 96.8864C240.532 95.9628 240.963 95.2291 241.765 95.2464C242.567 95.2637 243.456 96.0232 243.732 96.9554Z" fill="#56BDFF"/>
<path d="M241.396 63.8191C241.568 64.406 241.24 64.8635 240.663 64.8462L229.633 64.6132C229.055 64.6046 228.451 64.1212 228.279 63.5429C228.106 62.9646 228.434 62.5071 229.012 62.5157L240.042 62.7488C240.619 62.7661 241.223 63.2408 241.396 63.8191Z" fill="#56BDFF"/>
<path d="M228.864 80.1666C229.037 80.7449 228.709 81.2024 228.14 81.1938L217.101 80.9607C216.524 80.9434 215.92 80.4687 215.747 79.8904C215.575 79.3035 215.903 78.846 216.48 78.8633L227.51 79.0963C228.088 79.0963 228.692 79.5883 228.864 80.1666Z" fill="#0070F2"/>
<path fill-rule="evenodd" clip-rule="evenodd" d="M119.342 50.7923C119.342 50.7923 83.3197 50.145 81.1378 50.1191C78.956 50.0932 76.205 49.4976 75.0494 46.5888C73.8938 43.68 60.8976 8.61029 60.4319 7.28967C59.9662 5.96905 59.7765 5.09727 60.3802 3.84571C60.7855 3.00845 60.9062 2.49057 61.3029 2.14531C62.1222 1.43753 63.3899 1.71373 63.7348 1.80005C86.6744 2.59414 109.605 3.39687 132.545 4.19097L141.238 28.6008L119.35 50.7837L119.342 50.7923Z" fill="#0040B0"/>
<path d="M151.104 45.3537C151.854 47.3821 150.837 48.9962 148.827 48.9703L81.0438 47.9518C79.0344 47.9259 76.7922 46.2601 76.0333 44.2317L61.2865 4.62178C60.5276 2.59338 61.5538 0.979296 63.5632 1.00519L131.338 2.01507C133.356 2.0496 135.598 3.71547 136.349 5.74387L151.104 45.3537Z" fill="#56BDFF"/>
<path fill-rule="evenodd" clip-rule="evenodd" d="M111.865 24.7925C109.002 16.4286 99.8344 9.54927 91.383 9.42843C89.641 9.40253 88.0714 9.67874 86.6916 10.188L97.7388 24.6285L80.4307 18.8454C80.3358 20.5458 80.5859 22.3929 81.2499 24.335C84.1044 32.6903 93.2802 39.5782 101.732 39.699C110.183 39.8285 114.719 33.1477 111.856 24.7925H111.865Z" fill="#0070F2"/>
<path fill-rule="evenodd" clip-rule="evenodd" d="M202.356 95.8577C202.235 96.2375 202.028 96.7985 201.709 97.4459C201.424 98.0156 201.278 98.3004 201.019 98.5421C200.321 99.1808 199.251 99.0427 198.975 99.0427C197.199 99.0168 134.486 97.9724 133.08 97.9552C131.666 97.9379 130.735 97.4718 129.984 95.8232C129.234 94.1746 104.233 27.5999 103.897 26.7541C103.561 25.9082 103.457 25.1745 104.035 24.2509C104.613 23.336 105.001 22.6973 105.001 22.6973L163.419 49.9814C176.398 65.2764 189.386 80.5714 202.364 95.8663L202.356 95.8577Z" fill="#00144A"/>
<path fill-rule="evenodd" clip-rule="evenodd" d="M201.045 95.7189L155.312 95.0371L134.209 94.7177C133.054 94.7004 131.769 93.751 131.338 92.5944L109.58 34.7893L105.138 22.9987C104.699 21.8421 105.276 20.9185 106.432 20.9358L173.267 21.937C174.423 21.9543 175.708 22.9038 176.139 24.0604L202.338 93.656C202.778 94.8126 202.2 95.7362 201.045 95.7189Z" fill="white"/>
<path fill-rule="evenodd" clip-rule="evenodd" d="M175.001 69.2791C174.837 80.3879 167.084 89.7358 155.312 95.0355L134.21 94.7161C133.054 94.6988 131.769 93.7494 131.338 92.5928L109.58 34.7877C115.505 33.2254 122.085 32.5694 128.992 33.0096C154.674 34.6496 175.277 50.8941 175.001 69.2791Z" fill="#1B90FF"/>
<path fill-rule="evenodd" clip-rule="evenodd" d="M124.802 26.2795C124.802 26.2795 117.428 46.5376 129.674 64.4306C141.92 82.3237 159.789 89.6691 179.339 87.6062C198.889 85.5432 214.757 68.8327 212.265 45.6831C209.773 22.5334 197.027 15.0327 189.722 9.72431C182.418 4.41594 163.669 0.143358 150.846 3.05217C138.022 5.96098 124.793 26.2709 124.793 26.2709L124.802 26.2795Z" fill="#8D2A00"/>
<path fill-rule="evenodd" clip-rule="evenodd" d="M162.126 8.46269C184.212 8.79068 204.323 24.664 207.048 43.9122C209.764 63.1604 194.069 78.4899 171.983 78.1619C149.897 77.8339 129.787 61.9606 127.061 42.7124C124.345 23.4642 140.04 8.13469 162.126 8.46269Z" fill="#56BDFF"/>
<mask id="mask0_4003_75417" style="mask-type:luminance" maskUnits="userSpaceOnUse" x="126" y="8" width="82" height="71">
<path d="M162.128 8.4622C184.213 8.79019 204.324 24.6635 207.049 43.9117C209.766 63.1599 194.07 78.4894 171.985 78.1614C149.899 77.8334 129.788 61.9601 127.063 42.7119C124.346 23.4637 140.042 8.1342 162.128 8.4622Z" fill="white"/>
</mask>
<g mask="url(#mask0_4003_75417)">
<path fill-rule="evenodd" clip-rule="evenodd" d="M162.126 8.46171C184.212 8.78971 204.323 24.663 207.048 43.9112C209.764 63.1594 194.069 78.4889 171.983 78.1609C149.897 77.8329 129.787 61.9596 127.061 42.7114C124.345 23.4632 140.04 8.13371 162.126 8.46171Z" fill="#FFEAF4"/>
<path fill-rule="evenodd" clip-rule="evenodd" d="M200.623 -21.6206C202.305 -20.8524 202.796 -18.66 203.788 -17.1927C206.677 -13.0841 209.566 -8.97548 212.455 -4.8669C210.11 -3.23555 207.755 -1.6042 205.401 0.0271511L203.59 -4.3749C178.831 12.655 154.072 29.6936 129.304 46.7235C127.484 49.8222 125.673 52.9209 123.853 56.0196C119.749 58.8421 115.644 61.6646 111.547 64.4871C111.34 64.349 111.133 64.2022 110.926 64.0641C110.866 64.3662 111.004 64.5734 110.711 64.3749C108.675 61.3538 106.632 58.3415 104.596 55.3204C104.053 54.5263 102.518 53.0849 102.768 52.2735L110.762 46.8702C111.254 44.3067 111.737 41.7431 112.228 39.1796L125.173 30.2028C150.32 12.9312 175.467 -4.34038 200.615 -21.612L200.623 -21.6206ZM251.599 16.3493C254.557 20.596 257.515 24.8427 260.464 29.0894C261.223 30.082 263.56 32.0672 263 33.5C237.646 50.8321 212.291 68.1727 186.929 85.5134C180.866 89.7255 174.795 93.9463 168.724 98.1585C167.508 99.0648 163.558 102.811 161.997 102.224L153.744 89.8032C152.778 88.4049 151.579 87.4296 150.889 85.6946C184.453 62.5795 218.018 39.4558 251.582 16.332L251.599 16.3493Z" fill="white"/>
</g>
<path d="M174.105 80.8994C173.863 80.8994 173.63 80.8994 173.389 80.8994C149.251 80.5369 127.087 62.264 123.974 40.1502C122.525 29.8787 125.354 20.1079 131.934 12.6417C139.178 4.42448 150.424 -0.1761 162.73 0.00516114C186.868 0.367683 209.031 18.6405 212.145 40.7544C213.593 51.0258 210.765 60.7967 204.185 68.2629C197.079 76.3247 186.144 80.908 174.096 80.908L174.105 80.8994ZM162.014 4.68343C151.312 4.68343 141.653 8.69706 135.444 15.7404C129.787 22.1622 127.355 30.5951 128.614 39.4942C131.416 59.407 151.536 75.8759 173.458 76.2039C173.673 76.2039 173.889 76.2039 174.105 76.2039C184.807 76.2039 194.466 72.1902 200.675 65.147C206.332 58.7251 208.764 50.2922 207.505 41.3931C204.702 21.4803 184.583 5.01142 162.661 4.68343C162.445 4.68343 162.23 4.68343 162.014 4.68343Z" fill="#C35500"/>
<path fill-rule="evenodd" clip-rule="evenodd" d="M198.218 146.239C198.218 146.239 177.417 89.2976 176.805 87.6662C176.192 86.0262 176.494 81.8486 180.556 80.8473C184.618 79.8375 186.998 84.0669 187.869 86.0607C188.74 88.0546 211.274 143.313 211.274 143.313L205.936 145.212L198.218 146.248V146.239Z" fill="#C35500"/>
<path fill-rule="evenodd" clip-rule="evenodd" d="M202.96 138.325L180.296 80.6841C180.296 80.6841 175.001 82.7211 176.804 87.6583C178.615 92.5955 198.148 146.214 198.087 146.059C198.027 145.904 199.916 142.278 203.77 140.82L202.951 138.325H202.96Z" fill="#8D2A00"/>
<path fill-rule="evenodd" clip-rule="evenodd" d="M202.985 138.316L180.287 80.5713C180.287 80.5713 174.975 82.6083 176.786 87.5628C178.597 92.5086 198.164 146.222 198.112 146.067C198.061 145.912 199.941 142.286 203.804 140.819L202.985 138.325V138.316Z" fill="#8D2A00"/>
<path fill-rule="evenodd" clip-rule="evenodd" d="M211.17 142.762L207.832 134.856C207.832 134.856 205.124 131.722 200.605 133.043C196.086 134.364 195.405 138.688 195.405 138.688L198.096 146.068L211.178 142.771L211.17 142.762Z" fill="#C35500"/>
<mask id="mask1_4003_75417" style="mask-type:luminance" maskUnits="userSpaceOnUse" x="195" y="132" width="17" height="15">
<path d="M211.17 142.762L207.833 134.855C207.833 134.855 205.125 131.722 200.606 133.043C196.087 134.363 195.406 138.688 195.406 138.688L198.096 146.067L211.179 142.77L211.17 142.762Z" fill="white"/>
</mask>
<g mask="url(#mask1_4003_75417)">
<path fill-rule="evenodd" clip-rule="evenodd" d="M200.503 132.085L203.288 139.388L199.856 148.114L198.666 150.307L194.992 145.533L192.155 135.34L200.503 132.085Z" fill="#8D2A00"/>
</g>
<path fill-rule="evenodd" clip-rule="evenodd" d="M204.677 138.334C208.437 138.395 211.455 141.096 211.403 144.376C211.352 147.656 208.264 150.272 204.496 150.22C200.727 150.168 197.717 147.458 197.769 144.178C197.821 140.898 200.908 138.282 204.668 138.334H204.677Z" fill="#8D2A00"/>
<path d="M154.734 34.8239L159.141 36.8005C159.141 36.8005 159.977 33.6242 162.711 31.6648C164.85 30.1284 168.644 29.576 171.878 32.1741C178.312 37.3443 174.112 41.358 172.292 45.8204C171.387 48.0301 171.378 50.6368 172.913 52.9759L177.147 52.0955C177.147 52.0955 176.13 51.3619 176.423 48.4358C176.578 46.8649 178.363 44.9573 179.493 41.7032C181.847 34.9707 175.293 27.1333 167.463 26.4082C162.702 25.968 157.718 27.6943 154.725 34.8498L154.734 34.8239Z" fill="#00144A"/>
<path d="M180.635 61.2344C181.77 60.1531 181.594 58.1233 180.241 56.7007C178.888 55.2782 176.871 55.0016 175.736 56.083C174.601 57.1644 174.778 59.1942 176.131 60.6167C177.484 62.0392 179.5 62.3158 180.635 61.2344Z" fill="#00144A"/>
</svg>
