<svg width="45" height="45" viewBox="0 0 45 45" fill="none" xmlns="http://www.w3.org/2000/svg">
<path fill-rule="evenodd" clip-rule="evenodd" d="M2.11758 41.3639V39.1083C2.11758 33.1028 6.98599 28.2344 12.9915 28.2344H32.0089C38.0144 28.2344 42.8828 33.1028 42.8828 39.1083V41.3639H2.11758Z" fill="#CEDBE8"/>
<path fill-rule="evenodd" clip-rule="evenodd" d="M1.11757 42.3639H43.8828V39.1083C43.8828 32.5505 38.5667 27.2344 32.0089 27.2344H12.9915C6.4337 27.2344 1.11757 32.5505 1.11757 39.1083V42.3639ZM2.11757 39.1083C2.11757 33.1028 6.98599 28.2344 12.9915 28.2344H32.0089C38.0144 28.2344 42.8828 33.1028 42.8828 39.1083V41.3639H2.11757V39.1083Z" fill="#688FB7"/>
<path d="M30.3506 37.2187C30.3506 36.5122 29.7778 35.9395 29.0713 35.9395H15.9287C15.2222 35.9395 14.6494 36.5122 14.6494 37.2187V41.3648H30.3506V37.2187Z" fill="#F58B00"/>
<path fill-rule="evenodd" clip-rule="evenodd" d="M9.26367 12.6074V17.1765V21.7456C9.26367 21.7456 6.05313 21.2743 6.17787 17.8407V17.1765V16.5128C6.05313 13.0787 9.26367 12.6074 9.26367 12.6074Z" fill="#688FB7"/>
<path fill-rule="evenodd" clip-rule="evenodd" d="M35.9536 12.6074V17.1765V21.7456C35.9536 21.7456 39.1642 21.2743 39.0394 17.8407V17.1765V16.5128C39.1642 13.0787 35.9536 12.6074 35.9536 12.6074Z" fill="#688FB7"/>
<path d="M9.20898 16.7176C9.25237 20.5924 10.3459 22.5368 13.2378 25.0484C18.444 28.7813 27.607 28.0846 31.9208 25.0364C34.5322 23.2579 36.0492 20.4329 36.0049 16.4143C35.9169 8.84621 30.4745 1.97834 22.5993 2.06129C14.7275 2.14339 9.12178 9.14781 9.20898 16.7176Z" fill="#CEDBE8"/>
<path fill-rule="evenodd" clip-rule="evenodd" d="M12.6186 25.8324L12.6564 25.8595C15.4938 27.894 19.3253 28.6753 22.9402 28.5833C26.5467 28.4915 30.1246 27.5258 32.4913 25.8565C35.4062 23.8679 37.0523 20.7119 37.0049 16.4024L37.0049 16.4018C36.912 8.41918 31.1436 0.971256 22.5897 1.06136C14.0659 1.15026 8.11839 8.7117 8.21074 16.7283C8.23351 18.759 8.53261 20.3763 9.26185 21.8392C9.98661 23.293 11.0943 24.5085 12.5835 25.8019L12.6186 25.8324ZM9.20983 16.7167C9.25322 20.5916 10.3468 22.536 13.2387 25.0475C18.4449 28.7805 27.6078 28.0837 31.9216 25.0356C34.5331 23.2571 36.05 20.4321 36.0058 16.4134C35.9177 8.84538 30.4753 1.97751 22.6001 2.06046C14.7284 2.14256 9.12262 9.14698 9.20983 16.7167Z" fill="#688FB7"/>
<path fill-rule="evenodd" clip-rule="evenodd" d="M11.8523 16.8962C11.9173 22.6603 16.3021 25.1586 22.7942 25.09C29.2859 25.019 33.5208 22.4049 33.4573 16.6444C33.3903 10.8832 29.0444 7.14521 22.5523 7.21382C16.0626 7.28203 11.7857 11.1338 11.8523 16.8962Z" fill="#688FB7"/>
<circle cx="3.3467" cy="3.3467" r="3.3467" transform="matrix(-0.983212 -0.182469 -0.182469 0.983212 31.3242 10.793)" fill="white"/>
<path fill-rule="evenodd" clip-rule="evenodd" d="M22.5077 27.7611H22.8019C22.8019 27.7611 29.1229 27.9761 32.9444 24.6264C32.9555 24.6166 32.9725 24.6208 32.9716 24.6357C32.9414 25.1351 32.3854 30.8146 22.8019 30.8146H22.5077C12.9237 30.8146 12.3681 25.1351 12.3379 24.6357C12.3371 24.6208 12.3541 24.6166 12.3652 24.6264C16.1866 27.9761 22.5077 27.7611 22.5077 27.7611Z" fill="#688FB7"/>
</svg>
