<svg width="320" height="240" viewBox="0 0 320 240" fill="none" xmlns="http://www.w3.org/2000/svg">
<rect y="51" width="320" height="138" rx="24" fill="#89D1FF"/>
<path d="M208.208 163.579L157.886 151.768C157.765 151.731 157.644 151.712 157.523 151.74L64.3573 164.669C60.7979 165.079 60.4625 166.076 61.5433 166.598L111.967 178.838C114.157 179.583 116.486 179.76 118.76 179.35L205.04 165.247C208.329 164.809 208.99 163.831 208.208 163.579Z" fill="#1B90FF"/>
<path d="M178.502 65.687L206.933 147.351C207.539 150.469 204.241 152.851 202.299 153.017L113.36 165.634C111.844 165.763 110.458 164.76 110.112 163.273L89.0066 74.8394C88.2559 71.2015 91.2802 66.8419 93.193 66.7553L175.427 63.5072C176.827 63.4423 178.097 64.3373 178.502 65.687Z" fill="#0040B0"/>
<path d="M180.84 63.1903L206.803 146.644C207.366 148.513 206.074 150.426 204.125 150.592L115.698 163.137C114.182 163.267 112.797 162.263 112.45 160.777L90.9118 70.5165C90.4715 68.6471 91.843 66.8426 93.7629 66.7488L177.765 61.0033C179.165 60.9384 180.436 61.8334 180.84 63.1831V63.1903Z" fill="#56BDFF"/>
<path d="M124.958 71.2621L126.118 75.5826C126.199 75.8728 125.989 76.163 125.691 76.1791L109.884 77.1786C109.731 77.1867 109.675 77.3802 109.804 77.4688L190.717 135.304C190.846 135.393 191.007 135.272 190.967 135.127L186.187 119.473C186.098 119.191 186.292 118.893 186.59 118.861L190.757 118.417C190.983 118.393 191.193 118.53 191.265 118.748L199.052 143.921C199.14 144.203 198.955 144.494 198.657 144.534L174.547 147.702C174.313 147.734 174.096 147.589 174.031 147.363L172.637 142.559C172.556 142.277 172.742 141.995 173.032 141.954L188.202 140.044C188.347 140.028 188.395 139.835 188.275 139.754L106.749 81.5153C106.628 81.4266 106.466 81.5395 106.499 81.6846L110.44 97.3465C110.513 97.6287 110.311 97.9108 110.021 97.935L105.217 98.3219C104.983 98.338 104.774 98.1848 104.717 97.9591L98.5428 72.9871C98.4702 72.6969 98.6798 72.4148 98.978 72.3986L124.466 70.9074C124.692 70.8913 124.893 71.0444 124.95 71.2621L124.958 71.2621Z" fill="#0040B0"/>
<path d="M122.603 50.4515L141.21 119.299C141.609 120.751 143.018 121.691 144.52 121.499L223.262 111.298C227.924 110.116 229.255 106.358 228.622 104.543L203.907 41.7815C203.459 40.5003 202.213 39.6745 200.861 39.76L126.276 40.7067C124.361 40.8277 120.517 43.5824 122.603 50.4587V50.4515Z" fill="#00144A"/>
<path d="M123.586 44.5094L143.111 116.681C143.51 118.133 144.919 119.073 146.421 118.881L226.159 108.552C228.067 108.303 229.263 106.367 228.629 104.552L205.801 39.1565C205.353 37.8753 204.107 37.0495 202.755 37.135L126.312 40.6798C124.397 40.8008 123.073 42.6516 123.586 44.5023V44.5094Z" fill="white"/>
<path d="M207.899 45.1561L205.748 39.0262C205.3 37.7458 204.055 36.9207 202.703 37.006L126.315 40.5413C124.394 40.6622 123.078 42.5117 123.583 44.3682L125.129 49.7227L207.891 45.1561H207.899Z" fill="#56BDFF"/>
<path d="M169.059 67.9068L160.374 68.6275C159.898 68.6693 159.613 69.0329 159.744 69.4454L171.389 105.781C171.527 106.214 172.036 106.517 172.519 106.461L181.318 105.442C181.793 105.386 182.071 104.995 181.926 104.569L170.154 68.5808C170.024 68.1752 169.529 67.872 169.06 67.9137L169.059 67.9068Z" fill="#56BDFF"/>
<path d="M205.957 82.9645L197.681 83.7825C197.225 83.831 196.969 84.1941 197.106 84.6065L203.067 102.123C203.212 102.542 203.7 102.838 204.155 102.783L212.478 101.812C212.933 101.757 213.183 101.38 213.038 100.968L207.024 83.6181C206.887 83.2127 206.406 82.9162 205.957 82.9645Z" fill="#56BDFF"/>
<path d="M156.809 81.1859L147.842 82.0214C147.345 82.0705 147.054 82.448 147.185 82.8743L154.882 107.686C155.02 108.126 155.536 108.436 156.032 108.373L165.079 107.322C165.569 107.266 165.859 106.868 165.722 106.435L157.932 81.8663C157.801 81.447 157.299 81.1438 156.809 81.1859Z" fill="#56BDFF"/>
<path d="M180.293 53.6194L171.875 54.2185C171.413 54.2533 171.142 54.6028 171.272 55.0015L187.449 103.923C187.587 104.349 188.089 104.645 188.558 104.596L197.115 103.601C197.577 103.546 197.841 103.162 197.696 102.743L181.36 54.28C181.23 53.8813 180.749 53.5917 180.293 53.6194Z" fill="#56BDFF"/>
<path d="M257.781 115.339C257.781 115.339 251.3 124.145 238.712 125.78C226.123 127.416 208.856 118.098 204.344 103.763C199.442 88.184 208.411 77.508 223.738 74.1859C237.77 73.0671 257.781 115.339 257.781 115.339Z" fill="#8D2A00"/>
<path d="M259.483 95.6712C264.695 109.313 257.39 122.132 242.687 123.915C227.622 125.741 211.367 115.261 206.856 100.919C202.496 87.0674 210.956 75.2372 225.305 74.0895C239.337 72.9707 254.445 82.4623 259.49 95.6639L259.483 95.6712Z" fill="#C35500"/>
<path d="M247.945 94.7117C247.815 94.3655 247.468 94.1504 247.1 94.1881L236.428 95.2824C236.056 95.3205 235.707 95.1011 235.58 94.7503L232.145 85.2824C232.019 84.935 231.675 84.7161 231.307 84.7494L225.675 85.2601C225.146 85.3081 224.804 85.8421 224.982 86.3429L228.098 95.1212C228.275 95.6182 227.939 96.1493 227.415 96.2031L217.05 97.2664C216.529 97.3198 216.193 97.844 216.363 98.3394L218.109 103.443C218.232 103.804 218.589 104.03 218.968 103.989L230.15 102.762C230.525 102.721 230.88 102.943 231.006 103.298L234.519 113.186C234.646 113.545 235.006 113.767 235.384 113.721L241.147 113.022C241.667 112.959 241.993 112.428 241.814 111.936L238.52 102.859C238.34 102.363 238.672 101.829 239.196 101.772L249.103 100.687C249.631 100.63 249.963 100.09 249.777 99.5925L247.945 94.7117Z" fill="white"/>
</svg>
