<svg width="321" height="240" viewBox="0 0 321 240" fill="none" xmlns="http://www.w3.org/2000/svg">
<path d="M305.711 20.0059H14.6174C12.72 20.0041 10.8408 20.3763 9.08735 21.1012C7.33387 21.8261 5.74044 22.8895 4.39815 24.2305C3.05586 25.5716 1.99103 27.164 1.26452 28.9168C0.538005 30.6696 0.164062 32.5485 0.164063 34.4459V205.553C0.164063 209.386 1.68681 213.062 4.39734 215.773C7.10786 218.483 10.7841 220.006 14.6174 220.006H305.711C309.544 220.006 313.22 218.483 315.931 215.773C318.641 213.062 320.164 209.386 320.164 205.553V34.4459C320.164 32.5485 319.79 30.6696 319.064 28.9168C318.337 27.164 317.272 25.5716 315.93 24.2305C314.588 22.8895 312.994 21.8261 311.241 21.1012C309.487 20.3763 307.608 20.0041 305.711 20.0059Z" fill="#EBF8FF"/>
<path d="M29.6128 133.019C29.6128 131.938 26.4737 131.072 22.2795 130.875C22.0397 126.687 21.1164 123.572 20.0349 123.574C18.9533 123.577 18.0541 126.715 17.8239 130.926C13.6176 131.214 10.4905 132.153 10.5049 133.237C10.5193 134.321 13.644 135.187 17.8382 135.381C18.09 139.57 19.0013 142.685 20.0804 142.682C21.1596 142.68 22.0636 139.541 22.2938 135.331C26.5001 135.043 29.6247 134.103 29.6128 133.019Z" fill="#D1EFFF"/>
<path d="M297.169 172.858C297.169 171.952 294.54 171.228 291.028 171.063C290.828 167.555 290.054 164.947 289.149 164.949C288.243 164.951 287.49 167.579 287.297 171.105C283.775 171.346 281.157 172.133 281.169 173.041C281.181 173.948 283.798 174.673 287.31 174.836C287.52 178.343 288.283 180.951 289.187 180.949C290.091 180.947 290.848 178.319 291.04 174.793C294.562 174.552 297.179 173.765 297.169 172.858Z" fill="#D1EFFF"/>
<path d="M200.832 50.3864C200.832 49.0281 196.889 47.9409 191.621 47.694C191.32 42.4326 190.16 38.5204 188.802 38.5234C187.443 38.5265 186.314 42.4687 186.025 47.7572C180.742 48.1186 176.814 49.2992 176.832 50.6605C176.85 52.0217 180.775 53.109 186.043 53.3529C186.359 58.6143 187.504 62.5264 188.859 62.5234C190.215 62.5204 191.35 58.5781 191.639 53.2897C196.922 52.9283 200.847 51.7477 200.832 50.3864Z" fill="#D1EFFF"/>
<path fill-rule="evenodd" clip-rule="evenodd" d="M278.404 119.386L254.656 131.748L263.142 148.049L263.142 148.049C264.317 150.305 270.585 149.367 277.143 145.953C283.701 142.539 288.064 137.943 286.89 135.686C286.884 135.676 286.879 135.665 286.873 135.654L278.404 119.386Z" fill="#9EDDFF"/>
<ellipse cx="266.518" cy="125.543" rx="13.3863" ry="4.60565" transform="rotate(-27.5 266.518 125.543)" fill="#B8E6FF"/>
<path fill-rule="evenodd" clip-rule="evenodd" d="M270.741 114.315L254.897 122.562L257.826 128.189L257.827 128.189C257.827 128.189 257.827 128.189 257.827 128.189C258.558 129.594 262.698 128.886 267.073 126.609C271.448 124.331 274.402 121.346 273.671 119.941C273.667 119.934 273.663 119.928 273.659 119.921L270.741 114.315Z" fill="#9EDDFF"/>
<ellipse cx="262.82" cy="118.439" rx="8.93099" ry="2.86759" transform="rotate(-27.5 262.82 118.439)" fill="#B8E6FF"/>
<path fill-rule="evenodd" clip-rule="evenodd" d="M231.72 50.445C232.548 48.7099 232.579 46.6208 231.623 44.7843C230.007 41.679 226.179 40.4721 223.073 42.0886C219.968 43.7052 218.761 47.533 220.378 50.6383C221.334 52.4755 223.064 53.6482 224.961 53.9649L258.077 117.579C259.048 119.446 261.349 120.171 263.216 119.199C265.082 118.228 265.808 115.927 264.836 114.06L231.72 50.445Z" fill="#B8E6FF"/>
<path d="M280.633 43.329C283.066 42.9192 284.538 45.9293 282.72 47.5976L246.914 80.4622C246.342 80.9875 245.427 80.8265 245.068 80.1375L231.068 53.2438C230.698 52.5327 231.129 51.6673 231.919 51.5341L280.633 43.329Z" fill="#9EDDFF"/>
<path d="M279.562 45.5079C281.96 45.0697 283.483 47.9947 281.748 49.708L248.201 82.8447C247.636 83.4033 246.691 83.2549 246.324 82.5498L232.341 55.6886C231.974 54.9835 232.394 54.1246 233.176 53.9817L279.562 45.5079Z" fill="#D1EFFF"/>
<path d="M150.505 157.311L119.735 130.726L242.501 144.861L272.03 170.716L150.505 157.311Z" fill="#64EDD2"/>
<path d="M119.755 130.758L150.443 157.229L137.534 189.421L107.505 161.431L119.755 130.758Z" fill="#64EDD2"/>
<path d="M150.426 157.271L271.992 170.717L259.492 202.017L137.534 189.522L150.426 157.271Z" fill="#00A58A"/>
<path d="M189.586 128.506L158.816 101.92L240.355 112.204L270.107 138.045L189.586 128.506Z" fill="#F58B00"/>
<path d="M158.836 101.955L189.524 128.426L176.957 160.149L146.586 132.628L158.836 101.955Z" fill="#F58B00"/>
<path d="M189.507 128.468L270.161 138.019L257.66 169.319L176.881 160.226L189.507 128.468Z" fill="#CC7400"/>
<path fill-rule="evenodd" clip-rule="evenodd" d="M191.585 105.891L172.491 98.2656L170.083 104.295L170.083 104.295C170.083 104.295 170.083 104.295 170.083 104.295C169.535 105.667 173.366 108.486 178.638 110.591C183.911 112.697 188.629 113.292 189.177 111.92C189.18 111.913 189.183 111.906 189.185 111.899L191.585 105.891Z" fill="#CC7400"/>
<ellipse cx="182.037" cy="102.078" rx="10.2801" ry="2.67452" transform="rotate(21.7698 182.037 102.078)" fill="#F58B00"/>
<path fill-rule="evenodd" clip-rule="evenodd" d="M217.988 109.446L198.895 101.82L196.487 107.849L196.487 107.849C196.487 107.85 196.487 107.85 196.487 107.85C195.939 109.221 199.769 112.041 205.042 114.146C210.314 116.252 215.033 116.847 215.581 115.475C215.582 115.471 215.583 115.468 215.585 115.464L217.988 109.446Z" fill="#CC7400"/>
<ellipse cx="208.441" cy="105.632" rx="10.2801" ry="2.67452" transform="rotate(21.7698 208.441 105.632)" fill="#F58B00"/>
<path fill-rule="evenodd" clip-rule="evenodd" d="M243.451 112.043L224.357 104.418L221.95 110.447L221.95 110.447C221.95 110.447 221.95 110.447 221.95 110.447C221.402 111.819 225.232 114.638 230.505 116.744C235.777 118.85 240.496 119.444 241.044 118.073C241.046 118.067 241.048 118.06 241.051 118.054L243.451 112.043Z" fill="#CC7400"/>
<ellipse cx="233.904" cy="108.23" rx="10.2801" ry="2.67452" transform="rotate(21.7698 233.904 108.23)" fill="#F58B00"/>
<path fill-rule="evenodd" clip-rule="evenodd" d="M258.511 127.684L239.417 120.059L237.009 126.088L237.009 126.088C237.009 126.088 237.009 126.088 237.009 126.088C236.461 127.46 240.292 130.279 245.564 132.384C250.837 134.49 255.555 135.085 256.103 133.713C256.104 133.71 256.106 133.706 256.107 133.703L258.511 127.684Z" fill="#CC7400"/>
<ellipse cx="248.964" cy="123.871" rx="10.2801" ry="2.67452" transform="rotate(21.7698 248.964 123.871)" fill="#F58B00"/>
<path fill-rule="evenodd" clip-rule="evenodd" d="M233.837 125.2L214.743 117.574L212.335 123.603L212.335 123.603C212.335 123.603 212.335 123.604 212.335 123.604C211.787 124.975 215.617 127.794 220.89 129.9C226.163 132.006 230.881 132.601 231.429 131.229C231.431 131.223 231.433 131.217 231.436 131.211L233.837 125.2Z" fill="#CC7400"/>
<ellipse cx="224.289" cy="121.386" rx="10.2801" ry="2.67452" transform="rotate(21.7698 224.289 121.386)" fill="#F58B00"/>
<path fill-rule="evenodd" clip-rule="evenodd" d="M207.432 121.645L188.338 114.02L185.931 120.049L185.931 120.049C185.931 120.049 185.931 120.049 185.931 120.049C185.383 121.421 189.213 124.24 194.486 126.345C199.758 128.451 204.477 129.046 205.024 127.674C205.026 127.671 205.027 127.667 205.028 127.664L207.432 121.645Z" fill="#CC7400"/>
<ellipse cx="197.885" cy="117.832" rx="10.2801" ry="2.67452" transform="rotate(21.7698 197.885 117.832)" fill="#F58B00"/>
<path fill-rule="evenodd" clip-rule="evenodd" d="M152.503 134.694L133.409 127.068L131.001 133.097L131.002 133.098C131.002 133.098 131.002 133.098 131.002 133.098C130.454 134.47 134.284 137.289 139.557 139.394C144.829 141.5 149.548 142.095 150.095 140.723C150.098 140.717 150.1 140.71 150.103 140.704L152.503 134.694Z" fill="#00A58A"/>
<ellipse cx="142.956" cy="130.88" rx="10.2801" ry="2.67452" transform="rotate(21.7698 142.956 130.88)" fill="#64EDD2"/>
<path fill-rule="evenodd" clip-rule="evenodd" d="M168.352 150.448L149.258 142.822L146.851 148.848C146.851 148.849 146.85 148.85 146.85 148.852C146.302 150.223 150.132 153.042 155.405 155.148C160.678 157.254 165.396 157.849 165.944 156.477C165.944 156.477 165.944 156.477 165.944 156.477L168.352 150.448Z" fill="#00A58A"/>
<ellipse cx="158.804" cy="146.634" rx="10.2801" ry="2.67452" transform="rotate(21.7698 158.804 146.634)" fill="#64EDD2"/>
<path d="M77.1365 91.0385L36.4812 91.8732L103.954 44.9511L143.356 44.2444L77.1365 91.0385Z" fill="#0070F2"/>
<path d="M36.5187 91.8849L77.0368 91.0203L88.4099 121.875L47.9415 122.875L36.5187 91.8849Z" fill="#004DA5"/>
<path d="M77.0516 91.0625L143.377 44.1885L155.033 75.8128L88.4094 121.876L77.0516 91.0625Z" fill="#005DC9"/>
<path fill-rule="evenodd" clip-rule="evenodd" d="M63.4877 72.8951L44.1963 80.0059L46.4416 86.0973L46.4417 86.0973C46.4417 86.0973 46.4417 86.0974 46.4418 86.0975C46.9526 87.4834 51.6853 87.0151 57.0124 85.0516C62.3396 83.088 66.244 80.3727 65.7331 78.9867C65.7316 78.9827 65.7301 78.9786 65.7285 78.9746L63.4877 72.8951Z" fill="#004DA5"/>
<ellipse cx="53.8417" cy="76.4502" rx="10.2801" ry="2.67452" transform="rotate(-20.2337 53.8417 76.4502)" fill="#005DC9"/>
<path fill-rule="evenodd" clip-rule="evenodd" d="M85.4872 57.8658L66.1958 64.9766L68.4411 71.068L68.4414 71.0679C68.4414 71.068 68.4414 71.0681 68.4415 71.0682C68.9523 72.4541 73.685 71.9859 79.0122 70.0223C84.3393 68.0587 88.2437 65.3434 87.7329 63.9575C87.7305 63.951 87.728 63.9445 87.7254 63.9381L85.4872 57.8658Z" fill="#004DA5"/>
<ellipse cx="75.8412" cy="61.4209" rx="10.2801" ry="2.67452" transform="rotate(-20.2337 75.8412 61.4209)" fill="#005DC9"/>
<path fill-rule="evenodd" clip-rule="evenodd" d="M106.147 42.7584L86.856 49.8691L89.1013 55.9606L89.1013 55.9606C89.1013 55.9607 89.1014 55.9608 89.1014 55.961C89.6123 57.3469 94.3449 56.8786 99.6721 54.9151C104.999 52.9515 108.904 50.2362 108.393 48.8502C108.392 48.8484 108.391 48.8467 108.391 48.8449L106.147 42.7584Z" fill="#004DA5"/>
<ellipse cx="96.5013" cy="46.3135" rx="10.2801" ry="2.67452" transform="rotate(-20.2337 96.5013 46.3135)" fill="#005DC9"/>
<path fill-rule="evenodd" clip-rule="evenodd" d="M127.805 44.3033L108.513 51.4141L110.758 57.5055L110.759 57.5054C110.759 57.5055 110.759 57.5056 110.759 57.5057C111.27 58.8917 116.002 58.4234 121.33 56.4598C126.657 54.4962 130.561 51.7809 130.05 50.395C130.048 50.3885 130.045 50.3821 130.043 50.3757L127.805 44.3033Z" fill="#004DA5"/>
<ellipse cx="118.159" cy="47.8584" rx="10.2801" ry="2.67452" transform="rotate(-20.2337 118.159 47.8584)" fill="#005DC9"/>
<path fill-rule="evenodd" clip-rule="evenodd" d="M107.806 58.9674L88.5142 66.0781L90.7586 72.1672C90.7589 72.1681 90.7592 72.169 90.7596 72.1699C91.2704 73.5559 96.0031 73.0876 101.33 71.124C106.657 69.1605 110.562 66.4451 110.051 65.0592C110.051 65.0591 110.051 65.059 110.051 65.0589L107.806 58.9674Z" fill="#004DA5"/>
<ellipse cx="98.1595" cy="62.5225" rx="10.2801" ry="2.67452" transform="rotate(-20.2337 98.1595 62.5225)" fill="#005DC9"/>
<path fill-rule="evenodd" clip-rule="evenodd" d="M85.806 73.9967L66.5146 81.1074L68.7599 87.1989L68.7602 87.1988C68.7602 87.1988 68.7602 87.1989 68.7603 87.1989C69.2711 88.5849 74.0038 88.1166 79.3309 86.153C84.6581 84.1894 88.5625 81.4741 88.0516 80.0882C88.0493 80.0818 88.0469 80.0755 88.0443 80.0692L85.806 73.9967Z" fill="#004DA5"/>
<ellipse cx="76.16" cy="77.5518" rx="10.2801" ry="2.67452" transform="rotate(-20.2337 76.16 77.5518)" fill="#005DC9"/>
<rect x="59.3735" y="140.338" width="18.3605" height="45.4466" transform="rotate(44.3357 59.3735 140.338)" fill="#D1EFFF"/>
<rect x="72.5059" y="153.17" width="35.3742" height="45.4466" transform="rotate(44.3357 72.5059 153.17)" fill="#B8E6FF"/>
<rect x="82.126" y="162.568" width="21.9245" height="45.4466" transform="rotate(44.3357 82.126 162.568)" fill="#9EDDFF"/>
<rect x="63.2246" y="162.668" width="16.9292" height="20.1533" transform="rotate(44.3357 63.2246 162.668)" fill="#9EDDFF"/>
<path d="M74.1687 187.12C70.407 191.224 64.7503 192.161 61.5342 189.213C58.3181 186.265 58.7605 180.549 62.5222 176.445C66.284 172.341 71.9406 171.403 75.1567 174.351C78.3728 177.299 77.9305 183.016 74.1687 187.12Z" fill="#9EDDFF"/>
<path fill-rule="evenodd" clip-rule="evenodd" d="M63.5613 187.002C65.0842 188.398 68.8268 188.508 71.9572 185.093C75.0875 181.678 74.6525 177.959 73.1296 176.563C71.6068 175.167 67.8641 175.057 64.7338 178.472C61.6034 181.887 62.0384 185.606 63.5613 187.002ZM61.5342 189.213C64.7503 192.161 70.407 191.224 74.1687 187.12C77.9305 183.016 78.3728 177.299 75.1567 174.351C71.9406 171.403 66.284 172.341 62.5222 176.445C58.7605 180.549 58.3181 186.265 61.5342 189.213Z" fill="#B8E6FF"/>
<path fill-rule="evenodd" clip-rule="evenodd" d="M92.1511 177.957L72.5714 158.826L46.4015 185.61L65.9811 204.741L92.1511 177.957ZM72.5059 153.17L40.745 185.676L66.0467 210.398L97.8075 177.892L72.5059 153.17Z" fill="#D1EFFF"/>
</svg>
