<svg width="160" height="160" viewBox="0 0 160 160" fill="none" xmlns="http://www.w3.org/2000/svg">
<mask id="mask0_2672_44871" style="mask-type:alpha" maskUnits="userSpaceOnUse" x="0" y="1" width="159" height="159">
<circle cx="79.1579" cy="80.1579" r="79.1579" fill="#EBF8FF"/>
</mask>
<g mask="url(#mask0_2672_44871)">
<path d="M201.723 -20.8945H-43.4079C-45.0057 -20.8961 -46.5881 -20.5607 -48.0648 -19.9076C-49.5414 -19.2544 -50.8832 -18.2962 -52.0136 -17.0879C-53.1439 -15.8795 -54.0406 -14.4446 -54.6524 -12.8653C-55.2642 -11.2859 -55.5791 -9.59299 -55.5791 -7.88332V146.293C-55.5791 149.747 -54.2968 153.059 -52.0142 155.502C-49.7317 157.944 -46.6359 159.316 -43.4079 159.316H201.723C204.951 159.316 208.047 157.944 210.33 155.502C212.612 153.059 213.895 149.747 213.895 146.293V-7.88332C213.895 -9.59299 213.58 -11.2859 212.968 -12.8653C212.356 -14.4446 211.459 -15.8795 210.329 -17.0879C209.199 -18.2962 207.857 -19.2544 206.38 -19.9076C204.904 -20.5607 203.321 -20.8961 201.723 -20.8945Z" fill="#EBF8FF"/>
<rect x="-28.6313" y="136.578" width="72.9653" height="10.9474" rx="3.36842" fill="#B8E6FF"/>
<rect x="38.124" y="136.578" width="161.455" height="10.9474" rx="3.36842" fill="#D1EFFF"/>
<rect x="5.89502" y="46.4727" width="37.8947" height="48" rx="4.21053" fill="#B8E6FF"/>
<rect x="7.21094" y="44.7344" width="37.8947" height="48" rx="4.21053" fill="#D1EFFF"/>
<rect x="9.7373" y="47.2598" width="32.8421" height="42.9474" rx="2.52632" fill="#EBF8FF"/>
<path fill-rule="evenodd" clip-rule="evenodd" d="M40.895 90.0642V47.4043C41.8762 47.7511 42.5792 48.6869 42.5792 49.7869V87.6816C42.5792 88.7816 41.8762 89.7174 40.895 90.0642Z" fill="#B8E6FF"/>
<mask id="mask1_2672_44871" style="mask-type:alpha" maskUnits="userSpaceOnUse" x="9" y="47" width="34" height="44">
<rect x="9.7373" y="47.2598" width="32.8421" height="42.9474" rx="2.52632" fill="#EBF8FF"/>
</mask>
<g mask="url(#mask1_2672_44871)">
<path d="M30.0098 79.1093L18.1068 81.439L16.5964 78.9793C15.6647 77.4593 15.076 75.7551 14.8712 73.9851C14.6664 72.2151 14.8504 70.4218 15.4105 68.73C15.9705 67.0382 16.8932 65.4883 18.1143 64.1883C19.3354 62.8882 20.8256 61.8691 22.4813 61.2018L26.1139 59.7398C30.7251 57.8824 35.4214 62.2286 33.9056 66.9543L30.0098 79.1093Z" fill="#B8E6FF"/>
<path d="M27.8878 97.2008L23.851 95.6751C23.427 95.5144 23.0465 95.257 22.7399 94.9234C22.4333 94.5899 22.2091 94.1894 22.0853 93.754L18.6867 81.8643C18.6133 81.6086 18.6142 81.3374 18.6894 81.0822C18.7645 80.827 18.9108 80.5983 19.1112 80.4229C19.3115 80.2474 19.5577 80.1324 19.8211 80.0912C20.0845 80.05 20.3541 80.0843 20.5987 80.1901L30.0285 84.263L30.9274 94.9136C30.9593 95.2916 30.8946 95.6715 30.7395 96.0179C30.5843 96.3642 30.3437 96.6657 30.0402 96.8941C29.7366 97.1225 29.38 97.2704 29.0036 97.3241C28.6272 97.3777 28.2433 97.3353 27.8878 97.2008Z" fill="#D1EFFF"/>
<path d="M30.4324 89.0631L30.2303 86.6459C29.4265 86.0984 28.5651 85.6402 27.6615 85.2794C25.1431 84.2552 22.8402 84.0721 22.5158 84.8681C22.1913 85.6641 23.9677 87.1367 26.4834 88.1609C28.0125 88.7818 29.4565 89.0923 30.4324 89.0631Z" fill="#B8E6FF"/>
<path d="M25.45 68.3603L29.6721 68.5892C30.3816 68.6263 31.0768 68.8026 31.718 69.1081C32.3592 69.4136 32.9337 69.8422 33.4086 70.3695C33.8835 70.8968 34.2496 71.5123 34.4858 72.1809C34.722 72.8496 34.8238 73.5581 34.7852 74.266L34.3694 81.9017C34.2917 83.3295 33.6486 84.6681 32.5817 85.6229C31.5149 86.5776 30.1116 87.0704 28.6805 86.9929L26.8776 86.8951C24.805 86.7828 22.862 85.8535 21.4761 84.3118C20.0901 82.77 19.3748 80.7421 19.4874 78.6741L19.7718 73.4521C19.8494 72.026 20.4909 70.689 21.5555 69.7344C22.62 68.7798 24.0207 68.2856 25.45 68.3603Z" fill="#D1EFFF"/>
<path d="M31.6694 75.6793L30.4142 78.9615C30.4068 78.9807 30.4042 79.0014 30.4067 79.0217C30.4092 79.0421 30.4167 79.0616 30.4285 79.0784C30.4403 79.0952 30.4562 79.1088 30.4746 79.1181C30.4929 79.1273 30.5133 79.1319 30.5339 79.1313H32.6161C32.6354 79.1316 32.6544 79.1273 32.6718 79.119C32.6891 79.1107 32.7043 79.0985 32.7162 79.0833C32.728 79.0682 32.7362 79.0505 32.7401 79.0317C32.7439 79.0128 32.7434 78.9934 32.7384 78.9748L31.9114 75.6952C31.9047 75.6693 31.89 75.6461 31.8693 75.6289C31.8486 75.6118 31.823 75.6016 31.7962 75.5999C31.7694 75.5981 31.7427 75.6049 31.7199 75.6191C31.6972 75.6334 31.6795 75.6544 31.6694 75.6793Z" fill="#B8E6FF"/>
<path d="M15.6266 72.0753L17.6714 71.4895C17.7089 71.4761 17.7487 71.4706 17.7884 71.4733C17.8281 71.4761 17.8668 71.487 17.902 71.5055C17.9372 71.524 17.9682 71.5495 17.993 71.5806C18.0178 71.6116 18.0359 71.6474 18.0461 71.6858L20.1318 78.9338C20.3095 79.5514 20.2341 80.214 19.9221 80.7761C19.6101 81.3381 19.0871 81.7535 18.4682 81.9308C18.395 81.9518 18.3164 81.9429 18.2498 81.9061C18.1832 81.8692 18.1339 81.8075 18.1129 81.7345L15.4364 72.4334C15.4253 72.3975 15.4214 72.3597 15.425 72.3222C15.4286 72.2847 15.4395 72.2483 15.4572 72.2151C15.4748 72.1818 15.4989 72.1523 15.528 72.1284C15.557 72.1044 15.5906 72.0863 15.6266 72.0753Z" fill="#B8E6FF"/>
<path d="M19.152 78.0727L17.333 77.3351L22.2793 70.9883L21.6783 74.236C21.4452 75.5046 20.9409 76.7082 20.1997 77.765C20.086 77.9272 19.9203 78.0461 19.7299 78.102C19.5395 78.158 19.3357 78.1476 19.152 78.0727Z" fill="#B8E6FF"/>
<path d="M20.2482 79.843C20.911 79.6788 21.2032 78.561 20.9008 77.3464C20.5984 76.1319 19.816 75.2805 19.1532 75.4447C18.4904 75.609 18.1982 76.7268 18.5006 77.9413C18.803 79.1559 19.5854 80.0073 20.2482 79.843Z" fill="#D1EFFF"/>
<path d="M29.2582 72.2715C34.7406 71.5192 38.9105 68.9182 38.5719 66.4618C38.2334 64.0055 33.5146 62.624 28.0322 63.3762C22.5498 64.1285 18.3799 66.7296 18.7185 69.1859C19.057 71.6423 23.7758 73.0237 29.2582 72.2715Z" fill="#B8E6FF"/>
<path d="M22.1918 70.9587L18.8154 69.5859L17.246 73.429L20.6223 74.8017L22.1918 70.9587Z" fill="#B8E6FF"/>
<path d="M21.999 64.4447C24.3394 62.0551 25.7138 59.6081 25.0688 58.9793C24.4239 58.3504 22.0038 59.7778 19.6634 62.1674C17.323 64.557 15.9486 67.0039 16.5936 67.6328C17.2385 68.2616 19.6586 66.8343 21.999 64.4447Z" fill="#B8E6FF"/>
</g>
<rect x="71.5791" y="-6.94531" width="37.8947" height="48" rx="4.21053" fill="#B8E6FF"/>
<rect x="73.2632" y="-8.26367" width="37.8947" height="48" rx="4.21053" fill="#D1EFFF"/>
<rect x="75.7896" y="-5.73828" width="32.8421" height="42.9474" rx="2.52632" fill="#EBF8FF"/>
<path fill-rule="evenodd" clip-rule="evenodd" d="M106.948 37.0661V-5.59375C107.929 -5.24706 108.631 -4.31179 108.632 -3.2123V34.6847C108.631 35.7842 107.929 36.7194 106.948 37.0661Z" fill="#B8E6FF"/>
<path d="M75.7896 17C75.7896 17 84.2106 17 89.6843 24.5789C95.158 32.1579 98.5264 37.2105 98.5264 37.2105H78.3159C76.918 37.2105 75.7896 36.0821 75.7896 34.6842V17Z" fill="#B8E6FF"/>
<path d="M96.6399 28.9228C95.2336 28.5523 93.861 29.0071 92.3705 29.8744C91.242 30.5734 90.1473 31.3397 89.0947 32.165C87.2252 33.5713 85.5831 35.2723 84.2104 37.2092H103.579C99.6968 33.3944 99.621 29.706 96.6399 28.9228Z" fill="#9EDDFF"/>
<path d="M98.7622 16.318C101.221 16.318 103.209 14.398 103.209 12.0233C103.209 9.64852 101.213 7.72852 98.7622 7.72852C96.3117 7.72852 94.3159 9.64852 94.3159 12.0233C94.3159 14.398 96.3117 16.318 98.7622 16.318Z" fill="#D1EFFF"/>
<rect x="153.263" y="6.89453" width="37.8947" height="48" rx="4.21053" fill="#B8E6FF"/>
<rect x="154.579" y="5.15625" width="37.8947" height="48" rx="4.21053" fill="#D1EFFF"/>
<rect x="157.105" y="7.68164" width="32.8421" height="42.9474" rx="2.52632" fill="#EBF8FF"/>
</g>
<rect width="37.2632" height="5.68421" rx="2.52632" transform="matrix(-1 0 0 1 82.1577 130.896)" fill="#004DA5"/>
<path d="M72.6652 134.992L70.1581 130.896H159.842V134.572C159.842 134.837 159.797 135.099 159.708 135.344C159.62 135.588 159.49 135.81 159.327 135.997C159.164 136.183 158.97 136.331 158.757 136.431C158.544 136.531 158.316 136.582 158.085 136.581H75.3303C74.8076 136.582 74.2924 136.438 73.8285 136.162C73.3645 135.885 72.9654 135.484 72.6652 134.992Z" fill="#005DC9"/>
<path d="M121.475 73.4226H35.5569C35.2534 73.4142 34.952 73.4751 34.6761 73.6008C34.4003 73.7264 34.1574 73.9133 33.9663 74.1469C33.7752 74.3806 33.6412 74.6547 33.5744 74.948C33.5077 75.2413 33.5103 75.5459 33.5817 75.8381L45.0177 129.311C45.1147 129.758 45.3636 130.16 45.723 130.448C46.0823 130.736 46.5304 130.894 46.9929 130.895H131.924C132.224 130.902 132.522 130.842 132.795 130.718C133.068 130.594 133.309 130.41 133.5 130.18C133.69 129.949 133.825 129.679 133.894 129.39C133.963 129.1 133.965 128.799 133.899 128.509L123.45 75.046C123.37 74.5868 123.127 74.1709 122.765 73.8733C122.403 73.5757 121.946 73.4159 121.475 73.4226Z" fill="#0070F2"/>
<path d="M117.563 81.8548C117.265 80.2609 115.873 79.1055 114.251 79.1055H91.6457C89.6238 79.1055 88.0575 80.8742 88.302 82.8813L91.3287 107.723C91.5347 109.414 92.9696 110.684 94.6724 110.684H118.896C121.004 110.684 122.595 108.769 122.207 106.697L117.563 81.8548Z" fill="#005DC9"/>
<path d="M46.0352 85.4531L88.8917 85.6011L104.888 85.6604C105.358 85.6535 105.815 85.8148 106.177 86.1151C106.539 86.4155 106.781 86.8351 106.861 87.2986L111.292 110.529L113.66 122.974C113.725 123.266 113.722 123.569 113.652 123.86C113.582 124.151 113.447 124.422 113.257 124.653C113.067 124.884 112.827 125.069 112.555 125.193C112.283 125.318 111.986 125.379 111.687 125.372H52.6369C52.167 125.366 51.7135 125.198 51.3537 124.895C50.9939 124.593 50.7499 124.176 50.6633 123.714L44.0616 87.8413C44.0083 87.5509 44.0192 87.2524 44.0935 86.9667C44.1679 86.6809 44.3039 86.4149 44.492 86.1873C44.68 85.9598 44.9156 85.7761 45.1822 85.6493C45.4488 85.5224 45.74 85.4555 46.0352 85.4531Z" fill="white"/>
<path d="M77.95 88.5816C75.872 88.5516 73.8107 88.957 71.8983 89.7718C69.9889 90.5971 68.2729 91.8133 66.8605 93.3424C65.4588 94.891 64.3969 96.7169 63.7436 98.7022C63.0908 100.687 62.8641 102.788 63.0782 104.867C63.8703 113.802 71.7914 121.09 80.7144 121.09C82.7913 121.122 84.8517 120.716 86.7621 119.899C88.6713 119.083 90.3878 117.873 91.7999 116.349C93.2042 114.801 94.2676 112.975 94.9208 110.989C95.5737 109.002 95.8004 106.9 95.5862 104.82C94.8059 95.8497 86.9126 88.5816 77.95 88.5816ZM91.1979 115.758C89.8655 117.197 88.2464 118.34 86.4453 119.114C84.6395 119.884 82.6928 120.268 80.7303 120.241C72.1993 120.241 64.6585 113.306 63.9099 104.768C63.7075 102.816 63.9167 100.842 64.5238 98.9759C65.138 97.0971 66.1391 95.3684 67.4625 93.9018C68.7943 92.4626 70.4136 91.3204 72.2152 90.5494C74.0189 89.7769 75.9647 89.393 77.9262 89.4227C86.4532 89.4227 94.002 96.3536 94.7465 104.875C94.9513 106.841 94.7394 108.829 94.1247 110.707C93.5137 112.586 92.5121 114.314 91.186 115.777L91.1979 115.758Z" fill="#F58B00"/>
<path d="M78.1557 91.5137C70.8526 91.5137 65.3989 97.4964 66.0405 104.816C66.6821 112.136 73.1695 118.118 80.4806 118.118C87.7917 118.118 93.2374 112.132 92.5997 104.816C91.9621 97.5003 85.4589 91.5137 78.1557 91.5137ZM85.2847 101.753L78.0132 109.735C77.8933 109.861 77.7492 109.962 77.5896 110.03C77.4299 110.099 77.2581 110.134 77.0844 110.134C76.9108 110.134 76.7389 110.099 76.5793 110.03C76.4196 109.962 76.2755 109.861 76.1557 109.735L73.2685 107.077C73.1327 106.968 73.0204 106.832 72.9383 106.678C72.8561 106.524 72.8058 106.354 72.7903 106.18C72.7747 106.006 72.7943 105.831 72.8479 105.665C72.9015 105.499 72.988 105.345 73.1021 105.213C73.2223 105.087 73.3668 104.986 73.5267 104.918C73.6867 104.849 73.8589 104.814 74.0329 104.814C74.2068 104.814 74.379 104.849 74.539 104.918C74.6989 104.986 74.8434 105.087 74.9636 105.213L76.8409 106.942L83.2648 99.8926C83.3846 99.7667 83.5287 99.6665 83.6884 99.598C83.848 99.5295 84.0199 99.4942 84.1935 99.4942C84.3672 99.4942 84.5391 99.5295 84.6987 99.598C84.8583 99.6665 85.0024 99.7667 85.1223 99.8926C85.2582 100.002 85.3707 100.137 85.4532 100.291C85.5357 100.444 85.5864 100.613 85.6023 100.787C85.6182 100.96 85.5989 101.135 85.5457 101.302C85.4925 101.468 85.4064 101.621 85.2926 101.753H85.2847Z" fill="#00A800"/>
</svg>
