<svg width="128" height="55" viewBox="0 0 128 55" fill="none" xmlns="http://www.w3.org/2000/svg">
<rect width="128" height="55" rx="8" fill="#222F3B"/>
<path d="M88.613 40.7425C87.3586 39.5551 82.6039 35.058 77.0572 29.794C77.052 29.7888 77.0467 29.7837 77.0415 29.7785C76.2216 28.84 75.3894 27.8877 74.5537 26.9321C74.5467 26.9235 74.5397 26.9149 74.5327 26.9046C72.059 23.0458 69.6308 19.2453 67.6756 16.1603C67.5968 16.0351 67.518 15.9115 67.4409 15.7897C67.4391 15.7863 67.4374 15.7828 67.4356 15.7794C67.3638 15.6662 67.2937 15.5546 67.2219 15.4431C67.2114 15.426 67.2009 15.4088 67.1903 15.3916C67.122 15.2835 67.0554 15.1772 66.9889 15.0725C66.9836 15.0656 66.9784 15.0571 66.9749 15.0502C66.91 14.9455 66.8435 14.8426 66.7804 14.7414C66.7681 14.7225 66.7576 14.7053 66.7454 14.6865C66.6858 14.5938 66.628 14.5011 66.5702 14.4085C66.5579 14.3879 66.5456 14.369 66.5316 14.3484C66.4738 14.2558 66.416 14.1666 66.3599 14.0756C66.3477 14.055 66.3354 14.0362 66.3214 14.0156C66.2636 13.9229 66.2058 13.832 66.1497 13.7428C66.1409 13.7273 66.1304 13.7136 66.1217 13.6982C66.0761 13.6244 66.0306 13.5523 65.985 13.4803C65.9465 13.4168 65.9062 13.355 65.8676 13.2932C65.8238 13.2229 65.78 13.1525 65.7362 13.0856C65.7257 13.0702 65.717 13.0547 65.7065 13.0393C65.6539 12.9552 65.6031 12.8729 65.5505 12.7922C65.533 12.7648 65.5155 12.7373 65.4997 12.7099C65.4629 12.6515 65.4261 12.5932 65.3911 12.5349C65.3613 12.4868 65.3315 12.4388 65.3018 12.3924C65.2737 12.3478 65.2457 12.3015 65.2177 12.2569C65.1949 12.2209 65.1721 12.1831 65.1493 12.1471C65.1178 12.0956 65.0863 12.0441 65.0547 11.9944C65.0302 11.9549 65.0057 11.9154 64.9812 11.8777C64.9566 11.8382 64.9321 11.7971 64.9076 11.7593C64.8813 11.7164 64.8533 11.6718 64.827 11.6306C64.8042 11.5946 64.7814 11.5586 64.7604 11.5225C64.7324 11.4779 64.7043 11.4316 64.6781 11.3887C64.6606 11.3595 64.643 11.3321 64.6255 11.3046C64.5975 11.26 64.5695 11.2154 64.5432 11.1708C64.5222 11.1365 64.5029 11.1039 64.4819 11.0713C64.4591 11.0352 64.4363 10.9992 64.4153 10.9632C64.3943 10.9289 64.3732 10.8946 64.3522 10.8602C64.3312 10.8259 64.3102 10.7916 64.2891 10.7573C64.2734 10.7298 64.2576 10.7041 64.2418 10.6784C64.2191 10.6389 64.1945 10.6012 64.1718 10.5634C64.1683 10.5565 64.1648 10.5514 64.1595 10.5445C64.0649 10.3901 63.9791 10.2477 63.902 10.1173C63.8932 10.1036 63.8844 10.0881 63.8757 10.0727C63.8582 10.0435 63.8424 10.0161 63.8249 9.9869C63.8126 9.96631 63.8004 9.94401 63.7881 9.92513C63.7741 9.90111 63.7601 9.87709 63.746 9.85478C63.7338 9.83419 63.7215 9.81361 63.711 9.79473C63.697 9.77071 63.6847 9.75012 63.6725 9.72782C63.6619 9.71066 63.6514 9.6935 63.6427 9.67634C63.6304 9.65575 63.6199 9.63688 63.6094 9.61801C63.5989 9.60085 63.5901 9.58369 63.5814 9.56825C63.5708 9.55109 63.5621 9.53393 63.5516 9.51677C63.5428 9.50133 63.5358 9.48761 63.5288 9.47388C63.52 9.45844 63.5113 9.44299 63.5043 9.42927C63.4973 9.41554 63.4903 9.40353 63.485 9.39324C63.478 9.38123 63.471 9.3675 63.4657 9.35721C63.4605 9.34519 63.4552 9.3349 63.45 9.3246C63.4447 9.31431 63.4395 9.30402 63.436 9.29544C63.4307 9.28514 63.4272 9.27828 63.4237 9.2697C63.4202 9.26284 63.4167 9.25426 63.4132 9.24911C63.4097 9.24053 63.4079 9.23538 63.4062 9.22852C63.4062 9.22509 63.4027 9.21994 63.4009 9.21651C63.3992 9.20965 63.3974 9.2045 63.3974 9.19935C63.3974 9.19935 63.3974 9.19935 63.3974 9.19764L59.8638 9.80503C59.7797 9.81875 59.6938 9.78787 59.6413 9.72438C59.0053 8.96944 58.5761 8.44612 58.4009 8.20934C58.3413 8.1287 58.2397 8.09438 58.1434 8.12355L55.3262 8.95056C55.3087 8.93169 55.2912 8.91282 55.2772 8.89737C55.2106 8.82359 55.1055 8.79957 55.0126 8.8356L52.9208 9.65575C52.9208 9.65575 52.9068 9.6609 52.9016 9.66262L41.9099 12.8866C41.9012 12.89 41.8924 12.8917 41.8836 12.8934L25.1649 15.7554C25.002 15.7828 24.9179 15.963 25.0038 16.102L25.7518 17.3185C25.8307 17.4472 25.7658 17.6153 25.6169 17.6582L22.968 18.4355C22.8068 18.4835 22.7473 18.6757 22.8541 18.8026L24.3223 20.5407C24.4239 20.6608 24.3766 20.8444 24.2277 20.901L23.3937 21.2288C23.2378 21.2905 23.1958 21.4878 23.3149 21.6062L34.4309 32.5101C34.4309 32.5101 34.4414 32.5204 34.4449 32.5255L36.8714 35.3978C36.8784 35.4063 36.8854 35.4166 36.8924 35.4252L47.877 53.2815C47.9278 53.3638 48.0242 53.4067 48.1205 53.3895C48.5287 53.3141 49.7025 53.0979 51.4002 52.7856C51.4843 52.7702 51.5718 52.801 51.6262 52.8645L52.9471 54.4293C53.0084 54.5014 53.1065 54.5305 53.1976 54.5031C53.5463 54.395 54.4836 54.1068 55.8396 53.6898C55.9237 53.6641 56.0165 53.6864 56.0778 53.7464C56.1461 53.8133 56.246 53.8322 56.3336 53.7962C56.6682 53.6589 57.567 53.2917 58.8616 52.7633C58.8687 52.7599 58.8757 52.7581 58.8827 52.7564C61.8522 51.8471 65.6539 50.6889 69.5607 49.5119C69.5695 49.5084 69.5782 49.5067 69.5887 49.505C71.2373 49.2133 72.8666 48.9285 74.4328 48.6574C74.5905 48.6299 74.7482 48.6025 74.9041 48.5768C74.9637 48.5665 75.0232 48.5562 75.0846 48.5459C75.2405 48.5184 75.3947 48.4927 75.5471 48.4669C75.6031 48.4566 75.6592 48.4481 75.7153 48.4378C75.8677 48.412 76.0201 48.3863 76.1708 48.3588C76.2251 48.3503 76.2776 48.34 76.3319 48.3314C76.5036 48.3022 76.6753 48.2731 76.847 48.2439C76.8733 48.2387 76.8978 48.2353 76.9241 48.2302C77.08 48.2027 77.2359 48.177 77.3919 48.1512C77.4409 48.1427 77.4882 48.1341 77.5355 48.1272C77.7125 48.0963 77.8894 48.0672 78.0646 48.038C78.0664 48.038 78.0681 48.038 78.0699 48.038C78.238 48.0088 78.4045 47.9814 78.5709 47.9539C78.62 47.9453 78.669 47.9368 78.7181 47.9299C78.874 47.9042 79.0264 47.8784 79.1788 47.8527C79.2121 47.8475 79.2437 47.8424 79.2769 47.8355C79.4188 47.8115 79.5573 47.7892 79.6957 47.7652C79.7447 47.7566 79.7938 47.7497 79.8411 47.7412C79.9812 47.7171 80.1196 47.6948 80.2563 47.6725C80.3001 47.6657 80.3439 47.6588 80.3877 47.6502C80.5156 47.6296 80.6435 47.6073 80.7696 47.5867C80.8151 47.5799 80.8607 47.5713 80.9062 47.5644C81.0482 47.5421 81.1865 47.5181 81.325 47.4958C81.3495 47.4924 81.3758 47.4872 81.4003 47.4838C81.5299 47.4632 81.6596 47.4426 81.7857 47.422C81.8278 47.4152 81.8716 47.4083 81.9136 47.4014C82.0468 47.3809 82.1781 47.3585 82.306 47.338C82.3288 47.3345 82.3498 47.3311 82.3709 47.3277C82.4917 47.3088 82.6091 47.2899 82.7265 47.271C82.7685 47.2642 82.8088 47.2573 82.8509 47.2522C82.9805 47.2316 83.1084 47.211 83.2328 47.1921C83.2398 47.1921 83.2468 47.1904 83.2538 47.1887C83.3747 47.1698 83.4938 47.1509 83.6112 47.1338C83.6445 47.1286 83.6778 47.1235 83.7111 47.1183C83.8285 47.0995 83.9458 47.0823 84.058 47.0651C84.0685 47.0651 84.079 47.0617 84.0878 47.06C84.1946 47.0446 84.298 47.0291 84.4013 47.0137C84.4329 47.0085 84.4662 47.0034 84.4977 46.9999C84.6063 46.9845 84.7132 46.9691 84.8148 46.9536C84.8201 46.9536 84.8236 46.9536 84.8271 46.9519C84.9269 46.9382 85.025 46.9244 85.1196 46.9107C85.1442 46.9073 85.1705 46.9039 85.195 46.9004C85.2913 46.8867 85.3877 46.873 85.4788 46.861C85.4823 46.861 85.484 46.861 85.4875 46.861C85.5751 46.849 85.661 46.8369 85.7433 46.8266C85.7661 46.8232 85.7871 46.8215 85.8081 46.8181C85.8887 46.8078 85.9676 46.7975 86.0412 46.7889C86.0482 46.7889 86.0534 46.7889 86.0604 46.7872C86.1323 46.7786 86.2006 46.77 86.2672 46.7632C86.2864 46.7614 86.3057 46.758 86.3232 46.7563C86.3898 46.7494 86.4546 46.7409 86.5142 46.7357C86.5177 46.7357 86.5212 46.7357 86.5247 46.7357C86.5843 46.7288 86.6403 46.7237 86.6929 46.7186C86.7069 46.7186 86.7209 46.7168 86.7349 46.7151C86.7875 46.71 86.8383 46.7065 86.8856 46.7031C86.9311 46.6997 86.9714 46.698 87.01 46.6962C87.0205 46.6962 87.0293 46.6962 87.038 46.6962C87.0748 46.6962 87.1098 46.6945 87.1396 46.6945C87.1694 46.6945 87.1922 46.6945 87.215 46.698C87.2202 46.698 87.2255 46.698 87.2307 46.698C87.25 46.6997 87.2675 46.7031 87.2798 46.7065C87.2798 46.7065 86.8716 46.0751 86.162 44.9753C86.078 44.8449 86.1463 44.6699 86.2987 44.6287C87.5478 44.2924 88.4886 44.0574 89.0072 43.9613C89.1859 43.9287 89.2612 43.7211 89.1438 43.5855C88.8337 43.2338 88.2871 42.611 87.5548 41.7754C87.4462 41.6518 87.4988 41.4597 87.6564 41.4065C88.0121 41.2864 88.3012 41.1937 88.5184 41.1337C88.6918 41.0856 88.7461 40.8694 88.6165 40.7459L88.613 40.7425Z" fill="#101619"/>
<path d="M96.5662 28.9961C96.6074 28.9893 96.6469 28.9807 96.6882 28.9738C96.7603 28.9601 96.8307 28.948 96.9012 28.9343C96.9441 28.9274 96.9854 28.9188 97.0283 28.912C97.14 28.8913 97.2517 28.8724 97.3616 28.8535C97.4114 28.8449 97.4595 28.8364 97.5076 28.8278C97.5678 28.8175 97.6296 28.8072 97.6898 28.7968C97.7464 28.7865 97.8031 28.7779 97.8581 28.7694C97.944 28.7556 98.0282 28.7419 98.1124 28.7281C98.1674 28.7195 98.2206 28.7109 98.2739 28.7024C98.3271 28.6938 98.3787 28.6869 98.4319 28.6783C98.4921 28.6697 98.5505 28.6611 98.6089 28.6525C98.6742 28.6439 98.7377 28.6336 98.7996 28.625C98.8632 28.6165 98.9267 28.6079 98.9886 28.5993C99.0315 28.5941 99.0745 28.589 99.1157 28.5821C99.1758 28.5752 99.236 28.5666 99.2944 28.5598C99.3373 28.5546 99.3786 28.5495 99.4215 28.5443C99.4954 28.5357 99.5693 28.5271 99.6397 28.5202C99.6741 28.5168 99.7084 28.5134 99.7411 28.5099C99.8012 28.5048 99.8613 28.4979 99.9197 28.4928C99.9455 28.491 99.9713 28.4876 99.997 28.4859C100.074 28.479 100.15 28.4739 100.222 28.4687C100.248 28.467 100.274 28.4653 100.301 28.4636C100.356 28.4601 100.411 28.4567 100.464 28.455C100.487 28.455 100.509 28.4532 100.53 28.4515C100.598 28.4498 100.665 28.4481 100.729 28.4464C100.748 28.4464 100.767 28.4464 100.786 28.4464C100.837 28.4464 100.885 28.4464 100.933 28.4464C100.951 28.4464 100.968 28.4464 100.985 28.4464C101.043 28.4481 101.1 28.4515 101.155 28.455C101.169 28.455 101.181 28.4567 101.193 28.4584C101.236 28.4618 101.277 28.467 101.318 28.4704C101.332 28.4704 101.346 28.4739 101.358 28.4756C101.406 28.4824 101.45 28.4893 101.492 28.4979C101.499 28.4979 101.505 28.5013 101.512 28.5031C101.547 28.5117 101.579 28.5202 101.61 28.5288C101.621 28.5323 101.629 28.534 101.638 28.5374C101.672 28.5495 101.703 28.5615 101.732 28.5769C101.736 28.5769 101.737 28.5804 101.741 28.5821C101.765 28.5958 101.787 28.6096 101.806 28.625C101.811 28.6302 101.816 28.6336 101.822 28.6388C101.84 28.656 101.858 28.6749 101.871 28.6955C101.871 28.6955 101.868 28.6903 101.863 28.68C101.84 28.6422 101.761 28.5082 101.634 28.2935C101.627 28.2814 101.621 28.2711 101.614 28.2574C101.217 27.5856 100.385 26.1838 99.3012 24.3627C99.2961 24.3541 99.2909 24.3438 99.2841 24.3352C99.2239 24.2338 99.1621 24.1307 99.1002 24.0259C99.0899 24.0087 99.0813 23.9933 99.071 23.9761C98.8924 23.6755 98.7068 23.3662 98.5161 23.0467C98.4766 22.9797 98.4371 22.9127 98.3959 22.8457C98.3168 22.7134 98.2361 22.5776 98.1553 22.4419C98.1072 22.3612 98.0591 22.2804 98.011 22.1997C97.9749 22.1396 97.9389 22.0794 97.9028 22.0193C97.8358 21.9076 97.7705 21.7959 97.7018 21.6843C97.6709 21.6327 97.6416 21.5829 97.6107 21.5314C97.6039 21.5211 97.597 21.509 97.5918 21.4987C93.1886 14.1491 86.8336 3.63829 85.7994 2.57313C85.7427 2.51472 85.6671 2.48894 85.5932 2.50441L66.3446 6.19298C66.1866 6.2239 66.1127 6.41804 66.2021 6.56922L80.6849 30.6574L81.8119 32.5318C81.8119 32.5318 81.8291 32.5266 81.8583 32.5198C81.8669 32.5181 81.8772 32.5146 81.8875 32.5112C81.9184 32.5026 81.9579 32.4923 82.0078 32.4785C82.0249 32.4734 82.0421 32.47 82.061 32.4648C82.0748 32.4614 82.0885 32.4579 82.104 32.4528C82.1263 32.4459 82.1503 32.4407 82.1761 32.4322C82.1864 32.4287 82.2002 32.4253 82.2105 32.4218C82.4562 32.3548 82.8083 32.2604 83.2464 32.1435C83.31 32.1264 83.3753 32.1092 83.4423 32.092C83.4629 32.0868 83.4818 32.0817 83.5024 32.0765C83.5643 32.0593 83.6296 32.0422 83.6948 32.025C83.7137 32.0198 83.7326 32.0147 83.7515 32.0095C83.8254 31.9906 83.9027 31.97 83.98 31.9494C83.9852 31.9494 83.9903 31.946 83.9972 31.9442C84.0814 31.9219 84.1656 31.8996 84.2532 31.8772C87.1687 31.111 92.144 29.85 96.0714 29.0906C96.238 29.058 96.4047 29.0271 96.5679 28.9961H96.5662Z" fill="#101619"/>
<path d="M27.6611 18.1418L53.579 54.1273C53.579 54.1273 87.7606 42.888 88.8395 43.1234C88.8395 43.1234 62.2344 7.78566 62.2447 7.31836L27.6611 18.1418Z" fill="#2A4259"/>
<path d="M27.8486 20.9779L56.6081 53.4019C56.6081 53.4019 87.5512 40.1011 88.5992 40.2454C88.5992 40.2454 59.2693 8.49137 59.2229 8.04297L27.8486 20.9779Z" fill="#3B5B7C"/>
<path d="M29.9565 15.3848L48.8564 53.0299C48.8564 53.0299 85.5411 45.6063 86.5805 45.9465C86.5805 45.9465 66.8594 8.8598 66.9625 8.40625L29.9565 15.3848Z" fill="#D5DADD"/>
<path d="M64.882 10.0109C65.6053 10.5331 66.2873 11.1104 66.9453 11.7117C67.6686 12.3731 68.3593 13.0689 69.031 13.7819C69.5206 14.3042 69.9948 14.8385 70.4621 15.3797C68.3644 11.3423 66.9367 8.52995 66.9659 8.40625L63.4097 9.07627C63.9234 9.34944 64.413 9.66899 64.8837 10.0092L64.882 10.0109Z" fill="#2A4259"/>
<path d="M80.8489 35.1367C80.5259 36.5747 80.1617 38.0041 79.6961 39.4025C79.0742 41.2683 78.2667 43.0911 77.1311 44.7043C76.2773 45.9155 75.2963 47.0391 74.2002 48.0373C80.7956 46.7831 86.1919 45.821 86.5819 45.9482C86.5819 45.9482 84.0719 41.2288 80.8489 35.1384V35.1367Z" fill="#2A4259"/>
<path d="M50.94 19.6309L40.345 21.6204C39.8846 21.7063 39.3675 21.4984 39.1888 21.1565L38.8469 20.5002C38.6683 20.1583 38.8968 19.8096 39.3572 19.7237L49.9522 17.7342C50.4126 17.6483 50.9297 17.8562 51.1084 18.1981L51.4503 18.8544C51.6289 19.1962 51.4004 19.545 50.94 19.6309Z" fill="#101619"/>
<path d="M58.2862 33.7246L47.6912 35.7141C47.2308 35.8 46.7137 35.5921 46.535 35.2502L46.1931 34.594C46.0145 34.2521 46.2429 33.9033 46.7034 33.8174L57.2983 31.828C57.7588 31.7421 58.2759 31.9499 58.4546 32.2918L58.7965 32.9481C58.9751 33.29 58.7466 33.6387 58.2862 33.7246Z" fill="#101619"/>
<path d="M45.6759 23.7123L41.5252 24.4923C41.2246 24.549 40.8861 24.4133 40.7693 24.1899L40.2041 23.1041C40.0872 22.8808 40.2367 22.6523 40.5374 22.5956L44.6881 21.8156C44.9887 21.7589 45.3272 21.8946 45.444 22.118L46.0092 23.2038C46.126 23.4271 45.9766 23.6556 45.6759 23.7123Z" fill="#101619"/>
<path d="M47.1463 26.5326L42.9955 27.3126C42.6949 27.3693 42.3564 27.2336 42.2396 27.0102L41.6744 25.9244C41.5576 25.7011 41.707 25.4726 42.0077 25.4159L46.1584 24.6359C46.4591 24.5792 46.7975 24.715 46.9143 24.9383L47.4796 26.0241C47.5964 26.2474 47.4469 26.4759 47.1463 26.5326Z" fill="#101619"/>
<path d="M48.615 29.351L44.4643 30.131C44.1636 30.1876 43.8252 30.0519 43.7084 29.8286L43.1431 28.7428C43.0263 28.5195 43.1758 28.291 43.4764 28.2343L47.6272 27.4543C47.9278 27.3976 48.2662 27.5333 48.3831 27.7567L48.9483 28.8424C49.0651 29.0658 48.9157 29.2943 48.615 29.351Z" fill="#101619"/>
<path d="M50.0845 32.1693L45.9338 32.9493C45.6331 33.006 45.2947 32.8703 45.1779 32.6469L44.6126 31.5612C44.4958 31.3378 44.6453 31.1093 44.9459 31.0526L49.0966 30.2727C49.3973 30.216 49.7357 30.3517 49.8526 30.575L50.4178 31.6608C50.5346 31.8841 50.3851 32.1126 50.0845 32.1693Z" fill="#101619"/>
<path d="M66.5103 16.7071L55.9154 18.6965C55.4549 18.7824 54.9378 18.5745 54.7591 18.2327L54.4172 17.5764C54.2386 17.2345 54.4671 16.8857 54.9275 16.7998L65.5225 14.8104C65.9829 14.7245 66.5 14.9324 66.6787 15.2742L67.0206 15.9305C67.1992 16.2724 66.9708 16.6212 66.5103 16.7071Z" fill="#101619"/>
<path d="M73.8549 30.8008L63.26 32.7903C62.7995 32.8762 62.2824 32.6683 62.1037 32.3264L61.7618 31.6701C61.5832 31.3282 61.8117 30.9795 62.2721 30.8936L72.8671 28.9041C73.3275 28.8182 73.8446 29.0261 74.0233 29.368L74.3652 30.0243C74.5439 30.3662 74.3154 30.7149 73.8549 30.8008Z" fill="#101619"/>
<path d="M61.2462 20.7904L57.0955 21.5704C56.7949 21.6271 56.4564 21.4914 56.3396 21.268L55.7744 20.1823C55.6575 19.9589 55.807 19.7304 56.1077 19.6737L60.2584 18.8937C60.559 18.8371 60.8975 18.9728 61.0143 19.1961L61.5795 20.2819C61.6964 20.5052 61.5469 20.7337 61.2462 20.7904Z" fill="#101619"/>
<path d="M62.715 23.6088L58.5643 24.3888C58.2636 24.4455 57.9252 24.3097 57.8083 24.0864L57.2431 23.0006C57.1263 22.7773 57.2758 22.5488 57.5764 22.4921L61.7271 21.7121C62.0278 21.6554 62.3662 21.7911 62.4831 22.0145L63.0483 23.1003C63.1651 23.3236 63.0156 23.5521 62.715 23.6088Z" fill="#101619"/>
<path d="M64.1837 26.4271L60.033 27.2071C59.7324 27.2638 59.3939 27.1281 59.2771 26.9048L58.7119 25.819C58.595 25.5956 58.7445 25.3671 59.0452 25.3104L63.1959 24.5305C63.4965 24.4738 63.835 24.6095 63.9518 24.8328L64.517 25.9186C64.6339 26.142 64.4844 26.3705 64.1837 26.4271Z" fill="#101619"/>
<path d="M65.6548 29.2475L61.5041 30.0274C61.2034 30.0841 60.865 29.9484 60.7482 29.7251L60.1829 28.6393C60.0661 28.4159 60.2156 28.1874 60.5162 28.1308L64.6669 27.3508C64.9676 27.2941 65.306 27.4298 65.4229 27.6531L65.9881 28.7389C66.1049 28.9623 65.9555 29.1908 65.6548 29.2475Z" fill="#101619"/>
<path d="M72.1401 6.67989L82.3967 31.8298C82.3967 31.8298 101.826 28.332 102.415 29.727C102.415 29.727 92.5157 4.82787 91.7787 4.59766L72.1419 6.67989H72.1401Z" fill="#2A4259"/>
<path d="M71.7708 7.42866L84.0253 31.6681C84.0253 31.6681 103.107 26.612 103.807 27.9537C103.807 27.9537 91.9265 3.93766 91.174 3.76758L71.769 7.43038L71.7708 7.42866Z" fill="#D5DADD"/>
<path d="M100.498 21.3125C100.494 21.5032 100.489 21.6922 100.481 21.8829C100.46 22.3691 100.426 22.8553 100.371 23.3398C100.317 23.8122 100.243 24.2829 100.139 24.7468C100.039 25.1969 99.9101 25.6419 99.7435 26.0714C99.5854 26.4803 99.3896 26.8754 99.1508 27.2448C98.9171 27.6056 98.6388 27.9389 98.321 28.2292C98.2729 28.2739 98.2213 28.3134 98.1698 28.3563C101.195 27.7808 103.57 27.4956 103.808 27.9526C103.808 27.9526 102.388 25.0801 100.496 21.3142L100.498 21.3125Z" fill="#2A4259"/>
<path d="M85.8862 30.6721C85.2917 30.2873 84.7042 29.8904 84.1372 29.4644C83.5754 29.0417 83.0325 28.5899 82.5292 28.0985C82.3041 27.8803 82.0893 27.6536 81.8815 27.4199L84.029 31.6668C84.029 31.6668 84.9808 31.4143 86.4651 31.0381C86.2727 30.9161 86.0803 30.7958 85.8879 30.6721H85.8862Z" fill="#2A4259"/>
<path d="M88.4767 11.2697L80.7199 12.7266C80.3832 12.7902 80.0035 12.6373 79.8729 12.3864L79.6221 11.9071C79.4915 11.6563 79.6582 11.402 79.9949 11.3385L87.7517 9.88159C88.0885 9.81802 88.4681 9.97092 88.5987 10.2218L88.8495 10.7011C88.9801 10.9519 88.8135 11.2062 88.4767 11.2697Z" fill="#101619"/>
<path d="M93.8541 21.5861L86.0972 23.043C85.7605 23.1066 85.3808 22.9537 85.2503 22.7029L84.9994 22.2235C84.8689 21.9727 85.0355 21.7184 85.3722 21.6549L93.1291 20.198C93.4658 20.1344 93.8455 20.2873 93.976 20.5382L94.2269 21.0175C94.3574 21.2683 94.1908 21.5226 93.8541 21.5861Z" fill="#101619"/>
<path d="M84.6234 14.2568L81.5842 14.8272C81.3643 14.8684 81.1152 14.7688 81.031 14.6056L80.617 13.8102C80.5311 13.6469 80.6411 13.4803 80.861 13.4391L83.9001 12.8687C84.12 12.8275 84.3691 12.9271 84.4533 13.0903L84.8674 13.8857C84.9533 14.049 84.8433 14.2156 84.6234 14.2568Z" fill="#101619"/>
<path d="M85.6984 16.3232L82.6592 16.8936C82.4393 16.9349 82.1902 16.8352 82.106 16.672L81.692 15.8766C81.6061 15.7133 81.716 15.5467 81.9359 15.5055L84.9751 14.9351C85.195 14.8939 85.4441 14.9935 85.5283 15.1567L85.9423 15.9522C86.0282 16.1154 85.9183 16.282 85.6984 16.3232Z" fill="#101619"/>
<path d="M86.7742 18.3857L83.735 18.9561C83.5151 18.9974 83.266 18.8977 83.1818 18.7345L82.7678 17.9391C82.6819 17.7758 82.7918 17.6092 83.0117 17.568L86.0509 16.9976C86.2708 16.9564 86.5199 17.056 86.6041 17.2192L87.0181 18.0147C87.104 18.1779 86.9941 18.3445 86.7742 18.3857Z" fill="#101619"/>
<path d="M87.85 20.4482L84.8108 21.0186C84.5909 21.0599 84.3418 20.9602 84.2576 20.797L83.8436 20.0016C83.7577 19.8383 83.8676 19.6717 84.0875 19.6305L87.1267 19.0601C87.3466 19.0189 87.5957 19.1185 87.6799 19.2817L88.0939 20.0772C88.1798 20.2404 88.0699 20.407 87.85 20.4482Z" fill="#101619"/>
</svg>
