<svg width="45" height="46" viewBox="0 0 45 46" fill="none" xmlns="http://www.w3.org/2000/svg">
<path d="M18.1416 43.084H23.9096V44.4993C23.9096 44.9587 23.5372 45.3311 23.0778 45.3311H18.9734C18.514 45.3311 18.1416 44.9587 18.1416 44.4993V43.084Z" fill="#688FB7"/>
<path d="M34.2656 43.084H40.0336V44.4993C40.0336 44.9587 39.6612 45.3311 39.2018 45.3311H35.0974C34.638 45.3311 34.2656 44.9587 34.2656 44.4993V43.084Z" fill="#688FB7"/>
<path d="M14.6094 20.8369C14.6094 18.7567 16.2957 17.0703 18.376 17.0703H39.799C41.8793 17.0703 43.5656 18.7567 43.5656 20.8369V38.7698C43.5656 40.8501 41.8793 42.5365 39.799 42.5365H18.376C16.2957 42.5365 14.6094 40.8501 14.6094 38.7699V20.8369Z" fill="#CEDBE8"/>
<path fill-rule="evenodd" clip-rule="evenodd" d="M18.376 16.0703H39.799C42.4316 16.0703 44.5656 18.2044 44.5656 20.8369V38.7698C44.5656 41.4024 42.4316 43.5365 39.799 43.5365H18.376C15.7435 43.5365 13.6094 41.4024 13.6094 38.7699V20.8369C13.6094 18.2044 15.7435 16.0703 18.376 16.0703ZM18.376 17.0703C16.2957 17.0703 14.6094 18.7567 14.6094 20.8369V38.7699C14.6094 40.8501 16.2957 42.5365 18.376 42.5365H39.799C41.8793 42.5365 43.5656 40.8501 43.5656 38.7698V20.8369C43.5656 18.7567 41.8793 17.0703 39.799 17.0703H18.376Z" fill="#688FB7"/>
<rect x="17.1123" y="19.7168" width="23.95" height="20.1721" rx="2.02817" fill="#4098FF"/>
<rect x="17.1123" y="19.7168" width="23.95" height="20.1721" rx="2.02817" fill="#688FB7"/>
<rect x="0.53125" y="19.7168" width="14.5389" height="20.1721" rx="2.02817" fill="#0070F3"/>
<rect x="2.53125" y="19.7168" width="14.5389" height="20.1721" rx="2.02817" fill="#4098FF"/>
<ellipse cx="5.48254" cy="26.2954" rx="0.542115" ry="0.893026" fill="#F58B00"/>
<ellipse cx="5.48254" cy="33.3676" rx="0.542115" ry="0.893026" fill="#F58B00"/>
<path d="M13.8617 29.8314C13.8617 32.2775 12.658 34.2605 11.173 34.2605C9.68814 34.2605 8.48438 32.2775 8.48438 29.8314C8.48438 27.3853 9.68814 25.4023 11.173 25.4023C12.658 25.4023 13.8617 27.3853 13.8617 29.8314Z" fill="#CEDBE8"/>
<path fill-rule="evenodd" clip-rule="evenodd" d="M12.2194 32.4443C12.5962 31.8236 12.8617 30.9023 12.8617 29.8314C12.8617 28.7605 12.5962 27.8392 12.2194 27.2185C11.8316 26.5797 11.432 26.4023 11.173 26.4023C10.9141 26.4023 10.5145 26.5797 10.1267 27.2185C9.74993 27.8392 9.48438 28.7605 9.48438 29.8314C9.48438 30.9023 9.74993 31.8236 10.1267 32.4443C10.5145 33.0831 10.9141 33.2605 11.173 33.2605C11.432 33.2605 11.8316 33.0831 12.2194 32.4443ZM11.173 34.2605C12.658 34.2605 13.8617 32.2775 13.8617 29.8314C13.8617 27.3853 12.658 25.4023 11.173 25.4023C9.68814 25.4023 8.48438 27.3853 8.48438 29.8314C8.48438 32.2775 9.68814 34.2605 11.173 34.2605Z" fill="#688FB7"/>
<rect x="16.2715" y="22.543" width="1.5883" height="5.60852" rx="0.794148" fill="#0070F3"/>
<rect x="16.2715" y="31.457" width="1.5883" height="5.60852" rx="0.794148" fill="#0070F3"/>
<path d="M14.0148 5.14024C13.9469 5.21995 13.9018 5.31647 13.8842 5.41966C13.8665 5.52285 13.877 5.62888 13.9146 5.7266L14.7469 8.07421C14.8843 8.46254 15.2792 8.55776 15.5835 8.44994C15.7097 8.41036 15.8196 8.33089 15.8967 8.22348C15.9738 8.11607 16.014 7.98653 16.0112 7.85432C16.008 7.79048 15.9951 7.7275 15.973 7.66752L15.1407 5.31992C15.1063 5.21617 15.0445 5.12366 14.9618 5.05216C14.8791 4.98066 14.7787 4.93285 14.6711 4.91377C14.5514 4.8925 14.4284 4.90214 14.3135 4.94178C14.1987 4.98141 14.0958 5.04973 14.0148 5.14024Z" fill="white"/>
<path d="M5.92423 15.989C5.91239 16.0629 5.91611 16.1386 5.93514 16.211C5.95417 16.2835 5.9881 16.3512 6.03477 16.4098C6.08143 16.4684 6.1398 16.5167 6.20615 16.5514C6.2725 16.5862 6.34538 16.6068 6.42012 16.6118L8.83083 16.8856C8.91754 16.8951 9.00529 16.8873 9.08894 16.8625C9.17259 16.8378 9.25048 16.7966 9.31805 16.7415C9.38562 16.6863 9.44153 16.6182 9.4825 16.5412C9.52347 16.4642 9.54868 16.3798 9.55667 16.2929C9.56096 16.2572 9.56232 16.2211 9.56073 16.1852C9.55674 16.0523 9.50311 15.9257 9.41041 15.8303C9.31771 15.735 9.19266 15.6778 9.05991 15.6702L6.65022 15.3972C6.56354 15.3875 6.4758 15.3952 6.39214 15.4198C6.30847 15.4444 6.23056 15.4855 6.16295 15.5406C6.09535 15.5957 6.03942 15.6637 5.99843 15.7407C5.95744 15.8177 5.93221 15.9021 5.92423 15.989Z" fill="white"/>
<path d="M8.01985 9.51169C8.0284 9.5931 8.05346 9.6719 8.0935 9.74329C8.13354 9.81467 8.18772 9.87714 8.25272 9.92687L11.1462 12.1871C11.2766 12.2878 11.4408 12.3341 11.6045 12.3165C11.7682 12.2989 11.9188 12.2187 12.0247 12.0926C12.1225 11.9753 12.1726 11.8255 12.1651 11.6729C12.1607 11.585 12.1373 11.4991 12.0967 11.421C12.056 11.3429 11.999 11.2745 11.9295 11.2204L9.03597 8.96019C8.90498 8.85889 8.73983 8.8123 8.57522 8.83023C8.41061 8.84816 8.25936 8.92921 8.15326 9.05634C8.10151 9.11934 8.06301 9.19215 8.04008 9.2704C8.01716 9.34865 8.01028 9.43072 8.01985 9.51169Z" fill="white"/>
</svg>
