<svg width="130" height="128" viewBox="0 0 130 128" fill="none" xmlns="http://www.w3.org/2000/svg">
<path d="M128.745 96.8182L125.393 95.2705L68.0145 90.0064C68.0145 90.0064 35.1579 86.5709 26.2463 86.0878C15.1906 85.4865 4.21374 85.176 3.54833 87.5074C2.88292 89.8388 10.2222 93.3334 28.8932 100.495C42.9161 105.878 57.2792 107.159 62.0505 105.227L90.3576 96.8823L128.75 96.8182H128.745Z" fill="#101619"/>
<path d="M64.9617 24.0708L85.5722 83.2692C86.0117 85.5295 83.6205 87.2562 82.213 87.3765L17.7392 96.5226C16.6404 96.6168 15.6358 95.8895 15.3846 94.8117L0.0850263 30.7054C-0.459144 28.0683 1.73324 24.908 3.11982 24.8452L62.7327 22.4907C63.7478 22.4436 64.6687 23.0924 64.9617 24.0708Z" fill="#2A4259"/>
<path d="M66.6561 22.2675L85.477 82.7634C85.8852 84.1186 84.9486 85.5052 83.5358 85.6255L19.4335 94.7193C18.3347 94.8135 17.3301 94.0862 17.079 93.0083L1.46545 27.5783C1.14627 26.2231 2.14043 24.915 3.53225 24.847L64.427 20.6821C65.4421 20.635 66.363 21.2838 66.6561 22.2622V22.2675Z" fill="#4D82B8"/>
<path d="M62.3515 35.5856L18.0847 39.0746C17.5123 39.1292 16.9671 38.8293 16.8853 38.4477L16.1221 35.1768C16.0403 34.7951 16.4219 34.4408 16.9944 34.3863L61.0704 31.1698C61.5883 31.1426 62.0789 31.4152 62.1879 31.7695L63.0875 34.8497C63.1965 35.2313 62.8694 35.5584 62.3515 35.6129V35.5856Z" fill="#D5DADD"/>
<path d="M60.1084 57.2501L23.2649 61.0493C22.6925 61.1038 22.12 60.8313 22.0383 60.3951L21.2205 56.9606C21.1115 56.5518 21.5204 56.1702 22.0928 56.1156L58.7455 52.6162C59.2634 52.5617 59.7813 52.8343 59.8904 53.2432L60.8444 56.4869C60.9534 56.8685 60.6263 57.1956 60.1084 57.2501Z" fill="#D5DADD"/>
<path d="M66.3471 79.2571L28.716 84.2135C28.1163 84.2953 27.5439 83.9954 27.4349 83.5593L26.5899 79.9067C26.4809 79.4706 26.8897 79.0617 27.4894 78.98L64.9025 74.3507C65.4204 74.2962 65.9655 74.5688 66.0745 74.9776L67.0831 78.3849C67.1921 78.7937 66.865 79.2026 66.3471 79.2571Z" fill="#D5DADD"/>
<path d="M45.4084 47.5705L20.6477 49.9027C20.0753 49.9572 19.5302 49.6574 19.4211 49.2485L18.6306 45.8958C18.5489 45.4869 18.9305 45.1326 19.5029 45.0781L44.1273 42.9639C44.6452 42.9094 45.1631 43.182 45.2721 43.5909L46.1716 46.78C46.2806 47.1616 45.9536 47.516 45.4084 47.5705Z" fill="#D5DADD"/>
<path d="M51.3082 69.3706L25.963 72.4667C25.3634 72.5485 24.8182 72.2486 24.7092 71.8125L23.8914 68.269C23.7824 67.8328 24.1913 67.4512 24.7637 67.3695L49.9453 64.5187C50.4905 64.4641 51.0084 64.7367 51.1174 65.1456L52.0714 68.4983C52.1804 68.9072 51.8533 69.316 51.3082 69.3706Z" fill="#D5DADD"/>
<path d="M101.623 87.8472L127.351 96.8938C127.351 96.8938 128.432 97.4801 128.813 95.0386C129.101 93.2019 129.312 90.7879 127.906 87.3159L104.504 79.1992L101.623 81.036V87.8472Z" fill="#FF7F4C"/>
<path d="M127.351 96.8889C127.351 96.8889 128.432 97.4752 128.812 95.0338C128.895 94.4979 101.623 85.543 101.623 85.543V87.8424L127.351 96.8889Z" fill="#8D2A00"/>
<path d="M128.445 88.8595C128.299 88.3694 128.125 87.8564 127.905 87.3159L104.503 79.1992L104.242 79.3687L104.828 81.2696L128.445 88.8595Z" fill="#FFAB92"/>
<path d="M83.8043 41.6875L84.4318 42.3242C84.9265 42.828 85.3479 43.4006 85.6823 44.0236L104.504 79.2019C104.504 79.2019 106.267 83.045 101.622 87.85L65.441 104.624C64.4607 105.077 63.3843 105.297 62.2987 105.256H62.2712L83.8043 41.6875Z" fill="#FF7F4C"/>
<path d="M55.0252 103.401C56.2986 103.836 57.7506 103.575 59.3034 102.727C54.8695 98.8249 55.2542 84.6573 60.5218 69.1614C65.6566 54.0503 73.7 42.7731 79.563 41.857C78.8714 40.5286 77.9644 39.6217 76.8331 39.2369C76.5399 39.1361 76.233 39.0812 75.9169 39.0537C75.807 39.0491 75.7017 39.0354 75.5917 39.0354C69.6554 38.9758 60.8745 51.1646 55.2588 67.6911C50.7745 80.8921 49.5744 93.1267 51.6906 99.3379C52.0983 100.318 52.5655 101.207 53.0831 101.995C53.6373 102.668 54.2832 103.144 55.0252 103.396V103.401Z" fill="#FF7F4C"/>
<path d="M60.517 69.1554C55.2494 84.6512 54.8646 98.8188 59.2986 102.721C64.9235 99.6524 71.8721 88.8241 76.5946 74.9405C81.4591 60.6264 82.4623 47.4483 79.5582 41.8555C73.6951 42.7716 65.6518 54.0488 60.517 69.1599V69.1554Z" fill="#A93E00"/>
<path d="M75.6825 77.5056C75.994 76.6628 76.2963 75.8063 76.594 74.9405C81.4585 60.6264 82.4617 47.4483 79.5576 41.8555C76.9009 42.2723 72.6044 45.3779 68.5002 52.0746C68.5002 52.0746 78.5591 53.8152 75.6825 77.5102V77.5056Z" fill="#450B00"/>
<path d="M83.8274 67.7274L70.9147 92.6883L62.2712 105.248H62.2987C63.3797 105.289 64.4561 105.074 65.441 104.621L101.637 87.849L81.6337 88.233C86.0223 77.0322 87.6591 61.2656 87.6591 61.2656L83.8274 67.7274Z" fill="#8D2A00"/>
<path d="M104.504 79.1994L99.4651 69.7818L87.0474 52.0781C87.0474 52.0781 87.2335 58.5379 86.374 63.5615L104.824 81.2698C104.856 79.9781 104.499 79.1994 104.499 79.1994H104.504Z" fill="#FFAB92"/>
<path d="M79.5585 41.857C78.8669 40.5286 77.9599 39.6217 76.8286 39.2369C76.5354 39.1361 76.2285 39.0812 75.9125 39.0537C75.8025 39.0491 75.6972 39.0354 75.5872 39.0354C71.7854 38.9987 66.8247 43.9823 62.2671 51.9066C62.2717 51.9066 66.0002 50.7477 68.4966 52.0761C72.2709 46.1672 76.256 42.3746 79.554 41.857H79.5585Z" fill="#C35500"/>
<path d="M84.505 42.4763C83.3508 40.5846 79.7184 40.0532 77.8999 39.4349C77.2495 39.215 76.5853 39.0959 75.912 39.0547C76.2235 39.0822 76.5304 39.1371 76.8281 39.2379C77.9595 39.6227 78.871 40.5296 79.5581 41.858C82.4576 47.4508 81.459 60.6289 76.5945 74.943C71.8766 88.8266 64.9233 99.6549 59.2985 102.724C57.7457 103.571 56.2936 103.832 55.0203 103.397C54.2782 103.145 53.6278 102.669 53.0781 101.996C53.0964 102.023 53.1148 102.055 53.1331 102.083C54.4981 104.135 59.8894 105.651 62.2712 105.252C69.9436 103.97 78.0053 91.7077 82.966 77.1096C87.8397 62.768 88.5542 49.1135 84.505 42.4763Z" fill="#FFAB92"/>
<path d="M82.3925 40.8412C81.4866 40.3847 79.668 39.9107 77.8998 39.4349C77.2493 39.215 76.5851 39.0959 75.9118 39.0547C76.2233 39.0822 76.5302 39.1371 76.8279 39.2379C77.9593 39.6227 78.8708 40.5296 79.5579 41.858C82.4599 47.4684 81.2727 64.4451 74.2058 81.295C84.5447 65.4863 85.0285 46.9815 82.3925 40.8412Z" fill="#FFAB92"/>
</svg>
