<svg width="130" height="128" viewBox="0 0 130 128" fill="none" xmlns="http://www.w3.org/2000/svg">
<path d="M128.744 96.8182L125.393 95.2705L68.0143 90.0064C68.0143 90.0064 35.1577 86.5709 26.2461 86.0878C15.1904 85.4865 4.2135 85.176 3.54809 87.5074C2.88267 89.8388 10.2219 93.3334 28.8929 100.495C42.9159 105.878 57.279 107.159 62.0502 105.227L90.3574 96.8823L128.749 96.8182H128.744Z" fill="#1B90FF"/>
<path d="M64.9618 24.0708L85.5723 83.2692C86.0118 85.5295 83.6206 87.2562 82.2131 87.3765L17.7393 96.5226C16.6405 96.6168 15.6359 95.8895 15.3847 94.8117L0.0851483 30.7054C-0.459022 28.0683 1.73336 24.908 3.11995 24.8452L62.7328 22.4907C63.7479 22.4436 64.6688 23.0924 64.9618 24.0708Z" fill="#0040B0"/>
<path d="M66.6562 22.2675L85.4772 82.7634C85.8853 84.1186 84.9487 85.5052 83.5359 85.6255L19.4337 94.7193C18.3349 94.8135 17.3302 94.0862 17.0791 93.0083L1.46557 27.5783C1.1464 26.2231 2.14055 24.915 3.53238 24.847L64.4272 20.6821C65.4423 20.635 66.3632 21.2838 66.6562 22.2622V22.2675Z" fill="#56BDFF"/>
<path d="M62.3516 35.5856L18.0848 39.0746C17.5124 39.1292 16.9672 38.8293 16.8854 38.4477L16.1222 35.1768C16.0405 34.7951 16.4221 34.4408 16.9945 34.3863L61.0705 31.1698C61.5884 31.1426 62.079 31.4152 62.1881 31.7695L63.0876 34.8497C63.1966 35.2313 62.8695 35.5584 62.3516 35.6129V35.5856Z" fill="white"/>
<path d="M60.1084 57.2501L23.2649 61.0493C22.6925 61.1038 22.12 60.8313 22.0383 60.3951L21.2205 56.9606C21.1115 56.5518 21.5204 56.1702 22.0928 56.1156L58.7455 52.6162C59.2634 52.5617 59.7813 52.8343 59.8904 53.2432L60.8444 56.4869C60.9534 56.8685 60.6263 57.1956 60.1084 57.2501Z" fill="white"/>
<path d="M66.3471 79.2571L28.716 84.2135C28.1163 84.2953 27.5439 83.9954 27.4349 83.5593L26.5899 79.9067C26.4809 79.4706 26.8897 79.0617 27.4894 78.98L64.9025 74.3507C65.4204 74.2962 65.9655 74.5688 66.0745 74.9776L67.0831 78.3849C67.1921 78.7937 66.865 79.2026 66.3471 79.2571Z" fill="white"/>
<path d="M45.4083 47.5705L20.6476 49.9027C20.0752 49.9572 19.53 49.6574 19.421 49.2485L18.6305 45.8958C18.5488 45.4869 18.9304 45.1326 19.5028 45.0781L44.1272 42.9639C44.6451 42.9094 45.163 43.182 45.272 43.5909L46.1715 46.78C46.2805 47.1616 45.9534 47.516 45.4083 47.5705Z" fill="white"/>
<path d="M51.3081 69.3706L25.9629 72.4667C25.3632 72.5485 24.8181 72.2486 24.709 71.8125L23.8913 68.269C23.7823 67.8328 24.1911 67.4512 24.7636 67.3695L49.9452 64.5187C50.4903 64.4641 51.0082 64.7367 51.1173 65.1456L52.0713 68.4983C52.1803 68.9072 51.8532 69.316 51.3081 69.3706Z" fill="white"/>
<path d="M101.622 87.8472L127.351 96.8938C127.351 96.8938 128.432 97.4801 128.812 95.0386C129.101 93.2019 129.312 90.7879 127.905 87.3159L104.504 79.1992L101.622 81.036V87.8472Z" fill="#FF7F4C"/>
<path d="M127.351 96.8889C127.351 96.8889 128.432 97.4752 128.812 95.0338C128.895 94.4979 101.622 85.543 101.622 85.543V87.8424L127.351 96.8889Z" fill="#8D2A00"/>
<path d="M128.445 88.8595C128.299 88.3694 128.125 87.8564 127.905 87.3159L104.503 79.1992L104.242 79.3687L104.828 81.2696L128.445 88.8595Z" fill="#FFAB92"/>
<path d="M83.804 41.6875L84.4315 42.3242C84.9262 42.828 85.3476 43.4006 85.682 44.0236L104.503 79.2019C104.503 79.2019 106.267 83.045 101.622 87.85L65.4407 104.624C64.4605 105.077 63.3841 105.297 62.2985 105.256H62.271L83.804 41.6875Z" fill="#FF7F4C"/>
<path d="M55.0251 103.401C56.2985 103.836 57.7505 103.575 59.3033 102.727C54.8693 98.8249 55.2541 84.6573 60.5217 69.1614C65.6565 54.0503 73.6999 42.7731 79.5629 41.857C78.8713 40.5286 77.9643 39.6217 76.8329 39.2369C76.5398 39.1361 76.2329 39.0812 75.9168 39.0537C75.8069 39.0491 75.7015 39.0354 75.5916 39.0354C69.6553 38.9758 60.8744 51.1646 55.2587 67.6911C50.7744 80.8921 49.5743 93.1267 51.6905 99.3379C52.0981 100.318 52.5654 101.207 53.083 101.995C53.6372 102.668 54.283 103.144 55.0251 103.396V103.401Z" fill="#FF7F4C"/>
<path d="M60.5168 69.1554C55.2492 84.6512 54.8644 98.8188 59.2983 102.721C64.9232 99.6524 71.8719 88.8241 76.5944 74.9405C81.4589 60.6264 82.462 47.4483 79.558 41.8555C73.6949 42.7716 65.6515 54.0488 60.5168 69.1599V69.1554Z" fill="#A93E00"/>
<path d="M75.6825 77.5056C75.994 76.6628 76.2963 75.8063 76.594 74.9405C81.4585 60.6264 82.4617 47.4483 79.5576 41.8555C76.9009 42.2723 72.6044 45.3779 68.5002 52.0746C68.5002 52.0746 78.5591 53.8152 75.6825 77.5102V77.5056Z" fill="#450B00"/>
<path d="M83.8271 67.7274L70.9144 92.6883L62.271 105.248H62.2985C63.3795 105.289 64.4559 105.074 65.4407 104.621L101.636 87.849L81.6335 88.233C86.0221 77.0322 87.6588 61.2656 87.6588 61.2656L83.8271 67.7274Z" fill="#8D2A00"/>
<path d="M104.503 79.1994L99.4649 69.7818L87.0471 52.0781C87.0471 52.0781 87.2333 58.5379 86.3738 63.5615L104.824 81.2698C104.856 79.9781 104.499 79.1994 104.499 79.1994H104.503Z" fill="#FFAB92"/>
<path d="M79.5583 41.857C78.8666 40.5286 77.9597 39.6217 76.8283 39.2369C76.5352 39.1361 76.2283 39.0812 75.9122 39.0537C75.8023 39.0491 75.6969 39.0354 75.587 39.0354C71.7852 38.9987 66.8245 43.9823 62.2668 51.9066C62.2714 51.9066 66 50.7477 68.4963 52.0761C72.2707 46.1672 76.2557 42.3746 79.5537 41.857H79.5583Z" fill="#C35500"/>
<path d="M84.5049 42.4763C83.3506 40.5846 79.7183 40.0532 77.8998 39.4349C77.2494 39.215 76.5852 39.0959 75.9119 39.0547C76.2234 39.0822 76.5303 39.1371 76.828 39.2379C77.9594 39.6227 78.8709 40.5296 79.558 41.858C82.4574 47.4508 81.4589 60.6289 76.5944 74.943C71.8764 88.8266 64.9232 99.6549 59.2983 102.724C57.7456 103.571 56.2935 103.832 55.0201 103.397C54.2781 103.145 53.6277 102.669 53.078 101.996C53.0963 102.023 53.1146 102.055 53.133 102.083C54.498 104.135 59.8892 105.651 62.2711 105.252C69.9435 103.97 78.0052 91.7077 82.9659 77.1096C87.8395 62.768 88.5541 49.1135 84.5049 42.4763Z" fill="#FFAB92"/>
<path d="M82.3924 40.8412C81.4865 40.3847 79.6678 39.9107 77.8996 39.4349C77.2492 39.215 76.585 39.0959 75.9117 39.0547C76.2232 39.0822 76.5301 39.1371 76.8278 39.2379C77.9592 39.6227 78.8707 40.5296 79.5578 41.858C82.4597 47.4684 81.2726 64.4451 74.2057 81.295C84.5446 65.4863 85.0284 46.9815 82.3924 40.8412Z" fill="#FFAB92"/>
</svg>
