<svg width="320" height="240" viewBox="0 0 320 240" fill="none" xmlns="http://www.w3.org/2000/svg">
<mask id="mask0_2810_46781" style="mask-type:alpha" maskUnits="userSpaceOnUse" x="0" y="20" width="320" height="200">
<path d="M305.547 20H14.4533C12.5559 19.9983 10.6768 20.3705 8.92329 21.0954C7.16981 21.8203 5.57638 22.8836 4.23409 24.2247C2.8918 25.5657 1.82697 27.1582 1.10045 28.911C0.373942 30.6638 -8.08861e-07 32.5426 0 34.44V205.547C0 209.38 1.52275 213.056 4.23328 215.767C6.9438 218.477 10.6201 220 14.4533 220H305.547C309.38 220 313.056 218.477 315.767 215.767C318.477 213.056 320 209.38 320 205.547V34.44C320 32.5426 319.626 30.6638 318.9 28.911C318.173 27.1582 317.108 25.5657 315.766 24.2247C314.424 22.8836 312.83 21.8203 311.077 21.0954C309.323 20.3705 307.444 19.9983 305.547 20Z" fill="#EBF8FF"/>
</mask>
<g mask="url(#mask0_2810_46781)">
<path d="M305.547 20H14.4533C12.5559 19.9983 10.6768 20.3705 8.92329 21.0954C7.16981 21.8203 5.57638 22.8836 4.23409 24.2247C2.8918 25.5657 1.82697 27.1582 1.10045 28.911C0.373942 30.6638 -8.08861e-07 32.5426 0 34.44V205.547C0 209.38 1.52275 213.056 4.23328 215.767C6.9438 218.477 10.6201 220 14.4533 220H305.547C309.38 220 313.056 218.477 315.767 215.767C318.477 213.056 320 209.38 320 205.547V34.44C320 32.5426 319.626 30.6638 318.9 28.911C318.173 27.1582 317.108 25.5657 315.766 24.2247C314.424 22.8836 312.83 21.8203 311.077 21.0954C309.323 20.3705 307.444 19.9983 305.547 20Z" fill="#223548"/>
<rect x="32" y="207" width="86.6463" height="13" rx="4" fill="#324E6B"/>
<rect x="111.272" y="207" width="191.728" height="13" rx="4" fill="#2A4259"/>
<rect x="-15.4893" y="6.48926" width="56" height="70.9333" rx="6.22222" fill="#324E6B"/>
<rect x="-13.623" y="4.45312" width="56" height="70.9333" rx="6.22222" fill="#2A4259"/>
<rect x="-9.88965" y="8.18652" width="48.5333" height="63.4667" rx="3.73333" fill="#223548"/>
<path fill-rule="evenodd" clip-rule="evenodd" d="M36.1553 71.4407V8.39893C37.6045 8.91115 38.643 10.2928 38.6442 11.9171V67.9225C38.643 69.5469 37.6045 70.9285 36.1553 71.4407Z" fill="#324E6B"/>
<path d="M19.6293 21.7806C20.6373 22.6517 20.2142 24.8295 18.7084 26.6588C17.8124 27.7539 16.7173 28.4633 15.784 28.6873C15.9208 29.4464 16.0453 30.2428 16.1324 31.089C16.6302 35.7557 16.8044 41.1317 13.2577 41.1566C9.13862 41.1939 8.75284 37.3859 8.32973 33.105C8.2924 32.7566 8.25506 32.4206 8.21773 32.0721C7.71995 27.393 7.96884 23.473 11.2915 23.0997C12.6231 22.9504 13.6062 23.5353 14.3404 24.6055C14.552 24.2321 14.8008 23.8713 15.0871 23.5104C16.5928 21.681 18.6213 20.9095 19.6293 21.7806Z" fill="#2A4259"/>
<path d="M23.1139 35.818C23.1139 38.506 21.8819 40.6589 20.3512 40.6713C16.6303 40.7087 17.377 38.5184 17.5885 35.818C17.8001 33.1051 18.8205 30.9895 20.3512 30.9647C23.1512 30.9024 23.1139 33.13 23.1139 35.818Z" fill="#2A4259"/>
<path d="M25.1545 43.7202H4.67091C4.43446 43.7202 4.23535 43.9193 4.23535 44.1682V58.33C4.23535 58.5789 4.43446 58.778 4.67091 58.778H25.1545C25.3909 58.778 25.59 58.5789 25.59 58.33V44.1682C25.59 43.9193 25.3909 43.7202 25.1545 43.7202Z" fill="#2A4259"/>
<path d="M25.1425 41.1938H4.6963C4.45985 41.1938 4.26074 41.393 4.26074 41.6418V46.7316C4.26074 46.9805 4.45985 47.1796 4.6963 47.1796H25.1425C25.379 47.1796 25.5781 46.9805 25.5781 46.7316V41.6418C25.5781 41.393 25.379 41.1938 25.1425 41.1938Z" fill="#324E6B"/>
<path d="M26.3866 39.2402H3.61329C3.37685 39.2402 3.17773 39.4393 3.17773 39.6882V45.2633C3.17773 45.5122 3.37685 45.7113 3.61329 45.7113H26.3866C26.6231 45.7113 26.8222 45.5122 26.8222 45.2633V39.6882C26.8222 39.4393 26.6231 39.2402 26.3866 39.2402Z" fill="#2A4259"/>
<rect x="73" y="100" width="45" height="57" rx="5" fill="#324E6B"/>
<rect x="75" y="98.4355" width="45" height="57" rx="5" fill="#2A4259"/>
<rect x="78" y="101.436" width="39" height="51" rx="3" fill="#223548"/>
<path fill-rule="evenodd" clip-rule="evenodd" d="M115 152.265V101.606C116.165 102.018 117 103.13 117 104.436V149.436C117 150.742 116.165 151.853 115 152.265Z" fill="#324E6B"/>
<mask id="mask1_2810_46781" style="mask-type:alpha" maskUnits="userSpaceOnUse" x="78" y="101" width="39" height="52">
<rect x="78" y="101.436" width="39" height="51" rx="3" fill="#EBF8FF"/>
</mask>
<g mask="url(#mask1_2810_46781)">
<path d="M102.073 139.258L87.9387 142.024L86.145 139.104C85.0386 137.299 84.3395 135.275 84.0963 133.173C83.8532 131.071 84.0717 128.942 84.7368 126.933C85.4018 124.923 86.4975 123.083 87.9475 121.539C89.3976 119.995 91.1672 118.785 93.1334 117.993L97.4471 116.257C102.923 114.051 108.5 119.212 106.7 124.824L102.073 139.258Z" fill="#324E6B"/>
<path d="M99.5534 160.741L94.7597 158.929C94.2562 158.738 93.8043 158.432 93.4402 158.036C93.0762 157.64 92.8099 157.165 92.6629 156.648L88.6271 142.529C88.5399 142.225 88.541 141.903 88.6302 141.6C88.7195 141.297 88.8932 141.025 89.1311 140.817C89.3691 140.609 89.6614 140.472 89.9742 140.423C90.2869 140.374 90.6072 140.415 90.8976 140.54L102.095 145.377L103.163 158.025C103.201 158.473 103.124 158.925 102.94 159.336C102.755 159.747 102.47 160.105 102.109 160.376C101.749 160.648 101.325 160.823 100.878 160.887C100.431 160.951 99.9756 160.9 99.5534 160.741Z" fill="#2A4259"/>
<path d="M102.575 151.077L102.335 148.206C101.381 147.556 100.358 147.012 99.2848 146.584C96.2943 145.367 93.5596 145.15 93.1743 146.095C92.789 147.04 94.8985 148.789 97.8859 150.005C99.7017 150.743 101.416 151.111 102.575 151.077Z" fill="#324E6B"/>
<path d="M96.6584 126.493L101.672 126.764C102.515 126.809 103.34 127.018 104.102 127.381C104.863 127.743 105.545 128.252 106.109 128.879C106.673 129.505 107.108 130.236 107.388 131.03C107.669 131.824 107.79 132.665 107.744 133.506L107.25 142.573C107.158 144.269 106.394 145.858 105.127 146.992C103.86 148.126 102.194 148.711 100.495 148.619L98.3536 148.503C95.8924 148.369 93.5852 147.266 91.9394 145.435C90.2936 143.604 89.4441 141.196 89.5779 138.74L89.9155 132.539C90.0077 130.846 90.7695 129.258 92.0337 128.124C93.2978 126.991 94.9611 126.404 96.6584 126.493Z" fill="#2A4259"/>
<path d="M104.044 135.184L102.553 139.082C102.544 139.104 102.541 139.129 102.544 139.153C102.547 139.177 102.556 139.2 102.57 139.22C102.584 139.24 102.603 139.257 102.625 139.268C102.646 139.278 102.671 139.284 102.695 139.283H105.168C105.191 139.284 105.213 139.279 105.234 139.269C105.254 139.259 105.273 139.244 105.287 139.226C105.301 139.208 105.31 139.187 105.315 139.165C105.32 139.143 105.319 139.119 105.313 139.097L104.331 135.203C104.323 135.172 104.305 135.145 104.281 135.124C104.256 135.104 104.226 135.092 104.194 135.09C104.162 135.088 104.131 135.096 104.104 135.113C104.076 135.129 104.056 135.154 104.044 135.184Z" fill="#324E6B"/>
<path d="M84.9939 130.904L87.4221 130.208C87.4665 130.193 87.5138 130.186 87.561 130.189C87.6081 130.193 87.6541 130.206 87.6959 130.227C87.7377 130.249 87.7745 130.28 87.804 130.317C87.8334 130.353 87.8549 130.396 87.867 130.442L90.3438 139.049C90.5548 139.782 90.4652 140.569 90.0947 141.236C89.7243 141.904 89.1032 142.397 88.3683 142.608C88.2813 142.632 88.188 142.622 88.1089 142.578C88.0298 142.534 87.9713 142.461 87.9463 142.374L84.768 131.329C84.7548 131.287 84.7502 131.242 84.7545 131.197C84.7587 131.153 84.7717 131.11 84.7926 131.07C84.8136 131.031 84.8422 130.996 84.8767 130.967C84.9112 130.939 84.951 130.917 84.9939 130.904Z" fill="#324E6B"/>
<path d="M89.1795 138.026L87.0195 137.15L92.8932 129.613L92.1795 133.47C91.9027 134.976 91.3039 136.406 90.4237 137.661C90.2887 137.853 90.0919 137.994 89.8658 138.061C89.6397 138.127 89.3977 138.115 89.1795 138.026Z" fill="#324E6B"/>
<path d="M90.4813 140.129C91.2683 139.934 91.6153 138.607 91.2562 137.164C90.8972 135.722 89.968 134.711 89.181 134.906C88.3939 135.101 88.0469 136.428 88.406 137.871C88.7651 139.313 89.6942 140.324 90.4813 140.129Z" fill="#2A4259"/>
<path d="M101.181 131.137C107.692 130.244 112.643 127.155 112.241 124.238C111.839 121.321 106.236 119.681 99.7255 120.574C93.2152 121.467 88.2634 124.556 88.6654 127.473C89.0674 130.39 94.671 132.03 101.181 131.137Z" fill="#324E6B"/>
<path d="M92.7897 129.578L88.7803 127.948L86.9165 132.512L90.9259 134.142L92.7897 129.578Z" fill="#324E6B"/>
<path d="M92.5606 121.842C95.3398 119.005 96.9719 116.099 96.206 115.352C95.4401 114.605 92.5663 116.3 89.7871 119.138C87.0079 121.976 85.3757 124.881 86.1416 125.628C86.9075 126.375 89.7814 124.68 92.5606 121.842Z" fill="#324E6B"/>
</g>
<rect x="151" y="5.56445" width="45" height="57" rx="5" fill="#324E6B"/>
<rect x="153" y="4" width="45" height="57" rx="5" fill="#2A4259"/>
<rect x="156" y="7" width="39" height="51" rx="3" fill="#223548"/>
<path fill-rule="evenodd" clip-rule="evenodd" d="M193 57.8295V7.1709C194.165 7.58273 195 8.69397 195 10.0002V55.0002C195 56.3064 194.165 57.4176 193 57.8295Z" fill="#324E6B"/>
<path d="M156 34C156 34 166 34 172.5 43C179 52 183 58 183 58H159C157.34 58 156 56.66 156 55V34Z" fill="#324E6B"/>
<path d="M180.76 48.1601C179.09 47.7201 177.46 48.2601 175.69 49.2901C174.35 50.1201 173.05 51.0301 171.8 52.0101C169.58 53.6801 167.63 55.7001 166 58.0001H189C184.39 53.4701 184.3 49.0901 180.76 48.1601Z" fill="#3B5B7C"/>
<path d="M183.28 33.1902C186.2 33.1902 188.56 30.9102 188.56 28.0902C188.56 25.2702 186.19 22.9902 183.28 22.9902C180.37 22.9902 178 25.2702 178 28.0902C178 30.9102 180.37 33.1902 183.28 33.1902Z" fill="#2A4259"/>
<rect x="248" y="53" width="45" height="57" rx="5" fill="#324E6B"/>
<rect x="250" y="51.4355" width="45" height="57" rx="5" fill="#2A4259"/>
<rect x="253" y="54.4355" width="39" height="51" rx="3" fill="#223548"/>
<path fill-rule="evenodd" clip-rule="evenodd" d="M290 105.265V54.6064C291.165 55.0183 292 56.1295 292 57.4357V102.436C292 103.742 291.165 104.853 290 105.265Z" fill="#324E6B"/>
<g opacity="0.5">
<path d="M284.092 80.4989L284.058 80.4546C282.487 77.8114 279.297 76 275.615 76C272.076 76 268.994 77.6686 267.365 80.1445V76.9204C267.365 76.8682 267.344 76.8182 267.307 76.7812C267.27 76.7443 267.22 76.7235 267.168 76.7235L265.031 78.2593H264.908C264.536 78.097 264.133 78.0181 263.727 78.0279C263.353 78.0223 262.983 78.0875 262.634 78.2199H262.58L260.197 76.7433C260.171 76.7433 260.145 76.7483 260.122 76.7582C260.098 76.7681 260.076 76.7827 260.058 76.8009C260.039 76.8192 260.025 76.8409 260.015 76.8648C260.005 76.8887 260 76.9143 260 76.9402V80.9911C260 82.0773 260.432 83.1189 261.2 83.8869C261.968 84.655 263.01 85.0864 264.096 85.0864H283.472C283.497 85.3374 283.511 85.5786 283.511 85.874C283.516 87.0401 283.233 88.1894 282.687 89.2198C282.14 90.2502 281.348 91.1299 280.38 91.7806L280.302 91.8348C280.179 91.9168 280.075 92.0227 279.995 92.1461C279.914 92.2695 279.86 92.4079 279.834 92.553C279.809 92.698 279.813 92.8467 279.846 92.9901C279.88 93.1335 279.942 93.2687 280.029 93.3875C280.116 93.5063 280.226 93.6063 280.352 93.6815C280.479 93.7568 280.619 93.8056 280.765 93.8252C280.911 93.8448 281.06 93.8346 281.202 93.7953C281.344 93.7561 281.476 93.6886 281.591 93.5969L281.651 93.5575C282.9 92.7002 283.921 91.5508 284.626 90.2092C285.33 88.8676 285.696 87.3744 285.692 85.8592C285.681 83.9564 285.126 82.0966 284.092 80.4989ZM266.144 81.8082L267.335 78.8549L267.36 80.1888L266.144 81.8082Z" fill="#324E6B"/>
<path d="M266.144 81.7982L267.36 80.1592L267.34 78.8253L266.144 81.7982Z" fill="#324E6B"/>
</g>
<rect width="44.25" height="6.75" rx="3" transform="matrix(-1 0 0 1 163.75 200.25)" fill="#0070F3"/>
<path d="M152.477 205.114L149.5 200.25H256V204.615C256 204.93 255.946 205.241 255.841 205.531C255.736 205.821 255.582 206.085 255.388 206.306C255.194 206.528 254.964 206.703 254.711 206.822C254.458 206.941 254.187 207.002 253.914 207H155.642C155.021 207.001 154.41 206.831 153.859 206.502C153.308 206.174 152.834 205.698 152.477 205.114Z" fill="#1782FF"/>
<path d="M210.439 132.001H108.411C108.051 131.991 107.693 132.063 107.366 132.212C107.038 132.362 106.749 132.584 106.523 132.861C106.296 133.138 106.136 133.464 106.057 133.812C105.978 134.161 105.981 134.522 106.066 134.869L119.646 198.368C119.761 198.9 120.057 199.376 120.484 199.719C120.91 200.061 121.442 200.248 121.992 200.249H222.847C223.204 200.258 223.558 200.186 223.882 200.039C224.206 199.892 224.492 199.673 224.719 199.4C224.945 199.127 225.105 198.806 225.187 198.462C225.269 198.118 225.271 197.76 225.192 197.416L212.785 133.929C212.69 133.383 212.401 132.889 211.971 132.536C211.541 132.183 210.998 131.993 210.439 132.001Z" fill="#4098FF"/>
<path d="M205.794 142.015C205.44 140.122 203.787 138.75 201.862 138.75H175.017C172.616 138.75 170.756 140.85 171.047 143.234L174.641 172.734C174.885 174.741 176.59 176.25 178.612 176.25H207.377C209.881 176.25 211.769 173.976 211.309 171.515L205.794 142.015Z" fill="#1782FF"/>
<path d="M120.854 146.286L171.746 146.462L190.741 146.532C191.3 146.524 191.843 146.716 192.272 147.072C192.702 147.429 192.99 147.927 193.085 148.478L198.347 176.064L201.159 190.842C201.235 191.189 201.232 191.548 201.149 191.894C201.066 192.239 200.906 192.561 200.68 192.836C200.454 193.11 200.169 193.329 199.846 193.477C199.523 193.625 199.17 193.698 198.815 193.689H128.694C128.136 193.683 127.597 193.483 127.17 193.124C126.743 192.765 126.453 192.269 126.35 191.721L118.511 149.122C118.447 148.777 118.46 148.423 118.548 148.083C118.637 147.744 118.798 147.428 119.022 147.158C119.245 146.888 119.525 146.67 119.841 146.519C120.158 146.368 120.504 146.289 120.854 146.286Z" fill="#CEDBE8"/>
<path d="M158.732 149.85C156.264 149.812 153.815 150.294 151.544 151.264C149.277 152.234 147.238 153.67 145.561 155.481C143.895 157.322 142.632 159.492 141.855 161.851C141.081 164.209 140.812 166.704 141.064 169.173C142.005 179.779 151.413 188.435 162.01 188.435C164.478 188.473 166.927 187.992 169.198 187.022C171.464 186.05 173.503 184.614 175.181 182.804C176.849 180.965 178.111 178.795 178.887 176.434C179.662 174.076 179.932 171.581 179.677 169.112C178.751 158.482 169.353 149.85 158.732 149.85ZM174.466 182.126C172.884 183.835 170.961 185.192 168.821 186.107C166.679 187.026 164.368 187.484 162.038 187.45C151.907 187.45 142.946 179.214 142.057 169.074C141.818 166.739 142.071 164.379 142.8 162.148C143.531 159.917 144.72 157.864 146.29 156.122C147.874 154.415 149.797 153.059 151.935 152.14C154.078 151.226 156.388 150.77 158.718 150.802C168.849 150.802 177.815 159.033 178.699 169.178C178.94 171.512 178.688 173.87 177.961 176.1C177.231 178.331 176.042 180.384 174.47 182.126H174.466Z" fill="#F58B00"/>
<path d="M172.266 180.773C178.036 174.735 177.382 164.727 170.805 158.42C164.227 152.113 154.218 151.894 148.448 157.932C142.678 163.97 143.332 173.978 149.909 180.285C156.487 186.592 166.496 186.811 172.266 180.773Z" fill="#0070F3"/>
<path d="M161.751 166.875C161.77 167.192 161.91 167.49 162.144 167.706C162.377 167.921 162.685 168.037 163.003 168.029H168.257C168.406 168.039 168.556 168.015 168.695 167.959C168.833 167.902 168.958 167.816 169.058 167.705C169.159 167.594 169.234 167.462 169.277 167.318C169.319 167.174 169.329 167.023 169.306 166.875L168.835 161.541C168.817 161.224 168.676 160.926 168.443 160.71C168.209 160.495 167.901 160.379 167.584 160.387C167.435 160.377 167.285 160.401 167.146 160.458C167.007 160.514 166.882 160.6 166.781 160.711C166.68 160.822 166.605 160.954 166.562 161.098C166.518 161.241 166.508 161.393 166.53 161.541L166.7 163.464C165.776 162.508 164.674 161.744 163.455 161.216C162.236 160.688 160.925 160.406 159.597 160.387C158.427 160.367 157.266 160.597 156.191 161.062C155.117 161.526 154.153 162.213 153.364 163.079C152.575 163.945 151.978 164.969 151.614 166.083C151.25 167.197 151.127 168.376 151.253 169.542C151.509 172.021 152.663 174.321 154.495 176.007C156.328 177.694 158.713 178.65 161.201 178.697C163.22 178.726 165.181 178.016 166.715 176.7C168.248 175.384 169.25 173.552 169.531 171.549C169.561 171.222 169.463 170.896 169.259 170.64C169.073 170.389 168.799 170.22 168.492 170.168C168.339 170.137 168.181 170.137 168.028 170.17C167.875 170.202 167.73 170.266 167.603 170.357C167.488 170.441 167.392 170.549 167.322 170.673C167.252 170.797 167.21 170.936 167.198 171.078C167.007 172.575 166.267 173.948 165.121 174.929C163.975 175.91 162.505 176.428 160.999 176.383C159.139 176.348 157.355 175.633 155.986 174.372C154.616 173.111 153.754 171.391 153.562 169.537C153.466 168.665 153.556 167.783 153.826 166.949C154.097 166.115 154.541 165.348 155.13 164.699C155.719 164.05 156.44 163.534 157.243 163.185C158.046 162.837 158.915 162.663 159.79 162.677C160.942 162.69 162.075 162.97 163.1 163.495C164.126 164.02 165.017 164.775 165.703 165.702H162.72C162.575 165.701 162.431 165.733 162.3 165.794C162.168 165.856 162.052 165.946 161.959 166.059C161.866 166.171 161.8 166.302 161.764 166.443C161.728 166.585 161.724 166.732 161.751 166.875Z" fill="#CEDBE8"/>
</g>
</svg>
