<svg width="160" height="161" viewBox="0 0 160 161" fill="none" xmlns="http://www.w3.org/2000/svg">
<rect y="46" width="160" height="69" rx="12" fill="#222F3B"/>
<path d="M53.7954 52.0968L63.288 86.4272C63.4913 87.1647 64.2104 87.6419 64.9766 87.5443L105.148 82.3636C107.526 81.7635 108.205 79.8547 107.882 78.9328L95.2774 47.0571C95.0486 46.4064 94.4131 45.987 93.7232 46.0304L55.6728 47.1439C54.696 47.2054 52.735 48.6045 53.799 52.0968H53.7954Z" fill="#00144A"/>
<path d="M54.2966 49.0764L64.2577 85.0951C64.4611 85.8326 65.1801 86.3099 65.9463 86.2122L106.626 80.9665C107.599 80.84 108.209 79.8566 107.886 78.9348L96.2471 45.7251C96.0183 45.0744 95.3828 44.655 94.6929 44.6984L55.6947 47.1351C54.7179 47.1965 54.0424 48.1365 54.3039 49.0764H54.2966Z" fill="#D5DADD"/>
<path d="M66.5441 37.8791L73.7908 56.6862C74.0772 57.6328 72.1645 59.5077 71.177 59.5917L35.4793 62.6434C34.7084 62.7092 34.0035 62.2012 33.8273 61.4483L29.0586 41.1866C28.6768 39.3446 30.2496 37.2018 31.2262 37.158L64.9765 36.779C65.6887 36.7461 66.3348 37.1993 66.5404 37.8827L66.5441 37.8791Z" fill="#2A4259"/>
<path d="M67.7334 36.6135L73.7246 56.327C74.011 57.2735 73.3539 58.242 72.3627 58.3261L36.665 61.3778C35.894 61.4436 35.1892 60.9356 35.013 60.1827L30.0313 38.9963C29.8074 38.0498 30.5049 37.1361 31.4814 37.0886L66.1659 35.5134C66.878 35.4805 67.5242 35.9337 67.7297 36.6171L67.7334 36.6135Z" fill="#4D82B8"/>
<path d="M41.6761 39.0805C40.0535 39.1573 38.6328 39.6361 37.5094 40.3926L43.4639 46.2986L34.8589 45.8929C34.8883 46.1889 34.9286 46.485 35.0021 46.7883C35.9712 50.8962 40.6115 53.9954 45.2921 53.6701C49.9067 53.3485 52.7481 49.8181 51.7092 45.8235C50.6813 41.8727 46.2209 38.8722 41.6761 39.0805Z" fill="#3B5B7C"/>
<path d="M105.435 107.61L84.4522 101.154C87.8663 98.7091 85.7697 95.8888 79.3616 94.1688C72.0287 92.1983 60.4215 92.0832 52.2826 94.03C43.0192 96.2477 41.0141 100.412 49.468 103.178C58.2471 106.049 72.9568 105.748 81.0957 102.809L100.618 109.567L102.993 109.162C103.43 108.634 103.67 109.208 104.354 108.795C105.621 107.928 106.285 107.36 106.075 107.255H105.435V107.61Z" fill="#101619"/>
<path d="M108.284 56.2208C109.677 62.0488 107.381 68.0506 104.514 72.3355C101.935 76.1858 97.5833 78.8988 91.8857 79.5797C79.3189 81.0793 65.868 72.1291 62.4771 60.0023C59.0862 47.8755 66.5338 36.3319 78.4675 35.7814C89.9319 35.2525 104.438 45.4813 108.284 56.2208Z" fill="#8D2A00"/>
<path d="M107.443 53.2294C111.442 64.3927 105.409 74.8895 93.3737 76.3275C80.8069 77.827 67.356 68.8769 63.9651 56.7501C60.5742 44.6233 68.2146 35.5753 80.152 35.0248C91.6164 34.4959 103.601 42.4935 107.447 53.2294H107.443Z" fill="#C35500"/>
<path d="M104.762 53.4487C108.193 63.1595 102.874 72.2147 92.4388 73.4064C81.6038 74.6415 70.0267 66.9373 67.0542 56.5057C64.1872 46.4435 70.6088 38.1055 80.9708 37.5803C90.9762 37.0768 101.447 44.0638 104.765 53.4487H104.762Z" fill="#D0C1CB"/>
<path d="M107.298 107.679L100.443 109.497L89.5535 74.8516L95.9751 74.1055L107.298 107.679Z" fill="#C35500"/>
<path d="M66.6938 48.684L80.8651 37.5859C73.4211 38.0025 68.0328 42.4577 66.6938 48.684Z" fill="#D0C1CB"/>
<path d="M92.4386 73.404C101.644 72.3535 106.865 65.1854 105.613 56.8438L82.939 72.3318C86.0134 73.3532 89.2587 73.7662 92.4386 73.404Z" fill="#D5DADD"/>
<path d="M93.5919 40.7145L93.5847 40.7109L93.5919 40.7145Z" fill="#D0C1CB"/>
<path d="M80.967 37.5799C81.2617 37.5655 81.5528 37.5583 81.8475 37.5547C81.5528 37.5547 81.2617 37.5655 80.967 37.5799Z" fill="#D0C1CB"/>
<path d="M90.4885 39.2422C90.5795 39.2784 90.6704 39.3146 90.7578 39.3509C90.6668 39.3146 90.5795 39.2784 90.4885 39.2422Z" fill="#D0C1CB"/>
<path d="M91.3145 39.582C91.3763 39.611 91.4382 39.64 91.5 39.6653C91.4382 39.6364 91.3763 39.6074 91.3145 39.582Z" fill="#D0C1CB"/>
<path d="M89.6516 38.9258C89.7535 38.962 89.859 38.9982 89.9609 39.0381C89.859 38.9982 89.7571 38.962 89.6516 38.9258Z" fill="#D0C1CB"/>
<path d="M83.9905 37.6523C84.1578 37.6667 84.3252 37.6847 84.4962 37.7064C84.3288 37.6883 84.1615 37.6703 83.9905 37.6523Z" fill="#D0C1CB"/>
<path d="M83.0845 37.5859C83.2591 37.5967 83.4374 37.6039 83.612 37.6183C83.4374 37.6039 83.2591 37.5931 83.0845 37.5859Z" fill="#D0C1CB"/>
<path d="M84.8818 37.7539C85.0456 37.7755 85.2129 37.8007 85.3766 37.8259C85.2129 37.8007 85.0492 37.7755 84.8818 37.7539Z" fill="#D0C1CB"/>
<path d="M82.1423 37.5547C82.3388 37.5547 82.5316 37.5583 82.7281 37.5655C82.5316 37.5583 82.3352 37.5547 82.1423 37.5547Z" fill="#D0C1CB"/>
<path d="M105.773 58.3527C105.235 47.5661 94.8255 38.9383 84.4927 37.6525C80.898 37.3229 74.5783 37.3229 69.9903 42.2887C69.4737 42.8465 68.9898 43.4985 68.5386 44.1867C68.4622 44.3026 68.4186 44.3823 68.3494 44.4946C68.3385 44.5091 68.3349 44.5272 68.324 44.5453C73.7633 38.0219 82.4589 37.6054 90.143 40.6479C98.0964 43.7955 104.966 50.6522 105.773 58.36V58.3527Z" fill="#8D2A00"/>
<path d="M79.1624 38.9197L66.6938 48.6848C66.1808 51.0754 66.2609 53.7232 67.054 56.5049C67.1195 56.7367 67.1923 56.9649 67.2687 57.1931L91.3944 41.1799C87.4432 39.4159 83.1645 38.5393 79.1624 38.9197Z" fill="#D5DADD"/>
<path d="M86.9412 76.221L90.6777 78.4268C90.6777 78.4268 89.8991 76.5035 92.4605 76.2391V76.1992C91.4345 76.355 89.3679 76.5614 86.9412 76.2173V76.221Z" fill="#8D2A00"/>
<path d="M95.1748 75.8556C95.6951 75.8773 96.6047 76.2613 97.0376 77.366L97.6561 75.3594C97.6561 75.3594 97.0849 75.6347 95.1748 75.852V75.8556Z" fill="#8D2A00"/>
<path d="M100.443 109.5L90.2339 77.0574L90.9215 76.3692C90.9215 76.3692 92.2277 76.2931 93.7121 75.9961C93.7121 75.9961 93.1991 76.572 93.3483 77.3689C93.945 80.4984 103.652 108.892 103.652 108.892L100.439 109.5H100.443Z" fill="#8D2A00"/>
<path d="M107.298 107.681C107.298 108.058 105.529 108.685 102.637 109.427C101.207 109.713 100.505 109.677 100.443 109.5C100.399 109.373 101.181 108.884 102.6 108.427C104.725 107.765 107.057 107.392 107.298 107.681Z" fill="#8D2A00"/>
<path d="M88.4002 55.8463C89.3607 54.8792 90.2557 53.8976 89.699 52.1916C89.0805 50.2972 87.2759 49.3627 85.1693 49.5076C82.9972 49.6561 81.9385 50.7427 81.3418 52.1228L79.3262 50.779C80.0466 49.178 81.4946 47.8197 84.529 47.6205C88.1528 47.3814 90.9797 49.0331 91.933 51.9018C92.7225 54.2888 91.6674 55.6036 90.4631 56.9438C89.357 58.1608 88.7895 58.8019 89.1715 59.9936L89.2515 60.2399L87.0394 60.4391L86.9594 60.1928C86.2717 58.0268 87.3414 56.9075 88.4002 55.8499V55.8463ZM88.7203 62.0582C89.6336 61.9749 90.5431 62.5797 90.8269 63.4599C91.1107 64.3401 90.6341 65.0899 89.7172 65.1804C88.7858 65.271 87.8835 64.6733 87.5997 63.7678C87.3159 62.8623 87.7926 62.1415 88.7203 62.0545V62.0582Z" fill="#00144A"/>
<path d="M128.905 82.5051L114.718 84.4686C113.253 84.6724 111.575 83.4671 110.986 81.7898C110.4 80.1196 111.417 78.1346 112.674 77.659L126.685 76.6576C128.057 76.4859 129.66 77.6375 130.274 79.2398L130.957 79.0681C131.208 80.8671 130.285 82.3119 128.905 82.5051Z" fill="#2A4259"/>
<path d="M129.394 81.6421L115.207 83.6056C113.741 83.8095 112.064 82.6042 111.474 80.9268C110.889 79.2566 111.604 77.7581 113.062 77.5757L127.17 75.7982C128.542 75.6265 130.145 76.7781 130.759 78.3804C131.377 79.9898 130.766 81.4562 129.39 81.6457L129.394 81.6421Z" fill="#3B5B7C"/>
<path d="M123.969 79.2368C124.167 79.7661 123.955 80.2489 123.498 80.3097C123.042 80.3705 122.507 79.9878 122.313 79.4585C122.115 78.9256 122.331 78.45 122.787 78.3892C123.243 78.3284 123.771 78.711 123.969 79.2404V79.2368Z" fill="#4D82B8"/>
<path d="M126.193 78.9436C126.391 79.4729 126.186 79.9485 125.733 80.0093C125.28 80.0701 124.749 79.691 124.551 79.1617C124.354 78.6324 124.562 78.1567 125.015 78.0995C125.467 78.0423 125.995 78.4178 126.193 78.9471V78.9436Z" fill="#4D82B8"/>
<path d="M128.399 78.6477C128.596 79.1734 128.399 79.6491 127.946 79.7099C127.493 79.7707 126.969 79.3916 126.771 78.8658C126.574 78.3401 126.779 77.868 127.228 77.8072C127.677 77.7464 128.201 78.1255 128.399 78.6512V78.6477Z" fill="#4D82B8"/>
<path d="M125.543 74.3068L111.701 76.0128C110.253 76.188 108.608 75.0078 108.04 73.3805C107.472 71.7639 108.568 69.7218 109.779 69.3749L123.66 68.6417C125.015 68.4951 126.588 69.6252 127.184 71.1774L127.781 70.9235C128.237 72.5543 126.911 74.1387 125.55 74.3032L125.543 74.3068Z" fill="#2A4259"/>
<path d="M126.293 73.4396L112.189 75.1456C110.741 75.3208 109.096 74.1406 108.528 72.5133C107.961 70.8968 108.679 69.4626 110.116 69.3052L124.145 67.7745C125.499 67.6279 127.073 68.758 127.669 70.3102C128.269 71.8696 127.655 73.2715 126.293 73.436V73.4396Z" fill="#4D82B8"/>
<path d="M117.219 72.1695L111.546 72.8312C111.234 72.8669 110.878 72.613 110.752 72.2625C110.627 71.912 110.781 71.6009 111.094 71.5651L116.759 70.9213C117.064 70.8856 117.413 71.1395 117.542 71.4828C117.668 71.8297 117.524 72.1373 117.219 72.1731V72.1695Z" fill="#3B5B7C"/>
<path d="M122.13 66.3831L108.805 67.8459C107.368 67.9961 105.748 66.8302 105.191 65.2494C104.638 63.6757 105.504 61.4333 107.275 61.301L120.707 60.8682C122.051 60.743 124.257 61.5442 124.835 63.057C125.226 64.8309 123.527 66.2222 122.13 66.3831Z" fill="#2A4259"/>
<path d="M123.29 65.5209L109.294 66.9836C107.857 67.1339 106.237 65.9679 105.68 64.3871C105.126 62.8135 105.849 61.4366 107.275 61.3042L121.196 60.0096C122.539 59.8844 124.095 61.0038 124.673 62.5131C125.255 64.0331 124.641 65.3814 123.286 65.5244L123.29 65.5209Z" fill="#3B5B7C"/>
<path d="M122.051 63.3876L116.594 63.9348C116.292 63.9634 115.947 63.7166 115.825 63.3804C115.703 63.0442 115.847 62.751 116.145 62.7188L121.598 62.1859C121.893 62.1573 122.23 62.4005 122.356 62.7331C122.482 63.0657 122.345 63.3554 122.051 63.3876Z" fill="#4D82B8"/>
</svg>
