<svg width="176" height="160" viewBox="0 0 176 160" fill="none" xmlns="http://www.w3.org/2000/svg">
<circle cx="86.1719" cy="79.8965" r="72.4121" fill="#EBF8FF"/>
<path d="M52.0713 108.929L50.0413 110.899L60.6201 100.712L57.2033 103.991L52.0713 108.929Z" fill="#9EDDFF"/>
<path d="M32.5693 122.986L31.1166 120.771L15.16 104.922C15.097 104.86 15.047 104.786 15.013 104.705C14.979 104.623 14.9617 104.536 14.962 104.448C14.9624 104.359 14.9804 104.272 15.0151 104.191C15.0497 104.109 15.1003 104.036 15.1638 103.974L15.9276 103.233L13.9185 101.243C13.8558 101.18 13.8061 101.105 13.7724 101.023C13.7386 100.941 13.7215 100.853 13.722 100.765C13.7225 100.676 13.7406 100.588 13.7753 100.507C13.8099 100.425 13.8604 100.351 13.9238 100.289L15.022 99.2254L12.8715 96.9269C12.8122 96.8523 12.7682 96.7667 12.7422 96.675C12.7161 96.5833 12.7085 96.4874 12.7198 96.3927C12.7311 96.2981 12.761 96.2066 12.8079 96.1236C12.8548 96.0406 12.9176 95.9677 12.9928 95.9091L29.0881 81.4745L29.2201 79.2712L8.82425 99.0676C8.69899 99.1897 8.59967 99.3358 8.53219 99.4972C8.46471 99.6585 8.43048 99.8319 8.43154 100.007C8.4326 100.182 8.46894 100.355 8.53838 100.515C8.60782 100.676 8.70891 100.821 8.83565 100.941L32.3601 123.34C32.9646 123.914 33.7559 124.251 34.5891 124.29C34.1793 124.228 33.7873 124.08 33.4391 123.855C33.0909 123.631 32.7944 123.334 32.5693 122.986Z" fill="#9EDDFF"/>
<path d="M15.1614 103.972C15.098 104.033 15.0474 104.107 15.0128 104.188C14.9781 104.269 14.9601 104.357 14.9597 104.445C14.9594 104.533 14.9767 104.621 15.0107 104.702C15.0447 104.784 15.0947 104.858 15.1577 104.92L31.1182 120.767L26.4954 113.721L15.9292 103.228L15.1614 103.972Z" fill="#D1EFFF"/>
<path d="M15.0125 99.2101L13.9143 100.273C13.8509 100.335 13.8004 100.409 13.7658 100.491C13.7311 100.573 13.713 100.661 13.7125 100.749C13.712 100.838 13.7291 100.926 13.7629 101.008C13.7966 101.09 13.8463 101.165 13.909 101.227L15.918 103.217L26.4843 113.711L21.5569 106.199L15.0125 99.2101Z" fill="#B8E6FF"/>
<path d="M12.8621 96.9112L15.0126 99.2097L21.564 106.211L17.2815 99.6743C16.8963 99.0898 16.7271 98.3892 16.8032 97.6933C16.8792 96.9974 17.1956 96.3498 17.6979 95.8621L28.4466 85.4261C28.7148 85.1701 28.8756 84.8217 28.8964 84.4515L29.0787 81.4588L12.9788 95.8856C12.9028 95.9445 12.8393 96.0181 12.7922 96.1019C12.745 96.1858 12.7151 96.2782 12.7043 96.3738C12.6934 96.4693 12.7018 96.5661 12.7289 96.6584C12.756 96.7507 12.8013 96.8367 12.8621 96.9112Z" fill="#D1EFFF"/>
<path d="M45.5644 59.1627L29.4433 74.7851C29.175 75.0475 29.0132 75.3994 28.9891 75.773L28.8147 79.0886L28.6772 81.3116L28.4877 84.3311C28.466 84.7046 28.3027 85.0563 28.0312 85.3151L17.1479 95.8628C16.6392 96.3556 16.3182 97.0095 16.2401 97.7117C16.162 98.4139 16.3318 99.1204 16.7201 99.7094L21.037 106.296L26.0041 113.865L30.6642 120.964L32.1286 123.196C32.3694 123.561 32.6878 123.867 33.0613 124.095C33.4348 124.322 33.8541 124.464 34.2896 124.511C34.725 124.559 35.1659 124.509 35.5808 124.367C35.9957 124.225 36.3746 123.994 36.6905 123.69L49.8111 110.979L51.8522 108.992L57.0485 104.001L60.5041 100.689L70.0788 91.4996C70.2995 91.2905 70.4374 91.009 70.4669 90.7071C70.4965 90.4052 70.4157 90.1033 70.2395 89.8569L48.7761 59.465C48.6016 59.2132 48.3741 59.0027 48.1093 58.8481C47.8446 58.6934 47.549 58.5984 47.2433 58.5696C46.9375 58.5408 46.6289 58.579 46.3389 58.6814C46.0489 58.7838 45.7846 58.9481 45.5644 59.1627Z" fill="#B8E6FF"/>
<path d="M120.692 36.6794C119.9 36.3194 118.998 36.2882 118.183 36.5928C117.368 36.8975 116.708 37.5129 116.346 38.3042L94.4105 86.5448C94.0517 87.3372 94.0221 88.2396 94.3281 89.0538C94.6341 89.8681 95.2507 90.5277 96.0425 90.8877L130.251 106.443C131.042 106.803 131.944 106.833 132.758 106.528C133.572 106.223 134.232 105.607 134.592 104.816L154.469 61.1014L148.787 49.4545L120.692 36.6794Z" fill="#B8E6FF"/>
<path d="M119.592 33.7458C118.801 33.3858 117.898 33.3546 117.083 33.6592C116.269 33.9639 115.608 34.5793 115.247 35.3706L93.3109 83.6112C92.9521 84.4036 92.9225 85.306 93.2285 86.1203C93.5345 86.9345 94.1511 87.5941 94.9429 87.9541L129.151 103.509C129.543 103.687 129.966 103.787 130.397 103.801C130.827 103.816 131.256 103.746 131.659 103.595C132.062 103.444 132.431 103.215 132.746 102.921C133.06 102.627 133.314 102.274 133.492 101.882L153.37 58.1678L147.687 46.5209L119.592 33.7458Z" fill="#D1EFFF"/>
<path d="M144.267 54.0293L152.531 60.0009L153.365 58.1662L144.267 54.0293Z" fill="#9EDDFF"/>
<path d="M144.267 54.0296L153.364 58.1665L147.682 46.5195L144.267 54.0296Z" fill="#B8E6FF"/>
<path d="M153.575 86.5264C149.116 91.5237 143.594 96.8397 140.092 93.0145C135.704 88.2177 140.32 83.8857 144.796 78.8745C149.271 73.8633 153.665 70.3919 157.3 73.6436C160.716 76.6893 158.054 81.5065 153.575 86.5264Z" fill="#9EDDFF"/>
<path d="M160.789 85.1075C164.203 85.0003 166.921 83.3603 166.861 81.4444C166.8 79.5284 163.984 78.0621 160.57 78.1693C157.156 78.2764 154.438 79.9165 154.498 81.8324C154.559 83.7483 157.375 85.2146 160.789 85.1075Z" fill="#9EDDFF"/>
<path d="M155.389 98.6378C152.548 101.197 149.048 101.919 147.542 100.279C143.865 96.2703 146.913 95.0034 149.991 92.6449C153.07 90.2864 156.311 89.3832 157.838 91.0042C160.642 93.9737 158.246 96.0644 155.389 98.6378Z" fill="#9EDDFF"/>
<path d="M149.021 108.385L128.999 86.1579C128.762 85.8949 128.357 85.8737 128.094 86.1105L113.089 99.6266C112.826 99.8635 112.804 100.269 113.041 100.532L133.063 122.759C133.3 123.022 133.705 123.043 133.968 122.807L148.973 109.291C149.236 109.054 149.257 108.648 149.021 108.385Z" fill="#B8E6FF"/>
<path d="M151.678 105.965L131.687 83.7712C131.45 83.5081 131.045 83.4869 130.782 83.7238L125.396 88.5755C125.133 88.8123 125.111 89.2176 125.348 89.4806L145.339 111.674C145.576 111.937 145.982 111.958 146.245 111.721L151.631 106.87C151.894 106.633 151.915 106.228 151.678 105.965Z" fill="#9EDDFF"/>
<path d="M154.958 105.446L132.705 80.7418C132.468 80.4788 132.063 80.4577 131.8 80.6945L125.898 86.0113C125.635 86.2482 125.614 86.6534 125.851 86.9164L148.103 111.621C148.34 111.884 148.746 111.905 149.008 111.668L154.911 106.351C155.174 106.115 155.195 105.709 154.958 105.446Z" fill="#B8E6FF"/>
<path d="M67.5859 132.669L62.6653 137.179L61.1852 130.162L67.5859 132.669Z" fill="#005DC9"/>
<ellipse cx="96.4722" cy="130.103" rx="34.5751" ry="7.35041" transform="rotate(-11.9114 96.4722 130.103)" fill="#005DC9"/>
<path d="M122.72 120.992L130.273 122.827L128.811 115.897L122.72 120.992Z" fill="#005DC9"/>
<ellipse cx="95.0933" cy="123.568" rx="34.5751" ry="7.35041" transform="rotate(-11.9114 95.0933 123.568)" fill="#0070F2"/>
<path fill-rule="evenodd" clip-rule="evenodd" d="M93.1681 85.7031C99.3512 88.8321 103.918 91.6278 107.342 94.358C110.497 96.879 112.679 99.3201 114.296 101.88C116.962 106.2 118.014 110.86 119.194 116.781L119.139 116.792C119.207 116.882 119.252 116.977 119.273 117.079C119.732 119.252 109.152 123.324 95.6433 126.173C82.1345 129.023 70.8119 129.571 70.3534 127.398C70.332 127.297 70.3347 127.191 70.3606 127.082L70.2898 127.097C69.0356 121.151 68.0827 116.47 68.7847 111.48C69.196 108.492 70.1901 105.381 72.0571 101.801C74.0744 97.9427 77.1233 93.5411 81.5282 88.1584C81.5364 88.1432 81.5661 88.1024 81.6138 88.0365C81.8474 87.7145 82.5144 86.7951 83.2264 85.3636C83.7947 84.2206 83.4695 82.6817 82.4859 81.8697C81.2786 80.8726 80.3175 80.3137 79.9779 80.1162C79.9074 80.0751 79.8636 80.0497 79.85 80.0392C73.6669 76.9101 69.0998 74.1145 65.6755 71.3843C62.5207 68.8628 60.3389 66.4222 58.7217 63.8626C56.0564 59.5421 55.0044 54.882 53.8245 48.9615L102.728 38.6458C103.982 44.5911 104.935 49.2727 104.233 54.2624C103.821 57.25 102.827 60.3604 100.96 63.9413C98.9431 67.7991 95.8942 72.2012 91.4899 77.5838C91.4817 77.5988 91.4528 77.6385 91.4064 77.7024C91.1684 78.03 90.4693 78.9923 89.7332 80.4963C89.2042 81.5774 89.5085 83.0172 90.4315 83.7896C91.6871 84.8394 92.6928 85.4241 93.0411 85.6266C93.1111 85.6673 93.1545 85.6926 93.1681 85.7031Z" fill="#9EDDFF"/>
<path fill-rule="evenodd" clip-rule="evenodd" d="M49.1529 44.5446C50.2412 44.315 51.3096 45.0112 51.5392 46.0996L68.7591 127.733C68.9887 128.822 68.2925 129.89 67.2041 130.12C66.1158 130.349 65.0474 129.653 64.8178 128.565L47.5979 46.931C47.3683 45.8426 48.0645 44.7742 49.1529 44.5446Z" fill="#004DA5"/>
<path fill-rule="evenodd" clip-rule="evenodd" d="M106.118 32.529C107.207 32.2994 108.275 32.9956 108.505 34.084L125.724 115.718C125.954 116.806 125.258 117.874 124.169 118.104C123.081 118.333 122.013 117.637 121.783 116.549L104.563 34.9154C104.334 33.827 105.03 32.7586 106.118 32.529Z" fill="#004DA5"/>
<path d="M48.3638 41.5444L43.4431 46.054L41.963 39.0373L48.3638 41.5444Z" fill="#005DC9"/>
<ellipse cx="77.2496" cy="38.9777" rx="34.5751" ry="7.35041" transform="rotate(-11.9114 77.2496 38.9777)" fill="#005DC9"/>
<path d="M103.498 29.8667L111.051 31.7023L109.589 24.7721L103.498 29.8667Z" fill="#005DC9"/>
<ellipse cx="75.8712" cy="32.4426" rx="34.5751" ry="7.35041" transform="rotate(-11.9114 75.8712 32.4426)" fill="#0070F2"/>
<path fill-rule="evenodd" clip-rule="evenodd" d="M116.84 107.312C117.828 110.149 118.488 113.24 119.193 116.782L119.139 116.794C119.206 116.883 119.251 116.979 119.273 117.08C119.731 119.253 109.152 123.325 95.6431 126.175C82.1342 129.024 70.8116 129.573 70.3531 127.399C70.3317 127.298 70.3344 127.192 70.3603 127.083L70.2897 127.098C69.5946 123.803 68.992 120.896 68.7124 118.11C73.6986 114.782 83.898 108.766 90.6978 107.506C96.8941 106.358 109.166 106.677 116.84 107.312Z" fill="#D5DADD"/>
<path fill-rule="evenodd" clip-rule="evenodd" d="M118.507 113.465C118.74 114.527 118.964 115.631 119.194 116.782L119.139 116.794C119.207 116.884 119.252 116.979 119.273 117.08C119.731 119.254 109.152 123.325 95.6432 126.175C82.1344 129.025 70.8117 129.573 70.3533 127.4C70.3319 127.298 70.3346 127.193 70.3604 127.083L70.2899 127.098C70.0914 126.158 69.9005 125.248 69.7225 124.365C73.7656 120.406 77.5272 114.716 80.5649 109.365C84.5091 102.417 94.2471 100.26 100.874 104.723C106.164 108.285 112.449 111.807 118.507 113.465Z" fill="#A9B4BE"/>
<path fill-rule="evenodd" clip-rule="evenodd" d="M116.23 105.697C117.574 108.972 118.351 112.555 119.193 116.779L119.138 116.79C119.206 116.88 119.251 116.975 119.273 117.077C119.731 119.25 109.152 123.322 95.6427 126.171C82.1339 129.021 70.8113 129.569 70.3528 127.396C70.3314 127.294 70.3341 127.189 70.3599 127.079L70.289 127.094C69.6014 123.835 69.0044 120.955 68.7209 118.196C81.7885 122.962 92.6488 116.843 101.945 111.604C107.161 108.665 111.885 106.003 116.23 105.697Z" fill="#D5DADD"/>
<path d="M114.221 114.36C111.881 105.166 107.124 100.079 104.703 97.8894C104.29 97.5159 103.722 97.3764 103.177 97.4913C102.342 97.6674 101.958 98.7616 102.402 99.4898C104.47 102.879 107.459 110.007 108.596 115.573C108.866 116.896 110.265 117.747 111.519 117.246L113.032 116.641C113.942 116.278 114.463 115.309 114.221 114.36Z" fill="#D1EFFF"/>
<path fill-rule="evenodd" clip-rule="evenodd" d="M111.427 106.833C112.5 108.957 113.482 111.454 114.222 114.361C114.463 115.31 113.942 116.279 113.033 116.643L111.519 117.247C110.265 117.748 108.866 116.898 108.596 115.575C108.174 113.505 107.495 111.22 106.703 108.991C108.326 108.146 109.899 107.402 111.427 106.833Z" fill="#EBF8FF"/>
<path d="M62.9677 64.0756C60.7003 61.634 59.2568 58.9682 58.2648 55.5825C57.8478 54.1592 58.7921 52.7284 60.2433 52.4223L61.5505 52.1465C63.0778 51.8244 64.5421 52.8725 64.9292 54.3845C65.3484 56.0215 66.0434 58.0216 67.2148 60.0345C68.0851 61.53 67.7794 63.5337 66.3094 64.4465C65.2335 65.1146 63.8295 65.0037 62.9677 64.0756Z" fill="#EBF8FF"/>
<path d="M38.9983 17.3166C38.8198 17.5255 38.7009 17.7787 38.6542 18.0496C38.6074 18.3204 38.6345 18.5988 38.7327 18.8555L40.9076 25.0225C41.2669 26.0426 42.303 26.2943 43.1025 26.0125C43.4339 25.9091 43.7228 25.701 43.9258 25.4193C44.1287 25.1377 44.2348 24.7977 44.228 24.4506C44.2197 24.283 44.1862 24.1176 44.1284 23.9601L41.9534 17.7931C41.8636 17.5206 41.7017 17.2775 41.485 17.0894C41.2683 16.9013 41.0047 16.7754 40.7223 16.7248C40.4083 16.6685 40.0852 16.6933 39.7835 16.7968C39.4817 16.9004 39.2115 17.0793 38.9983 17.3166Z" fill="#A9B4BE"/>
<path d="M17.7119 45.7638C17.6805 45.958 17.6899 46.1566 17.7396 46.3469C17.7892 46.5372 17.878 46.7151 18.0003 46.8692C18.1225 47.0233 18.2756 47.1501 18.4496 47.2418C18.6237 47.3334 18.8149 47.3877 19.0111 47.4012L25.3389 48.1302C25.5666 48.1557 25.7969 48.1355 26.0167 48.0709C26.2364 48.0063 26.4411 47.8986 26.6187 47.7541C26.7963 47.6095 26.9434 47.431 27.0513 47.229C27.1592 47.0269 27.2257 46.8054 27.2471 46.5774C27.2585 46.4836 27.2622 46.389 27.2582 46.2946C27.2483 45.9457 27.1081 45.613 26.8651 45.3624C26.6221 45.1117 26.2941 44.9611 25.9456 44.9404L19.6205 44.2133C19.3929 44.1875 19.1626 44.2073 18.9428 44.2715C18.723 44.3358 18.5183 44.4433 18.3406 44.5877C18.1629 44.7321 18.0157 44.9105 17.9078 45.1124C17.7998 45.3144 17.7332 45.5358 17.7119 45.7638Z" fill="#A9B4BE"/>
<path d="M23.2356 28.7695C23.2576 28.9832 23.3231 29.1902 23.4279 29.3778C23.5327 29.5654 23.6747 29.7296 23.8451 29.8604L31.4319 35.807C31.7737 36.0717 32.2046 36.1942 32.6345 36.1486C33.0644 36.1031 33.46 35.8931 33.7387 35.5626C33.9959 35.255 34.1281 34.8619 34.1091 34.4614C34.0978 34.2305 34.0369 34.0048 33.9304 33.7996C33.824 33.5945 33.6746 33.4146 33.4924 33.2724L25.9056 27.3259C25.5622 27.0594 25.1288 26.9364 24.6965 26.9828C24.2643 27.0291 23.8669 27.2413 23.5878 27.5746C23.4516 27.7397 23.3502 27.9307 23.2897 28.1361C23.2292 28.3414 23.2108 28.5568 23.2356 28.7695Z" fill="#A9B4BE"/>
</svg>
