<svg width="45" height="46" viewBox="0 0 45 46" fill="none" xmlns="http://www.w3.org/2000/svg">
<path d="M7.32178 3.16211H37.679V45.8662H7.32178V3.16211Z" fill="white"/>
<path fill-rule="evenodd" clip-rule="evenodd" d="M36.679 4.16211H8.32178V44.8662H36.679V4.16211ZM7.32178 3.16211V45.8662H37.679V3.16211H7.32178Z" fill="#00144A"/>
<rect width="40.8953" height="5.3949" transform="matrix(-3.58932e-08 1 1 5.32325e-08 19.8027 4.06641)" fill="#0070F2"/>
<rect width="5.50757" height="5.3949" transform="matrix(-3.58932e-08 1 1 5.32325e-08 19.8027 4.06641)" fill="#004DA5"/>
<rect width="35.4181" height="4.83553" transform="matrix(1 0 0 -1 4.79102 5.7793)" fill="#0070F2"/>
<rect x="10.4131" y="8.27148" width="7.36816" height="15.6904" fill="#A9B4BE"/>
<rect x="10.4131" y="26.5645" width="7.36816" height="15.6904" fill="#A9B4BE"/>
<rect x="27.2207" y="8.27148" width="7.36816" height="15.6904" fill="#A9B4BE"/>
<rect x="27.2207" y="26.5645" width="7.36816" height="15.6904" fill="#A9B4BE"/>
</svg>
