<svg width="128" height="128" viewBox="0 0 128 128" fill="none" xmlns="http://www.w3.org/2000/svg">
<mask id="mask0_4525_145112" style="mask-type:alpha" maskUnits="userSpaceOnUse" x="0" y="0" width="128" height="128">
<circle cx="64" cy="64" r="64" fill="#EBF8FF"/>
</mask>
<g mask="url(#mask0_4525_145112)">
<path d="M133.773 -9.5H-11.7733C-12.722 -9.50125 -13.6616 -9.23511 -14.5384 -8.71682C-15.4151 -8.19852 -16.2118 -7.43821 -16.883 -6.47936C-17.5541 -5.5205 -18.0865 -4.38191 -18.4498 -3.12865C-18.813 -1.87539 -19 -0.532041 -19 0.824607V123.166C-19 125.907 -18.2386 128.535 -16.8834 130.473C-15.5281 132.411 -13.69 133.5 -11.7733 133.5H133.773C135.69 133.5 137.528 132.411 138.883 130.473C140.239 128.535 141 125.907 141 123.166V0.824607C141 -0.532041 140.813 -1.87539 140.45 -3.12865C140.087 -4.38191 139.554 -5.5205 138.883 -6.47936C138.212 -7.43821 137.415 -8.19852 136.538 -8.71682C135.662 -9.23511 134.722 -9.50125 133.773 -9.5V-9.5Z" fill="#111619"/>
<path d="M-20.3386 106.918L19.1729 93.6099C20.8583 93.0375 21.7487 91.2249 21.1922 89.5554L1.82599 32.061C1.25359 30.3756 -0.559009 29.4852 -2.22851 30.0417L-41.74 43.3659C-43.4254 43.9383 -44.3158 45.7509 -43.7593 47.4204L-24.3931 104.915C-23.8207 106.6 -22.0081 107.491 -20.3386 106.934V106.918Z" fill="#384D69"/>
<path d="M-22.0401 105.901L17.3124 92.4174C18.9819 91.845 19.8723 90.0324 19.2999 88.3629L-0.320672 31.107C-0.893072 29.4375 -2.70567 28.5471 -4.37517 29.1195L-43.7277 42.6027C-45.3972 43.1751 -46.2876 44.9877 -45.7152 46.6572L-26.1105 103.913C-25.5381 105.583 -23.7255 106.473 -22.056 105.901H-22.0401Z" fill="#2F4257"/>
<path d="M162.883 37.3364L124.445 24.1694C122.812 23.615 121.041 24.4774 120.487 26.1098L101.329 82.0272C100.775 83.6596 101.637 85.4306 103.27 85.985L141.708 99.152C143.341 99.7064 145.112 98.844 145.666 97.2116L164.824 41.2942C165.378 39.6618 164.516 37.8908 162.883 37.3364Z" fill="#2F4257"/>
<path d="M147.206 60.2825L120.425 51.1041C119.532 50.7961 118.577 51.2735 118.269 52.1667C117.961 53.0599 118.439 54.0147 119.332 54.3227L146.113 63.5011C147.006 63.8091 147.961 63.3317 148.269 62.4385C148.577 61.5453 148.099 60.5905 147.206 60.2825Z" fill="#111619"/>
<path d="M144.896 65.7341L118.115 56.5557C117.222 56.2477 116.267 56.7251 115.959 57.6183C115.651 58.5115 116.129 59.4663 117.022 59.7743L143.803 68.9527C144.696 69.2607 145.666 68.7833 145.959 67.8901C146.267 66.9969 145.789 66.0421 144.896 65.7341Z" fill="#111619"/>
<path d="M130.174 66.7813L115.913 61.8995C115.02 61.5915 114.05 62.0689 113.757 62.9621C113.449 63.8553 113.927 64.8101 114.82 65.1181L129.096 69.9999C129.989 70.3079 130.944 69.8305 131.252 68.9373C131.56 68.0441 131.082 67.0893 130.189 66.7813H130.174Z" fill="#111619"/>
<path d="M75.8954 99.9288L71.3734 100.998L94.8756 95.5308L87.2941 97.281L75.8954 99.9288Z" fill="#252F3A"/>
<path d="M36.5399 103.362L36.3524 99.0239L27.1585 63.316C27.1216 63.176 27.1132 63.03 27.1337 62.8867C27.1543 62.7434 27.2034 62.6057 27.2782 62.4816C27.353 62.3575 27.452 62.2497 27.5692 62.1643C27.6865 62.079 27.8196 62.0179 27.9609 61.9847L29.6632 61.5808L28.5009 57.093C28.4651 56.952 28.4576 56.8054 28.4791 56.6615C28.5005 56.5176 28.5503 56.3794 28.6256 56.2549C28.7009 56.1304 28.8003 56.022 28.9179 55.9361C29.0355 55.8501 29.169 55.7882 29.3108 55.7541L31.7555 55.1782L30.6531 50.1369C30.6321 49.9821 30.6421 49.8247 30.6824 49.6737C30.7228 49.5227 30.7928 49.3813 30.8883 49.2574C30.9838 49.1336 31.1031 49.03 31.239 48.9524C31.375 48.8748 31.5251 48.8249 31.6805 48.8056L66.5439 41.984L68.5836 38.9922L23.139 49.7554C22.8595 49.8223 22.5963 49.9447 22.3653 50.1153C22.1343 50.286 21.9402 50.5013 21.7946 50.7485C21.6489 50.9957 21.5548 51.2697 21.5178 51.554C21.4808 51.8383 21.5017 52.1272 21.5792 52.4032L35.9475 103.684C36.3176 105 37.1509 106.139 38.2947 106.893C37.7682 106.462 37.3394 105.924 37.0369 105.315C36.7344 104.707 36.565 104.041 36.5399 103.362V103.362Z" fill="#252F3A"/>
<path d="M27.9609 61.9772C27.8196 62.0104 27.6865 62.0714 27.5692 62.1568C27.452 62.2421 27.353 62.35 27.2782 62.474C27.2034 62.5981 27.1543 62.7358 27.1338 62.8792C27.1132 63.0225 27.1216 63.1685 27.1585 63.3085L36.36 99.0163L35.76 85.2164L29.6708 61.5732L27.9609 61.9772Z" fill="#111619"/>
<path d="M31.7554 55.1482L29.3107 55.7241C29.169 55.7583 29.0354 55.8201 28.9178 55.906C28.8002 55.992 28.7009 56.1003 28.6255 56.2249C28.5502 56.3494 28.5004 56.4876 28.479 56.6314C28.4576 56.7753 28.465 56.922 28.5008 57.0629L29.6632 61.5507L35.7524 85.1939L35.115 70.4815L31.7554 55.1482Z" fill="#2F4257"/>
<path d="M30.6532 50.1069L31.7556 55.1482L35.1152 70.5039L34.5677 57.7062C34.5156 56.5599 34.8661 55.4314 35.5588 54.5152C36.2515 53.599 37.243 52.9526 38.3623 52.6874L62.3144 47.0104C62.9084 46.875 63.4285 46.5193 63.7693 46.0155L66.544 41.9541L31.6806 48.7606C31.5237 48.7798 31.3722 48.8301 31.2351 48.9087C31.0981 48.9872 30.9781 49.0923 30.8824 49.2177C30.7866 49.3432 30.7171 49.4865 30.6777 49.6392C30.6383 49.7919 30.63 49.951 30.6532 50.1069Z" fill="#111619"/>
<path d="M108.572 24.3877L72.6734 32.8601C72.0739 33.0046 71.5495 33.3644 71.2013 33.8702L68.1661 38.3929L66.1021 41.408L63.2945 45.501C62.9498 46.0087 62.4235 46.3671 61.8225 46.5035L37.5863 52.2248C36.4537 52.4921 35.4504 53.1435 34.7495 54.0668C34.0486 54.9901 33.694 56.1274 33.7467 57.2826L34.3006 70.1798L34.9456 85.0067L35.5527 98.9139L35.7424 103.286C35.7757 104.001 35.9672 104.7 36.3032 105.334C36.6393 105.967 37.1116 106.52 37.6867 106.951C38.2618 107.383 38.9255 107.684 39.6308 107.832C40.336 107.98 41.0655 107.972 41.7673 107.809L70.9812 100.919L75.5341 99.8335L87.0678 97.1652L94.7318 95.4013L115.978 90.4942C116.466 90.385 116.897 90.1043 117.193 89.7039C117.489 89.3036 117.629 88.8106 117.587 88.3158L112.852 27.5083C112.817 27.0074 112.673 26.52 112.43 26.0801C112.186 25.6402 111.849 25.2584 111.441 24.9613C111.034 24.6642 110.566 24.4589 110.071 24.3599C109.575 24.2608 109.064 24.2703 108.572 24.3877V24.3877Z" fill="#252F3A"/>
<path d="M26.7439 27.8793C26.5633 28.0228 26.4247 28.2122 26.3427 28.4278C26.2607 28.6434 26.2383 28.8771 26.2778 29.1043L27.0784 34.5335C27.2104 35.4315 28.0235 35.8054 28.7273 35.7018C29.0169 35.6699 29.2883 35.5448 29.5007 35.3454C29.7131 35.146 29.8551 34.8831 29.9053 34.5961C29.9254 34.4567 29.9243 34.315 29.9021 34.176L29.1015 28.7468C29.0713 28.5078 28.977 28.2815 28.8287 28.0918C28.6804 27.9021 28.4836 27.756 28.2591 27.6689C28.0095 27.5721 27.7393 27.5406 27.4742 27.5774C27.209 27.6142 26.9577 27.7181 26.7439 27.8793V27.8793Z" fill="white"/>
<path d="M4.64001 47.8902C4.58295 48.0451 4.5588 48.2102 4.56912 48.375C4.57944 48.5397 4.62399 48.7005 4.69993 48.8471C4.77587 48.9936 4.88154 49.1227 5.01018 49.2262C5.13883 49.3296 5.28762 49.405 5.44706 49.4477L10.5422 51.065C10.7256 51.1226 10.9186 51.143 11.11 51.1251C11.3013 51.1072 11.4872 51.0513 11.6568 50.9608C11.8263 50.8703 11.9762 50.7469 12.0975 50.5978C12.2188 50.4487 12.3093 50.277 12.3635 50.0926C12.388 50.0171 12.4062 49.9398 12.4181 49.8614C12.466 49.5724 12.4039 49.2759 12.2441 49.0304C12.0842 48.7848 11.8382 48.6081 11.5545 48.535L6.46124 46.9197C6.27799 46.8619 6.08504 46.8412 5.89369 46.8588C5.70234 46.8765 5.51643 46.9321 5.34684 47.0225C5.17725 47.1128 5.02738 47.2361 4.90602 47.3851C4.78465 47.5341 4.69422 47.7059 4.64001 47.8902V47.8902Z" fill="white"/>
<path d="M11.9201 34.7796C11.904 34.9592 11.9246 35.1403 11.9808 35.3116C12.037 35.483 12.1276 35.6411 12.247 35.7762L17.5407 41.8935C17.7797 42.1665 18.1149 42.3366 18.4763 42.3682C18.8378 42.3997 19.1974 42.2904 19.4801 42.0629C19.7414 41.8508 19.9134 41.5483 19.9622 41.2153C19.9899 41.0234 19.976 40.8277 19.9213 40.6416C19.8666 40.4555 19.7724 40.2833 19.6452 40.1369L14.3515 34.0196C14.1114 33.7449 13.7742 33.5739 13.4107 33.5427C13.0472 33.5114 12.6857 33.6223 12.4023 33.852C12.2636 33.9662 12.1494 34.1072 12.0665 34.2666C11.9837 34.426 11.9339 34.6005 11.9201 34.7796V34.7796Z" fill="white"/>
<g clip-path="url(#clip0_4525_145112)">
<path opacity="0.5" d="M93.8192 91.8762C106.786 89.3878 115.245 76.6697 112.708 63.4477C110.171 50.2256 97.6031 41.5357 84.6361 44.0241C71.6691 46.5126 63.2099 59.2307 65.7485 72.4594C68.2872 85.6881 80.8521 94.3647 93.8192 91.8762Z" fill="#111619"/>
<path d="M94.4468 45.0329L85.1376 43.9278L78.8151 90.4702L88.1309 91.574L94.4468 45.0329Z" fill="#D6DADD"/>
<path d="M91.8128 92.2612L98.4008 45.5847L95.5055 45.2389L88.9108 91.9166L91.8128 92.2612Z" fill="#D6DADD"/>
<path d="M105.011 87.0379L99.0821 90.8662L105.139 100.244L111.061 96.4169L105.011 87.0379Z" fill="#848F97"/>
<path d="M105.218 99.3898C104.917 99.5873 104.707 99.8956 104.633 100.248C104.559 100.6 104.627 100.967 104.823 101.268L118.944 123.043C119.527 123.923 120.434 124.536 121.468 124.748C122.501 124.96 123.577 124.755 124.459 124.176L125.161 123.715C125.606 123.431 125.99 123.06 126.29 122.625C126.59 122.19 126.8 121.699 126.908 121.182C127.118 120.147 126.912 119.07 126.333 118.186L112.216 96.438C112.119 96.2868 111.992 96.1564 111.844 96.0544C111.696 95.9524 111.529 95.8807 111.353 95.8436C111.177 95.8064 110.995 95.8045 110.818 95.838C110.642 95.8715 110.473 95.9396 110.323 96.0386L105.218 99.3898Z" fill="#EF8659"/>
<path d="M98.7521 90.3746L99.7276 91.8447C99.7276 91.8447 103.358 92.6944 106.29 88.9002L104.729 86.5441L102.054 88.5413L98.7521 90.3746Z" fill="#708EB4"/>
<path d="M94.1387 92.6746C88.4315 93.7844 82.516 92.8799 77.4009 90.1155C72.2859 87.351 68.2881 82.8978 66.0891 77.5151C63.8902 72.1324 63.6264 66.1536 65.3427 60.5983C67.059 55.0429 70.649 50.255 75.5007 47.051C80.3524 43.8469 86.1653 42.4252 91.9481 43.0281C97.7309 43.6311 103.126 46.2215 107.212 50.3576C111.299 54.4936 113.824 59.9192 114.358 65.7092C114.892 71.4992 113.4 77.295 110.139 82.1082C106.416 87.6113 100.661 91.4116 94.1387 92.6746V92.6746ZM85.0635 45.3843C79.8201 46.381 75.0847 49.1655 71.6645 53.2631C68.2444 57.3607 66.3512 62.5178 66.3077 67.8552C66.2641 73.1927 68.073 78.38 71.4259 82.5331C74.7787 86.6861 79.4681 89.5477 84.6945 90.63C89.9209 91.7124 95.3609 90.9485 100.087 88.4685C104.813 85.9886 108.533 81.9462 110.612 77.0303C112.692 72.1145 113.002 66.6296 111.49 61.5106C109.978 56.3916 106.737 51.9554 102.321 48.9582C99.8208 47.2566 97.0096 46.065 94.0482 45.4518C91.0869 44.8385 88.0337 44.8156 85.0635 45.3843V45.3843Z" fill="#708EB4"/>
</g>
</g>
<defs>
<clipPath id="clip0_4525_145112">
<rect width="52.2923" height="87.196" fill="white" transform="translate(59.9388 48.0771) rotate(-10.8633)"/>
</clipPath>
</defs>
</svg>
