<svg width="128" height="76" viewBox="0 0 128 76" fill="none" xmlns="http://www.w3.org/2000/svg">
<rect y="12.5796" width="128" height="55.2" rx="8" fill="#89D1FF"/>
<path d="M44.1368 13.5796C44.1617 13.592 44.1871 13.5923 44.212 13.5923C44.2245 13.6045 44.2433 13.604 44.2618 13.604C44.2866 13.6102 44.3113 13.6235 44.336 13.6235C44.3546 13.6359 44.3673 13.6353 44.3858 13.6353C44.4293 13.6477 44.4668 13.6541 44.504 13.6665C44.5227 13.6727 44.542 13.6851 44.5606 13.6851C44.5852 13.6912 44.6037 13.6975 44.6222 13.7036C44.6408 13.7098 44.666 13.7231 44.6847 13.7231C44.7032 13.7293 44.7218 13.7415 44.7403 13.7417C44.7651 13.7479 44.784 13.7659 44.8087 13.7661C44.8272 13.7723 44.8401 13.7845 44.8585 13.7847C44.8834 13.7909 44.9029 13.8101 44.9278 13.8101C44.9464 13.8163 44.9653 13.8286 44.9776 13.8286C45.0023 13.8409 45.0212 13.8475 45.046 13.8599C45.0642 13.8659 45.0644 13.8661 45.089 13.8784C45.1139 13.8909 45.1393 13.9031 45.1642 13.9155C45.1704 13.9218 45.183 13.9341 45.1954 13.9341C45.2263 13.9526 45.2507 13.9657 45.2755 13.978H45.2882C45.425 14.0526 45.5496 14.1332 45.6739 14.2202C45.7049 14.2388 45.7299 14.2641 45.7608 14.2827L45.7735 14.2954C45.7984 14.3141 45.8297 14.333 45.8546 14.3579L45.8673 14.3696C45.8922 14.3945 45.9234 14.4137 45.9483 14.4448C45.9731 14.4695 46.0037 14.4944 46.0284 14.519C46.2338 14.712 46.4145 14.9177 46.5763 15.1479C46.6633 15.2723 46.7442 15.4028 46.8126 15.5396C47.2232 15.3902 47.6652 15.316 48.1007 15.3159H48.4181C48.4554 15.3284 48.4872 15.3286 48.5245 15.3286H48.5743C48.6052 15.3287 48.6362 15.3402 48.6671 15.3403C48.6858 15.3528 48.7051 15.353 48.7237 15.353C48.7547 15.3593 48.7796 15.3716 48.8106 15.3716C48.8355 15.3778 48.8541 15.3901 48.879 15.3901C48.9038 15.3963 48.9285 15.4085 48.9532 15.4087C48.9843 15.4149 49.01 15.4341 49.0411 15.4341C49.0597 15.4403 49.0782 15.4526 49.0968 15.4526C49.1466 15.4713 49.1905 15.4838 49.2403 15.5024C50.3851 15.9132 51.275 16.9648 51.4991 18.1655C51.6858 19.1798 51.4674 20.3752 52.0958 21.1655C52.8488 21.234 53.9324 21.4331 55.2081 21.9683C55.2205 21.9745 55.2387 21.9867 55.2511 21.9868H55.2696C56.7569 22.0677 57.9832 23.2376 58.1388 24.7124C58.4685 25.291 58.6861 25.8014 58.879 26.1001C59.3872 26.8838 59.3955 26.9989 59.3956 27.0024C59.4765 28.2159 59.6945 29.7467 59.8937 31.0659C60.0928 32.3852 60.7778 32.8275 61.2569 33.5493C61.7431 34.2728 64.7854 40.0023 66.6271 42.3667C68.4753 44.7314 70.7591 50.7745 71.1573 52.019C71.4996 53.0769 71.8725 54.6327 70.4786 55.8149C70.4413 55.8522 70.4039 55.8835 70.3605 55.9146C70.3171 55.9455 70.2798 55.9763 70.2364 56.0073H70.2237C70.1802 56.0384 70.1364 56.0641 70.0929 56.0952C70.0817 56.1063 70.0704 56.1068 70.0685 56.1069C70.025 56.138 69.9811 56.1631 69.9376 56.188H69.9249C69.8752 56.2128 69.832 56.2442 69.7823 56.269L69.8751 56.3872L69.8624 56.4741C69.8562 56.4803 69.8444 56.4924 69.8321 56.4927C69.8135 56.5051 69.7945 56.5183 69.7696 56.5308C69.7758 56.6301 69.7755 56.7231 69.7569 56.8101V56.8911C69.7445 56.8973 69.7442 56.9165 69.7442 56.9165C69.7332 56.9277 69.7326 56.939 69.7325 56.9409C69.7201 56.9534 69.7198 56.9663 69.7198 56.9663C69.7197 56.9781 69.7081 56.9897 69.7071 56.9907L69.67 57.0278L69.6515 57.0474C69.583 57.1158 69.4765 57.1714 69.3272 57.2212C69.3087 57.2335 69.296 57.2339 69.2774 57.2339C69.259 57.2461 69.2462 57.2466 69.2276 57.2466H69.2159C69.1973 57.259 69.1846 57.2583 69.1661 57.2583H69.1534C69.1348 57.2707 69.1223 57.271 69.1036 57.271H69.0909C69.0785 57.2833 69.0597 57.2837 69.0411 57.2837H68.1271C68.0151 57.2961 67.8964 57.2964 67.7657 57.2964C65.3325 57.3337 61.5236 54.9813 59.8683 54.1226C59.8435 54.1102 59.813 54.091 59.7882 54.0786C59.7695 54.0662 59.7444 54.0598 59.7257 54.0474C59.7199 54.0359 59.7087 54.0347 59.7071 54.0347C59.6885 54.0223 59.6633 54.0168 59.6446 54.0044H59.6261C59.6074 53.992 59.5949 53.979 59.5763 53.979C59.57 53.9666 59.5509 53.9663 59.5509 53.9663C59.5388 53.9544 59.5327 53.9546 59.5206 53.9546C59.5082 53.9484 59.4891 53.9351 59.4767 53.9351H59.464C59.4515 53.9227 59.4327 53.9106 59.4142 53.9106H59.4024L59.3028 53.8735H59.2901C59.259 53.8611 59.234 53.8481 59.2091 53.8481C59.0349 53.8108 58.8544 53.749 58.6739 53.6743C58.5806 53.637 58.4876 53.5929 58.4005 53.5493C58.3507 53.5244 58.294 53.4941 58.2442 53.4692C58.0949 53.3821 57.9456 53.295 57.8087 53.2017C57.7651 53.1705 57.7214 53.139 57.6778 53.1079C57.4166 52.9213 57.2053 52.7344 57.0685 52.5913C57.0498 52.5664 57.0246 52.5475 57.006 52.5288C56.6451 52.2055 56.1536 52.2245 56.4708 53.3628C56.7633 54.4269 56.6889 57.8185 56.5333 61.8198V61.8452C56.5271 62.0131 56.5147 62.1812 56.5147 62.3491V62.3735C56.5085 62.5352 56.4962 62.6972 56.4962 62.8589V62.9272C56.49 63.0889 56.4777 63.251 56.4776 63.4126V63.4321C56.4465 64.2409 56.4276 64.9067 56.4151 65.4604V66.3872C56.4176 67.0901 56.4409 67.5188 56.4669 67.7798H30.3722C30.3994 67.6641 30.4267 67.5464 30.4532 67.4272C30.4657 67.365 30.4837 67.302 30.4962 67.2397C30.5085 67.2212 30.5089 67.2027 30.5089 67.1841C30.5213 67.122 30.5404 67.0538 30.5528 66.9917C30.5653 66.9295 30.5834 66.8664 30.5958 66.8042C30.6207 66.6986 30.6461 66.5869 30.671 66.4751C30.6959 66.3694 30.7207 66.2634 30.7394 66.1577C30.7829 65.9463 30.8264 65.7283 30.8575 65.5044C30.87 65.4111 30.8822 65.3174 30.8946 65.2241C30.9009 65.1743 30.9132 65.1303 30.9132 65.0806C30.9505 64.7446 30.9815 64.3961 30.9815 64.0415C30.9878 63.6806 30.9759 63.313 30.9386 62.9272C30.9013 62.6038 30.8511 62.2618 30.7765 61.9136C30.6396 61.2726 30.4278 60.5941 30.1105 59.8784C30.0856 59.8287 30.0669 59.779 30.0421 59.7231V59.6978C30.0172 59.6418 29.9924 59.5857 29.9737 59.5298V59.5171C29.4635 58.1792 29.0397 56.095 28.6788 53.7866C27.6521 53.2577 26.6689 52.4423 25.8351 51.5151C25.804 51.4779 25.7734 51.4401 25.7423 51.4028C25.7299 51.3905 25.7233 51.3781 25.711 51.3657C25.6862 51.3408 25.6672 51.3096 25.6485 51.2847C25.6361 51.266 25.6297 51.2535 25.6173 51.2349C25.6048 51.2037 25.5862 51.1787 25.5675 51.1538C25.5551 51.1414 25.5486 51.1226 25.5362 51.104C25.5176 51.0792 25.4988 51.0478 25.4864 51.0229C25.4742 51.0045 25.4684 50.9857 25.4562 50.9673C25.4437 50.9363 25.4247 50.9113 25.4122 50.8804C25.406 50.8617 25.3868 50.8424 25.3868 50.8237C25.3744 50.7928 25.3562 50.7618 25.3438 50.731C25.3315 50.7186 25.3186 50.6997 25.3185 50.6812C25.306 50.6438 25.2879 50.612 25.2755 50.5747C25.2693 50.5623 25.2571 50.5441 25.2569 50.5317C25.2383 50.482 25.219 50.438 25.2003 50.3882V50.3755C25.163 50.2699 25.1259 50.1581 25.0948 50.0464V50.0151C25.0824 49.9717 25.0701 49.9281 25.0577 49.8784C25.0453 49.866 25.045 49.8469 25.045 49.8345C25.0326 49.7909 25.0262 49.7471 25.0138 49.7036C25.0016 49.6913 25.0011 49.673 25.0011 49.6606C24.9886 49.6171 24.9708 49.5665 24.9708 49.5229V49.48C24.9646 49.4302 24.9454 49.3862 24.9454 49.3364V49.2993C24.9392 49.2496 24.921 49.1999 24.921 49.144V49.1187C24.5228 46.3744 25.2384 42.9766 25.2384 41.981C25.2384 40.9852 25.5989 38.6576 28.0567 37.9233C28.6975 37.7367 29.2638 37.65 29.7491 37.6499H30.4337C30.4586 37.6623 30.484 37.6626 30.5089 37.6626H30.5401C30.596 37.6688 30.6398 37.687 30.6896 37.687H30.7325C30.7573 37.6994 30.7762 37.6997 30.8009 37.6997H30.839C30.8637 37.6998 30.8826 37.7124 30.9073 37.7124H30.9259C30.9694 37.7186 31.0132 37.7312 31.0567 37.7437H31.088C31.1065 37.7499 31.1252 37.7622 31.1437 37.7622C31.156 37.7745 31.1625 37.7749 31.1749 37.7749C31.1934 37.7812 31.212 37.7934 31.2306 37.7935H31.2491C31.2802 37.8059 31.3176 37.8181 31.3487 37.8306H31.3741C31.3865 37.8368 31.4047 37.849 31.4171 37.8491C31.4233 37.8616 31.4425 37.8618 31.4425 37.8618C31.4608 37.868 31.4732 37.8801 31.4855 37.8804H31.504C31.5289 37.8928 31.5547 37.8992 31.5733 37.9116C31.5854 37.9237 31.5855 37.9233 31.5978 37.9233C31.6102 37.9233 31.6166 37.936 31.629 37.936C31.6401 37.9472 31.6512 37.9486 31.6534 37.9487C31.6596 37.9612 31.6788 37.9614 31.6788 37.9614C31.6909 37.9736 31.6912 37.9731 31.7032 37.9731C31.7148 37.9731 31.7321 37.9843 31.7345 37.9858C32.0518 37.8676 32.3761 37.7561 32.6935 37.644C32.793 37.5197 32.8918 37.3948 32.9913 37.2642C33.0722 37.1584 33.1536 37.0584 33.2345 36.9526C33.2469 36.9279 33.2657 36.9091 33.2843 36.8843V36.8726C33.3402 36.798 33.4022 36.7167 33.4581 36.6421C33.4768 36.6234 33.4896 36.6041 33.5021 36.5854C33.508 36.5737 33.5196 36.5621 33.5206 36.561C33.5766 36.4864 33.6326 36.4052 33.6886 36.3306C33.701 36.3119 33.7201 36.2867 33.7325 36.2681C33.7946 36.1873 33.8505 36.1066 33.9063 36.0259C33.9125 36.0135 33.9315 36.0011 33.9317 35.9888V35.9761C33.9877 35.8891 34.0496 35.8082 34.1056 35.7212C34.1118 35.7088 34.124 35.7023 34.1241 35.6899C34.1863 35.6029 34.2488 35.5094 34.3048 35.4224C34.3172 35.4224 34.3175 35.4097 34.3175 35.4097C34.3797 35.3164 34.436 35.2227 34.4981 35.1294C34.5603 35.03 34.6219 34.9365 34.6778 34.8433C34.7587 34.7126 34.8401 34.5755 34.921 34.4448C34.9521 34.3827 34.9892 34.3204 35.0265 34.2583C35.0322 34.2526 35.0433 34.2365 35.045 34.2339C35.1943 33.9788 35.3317 33.7359 35.4562 33.4995C35.7424 32.9768 35.9665 32.51 36.1407 32.1304C35.8173 31.9687 35.531 31.7322 35.3194 31.4399C34.7345 30.631 34.7464 29.4416 35.3438 28.645C34.6844 27.9232 34.2675 26.9709 34.1866 25.9878C34.168 25.8325 34.1681 25.8012 34.1681 25.5151C34.168 25.2289 34.0305 24.9611 33.794 24.7993C32.8298 24.1334 32.2013 23.0259 32.2013 21.769C32.2013 21.2153 32.3263 20.6928 32.544 20.2261C32.5814 20.1514 32.5749 20.0699 32.5313 20.0015C31.8595 18.9188 32.301 17.4134 33.2403 16.5483C34.18 15.6834 35.481 15.3411 36.7442 15.1606C36.9247 15.1295 37.0993 15.0479 37.2237 14.9048C37.734 14.3262 38.4808 13.9595 39.3146 13.9595C39.8806 13.9595 40.4031 14.1271 40.8448 14.4194C41.2617 14.2639 41.6666 14.0838 42.0772 13.9282C42.127 13.9158 42.171 13.8971 42.2208 13.8784C42.233 13.8663 42.239 13.8657 42.2511 13.8657C42.2946 13.8533 42.3325 13.8352 42.3761 13.8228C42.3885 13.8103 42.4076 13.8101 42.42 13.8101L42.5313 13.7729C42.55 13.7667 42.5693 13.7534 42.588 13.7534C42.619 13.741 42.6567 13.7231 42.6876 13.7231C42.7123 13.7169 42.7312 13.7036 42.756 13.7036C42.7869 13.6912 42.8119 13.6792 42.8429 13.6792C42.8677 13.673 42.8991 13.6606 42.9239 13.6606C42.9487 13.6544 42.9734 13.6421 42.9981 13.6421C43.0353 13.6359 43.0665 13.6236 43.1036 13.6235C43.1223 13.6111 43.1416 13.6108 43.1603 13.6108C43.2162 13.6046 43.2664 13.5923 43.3224 13.5923C43.3596 13.58 43.403 13.5796 43.4464 13.5796H44.1368ZM52.1271 29.9331V29.9829C52.0897 30.2381 52.047 30.4875 51.9972 30.7427V30.7798C51.9474 31.0411 51.891 31.2962 51.8351 31.5513V31.5698C51.7728 31.8311 51.7101 32.0927 51.6417 32.354C51.4799 32.9825 51.2995 33.6051 51.1065 34.2212C50.8266 35.1233 50.6774 36.1623 49.9933 36.8032C49.1158 37.6309 47.0243 37.7806 46.8937 37.9175C47.3915 38.8447 47.9269 39.853 47.9269 39.853C47.9318 39.8548 49.1195 40.2778 50.2696 40.5083L50.2608 40.4937C51.4182 40.7238 52.6192 40.5688 52.6192 40.5688C52.6386 40.5682 53.7896 40.5318 54.5548 40.5688C55.3264 40.6065 56.4896 41.5396 57.1056 41.8071C57.7248 42.0734 58.8745 43.4913 58.8858 43.5054C58.8932 43.5101 60.0877 44.278 60.3546 44.6255C60.6284 44.9678 61.2071 44.8931 61.2071 44.8931C61.4374 45.0548 61.6738 45.2105 61.9103 45.3599C61.705 44.5263 61.5487 43.8297 61.4181 43.3755C61.2127 42.6536 60.7776 41.6762 60.2237 40.5747C59.701 39.5418 59.072 38.397 58.4249 37.2583C57.9271 36.3746 57.3544 35.6832 56.8067 35.1294C56.6762 34.9988 56.5389 34.8686 56.4083 34.7505L56.3897 34.731C56.3152 34.6627 56.2348 34.5942 56.1603 34.5259C55.986 34.3703 55.8113 34.2337 55.6495 34.103C55.5686 34.0408 55.4937 33.9784 55.419 33.9224C55.0893 33.6673 54.8153 33.4553 54.6349 33.2749C54.3922 33.0383 54.0374 32.5465 53.6642 32.0054C53.602 31.9184 53.5398 31.8251 53.4776 31.7319L53.2911 31.4517C53.26 31.4081 53.2284 31.3584 53.1974 31.3149C52.9796 30.9914 52.7807 30.6736 52.6065 30.3999L52.5323 30.2886C52.4639 30.1766 52.395 30.07 52.339 29.9829C52.2644 29.8649 52.2018 29.772 52.1583 29.7036C52.1521 29.7781 52.1395 29.8586 52.1271 29.9331ZM49.9493 27.6743C49.8684 28.3713 49.7069 29.3242 49.5265 30.3198C49.5141 30.3446 49.5138 30.3692 49.5138 30.394C49.4889 30.5185 49.4703 30.6368 49.4454 30.7612C49.433 30.786 49.4327 30.8107 49.4327 30.8354C49.4078 30.9537 49.3892 31.0727 49.3644 31.1909C49.3642 31.2157 49.3517 31.2404 49.3517 31.2651C49.3268 31.3834 49.3082 31.5082 49.2833 31.6265C49.2522 31.7757 49.2275 31.9313 49.1964 32.0806C49.184 32.1489 49.1717 32.2173 49.1593 32.2856C49.1033 32.5595 49.0528 32.8209 49.003 33.0698C48.9968 33.107 48.9788 33.1443 48.9786 33.1753V33.2065C48.9724 33.2313 48.9602 33.2502 48.9601 33.2749C48.9477 33.2811 48.9474 33.2938 48.9474 33.3062V33.3374C48.935 33.3497 48.9347 33.3622 48.9347 33.3745C48.9223 33.3869 48.923 33.3934 48.923 33.4058V33.4243C48.9167 33.4492 48.8976 33.4684 48.8976 33.4995L48.8605 33.5923V33.605L48.8233 33.6802V33.6987C48.8171 33.7111 48.8048 33.7234 48.8048 33.7358L48.7853 33.7729V33.7856C48.7044 33.9348 48.6048 34.0714 48.4991 34.1958C48.4618 34.2331 48.4309 34.2708 48.3937 34.3081C48.3563 34.3454 48.3187 34.3834 48.2813 34.4146C48.2689 34.4269 48.2507 34.4394 48.2384 34.4517C47.6223 35.1611 46.8128 35.2791 46.4083 35.2915H46.3399C46.2778 35.3039 46.2462 35.3042 46.2462 35.3042H46.1476V35.7524C46.1475 35.7897 46.1349 35.8334 46.1349 35.8706V36.1626C46.1224 36.2434 46.1102 36.3305 46.0978 36.4175V36.4985C46.1288 36.542 46.1656 36.6044 46.2091 36.6851L46.1446 36.6968C46.4214 36.7375 46.8512 36.7772 47.7276 36.6479C50.0301 36.3181 50.1797 34.3706 50.6837 33.2007C50.9077 32.6842 51.0513 32.1861 51.1446 31.7007C51.3437 30.6615 51.2874 29.6782 51.2003 28.6577C51.0097 28.4425 50.8734 28.2883 50.8702 28.2847C50.8647 28.2829 50.2899 28.0954 49.9493 27.6743ZM53.0362 28.1597C53.0922 28.2343 53.148 28.2967 53.1915 28.3589C53.3135 28.5175 53.3879 28.6224 53.3907 28.6265C53.4032 28.6451 53.4222 28.6644 53.4347 28.6831C53.4454 28.6834 53.4463 28.6928 53.4464 28.6948C53.4526 28.7073 53.4652 28.7205 53.4776 28.7329L53.4903 28.7446C53.5214 28.7757 53.5524 28.8073 53.5772 28.8384C53.5897 28.8508 53.6019 28.8572 53.6144 28.8696C53.6392 28.8883 53.6705 28.9067 53.6954 28.9253C53.8136 29 53.9259 29.0062 54.0255 28.9751H54.0382L54.0997 28.9878C54.1867 28.9629 54.268 28.9009 54.3487 28.8325C54.3612 28.8201 54.38 28.8005 54.38 28.7632V28.0786C53.8697 28.0599 53.2783 27.9605 52.8116 27.8921C52.8925 27.9854 52.9678 28.0788 53.0362 28.1597Z" fill="#1B90FF"/>
<path d="M71.9016 7.14685C71.0073 4.45689 67.2833 1.96256 64.4047 3.66038C61.5959 5.31628 57.3479 5.80536 56.7121 14.2316C56.6702 14.3503 56.6282 14.4761 56.6003 14.5949C56.3907 13.987 55.7129 12.4709 54.2667 13.2324C52.478 14.1757 54.1758 18.0883 55.2099 18.8429C55.4614 19.0246 55.9575 19.6115 56.6492 20.394C56.74 22.8534 56.8239 24.9704 56.8239 24.9704L57.3828 32.4045C57.3828 32.4045 64.7959 35.898 65.837 35.898C66.878 35.898 67.8352 27.891 67.9051 27.318H68.0309C68.0309 27.318 68.1007 27.3181 68.2195 27.2901C68.7156 27.2761 69.7007 27.1364 70.4483 26.27C70.9025 25.8718 71.2798 25.3268 71.4265 24.5862C71.8946 22.1827 72.6073 18.5495 72.6492 17.229C72.6981 15.9084 72.789 9.82982 71.8946 7.13986H71.9016V7.14685Z" fill="#FFAB92"/>
<path d="M60.5479 33.7878C60.1147 33.145 59.7304 32.4743 59.43 31.7546C59.1924 31.1817 58.9968 30.5459 59.0387 29.9171C59.0806 29.3162 59.402 28.6804 60.0378 28.5407C60.457 28.4428 60.8832 28.5267 61.3025 28.4987C61.4562 28.4987 61.6308 28.4638 61.7496 28.366C61.8963 28.2472 62.0361 28.0446 62.0081 27.842C61.9802 27.6533 61.8404 27.4786 61.7147 27.3459C61.554 27.1642 61.3653 27.0105 61.1907 26.8428C60.7715 26.4306 61.7007 23.9642 61.2955 23.538C60.485 22.6717 59.5208 23.5101 58.857 22.5249C58.5426 22.0638 57.1313 21.8682 56.8238 21.407C56.7749 21.3372 56.726 21.2603 56.6771 21.1904C56.754 23.2935 56.8238 24.9773 56.8238 24.9773L57.3828 32.4114C57.3828 32.4114 58.871 33.1171 60.6108 33.8856C60.5898 33.8507 60.5688 33.8228 60.5409 33.7878H60.5479Z" fill="#FF7F4C"/>
<path d="M71.9016 7.14685C71.0072 4.45689 67.2832 1.96256 64.4046 3.66038C61.5959 5.31628 57.3478 5.80536 56.712 14.2316C56.6701 14.3503 56.6282 14.4761 56.6002 14.5949C56.3906 13.987 55.7129 12.4709 54.2666 13.2324C53.2046 13.7914 53.533 15.7198 54.057 17.0892C55.5243 17.8368 56.6631 18.5844 57.8509 19.7233C59.0666 20.8831 60.1706 22.1547 61.2535 23.4403C61.2815 23.4753 61.2954 23.5032 61.3024 23.5381C61.9662 24.5722 62.6719 25.5853 63.4334 26.5565C64.6212 28.0587 65.9347 29.477 67.423 30.6857C67.6955 29.0229 67.8841 27.5556 67.912 27.325H68.0378C68.0378 27.325 68.1077 27.325 68.2265 27.2971C68.7225 27.2831 69.7077 27.1434 70.4553 26.277C70.9094 25.8787 71.2867 25.3338 71.4334 24.5932C71.9016 22.1897 72.6142 18.5565 72.6562 17.2359C72.7051 15.9154 72.7959 9.83681 71.9016 7.14685Z" fill="#FF7F4C"/>
<path d="M70.9024 24.9564C70.1618 24.7677 69.3723 24.7468 68.6107 24.7747C67.0596 24.8236 65.4666 25.152 64.1042 25.9206C64.1321 26.3817 64.4256 26.8149 64.719 27.1573C65.0125 27.5066 65.3548 27.821 65.7461 28.0656C66.1863 28.3381 66.6474 28.5826 67.1225 28.7852C67.3042 28.8621 67.4928 28.9389 67.6885 29.0018C67.8142 28.1215 67.8981 27.4787 67.9121 27.3319H68.0378C68.0378 27.3319 68.1077 27.3319 68.2265 27.304C68.7225 27.29 69.7077 27.1503 70.4553 26.2839C70.8046 25.9765 71.1051 25.5852 71.2937 25.0822C71.168 25.0402 71.0422 24.9983 70.9094 24.9634V24.9494L70.9024 24.9564Z" fill="#A93E00"/>
<path d="M57.1452 28.2192C57.1452 28.2192 44.5269 31.9293 44.7435 33.4105C44.9531 34.8917 46.0151 51.9607 48.2439 57.0472C50.4727 62.1337 48.5653 65.5293 48.2439 68.387C47.9225 71.2516 47.6291 74.773 48.3697 75.2202L80.8518 75.2062C80.8518 75.2062 81.0405 69.6586 80.223 67.2202C80.223 67.2202 79.9086 67.1223 80.1461 61.435C80.3837 55.7477 80.5584 50.6402 80.1461 49.173C79.7339 47.7057 80.4326 47.7616 80.8728 48.2367C81.313 48.7049 82.4309 49.5293 83.4859 49.7599C84.5409 49.9974 89.7932 53.7943 93.3146 53.7384C96.836 53.6826 96.0414 53.1625 96.5095 51.7302C96.9776 50.2909 89.7042 41.138 89.7042 41.138C89.7042 41.138 88.1881 40.3904 86.7348 39.4402C85.2815 38.49 86.0361 39.0769 85.6518 39.007C85.2675 38.9372 85.2326 38.8813 85.0859 38.6996C84.9392 38.5179 84.513 38.1826 84.1287 37.9031C83.7444 37.6236 83.1016 37.0856 82.6614 36.6035C82.2212 36.1214 81.5575 35.4577 81.1313 35.276C80.3767 34.9476 78.9654 33.8157 78.0291 33.7668C77.0929 33.7179 75.6745 33.7668 75.6745 33.7668C75.6745 33.7668 74.2143 33.9555 72.8029 33.676C71.3915 33.3965 69.9313 32.8795 69.9313 32.8795C69.9313 32.8795 67.954 29.0996 67.7234 28.7642C67.1365 30.7834 67.9121 31.6987 65.837 32.7328C63.7688 33.7668 57.1452 28.2192 57.1452 28.2192Z" fill="#0070F2"/>
<path d="M45.533 41.9276C46.057 40.2996 46.8256 38.7485 47.8736 37.393C48.4535 36.6385 49.1103 35.9468 49.8369 35.3389C50.6404 34.6612 51.5138 34.1092 52.4361 33.6201C53.4142 33.1031 54.4203 32.6559 55.4195 32.1878C56.3627 31.7476 57.3339 31.3214 58.1793 30.7136C58.5566 30.4411 58.892 30.1406 59.2064 29.8192C58.0046 28.9459 57.1452 28.2192 57.1452 28.2192C57.1452 28.2192 44.5269 31.9293 44.7435 33.4105C44.8343 34.0533 45.0858 37.6516 45.526 41.9206H45.533V41.9276Z" fill="#00144A"/>
<path d="M52.1496 65.8717C52.6876 65.5154 53.2745 65.2429 53.8754 65.0263C54.3435 64.8586 54.8326 64.7119 55.3217 64.6211C55.713 64.5512 56.1112 64.5372 56.5095 64.5163C56.8937 64.4953 57.292 64.4674 57.6623 64.3695C57.8929 64.3067 58.0955 64.2228 58.2352 64.0621C57.5855 63.7477 56.8798 63.573 56.1811 63.4054C55.4055 63.2167 54.637 63.0141 53.9243 62.6508C52.8274 62.0918 51.9261 61.2534 51.1715 60.2892C50.4169 59.325 50.4448 59.2971 50.0885 58.794C49.7252 58.27 49.3549 57.7529 48.9846 57.2359C48.4885 56.5302 47.9994 55.8106 47.5662 55.063C47.7758 55.8385 47.9994 56.5163 48.237 57.0543C50.4658 62.1407 48.5584 65.5364 48.237 68.394C47.9156 71.2586 47.6012 74.5984 48.3418 75.0455C48.3767 75.0665 48.4745 75.0875 48.6282 75.1014C48.6282 74.9617 48.6282 74.822 48.6562 74.6892C48.7051 74.3189 48.8798 73.9905 49.1243 73.711C49.3479 73.4525 49.6134 73.2429 49.809 72.9634C49.9767 72.7189 50.1234 72.4604 50.2632 72.2019C50.8221 71.1329 51.3322 69.8752 52.485 69.3163C53.1068 69.0158 53.8405 68.946 54.5252 68.932C55.2448 68.918 55.9645 68.9879 56.6841 69.0578C57.9767 69.1765 59.402 69.3372 60.6108 68.7783C60.3593 68.3661 59.8282 68.1565 59.3671 68.0377C58.7942 67.884 58.1933 67.8281 57.6064 67.7861C57.3479 67.7652 57.0894 67.7512 56.8379 67.7233C56.5514 67.6953 56.2579 67.6394 55.9785 67.5835C55.2728 67.4508 54.5741 67.2971 53.8894 67.0805C53.2606 66.8779 52.6178 66.6263 52.1077 66.1931C51.9959 66.1023 52.0448 65.9276 52.1496 65.8578V65.8717Z" fill="#00144A"/>
<path d="M65.6483 32.7954C65.7461 33.1657 65.9208 33.5151 66.1234 33.8435C66.4029 34.2976 66.7313 34.7098 67.0806 35.1011C67.7863 35.8767 68.6178 36.6103 69.575 37.0574C69.9662 37.2391 70.3295 37.3229 70.7557 37.288C70.8675 37.288 70.9863 37.2671 71.0911 37.2181C71.0911 37.2181 71.0911 37.2042 71.0771 37.1972C71.0771 37.1972 71.0562 37.1692 71.0492 37.1692C70.9793 37.0924 70.9095 37.0295 70.8256 36.9666C70.4553 36.6732 70.0291 36.4286 69.6448 36.1352C69.03 35.667 68.5199 35.0871 67.947 34.5771C67.8003 34.4443 67.6396 34.3326 67.4998 34.2068C67.409 34.1299 67.3391 34.0321 67.2623 33.9413C67.0736 33.7177 66.892 33.4801 66.7033 33.2566C66.5147 33.033 66.3191 32.8094 66.0885 32.6347C66.0745 32.6347 66.0675 32.6208 66.0605 32.6138C65.9837 32.6557 65.9138 32.6906 65.837 32.7325C65.7601 32.7745 65.6483 32.8024 65.6483 32.8024V32.7954Z" fill="#00144A"/>
<path d="M59.4788 35.0108C59.0457 34.9479 58.6195 34.7802 58.2282 34.5985C57.5505 34.2911 56.9286 33.8929 56.3627 33.4178C56.1601 33.2501 55.9644 33.0824 55.7548 32.9357C56.216 33.4946 56.6072 34.1165 57.0334 34.6964C57.4806 35.2972 57.9697 35.9261 58.5985 36.3453C59.1505 36.7086 59.7304 36.7924 60.3103 36.4291C60.7155 36.1706 61.0509 35.8003 61.3723 35.451C61.7147 35.0806 62.071 34.7313 62.4972 34.4588C62.9234 34.1933 63.3356 33.9138 63.6919 33.5575C64.0483 33.2012 64.0553 33.1453 64.181 32.9077C63.6989 33.285 63.2168 33.6553 62.6998 33.9907C62.05 34.4099 61.3443 34.7942 60.5828 34.9619C60.2195 35.0387 59.8561 35.0667 59.4858 35.0178H59.4788V35.0108Z" fill="#00144A"/>
<path d="M50.326 30.6016C50.326 30.6016 48.6981 29.4488 45.7077 30.3361C42.7173 31.2304 42.2771 34.0671 42.2771 35.2689C42.2771 36.4706 40.6701 44.247 43.0317 46.8741C45.3932 49.5012 48.7539 51.3877 51.4299 49.8645C51.4299 49.8645 51.8491 49.599 52.6387 46.923C53.4282 44.247 55.4195 40.2016 55.4195 40.2016C55.4195 40.2016 53.7426 41.5152 48.9077 37.1553L47.4404 35.8907C47.4404 35.8907 51.1155 36.4636 50.9548 34.5772C50.7941 32.6907 50.326 30.5876 50.326 30.5876V30.6016Z" fill="#0070F2"/>
<path d="M47.5522 35.8071C47.5522 35.856 47.4335 35.856 47.3915 35.9049C46.9723 36.394 46.6929 37.1416 46.3086 37.6587C45.7007 38.4901 45.1278 39.3495 44.5758 40.2159C44.3383 40.5932 44.1077 40.9774 43.933 41.3827C43.8352 41.6063 43.7514 41.8508 43.7164 42.0953C43.8073 41.9975 43.8771 41.8857 43.933 41.7739C44.0728 41.5364 44.1846 41.2849 44.3453 41.0613C44.5549 40.7748 44.7784 40.4953 45.016 40.2298C45.2605 39.9574 45.533 39.7058 45.7706 39.4333C45.9592 39.2237 46.1339 39.0001 46.3575 38.8255C46.4693 38.7416 46.588 38.6787 46.7208 38.6368C46.8396 38.6019 47.0073 38.567 47.1191 38.6368C47.2169 38.6857 47.2308 38.7836 47.3007 38.8534C47.3217 38.8744 47.3007 38.8814 47.3496 38.8534C47.4265 38.7975 47.4824 38.6997 47.5383 38.6229C47.6081 38.532 47.678 38.4412 47.7758 38.3783C47.9505 38.2735 48.202 38.1897 48.3977 38.3015C48.5933 38.4132 48.7051 38.6508 48.8658 38.8045C49.0964 39.0211 49.3619 39.2098 49.6204 39.3844C49.8789 39.5591 50.1304 39.7477 50.3889 39.9294C50.8431 40.2438 51.3182 40.5303 51.8352 40.7189C52.3942 40.9146 52.9811 40.9635 53.568 40.9914C54.071 41.0124 54.5811 41.0054 55.0702 40.9006C55.2728 40.4674 55.4055 40.2089 55.4055 40.2089C55.4055 40.2089 53.7287 41.5224 48.8937 37.1626L47.5522 35.8071Z" fill="#00144A"/>
<path d="M50.9618 34.5911C50.8011 32.7046 50.333 30.6015 50.333 30.6015C50.333 30.6015 49.4107 29.9448 47.678 30.0077H47.657C47.6291 30.0077 47.6081 30.0077 47.5802 30.0216C47.5243 30.0216 47.4754 30.0356 47.4195 30.0496C47.2937 30.0705 47.1679 30.0985 47.0422 30.1195C46.7278 30.1823 46.4203 30.2592 46.1129 30.35C45.8195 30.4409 45.526 30.5387 45.2535 30.6714C45.1348 30.7343 45.016 30.7972 44.9042 30.874C44.8553 30.909 44.8902 30.874 44.8483 30.916C44.8273 30.9299 44.8134 30.9509 44.7924 30.9649C44.7784 30.9788 44.7575 30.9998 44.7435 31.0208C44.7435 31.0208 44.7435 31.0347 44.7295 31.0417C44.7295 31.0557 44.7085 31.0767 44.7016 31.0906C44.7016 31.0906 44.6876 31.1256 44.6876 31.1326V31.1465V31.1675C44.7016 31.1675 44.7295 31.1885 44.7295 31.1885C44.7854 31.2164 44.8553 31.2304 44.9182 31.2374C45.2116 31.2933 45.5679 31.2653 45.8265 31.44C45.9592 31.5308 45.9662 31.7195 45.8265 31.8033C45.6308 31.9221 45.4212 32.0129 45.2116 32.0967C44.7714 32.2854 44.3033 32.4601 43.919 32.7535C43.6535 32.9561 43.5068 33.1937 43.5138 33.4802C44.0937 33.1029 44.5828 32.5858 45.2116 32.2924C45.8754 31.985 46.6369 31.985 47.3147 32.2574C47.9365 32.509 48.4535 32.9422 48.8937 33.4382C49.3548 33.9553 49.7461 34.5352 50.1304 35.1081C50.2422 35.2688 50.354 35.4365 50.4658 35.5972C50.8081 35.3876 51.0177 35.0662 50.9758 34.5771L50.9618 34.5911Z" fill="#00144A"/>
<path d="M50.1164 49.264C49.5155 49.1522 48.9496 48.9356 48.3906 48.698C47.8177 48.4535 47.2517 48.181 46.7137 47.8736C45.6867 47.2797 44.7434 46.546 43.8701 45.7495C43.4299 45.3513 43.0107 44.9321 42.5915 44.5059C42.3749 44.2823 42.1653 44.0587 41.9487 43.8351C41.9207 43.8002 41.8858 43.7722 41.8578 43.7373C42.0185 45.0159 42.3679 46.1548 43.0316 46.8884C45.3932 49.5155 48.7539 51.4019 51.4299 49.8788C51.4299 49.8788 51.5487 49.8019 51.7793 49.3338H51.7443C51.1993 49.3967 50.6544 49.3688 50.1164 49.264Z" fill="#00144A"/>
<path d="M56.7191 14.0918C56.7051 14.2525 56.4885 14.2945 56.4186 14.1477C56.0902 13.47 55.4265 12.6176 54.2667 13.2324C52.478 14.1757 54.1758 18.0883 55.2099 18.8429C56.244 19.5975 61.2466 27.0456 68.0309 27.325C68.0309 27.325 70.9514 26.9967 71.4265 24.5932C71.8946 22.1897 72.6073 18.5565 72.6492 17.2359C72.6981 15.9154 72.789 9.83681 71.8946 7.14685C71.0003 4.45689 67.2763 1.96256 64.3977 3.66038C61.6029 5.30929 57.3828 5.79837 56.7191 14.0918Z" fill="#FFAB92"/>
<path d="M71.9365 19.4718C71.8317 20.2893 71.5383 21.0369 71.2029 21.7845C71.0282 22.1618 70.8466 22.5321 70.6859 22.9163C70.5252 23.2797 70.3994 23.65 70.2736 24.0203C69.8824 25.1591 69.1278 26.1373 68.0029 26.6124C67.3531 26.8919 66.6544 26.9967 65.9487 27.0107C66.6265 27.1854 67.3251 27.3111 68.0378 27.3391C68.0378 27.3391 69.8474 27.4439 70.9583 25.7321C71.133 25.4596 71.2378 25.264 71.3147 25.0334C71.3915 24.8028 71.3915 24.7609 71.4335 24.5862C71.9016 22.1827 72.6142 18.5495 72.6562 17.229C72.6841 16.4325 72.733 13.9102 72.5653 11.4438C72.2928 12.2683 72.195 13.1487 72.216 14.036C72.23 14.4692 72.2719 14.9024 72.2789 15.3356C72.2789 15.7967 72.2789 16.2578 72.2439 16.719C72.1811 17.6412 72.0553 18.5495 71.9365 19.4648V19.4718Z" fill="#FF7F4C"/>
<path d="M67.5907 17.2358C67.5697 17.3266 67.5557 17.4244 67.5417 17.5152H67.5837C67.6535 17.4943 67.7164 17.4593 67.7793 17.3965C67.8701 17.3056 67.9121 17.2497 67.9749 17.1449C68.0029 17.096 68.0308 17.0401 68.0588 16.9912C67.9051 17.089 67.7514 17.1799 67.5837 17.2497L67.5907 17.2358Z" fill="#FF7F4C"/>
<path d="M72.5862 10.1372C72.1461 10.0254 71.664 10.0673 71.2098 10.0324C70.6998 9.99743 70.1828 9.94154 69.6727 9.96948C69.0439 9.99743 68.3941 10.1581 67.891 10.5564C67.8072 10.6193 67.7094 10.7031 67.5976 10.787C67.926 10.9057 68.2474 11.0315 68.5548 11.1922C69.1697 11.5136 69.6797 11.9817 69.9312 12.6385C70.1618 13.2324 70.1338 13.8542 69.9452 14.4481C70.3714 14.7276 69.9312 15.6429 70.2037 16.5162C70.4343 17.2638 73.0124 16.0201 73.1242 14.518C73.2011 13.4699 74.5705 10.6472 72.5932 10.1372H72.5862Z" fill="#FF7F4C"/>
<path d="M76.2474 11.975C76.2265 11.6466 76.1636 11.3043 75.9819 11.0318C75.7653 10.7104 75.409 10.5148 75.1365 10.2353C74.2142 9.28507 74.5217 7.74096 74.2771 6.43441C74.0046 4.97415 72.9217 3.69554 71.5243 3.19248C70.5811 2.85013 69.519 2.87807 68.5758 3.22043C67.7723 1.69729 66.0535 0.614316 64.3208 0.809949C63.2658 0.928727 62.3016 1.43178 61.2954 1.80908C60.7575 1.45274 60.1216 1.25012 59.4299 1.25012C58.4168 1.25012 57.5085 1.69729 56.8867 2.40296C56.2649 3.10864 56.5234 2.67545 56.2998 2.71039C54.7627 2.92698 53.1767 3.3462 52.0378 4.39423C50.8989 5.44926 50.354 7.27983 51.1784 8.60035C51.2273 8.68419 51.2343 8.78201 51.1924 8.87284C50.9269 9.44577 50.7802 10.0816 50.7802 10.7523C50.7802 12.2825 51.5487 13.6309 52.7225 14.4414C53.009 14.637 53.1767 14.9654 53.1767 15.3078C53.1767 15.6501 53.1767 15.6921 53.1976 15.8807C53.2954 17.0755 53.7985 18.2353 54.609 19.1156C53.8823 20.0868 53.8684 21.5331 54.581 22.5183C55.2937 23.5034 56.6771 23.9366 57.823 23.5453C57.8579 23.6502 57.9697 23.706 58.0675 23.6711C58.5147 23.5314 58.7872 23.0423 58.857 22.5322C58.6334 22.3436 58.4168 22.134 58.2072 21.9244C57.4946 21.2117 56.8727 20.4292 56.1461 19.7305C55.5033 19.1157 54.7837 18.5008 54.3365 17.7113C53.8893 16.9218 53.6098 15.8667 53.6238 14.9165C54.1269 15.1121 54.6788 15.2239 55.2588 15.2239C55.8387 15.2239 56.754 15.0283 57.3898 14.6859C57.6273 14.8327 57.8509 15.0004 58.0745 15.175C58.4588 15.4755 58.843 15.7829 59.2134 16.1043C59.423 16.2859 59.6256 16.4746 59.8142 16.6772C59.933 16.803 60.1356 16.789 60.2334 16.6423C60.5828 16.1183 60.8762 15.5803 60.981 14.9724C61.1697 13.8964 60.7295 12.8204 60.5828 11.7445C60.4361 10.6615 60.7575 9.32699 61.7985 8.99162C62.5112 8.76105 63.2588 9.09642 63.9924 9.23616C65.8858 9.60647 67.8841 8.41869 68.6946 6.69991C68.8343 6.73485 68.9741 6.76978 69.0998 6.83965C70.0011 7.28681 70.0221 8.60734 70.7557 9.29904C71.6291 10.1165 73.3828 9.92088 73.6134 11.2274C73.6273 11.3252 73.6343 11.43 73.6343 11.5279C73.5784 13.037 72.8518 15.3497 72.6771 17.0056C74.5636 16.4397 76.3872 13.9453 76.2684 11.982H76.2404L76.2474 11.975Z" fill="#340800"/>
<path d="M56.3487 7.398C56.4116 7.37704 56.4536 7.35608 56.5374 7.31416C56.74 7.20935 56.8867 7.09756 57.0544 6.94385C57.3828 6.63643 57.6413 6.23817 57.795 5.83293C57.9557 5.41372 58.0186 4.96655 57.9208 4.55433C57.8998 4.47048 57.8719 4.39363 57.8439 4.31677C57.1313 4.09319 56.4116 3.91852 55.664 3.91852H55.2588C53.6378 3.27572 52.2335 4.89669 51.7164 6.27311C51.5837 6.62245 51.4649 7.02071 51.4998 7.398C51.5278 7.68446 51.7304 7.88708 52.0238 7.8242C52.3033 7.76831 52.5549 7.56569 52.7714 7.39101C53.009 7.20237 53.2396 6.99276 53.4771 6.79713C53.519 6.76219 53.561 6.72726 53.6099 6.69232C53.6308 6.67835 53.6518 6.66437 53.6728 6.6504C53.6728 6.6504 53.6867 6.6504 53.6937 6.63643C53.6308 6.67835 53.7217 6.62245 53.7426 6.60848C53.9313 6.49669 54.1479 6.39188 54.3715 6.3849C54.7278 6.37092 55.0212 6.6504 55.2937 6.86699C55.6151 7.11852 55.9575 7.35608 56.3627 7.398H56.3487Z" fill="#450B00"/>
<path d="M68.3173 3.82095C68.2964 3.46462 68.2894 3.1013 68.2894 2.73798C67.402 1.47335 65.8719 0.627937 64.3208 0.80261C63.2728 0.921387 62.3086 1.41746 61.3164 1.79475C61.1907 2.21396 61.1907 2.66113 61.3793 3.07335C61.533 3.40873 61.7496 3.70916 61.9383 4.03056C62.1409 4.37991 62.2876 4.76419 62.3086 5.16943C62.3295 5.64454 62.1688 6.05676 61.9033 6.39912C61.7706 6.57379 61.4143 6.83231 61.0579 7.06288C60.8413 7.20262 60.9392 7.53799 61.1977 7.53799C61.4562 7.53799 61.8894 7.55196 62.085 7.59388C62.3435 7.64279 62.595 7.71266 62.8536 7.81048C63.3985 8.02009 63.9156 8.29956 64.4186 8.58602C64.7959 8.80262 65.1732 9.0262 65.5715 9.19389C66.8012 8.91441 67.9121 8.08297 68.5409 6.98602C68.6248 5.94497 68.3872 4.79213 68.3313 3.82095H68.3173Z" fill="#450B00"/>
<path d="M71.8526 9.87178C72.0832 9.95562 72.1531 10.0325 72.2159 10.1303C72.4116 10.4517 72.4395 10.843 72.3138 11.1923C72.1391 11.6674 71.9644 11.9818 72.4395 13.5888C72.6212 14.2037 72.5723 16.3696 72.6701 16.9984C73.1522 16.7469 75.7373 17.3687 76.2614 11.9748C76.2963 11.6465 76.1775 11.3041 75.9959 11.0316C75.7793 10.7102 75.4229 10.5146 75.1504 10.2351C74.2282 9.28488 74.5356 7.74077 74.2911 6.43422C74.0186 4.97396 72.9356 3.69535 71.5382 3.1923C71.098 3.0316 70.6299 2.95474 70.1548 2.94775C70.071 3.67439 70.029 4.40103 70.036 5.13466C70.05 6.16173 70.1688 7.20278 70.5321 8.16697C70.7906 8.85868 71.3705 9.33379 71.8596 9.87178H71.8526Z" fill="#450B00"/>
<path d="M68.5548 21.5816C68.2963 21.5676 68.8902 21.8401 68.6457 21.7982C68.4081 21.7562 68.2055 21.7423 67.6955 21.7982C67.43 21.8261 65.4107 22.1196 65.1522 21.9379C65.7461 22.3152 65.9976 22.8462 67.9959 23.0069C69.0789 23.0907 69.6308 23.1606 69.9103 22.406C69.8963 22.4549 69.0858 21.6095 68.5479 21.5886L68.5548 21.5816Z" fill="#D20A0A"/>
<path d="M65.0544 21.7357C65.0544 21.7357 67.2413 21.044 67.8213 21.1558C68.2055 21.2256 68.7715 21.3095 69.1418 21.3095C69.5121 21.3095 70.7278 21.6588 69.8964 22.4134C69.8964 22.4134 69.2606 22.0711 68.1217 21.9872C66.9828 21.9034 65.1173 22.3505 65.0544 21.7357Z" fill="#D20A0A"/>
<path d="M67.5488 17.8999C67.4649 18.2632 67.6466 18.5986 68.0937 18.5986C68.5409 18.5986 68.4501 18.6335 68.6038 18.7244C69.0579 18.9968 69.7077 18.913 70.0571 18.7034C70.085 18.6824 70.1269 18.7034 70.1269 18.7383C70.1269 18.8152 70.1269 18.934 69.8544 19.1715C69.561 19.423 69.4422 19.472 69.1977 19.472C68.7156 19.472 67.7234 19.2414 67.43 19.1785C67.2763 19.1785 67.1505 19.2065 67.1435 19.2065C66.7383 18.5776 67.0457 18.0816 67.5488 17.8999Z" fill="#A93E00"/>
<path d="M68.443 19.3879C68.0448 19.1574 67.9609 19.0875 67.5836 19.0596C67.2832 19.0316 67.0736 19.2133 67.1784 19.2342C67.381 19.2762 68.45 19.3879 68.45 19.3879H68.443Z" fill="#00144A"/>
<path d="M63.3216 17.4594C63.3216 17.4594 62.6649 16.8516 62.4692 16.8655C62.2736 16.8655 62.3085 15.3913 62.3085 15.3913C62.3085 15.3913 62.4902 12.6245 63.7269 11.5764C64.188 11.1852 65.6762 10.0253 66.5007 10.207C66.9688 10.3118 67.0387 9.95547 67.4928 9.75984C67.6465 9.69696 67.7933 9.54324 67.926 9.36857C68.1636 9.05416 67.905 8.61398 67.5208 8.66988C66.6614 8.79564 64.7819 9.0332 63.6989 9.47337C61.9452 10.186 57.9836 12.345 57.2291 13.1694C56.698 13.7424 56.9007 14.4201 56.9426 16.1529C57.0055 18.7729 57.1871 19.9607 56.8518 20.6454C56.3627 21.6446 56.1391 21.9869 56.1391 21.9869C56.1391 21.9869 54.8745 25.6481 51.6884 29.6446C48.6771 33.4315 47.5522 35.807 47.5522 35.807C47.5522 35.807 52.443 41.3127 55.3426 40.3345C55.3426 40.3345 55.3845 40.2856 55.4055 40.2088C55.7967 38.9022 59.1644 27.5625 59.926 25.9764C61.2395 23.2446 61.3024 23.524 61.9033 23.0839C62.5391 22.6227 64.0064 20.6594 64.6212 19.814C65.0614 19.2061 68.0937 18.6053 68.443 17.669C68.6526 17.1171 67.912 15.4821 65.6692 17.3895" fill="#FFAB92"/>
<path d="M65.8649 17.229C65.7461 17.3268 65.5924 17.3827 65.4387 17.3827L63.6011 17.4456C63.4264 17.4456 63.2518 17.3897 63.112 17.2779C62.9024 17.1032 62.588 16.8517 62.4692 16.8587C62.2736 16.8587 62.3085 15.3845 62.3085 15.3845C62.3085 15.3845 62.4902 12.6176 63.7269 11.5696C64.188 11.1783 65.6762 10.0185 66.5007 10.2002C66.9688 10.305 67.0387 9.94863 67.4928 9.753C67.6465 9.69012 67.7933 9.53641 67.926 9.36174C68.1636 9.04732 67.9051 8.60715 67.5208 8.66304C66.6614 8.78881 64.7819 9.02636 63.6989 9.46654C63.1959 9.66916 62.5182 9.99056 61.7845 10.3678C61.7286 10.3958 61.6727 10.4237 61.6099 10.4587C61.5749 10.4727 61.547 10.4936 61.512 10.5076C61.4701 10.5285 61.4352 10.5495 61.3933 10.5705C61.3583 10.5844 61.3304 10.6054 61.2954 10.6194C61.2395 10.6473 61.1767 10.6823 61.1208 10.7102C61.0858 10.7312 61.0509 10.7451 61.016 10.7661C60.974 10.7871 60.9251 10.815 60.8832 10.836C60.8483 10.8569 60.8203 10.8709 60.7854 10.8919C60.7435 10.9128 60.6946 10.9408 60.6526 10.9617C60.6107 10.9827 60.5968 10.9897 60.5688 11.0106C60.4989 11.0456 60.4361 11.0805 60.3662 11.1224C60.3382 11.1364 60.3103 11.1574 60.2823 11.1713C60.2404 11.1993 60.1915 11.2203 60.1496 11.2482C60.1216 11.2622 60.0937 11.2831 60.0657 11.2971C59.9959 11.332 59.933 11.374 59.8631 11.4089C59.8422 11.4229 59.8282 11.4299 59.8072 11.4438C59.7583 11.4718 59.7024 11.4997 59.6535 11.5347C59.6256 11.5486 59.5976 11.5626 59.5767 11.5836C59.5278 11.6115 59.4788 11.6395 59.4299 11.6674C59.409 11.6814 59.388 11.6884 59.3671 11.7023C59.3042 11.7373 59.2343 11.7792 59.1714 11.8141C59.1505 11.8281 59.1295 11.8421 59.1085 11.8491C59.0596 11.877 59.0177 11.905 58.9688 11.9329C58.9478 11.9469 58.9269 11.9609 58.9059 11.9748C58.843 12.0098 58.7802 12.0517 58.7243 12.0866C58.7243 12.0866 58.7033 12.1006 58.6963 12.1006C58.6404 12.1355 58.5915 12.1635 58.5426 12.1984C58.5216 12.2124 58.5077 12.2194 58.4867 12.2334C58.4378 12.2613 58.3959 12.2893 58.354 12.3242C58.34 12.3242 58.326 12.3382 58.312 12.3521C58.2561 12.3871 58.2002 12.422 58.1513 12.4569C58.1374 12.4569 58.1234 12.4779 58.1094 12.4849C58.0675 12.5128 58.0326 12.5408 57.9906 12.5687C57.9767 12.5687 57.9627 12.5897 57.9487 12.5967C57.8998 12.6316 57.8509 12.6665 57.809 12.6945C57.7671 12.7224 57.7251 12.7574 57.6832 12.7853C57.6692 12.7853 57.6623 12.8063 57.6483 12.8133C57.6133 12.8412 57.5854 12.8622 57.5574 12.8831C57.5574 12.8831 57.5435 12.8971 57.5295 12.9041C57.4946 12.932 57.4596 12.96 57.4247 12.9879C57.4247 12.9879 57.4107 13.0019 57.4037 13.0089C57.3758 13.0299 57.3548 13.0508 57.3339 13.0718C57.3129 13.0927 57.3199 13.0858 57.3129 13.0927C57.285 13.1207 57.264 13.1417 57.243 13.1626C56.712 13.7355 56.9147 14.4133 56.9566 16.146C57.0195 18.7661 57.2011 19.9539 56.8657 20.6386C56.3767 21.6377 56.1531 21.9801 56.1531 21.9801V22.036C56.1531 22.05 56.1391 22.0709 56.1321 22.0919V22.1128C56.1321 22.1268 56.1181 22.1408 56.1112 22.1618V22.1827C56.0762 22.2666 56.0343 22.3783 55.9784 22.5111C55.7618 23.0421 55.3705 23.9155 54.7836 25.0054C54.6299 25.2919 54.4622 25.5923 54.2806 25.8997C54.2806 25.9137 54.2666 25.9207 54.2596 25.9347C54.2177 26.0115 54.1688 26.0814 54.1269 26.1583C54.0291 26.326 53.9312 26.4866 53.8264 26.6543C53.7566 26.7661 53.6797 26.8849 53.6098 27.0037C53.54 27.1155 53.4631 27.2342 53.3863 27.346C53.3863 27.346 53.3863 27.36 53.3723 27.367C53.3024 27.4788 53.2256 27.5836 53.1557 27.6954C53.1557 27.7094 53.1417 27.7163 53.1278 27.7373C53.0579 27.8421 52.988 27.9469 52.9112 28.0517L52.8972 28.0657C52.8832 28.0797 52.8762 28.0936 52.8692 28.1076C52.7994 28.2054 52.7295 28.3032 52.6596 28.4011C52.6387 28.429 52.6247 28.45 52.6037 28.4779C52.5339 28.5687 52.464 28.6666 52.3941 28.7574C52.3941 28.7574 52.3801 28.7784 52.3732 28.7853C52.3592 28.8063 52.3382 28.8273 52.3243 28.8552C52.2544 28.946 52.1845 29.0439 52.1077 29.1347V29.1487C52.0867 29.1766 52.0657 29.2046 52.0448 29.2325C51.947 29.3583 51.8491 29.484 51.7443 29.6098C48.733 33.3967 47.6081 35.7722 47.6081 35.7722L47.6221 35.7862L47.636 35.8002C47.636 35.8002 47.65 35.8142 47.657 35.8212L47.671 35.8351C47.671 35.8351 47.6919 35.8561 47.6989 35.8631C47.6989 35.8631 47.7199 35.884 47.7269 35.891C47.7408 35.905 47.7478 35.919 47.7618 35.9329C47.7618 35.9329 47.7618 35.9469 47.7828 35.9539C47.7828 35.9539 47.7828 35.9679 47.7967 35.9679C47.8177 35.9888 47.8387 36.0098 47.8596 36.0308C47.8736 36.0447 47.8876 36.0587 47.9015 36.0727C47.9225 36.1006 47.9505 36.1216 47.9784 36.1495C47.9924 36.1635 48.0063 36.1775 48.0203 36.1915C48.0483 36.2264 48.0832 36.2543 48.1181 36.2893C48.1321 36.3033 48.1391 36.3102 48.1531 36.3242L48.3627 36.5338C48.3906 36.5618 48.4116 36.5827 48.4465 36.6107C48.4675 36.6386 48.4884 36.6596 48.5164 36.6805C48.5374 36.7015 48.5583 36.7225 48.5863 36.7434H48.6002L48.6142 36.7574C48.6352 36.7784 48.6631 36.8063 48.6911 36.8273C48.712 36.8482 48.733 36.8692 48.7539 36.8832C48.7539 36.8832 48.7749 36.9041 48.7819 36.9111C48.8098 36.9391 48.8378 36.96 48.8587 36.988C48.8727 37.0019 48.8867 37.0159 48.9077 37.0299C48.9077 37.0299 48.9216 37.0439 48.9356 37.0509C48.9356 37.0509 48.9566 37.0718 48.9636 37.0788C48.9915 37.1067 49.0194 37.1277 49.0474 37.1557C49.0614 37.1696 49.0753 37.1766 49.0893 37.1906L49.1033 37.2046C49.1242 37.2185 49.1382 37.2395 49.1592 37.2535C49.1871 37.2814 49.2151 37.3024 49.243 37.3303C49.243 37.3303 49.257 37.3443 49.264 37.3513C49.264 37.3513 49.278 37.3653 49.285 37.3653C49.3059 37.3862 49.3269 37.4002 49.3478 37.4212C49.3898 37.4561 49.4247 37.491 49.4666 37.526C49.5155 37.5679 49.5574 37.6098 49.6063 37.6517C49.6203 37.6517 49.6273 37.6727 49.6413 37.6797C50.8081 38.6858 52.3033 39.7827 53.6797 40.202C54.2666 40.3766 54.7836 39.7757 54.5321 39.2168C54.5181 39.1819 54.5042 39.1469 54.4832 39.112C53.54 36.946 53.1068 34.2212 53.6867 31.9155C53.9592 30.8185 54.4483 29.7984 54.8884 28.7644C55.3216 27.7373 55.5802 26.6613 56.0064 25.6342C56.1391 25.3059 56.2788 24.9705 56.4465 24.6561C56.6142 24.3347 56.7889 24.0203 56.9636 23.6989C57.3059 23.0491 57.6413 22.3993 57.9557 21.7286C58.2492 21.0928 58.5426 20.436 58.7452 19.7652C58.9059 19.2203 58.9898 18.6543 59.1155 18.1024C59.2343 17.5644 59.381 17.0054 59.6885 16.5443C59.8631 16.2858 60.3103 15.601 60.6387 16.0901C60.6876 16.167 60.7295 16.2578 60.7575 16.3486C60.8553 16.67 60.9182 17.0054 60.9391 17.3478C60.988 18.0744 60.8623 18.808 60.7644 19.5277C60.7644 19.5766 60.7505 19.6255 60.7644 19.6744C60.7994 19.7513 60.8972 19.7722 60.981 19.7792C61.4212 19.8141 61.8544 19.6465 62.2387 19.4369C62.6299 19.2273 63.0002 18.9757 63.4125 18.829C63.5941 18.7661 63.8177 18.7242 63.9784 18.829C64.1182 18.9268 64.1671 19.1155 64.1391 19.2831C64.1112 19.4508 64.0203 19.5976 63.9295 19.7373C63.2099 20.7783 62.064 21.4631 61.2745 22.4552C60.974 22.8395 60.8692 23.1958 60.995 23.6639C61.016 23.7338 61.0369 23.8107 61.0579 23.8805C61.4352 23.2866 61.6029 23.2866 61.9662 23.0211C62.602 22.56 64.0692 20.5967 64.6841 19.7513C65.1243 19.1434 68.1007 18.6543 68.5059 17.6063C68.7086 17.0683 68.0099 15.5032 65.9138 17.1731L65.8858 17.222L65.8649 17.229Z" fill="#A93E00"/>
<path d="M59.9819 16.1527C60.0448 16.0059 60.1077 15.8592 60.1776 15.7125C60.6457 14.7343 61.3025 13.826 62.099 13.0854C62.4343 12.771 62.7977 12.4915 63.1819 12.24C63.3356 11.9815 63.5173 11.7439 63.7339 11.5623C64.195 11.171 65.6833 10.0112 66.5077 10.1928C66.9758 10.2976 67.0457 9.94131 67.4998 9.74568C67.6536 9.6828 67.8003 9.52908 67.933 9.35441C68.1706 9.04 67.9121 8.59982 67.5278 8.65572C66.6684 8.78148 64.7889 9.01904 63.706 9.45921C63.2029 9.66183 62.5252 9.98323 61.7915 10.3605C61.7357 10.3885 61.6798 10.4164 61.6169 10.4514C61.5819 10.4653 61.554 10.4863 61.5191 10.5003C61.4771 10.5212 61.4422 10.5422 61.4003 10.5631C61.3653 10.5771 61.3374 10.5981 61.3025 10.6121C61.2466 10.64 61.1837 10.6749 61.1278 10.7029C61.0929 10.7238 61.0579 10.7378 61.023 10.7588C60.9811 10.7797 60.9322 10.8077 60.8902 10.8286C60.8553 10.8496 60.8273 10.8636 60.7924 10.8845C60.7505 10.9055 60.7016 10.9335 60.6597 10.9544C60.6177 10.9754 60.6038 10.9824 60.5758 11.0033C60.506 11.0383 60.4431 11.0732 60.3732 11.1151C60.3453 11.1291 60.3173 11.15 60.2894 11.164C60.2474 11.192 60.1985 11.2129 60.1566 11.2409C60.1287 11.2549 60.1007 11.2758 60.0728 11.2898C60.0029 11.3247 59.94 11.3666 59.8701 11.4016C59.8492 11.4155 59.8352 11.4225 59.8142 11.4365C59.7653 11.4645 59.7094 11.4924 59.6605 11.5273C59.6326 11.5413 59.6046 11.5553 59.5837 11.5762C59.5348 11.6042 59.4859 11.6321 59.437 11.6601C59.416 11.6741 59.395 11.6811 59.3741 11.695C59.3112 11.73 59.2413 11.7719 59.1784 11.8068C59.1575 11.8208 59.1365 11.8348 59.1156 11.8417C59.0666 11.8697 59.0247 11.8976 58.9758 11.9256C58.9549 11.9396 58.9339 11.9535 58.9129 11.9675C58.8501 12.0024 58.7872 12.0444 58.7313 12.0793C58.7313 12.0793 58.7103 12.0933 58.7033 12.0933C58.6474 12.1282 58.5985 12.1562 58.5496 12.1911C58.5287 12.2051 58.5147 12.2121 58.4937 12.226C58.4448 12.254 58.4029 12.2819 58.361 12.3169C58.347 12.3169 58.333 12.3308 58.3191 12.3448C58.2632 12.3797 58.2073 12.4147 58.1584 12.4496C58.1444 12.4496 58.1304 12.4706 58.1164 12.4776C58.0745 12.5055 58.0396 12.5335 57.9977 12.5614C57.9837 12.5614 57.9697 12.5824 57.9557 12.5893C57.9068 12.6243 57.8579 12.6592 57.816 12.6872C57.7741 12.7151 57.7322 12.75 57.6902 12.778C57.6763 12.778 57.6693 12.799 57.6553 12.8059C57.6204 12.8339 57.5924 12.8549 57.5645 12.8758C57.5645 12.8758 57.5505 12.8898 57.5365 12.8968C57.5016 12.9247 57.4666 12.9527 57.4317 12.9806C57.4317 12.9806 57.4177 12.9946 57.4108 13.0016C57.3828 13.0225 57.3618 13.0435 57.3409 13.0645C57.3199 13.0854 57.3269 13.0784 57.3199 13.0854C57.292 13.1134 57.271 13.1343 57.2501 13.1553C56.7191 13.7282 56.9217 14.4059 56.9636 16.1387C57.0265 18.7588 57.2081 19.9466 56.8728 20.6313C56.3837 21.6304 56.1601 21.9728 56.1601 21.9728V22.0287C56.1601 22.0426 56.1461 22.0636 56.1391 22.0846V22.1055C56.1391 22.1195 56.1252 22.1335 56.1182 22.1544V22.1754C56.0832 22.2592 56.0413 22.371 55.9854 22.5038C55.7688 23.0348 55.3776 23.9081 54.7907 24.9981C54.637 25.2846 54.4693 25.585 54.2876 25.8924C54.2876 25.9064 54.2736 25.9134 54.2666 25.9274C54.2247 26.0042 54.1758 26.0741 54.1339 26.1509C54.0361 26.3186 53.9383 26.4793 53.8335 26.647C53.7636 26.7588 53.6867 26.8776 53.6169 26.9964C53.547 27.1081 53.4701 27.2269 53.3933 27.3387C53.3933 27.3387 53.3933 27.3527 53.3793 27.3597C53.3094 27.4715 53.2326 27.5763 53.1627 27.6881C53.1627 27.702 53.1487 27.709 53.1348 27.73C53.0649 27.8348 52.995 27.9396 52.9182 28.0444L52.9042 28.0584C52.8902 28.0723 52.8832 28.0863 52.8762 28.1003C52.8064 28.1981 52.7365 28.2959 52.6666 28.3937C52.6457 28.4217 52.6317 28.4426 52.6107 28.4706C52.5409 28.5614 52.471 28.6592 52.4011 28.7501C52.4011 28.7501 52.3872 28.771 52.3802 28.778C52.3662 28.799 52.3452 28.8199 52.3313 28.8479C52.2614 28.9387 52.1915 29.0365 52.1147 29.1274V29.1413C52.0937 29.1693 52.0728 29.1972 52.0518 29.2252C51.954 29.3509 51.8562 29.4767 51.7514 29.6025C48.74 33.3894 47.5872 35.8068 47.5872 35.8068C47.5872 35.8068 47.5941 35.8208 47.6151 35.8418C47.657 35.8907 47.7479 35.9885 47.8596 36.1003C48.1252 36.3798 48.4955 36.7571 48.5653 36.806C48.5793 36.8199 50.1094 38.371 51.8981 39.461C52.5618 39.8662 53.2116 40.1457 53.6169 40.2715C54.2038 40.4461 54.7976 39.7824 54.5461 39.2234C54.5321 39.1885 54.5182 39.1536 54.4972 39.1186C53.554 36.9527 53.1208 34.2278 53.7007 31.9221C53.9732 30.8252 54.4623 29.8051 54.9025 28.771C55.3356 27.744 55.5942 26.668 56.0204 25.6409C56.1531 25.3125 56.2928 24.9771 56.4605 24.6627C56.6282 24.3413 56.8029 24.0269 56.9776 23.7055C57.3199 23.0557 57.6553 22.406 57.9697 21.7352C58.2632 21.0994 58.5566 20.4426 58.7592 19.7719C58.9199 19.2269 59.0038 18.661 59.1295 18.109C59.2483 17.571 59.395 17.0121 59.7025 16.5509C59.7793 16.4391 59.9051 16.2505 60.0448 16.1038L60.0169 16.1597L59.9819 16.1527Z" fill="#FF7F4C"/>
<path d="M73.1955 15.4598C73.1955 15.4598 72.378 15.6974 72.7204 16.417C73.0627 17.1367 74.0199 17.4441 74.0199 17.4441C74.0199 17.4441 74.9772 18.5061 75.4173 19.1838C75.8645 19.8686 77.6392 22.7681 78.4217 23.5577C79.2042 24.3402 81.4191 25.5419 83.047 28.4066C84.675 31.2782 86.2121 34.1428 86.6872 35.8546C87.1623 37.5594 88.0147 41.9821 89.7545 45.9297C91.4942 49.8773 93.6951 53.0983 96.6156 51.638C99.5431 50.1778 99.0051 47.8372 98.516 46.321C98.027 44.8118 95.2462 37.4476 93.0034 34.569C90.7606 31.6904 87.0505 24.7175 86.4706 23.8371C85.8837 22.9568 85.0593 22.4258 84.8147 20.8118C84.5702 19.2048 84.3047 17.3393 84.2069 15.8651C84.2069 15.8651 84.2069 15.7393 83.578 14.7611C82.9492 13.783 82.0759 10.9812 79.0994 9.73056C76.7029 8.72444 74.8507 8.68182 74.2226 8.71746C74.1045 8.72444 73.971 8.82925 73.9571 8.96899C73.9291 9.33231 73.9431 9.99606 74.4392 10.2476C75.1309 10.5899 76.2627 10.3314 76.2627 10.3314C76.2627 10.3314 76.5562 10.6598 77.2828 10.5271C77.3926 10.507 79.0787 11.5632 79.1665 11.8384C79.6602 13.3851 78.1913 16.7884 77.9421 17.0079C77.6557 17.2664 77.3527 18.4921 76.8706 17.8633C76.8706 17.8633 76.13 16.7664 75.2287 16.0467C74.3274 15.3201 73.1955 15.4598 73.1955 15.4598Z" fill="#FFAB92"/>
<path d="M73.9501 9.33936C73.9711 9.68171 74.0759 10.073 74.4322 10.2477C75.1239 10.59 76.2558 10.3525 76.2558 10.3525C76.2558 10.3525 76.5493 10.6599 77.2759 10.5271H77.3108C76.2977 9.89831 75.1239 9.49307 73.9501 9.33936Z" fill="#A93E00"/>
<path d="M76.4457 10.75L78.0782 10.614L75.9016 10.0698L71.8204 10.3419L72.2285 10.4779L73.0447 11.8383L76.4457 10.75Z" fill="#046C7C"/>
<path d="M96.1335 48.899C95.5327 48.6196 94.9527 48.2493 94.5126 47.7532C93.8907 47.0545 93.4086 46.2161 92.9615 45.3986C92.5003 44.5532 92.0881 43.6868 91.627 42.8414C91.1658 41.989 90.6209 41.1785 90.1737 40.3191C89.2724 38.5934 88.6016 36.7628 87.9449 34.9322C87.2811 33.0877 86.6243 31.2292 85.751 29.4754C84.9195 27.8195 83.9344 26.2684 82.7746 24.8222C82.4811 24.4588 82.1737 24.1095 81.8802 23.7462C81.6636 23.4737 81.454 23.1942 81.3143 22.8728C81.0418 22.251 81.1256 21.5872 81.1885 20.9304C81.2444 20.2877 81.3003 19.6449 81.2304 19.0021C81.2025 18.7226 81.1536 18.4221 81.0208 18.1706C80.9021 17.947 80.6296 17.6746 80.3571 17.7304C80.0636 17.7863 79.8261 18.0868 79.5885 18.2545C79.323 18.4431 79.0086 18.2968 78.6872 18.3317C78.3029 18.3806 77.199 18.2964 76.8776 17.8772C76.8776 17.8772 76.137 16.7802 75.2357 16.0606C74.3344 15.3339 73.2025 15.4737 73.2025 15.4737C73.2025 15.4737 72.5248 15.823 72.7274 16.4309C73.0697 17.1505 74.0269 17.458 74.0269 17.458C74.0269 17.458 74.9842 18.52 75.4243 19.1977C75.8715 19.8824 77.6462 22.782 78.4287 23.5715C79.2112 24.354 81.4261 25.5558 83.054 28.4204C84.682 31.292 86.2191 34.1567 86.6942 35.8685C87.1693 37.5733 88.0217 41.996 89.7615 45.9436C91.5012 49.8912 93.7021 53.1121 96.6226 51.6519C97.7615 51.079 98.3763 50.3803 98.6698 49.6466C97.7894 49.5418 96.923 49.2833 96.1405 48.913V48.899H96.1335Z" fill="#FF7F4C"/>
<path d="M79.7107 13.6069L79.3026 13.1987C78.8834 12.3044 79.8457 11.9608 78.9514 11.5136C78.609 11.339 75.7863 11.1084 75.0667 14.3363C74.347 17.5643 74.7935 17.0913 74.9968 17.2149C74.688 17.2324 74.368 16.9355 74.0745 16.7608C73.9697 16.7049 73.8719 16.642 73.7741 16.5791C73.2221 16.2298 72.7959 15.7058 72.5654 15.0909C72.1671 14.0429 71.9575 12.6106 72.6911 11.0734C72.6911 11.0734 71.9505 11.7791 71.5942 12.7293C71.6082 12.6245 71.6221 12.5267 71.6291 12.4219C71.6641 12.0796 71.713 11.6464 71.5173 11.339C71.2448 10.9127 72.3757 10.4118 71.9564 10.3419C71.684 10.293 72.1451 10.5306 71.9564 10.3419C71.8237 10.2092 69.1627 10.5355 68.9951 10.6193C68.8274 10.7031 68.8833 10.6822 68.8833 10.6822C69.1697 11.1852 70.2946 14.7206 70.2946 14.7206C70.2946 14.7206 70.4414 14.7346 70.6579 14.7486C70.644 14.7625 70.637 14.7765 70.623 14.7905C70.623 14.7905 70.623 17.0822 72.2789 17.166C73.9418 17.2499 74.4874 16.4879 75.4935 16.5997C76.2481 16.6836 75.5202 16.5615 76.3097 16.4637C76.3866 16.4637 77.0491 16.7608 77.1259 16.7608C77.4613 15.4752 77.5959 17.0053 77.9523 16.8935C78.2807 16.7887 77.8719 16.6766 78.2143 16.5997C78.4937 16.5369 78.2348 16.4604 78.4863 16.3277C78.8077 16.16 78.472 16.1501 78.7584 15.9195C78.8912 15.8147 78.6536 15.9293 78.7584 15.7896C78.8003 15.7337 78.7305 15.5743 78.7584 15.5114C78.7724 15.4835 79.0095 15.2743 79.0305 15.2393C79.0305 15.2254 78.6224 14.9323 78.6224 14.9673C78.6224 14.8974 79.1176 14.465 79.1665 14.4231C79.2574 13.969 79.3552 14.0121 79.1665 13.6069H79.7107Z" fill="#00144A"/>
<path d="M70.609 13.7563C70.609 11.765 68.995 10.1511 67.0037 10.1511C65.0125 10.1511 66.7592 10.1511 66.6404 10.172C66.6404 10.172 65.2151 9.74582 63.2028 11.9187C62.1618 13.0436 61.8683 14.3432 61.8264 15.3284C61.7845 16.3135 62.7207 17.655 63.9714 17.7388C65.2221 17.8227 64.8727 17.7528 65.4526 17.669C68.2614 17.2707 67.5068 17.5083 68.2474 17.138C69.6308 16.6349 70.616 15.3074 70.616 13.7493H70.609V13.7563Z" fill="#046C7C"/>
<path d="M67.0038 17.1802C68.8946 17.1802 70.4274 15.6474 70.4274 13.7566C70.4274 11.8658 68.8946 10.333 67.0038 10.333C65.113 10.333 63.5802 11.8658 63.5802 13.7566C63.5802 15.6474 65.113 17.1802 67.0038 17.1802Z" fill="#00144A"/>
<path d="M67.0038 16.8939C68.7363 16.8939 70.1409 15.4893 70.1409 13.7568C70.1409 12.0242 68.7363 10.6196 67.0038 10.6196C65.2712 10.6196 63.8666 12.0242 63.8666 13.7568C63.8666 15.4893 65.2712 16.8939 67.0038 16.8939Z" fill="white"/>
<path d="M70.057 13.009C69.8824 12.2894 69.4562 11.6676 68.8762 11.2344L64.4885 15.6222C64.9147 16.2021 65.5435 16.6213 66.2631 16.8029L70.057 13.009Z" fill="#56BDFF"/>
<path d="M67.2762 10.6263C67.1854 10.6263 67.1016 10.6123 67.0107 10.6123C65.278 10.6123 63.9225 12.0167 63.8736 13.7494C63.8247 15.4822 63.8876 13.994 63.8876 14.0149L67.2832 10.6193L67.2762 10.6263Z" fill="#56BDFF"/>
<path d="M80.0601 13.7563C80.0601 11.765 78.4461 10.1511 76.4549 10.1511C74.4636 10.1511 76.2103 10.1511 76.0915 10.172C76.0915 10.172 74.6662 9.74582 72.654 11.9187C71.6129 13.0436 71.9983 14.2541 71.9564 15.2392C71.9145 16.2244 72.4743 17.0541 73.7249 17.138C74.9756 17.2218 74.3239 17.7528 74.9038 17.669C77.7125 17.2707 76.9579 17.5083 77.6985 17.138C79.0819 16.6349 80.0671 15.3074 80.0671 13.7493H80.0601V13.7563Z" fill="#046C7C"/>
<path d="M76.4548 17.1802C78.3456 17.1802 79.8784 15.6474 79.8784 13.7566C79.8784 11.8658 78.3456 10.333 76.4548 10.333C74.564 10.333 73.0312 11.8658 73.0312 13.7566C73.0312 15.6474 74.564 17.1802 76.4548 17.1802Z" fill="#00144A"/>
<path d="M76.4549 16.8939C78.1875 16.8939 79.592 15.4893 79.592 13.7568C79.592 12.0242 78.1875 10.6196 76.4549 10.6196C74.7223 10.6196 73.3177 12.0242 73.3177 13.7568C73.3177 15.4893 74.7223 16.8939 76.4549 16.8939Z" fill="white"/>
<path d="M79.5081 13.009C79.3335 12.2894 78.9073 11.6676 78.3274 11.2344L73.9396 15.6222C74.3658 16.2021 74.9946 16.6213 75.7143 16.8029L79.5081 13.009Z" fill="#56BDFF"/>
<path d="M76.7273 10.6263C76.6365 10.6263 76.5527 10.6123 76.4618 10.6123C74.7291 10.6123 73.3736 12.0167 73.3247 13.7494C73.2758 15.4822 73.3387 13.994 73.3387 14.0149L76.7343 10.6193L76.7273 10.6263Z" fill="#56BDFF"/>
<path d="M71.8527 12.7921C72.528 12.7921 73.0754 12.2447 73.0754 11.5694C73.0754 10.8941 72.528 10.3467 71.8527 10.3467C71.1774 10.3467 70.63 10.8941 70.63 11.5694C70.63 12.2447 71.1774 12.7921 71.8527 12.7921Z" fill="#046C7C"/>
<path d="M71.1051 11.5694C71.1051 10.9755 71.5313 10.4794 72.0972 10.3676C72.0204 10.3537 71.9435 10.3467 71.8597 10.3467C71.1819 10.3467 70.637 10.8986 70.637 11.5694C70.637 12.2401 71.1889 12.7921 71.8597 12.7921C72.5304 12.7921 72.0204 12.7851 72.0972 12.7711C71.5313 12.6593 71.1051 12.1633 71.1051 11.5694Z" fill="#00144A"/>
<path d="M94.9584 48.3418V48.3488C95.036 49.0698 94.8417 49.7455 94.6265 50.4274C94.658 49.4576 94.5867 48.4871 94.4344 47.5243C94.3016 47.3217 94.1619 47.1261 94.0222 46.9235C93.9733 47.0981 93.9313 47.2728 93.8824 47.4475L93.8754 47.4545C93.8056 47.713 93.7357 47.9645 93.6379 48.209C93.554 48.4187 93.4492 48.6422 93.2816 48.8029C92.8693 49.1872 92.3593 48.9077 92.003 48.5933C91.1855 47.8667 90.885 46.5112 89.7252 46.2597C89.7951 47.2938 89.9977 48.3278 89.9069 49.3619C89.872 49.7951 89.7951 50.3051 89.4737 50.6335C89.1244 50.9898 88.6353 50.878 88.223 50.7174C87.6501 50.5008 87.1191 50.1933 86.5951 49.8859C86.3925 49.7671 86.1898 49.6484 85.9872 49.5296C85.6519 49.3339 85.3654 49.0405 85.0929 48.761C84.8134 48.4815 84.534 48.1881 84.1846 47.9925C83.8702 47.8178 83.5209 47.713 83.1995 47.5453C82.892 47.3846 82.6615 47.154 82.5147 46.8396C82.382 46.5532 82.3191 46.2387 82.3261 45.9173C82.3261 45.2676 82.5636 44.6387 82.7453 44.0239C82.892 43.5208 83.0597 42.9759 82.9829 42.4448C82.5846 42.5077 82.1724 42.5077 81.7951 42.34C81.1523 42.0606 80.8798 41.3689 80.6912 40.74C80.5095 40.1462 80.3837 39.5173 80.0623 38.9863C79.7479 39.3147 79.713 39.8038 79.7549 40.251C79.8108 40.8029 79.9785 41.3339 80.1392 41.858C80.3139 42.4379 80.4466 43.0178 80.5444 43.6117C80.782 45.1138 80.8029 46.637 80.8099 48.1532C80.8379 48.1741 80.8588 48.2021 80.8868 48.23C81.327 48.6981 82.4449 49.5226 83.4999 49.7532C84.5549 49.9907 90.4099 54.0222 93.9313 53.9802C93.9313 53.9726 93.9355 53.9656 93.939 53.9579C93.9362 53.9656 93.9341 53.9733 93.9313 53.9802C97.4374 53.9802 98.1731 51.1296 98.6202 49.7532C98.7739 49.2711 95.9645 49.9139 94.9584 48.3418ZM93.9453 53.9383C93.9474 53.9341 93.9488 53.9292 93.9502 53.9243C93.9481 53.9299 93.9467 53.9355 93.9446 53.9411C93.9446 53.9404 93.9446 53.939 93.9446 53.9383H93.9453Z" fill="#00144A"/>
<path d="M83.3837 37.8218C83.3837 37.8218 83.3707 35.976 81.9102 38.7322C80.4546 41.4933 82.1715 43.794 83.0294 44.6355C83.8874 45.477 88.3137 52.0697 91.8428 52.2233C95.372 52.377 97.5616 53.7225 98.3481 50.7456C98.3481 50.7456 99.9626 47.8366 98.605 45.3991C97.2475 42.9617 95.7539 38.7073 95.7539 38.7073C95.7539 38.7073 95.5174 40.8242 89.0192 41.2229L87.089 41.3848C87.089 41.3848 87.8359 40.5245 86.3766 39.3182C84.9173 38.112 83.5198 37.5497 83.5198 37.5497L83.3837 37.8218Z" fill="#0070F2"/>
<path d="M87.1075 41.2465C87.1424 41.2807 87.0592 41.3655 87.0648 41.4297C87.1204 42.0715 87.4584 42.7945 87.5584 43.4309C87.7263 44.447 87.9386 45.4578 88.1706 46.4586C88.2736 46.8923 88.3865 47.326 88.5535 47.7345C88.6446 47.9609 88.7605 48.192 88.9106 48.3882C88.9044 48.2548 88.8735 48.1267 88.8328 48.0085C88.7611 47.7424 88.6598 47.4864 88.6127 47.2152C88.555 46.8649 88.512 46.5096 88.4888 46.1541C88.4655 45.7887 88.4768 45.418 88.4486 45.0576C88.4311 44.7762 88.3938 44.4949 88.4256 44.213C88.4441 44.0745 88.4823 43.9457 88.5454 43.8215C88.6036 43.7123 88.6961 43.5681 88.8242 43.5372C88.9277 43.5016 89.0073 43.5602 89.1061 43.5592C89.1357 43.5589 89.126 43.5788 89.1403 43.5243C89.1542 43.4303 89.1236 43.3219 89.1078 43.2282C89.0919 43.1147 89.076 43.0012 89.0996 42.8873C89.1471 42.6892 89.2634 42.451 89.4802 42.3896C89.697 42.3282 89.9448 42.4147 90.1671 42.4076C90.4832 42.3947 90.8038 42.3373 91.1095 42.275C91.4152 42.2128 91.726 42.1653 92.0367 42.108C92.5792 42.0039 93.1164 41.8653 93.6131 41.6283C94.1442 41.3663 94.5901 40.9815 95.021 40.5821C95.3883 40.2377 95.7404 39.8687 96.0081 39.4461C95.8407 38.9981 95.7491 38.7223 95.7491 38.7223C95.7491 38.7223 95.5126 40.8392 89.0145 41.2379L87.1075 41.2465Z" fill="#00144A"/>
<path d="M76.5818 17.4156L73.861 17.1436L74.5412 17.8238L76.0376 18.9121L76.5818 17.4156Z" fill="#FF7F4C"/>
</svg>
