<svg width="181" height="196" viewBox="0 0 181 196" fill="none" xmlns="http://www.w3.org/2000/svg">
<circle cx="97.3649" cy="98.6054" r="80" fill="#EBF8FF"/>
<path d="M136.284 150.51C136.284 149.582 133.589 148.839 129.989 148.67C129.783 145.074 128.991 142.4 128.062 142.402C127.134 142.404 126.362 145.099 126.164 148.713C122.554 148.96 119.869 149.767 119.882 150.697C119.894 151.628 122.576 152.371 126.177 152.537C126.393 156.133 127.175 158.807 128.101 158.805C129.028 158.803 129.804 156.108 130.001 152.494C133.612 152.247 136.294 151.44 136.284 150.51Z" fill="#D1EFFF"/>
<path d="M80.7295 44.8543C80.7295 44.2354 78.9331 43.74 76.5329 43.6275C76.3956 41.2303 75.8673 39.4478 75.2483 39.4492C74.6294 39.4506 74.1148 41.2468 73.983 43.6563C71.5759 43.821 69.7864 44.3589 69.7946 44.9791C69.8028 45.5993 71.591 46.0947 73.9913 46.2059C74.1354 48.6031 74.6569 50.3855 75.2744 50.3842C75.892 50.3828 76.4093 48.5866 76.5411 46.177C78.9482 46.0124 80.7364 45.4745 80.7295 44.8543Z" fill="#D1EFFF"/>
<path d="M45.7815 156.734L99.536 154.537L66.9991 95.8821C66.7162 95.389 66.3036 94.9838 65.7873 94.7537C65.271 94.5235 64.6979 94.4468 64.1531 94.5554L23.0599 102.96L45.7645 156.728L45.7815 156.734Z" fill="#D1EFFF"/>
<path d="M95.3771 154.451C95.415 154.348 95.4359 154.24 95.4226 154.118C95.4265 154.003 95.3835 153.91 95.3235 153.81L63.5569 95.5375C63.5569 95.5375 63.4413 95.3782 63.3686 95.3125C63.296 95.2467 63.1999 95.1917 63.1083 95.1772C63.0059 95.1392 62.908 95.1417 62.81 95.1442C62.7121 95.1467 62.6185 95.1897 62.525 95.2326C62.4314 95.2756 62.3657 95.3482 62.2999 95.4209C62.2342 95.4936 62.1962 95.5959 62.1646 95.6812C62.1267 95.7836 62.1292 95.8816 62.1317 95.9795C62.1342 96.0775 62.1771 96.171 62.2201 96.2646L93.993 154.52C94.0637 154.643 94.1749 154.762 94.3051 154.83C94.4353 154.897 94.5781 154.931 94.7336 154.93C94.872 154.923 95.0294 154.865 95.1419 154.771C95.2544 154.677 95.3562 154.559 95.4068 154.423L95.3771 154.451Z" fill="#B8E6FF"/>
<path d="M45.5388 157.497L37.6166 177.246L18.8956 118.123L23.3165 103.422L45.5388 157.497L97.0735 154.011C99.1281 153.86 99.9161 156.656 98.0881 157.608L37.6166 177.246" fill="#EBF8FF"/>
<path d="M99.7183 156.876C99.9144 156.347 99.9398 155.755 99.7738 155.208C99.6096 154.604 99.2584 154.086 98.7523 153.723C98.2461 153.361 97.63 153.191 97.0233 153.257L46.0485 156.698L24.0347 103.109C23.9703 102.968 23.8654 102.832 23.7415 102.748C23.6006 102.657 23.4515 102.64 23.3023 102.624C23.1469 102.624 22.9895 102.682 22.8707 102.793C22.7518 102.905 22.65 103.022 22.6102 103.182L18.1893 117.883C18.1387 118.02 18.15 118.199 18.1973 118.333L36.912 177.472C36.9638 177.647 37.0857 177.789 37.2437 177.886C37.2949 177.905 37.346 177.924 37.3972 177.943C37.5337 177.994 37.6721 177.987 37.8169 177.963C37.8339 177.969 37.8573 177.959 37.8807 177.948L98.3289 158.321C98.3289 158.321 98.4161 158.295 98.4458 158.267C99.0431 157.965 99.4862 157.45 99.7139 156.836L99.7183 156.876ZM46.0778 158.242L97.1335 154.792C97.3932 154.772 97.6384 154.844 97.8583 154.983C98.0782 155.123 98.2323 155.335 98.2929 155.591C98.3535 155.846 98.3566 156.1 98.2681 156.338C98.1795 156.577 98.0057 156.785 97.7826 156.915L38.9638 176.021L46.0778 158.242ZM23.4355 105.72L44.7034 157.5L37.7096 174.954L19.7192 118.101L23.4418 105.703L23.4355 105.72Z" fill="#B8E6FF"/>
<path d="M98.3393 155.723C98.3154 155.579 98.2573 155.421 98.1695 155.292C98.0817 155.162 97.9705 155.043 97.8466 154.959C97.7228 154.874 97.5692 154.817 97.4093 154.777C97.2494 154.737 97.094 154.738 96.9429 154.779L94.2304 154.977L94.8591 157.888L97.3373 157.118C97.4991 157.1 97.6394 157.036 97.786 156.954C97.9156 156.866 98.0345 156.755 98.1362 156.638C98.221 156.514 98.2949 156.367 98.3348 156.207C98.3747 156.047 98.3741 155.891 98.3501 155.747L98.3393 155.723Z" fill="#9EDDFF"/>
<path d="M87.4269 157.364C87.4269 157.364 87.4668 157.204 87.458 157.123C87.4428 157.059 87.4277 156.996 87.3954 156.925C87.3632 156.855 87.3184 156.819 87.2798 156.766C87.2179 156.724 87.173 156.688 87.0985 156.679C87.0302 156.654 86.9727 156.652 86.8918 156.661L52.0325 160.603C51.8941 160.61 51.7708 160.681 51.6861 160.805C51.6077 160.912 51.5571 161.048 51.564 161.187C51.5792 161.25 51.5943 161.314 51.6265 161.384C51.6588 161.455 51.7036 161.491 51.7422 161.544C51.8041 161.586 51.8489 161.622 51.9235 161.63C51.9918 161.656 52.0493 161.658 52.1302 161.649L86.9895 157.706C86.9895 157.706 87.181 157.661 87.2467 157.588C87.3296 157.522 87.3782 157.443 87.4099 157.358L87.4269 157.364Z" fill="#B8E6FF"/>
<path d="M80.2502 160.76C80.2502 160.76 80.2666 160.611 80.2578 160.53C80.2427 160.466 80.2275 160.402 80.189 160.349C80.1504 160.296 80.1119 160.243 80.05 160.201C79.9817 160.175 79.9369 160.139 79.8623 160.131C79.794 160.106 79.7302 160.121 79.6664 160.136L45.385 167.65C45.2573 167.68 45.1277 167.768 45.0664 167.881C44.988 167.988 44.9715 168.137 45.0018 168.265C45.017 168.329 45.0321 168.392 45.0707 168.446C45.1092 168.499 45.1477 168.552 45.2097 168.594C45.2779 168.619 45.3291 168.638 45.3973 168.664C45.4656 168.689 45.5294 168.674 45.5933 168.659L79.8747 161.145C79.8747 161.145 80.0554 161.076 80.1212 161.003C80.1869 160.931 80.2356 160.852 80.2672 160.766L80.2502 160.76Z" fill="#B8E6FF"/>
<path d="M38.4826 148.052C38.5396 147.898 38.539 147.743 38.4809 147.586L24.3438 113.372C24.2857 113.214 24.1575 113.089 24.0039 113.032C23.8504 112.975 23.6778 112.97 23.5205 113.028C23.4503 113.06 23.3738 113.109 23.3144 113.165C23.255 113.22 23.2063 113.299 23.181 113.368C23.1494 113.453 23.1241 113.521 23.1329 113.602C23.1417 113.683 23.1506 113.764 23.1764 113.851L37.3071 148.082C37.3071 148.082 37.3886 148.229 37.4442 148.288C37.4998 148.347 37.5788 148.396 37.6471 148.421C37.7324 148.453 37.8006 148.478 37.8815 148.47C37.9624 148.461 38.0433 148.452 38.1305 148.426C38.2177 148.4 38.2772 148.344 38.3366 148.289C38.396 148.233 38.4447 148.154 38.4763 148.069L38.4826 148.052Z" fill="#B8E6FF"/>
<path d="M39.8001 163.503C39.8507 163.366 39.8502 163.211 39.7965 163.094L27.4565 129.896C27.4565 129.896 27.3921 129.755 27.3365 129.696C27.2809 129.637 27.219 129.594 27.14 129.546C27.0718 129.52 26.9865 129.489 26.9056 129.497C26.831 129.489 26.7501 129.498 26.6799 129.53C26.6098 129.562 26.5396 129.595 26.4802 129.65C26.4208 129.706 26.3784 129.768 26.3531 129.836C26.3278 129.904 26.2962 129.99 26.305 130.071C26.2968 130.145 26.3227 130.232 26.3378 130.296L38.6607 163.488C38.6607 163.488 38.7251 163.628 38.7807 163.688C38.8363 163.747 38.8982 163.79 38.9835 163.821C39.0689 163.853 39.1371 163.878 39.218 163.869C39.2989 163.86 39.3798 163.852 39.4499 163.819C39.5372 163.794 39.6137 163.744 39.6731 163.689C39.7325 163.633 39.7812 163.554 39.8128 163.469L39.8001 163.503Z" fill="#B8E6FF"/>
<path d="M150.888 33.3219C149.724 27.0778 144.11 22.658 137.761 22.9966L97.7423 25.0754C101.183 26.7917 103.713 30.1589 104.192 34.2614L109.172 77.2175C109.235 77.7763 109.331 78.3348 109.464 78.8739C110.945 84.4276 116.322 88.2015 122.203 87.5121C124.857 87.2024 127.197 86.0314 128.99 84.326L162.623 68.5202L160.381 66.5551C156.001 62.7 153.238 57.326 152.664 51.514L150.869 33.3158L150.888 33.3219Z" fill="#D1EFFF"/>
<path d="M132.635 69.8049L177.439 56.1688C171.928 64.2305 164.184 70.5305 155.158 74.2759L125.986 86.4132C125.815 86.4851 125.679 86.2513 125.843 86.135L128.348 84.3835C131.81 81.7564 133.335 77.1353 132.46 72.8847L132.043 70.829C131.955 70.3785 132.223 69.9368 132.648 69.7984L132.635 69.8049Z" fill="#B8E6FF"/>
<path d="M145.137 45.4553L116.533 51.5452C115.569 51.7532 114.962 52.6885 115.158 53.6592C115.366 54.6234 116.301 55.2297 117.265 55.0217L145.869 48.9318C146.833 48.7238 147.44 47.7886 147.244 46.8179C147.036 45.8536 146.101 45.2474 145.137 45.4553Z" fill="#B8E6FF"/>
<path d="M146.06 54.5908L117.737 61.8794C116.792 62.1253 116.218 63.092 116.451 64.0432C116.697 64.9879 117.664 65.5621 118.615 65.3288L146.938 58.0402C147.883 57.7943 148.457 56.8276 148.224 55.8764C147.978 54.9317 147.011 54.3575 146.06 54.5908Z" fill="#B8E6FF"/>
<path d="M28.3813 80.9801C27.1891 77.4191 29.4353 73.6295 33.1316 72.966L134.538 54.7641C137.546 54.2243 140.494 55.9719 141.464 58.8693L161.118 117.577C162.31 121.138 160.064 124.928 156.368 125.591L54.9612 143.793C51.9538 144.333 49.0055 142.585 48.0355 139.688L28.3813 80.9801Z" fill="#004DA5"/>
<path d="M30.7457 72.1371L28.7568 76.3279L33.4123 75.3048L30.7457 72.1371Z" fill="#004DA5"/>
<path d="M160.814 118.943L160.775 122.277L162.336 118.943L160.814 118.943Z" fill="#004DA5"/>
<path d="M30.3231 77.0837C29.1309 73.5226 31.3771 69.733 35.0734 69.0695L136.48 50.8676C139.487 50.3278 142.436 52.0754 143.406 54.9728L163.06 113.68C164.252 117.242 162.006 121.031 158.31 121.695L56.903 139.896C53.8956 140.436 50.9473 138.689 49.9773 135.791L30.3231 77.0837Z" fill="#0070F2"/>
<path d="M30.3267 77.0946C29.1333 73.5297 31.3855 69.737 35.0868 69.0787L136.546 51.035C139.551 50.5006 142.493 52.248 143.462 55.1419L146.67 64.7225L32.9551 84.9457L30.3267 77.0946Z" fill="#005DC9"/>
<path d="M43.3034 92.0696C42.8265 90.6451 43.7252 89.1292 45.2038 88.8639L138.809 72.0696C140.011 71.8537 141.191 72.5528 141.579 73.7117L154.519 112.363C154.995 113.788 154.097 115.304 152.618 115.569L59.0134 132.363C57.8105 132.579 56.6313 131.88 56.2433 130.721L43.3034 92.0696Z" fill="#005DC9"/>
<path d="M45.0523 89.5364C44.5754 88.1119 45.474 86.596 46.9526 86.3307L140.557 69.5364C141.76 69.3205 142.94 70.0196 143.328 71.1785L156.267 109.83C156.744 111.255 155.846 112.771 154.367 113.036L60.7623 129.83C59.5594 130.046 58.3802 129.347 57.9922 128.188L45.0523 89.5364Z" fill="#D1EFFF"/>
<circle cx="40.0422" cy="75.7124" r="2.77043" transform="rotate(-18.5096 40.0422 75.7124)" fill="#9EDDFF"/>
<circle cx="50.5525" cy="73.9527" r="2.77043" transform="rotate(-18.5096 50.5525 73.9527)" fill="#9EDDFF"/>
<circle cx="61.0642" cy="72.021" r="2.77043" transform="rotate(-18.5096 61.0642 72.021)" fill="#9EDDFF"/>
<path d="M99.3508 109.576C98.129 110.526 96.0526 109.797 95.5097 108.227L92.2892 98.9174L89.0681 89.6059C88.5252 88.0363 89.8954 86.7236 91.6029 87.1775L114.251 93.1989C116.144 93.7021 116.912 95.9229 115.558 96.976L99.3508 109.576Z" fill="#F58B00"/>
<rect width="119.551" height="19.5306" rx="2.98494" transform="matrix(0.985962 -0.166968 -0.326914 -0.945054 52.9636 136.262)" fill="#005DC9"/>
<rect width="119.551" height="19.5306" rx="2.98494" transform="matrix(0.985962 -0.166968 -0.326914 -0.945054 54.8098 133.799)" fill="white"/>
<rect width="91.7863" height="3.73115" rx="1.86557" transform="matrix(0.985962 -0.166968 0.326914 0.945054 71.143 120.145)" fill="#D5DADD"/>
<rect width="35.0728" height="3.73115" rx="1.86557" transform="matrix(0.985962 -0.166968 0.326914 0.945054 71.143 120.145)" fill="#CC7400"/>
<path d="M109.262 115.181C110.091 117.576 108.737 119.861 106.238 120.284C103.739 120.707 101.042 119.109 100.213 116.714C99.3848 114.319 100.739 112.034 103.238 111.611C105.736 111.188 108.434 112.786 109.262 115.181Z" fill="#F58B00"/>
<path fill-rule="evenodd" clip-rule="evenodd" d="M103.539 112.483C101.544 112.821 100.462 114.646 101.124 116.559C101.786 118.472 103.94 119.749 105.936 119.411C107.932 119.073 109.013 117.248 108.352 115.335C107.69 113.422 105.535 112.145 103.539 112.483ZM99.3028 116.868C98.3075 113.991 99.934 111.246 102.936 110.738C105.937 110.23 109.177 112.15 110.173 115.027C111.168 117.904 109.541 120.648 106.54 121.157C103.538 121.665 100.298 119.745 99.3028 116.868Z" fill="white"/>
<path fill-rule="evenodd" clip-rule="evenodd" d="M60.5991 120.811C60.5205 120.584 60.6489 120.367 60.8859 120.327L61.3151 120.254C61.5522 120.214 61.808 120.366 61.8866 120.593L63.5943 125.529C63.6729 125.757 63.5445 125.973 63.3074 126.013L62.8782 126.086C62.6412 126.126 62.3853 125.975 62.3067 125.747L60.5991 120.811Z" fill="#00144A"/>
<path fill-rule="evenodd" clip-rule="evenodd" d="M57.5947 121.32C57.5161 121.092 57.6446 120.876 57.8816 120.836L58.3108 120.763C58.5478 120.723 58.8037 120.874 58.8823 121.102L60.59 126.038C60.6686 126.265 60.5401 126.482 60.3031 126.522L59.8739 126.595C59.6369 126.635 59.381 126.483 59.3024 126.256L57.5947 121.32Z" fill="#00144A"/>
</svg>
