<svg width="128" height="128" viewBox="0 0 128 128" fill="none" xmlns="http://www.w3.org/2000/svg">
<mask id="mask0_2672_44856" style="mask-type:alpha" maskUnits="userSpaceOnUse" x="0" y="0" width="128" height="128">
<circle cx="64" cy="64" r="64" fill="#EBF8FF"/>
</mask>
<g mask="url(#mask0_2672_44856)">
<path d="M178.955 -9.99999H-140.051C-142.131 -10.0019 -144.19 -9.59401 -146.112 -8.7996C-148.033 -8.0052 -149.78 -6.83986 -151.251 -5.37022C-152.722 -3.90057 -153.888 -2.15544 -154.685 -0.234547C-155.481 1.68634 -155.891 3.74531 -155.891 5.82467V193.339C-155.891 197.54 -154.222 201.568 -151.251 204.539C-148.281 207.509 -144.252 209.178 -140.051 209.178H178.955C183.156 209.178 187.185 207.509 190.155 204.539C193.126 201.568 194.794 197.54 194.794 193.339V5.82467C194.794 3.74531 194.384 1.68634 193.588 -0.234547C192.792 -2.15544 191.625 -3.90057 190.154 -5.37022C188.683 -6.83986 186.937 -8.0052 185.015 -8.7996C183.094 -9.59401 181.034 -10.0019 178.955 -9.99999Z" fill="#EBF8FF"/>
<path d="M160.687 7.53418H124.792C123.336 7.53418 121.893 7.81764 120.547 8.36838C119.201 8.91911 117.978 9.72633 116.948 10.744C115.918 11.7616 115.101 12.9697 114.543 14.2993C113.986 15.6289 113.699 17.0539 113.699 18.4931C113.699 19.9322 113.986 21.3573 114.543 22.6869C115.101 24.0165 115.918 25.2246 116.948 26.2422C117.978 27.2598 119.201 28.0671 120.547 28.6178C121.893 29.1685 123.336 29.452 124.792 29.452H160.687C163.629 29.452 166.451 28.2974 168.532 26.2422C170.612 24.187 171.781 21.3996 171.781 18.4931C171.781 15.5866 170.612 12.7992 168.532 10.744C166.451 8.68877 163.629 7.53418 160.687 7.53418Z" fill="#D1EFFF"/>
<path d="M67.1456 26.2657L65.7819 27.3836L65.7116 27.4167L65.6124 27.3339C65.2682 27.5145 64.9151 27.6776 64.5545 27.8225C62.6824 28.2738 60.612 27.9467 59.1366 29.1018C45.4122 16.3705 28.1172 9.36523 10.3718 9.36523C-29.2186 9.36523 -61.4199 41.9739 -61.4199 81.6747C-61.4199 121.376 -29.2186 153.715 10.3842 153.715C24.5054 153.715 37.7504 150.13 48.9373 143.679C68.3606 133.523 81.9982 115.405 83.2008 91.8018C84.5563 92.2158 84.3373 90.9282 84.8539 90.6135C85.8581 92.6423 87.1351 92.0709 88.0608 91.1311C89.8295 91.926 89.5899 88.266 90.0692 88.266H90.8668L91.0197 87.5042C97.417 55.4462 78.7789 35.7469 67.1456 26.2657Z" fill="#9EDDFF"/>
<path d="M79.9316 95.5985C79.6877 95.1472 78.5513 93.1433 76.7205 92.9819C75.2782 92.8535 74.0757 93.7851 72.4763 95.8055C68.2074 101.188 68.0421 102.538 69.2198 106.057C69.3988 106.633 69.7673 107.133 70.2654 107.473C70.7721 107.795 71.3638 107.958 71.9639 107.941C74.1459 107.999 76.4354 106.442 76.9767 106.061C77.3435 105.809 77.6853 105.522 77.9975 105.204C81.0308 102.103 80.2002 96.9979 79.9316 95.5985Z" fill="#00A58A"/>
<path d="M5.73922 71.8869C4.05026 71.9191 2.36499 72.0573 0.693314 72.3009C-0.0904236 72.4298 -0.881194 72.5114 -1.67469 72.5452C-2.69111 72.4448 -3.68849 72.2024 -4.63777 71.8248C-5.85326 71.3439 -7.13584 71.0548 -8.43979 70.9678C-9.79528 70.9678 -11.5268 71.5226 -12.0847 74.3421C-12.2465 74.896 -12.2776 75.4799 -12.1757 76.0479C-12.0733 76.6162 -11.8414 77.1532 -11.4979 77.617C-10.7292 78.5486 -9.36961 78.9999 -7.46861 78.9999C-6.39394 78.9759 -5.32168 78.8874 -4.25758 78.7349C-3.75891 78.6604 -3.25886 78.6107 -2.75744 78.5858C-2.13754 78.5858 -1.83584 78.8467 -1.18702 79.476C-0.26299 80.4825 0.903984 81.2339 2.2017 81.6579L2.61497 81.7987C4.76572 82.6187 7.02616 83.114 9.32222 83.2685H9.35115C10.0361 83.3213 10.7244 83.2238 11.3679 82.9828C12.0116 82.7457 12.5946 82.3681 13.0746 81.8774C13.5314 81.2629 13.8501 80.5567 14.0086 79.8072C14.1624 79.0544 14.1483 78.2768 13.9673 77.5301C13.4218 73.7624 10.6612 71.8869 5.73922 71.8869Z" fill="#00A58A"/>
<path d="M47.9866 102.691C45.3658 102.704 42.7644 103.141 40.2834 103.987C39.4306 104.306 38.5376 104.504 37.6302 104.575C37.0363 104.571 36.4585 104.381 35.9772 104.033C35.0224 103.238 34.307 102.193 33.9109 101.014C33.0182 99.027 31.9107 96.547 28.1252 96.547H27.2987C25.7107 96.5513 24.1376 96.2403 22.6702 95.632C21.2067 95.023 19.879 94.1279 18.7648 92.9988C18.2203 92.4208 17.5617 91.9625 16.8308 91.6532C16.0986 91.3457 15.3103 91.1948 14.5165 91.2102C13.2805 91.2612 12.0565 91.4742 10.8757 91.8437C10.0006 92.1175 9.09608 92.2857 8.18124 92.3447C6.88229 92.2831 5.61871 91.9005 4.5032 91.2309C3.38989 90.5641 2.45636 89.6345 1.78396 88.5232C1.51534 87.9726 0.787994 86.5359 -0.571636 86.5359C-1.65025 86.5359 -2.63796 87.3846 -4.05131 89.4672C-4.26621 89.8274 -4.46455 90.1379 -4.64639 90.4153C-4.93225 90.9151 -5.2688 91.384 -5.65063 91.8147C-6.46202 91.1381 -7.16818 90.3441 -7.74585 89.4589C-8.21283 88.8337 -8.65916 88.2375 -9.07242 87.6579C-11.6264 84.2629 -13.4282 81.7539 -15.416 80.8058C-16.0511 80.4989 -16.707 80.2374 -17.379 80.0233C-18.6973 79.6092 -19.6643 79.2573 -20.2263 78.1312C-20.4121 77.6472 -20.5114 77.1343 -20.5198 76.6159C-20.6975 74.3801 -21.276 72.3762 -26.3054 72.3762C-27.9915 72.3762 -29.1032 72.0243 -29.4214 71.4281C-29.8347 70.6001 -29.252 68.944 -27.6113 66.4971C-26.3426 64.4808 -24.9086 63.5368 -23.4787 63.5368C-22.2926 63.5368 -20.9991 64.2241 -19.6189 65.6069C-17.5236 67.6978 -15.4449 68.7577 -13.4447 68.7577C-12.5735 68.7373 -11.7156 68.5387 -10.9238 68.1739C-10.1386 67.8105 -9.43559 67.2907 -8.85752 66.6461C-6.63004 64.4601 -5.51011 62.2078 -4.4191 57.8357C-3.28263 53.2814 -1.26178 47.9736 4.25939 47.0255C5.49917 46.8185 6.73895 46.657 7.89194 46.4955C12.7643 45.8248 16.6242 45.2824 18.521 42.4422C21.232 38.3806 22.5586 31.7935 17.3556 26.5975C14.5877 23.6682 10.7867 21.9388 6.76376 21.7782C4.88633 21.8114 3.04037 22.267 1.36242 23.1114C-0.313065 23.9544 -1.77666 25.1659 -2.91896 26.6554C-5.70434 29.9966 -7.87811 32.2199 -9.49809 32.2199C-10.4891 32.0871 -11.3884 31.5697 -12.0025 30.7791C-12.4606 30.2295 -12.7909 29.5846 -12.9695 28.8912C-13.1463 28.1962 -13.1646 27.4703 -13.0232 26.7672C-12.902 25.9374 -12.5799 25.1499 -12.0851 24.4735C-11.5893 23.7945 -10.9352 23.2473 -10.18 22.8795C-8.76813 22.329 -7.25357 22.093 -5.74154 22.1881C-2.79498 22.1219 0.552437 22.0556 2.78818 18.3335C3.93705 16.4249 4.2098 14.7108 3.6147 13.2327C3.26285 12.5158 2.76273 11.8821 2.14761 11.3738C1.53376 10.8616 0.818127 10.4861 0.0482559 10.2725H-0.327824C-12.2181 11.9301 -23.4947 16.5809 -33.1036 23.7904C-42.702 30.9813 -50.3151 40.502 -55.2254 51.4555C-55.3659 51.7412 -58.7712 58.6306 -57.6513 63.0979C-57.0125 65.3694 -55.6623 67.3752 -53.7997 68.8198C-51.9352 70.2681 -49.6576 71.0819 -47.2991 71.1424C-43.3442 71.1424 -40.6621 72.0906 -38.7653 76.8229C-36.6576 82.0851 -31.5538 85.4056 -27.7601 86.6642C-27.2394 86.834 -26.7187 86.9789 -26.2062 87.1197C-23.6977 87.8194 -21.5364 88.4156 -19.9577 92.3736C-19.4713 93.8683 -18.4995 95.1567 -17.1972 96.0336C-15.8857 96.9034 -14.3232 97.3126 -12.7546 97.197H-10.4238C-9.50222 97.2426 -8.24176 97.3212 -7.88223 97.9713C-7.6756 98.3605 -7.41938 99.6274 -9.4113 103.093C-13.8084 110.777 -12.7174 114.234 -10.4982 118.623C-9.22525 121.207 -7.36196 123.454 -5.05965 125.181C-2.74381 126.908 -0.0534248 128.063 2.79232 128.551C3.40007 128.601 3.98617 128.8 4.49907 129.131C5.01629 129.458 5.44271 129.911 5.73885 130.447C6.90424 132.745 5.73885 136.77 4.21391 139.775C3.49159 141.187 2.63347 142.526 1.65171 143.771C0.676414 145.087 -0.0922623 146.102 -0.0922623 147.559C0.00585175 149.32 0.382481 151.054 1.02355 152.697L1.23431 153.215L1.79221 153.285C4.46172 153.594 7.14702 153.746 9.83428 153.74C11.0741 153.74 12.2684 153.711 13.4627 153.703L16.8101 153.529L13.8512 151.915C13.7851 151.881 12.318 151.041 12.318 147.605C12.318 146.536 14.4793 145.394 20.5377 145.394H22.9636C24.039 145.312 25.0401 144.813 25.7531 144.003L26.2449 143.394C28.4434 140.641 33.7373 134.186 36.0309 132.662C37.0465 132.013 38.1643 131.54 39.337 131.263C41.3194 130.825 43.1316 129.818 44.5524 128.365C45.255 127.69 45.8169 126.882 46.2054 125.988C46.5944 125.092 46.7995 124.126 46.8088 123.148C46.8112 121.983 47.1406 120.843 47.7593 119.857C48.5812 118.767 49.6287 117.869 50.8298 117.223C52.4043 116.279 54.3012 115.075 55.2476 112.491C56.5576 109.001 56.7105 106.802 55.541 105.138C54.3715 103.474 52.0241 102.691 47.9866 102.691Z" fill="#00A58A"/>
<path d="M13.0538 18.3744C14.4328 18.7996 15.8726 18.9926 17.3146 18.9458C18.2237 18.9458 18.7858 18.9458 19.0172 19.1859C19.3435 19.6372 19.5832 20.1455 19.7239 20.6847C20.2033 22.0137 20.7942 23.6532 22.439 24.444C23.7808 24.9926 25.2223 25.2535 26.6708 25.21C27.9767 25.21 31.2167 25.0237 33.0516 23.2558C36.7999 19.6455 31.1299 13.05 30.8944 12.7768L30.7208 12.5739L30.4522 12.4911C23.6694 10.3664 16.5979 9.3118 9.49151 9.36521H7.9707L8.15254 10.4334C8.27652 11.1248 9.44191 17.2151 13.0538 18.3744Z" fill="#00A58A"/>
<path d="M74.1707 65.8341C76.3403 61.6939 76.0676 57.1976 73.4103 52.8669C68.4057 44.7437 56.4336 39.291 48.3832 39.291C43.3621 39.291 39.9692 41.3073 38.8204 44.9383C37.8329 47.8856 37.5887 51.0318 38.1096 54.0965C38.6302 57.1656 39.8993 60.0583 41.8041 62.5178C46.35 68.6288 54.3425 72.7359 61.7109 72.7359C67.4428 72.7359 71.8565 70.2849 74.1707 65.8341Z" fill="#00A58A"/>
<mask id="mask1_2672_44856" style="mask-type:alpha" maskUnits="userSpaceOnUse" x="0" y="0" width="128" height="128">
<circle cx="64" cy="64" r="64" fill="#EBF8FF"/>
</mask>
<g mask="url(#mask1_2672_44856)">
</g>
<g clip-path="url(#clip0_2672_44856)">
<path opacity="0.5" d="M76.357 92.046C96.5567 92.046 112.933 75.3391 112.933 54.6957C112.933 34.0523 96.5567 17.335 76.357 17.335C56.1572 17.335 39.7808 34.0418 39.7808 54.6957C39.7808 75.3496 56.1572 92.046 76.357 92.046Z" fill="#EBF8FF"/>
<path d="M90.8059 21.6892L77.138 17.335L54.2192 85.593L67.8976 89.9472L90.8059 21.6892Z" fill="white"/>
<path d="M73.2315 92.0459L96.5878 23.6626L92.3374 22.3052L68.9707 90.6885L73.2315 92.0459Z" fill="white"/>
<path d="M94.567 87.9946L84.5557 92.046L90.9521 107.918L100.953 103.866L94.567 87.9946Z" fill="#D5DADD"/>
<path d="M91.3165 106.654C90.8079 106.864 90.4031 107.268 90.1903 107.777C89.9776 108.285 89.9742 108.858 90.181 109.369L105.12 146.239C105.742 147.731 106.928 148.917 108.42 149.535C109.911 150.153 111.587 150.155 113.079 149.538L114.266 149.047C115.017 148.747 115.701 148.3 116.277 147.731C116.853 147.163 117.31 146.485 117.621 145.737C118.236 144.239 118.236 142.558 117.621 141.059L102.682 104.231C102.579 103.975 102.427 103.743 102.233 103.546C102.04 103.35 101.81 103.193 101.556 103.087C101.303 102.98 101.03 102.925 100.755 102.924C100.48 102.923 100.207 102.977 99.9527 103.083L91.3165 106.654Z" fill="#F58B00"/>
<path d="M84.2012 91.2104L85.2429 93.706C85.2429 93.706 90.4517 96.0345 95.9522 91.1686L94.2854 87.1694L89.6913 89.404L84.2012 91.2104Z" fill="#00144A"/>
<path d="M76.6069 93.3407C67.7121 93.3626 59.0851 90.2912 52.1971 84.6502C45.3091 79.0093 40.5865 71.1481 38.8348 62.4073C37.083 53.6664 38.4105 44.5871 42.5908 36.7176C46.7712 28.8481 53.5456 22.6757 61.7588 19.253C69.972 15.8303 79.1155 15.3692 87.63 17.9483C96.1445 20.5274 103.503 25.987 108.45 33.3961C113.397 40.8053 115.628 49.7051 114.76 58.5781C113.892 67.4511 109.981 75.7477 103.693 82.0531C96.5127 89.264 86.7709 93.3237 76.6069 93.3407ZM76.6069 19.5068C68.4416 19.4924 60.5241 22.317 54.204 27.499C47.884 32.6809 43.5526 39.8995 41.9483 47.9242C40.3439 55.949 41.566 64.283 45.4061 71.5057C49.2462 78.7283 55.4666 84.3925 63.0069 87.5327C70.5473 90.6728 78.9408 91.0946 86.7566 88.7259C94.5725 86.3573 101.327 81.345 105.868 74.5435C110.41 67.7419 112.457 59.5721 111.661 51.4268C110.866 43.2815 107.276 35.665 101.505 29.8755C98.2392 26.5907 94.359 23.984 90.0866 22.2047C85.8141 20.4255 81.2334 19.5087 76.6069 19.5068Z" fill="#00144A"/>
</g>
</g>
<defs>
<clipPath id="clip0_2672_44856">
<rect width="80" height="133.699" fill="white" transform="translate(38.082 16.3013)"/>
</clipPath>
</defs>
</svg>
