<svg width="128" height="128" viewBox="0 0 128 128" fill="none" xmlns="http://www.w3.org/2000/svg">
<mask id="mask0_2810_46791" style="mask-type:alpha" maskUnits="userSpaceOnUse" x="0" y="0" width="128" height="128">
<circle cx="64" cy="64" r="64" fill="#EBF8FF"/>
</mask>
<g mask="url(#mask0_2810_46791)">
<path d="M178.955 -9.99999H-140.051C-142.131 -10.0019 -144.19 -9.59401 -146.112 -8.7996C-148.033 -8.0052 -149.78 -6.83986 -151.251 -5.37022C-152.722 -3.90057 -153.888 -2.15544 -154.685 -0.234547C-155.481 1.68634 -155.891 3.74531 -155.891 5.82467V193.339C-155.891 197.54 -154.222 201.568 -151.251 204.539C-148.281 207.509 -144.252 209.178 -140.051 209.178H178.955C183.156 209.178 187.185 207.509 190.155 204.539C193.126 201.568 194.794 197.54 194.794 193.339V5.82467C194.794 3.74531 194.384 1.68634 193.588 -0.234547C192.792 -2.15544 191.625 -3.90057 190.154 -5.37022C188.683 -6.83986 186.937 -8.0052 185.015 -8.7996C183.094 -9.59401 181.034 -10.0019 178.955 -9.99999Z" fill="#223548"/>
<path d="M160.687 7.53418H124.792C123.335 7.53418 121.893 7.81764 120.547 8.36838C119.201 8.91911 117.978 9.72633 116.948 10.744C115.917 11.7616 115.1 12.9697 114.543 14.2993C113.985 15.6289 113.698 17.0539 113.698 18.4931C113.698 19.9322 113.985 21.3573 114.543 22.6869C115.1 24.0165 115.917 25.2246 116.948 26.2422C117.978 27.2598 119.201 28.0671 120.547 28.6178C121.893 29.1685 123.335 29.452 124.792 29.452H160.687C163.629 29.452 166.451 28.2974 168.531 26.2422C170.612 24.187 171.78 21.3996 171.78 18.4931C171.78 15.5866 170.612 12.7992 168.531 10.744C166.451 8.68877 163.629 7.53418 160.687 7.53418Z" fill="#2A4259"/>
<path d="M67.1447 26.2657L65.7809 27.3836L65.7106 27.4167L65.6115 27.3339C65.2673 27.5145 64.9142 27.6776 64.5535 27.8225C62.6814 28.2738 60.611 27.9467 59.1357 29.1018C45.4113 16.3705 28.1163 9.36523 10.3708 9.36523C-29.2196 9.36523 -61.4209 41.9739 -61.4209 81.6747C-61.4209 121.376 -29.2196 153.715 10.3832 153.715C24.5044 153.715 37.7494 150.13 48.9364 143.679C68.3596 133.523 81.9973 115.405 83.1999 91.8018C84.5554 92.2158 84.3363 90.9282 84.8529 90.6135C85.8571 92.6423 87.1341 92.0709 88.0598 91.1311C89.8286 91.926 89.5889 88.266 90.0683 88.266H90.8659L91.0188 87.5042C97.416 55.4462 78.778 35.7469 67.1447 26.2657Z" fill="#3B5B7C"/>
<path d="M79.9306 95.5985C79.6868 95.1472 78.5503 93.1433 76.7195 92.9819C75.2773 92.8535 74.0747 93.7851 72.4754 95.8055C68.2064 101.188 68.0411 102.538 69.2189 106.057C69.3978 106.633 69.7663 107.133 70.2644 107.473C70.7711 107.795 71.3628 107.958 71.9629 107.941C74.1449 107.999 76.4344 106.442 76.9758 106.061C77.3425 105.809 77.6843 105.522 77.9965 105.204C81.0298 102.103 80.1992 96.9979 79.9306 95.5985Z" fill="#00A58A"/>
<path d="M5.73825 71.8869C4.04928 71.9191 2.36401 72.0573 0.692337 72.3009C-0.0914001 72.4298 -0.882171 72.5114 -1.67567 72.5452C-2.69209 72.4448 -3.68947 72.2024 -4.63875 71.8248C-5.85423 71.3439 -7.13682 71.0548 -8.44076 70.9678C-9.79626 70.9678 -11.5278 71.5226 -12.0857 74.3421C-12.2475 74.896 -12.2786 75.4799 -12.1766 76.0479C-12.0743 76.6162 -11.8424 77.1532 -11.4989 77.617C-10.7302 78.5486 -9.37059 78.9999 -7.46958 78.9999C-6.39491 78.9759 -5.32266 78.8874 -4.25856 78.7349C-3.75989 78.6604 -3.25984 78.6107 -2.75841 78.5858C-2.13852 78.5858 -1.83682 78.8467 -1.188 79.476C-0.263967 80.4825 0.903008 81.2339 2.20073 81.6579L2.61399 81.7987C4.76474 82.6187 7.02518 83.114 9.32124 83.2685H9.35017C10.0352 83.3213 10.7234 83.2238 11.3669 82.9828C12.0106 82.7457 12.5936 82.3681 13.0737 81.8774C13.5305 81.2629 13.8491 80.5567 14.0076 79.8072C14.1614 79.0544 14.1473 78.2768 13.9663 77.5301C13.4208 73.7624 10.6602 71.8869 5.73825 71.8869Z" fill="#00A58A"/>
<path d="M47.9856 102.691C45.3649 102.704 42.7635 103.141 40.2824 103.987C39.4296 104.306 38.5366 104.504 37.6292 104.575C37.0353 104.571 36.4575 104.381 35.9762 104.033C35.0215 103.238 34.3061 102.193 33.9099 101.014C33.0173 99.027 31.9097 96.547 28.1242 96.547H27.2977C25.7097 96.5513 24.1366 96.2403 22.6692 95.632C21.2057 95.023 19.878 94.1279 18.7639 92.9988C18.2193 92.4208 17.5607 91.9625 16.8298 91.6532C16.0976 91.3457 15.3093 91.1948 14.5155 91.2102C13.2795 91.2612 12.0555 91.4742 10.8747 91.8437C9.99966 92.1175 9.09511 92.2857 8.18026 92.3447C6.88131 92.2831 5.61774 91.9005 4.50222 91.2309C3.38892 90.5641 2.45538 89.6345 1.78298 88.5232C1.51436 87.9726 0.787018 86.5359 -0.572613 86.5359C-1.65122 86.5359 -2.63894 87.3846 -4.05229 89.4672C-4.26719 89.8274 -4.46553 90.1379 -4.64736 90.4153C-4.93323 90.9151 -5.26977 91.384 -5.65161 91.8147C-6.463 91.1381 -7.16916 90.3441 -7.74682 89.4589C-8.21381 88.8337 -8.66014 88.2375 -9.0734 87.6579C-11.6274 84.2629 -13.4292 81.7539 -15.417 80.8058C-16.052 80.4989 -16.708 80.2374 -17.38 80.0233C-18.6983 79.6092 -19.6653 79.2573 -20.2273 78.1312C-20.413 77.6472 -20.5124 77.1343 -20.5207 76.6159C-20.6984 74.3801 -21.277 72.3762 -26.3064 72.3762C-27.9925 72.3762 -29.1042 72.0243 -29.4224 71.4281C-29.8356 70.6001 -29.2529 68.944 -27.6123 66.4971C-26.3436 64.4808 -24.9096 63.5368 -23.4797 63.5368C-22.2936 63.5368 -21.0001 64.2241 -19.6198 65.6069C-17.5246 67.6978 -15.4459 68.7577 -13.4457 68.7577C-12.5745 68.7373 -11.7166 68.5387 -10.9248 68.1739C-10.1396 67.8105 -9.43657 67.2907 -8.85849 66.6461C-6.63102 64.4601 -5.51108 62.2078 -4.42007 57.8357C-3.2836 53.2814 -1.26276 47.9736 4.25842 47.0255C5.4982 46.8185 6.73797 46.657 7.89097 46.4955C12.7633 45.8248 16.6232 45.2824 18.5201 42.4422C21.231 38.3806 22.5576 31.7935 17.3547 26.5975C14.5868 23.6682 10.7858 21.9388 6.76278 21.7782C4.88535 21.8114 3.03939 22.267 1.36145 23.1114C-0.314041 23.9544 -1.77764 25.1659 -2.91993 26.6554C-5.70531 29.9966 -7.87909 32.2199 -9.49907 32.2199C-10.4901 32.0871 -11.3894 31.5697 -12.0034 30.7791C-12.4616 30.2295 -12.7919 29.5846 -12.9704 28.8912C-13.1472 28.1962 -13.1656 27.4703 -13.0242 26.7672C-12.903 25.9374 -12.5809 25.1499 -12.0861 24.4735C-11.5903 23.7945 -10.9362 23.2473 -10.1809 22.8795C-8.7691 22.329 -7.25455 22.093 -5.74252 22.1881C-2.79596 22.1219 0.55146 22.0556 2.7872 18.3335C3.93607 16.4249 4.20882 14.7108 3.61373 13.2327C3.26187 12.5158 2.76175 11.8821 2.14663 11.3738C1.53278 10.8616 0.81715 10.4861 0.0472794 10.2725H-0.3288C-12.219 11.9301 -23.4956 16.5809 -33.1046 23.7904C-42.703 30.9813 -50.316 40.502 -55.2264 51.4555C-55.3669 51.7412 -58.7722 58.6306 -57.6523 63.0979C-57.0135 65.3694 -55.6633 67.3752 -53.8007 68.8198C-51.9362 70.2681 -49.6586 71.0819 -47.3001 71.1424C-43.3452 71.1424 -40.6631 72.0906 -38.7662 76.8229C-36.6586 82.0851 -31.5548 85.4056 -27.7611 86.6642C-27.2404 86.834 -26.7197 86.9789 -26.2072 87.1197C-23.6987 87.8194 -21.5374 88.4156 -19.9587 92.3736C-19.4723 93.8683 -18.5005 95.1567 -17.1981 96.0336C-15.8867 96.9034 -14.3241 97.3126 -12.7556 97.197H-10.4248C-9.5032 97.2426 -8.24274 97.3212 -7.88321 97.9713C-7.67657 98.3605 -7.42036 99.6274 -9.41228 103.093C-13.8094 110.777 -12.7184 114.234 -10.4992 118.623C-9.22622 121.207 -7.36294 123.454 -5.06062 125.181C-2.74479 126.908 -0.0544014 128.063 2.79134 128.551C3.39909 128.601 3.9852 128.8 4.49809 129.131C5.01531 129.458 5.44173 129.911 5.73787 130.447C6.90327 132.745 5.73787 136.77 4.21294 139.775C3.49062 141.187 2.6325 142.526 1.65074 143.771C0.675438 145.087 -0.0932388 146.102 -0.0932388 147.559C0.00487518 149.32 0.381504 151.054 1.02257 152.697L1.23334 153.215L1.79123 153.285C4.46075 153.594 7.14604 153.746 9.83331 153.74C11.0731 153.74 12.2674 153.711 13.4617 153.703L16.8092 153.529L13.8502 151.915C13.7841 151.881 12.317 151.041 12.317 147.605C12.317 146.536 14.4784 145.394 20.5368 145.394H22.9626C24.038 145.312 25.0391 144.813 25.7521 144.003L26.2439 143.394C28.4425 140.641 33.7363 134.186 36.0299 132.662C37.0456 132.013 38.1633 131.54 39.336 131.263C41.3185 130.825 43.1306 129.818 44.5514 128.365C45.2541 127.69 45.8159 126.882 46.2044 125.988C46.5934 125.092 46.7986 124.126 46.8078 123.148C46.8103 121.983 47.1396 120.843 47.7583 119.857C48.5802 118.767 49.6277 117.869 50.8288 117.223C52.4033 116.279 54.3002 115.075 55.2466 112.491C56.5566 109.001 56.7095 106.802 55.54 105.138C54.3705 103.474 52.0231 102.691 47.9856 102.691Z" fill="#00A58A"/>
<path d="M13.0528 18.3744C14.4318 18.7996 15.8716 18.9926 17.3136 18.9458C18.2228 18.9458 18.7848 18.9458 19.0162 19.1859C19.3426 19.6372 19.5822 20.1455 19.7229 20.6847C20.2023 22.0137 20.7933 23.6532 22.438 24.444C23.7798 24.9926 25.2213 25.2535 26.6698 25.21C27.9758 25.21 31.2157 25.0237 33.0506 23.2558C36.7989 19.6455 31.1289 13.05 30.8934 12.7768L30.7198 12.5739L30.4512 12.4911C23.6684 10.3664 16.5969 9.3118 9.49053 9.36521H7.96973L8.15156 10.4334C8.27554 11.1248 9.44094 17.2151 13.0528 18.3744Z" fill="#00A58A"/>
<path d="M74.1697 65.8341C76.3394 61.6939 76.0666 57.1976 73.4093 52.8669C68.4048 44.7437 56.4326 39.291 48.3823 39.291C43.3611 39.291 39.9683 41.3073 38.8194 44.9383C37.832 47.8856 37.5878 51.0318 38.1086 54.0965C38.6292 57.1656 39.8983 60.0583 41.8031 62.5178C46.349 68.6288 54.3415 72.7359 61.7099 72.7359C67.4419 72.7359 71.8555 70.2849 74.1697 65.8341Z" fill="#00A58A"/>
<mask id="mask1_2810_46791" style="mask-type:alpha" maskUnits="userSpaceOnUse" x="0" y="0" width="128" height="128">
<circle cx="64" cy="64" r="64" fill="#EBF8FF"/>
</mask>
<g mask="url(#mask1_2810_46791)">
</g>
<g clip-path="url(#clip0_2810_46791)">
<path opacity="0.5" d="M76.3565 92.046C96.5562 92.046 112.933 75.3391 112.933 54.6957C112.933 34.0523 96.5562 17.335 76.3565 17.335C56.1568 17.335 39.7803 34.0418 39.7803 54.6957C39.7803 75.3496 56.1568 92.046 76.3565 92.046Z" fill="#223548"/>
<path d="M90.8064 21.6892L77.1385 17.335L54.2197 85.593L67.898 89.9472L90.8064 21.6892Z" fill="#CEDBE8"/>
<path d="M73.2315 92.0459L96.5878 23.6626L92.3374 22.3052L68.9707 90.6885L73.2315 92.0459Z" fill="#CEDBE8"/>
<path d="M94.567 87.9946L84.5557 92.046L90.9521 107.918L100.953 103.866L94.567 87.9946Z" fill="#B9C1C6"/>
<path d="M91.3165 106.654C90.8079 106.864 90.4031 107.268 90.1903 107.777C89.9776 108.285 89.9742 108.858 90.181 109.369L105.12 146.239C105.742 147.731 106.928 148.917 108.42 149.535C109.911 150.153 111.587 150.155 113.079 149.538L114.266 149.047C115.017 148.747 115.701 148.3 116.277 147.731C116.853 147.163 117.31 146.485 117.621 145.737C118.236 144.239 118.236 142.558 117.621 141.059L102.682 104.231C102.579 103.975 102.427 103.743 102.233 103.546C102.04 103.35 101.81 103.193 101.556 103.087C101.303 102.98 101.03 102.925 100.755 102.924C100.48 102.923 100.207 102.977 99.9527 103.083L91.3165 106.654Z" fill="#F58B00"/>
<path d="M84.2012 91.2104L85.2429 93.706C85.2429 93.706 90.4517 96.0345 95.9522 91.1686L94.2854 87.1694L89.6913 89.404L84.2012 91.2104Z" fill="#688FB7"/>
<path d="M76.6069 93.3407C67.7121 93.3626 59.0851 90.2912 52.1971 84.6502C45.3091 79.0093 40.5865 71.1481 38.8348 62.4073C37.083 53.6664 38.4105 44.5871 42.5908 36.7176C46.7712 28.8481 53.5456 22.6757 61.7588 19.253C69.972 15.8303 79.1155 15.3692 87.63 17.9483C96.1445 20.5274 103.503 25.987 108.45 33.3961C113.397 40.8053 115.628 49.7051 114.76 58.5781C113.892 67.4511 109.981 75.7477 103.693 82.0531C96.5127 89.264 86.7709 93.3237 76.6069 93.3407ZM76.6069 19.5068C68.4416 19.4924 60.5241 22.317 54.204 27.499C47.884 32.6809 43.5526 39.8995 41.9483 47.9242C40.3439 55.949 41.566 64.283 45.4061 71.5057C49.2462 78.7283 55.4666 84.3925 63.0069 87.5327C70.5473 90.6728 78.9408 91.0946 86.7566 88.7259C94.5725 86.3573 101.327 81.345 105.868 74.5435C110.41 67.7419 112.457 59.5721 111.661 51.4268C110.866 43.2815 107.276 35.665 101.505 29.8755C98.2392 26.5907 94.359 23.984 90.0866 22.2047C85.8141 20.4255 81.2334 19.5087 76.6069 19.5068Z" fill="#688FB7"/>
</g>
</g>
<defs>
<clipPath id="clip0_2810_46791">
<rect width="80" height="133.699" fill="white" transform="translate(38.082 16.3013)"/>
</clipPath>
</defs>
</svg>
