<svg width="320" height="167" viewBox="0 0 320 167" fill="none" xmlns="http://www.w3.org/2000/svg">
<rect y="28.7148" width="320" height="138" rx="24" fill="#222F3B"/>
<g clip-path="url(#clip0_4038_89432)">
<path d="M174.625 68.6355L236.968 47.7667L209.861 23.0683L194.815 26.6311L193.872 26.8551L170.383 32.4178C170.383 32.4178 170.313 32.9753 170.207 33.9426L169.494 34.0606L162.154 36.2383C162.154 36.2383 162.143 36.8048 162.13 37.7703C159.105 37.93 156.282 39.2023 156.282 39.2023C142.144 41.566 121.328 44.8727 121.328 44.8727C118.697 44.5929 114.554 50.3842 114.554 50.3842L103.469 59.5358C103.258 59.7096 103.074 59.9127 102.922 60.1353L97.9635 67.4525C97.7232 67.7604 97.4868 68.07 97.2643 68.3924L95.706 70.6453L100.2 71.5207L100.686 71.6151L94.4251 70.3948L89.9661 88.4169C89.4085 88.4868 89.1004 88.5258 89.1004 88.5258C89.1004 88.5258 89.1244 86.9976 88.8074 85.1601C88.4884 83.3228 87.0699 82.5307 83.4668 83.0138C79.8638 83.4968 64.8867 85.8392 64.8867 85.8392C64.8867 85.8392 62.6776 86.8342 62.747 88.6056C62.8143 90.3752 63.0135 94.0049 63.0135 94.0049C63.0135 94.0049 62.6287 94.0716 62.105 94.3225C60.3345 95.1707 59.3791 97.0612 59.6823 98.9334L60.492 103.952L61.7361 112.353L66.7133 158.881L68.1292 158.662L68.3936 161.127L68.941 161.042L69.3403 163.744L69.3658 163.764C69.4591 164.146 69.639 164.509 69.9099 164.823C70.0275 164.961 70.1659 165.094 70.3134 165.221C70.463 165.35 70.6219 165.474 70.8048 165.583C71.4102 165.946 72.2059 166.176 73.2459 166.106C73.2478 166.106 73.2516 166.106 73.2535 166.106C73.2952 166.104 73.3501 166.098 73.4106 166.092C73.4239 166.091 73.4352 166.091 73.4503 166.088C73.5128 166.082 73.5847 166.075 73.6622 166.066C73.685 166.066 73.7076 166.061 73.7322 166.06C73.8136 166.051 73.9006 166.042 73.997 166.03C74.0254 166.027 74.0537 166.024 74.0821 166.021C74.1842 166.009 74.292 165.997 74.4092 165.983C74.4376 165.98 74.4697 165.977 74.498 165.972C74.6039 165.96 74.7154 165.946 74.8326 165.932C74.8667 165.929 74.8988 165.924 74.9348 165.92C75.0727 165.903 75.2202 165.886 75.3733 165.867C75.4149 165.861 75.4546 165.858 75.4962 165.852C75.6437 165.835 75.7986 165.815 75.9593 165.795C76.0198 165.787 76.0822 165.781 76.1446 165.773C76.3071 165.753 76.4735 165.733 76.6473 165.711C76.7078 165.703 76.7702 165.694 76.8326 165.688C77.0008 165.666 77.1709 165.646 77.3486 165.624C77.3864 165.618 77.4204 165.615 77.4582 165.61C77.6699 165.582 77.891 165.554 78.1159 165.526C78.1613 165.521 78.2066 165.515 78.2539 165.509C78.4807 165.481 78.7131 165.451 78.9513 165.421C79.0079 165.413 79.0647 165.407 79.1232 165.398C79.3614 165.368 79.6052 165.337 79.8546 165.305C79.9245 165.296 79.9963 165.285 80.0662 165.277C80.3025 165.247 80.5425 165.216 80.7881 165.183C80.8429 165.175 80.8996 165.169 80.9563 165.161C81.5478 165.084 82.1676 165.004 82.8101 164.92C82.8535 164.914 82.897 164.909 82.9405 164.903C99.49 162.741 132.191 158.293 143.347 156.771C143.515 156.749 143.677 156.725 143.836 156.704C144 156.682 144.157 156.66 144.31 156.639C146.139 156.389 147.18 156.248 147.18 156.248C147.18 156.248 148.673 155.394 148.447 152.145C148.406 151.539 148.193 149.416 147.875 146.365C147.872 146.335 147.869 146.305 147.865 146.274C147.816 145.79 147.761 145.283 147.706 144.755C147.702 144.721 147.699 144.687 147.696 144.653C147.582 143.562 147.456 142.383 147.325 141.139C147.218 140.134 147.105 139.087 146.989 138.005C146.883 137.01 146.774 135.988 146.661 134.946C146.656 134.901 146.652 134.855 146.646 134.81C146.571 134.108 146.495 133.397 146.418 132.678C146.258 131.196 146.096 129.686 145.933 128.171C145.851 127.415 145.769 126.656 145.688 125.9C145.645 125.499 145.6 125.098 145.558 124.697C145.071 120.195 144.592 115.802 144.189 112.103C144.155 111.792 144.122 111.488 144.089 111.189C144.054 110.871 144.02 110.559 143.987 110.253C143.454 105.372 143.095 102.092 143.095 102.092C143.095 102.092 142.981 100.626 141.622 99.6306C141.297 99.391 140.899 99.181 140.416 99.0218C140.282 97.8989 140.153 96.8251 140.031 95.8157C139.34 90.0706 138.884 86.2841 138.884 86.2841C138.884 86.2841 138.727 84.2332 136.541 83.3371C136.529 83.3319 136.514 83.3287 136.502 83.3235C135.651 82.9835 134.497 82.8153 132.93 83.0075C132.156 82.0033 130.856 81.4211 129.473 81.5964L126.505 81.9703L127.479 78.0332L127.762 76.8878L127.23 76.7839C127.268 76.7519 127.305 76.7219 127.344 76.69C127.345 76.6899 127.349 76.686 127.351 76.684C127.531 76.5362 127.706 76.3924 127.879 76.2487C127.879 76.2487 127.88 76.2486 127.882 76.2466C128.397 75.8175 128.874 75.407 129.307 75.0305C129.315 75.0246 129.322 75.0167 129.331 75.0106C129.467 74.8912 129.599 74.7757 129.726 74.6642C129.739 74.6542 129.75 74.6423 129.763 74.6323C129.887 74.5228 130.006 74.4155 130.122 74.312C130.129 74.306 130.137 74.3001 130.144 74.2922C130.259 74.1887 130.369 74.0893 130.474 73.994C130.476 73.9939 130.478 73.99 130.479 73.988C130.582 73.8946 130.677 73.8072 130.767 73.7238C130.778 73.7139 130.789 73.7039 130.798 73.6941C130.882 73.6166 130.963 73.5431 131.036 73.4736C131.049 73.4617 131.06 73.4518 131.073 73.4399C131.144 73.3743 131.21 73.3109 131.269 73.2553C131.278 73.2474 131.285 73.2395 131.294 73.2315C131.353 73.1741 131.408 73.1225 131.455 73.0769C133.285 71.2975 140.596 70.9407 147.969 68.2374C155.341 65.5341 158.991 62.4923 158.991 62.4923L162.912 61.9186C163.086 62.8956 163.297 63.5653 163.552 63.8039C164.797 64.9695 168.493 63.9452 170.899 63.098C171.075 63.6 171.269 64.069 171.482 64.4936C171.482 64.4936 172.91 68.1157 174.54 68.6541C174.575 68.666 174.607 68.6553 174.64 68.6349L174.625 68.6355ZM123.626 67.4366C122.625 68.0524 121.343 68.8163 119.279 70.0961C119.277 70.0962 119.275 70.0981 119.273 70.1001C119.123 70.1935 118.971 70.2889 118.814 70.3865L118.898 70.2615C118.898 70.2615 120.645 68.4018 122.205 66.1451L126.097 65.8156C125.377 66.329 124.575 66.8475 123.626 67.4366ZM111.453 72.5175L111.007 73.622L110.661 73.5542L111.453 72.5175ZM105.089 72.4695L106.516 70.5011L106.33 70.7765C105.959 71.3233 105.671 71.9199 105.48 72.5469L103.824 72.2241L105.089 72.4714L105.089 72.4695Z" fill="#101619"/>
<path d="M85.2468 83.467C85.2468 83.467 84.8281 83.5427 84.2601 83.8258C82.3382 84.7826 81.3034 86.9194 81.6338 89.0413L92.7203 159.944C92.7203 159.944 93.9723 164.2 94.4395 164.15C98.3117 163.746 174.768 153.127 174.768 153.127C174.768 153.127 176.388 152.164 176.137 148.485C175.887 144.804 167.679 74.8725 167.679 74.8725C167.679 74.8725 167.343 70.3783 161.202 71.1515C155.061 71.9247 113.586 77.3141 113.586 77.3141C113.586 77.3141 113.61 75.5846 113.262 73.5033C112.912 71.4221 111.37 70.523 107.454 71.0642C103.539 71.6054 87.2667 74.2278 87.2667 74.2278C87.2667 74.2278 84.869 75.3501 84.9458 77.3548C85.0227 79.3596 85.2468 83.4689 85.2468 83.4689L85.2468 83.467Z" fill="#0899A7"/>
<path d="M131.447 80.234C135.682 81.2832 140.095 81.8143 144.457 81.7964C149.255 81.7763 154.041 81.0444 158.674 79.8189C160.999 79.2049 163.293 78.4649 165.544 77.6184C166.333 77.3207 167.11 76.995 167.892 76.6748C167.756 75.5139 167.68 74.873 167.68 74.873C167.68 74.873 167.344 70.3788 161.203 71.152C156.72 71.716 133.397 74.7417 121.139 76.3328C124.411 78.0266 127.869 79.3465 131.449 80.2358L131.447 80.234Z" fill="#046C7C"/>
<path d="M144.813 86.9592C140.758 86.8773 136.704 86.6756 132.658 86.4052C128.647 86.1373 124.646 85.7454 120.638 85.4621C114.414 85.0229 108.105 85.138 101.958 86.2932C96.1704 87.3808 90.5433 89.4459 85.6523 92.7618C84.5557 93.5049 83.5239 93.8732 82.521 94.7265L92.246 162.43L94.439 164.152C98.3222 163.88 174.768 153.129 174.768 153.129C174.768 153.129 176.387 152.165 176.137 148.486C175.947 145.717 171.254 105.439 168.943 85.6658C160.955 86.7982 152.876 87.1269 144.815 86.9629L144.813 86.9592Z" fill="#046C7C"/>
<path d="M162.377 76.3245C162.374 76.2923 162.375 76.2619 162.37 76.2317L162.138 74.4383L162.138 74.4345L161.954 73.023C161.667 70.8158 159.646 69.2577 157.439 69.5441L141.69 71.587C139.483 71.8733 137.925 73.8944 138.211 76.1016L138.473 78.1275L87.8554 86.0274C86.7738 86.1962 86.0156 87.1822 86.1296 88.2699L92.883 153.029L170.562 140.676L162.377 76.3226L162.377 76.3245Z" fill="#D0B863"/>
<path d="M90.6835 154.433L83.8527 88.9287C83.7821 88.2591 84.2496 87.6514 84.916 87.5467L158.651 76.0386C159.355 75.9286 160.011 76.4227 160.1 77.1295L168.362 142.082" fill="#D5DADD"/>
<path d="M158.814 79.7643C158.814 79.5725 158.802 79.3811 158.772 79.1867L158.486 77.4277C158.168 75.4725 156.326 74.1448 154.37 74.4628L144.302 76.1025C142.347 76.4204 141.019 78.2633 141.337 80.2184L141.464 80.9998L84.456 89.8975C83.3177 90.0744 82.5161 91.1153 82.6363 92.2616L89.3779 156.916L167.056 144.564L158.814 79.7643Z" fill="#D0CDB3"/>
<path d="M97.5055 161.155L90.7697 96.5499C90.6466 95.3772 91.4662 94.3127 92.6309 94.131L164.506 82.9123C165.739 82.7203 166.889 83.5839 167.047 84.8218L175.186 148.805" fill="#D0CDB3"/>
<path d="M119.337 56.7958L109.674 97.7311L145.655 106.224L155.572 64.2114L119.337 56.7958Z" fill="#D0CDB3"/>
<path d="M151.756 75.0387C147.705 76.8979 143.542 78.5774 139.178 79.547C136.934 80.0457 134.679 80.2807 132.389 80.4507C129.84 80.6387 127.285 80.7909 124.729 80.7911C121.089 80.7931 117.468 80.443 113.96 79.5621L109.672 97.7293L145.651 106.223L153.168 74.3797C152.698 74.6 152.226 74.8203 151.754 75.0368L151.756 75.0387Z" fill="#D0B863"/>
<path d="M133.587 66.0791C136.439 68.9239 140.577 70.0473 144.479 69.0526C147.709 68.2274 151.283 67.2479 152.846 66.5866C153.659 66.2424 154.467 65.8813 155.267 65.5072L155.572 64.2108L126.142 58.1875C126.99 59.4147 130.555 63.0553 133.585 66.0791L133.587 66.0791Z" fill="#D0B863"/>
<path d="M91.2094 159.462L84.4736 94.8566C84.3504 93.6838 85.17 92.6194 86.3348 92.4376L158.21 81.219C159.443 81.0269 160.593 81.8906 160.751 83.1284L168.89 147.111" fill="#D5DADD"/>
<path d="M89.843 101.367C89.843 101.367 89.3262 101.46 88.6629 101.828C86.8641 102.822 85.915 104.87 86.2077 106.906L94.098 161.676L92.7137 159.943L92.5359 160.292C91.9794 161.38 92.0823 162.709 92.8611 163.652C93.552 164.489 94.68 165.238 96.489 165.11C100.372 164.838 176.818 154.087 176.818 154.087C176.818 154.087 178.437 153.123 178.187 149.444C177.936 145.763 172.277 92.7742 172.277 92.7742C172.277 92.7742 171.941 88.28 165.8 89.0532C159.659 89.8264 118.184 95.2158 118.184 95.2158C118.184 95.2158 118.208 93.4863 117.86 91.405C117.51 89.3238 115.968 88.4247 112.052 88.9659C108.138 89.5071 91.8649 92.1295 91.8649 92.1295C91.8649 92.1295 89.4672 93.2517 89.544 95.2565C89.6209 97.2613 89.845 101.371 89.845 101.371L89.843 101.367Z" fill="#0899A7"/>
<path fill-rule="evenodd" clip-rule="evenodd" d="M108.289 153.405C107.872 153.339 107.478 153.183 107.133 152.955C107.043 152.896 106.956 152.832 106.873 152.763C106.555 152.499 106.29 152.169 106.105 151.789C106.073 151.725 106.044 151.659 106.017 151.591C105.938 151.394 105.88 151.185 105.846 150.968L104.956 145.347C106.532 145.125 108.011 146.22 108.26 147.792L108.699 150.567L111.411 150.186C112.987 149.964 114.466 151.059 114.715 152.631L109.15 153.413C108.932 153.443 108.715 153.449 108.504 153.431C108.431 153.425 108.36 153.416 108.289 153.405ZM133.696 149.963C133.447 148.391 131.968 147.296 130.392 147.518L124.969 148.28C123.393 148.502 122.317 149.955 122.566 151.527L133.696 149.963ZM152.677 147.295C152.428 145.724 150.949 144.629 149.373 144.85L143.95 145.613C142.374 145.834 141.298 147.288 141.547 148.86L152.677 147.295ZM164.529 117.119C162.953 117.34 161.877 118.794 162.126 120.366L163.005 125.915C163.254 127.487 164.734 128.582 166.31 128.36L164.529 117.119ZM134.493 104.321C134.742 105.893 136.221 106.988 137.797 106.766L143.22 106.004C144.796 105.783 145.872 104.329 145.623 102.757L134.493 104.321ZM115.512 106.989C115.761 108.561 117.24 109.655 118.816 109.434L124.239 108.672C125.815 108.45 126.891 106.996 126.642 105.425L115.512 106.989ZM100.583 117.742C102.159 117.521 103.235 116.067 102.986 114.495L102.547 111.72L105.258 111.339C106.834 111.118 107.91 109.664 107.661 108.092L102.096 108.874C101.878 108.905 101.669 108.959 101.472 109.034C101.405 109.06 101.339 109.088 101.274 109.118C100.896 109.297 100.568 109.554 100.308 109.867C100.241 109.948 100.178 110.033 100.12 110.122C99.8964 110.461 99.7461 110.85 99.6864 111.265C99.6762 111.335 99.6687 111.406 99.6638 111.478C99.6496 111.688 99.6587 111.904 99.6932 112.121L100.583 117.742ZM101.879 125.924C103.455 125.702 104.935 126.797 105.184 128.369L106.062 133.918C106.311 135.49 105.236 136.944 103.66 137.165L101.879 125.924ZM153.474 101.654C153.723 103.225 155.202 104.32 156.778 104.099L159.49 103.718L159.929 106.492C160.178 108.064 161.657 109.159 163.233 108.937L162.343 103.317C162.308 103.099 162.25 102.89 162.172 102.693C162.145 102.626 162.116 102.56 162.084 102.495C161.899 102.115 161.634 101.785 161.316 101.521C161.233 101.452 161.146 101.388 161.056 101.329C160.711 101.101 160.317 100.945 159.9 100.879C159.829 100.868 159.757 100.859 159.685 100.853C159.474 100.835 159.257 100.841 159.039 100.872L153.474 101.654ZM167.605 136.542C166.029 136.764 164.954 138.217 165.203 139.789L165.642 142.564L162.931 142.945C161.355 143.166 160.279 144.62 160.528 146.192L166.093 145.41C166.311 145.379 166.52 145.325 166.717 145.25C166.784 145.224 166.85 145.196 166.914 145.166C167.293 144.988 167.621 144.73 167.881 144.417C167.948 144.336 168.011 144.251 168.069 144.163C168.292 143.823 168.443 143.434 168.502 143.02C168.513 142.949 168.52 142.878 168.525 142.806C168.539 142.596 168.53 142.381 168.496 142.163L167.605 136.542Z" fill="#D5DADD"/>
<path fill-rule="evenodd" clip-rule="evenodd" d="M137.734 122.241L137.727 122.236L133.612 119.222L133.612 119.221C133.273 118.971 132.893 118.861 132.488 118.918C132.084 118.975 131.761 119.183 131.536 119.519L128.544 123.52L128.543 123.521C128.396 123.72 128.293 123.961 128.334 124.225C128.377 124.491 128.551 124.688 128.756 124.828C128.952 124.971 129.181 125.047 129.429 125.012C129.68 124.977 129.877 124.839 130.02 124.645L132.001 121.969L133.62 132.192C133.658 132.432 133.757 132.669 133.97 132.827C134.182 132.984 134.438 133.009 134.678 132.976C134.919 132.942 135.156 132.847 135.31 132.638C135.464 132.429 135.486 132.176 135.448 131.935L133.818 121.642L136.622 123.717C136.819 123.863 137.05 123.941 137.301 123.906C137.559 123.869 137.774 123.741 137.927 123.534C138.071 123.34 138.162 123.107 138.122 122.85C138.082 122.596 137.925 122.396 137.734 122.241Z" fill="#D5DADD"/>
<path fill-rule="evenodd" clip-rule="evenodd" d="M142.72 133.391C143.121 133.335 143.492 133.443 143.811 133.699C144.149 133.929 144.361 134.252 144.424 134.652C144.49 135.069 144.394 135.452 144.132 135.773C143.899 136.085 143.576 136.271 143.185 136.326L127.58 138.519C127.171 138.577 126.788 138.493 126.461 138.25C126.133 138.008 125.941 137.667 125.877 137.258C125.815 136.868 125.899 136.505 126.128 136.191C126.359 135.847 126.697 135.643 127.115 135.584L142.72 133.391Z" fill="#D5DADD"/>
<path d="M115.617 159.893C113.821 158.607 112.172 157.123 110.654 155.519C109.029 153.798 107.549 151.941 106.2 149.997C104.8 147.981 103.54 145.872 102.402 143.699C101.231 141.463 100.185 139.161 99.2622 136.814C98.3418 134.474 97.5429 132.086 96.8699 129.663C96.2102 127.289 95.6726 124.881 95.269 122.45C94.8857 120.146 94.6268 117.818 94.5272 115.484C94.4293 113.191 94.4655 110.88 94.7996 108.606C95.1368 106.317 95.7464 104.045 96.7894 101.97C97.6444 100.274 98.8 98.7325 100.204 97.4527C101.554 96.2206 103.094 95.2241 104.719 94.3932C106.437 93.513 108.234 92.7986 110.042 92.1257C111.945 91.4165 113.864 90.7486 115.754 90.0077C116.13 89.8596 116.504 89.7097 116.876 89.5561C115.991 88.8471 114.475 88.6288 112.05 88.9638C108.136 89.5049 91.863 92.1274 91.863 92.1274C91.863 92.1274 89.4653 93.2496 89.5421 95.2544C89.6189 97.2591 89.8431 101.368 89.8431 101.368C89.8431 101.368 89.3264 101.461 88.663 101.83C86.8642 102.824 85.9151 104.872 86.2079 106.908L94.0981 161.678L92.7139 159.944L92.5361 160.293C91.9796 161.381 92.0824 162.711 92.8612 163.654C93.5521 164.49 94.6802 165.239 96.4891 165.111C97.7885 165.019 107.217 163.755 119.186 162.113C117.952 161.454 116.757 160.715 115.615 159.899L115.617 159.893Z" fill="#046C7C"/>
<path d="M107.738 163.533C105.806 163.125 103.865 162.76 101.947 162.294C99.8389 161.782 97.7289 161.178 95.7565 160.266C95.0577 159.942 94.3742 159.573 93.7339 159.144L94.0979 161.675L92.7137 159.943L92.5359 160.292C91.9794 161.381 92.0822 162.71 92.861 163.653C93.5519 164.49 94.68 165.238 96.4889 165.11C97.3489 165.049 101.767 164.476 108.125 163.618C107.996 163.591 107.866 163.564 107.738 163.537L107.738 163.533Z" fill="#046C7C"/>
<path d="M139.179 46.6543L132.277 57.2543C131.874 57.8726 131.563 58.5481 131.356 59.2574L136.988 60.41L138.956 57.7227C138.956 57.7227 143.722 52.4344 144.884 48.4517C145.483 46.4008 144.237 45.5467 142.889 45.2001C141.471 44.8354 139.979 45.4273 139.179 46.6543Z" fill="#8D2A00"/>
<path d="M146.328 45.3714L139.119 56.4395C138.808 56.9174 138.547 57.4275 138.341 57.9601L137.365 60.484L142.767 61.5888L145.936 56.6934C145.936 56.6934 150.702 51.4051 151.864 47.4225C152.548 45.0794 150.824 44.2977 149.291 44.0516C148.129 43.8647 146.968 44.3825 146.326 45.3695L146.328 45.3714Z" fill="#8D2A00"/>
<path d="M121.039 56.7621L128.553 45.1953C128.718 44.9417 128.918 44.7133 129.147 44.516L141.177 34.1771C141.177 34.1771 145.671 27.629 148.529 27.951C148.529 27.951 171.145 24.2452 186.504 21.5948C186.504 21.5948 191.348 19.3275 195.386 20.1435C199.423 20.9594 226.344 10.8574 226.344 10.8574L218.776 42.9227L189.968 47.267C189.968 47.267 186.007 50.705 178 53.7511C169.992 56.7971 162.049 57.1869 160.063 59.1987C158.079 61.2103 144.348 74.1459 140.805 69.9669C137.261 65.7879 139.769 60.7842 145.12 57.3017C150.472 53.8192 151.66 53.2243 153.752 51.6699L135.534 52.547L130.962 59.1249L121.04 56.7582L121.039 56.7621Z" fill="#FFAB92"/>
<path d="M154.475 49.9968C155.54 49.0669 154.616 49.1098 155.627 48.125C157.283 46.5103 159.015 44.8905 160.278 42.9364C160.816 42.1036 161.334 41.1387 161.365 40.125C161.396 39.1454 160.877 38.4331 160.132 37.8514C159.322 37.221 158.303 36.8574 157.323 36.5853C156.374 36.3214 155.409 36.136 154.432 36.0177C152.8 35.8212 151.146 35.7566 149.503 35.8512C148.429 35.9134 147.341 36.0293 146.303 36.3257C144.994 36.6993 143.761 37.4157 142.612 38.1267C141.151 39.0289 139.768 40.0533 138.394 41.0812C137.052 42.085 135.717 43.1093 134.298 44.006C132.805 44.9494 131.367 45.976 129.968 47.0542C128.839 47.926 127.736 48.829 126.648 49.7541C125.021 51.1398 123.6 52.7489 122.42 54.5306L120.729 57.0795L130.934 59.167L135.002 52.9038L153.751 51.6729C154.364 51.1962 153.892 50.5066 154.477 49.9968L154.475 49.9968Z" fill="#FF7F4C"/>
<path d="M183.218 33.3139C183.366 33.3497 183.515 33.3817 183.665 33.4042C184.781 33.572 185.94 33.3887 187.023 33.1115C188.356 32.771 189.642 32.2615 190.892 31.6926C193.567 30.4719 196.101 28.9585 198.609 27.4292C199.637 26.8028 200.66 26.1671 201.701 25.561C203.212 24.6815 204.747 23.8428 206.262 22.9727C209.898 20.887 213.5 18.7304 216.922 16.3095C217.737 15.7334 218.557 15.1553 219.334 14.5276C219.803 14.1497 220.214 13.7076 220.598 13.2439C213.198 15.5722 200.007 19.5695 194.59 20.2584C194.284 21.4238 193.912 22.5728 193.405 23.6684C192.886 24.791 193.693 31.5192 183.218 33.3157L183.218 33.3139Z" fill="#FF7F4C"/>
<path d="M201.635 37.7826C201.094 36.8071 200.044 36.3422 198.999 36.0556C198.396 35.8899 197.772 35.7763 197.149 35.731C196.637 35.6947 196.033 35.6924 195.573 35.7774C194.849 35.911 194.197 36.1348 193.566 36.5229C192.916 36.9252 192.328 37.4181 191.74 37.9052C191.109 38.4283 190.463 38.9082 189.777 39.3576C189.005 39.8597 188.223 40.3433 187.441 40.8306C186.653 41.3201 185.867 41.8133 185.096 42.3287C184.314 42.8522 183.563 43.418 182.803 43.971C181.317 45.0508 179.831 46.1307 178.279 47.1125C176.727 48.0924 175.103 48.9005 173.439 49.6683C170.136 51.1955 166.779 52.6032 163.487 54.1565C161.841 54.9332 160.212 55.7471 158.617 56.6243C157.844 57.0505 157.089 57.5026 156.34 57.9658C156.266 58.0182 156.191 58.0725 156.117 58.123C155.331 58.6693 154.518 59.1788 153.675 59.6136C152.347 60.4116 150.974 61.1393 149.529 61.7008C147.963 62.3089 146.354 62.6472 144.696 62.8848C143.767 63.0172 142.827 63.1595 141.917 63.4126C142.005 63.9923 142.148 64.5621 142.362 65.1158C143.185 67.2501 144.852 68.847 146.791 70.0057C151.992 67.1789 158.28 61.2234 159.574 59.9101C161.56 57.8983 169.503 57.5085 177.511 54.4625C185.517 51.4165 189.48 47.9784 189.48 47.9784L198.138 46.6727C198.312 46.4625 198.486 46.2522 198.656 46.0402C199.407 45.1059 200.136 44.1514 200.758 43.1253C201.292 42.2433 201.767 41.3029 201.966 40.2844C202.133 39.4342 202.057 38.5502 201.635 37.7864L201.635 37.7826Z" fill="#FF7F4C"/>
<path d="M202.494 40.9034C200.245 40.0365 197.841 39.4987 195.422 39.5371C194.215 39.5553 193.011 39.7177 191.846 40.0362C191.251 40.1988 190.635 40.3661 190.102 40.6895C189.149 41.2673 188.323 42.068 187.518 42.8279C186.39 43.8933 185.301 44.9971 184.197 46.0863C181.946 48.3081 179.645 50.6422 176.932 52.3052C175.24 53.342 172.907 54.2299 171.398 52.5145C169.859 53.7275 168.125 54.635 166.33 55.41C164.708 56.1116 163.045 56.7161 161.429 57.4288C159.747 58.1689 158.086 59.0032 156.761 60.2969C155.571 61.4579 154.423 63.0997 152.742 63.5587C151.235 63.9707 149.843 63.3257 148.367 63.1381C148.725 63.5853 149.158 63.963 149.566 64.3664C149.946 64.7444 150.357 65.2008 150.386 65.7677C150.41 66.2796 150.074 66.899 149.682 67.2168C149.276 67.5466 148.655 67.2278 148.224 67.1254C147.491 66.9516 147.152 67.5978 146.75 68.0908C146.526 68.3658 146.205 68.5515 145.923 68.7604C145.627 68.9794 145.334 69.202 145.039 69.4247C144.044 70.1752 143.035 70.9224 141.919 71.4802C146.874 72.0142 157.82 61.6885 159.576 59.9082C161.56 57.8966 169.505 57.5067 177.513 54.4606C185.519 51.4146 189.482 47.9766 189.482 47.9766L209.698 44.9276C207.474 43.2847 205.064 41.8923 202.498 40.9052L202.494 40.9034Z" fill="#8D2A00"/>
<path d="M146.345 56.5144C146.634 56.3831 147.461 56.2719 147.763 56.1724C149.259 55.6753 150.269 54.9528 151.457 54.2249C152.677 53.4787 153.931 52.6361 154.883 51.555C155.879 50.4227 156.66 48.9286 156.605 47.3845C156.579 46.6315 156.335 45.9023 155.893 45.2914C155.569 44.8447 155.171 44.4504 154.77 44.0752C153.738 43.1118 152.587 42.2596 151.371 41.543C150.787 41.198 150.18 40.8805 149.545 40.6363C149.115 40.4712 148.655 40.3358 148.191 40.3051C148.229 41.2704 148.395 42.2288 148.388 43.1959C148.384 43.9749 148.259 44.8405 147.67 45.4074C147.354 45.7127 146.943 45.8983 146.518 45.9895C146.003 46.0994 145.441 46.1448 144.921 46.0518C143.916 45.868 143.097 45.1906 142.332 44.5584C141.617 43.966 140.837 43.2755 139.889 43.1275C139.859 44.2361 139.792 45.3539 139.534 46.4337C139.304 47.3889 138.918 48.3087 138.293 49.0747C137.661 49.8485 136.748 50.5178 135.797 50.8334C134.189 51.3691 132.6 50.6277 131.048 50.2114C131.199 51.0905 131.203 51.9907 130.97 52.8587C130.544 54.4487 129.423 55.7076 128.184 56.7358C127.333 57.4424 126.524 57.4503 125.619 58.0813L130.939 59.1704L135.023 53.296L153.756 51.6763C152.004 52.9777 149.808 54.3008 146.348 56.5161L146.345 56.5144Z" fill="#8D2A00"/>
<path d="M142.717 62.301C143.148 62.1089 143.655 62.2538 143.927 62.638C144.529 63.4857 146.001 65.081 146.914 66.051C147.362 66.525 147.377 67.2634 146.942 67.7519C145.519 69.3478 142.372 72.3827 140.316 70.6759C137.954 68.7175 137.809 64.4816 142.717 62.301Z" fill="#FFB2D2"/>
<path d="M201.816 13.945C201.816 13.945 198.548 40.946 203.054 50.2607C203.054 50.2607 204.614 54.3638 206.386 54.9764C208.158 55.5889 206.468 15.042 206.468 15.042L201.818 13.9449L201.816 13.945Z" fill="#00144A"/>
<path d="M200.853 15.8007L192.882 18.2526C192.882 18.2526 192.364 47.4454 194.438 49.4648C196.51 51.4843 204.789 47.7263 204.789 47.7263L217.888 45.3132L225.854 11.5621L200.853 15.7988L200.853 15.8007Z" fill="#D5DADD"/>
<path d="M203.941 15.2791C203.936 17.9102 203.805 20.5407 203.536 23.1596C203.367 24.8095 203.144 26.4521 202.874 28.0891C202.597 29.768 202.244 31.4291 201.909 33.0953C201.283 36.2015 200.468 39.268 199.76 42.3566C199.193 44.8299 198.682 47.3294 198.381 49.8528C201.374 49.2784 204.79 47.7296 204.79 47.7296L217.889 45.3165L225.855 11.5654L203.941 15.2791Z" fill="#89D1FF"/>
<path d="M253.141 0.370146L201.816 13.9441C201.816 13.9441 204.665 52.1953 206.384 54.9755L256.97 43.046L253.141 0.370146Z" fill="#3B5B7C"/>
<path d="M256.412 39.4174C253.563 40.4723 250.672 41.4187 247.75 42.2524C244.905 43.0621 242.029 43.7666 239.122 44.3186C236.358 44.8457 233.571 45.2542 230.753 45.3466C227.83 45.4433 224.884 45.2521 222.026 44.6149C219.158 43.978 216.402 42.8864 213.867 41.4041C211.492 40.0161 209.282 38.3402 207.393 36.3362C205.71 34.5499 204.291 32.525 203.172 30.3418C204.14 41.0944 205.435 53.4409 206.384 54.9756L256.97 43.046L256.636 39.3305C256.562 39.3582 256.485 39.3879 256.41 39.4156L256.412 39.4174Z" fill="#00144A"/>
</g>
<defs>
<clipPath id="clip0_4038_89432">
<rect width="199.411" height="158.369" fill="white" transform="translate(56 8.30078) rotate(-2.30327)"/>
</clipPath>
</defs>
</svg>
