<svg width="320" height="240" viewBox="0 0 320 240" fill="none" xmlns="http://www.w3.org/2000/svg">
<rect y="51" width="320" height="138" rx="24" fill="#222F3B"/>
<path d="M144.503 61.3861C143.258 62.2999 141.902 63.0531 140.557 63.7962C133.838 67.522 127.12 71.2477 120.401 74.9734C118.805 75.8572 116.927 76.8011 115.762 78.2573C114.356 80.0247 113.954 82.5153 112.94 84.5137C111.926 86.5322 106.513 97.9805 106.171 99.6777C106.041 100.351 105.318 105.372 104.645 105.804L82.5517 107.943L82.7124 117.493C82.7124 117.493 79.2076 117.744 76.3254 117.814C72.8006 117.905 70.8523 119.933 70.541 122.916L74.0559 169.282C74.1964 171.109 74.558 172.314 75.9237 173.469L79.3683 176.683C80.1817 177.406 81.2462 177.878 82.4111 177.948L147.395 181.493C150.006 181.634 151.774 180.057 152.567 177.155L161.756 133.772C162.037 130.96 160.029 128.54 157.257 128.389L151.613 128.078C151.864 125.336 150.057 123.056 147.375 122.896L145.226 122.765L141.772 100.381L128.526 101.957C129.6 100.029 130.805 96.665 131.097 96.0223C132.041 93.9837 141.26 90.8103 146.431 86.3816C151.603 81.9629 153.521 80.5871 153.521 80.5871L156.534 78.9703C156.976 79.7536 157.357 80.2557 157.639 80.3863C159.014 81.0189 161.706 79.0707 163.403 77.6648C163.694 78.0364 163.996 78.3878 164.297 78.6791C164.297 78.6791 166.536 81.3102 168.033 81.3102C168.033 81.3102 168.033 81.3102 168.043 81.3102H168.053H168.073C168.073 81.3102 168.103 81.28 168.123 81.27L202.217 50.9922H160.561C154.104 55.1799 144.533 61.366 144.493 61.3961L144.513 61.376L144.503 61.3861Z" fill="#101619"/>
<path d="M146.488 129.66L146.559 124.478C146.91 121.998 145.283 119.859 142.923 119.708L114.935 117.981C112.555 117.83 110.386 119.748 110.105 122.239L110.195 126.547L102.613 126.085C99.1987 125.874 96.1258 128.596 95.7441 132.141L99.9117 187.123C100.082 189.292 100.504 190.728 102.131 192.094L106.208 195.9L186.286 201.383C189.47 201.554 193.236 195.368 193.838 192.164L191.82 138.829C192.442 135.334 190.233 132.311 186.869 132.111L146.488 129.65V129.66Z" fill="#00144A"/>
<path d="M182.882 136.014L105.997 131.887C105.294 131.887 104.963 132.198 104.963 132.981L105.385 185.995C105.385 187.19 106.359 188.204 107.534 188.275L183.334 192.402C184.509 192.462 185.453 191.549 185.443 190.364L185.021 138.294C185.021 137.099 184.047 136.084 182.872 136.014H182.882Z" fill="#4D82B8"/>
<path d="M125.048 147.997L186.527 141.078L180.03 99L119.986 107.767L125.048 147.997Z" fill="#D0CDB3"/>
<path d="M158.308 126.656C158.308 126.656 162.416 128.464 161.472 133.164L185.503 134.419L186.527 139.942H155.557L158.308 126.656Z" fill="#D0B863"/>
<path d="M147.884 90.0711L145.042 102.062C144.881 102.755 144.811 103.488 144.851 104.201L150.394 103.407L151.308 100.294C151.308 100.294 153.939 93.8771 153.698 89.8501C153.578 87.7714 152.152 87.3998 150.806 87.5203C149.39 87.6508 148.215 88.6852 147.884 90.0711Z" fill="#450B00"/>
<path d="M154.021 86.5479L151.049 99.0607C150.918 99.603 150.848 100.155 150.838 100.708L150.768 103.339L156.08 102.576L157.375 97.0422C157.375 97.0422 160.007 90.6251 159.766 86.5981C159.625 84.2281 157.787 84.0774 156.301 84.3486C155.176 84.5595 154.282 85.4131 154.011 86.5278V86.5479H154.021Z" fill="#450B00"/>
<path d="M207.628 72.3864C207.628 72.3864 210.399 75.6401 212.227 75.61C213.352 75.61 208.13 61.6712 203.962 50.9961H197.676C200.076 58.8392 203.651 68.4799 207.628 72.3864Z" fill="#00144A"/>
<path d="M183.364 51.1863C181.838 52.3011 180.181 53.225 178.524 54.1388C170.289 58.7081 162.054 63.2774 153.82 67.8467C151.861 68.9313 149.562 70.0861 148.136 71.8737C146.408 74.0428 145.916 77.0957 144.681 79.5461C143.436 82.0165 136.798 96.0558 136.386 98.1345C136.215 98.9881 135.271 105.566 134.428 105.696L144.43 104.26L146.459 96.6784L162.868 89.8897C161.462 91.9986 160.568 92.9326 156.802 97.8835C153.036 102.834 152.384 108.247 157.003 110.908C161.623 113.58 169.958 97.2006 171.123 94.7101C172.278 92.2095 179.438 89.247 185.774 83.8241C192.121 78.4012 194.622 73.9525 194.622 73.9525L219.607 60.5057L218.533 51.0156H183.595C183.515 51.0759 183.425 51.1462 183.344 51.2064L183.364 51.1863Z" fill="#FFAB92"/>
<path d="M204.042 63.9888C201.692 63.9286 199.312 64.2299 197.112 65.0634C196.008 65.4751 194.963 66.0274 193.999 66.7003C193.507 67.0417 192.995 67.4032 192.613 67.8752C191.93 68.7188 191.438 69.723 190.946 70.6871C190.263 72.0328 189.631 73.4086 188.968 74.7643C187.632 77.536 186.287 80.4383 184.348 82.8484C183.133 84.3548 177.038 87.8797 175.652 89.1752C174.396 90.3501 173.071 91.4548 171.816 92.6297C170.52 93.8549 169.275 95.1705 168.482 96.7873C167.769 98.2434 167.256 100.131 165.87 101.095C165.398 101.427 164.896 101.608 164.374 101.728C163.561 101.919 163.33 102.963 163.993 103.445C164.213 103.606 164.384 103.757 164.434 103.887C164.625 104.349 160.277 109.983 159.443 110.857C164.163 109.722 169.918 97.7011 170.942 95.4918C172.097 92.9913 179.257 90.0288 185.594 84.6059C191.93 79.183 194.431 74.7342 194.431 74.7342L211.965 65.2943C209.384 64.5211 206.723 64.029 204.042 63.9688V63.9888Z" fill="#C35500"/>
<path d="M157.697 96.7509C157.918 96.53 158.641 96.1584 158.882 95.9676C160.087 95.0236 160.78 94.0294 161.634 92.975C162.507 91.8904 163.381 90.7054 163.903 89.3999C164.446 88.0341 164.666 86.4072 164.114 85.0114C163.843 84.3285 163.381 83.746 162.778 83.3242C162.377 83.0531 161.824 82.4706 161.383 82.2798C160.268 81.7877 159.173 81.2053 157.978 80.9442C157.135 80.7534 156.301 80.6027 155.427 80.5827C154.624 80.5626 154.142 81.0245 154.232 81.7777C154.323 82.5208 154.684 83.3945 154.855 84.2281C155.056 85.2222 155.026 86.0357 154.232 86.6583C153.791 87.0098 153.037 87.1604 152.515 87.3914C149.854 88.5061 148.689 91.2678 146.67 93.3465C145.626 94.4211 144.602 95.6663 143.527 96.7208C143.166 97.0723 142.814 97.4639 142.613 97.9259C142.372 98.4983 142.372 99.151 142.302 99.7636C142.021 102.194 140.504 103.198 139.209 105.016L144.441 104.263L146.66 97.5744L162.899 89.902C161.714 91.6695 160.137 93.6076 157.697 96.771V96.7509Z" fill="#FF7F4C"/>
<path d="M156.271 103.246C156.602 102.925 157.114 102.895 157.496 103.156C158.329 103.728 160.197 104.713 161.352 105.305C161.924 105.596 162.175 106.269 161.934 106.852C161.151 108.78 159.354 111.923 156.903 111.029C154.101 110.005 152.485 106.852 156.261 103.246H156.271Z" fill="#FF7F4C"/>
<path d="M199.463 74.4953C202.024 75.6703 208.381 69.5042 208.381 69.5042L219.598 62.9867L218.252 50.9961H189.391C192.122 58.7488 197.575 73.6216 199.473 74.4852H199.463V74.4953Z" fill="#D5DADD"/>
<path d="M199.774 50.9961C204.413 61.0987 210.71 74.3949 212.236 75.61L250.156 50.9961H199.764H199.774Z" fill="#3B5B7C"/>
<path d="M245.065 50.9961C243.006 52.4422 240.907 53.818 238.738 55.0934C236.378 56.4792 233.958 57.7747 231.407 58.7789C228.756 59.8234 225.994 60.6267 223.162 60.9782C220.331 61.3398 217.438 61.2393 214.626 60.7171C211.995 60.2251 209.414 59.4116 207.024 58.1965C204.895 57.1119 202.927 55.7261 201.18 54.0892C205.598 63.6294 210.84 74.5254 212.216 75.62L250.156 50.9961H245.065Z" fill="#00144A"/>
<path d="M159.694 136.498L160.577 130.724C160.718 128.354 158.981 126.325 156.681 126.205L129.597 124.728C127.297 124.608 125.379 126.436 125.309 128.806L124.184 134.57L116.883 134.168C113.599 133.987 110.888 136.578 110.827 139.932L104.28 191.621C104.24 194.653 106.72 197.234 109.823 197.405L186.889 201.603C189.982 201.774 192.08 199.896 193.024 196.461L203.92 145.014C204.262 141.68 201.872 138.808 198.588 138.627L159.704 136.508L159.694 136.498Z" fill="#046C7C"/>
<path d="M165.506 184.605L139.547 183.189C138.623 183.138 137.99 182.355 138.131 181.451C138.271 180.548 139.145 179.845 140.069 179.895L166.029 181.311C166.953 181.361 167.585 182.144 167.445 183.048C167.304 183.952 166.43 184.655 165.506 184.605ZM153.847 175.667C152.923 175.617 152.291 174.833 152.431 173.93L155.213 156.496L149.81 160.834C149.057 161.437 147.993 161.377 147.44 160.704C146.898 160.031 147.059 158.976 147.812 158.374L156.508 151.394C156.87 151.103 157.362 150.943 157.784 150.963C158.266 150.993 158.637 151.194 158.899 151.525L165.255 159.348C165.798 160.021 165.637 161.075 164.884 161.678C164.131 162.28 163.066 162.22 162.514 161.547L158.577 156.707L155.795 174.14C155.655 175.044 154.781 175.747 153.857 175.697L153.837 175.677L153.847 175.667Z" fill="#D0CDB3"/>
</svg>
