<svg width="322" height="241" viewBox="0 0 322 241" fill="none" xmlns="http://www.w3.org/2000/svg">
<path d="M305.256 1.00001H14.4396C12.544 0.998256 10.6666 1.37012 8.91481 2.09432C7.16299 2.81853 5.57108 3.88088 4.23007 5.22066C2.88905 6.56044 1.82523 8.15136 1.09941 9.90251C0.373587 11.6537 -8.08092e-07 13.5307 0 15.4263V186.37C0 190.2 1.5213 193.873 4.22925 196.581C6.9372 199.289 10.61 200.81 14.4396 200.81H305.256C309.086 200.81 312.759 199.289 315.467 196.581C318.175 193.873 319.696 190.2 319.696 186.37V15.4263C319.696 13.5307 319.322 11.6537 318.596 9.90251C317.871 8.15136 316.807 6.56044 315.466 5.22066C314.125 3.88088 312.533 2.81853 310.781 2.09432C309.029 1.37012 307.152 0.998256 305.256 1.00001Z" fill="#223548"/>
<path d="M58.9775 159.662C58.9775 157.625 53.0633 155.994 45.1613 155.623C44.7095 147.731 42.97 141.863 40.9324 141.867C38.8947 141.872 37.2005 147.785 36.7668 155.718C28.8421 156.26 22.9505 158.031 22.9776 160.073C23.0047 162.115 28.8918 163.746 36.7939 164.112C37.2683 172.005 38.9851 177.873 41.0182 177.868C43.0513 177.864 44.7546 171.95 45.1884 164.017C53.113 163.475 59.0001 161.704 58.9775 159.662Z" fill="#2A4259"/>
<path d="M295.752 42.7717C295.752 40.7342 289.838 39.1033 281.936 38.7329C281.484 30.8405 279.744 24.972 277.707 24.9766C275.669 24.9811 273.975 30.8947 273.541 38.8277C265.617 39.3699 259.725 41.1408 259.752 43.1828C259.779 45.2247 265.666 46.8556 273.568 47.2216C274.043 55.1139 275.76 60.9824 277.793 60.9779C279.826 60.9733 281.529 55.0597 281.963 47.1267C289.887 46.5846 295.774 44.8137 295.752 42.7717Z" fill="#2A4259"/>
<path fill-rule="evenodd" clip-rule="evenodd" d="M54.9476 44.9596C61.0169 44.9596 65.9371 40.0394 65.9371 33.97C65.9371 27.9007 61.0169 22.9805 54.9476 22.9805C48.8782 22.9805 43.958 27.9007 43.958 33.97C43.958 40.0394 48.8782 44.9596 54.9476 44.9596ZM54.9476 42.0289C59.3984 42.0289 63.0066 38.4208 63.0066 33.9699C63.0066 29.5191 59.3984 25.9109 54.9476 25.9109C50.4967 25.9109 46.8886 29.5191 46.8886 33.9699C46.8886 38.4208 50.4967 42.0289 54.9476 42.0289Z" fill="#2A4259"/>
<circle cx="28.4733" cy="57.4459" r="5.49477" fill="#2A4259"/>
<path fill-rule="evenodd" clip-rule="evenodd" d="M275.738 143.864C280.152 143.864 283.73 140.285 283.73 135.871C283.73 131.457 280.152 127.879 275.738 127.879C271.323 127.879 267.745 131.457 267.745 135.871C267.745 140.285 271.323 143.864 275.738 143.864ZM275.738 141.732C278.975 141.732 281.599 139.108 281.599 135.871C281.599 132.634 278.975 130.01 275.738 130.01C272.501 130.01 269.876 132.634 269.876 135.871C269.876 139.108 272.501 141.732 275.738 141.732Z" fill="#2A4259"/>
<path fill-rule="evenodd" clip-rule="evenodd" d="M103.756 143.155C102.994 142.92 102.304 142.523 101.725 142.005C101.574 141.87 101.431 141.727 101.296 141.576C100.778 140.997 100.381 140.307 100.147 139.546C100.107 139.416 100.071 139.285 100.041 139.151C99.9522 138.76 99.9053 138.353 99.9053 137.936V127.152C102.921 127.152 105.366 129.596 105.366 132.612L105.366 137.936H110.554C113.57 137.936 116.015 140.38 116.015 143.396H105.366C104.948 143.396 104.541 143.349 104.15 143.26C104.017 143.23 103.885 143.195 103.756 143.155ZM152.337 143.396C152.337 140.38 149.892 137.936 146.876 137.936H136.499C133.483 137.936 131.038 140.38 131.038 143.396H152.337ZM188.658 143.396C188.658 140.38 186.214 137.936 183.198 137.936H172.82C169.805 137.936 167.36 140.38 167.36 143.396H188.658ZM219.791 89.8867C216.776 89.8867 214.331 92.3314 214.331 95.3471V105.994C214.331 109.01 216.776 111.455 219.791 111.455V89.8867ZM167.36 57.9453C167.36 60.961 169.805 63.4057 172.82 63.4057H183.198C186.214 63.4057 188.658 60.961 188.658 57.9453H167.36ZM131.038 57.9453C131.038 60.961 133.483 63.4057 136.499 63.4057H146.876C149.892 63.4057 152.337 60.961 152.337 57.9453H131.038ZM99.9053 74.1896C102.921 74.1896 105.366 71.7449 105.366 68.7292V63.4057L110.554 63.4057C113.57 63.4057 116.015 60.961 116.015 57.9453H105.366C104.948 57.9453 104.541 57.9922 104.15 58.0811C104.017 58.1114 103.885 58.1467 103.756 58.1866C102.994 58.4212 102.304 58.8178 101.725 59.3363C101.574 59.4711 101.431 59.6142 101.296 59.7648C100.778 60.3438 100.381 61.0342 100.147 61.7956C100.107 61.9251 100.071 62.0567 100.041 62.1901C99.9522 62.581 99.9053 62.9879 99.9053 63.4057V74.1896ZM99.9053 89.8867C102.921 89.8867 105.366 92.3314 105.366 95.3471V105.994C105.366 109.01 102.921 111.455 99.9053 111.455V89.8867ZM203.682 57.9453C203.682 60.961 206.126 63.4057 209.142 63.4057H214.331V68.7292C214.331 71.7449 216.776 74.1896 219.791 74.1896V63.4057C219.791 62.9879 219.744 62.581 219.655 62.1901C219.625 62.0567 219.59 61.9251 219.55 61.7956C219.315 61.0342 218.919 60.3438 218.4 59.7648C218.265 59.6142 218.122 59.4711 217.972 59.3363C217.393 58.8179 216.702 58.4212 215.941 58.1866C215.811 58.1467 215.68 58.1114 215.546 58.0811C215.156 57.9922 214.749 57.9453 214.331 57.9453H203.682ZM219.791 127.152C216.776 127.152 214.331 129.596 214.331 132.612V137.936H209.142C206.126 137.936 203.682 140.38 203.682 143.396H214.331C214.749 143.396 215.156 143.349 215.546 143.26C215.68 143.23 215.811 143.195 215.941 143.155C216.702 142.92 217.393 142.523 217.972 142.005C218.122 141.87 218.265 141.727 218.4 141.576C218.919 140.997 219.315 140.307 219.55 139.546C219.59 139.416 219.625 139.285 219.655 139.151C219.744 138.76 219.791 138.353 219.791 137.936V127.152Z" fill="#4098FF"/>
<path fill-rule="evenodd" clip-rule="evenodd" d="M168.113 92.4345L168.102 92.4223L161.293 85.6809L161.292 85.6797C160.732 85.1205 160.053 84.8145 159.278 84.8145C158.506 84.8145 157.84 85.119 157.318 85.6915L150.532 92.4107L150.53 92.413C150.196 92.7471 149.93 93.1717 149.93 93.6789C149.93 94.189 150.198 94.6046 150.541 94.922C150.864 95.2415 151.271 95.4446 151.746 95.4446C152.225 95.4446 152.636 95.237 152.962 94.9114L157.462 90.4109V110.026C157.462 110.487 157.578 110.958 157.929 111.308C158.279 111.659 158.75 111.775 159.211 111.775C159.672 111.775 160.143 111.659 160.494 111.308C160.844 110.958 160.96 110.487 160.96 110.026V90.2776L165.594 94.9114C165.919 95.237 166.33 95.4446 166.81 95.4446C167.304 95.4446 167.743 95.2601 168.092 94.9114C168.418 94.5854 168.659 94.1719 168.659 93.6789C168.659 93.193 168.425 92.7748 168.113 92.4345Z" fill="#4098FF"/>
<path fill-rule="evenodd" clip-rule="evenodd" d="M174.142 114.676C174.908 114.676 175.571 114.976 176.091 115.542C176.657 116.062 176.957 116.725 176.957 117.491C176.957 118.292 176.664 118.986 176.078 119.52C175.549 120.042 174.89 120.307 174.142 120.307H144.28C143.497 120.307 142.806 120.048 142.265 119.507C141.723 118.966 141.465 118.275 141.465 117.491C141.465 116.743 141.729 116.084 142.252 115.555C142.786 114.969 143.48 114.676 144.28 114.676H174.142Z" fill="#4098FF"/>
<path d="M207.713 89.3927C205.929 89.6404 204.296 90.5946 203.198 92.0457C202.101 93.4969 201.625 95.3034 201.876 97.1128L217.057 206.441C217.305 208.224 218.259 209.858 219.711 210.956C221.162 212.053 222.968 212.529 224.778 212.278L302.301 201.513C304.085 201.265 305.719 200.311 306.816 198.86C307.913 197.409 308.39 195.602 308.138 193.793L294.38 94.7098L271.373 80.5527L207.713 89.3927Z" fill="#324E6B"/>
<path d="M202.518 85.4649C200.709 85.7162 199.1 86.6668 198.003 88.118C196.902 89.5437 196.429 91.3757 196.677 93.1596L211.859 202.487C212.106 204.271 213.061 205.905 214.512 207.002C215.963 208.1 217.769 208.576 219.579 208.325L297.102 197.56C297.994 197.436 298.836 197.137 299.631 196.689C300.4 196.245 301.068 195.632 301.617 194.907C302.166 194.181 302.547 193.375 302.765 192.513C302.983 191.652 303.038 190.735 302.918 189.869L289.159 90.7856L266.178 76.6249L202.518 85.4649Z" fill="#2A4259"/>
<path d="M268.542 93.6484L289.736 94.9395L289.159 90.7855L268.542 93.6484Z" fill="#3B5B7C"/>
<path d="M268.542 93.6485L289.158 90.7856L266.178 76.625L268.542 93.6485Z" fill="#324E6B"/>
<path d="M221.153 129.504C220.86 127.389 222.333 125.47 224.449 125.176L271.442 118.651C273.557 118.357 275.501 119.827 275.792 121.917C276.082 124.007 274.615 125.977 272.5 126.27L225.507 132.796C223.392 133.09 221.447 131.619 221.153 129.504Z" fill="#3B5B7C"/>
<path d="M225.036 157.461C224.742 155.346 226.212 153.402 228.328 153.108L251.187 149.934C253.302 149.64 255.247 151.11 255.54 153.225C255.834 155.341 254.36 157.26 252.245 157.553L229.386 160.728C227.27 161.021 225.326 159.551 225.036 157.461Z" fill="#3B5B7C"/>
<path d="M223.093 143.469C222.8 141.354 224.27 139.409 226.385 139.116L273.378 132.59C275.493 132.296 277.438 133.767 277.732 135.882C278.025 137.997 276.555 139.942 274.44 140.235L227.447 146.761C225.332 147.055 223.387 145.584 223.093 143.469Z" fill="#3B5B7C"/>
<path d="M263.985 165.404C263.553 164.165 264.221 162.799 265.463 162.393L304.609 149.113C305.848 148.681 307.188 149.352 307.62 150.591L320.9 189.736C321.332 190.975 320.664 192.341 319.422 192.747L280.276 206.028C279.038 206.459 277.672 205.792 277.266 204.549L263.985 165.404Z" fill="#324E6B"/>
<path d="M259.766 164.015C259.335 162.776 260.002 161.411 261.245 161.005L300.39 147.724C301.629 147.292 302.995 147.96 303.401 149.202L316.681 188.348C317.113 189.587 316.446 190.952 315.203 191.358L276.058 204.639C274.819 205.071 273.453 204.403 273.047 203.161L259.766 164.015Z" fill="#CEDBE8"/>
<path d="M267.176 169.297C266.553 167.435 267.544 165.402 269.406 164.78L295.38 155.977C297.242 155.355 299.275 156.346 299.898 158.207L307.559 180.833C308.181 182.695 307.191 184.729 305.329 185.351L279.355 194.153C277.493 194.775 275.459 193.785 274.837 191.923L267.176 169.297Z" fill="#223548"/>
<path d="M294.91 168.304C297.69 167.372 299.19 164.333 298.233 161.556C297.301 158.776 294.262 157.276 291.485 158.233C288.705 159.165 287.205 162.204 288.162 164.981C289.094 167.761 292.133 169.261 294.91 168.304Z" fill="#2A4259"/>
<path d="M289.987 185.041C290.883 183.826 291.841 182.68 292.853 181.552L291.539 180.878C282.577 176.2 279.649 174.009 273.825 173.596C272.087 173.422 270.344 173.404 268.59 173.492L275.198 193.018C275.291 193.316 275.461 193.604 275.675 193.834C275.888 194.065 276.15 194.262 276.455 194.402C276.76 194.541 277.083 194.626 277.422 194.631C277.76 194.636 278.091 194.59 278.416 194.493L286.205 191.853C287.092 189.444 288.331 187.142 289.936 185.048L289.987 185.041Z" fill="#324E6B"/>
<path d="M296.196 179.244C294.601 179.361 293.331 180.317 292.067 181.687C291.128 182.779 290.25 183.94 289.427 185.119C287.97 187.166 286.833 189.454 286.052 191.874L306.197 185.05C300.873 182.621 299.537 178.988 296.196 179.244Z" fill="#3B5B7C"/>
<path d="M290.335 205.675L288.688 201.196C288.047 199.508 286.798 198.125 285.189 197.323C283.58 196.522 281.729 196.36 280.007 196.871L279.007 197.169C278.252 195.675 277.001 194.495 275.471 193.832C273.941 193.17 272.23 193.067 270.633 193.542L269.391 193.91C268.542 192.652 267.317 191.698 265.894 191.186C264.471 190.673 262.923 190.629 261.473 191.059L259.21 191.731L253.665 176.967C253.288 175.967 252.616 175.105 251.74 174.498C250.865 173.891 249.826 173.567 248.762 173.568C247.991 173.565 247.23 173.751 246.546 174.11C245.862 174.469 245.275 174.99 244.837 175.629C244.398 176.268 244.121 177.005 244.029 177.776C243.937 178.547 244.033 179.329 244.309 180.054L256.257 213.821L250.014 206.065C249.058 204.732 247.643 203.804 246.046 203.46C244.448 203.117 242.781 203.382 241.366 204.205C240.681 204.604 240.176 205.256 239.958 206.022C239.74 206.788 239.826 207.61 240.198 208.313L251.088 227.288C253.262 231.076 256.389 234.222 260.153 236.409C263.918 238.596 268.188 239.747 272.535 239.748H274.185C277.184 239.593 280.112 238.775 282.762 237.353C285.412 235.931 287.718 233.94 289.518 231.52C291.318 229.101 292.566 226.312 293.176 223.353C293.785 220.393 293.74 217.335 293.043 214.395C292.337 211.43 291.432 208.517 290.335 205.675Z" fill="#CEDBE8"/>
<path d="M272.528 240.34C268.079 240.332 263.711 239.15 259.858 236.911C256.006 234.673 252.804 231.456 250.573 227.582L239.68 208.611C239.231 207.771 239.125 206.787 239.384 205.869C239.643 204.95 240.247 204.17 241.067 203.691C242.607 202.792 244.423 202.502 246.164 202.877C247.904 203.252 249.443 204.265 250.482 205.72L254.56 210.768L243.758 180.245C243.285 178.97 243.307 177.561 243.82 176.301C244.333 175.042 245.299 174.023 246.525 173.448C246.759 173.332 247.004 173.239 247.255 173.168C248.647 172.801 250.125 172.965 251.406 173.627C252.686 174.29 253.677 175.405 254.191 176.758L259.546 191.015L261.284 190.497C262.783 190.048 264.382 190.07 265.868 190.559C267.354 191.048 268.657 191.981 269.604 193.234L270.447 192.981C272.095 192.491 273.858 192.569 275.457 193.202C277.056 193.835 278.399 194.987 279.274 196.475L279.818 196.313C281.481 195.82 283.26 195.902 284.872 196.545C286.484 197.188 287.835 198.356 288.71 199.863L288.78 199.719L290.901 205.466C292.023 208.381 292.943 211.37 293.653 214.413C294.35 217.43 294.38 220.563 293.742 223.593C293.104 226.623 291.813 229.474 289.96 231.947C288.107 234.419 285.738 236.452 283.019 237.901C280.3 239.351 277.298 240.182 274.225 240.336L272.528 240.34ZM244.659 203.901C243.604 203.901 242.567 204.182 241.655 204.717C241.102 205.037 240.695 205.561 240.519 206.178C240.342 206.795 240.411 207.457 240.71 208.024L251.588 226.98C253.717 230.673 256.77 233.74 260.445 235.875C264.119 238.009 268.285 239.135 272.528 239.142H274.178C277.077 238.993 279.908 238.205 282.472 236.835C285.036 235.465 287.27 233.545 289.016 231.211C290.763 228.877 291.98 226.186 292.581 223.328C293.182 220.469 293.153 217.513 292.496 214.667C291.8 211.687 290.901 208.759 289.806 205.903L288.155 201.443C287.567 199.888 286.418 198.615 284.937 197.875C283.457 197.136 281.754 196.985 280.168 197.452L278.708 197.89L278.489 197.452C277.795 196.082 276.648 194.999 275.244 194.391C273.841 193.783 272.27 193.688 270.805 194.123L269.151 194.616L268.91 194.248C268.132 193.091 267.009 192.213 265.702 191.742C264.395 191.271 262.973 191.231 261.642 191.628L258.856 192.455L253.118 177.173C252.757 176.222 252.1 175.414 251.244 174.872C250.388 174.329 249.38 174.081 248.372 174.164C247.732 174.224 247.114 174.431 246.566 174.771C246.019 175.11 245.557 175.572 245.216 176.121C244.875 176.67 244.664 177.29 244.601 177.934C244.537 178.578 244.622 179.228 244.849 179.834L257.947 216.857L249.551 206.436C248.994 205.653 248.26 205.015 247.41 204.574C246.559 204.133 245.616 203.902 244.659 203.901Z" fill="#688FB7"/>
<path d="M264.157 204.482C264.04 204.483 263.926 204.448 263.829 204.383C263.732 204.317 263.657 204.224 263.613 204.115L258.674 191.989C258.638 191.918 258.618 191.839 258.613 191.759C258.609 191.679 258.621 191.599 258.648 191.523C258.675 191.448 258.718 191.379 258.772 191.321C258.827 191.262 258.893 191.216 258.966 191.184C259.039 191.152 259.118 191.135 259.198 191.135C259.278 191.134 259.356 191.15 259.43 191.182C259.503 191.213 259.57 191.259 259.625 191.317C259.68 191.375 259.723 191.444 259.751 191.519L264.701 203.674C264.759 203.819 264.757 203.981 264.697 204.125C264.637 204.268 264.523 204.382 264.379 204.442C264.309 204.471 264.233 204.485 264.157 204.482Z" fill="#688FB7"/>
<path d="M272.984 203.6C272.867 203.6 272.753 203.566 272.656 203.5C272.559 203.435 272.484 203.341 272.44 203.232L268.84 194.146C268.783 193.999 268.785 193.836 268.847 193.692C268.909 193.547 269.025 193.434 269.171 193.376C269.316 193.318 269.478 193.32 269.622 193.383C269.765 193.445 269.878 193.562 269.935 193.708L273.535 202.799C273.591 202.945 273.588 203.108 273.526 203.251C273.463 203.395 273.347 203.509 273.203 203.567C273.133 203.593 273.058 203.604 272.984 203.6Z" fill="#688FB7"/>
<path d="M281.289 203.599C281.172 203.6 281.056 203.566 280.959 203.501C280.861 203.435 280.785 203.341 280.741 203.232L278.489 197.419C278.439 197.301 278.427 197.171 278.455 197.046C278.484 196.921 278.55 196.809 278.646 196.724C278.717 196.664 278.801 196.621 278.892 196.599C278.983 196.578 279.078 196.579 279.168 196.602C279.258 196.625 279.342 196.669 279.412 196.732C279.482 196.794 279.536 196.872 279.569 196.96L281.84 202.758C281.895 202.884 281.906 203.024 281.872 203.157C281.839 203.291 281.762 203.409 281.654 203.493C281.548 203.57 281.419 203.607 281.289 203.599Z" fill="#688FB7"/>
</svg>
