<svg width="45" height="45" viewBox="0 0 45 45" fill="none" xmlns="http://www.w3.org/2000/svg">
<path fill-rule="evenodd" clip-rule="evenodd" d="M24.4831 23.5C22.9737 23.5 21.7501 24.7236 21.7501 26.233C21.7501 27.7425 22.9737 28.9661 24.4831 28.9661L36.7403 28.9661C40.2677 28.9661 43.1272 31.8256 43.1273 35.353C43.1273 38.8805 40.2677 41.7401 36.7403 41.7401H17.6064C17.0542 41.7401 16.6064 41.2924 16.6064 40.7401C16.6064 40.1878 17.0542 39.7401 17.6064 39.7401H36.7403C39.1632 39.7401 41.1273 37.7759 41.1273 35.353C41.1272 32.9302 39.1631 30.9661 36.7403 30.9661H24.4831C21.8691 30.9661 19.7501 28.847 19.7501 26.233C19.7501 23.6191 21.8691 21.5 24.4831 21.5L31.5354 21.5C32.0877 21.5 32.5354 21.9477 32.5354 22.5C32.5354 23.0523 32.0877 23.5 31.5354 23.5L24.4831 23.5Z" fill="#688FB7"/>
<path d="M8.54063 21.375C4.04888 21.375 0.416016 25.0079 0.416016 29.4996C0.416016 35.5931 8.54063 44.5882 8.54063 44.5882C8.54063 44.5882 16.6653 35.5931 16.6653 29.4996C16.6653 25.0079 13.0324 21.375 8.54063 21.375ZM8.54063 32.4013C6.93892 32.4013 5.63898 31.1013 5.63898 29.4996C5.63898 27.8979 6.93892 26.598 8.54063 26.598C10.1423 26.598 11.4423 27.8979 11.4423 29.4996C11.4423 31.1013 10.1423 32.4013 8.54063 32.4013Z" fill="#F58B00"/>
<path d="M36.8756 0C32.3838 0 28.751 3.63287 28.751 8.12462C28.751 14.2181 36.8756 23.2132 36.8756 23.2132C36.8756 23.2132 45.0002 14.2181 45.0002 8.12462C45.0002 3.63287 41.3673 0 36.8756 0ZM36.8756 11.0263C35.2739 11.0263 33.9739 9.72633 33.9739 8.12462C33.9739 6.52291 35.2739 5.22297 36.8756 5.22297C38.4773 5.22297 39.7772 6.52291 39.7772 8.12462C39.7772 9.72633 38.4773 11.0263 36.8756 11.0263Z" fill="#5D36FF"/>
</svg>
