<svg width="320" height="240" viewBox="0 0 320 240" fill="none" xmlns="http://www.w3.org/2000/svg">
<rect y="51" width="320" height="138" rx="24" fill="#222F3B"/>
<path d="M238.901 170.097L178.86 150.137C178.733 150.097 178.597 150.081 178.469 150.105L93.4529 163.088C89.633 163.526 89.2742 164.595 90.4305 165.161L150.583 185.584C152.927 186.381 155.431 186.573 157.871 186.134L235.503 171.891C239.036 171.421 239.738 170.368 238.909 170.097H238.901Z" fill="#101619"/>
<path d="M90.446 44.8569L115.853 144.929C116.252 146.373 117.647 147.306 119.13 147.115L199.131 134.379C203.756 133.207 205.08 129.475 204.689 128.295L165.463 34.6495C164.777 32.7595 163.541 31.9381 162.193 32.0259L94.0904 35.1838C92.1925 35.3034 88.3806 38.0387 90.446 44.8569Z" fill="#00144A"/>
<path d="M91.4192 38.9539L117.735 142.32C118.134 143.763 119.53 144.696 121.013 144.505L202.002 131.642C203.892 131.395 205.08 129.473 204.45 127.671L173.948 31.5774C173.501 30.3095 172.265 29.4881 170.925 29.5678L94.1226 35.158C92.2247 35.2776 90.9089 37.1118 91.4192 38.9539Z" fill="#4D82B8"/>
<path d="M120.838 55.8294L151.938 168.685C152.385 170.312 153.964 171.365 155.647 171.149L246.532 154.594C251.756 153.27 253.247 149.06 252.537 147.026L205.87 43.5645C205.368 42.1291 203.972 41.2041 202.457 41.2998L124.945 44.9122C122.799 45.0478 118.493 48.1339 120.83 55.8373L120.838 55.8294Z" fill="#00144A"/>
<path d="M121.931 49.1591L154.06 165.739C154.507 167.366 156.086 168.418 157.769 168.203L249.771 151.504C251.908 151.225 253.248 149.056 252.538 147.023L215.456 40.0841C214.954 38.6486 213.558 37.7236 212.043 37.8193L124.985 44.8768C122.84 45.0123 121.357 47.0857 121.931 49.1591Z" fill="#D5DADD"/>
<path d="M162.851 161.767C162.478 161.767 162.145 161.497 162.074 161.117C161.994 160.689 162.28 160.269 162.708 160.189L167.385 159.317C167.821 159.238 168.234 159.523 168.313 159.952C168.392 160.38 168.107 160.8 167.679 160.879L163.001 161.751C162.954 161.759 162.906 161.767 162.859 161.767H162.851ZM158.586 160.657C158.332 160.657 158.078 160.53 157.928 160.3C157.698 159.96 157.531 159.587 157.42 159.191L156.413 155.544C156.294 155.124 156.548 154.688 156.968 154.569C157.388 154.45 157.824 154.703 157.943 155.124L158.95 158.77C159.014 159.008 159.117 159.23 159.251 159.428C159.497 159.793 159.394 160.285 159.029 160.53C158.895 160.618 158.744 160.665 158.593 160.665L158.586 160.657ZM172.197 160.015C171.825 160.015 171.492 159.745 171.42 159.365C171.341 158.937 171.627 158.517 172.055 158.437L176.732 157.565C177.168 157.486 177.58 157.771 177.66 158.2C177.739 158.628 177.453 159.048 177.025 159.127L172.348 159.999C172.3 160.007 172.253 160.015 172.205 160.015H172.197ZM181.552 158.271C181.179 158.271 180.846 158.001 180.775 157.621C180.696 157.193 180.981 156.773 181.409 156.693L186.087 155.821C186.523 155.742 186.935 156.027 187.014 156.455C187.094 156.884 186.808 157.304 186.38 157.383L181.703 158.255C181.655 158.263 181.608 158.271 181.56 158.271H181.552ZM190.907 156.527C190.534 156.527 190.201 156.257 190.13 155.877C190.051 155.449 190.336 155.028 190.764 154.949L195.441 154.077C195.877 154.006 196.29 154.283 196.369 154.711C196.448 155.139 196.163 155.56 195.735 155.639L191.057 156.511C191.01 156.519 190.962 156.527 190.915 156.527H190.907ZM200.253 154.783C199.881 154.783 199.548 154.513 199.477 154.133C199.397 153.705 199.683 153.284 200.111 153.205L204.788 152.333C205.216 152.262 205.636 152.539 205.716 152.967C205.795 153.395 205.51 153.816 205.081 153.895L200.404 154.767C200.357 154.775 200.309 154.783 200.261 154.783H200.253ZM209.608 153.039C209.236 153.039 208.903 152.769 208.831 152.389C208.752 151.96 209.037 151.54 209.465 151.461L214.143 150.589C214.579 150.518 214.991 150.795 215.07 151.223C215.15 151.651 214.864 152.071 214.436 152.151L209.759 153.023C209.711 153.031 209.664 153.039 209.616 153.039H209.608ZM155.914 151.54C155.565 151.54 155.248 151.31 155.153 150.962L153.892 146.371C153.773 145.951 154.027 145.515 154.447 145.396C154.867 145.277 155.303 145.531 155.422 145.951L156.683 150.541C156.802 150.962 156.548 151.398 156.128 151.517C156.057 151.532 155.985 151.548 155.914 151.548V151.54ZM218.955 151.287C218.582 151.287 218.249 151.017 218.178 150.637C218.099 150.208 218.384 149.788 218.812 149.709L223.49 148.837C223.926 148.766 224.338 149.043 224.417 149.471C224.496 149.899 224.211 150.319 223.783 150.399L219.106 151.271C219.058 151.279 219.01 151.287 218.963 151.287H218.955ZM228.31 149.543C227.937 149.543 227.604 149.273 227.533 148.892C227.453 148.464 227.739 148.044 228.167 147.965L232.844 147.093C233.28 147.022 233.692 147.299 233.772 147.727C233.851 148.155 233.566 148.575 233.138 148.655L228.46 149.527C228.413 149.535 228.365 149.543 228.318 149.543H228.31ZM237.664 147.798C237.292 147.798 236.959 147.529 236.887 147.148C236.808 146.72 237.093 146.3 237.522 146.221L242.199 145.349C242.635 145.277 243.047 145.555 243.126 145.983C243.206 146.411 242.92 146.831 242.492 146.911L237.815 147.783C237.767 147.791 237.72 147.798 237.672 147.798H237.664ZM245.267 143.755C244.839 143.755 244.482 143.414 244.474 142.978C244.474 142.741 244.427 142.503 244.347 142.273L243.103 138.69C242.96 138.277 243.174 137.825 243.594 137.683C244.006 137.532 244.458 137.754 244.601 138.174L245.846 141.758C245.98 142.146 246.052 142.542 246.06 142.947C246.068 143.383 245.727 143.747 245.283 143.755H245.267ZM153.393 142.368C153.044 142.368 152.727 142.138 152.632 141.789L151.371 137.199C151.252 136.779 151.506 136.343 151.926 136.224C152.346 136.105 152.782 136.359 152.901 136.779L154.162 141.369C154.281 141.789 154.027 142.225 153.607 142.344C153.536 142.36 153.464 142.376 153.393 142.376V142.368ZM242.286 134.734C241.961 134.734 241.652 134.527 241.541 134.202L239.979 129.707C239.836 129.295 240.051 128.843 240.471 128.701C240.883 128.558 241.335 128.772 241.477 129.192L243.039 133.687C243.182 134.099 242.968 134.551 242.548 134.694C242.461 134.726 242.373 134.742 242.286 134.742V134.734ZM150.864 133.196C150.515 133.196 150.198 132.966 150.103 132.617L148.842 128.035C148.723 127.615 148.977 127.179 149.397 127.06C149.818 126.941 150.254 127.194 150.372 127.615L151.633 132.197C151.752 132.617 151.498 133.053 151.078 133.172C151.007 133.188 150.935 133.204 150.864 133.204V133.196ZM239.163 125.752C238.838 125.752 238.528 125.545 238.417 125.22L236.856 120.725C236.713 120.313 236.927 119.861 237.347 119.719C237.759 119.568 238.211 119.79 238.354 120.21L239.916 124.705C240.058 125.117 239.844 125.569 239.424 125.712C239.337 125.744 239.25 125.759 239.163 125.759V125.752ZM148.343 124.023C147.994 124.023 147.677 123.793 147.582 123.445L146.321 118.862C146.202 118.442 146.456 118.006 146.876 117.887C147.297 117.768 147.733 118.022 147.851 118.442L149.112 123.024C149.231 123.445 148.977 123.881 148.557 124C148.486 124.015 148.414 124.031 148.343 124.031V124.023ZM236.039 116.762C235.714 116.762 235.405 116.555 235.294 116.23L233.732 111.735C233.589 111.323 233.803 110.871 234.224 110.729C234.636 110.586 235.088 110.8 235.23 111.22L236.792 115.715C236.935 116.127 236.721 116.579 236.301 116.722C236.213 116.754 236.126 116.769 236.039 116.769V116.762ZM145.814 114.851C145.465 114.851 145.148 114.621 145.053 114.272L143.792 109.682C143.674 109.262 143.927 108.826 144.347 108.707C144.768 108.588 145.204 108.842 145.323 109.262L146.583 113.852C146.702 114.272 146.448 114.708 146.028 114.827C145.957 114.843 145.885 114.859 145.814 114.859V114.851ZM232.924 107.779C232.598 107.779 232.289 107.573 232.178 107.248L230.617 102.753C230.474 102.341 230.688 101.889 231.108 101.746C231.52 101.604 231.972 101.818 232.115 102.238L233.677 106.733C233.819 107.145 233.605 107.597 233.185 107.74C233.098 107.772 233.011 107.787 232.924 107.787V107.779ZM143.293 105.679C142.944 105.679 142.627 105.449 142.532 105.1L141.271 100.51C141.153 100.09 141.406 99.6536 141.826 99.5347C142.247 99.4157 142.683 99.6694 142.802 100.09L144.062 104.68C144.181 105.1 143.927 105.536 143.507 105.655C143.436 105.671 143.364 105.687 143.293 105.687V105.679ZM229.8 98.7894C229.475 98.7894 229.166 98.5833 229.055 98.2583L227.493 93.7633C227.35 93.3511 227.564 92.8992 227.985 92.7565C228.397 92.6138 228.849 92.8278 228.991 93.248L230.553 97.743C230.696 98.1552 230.482 98.6071 230.062 98.7498C229.974 98.7815 229.887 98.7974 229.8 98.7974V98.7894ZM140.764 96.5063C140.415 96.5063 140.098 96.2764 140.003 95.9275L138.743 91.3374C138.624 90.9173 138.877 90.4812 139.297 90.3623C139.718 90.2434 140.154 90.4971 140.273 90.9172L141.533 95.5074C141.652 95.9276 141.398 96.3636 140.978 96.4825C140.907 96.4983 140.835 96.5142 140.764 96.5142V96.5063ZM226.676 89.8074C226.351 89.8074 226.042 89.6013 225.931 89.2762L224.37 84.7812C224.227 84.369 224.441 83.9171 224.861 83.7744C225.273 83.6317 225.725 83.8457 225.868 84.2659L227.43 88.7609C227.572 89.1732 227.358 89.625 226.938 89.7677C226.851 89.7994 226.764 89.8153 226.676 89.8153V89.8074ZM138.243 87.3339C137.894 87.3339 137.577 87.104 137.482 86.7552L136.222 82.173C136.103 81.7528 136.356 81.3168 136.776 81.1979C137.197 81.079 137.633 81.3327 137.752 81.7528L139.012 86.335C139.131 86.7552 138.877 87.1912 138.457 87.3102C138.386 87.326 138.314 87.3419 138.243 87.3419V87.3339ZM223.553 80.8174C223.228 80.8174 222.919 80.6113 222.808 80.2862L221.246 75.7912C221.103 75.379 221.317 74.9271 221.738 74.7844C222.15 74.6417 222.602 74.8557 222.744 75.2759L224.306 79.7709C224.449 80.1832 224.235 80.635 223.815 80.7777C223.727 80.8094 223.64 80.8253 223.553 80.8253V80.8174ZM135.714 78.1616C135.365 78.1616 135.048 77.9317 134.953 77.5829L133.693 72.9927C133.574 72.5726 133.827 72.1365 134.248 72.0176C134.668 71.8987 135.104 72.1524 135.223 72.5726L136.483 77.1627C136.602 77.5829 136.348 78.0189 135.928 78.1378C135.857 78.1537 135.785 78.1695 135.714 78.1695V78.1616ZM220.429 71.8274C220.104 71.8274 219.795 71.6212 219.684 71.2962L218.123 66.8012C217.98 66.389 218.194 65.9371 218.614 65.7944C219.026 65.6517 219.478 65.8657 219.621 66.2859L221.183 70.7809C221.325 71.1932 221.111 71.645 220.691 71.7877C220.604 71.8194 220.517 71.8353 220.429 71.8353V71.8274ZM133.193 68.9893C132.844 68.9893 132.527 68.7594 132.432 68.4105L131.172 63.8204C131.053 63.4002 131.306 62.9642 131.727 62.8453C132.147 62.7264 132.583 62.9801 132.702 63.4002L133.962 67.9904C134.081 68.4105 133.827 68.8466 133.407 68.9655C133.336 68.9813 133.264 68.9972 133.193 68.9972V68.9893ZM217.306 62.8453C216.981 62.8453 216.672 62.6392 216.561 62.3141L214.999 57.8191C214.856 57.4069 215.07 56.955 215.491 56.8123C215.903 56.6696 216.355 56.8837 216.497 57.3038L218.059 61.7988C218.202 62.2111 217.988 62.663 217.568 62.8057C217.48 62.8374 217.393 62.8532 217.306 62.8532V62.8453ZM130.664 59.8169C130.315 59.8169 129.998 59.587 129.903 59.2382L128.643 54.6481C128.524 54.2279 128.777 53.7919 129.198 53.673C129.618 53.554 130.054 53.8077 130.173 54.2279L131.433 58.818C131.552 59.2382 131.298 59.6742 130.878 59.7931C130.807 59.809 130.736 59.8248 130.664 59.8248V59.8169ZM214.19 53.8553C213.865 53.8553 213.556 53.6492 213.445 53.3241L211.883 48.8291C211.741 48.4169 211.955 47.965 212.375 47.8223C212.787 47.6796 213.239 47.8937 213.382 48.3138L214.944 52.8088C215.086 53.2211 214.872 53.673 214.452 53.8157C214.365 53.8474 214.278 53.8632 214.19 53.8632V53.8553ZM130.109 52.3252C129.919 52.3252 129.721 52.2539 129.57 52.1191C129.245 51.8258 129.229 51.3184 129.523 51.0013C130.204 50.264 131.124 49.828 132.131 49.7646L134.509 49.5664C134.961 49.5268 135.326 49.8518 135.365 50.2878C135.405 50.7239 135.08 51.1044 134.644 51.144L132.25 51.3422C131.639 51.3819 131.092 51.6435 130.696 52.0795C130.537 52.246 130.323 52.3332 130.109 52.3332V52.3252ZM139.313 50.7476C138.909 50.7476 138.56 50.4385 138.521 50.0183C138.481 49.5823 138.806 49.2017 139.242 49.1621L143.983 48.7657C144.419 48.7102 144.799 49.0511 144.839 49.4871C144.879 49.9232 144.554 50.3037 144.117 50.3433L139.377 50.7397C139.377 50.7397 139.329 50.7397 139.313 50.7397V50.7476ZM148.795 49.9549C148.391 49.9549 148.042 49.6457 148.002 49.2255C147.962 48.7895 148.287 48.409 148.723 48.3693L153.464 47.9729C153.908 47.9254 154.281 48.2583 154.32 48.6944C154.36 49.1304 154.035 49.5109 153.599 49.5506L148.858 49.9469C148.858 49.9469 148.811 49.9469 148.795 49.9469V49.9549ZM158.276 49.17C157.872 49.17 157.523 48.8608 157.484 48.4407C157.444 48.0047 157.769 47.6241 158.205 47.5845L162.946 47.1881C163.39 47.1485 163.762 47.4735 163.802 47.9095C163.842 48.3455 163.517 48.7261 163.081 48.7657L158.34 49.1621C158.34 49.1621 158.292 49.1621 158.276 49.1621V49.17ZM167.758 48.3773C167.354 48.3773 167.005 48.0681 166.965 47.6479C166.925 47.2119 167.251 46.8314 167.687 46.7917L172.427 46.3953C172.871 46.3478 173.244 46.6807 173.283 47.1168C173.323 47.5528 172.998 47.9333 172.562 47.9729L167.821 48.3693C167.821 48.3693 167.774 48.3693 167.758 48.3693V48.3773ZM177.239 47.5924C176.835 47.5924 176.486 47.2832 176.447 46.8631C176.407 46.427 176.732 46.0465 177.168 46.0069L181.909 45.6105C182.361 45.5709 182.725 45.8959 182.765 46.3319C182.805 46.7679 182.48 47.1485 182.044 47.1881L177.303 47.5845C177.303 47.5845 177.255 47.5845 177.239 47.5845V47.5924ZM186.721 46.8076C186.317 46.8076 185.968 46.4984 185.928 46.0782C185.889 45.6422 186.214 45.2617 186.65 45.222L191.39 44.8257C191.826 44.7702 192.207 45.111 192.247 45.5471C192.286 45.9831 191.961 46.3636 191.525 46.4033L186.784 46.7996C186.784 46.7996 186.737 46.7996 186.721 46.7996V46.8076ZM196.195 46.0148C195.79 46.0148 195.441 45.7056 195.402 45.2855C195.362 44.8494 195.687 44.4689 196.123 44.4293L200.864 44.0329C201.308 43.9853 201.68 44.3183 201.72 44.7543C201.76 45.1903 201.435 45.5709 200.999 45.6105L196.258 46.0069C196.258 46.0069 196.21 46.0069 196.195 46.0069V46.0148ZM210.361 45.333C210.234 45.333 210.108 45.3013 209.989 45.2379C209.656 45.0635 209.283 44.9684 208.911 44.9684H208.752L205.747 45.222C205.303 45.2617 204.931 44.9366 204.891 44.5006C204.852 44.0646 205.177 43.6841 205.613 43.6444L208.649 43.3907C208.752 43.3907 208.831 43.3828 208.911 43.3828C209.545 43.3828 210.179 43.5414 210.742 43.8426C211.13 44.0487 211.273 44.5323 211.067 44.9129C210.924 45.1824 210.647 45.333 210.369 45.333H210.361Z" fill="#101619"/>
<path d="M194.932 69L155.174 73.3154C154.326 73.4061 153.819 74.0022 154.06 74.6631L157.099 83.242C157.327 83.9029 158.213 84.3436 159.061 84.2528L198.92 79.6264C199.718 79.5357 200.187 78.9396 199.946 78.3046L196.819 69.9978C196.578 69.3629 195.742 68.9352 194.945 69.013L194.932 69Z" fill="#EBF8FF"/>
<path d="M201.136 85.5117L161.213 90.3195C160.365 90.4232 159.858 91.0452 160.099 91.7062L163.188 100.441C163.429 101.101 164.315 101.555 165.164 101.451L205.187 96.3196C205.998 96.2159 206.454 95.6068 206.213 94.9589L203.035 86.5096C202.794 85.8746 201.946 85.434 201.148 85.5247L201.136 85.5117Z" fill="#EBF8FF"/>
<path d="M207.442 102.292L167.355 107.619C166.494 107.735 166 108.37 166.241 109.044L169.393 117.921C169.634 118.595 170.52 119.049 171.381 118.932L211.569 113.269C212.38 113.152 212.836 112.53 212.582 111.869L209.341 103.277C209.1 102.629 208.239 102.189 207.442 102.292Z" fill="#EBF8FF"/>
<path d="M213.861 119.347L173.622 125.204C172.761 125.334 172.268 125.982 172.508 126.669L175.712 135.701C175.952 136.388 176.851 136.842 177.712 136.712L218.065 130.505C218.875 130.375 219.331 129.74 219.078 129.066L215.786 120.332C215.533 119.671 214.684 119.23 213.861 119.347Z" fill="#EBF8FF"/>
<path d="M186.979 127.718L186.897 127.737C185.968 128.199 184.939 128.023 184.054 127.44L165.73 114.719C164.066 113.548 163.494 111.107 164.493 109.24C165.498 107.395 167.63 106.826 169.272 108.001L183.83 118.241L196.994 74.1173C197.534 72.3156 199.284 71.4838 200.897 72.3362C202.475 73.1309 203.384 75.251 202.843 77.0527L188.831 125.43C188.528 126.471 187.836 127.317 186.963 127.743L187.004 127.734L186.979 127.718Z" fill="#00A800"/>
<path d="M204.001 44.498C197.501 43.4963 203.001 43.9978 194.001 43.9959C194.001 43.9959 208.499 44.4136 213.998 54.5007C216.997 60.0015 217.498 53.5016 216.999 49.0015C216.501 44.5014 217 49.0015 216.5 45.5013L204.001 44.498Z" fill="#818F98"/>
<path d="M202.717 43.0877C202.717 43.0877 199.832 44.0594 198.641 44.0028C197.455 43.9368 192.951 44.0028 192.951 44.0028C192.951 44.0028 193.182 42.0217 195.171 42.2481C197.166 42.4745 198.103 40.8047 198.103 40.8047L202.717 43.0877Z" fill="#D0B863"/>
<path d="M231.372 49.8195C231.372 49.8195 241.602 66.3654 240.961 67.7207C240.319 69.0761 238.828 65.53 238.828 65.53C238.828 65.53 237.276 68.4453 236.175 66.6722C235.074 64.9077 233.097 64.7628 231.363 61.3786C229.638 57.9944 226.828 51.7119 224.687 50.1179C222.554 48.5153 219.268 45.4721 217.308 45.4891C215.358 45.5062 195.494 47.6032 190.353 36.8113C190.353 36.8113 189.867 35.8054 189.737 36.2658C189.538 36.9988 188.749 33.6061 188.749 33.6061L188.81 35.1491C188.81 35.294 188.627 35.3366 188.567 35.2172C188.22 34.5609 187.665 33.4357 187.656 32.9157C187.656 32.3531 187.379 32.8389 187.084 32.6088C186.963 32.5065 186.911 32.3445 186.893 32.1911C186.807 31.6455 186.954 31.0659 186.833 30.5288C186.729 30.077 186.443 29.6764 186.061 29.4121C185.983 29.361 185.914 29.3098 185.862 29.2417C185.827 29.1905 185.818 29.1223 185.801 29.0626C185.697 28.5086 185.68 27.9374 185.766 27.3748C185.801 27.1106 185.87 26.8378 185.836 26.5735C185.801 26.2837 185.662 26.0109 185.576 25.7381C185.402 25.184 185.428 24.5788 185.576 24.0162C185.775 23.2064 186.174 22.4903 186.347 21.672C186.451 21.152 186.486 20.615 186.538 20.0865C186.642 19.1317 187.05 18.6203 188.012 18.4072C188.159 18.3731 188.298 18.356 188.454 18.3304C191.263 17.9298 187.396 13.8978 187.396 13.8978C187.396 13.8978 184.292 9.5418 189.364 3.84751C194.029 -1.38647 206.653 -2.3412 211.994 8.57002C212.904 10.4369 214.413 11.9627 216.294 12.8493C218.574 13.9233 221.505 15.8072 222.875 18.7652C224.158 21.5527 224.964 23.0018 225.432 23.7349C225.58 23.9651 225.346 24.2464 225.094 24.1441L224.453 23.9054L226.412 28.2954C226.516 28.5256 226.282 28.7643 226.039 28.662L224.99 28.2102C224.99 28.2102 229.846 35.0979 229.49 36.871C229.256 38.0303 228.467 36.7943 228.467 36.7943C228.467 36.7943 230.886 41.423 232.256 42.6761C233.626 43.9292 237.397 47.3645 236.981 48.4641C236.565 49.5638 229.898 45.4806 229.898 45.4806L233.002 50.689L231.363 49.828L231.372 49.8195Z" fill="#2A4259"/>
<path d="M188.598 16.1964C190.263 17.6612 196.813 18.6737 199.881 18.9968L216.093 12.6418C215.18 12.4264 213.206 11.0132 211.492 7.58004C208.817 2.21918 203.167 -0.712772 196.923 0.148829C190.679 1.01043 187.938 4.42865 186.843 7.26298C185.753 10.0838 186.516 14.3654 188.598 16.1964Z" fill="#3B5B7C"/>
<path d="M229.897 45.4647C226.031 45.4733 222.458 44.4077 219.276 42.4983C215.044 40.4959 212.185 38.4207 208.682 36.1958C206.558 34.8489 204.196 33.007 202.497 31.1572C200.295 28.7619 198.976 24.8869 198.256 21.767C197.727 19.4654 198.217 16.2005 200.696 15.0071C200.8 14.956 201.277 14.6832 201.373 14.7429C204.338 16.4733 202.56 20.8037 203.687 21.767C204.19 22.1846 206.289 27.9983 211.811 29.2599C215.002 29.993 232.793 45.4477 229.906 45.4562L229.897 45.4647Z" fill="#00144A"/>
<path d="M223.878 37.5514C222.788 38.6232 219.155 34.7651 217.847 33.3367L205.763 25.9891L201.885 17.4091L211.486 12.7227C213.073 12.884 216.49 13.2843 217.462 13.5942C218.677 13.9816 220.812 15.5963 221.961 16.9846C223.111 18.3729 225.828 23.9935 225.729 24.3858C225.649 24.6997 224.914 24.2551 224.557 23.9935C225.247 25.4314 226.621 28.415 226.601 28.8464C226.581 29.2778 225.612 28.6666 225.13 28.3071C225.621 28.8953 226.895 30.6403 228.072 32.9148C229.543 35.7578 229.667 36.4441 229.393 37.1794C229.174 37.7676 228.531 37.1961 228.237 36.8368C227.147 36.7177 224.75 36.6939 223.878 37.5514Z" fill="#3B5B7C"/>
<path fill-rule="evenodd" clip-rule="evenodd" d="M209.235 12.4863C208.42 13.3132 207.302 13.782 206.131 13.8161C202.732 13.9184 196.863 14.9328 199.811 21.1556C203.851 29.697 213.258 38.1362 229.905 45.4672C229.905 45.4672 236.425 49.7805 236.988 48.4507C236.988 47.2232 236.13 46.294 234.396 44.4016C233.373 43.2849 232.038 41.8272 230.399 39.7814C229.454 38.3237 227.919 36.0136 227.286 35.2464C226.385 34.1468 219.44 26.5516 222.076 31.3849C222.102 31.4275 222.128 31.4616 222.154 31.5042C222.934 32.7658 224.261 34.9225 222.908 35.5874C221.885 36.0989 220.749 35.3317 219.917 34.7009C217.931 32.8852 215.798 31.095 213.761 29.3902C206.669 23.4487 200.738 18.4875 206.131 16.4416C209.877 16.1433 211.021 15.1033 211.905 14.302C212.773 13.5092 213.397 12.9466 216.006 13.5348C218.009 13.9866 218.85 14.2594 220.081 15.1886C218.746 13.9269 217.767 13.4496 216.769 12.9637C215.937 12.5545 215.096 12.1453 214.012 11.2673C212.53 10.7644 210.544 11.148 209.235 12.4778V12.4863Z" fill="#3B5B7C"/>
<path d="M185.585 25.7224C185.412 25.1683 185.438 24.5631 185.585 24.0005C185.785 23.1907 186.184 22.4746 186.357 21.6563C186.461 21.1363 186.496 20.5993 186.548 20.0707C186.652 19.116 187.059 18.6045 188.022 18.3914C188.1 18.3744 188.178 18.3573 188.256 18.3488C188.273 18.3744 188.36 18.3829 188.473 18.3744L188.984 15.9449L193.779 12.7057C193.995 12.7568 194.212 12.7909 194.438 12.7909C195.799 12.7909 196.926 11.7765 197.091 10.4723L202.406 6.875C202.406 6.875 195.209 18.4937 191.412 18.8091C190.623 18.8773 190.033 18.9114 189.591 18.9114C189.088 18.9114 188.741 19.3973 188.88 19.8747C191.412 21.1363 190.848 23.9323 191.273 26.7624C191.403 27.6404 191.785 28.5099 192.114 29.3282C192.574 30.4705 193.12 31.5787 193.779 32.6272C197.316 38.2533 199.527 35.2612 203.177 37.9208C204.668 39.0034 205.241 41.484 206.975 42.1318C208.527 42.72 210.486 43.3423 212.142 43.3935C215.194 43.4872 218.454 41.3561 220.986 43.3935C225.555 46.0275 227.705 50.1959 230.098 54.6968C231.442 57.22 232.89 60.8599 234.953 62.9484C235.491 63.4854 236.263 62.113 235.777 60.5104C236.679 61.3884 238.205 63.852 239.453 63.7923C240.494 65.8211 241.153 67.3555 240.971 67.7306C240.329 69.0859 238.838 65.5398 238.838 65.5398C238.838 65.5398 238.075 70.3902 236.15 70.9613C234.216 71.5239 231.823 65.7103 230.098 62.3261C228.373 58.9419 226.292 55.1656 223.83 50.8949C222.13 48.5678 219.295 45.4905 217.336 45.5075C215.385 45.5246 195.521 47.6215 190.38 36.8297C190.38 36.8297 189.894 35.8238 189.764 36.2841C189.565 37.0172 188.776 33.633 188.776 33.633L188.837 35.1759C188.837 35.3209 188.655 35.3635 188.594 35.2441C188.247 34.5878 187.692 33.4626 187.684 32.9426C187.684 32.38 187.397 32.8658 187.103 32.6357C186.981 32.5334 186.929 32.3714 186.903 32.218C186.817 31.6724 186.964 31.0928 186.843 30.5557C186.747 30.1039 186.452 29.7033 186.071 29.439C185.993 29.3879 185.923 29.3367 185.871 29.2686C185.837 29.2174 185.819 29.1492 185.811 29.0895C185.707 28.5355 185.689 27.9643 185.776 27.4017C185.811 27.1375 185.88 26.8647 185.845 26.6004C185.811 26.3106 185.672 26.0378 185.585 25.765H185.611L185.585 25.7224Z" fill="#00144A"/>
<path d="M190.051 14.3065L193.12 12.4311C193.51 12.6442 193.952 12.7721 194.429 12.7721C195.912 12.7721 197.099 11.5872 197.099 10.121V10.0273L202.397 6.84766C202.397 6.84766 197.464 10.3938 197.281 11.0076C197.099 11.6213 196.31 13.3006 194.377 13.0619C192.452 12.8318 192.738 14.7412 192.738 14.7412L190.033 14.298L190.051 14.3065Z" fill="#00144A"/>
<path d="M189.659 14.3596C189.659 14.3596 192.85 13.8652 192.746 14.7517C192.642 15.6382 191.463 19.8067 184.812 19.1332L186.989 17.4198L184.058 18.4854C184.058 18.4854 183.486 17.3772 185.931 15.2461C188.402 12.7911 188.471 12.74 188.783 13.5071C189.096 14.2743 189.65 14.3596 189.65 14.3596H189.659Z" fill="#D0B863"/>
</svg>
