<svg width="128" height="128" viewBox="0 0 128 128" fill="none" xmlns="http://www.w3.org/2000/svg">
<circle cx="64" cy="64" r="64" fill="#EBF8FF"/>
<path fill-rule="evenodd" clip-rule="evenodd" d="M3.56396 42.8891C8.02882 30.1066 16.4344 19.1732 27.3247 11.5449C37.2873 13.5615 44.7872 22.3672 44.7872 32.9245C44.7872 44.9718 35.021 54.738 22.9737 54.738C14.5165 54.738 7.18348 49.9252 3.56396 42.8891Z" fill="#B8E6FF"/>
<path d="M18.9415 38.2823C18.8665 38.5005 17.2066 37.5427 15.6217 38.2823C13.7369 39.1583 13.546 41.6907 13.1302 41.6021C12.653 41.5032 11.9816 37.9551 13.8698 36.7145C15.908 35.3716 19.0471 37.9722 18.9415 38.2823Z" fill="#9EDDFF"/>
<path d="M28.4371 22.0092C28.3621 22.2273 26.7022 21.273 25.1173 22.0092C23.2325 22.8885 23.0416 25.4175 22.6258 25.3323C22.1486 25.2301 21.4772 21.682 23.3654 20.4413C25.4036 19.1019 28.5427 21.7024 28.4371 22.0092Z" fill="#9EDDFF"/>
<path d="M34.8995 34.5558C34.8245 34.7705 33.1646 33.8161 31.5797 34.5558C29.6949 35.4317 29.504 37.9641 29.0882 37.8755C28.611 37.7732 27.9396 34.2252 29.8278 32.9879C31.866 31.645 34.9949 34.2456 34.8995 34.5558Z" fill="#9EDDFF"/>
<path fill-rule="evenodd" clip-rule="evenodd" d="M3.56348 42.889C3.74664 42.3646 3.93644 41.8433 4.13277 41.3252C6.77439 44.1754 10.1465 46.2857 13.9145 47.4062C18.8766 48.8817 24.2017 48.5443 28.9379 46.4545C33.6742 44.3646 37.5128 40.6584 39.7676 35.9984C42.0224 31.3384 42.5464 26.0284 41.2459 21.0176C42.971 23.667 44.0996 26.6597 44.5535 29.7885C45.0075 32.9173 44.7758 36.1073 43.8747 39.1377C42.9736 42.1682 41.4245 44.9665 39.3348 47.3389C37.245 49.7113 34.6646 51.6011 31.7721 52.8774C28.8796 54.1537 25.7443 54.786 22.5832 54.7306C19.4221 54.6751 16.3109 53.9331 13.465 52.5561C10.6191 51.1791 8.10654 49.1999 6.10133 46.7556C5.11786 45.5568 4.26796 44.2602 3.56348 42.889Z" fill="#9EDDFF"/>
<path fill-rule="evenodd" clip-rule="evenodd" d="M127.999 64.3595C128 64.2397 128 64.1198 128 63.9998C128 62.5011 127.949 61.0144 127.847 59.5414C127.415 59.7019 126.984 59.8631 126.552 60.0243C121.521 61.9031 116.504 63.7765 111.208 64.4338C109.16 64.6879 106.698 64.7842 104.043 64.888C93.2121 65.3115 79.1866 65.86 77.1379 77.7596C74.9116 90.6907 88.6524 103.329 98.7434 108.895C101.112 110.202 103.622 111.34 106.233 112.088C107.069 111.354 107.885 110.598 108.682 109.821C98.6572 107.667 89.277 98.3861 84.5527 90.2119C81.9569 85.7206 79.4967 78.9709 83.7967 74.6882C88.0436 70.4584 95.3922 70.1342 100.97 69.9916C107.354 69.8285 118.377 68.1479 127.999 64.3595ZM125.306 45.5669C124.121 46.0691 122.862 46.2973 121.555 46.0657C118.742 45.5671 116.002 44.2344 114.583 42.9536C113.851 42.2932 113.468 44.3621 114.384 44.6323C115.525 44.9688 116.626 45.427 117.717 45.8809C120.339 46.9721 122.9 48.0381 125.807 47.3263C125.648 46.7364 125.481 46.1499 125.306 45.5669Z" fill="#B8E6FF"/>
<path fill-rule="evenodd" clip-rule="evenodd" d="M127.999 64.3599C128 64.2401 128 64.1202 128 64.0002C128 63.5563 127.996 63.1134 127.987 62.6717C118.301 66.5352 107.132 68.2457 100.689 68.4104C95.1106 68.553 87.7619 68.8772 83.5151 73.107C81.0385 75.5736 80.8044 78.8586 81.5471 82.0591C81.2235 79.382 81.7273 76.7496 83.7966 74.6886C88.0435 70.4589 95.3921 70.1346 100.97 69.992C107.354 69.8289 118.377 68.1484 127.999 64.3599ZM107.538 110.909C104.355 110.209 101.306 108.883 98.4618 107.314C90.1474 102.728 79.3552 93.3404 77.0581 82.944C78.5408 93.962 90.0092 104.078 98.7433 108.896C101.112 110.202 103.622 111.34 106.233 112.089C106.673 111.702 107.109 111.308 107.538 110.909ZM125.37 45.7815C125.522 46.2939 125.667 46.809 125.807 47.3267C122.9 48.0385 120.339 46.9725 117.716 45.8813C116.626 45.4274 115.525 44.9692 114.384 44.6327C113.765 44.45 113.739 43.4453 114.014 43.0176C114.042 43.0307 114.071 43.0419 114.102 43.051C114.436 43.1493 114.765 43.258 115.093 43.374C116.6 44.5157 119.049 45.6219 121.555 46.0662C122.446 46.224 123.315 46.1682 124.153 45.9575C124.552 45.9309 124.958 45.8739 125.37 45.7815Z" fill="#9EDDFF"/>
<path d="M60.0095 16.107C60.801 15.3155 60.801 14.0322 60.0095 13.2406C59.218 12.4491 57.9347 12.4491 57.1431 13.2406C56.3516 14.0322 56.3516 15.3155 57.1431 16.107C57.9347 16.8985 59.218 16.8985 60.0095 16.107Z" fill="#D1EFFF"/>
<path d="M99.0809 88.0421C99.5086 87.6143 99.5086 86.9208 99.0809 86.4931C98.6531 86.0653 97.9596 86.0653 97.5318 86.4931C97.1041 86.9208 97.1041 87.6143 97.5318 88.0421C97.9596 88.4698 98.6531 88.4698 99.0809 88.0421Z" fill="#B8E6FF"/>
<path d="M78.2522 112.4C78.7052 111.947 78.7052 111.213 78.2522 110.76C77.7992 110.307 77.0647 110.307 76.6117 110.76C76.1587 111.213 76.1587 111.947 76.6117 112.4C77.0647 112.853 77.7992 112.853 78.2522 112.4Z" fill="#D1EFFF"/>
<path fill-rule="evenodd" clip-rule="evenodd" d="M51.36 32.7314C51.6419 32.4063 52.1339 32.3714 52.4589 32.6533L55.196 35.0274C55.521 35.3093 55.556 35.8013 55.274 36.1263C54.9921 36.4514 54.5001 36.4863 54.1751 36.2044L51.438 33.8303C51.113 33.5484 51.078 33.0564 51.36 32.7314Z" fill="#9EDDFF"/>
<path fill-rule="evenodd" clip-rule="evenodd" d="M63.8226 27.5261C63.3982 27.4549 62.9965 27.7411 62.9253 28.1654L62.1367 32.8623C62.0655 33.2866 62.3517 33.6883 62.7761 33.7595C63.2004 33.8308 63.6021 33.5445 63.6733 33.1202L64.4619 28.4234C64.5331 27.9991 64.2469 27.5973 63.8226 27.5261Z" fill="#9EDDFF"/>
<path fill-rule="evenodd" clip-rule="evenodd" d="M54.0214 26.9873C54.4112 26.8052 54.8748 26.9736 55.0569 27.3635L57.0318 31.5925C57.2139 31.9823 57.0454 32.446 56.6556 32.628C56.2657 32.8101 55.8021 32.6416 55.6201 32.2518L53.6451 28.0228C53.4631 27.6329 53.6315 27.1693 54.0214 26.9873Z" fill="#B8E6FF"/>
<path d="M52.2157 63.7706L48.0212 67.5397C49.2413 60.6828 52.5407 51.0201 55.7848 44.9264C57.6831 41.3608 57.6941 37.2657 59.9022 38.6622C62.6995 40.4314 63.703 45.6178 61.7086 50.0081C59.4381 55.0065 55.1549 60.3314 52.2157 63.7706Z" fill="#A9B4BE"/>
<path d="M21.0281 61.0866L13.1697 68.7689L26.0288 74.3865L39.0276 63.6318L21.0281 61.0866Z" fill="#005DC9"/>
<path d="M18.1505 91.8305L22.22 93.9791L28.0555 70.3654L16.5416 68.1119C13.4903 67.5146 10.7124 69.9965 10.9633 73.0956L11.6865 82.0265C12.0232 86.1848 14.4613 89.8826 18.1505 91.8305Z" fill="#0070F2"/>
<path d="M34.3347 102.497C39.5595 101.655 42.3198 94.5843 43.0468 91.1543L35.4686 91.9871L28.1349 97.9011C28.0245 99.7839 29.1099 103.339 34.3347 102.497Z" fill="#D5DADD"/>
<path fill-rule="evenodd" clip-rule="evenodd" d="M13.429 103.23C11.9758 101.359 10.6242 99.4057 9.38233 97.3778C9.47474 96.5447 9.66024 95.6099 9.95738 94.5653C11.1425 90.3989 15.7433 85.0946 20.8678 92.5673C21.8372 91.6475 23.8229 88.5802 24.0107 83.6696C16.9641 88.2481 7.18289 89.6957 5.41634 86.4523C4.14246 84.1135 8.86768 80.9679 14.7794 77.0325C18.0655 74.8449 21.7183 72.4132 24.9111 69.7404C30.4755 65.0822 38.8792 62.0766 44.9896 59.8912C47.4629 59.0066 49.5605 58.2564 50.942 57.5854C55.6193 67.9268 56.1759 91.3741 34.9231 94.7355C31.5545 101.789 23.7286 112.535 15.5641 102.015C15.0771 102.652 14.2866 103.091 13.429 103.23Z" fill="white"/>
<path fill-rule="evenodd" clip-rule="evenodd" d="M51.5767 59.1382C49.1962 64.5791 44.9968 69.057 42.0432 71.2779C39.416 73.1478 32.5039 76.0005 25.8736 72.4523C25.0779 72.0265 24.2509 71.5233 23.4179 70.9478C23.9243 70.5506 24.423 70.1477 24.9109 69.7393C30.4753 65.0811 38.879 62.0755 44.9894 59.8901C47.4627 59.0055 49.5603 58.2553 50.9418 57.5843C51.1633 58.074 51.3756 58.5932 51.5767 59.1382Z" fill="#A9B4BE"/>
<path d="M50.8548 40.1559C61.2499 53.3698 46.7526 65.2349 40.2913 69.5238C37.5588 71.2363 30.4912 73.6784 24.0807 69.7471C16.0674 64.833 5.15836 51.3484 19.5066 36.4115C32.0189 23.3859 45.9389 33.9069 50.8548 40.1559Z" fill="white"/>
<path fill-rule="evenodd" clip-rule="evenodd" d="M34.8971 70.8203C40.7367 66.7652 53.7742 55.4489 43.797 42.0779C40.6107 37.8077 33.5779 31.4917 25.9062 31.6966C36.4574 26.8114 46.768 34.9596 50.8551 40.1549C61.2501 53.3688 46.7528 65.2339 40.2916 69.5228C38.832 70.4375 36.1355 71.5604 32.9629 71.809C33.7443 71.4925 34.4008 71.1444 34.8971 70.8203Z" fill="#D5DADD"/>
<path d="M49.6736 37.5117C58.4067 46.8029 51.3692 52.7057 48.0162 56.8497C43.8181 62.0381 37.195 67.8774 29.4823 62.6935C19.8415 56.2136 17.6074 46.5759 24.0475 38.6879C30.4462 30.8504 38.7572 25.8976 49.6736 37.5117Z" fill="#00144A"/>
<path d="M47.3099 38.7804C49.0839 40.7102 50.3755 43.5152 51.0135 46.266C51.1638 46.914 50.9502 47.5858 50.4879 48.064L49.311 49.2813C48.6784 49.9357 47.5766 49.5529 47.4546 48.6509C47.1303 46.2534 46.4523 42.6601 45.0395 40.4175C44.6663 39.8251 44.7512 38.9909 45.3345 38.6039C45.9625 38.1871 46.7998 38.2255 47.3099 38.7804Z" fill="white"/>
<path d="M36.2747 85.1767C36.5767 83.6928 36.6564 82.1694 36.6531 80.945C36.6493 79.5769 37.699 78.3747 39.0355 78.0821C43.6092 77.0806 47.6248 74.0854 50.1215 71.758C50.9348 70.9998 52.1798 71.3647 52.2046 72.4764C52.2334 73.7655 52.1386 75.5303 51.7132 77.7395C51.4684 79.0106 50.8683 80.1984 49.9217 81.0813C46.2526 84.5034 41.2893 86.3254 37.869 87.0226C36.8473 87.2309 36.0667 86.1984 36.2747 85.1767Z" fill="#CC7400"/>
<path d="M36.1082 83.9931C36.4102 82.5092 36.4899 80.9858 36.4866 79.7615C36.4828 78.3933 37.5325 77.1911 38.869 76.8985C43.4427 75.897 47.4583 72.9018 49.955 70.5744C50.7683 69.8163 52.0133 70.1812 52.0381 71.2928C52.0669 72.5819 51.9721 74.3467 51.5467 76.5559C51.3019 77.8271 50.7018 79.0148 49.7552 79.8977C46.0861 83.3198 41.1228 85.1418 37.7025 85.839C36.6808 86.0473 35.9002 85.0148 36.1082 83.9931Z" fill="#F58B00"/>
<path fill-rule="evenodd" clip-rule="evenodd" d="M29.9847 93.9649C30.0637 93.7181 30.3279 93.5821 30.5747 93.6612C32.3462 94.2286 34.2918 94.2989 35.0258 94.2632C35.2846 94.2506 35.5047 94.4502 35.5173 94.709C35.5299 94.9679 35.3303 95.1879 35.0714 95.2005C34.2604 95.24 32.1962 95.166 30.2884 94.5549C30.0416 94.4759 29.9056 94.2117 29.9847 93.9649Z" fill="#A9B4BE"/>
<path fill-rule="evenodd" clip-rule="evenodd" d="M13.7576 98.2294C14.0001 98.1382 14.2707 98.2609 14.3619 98.5034C14.7887 99.6384 15.7017 101.096 16.1097 101.686C16.257 101.9 16.2036 102.192 15.9903 102.339C15.7771 102.486 15.4849 102.433 15.3376 102.22C14.9178 101.612 13.9517 100.079 13.4835 98.8338C13.3923 98.5912 13.515 98.3206 13.7576 98.2294Z" fill="#A9B4BE"/>
<ellipse cx="21.6509" cy="62.5045" rx="4.56571" ry="5.60533" transform="rotate(-41.0635 21.6509 62.5045)" fill="#A9B4BE"/>
<ellipse cx="20.2569" cy="63.8404" rx="4.56571" ry="5.60533" transform="rotate(-41.0635 20.2569 63.8404)" fill="#D5DADD"/>
<path d="M105.73 38.1816L117.216 38.6596L109.278 45.953L99.1345 45.5774L105.73 38.1816Z" fill="#005DC9"/>
<path d="M115.742 38.7695C111.621 40.3537 106.867 45.0441 105.085 46.3705L111.402 74.0818C113.429 74.6891 118.308 72.1769 121.757 70.3441C122.883 69.7458 123.726 68.723 123.77 67.4487C123.961 61.8748 121.794 48.7962 119.583 41.1132C119.075 39.3495 117.455 38.1109 115.742 38.7695Z" fill="#0070F2"/>
<path d="M82.6843 60.4099C84.2283 56.5131 88.3763 46.5251 84.0825 47.0048C77.7319 47.7143 72.3354 44.6112 67.9176 42.4949C64.5673 40.8898 62.4911 38.1651 60.2774 39.7884C58.2657 41.2635 60.1429 45.9243 64.3619 49.156C69.8984 53.397 78.243 58.0826 82.6843 60.4099Z" fill="white"/>
<path d="M97.587 90.6737C80.5879 75.9386 80.5663 56.6837 82.6804 48.8982C87.555 48.2569 99.0611 46.3375 106.088 43.791C111.2 41.9387 115.134 52.3264 119.529 58.1329C123.925 63.9394 128.763 71.2663 125.484 72.6961C123.612 73.5122 121.934 72.1814 119.719 70.2852C116.757 67.7493 112.555 63.2571 111.073 60.9753C112.788 63.8906 113.205 67.5781 112.944 69.8222C112.817 70.9158 112.435 72.0438 112.917 73.0335C113.908 75.0679 116.556 77.4359 118.644 78.9005C119.834 79.7352 121.021 80.6562 121.648 81.9677C123.374 85.5808 123.641 90.102 120.213 91.5965C115.547 93.6309 111.49 89.6876 110.045 85.5307C107.885 84.7868 103.665 80.2585 101.824 78.0874C102.538 81.0686 105.765 82.3225 107.11 84.7471C108.456 87.1716 109.528 89.7052 109.946 91.1379C111.309 95.8082 108.491 99.5461 103.367 99.9619C99.2683 100.295 97.8059 93.9084 97.587 90.6737Z" fill="white"/>
<path d="M99.5393 60.3061C95.4803 61.9332 90.3364 62.6883 87.1581 63.068C86.4452 63.1531 85.905 63.7538 85.9579 64.4698C86.1738 67.3942 87.0675 71.348 88.3198 73.6956C88.8072 74.6092 89.666 75.2758 90.6957 75.3848C93.8843 75.7225 99.7544 74.2721 103.71 72.7086C104.977 72.2079 105.564 70.8033 105.164 69.5014L102.772 61.7195C102.366 60.3981 100.822 59.7918 99.5393 60.3061Z" fill="#00A58A"/>
<path d="M98.2971 59.4409C94.2381 61.068 89.0942 61.823 85.9159 62.2027C85.2031 62.2879 84.6628 62.8886 84.7157 63.6045C84.9317 66.529 85.8254 70.4827 87.0777 72.8304C87.565 73.744 88.4238 74.4105 89.4535 74.5196C92.6421 74.8572 98.5123 73.4068 102.468 71.8433C103.734 71.3426 104.322 69.9381 103.922 68.6362L101.53 60.8543C101.123 59.5329 99.5802 58.9266 98.2971 59.4409Z" fill="#64EDD2"/>
<path d="M109.964 44.6206C108.655 43.5601 107.372 43.358 106.076 43.7981C99.221 46.1255 88.2771 48.1666 83.1542 48.8374C82.9883 48.8592 82.8287 48.8801 82.6759 48.9001C82.5861 49.2309 80.2662 48.2378 80.5479 48.4924C82.1332 49.9251 86.4899 51.8389 89.2166 52.1202C99.6225 53.1939 106.244 49.0141 109.964 44.6206Z" fill="#A9B4BE"/>
<path fill-rule="evenodd" clip-rule="evenodd" d="M81.8494 60.2052C82.5486 69.2687 86.375 80.9537 97.5871 90.6726C97.8059 93.9073 99.2684 100.294 103.367 99.9608C108.491 99.545 111.309 95.807 109.946 91.1368C109.528 89.7041 108.456 87.1705 107.111 84.7459C106.548 83.7327 105.657 82.9238 104.758 82.108C103.705 81.1517 102.641 80.1858 102.083 78.8696L101.413 78.1677C93.3837 85.1912 84.0431 73.7036 81.8494 60.2052Z" fill="#D5DADD"/>
<path d="M94.3919 11.8399C78.4597 9.6086 73.0436 18.7327 72.3271 23.5736C70.4715 31.7205 70.5605 48.4063 85.7605 49.9746C100.96 51.5429 108.184 41.8134 109.896 36.7526C111.366 29.3781 110.324 14.0712 94.3919 11.8399Z" fill="white"/>
<path fill-rule="evenodd" clip-rule="evenodd" d="M82.5794 12.5256C85.522 11.9421 89.0365 11.9311 93.1912 12.8339C108.396 16.1378 108.421 28.2482 104.65 38.0697C102.257 44.3037 94.4823 50.8421 80.333 48.5415C81.8814 49.2624 83.6793 49.7605 85.7606 49.9753C100.961 51.5436 108.184 41.8141 109.896 36.7533C111.366 29.3788 110.324 14.0719 94.3921 11.8406C89.5304 11.1597 85.6479 11.5362 82.5794 12.5256Z" fill="#D5DADD"/>
<path d="M83.1346 18.1397L88.2064 18.1367C98.0277 18.1307 102.651 25.5147 101.907 33.3453C101.845 33.9939 101.761 34.6016 101.655 35.1713C99.1798 48.4655 71.293 47.731 70.5186 34.2307C69.9675 24.6232 73.1454 18.1458 83.1346 18.1397Z" fill="#00144A"/>
<path fill-rule="evenodd" clip-rule="evenodd" d="M96.1783 79.7673C96.2358 79.5146 96.4873 79.3565 96.74 79.414C97.79 79.6531 99.832 79.7062 101.544 77.9353L101.945 77.52L102.27 77.998C103.257 79.4536 104.985 81.8564 107.217 83.4002C108.327 84.1684 109.541 84.7087 110.834 84.8274C112.117 84.9454 113.515 84.651 115.009 83.6902C115.227 83.55 115.517 83.6131 115.658 83.8311C115.798 84.0491 115.735 84.3394 115.517 84.4796C113.859 85.5452 112.255 85.9004 110.748 85.7619C109.249 85.6242 107.882 85.0018 106.683 84.172C104.527 82.6808 102.842 80.4704 101.806 78.9807C99.8791 80.6657 97.6907 80.593 96.5316 80.329C96.2789 80.2715 96.1207 80.02 96.1783 79.7673Z" fill="#A9B4BE"/>
<path fill-rule="evenodd" clip-rule="evenodd" d="M96.9911 90.1534C97.1677 89.9637 97.4646 89.9531 97.6543 90.1296C98.0538 90.5014 99.3912 91.3399 101.241 91.3589C101.5 91.3616 101.708 91.5738 101.705 91.8329C101.703 92.0921 101.49 92.3 101.231 92.2973C99.1243 92.2756 97.5678 91.3312 97.0149 90.8166C96.8252 90.6401 96.8146 90.3431 96.9911 90.1534Z" fill="#A9B4BE"/>
<path d="M99.1287 30.141C99.9672 33.6943 97.9851 37.4729 96.6977 38.9475C96.4976 39.1767 96.2101 39.294 95.923 39.3062C95.3448 39.3308 94.9753 38.5779 95.1794 38.0165C95.8252 36.2405 96.1273 33.3463 95.4755 30.7223C95.3238 30.1114 95.8747 29.4158 96.5158 29.4706L98.5206 29.642C98.8185 29.6674 99.0614 29.8561 99.1287 30.141Z" fill="white"/>
<path d="M95.7099 28.1272L97.7046 28.2055C98.0994 28.221 98.4328 27.9963 98.4621 27.6551C98.5851 26.2231 98.0086 25.2655 97.5879 24.7691C97.357 24.4966 96.9691 24.4073 96.6188 24.4763L94.4978 24.8942C93.766 25.0384 93.4779 25.7866 93.8754 26.3995C94.0545 26.6757 94.2344 26.9717 94.3848 27.2561C94.6312 27.722 95.1461 28.1051 95.7099 28.1272Z" fill="white"/>
<ellipse cx="4.56571" cy="5.60533" rx="4.56571" ry="5.60533" transform="matrix(-0.999251 -0.0386881 -0.0386881 0.999251 113.791 26.7012)" fill="#A9B4BE"/>
<ellipse cx="4.56571" cy="5.60533" rx="4.56571" ry="5.60533" transform="matrix(-0.999251 -0.0386881 -0.0386881 0.999251 115.714 26.8672)" fill="#D5DADD"/>
<path fill-rule="evenodd" clip-rule="evenodd" d="M42.0952 124.152C53.745 121.708 64.1834 115.24 68.7301 103.768C74.1946 89.9792 65.4868 83.648 52.5235 85.1557C44.4658 86.093 36.6326 88.1949 28.799 90.2969C23.2474 91.7866 17.6956 93.2764 12.0636 94.3516C11.7825 94.4053 11.4942 94.4612 11.1996 94.5183C10.2091 94.7103 9.14797 94.916 8.0499 95.0976C7.48425 94.0821 6.94545 93.0496 6.43445 92.001C8.47821 91.5994 10.4903 91.022 12.2373 90.5206C12.9106 90.3274 13.5446 90.1455 14.1257 89.9893C16.1417 89.4475 18.7971 88.5886 21.8724 87.594C38.1751 82.3213 66.2766 73.2325 73.4624 87.3264C82.0836 104.236 64.1533 120.74 49.4827 126.346C46.9597 125.76 44.494 125.026 42.0952 124.152ZM1.60331 78.2994C1.45228 77.6376 1.3115 76.972 1.18115 76.3026C5.57012 74.8644 11.2272 75.2046 12.9952 75.5276C13.3072 75.5846 13.4305 75.8842 13.311 76.1781C13.2053 76.4382 12.9492 76.6024 12.6686 76.5929C11.0255 76.537 5.39239 76.4942 1.60331 78.2994Z" fill="#B8E6FF"/>
<path fill-rule="evenodd" clip-rule="evenodd" d="M1.60331 78.2994C1.45228 77.6376 1.3115 76.972 1.18115 76.3026C5.57012 74.8644 11.2272 75.2046 12.9952 75.5276C13.3072 75.5846 13.4305 75.8842 13.311 76.1781C13.2053 76.4382 12.9492 76.6024 12.6686 76.5929C11.0255 76.537 5.39239 76.4942 1.60331 78.2994ZM8.04991 95.0976C7.68278 94.4385 7.32696 93.7722 6.98272 93.0991C8.3267 92.8938 9.62708 92.6417 10.8242 92.4097L10.8256 92.4094C11.1197 92.3524 11.4075 92.2966 11.6882 92.243C17.3202 91.1677 22.872 89.678 28.4236 88.1883L28.4236 88.1883L28.4237 88.1883C36.2572 86.0862 44.0904 83.9843 52.1481 83.0471C61.9495 81.9071 69.3181 85.2484 69.9677 92.906C68.2394 86.7503 61.3731 84.1265 52.5235 85.1557C44.4658 86.093 36.6326 88.1949 28.799 90.2969L28.799 90.2969C23.2474 91.7866 17.6956 93.2764 12.0636 94.3516C11.7825 94.4053 11.4942 94.4612 11.1996 94.5183C10.2091 94.7103 9.14797 94.916 8.04991 95.0976ZM49.4827 126.346C48.2165 126.052 46.9647 125.721 45.7285 125.353C45.9731 125.284 46.2176 125.213 46.462 125.14C59.5786 121.218 77.054 107.395 75.1993 92.0104C78.787 107.202 62.7932 121.26 49.4827 126.346Z" fill="#9EDDFF"/>
<path d="M49.2526 108.544C49.0965 105.953 48.5318 104.026 47.864 104.029C47.1963 104.033 46.6382 105.969 46.4953 108.574C43.8941 108.753 41.9607 109.335 41.9673 110.006C41.9739 110.677 43.9107 111.212 46.5053 111.335C46.6614 113.926 47.2228 115.853 47.8906 115.849C48.5583 115.846 49.1164 113.909 49.2593 111.305C51.8605 111.125 53.7939 110.544 53.7873 109.873C53.7807 109.202 51.8439 108.664 49.2526 108.544Z" fill="#F58B00"/>
<path d="M69.6967 11.802C69.5937 10.0612 69.215 8.76562 68.7665 8.76562C68.318 8.76562 67.9426 10.0712 67.8463 11.8219C66.0955 11.9415 64.7966 12.3336 64.8032 12.782C64.8099 13.2305 66.1088 13.5926 67.8496 13.6724C67.9559 15.4165 68.3346 16.7121 68.7831 16.7087C69.2316 16.7054 69.607 15.4032 69.7033 13.6524C71.4508 13.5328 72.7497 13.1441 72.7464 12.6923C72.743 12.2405 71.4408 11.8817 69.6967 11.802Z" fill="#F58B00"/>
</svg>
