<?xml version="1.0" encoding="utf-8"?>
<!-- Generator: Adobe Illustrator 24.0.1, SVG Export Plug-In . SVG Version: 6.00 Build 0)  -->
<svg version="1.1" id="Layer_1" xmlns="http://www.w3.org/2000/svg" xmlns:xlink="http://www.w3.org/1999/xlink" x="0px" y="0px"
	 viewBox="0 0 3300 2200" style="enable-background:new 0 0 3300 2200;" xml:space="preserve">
<style type="text/css">
	.st0{fill:#FFFFFF;}
	.st1{fill:none;stroke:#000000;stroke-width:0.5;}
	.st2{font-family:'Arial-BoldMT';}
	.st3{font-size:12px;}
	.st4{font-family:'ArialMT';}
	.st5{opacity:0.4;fill:#00AEEF;enable-background:new    ;}
	.st6{fill:#27AAE1;}
	.st7{fill:none;stroke:#27AAE1;stroke-width:0.577;}
</style>
<g id="Notes">
	<rect id="artboard" y="0" class="st0" width="3300" height="2200"/>
	<line class="st1" x1="263" y1="292" x2="3036" y2="292"/>
	<text transform="matrix(1 0 0 1 263 322)" class="st2 st3">Weight/Scale Variations</text>
	<text transform="matrix(1 0 0 1 536.0362 322)" class="st4 st3">Ultralight</text>
	<text transform="matrix(1 0 0 1 844.7501 322)" class="st4 st3">Thin</text>
	<text transform="matrix(1 0 0 1 1140.1193 322)" class="st4 st3">Light</text>
	<text transform="matrix(1 0 0 1 1428.8282 322)" class="st4 st3">Regular</text>
	<text transform="matrix(1 0 0 1 1725.2202 322)" class="st4 st3">Medium</text>
	<text transform="matrix(1 0 0 1 2018.2563 322)" class="st4 st3">Semibold</text>
	<text transform="matrix(1 0 0 1 2327.9712 322)" class="st4 st3">Bold</text>
	<text transform="matrix(1 0 0 1 2619.6831 322)" class="st4 st3">Heavy</text>
	<text transform="matrix(1 0 0 1 2918.728 322)" class="st4 st3">Black</text>
	<line class="st1" x1="263" y1="1903" x2="3036" y2="1903"/>
	<g transform="matrix(1 0 0 1 263 1933)">
		<path d="M9.2,0.8c4.3,0,7.9-3.6,7.9-7.9S13.5-15,9.2-15s-7.9,3.6-7.9,7.9C1.4-2.7,5,0.8,9.2,0.8z M9.2-0.7c-3.5,0-6.4-2.8-6.4-6.4
			s2.8-6.4,6.4-6.4s6.4,2.8,6.4,6.4C15.7-3.5,12.8-0.7,9.2-0.7z M9.2-3.4c0.5,0,0.7-0.3,0.7-0.8v-2.1h2.2C12.7-6.3,13-6.6,13-7
			c0-0.5-0.3-0.7-0.8-0.7H10V-10c0-0.5-0.3-0.8-0.7-0.8S8.5-10.5,8.5-10v2.2H6.3C5.8-7.8,5.4-7.5,5.4-7s0.4,0.7,0.8,0.7h2.2v2.1
			C8.5-3.8,8.8-3.4,9.2-3.4z"/>
	</g>
	<g transform="matrix(1 0 0 1 281.506 1933)">
		<path d="M11.7,2.9c5.4,0,10-4.5,10-10c0-5.4-4.5-10-10-10c-5.4,0-10,4.5-10,10C1.7-1.6,6.3,2.9,11.7,2.9z M11.7,1.2
			c-4.6,0-8.3-3.7-8.3-8.3s3.7-8.3,8.3-8.3S20-11.7,20-7.1C20-2.4,16.3,1.2,11.7,1.2z M11.7-2.4c0.5,0,0.8-0.4,0.8-0.9v-2.9h3.1
			c0.5,0,0.9-0.3,0.9-0.8s-0.4-0.8-0.9-0.8h-3.1v-3.1c0-0.6-0.3-0.9-0.8-0.9s-0.8,0.4-0.8,0.9v3.1h-3c-0.6-0.1-1,0.2-1,0.8
			c0,0.5,0.4,0.8,0.9,0.8h3v2.9C10.9-2.8,11.2-2.4,11.7-2.4z"/>
	</g>
	<g transform="matrix(1 0 0 1 304.924 1933)">
		<path d="M15,5.7c7,0,12.7-5.8,12.7-12.7c0-7-5.8-12.7-12.7-12.7C8-19.8,2.3-14,2.3-7C2.3-0.1,8,5.7,15,5.7z M15,3.9
			C8.9,3.9,4.1-1,4.1-7S8.9-17.9,15-17.9c6,0,10.9,4.9,10.9,10.9S21,3.9,15,3.9z M15-1.1c0.6,0,0.9-0.4,0.9-1v-4.1h4.2
			c0.6,0,1-0.3,1-0.9S20.7-8,20.1-8h-4.2v-4.2c0-0.6-0.4-1-0.9-1c-0.6,0-0.9,0.4-0.9,1V-8H9.8c-0.6,0-1,0.3-1,0.9s0.4,0.9,1,0.9H14
			v4.1C14.1-1.5,14.4-1.1,15-1.1z"/>
	</g>
	<text transform="matrix(1 0 0 1 263 1953)" class="st2 st3">Design Variations</text>
	<text transform="matrix(1 0 0 1 263 1971)" class="st4 st3">Symbols are supported in up to nine weights and three scales.</text>
	<text transform="matrix(1 0 0 1 263 1989)" class="st4 st3">For optimal layout with text and other symbols, vertically align</text>
	<text transform="matrix(1 0 0 1 263 2007)" class="st4 st3">symbols with the adjacent text.</text>
	<rect x="776" y="1919" class="st5" width="3" height="14"/>
	<g transform="matrix(1 0 0 1 779 1933)">
		<path d="M10.5,0h1.8L7.2-14.1H5.4L0.2,0H2l1.4-4H9L10.5,0z M6.3-12L6.3-12l2.3,6.4H4L6.3-12z"/>
	</g>
	<rect x="791.6" y="1919" class="st5" width="3" height="14"/>
	<text transform="matrix(1 0 0 1 776 1953)" class="st2 st3">Margins</text>
	<text transform="matrix(1 0 0 1 776 1971)" class="st4 st3">Leading and trailing margins on the left and right side of each symbol</text>
	<text transform="matrix(1 0 0 1 776 1989)" class="st4 st3">can be adjusted by modifying the width of the blue rectangles.</text>
	<text transform="matrix(1 0 0 1 776 2007)" class="st4 st3">Modifications are automatically applied proportionally to all</text>
	<text transform="matrix(1 0 0 1 776 2025)" class="st4 st3">scales and weights.</text>
	<g transform="matrix(1 0 0 1 1289 1933)">
		<path d="M2.8,3.1l1.5,1.5C5.1,5.4,6.1,5.4,7,4.4L17.3-6.7c0.4,0.3,0.8,0.3,1.3,0.2l1-0.2L20.3-6v0.5c-0.1,0.5,0.1,1,0.5,1.5
			l0.8,0.8c0.5,0.5,1.2,0.5,1.6,0.1l3.3-3.3C27-6.9,27-7.5,26.5-8l-0.8-0.8c-0.5-0.5-0.9-0.7-1.4-0.6l-0.5,0.1L23.1-10l0.3-1.1
			c0.1-0.6,0-1-0.6-1.6l-2.4-2.4c-3.5-3.5-8.1-3.4-11.2-0.3C8.8-15,8.7-14.4,9-14c0.2,0.4,0.7,0.6,1.4,0.4c1.5-0.4,3-0.3,4.5,0.7
			l-0.6,1.6c-0.2,0.6-0.2,1.1,0,1.5L3,0.4C2.1,1.3,2,2.3,2.8,3.1z M10.7-15.1c2.7-2,6-1.7,8.4,0.7l2.6,2.6c0.2,0.2,0.3,0.4,0.2,0.7
			l-0.4,1.6L23.1-8H24c0.3,0,0.4,0,0.6,0.2l0.6,0.6l-2.8,2.7l-0.6-0.6c-0.2-0.2-0.2-0.3-0.2-0.6l0.1-1l-1.6-1.6L18.5-8
			c-0.3,0.1-0.4,0.1-0.7-0.2l-2.2-2.2c-0.2-0.2-0.3-0.4-0.1-0.7l0.9-2.3c-1.6-1.5-3.7-2.4-5.8-1.7c-0.1,0-0.2,0-0.2,0
			C10.6-15,10.6-15.1,10.7-15.1z M4.1,2.4c-0.5-0.5-0.3-0.8,0-1.1l11-10.1l1.2,1.2L6.2,3.3c-0.3,0.3-0.7,0.4-1.1,0L4.1,2.4z"/>
	</g>
	<text transform="matrix(1 0 0 1 1289 1953)" class="st2 st3">Exporting</text>
	<text transform="matrix(1 0 0 1 1289 1971)" class="st4 st3">Symbols should be outlined when exporting to ensure the</text>
	<text transform="matrix(1 0 0 1 1289 1989)" class="st4 st3">design is preserved when submitting to Xcode.</text>
	<text id="template-version" transform="matrix(1 0 0 1 2958.8496 1933)" class="st4 st3">Template v.1.0</text>
	<text transform="matrix(1 0 0 1 2929.2773 1951)" class="st4 st3">Generated from doc</text>
	<text transform="matrix(1 0 0 1 2921.9238 1969)" class="st4 st3">Typeset at 100 points</text>
	<text transform="matrix(1 0 0 1 263 726)" class="st4 st3">Small</text>
	<text transform="matrix(1 0 0 1 263 1156)" class="st4 st3">Medium</text>
	<text transform="matrix(1 0 0 1 263 1586)" class="st4 st3">Large</text>
</g>
<g id="Guides">
	<g id="H-reference" transform="matrix(1 0 0 1 339 696)">
		<path class="st6" d="M54.9,0h2.7l-27-70.5h-2.5L1,0h2.7L13-24.5h32.8L54.9,0z M29.2-67.1h0.2l15.4,40.4h-31L29.2-67.1z"/>
	</g>
	<line id="Baseline-S" class="st7" x1="263" y1="696" x2="3036" y2="696"/>
	<line id="Capline-S" class="st7" x1="263" y1="625.5" x2="3036" y2="625.5"/>
	<g transform="matrix(1 0 0 1 339 1126)">
		<path class="st6" d="M54.9,0h2.7l-27-70.5h-2.5L1,0h2.7L13-24.5h32.8L54.9,0z M29.2-67.1h0.2l15.4,40.4h-31L29.2-67.1z"/>
	</g>
	<line id="Baseline-M" class="st7" x1="263" y1="1126" x2="3036" y2="1126"/>
	<line id="Capline-M" class="st7" x1="263" y1="1055.5" x2="3036" y2="1055.5"/>
	<g transform="matrix(1 0 0 1 339 1556)">
		<path class="st6" d="M54.9,0h2.7l-27-70.5h-2.5L1,0h2.7L13-24.5h32.8L54.9,0z M29.2-67.1h0.2l15.4,40.4h-31L29.2-67.1z"/>
	</g>
	<line id="Baseline-L" class="st7" x1="263" y1="1556" x2="3036" y2="1556"/>
	<line id="Capline-L" class="st7" x1="263" y1="1485.5" x2="3036" y2="1485.5"/>
	<rect id="left-margin" x="1392.5" y="1030.8" class="st5" width="12.5" height="119.3"/>
	<rect id="right-margin" x="1495" y="1030.8" class="st5" width="12.5" height="119.3"/>
</g>
<g id="Symbols">
	<g id="Semibold-L" transform="matrix(1 0 0 1 1973.1 1556)">
		<path d="M110.9-95h-82c-9.9,0-18,8.1-18,18V5c0,9.9,8.1,18,18,18h82c9.9,0,18-8.1,18-18v-82C128.9-86.9,120.8-95,110.9-95z
			 M106.9-7c0,4.4-3.6,8-8,8h-38c-3.2,0-6.1-1.9-7.4-4.8c-1.3-2.9-0.7-6.3,1.6-8.7l38-40c0,0,0,0,0,0c2.3-2.4,5.7-3.1,8.8-1.9
			c3.1,1.2,5,4.1,5,7.4V-7z"/>
	</g>
	<g id="Regular-L" transform="matrix(1 0 0 1 1381.36 1556)">
		<path d="M109.6-93h-82c-8.8,0-16,7.2-16,16V5c0,8.8,7.2,16,16,16h82c8.8,0,16-7.2,16-16v-82C125.6-85.8,118.5-93,109.6-93z
			 M102.6-7c0,2.8-2.2,5-5,5h-38c-2,0-3.8-1.2-4.6-3s-0.4-4,1-5.4l38-40c1.4-1.5,3.6-2,5.5-1.2c1.9,0.8,3.1,2.6,3.1,4.6V-7z"/>
	</g>
	<g id="Thin-L" transform="matrix(1 0 0 1 789.747 1556)">
		<path d="M107.3-91h-82c-7.7,0-14,6.3-14,14V5c0,7.7,6.3,14,14,14h82c7.7,0,14-6.3,14-14v-82C121.3-84.7,115-91,107.3-91z M99.3-7
			c0,2.2-1.8,4-4,4h-38c-1.6,0-3-1-3.7-2.4c-0.6-1.5-0.3-3.2,0.8-4.3l38-40c1.1-1.2,2.9-1.6,4.4-1s2.5,2.1,2.5,3.7V-7z"/>
	</g>
	<g id="Semibold-M" transform="matrix(1 0 0 1 1988.19 1126)">
		<path d="M83.8-81h-58c-9.4,0-17,7.6-17,17v58c0,9.4,7.6,17,17,17h58c9.4,0,17-7.6,17-17v-58C100.8-73.4,93.2-81,83.8-81z M81.8-13
			c0,2.8-2.2,5-5,5h-28c-2,0-3.8-1.2-4.6-3c-0.8-1.9-0.4-4,1-5.4l28-29c1.4-1.5,3.6-1.9,5.5-1.2c1.9,0.8,3.1,2.6,3.1,4.6V-13z"/>
	</g>
	<g id="Regular-M" transform="matrix(1 0 0 1 1396.33 1126)">
		<path d="M82.7-80h-58c-8.8,0-16,7.2-16,16v58c0,8.8,7.2,16,16,16h58c8.8,0,16-7.2,16-16v-58C98.7-72.8,91.5-80,82.7-80z M80.7-13
			c0,2.8-2.2,5-5,5h-28c-2,0-3.8-1.2-4.6-3s-0.4-4,1-5.4l28-29c1.4-1.5,3.6-1.9,5.5-1.2c1.9,0.8,3.1,2.6,3.1,4.6V-13z"/>
	</g>
	<g id="Thin-M" transform="matrix(1 0 0 1 804.518 1126)">
		<path d="M80.5-78h-58c-7.7,0-14,6.3-14,14v58c0,7.7,6.3,14,14,14h58c7.7,0,14-6.3,14-14v-58C94.5-71.7,88.2-78,80.5-78z M77.5-13
			c0,2.2-1.8,4-4,4h-28c-1.6,0-3.1-1-3.7-2.4c-0.6-1.5-0.3-3.2,0.8-4.3l28-29c1.1-1.2,2.9-1.5,4.4-0.9c1.5,0.6,2.5,2.1,2.5,3.7V-13z
			"/>
	</g>
	<g id="Semibold-S" transform="matrix(1 0 0 1 1999.91 696)">
		<path d="M63.1-72h-40c-9.4,0-17,7.6-17,17v40c0,9.4,7.6,17,17,17h40c9.4,0,17-7.6,17-17v-40C80.1-64.4,72.5-72,63.1-72z M64.1-19
			c0,2.8-2.2,5-5,5H38.2c-2,0-3.8-1.2-4.6-3.1s-0.4-4,1.1-5.4l20.9-21c1.4-1.4,3.6-1.9,5.5-1.1c1.9,0.8,3.1,2.6,3.1,4.6V-19z"/>
	</g>
	<g id="Regular-S" transform="matrix(1 0 0 1 1407.56 696)">
		<path d="M62.4-71h-40c-8.8,0-16,7.2-16,16v40c0,8.8,7.2,16,16,16h40c8.8,0,16-7.2,16-16v-40C78.4-63.8,71.3-71,62.4-71z M63.4-19
			c0,2.8-2.2,5-5,5H37.5c-2,0-3.8-1.2-4.6-3.1s-0.4-4,1.1-5.4l20.9-21c1.4-1.4,3.6-1.9,5.5-1.1c1.9,0.8,3.1,2.6,3.1,4.6V-19z"/>
	</g>
	<g id="Thin-S" transform="matrix(1 0 0 1 815.578 696)">
		<path d="M60.4-69h-40c-7.7,0-14,6.3-14,14v40c0,7.7,6.3,14,14,14h40c7.7,0,14-6.3,14-14v-40C74.4-62.7,68.1-69,60.4-69z M60.4-19
			c0,2.2-1.8,4-4,4H35.5c-1.6,0-3.1-1-3.7-2.5c-0.6-1.5-0.3-3.2,0.9-4.4l20.9-21c1.1-1.2,2.9-1.5,4.4-0.9c1.5,0.6,2.5,2.1,2.5,3.7
			V-19z"/>
	</g>
</g>
</svg>
