<?xml version="1.0" encoding="UTF-8"?>
<!--Generator: Apple Native CoreSVG 232.5-->
<!DOCTYPE svg
PUBLIC "-//W3C//DTD SVG 1.1//EN"
       "http://www.w3.org/Graphics/SVG/1.1/DTD/svg11.dtd">
<svg version="1.1" xmlns="http://www.w3.org/2000/svg" xmlns:xlink="http://www.w3.org/1999/xlink" width="3300" height="2200">
 <!--glyph: "", point size: 100.0, font version: "19.0d6e1", template writer version: "123"-->
 <style>.SFSymbolsPreviewWireframe {fill:none;opacity:1.0;stroke:black;stroke-width:0.5}
</style>
 <g id="Notes">
  <rect height="2200" id="artboard" style="fill:white;opacity:1" width="3300" x="0" y="0"/>
  <line style="fill:none;stroke:black;opacity:1;stroke-width:0.5;" x1="263" x2="3036" y1="292" y2="292"/>
  <text style="stroke:none;fill:black;font-family:sans-serif;font-size:13;font-weight:bold;" transform="matrix(1 0 0 1 263 322)">Weight/Scale Variations</text>
  <text style="stroke:none;fill:black;font-family:sans-serif;font-size:13;text-anchor:middle;" transform="matrix(1 0 0 1 559.711 322)">Ultralight</text>
  <text style="stroke:none;fill:black;font-family:sans-serif;font-size:13;text-anchor:middle;" transform="matrix(1 0 0 1 856.422 322)">Thin</text>
  <text style="stroke:none;fill:black;font-family:sans-serif;font-size:13;text-anchor:middle;" transform="matrix(1 0 0 1 1153.13 322)">Light</text>
  <text style="stroke:none;fill:black;font-family:sans-serif;font-size:13;text-anchor:middle;" transform="matrix(1 0 0 1 1449.84 322)">Regular</text>
  <text style="stroke:none;fill:black;font-family:sans-serif;font-size:13;text-anchor:middle;" transform="matrix(1 0 0 1 1746.56 322)">Medium</text>
  <text style="stroke:none;fill:black;font-family:sans-serif;font-size:13;text-anchor:middle;" transform="matrix(1 0 0 1 2043.27 322)">Semibold</text>
  <text style="stroke:none;fill:black;font-family:sans-serif;font-size:13;text-anchor:middle;" transform="matrix(1 0 0 1 2339.98 322)">Bold</text>
  <text style="stroke:none;fill:black;font-family:sans-serif;font-size:13;text-anchor:middle;" transform="matrix(1 0 0 1 2636.69 322)">Heavy</text>
  <text style="stroke:none;fill:black;font-family:sans-serif;font-size:13;text-anchor:middle;" transform="matrix(1 0 0 1 2933.4 322)">Black</text>
  <line style="fill:none;stroke:black;opacity:1;stroke-width:0.5;" x1="263" x2="3036" y1="1903" y2="1903"/>
  <g transform="matrix(0.2 0 0 0.2 263 1933)">
   <path d="m46.2402 4.15039c21.5332 0 39.4531-17.8711 39.4531-39.4043s-17.9688-39.4043-39.502-39.4043c-21.4844 0-39.3555 17.8711-39.3555 39.4043s17.9199 39.4043 39.4043 39.4043Zm0-7.42188c-17.7246 0-31.8848-14.209-31.8848-31.9824s14.1113-31.9824 31.8359-31.9824c17.7734 0 32.0312 14.209 32.0312 31.9824s-14.209 31.9824-31.9824 31.9824Zm-17.9688-31.9824c0 2.14844 1.51367 3.61328 3.75977 3.61328h10.498v10.5957c0 2.19727 1.46484 3.71094 3.61328 3.71094 2.24609 0 3.71094-1.51367 3.71094-3.71094v-10.5957h10.5957c2.19727 0 3.71094-1.46484 3.71094-3.61328 0-2.19727-1.51367-3.71094-3.71094-3.71094h-10.5957v-10.5469c0-2.24609-1.46484-3.75977-3.71094-3.75977-2.14844 0-3.61328 1.51367-3.61328 3.75977v10.5469h-10.498c-2.24609 0-3.75977 1.51367-3.75977 3.71094Z"/>
  </g>
  <g transform="matrix(0.2 0 0 0.2 281.506 1933)">
   <path d="m58.5449 14.5508c27.2461 0 49.8047-22.6074 49.8047-49.8047 0-27.2461-22.6074-49.8047-49.8535-49.8047-27.1973 0-49.7559 22.5586-49.7559 49.8047 0 27.1973 22.6074 49.8047 49.8047 49.8047Zm0-8.30078c-23.0469 0-41.4551-18.457-41.4551-41.5039s18.3594-41.5039 41.4062-41.5039 41.5527 18.457 41.5527 41.5039-18.457 41.5039-41.5039 41.5039Zm-22.6562-41.5039c0 2.39258 1.66016 4.00391 4.15039 4.00391h14.3555v14.4043c0 2.44141 1.66016 4.15039 4.05273 4.15039 2.44141 0 4.15039-1.66016 4.15039-4.15039v-14.4043h14.4043c2.44141 0 4.15039-1.61133 4.15039-4.00391 0-2.44141-1.70898-4.15039-4.15039-4.15039h-14.4043v-14.3555c0-2.49023-1.70898-4.19922-4.15039-4.19922-2.39258 0-4.05273 1.70898-4.05273 4.19922v14.3555h-14.3555c-2.49023 0-4.15039 1.70898-4.15039 4.15039Z"/>
  </g>
  <g transform="matrix(0.2 0 0 0.2 304.924 1933)">
   <path d="m74.8535 28.3203c34.8145 0 63.623-28.8086 63.623-63.5742 0-34.8145-28.8574-63.623-63.6719-63.623-34.7656 0-63.5254 28.8086-63.5254 63.623 0 34.7656 28.8086 63.5742 63.5742 63.5742Zm0-9.08203c-30.1758 0-54.4434-24.3164-54.4434-54.4922 0-30.2246 24.2188-54.4922 54.3945-54.4922 30.2246 0 54.541 24.2676 54.541 54.4922 0 30.1758-24.2676 54.4922-54.4922 54.4922Zm-28.8574-54.4922c0 2.58789 1.85547 4.39453 4.58984 4.39453h19.7266v19.7754c0 2.68555 1.85547 4.58984 4.44336 4.58984 2.68555 0 4.54102-1.85547 4.54102-4.58984v-19.7754h19.7754c2.68555 0 4.58984-1.80664 4.58984-4.39453 0-2.73438-1.85547-4.58984-4.58984-4.58984h-19.7754v-19.7266c0-2.73438-1.85547-4.63867-4.54102-4.63867-2.58789 0-4.44336 1.9043-4.44336 4.63867v19.7266h-19.7266c-2.73438 0-4.58984 1.85547-4.58984 4.58984Z"/>
  </g>
  <text style="stroke:none;fill:black;font-family:sans-serif;font-size:13;font-weight:bold;" transform="matrix(1 0 0 1 263 1953)">Design Variations</text>
  <text style="stroke:none;fill:black;font-family:sans-serif;font-size:13;" transform="matrix(1 0 0 1 263 1971)">Symbols are supported in up to nine weights and three scales.</text>
  <text style="stroke:none;fill:black;font-family:sans-serif;font-size:13;" transform="matrix(1 0 0 1 263 1989)">For optimal layout with text and other symbols, vertically align</text>
  <text style="stroke:none;fill:black;font-family:sans-serif;font-size:13;" transform="matrix(1 0 0 1 263 2007)">symbols with the adjacent text.</text>
  <line style="fill:none;stroke:#00AEEF;stroke-width:0.5;opacity:1.0;" x1="776" x2="776" y1="1919" y2="1933"/>
  <g transform="matrix(0.2 0 0 0.2 776 1933)">
   <path d="m16.5527 0.78125c2.58789 0 3.85742-0.976562 4.78516-3.71094l6.29883-17.2363h28.8086l6.29883 17.2363c0.927734 2.73438 2.19727 3.71094 4.73633 3.71094 2.58789 0 4.24805-1.5625 4.24805-4.00391 0-0.830078-0.146484-1.61133-0.537109-2.63672l-22.9004-60.9863c-1.12305-2.97852-3.125-4.49219-6.25-4.49219-3.02734 0-5.07812 1.46484-6.15234 4.44336l-22.9004 61.084c-0.390625 1.02539-0.537109 1.80664-0.537109 2.63672 0 2.44141 1.5625 3.95508 4.10156 3.95508Zm13.4766-28.3691 11.8652-32.8613h0.244141l11.8652 32.8613Z"/>
  </g>
  <line style="fill:none;stroke:#00AEEF;stroke-width:0.5;opacity:1.0;" x1="792.836" x2="792.836" y1="1919" y2="1933"/>
  <text style="stroke:none;fill:black;font-family:sans-serif;font-size:13;font-weight:bold;" transform="matrix(1 0 0 1 776 1953)">Margins</text>
  <text style="stroke:none;fill:black;font-family:sans-serif;font-size:13;" transform="matrix(1 0 0 1 776 1971)">Leading and trailing margins on the left and right side of each symbol</text>
  <text style="stroke:none;fill:black;font-family:sans-serif;font-size:13;" transform="matrix(1 0 0 1 776 1989)">can be adjusted by modifying the x-location of the margin guidelines.</text>
  <text style="stroke:none;fill:black;font-family:sans-serif;font-size:13;" transform="matrix(1 0 0 1 776 2007)">Modifications are automatically applied proportionally to all</text>
  <text style="stroke:none;fill:black;font-family:sans-serif;font-size:13;" transform="matrix(1 0 0 1 776 2025)">scales and weights.</text>
  <g transform="matrix(0.2 0 0 0.2 1289 1933)">
   <path d="m14.209 9.32617 8.49609 8.54492c4.29688 4.3457 9.22852 4.05273 13.8672-1.07422l53.4668-58.9355-4.83398-4.88281-53.0762 58.3984c-1.75781 2.00195-3.41797 2.49023-5.76172 0.146484l-5.85938-5.81055c-2.34375-2.29492-1.80664-4.00391 0.195312-5.81055l57.373-54.0039-4.88281-4.83398-57.959 54.4434c-4.93164 4.58984-5.32227 9.47266-1.02539 13.8184Zm32.0801-90.9668c-2.09961 2.05078-2.24609 4.93164-1.07422 6.88477 1.17188 1.80664 3.4668 2.97852 6.68945 2.14844 7.32422-1.70898 14.9414-2.00195 22.0703 2.68555l-2.92969 7.27539c-1.70898 4.15039-0.830078 7.08008 1.85547 9.81445l11.4746 11.5723c2.44141 2.44141 4.49219 2.53906 7.32422 2.05078l5.32227-0.976562 3.32031 3.36914-0.195312 2.7832c-0.195312 2.49023 0.439453 4.39453 2.88086 6.78711l3.80859 3.71094c2.39258 2.39258 5.46875 2.53906 7.8125 0.195312l14.5508-14.5996c2.34375-2.34375 2.24609-5.32227-0.146484-7.71484l-3.85742-3.80859c-2.39258-2.39258-4.24805-3.17383-6.64062-2.97852l-2.88086 0.244141-3.22266-3.17383 1.2207-5.61523c0.634766-2.83203-0.146484-5.0293-3.07617-7.95898l-10.9863-10.9375c-16.6992-16.6016-38.8672-16.2109-53.3203-1.75781Zm7.4707 1.85547c12.1582-8.88672 28.6133-7.37305 39.7461 3.75977l12.1582 12.0605c1.17188 1.17188 1.36719 2.09961 1.02539 3.80859l-1.61133 7.42188 7.51953 7.42188 4.93164-0.292969c1.26953-0.0488281 1.66016 0.0488281 2.63672 1.02539l2.88086 2.88086-12.207 12.207-2.88086-2.88086c-0.976562-0.976562-1.12305-1.36719-1.07422-2.68555l0.341797-4.88281-7.4707-7.42188-7.61719 1.26953c-1.61133 0.341797-2.34375 0.195312-3.56445-0.976562l-10.0098-10.0098c-1.26953-1.17188-1.41602-2.00195-0.634766-3.85742l4.39453-10.4492c-7.8125-7.27539-17.9688-10.4004-28.125-7.42188-0.78125 0.195312-1.07422-0.439453-0.439453-0.976562Z"/>
  </g>
  <text style="stroke:none;fill:black;font-family:sans-serif;font-size:13;font-weight:bold;" transform="matrix(1 0 0 1 1289 1953)">Exporting</text>
  <text style="stroke:none;fill:black;font-family:sans-serif;font-size:13;" transform="matrix(1 0 0 1 1289 1971)">Symbols should be outlined when exporting to ensure the</text>
  <text style="stroke:none;fill:black;font-family:sans-serif;font-size:13;" transform="matrix(1 0 0 1 1289 1989)">design is preserved when submitting to Xcode.</text>
  <text id="template-version" style="stroke:none;fill:black;font-family:sans-serif;font-size:13;text-anchor:end;" transform="matrix(1 0 0 1 3036 1933)">Template v.5.0</text>
  <text style="stroke:none;fill:black;font-family:sans-serif;font-size:13;text-anchor:end;" transform="matrix(1 0 0 1 3036 1951)">Requires Xcode 15 or greater</text>
  <text id="descriptive-name" style="stroke:none;fill:black;font-family:sans-serif;font-size:13;text-anchor:end;" transform="matrix(1 0 0 1 3036 1969)">Generated from loader.0</text>
  <text style="stroke:none;fill:black;font-family:sans-serif;font-size:13;text-anchor:end;" transform="matrix(1 0 0 1 3036 1987)">Typeset at 100.0 points</text>
  <text style="stroke:none;fill:black;font-family:sans-serif;font-size:13;" transform="matrix(1 0 0 1 263 726)">Small</text>
  <text style="stroke:none;fill:black;font-family:sans-serif;font-size:13;" transform="matrix(1 0 0 1 263 1156)">Medium</text>
  <text style="stroke:none;fill:black;font-family:sans-serif;font-size:13;" transform="matrix(1 0 0 1 263 1586)">Large</text>
 </g>
 <g id="Guides">
  <g id="H-reference" style="fill:#27AAE1;stroke:none;" transform="matrix(1 0 0 1 339 696)">
   <path d="M0.993654 0L3.63775 0L29.3281-67.1323L30.0303-67.1323L30.0303-70.459L28.1226-70.459ZM11.6885-24.4799L46.9815-24.4799L46.2315-26.7285L12.4385-26.7285ZM55.1196 0L57.7637 0L30.6382-70.459L29.4326-70.459L29.4326-67.1323Z"/>
  </g>
  <line id="Baseline-S" style="fill:none;stroke:#27AAE1;opacity:1;stroke-width:0.5;" x1="263" x2="3036" y1="696" y2="696"/>
  <line id="Capline-S" style="fill:none;stroke:#27AAE1;opacity:1;stroke-width:0.5;" x1="263" x2="3036" y1="625.541" y2="625.541"/>
  <g id="H-reference" style="fill:#27AAE1;stroke:none;" transform="matrix(1 0 0 1 339 1126)">
   <path d="M0.993654 0L3.63775 0L29.3281-67.1323L30.0303-67.1323L30.0303-70.459L28.1226-70.459ZM11.6885-24.4799L46.9815-24.4799L46.2315-26.7285L12.4385-26.7285ZM55.1196 0L57.7637 0L30.6382-70.459L29.4326-70.459L29.4326-67.1323Z"/>
  </g>
  <line id="Baseline-M" style="fill:none;stroke:#27AAE1;opacity:1;stroke-width:0.5;" x1="263" x2="3036" y1="1126" y2="1126"/>
  <line id="Capline-M" style="fill:none;stroke:#27AAE1;opacity:1;stroke-width:0.5;" x1="263" x2="3036" y1="1055.54" y2="1055.54"/>
  <g id="H-reference" style="fill:#27AAE1;stroke:none;" transform="matrix(1 0 0 1 339 1556)">
   <path d="M0.993654 0L3.63775 0L29.3281-67.1323L30.0303-67.1323L30.0303-70.459L28.1226-70.459ZM11.6885-24.4799L46.9815-24.4799L46.2315-26.7285L12.4385-26.7285ZM55.1196 0L57.7637 0L30.6382-70.459L29.4326-70.459L29.4326-67.1323Z"/>
  </g>
  <line id="Baseline-L" style="fill:none;stroke:#27AAE1;opacity:1;stroke-width:0.5;" x1="263" x2="3036" y1="1556" y2="1556"/>
  <line id="Capline-L" style="fill:none;stroke:#27AAE1;opacity:1;stroke-width:0.5;" x1="263" x2="3036" y1="1485.54" y2="1485.54"/>
  <line id="left-margin-Ultralight-S" style="fill:none;stroke:#FF3B30;stroke-width:0.5;opacity:1.0;" x1="515.011" x2="515.011" y1="600.785" y2="720.121"/>
  <line id="right-margin-Ultralight-S" style="fill:none;stroke:#FF3B30;stroke-width:0.5;opacity:1.0;" x1="604.411" x2="604.411" y1="600.785" y2="720.121"/>
  <line id="left-margin-Regular-S" style="fill:none;stroke:#FF3B30;stroke-width:0.5;opacity:1.0;" x1="1403.39" x2="1403.39" y1="600.785" y2="720.121"/>
  <line id="right-margin-Regular-S" style="fill:none;stroke:#FF3B30;stroke-width:0.5;opacity:1.0;" x1="1496.29" x2="1496.29" y1="600.785" y2="720.121"/>
  <line id="left-margin-Black-S" style="fill:none;stroke:#FF3B30;stroke-width:0.5;opacity:1.0;" x1="2884.9" x2="2884.9" y1="600.785" y2="720.121"/>
  <line id="right-margin-Black-S" style="fill:none;stroke:#FF3B30;stroke-width:0.5;opacity:1.0;" x1="2981.9" x2="2981.9" y1="600.785" y2="720.121"/>
 </g>
 <g id="Symbols">
  <g id="Black-S" transform="matrix(1 0 0 1 2884.9 696)">
   <path class="SFSymbolsPreviewWireframe" d="M92.51-28.4C96.31-28.4 99.31-31.4 99.31-35.2C99.31-39 96.31-42 92.51-42C88.71-42 85.71-39 85.71-35.2C85.71-31.4 88.71-28.4 92.51-28.4ZM4.51-28.4C8.31-28.4 11.31-31.4 11.31-35.2C11.31-39 8.31-42 4.51-42C0.71-42-2.29-39-2.29-35.2C-2.29-31.4 0.71-28.4 4.51-28.4ZM48.51 15.6C52.31 15.6 55.31 12.6 55.31 8.8C55.31 5 52.21 2 48.51 2C44.81 2 41.71 5 41.71 8.8C41.71 12.6 44.71 15.6 48.51 15.6ZM48.51-72.5C52.31-72.5 55.31-75.5 55.31-79.3C55.31-83.1 52.31-86.1 48.51-86.1C44.71-86.1 41.71-83.1 41.71-79.3C41.71-75.5 44.71-72.5 48.51-72.5ZM79.71-59.7C83.51-59.7 86.51-62.7 86.51-66.5C86.51-70.3 83.51-73.3 79.71-73.3C75.91-73.3 72.91-70.3 72.91-66.5C72.91-62.7 75.91-59.7 79.71-59.7ZM88.91-45.7C92.71-45.7 95.71-48.7 95.71-52.5C95.71-56.3 92.71-59.3 88.91-59.3C85.11-59.3 82.11-56.3 82.11-52.5C82.11-48.7 85.11-45.7 88.91-45.7ZM8.11-45.7C11.91-45.7 14.91-48.7 14.91-52.5C14.91-56.3 11.91-59.3 8.11-59.3C4.31-59.3 1.31-56.3 1.31-52.5C1.31-48.7 4.31-45.7 8.11-45.7ZM8.11-10.8C11.91-10.8 14.91-13.8 14.91-17.6C14.91-21.4 11.91-24.4 8.11-24.4C4.31-24.4 1.31-21.4 1.31-17.6C1.31-13.8 4.31-10.8 8.11-10.8ZM88.91-10.8C92.71-10.8 95.71-13.8 95.71-17.6C95.71-21.4 92.71-24.4 88.91-24.4C85.11-24.4 82.11-21.4 82.11-17.6C82.11-13.8 85.11-10.8 88.91-10.8ZM65.31-69.3C69.11-69.3 72.11-72.3 72.11-76.1C72.11-79.9 69.11-82.9 65.31-82.9C61.51-82.9 58.51-79.9 58.51-76.1C58.51-72.3 61.51-69.3 65.31-69.3ZM65.31 12.4C69.11 12.4 72.11 9.4 72.11 5.6C72.11 1.8 69.11-1.2 65.31-1.2C61.51-1.2 58.51 1.8 58.51 5.6C58.51 9.3 61.51 12.4 65.31 12.4ZM31.71-69.3C35.51-69.3 38.51-72.3 38.51-76.1C38.51-79.9 35.51-82.9 31.71-82.9C27.91-82.9 24.91-79.9 24.91-76.1C24.91-72.3 27.91-69.3 31.71-69.3ZM31.71 12.4C35.51 12.4 38.51 9.4 38.51 5.6C38.51 1.8 35.51-1.2 31.71-1.2C27.91-1.2 24.91 1.8 24.91 5.6C24.91 9.3 27.91 12.4 31.71 12.4ZM79.71 2.8C83.51 2.8 86.51-0.2 86.51-4C86.51-7.8 83.51-10.8 79.71-10.8C75.91-10.8 72.91-7.8 72.91-4C72.91-0.3 75.91 2.8 79.71 2.8ZM17.31-59.7C21.11-59.7 24.11-62.7 24.11-66.5C24.11-70.3 21.11-73.3 17.31-73.3C13.51-73.3 10.51-70.3 10.51-66.5C10.51-62.7 13.51-59.7 17.31-59.7ZM28.51-48.5C32.31-48.5 35.31-51.5 35.31-55.3C35.31-59.1 32.31-62.1 28.51-62.1C24.71-62.1 21.71-59.1 21.71-55.3C21.71-51.5 24.71-48.5 28.51-48.5ZM68.51-48.5C72.31-48.5 75.31-51.5 75.31-55.3C75.31-59.1 72.31-62.1 68.51-62.1C64.71-62.1 61.71-59.1 61.71-55.3C61.71-51.5 64.71-48.5 68.51-48.5ZM68.51-8.4C72.31-8.4 75.31-11.4 75.31-15.2C75.31-19 72.31-22 68.51-22C64.71-22 61.71-19 61.71-15.2C61.71-11.4 64.71-8.4 68.51-8.4ZM76.51-28.4C80.31-28.4 83.31-31.4 83.31-35.2C83.31-39 80.31-42 76.51-42C72.71-42 69.71-39 69.71-35.2C69.71-31.4 72.71-28.4 76.51-28.4ZM28.51-8.4C32.31-8.4 35.31-11.4 35.31-15.2C35.31-19 32.31-22 28.51-22C24.71-22 21.71-19 21.71-15.2C21.71-11.4 24.71-8.4 28.51-8.4ZM48.51-0.4C52.31-0.4 55.31-3.4 55.31-7.2C55.31-11 52.31-14 48.51-14C44.71-14 41.71-11 41.71-7.2C41.71-3.4 44.71-0.4 48.51-0.4ZM48.51-56.5C52.31-56.5 55.31-59.5 55.31-63.3C55.31-67.1 52.31-70.1 48.51-70.1C44.71-70.1 41.71-67.1 41.71-63.3C41.71-59.5 44.71-56.5 48.51-56.5ZM20.51-28.4C24.31-28.4 27.31-31.4 27.31-35.2C27.31-39 24.31-42 20.51-42C16.71-42 13.71-39 13.71-35.2C13.71-31.4 16.71-28.4 20.51-28.4ZM17.31 2.8C21.11 2.8 24.11-0.2 24.11-4C24.11-7.8 21.11-10.8 17.31-10.8C13.51-10.8 10.51-7.8 10.51-4C10.51-0.3 13.51 2.8 17.31 2.8Z"/>
  </g>
  <g id="Regular-S" transform="matrix(1 0 0 1 1403.39 696)">
   <path class="SFSymbolsPreviewWireframe" d="M90.46-31.2C92.66-31.2 94.46-33 94.46-35.2C94.46-37.4 92.66-39.2 90.46-39.2C88.26-39.2 86.46-37.4 86.46-35.2C86.46-33 88.26-31.2 90.46-31.2ZM2.46-31.2C4.66-31.2 6.46-33 6.46-35.2C6.46-37.4 4.66-39.2 2.46-39.2C0.26-39.2-1.54-37.4-1.54-35.2C-1.54-33 0.26-31.2 2.46-31.2ZM46.46 12.8C48.66 12.8 50.46 11 50.46 8.8C50.46 6.6 48.66 4.8 46.46 4.8C44.26 4.8 42.46 6.6 42.46 8.8C42.46 11 44.26 12.8 46.46 12.8ZM46.46-75.3C48.66-75.3 50.46-77.1 50.46-79.3C50.46-81.5 48.66-83.3 46.46-83.3C44.26-83.3 42.46-81.5 42.46-79.3C42.46-77 44.26-75.3 46.46-75.3ZM77.66-62.5C79.86-62.5 81.66-64.3 81.66-66.5C81.66-68.7 79.86-70.5 77.66-70.5C75.46-70.5 73.66-68.7 73.66-66.5C73.66-64.2 75.46-62.5 77.66-62.5ZM86.86-48.5C89.06-48.5 90.86-50.3 90.86-52.5C90.86-54.7 89.06-56.5 86.86-56.5C84.66-56.5 82.86-54.7 82.86-52.5C82.86-50.2 84.66-48.5 86.86-48.5ZM6.06-48.5C8.26-48.5 10.06-50.3 10.06-52.5C10.06-54.7 8.26-56.5 6.06-56.5C3.86-56.5 2.06-54.7 2.06-52.5C2.06-50.2 3.86-48.5 6.06-48.5ZM6.06-13.6C8.26-13.6 10.06-15.4 10.06-17.6C10.06-19.8 8.26-21.6 6.06-21.6C3.86-21.6 2.06-19.8 2.06-17.6C2.06-15.4 3.86-13.6 6.06-13.6ZM86.86-13.6C89.06-13.6 90.86-15.4 90.86-17.6C90.86-19.8 89.06-21.6 86.86-21.6C84.66-21.6 82.86-19.8 82.86-17.6C82.86-15.4 84.66-13.6 86.86-13.6ZM63.26-72.1C65.46-72.1 67.26-73.9 67.26-76.1C67.26-78.3 65.46-80.1 63.26-80.1C61.06-80.1 59.26-78.3 59.26-76.1C59.26-73.8 61.06-72.1 63.26-72.1ZM63.26 9.6C65.46 9.6 67.26 7.8 67.26 5.6C67.26 3.4 65.46 1.6 63.26 1.6C61.06 1.6 59.26 3.4 59.26 5.6C59.26 7.8 61.06 9.6 63.26 9.6ZM29.66-72.1C31.86-72.1 33.66-73.9 33.66-76.1C33.66-78.3 31.86-80.1 29.66-80.1C27.46-80.1 25.66-78.3 25.66-76.1C25.66-73.8 27.46-72.1 29.66-72.1ZM29.66 9.6C31.86 9.6 33.66 7.8 33.66 5.6C33.66 3.4 31.86 1.6 29.66 1.6C27.46 1.6 25.66 3.4 25.66 5.6C25.66 7.8 27.46 9.6 29.66 9.6ZM77.66 0C79.86 0 81.66-1.8 81.66-4C81.66-6.2 79.86-8 77.66-8C75.46-8 73.66-6.2 73.66-4C73.66-1.8 75.46 0 77.66 0ZM15.26-62.5C17.46-62.5 19.26-64.3 19.26-66.5C19.26-68.7 17.46-70.5 15.26-70.5C13.06-70.5 11.26-68.7 11.26-66.5C11.26-64.2 13.06-62.5 15.26-62.5ZM26.46-51.3C28.66-51.3 30.46-53.1 30.46-55.3C30.46-57.5 28.66-59.3 26.46-59.3C24.26-59.3 22.46-57.5 22.46-55.3C22.46-53.1 24.26-51.3 26.46-51.3ZM66.46-51.3C68.66-51.3 70.46-53.1 70.46-55.3C70.46-57.5 68.66-59.3 66.46-59.3C64.26-59.3 62.46-57.5 62.46-55.3C62.46-53.1 64.26-51.3 66.46-51.3ZM66.46-11.2C68.66-11.2 70.46-13 70.46-15.2C70.46-17.4 68.66-19.2 66.46-19.2C64.26-19.2 62.46-17.4 62.46-15.2C62.46-13 64.26-11.2 66.46-11.2ZM74.46-31.2C76.66-31.2 78.46-33 78.46-35.2C78.46-37.4 76.66-39.2 74.46-39.2C72.26-39.2 70.46-37.4 70.46-35.2C70.46-33 72.26-31.2 74.46-31.2ZM26.46-11.2C28.66-11.2 30.46-13 30.46-15.2C30.46-17.4 28.66-19.2 26.46-19.2C24.26-19.2 22.46-17.4 22.46-15.2C22.46-13 24.26-11.2 26.46-11.2ZM46.46-3.2C48.66-3.2 50.46-5 50.46-7.2C50.46-9.4 48.66-11.2 46.46-11.2C44.26-11.2 42.46-9.4 42.46-7.2C42.46-5 44.26-3.2 46.46-3.2ZM46.46-59.3C48.66-59.3 50.46-61.1 50.46-63.3C50.46-65.5 48.66-67.3 46.46-67.3C44.26-67.3 42.46-65.5 42.46-63.3C42.46-61 44.26-59.3 46.46-59.3ZM18.46-31.2C20.66-31.2 22.46-33 22.46-35.2C22.46-37.4 20.66-39.2 18.46-39.2C16.26-39.2 14.46-37.4 14.46-35.2C14.46-33 16.26-31.2 18.46-31.2ZM15.26 0C17.46 0 19.26-1.8 19.26-4C19.26-6.2 17.46-8 15.26-8C13.06-8 11.26-6.2 11.26-4C11.26-1.8 13.06 0 15.26 0Z"/>
  </g>
  <g id="Ultralight-S" transform="matrix(1 0 0 1 515.011 696)">
   <path class="SFSymbolsPreviewWireframe" d="M88.775-33.5C89.675-33.5 90.475-34.3 90.475-35.2C90.475-36.1 89.675-36.9 88.775-36.9C87.875-36.9 87.075-36.1 87.075-35.2C87.075-34.3 87.775-33.5 88.775-33.5ZM0.775-33.5C1.675-33.5 2.475-34.3 2.475-35.2C2.475-36.1 1.675-36.9 0.775-36.9C-0.125-36.9-0.925-36.1-0.925-35.2C-0.925-34.3-0.225-33.5 0.775-33.5ZM44.775 10.5C45.675 10.5 46.475 9.7 46.475 8.8C46.475 7.9 45.675 7.1 44.775 7.1C43.875 7.1 43.075 7.9 43.075 8.8C43.075 9.7 43.775 10.5 44.775 10.5ZM44.775-77.5C45.675-77.5 46.475-78.3 46.475-79.2C46.475-80.1 45.675-80.9 44.775-80.9C43.875-80.9 43.075-80.1 43.075-79.2C43.075-78.3 43.775-77.5 44.775-77.5ZM75.975-64.7C76.875-64.7 77.675-65.5 77.675-66.4C77.675-67.3 76.875-68.1 75.975-68.1C75.075-68.1 74.275-67.3 74.275-66.4C74.275-65.5 74.975-64.7 75.975-64.7ZM85.175-50.7C86.075-50.7 86.875-51.5 86.875-52.4C86.875-53.3 86.075-54.1 85.175-54.1C84.275-54.1 83.475-53.3 83.475-52.4C83.475-51.5 84.175-50.7 85.175-50.7ZM4.375-50.7C5.275-50.7 6.075-51.5 6.075-52.4C6.075-53.3 5.275-54.1 4.375-54.1C3.475-54.1 2.675-53.3 2.675-52.4C2.675-51.5 3.375-50.7 4.375-50.7ZM4.375-15.9C5.275-15.9 6.075-16.7 6.075-17.6C6.075-18.5 5.275-19.3 4.375-19.3C3.475-19.3 2.675-18.5 2.675-17.6C2.675-16.7 3.375-15.9 4.375-15.9ZM85.175-15.9C86.075-15.9 86.875-16.7 86.875-17.6C86.875-18.5 86.075-19.3 85.175-19.3C84.275-19.3 83.475-18.5 83.475-17.6C83.475-16.7 84.175-15.9 85.175-15.9ZM61.575-74.3C62.475-74.3 63.275-75.1 63.275-76C63.275-76.9 62.475-77.7 61.575-77.7C60.675-77.7 59.875-76.9 59.875-76C59.875-75.1 60.575-74.3 61.575-74.3ZM61.575 7.3C62.475 7.3 63.275 6.5 63.275 5.6C63.275 4.7 62.475 3.9 61.575 3.9C60.675 3.9 59.875 4.7 59.875 5.6C59.875 6.5 60.575 7.3 61.575 7.3ZM27.975-74.3C28.875-74.3 29.675-75.1 29.675-76C29.675-76.9 28.875-77.7 27.975-77.7C27.075-77.7 26.275-76.9 26.275-76C26.275-75.1 26.975-74.3 27.975-74.3ZM27.975 7.3C28.875 7.3 29.675 6.5 29.675 5.6C29.675 4.7 28.875 3.9 27.975 3.9C27.075 3.9 26.275 4.7 26.275 5.6C26.275 6.5 26.975 7.3 27.975 7.3ZM75.975-2.3C76.875-2.3 77.675-3.1 77.675-4C77.675-4.9 76.875-5.7 75.975-5.7C74.975-5.8 74.275-5 74.275-4C74.275-3.1 74.975-2.3 75.975-2.3ZM13.575-64.7C14.475-64.7 15.275-65.5 15.275-66.4C15.275-67.3 14.475-68.1 13.575-68.1C12.675-68.1 11.875-67.3 11.875-66.4C11.875-65.5 12.575-64.7 13.575-64.7ZM24.775-53.5C25.675-53.5 26.475-54.3 26.475-55.2C26.475-56.1 25.675-57 24.775-57C23.875-57 23.075-56.2 23.075-55.3C23.075-54.4 23.775-53.5 24.775-53.5ZM64.775-53.5C65.675-53.5 66.475-54.3 66.475-55.2C66.475-56.1 65.675-57 64.775-57C63.875-57 63.075-56.2 63.075-55.3C63.075-54.4 63.775-53.5 64.775-53.5ZM64.775-13.5C65.675-13.5 66.475-14.3 66.475-15.2C66.475-16.1 65.675-16.9 64.775-16.9C63.875-16.9 63.075-16.1 63.075-15.2C63.075-14.3 63.775-13.5 64.775-13.5ZM72.775-33.5C73.675-33.5 74.475-34.3 74.475-35.2C74.475-36.1 73.675-36.9 72.775-36.9C71.875-36.9 71.075-36.1 71.075-35.2C71.075-34.3 71.775-33.5 72.775-33.5ZM24.775-13.5C25.675-13.5 26.475-14.3 26.475-15.2C26.475-16.1 25.675-16.9 24.775-16.9C23.875-16.9 23.075-16.1 23.075-15.2C23.075-14.3 23.775-13.5 24.775-13.5ZM44.775-5.5C45.675-5.5 46.475-6.3 46.475-7.2C46.475-8.1 45.675-9 44.775-9C43.875-9 43.075-8.2 43.075-7.3C43.075-6.4 43.775-5.5 44.775-5.5ZM44.775-61.5C45.675-61.5 46.475-62.3 46.475-63.2C46.475-64.1 45.675-64.9 44.775-64.9C43.875-64.9 43.075-64.1 43.075-63.2C43.075-62.3 43.775-61.5 44.775-61.5ZM16.775-33.5C17.675-33.5 18.475-34.3 18.475-35.2C18.475-36.1 17.675-36.9 16.775-36.9C15.875-36.9 15.075-36.1 15.075-35.2C15.075-34.3 15.775-33.5 16.775-33.5ZM13.575-2.3C14.475-2.3 15.275-3.1 15.275-4C15.275-4.9 14.475-5.7 13.575-5.7C12.675-5.7 11.875-4.9 11.875-4C11.875-3.1 12.575-2.3 13.575-2.3Z"/>
  </g>
 </g>
</svg>
