<svg width="128" height="131" viewBox="0 0 128 131" fill="none" xmlns="http://www.w3.org/2000/svg">
<path d="M112.48 124.624L76.4714 113.544C82.3304 109.348 78.7324 104.508 67.7351 101.557C55.151 98.1752 35.2314 97.9776 21.2639 101.319C5.36663 105.124 1.92561 112.271 16.4337 117.018C31.4998 121.945 56.7436 121.428 70.7111 116.385L104.214 127.983L108.289 127.288C109.04 126.381 109.452 127.366 110.626 126.657C112.8 125.17 113.939 124.194 113.579 124.014H112.48V124.624Z" fill="#101619"/>
<path d="M117.369 36.4232C119.761 46.4247 115.821 56.7246 110.901 64.0782C106.474 70.6858 99.0061 75.3416 89.2282 76.5102C67.6618 79.0836 44.5783 63.7239 38.759 42.9127C32.9397 22.1015 45.7209 2.29106 66.2008 1.34623C85.8752 0.438688 110.77 17.9927 117.369 36.4232Z" fill="#8D2A00"/>
<path d="M115.927 31.2842C122.789 50.4419 112.437 68.4559 91.7823 70.9237C70.2159 73.4971 47.1324 58.1373 41.3131 37.3261C35.4938 16.5149 48.6059 0.98735 69.092 0.0425165C88.7665 -0.865021 109.334 12.8599 115.934 31.2842H115.927Z" fill="#C35500"/>
<path d="M111.326 31.6551C117.214 48.3203 108.085 63.8603 90.1776 65.9054C71.5834 68.025 51.7154 54.8036 46.6142 36.9015C41.694 19.6334 52.7144 5.32412 70.497 4.4228C87.6676 3.55877 105.637 15.5495 111.332 31.6551H111.326Z" fill="#D0C1CB"/>
<path d="M115.678 124.729L103.914 127.85L85.2263 68.3938L96.2467 67.1133L115.678 124.729Z" fill="#C35500"/>
<path d="M45.9958 23.4794L70.3157 4.43359C57.5408 5.14843 48.2936 12.7941 45.9958 23.4794Z" fill="#D0C1CB"/>
<path d="M90.1777 65.9118C105.975 64.1091 114.935 51.8077 112.787 37.4922L73.875 64.0718C79.1511 65.8247 84.7206 66.5334 90.1777 65.9118Z" fill="#D5DADD"/>
<path d="M92.1569 9.80694L92.1445 9.80078L92.1569 9.80694Z" fill="#D0C1CB"/>
<path d="M70.4902 4.42216C70.996 4.39744 71.4955 4.38509 72.0013 4.37891C71.4955 4.37891 70.996 4.39744 70.4902 4.42216Z" fill="#D0C1CB"/>
<path d="M86.8306 7.28125C86.9867 7.34341 87.1428 7.40557 87.2926 7.46773C87.1365 7.40557 86.9867 7.34341 86.8306 7.28125Z" fill="#D0C1CB"/>
<path d="M88.2485 7.86719C88.3547 7.91692 88.4608 7.96664 88.567 8.01016C88.4608 7.96043 88.3547 7.9107 88.2485 7.86719Z" fill="#D0C1CB"/>
<path d="M85.3945 6.73438C85.5694 6.79654 85.7504 6.85869 85.9253 6.92707C85.7504 6.85869 85.5756 6.79654 85.3945 6.73438Z" fill="#D0C1CB"/>
<path d="M75.6792 4.54688C75.9664 4.57159 76.2536 4.60249 76.5471 4.63956C76.2599 4.60866 75.9727 4.57777 75.6792 4.54688Z" fill="#D0C1CB"/>
<path d="M74.125 4.43359C74.4247 4.45213 74.7307 4.46449 75.0304 4.4892C74.7307 4.46449 74.4247 4.44595 74.125 4.43359Z" fill="#D0C1CB"/>
<path d="M77.2097 4.72266C77.4907 4.75973 77.7779 4.80298 78.0589 4.84624C77.7779 4.80298 77.4969 4.75973 77.2097 4.72266Z" fill="#D0C1CB"/>
<path d="M72.5068 4.39062C72.844 4.39062 73.1749 4.3968 73.5121 4.40916C73.1749 4.3968 72.8378 4.39062 72.5068 4.39062Z" fill="#D0C1CB"/>
<path d="M113.061 40.0802C112.137 21.5689 94.2733 6.76236 76.5407 4.55567C70.3718 3.99002 59.5262 3.99002 51.6527 12.5122C50.766 13.4694 49.9356 14.5883 49.1614 15.7694C49.0302 15.9683 48.9553 16.105 48.8367 16.2977C48.8179 16.3226 48.8117 16.3537 48.793 16.3847C58.1276 5.18971 73.0504 4.47487 86.2374 9.69631C99.8865 15.098 111.675 26.8649 113.061 40.0926V40.0802Z" fill="#8D2A00"/>
<path d="M67.3934 6.72852L45.9957 23.4869C45.1153 27.5894 45.2527 32.1333 46.6138 36.9072C46.7262 37.3051 46.8511 37.6967 46.9822 38.0883L88.3853 10.6073C81.6045 7.58011 74.2617 6.07584 67.3934 6.72852Z" fill="#D5DADD"/>
<path d="M80.7432 70.7482L87.1556 74.5338C87.1556 74.5338 85.8194 71.2331 90.2151 70.7793V70.7109C88.4543 70.9782 84.9078 71.3325 80.7432 70.742V70.7482Z" fill="#8D2A00"/>
<path d="M94.8735 70.1211C95.7664 70.1584 97.3274 70.8173 98.0704 72.7132L99.1319 69.2695C99.1319 69.2695 98.1516 69.7419 94.8735 70.1149V70.1211Z" fill="#8D2A00"/>
<path d="M103.915 127.854L86.3945 72.1768L87.5746 70.9957C87.5746 70.9957 89.8162 70.8652 92.3637 70.3555C92.3637 70.3555 91.4833 71.3438 91.7393 72.7113C92.7633 78.082 109.422 126.809 109.422 126.809L103.909 127.854H103.915Z" fill="#8D2A00"/>
<path d="M115.678 124.729C115.678 125.375 112.643 126.451 107.679 127.725C105.225 128.216 104.02 128.154 103.914 127.849C103.839 127.632 105.182 126.793 107.617 126.01C111.263 124.872 115.265 124.232 115.678 124.729Z" fill="#8D2A00"/>
<path d="M94.2537 29.4391L87.4393 24.2771C87.0465 23.979 86.5415 23.8237 86.0739 23.8609C85.6063 23.8982 85.226 24.1218 85.039 24.4635L81.7409 30.4889C81.3918 31.1287 81.7721 31.9922 82.595 32.4146C83.418 32.837 84.3657 32.6568 84.7148 32.017L86.2173 29.2403L91.7287 46.3539C91.9781 47.1366 92.8821 47.7018 93.7487 47.6149C94.6153 47.5279 95.1016 46.8322 94.8523 46.0557L89.3159 29.0043L92.4145 31.3524C92.8323 31.6692 93.3373 31.8058 93.7861 31.7686C94.1228 31.7375 94.4283 31.6133 94.6465 31.3834C95.1515 30.8554 94.977 29.9858 94.2537 29.4391Z" fill="#00144A"/>
<path d="M78.691 41.2599C77.8555 40.8375 76.8954 41.0239 76.5338 41.6823L74.9627 44.5584L69.6321 27.3268C69.3952 26.5628 68.4974 26.0037 67.6246 26.0721C66.7517 26.1404 66.2343 26.8175 66.4649 27.5877L71.7581 44.8379L68.5847 42.4215C67.8428 41.8563 66.8078 41.85 66.2592 42.4029C65.7105 42.9557 65.8726 43.8627 66.6146 44.4279L73.6347 49.7763C74.0462 50.0869 74.5637 50.2422 75.05 50.1925C75.5363 50.1428 75.9353 49.9005 76.1348 49.534L79.5514 43.2228C79.9067 42.5644 79.5202 41.6823 78.6848 41.2599H78.691Z" fill="#00144A"/>
</svg>
