<svg width="160" height="220" viewBox="0 0 160 220" fill="none" xmlns="http://www.w3.org/2000/svg">
<circle cx="79.9998" cy="84.406" r="77.0916" fill="#EBF8FF"/>
<path fill-rule="evenodd" clip-rule="evenodd" d="M20.8298 133.827C19.6983 125.337 19.0986 116.469 19.0986 107.346V107.346H142.421V107.346C142.421 115.669 141.922 123.78 140.975 131.585C126.874 149.784 104.805 161.499 79.9999 161.499C56.2292 161.499 34.9713 150.741 20.8298 133.827Z" fill="#D1EFFF"/>
<path fill-rule="evenodd" clip-rule="evenodd" d="M126.674 145.769C129.123 133.795 130.478 120.853 130.518 107.346H142.421V107.346C142.421 115.669 141.922 123.779 140.975 131.585C136.847 136.912 132.036 141.684 126.674 145.769Z" fill="#B8E6FF"/>
<ellipse cx="80.7603" cy="107.345" rx="61.6612" ry="12.0753" fill="#9EDDFF"/>
<ellipse cx="8.73676" cy="10.799" rx="8.73676" ry="10.799" transform="matrix(-0.877901 -0.478843 -0.478843 0.877901 43.123 50.9609)" fill="#B8E6FF"/>
<path fill-rule="evenodd" clip-rule="evenodd" d="M19.0988 88.0599L19.0986 88.0599C19.0986 54.7312 46.7053 27.7129 80.7598 27.7129C114.805 27.7129 142.406 54.7162 142.421 88.0322C142.421 88.0414 142.421 88.0507 142.421 88.0599C142.421 94.729 114.815 100.135 80.76 100.135C46.7054 100.135 19.0988 94.729 19.0988 88.0599Z" fill="#D1EFFF"/>
<path fill-rule="evenodd" clip-rule="evenodd" d="M120.112 80.1983C120.112 80.2556 120.112 80.3128 120.112 80.3701H120.102C119.636 84.5468 102.201 87.9046 80.7606 87.9046C59.3207 87.9046 41.8854 84.5468 41.4188 80.3701H41.4099C41.4097 80.3233 41.4095 80.2764 41.4095 80.2296C41.4093 80.2191 41.4092 80.2087 41.4092 80.1982C41.4092 80.1877 41.4093 80.1773 41.4095 80.1668C41.4269 58.9113 59.0385 41.6855 80.7609 41.6855C102.494 41.6855 120.112 58.9283 120.112 80.1983Z" fill="#9EDDFF"/>
<rect x="52.2817" y="5.35938" width="5.40729" height="36.325" rx="2.70364" fill="#9EDDFF"/>
<rect x="103.831" y="2.39258" width="5.40729" height="39.2926" rx="2.70364" fill="#9EDDFF"/>
<circle cx="54.9852" cy="10.2938" r="7.90127" fill="#D1EFFF"/>
<path fill-rule="evenodd" clip-rule="evenodd" d="M51.8928 16.0342C56.2566 16.0342 59.7941 12.4967 59.7941 8.13291C59.7941 6.13546 59.0529 4.31111 57.8305 2.91992C60.7885 4.06197 62.8868 6.9327 62.8868 10.2935C62.8868 14.6573 59.3493 18.1948 54.9856 18.1948C52.6193 18.1948 50.4959 17.1546 49.0479 15.5065C49.9306 15.8473 50.8899 16.0342 51.8928 16.0342Z" fill="#B8E6FF"/>
<circle cx="106.535" cy="10.2938" r="7.90127" fill="#5D36FF"/>
<circle cx="66.7901" cy="64.794" r="5.50496" fill="white"/>
<circle cx="94.7296" cy="64.794" r="5.50496" fill="#64EDD2"/>
<ellipse cx="130.633" cy="56.2579" rx="8.73676" ry="10.799" transform="rotate(-28.6099 130.633 56.2579)" fill="#0070F2"/>
<path fill-rule="evenodd" clip-rule="evenodd" d="M63.4521 99.6531V30.1226C68.9432 28.554 74.7512 27.7129 80.7599 27.7129C114.814 27.7129 142.421 54.7312 142.421 88.0599L142.421 88.0599C142.421 94.729 114.814 100.135 80.7597 100.135C74.7511 100.135 68.9431 99.967 63.4521 99.6531Z" fill="#0070F2"/>
<path fill-rule="evenodd" clip-rule="evenodd" d="M130.055 95.315C130.488 92.4384 130.712 89.4956 130.712 86.5017C130.712 57.7042 109.971 33.6328 82.2671 27.7305C115.625 28.5136 142.421 55.2242 142.421 88.0598L142.421 88.0598C142.421 90.7827 137.819 93.2951 130.055 95.315Z" fill="#005DC9"/>
<path fill-rule="evenodd" clip-rule="evenodd" d="M63.4521 87.1211V45.6014C68.6756 43.0936 74.5501 41.6855 80.7607 41.6855C102.494 41.6855 120.112 58.9283 120.112 80.1983C120.112 80.2556 120.112 80.3128 120.112 80.3701H120.102C119.635 84.5468 102.2 87.9046 80.7602 87.9046C74.5498 87.9046 68.6754 87.6228 63.4521 87.1211Z" fill="#00144A"/>
<rect x="103.831" y="5.35938" width="5.40729" height="36.325" rx="2.70364" fill="#A9B4BE"/>
<circle cx="106.534" cy="10.2938" r="7.90127" fill="#0070F2"/>
<path fill-rule="evenodd" clip-rule="evenodd" d="M102.93 16.3111C107.294 16.3111 110.831 12.7736 110.831 8.40986C110.831 6.10377 109.843 4.02843 108.268 2.58398C111.798 3.37404 114.436 6.52623 114.436 10.2946C114.436 14.6583 110.898 18.1958 106.534 18.1958C104.477 18.1958 102.603 17.4093 101.197 16.1204C101.755 16.2453 102.335 16.3111 102.93 16.3111Z" fill="#005DC9"/>
<path fill-rule="evenodd" clip-rule="evenodd" d="M63.4521 69.1722V60.4159C64.3781 59.7089 65.5349 59.2891 66.7898 59.2891C69.8301 59.2891 72.2947 61.7537 72.2947 64.794C72.2947 67.8343 69.8301 70.299 66.7898 70.299C65.5349 70.299 64.3781 69.8791 63.4521 69.1722Z" fill="#64EDD2"/>
<circle cx="94.7296" cy="64.794" r="5.50496" fill="#64EDD2"/>
<path fill-rule="evenodd" clip-rule="evenodd" d="M74.1511 77.4986C74.4921 76.8943 75.2584 76.6808 75.8627 77.0218C78.9021 78.7367 82.6172 78.7367 85.6566 77.0218C86.2609 76.6808 87.0272 76.8943 87.3682 77.4986C87.7092 78.1029 87.4957 78.8692 86.8914 79.2102C83.0856 81.3575 78.4338 81.3575 74.628 79.2102C74.0237 78.8692 73.8102 78.1029 74.1511 77.4986Z" fill="#A9B4BE"/>
<rect x="59.3105" y="106.705" width="86.3342" height="4.55101" rx="2.27551" transform="rotate(-90 59.3105 106.705)" fill="#F58B00"/>
</svg>
