<svg width="160" height="161" viewBox="0 0 160 161" fill="none" xmlns="http://www.w3.org/2000/svg">
<rect y="46" width="160" height="69" rx="12" fill="#222F3B"/>
<path d="M72.2078 51.1638C71.5774 51.6264 70.8911 52.0076 70.21 52.3838C66.8091 54.2698 63.4082 56.1558 60.0074 58.0417C59.1991 58.4891 58.2485 58.9669 57.6588 59.704C56.9471 60.5987 56.7438 61.8594 56.2303 62.8711C55.7169 63.8928 52.9769 69.688 52.8041 70.5471C52.738 70.8877 52.372 73.4295 52.0314 73.6481L40.8477 74.7308L40.929 79.5653C40.929 79.5653 39.1549 79.6923 37.6959 79.7279C35.9116 79.7737 34.9254 80.8005 34.7678 82.3103L36.547 105.781C36.6182 106.706 36.8012 107.316 37.4926 107.901L39.2362 109.527C39.648 109.893 40.1868 110.132 40.7765 110.168L73.6718 111.962C74.9935 112.034 75.8882 111.235 76.2898 109.766L80.9412 87.8056C81.0835 86.3822 80.0669 85.1571 78.6638 85.0808L75.8069 84.9233C75.934 83.5355 75.0189 82.3815 73.6617 82.3002L72.5738 82.2341L70.8251 70.903L64.1199 71.7011C64.6639 70.7251 65.2739 69.0221 65.4213 68.6967C65.8992 67.6648 70.5658 66.0584 73.1838 63.8166C75.8018 61.5798 76.7727 60.8834 76.7727 60.8834L78.2978 60.065C78.5215 60.4615 78.7146 60.7157 78.857 60.7817C79.5534 61.102 80.9158 60.1158 81.7749 59.4041C81.9223 59.5922 82.0748 59.7701 82.2273 59.9175C82.2273 59.9175 83.361 61.2494 84.1184 61.2494C84.1184 61.2494 84.1184 61.2494 84.1235 61.2494H84.1286H84.1387C84.1387 61.2494 84.154 61.2342 84.1642 61.2291L101.423 45.9023H80.3363C77.0676 48.0222 72.223 51.1536 72.2027 51.1688L72.2129 51.1587L72.2078 51.1638Z" fill="#101619"/>
<path d="M73.2128 85.721L73.2484 83.0979C73.4263 81.8423 72.6028 80.7595 71.4081 80.6833L57.2404 79.8089C56.0357 79.7326 54.9376 80.7036 54.7953 81.9643L54.841 84.1451L51.003 83.9113C49.2746 83.8045 47.7191 85.1821 47.5259 86.9766L49.6355 114.809C49.722 115.907 49.9355 116.634 50.759 117.325L52.8229 119.252L93.3587 122.027C94.9701 122.114 96.8765 118.982 97.1815 117.361L96.1597 90.3622C96.4749 88.5932 95.3565 87.063 93.6535 86.9614L73.2128 85.7159V85.721Z" fill="#00144A"/>
<path d="M91.6352 88.937L52.716 86.8477C52.3601 86.8477 52.1924 87.0052 52.1924 87.4018L52.4059 114.238C52.4059 114.842 52.899 115.356 53.4938 115.391L91.864 117.481C92.4588 117.511 92.9366 117.049 92.9315 116.449L92.718 90.0909C92.718 89.486 92.2249 88.9726 91.6301 88.937H91.6352Z" fill="#4D82B8"/>
<path d="M62.3597 95.0016L93.4809 91.4991L90.1918 70.1992L59.7976 74.6371L62.3597 95.0016Z" fill="#D0CDB3"/>
<path d="M79.1961 84.1992C79.1961 84.1992 81.2753 85.1142 80.7974 87.4933L92.9622 88.1288L93.4807 90.9247H77.8032L79.1961 84.1992Z" fill="#D0B863"/>
<path d="M73.9195 65.6843L72.4809 71.754C72.3995 72.1047 72.3639 72.4758 72.3843 72.8368L75.1904 72.4352L75.653 70.8593C75.653 70.8593 76.9848 67.6109 76.8628 65.5725C76.8018 64.5202 76.08 64.3321 75.3988 64.3931C74.682 64.4592 74.0872 64.9828 73.9195 65.6843Z" fill="#450B00"/>
<path d="M77.0255 63.8976L75.5208 70.2316C75.4547 70.5061 75.4191 70.7857 75.414 71.0653L75.3784 72.3972L78.0676 72.0108L78.7234 69.2098C78.7234 69.2098 80.0552 65.9615 79.9332 63.923C79.8621 62.7233 78.9318 62.647 78.1794 62.7843C77.6101 62.891 77.1576 63.3231 77.0204 63.8874V63.8976H77.0255Z" fill="#450B00"/>
<path d="M104.161 56.7302C104.161 56.7302 105.564 58.3772 106.49 58.362C107.059 58.362 104.415 51.3061 102.306 45.9023H99.1235C100.338 49.8726 102.148 54.7527 104.161 56.7302Z" fill="#00144A"/>
<path d="M91.8795 46.0005C91.1068 46.5648 90.2681 47.0324 89.4293 47.495C85.2608 49.808 81.0924 52.121 76.9239 54.434C75.9326 54.983 74.7685 55.5676 74.0466 56.4725C73.1723 57.5705 72.9232 59.1159 72.2979 60.3563C71.6676 61.6068 68.3074 68.7135 68.0989 69.7658C68.0125 70.1979 67.5347 73.5276 67.1077 73.5937L72.1708 72.8668L73.1977 69.0287L81.5041 65.5923C80.7924 66.6598 80.34 67.1326 78.4337 69.6387C76.5274 72.1449 76.197 74.8849 78.5354 76.232C80.8738 77.5842 85.0931 69.2931 85.6828 68.0324C86.2674 66.7666 89.8919 65.2669 93.0996 62.5218C96.3124 59.7768 97.5781 57.5248 97.5781 57.5248L110.226 50.718L109.682 45.9141H91.9965C91.9558 45.9446 91.91 45.9801 91.8694 46.0106L91.8795 46.0005Z" fill="#FFAB92"/>
<path d="M102.347 52.4789C101.157 52.4484 99.9522 52.6009 98.8389 53.0229C98.2798 53.2313 97.7511 53.5109 97.2631 53.8515C97.014 54.0243 96.7547 54.2073 96.5615 54.4462C96.2159 54.8732 95.9668 55.3816 95.7177 55.8696C95.372 56.5508 95.0517 57.2472 94.7162 57.9335C94.0401 59.3366 93.3589 60.8057 92.3778 62.0257C91.7627 62.7882 88.677 64.5726 87.9755 65.2283C87.3401 65.8231 86.6691 66.3823 86.0336 66.977C85.3778 67.5972 84.7475 68.2632 84.3459 69.0816C83.985 69.8187 83.7257 70.7744 83.0242 71.2624C82.7853 71.4302 82.5311 71.5217 82.2667 71.5827C81.855 71.6793 81.7381 72.208 82.0736 72.452C82.1854 72.5333 82.2718 72.6096 82.2972 72.6756C82.3938 72.9095 80.1927 75.7613 79.7708 76.2036C82.16 75.6292 85.0728 69.5442 85.5914 68.4258C86.176 67.1601 89.8005 65.6604 93.0082 62.9153C96.2159 60.1702 97.4816 57.9183 97.4816 57.9183L106.357 53.1398C105.051 52.7483 103.704 52.4993 102.347 52.4688V52.4789Z" fill="#C35500"/>
<path d="M78.8863 69.0637C78.9981 68.9518 79.3642 68.7637 79.4862 68.6671C80.0962 68.1893 80.4469 67.686 80.879 67.1523C81.3213 66.6032 81.7636 66.0034 82.0279 65.3425C82.3024 64.6512 82.4143 63.8277 82.1347 63.121C81.9974 62.7754 81.7636 62.4805 81.4586 62.267C81.2552 62.1298 80.9756 61.8349 80.7519 61.7383C80.1877 61.4892 79.6336 61.1944 79.0286 61.0622C78.6016 60.9656 78.1797 60.8894 77.7374 60.8792C77.3308 60.8691 77.0868 61.1029 77.1325 61.4842C77.1783 61.8603 77.3613 62.3026 77.4477 62.7245C77.5493 63.2278 77.5341 63.6396 77.1325 63.9547C76.9088 64.1327 76.5276 64.2089 76.2632 64.3258C74.9161 64.8901 74.3264 66.2881 73.3046 67.3403C72.7759 67.8843 72.2574 68.5146 71.7135 69.0484C71.5305 69.2263 71.3526 69.4246 71.2509 69.6584C71.1289 69.9482 71.1289 70.2786 71.0933 70.5887C70.951 71.8189 70.1834 72.3273 69.5276 73.2474L72.1761 72.8661L73.2995 69.4805L81.5196 65.5967C80.9197 66.4914 80.1216 67.4725 78.8863 69.0738V69.0637Z" fill="#FF7F4C"/>
<path d="M78.1642 72.3534C78.332 72.1907 78.5912 72.1755 78.7844 72.3076C79.2063 72.5974 80.1519 73.0956 80.7365 73.3955C81.0262 73.5429 81.1533 73.8835 81.0313 74.1784C80.6348 75.1544 79.7249 76.7455 78.4845 76.2931C77.0662 75.7746 76.2478 74.1784 78.1591 72.3534H78.1642Z" fill="#FF7F4C"/>
<path d="M100.028 57.7977C101.325 58.3925 104.543 55.2712 104.543 55.2712L110.221 51.972L109.54 45.9023H94.9297C96.3124 49.8268 99.0727 57.3555 100.034 57.7926H100.028V57.7977Z" fill="#D5DADD"/>
<path d="M100.186 45.9023C102.535 51.0163 105.722 57.7469 106.495 58.362L125.69 45.9023H100.181H100.186Z" fill="#3B5B7C"/>
<path d="M123.112 45.9023C122.07 46.6344 121.008 47.3308 119.91 47.9764C118.715 48.6779 117.49 49.3337 116.199 49.8421C114.857 50.3707 113.459 50.7774 112.025 50.9553C110.592 51.1383 109.128 51.0875 107.704 50.8232C106.372 50.5741 105.066 50.1623 103.856 49.5472C102.778 48.9982 101.782 48.2967 100.897 47.4681C103.134 52.2974 105.788 57.813 106.484 58.3671L125.69 45.9023H123.112Z" fill="#00144A"/>
<path d="M79.8974 89.1834L80.3448 86.2604C80.4159 85.0607 79.5365 84.0338 78.3724 83.9728L64.6622 83.2255C63.4981 83.1645 62.5271 84.0897 62.4915 85.2894L61.9222 88.2073L58.2265 88.004C56.5642 87.9125 55.1916 89.224 55.1611 90.9219L51.8467 117.087C51.8263 118.622 53.082 119.928 54.6528 120.015L93.6635 122.14C95.2292 122.226 96.2917 121.275 96.7695 119.537L102.285 93.4942C102.458 91.8065 101.248 90.3526 99.5858 90.2611L79.9025 89.1885L79.8974 89.1834Z" fill="#046C7C"/>
<path d="M82.8399 113.534L69.6991 112.818C69.2314 112.792 68.9111 112.396 68.9823 111.938C69.0535 111.481 69.4957 111.125 69.9634 111.15L83.1043 111.867C83.5719 111.892 83.8922 112.289 83.821 112.747C83.7499 113.204 83.3076 113.56 82.8399 113.534ZM76.938 109.01C76.4703 108.985 76.15 108.588 76.2212 108.131L77.6293 99.3058L74.8944 101.502C74.5131 101.807 73.9743 101.776 73.6947 101.436C73.4202 101.095 73.5015 100.561 73.8828 100.256L78.2851 96.7233C78.4681 96.5759 78.7172 96.4946 78.9307 96.5048C79.1747 96.52 79.3628 96.6217 79.495 96.7894L82.7128 100.749C82.9873 101.09 82.906 101.624 82.5247 101.929C82.1435 102.234 81.6046 102.203 81.325 101.863L79.3323 99.4125L77.9242 108.237C77.853 108.695 77.4107 109.051 76.9431 109.025L76.9329 109.015L76.938 109.01Z" fill="#D0CDB3"/>
</svg>
