<?xml version="1.0" encoding="UTF-8"?>
<!--Generator: Apple Native CoreSVG 341-->
<!DOCTYPE svg
PUBLIC "-//W3C//DTD SVG 1.1//EN"
       "http://www.w3.org/Graphics/SVG/1.1/DTD/svg11.dtd">
<svg version="1.1" xmlns="http://www.w3.org/2000/svg" xmlns:xlink="http://www.w3.org/1999/xlink" viewBox="0 0 3300 2200">
 <!--glyph: "", point size: 100.0, font version: "21.0d4e1", template writer version: "138.0.0"-->
 <style>.defaults {-sfsymbols-draw-reverses-motion-groups:true}

.monochrome-0 {-sfsymbols-motion-group:1;-sfsymbols-layer-tags:1d0bd4e9da2bb379}
.monochrome-1 {-sfsymbols-motion-group:0;-sfsymbols-layer-tags:1d0bd4e9da2bb379}

.multicolor-0:tintColor {-sfsymbols-motion-group:1;-sfsymbols-layer-tags:1d0bd4e9da2bb379}
.multicolor-1:tintColor {-sfsymbols-motion-group:0;-sfsymbols-layer-tags:1d0bd4e9da2bb379}

.hierarchical-0:primary {-sfsymbols-motion-group:1;-sfsymbols-layer-tags:1d0bd4e9da2bb379}
.hierarchical-1:primary {-sfsymbols-motion-group:0;-sfsymbols-layer-tags:1d0bd4e9da2bb379}

.SFSymbolsPreviewWireframe {fill:none;opacity:1.0;stroke:black;stroke-width:0.5}
</style>
 <g id="Notes">
  <rect height="2200" id="artboard" style="fill:white;opacity:1" width="3300" x="0" y="0"/>
  <line style="fill:none;stroke:black;opacity:1;stroke-width:0.5;" x1="263" x2="3036" y1="292" y2="292"/>
  <text style="stroke:none;fill:black;font-family:sans-serif;font-size:13;font-weight:bold;" transform="matrix(1 0 0 1 263 322)">Weight/Scale Variations</text>
  <text style="stroke:none;fill:black;font-family:sans-serif;font-size:13;text-anchor:middle;" transform="matrix(1 0 0 1 559.711 322)">Ultralight</text>
  <text style="stroke:none;fill:black;font-family:sans-serif;font-size:13;text-anchor:middle;" transform="matrix(1 0 0 1 856.422 322)">Thin</text>
  <text style="stroke:none;fill:black;font-family:sans-serif;font-size:13;text-anchor:middle;" transform="matrix(1 0 0 1 1153.13 322)">Light</text>
  <text style="stroke:none;fill:black;font-family:sans-serif;font-size:13;text-anchor:middle;" transform="matrix(1 0 0 1 1449.84 322)">Regular</text>
  <text style="stroke:none;fill:black;font-family:sans-serif;font-size:13;text-anchor:middle;" transform="matrix(1 0 0 1 1746.56 322)">Medium</text>
  <text style="stroke:none;fill:black;font-family:sans-serif;font-size:13;text-anchor:middle;" transform="matrix(1 0 0 1 2043.27 322)">Semibold</text>
  <text style="stroke:none;fill:black;font-family:sans-serif;font-size:13;text-anchor:middle;" transform="matrix(1 0 0 1 2339.98 322)">Bold</text>
  <text style="stroke:none;fill:black;font-family:sans-serif;font-size:13;text-anchor:middle;" transform="matrix(1 0 0 1 2636.69 322)">Heavy</text>
  <text style="stroke:none;fill:black;font-family:sans-serif;font-size:13;text-anchor:middle;" transform="matrix(1 0 0 1 2933.4 322)">Black</text>
  <line style="fill:none;stroke:black;opacity:1;stroke-width:0.5;" x1="263" x2="3036" y1="1903" y2="1903"/>
  <g transform="matrix(0.2 0 0 0.2 263 1933)">
   <path d="m46.2402 4.15039c21.7773 0 39.4531-17.627 39.4531-39.4043s-17.6758-39.4043-39.4531-39.4043c-21.7285 0-39.4043 17.627-39.4043 39.4043s17.6758 39.4043 39.4043 39.4043Zm0-7.42188c-17.6758 0-31.9336-14.3066-31.9336-31.9824s14.2578-31.9824 31.9336-31.9824 31.9824 14.3066 31.9824 31.9824-14.3066 31.9824-31.9824 31.9824Zm3.61328-17.7734v-28.4668c0-2.24609-1.46484-3.75977-3.71094-3.75977-2.14844 0-3.61328 1.51367-3.61328 3.75977v28.4668c0 2.19727 1.46484 3.71094 3.61328 3.71094 2.24609 0 3.71094-1.51367 3.71094-3.71094Zm-17.8223-10.5957h28.418c2.19727 0 3.71094-1.46484 3.71094-3.61328 0-2.19727-1.51367-3.71094-3.71094-3.71094h-28.418c-2.24609 0-3.75977 1.51367-3.75977 3.71094 0 2.14844 1.51367 3.61328 3.75977 3.61328Z"/>
  </g>
  <g transform="matrix(0.2 0 0 0.2 281.506 1933)">
   <path d="m58.5449 14.5508c27.4902 0 49.8047-22.3145 49.8047-49.8047s-22.3145-49.8047-49.8047-49.8047-49.8047 22.3145-49.8047 49.8047 22.3145 49.8047 49.8047 49.8047Zm0-8.30078c-22.9492 0-41.5039-18.5547-41.5039-41.5039s18.5547-41.5039 41.5039-41.5039 41.5039 18.5547 41.5039 41.5039-18.5547 41.5039-41.5039 41.5039Zm4.05273-23.0957v-36.9141c0-2.49023-1.70898-4.19922-4.15039-4.19922-2.39258 0-4.05273 1.70898-4.05273 4.19922v36.9141c0 2.44141 1.66016 4.15039 4.05273 4.15039 2.44141 0 4.15039-1.66016 4.15039-4.15039Zm-22.5586-14.4043h36.9629c2.44141 0 4.15039-1.61133 4.15039-4.00391 0-2.44141-1.70898-4.15039-4.15039-4.15039h-36.9629c-2.49023 0-4.15039 1.70898-4.15039 4.15039 0 2.39258 1.66016 4.00391 4.15039 4.00391Z"/>
  </g>
  <g transform="matrix(0.2 0 0 0.2 304.924 1933)">
   <path d="m74.8535 28.3203c35.1074 0 63.623-28.4668 63.623-63.5742s-28.5156-63.623-63.623-63.623-63.5742 28.5156-63.5742 63.623 28.4668 63.5742 63.5742 63.5742Zm0-9.08203c-30.127 0-54.4922-24.3652-54.4922-54.4922s24.3652-54.4922 54.4922-54.4922 54.4922 24.3652 54.4922 54.4922-24.3652 54.4922-54.4922 54.4922Zm4.44336-30.3223v-48.4863c0-2.73438-1.85547-4.63867-4.54102-4.63867-2.58789 0-4.44336 1.9043-4.44336 4.63867v48.4863c0 2.68555 1.85547 4.58984 4.44336 4.58984 2.68555 0 4.54102-1.85547 4.54102-4.58984Zm-28.7109-19.7754h48.4863c2.68555 0 4.58984-1.80664 4.58984-4.39453 0-2.73438-1.85547-4.58984-4.58984-4.58984h-48.4863c-2.73438 0-4.58984 1.85547-4.58984 4.58984 0 2.58789 1.85547 4.39453 4.58984 4.39453Z"/>
  </g>
  <text style="stroke:none;fill:black;font-family:sans-serif;font-size:13;font-weight:bold;" transform="matrix(1 0 0 1 263 1953)">Design Variations</text>
  <text style="stroke:none;fill:black;font-family:sans-serif;font-size:13;" transform="matrix(1 0 0 1 263 1971)">Symbols are supported in up to nine weights and three scales.</text>
  <text style="stroke:none;fill:black;font-family:sans-serif;font-size:13;" transform="matrix(1 0 0 1 263 1989)">For optimal layout with text and other symbols, vertically align</text>
  <text style="stroke:none;fill:black;font-family:sans-serif;font-size:13;" transform="matrix(1 0 0 1 263 2007)">symbols with the adjacent text.</text>
  <line style="fill:none;stroke:#00AEEF;stroke-width:0.5;opacity:1.0;" x1="776" x2="776" y1="1919" y2="1933"/>
  <g transform="matrix(0.2 0 0 0.2 776 1933)">
   <path d="m16.5527 0.78125c2.58789 0 3.85742-0.976562 4.78516-3.71094l20.5566-57.5195h0.244141l20.6055 57.5195c0.927734 2.73438 2.19727 3.71094 4.73633 3.71094 2.58789 0 4.24805-1.5625 4.24805-4.00391 0-0.830078-0.146484-1.61133-0.537109-2.63672l-22.9004-60.9863c-1.12305-2.97852-3.125-4.49219-6.25-4.49219-3.02734 0-5.07812 1.46484-6.15234 4.44336l-22.9004 61.084c-0.390625 1.02539-0.537109 1.80664-0.537109 2.63672 0 2.44141 1.5625 3.95508 4.10156 3.95508Zm10.2051-20.9473h30.6641c2.00195 0 3.66211-1.66016 3.66211-3.66211 0-2.05078-1.66016-3.66211-3.66211-3.66211h-30.6641c-2.00195 0-3.66211 1.61133-3.66211 3.66211 0 2.00195 1.66016 3.66211 3.66211 3.66211Z"/>
  </g>
  <line style="fill:none;stroke:#00AEEF;stroke-width:0.5;opacity:1.0;" x1="792.836" x2="792.836" y1="1919" y2="1933"/>
  <text style="stroke:none;fill:black;font-family:sans-serif;font-size:13;font-weight:bold;" transform="matrix(1 0 0 1 776 1953)">Margins</text>
  <text style="stroke:none;fill:black;font-family:sans-serif;font-size:13;" transform="matrix(1 0 0 1 776 1971)">Leading and trailing margins on the left and right side of each symbol</text>
  <text style="stroke:none;fill:black;font-family:sans-serif;font-size:13;" transform="matrix(1 0 0 1 776 1989)">can be adjusted by modifying the x-location of the margin guidelines.</text>
  <text style="stroke:none;fill:black;font-family:sans-serif;font-size:13;" transform="matrix(1 0 0 1 776 2007)">Modifications are automatically applied proportionally to all</text>
  <text style="stroke:none;fill:black;font-family:sans-serif;font-size:13;" transform="matrix(1 0 0 1 776 2025)">scales and weights.</text>
  <g transform="matrix(0.2 0 0 0.2 1289 1933)">
   <path d="m14.209 13.1348 7.86133 7.86133c4.29688 4.39453 9.32617 4.10156 13.8672-1.02539l60.6934-68.2129-4.88281-4.88281-60.2539 67.6758c-1.80664 1.95312-3.4668 2.44141-5.81055 0.0976562l-5.17578-5.12695c-2.29492-2.29492-1.80664-3.95508 0.195312-5.81055l67.4805-62.1582-4.88281-4.83398-68.0664 62.5977c-4.98047 4.58984-5.32227 9.47266-1.02539 13.8184Zm44.873-97.4609c-2.05078 2.00195-2.24609 4.88281-1.07422 6.78711 1.12305 1.80664 3.4668 3.02734 6.5918 2.24609 5.85938-1.66016 12.5977-2.39258 18.8965 0.927734l-2.68555 7.12891c-1.61133 4.00391-0.732422 6.88477 1.70898 9.42383l10.2539 10.3027c2.34375 2.39258 4.54102 2.44141 7.08008 1.95312l4.44336-0.732422 2.58789 2.53906-0.195312 2.24609c-0.0976562 2.29492 0.537109 4.29688 2.7832 6.49414l3.36914 3.32031c2.29492 2.29492 5.51758 2.49023 7.8125 0.195312l12.9883-13.0371c2.29492-2.34375 2.14844-5.37109-0.195312-7.66602l-3.41797-3.41797c-2.19727-2.19727-4.05273-3.02734-6.34766-2.88086l-2.34375 0.244141-2.44141-2.44141 1.02539-4.6875c0.634766-2.73438-0.244141-4.98047-2.88086-7.61719l-11.2793-11.1816c-12.9395-12.8418-35.5957-11.0352-46.6797-0.146484Zm7.08008 2.05078c8.78906-6.39648 25.9766-5.66406 33.6914 1.95312l12.3047 12.207c1.02539 1.02539 1.2207 1.80664 0.927734 3.32031l-1.46484 6.64062 6.73828 6.68945 4.39453-0.244141c1.12305-0.0488281 1.51367 0.0488281 2.34375 0.878906l2.53906 2.49023-10.8398 10.8398-2.49023-2.49023c-0.830078-0.878906-0.976562-1.2207-0.927734-2.39258l0.292969-4.3457-6.68945-6.73828-6.83594 1.17188c-1.41602 0.292969-2.05078 0.195312-3.17383-0.878906l-8.93555-8.88672c-1.07422-1.02539-1.17188-1.70898-0.488281-3.36914l4.58984-11.4746c-6.10352-6.34766-17.041-7.51953-25.5859-4.58984-0.683594 0.244141-0.927734-0.390625-0.390625-0.78125Z"/>
  </g>
  <text style="stroke:none;fill:black;font-family:sans-serif;font-size:13;font-weight:bold;" transform="matrix(1 0 0 1 1289 1953)">Exporting</text>
  <text style="stroke:none;fill:black;font-family:sans-serif;font-size:13;" transform="matrix(1 0 0 1 1289 1971)">Symbols should be outlined when exporting to ensure the</text>
  <text style="stroke:none;fill:black;font-family:sans-serif;font-size:13;" transform="matrix(1 0 0 1 1289 1989)">design is preserved when submitting to Xcode.</text>
  <text id="template-version" style="stroke:none;fill:black;font-family:sans-serif;font-size:13;text-anchor:end;" transform="matrix(1 0 0 1 3036 1933)">Template v.5.0</text>
  <text style="stroke:none;fill:black;font-family:sans-serif;font-size:13;text-anchor:end;" transform="matrix(1 0 0 1 3036 1951)">Requires Xcode 15 or greater</text>
  <text id="descriptive-name" style="stroke:none;fill:black;font-family:sans-serif;font-size:13;text-anchor:end;" transform="matrix(1 0 0 1 3036 1969)">Generated from fiori.feedback</text>
  <text style="stroke:none;fill:black;font-family:sans-serif;font-size:13;text-anchor:end;" transform="matrix(1 0 0 1 3036 1987)">Typeset at 100.0 points</text>
  <text style="stroke:none;fill:black;font-family:sans-serif;font-size:13;" transform="matrix(1 0 0 1 263 726)">Small</text>
  <text style="stroke:none;fill:black;font-family:sans-serif;font-size:13;" transform="matrix(1 0 0 1 263 1156)">Medium</text>
  <text style="stroke:none;fill:black;font-family:sans-serif;font-size:13;" transform="matrix(1 0 0 1 263 1586)">Large</text>
 </g>
 <g id="Guides">
  <g id="H-reference" style="fill:#27AAE1;stroke:none;" transform="matrix(1 0 0 1 339 696)">
   <path d="M0.993654 0L3.63775 0L29.3281-67.1323L30.0303-67.1323L30.0303-70.459L28.1226-70.459ZM11.6885-24.4799L46.9815-24.4799L46.2315-26.7285L12.4385-26.7285ZM55.1196 0L57.7637 0L30.6382-70.459L29.4326-70.459L29.4326-67.1323Z"/>
  </g>
  <line id="Baseline-S" style="fill:none;stroke:#27AAE1;opacity:1;stroke-width:0.5;" x1="263" x2="3036" y1="696" y2="696"/>
  <line id="Capline-S" style="fill:none;stroke:#27AAE1;opacity:1;stroke-width:0.5;" x1="263" x2="3036" y1="625.541" y2="625.541"/>
  <g id="H-reference" style="fill:#27AAE1;stroke:none;" transform="matrix(1 0 0 1 339 1126)">
   <path d="M0.993654 0L3.63775 0L29.3281-67.1323L30.0303-67.1323L30.0303-70.459L28.1226-70.459ZM11.6885-24.4799L46.9815-24.4799L46.2315-26.7285L12.4385-26.7285ZM55.1196 0L57.7637 0L30.6382-70.459L29.4326-70.459L29.4326-67.1323Z"/>
  </g>
  <line id="Baseline-M" style="fill:none;stroke:#27AAE1;opacity:1;stroke-width:0.5;" x1="263" x2="3036" y1="1126" y2="1126"/>
  <line id="Capline-M" style="fill:none;stroke:#27AAE1;opacity:1;stroke-width:0.5;" x1="263" x2="3036" y1="1055.54" y2="1055.54"/>
  <g id="H-reference" style="fill:#27AAE1;stroke:none;" transform="matrix(1 0 0 1 339 1556)">
   <path d="M0.993654 0L3.63775 0L29.3281-67.1323L30.0303-67.1323L30.0303-70.459L28.1226-70.459ZM11.6885-24.4799L46.9815-24.4799L46.2315-26.7285L12.4385-26.7285ZM55.1196 0L57.7637 0L30.6382-70.459L29.4326-70.459L29.4326-67.1323Z"/>
  </g>
  <line id="Baseline-L" style="fill:none;stroke:#27AAE1;opacity:1;stroke-width:0.5;" x1="263" x2="3036" y1="1556" y2="1556"/>
  <line id="Capline-L" style="fill:none;stroke:#27AAE1;opacity:1;stroke-width:0.5;" x1="263" x2="3036" y1="1485.54" y2="1485.54"/>
  <line id="right-margin-Black-S" style="fill:none;stroke:#00AEEF;stroke-width:0.5;opacity:1.0;" x1="2981.9" x2="2981.9" y1="600.785" y2="720.121"/>
  <line id="left-margin-Black-S" style="fill:none;stroke:#00AEEF;stroke-width:0.5;opacity:1.0;" x1="2884.9" x2="2884.9" y1="600.785" y2="720.121"/>
  <line id="right-margin-Regular-S" style="fill:none;stroke:#00AEEF;stroke-width:0.5;opacity:1.0;" x1="1496.29" x2="1496.29" y1="600.785" y2="720.121"/>
  <line id="left-margin-Regular-S" style="fill:none;stroke:#00AEEF;stroke-width:0.5;opacity:1.0;" x1="1403.39" x2="1403.39" y1="600.785" y2="720.121"/>
  <line id="right-margin-Ultralight-S" style="fill:none;stroke:#00AEEF;stroke-width:0.5;opacity:1.0;" x1="604.411" x2="604.411" y1="600.785" y2="720.121"/>
  <line id="left-margin-Ultralight-S" style="fill:none;stroke:#00AEEF;stroke-width:0.5;opacity:1.0;" x1="515.011" x2="515.011" y1="600.785" y2="720.121"/>
 </g>
 <g id="Symbols">
  <g id="Black-S" transform="matrix(1 0 0 1 2884.9 696)">
   <path class="monochrome-0 multicolor-0:tintColor hierarchical-0:primary SFSymbolsPreviewWireframe" d="M26.91 7.9C26.31 7.9 25.31 7.7 24.81 7.5C23.31 6.8 21.41 5.2 21.41 2.4L21.41-7.5L21.41-7.5L20.91-7.5C17.71-7.5 13.41-9.4 10.71-12.1C8.01-14.8 6.01-19.4 6.01-23.3L6.01-56.2C6.01-65.6 13.91-72 21.81-72L23.91-72C27.71-72 29.31-68.8 29.41-66.5C29.61-62.7 26.21-61 23.91-61L21.81-61C20.31-61 17.01-59.6 17.01-56.2L17.01-23.3C17.01-22.3 17.21-21.1 18.41-19.9C19.61-18.7 20.81-18.5 22.11-18.5L22.11-18.5L27.21-18.5L27.21-18.5C28.81-18.5 30.01-17.7 30.81-16.9C31.61-16.1 32.41-14.9 32.41-13L32.41-10.4L39.51-17.1C40.31-17.8 41.31-18.6 43.31-18.6L43.31-18.6C43.31-18.6 62.41-18.6 75.21-18.6C77.01-18.6 79.91-20 79.91-23.4L79.91-25.5C79.91-27.8 81.41-31 85.41-31C89.31-31 90.91-27.8 90.91-25.5L90.91-23.4C90.91-15.5 84.61-7.6 75.11-7.6C64.61-7.6 50.31-7.6 45.41-7.6L30.71 6.4C29.91 7.1 28.71 7.9 26.91 7.9Z"/>
   <path class="monochrome-1 multicolor-1:tintColor hierarchical-1:primary SFSymbolsPreviewWireframe" d="M58.81-22.9C56.41-22.9 53.91-23.2 51.51-23.8L51.51-23.8C42.51-26.2 35.11-33.6 32.71-42.6C30.21-52.2 32.71-62.1 39.71-69.1C46.71-76.1 56.61-78.7 66.21-76.1C75.21-73.7 82.61-66.3 85.01-57.3C87.51-47.7 85.01-37.8 78.01-30.8C72.71-25.7 65.91-22.9 58.81-22.9ZM54.01-33.2C60.21-31.5 66.71-33.2 71.11-37.7C75.61-42.2 77.31-48.6 75.61-54.8C74.11-60.6 69.31-65.3 63.61-66.8C57.41-68.5 50.91-66.8 46.51-62.3C42.11-57.8 40.31-51.4 42.01-45.2C43.51-39.5 48.21-34.8 54.01-33.2L54.01-33.2ZM51.11-61.7C48.81-61.7 47.11-60.2 47.11-57.7C47.11-55.4 48.61-53.7 51.11-53.7C53.41-53.7 55.11-55.2 55.11-57.7C55.01-60.2 53.41-61.7 51.11-61.7L51.11-61.7ZM66.51-61.7C64.21-61.7 62.51-60.2 62.51-57.7C62.51-55.4 64.01-53.7 66.51-53.7C69.01-53.7 70.51-55.2 70.51-57.7C70.51-60.2 68.81-61.7 66.51-61.7L66.51-61.7ZM58.81-35.8L58.81-35.8C50.81-35.8 46.71-40.1 44.81-43.1C43.61-45 43.31-48.7 46.51-50.8C49.61-52.8 53.01-51 54.21-49.1C55.01-47.9 56.21-47.1 58.71-47.1L58.71-47.1C60.21-47.1 61.91-47.4 63.31-49.4C64.61-51.3 68.51-53 71.21-50.5C73.91-48 73.61-44.9 72.31-43.1C69.51-38.5 65.11-35.8 58.81-35.8Z"/>
  </g>
  <g id="Regular-S" transform="matrix(1 0 0 1 1403.39 696)">
   <path class="monochrome-0 multicolor-0:tintColor hierarchical-0:primary SFSymbolsPreviewWireframe" d="M24.96 6.5C24.36 6.5 23.86 6.4 23.36 6.2C21.86 5.5 20.86 4.1 20.86 2.4L20.86-8.9L19.86-8.9L19.86-8.9C16.06-8.9 12.36-10.4 9.66-13.1C6.96-15.8 5.46-19.4 5.46-23.3L5.46-56.2C5.46-64.1 11.96-70.6 19.86-70.6L21.96-70.6C24.26-70.6 26.06-68.8 26.06-66.5C26.06-64.2 24.26-62.4 21.96-62.4L19.86-62.4C16.46-62.4 13.66-59.6 13.66-56.2L13.66-23.3C13.66-21.7 14.26-20.1 15.46-18.9C16.66-17.7 18.16-17.1 19.86-17.1L19.86-17.1L24.96-17.1L24.96-17.1C26.06-17.1 27.06-16.7 27.86-15.9C28.66-15.1 29.06-14.1 29.06-13L29.06-7.1L38.56-16C39.36-16.7 40.36-17.1 41.36-17.1L41.36-17.1C41.36-17.1 60.46-17.1 73.26-17.1C76.66-17.1 79.36-19.9 79.36-23.3L79.36-25.4C79.36-27.7 81.16-29.5 83.46-29.5C85.76-29.5 87.56-27.7 87.56-25.4L87.56-23.3C87.56-15.4 81.16-8.9 73.16-8.9C62.66-8.9 47.76-8.9 42.86-8.9L27.76 5.4C26.96 6.1 25.96 6.5 24.96 6.5Z"/>
   <path class="monochrome-1 multicolor-1:tintColor hierarchical-1:primary SFSymbolsPreviewWireframe" d="M56.76-24.3C54.46-24.3 52.16-24.6 49.86-25.2L49.86-25.2C41.36-27.5 34.36-34.5 32.06-43C29.66-52.1 32.06-61.5 38.66-68.1C45.26-74.7 54.66-77.2 63.76-74.7C72.26-72.4 79.26-65.4 81.56-56.9C83.96-47.8 81.56-38.4 74.96-31.8C70.06-27 63.56-24.3 56.76-24.3ZM51.96-33.2C58.16-31.5 64.66-33.2 69.06-37.7C73.56-42.2 75.26-48.6 73.56-54.8C72.06-60.6 67.26-65.3 61.56-66.8C55.36-68.5 48.86-66.8 44.46-62.3C40.06-57.8 38.26-51.5 39.96-45.2C41.46-39.5 46.26-34.8 51.96-33.2L51.96-33.2ZM49.06-60.3C47.56-60.3 46.46-59.3 46.46-57.7C46.46-56.2 47.46-55.1 49.06-55.1C50.66-55.1 51.66-56.1 51.66-57.7C51.66-59.3 50.66-60.3 49.06-60.3L49.06-60.3ZM64.46-60.3C62.96-60.3 61.86-59.3 61.86-57.7C61.86-56.2 62.86-55.1 64.46-55.1C66.06-55.1 67.06-56.1 67.06-57.7C67.06-59.3 66.06-60.3 64.46-60.3L64.46-60.3ZM56.86-37.2L56.86-37.2C49.66-37.2 45.96-40.8 44.06-43.8C42.86-45.7 43.46-48.3 45.36-49.5C47.26-50.7 49.86-50.1 51.06-48.2C51.86-47 53.16-45.5 56.66-45.5L56.76-45.5C59.36-45.5 61.16-46.4 62.56-48.4C63.86-50.3 66.46-50.7 68.26-49.4C70.06-48.1 70.56-45.5 69.26-43.7C66.36-39.3 62.16-37.2 56.86-37.2Z"/>
  </g>
  <g id="Ultralight-S" transform="matrix(1 0 0 1 515.011 696)">
   <path class="monochrome-0 multicolor-0:tintColor hierarchical-0:primary SFSymbolsPreviewWireframe" d="M23.175 3.7C22.975 3.7 22.875 3.7 22.575 3.5C22.175 3.3 21.875 2.8 21.875 2.4L21.875-11.7L18.075-11.7L18.075-11.7C15.775-11.7 12.475-12.5 9.875-15.1C7.275-17.7 6.475-20.8 6.475-23.3L6.475-56.2C6.475-62.6 11.675-67.8 18.075-67.8L20.175-67.8C20.675-67.8 21.475-67.4 21.475-66.5C21.475-65.7 20.775-65.2 20.175-65.2L17.975-65.2C12.975-65.2 8.975-61.1 8.975-56.2L8.975-23.3C8.975-19.8 10.675-18.1 11.575-16.9C12.775-15.5 15.775-14.3 17.675-14.3L17.975-14.3L22.675-14.3L22.675-14.3C23.375-14.3 23.675-14.3 23.975-13.9C24.175-13.7 24.375-13.3 24.375-13L24.375-0.5L38.775-14C38.975-14.2 38.975-14.3 39.275-14.3L39.675-14.4C39.675-14.4 58.775-14.4 71.575-14.4C76.275-14.4 80.575-18.2 80.575-23.4L80.575-25.5C80.575-26.2 81.075-26.8 81.875-26.8C82.375-26.8 83.175-26.4 83.175-25.5L83.175-23.4C83.175-16.4 77.175-11.8 71.675-11.8C61.175-11.8 45.175-11.8 40.275-11.8L24.075 3.3C23.875 3.5 23.475 3.7 23.175 3.7Z"/>
   <path class="monochrome-1 multicolor-1:tintColor hierarchical-1:primary SFSymbolsPreviewWireframe" d="M55.075-27.2C53.075-27.2 50.975-27.5 48.875-28L48.875-28C41.275-30 35.075-36.3 32.975-43.9C30.775-52 32.975-60.4 38.875-66.2C44.775-72.1 53.075-74.3 61.175-72.1C68.775-70.1 74.975-63.8 77.075-56.2C79.275-48.1 77.075-39.7 71.175-33.9C66.775-29.5 61.075-27.2 55.075-27.2ZM49.475-30.5C56.775-28.6 64.175-30.5 69.375-35.7C74.575-40.9 76.575-48.4 74.575-55.6C72.775-62.3 67.275-67.8 60.575-69.6C53.275-71.5 45.875-69.6 40.675-64.4C35.475-59.2 33.475-51.7 35.475-44.5C37.275-37.8 42.775-32.3 49.475-30.5L49.475-30.5ZM47.275-60.3C45.775-60.3 44.675-59.3 44.675-57.7C44.675-56.2 45.675-55.1 47.275-55.1C48.875-55.1 49.875-56.1 49.875-57.7C49.875-59.3 48.875-60.3 47.275-60.3L47.275-60.3ZM62.775-60.3C61.275-60.3 60.175-59.3 60.175-57.7C60.175-56.2 61.175-55.1 62.775-55.1C64.275-55.1 65.375-56.1 65.375-57.7C65.275-59.3 64.275-60.3 62.775-60.3L62.775-60.3ZM55.075-40L55.075-40C49.875-40 46.475-42.2 44.675-45.2C44.275-45.8 44.475-46.5 45.075-47C45.575-47.4 46.375-47.2 46.875-46.6C47.675-45.4 49.375-42.6 54.975-42.6L54.975-42.6C59.875-42.6 61.675-44.7 63.175-46.7C63.675-47.3 64.375-47.4 64.975-47C65.575-46.6 65.675-45.8 65.275-45.2C62.475-40.9 57.975-40 55.075-40Z"/>
  </g>
 </g>
</svg>
