<svg width="45" height="45" viewBox="0 0 45 45" fill="none" xmlns="http://www.w3.org/2000/svg">
<path d="M42.8369 22.3721C42.8369 33.6038 33.7318 42.709 22.5 42.709C11.2682 42.709 2.16309 33.6038 2.16309 22.3721C2.16309 11.1403 11.2682 2.03516 22.5 2.03516C33.7318 2.03516 42.8369 11.1403 42.8369 22.3721Z" fill="#CEDBE8"/>
<path fill-rule="evenodd" clip-rule="evenodd" d="M43.8369 22.3721C43.8369 34.1561 34.2841 43.709 22.5 43.709C10.7159 43.709 1.16309 34.1561 1.16309 22.3721C1.16309 10.588 10.7159 1.03516 22.5 1.03516C34.2841 1.03516 43.8369 10.588 43.8369 22.3721ZM22.5 42.709C33.7318 42.709 42.8369 33.6038 42.8369 22.3721C42.8369 11.1403 33.7318 2.03516 22.5 2.03516C11.2682 2.03516 2.16309 11.1403 2.16309 22.3721C2.16309 33.6038 11.2682 42.709 22.5 42.709Z" fill="#688FB7"/>
<circle cx="22.5001" cy="22.3722" r="16.1456" fill="#688FB7"/>
<path d="M33.1913 12.5108L25.7434 25.8892L19.2552 18.8543L33.1913 12.5108Z" fill="#00A58A"/>
<path d="M11.8075 32.2335L25.7435 25.8899L19.2553 18.855L11.8075 32.2335Z" fill="#F58B00"/>
<path d="M25.2077 25.3089C23.5865 26.8041 21.0601 26.702 19.5649 25.0807C18.0696 23.4595 18.1718 20.9331 19.793 19.4378C21.4142 17.9426 23.9406 18.0447 25.4359 19.666C26.9311 21.2872 26.829 23.8136 25.2077 25.3089Z" fill="#CEDBE8"/>
<path fill-rule="evenodd" clip-rule="evenodd" d="M25.8852 26.043C23.858 27.9126 20.6989 27.7849 18.8293 25.7577C16.9596 23.7305 17.0873 20.5714 19.1145 18.7017C21.1418 16.8321 24.3008 16.9598 26.1705 18.987C28.0402 21.0142 27.9124 24.1733 25.8852 26.043ZM19.5644 25.0797C21.0596 26.701 23.586 26.8031 25.2073 25.3079C26.8285 23.8126 26.9306 21.2862 25.4354 19.665C23.9402 18.0437 21.4138 17.9416 19.7925 19.4368C18.1713 20.9321 18.0691 23.4585 19.5644 25.0797Z" fill="#688FB7"/>
</svg>
