<svg width="46" height="46" viewBox="0 0 46 46" fill="none" xmlns="http://www.w3.org/2000/svg">
<g clip-path="url(#clip0_4211_40783)">
<mask id="mask0_4211_40783" style="mask-type:luminance" maskUnits="userSpaceOnUse" x="0" y="0" width="46" height="46">
<path d="M45.5 0.5H0.5V45.5H45.5V0.5Z" fill="white"/>
</mask>
<g mask="url(#mask0_4211_40783)">
<path d="M17.2989 8.07081C16.3248 8.54938 4.05678 18.498 4.05678 18.498C3.47389 19.061 3.33579 19.9409 3.95578 20.4777L25.6447 38.4434C25.7064 38.4964 25.7709 38.5496 25.8354 38.5971C26.3058 38.946 26.7789 39.132 27.3196 39.1679C27.6355 39.1888 27.9484 39.1173 28.252 39.0275L30.2278 38.4434L19.4949 7.94652C19.4949 7.94652 18.273 7.59225 17.2989 8.07081Z" fill="#1B90FF"/>
<path d="M29.8771 35.4537L27.4449 34.3325L5.55724 16.3711L5.54883 17.8027C5.54883 18.3395 5.7817 18.8512 6.1913 19.2007L27.442 37.2906L28.0256 37.7883C28.6511 38.3224 29.4535 38.5377 30.225 38.4398V36.382L29.8743 35.4537H29.8771Z" fill="#046C7C"/>
<path d="M31.9362 35.0094L30.2305 36.3822V38.44C30.7663 38.373 31.2881 38.1549 31.723 37.7803L31.9389 37.5957L42.9837 28.1034C43.3934 27.7511 43.629 27.2394 43.6262 26.7026V25.6094L31.9362 35.0122V35.0094Z" fill="#56BDFF"/>
<path d="M32.676 35.9965C31.3631 37.1177 29.1945 37.1177 27.8648 35.9965L6.2802 17.7891C5.17767 16.8581 5.35442 15.3622 6.65609 14.4535L16.7526 7.41608C17.9506 6.58006 19.8134 6.58006 20.9271 7.41608L42.551 23.6774C43.8778 24.6756 44.0013 26.3168 42.8035 27.3401L32.6788 35.9965H32.676Z" fill="#0899A7"/>
<path d="M17.4824 8.28311L15.2527 9.84544L16.4067 10.7451C16.6824 10.9606 16.6608 11.3081 16.3554 11.5263L12.3364 14.3762C12.0202 14.5998 11.5418 14.5998 11.2661 14.3762L10.1148 13.4415L7.75524 15.0927C6.79033 15.7689 6.6633 16.8733 7.48225 17.5602L28.2799 35.0287C29.2637 35.8557 30.861 35.8557 31.834 35.0287L41.5909 26.7241C42.4801 25.9671 42.3937 24.755 41.4125 24.0143L20.5771 8.28311C19.7527 7.66084 18.3716 7.66084 17.4824 8.28311Z" fill="white"/>
</g>
<path d="M19.8193 16.8852C17.5681 19.1363 17.3857 22.6037 19.4117 24.6298C21.4377 26.6558 24.9051 26.4733 27.1562 24.2221C29.0969 22.2815 29.4997 19.4384 28.2773 17.3927C28.1295 17.1453 27.7953 17.0864 27.531 17.2611C27.2666 17.4359 27.1722 17.7781 27.32 18.0255C28.2978 19.6619 27.9741 21.9368 26.4225 23.4884C24.6216 25.2893 21.8478 25.4354 20.2269 23.8145C18.606 22.1937 18.752 19.4198 20.553 17.6189C21.7595 16.4123 23.4036 15.948 24.8451 16.2615L23.2432 17.8634C23.0181 18.0886 22.9998 18.4353 23.2024 18.6379C23.405 18.8405 23.7518 18.8223 23.9769 18.5971L26.1828 16.3912C26.205 16.372 26.226 16.351 26.2456 16.3284L26.4225 16.1515C26.6477 15.9264 26.6659 15.5796 26.4633 15.377L24.2622 13.1759C24.0596 12.9733 23.7129 12.9916 23.4878 13.2167C23.2627 13.4418 23.2444 13.7885 23.447 13.9912L24.5473 15.0915C22.9132 14.9442 21.1531 15.5513 19.8193 16.8852Z" fill="#D20A0A"/>
</g>
<defs>
<clipPath id="clip0_4211_40783">
<rect width="45" height="45" fill="white" transform="translate(0.5 0.5)"/>
</clipPath>
</defs>
</svg>
