<svg width="45" height="45" viewBox="0 0 45 45" fill="none" xmlns="http://www.w3.org/2000/svg">
<g clip-path="url(#clip0_4413_116644)">
<g clip-path="url(#clip1_4413_116644)">
<path d="M40.044 43.5571L27.3847 39.7462C29.4445 38.3034 28.1796 36.6389 24.3134 35.6238C19.8892 34.4607 12.8863 34.3928 7.97582 35.5418C2.38693 36.8507 1.1772 39.3086 6.2777 40.9412C11.5744 42.6357 20.4492 42.4579 25.3596 40.7234L37.1381 44.7121L38.5706 44.4731C38.8347 44.1614 38.9793 44.5002 39.3921 44.2563C40.1564 43.7448 40.5569 43.409 40.4302 43.3471H40.044V43.5571Z" fill="#101619"/>
<path d="M41.7627 13.2197C42.6034 16.6595 41.2183 20.2019 39.4885 22.7309C37.9322 25.0034 35.3069 26.6046 31.8693 27.0065C24.2874 27.8916 16.1721 22.609 14.1262 15.4516C12.0804 8.29427 16.5738 1.48108 23.7737 1.15613C30.6905 0.844008 39.4424 6.88118 41.7627 13.2197Z" fill="#8D2A00"/>
<path d="M41.2557 11.4545C43.6682 18.0433 40.0287 24.2386 32.7672 25.0874C25.1853 25.9724 17.07 20.6899 15.0242 13.5325C12.9783 6.37512 17.5881 1.03489 24.7902 0.709935C31.707 0.397815 38.9377 5.1181 41.2579 11.4545H41.2557Z" fill="#C35500"/>
<path d="M39.6381 11.5839C41.7081 17.3155 38.4988 22.66 32.2033 23.3633C25.6662 24.0923 18.6814 19.5451 16.888 13.3882C15.1582 7.44944 19.0326 2.5282 25.2843 2.21822C31.3208 1.92106 37.6384 6.0449 39.6403 11.5839H39.6381Z" fill="#D0C1CB"/>
<path d="M41.168 43.5927L37.0324 44.6659L30.4624 24.2178L34.3368 23.7773L41.168 43.5927Z" fill="#C35500"/>
<path d="M16.6704 8.7729L25.2204 2.22266C20.7292 2.4685 17.4782 5.09801 16.6704 8.7729Z" fill="#D0C1CB"/>
<path d="M32.2031 23.3638C37.7567 22.7439 40.9067 18.5132 40.1516 13.5898L26.4717 22.7311C28.3265 23.334 30.2846 23.5777 32.2031 23.3638Z" fill="#D5DADD"/>
<path d="M25.2817 2.21832C25.4595 2.20963 25.6351 2.2053 25.8129 2.20312C25.6351 2.20312 25.4595 2.20963 25.2817 2.21832Z" fill="#D0C1CB"/>
<path d="M31.0269 3.19922C31.0818 3.2206 31.1367 3.24198 31.1893 3.26335C31.1345 3.24198 31.0818 3.2206 31.0269 3.19922Z" fill="#D0C1CB"/>
<path d="M31.5249 3.40234C31.5622 3.41944 31.5995 3.43655 31.6369 3.45151C31.5995 3.43441 31.5622 3.41731 31.5249 3.40234Z" fill="#D0C1CB"/>
<path d="M30.522 3.01562C30.5835 3.03701 30.6471 3.05838 30.7086 3.0819C30.6471 3.05838 30.5857 3.03701 30.522 3.01562Z" fill="#D0C1CB"/>
<path d="M27.106 2.26172C27.207 2.27041 27.3079 2.28127 27.4111 2.2943C27.3101 2.28344 27.2091 2.27258 27.106 2.26172Z" fill="#D0C1CB"/>
<path d="M26.5596 2.22266C26.665 2.22918 26.7726 2.23352 26.8779 2.24221C26.7726 2.23352 26.665 2.227 26.5596 2.22266Z" fill="#D0C1CB"/>
<path d="M27.6438 2.32031C27.7426 2.33334 27.8436 2.34855 27.9424 2.36375C27.8436 2.34855 27.7448 2.33334 27.6438 2.32031Z" fill="#D0C1CB"/>
<path d="M25.991 2.20312C26.1095 2.20312 26.2258 2.2053 26.3444 2.20965C26.2258 2.2053 26.1073 2.20312 25.991 2.20312Z" fill="#D0C1CB"/>
<path d="M40.2484 14.4806C39.9235 8.11413 33.6433 3.02187 27.4092 2.26295C25.2404 2.06841 21.4275 2.06841 18.6595 4.99934C18.3478 5.32856 18.0558 5.71337 17.7836 6.11955C17.7375 6.18796 17.7112 6.235 17.6695 6.30127C17.6629 6.30982 17.6607 6.32051 17.6541 6.33119C20.9358 2.481 26.1821 2.23515 30.8182 4.03091C35.6167 5.88866 39.7611 9.93555 40.2484 14.4848V14.4806Z" fill="#8D2A00"/>
<path d="M24.1933 3.01266L16.6706 8.77619C16.3611 10.1871 16.4094 11.7499 16.8879 13.3917C16.9274 13.5286 16.9713 13.6632 17.0174 13.7979L31.5732 4.34665C29.1893 3.30554 26.6079 2.78819 24.1933 3.01266Z" fill="#D5DADD"/>
<path d="M28.8862 25.0284L31.1405 26.3304C31.1405 26.3304 30.6708 25.1952 32.2161 25.0391V25.0156C31.5971 25.1076 30.3503 25.2294 28.8862 25.0263V25.0284Z" fill="#8D2A00"/>
<path d="M33.854 24.8124C34.1679 24.8252 34.7167 25.0518 34.9779 25.7038L35.351 24.5195C35.351 24.5195 35.0064 24.682 33.854 24.8103V24.8124Z" fill="#8D2A00"/>
<path d="M37.0325 44.6654L30.873 25.517L31.2879 25.1108C31.2879 25.1108 32.0759 25.0659 32.9716 24.8906C32.9716 24.8906 32.662 25.2306 32.752 25.7008C33.112 27.5479 38.9686 44.3062 38.9686 44.3062L37.0303 44.6654H37.0325Z" fill="#8D2A00"/>
<path d="M41.1679 43.5938C41.1679 43.8161 40.1011 44.186 38.356 44.6243C37.4933 44.7931 37.0696 44.7717 37.0323 44.667C37.006 44.5922 37.4779 44.3036 38.334 44.0342C39.616 43.643 41.023 43.4228 41.1679 43.5938Z" fill="#8D2A00"/>
<path d="M29.7668 13.0012C30.3463 12.4305 30.8863 11.8511 30.5504 10.8442C30.1773 9.72614 29.0885 9.17458 27.8175 9.26009C26.5071 9.34775 25.8683 9.98906 25.5083 10.8036L24.2922 10.0105C24.7268 9.06556 25.6005 8.26387 27.4312 8.14629C29.6175 8.0052 31.3231 8.98004 31.8982 10.6732C32.3746 12.082 31.738 12.858 31.0114 13.649C30.3441 14.3674 30.0017 14.7458 30.2322 15.449L30.2805 15.5944L28.9458 15.712L28.8975 15.5666C28.4827 14.2882 29.128 13.6276 29.7668 13.0034V13.0012ZM29.96 16.6676C30.5109 16.6184 31.0597 16.9754 31.2309 17.495C31.4022 18.0144 31.1146 18.457 30.5614 18.5104C29.9995 18.5638 29.4551 18.2111 29.2839 17.6766C29.1127 17.1422 29.4002 16.7168 29.96 16.6655V16.6676Z" fill="#00144A"/>
</g>
</g>
<defs>
<clipPath id="clip0_4413_116644">
<rect width="45" height="45" fill="white"/>
</clipPath>
<clipPath id="clip1_4413_116644">
<rect width="45" height="45" fill="white"/>
</clipPath>
</defs>
</svg>
