<svg width="128" height="60" viewBox="0 0 128 60" fill="none" xmlns="http://www.w3.org/2000/svg">
<rect y="4.5" width="128" height="55" rx="8" fill="#89D1FF"/>
<path d="M62.4711 51.5002L24 35.9989L49.4309 28.269L62.4711 34.5018V51.5002Z" fill="#1B90FF"/>
<path d="M53.0198 13.5054L62.4712 51.5002L99.2577 32.9034L92.0506 0.601562L53.0198 13.5054Z" fill="#0070F2"/>
<path d="M52.713 13.3414L53.0198 13.5052L92.0505 0.601322L91.952 0.5L52.713 13.3414Z" fill="#0070F2"/>
<path d="M45.8013 44.772L52.7129 13.3413L53.0197 13.5051L59.4788 39.4739L45.8013 44.772Z" fill="#0040B0"/>
<path d="M53.5121 13.8444L62.0326 48.5108L98.5019 30.8334L91.8857 1.1792L53.5121 13.8444Z" fill="#0040B0"/>
<path d="M53.7859 13.7551L62.3074 48.4224L98.7757 30.7441L92.1595 1.09082L53.7859 13.7551Z" fill="#56BDFF"/>
<path d="M92.1595 1.09082L94.5713 10.1606C95.6972 14.3962 97.5977 18.3856 100.176 21.93L103.325 26.2575L66.8801 43.7209C61.5593 37.4058 57.7659 29.9487 55.7943 21.9291L53.7859 13.757L92.1595 1.09177V1.09082Z" fill="white"/>
<path d="M82.0101 6.30763C82.2772 5.9601 82.3065 5.5908 82.3217 5.38721L81.5319 5.64951C81.5092 5.71958 81.4751 5.78965 81.424 5.85689C81.3719 5.92412 81.2356 6.02449 81.1134 6.10404L81.2204 6.87579L81.227 6.88999C81.3085 6.85211 81.7971 6.58603 82.0111 6.30763H82.0101Z" fill="#00144A"/>
<path fill-rule="evenodd" clip-rule="evenodd" d="M53.7859 13.7551L55.0643 18.9557L93.3024 5.38706L92.1595 1.09082L53.7859 13.7551Z" fill="#C35500"/>
<path d="M64.8365 12.4542L63.4493 12.9201L63.2836 11.7203L64.6841 11.2554L64.8365 12.4542Z" fill="#0040B0"/>
<path d="M64.8365 12.4542L64.6111 12.5299L64.4454 11.3292L64.6841 11.2554L64.8365 12.4542Z" fill="#00144A"/>
<path d="M63.9654 8.95639C63.8214 8.77932 63.437 8.30964 62.8442 8.34846C62.3007 8.3835 61.9332 8.82098 61.7836 9.1846C61.6283 9.56148 61.7353 10.1571 61.7836 10.374L62.49 10.1429C62.4512 9.93458 62.4162 9.59273 62.4683 9.46679C62.5194 9.3418 62.6747 9.10222 62.8925 9.08802C63.1084 9.07192 63.2921 9.30297 63.3925 9.42513C63.6595 9.75276 63.7902 10.9251 63.7788 11.1533C63.7675 11.3124 63.7533 11.5093 63.6188 11.6855C63.5326 11.7972 63.4114 11.8843 63.3082 11.9326L63.4218 12.7195C63.5033 12.6816 63.9919 12.4155 64.2059 12.1371C64.4767 11.7849 64.5032 11.408 64.5174 11.2063C64.526 11.0842 64.4634 9.56811 63.9663 8.95829L63.9654 8.95639Z" fill="#00144A"/>
<path d="M82.6236 6.53668L81.2373 7.00257L81.0706 5.80281L82.4711 5.33691L82.6236 6.53668Z" fill="#0040B0"/>
<path d="M82.6237 6.53668L82.3993 6.61243L82.2326 5.41172L82.4712 5.33691L82.6237 6.53668Z" fill="#00144A"/>
<path d="M81.7715 3.12876C81.6275 2.95168 81.2431 2.482 80.6503 2.52082C80.1067 2.55586 79.7393 2.99335 79.5897 3.35697C79.4344 3.73385 79.5414 4.32947 79.5897 4.54632L80.2961 4.31527C80.2573 4.10694 80.2223 3.7651 80.2744 3.63915C80.3255 3.51416 80.4808 3.27459 80.6986 3.26038C80.9145 3.24428 81.0982 3.47533 81.1986 3.59749C81.4656 3.92513 81.5963 5.09743 81.5849 5.32565C81.5736 5.48473 81.5594 5.68169 81.4249 5.85782C81.3387 5.96956 81.2175 6.05668 81.1143 6.10497L81.2279 6.89188C81.3094 6.854 81.798 6.58791 82.012 6.30951C82.2828 5.95725 82.3093 5.58037 82.3235 5.37867C82.3321 5.25652 82.2695 3.74048 81.7724 3.13065L81.7715 3.12876Z" fill="#00144A"/>
</svg>
