<svg width="128" height="59" viewBox="0 0 128 59" fill="none" xmlns="http://www.w3.org/2000/svg">
<rect y="4" width="128" height="55" rx="8" fill="#222F3B"/>
<path d="M62.4711 51.0002L24 35.4989L49.4309 27.769L62.4711 34.0018V51.0002Z" fill="#101619"/>
<path d="M53.0199 13.0054L62.4713 51.0002L99.2578 32.4034L92.0506 0.101562L53.0199 13.0054Z" fill="#3B5B7C"/>
<path d="M52.713 12.8414L53.0198 13.0052L92.0506 0.101322L91.9521 0L52.713 12.8414Z" fill="#3B5B7C"/>
<path d="M45.8013 44.272L52.7129 12.8413L53.0197 13.0051L59.4788 38.9739L45.8013 44.272Z" fill="#2A4259"/>
<path d="M53.5121 13.3444L62.0326 48.0108L98.5019 30.3334L91.8857 0.679199L53.5121 13.3444Z" fill="#2A4259"/>
<path d="M53.7859 13.2551L62.3074 47.9224L98.7757 30.2441L92.1595 0.59082L53.7859 13.2551Z" fill="#4D82B8"/>
<path d="M92.1595 0.59082L94.5713 9.66056C95.6972 13.8962 97.5977 17.8856 100.176 21.43L103.325 25.7575L66.8801 43.2209C61.5593 36.9058 57.7659 29.4487 55.7943 21.4291L53.7859 13.257L92.1595 0.591767V0.59082Z" fill="#D5DADD"/>
<path d="M82.0101 5.80763C82.2772 5.4601 82.3065 5.0908 82.3217 4.88721L81.5319 5.14951C81.5092 5.21958 81.4751 5.28965 81.424 5.35689C81.3719 5.42412 81.2356 5.52449 81.1134 5.60404L81.2204 6.37579L81.227 6.38999C81.3085 6.35211 81.7971 6.08603 82.0111 5.80763H82.0101Z" fill="#00144A"/>
<path fill-rule="evenodd" clip-rule="evenodd" d="M53.7859 13.2551L55.0643 18.4557L93.3024 4.88706L92.1595 0.59082L53.7859 13.2551Z" fill="#C35500"/>
<path d="M64.8365 11.9542L63.4493 12.4201L63.2836 11.2203L64.6841 10.7554L64.8365 11.9542Z" fill="#2A4259"/>
<path d="M64.8365 11.9542L64.6111 12.0299L64.4454 10.8292L64.6841 10.7554L64.8365 11.9542Z" fill="#00144A"/>
<path d="M63.9654 8.45639C63.8215 8.27932 63.437 7.80964 62.8443 7.84846C62.3007 7.8835 61.9333 8.32098 61.7837 8.6846C61.6284 9.06148 61.7354 9.65711 61.7837 9.87395L62.4901 9.6429C62.4513 9.43458 62.4162 9.09273 62.4683 8.96679C62.5195 8.8418 62.6748 8.60222 62.8925 8.58802C63.1084 8.57192 63.2922 8.80297 63.3925 8.92513C63.6596 9.25276 63.7902 10.4251 63.7789 10.6533C63.7675 10.8124 63.7533 11.0093 63.6188 11.1855C63.5327 11.2972 63.4115 11.3843 63.3083 11.4326L63.4219 12.2195C63.5033 12.1816 63.9919 11.9155 64.2059 11.6371C64.4768 11.2849 64.5033 10.908 64.5175 10.7063C64.526 10.5842 64.4635 9.06811 63.9664 8.45829L63.9654 8.45639Z" fill="#00144A"/>
<path d="M82.6236 6.03668L81.2373 6.50257L81.0707 5.30281L82.4712 4.83691L82.6236 6.03668Z" fill="#2A4259"/>
<path d="M82.6237 6.03668L82.3993 6.11243L82.2327 4.91172L82.4713 4.83691L82.6237 6.03668Z" fill="#00144A"/>
<path d="M81.7715 2.62876C81.6275 2.45168 81.2431 1.982 80.6503 2.02082C80.1067 2.05586 79.7393 2.49335 79.5897 2.85697C79.4344 3.23385 79.5414 3.82947 79.5897 4.04632L80.2961 3.81527C80.2573 3.60694 80.2223 3.2651 80.2744 3.13915C80.3255 3.01416 80.4808 2.77459 80.6986 2.76038C80.9145 2.74428 81.0982 2.97533 81.1986 3.09749C81.4656 3.42513 81.5963 4.59743 81.5849 4.82565C81.5736 4.98473 81.5594 5.18169 81.4249 5.35782C81.3387 5.46956 81.2175 5.55668 81.1143 5.60497L81.2279 6.39188C81.3094 6.354 81.798 6.08791 82.012 5.80951C82.2828 5.45725 82.3093 5.08037 82.3235 4.87867C82.3321 4.75652 82.2695 3.24048 81.7724 2.63065L81.7715 2.62876Z" fill="#00144A"/>
</svg>
