<svg width="45" height="45" viewBox="0 0 45 45" fill="none" xmlns="http://www.w3.org/2000/svg">
<path d="M20.3576 37.8569L42.4677 26.6213L29.2145 20.2422L0.750317 30.962L2.60364e-05 31.5997L20.3576 37.8569Z" fill="#101619"/>
<path d="M10.9038 33.0826L14.4677 14.8411L15.1336 15.085L38.266 7.44141L38.9553 22.9115L10.9038 33.0826Z" fill="#00144A"/>
<path d="M14.6506 14.9279L20.3575 37.8493L42.5239 26.6465L38.252 7.35938L14.6506 14.9279Z" fill="#00144A"/>
<path d="M14.4678 14.842L14.94 15.1506L38.2827 7.45801L38.2593 7.36426L37.558 7.29688L14.4725 14.8092V14.8373L14.4678 14.842Z" fill="#8D2A00"/>
<path d="M14.9509 15.1389L20.2921 35.936L42.0692 25.3757L38.088 7.5L14.9556 15.1389H14.9509Z" fill="#2A4259"/>
<path d="M15.1335 15.0803L20.681 35.779L42.627 25.1389L38.2659 7.44141L15.1335 15.0803Z" fill="#3B5B7C"/>
<path d="M38.2659 7.46875L39.7149 12.9365C40.3808 15.5016 41.525 17.8884 43.0959 20.0361L44.9998 22.634L23.3044 33.0806C20.1016 29.2728 17.8085 24.7758 16.6315 19.9411L15.4216 14.9892L38.2659 7.46875Z" fill="#4D82B8"/>
<path d="M32.1372 10.6104C32.2873 10.3993 32.3201 10.1883 32.3201 10.0664L31.8371 10.2165C31.8371 10.2446 31.809 10.3056 31.7761 10.3384C31.748 10.3665 31.6542 10.4275 31.5933 10.4884L31.6542 10.9433C31.7152 10.9433 31.9872 10.7604 32.1372 10.6104Z" fill="#00144A"/>
<path fill-rule="evenodd" clip-rule="evenodd" d="M14.9204 15.1351L15.7308 18.2324L38.9648 10.0393L38.2605 7.37109L14.9204 15.1351Z" fill="#C35500"/>
<path d="M21.7784 14.2972L20.9343 14.5691L20.8452 13.8423L21.6893 13.5703L21.7784 14.2972Z" fill="#2A4259"/>
<path d="M32.4981 10.7347L31.654 11.0066L31.5649 10.2798L32.409 10.0078L32.4981 10.7347Z" fill="#2A4259"/>
<path d="M32.3201 10.7878L32.2498 10.0563L32.4092 10.0047C32.4092 9.97654 32.4983 10.7315 32.4983 10.7315L32.3154 10.7878H32.3201Z" fill="#450B00"/>
<path d="M21.6893 13.5703L21.4971 13.6407L21.5768 14.3628L21.7784 14.2972L21.6893 13.5703Z" fill="#450B00"/>
<path d="M20.9312 14.5555L20.8584 13.9365C20.8584 13.9365 21.3008 13.8564 21.3903 13.3617C21.4873 12.8252 21.3049 12.0517 21.0841 11.648C20.9078 11.3256 20.5888 11.2365 20.3535 11.3096C20.0128 11.4153 19.9468 11.7528 19.9183 11.8898C19.8612 12.2037 19.9998 12.7683 20.0741 12.9857L19.5799 13.1469C19.5064 12.963 19.2951 12.3303 19.3918 11.7554C19.4885 11.1806 19.7876 10.8405 20.1762 10.7402C20.6721 10.6121 21.0357 10.7401 21.3581 11.0785C21.8201 11.648 21.9906 12.5082 21.9598 13.3134C21.7981 14.4151 20.965 14.5401 20.9308 14.5515L20.9312 14.5555Z" fill="#00144A"/>
<path d="M31.6531 11.0047L31.5803 10.3858C31.5803 10.3858 32.0227 10.3056 32.1122 9.81093C32.2092 9.27437 32.0268 8.50093 31.806 8.09718C31.6297 7.77485 31.3107 7.68574 31.0753 7.75879C30.7347 7.86451 30.6687 8.202 30.6402 8.33899C30.5831 8.65293 30.7475 9.26702 30.8218 9.4845L30.3139 9.64856C30.2405 9.46468 30.017 8.77949 30.1137 8.20466C30.2104 7.62983 30.5095 7.28973 30.8981 7.18939C31.3939 7.06134 31.7576 7.18936 32.08 7.52774C32.542 8.09718 32.7125 8.95745 32.6816 9.76258C32.52 10.8644 31.6869 10.9893 31.6527 11.0007L31.6531 11.0047Z" fill="#00144A"/>
<path d="M32.3218 12.3789C32.7175 13.9368 33.1348 15.2538 33.7046 17.0674L40.1968 14.5273L40.5562 15.4805L34.0073 18.0049C34.4584 19.403 34.8519 20.3455 35.3979 21.5439L42.0991 18.5391L42.6694 19.4258L35.7866 22.4727C36.491 23.9427 37.1164 24.9601 37.8999 26.0547L36.9038 26.5352C36.1599 25.4965 35.6283 24.5017 34.8765 22.9277L28.312 25.7959C29.0243 27.2341 29.7493 28.3308 30.6753 29.5293L29.7202 29.9883C28.8418 28.8538 28.2249 27.8375 27.4019 26.2236L20.5015 29.2109L19.9897 28.3516L26.9614 25.2861C26.3362 23.9759 25.9036 22.953 25.3892 21.4111L18.0132 24.2656L17.6499 23.3125L25.0991 20.418C24.5233 18.6212 24.0704 17.2798 23.5952 15.457L24.52 15.1299C25.007 16.9323 25.4621 18.3829 26.0513 20.0459L32.7808 17.4395C32.1951 15.5618 31.7829 14.267 31.3872 12.709L32.3218 12.3789ZM26.3403 21.0244C26.8231 22.3907 27.2341 23.4272 27.8989 24.8174L34.3901 21.9658C33.8363 20.7357 33.4851 19.8327 33.0024 18.4189L26.3403 21.0244Z" fill="#D5DADD"/>
</svg>
