<?xml version="1.0" encoding="UTF-8"?>
<!--Generator: Apple Native CoreSVG 175.5-->
<!DOCTYPE svg
PUBLIC "-//W3C//DTD SVG 1.1//EN"
       "http://www.w3.org/Graphics/SVG/1.1/DTD/svg11.dtd">
<svg version="1.1" xmlns="http://www.w3.org/2000/svg" xmlns:xlink="http://www.w3.org/1999/xlink" width="3300" height="2200">
 <!--glyph: "", point size: 100.0, font version: "18.0d12e2", template writer version: "101"-->
 <g id="Notes">
  <rect height="2200" id="artboard" style="fill:white;opacity:1" width="3300" x="0" y="0"/>
  <line style="fill:none;stroke:black;opacity:1;stroke-width:0.5;" x1="263" x2="3036" y1="292" y2="292"/>
  <text style="stroke:none;fill:black;font-family:sans-serif;font-size:13;font-weight:bold;" transform="matrix(1 0 0 1 263 322)">Weight/Scale Variations</text>
  <text style="stroke:none;fill:black;font-family:sans-serif;font-size:13;text-anchor:middle;" transform="matrix(1 0 0 1 559.711 322)">Ultralight</text>
  <text style="stroke:none;fill:black;font-family:sans-serif;font-size:13;text-anchor:middle;" transform="matrix(1 0 0 1 856.422 322)">Thin</text>
  <text style="stroke:none;fill:black;font-family:sans-serif;font-size:13;text-anchor:middle;" transform="matrix(1 0 0 1 1153.13 322)">Light</text>
  <text style="stroke:none;fill:black;font-family:sans-serif;font-size:13;text-anchor:middle;" transform="matrix(1 0 0 1 1449.84 322)">Regular</text>
  <text style="stroke:none;fill:black;font-family:sans-serif;font-size:13;text-anchor:middle;" transform="matrix(1 0 0 1 1746.56 322)">Medium</text>
  <text style="stroke:none;fill:black;font-family:sans-serif;font-size:13;text-anchor:middle;" transform="matrix(1 0 0 1 2043.27 322)">Semibold</text>
  <text style="stroke:none;fill:black;font-family:sans-serif;font-size:13;text-anchor:middle;" transform="matrix(1 0 0 1 2339.98 322)">Bold</text>
  <text style="stroke:none;fill:black;font-family:sans-serif;font-size:13;text-anchor:middle;" transform="matrix(1 0 0 1 2636.69 322)">Heavy</text>
  <text style="stroke:none;fill:black;font-family:sans-serif;font-size:13;text-anchor:middle;" transform="matrix(1 0 0 1 2933.4 322)">Black</text>
  <line style="fill:none;stroke:black;opacity:1;stroke-width:0.5;" x1="263" x2="3036" y1="1903" y2="1903"/>
  <g transform="matrix(1 0 0 1 263 1933)">
   <path d="M9.24805 0.830078C13.5547 0.830078 17.1387-2.74414 17.1387-7.05078C17.1387-11.3574 13.5449-14.9316 9.23828-14.9316C4.94141-14.9316 1.36719-11.3574 1.36719-7.05078C1.36719-2.74414 4.95117 0.830078 9.24805 0.830078ZM9.24805-0.654297C5.70312-0.654297 2.87109-3.49609 2.87109-7.05078C2.87109-10.6055 5.69336-13.4473 9.23828-13.4473C12.793-13.4473 15.6445-10.6055 15.6445-7.05078C15.6445-3.49609 12.8027-0.654297 9.24805-0.654297ZM5.6543-7.05078C5.6543-6.62109 5.95703-6.32812 6.40625-6.32812L8.50586-6.32812L8.50586-4.20898C8.50586-3.76953 8.79883-3.4668 9.22852-3.4668C9.67773-3.4668 9.9707-3.76953 9.9707-4.20898L9.9707-6.32812L12.0898-6.32812C12.5293-6.32812 12.832-6.62109 12.832-7.05078C12.832-7.49023 12.5293-7.79297 12.0898-7.79297L9.9707-7.79297L9.9707-9.90234C9.9707-10.3516 9.67773-10.6543 9.22852-10.6543C8.79883-10.6543 8.50586-10.3516 8.50586-9.90234L8.50586-7.79297L6.40625-7.79297C5.95703-7.79297 5.6543-7.49023 5.6543-7.05078Z"/>
  </g>
  <g transform="matrix(1 0 0 1 281.867 1933)">
   <path d="M11.709 2.91016C17.1582 2.91016 21.6699-1.61133 21.6699-7.05078C21.6699-12.5 17.1484-17.0117 11.6992-17.0117C6.25977-17.0117 1.74805-12.5 1.74805-7.05078C1.74805-1.61133 6.26953 2.91016 11.709 2.91016ZM11.709 1.25C7.09961 1.25 3.41797-2.44141 3.41797-7.05078C3.41797-11.6602 7.08984-15.3516 11.6992-15.3516C16.3086-15.3516 20.0098-11.6602 20.0098-7.05078C20.0098-2.44141 16.3184 1.25 11.709 1.25ZM7.17773-7.05078C7.17773-6.57227 7.50977-6.25 8.00781-6.25L10.8789-6.25L10.8789-3.36914C10.8789-2.88086 11.2109-2.53906 11.6895-2.53906C12.1777-2.53906 12.5195-2.87109 12.5195-3.36914L12.5195-6.25L15.4004-6.25C15.8887-6.25 16.2305-6.57227 16.2305-7.05078C16.2305-7.53906 15.8887-7.88086 15.4004-7.88086L12.5195-7.88086L12.5195-10.752C12.5195-11.25 12.1777-11.5918 11.6895-11.5918C11.2109-11.5918 10.8789-11.25 10.8789-10.752L10.8789-7.88086L8.00781-7.88086C7.50977-7.88086 7.17773-7.53906 7.17773-7.05078Z"/>
  </g>
  <g transform="matrix(1 0 0 1 305.646 1933)">
   <path d="M14.9707 5.66406C21.9336 5.66406 27.6953-0.0976562 27.6953-7.05078C27.6953-14.0137 21.9238-19.7754 14.9609-19.7754C8.00781-19.7754 2.25586-14.0137 2.25586-7.05078C2.25586-0.0976562 8.01758 5.66406 14.9707 5.66406ZM14.9707 3.84766C8.93555 3.84766 4.08203-1.01562 4.08203-7.05078C4.08203-13.0957 8.92578-17.9492 14.9609-17.9492C21.0059-17.9492 25.8691-13.0957 25.8691-7.05078C25.8691-1.01562 21.0156 3.84766 14.9707 3.84766ZM9.19922-7.05078C9.19922-6.5332 9.57031-6.17188 10.1172-6.17188L14.0625-6.17188L14.0625-2.2168C14.0625-1.67969 14.4336-1.29883 14.9512-1.29883C15.4883-1.29883 15.8594-1.66992 15.8594-2.2168L15.8594-6.17188L19.8145-6.17188C20.3516-6.17188 20.7324-6.5332 20.7324-7.05078C20.7324-7.59766 20.3613-7.96875 19.8145-7.96875L15.8594-7.96875L15.8594-11.9141C15.8594-12.4609 15.4883-12.8418 14.9512-12.8418C14.4336-12.8418 14.0625-12.4609 14.0625-11.9141L14.0625-7.96875L10.1172-7.96875C9.57031-7.96875 9.19922-7.59766 9.19922-7.05078Z"/>
  </g>
  <text style="stroke:none;fill:black;font-family:sans-serif;font-size:13;font-weight:bold;" transform="matrix(1 0 0 1 263 1953)">Design Variations</text>
  <text style="stroke:none;fill:black;font-family:sans-serif;font-size:13;" transform="matrix(1 0 0 1 263 1971)">Symbols are supported in up to nine weights and three scales.</text>
  <text style="stroke:none;fill:black;font-family:sans-serif;font-size:13;" transform="matrix(1 0 0 1 263 1989)">For optimal layout with text and other symbols, vertically align</text>
  <text style="stroke:none;fill:black;font-family:sans-serif;font-size:13;" transform="matrix(1 0 0 1 263 2007)">symbols with the adjacent text.</text>
  <line style="fill:none;stroke:#00AEEF;stroke-width:0.5;opacity:1.0;" x1="776" x2="776" y1="1919" y2="1933"/>
  <g transform="matrix(1 0 0 1 776 1933)">
   <path d="M3.31055 0.15625C3.82812 0.15625 4.08203-0.0390625 4.26758-0.585938L5.52734-4.0332L11.2891-4.0332L12.5488-0.585938C12.7344-0.0390625 12.9883 0.15625 13.4961 0.15625C14.0137 0.15625 14.3457-0.15625 14.3457-0.644531C14.3457-0.810547 14.3164-0.966797 14.2383-1.17188L9.6582-13.3691C9.43359-13.9648 9.0332-14.2676 8.4082-14.2676C7.80273-14.2676 7.39258-13.9746 7.17773-13.3789L2.59766-1.16211C2.51953-0.957031 2.49023-0.800781 2.49023-0.634766C2.49023-0.146484 2.80273 0.15625 3.31055 0.15625ZM6.00586-5.51758L8.37891-12.0898L8.42773-12.0898L10.8008-5.51758Z"/>
  </g>
  <line style="fill:none;stroke:#00AEEF;stroke-width:0.5;opacity:1.0;" x1="793.197" x2="793.197" y1="1919" y2="1933"/>
  <text style="stroke:none;fill:black;font-family:sans-serif;font-size:13;font-weight:bold;" transform="matrix(1 0 0 1 776 1953)">Margins</text>
  <text style="stroke:none;fill:black;font-family:sans-serif;font-size:13;" transform="matrix(1 0 0 1 776 1971)">Leading and trailing margins on the left and right side of each symbol</text>
  <text style="stroke:none;fill:black;font-family:sans-serif;font-size:13;" transform="matrix(1 0 0 1 776 1989)">can be adjusted by modifying the x-location of the margin guidelines.</text>
  <text style="stroke:none;fill:black;font-family:sans-serif;font-size:13;" transform="matrix(1 0 0 1 776 2007)">Modifications are automatically applied proportionally to all</text>
  <text style="stroke:none;fill:black;font-family:sans-serif;font-size:13;" transform="matrix(1 0 0 1 776 2025)">scales and weights.</text>
  <g transform="matrix(1 0 0 1 1289 1933)">
   <path d="M2.8418 1.86523L4.54102 3.57422C5.40039 4.44336 6.38672 4.38477 7.31445 3.35938L18.0078-8.42773L17.041-9.4043L6.42578 2.27539C6.07422 2.67578 5.74219 2.77344 5.27344 2.30469L4.10156 1.14258C3.63281 0.683594 3.74023 0.341797 4.14062-0.0195312L15.6152-10.8203L14.6387-11.7871L3.04688-0.898438C2.06055 0.0195312 1.98242 0.996094 2.8418 1.86523ZM9.25781-16.3281C8.83789-15.918 8.80859-15.3418 9.04297-14.9512C9.27734-14.5898 9.73633-14.3555 10.3809-14.5215C11.8457-14.8633 13.3691-14.9219 14.7949-13.9844L14.209-12.5293C13.8672-11.6992 14.043-11.1133 14.5801-10.5664L16.875-8.25195C17.3633-7.76367 17.7734-7.74414 18.3398-7.8418L19.4043-8.03711L20.0684-7.36328L20.0293-6.80664C19.9902-6.30859 20.1172-5.92773 20.6055-5.44922L21.3672-4.70703C21.8457-4.22852 22.4609-4.19922 22.9297-4.66797L25.8398-7.58789C26.3086-8.05664 26.2891-8.65234 25.8105-9.13086L25.0391-9.89258C24.5605-10.3711 24.1895-10.5273 23.7109-10.4883L23.1348-10.4395L22.4902-11.0742L22.7344-12.1973C22.8613-12.7637 22.7051-13.2031 22.1191-13.7891L19.9219-15.9766C16.582-19.2969 12.1484-19.2188 9.25781-16.3281ZM10.752-15.957C13.1836-17.7344 16.4746-17.4316 18.7012-15.2051L21.1328-12.793C21.3672-12.5586 21.4062-12.373 21.3379-12.0312L21.0156-10.5469L22.5195-9.0625L23.5059-9.12109C23.7598-9.13086 23.8379-9.11133 24.0332-8.91602L24.6094-8.33984L22.168-5.89844L21.5918-6.47461C21.3965-6.66992 21.3672-6.74805 21.377-7.01172L21.4453-7.98828L19.9512-9.47266L18.4277-9.21875C18.1055-9.15039 17.959-9.17969 17.7148-9.41406L15.7129-11.416C15.459-11.6504 15.4297-11.8164 15.5859-12.1875L16.4648-14.2773C14.9023-15.7324 12.8711-16.3574 10.8398-15.7617C10.6836-15.7227 10.625-15.8496 10.752-15.957Z"/>
  </g>
  <text style="stroke:none;fill:black;font-family:sans-serif;font-size:13;font-weight:bold;" transform="matrix(1 0 0 1 1289 1953)">Exporting</text>
  <text style="stroke:none;fill:black;font-family:sans-serif;font-size:13;" transform="matrix(1 0 0 1 1289 1971)">Symbols should be outlined when exporting to ensure the</text>
  <text style="stroke:none;fill:black;font-family:sans-serif;font-size:13;" transform="matrix(1 0 0 1 1289 1989)">design is preserved when submitting to Xcode.</text>
  <text id="template-version" style="stroke:none;fill:black;font-family:sans-serif;font-size:13;text-anchor:end;" transform="matrix(1 0 0 1 3036 1933)">Template v.3.0</text>
  <text style="stroke:none;fill:black;font-family:sans-serif;font-size:13;text-anchor:end;" transform="matrix(1 0 0 1 3036 1951)">Requires Xcode 13 or greater</text>
  <text id="descriptive-name" style="stroke:none;fill:black;font-family:sans-serif;font-size:13;text-anchor:end;" transform="matrix(1 0 0 1 3036 1969)">Generated from fiori.action.settings</text>
  <text style="stroke:none;fill:black;font-family:sans-serif;font-size:13;text-anchor:end;" transform="matrix(1 0 0 1 3036 1987)">Typeset at 100 points</text>
  <text style="stroke:none;fill:black;font-family:sans-serif;font-size:13;" transform="matrix(1 0 0 1 263 726)">Small</text>
  <text style="stroke:none;fill:black;font-family:sans-serif;font-size:13;" transform="matrix(1 0 0 1 263 1156)">Medium</text>
  <text style="stroke:none;fill:black;font-family:sans-serif;font-size:13;" transform="matrix(1 0 0 1 263 1586)">Large</text>
 </g>
 <g id="Guides">
  <g id="H-reference" style="fill:#27AAE1;stroke:none;" transform="matrix(1 0 0 1 339 696)">
   <path d="M0.993654 0L3.63775 0L29.3281-67.1323L30.0303-67.1323L30.0303-70.459L28.1226-70.459ZM11.6885-24.4799L46.9815-24.4799L46.2315-26.7285L12.4385-26.7285ZM55.1196 0L57.7637 0L30.6382-70.459L29.4326-70.459L29.4326-67.1323Z"/>
  </g>
  <line id="Baseline-S" style="fill:none;stroke:#27AAE1;opacity:1;stroke-width:0.5;" x1="263" x2="3036" y1="696" y2="696"/>
  <line id="Capline-S" style="fill:none;stroke:#27AAE1;opacity:1;stroke-width:0.5;" x1="263" x2="3036" y1="625.541" y2="625.541"/>
  <g id="H-reference" style="fill:#27AAE1;stroke:none;" transform="matrix(1 0 0 1 339 1126)">
   <path d="M0.993654 0L3.63775 0L29.3281-67.1323L30.0303-67.1323L30.0303-70.459L28.1226-70.459ZM11.6885-24.4799L46.9815-24.4799L46.2315-26.7285L12.4385-26.7285ZM55.1196 0L57.7637 0L30.6382-70.459L29.4326-70.459L29.4326-67.1323Z"/>
  </g>
  <line id="Baseline-M" style="fill:none;stroke:#27AAE1;opacity:1;stroke-width:0.5;" x1="263" x2="3036" y1="1126" y2="1126"/>
  <line id="Capline-M" style="fill:none;stroke:#27AAE1;opacity:1;stroke-width:0.5;" x1="263" x2="3036" y1="1055.54" y2="1055.54"/>
  <g id="H-reference" style="fill:#27AAE1;stroke:none;" transform="matrix(1 0 0 1 339 1556)">
   <path d="M0.993654 0L3.63775 0L29.3281-67.1323L30.0303-67.1323L30.0303-70.459L28.1226-70.459ZM11.6885-24.4799L46.9815-24.4799L46.2315-26.7285L12.4385-26.7285ZM55.1196 0L57.7637 0L30.6382-70.459L29.4326-70.459L29.4326-67.1323Z"/>
  </g>
  <line id="Baseline-L" style="fill:none;stroke:#27AAE1;opacity:1;stroke-width:0.5;" x1="263" x2="3036" y1="1556" y2="1556"/>
  <line id="Capline-L" style="fill:none;stroke:#27AAE1;opacity:1;stroke-width:0.5;" x1="263" x2="3036" y1="1485.54" y2="1485.54"/>
  <line id="left-margin-Ultralight-S" style="fill:none;stroke:#00AEEF;stroke-width:0.5;opacity:1.0;" x1="515.732" x2="515.732" y1="600.785" y2="720.121"/>
  <line id="right-margin-Ultralight-S" style="fill:none;stroke:#00AEEF;stroke-width:0.5;opacity:1.0;" x1="603.69" x2="603.69" y1="600.785" y2="720.121"/>
  <line id="left-margin-Regular-S" style="fill:none;stroke:#00AEEF;stroke-width:0.5;opacity:1.0;" x1="1404.27" x2="1404.27" y1="600.785" y2="720.121"/>
  <line id="right-margin-Regular-S" style="fill:none;stroke:#00AEEF;stroke-width:0.5;opacity:1.0;" x1="1495.42" x2="1495.42" y1="600.785" y2="720.121"/>
  <line id="left-margin-Black-S" style="fill:none;stroke:#00AEEF;stroke-width:0.5;opacity:1.0;" x1="2886.95" x2="2886.95" y1="600.785" y2="720.121"/>
  <line id="right-margin-Black-S" style="fill:none;stroke:#00AEEF;stroke-width:0.5;opacity:1.0;" x1="2979.85" x2="2979.85" y1="600.785" y2="720.121"/>
 </g>
 <g id="Symbols">
  <g id="Black-S" transform="matrix(1 0 0 1 2886.95 696)">
   <path d="M49.4622 11.9L43.6622 11.9C37.3622 11.8 32.0622 7.6 30.9622 1.4L30.2622-2L26.6622-4.2L23.7622-3C18.1622-0.9 10.8622-2.4 7.26224-9.4L4.16224-15.4C0.862238-22.9 4.16224-28.7 8.06224-31.7L10.1622-33.3L10.1622-37.3L8.06224-38.9C2.66224-43.5 1.56224-48.8 4.16224-55.1L7.16224-61.2C9.36224-65.9 15.7622-70.4 23.8622-67.4L26.6622-66.3L30.2622-68.5L30.9622-72C31.6622-75.9 35.1622-82.5 43.7622-82.5L49.5622-82.5C57.8622-82.5 61.5622-75.9 62.3622-72L63.0622-68.5L66.6622-66.3L69.5622-67.5C74.0622-69.4 81.9622-69 86.1622-61.3L89.1622-55.2C92.0622-48.7 89.8622-42.5 85.2622-38.9L83.1622-37.3L83.1622-33.3L85.2622-31.7C88.5622-29.3 92.6622-23.3 89.1622-15.5L86.0622-9.4C81.4622-1.2 73.4622-1.4 69.3622-3L66.4622-4.2L62.8622-2L62.1622 1.5C61.4622 5.3 57.9622 11.7 49.4622 11.9ZM28.1622-18.8C29.5622-18.8 31.0622-18.4 32.2622-17.7L39.0622-13.6C40.9622-12.4 42.3622-10.5 42.7622-8.3L43.7622-3.2L49.1622-3.2L50.1622-8.3C50.5622-10.5 51.9622-12.4 53.8622-13.6L60.6622-17.7C62.7622-19 65.4622-19.2 67.7622-18.3L72.4622-16.4L75.3622-22.1L71.6622-24.9C69.6622-26.4 68.4622-28.8 68.4622-31.3L68.4622-39.3C68.4622-41.8 69.6622-44.2 71.6622-45.7L75.3622-48.5L72.5622-54.2L67.8622-52.3C65.4622-51.3 62.7622-51.5 60.6622-52.9L53.8622-57.1C51.9622-58.3 50.6622-60.2 50.1622-62.3L49.1622-67.4L43.7622-67.4L42.7622-62.3C42.3622-60.1 40.9622-58.2 39.0622-57.1L32.2622-52.9C30.0622-51.6 27.3622-51.3 25.0622-52.3L20.3622-54.2L17.5622-48.5L21.2622-45.7C23.2622-44.2 24.4622-41.8 24.4622-39.3L24.4622-31.3C24.4622-28.8 23.2622-26.4 21.2622-24.9L17.5622-22.1L20.4622-16.4L25.1622-18.3C26.1622-18.6 27.1622-18.8 28.1622-18.8ZM46.5622-19.3C37.7622-19.3 30.5622-26.5 30.5622-35.3C30.5622-44.1 37.7622-51.3 46.5622-51.3C55.3622-51.3 62.5622-44.1 62.5622-35.3C62.5622-26.4 55.3622-19.3 46.5622-19.3ZM46.5622-40C43.9622-40 41.8622-37.9 41.8622-35.3C41.8622-32.7 43.9622-30.6 46.5622-30.6C49.1622-30.6 51.2622-32.7 51.2622-35.3C51.2622-37.9 49.1622-40 46.5622-40ZM43.8622-67.3L43.8622-67.3L43.8622-67.3L43.8622-67.3ZM39.8622-68L39.8622-68L39.8622-68Z"/>
  </g>
  <g id="Regular-S" transform="matrix(1 0 0 1 1404.27 696)">
   <path d="M48.3826 4.8L42.9826 4.8C39.1826 4.8 35.8826 2.1 35.1826-1.6L34.1826-6.7L27.3826-10.8L22.6826-8.9C18.8826-7.4 14.3826-9.1 12.5826-12.8L9.68256-18.5C7.98256-22 8.98256-26.2 12.0826-28.5L15.7826-31.3L15.7826-39.3L12.0826-42.1C8.98256-44.4 7.98256-48.6 9.68256-52.1L12.4826-57.8C14.3826-61.5 18.8826-63.2 22.6826-61.6L27.3826-59.7L34.1826-63.9L35.1826-69C35.8826-72.7 39.1826-75.4 42.9826-75.4L48.3826-75.4C52.1826-75.4 55.4826-72.7 56.1826-69L57.1826-63.9L63.9826-59.7L68.6826-61.6C72.5826-63.2 76.9826-61.5 78.8826-57.8L81.6826-52.1C83.3826-48.6 82.3826-44.4 79.2826-42.1L75.5826-39.3L75.5826-31.3L79.2826-28.5C82.3826-26.2 83.3826-22 81.6826-18.5L78.7826-12.8C76.9826-9.1 72.4826-7.4 68.6826-8.9L63.9826-10.8L57.1826-6.7L56.1826-1.6C55.4826 2 52.1826 4.8 48.3826 4.8ZM27.2826-18.8C28.6826-18.8 30.1826-18.4 31.3826-17.7L38.1826-13.6C40.0826-12.4 41.4826-10.5 41.8826-8.3L42.8826-3.2L48.2826-3.2L49.2826-8.3C49.6826-10.5 51.0826-12.4 52.9826-13.6L59.7826-17.7C61.8826-19 64.5826-19.2 66.8826-18.3L71.5826-16.4L74.4826-22.1L70.7826-24.9C68.7826-26.4 67.5826-28.8 67.5826-31.3L67.5826-39.3C67.5826-41.8 68.7826-44.2 70.7826-45.7L74.4826-48.5L71.6826-54.2L67.0826-52.2C64.6826-51.2 61.9826-51.4 59.8826-52.8L53.0826-57C51.1826-58.2 49.8826-60.1 49.3826-62.2L48.3826-67.3L42.9826-67.3L41.9826-62.2C41.5826-60 40.1826-58.1 38.2826-57L31.4826-52.8C29.2826-51.5 26.5826-51.2 24.2826-52.2L19.5826-54.1L16.7826-48.4L20.4826-45.6C22.4826-44.1 23.6826-41.7 23.6826-39.2L23.6826-31.2C23.6826-28.7 22.4826-26.3 20.4826-24.8L16.7826-22L19.6826-16.3L24.3826-18.2C25.2826-18.6 26.2826-18.8 27.2826-18.8ZM45.5826-19.3C36.7826-19.3 29.5826-26.5 29.5826-35.3C29.5826-44.1 36.7826-51.3 45.5826-51.3C54.3826-51.3 61.5826-44.1 61.5826-35.3C61.5826-26.4 54.4826-19.3 45.5826-19.3ZM45.5826-43.3C41.1826-43.3 37.5826-39.7 37.5826-35.3C37.5826-30.9 41.1826-27.3 45.5826-27.3C49.9826-27.3 53.5826-30.9 53.5826-35.3C53.5826-39.7 50.0826-43.3 45.5826-43.3ZM42.8826-67.3L42.8826-67.3L42.8826-67.3L42.8826-67.3ZM38.9826-68L38.9826-68L38.9826-68Z"/>
  </g>
  <g id="Ultralight-S" transform="matrix(1 0 0 1 515.732 696)">
   <path d="M46.7086 2L41.3086 2C39.3086 2 36.8086 0.6 36.3086-2.1L35.1086-8.5L26.0086-14L20.0086-11.6C16.8086-10.6 14.3086-12.2 13.5086-14.1L10.6086-19.8C9.60857-21.5 9.70857-24.4 12.0086-26.3L16.8086-29.9L16.8086-40.7L12.0086-44.4C10.5086-45.5 9.20857-48 10.5086-50.8L13.3086-56.5C14.2086-58.3 16.9086-60.1 19.9086-58.9L26.0086-56.4L35.1086-62L36.3086-68.3C36.7086-70.3 38.5086-72.4 41.3086-72.4L46.7086-72.4C48.6086-72.3 51.0086-71.4 51.7086-68.3L52.9086-62L62.0086-56.4L68.0086-58.8C70.2086-59.8 73.2086-59 74.6086-56.3L77.4086-50.6C78.3086-48.6 78.2086-46 75.9086-44.1L71.1086-40.4L71.1086-29.6L75.9086-25.9C77.7086-24.3 78.7086-22.4 77.5086-19.4L74.6086-14C73.4086-12 71.1086-10.4 68.1086-11.5L62.1086-13.9L53.0086-8.4L51.8086-2.1C51.1086 0.3 49.4086 1.8 46.7086 2ZM26.0086-16.3C26.9086-16.4 27.9086-16 28.6086-15.6L35.2086-11.6C36.4086-10.8 37.3086-9.8 37.6086-8L39.0086-1L48.8086-1L50.2086-8.3C50.5086-9.5 50.9086-10.3 52.1086-11.3L59.2086-15.6C60.3086-16.3 61.8086-16.7 63.7086-16L70.6086-13.2L75.6086-23.1L70.3086-27.2C68.5086-28.4 68.2086-30.4 68.2086-31.3L68.2086-39.1C68.2086-40.5 68.9086-42.2 70.2086-43.1L75.7086-47.2L70.8086-57.1L63.8086-54.3C62.4086-53.7 60.7086-53.7 59.3086-54.6L52.6086-58.8C51.1086-59.6 50.5086-61.2 50.2086-62.1L48.8086-69.3L39.0086-69.3L37.6086-62.1C37.4086-60.6 36.4086-59.6 35.3086-58.9L28.6086-54.8C27.0086-53.8 25.4086-53.9 24.1086-54.4L17.0086-57.2L12.2086-47.3L17.6086-43.2C18.8086-42.1 19.6086-41.2 19.6086-39.2L19.6086-31.4C19.4086-29.4 18.9086-28.5 17.6086-27.4L12.2086-23.1L17.2086-13.2L24.1086-16C25.0086-16.3 25.0086-16.3 26.0086-16.3ZM44.0086-22.1C36.8086-22.1 30.8086-28 30.8086-35.3C30.8086-42.6 36.7086-48.5 44.0086-48.5C51.3086-48.5 57.2086-42.5 57.2086-35.3C57.2086-28 51.2086-22.1 44.0086-22.1ZM44.0086-46.1C38.1086-46.1 33.2086-41.2 33.2086-35.3C33.2086-29.4 38.1086-24.5 44.0086-24.5C49.9086-24.5 54.8086-29.4 54.8086-35.3C54.8086-41.2 49.9086-46.1 44.0086-46.1ZM39.0086-70.2L39.0086-70.2L39.0086-70.2L39.0086-70.2ZM37.3086-68L37.3086-68L37.3086-68Z"/>
  </g>
 </g>
</svg>
