<svg width="320" height="156" viewBox="0 0 320 156" fill="none" xmlns="http://www.w3.org/2000/svg">
<rect y="17.5" width="320" height="138" rx="24" fill="#89D1FF"/>
<path fill-rule="evenodd" clip-rule="evenodd" d="M205.149 110.213C206.542 110.213 207.823 109.739 208.842 108.943C211.398 108.255 213.279 105.921 213.279 103.148V6.5C213.279 3.18629 210.593 0.5 207.279 0.5H135.13C133.738 0.5 132.456 0.974483 131.438 1.77061C128.881 2.45811 127 4.79192 127 7.56518V43.8432C126.271 44.0024 125.687 44.1099 125.306 44.1432C124.733 44.1927 124.16 44.1391 123.59 44.0857C121.274 43.8688 119.006 43.6565 116.983 50.3844C115.131 56.5409 112.94 59.0963 111.507 60.7674C111.06 61.2892 110.686 61.7248 110.42 62.1568C110.376 62.2245 110.336 62.2949 110.298 62.3626C109.695 63.4945 110.31 70.1317 110.875 76.2264C111.254 80.3195 111.611 84.1679 111.561 85.9397C111.479 88.805 109.218 93.4235 107.642 96.3112C106.048 95.3861 104.998 94.8208 104.998 94.8208L102.542 101.32L100.79 100.24L100.784 100.236L73.0029 155.5H95H122.5L124.242 126.182L124.249 126.182L124.875 115.091L123.783 114.418C123.933 112.7 123.818 110.624 122.983 108.564L127 101.115V110.213H205.149ZM127 55.308V61.0437C126.685 60.0879 126.427 59.2667 126.321 58.7682C126.128 57.8666 126.46 56.4732 127 55.308Z" fill="#1B90FF"/>
<rect x="138.721" y="1.56543" width="84.1489" height="108.648" rx="6" fill="#046C7C"/>
<rect x="140.851" y="0.5" width="84.1489" height="108.648" rx="6" fill="#07838F"/>
<rect x="145" y="6.21289" width="75" height="98" rx="2" fill="white"/>
<circle cx="183.458" cy="3.69506" r="1.06518" fill="#046C7C"/>
<path d="M180.737 7.33815C180.567 7.40246 180.391 7.44647 180.209 7.45662C180.144 7.46001 180.08 7.45662 180.016 7.44985C180.016 7.5277 180.019 7.60217 180.022 7.68003C180.022 7.71388 180.016 7.81543 180.043 7.81881C180.06 7.81881 180.121 7.77481 180.134 7.76804C180.188 7.73757 180.242 7.70372 180.293 7.66987C180.408 7.5954 180.52 7.51755 180.628 7.43631C180.679 7.39908 180.73 7.35507 180.777 7.31445C180.764 7.32122 180.75 7.32799 180.733 7.33476L180.737 7.33815Z" fill="#0070F2"/>
<path d="M200 55.2129C200 64.6017 192.389 72.2129 183 72.2129C173.611 72.2129 166 64.6017 166 55.2129C166 45.824 173.611 38.2129 183 38.2129C192.389 38.2129 200 45.824 200 55.2129Z" fill="#DF1278"/>
<path d="M187.071 48.9104C187.734 48.2474 188.81 48.2473 189.473 48.9104C190.136 49.5737 190.136 50.6493 189.473 51.3127L185.488 55.2981L189.473 59.2834C190.136 59.9468 190.136 61.0224 189.473 61.6858C188.81 62.3491 187.734 62.3491 187.071 61.6858L183.085 57.7004L179.1 61.6858C178.436 62.3489 177.361 62.3491 176.698 61.6858C176.034 61.0225 176.034 59.9468 176.698 59.2834L180.683 55.2981L176.698 51.3127C176.035 50.6493 176.034 49.5736 176.698 48.9104C177.361 48.2472 178.436 48.2475 179.1 48.9104L183.085 52.8957L187.071 48.9104Z" fill="white"/>
<path opacity="0.2" d="M143.5 62.5L220 9.5V23L143.5 78.5V62.5Z" fill="#56BDFF"/>
<path opacity="0.2" d="M220 54.5L150.585 104.213H145V97.2129L220 42V54.5Z" fill="#56BDFF"/>
<mask id="mask0_4011_77856" style="mask-type:alpha" maskUnits="userSpaceOnUse" x="82" y="37" width="77" height="119">
<path d="M128.221 37.5L82 155.5H136L158.721 48.5L151.721 49.5L147.721 52L138.721 59V37.5H128.221Z" fill="#D9D9D9"/>
</mask>
<g mask="url(#mask0_4011_77856)">
<path d="M117.863 100.213C117.863 100.213 123.16 91.6399 123.285 87.2264C123.41 82.8129 121.014 65.5379 122.022 63.6493C123.031 61.7607 126.182 60.0548 128.704 51.6712C131.225 43.2875 134.126 45.6804 137.026 45.43C139.927 45.1761 154.552 40.6374 155.435 41.646C156.319 42.6546 157.073 46.9429 152.788 48.9601C148.5 50.9773 141.819 54.3822 140.557 54.5075C139.294 54.6327 137.656 58.2915 138.035 60.0548C138.414 61.8182 140.682 67.6194 140.682 69.1323C140.682 70.6452 143.329 61.3139 144.716 57.909C146.104 54.5041 150.389 47.9481 154.552 49.9653C158.712 51.9826 152.66 65.7274 151.651 67.4908C150.643 69.2542 150.643 73.5424 150.517 76.6969C150.392 79.848 148.751 80.9852 148.751 80.9852C148.751 80.9852 148.876 90.6956 146.859 93.4676C144.841 96.2396 140.682 98.7645 140.682 98.7645L133.747 111.626L117.859 100.216L117.863 100.213Z" fill="#8D2A00"/>
<path d="M154.024 44.2761C154.146 44.8481 154.071 45.4471 153.773 45.9548C153.547 46.3441 153.252 46.6182 152.86 46.8213C151.925 47.3053 150.856 47.593 149.82 47.7656C149.285 47.8536 148.737 47.9111 148.196 47.8739C147.806 47.8468 147.377 47.7758 147.062 47.5321C146.933 47.4305 146.832 47.3019 146.771 47.1462C146.764 47.1293 146.744 47.0244 146.733 47.021C146.706 47.0108 146.578 47.1665 146.557 47.1902C146.436 47.329 146.344 47.4881 146.28 47.6607C146.06 48.2631 146.168 48.9333 145.901 49.5256C145.745 49.8674 145.481 50.1585 145.17 50.3616C144.764 50.6256 144.334 50.8591 143.894 51.0622C143.065 51.448 142.151 51.712 141.23 51.685C140.865 51.6748 140.506 51.5936 140.177 51.4345C139.873 51.289 139.605 51.0825 139.341 50.8794C138.824 50.48 138.292 50.1111 137.676 49.8844C137.368 49.7693 137.047 49.6779 136.722 49.6373C136.475 49.6068 136.146 49.5865 135.947 49.7659C135.74 49.9487 135.818 50.2567 135.916 50.4767C136.045 50.7643 136.241 51.0216 136.434 51.2687C136.641 51.5293 136.861 51.7763 137.074 52.0302C137.236 52.2265 137.412 52.4262 137.531 52.653C137.866 53.2994 138.069 54.0339 138.015 54.7649C137.913 56.1459 136.871 57.2425 135.669 57.8246C135.348 57.9803 135.006 58.0954 134.674 58.2206C134.18 58.4102 133.686 58.5997 133.198 58.8163C132.725 59.0262 132.254 59.2563 131.828 59.5508C131.52 59.764 131.154 60.0483 131.056 60.4341C130.948 60.8572 131.303 61.2566 131.658 61.4326C132.332 61.7677 133.154 61.5748 133.875 61.6831C134.224 61.7372 134.562 61.8557 134.833 62.0892C135.121 62.3329 135.422 62.6172 135.557 62.9794C135.757 63.5209 135.371 63.9778 135.06 64.384C134.721 64.824 134.278 65.4366 134.403 66.0289C134.501 66.4926 134.996 66.699 135.395 66.831C135.859 66.9867 136.346 67.0747 136.8 67.271C137.213 67.4504 137.463 67.7483 137.7 68.1206C137.994 68.5809 138.241 69.0716 138.546 69.5286C138.813 69.9313 139.155 70.395 139.643 70.5372C140.198 70.6996 140.8 70.307 141.122 69.8806C141.531 69.3356 141.633 68.5809 141.694 67.9209C141.734 67.4978 141.748 67.0713 141.765 66.6449C141.139 68.5335 140.689 69.7553 140.689 69.1326C140.689 67.6197 138.417 61.8185 138.042 60.0551C137.663 58.2883 139.304 54.6329 140.563 54.5077C141.826 54.3825 148.507 50.9776 152.795 48.9604C157.084 46.9431 156.325 42.6549 155.442 41.6462C155.208 41.3789 154.017 41.5007 152.332 41.829C153.147 42.4315 153.821 43.2979 154.027 44.2795L154.024 44.2761Z" fill="#450B00"/>
<path d="M134.667 109.697C133.655 108.861 132.555 107.795 132.068 106.553C131.564 105.274 131.719 103.879 131.855 102.549C131.98 101.31 131.929 100.055 132.176 98.8294C132.379 97.8241 132.779 96.8324 133.473 96.0777C133.994 95.5091 134.708 95.0758 135.476 95.0589C136.031 95.0488 136.641 95.3195 136.813 95.8441C136.976 96.3383 136.708 96.8764 136.349 97.2555C136.035 97.5906 135.649 97.8546 135.226 98.0272C135.107 98.0746 134.979 98.122 134.908 98.2269C134.799 98.3826 134.857 98.5958 134.931 98.7718C135.425 99.953 138.353 103.091 139.501 100.965C139.897 100.234 140.289 99.5029 140.685 98.7718C140.685 98.7718 144.845 96.2503 146.862 93.4749C148.879 90.6995 148.754 80.9925 148.754 80.9925C148.754 80.9925 150.392 79.8587 150.521 76.7042C150.646 73.5532 150.646 69.2649 151.655 67.4981C152.592 65.8566 157.886 53.8717 155.286 50.5684C155.012 50.6801 154.748 50.8256 154.521 50.9711C153.597 51.5567 152.812 52.3487 152.112 53.1813C150.504 55.0902 149.255 57.2936 148.114 59.5037C146.006 63.5821 143.877 67.6403 141.941 71.8067C141.866 71.9624 141.802 72.1723 141.931 72.2907C142.059 72.4092 142.276 72.1147 142.103 72.0944C141.426 72.0944 138.241 83.2805 137.781 84.543C136.928 86.8986 135.73 89.6063 133.334 90.7469C130.565 92.0669 128.064 90.5032 126.805 87.87C125.39 84.9119 125.488 81.4697 125.837 78.207C126.206 74.7784 126.734 71.4581 126.03 68.1175C125.915 67.5793 125.177 67.4846 124.93 67.9753C124.341 69.1532 123.935 70.4969 123.19 71.3227C122.774 70.6119 122.601 69.715 122.456 68.9027C122.134 67.0987 122.1 65.2744 122.141 63.4434C122.097 63.5111 122.056 63.5821 122.019 63.6498C121.01 65.5418 123.407 82.8168 123.282 87.2269C123.156 91.6405 117.859 100.214 117.859 100.214L133.747 111.623L134.749 109.762C134.721 109.738 134.691 109.718 134.664 109.694L134.667 109.697Z" fill="#450B00"/>
<path d="M113.307 105.138L116.718 96.1074C116.718 96.1074 132.372 104.535 134.579 109.554C136.786 114.57 134.579 119.789 134.579 119.789L113.307 105.138Z" fill="white"/>
<path d="M84.7207 157.247L112.505 101.523L136.59 116.375L134.281 157.247H84.7207Z" fill="#1B90FF"/>
<path d="M118.587 143.445C118.597 143.424 118.604 143.407 118.614 143.387C118.739 143.096 118.79 142.781 118.824 142.46C118.888 141.847 118.641 141.302 118.36 140.764C117.676 139.454 116.678 138.314 116.14 136.933C115.351 134.912 114.823 132.803 114.512 130.658C114.356 129.588 114.2 128.491 114.193 127.408C114.183 126.227 114.119 125.043 114.051 123.865C113.923 121.688 113.757 119.502 113.909 117.322C113.909 117.312 113.909 117.302 113.909 117.292C113.916 117.217 113.916 117.143 113.923 117.068C113.923 117.062 113.929 117.055 113.936 117.055C116.062 117.234 117.872 118.696 119.45 120.006C120.242 120.666 121.013 121.347 121.822 121.99C122.563 122.582 123.339 123.096 124.168 123.56C126.043 124.609 128.019 125.479 130.06 126.159C131.935 126.782 133.946 127.273 135.97 127.469L136.596 116.378L112.511 101.526L84.7237 157.25C84.7237 157.25 106.243 157.25 106.277 157.25C106.321 157.25 104.121 151.395 103.955 150.948C102.865 148.021 101.792 144.761 101.928 141.603C101.928 141.597 101.931 141.593 101.938 141.59C102.114 141.556 102.29 141.536 102.469 141.529C103.468 141.485 104.48 141.718 105.441 141.959C106.69 142.27 107.918 142.659 109.147 143.038C110.409 143.428 111.668 143.82 112.951 144.135C114.031 144.399 115.151 144.633 116.268 144.606C117.064 144.585 117.95 144.399 118.438 143.712C118.451 143.695 118.461 143.675 118.475 143.658C118.519 143.59 118.556 143.522 118.59 143.451L118.587 143.445Z" fill="#0040B0"/>
<path d="M148.439 54.7551C148.382 55.1038 148.619 55.4389 148.978 55.5134C151.486 56.038 153.29 57.5985 153.923 57.2837C154.41 57.0434 157.037 50.9233 153.287 50.2091C149.536 49.4949 148.72 53.0356 148.443 54.7551H148.439Z" fill="#C35500"/>
</g>
</svg>
