<svg width="320" height="240" viewBox="0 0 320 240" fill="none" xmlns="http://www.w3.org/2000/svg">
<rect y="51" width="320" height="138" rx="24" fill="#222F3B"/>
<path fill-rule="evenodd" clip-rule="evenodd" d="M200.462 142.713C201.718 142.713 202.87 142.229 203.787 141.418C206.088 140.718 207.78 138.339 207.78 135.512V58.9834C207.78 55.6053 205.362 52.8672 202.379 52.8672H137.444C136.192 52.8672 135.036 53.3508 134.122 54.1616C131.822 54.8621 130.129 57.241 130.129 60.068V75.05C129.471 75.2136 128.948 75.3202 128.603 75.3558C128.088 75.4056 127.572 75.3522 127.06 75.2989C124.976 75.0784 122.935 74.8615 121.115 81.721C119.447 87.9972 117.477 90.6038 116.186 92.3071C115.784 92.8405 115.446 93.2814 115.208 93.7223C115.169 93.7899 115.133 93.8646 115.098 93.9321C114.554 95.0843 115.109 101.851 115.617 108.067C115.958 112.238 116.278 116.164 116.236 117.97C116.161 120.89 114.127 125.598 112.708 128.542C111.275 127.6 110.329 127.024 110.329 127.024L108.118 133.649L106.542 132.546H106.535L81.5332 188.88H126.082L127.65 158.992H127.658L128.219 147.684L127.238 146.998C127.373 145.245 127.27 143.129 126.52 141.031L130.136 133.435V142.709H200.473L200.462 142.713Z" fill="#101619"/>
<rect x="129.428" y="51.4492" width="34" height="39" fill="#101619"/>
<path d="M246.221 9.39453H169.334C165.644 9.39453 162.652 12.386 162.652 16.0762V128.338C162.652 132.028 165.644 135.019 169.334 135.019H246.221C249.911 135.019 252.903 132.028 252.903 128.338V16.0762C252.903 12.386 249.911 9.39453 246.221 9.39453Z" fill="#046C7C"/>
<path d="M246.349 9.39453H171.649C168.028 9.39453 165.092 12.3303 165.092 15.9517V127.243C165.092 130.864 168.028 133.8 171.649 133.8H246.349C249.97 133.8 252.906 130.864 252.906 127.243V15.9517C252.906 12.3303 249.97 9.39453 246.349 9.39453Z" fill="#0899A7"/>
<path d="M243.059 15.9375H174.806C172.064 15.9375 169.842 18.16 169.842 20.9016V123.189C169.842 125.93 172.064 128.153 174.806 128.153H243.059C245.801 128.153 248.023 125.93 248.023 123.189V20.9016C248.023 18.16 245.801 15.9375 243.059 15.9375Z" fill="#D5DADD"/>
<path d="M164.846 50.364C164.846 49.6236 164.246 49.0234 163.507 49.0234C162.767 49.0234 162.168 49.6236 162.168 50.364V54.3787C162.168 55.1191 162.767 55.7193 163.507 55.7193C164.246 55.7193 164.846 55.1191 164.846 54.3787V50.364Z" fill="#0899A7"/>
<path d="M164.27 50.076C164.27 49.4947 163.799 49.0234 163.219 49.0234C162.638 49.0234 162.168 49.4947 162.168 50.076V54.6667C162.168 55.2481 162.638 55.7193 163.219 55.7193C163.799 55.7193 164.27 55.2481 164.27 54.6667V50.076Z" fill="#046C7C"/>
<path d="M208.997 13.8027C209.671 13.8027 210.217 13.2566 210.217 12.583C210.217 11.9094 209.671 11.3633 208.997 11.3633C208.323 11.3633 207.777 11.9094 207.777 12.583C207.777 13.2566 208.323 13.8027 208.997 13.8027Z" fill="#046C7C"/>
<path d="M228.462 71.9184C228.462 82.6681 219.746 91.3838 208.997 91.3838C198.247 91.3838 189.531 82.6681 189.531 71.9184C189.531 61.1688 198.247 52.4531 208.997 52.4531C219.746 52.4531 228.462 61.1688 228.462 71.9184Z" fill="#D20A0A"/>
<path fill-rule="evenodd" clip-rule="evenodd" d="M216.411 67.452C217.169 66.691 217.169 65.4606 216.411 64.6996C215.65 63.9387 214.42 63.9387 213.659 64.6996L209.097 69.2619L204.534 64.6996C203.777 63.9387 202.543 63.9387 201.786 64.6996C201.025 65.4606 201.025 66.691 201.786 67.452L206.348 72.0142L201.786 76.5765C201.025 77.3375 201.025 78.5679 201.786 79.3289C202.543 80.0898 203.777 80.0898 204.534 79.3289L209.097 74.7666L213.659 79.3289C214.42 80.0898 215.65 80.0898 216.411 79.3289C217.169 78.5679 217.169 77.3375 216.411 76.5765L211.849 72.0142L216.411 67.452Z" fill="#D5DADD"/>
<path d="M180.78 66.0341C176.011 63.7227 171.107 71.2293 169.518 75.1302C167.928 79.0276 164.899 89.7132 164.899 87.9815C164.899 86.2497 162.303 79.6072 161.869 77.5874C161.645 76.5526 162.033 74.9453 162.655 73.6083V65.3264C162.655 64.3948 163.135 61.806 162.655 60.9988C162.242 60.3054 156.496 60.5579 155.34 61.1162C154.455 61.5429 153.786 62.3181 153.253 63.1395C151.326 66.1123 150.682 69.8496 149.498 73.146C148.129 76.9473 146.82 80.834 146.041 84.806C145.359 88.2837 145.284 91.8503 145.213 95.3956C145.088 101.547 145.881 108.272 143.606 114.072C142.311 117.371 140.619 120.547 138.77 123.577L156.962 136.641L164.902 121.916C164.902 121.916 169.664 119.025 171.975 115.85C174.283 112.674 176.022 100.253 176.164 96.6473C176.31 93.0345 176.31 88.1237 177.462 86.1075C178.618 84.0877 185.548 68.349 180.783 66.0412L180.78 66.0341Z" fill="#8D2A00"/>
<path d="M180.78 66.0356C180.115 65.712 179.446 65.5876 178.785 65.6125C179.546 66.8357 179.627 68.4572 179.464 69.8547C179.222 71.9243 178.564 73.9121 177.739 75.8181C177.441 76.5044 177.128 77.1978 176.74 77.8378C175.517 79.8612 173.643 81.3903 172.8 83.6163C171.957 85.8423 171.815 88.1892 171.673 90.5042C171.673 93.6156 171.285 96.7804 171.097 99.8883C170.919 102.769 170.947 105.706 170.208 108.508C168.974 113.205 166.097 117.373 161.727 119.638C161.435 119.787 161.129 119.94 160.934 120.204C160.6 120.652 160.685 121.267 160.738 121.822C161.126 125.769 159.014 129.271 156.585 132.194C155.884 133.037 155.098 133.901 154.234 134.687L156.958 136.643L164.899 121.918C164.899 121.918 169.66 119.027 171.972 115.851C174.279 112.676 176.018 100.255 176.16 96.6489C176.306 93.036 176.306 88.1252 177.458 86.109C178.614 84.0892 185.545 68.3505 180.78 66.0427V66.0356Z" fill="#450B00"/>
<path d="M162.651 60.9988C162.239 60.3054 156.492 60.5579 155.336 61.1162C154.451 61.5429 153.782 62.3181 153.249 63.1395C151.322 66.1123 150.678 69.8496 149.494 73.146C148.125 76.9473 146.816 80.834 146.038 84.806C145.355 88.2837 145.28 91.8503 145.209 95.3956C145.085 101.547 145.878 108.272 143.602 114.072C142.307 117.371 140.615 120.547 138.766 123.577L140.8 125.038C141.703 123.072 142.841 121.212 144.135 119.48C144.789 118.605 145.465 117.624 146.379 117.002C146.823 116.699 147.364 116.5 147.901 116.465C148.285 116.44 148.836 116.621 149.17 116.39C149.17 116.39 149.288 116.234 149.295 116.223C149.345 116.109 149.384 115.91 149.394 115.835C149.437 115.48 149.405 115.106 149.359 114.751C149.252 113.972 149.021 113.218 148.882 112.446C147.574 105.207 146.347 97.3016 147.456 89.9728C148.079 85.8586 149.661 81.8048 150.696 77.7759C151.254 75.5961 152.076 73.5372 152.979 71.4854C153.775 69.6754 154.643 67.869 155.781 66.2403C156.798 64.7788 158.106 63.2924 159.877 62.7768C160.724 62.5315 161.577 62.4781 162.434 62.5243C162.58 62.471 162.722 62.4106 162.868 62.3643C162.875 61.7883 162.825 61.2798 162.655 60.9953L162.651 60.9988Z" fill="#450B00"/>
<path d="M159.896 75.9314C160.188 76.8168 160.721 77.5671 161.333 78.2641C161.656 78.6304 161.998 78.986 162.36 79.3167C162.133 78.6019 161.955 78.001 161.866 77.5885C161.642 76.5537 162.03 74.9464 162.652 73.6093V66.8281C162.122 67.3722 161.635 67.9518 161.19 68.567C159.74 70.5797 159.124 73.1186 159.768 75.5153C159.807 75.654 159.846 75.7927 159.893 75.9314H159.896Z" fill="#450B00"/>
<path d="M173.779 71.367C173.715 71.7866 173.985 72.1885 174.398 72.2809C177.271 72.9139 179.333 74.7914 180.059 74.4109C180.617 74.1229 183.625 66.755 179.33 65.8944C175.034 65.0339 174.099 69.2975 173.782 71.367H173.779Z" fill="#450B00"/>
<path d="M153.853 136.156C154.971 136.156 155.877 135.25 155.877 134.133C155.877 133.015 154.971 132.109 153.853 132.109C152.736 132.109 151.83 133.015 151.83 134.133C151.83 135.25 152.736 136.156 153.853 136.156Z" fill="#450B00"/>
<path d="M160.212 142.079C158.064 146.278 152.663 140.215 146.667 137.15C140.672 134.089 130.826 129.43 132.632 125.071C133.212 123.677 142.791 127.215 148.787 130.277C154.782 133.338 160.212 142.075 160.212 142.075V142.079Z" fill="#2A4259"/>
<path d="M133.552 129.208L137.457 118.867C137.457 118.867 155.382 128.518 157.907 134.264C160.435 140.007 157.907 145.985 157.907 145.985L133.549 129.208H133.552Z" fill="#D5DADD"/>
<path d="M100.82 188.878L132.635 125.07L160.216 142.075L157.57 188.875H100.82V188.878Z" fill="#101619"/>
<path d="M138.112 181.767C135.416 178.047 133.123 174.004 131.586 169.666C130.121 165.527 129.4 161.078 129.816 156.694C129.83 156.562 129.844 156.431 129.865 156.303C130.545 151.893 135.42 149.486 139.449 151.406L144.047 153.6C145.369 154.23 146.657 152.679 145.793 151.499C142.909 147.559 139.186 142.424 139.132 142.125C139.036 141.609 139.449 141.094 140.007 141.25C142.091 141.837 144.125 142.577 146.127 143.395C150.718 145.269 155.184 147.48 159.81 149.244L160.216 142.079L132.635 125.074L100.82 188.882H144.036C141.917 186.639 139.925 184.27 138.112 181.77V181.767Z" fill="#2A4259"/>
<path d="M173.779 71.367C173.715 71.7866 173.985 72.1885 174.398 72.2809C177.271 72.9139 179.333 74.7914 180.059 74.4109C180.617 74.1229 183.625 66.755 179.33 65.8944C175.034 65.0339 174.099 69.2975 173.782 71.367H173.779Z" fill="#C35500"/>
<path d="M153.853 136.156C154.971 136.156 155.877 135.25 155.877 134.133C155.877 133.015 154.971 132.109 153.853 132.109C152.736 132.109 151.83 133.015 151.83 134.133C151.83 135.25 152.736 136.156 153.853 136.156Z" fill="#2A4259"/>
</svg>
