<svg width="160" height="160" viewBox="0 0 160 160" fill="none" xmlns="http://www.w3.org/2000/svg">
<mask id="mask0_2810_46786" style="mask-type:alpha" maskUnits="userSpaceOnUse" x="0" y="0" width="160" height="160">
<circle cx="80" cy="80" r="80" fill="#EBF8FF"/>
</mask>
<g mask="url(#mask0_2810_46786)">
<path d="M181.244 4.92495e-06H-35.3837C-36.7957 -0.00139667 -38.1941 0.296376 -39.4991 0.876291C-40.804 1.45621 -41.9898 2.3069 -42.9887 3.37974C-43.9876 4.45258 -44.78 5.72653 -45.3207 7.12878C-45.8614 8.53103 -46.1396 10.0341 -46.1396 11.552V148.437C-46.1396 151.504 -45.0064 154.445 -42.9893 156.613C-40.9722 158.782 -38.2363 160 -35.3837 160H181.244C184.097 160 186.832 158.782 188.85 156.613C190.867 154.445 192 151.504 192 148.437V11.552C192 10.0341 191.722 8.53103 191.181 7.12878C190.64 5.72653 189.848 4.45258 188.849 3.37974C187.85 2.3069 186.664 1.45621 185.359 0.876291C184.054 0.296376 182.656 -0.00139667 181.244 4.92495e-06Z" fill="#223548"/>
<path d="M66.4586 92.5352H-24.6148C-26.0184 92.5352 -27.1562 93.675 -27.1562 95.0812V154.169C-27.1562 155.575 -26.0184 156.715 -24.6148 156.715H66.4586C67.8622 156.715 69 155.575 69 154.169V95.0812C69 93.675 67.8622 92.5352 66.4586 92.5352Z" fill="#2A4259"/>
<path d="M64.3494 95.9937H-22.6335C-23.9362 95.9937 -24.9922 97.0516 -24.9922 98.3566V151.578C-24.9922 152.883 -23.9362 153.941 -22.6335 153.941H64.3494C65.6521 153.941 66.7081 152.883 66.7081 151.578V98.3566C66.7081 97.0516 65.6521 95.9937 64.3494 95.9937Z" fill="#223548"/>
<path d="M82.2326 157.89H-37.4883L-34.483 159.112C-34.2933 159.188 -34.0912 159.228 -33.887 159.23L79.157 159.512C79.4551 159.514 79.7475 159.431 80.0004 159.273L82.2298 157.881L82.2326 157.89Z" fill="#324E6B"/>
<path d="M82.2326 157.45C82.2319 157.239 82.1474 157.036 81.9978 156.887C81.8481 156.737 81.6455 156.653 81.4342 156.653H-36.6899C-36.9011 156.653 -37.1038 156.737 -37.2534 156.887C-37.4031 157.036 -37.4875 157.239 -37.4883 157.45V157.89H82.2326V157.45Z" fill="#2A4259"/>
<path d="M15.4069 156.628H29.2134V156.91C29.2134 157.208 29.0949 157.495 28.884 157.706C28.6731 157.917 28.3871 158.036 28.0888 158.036H16.523C16.2247 158.036 15.9387 157.917 15.7278 157.706C15.5169 157.495 15.3984 157.208 15.3984 156.91V156.628H15.4069Z" fill="#3B5B7C"/>
<path d="M21.0971 94.7971C21.4372 94.7971 21.7128 94.5209 21.7128 94.1803C21.7128 93.8396 21.4372 93.5635 21.0971 93.5635C20.7571 93.5635 20.4814 93.8396 20.4814 94.1803C20.4814 94.5209 20.7571 94.7971 21.0971 94.7971Z" fill="#324E6B"/>
<path d="M174.145 94.62L133.28 80.6219C131.545 80.0325 129.662 80.9493 129.073 82.6847L108.706 142.132C108.116 143.867 109.033 145.75 110.769 146.339L151.633 160.338C153.369 160.927 155.252 160.01 155.841 158.275L176.208 98.8276C176.797 97.0922 175.881 95.2094 174.145 94.62Z" fill="#2A4259"/>
<path d="M149.636 95.6352C148.294 95.0949 146.804 94.9639 145.396 95.275C143.972 95.5697 142.678 96.2901 141.663 97.3379C140.648 98.3857 139.96 99.6955 139.699 101.12C139.437 102.544 139.6 104.018 140.173 105.36C140.746 106.703 141.696 107.832 142.924 108.618C144.135 109.404 145.56 109.83 147.017 109.797C148.474 109.781 149.882 109.322 151.077 108.504C152.272 107.685 153.206 106.523 153.746 105.18L146.919 102.462L149.653 95.6352H149.636Z" fill="#223548"/>
<path d="M151.813 94.6362L149.096 101.447L155.906 104.165C156.267 103.264 156.447 102.315 156.43 101.349C156.43 100.383 156.218 99.4333 155.841 98.5492C155.464 97.6651 154.908 96.8628 154.22 96.1916C153.533 95.5203 152.714 94.9964 151.813 94.6362Z" fill="#324E6B"/>
<path d="M157.478 119.015L129.007 109.257C128.057 108.93 127.042 109.437 126.715 110.387C126.387 111.336 126.895 112.352 127.844 112.679L156.315 122.437C157.265 122.764 158.28 122.257 158.608 121.307C158.935 120.357 158.427 119.342 157.478 119.015Z" fill="#223548"/>
<path d="M155.023 124.811L126.552 115.053C125.602 114.726 124.587 115.233 124.26 116.183C123.932 117.132 124.44 118.147 125.389 118.475L153.86 128.233C154.81 128.56 155.841 128.053 156.152 127.103C156.48 126.153 155.972 125.138 155.023 124.811Z" fill="#223548"/>
<path d="M139.371 125.924L124.21 120.734C123.26 120.406 122.229 120.914 121.918 121.863C121.59 122.813 122.098 123.828 123.048 124.156L138.224 129.345C139.174 129.673 140.189 129.165 140.517 128.216C140.844 127.266 140.336 126.251 139.387 125.924H139.371Z" fill="#223548"/>
<path d="M100.927 29.9536H24.2707C19.6258 29.9536 15.8604 33.719 15.8604 38.3639V133.171C15.8604 137.816 19.6258 141.581 24.2707 141.581H100.927C105.571 141.581 109.337 137.816 109.337 133.171V38.3639C109.337 33.719 105.571 29.9536 100.927 29.9536Z" fill="#CEDBE8"/>
<path fill-rule="evenodd" clip-rule="evenodd" d="M24.4775 38.9909C24.4775 38.6087 24.568 38.3022 24.676 38.3022H88.3312C88.4421 38.3022 88.5296 38.5941 88.5296 38.9909V132.546C88.5296 132.929 88.4421 133.235 88.3312 133.235H24.676C24.568 133.235 24.4775 132.943 24.4775 132.546V38.9909Z" fill="#CEDBE8"/>
<path d="M88.5296 47.2588H24.4775V55.0125H88.5296V47.2588Z" fill="#2A4259"/>
<path d="M50.9259 41.0571H29.906C28.9067 41.0571 28.0967 41.8672 28.0967 42.8664C28.0967 43.8657 28.9067 44.6757 29.906 44.6757H50.9259C51.9252 44.6757 52.7352 43.8657 52.7352 42.8664C52.7352 41.8672 51.9252 41.0571 50.9259 41.0571Z" fill="#0070F3"/>
<path d="M46.534 50.1885H29.1297C28.5592 50.1885 28.0967 50.651 28.0967 51.2215C28.0967 51.7921 28.5592 52.2546 29.1297 52.2546H46.534C47.1046 52.2546 47.5671 51.7921 47.5671 51.2215C47.5671 50.651 47.1046 50.1885 46.534 50.1885Z" fill="#0070F3"/>
<path d="M43.2598 57.77H29.1297C28.5592 57.77 28.0967 58.2325 28.0967 58.8031C28.0967 59.3736 28.5592 59.8361 29.1297 59.8361H43.2598C43.8303 59.8361 44.2928 59.3736 44.2928 58.8031C44.2928 58.2325 43.8303 57.77 43.2598 57.77Z" fill="#0070F3"/>
<path d="M45.4981 65.6958H29.1297C28.5592 65.6958 28.0967 66.1583 28.0967 66.7288C28.0967 67.2994 28.5592 67.7619 29.1297 67.7619H45.4981C46.0686 67.7619 46.5311 67.2994 46.5311 66.7288C46.5311 66.1583 46.0686 65.6958 45.4981 65.6958Z" fill="#0070F3"/>
<path d="M36.5391 73.2749H29.1297C28.5592 73.2749 28.0967 73.7374 28.0967 74.308C28.0967 74.8785 28.5592 75.341 29.1297 75.341H36.5391C37.1096 75.341 37.5722 74.8785 37.5722 74.308C37.5722 73.7374 37.1096 73.2749 36.5391 73.2749Z" fill="#0070F3"/>
<path d="M36.5391 81.0283H29.1297C28.5592 81.0283 28.0967 81.4908 28.0967 82.0614C28.0967 82.6319 28.5592 83.0944 29.1297 83.0944H36.5391C37.1096 83.0944 37.5722 82.6319 37.5722 82.0614C37.5722 81.4908 37.1096 81.0283 36.5391 81.0283Z" fill="#0070F3"/>
<path d="M36.5391 96.5356H29.1297C28.5592 96.5356 28.0967 96.9982 28.0967 97.5687C28.0967 98.1392 28.5592 98.6017 29.1297 98.6017H36.5391C37.1096 98.6017 37.5722 98.1392 37.5722 97.5687C37.5722 96.9982 37.1096 96.5356 36.5391 96.5356Z" fill="#0070F3"/>
<path d="M36.5391 88.7822H29.1297C28.5592 88.7822 28.0967 89.2447 28.0967 89.8153C28.0967 90.3858 28.5592 90.8483 29.1297 90.8483H36.5391C37.1096 90.8483 37.5722 90.3858 37.5722 89.8153C37.5722 89.2447 37.1096 88.7822 36.5391 88.7822Z" fill="#0070F3"/>
<path d="M36.5391 104.29H29.1297C28.5592 104.29 28.0967 104.752 28.0967 105.323C28.0967 105.893 28.5592 106.356 29.1297 106.356H36.5391C37.1096 106.356 37.5722 105.893 37.5722 105.323C37.5722 104.752 37.1096 104.29 36.5391 104.29Z" fill="#0070F3"/>
<path d="M36.5039 112.075H29.0946C28.524 112.075 28.0615 112.538 28.0615 113.108C28.0615 113.679 28.524 114.141 29.0946 114.141H36.5039C37.0745 114.141 37.537 113.679 37.537 113.108C37.537 112.538 37.0745 112.075 36.5039 112.075Z" fill="#0070F3"/>
<path d="M82.7313 49.9927H65.327C64.7565 49.9927 64.2939 50.4552 64.2939 51.0257C64.2939 51.5963 64.7565 52.0588 65.327 52.0588H82.7313C83.3018 52.0588 83.7643 51.5963 83.7643 51.0257C83.7643 50.4552 83.3018 49.9927 82.7313 49.9927Z" fill="#0070F3"/>
<path d="M79.457 57.5747H65.327C64.7565 57.5747 64.2939 58.0372 64.2939 58.6078C64.2939 59.1783 64.7565 59.6408 65.327 59.6408H79.457C80.0276 59.6408 80.4901 59.1783 80.4901 58.6078C80.4901 58.0372 80.0276 57.5747 79.457 57.5747Z" fill="#0070F3"/>
<path d="M81.6953 65.4976H65.327C64.7565 65.4976 64.2939 65.9601 64.2939 66.5306C64.2939 67.1011 64.7565 67.5637 65.327 67.5637H81.6953C82.2659 67.5637 82.7284 67.1011 82.7284 66.5306C82.7284 65.9601 82.2659 65.4976 81.6953 65.4976Z" fill="#0070F3"/>
<path d="M72.7364 73.0791H65.327C64.7565 73.0791 64.2939 73.5416 64.2939 74.1122C64.2939 74.6827 64.7565 75.1452 65.327 75.1452H72.7364C73.3069 75.1452 73.7694 74.6827 73.7694 74.1122C73.7694 73.5416 73.3069 73.0791 72.7364 73.0791Z" fill="#0070F3"/>
<path d="M72.7364 80.833H65.327C64.7565 80.833 64.2939 81.2955 64.2939 81.8661C64.2939 82.4366 64.7565 82.8991 65.327 82.8991H72.7364C73.3069 82.8991 73.7694 82.4366 73.7694 81.8661C73.7694 81.2955 73.3069 80.833 72.7364 80.833Z" fill="#0070F3"/>
<path d="M72.7364 96.3403H65.327C64.7565 96.3403 64.2939 96.8028 64.2939 97.3734C64.2939 97.9439 64.7565 98.4064 65.327 98.4064H72.7364C73.3069 98.4064 73.7694 97.9439 73.7694 97.3734C73.7694 96.8028 73.3069 96.3403 72.7364 96.3403Z" fill="#0070F3"/>
<path d="M72.7364 88.5864H65.327C64.7565 88.5864 64.2939 89.0489 64.2939 89.6195C64.2939 90.19 64.7565 90.6525 65.327 90.6525H72.7364C73.3069 90.6525 73.7694 90.19 73.7694 89.6195C73.7694 89.0489 73.3069 88.5864 72.7364 88.5864Z" fill="#0070F3"/>
<path d="M72.7364 104.094H65.327C64.7565 104.094 64.2939 104.556 64.2939 105.127C64.2939 105.697 64.7565 106.16 65.327 106.16H72.7364C73.3069 106.16 73.7694 105.697 73.7694 105.127C73.7694 104.556 73.3069 104.094 72.7364 104.094Z" fill="#0070F3"/>
<path d="M72.7364 111.848H65.327C64.7565 111.848 64.2939 112.31 64.2939 112.881C64.2939 113.451 64.7565 113.914 65.327 113.914H72.7364C73.3069 113.914 73.7694 113.451 73.7694 112.881C73.7694 112.31 73.3069 111.848 72.7364 111.848Z" fill="#0070F3"/>
<path d="M93.5146 47.4263H133.213C133.239 47.4263 133.265 47.4345 133.283 47.4491C133.302 47.4638 133.312 47.4836 133.312 47.5044V125.973C133.312 125.994 133.302 126.014 133.283 126.028C133.265 126.043 133.239 126.051 133.213 126.051H93.6144C93.5879 126.051 93.5626 126.043 93.5439 126.028C93.5252 126.014 93.5146 125.994 93.5146 125.973V47.4263Z" fill="#B9C1C6"/>
<path d="M139.587 45.4849H95.9062V124.11H139.587V45.4849Z" fill="#CEDBE8"/>
<path d="M95.9062 45.4849H139.492C139.517 45.4849 139.541 45.4922 139.559 45.5054C139.577 45.5185 139.587 45.5363 139.587 45.5548V55.1916H95.9062V45.4849Z" fill="#2A4259"/>
<path d="M119.404 48.7559H99.1357C98.4712 48.7559 97.9326 49.2945 97.9326 49.9589C97.9326 50.6233 98.4712 51.1619 99.1357 51.1619H119.404C120.068 51.1619 120.607 50.6233 120.607 49.9589C120.607 49.2945 120.068 48.7559 119.404 48.7559Z" fill="#0070F3"/>
<path d="M115.506 59.0747H99.0507C98.3863 59.0747 97.8477 59.6133 97.8477 60.2778C97.8477 60.9422 98.3863 61.4808 99.0507 61.4808H115.506C116.17 61.4808 116.709 60.9422 116.709 60.2778C116.709 59.6133 116.17 59.0747 115.506 59.0747Z" fill="#0070F3"/>
<path d="M118.113 68.3042H99.0507C98.3863 68.3042 97.8477 68.8428 97.8477 69.5072C97.8477 70.1717 98.3863 70.7103 99.0507 70.7103H118.113C118.777 70.7103 119.316 70.1717 119.316 69.5072C119.316 68.8428 118.777 68.3042 118.113 68.3042Z" fill="#0070F3"/>
<path d="M107.679 77.1333H99.0507C98.3863 77.1333 97.8477 77.6719 97.8477 78.3363C97.8477 79.0008 98.3863 79.5394 99.0507 79.5394H107.679C108.344 79.5394 108.882 79.0008 108.882 78.3363C108.882 77.6719 108.344 77.1333 107.679 77.1333Z" fill="#0070F3"/>
<path d="M107.679 86.1631H99.0507C98.3863 86.1631 97.8477 86.7017 97.8477 87.3661C97.8477 88.0305 98.3863 88.5692 99.0507 88.5692H107.679C108.344 88.5692 108.882 88.0305 108.882 87.3661C108.882 86.7017 108.344 86.1631 107.679 86.1631Z" fill="#0070F3"/>
<path d="M107.679 104.223H99.0507C98.3863 104.223 97.8477 104.761 97.8477 105.426C97.8477 106.09 98.3863 106.629 99.0507 106.629H107.679C108.344 106.629 108.882 106.09 108.882 105.426C108.882 104.761 108.344 104.223 107.679 104.223Z" fill="#0070F3"/>
<path d="M107.679 95.1929H99.0507C98.3863 95.1929 97.8477 95.7315 97.8477 96.3959C97.8477 97.0603 98.3863 97.599 99.0507 97.599H107.679C108.344 97.599 108.882 97.0603 108.882 96.3959C108.882 95.7315 108.344 95.1929 107.679 95.1929Z" fill="#0070F3"/>
<path d="M107.679 113.249H99.0507C98.3863 113.249 97.8477 113.787 97.8477 114.452C97.8477 115.116 98.3863 115.655 99.0507 115.655H107.679C108.344 115.655 108.882 115.116 108.882 114.452C108.882 113.787 108.344 113.249 107.679 113.249Z" fill="#0070F3"/>
<path d="M8.25432 69.1774C8.25432 68.1666 5.32028 67.3575 1.40002 67.1737C1.17587 63.2583 0.312924 60.3469 -0.697961 60.3491C-1.70885 60.3514 -2.54938 63.2852 -2.76455 67.2208C-6.69603 67.4897 -9.61887 68.3683 -9.60542 69.3813C-9.59197 70.3944 -6.67137 71.2035 -2.75111 71.385C-2.51576 75.3004 -1.66402 78.2118 -0.655374 78.2096C0.353271 78.2073 1.19829 75.2736 1.41346 71.3379C5.34494 71.069 8.26553 70.1904 8.25432 69.1774Z" fill="#2A4259"/>
</g>
<path d="M147.417 29.7355C147.417 28.7247 144.483 27.9156 140.563 27.7318C140.339 23.8164 139.476 20.905 138.465 20.9072C137.454 20.9095 136.614 23.8433 136.399 27.7789C132.467 28.0478 129.544 28.9264 129.558 29.9394C129.571 30.9525 132.492 31.7616 136.412 31.9431C136.647 35.8586 137.499 38.7699 138.508 38.7677C139.516 38.7654 140.361 35.8317 140.577 31.896C144.508 31.6271 147.429 30.7485 147.417 29.7355Z" fill="#F58B00"/>
<path d="M159.674 46.8578C159.674 46.1419 157.596 45.5688 154.819 45.4386C154.66 42.6651 154.049 40.6029 153.333 40.6045C152.617 40.6061 152.022 42.6842 151.869 45.4719C149.084 45.6624 147.014 46.2847 147.023 47.0023C147.033 47.7199 149.102 48.293 151.879 48.4216C152.045 51.195 152.649 53.2572 153.363 53.2557C154.078 53.2541 154.676 51.176 154.829 48.3882C157.613 48.1977 159.682 47.5754 159.674 46.8578Z" fill="#F58B00"/>
</svg>
