<svg width="320" height="240" viewBox="0 0 320 240" fill="none" xmlns="http://www.w3.org/2000/svg">
<rect y="51" width="320" height="138" rx="24" fill="#89D1FF"/>
<path d="M189.408 101.903C189.168 101.562 188.697 101.492 188.356 101.743L177.395 108.547C177.184 108.708 176.81 108.515 176.74 108.756C175.835 107.878 176.263 108.577 176.058 108.345C176.058 108.305 175.713 108.796 175.723 108.756C175.743 108.615 175.753 108.465 175.763 108.315C175.763 108.165 175.773 108.004 175.783 107.834C175.783 107.794 175.783 107.744 175.783 107.704C175.783 107.573 175.783 107.443 175.783 107.313V107.173C175.783 107.032 175.783 106.882 175.783 106.732C175.783 106.692 175.783 106.662 175.783 106.622C175.783 106.431 175.773 106.241 175.753 106.041C175.492 101.372 173.679 94.4493 166.937 91.7143C164.683 90.8026 162.348 90.2015 159.984 89.7006C159.623 89.6204 159.253 89.5703 158.882 89.5403C158.611 89.2598 158.331 88.9893 158.06 88.7188C157.77 88.4282 157.469 88.1477 157.169 87.8672C155.035 85.8435 152.791 83.93 150.597 82.0265C146.529 78.51 142.402 74.2922 137.022 72.9097C134.106 72.1583 131.221 71.1164 128.746 69.4033C127.815 68.7621 126.783 68.201 125.661 68.0307C123.216 67.6701 120.842 66.8486 118.698 65.6263C117.055 64.6846 115.582 63.302 113.889 62.4104C113.769 62.3503 113.649 62.2902 113.528 62.2301C113.508 62.2301 113.498 62.2201 113.478 62.21C113.368 62.1599 113.268 62.1098 113.158 62.0698C113.108 62.0497 113.058 62.0297 113.018 62.0097C112.937 61.9796 112.857 61.9496 112.767 61.9195C112.627 61.8694 112.487 61.8293 112.356 61.7893C112.156 61.7392 111.926 61.6991 111.765 61.8293C111.475 62.0497 111.665 62.5106 111.875 62.8111C112.657 63.9332 113.438 65.0553 114.22 66.1773C114.34 66.3476 114.47 66.528 114.59 66.7083C114.711 66.8886 114.841 67.069 114.971 67.2493C115.101 67.4296 115.232 67.62 115.362 67.8103C115.492 68.0007 115.632 68.181 115.763 68.3714C115.893 68.5617 116.033 68.7521 116.163 68.9424C116.233 69.0426 116.294 69.1328 116.364 69.2329C116.494 69.4233 116.634 69.6136 116.764 69.804C116.835 69.8942 116.895 69.9943 116.965 70.0845C117.165 70.365 117.366 70.6455 117.556 70.916C117.686 71.0964 117.816 71.2767 117.947 71.457C118.077 71.6374 118.197 71.8077 118.327 71.978C118.638 72.4088 118.928 72.8095 119.209 73.1902C119.369 73.4106 119.529 73.631 119.68 73.8314C120.231 74.5627 120.652 75.1138 120.892 75.3742C121.58 76.123 118.088 76.0979 117.376 76.0655C116.474 76.0254 115.612 75.4945 114.881 75.0036C114.16 74.5127 113.488 73.9717 112.757 73.5008C112.196 73.1401 111.605 72.8296 110.964 72.6492C110.443 72.4989 109.912 72.4489 109.381 72.3587C105.313 71.6975 102.248 69.263 98.8515 67.1692C98.5509 66.9788 98.2604 66.8185 97.9899 66.6682C97.9899 66.6682 97.9899 66.6682 97.9799 66.6682C97.8997 66.6282 97.8196 66.5881 97.7394 66.548C97.7194 66.548 97.7094 66.528 97.6893 66.518C97.6292 66.4879 97.5591 66.4578 97.499 66.4278C97.4789 66.4178 97.4589 66.4078 97.4389 66.3977C97.3787 66.3677 97.3287 66.3476 97.2786 66.3276C97.2585 66.3276 97.2385 66.3076 97.2185 66.3076C97.1684 66.2875 97.1183 66.2675 97.0682 66.2575C97.0481 66.2575 97.0281 66.2475 97.0081 66.2374C96.958 66.2174 96.9079 66.2074 96.8678 66.1974C96.8578 66.1974 96.8378 66.1974 96.8277 66.1974C96.7175 66.1773 96.6173 66.1673 96.5272 66.1873C96.5172 66.1873 96.5071 66.1873 96.4971 66.1873C96.4671 66.1873 96.437 66.2074 96.417 66.2174C96.407 66.2174 96.3969 66.2274 96.3769 66.2374C96.3569 66.2475 96.3368 66.2675 96.3168 66.2775C96.3068 66.2875 96.2968 66.2975 96.2867 66.3076C96.2767 66.3276 96.2567 66.3476 96.2467 66.3677C96.1866 66.4879 96.1765 66.6382 96.2066 66.7684C96.2066 66.8085 96.2266 66.8486 96.2366 66.8786C96.2767 66.9888 96.3469 67.089 96.417 67.1792C96.4871 67.2794 96.5572 67.3695 96.6274 67.4697C96.6775 67.5499 96.7276 67.62 96.7877 67.6901C96.8478 67.7803 96.9079 67.8604 96.968 67.9506C97.0381 68.0508 97.0982 68.1409 97.1684 68.2411C97.2385 68.3513 97.3186 68.4515 97.3888 68.5617C97.4689 68.6819 97.5491 68.7921 97.6292 68.9124C97.7194 69.0326 97.7995 69.1628 97.8897 69.283C97.9799 69.4133 98.07 69.5435 98.1602 69.6738C98.2604 69.814 98.3505 69.9443 98.4507 70.0845C98.5509 70.2248 98.6511 70.375 98.7513 70.5153C98.8515 70.6656 98.9617 70.8159 99.0618 70.9561C99.172 71.1064 99.2722 71.2567 99.3824 71.4069C99.4926 71.5572 99.6028 71.7175 99.713 71.8778C99.8232 72.0381 99.9334 72.1984 100.044 72.3487C100.154 72.509 100.264 72.6693 100.384 72.8296C100.494 72.9899 100.615 73.1501 100.725 73.3104C100.835 73.4707 100.955 73.631 101.066 73.7913C101.176 73.9516 101.296 74.1119 101.406 74.2722C101.516 74.4325 101.627 74.5928 101.747 74.7431C101.857 74.9034 101.967 75.0536 102.077 75.2139C102.188 75.3642 102.298 75.5245 102.408 75.6748C102.518 75.8251 102.618 75.9753 102.729 76.1256C102.829 76.2659 102.939 76.4162 103.039 76.5564C103.139 76.6967 103.24 76.8369 103.35 76.9772C103.45 77.1074 103.54 77.2477 103.64 77.3779C103.73 77.5082 103.831 77.6384 103.921 77.7586C104.011 77.8788 104.101 77.9991 104.191 78.1193C104.271 78.2295 104.362 78.3397 104.442 78.4499C104.522 78.5501 104.592 78.6503 104.672 78.7605C104.742 78.8506 104.812 78.9408 104.883 79.041C104.933 79.1011 104.973 79.1612 105.013 79.2113C105.213 79.4618 105.373 79.6521 105.484 79.7823C105.504 79.8024 105.514 79.8224 105.534 79.8425C105.504 79.8425 105.484 79.8425 105.454 79.8324C105.203 79.7924 104.963 79.7623 104.712 79.7122C104.702 79.7122 104.682 79.7122 104.672 79.7122C104.161 79.622 103.65 79.5118 103.139 79.3816C103.119 79.3816 103.109 79.3816 103.089 79.3716C102.839 79.3015 102.598 79.2313 102.348 79.1512C102.338 79.1512 102.318 79.1512 102.308 79.1412C101.807 78.9809 101.306 78.7905 100.825 78.5601C100.515 78.4198 100.214 78.2595 99.9134 78.0892C98.6311 77.3479 97.529 76.356 96.4871 75.3041C95.4752 74.2922 94.4333 73.3806 93.3614 72.4188C91.4879 70.7357 89.6045 69.0626 87.721 67.3896C85.7173 65.6063 83.7136 63.833 81.6999 62.0698C80.658 61.1581 79.6061 60.2665 78.5742 59.3448C77.5623 58.4431 76.5204 57.5715 75.3883 56.8402C75.2481 56.75 75.1178 56.6698 74.9776 56.5797C74.6269 56.3693 74.2562 56.1689 73.9056 55.9485C73.7954 55.8784 73.6952 55.7982 73.585 55.7181C73.565 55.648 73.5449 55.5879 73.5249 55.5177C73.3546 55.3775 73.1742 55.2472 72.9839 55.1571C72.9338 55.127 72.8837 55.117 72.8436 55.107H72.8336C72.7535 55.097 72.6934 55.137 72.6733 55.2272C72.6232 55.2572 72.5932 55.3174 72.5932 55.4276C72.5932 55.5378 72.6433 55.7381 72.7234 55.9786C73.1642 57.2209 73.8054 58.373 74.4165 59.5351C74.5969 59.8757 75.0577 60.7173 75.3583 61.2683C75.3783 61.2984 75.3783 61.3384 75.3783 61.3685C75.3282 61.3985 75.2681 61.4086 75.218 61.3685C74.3765 60.8275 72.7835 59.8557 72.5431 60.1663C72.523 60.1863 72.523 60.2063 72.513 60.2364C72.493 60.2364 72.483 60.2564 72.4729 60.2665C72.4128 60.3466 72.4429 60.5069 72.5832 60.7774C72.9939 61.5388 73.595 62.4805 74.126 63.292C74.156 63.3421 74.3865 63.6727 74.6369 64.0434C74.7171 64.1536 74.7171 64.2738 74.667 64.374C74.5668 64.4842 74.4065 64.5343 74.2462 64.4441C72.1824 63.3421 68.2352 61.2583 68.2452 61.8894C68.1851 61.9095 68.165 61.9596 68.1851 62.0297C68.3554 62.751 73.9056 69.3932 81.0287 76.1557C81.199 76.316 81.3793 76.4863 81.5496 76.6466C81.5697 76.6666 81.5797 76.6766 81.5997 76.6967C81.77 76.857 81.9404 77.0173 82.1107 77.1776C82.1307 77.1976 82.1407 77.2076 82.1608 77.2276C82.3311 77.3879 82.5114 77.5482 82.6917 77.7185C82.6917 77.7185 82.7118 77.7386 82.7218 77.7386C83.6435 78.5902 84.5952 79.4317 85.547 80.2632C85.557 80.2732 85.577 80.2833 85.5871 80.2933C85.7474 80.4335 85.9177 80.5838 86.088 80.7241C86.1281 80.7541 86.1681 80.7942 86.2082 80.8243C86.3685 80.9545 86.5188 81.0948 86.6791 81.225C86.7292 81.2651 86.7793 81.3051 86.8193 81.3452C86.9696 81.4755 87.1299 81.6057 87.2802 81.7259C87.3303 81.766 87.3804 81.8161 87.4305 81.8562C87.5807 81.9864 87.741 82.1066 87.8913 82.2369C87.9414 82.2769 87.9815 82.317 88.0316 82.3471C88.1919 82.4773 88.3521 82.6075 88.5124 82.7378C88.5425 82.7578 88.5625 82.7778 88.5926 82.7979C89.334 83.389 90.0653 83.95 90.8067 84.511C90.8568 84.5411 90.8968 84.5812 90.9469 84.6112C91.0972 84.7214 91.2475 84.8316 91.3877 84.9418C91.4478 84.9819 91.508 85.032 91.5681 85.0721C91.7083 85.1723 91.8486 85.2724 91.9989 85.3826C92.069 85.4327 92.1291 85.4828 92.1992 85.5229C92.3395 85.6231 92.4797 85.7132 92.62 85.8134C92.6901 85.8635 92.7603 85.9036 92.8204 85.9537C92.9606 86.0539 93.1009 86.144 93.2411 86.2442C93.3013 86.2843 93.3714 86.3344 93.4315 86.3745C93.5717 86.4746 93.722 86.5648 93.8623 86.665C93.9124 86.6951 93.9625 86.7351 94.0126 86.7652C94.5636 87.1258 95.1046 87.4665 95.6456 87.7871C95.7958 87.8772 95.9361 87.9574 96.0864 88.0475C96.1465 88.0776 96.2066 88.1177 96.2567 88.1477L96.6574 88.3781C96.7276 88.4182 96.7977 88.4583 96.8678 88.4984C96.998 88.5685 97.1283 88.6386 97.2485 88.7088C97.3186 88.7488 97.3888 88.7889 97.4689 88.829C97.5992 88.8991 97.7194 88.9592 97.8496 89.0193C97.9197 89.0594 97.9899 89.0895 98.07 89.1295C98.2003 89.1896 98.3205 89.2498 98.4407 89.3099C98.5108 89.3399 98.581 89.38 98.6511 89.41C98.6611 89.41 98.6711 89.4201 98.6811 89.4301C98.6811 89.4301 98.6912 89.4301 98.7012 89.4401C98.8114 89.4902 98.9216 89.5403 99.0318 89.5904C99.0919 89.6204 99.152 89.6405 99.2121 89.6705C99.2522 89.6906 99.2923 89.7106 99.3323 89.7206C99.3925 89.7407 99.4425 89.7707 99.4926 89.7907C99.5327 89.8108 99.5728 89.8308 99.6129 89.8408H99.6229C99.8032 89.921 99.9835 89.9911 100.164 90.0612C101.728 91.3456 102.631 96.5379 103.46 99.5787C103.47 99.6188 103.48 99.6589 103.49 99.699C103.67 100.3 103.971 100.921 104.301 101.442C104.542 101.823 104.842 102.163 105.213 102.424C105.484 102.604 106.105 102.815 105.975 103.256C105.975 103.266 105.965 103.276 105.955 103.296C105.955 103.296 105.955 103.296 105.945 103.306C105.914 103.336 105.884 103.366 105.844 103.386C105.814 103.406 105.774 103.426 105.734 103.446C105.684 103.466 105.634 103.486 105.574 103.506C105.574 103.506 105.574 103.506 105.564 103.506C105.514 103.526 105.454 103.536 105.393 103.546C105.383 103.546 105.373 103.546 105.363 103.546C105.303 103.546 105.243 103.556 105.183 103.566C105.163 103.566 105.153 103.566 105.133 103.566C104.903 103.566 104.602 103.516 104.492 103.766C104.452 103.807 104.412 103.857 104.402 103.937C104.352 104.117 104.432 104.317 104.512 104.488C105.193 105.97 106.556 107.123 108.129 107.553C108.269 107.593 108.449 107.694 108.429 107.824C108.399 107.844 108.359 107.864 108.319 107.874C107.708 108.104 107.067 108.255 106.425 108.345C106.105 108.395 105.674 108.345 105.353 108.365C105.223 108.365 104.913 108.405 104.933 108.545C104.832 108.595 104.812 108.685 105.033 108.826C106.175 109.577 107.357 110.268 108.569 110.89C109.631 111.431 110.653 112.022 111.825 112.292C112.036 112.342 112.246 112.382 112.436 112.462C112.487 112.482 112.537 112.513 112.557 112.563C112.557 112.573 112.557 112.593 112.557 112.603C112.527 112.623 112.487 112.643 112.446 112.663C111.845 112.843 111.224 112.923 110.603 112.893C110.383 112.883 109.882 112.753 109.792 113.044C109.762 113.074 109.731 113.104 109.721 113.154C109.701 113.224 109.701 113.324 109.731 113.434C109.762 113.534 109.802 113.635 109.862 113.755C110.603 115.187 112.246 116.209 113.789 116.53C114.22 116.62 114.671 116.66 115.091 116.79C115.372 116.871 115.692 117.071 115.662 117.361C115.662 117.422 115.632 117.482 115.602 117.532C115.592 117.552 115.572 117.572 115.562 117.582C115.402 117.782 114.861 117.943 114.41 118.043C114.29 118.073 114.21 118.143 114.17 118.233C114.039 118.373 114.029 118.614 114.2 118.754C114.3 118.834 114.38 118.904 114.42 118.934C115.212 119.616 116.113 120.197 117.075 120.607C117.957 120.998 118.918 121.118 119.83 121.459C121.062 121.92 122.214 122.541 123.407 123.092C123.577 123.232 124.258 123.813 125.16 124.605C125.37 124.785 125.591 124.985 125.811 125.186C126.041 125.386 126.272 125.607 126.512 125.817C126.633 125.927 126.753 126.037 126.873 126.148C127.164 126.408 127.444 126.679 127.735 126.939C128.356 127.52 128.967 128.111 129.548 128.732C129.478 128.742 129.408 128.762 129.338 128.762C126.382 129.073 122.795 128.993 120.481 131.147C119.98 131.608 119.56 132.169 119.079 132.64C118.788 132.92 118.478 133.181 118.107 133.361C117.876 133.481 117.626 133.561 117.376 133.631C116.955 133.752 116.524 133.822 116.103 133.962C115.622 134.112 115.181 134.343 114.741 134.593C114.52 134.723 114.31 134.854 114.089 134.984C113.879 135.114 113.659 135.254 113.448 135.385C110.353 137.258 106.696 138.2 103.139 138.671C101.246 138.921 98.7913 138.19 97.1884 139.432C96.3168 140.103 95.8559 141.175 95.4853 142.217C93.3614 148.198 93.151 154.339 93.0608 160.601C92.9606 167.995 92.9807 175.538 93.2111 182.862C93.3313 184.926 93.3814 186.979 93.3714 189.023H108.519C108.519 188.673 108.529 188.332 108.539 187.981C108.579 185.697 108.619 183.333 108.629 181.018C108.649 178.424 108.72 175.809 108.78 173.274C108.92 167.714 109.08 161.953 108.68 156.303C108.509 153.849 108.269 151.244 109.862 149.18C110.072 148.909 110.303 148.649 110.613 148.499C110.783 148.409 110.974 148.358 111.164 148.318C111.665 148.198 112.186 148.118 112.697 148.068C113.679 147.988 114.671 148.038 115.642 147.878C117.285 147.607 118.498 146.715 119.68 145.603C121.032 144.341 122.244 142.928 123.497 141.566C124.789 140.163 126.302 138.971 127.955 138.039C128.646 137.649 129.378 137.298 130.119 137.008C133.535 135.666 138.117 135.696 141.73 136.256C145.343 136.838 146.778 137.131 150.296 136.717C152.64 136.457 154.915 135.745 157.129 134.954C158.611 134.423 160.094 133.852 161.657 133.561C161.837 133.531 162.018 133.501 162.208 133.471C162.388 133.441 162.559 133.421 162.739 133.411C162.769 133.411 162.789 133.411 162.819 133.411C162.989 133.391 163.16 133.381 163.33 133.371C163.36 133.371 163.39 133.371 163.42 133.371C163.591 133.361 163.761 133.351 163.931 133.341C163.961 133.341 163.991 133.341 164.021 133.341C164.202 133.341 164.372 133.331 164.552 133.321H164.602C165.213 133.301 165.815 133.301 166.426 133.291L172.457 142.768C172.858 143.409 173.719 143.94 174.42 143.86L203.574 121.94L189.388 101.883L189.408 101.903ZM144.045 130.856C144.095 130.906 144.145 130.966 144.195 131.017C144.415 131.257 144.636 131.517 144.836 131.778C143.033 131.457 140.738 131.007 139.496 130.766C139.196 130.696 138.905 130.646 138.615 130.586H138.605C136.21 130.155 134.487 130.175 133.465 130.185C133.285 129.995 133.064 129.774 132.834 129.534C133.345 129.193 133.926 128.792 134.557 128.382L136.431 126.378C137.302 126.809 138.424 127.39 139.556 128.001C139.626 128.041 139.707 128.081 139.777 128.121C141.55 129.093 143.293 130.135 144.025 130.856H144.045ZM131.892 125.687C131.892 125.687 131.972 125.697 132.012 125.707C132.684 125.827 133.385 125.947 134.116 126.047C134.267 126.067 134.417 126.087 134.567 126.108C134.697 126.128 134.828 126.138 134.968 126.158C135.258 126.188 135.549 126.218 135.839 126.248L133.245 127.39L132.032 127.991C132.032 127.991 132.012 127.991 132.002 127.991C131.842 128.061 131.682 128.131 131.532 128.201C130.86 127.51 130.109 126.759 129.358 125.997C128.967 125.607 128.586 125.216 128.205 124.825C129.317 125.146 130.54 125.436 131.892 125.687ZM153.472 131.718C152.46 131.918 151.438 132.048 150.406 132.099C150.046 132.119 149.675 132.129 149.314 132.139H149.164C148.914 132.139 148.663 132.139 148.413 132.129C148.252 131.718 148.032 131.327 147.751 130.976C147.321 130.456 146.77 130.145 146.178 129.834C145.908 129.674 145.597 129.484 145.257 129.273C145.147 129.203 145.026 129.133 144.906 129.063C143.684 128.332 142.131 127.4 140.618 126.498C141.51 126.498 142.422 126.498 143.373 126.458C143.694 126.448 144.015 126.428 144.315 126.408C144.395 126.408 144.475 126.398 144.556 126.388C144.826 126.368 145.086 126.358 145.337 126.328C145.377 126.328 145.417 126.328 145.457 126.328C145.758 126.298 146.048 126.278 146.329 126.238C146.379 126.238 146.419 126.238 146.469 126.228C146.719 126.198 146.97 126.168 147.22 126.138C147.25 126.138 147.281 126.138 147.321 126.128C147.882 126.047 148.413 125.957 148.914 125.857C148.934 125.857 148.944 125.857 148.954 125.857C149.465 125.757 149.945 125.637 150.406 125.516C150.406 125.506 150.406 125.486 150.416 125.476C150.416 125.486 150.416 125.496 150.416 125.506C152.7 124.895 154.273 124.054 155.365 123.122C155.946 122.631 156.457 122.05 156.878 121.419C156.878 121.419 156.878 121.419 156.888 121.409C157.139 121.038 157.359 120.658 157.539 120.257C158.03 119.185 157.95 117.902 158.732 116.981C159.032 116.62 159.483 116.249 159.894 115.969C159.894 115.969 159.894 115.969 159.904 115.969C160.024 115.879 160.154 115.799 160.284 115.708C160.294 115.708 160.304 115.688 160.325 115.678C162.398 114.236 162.722 115.769 165.357 115.708C165.678 115.708 166.105 115.628 166.426 115.678C166.646 115.718 167.12 115.809 167.351 115.84C167.581 115.87 167.911 115.969 167.921 115.969C168.382 116.029 168.644 115.668 169.094 115.678L169.912 115.84L170.607 116.071C170.306 116.051 171.194 116.714 170.944 116.904L160.615 121.979C160.114 122.349 159.994 123.051 160.325 123.572L163.16 128.111L164.552 130.295C162.839 130.295 161.126 130.325 159.413 130.506C159.152 130.536 158.892 130.566 158.631 130.606C158.611 130.606 158.581 130.606 158.561 130.616C156.848 130.886 155.195 131.367 153.502 131.728H153.492L153.472 131.718Z" fill="#1B90FF"/>
<path d="M206.74 114.326C205.387 114.145 203.995 114.125 202.632 114.125C200.067 114.125 197.503 114.125 194.948 114.396C192.393 114.666 189.949 115.428 187.434 115.949C184.218 116.6 180.952 116.61 177.686 116.249C175.342 115.859 171.565 115.117 169.692 114.747C169.311 114.666 168.94 114.586 168.58 114.526H168.57C162.388 113.404 159.723 114.656 160.955 113.374C161.657 112.903 162.508 112.322 163.43 111.711L166.616 108.305L161.747 110.449L160.214 111.22C160.214 111.22 160.194 111.22 160.184 111.22C159.433 111.561 158.671 111.881 157.86 112.052C157.519 112.112 157.169 112.172 156.818 112.212C153.061 112.603 148.513 112.502 145.567 115.247C144.555 116.189 143.794 117.441 142.562 118.063C141.77 118.463 140.869 118.554 140.017 118.824C138.805 119.215 137.743 119.966 136.651 120.627C132.714 123.012 128.075 124.204 123.557 124.795C121.152 125.106 118.027 124.184 115.993 125.767C114.891 126.628 114.3 127.981 113.829 129.293C111.124 136.897 110.853 144.692 110.753 152.646C110.623 162.044 110.653 171.621 110.954 180.918C111.104 183.543 111.164 186.148 111.154 188.743H130.389C130.389 188.302 130.399 187.861 130.409 187.42C130.459 184.515 130.51 181.519 130.53 178.574C130.55 175.278 130.64 171.962 130.72 168.746C130.9 161.683 131.101 154.369 130.59 147.186C130.369 144.07 130.059 140.764 132.092 138.14C132.353 137.799 132.653 137.468 133.044 137.278C133.265 137.168 133.505 137.108 133.735 137.048C134.377 136.897 135.028 136.787 135.679 136.737C136.921 136.627 138.184 136.697 139.416 136.497C141.5 136.146 143.043 135.014 144.545 133.611C146.258 132.008 147.801 130.215 149.394 128.492C151.027 126.709 152.951 125.196 155.055 124.014C155.936 123.513 156.858 123.082 157.8 122.701C160.094 121.789 162.538 121.259 165.003 121.118C167.467 120.978 170.052 121.359 172.557 121.759C175.382 122.21 178.247 122.581 181.123 122.511C181.894 122.491 182.665 122.441 183.437 122.361C186.412 122.02 189.298 121.128 192.123 120.116C194.006 119.445 195.89 118.714 197.873 118.353C200.077 117.952 202.352 118.023 204.596 117.962C205.147 117.952 205.708 117.922 206.249 117.792C207.832 117.401 209.044 116.129 210.557 115.518C209.385 114.857 208.092 114.516 206.76 114.336L206.74 114.326Z" fill="#C35500"/>
<path d="M118.207 188.464C117.245 186.871 116.574 185.108 116.003 183.354C115.231 180.99 114.74 178.515 114.32 176.061C113.879 173.436 113.578 170.801 113.358 168.146C112.927 162.957 112.757 157.717 112.737 152.508C112.707 147.508 112.436 141.728 116.654 138.191C117.415 137.55 118.347 137.009 119.349 137.059C120.2 137.109 120.972 137.59 121.823 137.67C123.286 137.801 124.709 136.498 124.709 135.036C124.709 133.863 123.927 132.781 124.017 131.609C124.078 130.768 124.589 130.006 125.24 129.475C128.365 126.871 133.074 126.58 136.901 125.809C140.478 125.097 143.974 124.246 147.11 122.292C149.845 120.589 151.939 117.573 155.315 117.052C156.938 116.802 158.561 117.303 160.084 117.894C161.156 118.305 162.939 118.866 164.041 119.146C164.903 119.367 165.764 119.567 166.636 119.737C168.539 120.118 170.463 120.318 172.396 120.298C174.06 120.278 175.652 119.968 177.215 119.407C179.419 118.615 181.443 117.433 183.567 116.451C181.623 116.562 179.66 116.481 177.716 116.261C175.372 115.87 171.595 115.129 169.722 114.758C169.341 114.678 168.97 114.598 168.609 114.538H168.599C162.418 113.416 159.753 114.668 160.985 113.386C161.687 112.915 162.538 112.334 163.46 111.723L166.646 108.316L161.777 110.46L160.244 111.232C160.244 111.232 160.224 111.232 160.214 111.232C159.463 111.572 158.701 111.893 157.89 112.063C157.549 112.123 157.199 112.184 156.848 112.224C153.091 112.614 148.543 112.514 145.597 115.259C144.585 116.201 143.824 117.453 142.592 118.074C141.8 118.475 140.899 118.565 140.047 118.836C138.835 119.226 137.773 119.978 136.681 120.639C132.744 123.023 128.105 124.216 123.587 124.807C121.182 125.117 118.057 124.196 116.023 125.779C114.921 126.64 114.33 127.993 113.859 129.305C111.154 136.909 110.883 144.703 110.783 152.658C110.653 162.055 110.683 171.633 110.984 180.93C111.134 183.555 111.194 186.16 111.184 188.754H118.417C118.357 188.664 118.297 188.574 118.247 188.484L118.207 188.464Z" fill="#8D2A00"/>
<path d="M206.739 114.325C205.387 114.145 203.994 114.125 202.632 114.125C200.067 114.125 197.502 114.125 194.948 114.395C194.277 114.466 193.615 114.576 192.944 114.696C193.405 114.746 193.876 114.806 194.327 114.886C196.16 115.217 197.693 116.139 198.414 117.902C198.454 118.012 198.504 118.122 198.534 118.233C200.518 117.952 202.552 118.012 204.555 117.952C205.106 117.942 205.667 117.912 206.208 117.782C207.791 117.391 209.004 116.119 210.516 115.508C209.344 114.846 208.052 114.506 206.719 114.325H206.739Z" fill="#8D2A00"/>
<path d="M196.922 105.02L213.883 131.108L214.063 131.388L251.101 103.547L233.078 78.0703L220.866 87.2672L196.922 105.01V105.02Z" fill="white"/>
<path d="M249.448 102.172L233.569 100.508C234.361 97.1323 235.062 93.6659 235.262 90.2095C235.443 87.2641 235.152 84.3087 235.112 81.3633C234.912 95.92 229.381 107.461 227.468 108.353C221.677 111.068 196.912 105.027 196.912 105.027C197.092 105.117 197.272 105.207 197.453 105.297C199.246 106.199 201.089 107.01 202.953 107.762C207.14 109.455 211.509 110.868 215.987 111.529C216.588 111.619 217.189 111.689 217.79 111.749L212.921 122.739C211.839 125.184 212.18 128.019 213.813 130.133L219.884 111.879C221.647 111.909 223.4 111.739 225.094 111.248C226.656 110.797 228.139 110.076 229.381 109.024C231.495 107.231 232.527 104.536 233.238 101.881L249.458 102.182L249.448 102.172Z" fill="#0040B0"/>
<path d="M220.605 98.5864C217.77 96.2821 212.861 92.9961 212.861 92.9961L211.669 94.2083L211.358 93.7875L211.328 93.7475C210.947 93.7174 210.567 93.8276 210.246 94.0681L196.821 104.177C196.19 104.658 196.03 105.539 196.451 106.21L199.717 111.35L201.951 114.856L202.021 114.966L211.588 130.014C212.099 130.826 213.191 131.497 214.073 131.397L197.473 105.289C197.292 105.199 197.112 105.108 196.932 105.018L199.015 103.726L212.761 95.2102C213.652 95.7712 214.554 96.4124 214.875 96.6228C215.596 97.0836 216.217 97.6747 216.818 98.2758C217.109 98.5663 217.399 98.8669 217.7 99.1474C218.06 99.498 218.421 99.8487 218.822 100.149C219.112 100.37 219.453 100.61 219.824 100.64C220.084 100.66 220.284 100.52 220.395 100.29C220.545 99.9789 220.585 99.6083 220.595 99.2676C220.595 99.0472 220.595 98.8168 220.595 98.5964L220.605 98.5864Z" fill="#0040B0"/>
<path d="M218 89.4295L233.078 78.0786C232.768 77.6478 232.166 77.5476 231.746 77.8682L217.199 88.8183C216.928 89.0187 216.748 89.2992 216.668 89.6098C216.698 89.6398 216.738 89.6699 216.768 89.7C217.83 90.7118 218.702 91.6936 219.433 92.6253C219.155 91.7719 218.49 90.282 218 89.4295Z" fill="#0040B0"/>
<path d="M183.767 52.8106C178.598 48.3424 173.358 42.9826 166.526 41.2294C163.31 40.3978 160.404 39.1155 157.489 37.5225C155.235 36.2903 152.931 35.0279 150.396 34.487C147.861 33.946 145.567 33.2948 143.253 31.9723C140.558 30.4395 138.254 27.9449 135.198 27.1134C134.948 27.0433 134.657 27.0032 134.447 27.1535C134.076 27.434 134.316 28.0151 134.587 28.3958C135.579 29.8184 136.571 31.251 137.572 32.6736C137.723 32.894 137.883 33.1144 138.043 33.3449C138.204 33.5753 138.364 33.8057 138.524 34.0361C138.684 34.2665 138.855 34.507 139.025 34.7474C139.195 34.9879 139.366 35.2183 139.526 35.4688C139.696 35.7092 139.867 35.9496 140.037 36.1901C140.127 36.3103 140.207 36.4305 140.297 36.5507C140.468 36.7912 140.638 37.0316 140.808 37.2721C140.898 37.3923 140.979 37.5125 141.059 37.6327C141.309 37.9934 141.57 38.344 141.81 38.6947C141.98 38.9251 142.141 39.1555 142.301 39.386C142.461 39.6064 142.622 39.8368 142.782 40.0472C143.173 40.5882 143.553 41.1091 143.904 41.58C144.114 41.8705 144.315 42.141 144.505 42.3915C145.196 43.3232 145.747 44.0145 146.038 44.3451C146.479 44.8159 146.459 44.9362 146.178 44.8961C145.347 44.7558 144.565 44.3451 143.714 44.2148C143.533 44.1848 143.353 44.1647 143.173 44.2148C142.912 44.295 142.732 44.5154 142.602 44.7558C142.471 44.9963 142.371 45.2768 142.431 45.5573C142.481 45.7978 142.652 45.9881 142.812 46.1684C144.705 48.2122 147.15 49.755 149.454 51.2878C151.478 52.6303 153.532 53.8926 155.626 55.1149C159.613 57.4291 163.761 59.6933 168.139 61.166C168.73 61.3664 169.321 61.5467 169.922 61.687C178.608 63.7608 194.387 62.4584 194.387 62.4584C191.021 59.0521 187.334 55.9164 183.747 52.8207H183.757L183.767 52.8106Z" fill="#FFB2D2"/>
<path d="M183.617 52.6804C183.256 52.6804 182.896 52.6904 182.535 52.7004C179.75 52.7205 176.955 52.5702 174.19 52.2997C171.254 52.0092 168.309 51.6485 165.414 51.0975C158.631 49.7951 151.648 47.3606 146.819 42.2212C144.305 39.5463 142.381 36.3504 140.368 33.2948C139.255 31.6117 138.183 29.8584 137.372 28.0151C136.681 27.6344 135.959 27.3238 135.198 27.1134C134.948 27.0433 134.657 27.0032 134.447 27.1535C134.076 27.434 134.316 28.0151 134.587 28.3958C135.579 29.8184 136.571 31.251 137.572 32.6736C137.723 32.894 137.883 33.1144 138.043 33.3449C138.204 33.5753 138.364 33.8057 138.524 34.0361C138.684 34.2665 138.855 34.507 139.025 34.7474C139.195 34.9879 139.366 35.2183 139.526 35.4688C139.696 35.7092 139.867 35.9496 140.037 36.1901C140.127 36.3103 140.207 36.4305 140.297 36.5507C140.468 36.7912 140.638 37.0316 140.808 37.2721C140.898 37.3923 140.979 37.5125 141.059 37.6327C141.309 37.9934 141.57 38.344 141.81 38.6947C141.98 38.9251 142.141 39.1555 142.301 39.386C142.461 39.6064 142.622 39.8368 142.782 40.0472C143.173 40.5882 143.553 41.1091 143.904 41.58C144.114 41.8705 144.315 42.141 144.505 42.3915C145.196 43.3232 145.747 44.0145 146.038 44.3451C146.479 44.8159 146.459 44.9362 146.178 44.8961C145.347 44.7558 144.565 44.3451 143.714 44.2148C143.533 44.1848 143.353 44.1647 143.173 44.2148C142.912 44.295 142.732 44.5154 142.602 44.7558C142.471 44.9963 142.371 45.2768 142.431 45.5573C142.481 45.7978 142.652 45.9881 142.812 46.1684C144.705 48.2122 147.15 49.755 149.454 51.2878C151.478 52.6203 153.532 53.8926 155.626 55.1149C159.613 57.4291 163.761 59.6933 168.139 61.166C168.73 61.3664 169.321 61.5467 169.922 61.687C178.608 63.7608 194.387 62.4584 194.387 62.4584C191.021 59.0521 187.334 55.9164 183.747 52.8207C183.697 52.7806 183.647 52.7305 183.597 52.6904L183.617 52.6804Z" fill="#DF1278"/>
<path d="M165.914 124.155C165.935 123.864 165.884 123.574 165.844 123.293C165.514 121.37 165.053 119.386 164.302 117.583C163.811 116.34 163.21 115.198 162.508 114.467C162.158 114.106 161.617 113.555 160.965 112.874C159.833 111.712 158.341 110.199 156.828 108.666C156.026 107.855 155.225 107.043 154.463 106.272C153.211 105.881 152.069 105.48 151.047 105.08C150.456 104.849 149.905 104.619 149.394 104.398L149.244 104.929C149.244 104.929 150.206 105.741 151.528 106.903C151.789 107.133 152.069 107.384 152.36 107.644C152.65 107.905 152.951 108.175 153.251 108.446C153.401 108.586 153.552 108.726 153.712 108.867C155.375 110.399 157.068 111.962 158.471 113.746C158.741 114.086 159.002 114.447 159.122 114.868C159.222 115.218 159.222 115.589 159.222 115.95C159.222 116.871 159.332 117.793 159.322 118.715C159.322 119.646 159.282 120.618 159.723 121.47C159.893 121.8 160.114 122.091 160.344 122.392C160.695 122.842 160.915 123.423 160.875 124.004C160.825 124.586 160.505 125.127 160.094 125.547C159.813 125.838 159.503 126.098 159.242 126.409C159.202 126.449 159.172 126.499 159.162 126.549C159.152 126.609 159.162 126.669 159.212 126.689C159.242 126.709 159.282 126.709 159.322 126.699C159.513 126.669 159.703 126.599 159.873 126.509C160.154 126.359 160.424 126.189 160.675 125.988C161.236 125.547 161.757 125.006 162.097 124.365C162.538 123.524 162.548 122.672 162.518 121.75C162.478 120.458 162.378 119.156 162.298 117.863C162.278 117.533 162.258 117.202 162.278 116.871C162.278 116.781 162.298 116.681 162.328 116.591C162.328 116.561 162.358 116.521 162.388 116.511C162.428 116.491 162.478 116.541 162.508 116.571C162.999 117.212 163.31 117.963 163.58 118.725C163.861 119.526 164.121 120.328 164.352 121.139C164.622 122.071 164.913 123.083 164.802 124.065C164.782 124.245 164.752 124.415 164.692 124.586C164.622 124.806 164.231 125.427 163.911 125.948C163.781 126.158 164.031 126.389 164.231 126.249C164.913 125.758 165.814 124.946 165.935 124.345C165.945 124.275 165.955 124.205 165.965 124.135L165.914 124.155Z" fill="#FFF8D6"/>
<path d="M181.593 118.882C181.523 118.251 181.403 117.63 181.223 117.039C181.002 116.308 180.672 115.596 180.181 114.995C179.63 114.334 178.928 113.933 178.177 113.542C177.726 113.262 177.175 112.931 176.554 112.561C174.701 111.449 172.256 109.986 169.992 108.633C169.161 108.613 168.349 108.583 167.558 108.543C166.285 108.473 165.073 108.363 163.921 108.223C164.602 108.553 167.187 109.806 169.782 111.208C172.136 112.48 174.49 113.883 175.462 114.835C175.532 114.905 175.592 114.975 175.652 115.045C176.544 115.997 177.346 117.139 177.867 118.371C177.927 118.502 177.977 118.632 178.017 118.772C178.017 118.782 178.027 118.802 178.027 118.812C178.418 119.944 178.558 121.136 178.277 122.319C178.227 122.519 178.177 122.709 178.107 122.9C177.987 123.25 177.826 123.621 177.576 123.901C177.496 124.002 177.596 124.132 177.706 124.092C178.478 123.801 179.109 123.26 179.349 122.459C179.5 121.968 179.51 121.447 179.48 120.936C179.419 120.004 179.209 119.083 178.999 118.181C178.969 118.051 178.558 116.348 178.538 116.358C178.768 116.308 179.79 118.862 179.96 119.503C180.501 121.567 180.972 124.673 179.159 126.286C179.109 126.326 178.908 126.416 178.888 126.476C178.838 126.626 178.928 126.566 179.079 126.546C180.652 126.286 181.223 123.922 181.463 122.649C181.684 121.447 181.734 120.135 181.583 118.872L181.593 118.882Z" fill="#FFF8D6"/>
<path d="M170.072 111.38C172.376 111.901 174.691 112.342 177.005 112.843C176.855 112.753 176.714 112.663 176.564 112.572C174.711 111.46 172.266 109.998 170.002 108.645C169.17 108.625 168.359 108.595 167.567 108.555C166.295 108.485 165.083 108.375 163.931 108.234C164.612 108.565 167.197 109.817 169.792 111.22C169.882 111.27 169.982 111.32 170.072 111.37V111.38Z" fill="#FFDF72"/>
<path d="M152.35 107.654C152.64 107.914 152.941 108.185 153.241 108.455C153.392 108.596 153.542 108.736 153.702 108.876C154.063 109.207 154.434 109.547 154.794 109.888C155.065 110.078 155.345 110.269 155.616 110.449C157.74 111.822 159.954 113.054 162.138 114.336C162.298 114.436 162.458 114.527 162.619 114.627C162.579 114.577 162.538 114.537 162.498 114.486C162.148 114.126 161.607 113.575 160.956 112.894C159.823 111.731 158.331 110.219 156.818 108.686C156.016 107.874 155.215 107.063 154.454 106.291C153.201 105.901 152.059 105.5 151.037 105.099C150.446 104.869 149.895 104.638 149.384 104.418L149.234 104.949C149.234 104.949 150.196 105.76 151.518 106.923C151.779 107.153 152.059 107.403 152.35 107.664V107.654Z" fill="#FFDF72"/>
<path d="M215.776 84.7511C215.776 84.5708 215.776 84.3804 215.776 84.1901C215.776 84.15 215.776 84.0999 215.776 84.0498C215.776 83.8094 215.756 83.5689 215.746 83.3185C215.426 77.3876 213.112 68.6014 204.546 65.125C201.681 63.9629 198.725 63.2015 195.71 62.5703C192.494 61.8891 189.057 62.8007 185.932 61.5885C184.96 61.2178 184.088 60.6468 183.197 60.1058C176.735 56.1786 169.742 53.6339 162.208 52.9126C156.898 52.4116 151.578 51.9708 146.259 51.5701C140.358 51.1193 134.457 50.8187 128.566 50.3178C125.4 50.0473 122.194 49.4462 119.449 47.8633C117.826 46.9215 116.414 45.6592 115.101 44.3268C113.789 42.9943 112.487 41.8823 111.134 40.66C108.75 38.5261 106.365 36.3922 103.971 34.2683C101.426 32.0041 98.8815 29.75 96.3168 27.5058C94.9943 26.3437 93.6619 25.2116 92.3495 24.0395C91.0371 22.8773 89.7447 21.7953 88.302 20.8636C88.1317 20.7534 87.9514 20.6432 87.7811 20.543C87.3303 20.2725 86.8694 20.0221 86.4286 19.7416C85.9878 19.461 85.6271 19.0803 85.1763 18.8599C85.1062 18.8299 85.0461 18.8099 84.996 18.7998H84.9859C84.8557 18.7798 84.7655 18.8599 84.7655 19.0904C84.7655 19.2406 84.8256 19.4811 84.9358 19.7816C85.4969 21.3645 86.3084 22.8272 87.0898 24.2999C87.3202 24.7408 87.9013 25.8027 88.292 26.504C88.3922 26.6843 88.1818 26.8747 88.0215 26.7645C86.9496 26.0732 84.9358 24.851 84.6253 25.2517C84.5451 25.3519 84.5852 25.5522 84.7655 25.9029C85.2865 26.8647 86.0479 28.0569 86.7291 29.0988C86.7692 29.1589 87.0497 29.5797 87.3703 30.0505C87.6308 30.4412 87.2 30.9121 86.7893 30.6917C84.0943 29.2591 78.9248 26.524 79.1552 27.5058C79.3756 28.4275 86.4286 36.863 95.4652 45.4488C95.6856 45.6592 95.906 45.8696 96.1264 46.08C96.1465 46.1 96.1665 46.1201 96.1865 46.1401C96.4069 46.3405 96.6173 46.5408 96.8377 46.7512C96.8578 46.7713 96.8778 46.7913 96.8978 46.8113C97.1183 47.0217 97.3387 47.2221 97.5691 47.4325C97.5691 47.4325 97.5891 47.4525 97.5991 47.4625C98.7713 48.5445 99.9735 49.6165 101.196 50.6684C101.216 50.6784 101.226 50.6985 101.246 50.7085C101.456 50.8888 101.667 51.0692 101.877 51.2495C101.927 51.2896 101.977 51.3397 102.027 51.3797C102.228 51.55 102.428 51.7204 102.628 51.8807C102.688 51.9307 102.749 51.9808 102.809 52.0309C103.009 52.1912 103.199 52.3615 103.4 52.5218C103.46 52.5719 103.53 52.632 103.6 52.6821C103.801 52.8424 103.991 53.0027 104.191 53.163C104.251 53.2131 104.311 53.2632 104.372 53.3033C104.582 53.4736 104.782 53.6339 104.983 53.7942C105.023 53.8242 105.053 53.8443 105.083 53.8743C106.015 54.6157 106.956 55.347 107.888 56.0483C107.948 56.0884 108.008 56.1385 108.058 56.1786C108.249 56.3188 108.439 56.4591 108.619 56.5893C108.7 56.6394 108.77 56.6995 108.85 56.7596C109.03 56.8899 109.21 57.0201 109.391 57.1503C109.481 57.2105 109.561 57.2706 109.651 57.3307C109.832 57.4609 110.002 57.5811 110.182 57.7014C110.272 57.7615 110.353 57.8216 110.443 57.8817C110.623 58.0019 110.793 58.1221 110.974 58.2424C111.054 58.2924 111.134 58.3526 111.214 58.4027C111.395 58.5229 111.585 58.6431 111.765 58.7733C111.825 58.8134 111.895 58.8535 111.956 58.8936C112.657 59.3544 113.348 59.7852 114.039 60.1959C114.23 60.3062 114.41 60.4164 114.6 60.5266C114.671 60.5666 114.751 60.6167 114.821 60.6568C114.991 60.757 115.161 60.8471 115.332 60.9473C115.422 60.9974 115.502 61.0475 115.592 61.0976C115.753 61.1878 115.923 61.2779 116.083 61.3681C116.173 61.4182 116.263 61.4683 116.364 61.5184C116.524 61.5985 116.684 61.6887 116.845 61.7688C116.935 61.8189 117.025 61.859 117.125 61.9091C117.285 61.9892 117.446 62.0694 117.596 62.1395C117.686 62.1796 117.776 62.2197 117.856 62.2698C117.866 62.2698 117.886 62.2798 117.896 62.2898C117.896 62.2898 117.916 62.2898 117.927 62.2998C118.067 62.3699 118.207 62.4301 118.347 62.5002C118.427 62.5403 118.498 62.5703 118.578 62.6004C118.628 62.6204 118.678 62.6404 118.728 62.6705C118.798 62.7006 118.868 62.7306 118.938 62.7607C118.988 62.7807 119.039 62.8007 119.089 62.8308H119.099C119.329 62.931 119.55 63.0312 119.78 63.1213C119.78 63.1213 120.08 70.0541 124.599 73.0696C124.919 73.29 125.21 73.4804 125.47 73.6707C126.232 74.2217 127.083 74.8128 127.574 75.6243C127.634 75.7345 127.694 75.8447 127.715 75.9649C127.735 76.0852 127.694 76.2254 127.594 76.2956C127.454 76.4058 127.244 76.3456 127.073 76.2755C126.502 76.0551 125.921 75.8247 125.37 75.5442C125.1 75.4039 124.829 75.2436 124.579 75.0733C124.489 75.0132 124.058 74.5824 123.938 74.6726C123.918 74.6926 123.897 74.7227 123.897 74.7728C123.897 74.7928 123.897 74.8228 123.897 74.8529C123.897 74.9431 123.928 75.0633 123.958 75.2136C123.968 75.2637 123.988 75.3137 123.998 75.3638C124.228 76.1252 124.609 76.9067 125.03 77.5679C125.34 78.0488 125.721 78.4896 126.192 78.8202C126.532 79.0506 127.324 79.3111 127.164 79.8721C127.164 79.8922 127.143 79.9122 127.133 79.9322C127.113 79.9723 127.083 80.0224 127.043 80.0625C127.003 80.1026 126.963 80.1326 126.913 80.1627C126.873 80.1927 126.823 80.2128 126.773 80.2428C126.713 80.2729 126.643 80.2929 126.572 80.3129C126.572 80.3129 126.572 80.3129 126.562 80.3129C126.492 80.333 126.422 80.343 126.342 80.353C126.332 80.353 126.322 80.353 126.302 80.353C126.232 80.353 126.152 80.3731 126.071 80.3731C126.051 80.3731 126.031 80.3731 126.011 80.3731C125.691 80.3731 125.27 80.2929 125.17 80.7137C125.11 80.9441 125.21 81.1946 125.3 81.415C126.172 83.2984 127.895 84.7611 129.899 85.3121C130.099 85.3622 130.359 85.5225 130.269 85.7029C130.229 85.783 130.139 85.8231 130.059 85.8531C129.287 86.1437 128.466 86.334 127.654 86.4442C127.244 86.5043 126.703 86.4442 126.292 86.4642C126.071 86.4642 125.42 86.5544 125.961 86.9251C127.404 87.8869 128.907 88.7585 130.46 89.5499C131.802 90.2312 133.114 90.9826 134.597 91.3332C134.858 91.3933 135.128 91.4534 135.379 91.5436C135.439 91.5736 135.509 91.6037 135.529 91.6638C135.569 91.784 135.419 91.8742 135.308 91.9043C134.547 92.1347 133.756 92.2349 132.964 92.2048C132.684 92.1948 132.032 92.0245 131.932 92.4052C131.902 92.4953 131.912 92.6156 131.952 92.7558C131.982 92.876 132.042 93.0163 132.113 93.1566C133.044 94.9799 135.148 96.2823 137.102 96.683C137.653 96.7932 138.214 96.8433 138.755 97.0036C139.115 97.1138 139.516 97.3643 139.486 97.735C139.466 97.8953 139.376 98.0255 139.276 98.1457C139.065 98.4062 138.384 98.6066 137.803 98.7268C137.442 98.8069 137.332 99.2678 137.623 99.4982C137.753 99.5984 137.853 99.6886 137.903 99.7286C138.905 100.6 140.057 101.332 141.279 101.863C142.402 102.353 143.624 102.514 144.776 102.945C146.399 103.556 147.932 104.387 149.515 105.109C151.098 105.83 152.791 106.441 154.484 106.952C154.724 107.022 154.965 107.102 155.215 107.172C156.668 107.593 158.281 107.984 160.054 108.314C160.104 108.314 160.154 108.334 160.204 108.344C161.056 108.505 161.947 108.645 162.879 108.775C163.07 108.805 163.23 108.835 163.42 108.865C163.59 108.885 163.791 108.895 163.961 108.916C165.123 109.046 166.326 109.156 167.598 109.236C168.379 109.276 169.201 109.306 170.032 109.326C170.333 109.326 170.633 109.346 170.934 109.346C172.126 109.356 173.358 109.346 174.641 109.296C175.052 109.276 175.452 109.256 175.843 109.236C175.943 109.236 176.043 109.226 176.144 109.216C176.484 109.196 176.815 109.176 177.145 109.146C177.196 109.146 177.246 109.146 177.296 109.136C177.676 109.106 178.047 109.066 178.398 109.026C178.458 109.026 178.518 109.016 178.578 109.006C178.899 108.966 179.219 108.926 179.53 108.885C179.57 108.885 179.61 108.885 179.65 108.865C180.361 108.765 181.043 108.655 181.674 108.525C181.694 108.525 181.714 108.525 181.734 108.525C182.385 108.395 182.996 108.254 183.577 108.094C183.577 108.074 183.577 108.064 183.587 108.044C183.587 108.064 183.587 108.074 183.587 108.084C186.483 107.303 188.476 106.231 189.869 105.058C190.991 104.107 191.933 102.884 192.554 101.542C193.175 100.2 193.165 98.5264 194.087 97.3042C194.467 96.7932 194.988 96.4025 195.519 96.0419C198.505 93.958 203.133 90.702 207 91.3733C207.291 91.4234 207.571 91.4634 207.862 91.5035C207.882 91.5035 207.902 91.5035 207.912 91.5035C208.493 91.5736 209.084 91.6237 209.665 91.6237H209.906C209.906 91.6237 214.674 91.4634 214.664 91.213C215.125 90.7622 215.286 88.6282 215.366 88.4579C215.366 88.4279 215.386 88.4078 215.396 88.3778C215.396 88.3677 215.396 88.3477 215.406 88.3377C215.406 88.3377 215.406 88.3177 215.406 88.3076C215.436 88.2375 215.456 88.1574 215.476 88.0772C215.486 88.0371 215.506 87.987 215.516 87.947C215.526 87.9069 215.536 87.8568 215.556 87.8167C215.566 87.7767 215.576 87.7266 215.586 87.6865C215.606 87.6164 215.616 87.5563 215.636 87.4761C215.636 87.426 215.656 87.3659 215.666 87.3158C215.666 87.2757 215.666 87.2457 215.686 87.2056C215.686 87.1655 215.696 87.1355 215.706 87.0954C215.706 87.0453 215.726 86.9952 215.726 86.9451C215.726 86.895 215.746 86.8349 215.746 86.7848C215.766 86.6045 215.786 86.4242 215.796 86.2238C215.796 86.0335 215.817 85.8331 215.827 85.6227C215.827 85.5726 215.827 85.5125 215.827 85.4624C215.827 85.3021 215.827 85.1318 215.827 84.9615V84.7912L215.776 84.7511Z" fill="#FFB2D2"/>
<path d="M158.731 56.691C160.234 57.6828 161.827 58.5244 163.53 59.1055C165.333 59.7166 167.217 59.947 169.12 60.0171C171.054 60.0873 172.998 60.0171 174.931 60.1273C176.744 60.2275 178.528 60.488 180.301 60.8887C183.557 61.6301 186.763 62.7722 190.109 63.0928C191.732 63.2431 193.375 63.1829 194.968 62.7622C195.208 62.7021 195.439 62.6319 195.669 62.5518C192.463 61.8906 189.047 62.7822 185.941 61.58C184.97 61.2093 184.098 60.6383 183.206 60.0973C176.744 56.1701 169.752 53.6254 162.218 52.904C159.002 52.6035 155.786 52.323 152.57 52.0625C154.654 53.5753 156.607 55.2584 158.741 56.691H158.731Z" fill="#9B015D"/>
<path d="M175.172 90.3303C179.049 89.4487 182.325 87.4249 182.816 82.7764C182.826 82.6862 182.826 82.6161 182.826 82.586C182.585 79.3401 175.322 70.9146 172.356 67.9391C172.216 68.0092 172.066 68.0794 171.926 68.1495C171.134 68.5102 170.353 68.9009 169.431 68.8408C168.439 68.7706 167.467 68.4 166.526 68.1695C163.72 67.4783 160.875 66.9072 158.02 66.3762C152.299 65.3043 146.539 64.3826 140.929 62.8998C138.594 62.2787 136.48 61.357 134.326 60.3852C133.295 59.9144 132.253 59.4435 131.171 59.0628C130.7 58.8925 130.209 58.7422 129.718 58.632C129.277 58.5318 128.616 58.5418 128.265 58.2813C127.724 57.8706 127.283 57.3096 126.662 57.0391C126.382 57.56 126.692 58.2613 126.863 58.8524C129.968 69.3617 138.284 78.3482 146.839 84.9804C149.635 87.1444 152.72 89.0078 156.086 90.1299C159.543 91.282 162.819 91.0215 166.375 91.0215C169.05 91.0215 172.286 90.9915 175.182 90.3303H175.172Z" fill="#9B015D"/>
<path d="M189.008 94.7996C190.18 93.938 191.202 92.8861 192.184 91.8241C193.166 90.7521 194.188 89.6902 195.39 88.8687C195.991 88.4679 196.632 88.1273 197.323 87.8869C197.975 87.6665 198.646 87.5663 199.327 87.5062C201.601 87.3058 203.976 87.3358 206.17 88.0472C206.6 88.1874 207.021 88.3577 207.422 88.5581L207.192 87.9069C206.781 86.7548 206.15 85.6928 205.328 84.7812C202.603 81.7556 196.312 74.7627 195.811 74.1616C195.5 73.7909 193.937 72.3082 192.905 71.647C192.875 71.8273 195.059 75.3037 195.811 76.6562C196.452 77.8083 197.053 79.1107 196.742 80.4532C196.572 81.1946 196.141 81.8458 195.63 82.3968C194.949 83.1281 194.127 83.7693 193.266 84.2903C191.513 85.3622 189.519 86.0535 187.966 87.4461C187.175 88.1574 186.473 88.9789 185.822 89.8204C185.321 90.4716 184.85 91.1429 184.289 91.744C183.678 92.3851 182.967 92.9061 182.186 93.3068C181.965 93.427 181.725 93.5072 181.484 93.5673C180.112 93.9079 178.709 94.1183 177.317 94.3988C176.054 94.6493 174.782 94.9298 173.58 95.4007C172.808 95.7113 171.706 96.2022 171.536 97.1239C171.446 97.5947 171.656 98.1257 171.987 98.4563C172.548 99.0173 173.399 99.1576 174.161 99.2177C175.914 99.3479 177.527 99.0975 179.21 99.7988C180.052 100.149 180.833 100.63 181.594 101.141C181.875 101.332 183.588 102.704 183.798 102.584C181.635 103.806 178.138 104.337 175.674 104.748C171.897 105.379 164.894 105.289 161.107 104.808C157.33 104.327 147.612 100.28 144.817 98.2459C143.615 97.3743 142.382 96.3725 141.471 95.1903C140.729 94.2486 140.299 93.1165 139.898 91.9944C139.237 90.121 138.726 88.2275 136.582 87.5663C136.371 87.5062 136.141 87.4461 136.001 87.2757C135.78 87.0253 135.86 86.6346 135.981 86.324C136.111 86.0134 136.271 85.6828 136.191 85.3622C136.061 84.8012 135.369 84.6509 134.828 84.4706C133.536 84.0498 132.634 83.0079 132.344 81.6855C132.103 80.5634 132.304 79.3812 132.705 78.3093C132.735 78.2491 132.755 78.179 132.785 78.1089C133.516 76.3857 132.965 74.382 131.402 73.3401C130.38 72.6589 129.449 72.0277 129.288 71.9175C127.615 70.6752 126.062 69.1825 125.211 67.2389C124.65 65.9766 124.429 64.574 124.54 63.1915C124.69 61.3681 125.141 61.2779 123.387 60.3663C114.762 55.898 106.927 50.1575 98.9825 44.6073C95.1154 41.9023 91.0579 39.0871 88.8138 34.9295C87.9723 33.3766 93.5626 37.2237 96.1072 38.466C96.3276 38.5762 96.528 38.2857 96.3477 38.1153C94.0134 35.9514 88.2929 30.5214 88.4231 28.8183C88.4431 28.5478 88.6034 28.2572 88.894 28.1971C89.4149 28.0969 90.6873 28.8082 91.639 29.229C91.9095 29.3492 92.15 29.0186 91.9696 28.7982C90.7774 27.3255 88.8238 25.1315 88.0324 23.9393C87.0806 22.5066 86.3192 20.9638 85.8684 19.3208C85.648 19.1505 85.4276 18.9802 85.1872 18.8599C85.117 18.8299 85.0569 18.8099 85.0068 18.7998H84.9968C84.8666 18.7798 84.7764 18.8599 84.7764 19.0904C84.7764 19.2406 84.8365 19.4811 84.9467 19.7816C85.5077 21.3645 86.3192 22.8272 87.1007 24.2999C87.3311 24.7408 87.9122 25.8027 88.3029 26.514C88.4031 26.6943 88.2027 26.8747 88.0324 26.7745C86.9704 26.0832 84.9367 24.851 84.6361 25.2517C84.556 25.3519 84.5961 25.5522 84.7764 25.9029C85.2974 26.8647 86.0588 28.0569 86.74 29.0988C86.7801 29.1589 87.0606 29.5797 87.3812 30.0505C87.6417 30.4412 87.2109 30.9121 86.8001 30.7017C84.1052 29.2691 78.9357 26.5441 79.1661 27.5159C79.3865 28.4376 86.4395 36.8731 95.4761 45.4589C95.6965 45.6692 95.9169 45.8796 96.1373 46.09C96.1573 46.11 96.1774 46.1301 96.1974 46.1501C96.4178 46.3505 96.6282 46.5509 96.8486 46.7612C96.8686 46.7813 96.8887 46.8013 96.9087 46.8214C97.1291 47.0317 97.3495 47.2321 97.5799 47.4425C97.5799 47.4425 97.6 47.4625 97.61 47.4726C98.7822 48.5545 99.9844 49.6265 101.207 50.6784C101.227 50.6885 101.237 50.7085 101.257 50.7185C101.467 50.8989 101.677 51.0792 101.888 51.2595C101.938 51.2996 101.988 51.3497 102.038 51.3898C102.239 51.5601 102.439 51.7304 102.639 51.8907C102.699 51.9408 102.759 51.9909 102.82 52.041C103.02 52.2013 103.21 52.3716 103.411 52.5319C103.471 52.5819 103.541 52.6421 103.611 52.6922C103.811 52.8524 104.002 53.0127 104.202 53.173C104.262 53.2231 104.322 53.2732 104.382 53.3133C104.593 53.4836 104.793 53.6439 104.994 53.8042C105.034 53.8343 105.064 53.8543 105.094 53.8843C106.025 54.6257 106.967 55.3571 107.899 56.0583C107.959 56.0984 108.019 56.1485 108.069 56.1886C108.26 56.3288 108.45 56.4691 108.63 56.5993C108.71 56.6494 108.781 56.7095 108.861 56.7696C109.041 56.8999 109.221 57.0301 109.402 57.1604C109.492 57.2205 109.572 57.2806 109.662 57.3407C109.842 57.4709 110.013 57.5912 110.193 57.7114C110.283 57.7715 110.363 57.8316 110.454 57.8917C110.634 58.0119 110.804 58.1322 110.985 58.2524C111.065 58.3025 111.145 58.3626 111.225 58.4127C111.405 58.5329 111.596 58.6531 111.776 58.7834C111.836 58.8234 111.906 58.8635 111.966 58.9036C112.668 59.3644 113.359 59.7952 114.05 60.206C114.241 60.3162 114.421 60.4264 114.611 60.5366C114.681 60.5766 114.762 60.6267 114.832 60.6668C115.002 60.767 115.172 60.8572 115.343 60.9573C115.433 61.0074 115.513 61.0575 115.603 61.1076C115.763 61.1978 115.934 61.288 116.094 61.3781C116.184 61.4282 116.274 61.4783 116.375 61.5284C116.535 61.6085 116.695 61.6987 116.855 61.7789C116.946 61.8289 117.036 61.869 117.136 61.9191C117.296 61.9993 117.456 62.0794 117.607 62.1495C117.697 62.1896 117.787 62.2297 117.867 62.2798C117.877 62.2798 117.897 62.2898 117.907 62.2998C117.907 62.2998 117.927 62.2998 117.937 62.3098C118.078 62.38 118.218 62.4401 118.358 62.5102C118.438 62.5503 118.508 62.5803 118.589 62.6104C118.639 62.6304 118.689 62.6505 118.739 62.6805C118.809 62.7106 118.879 62.7406 118.949 62.7707C118.999 62.7907 119.049 62.8108 119.1 62.8408H119.11C119.34 62.941 119.56 63.0412 119.791 63.1313C119.791 63.1313 120.091 70.0641 124.61 73.0796C124.93 73.3 125.221 73.4904 125.481 73.6807C126.243 74.2318 127.094 74.8228 127.585 75.6343C127.645 75.7445 127.705 75.8547 127.725 75.975C127.745 76.0952 127.705 76.2354 127.605 76.3056C127.465 76.4158 127.255 76.3557 127.084 76.2855C126.513 76.0651 125.932 75.8347 125.381 75.5542C125.111 75.4139 124.84 75.2536 124.59 75.0833C124.499 75.0232 124.069 74.5924 123.948 74.6826C123.928 74.7026 123.908 74.7327 123.908 74.7828C123.908 74.8028 123.908 74.8329 123.908 74.8629C123.908 74.9531 123.938 75.0733 123.968 75.2236C123.978 75.2737 123.999 75.3238 124.009 75.3739C124.239 76.1353 124.62 76.9167 125.04 77.5779C125.351 78.0588 125.732 78.4996 126.203 78.8302C126.543 79.0606 127.335 79.3211 127.174 79.8821C127.174 79.9022 127.154 79.9222 127.144 79.9423C127.124 79.9823 127.094 80.0324 127.054 80.0725C127.014 80.1126 126.974 80.1426 126.924 80.1727C126.884 80.2027 126.834 80.2228 126.784 80.2528C126.724 80.2829 126.653 80.3029 126.583 80.323C126.583 80.323 126.583 80.323 126.573 80.323C126.503 80.343 126.433 80.353 126.353 80.363C126.343 80.363 126.333 80.363 126.313 80.363C126.243 80.363 126.163 80.3831 126.082 80.3831C126.062 80.3831 126.042 80.3831 126.022 80.3831C125.702 80.3831 125.281 80.3029 125.181 80.7237C125.121 80.9541 125.221 81.2046 125.311 81.425C126.183 83.3084 127.906 84.7711 129.909 85.3222C130.11 85.3722 130.37 85.5325 130.28 85.7129C130.24 85.793 130.15 85.8331 130.07 85.8632C129.298 86.1537 128.477 86.344 127.665 86.4542C127.255 86.5143 126.714 86.4542 126.303 86.4743C126.082 86.4743 125.431 86.5644 125.972 86.9351C127.415 87.8969 128.918 88.7685 130.47 89.5599C131.813 90.2412 133.125 90.9926 134.608 91.3432C134.869 91.4033 135.139 91.4634 135.389 91.5536C135.45 91.5837 135.52 91.6137 135.54 91.6738C135.58 91.7941 135.43 91.8842 135.319 91.9143C134.558 92.1447 133.766 92.2449 132.975 92.2148C132.695 92.2048 132.043 92.0345 131.943 92.4152C131.913 92.5054 131.923 92.6256 131.963 92.7658C131.993 92.8861 132.053 93.0263 132.123 93.1666C133.055 94.9899 135.159 96.2923 137.113 96.6931C137.664 96.8033 138.225 96.8534 138.766 97.0136C139.126 97.1238 139.527 97.3743 139.497 97.745C139.477 97.9053 139.387 98.0355 139.287 98.1557C139.076 98.4162 138.395 98.6166 137.814 98.7368C137.453 98.817 137.343 99.2778 137.634 99.5082C137.764 99.6084 137.864 99.6986 137.914 99.7387C138.916 100.61 140.068 101.342 141.29 101.873C142.412 102.363 143.635 102.524 144.787 102.955C146.41 103.566 147.943 104.397 149.525 105.119C151.128 105.85 152.801 106.451 154.495 106.962C154.735 107.032 154.975 107.112 155.226 107.182C156.679 107.603 158.292 107.994 160.065 108.324C160.115 108.324 160.165 108.344 160.215 108.354C161.067 108.515 161.958 108.655 162.89 108.785C163.08 108.815 163.271 108.825 163.461 108.855C163.631 108.875 163.792 108.895 163.962 108.916C165.124 109.046 166.326 109.156 167.599 109.236C168.38 109.276 169.202 109.306 170.033 109.326C170.334 109.326 170.634 109.346 170.935 109.346C172.127 109.356 173.359 109.346 174.642 109.296C175.052 109.276 175.453 109.256 175.844 109.236C175.944 109.236 176.044 109.226 176.144 109.216C176.485 109.196 176.816 109.166 177.146 109.146C177.196 109.146 177.246 109.146 177.297 109.136C177.677 109.106 178.038 109.066 178.399 109.026C178.459 109.026 178.519 109.016 178.579 109.006C178.899 108.966 179.22 108.926 179.531 108.885C179.571 108.885 179.611 108.885 179.651 108.865C180.362 108.765 181.043 108.655 181.675 108.525C181.695 108.525 181.715 108.525 181.735 108.525C182.386 108.395 182.997 108.254 183.578 108.094C183.578 108.074 183.578 108.064 183.588 108.044C183.588 108.064 183.588 108.074 183.578 108.084C186.473 107.303 188.467 106.231 189.86 105.058C190.982 104.107 191.923 102.884 192.545 101.542C193.166 100.179 193.076 98.5465 194.057 97.3743C194.448 96.9135 195.009 96.4526 195.53 96.0819C198.205 94.2185 202.292 91.0627 206.52 91.3132C204.787 90.682 202.132 90.4917 200.299 90.8623C197.303 91.4835 194.909 93.2968 192.745 95.3706C191.152 96.8934 186.984 99.9791 186.954 99.9691C186.934 99.9691 186.934 99.7487 186.944 99.4682C186.964 98.5966 187.756 95.7213 189.008 94.7996Z" fill="#DF1278"/>
<path d="M160.995 101.752C162.688 100.61 170.042 98.3756 169.241 96.7226C163.58 98.7863 151.949 96.953 145.998 95.5304C144.575 95.1897 143.734 93.9975 144.836 92.9957C145.457 92.4347 146.509 92.1642 147.791 92.0339C149.073 91.9037 149.164 89.9601 147.831 89.7497C133.775 87.4956 140.608 83.0274 136.22 81.8953C134.867 81.5446 133.525 81.174 132.182 80.7933C132.162 79.9417 132.343 79.0901 132.643 78.2887C132.663 78.2285 132.693 78.1684 132.713 78.0983C133.445 76.3551 132.884 74.3414 131.311 73.2995C130.299 72.6282 129.377 72.0071 129.217 71.8869C127.544 70.6446 125.991 69.1519 125.139 67.2083C124.578 65.946 124.358 64.5434 124.468 63.1608C124.618 61.3375 125.069 61.2473 123.316 60.3356C118.658 57.9212 109.34 51.7098 104.151 48.1933C102.548 47.1113 100.354 48.6942 101.055 50.4976C101.075 50.5376 101.085 50.5677 101.105 50.5877C101.135 50.5877 101.165 50.6278 101.195 50.6478C101.406 50.8282 101.616 51.0085 101.827 51.1888C101.877 51.2289 101.927 51.279 101.977 51.3191C102.177 51.4894 102.378 51.6597 102.578 51.82C102.638 51.8701 102.698 51.9202 102.758 51.9703C102.959 52.1306 103.149 52.3009 103.349 52.4612C103.409 52.5113 103.48 52.5714 103.55 52.6215C103.75 52.7818 103.94 52.942 104.141 53.1023C104.201 53.1524 104.261 53.2025 104.321 53.2426C104.532 53.4129 104.732 53.5732 104.932 53.7335C104.972 53.7636 105.002 53.7836 105.032 53.8136C105.964 54.555 106.906 55.2864 107.838 55.9876C107.898 56.0277 107.958 56.0778 108.008 56.1179C108.198 56.2581 108.389 56.3984 108.569 56.5286C108.649 56.5787 108.719 56.6388 108.799 56.699C108.98 56.8292 109.16 56.9594 109.34 57.0897C109.431 57.1498 109.511 57.2099 109.601 57.27C109.781 57.4002 109.952 57.5205 110.132 57.6407C110.222 57.7008 110.302 57.7609 110.392 57.821C110.573 57.9412 110.743 58.0615 110.923 58.1817C111.003 58.2318 111.084 58.2919 111.164 58.342C111.344 58.4622 111.534 58.5824 111.715 58.7127C111.775 58.7527 111.845 58.7928 111.905 58.8329C112.606 59.2937 113.298 59.7245 113.989 60.1353C114.179 60.2455 114.36 60.3557 114.55 60.4659C114.62 60.506 114.7 60.556 114.77 60.5961C114.941 60.6963 115.111 60.7865 115.281 60.8867C115.371 60.9367 115.452 60.9868 115.542 61.0369C115.702 61.1271 115.872 61.2173 116.033 61.3074C116.123 61.3575 116.213 61.4076 116.313 61.4577C116.474 61.5379 116.634 61.628 116.794 61.7082C116.884 61.7583 116.974 61.7983 117.075 61.8484C117.235 61.9286 117.395 62.0087 117.556 62.0788C117.646 62.1189 117.736 62.159 117.816 62.2091C117.826 62.2091 117.846 62.2191 117.856 62.2291C117.856 62.2291 117.876 62.2291 117.886 62.2391C118.026 62.3093 118.167 62.3694 118.307 62.4395C118.387 62.4796 118.457 62.5096 118.537 62.5397C118.587 62.5597 118.637 62.5798 118.688 62.6098C118.758 62.6399 118.828 62.6699 118.898 62.7C118.948 62.72 118.998 62.7401 119.048 62.7701H119.058C119.289 62.8703 119.509 62.9705 119.74 63.0607C119.74 63.0607 120.04 69.9934 124.558 73.0089C124.879 73.2294 125.17 73.4197 125.43 73.6101C126.191 74.1611 127.043 74.7522 127.534 75.5636C127.594 75.6738 127.654 75.784 127.674 75.9043C127.694 76.0245 127.654 76.1648 127.554 76.2349C127.414 76.3451 127.203 76.285 127.033 76.2148C126.462 75.9944 125.881 75.764 125.33 75.4835C125.059 75.3432 124.789 75.1829 124.538 75.0126C124.448 74.9525 124.017 74.5217 123.897 74.6119C123.877 74.6319 123.857 74.662 123.857 74.7121C123.857 74.7321 123.857 74.7622 123.857 74.7922C123.857 74.8824 123.887 75.0026 123.917 75.1529C123.927 75.203 123.947 75.2531 123.957 75.3032C124.188 76.0646 124.568 76.846 124.989 77.5072C125.3 77.9881 125.68 78.4289 126.151 78.7595C126.352 78.8998 126.692 79.04 126.923 79.2504C126.943 79.2705 126.963 79.2805 126.983 79.3005C127.023 79.3406 127.053 79.3807 127.073 79.4308C127.073 79.4308 127.083 79.4408 127.083 79.4508C127.143 79.561 127.153 79.6812 127.113 79.8215C127.113 79.8415 127.093 79.8615 127.083 79.8816C127.063 79.9217 127.033 79.9717 126.993 80.0118C126.953 80.0519 126.913 80.082 126.873 80.112C126.833 80.1421 126.782 80.1621 126.732 80.1922C126.672 80.2222 126.602 80.2422 126.532 80.2623C126.532 80.2623 126.532 80.2623 126.522 80.2623C126.452 80.2823 126.382 80.2923 126.302 80.3124C126.292 80.3124 126.282 80.3124 126.262 80.3124C126.191 80.3124 126.111 80.3324 126.031 80.3324C126.011 80.3324 125.991 80.3324 125.971 80.3324C125.891 80.3324 125.801 80.3324 125.721 80.3324C125.46 80.3324 125.21 80.3625 125.129 80.673C125.069 80.9035 125.17 81.1539 125.26 81.3743C126.131 83.2578 127.854 84.7205 129.858 85.2715C130.058 85.3216 130.319 85.4819 130.229 85.6622C130.189 85.7424 130.099 85.7824 130.018 85.8125C129.247 86.103 128.425 86.2934 127.614 86.4036C127.414 86.4336 127.173 86.4336 126.933 86.4336C126.692 86.4336 126.462 86.4236 126.251 86.4336C126.031 86.4336 125.38 86.5238 125.921 86.8945C127.364 87.8563 128.866 88.7278 130.419 89.5193C131.762 90.2106 133.074 90.962 134.557 91.3026C134.817 91.3627 135.088 91.4228 135.338 91.513C135.398 91.533 135.458 91.5731 135.478 91.6332C135.519 91.7534 135.368 91.8436 135.258 91.8736C134.497 92.1041 133.705 92.2042 132.914 92.1742C132.633 92.1642 131.982 91.9939 131.882 92.3746C131.852 92.4647 131.862 92.5849 131.902 92.7252C131.932 92.8454 131.992 92.9857 132.062 93.1259C132.994 94.9493 135.098 96.2517 137.051 96.6524C137.602 96.7626 138.163 96.8127 138.704 96.973C138.975 97.0532 139.265 97.2135 139.376 97.4439C139.416 97.524 139.436 97.6042 139.426 97.6943C139.406 97.8546 139.316 97.9849 139.215 98.1051C139.005 98.3656 138.324 98.5659 137.743 98.6862C137.472 98.7463 137.342 99.0268 137.422 99.2572C137.442 99.3374 137.492 99.4075 137.562 99.4676C137.693 99.5678 137.793 99.658 137.843 99.698C138.845 100.57 139.997 101.301 141.219 101.832C142.341 102.323 143.563 102.483 144.715 102.914C146.338 103.525 147.871 104.357 149.454 105.078C151.057 105.809 152.73 106.41 154.423 106.921C154.664 106.991 154.904 107.072 155.155 107.142C156.607 107.562 158.22 107.953 159.994 108.284C160.044 108.284 160.094 108.304 160.144 108.314C160.995 108.474 161.867 108.624 162.799 108.755C162.989 108.785 163.189 108.805 163.38 108.825C163.55 108.845 163.971 108.915 164.141 108.925C165.303 109.055 166.265 109.115 167.537 109.185C167.798 109.206 168.068 109.216 168.339 109.226C168.349 109.226 168.369 109.226 168.379 109.216C168.91 109.236 169.421 109.266 169.972 109.276C170.272 109.276 170.573 109.296 170.874 109.296C172.066 109.306 173.298 109.296 174.58 109.246C174.991 109.226 175.392 109.206 175.783 109.185C175.883 109.185 175.983 109.175 176.083 109.165C176.424 109.145 176.754 109.125 177.075 109.095C177.125 109.095 177.175 109.095 177.225 109.085C177.606 109.055 177.967 109.015 178.327 108.975C178.387 108.975 178.447 108.965 178.508 108.955C178.828 108.915 179.149 108.875 179.459 108.835C179.499 108.835 179.539 108.835 179.58 108.815C179.67 108.805 179.78 108.705 179.91 108.554C181.413 106.771 186.582 103.515 179.57 104.407C163.54 106.45 157.539 104.056 160.955 101.752H160.995Z" fill="#9B015D"/>
<path d="M205.297 84.7415C205.297 84.7415 205.267 84.7014 205.247 84.6914C204.255 85.5931 203.263 86.4947 202.251 87.3864C203.574 87.4264 204.876 87.6068 206.128 88.0175C206.559 88.1578 206.98 88.3281 207.381 88.5285L207.15 87.8773C206.739 86.7251 206.108 85.6632 205.287 84.7515L205.297 84.7415Z" fill="#9B015D"/>
<path d="M213.612 87.8882C211.689 88.3691 209.695 88.329 207.751 87.9684C207.551 87.9283 207.351 87.8882 207.15 87.8381C206.74 86.696 206.108 85.6441 205.297 84.7424C204.045 83.3599 202.051 81.1358 200.198 79.082C199.787 79.8835 199.356 80.675 198.925 81.4564C198.925 81.4764 198.905 81.4865 198.895 81.5065C197.162 84.6623 194.708 87.3572 191.752 89.421C191.622 89.5112 190.37 90.3528 188.777 91.4347C184.769 94.1397 184.709 100.061 188.696 102.786C188.747 102.816 188.787 102.846 188.827 102.876C189.458 103.287 190.119 103.707 190.8 104.068C191.482 103.307 192.063 102.445 192.483 101.523C193.105 100.161 193.095 98.5077 194.016 97.2855C194.397 96.7746 194.918 96.3838 195.449 96.0232C198.434 93.9393 203.063 90.6834 206.93 91.3546C207.221 91.4047 207.501 91.4448 207.792 91.4848C207.812 91.4848 207.832 91.4848 207.842 91.4848C208.423 91.555 209.014 91.6051 209.595 91.6051H209.835C209.835 91.6051 214.604 91.4448 214.594 91.1943C215.055 90.7435 215.215 88.6095 215.295 88.4392C215.295 88.4092 215.315 88.3891 215.325 88.3591C215.325 88.3491 215.325 88.329 215.335 88.319C215.335 88.319 215.335 88.299 215.335 88.289C215.365 88.2188 215.386 88.1387 215.406 88.0585C215.416 88.0185 215.436 87.9684 215.446 87.9283C215.456 87.8882 215.466 87.8381 215.486 87.7981C215.496 87.758 215.506 87.7079 215.516 87.6678C215.536 87.5977 215.546 87.5376 215.566 87.4574C215.566 87.4073 215.586 87.3472 215.596 87.2971C215.596 87.2571 215.596 87.227 215.616 87.1869C214.965 87.4875 214.294 87.7279 213.602 87.8982L213.612 87.8882Z" fill="#9B015D"/>
<path d="M200.067 81.1438C199.967 81.4444 199.907 81.755 199.907 82.0856C199.907 82.847 200.198 83.5282 200.678 84.0492C201.209 84.6202 201.961 84.9909 202.812 84.9909C203.053 84.9909 203.273 84.9608 203.494 84.9007C203.674 84.8607 203.844 84.8006 204.005 84.7304C203.974 84.7505 204.075 84.8607 204.255 85.021C204.726 85.4518 205.718 86.2232 205.838 86.2933C206.609 86.7241 206.419 87.6458 207.13 88.1667C208.262 88.9983 210.086 89.6996 211.428 90.2205C212.45 90.6213 213.532 90.9218 214.604 91.1923C214.604 91.1923 214.424 90.7214 214.093 90.0602C213.993 89.8599 213.883 89.6495 213.752 89.4291C213.171 88.4072 212.32 87.215 211.268 86.6139C209.695 85.7222 206.84 83.8187 205.577 82.9672C205.668 82.6867 205.718 82.3961 205.718 82.0956C205.718 80.4926 204.415 79.2003 202.812 79.2003C202.492 79.2003 202.191 79.2504 201.901 79.3505C200.648 77.8578 195.599 72.1974 192.964 71.4961C192.964 71.4961 193.185 71.6965 193.575 72.1072C194.277 72.8386 195.519 74.2411 197.012 76.355C197.953 77.6775 198.995 79.2704 200.067 81.1539V81.1438ZM202.852 79.7713C203.293 79.7713 203.644 80.122 203.644 80.5628C203.644 81.0036 203.293 81.3542 202.852 81.3542C202.412 81.3542 202.061 81.0036 202.061 80.5628C202.061 80.122 202.412 79.7713 202.852 79.7713Z" fill="#00144A"/>
<path d="M202.853 81.6562C203.454 81.6562 203.934 81.1753 203.934 80.5742C203.934 79.9731 203.454 79.4922 202.853 79.4922C202.251 79.4922 201.76 79.9731 201.76 80.5742C201.76 81.1753 202.251 81.6562 202.853 81.6562Z" fill="#FFF8D6"/>
<path d="M219.433 92.6362C218.702 91.7045 217.82 90.7227 216.768 89.7108C216.738 89.6808 216.698 89.6507 216.668 89.6206C216.247 89.2199 215.796 88.8092 215.315 88.3984C215.315 88.3984 215.315 88.4184 215.295 88.4385C215.215 88.6088 214.825 89.3902 214.374 89.841C214.284 89.9312 214.183 90.0114 214.093 90.0614C214.424 90.7227 214.604 91.1935 214.604 91.1935C213.532 90.923 212.45 90.6325 211.428 90.2217C210.076 89.6908 208.263 88.9995 207.13 88.168L207.401 88.5286L209.715 91.6143L211.328 93.7683L211.358 93.8083L211.619 94.159L213.021 93.1171C213.021 93.1171 217.78 96.3029 220.625 98.6072C221.647 99.4387 222.399 100.14 222.559 100.521C223.03 101.653 223.601 97.9259 219.463 92.6562L219.433 92.6362Z" fill="#FFF8D6"/>
<path d="M219.163 96.6235C217.67 95.3712 216.197 94.0688 215.005 92.5059C214.654 92.0451 214.334 91.5642 214.083 91.0533C213.182 90.8228 212.28 90.5624 211.428 90.2217C210.076 89.6908 208.263 88.9995 207.13 88.168L207.401 88.5286L209.705 91.6143L211.318 93.7683L211.348 93.8083L211.609 94.159L212.861 93.0169C212.861 93.0169 217.77 96.3029 220.605 98.6072C221.627 99.4387 222.378 100.14 222.539 100.521C222.699 100.901 222.859 100.731 222.859 100.15C221.767 98.8175 220.475 97.7456 219.163 96.6436V96.6235Z" fill="#FFDF72"/>
<path d="M212.1 90.4922C212.1 90.4922 212.1 90.4722 212.1 90.4622C211.879 90.382 211.649 90.3019 211.428 90.2217C210.076 89.6908 208.263 88.9995 207.13 88.168L207.401 88.5286L209.705 91.6143L211.655 94.2662L213.011 93.1171L213.141 93.2072C212.641 92.3857 212.32 91.4039 212.11 90.5023L212.1 90.4922Z" fill="#FFDF72"/>
<path d="M183.016 80.7548C183.016 80.5945 182.986 80.4241 182.966 80.2538C182.936 80.0134 182.886 79.7629 182.826 79.5025C182.806 79.4223 182.786 79.3321 182.766 79.252C182.325 77.629 181.303 75.5752 179.249 73.0205C179.129 72.8703 179.009 72.72 178.878 72.5597C178.838 72.5096 178.798 72.4595 178.758 72.4194C178.758 72.4194 178.738 72.3994 178.738 72.3894C178.688 72.3293 178.638 72.2692 178.588 72.209C178.558 72.169 178.518 72.1289 178.478 72.0788C178.438 72.0287 178.387 71.9686 178.337 71.9185C178.267 71.8384 178.197 71.7682 178.137 71.6881C178.097 71.638 178.047 71.5879 177.997 71.5378C177.967 71.4977 177.937 71.4677 177.907 71.4276C177.766 71.2673 177.616 71.107 177.466 70.9467C177.466 70.9467 177.466 70.9467 177.466 70.9367C177.446 70.9167 177.426 70.8966 177.406 70.8766C177.346 70.8165 177.295 70.7564 177.235 70.6963C177.145 70.6061 177.065 70.5059 176.975 70.4157C176.975 70.4157 176.975 70.4157 176.965 70.3957C176.935 70.3657 176.895 70.3256 176.875 70.2955C176.835 70.2555 176.795 70.2054 176.754 70.1653C176.684 70.0952 176.614 70.015 176.544 69.9449C176.524 69.9248 176.504 69.9048 176.484 69.8848C176.444 69.8447 176.394 69.7946 176.354 69.7445C175.662 69.0232 174.961 68.2818 174.23 67.6006C174.2 67.5705 174.17 67.5405 174.14 67.5104C173.879 67.2599 173.619 66.9995 173.348 66.749C173.338 66.739 173.318 66.719 173.308 66.7089C173.038 66.4485 172.767 66.188 172.487 65.9175C172.447 65.8774 172.406 65.8373 172.366 65.7973C172.096 65.5368 171.825 65.2863 171.545 65.0258C171.505 64.9858 171.455 64.9457 171.415 64.8956C171.134 64.6351 170.844 64.3646 170.563 64.1041C170.453 64.004 169.641 63.2526 169.571 63.2025C169.271 62.932 168.97 62.6515 168.67 62.381C168.64 62.3509 168.599 62.3209 168.569 62.2908C168.269 62.0203 167.978 61.7598 167.678 61.4893C167.648 61.4593 167.608 61.4292 167.578 61.3992C166.946 60.8381 166.315 60.2771 165.674 59.7161C163.921 58.1833 162.148 56.6605 160.364 55.1577C158.661 53.7251 156.968 52.2523 155.145 50.97C152.149 48.8661 148.843 47.2131 145.357 46.1111C144.886 45.9608 144.425 45.8205 143.984 45.7003C143.874 45.6702 143.774 45.6402 143.674 45.6202C143.002 45.4398 142.311 45.2795 141.61 45.2495C140.458 45.2094 139.376 44.5281 138.444 43.907C137.512 43.2758 136.671 42.5946 135.739 41.9935C135.028 41.5326 134.276 41.1419 133.465 40.9115C132.814 40.7211 132.122 40.651 131.451 40.5408C126.282 39.6993 122.395 36.6036 118.077 33.9487C117.686 33.7082 117.325 33.4979 116.985 33.3175C116.985 33.3175 116.985 33.3175 116.965 33.3175C116.864 33.2674 116.764 33.2073 116.664 33.1673C116.644 33.1673 116.624 33.1472 116.604 33.1372C116.524 33.0971 116.444 33.0571 116.363 33.027C116.333 33.017 116.313 33.007 116.283 32.9969C116.213 32.9669 116.143 32.9368 116.073 32.9168C116.043 32.9168 116.023 32.8968 115.993 32.8867C115.933 32.8667 115.862 32.8467 115.802 32.8266C115.782 32.8266 115.752 32.8066 115.732 32.8066C115.672 32.7866 115.602 32.7765 115.552 32.7565C115.532 32.7565 115.522 32.7565 115.502 32.7565C115.362 32.7264 115.231 32.7264 115.121 32.7365C115.101 32.7365 115.091 32.7365 115.081 32.7365C115.041 32.7365 115.011 32.7565 114.981 32.7665C114.961 32.7665 114.951 32.7866 114.941 32.7966C114.911 32.8166 114.891 32.8266 114.871 32.8467C114.861 32.8567 114.841 32.8767 114.831 32.8867C114.811 32.9068 114.801 32.9368 114.791 32.9669C114.7 33.1673 114.7 33.4177 114.77 33.6181C114.811 33.7583 114.911 33.8886 115.001 34.0088C115.091 34.129 115.181 34.2593 115.261 34.3795C115.332 34.4797 115.392 34.5698 115.462 34.67C115.542 34.7802 115.612 34.8904 115.692 35.0006C115.782 35.1208 115.862 35.2511 115.953 35.3713C116.043 35.5015 116.143 35.6418 116.233 35.772C116.333 35.9223 116.444 36.0626 116.534 36.2129C116.644 36.3731 116.754 36.5234 116.864 36.6837C116.985 36.854 117.095 37.0143 117.215 37.1846C117.335 37.355 117.455 37.5353 117.586 37.7056C117.706 37.8759 117.836 38.0663 117.966 38.2466C118.097 38.4269 118.227 38.6273 118.357 38.8076C118.487 38.998 118.628 39.1983 118.758 39.3887C118.888 39.579 119.038 39.7794 119.169 39.9798C119.309 40.1801 119.449 40.3805 119.589 40.5809C119.73 40.7813 119.88 40.9816 120.02 41.192C120.16 41.3924 120.311 41.6028 120.451 41.8031C120.591 42.0035 120.741 42.2139 120.882 42.4143C121.022 42.6146 121.172 42.815 121.313 43.0254C121.453 43.2358 121.603 43.4261 121.743 43.6265C121.884 43.8269 122.024 44.0272 122.164 44.2176C122.304 44.4179 122.445 44.6083 122.585 44.7986C122.725 44.999 122.855 45.1793 122.996 45.3697C123.136 45.56 123.266 45.7404 123.396 45.9207C123.527 46.101 123.657 46.2814 123.787 46.4517C123.917 46.622 124.038 46.7923 124.158 46.9626C124.288 47.1329 124.398 47.2832 124.518 47.4435C124.629 47.5938 124.739 47.7441 124.859 47.9044C124.969 48.0446 125.069 48.1849 125.18 48.3251C125.28 48.4554 125.38 48.5856 125.47 48.7158C125.56 48.8361 125.65 48.9463 125.741 49.0665C125.801 49.1366 125.861 49.2168 125.911 49.2869C126.161 49.6075 126.372 49.8479 126.512 50.0182C127.644 51.2605 125.701 50.0784 124.238 49.888C123.877 49.8379 123.537 49.8479 123.286 49.9782C123.286 49.9782 123.286 49.9782 123.266 49.9782C123.226 49.9982 123.196 50.0182 123.166 50.0483C123.156 50.0483 123.146 50.0683 123.126 50.0784C123.096 50.0984 123.076 50.1284 123.056 50.1485C123.056 50.1585 123.036 50.1685 123.026 50.1886C122.996 50.2286 122.976 50.2687 122.946 50.3188C122.925 50.3589 122.905 50.419 122.895 50.4691C122.895 50.4891 122.895 50.5091 122.885 50.5192C122.885 50.5592 122.865 50.6093 122.865 50.6594C122.865 50.6795 122.865 50.6995 122.865 50.7195C122.775 52.1421 123.667 54.0156 124.248 55.2779C124.989 56.8809 125.941 58.3936 127.043 59.7762C129.227 62.5312 132.002 64.7153 134.587 67.0496C134.627 67.0896 134.657 67.1197 134.697 67.1497C134.777 67.2299 134.867 67.3 134.948 67.3802C135.008 67.4303 135.058 67.4804 135.118 67.5304C135.198 67.6006 135.278 67.6707 135.358 67.7408C135.398 67.7809 135.449 67.821 135.499 67.861C135.589 67.9412 135.689 68.0314 135.779 68.1115C135.819 68.1416 135.849 68.1716 135.889 68.2117C136.01 68.3219 136.13 68.4221 136.25 68.5323C136.3 68.5824 136.36 68.6325 136.41 68.6725C136.46 68.7126 136.51 68.7627 136.561 68.8028C136.581 68.8228 136.611 68.8429 136.631 68.8629C136.681 68.913 136.741 68.9631 136.791 69.0031C136.861 69.0633 136.931 69.1334 137.001 69.1935C137.051 69.2436 137.112 69.2937 137.172 69.3438C137.252 69.4139 137.332 69.484 137.412 69.5642C137.452 69.6043 137.492 69.6343 137.532 69.6644C137.653 69.7645 137.763 69.8748 137.883 69.9749C137.923 70.015 137.963 70.0451 138.003 70.0751C138.083 70.1452 138.163 70.2154 138.244 70.2855C138.284 70.3256 138.334 70.3556 138.374 70.3957C138.454 70.4658 138.524 70.5259 138.604 70.5961C138.644 70.6362 138.694 70.6762 138.735 70.7163C138.745 70.7263 138.765 70.7464 138.775 70.7564C138.845 70.8165 138.925 70.8866 138.995 70.9467C139.015 70.9668 139.045 70.9868 139.065 71.0068C139.175 71.107 139.286 71.1972 139.386 71.2873C139.426 71.3174 139.456 71.3475 139.486 71.3775C139.556 71.4376 139.626 71.5078 139.696 71.5679C139.736 71.6079 139.776 71.638 139.827 71.6781C139.897 71.7382 139.957 71.7983 140.027 71.8484C140.067 71.8784 140.097 71.9085 140.127 71.9385C140.217 72.0187 140.307 72.0888 140.388 72.159C140.398 72.159 140.408 72.179 140.428 72.189C140.518 72.2692 140.618 72.3493 140.708 72.4194C140.738 72.4495 140.768 72.4695 140.798 72.4896C140.858 72.5396 140.919 72.5897 140.979 72.6398C141.009 72.6699 141.039 72.6899 141.079 72.72C141.139 72.7701 141.199 72.8202 141.249 72.8602C141.279 72.8803 141.299 72.9003 141.329 72.9304C141.49 73.0606 141.64 73.1908 141.79 73.3011C141.81 73.3211 141.83 73.3411 141.85 73.3511C141.9 73.3912 141.94 73.4213 141.991 73.4613C142.011 73.4814 142.041 73.5014 142.061 73.5114C142.101 73.5415 142.141 73.5716 142.191 73.6116C142.211 73.6216 142.231 73.6417 142.251 73.6517C142.311 73.6918 142.361 73.7318 142.411 73.7719C142.622 73.9222 142.822 74.0725 143.032 74.2528C143.233 74.4231 143.433 74.5934 143.634 74.7738C143.754 74.8739 143.864 74.9841 143.974 75.0943C144.004 75.1244 144.034 75.1545 144.064 75.1845C144.185 75.3047 144.305 75.4149 144.425 75.5352C144.445 75.5552 144.475 75.5853 144.495 75.6053C144.625 75.7355 144.746 75.8658 144.876 75.996C144.886 76.016 144.906 76.0261 144.916 76.0461C145.046 76.1864 145.176 76.3266 145.307 76.4669C145.307 76.4669 145.307 76.4669 145.317 76.4869C146.359 77.639 147.19 78.9815 148.272 80.0835C148.913 80.7247 149.675 81.2256 150.446 81.7065C153.281 83.4597 156.287 84.9525 159.413 86.1046C160.655 86.5654 161.997 86.9962 163.41 87.3669C164.792 87.7376 166.235 88.0382 167.688 88.2385C168.249 88.3187 168.8 88.3788 169.361 88.4189C169.411 88.4189 169.461 88.4189 169.501 88.4289C170.102 88.4689 170.703 88.499 171.294 88.499H171.314C171.625 88.499 171.936 88.499 172.236 88.479C172.847 88.4489 173.458 88.3988 174.049 88.3187C174.641 88.2385 175.232 88.1183 175.803 87.978C176.815 87.7176 177.766 87.3469 178.668 86.866C179.319 86.5154 179.94 86.1046 180.521 85.6137C181.503 84.7822 182.535 83.8404 182.906 82.5681C182.996 82.2575 183.066 81.9069 183.096 81.5061C183.116 81.2657 183.116 81.0052 183.096 80.7247H183.086L183.016 80.7548Z" fill="#FFB2D2"/>
<path d="M183.016 80.7531C183.016 80.5928 182.986 80.4225 182.966 80.2521C182.936 80.0117 182.886 79.7612 182.826 79.5008C182.806 79.4206 182.786 79.3304 182.765 79.2503C182.325 77.6273 181.303 75.5735 179.249 73.0188C179.129 72.8686 179.009 72.7183 178.878 72.558C178.838 72.5079 178.798 72.4578 178.758 72.4177C178.758 72.4177 178.738 72.3977 178.738 72.3877C178.688 72.3276 178.638 72.2675 178.588 72.2073C178.558 72.1673 178.518 72.1272 178.478 72.0771C178.438 72.027 178.387 71.9669 178.337 71.9168C178.267 71.8367 178.197 71.7665 178.137 71.6864C178.097 71.6363 178.047 71.5862 177.997 71.5361C177.967 71.496 177.937 71.466 177.907 71.4259C177.796 71.3057 177.686 71.1855 177.576 71.0552C177.596 71.5361 177.606 72.007 177.616 72.4879C177.636 75.0826 177.516 78.2785 175.652 80.3122C173.899 82.2158 170.934 82.5063 168.519 82.1957C165.484 81.815 162.588 80.693 159.843 79.3906C157.198 78.1383 154.664 76.6756 152.199 75.1227C149.274 73.2793 146.429 71.2857 143.623 69.2619C140.127 66.7273 136.711 64.0724 133.535 61.147C133.535 61.147 133.515 61.127 133.505 61.117C131.641 59.3938 131.03 56.6888 131.982 54.3345C132.042 54.1742 132.112 54.0339 132.172 53.9037C132.713 52.8417 133.505 51.89 134.557 51.4291C133.134 49.8562 131.661 48.3334 130.189 46.8106C127.784 44.3361 125.48 41.7614 123.266 39.1065C122.304 37.9443 121.292 36.7321 120.431 35.4397C119.649 34.9288 118.858 34.4279 118.056 33.927C117.666 33.6865 117.305 33.4761 116.964 33.2958C116.964 33.2958 116.964 33.2958 116.944 33.2958C116.844 33.2457 116.744 33.1856 116.644 33.1455C116.624 33.1455 116.604 33.1255 116.584 33.1155C116.504 33.0754 116.423 33.0353 116.343 33.0053C116.313 32.9952 116.293 32.9852 116.263 32.9752C116.193 32.9451 116.123 32.9151 116.053 32.8951C116.023 32.8951 116.003 32.875 115.973 32.865C115.913 32.845 115.842 32.8149 115.782 32.8049C115.762 32.8049 115.732 32.7849 115.712 32.7849C115.652 32.7648 115.582 32.7548 115.532 32.7448C115.512 32.7448 115.502 32.7448 115.482 32.7448C115.341 32.7147 115.211 32.7147 115.101 32.7247C115.081 32.7247 115.071 32.7247 115.061 32.7247C115.021 32.7247 114.991 32.7448 114.961 32.7548C114.941 32.7548 114.931 32.7748 114.921 32.7849C114.891 32.8049 114.871 32.8149 114.851 32.8349C114.841 32.845 114.821 32.865 114.811 32.875C114.79 32.8951 114.78 32.9251 114.77 32.9552C114.68 33.1555 114.68 33.406 114.75 33.6064C114.79 33.7466 114.891 33.8769 114.981 33.9971C115.071 34.1173 115.161 34.2475 115.241 34.3678C115.311 34.4679 115.372 34.5581 115.442 34.6583C115.522 34.7685 115.592 34.8787 115.672 34.9889C115.762 35.1091 115.842 35.2394 115.933 35.3596C116.023 35.4898 116.123 35.6301 116.213 35.7603C116.313 35.9106 116.423 36.0509 116.514 36.2011C116.624 36.3614 116.734 36.5117 116.844 36.672C116.964 36.8423 117.075 37.0026 117.195 37.1729C117.315 37.3432 117.435 37.5236 117.566 37.6939C117.696 37.8742 117.816 38.0545 117.946 38.2349C118.077 38.4252 118.207 38.6156 118.337 38.7959C118.467 38.9863 118.607 39.1866 118.738 39.377C118.878 39.5773 119.018 39.7677 119.148 39.9681C119.289 40.1684 119.429 40.3688 119.569 40.5692C119.71 40.7695 119.86 40.9699 120 41.1803C120.14 41.3807 120.291 41.591 120.431 41.7914C120.571 41.9918 120.721 42.2022 120.862 42.4025C121.002 42.6029 121.152 42.8033 121.292 43.0137C121.433 43.214 121.583 43.4144 121.723 43.6148C121.863 43.8151 122.004 44.0155 122.144 44.2059C122.284 44.4062 122.425 44.5966 122.565 44.7869C122.705 44.9773 122.835 45.1676 122.976 45.358C123.106 45.5383 123.246 45.7287 123.376 45.909C123.507 46.0893 123.637 46.2696 123.767 46.44C123.897 46.6103 124.017 46.7806 124.138 46.9509C124.258 47.1112 124.378 47.2715 124.498 47.4318C124.609 47.5821 124.719 47.7323 124.839 47.8926C124.949 48.0329 125.049 48.1731 125.16 48.3134C125.26 48.4436 125.36 48.5739 125.45 48.7041C125.54 48.8243 125.63 48.9345 125.721 49.0548C125.781 49.1249 125.841 49.205 125.891 49.2752C126.141 49.5958 126.352 49.8362 126.492 50.0065C127.624 51.2488 125.68 50.0666 124.218 49.8763C123.857 49.8262 123.517 49.8362 123.266 49.9664C123.266 49.9664 123.266 49.9664 123.246 49.9664C123.206 49.9865 123.176 50.0065 123.146 50.0366C123.136 50.0366 123.126 50.0566 123.106 50.0666C123.076 50.0867 123.056 50.1167 123.036 50.1368C123.036 50.1468 123.016 50.1568 123.006 50.1768C122.976 50.2169 122.955 50.257 122.925 50.3071C122.905 50.3471 122.885 50.4073 122.875 50.4574C122.875 50.4774 122.875 50.4974 122.865 50.5074C122.865 50.5575 122.845 50.5976 122.845 50.6477C122.845 50.6677 122.845 50.6878 122.845 50.7078C122.755 52.1304 123.647 54.0039 124.228 55.2662C124.969 56.8691 125.921 58.3819 127.023 59.7645C127.263 60.075 127.524 60.3756 127.784 60.6761C127.834 60.7363 127.885 60.7863 127.935 60.8465C128.175 61.117 128.426 61.3875 128.676 61.6579C128.746 61.7281 128.816 61.8082 128.886 61.8784C129.117 62.1188 129.357 62.3492 129.588 62.5796C129.688 62.6798 129.798 62.78 129.898 62.8802C130.069 63.0405 130.229 63.1908 130.399 63.3511C130.71 63.6416 131.02 63.9221 131.331 64.2026C132.403 65.1544 133.485 66.0861 134.537 67.0378C134.577 67.0779 134.607 67.108 134.647 67.138C134.727 67.2182 134.817 67.2883 134.897 67.3685C134.958 67.4185 135.008 67.4686 135.068 67.5187C135.148 67.5889 135.228 67.659 135.308 67.7291C135.348 67.7692 135.398 67.8093 135.448 67.8493C135.539 67.9295 135.639 68.0196 135.729 68.0998C135.769 68.1298 135.799 68.1599 135.839 68.2C135.959 68.3102 136.08 68.4104 136.2 68.5206C136.25 68.5707 136.31 68.6208 136.36 68.6608C136.41 68.7009 136.46 68.751 136.51 68.7911C136.53 68.8111 136.561 68.8311 136.581 68.8512C136.631 68.9013 136.691 68.9514 136.741 68.9914C136.811 69.0515 136.881 69.1217 136.951 69.1818C137.001 69.2319 137.061 69.282 137.122 69.3321C137.202 69.4022 137.282 69.4723 137.362 69.5525C137.402 69.5925 137.442 69.6226 137.482 69.6526C137.602 69.7528 137.713 69.863 137.833 69.9632C137.873 70.0033 137.913 70.0333 137.953 70.0634C138.033 70.1335 138.113 70.2037 138.194 70.2738C138.234 70.3139 138.284 70.3439 138.324 70.384C138.404 70.4541 138.474 70.5142 138.554 70.5844C138.594 70.6244 138.644 70.6645 138.684 70.7046C138.694 70.7146 138.714 70.7346 138.724 70.7447C138.795 70.8048 138.875 70.8749 138.945 70.935C138.965 70.955 138.995 70.9751 139.015 70.9951C139.125 71.0953 139.235 71.1855 139.336 71.2756C139.376 71.3057 139.406 71.3357 139.436 71.3658C139.506 71.4259 139.576 71.496 139.656 71.5561C139.696 71.5962 139.736 71.6263 139.786 71.6664C139.857 71.7265 139.917 71.7866 139.987 71.8367C140.027 71.8667 140.057 71.8968 140.087 71.9268C140.177 72.007 140.267 72.0771 140.347 72.1472C140.357 72.1472 140.368 72.1673 140.388 72.1773C140.478 72.2574 140.578 72.3376 140.668 72.4077C140.698 72.4378 140.728 72.4578 140.758 72.4778C140.818 72.5279 140.878 72.578 140.939 72.6281C140.969 72.6582 140.999 72.6782 141.039 72.7083C141.099 72.7584 141.159 72.8084 141.209 72.8485C141.239 72.8686 141.259 72.8986 141.289 72.9187C141.449 73.0489 141.6 73.1791 141.75 73.2893C141.77 73.3094 141.79 73.3294 141.81 73.3394C141.86 73.3795 141.9 73.4096 141.95 73.4496C141.97 73.4697 142.001 73.4897 142.021 73.4997C142.061 73.5298 142.101 73.5598 142.151 73.5999C142.171 73.6099 142.191 73.63 142.211 73.64C142.271 73.6801 142.321 73.7201 142.371 73.7602C142.582 73.9105 142.782 74.0608 142.992 74.2411C143.193 74.4114 143.393 74.5817 143.593 74.762C143.714 74.8622 143.824 74.9724 143.934 75.0826C143.964 75.1127 143.994 75.1427 144.024 75.1728C144.144 75.293 144.265 75.4032 144.385 75.5234C144.405 75.5435 144.435 75.5635 144.455 75.5936C144.585 75.7238 144.705 75.8541 144.836 75.9843C144.846 76.0043 144.866 76.0143 144.876 76.0244C145.006 76.1646 145.136 76.3049 145.267 76.4451C145.267 76.4451 145.267 76.4451 145.277 76.4652C146.318 77.6173 147.15 78.9598 148.232 80.0618C148.873 80.703 149.635 81.2039 150.406 81.6848C153.241 83.438 156.247 84.9307 159.372 86.0829C160.615 86.5437 161.957 86.9745 163.37 87.3452C164.752 87.7159 166.195 88.0164 167.648 88.2168C168.209 88.2969 168.76 88.357 169.321 88.3971C169.371 88.3971 169.421 88.3971 169.461 88.4071C170.062 88.4472 170.663 88.4773 171.254 88.4773H171.274C171.585 88.4773 171.895 88.4773 172.196 88.4572C172.807 88.4272 173.418 88.3771 174.009 88.2969C174.6 88.2168 175.192 88.0966 175.763 87.9563C176.774 87.6958 177.726 87.3251 178.628 86.8443C179.279 86.4936 179.9 86.0829 180.481 85.592C181.463 84.7604 182.495 83.8187 182.866 82.5464C182.956 82.2358 183.026 81.8851 183.056 81.4844C183.076 81.244 183.076 80.9835 183.056 80.703L183.016 80.7531Z" fill="#DF1278"/>
</svg>
