<svg width="320" height="156" viewBox="0 0 320 156" fill="none" xmlns="http://www.w3.org/2000/svg">
<rect y="17.501" width="320" height="138" rx="24" fill="#89D1FF"/>
<path d="M232.903 72.9434L232.583 72.6237C231.513 71.5537 231.647 70.1303 232.89 69.4414L244.301 63.1162C245.336 62.5421 246.829 62.5149 248.04 63.1351C250.409 64.343 250.589 66.649 248.806 67.6369L248.474 67.8212L252.296 71.6435L254.03 70.6823C255.451 69.8946 256.233 68.5878 256.153 67.1369C255.732 59.5669 246.045 56.2134 240.472 59.3026L227.496 66.4956C226.508 67.043 225.927 67.9297 225.899 68.934C225.74 74.8323 230.978 78.356 236.104 78.705C237.221 78.7814 237.775 77.8154 237.045 77.0853L232.906 72.9467L232.903 72.9434Z" fill="#1B90FF"/>
<path d="M213.922 119.665L265.592 71.4853C266.862 70.301 266.122 68.1718 264.392 68.0293L147.4 58.4004L184.178 112.756C190.777 122.51 203.735 125.517 213.922 119.66V119.665Z" fill="#1B90FF"/>
<path d="M217.9 110.4L191.4 135.4L194.4 114.9L217.9 110.4Z" fill="#1B90FF"/>
<path d="M203.5 11.999L216.35 114.941C216.926 128.997 185.342 119.715 171.4 118.4L154.753 134.295L203.5 11.999Z" fill="#046C7C"/>
<path d="M204.9 122.4L193.9 121.9L203.4 12.4004L204.9 122.4Z" fill="#035663"/>
<path d="M84.3571 37.9756L79.0134 131.087C78.7517 135.624 82.3443 139.449 86.8696 139.449H182.851C189.246 139.449 194.547 134.467 194.975 128.056L201.014 37.9756H84.3571Z" fill="white"/>
<path d="M86.1605 15.0838L84.4094 37.9755H201.071L203.535 13.0102C203.825 10.0625 201.504 7.50946 198.542 7.51923L93.8977 7.86434C89.8387 7.87868 86.4746 11.0198 86.1653 15.0838H86.1605Z" fill="#0899A7"/>
<path d="M117.866 29.4172C121.256 29.4172 124.004 26.6559 124.004 23.2496C124.004 19.8434 121.256 17.082 117.866 17.082C114.476 17.082 111.727 19.8434 111.727 23.2496C111.727 26.6559 114.476 29.4172 117.866 29.4172Z" fill="#340800"/>
<path d="M168.8 28.26C172.19 28.26 174.938 25.4986 174.938 22.0924C174.938 18.6861 172.19 15.9248 168.8 15.9248C165.409 15.9248 162.661 18.6861 162.661 22.0924C162.661 25.4986 165.409 28.26 168.8 28.26Z" fill="#340800"/>
<path d="M116.567 21.2178H116.115C114.601 21.2178 113.374 20.2234 113.374 18.9899V7.66352C113.374 6.63559 114.102 5.66503 115.277 5.28733C117.571 4.54626 119.76 5.90408 119.76 7.67308V8.00297H125.165V6.28179C125.165 4.87137 124.37 3.53745 123.01 2.66252C115.91 -1.9034 107.973 2.14138 107.973 7.67308V20.5533C107.973 21.5334 108.487 22.4705 109.386 23.1303C114.673 26.9982 120.521 25.9033 123.424 22.853C124.056 22.1884 123.457 21.2178 122.424 21.2178H116.571H116.567Z" fill="#046C7C"/>
<path d="M167.358 21.0313H166.906C165.392 21.0313 164.165 20.0369 164.165 18.8033V7.47699C164.165 6.44906 164.893 5.47851 166.068 5.1008C168.362 4.35974 170.551 5.71756 170.551 7.48656V7.81645H175.956V6.09526C175.956 4.68485 175.161 3.35093 173.801 2.476C166.701 -2.08992 158.764 1.95486 158.764 7.48656V20.3668C158.764 21.3469 159.278 22.284 160.177 22.9437C165.464 26.8116 171.312 25.7168 174.215 22.6664C174.847 22.0019 174.248 21.0313 173.215 21.0313H167.362H167.358Z" fill="#046C7C"/>
<path d="M120.193 37.9756L112.817 139.449" stroke="#046C7C" stroke-width="2" stroke-miterlimit="10"/>
<path d="M161.629 37.9756L154.386 139.449" stroke="#046C7C" stroke-width="2" stroke-miterlimit="10"/>
<path d="M198.911 69.3633H81.9398" stroke="#046C7C" stroke-width="2" stroke-miterlimit="10"/>
<path d="M196.579 104.146L80.5409 103.505" stroke="#046C7C" stroke-width="2" stroke-miterlimit="10"/>
</svg>
