<svg width="160" height="160" viewBox="0 0 160 160" fill="none" xmlns="http://www.w3.org/2000/svg">
<g clip-path="url(#clip0_4520_69814)">
<rect y="46" width="160" height="69" rx="12" fill="#222F3B"/>
<path d="M79.2891 74.6178C79.0504 74.2232 78.8068 73.5266 78.5828 72.7668C78.7192 71.9289 78.2126 69.8539 77.628 69.0258C77.4137 68.7189 76.9558 68.9284 76.912 68.9479C76.8828 68.9479 76.8536 68.9479 76.8243 68.9479C76.5223 68.9527 76.2593 69.055 76.2593 69.055C75.9914 69.1719 75.7722 69.3034 75.5871 69.4496L75.4215 45.5912C75.4068 43.8425 73.9845 42.4347 72.2358 42.4493L58.1438 42.5468C58.1 42.5468 58.061 42.5516 58.0172 42.5516H57.9587C57.9587 42.5516 57.9198 42.5516 57.9003 42.5565C57.7688 42.5662 57.6421 42.5857 57.5155 42.6101C54.8949 43.0387 54.2714 44.6608 54.286 46.6238L54.3347 57.7639C54.3347 57.7639 54.2762 57.7055 54.1691 57.6178C54.1642 57.6129 54.1545 57.608 54.1496 57.6032C54.135 57.5934 54.1252 57.5837 54.1155 57.5739C54.0765 57.5447 54.0424 57.5204 54.0132 57.496C54.0132 57.496 54.0034 57.4911 53.9986 57.4863C53.9158 57.4278 53.8573 57.3888 53.8573 57.3888C53.7696 57.3304 53.682 57.2768 53.5845 57.2281H53.5943C53.5943 57.2281 52.8782 56.4682 52.0502 56.6825C51.2269 56.9017 51.1247 57.6519 51.2269 58.1974C51.2269 58.1974 51.2269 58.1926 51.2269 58.1877C51.1734 58.4994 51.188 58.8258 51.2416 59.157V59.1473C51.2416 59.1619 51.2464 59.1765 51.2513 59.1911C51.261 59.2545 51.2757 59.3227 51.2903 59.386C51.3146 59.4931 51.3439 59.6052 51.378 59.7172C51.3926 59.761 51.4072 59.8049 51.4218 59.8439C51.4364 59.8877 51.451 59.9315 51.4656 59.9754C51.5825 60.292 51.7189 60.594 51.8651 60.857C51.943 61.008 52.0648 61.198 52.206 61.4075C52.8247 62.3963 53.5748 63.3072 54.0083 63.7991C54.1398 63.9599 54.2567 64.1109 54.359 64.2375L54.3736 67.4476C54.2373 67.3307 54.1009 67.2235 53.9888 67.1504C53.6917 66.9605 53.38 66.9312 53.0341 67.014C52.6883 67.0969 52.3132 67.3014 51.8943 67.584C51.4023 67.9152 51.1977 68.2903 51.1734 68.7822L51.1685 68.7871C51.1685 68.7871 51.1295 69.1524 51.2367 69.586C51.339 70.0097 51.6264 71.135 52.7808 72.2504C52.8344 72.304 52.8636 72.3381 52.8636 72.3381C52.8636 72.3381 52.5178 72.4112 52.0696 72.6255C51.8017 72.7521 51.4949 72.9324 51.2026 73.1711C50.7642 73.5315 50.8373 74.1745 51.0711 74.8905C51.1734 75.2072 51.3098 75.5433 51.4461 75.8745C51.5143 76.0352 51.5777 76.196 51.641 76.3567C51.7141 76.5516 51.7774 76.7367 51.831 76.8974C51.831 76.912 51.8407 76.9266 51.8456 76.9413C51.8602 76.9997 51.8797 77.0582 51.8943 77.1166C51.904 77.1556 51.9138 77.1994 51.9235 77.2384C51.9381 77.2968 51.9527 77.3504 51.9673 77.4089C51.9771 77.4576 51.9868 77.5014 52.0014 77.5501C52.0161 77.6086 52.0258 77.667 52.0404 77.7255C52.0502 77.7791 52.0648 77.8327 52.0745 77.8862C52.0843 77.9398 52.094 77.9983 52.1086 78.0519C52.1184 78.0957 52.1281 78.1395 52.133 78.1882C52.1427 78.2321 52.1476 78.271 52.1573 78.3149C52.1914 78.5146 52.2304 78.7241 52.2645 78.9384C52.3083 79.2209 52.357 79.5083 52.4009 79.8103C52.4106 79.8785 52.5373 80.7455 52.698 81.6905C52.7126 81.7636 52.7224 81.8367 52.737 81.9146C52.7467 81.9828 52.7613 82.0559 52.7711 82.1241C52.7808 82.1874 52.7954 82.2507 52.8052 82.3091C52.8831 82.7475 52.961 83.1616 53.039 83.4879C53.0487 83.5269 53.0536 83.5659 53.0633 83.6049C53.1364 83.9312 53.2143 84.2819 53.3069 84.657C53.3507 84.8421 53.3994 85.0369 53.4481 85.2318C53.6479 86.016 53.8817 86.8587 54.1447 87.7111C54.6708 89.4111 55.3089 91.1209 56.0201 92.3533C56.1954 92.6601 56.4341 93.0401 56.7118 93.4687C56.8969 93.7561 57.0966 94.063 57.306 94.3845C57.4083 94.5452 57.5155 94.7108 57.6226 94.8765C58.6991 96.557 59.8682 98.5249 60.1166 99.9277C60.1215 99.9618 60.1264 100.006 60.1312 100.045C60.1361 100.088 60.141 100.123 60.1507 100.171C60.1556 100.225 60.1605 100.293 60.1653 100.356C60.1653 100.4 60.1751 100.434 60.1751 100.483C60.1751 100.546 60.1799 100.624 60.1848 100.697C60.1848 100.751 60.1897 100.8 60.1946 100.858C60.1946 100.926 60.1946 100.999 60.1994 101.068C60.1994 101.141 60.1994 101.209 60.2043 101.287C60.2043 101.355 60.2043 101.433 60.2043 101.506C60.2043 101.594 60.2043 101.676 60.2043 101.769C60.2043 101.847 60.2043 101.935 60.2043 102.022C60.2043 102.115 60.2043 102.203 60.2043 102.3C60.2043 102.383 60.2043 102.475 60.2043 102.558C60.2043 102.66 60.2043 102.763 60.2043 102.87C60.2043 102.948 60.2043 103.035 60.2043 103.118C60.2043 103.24 60.2043 103.357 60.1994 103.479C60.1994 103.557 60.1994 103.639 60.1946 103.717C60.1946 103.854 60.1897 103.985 60.1848 104.122C60.1848 104.2 60.1848 104.278 60.1799 104.356C60.1799 104.497 60.1702 104.643 60.1702 104.789C60.1702 104.886 60.1653 104.984 60.1605 105.081C60.1605 105.213 60.1507 105.344 60.1458 105.481C60.1458 105.544 60.1458 105.612 60.141 105.676C60.141 105.676 57.4132 106.353 56.6436 106.708C56.361 106.84 56.3708 107.439 56.4 108.17C56.4341 108.9 56.5023 110.05 56.5023 110.05H56.512C56.5364 112.12 56.4731 114.814 56.4731 114.814H59.5857V114.824L63.8089 114.814H76.6197C76.6197 114.814 76.7172 108.014 76.7269 107.682C76.7415 107.181 76.7513 106.538 76.7269 106.046C76.7269 105.505 74.1647 105.257 74.1647 105.257L74.1988 105.573C73.8627 102.29 73.5461 99.5819 73.5461 98.671C73.5461 97.3363 74.6129 95.6851 75.324 94.4673C76.006 93.2982 76.5272 91.9246 77.365 90.1077C78.2077 88.2957 79.4498 83.824 79.3134 82.6647C79.2891 82.4455 79.2745 82.1874 79.2647 81.9195C79.2355 81.218 79.2501 80.3948 79.2842 79.6106C79.2842 79.5716 79.2842 79.5278 79.2891 79.4888C79.2939 79.3719 79.2988 79.255 79.3037 79.143C79.3037 79.0602 79.3134 78.9822 79.3183 78.9043C79.3183 78.8263 79.328 78.7435 79.3329 78.6656C79.3427 78.5049 79.3524 78.349 79.3621 78.2029C79.3865 77.8716 79.4352 77.5501 79.4839 77.2335C79.5083 77.0776 79.5375 76.9218 79.5619 76.7659C79.6788 75.9963 79.7323 75.2705 79.3183 74.5934L79.2891 74.6178ZM74.1842 105.788C74.1842 105.788 74.1988 105.788 74.2134 105.788C74.2037 105.788 74.194 105.788 74.1842 105.788C74.1842 105.754 74.1793 105.719 74.1745 105.685L74.1842 105.788Z" fill="#101619"/>
<path d="M71.0742 101.808C71.0742 101.808 77.039 99.7643 82.1407 99.7595C88.3236 99.7548 92.7805 100.589 92.7805 100.589L87.9727 106.142L71.3065 103.624L71.0742 101.808Z" fill="#00144A"/>
<path d="M74.3652 114.743C74.3652 114.743 75.3751 98.9971 74.9484 96.5552C74.5216 94.1134 71.5156 90.0974 70.4961 88.3193C68.9599 85.6404 67.7082 80.8753 67.1771 78.3054C66.6461 75.7355 66.3664 72.5825 65.8543 71.2075C65.3422 69.8325 64.4318 68.173 65.2758 67.4712C66.1198 66.7695 67.0871 66.5656 67.0871 66.5656C67.0871 66.5656 65.8021 65.3091 65.4513 64.0242C65.1004 62.7393 65.1288 62.0091 66.0345 61.3974C66.9401 60.7858 67.6702 60.5203 68.3103 60.928C68.9504 61.3358 70.0599 62.5354 70.15 63.0617C70.2401 63.588 70.0836 64.8018 68.7655 65.4466L68.7513 66.741C68.7513 66.741 69.6806 68.4337 70.0884 69.5148C70.4961 70.5958 71.1031 72.1036 68.903 72.5114L69.6142 76.7692L83.4023 77.9214L91.4628 72.6678C91.4628 72.6678 91.6382 71.8476 91.6382 71.2075C91.6382 71.2075 90.9365 69.401 90.9981 67.0919C91.0598 64.7828 90.9981 63.8819 92.5154 62.9763C92.5154 62.9763 93.6533 62.5401 94.0042 63.3556C94.3551 64.1712 95.0853 67.8458 95.806 69.0217C96.5267 70.1975 95.9482 71.5062 95.8534 72.9476C95.7585 74.389 95.659 76.5321 95.806 77.7933C95.9529 79.0546 94.6016 83.9098 93.6865 85.8822C92.7714 87.8547 92.2072 89.353 91.4675 90.6189C90.7279 91.8849 89.533 93.7388 89.533 95.1897C89.533 96.6406 90.2632 102.254 90.7326 107.916C91.0645 111.88 91.1546 114.71 91.1546 114.71L74.3604 114.743H74.3652Z" fill="#FFAB92"/>
<path d="M69.17 58.4148C69.17 58.4148 66.4614 55.1358 65.8087 53.9126C65.1559 52.6893 64.5495 50.8751 65.526 49.7032C66.5025 48.5314 68.4658 49.8985 68.8873 50.4382C69.3087 50.9778 69.4475 51.1732 69.4475 51.1732L69.1648 58.42L69.17 58.4148Z" fill="#FFAB92"/>
<path d="M89.0206 61.8138C89.0206 61.8138 90.571 61.9039 91.5051 64.1514C92.4391 66.3988 91.5478 68.1247 92.3965 69.5566C92.3965 69.5566 92.4771 70.2678 91.5051 73.5204C90.5331 76.7731 92.0551 77.2093 90.7227 78.1955C89.2434 79.2908 88.3188 79.7507 86.6214 81.2774C84.924 82.8042 84.8908 84.6059 83.5395 85.4926C82.1882 86.3792 76.9726 83.6007 74.7915 75.9481L87.7736 62.8095C87.7736 62.8095 88.0628 62.1789 89.0158 61.8091L89.0206 61.8138Z" fill="#FF7F4C"/>
<path d="M65.0529 50.7664C65.0529 50.7664 65.3715 48.9984 67.5713 49.6203H67.8385C67.8385 49.6203 66.9956 48.726 66.0191 48.9778C65.0426 49.2297 64.9295 50.1188 65.0529 50.7664Z" fill="#FA4F96"/>
<path d="M65.0737 51.8869C65.0737 51.8869 65.6288 53.7218 67.0525 53.7218C68.2654 53.7218 68.7074 51.2908 68.1523 49.8105C68.1523 49.8105 68.286 49.8979 68.4556 50.0264C68.6252 50.1549 68.7126 50.2474 68.7126 50.2474V57.8656C68.7126 57.8656 65.4027 54.3026 65.0737 51.8921V51.8869Z" fill="#FF7F4C"/>
<path d="M68.773 65.2086C68.773 65.2086 66.9565 65.4104 65.9979 63.7453C65.0392 62.0803 65.019 62.2922 65.019 62.2922C65.019 62.2922 64.9786 62.716 65.0947 63.2155C65.2107 63.7151 65.5538 65.0774 66.9767 66.3994C66.9767 66.3994 68.1927 66.0764 68.7528 66.5861L68.7679 65.2086H68.773Z" fill="#FF7F4C"/>
<path d="M80.6427 102.212C81.3824 97.7926 85.0381 95.2559 79.7134 94.0706C76.6742 93.3925 74.1849 90.671 72.3547 88.1675C69.8133 84.6873 67.6706 77.6595 68.178 76.3556L67.0396 77.5846C67.0822 77.8264 67.1296 78.0635 67.1771 78.3005C67.7081 80.8751 68.9598 85.6355 70.4961 88.3145C71.5155 90.0925 74.5263 94.1085 74.9483 96.5503C75.3703 98.978 74.3793 114.53 74.3651 114.729H78.9453C78.9453 114.729 80.0548 105.72 80.6427 102.212Z" fill="#FF7F4C"/>
<path d="M92.8802 112.064C92.8802 112.064 92.9845 102.672 92.9988 102.311C93.013 101.766 93.0272 101.064 92.9988 100.533C92.9798 100.144 90.6518 99.8883 90.6518 99.8883L90.6897 100.282C90.6897 100.282 92.0315 100.467 92.2544 100.642C92.4725 100.813 92.1121 101.017 91.785 101.173C89.0491 102.401 82.5629 103.568 77.9162 103.383C75.6356 103.293 72.9804 102.828 71.9231 102.61C71.6955 102.562 71.5343 102.453 71.411 102.335C71.3114 102.041 71.2925 101.733 71.8899 101.553C72.4873 101.372 74.7964 100.747 74.7964 100.747L74.8248 100.448C74.8248 100.448 71.4584 101.249 71.1692 101.434C70.8799 101.614 70.8799 102.05 70.9179 102.842C70.9558 103.639 71.0317 104.886 71.0317 104.886H71.0412C71.0696 107.133 71.0015 114.833 71.0015 114.833H92.8934L92.8802 112.064Z" fill="#0899A7"/>
<path d="M92.999 102.31C93.0132 101.765 92.999 101.068 92.999 100.532C92.999 99.944 89.9233 99.6481 89.9233 99.6481L89.9778 100.2C89.9778 100.2 92.027 100.461 92.2498 100.632C92.4679 100.802 92.1076 101.006 91.7804 101.163C89.0446 102.391 82.5583 103.557 77.9117 103.372C75.6311 103.282 72.9759 102.817 71.9185 102.599C71.691 102.552 71.5297 102.443 71.4065 102.324C71.3069 102.03 71.2879 101.722 71.8854 101.542C72.4828 101.362 75.0333 100.753 75.0333 100.753L75.0447 100.099C75.0447 100.099 72.0134 100.854 71.1741 101.243C70.8659 101.385 70.8754 102.035 70.9134 102.832C70.9513 103.628 71.0272 104.875 71.0272 104.875H71.0366C71.0651 107.123 70.994 114.835 70.994 114.835H76.2048C76.2048 114.835 76.0531 106.667 79.5617 106.136C88.7696 104.738 93.0037 102.386 93.0085 102.305L92.999 102.31Z" fill="#046C7C"/>
<path d="M72.8051 79.7808C70.9086 79.795 68.7085 78.5812 68.7939 75.5988L68.6327 38.6061C68.6137 36.3587 69.3676 34.5143 72.625 34.1776L87.3282 34.5854C89.2247 34.5712 90.7799 36.1026 90.7894 37.9992L91.842 76.2579C91.4912 78.3916 89.8696 79.5248 86.2424 79.8377L72.8004 79.7855L72.8051 79.7808Z" fill="#9B015D"/>
<path d="M69.4102 37.629L69.6804 75.8782C69.6946 77.7795 71.2451 79.3063 73.1464 79.2968L88.4613 79.1877C90.3626 79.1735 91.8893 77.6231 91.8751 75.7217L91.6048 37.4725C91.5906 35.576 90.0402 34.0445 88.1436 34.0587L72.8287 34.1677C70.9274 34.182 69.4007 35.7324 69.4149 37.6337L69.4102 37.629Z" fill="#FA4F96"/>
<path d="M88.158 34.8548L84.545 34.8785L84.5592 36.9315C84.5592 37.4199 84.1704 37.8134 83.6821 37.8229L77.357 37.8656C76.8686 37.8656 76.4751 37.4768 76.4656 36.9884L76.4514 34.9354L72.8384 34.9591C71.378 34.9686 70.2069 36.1587 70.2164 37.619L70.4866 75.873C70.4961 77.3333 71.6862 78.5045 73.1466 78.495L88.4662 78.3859C89.9265 78.3765 91.0977 77.1864 91.0882 75.726L90.8179 37.472C90.8084 36.0117 89.6183 34.8405 88.158 34.85V34.8548Z" fill="#D5DADD"/>
<path d="M81.5625 36.4859L78.5944 36.5049C78.381 36.5049 78.2056 36.3437 78.2056 36.1446C78.2056 35.9454 78.381 35.7795 78.5944 35.7795L81.5625 35.7605C81.7759 35.7605 81.9513 35.9217 81.9513 36.1208C81.9513 36.32 81.7759 36.4859 81.5625 36.4859Z" fill="#00144A"/>
<path d="M82.8619 36.4674C83.0564 36.4484 83.1987 36.2777 83.1844 36.0879C83.1702 35.8982 82.9947 35.7511 82.805 35.7654C82.6152 35.7796 82.4682 35.9551 82.4824 36.1448C82.4966 36.3346 82.6721 36.4816 82.8619 36.4674Z" fill="#00144A"/>
<path d="M68.5046 45.1779L68.5236 48.8288C68.5236 49.1655 68.3007 49.2129 68.3813 49.2508L68.552 49.3172C68.9076 49.3077 69.2016 49.3077 69.2158 48.881L69.2253 44.9693C69.2016 44.5805 68.8934 44.4335 68.5331 44.4667L68.4809 44.5852C68.2344 44.6279 68.5046 44.846 68.4999 45.1827L68.5046 45.1779Z" fill="#FA4F96"/>
<path d="M68.2107 45.0538L68.187 48.8043C68.187 49.0698 68.206 49.25 68.4525 49.3022C68.7181 49.3022 68.9409 49.3259 68.9409 49.0603L68.9314 44.9258C68.9314 44.6603 68.8034 44.4564 68.5379 44.4517C68.2771 44.4754 68.2107 44.7788 68.2155 45.0443L68.2107 45.0538Z" fill="#9B015D"/>
<path d="M65.6699 71.3391C65.902 71.9647 66.0887 72.9335 66.2754 74.0537C66.2754 74.0537 68.7024 74.0738 68.7932 74.0789V73.0243C71.8711 72.5652 70.983 70.6276 70.5441 69.4772C70.1101 68.3268 68.7579 66.581 68.7579 66.581L68.773 65.2035C70.5542 65.032 70.5996 63.4627 70.2464 62.6655C70.0143 62.1458 68.9749 60.8339 68.2886 60.395C67.6024 59.956 66.8304 60.2386 65.8667 60.8945C64.903 61.5504 64.8727 62.3224 65.2461 63.6898C65.6195 65.0572 66.9869 66.3943 66.9869 66.3943C66.9869 66.3943 65.9626 66.6113 65.0594 67.358C64.1562 68.1048 65.13 69.8657 65.675 71.334L65.6699 71.3391Z" fill="#FFAB92"/>
<path d="M67.8146 69.4014C67.1688 70.0472 67.7289 71.3339 68.072 71.9595L68.3545 72.3884C68.3545 72.3884 69.3788 72.6155 70.4334 71.3944C70.4334 71.3944 69.9742 69.6133 69.1517 69.2349C68.4605 68.917 68.072 69.1491 67.8146 69.4064V69.4014Z" fill="#FA4F96"/>
<path d="M67.2592 64.1432C67.2592 64.1432 67.3399 62.3066 69.6054 62.8162V62.6497C69.6054 62.6497 68.8688 61.1562 67.5468 61.363C66.2248 61.5699 66.4872 62.8213 66.6789 63.2703C66.8707 63.7194 67.0775 64.1432 67.0775 64.1432H67.2642H67.2592Z" fill="#FA4F96"/>
<path d="M96.0982 68.5681C95.3364 67.3202 94.5646 63.4411 94.1937 62.579C93.8228 61.717 92.62 62.1781 92.62 62.1781C92.62 62.1781 91.3821 63.6415 92.3694 66.0171C93.3567 68.3927 93.4369 70.5728 94.334 72.0814C94.334 72.0814 93.7226 72.3921 93.0059 73.5949C93.6274 74.2615 94.3891 75.0884 94.9104 75.7049C95.2812 76.1409 95.4306 77.5195 95.8064 77.9404C95.7513 76.6224 96.0631 73.9508 96.1483 72.7179C96.2485 71.1943 96.86 69.8161 96.0982 68.5681Z" fill="#FFAB92"/>
<path d="M93.7575 71.7299C93.527 69.9307 92.8103 68.5675 92.3642 66.0115C91.9182 63.4555 92.6148 62.1725 92.6148 62.1725C90.981 62.8842 90.8306 64.077 90.7655 66.5127C90.7053 68.9484 91.6167 70.7806 91.6167 70.7806C91.8673 71.4272 91.7245 72.5569 91.7245 72.5569C91.7245 72.5569 91.3067 75.574 91.9031 76.2105C92.4858 73.7525 93.7525 71.7299 93.7525 71.7299H93.7575Z" fill="#FF7F4C"/>
<path d="M68.7882 73.0251C68.7882 73.0251 67.4107 73.2925 64.8979 69.3518C64.8979 69.3518 65.5085 70.8706 65.786 71.693C66.0635 72.5155 66.4268 75.0332 66.4268 75.0332C66.4268 75.0332 66.771 77.5635 67.3453 79.0861C67.3453 79.0861 67.8598 75.7043 68.7983 76.0071L68.7882 73.0251Z" fill="#FF7F4C"/>
<path d="M95.2863 66.4436C95.2863 66.4436 94.279 65.777 93.8931 64.5642C93.5072 63.3513 93.3618 62.1986 93.3618 62.0583C93.3618 62.0583 93.9332 61.7726 94.1938 62.1435C94.8654 63.0957 95.4417 65.4813 95.2863 66.4436Z" fill="#FA4F96"/>
<path d="M87.3895 50.4826C87.1667 50.2835 86.8774 50.1839 86.5787 50.2028C86.28 50.2218 85.9908 50.3641 85.7964 50.5916L78.5704 58.9508L76.0243 55.7219C75.8394 55.4848 75.5738 55.3331 75.2751 55.2999C74.9764 55.2667 74.6824 55.3473 74.4454 55.5322C74.2083 55.7171 74.0566 55.9827 74.0234 56.2814C73.9902 56.5801 74.0708 56.8741 74.2605 57.1111L77.6601 61.4211C77.8782 61.6914 78.1911 61.8478 78.5183 61.8478H78.5372C78.8597 61.8478 79.1679 61.7056 79.3812 61.459L87.4986 52.0662C87.6977 51.8434 87.7973 51.5542 87.7783 51.2554C87.7593 50.9567 87.6171 50.6723 87.3943 50.4779L87.3895 50.4826Z" fill="#0899A7"/>
</g>
<defs>
<clipPath id="clip0_4520_69814">
<rect width="160" height="160" fill="white"/>
</clipPath>
</defs>
</svg>
