<svg width="160" height="77" viewBox="0 0 160 77" fill="none" xmlns="http://www.w3.org/2000/svg">
<rect y="7.5" width="160" height="69" rx="12" fill="#222F3B"/>
<g clip-path="url(#clip0_4038_89639)">
<path d="M120.335 39.9034C119.765 39.5281 119.196 39.1528 118.627 38.7756C116.137 37.1272 113.654 35.4604 111.275 33.6391C108.937 31.849 106.685 29.9118 104.703 27.6949C102.796 25.5608 101.136 23.1581 99.9934 20.4831C99.6402 19.6552 99.3397 18.8071 99.0902 17.9461C99.034 17.9976 98.9777 18.0473 98.9232 18.1006C98.9162 18.1062 98.9109 18.1135 98.9039 18.119C98.8336 18.1871 98.7651 18.257 98.6966 18.3288C98.6772 18.349 98.6597 18.3674 98.6403 18.3876C98.5683 18.4649 98.4963 18.544 98.4277 18.625C98.2942 17.6812 98.0007 17.2728 97.0431 16.9582L96.7988 16.3363C96.7584 15.8249 96.6758 15.3116 96.5581 14.8001C96.5177 14.6235 96.4702 14.4469 96.421 14.2721C96.3788 14.1213 96.3332 13.9686 96.284 13.8177C96.2804 13.8104 96.2787 13.8012 96.2752 13.7938C96.1943 13.551 96.1065 13.31 96.0098 13.0689C95.9747 12.9825 95.9396 12.896 95.9027 12.8095C95.7832 12.5281 95.6514 12.2466 95.5108 11.9706C95.5073 11.9651 95.5038 11.9577 95.5003 11.9522C95.2964 11.5567 95.0732 11.1703 94.829 10.7913C94.8272 10.7877 94.8237 10.784 94.822 10.7803C94.1419 9.72798 93.309 8.75292 92.3566 7.90848C92.3479 7.89928 92.3373 7.89192 92.3268 7.88272C92.0755 7.66011 91.8154 7.44854 91.5483 7.24617C88.584 5.00537 84.7515 4.0763 81.5798 4.83059L81.4639 4.63742C80.71 3.12515 79.2516 1.9238 77.6912 1.21918C76.1308 0.514564 74.4685 0.262519 72.8624 0.194449C70.7907 0.106141 68.7313 0.317712 66.9899 1.118C65.2503 1.91828 63.8516 3.35512 63.4123 5.23717L62.8166 5.17278C59.7802 3.9696 57.104 4.52703 55.0885 6.43852C54.0939 7.38231 53.4508 8.65909 53.1978 10.0647C53.066 10.7969 53.0379 11.5677 53.1222 12.3459C53.1855 12.9273 53.7197 14.0256 53.5527 14.5279C53.4772 14.7578 53.3014 14.9271 53.1292 15.089C52.9711 15.2398 52.8077 15.3925 52.5933 15.4661C52.3684 15.5434 52.1066 15.525 51.8518 15.4845C50.982 15.3447 50.0208 14.9473 49.3003 15.2858C48.9542 15.4477 48.7275 15.7586 48.4727 16.0309C47.4799 17.0906 45.9669 17.1826 44.816 17.9994C43.7652 18.7445 42.8971 19.727 42.3999 20.9338C41.5388 23.0275 41.7989 26.8504 44.6807 28.1585C44.3011 28.8226 44.7773 30.1748 45.069 30.9954C44.3064 30.2613 42.6494 30.0424 41.8007 30.3662C40.7094 30.7838 39.4443 31.6117 39.9275 32.8186C40.0575 33.146 40.3053 33.433 40.4863 33.7439C40.6796 34.0751 40.8078 34.4099 40.8676 34.7282C41.0802 35.8449 39.6534 36.2166 38.8872 35.2636C38.4638 34.7392 37.9349 34.2719 37.3849 33.8617C36.4219 33.1442 34.8334 33.3263 34.8106 34.3934L33.1852 34.3327C32.0975 34.3179 31.175 35.0281 30.9764 36.0326C30.7778 37.0371 31.319 38.2679 32.2697 38.9743C31.5229 38.8713 30.8323 39.3055 30.6742 39.977C30.5143 40.6485 30.9008 41.5003 31.5668 41.9455C32.0817 42.2914 32.6879 42.3852 33.2643 42.5452C34.9388 43.007 36.3956 44.0465 37.9261 44.8946C37.963 44.9148 38.0016 44.9351 38.0403 44.9572C38.1457 45.0142 38.2511 45.0712 38.3566 45.1264C38.3987 45.1485 38.4392 45.1706 38.4813 45.1908C38.6237 45.2625 38.766 45.3343 38.9083 45.4005C39.1262 45.5017 39.3494 45.5937 39.5743 45.6802C39.8484 45.785 40.1296 45.8807 40.4125 45.9672C41.5055 46.2983 42.6564 46.5007 43.7757 46.6442C43.7828 46.6442 43.7898 46.646 43.7968 46.6479C44.2291 46.7031 44.6561 46.7491 45.0743 46.7914C45.1059 46.7951 45.1358 46.7969 45.1674 46.8006C45.3625 46.819 45.5558 46.8392 45.7438 46.8576C45.7473 46.8576 45.7508 46.8576 45.7543 46.8576C46.0161 46.8834 46.2762 46.9036 46.5363 46.9238C46.6153 46.9294 46.6962 46.9349 46.7753 46.9404C46.9668 46.9533 47.1583 46.9661 47.3498 46.9772C47.4307 46.9827 47.5115 46.9864 47.5923 46.9919C47.819 47.0048 48.0439 47.0158 48.2689 47.025C48.304 47.025 48.3374 47.0287 48.3725 47.0305C48.6431 47.0416 48.9137 47.0508 49.1844 47.0581C49.2248 47.0581 49.2669 47.06 49.3074 47.0618C49.5428 47.0673 49.7765 47.0728 50.0102 47.0765C50.0577 47.0765 50.1051 47.0765 50.1526 47.0784C52.2278 47.1096 54.2925 47.0692 56.366 47.0876C57.4256 47.0968 58.4869 47.1207 59.5535 47.1796C61.4231 47.2807 63.3051 47.4868 65.1818 47.6597C66.2589 47.7591 67.3361 47.8474 68.408 47.9007C71.3671 48.0461 74.2787 47.9136 77.1939 47.8235C77.1974 47.8235 77.2009 47.8235 77.2044 47.8235C77.9776 47.7996 78.7525 47.7793 79.5292 47.7609C79.7875 47.7554 80.0458 47.7499 80.3041 47.7444C80.8348 47.7333 81.3637 47.7223 81.8944 47.7131C82.1843 47.7076 82.4742 47.7039 82.7642 47.6984C83.3282 47.6892 83.8923 47.6836 84.4581 47.6781C84.6777 47.6763 84.8956 47.6726 85.1153 47.6708L91.9314 47.6616C91.9894 47.6616 92.0474 47.6616 92.1054 47.6616C92.9804 47.6653 93.8573 47.6726 94.7341 47.6818C94.8694 47.6818 95.0065 47.6836 95.1418 47.6855C96.1188 47.6947 97.0958 47.7076 98.0745 47.7204C99.895 47.7462 101.719 47.7775 103.541 47.8124C105.214 47.8437 106.887 47.8787 108.561 47.9136C108.927 47.921 109.289 47.932 109.649 47.9412C109.863 47.9467 110.078 47.9541 110.29 47.9596C110.645 47.9706 110.997 47.9798 111.347 47.9872C111.543 47.9909 111.738 47.9946 111.933 47.9964C113.079 48.0111 114.207 47.9872 115.327 47.8731C116.001 47.8032 116.674 47.7002 117.347 47.5493C119.379 47.0912 126.735 45.6364 127.472 44.5141C128.209 43.3919 122.032 43.7006 121.735 42.1773C121.095 41.7137 121.09 40.6338 120.329 39.9034H120.335Z" fill="#101619"/>
</g>
<path d="M125.323 40.6532C125.031 40.526 124.718 40.6053 124.267 40.4599C123.141 40.0981 122.863 39.0506 121.533 39.0968C120.167 39.1431 120.319 40.5739 119.84 40.5111C118.663 40.3542 119.192 38.9101 118.356 38.0675C120.3 37.747 121.365 36.2336 122.296 34.4971C122.995 33.1935 123.066 31.2703 121.792 30.5186C121.545 30.3715 121.255 30.279 121.057 30.0692C120.828 29.8296 120.757 29.4827 120.604 29.1869C120.19 28.3839 119.182 28.0353 118.281 28.1295C117.383 28.2237 116.261 28.9589 115.469 29.3951C115.716 28.5954 116.76 25.1555 114.721 24.6334C113.393 24.0106 112.753 24.7854 112.429 24.7177C112.875 23.0391 112.95 21.2299 112.401 19.5826C111.853 17.9354 110.635 16.4732 109.014 15.8487C106.483 14.8739 103.567 16.1031 101.614 17.985C101.657 17.0911 101.452 16.7028 100.608 16.4054L100.489 15.8173C100.834 12.6384 99.5571 9.32575 97.168 7.20267C94.7789 5.07793 91.339 4.1973 88.2229 4.91271L88.1486 4.72931C87.7074 3.29685 86.5509 2.15683 85.2076 1.48934C83.8644 0.821848 82.3477 0.582279 80.8508 0.517843C78.9194 0.43358 76.9433 0.635149 75.1656 1.39351C73.3861 2.15187 71.8165 3.51329 71.0697 5.29767L70.5212 5.23654C67.8793 4.09652 65.2655 4.62357 63.0301 6.43769C61.9264 7.33319 61.097 8.5426 60.608 9.87428C60.3535 10.5699 60.19 11.2985 60.1321 12.037C60.0875 12.5889 60.3965 13.6297 60.1503 14.1039C60.038 14.3204 59.843 14.4823 59.653 14.6359C59.4779 14.778 59.2978 14.9234 59.083 14.9928C58.8583 15.0655 58.6154 15.049 58.3825 15.0093C57.5894 14.8772 56.7567 14.5005 56.0198 14.821C55.6662 14.9746 55.3969 15.2687 55.1094 15.5265C53.9876 16.531 52.5502 16.6186 51.3209 17.3935C50.1991 18.1006 49.2094 19.0308 48.527 20.1758C47.3457 22.1584 46.9128 25.7834 49.3895 27.0242C48.9153 27.6537 49.1218 28.9358 49.2507 29.714C48.6642 29.0184 47.1458 28.8102 46.2883 29.1175C45.1879 29.5124 43.8513 30.2972 44.0909 31.4422C44.1553 31.7528 44.3371 32.0237 44.4527 32.3195C44.575 32.6334 44.6361 32.9506 44.6361 33.253C44.6361 34.3104 43.2301 34.664 42.6782 33.7619C42.3742 33.2646 41.9579 32.8234 41.5134 32.4335C40.7369 31.7528 39.2103 31.9263 38.9988 32.9374L37.4804 32.8812C36.461 32.8664 35.4664 33.5405 35.1012 34.4921C34.7361 35.4438 35.0269 36.6103 35.7952 37.2794C35.1111 37.1819 34.3858 37.5933 34.1165 38.2294C33.8472 38.8672 34.0587 39.6718 34.6072 40.0948C35.0302 40.4219 35.5837 40.5111 36.0959 40.6631C37.9034 41.1935 39.2615 42.5285 40.8988 43.3694C42.7113 44.3013 45.064 44.5524 47.0681 44.7474C51.3655 45.167 55.691 44.8135 59.9967 45.053C62.7344 45.205 65.4555 45.5999 68.1949 45.7371C70.9508 45.8742 73.7116 45.7503 76.4708 45.6627C83.0185 45.4578 89.5695 45.471 96.1188 45.5636C99.3935 45.6098 102.67 45.6776 105.944 45.7486C108.799 45.8097 111.464 46.0146 114.27 45.4033C117.188 44.7672 120.144 44.2996 123.116 44.0039C124.112 43.9048 125.247 43.7478 125.804 42.9167C126.149 42.4029 126.133 41.6561 125.809 41.1357C125.639 40.8614 125.483 40.7276 125.32 40.6565L125.323 40.6532Z" fill="#D5DADD"/>
<path d="M45.747 34.476C46.6574 34.476 47.5677 34.4975 48.4616 34.6892C48.9176 34.7867 49.3505 34.9288 49.7784 35.1105C49.9535 35.1848 50.1287 35.2559 50.3088 35.3088C50.1088 35.0031 49.8527 34.7272 49.633 34.4447C49.286 34.0002 48.9886 33.5244 48.9143 32.956C48.83 32.3084 49.0415 31.6871 49.4975 31.2212C50.2592 30.443 51.4256 30.3191 52.4715 30.3026C52.6896 29.3707 53.1373 28.5017 53.7982 27.8044C54.0758 27.512 54.3765 27.3005 54.7416 27.127C55.0869 26.9618 55.4504 26.8346 55.7891 26.6562C55.8502 26.6248 55.9163 26.5669 55.9791 26.5405C55.9841 26.5207 56.0105 26.4728 56.0138 26.4579C56.0535 26.3158 56.0568 26.1704 56.0551 26.0234C56.0485 25.6235 55.989 25.227 56.0403 24.8272C56.1443 24.0143 56.7854 23.2923 57.6131 23.1733C57.9469 23.1254 58.2806 23.1618 58.616 23.1518C59.0126 23.1403 59.3414 23.0279 59.6437 22.7652C59.9593 22.491 60.2402 22.1836 60.6069 21.9722C60.9242 21.7904 61.2513 21.7062 61.6148 21.6748C61.9717 21.645 62.3318 21.6649 62.6887 21.6781C62.9894 21.6896 63.3232 21.7161 63.609 21.6533C63.6784 21.6384 63.7461 21.6169 63.7759 21.6054C63.8436 21.5773 63.8155 21.5922 63.8634 21.5475C63.913 21.5013 63.9147 21.498 63.9279 21.4765C63.9543 21.4368 63.9774 21.3939 64.0006 21.3526C64.032 21.2931 64.0749 21.1593 64.1047 21.0469C64.1377 20.9181 64.1608 20.7875 64.1807 20.6554C64.2864 19.9614 64.2088 18.4497 65.0811 18.2613C65.2017 17.7574 65.3868 17.27 65.5289 16.771C65.5669 16.6388 65.6016 16.5067 65.6297 16.3712C65.6577 16.2407 65.666 16.1894 65.6743 16.0936C65.6809 16.006 65.6825 15.9185 65.6743 15.8309C65.671 15.8227 65.6577 15.7566 65.6528 15.74C65.6495 15.7235 65.6478 15.7153 65.6478 15.7103C65.6445 15.707 65.6379 15.702 65.628 15.6888C65.6197 15.6773 65.6148 15.6707 65.6115 15.664C65.6065 15.6591 65.6032 15.6558 65.5983 15.6508C65.59 15.6475 65.5619 15.6293 65.5404 15.6178C65.5404 15.6227 65.4595 15.5946 65.4413 15.5913C65.438 15.5913 65.433 15.5913 65.4264 15.5897C65.4016 15.588 65.3752 15.5864 65.3504 15.5847C65.0316 15.5748 64.6929 15.664 64.3988 15.7797C63.7428 16.0358 63.3579 16.5893 63.0522 17.194C62.7218 17.8499 62.4425 18.5157 61.9684 19.0858C61.8478 19.2295 61.6264 19.1948 61.5008 19.0858C61.0613 18.6975 60.6549 18.2729 60.2104 17.8896C59.8436 17.574 59.4289 17.2336 58.958 17.0949C58.7664 17.0387 58.5681 17.0321 58.3715 17.0783C58.3137 17.0915 58.312 17.0949 58.279 17.1097C58.2658 17.1163 58.2542 17.1246 58.241 17.1329C58.241 17.1345 58.2377 17.1362 58.2344 17.1411C58.2278 17.1477 58.2245 17.1494 58.2245 17.1494C58.2212 17.1543 58.2195 17.1576 58.2179 17.1626C58.2146 17.1758 58.2063 17.2022 58.203 17.2188C58.203 17.2402 58.2013 17.2601 58.203 17.2816C58.203 17.2931 58.2096 17.3493 58.2096 17.3559C58.2245 17.4402 58.2493 17.5244 58.2757 17.6054C58.3385 17.7921 58.4227 17.9705 58.5086 18.1473C58.7119 18.5637 58.9382 18.9734 59.0886 19.4129C59.1514 19.5979 59.0159 19.7549 58.8573 19.8193C58.2526 20.0672 57.5669 20.1184 56.9209 20.1613C55.5628 20.2539 54.1749 20.2027 52.8647 20.5414C52.2914 20.6901 51.7561 20.9114 51.3562 21.3179C51.0142 21.6649 50.8358 22.1242 50.7747 22.6264C50.8127 22.6198 50.8523 22.6116 50.8986 22.5983C51.0952 22.5438 51.2323 22.4744 51.4157 22.3753C51.8156 22.1589 52.1906 21.8995 52.5904 21.6814C52.9671 21.4748 53.3852 21.2815 53.823 21.2782C54.3137 21.2766 54.6937 21.5459 54.9713 21.9292C55.0853 22.0862 54.9845 22.2828 54.8523 22.3819C54.3666 22.7421 53.818 23.0131 53.2943 23.3121C52.7738 23.6095 52.2468 23.9185 51.7941 24.315C51.4389 24.6273 51.0787 25.0403 51.0324 25.498C51.0027 25.797 51.1811 26.0118 51.3513 26.2398C51.571 26.5322 51.7462 26.8197 51.7792 27.1915C51.8486 27.9978 51.5925 28.8123 51.7577 29.6136C51.8057 29.8433 51.6603 30.0035 51.4389 30.0316C50.7548 30.1175 50.0609 30.2282 49.4166 30.4843C48.8664 30.7008 48.3773 31.0527 48.0072 31.5153C47.4901 32.163 47.5066 33.4203 46.4343 33.4451C46.3715 33.4451 46.3071 33.4418 46.246 33.4583C45.9866 33.526 45.6578 33.9837 45.557 34.2134C45.5339 34.2662 45.5355 34.2728 45.5339 34.3075C45.5339 34.3174 45.5339 34.324 45.5322 34.3274C45.5322 34.3257 45.5355 34.3257 45.5388 34.3307C45.5834 34.3918 45.6677 34.438 45.7487 34.4711L45.747 34.476Z" fill="#3B5B7C"/>
<path d="M66.9203 13.8711C66.9203 13.8711 66.9236 13.881 66.9269 13.8909C66.9368 13.924 66.9451 13.9587 66.9533 13.9934C66.9533 13.9967 66.9533 13.9983 66.955 14C66.955 14 66.9566 14.0016 66.9583 14.0049C66.9682 14.0231 67.0029 14.0694 66.998 14.0644C67.0046 14.0727 67.0128 14.0793 67.0194 14.0875C67.031 14.0942 67.0426 14.1008 67.0541 14.1074C67.0591 14.1107 67.0607 14.1123 67.0624 14.114C67.0673 14.114 67.0706 14.114 67.0756 14.1156C67.0921 14.1189 67.107 14.1222 67.1235 14.1272C67.1202 14.1239 67.1946 14.1338 67.2127 14.1338C67.2309 14.1338 67.297 14.1272 67.3069 14.1272C67.6952 14.1355 68.1809 13.7802 68.4849 13.5737C68.9096 13.2862 69.2945 12.9409 69.658 12.5791C69.9405 12.2982 70.2131 12.0041 70.5304 11.7629C70.8476 11.5217 71.221 11.3366 71.6175 11.3069C72.0421 11.2755 72.4634 11.4225 72.8253 11.6472C73.3755 11.9876 73.7654 12.4998 74.2677 12.8947C74.6361 13.1854 75.0888 13.4019 75.5481 13.5274C76.4337 13.7687 77.4581 13.6927 78.0776 12.9723C78.7501 12.1892 78.7055 10.9517 78.0479 10.1685C77.3044 9.28459 76.1495 8.78893 75.0525 8.51962C74.5237 8.38909 73.9868 8.30813 73.4416 8.32961C71.672 8.39735 71.0971 10.2148 69.8397 11.1218C69.7125 11.2127 69.577 11.2953 69.4267 11.3383C69.2978 11.3746 69.1623 11.3812 69.0285 11.3994C68.1925 11.5134 67.563 12.1066 67.183 12.8302C67.1632 12.8682 67.1433 12.9079 67.1252 12.9475C67.1153 12.9674 67.107 12.9872 67.0987 13.0054C67.0938 13.0153 67.0921 13.0219 67.0888 13.0285C67.0194 13.197 66.9682 13.3721 66.9335 13.5522C66.9335 13.5605 66.9269 13.5952 66.9253 13.6051C66.9253 13.6117 66.9253 13.6167 66.9236 13.6233C66.9219 13.6646 66.917 13.7059 66.917 13.7488C66.917 13.7802 66.9186 13.8116 66.9203 13.8447C66.9203 13.8562 66.9203 13.8645 66.9203 13.8695V13.8711Z" fill="#3B5B7C"/>
<path d="M102.556 27.6535C103.242 27.8848 103.794 28.3061 104.083 28.9818C104.446 29.8327 104.251 30.7249 103.572 31.3528C103.14 31.7526 102.601 32.0302 102.036 32.2169C103.111 32.5985 104.385 32.5721 105.365 32.0285C106.523 31.3858 106.897 29.95 107.855 29.0909C108.237 28.7489 108.711 28.5358 109.165 28.3077C109.615 28.083 110.069 27.855 110.48 27.5626C111.212 27.0405 111.736 26.1054 111.229 25.2446C110.946 24.7654 110.525 24.3672 110.099 24.0186C109.884 23.8435 109.657 23.6816 109.421 23.5362C109.358 23.4982 109.294 23.4602 109.23 23.4238C109.188 23.8319 109.147 24.2417 109.043 24.6349C108.793 25.5816 107.971 26.3862 107.016 26.6208C106.883 26.6539 106.675 26.682 106.589 26.7167C106.556 26.7299 106.484 26.7778 106.444 26.8175C106.366 26.8935 106.303 26.9777 106.246 27.0686C106.087 27.3181 106.1 27.6783 106.079 27.9641C106.056 28.2664 106.036 28.5787 105.93 28.8645C105.833 29.1289 105.486 29.1966 105.325 28.9438C105.074 28.544 104.709 28.1937 104.306 27.9244C103.572 27.4337 102.675 27.1231 101.798 27.2239C101.529 27.2553 101.231 27.3511 100.983 27.5015C101.507 27.4238 102.066 27.4883 102.556 27.6535Z" fill="#3B5B7C"/>
<path d="M82.5422 8.24609C82.6826 8.21966 82.8264 8.20644 82.9718 8.20809C83.9168 8.21966 84.6356 8.89211 85.0684 9.68021C85.1411 9.81239 85.2072 9.94787 85.2684 10.085C85.3724 10.3229 85.6963 10.3708 85.8631 10.1726C85.9458 10.0767 86.0383 9.98587 86.144 9.9016C86.562 9.57282 87.1023 9.4109 87.6327 9.47203C88.1366 9.53151 88.5728 9.76778 88.9594 10.0867C89.3278 10.389 89.6566 10.7426 89.8235 11.1953C89.8516 11.2729 89.873 11.3539 89.8962 11.4332C89.9243 11.5257 89.8995 11.491 89.9424 11.5522C89.9524 11.5654 89.9557 11.572 89.9573 11.5769C89.9606 11.5819 89.9656 11.5852 89.9722 11.5918C89.992 11.6116 90.0118 11.6315 90.0333 11.648C90.1044 11.7042 90.1985 11.7603 90.2828 11.7934C90.4959 11.8776 90.7619 11.838 90.985 11.8413C91.2212 11.8446 91.4641 11.8628 91.6888 11.9454C92.0341 12.0726 92.5661 12.4774 92.8321 12.7302C92.7347 12.5336 92.5116 12.0511 92.4108 11.8578C91.8573 10.7756 91.2328 9.77438 91.0841 8.55506C91.0511 8.28905 91.3832 8.16679 91.5814 8.26923C92.2027 8.59471 92.4587 9.28203 92.6372 9.91978C92.7975 10.4931 92.8999 11.116 93.2303 11.6232C93.5409 12.099 94.0383 13.0342 94.5058 13.3415C94.9453 13.6306 95.4294 13.3316 95.7615 13.7463C96.1266 14.2023 96.3117 14.7376 96.4141 15.2994C97.1675 15.0135 97.4798 13.9363 97.2188 13.2209C97.0519 12.7632 96.6636 12.4163 96.3183 12.0924C95.9185 11.7174 95.5616 11.3324 95.2328 10.8913C95.0378 10.6302 94.8924 10.3642 94.8016 10.052C94.7371 9.83221 94.6958 9.60256 94.6231 9.38612C94.5438 9.1482 94.4282 8.91524 94.3175 8.69219C93.8813 7.80991 93.1279 6.95903 92.1267 6.7492C91.6541 6.65006 91.1601 6.70294 90.6826 6.74094C90.1655 6.78059 89.6517 6.80207 89.1411 6.70294C88.6339 6.6038 88.2027 6.37415 87.821 6.02718C87.4526 5.69344 87.1486 5.29856 86.8181 4.92847C86.6546 4.74507 86.4844 4.56168 86.2944 4.40637C86.2184 4.34359 86.1341 4.29072 86.0482 4.2428C85.8136 4.11228 85.5757 3.99332 85.3328 3.88097C85.2171 3.8281 85.1114 3.96358 85.1841 4.06767C85.3857 4.35515 85.5294 4.68394 85.6137 5.03751C85.6698 5.27708 85.4567 5.51665 85.2072 5.44395C85.0717 5.4043 84.933 5.36465 84.7909 5.35308C84.6769 5.34317 84.6306 5.34647 84.5612 5.3663C84.5563 5.36961 84.5381 5.37787 84.5199 5.38613C84.5232 5.38943 84.4984 5.41587 84.5034 5.4043C84.4951 5.41917 84.4836 5.44065 84.4769 5.45222C84.472 5.47039 84.4571 5.51996 84.4538 5.53648C84.4505 5.553 84.4439 5.59761 84.4406 5.60752C84.4373 5.64057 84.434 5.67361 84.4323 5.705C84.429 5.7777 84.4274 5.85205 84.4274 5.92475C84.4274 6.09162 84.4307 6.25849 84.4175 6.42536C84.3844 6.82189 84.2556 7.25973 83.8408 7.40512C83.3832 7.56704 82.8413 7.36216 82.4629 7.69426C82.4117 7.74052 82.3621 7.78843 82.3159 7.83965C82.1589 8.01313 82.3076 8.29236 82.5389 8.2494L82.5422 8.24609Z" fill="#3B5B7C"/>
<path d="M125.812 41.1317C125.642 40.8575 125.487 40.7236 125.323 40.6526C125.112 40.5601 124.887 40.5766 124.61 40.5369C124.545 40.9863 124.573 41.444 124.727 41.867C124.856 42.2189 124.276 42.4601 124.122 42.1214C124.117 42.1098 124.111 42.0983 124.104 42.0884C124.099 42.0851 124.096 42.0834 124.091 42.0817C124.069 42.0801 124.043 42.0768 124.028 42.0735C124.132 42.0983 124.011 42.0751 123.962 42.0768C123.935 42.0768 123.845 42.0867 123.84 42.0867C123.797 42.0933 123.754 42.1016 123.711 42.1098C123.58 42.1379 123.45 42.1743 123.322 42.2139C122.779 42.3841 122.255 42.6121 121.725 42.8186C121.231 43.0119 120.724 43.2119 120.192 43.273C119.762 43.3226 119.303 43.1854 119.187 42.7178C119.124 42.4634 119.179 42.1858 119.253 41.9413C119.278 41.8587 119.306 41.7761 119.337 41.6935C119.441 41.4143 119.289 41.1069 119.004 41.0243C119.002 41.0243 119 41.0243 118.999 41.0243C118.698 40.9384 118.44 40.8575 118.215 40.6295C118.035 40.4461 117.887 40.1867 117.67 40.0446C117.493 39.9273 117.244 39.8166 117.032 39.7786C116.904 39.7554 116.831 39.7736 116.686 39.8083C116.504 39.8529 116.324 39.8959 116.137 39.9157C115.651 39.9686 115.232 39.8628 114.832 39.582C114.591 39.4134 114.268 39.0681 113.945 39.1078C113.793 39.1276 113.611 39.2482 113.517 39.3358C113.434 39.4118 113.408 39.4597 113.383 39.534C113.378 39.5522 113.373 39.5704 113.37 39.5886C113.37 39.5886 113.37 39.5886 113.37 39.5902C113.368 39.62 113.37 39.6497 113.37 39.6794C113.37 39.6844 113.375 39.7191 113.376 39.7323C113.381 39.7571 113.386 39.7819 113.393 39.805C113.426 39.9289 113.451 39.9785 113.525 40.1074C113.68 40.3783 113.882 40.603 114.106 40.8261C114.506 41.2243 114.906 41.5464 115.375 41.8422C115.598 41.9826 115.579 42.2684 115.375 42.4122C115.24 42.508 115.101 42.6005 114.961 42.6914C114.602 42.9244 114.24 43.1524 113.888 43.3952C113.738 43.4977 113.586 43.6018 113.444 43.7158C113.381 43.7653 113.318 43.8182 113.259 43.8744C113.236 43.8959 113.214 43.9173 113.193 43.9405C113.186 43.9471 113.158 43.9752 113.151 43.9834C113.151 43.9834 113.151 43.9834 113.158 43.9768C113.176 43.9587 113.143 44.0066 113.151 43.9834C113.132 44.0297 113.115 44.0743 113.075 44.114C112.99 44.1999 112.856 44.228 112.738 44.2461C112.557 44.2759 112.37 44.2759 112.188 44.2379C111.549 44.1057 111.007 43.7323 110.396 43.5274C110.13 43.4382 109.867 43.3407 109.591 43.2846C109.451 43.2565 109.234 43.2449 109.147 43.2614C108.892 43.311 108.667 43.4944 108.416 43.6613C107.987 43.9471 107.534 44.1437 107.018 44.2081C106.439 44.2808 105.849 44.1767 105.292 44.0132C104.729 43.848 104.185 43.6199 103.625 43.4415C102.997 43.2416 102.343 43.1639 101.688 43.1028C101.021 43.0384 100.353 42.9938 99.6876 42.9062C99.3787 42.8649 99.0813 42.7691 98.7707 42.7311C98.503 42.6964 98.2304 42.6881 97.9611 42.6964C97.3927 42.7145 96.831 42.8137 96.2676 42.8847C95.681 42.9591 95.0978 42.8418 94.5228 42.736C94.0421 42.6485 93.5249 42.5791 93.0375 42.6452C92.6575 42.6964 92.2907 42.8352 91.957 43.0218C91.4861 43.2879 91.0466 43.6712 90.7509 44.1387C89.0606 44.304 85.7595 44.5188 83.9157 43.9173C83.8645 43.5093 83.7604 43.1127 83.5588 42.7691C83.42 42.5328 83.2383 42.3444 82.9739 42.2387C82.6501 42.1065 81.2242 42.8137 80.8112 42.9343C80.3106 43.0797 79.8628 42.9591 79.4531 42.6485C79.0698 42.3577 78.7509 42.009 78.3411 41.753C77.9479 41.5084 77.5762 41.4143 77.1202 41.3696C76.3188 41.292 75.4151 41.1301 74.9293 40.4262C74.7327 40.1421 74.5659 39.848 74.3329 39.5886C73.9711 39.1854 73.5762 38.8434 73.0937 38.5906C72.2429 38.1429 71.2565 37.9298 70.3246 37.7166C69.0871 37.4324 67.0301 36.9103 67.4762 35.2053C67.5225 35.0318 67.7125 34.9294 67.8827 34.974C68.0925 35.0301 68.3337 34.9624 68.565 34.9145C68.6774 34.2685 68.7336 33.4721 68.266 32.9731C67.8249 32.5006 67.1309 32.3602 66.513 32.3073C65.8389 32.2495 65.1632 32.2825 64.4858 32.3106C64.0083 32.3304 63.8232 32.9417 64.2115 33.221C64.342 33.3151 64.4511 33.4044 64.5221 33.482C64.8575 33.8488 65.2028 34.2486 65.3515 34.7327C65.596 35.5241 65.026 36.0958 64.3602 36.413C63.9174 36.6245 63.4316 36.7319 62.9988 36.9583C62.556 37.1896 62.171 37.5084 61.7761 37.8091C61.3548 38.128 60.9021 38.4271 60.3817 38.5559C59.7638 38.7096 59.1376 38.6253 58.5196 38.5279C58.2437 38.4849 57.8488 38.4585 57.4441 38.4419C56.841 38.4188 56.5337 39.1573 56.9732 39.5704C57.3251 39.9025 57.6506 40.2148 57.7894 40.3684C57.8736 40.4609 57.9579 40.5584 58.0388 40.6609C58.2074 40.874 58.0124 41.1813 57.7481 41.1185C57.3945 41.0359 57.0409 40.95 56.6873 40.8558C56.3139 40.7567 55.8893 40.7203 55.5622 40.9269C55.3573 41.0557 55.1574 41.2821 54.9228 41.2176C54.865 41.2011 54.8137 41.1681 54.7625 41.135C54.4536 40.9318 54.1429 40.7286 53.834 40.527C53.1632 40.0875 52.4924 39.6464 51.8662 39.1441C51.2433 38.6435 50.7658 37.9265 49.9463 37.7414C49.8373 37.7166 49.7233 37.7133 49.6109 37.7282C49.3962 37.7579 49.1847 37.8091 48.9682 37.8323C48.7848 37.8521 48.6048 37.8306 48.4263 37.8108C47.9786 37.7612 47.549 37.5894 47.0946 37.5877C46.3198 37.5828 45.6077 37.9463 45.1913 38.5956C44.8146 39.1821 44.6015 39.8595 44.1868 40.4246C43.9703 40.7187 43.7109 41.021 43.3805 41.1929C43.1227 41.3267 42.8518 41.363 42.5742 41.4209C42.2702 41.3895 41.9662 41.368 41.6622 41.3663C41.2244 41.3647 40.7849 41.3994 40.3636 41.5266C40.0182 41.6307 39.5408 41.8108 39.3772 42.1627C39.3392 42.2437 39.3293 42.3279 39.3359 42.4122C39.8448 42.7525 40.3569 43.0863 40.8989 43.3639C41.3119 43.5753 41.7547 43.7521 42.2124 43.9008C43.1806 44.2147 44.2264 44.4064 45.2524 44.5419C45.2607 44.5419 45.2673 44.5435 45.2756 44.5452C45.6704 44.5964 46.062 44.641 46.4453 44.6807C46.4784 44.684 46.5098 44.6873 46.5412 44.6906C46.7179 44.7088 46.8947 44.7269 47.0666 44.7435C47.3111 44.7682 47.5556 44.7881 47.8001 44.8079C47.8728 44.8128 47.9455 44.8178 48.0182 44.8244C48.1967 44.8376 48.3767 44.8492 48.5568 44.8608C48.6295 44.8657 48.7039 44.869 48.7766 44.874C48.9881 44.8855 49.2012 44.8971 49.4143 44.9054C49.4457 44.9054 49.4755 44.9087 49.5069 44.9103C49.7596 44.9202 50.0141 44.9285 50.2685 44.9368C50.3049 44.9368 50.3429 44.9384 50.3792 44.9401C50.6006 44.9467 50.822 44.95 51.0434 44.9549C51.0864 44.9549 51.1293 44.9549 51.1723 44.9566C53.1202 44.9863 55.0698 44.9483 57.0178 44.9648C58.0108 44.9731 59.0054 44.9962 59.9967 45.0508C62.7344 45.2028 65.4556 45.5976 68.195 45.7348C70.9508 45.8719 73.7117 45.748 76.4708 45.6604C78.9607 45.5828 81.4522 45.5365 83.9438 45.5134L90.4122 45.5051C92.3155 45.515 94.2172 45.5349 96.1189 45.5613C99.3935 45.6076 102.67 45.6753 105.945 45.7463C108.8 45.8075 111.465 46.0123 114.272 45.401C117.189 44.7649 120.145 44.2974 123.118 44.0016C124.114 43.9025 125.249 43.7455 125.806 42.9145C126.151 42.4006 126.134 41.6538 125.811 41.1334L125.812 41.1317Z" fill="#3B5B7C"/>
<g clip-path="url(#clip1_4038_89639)">
<path d="M86.8098 76.488C86.8098 76.488 81.6812 58.1985 80.7999 53.5883C79.9186 48.978 79.331 49.0396 79.494 47.888C79.6552 46.7363 80.0959 45.9245 80.112 45.0651C80.1281 44.2058 80.2482 40.4549 80.5796 39.0091C80.5796 39.0091 80.6817 38.4967 80.2213 37.7219C79.7788 36.9805 79.4116 36.1775 79.0551 35.3886C78.8778 34.9959 78.6772 34.5926 78.55 34.177C78.3744 33.6029 78.4389 32.9707 78.2042 32.4125C77.914 31.7257 76.9037 31.0513 76.8948 30.2465C76.8948 30.2166 76.893 30.1549 76.8894 30.0722C76.884 29.9665 76.8769 29.8256 76.8643 29.6671C76.8339 29.2322 76.7694 28.6053 76.6261 28.2355C76.6153 28.2091 76.6064 28.1844 76.5956 28.1597C76.5938 28.1562 76.592 28.1527 76.5903 28.1492C76.5365 28.0347 76.4738 27.9572 76.4004 27.9432C76.103 27.885 75.5549 27.8991 75.2055 28.6176L75.4832 21.6389C75.5351 20.3498 74.7577 19.2439 73.7474 19.17L73.3157 19.1383C73.3157 19.1383 73.3085 19.1383 73.3067 19.1383L66.3796 18.6258C65.2994 18.5466 64.3859 19.4729 64.3375 20.695L64.1566 25.2577C63.8789 25.1555 63.578 25.1027 63.2985 25.189C62.8364 25.3334 62.5551 25.8106 62.4763 26.3248C62.3545 26.9535 62.6554 27.4606 62.7235 27.5328C62.7253 27.5364 62.7325 27.5434 62.7378 27.5487C62.8578 27.7213 63.0047 27.8727 63.1498 28.0242C63.1588 28.0347 63.166 28.0435 63.1749 28.0541C63.2018 28.0858 63.2287 28.1175 63.2573 28.1509C63.2699 28.165 63.2824 28.1791 63.2949 28.1932C63.32 28.2214 63.3451 28.2513 63.3702 28.2813C63.4042 28.3218 63.4382 28.3605 63.4741 28.401C63.483 28.4098 63.4902 28.4204 63.4991 28.4292C63.569 28.5119 63.6425 28.5947 63.7159 28.681C63.7858 28.762 63.8574 28.8448 63.9273 28.9258C63.9542 28.9575 63.981 28.9874 64.0079 29.0191L63.9524 30.4208C63.9524 30.4208 63.9488 30.4191 63.9452 30.4173H63.9416C63.9344 30.4138 63.9273 30.4085 63.9201 30.405C63.9076 30.3997 63.8968 30.398 63.8843 30.3927C63.8646 30.3856 63.8449 30.3768 63.8252 30.3733C63.3146 30.2606 61.9281 30.6005 62.032 32.3931C62.032 32.3931 62.032 32.3931 62.032 32.3949C62.032 32.3949 62.032 32.3984 62.032 32.4002V32.4037C62.032 32.4037 62.032 32.4072 62.032 32.409C62.032 32.4107 62.032 32.4143 62.032 32.416C62.032 32.4178 62.032 32.4195 62.032 32.4213C62.032 32.4248 62.032 32.4284 62.032 32.4319C62.032 32.4336 62.032 32.4354 62.032 32.4389C62.032 32.4442 62.032 32.4477 62.032 32.453C62.032 32.4548 62.032 32.4565 62.032 32.4601C62.032 32.4653 62.032 32.4724 62.0356 32.4777C62.0356 32.4794 62.0356 32.4812 62.0356 32.4829C62.0356 32.49 62.0392 32.497 62.041 32.5041C62.041 32.5041 62.041 32.5076 62.041 32.5094C62.0428 32.5182 62.0446 32.527 62.0482 32.5358C62.0661 32.5992 62.1001 32.6837 62.161 32.7876C62.161 32.7876 62.161 32.7876 62.161 32.7894C62.17 32.8052 62.1807 32.8228 62.1915 32.8404C62.1915 32.8404 62.1933 32.8439 62.1951 32.8457C62.2058 32.8633 62.2183 32.8809 62.2291 32.8985C62.2291 32.9003 62.2327 32.9021 62.2327 32.9038C62.2452 32.9214 62.2578 32.9408 62.2721 32.9602L62.2757 32.9637C62.29 32.9831 62.3061 33.0042 62.3222 33.0236C62.3724 33.087 62.4315 33.1556 62.4996 33.2278C62.4996 33.2278 62.5014 33.2296 62.5032 33.2314C62.5963 33.33 62.711 33.4374 62.8435 33.5519C62.8453 33.5536 62.8489 33.5554 62.8507 33.5589C62.8811 33.5853 62.9134 33.6117 62.9456 33.6381C62.951 33.6417 62.9564 33.647 62.9617 33.6505C62.994 33.6769 63.0262 33.7015 63.0603 33.728C63.0674 33.7332 63.0746 33.7385 63.0818 33.7456C63.1158 33.772 63.1498 33.7966 63.1839 33.8248C63.1928 33.8319 63.2018 33.8371 63.209 33.8442C63.2448 33.8706 63.2806 33.897 63.3182 33.9252C63.3272 33.9305 63.3361 33.9375 63.3451 33.9446C63.3845 33.9727 63.4239 34.0009 63.4651 34.0291C63.4723 34.0344 63.4812 34.0396 63.4884 34.0449C63.5314 34.0749 63.5762 34.1048 63.6228 34.1365C63.6765 34.1717 63.732 34.2087 63.7911 34.2457L63.7696 34.781C63.7069 34.7546 63.6407 34.7282 63.5708 34.7035H63.5672C63.3738 34.6331 63.1588 34.5732 62.985 34.5662C62.917 34.5644 62.8561 34.5697 62.8041 34.5838C62.7772 34.5908 62.754 34.6014 62.7325 34.6155C62.7253 34.6208 62.7145 34.6261 62.7038 34.6331C62.7002 34.6349 62.6984 34.6366 62.6948 34.6384C62.6859 34.6454 62.6751 34.6507 62.6644 34.6595C62.6626 34.6595 62.6608 34.663 62.6572 34.6648C62.6286 34.6842 62.5963 34.7071 62.5587 34.7352C62.5587 34.7352 62.5587 34.7352 62.5569 34.7352C62.5014 34.7775 62.4387 34.8286 62.3724 34.8884C62.3509 34.9078 62.3294 34.9289 62.3061 34.9501C61.9461 35.3005 61.5573 35.8957 61.8708 36.6758C62.2022 37.5035 63.1015 38.5337 63.603 39.069L63.5744 39.7787C63.526 41.0008 64.3626 42.0574 65.4428 42.1366L65.5252 42.1419C65.552 42.1877 65.5771 42.2352 65.604 42.281C65.6165 42.3039 65.6291 42.325 65.6416 42.3479C65.672 42.4025 65.7025 42.4554 65.7329 42.5099C65.7455 42.5328 65.7598 42.5575 65.7724 42.5804C65.8046 42.6385 65.8368 42.6966 65.8691 42.753C65.878 42.7706 65.8888 42.7882 65.8978 42.8058C65.9819 42.9572 66.0643 43.1069 66.145 43.2531C66.1539 43.2707 66.1629 43.2865 66.1736 43.3041C66.2041 43.3587 66.2345 43.4151 66.2632 43.4697C66.2739 43.4908 66.2847 43.5102 66.2972 43.5313C66.3241 43.5824 66.351 43.6317 66.3778 43.681C66.3886 43.7021 66.4011 43.7233 66.4119 43.7444C66.4369 43.7919 66.4638 43.8395 66.4889 43.887C66.4996 43.9064 66.5104 43.9258 66.5193 43.9451C66.5498 44.0015 66.5785 44.0561 66.6053 44.1089C66.6089 44.1177 66.6143 44.1265 66.6179 44.1336C66.6501 44.197 66.6824 44.2568 66.7128 44.3167C66.7182 44.3273 66.7236 44.3361 66.7271 44.3466C66.7504 44.3924 66.7737 44.4382 66.7952 44.4822C66.8042 44.4999 66.8131 44.5175 66.8221 44.5351C66.84 44.5703 66.8561 44.6055 66.8722 44.6372C66.8812 44.6548 66.8902 44.6724 66.8973 44.69C66.9116 44.7217 66.926 44.7517 66.9403 44.7798C66.9475 44.7957 66.9546 44.8115 66.9618 44.8274C66.9761 44.8573 66.9887 44.8855 66.9994 44.9119C67.0048 44.9242 67.0102 44.9366 67.0155 44.9489C67.0317 44.9859 67.046 45.0211 67.0585 45.0546C67.4562 46.0742 68.2713 48.0165 70.0142 50.0064C70.1432 50.1526 70.2758 50.3005 70.4137 50.4467C70.4137 50.4467 70.6645 50.8763 70.9654 51.4117C70.9762 51.4311 70.9887 51.4522 70.9995 51.4716C71.0299 51.5261 71.0622 51.5825 71.0926 51.6389C71.1088 51.667 71.1249 51.697 71.141 51.7251C71.1679 51.7744 71.1947 51.822 71.2234 51.8713C71.2431 51.9048 71.261 51.94 71.2807 51.9734C71.3058 52.0175 71.3309 52.0632 71.3542 52.1073C71.3739 52.1443 71.3936 52.1812 71.4151 52.2165C71.4384 52.257 71.4599 52.2992 71.4831 52.3397C71.5046 52.3785 71.5243 52.4154 71.544 52.4542C71.5638 52.4912 71.5852 52.5299 71.605 52.5669C71.6247 52.6056 71.6444 52.6426 71.6641 52.6796C71.682 52.713 71.6999 52.7465 71.716 52.7782C71.716 52.7782 71.716 52.7782 71.716 52.78C71.7375 52.8205 71.7554 52.8574 71.7751 52.8944C71.7877 52.9208 71.8038 52.949 71.8163 52.9737C71.8468 53.0335 71.8754 53.0917 71.8987 53.1427C71.9041 53.1551 71.9095 53.1691 71.9149 53.1868C71.9166 53.1938 71.9184 53.2008 71.922 53.2096C71.9256 53.222 71.9292 53.2325 71.9328 53.2466C71.9364 53.2572 71.9381 53.2695 71.9417 53.2818C71.9453 53.2942 71.9471 53.3065 71.9507 53.3206C71.9543 53.3347 71.9561 53.3523 71.9596 53.3681C71.9614 53.3805 71.965 53.3945 71.9668 53.4086C71.9704 53.428 71.974 53.4491 71.9776 53.4703C71.9793 53.4826 71.9811 53.4949 71.9829 53.509C71.9865 53.5337 71.9901 53.5583 71.9937 53.5847C71.9937 53.5971 71.9973 53.6076 71.9991 53.6199C72.0026 53.6499 72.008 53.6798 72.0116 53.7115C72.0116 53.7203 72.0134 53.7274 72.0152 53.7362C72.0205 53.7732 72.0241 53.8101 72.0295 53.8506C72.0402 53.9387 72.051 54.0338 72.0617 54.1342C72.0689 54.1976 72.0761 54.2645 72.0815 54.3331C72.0868 54.3965 72.094 54.4617 72.0994 54.5304C72.1119 54.6607 72.1244 54.798 72.1352 54.9424C72.1352 54.953 72.1352 54.9636 72.137 54.9741C72.1621 55.2665 72.1853 55.5834 72.2104 55.9233C72.2176 56.0166 72.223 56.11 72.2301 56.2051C72.2355 56.2949 72.2427 56.3864 72.248 56.4798C72.3287 57.686 72.4075 59.0931 72.4791 60.4825C72.4845 60.5899 72.4899 60.6956 72.4952 60.803C72.6618 64.1083 72.7819 67.2288 72.7819 67.2288L72.9968 73.3623L73.1061 76.4897H86.8027L86.8098 76.488ZM75.6068 35.3181C75.6283 35.3815 75.648 35.4414 75.6677 35.5013C75.6892 35.5682 75.7107 35.6298 75.7304 35.6914C75.7394 35.7196 75.7483 35.7478 75.7591 35.776C75.7734 35.82 75.7877 35.864 75.8021 35.9063C75.8092 35.9292 75.8182 35.9521 75.8253 35.975C75.8451 36.0331 75.863 36.0894 75.8809 36.144C75.8863 36.1634 75.8916 36.181 75.8988 36.1986C75.9113 36.2374 75.9239 36.2743 75.9346 36.3113C75.94 36.3307 75.9472 36.3483 75.9525 36.3659C75.9669 36.4134 75.9812 36.4592 75.9937 36.5033C75.9973 36.5138 76.0009 36.5244 76.0027 36.5367C76.0134 36.5702 76.0224 36.6036 76.0314 36.6336C76.0349 36.6477 76.0403 36.6635 76.0439 36.6776C76.0528 36.7111 76.0618 36.7428 76.069 36.7727C76.0708 36.7815 76.0726 36.7903 76.0761 36.7973C76.0851 36.829 76.0905 36.8607 76.0976 36.8907C76.0994 36.9012 76.103 36.9136 76.1048 36.9241C76.1102 36.947 76.1138 36.9699 76.1173 36.991C76.1173 36.9999 76.1209 37.0069 76.1209 37.0157C76.146 37.1742 76.1424 37.2816 76.112 37.3697C76.0349 37.5898 75.6158 35.385 74.996 33.8741L75.0246 33.1609C75.1285 33.7438 75.2754 34.3214 75.4707 34.9078C75.519 35.0522 75.5638 35.1878 75.6068 35.3146C75.6068 35.3164 75.6068 35.3181 75.6086 35.3199L75.6068 35.3181Z" fill="#101619"/>
</g>
<path d="M82.3021 76.486H97.6968C97.6968 76.486 92.2691 57.4334 91.3627 52.629C90.4563 47.8264 89.7953 47.8909 89.9995 46.6907C90.2019 45.4923 90.7124 44.645 90.7465 43.7493C90.7805 42.8537 90.9829 38.945 91.3824 37.4402C91.3824 37.4402 91.5078 36.9064 91.0026 36.1003C90.5207 35.3282 90.1213 34.4917 89.7343 33.6695C89.5427 33.261 89.3223 32.8401 89.188 32.4084C89.0017 31.8101 89.0859 31.1508 88.8315 30.5705C88.5162 29.8539 87.3949 29.1517 87.4002 28.3134C87.4002 28.0662 87.3465 25.9972 86.8879 25.913C86.4293 25.8288 85.4262 25.8879 85.1861 27.8243C84.9461 29.7608 85.1163 31.4213 85.7146 33.1643C86.3129 34.9073 86.5064 35.4357 86.3899 35.7295C86.2735 36.0233 85.5928 32.1379 84.5699 30.9878C83.8462 30.1746 82.8896 29.5118 82.037 28.8454C80.5967 27.7204 79.1225 26.6367 77.607 25.6156C76.8761 25.123 76.1345 24.6465 75.3732 24.2022C74.6835 23.7992 73.9885 23.4087 73.2361 23.1328C72.9083 23.0128 72.5465 22.9429 72.2097 23.0397C71.3301 23.294 71.0023 24.5354 71.3982 25.2824C71.5648 25.5977 71.8335 25.8377 72.0843 26.0867C72.3548 26.3554 72.5912 26.6546 72.8474 26.9358C73.22 27.346 73.5926 27.7545 73.9652 28.1647L73.7861 29.6515C73.7861 29.6515 73.2773 28.5624 72.7059 28.4441C72.1344 28.3259 70.5688 28.6806 70.6548 30.549C70.6548 30.549 70.5169 31.33 73.0265 32.7165L72.9477 33.193C72.9477 33.193 71.7941 32.6377 71.409 32.8598C71.1653 33.0013 69.8935 33.7859 70.4022 35.0094C70.911 36.2329 72.6933 37.8827 72.6933 37.8827C72.6933 37.8827 75.6258 42.6029 76.0861 43.7422C76.5465 44.8815 77.5246 47.1314 79.7584 49.3598C79.7584 49.3598 80.9711 51.3482 81.376 52.1668C81.7808 52.9855 82.1122 66.8361 82.1122 66.8361L82.3057 76.4842L82.3021 76.486Z" fill="#C35500"/>
<path d="M88.4551 74.4492C86.3879 70.7859 86.3002 66.4939 86.0297 62.4096C85.8846 60.2081 85.512 58.028 85.3902 55.8247C85.2737 53.7413 85.2701 51.4341 86.2554 49.5353C86.3378 49.3741 86.6154 49.4063 86.6513 49.5872C86.8591 50.6405 86.9665 51.7118 87.2549 52.7489C87.4968 53.6195 87.8962 54.6531 88.7847 55.0239C89.1555 53.8918 89.1233 52.7525 88.8904 51.5846C88.774 51.0024 88.6307 50.4274 88.5107 49.847C88.4498 49.5514 88.3691 49.2415 88.3477 48.9388C88.3279 48.6575 88.3781 48.3602 88.4175 48.0825C88.4945 47.5361 88.6325 47.0005 88.7041 46.4542C88.7668 45.9759 88.7203 45.5227 88.5769 45.0623C88.267 44.0627 87.6454 43.1922 87.323 42.1944C87.0167 41.2432 86.868 40.3171 86.9988 39.3193C87.1152 38.42 87.3911 37.553 87.5433 36.6591C87.7296 35.5628 87.5523 34.5185 87.2442 33.4616C86.9468 32.4388 86.5599 31.4428 86.3324 30.4002C86.0816 29.252 85.8613 28.0912 85.6374 26.9376C85.6123 26.8139 85.5908 26.6886 85.5675 26.5632C85.3991 26.8516 85.2612 27.2582 85.1913 27.8261C84.9513 29.7625 85.1215 31.4231 85.7198 33.166C86.1353 34.3752 86.3557 35.0004 86.413 35.3676C86.5581 35.3963 86.6745 35.5915 86.542 35.7384C86.4632 35.8244 86.3772 35.9014 86.2858 35.9749C85.7932 36.3654 85.1877 36.6609 84.5715 36.7863C83.975 36.9081 83.1922 36.858 82.9127 36.2167C82.7408 35.8208 82.8769 35.4052 82.9736 35.0093C83.0542 34.6833 83.1241 34.3035 83.0471 33.9703C82.9718 33.6425 82.7605 33.3702 82.576 33.0962C82.318 32.7146 82.0565 32.3366 81.7752 31.9712C80.7004 30.5793 79.4823 29.2878 78.223 28.0607C77.0837 26.9501 75.8728 25.8914 74.506 25.0656C73.5512 24.4888 72.5086 24.0302 71.4123 23.8457C70.9896 24.6679 71.441 25.397 71.5288 25.4848C71.6434 25.5994 73.974 28.1682 73.974 28.1682L73.7948 29.655C73.7948 29.655 73.2861 28.5659 72.7146 28.4477C72.1432 28.3294 70.5776 28.6841 70.6636 30.5525C70.6636 30.5525 70.5256 31.3335 73.0353 32.72L72.9565 33.1965C72.9565 33.1965 71.8029 32.6412 71.4177 32.8633C71.3353 32.9099 71.1383 33.0299 70.9323 33.2144C71.0093 33.2395 71.3479 33.4025 71.8423 33.4061C73.2503 33.415 71.2834 35.3855 71.9139 35.5987C72.1862 35.69 72.4728 35.742 72.7254 35.8835C73.0048 36.0393 73.1553 36.3027 73.2986 36.5785C73.4527 36.8741 73.5852 37.1804 73.7536 37.4706C73.9274 37.7698 74.1567 38.0367 74.3501 38.3251C74.7621 38.9359 75.1652 39.6113 75.7653 40.0627C75.9444 40.197 76.1594 40.2776 76.3296 40.4245C76.5427 40.6073 76.6144 40.8885 76.6735 41.15C76.7649 41.5495 76.7846 41.9597 76.8562 42.3628C76.935 42.7963 77.1088 43.176 77.3094 43.5648C77.7089 44.3458 78.1657 45.0963 78.6153 45.8487C79.0506 46.5778 79.5146 47.2997 79.8101 48.1004C80.077 48.8223 80.2186 49.5747 80.3457 50.3324C80.7165 50.9576 81.1662 51.7351 81.3829 52.1739C81.786 52.9926 82.1192 66.8432 82.1192 66.8432L82.3126 76.4913H89.9097C89.3669 75.8644 88.8797 75.1872 88.4659 74.4546L88.4551 74.4492Z" fill="#8D2A00"/>
<path d="M73.6177 27.7831C73.8792 27.9067 74.1497 28.0052 74.4345 28.0751C74.9504 28.2022 75.4681 28.2273 75.9966 28.2219C76.5824 28.2148 77.1681 28.1736 77.7467 28.0965C77.8918 28.0768 78.0369 28.0536 78.182 28.0303C77.0517 26.9304 75.8497 25.8842 74.4972 25.0656C73.5425 24.4888 72.4999 24.0302 71.4036 23.8457C70.9808 24.6679 71.4323 25.397 71.52 25.4848C71.606 25.5726 72.9639 27.0647 73.6177 27.7849V27.7831Z" fill="#450B00"/>
<path d="M78.5564 28.3978C78.2536 28.4515 77.9509 28.5035 77.6464 28.5411C77.0194 28.6199 76.3888 28.6575 75.7583 28.654C75.1313 28.6504 74.5187 28.5626 73.9401 28.3691L73.786 29.6499C73.786 29.6499 73.2773 28.5608 72.7059 28.4426C72.1344 28.3244 70.5688 28.679 70.6548 30.5474C70.6548 30.5474 70.5419 31.1959 72.421 32.362C72.9262 32.4659 73.4188 32.6361 73.915 32.7812C74.5151 32.9568 75.1242 33.0768 75.7511 32.9836C76.3351 32.8959 76.8994 32.6898 77.4332 32.4409C78.0566 32.1507 78.6549 31.8049 79.2299 31.4216C79.1314 30.5528 79.0472 29.6804 78.9737 28.808C78.8358 28.6683 78.6961 28.5322 78.5582 28.3942L78.5564 28.3978Z" fill="#8D2A00"/>
<path d="M72.717 35.8825C72.8925 35.9811 73.0179 36.1208 73.1218 36.2802C73.4926 36.3125 73.8652 36.3286 74.2378 36.3268C75.4613 36.3196 76.726 36.1226 77.8133 35.5368C78.34 35.2538 78.8272 34.9027 79.2858 34.5211C79.3915 34.4333 79.4954 34.3438 79.5993 34.2524C79.5814 34.1503 79.5652 34.05 79.5509 33.9479C79.4542 33.2672 79.3664 32.5847 79.2858 31.9004C79.2374 31.9326 79.1891 31.9649 79.1389 31.9971C78.091 32.6599 76.9141 33.2869 75.6637 33.432C74.9812 33.5108 74.3148 33.3585 73.6646 33.1633C73.4389 33.0952 73.215 33.0236 72.9875 32.9555L72.948 33.1955C72.948 33.1955 71.7944 32.6402 71.4093 32.8623C71.3269 32.9089 71.1298 33.0289 70.9238 33.2134C71.0009 33.2385 72.0828 33.4087 72.0828 33.5144C72.0828 33.7078 71.429 33.5986 71.4254 33.792C71.4182 34.1414 71.0564 34.7003 71.2284 35.0119C71.3878 35.2986 71.5956 35.492 71.9073 35.5977C72.1796 35.6891 72.4662 35.741 72.7188 35.8825H72.717Z" fill="#8D2A00"/>
<path d="M84.6094 43.6701C84.4912 43.0932 80.5717 43.4479 80.7956 40.7054C80.9622 38.6883 80.1149 36.7322 79.6904 34.7402C79.6098 34.8101 79.5274 34.88 79.445 34.9462C78.9506 35.3439 78.4293 35.7129 77.8614 35.9978C77.2792 36.2897 76.6559 36.4778 76.0146 36.5961C75.1386 36.7573 74.2501 36.7877 73.3652 36.7286C73.4888 36.9758 73.6034 37.2266 73.7431 37.4667C73.9169 37.7658 74.1462 38.0327 74.3397 38.3211C74.4382 38.4662 74.5349 38.6149 74.6352 38.7636C74.0566 38.5486 73.4691 38.3641 72.8779 38.185C73.53 39.2437 75.6939 42.778 76.0826 43.7417C76.543 44.881 77.5211 47.1309 79.7549 49.3593C79.7549 49.3593 80.0343 49.8179 80.3693 50.384C80.7329 50.9984 81.1611 51.74 81.3725 52.1664C81.4172 52.2577 81.462 52.5157 81.505 52.899C81.6662 51.1435 81.9833 49.397 81.9242 47.6325C81.8866 46.4628 81.7056 45.3055 81.4871 44.1573C81.3778 43.5841 84.7258 44.2397 84.6094 43.6683V43.6701Z" fill="#450B00"/>
<path d="M84.189 38.9396L85.3767 19.3048C85.4573 17.9613 84.6046 16.8112 83.4707 16.7324L84.0636 16.7736C85.1975 16.8524 86.0502 18.0025 85.9696 19.346L84.782 38.9808C84.7013 40.3243 83.7161 41.349 82.5822 41.2702L81.9893 41.229C83.1232 41.3078 84.1084 40.2814 84.189 38.9396Z" fill="#9B015D"/>
<path d="M82.0883 41.2347L74.3121 40.7009C73.0994 40.6185 72.1804 39.5168 72.2574 38.2432L73.4594 18.3593C73.5365 17.0857 74.5808 16.1201 75.7935 16.2043L83.5697 16.7382C84.7825 16.8206 85.7014 17.9222 85.6244 19.1959L84.4224 39.0797C84.3454 40.3534 83.301 41.3189 82.0883 41.2347Z" fill="#FA4F96"/>
<path d="M81.7263 40.4668L75.1378 40.0135C74.0451 39.9383 73.2175 38.9334 73.2873 37.769L74.4409 18.7092C74.5108 17.5448 75.4548 16.6617 76.5458 16.7369L83.1343 17.1901C84.227 17.2653 85.0546 18.2703 84.9848 19.4346L83.8311 38.4945C83.7613 39.6589 82.8172 40.542 81.7263 40.4668Z" fill="#D5DADD"/>
<mask id="mask0_4038_89639" style="mask-type:alpha" maskUnits="userSpaceOnUse" x="73" y="16" width="12" height="25">
<path d="M81.7263 40.4668L75.1378 40.0135C74.0451 39.9383 73.2175 38.9334 73.2873 37.769L74.4409 18.7092C74.5108 17.5448 75.4548 16.6617 76.5458 16.7369L83.1343 17.1901C84.227 17.2653 85.0546 18.2703 84.9848 19.4346L83.8311 38.4945C83.7613 39.6589 82.8172 40.542 81.7263 40.4668Z" fill="#D5DADD"/>
</mask>
<g mask="url(#mask0_4038_89639)">
<path d="M91.0439 8.94672L56.1899 36.7734L58.9043 40.1733L93.7583 12.3466L91.0439 8.94672Z" fill="#D5DADD"/>
<path d="M97.9304 17.5712L63.0764 45.3979L66.7224 49.9645L101.576 22.1378L97.9304 17.5712Z" fill="#D5DADD"/>
</g>
<path d="M82.0773 33.0952L75.6124 32.6778C75.3831 32.6635 75.2076 32.4539 75.2237 32.2138C75.2398 31.9738 75.4404 31.7875 75.6697 31.8036L82.1347 32.221C82.364 32.2353 82.5395 32.4449 82.5234 32.685C82.5073 32.925 82.3066 33.1113 82.0773 33.0952ZM78.9873 30.6984C78.758 30.684 78.5824 30.4745 78.5986 30.2344L78.8977 25.5984L77.6563 26.7449C77.4844 26.9043 77.2174 26.8864 77.067 26.7073C76.9165 26.5263 76.9344 26.2487 77.1064 26.0893L79.1037 24.2442C79.1879 24.1672 79.3044 24.126 79.41 24.1313C79.5301 24.1385 79.625 24.194 79.6984 24.2818L81.4486 26.3741C81.5991 26.555 81.5811 26.8327 81.4092 26.9921C81.2372 27.1515 80.9703 27.1336 80.8198 26.9545L79.7361 25.6593L79.4369 30.2953C79.4208 30.5354 79.2202 30.7217 78.9909 30.7055L78.9855 30.7002L78.9873 30.6984Z" fill="#2A4259"/>
<path d="M81.6419 17.9623L77.9338 17.7079C77.8317 17.7008 77.7547 17.6076 77.76 17.4983L77.769 17.3568C77.7762 17.2475 77.8639 17.1651 77.966 17.1723L81.6741 17.4267C81.7762 17.4338 81.8532 17.527 81.8479 17.6363L81.8389 17.7778C81.8317 17.8871 81.744 17.9695 81.6419 17.9623Z" fill="#9B015D"/>
<path d="M78.7668 39.673L78.1667 39.6318C78.0341 39.6229 77.9356 39.5011 77.9427 39.3613V39.3345C77.9535 39.1947 78.0664 39.0873 78.1989 39.0962L78.799 39.1374C78.9316 39.1464 79.0301 39.2682 79.0229 39.4079V39.4348C79.0122 39.5745 78.8993 39.682 78.7668 39.673Z" fill="#9B015D"/>
<path d="M72.3455 32.9531C73.311 33.2487 73.6586 34.3074 73.2609 35.0687C72.8632 35.83 72.0804 36.4946 70.7387 35.1063C70.7387 35.1063 70.5846 34.0566 71.3334 33.7843C72.0822 33.512 72.9116 33.924 72.9116 33.924" fill="#C35500"/>
<path d="M72.1831 33.7053C72.4518 33.8039 72.6865 33.9901 72.8406 34.2302C73.0215 34.5114 73.1433 34.8195 73.2221 35.1384C73.2347 35.1151 73.2472 35.0918 73.2597 35.0667C73.6556 34.3054 73.3099 33.2467 72.3444 32.9512L71.832 33.6373C71.9503 33.6426 72.0685 33.6623 72.1813 33.7035L72.1831 33.7053Z" fill="#8D2A00"/>
<path d="M73.2111 28.7436C73.8004 29.0929 73.7144 29.7539 73.3902 30.4185C72.8815 31.4629 72.0646 31.7155 71.4753 31.3662C70.8859 31.0168 70.7408 29.6805 71.2567 29.1521C71.701 28.6971 72.6217 28.3943 73.2111 28.7436Z" fill="#C35500"/>
<path d="M72.8402 28.4911C72.5536 28.3962 72.0789 28.5699 71.6113 28.8279C72.1039 28.853 72.4963 28.8261 72.6933 29.3725C72.8706 29.8651 73.0641 30.4473 73.0301 30.9775C73.1608 30.8163 73.2826 30.621 73.3919 30.3864C73.7144 29.6842 73.8845 28.8422 72.842 28.4929L72.8402 28.4911Z" fill="#8D2A00"/>
<path d="M71.4054 34.7972C71.4377 34.8384 71.4735 34.8796 71.5111 34.9208C71.5111 34.9208 71.9357 34.1183 72.4784 33.9302C72.8618 33.7977 72.6611 33.3588 72.1058 33.3516C71.3517 33.3427 70.9361 34.2061 71.4054 34.7972Z" fill="#450B00"/>
<path d="M71.0847 30.0745C71.0847 30.0745 71.1098 28.7148 72.5429 28.7865C72.5429 28.7865 70.8178 28.3727 71.0847 30.0745Z" fill="#450B00"/>
<path d="M86.8877 25.9141C86.8877 25.9141 86.9468 28.447 87.3015 28.4918C87.3015 28.4918 87.4143 28.499 87.3982 28.1335C87.3821 27.7681 87.3391 26.0395 86.8895 25.9141" fill="#450B00"/>
<defs>
<clipPath id="clip0_4038_89639">
<rect width="97" height="40.5" fill="white" transform="translate(30.5 7.5)"/>
</clipPath>
<clipPath id="clip1_4038_89639">
<rect width="25" height="29" fill="white" transform="translate(67 47.5)"/>
</clipPath>
</defs>
</svg>
