<svg width="128" height="128" viewBox="0 0 128 128" fill="none" xmlns="http://www.w3.org/2000/svg">
<g clip-path="url(#clip0_4413_116463)">
<path d="M47.7837 21.5328C45.013 22.8941 10.1171 51.1926 10.1171 51.1926C8.45915 52.7938 8.06632 55.2965 9.82985 56.8234L71.5229 107.926C71.6982 108.077 71.8818 108.228 72.0654 108.363C73.4032 109.356 74.7488 109.885 76.2869 109.987C77.1855 110.046 78.0755 109.843 78.9392 109.588L84.5592 107.926L54.03 21.1793C54.03 21.1793 50.5543 20.1716 47.7837 21.5328Z" fill="#1B90FF"/>
<path d="M83.5609 99.4199L76.6425 96.2308L14.3845 45.1406L14.3606 49.2128C14.3606 50.7397 15.0229 52.1951 16.188 53.1892L76.6345 104.645L78.2944 106.061C80.0738 107.58 82.356 108.192 84.5504 107.914V102.06L83.5529 99.4199H83.5609Z" fill="#046C7C"/>
<path d="M89.4182 98.1636L84.5664 102.069V107.922C86.0904 107.731 87.5747 107.111 88.8116 106.045L89.426 105.52L120.842 78.5198C122.007 77.5177 122.678 76.0623 122.67 74.5354V71.4258L89.4182 98.1716V98.1636Z" fill="#56BDFF"/>
<path d="M91.5247 100.97C87.7903 104.159 81.6217 104.159 77.8395 100.97L16.4433 49.1796C13.3072 46.5313 13.81 42.2764 17.5126 39.6918L46.2316 19.6741C49.6392 17.2961 54.9377 17.2961 58.1056 19.6741L119.614 65.9286C123.388 68.7679 123.739 73.4362 120.332 76.347L91.5327 100.97H91.5247Z" fill="#0899A7"/>
<path d="M48.3065 22.1439L41.9641 26.5878L45.2467 29.147C46.0309 29.7599 45.9694 30.7483 45.1008 31.369L33.669 39.4754C32.7695 40.1113 31.4088 40.1113 30.6246 39.4754L27.3495 36.8167L20.6381 41.5135C17.8935 43.4368 17.5322 46.5781 19.8616 48.532L79.0193 98.2202C81.8177 100.573 86.3612 100.573 89.1288 98.2202L116.882 74.5983C119.411 72.4451 119.165 68.9972 116.374 66.8903L57.109 22.1439C54.7642 20.3739 50.8358 20.3739 48.3065 22.1439Z" fill="white"/>
</g>
<path d="M54.9563 46.605C48.553 53.0083 48.0339 62.871 53.7968 68.634C59.5598 74.397 69.4225 73.8779 75.8258 67.4746C81.3458 61.9546 82.4915 53.8675 79.0145 48.0486C78.594 47.3449 77.6437 47.1775 76.8917 47.6745C76.1398 48.1716 75.8711 49.1449 76.2916 49.8485C79.073 54.5033 78.1522 60.9743 73.7389 65.3876C68.6162 70.5103 60.7261 70.9255 56.1157 66.3152C51.5053 61.7048 51.9206 53.8146 57.0432 48.692C60.4751 45.2601 65.1516 43.9394 69.252 44.8311L64.6954 49.3876C64.0551 50.028 64.0032 51.0142 64.5795 51.5905C65.1557 52.1668 66.142 52.1149 66.7823 51.4746L73.0568 45.2001C73.12 45.1452 73.1798 45.0855 73.2356 45.0213L73.7389 44.5181C74.3792 43.8777 74.4311 42.8915 73.8548 42.3152L67.5939 36.0543C67.0176 35.478 66.0314 35.5299 65.391 36.1702C64.7507 36.8106 64.6988 37.7968 65.2751 38.3731L68.4049 41.5029C63.7566 41.0841 58.7502 42.8111 54.9563 46.605Z" fill="#D20A0A"/>
<defs>
<clipPath id="clip0_4413_116463">
<rect width="128" height="128" fill="white"/>
</clipPath>
</defs>
</svg>
