<svg width="45" height="40" viewBox="0 0 45 40" fill="none" xmlns="http://www.w3.org/2000/svg">
<path d="M4.73055 18.3311L4.65005 18.2877L5.53695 16.3111C5.51509 15.8516 5.63789 15.3963 5.88875 15.0099L6.24784 14.4568L6.50427 14.1551L10.4302 5.40515C11.4292 3.17854 14.0084 2.13815 16.2727 3.04805L18.1957 3.82076C18.9022 3.38715 19.7203 3.14249 20.5657 3.12956L21.289 3.12546C21.9903 3.11484 22.6786 3.31509 23.2649 3.7C24.7809 4.38901 26.1173 6.15361 26.1173 8.00477C26.1173 9.63025 25.3746 11.0451 24.2786 11.7767C24.3539 11.8308 24.4155 11.9031 24.4571 11.9879C24.5117 12.0997 24.5171 12.2296 24.4771 12.3476L24.352 12.7175C24.3233 12.8025 24.2434 12.8597 24.1537 12.8597H23.8025L23.7338 13.0354C23.6569 13.2319 23.5988 13.4351 23.5599 13.6424L23.5419 13.7378L23.5564 13.7403L24.2119 14.3753L24.4943 14.6577C24.8235 14.9869 25.275 15.1645 25.7404 15.1475L25.9428 15.1401C26.0632 15.1358 26.1767 15.1958 26.2408 15.2981L26.4293 15.5984C26.5036 15.6897 26.6402 15.6977 26.7246 15.6158L27.0729 15.2782C27.1853 15.169 27.3193 15.0846 27.4662 15.0299L28.6772 14.5801L28.8781 14.5012C29.1133 14.4089 29.2923 14.213 29.3634 13.9705L29.3988 13.8494C29.483 13.5645 29.782 13.4712 30.0068 13.5695L30.0269 13.5116C30.1098 13.2705 30.2407 13.0485 30.4114 12.859L30.5924 12.6576C30.668 12.5739 30.7498 12.4958 30.837 12.4243L31.2481 12.088C31.3366 12.0155 31.4356 11.9567 31.5417 11.9137L31.7338 11.8356C31.9321 11.7551 32.149 11.7318 32.3598 11.7684C32.4239 11.7795 32.4501 11.8573 32.4061 11.9051L32.2596 12.0486C32.0579 12.2465 31.887 12.4739 31.7531 12.7228L31.7021 12.8176C31.6924 12.8354 31.7123 12.8545 31.7297 12.8444L32.3026 12.4827C32.4663 12.3793 32.6435 12.299 32.8291 12.2441L32.9749 12.2008C33.0597 12.1756 33.1464 12.1574 33.2343 12.1461L33.6933 12.0866C33.7222 12.0829 33.7517 12.0879 33.7777 12.101C33.8471 12.1356 33.8774 12.2185 33.8469 12.29L33.8459 12.2923L33.8439 12.2966C33.8404 12.3044 33.836 12.3119 33.831 12.319L33.8084 12.3513C33.8056 12.3552 33.8027 12.3595 33.7999 12.3633C33.798 12.366 33.796 12.3686 33.7941 12.3712C33.7677 12.4071 33.7389 12.441 33.708 12.4729C33.6553 12.5274 33.5964 12.5757 33.5323 12.6169L33.4768 12.6525C33.4757 12.6532 33.4748 12.6539 33.4741 12.6547C33.4733 12.6555 33.4727 12.6563 33.4722 12.6571C33.4666 12.6668 33.4748 12.6809 33.4878 12.678L33.5692 12.66C33.7076 12.6292 33.8504 12.6225 33.9913 12.6401L34.1724 12.6626C34.2283 12.6696 34.2701 12.7169 34.2701 12.7732V12.815C34.2701 12.8268 34.2683 12.8384 34.2647 12.8494C34.2609 12.8612 34.2552 12.8723 34.2476 12.8823L34.2298 12.9061C34.1618 12.9971 34.0747 13.0722 33.9752 13.1267C33.9657 13.1319 33.9602 13.1403 33.9583 13.1492C33.9553 13.1654 33.9641 13.1833 33.9827 13.1883L34.1708 13.2384C34.1958 13.245 34.2187 13.2571 34.2386 13.2735C34.2947 13.3202 34.3164 13.3964 34.2933 13.4656L34.2898 13.4761L34.2891 13.4781C34.2762 13.5158 34.2508 13.548 34.2173 13.5696L34.0225 13.6947C34.0192 13.6969 34.0172 13.6999 34.0165 13.7031C34.015 13.7109 34.0205 13.7196 34.03 13.7196C34.0834 13.7196 34.1201 13.773 34.1013 13.8228L34.1007 13.8242L34.0952 13.8384C34.0888 13.8544 34.0772 13.8682 34.0624 13.877L33.9705 13.9295C33.8566 13.9944 33.7539 14.0774 33.6665 14.1751L33.4504 14.4168L33.1636 14.7036L32.5839 15.2992C32.479 15.407 32.362 15.502 32.235 15.5823C31.9575 15.7581 31.6394 15.8599 31.3112 15.8775L31.0537 15.8914L31.2074 16.4169C31.2676 16.6226 31.2713 16.8405 31.2182 17.048C31.1314 17.3874 30.8051 17.6091 30.4574 17.5644L30.0291 17.5095L29.9873 17.5849C29.9715 17.6135 29.9465 17.634 29.9179 17.6446C29.8808 17.802 29.8096 17.9505 29.7081 18.079L29.388 18.4843C29.3513 18.5306 29.3112 18.5741 29.2677 18.614L27.8732 19.8965C27.6692 20.0844 27.392 20.1712 27.1173 20.1337L26.4223 20.0389C25.9737 19.9776 25.53 19.8844 25.0947 19.7597L23.7772 19.3824C23.3442 19.2672 22.9208 19.1185 22.5109 18.9372L21.3395 18.4191L21.3118 18.4283C21.2767 18.491 21.2408 18.5532 21.2042 18.615L20.7605 19.4469C20.4662 19.9987 20.1982 20.5641 19.9573 21.1411L19.5852 22.0325L19.5008 22.7737L19.1489 23.1397L18.896 23.8221L18.6425 24.5773C18.4095 25.2709 18.0963 25.9352 17.7094 26.5561L17.4501 26.9723C16.9079 27.8425 16.243 28.6297 15.476 29.31L13.14 31.3813L10.8237 33.1759C10.7498 33.2331 10.6709 33.2835 10.5879 33.3265L9.88698 33.689C9.64936 33.8119 9.38409 33.8707 9.11678 33.8599L8.29721 33.8267C8.21736 33.8234 8.13754 33.8264 8.05846 33.8355L6.37463 35.0027C6.10588 35.1889 5.90411 35.4566 5.79923 35.7663L5.73635 35.9521C5.59972 36.3554 5.41167 36.7393 5.17693 37.0943L4.69084 37.8295L4.15826 38.6693L3.3389 39.6321L3.16478 39.6968C2.76371 39.8461 2.31449 39.6671 2.12604 39.2828L2.10003 39.2298C1.98491 38.9948 1.91424 38.7404 1.89211 38.4796L1.86037 38.1066C1.35637 38.4719 0.62833 38.2585 0.411319 37.6588L0.158341 36.9597C0.0534632 36.6703 0 36.3649 0 36.0572C0 35.6596 0.0893102 35.2673 0.261376 34.9091L1.20425 32.4377C1.3417 32.0776 1.56539 31.7566 1.85585 31.5032L2.54022 30.9059L3.24815 30.3805L3.71658 29.7006C3.82246 29.5469 3.95408 29.4144 4.10453 29.3081C4.21223 29.232 4.32957 29.1695 4.45403 29.1223C4.47406 29.1147 4.49427 29.1075 4.51466 29.1007L4.52861 29.096C4.56269 29.0842 4.59619 29.0711 4.62906 29.0568C4.89139 28.9426 5.11292 28.7493 5.26169 28.5027L5.50299 28.1024C5.68202 27.8056 5.93786 27.5627 6.24328 27.3992L6.43645 27.296C6.4611 27.2828 6.48677 27.2726 6.51298 27.2653C6.6291 27.2327 6.75585 27.2574 6.85209 27.3356L6.98495 27.4435L7.27055 26.3439C7.3529 26.027 7.47232 25.721 7.62636 25.4321L7.90064 24.9178C8.00019 24.7312 8.09422 24.5419 8.18312 24.3502L9.4013 21.7188C9.50763 21.4893 9.62771 21.2664 9.76089 21.0514L7.21901 19.6835L7.19847 19.7931L7.0262 20.4795L6.76339 21.1792C6.73389 21.2577 6.6962 21.3328 6.65114 21.4035L6.63946 21.4217C6.5862 21.5051 6.46084 21.4934 6.42397 21.4015C6.35146 21.2202 6.35822 21.017 6.44241 20.841C6.50017 20.7206 6.56203 20.5921 6.59419 20.5256C6.59931 20.5153 6.58641 20.5055 6.5776 20.5131L6.30926 20.7447L6.14498 20.9205C6.04993 21.0221 5.96718 21.1343 5.89815 21.2552L5.59232 21.7905L5.42845 22.1592L4.97616 22.7458C4.8764 22.8753 4.67382 22.8478 4.61196 22.6967C4.58328 22.6266 4.57345 22.5502 4.58328 22.4752L4.5927 22.4048C4.60356 22.3234 4.62855 22.245 4.66644 22.1725L4.83377 21.8531L4.75268 21.9342C4.75268 21.9342 4.57959 22.1696 4.50564 22.2904C4.49294 22.3111 4.48434 22.3339 4.47983 22.3577L4.47811 22.3656C4.46274 22.4292 4.41293 22.4686 4.35779 22.4786C4.29946 22.4893 4.23514 22.4672 4.1992 22.4064L4.18159 22.3765C4.15311 22.3284 4.13816 22.2735 4.13816 22.2175V22.1139C4.13816 21.9371 4.15414 21.7607 4.18609 21.5868L4.20084 21.5067C4.20559 21.4806 4.1826 21.4614 4.16028 21.4647C4.15377 21.4657 4.14732 21.4687 4.14164 21.4739L4.03983 21.5887C4.02302 21.6076 4.00149 21.6186 3.97915 21.6223C3.93502 21.6296 3.88764 21.6083 3.86695 21.5627C3.8434 21.5108 3.83582 21.4533 3.84503 21.3972L3.89235 21.1087L4.08265 20.4862C4.0863 20.4739 4.07554 20.4637 4.06468 20.4653C4.06221 20.4656 4.05975 20.4667 4.05745 20.4684L3.99354 20.5163C3.97971 20.5267 3.96486 20.5326 3.95006 20.5347C3.88768 20.5438 3.82621 20.4854 3.84626 20.4152L3.89215 20.2542L4.01915 19.8437C4.11174 19.5444 4.23321 19.2547 4.38172 18.979L4.73055 18.3311Z" fill="#1B90FF"/>
<path d="M20.8476 18.7789L15.3477 15.819L21.1278 2.9364C22.1268 0.709787 24.706 -0.330596 26.9703 0.579304L29.5941 1.63362L20.8474 18.7787L20.8476 18.7789Z" fill="#FFEAF4"/>
<path d="M22.9165 19.9057L17.4165 16.9458L23.407 3.83886C24.4165 1.63028 26.9833 0.605053 29.2366 1.51045L31.8884 2.57602L22.9165 19.9055V19.9057Z" fill="#9B015D"/>
<path d="M36.8149 5.53615C36.8149 7.91188 35.2284 9.83778 33.2711 9.83778C31.3139 9.83778 27.3513 7.35881 27.3513 4.98308C27.3513 2.60734 30.6994 0.927246 32.6566 0.927246C34.6139 0.927246 36.8149 3.16041 36.8149 5.53615Z" fill="#00144A"/>
<path d="M25.3848 7.9736L25.9852 7.26813C26.1292 7.09893 26.2322 6.8986 26.2861 6.68311L26.5464 6.74169C26.9176 6.82526 27.2763 6.95657 27.6134 7.13232L29.2642 7.99326C29.4486 8.08933 29.6301 8.19093 29.8083 8.29786L30.8671 8.93225C31.2133 9.13955 31.5709 9.32697 31.9384 9.4933L32.3655 9.68667C33.0087 9.97775 33.6794 10.2035 34.3676 10.3604L34.5001 10.3907L34.4313 10.5667C34.3545 10.7631 34.2963 10.9663 34.2574 11.1736L34.1929 11.5175L29.1948 10.0427L25.3848 7.9738V7.9736Z" fill="#FFB2D2"/>
<path d="M31.6939 15.7987L33.2085 16.4687C33.6183 16.65 34.0417 16.7987 34.4748 16.9138L35.7923 17.2911C36.2276 17.4159 36.6713 17.5091 37.1199 17.5703L37.8149 17.6652C38.0896 17.7027 38.3667 17.6158 38.5708 17.428L39.9653 16.1455C40.0087 16.1055 40.0489 16.0621 40.0856 16.0158L40.4057 15.6104C40.5608 15.414 40.6452 15.1709 40.6452 14.9205V14.6544L39.7234 12.3164L38.945 12.4598L37.1219 14.078L34.2132 14.0166L33.0046 14.4877L31.6937 15.7987H31.6939Z" fill="#FFB2D2"/>
<path d="M13.4426 28.6421L14.4141 27.232C14.6079 26.9508 14.8879 26.7402 15.2118 26.6323C15.5242 26.5282 15.7892 26.316 15.9593 26.0341L16.2006 25.6339C16.3796 25.3371 16.6354 25.0941 16.9408 24.9307L17.134 24.8274C17.2678 24.7559 17.4314 24.7715 17.549 24.8672L17.6824 24.9755L17.9681 23.8753C18.0505 23.5584 18.1699 23.2524 18.3239 22.9636L18.5982 22.4492C18.6978 22.2626 18.7918 22.0733 18.8807 21.8816L20.0989 19.2502C20.222 18.9846 20.3635 18.7277 20.5225 18.4817L20.7031 18.2021C21.1444 17.5195 21.6935 16.9132 22.3292 16.4069L23.7864 15.246L25.1588 14.5701L25.589 12.5421L27.1273 10.5441V7.20605L31.8878 9.98553L34.1308 11.1697L32.4325 15.1043C32.1861 15.6754 31.8823 16.2198 31.5263 16.7297C31.1883 17.2133 30.9154 17.7391 30.7143 18.2938L30.1299 19.9061L29.5936 21.3535L29.34 22.1088C29.1071 22.8024 28.7939 23.4667 28.407 24.0875L28.1476 24.5038C27.6054 25.3739 26.9405 26.1611 26.1736 26.8414L23.8376 28.9127L21.5213 30.7073C21.4473 30.7645 21.3685 30.8149 21.2855 30.8579L20.5845 31.2205C20.3469 31.3434 20.0817 31.4022 19.8143 31.3913L18.9948 31.3581C18.8041 31.3503 18.6136 31.3782 18.4329 31.4401L15.06 32.596L13.5442 30.836L13.4418 28.6426L13.4426 28.6421Z" fill="#FFB2D2"/>
<path d="M21.1856 28.2937L22.3366 27.1622C23.1668 26.3461 23.7731 25.3303 24.0978 24.2125L24.141 24.0634C24.2731 23.6084 24.3401 23.1371 24.3401 22.6633V20.9332C24.3401 20.2532 24.2228 19.5782 23.9931 18.9381L23.6527 17.9889C23.5679 17.7525 23.3977 17.5567 23.1754 17.4397C22.9022 17.2959 22.5779 17.2859 22.2962 17.4126L21.5754 17.7371C21.2645 17.877 20.9863 18.0806 20.7589 18.3348L20.3101 18.8363C20.2349 18.9715 20.1647 19.1093 20.0995 19.2499L18.8814 21.8812C18.7924 22.073 18.6984 22.2624 18.5989 22.4488L18.3246 22.9632C18.1706 23.252 18.0511 23.5581 17.9688 23.8749L17.683 24.9751L17.5497 24.8668C17.4319 24.7711 17.2684 24.7555 17.1347 24.827L16.9415 24.9303C16.6359 25.0937 16.38 25.3367 16.2012 25.6335L15.9597 26.0337C15.7897 26.3158 15.5246 26.5278 15.2123 26.6319C14.8882 26.7398 14.6082 26.9504 14.4146 27.2317L13.4431 28.6418L13.5455 30.8352L15.0613 32.5952L16.2508 32.1875L17.6218 30.6697L19.3424 29.6455L21.186 28.2935L21.1856 28.2937Z" fill="#FFEAF4"/>
<path d="M12.5413 35.4427L12.5897 36.0109C12.6118 36.2717 12.6825 36.5261 12.7976 36.761L12.8236 36.8141C13.0121 37.1984 13.4613 37.3774 13.8624 37.2281L14.0365 37.1633L14.8558 36.2006L15.3884 35.3608L15.8745 34.6256C16.1092 34.2706 16.2973 33.8867 16.4339 33.4834L16.4968 33.2976C16.6017 32.9879 16.8034 32.7202 17.0722 32.534L18.7564 31.3666L17.6212 30.6699L17.3651 30.9899C16.8196 31.6718 15.9339 31.9846 15.0812 31.7965L12.5411 35.4427H12.5413Z" fill="#00144A"/>
<path d="M13.9457 27.9118L13.2378 28.4372L12.5534 29.0346C12.263 29.2879 12.0393 29.6089 11.9018 29.969L10.9589 32.4404C10.7869 32.7987 10.6976 33.191 10.6976 33.5886C10.6976 33.8962 10.751 34.2016 10.8559 34.4911L11.1089 35.1902C11.3354 35.8162 12.119 36.0212 12.6231 35.5864L13.4371 34.4317C13.4816 34.3686 13.5293 34.3075 13.5801 34.2492L14.2161 33.5165C14.3687 33.3405 14.4939 33.1426 14.5871 32.9292L15.0816 31.7968C14.5967 31.4871 14.1917 31.0676 13.899 30.5723C13.8415 30.4748 13.8046 30.3662 13.7909 30.2538L13.739 29.8265C13.7327 29.7744 13.7224 29.723 13.7081 29.6724L13.6081 29.3197C13.5473 29.1048 13.5592 28.876 13.6424 28.6687L13.9459 27.9116L13.9457 27.9118Z" fill="#00144A"/>
<path d="M27.2489 21.9644L26.2826 21.5443C25.9934 21.4185 25.7564 21.1967 25.6118 20.9164L24.8315 19.4039L23.4591 15.5119L25.2412 14.6721L26.4907 14.2214L27.8222 12.6237L28.4982 11.0259L28.109 8.1377L30.2829 9.72992C30.5673 9.92431 30.8686 10.0929 31.1832 10.2336L32.3766 10.7676C32.8209 10.9663 33.2884 11.1081 33.7681 11.1894L34.254 11.2717L34.9095 11.9068L35.1919 12.1892C35.5211 12.5184 35.9726 12.696 36.438 12.679L36.6404 12.6716C36.7608 12.6673 36.8743 12.7273 36.9384 12.8296L37.1268 13.1298C37.2012 13.2212 37.3378 13.2292 37.4222 13.1473L37.7705 12.8097C37.8829 12.7005 38.0169 12.6161 38.1637 12.5614L39.3748 12.1116L39.5757 12.0327C39.8109 11.9403 39.9899 11.7445 40.061 11.502L40.0964 11.3809C40.2216 10.9571 40.822 10.9573 40.9469 11.3811L40.9932 11.538L41.0137 12.1526L41.1571 13.0948L41.7511 13.4226L41.9049 13.9484C41.9652 14.1541 41.9689 14.372 41.9158 14.5795C41.829 14.9189 41.5026 15.1406 41.155 15.0959L40.7267 15.041L40.6849 15.1164C40.6509 15.1776 40.5751 15.2016 40.512 15.1713L40.4723 15.1522C40.2087 15.0252 39.9786 14.838 39.8008 14.6057L39.5802 14.3173C39.3807 14.0565 39.2725 13.7372 39.2725 13.4088V13.3996C39.2725 13.211 39.3068 13.026 39.3733 12.8517C39.4487 12.6546 39.5388 12.4189 39.5388 12.4189L39.1828 12.7642C38.9714 12.9691 38.8012 13.2126 38.6814 13.4814L38.3295 14.27C38.2891 14.3605 38.2406 14.4472 38.1846 14.5289L38.1265 14.6139C38.0644 14.7047 37.9325 14.7106 37.8624 14.6258L37.6131 14.3241C37.464 14.6088 37.3641 14.9167 37.3176 15.2348L37.1359 16.4755C37.1209 16.5544 37.0242 16.5851 36.9665 16.5294L36.7139 16.2852C36.5631 16.1394 36.4351 15.9718 36.3341 15.7879L36.2878 15.7035C36.1885 15.5224 36.1166 15.3274 36.0744 15.1252L36.0355 14.9386L35.7378 15.4279C35.6436 15.5828 35.4781 15.6803 35.2968 15.6877H35.2905C35.1493 15.6936 35.0125 15.6463 34.906 15.5554C34.8599 15.516 34.8081 15.472 34.7569 15.4282C34.5663 15.2659 34.4391 15.0416 34.3974 14.795L34.3957 14.7856C34.3648 14.6033 34.1714 14.501 34.0051 14.5777C33.9158 14.6188 33.8433 14.652 33.8433 14.652L33.536 15.4509L31.9997 15.963L31.4581 16.9784C31.1638 17.5302 30.8958 18.0956 30.6549 18.6726L30.1357 19.9164L27.2474 21.9648L27.2489 21.9644Z" fill="#FFEAF4"/>
<path d="M24.6525 23.206L27.018 22.5058C27.4971 22.3641 27.9535 22.1541 28.3728 21.8827L28.6893 21.6779C28.9844 21.487 29.2595 21.2666 29.5105 21.0203L30.1983 20.305L30.2958 19.4492L27.5354 21.3907L24.6523 23.206H24.6525Z" fill="#00144A"/>
<path d="M24.463 22.845L25.0669 21.817C25.1679 21.6451 25.2209 21.4495 25.2209 21.2504V19.8855C25.2209 19.2774 25.1715 18.6702 25.0736 18.07L24.9733 17.4559C24.92 17.1302 24.8364 16.8101 24.7234 16.4999L24.2563 15.2191C24.2137 15.1021 24.0787 15.0484 23.9675 15.1041L23.4495 15.3631C23.3513 15.4122 23.3081 15.529 23.3507 15.6302L23.6027 16.2287L23.9919 17.5192L24.3067 18.9359C24.4786 19.7089 24.5505 20.5007 24.521 21.292L24.463 22.845Z" fill="#00144A"/>
<path d="M25.3233 14.4669L25.6802 13.9538C25.878 13.6692 26.1171 13.4154 26.3891 13.2006L26.6114 13.0252C26.7078 12.949 26.791 12.8572 26.8576 12.7538L26.9885 12.5502C27.0788 12.4099 27.1335 12.2495 27.1478 12.0834L27.1519 12.0358C27.1616 11.924 27.1421 11.8117 27.095 11.7099C27.0696 11.6548 26.9981 11.6403 26.9532 11.6809L26.6474 11.9568C26.3565 12.2192 26.0038 12.4031 25.6222 12.4912L25.4053 12.5412L24.1967 12.8075L23.8642 12.9023C23.5609 12.989 23.2483 13.0394 22.933 13.0527L21.3695 13.118C21.113 13.1287 20.8779 13.2641 20.7398 13.4804L20.3457 14.0978L19.9717 14.8757C19.8801 15.066 19.759 15.2406 19.6126 15.3926L19.4217 15.5908C19.3447 15.6709 19.2383 15.716 19.1273 15.716C19.021 15.716 18.919 15.6746 18.8426 15.6005L18.666 15.4292L16.2694 14.3641L16.237 13.8864C16.2049 13.412 16.3274 12.9398 16.5863 12.541L16.9454 11.9879L18.5337 10.1192C19.0849 9.47063 19.8318 9.01896 20.662 8.83173L23.4591 8.20124L24.9907 7.79483C25.2098 7.73666 25.4389 7.72437 25.6632 7.75899C25.7897 7.77845 25.9192 7.7682 26.0413 7.72887L26.0757 7.71781C26.349 7.62973 26.6384 7.60454 26.9227 7.64428L27.3715 7.70696L28.3343 8.69019V11.2134L27.3306 13.422L25.3231 14.4667L25.3233 14.4669Z" fill="#FFEAF4"/>
<path d="M25.0638 14.7788L25.3741 15.141C25.4165 15.1905 25.4872 15.2051 25.5458 15.1764L25.9393 15.0015C26.7525 14.6399 27.4387 14.0428 27.9092 13.2874L28.3748 12.5397C28.552 12.2552 28.694 11.9504 28.798 11.6318L28.9424 11.1892C29.1452 10.5671 29.1264 9.89377 28.889 9.28397L28.8015 9.05946C28.604 8.55248 28.2566 8.11781 27.8058 7.81362L27.7611 7.78351C27.7066 7.74664 27.6468 7.71837 27.5839 7.69912L27.1482 7.5672C27.1103 7.55573 27.0823 7.60264 27.1103 7.6305L27.3103 7.83042L27.5012 8.02133C27.7642 8.28435 27.9432 8.61905 28.0161 8.98367L28.0315 9.06008C28.0829 9.31756 28.0936 9.58139 28.0626 9.84215L27.959 10.7172C27.9363 10.9092 27.9008 11.0993 27.8531 11.2865L27.8388 11.3424C27.7329 11.7574 27.5667 12.1544 27.3457 12.5213L27.0741 12.9721C26.8389 13.3623 26.5141 13.6905 26.1261 13.9295L25.0974 14.5635C25.0224 14.6098 25.0064 14.712 25.0638 14.7788Z" fill="#00144A"/>
<path d="M15.203 19.8215C15.277 19.7006 15.4501 19.4653 15.4501 19.4653L15.532 19.3833L15.364 19.7039C15.3261 19.7764 15.3012 19.8549 15.2903 19.9362C15.2872 19.9593 15.2839 19.9837 15.2809 20.0067C15.271 20.0816 15.2809 20.158 15.3096 20.2281C15.3714 20.3793 15.574 20.4067 15.6738 20.2772L16.126 19.6906L16.2899 19.3219L16.5957 18.7866C16.6648 18.6658 16.7475 18.5535 16.8426 18.4519L17.0069 18.2762L17.2752 18.0445C17.284 18.0369 17.2969 18.0467 17.2918 18.057C17.2596 18.1236 17.1978 18.252 17.14 18.3724C17.0558 18.5484 17.0491 18.7516 17.1216 18.9329C17.1584 19.0249 17.2838 19.0365 17.3371 18.9532L17.3487 18.9349C17.3938 18.8643 17.4315 18.7891 17.461 18.7106L17.7238 18.0109L17.8961 17.3245L18.0181 16.6729C18.0395 16.5598 18.1075 16.4609 18.2058 16.4009L18.4203 16.2698L18.5534 16.1716C18.7187 16.0498 18.8357 15.8736 18.8836 15.6739L18.8914 15.6417L18.8504 15.3275L16.2694 14.3647L16.0726 14.5911C15.936 14.7482 15.8653 14.952 15.8751 15.1599C15.8784 15.2277 15.854 15.2939 15.8075 15.3435L15.667 15.4932C15.6045 15.5598 15.5509 15.6343 15.5076 15.7148L15.0793 16.5104C14.9308 16.7862 14.8093 17.0758 14.7167 17.3751L14.5897 17.7856L14.5439 17.9466C14.5191 18.0334 14.6188 18.1021 14.6909 18.0478L14.7548 17.9998C14.7673 17.9904 14.7848 18.0025 14.7802 18.0177L14.5899 18.6402L14.5426 18.9286C14.5334 18.9847 14.541 19.0423 14.5645 19.0941C14.5957 19.1627 14.6872 19.1764 14.7372 19.1201L14.839 19.0054C14.8642 18.982 14.9046 19.0044 14.8984 19.0382L14.8837 19.1183C14.8517 19.2922 14.8358 19.4685 14.8358 19.6453C14.8358 19.6826 14.8358 19.7186 14.8358 19.749C14.8358 19.8049 14.8507 19.8598 14.8792 19.9079L14.8968 19.9378C14.9681 20.0585 15.151 20.0267 15.1774 19.8891C15.1819 19.8653 15.1905 19.8426 15.2032 19.8219L15.203 19.8215Z" fill="#FFEAF4"/>
<path d="M15.9034 17.9944L15.8134 17.9873C15.6963 17.9778 15.6133 17.8685 15.6362 17.7531L15.6787 17.5395C15.6969 17.4477 15.6266 17.3621 15.533 17.3621H15.3304C15.2974 17.3621 15.2708 17.3355 15.2708 17.3025V17.2351C15.2708 17.1781 15.1987 17.1536 15.1639 17.1986L14.8665 17.5839C14.8366 17.6228 14.7743 17.6015 14.7743 17.5524V17.2023C14.7542 17.2595 14.735 17.3168 14.7169 17.3748L14.5899 17.7853L14.544 17.9463C14.5193 18.0331 14.619 18.1018 14.6911 18.0475L14.755 17.9995C14.7675 17.9901 14.7849 18.0022 14.7804 18.0174L14.5901 18.6399L14.5428 18.9283C14.5336 18.9844 14.5412 19.042 14.5647 19.0938C14.5959 19.1624 14.6874 19.1761 14.7374 19.1198L14.8392 19.0051C14.8644 18.9818 14.9048 19.0041 14.8986 19.0379L14.8839 19.118C14.8519 19.2919 14.8359 19.4683 14.8359 19.645C14.8359 19.6823 14.8359 19.7184 14.8359 19.7487C14.8359 19.8046 14.8509 19.8595 14.8794 19.9076L14.897 19.9375C14.9683 20.0582 15.1512 20.0264 15.1774 19.8888C15.1819 19.865 15.1905 19.8423 15.2032 19.8216C15.2772 19.7007 15.4503 19.4654 15.4503 19.4654L15.5322 19.3834L16.0275 18.1982C16.066 18.1059 16.0033 18.0028 15.9036 17.9948L15.9034 17.9944Z" fill="#FFB2D2"/>
<path d="M33.8447 14.6514L34.3158 12.9102L30.6492 10.8618L29.7274 13.8115L33.5374 15.4502L33.8447 14.6514Z" fill="#FFEAF4"/>
<path d="M29.3792 11.3125L30.6492 10.8618L29.7274 13.8115L28.5496 14.3732L29.3792 11.3125Z" fill="#9B015D"/>
<path d="M32.0011 15.9623L28.5496 14.3732L29.7274 13.8115L33.5374 15.4502L32.0011 15.9623Z" fill="#FFB2D2"/>
<path d="M31.1818 12.7462L31.4071 11.9883L33.6194 13.0739L33.4151 13.8114L31.1818 12.7462Z" fill="#9B015D"/>
<path d="M35.1546 9.51905C35.0872 9.3814 34.967 9.27673 34.8209 9.22941L34.7665 9.21179C33.8664 8.91928 32.9921 8.55303 32.1521 8.11692L30.2188 7.11321L28.9922 6.3977C28.5217 6.12322 28.1911 5.66028 28.0842 5.12606C28.0475 4.94272 28.0858 4.75222 28.1907 4.59736L29.5264 2.6225C29.5713 2.55613 29.6223 2.49407 29.6786 2.43712C30.1162 1.99467 30.6375 1.64398 31.2121 1.40514C31.4909 1.2892 31.7836 1.21033 32.0828 1.17039L32.335 1.13659C32.765 1.07903 33.2013 1.0905 33.6275 1.1706L33.9672 1.2343C33.3799 0.847358 32.6898 0.646 31.9866 0.656652L31.2633 0.660749C29.8571 0.682257 28.5264 1.34491 27.6589 2.45187L27.2484 2.97544C26.9772 3.39598 26.7769 3.8581 26.6554 4.34357L26.6329 4.43329C26.5507 4.76164 26.513 5.09881 26.5108 5.43741C26.51 5.56994 26.4954 5.70186 26.4678 5.83132L26.2855 6.68304L26.5458 6.74163C26.917 6.8252 27.2757 6.9565 27.6128 7.13226L29.2636 7.9932C29.448 8.08927 29.6293 8.19087 29.8077 8.2978L30.8663 8.93219C31.2125 9.13969 31.5701 9.32691 31.9378 9.49345L32.3649 9.68682C33.0081 9.97789 33.6788 10.2036 34.367 10.3605L34.4995 10.3909H34.8513C34.941 10.3909 35.0209 10.3337 35.0495 10.2487L35.1747 9.87875C35.2146 9.76076 35.2087 9.6313 35.154 9.51946L35.1546 9.51905Z" fill="#FFEAF4"/>
<path d="M29.1846 5.10589C29.869 5.10589 30.4239 4.52811 30.4239 3.81539C30.4239 3.10268 29.869 2.5249 29.1846 2.5249C28.5002 2.5249 27.9453 3.10268 27.9453 3.81539C27.9453 4.52811 28.5002 5.10589 29.1846 5.10589Z" fill="#FFEAF4"/>
<path d="M35.4529 3.17226C35.3587 3.09073 35.2298 3.2163 35.3077 3.31319C35.7335 3.84373 36.0357 4.70446 36.0357 5.67622C36.0357 7.07467 35.2253 8.44361 34.4565 8.7818C34.3564 8.82584 34.3842 8.97579 34.4938 8.97681C34.4961 8.97681 34.4981 8.97681 34.5004 8.97681C35.3488 8.97681 36.4259 7.40364 36.4259 5.79155C36.4259 4.64199 36.0033 3.6479 35.4531 3.17185L35.4529 3.17226Z" fill="#FFEAF4"/>
<path d="M40.7046 11.1003L40.7244 11.0428C40.8074 10.8017 40.9383 10.5796 41.1089 10.3902L41.29 10.1888C41.3656 10.105 41.4473 10.027 41.5346 9.9555L41.9457 9.61915C42.0342 9.54663 42.1331 9.48785 42.2392 9.44483L42.4313 9.36679C42.6296 9.28628 42.8466 9.26293 43.0573 9.2996C43.1215 9.31066 43.1477 9.3885 43.1036 9.43623L42.9572 9.57982C42.7554 9.77769 42.5846 10.0051 42.4506 10.2539L42.3996 10.3488C42.39 10.3666 42.4098 10.3857 42.4273 10.3756L43.0002 10.0139C43.1639 9.91043 43.341 9.83013 43.5266 9.77524L43.6725 9.73202C43.7573 9.70682 43.8439 9.68859 43.9318 9.67732L44.3906 9.61812C44.4195 9.61444 44.449 9.61935 44.475 9.63246C44.5445 9.66729 44.575 9.75025 44.5443 9.82153L44.5433 9.82378C44.5394 9.833 44.5344 9.84181 44.5285 9.85021L44.5058 9.88278C44.4318 9.98827 44.3382 10.0784 44.2298 10.148L44.1743 10.1837C44.161 10.1923 44.1696 10.213 44.1852 10.2095L44.2665 10.1915C44.405 10.1607 44.548 10.154 44.6887 10.1716L44.8698 10.1943C44.9255 10.2013 44.9675 10.2488 44.9675 10.305V10.3467C44.9675 10.3709 44.9597 10.3943 44.9451 10.4135L44.9273 10.4373C44.8593 10.5282 44.7723 10.6034 44.6727 10.6579C44.6461 10.6724 44.6508 10.7122 44.6801 10.72L44.8681 10.7701C44.8929 10.7767 44.9161 10.7888 44.9359 10.8052C44.9918 10.8519 45.0136 10.9281 44.9906 10.9973L44.9871 11.0078C44.9744 11.0461 44.9488 11.0788 44.9148 11.1008L44.72 11.2259C44.7086 11.2333 44.7137 11.2513 44.7274 11.2513C44.7811 11.2513 44.8179 11.3054 44.7983 11.3554L44.7925 11.3701C44.7862 11.3861 44.7747 11.3994 44.76 11.4082L44.668 11.4607C44.5541 11.5256 44.4515 11.6086 44.364 11.7063L44.1479 11.948L43.8611 12.2348L43.2814 12.8304C43.1766 12.9382 43.0596 13.0332 42.9326 13.1135C42.655 13.2893 42.3369 13.3911 42.0088 13.4087L41.7513 13.4226L40.9114 13.3202L40.809 11.9478L40.7043 11.1008L40.7046 11.1003Z" fill="#FFEAF4"/>
<path d="M44.3642 11.7058C44.4517 11.6081 44.5543 11.5252 44.6682 11.4602L44.7602 11.4078C44.7749 11.3992 44.7864 11.3857 44.7927 11.3697L44.7985 11.3549C44.8181 11.305 44.7813 11.2509 44.7276 11.2509C44.7139 11.2509 44.7086 11.2328 44.7202 11.2255L44.915 11.1003C44.949 11.0784 44.9744 11.0456 44.9873 11.0073L44.9908 10.9969C45.014 10.9276 44.9923 10.8514 44.9361 10.8047C44.9163 10.7883 44.8933 10.7763 44.8683 10.7697L44.6803 10.7195C44.651 10.7117 44.6461 10.672 44.6729 10.6575C44.7727 10.603 44.8595 10.5278 44.9275 10.4368L44.9453 10.4131C44.9599 10.3938 44.9677 10.3703 44.9677 10.3463V10.3045C44.9677 10.2482 44.9259 10.2009 44.87 10.1939L44.6889 10.1714C44.548 10.1538 44.4052 10.1605 44.2667 10.1912L44.1854 10.2093C44.1698 10.2127 44.1612 10.1921 44.1745 10.1835L44.23 10.1478C44.3384 10.0782 44.4322 9.98803 44.506 9.88254L44.5287 9.84997C44.5344 9.84178 44.5394 9.83297 44.5435 9.82355L44.5445 9.82129C44.575 9.74981 44.5447 9.66685 44.4752 9.63223C44.4492 9.61912 44.4197 9.6142 44.3908 9.61789L44.0574 9.6609L44.0404 9.68569C43.8404 9.97636 43.5985 10.2357 43.3222 10.4549L42.8193 10.8541C42.6952 10.9639 42.754 11.1685 42.9174 11.1958C42.9711 11.2048 43.0186 11.2355 43.0489 11.2808L43.372 11.7654C43.3974 11.8035 43.4353 11.8316 43.4791 11.8447L43.536 11.8617C43.5871 11.8771 43.6299 11.9125 43.6542 11.9598L43.8187 12.2779L43.8615 12.2339L44.1483 11.9471L44.3644 11.7054L44.3642 11.7058Z" fill="#FFB2D2"/>
<path d="M40.629 12.8002L40.7785 13.1046L40.6665 12.6564C40.6321 12.5188 40.6147 12.3775 40.6147 12.2355V11.6693C40.6147 11.5884 40.6204 11.5077 40.6317 11.4276L40.679 11.0904C40.5495 11.0433 40.4004 11.0569 40.2824 11.131L40.3435 11.3221C40.374 11.4178 40.3963 11.5161 40.4098 11.6157L40.435 11.8C40.4457 11.8776 40.451 11.9561 40.451 12.0346C40.451 12.3 40.5118 12.5622 40.6292 12.8004L40.629 12.8002Z" fill="#FFB2D2"/>
<path d="M28.8671 5.05471C29.5298 5.05471 30.067 4.49528 30.067 3.80519C30.067 3.11509 29.5298 2.55566 28.8671 2.55566C28.2044 2.55566 27.6671 3.11509 27.6671 3.80519C27.6671 4.49528 28.2044 5.05471 28.8671 5.05471Z" fill="#FFEAF4"/>
</svg>
