<svg width="160" height="161" viewBox="0 0 160 161" fill="none" xmlns="http://www.w3.org/2000/svg">
<mask id="mask0_4525_145694" style="mask-type:alpha" maskUnits="userSpaceOnUse" x="0" y="1" width="160" height="160">
<ellipse cx="80" cy="80.5833" rx="80" ry="79.5833" fill="#EBF8FF"/>
</mask>
<g mask="url(#mask0_4525_145694)">
<path d="M195.456 -28.1667H-47.1222C-48.7034 -28.1682 -50.2693 -27.858 -51.7306 -27.2539C-53.1918 -26.6499 -54.5196 -25.7637 -55.6382 -24.6462C-56.7568 -23.5286 -57.6442 -22.2016 -58.2496 -20.7409C-58.855 -19.2803 -59.1666 -17.7146 -59.1666 -16.1334V126.455C-59.1666 129.65 -57.8977 132.713 -55.6389 134.972C-53.3801 137.231 -50.3166 138.5 -47.1222 138.5H195.456C198.65 138.5 201.714 137.231 203.972 134.972C206.231 132.713 207.5 129.65 207.5 126.455V-16.1334C207.5 -17.7146 207.188 -19.2803 206.583 -20.7409C205.978 -22.2016 205.09 -23.5286 203.972 -24.6462C202.853 -25.7637 201.525 -26.6499 200.064 -27.2539C198.603 -27.858 197.037 -28.1682 195.456 -28.1667V-28.1667Z" fill="#111619"/>
<mask id="mask1_4525_145694" style="mask-type:alpha" maskUnits="userSpaceOnUse" x="-60" y="34" width="268" height="167">
<path d="M-47.1222 34.3333H195.456C197.037 34.3318 198.603 34.642 200.064 35.2461C201.525 35.8501 202.853 36.7363 203.972 37.8538C205.09 38.9714 205.978 40.2984 206.583 41.7591C207.188 43.2197 207.5 44.7854 207.5 46.3666V188.955C207.5 192.15 206.231 195.213 203.972 197.472C201.713 199.731 198.65 201 195.456 201H-47.1222C-50.3166 201 -53.3801 199.731 -55.6389 197.472C-57.8977 195.213 -59.1667 192.15 -59.1667 188.955V46.3666C-59.1667 44.7854 -58.855 43.2197 -58.2496 41.7591C-57.6442 40.2984 -56.7568 38.9714 -55.6382 37.8538C-54.5197 36.7363 -53.1918 35.8501 -51.7306 35.2461C-50.2693 34.642 -48.7034 34.3318 -47.1222 34.3333V34.3333Z" fill="#EBF8FF"/>
</mask>
<g mask="url(#mask1_4525_145694)">
<path d="M-47.1222 34.3333H195.456C197.037 34.3318 198.603 34.642 200.064 35.2461C201.525 35.8501 202.853 36.7363 203.972 37.8538C205.09 38.9714 205.978 40.2984 206.583 41.7591C207.188 43.2197 207.5 44.7854 207.5 46.3666V188.955C207.5 192.15 206.231 195.213 203.972 197.472C201.713 199.731 198.65 201 195.456 201H-47.1222C-50.3166 201 -53.3801 199.731 -55.6389 197.472C-57.8977 195.213 -59.1667 192.15 -59.1667 188.955V46.3666C-59.1667 44.7854 -58.855 43.2197 -58.2496 41.7591C-57.6442 40.2984 -56.7568 38.9714 -55.6382 37.8538C-54.5197 36.7363 -53.1918 35.8501 -51.7306 35.2461C-50.2693 34.642 -48.7034 34.3318 -47.1222 34.3333V34.3333Z" fill="#111619"/>
<path d="M-54.356 130.803C-28.1615 128.435 -2.05609 132.113 23.894 135.382C41.5176 137.602 59.1778 139.499 76.7946 141.783C94.5942 144.089 112.394 146.45 130.257 148.229C139.155 149.114 148.064 149.879 156.991 150.403C165.701 150.913 174.566 150.055 183.252 149.406C191.32 148.8 199.409 148.163 207.493 147.911V201.327H-59.1668V131.224C-57.5677 131.084 -55.9664 130.95 -54.3583 130.803H-54.356Z" fill="#384D69"/>
<g style="mix-blend-mode:screen" opacity="0.6">
<path d="M156.265 151.632C155.673 151.744 174.357 156.689 177.826 157.425C173.461 158.721 122.877 163.094 102.181 161.094C91.4054 160.051 81.0436 157.891 70.5403 155.368C62.0608 153.329 53.3643 151.795 45.2321 148.572C52.1125 148.674 66.5061 150.014 66.0127 149.781C54.0542 144.093 40.5949 142.534 28.111 138.324C24.0791 136.966 20.0564 135.562 15.972 134.378C18.6127 134.712 21.2534 135.048 23.8941 135.382C41.5178 137.601 59.178 139.499 76.7948 141.782C94.5943 144.089 112.394 146.45 130.257 148.229C139.155 149.113 148.064 149.879 156.991 150.403C160.189 150.59 163.41 150.59 166.633 150.487C163.159 150.679 159.696 150.983 156.262 151.632H156.265Z" fill="#252F3A"/>
</g>
<g style="mix-blend-mode:multiply" opacity="0.4">
<path d="M-54.3559 130.803C-34.2354 128.986 -14.1698 130.734 5.81125 133.123C5.15336 133.13 4.50004 133.119 3.83987 133.132C-3.26213 133.29 -11.3487 133.187 -18.0943 135.72C-19.5928 136.282 -22.1239 137.359 -21.9823 139.368C-21.7538 142.624 -17.1326 144.889 -14.6541 145.968C-8.4864 148.656 -1.61969 150.286 4.93408 151.715C13.0183 153.475 21.2945 154.856 29.5295 155.701C44.661 157.256 60.151 156.988 74.9855 160.648C63.943 161.604 41.0586 162.758 41.7804 162.786C49.1657 163.08 56.4139 164.459 63.6506 165.878C49.7939 167.216 35.8868 167.856 22.0894 169.796C14.3958 170.878 6.78895 172.238 -0.838447 173.703C-4.45684 174.396 -8.12547 174.78 -11.7233 175.575C-15.031 176.307 -19.2982 177.121 -21.6602 179.793C-22.8869 181.183 -22.6973 183.057 -21.1713 184.104C-18.7888 185.743 -15.5427 186.113 -12.7467 186.436C-9.14658 186.85 -5.51906 187.003 -1.89838 187.037C12.0977 187.17 26.0459 187.581 39.9895 185.965C56.9096 184.006 73.9325 182.122 90.3842 177.566C98.9414 175.198 107.419 172.482 116.069 170.466C124.613 168.477 133.252 166.928 141.939 165.734C150.926 164.5 160.027 163.314 169.091 162.84C177.838 162.383 196.076 161.633 195.491 161.444C190.258 159.736 184.896 158.554 179.471 157.704C183.119 157.624 186.792 158.111 190.447 158.154C191.048 158.161 181.394 155.118 176.748 154.392C185.049 152.481 197.972 157.971 202.625 148.894C202.783 148.585 202.653 148.268 202.356 148.126C204.069 148.041 205.784 147.964 207.5 147.909V201.324H-59.1598V131.224C-57.5608 131.084 -55.9595 130.949 -54.3513 130.803H-54.3559Z" fill="#384D69"/>
</g>
</g>
<ellipse cx="70" cy="68.2221" rx="1.66667" ry="1.66667" fill="#EEF8FE"/>
<ellipse cx="15" cy="103.222" rx="1.11111" ry="1.11111" fill="#EEF8FE"/>
<ellipse cx="142.778" cy="66.5555" rx="1.11111" ry="1.11111" fill="#EEF8FE"/>
<ellipse cx="15.5556" cy="52.6667" rx="1.66667" ry="1.66667" fill="#EEF8FE"/>
<path d="M2.18688 134.742H17.4764V145.101H2.18688V134.742Z" fill="#384D69"/>
<path d="M0.450167 135.413C-0.178663 135.922 -0.0229602 136.312 0.779547 136.312H19.2851C20.0936 136.312 20.2374 135.898 19.6085 135.413L10.9486 128.541C10.6214 128.292 10.2217 128.158 9.81076 128.158C9.39976 128.158 9.00009 128.292 8.67288 128.541L0.450167 135.413Z" fill="#252F3A"/>
<path d="M13.3741 138.247C12.8976 138.247 12.4406 138.436 12.1037 138.773C11.7667 139.11 11.5774 139.568 11.5774 140.044V145.167H15.0989V140.044C15.0989 139.568 14.9096 139.11 14.5727 138.773C14.2357 138.436 13.7787 138.247 13.3022 138.247H13.3741Z" fill="#252F3A"/>
<path d="M-19.9479 137.834L9.2179 144.238L9.3197 126.343H-19.9479V137.834Z" fill="#384D69"/>
<path d="M-19.6843 120.459H9.39759C9.6023 120.458 9.80514 120.498 9.99441 120.576C10.1837 120.654 10.3557 120.769 10.5004 120.913C10.6451 121.058 10.7598 121.23 10.8378 121.42C10.9158 121.609 10.9555 121.812 10.9547 122.017V128.721C10.9547 129.134 10.7906 129.53 10.4986 129.822C10.2066 130.114 9.81056 130.279 9.39759 130.279H-19.6843C-20.0978 130.279 -20.4945 130.115 -20.7875 129.823C-21.0804 129.531 -21.2458 129.135 -21.2474 128.721V122.017C-21.2474 121.812 -21.2069 121.609 -21.1283 121.419C-21.0497 121.23 -20.9344 121.058 -20.7892 120.913C-20.644 120.768 -20.4716 120.654 -20.282 120.576C-20.0924 120.498 -19.8893 120.458 -19.6843 120.459V120.459Z" fill="#252F3A"/>
<path d="M2.89364 133.184C2.71889 133.183 2.54571 133.217 2.38424 133.284C2.22277 133.351 2.07629 133.449 1.95341 133.574C1.82888 133.697 1.72986 133.843 1.66203 134.005C1.5942 134.166 1.55889 134.339 1.55814 134.514V137.672H4.24713V134.532C4.24653 134.355 4.20985 134.18 4.13934 134.017C4.07613 133.854 3.97801 133.707 3.85186 133.586C3.72596 133.461 3.57626 133.363 3.41166 133.297C3.24705 133.231 3.07089 133.199 2.89364 133.202V133.184Z" fill="#252F3A"/>
<path d="M32.177 57.9443H9.56117C8.64327 57.9443 7.73437 58.124 6.88634 58.473C6.03831 58.8219 5.26777 59.3335 4.61872 59.9783C3.96966 60.6232 3.45478 61.3887 3.10351 62.2313C2.75225 63.0738 2.57147 63.9768 2.57147 64.8888C2.57147 65.8007 2.75225 66.7038 3.10351 67.5463C3.45478 68.3888 3.96966 69.1544 4.61872 69.7992C5.26777 70.4441 6.03831 70.9556 6.88634 71.3046C7.73437 71.6536 8.64327 71.8332 9.56117 71.8332H32.177C34.0308 71.8332 35.8086 71.1016 37.1195 69.7992C38.4303 68.4969 39.1667 66.7306 39.1667 64.8888C39.1667 63.047 38.4303 61.2806 37.1195 59.9783C35.8086 58.676 34.0308 57.9443 32.177 57.9443V57.9443Z" fill="#2A4259"/>
<path d="M170.762 91.8333H151.655C150.88 91.8333 150.112 91.9841 149.395 92.2773C148.679 92.5704 148.028 93.0001 147.48 93.5418C146.931 94.0835 146.496 94.7265 146.2 95.4343C145.903 96.142 145.75 96.9005 145.75 97.6666C145.75 98.4326 145.903 99.1912 146.2 99.8989C146.496 100.607 146.931 101.25 147.48 101.791C148.028 102.333 148.679 102.763 149.395 103.056C150.112 103.349 150.88 103.5 151.655 103.5H170.762C172.328 103.5 173.83 102.885 174.937 101.791C176.045 100.697 176.667 99.2137 176.667 97.6666C176.667 96.1195 176.045 94.6358 174.937 93.5418C173.83 92.4478 172.328 91.8333 170.762 91.8333V91.8333Z" fill="#2A4259"/>
<path d="M160.845 86H141.738C140.963 86 140.195 86.1509 139.479 86.444C138.762 86.7372 138.111 87.1669 137.563 87.7085C137.015 88.2502 136.58 88.8933 136.283 89.601C135.986 90.3087 135.833 91.0673 135.833 91.8333C135.833 92.5994 135.986 93.3579 136.283 94.0657C136.58 94.7734 137.015 95.4164 137.563 95.9581C138.111 96.4998 138.762 96.9295 139.479 97.2226C140.195 97.5158 140.963 97.6667 141.738 97.6667H160.845C162.411 97.6667 163.913 97.0521 165.02 95.9581C166.128 94.8642 166.75 93.3804 166.75 91.8333C166.75 90.2862 166.128 88.8025 165.02 87.7085C163.913 86.6146 162.411 86 160.845 86V86Z" fill="#2A4259"/>
<path d="M204.136 47.1824C204.136 48.8306 202.8 50.1667 201.152 50.1667H47.1324C46.2863 50.1667 45.48 49.8076 44.9141 49.1787L40.0999 43.8292C39.0785 42.6942 39.0785 40.9713 40.1 39.8364L44.9141 34.4876C45.4801 33.8588 46.2863 33.4998 47.1323 33.4998H201.152C202.8 33.4998 204.136 34.8359 204.136 36.4841V47.1824Z" fill="#848F97"/>
<path d="M84.1667 34.7499C84.1667 33.1391 85.4725 31.8333 87.0834 31.8333V31.8333C88.6942 31.8333 90 33.1391 90 34.7499V50.1666H84.1667V34.7499Z" fill="#708EB4"/>
<path d="M86.8405 48.5C85.0535 48.5 83.3397 49.2099 82.0761 50.4736C80.8125 51.7373 80.1027 53.4512 80.1027 55.2383V64.5821H93.5784V55.2458C93.5794 54.3603 93.4058 53.4832 93.0676 52.6648C92.7295 51.8464 92.2333 51.1028 91.6075 50.4763C90.9818 49.8498 90.2387 49.3527 89.4207 49.0136C88.6028 48.6745 87.726 48.5 86.8405 48.5Z" fill="#B65C22"/>
<path d="M121.997 93.0476V123.49H51.2048V93.0476C51.2048 83.6594 54.934 74.6556 61.5721 68.0171C68.2101 61.3786 77.2133 57.6492 86.6009 57.6492C95.9885 57.6492 104.992 61.3786 111.63 68.0171C118.268 74.6556 121.997 83.6594 121.997 93.0476V93.0476Z" fill="#DE7948"/>
<path d="M86.8406 144.333C91.6285 144.333 95.5099 140.452 95.5099 135.664C95.5099 130.875 91.6285 126.994 86.8406 126.994C82.0526 126.994 78.1712 130.875 78.1712 135.664C78.1712 140.452 82.0526 144.333 86.8406 144.333Z" fill="#DE7948"/>
<path d="M129.94 126.993C127.814 126.552 121.997 123.49 121.997 123.49H51.205C51.205 123.49 45.3879 126.552 43.2618 126.993C41.1356 127.435 39.1667 128.828 39.1667 131.089C39.1667 132.175 39.5981 133.217 40.3661 133.985C41.1341 134.753 42.1757 135.184 43.2618 135.184H129.94C131.026 135.184 132.068 134.753 132.836 133.985C133.604 133.217 134.035 132.175 134.035 131.089C134.058 128.828 132.149 127.465 129.94 126.993Z" fill="#B65C22"/>
<path opacity="0.5" d="M83.1277 57.6042C74.3735 58.4775 66.254 62.5885 60.3445 69.1395C54.435 75.6905 51.1568 84.2146 51.1458 93.058V123.729H117.271V93.2315C117.269 84.0066 113.712 75.1412 107.345 68.4977C100.978 61.8542 92.298 57.9497 83.1277 57.6042V57.6042Z" fill="#B65C22"/>
</g>
<path d="M115.311 2.0061L101.901 5.71208L116.6 6.22325L115.311 2.0061Z" fill="#DE7948"/>
<path d="M110.282 8.14021L101.901 5.71216L111.442 5.96774L110.282 8.14021Z" fill="#B65C22"/>
<path d="M122.872 37.7713H142.619C147.232 37.7713 149.547 32.2477 146.3 29.0083L132.24 15.0221L120.578 3.42256C116.449 -0.685397 109.37 2.20667 109.37 8.01165V24.3809C109.369 27.9309 110.791 31.3358 113.323 33.8468C115.856 36.3578 119.29 37.7695 122.872 37.7713V37.7713Z" fill="#252F3A"/>
<path opacity="0.5" d="M118.095 7.34507C117.196 6.45442 117.196 5.01066 118.094 4.12035C118.992 3.23004 120.449 3.23032 121.348 4.12097L156.493 38.9523C157.392 39.843 157.392 41.2867 156.494 42.177C155.596 43.0674 154.139 43.0671 153.24 42.1764L118.095 7.34507Z" fill="#CEDBE8"/>
<path d="M122.88 9.62549L117.788 14.6723C116.407 16.0404 115.632 17.896 115.632 19.8309C115.632 21.7657 116.407 23.6212 117.788 24.9894L122.433 29.5928C125.164 32.3003 128.869 33.8218 132.732 33.8227C136.595 33.8237 140.3 32.3039 143.033 29.5977V29.5977L122.88 9.62549Z" fill="#708EB4"/>
<path d="M146.291 29.0081L132.231 15.0219L120.569 3.42237C118.356 1.21988 120.436 6.12858 118.072 7.32188C117.65 6.89268 117.416 6.31612 117.42 5.71698C117.424 5.11785 117.665 4.54436 118.093 4.12063C118.524 3.69338 119.109 3.45339 119.719 3.45339C120.329 3.45339 120.914 3.69338 121.346 4.12063L156.493 38.954C156.924 39.3817 157.167 39.9614 157.167 40.5659C157.167 41.1704 156.924 41.7502 156.493 42.1778V42.1778C156.28 42.3897 156.026 42.5577 155.747 42.6723C155.467 42.7869 155.168 42.8459 154.866 42.8459C154.564 42.8459 154.264 42.7869 153.985 42.6723C153.706 42.5577 153.452 42.3897 153.239 42.1778L146.754 35.751C148.187 33.8403 148.289 30.9952 146.291 29.0081Z" fill="#708EB4"/>
<path d="M120.569 3.42248L132.231 15.022L146.291 29.0082C148.289 30.9953 148.187 33.8405 146.748 35.7442L112.949 2.24829C112.942 2.24033 112.935 2.23279 112.928 2.2257C115.288 1.0324 118.356 1.22 120.569 3.42248Z" fill="#708EB4"/>
<path d="M114.405 7.04818C114.25 7.30758 113.604 7.20725 112.961 6.82409C112.319 6.44092 111.923 5.92001 112.078 5.66061C112.232 5.40121 112.879 5.50154 113.521 5.8847C114.164 6.26787 114.56 6.78878 114.405 7.04818Z" fill="#708EB4"/>
<path d="M98.6069 6.95977C98.8804 7.32135 98.6365 7.84142 98.1837 7.86242L91.5775 8.16881C88.535 8.30991 86.4331 5.16616 87.7261 2.40852C89.0191 -0.349122 92.7802 -0.743817 94.6175 1.68532L98.6069 6.95977Z" fill="#2A4259"/>
</svg>
