<svg width="45" height="45" viewBox="0 0 45 45" fill="none" xmlns="http://www.w3.org/2000/svg">
<g clip-path="url(#clip0_4211_44392)">
<g clip-path="url(#clip1_4211_44392)">
<path d="M14.769 8.54716C13.7837 9.03981 1.25212 19.2211 1.25212 19.2211C0.656846 19.7959 0.513159 20.6991 1.14949 21.2429L23.2877 39.6349C23.3492 39.6863 23.4211 39.7479 23.4826 39.7889C23.9547 40.1378 24.4166 40.3226 24.9503 40.374C25.2993 40.4047 25.6482 40.3226 25.9869 40.22L29.1838 38.9747L17.0167 8.41374C17.0167 8.41374 15.7646 8.05452 14.7792 8.5369L14.769 8.54716Z" fill="#101619"/>
<path d="M25.5582 35.0771L3.21484 16.6953V18.163C3.21484 18.7172 3.44064 19.2406 3.86144 19.5896L24.7474 37.5608C26.2151 38.7616 27.4775 39.0901 28.4012 39.0798V35.5184L25.5582 35.0873V35.0771Z" fill="#046C7C"/>
<path d="M44.4235 27.1174C45.1112 26.5631 45.2549 25.8857 45.2549 25.3315V24.3359L30.1471 35.7797L28.4023 35.5128V39.0742C29.2131 39.0742 29.7674 38.7971 29.9829 38.6124L44.4337 27.1071L44.4235 27.1174Z" fill="#4D82B8"/>
<path d="M30.8944 37.0271C29.55 38.1767 27.3433 38.1767 25.9783 37.0271L3.95307 18.3888C2.82409 17.4343 3.00883 15.9051 4.33281 14.9711L17.8292 5.8264C19.0505 4.97453 20.9492 4.97453 22.0884 5.8264L44.1651 22.4736C45.5198 23.4999 45.643 25.1729 44.4217 26.2198L30.9047 37.0271H30.8944Z" fill="#0899A7"/>
<path d="M18.5694 6.71162L5.46313 15.6305C4.47784 16.3182 4.34441 17.4574 5.18601 18.1553L26.421 36.0342C27.4268 36.8757 29.0586 36.8757 30.0439 36.0342L43.1811 25.5861C44.0843 24.806 44.0021 23.5744 42.9963 22.8149L21.7306 6.71162C20.889 6.07529 19.4829 6.07529 18.5694 6.71162Z" fill="#D5DADD"/>
<path fill-rule="evenodd" clip-rule="evenodd" d="M11.3142 25.6004C11.1188 25.7357 10.2621 25.871 10.0366 25.6756L8.08262 24.0824C7.94734 23.8569 7.85715 23.5413 8.54856 23.3609C8.98445 23.2407 9.22494 23.3609 9.4504 23.5413L11.2541 25.0143C11.4795 25.1946 11.5096 25.4651 11.3142 25.6004Z" fill="#00144A"/>
<path fill-rule="evenodd" clip-rule="evenodd" d="M10.7131 25.7051C10.5177 25.8403 10.1719 25.8103 9.94649 25.6148L8.14282 24.1418C7.91735 23.9615 7.8873 23.691 8.08269 23.5557C8.27809 23.4204 8.6238 23.4504 8.84925 23.6458L10.6529 25.1188C10.8784 25.2992 10.9084 25.5698 10.7131 25.7051Z" fill="#0899A7"/>
<path fill-rule="evenodd" clip-rule="evenodd" d="M19.2983 16.8702C16.6606 18.7587 16.4553 21.9917 18.9596 24.0545C21.505 26.1483 25.8156 26.1689 28.4122 24.1162C31.0088 22.0635 30.8652 18.9229 28.3609 16.9934C25.8976 15.1049 21.8642 15.0433 19.2983 16.8805V16.8702ZM27.2319 19.8261C27.6733 19.8261 28.0428 20.1134 28.0428 20.4624C28.0428 20.6369 27.9503 20.7908 27.8066 20.9037C27.663 21.0166 27.4577 21.0885 27.2319 21.0885L24.584 21.068L24.5532 23.1514C24.5532 23.5107 24.1734 23.798 23.7116 23.798C23.2497 23.798 22.8905 23.5004 22.8905 23.1412L22.9419 21.0474L20.2733 21.0269C19.8217 21.0269 19.4625 20.7395 19.4728 20.3803C19.4934 20.0313 19.8628 19.7542 20.3144 19.7542L22.9623 19.785L23.0137 17.7734C23.0137 17.4347 23.3831 17.1678 23.8245 17.1781C24.2658 17.1781 24.6147 17.4552 24.6147 17.7939L24.584 19.7953L27.2114 19.8261H27.2319Z" fill="#D20A0A"/>
</g>
</g>
<defs>
<clipPath id="clip0_4211_44392">
<rect width="45" height="45" fill="white"/>
</clipPath>
<clipPath id="clip1_4211_44392">
<rect width="44.5312" height="35.625" fill="white" transform="translate(0.734375 5.1875)"/>
</clipPath>
</defs>
</svg>
