<svg width="130" height="128" viewBox="0 0 130 128" fill="none" xmlns="http://www.w3.org/2000/svg">
<g clip-path="url(#clip0_4413_116620)">
<path d="M-1.08875 87.8789L72.0058 88.6929L98.8707 109.702L50.3182 108.538L-1.08875 87.8789Z" fill="#1B90FF"/>
<path d="M93.9426 109.699L95.5224 16.2461H53.8417V107.317L88.7896 120.886H127.677L93.9426 109.699Z" fill="#FFDF72"/>
<path d="M50.2112 11.6211H97.8635V109.695H93.9429V14.7924H52.9629V108.531H50.3169L50.2112 11.6211Z" fill="#C35500"/>
<path d="M52.9625 14.7891L52.9867 14.8222L52.9625 108.528L54.5634 106.975V17.1917H93.9425V14.7891H52.9625Z" fill="#A93E00"/>
<path d="M98.8697 11.6211H97.8639V109.695H98.8697V11.6211Z" fill="#A93E00"/>
<path d="M52.9625 14.7891V108.528L54.5634 106.975L53.8415 16.2391L52.9625 14.7891Z" fill="#340800"/>
<path d="M53.8417 14.1921V107.804L78.3354 116.881V4.35547L53.8417 14.1921Z" fill="#C35500"/>
<path d="M79.9582 4.35547H78.3362V116.881L79.9582 116.516V4.35547Z" fill="#340800"/>
<circle cx="4.07188" cy="4.07188" r="4.07188" transform="matrix(0.866025 0.5 -0.309017 0.951057 71.7694 55.7539)" fill="#FFDF72"/>
</g>
<defs>
<clipPath id="clip0_4413_116620">
<rect width="128" height="122.41" fill="white" transform="translate(0 1.36719)"/>
</clipPath>
</defs>
</svg>
