<svg width="320" height="240" viewBox="0 0 320 240" fill="none" xmlns="http://www.w3.org/2000/svg">
<path d="M130.573 136.066H33.9598C18.1939 136.066 5.41309 148.847 5.41309 164.613C5.41309 180.379 18.1939 193.16 33.9598 193.16H130.573C146.339 193.16 159.12 180.379 159.12 164.613C159.12 148.847 146.339 136.066 130.573 136.066Z" fill="#EBF8FF"/>
<path d="M165.747 164.399H69.1336C53.3677 164.399 40.5869 177.18 40.5869 192.946C40.5869 208.712 53.3677 221.493 69.1336 221.493H165.747C181.513 221.493 194.294 208.712 194.294 192.946C194.294 177.18 181.513 164.399 165.747 164.399Z" fill="#EBF8FF"/>
<path d="M291.453 85.4531H194.84C179.074 85.4531 166.293 98.2339 166.293 114C166.293 129.766 179.074 142.546 194.84 142.546H291.453C307.219 142.546 320 129.766 320 114C320 98.2339 307.219 85.4531 291.453 85.4531Z" fill="#EBF8FF"/>
<path d="M219.453 33.333H37.8267C16.9356 33.333 0 50.2686 0 71.1597V71.173C0 92.0641 16.9356 109 37.8267 109H219.453C240.344 109 257.28 92.0641 257.28 71.173V71.1597C257.28 50.2686 240.344 33.333 219.453 33.333Z" fill="#EBF8FF"/>
<g clip-path="url(#clip0_2698_32522)">
<path d="M149.832 230.644H259.937C261.252 230.643 262.551 230.354 263.743 229.797C264.935 229.241 265.991 228.43 266.837 227.422C267.682 226.415 268.297 225.234 268.638 223.964C268.979 222.693 269.038 221.363 268.81 220.068L241.396 64.3543C241.029 62.2676 239.938 60.3771 238.315 59.0153C236.692 57.6535 234.641 56.9078 232.522 56.9092H122.374C121.059 56.9104 119.76 57.1994 118.568 57.756C117.376 58.3125 116.32 59.1231 115.475 60.1308C114.629 61.1385 114.014 62.319 113.673 63.5895C113.332 64.86 113.274 66.1897 113.501 67.4853L140.915 223.199C141.289 225.29 142.387 227.183 144.018 228.545C145.649 229.907 147.708 230.65 149.832 230.644Z" fill="#D5DADD"/>
<path d="M259.937 232H149.832C147.393 232.003 145.031 231.145 143.162 229.577C141.293 228.009 140.038 225.832 139.617 223.43L112.159 67.8028C111.896 66.3108 111.962 64.7793 112.354 63.3159C112.746 61.8524 113.453 60.4926 114.427 59.3319C115.401 58.1712 116.617 57.2379 117.99 56.5975C119.363 55.9571 120.859 55.6251 122.374 55.625H232.479C234.918 55.6223 237.28 56.4804 239.149 58.0483C241.018 59.6161 242.273 61.793 242.695 64.1956L270.109 219.895C270.372 221.387 270.306 222.918 269.914 224.382C269.522 225.845 268.814 227.205 267.841 228.366C266.867 229.526 265.651 230.46 264.278 231.1C262.905 231.74 261.408 232.072 259.893 232.072L259.937 232ZM122.374 58.2655C121.256 58.2654 120.151 58.5102 119.137 58.9828C118.123 59.4554 117.225 60.1442 116.506 61.0009C115.787 61.8576 115.264 62.8614 114.974 63.9418C114.684 65.0221 114.634 66.1528 114.828 67.2545L142.243 222.954C142.552 224.729 143.479 226.339 144.86 227.498C146.24 228.657 147.986 229.291 149.789 229.288H259.937C261.054 229.285 262.158 229.039 263.171 228.565C264.183 228.092 265.08 227.403 265.799 226.547C266.518 225.691 267.041 224.688 267.332 223.609C267.622 222.53 267.674 221.4 267.483 220.299L240.069 64.5996C239.759 62.8237 238.832 61.2143 237.451 60.0553C236.071 58.8964 234.325 58.2625 232.522 58.2655H122.374Z" fill="#D5DADD"/>
<path d="M155.762 224.757H265.867C267.183 224.759 268.483 224.471 269.677 223.915C270.87 223.36 271.927 222.549 272.773 221.541C273.619 220.532 274.233 219.351 274.573 218.079C274.913 216.808 274.97 215.477 274.74 214.181L247.326 58.4821C246.962 56.3927 245.873 54.4988 244.249 53.1341C242.626 51.7695 240.573 51.0216 238.452 51.0225H128.348C127.03 51.0238 125.729 51.3132 124.536 51.8704C123.342 52.4277 122.285 53.2393 121.438 54.2484C120.591 55.2574 119.975 56.4395 119.633 57.7117C119.292 58.9839 119.232 60.3155 119.46 61.6131L146.874 217.312C147.244 219.4 148.337 221.291 149.963 222.652C151.588 224.014 153.642 224.759 155.762 224.757Z" fill="white"/>
<path d="M265.867 226.128H155.762C153.309 226.13 150.936 225.26 149.065 223.675C147.194 222.089 145.947 219.89 145.546 217.471L118.132 61.7715C117.869 60.2796 117.935 58.7481 118.327 57.2846C118.719 55.8212 119.427 54.4613 120.4 53.3006C121.374 52.1399 122.59 51.2066 123.963 50.5662C125.336 49.9258 126.833 49.5939 128.348 49.5938H238.452C240.891 49.5939 243.251 50.4531 245.119 52.0204C246.987 53.5877 248.244 55.763 248.668 58.1643L276.082 213.863C276.345 215.357 276.278 216.891 275.886 218.356C275.493 219.821 274.785 221.182 273.81 222.344C272.835 223.506 271.617 224.441 270.242 225.082C268.867 225.723 267.369 226.055 265.852 226.056L265.867 226.128ZM128.348 52.3785C127.229 52.3784 126.124 52.6233 125.11 53.0958C124.096 53.5684 123.198 54.2572 122.479 55.1139C121.76 55.9706 121.237 56.9744 120.947 58.0548C120.657 59.1351 120.608 60.2659 120.801 61.3675L148.216 217.081C148.528 218.854 149.457 220.46 150.837 221.616C152.217 222.772 153.961 223.404 155.762 223.401H265.852C266.971 223.403 268.078 223.16 269.093 222.688C270.108 222.217 271.007 221.528 271.727 220.67C272.446 219.813 272.969 218.808 273.258 217.727C273.547 216.645 273.595 215.514 273.398 214.412L245.984 58.7126C245.672 56.938 244.744 55.3302 243.364 54.1718C241.984 53.0133 240.24 52.3784 238.438 52.3785H128.348Z" fill="#00144A"/>
<path d="M170.811 49.3481L178.992 96.6595C179.194 97.8715 177.838 98.492 176.813 97.6407L160.942 84.5106C160.677 84.2714 160.332 84.1389 159.975 84.1389C159.618 84.1389 159.274 84.2714 159.009 84.5106L148.259 97.2944C147.523 98.1601 145.922 97.5253 145.72 96.2988L137.856 49.3048C137.805 49.132 137.796 48.9495 137.83 48.7726C137.865 48.5957 137.941 48.4295 138.052 48.2881C138.164 48.1467 138.308 48.0342 138.472 47.9601C138.636 47.8859 138.816 47.8523 138.996 47.862H169.181C169.583 47.8815 169.966 48.0405 170.263 48.3118C170.561 48.583 170.755 48.9495 170.811 49.3481Z" fill="#00144A"/>
<path d="M174.058 47.3578L182.239 94.6692C182.455 95.8957 181.099 96.5161 180.06 95.6648L164.188 82.5348C163.923 82.2955 163.579 82.1631 163.222 82.1631C162.865 82.1631 162.52 82.2955 162.255 82.5348L151.434 95.3329C150.712 96.1987 149.111 95.5638 148.909 94.323L141.031 47.329C140.996 47.1613 140.999 46.9878 141.041 46.8216C141.082 46.6555 141.161 46.5008 141.27 46.3691C141.38 46.2374 141.518 46.1321 141.673 46.0609C141.829 45.9898 141.999 45.9547 142.17 45.9583H172.384C172.782 45.9614 173.166 46.1028 173.472 46.3581C173.777 46.6134 173.984 46.9667 174.058 47.3578Z" fill="white"/>
<path d="M182.152 95.52C181.832 95.5213 181.521 95.409 181.275 95.2029C181.03 94.9969 180.865 94.7105 180.81 94.3946L179.656 87.7141C179.595 87.3582 179.677 86.9926 179.886 86.6977C180.094 86.4027 180.411 86.2026 180.767 86.1414C181.123 86.0802 181.489 86.1629 181.783 86.3712C182.078 86.5796 182.278 86.8966 182.34 87.2524L183.494 93.9329C183.535 94.2858 183.444 94.6415 183.239 94.9317C183.034 95.2219 182.729 95.4263 182.383 95.5056L182.152 95.52ZM177.694 95.0583C177.38 95.0542 177.076 94.9478 176.828 94.7553L171.59 90.4267C171.313 90.1971 171.138 89.8667 171.104 89.5082C171.07 89.1497 171.18 88.7924 171.41 88.5149C171.64 88.2375 171.97 88.0627 172.329 88.0288C172.687 87.995 173.044 88.105 173.322 88.3346L178.559 92.6632C178.772 92.8418 178.925 93.0813 178.997 93.3496C179.069 93.6178 179.057 93.9018 178.963 94.1631C178.869 94.4243 178.696 94.6503 178.469 94.8104C178.242 94.9705 177.972 95.0571 177.694 95.0583ZM153.064 94.7986C152.747 94.8009 152.439 94.6881 152.198 94.4811C151.938 94.2388 151.776 93.909 151.745 93.5548C151.713 93.2006 151.812 92.8471 152.025 92.5622L156.354 87.3679C156.585 87.0923 156.917 86.9201 157.275 86.889C157.634 86.8578 157.99 86.9704 158.266 87.2019C158.541 87.4335 158.713 87.7649 158.744 88.1235C158.776 88.482 158.663 88.8382 158.431 89.1137L154.103 94.308C153.979 94.464 153.821 94.5894 153.641 94.6744C153.461 94.7595 153.263 94.802 153.064 94.7986ZM148.736 94.7986C148.414 94.7988 148.104 94.6839 147.86 94.4748C147.617 94.2656 147.456 93.9761 147.408 93.6587L146.283 86.9639C146.249 86.6215 146.346 86.2791 146.555 86.0058C146.764 85.7325 147.069 85.5489 147.408 85.492C147.747 85.4352 148.096 85.5094 148.382 85.6996C148.669 85.8898 148.873 86.1819 148.952 86.5166L150.077 93.2114C150.108 93.3877 150.104 93.5684 150.065 93.7431C150.026 93.9178 149.953 94.083 149.849 94.2292C149.746 94.3754 149.615 94.4997 149.463 94.5949C149.312 94.6902 149.143 94.7545 148.966 94.7842L148.736 94.7986ZM167.175 86.4877C166.865 86.4882 166.564 86.3811 166.324 86.1847L163.251 83.6453H163.135L162.789 84.0493C162.559 84.3239 162.229 84.4962 161.872 84.5287C161.516 84.5611 161.16 84.451 160.884 84.2224C160.624 83.9801 160.463 83.6502 160.431 83.2961C160.399 82.9419 160.499 82.5884 160.711 82.3034L161.144 81.7984C161.649 81.3014 162.32 81.0075 163.027 80.9729C163.735 80.9383 164.431 81.1654 164.982 81.6109L168.041 84.1503C168.254 84.3288 168.407 84.5685 168.479 84.8367C168.551 85.105 168.539 85.3889 168.445 85.6502C168.35 85.9114 168.178 86.1374 167.951 86.2975C167.724 86.4576 167.453 86.5441 167.175 86.5454V86.4877ZM179.8 82.1591C179.48 82.1604 179.169 82.048 178.923 81.842C178.678 81.636 178.513 81.3496 178.458 81.0337L177.304 74.3533C177.273 74.177 177.277 73.9963 177.316 73.8216C177.355 73.6469 177.429 73.4817 177.532 73.3355C177.635 73.1893 177.767 73.065 177.918 72.9698C178.07 72.8745 178.239 72.8102 178.415 72.7806C178.591 72.7496 178.77 72.7539 178.944 72.7932C179.118 72.8325 179.282 72.906 179.427 73.0094C179.572 73.1128 179.695 73.2441 179.789 73.3956C179.883 73.547 179.946 73.7156 179.973 73.8915L181.128 80.572C181.191 80.9259 181.111 81.2904 180.905 81.5853C180.699 81.8802 180.385 82.0814 180.031 82.1447L179.8 82.1591ZM146.499 81.3512C146.178 81.3524 145.868 81.2401 145.622 81.034C145.376 80.828 145.212 80.5416 145.157 80.2257L144.046 73.5308C144.003 73.3501 143.998 73.1625 144.031 72.9796C144.063 72.7968 144.133 72.6225 144.236 72.4678C144.339 72.313 144.472 72.181 144.628 72.0799C144.784 71.9788 144.959 71.9108 145.142 71.8801C145.325 71.8494 145.512 71.8567 145.693 71.9014C145.873 71.9462 146.042 72.0275 146.19 72.1404C146.337 72.2532 146.46 72.3951 146.551 72.5574C146.641 72.7196 146.697 72.8987 146.715 73.0835L147.841 79.7784C147.878 80.131 147.783 80.4848 147.576 80.7723C147.368 81.0597 147.062 81.2606 146.715 81.3367L146.499 81.3512ZM177.492 68.7838C177.171 68.7851 176.86 68.6728 176.615 68.4667C176.369 68.2607 176.204 67.9743 176.15 67.6584L174.996 60.9779C174.955 60.7985 174.951 60.6126 174.984 60.4316C175.018 60.2506 175.088 60.0783 175.19 59.9252C175.292 59.7721 175.424 59.6414 175.578 59.5411C175.733 59.4407 175.906 59.3727 176.087 59.3414C176.268 59.31 176.454 59.3158 176.633 59.3586C176.812 59.4013 176.981 59.4801 177.128 59.59C177.276 59.6999 177.4 59.8387 177.492 59.9979C177.584 60.1572 177.643 60.3335 177.665 60.5162L178.819 67.1967C178.882 67.5506 178.802 67.9151 178.596 68.21C178.391 68.5049 178.076 68.7061 177.723 68.7694L177.492 68.7838ZM144.306 67.9614C143.987 67.9621 143.678 67.8493 143.435 67.6431C143.192 67.4368 143.03 67.1507 142.979 66.8359L141.853 60.1411C141.824 59.9649 141.829 59.7846 141.87 59.6105C141.91 59.4365 141.984 59.2721 142.088 59.1268C142.192 58.9814 142.323 58.8579 142.475 58.7633C142.626 58.6687 142.795 58.605 142.971 58.5756C143.148 58.5462 143.328 58.5519 143.502 58.5922C143.676 58.6325 143.84 58.7066 143.986 58.8105C144.131 58.9143 144.255 59.0457 144.349 59.1973C144.444 59.3489 144.507 59.5176 144.537 59.6938L145.662 66.3598C145.721 66.7137 145.637 67.0763 145.428 67.3683C145.22 67.6604 144.905 67.858 144.551 67.9181L144.306 67.9614ZM175.226 55.4085C174.908 55.4093 174.599 55.2964 174.356 55.0902C174.112 54.8839 173.95 54.5978 173.899 54.2831L172.745 47.6026C172.704 47.4232 172.7 47.2373 172.734 47.0563C172.767 46.8753 172.837 46.703 172.939 46.5499C173.041 46.3968 173.173 46.2661 173.328 46.1657C173.482 46.0653 173.655 45.9974 173.836 45.966C174.018 45.9347 174.203 45.9405 174.382 45.9833C174.561 46.026 174.73 46.1047 174.877 46.2146C175.025 46.3245 175.149 46.4634 175.241 46.6226C175.333 46.7818 175.392 46.9582 175.414 47.1409L176.568 53.8214C176.599 53.9976 176.595 54.1783 176.556 54.353C176.517 54.5277 176.444 54.6929 176.34 54.8391C176.237 54.9853 176.106 55.1096 175.954 55.2049C175.803 55.3001 175.634 55.3644 175.457 55.3941L175.226 55.4085ZM142.041 54.5861C141.723 54.5708 141.418 54.4507 141.176 54.2445C140.933 54.0384 140.765 53.7576 140.699 53.4462L139.718 47.5738C139.636 46.9963 139.732 46.4077 139.992 45.8856C140.166 45.5699 140.458 45.3363 140.805 45.2362C141.151 45.1361 141.523 45.1777 141.839 45.3518C142.154 45.5259 142.388 45.8183 142.488 46.1646C142.588 46.511 142.547 46.8829 142.372 47.1986L143.382 52.9701C143.441 53.3239 143.357 53.6866 143.149 53.9786C142.941 54.2706 142.625 54.4683 142.272 54.5283L142.041 54.5861ZM168.128 47.3718H161.332C160.972 47.3718 160.627 47.2289 160.373 46.9745C160.118 46.7201 159.975 46.3752 159.975 46.0155C159.975 45.6558 160.118 45.3108 160.373 45.0564C160.627 44.8021 160.972 44.6592 161.332 44.6592H168.128C168.487 44.6592 168.832 44.8021 169.087 45.0564C169.341 45.3108 169.484 45.6558 169.484 46.0155C169.484 46.3752 169.341 46.7201 169.087 46.9745C168.832 47.2289 168.487 47.3718 168.128 47.3718ZM154.55 47.3718H147.769C147.409 47.3718 147.064 47.2289 146.81 46.9745C146.555 46.7201 146.413 46.3752 146.413 46.0155C146.413 45.6558 146.555 45.3108 146.81 45.0564C147.064 44.8021 147.409 44.6592 147.769 44.6592H154.55C154.91 44.6592 155.255 44.8021 155.509 45.0564C155.764 45.3108 155.906 45.6558 155.906 46.0155C155.906 46.3752 155.764 46.7201 155.509 46.9745C155.255 47.2289 154.91 47.3718 154.55 47.3718Z" fill="#00144A"/>
<path d="M162.428 132.861H234.86C235.62 132.887 236.376 132.738 237.07 132.426C237.763 132.113 238.376 131.645 238.86 131.058C239.343 130.471 239.686 129.78 239.861 129.04C240.035 128.299 240.037 127.528 239.866 126.787C239.533 125.119 238.647 123.611 237.35 122.509C236.054 121.407 234.424 120.774 232.724 120.713H160.293C159.531 120.684 158.774 120.831 158.079 121.143C157.384 121.454 156.77 121.922 156.285 122.51C155.801 123.098 155.459 123.79 155.285 124.532C155.112 125.273 155.112 126.045 155.286 126.787C155.621 128.454 156.509 129.96 157.804 131.062C159.1 132.164 160.728 132.798 162.428 132.861Z" fill="#F58B00"/>
<path d="M210.417 151.763H237.572C238.332 151.79 239.088 151.641 239.781 151.328C240.474 151.015 241.086 150.547 241.569 149.959C242.052 149.372 242.393 148.681 242.565 147.94C242.738 147.2 242.737 146.429 242.564 145.689C242.231 144.02 241.344 142.513 240.048 141.411C238.752 140.308 237.122 139.675 235.422 139.614H208.282C207.521 139.588 206.765 139.737 206.072 140.05C205.378 140.363 204.766 140.831 204.282 141.418C203.798 142.005 203.455 142.695 203.281 143.436C203.106 144.177 203.104 144.947 203.275 145.689C203.611 147.356 204.498 148.862 205.793 149.964C207.089 151.066 208.718 151.699 210.417 151.763Z" fill="#D5DADD"/>
<path d="M166.973 151.488H194.127C194.888 151.514 195.644 151.365 196.338 151.053C197.031 150.74 197.644 150.272 198.128 149.685C198.611 149.098 198.954 148.407 199.128 147.667C199.303 146.926 199.305 146.155 199.134 145.414C198.798 143.734 197.901 142.218 196.59 141.114C195.28 140.01 193.633 139.385 191.92 139.34H164.837C164.076 139.311 163.319 139.458 162.623 139.769C161.928 140.081 161.315 140.549 160.83 141.137C160.346 141.725 160.003 142.417 159.83 143.159C159.657 143.9 159.657 144.672 159.831 145.414C160.166 147.081 161.053 148.587 162.349 149.689C163.645 150.791 165.273 151.425 166.973 151.488Z" fill="#F58B00"/>
<path d="M168.978 167.923H196.162C196.922 167.949 197.678 167.8 198.372 167.487C199.065 167.175 199.678 166.707 200.162 166.119C200.646 165.532 200.988 164.842 201.163 164.101C201.337 163.361 201.339 162.59 201.168 161.849C200.829 160.171 199.931 158.658 198.621 157.557C197.31 156.457 195.665 155.833 193.954 155.789H166.843C166.083 155.76 165.327 155.907 164.633 156.218C163.94 156.529 163.327 156.996 162.843 157.582C162.358 158.168 162.016 158.858 161.841 159.598C161.667 160.338 161.665 161.108 161.836 161.849C162.169 163.517 163.056 165.024 164.352 166.127C165.648 167.229 167.278 167.862 168.978 167.923Z" fill="#D5DADD"/>
</g>
<path d="M123.088 22.0571C123.464 21.9625 123.858 21.9715 124.23 22.0833C124.601 22.195 124.935 22.4052 125.197 22.6916L131.643 29.283C131.864 29.5097 132.037 29.7788 132.151 30.0741C132.265 30.3694 132.319 30.6847 132.307 31.0011C132.296 31.3175 132.221 31.6283 132.087 31.9149C131.952 32.2015 131.761 32.4578 131.524 32.6684C131.189 33.0251 130.747 33.263 130.265 33.346C129.783 33.4289 129.286 33.3525 128.851 33.1282C128.642 33.0168 128.45 32.8776 128.278 32.7144L121.832 26.1231C121.542 25.8385 121.335 25.481 121.232 25.0883C121.129 24.6955 121.134 24.2823 121.246 23.8922C121.367 23.4524 121.6 23.0518 121.923 22.7299C122.246 22.408 122.647 22.1761 123.088 22.0571Z" fill="#5B738B"/>
<path d="M172.287 12.8164C172.558 12.8936 172.809 13.0275 173.025 13.2093C173.24 13.3911 173.415 13.6166 173.537 13.8709C173.658 14.1252 173.725 14.4024 173.731 14.6843C173.738 14.9661 173.684 15.2461 173.574 15.5058L170.563 23.9716C170.453 24.2753 170.284 24.5541 170.065 24.7915C169.847 25.0289 169.583 25.2202 169.289 25.3542C168.995 25.4881 168.678 25.5619 168.355 25.5713C168.032 25.5807 167.711 25.5256 167.41 25.409C167.283 25.3655 167.161 25.3098 167.045 25.2428C166.611 25.0132 166.278 24.629 166.113 24.1661C165.948 23.7033 165.963 23.1953 166.154 22.7426L169.169 14.2951C169.274 13.9918 169.439 13.7125 169.654 13.4735C169.868 13.2346 170.128 13.0406 170.418 12.903C170.708 12.7654 171.023 12.6869 171.344 12.672C171.664 12.6571 171.985 12.7062 172.287 12.8164Z" fill="#5B738B"/>
<path d="M147.406 9.2592C147.661 9.42468 147.88 9.63911 148.051 9.88998C148.222 10.1409 148.341 10.4232 148.402 10.7206L151.19 24.0351C151.31 24.634 151.195 25.2562 150.868 25.7721C150.54 26.2879 150.026 26.6575 149.433 26.8035C148.886 26.9406 148.306 26.8631 147.814 26.5869C147.529 26.4297 147.282 26.2127 147.089 25.9509C146.896 25.6891 146.762 25.3886 146.697 25.0701L143.909 11.7556C143.782 11.1568 143.894 10.5322 144.219 10.0141C144.545 9.49592 145.06 9.1249 145.655 8.97953C145.95 8.90587 146.258 8.89266 146.559 8.94072C146.86 8.98878 147.148 9.0971 147.406 9.2592Z" fill="#5B738B"/>
<defs>
<clipPath id="clip0_2698_32522">
<rect width="164.255" height="187.399" fill="white" transform="translate(112 44.6016)"/>
</clipPath>
</defs>
</svg>
