<svg width="320" height="240" viewBox="0 0 320 240" fill="none" xmlns="http://www.w3.org/2000/svg">
<rect y="51" width="320" height="138" rx="24" fill="#89D1FF"/>
<path d="M54.6767 57.8632L75.5329 133.633C75.9793 135.262 77.5664 136.312 79.2362 136.097L221.807 118.836C227.032 117.514 228.52 113.298 227.817 111.264L145.806 46.7449C145.301 45.3066 143.904 44.3807 142.392 44.4799L58.7934 46.935C56.6441 47.0673 52.3373 50.1589 54.6767 57.8632Z" fill="#0040B0"/>
<path d="M55.7676 51.2005L77.6488 130.69C78.0952 132.319 79.6823 133.369 81.3521 133.154L225.039 115.753C227.172 115.48 228.519 113.306 227.808 111.273L200.182 40.2723C199.678 38.8339 198.281 37.9081 196.768 38.0073L58.8261 46.9102C56.6769 47.0425 55.1972 49.1173 55.7676 51.1922V51.2005Z" fill="#56BDFF"/>
<path d="M200.182 40.2723C199.678 38.8339 198.281 37.9081 196.768 38.0073L58.8261 46.9102C56.6769 47.0425 55.1972 49.1173 55.7676 51.1922L58.8344 62.3271L204.026 50.1589L200.174 40.264L200.182 40.2723Z" fill="#00144A"/>
<path d="M91.6438 66.8373L73.2507 68.3119C72.5534 68.368 72.1046 68.8649 72.2649 69.4259L73.2026 72.7599C73.3629 73.3209 74.0602 73.7297 74.7574 73.6656L93.2066 72.1108C93.8878 72.0547 94.3126 71.5578 94.1443 71.0048L93.1665 67.7269C93.0062 67.1819 92.317 66.7812 91.6358 66.8373H91.6438Z" fill="white"/>
<path d="M94.4317 76.2449L75.9425 77.8638C75.2372 77.9279 74.7964 78.4328 74.9567 79.0019L75.9024 82.3839C76.0627 82.953 76.768 83.3617 77.4733 83.2976L96.0186 81.5985C96.7078 81.5344 97.1246 81.0295 96.9563 80.4685L95.9705 77.1425C95.8022 76.5895 95.113 76.1808 94.4317 76.2449Z" fill="white"/>
<path d="M97.2699 85.7959L78.6845 87.5591C77.9792 87.6232 77.5304 88.1441 77.6907 88.7211L78.6524 92.1513C78.8127 92.7283 79.526 93.1371 80.2313 93.073L98.8728 91.2216C99.562 91.1495 99.9868 90.6366 99.8185 90.0676L98.8167 86.6935C98.6484 86.1325 97.9591 85.7238 97.2699 85.7879V85.7959Z" fill="white"/>
<path d="M100.139 95.4848L81.4491 97.4003C80.7358 97.4724 80.287 98.0013 80.4553 98.5864L81.4331 102.073C81.6014 102.658 82.3146 103.074 83.0279 102.994L101.774 100.991C102.471 100.919 102.888 100.39 102.719 99.8126L101.701 96.3904C101.533 95.8214 100.836 95.4127 100.139 95.4848Z" fill="white"/>
<path d="M103.055 105.33L84.2616 107.406C83.5483 107.486 83.0995 108.031 83.2678 108.624L84.2616 112.166C84.4299 112.76 85.1512 113.176 85.8645 113.096L104.714 110.932C105.412 110.852 105.836 110.315 105.66 109.73L104.626 106.252C104.45 105.667 103.753 105.258 103.055 105.338V105.33Z" fill="white"/>
<path d="M106.013 115.322L87.1231 117.558C86.4018 117.647 85.953 118.199 86.1213 118.801L87.1311 122.399C87.2994 123 88.0287 123.425 88.75 123.337L107.696 121.013C108.401 120.924 108.818 120.371 108.642 119.778L107.592 116.252C107.416 115.659 106.71 115.25 106.005 115.33L106.013 115.322Z" fill="white"/>
<path d="M130.337 63.736L113.018 65.1225C112.361 65.1786 111.96 65.6515 112.128 66.1964L113.138 69.4182C113.306 69.9632 113.98 70.3559 114.645 70.2998L132.012 68.8332C132.653 68.7771 133.038 68.3042 132.862 67.7673L131.82 64.5935C131.643 64.0646 130.986 63.6719 130.345 63.728L130.337 63.736Z" fill="white"/>
<path d="M133.327 72.8374L115.927 74.3601C115.262 74.4162 114.861 74.9051 115.038 75.4581L116.064 78.728C116.232 79.281 116.913 79.6737 117.578 79.6176L135.026 78.0147C135.675 77.9586 136.051 77.4697 135.875 76.9247L134.817 73.7109C134.641 73.174 133.976 72.7813 133.327 72.8374Z" fill="white"/>
<path d="M136.348 82.0772L118.861 83.7362C118.196 83.8003 117.795 84.2972 117.971 84.8582L119.005 88.1761C119.181 88.7371 119.863 89.1379 120.536 89.0657L138.071 87.3266C138.721 87.2625 139.097 86.7656 138.921 86.2126L137.847 82.9507C137.671 82.4058 136.997 82.0131 136.348 82.0772Z" fill="white"/>
<path d="M139.417 91.4561L121.842 93.2593C121.168 93.3314 120.768 93.8364 120.944 94.4054L121.994 97.7714C122.17 98.3404 122.859 98.7412 123.533 98.669L141.156 96.7857C141.805 96.7135 142.19 96.2086 142.006 95.6476L140.916 92.3377C140.731 91.7847 140.058 91.392 139.409 91.4561H139.417Z" fill="white"/>
<path d="M142.535 100.969L124.871 102.917C124.198 102.989 123.797 103.518 123.973 104.087L125.039 107.509C125.215 108.086 125.913 108.487 126.586 108.415L144.298 106.379C144.955 106.307 145.332 105.786 145.147 105.217L144.041 101.859C143.857 101.298 143.176 100.897 142.527 100.969H142.535Z" fill="white"/>
<path d="M145.692 110.627L127.94 112.727C127.267 112.807 126.858 113.344 127.042 113.921L128.124 117.392C128.309 117.977 129.006 118.385 129.687 118.297L147.487 116.109C148.144 116.029 148.529 115.5 148.337 114.923L147.215 111.517C147.03 110.948 146.341 110.547 145.684 110.627H145.692Z" fill="white"/>
<path d="M169.976 69.6332L153.563 71.0678C152.937 71.1239 152.577 71.5968 152.761 72.1257L153.843 75.2914C154.027 75.8204 154.685 76.2131 155.31 76.149L171.763 74.6422C172.372 74.5861 172.717 74.1133 172.525 73.5924L171.411 70.4748C171.226 69.9538 170.577 69.5771 169.976 69.6252V69.6332Z" fill="white"/>
<path d="M173.165 78.5851L156.68 80.1479C156.055 80.204 155.694 80.6929 155.878 81.2299L156.976 84.4436C157.161 84.9806 157.826 85.3733 158.451 85.3092L174.977 83.6662C175.586 83.6021 175.93 83.1213 175.738 82.5923L174.608 79.4346C174.416 78.9057 173.774 78.521 173.157 78.5851H173.165Z" fill="white"/>
<path d="M176.411 87.6554L159.853 89.3545C159.22 89.4186 158.859 89.9155 159.052 90.4605L160.166 93.7223C160.35 94.2673 161.023 94.66 161.648 94.5959L178.246 92.8167C178.863 92.7526 179.2 92.2637 179.008 91.7187L177.862 88.513C177.669 87.976 177.02 87.5913 176.403 87.6554H176.411Z" fill="white"/>
<path d="M179.698 96.8642L163.068 98.6995C162.435 98.7716 162.074 99.2765 162.267 99.8295L163.397 103.139C163.589 103.692 164.254 104.085 164.895 104.013L181.573 102.098C182.19 102.025 182.535 101.529 182.335 100.976L181.173 97.7217C180.98 97.1767 180.323 96.792 179.706 96.8642H179.698Z" fill="white"/>
<path d="M183.032 106.204L166.322 108.183C165.689 108.255 165.328 108.776 165.521 109.337L166.667 112.695C166.859 113.256 167.532 113.657 168.173 113.577L184.923 111.517C185.541 111.437 185.885 110.932 185.685 110.371L184.507 107.077C184.306 106.524 183.649 106.14 183.032 106.212V106.204Z" fill="white"/>
<path d="M201.28 58.0352L185.845 59.2774C185.26 59.3255 184.931 59.7743 185.123 60.2792L186.245 63.3086C186.438 63.8216 187.063 64.1902 187.656 64.1421L203.132 62.8358C203.709 62.7877 204.013 62.3389 203.821 61.842L202.675 58.8606C202.483 58.3637 201.866 57.9951 201.288 58.0432L201.28 58.0352Z" fill="white"/>
<path d="M204.584 66.6021L189.084 67.9565C188.491 68.0046 188.17 68.4694 188.362 68.9824L189.5 72.0519C189.693 72.5648 190.326 72.9415 190.919 72.8854L206.459 71.4588C207.036 71.4027 207.341 70.9539 207.148 70.441L205.986 67.4195C205.794 66.9146 205.169 66.546 204.592 66.5941L204.584 66.6021Z" fill="white"/>
<path d="M207.917 75.2812L192.353 76.7639C191.76 76.82 191.44 77.2849 191.632 77.8058L192.786 80.9154C192.978 81.4363 193.62 81.813 194.213 81.7569L209.817 80.2101C210.394 80.154 210.698 79.6892 210.506 79.1763L209.328 76.1147C209.127 75.6018 208.502 75.2332 207.925 75.2893L207.917 75.2812Z" fill="white"/>
<path d="M211.307 84.082L195.679 85.6849C195.086 85.749 194.757 86.2219 194.957 86.7508L196.127 89.9085C196.328 90.4375 196.969 90.8222 197.562 90.758L213.23 89.083C213.807 89.0189 214.12 88.5461 213.919 88.0251L212.725 84.9235C212.525 84.4026 211.892 84.0339 211.315 84.09L211.307 84.082Z" fill="white"/>
<path d="M214.737 92.9955L199.045 94.7266C198.444 94.7907 198.123 95.2796 198.323 95.8166L199.509 99.0143C199.71 99.5513 200.359 99.936 200.96 99.8639L216.692 98.0606C217.277 97.9965 217.582 97.5076 217.374 96.9787L216.155 93.829C215.955 93.3001 215.314 92.9314 214.737 92.9955Z" fill="white"/>
<path d="M218.223 102.04L202.466 103.907C201.865 103.979 201.545 104.476 201.745 105.021L202.947 108.267C203.148 108.812 203.805 109.197 204.406 109.125L220.202 107.185C220.787 107.113 221.092 106.616 220.884 106.079L219.649 102.889C219.441 102.352 218.8 101.976 218.223 102.048V102.04Z" fill="white"/>
<path d="M172.206 69.958L175.826 69.8773L224.783 66.6602L253.54 129.48C254.517 131.595 253.648 134.104 251.578 135.171L250.977 135.485L198.669 143.783C195.774 144.24 192.952 142.591 191.948 139.84L169.535 78.9105C168.137 75.1198 169.634 71.1409 172.224 69.958H172.206Z" fill="#0040B0"/>
<path d="M173.219 69.6897L224.918 65.0118C226.244 64.8953 227.49 65.6481 227.991 66.8758L253.675 129.812C254.41 131.614 253.272 133.63 251.354 133.935L199.978 142.081C197.693 142.439 195.488 141.14 194.681 138.98L170.665 73.7403C169.984 71.8763 171.247 69.869 173.228 69.6897H173.219Z" fill="white"/>
<path d="M218.178 78.8243L193.067 81.1364C192.583 81.1812 192.315 81.5665 192.485 82.0057L193.435 84.6135C193.596 85.0526 194.116 85.3752 194.6 85.3214L219.844 82.8391C220.292 82.7943 220.516 82.4179 220.346 81.9967L219.307 79.4964C219.136 79.0842 218.626 78.7795 218.186 78.8154L218.178 78.8243Z" fill="#56BDFF"/>
<path d="M221.153 86.0234L195.81 88.6402C195.326 88.694 195.057 89.0883 195.219 89.5453L196.196 92.2248C196.357 92.6818 196.886 93.0045 197.378 92.9507L222.856 90.1547C223.313 90.1009 223.537 89.7156 223.358 89.2854L222.291 86.7224C222.112 86.3012 221.61 85.9876 221.153 86.0324V86.0234Z" fill="#56BDFF"/>
<path d="M198.615 96.346C198.122 96.3997 197.854 96.8209 198.024 97.278L199.028 100.038C199.198 100.504 199.736 100.827 200.228 100.773L225.948 97.6544C226.405 97.6006 226.62 97.1973 226.441 96.7492L225.347 94.1146C225.168 93.6754 224.648 93.3618 224.191 93.4066L198.606 96.346H198.615Z" fill="#56BDFF"/>
<path d="M227.335 100.997L201.508 104.259C201.006 104.322 200.747 104.761 200.926 105.227L201.956 108.059C202.127 108.534 202.682 108.874 203.175 108.812L229.137 105.344C229.594 105.281 229.818 104.86 229.63 104.403L228.509 101.696C228.321 101.248 227.801 100.926 227.344 100.988L227.335 100.997Z" fill="#56BDFF"/>
<path d="M230.562 108.802L204.493 112.422C203.991 112.485 203.722 112.942 203.901 113.426L204.959 116.347C205.138 116.84 205.694 117.181 206.195 117.1L232.399 113.274C232.865 113.211 233.08 112.772 232.892 112.306L231.745 109.519C231.557 109.053 231.019 108.73 230.553 108.793L230.562 108.802Z" fill="#56BDFF"/>
<path d="M233.869 116.822L207.549 120.81C207.047 120.891 206.778 121.357 206.966 121.85L208.06 124.861C208.239 125.363 208.804 125.721 209.314 125.631L235.778 121.42C236.244 121.339 236.468 120.891 236.271 120.416L235.088 117.557C234.891 117.082 234.353 116.751 233.887 116.822H233.878H233.869Z" fill="#56BDFF"/>
<path d="M185.242 174.882L108.823 150.431C108.823 150.431 108.041 150.187 108.002 149.783C107.962 149.378 108.706 149.165 108.706 149.165L129.662 143.327C129.662 143.327 130.474 143.043 131.018 143.043C131.563 143.043 132.444 143.327 132.444 143.327L200.993 165.95L185.242 174.882Z" fill="#1B90FF"/>
<path d="M166.35 53.985C165.513 50.418 161.543 47.7244 157.447 48.018C153.308 48.3189 150.717 51.5483 151.686 55.174C151.957 56.1869 152.478 57.1117 153.175 57.9117C152.97 57.5374 155.935 57.7208 155.803 57.3172C154.731 53.9557 155.84 52.4951 157.631 51.7612C160.442 50.6088 164.053 52.2235 164.53 55.5777C164.831 57.6988 163.642 59.886 161.682 60.7741C165.058 60.0328 167.099 57.1851 166.35 53.9777V53.985Z" fill="#9B015D"/>
<path d="M185.221 174.872L186.88 174.99C187.195 175.012 187.511 174.99 187.819 174.938L188.626 174.784L143.789 46.2031L142.123 46.2985C141.675 46.3279 141.191 46.482 140.516 47.1206C140.244 47.3774 139.708 48.0453 139.708 48.0453C139.459 48.5224 139.569 49.0802 139.745 49.5866L184.56 174.381C184.663 174.667 184.92 174.858 185.221 174.88V174.872Z" fill="#9B015D"/>
<path d="M166.3 45L142.116 46.2991C141.47 46.3358 141.037 46.9817 141.257 47.5909L187.004 174.19C187.181 174.667 187.672 174.954 188.171 174.866L211.922 170.645C212.296 170.579 212.524 170.19 212.392 169.823L167.261 45.6385C167.114 45.2422 166.725 44.978 166.3 45.0073V45ZM161.955 57.6827C159.246 57.9249 156.509 56.1928 155.856 53.7781C155.195 51.3193 156.949 49.1322 159.76 48.934C162.534 48.7358 165.228 50.5634 165.793 52.9781C166.351 55.3561 164.641 57.4478 161.962 57.69L161.955 57.6827Z" fill="#FFB2D2"/>
<path d="M160.809 68.2398L160.127 66.3315C160.09 66.2288 160.163 66.1187 160.266 66.1113L171.371 65.1719C171.444 65.1719 171.51 65.2086 171.54 65.282L172.222 67.1682C172.259 67.271 172.193 67.3811 172.083 67.3884L160.985 68.3499C160.912 68.3499 160.839 68.3132 160.817 68.2398H160.809Z" fill="#9B015D"/>
<path d="M172.011 99.4595L171.321 97.5365C171.284 97.4338 171.35 97.331 171.46 97.3163L182.492 96.0906C182.565 96.0833 182.638 96.1273 182.66 96.2007L183.343 98.1017C183.38 98.2044 183.314 98.3072 183.203 98.3219L172.179 99.5696C172.106 99.5769 172.033 99.5329 172.003 99.4595H172.011Z" fill="#9B015D"/>
<path d="M167.525 73.6042C167.451 73.6042 167.378 73.5675 167.356 73.4941L166.996 72.5032L173.778 71.8867C173.851 71.8867 173.925 71.9234 173.947 71.9968L174.299 72.9803L167.517 73.5968L167.525 73.6042Z" fill="#9B015D"/>
<path d="M169.757 79.821C169.684 79.821 169.61 79.7843 169.588 79.7109L169.229 78.7201L176.003 78.0742C176.076 78.0742 176.15 78.1109 176.172 78.1843L176.524 79.1678L169.75 79.821H169.757Z" fill="#9B015D"/>
<path d="M171.82 85.932L171.534 85.1393C171.497 85.0366 171.563 84.9338 171.673 84.9192L178.227 84.2586C178.301 84.2513 178.374 84.2953 178.396 84.3687L178.748 85.3522L171.981 86.0421C171.908 86.0494 171.835 86.0054 171.813 85.932H171.82Z" fill="#9B015D"/>
<path d="M174.058 92.1597L173.772 91.3596C173.735 91.2569 173.801 91.1541 173.911 91.1395L180.458 90.4422C180.532 90.4349 180.605 90.4789 180.627 90.5523L180.913 91.345C180.95 91.4477 180.884 91.5505 180.774 91.5651L174.227 92.2697C174.154 92.2771 174.08 92.233 174.058 92.1597Z" fill="#9B015D"/>
<path d="M183.327 131.022L182.629 129.084C182.593 128.989 182.659 128.879 182.761 128.864L193.719 127.345C193.793 127.337 193.874 127.381 193.896 127.455L194.585 129.37C194.622 129.466 194.556 129.576 194.453 129.59L183.495 131.132C183.422 131.139 183.341 131.095 183.319 131.022H183.327Z" fill="#9B015D"/>
<path d="M178.593 104.792L178.307 103.992C178.27 103.889 178.336 103.787 178.439 103.772L184.971 103.009C185.045 103.001 185.118 103.045 185.148 103.119L185.434 103.911C185.47 104.014 185.404 104.117 185.302 104.132L178.77 104.902C178.696 104.91 178.623 104.866 178.593 104.792Z" fill="#9B015D"/>
<path d="M180.839 111.044L180.553 110.244C180.517 110.148 180.583 110.038 180.685 110.023L187.21 109.223C187.284 109.216 187.357 109.26 187.386 109.334L187.673 110.126C187.709 110.222 187.643 110.332 187.54 110.346L181.016 111.154C180.942 111.161 180.869 111.117 180.839 111.044Z" fill="#9B015D"/>
<path d="M183.086 117.295L182.799 116.487C182.763 116.392 182.829 116.282 182.931 116.267L189.449 115.43C189.522 115.423 189.596 115.467 189.625 115.541L189.911 116.341C189.948 116.436 189.882 116.546 189.779 116.561L183.262 117.405C183.188 117.412 183.115 117.368 183.086 117.295Z" fill="#9B015D"/>
<path d="M185.332 123.562L185.045 122.755C185.009 122.659 185.075 122.549 185.178 122.534L191.688 121.661C191.761 121.654 191.834 121.698 191.864 121.771L192.15 122.571C192.187 122.666 192.121 122.777 192.018 122.791L185.515 123.665C185.442 123.672 185.368 123.628 185.339 123.555L185.332 123.562Z" fill="#9B015D"/>
<path d="M194.711 162.773L194.014 160.821C193.978 160.725 194.044 160.622 194.139 160.6L205.031 158.78C205.112 158.765 205.185 158.81 205.214 158.883L205.912 160.813C205.948 160.909 205.882 161.011 205.787 161.033L194.902 162.876C194.822 162.89 194.748 162.846 194.719 162.773H194.711Z" fill="#9B015D"/>
<path d="M189.896 136.27L189.602 135.463C189.565 135.368 189.631 135.257 189.734 135.243L196.222 134.303C196.303 134.289 196.376 134.34 196.398 134.413L196.685 135.213C196.721 135.309 196.655 135.419 196.553 135.434L190.064 136.38C189.984 136.395 189.91 136.344 189.888 136.27H189.896Z" fill="#9B015D"/>
<path d="M192.15 142.557L191.856 141.75C191.819 141.655 191.885 141.544 191.988 141.53L198.469 140.554C198.55 140.539 198.623 140.583 198.645 140.664L198.931 141.471C198.968 141.566 198.902 141.677 198.799 141.691L192.318 142.675C192.238 142.689 192.164 142.645 192.142 142.565L192.15 142.557Z" fill="#9B015D"/>
<path d="M194.409 148.847L194.116 148.033C194.079 147.937 194.145 147.835 194.248 147.813L200.721 146.8C200.802 146.785 200.875 146.829 200.897 146.91L201.191 147.717C201.228 147.813 201.162 147.915 201.059 147.937L194.585 148.957C194.505 148.972 194.431 148.928 194.409 148.847Z" fill="#9B015D"/>
<path d="M196.677 155.15L196.383 154.335C196.347 154.24 196.413 154.137 196.508 154.115L202.974 153.065C203.055 153.051 203.128 153.095 203.158 153.168L203.451 153.975C203.488 154.071 203.422 154.174 203.327 154.196L196.86 155.245C196.78 155.26 196.706 155.216 196.677 155.135V155.15Z" fill="#9B015D"/>
</svg>
