<svg width="131" height="129" viewBox="0 0 131 129" fill="none" xmlns="http://www.w3.org/2000/svg">
<circle cx="67" cy="64.7695" r="64" fill="#EBF8FF"/>
<path d="M58.1076 24.6524C58.9016 23.8585 58.9016 22.5712 58.1076 21.7773C57.3137 20.9833 56.0264 20.9833 55.2325 21.7773C54.4385 22.5712 54.4385 23.8585 55.2325 24.6524C56.0264 25.4464 57.3137 25.4464 58.1076 24.6524Z" fill="#D1EFFF"/>
<path d="M117.034 54.5191C117.463 54.09 117.463 53.3944 117.034 52.9653C116.605 52.5362 115.909 52.5362 115.48 52.9653C115.051 53.3944 115.051 54.09 115.48 54.5191C115.909 54.9481 116.605 54.9481 117.034 54.5191Z" fill="#B8E6FF"/>
<path d="M72.6987 16.436C73.1531 15.9816 73.1531 15.2449 72.6987 14.7905C72.2443 14.3361 71.5076 14.3361 71.0532 14.7905C70.5988 15.2449 70.5988 15.9816 71.0532 16.436C71.5076 16.8904 72.2443 16.8904 72.6987 16.436Z" fill="#D1EFFF"/>
<path fill-rule="evenodd" clip-rule="evenodd" d="M105.821 13.8848C110.989 17.833 115.537 22.5505 119.295 27.8662C118.697 34.3879 113.212 39.4956 106.534 39.4956C99.4563 39.4956 93.7188 33.7581 93.7188 26.6804C93.7188 19.842 99.0751 14.2545 105.821 13.8848Z" fill="#9EDDFF"/>
<path d="M104.165 29.8274C104.121 29.9556 103.146 29.3929 102.215 29.8274C101.108 30.342 100.996 31.8298 100.751 31.7777C100.471 31.7197 100.076 29.6352 101.186 28.9063C102.383 28.1174 104.227 29.6452 104.165 29.8274Z" fill="#0070F2"/>
<path d="M109.743 20.2698C109.699 20.3979 108.724 19.8373 107.793 20.2698C106.686 20.7864 106.574 22.2722 106.329 22.2221C106.049 22.162 105.655 20.0776 106.764 19.3487C107.961 18.5618 109.805 20.0896 109.743 20.2698Z" fill="#0070F2"/>
<path d="M113.541 27.6399C113.497 27.7661 112.522 27.2054 111.59 27.6399C110.483 28.1545 110.371 29.6423 110.127 29.5902C109.846 29.5301 109.452 27.4457 110.561 26.7188C111.759 25.9299 113.597 27.4577 113.541 27.6399Z" fill="#0070F2"/>
<path fill-rule="evenodd" clip-rule="evenodd" d="M117.44 25.373C118.076 26.1864 118.693 27.0155 119.29 27.8598C119.213 28.6952 119.053 29.5235 118.813 30.3324C118.283 32.1127 117.373 33.7567 116.146 35.1504C114.918 36.5442 113.402 37.6544 111.703 38.4042C110.003 39.1541 108.161 39.5255 106.304 39.4929C104.447 39.4603 102.619 39.0245 100.948 38.2155C99.2756 37.4065 97.7995 36.2438 96.6214 34.8078C95.4434 33.3718 94.5916 31.6969 94.125 29.8991C95.7845 32.4477 98.2964 34.3231 101.212 35.1899C104.127 36.0568 107.255 35.8586 110.038 34.6308C112.82 33.4031 115.075 31.2257 116.4 28.4881C116.882 27.4914 117.23 26.4441 117.44 25.373Z" fill="#0070F2"/>
<path fill-rule="evenodd" clip-rule="evenodd" d="M75.4576 6.68561C74.5853 6.67952 73.7068 6.70367 72.8236 6.75744C72.4508 6.78014 72.1301 6.49629 72.1074 6.12346C72.0847 5.75062 72.3686 5.42998 72.7414 5.40728C73.6543 5.3517 74.5634 5.32668 75.4671 5.33298C75.8406 5.33559 76.1413 5.6405 76.1386 6.01402C76.136 6.38754 75.8311 6.68822 75.4576 6.68561ZM77.4664 6.07017C77.4959 5.69781 77.8216 5.41985 78.194 5.44934C79.1064 5.52159 80.0115 5.62751 80.9075 5.76795C81.2766 5.82579 81.5288 6.17183 81.471 6.54085C81.4132 6.90987 81.0671 7.16214 80.6981 7.1043C79.8369 6.96932 78.9661 6.86737 78.0872 6.79778C77.7149 6.76829 77.4369 6.44253 77.4664 6.07017ZM70.7843 6.24734C70.8307 6.61797 70.5679 6.95606 70.1973 7.0025C69.3303 7.11112 68.4603 7.24721 67.5888 7.41018C67.2216 7.47884 66.8683 7.23685 66.7997 6.86969C66.731 6.50253 66.973 6.14922 67.3402 6.08057C68.2378 5.91271 69.1346 5.7724 70.0292 5.66033C70.3998 5.6139 70.7379 5.87671 70.7843 6.24734ZM82.7744 6.79851C82.8619 6.43537 83.2272 6.21186 83.5903 6.29931C84.4794 6.51338 85.3573 6.76386 86.2222 7.05161C86.5766 7.16953 86.7684 7.55243 86.6504 7.90686C86.5325 8.26129 86.1496 8.45302 85.7952 8.33511C84.9673 8.05968 84.1263 7.81968 83.2737 7.61438C82.9105 7.52694 82.687 7.16166 82.7744 6.79851ZM65.5011 7.15174C65.5906 7.51439 65.3691 7.88091 65.0065 7.97039C64.1564 8.18012 63.3063 8.41476 62.4574 8.67375C62.1001 8.78275 61.7221 8.58149 61.6131 8.22422C61.5041 7.86696 61.7054 7.48897 62.0627 7.37997C62.9345 7.11396 63.8082 6.8728 64.6825 6.65711C65.0451 6.56764 65.4116 6.78909 65.5011 7.15174ZM87.8913 8.38075C88.04 8.0381 88.4383 7.88088 88.781 8.02958C89.6173 8.39251 90.4387 8.79343 91.2433 9.23316C91.5711 9.41229 91.6916 9.82321 91.5125 10.151C91.3333 10.4788 90.9224 10.5993 90.5946 10.4201C89.8263 10.0003 89.0417 9.61728 88.2425 9.27043C87.8998 9.12172 87.7426 8.7234 87.8913 8.38075ZM60.3526 8.64531C60.48 8.99645 60.2986 9.38436 59.9474 9.51171C59.1227 9.81084 58.3004 10.1326 57.4817 10.4765C57.1374 10.6212 56.7409 10.4593 56.5963 10.1149C56.4516 9.77055 56.6135 9.3741 56.9579 9.22943C57.7969 8.87696 58.6401 8.54699 59.4862 8.24011C59.8374 8.11275 60.2253 8.29417 60.3526 8.64531ZM55.3835 10.6594C55.5446 10.9964 55.4019 11.4002 55.0649 11.5612C54.2718 11.9402 53.4835 12.3398 52.7009 12.7596C52.3718 12.9362 51.9618 12.8125 51.7852 12.4833C51.6086 12.1542 51.7323 11.7442 52.0615 11.5676C52.8624 11.138 53.6695 10.7288 54.4817 10.3407C54.8187 10.1797 55.2225 10.3224 55.3835 10.6594ZM92.6475 10.8406C92.8559 10.5306 93.2761 10.4483 93.5861 10.6567C94.3387 11.1627 95.0733 11.7064 95.7884 12.2885C96.078 12.5243 96.1217 12.9503 95.8859 13.24C95.6501 13.5297 95.2241 13.5733 94.9344 13.3375C94.2513 12.7814 93.5498 12.2622 92.8314 11.7792C92.5214 11.5708 92.439 11.1506 92.6475 10.8406ZM50.6281 13.1387C50.8195 13.4594 50.7146 13.8746 50.3938 14.066C49.6378 14.517 48.8885 14.987 48.1471 15.4754C47.8352 15.6809 47.4158 15.5946 47.2103 15.2827C47.0048 14.9708 47.0911 14.5513 47.403 14.3458C48.1611 13.8464 48.9274 13.3657 49.7008 12.9043C50.0216 12.713 50.4367 12.8179 50.6281 13.1387ZM96.8767 14.1239C97.1374 13.8565 97.5656 13.851 97.8331 14.1118C98.4781 14.7407 99.1036 15.4051 99.7081 16.1057C99.9522 16.3885 99.9207 16.8155 99.6379 17.0596C99.3552 17.3036 98.9281 17.2722 98.6841 16.9894C98.1047 16.318 97.5058 15.6819 96.8888 15.0803C96.6213 14.8196 96.6159 14.3914 96.8767 14.1239ZM46.1164 16.0385C46.3354 16.3411 46.2676 16.7639 45.965 16.9829C45.2518 17.4992 44.5471 18.0328 43.8522 18.5834C43.5594 18.8154 43.134 18.7661 42.9021 18.4733C42.6701 18.1806 42.7194 17.7552 43.0122 17.5232C43.7225 16.9604 44.4428 16.4149 45.1719 15.8872C45.4745 15.6682 45.8974 15.7359 46.1164 16.0385ZM100.462 18.0996C100.764 17.8795 101.187 17.9457 101.407 18.2474C101.676 18.6161 101.94 18.9932 102.199 19.3786C102.407 19.6888 102.324 20.109 102.014 20.3171C101.703 20.5251 101.283 20.4423 101.075 20.1321C100.827 19.7613 100.573 19.3988 100.315 19.0446C100.094 18.7428 100.161 18.3197 100.462 18.0996ZM41.8792 19.3205C42.1236 19.603 42.0927 20.0301 41.8103 20.2745C41.1437 20.8512 40.4876 21.4441 39.843 22.0525C39.5713 22.3089 39.1433 22.2965 38.8869 22.0249C38.6305 21.7532 38.6429 21.3252 38.9145 21.0688C39.5734 20.4469 40.2439 19.8411 40.9252 19.2516C41.2076 19.0072 41.6347 19.038 41.8792 19.3205ZM37.9404 22.9577C38.2083 23.218 38.2144 23.6462 37.9541 23.9141C37.3395 24.5467 36.7371 25.1941 36.1478 25.856C35.8994 26.1349 35.4719 26.1597 35.1929 25.9114C34.914 25.663 34.8892 25.2355 35.1376 24.9565C35.74 24.2799 36.3558 23.6181 36.984 22.9715C37.2443 22.7036 37.6725 22.6974 37.9404 22.9577ZM34.3308 26.9234C34.6204 27.1593 34.6639 27.5853 34.428 27.8749C33.8708 28.5589 33.3274 29.2566 32.7988 29.9677C32.5759 30.2674 32.1523 30.3298 31.8525 30.1069C31.5527 29.8841 31.4904 29.4604 31.7133 29.1606C32.2539 28.4335 32.8095 27.72 33.3792 27.0206C33.6152 26.731 34.0412 26.6875 34.3308 26.9234ZM31.0839 31.1904C31.3934 31.3996 31.4747 31.8201 31.2655 32.1295C30.7718 32.8598 30.2936 33.6026 29.8316 34.3577C29.6367 34.6763 29.2204 34.7766 28.9017 34.5817C28.5831 34.3868 28.4828 33.9704 28.6778 33.6518C29.1505 32.8791 29.6398 32.119 30.1448 31.372C30.354 31.0625 30.7745 30.9812 31.0839 31.1904ZM28.2347 35.7304C28.5619 35.9104 28.6813 36.3217 28.5012 36.649C28.2882 37.0361 28.0795 37.4262 27.8751 37.8191C27.7027 38.1505 27.2944 38.2794 26.963 38.107C26.6316 37.9346 26.5027 37.5263 26.6751 37.1949C26.8844 36.7926 27.0981 36.3933 27.3161 35.997C27.4962 35.6697 27.9074 35.5503 28.2347 35.7304Z" fill="#A9B4BE"/>
<path d="M24.6995 67.1057C34.3333 67.1057 42.1431 58.8894 42.1431 48.754C42.1431 38.6187 34.3333 30.4023 24.6995 30.4023C15.0656 30.4023 7.25586 38.6187 7.25586 48.754C7.25586 58.8894 15.0656 67.1057 24.6995 67.1057Z" fill="#F58B00"/>
<path d="M21.8947 48.7109H20.798C20.6476 48.7109 20.5034 48.7738 20.397 48.8857C20.2907 48.9975 20.231 49.1492 20.231 49.3075C20.231 49.4657 20.2907 49.6174 20.397 49.7293C20.5034 49.8411 20.6476 49.904 20.798 49.904H21.8947C22.0451 49.904 22.1893 49.8411 22.2956 49.7293C22.402 49.6174 22.4617 49.4657 22.4617 49.3075C22.4617 49.1492 22.402 48.9975 22.2956 48.8857C22.1893 48.7738 22.0451 48.7109 21.8947 48.7109Z" fill="#CC7400"/>
<path d="M35.5298 40.4911C35.5298 40.5694 35.5445 40.6469 35.573 40.7192C35.6015 40.7915 35.6433 40.8572 35.6959 40.9125C35.7486 40.9678 35.8111 41.0116 35.8799 41.0415C35.9487 41.0713 36.0224 41.0866 36.0968 41.0865H40.5507C40.373 40.6811 40.1818 40.2838 39.9771 39.8946H36.1023C36.0273 39.8937 35.9529 39.9084 35.8834 39.938C35.8139 39.9676 35.7507 40.0114 35.6975 40.0669C35.6442 40.1224 35.6019 40.1885 35.5732 40.2613C35.5444 40.3341 35.5296 40.4122 35.5298 40.4911Z" fill="#CC7400"/>
<path d="M32.3131 41.0876H33.4098C33.5602 41.0876 33.7044 41.0247 33.8108 40.9129C33.9171 40.801 33.9769 40.6493 33.9769 40.4911C33.9769 40.3329 33.9171 40.1811 33.8108 40.0693C33.7044 39.9574 33.5602 39.8945 33.4098 39.8945H32.3131C32.1627 39.8945 32.0185 39.9574 31.9122 40.0693C31.8058 40.1811 31.7461 40.3329 31.7461 40.4911C31.7461 40.6493 31.8058 40.801 31.9122 40.9129C32.0185 41.0247 32.1627 41.0876 32.3131 41.0876Z" fill="#CC7400"/>
<path d="M35.9729 55.4212C35.8455 55.6733 35.6601 55.8879 35.4336 56.0453C35.2072 56.2027 34.9469 56.2979 34.6765 56.3223L33.5798 56.4227C33.4468 56.4202 33.317 56.4658 33.2122 56.5519C33.1074 56.6381 33.0339 56.7594 33.004 56.8958C32.9865 56.9827 32.9877 57.0726 33.0075 57.159C33.0273 57.2453 33.0651 57.326 33.1183 57.395C33.1715 57.464 33.2386 57.5196 33.3149 57.5578C33.3911 57.596 33.4745 57.6158 33.5589 57.6158H39.9847C40.4638 56.6992 40.8674 55.741 41.1911 54.752H37.0323C36.8173 54.7645 36.6085 54.8321 36.4239 54.9487C36.2393 55.0653 36.0845 55.2275 35.9729 55.4212Z" fill="#CC7400"/>
<path fill-rule="evenodd" clip-rule="evenodd" d="M13.6611 59.9031C17.6336 59.1026 22.4292 57.4919 27.4071 55.1649C33.4875 52.323 38.6312 48.9757 41.9378 45.9238C42.0095 46.4146 42.0628 46.9115 42.0979 47.4146C38.4436 50.3765 33.4622 53.4584 27.7417 56.1318C24.532 57.6323 21.3876 58.865 18.444 59.8113C18.4446 59.8117 18.4453 59.8121 18.4459 59.8125C16.8873 60.3206 15.3092 60.7593 13.7159 61.1274C13.5449 61.167 13.3749 61.2054 13.2061 61.2427C12.8444 61.3226 12.482 61.399 12.1188 61.4717C11.9536 61.2902 11.792 61.106 11.634 60.9191L11.6143 60.8948C11.4549 60.7056 11.3003 60.5133 11.1504 60.3179C11.1518 60.3177 11.1532 60.3175 11.1546 60.3173C11.1539 60.3164 11.1531 60.3154 11.1524 60.3144C11.2707 60.3 11.39 60.2846 11.5103 60.2683C12.2303 60.1659 12.9474 60.0441 13.6611 59.9031Z" fill="#CC7400"/>
<path fill-rule="evenodd" clip-rule="evenodd" d="M18.5128 48.8834C18.6189 48.995 18.6785 49.1465 18.6785 49.3044C18.6788 49.4617 18.6199 49.6127 18.5147 49.7245C18.4095 49.8362 18.2665 49.8997 18.117 49.9009H11.0623H7.28889C7.26695 49.5224 7.25488 49.1405 7.25488 48.7551V48.709H7.25887H10.7333H18.1126C18.2627 48.709 18.4066 48.7717 18.5128 48.8834Z" fill="#CC7400"/>
<rect x="23.8477" y="53.4199" width="17.1404" height="2.01648" rx="1.00824" fill="#CC7400"/>
<path fill-rule="evenodd" clip-rule="evenodd" d="M10.3342 42.0042C10.3343 42.0034 10.3343 42.0027 10.3344 42.002H8.46997L8.43377 42.1012C8.38552 42.2316 8.33835 42.362 8.29339 42.4935C8.28969 42.5042 8.28599 42.5149 8.28229 42.5255C8.26849 42.5652 8.25483 42.6046 8.24184 42.6446C8.21072 42.7372 8.1809 42.8318 8.15131 42.9257C8.12669 43.0039 8.10224 43.0815 8.07733 43.1569C8.07032 43.1783 8.0642 43.2002 8.05812 43.2219C8.05469 43.2342 8.05128 43.2464 8.04772 43.2585C8.00275 43.4085 7.95999 43.5585 7.91831 43.7108L7.88211 43.8446C7.83495 44.0269 7.78889 44.2104 7.74612 44.395L7.73953 44.4227C7.69785 44.6015 7.66059 44.7815 7.62439 44.9615L7.60134 45.0769C7.52786 45.4611 7.46425 45.85 7.4138 46.2423L7.40065 46.3392C7.37653 46.5354 7.35458 46.7327 7.33594 46.9311L7.34098 46.9311C7.34095 46.9315 7.34092 46.9318 7.34088 46.9322H21.3506L37.0099 46.976H42.0549C41.9809 46.1627 41.8552 45.3555 41.6787 44.5599H32.0438C31.8542 44.5599 31.6723 44.6392 31.5382 44.7803C31.4041 44.9213 31.3287 45.1127 31.3287 45.3122C31.3287 45.4112 31.3102 45.5091 31.2742 45.6006C31.2382 45.692 31.1855 45.775 31.119 45.845C31.0525 45.9149 30.9735 45.9704 30.8867 46.0083C30.7998 46.0462 30.7066 46.0657 30.6126 46.0657H24.6957C24.0385 46.0654 23.4083 45.7905 22.9437 45.3015C22.4791 44.8125 22.2181 44.1494 22.2181 43.458V42.7565C22.2181 42.6576 22.1996 42.5597 22.1636 42.4683C22.1276 42.377 22.0748 42.294 22.0083 42.2241C21.9418 42.1542 21.8628 42.0988 21.776 42.0611C21.6891 42.0234 21.596 42.004 21.502 42.0042H10.3342Z" fill="#CC7400"/>
<path d="M36.9224 44.2228C36.9224 53.2106 29.9969 60.4966 21.4539 60.4966C15.2075 60.4966 9.82589 56.6015 7.38379 50.994C8.43344 60.0734 15.7854 67.1069 24.6989 67.1069C34.3328 67.1069 42.1425 58.8906 42.1425 48.7552C42.1425 41.1608 37.7577 34.6438 31.5063 31.8535C34.8214 34.8383 36.9224 39.2724 36.9224 44.2228Z" fill="#CC7400"/>
<path fill-rule="evenodd" clip-rule="evenodd" d="M48.3484 37.6784C47.38 35.3846 43.1378 34.9092 37.2713 36.0376C37.6113 36.4092 37.9356 36.7938 38.2441 37.1915C42.2187 36.7034 45.0033 37.2388 45.7151 38.9222C46.4269 40.6056 44.9397 43.1395 41.9335 45.9156C41.934 45.9185 41.9344 45.9214 41.9349 45.9243C38.6282 48.9761 33.4847 52.3231 27.4048 55.1648C22.4528 57.4797 17.6813 59.0857 13.721 59.8905C12.9754 60.039 12.226 60.1665 11.4735 60.2729C11.3648 60.2875 11.257 60.3013 11.15 60.3144L11.1501 60.3145C7.17607 60.8012 4.39189 60.2657 3.67907 58.5801C2.96729 56.8944 4.45556 54.3617 7.46172 51.5867C7.38495 51.0675 7.32974 50.5418 7.29611 50.0095C6.08059 50.987 5.00851 51.9524 4.10104 52.8866C3.56687 55.7315 3.22094 58.6427 3.07666 61.6068C5.08746 62.2875 8.25462 62.2191 12.1144 61.4692C12.1151 61.4699 12.1158 61.4707 12.1165 61.4714C12.4034 61.414 12.6899 61.3542 12.9759 61.2922C13.3078 61.2208 13.6443 61.1446 13.9851 61.0636C15.4862 60.7089 16.9735 60.2914 18.4435 59.8122L18.4419 59.8111C21.3855 58.8648 24.5297 57.6322 27.7393 56.1317C33.4599 53.4583 38.4413 50.3764 42.0956 47.4145C42.0954 47.4115 42.0952 47.4084 42.0949 47.4053C46.8112 43.5923 49.3167 39.9662 48.3484 37.6784ZM42.0374 46.742C42.0242 46.6137 42.0098 46.4859 41.994 46.3584C42.0097 46.4859 42.0241 46.6137 42.0374 46.742Z" fill="#D5DADD"/>
<circle cx="81.6632" cy="87.2677" r="31.8322" fill="#9EDDFF"/>
<path d="M112.007 93.4755C111.9 93.2771 111.401 92.3964 110.596 92.3254C109.962 92.269 109.434 92.6785 108.731 93.5665C106.854 95.932 106.782 96.5252 107.299 98.072C107.378 98.3254 107.54 98.5448 107.759 98.6943C107.982 98.8361 108.242 98.9078 108.506 98.8999C109.465 98.9254 110.471 98.2412 110.709 98.0738C110.87 97.9629 111.02 97.8367 111.157 97.6971C112.49 96.3342 112.125 94.0905 112.007 93.4755Z" fill="#004DA5"/>
<path d="M79.3991 83.0544C78.6567 83.0685 77.9161 83.1293 77.1813 83.2363C76.8369 83.293 76.4893 83.3288 76.1406 83.3437C75.6939 83.2996 75.2555 83.193 74.8383 83.0271C74.3041 82.8157 73.7404 82.6886 73.1673 82.6504C72.5715 82.6504 71.8105 82.8942 71.5653 84.1334C71.4942 84.3769 71.4805 84.6335 71.5253 84.8831C71.5703 85.1329 71.6722 85.3689 71.8232 85.5728C72.161 85.9822 72.7586 86.1806 73.5941 86.1806C74.0664 86.17 74.5377 86.1311 75.0054 86.0641C75.2246 86.0314 75.4443 86.0095 75.6647 85.9986C75.9372 85.9986 76.0698 86.1132 76.3549 86.3898C76.761 86.8322 77.2739 87.1624 77.8443 87.3488L78.0259 87.4107C78.9712 87.7711 79.9647 87.9888 80.9738 88.0567H80.9865C81.2876 88.0799 81.5901 88.037 81.8729 87.9311C82.1558 87.8269 82.412 87.6609 82.623 87.4452C82.8238 87.1752 82.9638 86.8648 83.0335 86.5354C83.1011 86.2045 83.0949 85.8628 83.0154 85.5346C82.7756 83.8787 81.5623 83.0544 79.3991 83.0544Z" fill="#004DA5"/>
<path d="M97.9679 96.5924C96.816 96.5979 95.6727 96.7902 94.5822 97.1619C94.2074 97.302 93.815 97.389 93.4162 97.4203C93.1551 97.4185 92.9012 97.3352 92.6896 97.1819C92.27 96.8327 91.9556 96.3734 91.7815 95.8554C91.3891 94.982 90.9024 93.892 89.2386 93.892H88.8754C88.1774 93.8938 87.486 93.7572 86.8411 93.4898C86.1979 93.2222 85.6143 92.8287 85.1247 92.3325C84.8853 92.0784 84.5958 91.877 84.2746 91.7411C83.9528 91.6059 83.6064 91.5396 83.2575 91.5464C82.7143 91.5688 82.1763 91.6624 81.6573 91.8248C81.2727 91.9452 80.8752 92.0191 80.4731 92.045C79.9022 92.018 79.3468 91.8498 78.8565 91.5555C78.3672 91.2624 77.9569 90.8539 77.6614 90.3654C77.5434 90.1234 77.2237 89.492 76.6261 89.492C76.1521 89.492 75.7179 89.865 75.0968 90.7803C75.0023 90.9386 74.9151 91.0751 74.8352 91.197C74.7096 91.4167 74.5617 91.6228 74.3939 91.8121C74.0372 91.5147 73.7269 91.1658 73.473 90.7767C73.2677 90.5019 73.0716 90.2399 72.8899 89.9851C71.7675 88.493 70.9755 87.3903 70.1019 86.9736C69.8228 86.8387 69.5345 86.7237 69.2391 86.6296C68.6597 86.4477 68.2347 86.293 67.9877 85.7981C67.9061 85.5854 67.8624 85.3599 67.8587 85.1321C67.7806 84.1494 67.5264 83.2687 65.3159 83.2687C64.5748 83.2687 64.0863 83.114 63.9464 82.852C63.7648 82.4881 64.0209 81.7602 64.7419 80.6848C65.2996 79.7986 65.9298 79.3837 66.5583 79.3837C67.0795 79.3837 67.648 79.6858 68.2547 80.2935C69.1756 81.2125 70.0892 81.6783 70.9683 81.6783C71.3512 81.6694 71.7283 81.5821 72.0762 81.4217C72.4213 81.262 72.7303 81.0336 72.9844 80.7503C73.9634 79.7895 74.4556 78.7996 74.9351 76.878C75.4346 74.8764 76.3228 72.5435 78.7494 72.1268C79.2943 72.0359 79.8392 71.9649 80.3459 71.8939C82.4874 71.5991 84.1838 71.3608 85.0175 70.1125C86.209 68.3274 86.792 65.4322 84.5053 63.1486C83.2888 61.8611 81.6182 61.101 79.8501 61.0305C79.0249 61.045 78.2136 61.2453 77.4762 61.6164C76.7398 61.9869 76.0965 62.5194 75.5944 63.174C74.3702 64.6425 73.4149 65.6197 72.7029 65.6197C72.2673 65.5613 71.872 65.3339 71.6022 64.9864C71.4008 64.7448 71.2556 64.4614 71.1772 64.1567C71.0995 63.8512 71.0914 63.5322 71.1535 63.2232C71.2068 62.8585 71.3484 62.5124 71.5659 62.2151C71.7838 61.9166 72.0712 61.6761 72.4032 61.5145C73.0237 61.2725 73.6893 61.1688 74.3539 61.2106C75.6489 61.1815 77.1202 61.1524 78.1028 59.5165C78.6077 58.6776 78.7276 57.9243 78.466 57.2746C78.3114 56.9596 78.0916 56.681 77.8212 56.4576C77.5515 56.2325 77.1972 55.9299 76.8588 55.8359H76.6935C71.4677 56.5645 66.5512 58.7462 62.3281 61.9148C58.1095 65.0753 54.7635 69.2597 52.6053 74.0739C52.5436 74.1994 51.0469 77.2274 51.5391 79.1908C51.8199 80.1891 52.4133 81.0707 53.2319 81.7056C54.0514 82.3422 55.0524 82.6998 56.089 82.7264C57.8272 82.7264 59.006 83.1432 59.8397 85.223C60.766 87.5358 63.0092 88.9952 64.6765 89.5484C64.9054 89.623 65.1343 89.6867 65.3595 89.7486C66.462 90.0561 67.4119 90.3181 68.1058 92.0577C68.3195 92.7146 68.7467 93.2809 69.3191 93.6663C69.8955 94.0486 70.5822 94.2285 71.2716 94.1777H72.296C72.701 94.1977 73.255 94.2323 73.413 94.5179C73.5039 94.689 73.6165 95.2458 72.741 96.7689C70.8084 100.146 71.288 101.666 72.2633 103.594C72.8228 104.73 73.6417 105.718 74.6536 106.477C75.6714 107.236 76.8539 107.744 78.1046 107.958C78.3717 107.98 78.6293 108.068 78.8547 108.213C79.0821 108.357 79.2695 108.556 79.3996 108.791C79.9118 109.801 79.3996 111.57 78.7294 112.891C78.4119 113.512 78.0348 114.1 77.6033 114.647C77.1746 115.226 76.8368 115.672 76.8368 116.312C76.8799 117.086 77.0455 117.848 77.3272 118.57L77.4198 118.798L77.665 118.829C78.8383 118.965 80.0822 119.102 81.2633 119.1C81.8082 119.1 82.3331 119.087 82.858 119.083L84.3292 119.007L82.9651 118.226C82.936 118.212 82.2912 117.843 82.2912 116.332C82.2912 115.863 83.2411 115.361 85.9039 115.361H86.97C87.4427 115.325 87.8827 115.105 88.1961 114.749L88.4122 114.482C89.3785 113.272 91.7052 110.435 92.7132 109.765C93.1596 109.48 93.6509 109.272 94.1663 109.15C95.0376 108.957 95.8341 108.515 96.4585 107.876C96.7673 107.58 97.0143 107.225 97.185 106.832C97.356 106.438 97.4461 106.013 97.4502 105.583C97.4513 105.071 97.596 104.57 97.868 104.137C98.2292 103.658 98.6896 103.263 99.2175 102.979C99.9095 102.565 100.743 102.035 101.159 100.9C101.735 99.3656 101.802 98.3993 101.288 97.6678C100.774 96.9363 99.7424 96.5924 97.9679 96.5924Z" fill="#004DA5"/>
<path d="M82.8952 59.3962C83.5013 59.5831 84.1341 59.6679 84.7678 59.6473C85.1674 59.6473 85.4145 59.6473 85.5162 59.7529C85.6596 59.9513 85.7649 60.1746 85.8268 60.4116C86.0374 60.9957 86.2972 61.7163 87.0201 62.0639C87.6098 62.305 88.2434 62.4196 88.88 62.4005C89.454 62.4005 90.8779 62.3186 91.6844 61.5416C93.3318 59.9549 90.975 56.9571 90.8714 56.837L90.7952 56.7478L90.6771 56.7114C87.696 55.7776 84.4529 55.4131 81.3295 55.4366H80.6611L80.7411 55.9061C80.7955 56.21 81.3077 58.8867 82.8952 59.3962Z" fill="#004DA5"/>
<path d="M109.476 80.3944C110.43 78.5748 110.31 76.5986 109.142 74.6952C106.942 71.125 101.681 68.7285 98.1424 68.7285C95.9356 68.7285 94.4444 69.6147 93.9394 71.2106C93.5054 72.5059 93.3981 73.8887 93.627 75.2357C93.8558 76.5845 94.4136 77.8559 95.2508 78.9369C97.2488 81.6227 100.762 83.4278 104 83.4278C106.519 83.4278 108.459 82.3506 109.476 80.3944Z" fill="#004DA5"/>
<path fill-rule="evenodd" clip-rule="evenodd" d="M81.6632 119.1C99.2436 119.1 113.495 104.848 113.495 87.2677C113.495 83.9714 112.994 80.7921 112.064 77.8018C112.994 80.792 113.495 83.9712 113.495 87.2675C113.495 104.848 99.2435 119.1 81.6631 119.1C69.0367 119.1 58.1273 111.748 52.9816 101.092C58.4834 105.631 65.5359 108.357 73.2252 108.357C90.8056 108.357 105.057 94.1055 105.057 76.5251C105.057 71.5712 103.926 66.8816 101.907 62.7007C96.405 58.1619 89.3525 55.4355 81.6632 55.4355C64.0828 55.4355 49.8311 69.6873 49.8311 87.2677C49.8311 104.848 64.0828 119.1 81.6632 119.1Z" fill="#D1EFFF"/>
<path fill-rule="evenodd" clip-rule="evenodd" d="M104.501 70.5613C102.372 69.3999 100.016 68.7285 98.1434 68.7285C95.9365 68.7285 94.4453 69.6147 93.9404 71.2106C93.5064 72.5059 93.3991 73.8887 93.628 75.2357C93.8568 76.5845 94.4146 77.8559 95.2518 78.9369C97.2497 81.6227 100.762 83.4278 104.001 83.4278C104.105 83.4278 104.207 83.426 104.309 83.4224C104.8 81.2017 105.058 78.8938 105.058 76.5256C105.058 74.4871 104.867 72.4933 104.501 70.5613Z" fill="#00A58A"/>
<path fill-rule="evenodd" clip-rule="evenodd" d="M97.9382 96.5926C96.7966 96.6012 95.6637 96.7935 94.5827 97.1619C94.2079 97.302 93.8154 97.389 93.4166 97.4203C93.1556 97.4185 92.9017 97.3352 92.6901 97.1819C92.2705 96.8327 91.9561 96.3734 91.782 95.8554L91.78 95.851C91.388 94.9783 90.9001 93.892 89.2391 93.892H88.8758C88.1779 93.8938 87.4865 93.7572 86.8416 93.4898C86.1983 93.2222 85.6148 92.8287 85.1251 92.3325C84.8858 92.0784 84.5963 91.877 84.2751 91.7411C83.9533 91.6059 83.6069 91.5396 83.258 91.5464C82.7147 91.5688 82.1768 91.6624 81.6578 91.8248C81.2732 91.9452 80.8756 92.0191 80.4736 92.045C79.9027 92.018 79.3473 91.8498 78.857 91.5555C78.3677 91.2624 77.9574 90.8539 77.6619 90.3654C77.5438 90.1234 77.2242 89.492 76.6266 89.492C76.1525 89.492 75.7184 89.865 75.0973 90.7803C75.0028 90.9386 74.9156 91.0751 74.8357 91.197C74.7101 91.4167 74.5622 91.6228 74.3943 91.8121C74.0377 91.5147 73.7274 91.1658 73.4735 90.7767L73.4451 90.7387C73.2501 90.4777 73.0637 90.2281 72.8904 89.9851C72.8229 89.8953 72.7565 89.8069 72.6912 89.72C71.6723 88.3627 70.9234 87.3652 70.1024 86.9736C69.8233 86.8387 69.535 86.7237 69.2396 86.6296C68.6602 86.4477 68.2352 86.293 67.9882 85.7981C67.9066 85.5854 67.8629 85.3599 67.8592 85.1321C67.7811 84.1494 67.5268 83.2687 65.3164 83.2687C64.5753 83.2687 64.0867 83.114 63.9469 82.852C63.7653 82.4881 64.0214 81.7602 64.7424 80.6848C65.3 79.7986 65.9303 79.3837 66.5588 79.3837C67.08 79.3837 67.6485 79.6858 68.2552 80.2935C69.1761 81.2125 70.0897 81.6783 70.9688 81.6783C71.3517 81.6694 71.7287 81.5821 72.0767 81.4217C72.4218 81.262 72.7308 81.0336 72.9849 80.7503C73.9639 79.7895 74.4561 78.7996 74.9356 76.878C75.4351 74.8764 76.3233 72.5435 78.7499 72.1268C79.1814 72.0548 79.6129 71.9953 80.0255 71.9384C80.1339 71.9234 80.241 71.9087 80.3464 71.8939C82.4879 71.5991 84.1843 71.3608 85.018 70.1125C86.2095 68.3274 86.7925 65.4322 84.5058 63.1486C83.2893 61.8611 81.6187 61.101 79.8506 61.0305C79.0254 61.045 78.2141 61.2453 77.4766 61.6164C76.7402 61.9869 76.097 62.5194 75.5949 63.174C74.3707 64.6425 73.4153 65.6197 72.7033 65.6197C72.2678 65.5613 71.8725 65.3339 71.6027 64.9864C71.4013 64.7448 71.2561 64.4614 71.1776 64.1567C71.0999 63.8512 71.0919 63.5322 71.154 63.2232C71.2073 62.8585 71.3488 62.5124 71.5663 62.2151C71.7843 61.9166 72.0717 61.6761 72.4037 61.5145C73.0242 61.2725 73.6898 61.1688 74.3544 61.2106L74.3639 61.2104C75.6566 61.1813 77.123 61.1484 78.1033 59.5165C78.6082 58.6776 78.7281 57.9243 78.4665 57.2746C78.3119 56.9596 78.0921 56.681 77.8217 56.4576C77.8124 56.4499 77.803 56.442 77.7935 56.4341C77.5275 56.2119 77.186 55.9266 76.8593 55.8359H76.694C71.4682 56.5645 66.5517 58.7462 62.3285 61.9148C58.1099 65.0753 54.7639 69.2597 52.6058 74.0739L52.6049 74.0758C52.5305 74.2269 51.0496 77.2363 51.5396 79.1908C51.8204 80.1891 52.4138 81.0707 53.2324 81.7056C54.0519 82.3422 55.0529 82.6998 56.0895 82.7264C57.8277 82.7264 59.0065 83.1432 59.8402 85.223C60.7665 87.5358 63.0097 88.9952 64.677 89.5484C64.9059 89.623 65.1348 89.6867 65.36 89.7486L65.3662 89.7503C66.4661 90.0571 67.4137 90.3214 68.1062 92.0577C68.32 92.7146 68.7472 93.2809 69.3195 93.6663C69.8959 94.0486 70.5827 94.2285 71.2721 94.1777H72.2965C72.7015 94.1977 73.2555 94.2323 73.4135 94.5179C73.5044 94.689 73.617 95.2458 72.7415 96.7689C70.8089 100.146 71.2884 101.666 72.2638 103.594C72.8233 104.73 73.6422 105.718 74.6541 106.477C75.6719 107.236 76.8544 107.744 78.1051 107.958C78.1397 107.961 78.1741 107.965 78.2084 107.97C86.1367 106.724 93.0934 102.551 97.9382 96.5926ZM80.0506 119.06C80.4587 119.086 80.8648 119.101 81.2638 119.1C81.3271 119.1 81.3902 119.1 81.4531 119.099C80.9831 119.096 80.5155 119.083 80.0506 119.06ZM82.6371 119.085C82.711 119.085 82.7847 119.084 82.8585 119.083L84.3297 119.007L84.3038 118.992C83.7521 119.037 83.1964 119.069 82.6371 119.085Z" fill="#00A58A"/>
<path d="M79.3995 83.0544C78.6572 83.0685 77.9165 83.1293 77.1818 83.2363C76.8374 83.293 76.4898 83.3288 76.1411 83.3437C75.6943 83.2996 75.256 83.193 74.8388 83.0271C74.3046 82.8157 73.7408 82.6886 73.1678 82.6504C72.572 82.6504 71.811 82.8942 71.5658 84.1334C71.4947 84.3769 71.481 84.6335 71.5258 84.8831C71.5708 85.1329 71.6727 85.3689 71.8237 85.5728C72.1615 85.9822 72.7591 86.1806 73.5946 86.1806C74.0669 86.17 74.5382 86.1311 75.0059 86.0641C75.225 86.0314 75.4448 86.0095 75.6652 85.9986C75.9376 85.9986 76.0702 86.1132 76.3554 86.3898C76.7615 86.8322 77.2744 87.1624 77.8448 87.3488L78.0264 87.4107C78.9717 87.7711 79.9652 87.9888 80.9743 88.0567H80.987C81.2881 88.0799 81.5906 88.037 81.8734 87.9311C82.1563 87.8269 82.4125 87.6609 82.6235 87.4452C82.8243 87.1752 82.9643 86.8648 83.034 86.5354C83.1016 86.2045 83.0954 85.8628 83.0158 85.5346C82.7761 83.8787 81.5628 83.0544 79.3995 83.0544Z" fill="#00A58A"/>
<path d="M82.8967 59.3962C83.5027 59.5831 84.1355 59.6679 84.7693 59.6473C85.1689 59.6473 85.4159 59.6473 85.5176 59.7529C85.661 59.9513 85.7664 60.1746 85.8282 60.4116C86.0389 60.9957 86.2986 61.7163 87.0215 62.0639C87.6113 62.305 88.2448 62.4196 88.8815 62.4005C89.4554 62.4005 90.8794 62.3186 91.6859 61.5416C93.3333 59.9549 90.9764 56.9571 90.8729 56.837L90.7966 56.7478L90.6786 56.7114C87.6975 55.7776 84.4543 55.4131 81.331 55.4366H80.6626L80.7425 55.9061C80.797 56.21 81.3092 58.8867 82.8967 59.3962Z" fill="#00A58A"/>
<path d="M19.3206 84.9513L19.2799 84.9769C18.587 85.4569 18.124 86.1753 17.9918 86.9752C17.8597 87.7751 18.0691 88.5917 18.5744 89.247C19.0783 89.9007 19.836 90.341 20.6829 90.4724C21.5299 90.6039 22.3978 90.4158 23.0982 89.9489C23.1186 89.9364 23.1374 89.9217 23.1544 89.9052L38.3732 75.3627C38.4317 75.299 38.4649 75.2183 38.4673 75.1342C38.4697 75.05 38.4411 74.9677 38.3863 74.9012C38.3316 74.8347 38.254 74.788 38.1668 74.7691C38.0797 74.7502 37.9882 74.7602 37.908 74.7975L19.3206 84.9513Z" fill="#B8E6FF"/>
<path d="M21.4409 89.324C22.6334 89.324 23.6001 88.4146 23.6001 87.2928C23.6001 86.1711 22.6334 85.2617 21.4409 85.2617C20.2484 85.2617 19.2817 86.1711 19.2817 87.2928C19.2817 88.4146 20.2484 89.324 21.4409 89.324Z" fill="#EBF8FF"/>
<path d="M31.7523 87.0931L31.7291 87.1168C31.3522 87.538 31.1678 88.0823 31.2161 88.6309C31.2644 89.1796 31.5415 89.6879 31.9868 90.045C32.4304 90.3987 33.0038 90.5746 33.5838 90.5347C34.1637 90.4948 34.7038 90.2423 35.088 89.8317L35.117 89.7934L42.7129 77.8965C42.7464 77.8457 42.7589 77.7851 42.7481 77.7262C42.7373 77.6672 42.7039 77.6141 42.6542 77.5768C42.6045 77.5395 42.542 77.5206 42.4785 77.5238C42.415 77.5269 42.355 77.5518 42.3098 77.5938L31.7523 87.0931Z" fill="#B8E6FF"/>
<path d="M33.5492 89.7055C34.3606 89.7055 35.0184 89.0867 35.0184 88.3234C35.0184 87.5602 34.3606 86.9414 33.5492 86.9414C32.7378 86.9414 32.0801 87.5602 32.0801 88.3234C32.0801 89.0867 32.7378 89.7055 33.5492 89.7055Z" fill="#EBF8FF"/>
<path fill-rule="evenodd" clip-rule="evenodd" d="M42.6853 33.656C42.704 34.2783 42.2146 34.7978 41.5924 34.8164C40.3535 34.8535 39.1357 35.0381 37.9614 35.3608C37.3612 35.5258 36.7408 35.1729 36.5758 34.5727C36.4108 33.9724 36.7637 33.352 37.364 33.187C38.7107 32.8168 40.1064 32.6055 41.5249 32.563C42.1472 32.5444 42.6667 33.0337 42.6853 33.656ZM44.3824 33.8062C44.5082 33.1965 45.1043 32.8041 45.7141 32.9298C47.052 33.2057 48.3857 33.6359 49.6944 34.2275C50.2617 34.4839 50.5137 35.1516 50.2572 35.7189C50.0008 36.2862 49.3331 36.5382 48.7658 36.2818C47.6075 35.7582 46.4325 35.3798 45.2588 35.1378C44.6491 35.0121 44.2567 34.4159 44.3824 33.8062ZM35.0001 35.2168C35.3029 35.7608 35.1073 36.4472 34.5634 36.75C33.4995 37.3421 32.5009 38.0634 31.5901 38.9054C31.1329 39.3279 30.4198 39.2999 29.9972 38.8427C29.5746 38.3855 29.6027 37.6724 30.0599 37.2498C31.1026 36.2859 32.2469 35.4591 33.467 34.7801C34.0109 34.4773 34.6973 34.6729 35.0001 35.2168ZM51.7243 36.5786C52.0895 36.0744 52.7943 35.9618 53.2985 36.3271C54.3787 37.1097 55.4237 38.0179 56.4207 39.0555C56.852 39.5044 56.8378 40.2179 56.3889 40.6493C55.94 41.0806 55.2264 41.0664 54.7951 40.6175C53.8882 39.6737 52.9442 38.8543 51.9758 38.1527C51.4716 37.7875 51.359 37.0827 51.7243 36.5786ZM28.8922 40.1368C29.4088 40.4842 29.5459 41.1846 29.1985 41.7012C28.8587 42.2064 28.5432 42.7371 28.2544 43.2923C27.9672 43.8446 27.2866 44.0595 26.7343 43.7722C26.182 43.4849 25.9671 42.8043 26.2544 42.252C26.582 41.6221 26.9407 41.0187 27.3278 40.4431C27.6752 39.9265 28.3756 39.7894 28.8922 40.1368ZM57.4602 41.9627C57.9695 41.6047 58.6726 41.7274 59.0306 42.2367C59.783 43.3072 60.4932 44.4705 61.154 45.7288C61.4434 46.28 61.2313 46.9614 60.6801 47.2509C60.1289 47.5403 59.4475 47.3281 59.158 46.777C58.5405 45.601 57.8805 44.5209 57.1862 43.5331C56.8282 43.0238 56.9509 42.3207 57.4602 41.9627ZM61.3835 48.8033C61.9628 48.5755 62.6172 48.8606 62.8449 49.44C63.319 50.6462 63.7537 51.9212 64.1448 53.2665C64.3185 53.8643 63.9748 54.4898 63.377 54.6635C62.7792 54.8373 62.1537 54.4935 61.9799 53.8957C61.6073 52.6138 61.1946 51.4042 60.7467 50.2647C60.519 49.6853 60.8041 49.031 61.3835 48.8033ZM63.7862 56.327C64.3958 56.2006 64.9924 56.5924 65.1188 57.202C65.3807 58.4658 65.608 59.7823 65.7978 61.1525C65.8832 61.7691 65.4525 62.3383 64.8359 62.4237C64.2192 62.5091 63.6501 62.0785 63.5647 61.4618C63.3815 60.1394 63.1627 58.8724 62.9113 57.6596C62.7849 57.05 63.1766 56.4534 63.7862 56.327ZM65.0164 64.1028C65.637 64.0532 66.1802 64.5161 66.2298 65.1367C66.2828 65.8002 66.3277 66.4749 66.3642 67.1609C66.3974 67.7825 65.9202 68.3133 65.2986 68.3465C64.6769 68.3796 64.1461 67.9025 64.113 67.2808C64.0775 66.6144 64.0339 65.9595 63.9825 65.3162C63.933 64.6956 64.3959 64.1523 65.0164 64.1028Z" fill="#A9B4BE"/>
<path d="M76.0133 30.0586C69.5435 30.0586 66.1377 35.5294 66.1377 41.5447C66.1377 47.9767 72.5263 56.5368 75.2324 59.8741C75.8917 60.6873 77.0561 60.8014 77.8477 60.1164C81.1256 57.2796 88.9134 49.6836 88.9134 41.5447C88.9134 34.336 82.4832 30.0586 76.0133 30.0586ZM77.8402 45.4305C75.5332 45.4305 73.6608 43.6897 73.6608 41.5447C73.6608 39.3997 75.5332 37.6588 77.8402 37.6588C80.1473 37.6588 82.0197 39.3997 82.0197 41.5447C82.0197 43.6897 80.1473 45.4305 77.8402 45.4305Z" fill="#3B0AC6"/>
<path d="M75.23 30.0684C69.2147 30.0684 64.3496 34.9334 64.3496 40.9487C64.3496 47.2502 70.8378 55.869 73.7936 59.4684C74.548 60.3871 75.9119 60.3871 76.6663 59.4684C79.6221 55.869 86.1103 47.2502 86.1103 40.9487C86.1103 34.9334 81.2452 30.0684 75.23 30.0684ZM75.23 44.8345C73.085 44.8345 71.3441 43.0937 71.3441 40.9487C71.3441 38.8037 73.085 37.0629 75.23 37.0629C77.3749 37.0629 79.1158 38.8037 79.1158 40.9487C79.1158 43.0937 77.3749 44.8345 75.23 44.8345Z" fill="#5D36FF"/>
</svg>
