<svg width="45" height="45" viewBox="0 0 45 45" fill="none" xmlns="http://www.w3.org/2000/svg">
<path d="M21.5169 5.7565L1.78033 15.2531C1.38111 15.4303 1.04151 15.719 0.802308 16.0845C0.576283 16.4448 0.45755 16.8621 0.459998 17.2874V36.2709C0.459992 36.871 0.697707 37.4467 1.12112 37.8719C1.54453 38.2972 2.11916 38.5374 2.71924 38.54H42.2511C42.8512 38.5374 43.4258 38.2972 43.8492 37.8719C44.2726 37.4467 44.5103 36.871 44.5103 36.2709V17.2874C44.5128 16.8621 44.394 16.4448 44.168 16.0845C43.9288 15.719 43.5892 15.4303 43.19 15.2531L23.4925 5.72716C23.186 5.58524 22.8523 5.51172 22.5145 5.51172C22.1767 5.51172 21.843 5.58524 21.5365 5.72716L21.5169 5.7565Z" fill="#CEDBE8"/>
<path d="M2.75854 39.0382C2.02511 39.0355 1.32231 38.7439 0.802483 38.2265C0.546733 37.9692 0.344251 37.664 0.206634 37.3284C0.0690171 36.9927 -0.00103074 36.6332 0.000501409 36.2704V17.2869C-0.00972935 16.7668 0.136809 16.2556 0.421053 15.8199C0.700192 15.3941 1.09328 15.0552 1.55556 14.8419L21.2921 5.35501C21.6669 5.16936 22.0771 5.06599 22.4951 5.05183C22.9064 5.04031 23.3147 5.12399 23.6883 5.29633L43.4444 14.8321C43.9067 15.0454 44.2998 15.3843 44.5789 15.8101C44.8632 16.2458 45.0097 16.757 44.9995 17.2772V36.2607C45.001 36.6234 44.931 36.9829 44.7934 37.3186C44.6558 37.6542 44.4533 37.9594 44.1975 38.2167C43.6777 38.7341 42.9749 39.0258 42.2415 39.0285L2.75854 39.0382ZM22.544 6.02985C22.2755 6.03104 22.011 6.09466 21.7714 6.21568L2.0348 15.7025C1.733 15.8468 1.47856 16.0741 1.30128 16.3578C1.1137 16.6489 1.01827 16.9897 1.02743 17.3358V36.3291C1.02206 36.7693 1.18269 37.1953 1.47732 37.5223C1.80957 37.8552 2.25892 38.0448 2.7292 38.0504H42.2512C42.4891 38.0515 42.7248 38.0053 42.9447 37.9146C43.1646 37.824 43.3644 37.6906 43.5325 37.5223C43.6977 37.3585 43.8287 37.1635 43.9177 36.9486C44.0067 36.7336 44.0519 36.5031 44.0508 36.2704V17.2869C44.0594 16.9409 43.964 16.6002 43.777 16.3089C43.6034 16.0281 43.352 15.8038 43.0532 15.6634L23.2775 6.16678C23.0448 6.07201 22.7953 6.02543 22.544 6.02985Z" fill="#688FB7"/>
<path d="M23.2089 27.2631C22.9016 27.4019 22.5682 27.4736 22.2309 27.4736C21.8937 27.4736 21.5603 27.4019 21.2529 27.2631L10.8369 22.236L4.96875 19.4095L21.0377 11.6538C21.3418 11.5038 21.6767 11.4268 22.0158 11.4288C22.355 11.4253 22.6902 11.5024 22.9938 11.6538L39.2779 19.478L33.6054 22.2165L23.2089 27.2631Z" fill="#F58B00"/>
<path d="M23.4929 27.1554C23.1855 27.2942 22.8521 27.366 22.5149 27.366C22.1776 27.366 21.8442 27.2942 21.5368 27.1554L21.3119 27.0381L0.841797 37.679C1.04754 38.0005 1.32982 38.266 1.66334 38.4516C1.9985 38.6376 2.37545 38.7352 2.75873 38.7353H42.2417C42.5808 38.7384 42.916 38.6614 43.2197 38.5103C43.5341 38.357 43.8087 38.1326 44.0217 37.855L23.6592 27.0968L23.4929 27.1554Z" fill="#B9C1C6"/>
<path d="M2.75854 39.0382C2.02511 39.0355 1.32231 38.7439 0.802483 38.2265C0.546733 37.9692 0.344251 37.664 0.206634 37.3284C0.0690171 36.9927 -0.00103074 36.6332 0.000501409 36.2704V17.2869C-0.00972935 16.7668 0.136809 16.2556 0.421053 15.8199C0.700192 15.3941 1.09328 15.0552 1.55556 14.8419L21.2921 5.35501C21.6669 5.16936 22.0771 5.06599 22.4951 5.05183C22.9064 5.04031 23.3147 5.12399 23.6883 5.29633L43.4444 14.8321C43.9067 15.0454 44.2998 15.3843 44.5789 15.8101C44.8632 16.2458 45.0097 16.757 44.9995 17.2772V36.2607C45.001 36.6234 44.931 36.9829 44.7934 37.3186C44.6558 37.6542 44.4533 37.9594 44.1975 38.2167C43.6777 38.7341 42.9749 39.0258 42.2415 39.0285L2.75854 39.0382ZM22.544 6.02985C22.2755 6.03104 22.011 6.09466 21.7714 6.21568L2.0348 15.7025C1.733 15.8468 1.47856 16.0741 1.30128 16.3578C1.1137 16.6489 1.01827 16.9897 1.02743 17.3358V36.3291C1.02206 36.7693 1.18269 37.1953 1.47732 37.5223C1.80957 37.8552 2.25892 38.0448 2.7292 38.0504H42.2512C42.4891 38.0515 42.7248 38.0053 42.9447 37.9146C43.1646 37.824 43.3644 37.6906 43.5325 37.5223C43.6977 37.3585 43.8287 37.1635 43.9177 36.9486C44.0067 36.7336 44.0519 36.5031 44.0508 36.2704V17.2869C44.0594 16.9409 43.964 16.6002 43.777 16.3089C43.6034 16.0281 43.352 15.8038 43.0532 15.6634L23.2775 6.16678C23.0448 6.07201 22.7953 6.02543 22.544 6.02985Z" fill="#688FB7"/>
<path opacity="0.51" d="M20.2363 26.784L21.2144 27.2632C21.5214 27.4032 21.8549 27.4757 22.1924 27.4757C22.5298 27.4757 22.8634 27.4032 23.1704 27.2632L33.5864 22.2361L39.2589 19.4977L37.0584 18.4414L20.2363 26.784Z" fill="#CC7400"/>
<path d="M22.505 27.859C22.0938 27.8588 21.6873 27.7721 21.3118 27.6047L1.56541 18.069C0.998393 17.8061 0.541538 17.3527 0.274414 16.7877L1.16442 16.3672C1.33478 16.728 1.62518 17.0184 1.98596 17.1887L21.7323 26.7147C21.9748 26.8256 22.2383 26.8829 22.505 26.8829C22.7716 26.8829 23.0351 26.8256 23.2776 26.7147L43.0142 17.1887C43.3758 17.0163 43.6687 16.7268 43.8455 16.3672L44.7355 16.7877C44.4702 17.3564 44.0132 17.8135 43.4445 18.0787L23.7079 27.6047C23.3301 27.7755 22.9196 27.8623 22.505 27.859Z" fill="#688FB7"/>
</svg>
