<svg width="45" height="45" viewBox="0 0 45 45" fill="none" xmlns="http://www.w3.org/2000/svg">
<path fill-rule="evenodd" clip-rule="evenodd" d="M2.11709 41.3639V39.1083C2.11709 33.1028 6.9855 28.2344 12.991 28.2344H32.0084C38.0139 28.2344 42.8823 33.1028 42.8823 39.1083V41.3639H2.11709Z" fill="white"/>
<path fill-rule="evenodd" clip-rule="evenodd" d="M1.11708 42.3639H43.8823V39.1083C43.8823 32.5505 38.5662 27.2344 32.0084 27.2344H12.991C6.43322 27.2344 1.11708 32.5505 1.11708 39.1083V42.3639ZM2.11708 39.1083C2.11708 33.1028 6.9855 28.2344 12.991 28.2344H32.0084C38.0139 28.2344 42.8823 33.1028 42.8823 39.1083V41.3639H2.11708V39.1083Z" fill="#00144A"/>
<path d="M30.3501 37.2187C30.3501 36.5122 29.7773 35.9395 29.0708 35.9395H15.9282C15.2217 35.9395 14.649 36.5122 14.649 37.2187V41.3648H30.3501V37.2187Z" fill="#F58B00"/>
<path fill-rule="evenodd" clip-rule="evenodd" d="M9.26416 12.6074V17.1765V21.7456C9.26416 21.7456 6.05361 21.2743 6.17836 17.8407V17.1765V16.5128C6.05361 13.0787 9.26416 12.6074 9.26416 12.6074Z" fill="#00144A"/>
<path fill-rule="evenodd" clip-rule="evenodd" d="M35.9536 12.6074V17.1765V21.7456C35.9536 21.7456 39.1642 21.2743 39.0394 17.8407V17.1765V16.5128C39.1642 13.0787 35.9536 12.6074 35.9536 12.6074Z" fill="#00144A"/>
<path d="M9.20947 16.7176C9.25286 20.5924 10.3464 22.5368 13.2383 25.0484C18.4445 28.7813 27.6075 28.0846 31.9213 25.0364C34.5327 23.2579 36.0496 20.4329 36.0054 16.4143C35.9174 8.84621 30.475 1.97834 22.5998 2.06129C14.728 2.14339 9.12227 9.14781 9.20947 16.7176Z" fill="white"/>
<path fill-rule="evenodd" clip-rule="evenodd" d="M12.6191 25.8324L12.6569 25.8595C15.4943 27.894 19.3258 28.6753 22.9407 28.5833C26.5472 28.4915 30.1251 27.5258 32.4918 25.8565C35.4067 23.8679 37.0528 20.7119 37.0053 16.4024L37.0053 16.4018C36.9125 8.41918 31.1441 0.971256 22.5902 1.06136C14.0664 1.15026 8.11888 8.7117 8.21123 16.7283C8.23399 18.759 8.5331 20.3763 9.26234 21.8392C9.9871 23.293 11.0947 24.5085 12.584 25.8019L12.6191 25.8324ZM9.21032 16.7167C9.25371 20.5916 10.3472 22.536 13.2392 25.0475C18.4454 28.7805 27.6083 28.0837 31.9221 25.0356C34.5336 23.2571 36.0505 20.4321 36.0063 16.4134C35.9182 8.84538 30.4758 1.97751 22.6006 2.06046C14.7289 2.14256 9.12311 9.14698 9.21032 16.7167Z" fill="#00144A"/>
<path fill-rule="evenodd" clip-rule="evenodd" d="M11.8523 16.8962C11.9173 22.6603 16.3021 25.1586 22.7942 25.09C29.2859 25.019 33.5208 22.4049 33.4573 16.6444C33.3903 10.8832 29.0444 7.14521 22.5523 7.21382C16.0626 7.28203 11.7857 11.1338 11.8523 16.8962Z" fill="#00144A"/>
<circle cx="3.3467" cy="3.3467" r="3.3467" transform="matrix(-0.983212 -0.182469 -0.182469 0.983212 31.3242 10.793)" fill="#A9B4BE"/>
<path fill-rule="evenodd" clip-rule="evenodd" d="M22.5082 27.7611H22.8024C22.8024 27.7611 29.1234 27.9761 32.9449 24.6264C32.956 24.6166 32.973 24.6208 32.9721 24.6357C32.9419 25.1351 32.3859 30.8146 22.8024 30.8146H22.5082C12.9242 30.8146 12.3686 25.1351 12.3384 24.6357C12.3375 24.6208 12.3546 24.6166 12.3656 24.6264C16.1871 27.9761 22.5082 27.7611 22.5082 27.7611Z" fill="#00144A"/>
</svg>
