<svg width="320" height="240" viewBox="0 0 320 240" fill="none" xmlns="http://www.w3.org/2000/svg">
<rect y="51" width="320" height="138" rx="24" fill="#89D1FF"/>
<path d="M215.189 161.388C212.722 149.039 210.098 136.721 207.604 124.379C207.352 123.123 207.09 121.851 206.535 120.701C204.819 117.16 200.936 115.685 197.992 113.497C196.623 112.477 187.428 107.445 187.428 106.477V124.164C187.56 124.319 187.684 124.458 187.795 124.583C187.819 124.607 187.839 124.631 187.86 124.652C188.142 124.956 188.186 125.423 187.951 125.766C187.819 125.96 187.64 126.136 187.413 126.215V79.9327V65.885C187.413 64.1431 185.762 62.735 183.724 62.735H159.385V61.7942C159.385 61.3542 159.038 60.9961 158.612 60.9961C158.186 60.9961 157.84 61.3542 157.84 61.7942V62.735H117.996V61.7942C117.996 61.3542 117.649 60.9961 117.223 60.9961C116.797 60.9961 116.45 61.3542 116.45 61.7942V62.735H93.2337C93.0839 62.735 92.934 62.7411 92.7901 62.7562C92.6638 62.7684 92.5404 62.7835 92.4199 62.8048C92.4052 62.8048 92.3906 62.8078 92.3759 62.8109C91.1949 63.0172 90.1932 63.6424 89.588 64.4982C89.1973 65.0474 88.9711 65.6908 88.9711 66.3797V79.9388V109.406C88.5099 109.7 88.0604 110.01 87.6197 110.341L86.2566 111.369L86.0451 103.673C86.0451 103.673 88.0016 98.2898 88.7889 92.7453C88.8242 92.5025 88.8565 92.2628 88.8859 92.02C88.9534 91.4768 88.9769 90.9518 88.9681 90.442C88.9358 88.7486 88.5128 87.2555 87.9253 86.0568C87.8665 85.9354 87.8048 85.8201 87.7431 85.7048C86.6327 83.6503 85.0581 82.5578 84.3413 82.931C83.0634 83.5896 82.6609 89.3889 82.3789 91.1491C82.1527 92.5541 79.6909 99.9012 78.3601 102.584C78.269 102.766 78.1897 102.951 78.1163 103.142C77.8989 103.713 77.7667 104.311 77.7226 104.924L76.7326 118.401L76.5387 121.053C76.5387 121.053 75.0728 122.364 73.8566 123.76C73.4453 124.234 73.0634 124.713 72.7755 125.159C72.4583 125.651 72.3642 126.324 72.4318 127.226C72.4641 127.654 72.5346 128.136 72.6375 128.673C72.6756 128.874 72.7168 129.08 72.7638 129.295C72.8284 129.596 72.8989 129.912 72.9782 130.245C73.1192 130.846 73.2867 131.502 73.4688 132.212C73.9712 134.169 74.6028 136.555 75.2638 139.453C76.4623 144.721 76.8384 149.17 76.95 151.768C76.9559 151.898 76.9618 152.022 76.9647 152.144C76.9735 152.384 76.9794 152.605 76.9853 152.808C76.9911 153.009 76.9941 153.191 76.9941 153.352C76.9941 153.513 76.9941 153.652 76.9941 153.767C76.9941 154.062 76.9882 154.214 76.9882 154.214C76.6768 155.5 76.2596 156.763 75.7338 157.989L74.0035 162.019L69.7438 171.994H69.735L62.4554 188.967H88.6156C91.615 180.412 94.4411 172.37 96.0274 168.088L96.0216 168.061C96.1332 167.761 96.2419 167.469 96.3506 167.184C98.122 165.921 99.2589 164.304 99.9346 162.48C104.526 152.915 104.027 135.316 104.027 135.316L97.0498 135.325C97.0498 135.325 97.0498 135.319 97.0498 135.316H126.083C125.895 135.593 125.686 135.881 125.451 136.19C125.399 136.26 125.346 136.327 125.29 136.4C125.184 136.536 125.072 136.673 124.955 136.819C124.949 136.825 124.946 136.831 124.94 136.837C124.579 137.28 124.232 137.932 123.915 138.724C123.845 138.903 123.774 139.089 123.706 139.28C123.671 139.377 123.636 139.477 123.604 139.58C123.354 140.321 123.131 141.143 122.946 142.008C122.931 142.078 122.916 142.144 122.902 142.214C122.79 142.754 122.69 143.31 122.605 143.868C122.575 144.065 122.549 144.266 122.523 144.463C122.496 144.678 122.47 144.894 122.449 145.112C122.411 145.48 122.382 145.844 122.361 146.205C122.361 146.226 122.361 146.247 122.358 146.272C122.314 147.046 122.308 147.798 122.346 148.508C122.355 148.687 122.37 148.863 122.384 149.036C122.417 149.382 122.461 149.713 122.517 150.029C122.572 150.344 122.643 150.642 122.725 150.921C122.89 151.476 123.11 151.95 123.389 152.314C123.466 152.411 123.539 152.514 123.612 152.617C124.303 153.604 124.902 154.86 125.399 156.107C125.46 156.265 125.522 156.423 125.584 156.581C125.622 156.681 125.66 156.784 125.695 156.884C125.869 157.358 126.027 157.819 126.168 158.256C126.712 159.934 126.988 161.691 126.988 163.46L127.008 188.967H154.502C151.244 171.836 147.887 152.438 149.068 150.869C149.138 150.778 149.212 150.687 149.285 150.599C149.353 150.52 149.426 150.438 149.499 150.359C149.508 150.35 149.514 150.341 149.523 150.332C149.573 150.281 149.626 150.229 149.676 150.174C150.898 148.948 152.596 148.041 153.935 146.939C155.369 145.762 157.525 144.081 158.201 142.202C158.201 142.202 158.201 142.202 158.201 142.199C158.642 141.453 158.985 140.651 159.182 139.783C159.438 138.661 159.59 137.11 159.664 135.322H174.679C174.825 141.046 175.478 146.763 177.481 147.209C179.399 147.637 180.842 145.935 181.832 144.005C183.192 147.652 185.028 151.148 189.443 157.127C190.657 158.769 191.65 160.137 192.469 161.284C192.81 161.758 193.118 162.195 193.4 162.595C193.6 162.881 193.791 163.151 193.965 163.403C194.064 163.548 194.161 163.688 194.252 163.821C195.266 165.293 195.771 166.104 196.021 166.544C196.088 166.662 196.138 166.756 196.177 166.826C196.2 166.871 196.218 166.911 196.232 166.938C196.265 167.011 196.271 167.032 196.271 167.032L195.533 188.973H218.864C217.04 175.278 215.189 161.394 215.189 161.394V161.388Z" fill="#1B90FF"/>
<path d="M216.647 125.529H106.026C103.138 125.529 100.794 123.591 100.794 121.201V45.1639C100.794 42.7738 103.134 40.8359 106.026 40.8359H217.083C219.585 40.8359 221.611 42.5154 221.611 44.5825V121.42C221.611 123.691 219.387 125.529 216.643 125.529" fill="#0040B0"/>
<path d="M216.344 123.943H106.011C103.131 123.943 100.794 122.016 100.794 119.64V43.9981C100.794 41.6224 103.131 39.6953 106.011 39.6953H216.78C219.275 39.6953 221.298 41.364 221.298 43.4239V119.859C221.298 122.116 219.081 123.95 216.341 123.95" fill="white"/>
<path d="M221.611 60.0287H100.794V43.9981C100.794 41.6224 103.134 39.6953 106.026 39.6953H217.083C219.585 39.6953 221.611 41.364 221.611 43.4204V60.0287Z" fill="#DF1278"/>
<path d="M175.831 58.1731C171.747 57.24 167.593 56.4792 163.393 55.9158C158.919 55.3165 154.391 55.0186 149.862 54.7495C141.3 54.2399 132.305 53.9061 124.222 51.5053C119.261 50.0304 115.226 47.547 113.532 43.6282C112.98 42.3542 112.649 41.03 112.454 39.6914H106.029C103.141 39.6914 100.798 41.6185 100.798 43.9942V60.0284H183.049C180.673 59.3466 178.265 58.7293 175.831 58.1731Z" fill="#9B015D"/>
<path d="M141.676 123.458L141.676 60.4883" stroke="#DF1278" stroke-width="2.30551" stroke-miterlimit="10"/>
<path d="M179.898 123.758V60.375" stroke="#DF1278" stroke-width="2.30551" stroke-miterlimit="10"/>
<path d="M221.302 79.3906H100.863" stroke="#DF1278" stroke-width="2.30551" stroke-miterlimit="10"/>
<path d="M221.302 102.027H100.863" stroke="#DF1278" stroke-width="2.30551" stroke-miterlimit="10"/>
<path d="M136.007 47.2052C137.186 47.2052 138.145 46.4014 138.145 45.4073C138.145 44.4132 137.19 43.6094 136.007 43.6094C134.825 43.6094 133.873 44.4132 133.873 45.4073C133.873 46.4014 134.828 47.2052 136.007 47.2052Z" fill="#9B015D"/>
<path d="M135.535 43.6523C134.583 43.8318 133.869 44.5495 133.869 45.4072C133.869 46.2649 134.58 46.979 135.535 47.1621C136.487 46.9826 137.201 46.2649 137.201 45.4072C137.201 44.5495 136.49 43.8354 135.535 43.6523Z" fill="#0040B0"/>
<path d="M186.738 47.2052C187.917 47.2052 188.872 46.4014 188.872 45.4073C188.872 44.4132 187.917 43.6094 186.738 43.6094C185.559 43.6094 184.603 44.4132 184.603 45.4073C184.603 46.4014 185.559 47.2052 186.738 47.2052Z" fill="#9B015D"/>
<path d="M186.265 43.6523C185.313 43.8318 184.599 44.5495 184.599 45.4072C184.599 46.2649 185.31 46.979 186.265 47.1621C187.217 46.9826 187.931 46.2649 187.931 45.4072C187.931 44.5495 187.22 43.8354 186.265 43.6523Z" fill="#0040B0"/>
<path d="M135.47 37.6367H135.467C134.943 37.6367 134.518 38.0593 134.518 38.5805V44.9146C134.518 45.4358 134.943 45.8584 135.467 45.8584H135.47C135.994 45.8584 136.418 45.4358 136.418 44.9146V38.5805C136.418 38.0593 135.994 37.6367 135.47 37.6367Z" fill="#0040B0"/>
<path d="M186.269 37.6367H186.265C185.742 37.6367 185.317 38.0593 185.317 38.5805V44.9146C185.317 45.4358 185.742 45.8584 186.265 45.8584H186.269C186.793 45.8584 187.217 45.4358 187.217 44.9146V38.5805C187.217 38.0593 186.793 37.6367 186.269 37.6367Z" fill="#0040B0"/>
<path d="M206.289 111.391C206.289 111.391 204.396 138.507 209.422 139.583C214.448 140.663 216.805 130.274 216.805 130.274C216.805 130.274 216.117 116.228 206.289 111.391Z" fill="#FF7F4C"/>
<path d="M205.225 114.479C207.396 116.855 210.128 120.874 212.728 128.791C215.327 136.704 215.969 140.705 224.102 151.317C232.236 161.929 232.481 163.027 232.481 163.027L231.576 188.973H260.209C257.971 172.777 255.699 156.359 255.699 156.359C252.671 141.757 249.451 127.191 246.39 112.595C246.08 111.11 245.759 109.606 245.078 108.246C242.973 104.058 238.206 102.314 234.594 99.7264C232.914 98.5206 221.629 92.5706 221.629 91.4258V112.341C221.791 112.524 221.943 112.689 222.08 112.836C222.109 112.865 222.134 112.893 222.159 112.918C222.505 113.277 222.559 113.83 222.271 114.235C221.983 114.641 221.55 114.975 220.912 114.756C219.026 114.11 217.508 109.976 216.639 108.336C214.649 104.571 199.814 87.428 195.754 96.2561C191.857 104.736 203.051 112.104 205.218 114.483L205.225 114.479Z" fill="#FFAB92"/>
<path d="M205.225 114.478C207.396 116.857 209.768 120.873 212.367 128.789C214.967 136.702 215.969 140.704 224.102 151.316C232.236 161.927 232.481 163.025 232.481 163.025L231.576 188.972H247.339C245.345 177.362 242.151 165.143 235.261 156.451C233.62 154.38 231.807 152.453 229.918 150.609C228.057 148.789 226.446 146.941 225.195 144.648C222.664 140.008 221.568 134.768 219.751 129.841C217.901 124.828 215.244 120.266 211.693 116.261C209.948 114.295 208.07 112.454 206.188 110.616C204.403 108.872 202.518 107.189 201.162 105.075C200.095 103.407 199.421 101.541 199.431 99.5489C199.442 97.6684 200.026 95.8598 200.841 94.1767C198.674 93.5594 196.807 93.9685 195.754 96.2581C191.857 104.738 203.051 112.106 205.218 114.485L205.225 114.478Z" fill="#FF7F4C"/>
<path d="M201.951 104.128C203.43 103.364 204.645 102.18 205.452 100.73L205.463 100.712C205.748 100.202 205.744 99.5816 205.456 99.0755C204.23 96.9331 200.657 91.647 196.724 94.8481C192.336 98.4152 198.025 102.625 200.275 104.057C200.78 104.38 201.421 104.405 201.955 104.128H201.951Z" fill="#A93E00"/>
<path d="M146.441 152.651C147.108 154.636 147.447 156.714 147.447 158.806L147.472 188.969H181.214C177.216 168.711 173.095 145.772 174.544 143.916C177.18 140.547 185.457 137.173 186.964 130.807C188.471 124.441 187.083 106.533 186.009 101.068C184.935 95.602 182.905 83.9568 179.087 84.5525C175.572 85.098 175.291 87.4557 175.269 87.8289C175.294 87.2081 175.446 80.5978 171.098 79.6539C170.171 79.453 169.208 79.6396 168.394 80.1276C167.579 80.6157 166.62 81.398 166.551 82.4136C166.551 82.4136 165.596 80.1564 162.852 81.2258C160.105 82.2952 159.629 91.2059 159.629 91.2059C159.629 91.2059 156.168 89.7812 154.975 93.4632C153.781 97.1451 151.395 114.615 149.603 118.774C147.811 122.933 147.573 124.24 144.948 127.329C142.324 130.419 140.294 142.183 143.038 145.628C144.519 147.487 145.687 150.38 146.448 152.655L146.441 152.651Z" fill="#A93E00"/>
<path d="M185.757 133.668C185.786 133.592 185.692 133.521 185.63 133.575C184.502 134.472 166.227 147.359 156.691 134.691C155.854 133.582 154.088 133.478 152.671 133.514C152.512 133.517 151.755 133.632 150.962 133.747C149.891 133.901 149.224 134.985 149.574 136.004C150.086 137.504 150.72 139.216 151.258 140.253C151.755 141.222 152.256 142.205 152.808 143.146C153.392 144.136 154.21 144.954 155.119 145.654C155.137 145.668 155.159 145.683 155.18 145.701C159.438 148.988 165.192 149.634 170.07 147.348C170.766 147.021 173.747 144.943 174.548 143.917C176.03 142.019 178.582 140.806 180.525 139.273C182.285 137.881 184.931 135.893 185.76 133.671L185.757 133.668Z" fill="#340800"/>
<path d="M158.205 112.619C158.462 109.787 158.371 107.316 158.839 104.703C159.067 103.429 159.157 102.992 159.369 101.714C159.679 99.8479 160.058 96.3274 159.881 95.3047C159.752 94.5475 160.026 91.8416 159.629 91.1992C159.571 93.3955 158.695 101.047 158.533 102.08C158.378 103.089 158.291 104.104 158.205 105.12C158.035 107.119 157.956 109.121 157.855 111.127C157.754 113.151 157.592 115.169 157.336 117.182C157.156 118.597 156.898 120.32 156.269 121.979C156.143 122.152 156.078 122.36 156.074 122.571C156.074 122.711 156.089 122.973 156.179 123.088C156.348 123.3 156.655 122.887 156.734 122.751C158.248 120.009 157.924 115.715 158.205 112.619Z" fill="#340800"/>
<path d="M166.547 82.4102C166.504 85.9737 166.955 92.4118 167.279 96.4849C167.47 98.9109 167.344 101.351 166.897 103.745C166.504 105.851 166.5 115.785 166.515 119.56C166.515 119.768 166.814 119.801 166.861 119.6C167.268 117.834 167.914 114.834 168.015 113.075C168.09 111.73 168.108 110.384 168.112 109.035C168.116 107.499 168.159 105.963 168.22 104.43C168.339 101.337 168.512 98.2434 168.516 95.1464C168.516 92.2682 168.274 89.3794 167.809 86.5407C167.654 85.5969 166.911 82.3635 166.544 82.4137L166.547 82.4102Z" fill="#340800"/>
<path d="M177.23 95.7013C176.552 93.3795 176.159 91.0217 175.863 88.6065C175.795 88.0467 175.788 87.329 175.535 86.8086C174.674 88.402 175.449 94.98 176.109 97.1332C176.794 99.3618 177.767 101.526 177.998 103.869C178.113 105.046 177.936 106.22 177.835 107.39C177.727 108.649 177.634 109.909 177.558 111.172C177.507 111.976 177.587 116.153 177.652 119.006C177.659 119.261 178.034 119.283 178.066 119.028C178.391 116.494 178.823 112.995 178.841 112.277C178.874 111.158 179.57 105.003 177.662 97.065C177.551 96.5985 177.363 96.1571 177.23 95.7013Z" fill="#340800"/>
<path d="M146.441 152.65C147.108 154.635 147.447 156.712 147.447 158.805L147.472 188.967H155.216C155.573 180.308 155.966 171.957 155.158 168.01C154.336 163.997 153.514 159.906 151.712 156.196C150.075 152.829 147.944 149.725 146.336 146.341C145.557 144.705 144.901 143 144.512 141.224C144.079 139.239 144.007 137.201 144.198 135.184C144.479 132.216 145.258 129.306 145.727 126.359C145.489 126.661 145.233 126.98 144.941 127.321C142.316 130.411 140.286 142.175 143.03 145.62C144.512 147.479 145.68 150.371 146.441 152.646V152.65Z" fill="#340800"/>
<path d="M157.996 90.9143C157.996 90.9143 156.939 91.3126 156.81 93.4084C156.745 94.4312 156.68 95.2997 156.626 95.9241C156.579 96.4839 157.026 96.9612 157.588 96.9612H159.532C159.532 96.9612 160.307 91.6177 159.532 91.1045C158.756 90.5913 157.992 90.9107 157.992 90.9107L157.996 90.9143Z" fill="#340800"/>
<path d="M163.003 87.7784H164.554C164.983 87.7784 165.343 87.4626 165.397 87.0427C165.614 85.3775 165.931 81.4551 164.11 81.3295C161.839 81.1716 162.012 84.5844 162.153 86.9817C162.178 87.4303 162.553 87.7784 163.003 87.7784Z" fill="#340800"/>
<path d="M169.799 87.5758H172.539C172.947 87.5758 173.296 87.2851 173.365 86.8832C173.661 85.1499 174.162 80.7394 171.627 80.5994C168.494 80.4272 168.772 84.2061 168.963 86.8007C168.995 87.2349 169.359 87.5722 169.799 87.5722V87.5758Z" fill="#340800"/>
<path d="M178.715 91.4036L180.846 90.8402C181.25 90.7325 181.516 90.3521 181.477 89.9358C181.318 88.3245 180.712 84.5994 178.567 85.0444C175.903 85.5971 176.931 88.6834 177.688 90.8617C177.835 91.2816 178.283 91.5184 178.712 91.4036H178.715Z" fill="#340800"/>
<path d="M105.225 125.546L119.271 125.531C119.271 125.531 120.165 155.917 109.851 163.212C100.199 170.042 105.225 125.546 105.225 125.546Z" fill="#340800"/>
<path d="M100.362 188.969C104.043 178.853 107.511 169.343 109.458 164.279L109.451 164.247C109.588 163.891 109.721 163.547 109.854 163.21C121.399 155.289 110.983 135.455 110.438 131.13C109.894 126.806 111.163 122.844 112.429 122.844C113.694 122.844 116.773 119.6 118.583 119.062C120.393 118.52 130.711 120.321 134.511 120.863C138.311 121.405 140.305 119.42 139.216 114.378C138.127 109.336 115.053 100.325 117.144 100.673C119.235 101.021 125.418 100.153 131.165 99.9806C136.912 99.8084 142.313 95.9075 138.917 93.478C136.753 91.9312 124.077 91.2996 115.147 91.0448C109.404 90.8798 103.772 92.6167 99.1322 95.99L97.4594 97.2066L97.1998 88.1057C97.1998 88.1057 99.8136 81.1724 100.686 74.3216C101.559 67.4744 96.677 62.7912 95.1087 63.5735C93.5404 64.3523 94.0992 71.8849 93.7495 73.9627C93.4719 75.6243 89.4015 83.6378 87.7647 86.8102C87.3213 87.6715 87.0545 88.6117 86.9824 89.5771L85.5258 108.651C85.5258 108.651 82.3027 111.425 80.9111 113.506C79.5194 115.588 81.6069 120.44 83.9575 130.409C86.3082 140.378 86.081 147.864 86.081 147.864C85.6989 149.386 85.1869 150.879 84.5416 152.329L82.4181 157.094L77.1904 168.89H77.1796L68.2565 188.969H100.362Z" fill="#C35500"/>
<path d="M81.9171 188.968C86.4706 173.297 91.1358 157.119 91.6658 154.6C92.7727 149.324 91.7451 144.48 90.5338 139.33C89.4414 134.7 88.349 130.057 86.6473 125.614C85.8325 123.482 84.8771 121.408 83.8604 119.362C83.4277 118.498 82.9807 117.626 82.786 116.678C82.4002 114.794 83.4818 113.359 84.6427 111.973C85.7784 110.62 86.997 109.336 88.3021 108.141C89.8704 106.705 91.4711 105.284 92.8412 103.655C93.0214 103.439 93.2377 103.127 93.4577 102.79C93.7461 102.345 93.2053 101.828 92.769 102.13C91.3882 103.073 89.6144 104.276 88.9114 104.681C88.6049 104.861 88.0822 104.713 88.0209 104.319C87.5738 101.52 88.0281 98.7527 88.1759 95.9284C88.3886 91.9342 88.9258 87.8503 90.44 84.1145C91.6009 81.2471 93.3531 78.6417 94.2869 75.6811C95.1954 72.7994 95.2891 69.7239 95.4153 66.7309C95.4298 66.4008 95.6965 66.1388 96.0282 66.128C98.6817 66.0311 99.2225 69.426 99.6299 71.3747C99.8426 72.3903 100.048 73.9334 100.575 75.1751C100.618 74.888 100.657 74.6009 100.693 74.3138C101.566 67.4666 96.6844 62.7834 95.1161 63.5657C93.5478 64.3444 93.0539 71.2024 92.7078 73.2838C92.4301 74.9454 89.4089 83.6336 87.7757 86.806C87.3323 87.6672 87.0655 88.6075 86.9934 89.5728L85.5368 108.647C85.5368 108.647 82.3137 111.421 80.9221 113.502C79.5304 115.584 81.6179 120.435 83.9685 130.405C86.3192 140.374 86.092 147.86 86.092 147.86C85.7099 149.382 85.1979 150.875 84.5526 152.324L82.4291 157.09L77.2014 168.886H77.1906L68.2567 188.968H81.9171Z" fill="#8D2A00"/>
<path d="M115.122 108.006C108.856 108.239 103.232 111.985 97.1494 113.328C96.6771 113.432 96.8033 114.128 97.2864 114.074C99.3739 113.848 101.487 112.911 103.48 112.122C110.219 109.463 117.934 108.465 124.701 111.059C127.903 112.287 131.998 115.204 135.398 114.749L136.508 114.616C130.077 112.412 121.921 107.751 115.122 108.002V108.006Z" fill="#8D2A00"/>
<path d="M115.998 100.073C113.961 99.1548 111.643 99.0866 109.555 99.8869C107.085 100.838 103.653 102.521 101.814 103.511C98.6634 105.209 95.4944 106.917 92.5597 108.948C92.0694 109.286 92.5164 110.028 93.0464 109.763C96.0676 108.256 99.0204 106.318 102.02 104.714C106.584 102.273 111.628 99.3378 116.405 101.33C117.083 101.613 126.449 106.408 126.763 105.381L115.998 100.07V100.073Z" fill="#8D2A00"/>
<path d="M129.561 91.7723C129.64 91.7652 130.96 93.4339 131.194 93.5918C131.994 94.1301 132.87 94.3526 133.801 94.3813C135.322 94.428 137.204 94.3813 138.898 94.3921C139.533 94.3957 139.757 93.4662 139.212 93.1037C137.871 92.2066 135.116 91.2628 129.561 91.7723Z" fill="#8D2A00"/>
<path d="M133.148 113.298C133.087 113.29 133.033 113.341 133.047 113.402C133.109 113.71 133.065 114.478 133.112 114.618C133.292 115.146 133.696 115.58 134.165 115.874C134.738 116.233 135.402 116.413 136.065 116.563C137.219 116.822 138.376 117.109 139.497 117.486C139.497 117.486 139.811 114.274 133.148 113.298Z" fill="#8D2A00"/>
</svg>
