<svg width="157" height="150" viewBox="0 0 157 150" fill="none" xmlns="http://www.w3.org/2000/svg">
<path d="M64 128C99.3462 128 128 99.3462 128 64C128 28.6538 99.3462 0 64 0C28.6538 0 0 28.6538 0 64C0 99.3462 28.6538 128 64 128Z" fill="#EBF8FF"/>
<path fill-rule="evenodd" clip-rule="evenodd" d="M83.8684 124.855C107.875 117.022 125.641 95.3793 127.782 69.3099L98.4346 55.6069C96.7917 54.8399 94.8352 55.5513 94.0645 57.196L67.6174 113.637C66.8467 115.282 67.5537 117.237 69.1966 118.004L83.8684 124.855Z" fill="#D1EFFF"/>
<path fill-rule="evenodd" clip-rule="evenodd" d="M119.501 86.6792C119.991 87.284 119.898 88.1717 119.293 88.6618L103.491 101.468C103.118 101.77 102.617 101.861 102.161 101.711C101.706 101.56 101.358 101.188 101.238 100.723L99.0754 92.3086L85.9384 102.308C85.3189 102.779 84.4345 102.659 83.963 102.04C83.4915 101.42 83.6115 100.536 84.231 100.064L99.0581 88.7788C99.434 88.4927 99.9282 88.4139 100.374 88.5689C100.821 88.7239 101.159 89.0921 101.277 89.5496L103.422 97.8947L117.518 86.4715C118.123 85.9814 119.01 86.0744 119.501 86.6792Z" fill="#B8E6FF"/>
<path d="M96.4297 69.8629C96.5947 69.5104 97.0143 69.3584 97.3668 69.5234L99.2978 70.4275C99.6503 70.5925 99.8023 71.0121 99.6373 71.3646L85.3251 101.935C85.1601 102.288 84.7405 102.44 84.388 102.275L82.457 101.371C82.1045 101.206 81.9525 100.786 82.1175 100.433L96.4297 69.8629Z" fill="#EBF8FF"/>
<path fill-rule="evenodd" clip-rule="evenodd" d="M107.999 110.476L83.5344 99.1604C83.1811 98.997 82.7622 99.1509 82.5988 99.5042L81.7037 101.439C81.5403 101.793 81.6942 102.211 82.0475 102.375L105.118 113.046C106.104 112.218 107.065 111.361 107.999 110.476Z" fill="#EBF8FF"/>
<path d="M79.0661 108.619C79.3872 107.909 80.2253 107.588 80.9345 107.909L95.789 114.635C96.4983 114.956 96.81 115.797 96.4889 116.507C96.1678 117.216 95.3297 117.537 94.6205 117.216L79.7659 110.491C79.0567 110.17 78.745 109.328 79.0661 108.619Z" fill="#EBF8FF"/>
<path fill-rule="evenodd" clip-rule="evenodd" d="M24.6624 114.487H86.3119C89.6583 114.487 92.371 111.774 92.371 108.428V44.281L75.6922 30.4531H12.3091C11.0097 30.4531 9.80593 30.8621 8.81936 31.5584C7.89753 33.123 7.04035 34.7302 6.25149 36.3764C6.2505 36.4215 6.25 36.4668 6.25 36.5122V91.6195C10.553 100.6 16.8892 108.421 24.6624 114.487Z" fill="#D5DADD"/>
<path fill-rule="evenodd" clip-rule="evenodd" d="M21.0597 111.457H84.4944C87.1715 111.457 89.3417 109.287 89.3417 106.61V41.9511L71.9963 27.4238H11.4748C7.9766 32.438 5.17807 37.9765 3.2207 43.8978V84.1022C6.73222 94.725 12.9509 104.116 21.0597 111.457Z" fill="white"/>
<path d="M71.9028 41.8184L89.3418 45.3351V41.8184H71.9028Z" fill="#A9B4BE"/>
<path d="M71.9028 41.8194H89.3418L71.9028 27.4238V41.8194Z" fill="#D5DADD"/>
<path d="M97.8751 22.8469C97.8751 21.9485 95.2671 21.2293 91.7825 21.066C91.5832 17.5858 90.8162 14.998 89.9176 15C89.0191 15.002 88.272 17.6097 88.0807 21.1078C84.5861 21.3469 81.9881 22.1278 82 23.0282C82.012 23.9286 84.608 24.6478 88.0927 24.8091C88.3019 28.2894 89.0589 30.8771 89.9555 30.8751C90.8521 30.8731 91.6032 28.2655 91.7944 24.7673C95.289 24.5283 97.885 23.7474 97.8751 22.8469Z" fill="#F58B00"/>
<path d="M114.231 40.0569C114.231 39.4779 112.55 39.0145 110.304 38.9092C110.176 36.6664 109.682 34.9987 109.102 35C108.523 35.0013 108.042 36.6818 107.919 38.9361C105.667 39.0902 103.992 39.5934 104 40.1737C104.008 40.754 105.681 41.2175 107.926 41.3214C108.061 43.5642 108.549 45.2319 109.127 45.2306C109.705 45.2293 110.189 43.5488 110.312 41.2945C112.564 41.1404 114.237 40.6372 114.231 40.0569Z" fill="#F58B00"/>
<rect x="13" y="51.8281" width="65.6545" height="50.6581" rx="3.53116" fill="#EBF8FF"/>
<path fill-rule="evenodd" clip-rule="evenodd" d="M22.3857 86.9628L45.3792 66.1855L46.5629 67.4955L23.5695 88.2727L22.3857 86.9628Z" fill="#9EDDFF"/>
<path fill-rule="evenodd" clip-rule="evenodd" d="M69.2671 86.9628L46.2736 66.1855L45.0899 67.4955L68.0834 88.2727L69.2671 86.9628Z" fill="#9EDDFF"/>
<path fill-rule="evenodd" clip-rule="evenodd" d="M44.8355 85.7149L44.8355 66.4863L46.6011 66.4863L46.6011 85.7149L44.8355 85.7149Z" fill="#9EDDFF"/>
<path d="M52.7912 65.381C52.7912 69.1381 49.7454 72.1838 45.9883 72.1838C42.2313 72.1838 39.1855 69.1381 39.1855 65.381C39.1855 61.6239 42.2313 58.5781 45.9883 58.5781C49.7454 58.5781 52.7912 61.6239 52.7912 65.381Z" fill="#F58B00"/>
<path fill-rule="evenodd" clip-rule="evenodd" d="M40.8833 69.8756C41.2314 68.0784 42.8066 66.7722 44.6466 66.7722H47.352C49.1857 66.7722 50.7563 68.0693 51.1117 69.8568C49.8647 71.2825 48.0321 72.183 45.9893 72.183C43.9554 72.183 42.1299 71.2904 40.8833 69.8756ZM48.2994 62.9388C48.2994 64.2091 47.2696 65.2389 45.9993 65.2389C44.7291 65.2389 43.6993 64.2091 43.6993 62.9388C43.6993 61.6685 44.7291 60.6387 45.9993 60.6387C47.2696 60.6387 48.2994 61.6685 48.2994 62.9388Z" fill="white"/>
<path fill-rule="evenodd" clip-rule="evenodd" d="M45.9883 70.536C48.8353 70.536 51.1433 68.228 51.1433 65.381C51.1433 62.534 48.8353 60.226 45.9883 60.226C43.1414 60.226 40.8334 62.534 40.8334 65.381C40.8334 68.228 43.1414 70.536 45.9883 70.536ZM45.9883 72.1838C49.7454 72.1838 52.7912 69.1381 52.7912 65.381C52.7912 61.6239 49.7454 58.5781 45.9883 58.5781C42.2313 58.5781 39.1855 61.6239 39.1855 65.381C39.1855 69.1381 42.2313 72.1838 45.9883 72.1838Z" fill="#F58B00"/>
<path d="M31.6037 88.922C31.6037 92.6791 28.5579 95.7248 24.8008 95.7248C21.0438 95.7248 17.998 92.6791 17.998 88.922C17.998 85.1649 21.0438 82.1191 24.8008 82.1191C28.5579 82.1191 31.6037 85.1649 31.6037 88.922Z" fill="#0070F2"/>
<path fill-rule="evenodd" clip-rule="evenodd" d="M19.6953 93.4162C20.0435 91.6192 21.6186 90.3132 23.4586 90.3132H26.164C27.9977 90.3132 29.5685 91.6105 29.9237 93.3982C28.6767 94.8237 26.8443 95.724 24.8016 95.724C22.7675 95.724 20.9419 94.8313 19.6953 93.4162ZM27.1114 86.4798C27.1114 87.7501 26.0816 88.7799 24.8113 88.7799C23.541 88.7799 22.5112 87.7501 22.5112 86.4798C22.5112 85.2095 23.541 84.1797 24.8113 84.1797C26.0816 84.1797 27.1114 85.2095 27.1114 86.4798Z" fill="white"/>
<path fill-rule="evenodd" clip-rule="evenodd" d="M24.8008 94.077C27.6478 94.077 29.9558 91.769 29.9558 88.922C29.9558 86.075 27.6478 83.767 24.8008 83.767C21.9539 83.767 19.6459 86.075 19.6459 88.922C19.6459 91.769 21.9539 94.077 24.8008 94.077ZM24.8008 95.7248C28.5579 95.7248 31.6037 92.6791 31.6037 88.922C31.6037 85.1649 28.5579 82.1191 24.8008 82.1191C21.0438 82.1191 17.998 85.1649 17.998 88.922C17.998 92.6791 21.0438 95.7248 24.8008 95.7248Z" fill="#0070F2"/>
<path d="M52.7912 88.922C52.7912 92.6791 49.7454 95.7248 45.9883 95.7248C42.2313 95.7248 39.1855 92.6791 39.1855 88.922C39.1855 85.1649 42.2313 82.1191 45.9883 82.1191C49.7454 82.1191 52.7912 85.1649 52.7912 88.922Z" fill="#005DC9"/>
<path fill-rule="evenodd" clip-rule="evenodd" d="M40.8833 93.4166C41.2314 91.6194 42.8066 90.3132 44.6466 90.3132H47.352C49.1857 90.3132 50.7563 91.6103 51.1117 93.3979C49.8647 94.8235 48.0321 95.724 45.9893 95.724C43.9554 95.724 42.1299 94.8314 40.8833 93.4166ZM48.2994 86.4798C48.2994 87.7501 47.2696 88.7799 45.9993 88.7799C44.729 88.7799 43.6993 87.7501 43.6993 86.4798C43.6993 85.2095 44.729 84.1797 45.9993 84.1797C47.2696 84.1797 48.2994 85.2095 48.2994 86.4798Z" fill="white"/>
<path fill-rule="evenodd" clip-rule="evenodd" d="M45.9883 94.077C48.8353 94.077 51.1433 91.769 51.1433 88.922C51.1433 86.075 48.8353 83.767 45.9883 83.767C43.1414 83.767 40.8334 86.075 40.8334 88.922C40.8334 91.769 43.1414 94.077 45.9883 94.077ZM45.9883 95.7248C49.7454 95.7248 52.7912 92.6791 52.7912 88.922C52.7912 85.1649 49.7454 82.1191 45.9883 82.1191C42.2313 82.1191 39.1855 85.1649 39.1855 88.922C39.1855 92.6791 42.2313 95.7248 45.9883 95.7248Z" fill="#005DC9"/>
<path d="M73.9787 88.922C73.9787 92.6791 70.9329 95.7248 67.1758 95.7248C63.4188 95.7248 60.373 92.6791 60.373 88.922C60.373 85.1649 63.4188 82.1191 67.1758 82.1191C70.9329 82.1191 73.9787 85.1649 73.9787 88.922Z" fill="#0070F2"/>
<path fill-rule="evenodd" clip-rule="evenodd" d="M62.0698 93.4161C62.4181 91.6192 63.9932 90.3132 65.833 90.3132H68.5385C70.3723 90.3132 71.943 91.6106 72.2982 93.3983C71.0512 94.8237 69.2188 95.724 67.1762 95.724C65.1421 95.724 63.3164 94.8312 62.0698 93.4161ZM69.4859 86.4798C69.4859 87.7501 68.4561 88.7799 67.1858 88.7799C65.9155 88.7799 64.8857 87.7501 64.8857 86.4798C64.8857 85.2095 65.9155 84.1797 67.1858 84.1797C68.4561 84.1797 69.4859 85.2095 69.4859 86.4798Z" fill="white"/>
<path fill-rule="evenodd" clip-rule="evenodd" d="M67.1758 94.077C70.0228 94.077 72.3308 91.769 72.3308 88.922C72.3308 86.075 70.0228 83.767 67.1758 83.767C64.3289 83.767 62.0209 86.075 62.0209 88.922C62.0209 91.769 64.3289 94.077 67.1758 94.077ZM67.1758 95.7248C70.9329 95.7248 73.9787 92.6791 73.9787 88.922C73.9787 85.1649 70.9329 82.1191 67.1758 82.1191C63.4188 82.1191 60.373 85.1649 60.373 88.922C60.373 92.6791 63.4188 95.7248 67.1758 95.7248Z" fill="#0070F2"/>
<path d="M25.8611 37H14.5469C13.7842 37 13.166 37.6182 13.166 38.3809C13.166 39.1435 13.7842 39.7617 14.5469 39.7617H25.8611C26.6237 39.7617 27.2419 39.1435 27.2419 38.3809C27.2419 37.6182 26.6237 37 25.8611 37Z" fill="#004DA5"/>
<path d="M37.0944 42.3652H14.3363C13.69 42.3652 13.166 42.8892 13.166 43.5355C13.166 44.1818 13.69 44.7058 14.3363 44.7058H37.0944C37.7407 44.7058 38.2647 44.1818 38.2647 43.5355C38.2647 42.8892 37.7407 42.3652 37.0944 42.3652Z" fill="#005DC9"/>
</svg>
