<?xml version="1.0" encoding="UTF-8"?>
<!--Generator: Apple Native CoreSVG 341-->
<!DOCTYPE svg
PUBLIC "-//W3C//DTD SVG 1.1//EN"
       "http://www.w3.org/Graphics/SVG/1.1/DTD/svg11.dtd">
<svg version="1.1" xmlns="http://www.w3.org/2000/svg" xmlns:xlink="http://www.w3.org/1999/xlink" viewBox="0 0 3300 2200">
 <!--glyph: "", point size: 100.0, font version: "21.0d4e1", template writer version: "138.0.0"-->
 <style>.defaults {-sfsymbols-draw-reverses-motion-groups:true}

.monochrome-0 {-sfsymbols-motion-group:1;-sfsymbols-layer-tags:a078ba065422f2c}
.monochrome-1 {-sfsymbols-motion-group:0;-sfsymbols-layer-tags:a078ba065422f2c}

.multicolor-0:tintColor {-sfsymbols-motion-group:1;-sfsymbols-layer-tags:a078ba065422f2c}
.multicolor-1:tintColor {-sfsymbols-motion-group:0;-sfsymbols-layer-tags:a078ba065422f2c}

.hierarchical-0:primary {-sfsymbols-motion-group:1;-sfsymbols-layer-tags:a078ba065422f2c}
.hierarchical-1:primary {-sfsymbols-motion-group:0;-sfsymbols-layer-tags:a078ba065422f2c}

.SFSymbolsPreviewWireframe {fill:none;opacity:1.0;stroke:black;stroke-width:0.5}
</style>
 <g id="Notes">
  <rect height="2200" id="artboard" style="fill:white;opacity:1" width="3300" x="0" y="0"/>
  <line style="fill:none;stroke:black;opacity:1;stroke-width:0.5;" x1="263" x2="3036" y1="292" y2="292"/>
  <text style="stroke:none;fill:black;font-family:sans-serif;font-size:13;font-weight:bold;" transform="matrix(1 0 0 1 263 322)">Weight/Scale Variations</text>
  <text style="stroke:none;fill:black;font-family:sans-serif;font-size:13;text-anchor:middle;" transform="matrix(1 0 0 1 559.711 322)">Ultralight</text>
  <text style="stroke:none;fill:black;font-family:sans-serif;font-size:13;text-anchor:middle;" transform="matrix(1 0 0 1 856.422 322)">Thin</text>
  <text style="stroke:none;fill:black;font-family:sans-serif;font-size:13;text-anchor:middle;" transform="matrix(1 0 0 1 1153.13 322)">Light</text>
  <text style="stroke:none;fill:black;font-family:sans-serif;font-size:13;text-anchor:middle;" transform="matrix(1 0 0 1 1449.84 322)">Regular</text>
  <text style="stroke:none;fill:black;font-family:sans-serif;font-size:13;text-anchor:middle;" transform="matrix(1 0 0 1 1746.56 322)">Medium</text>
  <text style="stroke:none;fill:black;font-family:sans-serif;font-size:13;text-anchor:middle;" transform="matrix(1 0 0 1 2043.27 322)">Semibold</text>
  <text style="stroke:none;fill:black;font-family:sans-serif;font-size:13;text-anchor:middle;" transform="matrix(1 0 0 1 2339.98 322)">Bold</text>
  <text style="stroke:none;fill:black;font-family:sans-serif;font-size:13;text-anchor:middle;" transform="matrix(1 0 0 1 2636.69 322)">Heavy</text>
  <text style="stroke:none;fill:black;font-family:sans-serif;font-size:13;text-anchor:middle;" transform="matrix(1 0 0 1 2933.4 322)">Black</text>
  <line style="fill:none;stroke:black;opacity:1;stroke-width:0.5;" x1="263" x2="3036" y1="1903" y2="1903"/>
  <g transform="matrix(0.2 0 0 0.2 263 1933)">
   <path d="m46.2402 4.15039c21.7773 0 39.4531-17.627 39.4531-39.4043s-17.6758-39.4043-39.4531-39.4043c-21.7285 0-39.4043 17.627-39.4043 39.4043s17.6758 39.4043 39.4043 39.4043Zm0-7.42188c-17.6758 0-31.9336-14.3066-31.9336-31.9824s14.2578-31.9824 31.9336-31.9824 31.9824 14.3066 31.9824 31.9824-14.3066 31.9824-31.9824 31.9824Zm3.61328-17.7734v-28.4668c0-2.24609-1.46484-3.75977-3.71094-3.75977-2.14844 0-3.61328 1.51367-3.61328 3.75977v28.4668c0 2.19727 1.46484 3.71094 3.61328 3.71094 2.24609 0 3.71094-1.51367 3.71094-3.71094Zm-17.8223-10.5957h28.418c2.19727 0 3.71094-1.46484 3.71094-3.61328 0-2.19727-1.51367-3.71094-3.71094-3.71094h-28.418c-2.24609 0-3.75977 1.51367-3.75977 3.71094 0 2.14844 1.51367 3.61328 3.75977 3.61328Z"/>
  </g>
  <g transform="matrix(0.2 0 0 0.2 281.506 1933)">
   <path d="m58.5449 14.5508c27.4902 0 49.8047-22.3145 49.8047-49.8047s-22.3145-49.8047-49.8047-49.8047-49.8047 22.3145-49.8047 49.8047 22.3145 49.8047 49.8047 49.8047Zm0-8.30078c-22.9492 0-41.5039-18.5547-41.5039-41.5039s18.5547-41.5039 41.5039-41.5039 41.5039 18.5547 41.5039 41.5039-18.5547 41.5039-41.5039 41.5039Zm4.05273-23.0957v-36.9141c0-2.49023-1.70898-4.19922-4.15039-4.19922-2.39258 0-4.05273 1.70898-4.05273 4.19922v36.9141c0 2.44141 1.66016 4.15039 4.05273 4.15039 2.44141 0 4.15039-1.66016 4.15039-4.15039Zm-22.5586-14.4043h36.9629c2.44141 0 4.15039-1.61133 4.15039-4.00391 0-2.44141-1.70898-4.15039-4.15039-4.15039h-36.9629c-2.49023 0-4.15039 1.70898-4.15039 4.15039 0 2.39258 1.66016 4.00391 4.15039 4.00391Z"/>
  </g>
  <g transform="matrix(0.2 0 0 0.2 304.924 1933)">
   <path d="m74.8535 28.3203c35.1074 0 63.623-28.4668 63.623-63.5742s-28.5156-63.623-63.623-63.623-63.5742 28.5156-63.5742 63.623 28.4668 63.5742 63.5742 63.5742Zm0-9.08203c-30.127 0-54.4922-24.3652-54.4922-54.4922s24.3652-54.4922 54.4922-54.4922 54.4922 24.3652 54.4922 54.4922-24.3652 54.4922-54.4922 54.4922Zm4.44336-30.3223v-48.4863c0-2.73438-1.85547-4.63867-4.54102-4.63867-2.58789 0-4.44336 1.9043-4.44336 4.63867v48.4863c0 2.68555 1.85547 4.58984 4.44336 4.58984 2.68555 0 4.54102-1.85547 4.54102-4.58984Zm-28.7109-19.7754h48.4863c2.68555 0 4.58984-1.80664 4.58984-4.39453 0-2.73438-1.85547-4.58984-4.58984-4.58984h-48.4863c-2.73438 0-4.58984 1.85547-4.58984 4.58984 0 2.58789 1.85547 4.39453 4.58984 4.39453Z"/>
  </g>
  <text style="stroke:none;fill:black;font-family:sans-serif;font-size:13;font-weight:bold;" transform="matrix(1 0 0 1 263 1953)">Design Variations</text>
  <text style="stroke:none;fill:black;font-family:sans-serif;font-size:13;" transform="matrix(1 0 0 1 263 1971)">Symbols are supported in up to nine weights and three scales.</text>
  <text style="stroke:none;fill:black;font-family:sans-serif;font-size:13;" transform="matrix(1 0 0 1 263 1989)">For optimal layout with text and other symbols, vertically align</text>
  <text style="stroke:none;fill:black;font-family:sans-serif;font-size:13;" transform="matrix(1 0 0 1 263 2007)">symbols with the adjacent text.</text>
  <line style="fill:none;stroke:#00AEEF;stroke-width:0.5;opacity:1.0;" x1="776" x2="776" y1="1919" y2="1933"/>
  <g transform="matrix(0.2 0 0 0.2 776 1933)">
   <path d="m16.5527 0.78125c2.58789 0 3.85742-0.976562 4.78516-3.71094l20.5566-57.5195h0.244141l20.6055 57.5195c0.927734 2.73438 2.19727 3.71094 4.73633 3.71094 2.58789 0 4.24805-1.5625 4.24805-4.00391 0-0.830078-0.146484-1.61133-0.537109-2.63672l-22.9004-60.9863c-1.12305-2.97852-3.125-4.49219-6.25-4.49219-3.02734 0-5.07812 1.46484-6.15234 4.44336l-22.9004 61.084c-0.390625 1.02539-0.537109 1.80664-0.537109 2.63672 0 2.44141 1.5625 3.95508 4.10156 3.95508Zm10.2051-20.9473h30.6641c2.00195 0 3.66211-1.66016 3.66211-3.66211 0-2.05078-1.66016-3.66211-3.66211-3.66211h-30.6641c-2.00195 0-3.66211 1.61133-3.66211 3.66211 0 2.00195 1.66016 3.66211 3.66211 3.66211Z"/>
  </g>
  <line style="fill:none;stroke:#00AEEF;stroke-width:0.5;opacity:1.0;" x1="792.836" x2="792.836" y1="1919" y2="1933"/>
  <text style="stroke:none;fill:black;font-family:sans-serif;font-size:13;font-weight:bold;" transform="matrix(1 0 0 1 776 1953)">Margins</text>
  <text style="stroke:none;fill:black;font-family:sans-serif;font-size:13;" transform="matrix(1 0 0 1 776 1971)">Leading and trailing margins on the left and right side of each symbol</text>
  <text style="stroke:none;fill:black;font-family:sans-serif;font-size:13;" transform="matrix(1 0 0 1 776 1989)">can be adjusted by modifying the x-location of the margin guidelines.</text>
  <text style="stroke:none;fill:black;font-family:sans-serif;font-size:13;" transform="matrix(1 0 0 1 776 2007)">Modifications are automatically applied proportionally to all</text>
  <text style="stroke:none;fill:black;font-family:sans-serif;font-size:13;" transform="matrix(1 0 0 1 776 2025)">scales and weights.</text>
  <g transform="matrix(0.2 0 0 0.2 1289 1933)">
   <path d="m14.209 13.1348 7.86133 7.86133c4.29688 4.39453 9.32617 4.10156 13.8672-1.02539l60.6934-68.2129-4.88281-4.88281-60.2539 67.6758c-1.80664 1.95312-3.4668 2.44141-5.81055 0.0976562l-5.17578-5.12695c-2.29492-2.29492-1.80664-3.95508 0.195312-5.81055l67.4805-62.1582-4.88281-4.83398-68.0664 62.5977c-4.98047 4.58984-5.32227 9.47266-1.02539 13.8184Zm44.873-97.4609c-2.05078 2.00195-2.24609 4.88281-1.07422 6.78711 1.12305 1.80664 3.4668 3.02734 6.5918 2.24609 5.85938-1.66016 12.5977-2.39258 18.8965 0.927734l-2.68555 7.12891c-1.61133 4.00391-0.732422 6.88477 1.70898 9.42383l10.2539 10.3027c2.34375 2.39258 4.54102 2.44141 7.08008 1.95312l4.44336-0.732422 2.58789 2.53906-0.195312 2.24609c-0.0976562 2.29492 0.537109 4.29688 2.7832 6.49414l3.36914 3.32031c2.29492 2.29492 5.51758 2.49023 7.8125 0.195312l12.9883-13.0371c2.29492-2.34375 2.14844-5.37109-0.195312-7.66602l-3.41797-3.41797c-2.19727-2.19727-4.05273-3.02734-6.34766-2.88086l-2.34375 0.244141-2.44141-2.44141 1.02539-4.6875c0.634766-2.73438-0.244141-4.98047-2.88086-7.61719l-11.2793-11.1816c-12.9395-12.8418-35.5957-11.0352-46.6797-0.146484Zm7.08008 2.05078c8.78906-6.39648 25.9766-5.66406 33.6914 1.95312l12.3047 12.207c1.02539 1.02539 1.2207 1.80664 0.927734 3.32031l-1.46484 6.64062 6.73828 6.68945 4.39453-0.244141c1.12305-0.0488281 1.51367 0.0488281 2.34375 0.878906l2.53906 2.49023-10.8398 10.8398-2.49023-2.49023c-0.830078-0.878906-0.976562-1.2207-0.927734-2.39258l0.292969-4.3457-6.68945-6.73828-6.83594 1.17188c-1.41602 0.292969-2.05078 0.195312-3.17383-0.878906l-8.93555-8.88672c-1.07422-1.02539-1.17188-1.70898-0.488281-3.36914l4.58984-11.4746c-6.10352-6.34766-17.041-7.51953-25.5859-4.58984-0.683594 0.244141-0.927734-0.390625-0.390625-0.78125Z"/>
  </g>
  <text style="stroke:none;fill:black;font-family:sans-serif;font-size:13;font-weight:bold;" transform="matrix(1 0 0 1 1289 1953)">Exporting</text>
  <text style="stroke:none;fill:black;font-family:sans-serif;font-size:13;" transform="matrix(1 0 0 1 1289 1971)">Symbols should be outlined when exporting to ensure the</text>
  <text style="stroke:none;fill:black;font-family:sans-serif;font-size:13;" transform="matrix(1 0 0 1 1289 1989)">design is preserved when submitting to Xcode.</text>
  <text id="template-version" style="stroke:none;fill:black;font-family:sans-serif;font-size:13;text-anchor:end;" transform="matrix(1 0 0 1 3036 1933)">Template v.5.0</text>
  <text style="stroke:none;fill:black;font-family:sans-serif;font-size:13;text-anchor:end;" transform="matrix(1 0 0 1 3036 1951)">Requires Xcode 15 or greater</text>
  <text id="descriptive-name" style="stroke:none;fill:black;font-family:sans-serif;font-size:13;text-anchor:end;" transform="matrix(1 0 0 1 3036 1969)">Generated from fiori.pool</text>
  <text style="stroke:none;fill:black;font-family:sans-serif;font-size:13;text-anchor:end;" transform="matrix(1 0 0 1 3036 1987)">Typeset at 100.0 points</text>
  <text style="stroke:none;fill:black;font-family:sans-serif;font-size:13;" transform="matrix(1 0 0 1 263 726)">Small</text>
  <text style="stroke:none;fill:black;font-family:sans-serif;font-size:13;" transform="matrix(1 0 0 1 263 1156)">Medium</text>
  <text style="stroke:none;fill:black;font-family:sans-serif;font-size:13;" transform="matrix(1 0 0 1 263 1586)">Large</text>
 </g>
 <g id="Guides">
  <g id="H-reference" style="fill:#27AAE1;stroke:none;" transform="matrix(1 0 0 1 339 696)">
   <path d="M0.993654 0L3.63775 0L29.3281-67.1323L30.0303-67.1323L30.0303-70.459L28.1226-70.459ZM11.6885-24.4799L46.9815-24.4799L46.2315-26.7285L12.4385-26.7285ZM55.1196 0L57.7637 0L30.6382-70.459L29.4326-70.459L29.4326-67.1323Z"/>
  </g>
  <line id="Baseline-S" style="fill:none;stroke:#27AAE1;opacity:1;stroke-width:0.5;" x1="263" x2="3036" y1="696" y2="696"/>
  <line id="Capline-S" style="fill:none;stroke:#27AAE1;opacity:1;stroke-width:0.5;" x1="263" x2="3036" y1="625.541" y2="625.541"/>
  <g id="H-reference" style="fill:#27AAE1;stroke:none;" transform="matrix(1 0 0 1 339 1126)">
   <path d="M0.993654 0L3.63775 0L29.3281-67.1323L30.0303-67.1323L30.0303-70.459L28.1226-70.459ZM11.6885-24.4799L46.9815-24.4799L46.2315-26.7285L12.4385-26.7285ZM55.1196 0L57.7637 0L30.6382-70.459L29.4326-70.459L29.4326-67.1323Z"/>
  </g>
  <line id="Baseline-M" style="fill:none;stroke:#27AAE1;opacity:1;stroke-width:0.5;" x1="263" x2="3036" y1="1126" y2="1126"/>
  <line id="Capline-M" style="fill:none;stroke:#27AAE1;opacity:1;stroke-width:0.5;" x1="263" x2="3036" y1="1055.54" y2="1055.54"/>
  <g id="H-reference" style="fill:#27AAE1;stroke:none;" transform="matrix(1 0 0 1 339 1556)">
   <path d="M0.993654 0L3.63775 0L29.3281-67.1323L30.0303-67.1323L30.0303-70.459L28.1226-70.459ZM11.6885-24.4799L46.9815-24.4799L46.2315-26.7285L12.4385-26.7285ZM55.1196 0L57.7637 0L30.6382-70.459L29.4326-70.459L29.4326-67.1323Z"/>
  </g>
  <line id="Baseline-L" style="fill:none;stroke:#27AAE1;opacity:1;stroke-width:0.5;" x1="263" x2="3036" y1="1556" y2="1556"/>
  <line id="Capline-L" style="fill:none;stroke:#27AAE1;opacity:1;stroke-width:0.5;" x1="263" x2="3036" y1="1485.54" y2="1485.54"/>
  <line id="right-margin-Black-S" style="fill:none;stroke:#00AEEF;stroke-width:0.5;opacity:1.0;" x1="2981.9" x2="2981.9" y1="600.785" y2="720.121"/>
  <line id="left-margin-Black-S" style="fill:none;stroke:#00AEEF;stroke-width:0.5;opacity:1.0;" x1="2884.9" x2="2884.9" y1="600.785" y2="720.121"/>
  <line id="right-margin-Regular-S" style="fill:none;stroke:#00AEEF;stroke-width:0.5;opacity:1.0;" x1="1496.29" x2="1496.29" y1="600.785" y2="720.121"/>
  <line id="left-margin-Regular-S" style="fill:none;stroke:#00AEEF;stroke-width:0.5;opacity:1.0;" x1="1403.39" x2="1403.39" y1="600.785" y2="720.121"/>
  <line id="right-margin-Ultralight-S" style="fill:none;stroke:#00AEEF;stroke-width:0.5;opacity:1.0;" x1="604.411" x2="604.411" y1="600.785" y2="720.121"/>
  <line id="left-margin-Ultralight-S" style="fill:none;stroke:#00AEEF;stroke-width:0.5;opacity:1.0;" x1="515.011" x2="515.011" y1="600.785" y2="720.121"/>
 </g>
 <g id="Symbols">
  <g id="Black-S" transform="matrix(1 0 0 1 2884.9 696)">
   <path class="monochrome-0 multicolor-0:tintColor hierarchical-0:primary SFSymbolsPreviewWireframe" d="M82.31-13.5C76.61-13.5 73.41-16.9 71.61-18.9C70.01-20.7 69.81-20.7 69.11-20.7C68.51-20.7 68.31-20.7 66.61-18.9C64.81-16.9 61.71-13.5 56.01-13.5C50.21-13.5 47.21-16.9 45.41-18.9C43.81-20.7 43.51-20.7 42.91-20.7C42.21-20.7 42.11-20.7 40.41-18.9C38.61-16.9 35.51-13.5 29.81-13.5C24.11-13.5 21.01-16.9 19.21-18.9C17.61-20.7 17.41-20.7 16.71-20.7C16.31-20.7 16.01-20.8 15.11-19.8C13.11-17.7 9.81-17.5 7.31-19.7C5.11-21.6 5.11-25.4 7.21-27.5C8.91-29.3 11.91-31.8 16.81-31.8C22.61-31.8 25.61-28.4 27.41-26.4C29.01-24.6 29.21-24.6 29.91-24.6C30.51-24.6 30.71-24.6 32.41-26.4C34.21-28.4 37.31-31.8 43.01-31.8C48.81-31.8 51.81-28.4 53.61-26.4C55.21-24.6 55.41-24.6 56.11-24.6C56.81-24.6 56.91-24.6 58.61-26.4C60.41-28.4 63.51-31.8 69.21-31.8C74.91-31.8 78.11-28.4 79.81-26.4C81.41-24.6 81.61-24.6 82.31-24.6C82.51-24.6 82.51-24.6 82.91-24.8C86.41-26.3 89.21-24 90.21-22C91.41-19.5 90.31-15.9 87.41-14.7C85.91-14 84.51-13.5 82.31-13.5ZM82.31 1.9C76.61 1.9 73.41-1.5 71.61-3.5C70.11-5.3 69.91-5.2 69.21-5.2C68.61-5.2 68.41-5.2 66.71-3.4C64.91-1.4 61.81 2 56.11 2C50.31 2 47.31-1.4 45.51-3.4C43.81-5.3 43.61-5.2 43.01-5.2C42.31-5.2 42.21-5.2 40.51-3.4C38.71-1.5 35.71 1.9 29.91 1.9C24.21 1.9 21.11-1.5 19.31-3.5C17.61-5.3 17.41-5.2 16.81-5.2C16.41-5.2 16.11-5.3 15.21-4.3C13.11-2.2 9.91-2 7.31-4.2C5.11-6.1 5.11-9.9 7.21-12C8.91-13.8 11.91-16.3 16.81-16.3C22.61-16.3 25.61-12.9 27.41-10.9C29.01-9.1 29.21-9.1 29.91-9.1C30.51-9.1 30.71-9.1 32.41-10.9C34.21-12.9 37.31-16.3 43.01-16.3C48.81-16.3 51.81-12.9 53.61-10.9C55.21-9.1 55.41-9.1 56.11-9.1C56.81-9.1 56.91-9.1 58.61-10.9C60.41-12.9 63.51-16.3 69.21-16.3C74.91-16.3 78.11-12.9 79.81-10.9C81.41-9.1 81.61-9.1 82.31-9.1C82.51-9.1 82.51-9.1 82.91-9.3C86.41-10.8 89.21-8.5 90.21-6.5C91.41-4 90.31-0.4 87.41 0.8C85.91 1.5 84.51 1.9 82.31 1.9Z"/>
   <path class="monochrome-1 multicolor-1:tintColor hierarchical-1:primary SFSymbolsPreviewWireframe" d="M66.21-54.6C61.21-54.6 57.11-58.7 57.11-63.7C57.11-68.7 61.21-72.8 66.21-72.8C71.21-72.8 75.31-68.7 75.31-63.7C75.31-58.7 71.21-54.6 66.21-54.6ZM42.01-34C40.21-34 38.81-34.8 38.01-35.7L35.71-38.1L32.31-41.5C30.01-44 30.31-47.4 32.21-49.3L40.01-57.3L39.31-58C36.71-60.5 32.81-61.9 29.21-61.9L26.51-61.9C23.71-61.9 21.01-64.2 21.01-67.4C21.01-70.4 23.41-72.9 26.51-72.9L29.21-72.9C36.51-72.9 43.21-69.8 47.81-65.1L51.71-61.1L63.31-49.5C65.61-47.2 65.31-43.7 63.41-41.8L59.31-37.5L57.51-35.7C55.71-33.9 52.51-33.3 50.11-35.3C48.81-36.4 46.81-36.4 45.51-35.3C44.81-34.7 43.51-34 42.01-34Z"/>
  </g>
  <g id="Regular-S" transform="matrix(1 0 0 1 1403.39 696)">
   <path class="monochrome-0 multicolor-0:tintColor hierarchical-0:primary SFSymbolsPreviewWireframe" d="M80.36-14.9C75.26-14.9 72.56-17.9 70.76-19.8C69.16-21.6 68.56-22.1 67.26-22.1C65.96-22.1 65.36-21.6 63.76-19.8C61.96-17.8 59.26-14.9 54.16-14.9C49.06-14.9 46.36-17.9 44.56-19.8C42.96-21.6 42.36-22.1 41.06-22.1C39.76-22.1 39.16-21.6 37.56-19.8C35.76-17.8 33.06-14.9 27.96-14.9C22.86-14.9 20.16-17.9 18.36-19.8C16.76-21.6 16.16-22.1 14.86-22.1C13.86-22.1 13.26-21.8 12.16-20.7C10.56-19.1 7.96-19 6.36-20.6C4.66-22.2 4.66-24.8 6.26-26.4C8.06-28.2 10.56-30.3 14.86-30.3C19.96-30.3 22.66-27.3 24.46-25.4C26.06-23.6 26.66-23.1 27.96-23.1C29.26-23.1 29.86-23.6 31.46-25.4C33.26-27.4 35.96-30.3 41.06-30.3C46.16-30.3 48.86-27.3 50.66-25.4C52.26-23.6 52.86-23.1 54.16-23.1C55.46-23.1 56.06-23.6 57.66-25.4C59.46-27.4 62.16-30.3 67.26-30.3C72.36-30.3 75.06-27.3 76.86-25.4C78.46-23.6 79.06-23.1 80.36-23.1C80.76-23.1 81.06-23.2 81.56-23.4C83.66-24.3 86.06-23.4 86.96-21.3C87.86-19.2 86.96-16.8 84.86-15.9C83.36-15.2 81.96-14.9 80.36-14.9ZM80.36 0.5C75.26 0.5 72.56-2.5 70.76-4.4C69.16-6.2 68.56-6.7 67.26-6.7C65.96-6.7 65.36-6.2 63.76-4.4C61.96-2.4 59.26 0.5 54.16 0.5C49.06 0.5 46.36-2.5 44.56-4.4C42.96-6.2 42.36-6.7 41.06-6.7C39.76-6.7 39.16-6.2 37.46-4.4C35.66-2.4 32.96 0.5 27.86 0.5C22.76 0.5 20.06-2.5 18.26-4.4C16.66-6.2 16.16-6.7 14.76-6.7C13.76-6.7 13.16-6.4 12.06-5.3C10.56-3.7 7.96-3.6 6.36-5.2C4.66-6.8 4.66-9.4 6.26-11C8.06-12.8 10.56-14.9 14.86-14.9C19.96-14.9 22.66-11.9 24.46-10C26.06-8.2 26.66-7.7 27.96-7.7C29.26-7.7 29.86-8.2 31.46-10C33.26-12 35.96-14.9 41.06-14.9C46.16-14.9 48.86-11.9 50.66-10C52.26-8.2 52.86-7.7 54.16-7.7C55.46-7.7 56.06-8.2 57.66-10C59.46-12 62.16-14.9 67.26-14.9C72.36-14.9 75.06-11.9 76.86-10C78.46-8.2 79.06-7.7 80.36-7.7C80.76-7.7 81.06-7.8 81.56-8C83.66-8.9 86.06-8 86.96-5.9C87.86-3.8 86.96-1.4 84.86-0.5C83.36 0.2 81.96 0.5 80.36 0.5Z"/>
   <path class="monochrome-1 multicolor-1:tintColor hierarchical-1:primary SFSymbolsPreviewWireframe" d="M64.16-56C59.86-56 56.46-59.5 56.46-63.7C56.46-67.9 59.96-71.4 64.16-71.4C68.46-71.4 71.86-67.9 71.86-63.7C71.86-59.5 68.46-56 64.16-56ZM40.06-35.4C38.96-35.4 37.96-35.8 37.16-36.6L34.86-39L31.46-42.4C29.86-44 29.86-46.6 31.46-48.2L40.26-57.2L39.16-58.3C35.96-61.4 31.66-63.2 27.36-63.2L24.66-63.2C22.36-63.2 20.56-65 20.56-67.3C20.56-69.6 22.36-71.4 24.66-71.4L27.36-71.4C33.96-71.4 40.36-68.7 44.96-64.1L48.86-60.1L60.46-48.5C62.06-46.9 62.06-44.4 60.56-42.8L56.46-38.5L54.66-36.7C53.16-35.2 50.76-35.1 49.16-36.4C47.26-37.9 44.56-37.9 42.76-36.4C41.86-35.8 40.96-35.4 40.06-35.4Z"/>
  </g>
  <g id="Ultralight-S" transform="matrix(1 0 0 1 515.011 696)">
   <path class="monochrome-0 multicolor-0:tintColor hierarchical-0:primary SFSymbolsPreviewWireframe" d="M78.575-17.7C74.775-17.7 72.875-19.7 71.075-21.7C69.475-23.5 68.175-24.9 65.475-24.9C62.775-24.9 61.475-23.5 59.875-21.7C58.075-19.7 56.075-17.7 52.375-17.7C48.575-17.7 46.675-19.7 44.875-21.7C43.275-23.5 41.975-24.9 39.275-24.9C36.575-24.9 35.275-23.5 33.675-21.7C31.875-19.7 29.875-17.7 26.175-17.7C22.475-17.7 20.475-19.7 18.675-21.7C17.075-23.5 15.675-24.9 13.075-24.9C11.375-24.9 9.875-24.3 8.375-22.7C7.975-22.2 7.275-22.1 6.575-22.7C6.075-23.2 6.075-24 6.575-24.5C8.275-26.2 9.875-27.5 13.075-27.5C16.875-27.5 18.775-25.5 20.575-23.5C22.175-21.7 23.575-20.3 26.175-20.3C28.875-20.3 30.175-21.7 31.775-23.5C33.575-25.5 35.575-27.5 39.275-27.5C42.975-27.5 44.975-25.5 46.775-23.5C48.375-21.7 49.775-20.3 52.375-20.3C55.075-20.3 56.375-21.7 57.975-23.5C59.775-25.5 61.775-27.5 65.475-27.5C69.275-27.5 71.175-25.5 72.975-23.5C74.575-21.7 75.875-20.3 78.575-20.3C79.575-20.3 80.475-20.6 80.875-20.8C81.475-21.1 82.175-20.9 82.575-20.2C82.875-19.6 82.575-18.8 81.975-18.5C80.675-17.9 79.875-17.7 78.575-17.7ZM78.575-2.3C74.775-2.3 72.875-4.3 71.075-6.3C69.475-8.1 68.175-9.5 65.475-9.5C62.775-9.5 61.475-8.1 59.875-6.3C58.075-4.3 56.075-2.3 52.375-2.3C48.575-2.3 46.675-4.3 44.875-6.3C43.275-8.1 41.975-9.5 39.275-9.5C36.575-9.5 35.275-8.1 33.675-6.3C31.875-4.3 29.875-2.3 26.175-2.3C22.475-2.3 20.475-4.3 18.675-6.3C17.075-8.1 15.675-9.5 13.075-9.5C11.375-9.5 9.875-8.9 8.375-7.3C7.975-6.8 7.275-6.7 6.575-7.2C6.075-7.7 6.075-8.5 6.575-9C8.275-10.7 9.875-12 13.075-12C16.875-12 18.775-10 20.575-8C22.175-6.2 23.575-4.8 26.175-4.8C28.875-4.8 30.175-6.2 31.775-8C33.575-10 35.575-12 39.275-12C42.975-12 44.975-10 46.775-8C48.375-6.2 49.775-4.8 52.375-4.8C55.075-4.8 56.375-6.2 57.975-8C59.775-10 61.775-12 65.475-12C69.275-12 71.175-10 72.975-8C74.575-6.2 75.875-4.8 78.575-4.8C79.575-4.8 80.475-5.1 80.875-5.3C81.475-5.6 82.175-5.4 82.575-4.7C82.875-4.1 82.575-3.3 81.975-3C80.675-2.5 79.875-2.3 78.575-2.3Z"/>
   <path class="monochrome-1 multicolor-1:tintColor hierarchical-1:primary SFSymbolsPreviewWireframe" d="M62.475-58.8C59.775-58.8 57.575-61 57.575-63.7C57.575-66.4 59.775-68.6 62.475-68.6C65.175-68.6 67.375-66.4 67.375-63.7C67.375-61 65.175-58.8 62.475-58.8ZM38.275-38.3C37.975-38.3 37.675-38.4 37.375-38.7L35.075-41.1L31.575-44.5C31.075-45 31.075-45.8 31.575-46.3L42.375-57.2L39.375-60.3C36.275-63.5 31.375-66 25.675-66L22.975-66C22.275-66 21.675-66.6 21.675-67.3C21.675-68.1 22.375-68.6 22.975-68.6L25.675-68.6C31.475-68.6 37.075-66.3 41.175-62.1L45.075-58.1L56.675-46.5C57.075-46.1 57.275-45.3 56.675-44.7L52.575-40.4L50.875-38.7C50.375-38.2 49.675-38.2 49.075-38.6C46.175-40.8 42.175-41.1 39.075-38.5C38.775-38.3 38.475-38.3 38.275-38.3Z"/>
  </g>
 </g>
</svg>
