<svg width="322" height="240" viewBox="0 0 322 240" fill="none" xmlns="http://www.w3.org/2000/svg">
<path d="M306.854 20.9863H15.7609C13.8635 20.9846 11.9844 21.3568 10.2309 22.0817C8.47743 22.8066 6.884 23.87 5.54171 25.211C4.19942 26.5521 3.13458 28.1445 2.40807 29.8973C1.68156 31.6501 1.30762 33.5289 1.30762 35.4263V206.533C1.30762 210.366 2.83037 214.043 5.54089 216.753C8.25142 219.464 11.9277 220.986 15.7609 220.986H306.854C310.688 220.986 314.364 219.464 317.074 216.753C319.785 214.043 321.308 210.366 321.308 206.533V35.4263C321.308 33.5289 320.934 31.6501 320.207 29.8973C319.481 28.1445 318.416 26.5521 317.074 25.211C315.731 23.87 314.138 22.8066 312.384 22.0817C310.631 21.3568 308.752 20.9846 306.854 20.9863Z" fill="#223548"/>
<path d="M29.6128 133.019C29.6128 131.938 26.4737 131.072 22.2795 130.875C22.0397 126.687 21.1164 123.572 20.0349 123.574C18.9533 123.577 18.0541 126.715 17.8239 130.926C13.6176 131.214 10.4905 132.153 10.5049 133.237C10.5193 134.321 13.644 135.187 17.8382 135.381C18.09 139.57 19.0013 142.685 20.0804 142.682C21.1596 142.68 22.0636 139.541 22.2938 135.331C26.5001 135.043 29.6247 134.103 29.6128 133.019Z" fill="#2A4259"/>
<path d="M297.169 172.858C297.169 171.952 294.54 171.228 291.028 171.063C290.828 167.555 290.054 164.947 289.149 164.949C288.243 164.951 287.49 167.579 287.297 171.105C283.775 171.346 281.157 172.133 281.169 173.041C281.181 173.948 283.798 174.673 287.31 174.836C287.52 178.343 288.283 180.951 289.187 180.949C290.091 180.947 290.848 178.319 291.04 174.793C294.562 174.552 297.179 173.765 297.169 172.858Z" fill="#2A4259"/>
<path d="M160 57.5466C160 56.1883 156.057 55.1011 150.789 54.8541C150.488 49.5927 149.328 45.6806 147.97 45.6836C146.611 45.6866 145.482 49.6289 145.193 54.9174C139.91 55.2788 135.982 56.4593 136 57.8206C136.018 59.1819 139.943 60.2691 145.211 60.5131C145.527 65.7744 146.672 69.6866 148.027 69.6836C149.383 69.6806 150.518 65.7383 150.807 60.4498C156.09 60.0884 160.015 58.9078 160 57.5466Z" fill="#2A4259"/>
<path d="M189.024 59.8415C211.768 63.1533 225.58 55.4041 230.163 47.8593C232.404 56.3976 244.747 67.9552 267.492 71.2669C260.463 135.854 221.878 144.232 205.989 145.627C191.157 139.759 177.343 123.752 189.024 59.8415Z" fill="#324E6B"/>
<path d="M219.631 45.5156L230.013 48.488L224.674 57.5405L219.631 45.5156Z" fill="#324E6B"/>
<path d="M177.588 58.6955C200.333 62.0073 214.989 53.0717 219.572 45.5268C221.812 54.0652 233.312 66.8092 256.056 70.1209C249.027 134.708 220.879 144.282 204.989 145.676C190.157 139.808 165.908 122.606 177.588 58.6955Z" fill="#2A4259"/>
<path d="M187.384 66.9484C204.759 69.4783 212.424 70.6555 215.95 64.7167C217.621 71.352 229.724 73.1139 246.843 75.6059L247.328 75.6766C241.755 126.415 220.209 134.02 208.059 135.164C196.74 130.603 178.257 117.17 187.384 66.9484Z" fill="#3B5B7C"/>
<path d="M185.02 66.6032C202.395 69.1331 213.626 62.071 217.152 56.1322C218.838 62.83 227.589 72.8015 244.964 75.3314C239.391 126.07 217.845 133.675 205.695 134.819C194.376 130.258 175.893 116.825 185.02 66.6032Z" fill="#324E6B"/>
<path fill-rule="evenodd" clip-rule="evenodd" d="M225.483 87.7481C226.172 88.7431 225.95 90.1453 224.989 90.8799L205.296 105.929C204.335 106.664 202.998 106.452 202.31 105.457L197.022 97.8138C196.334 96.8188 196.555 95.4167 197.517 94.682C198.478 93.9474 199.815 94.1585 200.503 95.1535L204.544 100.996L222.496 87.2766C223.458 86.542 224.795 86.7531 225.483 87.7481Z" fill="#223548"/>
<path d="M83.4078 47.8272C47.9646 53.032 54.8782 83.5654 58.08 108.679C64.7494 113.292 79.0358 118.614 76.783 102.635C73.6314 80.2809 67.3123 64.2707 87.4366 61.6121C105.658 59.2048 110.736 88.5284 111.091 103.205L126.571 102.513C125.608 80.9786 118.851 42.6224 83.4078 47.8272Z" fill="#1782FF"/>
<path d="M44.2102 130.648C42.0463 114.471 55.3822 100.434 71.6484 101.766L115.59 105.365C121.699 105.866 126.608 110.603 127.327 116.69L134.745 179.495C135.635 187.028 129.854 193.694 122.271 193.88L74.7378 195.043C62.3099 195.347 51.6472 186.244 49.9989 173.922L44.2102 130.648Z" fill="#1782FF"/>
<path d="M65.5684 96.6582L51.3818 109.505L69.5289 110.05L65.5684 96.6582Z" fill="#1782FF"/>
<path d="M147.241 174.375L129.245 191.539L132.405 180.06L147.241 174.375Z" fill="#1782FF"/>
<path fill-rule="evenodd" clip-rule="evenodd" d="M122.066 102.715C121.896 100.941 121.451 98.5784 120.686 95.529C115.319 74.1272 102.761 59.6344 89.4212 61.4738C104.443 61.3835 109.739 84.039 110.866 98.8226C112.251 100.38 113.575 101.816 114.798 103.04L122.066 102.715Z" fill="#0070F3"/>
<path d="M60.0119 108.52C59.2316 100.974 65.1116 94.3914 72.6981 94.3186L126.135 93.8058C134.432 93.7261 141.582 99.6305 143.072 107.793L152.473 159.275C154.326 169.42 146.819 178.874 136.519 179.369L90.7072 181.573C77.7894 182.194 66.638 172.612 65.3081 159.748L60.0119 108.52Z" fill="#4098FF"/>
<path d="M101.972 159.188L99.7249 138.777C96.8536 138.028 91.055 134.62 90.8303 126.98C90.5494 117.43 97.6895 114.95 101.912 114.949C106.566 114.949 114.705 117.43 116.297 127.729C117.57 135.968 113.395 138.527 111.148 138.777L113.675 159.188H101.972Z" fill="#688FB7"/>
<path fill-rule="evenodd" clip-rule="evenodd" d="M96.8475 116.058C101.542 116.159 109.384 118.746 110.944 128.835C112.217 137.074 108.041 139.633 105.794 139.883L108.185 159.188H113.674L111.146 138.777C113.393 138.527 117.569 135.968 116.296 127.729C114.704 117.43 106.565 114.949 101.911 114.949C100.433 114.949 98.5972 115.253 96.8475 116.058Z" fill="#0070F3"/>
<rect width="144.784" height="41" rx="20.5" transform="matrix(0.999914 -0.0130896 0.140037 0.990146 106.088 145.154)" fill="#CC7400"/>
<rect width="144.784" height="41" rx="20.5" transform="matrix(0.999914 -0.0130896 0.140037 0.990146 109.088 139.154)" fill="#F58B00"/>
<path d="M151.364 158.457C151.364 158.457 151.363 158.458 151.363 158.458L144.967 160.234C144.803 160.279 144.76 160.48 144.884 160.618L150.117 166.456L150.117 166.457C150.648 167.048 150.599 167.899 150.01 168.292C150.01 168.292 150.01 168.292 150.01 168.292L147.989 169.64L147.989 169.64C147.431 170.013 146.61 169.821 146.166 169.217L146.166 169.217L141.847 163.328C141.73 163.169 141.496 163.17 141.421 163.33L138.642 169.279L138.642 169.279C138.362 169.88 137.605 170.08 136.952 169.727L136.952 169.727L136.952 169.727L134.555 168.43L134.555 168.43C133.853 168.05 133.566 167.194 133.939 166.592L137.582 160.706L137.582 160.706C137.668 160.566 137.57 160.365 137.393 160.323L137.392 160.323L130.615 158.717C129.874 158.542 129.362 157.801 129.499 157.106L129.989 154.62L129.989 154.619C130.126 153.929 130.847 153.566 131.567 153.83L138.092 156.213L138.092 156.213C138.266 156.277 138.429 156.15 138.398 155.973L137.189 149.057L137.189 149.056L137.188 149.056C137.062 148.342 137.559 147.745 138.278 147.736L138.279 147.736L140.763 147.705C141.486 147.696 142.15 148.284 142.221 149.002L142.906 155.868C142.924 156.044 143.119 156.167 143.277 156.101L143.277 156.101L149.069 153.657L149.07 153.657C149.709 153.389 150.517 153.727 150.848 154.405L152.023 156.817C152.36 157.51 152.057 158.266 151.364 158.457Z" fill="#CEDBE8"/>
<path d="M180.547 158.159C180.547 158.159 180.547 158.159 180.547 158.159L174.151 159.935C173.987 159.981 173.944 160.181 174.067 160.319L179.301 166.158L179.301 166.158C179.832 166.749 179.783 167.6 179.194 167.993C179.194 167.993 179.194 167.993 179.194 167.993L177.173 169.341L177.172 169.341C176.614 169.714 175.794 169.523 175.35 168.918L175.349 168.918L171.031 163.029C170.914 162.87 170.679 162.871 170.605 163.031L167.826 168.98L167.825 168.98C167.545 169.581 166.788 169.781 166.136 169.429L166.136 169.429L166.135 169.428L163.739 168.131L163.738 168.131C163.037 167.752 162.75 166.896 163.123 166.293L166.765 160.408L166.765 160.407C166.852 160.267 166.754 160.066 166.576 160.024L166.576 160.024L159.799 158.419C159.058 158.243 158.545 157.503 158.682 156.807L159.173 154.321L159.173 154.32C159.31 153.63 160.031 153.267 160.75 153.531L167.275 155.914L167.275 155.914C167.45 155.978 167.612 155.851 167.581 155.675L166.372 148.759L166.372 148.758L166.372 148.758C166.246 148.043 166.742 147.446 167.462 147.438L167.462 147.438L169.947 147.406C170.67 147.397 171.333 147.985 171.405 148.703L172.09 155.569C172.108 155.745 172.303 155.869 172.46 155.802L172.461 155.802L178.253 153.358L178.254 153.358C178.892 153.09 179.701 153.428 180.031 154.106L181.207 156.518C181.544 157.212 181.24 157.967 180.547 158.159Z" fill="#CEDBE8"/>
<path d="M209.665 157.694C209.665 157.694 209.664 157.694 209.664 157.694L203.268 159.47C203.104 159.516 203.061 159.717 203.184 159.855L208.418 165.693L208.418 165.693C208.949 166.285 208.9 167.136 208.311 167.528C208.311 167.528 208.311 167.528 208.311 167.528L206.29 168.877L206.29 168.877C205.731 169.249 204.911 169.058 204.467 168.454L204.467 168.454L200.148 162.564C200.031 162.405 199.797 162.407 199.722 162.566L196.943 168.515L196.943 168.515C196.662 169.116 195.906 169.316 195.253 168.964L195.253 168.964L195.253 168.963L192.856 167.666L192.856 167.666C192.154 167.287 191.867 166.431 192.24 165.828L195.882 159.943L195.882 159.942C195.969 159.802 195.871 159.601 195.694 159.559L195.693 159.559L188.916 157.954C188.175 157.778 187.663 157.038 187.8 156.342L188.29 153.856L188.29 153.855C188.427 153.165 189.148 152.803 189.867 153.066L196.392 155.449L196.393 155.449C196.567 155.513 196.73 155.386 196.699 155.21L195.489 148.294L195.489 148.293L195.489 148.293C195.363 147.578 195.86 146.982 196.579 146.973L196.58 146.973L199.064 146.942C199.787 146.932 200.45 147.521 200.522 148.238L201.207 155.104C201.225 155.28 201.42 155.404 201.577 155.338L201.578 155.338L207.37 152.893L207.371 152.893C208.01 152.625 208.818 152.963 209.148 153.641L210.324 156.054C210.661 156.747 210.357 157.502 209.665 157.694Z" fill="#CEDBE8"/>
<path d="M238.833 157.424C238.833 157.424 238.833 157.425 238.833 157.425L232.437 159.2C232.273 159.246 232.23 159.447 232.353 159.585L237.587 165.423L237.587 165.424C238.118 166.015 238.069 166.866 237.48 167.259C237.48 167.259 237.48 167.259 237.48 167.259L235.459 168.607L235.458 168.607C234.9 168.979 234.08 168.788 233.636 168.184L233.636 168.184L229.317 162.295C229.2 162.136 228.966 162.137 228.891 162.297L226.112 168.245L226.112 168.245C225.831 168.847 225.075 169.047 224.422 168.694L224.422 168.694L224.421 168.694L222.025 167.397L222.024 167.397C221.323 167.017 221.036 166.161 221.409 165.558L225.051 159.673L225.051 159.672C225.138 159.533 225.04 159.332 224.862 159.29L224.862 159.29L218.085 157.684C217.344 157.508 216.831 156.768 216.968 156.072L217.459 153.586L217.459 153.586C217.596 152.895 218.317 152.533 219.036 152.797L225.561 155.18L225.562 155.18C225.736 155.244 225.899 155.117 225.868 154.94L224.658 148.024L224.658 148.023L224.658 148.023C224.532 147.309 225.029 146.712 225.748 146.703L225.748 146.703L228.233 146.672C228.956 146.663 229.619 147.251 229.691 147.969L230.376 154.834C230.394 155.011 230.589 155.134 230.746 155.068L230.747 155.068L236.539 152.624L236.54 152.624C237.179 152.356 237.987 152.694 238.317 153.371L239.493 155.784C239.83 156.477 239.526 157.232 238.833 157.424Z" fill="#CEDBE8"/>
</svg>
