<svg width="45" height="46" viewBox="0 0 45 46" fill="none" xmlns="http://www.w3.org/2000/svg">
<path d="M40.0443 44.5231L27.3849 40.6275C29.4447 39.1527 28.1798 37.4511 24.3136 36.4135C19.8895 35.2246 12.8865 35.1552 7.97607 36.3297C2.38718 37.6677 1.17744 40.1802 6.27794 41.8491C11.5746 43.5813 20.4494 43.3995 25.3599 41.6264L37.1384 45.7038L38.5709 45.4595C38.8349 45.1409 38.9796 45.4871 39.3924 45.2379C40.1566 44.715 40.5571 44.3718 40.4304 44.3085H40.0443V44.5231Z" fill="#101619"/>
<path d="M41.7631 13.5155C42.6038 17.0316 41.2187 20.6527 39.489 23.2379C37.9326 25.5609 35.3073 27.1977 31.8698 27.6086C24.2878 28.5133 16.1725 23.1134 14.1267 15.7969C12.0808 8.4805 16.5742 1.5159 23.7742 1.18373C30.691 0.864676 39.4429 7.03601 41.7631 13.5155Z" fill="#8D2A00"/>
<path d="M41.2562 11.7093C43.6686 18.4444 40.0292 24.7775 32.7677 25.645C25.1858 26.5498 17.0705 21.1498 15.0247 13.8334C12.9788 6.51697 17.5885 1.05805 24.7907 0.725885C31.7075 0.406829 38.9382 5.23201 41.2584 11.7093H41.2562Z" fill="#C35500"/>
<path d="M39.6379 11.8393C41.7079 17.6981 38.4986 23.1614 32.203 23.8804C25.666 24.6256 18.6812 19.9774 16.8878 13.6837C15.158 7.6129 19.0324 2.5823 25.2841 2.26543C31.3206 1.96167 37.6381 6.17715 39.6401 11.8393H39.6379Z" fill="#D0C1CB"/>
<path d="M41.1684 44.5604L37.0329 45.6574L30.4629 24.7549L34.3373 24.3047L41.1684 44.5604Z" fill="#C35500"/>
<path d="M16.6719 8.96534L25.2218 2.26953C20.7306 2.52084 17.4797 5.20878 16.6719 8.96534Z" fill="#D0C1CB"/>
<path d="M32.2041 23.8819C37.7577 23.2481 40.9077 18.9234 40.1526 13.8906L26.4727 23.235C28.3275 23.8513 30.2856 24.1004 32.2041 23.8819Z" fill="#D5DADD"/>
<path d="M32.8989 4.15842L32.8945 4.15625L32.8989 4.15842Z" fill="#D0C1CB"/>
<path d="M25.2832 2.26521C25.461 2.25652 25.6366 2.25217 25.8144 2.25C25.6366 2.25 25.461 2.25652 25.2832 2.26521Z" fill="#D0C1CB"/>
<path d="M31.0273 3.26953C31.0822 3.29138 31.1371 3.31324 31.1898 3.33509C31.1349 3.31324 31.0822 3.29138 31.0273 3.26953Z" fill="#D0C1CB"/>
<path d="M31.5254 3.47656C31.5627 3.49405 31.6 3.51153 31.6373 3.52682C31.6 3.50934 31.5627 3.49186 31.5254 3.47656Z" fill="#D0C1CB"/>
<path d="M30.5215 3.07812C30.5829 3.09998 30.6466 3.12183 30.7081 3.14587C30.6466 3.12183 30.5851 3.09998 30.5215 3.07812Z" fill="#D0C1CB"/>
<path d="M27.1074 2.30859C27.2084 2.31728 27.3094 2.32814 27.4125 2.34118C27.3116 2.33032 27.2106 2.31946 27.1074 2.30859Z" fill="#D0C1CB"/>
<path d="M26.5605 2.26953C26.6659 2.27605 26.7735 2.28039 26.8788 2.28908C26.7735 2.28039 26.6659 2.27388 26.5605 2.26953Z" fill="#D0C1CB"/>
<path d="M27.6445 2.37109C27.7433 2.38413 27.8443 2.39933 27.9431 2.41454C27.8443 2.39933 27.7455 2.38413 27.6445 2.37109Z" fill="#D0C1CB"/>
<path d="M25.9922 2.25391C26.1107 2.25391 26.2271 2.25608 26.3456 2.26042C26.2271 2.25608 26.1085 2.25391 25.9922 2.25391Z" fill="#D0C1CB"/>
<path d="M40.2486 14.8005C39.9237 8.29262 33.6435 3.0872 27.4094 2.31141C25.2406 2.11255 21.4277 2.11255 18.6597 5.10862C18.348 5.44516 18.056 5.83851 17.7838 6.25372C17.7377 6.32365 17.7114 6.37173 17.6697 6.43947C17.6631 6.44821 17.6609 6.45914 17.6543 6.47007C20.936 2.53431 26.1823 2.283 30.8184 4.11867C35.6169 6.01771 39.7613 10.1545 40.2486 14.8049V14.8005Z" fill="#8D2A00"/>
<path d="M24.1945 3.07631L16.6719 8.96792C16.3623 10.4102 16.4106 12.0077 16.8892 13.686C16.9287 13.8259 16.9726 13.9636 17.0187 14.1012L31.5745 4.43995C29.1906 3.3757 26.6091 2.84685 24.1945 3.07631Z" fill="#D5DADD"/>
<path d="M28.8867 25.5834L31.1411 26.9143C31.1411 26.9143 30.6713 25.7539 32.2167 25.5944V25.5703C31.5977 25.6643 30.3509 25.7888 28.8867 25.5812V25.5834Z" fill="#8D2A00"/>
<path d="M33.8535 25.3619C34.1674 25.375 34.7162 25.6066 34.9774 26.2732L35.3506 25.0625C35.3506 25.0625 35.0059 25.2286 33.8535 25.3597V25.3619Z" fill="#8D2A00"/>
<path d="M37.0325 45.6595L30.873 26.0856L31.2879 25.6704C31.2879 25.6704 32.076 25.6245 32.9716 25.4453C32.9716 25.4453 32.6621 25.7928 32.7521 26.2735C33.1121 28.1617 38.9686 45.2923 38.9686 45.2923L37.0303 45.6595H37.0325Z" fill="#8D2A00"/>
<path d="M41.1679 44.5599C41.1679 44.7872 40.1011 45.1652 38.3559 45.6132C37.4933 45.7859 37.0696 45.764 37.0323 45.6569C37.006 45.5805 37.4779 45.2854 38.334 45.0101C39.6159 44.6102 41.023 44.3851 41.1679 44.5599Z" fill="#8D2A00"/>
<path d="M33.636 11.0607L31.2403 9.24589C31.1022 9.14107 30.9247 9.08647 30.7603 9.09957C30.5959 9.11268 30.4622 9.1913 30.3964 9.31141L29.237 11.4297C29.1142 11.6547 29.2479 11.9582 29.5372 12.1067C29.8266 12.2552 30.1597 12.1919 30.2825 11.967L30.8107 10.9908L32.7483 17.0073C32.836 17.2824 33.1538 17.4811 33.4585 17.4506C33.7631 17.42 33.9341 17.1754 33.8464 16.9024L31.9001 10.9078L32.9894 11.7333C33.1363 11.8447 33.3138 11.8927 33.4716 11.8796C33.59 11.8687 33.6974 11.825 33.7741 11.7442C33.9516 11.5586 33.8903 11.2528 33.636 11.0607Z" fill="#00144A"/>
<path d="M28.1647 15.2165C27.871 15.068 27.5335 15.1335 27.4063 15.365L26.854 16.3761L24.9799 10.3181C24.8967 10.0495 24.581 9.85296 24.2742 9.87699C23.9673 9.90101 23.7854 10.139 23.8665 10.4098L25.7274 16.4744L24.6117 15.6248C24.3509 15.4261 23.987 15.4239 23.7942 15.6183C23.6013 15.8127 23.6583 16.1315 23.9191 16.3302L26.3871 18.2105C26.5318 18.3197 26.7137 18.3743 26.8847 18.3568C27.0556 18.3394 27.1959 18.2542 27.266 18.1253L28.4672 15.9066C28.5921 15.6751 28.4562 15.365 28.1625 15.2165H28.1647Z" fill="#00144A"/>
</svg>
