<svg width="160" height="161" viewBox="0 0 160 161" fill="none" xmlns="http://www.w3.org/2000/svg">
<rect y="46" width="160" height="69" rx="12" fill="#89D1FF"/>
<path d="M51.3324 61.6761L51.3619 61.7138C51.4881 61.9481 51.7584 62.3789 52.2253 62.8262L53.0035 63.8289C53.3115 64.5055 53.6048 65.1739 53.8456 65.7309C54.211 66.5747 54.383 68.4243 54.9498 69.9168C54.958 69.9398 54.9695 69.966 54.981 69.9938C55.0219 70.0839 55.0793 70.1986 55.1497 70.3329C55.171 70.3723 55.1923 70.4132 55.2152 70.4558C55.8493 71.637 57.2582 74.0961 57.0141 76.3177L56.8863 76.8288L55.0842 84.0685C54.3944 83.8064 53.6294 84.1668 53.3885 84.8615L43 114.969H59.198C61.6554 106.353 64.7338 95.1566 65.8872 90.9478C65.915 90.8479 65.9413 90.7528 65.9658 90.6611C65.9675 90.6545 65.9691 90.648 65.9707 90.6414C66.223 89.7223 65.8561 88.7443 65.0598 88.2233C64.9681 88.1627 64.8714 88.1021 64.7715 88.0414C64.3177 87.7695 64.0605 87.2632 64.1047 86.7357C64.1047 86.7193 64.108 86.7029 64.1096 86.6866C64.2489 85.0761 66.5114 84.8205 66.9947 86.3622C66.9996 86.3769 67.0029 86.39 67.0078 86.4048C67.0225 86.4506 67.0356 86.4949 67.0488 86.5391C67.075 86.6276 67.1028 86.716 67.1274 86.8029C67.3977 87.7318 67.5779 88.5575 67.691 89.167C67.4141 89.3062 67.2748 89.6241 67.3617 89.9222L67.6451 90.897C67.9695 92.016 67.9515 93.1825 67.8712 94.344C67.8712 94.362 67.8712 94.3784 67.8712 94.3948C67.9171 94.7733 68.2726 95.8578 68.8345 97.4077C68.846 97.4372 68.8558 97.4666 68.8673 97.4978C68.9394 97.6944 69.0147 97.8992 69.0917 98.1105C69.1032 98.14 69.1147 98.1711 69.1245 98.2006C69.1736 98.3333 69.2244 98.4709 69.2769 98.6085C69.2883 98.638 69.2998 98.6692 69.3113 98.6987C69.5242 99.2671 69.7552 99.8782 70.0026 100.522C70.0141 100.552 70.0256 100.583 70.037 100.614C70.0993 100.778 70.1632 100.945 70.2287 101.114C71.7884 105.163 73.8805 110.38 75.7433 114.97H91.7741C87.798 106.571 82.5079 95.5351 80.0438 90.2826C80.0193 90.2286 79.9947 90.1762 79.9701 90.1237C79.9554 90.091 79.939 90.0566 79.9242 90.0254C79.8472 89.8616 79.7735 89.7043 79.7031 89.552C79.69 89.5241 79.6769 89.4979 79.6654 89.47C79.6441 89.4225 79.6211 89.3767 79.5998 89.3308C79.5851 89.298 79.5704 89.2669 79.5556 89.2358C79.536 89.1932 79.5163 89.1506 79.4966 89.1096C79.4852 89.0834 79.4737 89.0588 79.4622 89.0343C79.4409 88.9884 79.4213 88.9441 79.4 88.9016C79.3885 88.877 79.377 88.8524 79.3672 88.8295C79.3492 88.7885 79.3312 88.7508 79.3131 88.7115C79.3017 88.6869 79.2902 88.6624 79.2787 88.6378C79.2591 88.5968 79.2411 88.5559 79.223 88.5165C79.2149 88.4985 79.205 88.4789 79.1968 88.4608C79.1706 88.4035 79.146 88.3494 79.1215 88.2954C79.1215 88.2954 79.1215 88.2954 79.1215 88.2937C79.0969 88.2413 79.074 88.1889 79.051 88.1397C79.0445 88.125 79.0379 88.1119 79.0314 88.0971C79.015 88.0611 79.0002 88.0267 78.9838 87.9939C78.9773 87.9808 78.9724 87.9677 78.9658 87.953C78.9511 87.9218 78.938 87.8907 78.9249 87.8612C78.9183 87.8481 78.9134 87.835 78.9068 87.8219C78.8937 87.7924 78.8806 87.7646 78.8692 87.7367C78.8643 87.7269 78.8593 87.7154 78.8561 87.7056C78.8429 87.6777 78.8315 87.6499 78.82 87.6237C78.8167 87.6155 78.8135 87.6089 78.8102 87.6007C78.7971 87.5712 78.7856 87.545 78.7741 87.5188C78.7741 87.5155 78.7709 87.5123 78.7709 87.5106C78.7578 87.4811 78.7479 87.4549 78.7365 87.4304C78.5087 87.5467 78.2302 87.4566 78.1139 87.2288L76.646 84.3733C76.5378 84.1636 76.2724 84.0915 76.0726 84.2209L76.066 84.2258L73.2022 76.9976C72.5666 74.4123 74.2311 71.1177 74.413 70.3379C74.7799 68.7716 74.7095 66.9138 74.9618 66.0225C75.1289 65.4328 75.3321 64.725 75.5483 64.0074L76.9228 61.6139C77.1047 61.2977 77.0441 60.8996 76.8147 60.662C76.8131 60.6604 76.8114 60.6587 76.8098 60.6554C76.7918 60.6374 76.7721 60.6194 76.7525 60.603C76.7476 60.5997 76.7443 60.5965 76.7394 60.5932C76.7213 60.5784 76.7 60.5653 76.6804 60.5539C76.6738 60.5506 76.6689 60.5473 76.664 60.5424C76.6378 60.5277 76.6116 60.5145 76.5837 60.5031C76.2397 60.3687 75.7793 60.2983 75.2141 60.4605C75.1584 60.4769 75.0994 60.4949 75.0421 60.5162C74.9503 60.549 74.8553 60.5899 74.757 60.6358C74.5457 60.7357 74.3229 60.8668 74.0902 61.0388C74.0869 61.0404 74.0853 61.0437 74.082 61.0454C74.023 61.0896 73.9657 61.1338 73.91 61.1813C73.8903 61.1994 73.8707 61.2174 73.8494 61.2354C73.8117 61.2698 73.7724 61.3026 73.7363 61.337C73.7134 61.3583 73.6921 61.3812 73.6708 61.4025C73.638 61.4353 73.6036 61.4697 73.5709 61.5041C73.5479 61.5287 73.5266 61.5532 73.5053 61.5778C73.4742 61.6122 73.4447 61.6466 73.4136 61.681C73.3923 61.7072 73.371 61.7335 73.3513 61.7597C73.3218 61.7957 73.294 61.8318 73.2661 61.8678C73.2448 61.8956 73.2252 61.9235 73.2055 61.9513C73.1777 61.989 73.1515 62.0267 73.1252 62.0644C73.1056 62.0922 73.0876 62.1217 73.0679 62.1496C73.0417 62.1889 73.0155 62.2282 72.9909 62.2675C72.9729 62.297 72.9549 62.3265 72.9368 62.3544C72.9123 62.3953 72.8877 62.4347 72.8631 62.4772C72.8467 62.5067 72.8304 62.5362 72.814 62.5657C72.791 62.6083 72.7665 62.6493 72.7452 62.6919C72.7288 62.7214 72.714 62.7508 72.6993 62.7803C72.6764 62.8229 72.6551 62.8672 72.6338 62.9098C72.619 62.9392 72.6059 62.9687 72.5912 62.9982C72.5699 63.0425 72.5486 63.0867 72.5289 63.1309C72.5158 63.1604 72.5027 63.1899 72.4896 63.2194C72.4699 63.2636 72.4503 63.3095 72.4306 63.3537C72.4175 63.3832 72.406 63.4127 72.3946 63.4406C72.3749 63.4864 72.3569 63.5307 72.3389 63.5766C72.3274 63.6044 73.4922 56.2582 73.2514 55.113C73.045 54.1284 72.3192 53.904 71.8834 54.1169C71.849 54.1333 71.8162 54.153 71.7851 54.1759C71.7851 54.1759 71.7818 54.1776 71.7802 54.1792C71.7491 54.2021 71.7196 54.2267 71.695 54.2562C71.6835 54.2693 71.6704 54.2873 71.6557 54.3103C71.6557 54.3135 71.6524 54.3152 71.6508 54.3168C71.6377 54.3381 71.6229 54.3643 71.6082 54.3938C71.6049 54.3987 71.6033 54.4037 71.6 54.4086C71.5852 54.4381 71.5689 54.4725 71.5525 54.5085C71.5492 54.5151 71.5459 54.5232 71.5426 54.5298C71.5263 54.5675 71.5082 54.6084 71.4902 54.6527C71.4869 54.6609 71.4837 54.6691 71.4804 54.6772C71.4624 54.7231 71.4427 54.7723 71.4214 54.8247C71.4181 54.8313 71.4165 54.8378 71.4132 54.8444C71.3936 54.8984 71.3723 54.9541 71.3493 55.0147C71.3493 55.018 71.346 55.0213 71.346 55.0246C71.3231 55.0852 71.3002 55.1507 71.2772 55.2179C71.274 55.2277 71.2707 55.2376 71.2674 55.2474C71.2445 55.3129 71.2215 55.3801 71.197 55.4505C71.192 55.4636 71.1871 55.4767 71.1838 55.4915C71.1609 55.5619 71.1363 55.634 71.1118 55.7077C71.1068 55.7225 71.1019 55.7372 71.097 55.7536C71.0724 55.829 71.0462 55.9076 71.0217 55.9863C71.0167 56.001 71.0118 56.0141 71.0086 56.0289C70.9823 56.1108 70.9545 56.196 70.9283 56.2812C70.925 56.291 70.9217 56.3025 70.9184 56.3123C70.8906 56.3991 70.8627 56.4876 70.8349 56.5793C70.8333 56.5859 70.83 56.5924 70.8283 56.599C70.7988 56.6924 70.7694 56.7874 70.7399 56.8841C70.735 56.8972 70.7317 56.9119 70.7268 56.925C70.6989 57.0184 70.6694 57.1118 70.6416 57.2068C70.635 57.2265 70.6301 57.2461 70.6235 57.2658C70.5957 57.3608 70.5662 57.4558 70.5367 57.5525C70.5318 57.5705 70.5252 57.5885 70.5203 57.6066C70.4908 57.7065 70.4614 57.8064 70.4302 57.9096C70.4269 57.9227 70.422 57.9375 70.4188 57.9506C70.3876 58.0571 70.3565 58.1636 70.3237 58.2717C70.3221 58.2783 70.3205 58.2848 70.3188 58.2914C70.2861 58.4011 70.2549 58.5125 70.2222 58.6239C70.2222 58.6289 70.2189 58.6338 70.2172 58.6403C70.1845 58.7517 70.1534 58.8631 70.1206 58.9745C70.1173 58.9876 70.114 58.9991 70.1091 59.0122C70.078 59.122 70.0452 59.2318 70.0141 59.3432C70.0108 59.3563 70.0075 59.3694 70.0026 59.3808C69.9715 59.4922 69.9387 59.6036 69.9076 59.7151C69.9043 59.7249 69.9011 59.7364 69.8994 59.7462C69.8666 59.8609 69.8339 59.9755 69.8028 60.0902C69.8028 60.0935 69.8011 60.0968 69.7995 60.1001C69.6209 60.7308 69.4489 61.3501 69.2916 61.9202C69.2212 62.1758 68.8689 62.1922 68.7723 61.9464L68.769 61.9382C68.8493 61.3435 68.9557 60.6538 69.0934 59.8723C69.3539 58.4044 69.729 56.6088 70.2729 54.4839C70.5072 53.5681 70.7202 52.6425 70.866 51.7037C70.8791 51.6234 70.8906 51.5415 70.9037 51.458C70.9119 51.4039 70.9201 51.3482 70.9283 51.2925C70.9332 51.2646 70.9365 51.2352 70.9397 51.2073C70.9496 51.1385 70.9578 51.0681 70.9676 50.9992C70.9676 50.9878 70.9709 50.9779 70.9709 50.9665C71.0413 50.3947 71.0724 49.8 70.9643 49.2659C70.8857 48.8793 70.6891 48.5041 70.3713 48.319C70.1583 48.1945 69.9109 48.165 69.67 48.1388H69.6668C69.5881 48.1306 69.5062 48.1207 69.4292 48.1437C69.4079 48.1502 69.3883 48.1568 69.3702 48.1666C69.3686 48.1666 69.367 48.1699 69.3637 48.1699C69.3096 48.1977 69.2605 48.2403 69.2195 48.2911C69.1884 48.3272 69.1622 48.3681 69.136 48.4091C69.136 48.4091 68.6625 49.1496 68.5167 49.8016C68.3447 50.2767 68.515 49.6329 68.6805 48.681C68.6903 48.6221 68.7002 48.5598 68.71 48.4992C68.7133 48.4795 68.7166 48.4599 68.7182 48.4402C68.7247 48.3976 68.7313 48.3534 68.7362 48.3091C68.7395 48.2846 68.7428 48.26 68.746 48.2354C68.7526 48.1781 68.7592 48.1207 68.7657 48.0618C68.769 48.0257 68.7723 47.988 68.7755 47.9503C68.7772 47.9258 68.7788 47.8996 68.7804 47.875C68.7837 47.8324 68.7854 47.7882 68.7886 47.7456C68.7886 47.7325 68.7886 47.7193 68.7886 47.7062C68.7936 47.5588 68.7968 47.4113 68.7854 47.2655V47.2393C68.7591 46.8576 68.6789 46.4923 68.5069 46.1908C68.3529 45.9205 68.1284 45.7009 67.8024 45.5699C67.668 45.5158 67.5239 45.4847 67.383 45.5076C66.9455 45.5813 66.608 46.0974 66.3525 46.6479C66.2771 46.779 66.205 46.933 66.1575 47.1066C66.0674 47.336 65.992 47.5506 65.9298 47.721C65.9282 47.7259 65.9249 47.7325 65.9232 47.739C65.8577 47.9159 65.7938 48.0962 65.7332 48.2747C65.6808 48.4255 65.6316 48.5762 65.5825 48.7269C65.5825 48.7269 65.5825 48.7285 65.5825 48.7302C65.5923 48.6778 65.6021 48.627 65.6103 48.5745C65.6136 48.5516 65.6185 48.5287 65.6218 48.5074C65.63 48.4615 65.6365 48.4156 65.6414 48.3714C65.6447 48.3452 65.648 48.3206 65.6513 48.2944C65.6562 48.2518 65.6611 48.2108 65.6644 48.1699C65.666 48.1437 65.6677 48.1191 65.6693 48.0945C65.6726 48.0552 65.6742 48.0175 65.6759 47.9798C65.6759 47.9553 65.6759 47.9323 65.6759 47.9078C65.6759 47.8471 65.6759 47.7882 65.6693 47.7325C65.6677 47.7046 65.666 47.6751 65.6627 47.6489C65.6595 47.6227 65.6546 47.5965 65.6513 47.5719C65.6464 47.5457 65.6414 47.5195 65.6365 47.4933C65.6316 47.4703 65.6251 47.4474 65.6185 47.4244C65.6103 47.3982 65.6021 47.3737 65.5939 47.3507C65.5857 47.3311 65.5792 47.3114 65.571 47.2917C65.5579 47.2639 65.5448 47.2377 65.53 47.2131C65.5219 47.2 65.5153 47.1853 65.5071 47.1738C65.4842 47.1377 65.4563 47.105 65.4268 47.0739C65.417 47.064 65.4055 47.0542 65.3941 47.0444C65.3728 47.0231 65.3498 47.0034 65.3253 46.9854C65.3121 46.9756 65.2958 46.9657 65.2827 46.9575C65.2581 46.9411 65.2319 46.9264 65.204 46.9133C65.1876 46.9051 65.1713 46.8969 65.1549 46.8904C65.1237 46.8773 65.091 46.8658 65.0566 46.856C65.0402 46.851 65.0254 46.8461 65.0091 46.8412C64.9566 46.8281 64.9026 46.8166 64.8436 46.8101C64.819 46.8068 64.7944 46.8068 64.7699 46.8052C63.6886 46.7298 63.0677 47.9913 62.6433 49.1676C62.5663 49.1234 62.4877 49.0857 62.4074 49.0546C62.4058 49.0546 62.4025 49.0546 62.4009 49.0529C62.3534 49.0349 62.3058 49.0218 62.2567 49.0103C62.2485 49.0087 62.242 49.0071 62.2338 49.0054C62.1879 48.9956 62.142 48.9874 62.0945 48.9825C62.088 48.9825 62.0814 48.9808 62.0748 48.9808C61.9667 48.971 61.8537 48.9759 61.739 48.9989C61.698 49.0071 61.6571 49.0152 61.6145 49.0284C60.7953 49.2659 60.774 49.9835 61.1345 51.0468C61.0165 50.801 60.8936 50.5585 60.7691 50.3177C60.7691 50.3177 60.7691 50.3177 60.7691 50.3161C60.7363 50.2522 60.7036 50.1899 60.6708 50.126C60.6708 50.1244 60.6692 50.1211 60.6675 50.1195C60.3333 49.4936 59.6927 48.1486 58.9326 48.142C58.79 48.142 58.6508 48.1945 58.5246 48.2698C57.4384 48.912 57.735 50.4504 58.0626 51.4907C58.523 52.9554 58.1232 52.0494 57.6563 51.399C57.5498 51.2499 57.4204 51.0959 57.25 51.0762C57.1714 51.0664 57.0911 51.0877 57.0141 51.109C56.7782 51.1729 56.5357 51.2417 56.3408 51.399C56.0508 51.6333 55.905 52.0363 55.8771 52.4311C55.8214 53.2192 56.0721 54.0842 56.2916 54.828C56.5587 55.734 56.8896 56.6154 57.2402 57.4853C57.966 59.2825 58.5263 60.8406 58.9571 62.1578C58.9899 62.261 59.0227 62.3593 59.0538 62.4592L59.0505 62.4707C58.9588 62.8655 58.4165 62.9147 58.2543 62.5428C57.2123 60.1525 56.1098 57.7294 55.8083 57.482C55.4675 57.2019 54.7942 57.3248 54.5075 58.0096C54.4878 58.0571 54.4698 58.1079 54.4551 58.1587C54.4501 58.175 54.4469 58.1914 54.442 58.2078C54.4305 58.2488 54.4207 58.2897 54.4125 58.3323C54.4092 58.3503 54.4059 58.3667 54.4026 58.3847C54.3928 58.4454 54.3846 58.5076 54.3797 58.5732C54.3797 58.5912 54.3781 58.6108 54.3797 58.6338C54.3797 58.6583 54.3813 58.6846 54.3846 58.714C54.3879 58.7583 54.3944 58.8074 54.4026 58.8631C54.4092 58.9074 54.4174 58.9532 54.4272 59.0024C54.4583 59.1629 54.5042 59.353 54.5632 59.5676C54.5714 59.5971 54.5796 59.6266 54.5878 59.6561C54.6484 59.8707 54.7188 60.1082 54.7991 60.3638C54.8122 60.4048 54.8253 60.4457 54.8384 60.4883C54.9007 60.6849 54.9679 60.8914 55.0399 61.1043C55.0563 61.1519 55.0727 61.201 55.0891 61.2502C55.1268 61.3616 55.1661 61.4762 55.2054 61.5909C54.8679 61.2141 54.4895 60.8897 54.0635 60.6669C52.8774 60.0444 52.0418 60.2295 51.5258 60.5293C51.4881 60.5506 51.4537 60.5768 51.4226 60.6047C51.3931 60.6309 51.3652 60.6571 51.3406 60.6866C51.3062 60.7275 51.2767 60.7734 51.2538 60.8209C51.2423 60.8455 51.2309 60.8701 51.221 60.8946C51.1539 61.0716 51.149 61.2731 51.2128 61.4582C51.2407 61.5369 51.28 61.6122 51.3324 61.681V61.6761ZM66.6523 61.8973C66.6605 61.9186 66.6703 61.9382 66.6785 61.9595C66.6801 61.9645 66.6834 61.971 66.6851 61.9759C66.6736 61.9497 66.6621 61.9235 66.6506 61.8973H66.6523Z" fill="#1B90FF"/>
<path d="M65.8483 75.8438C65.8483 75.8438 82.7364 81.1873 82.4425 82.6171C81.8389 85.548 65.2221 83.1511 65.8483 75.8438Z" fill="#00144A"/>
<path d="M95.8118 77.7478C95.8118 77.7478 91.5119 67.8853 91.5085 67.8783C90.6892 65.998 91.7102 63.3262 92.3364 61.4894C93.1053 59.2281 93.154 56.8781 93.8393 54.676C94.0602 53.9681 94.3298 53.1158 94.6151 52.2513L96.4345 49.3725C96.7424 48.8855 96.5267 48.2297 95.984 48.0384C95.2569 47.7809 94.1298 47.7183 92.6826 48.6837C90.0265 50.4579 89.369 55.1492 89.369 55.1492C89.369 55.1492 88.9811 55.5788 87.887 54.2951C86.8033 53.0218 86.2884 51.2511 85.6292 49.7447C84.7612 47.7601 84.0394 45.7284 83.2166 43.7246C82.2582 41.3955 81.5728 40.3344 80.3048 38.1619C79.5168 36.8121 78.2436 33.6881 76.1702 34.2325C73.5332 34.9248 77.1321 39.0385 79.1046 44.2307C80.1622 47.0138 82.0286 50.9728 82.0286 50.9728C81.6163 51.1241 80.6301 48.4228 80.5257 48.174C79.6316 46.0502 78.7915 43.9055 77.8922 41.7834C76.9964 39.6665 76.0815 37.5305 74.9143 35.5458C74.4707 34.7926 73.6236 33.1749 72.6165 33.168C72.4269 33.168 72.2443 33.2323 72.0773 33.321C70.6388 34.0933 71.0319 35.9424 71.465 37.1948C72.0756 38.9568 73.2305 40.4701 73.8532 42.2217C74.2568 43.3558 74.7021 44.4795 75.1474 45.5997C75.6605 46.8921 76.1423 48.2123 76.7442 49.4664C77.2643 50.5518 78.007 53.0131 77.8887 52.8601C77.7704 52.707 77.8018 52.533 76.7111 49.6265C75.6814 46.8816 74.5751 44.1577 73.354 41.4929C72.6617 39.9831 71.966 38.3915 70.9293 37.0817C70.7884 36.9025 70.6162 36.7181 70.39 36.6938C70.2857 36.6834 70.1813 36.7077 70.0787 36.7338C69.7673 36.8121 69.4455 36.8938 69.1864 37.0834C68.8019 37.3652 68.6089 37.8488 68.5723 38.3236C68.4993 39.2716 68.8298 40.3118 69.1203 41.2076C69.4734 42.2965 69.9117 43.3576 70.3761 44.4047C72.9018 50.0839 73.9107 53.7959 74.2759 55.4153C74.3055 55.5457 74.1211 55.6084 74.0655 55.4866C72.8409 52.827 69.1516 44.9004 68.4819 44.4012C67.9253 43.9855 66.7077 44.3055 66.5894 45.7162C66.4711 47.1252 71.098 57.5426 71.098 57.5426C71.098 57.5426 73.4306 66.9981 78.461 71.4128C83.4914 75.8275 84.4359 83.8341 84.4359 83.8341L95.8101 77.7478H95.8118Z" fill="#A93E00"/>
<path d="M77.8887 52.861C77.7704 52.7096 77.8017 52.534 76.7111 49.6274C76.4536 48.9403 76.191 48.2532 75.9231 47.5679C76.1805 48.2097 76.4484 48.8446 76.7441 49.4656C77.2642 50.551 78.0069 53.0123 77.8887 52.8592V52.861ZM80.5256 48.1749C79.6316 46.0511 78.7897 43.9064 77.8921 41.7843C77.6034 41.1042 77.3129 40.4206 77.0137 39.7422C77.7095 41.085 78.487 42.6053 79.1045 44.2317C80.1621 47.0147 82.0285 50.9737 82.0285 50.9737C81.6163 51.125 80.63 48.4219 80.5256 48.1749Z" fill="#340800"/>
<path d="M77.1581 51.49C77.2538 51.5527 77.3529 51.6083 77.4521 51.6622C77.2921 51.203 77.059 50.556 76.7111 49.6289C76.5441 49.1818 76.3702 48.7383 76.1997 48.293C76.0971 48.8757 76.0658 49.4827 76.1997 50.0568C76.3354 50.6429 76.6519 51.1561 77.1599 51.4883L77.1581 51.49Z" fill="#340800"/>
<path d="M95.9821 48.0415C95.255 47.7841 94.1279 47.7215 92.6807 48.6869C90.0959 50.4124 89.4036 54.9001 89.3688 55.1401C89.3427 55.1558 89.3183 55.1749 89.2957 55.1958C89.1409 55.2584 88.7182 55.2758 87.8851 54.2965C86.8014 53.0233 86.2865 51.2525 85.6273 49.7462C84.7593 47.7615 84.0374 45.7298 83.2147 43.726C82.2563 41.3969 81.5709 40.3359 80.3029 38.1633C80.2716 38.1094 80.2385 38.0502 80.2055 37.9911C80.1968 37.9754 80.1881 37.9581 80.1776 37.9424C80.1498 37.892 80.1202 37.838 80.0907 37.7841C80.0837 37.7719 80.0785 37.7615 80.0715 37.7493C80.042 37.6937 80.0107 37.638 79.9811 37.5789C79.8124 37.2623 79.6245 36.9092 79.4158 36.5526C79.4105 36.5456 79.4071 36.5369 79.4019 36.53C79.3584 36.4569 79.3149 36.3839 79.2697 36.3091C79.2644 36.3004 79.261 36.2934 79.2557 36.2847C78.5321 35.1002 77.5807 33.9817 76.33 34.1991C76.577 34.6636 74.4132 53.2094 74.888 53.7364C72.9277 53.6234 71.0961 57.544 71.0961 57.544C71.0961 57.544 73.4286 66.9996 78.4591 71.4143C83.4895 75.8289 84.434 83.8355 84.434 83.8355L88.8504 81.4716C88.2399 80.9359 87.6728 80.3515 87.1615 79.7305C86.0604 78.3929 85.1576 76.8482 84.7297 75.1593C84.5367 74.3956 84.4392 73.599 84.481 72.8093C84.5175 72.1152 84.6932 71.4351 84.9593 70.7915C85.5229 69.433 86.3109 68.1807 86.9701 66.8691C86.9736 66.8622 86.9771 66.8535 86.9823 66.8465C87.2362 66.3403 86.6553 65.8168 86.1822 66.1299C86.0117 66.2429 85.8343 66.3438 85.6481 66.4291C84.5575 66.9352 83.2303 66.7822 82.3137 65.9803C82.0736 65.7715 81.9084 65.5245 81.7953 65.2549C82.0371 65.1941 82.2684 65.1262 82.4406 65.0427C82.7555 64.8931 83.0512 64.6844 83.3434 64.4948C83.7017 64.2617 84.0566 64.0217 84.4114 63.7834C84.7436 63.5625 85.0759 63.3433 85.4168 63.1346C85.3768 62.9537 85.3403 62.771 85.3159 62.5849C85.2985 62.4597 85.3838 62.3483 85.4933 62.2875C85.4916 61.91 85.5333 61.5326 85.6064 61.176C85.8256 60.1132 86.3422 59.1513 87.0066 58.3024C87.4467 57.7406 87.8433 56.5682 87.9825 55.6185C88.3634 55.7594 87.7389 56.777 88.3495 56.9561C88.6434 57.0431 88.9496 56.8622 89.0522 56.5752C89.4558 55.4428 90.3498 53.1172 90.4716 52.698C91.7936 48.1128 95.7142 48.3303 96.3613 48.3042C96.2639 48.1859 96.1352 48.0902 95.9769 48.0346L95.9821 48.0415Z" fill="#340800"/>
<path d="M67.2347 77.4487L70.0804 67.0643C70.47 63.8655 67.72 60.2596 67.346 59.3656C66.5946 57.5705 66.3684 55.3457 65.8849 54.3317C65.5648 53.662 65.1752 52.8566 64.7699 52.0443L62.5574 49.4543C62.1834 49.016 62.3034 48.3376 62.8131 48.0697C63.4966 47.7114 64.6029 47.487 66.1719 48.2367C69.0541 49.6126 70.3761 54.1612 70.3761 54.1612C70.3761 54.1612 70.8214 54.5317 71.7207 53.1036C72.6113 51.6895 72.867 49.8613 73.3036 48.2767C73.8793 46.1876 74.302 44.0742 74.829 41.9747C75.4431 39.5326 75.9718 38.3846 76.9146 36.052C77.5008 34.603 78.3149 31.3294 80.4439 31.5712C83.1522 31.8791 80.1795 36.4642 78.9706 41.886C78.3218 44.7926 77.0416 48.9777 77.0416 48.9777C77.4712 49.0681 78.0609 46.2537 78.1287 45.9928C78.7097 43.7629 79.235 41.519 79.8195 39.2908C80.4039 37.0626 81.0023 34.8222 81.8737 32.6914C82.2042 31.8826 82.813 30.1605 83.808 30.0092C83.9941 29.9814 84.1854 30.0196 84.3646 30.084C85.8988 30.6424 85.7735 32.5296 85.5248 33.8307C85.1734 35.6624 84.2463 37.3252 83.881 39.1482C83.6445 40.3275 83.3644 41.5034 83.0844 42.6775C82.7608 44.029 82.4738 45.4066 82.0581 46.7338C81.6998 47.8819 81.3154 50.4249 81.411 50.2562C81.5067 50.0892 81.4511 49.9205 82.1138 46.8886C82.74 44.0255 83.4444 41.1711 84.2724 38.3585C84.7421 36.7652 85.203 35.0901 86.0397 33.6464C86.1545 33.4498 86.2971 33.2411 86.518 33.1854C86.6206 33.1593 86.7267 33.1697 86.8328 33.1802C87.1529 33.2132 87.4817 33.248 87.7652 33.3976C88.1861 33.6203 88.4453 34.0725 88.5497 34.5369C88.7584 35.4641 88.5792 36.5408 88.4192 37.4696C88.2261 38.5985 87.9443 39.7117 87.633 40.8128C85.9457 46.7947 85.4796 50.6128 85.3491 52.2687C85.3387 52.4026 85.53 52.4374 85.5683 52.3087C86.3997 49.5013 88.9167 41.1294 89.5081 40.538C89.9986 40.0475 91.251 40.1901 91.5693 41.5677C91.8876 42.9453 88.8001 53.9177 88.8001 53.9177C88.8001 53.9177 87.8452 63.6098 83.4984 68.6994C79.1515 73.7889 79.3637 81.8477 79.3637 81.8477L67.2364 77.4522L67.2347 77.4487Z" fill="#FFAB92"/>
<path d="M67.2347 77.449L70.3778 79.1554C70.3239 76.3375 72.2703 73.4327 73.3366 70.827C73.3523 70.7887 73.3697 70.7505 73.3871 70.7087C74.008 69.3607 74.1628 67.823 73.8115 66.381C73.2844 64.2276 71.3554 62.556 70.5135 60.4896C69.3464 57.6265 68.5567 55.0452 66.6172 52.5769C66.3441 52.229 63.0931 47.9239 62.8131 48.07C62.3034 48.3379 62.1834 49.018 62.5574 49.4546C63.3279 50.3557 64.0915 51.2097 64.7421 52.2064C66.1649 54.3842 66.3615 57.0107 67.3477 59.3659C67.7217 60.26 70.47 63.8658 70.0821 67.0646L67.2364 77.449H67.2347Z" fill="#FF7F4C"/>
<path d="M83.8793 39.1422C84.2446 37.3193 85.1717 35.6564 85.5231 33.8247C85.7022 32.8907 85.8136 31.6539 85.2952 30.8242C85.1474 32.2158 84.789 33.583 84.3577 34.9101C83.7489 36.787 80.644 50.5476 81.0093 50.6015C81.3763 50.6572 81.5798 50.1945 81.6529 49.831C82.1329 47.4497 82.6826 45.0667 83.0827 42.6697C83.3627 41.4974 83.6428 40.3215 83.8793 39.1404V39.1422Z" fill="#FF7F4C"/>
<path d="M86.685 41.3413C86.2588 42.7607 86.0188 44.2183 85.7683 45.676C85.396 47.8433 85.0795 50.0246 84.9003 52.218C84.8777 52.4859 85.243 52.5902 85.3665 52.3519C85.3682 52.3484 85.3699 52.345 85.3717 52.3415C85.356 52.3223 85.3473 52.2963 85.3491 52.2649C85.4778 50.609 85.9457 46.791 87.6329 40.8091C87.9443 39.708 88.2261 38.5948 88.4192 37.4659C88.5461 36.7231 88.6836 35.8847 88.6279 35.1055C88.4627 35.876 88.247 36.6379 88.0052 37.3893C87.579 38.713 87.085 40.0124 86.685 41.3448V41.3413Z" fill="#FF7F4C"/>
<path d="M81.2092 33.3937C81.164 33.5502 81.1066 33.7033 81.0596 33.8633C80.9692 34.1608 80.8892 34.4652 80.797 34.7626C80.5987 35.4027 80.3969 36.0411 80.1986 36.6795C79.7864 38.0084 79.3724 39.3356 78.9619 40.6645C78.5514 41.9934 78.1165 43.4041 77.7025 44.7748C77.3894 45.8097 77.0763 46.8447 76.7911 47.8866C76.711 48.1789 76.6241 48.4746 76.5701 48.7737C76.5214 49.0468 76.8832 49.2069 77.0398 48.979C77.0398 48.9773 77.0433 48.9738 77.045 48.972C77.1128 48.8711 78.4592 44.1851 78.974 41.8804C79.3532 40.1827 79.9046 38.5668 80.4004 37.1369C80.2003 37.8519 81.5675 33.4772 81.4232 33.8773C81.7206 32.5066 81.5519 31.6438 80.3499 31.5586C80.8857 31.9169 81.3379 32.2405 81.2944 32.9519C81.2857 33.1049 81.2527 33.2493 81.2109 33.3902L81.2092 33.3937Z" fill="#FF7F4C"/>
<path d="M89.3535 45.5178C89.3428 45.5178 89.3428 45.5 89.3535 45.5C89.3642 45.5 89.3642 45.5178 89.3535 45.5178Z" fill="#FF7F4C"/>
<path d="M78.2625 33.4559C78.1964 33.6872 78.2973 33.9342 78.5078 34.049C79.1096 34.3726 80.3603 34.8439 80.7169 33.4124C81.0995 31.8834 79.9132 31.786 79.4279 31.8069C79.3027 31.8121 79.1862 31.866 79.1027 31.96C78.8887 32.2017 78.4608 32.7497 78.2608 33.4559H78.2625Z" fill="#D20A0A"/>
<path d="M82.1067 32.3535C82.0824 32.724 82.2998 33.065 82.6407 33.2146C83.2147 33.465 84.1418 33.639 84.4619 32.357C84.7924 31.035 83.9505 30.7828 83.4026 30.7515C83.133 30.7359 82.8703 30.842 82.6929 31.0437C82.4546 31.3151 82.145 31.7726 82.1067 32.3535Z" fill="#D20A0A"/>
<path d="M85.3022 35.1829C85.243 35.4281 85.37 35.6786 85.5996 35.7865C86.2136 36.0735 87.4399 36.4475 87.6574 35.002C87.9391 33.1251 86.1267 33.4991 86.1267 33.4991C86.1267 33.4991 85.4935 34.3984 85.3022 35.1846V35.1829Z" fill="#D20A0A"/>
<path d="M89.1966 41.8133C89.141 42.3438 89.5584 42.8326 90.0907 42.7996C90.4003 42.7804 90.6943 42.5856 90.7778 41.9612C90.9308 40.8131 90.0177 40.7453 89.6767 40.7592C89.5967 40.7627 89.5254 40.8062 89.4889 40.8758C89.4002 41.0393 89.2419 41.3819 89.1984 41.8133H89.1966Z" fill="#D20A0A"/>
<path d="M64.0099 51.0608C64.0099 51.0608 65.6971 50.2659 64.2047 49.1249C62.7627 48.0203 62.4774 49.2831 62.4774 49.2831C62.4774 49.2831 62.8879 50.1911 64.0099 51.0608Z" fill="#D20A0A"/>
<path d="M86.4605 91.8283L99.5149 82.8493L95.7978 76.2812C95.7978 76.2812 88.8748 80.4141 83.5765 82.8146L86.4588 91.8283H86.4605Z" fill="white"/>
<path d="M116.834 114.97C110.101 102.027 99.868 82.6862 98.8366 80.4336C98.8366 80.4336 84.2358 87.1756 84.4515 88.8124C84.6793 90.5414 90.8317 104.526 95.5055 114.972H116.834V114.97Z" fill="#0070F2"/>
<path d="M97.5129 114.968C95.3873 110.616 93.6722 106.001 92.9556 101.195C92.5973 98.7894 92.4773 96.3385 92.7608 93.9172C92.8808 92.8927 93.0217 91.8317 93.3957 90.8628C93.7053 90.0627 94.1506 89.339 94.7037 88.685C96.3457 86.7403 98.7166 85.5819 100.585 83.8964C99.6733 82.1326 99.0506 80.9046 98.8331 80.4297C98.8331 80.4297 84.2324 87.1717 84.448 88.8085C84.6759 90.5375 90.8283 104.523 95.5021 114.968H97.5112H97.5129Z" fill="#00144A"/>
<path d="M72.526 114.967C76.6572 101.874 82.4425 82.6171 82.4425 82.6171L65.8484 75.8438L50.9884 114.967H72.526Z" fill="#0070F2"/>
<path d="M55.3178 114.967C55.6362 113.603 56.0084 112.252 56.4154 110.912C57.0886 108.7 57.8609 106.519 58.6906 104.36C59.5273 102.182 60.4266 100.029 61.3589 97.8893C62.2199 95.915 63.1122 93.9547 64.0185 91.9996C64.062 91.9057 64.1159 91.7821 64.1802 91.6326C67.2016 84.5287 74.9438 80.6846 82.4199 82.6119L82.4425 82.6171L65.8484 75.8438L50.9884 114.967H55.3178Z" fill="#00144A"/>
</svg>
