<svg width="157" height="150" viewBox="0 0 157 150" fill="none" xmlns="http://www.w3.org/2000/svg">
<path d="M64 128C99.3462 128 128 99.3462 128 64C128 28.6538 99.3462 0 64 0C28.6538 0 0 28.6538 0 64C0 99.3462 28.6538 128 64 128Z" fill="#223548"/>
<path fill-rule="evenodd" clip-rule="evenodd" d="M83.8693 124.855C107.876 117.022 125.642 95.3793 127.783 69.3099L98.4356 55.6069C96.7927 54.8399 94.8361 55.5513 94.0655 57.196L67.6184 113.637C66.8477 115.282 67.5547 117.237 69.1976 118.004L83.8693 124.855Z" fill="#2A4259"/>
<path fill-rule="evenodd" clip-rule="evenodd" d="M119.501 86.6792C119.991 87.284 119.898 88.1717 119.293 88.6618L103.491 101.468C103.119 101.77 102.618 101.861 102.162 101.711C101.706 101.56 101.358 101.188 101.239 100.723L99.0759 92.3086L85.9389 102.308C85.3194 102.779 84.435 102.659 83.9635 102.04C83.492 101.42 83.612 100.536 84.2315 100.064L99.0586 88.7788C99.4345 88.4927 99.9287 88.4139 100.375 88.5689C100.821 88.7239 101.16 89.0921 101.278 89.5496L103.423 97.8947L117.518 86.4715C118.123 85.9814 119.011 86.0744 119.501 86.6792Z" fill="#324E6B"/>
<path d="M96.4307 69.8629C96.5957 69.5104 97.0153 69.3584 97.3678 69.5234L99.2988 70.4275C99.6513 70.5925 99.8033 71.0121 99.6382 71.3646L85.3261 101.935C85.161 102.288 84.7415 102.44 84.3889 102.275L82.458 101.371C82.1055 101.206 81.9535 100.786 82.1185 100.433L96.4307 69.8629Z" fill="#223548"/>
<path fill-rule="evenodd" clip-rule="evenodd" d="M107.999 110.476L83.5344 99.1604C83.1811 98.997 82.7622 99.1509 82.5988 99.5042L81.7037 101.439C81.5403 101.793 81.6942 102.211 82.0475 102.375L105.118 113.046C106.104 112.218 107.065 111.361 107.999 110.476Z" fill="#223548"/>
<path d="M79.0671 108.619C79.3882 107.909 80.2263 107.588 80.9355 107.909L95.79 114.635C96.4992 114.956 96.8109 115.797 96.4899 116.507C96.1688 117.216 95.3307 117.537 94.6215 117.216L79.7669 110.491C79.0577 110.17 78.746 109.328 79.0671 108.619Z" fill="#223548"/>
<path fill-rule="evenodd" clip-rule="evenodd" d="M24.6624 114.487H86.3119C89.6583 114.487 92.371 111.774 92.371 108.428V44.281L75.6922 30.4531H12.3091C11.0097 30.4531 9.80593 30.8621 8.81936 31.5584C7.89753 33.123 7.04035 34.7302 6.25149 36.3764C6.2505 36.4215 6.25 36.4668 6.25 36.5122V91.6195C10.553 100.6 16.8892 108.421 24.6624 114.487Z" fill="#B9C1C6"/>
<path fill-rule="evenodd" clip-rule="evenodd" d="M21.0597 111.457H84.4944C87.1715 111.457 89.3417 109.287 89.3417 106.61V41.9511L71.9963 27.4238H11.4748C7.9766 32.438 5.17807 37.9765 3.2207 43.8978V84.1022C6.73222 94.725 12.9509 104.116 21.0597 111.457Z" fill="#CEDBE8"/>
<path d="M71.9023 41.8184L89.3413 45.3351V41.8184H71.9023Z" fill="white"/>
<path d="M71.9023 41.8194H89.3413L71.9023 27.4238V41.8194Z" fill="#B9C1C6"/>
<path d="M97.8751 22.8469C97.8751 21.9485 95.2671 21.2293 91.7825 21.066C91.5832 17.5858 90.8162 14.998 89.9176 15C89.0191 15.002 88.272 17.6097 88.0807 21.1078C84.5861 21.3469 81.9881 22.1278 82 23.0282C82.012 23.9286 84.608 24.6478 88.0927 24.8091C88.3019 28.2894 89.0589 30.8771 89.9555 30.8751C90.8521 30.8731 91.6032 28.2655 91.7944 24.7673C95.289 24.5283 97.885 23.7474 97.8751 22.8469Z" fill="#F58B00"/>
<path d="M114.231 40.0569C114.231 39.4779 112.55 39.0145 110.304 38.9092C110.176 36.6664 109.682 34.9987 109.102 35C108.523 35.0013 108.042 36.6818 107.919 38.9361C105.667 39.0902 103.992 39.5934 104 40.1737C104.008 40.754 105.681 41.2175 107.926 41.3214C108.061 43.5642 108.549 45.2319 109.127 45.2306C109.705 45.2293 110.189 43.5488 110.312 41.2945C112.564 41.1404 114.237 40.6372 114.231 40.0569Z" fill="#F58B00"/>
<rect x="13" y="51.8281" width="65.6545" height="50.6581" rx="3.53116" fill="#223548"/>
<path d="M25.8611 37H14.5469C13.7842 37 13.166 37.6182 13.166 38.3809C13.166 39.1435 13.7842 39.7617 14.5469 39.7617H25.8611C26.6237 39.7617 27.2419 39.1435 27.2419 38.3809C27.2419 37.6182 26.6237 37 25.8611 37Z" fill="#0070F3"/>
<path d="M37.0944 42.3652H14.3363C13.69 42.3652 13.166 42.8892 13.166 43.5355C13.166 44.1818 13.69 44.7058 14.3363 44.7058H37.0944C37.7407 44.7058 38.2647 44.1818 38.2647 43.5355C38.2647 42.8892 37.7407 42.3652 37.0944 42.3652Z" fill="#1782FF"/>
<rect x="23.3125" y="95.8398" width="16.5299" height="7.16114" rx="1.17716" transform="rotate(-90 23.3125 95.8398)" fill="#0070F3"/>
<rect x="35.7705" y="95.8398" width="36.4539" height="7.16114" rx="1.17705" transform="rotate(-90 35.7705 95.8398)" fill="#F58B00"/>
<rect x="48.2285" y="95.8398" width="28.6912" height="7.16114" rx="1.17716" transform="rotate(-90 48.2285 95.8398)" fill="#4098FF"/>
<rect x="60.6865" y="95.8398" width="20.7599" height="7.16114" rx="1.17705" transform="rotate(-90 60.6865 95.8398)" fill="#1782FF"/>
<path fill-rule="evenodd" clip-rule="evenodd" d="M21.7217 70.2207C21.7217 69.7331 22.1169 69.3379 22.6045 69.3379H31.1821C31.6696 69.3379 32.0649 69.7331 32.0649 70.2207C32.0649 70.7082 31.6696 71.1035 31.1821 71.1035H22.6045C22.1169 71.1035 21.7217 70.7082 21.7217 70.2207Z" fill="#688FB7"/>
<path fill-rule="evenodd" clip-rule="evenodd" d="M34.1797 82.0879C34.1797 81.6003 34.5749 81.2051 35.0625 81.2051H43.6401C44.1276 81.2051 44.5229 81.6003 44.5229 82.0879C44.5229 82.5754 44.1276 82.9707 43.6401 82.9707H35.0625C34.5749 82.9707 34.1797 82.5754 34.1797 82.0879Z" fill="#688FB7"/>
<path fill-rule="evenodd" clip-rule="evenodd" d="M46.6377 74.1972C46.6377 73.7097 47.0329 73.3145 47.5205 73.3145H56.0981C56.5856 73.3145 56.9809 73.7097 56.9809 74.1972C56.9809 74.6848 56.5856 75.08 56.0981 75.08H47.5205C47.0329 75.08 46.6377 74.6848 46.6377 74.1972Z" fill="#688FB7"/>
<path fill-rule="evenodd" clip-rule="evenodd" d="M59.0957 67.6699C59.0957 67.1823 59.4909 66.7871 59.9785 66.7871H68.5561C69.0436 66.7871 69.4389 67.1823 69.4389 67.6699C69.4389 68.1575 69.0436 68.5527 68.5561 68.5527H59.9785C59.4909 68.5527 59.0957 68.1575 59.0957 67.6699Z" fill="#688FB7"/>
</svg>
