<svg width="160" height="161" viewBox="0 0 160 161" fill="none" xmlns="http://www.w3.org/2000/svg">
<rect y="46" width="160" height="69" rx="12" fill="#222F3B"/>
<path fill-rule="evenodd" clip-rule="evenodd" d="M73.883 114.898H40.7078C40.7429 114.686 40.7854 114.469 40.8327 114.25C40.8482 114.18 40.8638 114.102 40.8793 114.024L40.8793 114.024C40.9114 113.869 40.9487 113.711 40.9868 113.55C41.0134 113.437 41.0404 113.323 41.066 113.208C41.0738 113.169 41.0835 113.13 41.0933 113.091C41.103 113.052 41.1127 113.013 41.1205 112.974C41.136 112.951 41.136 112.928 41.136 112.904C41.1438 112.865 41.1535 112.824 41.1633 112.784C41.173 112.743 41.1827 112.702 41.1905 112.663C41.1983 112.624 41.208 112.585 41.2177 112.546C41.2274 112.507 41.2372 112.469 41.2449 112.43C41.276 112.298 41.3071 112.158 41.3381 112.018L41.3383 112.017L41.3383 112.017C41.3694 111.885 41.4005 111.753 41.4239 111.621C41.4783 111.356 41.5328 111.084 41.5716 110.804L41.6183 110.454C41.621 110.432 41.6247 110.411 41.6284 110.391C41.6351 110.352 41.6417 110.315 41.6417 110.275C41.6883 109.855 41.7272 109.419 41.7272 108.976C41.735 108.525 41.7194 108.066 41.6728 107.584C41.6261 107.179 41.5639 106.751 41.4705 106.316C41.2994 105.514 41.0349 104.667 40.6382 103.772C40.6185 103.733 40.6019 103.693 40.5845 103.652C40.5744 103.628 40.564 103.603 40.5526 103.578V103.546C40.5215 103.476 40.4904 103.406 40.4671 103.336V103.321C39.8292 101.648 39.3003 99.0425 38.8491 96.1566C37.5656 95.4954 36.3366 94.4764 35.2942 93.3174L35.1776 93.1774C35.1698 93.1696 35.1639 93.1618 35.1581 93.1541C35.1523 93.1463 35.1464 93.1385 35.1387 93.1307C35.1166 93.1087 35.0985 93.0827 35.0815 93.0584C35.0745 93.0484 35.0677 93.0387 35.0609 93.0296C35.0531 93.0179 35.0473 93.0082 35.0414 92.9985C35.0356 92.9887 35.0298 92.979 35.022 92.9674C35.0064 92.9285 34.9831 92.8974 34.9598 92.8663L34.9597 92.8662C34.9503 92.8568 34.9438 92.8445 34.9366 92.8312C34.9319 92.8224 34.927 92.8132 34.9209 92.804C34.8975 92.7729 34.8742 92.734 34.8586 92.7029C34.8508 92.6912 34.845 92.6796 34.8392 92.6679C34.8333 92.6562 34.8275 92.6446 34.8197 92.6329C34.812 92.6134 34.8022 92.5959 34.7925 92.5784C34.7828 92.5609 34.7731 92.5434 34.7653 92.524C34.7622 92.5146 34.7566 92.5053 34.751 92.496C34.7426 92.482 34.7342 92.468 34.7342 92.454C34.7264 92.4345 34.7167 92.4151 34.7069 92.3956C34.6972 92.3762 34.6875 92.3567 34.6797 92.3373C34.6642 92.3217 34.6486 92.2984 34.6486 92.2751C34.6408 92.2517 34.6311 92.2303 34.6214 92.2089C34.6117 92.1875 34.6019 92.1662 34.5941 92.1428C34.5923 92.1391 34.59 92.135 34.5876 92.1307C34.5799 92.1167 34.5708 92.1003 34.5708 92.0884C34.5591 92.0573 34.5475 92.0281 34.5358 91.9989C34.5241 91.9697 34.5125 91.9406 34.5008 91.9095V91.8939C34.4541 91.7617 34.4075 91.6216 34.3686 91.4816V91.4427C34.353 91.3883 34.3375 91.3338 34.3219 91.2716C34.3063 91.2561 34.3063 91.2327 34.3063 91.2172C34.2986 91.1899 34.2927 91.1627 34.2869 91.1355C34.2811 91.1083 34.2752 91.081 34.2674 91.0538C34.2519 91.0382 34.2519 91.0149 34.2519 90.9994C34.2487 90.9882 34.2452 90.9767 34.2416 90.965C34.2277 90.9197 34.213 90.8715 34.213 90.8282V90.7738C34.2098 90.7483 34.204 90.7242 34.1983 90.7003C34.19 90.6657 34.1819 90.6317 34.1819 90.5949V90.5482C34.1789 90.5243 34.1736 90.5005 34.1683 90.4762C34.1596 90.4371 34.1508 90.3969 34.1508 90.3537V90.3226C33.7971 87.8854 34.1462 85.036 34.378 83.1439C34.4725 82.3729 34.5475 81.7608 34.5475 81.4004C34.5475 80.1558 34.9986 77.2466 38.0712 76.3287C38.8724 76.0954 39.5803 75.9865 40.187 75.9865H41.0427C41.0738 76.002 41.1049 76.002 41.136 76.002H41.1749C41.2052 76.0054 41.2325 76.0116 41.2589 76.0177C41.2935 76.0256 41.3263 76.0331 41.3616 76.0331H41.4161C41.4472 76.0487 41.4705 76.0487 41.5016 76.0487H41.5483C41.5639 76.0487 41.5775 76.0526 41.5911 76.0565C41.6047 76.0604 41.6183 76.0642 41.6339 76.0642H41.6572C41.7117 76.072 41.7661 76.0876 41.8206 76.1031H41.8595C41.8672 76.1057 41.875 76.1092 41.8828 76.1126C41.8984 76.1196 41.9139 76.1265 41.9295 76.1265C41.945 76.142 41.9528 76.142 41.9684 76.142C41.9761 76.1446 41.9839 76.1481 41.9917 76.1515C42.0073 76.1585 42.0228 76.1654 42.0384 76.1654H42.0617C42.0812 76.1731 42.1026 76.1809 42.124 76.1887C42.1453 76.1965 42.1667 76.2043 42.1862 76.212H42.2173C42.2209 76.2139 42.2251 76.2161 42.2294 76.2185C42.2434 76.2263 42.2598 76.2354 42.2717 76.2354C42.2795 76.2509 42.3028 76.2509 42.3028 76.2509C42.3131 76.2543 42.3218 76.2593 42.3297 76.2637C42.3398 76.2694 42.3486 76.2743 42.3573 76.2743H42.3806C42.3936 76.2808 42.4066 76.2859 42.419 76.2908C42.4364 76.2977 42.4526 76.3041 42.4662 76.3132C42.4818 76.3287 42.4818 76.3287 42.4973 76.3287C42.5051 76.3287 42.5109 76.3326 42.5168 76.3365C42.5226 76.3404 42.5284 76.3443 42.5362 76.3443C42.5518 76.3598 42.5673 76.3598 42.5673 76.3598C42.5751 76.3754 42.5984 76.3754 42.5984 76.3754C42.614 76.3909 42.614 76.391 42.6295 76.391C42.6451 76.391 42.6684 76.4065 42.6684 76.4065C42.9832 76.2892 43.3029 76.1768 43.6198 76.0655C43.7022 76.0365 43.7844 76.0076 43.8664 75.9787C43.9908 75.8231 44.1153 75.6675 44.2397 75.5042C44.2903 75.4381 44.3409 75.3739 44.3914 75.3097C44.442 75.2455 44.4925 75.1814 44.5431 75.1152C44.5539 75.0938 44.5683 75.076 44.5839 75.0568C44.5909 75.0482 44.5981 75.0393 44.6053 75.0297V75.0141C44.6403 74.9674 44.6773 74.9188 44.7142 74.8702C44.7512 74.8216 44.7881 74.773 44.8231 74.7263C44.8465 74.703 44.862 74.6796 44.8776 74.6563C44.8854 74.6407 44.9009 74.6252 44.9009 74.6252C44.9359 74.5785 44.9709 74.5299 45.0059 74.4813C45.0409 74.4327 45.076 74.384 45.111 74.3374C45.1187 74.3257 45.1285 74.3121 45.1382 74.2985C45.1479 74.2849 45.1576 74.2713 45.1654 74.2596C45.2432 74.1585 45.3132 74.0573 45.3832 73.9562C45.3863 73.95 45.3919 73.9438 45.3975 73.9375C45.4059 73.9282 45.4143 73.9189 45.4143 73.9095V73.894C45.4493 73.8395 45.4863 73.787 45.5232 73.7345C45.5602 73.682 45.5971 73.6295 45.6321 73.5751C45.6352 73.5689 45.6395 73.564 45.6435 73.5593C45.6498 73.5522 45.6555 73.5456 45.6555 73.5362C45.7333 73.4273 45.811 73.3106 45.881 73.2017C45.8966 73.2017 45.8966 73.1861 45.8966 73.1861C45.9355 73.1278 45.9724 73.0695 46.0094 73.0111C46.0463 72.9528 46.0833 72.8944 46.1222 72.8361C46.1526 72.7875 46.1829 72.7401 46.2128 72.6934C46.2595 72.6205 46.3051 72.5494 46.3478 72.4783C46.3983 72.3966 46.4489 72.313 46.4995 72.2293C46.55 72.1457 46.6006 72.0621 46.6511 71.9804C46.69 71.9026 46.7367 71.8249 46.7834 71.7471C46.7912 71.7393 46.8067 71.7159 46.8067 71.7159C46.9934 71.397 47.1645 71.0937 47.3201 70.7981C47.6779 70.1447 47.958 69.5612 48.1758 69.0867C47.7713 68.8845 47.4135 68.5889 47.149 68.2233C46.4178 67.2121 46.4333 65.7263 47.1801 64.7307C46.3555 63.8283 45.8344 62.6382 45.7333 61.4092C45.7099 61.2147 45.7099 61.1758 45.7099 60.818C45.7099 60.4602 45.5388 60.1257 45.2432 59.9234C44.0375 59.0911 43.2518 57.7065 43.2518 56.1352C43.2518 55.4429 43.4074 54.7895 43.6797 54.2061C43.7263 54.1127 43.7186 54.0116 43.6641 53.9261C42.824 52.5726 43.3763 50.6901 44.5509 49.6089C45.7255 48.5276 47.3512 48.0998 48.9303 47.8742C49.1559 47.8353 49.3737 47.7342 49.5293 47.5553C50.1671 46.8319 51.1006 46.3729 52.1429 46.3729C52.8508 46.3729 53.5042 46.583 54.0565 46.9486C54.3286 46.847 54.5966 46.737 54.8636 46.6273C55.1079 46.527 55.3514 46.427 55.5966 46.334C55.6453 46.3219 55.6893 46.3049 55.7359 46.287C55.7488 46.282 55.762 46.2769 55.7756 46.2718C55.7911 46.2563 55.7989 46.2563 55.8144 46.2563C55.8417 46.2485 55.867 46.2388 55.8922 46.229C55.9175 46.2193 55.9428 46.2096 55.97 46.2018C55.9856 46.1863 56.0089 46.1862 56.0245 46.1862L56.1645 46.1396C56.1723 46.137 56.18 46.1335 56.1878 46.1301C56.2034 46.1232 56.2189 46.1162 56.2345 46.1162C56.2416 46.1134 56.249 46.1103 56.2566 46.1071C56.2902 46.0929 56.3272 46.0773 56.359 46.0773C56.3704 46.0745 56.3807 46.0706 56.3908 46.0668C56.4082 46.0603 56.4248 46.054 56.4445 46.054C56.4502 46.0517 56.4557 46.0495 56.4611 46.0473C56.4927 46.0342 56.5202 46.0229 56.5534 46.0229C56.5625 46.0206 56.5722 46.0177 56.5822 46.0147C56.6066 46.0074 56.6325 45.9996 56.6545 45.9996C56.6649 45.997 56.6753 45.9935 56.6857 45.9901C56.7064 45.9831 56.7271 45.9762 56.7479 45.9762C56.7645 45.9735 56.7802 45.9697 56.7955 45.966C56.8233 45.9593 56.8501 45.9529 56.8801 45.9529C56.9035 45.9373 56.9268 45.9373 56.9501 45.9373C56.9746 45.9346 56.9981 45.931 57.0213 45.9273C57.0645 45.9206 57.1068 45.914 57.1524 45.914C57.1991 45.8984 57.2535 45.8984 57.308 45.8984H58.1714C58.2025 45.914 58.2336 45.914 58.2647 45.914C58.2803 45.9296 58.3036 45.9296 58.327 45.9296C58.3373 45.9321 58.3477 45.9356 58.3581 45.9391C58.3788 45.946 58.3996 45.9529 58.4203 45.9529C58.4437 45.9684 58.4592 45.9684 58.4825 45.9684C58.5061 45.9752 58.5282 45.9804 58.5494 45.9855C58.5773 45.9922 58.6038 45.9985 58.6303 46.0073C58.6381 46.0099 58.6459 46.0134 58.6537 46.0168C58.6692 46.0238 58.6848 46.0307 58.7003 46.0307C58.7315 46.0385 58.7548 46.0462 58.7781 46.054C58.7846 46.0562 58.7916 46.0589 58.7988 46.0617C58.818 46.0692 58.839 46.0773 58.8559 46.0773C58.8637 46.0799 58.8715 46.0834 58.8793 46.0869C58.8948 46.0938 58.9104 46.1007 58.9259 46.1007C58.9389 46.1039 58.9505 46.1099 58.9619 46.1157C58.9779 46.1239 58.9934 46.1318 59.0115 46.1318C59.0203 46.1347 59.028 46.1388 59.0354 46.1426C59.0477 46.1491 59.0592 46.1551 59.0737 46.1551C59.0867 46.1584 59.0983 46.1643 59.1097 46.1702C59.1257 46.1783 59.1412 46.1862 59.1593 46.1862C59.1685 46.1893 59.1777 46.1936 59.1864 46.1977C59.1998 46.2039 59.2121 46.2096 59.2215 46.2096C59.2371 46.2174 59.2507 46.2232 59.2643 46.229C59.2779 46.2349 59.2915 46.2407 59.3071 46.2485C59.3304 46.2563 59.3304 46.2563 59.3615 46.2718L59.3615 46.2718L59.4549 46.3185C59.4627 46.3263 59.4782 46.3418 59.4938 46.3418C59.5327 46.3652 59.5638 46.3807 59.5949 46.3963H59.6105C59.7816 46.4896 59.9372 46.5907 60.0927 46.6996C60.1122 46.7113 60.1297 46.7249 60.1472 46.7385C60.1647 46.7522 60.1822 46.7658 60.2016 46.7774L60.2172 46.793C60.2263 46.7998 60.236 46.8066 60.246 46.8136C60.2703 46.8306 60.2963 46.8487 60.3183 46.8708L60.3339 46.8863C60.3461 46.8985 60.3595 46.9095 60.3731 46.9208C60.3943 46.9382 60.4161 46.956 60.435 46.9797C60.4506 46.9952 60.4681 47.0108 60.4856 47.0263C60.5031 47.0419 60.5206 47.0575 60.5361 47.073C60.7928 47.3142 61.0184 47.5709 61.2206 47.8587C61.3295 48.0142 61.4307 48.1776 61.5162 48.3487C62.0296 48.162 62.5819 48.0687 63.1264 48.0687H63.5231C63.5698 48.0843 63.6087 48.0843 63.6554 48.0843H63.7176C63.7371 48.0843 63.7565 48.0881 63.7759 48.092C63.7954 48.0959 63.8148 48.0998 63.8343 48.0998C63.8576 48.1154 63.881 48.1154 63.9043 48.1154C63.9183 48.1182 63.9313 48.122 63.9441 48.1257C63.9666 48.1323 63.9883 48.1387 64.0132 48.1387C64.0246 48.1416 64.035 48.1455 64.0451 48.1493C64.0625 48.1558 64.0791 48.162 64.0988 48.162C64.1091 48.1646 64.1195 48.1681 64.1299 48.1715C64.1506 48.1785 64.1714 48.1854 64.1921 48.1854C64.2082 48.1886 64.223 48.1945 64.2375 48.2003C64.2581 48.2085 64.2782 48.2165 64.301 48.2165C64.3088 48.2191 64.3166 48.2225 64.3243 48.226C64.3399 48.2329 64.3555 48.2398 64.371 48.2398C64.4021 48.2515 64.4313 48.2612 64.4605 48.2709C64.4896 48.2807 64.5188 48.2904 64.5499 48.3021C65.9812 48.8155 67.0936 50.1301 67.3736 51.6313C67.449 52.0409 67.4716 52.474 67.4942 52.906C67.5415 53.8114 67.5885 54.7119 68.1204 55.3807C69.0616 55.4662 70.4151 55.7152 72.0097 56.3841C72.0134 56.386 72.0175 56.3882 72.0218 56.3906C72.0359 56.3984 72.0523 56.4075 72.0642 56.4075H72.0875C73.9466 56.5086 75.479 57.971 75.6735 59.8145C75.8738 60.1661 76.0411 60.4975 76.1878 60.7881C76.343 61.0955 76.4752 61.3573 76.5991 61.5492C77.2448 62.5449 77.2448 62.6771 77.2448 62.6771C77.3459 64.1939 77.6182 66.1075 77.8671 67.7566C78.05 68.9684 78.5605 69.5879 79.056 70.1893C79.2349 70.4063 79.4118 70.621 79.5706 70.8603C79.7412 71.114 80.1645 71.8627 80.7361 72.8736C82.1976 75.4584 84.6285 79.7579 86.2836 81.8827C88.5939 84.8386 91.4487 92.3917 91.9465 93.9475C92.3744 95.2699 92.8411 97.2145 91.0986 98.6925C91.052 98.7392 91.0053 98.7781 90.9509 98.8169C90.9236 98.8364 90.8983 98.8558 90.8731 98.8753C90.8478 98.8947 90.8225 98.9142 90.7953 98.9336H90.7797C90.7525 98.9531 90.7253 98.9706 90.698 98.9881C90.6708 99.0056 90.6436 99.0231 90.6164 99.0425C90.6008 99.0581 90.5853 99.0581 90.5853 99.0581C90.5308 99.097 90.4764 99.1281 90.4219 99.1592H90.4063C90.3752 99.1748 90.346 99.1923 90.3169 99.2098C90.2877 99.2273 90.2585 99.2448 90.2274 99.2603L90.3441 99.4081L90.3286 99.517C90.3208 99.5248 90.3052 99.5404 90.2897 99.5404L90.2896 99.5404C90.2663 99.556 90.243 99.5715 90.2119 99.587C90.2197 99.7115 90.2197 99.8282 90.1963 99.9371V99.976V100.007V100.038C90.1808 100.046 90.1808 100.069 90.1808 100.069C90.1652 100.085 90.1652 100.1 90.1652 100.1C90.1496 100.116 90.1496 100.132 90.1496 100.132C90.1496 100.147 90.1341 100.163 90.1341 100.163L90.1108 100.186L90.0874 100.209L90.0641 100.233C89.9785 100.318 89.8463 100.388 89.6596 100.45C89.6362 100.466 89.6207 100.466 89.5974 100.466C89.574 100.482 89.5585 100.482 89.5351 100.482H89.5196C89.4962 100.497 89.4807 100.497 89.4573 100.497H89.4418C89.4184 100.513 89.4029 100.513 89.3796 100.513H89.364C89.3484 100.528 89.3251 100.528 89.3018 100.528H88.1583C88.0183 100.544 87.8705 100.544 87.7071 100.544C85.1526 100.583 81.3853 98.515 79.0185 97.2159C78.5674 96.9682 78.1672 96.7485 77.836 96.5767C77.8204 96.5689 77.8029 96.5592 77.7854 96.5494C77.7679 96.5397 77.7504 96.53 77.7348 96.5222C77.7232 96.5145 77.7095 96.5086 77.6959 96.5028C77.6823 96.497 77.6687 96.4911 77.657 96.4833C77.6493 96.4678 77.6337 96.4678 77.6337 96.4678C77.622 96.46 77.6084 96.4542 77.5948 96.4483C77.5812 96.4425 77.5676 96.4367 77.5559 96.4289H77.5326C77.5277 96.4256 77.5232 96.4224 77.5189 96.4193C77.5024 96.4075 77.4888 96.3978 77.4704 96.3978C77.4626 96.3822 77.4392 96.3822 77.4392 96.3822C77.4237 96.3667 77.4159 96.3667 77.4003 96.3667C77.3848 96.3589 77.3615 96.3433 77.3459 96.3433H77.3303C77.3148 96.3278 77.2914 96.3122 77.2681 96.3122H77.2526C77.2433 96.3091 77.2341 96.3049 77.2254 96.3008C77.212 96.2946 77.1997 96.2889 77.1903 96.2889C77.1815 96.2859 77.1739 96.2819 77.1664 96.278C77.1542 96.2716 77.1426 96.2655 77.1281 96.2655H77.1125C77.1059 96.2629 77.0994 96.2602 77.0931 96.2576C77.063 96.2451 77.0372 96.2344 77.0114 96.2344C76.7936 96.1877 76.568 96.11 76.3424 96.0166C76.2258 95.9699 76.1091 95.9155 76.0002 95.861C75.9691 95.8455 75.936 95.828 75.9029 95.8105C75.8699 95.793 75.8368 95.7755 75.8057 95.7599L75.8056 95.7598C75.6189 95.651 75.4323 95.5421 75.2612 95.4254L75.0979 95.3088C74.7712 95.0754 74.5067 94.842 74.3355 94.6631C74.3197 94.642 74.3003 94.6245 74.2822 94.6081C74.2736 94.6004 74.2653 94.5928 74.2578 94.5853C73.8066 94.1808 73.1921 94.2042 73.5888 95.6277C73.9544 96.9578 73.861 101.197 73.6666 106.199V106.23C73.664 106.3 73.6605 106.37 73.6571 106.44C73.6502 106.58 73.6432 106.72 73.6432 106.86V106.891C73.6406 106.959 73.6372 107.026 73.6337 107.093C73.6268 107.228 73.6199 107.363 73.6199 107.498V107.584C73.6173 107.651 73.6139 107.718 73.6104 107.786C73.6035 107.921 73.5966 108.055 73.5966 108.19V108.214C73.5577 109.225 73.5343 110.057 73.5188 110.749V111.909C73.5266 114.102 73.6899 114.157 73.6899 114.157C73.6964 114.176 73.7015 114.194 73.7065 114.211C73.7133 114.236 73.7197 114.258 73.7288 114.281V114.304C73.7318 114.316 73.737 114.329 73.7423 114.342C73.751 114.364 73.7599 114.386 73.7599 114.405V114.444C73.7618 114.45 73.764 114.456 73.7664 114.462C73.7742 114.482 73.7833 114.506 73.7833 114.53C73.7988 114.545 73.7988 114.561 73.7988 114.577C73.8017 114.588 73.8056 114.598 73.8094 114.608C73.8159 114.626 73.8221 114.642 73.8221 114.662C73.8377 114.678 73.8377 114.701 73.8377 114.717C73.8406 114.728 73.8445 114.738 73.8483 114.748C73.8548 114.766 73.861 114.782 73.861 114.802C73.8766 114.826 73.8766 114.841 73.8766 114.864C73.8766 114.875 73.8796 114.886 73.883 114.898ZM70.1195 65.0807C70.2673 65.1741 70.4073 65.1818 70.5318 65.1429H70.5473L70.6251 65.1585C70.734 65.1274 70.8351 65.0496 70.9362 64.964C70.9518 64.9485 70.9751 64.9251 70.9751 64.8785V64.2484V64.0228C70.4345 64.003 69.8212 63.9106 69.2916 63.8308C69.1964 63.8164 69.1038 63.8025 69.0149 63.7895C69.0761 63.86 69.1344 63.9306 69.1899 63.9978C69.2261 64.0416 69.2611 64.084 69.2949 64.1239C69.3263 64.1657 69.3576 64.2044 69.3876 64.2413C69.4245 64.2869 69.4593 64.3299 69.4894 64.3729C69.645 64.5751 69.7383 64.7073 69.7383 64.7073C69.7461 64.719 69.7558 64.7307 69.7656 64.7424C69.7753 64.754 69.785 64.7657 69.7928 64.7773C69.8083 64.7773 69.8083 64.7929 69.8083 64.7929C69.8161 64.8085 69.8317 64.824 69.8472 64.8396L69.8628 64.8551L69.8629 64.8552C69.9017 64.8941 69.9406 64.9329 69.9717 64.9718C69.9795 64.9796 69.9872 64.9854 69.995 64.9913C70.0028 64.9971 70.0106 65.0029 70.0184 65.0107C70.0339 65.0224 70.0514 65.034 70.0689 65.0457C70.0864 65.0574 70.1039 65.069 70.1195 65.0807ZM60.6217 74.5474C60.6606 74.6018 60.7073 74.6796 60.7617 74.7808L60.6761 74.7963L60.575 74.7808C60.9173 74.8352 61.4462 74.913 62.6597 74.7341C65.0034 74.3984 65.5624 72.7216 66.0294 71.3208C66.1359 71.0014 66.2376 70.6963 66.3546 70.4247C66.6346 69.7791 66.8135 69.1568 66.9302 68.55C67.1791 67.251 67.1091 66.0219 67.0002 64.7462C66.7591 64.474 66.588 64.2795 66.588 64.2795C66.588 64.2795 65.8645 64.0462 65.4367 63.5172C65.3356 64.3884 65.1333 65.5786 64.9078 66.8231C64.8922 66.8543 64.8922 66.8854 64.8922 66.9165C64.8766 66.9943 64.863 67.0701 64.8494 67.146C64.8358 67.2218 64.8222 67.2976 64.8066 67.3754C64.7911 67.4065 64.7911 67.4376 64.7911 67.4687V67.4688C64.7755 67.5427 64.7619 67.6166 64.7483 67.6904C64.7347 67.7644 64.7211 67.8383 64.7055 67.9122C64.7055 67.9277 64.7016 67.9433 64.6977 67.9588C64.6938 67.9744 64.6899 67.99 64.6899 68.0055C64.6744 68.0794 64.6608 68.1552 64.6472 68.2311C64.6336 68.3069 64.6199 68.3828 64.6044 68.4567C64.5849 68.55 64.5674 68.6453 64.5499 68.7406C64.5324 68.8359 64.5149 68.9312 64.4955 69.0245L64.4488 69.2812C64.4063 69.4892 64.3666 69.6915 64.328 69.888C64.3032 70.0148 64.2788 70.1393 64.2543 70.2613C64.251 70.2812 64.2449 70.3011 64.2389 70.3204C64.2309 70.3464 64.2232 70.3713 64.2232 70.3936V70.4325C64.2204 70.4439 64.2165 70.4542 64.2127 70.4643C64.2061 70.4817 64.1999 70.4983 64.1999 70.518C64.1843 70.5258 64.1843 70.5414 64.1843 70.5569V70.5958C64.1688 70.6114 64.1688 70.6269 64.1688 70.6425C64.1532 70.658 64.1532 70.6658 64.1532 70.6814V70.7047C64.1502 70.7167 64.1449 70.7275 64.1395 70.7385C64.1309 70.7561 64.1221 70.7741 64.1221 70.7981L64.0754 70.9147V70.9303L64.0288 71.0236V71.047C64.0262 71.0522 64.0227 71.0574 64.0193 71.0625C64.0123 71.0729 64.0054 71.0833 64.0054 71.0937L63.9821 71.1403V71.1559C63.881 71.3426 63.7565 71.5137 63.6243 71.6693C63.6009 71.6926 63.5795 71.7159 63.5582 71.7393C63.5368 71.7626 63.5154 71.786 63.492 71.8093C63.4454 71.856 63.3987 71.9026 63.352 71.9415C63.3442 71.9493 63.3345 71.9571 63.3248 71.9649C63.3151 71.9726 63.3053 71.9804 63.2976 71.9882C62.5275 72.875 61.5162 73.0228 61.0106 73.0383H60.9251C60.8473 73.0539 60.8084 73.0539 60.8084 73.0539H60.6839V73.1317V73.2484V73.3417V73.614C60.6839 73.6373 60.68 73.6626 60.6761 73.6879C60.6722 73.7131 60.6684 73.7384 60.6684 73.7617V74.1273C60.6528 74.2285 60.6372 74.3374 60.6217 74.4463V74.5474ZM65.8388 79.5611C64.3975 79.2724 62.9086 78.7401 62.9086 78.7401C62.9086 78.7401 62.2397 77.48 61.6174 76.3209C61.665 76.271 61.9214 76.2197 62.2879 76.1464C63.1771 75.9686 64.7145 75.6612 65.4912 74.9286C66.1697 74.2932 66.4276 73.3446 66.6798 72.4167C66.7457 72.1745 66.8111 71.9338 66.8835 71.7004C67.1247 70.9303 67.3503 70.1524 67.5525 69.3668C67.6381 69.0401 67.7159 68.7134 67.7937 68.3867V68.3633C67.8637 68.0444 67.9337 67.7255 67.9959 67.3988V67.3521C68.0581 67.0332 68.1126 66.722 68.1593 66.4031V66.3409C68.1748 66.2475 68.1904 66.1464 68.1981 66.0531C68.2198 66.087 68.2451 66.1259 68.2735 66.1697C68.3168 66.2362 68.3674 66.314 68.4237 66.4031L68.445 66.4361C68.5107 66.5383 68.5878 66.6581 68.6649 66.7843L68.7582 66.9243C68.7926 66.9783 68.8278 67.0337 68.8637 67.0903C69.0552 67.392 69.2679 67.7271 69.4972 68.0677C69.5166 68.095 69.5361 68.1241 69.5555 68.1533C69.575 68.1825 69.5944 68.2116 69.6139 68.2389L69.8472 68.5889C69.925 68.7056 70.0028 68.8223 70.0806 68.9312C70.5473 69.6079 70.9907 70.2224 71.2941 70.518C71.5184 70.7423 71.8581 71.0051 72.2672 71.3216L72.2742 71.327C72.3261 71.366 72.3781 71.4074 72.4314 71.4498C72.4738 71.4836 72.5172 71.5181 72.562 71.5526C72.5961 71.5801 72.6305 71.6078 72.6654 71.6359C72.8376 71.7742 73.0187 71.9198 73.1998 72.0815C73.2465 72.1243 73.2951 72.1671 73.3437 72.2098C73.3923 72.2526 73.441 72.2954 73.4877 72.3382L73.511 72.3616C73.6744 72.5094 73.8455 72.6727 74.0088 72.8361C74.6934 73.5284 75.409 74.3918 76.0313 75.4964C76.8403 76.9199 77.6259 78.3512 78.2793 79.6424C78.9716 81.0193 79.5162 82.2405 79.7729 83.1429C79.8809 83.5183 80.0025 84.0264 80.1467 84.6289C80.2206 84.9376 80.3004 85.2711 80.3874 85.6243C80.0918 85.4376 79.7962 85.2431 79.5084 85.0409C79.5084 85.0409 78.785 85.1342 78.4427 84.7064C78.1082 84.2708 76.6069 83.3062 76.6069 83.3062C76.6069 83.3062 75.1601 81.5171 74.3822 81.1826C74.1244 81.0707 73.79 80.8654 73.4228 80.6402C72.6932 80.1925 71.8346 79.6657 71.1929 79.6347C70.2284 79.588 68.7738 79.6347 68.7738 79.6347C68.7738 79.6347 67.2725 79.8291 65.8256 79.5413L65.8388 79.5611Z" fill="#101619"/>
<path d="M97.0306 48.8093C96.9782 48.2853 96.8909 47.7263 96.5503 47.3246C96.2096 46.9229 95.5284 46.7569 95.1529 47.115L95.4061 47.4119C95.0393 52.1281 96.6987 55.5255 94.8297 59.8748C94.0699 61.6565 93.8341 64.6172 90.3406 65.1237C87.4061 65.5517 87.7555 64.7919 86.6376 65.3508C86.4192 65.4556 86.2096 65.6216 86.1398 65.8486C86.0437 66.1368 86.1922 66.4513 86.3756 66.7045C87.214 67.8574 87.8603 68.1107 88.8384 67.0801C89.0393 66.8705 92.2184 66.6434 93.5546 65.3858C94.5939 64.4076 94.821 62.8268 95.2489 61.4556C96.5328 57.3683 97.4673 53.0801 97.0393 48.8093H97.0306Z" fill="#046C7C"/>
<path d="M95.5196 57.5944C95.607 57.7778 95.6943 57.9525 95.7904 58.1359C95.8777 58.3019 95.9651 58.4591 96.0524 58.625C96.8821 55.411 97.3624 52.1097 97.0306 48.8171C96.9782 48.2931 96.8908 47.7342 96.5502 47.3324C96.2096 46.9307 95.5284 46.7647 95.1528 47.1228L95.4061 47.4197C95.1092 51.28 96.1572 54.2582 95.5284 57.5944H95.5196Z" fill="#00144A"/>
<path d="M92.8559 37.8564C91.738 34.494 87.0829 31.3761 83.4847 33.4983C79.9738 35.5682 74.6637 36.1796 73.8689 46.7123C73.8165 46.8608 73.7641 47.018 73.7292 47.1665C73.4672 46.4066 72.62 44.5114 70.8122 45.4634C68.5764 46.6424 70.6986 51.5333 71.9912 52.4765C72.3056 52.7036 72.9257 53.4372 73.7903 54.4154C73.9039 57.4896 74.0087 60.1359 74.0087 60.1359L74.7074 69.4285C74.7074 69.4285 83.9738 73.7953 85.2751 73.7953C86.5764 73.7953 87.7729 63.7866 87.8602 63.0704H88.0174C88.0174 63.0704 88.1048 63.0704 88.2532 63.0355C88.8733 63.018 90.1048 62.8433 91.0393 61.7604C91.607 61.2626 92.0786 60.5813 92.262 59.6556C92.8471 56.6512 93.738 52.1097 93.7904 50.459C93.8515 48.8084 93.965 41.2101 92.8471 37.8477H92.8559V37.8564Z" fill="#FFAB92"/>
<path d="M78.6639 71.1569C78.1224 70.3534 77.642 69.515 77.2665 68.6154C76.9695 67.8993 76.725 67.1045 76.7774 66.3185C76.8298 65.5674 77.2316 64.7726 78.0263 64.5979C78.5503 64.4757 79.0831 64.5805 79.6071 64.5455C79.7992 64.5455 80.0176 64.5019 80.1661 64.3796C80.3495 64.2311 80.5241 63.9778 80.4892 63.7246C80.4543 63.4888 80.2796 63.2704 80.1224 63.1045C79.9215 62.8774 79.6857 62.6853 79.4674 62.4757C78.9433 61.9604 80.1049 58.8774 79.5984 58.3447C78.5853 57.2617 77.38 58.3097 76.5503 57.0783C76.1573 56.5019 74.3931 56.2573 74.0088 55.6809C73.9477 55.5936 73.8866 55.4975 73.8254 55.4102C73.9215 58.039 74.0088 60.1438 74.0088 60.1438L74.7075 69.4364C74.7075 69.4364 76.5678 70.3185 78.7425 71.2792C78.7163 71.2355 78.6901 71.2006 78.6551 71.1569H78.6639Z" fill="#FF7F4C"/>
<path d="M92.8559 37.8564C91.738 34.494 87.083 31.3761 83.4848 33.4983C79.9738 35.5682 74.6638 36.1796 73.869 46.7123C73.8166 46.8608 73.7642 47.018 73.7293 47.1665C73.4673 46.4066 72.6201 44.5114 70.8123 45.4634C69.4847 46.1621 69.8952 48.5726 70.5502 50.2844C72.3843 51.2189 73.8079 52.1534 75.2926 53.577C76.8123 55.0267 78.1922 56.6163 79.5459 58.2232C79.5808 58.2669 79.5983 58.3018 79.607 58.3455C80.4367 59.6381 81.3188 60.9045 82.2708 62.1184C83.7555 63.9962 85.3974 65.7691 87.2577 67.28C87.5983 65.2014 87.8341 63.3674 87.869 63.0791H88.0262C88.0262 63.0791 88.1136 63.0791 88.2621 63.0442C88.8821 63.0267 90.1136 62.8521 91.0481 61.7691C91.6158 61.2713 92.0874 60.5901 92.2708 59.6643C92.8559 56.6599 93.7468 52.1184 93.7992 50.4678C93.8603 48.8171 93.9739 41.2189 92.8559 37.8564Z" fill="#FF7F4C"/>
<path d="M91.607 60.1186C90.6812 59.8828 89.6943 59.8566 88.7423 59.8915C86.8035 59.9526 84.8122 60.3631 83.1091 61.3238C83.1441 61.9002 83.5109 62.4417 83.8777 62.8697C84.2445 63.3064 84.6725 63.6994 85.1615 64.0051C85.7118 64.3457 86.2882 64.6513 86.8821 64.9046C87.1091 65.0007 87.3449 65.0968 87.5895 65.1754C87.7467 64.0749 87.8515 63.2714 87.869 63.088H88.0262C88.0262 63.088 88.1135 63.088 88.262 63.0531C88.8821 63.0356 90.1135 62.8609 91.048 61.778C91.4847 61.3937 91.8602 60.9046 92.096 60.2758C91.9388 60.2234 91.7816 60.171 91.6157 60.1273V60.1099L91.607 60.1186Z" fill="#A93E00"/>
<mask id="mask0_4413_116646" style="mask-type:alpha" maskUnits="userSpaceOnUse" x="55" y="46" width="72" height="70">
<rect x="55.179" y="46.0977" width="71.5" height="69" fill="#222F3B"/>
</mask>
<g mask="url(#mask0_4413_116646)">
<path d="M74.4104 64.1953C74.4104 64.1953 58.6375 68.8329 58.9082 70.6844C59.1702 72.5359 60.4978 93.8722 63.2838 100.23C66.0698 106.588 63.6855 110.833 63.2838 114.405C62.882 117.986 62.5152 122.388 63.441 122.946L104.044 122.929C104.044 122.929 104.279 115.994 103.258 112.946C103.258 112.946 102.865 112.824 103.162 105.715C103.459 98.6058 103.677 92.2215 103.162 90.3875C102.646 88.5534 103.52 88.6233 104.07 89.2172C104.62 89.8023 106.017 90.8329 107.336 91.1211C108.655 91.4181 115.22 96.1642 119.622 96.0943C124.024 96.0245 123.031 95.3744 123.616 93.584C124.201 91.7849 115.109 80.3438 115.109 80.3438C115.109 80.3438 113.214 79.4093 111.397 78.2215C109.581 77.0338 110.524 77.7674 110.044 77.68C109.563 77.5927 109.52 77.5228 109.336 77.2958C109.153 77.0687 108.62 76.6495 108.14 76.3001C107.659 75.9508 106.856 75.2783 106.306 74.6757C105.755 74.0731 104.926 73.2434 104.393 73.0163C103.45 72.6058 101.686 71.191 100.515 71.1298C99.345 71.0687 97.572 71.1298 97.572 71.1298C97.572 71.1298 95.7467 71.3656 93.9825 71.0163C92.2183 70.6669 90.393 70.0206 90.393 70.0206C90.393 70.0206 87.9214 65.2957 87.6332 64.8765C86.8995 67.4006 87.869 68.5447 85.2751 69.8372C82.6899 71.1298 74.4104 64.1953 74.4104 64.1953Z" fill="#3B5B7C"/>
</g>
<path d="M59.8951 81.3307C60.5502 79.2958 61.5109 77.3569 62.8209 75.6626C63.5458 74.7193 64.3667 73.8547 65.275 73.0949C66.2794 72.2477 67.3711 71.5578 68.524 70.9464C69.7467 70.3001 71.0043 69.7412 72.2532 69.156C73.4323 68.6058 74.6462 68.073 75.703 67.3132C76.1746 66.9726 76.5938 66.5971 76.9869 66.1953C75.4847 65.1036 74.4104 64.1953 74.4104 64.1953C74.4104 64.1953 58.6375 68.8329 58.9082 70.6844C59.0218 71.4879 59.3362 75.9857 59.8864 81.322H59.8951V81.3307Z" fill="#00144A"/>
<mask id="mask1_4413_116646" style="mask-type:alpha" maskUnits="userSpaceOnUse" x="62" y="96" width="19" height="20">
<rect x="62.179" y="96.5977" width="18.5" height="18.5" fill="#222F3B"/>
</mask>
<g mask="url(#mask1_4413_116646)">
<path d="M68.166 111.261C68.8385 110.816 69.5721 110.475 70.3232 110.204C70.9084 109.995 71.5197 109.811 72.1311 109.698C72.6202 109.61 73.118 109.593 73.6158 109.567C74.0962 109.54 74.594 109.505 75.0569 109.383C75.3451 109.305 75.5984 109.2 75.773 108.999C74.9608 108.606 74.0787 108.388 73.2053 108.178C72.2359 107.942 71.2752 107.689 70.3844 107.235C69.0132 106.536 67.8866 105.488 66.9433 104.283C66.0001 103.078 66.035 103.043 65.5896 102.414C65.1355 101.759 64.6726 101.112 64.2097 100.466C63.5896 99.5841 62.9783 98.6845 62.4368 97.75C62.6988 98.7194 62.9783 99.5666 63.2752 100.239C66.0612 106.597 63.6769 110.842 63.2752 114.414C62.8735 117.995 62.4804 122.169 63.4062 122.728C63.4499 122.754 63.5721 122.781 63.7643 122.798C63.7643 122.623 63.7643 122.449 63.7992 122.283C63.8604 121.82 64.0787 121.409 64.3844 121.06C64.6638 120.737 64.9957 120.475 65.2403 120.126C65.4499 119.82 65.6333 119.497 65.808 119.174C66.5066 117.837 67.1442 116.265 68.5852 115.567C69.3625 115.191 70.2796 115.104 71.1355 115.086C72.035 115.069 72.9346 115.156 73.8342 115.243C75.4499 115.392 77.2315 115.593 78.7425 114.894C78.4281 114.379 77.7643 114.117 77.1879 113.968C76.4717 113.776 75.7206 113.706 74.987 113.654C74.6639 113.628 74.3407 113.61 74.0263 113.575C73.6682 113.54 73.3014 113.471 72.9521 113.401C72.07 113.235 71.1966 113.043 70.3407 112.772C69.5547 112.519 68.7512 112.204 68.1136 111.663C67.9739 111.549 68.035 111.331 68.166 111.243V111.261Z" fill="#00144A"/>
</g>
<path d="M85.0393 69.9185C85.1616 70.3814 85.3799 70.818 85.6332 71.2285C85.9825 71.7962 86.393 72.3115 86.8297 72.8006C87.7118 73.77 88.7511 74.687 89.9476 75.246C90.4367 75.4731 90.8908 75.5779 91.4236 75.5342C91.5633 75.5342 91.7118 75.508 91.8428 75.4469C91.8428 75.4469 91.8428 75.4294 91.8253 75.4207C91.8253 75.4207 91.7991 75.3857 91.7904 75.3857C91.7031 75.2897 91.6157 75.2111 91.5109 75.1325C91.0481 74.7657 90.5153 74.46 90.0349 74.0932C89.2664 73.508 88.6288 72.7831 87.9127 72.1456C87.7293 71.9796 87.5284 71.8399 87.3537 71.6827C87.2402 71.5866 87.1528 71.4643 87.0568 71.3508C86.821 71.0713 86.5939 70.7744 86.3581 70.4949C86.1223 70.2154 85.8777 69.936 85.5895 69.7176C85.5721 69.7176 85.5633 69.7001 85.5546 69.6914C85.4585 69.7438 85.3712 69.7875 85.2751 69.8399C85.179 69.8923 85.0393 69.9272 85.0393 69.9272V69.9185Z" fill="#00144A"/>
<g clip-path="url(#clip0_4413_116646)">
<path d="M100.83 120.399C100.935 120.46 101.057 120.504 101.17 120.504C101.616 120.504 101.991 119.962 102.279 119.648C102.454 119.465 102.638 119.272 102.873 119.168C103.083 119.072 103.319 119.028 103.546 119.028C103.773 119.028 103.886 119.054 104.044 119.107C103.974 117.019 103.782 114.521 103.266 112.967C103.266 112.967 102.873 112.845 103.17 105.735C103.214 104.635 103.258 103.561 103.301 102.504C103.275 102.565 103.249 102.626 103.223 102.687C102.62 104.058 101.895 105.377 101.275 106.74C100.576 108.268 99.9301 109.831 99.31 111.395C98.7074 112.923 98.1485 114.469 97.5284 115.989C97.2489 116.679 96.9432 117.36 96.7074 118.067C96.5502 118.539 96.4192 119.037 96.3843 119.535C97.0131 118.81 97.4673 117.823 97.9039 116.949C98.4192 115.945 98.917 114.906 99.6157 114.006C100.122 113.36 100.865 112.687 101.755 112.888C102.585 113.072 102.734 114.032 102.707 114.74C102.672 115.683 102.428 116.626 102.131 117.517C102.009 117.893 101.869 118.268 101.703 118.626C101.537 118.993 101.301 119.29 101.066 119.613C100.934 119.797 100.751 120.05 100.734 120.233V120.303C100.734 120.268 100.734 120.303 100.734 120.321C100.751 120.355 100.786 120.382 100.83 120.408V120.399Z" fill="#00144A"/>
</g>
<path d="M77.3276 72.6874C76.7861 72.6088 76.2534 72.3992 75.7643 72.1721C74.9172 71.7879 74.1399 71.29 73.4324 70.6961C73.1792 70.4865 72.9346 70.2769 72.6726 70.0935C73.249 70.7922 73.7381 71.5695 74.2709 72.2944C74.8298 73.0455 75.4412 73.8315 76.2272 74.3555C76.9172 74.8097 77.642 74.9145 78.3669 74.4603C78.8735 74.1372 79.2927 73.6743 79.6945 73.2376C80.1224 72.7748 80.5678 72.3381 81.1006 71.9975C81.6333 71.6656 82.1486 71.3162 82.594 70.8708C83.0394 70.4254 83.0482 70.3555 83.2054 70.0586C82.6027 70.5302 82.0001 70.9931 81.3538 71.4123C80.5416 71.9363 79.6595 72.4167 78.7075 72.6263C78.2534 72.7224 77.7993 72.7573 77.3364 72.6962H77.3276V72.6874Z" fill="#00144A"/>
<path d="M65.8866 67.1733C65.8866 67.1733 63.8516 65.7322 60.1136 66.8414C56.3757 67.9593 55.8254 71.5052 55.8254 73.0073C55.8254 74.5095 53.8167 84.2301 56.7687 87.5139C59.7206 90.7978 63.9215 93.1558 67.2665 91.2519C67.2665 91.2519 67.7905 90.92 68.7774 87.5751C69.7643 84.2301 72.2534 79.1733 72.2534 79.1733C72.2534 79.1733 70.1573 80.8152 64.1137 75.3654L62.2796 73.7846C62.2796 73.7846 66.8735 74.5008 66.6726 72.1427C66.4717 69.7846 65.8866 67.1558 65.8866 67.1558V67.1733Z" fill="#3B5B7C"/>
<path d="M62.4193 73.6836C62.4193 73.7447 62.2708 73.7447 62.2184 73.8059C61.6944 74.4172 61.345 75.3517 60.8647 75.998C60.1049 77.0373 59.3887 78.1115 58.6987 79.1945C58.4018 79.6661 58.1136 80.1465 57.8953 80.653C57.773 80.9325 57.6682 81.2382 57.6245 81.5439C57.738 81.4216 57.8254 81.2819 57.8953 81.1421C58.0699 80.8452 58.2097 80.5308 58.4105 80.2513C58.6725 79.8932 58.952 79.5439 59.249 79.212C59.5546 78.8714 59.8953 78.557 60.1922 78.2164C60.428 77.9543 60.6463 77.6749 60.9258 77.4565C61.0656 77.3517 61.214 77.2731 61.38 77.2207C61.5284 77.177 61.7381 77.1334 61.8778 77.2207C62.0001 77.2819 62.0175 77.4041 62.1049 77.4915C62.1311 77.5177 62.1049 77.5264 62.166 77.4915C62.2621 77.4216 62.3319 77.2993 62.4018 77.2032C62.4891 77.0897 62.5765 76.9762 62.6988 76.8976C62.9171 76.7666 63.2315 76.6618 63.476 76.8015C63.7206 76.9412 63.8603 77.2382 64.0612 77.4303C64.3494 77.7011 64.6813 77.9369 65.0044 78.1552C65.3276 78.3736 65.642 78.6094 65.9651 78.8364C66.5328 79.2295 67.1267 79.5875 67.773 79.8233C68.4717 80.0679 69.2053 80.129 69.9389 80.164C70.5678 80.1902 71.2053 80.1814 71.8167 80.0504C72.0699 79.5089 72.2359 79.1858 72.2359 79.1858C72.2359 79.1858 70.1398 80.8277 64.0961 75.3779L62.4193 73.6836Z" fill="#00144A"/>
<path d="M66.6812 72.1604C66.4803 69.8023 65.8952 67.1734 65.8952 67.1734C65.8952 67.1734 64.7423 66.3525 62.5764 66.4311H62.5502C62.5153 66.4311 62.4891 66.4311 62.4541 66.4486C62.3843 66.4486 62.3231 66.466 62.2533 66.4835C62.096 66.5097 61.9388 66.5446 61.7816 66.5708C61.3886 66.6494 61.0043 66.7455 60.6201 66.859C60.2532 66.9726 59.8864 67.0948 59.5458 67.2608C59.3974 67.3394 59.2489 67.418 59.1091 67.5141C59.048 67.5577 59.0917 67.5141 59.0393 67.5665C59.0131 67.5839 58.9956 67.6101 58.9694 67.6276C58.9519 67.6451 58.9257 67.6713 58.9083 67.6975C58.9083 67.6975 58.9083 67.7149 58.8908 67.7237C58.8908 67.7411 58.8646 67.7673 58.8559 67.7848C58.8559 67.7848 58.8384 67.8285 58.8384 67.8372V67.8547V67.8809C58.8559 67.8809 58.8908 67.9071 58.8908 67.9071C58.9607 67.942 59.048 67.9595 59.1266 67.9682C59.4934 68.0381 59.9388 68.0031 60.262 68.2215C60.4279 68.335 60.4367 68.5708 60.262 68.6756C60.0174 68.8241 59.7554 68.9376 59.4934 69.0424C58.9432 69.2783 58.3581 69.4966 57.8777 69.8634C57.5458 70.1167 57.3624 70.4136 57.3711 70.7717C58.096 70.3001 58.7074 69.6538 59.4934 69.287C60.3231 68.9027 61.2751 68.9027 62.1222 69.2433C62.8995 69.5577 63.5458 70.0992 64.096 70.7193C64.6725 71.3656 65.1616 72.0905 65.6419 72.8066C65.7816 73.0075 65.9214 73.2171 66.0611 73.418C66.4891 73.156 66.7511 72.7542 66.6987 72.1429L66.6812 72.1604Z" fill="#00144A"/>
<path d="M65.6244 90.5021C64.8733 90.3623 64.1659 90.0916 63.4672 89.7946C62.7511 89.489 62.0436 89.1483 61.3711 88.7641C60.0873 88.0217 58.9083 87.1047 57.8166 86.109C57.2663 85.6112 56.7423 85.0872 56.2183 84.5544C55.9476 84.275 55.6855 83.9955 55.4148 83.716C55.3799 83.6724 55.3362 83.6374 55.3013 83.5938C55.5021 85.192 55.9388 86.6156 56.7685 87.5326C59.7205 90.8165 63.9214 93.1746 67.2663 91.2706C67.2663 91.2706 67.4148 91.1745 67.703 90.5894H67.6594C66.9781 90.668 66.2969 90.6331 65.6244 90.5021Z" fill="#00144A"/>
<path d="M73.8777 46.5376C73.8602 46.7385 73.5895 46.7909 73.5021 46.6075C73.0917 45.7603 72.262 44.6948 70.8122 45.4634C68.5764 46.6424 70.6986 51.5333 71.9912 52.4765C73.2838 53.4197 79.5371 62.7298 88.0174 63.0791C88.0174 63.0791 91.6681 62.6687 92.262 59.6643C92.8471 56.6599 93.738 52.1184 93.7904 50.4678C93.8515 48.8171 93.965 41.2189 92.8471 37.8564C91.7292 34.494 87.0742 31.3761 83.4759 33.4983C79.9825 35.5595 74.7074 36.1708 73.8777 46.5376Z" fill="#FFAB92"/>
<path d="M92.8995 53.2615C92.7685 54.2833 92.4017 55.2178 91.9825 56.1523C91.7641 56.624 91.5371 57.0868 91.3362 57.5672C91.1353 58.0213 90.9781 58.4842 90.8209 58.9471C90.3318 60.3707 89.3886 61.5934 87.9825 62.1873C87.1703 62.5366 86.2969 62.6676 85.4148 62.6851C86.262 62.9034 87.1353 63.0606 88.0261 63.0956C88.0261 63.0956 90.2882 63.2266 91.6768 61.0868C91.8951 60.7462 92.0262 60.5017 92.1222 60.2135C92.2183 59.9253 92.2183 59.8729 92.2707 59.6545C92.8559 56.6502 93.7467 52.1087 93.7991 50.458C93.834 49.4624 93.8952 46.3095 93.6855 43.2266C93.3449 44.2571 93.2227 45.3576 93.2489 46.4667C93.2663 47.0082 93.3187 47.5497 93.3275 48.0912C93.3275 48.6676 93.3275 49.244 93.2838 49.8205C93.2052 50.9733 93.048 52.1087 92.8995 53.2528V53.2615Z" fill="#FF7F4C"/>
<path d="M87.4674 50.4658C87.4412 50.5794 87.4237 50.7016 87.4062 50.8152H87.4586C87.546 50.789 87.6246 50.7453 87.7032 50.6667C87.8167 50.5532 87.8691 50.4833 87.9477 50.3523C87.9827 50.2912 88.0176 50.2213 88.0525 50.1602C87.8604 50.2824 87.6683 50.396 87.4586 50.4833L87.4674 50.4658Z" fill="#FF7F4C"/>
<path d="M93.7119 41.5941C93.1617 41.4543 92.5591 41.5067 91.9914 41.4631C91.3538 41.4194 90.7075 41.3495 90.07 41.3845C89.2839 41.4194 88.4717 41.6203 87.8429 42.1181C87.7381 42.1967 87.6158 42.3015 87.4761 42.4063C87.8866 42.5548 88.2883 42.712 88.6726 42.9128C89.4411 43.3146 90.0787 43.8997 90.3931 44.7207C90.6813 45.4631 90.6464 46.2404 90.4106 46.9827C90.9433 47.3321 90.3931 48.4762 90.7337 49.5679C91.0219 50.5024 94.2446 48.9478 94.3844 47.0701C94.4804 45.76 96.1922 42.2316 93.7206 41.5941H93.7119Z" fill="#FF7F4C"/>
<path d="M98.2882 43.8911C98.262 43.4807 98.1834 43.0527 97.9563 42.7121C97.6856 42.3104 97.2402 42.0658 96.8996 41.7165C95.7467 40.5287 96.131 38.5986 95.8253 36.9654C95.4847 35.14 94.131 33.5418 92.3843 32.913C91.2052 32.485 89.8777 32.52 88.6987 32.9479C87.6943 31.044 85.5458 29.6903 83.3799 29.9348C82.0611 30.0833 80.8559 30.7121 79.5982 31.1837C78.9257 30.7383 78.131 30.485 77.2663 30.485C76 30.485 74.8646 31.044 74.0873 31.9261C73.31 32.8082 73.6331 32.2667 73.3537 32.3103C71.4323 32.5811 69.4497 33.1051 68.0262 34.4152C66.6026 35.7339 65.9214 38.0221 66.9519 39.6728C67.0131 39.7776 67.0218 39.8999 66.9694 40.0134C66.6375 40.7296 66.4541 41.5243 66.4541 42.3628C66.4541 44.2754 67.4148 45.961 68.8821 46.9741C69.2401 47.2187 69.4497 47.6291 69.4497 48.0571C69.4497 48.485 69.4497 48.5374 69.4759 48.7733C69.5982 50.2667 70.227 51.7165 71.2401 52.8169C70.3318 54.0309 70.3144 55.8388 71.2052 57.0702C72.096 58.3016 73.8253 58.8431 75.2576 58.354C75.3013 58.4851 75.441 58.5549 75.5633 58.5113C76.1222 58.3366 76.4628 57.7252 76.5502 57.0877C76.2707 56.8519 76 56.5899 75.738 56.3278C74.8471 55.437 74.0698 54.4588 73.1615 53.5855C72.358 52.8169 71.4585 52.0484 70.8995 51.0615C70.3406 50.0746 69.9912 48.7558 70.0087 47.568C70.6375 47.8125 71.3275 47.9523 72.0524 47.9523C72.7773 47.9523 73.9214 47.7077 74.7161 47.2798C75.0131 47.4632 75.2925 47.6728 75.572 47.8912C76.0524 48.2667 76.5327 48.651 76.9956 49.0527C77.2576 49.2798 77.5109 49.5156 77.7467 49.7689C77.8952 49.9261 78.1484 49.9086 78.2707 49.7252C78.7074 49.0702 79.0742 48.3977 79.2052 47.6379C79.441 46.2929 78.8908 44.9479 78.7074 43.6029C78.524 42.2492 78.9257 40.5811 80.227 40.1619C81.1179 39.8737 82.0524 40.2929 82.9694 40.4676C85.3362 40.9304 87.834 39.4457 88.8471 37.2973C89.0218 37.3409 89.1965 37.3846 89.3537 37.4719C90.4803 38.0309 90.5065 39.6815 91.4236 40.5462C92.5153 41.568 94.7074 41.3235 94.9956 42.9566C95.0131 43.0789 95.0218 43.2099 95.0218 43.3322C94.952 45.2187 94.0437 48.1095 93.8253 50.1794C96.1834 49.4719 98.4629 46.354 98.3144 43.8999H98.2795L98.2882 43.8911Z" fill="#340800"/>
<path d="M73.4148 38.1713C73.4934 38.1451 73.5458 38.1189 73.6506 38.0665C73.9039 37.9355 74.0873 37.7958 74.2969 37.6036C74.7074 37.2194 75.0305 36.7215 75.2227 36.215C75.4236 35.691 75.5022 35.132 75.3799 34.6167C75.3537 34.5119 75.3187 34.4159 75.2838 34.3198C74.393 34.0403 73.4934 33.822 72.5589 33.822H72.0524C70.0262 33.0185 68.2707 35.0447 67.6244 36.7652C67.4585 37.2019 67.31 37.6997 67.3537 38.1713C67.3886 38.5294 67.6419 38.7827 68.0087 38.7041C68.358 38.6342 68.6724 38.3809 68.9432 38.1626C69.2401 37.9268 69.5283 37.6648 69.8253 37.4202C69.8777 37.3766 69.9301 37.3329 69.9912 37.2892C70.0174 37.2718 70.0436 37.2543 70.0698 37.2368C70.0698 37.2368 70.0873 37.2368 70.096 37.2194C70.0174 37.2718 70.131 37.2019 70.1572 37.1844C70.393 37.0447 70.6637 36.9137 70.9432 36.9049C71.3886 36.8875 71.7554 37.2368 72.096 37.5076C72.4978 37.822 72.9257 38.1189 73.4323 38.1713H73.4148Z" fill="#450B00"/>
<path d="M88.3755 33.6999C88.3493 33.2545 88.3406 32.8003 88.3406 32.3462C87.2314 30.7654 85.3188 29.7086 83.3799 29.927C82.0698 30.0754 80.8646 30.6955 79.6244 31.1671C79.4672 31.6912 79.4672 32.2501 79.703 32.7654C79.8952 33.1846 80.1659 33.5602 80.4017 33.9619C80.655 34.3986 80.8384 34.8789 80.8646 35.3855C80.8908 35.9794 80.6899 36.4947 80.358 36.9226C80.1921 37.141 79.7467 37.4641 79.3013 37.7523C79.0305 37.927 79.1528 38.3462 79.476 38.3462C79.7991 38.3462 80.3406 38.3637 80.5851 38.4161C80.9083 38.4772 81.2227 38.5645 81.5458 38.6868C82.227 38.9488 82.8733 39.2982 83.5022 39.6562C83.9738 39.927 84.4454 40.2065 84.9432 40.4161C86.4803 40.0667 87.869 39.0274 88.655 37.6562C88.7598 36.3549 88.4629 34.9139 88.393 33.6999H88.3755Z" fill="#450B00"/>
<path d="M92.7949 41.2644C93.0831 41.3692 93.1704 41.4653 93.249 41.5876C93.4936 41.9893 93.5285 42.4784 93.3713 42.9151C93.153 43.509 92.9346 43.902 93.5285 45.9107C93.7556 46.6793 93.6944 49.3867 93.8167 50.1727C94.4193 49.8583 97.6508 50.6356 98.3058 43.8932C98.3495 43.4828 98.201 43.0548 97.9739 42.7142C97.7032 42.3124 97.2578 42.0679 96.9171 41.7186C95.7643 40.5308 96.1486 38.6006 95.8429 36.9675C95.5023 35.1421 94.1486 33.5439 92.4019 32.9151C91.8516 32.7142 91.2665 32.6181 90.6726 32.6094C90.5678 33.5177 90.5154 34.426 90.5241 35.343C90.5416 36.6268 90.6901 37.9282 91.1442 39.1334C91.4674 39.998 92.1923 40.5919 92.8036 41.2644H92.7949Z" fill="#450B00"/>
<path d="M88.6725 55.8991C88.3493 55.8816 89.0917 56.2222 88.786 56.1698C88.4891 56.1174 88.2358 56.1 87.5982 56.1698C87.2664 56.2048 84.7423 56.5716 84.4192 56.3445C85.1615 56.8161 85.476 57.4799 87.9738 57.6807C89.3275 57.7856 90.0174 57.8729 90.3668 56.9297C90.3493 56.9908 89.3362 55.934 88.6637 55.9078L88.6725 55.8991Z" fill="#D20A0A"/>
<path d="M84.2969 56.0917C84.2969 56.0917 87.0305 55.2271 87.7554 55.3668C88.2357 55.4542 88.9432 55.559 89.4061 55.559C89.8689 55.559 91.3886 55.9957 90.3493 56.9389C90.3493 56.9389 89.5545 56.5109 88.1309 56.4061C86.7074 56.3013 84.3755 56.8603 84.2969 56.0917Z" fill="#D20A0A"/>
<path d="M87.4149 51.2969C87.3101 51.751 87.5372 52.1702 88.0961 52.1702C88.6551 52.1702 88.5416 52.2139 88.7337 52.3274C89.3014 52.6681 90.1136 52.5633 90.5503 52.3012C90.5852 52.275 90.6376 52.3012 90.6376 52.3449C90.6376 52.441 90.6376 52.5895 90.297 52.8864C89.9302 53.2008 89.7817 53.2619 89.4761 53.2619C88.8734 53.2619 87.6333 52.9737 87.2664 52.8951C87.0743 52.8951 86.9171 52.9301 86.9084 52.9301C86.4018 52.144 86.7861 51.5239 87.4149 51.2969Z" fill="#A93E00"/>
<path d="M88.5327 53.1563C88.0349 52.8681 87.9301 52.7808 87.4585 52.7458C87.0829 52.7109 86.8209 52.938 86.9519 52.9642C87.2052 53.0166 88.5414 53.1563 88.5414 53.1563H88.5327Z" fill="#00144A"/>
<path d="M82.131 50.7469C82.131 50.7469 81.31 49.987 81.0655 50.0045C80.821 50.0045 80.8646 48.1617 80.8646 48.1617C80.8646 48.1617 81.0917 44.7032 82.6376 43.3932C83.214 42.9041 85.0742 41.4543 86.1048 41.6814C86.69 41.8124 86.7773 41.3669 87.345 41.1224C87.5371 41.0438 87.7205 40.8517 87.8865 40.6333C88.1834 40.2403 87.8603 39.6901 87.3799 39.76C86.3057 39.9172 83.9563 40.2141 82.6026 40.7643C80.4105 41.6552 75.4585 44.3538 74.5153 45.3844C73.8515 46.1006 74.1048 46.9477 74.1572 49.1137C74.2358 52.3888 74.4629 53.8735 74.0437 54.7294C73.4323 55.9783 73.1528 56.4063 73.1528 56.4063C73.1528 56.4063 71.572 60.9827 67.5895 65.9783C63.8253 70.712 62.4192 73.6814 62.4192 73.6814C62.4192 73.6814 68.5327 80.5635 72.1572 79.3408C72.1572 79.3408 72.2096 79.2797 72.2358 79.1836C72.7249 77.5504 76.9345 63.3757 77.8865 61.3932C79.5284 57.9783 79.607 58.3277 80.3581 57.7774C81.1528 57.201 82.9869 54.7469 83.7555 53.6901C84.3057 52.9303 88.0961 52.1792 88.5328 51.0089C88.7948 50.3189 87.869 48.2753 85.0655 50.6595" fill="#FFAB92"/>
<path d="M85.31 50.4596C85.1615 50.5819 84.9694 50.6517 84.7772 50.6517L82.4803 50.7303C82.262 50.7303 82.0436 50.6605 81.8689 50.5207C81.6069 50.3024 81.2139 49.988 81.0655 49.9967C80.8209 49.9967 80.8646 48.1539 80.8646 48.1539C80.8646 48.1539 81.0917 44.6954 82.6375 43.3853C83.2139 42.8963 85.0742 41.4465 86.1048 41.6735C86.6899 41.8045 86.7773 41.3591 87.3449 41.1146C87.5371 41.036 87.7205 40.8438 87.8864 40.6255C88.1834 40.2325 87.8602 39.6823 87.3799 39.7521C86.3056 39.9094 83.9563 40.2063 82.6026 40.7565C81.9738 41.0098 81.1266 41.4115 80.2096 41.8832C80.1397 41.9181 80.0698 41.953 79.9912 41.9967C79.9475 42.0142 79.9126 42.0404 79.8689 42.0578C79.8165 42.084 79.7729 42.1102 79.7205 42.1364C79.6768 42.1539 79.6419 42.1801 79.5982 42.1976C79.5283 42.2325 79.4497 42.2762 79.3799 42.3111C79.3362 42.3373 79.2925 42.3548 79.2489 42.381C79.1965 42.4072 79.1353 42.4421 79.0829 42.4683C79.0393 42.4945 79.0043 42.512 78.9606 42.5382C78.9082 42.5644 78.8471 42.5993 78.7947 42.6255C78.7423 42.6517 78.7248 42.6604 78.6899 42.6866C78.6026 42.7303 78.524 42.774 78.4366 42.8264C78.4017 42.8439 78.3668 42.8701 78.3318 42.8875C78.2794 42.9225 78.2183 42.9487 78.1659 42.9836C78.131 43.0011 78.096 43.0273 78.0611 43.0447C77.9737 43.0884 77.8951 43.1408 77.8078 43.1845C77.7816 43.2019 77.7641 43.2107 77.7379 43.2281C77.6768 43.2631 77.6069 43.298 77.5458 43.3417C77.5109 43.3591 77.4759 43.3766 77.4497 43.4028C77.3886 43.4377 77.3275 43.4727 77.2663 43.5076C77.2401 43.5251 77.2139 43.5338 77.1877 43.5513C77.1091 43.5949 77.0218 43.6473 76.9432 43.691C76.917 43.7085 76.8908 43.7259 76.8646 43.7347C76.8034 43.7696 76.751 43.8046 76.6899 43.8395C76.6637 43.857 76.6375 43.8744 76.6113 43.8919C76.5327 43.9356 76.4541 43.988 76.3842 44.0316C76.3842 44.0316 76.358 44.0491 76.3493 44.0491C76.2794 44.0928 76.2183 44.1277 76.1572 44.1714C76.131 44.1888 76.1135 44.1976 76.0873 44.215C76.0261 44.25 75.9737 44.2849 75.9213 44.3286C75.9039 44.3286 75.8864 44.346 75.8689 44.3635C75.7991 44.4072 75.7292 44.4508 75.6681 44.4945C75.6506 44.4945 75.6331 44.5207 75.6157 44.5294C75.5633 44.5644 75.5196 44.5993 75.4672 44.6342C75.4497 44.6342 75.4323 44.6604 75.4148 44.6692C75.3537 44.7129 75.2925 44.7565 75.2401 44.7915C75.1877 44.8264 75.1353 44.8701 75.0829 44.905C75.0654 44.905 75.0567 44.9312 75.0392 44.9399C74.9956 44.9749 74.9606 45.0011 74.9257 45.0273C74.9257 45.0273 74.9082 45.0447 74.8908 45.0535C74.8471 45.0884 74.8034 45.1233 74.7598 45.1583C74.7598 45.1583 74.7423 45.1757 74.7336 45.1845C74.6986 45.2107 74.6724 45.2369 74.6462 45.2631C74.62 45.2893 74.6288 45.2805 74.62 45.2893C74.5851 45.3242 74.5589 45.3504 74.5327 45.3766C73.8689 46.0928 74.1222 46.9399 74.1746 49.1059C74.2532 52.381 74.4803 53.8657 74.0611 54.7216C73.4497 55.9705 73.1702 56.3985 73.1702 56.3985V56.4683C73.1702 56.4858 73.1528 56.512 73.144 56.5382V56.5644C73.144 56.5819 73.1266 56.5993 73.1178 56.6255V56.6517C73.0742 56.7565 73.0218 56.8963 72.9519 57.0622C72.6812 57.726 72.1921 58.8177 71.4585 60.1801C71.2663 60.5382 71.0567 60.9137 70.8296 61.298C70.8296 61.3155 70.8122 61.3242 70.8034 61.3417C70.751 61.4378 70.6899 61.5251 70.6375 61.6212C70.5152 61.8308 70.393 62.0317 70.2619 62.2413C70.1746 62.381 70.0785 62.5295 69.9912 62.6779C69.9039 62.8177 69.8078 62.9662 69.7117 63.1059C69.7117 63.1059 69.7117 63.1234 69.6943 63.1321C69.6069 63.2718 69.5109 63.4028 69.4235 63.5426C69.4235 63.56 69.4061 63.5688 69.3886 63.595C69.3012 63.726 69.2139 63.857 69.1178 63.988L69.1004 64.0055C69.0829 64.0229 69.0742 64.0404 69.0654 64.0579C68.9781 64.1801 68.8908 64.3024 68.8034 64.4247C68.7772 64.4596 68.7598 64.4858 68.7336 64.5207C68.6462 64.6343 68.5589 64.7565 68.4716 64.8701C68.4716 64.8701 68.4541 64.8963 68.4453 64.905C68.4279 64.9312 68.4017 64.9574 68.3842 64.9924C68.2969 65.1059 68.2095 65.2282 68.1135 65.3417V65.3592C68.0873 65.3941 68.0611 65.429 68.0349 65.464C67.9126 65.6212 67.7903 65.7784 67.6593 65.9356C63.8951 70.6692 62.489 73.6387 62.489 73.6387L62.5065 73.6561L62.5239 73.6736C62.5239 73.6736 62.5414 73.6911 62.5501 73.6998L62.5676 73.7173C62.5676 73.7173 62.5938 73.7435 62.6025 73.7522C62.6025 73.7522 62.6287 73.7784 62.6375 73.7871C62.6549 73.8046 62.6637 73.8221 62.6811 73.8395C62.6811 73.8395 62.6812 73.857 62.7074 73.8657C62.7074 73.8657 62.7074 73.8832 62.7248 73.8832C62.751 73.9094 62.7772 73.9356 62.8034 73.9618C62.8209 73.9793 62.8384 73.9967 62.8558 74.0142C62.882 74.0491 62.917 74.0753 62.9519 74.1103C62.9694 74.1277 62.9868 74.1452 63.0043 74.1627C63.0392 74.2063 63.0829 74.2413 63.1266 74.2849C63.144 74.3024 63.1528 74.3111 63.1702 74.3286L63.4322 74.5906C63.4672 74.6256 63.4934 74.6518 63.537 74.6867C63.5633 74.7216 63.5895 74.7478 63.6244 74.774C63.6506 74.8002 63.6768 74.8264 63.7117 74.8526H63.7292L63.7467 74.8701C63.7729 74.8963 63.8078 74.9312 63.8427 74.9574C63.8689 74.9836 63.8951 75.0098 63.9213 75.0273C63.9213 75.0273 63.9475 75.0535 63.9563 75.0622C63.9912 75.0972 64.0261 75.1234 64.0523 75.1583C64.0698 75.1758 64.0873 75.1932 64.1135 75.2107C64.1135 75.2107 64.1309 75.2282 64.1484 75.2369C64.1484 75.2369 64.1746 75.2631 64.1833 75.2718C64.2183 75.3068 64.2532 75.333 64.2881 75.3679C64.3056 75.3854 64.3231 75.3941 64.3405 75.4116L64.358 75.429C64.3842 75.4465 64.4017 75.4727 64.4279 75.4902C64.4628 75.5251 64.4977 75.5513 64.5327 75.5863C64.5327 75.5863 64.5501 75.6037 64.5589 75.6125C64.5589 75.6125 64.5764 75.6299 64.5851 75.6299C64.6113 75.6561 64.6375 75.6736 64.6637 75.6998C64.7161 75.7435 64.7598 75.7871 64.8122 75.8308C64.8733 75.8832 64.9257 75.9356 64.9868 75.988C65.0043 75.988 65.013 76.0142 65.0305 76.0229C66.489 77.2806 68.358 78.6518 70.0785 79.1758C70.8122 79.3941 71.4585 78.643 71.144 77.9443C71.1266 77.9007 71.1091 77.857 71.0829 77.8133C69.9039 75.1059 69.3624 71.6998 70.0873 68.8177C70.4279 67.4465 71.0392 66.1714 71.5895 64.8788C72.1309 63.595 72.4541 62.25 72.9868 60.9661C73.1528 60.5557 73.3275 60.1365 73.5371 59.7434C73.7467 59.3417 73.965 58.9487 74.1833 58.5469C74.6113 57.7347 75.0305 56.9225 75.4235 56.084C75.7903 55.2893 76.1571 54.4683 76.4104 53.6299C76.6113 52.9487 76.7161 52.2412 76.8733 51.5513C77.0218 50.8788 77.2052 50.1801 77.5895 49.6037C77.8078 49.2805 78.3668 48.4246 78.7772 49.036C78.8384 49.1321 78.8908 49.2456 78.9257 49.3591C79.048 49.7609 79.1266 50.1801 79.1528 50.6081C79.2139 51.5164 79.0567 52.4334 78.9344 53.3329C78.9344 53.3941 78.917 53.4552 78.9344 53.5164C78.9781 53.6124 79.1004 53.6386 79.2052 53.6474C79.7554 53.691 80.2969 53.4814 80.7772 53.2194C81.2663 52.9574 81.7292 52.643 82.2445 52.4596C82.4716 52.381 82.751 52.3286 82.9519 52.4596C83.1266 52.5819 83.1877 52.8177 83.1528 53.0273C83.1179 53.2369 83.0043 53.4203 82.8908 53.595C81.9912 54.8963 80.5589 55.7522 79.572 56.9923C79.1965 57.4727 79.0655 57.9181 79.2227 58.5033C79.2489 58.5906 79.2751 58.6867 79.3013 58.774C79.7729 58.0316 79.9825 58.0316 80.4366 57.6998C81.2314 57.1233 83.0655 54.6692 83.834 53.6124C84.3842 52.8526 88.1048 52.2412 88.6113 50.9312C88.8646 50.2587 87.9912 48.3024 85.3711 50.3897L85.3362 50.4508L85.31 50.4596Z" fill="#A93E00"/>
<path d="M77.9564 49.1155C78.035 48.9321 78.1136 48.7487 78.2009 48.5653C78.7861 47.3426 79.607 46.2072 80.6027 45.2815C81.0219 44.8884 81.476 44.5391 81.9564 44.2247C82.1485 43.9015 82.3756 43.6046 82.6463 43.3775C83.2227 42.8884 85.083 41.4387 86.1136 41.6657C86.6987 41.7967 86.7861 41.3513 87.3538 41.1068C87.5459 41.0282 87.7293 40.836 87.8952 40.6177C88.1922 40.2247 87.869 39.6745 87.3887 39.7443C86.3144 39.9015 83.9651 40.1985 82.6114 40.7487C81.9826 41.002 81.1354 41.4037 80.2184 41.8753C80.1485 41.9103 80.0786 41.9452 80 41.9889C79.9564 42.0063 79.9214 42.0325 79.8778 42.05C79.8254 42.0762 79.7817 42.1024 79.7293 42.1286C79.6856 42.1461 79.6507 42.1723 79.607 42.1898C79.5372 42.2247 79.4585 42.2684 79.3887 42.3033C79.345 42.3295 79.3013 42.347 79.2577 42.3732C79.2053 42.3994 79.1441 42.4343 79.0917 42.4605C79.0481 42.4867 79.0131 42.5042 78.9695 42.5304C78.9171 42.5566 78.8559 42.5915 78.8035 42.6177C78.7511 42.6439 78.7337 42.6526 78.6987 42.6788C78.6114 42.7225 78.5328 42.7662 78.4454 42.8186C78.4105 42.836 78.3756 42.8622 78.3406 42.8797C78.2882 42.9146 78.2271 42.9408 78.1747 42.9758C78.1398 42.9932 78.1048 43.0194 78.0699 43.0369C77.9826 43.0806 77.904 43.133 77.8166 43.1767C77.7904 43.1941 77.773 43.2029 77.7468 43.2203C77.6856 43.2553 77.6158 43.2902 77.5546 43.3339C77.5197 43.3513 77.4847 43.3688 77.4585 43.395C77.3974 43.4299 77.3363 43.4649 77.2751 43.4998C77.2489 43.5173 77.2227 43.526 77.1965 43.5435C77.1179 43.5871 77.0306 43.6395 76.952 43.6832C76.9258 43.7007 76.8996 43.7181 76.8734 43.7269C76.8123 43.7618 76.7599 43.7967 76.6987 43.8317C76.6725 43.8491 76.6463 43.8666 76.6201 43.8841C76.5415 43.9277 76.4629 43.9801 76.393 44.0238C76.393 44.0238 76.3668 44.0413 76.3581 44.0413C76.2882 44.0849 76.2271 44.1199 76.166 44.1636C76.1398 44.181 76.1223 44.1898 76.0961 44.2072C76.035 44.2422 75.9826 44.2771 75.9302 44.3208C75.9127 44.3208 75.8952 44.3382 75.8778 44.3557C75.8079 44.3994 75.738 44.443 75.6769 44.4867C75.6594 44.4867 75.6419 44.5129 75.6245 44.5216C75.5721 44.5566 75.5284 44.5915 75.476 44.6264C75.4585 44.6264 75.4411 44.6526 75.4236 44.6614C75.3625 44.705 75.3013 44.7487 75.2489 44.7836C75.1965 44.8186 75.1441 44.8622 75.0917 44.8972C75.0743 44.8972 75.0655 44.9234 75.0481 44.9321C75.0044 44.967 74.9695 44.9932 74.9345 45.0194C74.9345 45.0194 74.9171 45.0369 74.8996 45.0456C74.8559 45.0806 74.8123 45.1155 74.7686 45.1505C74.7686 45.1505 74.7511 45.1679 74.7424 45.1767C74.7074 45.2029 74.6812 45.2291 74.655 45.2553C74.6288 45.2815 74.6376 45.2727 74.6288 45.2815C74.5939 45.3164 74.5677 45.3426 74.5415 45.3688C73.8778 46.085 74.131 46.9321 74.1834 49.0981C74.262 52.3732 74.4891 53.8579 74.0699 54.7138C73.4585 55.9627 73.1791 56.3906 73.1791 56.3906V56.4605C73.1791 56.478 73.1616 56.5042 73.1529 56.5304V56.5566C73.1529 56.574 73.1354 56.5915 73.1267 56.6177V56.6439C73.083 56.7487 73.0306 56.8885 72.9607 57.0544C72.69 57.7182 72.2009 58.8099 71.4673 60.1723C71.2751 60.5304 71.0655 60.9059 70.8384 61.2902C70.8384 61.3077 70.821 61.3164 70.8122 61.3339C70.7598 61.4299 70.6987 61.5173 70.6463 61.6134C70.524 61.823 70.4018 62.0238 70.2708 62.2334C70.1834 62.3732 70.0874 62.5217 70 62.6701C69.9127 62.8099 69.8166 62.9583 69.7205 63.0981C69.7205 63.0981 69.7205 63.1155 69.7031 63.1243C69.6157 63.264 69.5197 63.395 69.4323 63.5348C69.4323 63.5522 69.4149 63.561 69.3974 63.5872C69.3101 63.7182 69.2227 63.8492 69.1267 63.9802L69.1092 63.9976C69.0917 64.0151 69.083 64.0326 69.0743 64.05C68.9869 64.1723 68.8996 64.2946 68.8122 64.4168C68.786 64.4518 68.7686 64.478 68.7424 64.5129C68.655 64.6265 68.5677 64.7487 68.4804 64.8623C68.4804 64.8623 68.4629 64.8885 68.4542 64.8972C68.4367 64.9234 68.4105 64.9496 68.393 64.9845C68.3057 65.0981 68.2184 65.2203 68.1223 65.3339V65.3513C68.0961 65.3863 68.0699 65.4212 68.0437 65.4562C67.9214 65.6134 67.7991 65.7706 67.6681 65.9278C63.9039 70.6614 62.4629 73.6832 62.4629 73.6832C62.4629 73.6832 62.4716 73.7007 62.4978 73.7269C62.5502 73.788 62.6638 73.9103 62.8035 74.05C63.1354 74.3994 63.5983 74.871 63.6856 74.9321C63.7031 74.9496 65.6157 76.8885 67.8515 78.2509C68.6812 78.7575 69.4935 79.1068 70 79.264C70.7336 79.4824 71.476 78.6527 71.1616 77.954C71.1441 77.9103 71.1267 77.8666 71.1005 77.823C69.9214 75.1156 69.3799 71.7094 70.1048 68.8273C70.4454 67.4562 71.0568 66.181 71.607 64.8885C72.1485 63.6046 72.4716 62.2596 73.0044 60.9758C73.1703 60.5653 73.345 60.1461 73.5546 59.7531C73.7642 59.3513 73.9826 58.9583 74.2009 58.5566C74.6288 57.7444 75.0481 56.9321 75.4411 56.0937C75.8079 55.2989 76.1747 54.478 76.428 53.6395C76.6288 52.9583 76.7337 52.2509 76.8909 51.5609C77.0393 50.8884 77.2227 50.1898 77.607 49.6133C77.7031 49.4736 77.8603 49.2378 78.035 49.0544L78 49.1243L77.9564 49.1155Z" fill="#FF7F4C"/>
<path d="M94.4733 48.2465C94.4733 48.2465 93.4514 48.5435 93.8794 49.443C94.3073 50.3426 95.5038 50.7269 95.5038 50.7269C95.5038 50.7269 96.7004 52.0544 97.2506 52.9016C97.8095 53.7575 100.028 57.3819 101.006 58.3688C101.984 59.347 104.753 60.8492 106.788 64.43C108.823 68.0195 110.744 71.6003 111.338 73.74C111.932 75.871 112.997 81.3994 115.172 86.3339C117.347 91.2684 120.098 95.2946 123.748 93.4693C127.408 91.644 126.735 88.7182 126.124 86.823C125.513 84.9365 122.037 75.7313 119.233 72.133C116.43 68.5348 111.792 59.8186 111.067 58.7182C110.334 57.6177 109.303 56.954 108.997 54.9365C108.692 52.9278 108.36 50.5959 108.237 48.7531C108.237 48.7531 108.237 48.5959 107.451 47.3732C106.665 46.1505 105.574 42.6483 101.853 41.085C98.8576 39.8273 96.5423 39.774 95.7571 39.8186C95.6095 39.8273 95.4427 39.9583 95.4252 40.133C95.3903 40.5871 95.4078 41.4168 96.0279 41.7312C96.8925 42.1592 98.3073 41.836 98.3073 41.836C98.3073 41.836 98.6742 42.2465 99.5825 42.0806C99.7196 42.0555 101.827 43.3758 101.937 43.7197C102.554 45.6532 100.718 49.9073 100.407 50.1816C100.049 50.5048 99.6698 52.0369 99.0672 51.2509C99.0672 51.2509 98.1414 49.8797 97.0148 48.9802C95.8881 48.0719 94.4733 48.2465 94.4733 48.2465Z" fill="#FFAB92"/>
<path d="M95.4165 40.5977C95.4427 41.0256 95.5737 41.5147 96.0191 41.733C96.8838 42.161 98.2986 41.864 98.2986 41.864C98.2986 41.864 98.6654 42.2483 99.5737 42.0824H99.6174C98.351 41.2963 96.8838 40.7898 95.4165 40.5977Z" fill="#A93E00"/>
<path d="M98.5361 42.362L100.577 42.1919L97.8559 41.5117L92.7544 41.8518L93.2645 42.0219L94.2848 43.7224L98.5361 42.362Z" fill="#046C7C"/>
<path d="M123.146 90.0452C122.395 89.6958 121.67 89.233 121.12 88.6129C120.342 87.7395 119.74 86.6915 119.181 85.6696C118.604 84.6129 118.089 83.5299 117.513 82.4731C116.936 81.4076 116.255 80.3945 115.696 79.3203C114.569 77.1631 113.731 74.8749 112.91 72.5867C112.08 70.281 111.259 67.9578 110.168 65.7657C109.128 63.6958 107.897 61.7569 106.447 59.9491C106.08 59.4949 105.696 59.0583 105.329 58.6041C105.058 58.2635 104.796 57.9141 104.622 57.5124C104.281 56.7351 104.386 55.9054 104.465 55.0844C104.534 54.281 104.604 53.4775 104.517 52.674C104.482 52.3246 104.421 51.9491 104.255 51.6347C104.106 51.3552 103.766 51.0146 103.425 51.0844C103.058 51.1543 102.761 51.5299 102.465 51.7395C102.133 51.9753 101.74 51.7924 101.338 51.836C100.858 51.8972 99.4776 51.7919 99.0759 51.2679C99.0759 51.2679 98.1501 49.8967 97.0235 48.9971C95.8968 48.0888 94.482 48.2635 94.482 48.2635C94.482 48.2635 93.6348 48.7002 93.8881 49.46C94.316 50.3596 95.5125 50.7438 95.5125 50.7438C95.5125 50.7438 96.709 52.0713 97.2593 52.9185C97.8182 53.7744 100.037 57.3989 101.015 58.3858C101.993 59.3639 104.761 60.8661 106.796 64.4469C108.831 68.0364 110.753 71.6172 111.347 73.757C111.941 75.888 113.006 81.4164 115.181 86.3509C117.355 91.2854 120.106 95.3116 123.757 93.4862C125.181 92.7701 125.949 91.8967 126.316 90.9797C125.216 90.8487 124.133 90.5255 123.154 90.0627V90.0452H123.146Z" fill="#FF7F4C"/>
<path d="M102.617 45.9329L102.107 45.4227C101.583 44.3048 102.786 43.8753 101.668 43.3163C101.24 43.098 97.7118 42.8098 96.8122 46.8447C95.9127 50.8797 96.4707 50.2884 96.7249 50.443C96.3389 50.4648 95.9389 50.0936 95.572 49.8753C95.441 49.8054 95.3188 49.7268 95.1965 49.6482C94.5065 49.2115 93.9738 48.5565 93.6856 47.788C93.1878 46.4779 92.9258 44.6875 93.8428 42.7661C93.8428 42.7661 92.917 43.6482 92.4716 44.836C92.4891 44.705 92.5065 44.5827 92.5153 44.4517C92.5589 44.0238 92.6201 43.4823 92.3755 43.098C92.0349 42.5653 93.4484 41.939 92.9244 41.8517C92.5838 41.7906 93.1602 42.0875 92.9244 41.8517C92.7585 41.6858 89.4323 42.0936 89.2227 42.1984C89.0131 42.3032 89.083 42.277 89.083 42.277C89.441 42.9059 90.8471 47.3251 90.8471 47.3251C90.8471 47.3251 91.0306 47.3425 91.3013 47.36C91.2838 47.3775 91.2751 47.395 91.2576 47.4124C91.2576 47.4124 91.2576 50.2771 93.3275 50.3819C95.4061 50.4867 96.0881 49.5342 97.3457 49.674C98.2889 49.7788 97.3791 49.6262 98.366 49.5039C98.4621 49.5039 99.2902 49.8753 99.3863 49.8753C99.8055 48.2683 99.9738 50.181 100.419 50.0412C100.83 49.9102 100.319 49.7701 100.747 49.674C101.096 49.5954 100.772 49.4998 101.087 49.3339C101.489 49.1243 101.069 49.1119 101.427 48.8237C101.593 48.6927 101.296 48.836 101.427 48.6613C101.479 48.5915 101.392 48.3922 101.427 48.3136C101.444 48.2787 101.741 48.0172 101.767 47.9735C101.767 47.956 101.257 47.5897 101.257 47.6334C101.257 47.5461 101.876 47.0056 101.937 46.9532C102.051 46.3855 102.173 46.4394 101.937 45.9329H102.617Z" fill="#00144A"/>
<path d="M91.2401 46.1203C91.2401 43.6312 89.2227 41.6137 86.7336 41.6137C84.2445 41.6137 86.4279 41.6137 86.2794 41.6399C86.2794 41.6399 84.4978 41.1072 81.9825 43.8234C80.6812 45.2295 80.3143 46.8539 80.2619 48.0854C80.2095 49.3168 81.3798 50.9937 82.9432 51.0985C84.5065 51.2033 84.0698 51.1159 84.7947 51.0111C88.3056 50.5133 87.3624 50.8103 88.2882 50.3474C90.0174 49.7186 91.2489 48.0592 91.2489 46.1116H91.2401V46.1203Z" fill="#046C7C"/>
<path d="M86.7336 50.3988C89.0971 50.3988 91.0131 48.4828 91.0131 46.1193C91.0131 43.7558 89.0971 41.8398 86.7336 41.8398C84.3701 41.8398 82.4541 43.7558 82.4541 46.1193C82.4541 48.4828 84.3701 50.3988 86.7336 50.3988Z" fill="#00144A"/>
<path d="M86.7337 50.0381C88.8994 50.0381 90.6551 48.2824 90.6551 46.1167C90.6551 43.951 88.8994 42.1953 86.7337 42.1953C84.5679 42.1953 82.8123 43.951 82.8123 46.1167C82.8123 48.2824 84.5679 50.0381 86.7337 50.0381Z" fill="#D5DADD"/>
<path d="M90.5503 45.1832C90.332 44.2836 89.7992 43.5063 89.0743 42.9648L83.5896 48.4496C84.1224 49.1745 84.9084 49.6985 85.8079 49.9255L90.5503 45.1832Z" fill="#4D82B8"/>
<path d="M87.0744 42.205C86.9609 42.205 86.8561 42.1875 86.7425 42.1875C84.5766 42.1875 82.8823 43.943 82.8211 46.1089C82.76 48.2748 82.8386 46.4146 82.8386 46.4408L87.0831 42.1962L87.0744 42.205Z" fill="#4D82B8"/>
<path d="M103.054 46.1203C103.054 43.6312 101.037 41.6137 98.5474 41.6137C96.0584 41.6137 98.2418 41.6137 98.0933 41.6399C98.0933 41.6399 96.3116 41.1072 93.7963 43.8234C92.495 45.2295 92.9768 46.7425 92.9244 47.974C92.872 49.2054 93.5717 50.2426 95.135 50.3474C96.6984 50.4522 95.8837 51.1159 96.6086 51.0111C100.119 50.5133 99.1763 50.8103 100.102 50.3474C101.831 49.7186 103.063 48.0592 103.063 46.1116H103.054V46.1203Z" fill="#046C7C"/>
<path d="M98.5475 50.3988C100.911 50.3988 102.827 48.4828 102.827 46.1193C102.827 43.7558 100.911 41.8398 98.5475 41.8398C96.1841 41.8398 94.2681 43.7558 94.2681 46.1193C94.2681 48.4828 96.1841 50.3988 98.5475 50.3988Z" fill="#00144A"/>
<path d="M98.5476 50.0381C100.713 50.0381 102.469 48.2824 102.469 46.1167C102.469 43.951 100.713 42.1953 98.5476 42.1953C96.3819 42.1953 94.6262 43.951 94.6262 46.1167C94.6262 48.2824 96.3819 50.0381 98.5476 50.0381Z" fill="#D5DADD"/>
<path d="M102.364 45.1832C102.146 44.2836 101.613 43.5063 100.888 42.9648L95.4033 48.4496C95.9361 49.1745 96.7221 49.6985 97.6217 49.9255L102.364 45.1832Z" fill="#4D82B8"/>
<path d="M98.8881 42.205C98.7746 42.205 98.6698 42.1875 98.5563 42.1875C96.3903 42.1875 94.696 43.943 94.6349 46.1089C94.5737 48.2748 94.6523 46.4146 94.6523 46.4408L98.8969 42.1962L98.8881 42.205Z" fill="#4D82B8"/>
<path d="M92.7947 44.9122C93.6388 44.9122 94.3231 44.228 94.3231 43.3839C94.3231 42.5398 93.6388 41.8555 92.7947 41.8555C91.9506 41.8555 91.2664 42.5398 91.2664 43.3839C91.2664 44.228 91.9506 44.9122 92.7947 44.9122Z" fill="#046C7C"/>
<path d="M91.8603 43.3839C91.8603 42.6415 92.3931 42.0214 93.1005 41.8817C93.0044 41.8642 92.9083 41.8555 92.8035 41.8555C91.9564 41.8555 91.2751 42.5454 91.2751 43.3839C91.2751 44.2223 91.9651 44.9122 92.8035 44.9122C93.642 44.9122 93.0044 44.9035 93.1005 44.886C92.3931 44.7463 91.8603 44.1262 91.8603 43.3839Z" fill="#00144A"/>
<path d="M121.677 89.3506V89.3593C121.774 90.2606 121.531 91.1052 121.262 91.9576C121.301 90.7453 121.212 89.5323 121.022 88.3288C120.856 88.0755 120.681 87.8309 120.507 87.5777C120.445 87.796 120.393 88.0143 120.332 88.2327L120.323 88.2414C120.236 88.5646 120.149 88.879 120.026 89.1847C119.921 89.4467 119.79 89.7261 119.581 89.927C119.066 90.4074 118.428 90.058 117.983 89.665C116.961 88.7567 116.585 87.0624 115.135 86.748C115.223 88.0405 115.476 89.3331 115.362 90.6257C115.319 91.1672 115.223 91.8047 114.821 92.2152C114.384 92.6606 113.773 92.5209 113.258 92.32C112.542 92.0493 111.878 91.665 111.223 91.2807C110.969 91.1322 110.716 90.9838 110.463 90.8353C110.044 90.5908 109.686 90.224 109.345 89.8746C108.996 89.5253 108.646 89.1585 108.21 88.9139C107.817 88.6956 107.38 88.5646 106.978 88.355C106.594 88.1541 106.306 87.8659 106.122 87.4729C105.956 87.1148 105.878 86.7218 105.886 86.32C105.886 85.5078 106.183 84.7218 106.411 83.9532C106.594 83.3244 106.804 82.6432 106.707 81.9794C106.21 82.058 105.694 82.058 105.223 81.8484C104.419 81.4991 104.079 80.6344 103.843 79.8484C103.616 79.106 103.459 78.32 103.057 77.6562C102.664 78.0667 102.62 78.6781 102.673 79.237C102.742 79.927 102.952 80.5908 103.153 81.2458C103.371 81.9707 103.537 82.6956 103.659 83.4379C103.956 85.3157 103.983 87.2196 103.991 89.1148C104.026 89.141 104.052 89.1759 104.087 89.2109C104.638 89.796 106.035 90.8266 107.354 91.1148C108.673 91.4117 115.991 96.451 120.393 96.3986C120.393 96.389 120.398 96.3803 120.403 96.3707C120.399 96.3803 120.397 96.3899 120.393 96.3986C124.776 96.3986 125.695 92.8353 126.254 91.1148C126.446 90.5122 122.935 91.3157 121.677 89.3506ZM120.411 96.3462C120.413 96.341 120.415 96.3349 120.417 96.3288C120.414 96.3358 120.412 96.3427 120.41 96.3497C120.41 96.3489 120.41 96.3471 120.41 96.3462H120.411Z" fill="#00144A"/>
<path d="M107.209 76.2006C107.209 76.2006 107.192 73.8934 105.367 77.3387C103.547 80.79 105.693 83.6658 106.766 84.7177C107.838 85.7696 113.371 94.0104 117.782 94.2025C122.194 94.3946 124.931 96.0765 125.914 92.3553C125.914 92.3553 127.932 88.7191 126.235 85.6723C124.538 82.6254 122.671 77.3075 122.671 77.3075C122.671 77.3075 122.376 79.9536 114.253 80.452L111.84 80.6544C111.84 80.6544 112.774 79.579 110.95 78.0711C109.126 76.5633 107.379 75.8605 107.379 75.8605L107.209 76.2006Z" fill="#3B5B7C"/>
<path d="M111.863 80.4794C111.907 80.5222 111.803 80.6282 111.81 80.7084C111.879 81.5106 112.302 82.4144 112.427 83.2098C112.637 84.4801 112.902 85.7435 113.192 86.9945C113.321 87.5367 113.462 88.0788 113.671 88.5894C113.785 88.8724 113.929 89.1613 114.117 89.4065C114.109 89.2398 114.071 89.0796 114.02 88.9319C113.93 88.5992 113.804 88.2793 113.745 87.9402C113.673 87.5024 113.619 87.0583 113.59 86.6139C113.561 86.1571 113.575 85.6938 113.54 85.2433C113.518 84.8915 113.471 84.5399 113.511 84.1875C113.534 84.0144 113.582 83.8533 113.661 83.6982C113.733 83.5616 113.849 83.3814 114.009 83.3428C114.138 83.2983 114.238 83.3715 114.361 83.3703C114.398 83.3699 114.386 83.3947 114.404 83.3266C114.422 83.2091 114.383 83.0736 114.364 82.9565C114.344 82.8146 114.324 82.6728 114.353 82.5304C114.413 82.2828 114.558 81.985 114.829 81.9082C115.1 81.8315 115.41 81.9397 115.688 81.9308C116.083 81.9147 116.484 81.8429 116.866 81.7651C117.248 81.6873 117.636 81.6279 118.025 81.5562C118.703 81.4262 119.374 81.2529 119.995 80.9567C120.659 80.6291 121.216 80.1482 121.755 79.6489C122.214 79.2184 122.654 78.7571 122.989 78.2289C122.78 77.6689 122.665 77.3242 122.665 77.3242C122.665 77.3242 122.37 79.9703 114.247 80.4687L111.863 80.4794Z" fill="#00144A"/>
<path d="M98.7062 50.6917L95.3052 50.3516L96.1554 51.2018L98.026 52.5622L98.7062 50.6917Z" fill="#FF7F4C"/>
<defs>
<clipPath id="clip0_4413_116646">
<rect width="8" height="13.5" fill="white" transform="translate(97.179 101.398)"/>
</clipPath>
</defs>
</svg>
